<?xml version="1.0" encoding="UTF-8"?>
<svg id="Layer_1" xmlns="http://www.w3.org/2000/svg" xmlns:xlink="http://www.w3.org/1999/xlink" version="1.1" viewBox="0 0 140 140">
  <!-- Generator: Adobe Illustrator 29.1.0, SVG Export Plug-In . SVG Version: 2.1.0 Build 142)  -->
  <defs>
    <style>
      .st0, .st1 {
        fill: none;
      }

      .st2 {
        fill-rule: evenodd;
      }

      .st2, .st3 {
        fill: #fff;
      }

      .st4 {
        fill: #e4c655;
      }

      .st5 {
        clip-path: url(#clippath-1);
      }

      .st1 {
        clip-rule: evenodd;
      }

      .st6 {
        clip-path: url(#clippath);
      }
    </style>
    <clipPath id="clippath">
      <polygon class="st1" points="45.49 115.51 55 111.51 51.99 103.51 48.49 66.55 32.56 55.25 28.25 56.88 24.88 51.06 8.48 79 45.49 115.51"/>
    </clipPath>
    <clipPath id="clippath-1">
      <polygon class="st1" points="86.01 61.05 106.06 54.31 111.88 56.88 122.56 44.44 120.52 71.5 112.51 99.51 92.01 115.51 85 111.51 88.01 102.51 86.01 61.05"/>
    </clipPath>
  </defs>
  <path class="st4" d="M136.06,60.3l-4.39-4.73c-2.87-3.09-4.21-7.39-3.64-11.65l.88-6.51c1.01-7.45-3.83-14.39-10.95-15.69l-6.22-1.14c-4.07-.74-7.58-3.4-9.52-7.2l-2.96-5.81c-3.39-6.64-11.22-9.3-17.71-5.99l-5.67,2.89c-3.71,1.89-8.05,1.89-11.77,0l-5.67-2.89c-6.49-3.3-14.33-.65-17.72,5.99l-2.96,5.81c-1.94,3.8-5.45,6.46-9.52,7.2l-6.22,1.14c-7.12,1.3-11.96,8.24-10.95,15.69l.88,6.51c.58,4.26-.76,8.56-3.64,11.65l-4.39,4.73c-5.02,5.41-5.02,13.99,0,19.39l4.39,4.73c2.87,3.09,4.21,7.39,3.64,11.65l-.88,6.51c-1.01,7.45,3.83,14.39,10.95,15.69l6.22,1.14c4.07.74,7.58,3.4,9.52,7.2l2.96,5.81c3.39,6.64,11.22,9.3,17.72,5.99l5.67-2.89c3.71-1.89,8.05-1.89,11.77,0l5.67,2.89c6.49,3.3,14.33.65,17.71-5.99l2.96-5.81c1.94-3.8,5.45-6.46,9.52-7.2l6.22-1.14c7.12-1.3,11.96-8.24,10.95-15.69l-.88-6.51c-.58-4.26.76-8.56,3.64-11.65l4.39-4.73c5.02-5.41,5.02-13.99,0-19.39ZM22.16,111.17c-2.63,0-4.76-2.22-4.76-4.96s2.13-4.96,4.76-4.96,4.76,2.22,4.76,4.96-2.13,4.96-4.76,4.96Z"/>
  <g>
    <path class="st3" d="M58.35,74.4c-.48.53-1.17.95-2.09,1.27-.92.32-1.92.48-3.02.48-1.68,0-3.03-.51-4.03-1.53-1.01-1.02-1.54-2.44-1.62-4.26v-1.1c0-1.25.21-2.35.66-3.29.45-.94,1.09-1.66,1.92-2.16.83-.5,1.8-.76,2.89-.76,1.6,0,2.84.36,3.73,1.09.89.73,1.4,1.81,1.55,3.25h-2.98c-.11-.71-.34-1.22-.69-1.52-.35-.3-.85-.46-1.5-.46-.78,0-1.38.33-1.8.98s-.64,1.59-.64,2.8v.77c0,1.27.22,2.23.66,2.87.44.64,1.13.96,2.07.96.81,0,1.41-.18,1.8-.53v-1.98h-2.15v-2.11h5.25v5.23Z"/>
    <path class="st3" d="M71.03,69.87c0,1.24-.23,2.34-.7,3.3-.46.96-1.12,1.69-1.98,2.21-.86.52-1.83.77-2.93.77s-2.06-.25-2.91-.75-1.51-1.21-1.98-2.14-.72-1.99-.75-3.19v-.72c0-1.25.23-2.35.69-3.3.46-.95,1.12-1.69,1.99-2.21.86-.52,1.84-.78,2.94-.78s2.06.26,2.91.77c.85.51,1.52,1.24,1.99,2.19s.71,2.03.72,3.26v.59ZM67.88,69.33c0-1.27-.21-2.23-.64-2.88-.43-.66-1.04-.98-1.83-.98-1.55,0-2.37,1.16-2.46,3.47v.94c0,1.25.2,2.21.62,2.88.42.67,1.04,1.01,1.86,1.01s1.39-.33,1.81-.99.64-1.61.64-2.84v-.59Z"/>
    <path class="st3" d="M75.73,73.61h5.39v2.36h-8.49v-12.74h3.1v10.38Z"/>
    <path class="st3" d="M82.43,75.97v-12.74h4.14c1.13,0,2.16.26,3.06.77.91.51,1.61,1.23,2.12,2.16s.77,1.97.77,3.13v.59c0,1.17-.25,2.21-.75,3.14s-1.2,1.65-2.1,2.17-1.91.79-3.02.79h-4.23ZM85.52,65.6v8.01h1.08c.89,0,1.57-.31,2.05-.94.48-.63.71-1.56.71-2.8v-.55c0-1.23-.24-2.16-.71-2.78-.48-.62-1.17-.94-2.08-.94h-1.04Z"/>
  </g>
  <g>
    <circle class="st0" cx="70" cy="70" r="40.41"/>
    <path class="st3" d="M34.74,39.98l-1.27,1.71,4.64,3.46-1.02,1.38-4.64-3.46-1.25,1.68-1.06-.79,3.55-4.77,1.06.79Z"/>
    <path class="st3" d="M41.22,39.73l-1.66,1.67.65,1.23-1.29,1.3-3.21-6.86,1.14-1.14,6.9,3.15-1.3,1.31-1.24-.64ZM38.91,40.17l1.08-1.08-2.29-1.19,1.21,2.28Z"/>
    <path class="st3" d="M48.17,34.81c-.04.39-.21.81-.52,1.25-.31.44-.71.84-1.2,1.2-.75.55-1.52.75-2.31.62-.79-.13-1.49-.6-2.12-1.4l-.36-.5c-.41-.57-.67-1.14-.77-1.7-.11-.57-.05-1.1.15-1.6s.56-.92,1.05-1.28c.72-.52,1.39-.76,2.03-.72s1.22.36,1.76.97l-1.34.97c-.28-.29-.55-.44-.81-.47-.26-.02-.53.07-.82.28-.35.25-.51.59-.49,1.03.02.43.23.93.63,1.48l.25.35c.42.57.83.94,1.23,1.08.41.15.82.07,1.24-.24.36-.26.57-.54.63-.83l-.65-.89-.96.7-.69-.95,2.36-1.7,1.71,2.37Z"/>
    <path class="st3" d="M50.23,33.23l2.65-1.38.61,1.17-4.17,2.17-3.29-6.3,1.52-.79,2.68,5.13Z"/>
    <path class="st3" d="M55.73,32.17l-1.59.63-2.64-6.6,1.59-.63,2.64,6.6Z"/>
    <path class="st3" d="M62.34,30.2l-1.65.44-3.58-3.62,1.15,4.27-1.66.45-1.85-6.87,1.66-.45,3.58,3.62-1.15-4.27,1.65-.45,1.85,6.87Z"/>
    <path class="st3" d="M67.22,26.59l-2.68.31.19,1.69,3.16-.36.15,1.31-4.87.56-.81-7.06,4.88-.56.15,1.32-3.17.36.17,1.49,2.68-.31.14,1.26Z"/>
    <path class="st3" d="M75.03,28.54l-2.34-.22-.53,1.28-1.82-.17,3.26-6.84,1.61.15,1.95,7.33-1.83-.17-.29-1.36ZM73.23,27.04l1.52.14-.53-2.53-.99,2.38Z"/>
    <path class="st3" d="M83.19,28.97l1.99-4.08,1.64.46-3.37,6.44-1.71-.48.17-4.16-1.99,3.65-1.71-.48.46-7.26,1.64.46-.42,4.51,2.14-4.03,1.4.39-.25,4.56Z"/>
    <path class="st3" d="M89.22,32.93l-2.12-1.02-.95,1.02-1.65-.8,5.45-5.26,1.45.7-.74,7.55-1.66-.8.21-1.38ZM88.05,30.9l1.38.67.38-2.55-1.76,1.89Z"/>
    <path class="st3" d="M94.47,34.73l-.76-.53-1.44,2.06-1.41-.98,4.06-5.84,2.3,1.6c.69.48,1.13,1.01,1.3,1.59.18.58.07,1.15-.32,1.71-.28.41-.6.69-.95.84-.35.15-.76.19-1.22.11l-.42,3.2-.04.06-1.51-1.05.41-2.78ZM94.46,33.12l.89.62c.27.19.52.25.75.21.23-.05.44-.2.61-.45.17-.25.24-.5.21-.74s-.19-.45-.45-.63l-.89-.62-1.12,1.61Z"/>
    <path class="st3" d="M95.97,38.92l4.91-5.14,1.66,1.58c.46.43.76.93.93,1.48.17.55.17,1.11.02,1.68-.16.57-.46,1.09-.9,1.56l-.23.24c-.45.47-.95.8-1.51.98-.56.18-1.12.21-1.68.07-.56-.13-1.07-.41-1.52-.84l-1.69-1.62ZM101.21,35.92l-3.09,3.23.43.41c.36.34.75.47,1.18.4.43-.07.89-.36,1.36-.86l.21-.22c.48-.5.74-.96.79-1.4.05-.43-.11-.83-.47-1.17l-.42-.4Z"/>
    <path class="st3" d="M104.13,44.98c.2-.15.3-.34.3-.57,0-.23-.07-.56-.23-1.01s-.26-.82-.33-1.13c-.21-1.01,0-1.75.63-2.23.31-.24.66-.36,1.04-.37.38,0,.76.11,1.15.34.39.23.74.55,1.07.97.31.4.52.82.62,1.25.1.43.09.84-.04,1.22-.13.38-.37.71-.71.97l-1.05-1.35c.23-.18.35-.38.37-.62.02-.24-.07-.48-.25-.72-.19-.24-.39-.39-.6-.45-.22-.06-.41-.02-.57.1-.14.11-.21.29-.21.54,0,.25.09.61.27,1.1.18.49.29.91.34,1.27.12.88-.13,1.56-.74,2.03-.49.38-1.02.49-1.59.34-.57-.15-1.1-.55-1.6-1.2-.35-.46-.59-.93-.71-1.43-.12-.5-.11-.95.03-1.36.14-.41.4-.75.77-1.04l1.05,1.36c-.3.23-.46.48-.49.75-.02.27.1.57.37.92.17.22.36.36.56.42.2.05.38.02.56-.12Z"/>
  </g>
  <g>
    <circle class="st0" cx="70" cy="70" r="47.5"/>
    <path class="st3" d="M62.96,117.05l-4.86-.99.21-1.05,2.72-1.9c.68-.52,1.06-.96,1.13-1.33.06-.3.04-.54-.06-.72-.1-.18-.27-.3-.52-.35-.25-.05-.47.01-.66.19-.2.18-.33.42-.39.74l-1.62-.33c.09-.43.28-.8.56-1.12.29-.32.64-.54,1.06-.67.42-.13.87-.14,1.33-.05.75.15,1.3.45,1.63.88.33.43.44.97.3,1.62-.06.28-.16.53-.32.77-.16.24-.37.48-.64.72-.27.24-.7.55-1.27.93l-1.11.86,2.74.56-.25,1.24Z"/>
    <path class="st3" d="M69.75,114.67c-.06.96-.32,1.69-.78,2.18-.46.49-1.09.72-1.87.67-.79-.05-1.38-.35-1.79-.9-.4-.55-.57-1.3-.51-2.25l.08-1.3c.06-.96.32-1.69.78-2.18.46-.49,1.09-.71,1.87-.67.79.05,1.38.35,1.78.9.4.55.57,1.3.51,2.26l-.08,1.29ZM68.2,113.06c.03-.51-.01-.9-.13-1.16-.12-.26-.32-.4-.61-.42-.28-.02-.5.09-.64.31s-.23.58-.27,1.05l-.11,1.81c-.03.53.01.92.13,1.17.12.25.32.39.61.41.28.02.49-.09.64-.32.15-.23.24-.6.27-1.11l.11-1.76Z"/>
    <path class="st3" d="M76.22,117.16l-4.95.4-.08-1.07,2.09-2.58c.51-.68.75-1.21.72-1.59-.02-.31-.11-.53-.26-.68-.15-.15-.34-.21-.6-.19-.25.02-.44.14-.58.37-.14.22-.2.5-.17.81l-1.65.13c-.03-.44.04-.85.23-1.23.19-.39.47-.7.84-.94.37-.24.79-.38,1.27-.42.77-.06,1.37.07,1.81.39.44.32.69.81.74,1.47.02.28,0,.55-.09.83-.08.27-.22.56-.42.87-.2.31-.52.72-.97,1.25l-.83,1.13,2.79-.22.1,1.27Z"/>
    <path class="st3" d="M81.51,113.25l.71-.16.28,1.24-.71.16.33,1.47-1.61.36-.33-1.47-2.68.6-.31-.96,1.78-5.09h0s1.61-.37,1.61-.37l.94,4.23ZM78.65,113.88l1.25-.28-.48-2.13-.06.18-.71,2.23Z"/>
  </g>
  <g class="st6">
    <path class="st2" d="M88.26,30.05c-.76,1.37-3.82,1.7-5.9,1.2,1.04-.94,3.28-1.84,5.2-1.37l.69.17-.61-.37c-1.69-1.02-2.62-3.23-2.68-4.63,1.82,1.1,3.74,3.5,3.29,5h0ZM70.04,112.89h0c.65,0,1.18.52,1.18,1.17s-.53,1.17-1.18,1.17-1.18-.52-1.18-1.17c0-.65.53-1.17,1.18-1.17h0ZM85.64,28.84h0l-.54-.46c-1.49-1.29-3.9-1.51-5.26-1.14,1.61,1.39,4.49,2.48,5.79,1.61h0ZM54.61,28.85h0c1.31.87,4.18-.22,5.79-1.61-1.36-.36-3.76-.14-5.26,1.15l-.54.46h0ZM67.01,114.08h0c-.36,1.52-3.22,2.66-5.36,2.72.75-1.18,2.66-2.64,4.64-2.7l.71-.02c.03-1.56-2.46-3.36-4.52-3.94.43,1.33,1.93,3.21,3.84,3.74l.69.19h0ZM62.56,113.49h0c.18-1.55-2.11-3.59-4.1-4.37.3,1.37,1.59,3.38,3.44,4.11l.66.26-.71-.05c-1.98-.14-4.03,1.12-4.89,2.22,2.13.15,5.09-.69,5.61-2.17h0ZM58.2,112.46h0c-.66,1.42-3.69,1.96-5.8,1.6.97-1.01,3.14-2.06,5.1-1.72l.7.12c.34-1.53-1.74-3.78-3.63-4.76.16,1.39,1.24,3.53,3,4.43l.63.33h0ZM53.96,111h0c.49-1.49-1.34-3.93-3.13-5.09.02,1.4.88,3.63,2.54,4.71l.6.39-.69-.19c-1.91-.53-4.17.3-5.24,1.21,2.06.57,5.13.33,5.93-1.01h0ZM49.89,109.13h0c-.94,1.26-4.01,1.19-6,.42,1.16-.8,3.5-1.39,5.34-.68l.66.26c.64-1.43-.94-4.05-2.6-5.38-.13,1.39.5,3.7,2.05,4.94l.55.44h0ZM46.04,106.85h0c.78-1.36-.52-4.12-2.04-5.61-.27,1.37.13,3.73,1.53,5.12l.51.5-.63-.32c-1.76-.9-4.15-.54-5.38.14,1.9.97,4.95,1.34,6.01.18h0ZM42.43,104.21h0c-1.17,1.05-4.17.37-5.96-.78,1.3-.55,3.7-.67,5.37.4l.6.38-.45-.55c-1.26-1.52-1.41-3.91-1.01-5.24,1.36,1.64,2.38,4.52,1.46,5.79h0ZM39.11,101.21c-1.27.93-4.19-.05-5.85-1.38,1.34-.42,3.75-.3,5.3.93l.56.44c1.04-1.17.32-4.14-.86-5.91-.54,1.29-.63,3.68.47,5.32l.4.59h0ZM36.11,97.9h0c-1.36.79-4.16-.47-5.68-1.95,1.38-.28,3.76.08,5.18,1.46l.51.5c1.16-1.06.74-4.09-.26-5.96-.67,1.23-1,3.6-.07,5.34l.33.63h0ZM33.47,94.31h0c-1.43.65-4.09-.88-5.46-2.51,1.4-.14,3.74.46,5,1.97l.45.54-.27-.65c-.75-1.82-.17-4.15.62-5.31.81,1.97.91,5.02-.35,5.96h0ZM31.2,90.47h0l-.2-.68c-.56-1.89.25-4.14,1.15-5.22.6,2.04.4,5.08-.95,5.9l-.4-.59c-1.1-1.63-3.37-2.46-4.78-2.46,1.19,1.76,3.68,3.55,5.17,3.05h0ZM29.33,86.42h0c-1.53.36-3.83-1.68-4.84-3.55,1.4.14,3.57,1.19,4.5,2.92l.34.62c1.42-.67,1.94-3.68,1.54-5.77-1.01.98-2.04,3.14-1.67,5.08l.13.69h0ZM27.89,82.21h0l-.06-.71c-.16-1.96,1.08-4.01,2.18-4.88.18,2.11-.64,5.06-2.12,5.59l-.27-.66c-.75-1.82-2.8-3.08-4.18-3.36.81,1.96,2.89,4.21,4.45,4.01h0ZM26.88,77.87v-.71c.05-1.97,1.49-3.88,2.68-4.64-.04,2.12-1.15,4.97-2.68,5.35l-.2-.68c-.56-1.88-2.47-3.35-3.82-3.76.61,2.03,2.45,4.48,4.02,4.44h0ZM26.31,73.45h0c-1.57-.11-3.15-2.73-3.55-4.82,1.3.55,3.05,2.19,3.42,4.12l.13.69c1.56-.22,2.95-2.95,3.21-5.05-1.25.64-2.89,2.4-3.12,4.35l-.08.7h0ZM26.2,69c-1.55-.27-2.86-3.03-3.04-5.15,1.23.67,2.81,2.48,2.98,4.44l.06.7c1.57-.07,3.24-2.64,3.7-4.71-1.31.51-3.12,2.1-3.55,4.02l-.15.69h0ZM26.54,64.56h0c-1.52-.42-2.54-3.3-2.5-5.43,1.16.79,2.54,2.75,2.51,4.72v.71c1.56.09,3.48-2.3,4.15-4.31-1.36.37-3.31,1.78-3.94,3.64l-.22.67h0ZM27.32,60.18l.29-.65c.81-1.79,2.9-2.99,4.29-3.23-.87,1.94-3.02,4.13-4.58,3.88l.08-.7c.23-1.95-.95-4.04-2.02-4.95-.25,2.11.48,5.07,1.94,5.65h0ZM28.55,55.9c-1.4-.72-1.82-3.74-1.36-5.82.97,1.01,1.94,3.2,1.51,5.12l-.15.69c1.52.4,3.88-1.56,4.95-3.4-1.41.1-3.61,1.08-4.59,2.79l-.36.61h0ZM30.21,51.76h0c-1.32-.85-1.43-3.9-.76-5.92.87,1.1,1.6,3.38.98,5.25l-.22.67c1.47.55,4.02-1.16,5.27-2.89-1.41-.04-3.7.72-4.85,2.31l-.42.58h0ZM32.28,47.8h0c1.41.7,4.12-.76,5.53-2.35-1.4-.19-3.75.34-5.06,1.82l-.47.53.29-.65c.8-1.8.31-4.14-.45-5.32-.87,1.94-1.07,4.99.16,5.97h0ZM34.73,44.08h0c-1.12-1.1-.61-4.11.45-5.95.63,1.25.89,3.63-.1,5.34l-.35.62.52-.48c1.45-1.34,3.85-1.63,5.22-1.3-1.57,1.44-4.41,2.62-5.74,1.78h0ZM37.56,40.62h0l.57-.43c1.58-1.18,4-1.23,5.33-.77-1.71,1.28-4.65,2.16-5.89,1.2l.41-.58c1.15-1.6,1.14-3.99.64-5.3-1.24,1.73-2.06,4.67-1.05,5.88h0ZM40.72,37.45h0c-.88-1.3.23-4.15,1.64-5.74.36,1.35.13,3.73-1.17,5.21l-.47.53c1.14,1.08,4.16.49,5.99-.61-1.28-.59-3.68-.78-5.38.24l-.61.37h0ZM44.18,34.62h0c-.74-1.38.65-4.1,2.22-5.55.22,1.38-.25,3.73-1.7,5.07l-.52.48.64-.3c1.79-.85,4.16-.42,5.37.3-1.93.91-5,1.2-6.02,0h0ZM47.92,32.15l.67-.24c1.87-.66,4.18,0,5.31.83-2.01.71-5.09.69-5.99-.6l.57-.43c1.58-1.19,2.28-3.48,2.2-4.87-1.7,1.28-3.37,3.86-2.77,5.3h0ZM51.88,30.07h0c-.45-1.5,1.47-3.89,3.29-5-.06,1.4-.99,3.6-2.69,4.63l-.61.37.69-.17c1.92-.47,4.16.42,5.2,1.36-2.08.51-5.14.18-5.89-1.19h0ZM73.06,114.08h0c.36,1.52,3.22,2.66,5.35,2.72-.75-1.18-2.66-2.64-4.64-2.7l-.71-.02c-.02-1.56,2.47-3.36,4.52-3.94-.44,1.33-1.93,3.21-3.84,3.75l-.68.19h0ZM77.51,113.48c-.18-1.55,2.11-3.59,4.1-4.37-.3,1.37-1.6,3.38-3.44,4.11l-.66.26.71-.05c1.98-.14,4.03,1.12,4.89,2.22-2.13.15-5.09-.69-5.6-2.17h0ZM81.87,112.45l.63-.33c1.76-.9,2.85-3.04,3-4.43-1.9.98-3.98,3.23-3.64,4.76l.7-.12c1.95-.34,4.12.71,5.09,1.72-2.11.37-5.14-.18-5.8-1.6h0ZM86.11,110.99h0c-.49-1.49,1.35-3.94,3.14-5.1-.02,1.4-.88,3.63-2.54,4.71l-.6.39.69-.19c1.91-.53,4.17.29,5.24,1.2-2.06.57-5.13.34-5.93-1.01h0ZM90.18,109.11c.93,1.26,4.01,1.19,6,.41-1.16-.8-3.49-1.39-5.34-.67l-.66.26c-.64-1.43.94-4.05,2.6-5.38.13,1.39-.51,3.7-2.05,4.94l-.55.44h0ZM94.04,106.83c-.78-1.36.52-4.12,2.04-5.62.27,1.37-.13,3.73-1.54,5.12l-.51.5.63-.32c1.76-.9,4.15-.54,5.38.13-1.9.97-4.96,1.35-6.01.19h0ZM97.65,104.18c1.17,1.05,4.17.37,5.96-.79-1.29-.55-3.7-.67-5.37.4l-.6.39.45-.55c1.26-1.52,1.41-3.91,1.01-5.24-1.36,1.64-2.38,4.52-1.46,5.79h0ZM100.97,101.19l.4-.59c1.1-1.64,1.01-4.03.47-5.32-1.19,1.77-1.91,4.73-.87,5.91l.56-.44c1.55-1.23,3.95-1.36,5.3-.94-1.67,1.33-4.58,2.31-5.85,1.38h0ZM103.97,97.87h0c1.36.79,4.16-.47,5.69-1.96-1.38-.28-3.77.08-5.18,1.46l-.51.5c-1.15-1.06-.74-4.09.26-5.96.67,1.23,1,3.6.07,5.34l-.33.63h0ZM106.62,94.28c1.43.65,4.09-.88,5.46-2.52-1.4-.14-3.74.46-5,1.97l-.46.54.27-.65c.75-1.82.18-4.15-.61-5.31-.81,1.97-.91,5.02.34,5.96h0ZM108.89,90.44h0c1.49.51,3.98-1.29,5.18-3.05-1.41,0-3.67.83-4.78,2.46l-.4.59c-1.35-.81-1.55-3.86-.94-5.9.9,1.07,1.71,3.33,1.15,5.22l-.2.68h0ZM110.76,86.39c1.53.36,3.83-1.68,4.84-3.55-1.4.14-3.57,1.19-4.5,2.93l-.34.62c-1.42-.67-1.93-3.68-1.54-5.77,1.01.98,2.03,3.14,1.67,5.07l-.13.69h0ZM112.21,82.17h0c1.56.2,3.64-2.05,4.45-4.02-1.38.28-3.43,1.54-4.18,3.36l-.27.66c-1.48-.53-2.3-3.47-2.12-5.59,1.1.87,2.34,2.92,2.18,4.88l-.06.71h0ZM113.22,77.84c1.58.04,3.42-2.41,4.03-4.44-1.35.42-3.26,1.88-3.82,3.76l-.2.68c-1.53-.38-2.64-3.23-2.67-5.35,1.18.76,2.63,2.67,2.66,4.64v.71h.01ZM113.79,73.42h0c1.57-.11,3.15-2.73,3.55-4.82-1.3.55-3.05,2.19-3.42,4.13l-.13.69c-1.56-.22-2.95-2.94-3.2-5.05,1.25.63,2.89,2.4,3.12,4.35l.08.7h0ZM113.91,68.97l-.15-.69c-.43-1.92-2.23-3.51-3.54-4.02.46,2.07,2.12,4.64,3.7,4.71l.06-.7c.17-1.96,1.75-3.77,2.99-4.45-.19,2.11-1.5,4.88-3.05,5.15h0ZM113.57,64.53c1.52-.43,2.54-3.31,2.51-5.43-1.16.79-2.55,2.75-2.52,4.72v.71c-1.56.09-3.48-2.3-4.15-4.31,1.36.37,3.31,1.77,3.93,3.64l.22.67h0ZM112.79,60.15c1.47-.57,2.19-3.54,1.95-5.65-1.07.91-2.25,2.99-2.03,4.95l.08.7c-1.56.25-3.7-1.94-4.57-3.87,1.39.24,3.48,1.43,4.28,3.23l.29.65h0ZM111.57,55.86h0c1.4-.72,1.82-3.74,1.36-5.82-.98,1.01-1.94,3.21-1.52,5.13l.15.69c-1.52.4-3.88-1.56-4.94-3.4,1.41.09,3.6,1.08,4.59,2.78l.35.61h0ZM109.92,51.73h0l-.41-.58c-1.15-1.6-3.44-2.36-4.85-2.31,1.25,1.72,3.79,3.44,5.26,2.89l-.22-.67c-.62-1.87.12-4.15.99-5.25.66,2.02.55,5.07-.77,5.92h0ZM107.85,47.77c-1.41.7-4.12-.75-5.53-2.34,1.4-.19,3.75.34,5.06,1.81l.47.53-.29-.65c-.8-1.8-.3-4.14.45-5.32.87,1.94,1.07,4.99-.16,5.97h0ZM105.4,44.05c1.12-1.1.61-4.11-.45-5.95-.63,1.25-.89,3.63.09,5.34l.35.62-.52-.48c-1.45-1.33-3.85-1.62-5.22-1.3,1.57,1.44,4.41,2.61,5.74,1.78h0ZM102.57,40.59h0l-.57-.43c-1.58-1.18-3.99-1.23-5.33-.77,1.71,1.28,4.65,2.16,5.89,1.2l-.41-.58c-1.15-1.6-1.13-3.99-.63-5.3,1.24,1.73,2.05,4.67,1.05,5.88h0ZM99.42,37.43c.88-1.3-.23-4.15-1.64-5.74-.36,1.35-.14,3.73,1.17,5.21l.47.53c-1.14,1.08-4.16.5-5.98-.6,1.28-.59,3.68-.78,5.38.23l.61.37h0ZM95.95,34.6c.74-1.38-.65-4.1-2.21-5.55-.22,1.38.24,3.73,1.69,5.07l.52.48-.64-.3c-1.79-.84-4.16-.41-5.37.3,1.93.91,4.99,1.19,6.02,0h0ZM92.22,32.13c.6-1.45-1.06-4.02-2.76-5.3-.08,1.4.62,3.68,2.2,4.87l.57.43c-.9,1.29-3.97,1.31-5.99.6,1.13-.83,3.45-1.5,5.32-.84l.67.24h0Z"/>
  </g>
  <g class="st5">
    <path class="st2" d="M88.26,30.05c-.76,1.37-3.82,1.7-5.9,1.2,1.04-.94,3.28-1.84,5.2-1.37l.69.17-.61-.37c-1.69-1.02-2.62-3.23-2.68-4.63,1.82,1.1,3.74,3.5,3.29,5h0ZM70.04,112.89h0c.65,0,1.18.52,1.18,1.17s-.53,1.17-1.18,1.17-1.18-.52-1.18-1.17c0-.65.53-1.17,1.18-1.17h0ZM85.64,28.84h0l-.54-.46c-1.49-1.29-3.9-1.51-5.26-1.14,1.61,1.39,4.49,2.48,5.79,1.61h0ZM54.61,28.85h0c1.31.87,4.18-.22,5.79-1.61-1.36-.36-3.76-.14-5.26,1.15l-.54.46h0ZM67.01,114.08h0c-.36,1.52-3.22,2.66-5.36,2.72.75-1.18,2.66-2.64,4.64-2.7l.71-.02c.03-1.56-2.46-3.36-4.52-3.94.43,1.33,1.93,3.21,3.84,3.74l.69.19h0ZM62.56,113.49h0c.18-1.55-2.11-3.59-4.1-4.37.3,1.37,1.59,3.38,3.44,4.11l.66.26-.71-.05c-1.98-.14-4.03,1.12-4.89,2.22,2.13.15,5.09-.69,5.61-2.17h0ZM58.2,112.46h0c-.66,1.42-3.69,1.96-5.8,1.6.97-1.01,3.14-2.06,5.1-1.72l.7.12c.34-1.53-1.74-3.78-3.63-4.76.16,1.39,1.24,3.53,3,4.43l.63.33h0ZM53.96,111h0c.49-1.49-1.34-3.93-3.13-5.09.02,1.4.88,3.63,2.54,4.71l.6.39-.69-.19c-1.91-.53-4.17.3-5.24,1.21,2.06.57,5.13.33,5.93-1.01h0ZM49.89,109.13h0c-.94,1.26-4.01,1.19-6,.42,1.16-.8,3.5-1.39,5.34-.68l.66.26c.64-1.43-.94-4.05-2.6-5.38-.13,1.39.5,3.7,2.05,4.94l.55.44h0ZM46.04,106.85h0c.78-1.36-.52-4.12-2.04-5.61-.27,1.37.13,3.73,1.53,5.12l.51.5-.63-.32c-1.76-.9-4.15-.54-5.38.14,1.9.97,4.95,1.34,6.01.18h0ZM42.43,104.21h0c-1.17,1.05-4.17.37-5.96-.78,1.3-.55,3.7-.67,5.37.4l.6.38-.45-.55c-1.26-1.52-1.41-3.91-1.01-5.24,1.36,1.64,2.38,4.52,1.46,5.79h0ZM39.11,101.21c-1.27.93-4.19-.05-5.85-1.38,1.34-.42,3.75-.3,5.3.93l.56.44c1.04-1.17.32-4.14-.86-5.91-.54,1.29-.63,3.68.47,5.32l.4.59h0ZM36.11,97.9h0c-1.36.79-4.16-.47-5.68-1.95,1.38-.28,3.76.08,5.18,1.46l.51.5c1.16-1.06.74-4.09-.26-5.96-.67,1.23-1,3.6-.07,5.34l.33.63h0ZM33.47,94.31h0c-1.43.65-4.09-.88-5.46-2.51,1.4-.14,3.74.46,5,1.97l.45.54-.27-.65c-.75-1.82-.17-4.15.62-5.31.81,1.97.91,5.02-.35,5.96h0ZM31.2,90.47h0l-.2-.68c-.56-1.89.25-4.14,1.15-5.22.6,2.04.4,5.08-.95,5.9l-.4-.59c-1.1-1.63-3.37-2.46-4.78-2.46,1.19,1.76,3.68,3.55,5.17,3.05h0ZM29.33,86.42h0c-1.53.36-3.83-1.68-4.84-3.55,1.4.14,3.57,1.19,4.5,2.92l.34.62c1.42-.67,1.94-3.68,1.54-5.77-1.01.98-2.04,3.14-1.67,5.08l.13.69h0ZM27.89,82.21h0l-.06-.71c-.16-1.96,1.08-4.01,2.18-4.88.18,2.11-.64,5.06-2.12,5.59l-.27-.66c-.75-1.82-2.8-3.08-4.18-3.36.81,1.96,2.89,4.21,4.45,4.01h0ZM26.88,77.87v-.71c.05-1.97,1.49-3.88,2.68-4.64-.04,2.12-1.15,4.97-2.68,5.35l-.2-.68c-.56-1.88-2.47-3.35-3.82-3.76.61,2.03,2.45,4.48,4.02,4.44h0ZM26.31,73.45h0c-1.57-.11-3.15-2.73-3.55-4.82,1.3.55,3.05,2.19,3.42,4.12l.13.69c1.56-.22,2.95-2.95,3.21-5.05-1.25.64-2.89,2.4-3.12,4.35l-.08.7h0ZM26.2,69c-1.55-.27-2.86-3.03-3.04-5.15,1.23.67,2.81,2.48,2.98,4.44l.06.7c1.57-.07,3.24-2.64,3.7-4.71-1.31.51-3.12,2.1-3.55,4.02l-.15.69h0ZM26.54,64.56h0c-1.52-.42-2.54-3.3-2.5-5.43,1.16.79,2.54,2.75,2.51,4.72v.71c1.56.09,3.48-2.3,4.15-4.31-1.36.37-3.31,1.78-3.94,3.64l-.22.67h0ZM27.32,60.18l.29-.65c.81-1.79,2.9-2.99,4.29-3.23-.87,1.94-3.02,4.13-4.58,3.88l.08-.7c.23-1.95-.95-4.04-2.02-4.95-.25,2.11.48,5.07,1.94,5.65h0ZM28.55,55.9c-1.4-.72-1.82-3.74-1.36-5.82.97,1.01,1.94,3.2,1.51,5.12l-.15.69c1.52.4,3.88-1.56,4.95-3.4-1.41.1-3.61,1.08-4.59,2.79l-.36.61h0ZM30.21,51.76h0c-1.32-.85-1.43-3.9-.76-5.92.87,1.1,1.6,3.38.98,5.25l-.22.67c1.47.55,4.02-1.16,5.27-2.89-1.41-.04-3.7.72-4.85,2.31l-.42.58h0ZM32.28,47.8h0c1.41.7,4.12-.76,5.53-2.35-1.4-.19-3.75.34-5.06,1.82l-.47.53.29-.65c.8-1.8.31-4.14-.45-5.32-.87,1.94-1.07,4.99.16,5.97h0ZM34.73,44.08h0c-1.12-1.1-.61-4.11.45-5.95.63,1.25.89,3.63-.1,5.34l-.35.62.52-.48c1.45-1.34,3.85-1.63,5.22-1.3-1.57,1.44-4.41,2.62-5.74,1.78h0ZM37.56,40.62h0l.57-.43c1.58-1.18,4-1.23,5.33-.77-1.71,1.28-4.65,2.16-5.89,1.2l.41-.58c1.15-1.6,1.14-3.99.64-5.3-1.24,1.73-2.06,4.67-1.05,5.88h0ZM40.72,37.45h0c-.88-1.3.23-4.15,1.64-5.74.36,1.35.13,3.73-1.17,5.21l-.47.53c1.14,1.08,4.16.49,5.99-.61-1.28-.59-3.68-.78-5.38.24l-.61.37h0ZM44.18,34.62h0c-.74-1.38.65-4.1,2.22-5.55.22,1.38-.25,3.73-1.7,5.07l-.52.48.64-.3c1.79-.85,4.16-.42,5.37.3-1.93.91-5,1.2-6.02,0h0ZM47.92,32.15l.67-.24c1.87-.66,4.18,0,5.31.83-2.01.71-5.09.69-5.99-.6l.57-.43c1.58-1.19,2.28-3.48,2.2-4.87-1.7,1.28-3.37,3.86-2.77,5.3h0ZM51.88,30.07h0c-.45-1.5,1.47-3.89,3.29-5-.06,1.4-.99,3.6-2.69,4.63l-.61.37.69-.17c1.92-.47,4.16.42,5.2,1.36-2.08.51-5.14.18-5.89-1.19h0ZM73.06,114.08h0c.36,1.52,3.22,2.66,5.35,2.72-.75-1.18-2.66-2.64-4.64-2.7l-.71-.02c-.02-1.56,2.47-3.36,4.52-3.94-.44,1.33-1.93,3.21-3.84,3.75l-.68.19h0ZM77.51,113.48c-.18-1.55,2.11-3.59,4.1-4.37-.3,1.37-1.6,3.38-3.44,4.11l-.66.26.71-.05c1.98-.14,4.03,1.12,4.89,2.22-2.13.15-5.09-.69-5.6-2.17h0ZM81.87,112.45l.63-.33c1.76-.9,2.85-3.04,3-4.43-1.9.98-3.98,3.23-3.64,4.76l.7-.12c1.95-.34,4.12.71,5.09,1.72-2.11.37-5.14-.18-5.8-1.6h0ZM86.11,110.99h0c-.49-1.49,1.35-3.94,3.14-5.1-.02,1.4-.88,3.63-2.54,4.71l-.6.39.69-.19c1.91-.53,4.17.29,5.24,1.2-2.06.57-5.13.34-5.93-1.01h0ZM90.18,109.11c.93,1.26,4.01,1.19,6,.41-1.16-.8-3.49-1.39-5.34-.67l-.66.26c-.64-1.43.94-4.05,2.6-5.38.13,1.39-.51,3.7-2.05,4.94l-.55.44h0ZM94.04,106.83c-.78-1.36.52-4.12,2.04-5.62.27,1.37-.13,3.73-1.54,5.12l-.51.5.63-.32c1.76-.9,4.15-.54,5.38.13-1.9.97-4.96,1.35-6.01.19h0ZM97.65,104.18c1.17,1.05,4.17.37,5.96-.79-1.29-.55-3.7-.67-5.37.4l-.6.39.45-.55c1.26-1.52,1.41-3.91,1.01-5.24-1.36,1.64-2.38,4.52-1.46,5.79h0ZM100.97,101.19l.4-.59c1.1-1.64,1.01-4.03.47-5.32-1.19,1.77-1.91,4.73-.87,5.91l.56-.44c1.55-1.23,3.95-1.36,5.3-.94-1.67,1.33-4.58,2.31-5.85,1.38h0ZM103.97,97.87h0c1.36.79,4.16-.47,5.69-1.96-1.38-.28-3.77.08-5.18,1.46l-.51.5c-1.15-1.06-.74-4.09.26-5.96.67,1.23,1,3.6.07,5.34l-.33.63h0ZM106.62,94.28c1.43.65,4.09-.88,5.46-2.52-1.4-.14-3.74.46-5,1.97l-.46.54.27-.65c.75-1.82.18-4.15-.61-5.31-.81,1.97-.91,5.02.34,5.96h0ZM108.89,90.44h0c1.49.51,3.98-1.29,5.18-3.05-1.41,0-3.67.83-4.78,2.46l-.4.59c-1.35-.81-1.55-3.86-.94-5.9.9,1.07,1.71,3.33,1.15,5.22l-.2.68h0ZM110.76,86.39c1.53.36,3.83-1.68,4.84-3.55-1.4.14-3.57,1.19-4.5,2.93l-.34.62c-1.42-.67-1.93-3.68-1.54-5.77,1.01.98,2.03,3.14,1.67,5.07l-.13.69h0ZM112.21,82.17h0c1.56.2,3.64-2.05,4.45-4.02-1.38.28-3.43,1.54-4.18,3.36l-.27.66c-1.48-.53-2.3-3.47-2.12-5.59,1.1.87,2.34,2.92,2.18,4.88l-.06.71h0ZM113.22,77.84c1.58.04,3.42-2.41,4.03-4.44-1.35.42-3.26,1.88-3.82,3.76l-.2.68c-1.53-.38-2.64-3.23-2.67-5.35,1.18.76,2.63,2.67,2.66,4.64v.71h.01ZM113.79,73.42h0c1.57-.11,3.15-2.73,3.55-4.82-1.3.55-3.05,2.19-3.42,4.13l-.13.69c-1.56-.22-2.95-2.94-3.2-5.05,1.25.63,2.89,2.4,3.12,4.35l.08.7h0ZM113.91,68.97l-.15-.69c-.43-1.92-2.23-3.51-3.54-4.02.46,2.07,2.12,4.64,3.7,4.71l.06-.7c.17-1.96,1.75-3.77,2.99-4.45-.19,2.11-1.5,4.88-3.05,5.15h0ZM113.57,64.53c1.52-.43,2.54-3.31,2.51-5.43-1.16.79-2.55,2.75-2.52,4.72v.71c-1.56.09-3.48-2.3-4.15-4.31,1.36.37,3.31,1.77,3.93,3.64l.22.67h0ZM112.79,60.15c1.47-.57,2.19-3.54,1.95-5.65-1.07.91-2.25,2.99-2.03,4.95l.08.7c-1.56.25-3.7-1.94-4.57-3.87,1.39.24,3.48,1.43,4.28,3.23l.29.65h0ZM111.57,55.86h0c1.4-.72,1.82-3.74,1.36-5.82-.98,1.01-1.94,3.21-1.52,5.13l.15.69c-1.52.4-3.88-1.56-4.94-3.4,1.41.09,3.6,1.08,4.59,2.78l.35.61h0ZM109.92,51.73h0l-.41-.58c-1.15-1.6-3.44-2.36-4.85-2.31,1.25,1.72,3.79,3.44,5.26,2.89l-.22-.67c-.62-1.87.12-4.15.99-5.25.66,2.02.55,5.07-.77,5.92h0ZM107.85,47.77c-1.41.7-4.12-.75-5.53-2.34,1.4-.19,3.75.34,5.06,1.81l.47.53-.29-.65c-.8-1.8-.3-4.14.45-5.32.87,1.94,1.07,4.99-.16,5.97h0ZM105.4,44.05c1.12-1.1.61-4.11-.45-5.95-.63,1.25-.89,3.63.09,5.34l.35.62-.52-.48c-1.45-1.33-3.85-1.62-5.22-1.3,1.57,1.44,4.41,2.61,5.74,1.78h0ZM102.57,40.59h0l-.57-.43c-1.58-1.18-3.99-1.23-5.33-.77,1.71,1.28,4.65,2.16,5.89,1.2l-.41-.58c-1.15-1.6-1.13-3.99-.63-5.3,1.24,1.73,2.05,4.67,1.05,5.88h0ZM99.42,37.43c.88-1.3-.23-4.15-1.64-5.74-.36,1.35-.14,3.73,1.17,5.21l.47.53c-1.14,1.08-4.16.5-5.98-.6,1.28-.59,3.68-.78,5.38.23l.61.37h0ZM95.95,34.6c.74-1.38-.65-4.1-2.21-5.55-.22,1.38.24,3.73,1.69,5.07l.52.48-.64-.3c-1.79-.84-4.16-.41-5.37.3,1.93.91,4.99,1.19,6.02,0h0ZM92.22,32.13c.6-1.45-1.06-4.02-2.76-5.3-.08,1.4.62,3.68,2.2,4.87l.57.43c-.9,1.29-3.97,1.31-5.99.6,1.13-.83,3.45-1.5,5.32-.84l.67.24h0Z"/>
  </g>
  <path class="st2" d="M112.19,57.34h0l.03-.71c.09-1.97-1.23-3.99-2.36-4.84-.1,2.13.83,5.06,2.32,5.54h0Z"/>
  <path class="st2" d="M27.98,57.34h0l-.03-.71c-.09-1.97,1.23-3.99,2.36-4.84.1,2.13-.83,5.06-2.32,5.54h0Z"/>
</svg>