<svg width="148" height="48" viewBox="0 0 148 48" fill="none" xmlns="http://www.w3.org/2000/svg">
<path fill-rule="evenodd" clip-rule="evenodd" d="M6.57925 47.7971H4.62505L2.99994 45.4147H2.83083V47.7971H1.14935V41.4995H3.23482C5.15118 41.4995 5.81824 42.3304 5.81824 43.4661C5.81824 44.3709 5.29211 44.9345 4.62505 45.1651L6.57925 47.7971ZM3.29119 42.7829H2.83083V44.288H3.30059C3.76095 44.288 4.09918 44.0294 4.09918 43.5492C4.09918 43.0782 3.80767 42.7829 3.29119 42.7829ZM27.6529 41.4995V45.3128C27.6529 47.2889 28.7049 48 30.1612 48C31.6735 48 32.66 47.2058 32.66 45.2944V41.4995H30.9879V45.4052C30.9879 46.0609 30.8282 46.6055 30.1518 46.6055C29.6353 46.6055 29.3344 46.2176 29.3344 45.4052V41.4995H27.6529ZM58.2431 44.8975C58.1588 44.4912 58.093 44.0109 58.0643 43.5584H58.0273L58.0235 43.595L58.0234 43.5952V43.5952C57.9775 44.0359 57.9308 44.4835 57.8485 44.8698L57.2663 47.7971H55.4436L53.8751 41.4995H55.519L56.1764 44.5466C56.2843 45.0463 56.3225 45.3037 56.3587 45.5484C56.3667 45.6021 56.3746 45.6553 56.3831 45.7102H56.4207C56.4649 45.3989 56.5436 45.0312 56.6117 44.7135L56.6119 44.7127L56.6121 44.7118C56.6307 44.6246 56.6486 44.5412 56.6647 44.4637L57.2754 41.4995H58.8538L59.5584 44.5284C59.6458 44.9053 59.685 45.1544 59.7244 45.4048L59.7245 45.405L59.7245 45.4053C59.7401 45.5041 59.7557 45.6031 59.7743 45.7102H59.8118C59.8588 45.3039 59.9152 44.9529 59.9997 44.5373L60.601 41.4995H62.198L60.6853 47.7971H58.882L58.2431 44.8975ZM85.1136 41.4995H86.7011L88.9557 47.7971H87.2648L86.8514 46.5319H84.7662L84.3529 47.7971H82.6902L85.1136 41.4995ZM85.123 45.4332H86.4947L86.0529 44.0848C85.9472 43.7726 85.912 43.6271 85.8616 43.4193L85.837 43.3183H85.7901C85.7765 43.3683 85.7639 43.4155 85.7516 43.4612L85.7515 43.4616L85.7515 43.4617C85.696 43.6692 85.6492 43.8444 85.5643 44.0941L85.123 45.4332ZM113.58 47.7971H115.534L113.58 45.1651C114.247 44.9345 114.773 44.3709 114.773 43.4661C114.773 42.3304 114.106 41.4995 112.19 41.4995H110.105V47.7971H111.786V45.4147H111.955L113.58 47.7971ZM111.786 42.7829H112.246C112.763 42.7829 113.054 43.0782 113.054 43.5492C113.054 44.0294 112.716 44.288 112.256 44.288H111.786V42.7829ZM138.834 41.4995C141.146 41.4995 142.376 42.9307 142.376 44.6482C142.376 46.3567 141.07 47.7971 138.816 47.7971H136.571V41.4995H138.834ZM138.741 46.3567C140.093 46.3567 140.667 45.5809 140.667 44.6482C140.667 43.6418 140.046 42.9402 138.741 42.9402H138.252V46.3567H138.741Z" fill="#4B617C"/>
<path fill-rule="evenodd" clip-rule="evenodd" d="M75.9987 0.357018L89.5633 35.2432H80.9228L78.5072 29.1244H71.9108L69.4951 22.9143H76.0916L67.3583 0.357018H75.9987ZM21.9263 0.357018L31.2171 24.1928L40.3221 0.722321L40.2291 0.357018H49.0554L48.9625 0.722321L58.0675 24.1928L63.0845 11.4073L67.3583 22.4577L62.4341 35.2432L53.7937 35.2432L44.6887 11.7726L35.4908 35.2432H26.9433L13.2858 0.357018H21.9263ZM13.3788 22.9143L13.4717 22.823L9.19789 11.7726L7.62939e-06 35.2432L8.64044 35.2432L11.0561 29.1244L20.9043 29.1244L18.5816 22.9143H13.3788Z" fill="url(#paint0_linear_0_494)"/>
<path fill-rule="evenodd" clip-rule="evenodd" d="M107.082 19.0128C109.432 17.352 111.046 14.6646 111.046 10.9282C111.046 4.61756 107.341 0 96.6926 0H85.1055V0.102869H85.105L87.899 7.28573H87.9238L94.4482 7.13156H97.0061C99.8768 7.13156 101.495 8.77336 101.495 11.39C101.495 13.1005 100.72 14.3019 99.4908 14.946C98.8034 15.3062 97.9756 15.4942 97.058 15.4942H96.066V15.4947H91.0921L94.4482 24.1224L98.6758 34.9911H107.288L101.9 21.1405C104.093 20.6402 105.941 19.9163 107.027 19.0862C107.057 19.0631 107.074 19.0384 107.082 19.0128Z" fill="black"/>
<path fill-rule="evenodd" clip-rule="evenodd" d="M128.323 0H115.744V0.411475L118.717 8.05533H125.087V8.00376H127.801C135.056 8.00376 138.5 11.9028 138.5 17.4951C138.5 22.6771 135.317 26.9865 127.801 26.9865H126.6V27.0386H113.052L116.145 34.9903H128.218C140.745 34.9903 148 26.9865 148 17.4951C148 7.95246 141.162 0 128.323 0Z" fill="black"/>
<defs>
<linearGradient id="paint0_linear_0_494" x1="91.8023" y1="10.3995" x2="2.23909" y2="10.3995" gradientUnits="userSpaceOnUse">
<stop stop-color="#A5343E"/>
<stop stop-color="#A5343E"/>
<stop offset="0.36" stop-color="#F26B36"/>
<stop offset="0.65" stop-color="#E1B451"/>
<stop offset="1" stop-color="#BBCE42"/>
</linearGradient>
</defs>
</svg>
