<svg width="140" height="140" viewBox="0 0 140 140" fill="none" xmlns="http://www.w3.org/2000/svg">
<g clip-path="url(#clip0_30841_104843)">
<circle cx="70" cy="70" r="70" fill="#4B617C"/>
<path d="M130.001 65.7166L101.366 65.6758C100.613 59.0501 97.714 53.0755 93.3809 48.4641L113.965 29.0957C123.065 38.8345 128.968 51.5993 130.001 65.7166Z" fill="white" fill-opacity="0.4"/>
<path d="M112.808 27.8942L92.2104 47.2872C87.1881 42.4963 80.5153 39.4205 73.1318 38.9997L73.1318 10.0801C88.6335 10.8768 102.585 17.5407 112.808 27.8942Z" fill="white" fill-opacity="0.6"/>
<path d="M71.3889 10.0159V38.9506C63.763 38.9506 56.7979 41.7798 51.4859 46.4458L29.0967 26.0356C39.8308 16.0839 54.2018 10 69.9937 10C70.46 10 70.9251 10.0053 71.3889 10.0159Z" fill="white" fill-opacity="0.8"/>
<path d="M27.6777 27.3926L50.1007 47.7394C45.3979 52.422 42.231 58.6459 41.4217 65.5896L10 65.5448C11.1308 50.6579 17.679 37.2849 27.6777 27.3926Z" fill="white"/>
<path d="M83.4038 25C83.5589 25.6329 83.5594 28.7251 83.4038 29.5014C82.9415 31.8075 82.2885 34.0745 81.6817 36.5682C78.9599 47.3117 76.2988 57.8527 73.5176 68.3612C73.269 69.3008 72.2421 70.0301 71.5767 70.857C71.0902 69.7486 70.0133 68.5092 70.2205 67.5546C71.0733 63.6245 72.2511 59.7606 73.4289 55.9097C76.1132 47.1335 78.8501 38.3735 81.6236 29.6257C81.8792 28.8196 82.8782 25.9313 83.4038 25Z" fill="white"/>
<path d="M55.6 122.536C55.6 123.08 55.4987 123.629 55.296 124.184C55.104 124.739 54.8533 125.283 54.544 125.816C54.2453 126.349 53.9093 126.867 53.536 127.368C53.1733 127.859 52.816 128.312 52.464 128.728L51.616 129.384V129.464L52.768 129.24H55.84V131H49.104V129.928C49.36 129.661 49.648 129.352 49.968 129C50.288 128.637 50.608 128.259 50.928 127.864C51.2587 127.459 51.5787 127.043 51.888 126.616C52.1973 126.189 52.4747 125.763 52.72 125.336C52.9653 124.899 53.1573 124.477 53.296 124.072C53.4453 123.667 53.52 123.283 53.52 122.92C53.52 122.483 53.392 122.125 53.136 121.848C52.8907 121.56 52.496 121.416 51.952 121.416C51.6107 121.416 51.2587 121.491 50.896 121.64C50.544 121.779 50.2453 121.96 50 122.184L49.168 120.712C49.584 120.371 50.0533 120.099 50.576 119.896C51.1093 119.683 51.7333 119.576 52.448 119.576C52.9067 119.576 53.328 119.64 53.712 119.768C54.096 119.896 54.4267 120.083 54.704 120.328C54.9813 120.573 55.2 120.883 55.36 121.256C55.52 121.619 55.6 122.045 55.6 122.536ZM61.2381 125.384C61.2381 123.421 61.5741 121.965 62.2461 121.016C62.9181 120.056 63.8835 119.576 65.1421 119.576C66.4861 119.576 67.4728 120.051 68.1021 121C68.7315 121.939 69.0461 123.4 69.0461 125.384C69.0461 127.357 68.7048 128.824 68.0221 129.784C67.3501 130.744 66.3848 131.224 65.1261 131.224C63.7928 131.224 62.8115 130.723 62.1821 129.72C61.5528 128.707 61.2381 127.261 61.2381 125.384ZM63.3181 125.384C63.3181 126.685 63.4568 127.693 63.7341 128.408C64.0221 129.112 64.4915 129.464 65.1421 129.464C65.7715 129.464 66.2301 129.139 66.5181 128.488C66.8168 127.837 66.9661 126.803 66.9661 125.384C66.9661 124.093 66.8275 123.096 66.5501 122.392C66.2728 121.688 65.7981 121.336 65.1261 121.336C64.4861 121.336 64.0221 121.667 63.7341 122.328C63.4568 122.989 63.3181 124.008 63.3181 125.384ZM80.7963 122.536C80.7963 123.08 80.6949 123.629 80.4923 124.184C80.3003 124.739 80.0496 125.283 79.7403 125.816C79.4416 126.349 79.1056 126.867 78.7323 127.368C78.3696 127.859 78.0123 128.312 77.6603 128.728L76.8123 129.384V129.464L77.9643 129.24H81.0363V131H74.3003V129.928C74.5563 129.661 74.8443 129.352 75.1643 129C75.4843 128.637 75.8043 128.259 76.1243 127.864C76.4549 127.459 76.7749 127.043 77.0843 126.616C77.3936 126.189 77.6709 125.763 77.9163 125.336C78.1616 124.899 78.3536 124.477 78.4923 124.072C78.6416 123.667 78.7163 123.283 78.7163 122.92C78.7163 122.483 78.5883 122.125 78.3323 121.848C78.0869 121.56 77.6923 121.416 77.1483 121.416C76.8069 121.416 76.4549 121.491 76.0923 121.64C75.7403 121.779 75.4416 121.96 75.1963 122.184L74.3643 120.712C74.7803 120.371 75.2496 120.099 75.7723 119.896C76.3056 119.683 76.9296 119.576 77.6443 119.576C78.1029 119.576 78.5243 119.64 78.9083 119.768C79.2923 119.896 79.6229 120.083 79.9003 120.328C80.1776 120.573 80.3963 120.883 80.5563 121.256C80.7163 121.619 80.7963 122.045 80.7963 122.536ZM94.1144 127.528C94.1144 128.051 94.0237 128.536 93.8424 128.984C93.6717 129.432 93.4264 129.821 93.1064 130.152C92.7864 130.483 92.397 130.744 91.9384 130.936C91.4904 131.128 90.9944 131.224 90.4504 131.224C89.8957 131.224 89.3837 131.139 88.9144 130.968C88.4557 130.787 88.0557 130.52 87.7144 130.168C87.373 129.816 87.1064 129.373 86.9144 128.84C86.7224 128.307 86.6264 127.688 86.6264 126.984C86.6264 125.928 86.7757 124.973 87.0744 124.12C87.3837 123.267 87.7944 122.525 88.3064 121.896C88.829 121.256 89.4317 120.744 90.1144 120.36C90.8077 119.965 91.5384 119.704 92.3064 119.576L92.7704 121.224C92.237 121.309 91.7464 121.475 91.2984 121.72C90.8504 121.965 90.4504 122.259 90.0984 122.6C89.757 122.941 89.4637 123.325 89.2184 123.752C88.9837 124.168 88.8184 124.6 88.7224 125.048C88.9357 124.781 89.213 124.557 89.5544 124.376C89.8957 124.184 90.3224 124.088 90.8344 124.088C91.3144 124.088 91.757 124.163 92.1624 124.312C92.5677 124.461 92.9144 124.685 93.2024 124.984C93.4904 125.272 93.7144 125.629 93.8744 126.056C94.0344 126.483 94.1144 126.973 94.1144 127.528ZM92.0984 127.64C92.0984 126.445 91.5117 125.848 90.3384 125.848C89.9117 125.848 89.549 125.944 89.2504 126.136C88.9624 126.328 88.7597 126.552 88.6424 126.808C88.621 126.925 88.6104 127.027 88.6104 127.112C88.6104 127.197 88.6104 127.283 88.6104 127.368C88.6104 127.624 88.6477 127.88 88.7224 128.136C88.797 128.381 88.9037 128.605 89.0424 128.808C89.1917 129 89.3784 129.16 89.6024 129.288C89.8264 129.405 90.093 129.464 90.4024 129.464C90.9037 129.464 91.309 129.293 91.6184 128.952C91.9384 128.611 92.0984 128.173 92.0984 127.64Z" fill="white"/>
<g clip-path="url(#clip1_30841_104843)">
<path fill-rule="evenodd" clip-rule="evenodd" d="M25.4452 110.579H24.1248L23.0268 108.97H22.9125V110.579H21.7764V106.324H23.1855C24.4803 106.324 24.931 106.886 24.931 107.653C24.931 108.264 24.5755 108.645 24.1248 108.801L25.4452 110.579ZM23.2236 107.191H22.9125V108.208H23.2299C23.541 108.208 23.7695 108.034 23.7695 107.709C23.7695 107.391 23.5725 107.191 23.2236 107.191ZM39.6842 106.324V108.901C39.6842 110.236 40.395 110.716 41.379 110.716C42.4008 110.716 43.0673 110.18 43.0673 108.888V106.324H41.9376V108.963C41.9376 109.406 41.8296 109.774 41.3726 109.774C41.0236 109.774 40.8203 109.512 40.8203 108.963V106.324H39.6842ZM60.3532 108.62C60.2963 108.346 60.2518 108.021 60.2324 107.715H60.2074L60.2048 107.74C60.1738 108.038 60.1422 108.34 60.0866 108.601L59.6932 110.579H58.4617L57.4019 106.324H58.5126L58.9568 108.383C59.0297 108.721 59.0555 108.895 59.08 109.06C59.0854 109.096 59.0907 109.132 59.0965 109.169H59.1219C59.1517 108.959 59.2049 108.711 59.2509 108.496L59.2512 108.495C59.2638 108.436 59.2759 108.379 59.2867 108.327L59.6994 106.324H60.7659L61.2419 108.371C61.301 108.625 61.3275 108.794 61.3541 108.963C61.3646 109.03 61.3753 109.097 61.3878 109.169H61.4132C61.4449 108.895 61.483 108.658 61.5401 108.377L61.9464 106.324H63.0255L62.0034 110.579H60.7849L60.3532 108.62ZM78.509 106.324H79.5816L81.105 110.579H79.9625L79.6832 109.724H78.2742L77.995 110.579H76.8715L78.509 106.324ZM78.5153 108.982H79.4421L79.1436 108.071C79.0722 107.86 79.0484 107.762 79.0144 107.621L78.9978 107.553H78.9661C78.9569 107.587 78.9484 107.619 78.9401 107.65C78.9026 107.79 78.8709 107.909 78.8135 108.077L78.5153 108.982ZM97.743 110.579H99.0633L97.743 108.801C98.1937 108.645 98.5491 108.264 98.5491 107.653C98.5491 106.886 98.0984 106.324 96.8038 106.324H95.3951V110.579H96.5309V108.97H96.6451L97.743 110.579ZM96.5309 107.191H96.8417C97.191 107.191 97.3876 107.391 97.3876 107.709C97.3876 108.034 97.1592 108.208 96.8484 108.208H96.5309V107.191ZM114.807 106.324C116.369 106.324 117.2 107.291 117.2 108.452C117.2 109.606 116.317 110.579 114.794 110.579H113.277V106.324H114.807ZM114.744 109.606C115.657 109.606 116.045 109.082 116.045 108.452C116.045 107.772 115.625 107.298 114.744 107.298H114.413V109.606H114.744Z" fill="white"/>
<path fill-rule="evenodd" clip-rule="evenodd" d="M72.3505 78.5254L81.5157 102.097H75.6776L74.0454 97.9628H69.5884L67.9561 93.7668H72.4132L66.5124 78.5254H72.3505ZM35.8151 78.5254L42.0926 94.6306L48.2447 78.7722L48.1818 78.5254H54.1455L54.0828 78.7722L60.2348 94.6306L63.6247 85.9918L66.5124 93.4583L63.1852 102.097H57.3471L51.1951 86.2386L44.9803 102.097H39.2049L29.9769 78.5254H35.8151ZM30.0397 93.7668L30.1025 93.7051L27.2148 86.2386L21 102.097H26.8381L28.4703 97.9628H35.1245L33.5551 93.7668H30.0397Z" fill="url(#paint0_linear_30841_104843)"/>
<path fill-rule="evenodd" clip-rule="evenodd" d="M93.3532 91.1297C94.9411 90.0075 96.0316 88.1917 96.0316 85.6671C96.0316 81.4032 93.5282 78.2832 86.3334 78.2832H78.5042V78.3527L80.3917 83.206H80.4085L84.8169 83.1018H86.5452C88.4849 83.1018 89.5782 84.2111 89.5782 85.9791C89.5782 87.1349 89.0546 87.9466 88.224 88.3819C87.7596 88.6252 87.2003 88.7523 86.5803 88.7523H85.91L82.5492 88.7526L84.8169 94.5821L87.6734 101.926H93.4924L89.8519 92.5673C91.3336 92.2293 92.5823 91.7402 93.3161 91.1793C93.3363 91.1637 93.3478 91.147 93.3532 91.1297Z" fill="white"/>
<path fill-rule="evenodd" clip-rule="evenodd" d="M107.705 78.2832H99.2056V78.5612L101.214 83.726H105.518V83.6911H107.352C112.254 83.6911 114.581 86.3256 114.581 90.1042C114.581 93.6056 112.431 96.5173 107.352 96.5173H106.541V96.5525H97.3867L99.4766 101.925H107.634C116.098 101.925 121 96.5173 121 90.1042C121 83.6565 116.38 78.2832 107.705 78.2832Z" fill="white"/>
</g>
</g>
<defs>
<linearGradient id="paint0_linear_30841_104843" x1="83.0286" y1="85.3109" x2="22.5129" y2="85.3109" gradientUnits="userSpaceOnUse">
<stop stop-color="white" stop-opacity="0.9"/>
<stop offset="0.36" stop-color="white" stop-opacity="0.8"/>
<stop offset="0.65" stop-color="white" stop-opacity="0.6"/>
<stop offset="1" stop-color="white" stop-opacity="0.4"/>
</linearGradient>
<clipPath id="clip0_30841_104843">
<rect width="140" height="140" fill="white"/>
</clipPath>
<clipPath id="clip1_30841_104843">
<rect width="100" height="32.4324" fill="white" transform="translate(21 78.2832)"/>
</clipPath>
</defs>
</svg>
