<svg width="140" height="140" viewBox="0 0 140 140" fill="none" xmlns="http://www.w3.org/2000/svg">
<g clip-path="url(#clip0_30837_104807)">
<path d="M140 65.0038L106.594 64.9561C105.715 57.2261 102.333 50.2558 97.2773 44.8758L121.292 22.2793C131.909 33.6413 138.796 48.5336 140 65.0038Z" fill="#4B617C"/>
<path d="M119.943 20.877L95.9126 43.5022C90.0533 37.9128 82.2684 34.3244 73.6543 33.8334L73.6543 0.09375C91.7396 1.02332 108.016 8.79783 119.943 20.877Z" fill="#4B617C"/>
<path d="M71.6204 0.0185014V33.7758C62.7234 33.7758 54.5974 37.0765 48.4002 42.5202L22.2793 18.7083C34.8024 7.09786 51.5686 0 69.9926 0C70.5367 0 71.0793 0.00618932 71.6204 0.0185014Z" fill="#4B617C"/>
<path d="M20.624 20.293L46.7843 44.031C41.2976 49.494 37.6029 56.7553 36.6587 64.8563L0 64.804C1.31928 47.4359 8.95884 31.834 20.624 20.293Z" fill="#4B617C"/>
<path d="M85.75 13.5C86.0455 14.7617 86.4688 20.0071 86.1723 21.5546C85.2913 26.1519 84.047 30.6714 82.8907 35.6427C77.7039 57.0608 72.6328 78.0749 67.333 99.0244C66.8591 100.898 64.9024 102.351 63.6343 104C62.7073 101.79 60.6551 99.3195 61.0498 97.4163C62.675 89.5815 64.9193 81.8784 67.1638 74.2014C72.2791 56.7054 77.4947 39.2418 82.7799 21.8024C83.2669 20.1954 84.7483 15.3565 85.75 13.5Z" fill="white"/>
<path d="M85.6376 17.5C85.8186 18.2384 85.8192 21.846 85.6376 22.7516C85.0983 25.4421 84.3365 28.0869 83.6286 30.9962C80.4531 43.5304 77.3484 55.8282 74.1038 68.0882C73.8136 69.1844 72.6157 70.0352 71.8394 71C71.2718 69.7068 70.0154 68.2609 70.2571 67.1471C71.2521 62.562 72.6261 58.0541 74.0002 53.5614C77.1319 43.3224 80.325 33.1024 83.5607 22.8966C83.8589 21.9562 85.0244 18.5865 85.6376 17.5Z" fill="#4B617C"/>
<path d="M55.6 129.536C55.6 130.08 55.4987 130.629 55.296 131.184C55.104 131.739 54.8533 132.283 54.544 132.816C54.2453 133.349 53.9093 133.867 53.536 134.368C53.1733 134.859 52.816 135.312 52.464 135.728L51.616 136.384V136.464L52.768 136.24H55.84V138H49.104V136.928C49.36 136.661 49.648 136.352 49.968 136C50.288 135.637 50.608 135.259 50.928 134.864C51.2587 134.459 51.5787 134.043 51.888 133.616C52.1973 133.189 52.4747 132.763 52.72 132.336C52.9653 131.899 53.1573 131.477 53.296 131.072C53.4453 130.667 53.52 130.283 53.52 129.92C53.52 129.483 53.392 129.125 53.136 128.848C52.8907 128.56 52.496 128.416 51.952 128.416C51.6107 128.416 51.2587 128.491 50.896 128.64C50.544 128.779 50.2453 128.96 50 129.184L49.168 127.712C49.584 127.371 50.0533 127.099 50.576 126.896C51.1093 126.683 51.7333 126.576 52.448 126.576C52.9067 126.576 53.328 126.64 53.712 126.768C54.096 126.896 54.4267 127.083 54.704 127.328C54.9813 127.573 55.2 127.883 55.36 128.256C55.52 128.619 55.6 129.045 55.6 129.536ZM61.2381 132.384C61.2381 130.421 61.5741 128.965 62.2461 128.016C62.9181 127.056 63.8835 126.576 65.1421 126.576C66.4861 126.576 67.4728 127.051 68.1021 128C68.7315 128.939 69.0461 130.4 69.0461 132.384C69.0461 134.357 68.7048 135.824 68.0221 136.784C67.3501 137.744 66.3848 138.224 65.1261 138.224C63.7928 138.224 62.8115 137.723 62.1821 136.72C61.5528 135.707 61.2381 134.261 61.2381 132.384ZM63.3181 132.384C63.3181 133.685 63.4568 134.693 63.7341 135.408C64.0221 136.112 64.4915 136.464 65.1421 136.464C65.7715 136.464 66.2301 136.139 66.5181 135.488C66.8168 134.837 66.9661 133.803 66.9661 132.384C66.9661 131.093 66.8275 130.096 66.5501 129.392C66.2728 128.688 65.7981 128.336 65.1261 128.336C64.4861 128.336 64.0221 128.667 63.7341 129.328C63.4568 129.989 63.3181 131.008 63.3181 132.384ZM80.7963 129.536C80.7963 130.08 80.6949 130.629 80.4923 131.184C80.3003 131.739 80.0496 132.283 79.7403 132.816C79.4416 133.349 79.1056 133.867 78.7323 134.368C78.3696 134.859 78.0123 135.312 77.6603 135.728L76.8123 136.384V136.464L77.9643 136.24H81.0363V138H74.3003V136.928C74.5563 136.661 74.8443 136.352 75.1643 136C75.4843 135.637 75.8043 135.259 76.1243 134.864C76.4549 134.459 76.7749 134.043 77.0843 133.616C77.3936 133.189 77.6709 132.763 77.9163 132.336C78.1616 131.899 78.3536 131.477 78.4923 131.072C78.6416 130.667 78.7163 130.283 78.7163 129.92C78.7163 129.483 78.5883 129.125 78.3323 128.848C78.0869 128.56 77.6923 128.416 77.1483 128.416C76.8069 128.416 76.4549 128.491 76.0923 128.64C75.7403 128.779 75.4416 128.96 75.1963 129.184L74.3643 127.712C74.7803 127.371 75.2496 127.099 75.7723 126.896C76.3056 126.683 76.9296 126.576 77.6443 126.576C78.1029 126.576 78.5243 126.64 78.9083 126.768C79.2923 126.896 79.6229 127.083 79.9003 127.328C80.1776 127.573 80.3963 127.883 80.5563 128.256C80.7163 128.619 80.7963 129.045 80.7963 129.536ZM94.1144 134.528C94.1144 135.051 94.0237 135.536 93.8424 135.984C93.6717 136.432 93.4264 136.821 93.1064 137.152C92.7864 137.483 92.397 137.744 91.9384 137.936C91.4904 138.128 90.9944 138.224 90.4504 138.224C89.8957 138.224 89.3837 138.139 88.9144 137.968C88.4557 137.787 88.0557 137.52 87.7144 137.168C87.373 136.816 87.1064 136.373 86.9144 135.84C86.7224 135.307 86.6264 134.688 86.6264 133.984C86.6264 132.928 86.7757 131.973 87.0744 131.12C87.3837 130.267 87.7944 129.525 88.3064 128.896C88.829 128.256 89.4317 127.744 90.1144 127.36C90.8077 126.965 91.5384 126.704 92.3064 126.576L92.7704 128.224C92.237 128.309 91.7464 128.475 91.2984 128.72C90.8504 128.965 90.4504 129.259 90.0984 129.6C89.757 129.941 89.4637 130.325 89.2184 130.752C88.9837 131.168 88.8184 131.6 88.7224 132.048C88.9357 131.781 89.213 131.557 89.5544 131.376C89.8957 131.184 90.3224 131.088 90.8344 131.088C91.3144 131.088 91.757 131.163 92.1624 131.312C92.5677 131.461 92.9144 131.685 93.2024 131.984C93.4904 132.272 93.7144 132.629 93.8744 133.056C94.0344 133.483 94.1144 133.973 94.1144 134.528ZM92.0984 134.64C92.0984 133.445 91.5117 132.848 90.3384 132.848C89.9117 132.848 89.549 132.944 89.2504 133.136C88.9624 133.328 88.7597 133.552 88.6424 133.808C88.621 133.925 88.6104 134.027 88.6104 134.112C88.6104 134.197 88.6104 134.283 88.6104 134.368C88.6104 134.624 88.6477 134.88 88.7224 135.136C88.797 135.381 88.9037 135.605 89.0424 135.808C89.1917 136 89.3784 136.16 89.6024 136.288C89.8264 136.405 90.093 136.464 90.4024 136.464C90.9037 136.464 91.309 136.293 91.6184 135.952C91.9384 135.611 92.0984 135.173 92.0984 134.64Z" fill="#4B617C"/>
<g clip-path="url(#clip1_30837_104807)">
<path fill-rule="evenodd" clip-rule="evenodd" d="M15.3343 115.796H13.7498L12.4321 113.864H12.295V115.796H10.9316V110.689H12.6226C14.1764 110.689 14.7172 111.363 14.7172 112.284C14.7172 113.018 14.2906 113.475 13.7498 113.662L15.3343 115.796ZM12.6683 111.73H12.295V112.95H12.6759C13.0492 112.95 13.3234 112.741 13.3234 112.351C13.3234 111.969 13.087 111.73 12.6683 111.73ZM32.421 110.689V113.781C32.421 115.384 33.274 115.96 34.4548 115.96C35.681 115.96 36.4808 115.316 36.4808 113.766V110.689H35.1251V113.856C35.1251 114.388 34.9956 114.829 34.4471 114.829C34.0284 114.829 33.7844 114.515 33.7844 113.856V110.689H32.421ZM57.2239 113.445C57.1555 113.115 57.1022 112.726 57.0789 112.359H57.0489L57.0458 112.389C57.0086 112.746 56.9707 113.109 56.9039 113.422L56.4319 115.796H54.954L53.6822 110.689H55.0151L55.5482 113.16C55.6357 113.565 55.6666 113.774 55.696 113.972C55.7025 114.016 55.7089 114.059 55.7158 114.104H55.7462C55.7821 113.851 55.8459 113.553 55.9011 113.295L55.9014 113.294C55.9165 113.223 55.931 113.156 55.9441 113.093L56.4392 110.689H57.719L58.2903 113.145C58.3612 113.451 58.393 113.653 58.4249 113.856C58.4376 113.936 58.4503 114.017 58.4654 114.104H58.4958C58.5339 113.774 58.5796 113.49 58.6481 113.153L59.1357 110.689H60.4305L59.204 115.796H57.7419L57.2239 113.445ZM79.0108 110.689H80.2979L82.126 115.796H80.755L80.4198 114.77H78.7291L78.394 115.796H77.0458L79.0108 110.689ZM79.0184 113.879H80.1306L79.7724 112.786C79.6867 112.533 79.6581 112.415 79.6172 112.246L79.5973 112.164H79.5593C79.5482 112.205 79.538 112.243 79.5281 112.28C79.4831 112.448 79.445 112.591 79.3762 112.793L79.0184 113.879ZM102.092 115.796H103.676L102.092 113.662C102.632 113.475 103.059 113.018 103.059 112.284C103.059 111.363 102.518 110.689 100.965 110.689H99.2741V115.796H100.637V113.864H100.774L102.092 115.796ZM100.637 111.73H101.01C101.429 111.73 101.665 111.969 101.665 112.351C101.665 112.741 101.391 112.95 101.018 112.95H100.637V111.73ZM122.568 110.689C124.442 110.689 125.44 111.85 125.44 113.242C125.44 114.628 124.381 115.796 122.553 115.796H120.733V110.689H122.568ZM122.492 114.628C123.589 114.628 124.054 113.999 124.054 113.242C124.054 112.426 123.551 111.858 122.492 111.858H122.096V114.628H122.492Z" fill="#4B617C"/>
<path fill-rule="evenodd" clip-rule="evenodd" d="M71.6206 77.3301L82.6189 105.616H75.6131L73.6545 100.655H68.306L66.3474 95.6198H71.6959L64.6148 77.3301H71.6206ZM27.7781 77.3301L35.3112 96.6564L42.6936 77.6263L42.6182 77.3301H49.7746L49.6993 77.6263L57.0818 96.6564L61.1496 86.2898L64.6148 95.2496L60.6222 105.616H53.6165L46.2341 86.586L38.7763 105.616H31.8459L20.7723 77.3301H27.7781ZM20.8477 95.6198L20.923 95.5457L17.4577 86.586L10 105.616H17.0058L18.9644 100.655H26.9494L25.0662 95.6198H20.8477Z" fill="url(#paint0_linear_30837_104807)"/>
<path fill-rule="evenodd" clip-rule="evenodd" d="M96.8241 92.4548C98.7295 91.1083 100.038 88.9293 100.038 85.8998C100.038 80.783 97.0341 77.0391 88.4002 77.0391H79.0053V77.1225L81.2703 82.9464H81.2904L86.5804 82.8214H88.6544C90.982 82.8214 92.2941 84.1526 92.2941 86.2742C92.2941 87.6611 91.6657 88.6352 90.669 89.1574C90.1117 89.4495 89.4405 89.6019 88.6965 89.6019H87.8922L83.8593 89.6023L86.5804 96.5978L90.0082 105.41H96.9911L92.6224 94.18C94.4006 93.7744 95.8989 93.1874 96.7795 92.5144C96.8038 92.4956 96.8176 92.4756 96.8241 92.4548Z" fill="#4B617C"/>
<path fill-rule="evenodd" clip-rule="evenodd" d="M114.046 77.0391H103.847V77.3727L106.257 83.5704H111.422V83.5286H113.623C119.505 83.5286 122.298 86.69 122.298 91.2243C122.298 95.4259 119.717 98.92 113.623 98.92H112.649V98.9623H101.664L104.172 105.41H113.961C124.118 105.41 130 98.92 130 91.2243C130 83.487 124.456 77.0391 114.046 77.0391Z" fill="#4B617C"/>
</g>
</g>
<defs>
<linearGradient id="paint0_linear_30837_104807" x1="84.4343" y1="85.4726" x2="11.8155" y2="85.4726" gradientUnits="userSpaceOnUse">
<stop stop-color="#4B617C"/>
<stop offset="0.36" stop-color="#4B617C"/>
<stop offset="0.65" stop-color="#4B617C"/>
<stop offset="1" stop-color="#4B617C"/>
</linearGradient>
<clipPath id="clip0_30837_104807">
<rect width="140" height="140" fill="white"/>
</clipPath>
<clipPath id="clip1_30837_104807">
<rect width="120" height="38.9189" fill="white" transform="translate(10 77.0391)"/>
</clipPath>
</defs>
</svg>
