<svg version="1.1" id="Layer_1" xmlns="http://www.w3.org/2000/svg" xmlns:xlink="http://www.w3.org/1999/xlink" x="0px" y="0px"
	 width="100%" viewBox="0 0 318 159" enable-background="new 0 0 318 159" xml:space="preserve">
<path fill="#FFFEFE" opacity="1.000000" stroke="none" 
	d="
M237.000000,160.000000 
	C158.000015,160.000000 79.500015,160.000000 1.000021,160.000000 
	C1.000014,107.000015 1.000014,54.000031 1.000007,1.000035 
	C106.999969,1.000024 212.999939,1.000024 318.999939,1.000012 
	C318.999939,53.999966 318.999939,106.999931 318.999969,159.999939 
	C291.833344,160.000000 264.666656,160.000000 237.000000,160.000000 
M173.258957,77.839096 
	C179.224182,80.998344 185.189407,84.157593 188.987350,86.169022 
	C201.910950,74.520706 214.720413,62.975281 227.741226,51.239357 
	C207.752869,33.425579 185.739227,23.717508 159.388321,23.127216 
	C159.210968,23.433348 159.033600,23.739479 158.723053,24.969915 
	C158.776398,41.301647 158.829742,57.633381 158.939285,74.535423 
	C159.283936,74.655312 159.628571,74.775208 160.770370,75.054459 
	C164.119751,75.638840 165.935959,74.063141 167.124207,71.012512 
	C169.515091,64.874367 172.115646,58.817104 174.683853,52.749393 
	C175.255417,51.398975 176.051056,50.143394 176.743515,48.844151 
	C177.161819,49.025314 177.580124,49.206478 177.998428,49.387642 
	C177.462570,51.154507 176.871750,52.907040 176.406113,54.692223 
	C175.930176,56.516891 175.577042,58.373589 175.000000,60.912392 
	C174.147385,62.207809 172.950882,63.393024 172.494980,64.815590 
	C167.547333,80.253677 162.664825,95.713219 157.876251,111.201431 
	C155.775101,117.997459 153.674149,124.816528 152.152725,131.752274 
	C151.783157,133.437012 153.704300,135.624252 154.572159,137.580429 
	C155.759216,136.121017 157.590988,134.834076 158.034607,133.175781 
	C162.995926,114.630455 167.743179,96.027870 173.258957,77.839096 
M151.184189,23.020348 
	C125.907043,24.711210 104.020691,34.047184 86.152328,51.045052 
	C98.413811,63.677212 110.329758,75.953384 122.520706,88.512878 
	C130.369644,81.085564 139.783173,77.209488 150.887482,75.100555 
	C152.159576,75.031509 153.431686,74.962463 155.049515,74.874649 
	C155.049515,58.196156 155.091278,41.838772 154.922089,25.483570 
	C154.913910,24.693747 153.049332,23.923126 151.184189,23.020348 
M55.912006,124.230057 
	C72.597389,124.130127 89.282776,124.030197 106.695969,123.560875 
	C107.204659,112.563461 110.240311,102.470833 117.538437,93.986221 
	C119.460617,91.751556 119.363281,90.042770 117.216705,88.030441 
	C113.693779,84.727814 110.349136,81.234711 106.936798,77.814453 
	C99.100021,69.959503 91.267746,62.100060 83.455528,54.264381 
	C82.585068,54.872181 82.122040,55.089817 81.797829,55.437054 
	C66.943031,71.346886 58.018856,90.121704 55.058147,111.651337 
	C54.500626,115.705528 54.986626,119.903206 55.912006,124.230057 
M259.156494,122.334991 
	C259.098083,121.887688 259.039673,121.440384 259.080994,120.254890 
	C259.023712,119.513992 258.966461,118.773094 259.031006,117.170189 
	C256.888184,92.461334 247.010468,71.376923 230.588715,54.236221 
	C217.677521,66.399437 205.220383,78.134903 192.554016,90.067467 
	C201.680161,99.767891 205.809082,110.775551 207.044449,123.595734 
	C207.370468,123.754173 207.696503,123.912605 208.944366,124.243164 
	C225.289139,124.185837 241.633896,124.128502 258.579437,124.042091 
	C258.720642,123.694511 258.861847,123.346924 259.156494,122.334991 
z"/>
<path fill="#B9CD33" opacity="1.000000" stroke="none" 
	d="
M258.981262,120.993080 
	C259.039673,121.440384 259.098083,121.887688 258.850403,122.782417 
	C258.355743,123.510292 258.167206,123.790741 257.978699,124.071175 
	C241.633896,124.128502 225.289139,124.185837 208.379028,123.926140 
	C207.549393,123.408081 207.285080,123.207047 207.020767,123.006012 
	C205.809082,110.775551 201.680161,99.767891 192.554016,90.067467 
	C205.220383,78.134903 217.677521,66.399437 230.588715,54.236221 
	C247.010468,71.376923 256.888184,92.461334 258.731873,117.788353 
	C258.615540,119.268707 258.798401,120.130890 258.981262,120.993080 
z"/>
<path fill="#A41F2F" opacity="1.000000" stroke="none" 
	d="
M54.991093,124.034668 
	C54.986626,119.903206 54.500626,115.705528 55.058147,111.651337 
	C58.018856,90.121704 66.943031,71.346886 81.797829,55.437054 
	C82.122040,55.089817 82.585068,54.872181 83.455528,54.264381 
	C91.267746,62.100060 99.100021,69.959503 106.936798,77.814453 
	C110.349136,81.234711 113.693779,84.727814 117.216705,88.030441 
	C119.363281,90.042770 119.460617,91.751556 117.538437,93.986221 
	C110.240311,102.470833 107.204659,112.563461 106.034172,123.457520 
	C89.129639,123.256180 72.886940,123.148544 56.644054,123.101624 
	C56.093971,123.100037 55.542122,123.709846 54.991093,124.034668 
z"/>
<path fill="#F26523" opacity="1.000000" stroke="none" 
	d="
M149.994461,75.021355 
	C139.783173,77.209488 130.369644,81.085564 122.520706,88.512878 
	C110.329758,75.953384 98.413811,63.677212 86.152328,51.045052 
	C104.020691,34.047184 125.907043,24.711210 151.861603,23.375139 
	C153.025589,25.369898 153.920090,27.006334 153.934311,28.650387 
	C154.049255,41.933823 153.855072,55.221313 154.096924,68.501343 
	C154.159637,71.945206 153.200195,73.997993 149.994461,75.021355 
z"/>
<path fill="#E0B148" opacity="1.000000" stroke="none" 
	d="
M159.973526,23.115910 
	C185.739227,23.717508 207.752869,33.425579 227.741226,51.239357 
	C214.720413,62.975281 201.910950,74.520706 188.987350,86.169022 
	C185.189407,84.157593 179.224182,80.998344 172.954132,77.266876 
	C173.681198,72.666870 174.846024,68.666016 175.670715,64.596245 
	C175.948318,63.226318 175.361740,61.681271 175.170135,60.216263 
	C175.577042,58.373589 175.930176,56.516891 176.406113,54.692223 
	C176.871750,52.907040 177.462570,51.154507 177.998428,49.387642 
	C177.580124,49.206478 177.161819,49.025314 176.743515,48.844151 
	C176.051056,50.143394 175.255417,51.398975 174.683853,52.749393 
	C172.115646,58.817104 169.515091,64.874367 167.124207,71.012512 
	C165.935959,74.063141 164.119751,75.638840 160.247711,74.760910 
	C159.493820,74.217117 159.213181,74.049698 158.883087,73.965111 
	C158.829742,57.633381 158.776398,41.301647 159.022995,24.413246 
	C159.539795,23.609688 159.756668,23.362799 159.973526,23.115910 
z"/>
<path fill="#2A2728" opacity="1.000000" stroke="none" 
	d="
M175.085068,60.564327 
	C175.361740,61.681271 175.948318,63.226318 175.670715,64.596245 
	C174.846024,68.666016 173.681198,72.666870 172.598694,77.067680 
	C167.743179,96.027870 162.995926,114.630455 158.034607,133.175781 
	C157.590988,134.834076 155.759216,136.121017 154.572159,137.580429 
	C153.704300,135.624252 151.783157,133.437012 152.152725,131.752274 
	C153.674149,124.816528 155.775101,117.997459 157.876251,111.201431 
	C162.664825,95.713219 167.547333,80.253677 172.494980,64.815590 
	C172.950882,63.393024 174.147385,62.207809 175.085068,60.564327 
z"/>
<path fill="#F25A01" opacity="1.000000" stroke="none" 
	d="
M150.440979,75.060959 
	C153.200195,73.997993 154.159637,71.945206 154.096924,68.501343 
	C153.855072,55.221313 154.049255,41.933823 153.934311,28.650387 
	C153.920090,27.006334 153.025589,25.369898 152.294128,23.436749 
	C153.049332,23.923126 154.913910,24.693747 154.922089,25.483570 
	C155.091278,41.838772 155.049515,58.196156 155.049515,74.874649 
	C153.431686,74.962463 152.159576,75.031509 150.440979,75.060959 
z"/>
<path fill="#9F001C" opacity="1.000000" stroke="none" 
	d="
M55.451550,124.132362 
	C55.542122,123.709846 56.093971,123.100037 56.644054,123.101624 
	C72.886940,123.148544 89.129639,123.256180 105.670265,123.642220 
	C89.282776,124.030197 72.597389,124.130127 55.451550,124.132362 
z"/>
</svg>