<svg width="148" height="145" viewBox="0 0 148 145" fill="none" xmlns="http://www.w3.org/2000/svg">
<g filter="url(#filter0_d_30834_104764)">
<g clip-path="url(#clip0_30834_104764)">
<path d="M144 65.0038L110.594 64.9561C109.715 57.2261 106.333 50.2558 101.277 44.8758L125.292 22.2793C135.909 33.6413 142.796 48.5336 144 65.0038Z" fill="#929292"/>
<path d="M123.943 20.877L99.9126 43.5022C94.0533 37.9128 86.2684 34.3244 77.6543 33.8334L77.6543 0.09375C95.7396 1.02332 112.016 8.79783 123.943 20.877Z" fill="#929292"/>
<path d="M75.6204 0.0185014V33.7758C66.7234 33.7758 58.5974 37.0765 52.4002 42.5202L26.2793 18.7083C38.8024 7.09786 55.5686 0 73.9926 0C74.5367 0 75.0793 0.00618933 75.6204 0.0185014Z" fill="#929292"/>
<path d="M24.624 20.293L50.7843 44.031C45.2976 49.494 41.6029 56.7553 40.6587 64.8563L4 64.804C5.31928 47.4359 12.9588 31.834 24.624 20.293Z" fill="#929292"/>
<path d="M90.25 13.5C90.5455 14.7617 90.9688 20.0071 90.6723 21.5546C89.7913 26.1519 88.547 30.6714 87.3907 35.6427C82.2039 57.0608 77.1328 78.0749 71.833 99.0244C71.3591 100.898 69.4024 102.351 68.1343 104C67.2073 101.79 65.1551 99.3195 65.5498 97.4163C67.175 89.5815 69.4193 81.8784 71.6638 74.2014C76.7791 56.7054 81.9947 39.2418 87.2799 21.8024C87.7669 20.1954 89.2483 15.3565 90.25 13.5Z" fill="white"/>
<path d="M89.8514 17.5C90.0492 18.3074 90.0499 22.2521 89.8514 23.2424C89.2616 26.1843 88.4286 29.0764 87.6545 32.2576C84.1823 45.9632 80.7875 59.4103 77.2396 72.816C76.9223 74.0148 75.6124 74.945 74.7635 76C74.1429 74.586 72.7691 73.0049 73.0334 71.787C74.1213 66.7734 75.6238 61.8442 77.1263 56.9316C80.5507 45.7357 84.0422 34.5606 87.5804 23.401C87.9064 22.3727 89.1808 18.688 89.8514 17.5Z" fill="#929292"/>
<path d="M6.88 84.096C7.58933 83.9653 8.40133 83.8627 9.316 83.788C10.2493 83.7133 11.0987 83.676 11.864 83.676C12.7227 83.676 13.5347 83.7693 14.3 83.956C15.084 84.1427 15.7653 84.4507 16.344 84.88C16.9413 85.3093 17.4173 85.8693 17.772 86.56C18.1267 87.2507 18.304 88.0907 18.304 89.08C18.304 90.6107 17.884 91.852 17.044 92.804C16.204 93.756 15.14 94.3907 13.852 94.708L15.196 95.744L20.068 103.5H17.352L11.948 95.044L9.204 94.624V103.5H6.88V84.096ZM11.92 85.692C11.6773 85.692 11.4253 85.692 11.164 85.692C10.9027 85.692 10.6507 85.7013 10.408 85.72C10.1653 85.7387 9.932 85.7573 9.708 85.776C9.50267 85.7947 9.33467 85.8227 9.204 85.86V93.084H11.388C12.676 93.084 13.74 92.7667 14.58 92.132C15.42 91.4973 15.84 90.508 15.84 89.164C15.84 88.156 15.4947 87.3253 14.804 86.672C14.1133 86.0187 13.152 85.692 11.92 85.692ZM40.9483 83.9H43.1883V96.976C43.1883 98.152 43.0297 99.1693 42.7123 100.028C42.4137 100.887 41.975 101.596 41.3963 102.156C40.8363 102.697 40.155 103.099 39.3523 103.36C38.5497 103.621 37.663 103.752 36.6923 103.752C34.3777 103.752 32.6323 103.229 31.4563 102.184C30.2803 101.139 29.6923 99.552 29.6923 97.424V83.9H32.0163V96.332C32.0163 97.3213 32.1097 98.1613 32.2963 98.852C32.5017 99.524 32.8003 100.075 33.1923 100.504C33.5843 100.915 34.0697 101.213 34.6483 101.4C35.2457 101.587 35.9363 101.68 36.7203 101.68C38.2323 101.68 39.315 101.269 39.9683 100.448C40.6217 99.608 40.9483 98.236 40.9483 96.332V83.9ZM57.954 97.032L58.402 100.28H58.43L58.906 96.976L62.938 83.9H64.058L68.118 97.032L68.594 100.28H68.622L69.126 96.976L72.43 83.9H74.698L69.238 103.808H67.95L63.974 90.676L63.47 87.708H63.33L62.826 90.704L58.85 103.808H57.562L51.962 83.9H54.426L57.954 97.032ZM91.9965 98.068H84.7725L82.8125 103.5H80.5165L87.9365 83.592H89.0005L96.4485 103.5H94.0125L91.9965 98.068ZM85.5285 96.052H91.2965L89.1125 90.088L88.4125 87.12H88.3845L87.6845 90.144L85.5285 96.052ZM105.211 84.096C105.921 83.9653 106.733 83.8627 107.647 83.788C108.581 83.7133 109.43 83.676 110.195 83.676C111.054 83.676 111.866 83.7693 112.631 83.956C113.415 84.1427 114.097 84.4507 114.675 84.88C115.273 85.3093 115.749 85.8693 116.103 86.56C116.458 87.2507 116.635 88.0907 116.635 89.08C116.635 90.6107 116.215 91.852 115.375 92.804C114.535 93.756 113.471 94.3907 112.183 94.708L113.527 95.744L118.399 103.5H115.683L110.279 95.044L107.535 94.624V103.5H105.211V84.096ZM110.251 85.692C110.009 85.692 109.757 85.692 109.495 85.692C109.234 85.692 108.982 85.7013 108.739 85.72C108.497 85.7387 108.263 85.7573 108.039 85.776C107.834 85.7947 107.666 85.8227 107.535 85.86V93.084H109.719C111.007 93.084 112.071 92.7667 112.911 92.132C113.751 91.4973 114.171 90.508 114.171 89.164C114.171 88.156 113.826 87.3253 113.135 86.672C112.445 86.0187 111.483 85.692 110.251 85.692ZM128.024 83.9C128.378 83.844 128.77 83.8067 129.2 83.788C129.648 83.7507 130.105 83.732 130.572 83.732C131.057 83.7133 131.524 83.704 131.972 83.704C132.438 83.6853 132.868 83.676 133.26 83.676C134.828 83.676 136.181 83.9187 137.32 84.404C138.477 84.8893 139.429 85.5707 140.176 86.448C140.922 87.3067 141.473 88.3427 141.828 89.556C142.201 90.7693 142.388 92.104 142.388 93.56C142.388 94.8853 142.21 96.164 141.856 97.396C141.52 98.6093 140.978 99.692 140.232 100.644C139.485 101.577 138.514 102.333 137.32 102.912C136.125 103.472 134.678 103.752 132.98 103.752C132.681 103.752 132.289 103.743 131.804 103.724C131.337 103.724 130.852 103.705 130.348 103.668C129.844 103.649 129.377 103.631 128.948 103.612C128.518 103.593 128.21 103.565 128.024 103.528V83.9ZM133.316 85.748C133.073 85.748 132.802 85.748 132.504 85.748C132.224 85.748 131.944 85.7573 131.664 85.776C131.384 85.7947 131.122 85.8133 130.88 85.832C130.656 85.8507 130.478 85.8693 130.348 85.888V101.568C130.441 101.587 130.618 101.605 130.88 101.624C131.141 101.624 131.412 101.633 131.692 101.652C131.972 101.652 132.242 101.661 132.504 101.68C132.765 101.68 132.942 101.68 133.036 101.68C134.342 101.68 135.434 101.456 136.312 101.008C137.208 100.56 137.917 99.9627 138.44 99.216C138.981 98.4507 139.364 97.5827 139.588 96.612C139.812 95.6227 139.924 94.6053 139.924 93.56C139.924 92.6453 139.821 91.7307 139.616 90.816C139.41 89.8827 139.056 89.0427 138.552 88.296C138.048 87.5493 137.366 86.9427 136.508 86.476C135.668 85.9907 134.604 85.748 133.316 85.748Z" fill="#929292"/>
<path d="M46.8 121.188C46.8 122.14 46.6227 123.101 46.268 124.072C45.932 125.043 45.4933 125.995 44.952 126.928C44.4293 127.861 43.8413 128.767 43.188 129.644C42.5533 130.503 41.928 131.296 41.312 132.024L39.828 133.172V133.312L41.844 132.92H47.22V136H35.432V134.124C35.88 133.657 36.384 133.116 36.944 132.5C37.504 131.865 38.064 131.203 38.624 130.512C39.2027 129.803 39.7627 129.075 40.304 128.328C40.8453 127.581 41.3307 126.835 41.76 126.088C42.1893 125.323 42.5253 124.585 42.768 123.876C43.0293 123.167 43.16 122.495 43.16 121.86C43.16 121.095 42.936 120.469 42.488 119.984C42.0587 119.48 41.368 119.228 40.416 119.228C39.8187 119.228 39.2027 119.359 38.568 119.62C37.952 119.863 37.4293 120.18 37 120.572L35.544 117.996C36.272 117.399 37.0933 116.923 38.008 116.568C38.9413 116.195 40.0333 116.008 41.284 116.008C42.0867 116.008 42.824 116.12 43.496 116.344C44.168 116.568 44.7467 116.895 45.232 117.324C45.7173 117.753 46.1 118.295 46.38 118.948C46.66 119.583 46.8 120.329 46.8 121.188ZM56.6667 126.172C56.6667 122.737 57.2547 120.189 58.4307 118.528C59.6067 116.848 61.2961 116.008 63.4987 116.008C65.8507 116.008 67.5774 116.839 68.6787 118.5C69.7801 120.143 70.3307 122.7 70.3307 126.172C70.3307 129.625 69.7334 132.192 68.5387 133.872C67.3627 135.552 65.6734 136.392 63.4707 136.392C61.1374 136.392 59.4201 135.515 58.3187 133.76C57.2174 131.987 56.6667 129.457 56.6667 126.172ZM60.3067 126.172C60.3067 128.449 60.5494 130.213 61.0347 131.464C61.5387 132.696 62.3601 133.312 63.4987 133.312C64.6001 133.312 65.4027 132.743 65.9067 131.604C66.4294 130.465 66.6907 128.655 66.6907 126.172C66.6907 123.913 66.4481 122.168 65.9627 120.936C65.4774 119.704 64.6467 119.088 63.4707 119.088C62.3507 119.088 61.5387 119.667 61.0347 120.824C60.5494 121.981 60.3067 123.764 60.3067 126.172ZM90.8934 121.188C90.8934 122.14 90.7161 123.101 90.3614 124.072C90.0254 125.043 89.5868 125.995 89.0454 126.928C88.5228 127.861 87.9348 128.767 87.2814 129.644C86.6468 130.503 86.0214 131.296 85.4054 132.024L83.9214 133.172V133.312L85.9374 132.92H91.3134V136H79.5254V134.124C79.9734 133.657 80.4774 133.116 81.0374 132.5C81.5974 131.865 82.1574 131.203 82.7174 130.512C83.2961 129.803 83.8561 129.075 84.3974 128.328C84.9388 127.581 85.4241 126.835 85.8534 126.088C86.2828 125.323 86.6188 124.585 86.8614 123.876C87.1228 123.167 87.2534 122.495 87.2534 121.86C87.2534 121.095 87.0294 120.469 86.5814 119.984C86.1521 119.48 85.4614 119.228 84.5094 119.228C83.9121 119.228 83.2961 119.359 82.6614 119.62C82.0454 119.863 81.5228 120.18 81.0934 120.572L79.6374 117.996C80.3654 117.399 81.1868 116.923 82.1014 116.568C83.0348 116.195 84.1268 116.008 85.3774 116.008C86.1801 116.008 86.9174 116.12 87.5894 116.344C88.2614 116.568 88.8401 116.895 89.3254 117.324C89.8108 117.753 90.1934 118.295 90.4734 118.948C90.7534 119.583 90.8934 120.329 90.8934 121.188ZM114.2 129.924C114.2 130.839 114.041 131.688 113.724 132.472C113.425 133.256 112.996 133.937 112.436 134.516C111.876 135.095 111.195 135.552 110.392 135.888C109.608 136.224 108.74 136.392 107.788 136.392C106.817 136.392 105.921 136.243 105.1 135.944C104.297 135.627 103.597 135.16 103 134.544C102.403 133.928 101.936 133.153 101.6 132.22C101.264 131.287 101.096 130.204 101.096 128.972C101.096 127.124 101.357 125.453 101.88 123.96C102.421 122.467 103.14 121.169 104.036 120.068C104.951 118.948 106.005 118.052 107.2 117.38C108.413 116.689 109.692 116.232 111.036 116.008L111.848 118.892C110.915 119.041 110.056 119.331 109.272 119.76C108.488 120.189 107.788 120.703 107.172 121.3C106.575 121.897 106.061 122.569 105.632 123.316C105.221 124.044 104.932 124.8 104.764 125.584C105.137 125.117 105.623 124.725 106.22 124.408C106.817 124.072 107.564 123.904 108.46 123.904C109.3 123.904 110.075 124.035 110.784 124.296C111.493 124.557 112.1 124.949 112.604 125.472C113.108 125.976 113.5 126.601 113.78 127.348C114.06 128.095 114.2 128.953 114.2 129.924ZM110.672 130.12C110.672 128.029 109.645 126.984 107.592 126.984C106.845 126.984 106.211 127.152 105.688 127.488C105.184 127.824 104.829 128.216 104.624 128.664C104.587 128.869 104.568 129.047 104.568 129.196C104.568 129.345 104.568 129.495 104.568 129.644C104.568 130.092 104.633 130.54 104.764 130.988C104.895 131.417 105.081 131.809 105.324 132.164C105.585 132.5 105.912 132.78 106.304 133.004C106.696 133.209 107.163 133.312 107.704 133.312C108.581 133.312 109.291 133.013 109.832 132.416C110.392 131.819 110.672 131.053 110.672 130.12Z" fill="#929292"/>
</g>
</g>
<defs>
<filter id="filter0_d_30834_104764" x="0" y="0" width="148" height="148" filterUnits="userSpaceOnUse" color-interpolation-filters="sRGB">
<feFlood flood-opacity="0" result="BackgroundImageFix"/>
<feColorMatrix in="SourceAlpha" type="matrix" values="0 0 0 0 0 0 0 0 0 0 0 0 0 0 0 0 0 0 127 0" result="hardAlpha"/>
<feOffset dy="4"/>
<feGaussianBlur stdDeviation="2"/>
<feComposite in2="hardAlpha" operator="out"/>
<feColorMatrix type="matrix" values="0 0 0 0 0 0 0 0 0 0 0 0 0 0 0 0 0 0 0.25 0"/>
<feBlend mode="normal" in2="BackgroundImageFix" result="effect1_dropShadow_30834_104764"/>
<feBlend mode="normal" in="SourceGraphic" in2="effect1_dropShadow_30834_104764" result="shape"/>
</filter>
<clipPath id="clip0_30834_104764">
<rect width="140" height="140" fill="white" transform="translate(4)"/>
</clipPath>
</defs>
</svg>
