<svg width="360" height="360" viewBox="0 0 360 360" fill="none" xmlns="http://www.w3.org/2000/svg">
<g clip-path="url(#clip0_30843_105435)">
<rect width="360" height="360" fill="#95001B"/>
<path d="M20.432 237.248C21.04 237.248 21.536 237.216 21.92 237.152C22.336 237.088 22.672 236.944 22.928 236.72C23.184 236.464 23.36 236.112 23.456 235.664C23.584 235.184 23.664 234.56 23.696 233.792L24.56 208.4H39.488V242H34.112V213.2H29.504L28.928 233.504C28.832 236.576 28.176 238.768 26.96 240.08C25.776 241.392 23.872 242.048 21.248 242.048H20.432V237.248ZM55.2414 233.456C54.9214 234.96 54.5214 236.288 54.0414 237.44C53.5934 238.56 52.9694 239.488 52.1694 240.224C51.4014 240.928 50.3934 241.44 49.1454 241.76C47.9294 242.08 46.4094 242.176 44.5854 242.048V237.344C45.9294 237.44 46.9854 237.312 47.7534 236.96C48.5214 236.608 49.0174 235.824 49.2414 234.608L49.2894 234.32L41.9934 208.4H47.2254L50.1054 219.872L51.7374 227.744L52.9854 219.92L55.3854 208.4H60.9054L55.2414 233.456ZM79.1551 208.4V242H73.8751V228.464C73.2991 229.104 72.5791 229.584 71.7151 229.904C70.8831 230.192 70.0991 230.336 69.3631 230.336C67.1871 230.336 65.5391 229.632 64.4191 228.224C63.3311 226.784 62.7871 224.912 62.7871 222.608V208.4H68.0671V222.176C68.0671 223.296 68.3711 224.128 68.9791 224.672C69.5871 225.216 70.3071 225.488 71.1391 225.488C71.9711 225.488 72.6271 225.2 73.1071 224.624C73.6191 224.016 73.8751 223.152 73.8751 222.032V208.4H79.1551ZM83.045 242V208.4H88.325V237.2H92.885V208.4H98.165V237.2H102.725V208.4H108.005V242H83.045ZM128.914 242H123.586L122.674 235.904H116.194L115.282 242H110.434L115.81 208.4H123.538L128.914 242ZM116.866 231.344H121.954L119.41 214.352L116.866 231.344ZM130.413 242C130.669 241.36 130.829 240.736 130.893 240.128C130.957 239.488 130.989 238.752 130.989 237.92V232.736C130.989 230.976 131.229 229.488 131.709 228.272C132.221 227.024 133.149 226.128 134.493 225.584C132.189 224.496 131.037 222.224 131.037 218.768V216.128C131.037 213.536 131.645 211.6 132.861 210.32C134.109 209.04 136.109 208.4 138.861 208.4H146.829V242H141.549V228.32H139.725C138.509 228.32 137.629 228.64 137.085 229.28C136.541 229.92 136.269 231.024 136.269 232.592V237.872C136.269 238.544 136.253 239.104 136.221 239.552C136.221 240 136.189 240.368 136.125 240.656C136.093 240.944 136.045 241.184 135.981 241.376C135.917 241.568 135.853 241.776 135.789 242H130.413ZM139.005 213.2C138.077 213.2 137.389 213.472 136.941 214.016C136.525 214.56 136.317 215.44 136.317 216.656V219.968C136.317 221.312 136.589 222.24 137.133 222.752C137.709 223.264 138.493 223.52 139.485 223.52H141.549V213.2H139.005ZM20.384 256.4H36.704V261.2H31.184V290H25.904V261.2H20.384V256.4ZM44.3094 270.56H51.5574V275.36H44.3094V285.2H53.4294V290H39.0294V256.4H53.4294V261.2H44.3094V270.56ZM74.3173 256.4L68.7973 272.72L74.7013 290H69.1333L64.8133 276.704L60.4453 290H55.5013L61.4053 272.72L55.8853 256.4H61.3573L65.3413 268.784L69.4213 256.4H74.3173ZM82.6063 290H77.3263V256.4H82.6063V270.8H88.6063V256.4H93.9823V290H88.6063V275.6H82.6063V290ZM102.659 282.272C102.659 283.488 102.899 284.352 103.379 284.864C103.891 285.344 104.563 285.584 105.395 285.584C106.227 285.584 106.883 285.344 107.363 284.864C107.875 284.352 108.131 283.488 108.131 282.272V264.128C108.131 262.912 107.875 262.064 107.363 261.584C106.883 261.072 106.227 260.816 105.395 260.816C104.563 260.816 103.891 261.072 103.379 261.584C102.899 262.064 102.659 262.912 102.659 264.128V282.272ZM97.3786 264.464C97.3786 261.744 98.0666 259.664 99.4426 258.224C100.819 256.752 102.803 256.016 105.395 256.016C107.987 256.016 109.971 256.752 111.347 258.224C112.723 259.664 113.411 261.744 113.411 264.464V281.936C113.411 284.656 112.723 286.752 111.347 288.224C109.971 289.664 107.987 290.384 105.395 290.384C102.803 290.384 100.819 289.664 99.4426 288.224C98.0666 286.752 97.3786 284.656 97.3786 281.936V264.464ZM115.354 285.248C115.962 285.248 116.458 285.216 116.842 285.152C117.258 285.088 117.594 284.944 117.85 284.72C118.106 284.464 118.282 284.112 118.378 283.664C118.506 283.184 118.586 282.56 118.618 281.792L119.482 256.4H134.41V290H129.034V261.2H124.426L123.85 281.504C123.754 284.576 123.098 286.768 121.882 288.08C120.698 289.392 118.794 290.048 116.17 290.048H115.354V285.248ZM143.299 282.272C143.299 283.488 143.539 284.352 144.019 284.864C144.531 285.344 145.203 285.584 146.035 285.584C146.867 285.584 147.523 285.344 148.003 284.864C148.515 284.352 148.771 283.488 148.771 282.272V264.128C148.771 262.912 148.515 262.064 148.003 261.584C147.523 261.072 146.867 260.816 146.035 260.816C145.203 260.816 144.531 261.072 144.019 261.584C143.539 262.064 143.299 262.912 143.299 264.128V282.272ZM138.019 264.464C138.019 261.744 138.707 259.664 140.083 258.224C141.459 256.752 143.443 256.016 146.035 256.016C148.627 256.016 150.611 256.752 151.987 258.224C153.363 259.664 154.051 261.744 154.051 264.464V281.936C154.051 284.656 153.363 286.752 151.987 288.224C150.611 289.664 148.627 290.384 146.035 290.384C143.443 290.384 141.459 289.664 140.083 288.224C138.707 286.752 138.019 284.656 138.019 281.936V264.464ZM157.531 290V256.4H171.451V261.2H162.811V290H157.531ZM180.438 290H175.014V256.4H179.718V277.664L181.638 270.272L185.958 256.4H191.766V290H187.014V266.336L184.854 274.592L180.438 290ZM194.538 290C194.794 289.36 194.954 288.736 195.018 288.128C195.082 287.488 195.114 286.752 195.114 285.92V280.736C195.114 278.976 195.354 277.488 195.834 276.272C196.346 275.024 197.274 274.128 198.618 273.584C196.314 272.496 195.162 270.224 195.162 266.768V264.128C195.162 261.536 195.77 259.6 196.986 258.32C198.234 257.04 200.234 256.4 202.986 256.4H210.954V290H205.674V276.32H203.85C202.634 276.32 201.754 276.64 201.21 277.28C200.666 277.92 200.394 279.024 200.394 280.592V285.872C200.394 286.544 200.378 287.104 200.346 287.552C200.346 288 200.314 288.368 200.25 288.656C200.218 288.944 200.17 289.184 200.106 289.376C200.042 289.568 199.978 289.776 199.914 290H194.538ZM203.13 261.2C202.202 261.2 201.514 261.472 201.066 262.016C200.65 262.56 200.442 263.44 200.442 264.656V267.968C200.442 269.312 200.714 270.24 201.258 270.752C201.834 271.264 202.618 271.52 203.61 271.52H205.674V261.2H203.13ZM233.832 256.4H238.392L225.144 290H220.584L233.832 256.4ZM27.2 338H21.92V304.4H38.576V338H33.2V309.2H27.2V338ZM40.9164 333.248C41.5244 333.248 42.0204 333.216 42.4044 333.152C42.8204 333.088 43.1564 332.944 43.4124 332.72C43.6684 332.464 43.8444 332.112 43.9404 331.664C44.0684 331.184 44.1484 330.56 44.1804 329.792L45.0444 304.4H59.9724V338H54.5964V309.2H49.9884L49.4124 329.504C49.3164 332.576 48.6604 334.768 47.4444 336.08C46.2604 337.392 44.3564 338.048 41.7324 338.048H40.9164V333.248ZM81.1018 338H75.7738L74.8618 331.904H68.3818L67.4698 338H62.6218L67.9978 304.4H75.7258L81.1018 338ZM69.0538 327.344H74.1418L71.5978 310.352L69.0538 327.344ZM82.0246 304.4H98.3446V309.2H92.8246V338H87.5446V309.2H82.0246V304.4ZM110.078 334.208H108.11C105.454 334.208 103.47 333.504 102.158 332.096C100.878 330.688 100.238 328.624 100.238 325.904V316.736C100.238 314.016 100.878 311.952 102.158 310.544C103.47 309.136 105.454 308.432 108.11 308.432H110.078V304.4H115.262V308.432H117.23C119.886 308.432 121.854 309.136 123.134 310.544C124.446 311.952 125.102 314.016 125.102 316.736V325.904C125.102 328.624 124.446 330.688 123.134 332.096C121.854 333.504 119.886 334.208 117.23 334.208H115.262V338H110.078V334.208ZM115.262 313.088V329.6H117.23C118.062 329.6 118.702 329.344 119.15 328.832C119.63 328.32 119.87 327.456 119.87 326.24V316.4C119.87 315.184 119.63 314.336 119.15 313.856C118.702 313.344 118.062 313.088 117.23 313.088H115.262ZM110.078 313.088H108.11C107.278 313.088 106.622 313.344 106.142 313.856C105.694 314.336 105.47 315.184 105.47 316.4V326.24C105.47 327.456 105.694 328.32 106.142 328.832C106.622 329.344 107.278 329.6 108.11 329.6H110.078V313.088ZM133.502 330.272C133.502 331.488 133.742 332.352 134.222 332.864C134.734 333.344 135.406 333.584 136.238 333.584C137.07 333.584 137.726 333.344 138.206 332.864C138.718 332.352 138.974 331.488 138.974 330.272V312.128C138.974 310.912 138.718 310.064 138.206 309.584C137.726 309.072 137.07 308.816 136.238 308.816C135.406 308.816 134.734 309.072 134.222 309.584C133.742 310.064 133.502 310.912 133.502 312.128V330.272ZM128.222 312.464C128.222 309.744 128.91 307.664 130.286 306.224C131.662 304.752 133.646 304.016 136.238 304.016C138.83 304.016 140.814 304.752 142.19 306.224C143.566 307.664 144.254 309.744 144.254 312.464V329.936C144.254 332.656 143.566 334.752 142.19 336.224C140.814 337.664 138.83 338.384 136.238 338.384C133.646 338.384 131.662 337.664 130.286 336.224C128.91 334.752 128.222 332.656 128.222 329.936V312.464ZM155.462 304.4C158.118 304.4 160.086 305.104 161.366 306.512C162.678 307.92 163.334 309.984 163.334 312.704V317.072C163.334 319.792 162.678 321.856 161.366 323.264C160.086 324.672 158.118 325.376 155.462 325.376H152.966V338H147.686V304.4H155.462ZM152.966 309.2V320.576H155.462C156.294 320.576 156.934 320.352 157.382 319.904C157.83 319.456 158.054 318.624 158.054 317.408V312.368C158.054 311.152 157.83 310.32 157.382 309.872C156.934 309.424 156.294 309.2 155.462 309.2H152.966ZM176.963 328.256L180.563 304.4H187.907V338H182.915V313.904L179.267 338H174.275L170.339 314.24V338H165.731V304.4H173.075L176.963 328.256ZM208.836 338H203.508L202.596 331.904H196.116L195.204 338H190.356L195.732 304.4H203.46L208.836 338ZM196.788 327.344H201.876L199.332 310.352L196.788 327.344Z" fill="white"/>
<path d="M20.4773 183.598V182.273H27.4403V183.598H24.7429V191H23.1747V183.598H20.4773ZM32.2087 191H30.5212L33.5937 182.273H35.5454L38.6221 191H36.9346L34.6036 184.062H34.5354L32.2087 191ZM32.2641 187.578H36.8664V188.848H32.2641V187.578ZM48.568 185.06C48.497 184.83 48.399 184.624 48.274 184.442C48.1518 184.257 48.0041 184.099 47.8308 183.969C47.6603 183.838 47.4643 183.74 47.2427 183.675C47.0211 183.607 46.7797 183.572 46.5183 183.572C46.0495 183.572 45.6319 183.69 45.2655 183.926C44.899 184.162 44.6106 184.509 44.4004 184.966C44.193 185.42 44.0893 185.974 44.0893 186.628C44.0893 187.287 44.193 187.845 44.4004 188.303C44.6078 188.76 44.8961 189.108 45.2655 189.347C45.6348 189.582 46.0637 189.7 46.5524 189.7C46.9956 189.7 47.3791 189.615 47.703 189.445C48.0297 189.274 48.2811 189.033 48.4572 188.72C48.6334 188.405 48.7214 188.036 48.7214 187.612L49.0794 187.668H46.7101V186.432H50.2512V187.48C50.2512 188.227 50.0922 188.874 49.774 189.419C49.4558 189.964 49.0183 190.385 48.4615 190.68C47.9047 190.973 47.2655 191.119 46.5439 191.119C45.7399 191.119 45.0339 190.939 44.426 190.578C43.8209 190.214 43.3478 189.699 43.0069 189.031C42.6689 188.361 42.4998 187.565 42.4998 186.645C42.4998 185.94 42.5993 185.311 42.7981 184.757C42.9998 184.203 43.2811 183.733 43.6419 183.347C44.0027 182.957 44.426 182.662 44.9118 182.46C45.3976 182.256 45.926 182.153 46.497 182.153C46.9799 182.153 47.4302 182.224 47.8478 182.366C48.2655 182.506 48.6362 182.705 48.9601 182.963C49.2868 183.222 49.5552 183.528 49.7655 183.884C49.9757 184.239 50.1135 184.631 50.1788 185.06H48.568ZM55.14 191V182.273H56.721V189.675H60.5647V191H55.14ZM66.8779 182.273V191H65.2969V182.273H66.8779ZM79.1217 182.273V191H77.7155L73.6033 185.055H73.5308V191H71.9499V182.273H73.3646L77.4726 188.222H77.5493V182.273H79.1217ZM84.2044 191V182.273H89.8805V183.598H85.7854V185.967H89.5865V187.293H85.7854V189.675H89.9146V191H84.2044ZM102.311 191H100.623L103.696 182.273H105.647L108.724 191H107.037L104.706 184.062H104.637L102.311 191ZM102.366 187.578H106.968V188.848H102.366V187.578ZM114.25 191L111.787 182.273H113.487L115.06 188.686H115.141L116.82 182.273H118.366L120.05 188.69H120.126L121.699 182.273H123.399L120.936 191H119.376L117.629 184.876H117.561L115.81 191H114.25ZM128.156 191H126.468L129.541 182.273H131.492L134.569 191H132.882L130.551 184.062H130.482L128.156 191ZM128.211 187.578H132.813V188.848H128.211V187.578ZM139.079 191V182.273H142.351C143.022 182.273 143.584 182.389 144.039 182.622C144.496 182.855 144.841 183.182 145.074 183.602C145.31 184.02 145.428 184.507 145.428 185.064C145.428 185.624 145.309 186.109 145.07 186.521C144.834 186.93 144.486 187.247 144.026 187.472C143.566 187.693 143 187.804 142.33 187.804H139.999V186.491H142.117C142.509 186.491 142.83 186.437 143.08 186.33C143.33 186.219 143.515 186.058 143.634 185.848C143.756 185.635 143.817 185.374 143.817 185.064C143.817 184.754 143.756 184.49 143.634 184.271C143.512 184.05 143.326 183.882 143.076 183.768C142.826 183.652 142.503 183.594 142.108 183.594H140.66V191H139.079ZM143.587 187.045L145.748 191H143.983L141.861 187.045H143.587ZM153.201 191H150.243V182.273H153.26C154.127 182.273 154.871 182.447 155.493 182.797C156.118 183.143 156.598 183.642 156.934 184.293C157.269 184.943 157.436 185.722 157.436 186.628C157.436 187.537 157.267 188.318 156.929 188.972C156.594 189.625 156.11 190.126 155.476 190.476C154.846 190.825 154.087 191 153.201 191ZM151.824 189.632H153.124C153.732 189.632 154.239 189.521 154.645 189.3C155.052 189.075 155.357 188.741 155.561 188.298C155.766 187.852 155.868 187.295 155.868 186.628C155.868 185.96 155.766 185.406 155.561 184.966C155.357 184.523 155.054 184.192 154.654 183.973C154.256 183.751 153.762 183.641 153.171 183.641H151.824V189.632ZM167.041 184.672C167.002 184.3 166.834 184.01 166.539 183.803C166.246 183.595 165.865 183.491 165.397 183.491C165.067 183.491 164.784 183.541 164.549 183.641C164.313 183.74 164.132 183.875 164.007 184.045C163.882 184.216 163.818 184.411 163.816 184.629C163.816 184.811 163.857 184.969 163.939 185.102C164.024 185.236 164.14 185.349 164.284 185.443C164.429 185.534 164.59 185.611 164.766 185.673C164.942 185.736 165.12 185.788 165.299 185.831L166.117 186.036C166.446 186.112 166.763 186.216 167.067 186.347C167.374 186.477 167.648 186.642 167.89 186.841C168.134 187.04 168.327 187.28 168.469 187.561C168.611 187.842 168.682 188.172 168.682 188.55C168.682 189.061 168.551 189.511 168.29 189.901C168.029 190.287 167.651 190.589 167.157 190.808C166.665 191.024 166.07 191.132 165.371 191.132C164.692 191.132 164.103 191.027 163.603 190.817C163.105 190.607 162.716 190.3 162.435 189.896C162.157 189.493 162.006 189.001 161.983 188.422H163.539C163.561 188.726 163.655 188.979 163.82 189.18C163.985 189.382 164.199 189.533 164.463 189.632C164.73 189.732 165.029 189.781 165.358 189.781C165.702 189.781 166.003 189.73 166.262 189.628C166.523 189.523 166.728 189.378 166.875 189.193C167.023 189.006 167.098 188.787 167.101 188.537C167.098 188.31 167.032 188.122 166.901 187.974C166.77 187.824 166.587 187.699 166.351 187.599C166.118 187.497 165.845 187.406 165.533 187.327L164.54 187.071C163.821 186.886 163.253 186.607 162.836 186.232C162.421 185.854 162.213 185.352 162.213 184.727C162.213 184.213 162.353 183.763 162.631 183.376C162.912 182.99 163.294 182.69 163.777 182.477C164.26 182.261 164.807 182.153 165.418 182.153C166.037 182.153 166.58 182.261 167.046 182.477C167.515 182.69 167.882 182.987 168.149 183.368C168.416 183.746 168.554 184.18 168.563 184.672H167.041ZM179.703 191V189.858L182.733 186.888C183.023 186.595 183.264 186.335 183.457 186.108C183.65 185.881 183.795 185.661 183.892 185.447C183.988 185.234 184.037 185.007 184.037 184.766C184.037 184.49 183.974 184.254 183.849 184.058C183.724 183.859 183.552 183.706 183.334 183.598C183.115 183.49 182.866 183.436 182.588 183.436C182.301 183.436 182.049 183.496 181.834 183.615C181.618 183.732 181.45 183.898 181.331 184.114C181.214 184.33 181.156 184.587 181.156 184.885H179.652C179.652 184.331 179.778 183.849 180.031 183.44C180.284 183.031 180.632 182.714 181.075 182.49C181.521 182.266 182.032 182.153 182.609 182.153C183.194 182.153 183.709 182.263 184.152 182.482C184.595 182.7 184.939 183 185.183 183.381C185.43 183.761 185.554 184.196 185.554 184.685C185.554 185.011 185.491 185.332 185.366 185.648C185.241 185.963 185.021 186.312 184.706 186.696C184.393 187.08 183.954 187.544 183.389 188.089L181.885 189.619V189.679H185.686V191H179.703ZM193.742 191.166C193.04 191.166 192.438 190.989 191.935 190.634C191.435 190.276 191.05 189.76 190.78 189.087C190.513 188.411 190.38 187.597 190.38 186.645C190.383 185.693 190.517 184.884 190.784 184.216C191.054 183.545 191.439 183.034 191.939 182.682C192.442 182.33 193.043 182.153 193.742 182.153C194.441 182.153 195.042 182.33 195.544 182.682C196.047 183.034 196.432 183.545 196.699 184.216C196.969 184.886 197.104 185.696 197.104 186.645C197.104 187.599 196.969 188.415 196.699 189.091C196.432 189.764 196.047 190.278 195.544 190.634C195.044 190.989 194.444 191.166 193.742 191.166ZM193.742 189.832C194.287 189.832 194.718 189.564 195.033 189.027C195.351 188.487 195.51 187.693 195.51 186.645C195.51 185.952 195.438 185.369 195.293 184.898C195.148 184.426 194.944 184.071 194.679 183.832C194.415 183.591 194.103 183.47 193.742 183.47C193.199 183.47 192.77 183.74 192.455 184.28C192.14 184.817 191.981 185.605 191.978 186.645C191.975 187.341 192.044 187.926 192.186 188.401C192.331 188.875 192.536 189.233 192.8 189.474C193.064 189.713 193.378 189.832 193.742 189.832ZM201.88 191V189.858L204.91 186.888C205.2 186.595 205.441 186.335 205.634 186.108C205.827 185.881 205.972 185.661 206.069 185.447C206.165 185.234 206.214 185.007 206.214 184.766C206.214 184.49 206.151 184.254 206.026 184.058C205.901 183.859 205.729 183.706 205.511 183.598C205.292 183.49 205.043 183.436 204.765 183.436C204.478 183.436 204.227 183.496 204.011 183.615C203.795 183.732 203.627 183.898 203.508 184.114C203.391 184.33 203.333 184.587 203.333 184.885H201.829C201.829 184.331 201.955 183.849 202.208 183.44C202.461 183.031 202.809 182.714 203.252 182.49C203.698 182.266 204.209 182.153 204.786 182.153C205.371 182.153 205.886 182.263 206.329 182.482C206.772 182.7 207.116 183 207.36 183.381C207.607 183.761 207.731 184.196 207.731 184.685C207.731 185.011 207.668 185.332 207.543 185.648C207.418 185.963 207.198 186.312 206.883 186.696C206.57 187.08 206.131 187.544 205.566 188.089L204.062 189.619V189.679H207.863V191H201.88ZM215.727 191.119C215.159 191.119 214.65 191.013 214.202 190.8C213.753 190.584 213.396 190.288 213.132 189.913C212.871 189.538 212.731 189.109 212.714 188.626H214.248C214.277 188.984 214.432 189.277 214.713 189.504C214.994 189.729 215.332 189.841 215.727 189.841C216.037 189.841 216.312 189.77 216.554 189.628C216.795 189.486 216.986 189.288 217.125 189.036C217.264 188.783 217.332 188.494 217.329 188.17C217.332 187.841 217.263 187.548 217.121 187.293C216.979 187.037 216.784 186.837 216.537 186.692C216.29 186.544 216.006 186.47 215.685 186.47C215.423 186.467 215.166 186.516 214.913 186.615C214.66 186.714 214.46 186.845 214.312 187.007L212.885 186.773L213.341 182.273H218.403V183.594H214.649L214.398 185.908H214.449C214.611 185.717 214.839 185.56 215.135 185.435C215.43 185.307 215.754 185.243 216.106 185.243C216.635 185.243 217.106 185.368 217.521 185.618C217.936 185.865 218.263 186.206 218.501 186.641C218.74 187.075 218.859 187.572 218.859 188.132C218.859 188.709 218.726 189.223 218.459 189.675C218.194 190.124 217.827 190.477 217.355 190.736C216.886 190.991 216.344 191.119 215.727 191.119Z" fill="white"/>
<g clip-path="url(#clip1_30843_105435)">
<path d="M136.62 71.6883L132.858 67.6383C130.395 64.988 129.246 61.3031 129.741 57.6526L130.499 52.0734C131.366 45.6894 127.214 39.7391 121.115 38.6257L115.784 37.652C112.296 37.0151 109.285 34.7377 107.626 31.4806L105.089 26.5031C102.186 20.8074 95.4682 18.5351 89.9044 21.3663L85.0419 23.8409C81.8602 25.46 78.1393 25.46 74.9576 23.8409L70.095 21.3663C64.5313 18.5343 57.813 20.8074 54.9107 26.5031L52.3736 31.4806C50.7142 34.7377 47.703 37.0151 44.2153 37.652L38.8847 38.6257C32.7853 39.74 28.6333 45.6894 29.4999 52.0734L30.2576 57.6526C30.7539 61.3031 29.6036 64.988 27.141 67.6383L23.3782 71.6883C19.0719 76.322 19.0719 83.6771 23.3782 88.3109L27.141 92.3609C29.6036 95.0111 30.753 98.6951 30.2576 102.347L29.4999 107.926C28.6324 114.31 32.7844 120.26 38.8847 121.373L44.2153 122.347C47.703 122.984 50.7142 125.261 52.3736 128.519L54.9107 133.496C57.813 139.192 64.5313 141.464 70.095 138.633L74.9576 136.158C78.1393 134.539 81.8602 134.539 85.0419 136.158L89.9044 138.633C95.4682 141.465 102.186 139.192 105.089 133.496L107.626 128.519C109.285 125.261 112.296 122.984 115.784 122.347L121.115 121.373C127.214 120.259 131.366 114.31 130.499 107.926L129.741 102.347C129.245 98.696 130.395 95.0111 132.858 92.3609L136.62 88.3109C140.926 83.6771 140.926 76.322 136.62 71.6883ZM38.9927 115.286C36.7393 115.286 34.9127 113.384 34.9127 111.038C34.9127 108.692 36.7393 106.79 38.9927 106.79C41.2462 106.79 43.0727 108.692 43.0727 111.038C43.0727 113.384 41.2462 115.286 38.9927 115.286Z" fill="#9F9F9F"/>
<path d="M61.403 82.2184C61.403 81.8335 61.2659 81.5335 60.9908 81.3184C60.7165 81.1032 60.233 80.8804 59.543 80.6507C58.8513 80.4201 58.2873 80.1981 57.8485 79.983C56.4205 79.2878 55.7073 78.3329 55.7073 77.1175C55.7073 76.5124 55.8848 75.9784 56.2405 75.5164C56.5962 75.0544 57.0993 74.6944 57.7499 74.4364C58.4005 74.1792 59.1316 74.0498 59.9442 74.0498C60.7362 74.0498 61.4459 74.1904 62.0733 74.4698C62.7008 74.7492 63.1893 75.1487 63.5365 75.6664C63.8845 76.1841 64.0585 76.7747 64.0585 77.4398H61.4108C61.4108 76.9949 61.2736 76.6495 60.9993 76.4044C60.7242 76.1592 60.3522 76.0367 59.8833 76.0367C59.4085 76.0367 59.0348 76.1404 58.7596 76.3478C58.4845 76.5552 58.3473 76.8192 58.3473 77.139C58.3473 77.4192 58.499 77.673 58.8008 77.9001C59.1042 78.1281 59.6356 78.3629 60.3968 78.6055C61.1588 78.8481 61.7836 79.1095 62.2722 79.3898C63.4628 80.0695 64.0576 81.0072 64.0576 82.2021C64.0576 83.1569 63.6942 83.9069 62.9682 84.4521C62.2413 84.9981 61.2453 85.2698 59.9802 85.2698C59.0879 85.2698 58.2796 85.1112 57.5562 84.7932C56.8319 84.4761 56.2876 84.0407 55.9225 83.4887C55.5565 82.9358 55.373 82.2998 55.373 81.579H58.0353C58.0353 82.1644 58.1888 82.5964 58.493 82.8732C58.7982 83.1509 59.2945 83.2898 59.9793 83.2898C60.4182 83.2898 60.7645 83.1964 61.0199 83.0087C61.2745 82.8201 61.4013 82.5569 61.4013 82.2167L61.403 82.2184Z" fill="white"/>
<path d="M68.2493 85.121H65.6016V74.2002H68.2493V85.121Z" fill="white"/>
<path d="M72.7483 83.0955H77.3709V85.1201H70.0938V74.1992H72.7492L72.7483 83.0955Z" fill="white"/>
<path d="M81.2064 82.1502L83.4007 74.2002H86.3656L82.6593 85.121H79.7544L76.0781 74.2002H79.0207L81.2064 82.1502Z" fill="white"/>
<path d="M93.9974 80.4846H89.8214V83.0955H94.7534V85.1201H87.166V74.1992H94.768V76.2324H89.8214V78.5355H93.9974V80.4846Z" fill="white"/>
<path d="M99.9288 81.2579H98.4914V85.121H95.8359V74.2002H100.171C101.477 74.2002 102.499 74.4873 103.234 75.0616C103.97 75.6359 104.339 76.4476 104.339 77.4968C104.339 78.2562 104.184 78.8853 103.873 79.385C103.564 79.8848 103.078 80.2893 102.417 80.5988L104.718 85.0079V85.121H101.874L99.9288 81.2579ZM98.4914 79.2325H100.171C100.675 79.2325 101.054 79.1013 101.309 78.8382C101.564 78.575 101.691 78.2082 101.691 77.7368C101.691 77.2653 101.563 76.8959 101.305 76.6276C101.048 76.3593 100.67 76.2256 100.171 76.2256H98.4914V79.2325Z" fill="white"/>
<path d="M49.7763 54.2718L48.6843 55.7392L52.6614 58.7032L51.7837 59.8817L47.8057 56.9177L46.7326 58.3577L45.8223 57.6797L48.8668 53.5938L49.7763 54.2718Z" fill="white"/>
<path d="M55.3312 54.0517L53.9127 55.4814L54.4724 56.5332L53.3667 57.6466L50.6152 51.7666L51.5898 50.7852L57.5015 53.4817L56.3898 54.6012L55.3312 54.0517ZM53.3547 54.4314L54.2778 53.5014L52.3141 52.4789L53.3547 54.4314Z" fill="white"/>
<path d="M61.291 49.8335C61.2559 50.1695 61.1067 50.5269 60.8436 50.9066C60.5804 51.2863 60.2393 51.6283 59.8193 51.9326C59.1722 52.4006 58.513 52.5763 57.8393 52.4597C57.1664 52.3449 56.5613 51.9429 56.023 51.258L55.711 50.8329C55.3587 50.3469 55.1376 49.8592 55.0476 49.3732C54.9576 48.8855 55.0004 48.4286 55.1787 48.0009C55.357 47.5732 55.657 47.208 56.077 46.9046C56.6933 46.4589 57.2727 46.2532 57.8162 46.2892C58.3596 46.3252 58.8627 46.6012 59.323 47.1197L58.177 47.9486C57.9362 47.7017 57.7056 47.5697 57.4844 47.5492C57.2641 47.5312 57.0293 47.61 56.7807 47.79C56.4816 48.006 56.3427 48.3 56.3642 48.6695C56.3839 49.0423 56.563 49.4632 56.9016 49.9355L57.1176 50.2346C57.4742 50.7266 57.8264 51.0369 58.1736 51.162C58.5207 51.288 58.8756 51.2195 59.2373 50.958C59.5467 50.7343 59.7284 50.4986 59.7799 50.2509L59.2253 49.4837L58.3982 50.082L57.8067 49.266L59.8253 47.8055L61.291 49.8335Z" fill="white"/>
<path d="M63.057 48.4815L65.325 47.2978L65.8479 48.2998L62.2779 50.1641L59.457 44.7598L60.7607 44.0801L63.057 48.4815Z" fill="white"/>
<path d="M67.7694 47.5756L66.4091 48.1199L64.1445 42.4593L65.5057 41.915L67.7694 47.5756Z" fill="white"/>
<path d="M73.4409 45.8899L72.03 46.2696L68.958 43.1702L69.9437 46.831L68.5252 47.2133L66.9395 41.3282L68.358 40.9459L71.4266 44.0479L70.4409 40.3862L71.8552 40.0039L73.4409 45.8899Z" fill="white"/>
<path d="M77.62 42.7947L75.3246 43.0579L75.49 44.5047L78.202 44.1936L78.3306 45.3165L74.158 45.7956L73.4629 39.7416L77.6432 39.2607L77.7726 40.3879L75.052 40.6999L75.1986 41.9762L77.4949 41.7122L77.62 42.7947Z" fill="white"/>
<path d="M84.3133 44.4595L82.3085 44.2726L81.8516 45.3732L80.2891 45.2275L83.0825 39.3672L84.4582 39.494L86.1331 45.7735L84.5611 45.626L84.3133 44.4595ZM82.7645 43.1755L84.0691 43.298L83.6113 41.132L82.7645 43.1755Z" fill="white"/>
<path d="M91.3065 44.8289L93.0088 41.3352L94.412 41.7277L91.5243 47.2494L90.0568 46.8389L90.2068 43.2732L88.5011 46.4026L87.0371 45.9937L87.4297 39.7734L88.8371 40.1669L88.4805 44.0369L90.3165 40.5809L91.5183 40.9177L91.3074 44.828L91.3065 44.8289Z" fill="white"/>
<path d="M96.4766 48.2284L94.6637 47.3515L93.852 48.2224L92.4395 47.5384L97.1083 43.0264L98.3512 43.6281L97.7212 50.0969L96.3017 49.4087L96.4766 48.2284ZM95.4755 46.4824L96.6549 47.0541L96.984 44.8649L95.4755 46.4824Z" fill="white"/>
<path d="M100.977 49.7725L100.324 49.3183L99.0919 51.0874L97.8867 50.2483L101.369 45.2451L103.338 46.6174C103.931 47.0297 104.303 47.4848 104.454 47.9811C104.606 48.4765 104.514 48.9643 104.18 49.4451C103.938 49.7931 103.666 50.0331 103.366 50.1634C103.066 50.2937 102.717 50.3254 102.318 50.2585L101.956 53.0048L101.92 53.0571L100.627 52.1571L100.976 49.7734L100.977 49.7725ZM100.971 48.3908L101.733 48.9223C101.962 49.0817 102.177 49.1408 102.376 49.1005C102.576 49.0611 102.751 48.9334 102.901 48.7174C103.051 48.5014 103.11 48.2914 103.079 48.0874C103.048 47.8834 102.919 47.7034 102.693 47.5448L101.93 47.0125L100.971 48.3908Z" fill="white"/>
<path d="M102.262 53.3621L106.471 48.9521L107.891 50.3073C108.281 50.6801 108.546 51.1027 108.689 51.5759C108.831 52.049 108.836 52.529 108.704 53.0193C108.571 53.5079 108.314 53.9536 107.935 54.3556L107.741 54.5579C107.356 54.9616 106.925 55.2419 106.45 55.3987C105.972 55.5556 105.494 55.577 105.011 55.4621C104.53 55.3464 104.096 55.1081 103.712 54.7456L102.262 53.3621ZM106.751 50.7873L104.105 53.5584L104.475 53.9116C104.779 54.2021 105.117 54.317 105.488 54.2561C105.859 54.1953 106.249 53.951 106.657 53.5224L106.839 53.3313C107.247 52.9061 107.47 52.5067 107.513 52.1347C107.556 51.7627 107.421 51.4267 107.107 51.1284L106.751 50.7873Z" fill="white"/>
<path d="M109.256 58.5549C109.425 58.4237 109.512 58.26 109.514 58.0672C109.516 57.8735 109.451 57.5855 109.318 57.2049C109.185 56.8243 109.093 56.5003 109.04 56.2346C108.864 55.3723 109.044 54.7337 109.58 54.3197C109.848 54.114 110.144 54.0086 110.468 54.0069C110.793 54.0043 111.122 54.1012 111.456 54.2992C111.79 54.4955 112.094 54.7723 112.369 55.1289C112.636 55.4743 112.815 55.8335 112.904 56.2046C112.993 56.5749 112.982 56.9255 112.871 57.2537C112.76 57.5829 112.558 57.8615 112.264 58.0877L111.368 56.928C111.564 56.7772 111.67 56.598 111.686 56.3949C111.701 56.1909 111.629 55.9852 111.47 55.7803C111.309 55.5737 111.136 55.4435 110.952 55.3955C110.767 55.3457 110.605 55.3749 110.463 55.4846C110.339 55.5806 110.279 55.734 110.281 55.9432C110.282 56.154 110.359 56.4669 110.51 56.8826C110.66 57.2992 110.756 57.6626 110.798 57.972C110.901 58.7255 110.689 59.3066 110.161 59.7137C109.739 60.0403 109.285 60.1363 108.798 60.0043C108.311 59.8723 107.853 59.5295 107.425 58.9757C107.123 58.584 106.92 58.1769 106.815 57.7509C106.711 57.3257 106.718 56.9383 106.838 56.5895C106.958 56.2415 107.178 55.9449 107.496 55.6989L108.397 56.8637C108.139 57.0643 108 57.2777 107.981 57.5066C107.962 57.7346 108.068 57.9986 108.3 58.2995C108.448 58.4923 108.607 58.6115 108.776 58.6595C108.945 58.7066 109.106 58.6732 109.256 58.5566V58.5549Z" fill="white"/>
<path d="M73.9663 120.329L69.7988 119.477L69.9831 118.575L72.3163 116.95C72.8991 116.507 73.224 116.128 73.2891 115.811C73.3414 115.553 73.3251 115.347 73.2403 115.19C73.1545 115.032 73.0063 114.932 72.7937 114.889C72.5828 114.846 72.3934 114.9 72.2254 115.052C72.0583 115.204 71.9468 115.415 71.8911 115.682L70.5051 115.398C70.5805 115.033 70.7408 114.712 70.9868 114.44C71.2337 114.167 71.538 113.976 71.8988 113.868C72.2597 113.759 72.6411 113.747 73.0431 113.828C73.6885 113.96 74.1557 114.211 74.4437 114.581C74.7308 114.95 74.8183 115.414 74.7043 115.971C74.6554 116.207 74.5654 116.426 74.4325 116.631C74.2997 116.837 74.1154 117.042 73.8805 117.25C73.6465 117.457 73.2814 117.725 72.7885 118.049L71.8345 118.782L74.1848 119.263L73.9663 120.329Z" fill="white"/>
<path d="M79.7816 118.29C79.7318 119.113 79.5081 119.735 79.113 120.158C78.7161 120.581 78.1821 120.772 77.511 120.732C76.8338 120.689 76.3238 120.433 75.981 119.963C75.6381 119.491 75.4916 118.848 75.5404 118.031L75.609 116.92C75.6587 116.098 75.8816 115.475 76.2776 115.051C76.6744 114.63 77.2093 114.439 77.8838 114.479C78.5576 114.52 79.0658 114.777 79.4096 115.248C79.7516 115.718 79.899 116.364 79.8493 117.182L79.7816 118.29ZM78.4521 116.913C78.4787 116.476 78.441 116.145 78.3407 115.922C78.2396 115.699 78.0656 115.581 77.817 115.567C77.5753 115.55 77.3927 115.641 77.2701 115.834C77.1476 116.027 77.0704 116.327 77.037 116.735L76.9427 118.289C76.9153 118.742 76.9521 119.078 77.0541 119.296C77.1544 119.514 77.3293 119.629 77.577 119.644C77.8161 119.659 77.9996 119.567 78.1264 119.37C78.2533 119.173 78.3313 118.855 78.3613 118.418L78.4521 116.913Z" fill="white"/>
<path d="M85.3291 120.422L81.0889 120.761L81.016 119.844L82.8048 117.635C83.2428 117.048 83.4486 116.593 83.4228 116.271C83.4023 116.009 83.3286 115.814 83.2034 115.687C83.0783 115.56 82.9077 115.505 82.6908 115.523C82.4766 115.54 82.3103 115.645 82.1903 115.838C82.0711 116.031 82.0231 116.263 82.0446 116.536L80.6337 116.649C80.6046 116.275 80.6697 115.924 80.8308 115.594C80.992 115.263 81.2311 114.996 81.5474 114.791C81.8646 114.587 82.2271 114.467 82.6369 114.435C83.2934 114.382 83.8111 114.492 84.19 114.769C84.568 115.043 84.7806 115.465 84.826 116.033C84.8449 116.272 84.8191 116.508 84.7488 116.742C84.6768 116.975 84.5577 117.225 84.3906 117.489C84.2226 117.754 83.9457 118.11 83.5617 118.56L82.8503 119.529L85.2408 119.338L85.3283 120.423L85.3291 120.422Z" fill="white"/>
<mask id="mask0_30843_105435" style="mask-type:luminance" maskUnits="userSpaceOnUse" x="27" y="63" width="41" height="57">
<path d="M58.9941 119.013L67.1395 115.583L64.5672 108.724L61.5664 77.0466L47.9112 67.3574L44.2152 68.7503L41.3224 63.7686L27.2695 87.7171L58.9941 119.013Z" fill="white"/>
</mask>
<g mask="url(#mask0_30843_105435)">
<path fill-rule="evenodd" clip-rule="evenodd" d="M95.6492 45.7579C94.9969 46.9322 92.3749 47.2176 90.5955 46.7822C91.4895 45.9756 93.4078 45.2076 95.0561 45.6122L95.6492 45.7579L95.1281 45.4416C93.6795 44.5647 92.8798 42.6722 92.8301 41.4756C94.3935 42.4227 96.0323 44.473 95.6492 45.7579ZM80.038 116.765C80.5969 116.765 81.0486 117.214 81.0486 117.768C81.0486 118.323 80.596 118.77 80.0372 118.771C79.4783 118.772 79.0266 118.323 79.0266 117.769C79.0266 117.214 79.4792 116.765 80.038 116.765ZM93.4026 44.7173L92.9423 44.3196C91.6626 43.2122 89.6029 43.0262 88.4372 43.3382C89.8181 44.533 92.2815 45.4664 93.4018 44.7164L93.4026 44.7173ZM66.8072 44.7284C67.9275 45.4776 70.3918 44.5416 71.7735 43.3459C70.6078 43.0347 68.5481 43.2216 67.2675 44.3307L66.8072 44.7284ZM77.4375 117.782C77.1272 119.086 74.6783 120.061 72.8458 120.115C73.4886 119.1 75.1292 117.85 76.8272 117.799L77.4375 117.782C77.4589 116.441 75.3255 114.904 73.5623 114.408C73.9352 115.547 75.2158 117.157 76.8503 117.617L77.4375 117.782ZM73.6258 117.278C73.7835 115.947 71.8172 114.203 70.1132 113.535C70.3678 114.705 71.4786 116.434 73.0583 117.054L73.6258 117.278L73.0163 117.234C71.3226 117.115 69.5638 118.195 68.8206 119.14C70.6489 119.27 73.1843 118.544 73.6258 117.278ZM69.8843 116.397C69.3161 117.612 66.7206 118.081 64.9146 117.768C65.7495 116.902 67.6086 116.004 69.2818 116.291L69.8835 116.396C70.1749 115.087 68.3955 113.155 66.7695 112.32C66.9032 113.511 67.8341 115.342 69.3409 116.116L69.8835 116.396L69.8843 116.397ZM66.2526 115.145C66.6752 113.872 65.1015 111.772 63.5681 110.779C63.5809 111.977 64.3198 113.892 65.7418 114.814L66.2526 115.145L65.6655 114.982C64.0301 114.526 62.0895 115.236 61.1706 116.014C62.9346 116.505 65.5643 116.299 66.2526 115.145ZM62.7649 113.536C61.9626 114.616 59.3261 114.558 57.6203 113.895C58.6129 113.212 60.6161 112.701 62.1975 113.315L62.7658 113.537C63.3161 112.313 61.9626 110.067 60.5381 108.925C60.4292 110.118 60.9701 112.097 62.2909 113.157L62.7658 113.537L62.7649 113.536ZM59.4598 111.588C60.1318 110.425 59.0132 108.056 57.7121 106.776C57.4823 107.952 57.8201 109.977 59.0261 111.161L59.4598 111.588L58.9163 111.312C57.4069 110.541 55.3618 110.849 54.3049 111.43C55.9343 112.262 58.5521 112.582 59.4598 111.588ZM56.3689 109.319C55.3652 110.218 52.7938 109.636 51.2569 108.647C52.3678 108.175 54.4326 108.072 55.8563 108.989L56.3689 109.319L55.9806 108.852C54.9006 107.551 54.7703 105.504 55.1183 104.357C56.2832 105.76 57.1549 108.229 56.3689 109.319ZM53.5249 106.754C52.4355 107.548 49.9361 106.713 48.5072 105.574C49.6592 105.215 51.7249 105.319 53.0483 106.374L53.5249 106.754C54.4172 105.747 53.8009 103.203 52.7843 101.69C52.3223 102.797 52.2443 104.848 53.1863 106.249L53.5249 106.754ZM50.9552 103.917C49.7912 104.596 47.3895 103.516 46.0841 102.241C47.2669 101.999 49.3112 102.31 50.5206 103.492L50.9552 103.917C51.9461 103.004 51.5903 100.412 50.7323 98.8056C50.1598 99.8607 49.8743 101.893 50.6689 103.381L50.9543 103.917H50.9552ZM48.6872 100.836C47.4598 101.398 45.1806 100.082 44.0115 98.683C45.2123 98.5604 47.2146 99.0739 48.2981 100.371L48.6872 100.836L48.4575 100.276C47.8181 98.7147 48.3092 96.7227 48.9846 95.7284C49.6746 97.4127 49.7646 100.028 48.6872 100.836ZM46.7432 97.5456L46.5718 96.9636C46.0943 95.3479 46.7835 93.4124 47.5575 92.4919C48.0735 94.237 47.8978 96.8487 46.7432 97.5456L46.4029 97.0416C45.4566 95.6436 43.5169 94.9339 42.3101 94.9347C43.3309 96.4433 45.4661 97.9802 46.7432 97.5456ZM45.1438 94.075C43.8281 94.381 41.8609 92.6393 40.9978 91.0356C42.1995 91.1539 44.0569 92.0547 44.8566 93.541L45.1438 94.075C46.3626 93.4964 46.8023 90.9164 46.4672 89.1293C45.6041 89.9676 44.7212 91.8233 45.0323 93.4802L45.1438 94.075ZM43.9043 90.4647L43.8529 89.8604C43.7115 88.1822 44.7778 86.4224 45.7223 85.6742C45.8749 87.487 45.1755 90.0113 43.9043 90.4647L43.6721 89.9033C43.0275 88.345 41.2721 87.2633 40.0883 87.0259C40.7835 88.7076 42.5646 90.637 43.9043 90.4647ZM43.0378 86.7473L43.0481 86.1413C43.0772 84.4562 44.3175 82.813 45.3323 82.1624C45.3006 83.9804 44.3483 86.4233 43.0378 86.7473L42.8638 86.1653C42.3812 84.5504 40.7432 83.2982 39.5903 82.9424C40.1115 84.6859 41.6869 86.785 43.0378 86.7473ZM42.5535 82.9613C41.2061 82.8644 39.8518 80.6196 39.5098 78.8324C40.6206 79.3013 42.1223 80.7104 42.4395 82.3664L42.5535 82.9613C43.8906 82.7702 45.0855 80.4353 45.3015 78.6302C44.2258 79.1753 42.8261 80.6856 42.6255 82.3587L42.5535 82.9613ZM42.4558 79.147C41.1246 78.9156 40.0052 76.5464 39.8475 74.7353C40.9043 75.3122 42.2561 76.8636 42.4026 78.5436L42.4558 79.147C43.8049 79.0896 45.2312 76.8867 45.6289 75.1116C44.5035 75.5462 42.9572 76.9099 42.5878 78.5556L42.4558 79.147ZM42.7446 75.3422C41.4452 74.9779 40.5709 72.5102 40.5983 70.6913C41.5918 71.3719 42.7781 73.0502 42.7541 74.7353L42.7455 75.3422C44.0938 75.4202 45.7361 73.3699 46.3129 71.6436C45.1489 71.9633 43.4723 73.1667 42.9375 74.7662L42.7446 75.3422ZM43.4192 71.5836L43.6686 71.0307C44.3621 69.4922 46.1526 68.4636 47.3423 68.2604C46.5932 69.9207 44.7529 71.7962 43.4192 71.5836L43.4886 70.9827C43.6841 69.3087 42.6743 67.519 41.7538 66.7433C41.5438 68.5493 42.1618 71.0924 43.4183 71.5844L43.4192 71.5836ZM44.4718 67.9133C43.2718 67.2987 42.9143 64.7059 43.3078 62.929C44.1435 63.7939 44.9672 65.6753 44.6029 67.321L44.4718 67.9133C45.7763 68.257 47.7992 66.5762 48.7129 64.999C47.5086 65.0813 45.6229 65.9264 44.7769 67.3879L44.4726 67.9142L44.4718 67.9133ZM45.8912 64.3647C44.7598 63.6327 44.6672 61.0176 45.2389 59.2896C45.9829 60.2324 46.6112 62.1876 46.0815 63.7887L45.8912 64.3647C47.1546 64.8379 49.3369 63.3662 50.4066 61.8876C49.1998 61.8499 47.2386 62.5022 46.2478 63.871L45.8912 64.3647ZM47.6638 60.9764C48.8723 61.5739 51.1926 60.3276 52.4063 58.9639C51.2098 58.8044 49.1921 59.2579 48.0675 60.5222L47.6629 60.9764L47.9106 60.4219C48.5998 58.8816 48.1729 56.8742 47.5283 55.861C46.7852 57.5239 46.6112 60.1356 47.6629 60.9764H47.6638ZM49.7698 57.7827C48.8098 56.8407 49.2478 54.2599 50.1563 52.6793C50.6946 53.7516 50.9158 55.7916 50.0732 57.2547L49.7706 57.7819L50.2189 57.3704C51.4652 56.2253 53.5181 55.9759 54.6923 56.2527C53.3466 57.4887 50.9123 58.4976 49.7698 57.7827ZM52.1903 54.8144L52.6781 54.4484C54.0349 53.4336 56.1023 53.3916 57.2423 53.7842C55.7783 54.8804 53.2541 55.639 52.1903 54.8144L52.5452 54.3199C53.5309 52.9476 53.5189 50.8956 53.0921 49.7753C52.0283 51.2573 51.3298 53.7816 52.1903 54.8144ZM54.8998 52.1033C54.1489 50.9899 55.0995 48.5479 56.3081 47.1799C56.6183 48.337 56.4229 50.3804 55.3026 51.6473L54.8998 52.1033C55.8743 53.0307 58.4638 52.5276 60.0306 51.5847C58.9361 51.079 56.8746 50.9153 55.4218 51.7896L54.8989 52.1042L54.8998 52.1033ZM57.8706 49.6759C57.2363 48.493 58.4295 46.1582 59.7709 44.9187C59.9629 46.1016 59.5601 48.1142 58.3172 49.2636L57.8706 49.6767L58.4218 49.4162C59.9561 48.691 61.9892 49.0596 63.0272 49.6724C61.3721 50.4542 58.7458 50.6967 57.8706 49.6767V49.6759ZM61.0712 47.5579L61.6463 47.3539C63.2458 46.7864 65.2318 47.3556 66.2021 48.0687C64.4758 48.6816 61.8383 48.6602 61.0712 47.5579L61.5572 47.191C62.9106 46.1719 63.5149 44.209 63.4446 43.0133C61.9841 44.1139 60.5603 46.3176 61.0712 47.5579ZM64.4706 45.7707C64.0883 44.4859 65.7281 42.4347 67.2932 41.4867C67.2418 42.6824 66.4412 44.5759 64.9918 45.4544L64.4706 45.7707L65.0638 45.625C66.7129 45.2187 68.6303 45.9859 69.5235 46.7916C67.7432 47.2287 65.1221 46.9433 64.4706 45.7707ZM82.6206 117.779C82.93 119.082 85.3781 120.056 87.2106 120.109C86.5686 119.094 84.9289 117.845 83.2309 117.796L82.6206 117.779C82.6 116.439 84.7352 114.899 86.4983 114.402C86.1255 115.541 84.8423 117.152 83.2078 117.614L82.6206 117.779ZM86.4332 117.273C86.2763 115.942 88.2443 114.197 89.9492 113.526C89.6938 114.697 88.5803 116.427 87.0015 117.048L86.4341 117.273L87.0435 117.228C88.7372 117.107 90.4961 118.186 91.2375 119.13C89.4092 119.262 86.8746 118.538 86.4341 117.273H86.4332ZM90.1746 116.388L90.7172 116.108C92.2258 115.332 93.1566 113.5 93.2929 112.309C91.6652 113.146 89.8849 115.079 90.1755 116.387L90.7772 116.282C92.4503 115.993 94.3095 116.89 95.1435 117.754C93.3375 118.068 90.7421 117.603 90.1755 116.387L90.1746 116.388ZM93.8081 115.134C93.3863 113.861 94.9618 111.76 96.4969 110.765C96.4832 111.964 95.7418 113.879 94.3198 114.802L93.8081 115.134L94.3969 114.97C96.0323 114.514 97.9729 115.221 98.8909 115.999C97.1252 116.491 94.4955 116.287 93.8081 115.134ZM97.2966 113.523C98.0981 114.602 100.735 114.542 102.44 113.877C101.449 113.194 99.4455 112.685 97.8649 113.301L97.2966 113.523C96.7472 112.299 98.1015 110.052 99.5278 108.909C99.6349 110.102 99.0923 112.082 97.7715 113.142L97.2966 113.523ZM100.603 111.572C99.9332 110.41 101.053 108.039 102.355 106.759C102.584 107.935 102.245 109.96 101.038 111.145L100.603 111.572L101.148 111.295C102.658 110.523 104.702 110.83 105.759 111.41C104.129 112.242 101.51 112.565 100.603 111.572ZM103.696 109.3C104.699 110.198 107.271 109.615 108.809 108.624C107.699 108.153 105.634 108.052 104.209 108.97L103.696 109.3L104.085 108.833C105.165 107.531 105.298 105.484 104.951 104.338C103.785 105.741 102.911 108.211 103.696 109.3ZM106.543 106.732L106.882 106.228C107.825 104.825 107.749 102.775 107.287 101.668C106.27 103.181 105.651 105.725 106.543 106.732L107.019 106.352C108.343 105.296 110.408 105.19 111.561 105.547C110.132 106.687 107.632 107.524 106.543 106.732ZM109.115 103.893C110.279 104.572 112.681 103.489 113.989 102.214C112.806 101.973 110.761 102.285 109.551 103.468L109.115 103.893C108.126 102.981 108.483 100.389 109.342 98.7816C109.914 99.8359 110.198 101.868 109.402 103.357L109.115 103.893ZM111.385 100.81C112.612 101.37 114.893 100.054 116.064 98.653C114.863 98.5313 112.861 99.0464 111.776 100.344L111.385 100.81L111.617 100.25C112.258 98.6882 111.769 96.6953 111.093 95.7019C110.401 97.387 110.308 100.002 111.385 100.81ZM113.332 97.5182C114.61 97.9519 116.746 96.4142 117.769 94.9039C116.561 94.9039 114.621 95.6144 113.673 97.0142L113.332 97.5182C112.178 96.8222 112.005 94.2104 112.522 92.4644C113.295 93.385 113.983 95.3196 113.504 96.9353L113.332 97.5182ZM114.934 94.0467C116.25 94.3519 118.219 92.6084 119.083 91.0039C117.882 91.123 116.023 92.0256 115.222 93.5127L114.934 94.0467C113.716 93.4699 113.278 90.8899 113.616 89.1019C114.479 89.9393 115.36 91.795 115.047 93.4519L114.934 94.0467ZM116.177 90.4356C117.517 90.6062 119.299 88.675 119.995 86.9933C118.812 87.2316 117.055 88.315 116.409 89.8733L116.177 90.4347C114.906 89.9822 114.208 87.4579 114.363 85.645C115.306 86.3924 116.371 88.1513 116.228 89.8296L116.177 90.4347V90.4356ZM117.047 86.7164C118.397 86.7533 119.975 84.6542 120.497 82.9099C119.343 83.2664 117.705 84.5196 117.221 86.1353L117.047 86.7164C115.736 86.3933 114.787 83.9522 114.756 82.1342C115.771 82.783 117.009 84.4262 117.037 86.1104L117.047 86.7164ZM117.535 82.9304C118.882 82.8327 120.238 80.5862 120.582 78.7999C119.471 79.2696 117.967 80.6796 117.649 82.3356L117.535 82.9304C116.197 82.7402 115.004 80.4062 114.79 78.601C115.865 79.1453 117.264 80.6547 117.463 82.3279L117.535 82.9304ZM117.636 79.1162L117.503 78.5247C117.135 76.8799 115.59 75.517 114.465 75.0833C114.862 76.8584 116.286 79.0604 117.636 79.1162L117.689 78.5127C117.837 76.8327 119.19 75.2804 120.247 74.7027C120.088 76.5139 118.965 78.8847 117.636 79.1162ZM117.349 75.3113C118.65 74.9462 119.526 72.4776 119.501 70.6587C118.507 71.3393 117.319 73.0202 117.342 74.7044L117.349 75.3113C116.001 75.3902 114.361 73.3416 113.786 71.6162C114.95 71.935 116.626 73.1367 117.158 74.7362L117.349 75.3113ZM116.677 71.5536C117.934 71.0607 118.555 68.5176 118.346 66.7116C117.426 67.4882 116.414 69.2787 116.608 70.9527L116.677 71.5536C115.345 71.7679 113.504 69.8933 112.756 68.2339C113.947 68.4362 115.736 69.463 116.428 71.0007L116.677 71.5536ZM115.629 67.8842C116.829 67.2687 117.189 64.6759 116.797 62.899C115.961 63.7647 115.135 65.647 115.499 67.2919L115.629 67.8842C114.324 68.2287 112.303 66.5487 111.391 64.9724C112.595 65.053 114.48 65.8973 115.325 67.3579L115.629 67.8842ZM114.212 64.3373L113.857 63.8444C112.867 62.4764 110.906 61.825 109.699 61.8644C110.767 63.3422 112.949 64.8113 114.212 64.3373L114.023 63.7622C113.495 62.161 114.125 60.2059 114.87 59.2622C115.44 60.9902 115.344 63.6053 114.212 64.3373ZM112.443 60.9499C111.234 61.5482 108.914 60.3036 107.702 58.9407C108.899 58.7804 110.916 59.2322 112.039 60.4956L112.443 60.9499L112.195 60.3962C111.507 58.8559 111.936 56.8484 112.581 55.8353C113.323 57.4973 113.495 60.1082 112.443 60.9499ZM110.339 57.7579C111.301 56.815 110.865 54.2342 109.957 52.6553C109.418 53.7284 109.196 55.7684 110.037 57.2307L110.339 57.7579L109.891 57.3464C108.646 56.2022 106.593 55.9544 105.418 56.2322C106.763 57.4673 109.196 58.4727 110.339 57.7579ZM107.921 54.7922L107.434 54.427C106.078 53.4139 104.011 53.3727 102.87 53.7662C104.333 54.8607 106.857 55.6176 107.921 54.7922L107.567 54.2984C106.582 52.927 106.596 50.875 107.023 49.7539C108.086 51.235 108.782 53.7584 107.921 54.7922ZM105.214 52.0819C105.966 50.9676 105.018 48.5264 103.81 47.1593C103.498 48.3173 103.692 50.3599 104.812 51.6259L105.214 52.081C104.239 53.0093 101.651 52.5079 100.084 51.5667C101.179 51.0602 103.24 50.8947 104.692 51.7673L105.214 52.081V52.0819ZM102.246 49.6579C102.881 48.4742 101.689 46.1402 100.349 44.9016C100.156 46.0853 100.556 48.0962 101.799 49.2447L102.246 49.6579L101.695 49.3964C100.161 48.6722 98.1272 49.0433 97.0892 49.657C98.7435 50.4379 101.37 50.6787 102.246 49.6579ZM99.0469 47.5424C99.5586 46.3022 98.1366 44.0993 96.6769 42.9996C96.6049 44.1953 97.2083 46.1582 98.5601 47.1756L99.0469 47.5424C98.2798 48.6456 95.6415 48.6687 93.9161 48.0567C94.8872 47.3427 96.8732 46.7719 98.4726 47.3376L99.0469 47.5407V47.5424Z" fill="white"/>
</g>
<mask id="mask1_30843_105435" style="mask-type:luminance" maskUnits="userSpaceOnUse" x="92" y="58" width="34" height="62">
<path d="M93.7185 72.3313L110.91 66.5541L115.893 68.7501L125.053 58.0898L123.299 81.2858L116.44 105.294L98.863 119.013L92.8613 115.583L95.4336 107.866L93.7185 72.3313Z" fill="white"/>
</mask>
<g mask="url(#mask1_30843_105435)">
<path fill-rule="evenodd" clip-rule="evenodd" d="M95.6511 45.7579C94.9989 46.9322 92.3769 47.2176 90.5974 46.7822C91.4914 45.9756 93.4097 45.2076 95.058 45.6122L95.6511 45.7579L95.13 45.4416C93.6814 44.5647 92.8817 42.6722 92.832 41.4756C94.3954 42.4227 96.0343 44.473 95.6511 45.7579ZM80.04 116.765C80.5989 116.765 81.0506 117.214 81.0506 117.768C81.0506 118.323 80.598 118.77 80.0391 118.771C79.4803 118.772 79.0286 118.323 79.0286 117.769C79.0286 117.214 79.4811 116.765 80.04 116.765ZM93.4046 44.7173L92.9443 44.3196C91.6646 43.2122 89.6049 43.0262 88.4391 43.3382C89.82 44.533 92.2834 45.4664 93.4037 44.7164L93.4046 44.7173ZM66.8091 44.7284C67.9294 45.4776 70.3937 44.5416 71.7754 43.3459C70.6097 43.0347 68.55 43.2216 67.2694 44.3307L66.8091 44.7284ZM77.4394 117.782C77.1291 119.086 74.6803 120.061 72.8477 120.115C73.4906 119.1 75.1311 117.85 76.8291 117.799L77.4394 117.782C77.4609 116.441 75.3274 114.904 73.5643 114.408C73.9372 115.547 75.2177 117.157 76.8523 117.617L77.4394 117.782ZM73.6277 117.278C73.7854 115.947 71.8191 114.203 70.1151 113.535C70.3697 114.705 71.4806 116.434 73.0603 117.054L73.6277 117.278L73.0183 117.234C71.3246 117.115 69.5657 118.195 68.8226 119.14C70.6509 119.27 73.1863 118.544 73.6277 117.278ZM69.8863 116.397C69.318 117.612 66.7226 118.081 64.9166 117.768C65.7514 116.902 67.6106 116.004 69.2837 116.291L69.8854 116.396C70.1769 115.087 68.3974 113.155 66.7714 112.32C66.9051 113.511 67.836 115.342 69.3429 116.116L69.8854 116.396L69.8863 116.397ZM66.2546 115.145C66.6771 113.872 65.1034 111.772 63.57 110.779C63.5829 111.977 64.3217 113.892 65.7437 114.814L66.2546 115.145L65.6674 114.982C64.032 114.526 62.0914 115.236 61.1726 116.014C62.9366 116.505 65.5663 116.299 66.2546 115.145ZM62.7669 113.536C61.9646 114.616 59.328 114.558 57.6223 113.895C58.6149 113.212 60.618 112.701 62.1994 113.315L62.7677 113.537C63.318 112.313 61.9646 110.067 60.54 108.925C60.4311 110.118 60.972 112.097 62.2929 113.157L62.7677 113.537L62.7669 113.536ZM59.4617 111.588C60.1337 110.425 59.0151 108.056 57.714 106.776C57.4843 107.952 57.822 109.977 59.028 111.161L59.4617 111.588L58.9183 111.312C57.4089 110.541 55.3637 110.849 54.3069 111.43C55.9363 112.262 58.554 112.582 59.4617 111.588ZM56.3709 109.319C55.3671 110.218 52.7957 109.636 51.2589 108.647C52.3697 108.175 54.4346 108.072 55.8583 108.989L56.3709 109.319L55.9826 108.852C54.9026 107.551 54.7723 105.504 55.1203 104.357C56.2851 105.76 57.1569 108.229 56.3709 109.319ZM53.5269 106.754C52.4374 107.548 49.938 106.713 48.5091 105.574C49.6611 105.215 51.7269 105.319 53.0503 106.374L53.5269 106.754C54.4191 105.747 53.8029 103.203 52.7863 101.69C52.3243 102.797 52.2463 104.848 53.1883 106.249L53.5269 106.754ZM50.9571 103.917C49.7931 104.596 47.3914 103.516 46.086 102.241C47.2689 101.999 49.3131 102.31 50.5226 103.492L50.9571 103.917C51.948 103.004 51.5923 100.412 50.7343 98.8056C50.1617 99.8607 49.8763 101.893 50.6709 103.381L50.9563 103.917H50.9571ZM48.6891 100.836C47.4617 101.398 45.1826 100.082 44.0134 98.683C45.2143 98.5604 47.2166 99.0739 48.3 100.371L48.6891 100.836L48.4594 100.276C47.82 98.7147 48.3111 96.7227 48.9866 95.7284C49.6766 97.4127 49.7666 100.028 48.6891 100.836ZM46.7451 97.5456L46.5737 96.9636C46.0963 95.3479 46.7854 93.4124 47.5594 92.4919C48.0754 94.237 47.8997 96.8487 46.7451 97.5456L46.4049 97.0416C45.4586 95.6436 43.5189 94.9339 42.312 94.9347C43.3329 96.4433 45.468 97.9802 46.7451 97.5456ZM45.1457 94.075C43.83 94.381 41.8629 92.6393 40.9997 91.0356C42.2014 91.1539 44.0589 92.0547 44.8586 93.541L45.1457 94.075C46.3646 93.4964 46.8043 90.9164 46.4691 89.1293C45.606 89.9676 44.7231 91.8233 45.0343 93.4802L45.1457 94.075ZM43.9063 90.4647L43.8549 89.8604C43.7134 88.1822 44.7797 86.4224 45.7243 85.6742C45.8769 87.487 45.1774 90.0113 43.9063 90.4647L43.674 89.9033C43.0294 88.345 41.274 87.2633 40.0903 87.0259C40.7854 88.7076 42.5666 90.637 43.9063 90.4647ZM43.0397 86.7473L43.05 86.1413C43.0791 84.4562 44.3194 82.813 45.3343 82.1624C45.3026 83.9804 44.3503 86.4233 43.0397 86.7473L42.8657 86.1653C42.3831 84.5504 40.7451 83.2982 39.5923 82.9424C40.1134 84.6859 41.6889 86.785 43.0397 86.7473ZM42.5554 82.9613C41.208 82.8644 39.8537 80.6196 39.5117 78.8324C40.6226 79.3013 42.1243 80.7104 42.4414 82.3664L42.5554 82.9613C43.8926 82.7702 45.0874 80.4353 45.3034 78.6302C44.2277 79.1753 42.828 80.6856 42.6274 82.3587L42.5554 82.9613ZM42.4577 79.147C41.1266 78.9156 40.0071 76.5464 39.8494 74.7353C40.9063 75.3122 42.258 76.8636 42.4046 78.5436L42.4577 79.147C43.8069 79.0896 45.2331 76.8867 45.6309 75.1116C44.5054 75.5462 42.9591 76.9099 42.5897 78.5556L42.4577 79.147ZM42.7466 75.3422C41.4471 74.9779 40.5729 72.5102 40.6003 70.6913C41.5937 71.3719 42.78 73.0502 42.756 74.7353L42.7474 75.3422C44.0957 75.4202 45.738 73.3699 46.3149 71.6436C45.1509 71.9633 43.4743 73.1667 42.9394 74.7662L42.7466 75.3422ZM43.4211 71.5836L43.6706 71.0307C44.364 69.4922 46.1546 68.4636 47.3443 68.2604C46.5951 69.9207 44.7549 71.7962 43.4211 71.5836L43.4906 70.9827C43.686 69.3087 42.6763 67.519 41.7557 66.7433C41.5457 68.5493 42.1637 71.0924 43.4203 71.5844L43.4211 71.5836ZM44.4737 67.9133C43.2737 67.2987 42.9163 64.7059 43.3097 62.929C44.1454 63.7939 44.9691 65.6753 44.6049 67.321L44.4737 67.9133C45.7783 68.257 47.8011 66.5762 48.7149 64.999C47.5106 65.0813 45.6249 65.9264 44.7789 67.3879L44.4746 67.9142L44.4737 67.9133ZM45.8931 64.3647C44.7617 63.6327 44.6691 61.0176 45.2409 59.2896C45.9849 60.2324 46.6131 62.1876 46.0834 63.7887L45.8931 64.3647C47.1566 64.8379 49.3389 63.3662 50.4086 61.8876C49.2017 61.8499 47.2406 62.5022 46.2497 63.871L45.8931 64.3647ZM47.6657 60.9764C48.8743 61.5739 51.1946 60.3276 52.4083 58.9639C51.2117 58.8044 49.194 59.2579 48.0694 60.5222L47.6649 60.9764L47.9126 60.4219C48.6017 58.8816 48.1749 56.8742 47.5303 55.861C46.7871 57.5239 46.6131 60.1356 47.6649 60.9764H47.6657ZM49.7717 57.7827C48.8117 56.8407 49.2497 54.2599 50.1583 52.6793C50.6966 53.7516 50.9177 55.7916 50.0751 57.2547L49.7726 57.7819L50.2209 57.3704C51.4671 56.2253 53.52 55.9759 54.6943 56.2527C53.3486 57.4887 50.9143 58.4976 49.7717 57.7827ZM52.1923 54.8144L52.68 54.4484C54.0369 53.4336 56.1043 53.3916 57.2443 53.7842C55.7803 54.8804 53.256 55.639 52.1923 54.8144L52.5471 54.3199C53.5329 52.9476 53.5209 50.8956 53.094 49.7753C52.0303 51.2573 51.3317 53.7816 52.1923 54.8144ZM54.9017 52.1033C54.1509 50.9899 55.1014 48.5479 56.31 47.1799C56.6203 48.337 56.4249 50.3804 55.3046 51.6473L54.9017 52.1033C55.8763 53.0307 58.4657 52.5276 60.0326 51.5847C58.938 51.079 56.8766 50.9153 55.4237 51.7896L54.9009 52.1042L54.9017 52.1033ZM57.8726 49.6759C57.2383 48.493 58.4314 46.1582 59.7729 44.9187C59.9649 46.1016 59.562 48.1142 58.3191 49.2636L57.8726 49.6767L58.4237 49.4162C59.958 48.691 61.9911 49.0596 63.0291 49.6724C61.374 50.4542 58.7477 50.6967 57.8726 49.6767V49.6759ZM61.0731 47.5579L61.6483 47.3539C63.2477 46.7864 65.2337 47.3556 66.204 48.0687C64.4777 48.6816 61.8403 48.6602 61.0731 47.5579L61.5591 47.191C62.9126 46.1719 63.5169 44.209 63.4466 43.0133C61.986 44.1139 60.5623 46.3176 61.0731 47.5579ZM64.4726 45.7707C64.0903 44.4859 65.73 42.4347 67.2951 41.4867C67.2437 42.6824 66.4431 44.5759 64.9937 45.4544L64.4726 45.7707L65.0657 45.625C66.7149 45.2187 68.6323 45.9859 69.5254 46.7916C67.7451 47.2287 65.124 46.9433 64.4726 45.7707ZM82.6226 117.779C82.932 119.082 85.38 120.056 87.2126 120.109C86.5706 119.094 84.9309 117.845 83.2329 117.796L82.6226 117.779C82.602 116.439 84.7371 114.899 86.5003 114.402C86.1274 115.541 84.8443 117.152 83.2097 117.614L82.6226 117.779ZM86.4351 117.273C86.2783 115.942 88.2463 114.197 89.9511 113.526C89.6957 114.697 88.5823 116.427 87.0034 117.048L86.436 117.273L87.0454 117.228C88.7391 117.107 90.498 118.186 91.2394 119.13C89.4111 119.262 86.8766 118.538 86.436 117.273H86.4351ZM90.1766 116.388L90.7191 116.108C92.2277 115.332 93.1586 113.5 93.2949 112.309C91.6671 113.146 89.8869 115.079 90.1774 116.387L90.7791 116.282C92.4523 115.993 94.3114 116.89 95.1454 117.754C93.3394 118.068 90.744 117.603 90.1774 116.387L90.1766 116.388ZM93.81 115.134C93.3883 113.861 94.9637 111.76 96.4989 110.765C96.4851 111.964 95.7437 113.879 94.3217 114.802L93.81 115.134L94.3989 114.97C96.0343 114.514 97.9749 115.221 98.8929 115.999C97.1271 116.491 94.4974 116.287 93.81 115.134ZM97.2986 113.523C98.1 114.602 100.737 114.542 102.442 113.877C101.451 113.194 99.4474 112.685 97.8669 113.301L97.2986 113.523C96.7491 112.299 98.1034 110.052 99.5297 108.909C99.6369 110.102 99.0943 112.082 97.7734 113.142L97.2986 113.523ZM100.605 111.572C99.9351 110.41 101.055 108.039 102.357 106.759C102.586 107.935 102.247 109.96 101.04 111.145L100.605 111.572L101.15 111.295C102.66 110.523 104.704 110.83 105.761 111.41C104.131 112.242 101.512 112.565 100.605 111.572ZM103.698 109.3C104.701 110.198 107.273 109.615 108.811 108.624C107.701 108.153 105.636 108.052 104.211 108.97L103.698 109.3L104.087 108.833C105.167 107.531 105.3 105.484 104.953 104.338C103.787 105.741 102.913 108.211 103.698 109.3ZM106.545 106.732L106.884 106.228C107.827 104.825 107.751 102.775 107.289 101.668C106.272 103.181 105.653 105.725 106.545 106.732L107.021 106.352C108.345 105.296 110.41 105.19 111.563 105.547C110.134 106.687 107.634 107.524 106.545 106.732ZM109.117 103.893C110.281 104.572 112.683 103.489 113.991 102.214C112.808 101.973 110.763 102.285 109.553 103.468L109.117 103.893C108.128 102.981 108.485 100.389 109.344 98.7816C109.916 99.8359 110.2 101.868 109.404 103.357L109.117 103.893ZM111.387 100.81C112.614 101.37 114.895 100.054 116.066 98.653C114.865 98.5313 112.863 99.0464 111.778 100.344L111.387 100.81L111.619 100.25C112.26 98.6882 111.771 96.6953 111.095 95.7019C110.403 97.387 110.31 100.002 111.387 100.81ZM113.334 97.5182C114.612 97.9519 116.748 96.4142 117.771 94.9039C116.563 94.9039 114.623 95.6144 113.675 97.0142L113.334 97.5182C112.18 96.8222 112.007 94.2104 112.524 92.4644C113.297 93.385 113.985 95.3196 113.506 96.9353L113.334 97.5182ZM114.936 94.0467C116.252 94.3519 118.221 92.6084 119.085 91.0039C117.884 91.123 116.025 92.0256 115.224 93.5127L114.936 94.0467C113.718 93.4699 113.28 90.8899 113.618 89.1019C114.481 89.9393 115.362 91.795 115.049 93.4519L114.936 94.0467ZM116.179 90.4356C117.519 90.6062 119.301 88.675 119.997 86.9933C118.814 87.2316 117.057 88.315 116.411 89.8733L116.179 90.4347C114.908 89.9822 114.21 87.4579 114.365 85.645C115.308 86.3924 116.373 88.1513 116.23 89.8296L116.179 90.4347V90.4356ZM117.049 86.7164C118.399 86.7533 119.977 84.6542 120.499 82.9099C119.345 83.2664 117.707 84.5196 117.223 86.1353L117.049 86.7164C115.738 86.3933 114.789 83.9522 114.758 82.1342C115.773 82.783 117.011 84.4262 117.039 86.1104L117.049 86.7164ZM117.537 82.9304C118.884 82.8327 120.24 80.5862 120.584 78.7999C119.473 79.2696 117.969 80.6796 117.651 82.3356L117.537 82.9304C116.199 82.7402 115.006 80.4062 114.792 78.601C115.867 79.1453 117.266 80.6547 117.465 82.3279L117.537 82.9304ZM117.638 79.1162L117.505 78.5247C117.137 76.8799 115.592 75.517 114.467 75.0833C114.864 76.8584 116.288 79.0604 117.638 79.1162L117.691 78.5127C117.839 76.8327 119.192 75.2804 120.249 74.7027C120.09 76.5139 118.967 78.8847 117.638 79.1162ZM117.351 75.3113C118.652 74.9462 119.528 72.4776 119.503 70.6587C118.509 71.3393 117.321 73.0202 117.344 74.7044L117.351 75.3113C116.003 75.3902 114.363 73.3416 113.788 71.6162C114.952 71.935 116.628 73.1367 117.16 74.7362L117.351 75.3113ZM116.679 71.5536C117.936 71.0607 118.557 68.5176 118.348 66.7116C117.428 67.4882 116.416 69.2787 116.61 70.9527L116.679 71.5536C115.347 71.7679 113.506 69.8933 112.758 68.2339C113.949 68.4362 115.738 69.463 116.43 71.0007L116.679 71.5536ZM115.631 67.8842C116.831 67.2687 117.191 64.6759 116.799 62.899C115.963 63.7647 115.137 65.647 115.501 67.2919L115.631 67.8842C114.326 68.2287 112.305 66.5487 111.393 64.9724C112.597 65.053 114.482 65.8973 115.327 67.3579L115.631 67.8842ZM114.214 64.3373L113.859 63.8444C112.869 62.4764 110.908 61.825 109.701 61.8644C110.769 63.3422 112.951 64.8113 114.214 64.3373L114.025 63.7622C113.497 62.161 114.127 60.2059 114.872 59.2622C115.442 60.9902 115.346 63.6053 114.214 64.3373ZM112.445 60.9499C111.236 61.5482 108.916 60.3036 107.704 58.9407C108.901 58.7804 110.918 59.2322 112.041 60.4956L112.445 60.9499L112.197 60.3962C111.509 58.8559 111.938 56.8484 112.583 55.8353C113.325 57.4973 113.497 60.1082 112.445 60.9499ZM110.341 57.7579C111.303 56.815 110.867 54.2342 109.959 52.6553C109.42 53.7284 109.198 55.7684 110.039 57.2307L110.341 57.7579L109.893 57.3464C108.648 56.2022 106.595 55.9544 105.42 56.2322C106.765 57.4673 109.198 58.4727 110.341 57.7579ZM107.923 54.7922L107.436 54.427C106.08 53.4139 104.013 53.3727 102.872 53.7662C104.335 54.8607 106.859 55.6176 107.923 54.7922L107.569 54.2984C106.584 52.927 106.598 50.875 107.025 49.7539C108.088 51.235 108.784 53.7584 107.923 54.7922ZM105.216 52.0819C105.968 50.9676 105.02 48.5264 103.812 47.1593C103.5 48.3173 103.694 50.3599 104.814 51.6259L105.216 52.081C104.241 53.0093 101.653 52.5079 100.086 51.5667C101.181 51.0602 103.242 50.8947 104.694 51.7673L105.216 52.081V52.0819ZM102.248 49.6579C102.883 48.4742 101.691 46.1402 100.351 44.9016C100.158 46.0853 100.558 48.0962 101.801 49.2447L102.248 49.6579L101.697 49.3964C100.163 48.6722 98.1292 49.0433 97.0912 49.657C98.7454 50.4379 101.372 50.6787 102.248 49.6579ZM99.0489 47.5424C99.5606 46.3022 98.1386 44.0993 96.6789 42.9996C96.6069 44.1953 97.2103 46.1582 98.562 47.1756L99.0489 47.5424C98.2817 48.6456 95.6434 48.6687 93.918 48.0567C94.8891 47.3427 96.8751 46.7719 98.4746 47.3376L99.0489 47.5407V47.5424Z" fill="white"/>
</g>
<path fill-rule="evenodd" clip-rule="evenodd" d="M116.162 69.1514L116.189 68.5437C116.266 66.8526 115.137 65.1211 114.17 64.3994C114.088 66.2234 114.879 68.7357 116.162 69.1514Z" fill="white"/>
<path fill-rule="evenodd" clip-rule="evenodd" d="M43.9843 69.1514L43.9569 68.5437C43.8797 66.8526 45.0094 65.1211 45.9763 64.3994C46.0586 66.2234 45.2674 68.7357 43.9843 69.1514Z" fill="white"/>
<path d="M89.1163 120.535C88.6926 120.61 88.3012 120.599 87.9419 120.501C87.5847 120.404 87.2851 120.235 87.0429 119.995C86.8008 119.756 86.6446 119.46 86.5742 119.108L87.8332 118.886C87.8891 119.121 88.023 119.296 88.235 119.411C88.4469 119.526 88.6808 119.561 88.9365 119.516C89.1404 119.48 89.3123 119.404 89.4523 119.286C89.594 119.166 89.6945 119.018 89.7539 118.84C89.8149 118.661 89.8268 118.465 89.7894 118.253C89.7514 118.037 89.6719 117.856 89.5511 117.708C89.4323 117.56 89.2848 117.454 89.1088 117.39C88.9327 117.327 88.7415 117.312 88.5354 117.346C88.3555 117.378 88.1872 117.446 88.0303 117.55C87.8755 117.653 87.7624 117.777 87.691 117.922L86.5005 117.918L86.2204 114.63L89.9734 113.968L90.1605 115.029L87.4777 115.502L87.5899 117.068L87.6259 117.061C87.7071 116.891 87.8477 116.736 88.0479 116.598C88.2481 116.459 88.4831 116.366 88.7529 116.319C89.1226 116.254 89.4677 116.282 89.7881 116.405C90.1085 116.528 90.3794 116.726 90.6009 117C90.8219 117.273 90.9662 117.606 91.0336 118C91.1085 118.413 91.0775 118.798 90.9403 119.154C90.8049 119.507 90.5805 119.806 90.2672 120.051C89.9555 120.294 89.5719 120.455 89.1163 120.535Z" fill="white"/>
</g>
</g>
<defs>
<clipPath id="clip0_30843_105435">
<rect width="360" height="360" fill="white"/>
</clipPath>
<clipPath id="clip1_30843_105435">
<rect width="120" height="120" fill="white" transform="translate(20 20)"/>
</clipPath>
</defs>
</svg>
