<?xml version="1.0" encoding="utf-8"?>
<!-- Generator: Adobe Illustrator 26.0.0, SVG Export Plug-In . SVG Version: 6.00 Build 0)  -->
<svg version="1.1" id="Layer_1" xmlns="http://www.w3.org/2000/svg" xmlns:xlink="http://www.w3.org/1999/xlink" x="0px" y="0px"
	 viewBox="0 0 140 140" style="enable-background:new 0 0 140 140;" xml:space="preserve">
<style type="text/css">
	.st0{fill:#B9AF79;}
	.st1{fill:#FFFFFF;}
	.st2{fill:none;}
	
		.st3{clip-path:url(#SVGID_00000023962743515939793130000017259860800141104297_);fill-rule:evenodd;clip-rule:evenodd;fill:#FFFFFF;}
	
		.st4{clip-path:url(#SVGID_00000093171640957432152230000014663682419327147395_);fill-rule:evenodd;clip-rule:evenodd;fill:#FFFFFF;}
	.st5{fill-rule:evenodd;clip-rule:evenodd;fill:#FFFFFF;}
</style>
<g>
	<path class="st0" d="M136.058,60.303l-4.39-4.725c-2.873-3.092-4.214-7.391-3.636-11.65l0.884-6.509
		c1.012-7.448-3.832-14.39-10.948-15.689l-6.219-1.136c-4.069-0.743-7.582-3.4-9.518-7.2l-2.96-5.807
		c-3.386-6.645-11.224-9.296-17.715-5.993l-5.673,2.887c-3.712,1.889-8.053,1.889-11.765,0l-5.673-2.887
		C51.954-1.709,44.116,0.942,40.73,7.587l-2.96,5.807c-1.936,3.8-5.449,6.457-9.518,7.2l-6.219,1.136
		c-7.116,1.3-11.96,8.241-10.949,15.689l0.884,6.509c0.579,4.259-0.763,8.558-3.636,11.65l-4.39,4.725
		c-5.024,5.406-5.024,13.987,0,19.393l4.39,4.725c2.873,3.092,4.214,7.39,3.636,11.65l-0.884,6.509
		c-1.012,7.448,3.832,14.39,10.949,15.689l6.219,1.136c4.069,0.743,7.582,3.4,9.518,7.2l2.96,5.807
		c3.386,6.645,11.224,9.296,17.715,5.993l5.673-2.887c3.712-1.889,8.053-1.889,11.765,0l5.673,2.887
		c6.491,3.304,14.329,0.652,17.715-5.993l2.96-5.807c1.936-3.8,5.449-6.457,9.518-7.2l6.219-1.136
		c7.116-1.3,11.96-8.241,10.948-15.689l-0.884-6.509c-0.579-4.259,0.763-8.558,3.636-11.65l4.39-4.725
		C141.081,74.29,141.081,65.71,136.058,60.303z M22.159,111.167c-2.629,0-4.76-2.219-4.76-4.956c0-2.737,2.131-4.956,4.76-4.956
		c2.629,0,4.76,2.219,4.76,4.956C26.919,108.948,24.788,111.167,22.159,111.167z"/>
	<g>
		<g>
			<path class="st1" d="M36.093,75.975V63.233h4.616c1.652,0,2.91,0.3,3.772,0.901c0.861,0.601,1.293,1.473,1.293,2.616
				c0,0.66-0.153,1.223-0.459,1.689c-0.306,0.467-0.756,0.811-1.351,1.033c0.671,0.175,1.186,0.502,1.545,0.98
				c0.358,0.479,0.538,1.062,0.538,1.75c0,1.248-0.398,2.187-1.196,2.813c-0.797,0.627-1.978,0.946-3.543,0.958H36.093z
				 M39.19,68.545h1.615c0.677-0.005,1.159-0.128,1.447-0.369c0.288-0.24,0.433-0.594,0.433-1.062c0-0.538-0.156-0.926-0.468-1.163
				c-0.312-0.237-0.815-0.355-1.509-0.355H39.19V68.545z M39.19,70.558v3.055h2.03c0.559,0,0.988-0.127,1.288-0.381
				s0.45-0.611,0.45-1.072c0-1.062-0.532-1.596-1.598-1.602H39.19z"/>
			<path class="st1" d="M52.525,71.468h-1.677v4.507h-3.098V63.233h5.057c1.524,0,2.716,0.335,3.574,1.005
				c0.859,0.67,1.289,1.617,1.289,2.841c0,0.886-0.181,1.62-0.543,2.203c-0.361,0.583-0.928,1.055-1.699,1.416l2.684,5.144v0.132
				h-3.318L52.525,71.468z M50.849,69.105h1.959c0.589,0,1.031-0.153,1.328-0.46c0.298-0.307,0.446-0.735,0.446-1.285
				s-0.15-0.981-0.45-1.294s-0.741-0.469-1.324-0.469h-1.959V69.105z"/>
			<path class="st1" d="M70.424,69.867c0,1.243-0.232,2.342-0.697,3.299c-0.465,0.956-1.125,1.692-1.981,2.209
				c-0.855,0.517-1.831,0.774-2.926,0.774c-1.094,0-2.064-0.249-2.912-0.748s-1.508-1.212-1.981-2.14s-0.722-1.992-0.745-3.194
				V69.35c0-1.248,0.23-2.35,0.692-3.303c0.462-0.954,1.124-1.69,1.985-2.21c0.862-0.519,1.844-0.779,2.943-0.779
				c1.089,0,2.06,0.257,2.913,0.771c0.853,0.513,1.516,1.244,1.989,2.192s0.714,2.035,0.72,3.26V69.867z M67.273,69.333
				c0-1.266-0.214-2.227-0.641-2.883c-0.426-0.656-1.036-0.984-1.831-0.984c-1.553,0-2.374,1.155-2.462,3.465l-0.009,0.937
				c0,1.249,0.209,2.208,0.626,2.878c0.418,0.671,1.039,1.007,1.862,1.007c0.783,0,1.386-0.33,1.81-0.989s0.639-1.606,0.645-2.844
				V69.333z"/>
			<path class="st1" d="M82.752,75.975h-3.08l-4.554-7.928v7.928h-3.098V63.233h3.098l4.545,7.929v-7.929h3.089V75.975z"/>
			<path class="st1" d="M88.189,73.612h6.143v2.362H84.323v-1.619l6.125-8.75h-6.16v-2.372h9.981v1.575L88.189,73.612z"/>
			<path class="st1" d="M103.704,70.566h-4.872v3.046h5.754v2.362h-8.852V63.233h8.869v2.372h-5.771v2.687h4.872V70.566z"/>
		</g>
	</g>
	<g>
		<circle class="st2" cx="70" cy="70" r="40.407"/>
		<path class="st1" d="M34.739,39.984l-1.275,1.712l4.641,3.458l-1.025,1.375l-4.64-3.458l-1.253,1.68l-1.061-0.791l3.551-4.767
			L34.739,39.984z"/>
		<path class="st1" d="M41.218,39.726l-1.655,1.668l0.653,1.227l-1.29,1.299l-3.21-6.86l1.137-1.145l6.897,3.146l-1.297,1.307
			L41.218,39.726z M38.912,40.169l1.077-1.085l-2.291-1.193L38.912,40.169z"/>
		<path class="st1" d="M48.174,34.806c-0.042,0.392-0.216,0.809-0.522,1.252c-0.307,0.442-0.705,0.842-1.195,1.196
			c-0.755,0.547-1.525,0.752-2.311,0.616c-0.785-0.134-1.491-0.603-2.118-1.402l-0.365-0.496c-0.41-0.567-0.668-1.136-0.774-1.703
			c-0.105-0.569-0.055-1.102,0.154-1.602c0.208-0.498,0.558-0.924,1.048-1.279c0.718-0.519,1.394-0.759,2.028-0.717
			c0.635,0.041,1.221,0.363,1.759,0.968l-1.338,0.968c-0.28-0.288-0.55-0.443-0.807-0.466c-0.257-0.021-0.532,0.071-0.821,0.281
			c-0.35,0.252-0.512,0.595-0.487,1.026c0.023,0.434,0.232,0.926,0.628,1.477l0.252,0.349c0.415,0.574,0.826,0.936,1.232,1.082
			c0.405,0.147,0.819,0.067,1.24-0.238c0.362-0.261,0.573-0.536,0.634-0.825l-0.647-0.895l-0.966,0.698l-0.689-0.953l2.354-1.703
			L48.174,34.806z"/>
		<path class="st1" d="M50.233,33.229l2.646-1.382l0.61,1.169l-4.165,2.176l-3.291-6.306l1.52-0.793L50.233,33.229z"/>
		<path class="st1" d="M55.731,32.172l-1.587,0.635l-2.642-6.604l1.588-0.635L55.731,32.172z"/>
		<path class="st1" d="M62.345,30.206l-1.646,0.443l-3.584-3.616l1.15,4.271l-1.655,0.446l-1.849-6.866l1.655-0.446l3.579,3.619
			l-1.15-4.273l1.65-0.445L62.345,30.206z"/>
		<path class="st1" d="M67.223,26.594l-2.679,0.308l0.193,1.688l3.164-0.363l0.15,1.31l-4.867,0.56l-0.811-7.064l4.876-0.561
			l0.151,1.314l-3.174,0.365l0.171,1.489l2.679-0.308L67.223,26.594z"/>
		<path class="st1" d="M75.032,28.535l-2.339-0.218l-0.532,1.284l-1.823-0.17l3.259-6.837l1.605,0.148l1.953,7.326l-1.833-0.172
			L75.032,28.535z M73.225,27.037l1.522,0.143l-0.533-2.526L73.225,27.037z"/>
		<path class="st1" d="M83.191,28.967l1.987-4.076l1.637,0.459l-3.369,6.441l-1.713-0.479l0.176-4.16l-1.991,3.652l-1.708-0.478
			l0.459-7.257l1.641,0.459l-0.416,4.515l2.143-4.032l1.401,0.394L83.191,28.967z"/>
		<path class="st1" d="M89.222,32.934l-2.115-1.023l-0.947,1.016l-1.648-0.798l5.447-5.264l1.45,0.702l-0.735,7.547l-1.656-0.803
			L89.222,32.934z M88.054,30.897l1.376,0.667l0.384-2.554L88.054,30.897z"/>
		<path class="st1" d="M94.471,34.735l-0.761-0.53l-1.438,2.064l-1.406-0.979l4.063-5.837l2.297,1.601
			c0.692,0.481,1.126,1.012,1.302,1.591c0.177,0.578,0.07,1.147-0.32,1.708c-0.282,0.406-0.599,0.686-0.949,0.838
			c-0.35,0.152-0.758,0.189-1.223,0.111l-0.423,3.204l-0.042,0.061l-1.508-1.05L94.471,34.735z M94.464,33.123l0.889,0.62
			c0.268,0.186,0.518,0.255,0.751,0.208c0.233-0.046,0.437-0.195,0.612-0.447c0.175-0.252,0.244-0.497,0.208-0.735
			s-0.187-0.448-0.451-0.633l-0.89-0.621L94.464,33.123z"/>
		<path class="st1" d="M95.971,38.923l4.911-5.145l1.656,1.581c0.455,0.435,0.765,0.928,0.931,1.48
			c0.166,0.552,0.172,1.112,0.018,1.684c-0.155,0.57-0.455,1.09-0.897,1.559l-0.226,0.236c-0.45,0.471-0.952,0.798-1.507,0.981
			c-0.557,0.183-1.115,0.208-1.678,0.074c-0.562-0.135-1.068-0.413-1.516-0.836L95.971,38.923z M101.208,35.919l-3.086,3.233
			l0.431,0.412c0.355,0.339,0.749,0.473,1.182,0.402c0.433-0.071,0.888-0.356,1.364-0.856l0.212-0.223
			c0.476-0.496,0.736-0.962,0.786-1.396c0.051-0.434-0.107-0.826-0.473-1.174L101.208,35.919z"/>
		<path class="st1" d="M104.131,44.981c0.198-0.153,0.299-0.344,0.301-0.569s-0.073-0.562-0.228-1.006s-0.263-0.822-0.325-1.132
			c-0.206-1.006,0.005-1.751,0.631-2.234c0.312-0.241,0.657-0.363,1.036-0.365c0.378-0.003,0.762,0.11,1.151,0.341
			c0.39,0.229,0.745,0.552,1.065,0.967c0.312,0.404,0.521,0.823,0.625,1.256c0.104,0.432,0.091,0.84-0.039,1.224
			c-0.129,0.384-0.365,0.709-0.708,0.973l-1.046-1.354c0.23-0.176,0.354-0.384,0.371-0.621c0.018-0.238-0.065-0.478-0.251-0.717
			c-0.187-0.241-0.389-0.393-0.604-0.449c-0.216-0.058-0.406-0.024-0.571,0.104c-0.145,0.111-0.215,0.291-0.213,0.535
			c0.002,0.246,0.092,0.611,0.268,1.096c0.176,0.486,0.287,0.91,0.336,1.271c0.12,0.878-0.128,1.556-0.744,2.031
			c-0.492,0.382-1.021,0.494-1.589,0.34c-0.568-0.154-1.103-0.554-1.602-1.2c-0.353-0.457-0.59-0.932-0.712-1.429
			c-0.122-0.496-0.113-0.948,0.027-1.355c0.141-0.406,0.396-0.753,0.768-1.039l1.051,1.359c-0.302,0.234-0.463,0.483-0.486,0.75
			c-0.022,0.266,0.102,0.574,0.373,0.925c0.173,0.224,0.358,0.364,0.556,0.42C103.769,45.156,103.956,45.117,104.131,44.981z"/>
	</g>
	<g>
		<circle class="st2" cx="70" cy="70" r="47.503"/>
		<path class="st1" d="M62.962,117.051l-4.862-0.994l0.215-1.053l2.722-1.896c0.68-0.516,1.059-0.959,1.135-1.328
			c0.061-0.301,0.042-0.542-0.057-0.725c-0.1-0.184-0.273-0.301-0.521-0.351c-0.246-0.05-0.467,0.013-0.663,0.19
			c-0.195,0.177-0.325,0.423-0.39,0.735l-1.617-0.331c0.088-0.426,0.275-0.801,0.562-1.118c0.288-0.318,0.643-0.541,1.064-0.667
			c0.421-0.127,0.866-0.142,1.335-0.047c0.753,0.154,1.298,0.447,1.634,0.878c0.335,0.431,0.437,0.972,0.304,1.622
			c-0.057,0.275-0.162,0.531-0.317,0.77c-0.155,0.24-0.37,0.48-0.644,0.722c-0.273,0.242-0.699,0.554-1.274,0.933l-1.113,0.855
			l2.742,0.561L62.962,117.051z"/>
		<path class="st1" d="M69.746,114.671c-0.058,0.96-0.319,1.686-0.78,2.18c-0.463,0.493-1.086,0.716-1.869,0.669
			c-0.79-0.05-1.385-0.349-1.785-0.897c-0.4-0.55-0.571-1.301-0.514-2.254l0.08-1.296c0.058-0.959,0.318-1.686,0.78-2.18
			c0.463-0.492,1.087-0.715,1.874-0.668c0.786,0.048,1.379,0.348,1.78,0.897c0.399,0.549,0.571,1.302,0.513,2.257L69.746,114.671z
			 M68.195,113.065c0.031-0.51-0.013-0.896-0.13-1.156c-0.118-0.26-0.321-0.398-0.611-0.415c-0.282-0.019-0.495,0.087-0.638,0.312
			s-0.233,0.575-0.272,1.051l-0.11,1.813c-0.032,0.529,0.011,0.921,0.13,1.175c0.117,0.254,0.321,0.389,0.61,0.406
			c0.279,0.017,0.493-0.09,0.641-0.32c0.148-0.23,0.239-0.601,0.274-1.11L68.195,113.065z"/>
		<path class="st1" d="M76.219,117.159l-4.946,0.396l-0.086-1.07l2.088-2.578c0.51-0.684,0.75-1.215,0.72-1.591
			c-0.024-0.306-0.109-0.533-0.255-0.68c-0.146-0.148-0.346-0.213-0.599-0.193c-0.25,0.02-0.444,0.144-0.583,0.368
			s-0.195,0.496-0.17,0.814l-1.646,0.132c-0.034-0.435,0.043-0.846,0.23-1.231s0.467-0.697,0.837-0.937
			c0.369-0.238,0.793-0.377,1.271-0.415c0.766-0.062,1.369,0.068,1.812,0.39c0.442,0.32,0.689,0.812,0.743,1.475
			c0.021,0.279-0.008,0.554-0.091,0.827c-0.083,0.272-0.222,0.563-0.418,0.871c-0.196,0.309-0.518,0.725-0.966,1.25l-0.83,1.131
			l2.789-0.224L76.219,117.159z"/>
		<path class="st1" d="M82.715,115.829l-4.844,1.078l-0.234-1.049l1.709-2.842c0.41-0.749,0.575-1.309,0.492-1.677
			c-0.066-0.299-0.183-0.511-0.347-0.639c-0.166-0.126-0.372-0.161-0.62-0.107c-0.245,0.056-0.42,0.203-0.526,0.446
			c-0.105,0.241-0.124,0.52-0.055,0.83l-1.611,0.358c-0.095-0.426-0.076-0.843,0.057-1.251c0.132-0.408,0.365-0.756,0.697-1.044
			c0.334-0.288,0.734-0.483,1.201-0.587c0.75-0.167,1.366-0.123,1.849,0.133c0.482,0.257,0.796,0.709,0.94,1.357
			c0.061,0.273,0.069,0.551,0.025,0.833c-0.045,0.282-0.143,0.588-0.293,0.921c-0.151,0.332-0.412,0.789-0.783,1.372l-0.666,1.235
			l2.732-0.609L82.715,115.829z"/>
	</g>
	<g>
		<defs>
			<polygon id="SVGID_1_" points="45.492,115.515 54.995,111.513 51.994,103.511 48.493,66.554 32.562,55.25 28.25,56.875 
				24.875,51.063 8.48,79.003 			"/>
		</defs>
		<clipPath id="SVGID_00000056399232300611647030000014862287484110304178_">
			<use xlink:href="#SVGID_1_"  style="overflow:visible;"/>
		</clipPath>
		
			<path style="clip-path:url(#SVGID_00000056399232300611647030000014862287484110304178_);fill-rule:evenodd;clip-rule:evenodd;fill:#FFFFFF;" d="
			M88.258,30.05c-0.761,1.37-3.82,1.703-5.896,1.195c1.043-0.941,3.281-1.837,5.204-1.365L88.258,30.05l-0.608-0.369
			c-1.69-1.023-2.623-3.231-2.681-4.627C86.793,26.159,88.705,28.551,88.258,30.05L88.258,30.05z M70.045,112.892L70.045,112.892
			c0.652,0,1.179,0.523,1.179,1.17c0,0.645-0.528,1.169-1.18,1.17s-1.179-0.523-1.179-1.169
			C68.866,113.417,69.393,112.892,70.045,112.892L70.045,112.892z M85.637,28.836L85.637,28.836L85.1,28.372
			c-1.493-1.292-3.896-1.509-5.256-1.145C81.455,28.621,84.329,29.711,85.637,28.836L85.637,28.836z M54.609,28.849L54.609,28.849
			c1.307,0.874,4.182-0.218,5.794-1.613c-1.36-0.363-3.763-0.145-5.257,1.149L54.609,28.849L54.609,28.849z M67.011,114.078
			L67.011,114.078c-0.362,1.521-3.219,2.659-5.357,2.722c0.75-1.184,2.664-2.643,4.645-2.702L67.011,114.078
			c0.025-1.564-2.464-3.358-4.521-3.936c0.435,1.329,1.929,3.207,3.836,3.744L67.011,114.078L67.011,114.078z M62.564,113.491
			L62.564,113.491c0.184-1.553-2.11-3.587-4.098-4.367c0.297,1.365,1.593,3.383,3.436,4.106L62.564,113.491l-0.711-0.051
			c-1.976-0.139-4.028,1.121-4.895,2.223C59.092,115.814,62.049,114.967,62.564,113.491L62.564,113.491z M58.199,112.462
			L58.199,112.462c-0.663,1.418-3.691,1.965-5.798,1.6c0.974-1.011,3.143-2.058,5.095-1.723L58.199,112.462
			c0.34-1.527-1.736-3.781-3.633-4.755c0.156,1.389,1.242,3.526,3,4.429L58.199,112.462L58.199,112.462z M53.962,111.002
			L53.962,111.002c0.493-1.486-1.343-3.935-3.132-5.094c0.015,1.398,0.877,3.632,2.536,4.707L53.962,111.002l-0.686-0.191
			c-1.908-0.531-4.172,0.297-5.244,1.205C50.09,112.588,53.158,112.348,53.962,111.002L53.962,111.002z M49.893,109.125
			L49.893,109.125c-0.936,1.26-4.012,1.192-6.002,0.418c1.158-0.797,3.495-1.393,5.34-0.676L49.893,109.125
			c0.642-1.428-0.937-4.049-2.599-5.381c-0.127,1.392,0.504,3.701,2.045,4.937L49.893,109.125L49.893,109.125z M46.037,106.852
			L46.037,106.852c0.784-1.357-0.521-4.121-2.039-5.614c-0.268,1.372,0.126,3.734,1.533,5.116L46.037,106.852l-0.633-0.322
			c-1.761-0.9-4.147-0.54-5.38,0.138C41.924,107.638,44.978,108.012,46.037,106.852L46.037,106.852z M42.431,104.205L42.431,104.205
			c-1.171,1.048-4.171,0.37-5.964-0.784c1.296-0.551,3.705-0.671,5.366,0.399L42.431,104.205l-0.453-0.545
			c-1.26-1.518-1.412-3.906-1.006-5.244C42.331,100.053,43.348,102.933,42.431,104.205L42.431,104.205z M39.113,101.212
			c-1.271,0.926-4.187-0.048-5.854-1.377c1.344-0.418,3.754-0.297,5.298,0.934L39.113,101.212c1.041-1.175,0.322-4.142-0.864-5.907
			c-0.539,1.292-0.63,3.684,0.469,5.319L39.113,101.212L39.113,101.212L39.113,101.212z M36.115,97.902L36.115,97.902
			c-1.358,0.793-4.16-0.467-5.683-1.955c1.38-0.282,3.765,0.08,5.176,1.459L36.115,97.902c1.156-1.065,0.741-4.089-0.26-5.963
			c-0.668,1.231-1.001,3.602-0.074,5.338L36.115,97.902L36.115,97.902z M33.469,94.308L33.469,94.308
			c-1.432,0.655-4.091-0.88-5.455-2.512c1.401-0.143,3.737,0.456,5.001,1.969L33.469,94.308L33.2,93.654
			c-0.746-1.822-0.173-4.146,0.615-5.306C34.621,90.313,34.726,93.364,33.469,94.308L33.469,94.308z M31.201,90.469L31.201,90.469
			l-0.2-0.679c-0.557-1.885,0.247-4.143,1.15-5.217C32.753,86.608,32.548,89.655,31.201,90.469l-0.397-0.588
			c-1.104-1.631-3.367-2.459-4.775-2.458C27.22,89.183,29.71,90.976,31.201,90.469L31.201,90.469z M29.335,86.42L29.335,86.42
			c-1.535,0.357-3.83-1.675-4.837-3.546c1.402,0.138,3.569,1.189,4.502,2.923L29.335,86.42c1.422-0.675,1.935-3.685,1.544-5.77
			c-1.007,0.978-2.037,3.143-1.674,5.076L29.335,86.42L29.335,86.42z M27.889,82.208L27.889,82.208l-0.06-0.705
			c-0.165-1.958,1.079-4.011,2.181-4.884C30.188,78.733,29.372,81.679,27.889,82.208l-0.271-0.655
			c-0.752-1.818-2.8-3.08-4.181-3.357C24.248,80.158,26.326,82.409,27.889,82.208L27.889,82.208z M26.878,77.871l0.012-0.707
			c0.034-1.966,1.481-3.883,2.665-4.642C29.518,74.643,28.408,77.492,26.878,77.871l-0.203-0.678
			c-0.563-1.884-2.474-3.345-3.819-3.76C23.464,75.467,25.303,77.915,26.878,77.871L26.878,77.871L26.878,77.871z M26.313,73.454
			L26.313,73.454c-1.572-0.113-3.152-2.732-3.551-4.817c1.296,0.547,3.048,2.191,3.418,4.123L26.313,73.454
			c1.56-0.223,2.954-2.947,3.206-5.053c-1.255,0.636-2.888,2.398-3.122,4.35L26.313,73.454L26.313,73.454z M26.199,69.004
			c-1.553-0.27-2.859-3.034-3.043-5.147c1.233,0.673,2.81,2.483,2.981,4.443L26.199,69.004c1.574-0.067,3.238-2.637,3.702-4.708
			c-1.313,0.507-3.117,2.098-3.548,4.018L26.199,69.004L26.199,69.004L26.199,69.004z M26.536,64.565L26.536,64.565
			c-1.516-0.425-2.536-3.304-2.504-5.426c1.159,0.794,2.543,2.752,2.515,4.718L26.536,64.565c1.573,0.091,3.489-2.301,4.162-4.315
			c-1.358,0.373-3.314,1.777-3.938,3.643L26.536,64.565L26.536,64.565z M27.323,60.18l0.291-0.645
			c0.809-1.795,2.898-2.995,4.286-3.232C31.027,58.241,28.879,60.428,27.323,60.18l0.082-0.701c0.228-1.953-0.95-4.041-2.024-4.946
			C25.136,56.64,25.858,59.607,27.323,60.18L27.323,60.18L27.323,60.18z M28.551,55.898c-1.4-0.717-1.817-3.742-1.358-5.815
			c0.975,1.009,1.936,3.204,1.511,5.124L28.551,55.898c1.522,0.401,3.882-1.561,4.948-3.401c-1.405,0.096-3.605,1.082-4.592,2.787
			L28.551,55.898L28.551,55.898L28.551,55.898z M30.207,51.758L30.207,51.758c-1.32-0.854-1.428-3.905-0.761-5.921
			c0.868,1.1,1.601,3.381,0.983,5.249L30.207,51.758c1.474,0.552,4.02-1.165,5.268-2.889c-1.408-0.044-3.696,0.717-4.852,2.314
			L30.207,51.758L30.207,51.758z M32.275,47.805L32.275,47.805c1.41,0.697,4.117-0.757,5.533-2.348
			c-1.396-0.186-3.75,0.343-5.062,1.818L32.275,47.805l0.289-0.647c0.804-1.797,0.306-4.139-0.446-5.321
			C31.251,43.777,31.049,46.824,32.275,47.805L32.275,47.805z M34.732,44.079L34.732,44.079c-1.12-1.099-0.609-4.11,0.451-5.954
			c0.628,1.251,0.886,3.631-0.097,5.338L34.732,44.079l0.524-0.48c1.454-1.336,3.849-1.627,5.219-1.304
			C38.906,43.737,36.065,44.912,34.732,44.079L34.732,44.079L34.732,44.079z M37.556,40.616L37.556,40.616l0.569-0.427
			c1.583-1.184,3.995-1.233,5.325-0.775C41.743,40.693,38.797,41.579,37.556,40.616l0.414-0.577c1.15-1.601,1.136-3.995,0.638-5.302
			C37.367,36.466,36.553,39.411,37.556,40.616L37.556,40.616z M40.717,37.453L40.717,37.453c-0.876-1.299,0.233-4.148,1.643-5.744
			c0.362,1.35,0.134,3.734-1.173,5.212L40.717,37.453c1.137,1.082,4.158,0.495,5.986-0.605c-1.277-0.59-3.682-0.781-5.377,0.239
			L40.717,37.453L40.717,37.453z M44.183,34.621L44.183,34.621c-0.74-1.38,0.652-4.104,2.217-5.55
			c0.224,1.38-0.246,3.728-1.696,5.069L44.183,34.621l0.643-0.304c1.79-0.846,4.162-0.416,5.373,0.299
			C48.267,35.529,45.203,35.811,44.183,34.621L44.183,34.621L44.183,34.621z M47.917,32.15l0.671-0.238
			c1.866-0.662,4.183,0.002,5.315,0.834C51.889,33.461,48.812,33.436,47.917,32.15l0.567-0.428c1.579-1.189,2.284-3.479,2.202-4.874
			C48.982,28.132,47.321,30.704,47.917,32.15L47.917,32.15L47.917,32.15z M51.883,30.065L51.883,30.065
			c-0.446-1.499,1.467-3.892,3.293-4.998c-0.06,1.395-0.994,3.604-2.685,4.629L51.883,30.065l0.692-0.17
			c1.924-0.474,4.161,0.421,5.203,1.361C55.701,31.766,52.643,31.434,51.883,30.065L51.883,30.065z M73.058,114.075L73.058,114.075
			c0.361,1.52,3.217,2.656,5.355,2.718c-0.749-1.184-2.662-2.641-4.643-2.698L73.058,114.075c-0.024-1.564,2.467-3.36,4.524-3.94
			c-0.435,1.329-1.932,3.208-3.839,3.747L73.058,114.075L73.058,114.075z M77.506,113.484c-0.183-1.553,2.113-3.589,4.102-4.371
			c-0.298,1.366-1.597,3.384-3.439,4.109L77.506,113.484l0.711-0.052c1.976-0.141,4.028,1.118,4.893,2.219
			C80.976,115.805,78.019,114.961,77.506,113.484L77.506,113.484L77.506,113.484z M81.871,112.452l0.633-0.327
			c1.76-0.905,2.846-3.042,3.005-4.432C83.61,108.67,81.532,110.925,81.871,112.452l0.702-0.123
			c1.952-0.337,4.121,0.709,5.094,1.718C85.56,114.414,82.532,113.87,81.871,112.452L81.871,112.452L81.871,112.452z M86.11,110.989
			L86.11,110.989c-0.492-1.485,1.346-3.936,3.137-5.097c-0.016,1.398-0.881,3.633-2.54,4.709L86.11,110.989l0.686-0.192
			c1.908-0.532,4.172,0.293,5.243,1.201C89.98,112.571,86.912,112.334,86.11,110.989L86.11,110.989L86.11,110.989z M90.18,109.109
			c0.935,1.259,4.011,1.189,6.001,0.413c-1.157-0.796-3.494-1.39-5.338-0.672L90.18,109.109c-0.641-1.428,0.94-4.049,2.604-5.383
			c0.125,1.392-0.508,3.702-2.049,4.939L90.18,109.109L90.18,109.109L90.18,109.109z M94.038,106.833
			c-0.782-1.356,0.525-4.122,2.044-5.615c0.267,1.372-0.129,3.734-1.537,5.117L94.038,106.833l0.634-0.323
			c1.762-0.901,4.147-0.543,5.38,0.134C98.15,107.615,95.096,107.991,94.038,106.833L94.038,106.833L94.038,106.833z
			 M97.646,104.183c1.17,1.047,4.171,0.367,5.965-0.789c-1.295-0.55-3.704-0.668-5.367,0.404L97.646,104.183l0.454-0.545
			c1.26-1.519,1.415-3.907,1.01-5.245C97.75,100.03,96.731,102.911,97.646,104.183L97.646,104.183L97.646,104.183z M100.968,101.186
			l0.395-0.588c1.1-1.636,1.011-4.028,0.473-5.32C100.649,97.045,99.927,100.013,100.968,101.186l0.555-0.443
			c1.545-1.232,3.954-1.356,5.299-0.939C105.155,101.135,102.238,102.111,100.968,101.186L100.968,101.186L100.968,101.186z
			 M103.968,97.874L103.968,97.874c1.358,0.792,4.161-0.471,5.686-1.959c-1.38-0.281-3.765,0.083-5.177,1.463L103.968,97.874
			c-1.154-1.064-0.737-4.089,0.265-5.964c0.667,1.23,0.999,3.601,0.07,5.338L103.968,97.874L103.968,97.874z M106.617,94.278
			c1.431,0.653,4.092-0.883,5.458-2.517c-1.401-0.142-3.737,0.459-5.002,1.973L106.617,94.278l0.269-0.654
			c0.748-1.822,0.178-4.147-0.611-5.306C105.468,90.284,105.36,93.335,106.617,94.278L106.617,94.278L106.617,94.278z
			 M108.888,90.437L108.888,90.437c1.491,0.506,3.983-1.288,5.176-3.05c-1.409-0.001-3.672,0.829-4.778,2.462L108.888,90.437
			c-1.346-0.812-1.548-3.859-0.945-5.896c0.902,1.074,1.705,3.331,1.146,5.216L108.888,90.437L108.888,90.437z M110.757,86.387
			c1.535,0.356,3.832-1.678,4.84-3.55c-1.401,0.139-3.57,1.192-4.504,2.927L110.757,86.387c-1.421-0.673-1.932-3.683-1.538-5.769
			c1.007,0.977,2.035,3.142,1.67,5.075L110.757,86.387L110.757,86.387L110.757,86.387z M112.207,82.174L112.207,82.174
			c1.563,0.199,3.642-2.054,4.455-4.016c-1.381,0.278-3.431,1.542-4.184,3.36L112.207,82.174c-1.483-0.528-2.297-3.473-2.116-5.588
			c1.1,0.872,2.343,2.924,2.176,4.882L112.207,82.174L112.207,82.174z M113.222,77.835c1.575,0.043,3.416-2.406,4.025-4.441
			c-1.346,0.416-3.257,1.878-3.822,3.763L113.222,77.835c-1.529-0.377-2.637-3.225-2.673-5.346c1.184,0.757,2.629,2.674,2.661,4.639
			L113.222,77.835L113.222,77.835L113.222,77.835z M113.791,73.418L113.791,73.418c1.572-0.114,3.154-2.735,3.555-4.819
			c-1.296,0.548-3.05,2.193-3.422,4.125L113.791,73.418c-1.56-0.222-2.952-2.945-3.202-5.051c1.254,0.635,2.886,2.396,3.118,4.348
			L113.791,73.418L113.791,73.418z M113.909,68.968l-0.155-0.69c-0.429-1.919-2.232-3.509-3.544-4.015
			C110.673,66.333,112.335,68.902,113.909,68.968l0.062-0.704c0.173-1.96,1.751-3.771,2.985-4.445
			C116.77,65.932,115.461,68.697,113.909,68.968L113.909,68.968L113.909,68.968z M113.575,64.529
			c1.517-0.426,2.539-3.306,2.51-5.428c-1.16,0.794-2.546,2.755-2.519,4.72L113.575,64.529c-1.573,0.092-3.487-2.298-4.158-4.311
			c1.358,0.372,3.313,1.774,3.934,3.64L113.575,64.529L113.575,64.529L113.575,64.529z M112.791,60.145
			c1.466-0.575,2.191-3.542,1.947-5.649c-1.074,0.906-2.254,2.995-2.028,4.948L112.791,60.145c-1.555,0.25-3.702-1.937-4.575-3.873
			c1.389,0.236,3.477,1.434,4.284,3.228L112.791,60.145L112.791,60.145L112.791,60.145z M111.568,55.864L111.568,55.864
			c1.4-0.718,1.82-3.743,1.363-5.816c-0.976,1.01-1.938,3.206-1.515,5.125L111.568,55.864c-1.523,0.402-3.881-1.558-4.945-3.397
			c1.405,0.094,3.604,1.079,4.59,2.783L111.568,55.864L111.568,55.864z M109.915,51.726L109.915,51.726l-0.415-0.575
			c-1.155-1.596-3.442-2.356-4.85-2.31C105.896,50.564,108.441,52.279,109.915,51.726l-0.221-0.671
			c-0.616-1.868,0.119-4.149,0.988-5.25C111.346,47.82,111.236,50.871,109.915,51.726L109.915,51.726z M107.851,47.774
			c-1.411,0.698-4.117-0.754-5.531-2.344c1.396-0.187,3.749,0.34,5.059,1.814L107.851,47.774l-0.288-0.646
			c-0.803-1.797-0.303-4.139,0.45-5.321C108.878,43.746,109.078,46.792,107.851,47.774L107.851,47.774L107.851,47.774z
			 M105.396,44.05c1.122-1.1,0.614-4.111-0.445-5.953c-0.629,1.252-0.888,3.632,0.093,5.338L105.396,44.05l-0.523-0.48
			c-1.453-1.335-3.848-1.624-5.219-1.3C101.223,43.711,104.063,44.884,105.396,44.05L105.396,44.05L105.396,44.05L105.396,44.05z
			 M102.575,40.59L102.575,40.59l-0.568-0.426c-1.582-1.182-3.994-1.23-5.325-0.771C98.389,40.67,101.334,41.553,102.575,40.59
			l-0.413-0.576c-1.149-1.6-1.133-3.994-0.634-5.302C102.768,36.439,103.58,39.384,102.575,40.59L102.575,40.59z M99.417,37.428
			c0.877-1.3-0.229-4.148-1.638-5.743c-0.364,1.351-0.138,3.734,1.169,5.211L99.417,37.428c-1.137,1.083-4.157,0.498-5.985-0.6
			c1.278-0.591,3.682-0.784,5.376,0.234L99.417,37.428L99.417,37.428L99.417,37.428z M95.954,34.6
			c0.741-1.381-0.649-4.104-2.213-5.549c-0.225,1.381,0.242,3.727,1.692,5.067L95.954,34.6l-0.643-0.304
			c-1.789-0.845-4.162-0.412-5.373,0.304C91.869,35.511,94.932,35.791,95.954,34.6L95.954,34.6L95.954,34.6L95.954,34.6z
			 M92.222,32.132c0.597-1.447-1.062-4.017-2.765-5.3c-0.084,1.395,0.62,3.685,2.197,4.872L92.222,32.132
			c-0.895,1.287-3.973,1.314-5.986,0.601c1.133-0.833,3.45-1.499,5.316-0.839L92.222,32.132L92.222,32.132z"/>
	</g>
	<g>
		<defs>
			<polygon id="SVGID_00000178178108478511565720000017399074963177575574_" points="86.005,61.053 106.062,54.313 111.875,56.875 
				122.562,44.438 120.516,71.5 112.514,99.509 92.007,115.515 85.005,111.513 88.006,102.51 			"/>
		</defs>
		<clipPath id="SVGID_00000047043319877741842480000004986555081165839549_">
			<use xlink:href="#SVGID_00000178178108478511565720000017399074963177575574_"  style="overflow:visible;"/>
		</clipPath>
		
			<path style="clip-path:url(#SVGID_00000047043319877741842480000004986555081165839549_);fill-rule:evenodd;clip-rule:evenodd;fill:#FFFFFF;" d="
			M88.258,30.05c-0.761,1.37-3.82,1.703-5.896,1.195c1.043-0.941,3.281-1.837,5.204-1.365L88.258,30.05l-0.608-0.369
			c-1.69-1.023-2.623-3.231-2.681-4.627C86.793,26.159,88.705,28.551,88.258,30.05L88.258,30.05z M70.045,112.892L70.045,112.892
			c0.652,0,1.179,0.523,1.179,1.17c0,0.645-0.528,1.169-1.18,1.17s-1.179-0.523-1.179-1.169
			C68.866,113.417,69.393,112.892,70.045,112.892L70.045,112.892z M85.637,28.836L85.637,28.836L85.1,28.372
			c-1.493-1.292-3.896-1.509-5.256-1.145C81.455,28.621,84.329,29.711,85.637,28.836L85.637,28.836z M54.609,28.849L54.609,28.849
			c1.307,0.874,4.182-0.218,5.794-1.613c-1.36-0.363-3.763-0.145-5.257,1.149L54.609,28.849L54.609,28.849z M67.011,114.078
			L67.011,114.078c-0.362,1.521-3.219,2.659-5.357,2.722c0.75-1.184,2.664-2.643,4.645-2.702L67.011,114.078
			c0.025-1.564-2.464-3.358-4.521-3.936c0.435,1.329,1.929,3.207,3.836,3.744L67.011,114.078L67.011,114.078z M62.564,113.491
			L62.564,113.491c0.184-1.553-2.11-3.587-4.098-4.367c0.297,1.365,1.593,3.383,3.436,4.106L62.564,113.491l-0.711-0.051
			c-1.976-0.139-4.028,1.121-4.895,2.223C59.092,115.814,62.049,114.967,62.564,113.491L62.564,113.491z M58.199,112.462
			L58.199,112.462c-0.663,1.418-3.691,1.965-5.798,1.6c0.974-1.011,3.143-2.058,5.095-1.723L58.199,112.462
			c0.34-1.527-1.736-3.781-3.633-4.755c0.156,1.389,1.242,3.526,3,4.429L58.199,112.462L58.199,112.462z M53.962,111.002
			L53.962,111.002c0.493-1.486-1.343-3.935-3.132-5.094c0.015,1.398,0.877,3.632,2.536,4.707L53.962,111.002l-0.686-0.191
			c-1.908-0.531-4.172,0.297-5.244,1.205C50.09,112.588,53.158,112.348,53.962,111.002L53.962,111.002z M49.893,109.125
			L49.893,109.125c-0.936,1.26-4.012,1.192-6.002,0.418c1.158-0.797,3.495-1.393,5.34-0.676L49.893,109.125
			c0.642-1.428-0.937-4.049-2.599-5.381c-0.127,1.392,0.504,3.701,2.045,4.937L49.893,109.125L49.893,109.125z M46.037,106.852
			L46.037,106.852c0.784-1.357-0.521-4.121-2.039-5.614c-0.268,1.372,0.126,3.734,1.533,5.116L46.037,106.852l-0.633-0.322
			c-1.761-0.9-4.147-0.54-5.38,0.138C41.924,107.638,44.978,108.012,46.037,106.852L46.037,106.852z M42.431,104.205L42.431,104.205
			c-1.171,1.048-4.171,0.37-5.964-0.784c1.296-0.551,3.705-0.671,5.366,0.399L42.431,104.205l-0.453-0.545
			c-1.26-1.518-1.412-3.906-1.006-5.244C42.331,100.053,43.348,102.933,42.431,104.205L42.431,104.205z M39.113,101.212
			c-1.271,0.926-4.187-0.048-5.854-1.377c1.344-0.418,3.754-0.297,5.298,0.934L39.113,101.212c1.041-1.175,0.322-4.142-0.864-5.907
			c-0.539,1.292-0.63,3.684,0.469,5.319L39.113,101.212L39.113,101.212L39.113,101.212z M36.115,97.902L36.115,97.902
			c-1.358,0.793-4.16-0.467-5.683-1.955c1.38-0.282,3.765,0.08,5.176,1.459L36.115,97.902c1.156-1.065,0.741-4.089-0.26-5.963
			c-0.668,1.231-1.001,3.602-0.074,5.338L36.115,97.902L36.115,97.902z M33.469,94.308L33.469,94.308
			c-1.432,0.655-4.091-0.88-5.455-2.512c1.401-0.143,3.737,0.456,5.001,1.969L33.469,94.308L33.2,93.654
			c-0.746-1.822-0.173-4.146,0.615-5.306C34.621,90.313,34.726,93.364,33.469,94.308L33.469,94.308z M31.201,90.469L31.201,90.469
			l-0.2-0.679c-0.557-1.885,0.247-4.143,1.15-5.217C32.753,86.608,32.548,89.655,31.201,90.469l-0.397-0.588
			c-1.104-1.631-3.367-2.459-4.775-2.458C27.22,89.183,29.71,90.976,31.201,90.469L31.201,90.469z M29.335,86.42L29.335,86.42
			c-1.535,0.357-3.83-1.675-4.837-3.546c1.402,0.138,3.569,1.189,4.502,2.923L29.335,86.42c1.422-0.675,1.935-3.685,1.544-5.77
			c-1.007,0.978-2.037,3.143-1.674,5.076L29.335,86.42L29.335,86.42z M27.889,82.208L27.889,82.208l-0.06-0.705
			c-0.165-1.958,1.079-4.011,2.181-4.884C30.188,78.733,29.372,81.679,27.889,82.208l-0.271-0.655
			c-0.752-1.818-2.8-3.08-4.181-3.357C24.248,80.158,26.326,82.409,27.889,82.208L27.889,82.208z M26.878,77.871l0.012-0.707
			c0.034-1.966,1.481-3.883,2.665-4.642C29.518,74.643,28.408,77.492,26.878,77.871l-0.203-0.678
			c-0.563-1.884-2.474-3.345-3.819-3.76C23.464,75.467,25.303,77.915,26.878,77.871L26.878,77.871L26.878,77.871z M26.313,73.454
			L26.313,73.454c-1.572-0.113-3.152-2.732-3.551-4.817c1.296,0.547,3.048,2.191,3.418,4.123L26.313,73.454
			c1.56-0.223,2.954-2.947,3.206-5.053c-1.255,0.636-2.888,2.398-3.122,4.35L26.313,73.454L26.313,73.454z M26.199,69.004
			c-1.553-0.27-2.859-3.034-3.043-5.147c1.233,0.673,2.81,2.483,2.981,4.443L26.199,69.004c1.574-0.067,3.238-2.637,3.702-4.708
			c-1.313,0.507-3.117,2.098-3.548,4.018L26.199,69.004L26.199,69.004L26.199,69.004z M26.536,64.565L26.536,64.565
			c-1.516-0.425-2.536-3.304-2.504-5.426c1.159,0.794,2.543,2.752,2.515,4.718L26.536,64.565c1.573,0.091,3.489-2.301,4.162-4.315
			c-1.358,0.373-3.314,1.777-3.938,3.643L26.536,64.565L26.536,64.565z M27.323,60.18l0.291-0.645
			c0.809-1.795,2.898-2.995,4.286-3.232C31.027,58.241,28.879,60.428,27.323,60.18l0.082-0.701c0.228-1.953-0.95-4.041-2.024-4.946
			C25.136,56.64,25.858,59.607,27.323,60.18L27.323,60.18L27.323,60.18z M28.551,55.898c-1.4-0.717-1.817-3.742-1.358-5.815
			c0.975,1.009,1.936,3.204,1.511,5.124L28.551,55.898c1.522,0.401,3.882-1.561,4.948-3.401c-1.405,0.096-3.605,1.082-4.592,2.787
			L28.551,55.898L28.551,55.898L28.551,55.898z M30.207,51.758L30.207,51.758c-1.32-0.854-1.428-3.905-0.761-5.921
			c0.868,1.1,1.601,3.381,0.983,5.249L30.207,51.758c1.474,0.552,4.02-1.165,5.268-2.889c-1.408-0.044-3.696,0.717-4.852,2.314
			L30.207,51.758L30.207,51.758z M32.275,47.805L32.275,47.805c1.41,0.697,4.117-0.757,5.533-2.348
			c-1.396-0.186-3.75,0.343-5.062,1.818L32.275,47.805l0.289-0.647c0.804-1.797,0.306-4.139-0.446-5.321
			C31.251,43.777,31.049,46.824,32.275,47.805L32.275,47.805z M34.732,44.079L34.732,44.079c-1.12-1.099-0.609-4.11,0.451-5.954
			c0.628,1.251,0.886,3.631-0.097,5.338L34.732,44.079l0.524-0.48c1.454-1.336,3.849-1.627,5.219-1.304
			C38.906,43.737,36.065,44.912,34.732,44.079L34.732,44.079L34.732,44.079z M37.556,40.616L37.556,40.616l0.569-0.427
			c1.583-1.184,3.995-1.233,5.325-0.775C41.743,40.693,38.797,41.579,37.556,40.616l0.414-0.577c1.15-1.601,1.136-3.995,0.638-5.302
			C37.367,36.466,36.553,39.411,37.556,40.616L37.556,40.616z M40.717,37.453L40.717,37.453c-0.876-1.299,0.233-4.148,1.643-5.744
			c0.362,1.35,0.134,3.734-1.173,5.212L40.717,37.453c1.137,1.082,4.158,0.495,5.986-0.605c-1.277-0.59-3.682-0.781-5.377,0.239
			L40.717,37.453L40.717,37.453z M44.183,34.621L44.183,34.621c-0.74-1.38,0.652-4.104,2.217-5.55
			c0.224,1.38-0.246,3.728-1.696,5.069L44.183,34.621l0.643-0.304c1.79-0.846,4.162-0.416,5.373,0.299
			C48.267,35.529,45.203,35.811,44.183,34.621L44.183,34.621L44.183,34.621z M47.917,32.15l0.671-0.238
			c1.866-0.662,4.183,0.002,5.315,0.834C51.889,33.461,48.812,33.436,47.917,32.15l0.567-0.428c1.579-1.189,2.284-3.479,2.202-4.874
			C48.982,28.132,47.321,30.704,47.917,32.15L47.917,32.15L47.917,32.15z M51.883,30.065L51.883,30.065
			c-0.446-1.499,1.467-3.892,3.293-4.998c-0.06,1.395-0.994,3.604-2.685,4.629L51.883,30.065l0.692-0.17
			c1.924-0.474,4.161,0.421,5.203,1.361C55.701,31.766,52.643,31.434,51.883,30.065L51.883,30.065z M73.058,114.075L73.058,114.075
			c0.361,1.52,3.217,2.656,5.355,2.718c-0.749-1.184-2.662-2.641-4.643-2.698L73.058,114.075c-0.024-1.564,2.467-3.36,4.524-3.94
			c-0.435,1.329-1.932,3.208-3.839,3.747L73.058,114.075L73.058,114.075z M77.506,113.484c-0.183-1.553,2.113-3.589,4.102-4.371
			c-0.298,1.366-1.597,3.384-3.439,4.109L77.506,113.484l0.711-0.052c1.976-0.141,4.028,1.118,4.893,2.219
			C80.976,115.805,78.019,114.961,77.506,113.484L77.506,113.484L77.506,113.484z M81.871,112.452l0.633-0.327
			c1.76-0.905,2.846-3.042,3.005-4.432C83.61,108.67,81.532,110.925,81.871,112.452l0.702-0.123
			c1.952-0.337,4.121,0.709,5.094,1.718C85.56,114.414,82.532,113.87,81.871,112.452L81.871,112.452L81.871,112.452z M86.11,110.989
			L86.11,110.989c-0.492-1.485,1.346-3.936,3.137-5.097c-0.016,1.398-0.881,3.633-2.54,4.709L86.11,110.989l0.686-0.192
			c1.908-0.532,4.172,0.293,5.243,1.201C89.98,112.571,86.912,112.334,86.11,110.989L86.11,110.989L86.11,110.989z M90.18,109.109
			c0.935,1.259,4.011,1.189,6.001,0.413c-1.157-0.796-3.494-1.39-5.338-0.672L90.18,109.109c-0.641-1.428,0.94-4.049,2.604-5.383
			c0.125,1.392-0.508,3.702-2.049,4.939L90.18,109.109L90.18,109.109L90.18,109.109z M94.038,106.833
			c-0.782-1.356,0.525-4.122,2.044-5.615c0.267,1.372-0.129,3.734-1.537,5.117L94.038,106.833l0.634-0.323
			c1.762-0.901,4.147-0.543,5.38,0.134C98.15,107.615,95.096,107.991,94.038,106.833L94.038,106.833L94.038,106.833z
			 M97.646,104.183c1.17,1.047,4.171,0.367,5.965-0.789c-1.295-0.55-3.704-0.668-5.367,0.404L97.646,104.183l0.454-0.545
			c1.26-1.519,1.415-3.907,1.01-5.245C97.75,100.03,96.731,102.911,97.646,104.183L97.646,104.183L97.646,104.183z M100.968,101.186
			l0.395-0.588c1.1-1.636,1.011-4.028,0.473-5.32C100.649,97.045,99.927,100.013,100.968,101.186l0.555-0.443
			c1.545-1.232,3.954-1.356,5.299-0.939C105.155,101.135,102.238,102.111,100.968,101.186L100.968,101.186L100.968,101.186z
			 M103.968,97.874L103.968,97.874c1.358,0.792,4.161-0.471,5.686-1.959c-1.38-0.281-3.765,0.083-5.177,1.463L103.968,97.874
			c-1.154-1.064-0.737-4.089,0.265-5.964c0.667,1.23,0.999,3.601,0.07,5.338L103.968,97.874L103.968,97.874z M106.617,94.278
			c1.431,0.653,4.092-0.883,5.458-2.517c-1.401-0.142-3.737,0.459-5.002,1.973L106.617,94.278l0.269-0.654
			c0.748-1.822,0.178-4.147-0.611-5.306C105.468,90.284,105.36,93.335,106.617,94.278L106.617,94.278L106.617,94.278z
			 M108.888,90.437L108.888,90.437c1.491,0.506,3.983-1.288,5.176-3.05c-1.409-0.001-3.672,0.829-4.778,2.462L108.888,90.437
			c-1.346-0.812-1.548-3.859-0.945-5.896c0.902,1.074,1.705,3.331,1.146,5.216L108.888,90.437L108.888,90.437z M110.757,86.387
			c1.535,0.356,3.832-1.678,4.84-3.55c-1.401,0.139-3.57,1.192-4.504,2.927L110.757,86.387c-1.421-0.673-1.932-3.683-1.538-5.769
			c1.007,0.977,2.035,3.142,1.67,5.075L110.757,86.387L110.757,86.387L110.757,86.387z M112.207,82.174L112.207,82.174
			c1.563,0.199,3.642-2.054,4.455-4.016c-1.381,0.278-3.431,1.542-4.184,3.36L112.207,82.174c-1.483-0.528-2.297-3.473-2.116-5.588
			c1.1,0.872,2.343,2.924,2.176,4.882L112.207,82.174L112.207,82.174z M113.222,77.835c1.575,0.043,3.416-2.406,4.025-4.441
			c-1.346,0.416-3.257,1.878-3.822,3.763L113.222,77.835c-1.529-0.377-2.637-3.225-2.673-5.346c1.184,0.757,2.629,2.674,2.661,4.639
			L113.222,77.835L113.222,77.835L113.222,77.835z M113.791,73.418L113.791,73.418c1.572-0.114,3.154-2.735,3.555-4.819
			c-1.296,0.548-3.05,2.193-3.422,4.125L113.791,73.418c-1.56-0.222-2.952-2.945-3.202-5.051c1.254,0.635,2.886,2.396,3.118,4.348
			L113.791,73.418L113.791,73.418z M113.909,68.968l-0.155-0.69c-0.429-1.919-2.232-3.509-3.544-4.015
			C110.673,66.333,112.335,68.902,113.909,68.968l0.062-0.704c0.173-1.96,1.751-3.771,2.985-4.445
			C116.77,65.932,115.461,68.697,113.909,68.968L113.909,68.968L113.909,68.968z M113.575,64.529
			c1.517-0.426,2.539-3.306,2.51-5.428c-1.16,0.794-2.546,2.755-2.519,4.72L113.575,64.529c-1.573,0.092-3.487-2.298-4.158-4.311
			c1.358,0.372,3.313,1.774,3.934,3.64L113.575,64.529L113.575,64.529L113.575,64.529z M112.791,60.145
			c1.466-0.575,2.191-3.542,1.947-5.649c-1.074,0.906-2.254,2.995-2.028,4.948L112.791,60.145c-1.555,0.25-3.702-1.937-4.575-3.873
			c1.389,0.236,3.477,1.434,4.284,3.228L112.791,60.145L112.791,60.145L112.791,60.145z M111.568,55.864L111.568,55.864
			c1.4-0.718,1.82-3.743,1.363-5.816c-0.976,1.01-1.938,3.206-1.515,5.125L111.568,55.864c-1.523,0.402-3.881-1.558-4.945-3.397
			c1.405,0.094,3.604,1.079,4.59,2.783L111.568,55.864L111.568,55.864z M109.915,51.726L109.915,51.726l-0.415-0.575
			c-1.155-1.596-3.442-2.356-4.85-2.31C105.896,50.564,108.441,52.279,109.915,51.726l-0.221-0.671
			c-0.616-1.868,0.119-4.149,0.988-5.25C111.346,47.82,111.236,50.871,109.915,51.726L109.915,51.726z M107.851,47.774
			c-1.411,0.698-4.117-0.754-5.531-2.344c1.396-0.187,3.749,0.34,5.059,1.814L107.851,47.774l-0.288-0.646
			c-0.803-1.797-0.303-4.139,0.45-5.321C108.878,43.746,109.078,46.792,107.851,47.774L107.851,47.774L107.851,47.774z
			 M105.396,44.05c1.122-1.1,0.614-4.111-0.445-5.953c-0.629,1.252-0.888,3.632,0.093,5.338L105.396,44.05l-0.523-0.48
			c-1.453-1.335-3.848-1.624-5.219-1.3C101.223,43.711,104.063,44.884,105.396,44.05L105.396,44.05L105.396,44.05L105.396,44.05z
			 M102.575,40.59L102.575,40.59l-0.568-0.426c-1.582-1.182-3.994-1.23-5.325-0.771C98.389,40.67,101.334,41.553,102.575,40.59
			l-0.413-0.576c-1.149-1.6-1.133-3.994-0.634-5.302C102.768,36.439,103.58,39.384,102.575,40.59L102.575,40.59z M99.417,37.428
			c0.877-1.3-0.229-4.148-1.638-5.743c-0.364,1.351-0.138,3.734,1.169,5.211L99.417,37.428c-1.137,1.083-4.157,0.498-5.985-0.6
			c1.278-0.591,3.682-0.784,5.376,0.234L99.417,37.428L99.417,37.428L99.417,37.428z M95.954,34.6
			c0.741-1.381-0.649-4.104-2.213-5.549c-0.225,1.381,0.242,3.727,1.692,5.067L95.954,34.6l-0.643-0.304
			c-1.789-0.845-4.162-0.412-5.373,0.304C91.869,35.511,94.932,35.791,95.954,34.6L95.954,34.6L95.954,34.6L95.954,34.6z
			 M92.222,32.132c0.597-1.447-1.062-4.017-2.765-5.3c-0.084,1.395,0.62,3.685,2.197,4.872L92.222,32.132
			c-0.895,1.287-3.973,1.314-5.986,0.601c1.133-0.833,3.45-1.499,5.316-0.839L92.222,32.132L92.222,32.132z"/>
	</g>
	<path class="st5" d="M112.189,57.343L112.189,57.343l0.032-0.709c0.09-1.973-1.228-3.993-2.356-4.835
		C109.768,53.927,110.693,56.858,112.189,57.343L112.189,57.343z"/>
	<path class="st5" d="M27.982,57.343L27.982,57.343l-0.032-0.709c-0.09-1.973,1.228-3.993,2.356-4.835
		C30.403,53.927,29.478,56.858,27.982,57.343L27.982,57.343z"/>
</g>
</svg>
