<svg width="360" height="360" viewBox="0 0 360 360" fill="none" xmlns="http://www.w3.org/2000/svg">
<g clip-path="url(#clip0_30848_105884)">
<rect width="360" height="360" fill="#95001B"/>
<path d="M20.432 237.248C21.04 237.248 21.536 237.216 21.92 237.152C22.336 237.088 22.672 236.944 22.928 236.72C23.184 236.464 23.36 236.112 23.456 235.664C23.584 235.184 23.664 234.56 23.696 233.792L24.56 208.4H39.488V242H34.112V213.2H29.504L28.928 233.504C28.832 236.576 28.176 238.768 26.96 240.08C25.776 241.392 23.872 242.048 21.248 242.048H20.432V237.248ZM55.2414 233.456C54.9214 234.96 54.5214 236.288 54.0414 237.44C53.5934 238.56 52.9694 239.488 52.1694 240.224C51.4014 240.928 50.3934 241.44 49.1454 241.76C47.9294 242.08 46.4094 242.176 44.5854 242.048V237.344C45.9294 237.44 46.9854 237.312 47.7534 236.96C48.5214 236.608 49.0174 235.824 49.2414 234.608L49.2894 234.32L41.9934 208.4H47.2254L50.1054 219.872L51.7374 227.744L52.9854 219.92L55.3854 208.4H60.9054L55.2414 233.456ZM79.1551 208.4V242H73.8751V228.464C73.2991 229.104 72.5791 229.584 71.7151 229.904C70.8831 230.192 70.0991 230.336 69.3631 230.336C67.1871 230.336 65.5391 229.632 64.4191 228.224C63.3311 226.784 62.7871 224.912 62.7871 222.608V208.4H68.0671V222.176C68.0671 223.296 68.3711 224.128 68.9791 224.672C69.5871 225.216 70.3071 225.488 71.1391 225.488C71.9711 225.488 72.6271 225.2 73.1071 224.624C73.6191 224.016 73.8751 223.152 73.8751 222.032V208.4H79.1551ZM83.045 242V208.4H88.325V237.2H92.885V208.4H98.165V237.2H102.725V208.4H108.005V242H83.045ZM117.25 242H111.826V208.4H116.53V229.664L118.45 222.272L122.77 208.4H128.578V242H123.826V218.336L121.666 226.592L117.25 242ZM137.735 242H132.311V208.4H137.015V229.664L138.935 222.272L143.255 208.4H149.063V242H144.311V218.336L142.151 226.592L137.735 242ZM146.375 200.912C146.375 202.544 145.911 203.84 144.983 204.8C144.055 205.76 142.647 206.24 140.759 206.24C138.903 206.24 137.527 205.76 136.631 204.8C135.767 203.84 135.303 202.544 135.239 200.912H138.503C138.567 201.808 138.775 202.4 139.127 202.688C139.511 202.976 140.055 203.12 140.759 203.12C141.495 203.12 142.055 202.976 142.439 202.688C142.855 202.4 143.095 201.808 143.159 200.912H146.375ZM27.344 290H21.92V256.4H26.624V277.664L28.544 270.272L32.864 256.4H38.672V290H33.92V266.336L31.76 274.592L27.344 290ZM47.6844 290H42.4044V256.4H47.6844V270.8H53.6844V256.4H59.0604V290H53.6844V275.6H47.6844V290ZM61.3528 256.4H77.6728V261.2H72.1528V290H66.8728V261.2H61.3528V256.4ZM85.2781 270.56H92.5261V275.36H85.2781V285.2H94.3981V290H79.9981V256.4H94.3981V261.2H85.2781V270.56ZM97.718 290V256.4H111.638V261.2H102.998V290H97.718ZM122.977 256.4C125.633 256.4 127.601 257.104 128.881 258.512C130.193 259.92 130.849 261.984 130.849 264.704V269.072C130.849 271.792 130.193 273.856 128.881 275.264C127.601 276.672 125.633 277.376 122.977 277.376H120.481V290H115.201V256.4H122.977ZM120.481 261.2V272.576H122.977C123.809 272.576 124.449 272.352 124.897 271.904C125.345 271.456 125.569 270.624 125.569 269.408V264.368C125.569 263.152 125.345 262.32 124.897 261.872C124.449 261.424 123.809 261.2 122.977 261.2H120.481ZM138.719 290H133.295V256.4H137.999V277.664L139.919 270.272L144.239 256.4H150.047V290H145.295V266.336L143.135 274.592L138.719 290ZM161.555 256.4C164.211 256.4 166.179 257.104 167.459 258.512C168.771 259.92 169.427 261.984 169.427 264.704V269.072C169.427 271.792 168.771 273.856 167.459 275.264C166.179 276.672 164.211 277.376 161.555 277.376H159.059V290H153.779V256.4H161.555ZM159.059 261.2V272.576H161.555C162.387 272.576 163.027 272.352 163.475 271.904C163.923 271.456 164.147 270.624 164.147 269.408V264.368C164.147 263.152 163.923 262.32 163.475 261.872C163.027 261.424 162.387 261.2 161.555 261.2H159.059ZM176.721 282.272C176.721 283.488 176.961 284.352 177.441 284.864C177.953 285.344 178.625 285.584 179.457 285.584C180.289 285.584 180.945 285.344 181.425 284.864C181.937 284.352 182.193 283.488 182.193 282.272V264.128C182.193 262.912 181.937 262.064 181.425 261.584C180.945 261.072 180.289 260.816 179.457 260.816C178.625 260.816 177.953 261.072 177.441 261.584C176.961 262.064 176.721 262.912 176.721 264.128V282.272ZM171.441 264.464C171.441 261.744 172.129 259.664 173.505 258.224C174.881 256.752 176.865 256.016 179.457 256.016C182.049 256.016 184.033 256.752 185.409 258.224C186.785 259.664 187.473 261.744 187.473 264.464V281.936C187.473 284.656 186.785 286.752 185.409 288.224C184.033 289.664 182.049 290.384 179.457 290.384C176.865 290.384 174.881 289.664 173.505 288.224C172.129 286.752 171.441 284.656 171.441 281.936V264.464ZM198.872 256.4C201.624 256.4 203.608 257.04 204.824 258.32C206.072 259.6 206.696 261.536 206.696 264.128V265.328C206.696 267.056 206.424 268.48 205.88 269.6C205.336 270.72 204.472 271.552 203.288 272.096C204.728 272.64 205.736 273.536 206.312 274.784C206.92 276 207.224 277.504 207.224 279.296V282.032C207.224 284.624 206.552 286.608 205.208 287.984C203.864 289.328 201.864 290 199.208 290H190.904V256.4H198.872ZM196.184 274.88V285.2H199.208C200.104 285.2 200.776 284.96 201.224 284.48C201.704 284 201.944 283.136 201.944 281.888V278.96C201.944 277.392 201.672 276.32 201.128 275.744C200.616 275.168 199.752 274.88 198.536 274.88H196.184ZM196.184 261.2V270.08H198.248C199.24 270.08 200.008 269.824 200.552 269.312C201.128 268.8 201.416 267.872 201.416 266.528V264.656C201.416 263.44 201.192 262.56 200.744 262.016C200.328 261.472 199.656 261.2 198.728 261.2H196.184ZM227.492 290H222.164L221.252 283.904H214.772L213.86 290H209.012L214.388 256.4H222.116L227.492 290ZM215.444 279.344H220.532L217.988 262.352L215.444 279.344ZM235.231 290H229.951V256.4H235.231V270.8H241.231V256.4H246.607V290H241.231V275.6H235.231V290ZM255.716 290H250.436V256.4H255.716V270.8H261.716V256.4H267.092V290H261.716V275.6H255.716V290ZM270.92 290V256.4H276.2V269.024H278.696C281.352 269.024 283.32 269.728 284.6 271.136C285.912 272.544 286.568 274.608 286.568 277.328V281.696C286.568 284.416 285.912 286.48 284.6 287.888C283.32 289.296 281.352 290 278.696 290H270.92ZM278.696 285.2C279.528 285.2 280.168 284.976 280.616 284.528C281.064 284.08 281.288 283.248 281.288 282.032V276.992C281.288 275.776 281.064 274.944 280.616 274.496C280.168 274.048 279.528 273.824 278.696 273.824H276.2V285.2H278.696ZM289.592 290V256.4H294.872V290H289.592ZM304.141 290H298.717V256.4H303.421V277.664L305.341 270.272L309.661 256.4H315.469V290H310.717V266.336L308.557 274.592L304.141 290ZM312.781 248.912C312.781 250.544 312.317 251.84 311.389 252.8C310.461 253.76 309.053 254.24 307.165 254.24C305.309 254.24 303.933 253.76 303.037 252.8C302.173 251.84 301.709 250.544 301.645 248.912H304.909C304.973 249.808 305.181 250.4 305.533 250.688C305.917 250.976 306.461 251.12 307.165 251.12C307.901 251.12 308.461 250.976 308.845 250.688C309.261 250.4 309.501 249.808 309.565 248.912H312.781ZM27.2 338H21.92V304.4H38.576V338H33.2V309.2H27.2V338ZM50.1804 304.4C52.8364 304.4 54.8044 305.104 56.0844 306.512C57.3964 307.92 58.0524 309.984 58.0524 312.704V317.072C58.0524 319.792 57.3964 321.856 56.0844 323.264C54.8044 324.672 52.8364 325.376 50.1804 325.376H47.6844V338H42.4044V304.4H50.1804ZM47.6844 309.2V320.576H50.1804C51.0124 320.576 51.6524 320.352 52.1004 319.904C52.5484 319.456 52.7724 318.624 52.7724 317.408V312.368C52.7724 311.152 52.5484 310.32 52.1004 309.872C51.6524 309.424 51.0124 309.2 50.1804 309.2H47.6844ZM65.3461 330.272C65.3461 331.488 65.5861 332.352 66.0661 332.864C66.5781 333.344 67.2501 333.584 68.0821 333.584C68.9141 333.584 69.5701 333.344 70.0501 332.864C70.5621 332.352 70.8181 331.488 70.8181 330.272V312.128C70.8181 310.912 70.5621 310.064 70.0501 309.584C69.5701 309.072 68.9141 308.816 68.0821 308.816C67.2501 308.816 66.5781 309.072 66.0661 309.584C65.5861 310.064 65.3461 310.912 65.3461 312.128V330.272ZM60.0661 312.464C60.0661 309.744 60.7541 307.664 62.1301 306.224C63.5061 304.752 65.4901 304.016 68.0821 304.016C70.6741 304.016 72.6581 304.752 74.0341 306.224C75.4101 307.664 76.0981 309.744 76.0981 312.464V329.936C76.0981 332.656 75.4101 334.752 74.0341 336.224C72.6581 337.664 70.6741 338.384 68.0821 338.384C65.4901 338.384 63.5061 337.664 62.1301 336.224C60.7541 334.752 60.0661 332.656 60.0661 329.936V312.464ZM84.8094 318.56H92.0574V323.36H84.8094V333.2H93.9294V338H79.5294V304.4H93.9294V309.2H84.8094V318.56ZM104.113 324.608L102.481 327.68V338H97.2013V304.4H102.481V319.04L109.393 304.4H114.673L107.329 319.376L114.673 338H109.249L104.113 324.608ZM115.54 304.4H131.86V309.2H126.34V338H121.06V309.2H115.54V304.4Z" fill="white"/>
<path d="M20.4773 183.598V182.273H27.4403V183.598H24.7429V191H23.1747V183.598H20.4773ZM32.2087 191H30.5212L33.5937 182.273H35.5454L38.6221 191H36.9346L34.6036 184.062H34.5354L32.2087 191ZM32.2641 187.578H36.8664V188.848H32.2641V187.578ZM48.568 185.06C48.497 184.83 48.399 184.624 48.274 184.442C48.1518 184.257 48.0041 184.099 47.8308 183.969C47.6603 183.838 47.4643 183.74 47.2427 183.675C47.0211 183.607 46.7797 183.572 46.5183 183.572C46.0495 183.572 45.6319 183.69 45.2655 183.926C44.899 184.162 44.6106 184.509 44.4004 184.966C44.193 185.42 44.0893 185.974 44.0893 186.628C44.0893 187.287 44.193 187.845 44.4004 188.303C44.6078 188.76 44.8961 189.108 45.2655 189.347C45.6348 189.582 46.0637 189.7 46.5524 189.7C46.9956 189.7 47.3791 189.615 47.703 189.445C48.0297 189.274 48.2811 189.033 48.4572 188.72C48.6334 188.405 48.7214 188.036 48.7214 187.612L49.0794 187.668H46.7101V186.432H50.2512V187.48C50.2512 188.227 50.0922 188.874 49.774 189.419C49.4558 189.964 49.0183 190.385 48.4615 190.68C47.9047 190.973 47.2655 191.119 46.5439 191.119C45.7399 191.119 45.0339 190.939 44.426 190.578C43.8209 190.214 43.3478 189.699 43.0069 189.031C42.6689 188.361 42.4998 187.565 42.4998 186.645C42.4998 185.94 42.5993 185.311 42.7981 184.757C42.9998 184.203 43.2811 183.733 43.6419 183.347C44.0027 182.957 44.426 182.662 44.9118 182.46C45.3976 182.256 45.926 182.153 46.497 182.153C46.9799 182.153 47.4302 182.224 47.8478 182.366C48.2655 182.506 48.6362 182.705 48.9601 182.963C49.2868 183.222 49.5552 183.528 49.7655 183.884C49.9757 184.239 50.1135 184.631 50.1788 185.06H48.568ZM55.14 191V182.273H56.721V189.675H60.5647V191H55.14ZM66.8779 182.273V191H65.2969V182.273H66.8779ZM79.1217 182.273V191H77.7155L73.6033 185.055H73.5308V191H71.9499V182.273H73.3646L77.4726 188.222H77.5493V182.273H79.1217ZM84.2044 191V182.273H89.8805V183.598H85.7854V185.967H89.5865V187.293H85.7854V189.675H89.9146V191H84.2044ZM102.311 191H100.623L103.696 182.273H105.647L108.724 191H107.037L104.706 184.062H104.637L102.311 191ZM102.366 187.578H106.968V188.848H102.366V187.578ZM114.25 191L111.787 182.273H113.487L115.06 188.686H115.141L116.82 182.273H118.366L120.05 188.69H120.126L121.699 182.273H123.399L120.936 191H119.376L117.629 184.876H117.561L115.81 191H114.25ZM128.156 191H126.468L129.541 182.273H131.492L134.569 191H132.882L130.551 184.062H130.482L128.156 191ZM128.211 187.578H132.813V188.848H128.211V187.578ZM139.079 191V182.273H142.351C143.022 182.273 143.584 182.389 144.039 182.622C144.496 182.855 144.841 183.182 145.074 183.602C145.31 184.02 145.428 184.507 145.428 185.064C145.428 185.624 145.309 186.109 145.07 186.521C144.834 186.93 144.486 187.247 144.026 187.472C143.566 187.693 143 187.804 142.33 187.804H139.999V186.491H142.117C142.509 186.491 142.83 186.437 143.08 186.33C143.33 186.219 143.515 186.058 143.634 185.848C143.756 185.635 143.817 185.374 143.817 185.064C143.817 184.754 143.756 184.49 143.634 184.271C143.512 184.05 143.326 183.882 143.076 183.768C142.826 183.652 142.503 183.594 142.108 183.594H140.66V191H139.079ZM143.587 187.045L145.748 191H143.983L141.861 187.045H143.587ZM153.201 191H150.243V182.273H153.26C154.127 182.273 154.871 182.447 155.493 182.797C156.118 183.143 156.598 183.642 156.934 184.293C157.269 184.943 157.436 185.722 157.436 186.628C157.436 187.537 157.267 188.318 156.929 188.972C156.594 189.625 156.11 190.126 155.476 190.476C154.846 190.825 154.087 191 153.201 191ZM151.824 189.632H153.124C153.732 189.632 154.239 189.521 154.645 189.3C155.052 189.075 155.357 188.741 155.561 188.298C155.766 187.852 155.868 187.295 155.868 186.628C155.868 185.96 155.766 185.406 155.561 184.966C155.357 184.523 155.054 184.192 154.654 183.973C154.256 183.751 153.762 183.641 153.171 183.641H151.824V189.632ZM167.041 184.672C167.002 184.3 166.834 184.01 166.539 183.803C166.246 183.595 165.865 183.491 165.397 183.491C165.067 183.491 164.784 183.541 164.549 183.641C164.313 183.74 164.132 183.875 164.007 184.045C163.882 184.216 163.818 184.411 163.816 184.629C163.816 184.811 163.857 184.969 163.939 185.102C164.024 185.236 164.14 185.349 164.284 185.443C164.429 185.534 164.59 185.611 164.766 185.673C164.942 185.736 165.12 185.788 165.299 185.831L166.117 186.036C166.446 186.112 166.763 186.216 167.067 186.347C167.374 186.477 167.648 186.642 167.89 186.841C168.134 187.04 168.327 187.28 168.469 187.561C168.611 187.842 168.682 188.172 168.682 188.55C168.682 189.061 168.551 189.511 168.29 189.901C168.029 190.287 167.651 190.589 167.157 190.808C166.665 191.024 166.07 191.132 165.371 191.132C164.692 191.132 164.103 191.027 163.603 190.817C163.105 190.607 162.716 190.3 162.435 189.896C162.157 189.493 162.006 189.001 161.983 188.422H163.539C163.561 188.726 163.655 188.979 163.82 189.18C163.985 189.382 164.199 189.533 164.463 189.632C164.73 189.732 165.029 189.781 165.358 189.781C165.702 189.781 166.003 189.73 166.262 189.628C166.523 189.523 166.728 189.378 166.875 189.193C167.023 189.006 167.098 188.787 167.101 188.537C167.098 188.31 167.032 188.122 166.901 187.974C166.77 187.824 166.587 187.699 166.351 187.599C166.118 187.497 165.845 187.406 165.533 187.327L164.54 187.071C163.821 186.886 163.253 186.607 162.836 186.232C162.421 185.854 162.213 185.352 162.213 184.727C162.213 184.213 162.353 183.763 162.631 183.376C162.912 182.99 163.294 182.69 163.777 182.477C164.26 182.261 164.807 182.153 165.418 182.153C166.037 182.153 166.58 182.261 167.046 182.477C167.515 182.69 167.882 182.987 168.149 183.368C168.416 183.746 168.554 184.18 168.563 184.672H167.041ZM179.703 191V189.858L182.733 186.888C183.023 186.595 183.264 186.335 183.457 186.108C183.65 185.881 183.795 185.661 183.892 185.447C183.988 185.234 184.037 185.007 184.037 184.766C184.037 184.49 183.974 184.254 183.849 184.058C183.724 183.859 183.552 183.706 183.334 183.598C183.115 183.49 182.866 183.436 182.588 183.436C182.301 183.436 182.049 183.496 181.834 183.615C181.618 183.732 181.45 183.898 181.331 184.114C181.214 184.33 181.156 184.587 181.156 184.885H179.652C179.652 184.331 179.778 183.849 180.031 183.44C180.284 183.031 180.632 182.714 181.075 182.49C181.521 182.266 182.032 182.153 182.609 182.153C183.194 182.153 183.709 182.263 184.152 182.482C184.595 182.7 184.939 183 185.183 183.381C185.43 183.761 185.554 184.196 185.554 184.685C185.554 185.011 185.491 185.332 185.366 185.648C185.241 185.963 185.021 186.312 184.706 186.696C184.393 187.08 183.954 187.544 183.389 188.089L181.885 189.619V189.679H185.686V191H179.703ZM193.742 191.166C193.04 191.166 192.438 190.989 191.935 190.634C191.435 190.276 191.05 189.76 190.78 189.087C190.513 188.411 190.38 187.597 190.38 186.645C190.383 185.693 190.517 184.884 190.784 184.216C191.054 183.545 191.439 183.034 191.939 182.682C192.442 182.33 193.043 182.153 193.742 182.153C194.441 182.153 195.042 182.33 195.544 182.682C196.047 183.034 196.432 183.545 196.699 184.216C196.969 184.886 197.104 185.696 197.104 186.645C197.104 187.599 196.969 188.415 196.699 189.091C196.432 189.764 196.047 190.278 195.544 190.634C195.044 190.989 194.444 191.166 193.742 191.166ZM193.742 189.832C194.287 189.832 194.718 189.564 195.033 189.027C195.351 188.487 195.51 187.693 195.51 186.645C195.51 185.952 195.438 185.369 195.293 184.898C195.148 184.426 194.944 184.071 194.679 183.832C194.415 183.591 194.103 183.47 193.742 183.47C193.199 183.47 192.77 183.74 192.455 184.28C192.14 184.817 191.981 185.605 191.978 186.645C191.975 187.341 192.044 187.926 192.186 188.401C192.331 188.875 192.536 189.233 192.8 189.474C193.064 189.713 193.378 189.832 193.742 189.832ZM201.88 191V189.858L204.91 186.888C205.2 186.595 205.441 186.335 205.634 186.108C205.827 185.881 205.972 185.661 206.069 185.447C206.165 185.234 206.214 185.007 206.214 184.766C206.214 184.49 206.151 184.254 206.026 184.058C205.901 183.859 205.729 183.706 205.511 183.598C205.292 183.49 205.043 183.436 204.765 183.436C204.478 183.436 204.227 183.496 204.011 183.615C203.795 183.732 203.627 183.898 203.508 184.114C203.391 184.33 203.333 184.587 203.333 184.885H201.829C201.829 184.331 201.955 183.849 202.208 183.44C202.461 183.031 202.809 182.714 203.252 182.49C203.698 182.266 204.209 182.153 204.786 182.153C205.371 182.153 205.886 182.263 206.329 182.482C206.772 182.7 207.116 183 207.36 183.381C207.607 183.761 207.731 184.196 207.731 184.685C207.731 185.011 207.668 185.332 207.543 185.648C207.418 185.963 207.198 186.312 206.883 186.696C206.57 187.08 206.131 187.544 205.566 188.089L204.062 189.619V189.679H207.863V191H201.88ZM212.348 189.381V188.124L216.051 182.273H217.099V184.062H216.46L213.967 188.013V188.081H219.136V189.381H212.348ZM216.511 191V188.997L216.528 188.435V182.273H218.02V191H216.511Z" fill="white"/>
<g clip-path="url(#clip1_30848_105884)">
<path d="M94.9388 139.529C93.2365 139.529 91.5917 139.131 90.0505 138.347L85.188 135.873C83.5825 135.055 81.7877 134.623 79.9997 134.623C78.2117 134.623 76.4168 135.055 74.8114 135.873L69.9488 138.347C68.4077 139.132 66.7628 139.529 65.0605 139.529C60.9188 139.529 57.1388 137.161 55.1965 133.35L52.6594 128.373C50.9425 125.003 47.886 122.691 44.2731 122.031L38.9417 121.057C32.9768 119.968 28.9688 114.218 29.8174 107.969L30.576 102.389C31.0885 98.6172 29.922 94.8826 27.3771 92.1414L23.6134 88.0914C19.3971 83.5537 19.3971 76.4446 23.6134 71.9069L27.3771 67.8569C29.9228 65.1166 31.0885 61.3812 30.576 57.6089L29.8182 52.0297C28.9688 45.7794 32.9768 40.0306 38.9417 38.9412L44.2731 37.9674C47.886 37.3074 50.9425 34.9957 52.6594 31.6263L55.1965 26.648C57.1388 22.8372 60.9188 20.4697 65.0605 20.4697C66.7628 20.4697 68.4077 20.8674 69.9488 21.6509L74.8114 24.1254C76.4168 24.9432 78.2117 25.3752 79.9997 25.3752C81.7877 25.3752 83.5825 24.9432 85.188 24.1254L90.0505 21.6509C91.5917 20.8666 93.2365 20.4697 94.9388 20.4697C99.0805 20.4697 102.861 22.8372 104.803 26.648L107.339 31.6263C109.057 34.9966 112.113 37.3074 115.726 37.9674L121.058 38.9412C127.023 40.0306 131.031 45.7803 130.182 52.0297L129.423 57.6089C128.911 61.3812 130.077 65.1166 132.622 67.8569L136.386 71.9069C140.602 76.4446 140.602 83.5537 136.386 88.0914L132.622 92.1414C130.077 94.8817 128.911 98.6172 129.423 102.389L130.182 107.969C131.031 114.219 127.023 119.968 121.058 121.057L115.726 122.031C112.113 122.691 109.057 125.003 107.339 128.373L104.803 133.35C102.861 137.161 99.0797 139.529 94.9388 139.529ZM38.9931 106.469C36.5665 106.469 34.5917 108.519 34.5917 111.039C34.5917 113.559 36.5665 115.608 38.9931 115.608C41.4197 115.608 43.3945 113.559 43.3945 111.039C43.3945 108.519 41.4197 106.469 38.9931 106.469Z" fill="white"/>
<path d="M94.9395 20.7923C98.9604 20.7923 102.63 23.092 104.517 26.7948L107.054 31.7731C108.817 35.2334 111.957 37.6068 115.67 38.2848L121 39.2586C126.796 40.3171 130.688 45.9083 129.863 51.988L129.105 57.5671C128.58 61.4354 129.776 65.266 132.388 68.0766L136.151 72.1266C140.253 76.5417 140.253 83.4588 136.151 87.874L132.388 91.924C129.776 94.7346 128.58 98.5651 129.105 102.433L129.863 108.013C130.689 114.092 126.796 119.683 121 120.741L115.67 121.715C111.957 122.393 108.818 124.766 107.054 128.227L104.517 133.204C102.631 136.907 98.9604 139.207 94.9395 139.207C93.2878 139.207 91.6918 138.821 90.197 138.06L85.3344 135.585C83.6835 134.745 81.839 134.301 80.0004 134.301C78.1618 134.301 76.3172 134.745 74.6664 135.585L69.8038 138.06C68.309 138.821 66.713 139.207 65.0612 139.207C61.0404 139.207 57.3701 136.907 55.4835 133.204L52.9472 128.227C51.1841 124.766 48.0435 122.393 44.3312 121.715L39.0007 120.741C33.2047 119.683 29.3115 114.091 30.1378 108.012L30.8955 102.433C31.421 98.5643 30.2244 94.7337 27.6135 91.9231L23.8507 87.8731C19.7484 83.458 19.7484 76.5408 23.8507 72.1257L27.6135 68.0757C30.2252 65.2651 31.4218 61.4346 30.8964 57.5663L30.1387 51.9871C29.3124 45.9074 33.2055 40.3163 39.0015 39.2586L44.3321 38.2848C48.0444 37.6068 51.1841 35.2334 52.9481 31.7731L55.4844 26.7957C57.371 23.0928 61.0412 20.7931 65.0621 20.7931C66.7138 20.7931 68.3098 21.1788 69.8047 21.94L74.6672 24.4146C76.3181 25.2546 78.1627 25.6986 80.0012 25.6986C81.8398 25.6986 83.6844 25.2546 85.3352 24.4146L90.1978 21.94C91.6927 21.1788 93.2887 20.7931 94.9404 20.7931M38.9938 115.928C41.5978 115.928 43.7167 113.734 43.7167 111.037C43.7167 108.341 41.5978 106.147 38.9938 106.147C36.3898 106.147 34.271 108.341 34.271 111.037C34.271 113.734 36.3898 115.928 38.9938 115.928ZM94.9395 20.1494C93.245 20.1494 91.5264 20.5411 89.9055 21.3666L85.043 23.8411C83.4521 24.6511 81.7267 25.0557 80.0004 25.0557C78.2741 25.0557 76.5487 24.6511 74.9578 23.8411L70.0952 21.3666C68.4744 20.542 66.755 20.1503 65.0612 20.1494C60.941 20.1494 56.9681 22.4663 54.911 26.5026L52.3747 31.48C50.7144 34.7371 47.7041 37.0146 44.2164 37.6514L38.8858 38.6251C32.7864 39.7394 28.6344 45.6888 29.5018 52.0728L30.2595 57.652C30.7558 61.3026 29.6055 64.9874 27.143 67.6377L23.3801 71.6877C19.0738 76.3214 19.0738 83.6766 23.3801 88.3103L27.143 92.3603C29.6055 95.0106 30.755 98.6946 30.2595 102.346L29.5018 107.925C28.6344 114.309 32.7864 120.259 38.8858 121.373L44.2164 122.347C47.705 122.983 50.7152 125.261 52.3747 128.518L54.911 133.495C56.9681 137.532 60.941 139.849 65.0612 139.849C66.7558 139.849 68.4744 139.457 70.0952 138.632L74.9578 136.158C76.5487 135.348 78.2741 134.943 80.0004 134.943C81.7267 134.943 83.4521 135.348 85.043 136.158L89.9055 138.632C91.5264 139.457 93.2458 139.849 94.9395 139.849C99.0598 139.849 103.033 137.532 105.09 133.495L107.626 128.518C109.286 125.261 112.297 122.983 115.784 122.347L121.115 121.373C127.214 120.259 131.366 114.309 130.499 107.925L129.741 102.346C129.245 98.6954 130.395 95.0106 132.858 92.3603L136.621 88.3103C140.926 83.6766 140.926 76.3214 136.621 71.6877L132.858 67.6377C130.395 64.9874 129.246 61.3026 129.741 57.652L130.499 52.0728C131.366 45.6888 127.214 39.7386 121.115 38.6251L115.784 37.6514C112.296 37.0146 109.286 34.7371 107.626 31.48L105.09 26.5026C103.033 22.4663 99.0598 20.1494 94.9395 20.1494ZM38.9938 115.285C36.7404 115.285 34.9138 113.383 34.9138 111.037C34.9138 108.691 36.7404 106.789 38.9938 106.789C41.2472 106.789 43.0738 108.691 43.0738 111.037C43.0738 113.383 41.2472 115.285 38.9938 115.285Z" fill="#383838"/>
<path d="M49.7763 54.2718L48.6843 55.7392L52.6614 58.7032L51.7837 59.8817L47.8057 56.9177L46.7326 58.3577L45.8223 57.6797L48.8668 53.5938L49.7763 54.2718Z" fill="black"/>
<path d="M55.3312 54.0517L53.9127 55.4814L54.4724 56.5332L53.3667 57.6466L50.6152 51.7666L51.5898 50.7852L57.5015 53.4817L56.3898 54.6012L55.3312 54.0517ZM53.3547 54.4314L54.2778 53.5014L52.3141 52.4789L53.3547 54.4314Z" fill="black"/>
<path d="M61.291 49.8335C61.2559 50.1695 61.1067 50.5269 60.8436 50.9066C60.5804 51.2863 60.2393 51.6283 59.8193 51.9326C59.1722 52.4006 58.513 52.5763 57.8393 52.4597C57.1664 52.3449 56.5613 51.9429 56.023 51.258L55.711 50.8329C55.3587 50.3469 55.1376 49.8592 55.0476 49.3732C54.9576 48.8855 55.0004 48.4286 55.1787 48.0009C55.357 47.5732 55.657 47.208 56.077 46.9046C56.6933 46.4589 57.2727 46.2532 57.8162 46.2892C58.3596 46.3252 58.8627 46.6012 59.323 47.1197L58.177 47.9486C57.9362 47.7017 57.7056 47.5697 57.4844 47.5492C57.2641 47.5312 57.0293 47.61 56.7807 47.79C56.4816 48.006 56.3427 48.3 56.3642 48.6695C56.3839 49.0423 56.563 49.4632 56.9016 49.9355L57.1176 50.2346C57.4742 50.7266 57.8264 51.0369 58.1736 51.162C58.5207 51.288 58.8756 51.2195 59.2373 50.958C59.5467 50.7343 59.7284 50.4986 59.7799 50.2509L59.2253 49.4837L58.3982 50.082L57.8067 49.266L59.8253 47.8055L61.291 49.8335Z" fill="black"/>
<path d="M63.057 48.4815L65.325 47.2978L65.8479 48.2998L62.2779 50.1641L59.457 44.7598L60.7607 44.0801L63.057 48.4815Z" fill="black"/>
<path d="M67.7694 47.5756L66.4091 48.1199L64.1445 42.4593L65.5057 41.915L67.7694 47.5756Z" fill="black"/>
<path d="M73.4409 45.8899L72.03 46.2696L68.958 43.1702L69.9437 46.831L68.5252 47.2133L66.9395 41.3282L68.358 40.9459L71.4266 44.0479L70.4409 40.3862L71.8552 40.0039L73.4409 45.8899Z" fill="black"/>
<path d="M77.62 42.7947L75.3246 43.0579L75.49 44.5047L78.202 44.1936L78.3306 45.3165L74.158 45.7956L73.4629 39.7416L77.6432 39.2607L77.7726 40.3879L75.052 40.6999L75.1986 41.9762L77.4949 41.7122L77.62 42.7947Z" fill="black"/>
<path d="M84.3133 44.4595L82.3085 44.2726L81.8516 45.3732L80.2891 45.2275L83.0825 39.3672L84.4582 39.494L86.1331 45.7735L84.5611 45.626L84.3133 44.4595ZM82.7645 43.1755L84.0691 43.298L83.6113 41.132L82.7645 43.1755Z" fill="black"/>
<path d="M91.3065 44.8289L93.0088 41.3352L94.412 41.7277L91.5243 47.2494L90.0568 46.8389L90.2068 43.2732L88.5011 46.4026L87.0371 45.9937L87.4297 39.7734L88.8371 40.1669L88.4805 44.0369L90.3165 40.5809L91.5183 40.9177L91.3074 44.828L91.3065 44.8289Z" fill="black"/>
<path d="M96.4766 48.2284L94.6637 47.3515L93.852 48.2224L92.4395 47.5384L97.1083 43.0264L98.3512 43.6281L97.7212 50.0969L96.3017 49.4087L96.4766 48.2284ZM95.4755 46.4824L96.6549 47.0541L96.984 44.8649L95.4755 46.4824Z" fill="black"/>
<path d="M100.977 49.7725L100.324 49.3183L99.0919 51.0874L97.8867 50.2483L101.369 45.2451L103.338 46.6174C103.931 47.0297 104.303 47.4848 104.454 47.9811C104.606 48.4765 104.514 48.9643 104.18 49.4451C103.938 49.7931 103.666 50.0331 103.366 50.1634C103.066 50.2937 102.717 50.3254 102.318 50.2585L101.956 53.0048L101.92 53.0571L100.627 52.1571L100.976 49.7734L100.977 49.7725ZM100.971 48.3908L101.733 48.9223C101.962 49.0817 102.177 49.1408 102.376 49.1005C102.576 49.0611 102.751 48.9334 102.901 48.7174C103.051 48.5014 103.11 48.2914 103.079 48.0874C103.048 47.8834 102.919 47.7034 102.693 47.5448L101.93 47.0125L100.971 48.3908Z" fill="black"/>
<path d="M102.262 53.3621L106.471 48.9521L107.891 50.3073C108.281 50.6801 108.546 51.1027 108.689 51.5759C108.831 52.049 108.836 52.529 108.704 53.0193C108.571 53.5079 108.314 53.9536 107.935 54.3556L107.741 54.5579C107.356 54.9616 106.925 55.2419 106.45 55.3987C105.972 55.5556 105.494 55.577 105.011 55.4621C104.53 55.3464 104.096 55.1081 103.712 54.7456L102.262 53.3621ZM106.751 50.7873L104.105 53.5584L104.475 53.9116C104.779 54.2021 105.117 54.317 105.488 54.2561C105.859 54.1953 106.249 53.951 106.657 53.5224L106.839 53.3313C107.247 52.9061 107.47 52.5067 107.513 52.1347C107.556 51.7627 107.421 51.4267 107.107 51.1284L106.751 50.7873Z" fill="black"/>
<path d="M109.256 58.5549C109.425 58.4237 109.512 58.26 109.514 58.0672C109.516 57.8735 109.451 57.5855 109.318 57.2049C109.185 56.8243 109.093 56.5003 109.04 56.2346C108.864 55.3723 109.044 54.7337 109.58 54.3197C109.848 54.114 110.144 54.0086 110.468 54.0069C110.793 54.0043 111.122 54.1012 111.456 54.2992C111.79 54.4955 112.094 54.7723 112.369 55.1289C112.636 55.4743 112.815 55.8335 112.904 56.2046C112.993 56.5749 112.982 56.9255 112.871 57.2537C112.76 57.5829 112.558 57.8615 112.264 58.0877L111.368 56.928C111.564 56.7772 111.67 56.598 111.686 56.3949C111.701 56.1909 111.629 55.9852 111.47 55.7803C111.309 55.5737 111.136 55.4435 110.952 55.3955C110.767 55.3457 110.605 55.3749 110.463 55.4846C110.339 55.5806 110.279 55.734 110.281 55.9432C110.282 56.154 110.359 56.4669 110.51 56.8826C110.66 57.2992 110.756 57.6626 110.798 57.972C110.901 58.7255 110.689 59.3066 110.161 59.7137C109.739 60.0403 109.285 60.1363 108.798 60.0043C108.311 59.8723 107.853 59.5295 107.425 58.9757C107.123 58.584 106.92 58.1769 106.815 57.7509C106.711 57.3257 106.718 56.9383 106.838 56.5895C106.958 56.2415 107.178 55.9449 107.496 55.6989L108.397 56.8637C108.139 57.0643 108 57.2777 107.981 57.5066C107.962 57.7346 108.068 57.9986 108.3 58.2995C108.448 58.4923 108.607 58.6115 108.776 58.6595C108.945 58.7066 109.106 58.6732 109.256 58.5566V58.5549Z" fill="black"/>
<path d="M61.1257 82.2184C61.1257 81.8335 60.9886 81.5335 60.7134 81.3184C60.4391 81.1032 59.9557 80.8804 59.2657 80.6507C58.574 80.4201 58.01 80.1981 57.5711 79.983C56.1431 79.2878 55.43 78.3329 55.43 77.1175C55.43 76.5124 55.6074 75.9784 55.9631 75.5164C56.3188 75.0544 56.822 74.6944 57.4726 74.4364C58.1231 74.1792 58.8543 74.0498 59.6668 74.0498C60.4588 74.0498 61.1686 74.1904 61.796 74.4698C62.4234 74.7492 62.912 75.1487 63.2591 75.6664C63.6071 76.1841 63.7811 76.7747 63.7811 77.4398H61.1334C61.1334 76.9949 60.9963 76.6495 60.722 76.4044C60.4468 76.1592 60.0748 76.0367 59.606 76.0367C59.1311 76.0367 58.7574 76.1404 58.4823 76.3478C58.2071 76.5552 58.07 76.8192 58.07 77.139C58.07 77.4192 58.2217 77.673 58.5234 77.9001C58.8268 78.1281 59.3583 78.3629 60.1194 78.6055C60.8814 78.8481 61.5063 79.1095 61.9948 79.3898C63.1854 80.0695 63.7803 81.0072 63.7803 82.2021C63.7803 83.1569 63.4168 83.9069 62.6908 84.4521C61.964 84.9981 60.968 85.2698 59.7028 85.2698C58.8106 85.2698 58.0023 85.1112 57.2788 84.7932C56.5546 84.4761 56.0103 84.0407 55.6451 83.4887C55.2791 82.9358 55.0957 82.2998 55.0957 81.579H57.758C57.758 82.1644 57.9114 82.5964 58.2157 82.8732C58.5208 83.1509 59.0171 83.2898 59.702 83.2898C60.1408 83.2898 60.4871 83.1964 60.7426 83.0087C60.9971 82.8201 61.124 82.5569 61.124 82.2167L61.1257 82.2184Z" fill="black"/>
<path d="M74.3502 85.121H71.7102V80.5611H67.8V85.121H65.1445V74.2002H67.8V78.5356H71.7102V74.2002H74.3502V85.121Z" fill="black"/>
<path d="M85.3548 79.886C85.3548 80.9514 85.1559 81.8934 84.7573 82.7137C84.3588 83.5331 83.793 84.164 83.0593 84.6071C82.3265 85.0503 81.4899 85.2705 80.5513 85.2705C79.6128 85.2705 78.7822 85.0571 78.0553 84.6294C77.3285 84.2017 76.7628 83.5905 76.3573 82.7951C75.9519 81.9997 75.7385 81.0877 75.7188 80.0574V79.442C75.7188 78.3723 75.9159 77.4277 76.3119 76.6108C76.7079 75.7931 77.2753 75.1623 78.0133 74.7165C78.7522 74.2717 79.5939 74.0488 80.5359 74.0488C81.4693 74.0488 82.3016 74.2691 83.0328 74.7097C83.7639 75.1494 84.3322 75.776 84.7376 76.5885C85.143 77.4011 85.3496 78.3328 85.3548 79.3828V79.886ZM82.6548 79.4283C82.6548 78.3431 82.4713 77.5194 82.1053 76.9571C81.7402 76.3948 81.2173 76.1137 80.5359 76.1137C79.2048 76.1137 78.501 77.1037 78.4256 79.0837L78.4179 79.8868C78.4179 80.9574 78.597 81.7794 78.9545 82.3537C79.3128 82.9288 79.845 83.2168 80.5505 83.2168C81.2216 83.2168 81.7385 82.934 82.1019 82.3691C82.4653 81.8043 82.6496 80.9925 82.6548 79.9314V79.4283Z" fill="black"/>
<path d="M90.8175 81.2579H89.38V85.121H86.7246V74.2002H91.0592C92.3655 74.2002 93.3872 74.4873 94.1226 75.0616C94.8589 75.6359 95.2275 76.4476 95.2275 77.4968C95.2275 78.2562 95.0723 78.8853 94.762 79.385C94.4526 79.8848 93.9666 80.2893 93.3058 80.5988L95.6063 85.0079V85.121H92.7623L90.8175 81.2579ZM89.38 79.2325H91.0592C91.564 79.2325 91.9429 79.1013 92.1975 78.8382C92.4529 78.575 92.5798 78.2082 92.5798 77.7368C92.5798 77.2653 92.4512 76.8959 92.194 76.6276C91.9369 76.3593 91.5589 76.2256 91.0592 76.2256H89.38V79.2325Z" fill="black"/>
<path d="M105.099 76.2324H101.793V85.1209H99.1377V76.2324H95.8926V74.1992H105.099V76.2324Z" fill="black"/>
<path d="M73.9663 120.329L69.7988 119.477L69.9831 118.575L72.3163 116.95C72.8991 116.507 73.224 116.128 73.2891 115.811C73.3414 115.553 73.3251 115.347 73.2403 115.19C73.1545 115.032 73.0063 114.932 72.7937 114.889C72.5828 114.846 72.3934 114.9 72.2254 115.052C72.0583 115.204 71.9468 115.415 71.8911 115.682L70.5051 115.398C70.5805 115.033 70.7408 114.712 70.9868 114.44C71.2337 114.167 71.538 113.976 71.8988 113.868C72.2597 113.759 72.6411 113.747 73.0431 113.828C73.6885 113.96 74.1557 114.211 74.4437 114.581C74.7308 114.95 74.8183 115.414 74.7043 115.971C74.6554 116.207 74.5654 116.426 74.4325 116.631C74.2997 116.837 74.1154 117.042 73.8805 117.25C73.6465 117.457 73.2814 117.725 72.7885 118.049L71.8345 118.782L74.1848 119.263L73.9663 120.329Z" fill="black"/>
<path d="M79.7816 118.29C79.7318 119.113 79.5081 119.735 79.113 120.158C78.7161 120.581 78.1821 120.772 77.511 120.732C76.8338 120.689 76.3238 120.433 75.981 119.963C75.6381 119.491 75.4916 118.848 75.5404 118.031L75.609 116.92C75.6587 116.098 75.8816 115.475 76.2776 115.051C76.6744 114.63 77.2093 114.439 77.8838 114.479C78.5576 114.52 79.0658 114.777 79.4096 115.248C79.7516 115.718 79.899 116.364 79.8493 117.182L79.7816 118.29ZM78.4521 116.913C78.4787 116.476 78.441 116.145 78.3407 115.922C78.2396 115.699 78.0656 115.581 77.817 115.567C77.5753 115.55 77.3927 115.641 77.2701 115.834C77.1476 116.027 77.0704 116.327 77.037 116.735L76.9427 118.289C76.9153 118.742 76.9521 119.078 77.0541 119.296C77.1544 119.514 77.3293 119.629 77.577 119.644C77.8161 119.659 77.9996 119.567 78.1264 119.37C78.2533 119.173 78.3313 118.855 78.3613 118.418L78.4521 116.913Z" fill="black"/>
<path d="M85.3291 120.422L81.0889 120.761L81.016 119.844L82.8048 117.635C83.2428 117.048 83.4486 116.593 83.4228 116.271C83.4023 116.009 83.3286 115.814 83.2034 115.687C83.0783 115.56 82.9077 115.505 82.6908 115.523C82.4766 115.54 82.3103 115.645 82.1903 115.838C82.0711 116.031 82.0231 116.263 82.0446 116.536L80.6337 116.649C80.6046 116.275 80.6697 115.924 80.8308 115.594C80.992 115.263 81.2311 114.996 81.5474 114.791C81.8646 114.587 82.2271 114.467 82.6369 114.435C83.2934 114.382 83.8111 114.492 84.19 114.769C84.568 115.043 84.7806 115.465 84.826 116.033C84.8449 116.272 84.8191 116.508 84.7488 116.742C84.6768 116.975 84.5577 117.225 84.3906 117.489C84.2226 117.754 83.9457 118.11 83.5617 118.56L82.8503 119.529L85.2408 119.338L85.3283 120.423L85.3291 120.422Z" fill="black"/>
<path d="M89.864 117.07L90.4692 116.936L90.7057 117.998L90.1006 118.134L90.3817 119.396L89.0052 119.702L88.724 118.439L86.4226 118.952L86.1543 118.128L87.6826 113.764L87.68 113.752L89.0566 113.445L89.864 117.07ZM87.416 117.614L88.4866 117.377L88.0786 115.547L88.0246 115.704L87.416 117.614Z" fill="black"/>
<mask id="mask0_30848_105884" style="mask-type:luminance" maskUnits="userSpaceOnUse" x="27" y="63" width="41" height="57">
<path d="M60.4847 119.149L67.0427 115.534L65.493 109.312L61.5664 77.0466L47.9112 67.3574L44.2152 68.7503L41.3224 63.7686L27.2695 87.7171L60.4847 119.149Z" fill="white"/>
</mask>
<g mask="url(#mask0_30848_105884)">
<path fill-rule="evenodd" clip-rule="evenodd" d="M95.6492 45.7579C94.9969 46.9322 92.3749 47.2176 90.5955 46.7822C91.4895 45.9756 93.4078 45.2076 95.0561 45.6122L95.6492 45.7579L95.1281 45.4416C93.6795 44.5647 92.8798 42.6722 92.8301 41.4756C94.3935 42.4227 96.0323 44.473 95.6492 45.7579ZM80.038 116.765C80.5969 116.765 81.0486 117.214 81.0486 117.768C81.0486 118.323 80.596 118.77 80.0372 118.771C79.4783 118.772 79.0266 118.323 79.0266 117.769C79.0266 117.214 79.4792 116.765 80.038 116.765ZM93.4026 44.7173L92.9423 44.3196C91.6626 43.2122 89.6029 43.0262 88.4372 43.3382C89.8181 44.533 92.2815 45.4664 93.4018 44.7164L93.4026 44.7173ZM66.8072 44.7284C67.9275 45.4776 70.3918 44.5416 71.7735 43.3459C70.6078 43.0347 68.5481 43.2216 67.2675 44.3307L66.8072 44.7284ZM77.4375 117.782C77.1272 119.086 74.6783 120.061 72.8458 120.115C73.4886 119.1 75.1292 117.85 76.8272 117.799L77.4375 117.782C77.4589 116.441 75.3255 114.904 73.5623 114.408C73.9352 115.547 75.2158 117.157 76.8503 117.617L77.4375 117.782ZM73.6258 117.278C73.7835 115.947 71.8172 114.203 70.1132 113.535C70.3678 114.705 71.4786 116.434 73.0583 117.054L73.6258 117.278L73.0163 117.234C71.3226 117.115 69.5638 118.195 68.8206 119.14C70.6489 119.27 73.1843 118.544 73.6258 117.278ZM69.8843 116.397C69.3161 117.612 66.7206 118.081 64.9146 117.768C65.7495 116.902 67.6086 116.004 69.2818 116.291L69.8835 116.396C70.1749 115.087 68.3955 113.155 66.7695 112.32C66.9032 113.511 67.8341 115.342 69.3409 116.116L69.8835 116.396L69.8843 116.397ZM66.2526 115.145C66.6752 113.872 65.1015 111.772 63.5681 110.779C63.5809 111.977 64.3198 113.892 65.7418 114.814L66.2526 115.145L65.6655 114.982C64.0301 114.526 62.0895 115.236 61.1706 116.014C62.9346 116.505 65.5643 116.299 66.2526 115.145ZM62.7649 113.536C61.9626 114.616 59.3261 114.558 57.6203 113.895C58.6129 113.212 60.6161 112.701 62.1975 113.315L62.7658 113.537C63.3161 112.313 61.9626 110.067 60.5381 108.925C60.4292 110.118 60.9701 112.097 62.2909 113.157L62.7658 113.537L62.7649 113.536ZM59.4598 111.588C60.1318 110.425 59.0132 108.056 57.7121 106.776C57.4823 107.952 57.8201 109.977 59.0261 111.161L59.4598 111.588L58.9163 111.312C57.4069 110.541 55.3618 110.849 54.3049 111.43C55.9343 112.262 58.5521 112.582 59.4598 111.588ZM56.3689 109.319C55.3652 110.218 52.7938 109.636 51.2569 108.647C52.3678 108.175 54.4326 108.072 55.8563 108.989L56.3689 109.319L55.9806 108.852C54.9006 107.551 54.7703 105.504 55.1183 104.357C56.2832 105.76 57.1549 108.229 56.3689 109.319ZM53.5249 106.754C52.4355 107.548 49.9361 106.713 48.5072 105.574C49.6592 105.215 51.7249 105.319 53.0483 106.374L53.5249 106.754C54.4172 105.747 53.8009 103.203 52.7843 101.69C52.3223 102.797 52.2443 104.848 53.1863 106.249L53.5249 106.754ZM50.9552 103.917C49.7912 104.596 47.3895 103.516 46.0841 102.241C47.2669 101.999 49.3112 102.31 50.5206 103.492L50.9552 103.917C51.9461 103.004 51.5903 100.412 50.7323 98.8056C50.1598 99.8607 49.8743 101.893 50.6689 103.381L50.9543 103.917H50.9552ZM48.6872 100.836C47.4598 101.398 45.1806 100.082 44.0115 98.683C45.2123 98.5604 47.2146 99.0739 48.2981 100.371L48.6872 100.836L48.4575 100.276C47.8181 98.7147 48.3092 96.7227 48.9846 95.7284C49.6746 97.4127 49.7646 100.028 48.6872 100.836ZM46.7432 97.5456L46.5718 96.9636C46.0943 95.3479 46.7835 93.4124 47.5575 92.4919C48.0735 94.237 47.8978 96.8487 46.7432 97.5456L46.4029 97.0416C45.4566 95.6436 43.5169 94.9339 42.3101 94.9347C43.3309 96.4433 45.4661 97.9802 46.7432 97.5456ZM45.1438 94.075C43.8281 94.381 41.8609 92.6393 40.9978 91.0356C42.1995 91.1539 44.0569 92.0547 44.8566 93.541L45.1438 94.075C46.3626 93.4964 46.8023 90.9164 46.4672 89.1293C45.6041 89.9676 44.7212 91.8233 45.0323 93.4802L45.1438 94.075ZM43.9043 90.4647L43.8529 89.8604C43.7115 88.1822 44.7778 86.4224 45.7223 85.6742C45.8749 87.487 45.1755 90.0113 43.9043 90.4647L43.6721 89.9033C43.0275 88.345 41.2721 87.2633 40.0883 87.0259C40.7835 88.7076 42.5646 90.637 43.9043 90.4647ZM43.0378 86.7473L43.0481 86.1413C43.0772 84.4562 44.3175 82.813 45.3323 82.1624C45.3006 83.9804 44.3483 86.4233 43.0378 86.7473L42.8638 86.1653C42.3812 84.5504 40.7432 83.2982 39.5903 82.9424C40.1115 84.6859 41.6869 86.785 43.0378 86.7473ZM42.5535 82.9613C41.2061 82.8644 39.8518 80.6196 39.5098 78.8324C40.6206 79.3013 42.1223 80.7104 42.4395 82.3664L42.5535 82.9613C43.8906 82.7702 45.0855 80.4353 45.3015 78.6302C44.2258 79.1753 42.8261 80.6856 42.6255 82.3587L42.5535 82.9613ZM42.4558 79.147C41.1246 78.9156 40.0052 76.5464 39.8475 74.7353C40.9043 75.3122 42.2561 76.8636 42.4026 78.5436L42.4558 79.147C43.8049 79.0896 45.2312 76.8867 45.6289 75.1116C44.5035 75.5462 42.9572 76.9099 42.5878 78.5556L42.4558 79.147ZM42.7446 75.3422C41.4452 74.9779 40.5709 72.5102 40.5983 70.6913C41.5918 71.3719 42.7781 73.0502 42.7541 74.7353L42.7455 75.3422C44.0938 75.4202 45.7361 73.3699 46.3129 71.6436C45.1489 71.9633 43.4723 73.1667 42.9375 74.7662L42.7446 75.3422ZM43.4192 71.5836L43.6686 71.0307C44.3621 69.4922 46.1526 68.4636 47.3423 68.2604C46.5932 69.9207 44.7529 71.7962 43.4192 71.5836L43.4886 70.9827C43.6841 69.3087 42.6743 67.519 41.7538 66.7433C41.5438 68.5493 42.1618 71.0924 43.4183 71.5844L43.4192 71.5836ZM44.4718 67.9133C43.2718 67.2987 42.9143 64.7059 43.3078 62.929C44.1435 63.7939 44.9672 65.6753 44.6029 67.321L44.4718 67.9133C45.7763 68.257 47.7992 66.5762 48.7129 64.999C47.5086 65.0813 45.6229 65.9264 44.7769 67.3879L44.4726 67.9142L44.4718 67.9133ZM45.8912 64.3647C44.7598 63.6327 44.6672 61.0176 45.2389 59.2896C45.9829 60.2324 46.6112 62.1876 46.0815 63.7887L45.8912 64.3647C47.1546 64.8379 49.3369 63.3662 50.4066 61.8876C49.1998 61.8499 47.2386 62.5022 46.2478 63.871L45.8912 64.3647ZM47.6638 60.9764C48.8723 61.5739 51.1926 60.3276 52.4063 58.9639C51.2098 58.8044 49.1921 59.2579 48.0675 60.5222L47.6629 60.9764L47.9106 60.4219C48.5998 58.8816 48.1729 56.8742 47.5283 55.861C46.7852 57.5239 46.6112 60.1356 47.6629 60.9764H47.6638ZM49.7698 57.7827C48.8098 56.8407 49.2478 54.2599 50.1563 52.6793C50.6946 53.7516 50.9158 55.7916 50.0732 57.2547L49.7706 57.7819L50.2189 57.3704C51.4652 56.2253 53.5181 55.9759 54.6923 56.2527C53.3466 57.4887 50.9123 58.4976 49.7698 57.7827ZM52.1903 54.8144L52.6781 54.4484C54.0349 53.4336 56.1023 53.3916 57.2423 53.7842C55.7783 54.8804 53.2541 55.639 52.1903 54.8144L52.5452 54.3199C53.5309 52.9476 53.5189 50.8956 53.0921 49.7753C52.0283 51.2573 51.3298 53.7816 52.1903 54.8144ZM54.8998 52.1033C54.1489 50.9899 55.0995 48.5479 56.3081 47.1799C56.6183 48.337 56.4229 50.3804 55.3026 51.6473L54.8998 52.1033C55.8743 53.0307 58.4638 52.5276 60.0306 51.5847C58.9361 51.079 56.8746 50.9153 55.4218 51.7896L54.8989 52.1042L54.8998 52.1033ZM57.8706 49.6759C57.2363 48.493 58.4295 46.1582 59.7709 44.9187C59.9629 46.1016 59.5601 48.1142 58.3172 49.2636L57.8706 49.6767L58.4218 49.4162C59.9561 48.691 61.9892 49.0596 63.0272 49.6724C61.3721 50.4542 58.7458 50.6967 57.8706 49.6767V49.6759ZM61.0712 47.5579L61.6463 47.3539C63.2458 46.7864 65.2318 47.3556 66.2021 48.0687C64.4758 48.6816 61.8383 48.6602 61.0712 47.5579L61.5572 47.191C62.9106 46.1719 63.5149 44.209 63.4446 43.0133C61.9841 44.1139 60.5603 46.3176 61.0712 47.5579ZM64.4706 45.7707C64.0883 44.4859 65.7281 42.4347 67.2932 41.4867C67.2418 42.6824 66.4412 44.5759 64.9918 45.4544L64.4706 45.7707L65.0638 45.625C66.7129 45.2187 68.6303 45.9859 69.5235 46.7916C67.7432 47.2287 65.1221 46.9433 64.4706 45.7707ZM82.6206 117.779C82.93 119.082 85.3781 120.056 87.2106 120.109C86.5686 119.094 84.9289 117.845 83.2309 117.796L82.6206 117.779C82.6 116.439 84.7352 114.899 86.4983 114.402C86.1255 115.541 84.8423 117.152 83.2078 117.614L82.6206 117.779ZM86.4332 117.273C86.2763 115.942 88.2443 114.197 89.9492 113.526C89.6938 114.697 88.5803 116.427 87.0015 117.048L86.4341 117.273L87.0435 117.228C88.7372 117.107 90.4961 118.186 91.2375 119.13C89.4092 119.262 86.8746 118.538 86.4341 117.273H86.4332ZM90.1746 116.388L90.7172 116.108C92.2258 115.332 93.1566 113.5 93.2929 112.309C91.6652 113.146 89.8849 115.079 90.1755 116.387L90.7772 116.282C92.4503 115.993 94.3095 116.89 95.1435 117.754C93.3375 118.068 90.7421 117.603 90.1755 116.387L90.1746 116.388ZM93.8081 115.134C93.3863 113.861 94.9618 111.76 96.4969 110.765C96.4832 111.964 95.7418 113.879 94.3198 114.802L93.8081 115.134L94.3969 114.97C96.0323 114.514 97.9729 115.221 98.8909 115.999C97.1252 116.491 94.4955 116.287 93.8081 115.134ZM97.2966 113.523C98.0981 114.602 100.735 114.542 102.44 113.877C101.449 113.194 99.4455 112.685 97.8649 113.301L97.2966 113.523C96.7472 112.299 98.1015 110.052 99.5278 108.909C99.6349 110.102 99.0923 112.082 97.7715 113.142L97.2966 113.523ZM100.603 111.572C99.9332 110.41 101.053 108.039 102.355 106.759C102.584 107.935 102.245 109.96 101.038 111.145L100.603 111.572L101.148 111.295C102.658 110.523 104.702 110.83 105.759 111.41C104.129 112.242 101.51 112.565 100.603 111.572ZM103.696 109.3C104.699 110.198 107.271 109.615 108.809 108.624C107.699 108.153 105.634 108.052 104.209 108.97L103.696 109.3L104.085 108.833C105.165 107.531 105.298 105.484 104.951 104.338C103.785 105.741 102.911 108.211 103.696 109.3ZM106.543 106.732L106.882 106.228C107.825 104.825 107.749 102.775 107.287 101.668C106.27 103.181 105.651 105.725 106.543 106.732L107.019 106.352C108.343 105.296 110.408 105.19 111.561 105.547C110.132 106.687 107.632 107.524 106.543 106.732ZM109.115 103.893C110.279 104.572 112.681 103.489 113.989 102.214C112.806 101.973 110.761 102.285 109.551 103.468L109.115 103.893C108.126 102.981 108.483 100.389 109.342 98.7816C109.914 99.8359 110.198 101.868 109.402 103.357L109.115 103.893ZM111.385 100.81C112.612 101.37 114.893 100.054 116.064 98.653C114.863 98.5313 112.861 99.0464 111.776 100.344L111.385 100.81L111.617 100.25C112.258 98.6882 111.769 96.6953 111.093 95.7019C110.401 97.387 110.308 100.002 111.385 100.81ZM113.332 97.5182C114.61 97.9519 116.746 96.4142 117.769 94.9039C116.561 94.9039 114.621 95.6144 113.673 97.0142L113.332 97.5182C112.178 96.8222 112.005 94.2104 112.522 92.4644C113.295 93.385 113.983 95.3196 113.504 96.9353L113.332 97.5182ZM114.934 94.0467C116.25 94.3519 118.219 92.6084 119.083 91.0039C117.882 91.123 116.023 92.0256 115.222 93.5127L114.934 94.0467C113.716 93.4699 113.278 90.8899 113.616 89.1019C114.479 89.9393 115.36 91.795 115.047 93.4519L114.934 94.0467ZM116.177 90.4356C117.517 90.6062 119.299 88.675 119.995 86.9933C118.812 87.2316 117.055 88.315 116.409 89.8733L116.177 90.4347C114.906 89.9822 114.208 87.4579 114.363 85.645C115.306 86.3924 116.371 88.1513 116.228 89.8296L116.177 90.4347V90.4356ZM117.047 86.7164C118.397 86.7533 119.975 84.6542 120.497 82.9099C119.343 83.2664 117.705 84.5196 117.221 86.1353L117.047 86.7164C115.736 86.3933 114.787 83.9522 114.756 82.1342C115.771 82.783 117.009 84.4262 117.037 86.1104L117.047 86.7164ZM117.535 82.9304C118.882 82.8327 120.238 80.5862 120.582 78.7999C119.471 79.2696 117.967 80.6796 117.649 82.3356L117.535 82.9304C116.197 82.7402 115.004 80.4062 114.79 78.601C115.865 79.1453 117.264 80.6547 117.463 82.3279L117.535 82.9304ZM117.636 79.1162L117.503 78.5247C117.135 76.8799 115.59 75.517 114.465 75.0833C114.862 76.8584 116.286 79.0604 117.636 79.1162L117.689 78.5127C117.837 76.8327 119.19 75.2804 120.247 74.7027C120.088 76.5139 118.965 78.8847 117.636 79.1162ZM117.349 75.3113C118.65 74.9462 119.526 72.4776 119.501 70.6587C118.507 71.3393 117.319 73.0202 117.342 74.7044L117.349 75.3113C116.001 75.3902 114.361 73.3416 113.786 71.6162C114.95 71.935 116.626 73.1367 117.158 74.7362L117.349 75.3113ZM116.677 71.5536C117.934 71.0607 118.555 68.5176 118.346 66.7116C117.426 67.4882 116.414 69.2787 116.608 70.9527L116.677 71.5536C115.345 71.7679 113.504 69.8933 112.756 68.2339C113.947 68.4362 115.736 69.463 116.428 71.0007L116.677 71.5536ZM115.629 67.8842C116.829 67.2687 117.189 64.6759 116.797 62.899C115.961 63.7647 115.135 65.647 115.499 67.2919L115.629 67.8842C114.324 68.2287 112.303 66.5487 111.391 64.9724C112.595 65.053 114.48 65.8973 115.325 67.3579L115.629 67.8842ZM114.212 64.3373L113.857 63.8444C112.867 62.4764 110.906 61.825 109.699 61.8644C110.767 63.3422 112.949 64.8113 114.212 64.3373L114.023 63.7622C113.495 62.161 114.125 60.2059 114.87 59.2622C115.44 60.9902 115.344 63.6053 114.212 64.3373ZM112.443 60.9499C111.234 61.5482 108.914 60.3036 107.702 58.9407C108.899 58.7804 110.916 59.2322 112.039 60.4956L112.443 60.9499L112.195 60.3962C111.507 58.8559 111.936 56.8484 112.581 55.8353C113.323 57.4973 113.495 60.1082 112.443 60.9499ZM110.339 57.7579C111.301 56.815 110.865 54.2342 109.957 52.6553C109.418 53.7284 109.196 55.7684 110.037 57.2307L110.339 57.7579L109.891 57.3464C108.646 56.2022 106.593 55.9544 105.418 56.2322C106.763 57.4673 109.196 58.4727 110.339 57.7579ZM107.921 54.7922L107.434 54.427C106.078 53.4139 104.011 53.3727 102.87 53.7662C104.333 54.8607 106.857 55.6176 107.921 54.7922L107.567 54.2984C106.582 52.927 106.596 50.875 107.023 49.7539C108.086 51.235 108.782 53.7584 107.921 54.7922ZM105.214 52.0819C105.966 50.9676 105.018 48.5264 103.81 47.1593C103.498 48.3173 103.692 50.3599 104.812 51.6259L105.214 52.081C104.239 53.0093 101.651 52.5079 100.084 51.5667C101.179 51.0602 103.24 50.8947 104.692 51.7673L105.214 52.081V52.0819ZM102.246 49.6579C102.881 48.4742 101.689 46.1402 100.349 44.9016C100.156 46.0853 100.556 48.0962 101.799 49.2447L102.246 49.6579L101.695 49.3964C100.161 48.6722 98.1272 49.0433 97.0892 49.657C98.7435 50.4379 101.37 50.6787 102.246 49.6579ZM99.0469 47.5424C99.5586 46.3022 98.1366 44.0993 96.6769 42.9996C96.6049 44.1953 97.2083 46.1582 98.5601 47.1756L99.0469 47.5424C98.2798 48.6456 95.6415 48.6687 93.9161 48.0567C94.8872 47.3427 96.8732 46.7719 98.4726 47.3376L99.0469 47.5407V47.5424Z" fill="black"/>
</g>
<mask id="mask1_30848_105884" style="mask-type:luminance" maskUnits="userSpaceOnUse" x="93" y="58" width="33" height="61">
<path d="M93.7185 72.3313L110.91 66.5541L115.893 68.7501L125.053 58.0898L123.299 81.2858L116.44 105.294L98.5167 118.59L93.0645 115.366L94.7042 108.85L93.7185 72.3313Z" fill="white"/>
</mask>
<g mask="url(#mask1_30848_105884)">
<path fill-rule="evenodd" clip-rule="evenodd" d="M95.6492 45.7579C94.9969 46.9322 92.3749 47.2176 90.5955 46.7822C91.4895 45.9756 93.4078 45.2076 95.0561 45.6122L95.6492 45.7579L95.1281 45.4416C93.6795 44.5647 92.8798 42.6722 92.8301 41.4756C94.3935 42.4227 96.0323 44.473 95.6492 45.7579ZM80.038 116.765C80.5969 116.765 81.0486 117.214 81.0486 117.768C81.0486 118.323 80.596 118.77 80.0372 118.771C79.4783 118.772 79.0266 118.323 79.0266 117.769C79.0266 117.214 79.4792 116.765 80.038 116.765ZM93.4026 44.7173L92.9423 44.3196C91.6626 43.2122 89.6029 43.0262 88.4372 43.3382C89.8181 44.533 92.2815 45.4664 93.4018 44.7164L93.4026 44.7173ZM66.8072 44.7284C67.9275 45.4776 70.3918 44.5416 71.7735 43.3459C70.6078 43.0347 68.5481 43.2216 67.2675 44.3307L66.8072 44.7284ZM77.4375 117.782C77.1272 119.086 74.6783 120.061 72.8458 120.115C73.4886 119.1 75.1292 117.85 76.8272 117.799L77.4375 117.782C77.4589 116.441 75.3255 114.904 73.5623 114.408C73.9352 115.547 75.2158 117.157 76.8503 117.617L77.4375 117.782ZM73.6258 117.278C73.7835 115.947 71.8172 114.203 70.1132 113.535C70.3678 114.705 71.4786 116.434 73.0583 117.054L73.6258 117.278L73.0163 117.234C71.3226 117.115 69.5638 118.195 68.8206 119.14C70.6489 119.27 73.1843 118.544 73.6258 117.278ZM69.8843 116.397C69.3161 117.612 66.7206 118.081 64.9146 117.768C65.7495 116.902 67.6086 116.004 69.2818 116.291L69.8835 116.396C70.1749 115.087 68.3955 113.155 66.7695 112.32C66.9032 113.511 67.8341 115.342 69.3409 116.116L69.8835 116.396L69.8843 116.397ZM66.2526 115.145C66.6752 113.872 65.1015 111.772 63.5681 110.779C63.5809 111.977 64.3198 113.892 65.7418 114.814L66.2526 115.145L65.6655 114.982C64.0301 114.526 62.0895 115.236 61.1706 116.014C62.9346 116.505 65.5643 116.299 66.2526 115.145ZM62.7649 113.536C61.9626 114.616 59.3261 114.558 57.6203 113.895C58.6129 113.212 60.6161 112.701 62.1975 113.315L62.7658 113.537C63.3161 112.313 61.9626 110.067 60.5381 108.925C60.4292 110.118 60.9701 112.097 62.2909 113.157L62.7658 113.537L62.7649 113.536ZM59.4598 111.588C60.1318 110.425 59.0132 108.056 57.7121 106.776C57.4823 107.952 57.8201 109.977 59.0261 111.161L59.4598 111.588L58.9163 111.312C57.4069 110.541 55.3618 110.849 54.3049 111.43C55.9343 112.262 58.5521 112.582 59.4598 111.588ZM56.3689 109.319C55.3652 110.218 52.7938 109.636 51.2569 108.647C52.3678 108.175 54.4326 108.072 55.8563 108.989L56.3689 109.319L55.9806 108.852C54.9006 107.551 54.7703 105.504 55.1183 104.357C56.2832 105.76 57.1549 108.229 56.3689 109.319ZM53.5249 106.754C52.4355 107.548 49.9361 106.713 48.5072 105.574C49.6592 105.215 51.7249 105.319 53.0483 106.374L53.5249 106.754C54.4172 105.747 53.8009 103.203 52.7843 101.69C52.3223 102.797 52.2443 104.848 53.1863 106.249L53.5249 106.754ZM50.9552 103.917C49.7912 104.596 47.3895 103.516 46.0841 102.241C47.2669 101.999 49.3112 102.31 50.5206 103.492L50.9552 103.917C51.9461 103.004 51.5903 100.412 50.7323 98.8056C50.1598 99.8607 49.8743 101.893 50.6689 103.381L50.9543 103.917H50.9552ZM48.6872 100.836C47.4598 101.398 45.1806 100.082 44.0115 98.683C45.2123 98.5604 47.2146 99.0739 48.2981 100.371L48.6872 100.836L48.4575 100.276C47.8181 98.7147 48.3092 96.7227 48.9846 95.7284C49.6746 97.4127 49.7646 100.028 48.6872 100.836ZM46.7432 97.5456L46.5718 96.9636C46.0943 95.3479 46.7835 93.4124 47.5575 92.4919C48.0735 94.237 47.8978 96.8487 46.7432 97.5456L46.4029 97.0416C45.4566 95.6436 43.5169 94.9339 42.3101 94.9347C43.3309 96.4433 45.4661 97.9802 46.7432 97.5456ZM45.1438 94.075C43.8281 94.381 41.8609 92.6393 40.9978 91.0356C42.1995 91.1539 44.0569 92.0547 44.8566 93.541L45.1438 94.075C46.3626 93.4964 46.8023 90.9164 46.4672 89.1293C45.6041 89.9676 44.7212 91.8233 45.0323 93.4802L45.1438 94.075ZM43.9043 90.4647L43.8529 89.8604C43.7115 88.1822 44.7778 86.4224 45.7223 85.6742C45.8749 87.487 45.1755 90.0113 43.9043 90.4647L43.6721 89.9033C43.0275 88.345 41.2721 87.2633 40.0883 87.0259C40.7835 88.7076 42.5646 90.637 43.9043 90.4647ZM43.0378 86.7473L43.0481 86.1413C43.0772 84.4562 44.3175 82.813 45.3323 82.1624C45.3006 83.9804 44.3483 86.4233 43.0378 86.7473L42.8638 86.1653C42.3812 84.5504 40.7432 83.2982 39.5903 82.9424C40.1115 84.6859 41.6869 86.785 43.0378 86.7473ZM42.5535 82.9613C41.2061 82.8644 39.8518 80.6196 39.5098 78.8324C40.6206 79.3013 42.1223 80.7104 42.4395 82.3664L42.5535 82.9613C43.8906 82.7702 45.0855 80.4353 45.3015 78.6302C44.2258 79.1753 42.8261 80.6856 42.6255 82.3587L42.5535 82.9613ZM42.4558 79.147C41.1246 78.9156 40.0052 76.5464 39.8475 74.7353C40.9043 75.3122 42.2561 76.8636 42.4026 78.5436L42.4558 79.147C43.8049 79.0896 45.2312 76.8867 45.6289 75.1116C44.5035 75.5462 42.9572 76.9099 42.5878 78.5556L42.4558 79.147ZM42.7446 75.3422C41.4452 74.9779 40.5709 72.5102 40.5983 70.6913C41.5918 71.3719 42.7781 73.0502 42.7541 74.7353L42.7455 75.3422C44.0938 75.4202 45.7361 73.3699 46.3129 71.6436C45.1489 71.9633 43.4723 73.1667 42.9375 74.7662L42.7446 75.3422ZM43.4192 71.5836L43.6686 71.0307C44.3621 69.4922 46.1526 68.4636 47.3423 68.2604C46.5932 69.9207 44.7529 71.7962 43.4192 71.5836L43.4886 70.9827C43.6841 69.3087 42.6743 67.519 41.7538 66.7433C41.5438 68.5493 42.1618 71.0924 43.4183 71.5844L43.4192 71.5836ZM44.4718 67.9133C43.2718 67.2987 42.9143 64.7059 43.3078 62.929C44.1435 63.7939 44.9672 65.6753 44.6029 67.321L44.4718 67.9133C45.7763 68.257 47.7992 66.5762 48.7129 64.999C47.5086 65.0813 45.6229 65.9264 44.7769 67.3879L44.4726 67.9142L44.4718 67.9133ZM45.8912 64.3647C44.7598 63.6327 44.6672 61.0176 45.2389 59.2896C45.9829 60.2324 46.6112 62.1876 46.0815 63.7887L45.8912 64.3647C47.1546 64.8379 49.3369 63.3662 50.4066 61.8876C49.1998 61.8499 47.2386 62.5022 46.2478 63.871L45.8912 64.3647ZM47.6638 60.9764C48.8723 61.5739 51.1926 60.3276 52.4063 58.9639C51.2098 58.8044 49.1921 59.2579 48.0675 60.5222L47.6629 60.9764L47.9106 60.4219C48.5998 58.8816 48.1729 56.8742 47.5283 55.861C46.7852 57.5239 46.6112 60.1356 47.6629 60.9764H47.6638ZM49.7698 57.7827C48.8098 56.8407 49.2478 54.2599 50.1563 52.6793C50.6946 53.7516 50.9158 55.7916 50.0732 57.2547L49.7706 57.7819L50.2189 57.3704C51.4652 56.2253 53.5181 55.9759 54.6923 56.2527C53.3466 57.4887 50.9123 58.4976 49.7698 57.7827ZM52.1903 54.8144L52.6781 54.4484C54.0349 53.4336 56.1023 53.3916 57.2423 53.7842C55.7783 54.8804 53.2541 55.639 52.1903 54.8144L52.5452 54.3199C53.5309 52.9476 53.5189 50.8956 53.0921 49.7753C52.0283 51.2573 51.3298 53.7816 52.1903 54.8144ZM54.8998 52.1033C54.1489 50.9899 55.0995 48.5479 56.3081 47.1799C56.6183 48.337 56.4229 50.3804 55.3026 51.6473L54.8998 52.1033C55.8743 53.0307 58.4638 52.5276 60.0306 51.5847C58.9361 51.079 56.8746 50.9153 55.4218 51.7896L54.8989 52.1042L54.8998 52.1033ZM57.8706 49.6759C57.2363 48.493 58.4295 46.1582 59.7709 44.9187C59.9629 46.1016 59.5601 48.1142 58.3172 49.2636L57.8706 49.6767L58.4218 49.4162C59.9561 48.691 61.9892 49.0596 63.0272 49.6724C61.3721 50.4542 58.7458 50.6967 57.8706 49.6767V49.6759ZM61.0712 47.5579L61.6463 47.3539C63.2458 46.7864 65.2318 47.3556 66.2021 48.0687C64.4758 48.6816 61.8383 48.6602 61.0712 47.5579L61.5572 47.191C62.9106 46.1719 63.5149 44.209 63.4446 43.0133C61.9841 44.1139 60.5603 46.3176 61.0712 47.5579ZM64.4706 45.7707C64.0883 44.4859 65.7281 42.4347 67.2932 41.4867C67.2418 42.6824 66.4412 44.5759 64.9918 45.4544L64.4706 45.7707L65.0638 45.625C66.7129 45.2187 68.6303 45.9859 69.5235 46.7916C67.7432 47.2287 65.1221 46.9433 64.4706 45.7707ZM82.6206 117.779C82.93 119.082 85.3781 120.056 87.2106 120.109C86.5686 119.094 84.9289 117.845 83.2309 117.796L82.6206 117.779C82.6 116.439 84.7352 114.899 86.4983 114.402C86.1255 115.541 84.8423 117.152 83.2078 117.614L82.6206 117.779ZM86.4332 117.273C86.2763 115.942 88.2443 114.197 89.9492 113.526C89.6938 114.697 88.5803 116.427 87.0015 117.048L86.4341 117.273L87.0435 117.228C88.7372 117.107 90.4961 118.186 91.2375 119.13C89.4092 119.262 86.8746 118.538 86.4341 117.273H86.4332ZM90.1746 116.388L90.7172 116.108C92.2258 115.332 93.1566 113.5 93.2929 112.309C91.6652 113.146 89.8849 115.079 90.1755 116.387L90.7772 116.282C92.4503 115.993 94.3095 116.89 95.1435 117.754C93.3375 118.068 90.7421 117.603 90.1755 116.387L90.1746 116.388ZM93.8081 115.134C93.3863 113.861 94.9618 111.76 96.4969 110.765C96.4832 111.964 95.7418 113.879 94.3198 114.802L93.8081 115.134L94.3969 114.97C96.0323 114.514 97.9729 115.221 98.8909 115.999C97.1252 116.491 94.4955 116.287 93.8081 115.134ZM97.2966 113.523C98.0981 114.602 100.735 114.542 102.44 113.877C101.449 113.194 99.4455 112.685 97.8649 113.301L97.2966 113.523C96.7472 112.299 98.1015 110.052 99.5278 108.909C99.6349 110.102 99.0923 112.082 97.7715 113.142L97.2966 113.523ZM100.603 111.572C99.9332 110.41 101.053 108.039 102.355 106.759C102.584 107.935 102.245 109.96 101.038 111.145L100.603 111.572L101.148 111.295C102.658 110.523 104.702 110.83 105.759 111.41C104.129 112.242 101.51 112.565 100.603 111.572ZM103.696 109.3C104.699 110.198 107.271 109.615 108.809 108.624C107.699 108.153 105.634 108.052 104.209 108.97L103.696 109.3L104.085 108.833C105.165 107.531 105.298 105.484 104.951 104.338C103.785 105.741 102.911 108.211 103.696 109.3ZM106.543 106.732L106.882 106.228C107.825 104.825 107.749 102.775 107.287 101.668C106.27 103.181 105.651 105.725 106.543 106.732L107.019 106.352C108.343 105.296 110.408 105.19 111.561 105.547C110.132 106.687 107.632 107.524 106.543 106.732ZM109.115 103.893C110.279 104.572 112.681 103.489 113.989 102.214C112.806 101.973 110.761 102.285 109.551 103.468L109.115 103.893C108.126 102.981 108.483 100.389 109.342 98.7816C109.914 99.8359 110.198 101.868 109.402 103.357L109.115 103.893ZM111.385 100.81C112.612 101.37 114.893 100.054 116.064 98.653C114.863 98.5313 112.861 99.0464 111.776 100.344L111.385 100.81L111.617 100.25C112.258 98.6882 111.769 96.6953 111.093 95.7019C110.401 97.387 110.308 100.002 111.385 100.81ZM113.332 97.5182C114.61 97.9519 116.746 96.4142 117.769 94.9039C116.561 94.9039 114.621 95.6144 113.673 97.0142L113.332 97.5182C112.178 96.8222 112.005 94.2104 112.522 92.4644C113.295 93.385 113.983 95.3196 113.504 96.9353L113.332 97.5182ZM114.934 94.0467C116.25 94.3519 118.219 92.6084 119.083 91.0039C117.882 91.123 116.023 92.0256 115.222 93.5127L114.934 94.0467C113.716 93.4699 113.278 90.8899 113.616 89.1019C114.479 89.9393 115.36 91.795 115.047 93.4519L114.934 94.0467ZM116.177 90.4356C117.517 90.6062 119.299 88.675 119.995 86.9933C118.812 87.2316 117.055 88.315 116.409 89.8733L116.177 90.4347C114.906 89.9822 114.208 87.4579 114.363 85.645C115.306 86.3924 116.371 88.1513 116.228 89.8296L116.177 90.4347V90.4356ZM117.047 86.7164C118.397 86.7533 119.975 84.6542 120.497 82.9099C119.343 83.2664 117.705 84.5196 117.221 86.1353L117.047 86.7164C115.736 86.3933 114.787 83.9522 114.756 82.1342C115.771 82.783 117.009 84.4262 117.037 86.1104L117.047 86.7164ZM117.535 82.9304C118.882 82.8327 120.238 80.5862 120.582 78.7999C119.471 79.2696 117.967 80.6796 117.649 82.3356L117.535 82.9304C116.197 82.7402 115.004 80.4062 114.79 78.601C115.865 79.1453 117.264 80.6547 117.463 82.3279L117.535 82.9304ZM117.636 79.1162L117.503 78.5247C117.135 76.8799 115.59 75.517 114.465 75.0833C114.862 76.8584 116.286 79.0604 117.636 79.1162L117.689 78.5127C117.837 76.8327 119.19 75.2804 120.247 74.7027C120.088 76.5139 118.965 78.8847 117.636 79.1162ZM117.349 75.3113C118.65 74.9462 119.526 72.4776 119.501 70.6587C118.507 71.3393 117.319 73.0202 117.342 74.7044L117.349 75.3113C116.001 75.3902 114.361 73.3416 113.786 71.6162C114.95 71.935 116.626 73.1367 117.158 74.7362L117.349 75.3113ZM116.677 71.5536C117.934 71.0607 118.555 68.5176 118.346 66.7116C117.426 67.4882 116.414 69.2787 116.608 70.9527L116.677 71.5536C115.345 71.7679 113.504 69.8933 112.756 68.2339C113.947 68.4362 115.736 69.463 116.428 71.0007L116.677 71.5536ZM115.629 67.8842C116.829 67.2687 117.189 64.6759 116.797 62.899C115.961 63.7647 115.135 65.647 115.499 67.2919L115.629 67.8842C114.324 68.2287 112.303 66.5487 111.391 64.9724C112.595 65.053 114.48 65.8973 115.325 67.3579L115.629 67.8842ZM114.212 64.3373L113.857 63.8444C112.867 62.4764 110.906 61.825 109.699 61.8644C110.767 63.3422 112.949 64.8113 114.212 64.3373L114.023 63.7622C113.495 62.161 114.125 60.2059 114.87 59.2622C115.44 60.9902 115.344 63.6053 114.212 64.3373ZM112.443 60.9499C111.234 61.5482 108.914 60.3036 107.702 58.9407C108.899 58.7804 110.916 59.2322 112.039 60.4956L112.443 60.9499L112.195 60.3962C111.507 58.8559 111.936 56.8484 112.581 55.8353C113.323 57.4973 113.495 60.1082 112.443 60.9499ZM110.339 57.7579C111.301 56.815 110.865 54.2342 109.957 52.6553C109.418 53.7284 109.196 55.7684 110.037 57.2307L110.339 57.7579L109.891 57.3464C108.646 56.2022 106.593 55.9544 105.418 56.2322C106.763 57.4673 109.196 58.4727 110.339 57.7579ZM107.921 54.7922L107.434 54.427C106.078 53.4139 104.011 53.3727 102.87 53.7662C104.333 54.8607 106.857 55.6176 107.921 54.7922L107.567 54.2984C106.582 52.927 106.596 50.875 107.023 49.7539C108.086 51.235 108.782 53.7584 107.921 54.7922ZM105.214 52.0819C105.966 50.9676 105.018 48.5264 103.81 47.1593C103.498 48.3173 103.692 50.3599 104.812 51.6259L105.214 52.081C104.239 53.0093 101.651 52.5079 100.084 51.5667C101.179 51.0602 103.24 50.8947 104.692 51.7673L105.214 52.081V52.0819ZM102.246 49.6579C102.881 48.4742 101.689 46.1402 100.349 44.9016C100.156 46.0853 100.556 48.0962 101.799 49.2447L102.246 49.6579L101.695 49.3964C100.161 48.6722 98.1272 49.0433 97.0892 49.657C98.7435 50.4379 101.37 50.6787 102.246 49.6579ZM99.0469 47.5424C99.5586 46.3022 98.1366 44.0993 96.6769 42.9996C96.6049 44.1953 97.2083 46.1582 98.5601 47.1756L99.0469 47.5424C98.2798 48.6456 95.6415 48.6687 93.9161 48.0567C94.8872 47.3427 96.8732 46.7719 98.4726 47.3376L99.0469 47.5407V47.5424Z" fill="black"/>
</g>
<path fill-rule="evenodd" clip-rule="evenodd" d="M116.162 69.1514L116.189 68.5437C116.266 66.8526 115.137 65.1211 114.17 64.3994C114.088 66.2234 114.879 68.7357 116.162 69.1514Z" fill="black"/>
<path fill-rule="evenodd" clip-rule="evenodd" d="M43.9843 69.1514L43.9569 68.5437C43.8797 66.8526 45.0094 65.1211 45.9763 64.3994C46.0586 66.2234 45.2674 68.7357 43.9843 69.1514Z" fill="black"/>
</g>
</g>
<defs>
<clipPath id="clip0_30848_105884">
<rect width="360" height="360" fill="white"/>
</clipPath>
<clipPath id="clip1_30848_105884">
<rect width="120" height="120" fill="white" transform="translate(20 20)"/>
</clipPath>
</defs>
</svg>
