<svg width="140" height="140" viewBox="0 0 140 140" fill="none" xmlns="http://www.w3.org/2000/svg">
<g clip-path="url(#clip0_30213_24533)">
<path d="M87.4286 139.451C85.4426 139.451 83.5236 138.987 81.7256 138.073L76.0526 135.186C74.1796 134.232 72.0856 133.728 69.9996 133.728C67.9136 133.728 65.8196 134.232 63.9466 135.186L58.2736 138.073C56.4756 138.988 54.5566 139.451 52.5706 139.451C47.7386 139.451 43.3286 136.689 41.0626 132.243L38.1026 126.436C36.0996 122.504 32.5336 119.807 28.3186 119.037L22.0986 117.901C15.1396 116.63 10.4636 109.922 11.4536 102.631L12.3386 96.1218C12.9366 91.7208 11.5756 87.3638 8.60662 84.1658L4.21562 79.4408C-0.703383 74.1468 -0.703383 65.8528 4.21562 60.5588L8.60662 55.8338C11.5766 52.6368 12.9366 48.2788 12.3386 43.8778L11.4546 37.3688C10.4636 30.0768 15.1396 23.3698 22.0986 22.0988L28.3186 20.9628C32.5336 20.1928 36.0996 17.4958 38.1026 13.5648L41.0626 7.75683C43.3286 3.31083 47.7386 0.548828 52.5706 0.548828C54.5566 0.548828 56.4756 1.01283 58.2736 1.92683L63.9466 4.81383C65.8196 5.76783 67.9136 6.27183 69.9996 6.27183C72.0856 6.27183 74.1796 5.76783 76.0526 4.81383L81.7256 1.92683C83.5236 1.01183 85.4426 0.548828 87.4286 0.548828C92.2606 0.548828 96.6706 3.31083 98.9366 7.75683L101.896 13.5648C103.9 17.4968 107.466 20.1928 111.681 20.9628L117.901 22.0988C124.86 23.3698 129.536 30.0778 128.546 37.3688L127.661 43.8778C127.063 48.2788 128.424 52.6368 131.393 55.8338L135.784 60.5588C140.703 65.8528 140.703 74.1468 135.784 79.4408L131.393 84.1658C128.423 87.3628 127.063 91.7208 127.66 96.1218L128.546 102.631C129.536 109.923 124.86 116.63 117.901 117.901L111.681 119.037C107.466 119.807 103.9 122.504 101.896 126.436L98.9366 132.243C96.6706 136.689 92.2596 139.451 87.4286 139.451ZM22.1586 100.882C19.3276 100.882 17.0236 103.273 17.0236 106.213C17.0236 109.153 19.3276 111.544 22.1586 111.544C24.9896 111.544 27.2936 109.153 27.2936 106.213C27.2936 103.273 24.9896 100.882 22.1586 100.882Z" fill="white"/>
<path d="M87.4288 0.925781C92.1198 0.925781 96.4008 3.60878 98.6028 7.92878L101.562 13.7368C103.619 17.7738 107.283 20.5428 111.614 21.3338L117.833 22.4698C124.595 23.7048 129.136 30.2278 128.173 37.3208L127.289 43.8298C126.676 48.3428 128.072 52.8118 131.119 56.0908L135.509 60.8158C140.295 65.9668 140.295 74.0368 135.509 79.1878L131.119 83.9128C128.072 87.1918 126.676 91.6608 127.289 96.1738L128.173 102.683C129.137 109.776 124.595 116.299 117.833 117.533L111.614 118.669C107.283 119.46 103.62 122.229 101.562 126.266L98.6028 132.073C96.4018 136.393 92.1198 139.076 87.4288 139.076C85.5018 139.076 83.6398 138.626 81.8958 137.738L76.2228 134.851C74.2968 133.871 72.1448 133.353 69.9998 133.353C67.8548 133.353 65.7028 133.871 63.7768 134.851L58.1038 137.738C56.3598 138.626 54.4978 139.076 52.5708 139.076C47.8798 139.076 43.5978 136.393 41.3968 132.073L38.4378 126.266C36.3808 122.229 32.7168 119.46 28.3858 118.669L22.1668 117.533C15.4048 116.298 10.8628 109.775 11.8268 102.682L12.7108 96.1728C13.3238 91.6598 11.9278 87.1908 8.8818 83.9118L4.49181 79.1868C-0.294195 74.0358 -0.294195 65.9658 4.49181 60.8148L8.8818 56.0898C11.9288 52.8108 13.3248 48.3418 12.7118 43.8288L11.8278 37.3198C10.8638 30.2268 15.4058 23.7038 22.1678 22.4698L28.3868 21.3338C32.7178 20.5428 36.3808 17.7738 38.4388 13.7368L41.3978 7.92978C43.5988 3.60978 47.8808 0.926781 52.5718 0.926781C54.4988 0.926781 56.3608 1.37678 58.1048 2.26478L63.7778 5.15178C65.7038 6.13178 67.8558 6.64978 70.0008 6.64978C72.1458 6.64978 74.2978 6.13178 76.2238 5.15178L81.8968 2.26478C83.6408 1.37678 85.5028 0.926781 87.4298 0.926781M22.1588 111.918C25.1968 111.918 27.6688 109.358 27.6688 106.212C27.6688 103.066 25.1968 100.506 22.1588 100.506C19.1208 100.506 16.6488 103.066 16.6488 106.212C16.6488 109.358 19.1208 111.918 22.1588 111.918ZM87.4288 0.175781C85.4518 0.175781 83.4468 0.632781 81.5558 1.59578L75.8828 4.48278C74.0268 5.42778 72.0138 5.89978 69.9998 5.89978C67.9858 5.89978 65.9728 5.42778 64.1168 4.48278L58.4438 1.59578C56.5528 0.633781 54.5468 0.176781 52.5708 0.175781C47.7638 0.175781 43.1288 2.87878 40.7288 7.58778L37.7698 13.3948C35.8328 17.1948 32.3208 19.8518 28.2518 20.5948L22.0328 21.7308C14.9168 23.0308 10.0728 29.9718 11.0848 37.4198L11.9688 43.9288C12.5478 48.1878 11.2058 52.4868 8.3328 55.5788L3.9428 60.3038C-1.0812 65.7098 -1.0812 74.2908 3.9428 79.6968L8.3328 84.4218C11.2058 87.5138 12.5468 91.8118 11.9688 96.0718L11.0848 102.581C10.0728 110.029 14.9168 116.971 22.0328 118.27L28.2518 119.406C32.3218 120.149 35.8338 122.806 37.7698 126.606L40.7288 132.413C43.1288 137.122 47.7638 139.825 52.5708 139.825C54.5478 139.825 56.5528 139.368 58.4438 138.406L64.1168 135.519C65.9728 134.574 67.9858 134.102 69.9998 134.102C72.0138 134.102 74.0268 134.574 75.8828 135.519L81.5558 138.406C83.4468 139.368 85.4528 139.825 87.4288 139.825C92.2358 139.825 96.8708 137.122 99.2708 132.413L102.23 126.606C104.167 122.806 107.679 120.149 111.748 119.406L117.967 118.27C125.083 116.97 129.927 110.029 128.915 102.581L128.031 96.0718C127.452 91.8128 128.794 87.5138 131.667 84.4218L136.057 79.6968C141.08 74.2908 141.08 65.7098 136.057 60.3038L131.667 55.5788C128.794 52.4868 127.453 48.1878 128.031 43.9288L128.915 37.4198C129.927 29.9718 125.083 23.0298 117.967 21.7308L111.748 20.5948C107.678 19.8518 104.166 17.1948 102.23 13.3948L99.2708 7.58778C96.8708 2.87878 92.2358 0.175781 87.4288 0.175781ZM22.1588 111.168C19.5298 111.168 17.3988 108.949 17.3988 106.212C17.3988 103.475 19.5298 101.256 22.1588 101.256C24.7878 101.256 26.9188 103.475 26.9188 106.212C26.9188 108.949 24.7878 111.168 22.1588 111.168Z" fill="#B9AF79"/>
<path d="M34.738 39.9844L33.464 41.6964L38.104 45.1544L37.08 46.5294L32.439 43.0714L31.187 44.7514L30.125 43.9604L33.677 39.1934L34.738 39.9844Z" fill="#B9AF79"/>
<path d="M41.2178 39.727L39.5628 41.395L40.2158 42.622L38.9258 43.921L35.7158 37.061L36.8528 35.916L43.7498 39.062L42.4528 40.368L41.2178 39.727ZM38.9118 40.17L39.9888 39.085L37.6978 37.892L38.9118 40.17Z" fill="#B9AF79"/>
<path d="M48.1732 34.8057C48.1322 35.1977 47.9582 35.6147 47.6512 36.0577C47.3442 36.5007 46.9462 36.8997 46.4562 37.2547C45.7012 37.8007 44.9322 38.0057 44.1462 37.8697C43.3612 37.7357 42.6552 37.2667 42.0272 36.4677L41.6632 35.9717C41.2522 35.4047 40.9942 34.8357 40.8892 34.2687C40.7842 33.6997 40.8342 33.1667 41.0422 32.6677C41.2502 32.1687 41.6002 31.7427 42.0902 31.3887C42.8092 30.8687 43.4852 30.6287 44.1192 30.6707C44.7532 30.7127 45.3402 31.0347 45.8772 31.6397L44.5402 32.6067C44.2592 32.3187 43.9902 32.1647 43.7322 32.1407C43.4752 32.1197 43.2012 32.2117 42.9112 32.4217C42.5622 32.6737 42.4002 33.0167 42.4252 33.4477C42.4482 33.8827 42.6572 34.3737 43.0522 34.9247L43.3042 35.2737C43.7202 35.8477 44.1312 36.2097 44.5362 36.3557C44.9412 36.5027 45.3552 36.4227 45.7772 36.1177C46.1382 35.8567 46.3502 35.5817 46.4102 35.2927L45.7632 34.3977L44.7982 35.0957L44.1082 34.1437L46.4632 32.4397L48.1732 34.8057Z" fill="#B9AF79"/>
<path d="M50.2332 33.2288L52.8792 31.8477L53.4892 33.0167L49.3242 35.1918L46.0332 28.8867L47.5542 28.0938L50.2332 33.2288Z" fill="#B9AF79"/>
<path d="M55.731 32.1724L54.144 32.8074L51.502 26.2034L53.09 25.5684L55.731 32.1724Z" fill="#B9AF79"/>
<path d="M62.3448 30.2049L60.6988 30.6479L57.1148 27.0319L58.2648 31.3029L56.6098 31.7489L54.7598 24.8829L56.4148 24.4369L59.9948 28.0559L58.8448 23.7839L60.4948 23.3379L62.3448 30.2049Z" fill="#B9AF79"/>
<path d="M67.2221 26.5937L64.5441 26.9007L64.7371 28.5887L67.9011 28.2257L68.0511 29.5357L63.1831 30.0947L62.3721 23.0317L67.2491 22.4707L67.4001 23.7857L64.2261 24.1497L64.3971 25.6387L67.0761 25.3307L67.2221 26.5937Z" fill="#B9AF79"/>
<path d="M75.0329 28.5347L72.6939 28.3168L72.1609 29.6007L70.3379 29.4307L73.5969 22.5938L75.2019 22.7418L77.1559 30.0678L75.3219 29.8958L75.0329 28.5347ZM73.2259 27.0368L74.7479 27.1798L74.2139 24.6528L73.2259 27.0368Z" fill="#B9AF79"/>
<path d="M83.1919 28.9683L85.1779 24.8923L86.8149 25.3503L83.4459 31.7923L81.7339 31.3133L81.9089 27.1533L79.9189 30.8043L78.2109 30.3273L78.6689 23.0703L80.3109 23.5293L79.8949 28.0443L82.0369 24.0123L83.4389 24.4053L83.1929 28.9673L83.1919 28.9683Z" fill="#B9AF79"/>
<path d="M89.2217 32.9342L87.1067 31.9112L86.1597 32.9272L84.5117 32.1292L89.9587 26.8652L91.4087 27.5672L90.6737 35.1142L89.0177 34.3112L89.2217 32.9342ZM88.0537 30.8972L89.4297 31.5642L89.8137 29.0102L88.0537 30.8972Z" fill="#B9AF79"/>
<path d="M94.4712 34.7351L93.7102 34.2051L92.2722 36.2691L90.8662 35.2901L94.9292 29.4531L97.2262 31.0541C97.9182 31.5351 98.3522 32.0661 98.5282 32.6451C98.7052 33.2231 98.5982 33.7921 98.2082 34.3531C97.9262 34.7591 97.6092 35.0391 97.2592 35.1911C96.9092 35.3431 96.5012 35.3801 96.0362 35.3021L95.6132 38.5061L95.5712 38.5671L94.0632 37.5171L94.4702 34.7361L94.4712 34.7351ZM94.4642 33.1231L95.3532 33.7431C95.6212 33.9291 95.8712 33.9981 96.1042 33.9511C96.3372 33.9051 96.5412 33.7561 96.7162 33.5041C96.8912 33.2521 96.9602 33.0071 96.9242 32.7691C96.8882 32.5311 96.7372 32.3211 96.4732 32.1361L95.5832 31.5151L94.4642 33.1231Z" fill="#B9AF79"/>
<path d="M95.9707 38.9223L100.882 33.7773L102.538 35.3583C102.993 35.7933 103.303 36.2863 103.469 36.8383C103.635 37.3903 103.641 37.9503 103.487 38.5223C103.332 39.0923 103.032 39.6123 102.59 40.0813L102.364 40.3173C101.914 40.7883 101.412 41.1153 100.857 41.2983C100.3 41.4813 99.7417 41.5063 99.1787 41.3723C98.6167 41.2373 98.1107 40.9593 97.6627 40.5363L95.9707 38.9223ZM101.208 35.9183L98.1217 39.1513L98.5527 39.5633C98.9077 39.9023 99.3017 40.0363 99.7347 39.9653C100.168 39.8943 100.623 39.6093 101.099 39.1093L101.311 38.8863C101.787 38.3903 102.047 37.9243 102.097 37.4903C102.148 37.0563 101.99 36.6643 101.624 36.3163L101.208 35.9183Z" fill="#B9AF79"/>
<path d="M104.129 44.9799C104.327 44.8269 104.428 44.6359 104.43 44.4109C104.433 44.1849 104.357 43.8489 104.202 43.4049C104.047 42.9609 103.939 42.5829 103.877 42.2729C103.672 41.2669 103.882 40.5219 104.508 40.0389C104.82 39.7989 105.165 39.6759 105.544 39.6739C105.923 39.6709 106.307 39.7839 106.696 40.0149C107.086 40.2439 107.44 40.5669 107.761 40.9829C108.073 41.3859 108.282 41.8049 108.385 42.2379C108.489 42.6699 108.476 43.0789 108.347 43.4619C108.217 43.8459 107.982 44.1709 107.639 44.4349L106.593 43.0819C106.822 42.9059 106.946 42.6969 106.964 42.4599C106.982 42.2219 106.898 41.9819 106.712 41.7429C106.525 41.5019 106.323 41.3499 106.108 41.2939C105.892 41.2359 105.703 41.2699 105.538 41.3979C105.393 41.5099 105.323 41.6889 105.325 41.9329C105.327 42.1789 105.416 42.5439 105.592 43.0289C105.768 43.5149 105.88 43.9389 105.929 44.2999C106.049 45.1789 105.801 45.8569 105.185 46.3319C104.693 46.7129 104.163 46.8249 103.595 46.6709C103.027 46.5169 102.493 46.1169 101.993 45.4709C101.641 45.0139 101.404 44.5389 101.282 44.0419C101.16 43.5459 101.169 43.0939 101.309 42.6869C101.449 42.2809 101.705 41.9349 102.076 41.6479L103.127 43.0069C102.826 43.2409 102.664 43.4899 102.642 43.7569C102.62 44.0229 102.744 44.3309 103.014 44.6819C103.187 44.9069 103.372 45.0459 103.57 45.1019C103.767 45.1569 103.954 45.1179 104.129 44.9819V44.9799Z" fill="#B9AF79"/>
<mask id="mask0_30213_24533" style="mask-type:luminance" maskUnits="userSpaceOnUse" x="8" y="51" width="47" height="65">
<path d="M47.2315 115.674L54.8825 111.456L53.0745 104.196L48.4935 66.5535L32.5625 55.2495L28.2505 56.8745L24.8755 51.0625L8.48047 79.0025L47.2315 115.674Z" fill="white"/>
</mask>
<g mask="url(#mask0_30213_24533)">
<path fill-rule="evenodd" clip-rule="evenodd" d="M88.2587 30.0487C87.4977 31.4187 84.4387 31.7517 82.3627 31.2437C83.4057 30.3027 85.6437 29.4067 87.5667 29.8787L88.2587 30.0487L87.6507 29.6797C85.9607 28.6567 85.0277 26.4487 84.9697 25.0527C86.7937 26.1577 88.7057 28.5497 88.2587 30.0487ZM70.0457 112.891C70.6977 112.891 71.2247 113.414 71.2247 114.061C71.2247 114.708 70.6967 115.23 70.0447 115.231C69.3927 115.232 68.8657 114.708 68.8657 114.062C68.8657 113.415 69.3937 112.891 70.0457 112.891ZM85.6377 28.8347L85.1007 28.3707C83.6077 27.0787 81.2047 26.8617 79.8447 27.2257C81.4557 28.6197 84.3297 29.7087 85.6367 28.8337L85.6377 28.8347ZM54.6097 28.8477C55.9167 29.7217 58.7917 28.6297 60.4037 27.2347C59.0437 26.8717 56.6407 27.0897 55.1467 28.3837L54.6097 28.8477ZM67.0117 114.077C66.6497 115.598 63.7927 116.736 61.6547 116.799C62.4047 115.615 64.3187 114.156 66.2997 114.097L67.0117 114.077C67.0367 112.513 64.5477 110.719 62.4907 110.141C62.9257 111.47 64.4197 113.348 66.3267 113.885L67.0117 114.077ZM62.5647 113.489C62.7487 111.936 60.4547 109.902 58.4667 109.122C58.7637 110.487 60.0597 112.505 61.9027 113.228L62.5647 113.489L61.8537 113.438C59.8777 113.299 57.8257 114.559 56.9587 115.661C59.0917 115.813 62.0497 114.966 62.5647 113.489ZM58.1997 112.461C57.5367 113.879 54.5087 114.426 52.4017 114.061C53.3757 113.05 55.5447 112.003 57.4967 112.338L58.1987 112.46C58.5387 110.933 56.4627 108.679 54.5657 107.705C54.7217 109.094 55.8077 111.231 57.5657 112.134L58.1987 112.46L58.1997 112.461ZM53.9627 111.001C54.4557 109.515 52.6197 107.066 50.8307 105.907C50.8457 107.305 51.7077 109.539 53.3667 110.614L53.9627 111.001L53.2777 110.81C51.3697 110.279 49.1057 111.107 48.0337 112.015C50.0917 112.587 53.1597 112.347 53.9627 111.001ZM49.8937 109.124C48.9577 110.384 45.8817 110.316 43.8917 109.542C45.0497 108.745 47.3867 108.149 49.2317 108.866L49.8947 109.125C50.5367 107.697 48.9577 105.076 47.2957 103.744C47.1687 105.136 47.7997 107.445 49.3407 108.681L49.8947 109.125L49.8937 109.124ZM46.0377 106.851C46.8217 105.494 45.5167 102.73 43.9987 101.237C43.7307 102.609 44.1247 104.971 45.5317 106.353L46.0377 106.851L45.4037 106.529C43.6427 105.629 41.2567 105.989 40.0237 106.667C41.9247 107.637 44.9787 108.01 46.0377 106.851ZM42.4317 104.204C41.2607 105.252 38.2607 104.574 36.4677 103.42C37.7637 102.869 40.1727 102.749 41.8337 103.819L42.4317 104.204L41.9787 103.659C40.7187 102.141 40.5667 99.7527 40.9727 98.4147C42.3317 100.051 43.3487 102.932 42.4317 104.204ZM39.1137 101.211C37.8427 102.137 34.9267 101.163 33.2597 99.8337C34.6037 99.4157 37.0137 99.5367 38.5577 100.768L39.1137 101.211C40.1547 100.036 39.4357 97.0677 38.2497 95.3027C37.7107 96.5947 37.6197 98.9867 38.7187 100.622L39.1137 101.211ZM36.1157 97.9007C34.7577 98.6937 31.9557 97.4337 30.4327 95.9457C31.8127 95.6637 34.1977 96.0257 35.6087 97.4047L36.1157 97.9007C37.2717 96.8357 36.8567 93.8117 35.8557 91.9377C35.1877 93.1687 34.8547 95.5397 35.7817 97.2757L36.1147 97.9007H36.1157ZM33.4697 94.3067C32.0377 94.9617 29.3787 93.4267 28.0147 91.7947C29.4157 91.6517 31.7517 92.2507 33.0157 93.7637L33.4697 94.3067L33.2017 93.6537C32.4557 91.8317 33.0287 89.5077 33.8167 88.3477C34.6217 90.3127 34.7267 93.3637 33.4697 94.3067ZM31.2017 90.4677L31.0017 89.7887C30.4447 87.9037 31.2487 85.6457 32.1517 84.5717C32.7537 86.6077 32.5487 89.6547 31.2017 90.4677L30.8047 89.8797C29.7007 88.2487 27.4377 87.4207 26.0297 87.4217C27.2207 89.1817 29.7117 90.9747 31.2017 90.4677ZM29.3357 86.4187C27.8007 86.7757 25.5057 84.7437 24.4987 82.8727C25.9007 83.0107 28.0677 84.0617 29.0007 85.7957L29.3357 86.4187C30.7577 85.7437 31.2707 82.7337 30.8797 80.6487C29.8727 81.6267 28.8427 83.7917 29.2057 85.7247L29.3357 86.4187ZM27.8897 82.2067L27.8297 81.5017C27.6647 79.5437 28.9087 77.4907 30.0107 76.6177C30.1887 78.7327 29.3727 81.6777 27.8897 82.2067L27.6187 81.5517C26.8667 79.7337 24.8187 78.4717 23.4377 78.1947C24.2487 80.1567 26.3267 82.4077 27.8897 82.2067ZM26.8787 77.8697L26.8907 77.1627C26.9247 75.1967 28.3717 73.2797 29.5557 72.5207C29.5187 74.6417 28.4077 77.4917 26.8787 77.8697L26.6757 77.1907C26.1127 75.3067 24.2017 73.8457 22.8567 73.4307C23.4647 75.4647 25.3027 77.9137 26.8787 77.8697ZM26.3137 73.4527C24.7417 73.3397 23.1617 70.7207 22.7627 68.6357C24.0587 69.1827 25.8107 70.8267 26.1807 72.7587L26.3137 73.4527C27.8737 73.2297 29.2677 70.5057 29.5197 68.3997C28.2647 69.0357 26.6317 70.7977 26.3977 72.7497L26.3137 73.4527ZM26.1997 69.0027C24.6467 68.7327 23.3407 65.9687 23.1567 63.8557C24.3897 64.5287 25.9667 66.3387 26.1377 68.2987L26.1997 69.0027C27.7737 68.9357 29.4377 66.3657 29.9017 64.2947C28.5887 64.8017 26.7847 66.3927 26.3537 68.3127L26.1997 69.0027ZM26.5367 64.5637C25.0207 64.1387 24.0007 61.2597 24.0327 59.1377C25.1917 59.9317 26.5757 61.8897 26.5477 63.8557L26.5377 64.5637C28.1107 64.6547 30.0267 62.2627 30.6997 60.2487C29.3417 60.6217 27.3857 62.0257 26.7617 63.8917L26.5367 64.5637ZM27.3237 60.1787L27.6147 59.5337C28.4237 57.7387 30.5127 56.5387 31.9007 56.3017C31.0267 58.2387 28.8797 60.4267 27.3237 60.1787L27.4047 59.4777C27.6327 57.5247 26.4547 55.4367 25.3807 54.5317C25.1357 56.6387 25.8567 59.6057 27.3227 60.1797L27.3237 60.1787ZM28.5517 55.8967C27.1517 55.1797 26.7347 52.1547 27.1937 50.0817C28.1687 51.0907 29.1297 53.2857 28.7047 55.2057L28.5517 55.8967C30.0737 56.2977 32.4337 54.3367 33.4997 52.4967C32.0947 52.5927 29.8947 53.5787 28.9077 55.2837L28.5527 55.8977L28.5517 55.8967ZM30.2077 51.7567C28.8877 50.9027 28.7797 47.8517 29.4467 45.8357C30.3147 46.9357 31.0477 49.2167 30.4297 51.0847L30.2077 51.7567C31.6817 52.3087 34.2277 50.5917 35.4757 48.8667C34.0677 48.8227 31.7797 49.5837 30.6237 51.1807L30.2077 51.7567ZM32.2757 47.8037C33.6857 48.5007 36.3927 47.0467 37.8087 45.4557C36.4127 45.2697 34.0587 45.7987 32.7467 47.2737L32.2747 47.8037L32.5637 47.1567C33.3677 45.3597 32.8697 43.0177 32.1177 41.8357C31.2507 43.7757 31.0477 46.8227 32.2747 47.8037H32.2757ZM34.7327 44.0777C33.6127 42.9787 34.1237 39.9677 35.1837 38.1237C35.8117 39.3747 36.0697 41.7547 35.0867 43.4617L34.7337 44.0767L35.2567 43.5967C36.7107 42.2607 39.1057 41.9697 40.4757 42.2927C38.9057 43.7347 36.0657 44.9117 34.7327 44.0777ZM37.5567 40.6147L38.1257 40.1877C39.7087 39.0037 42.1207 38.9547 43.4507 39.4127C41.7427 40.6917 38.7977 41.5767 37.5567 40.6147L37.9707 40.0377C39.1207 38.4367 39.1067 36.0427 38.6087 34.7357C37.3677 36.4647 36.5527 39.4097 37.5567 40.6147ZM40.7177 37.4517C39.8417 36.1527 40.9507 33.3037 42.3607 31.7077C42.7227 33.0577 42.4947 35.4417 41.1877 36.9197L40.7177 37.4517C41.8547 38.5337 44.8757 37.9467 46.7037 36.8467C45.4267 36.2567 43.0217 36.0657 41.3267 37.0857L40.7167 37.4527L40.7177 37.4517ZM44.1837 34.6197C43.4437 33.2397 44.8357 30.5157 46.4007 29.0697C46.6247 30.4497 46.1547 32.7977 44.7047 34.1387L44.1837 34.6207L44.8267 34.3167C46.6167 33.4707 48.9887 33.9007 50.1997 34.6157C48.2687 35.5277 45.2047 35.8107 44.1837 34.6207V34.6197ZM47.9177 32.1487L48.5887 31.9107C50.4547 31.2487 52.7717 31.9127 53.9037 32.7447C51.8897 33.4597 48.8127 33.4347 47.9177 32.1487L48.4847 31.7207C50.0637 30.5317 50.7687 28.2417 50.6867 26.8467C48.9827 28.1307 47.3217 30.7017 47.9177 32.1487ZM51.8837 30.0637C51.4377 28.5647 53.3507 26.1717 55.1767 25.0657C55.1167 26.4607 54.1827 28.6697 52.4917 29.6947L51.8837 30.0637L52.5757 29.8937C54.4997 29.4197 56.7367 30.3147 57.7787 31.2547C55.7017 31.7647 52.6437 31.4317 51.8837 30.0637ZM73.0587 114.074C73.4197 115.594 76.2757 116.73 78.4137 116.792C77.6647 115.608 75.7517 114.151 73.7707 114.094L73.0587 114.074C73.0347 112.51 75.5257 110.714 77.5827 110.134C77.1477 111.463 75.6507 113.342 73.7437 113.881L73.0587 114.074ZM77.5067 113.483C77.3237 111.93 79.6197 109.895 81.6087 109.112C81.3107 110.478 80.0117 112.496 78.1697 113.221L77.5077 113.483L78.2187 113.431C80.1947 113.29 82.2467 114.549 83.1117 115.65C80.9787 115.804 78.0217 114.959 77.5077 113.483H77.5067ZM81.8717 112.451L82.5047 112.124C84.2647 111.219 85.3507 109.082 85.5097 107.692C83.6107 108.668 81.5337 110.924 81.8727 112.45L82.5747 112.327C84.5267 111.99 86.6957 113.036 87.6687 114.045C85.5617 114.411 82.5337 113.868 81.8727 112.45L81.8717 112.451ZM86.1107 110.988C85.6187 109.503 87.4567 107.052 89.2477 105.891C89.2317 107.289 88.3667 109.524 86.7077 110.6L86.1107 110.988L86.7977 110.796C88.7057 110.264 90.9697 111.089 92.0407 111.997C89.9807 112.571 86.9127 112.333 86.1107 110.988ZM90.1807 109.108C91.1157 110.367 94.1917 110.297 96.1817 109.521C95.0247 108.725 92.6877 108.131 90.8437 108.849L90.1807 109.108C89.5397 107.68 91.1197 105.059 92.7837 103.725C92.9087 105.117 92.2757 107.427 90.7347 108.664L90.1807 109.108ZM94.0387 106.832C93.2567 105.476 94.5637 102.71 96.0827 101.217C96.3497 102.589 95.9537 104.951 94.5457 106.334L94.0387 106.832L94.6737 106.509C96.4357 105.608 98.8207 105.966 100.054 106.643C98.1517 107.614 95.0967 107.991 94.0387 106.832ZM97.6467 104.182C98.8167 105.229 101.818 104.549 103.612 103.393C102.317 102.843 99.9077 102.725 98.2447 103.797L97.6467 104.182L98.1007 103.637C99.3607 102.118 99.5157 99.7297 99.1107 98.3917C97.7507 100.029 96.7307 102.911 97.6467 104.182ZM100.969 101.185L101.364 100.597C102.464 98.9607 102.375 96.5687 101.837 95.2767C100.65 97.0427 99.9277 100.011 100.969 101.185L101.524 100.742C103.069 99.5097 105.478 99.3857 106.823 99.8027C105.156 101.133 102.239 102.11 100.969 101.185ZM103.969 97.8727C105.327 98.6647 108.13 97.4017 109.655 95.9137C108.275 95.6327 105.89 95.9967 104.478 97.3767L103.969 97.8727C102.815 96.8087 103.232 93.7847 104.234 91.9097C104.901 93.1397 105.233 95.5107 104.304 97.2477L103.969 97.8727ZM106.618 94.2767C108.049 94.9297 110.71 93.3937 112.076 91.7597C110.675 91.6177 108.339 92.2187 107.074 93.7327L106.618 94.2767L106.888 93.6227C107.636 91.8007 107.066 89.4757 106.277 88.3167C105.47 90.2827 105.361 93.3337 106.618 94.2767ZM108.889 90.4357C110.38 90.9417 112.872 89.1477 114.065 87.3857C112.656 87.3857 110.393 88.2147 109.287 89.8477L108.889 90.4357C107.543 89.6237 107.341 86.5767 107.944 84.5397C108.846 85.6137 109.649 87.8707 109.09 89.7557L108.889 90.4357ZM110.758 86.3857C112.293 86.7417 114.59 84.7077 115.598 82.8357C114.197 82.9747 112.028 84.0277 111.094 85.7627L110.758 86.3857C109.337 85.7127 108.826 82.7027 109.22 80.6167C110.227 81.5937 111.255 83.7587 110.89 85.6917L110.758 86.3857ZM112.208 82.1727C113.771 82.3717 115.85 80.1187 116.663 78.1567C115.282 78.4347 113.232 79.6987 112.479 81.5167L112.208 82.1717C110.725 81.6437 109.911 78.6987 110.092 76.5837C111.192 77.4557 112.435 79.5077 112.268 81.4657L112.208 82.1717V82.1727ZM113.223 77.8337C114.798 77.8767 116.639 75.4277 117.248 73.3927C115.902 73.8087 113.991 75.2707 113.426 77.1557L113.223 77.8337C111.694 77.4567 110.586 74.6087 110.55 72.4877C111.734 73.2447 113.179 75.1617 113.211 77.1267L113.223 77.8337ZM113.792 73.4167C115.364 73.3027 116.946 70.6817 117.347 68.5977C116.051 69.1457 114.297 70.7907 113.925 72.7227L113.792 73.4167C112.232 73.1947 110.84 70.4717 110.59 68.3657C111.844 69.0007 113.476 70.7617 113.708 72.7137L113.792 73.4167ZM113.91 68.9667L113.755 68.2767C113.326 66.3577 111.523 64.7677 110.211 64.2617C110.674 66.3327 112.335 68.9017 113.91 68.9667L113.972 68.2627C114.145 66.3027 115.723 64.4917 116.957 63.8177C116.771 65.9307 115.461 68.6967 113.91 68.9667ZM113.576 64.5277C115.093 64.1017 116.115 61.2217 116.086 59.0997C114.926 59.8937 113.54 61.8547 113.567 63.8197L113.576 64.5277C112.003 64.6197 110.09 62.2297 109.419 60.2167C110.777 60.5887 112.732 61.9907 113.353 63.8567L113.576 64.5277ZM112.792 60.1437C114.258 59.5687 114.983 56.6017 114.739 54.4947C113.665 55.4007 112.485 57.4897 112.711 59.4427L112.792 60.1437C111.237 60.3937 109.09 58.2067 108.217 56.2707C109.606 56.5067 111.694 57.7047 112.501 59.4987L112.792 60.1437ZM111.569 55.8627C112.969 55.1447 113.389 52.1197 112.932 50.0467C111.956 51.0567 110.993 53.2527 111.417 55.1717L111.569 55.8627C110.046 56.2647 107.688 54.3047 106.624 52.4657C108.029 52.5597 110.228 53.5447 111.214 55.2487L111.569 55.8627ZM109.916 51.7247L109.501 51.1497C108.346 49.5537 106.059 48.7937 104.651 48.8397C105.897 50.5637 108.442 52.2777 109.916 51.7247L109.695 51.0537C109.079 49.1857 109.814 46.9047 110.683 45.8037C111.348 47.8197 111.236 50.8707 109.916 51.7247ZM107.852 47.7727C106.441 48.4707 103.735 47.0187 102.321 45.4287C103.717 45.2417 106.07 45.7687 107.38 47.2427L107.852 47.7727L107.563 47.1267C106.76 45.3297 107.26 42.9877 108.013 41.8057C108.879 43.7447 109.079 46.7907 107.852 47.7727ZM105.397 44.0487C106.519 42.9487 106.011 39.9377 104.952 38.0957C104.323 39.3477 104.064 41.7277 105.045 43.4337L105.397 44.0487L104.875 43.5687C103.422 42.2337 101.027 41.9447 99.6557 42.2687C101.225 43.7097 104.064 44.8827 105.397 44.0487ZM102.576 40.5887L102.008 40.1627C100.426 38.9807 98.0137 38.9327 96.6827 39.3917C98.3897 40.6687 101.335 41.5517 102.576 40.5887L102.163 40.0127C101.014 38.4127 101.03 36.0187 101.529 34.7107C102.769 36.4387 103.581 39.3827 102.576 40.5887ZM99.4177 37.4267C100.295 36.1267 99.1887 33.2787 97.7797 31.6837C97.4157 33.0347 97.6417 35.4177 98.9487 36.8947L99.4177 37.4257C98.2807 38.5087 95.2607 37.9237 93.4327 36.8257C94.7107 36.2347 97.1147 36.0417 98.8087 37.0597L99.4177 37.4257V37.4267ZM95.9547 34.5987C96.6957 33.2177 95.3057 30.4947 93.7417 29.0497C93.5167 30.4307 93.9837 32.7767 95.4337 34.1167L95.9547 34.5987L95.3117 34.2937C93.5227 33.4487 91.1497 33.8817 89.9387 34.5977C91.8687 35.5087 94.9327 35.7897 95.9547 34.5987ZM92.2227 32.1307C92.8197 30.6837 91.1607 28.1137 89.4577 26.8307C89.3737 28.2257 90.0777 30.5157 91.6547 31.7027L92.2227 32.1307C91.3277 33.4177 88.2497 33.4447 86.2367 32.7307C87.3697 31.8977 89.6867 31.2317 91.5527 31.8917L92.2227 32.1287V32.1307Z" fill="#B9AF79"/>
</g>
<mask id="mask1_30213_24533" style="mask-type:luminance" maskUnits="userSpaceOnUse" x="85" y="44" width="38" height="72">
<path d="M86.0052 61.0525L106.062 54.3125L111.875 56.8745L122.562 44.4375L120.516 71.4995L112.514 99.5085L91.6032 115.021L85.2422 111.26L87.1552 103.657L86.0052 61.0525Z" fill="white"/>
</mask>
<g mask="url(#mask1_30213_24533)">
<path fill-rule="evenodd" clip-rule="evenodd" d="M88.2577 30.0487C87.4967 31.4187 84.4377 31.7517 82.3617 31.2437C83.4047 30.3027 85.6427 29.4067 87.5657 29.8787L88.2577 30.0487L87.6497 29.6797C85.9597 28.6567 85.0267 26.4487 84.9687 25.0527C86.7927 26.1577 88.7047 28.5497 88.2577 30.0487ZM70.0447 112.891C70.6967 112.891 71.2237 113.414 71.2237 114.061C71.2237 114.708 70.6957 115.23 70.0437 115.231C69.3917 115.232 68.8647 114.708 68.8647 114.062C68.8647 113.415 69.3927 112.891 70.0447 112.891ZM85.6367 28.8347L85.0997 28.3707C83.6067 27.0787 81.2037 26.8617 79.8437 27.2257C81.4547 28.6197 84.3287 29.7087 85.6357 28.8337L85.6367 28.8347ZM54.6087 28.8477C55.9157 29.7217 58.7907 28.6297 60.4027 27.2347C59.0427 26.8717 56.6397 27.0897 55.1457 28.3837L54.6087 28.8477ZM67.0107 114.077C66.6487 115.598 63.7917 116.736 61.6537 116.799C62.4037 115.615 64.3177 114.156 66.2987 114.097L67.0107 114.077C67.0357 112.513 64.5467 110.719 62.4897 110.141C62.9247 111.47 64.4187 113.348 66.3257 113.885L67.0107 114.077ZM62.5637 113.489C62.7477 111.936 60.4537 109.902 58.4657 109.122C58.7627 110.487 60.0587 112.505 61.9017 113.228L62.5637 113.489L61.8527 113.438C59.8767 113.299 57.8247 114.559 56.9577 115.661C59.0907 115.813 62.0487 114.966 62.5637 113.489ZM58.1987 112.461C57.5357 113.879 54.5077 114.426 52.4007 114.061C53.3747 113.05 55.5437 112.003 57.4957 112.338L58.1977 112.46C58.5377 110.933 56.4617 108.679 54.5647 107.705C54.7207 109.094 55.8067 111.231 57.5647 112.134L58.1977 112.46L58.1987 112.461ZM53.9617 111.001C54.4547 109.515 52.6187 107.066 50.8297 105.907C50.8447 107.305 51.7067 109.539 53.3657 110.614L53.9617 111.001L53.2767 110.81C51.3687 110.279 49.1047 111.107 48.0327 112.015C50.0907 112.587 53.1587 112.347 53.9617 111.001ZM49.8927 109.124C48.9567 110.384 45.8807 110.316 43.8907 109.542C45.0487 108.745 47.3857 108.149 49.2307 108.866L49.8937 109.125C50.5357 107.697 48.9567 105.076 47.2947 103.744C47.1677 105.136 47.7987 107.445 49.3397 108.681L49.8937 109.125L49.8927 109.124ZM46.0367 106.851C46.8207 105.494 45.5157 102.73 43.9977 101.237C43.7297 102.609 44.1237 104.971 45.5307 106.353L46.0367 106.851L45.4027 106.529C43.6417 105.629 41.2557 105.989 40.0227 106.667C41.9237 107.637 44.9777 108.01 46.0367 106.851ZM42.4307 104.204C41.2597 105.252 38.2597 104.574 36.4667 103.42C37.7627 102.869 40.1717 102.749 41.8327 103.819L42.4307 104.204L41.9777 103.659C40.7177 102.141 40.5657 99.7527 40.9717 98.4147C42.3307 100.051 43.3477 102.932 42.4307 104.204ZM39.1127 101.211C37.8417 102.137 34.9257 101.163 33.2587 99.8337C34.6027 99.4157 37.0127 99.5367 38.5567 100.768L39.1127 101.211C40.1537 100.036 39.4347 97.0677 38.2487 95.3027C37.7097 96.5947 37.6187 98.9867 38.7177 100.622L39.1127 101.211ZM36.1147 97.9007C34.7567 98.6937 31.9547 97.4337 30.4317 95.9457C31.8117 95.6637 34.1967 96.0257 35.6077 97.4047L36.1147 97.9007C37.2707 96.8357 36.8557 93.8117 35.8547 91.9377C35.1867 93.1687 34.8537 95.5397 35.7807 97.2757L36.1137 97.9007H36.1147ZM33.4687 94.3067C32.0367 94.9617 29.3777 93.4267 28.0137 91.7947C29.4147 91.6517 31.7507 92.2507 33.0147 93.7637L33.4687 94.3067L33.2007 93.6537C32.4547 91.8317 33.0277 89.5077 33.8157 88.3477C34.6207 90.3127 34.7257 93.3637 33.4687 94.3067ZM31.2007 90.4677L31.0007 89.7887C30.4437 87.9037 31.2477 85.6457 32.1507 84.5717C32.7527 86.6077 32.5477 89.6547 31.2007 90.4677L30.8037 89.8797C29.6997 88.2487 27.4367 87.4207 26.0287 87.4217C27.2197 89.1817 29.7107 90.9747 31.2007 90.4677ZM29.3347 86.4187C27.7997 86.7757 25.5047 84.7437 24.4977 82.8727C25.8997 83.0107 28.0667 84.0617 28.9997 85.7957L29.3347 86.4187C30.7567 85.7437 31.2697 82.7337 30.8787 80.6487C29.8717 81.6267 28.8417 83.7917 29.2047 85.7247L29.3347 86.4187ZM27.8887 82.2067L27.8287 81.5017C27.6637 79.5437 28.9077 77.4907 30.0097 76.6177C30.1877 78.7327 29.3717 81.6777 27.8887 82.2067L27.6177 81.5517C26.8657 79.7337 24.8177 78.4717 23.4367 78.1947C24.2477 80.1567 26.3257 82.4077 27.8887 82.2067ZM26.8777 77.8697L26.8897 77.1627C26.9237 75.1967 28.3707 73.2797 29.5547 72.5207C29.5177 74.6417 28.4067 77.4917 26.8777 77.8697L26.6747 77.1907C26.1117 75.3067 24.2007 73.8457 22.8557 73.4307C23.4637 75.4647 25.3017 77.9137 26.8777 77.8697ZM26.3127 73.4527C24.7407 73.3397 23.1607 70.7207 22.7617 68.6357C24.0577 69.1827 25.8097 70.8267 26.1797 72.7587L26.3127 73.4527C27.8727 73.2297 29.2667 70.5057 29.5187 68.3997C28.2637 69.0357 26.6307 70.7977 26.3967 72.7497L26.3127 73.4527ZM26.1987 69.0027C24.6457 68.7327 23.3397 65.9687 23.1557 63.8557C24.3887 64.5287 25.9657 66.3387 26.1367 68.2987L26.1987 69.0027C27.7727 68.9357 29.4367 66.3657 29.9007 64.2947C28.5877 64.8017 26.7837 66.3927 26.3527 68.3127L26.1987 69.0027ZM26.5357 64.5637C25.0197 64.1387 23.9997 61.2597 24.0317 59.1377C25.1907 59.9317 26.5747 61.8897 26.5467 63.8557L26.5367 64.5637C28.1097 64.6547 30.0257 62.2627 30.6987 60.2487C29.3407 60.6217 27.3847 62.0257 26.7607 63.8917L26.5357 64.5637ZM27.3227 60.1787L27.6137 59.5337C28.4227 57.7387 30.5117 56.5387 31.8997 56.3017C31.0257 58.2387 28.8787 60.4267 27.3227 60.1787L27.4037 59.4777C27.6317 57.5247 26.4537 55.4367 25.3797 54.5317C25.1347 56.6387 25.8557 59.6057 27.3217 60.1797L27.3227 60.1787ZM28.5507 55.8967C27.1507 55.1797 26.7337 52.1547 27.1927 50.0817C28.1677 51.0907 29.1287 53.2857 28.7037 55.2057L28.5507 55.8967C30.0727 56.2977 32.4327 54.3367 33.4987 52.4967C32.0937 52.5927 29.8937 53.5787 28.9067 55.2837L28.5517 55.8977L28.5507 55.8967ZM30.2067 51.7567C28.8867 50.9027 28.7787 47.8517 29.4457 45.8357C30.3137 46.9357 31.0467 49.2167 30.4287 51.0847L30.2067 51.7567C31.6807 52.3087 34.2267 50.5917 35.4747 48.8667C34.0667 48.8227 31.7787 49.5837 30.6227 51.1807L30.2067 51.7567ZM32.2747 47.8037C33.6847 48.5007 36.3917 47.0467 37.8077 45.4557C36.4117 45.2697 34.0577 45.7987 32.7457 47.2737L32.2737 47.8037L32.5627 47.1567C33.3667 45.3597 32.8687 43.0177 32.1167 41.8357C31.2497 43.7757 31.0467 46.8227 32.2737 47.8037H32.2747ZM34.7317 44.0777C33.6117 42.9787 34.1227 39.9677 35.1827 38.1237C35.8107 39.3747 36.0687 41.7547 35.0857 43.4617L34.7327 44.0767L35.2557 43.5967C36.7097 42.2607 39.1047 41.9697 40.4747 42.2927C38.9047 43.7347 36.0647 44.9117 34.7317 44.0777ZM37.5557 40.6147L38.1247 40.1877C39.7077 39.0037 42.1197 38.9547 43.4497 39.4127C41.7417 40.6917 38.7967 41.5767 37.5557 40.6147L37.9697 40.0377C39.1197 38.4367 39.1057 36.0427 38.6077 34.7357C37.3667 36.4647 36.5517 39.4097 37.5557 40.6147ZM40.7167 37.4517C39.8407 36.1527 40.9497 33.3037 42.3597 31.7077C42.7217 33.0577 42.4937 35.4417 41.1867 36.9197L40.7167 37.4517C41.8537 38.5337 44.8747 37.9467 46.7027 36.8467C45.4257 36.2567 43.0207 36.0657 41.3257 37.0857L40.7157 37.4527L40.7167 37.4517ZM44.1827 34.6197C43.4427 33.2397 44.8347 30.5157 46.3997 29.0697C46.6237 30.4497 46.1537 32.7977 44.7037 34.1387L44.1827 34.6207L44.8257 34.3167C46.6157 33.4707 48.9877 33.9007 50.1987 34.6157C48.2677 35.5277 45.2037 35.8107 44.1827 34.6207V34.6197ZM47.9167 32.1487L48.5877 31.9107C50.4537 31.2487 52.7707 31.9127 53.9027 32.7447C51.8887 33.4597 48.8117 33.4347 47.9167 32.1487L48.4837 31.7207C50.0627 30.5317 50.7677 28.2417 50.6857 26.8467C48.9817 28.1307 47.3207 30.7017 47.9167 32.1487ZM51.8827 30.0637C51.4367 28.5647 53.3497 26.1717 55.1757 25.0657C55.1157 26.4607 54.1817 28.6697 52.4907 29.6947L51.8827 30.0637L52.5747 29.8937C54.4987 29.4197 56.7357 30.3147 57.7777 31.2547C55.7007 31.7647 52.6427 31.4317 51.8827 30.0637ZM73.0577 114.074C73.4187 115.594 76.2747 116.73 78.4127 116.792C77.6637 115.608 75.7507 114.151 73.7697 114.094L73.0577 114.074C73.0337 112.51 75.5247 110.714 77.5817 110.134C77.1467 111.463 75.6497 113.342 73.7427 113.881L73.0577 114.074ZM77.5057 113.483C77.3227 111.93 79.6187 109.895 81.6077 109.112C81.3097 110.478 80.0107 112.496 78.1687 113.221L77.5067 113.483L78.2177 113.431C80.1937 113.29 82.2457 114.549 83.1107 115.65C80.9777 115.804 78.0207 114.959 77.5067 113.483H77.5057ZM81.8707 112.451L82.5037 112.124C84.2637 111.219 85.3497 109.082 85.5087 107.692C83.6097 108.668 81.5327 110.924 81.8717 112.45L82.5737 112.327C84.5257 111.99 86.6947 113.036 87.6677 114.045C85.5607 114.411 82.5327 113.868 81.8717 112.45L81.8707 112.451ZM86.1097 110.988C85.6177 109.503 87.4557 107.052 89.2467 105.891C89.2307 107.289 88.3657 109.524 86.7067 110.6L86.1097 110.988L86.7967 110.796C88.7047 110.264 90.9687 111.089 92.0397 111.997C89.9797 112.571 86.9117 112.333 86.1097 110.988ZM90.1797 109.108C91.1147 110.367 94.1907 110.297 96.1807 109.521C95.0237 108.725 92.6867 108.131 90.8427 108.849L90.1797 109.108C89.5387 107.68 91.1187 105.059 92.7827 103.725C92.9077 105.117 92.2747 107.427 90.7337 108.664L90.1797 109.108ZM94.0377 106.832C93.2557 105.476 94.5627 102.71 96.0817 101.217C96.3487 102.589 95.9527 104.951 94.5447 106.334L94.0377 106.832L94.6727 106.509C96.4347 105.608 98.8197 105.966 100.053 106.643C98.1507 107.614 95.0957 107.991 94.0377 106.832ZM97.6457 104.182C98.8157 105.229 101.817 104.549 103.611 103.393C102.316 102.843 99.9067 102.725 98.2437 103.797L97.6457 104.182L98.0997 103.637C99.3597 102.118 99.5147 99.7297 99.1097 98.3917C97.7497 100.029 96.7297 102.911 97.6457 104.182ZM100.968 101.185L101.363 100.597C102.463 98.9607 102.374 96.5687 101.836 95.2767C100.649 97.0427 99.9267 100.011 100.968 101.185L101.523 100.742C103.068 99.5097 105.477 99.3857 106.822 99.8027C105.155 101.133 102.238 102.11 100.968 101.185ZM103.968 97.8727C105.326 98.6647 108.129 97.4017 109.654 95.9137C108.274 95.6327 105.889 95.9967 104.477 97.3767L103.968 97.8727C102.814 96.8087 103.231 93.7847 104.233 91.9097C104.9 93.1397 105.232 95.5107 104.303 97.2477L103.968 97.8727ZM106.617 94.2767C108.048 94.9297 110.709 93.3937 112.075 91.7597C110.674 91.6177 108.338 92.2187 107.073 93.7327L106.617 94.2767L106.887 93.6227C107.635 91.8007 107.065 89.4757 106.276 88.3167C105.469 90.2827 105.36 93.3337 106.617 94.2767ZM108.888 90.4357C110.379 90.9417 112.871 89.1477 114.064 87.3857C112.655 87.3857 110.392 88.2147 109.286 89.8477L108.888 90.4357C107.542 89.6237 107.34 86.5767 107.943 84.5397C108.845 85.6137 109.648 87.8707 109.089 89.7557L108.888 90.4357ZM110.757 86.3857C112.292 86.7417 114.589 84.7077 115.597 82.8357C114.196 82.9747 112.027 84.0277 111.093 85.7627L110.757 86.3857C109.336 85.7127 108.825 82.7027 109.219 80.6167C110.226 81.5937 111.254 83.7587 110.889 85.6917L110.757 86.3857ZM112.207 82.1727C113.77 82.3717 115.849 80.1187 116.662 78.1567C115.281 78.4347 113.231 79.6987 112.478 81.5167L112.207 82.1717C110.724 81.6437 109.91 78.6987 110.091 76.5837C111.191 77.4557 112.434 79.5077 112.267 81.4657L112.207 82.1717V82.1727ZM113.222 77.8337C114.797 77.8767 116.638 75.4277 117.247 73.3927C115.901 73.8087 113.99 75.2707 113.425 77.1557L113.222 77.8337C111.693 77.4567 110.585 74.6087 110.549 72.4877C111.733 73.2447 113.178 75.1617 113.21 77.1267L113.222 77.8337ZM113.791 73.4167C115.363 73.3027 116.945 70.6817 117.346 68.5977C116.05 69.1457 114.296 70.7907 113.924 72.7227L113.791 73.4167C112.231 73.1947 110.839 70.4717 110.589 68.3657C111.843 69.0007 113.475 70.7617 113.707 72.7137L113.791 73.4167ZM113.909 68.9667L113.754 68.2767C113.325 66.3577 111.522 64.7677 110.21 64.2617C110.673 66.3327 112.334 68.9017 113.909 68.9667L113.971 68.2627C114.144 66.3027 115.722 64.4917 116.956 63.8177C116.77 65.9307 115.46 68.6967 113.909 68.9667ZM113.575 64.5277C115.092 64.1017 116.114 61.2217 116.085 59.0997C114.925 59.8937 113.539 61.8547 113.566 63.8197L113.575 64.5277C112.002 64.6197 110.089 62.2297 109.418 60.2167C110.776 60.5887 112.731 61.9907 113.352 63.8567L113.575 64.5277ZM112.791 60.1437C114.257 59.5687 114.982 56.6017 114.738 54.4947C113.664 55.4007 112.484 57.4897 112.71 59.4427L112.791 60.1437C111.236 60.3937 109.089 58.2067 108.216 56.2707C109.605 56.5067 111.693 57.7047 112.5 59.4987L112.791 60.1437ZM111.568 55.8627C112.968 55.1447 113.388 52.1197 112.931 50.0467C111.955 51.0567 110.992 53.2527 111.416 55.1717L111.568 55.8627C110.045 56.2647 107.687 54.3047 106.623 52.4657C108.028 52.5597 110.227 53.5447 111.213 55.2487L111.568 55.8627ZM109.915 51.7247L109.5 51.1497C108.345 49.5537 106.058 48.7937 104.65 48.8397C105.896 50.5637 108.441 52.2777 109.915 51.7247L109.694 51.0537C109.078 49.1857 109.813 46.9047 110.682 45.8037C111.347 47.8197 111.235 50.8707 109.915 51.7247ZM107.851 47.7727C106.44 48.4707 103.734 47.0187 102.32 45.4287C103.716 45.2417 106.069 45.7687 107.379 47.2427L107.851 47.7727L107.562 47.1267C106.759 45.3297 107.259 42.9877 108.012 41.8057C108.878 43.7447 109.078 46.7907 107.851 47.7727ZM105.396 44.0487C106.518 42.9487 106.01 39.9377 104.951 38.0957C104.322 39.3477 104.063 41.7277 105.044 43.4337L105.396 44.0487L104.874 43.5687C103.421 42.2337 101.026 41.9447 99.6547 42.2687C101.224 43.7097 104.063 44.8827 105.396 44.0487ZM102.575 40.5887L102.007 40.1627C100.425 38.9807 98.0127 38.9327 96.6817 39.3917C98.3887 40.6687 101.334 41.5517 102.575 40.5887L102.162 40.0127C101.013 38.4127 101.029 36.0187 101.528 34.7107C102.768 36.4387 103.58 39.3827 102.575 40.5887ZM99.4167 37.4267C100.294 36.1267 99.1877 33.2787 97.7787 31.6837C97.4147 33.0347 97.6407 35.4177 98.9477 36.8947L99.4167 37.4257C98.2797 38.5087 95.2597 37.9237 93.4317 36.8257C94.7097 36.2347 97.1137 36.0417 98.8077 37.0597L99.4167 37.4257V37.4267ZM95.9537 34.5987C96.6947 33.2177 95.3047 30.4947 93.7407 29.0497C93.5157 30.4307 93.9827 32.7767 95.4327 34.1167L95.9537 34.5987L95.3107 34.2937C93.5217 33.4487 91.1487 33.8817 89.9377 34.5977C91.8677 35.5087 94.9317 35.7897 95.9537 34.5987ZM92.2217 32.1307C92.8187 30.6837 91.1597 28.1137 89.4567 26.8307C89.3727 28.2257 90.0767 30.5157 91.6537 31.7027L92.2217 32.1307C91.3267 33.4177 88.2487 33.4447 86.2357 32.7307C87.3687 31.8977 89.6857 31.2317 91.5517 31.8917L92.2217 32.1287V32.1307Z" fill="#B9AF79"/>
</g>
<path fill-rule="evenodd" clip-rule="evenodd" d="M112.189 57.3428L112.221 56.6338C112.311 54.6608 110.993 52.6408 109.865 51.7988C109.769 53.9268 110.692 56.8578 112.189 57.3428Z" fill="#B9AF79"/>
<path fill-rule="evenodd" clip-rule="evenodd" d="M27.9817 57.3428L27.9497 56.6338C27.8597 54.6608 29.1777 52.6408 30.3057 51.7988C30.4017 53.9268 29.4787 56.8578 27.9817 57.3428Z" fill="#B9AF79"/>
<path d="M36 75.9178V63.1758H40.616C42.268 63.1758 43.526 63.4758 44.388 64.0768C45.249 64.6778 45.681 65.5498 45.681 66.6928C45.681 67.3528 45.528 67.9158 45.222 68.3818C44.916 68.8488 44.466 69.1928 43.871 69.4148C44.542 69.5898 45.057 69.9168 45.416 70.3948C45.774 70.8738 45.954 71.4568 45.954 72.1448C45.954 73.3928 45.556 74.3318 44.758 74.9578C43.961 75.5848 42.78 75.9038 41.215 75.9158H36V75.9178ZM39.097 68.4878H40.712C41.389 68.4828 41.871 68.3598 42.159 68.1188C42.447 67.8788 42.592 67.5248 42.592 67.0568C42.592 66.5188 42.436 66.1308 42.124 65.8938C41.812 65.6568 41.309 65.5388 40.615 65.5388H39.097V68.4878ZM39.097 70.5008V73.5558H41.127C41.686 73.5558 42.115 73.4288 42.415 73.1748C42.715 72.9208 42.865 72.5638 42.865 72.1028C42.865 71.0408 42.333 70.5068 41.267 70.5008H39.097Z" fill="#B9AF79"/>
<path d="M52.4322 71.4108H50.7552V75.9178H47.6572V63.1758H52.7142C54.2382 63.1758 55.4302 63.5108 56.2882 64.1808C57.1472 64.8508 57.5772 65.7978 57.5772 67.0218C57.5772 67.9078 57.3962 68.6418 57.0342 69.2248C56.6732 69.8078 56.1062 70.2798 55.3352 70.6408L58.0192 75.7848V75.9168H54.7012L52.4322 71.4108ZM50.7562 69.0478H52.7152C53.3042 69.0478 53.7462 68.8948 54.0432 68.5878C54.3412 68.2808 54.4892 67.8528 54.4892 67.3028C54.4892 66.7528 54.3392 66.3218 54.0392 66.0088C53.7392 65.6958 53.2982 65.5398 52.7152 65.5398H50.7562V69.0478Z" fill="#B9AF79"/>
<path d="M70.3309 69.809C70.3309 71.052 70.0989 72.151 69.6339 73.108C69.1689 74.064 68.5089 74.8 67.6529 75.317C66.7979 75.834 65.8219 76.091 64.7269 76.091C63.6329 76.091 62.6629 75.842 61.8149 75.343C60.9669 74.844 60.3069 74.131 59.8339 73.203C59.3609 72.275 59.1119 71.211 59.0889 70.009V69.292C59.0889 68.044 59.3189 66.942 59.7809 65.989C60.2429 65.035 60.9049 64.299 61.7659 63.779C62.6279 63.26 63.6099 63 64.7089 63C65.7979 63 66.7689 63.257 67.6219 63.771C68.4749 64.284 69.1379 65.015 69.6109 65.963C70.0839 66.911 70.3249 67.998 70.3309 69.223V69.809ZM67.1799 69.275C67.1799 68.009 66.9659 67.048 66.5389 66.392C66.1129 65.736 65.5029 65.408 64.7079 65.408C63.1549 65.408 62.3339 66.563 62.2459 68.873L62.2369 69.81C62.2369 71.059 62.4459 72.018 62.8629 72.688C63.2809 73.359 63.9019 73.695 64.7249 73.695C65.5079 73.695 66.1109 73.365 66.5349 72.706C66.9589 72.047 67.1739 71.1 67.1799 69.862V69.275Z" fill="#B9AF79"/>
<path d="M82.6588 75.9178H79.5788L75.0248 67.9898V75.9178H71.9268V63.1758H75.0248L79.5698 71.1048V63.1758H82.6588V75.9178Z" fill="#B9AF79"/>
<path d="M88.0963 73.5548H94.2393V75.9168H84.2303V74.2978L90.3553 65.5478H84.1953V63.1758H94.1763V64.7508L88.0963 73.5548Z" fill="#B9AF79"/>
<path d="M103.611 70.5088H98.7386V73.5548H104.493V75.9168H95.6406V63.1758H104.51V65.5478H98.7386V68.2348H103.611V70.5088Z" fill="#B9AF79"/>
<path d="M62.9645 117.055L58.1025 116.061L58.3175 115.008L61.0395 113.112C61.7195 112.596 62.0985 112.153 62.1745 111.784C62.2355 111.483 62.2165 111.242 62.1175 111.059C62.0175 110.875 61.8445 110.758 61.5965 110.708C61.3505 110.658 61.1295 110.721 60.9335 110.898C60.7385 111.075 60.6085 111.321 60.5435 111.633L58.9265 111.302C59.0145 110.876 59.2015 110.501 59.4885 110.184C59.7765 109.866 60.1315 109.643 60.5525 109.517C60.9735 109.39 61.4185 109.375 61.8875 109.47C62.6405 109.624 63.1855 109.917 63.5215 110.348C63.8565 110.779 63.9585 111.32 63.8255 111.97C63.7685 112.245 63.6635 112.501 63.5085 112.74C63.3535 112.98 63.1385 113.22 62.8645 113.462C62.5915 113.704 62.1655 114.016 61.5905 114.395L60.4775 115.25L63.2195 115.811L62.9645 117.055Z" fill="#B9AF79"/>
<path d="M69.7487 114.675C69.6907 115.635 69.4297 116.361 68.9687 116.855C68.5057 117.348 67.8827 117.571 67.0997 117.524C66.3097 117.474 65.7147 117.175 65.3147 116.627C64.9147 116.077 64.7437 115.326 64.8007 114.373L64.8807 113.077C64.9387 112.118 65.1987 111.391 65.6607 110.897C66.1237 110.405 66.7477 110.182 67.5347 110.229C68.3207 110.277 68.9137 110.577 69.3147 111.126C69.7137 111.675 69.8857 112.428 69.8277 113.383L69.7487 114.675ZM68.1977 113.069C68.2287 112.559 68.1847 112.173 68.0677 111.913C67.9497 111.653 67.7467 111.515 67.4567 111.498C67.1747 111.479 66.9617 111.585 66.8187 111.81C66.6757 112.035 66.5857 112.385 66.5467 112.861L66.4367 114.674C66.4047 115.203 66.4477 115.595 66.5667 115.849C66.6837 116.103 66.8877 116.238 67.1767 116.255C67.4557 116.272 67.6697 116.165 67.8177 115.935C67.9657 115.705 68.0567 115.334 68.0917 114.825L68.1977 113.069Z" fill="#B9AF79"/>
<path d="M76.2221 117.162L71.2761 117.558L71.1901 116.488L73.2781 113.91C73.7881 113.226 74.0281 112.695 73.9981 112.319C73.9741 112.013 73.8891 111.786 73.7431 111.639C73.5971 111.491 73.3971 111.426 73.1441 111.446C72.8941 111.466 72.7001 111.59 72.5611 111.814C72.4221 112.038 72.3661 112.31 72.3911 112.628L70.7451 112.76C70.7111 112.325 70.7881 111.914 70.9751 111.529C71.1621 111.144 71.4421 110.832 71.8121 110.592C72.1811 110.354 72.6051 110.215 73.0831 110.177C73.8491 110.115 74.4521 110.245 74.8951 110.567C75.3371 110.887 75.5841 111.379 75.6381 112.042C75.6591 112.321 75.6301 112.596 75.5471 112.869C75.4641 113.141 75.3251 113.432 75.1291 113.74C74.9331 114.049 74.6111 114.465 74.1631 114.99L73.3331 116.121L76.1221 115.897L76.2221 117.162Z" fill="#B9AF79"/>
<path d="M82.7184 115.831L77.8744 116.909L77.6404 115.86L79.3494 113.018C79.7594 112.269 79.9244 111.709 79.8414 111.341C79.7754 111.042 79.6584 110.83 79.4944 110.702C79.3284 110.576 79.1224 110.541 78.8744 110.595C78.6294 110.651 78.4544 110.798 78.3484 111.041C78.2434 111.282 78.2244 111.561 78.2934 111.871L76.6824 112.229C76.5874 111.803 76.6064 111.386 76.7394 110.978C76.8714 110.57 77.1044 110.222 77.4364 109.934C77.7704 109.646 78.1704 109.451 78.6374 109.347C79.3874 109.18 80.0034 109.224 80.4864 109.48C80.9684 109.737 81.2824 110.189 81.4264 110.837C81.4874 111.11 81.4954 111.388 81.4514 111.67C81.4064 111.952 81.3084 112.258 81.1584 112.591C81.0074 112.923 80.7464 113.38 80.3754 113.963L79.7094 115.198L82.4414 114.589L82.7184 115.831Z" fill="#B9AF79"/>
</g>
<defs>
<clipPath id="clip0_30213_24533">
<rect width="140" height="140" fill="white"/>
</clipPath>
</defs>
</svg>
