<svg width="140" height="140" viewBox="0 0 140 140" fill="none" xmlns="http://www.w3.org/2000/svg">
<g clip-path="url(#clip0_7875_300)">
<path d="M81.7824 2.03955C88.0175 -1.13324 95.5596 1.40502 98.8254 7.81396L101.785 13.6206C103.79 17.5545 107.432 20.3134 111.659 21.0854L117.878 22.2222C124.715 23.4702 129.398 30.152 128.42 37.3521L127.536 43.8608C126.939 48.2649 128.325 52.7144 131.302 55.9185L135.692 60.6431C140.536 65.8572 140.536 74.1418 135.692 79.356L131.302 84.0806C128.325 87.2845 126.938 91.734 127.536 96.1382L128.42 102.647C129.398 109.847 124.715 116.528 117.878 117.777L111.659 118.914C107.432 119.686 103.79 122.444 101.785 126.378L98.8254 132.185C95.5596 138.594 88.0174 141.133 81.7824 137.959L76.1096 135.073C72.2551 133.111 67.7453 133.111 63.8908 135.073L58.218 137.959C51.9829 141.132 44.4417 138.594 41.176 132.185L38.216 126.378C36.2118 122.445 32.5697 119.686 28.342 118.914L22.1232 117.777C15.2857 116.529 10.601 109.847 11.5793 102.647L12.4631 96.1382C13.0608 91.7331 11.6755 87.2846 8.69843 84.0806L4.30878 79.356H4.3078C-0.537805 74.1419 -0.537799 65.8572 4.3078 60.6431H4.30878L8.69843 55.9185C11.6754 52.7145 13.0618 48.2651 12.4631 43.8608L11.5793 37.3521C10.6019 30.152 15.2866 23.4711 22.1232 22.2222L28.342 21.0854C32.5697 20.3134 36.2118 17.5545 38.216 13.6206L38.215 13.6196L41.176 7.81396C44.4418 1.40513 51.983 -1.13397 58.218 2.03955L63.8908 4.92627C67.7453 6.88777 72.2551 6.88776 76.1096 4.92627L81.7824 2.03955ZM22.1594 100.755C19.2354 100.755 16.8986 103.218 16.8986 106.211C16.8988 109.205 19.2355 111.667 22.1594 111.667C25.083 111.667 27.4189 109.205 27.4191 106.211C27.4191 103.218 25.0832 100.756 22.1594 100.755Z" fill="#D1B54F" stroke="#BD9A49"/>
<path d="M34.738 39.984L33.464 41.696L38.104 45.154L37.08 46.529L32.439 43.071L31.187 44.751L30.125 43.96L33.677 39.193L34.738 39.984Z" fill="white"/>
<path d="M41.218 39.727L39.563 41.395L40.216 42.622L38.926 43.921L35.716 37.061L36.853 35.916L43.75 39.062L42.453 40.368L41.218 39.727ZM38.912 40.17L39.989 39.085L37.698 37.892L38.912 40.17Z" fill="white"/>
<path d="M48.173 34.806C48.132 35.198 47.958 35.615 47.651 36.058C47.344 36.501 46.946 36.9 46.456 37.255C45.701 37.801 44.932 38.006 44.146 37.87C43.361 37.736 42.655 37.267 42.027 36.468L41.663 35.972C41.252 35.405 40.994 34.836 40.889 34.269C40.784 33.7 40.834 33.167 41.042 32.668C41.25 32.169 41.6 31.743 42.09 31.389C42.809 30.869 43.485 30.629 44.119 30.671C44.753 30.713 45.34 31.035 45.877 31.64L44.54 32.607C44.259 32.319 43.99 32.165 43.732 32.141C43.475 32.12 43.201 32.212 42.911 32.422C42.562 32.674 42.4 33.017 42.425 33.448C42.448 33.883 42.657 34.374 43.052 34.925L43.304 35.274C43.72 35.848 44.131 36.21 44.536 36.356C44.941 36.503 45.355 36.423 45.777 36.118C46.138 35.857 46.35 35.582 46.41 35.293L45.763 34.398L44.798 35.096L44.108 34.144L46.463 32.44L48.173 34.806Z" fill="white"/>
<path d="M50.233 33.229L52.879 31.848L53.489 33.017L49.324 35.192L46.033 28.887L47.554 28.094L50.233 33.229Z" fill="white"/>
<path d="M55.731 32.172L54.144 32.807L51.502 26.203L53.09 25.568L55.731 32.172Z" fill="white"/>
<path d="M62.345 30.205L60.699 30.648L57.115 27.032L58.265 31.303L56.61 31.749L54.76 24.883L56.415 24.437L59.995 28.056L58.845 23.784L60.495 23.338L62.345 30.205Z" fill="white"/>
<path d="M67.222 26.594L64.544 26.901L64.737 28.589L67.901 28.226L68.051 29.536L63.183 30.095L62.372 23.032L67.249 22.471L67.4 23.786L64.226 24.15L64.397 25.639L67.076 25.331L67.222 26.594Z" fill="white"/>
<path d="M75.033 28.536L72.694 28.318L72.161 29.602L70.338 29.432L73.597 22.595L75.202 22.743L77.156 30.069L75.322 29.897L75.033 28.536ZM73.226 27.038L74.748 27.181L74.214 24.654L73.226 27.038Z" fill="white"/>
<path d="M83.192 28.968L85.178 24.892L86.815 25.35L83.446 31.792L81.734 31.313L81.909 27.153L79.919 30.804L78.211 30.327L78.669 23.07L80.311 23.529L79.895 28.044L82.037 24.012L83.439 24.405L83.193 28.967L83.192 28.968Z" fill="white"/>
<path d="M89.222 32.934L87.107 31.911L86.16 32.927L84.512 32.129L89.959 26.865L91.409 27.567L90.674 35.114L89.018 34.311L89.222 32.934ZM88.054 30.897L89.43 31.564L89.814 29.01L88.054 30.897Z" fill="white"/>
<path d="M94.471 34.735L93.71 34.205L92.272 36.269L90.866 35.29L94.929 29.453L97.226 31.054C97.918 31.535 98.352 32.066 98.528 32.645C98.705 33.223 98.598 33.792 98.208 34.353C97.926 34.759 97.609 35.039 97.259 35.191C96.909 35.343 96.501 35.38 96.036 35.302L95.613 38.506L95.571 38.567L94.063 37.517L94.47 34.736L94.471 34.735ZM94.464 33.123L95.353 33.743C95.621 33.929 95.871 33.998 96.104 33.951C96.337 33.905 96.541 33.756 96.716 33.504C96.891 33.252 96.96 33.007 96.924 32.769C96.888 32.531 96.737 32.321 96.473 32.136L95.583 31.515L94.464 33.123Z" fill="white"/>
<path d="M95.971 38.923L100.882 33.778L102.538 35.359C102.993 35.794 103.303 36.287 103.469 36.839C103.635 37.391 103.641 37.951 103.487 38.523C103.332 39.093 103.032 39.613 102.59 40.082L102.364 40.318C101.914 40.789 101.412 41.116 100.857 41.299C100.3 41.482 99.742 41.507 99.179 41.373C98.617 41.238 98.111 40.96 97.663 40.537L95.971 38.923ZM101.208 35.919L98.122 39.152L98.553 39.564C98.908 39.903 99.302 40.037 99.735 39.966C100.168 39.895 100.623 39.61 101.099 39.11L101.311 38.887C101.787 38.391 102.047 37.925 102.097 37.491C102.148 37.057 101.99 36.665 101.624 36.317L101.208 35.919Z" fill="white"/>
<path d="M104.13 44.981C104.328 44.828 104.429 44.637 104.431 44.412C104.434 44.186 104.358 43.85 104.203 43.406C104.048 42.962 103.94 42.584 103.878 42.274C103.673 41.268 103.883 40.523 104.509 40.04C104.821 39.8 105.166 39.677 105.545 39.675C105.924 39.672 106.308 39.785 106.697 40.016C107.087 40.245 107.441 40.568 107.762 40.984C108.074 41.387 108.283 41.806 108.386 42.239C108.49 42.671 108.477 43.08 108.348 43.463C108.218 43.847 107.983 44.172 107.64 44.436L106.594 43.083C106.823 42.907 106.947 42.698 106.965 42.461C106.983 42.223 106.899 41.983 106.713 41.744C106.526 41.503 106.324 41.351 106.109 41.295C105.893 41.237 105.704 41.271 105.539 41.399C105.394 41.511 105.324 41.69 105.326 41.934C105.328 42.18 105.417 42.545 105.593 43.03C105.769 43.516 105.881 43.94 105.93 44.301C106.05 45.18 105.802 45.858 105.186 46.333C104.694 46.714 104.164 46.826 103.596 46.672C103.028 46.518 102.494 46.118 101.994 45.472C101.642 45.015 101.405 44.54 101.283 44.043C101.161 43.547 101.17 43.095 101.31 42.688C101.45 42.282 101.706 41.936 102.077 41.649L103.128 43.008C102.827 43.242 102.665 43.491 102.643 43.758C102.621 44.024 102.745 44.332 103.015 44.683C103.188 44.908 103.373 45.047 103.571 45.103C103.768 45.158 103.955 45.119 104.13 44.983V44.981Z" fill="white"/>
<path d="M62.962 117.051L58.1 116.057L58.315 115.004L61.037 113.108C61.717 112.592 62.096 112.149 62.172 111.78C62.233 111.479 62.214 111.238 62.115 111.055C62.015 110.871 61.842 110.754 61.594 110.704C61.348 110.654 61.127 110.717 60.931 110.894C60.736 111.071 60.606 111.317 60.541 111.629L58.924 111.298C59.012 110.872 59.199 110.497 59.486 110.18C59.774 109.862 60.129 109.639 60.55 109.513C60.971 109.386 61.416 109.371 61.885 109.466C62.638 109.62 63.183 109.913 63.519 110.344C63.854 110.775 63.956 111.316 63.823 111.966C63.766 112.241 63.661 112.497 63.506 112.736C63.351 112.976 63.136 113.216 62.862 113.458C62.589 113.7 62.163 114.012 61.588 114.391L60.475 115.246L63.217 115.807L62.962 117.051Z" fill="white"/>
<path d="M69.746 114.671C69.688 115.631 69.427 116.357 68.966 116.851C68.503 117.344 67.88 117.567 67.097 117.52C66.307 117.47 65.712 117.171 65.312 116.623C64.912 116.073 64.741 115.322 64.798 114.369L64.878 113.073C64.936 112.114 65.196 111.387 65.658 110.893C66.121 110.401 66.745 110.178 67.532 110.225C68.318 110.273 68.911 110.573 69.312 111.122C69.711 111.671 69.883 112.424 69.825 113.379L69.746 114.671ZM68.195 113.065C68.226 112.555 68.182 112.169 68.065 111.909C67.947 111.649 67.744 111.511 67.454 111.494C67.172 111.475 66.959 111.581 66.816 111.806C66.673 112.031 66.583 112.381 66.544 112.857L66.434 114.67C66.402 115.199 66.445 115.591 66.564 115.845C66.681 116.099 66.885 116.234 67.174 116.251C67.453 116.268 67.667 116.161 67.815 115.931C67.963 115.701 68.054 115.33 68.089 114.821L68.195 113.065Z" fill="white"/>
<path d="M76.22 117.159L71.273 117.555L71.188 116.485L73.275 113.907C73.786 113.223 74.026 112.692 73.996 112.316C73.972 112.01 73.886 111.783 73.74 111.635C73.594 111.487 73.395 111.423 73.142 111.443C72.892 111.463 72.698 111.586 72.558 111.811C72.419 112.036 72.363 112.307 72.388 112.625L70.742 112.757C70.708 112.321 70.784 111.911 70.972 111.526C71.16 111.14 71.439 110.829 71.808 110.589C72.178 110.351 72.601 110.211 73.079 110.174C73.845 110.112 74.449 110.241 74.891 110.564C75.332 110.884 75.58 111.376 75.633 112.039C75.655 112.317 75.625 112.593 75.543 112.866C75.459 113.138 75.32 113.429 75.125 113.737C74.929 114.046 74.606 114.462 74.158 114.987L73.328 116.117L76.117 115.894L76.219 117.16L76.22 117.159Z" fill="white"/>
<path d="M58.3498 74.4001C57.8698 74.9301 57.1798 75.3501 56.2598 75.6701C55.3398 75.9901 54.3398 76.1501 53.2398 76.1501C51.5598 76.1501 50.2098 75.6401 49.2098 74.6201C48.1998 73.6001 47.6698 72.1801 47.5898 70.3601V69.2601C47.5898 68.0101 47.7998 66.9101 48.2498 65.9701C48.6998 65.0301 49.3398 64.3101 50.1698 63.8101C50.9998 63.3101 51.9698 63.0501 53.0598 63.0501C54.6598 63.0501 55.8998 63.4101 56.7898 64.1401C57.6798 64.8701 58.1898 65.9501 58.3398 67.3901H55.3598C55.2498 66.6801 55.0198 66.1701 54.6698 65.8701C54.3198 65.5701 53.8198 65.4101 53.1698 65.4101C52.3898 65.4101 51.7898 65.7401 51.3698 66.3901C50.9498 67.0401 50.7298 67.9801 50.7298 69.1901V69.9601C50.7298 71.2301 50.9498 72.1901 51.3898 72.8301C51.8298 73.4701 52.5198 73.7901 53.4598 73.7901C54.2698 73.7901 54.8698 73.6101 55.2598 73.2601V71.2801H53.1098V69.1701H58.3598V74.4001H58.3498Z" fill="white"/>
<path d="M71.0302 69.8699C71.0302 71.1099 70.8002 72.2099 70.3302 73.1699C69.8702 74.1299 69.2102 74.8599 68.3502 75.3799C67.4902 75.8999 66.5202 76.1499 65.4202 76.1499C64.3202 76.1499 63.3602 75.8999 62.5102 75.3999C61.6602 74.8999 61.0002 74.1899 60.5302 73.2599C60.0602 72.3299 59.8102 71.2699 59.7802 70.0699V69.3499C59.7802 68.0999 60.0102 66.9999 60.4702 66.0499C60.9302 65.0999 61.5902 64.3599 62.4602 63.8399C63.3202 63.3199 64.3002 63.0599 65.4002 63.0599C66.5002 63.0599 67.4602 63.3199 68.3102 63.8299C69.1602 64.3399 69.8302 65.0699 70.3002 66.0199C70.7702 66.9699 71.0102 68.0499 71.0202 69.2799V69.8699H71.0302ZM67.8802 69.3299C67.8802 68.0599 67.6702 67.0999 67.2402 66.4499C66.8102 65.7899 66.2002 65.4699 65.4102 65.4699C63.8602 65.4699 63.0402 66.6299 62.9502 68.9399V69.8799C62.9502 71.1299 63.1502 72.0899 63.5702 72.7599C63.9902 73.4299 64.6102 73.7699 65.4302 73.7699C66.2502 73.7699 66.8202 73.4399 67.2402 72.7799C67.6602 72.1199 67.8802 71.1699 67.8802 69.9399V69.3499V69.3299Z" fill="white"/>
<path d="M75.7298 73.6098H81.1198V75.9698H72.6298V63.2298H75.7298V73.6098Z" fill="white"/>
<path d="M82.4299 75.9698V63.2298H86.5699C87.6999 63.2298 88.7299 63.4898 89.6299 63.9998C90.5399 64.5098 91.2399 65.2298 91.7499 66.1598C92.2599 67.0898 92.5199 68.1298 92.5199 69.2898V69.8798C92.5199 71.0498 92.2699 72.0898 91.7699 73.0198C91.2699 73.9498 90.5699 74.6698 89.6699 75.1898C88.7699 75.7098 87.7599 75.9798 86.6499 75.9798H82.4199L82.4299 75.9698ZM85.5199 65.5998V73.6098H86.5999C87.4899 73.6098 88.1699 73.2998 88.6499 72.6698C89.1299 72.0398 89.3599 71.1098 89.3599 69.8698V69.3198C89.3599 68.0898 89.1199 67.1598 88.6499 66.5398C88.1699 65.9198 87.4799 65.5998 86.5699 65.5998H85.5299H85.5199Z" fill="white"/>
<mask id="mask0_7875_300" style="mask-type:luminance" maskUnits="userSpaceOnUse" x="8" y="51" width="47" height="65">
<path d="M45.492 115.515L54.995 111.513L51.994 103.511L48.493 66.554L32.562 55.25L28.25 56.875L24.875 51.063L8.47998 79.003L45.492 115.515Z" fill="white"/>
</mask>
<g mask="url(#mask0_7875_300)">
<path fill-rule="evenodd" clip-rule="evenodd" d="M88.258 30.05C87.497 31.42 84.438 31.753 82.362 31.245C83.405 30.304 85.643 29.408 87.566 29.88L88.258 30.05L87.65 29.681C85.96 28.658 85.027 26.45 84.969 25.054C86.793 26.159 88.705 28.551 88.258 30.05ZM70.045 112.892C70.697 112.892 71.224 113.415 71.224 114.062C71.224 114.709 70.696 115.231 70.044 115.232C69.392 115.233 68.865 114.709 68.865 114.063C68.865 113.416 69.393 112.892 70.045 112.892ZM85.637 28.836L85.1 28.372C83.607 27.08 81.204 26.863 79.844 27.227C81.455 28.621 84.329 29.71 85.636 28.835L85.637 28.836ZM54.609 28.849C55.916 29.723 58.791 28.631 60.403 27.236C59.043 26.873 56.64 27.091 55.146 28.385L54.609 28.849ZM67.011 114.078C66.649 115.599 63.792 116.737 61.654 116.8C62.404 115.616 64.318 114.157 66.299 114.098L67.011 114.078C67.036 112.514 64.547 110.72 62.49 110.142C62.925 111.471 64.419 113.349 66.326 113.886L67.011 114.078ZM62.564 113.49C62.748 111.937 60.454 109.903 58.466 109.123C58.763 110.488 60.059 112.506 61.902 113.229L62.564 113.49L61.853 113.439C59.877 113.3 57.825 114.56 56.958 115.662C59.091 115.814 62.049 114.967 62.564 113.49ZM58.199 112.462C57.536 113.88 54.508 114.427 52.401 114.062C53.375 113.051 55.544 112.004 57.496 112.339L58.198 112.461C58.538 110.934 56.462 108.68 54.565 107.706C54.721 109.095 55.807 111.232 57.565 112.135L58.198 112.461L58.199 112.462ZM53.962 111.002C54.455 109.516 52.619 107.067 50.83 105.908C50.845 107.306 51.707 109.54 53.366 110.615L53.962 111.002L53.277 110.811C51.369 110.28 49.105 111.108 48.033 112.016C50.091 112.588 53.159 112.348 53.962 111.002ZM49.893 109.125C48.957 110.385 45.881 110.317 43.891 109.543C45.049 108.746 47.386 108.15 49.231 108.867L49.894 109.126C50.536 107.698 48.957 105.077 47.295 103.745C47.168 105.137 47.799 107.446 49.34 108.682L49.894 109.126L49.893 109.125ZM46.037 106.852C46.821 105.495 45.516 102.731 43.998 101.238C43.73 102.61 44.124 104.972 45.531 106.354L46.037 106.852L45.403 106.53C43.642 105.63 41.256 105.99 40.023 106.668C41.924 107.638 44.978 108.011 46.037 106.852ZM42.431 104.205C41.26 105.253 38.26 104.575 36.467 103.421C37.763 102.87 40.172 102.75 41.833 103.82L42.431 104.205L41.978 103.66C40.718 102.142 40.566 99.754 40.972 98.416C42.331 100.052 43.348 102.933 42.431 104.205ZM39.113 101.212C37.842 102.138 34.926 101.164 33.259 99.835C34.603 99.417 37.013 99.538 38.557 100.769L39.113 101.212C40.154 100.037 39.435 97.069 38.249 95.304C37.71 96.596 37.619 98.988 38.718 100.623L39.113 101.212ZM36.115 97.902C34.757 98.695 31.955 97.435 30.432 95.947C31.812 95.665 34.197 96.027 35.608 97.406L36.115 97.902C37.271 96.837 36.856 93.813 35.855 91.939C35.187 93.17 34.854 95.541 35.781 97.277L36.114 97.902H36.115ZM33.469 94.308C32.037 94.963 29.378 93.428 28.014 91.796C29.415 91.653 31.751 92.252 33.015 93.765L33.469 94.308L33.201 93.655C32.455 91.833 33.028 89.509 33.816 88.349C34.621 90.314 34.726 93.365 33.469 94.308ZM31.201 90.469L31.001 89.79C30.444 87.905 31.248 85.647 32.151 84.573C32.753 86.609 32.548 89.656 31.201 90.469L30.804 89.881C29.7 88.25 27.437 87.422 26.029 87.423C27.22 89.183 29.711 90.976 31.201 90.469ZM29.335 86.42C27.8 86.777 25.505 84.745 24.498 82.874C25.9 83.012 28.067 84.063 29 85.797L29.335 86.42C30.757 85.745 31.27 82.735 30.879 80.65C29.872 81.628 28.842 83.793 29.205 85.726L29.335 86.42ZM27.889 82.208L27.829 81.503C27.664 79.545 28.908 77.492 30.01 76.619C30.188 78.734 29.372 81.679 27.889 82.208L27.618 81.553C26.866 79.735 24.818 78.473 23.437 78.196C24.248 80.158 26.326 82.409 27.889 82.208ZM26.878 77.871L26.89 77.164C26.924 75.198 28.371 73.281 29.555 72.522C29.518 74.643 28.407 77.493 26.878 77.871L26.675 77.192C26.112 75.308 24.201 73.847 22.856 73.432C23.464 75.466 25.302 77.915 26.878 77.871ZM26.313 73.454C24.741 73.341 23.161 70.722 22.762 68.637C24.058 69.184 25.81 70.828 26.18 72.76L26.313 73.454C27.873 73.231 29.267 70.507 29.519 68.401C28.264 69.037 26.631 70.799 26.397 72.751L26.313 73.454ZM26.199 69.004C24.646 68.734 23.34 65.97 23.156 63.857C24.389 64.53 25.966 66.34 26.137 68.3L26.199 69.004C27.773 68.937 29.437 66.367 29.901 64.296C28.588 64.803 26.784 66.394 26.353 68.314L26.199 69.004ZM26.536 64.565C25.02 64.14 24 61.261 24.032 59.139C25.191 59.933 26.575 61.891 26.547 63.857L26.537 64.565C28.11 64.656 30.026 62.264 30.699 60.25C29.341 60.623 27.385 62.027 26.761 63.893L26.536 64.565ZM27.323 60.18L27.614 59.535C28.423 57.74 30.512 56.54 31.9 56.303C31.026 58.24 28.879 60.428 27.323 60.18L27.404 59.479C27.632 57.526 26.454 55.438 25.38 54.533C25.135 56.64 25.856 59.607 27.322 60.181L27.323 60.18ZM28.551 55.898C27.151 55.181 26.734 52.156 27.193 50.083C28.168 51.092 29.129 53.287 28.704 55.207L28.551 55.898C30.073 56.299 32.433 54.338 33.499 52.498C32.094 52.594 29.894 53.58 28.907 55.285L28.552 55.899L28.551 55.898ZM30.207 51.758C28.887 50.904 28.779 47.853 29.446 45.837C30.314 46.937 31.047 49.218 30.429 51.086L30.207 51.758C31.681 52.31 34.227 50.593 35.475 48.868C34.067 48.824 31.779 49.585 30.623 51.182L30.207 51.758ZM32.275 47.805C33.685 48.502 36.392 47.048 37.808 45.457C36.412 45.271 34.058 45.8 32.746 47.275L32.274 47.805L32.563 47.158C33.367 45.361 32.869 43.019 32.117 41.837C31.25 43.777 31.047 46.824 32.274 47.805H32.275ZM34.732 44.079C33.612 42.98 34.123 39.969 35.183 38.125C35.811 39.376 36.069 41.756 35.086 43.463L34.733 44.078L35.256 43.598C36.71 42.262 39.105 41.971 40.475 42.294C38.905 43.736 36.065 44.913 34.732 44.079ZM37.556 40.616L38.125 40.189C39.708 39.005 42.12 38.956 43.45 39.414C41.742 40.693 38.797 41.578 37.556 40.616L37.97 40.039C39.12 38.438 39.106 36.044 38.608 34.737C37.367 36.466 36.552 39.411 37.556 40.616ZM40.717 37.453C39.841 36.154 40.95 33.305 42.36 31.709C42.722 33.059 42.494 35.443 41.187 36.921L40.717 37.453C41.854 38.535 44.875 37.948 46.703 36.848C45.426 36.258 43.021 36.067 41.326 37.087L40.716 37.454L40.717 37.453ZM44.183 34.621C43.443 33.241 44.835 30.517 46.4 29.071C46.624 30.451 46.154 32.799 44.704 34.14L44.183 34.622L44.826 34.318C46.616 33.472 48.988 33.902 50.199 34.617C48.268 35.529 45.204 35.812 44.183 34.622V34.621ZM47.917 32.15L48.588 31.912C50.454 31.25 52.771 31.914 53.903 32.746C51.889 33.461 48.812 33.436 47.917 32.15L48.484 31.722C50.063 30.533 50.768 28.243 50.686 26.848C48.982 28.132 47.321 30.703 47.917 32.15ZM51.883 30.065C51.437 28.566 53.35 26.173 55.176 25.067C55.116 26.462 54.182 28.671 52.491 29.696L51.883 30.065L52.575 29.895C54.499 29.421 56.736 30.316 57.778 31.256C55.701 31.766 52.643 31.433 51.883 30.065ZM73.058 114.075C73.419 115.595 76.275 116.731 78.413 116.793C77.664 115.609 75.751 114.152 73.77 114.095L73.058 114.075C73.034 112.511 75.525 110.715 77.582 110.135C77.147 111.464 75.65 113.343 73.743 113.882L73.058 114.075ZM77.506 113.484C77.323 111.931 79.619 109.896 81.608 109.113C81.31 110.479 80.011 112.497 78.169 113.222L77.507 113.484L78.218 113.432C80.194 113.291 82.246 114.55 83.111 115.651C80.978 115.805 78.021 114.96 77.507 113.484H77.506ZM81.871 112.452L82.504 112.125C84.264 111.22 85.35 109.083 85.509 107.693C83.61 108.669 81.533 110.925 81.872 112.451L82.574 112.328C84.526 111.991 86.695 113.037 87.668 114.046C85.561 114.412 82.533 113.869 81.872 112.451L81.871 112.452ZM86.11 110.989C85.618 109.504 87.456 107.053 89.247 105.892C89.231 107.29 88.366 109.525 86.707 110.601L86.11 110.989L86.797 110.797C88.705 110.265 90.969 111.09 92.04 111.998C89.98 112.572 86.912 112.334 86.11 110.989ZM90.18 109.109C91.115 110.368 94.191 110.298 96.181 109.522C95.024 108.726 92.687 108.132 90.843 108.85L90.18 109.109C89.539 107.681 91.119 105.06 92.783 103.726C92.908 105.118 92.275 107.428 90.734 108.665L90.18 109.109ZM94.038 106.833C93.256 105.477 94.563 102.711 96.082 101.218C96.349 102.59 95.953 104.952 94.545 106.335L94.038 106.833L94.673 106.51C96.435 105.609 98.82 105.967 100.053 106.644C98.151 107.615 95.096 107.992 94.038 106.833ZM97.646 104.183C98.816 105.23 101.817 104.55 103.611 103.394C102.316 102.844 99.907 102.726 98.244 103.798L97.646 104.183L98.1 103.638C99.36 102.119 99.515 99.731 99.11 98.393C97.75 100.03 96.73 102.912 97.646 104.183ZM100.968 101.186L101.363 100.598C102.463 98.962 102.374 96.57 101.836 95.278C100.649 97.044 99.927 100.012 100.968 101.186L101.523 100.743C103.068 99.511 105.477 99.387 106.822 99.804C105.155 101.134 102.238 102.111 100.968 101.186ZM103.968 97.874C105.326 98.666 108.129 97.403 109.654 95.915C108.274 95.634 105.889 95.998 104.477 97.378L103.968 97.874C102.814 96.81 103.231 93.786 104.233 91.911C104.9 93.141 105.232 95.512 104.303 97.249L103.968 97.874ZM106.617 94.278C108.048 94.931 110.709 93.395 112.075 91.761C110.674 91.619 108.338 92.22 107.073 93.734L106.617 94.278L106.887 93.624C107.635 91.802 107.065 89.477 106.276 88.318C105.469 90.284 105.36 93.335 106.617 94.278ZM108.888 90.437C110.379 90.943 112.871 89.149 114.064 87.387C112.655 87.387 110.392 88.216 109.286 89.849L108.888 90.437C107.542 89.625 107.34 86.578 107.943 84.541C108.845 85.615 109.648 87.872 109.089 89.757L108.888 90.437ZM110.757 86.387C112.292 86.743 114.589 84.709 115.597 82.837C114.196 82.976 112.027 84.029 111.093 85.764L110.757 86.387C109.336 85.714 108.825 82.704 109.219 80.618C110.226 81.595 111.254 83.76 110.889 85.693L110.757 86.387ZM112.207 82.174C113.77 82.373 115.849 80.12 116.662 78.158C115.281 78.436 113.231 79.7 112.478 81.518L112.207 82.173C110.724 81.645 109.91 78.7 110.091 76.585C111.191 77.457 112.434 79.509 112.267 81.467L112.207 82.173V82.174ZM113.222 77.835C114.797 77.878 116.638 75.429 117.247 73.394C115.901 73.81 113.99 75.272 113.425 77.157L113.222 77.835C111.693 77.458 110.585 74.61 110.549 72.489C111.733 73.246 113.178 75.163 113.21 77.128L113.222 77.835ZM113.791 73.418C115.363 73.304 116.945 70.683 117.346 68.599C116.05 69.147 114.296 70.792 113.924 72.724L113.791 73.418C112.231 73.196 110.839 70.473 110.589 68.367C111.843 69.002 113.475 70.763 113.707 72.715L113.791 73.418ZM113.909 68.968L113.754 68.278C113.325 66.359 111.522 64.769 110.21 64.263C110.673 66.334 112.334 68.903 113.909 68.968L113.971 68.264C114.144 66.304 115.722 64.493 116.956 63.819C116.77 65.932 115.46 68.698 113.909 68.968ZM113.575 64.529C115.092 64.103 116.114 61.223 116.085 59.101C114.925 59.895 113.539 61.856 113.566 63.821L113.575 64.529C112.002 64.621 110.089 62.231 109.418 60.218C110.776 60.59 112.731 61.992 113.352 63.858L113.575 64.529ZM112.791 60.145C114.257 59.57 114.982 56.603 114.738 54.496C113.664 55.402 112.484 57.491 112.71 59.444L112.791 60.145C111.236 60.395 109.089 58.208 108.216 56.272C109.605 56.508 111.693 57.706 112.5 59.5L112.791 60.145ZM111.568 55.864C112.968 55.146 113.388 52.121 112.931 50.048C111.955 51.058 110.992 53.254 111.416 55.173L111.568 55.864C110.045 56.266 107.687 54.306 106.623 52.467C108.028 52.561 110.227 53.546 111.213 55.25L111.568 55.864ZM109.915 51.726L109.5 51.151C108.345 49.555 106.058 48.795 104.65 48.841C105.896 50.565 108.441 52.279 109.915 51.726L109.694 51.055C109.078 49.187 109.813 46.906 110.682 45.805C111.347 47.821 111.235 50.872 109.915 51.726ZM107.851 47.774C106.44 48.472 103.734 47.02 102.32 45.43C103.716 45.243 106.069 45.77 107.379 47.244L107.851 47.774L107.562 47.128C106.759 45.331 107.259 42.989 108.012 41.807C108.878 43.746 109.078 46.792 107.851 47.774ZM105.396 44.05C106.518 42.95 106.01 39.939 104.951 38.097C104.322 39.349 104.063 41.729 105.044 43.435L105.396 44.05L104.874 43.57C103.421 42.235 101.026 41.946 99.655 42.27C101.224 43.711 104.063 44.884 105.396 44.05ZM102.575 40.59L102.007 40.164C100.425 38.982 98.013 38.934 96.682 39.393C98.389 40.67 101.334 41.553 102.575 40.59L102.162 40.014C101.013 38.414 101.029 36.02 101.528 34.712C102.768 36.44 103.58 39.384 102.575 40.59ZM99.417 37.428C100.294 36.128 99.188 33.28 97.779 31.685C97.415 33.036 97.641 35.419 98.948 36.896L99.417 37.427C98.28 38.51 95.26 37.925 93.432 36.827C94.71 36.236 97.114 36.043 98.808 37.061L99.417 37.427V37.428ZM95.954 34.6C96.695 33.219 95.305 30.496 93.741 29.051C93.516 30.432 93.983 32.778 95.433 34.118L95.954 34.6L95.311 34.295C93.522 33.45 91.149 33.883 89.938 34.599C91.868 35.51 94.932 35.791 95.954 34.6ZM92.222 32.132C92.819 30.685 91.16 28.115 89.457 26.832C89.373 28.227 90.077 30.517 91.654 31.704L92.222 32.132C91.327 33.419 88.249 33.446 86.236 32.732C87.369 31.899 89.686 31.233 91.552 31.893L92.222 32.13V32.132Z" fill="white"/>
</g>
<mask id="mask1_7875_300" style="mask-type:luminance" maskUnits="userSpaceOnUse" x="85" y="44" width="38" height="72">
<path d="M86.005 61.053L106.062 54.313L111.875 56.875L122.562 44.438L120.516 71.5L112.514 99.509L92.007 115.515L85.005 111.513L88.006 102.51L86.005 61.053Z" fill="white"/>
</mask>
<g mask="url(#mask1_7875_300)">
<path fill-rule="evenodd" clip-rule="evenodd" d="M88.258 30.05C87.497 31.42 84.438 31.753 82.362 31.245C83.405 30.304 85.643 29.408 87.566 29.88L88.258 30.05L87.65 29.681C85.96 28.658 85.027 26.45 84.969 25.054C86.793 26.159 88.705 28.551 88.258 30.05ZM70.045 112.892C70.697 112.892 71.224 113.415 71.224 114.062C71.224 114.709 70.696 115.231 70.044 115.232C69.392 115.233 68.865 114.709 68.865 114.063C68.865 113.416 69.393 112.892 70.045 112.892ZM85.637 28.836L85.1 28.372C83.607 27.08 81.204 26.863 79.844 27.227C81.455 28.621 84.329 29.71 85.636 28.835L85.637 28.836ZM54.609 28.849C55.916 29.723 58.791 28.631 60.403 27.236C59.043 26.873 56.64 27.091 55.146 28.385L54.609 28.849ZM67.011 114.078C66.649 115.599 63.792 116.737 61.654 116.8C62.404 115.616 64.318 114.157 66.299 114.098L67.011 114.078C67.036 112.514 64.547 110.72 62.49 110.142C62.925 111.471 64.419 113.349 66.326 113.886L67.011 114.078ZM62.564 113.49C62.748 111.937 60.454 109.903 58.466 109.123C58.763 110.488 60.059 112.506 61.902 113.229L62.564 113.49L61.853 113.439C59.877 113.3 57.825 114.56 56.958 115.662C59.091 115.814 62.049 114.967 62.564 113.49ZM58.199 112.462C57.536 113.88 54.508 114.427 52.401 114.062C53.375 113.051 55.544 112.004 57.496 112.339L58.198 112.461C58.538 110.934 56.462 108.68 54.565 107.706C54.721 109.095 55.807 111.232 57.565 112.135L58.198 112.461L58.199 112.462ZM53.962 111.002C54.455 109.516 52.619 107.067 50.83 105.908C50.845 107.306 51.707 109.54 53.366 110.615L53.962 111.002L53.277 110.811C51.369 110.28 49.105 111.108 48.033 112.016C50.091 112.588 53.159 112.348 53.962 111.002ZM49.893 109.125C48.957 110.385 45.881 110.317 43.891 109.543C45.049 108.746 47.386 108.15 49.231 108.867L49.894 109.126C50.536 107.698 48.957 105.077 47.295 103.745C47.168 105.137 47.799 107.446 49.34 108.682L49.894 109.126L49.893 109.125ZM46.037 106.852C46.821 105.495 45.516 102.731 43.998 101.238C43.73 102.61 44.124 104.972 45.531 106.354L46.037 106.852L45.403 106.53C43.642 105.63 41.256 105.99 40.023 106.668C41.924 107.638 44.978 108.011 46.037 106.852ZM42.431 104.205C41.26 105.253 38.26 104.575 36.467 103.421C37.763 102.87 40.172 102.75 41.833 103.82L42.431 104.205L41.978 103.66C40.718 102.142 40.566 99.754 40.972 98.416C42.331 100.052 43.348 102.933 42.431 104.205ZM39.113 101.212C37.842 102.138 34.926 101.164 33.259 99.835C34.603 99.417 37.013 99.538 38.557 100.769L39.113 101.212C40.154 100.037 39.435 97.069 38.249 95.304C37.71 96.596 37.619 98.988 38.718 100.623L39.113 101.212ZM36.115 97.902C34.757 98.695 31.955 97.435 30.432 95.947C31.812 95.665 34.197 96.027 35.608 97.406L36.115 97.902C37.271 96.837 36.856 93.813 35.855 91.939C35.187 93.17 34.854 95.541 35.781 97.277L36.114 97.902H36.115ZM33.469 94.308C32.037 94.963 29.378 93.428 28.014 91.796C29.415 91.653 31.751 92.252 33.015 93.765L33.469 94.308L33.201 93.655C32.455 91.833 33.028 89.509 33.816 88.349C34.621 90.314 34.726 93.365 33.469 94.308ZM31.201 90.469L31.001 89.79C30.444 87.905 31.248 85.647 32.151 84.573C32.753 86.609 32.548 89.656 31.201 90.469L30.804 89.881C29.7 88.25 27.437 87.422 26.029 87.423C27.22 89.183 29.711 90.976 31.201 90.469ZM29.335 86.42C27.8 86.777 25.505 84.745 24.498 82.874C25.9 83.012 28.067 84.063 29 85.797L29.335 86.42C30.757 85.745 31.27 82.735 30.879 80.65C29.872 81.628 28.842 83.793 29.205 85.726L29.335 86.42ZM27.889 82.208L27.829 81.503C27.664 79.545 28.908 77.492 30.01 76.619C30.188 78.734 29.372 81.679 27.889 82.208L27.618 81.553C26.866 79.735 24.818 78.473 23.437 78.196C24.248 80.158 26.326 82.409 27.889 82.208ZM26.878 77.871L26.89 77.164C26.924 75.198 28.371 73.281 29.555 72.522C29.518 74.643 28.407 77.493 26.878 77.871L26.675 77.192C26.112 75.308 24.201 73.847 22.856 73.432C23.464 75.466 25.302 77.915 26.878 77.871ZM26.313 73.454C24.741 73.341 23.161 70.722 22.762 68.637C24.058 69.184 25.81 70.828 26.18 72.76L26.313 73.454C27.873 73.231 29.267 70.507 29.519 68.401C28.264 69.037 26.631 70.799 26.397 72.751L26.313 73.454ZM26.199 69.004C24.646 68.734 23.34 65.97 23.156 63.857C24.389 64.53 25.966 66.34 26.137 68.3L26.199 69.004C27.773 68.937 29.437 66.367 29.901 64.296C28.588 64.803 26.784 66.394 26.353 68.314L26.199 69.004ZM26.536 64.565C25.02 64.14 24 61.261 24.032 59.139C25.191 59.933 26.575 61.891 26.547 63.857L26.537 64.565C28.11 64.656 30.026 62.264 30.699 60.25C29.341 60.623 27.385 62.027 26.761 63.893L26.536 64.565ZM27.323 60.18L27.614 59.535C28.423 57.74 30.512 56.54 31.9 56.303C31.026 58.24 28.879 60.428 27.323 60.18L27.404 59.479C27.632 57.526 26.454 55.438 25.38 54.533C25.135 56.64 25.856 59.607 27.322 60.181L27.323 60.18ZM28.551 55.898C27.151 55.181 26.734 52.156 27.193 50.083C28.168 51.092 29.129 53.287 28.704 55.207L28.551 55.898C30.073 56.299 32.433 54.338 33.499 52.498C32.094 52.594 29.894 53.58 28.907 55.285L28.552 55.899L28.551 55.898ZM30.207 51.758C28.887 50.904 28.779 47.853 29.446 45.837C30.314 46.937 31.047 49.218 30.429 51.086L30.207 51.758C31.681 52.31 34.227 50.593 35.475 48.868C34.067 48.824 31.779 49.585 30.623 51.182L30.207 51.758ZM32.275 47.805C33.685 48.502 36.392 47.048 37.808 45.457C36.412 45.271 34.058 45.8 32.746 47.275L32.274 47.805L32.563 47.158C33.367 45.361 32.869 43.019 32.117 41.837C31.25 43.777 31.047 46.824 32.274 47.805H32.275ZM34.732 44.079C33.612 42.98 34.123 39.969 35.183 38.125C35.811 39.376 36.069 41.756 35.086 43.463L34.733 44.078L35.256 43.598C36.71 42.262 39.105 41.971 40.475 42.294C38.905 43.736 36.065 44.913 34.732 44.079ZM37.556 40.616L38.125 40.189C39.708 39.005 42.12 38.956 43.45 39.414C41.742 40.693 38.797 41.578 37.556 40.616L37.97 40.039C39.12 38.438 39.106 36.044 38.608 34.737C37.367 36.466 36.552 39.411 37.556 40.616ZM40.717 37.453C39.841 36.154 40.95 33.305 42.36 31.709C42.722 33.059 42.494 35.443 41.187 36.921L40.717 37.453C41.854 38.535 44.875 37.948 46.703 36.848C45.426 36.258 43.021 36.067 41.326 37.087L40.716 37.454L40.717 37.453ZM44.183 34.621C43.443 33.241 44.835 30.517 46.4 29.071C46.624 30.451 46.154 32.799 44.704 34.14L44.183 34.622L44.826 34.318C46.616 33.472 48.988 33.902 50.199 34.617C48.268 35.529 45.204 35.812 44.183 34.622V34.621ZM47.917 32.15L48.588 31.912C50.454 31.25 52.771 31.914 53.903 32.746C51.889 33.461 48.812 33.436 47.917 32.15L48.484 31.722C50.063 30.533 50.768 28.243 50.686 26.848C48.982 28.132 47.321 30.703 47.917 32.15ZM51.883 30.065C51.437 28.566 53.35 26.173 55.176 25.067C55.116 26.462 54.182 28.671 52.491 29.696L51.883 30.065L52.575 29.895C54.499 29.421 56.736 30.316 57.778 31.256C55.701 31.766 52.643 31.433 51.883 30.065ZM73.058 114.075C73.419 115.595 76.275 116.731 78.413 116.793C77.664 115.609 75.751 114.152 73.77 114.095L73.058 114.075C73.034 112.511 75.525 110.715 77.582 110.135C77.147 111.464 75.65 113.343 73.743 113.882L73.058 114.075ZM77.506 113.484C77.323 111.931 79.619 109.896 81.608 109.113C81.31 110.479 80.011 112.497 78.169 113.222L77.507 113.484L78.218 113.432C80.194 113.291 82.246 114.55 83.111 115.651C80.978 115.805 78.021 114.96 77.507 113.484H77.506ZM81.871 112.452L82.504 112.125C84.264 111.22 85.35 109.083 85.509 107.693C83.61 108.669 81.533 110.925 81.872 112.451L82.574 112.328C84.526 111.991 86.695 113.037 87.668 114.046C85.561 114.412 82.533 113.869 81.872 112.451L81.871 112.452ZM86.11 110.989C85.618 109.504 87.456 107.053 89.247 105.892C89.231 107.29 88.366 109.525 86.707 110.601L86.11 110.989L86.797 110.797C88.705 110.265 90.969 111.09 92.04 111.998C89.98 112.572 86.912 112.334 86.11 110.989ZM90.18 109.109C91.115 110.368 94.191 110.298 96.181 109.522C95.024 108.726 92.687 108.132 90.843 108.85L90.18 109.109C89.539 107.681 91.119 105.06 92.783 103.726C92.908 105.118 92.275 107.428 90.734 108.665L90.18 109.109ZM94.038 106.833C93.256 105.477 94.563 102.711 96.082 101.218C96.349 102.59 95.953 104.952 94.545 106.335L94.038 106.833L94.673 106.51C96.435 105.609 98.82 105.967 100.053 106.644C98.151 107.615 95.096 107.992 94.038 106.833ZM97.646 104.183C98.816 105.23 101.817 104.55 103.611 103.394C102.316 102.844 99.907 102.726 98.244 103.798L97.646 104.183L98.1 103.638C99.36 102.119 99.515 99.731 99.11 98.393C97.75 100.03 96.73 102.912 97.646 104.183ZM100.968 101.186L101.363 100.598C102.463 98.962 102.374 96.57 101.836 95.278C100.649 97.044 99.927 100.012 100.968 101.186L101.523 100.743C103.068 99.511 105.477 99.387 106.822 99.804C105.155 101.134 102.238 102.111 100.968 101.186ZM103.968 97.874C105.326 98.666 108.129 97.403 109.654 95.915C108.274 95.634 105.889 95.998 104.477 97.378L103.968 97.874C102.814 96.81 103.231 93.786 104.233 91.911C104.9 93.141 105.232 95.512 104.303 97.249L103.968 97.874ZM106.617 94.278C108.048 94.931 110.709 93.395 112.075 91.761C110.674 91.619 108.338 92.22 107.073 93.734L106.617 94.278L106.887 93.624C107.635 91.802 107.065 89.477 106.276 88.318C105.469 90.284 105.36 93.335 106.617 94.278ZM108.888 90.437C110.379 90.943 112.871 89.149 114.064 87.387C112.655 87.387 110.392 88.216 109.286 89.849L108.888 90.437C107.542 89.625 107.34 86.578 107.943 84.541C108.845 85.615 109.648 87.872 109.089 89.757L108.888 90.437ZM110.757 86.387C112.292 86.743 114.589 84.709 115.597 82.837C114.196 82.976 112.027 84.029 111.093 85.764L110.757 86.387C109.336 85.714 108.825 82.704 109.219 80.618C110.226 81.595 111.254 83.76 110.889 85.693L110.757 86.387ZM112.207 82.174C113.77 82.373 115.849 80.12 116.662 78.158C115.281 78.436 113.231 79.7 112.478 81.518L112.207 82.173C110.724 81.645 109.91 78.7 110.091 76.585C111.191 77.457 112.434 79.509 112.267 81.467L112.207 82.173V82.174ZM113.222 77.835C114.797 77.878 116.638 75.429 117.247 73.394C115.901 73.81 113.99 75.272 113.425 77.157L113.222 77.835C111.693 77.458 110.585 74.61 110.549 72.489C111.733 73.246 113.178 75.163 113.21 77.128L113.222 77.835ZM113.791 73.418C115.363 73.304 116.945 70.683 117.346 68.599C116.05 69.147 114.296 70.792 113.924 72.724L113.791 73.418C112.231 73.196 110.839 70.473 110.589 68.367C111.843 69.002 113.475 70.763 113.707 72.715L113.791 73.418ZM113.909 68.968L113.754 68.278C113.325 66.359 111.522 64.769 110.21 64.263C110.673 66.334 112.334 68.903 113.909 68.968L113.971 68.264C114.144 66.304 115.722 64.493 116.956 63.819C116.77 65.932 115.46 68.698 113.909 68.968ZM113.575 64.529C115.092 64.103 116.114 61.223 116.085 59.101C114.925 59.895 113.539 61.856 113.566 63.821L113.575 64.529C112.002 64.621 110.089 62.231 109.418 60.218C110.776 60.59 112.731 61.992 113.352 63.858L113.575 64.529ZM112.791 60.145C114.257 59.57 114.982 56.603 114.738 54.496C113.664 55.402 112.484 57.491 112.71 59.444L112.791 60.145C111.236 60.395 109.089 58.208 108.216 56.272C109.605 56.508 111.693 57.706 112.5 59.5L112.791 60.145ZM111.568 55.864C112.968 55.146 113.388 52.121 112.931 50.048C111.955 51.058 110.992 53.254 111.416 55.173L111.568 55.864C110.045 56.266 107.687 54.306 106.623 52.467C108.028 52.561 110.227 53.546 111.213 55.25L111.568 55.864ZM109.915 51.726L109.5 51.151C108.345 49.555 106.058 48.795 104.65 48.841C105.896 50.565 108.441 52.279 109.915 51.726L109.694 51.055C109.078 49.187 109.813 46.906 110.682 45.805C111.347 47.821 111.235 50.872 109.915 51.726ZM107.851 47.774C106.44 48.472 103.734 47.02 102.32 45.43C103.716 45.243 106.069 45.77 107.379 47.244L107.851 47.774L107.562 47.128C106.759 45.331 107.259 42.989 108.012 41.807C108.878 43.746 109.078 46.792 107.851 47.774ZM105.396 44.05C106.518 42.95 106.01 39.939 104.951 38.097C104.322 39.349 104.063 41.729 105.044 43.435L105.396 44.05L104.874 43.57C103.421 42.235 101.026 41.946 99.655 42.27C101.224 43.711 104.063 44.884 105.396 44.05ZM102.575 40.59L102.007 40.164C100.425 38.982 98.013 38.934 96.682 39.393C98.389 40.67 101.334 41.553 102.575 40.59L102.162 40.014C101.013 38.414 101.029 36.02 101.528 34.712C102.768 36.44 103.58 39.384 102.575 40.59ZM99.417 37.428C100.294 36.128 99.188 33.28 97.779 31.685C97.415 33.036 97.641 35.419 98.948 36.896L99.417 37.427C98.28 38.51 95.26 37.925 93.432 36.827C94.71 36.236 97.114 36.043 98.808 37.061L99.417 37.427V37.428ZM95.954 34.6C96.695 33.219 95.305 30.496 93.741 29.051C93.516 30.432 93.983 32.778 95.433 34.118L95.954 34.6L95.311 34.295C93.522 33.45 91.149 33.883 89.938 34.599C91.868 35.51 94.932 35.791 95.954 34.6ZM92.222 32.132C92.819 30.685 91.16 28.115 89.457 26.832C89.373 28.227 90.077 30.517 91.654 31.704L92.222 32.132C91.327 33.419 88.249 33.446 86.236 32.732C87.369 31.899 89.686 31.233 91.552 31.893L92.222 32.13V32.132Z" fill="white"/>
</g>
<path fill-rule="evenodd" clip-rule="evenodd" d="M112.189 57.343L112.221 56.634C112.311 54.661 110.993 52.641 109.865 51.799C109.769 53.927 110.692 56.858 112.189 57.343Z" fill="white"/>
<path fill-rule="evenodd" clip-rule="evenodd" d="M27.982 57.343L27.95 56.634C27.86 54.661 29.178 52.641 30.306 51.799C30.402 53.927 29.479 56.858 27.982 57.343Z" fill="white"/>
<path d="M80.5498 116.798C80.0555 116.885 79.5988 116.872 79.1798 116.758C78.763 116.644 78.4134 116.447 78.1309 116.168C77.8484 115.888 77.6662 115.543 77.5841 115.132L79.0529 114.873C79.1181 115.148 79.2744 115.352 79.5216 115.486C79.7689 115.621 80.0417 115.661 80.3401 115.609C80.5779 115.567 80.7785 115.477 80.9419 115.34C81.1071 115.201 81.2244 115.027 81.2937 114.821C81.3649 114.611 81.3787 114.382 81.3352 114.135C81.2908 113.883 81.1981 113.671 81.0571 113.499C80.9185 113.327 80.7465 113.203 80.541 113.129C80.3356 113.054 80.1126 113.037 79.8721 113.077C79.6622 113.114 79.4658 113.193 79.2829 113.314C79.1022 113.435 78.9703 113.58 78.887 113.748L77.4981 113.745L77.1713 109.908L81.5498 109.136L81.7681 110.374L78.6381 110.926L78.7691 112.752L78.8111 112.745C78.9057 112.546 79.0698 112.365 79.3034 112.204C79.537 112.042 79.8111 111.934 80.1259 111.878C80.5572 111.802 80.9598 111.836 81.3336 111.979C81.7074 112.122 82.0235 112.354 82.2818 112.674C82.5398 112.991 82.708 113.38 82.7867 113.84C82.8741 114.322 82.8379 114.771 82.6779 115.186C82.5198 115.598 82.2581 115.947 81.8925 116.233C81.5289 116.516 81.0814 116.704 80.5498 116.798Z" fill="white"/>
</g>
<defs>
<clipPath id="clip0_7875_300">
<rect width="140" height="140" fill="white"/>
</clipPath>
</defs>
</svg>
