<svg width="360" height="360" viewBox="0 0 360 360" fill="none" xmlns="http://www.w3.org/2000/svg">
<g clip-path="url(#clip0_30843_105390)">
<rect width="360" height="360" fill="#95001B"/>
<path d="M20.432 237.248C21.04 237.248 21.536 237.216 21.92 237.152C22.336 237.088 22.672 236.944 22.928 236.72C23.184 236.464 23.36 236.112 23.456 235.664C23.584 235.184 23.664 234.56 23.696 233.792L24.56 208.4H39.488V242H34.112V213.2H29.504L28.928 233.504C28.832 236.576 28.176 238.768 26.96 240.08C25.776 241.392 23.872 242.048 21.248 242.048H20.432V237.248ZM55.2414 233.456C54.9214 234.96 54.5214 236.288 54.0414 237.44C53.5934 238.56 52.9694 239.488 52.1694 240.224C51.4014 240.928 50.3934 241.44 49.1454 241.76C47.9294 242.08 46.4094 242.176 44.5854 242.048V237.344C45.9294 237.44 46.9854 237.312 47.7534 236.96C48.5214 236.608 49.0174 235.824 49.2414 234.608L49.2894 234.32L41.9934 208.4H47.2254L50.1054 219.872L51.7374 227.744L52.9854 219.92L55.3854 208.4H60.9054L55.2414 233.456ZM79.1551 208.4V242H73.8751V228.464C73.2991 229.104 72.5791 229.584 71.7151 229.904C70.8831 230.192 70.0991 230.336 69.3631 230.336C67.1871 230.336 65.5391 229.632 64.4191 228.224C63.3311 226.784 62.7871 224.912 62.7871 222.608V208.4H68.0671V222.176C68.0671 223.296 68.3711 224.128 68.9791 224.672C69.5871 225.216 70.3071 225.488 71.1391 225.488C71.9711 225.488 72.6271 225.2 73.1071 224.624C73.6191 224.016 73.8751 223.152 73.8751 222.032V208.4H79.1551ZM83.045 242V208.4H88.325V237.2H92.885V208.4H98.165V237.2H102.725V208.4H108.005V242H83.045ZM117.106 222.56H124.354V227.36H117.106V237.2H126.226V242H111.826V208.4H126.226V213.2H117.106V222.56ZM134.778 222.56H142.026V227.36H134.778V237.2H143.898V242H129.498V208.4H143.898V213.2H134.778V222.56ZM154.623 208.4H159.903V242H154.623V208.4ZM162.228 208.4H178.548V213.2H173.028V242H167.748V213.2H162.228V208.4ZM179.086 222.8H188.686V227.6H179.086V222.8ZM200.04 208.4C202.696 208.4 204.664 209.104 205.944 210.512C207.256 211.92 207.912 213.984 207.912 216.704V221.072C207.912 223.792 207.256 225.856 205.944 227.264C204.664 228.672 202.696 229.376 200.04 229.376H197.544V242H192.264V208.4H200.04ZM197.544 213.2V224.576H200.04C200.872 224.576 201.512 224.352 201.96 223.904C202.408 223.456 202.632 222.624 202.632 221.408V216.368C202.632 215.152 202.408 214.32 201.96 213.872C201.512 213.424 200.872 213.2 200.04 213.2H197.544ZM215.638 222.56H222.886V227.36H215.638V237.2H224.758V242H210.358V208.4H224.758V213.2H215.638V222.56ZM228.029 242V208.4H233.309V237.2H237.869V208.4H243.149V237.2H247.709V208.4H252.989V242H228.029ZM262.091 222.56H269.339V227.36H262.091V237.2H271.211V242H256.811V208.4H271.211V213.2H262.091V222.56ZM279.763 242H274.483V208.4H279.763V222.8H285.763V208.4H291.139V242H285.763V227.6H279.763V242ZM300.391 242H294.967V208.4H299.671V229.664L301.591 222.272L305.911 208.4H311.719V242H306.967V218.336L304.807 226.592L300.391 242ZM320.731 222.56H327.979V227.36H320.731V237.2H329.851V242H315.451V208.4H329.851V213.2H320.731V222.56ZM333.123 242V236.912H338.211V241.472L335.907 246.8H333.747L335.139 242H333.123ZM29.696 256.4C32.352 256.4 34.32 257.104 35.6 258.512C36.912 259.92 37.568 261.984 37.568 264.704V269.072C37.568 271.792 36.912 273.856 35.6 275.264C34.32 276.672 32.352 277.376 29.696 277.376H27.2V290H21.92V256.4H29.696ZM27.2 261.2V272.576H29.696C30.528 272.576 31.168 272.352 31.616 271.904C32.064 271.456 32.288 270.624 32.288 269.408V264.368C32.288 263.152 32.064 262.32 31.616 261.872C31.168 261.424 30.528 261.2 29.696 261.2H27.2ZM57.1018 290H51.7738L50.8618 283.904H44.3818L43.4698 290H38.6218L43.9978 256.4H51.7258L57.1018 290ZM45.0538 279.344H50.1418L47.5978 262.352L45.0538 279.344ZM69.7366 264.656C69.7366 263.152 69.4806 262.144 68.9686 261.632C68.4886 261.088 67.8326 260.816 67.0006 260.816C66.1686 260.816 65.4966 261.072 64.9846 261.584C64.4726 262.064 64.2166 262.912 64.2166 264.128V266.864H59.3686V264.368C59.3686 261.648 60.0086 259.584 61.2886 258.176C62.6006 256.736 64.5526 256.016 67.1446 256.016C69.7366 256.016 71.6886 256.752 73.0006 258.224C74.3446 259.664 75.0166 261.744 75.0166 264.464V265.328C75.0166 268.912 73.7846 271.216 71.3206 272.24C72.6646 272.816 73.6086 273.712 74.1526 274.928C74.7286 276.112 75.0166 277.568 75.0166 279.296V281.936C75.0166 284.656 74.3446 286.752 73.0006 288.224C71.6886 289.664 69.7366 290.384 67.1446 290.384C64.5526 290.384 62.5846 289.664 61.2406 288.224C59.9286 286.752 59.2726 284.656 59.2726 281.936V278.24H64.2646V282.272C64.2646 283.488 64.5046 284.352 64.9846 284.864C65.4966 285.344 66.1686 285.584 67.0006 285.584C67.8326 285.584 68.4886 285.328 68.9686 284.816C69.4806 284.304 69.7366 283.296 69.7366 281.792V279.152C69.7366 277.584 69.4646 276.48 68.9206 275.84C68.3766 275.2 67.4966 274.88 66.2806 274.88H64.9846V270.08H66.5686C67.5606 270.08 68.3286 269.824 68.8726 269.312C69.4486 268.8 69.7366 267.872 69.7366 266.528V264.656ZM86.3679 256.4C89.0239 256.4 90.9919 257.104 92.2719 258.512C93.5839 259.92 94.2399 261.984 94.2399 264.704V269.072C94.2399 271.792 93.5839 273.856 92.2719 275.264C90.9919 276.672 89.0239 277.376 86.3679 277.376H83.8719V290H78.5919V256.4H86.3679ZM83.8719 261.2V272.576H86.3679C87.1999 272.576 87.8399 272.352 88.2879 271.904C88.7359 271.456 88.9599 270.624 88.9599 269.408V264.368C88.9599 263.152 88.7359 262.32 88.2879 261.872C87.8399 261.424 87.1999 261.2 86.3679 261.2H83.8719ZM113.774 290H108.446L107.534 283.904H101.054L100.142 290H95.2936L100.67 256.4H108.398L113.774 290ZM101.726 279.344H106.814L104.27 262.352L101.726 279.344ZM116.281 290V256.4H131.065V261.2H121.561V269.792H124.633C127.289 269.792 129.273 270.496 130.585 271.904C131.929 273.312 132.601 275.376 132.601 278.096V281.696C132.601 284.416 131.929 286.48 130.585 287.888C129.273 289.296 127.289 290 124.633 290H116.281ZM124.633 285.2C125.465 285.2 126.121 284.976 126.601 284.528C127.081 284.08 127.321 283.248 127.321 282.032V277.76C127.321 276.544 127.081 275.712 126.601 275.264C126.121 274.816 125.465 274.592 124.633 274.592H121.561V285.2H124.633ZM141.002 282.272C141.002 283.488 141.242 284.352 141.722 284.864C142.234 285.344 142.906 285.584 143.738 285.584C144.57 285.584 145.226 285.344 145.706 284.864C146.218 284.352 146.474 283.488 146.474 282.272V264.128C146.474 262.912 146.218 262.064 145.706 261.584C145.226 261.072 144.57 260.816 143.738 260.816C142.906 260.816 142.234 261.072 141.722 261.584C141.242 262.064 141.002 262.912 141.002 264.128V282.272ZM135.722 264.464C135.722 261.744 136.41 259.664 137.786 258.224C139.162 256.752 141.146 256.016 143.738 256.016C146.33 256.016 148.314 256.752 149.69 258.224C151.066 259.664 151.754 261.744 151.754 264.464V281.936C151.754 284.656 151.066 286.752 149.69 288.224C148.314 289.664 146.33 290.384 143.738 290.384C141.146 290.384 139.162 289.664 137.786 288.224C136.41 286.752 135.722 284.656 135.722 281.936V264.464ZM153.65 256.4H169.97V261.2H164.45V290H159.17V261.2H153.65V256.4ZM179.207 276.608L177.575 279.68V290H172.295V256.4H177.575V271.04L184.487 256.4H189.767L182.423 271.376L189.767 290H184.343L179.207 276.608ZM209.258 290H203.93L203.018 283.904H196.538L195.626 290H190.778L196.154 256.4H203.882L209.258 290ZM197.21 279.344H202.298L199.754 262.352L197.21 279.344ZM27.344 338H21.92V304.4H26.624V325.664L28.544 318.272L32.864 304.4H38.672V338H33.92V314.336L31.76 322.592L27.344 338ZM55.2815 338H49.8575V304.4H54.5615V325.664L56.4815 318.272L60.8015 304.4H66.6095V338H61.8575V314.336L59.6975 322.592L55.2815 338ZM75.6219 338H70.3419V304.4H75.6219V318.8H81.6219V304.4H86.9979V338H81.6219V323.6H75.6219V338ZM89.2903 304.4H105.61V309.2H100.09V338H94.8103V309.2H89.2903V304.4ZM113.216 318.56H120.464V323.36H113.216V333.2H122.336V338H107.936V304.4H122.336V309.2H113.216V318.56ZM125.656 338V304.4H139.576V309.2H130.936V338H125.656ZM150.915 304.4C153.571 304.4 155.539 305.104 156.819 306.512C158.131 307.92 158.787 309.984 158.787 312.704V317.072C158.787 319.792 158.131 321.856 156.819 323.264C155.539 324.672 153.571 325.376 150.915 325.376H148.419V338H143.139V304.4H150.915ZM148.419 309.2V320.576H150.915C151.747 320.576 152.387 320.352 152.835 319.904C153.283 319.456 153.507 318.624 153.507 317.408V312.368C153.507 311.152 153.283 310.32 152.835 309.872C152.387 309.424 151.747 309.2 150.915 309.2H148.419ZM178.321 338H172.993L172.081 331.904H165.601L164.689 338H159.841L165.217 304.4H172.945L178.321 338ZM166.273 327.344H171.361L168.817 310.352L166.273 327.344ZM180.779 304.4H186.059V333.2H192.059V304.4H197.435V333.296H199.739V342.512H194.603V338H180.779V304.4ZM208.047 338H202.623V304.4H207.327V325.664L209.247 318.272L213.567 304.4H219.375V338H214.623V314.336L212.463 322.592L208.047 338ZM222.148 338C222.404 337.36 222.564 336.736 222.628 336.128C222.692 335.488 222.724 334.752 222.724 333.92V328.736C222.724 326.976 222.964 325.488 223.444 324.272C223.956 323.024 224.884 322.128 226.228 321.584C223.924 320.496 222.771 318.224 222.771 314.768V312.128C222.771 309.536 223.38 307.6 224.596 306.32C225.844 305.04 227.844 304.4 230.596 304.4H238.564V338H233.284V324.32H231.46C230.244 324.32 229.364 324.64 228.82 325.28C228.276 325.92 228.004 327.024 228.004 328.592V333.872C228.004 334.544 227.988 335.104 227.956 335.552C227.956 336 227.924 336.368 227.86 336.656C227.828 336.944 227.78 337.184 227.716 337.376C227.652 337.568 227.588 337.776 227.523 338H222.148ZM230.74 309.2C229.812 309.2 229.124 309.472 228.676 310.016C228.26 310.56 228.052 311.44 228.052 312.656V315.968C228.052 317.312 228.324 318.24 228.868 318.752C229.444 319.264 230.228 319.52 231.22 319.52H233.284V309.2H230.74Z" fill="white"/>
<path d="M20.4773 183.598V182.273H27.4403V183.598H24.7429V191H23.1747V183.598H20.4773ZM32.2087 191H30.5212L33.5937 182.273H35.5454L38.6221 191H36.9346L34.6036 184.062H34.5354L32.2087 191ZM32.2641 187.578H36.8664V188.848H32.2641V187.578ZM48.568 185.06C48.497 184.83 48.399 184.624 48.274 184.442C48.1518 184.257 48.0041 184.099 47.8308 183.969C47.6603 183.838 47.4643 183.74 47.2427 183.675C47.0211 183.607 46.7797 183.572 46.5183 183.572C46.0495 183.572 45.6319 183.69 45.2655 183.926C44.899 184.162 44.6106 184.509 44.4004 184.966C44.193 185.42 44.0893 185.974 44.0893 186.628C44.0893 187.287 44.193 187.845 44.4004 188.303C44.6078 188.76 44.8961 189.108 45.2655 189.347C45.6348 189.582 46.0637 189.7 46.5524 189.7C46.9956 189.7 47.3791 189.615 47.703 189.445C48.0297 189.274 48.2811 189.033 48.4572 188.72C48.6334 188.405 48.7214 188.036 48.7214 187.612L49.0794 187.668H46.7101V186.432H50.2512V187.48C50.2512 188.227 50.0922 188.874 49.774 189.419C49.4558 189.964 49.0183 190.385 48.4615 190.68C47.9047 190.973 47.2655 191.119 46.5439 191.119C45.7399 191.119 45.0339 190.939 44.426 190.578C43.8209 190.214 43.3478 189.699 43.0069 189.031C42.6689 188.361 42.4998 187.565 42.4998 186.645C42.4998 185.94 42.5993 185.311 42.7981 184.757C42.9998 184.203 43.2811 183.733 43.6419 183.347C44.0027 182.957 44.426 182.662 44.9118 182.46C45.3976 182.256 45.926 182.153 46.497 182.153C46.9799 182.153 47.4302 182.224 47.8478 182.366C48.2655 182.506 48.6362 182.705 48.9601 182.963C49.2868 183.222 49.5552 183.528 49.7655 183.884C49.9757 184.239 50.1135 184.631 50.1788 185.06H48.568ZM55.14 191V182.273H56.721V189.675H60.5647V191H55.14ZM66.8779 182.273V191H65.2969V182.273H66.8779ZM79.1217 182.273V191H77.7155L73.6033 185.055H73.5308V191H71.9499V182.273H73.3646L77.4726 188.222H77.5493V182.273H79.1217ZM84.2044 191V182.273H89.8805V183.598H85.7854V185.967H89.5865V187.293H85.7854V189.675H89.9146V191H84.2044ZM102.311 191H100.623L103.696 182.273H105.647L108.724 191H107.037L104.706 184.062H104.637L102.311 191ZM102.366 187.578H106.968V188.848H102.366V187.578ZM114.25 191L111.787 182.273H113.487L115.06 188.686H115.141L116.82 182.273H118.366L120.05 188.69H120.126L121.699 182.273H123.399L120.936 191H119.376L117.629 184.876H117.561L115.81 191H114.25ZM128.156 191H126.468L129.541 182.273H131.492L134.569 191H132.882L130.551 184.062H130.482L128.156 191ZM128.211 187.578H132.813V188.848H128.211V187.578ZM139.079 191V182.273H142.351C143.022 182.273 143.584 182.389 144.039 182.622C144.496 182.855 144.841 183.182 145.074 183.602C145.31 184.02 145.428 184.507 145.428 185.064C145.428 185.624 145.309 186.109 145.07 186.521C144.834 186.93 144.486 187.247 144.026 187.472C143.566 187.693 143 187.804 142.33 187.804H139.999V186.491H142.117C142.509 186.491 142.83 186.437 143.08 186.33C143.33 186.219 143.515 186.058 143.634 185.848C143.756 185.635 143.817 185.374 143.817 185.064C143.817 184.754 143.756 184.49 143.634 184.271C143.512 184.05 143.326 183.882 143.076 183.768C142.826 183.652 142.503 183.594 142.108 183.594H140.66V191H139.079ZM143.587 187.045L145.748 191H143.983L141.861 187.045H143.587ZM153.201 191H150.243V182.273H153.26C154.127 182.273 154.871 182.447 155.493 182.797C156.118 183.143 156.598 183.642 156.934 184.293C157.269 184.943 157.436 185.722 157.436 186.628C157.436 187.537 157.267 188.318 156.929 188.972C156.594 189.625 156.11 190.126 155.476 190.476C154.846 190.825 154.087 191 153.201 191ZM151.824 189.632H153.124C153.732 189.632 154.239 189.521 154.645 189.3C155.052 189.075 155.357 188.741 155.561 188.298C155.766 187.852 155.868 187.295 155.868 186.628C155.868 185.96 155.766 185.406 155.561 184.966C155.357 184.523 155.054 184.192 154.654 183.973C154.256 183.751 153.762 183.641 153.171 183.641H151.824V189.632ZM167.041 184.672C167.002 184.3 166.834 184.01 166.539 183.803C166.246 183.595 165.865 183.491 165.397 183.491C165.067 183.491 164.784 183.541 164.549 183.641C164.313 183.74 164.132 183.875 164.007 184.045C163.882 184.216 163.818 184.411 163.816 184.629C163.816 184.811 163.857 184.969 163.939 185.102C164.024 185.236 164.14 185.349 164.284 185.443C164.429 185.534 164.59 185.611 164.766 185.673C164.942 185.736 165.12 185.788 165.299 185.831L166.117 186.036C166.446 186.112 166.763 186.216 167.067 186.347C167.374 186.477 167.648 186.642 167.89 186.841C168.134 187.04 168.327 187.28 168.469 187.561C168.611 187.842 168.682 188.172 168.682 188.55C168.682 189.061 168.551 189.511 168.29 189.901C168.029 190.287 167.651 190.589 167.157 190.808C166.665 191.024 166.07 191.132 165.371 191.132C164.692 191.132 164.103 191.027 163.603 190.817C163.105 190.607 162.716 190.3 162.435 189.896C162.157 189.493 162.006 189.001 161.983 188.422H163.539C163.561 188.726 163.655 188.979 163.82 189.18C163.985 189.382 164.199 189.533 164.463 189.632C164.73 189.732 165.029 189.781 165.358 189.781C165.702 189.781 166.003 189.73 166.262 189.628C166.523 189.523 166.728 189.378 166.875 189.193C167.023 189.006 167.098 188.787 167.101 188.537C167.098 188.31 167.032 188.122 166.901 187.974C166.77 187.824 166.587 187.699 166.351 187.599C166.118 187.497 165.845 187.406 165.533 187.327L164.54 187.071C163.821 186.886 163.253 186.607 162.836 186.232C162.421 185.854 162.213 185.352 162.213 184.727C162.213 184.213 162.353 183.763 162.631 183.376C162.912 182.99 163.294 182.69 163.777 182.477C164.26 182.261 164.807 182.153 165.418 182.153C166.037 182.153 166.58 182.261 167.046 182.477C167.515 182.69 167.882 182.987 168.149 183.368C168.416 183.746 168.554 184.18 168.563 184.672H167.041ZM179.703 191V189.858L182.733 186.888C183.023 186.595 183.264 186.335 183.457 186.108C183.65 185.881 183.795 185.661 183.892 185.447C183.988 185.234 184.037 185.007 184.037 184.766C184.037 184.49 183.974 184.254 183.849 184.058C183.724 183.859 183.552 183.706 183.334 183.598C183.115 183.49 182.866 183.436 182.588 183.436C182.301 183.436 182.049 183.496 181.834 183.615C181.618 183.732 181.45 183.898 181.331 184.114C181.214 184.33 181.156 184.587 181.156 184.885H179.652C179.652 184.331 179.778 183.849 180.031 183.44C180.284 183.031 180.632 182.714 181.075 182.49C181.521 182.266 182.032 182.153 182.609 182.153C183.194 182.153 183.709 182.263 184.152 182.482C184.595 182.7 184.939 183 185.183 183.381C185.43 183.761 185.554 184.196 185.554 184.685C185.554 185.011 185.491 185.332 185.366 185.648C185.241 185.963 185.021 186.312 184.706 186.696C184.393 187.08 183.954 187.544 183.389 188.089L181.885 189.619V189.679H185.686V191H179.703ZM193.742 191.166C193.04 191.166 192.438 190.989 191.935 190.634C191.435 190.276 191.05 189.76 190.78 189.087C190.513 188.411 190.38 187.597 190.38 186.645C190.383 185.693 190.517 184.884 190.784 184.216C191.054 183.545 191.439 183.034 191.939 182.682C192.442 182.33 193.043 182.153 193.742 182.153C194.441 182.153 195.042 182.33 195.544 182.682C196.047 183.034 196.432 183.545 196.699 184.216C196.969 184.886 197.104 185.696 197.104 186.645C197.104 187.599 196.969 188.415 196.699 189.091C196.432 189.764 196.047 190.278 195.544 190.634C195.044 190.989 194.444 191.166 193.742 191.166ZM193.742 189.832C194.287 189.832 194.718 189.564 195.033 189.027C195.351 188.487 195.51 187.693 195.51 186.645C195.51 185.952 195.438 185.369 195.293 184.898C195.148 184.426 194.944 184.071 194.679 183.832C194.415 183.591 194.103 183.47 193.742 183.47C193.199 183.47 192.77 183.74 192.455 184.28C192.14 184.817 191.981 185.605 191.978 186.645C191.975 187.341 192.044 187.926 192.186 188.401C192.331 188.875 192.536 189.233 192.8 189.474C193.064 189.713 193.378 189.832 193.742 189.832ZM201.88 191V189.858L204.91 186.888C205.2 186.595 205.441 186.335 205.634 186.108C205.827 185.881 205.972 185.661 206.069 185.447C206.165 185.234 206.214 185.007 206.214 184.766C206.214 184.49 206.151 184.254 206.026 184.058C205.901 183.859 205.729 183.706 205.511 183.598C205.292 183.49 205.043 183.436 204.765 183.436C204.478 183.436 204.227 183.496 204.011 183.615C203.795 183.732 203.627 183.898 203.508 184.114C203.391 184.33 203.333 184.587 203.333 184.885H201.829C201.829 184.331 201.955 183.849 202.208 183.44C202.461 183.031 202.809 182.714 203.252 182.49C203.698 182.266 204.209 182.153 204.786 182.153C205.371 182.153 205.886 182.263 206.329 182.482C206.772 182.7 207.116 183 207.36 183.381C207.607 183.761 207.731 184.196 207.731 184.685C207.731 185.011 207.668 185.332 207.543 185.648C207.418 185.963 207.198 186.312 206.883 186.696C206.57 187.08 206.131 187.544 205.566 188.089L204.062 189.619V189.679H207.863V191H201.88ZM215.727 191.119C215.159 191.119 214.65 191.013 214.202 190.8C213.753 190.584 213.396 190.288 213.132 189.913C212.871 189.538 212.731 189.109 212.714 188.626H214.248C214.277 188.984 214.432 189.277 214.713 189.504C214.994 189.729 215.332 189.841 215.727 189.841C216.037 189.841 216.312 189.77 216.554 189.628C216.795 189.486 216.986 189.288 217.125 189.036C217.264 188.783 217.332 188.494 217.329 188.17C217.332 187.841 217.263 187.548 217.121 187.293C216.979 187.037 216.784 186.837 216.537 186.692C216.29 186.544 216.006 186.47 215.685 186.47C215.423 186.467 215.166 186.516 214.913 186.615C214.66 186.714 214.46 186.845 214.312 187.007L212.885 186.773L213.341 182.273H218.403V183.594H214.649L214.398 185.908H214.449C214.611 185.717 214.839 185.56 215.135 185.435C215.43 185.307 215.754 185.243 216.106 185.243C216.635 185.243 217.106 185.368 217.521 185.618C217.936 185.865 218.263 186.206 218.501 186.641C218.74 187.075 218.859 187.572 218.859 188.132C218.859 188.709 218.726 189.223 218.459 189.675C218.194 190.124 217.827 190.477 217.355 190.736C216.886 190.991 216.344 191.119 215.727 191.119Z" fill="white"/>
<g clip-path="url(#clip1_30843_105390)">
<path d="M136.62 81.6873L132.858 77.6373C130.395 74.987 129.246 71.3022 129.741 67.6516L130.499 62.0725C131.366 55.6885 127.214 49.7382 121.115 48.6247L115.784 47.651C112.296 47.0142 109.285 44.7367 107.626 41.4796L105.089 36.5022C102.186 30.8065 95.4682 28.5342 89.9044 31.3653L85.0419 33.8399C81.8602 35.459 78.1393 35.459 74.9576 33.8399L70.095 31.3653C64.5313 28.5333 57.813 30.8065 54.9107 36.5022L52.3736 41.4796C50.7142 44.7367 47.703 47.0142 44.2153 47.651L38.8847 48.6247C32.7853 49.739 28.6333 55.6885 29.4999 62.0725L30.2576 67.6516C30.7539 71.3022 29.6036 74.987 27.141 77.6373L23.3782 81.6873C19.0719 86.321 19.0719 93.6762 23.3782 98.3099L27.141 102.36C29.6036 105.01 30.753 108.694 30.2576 112.346L29.4999 117.925C28.6324 124.309 32.7844 130.259 38.8847 131.372L44.2153 132.346C47.703 132.983 50.7142 135.26 52.3736 138.518L54.9107 143.495C57.813 149.191 64.5313 151.463 70.095 148.632L74.9576 146.157C78.1393 144.538 81.8602 144.538 85.0419 146.157L89.9044 148.632C95.4682 151.464 102.186 149.191 105.089 143.495L107.626 138.518C109.285 135.26 112.296 132.983 115.784 132.346L121.115 131.372C127.214 130.258 131.366 124.309 130.499 117.925L129.741 112.346C129.245 108.695 130.395 105.01 132.858 102.36L136.62 98.3099C140.926 93.6762 140.926 86.321 136.62 81.6873ZM38.9927 125.285C36.7393 125.285 34.9127 123.383 34.9127 121.037C34.9127 118.691 36.7393 116.789 38.9927 116.789C41.2462 116.789 43.0727 118.691 43.0727 121.037C43.0727 123.383 41.2462 125.285 38.9927 125.285Z" fill="#E4C655"/>
<path d="M49.7743 64.2718L48.6823 65.7392L52.6595 68.7032L51.7817 69.8817L47.8037 66.9177L46.7306 68.3577L45.8203 67.6797L48.8649 63.5938L49.7743 64.2718Z" fill="white"/>
<path d="M55.3293 64.0517L53.9107 65.4814L54.4704 66.5332L53.3647 67.6466L50.6133 61.7666L51.5879 60.7852L57.4996 63.4817L56.3879 64.6012L55.3293 64.0517ZM53.3527 64.4314L54.2759 63.5014L52.3121 62.4789L53.3527 64.4314Z" fill="white"/>
<path d="M61.291 59.8335C61.2559 60.1695 61.1067 60.5269 60.8436 60.9066C60.5804 61.2863 60.2393 61.6283 59.8193 61.9326C59.1722 62.4006 58.513 62.5763 57.8393 62.4597C57.1664 62.3449 56.5613 61.9429 56.023 61.258L55.711 60.8329C55.3587 60.3469 55.1376 59.8592 55.0476 59.3732C54.9576 58.8855 55.0004 58.4286 55.1787 58.0009C55.357 57.5732 55.657 57.208 56.077 56.9046C56.6933 56.4589 57.2727 56.2532 57.8162 56.2892C58.3596 56.3252 58.8627 56.6012 59.323 57.1197L58.177 57.9486C57.9362 57.7017 57.7056 57.5697 57.4844 57.5492C57.2641 57.5312 57.0293 57.61 56.7807 57.79C56.4816 58.006 56.3427 58.3 56.3642 58.6695C56.3839 59.0423 56.563 59.4632 56.9016 59.9355L57.1176 60.2346C57.4742 60.7266 57.8264 61.0369 58.1736 61.162C58.5207 61.288 58.8756 61.2195 59.2373 60.958C59.5467 60.7343 59.7284 60.4986 59.7799 60.2509L59.2253 59.4837L58.3982 60.082L57.8067 59.266L59.8253 57.8055L61.291 59.8335Z" fill="white"/>
<path d="M63.057 58.4815L65.325 57.2978L65.8479 58.2998L62.2779 60.1641L59.457 54.7598L60.7607 54.0801L63.057 58.4815Z" fill="white"/>
<path d="M67.7694 57.5756L66.4091 58.1199L64.1445 52.4593L65.5057 51.915L67.7694 57.5756Z" fill="white"/>
<path d="M73.4389 55.8899L72.0281 56.2696L68.9561 53.1702L69.9418 56.831L68.5232 57.2133L66.9375 51.3282L68.3561 50.9459L71.4246 54.0479L70.4389 50.3862L71.8532 50.0039L73.4389 55.8899Z" fill="white"/>
<path d="M77.62 52.7947L75.3246 53.0579L75.49 54.5047L78.202 54.1936L78.3306 55.3165L74.158 55.7956L73.4629 49.7416L77.6432 49.2607L77.7726 50.3879L75.052 50.6999L75.1986 51.9762L77.4949 51.7122L77.62 52.7947Z" fill="white"/>
<path d="M84.3133 54.4595L82.3085 54.2726L81.8516 55.3732L80.2891 55.2275L83.0825 49.3672L84.4582 49.494L86.1331 55.7735L84.5611 55.626L84.3133 54.4595ZM82.7645 53.1755L84.0691 53.298L83.6113 51.132L82.7645 53.1755Z" fill="white"/>
<path d="M91.3085 54.8289L93.0108 51.3352L94.4139 51.7277L91.5262 57.2494L90.0588 56.8389L90.2088 53.2732L88.5031 56.4026L87.0391 55.9937L87.4316 49.7734L88.8391 50.1669L88.4825 54.0369L90.3185 50.5809L91.5202 50.9177L91.3093 54.828L91.3085 54.8289Z" fill="white"/>
<path d="M96.4785 58.2284L94.6657 57.3515L93.854 58.2224L92.4414 57.5384L97.1103 53.0264L98.3531 53.6281L97.7231 60.0969L96.3037 59.4087L96.4785 58.2284ZM95.4774 56.4824L96.6568 57.0541L96.986 54.8649L95.4774 56.4824Z" fill="white"/>
<path d="M100.977 59.7735L100.324 59.3192L99.0919 61.0884L97.8867 60.2492L101.369 55.2461L103.338 56.6184C103.931 57.0307 104.303 57.4858 104.454 57.9821C104.606 58.4775 104.514 58.9652 104.18 59.4461C103.938 59.7941 103.666 60.0341 103.366 60.1644C103.066 60.2947 102.717 60.3264 102.318 60.2595L101.956 63.0058L101.92 63.0581L100.627 62.1581L100.976 59.7744L100.977 59.7735ZM100.971 58.3918L101.733 58.9232C101.962 59.0827 102.177 59.1418 102.376 59.1015C102.576 59.0621 102.751 58.9344 102.901 58.7184C103.051 58.5024 103.11 58.2924 103.079 58.0884C103.048 57.8844 102.919 57.7044 102.693 57.5458L101.93 57.0135L100.971 58.3918Z" fill="white"/>
<path d="M102.262 63.3621L106.471 58.9521L107.891 60.3073C108.281 60.6801 108.546 61.1027 108.689 61.5759C108.831 62.049 108.836 62.529 108.704 63.0193C108.571 63.5079 108.314 63.9536 107.935 64.3556L107.741 64.5579C107.356 64.9616 106.925 65.2419 106.45 65.3987C105.972 65.5556 105.494 65.577 105.011 65.4621C104.53 65.3464 104.096 65.1081 103.712 64.7456L102.262 63.3621ZM106.751 60.7873L104.105 63.5584L104.475 63.9116C104.779 64.2021 105.117 64.317 105.488 64.2561C105.859 64.1953 106.249 63.951 106.657 63.5224L106.839 63.3313C107.247 62.9061 107.47 62.5067 107.513 62.1347C107.556 61.7627 107.421 61.4267 107.107 61.1284L106.751 60.7873Z" fill="white"/>
<path d="M109.256 68.5549C109.425 68.4237 109.512 68.26 109.514 68.0672C109.516 67.8735 109.451 67.5855 109.318 67.2049C109.185 66.8243 109.093 66.5003 109.04 66.2346C108.864 65.3723 109.044 64.7337 109.58 64.3197C109.848 64.114 110.144 64.0086 110.468 64.0069C110.793 64.0043 111.122 64.1012 111.456 64.2992C111.79 64.4955 112.094 64.7723 112.369 65.1289C112.636 65.4743 112.815 65.8335 112.904 66.2046C112.993 66.5749 112.982 66.9255 112.871 67.2537C112.76 67.5829 112.558 67.8615 112.264 68.0877L111.368 66.928C111.564 66.7772 111.67 66.598 111.686 66.3949C111.701 66.1909 111.629 65.9852 111.47 65.7803C111.309 65.5737 111.136 65.4435 110.952 65.3955C110.767 65.3457 110.605 65.3749 110.463 65.4846C110.339 65.5806 110.279 65.734 110.281 65.9432C110.282 66.154 110.359 66.4669 110.51 66.8826C110.66 67.2992 110.756 67.6626 110.798 67.972C110.901 68.7255 110.689 69.3066 110.161 69.7137C109.739 70.0403 109.285 70.1363 108.798 70.0043C108.311 69.8723 107.853 69.5295 107.425 68.9757C107.123 68.584 106.92 68.1769 106.815 67.7509C106.711 67.3257 106.718 66.9383 106.838 66.5895C106.958 66.2415 107.178 65.9449 107.496 65.6989L108.397 66.8637C108.139 67.0643 108 67.2777 107.981 67.5066C107.962 67.7346 108.068 67.9986 108.3 68.2995C108.448 68.4923 108.607 68.6115 108.776 68.6595C108.945 68.7066 109.106 68.6732 109.256 68.5566V68.5549Z" fill="white"/>
<path d="M73.9682 130.329L69.8008 129.477L69.9851 128.575L72.3182 126.95C72.9011 126.507 73.2259 126.128 73.2911 125.811C73.3434 125.553 73.3271 125.347 73.2422 125.19C73.1565 125.032 73.0082 124.932 72.7956 124.889C72.5848 124.846 72.3954 124.9 72.2274 125.052C72.0602 125.204 71.9488 125.415 71.8931 125.682L70.5071 125.398C70.5825 125.033 70.7428 124.712 70.9888 124.44C71.2356 124.167 71.5399 123.976 71.9008 123.868C72.2616 123.759 72.6431 123.747 73.0451 123.828C73.6905 123.96 74.1576 124.211 74.4456 124.581C74.7328 124.95 74.8202 125.414 74.7062 125.971C74.6574 126.207 74.5674 126.426 74.4345 126.631C74.3016 126.837 74.1174 127.042 73.8825 127.25C73.6485 127.457 73.2834 127.725 72.7905 128.049L71.8365 128.782L74.1868 129.263L73.9682 130.329Z" fill="white"/>
<path d="M79.7816 128.289C79.7318 129.112 79.5081 129.734 79.113 130.157C78.7161 130.58 78.1821 130.771 77.511 130.731C76.8338 130.688 76.3238 130.432 75.981 129.962C75.6381 129.49 75.4916 128.847 75.5404 128.03L75.609 126.919C75.6587 126.097 75.8816 125.474 76.2776 125.05C76.6744 124.629 77.2093 124.438 77.8838 124.478C78.5576 124.519 79.0658 124.776 79.4096 125.247C79.7516 125.717 79.899 126.363 79.8493 127.181L79.7816 128.289ZM78.4521 126.912C78.4787 126.475 78.441 126.144 78.3407 125.921C78.2396 125.698 78.0656 125.58 77.817 125.566C77.5753 125.549 77.3927 125.64 77.2701 125.833C77.1476 126.026 77.0704 126.326 77.037 126.734L76.9427 128.288C76.9153 128.741 76.9521 129.077 77.0541 129.295C77.1544 129.513 77.3293 129.628 77.577 129.643C77.8161 129.658 77.9996 129.566 78.1264 129.369C78.2533 129.172 78.3313 128.854 78.3613 128.417L78.4521 126.912Z" fill="white"/>
<path d="M85.3311 130.422L81.0908 130.761L81.0179 129.844L82.8068 127.635C83.2448 127.048 83.4505 126.593 83.4248 126.271C83.4042 126.009 83.3305 125.814 83.2054 125.687C83.0802 125.56 82.9097 125.505 82.6928 125.523C82.4785 125.54 82.3122 125.645 82.1922 125.838C82.0731 126.031 82.0251 126.263 82.0465 126.536L80.6357 126.649C80.6065 126.275 80.6717 125.924 80.8328 125.594C80.9939 125.263 81.2331 124.996 81.5494 124.791C81.8665 124.587 82.2291 124.467 82.6388 124.435C83.2954 124.382 83.8131 124.492 84.1919 124.769C84.5699 125.043 84.7825 125.465 84.8279 126.033C84.8468 126.272 84.8211 126.508 84.7508 126.742C84.6788 126.975 84.5597 127.225 84.3925 127.489C84.2245 127.754 83.9477 128.11 83.5637 128.56L82.8522 129.529L85.2428 129.338L85.3302 130.423L85.3311 130.422Z" fill="white"/>
<path d="M70.0139 93.7715C69.6024 94.2258 69.011 94.5858 68.2224 94.8601C67.4339 95.1344 66.5767 95.2715 65.6339 95.2715C64.1939 95.2715 63.0367 94.8344 62.1796 93.9601C61.3139 93.0858 60.8596 91.8687 60.791 90.3087V89.3658C60.791 88.2944 60.971 87.3515 61.3567 86.5458C61.7424 85.7401 62.291 85.123 63.0024 84.6944C63.7139 84.2658 64.5453 84.043 65.4796 84.043C66.851 84.043 67.9139 84.3515 68.6767 84.9773C69.4396 85.603 69.8767 86.5287 70.0053 87.763H67.451C67.3567 87.1544 67.1596 86.7173 66.8596 86.4601C66.5596 86.203 66.131 86.0658 65.5739 86.0658C64.9053 86.0658 64.391 86.3487 64.031 86.9058C63.671 87.463 63.4824 88.2687 63.4824 89.3058V89.9658C63.4824 91.0544 63.671 91.8773 64.0482 92.4258C64.4253 92.9744 65.0167 93.2487 65.8224 93.2487C66.5167 93.2487 67.031 93.0944 67.3653 92.7944V91.0973H65.5224V89.2887H70.0224V93.7715H70.0139Z" fill="white"/>
<path d="M80.885 89.8879C80.885 90.9508 80.6879 91.8936 80.285 92.7165C79.8908 93.5394 79.325 94.1651 78.5879 94.6108C77.8508 95.0565 77.0193 95.2708 76.0765 95.2708C75.1336 95.2708 74.3108 95.0565 73.5822 94.6279C72.8536 94.1994 72.2879 93.5908 71.885 92.7936C71.4822 91.9965 71.2679 91.0879 71.2422 90.0594V89.4422C71.2422 88.3708 71.4393 87.4279 71.8336 86.6136C72.2279 85.7994 72.7936 85.1651 73.5393 84.7194C74.2765 84.2736 75.1165 84.0508 76.0593 84.0508C77.0022 84.0508 77.825 84.2736 78.5536 84.7108C79.2822 85.1479 79.8565 85.7736 80.2593 86.5879C80.6622 87.4022 80.8679 88.3279 80.8765 89.3822V89.8879H80.885ZM78.185 89.4251C78.185 88.3365 78.005 87.5136 77.6365 86.9565C77.2679 86.3908 76.745 86.1165 76.0679 86.1165C74.7393 86.1165 74.0365 87.1108 73.9593 89.0908V89.8965C73.9593 90.9679 74.1308 91.7908 74.4908 92.3651C74.8508 92.9394 75.3822 93.2308 76.085 93.2308C76.7879 93.2308 77.2765 92.9479 77.6365 92.3822C77.9965 91.8165 78.185 91.0022 78.185 89.9479V89.4422V89.4251Z" fill="white"/>
<path d="M84.9111 93.0944H89.5311V95.1173H82.2539V84.1973H84.9111V93.0944Z" fill="white"/>
<path d="M90.6531 95.1173V84.1973H94.2017C95.1702 84.1973 96.0531 84.4201 96.8245 84.8573C97.6045 85.2944 98.2045 85.9116 98.6417 86.7087C99.0788 87.5058 99.3017 88.3973 99.3017 89.3916V89.8973C99.3017 90.9001 99.0874 91.7915 98.6588 92.5887C98.2302 93.3858 97.6302 94.003 96.8588 94.4487C96.0874 94.8944 95.2217 95.1258 94.2702 95.1258H90.6445L90.6531 95.1173ZM93.3017 86.2287V93.0944H94.2274C94.9902 93.0944 95.5731 92.8287 95.9845 92.2887C96.396 91.7487 96.5931 90.9516 96.5931 89.8887V89.4173C96.5931 88.363 96.3874 87.5658 95.9845 87.0344C95.5731 86.503 94.9817 86.2287 94.2017 86.2287H93.3102H93.3017Z" fill="white"/>
<mask id="mask0_30843_105390" style="mask-type:luminance" maskUnits="userSpaceOnUse" x="27" y="73" width="41" height="57">
<path d="M58.9941 129.013L67.1395 125.583L64.5672 118.724L61.5664 87.0466L47.9112 77.3574L44.2152 78.7503L41.3224 73.7686L27.2695 97.7171L58.9941 129.013Z" fill="white"/>
</mask>
<g mask="url(#mask0_30843_105390)">
<path fill-rule="evenodd" clip-rule="evenodd" d="M95.6492 55.7579C94.9969 56.9322 92.3749 57.2176 90.5955 56.7822C91.4895 55.9756 93.4078 55.2076 95.0561 55.6122L95.6492 55.7579L95.1281 55.4416C93.6795 54.5647 92.8798 52.6722 92.8301 51.4756C94.3935 52.4227 96.0323 54.473 95.6492 55.7579ZM80.038 126.765C80.5969 126.765 81.0486 127.214 81.0486 127.768C81.0486 128.323 80.596 128.77 80.0372 128.771C79.4783 128.772 79.0266 128.323 79.0266 127.769C79.0266 127.214 79.4792 126.765 80.038 126.765ZM93.4026 54.7173L92.9423 54.3196C91.6626 53.2122 89.6029 53.0262 88.4372 53.3382C89.8181 54.533 92.2815 55.4664 93.4018 54.7164L93.4026 54.7173ZM66.8072 54.7284C67.9275 55.4776 70.3918 54.5416 71.7735 53.3459C70.6078 53.0347 68.5481 53.2216 67.2675 54.3307L66.8072 54.7284ZM77.4375 127.782C77.1272 129.086 74.6783 130.061 72.8458 130.115C73.4886 129.1 75.1292 127.85 76.8272 127.799L77.4375 127.782C77.4589 126.441 75.3255 124.904 73.5623 124.408C73.9352 125.547 75.2158 127.157 76.8503 127.617L77.4375 127.782ZM73.6258 127.278C73.7835 125.947 71.8172 124.203 70.1132 123.535C70.3678 124.705 71.4786 126.434 73.0583 127.054L73.6258 127.278L73.0163 127.234C71.3226 127.115 69.5638 128.195 68.8206 129.14C70.6489 129.27 73.1843 128.544 73.6258 127.278ZM69.8843 126.397C69.3161 127.612 66.7206 128.081 64.9146 127.768C65.7495 126.902 67.6086 126.004 69.2818 126.291L69.8835 126.396C70.1749 125.087 68.3955 123.155 66.7695 122.32C66.9032 123.511 67.8341 125.342 69.3409 126.116L69.8835 126.396L69.8843 126.397ZM66.2526 125.145C66.6752 123.872 65.1015 121.772 63.5681 120.779C63.5809 121.977 64.3198 123.892 65.7418 124.814L66.2526 125.145L65.6655 124.982C64.0301 124.526 62.0895 125.236 61.1706 126.014C62.9346 126.505 65.5643 126.299 66.2526 125.145ZM62.7649 123.536C61.9626 124.616 59.3261 124.558 57.6203 123.895C58.6129 123.212 60.6161 122.701 62.1975 123.315L62.7658 123.537C63.3161 122.313 61.9626 120.067 60.5381 118.925C60.4292 120.118 60.9701 122.097 62.2909 123.157L62.7658 123.537L62.7649 123.536ZM59.4598 121.588C60.1318 120.425 59.0132 118.056 57.7121 116.776C57.4823 117.952 57.8201 119.977 59.0261 121.161L59.4598 121.588L58.9163 121.312C57.4069 120.541 55.3618 120.849 54.3049 121.43C55.9343 122.262 58.5521 122.582 59.4598 121.588ZM56.3689 119.319C55.3652 120.218 52.7938 119.636 51.2569 118.647C52.3678 118.175 54.4326 118.072 55.8563 118.989L56.3689 119.319L55.9806 118.852C54.9006 117.551 54.7703 115.504 55.1183 114.357C56.2832 115.76 57.1549 118.229 56.3689 119.319ZM53.5249 116.754C52.4355 117.548 49.9361 116.713 48.5072 115.574C49.6592 115.215 51.7249 115.319 53.0483 116.374L53.5249 116.754C54.4172 115.747 53.8009 113.203 52.7843 111.69C52.3223 112.797 52.2443 114.848 53.1863 116.249L53.5249 116.754ZM50.9552 113.917C49.7912 114.596 47.3895 113.516 46.0841 112.241C47.2669 111.999 49.3112 112.31 50.5206 113.492L50.9552 113.917C51.9461 113.004 51.5903 110.412 50.7323 108.806C50.1598 109.861 49.8743 111.893 50.6689 113.381L50.9543 113.917H50.9552ZM48.6872 110.836C47.4598 111.398 45.1806 110.082 44.0115 108.683C45.2123 108.56 47.2146 109.074 48.2981 110.371L48.6872 110.836L48.4575 110.276C47.8181 108.715 48.3092 106.723 48.9846 105.728C49.6746 107.413 49.7646 110.028 48.6872 110.836ZM46.7432 107.546L46.5718 106.964C46.0943 105.348 46.7835 103.412 47.5575 102.492C48.0735 104.237 47.8978 106.849 46.7432 107.546L46.4029 107.042C45.4566 105.644 43.5169 104.934 42.3101 104.935C43.3309 106.443 45.4661 107.98 46.7432 107.546ZM45.1438 104.075C43.8281 104.381 41.8609 102.639 40.9978 101.036C42.1995 101.154 44.0569 102.055 44.8566 103.541L45.1438 104.075C46.3626 103.496 46.8023 100.916 46.4672 99.1293C45.6041 99.9676 44.7212 101.823 45.0323 103.48L45.1438 104.075ZM43.9043 100.465L43.8529 99.8604C43.7115 98.1822 44.7778 96.4224 45.7223 95.6742C45.8749 97.487 45.1755 100.011 43.9043 100.465L43.6721 99.9033C43.0275 98.345 41.2721 97.2633 40.0883 97.0259C40.7835 98.7076 42.5646 100.637 43.9043 100.465ZM43.0378 96.7473L43.0481 96.1413C43.0772 94.4562 44.3175 92.813 45.3323 92.1624C45.3006 93.9804 44.3483 96.4233 43.0378 96.7473L42.8638 96.1653C42.3812 94.5504 40.7432 93.2982 39.5903 92.9424C40.1115 94.6859 41.6869 96.785 43.0378 96.7473ZM42.5535 92.9613C41.2061 92.8644 39.8518 90.6196 39.5098 88.8324C40.6206 89.3013 42.1223 90.7104 42.4395 92.3664L42.5535 92.9613C43.8906 92.7702 45.0855 90.4353 45.3015 88.6302C44.2258 89.1753 42.8261 90.6856 42.6255 92.3587L42.5535 92.9613ZM42.4558 89.147C41.1246 88.9156 40.0052 86.5464 39.8475 84.7353C40.9043 85.3122 42.2561 86.8636 42.4026 88.5436L42.4558 89.147C43.8049 89.0896 45.2312 86.8867 45.6289 85.1116C44.5035 85.5462 42.9572 86.9099 42.5878 88.5556L42.4558 89.147ZM42.7446 85.3422C41.4452 84.9779 40.5709 82.5102 40.5983 80.6913C41.5918 81.3719 42.7781 83.0502 42.7541 84.7353L42.7455 85.3422C44.0938 85.4202 45.7361 83.3699 46.3129 81.6436C45.1489 81.9633 43.4723 83.1667 42.9375 84.7662L42.7446 85.3422ZM43.4192 81.5836L43.6686 81.0307C44.3621 79.4922 46.1526 78.4636 47.3423 78.2604C46.5932 79.9207 44.7529 81.7962 43.4192 81.5836L43.4886 80.9827C43.6841 79.3087 42.6743 77.519 41.7538 76.7433C41.5438 78.5493 42.1618 81.0924 43.4183 81.5844L43.4192 81.5836ZM44.4718 77.9133C43.2718 77.2987 42.9143 74.7059 43.3078 72.929C44.1435 73.7939 44.9672 75.6753 44.6029 77.321L44.4718 77.9133C45.7763 78.257 47.7992 76.5762 48.7129 74.999C47.5086 75.0813 45.6229 75.9264 44.7769 77.3879L44.4726 77.9142L44.4718 77.9133ZM45.8912 74.3647C44.7598 73.6327 44.6672 71.0176 45.2389 69.2896C45.9829 70.2324 46.6112 72.1876 46.0815 73.7887L45.8912 74.3647C47.1546 74.8379 49.3369 73.3662 50.4066 71.8876C49.1998 71.8499 47.2386 72.5022 46.2478 73.871L45.8912 74.3647ZM47.6638 70.9764C48.8723 71.5739 51.1926 70.3276 52.4063 68.9639C51.2098 68.8044 49.1921 69.2579 48.0675 70.5222L47.6629 70.9764L47.9106 70.4219C48.5998 68.8816 48.1729 66.8742 47.5283 65.861C46.7852 67.5239 46.6112 70.1356 47.6629 70.9764H47.6638ZM49.7698 67.7827C48.8098 66.8407 49.2478 64.2599 50.1563 62.6793C50.6946 63.7516 50.9158 65.7916 50.0732 67.2547L49.7706 67.7819L50.2189 67.3704C51.4652 66.2253 53.5181 65.9759 54.6923 66.2527C53.3466 67.4887 50.9123 68.4976 49.7698 67.7827ZM52.1903 64.8144L52.6781 64.4484C54.0349 63.4336 56.1023 63.3916 57.2423 63.7842C55.7783 64.8804 53.2541 65.639 52.1903 64.8144L52.5452 64.3199C53.5309 62.9476 53.5189 60.8956 53.0921 59.7753C52.0283 61.2573 51.3298 63.7816 52.1903 64.8144ZM54.8998 62.1033C54.1489 60.9899 55.0995 58.5479 56.3081 57.1799C56.6183 58.337 56.4229 60.3804 55.3026 61.6473L54.8998 62.1033C55.8743 63.0307 58.4638 62.5276 60.0306 61.5847C58.9361 61.079 56.8746 60.9153 55.4218 61.7896L54.8989 62.1042L54.8998 62.1033ZM57.8706 59.6759C57.2363 58.493 58.4295 56.1582 59.7709 54.9187C59.9629 56.1016 59.5601 58.1142 58.3172 59.2636L57.8706 59.6767L58.4218 59.4162C59.9561 58.691 61.9892 59.0596 63.0272 59.6724C61.3721 60.4542 58.7458 60.6967 57.8706 59.6767V59.6759ZM61.0712 57.5579L61.6463 57.3539C63.2458 56.7864 65.2318 57.3556 66.2021 58.0687C64.4758 58.6816 61.8383 58.6602 61.0712 57.5579L61.5572 57.191C62.9106 56.1719 63.5149 54.209 63.4446 53.0133C61.9841 54.1139 60.5603 56.3176 61.0712 57.5579ZM64.4706 55.7707C64.0883 54.4859 65.7281 52.4347 67.2932 51.4867C67.2418 52.6824 66.4412 54.5759 64.9918 55.4544L64.4706 55.7707L65.0638 55.625C66.7129 55.2187 68.6303 55.9859 69.5235 56.7916C67.7432 57.2287 65.1221 56.9433 64.4706 55.7707ZM82.6206 127.779C82.93 129.082 85.3781 130.056 87.2106 130.109C86.5686 129.094 84.9289 127.845 83.2309 127.796L82.6206 127.779C82.6 126.439 84.7352 124.899 86.4983 124.402C86.1255 125.541 84.8423 127.152 83.2078 127.614L82.6206 127.779ZM86.4332 127.273C86.2763 125.942 88.2443 124.197 89.9492 123.526C89.6938 124.697 88.5803 126.427 87.0015 127.048L86.4341 127.273L87.0435 127.228C88.7372 127.107 90.4961 128.186 91.2375 129.13C89.4092 129.262 86.8746 128.538 86.4341 127.273H86.4332ZM90.1746 126.388L90.7172 126.108C92.2258 125.332 93.1566 123.5 93.2929 122.309C91.6652 123.146 89.8849 125.079 90.1755 126.387L90.7772 126.282C92.4503 125.993 94.3095 126.89 95.1435 127.754C93.3375 128.068 90.7421 127.603 90.1755 126.387L90.1746 126.388ZM93.8081 125.134C93.3863 123.861 94.9618 121.76 96.4969 120.765C96.4832 121.964 95.7418 123.879 94.3198 124.802L93.8081 125.134L94.3969 124.97C96.0323 124.514 97.9729 125.221 98.8909 125.999C97.1252 126.491 94.4955 126.287 93.8081 125.134ZM97.2966 123.523C98.0981 124.602 100.735 124.542 102.44 123.877C101.449 123.194 99.4455 122.685 97.8649 123.301L97.2966 123.523C96.7472 122.299 98.1015 120.052 99.5278 118.909C99.6349 120.102 99.0923 122.082 97.7715 123.142L97.2966 123.523ZM100.603 121.572C99.9332 120.41 101.053 118.039 102.355 116.759C102.584 117.935 102.245 119.96 101.038 121.145L100.603 121.572L101.148 121.295C102.658 120.523 104.702 120.83 105.759 121.41C104.129 122.242 101.51 122.565 100.603 121.572ZM103.696 119.3C104.699 120.198 107.271 119.615 108.809 118.624C107.699 118.153 105.634 118.052 104.209 118.97L103.696 119.3L104.085 118.833C105.165 117.531 105.298 115.484 104.951 114.338C103.785 115.741 102.911 118.211 103.696 119.3ZM106.543 116.732L106.882 116.228C107.825 114.825 107.749 112.775 107.287 111.668C106.27 113.181 105.651 115.725 106.543 116.732L107.019 116.352C108.343 115.296 110.408 115.19 111.561 115.547C110.132 116.687 107.632 117.524 106.543 116.732ZM109.115 113.893C110.279 114.572 112.681 113.489 113.989 112.214C112.806 111.973 110.761 112.285 109.551 113.468L109.115 113.893C108.126 112.981 108.483 110.389 109.342 108.782C109.914 109.836 110.198 111.868 109.402 113.357L109.115 113.893ZM111.385 110.81C112.612 111.37 114.893 110.054 116.064 108.653C114.863 108.531 112.861 109.046 111.776 110.344L111.385 110.81L111.617 110.25C112.258 108.688 111.769 106.695 111.093 105.702C110.401 107.387 110.308 110.002 111.385 110.81ZM113.332 107.518C114.61 107.952 116.746 106.414 117.769 104.904C116.561 104.904 114.621 105.614 113.673 107.014L113.332 107.518C112.178 106.822 112.005 104.21 112.522 102.464C113.295 103.385 113.983 105.32 113.504 106.935L113.332 107.518ZM114.934 104.047C116.25 104.352 118.219 102.608 119.083 101.004C117.882 101.123 116.023 102.026 115.222 103.513L114.934 104.047C113.716 103.47 113.278 100.89 113.616 99.1019C114.479 99.9393 115.36 101.795 115.047 103.452L114.934 104.047ZM116.177 100.436C117.517 100.606 119.299 98.675 119.995 96.9933C118.812 97.2316 117.055 98.315 116.409 99.8733L116.177 100.435C114.906 99.9822 114.208 97.4579 114.363 95.645C115.306 96.3924 116.371 98.1513 116.228 99.8296L116.177 100.435V100.436ZM117.047 96.7164C118.397 96.7533 119.975 94.6542 120.497 92.9099C119.343 93.2664 117.705 94.5196 117.221 96.1353L117.047 96.7164C115.736 96.3933 114.787 93.9522 114.756 92.1342C115.771 92.783 117.009 94.4262 117.037 96.1104L117.047 96.7164ZM117.535 92.9304C118.882 92.8327 120.238 90.5862 120.582 88.7999C119.471 89.2696 117.967 90.6796 117.649 92.3356L117.535 92.9304C116.197 92.7402 115.004 90.4062 114.79 88.601C115.865 89.1453 117.264 90.6547 117.463 92.3279L117.535 92.9304ZM117.636 89.1162L117.503 88.5247C117.135 86.8799 115.59 85.517 114.465 85.0833C114.862 86.8584 116.286 89.0604 117.636 89.1162L117.689 88.5127C117.837 86.8327 119.19 85.2804 120.247 84.7027C120.088 86.5139 118.965 88.8847 117.636 89.1162ZM117.349 85.3113C118.65 84.9462 119.526 82.4776 119.501 80.6587C118.507 81.3393 117.319 83.0202 117.342 84.7044L117.349 85.3113C116.001 85.3902 114.361 83.3416 113.786 81.6162C114.95 81.935 116.626 83.1367 117.158 84.7362L117.349 85.3113ZM116.677 81.5536C117.934 81.0607 118.555 78.5176 118.346 76.7116C117.426 77.4882 116.414 79.2787 116.608 80.9527L116.677 81.5536C115.345 81.7679 113.504 79.8933 112.756 78.2339C113.947 78.4362 115.736 79.463 116.428 81.0007L116.677 81.5536ZM115.629 77.8842C116.829 77.2687 117.189 74.6759 116.797 72.899C115.961 73.7647 115.135 75.647 115.499 77.2919L115.629 77.8842C114.324 78.2287 112.303 76.5487 111.391 74.9724C112.595 75.053 114.48 75.8973 115.325 77.3579L115.629 77.8842ZM114.212 74.3373L113.857 73.8444C112.867 72.4764 110.906 71.825 109.699 71.8644C110.767 73.3422 112.949 74.8113 114.212 74.3373L114.023 73.7622C113.495 72.161 114.125 70.2059 114.87 69.2622C115.44 70.9902 115.344 73.6053 114.212 74.3373ZM112.443 70.9499C111.234 71.5482 108.914 70.3036 107.702 68.9407C108.899 68.7804 110.916 69.2322 112.039 70.4956L112.443 70.9499L112.195 70.3962C111.507 68.8559 111.936 66.8484 112.581 65.8353C113.323 67.4973 113.495 70.1082 112.443 70.9499ZM110.339 67.7579C111.301 66.815 110.865 64.2342 109.957 62.6553C109.418 63.7284 109.196 65.7684 110.037 67.2307L110.339 67.7579L109.891 67.3464C108.646 66.2022 106.593 65.9544 105.418 66.2322C106.763 67.4673 109.196 68.4727 110.339 67.7579ZM107.921 64.7922L107.434 64.427C106.078 63.4139 104.011 63.3727 102.87 63.7662C104.333 64.8607 106.857 65.6176 107.921 64.7922L107.567 64.2984C106.582 62.927 106.596 60.875 107.023 59.7539C108.086 61.235 108.782 63.7584 107.921 64.7922ZM105.214 62.0819C105.966 60.9676 105.018 58.5264 103.81 57.1593C103.498 58.3173 103.692 60.3599 104.812 61.6259L105.214 62.081C104.239 63.0093 101.651 62.5079 100.084 61.5667C101.179 61.0602 103.24 60.8947 104.692 61.7673L105.214 62.081V62.0819ZM102.246 59.6579C102.881 58.4742 101.689 56.1402 100.349 54.9016C100.156 56.0853 100.556 58.0962 101.799 59.2447L102.246 59.6579L101.695 59.3964C100.161 58.6722 98.1272 59.0433 97.0892 59.657C98.7435 60.4379 101.37 60.6787 102.246 59.6579ZM99.0469 57.5424C99.5586 56.3022 98.1366 54.0993 96.6769 52.9996C96.6049 54.1953 97.2083 56.1582 98.5601 57.1756L99.0469 57.5424C98.2798 58.6456 95.6415 58.6687 93.9161 58.0567C94.8872 57.3427 96.8732 56.7719 98.4726 57.3376L99.0469 57.5407V57.5424Z" fill="white"/>
</g>
<mask id="mask1_30843_105390" style="mask-type:luminance" maskUnits="userSpaceOnUse" x="92" y="68" width="34" height="62">
<path d="M93.7204 82.3313L110.912 76.5541L115.895 78.7501L125.055 68.0898L123.301 91.2858L116.442 115.294L98.865 129.013L92.8633 125.583L95.4356 117.866L93.7204 82.3313Z" fill="white"/>
</mask>
<g mask="url(#mask1_30843_105390)">
<path fill-rule="evenodd" clip-rule="evenodd" d="M95.6511 55.7579C94.9989 56.9322 92.3769 57.2176 90.5974 56.7822C91.4914 55.9756 93.4097 55.2076 95.058 55.6122L95.6511 55.7579L95.13 55.4416C93.6814 54.5647 92.8817 52.6722 92.832 51.4756C94.3954 52.4227 96.0343 54.473 95.6511 55.7579ZM80.04 126.765C80.5989 126.765 81.0506 127.214 81.0506 127.768C81.0506 128.323 80.598 128.77 80.0391 128.771C79.4803 128.772 79.0286 128.323 79.0286 127.769C79.0286 127.214 79.4811 126.765 80.04 126.765ZM93.4046 54.7173L92.9443 54.3196C91.6646 53.2122 89.6049 53.0262 88.4391 53.3382C89.82 54.533 92.2834 55.4664 93.4037 54.7164L93.4046 54.7173ZM66.8091 54.7284C67.9294 55.4776 70.3937 54.5416 71.7754 53.3459C70.6097 53.0347 68.55 53.2216 67.2694 54.3307L66.8091 54.7284ZM77.4394 127.782C77.1291 129.086 74.6803 130.061 72.8477 130.115C73.4906 129.1 75.1311 127.85 76.8291 127.799L77.4394 127.782C77.4609 126.441 75.3274 124.904 73.5643 124.408C73.9372 125.547 75.2177 127.157 76.8523 127.617L77.4394 127.782ZM73.6277 127.278C73.7854 125.947 71.8191 124.203 70.1151 123.535C70.3697 124.705 71.4806 126.434 73.0603 127.054L73.6277 127.278L73.0183 127.234C71.3246 127.115 69.5657 128.195 68.8226 129.14C70.6509 129.27 73.1863 128.544 73.6277 127.278ZM69.8863 126.397C69.318 127.612 66.7226 128.081 64.9166 127.768C65.7514 126.902 67.6106 126.004 69.2837 126.291L69.8854 126.396C70.1769 125.087 68.3974 123.155 66.7714 122.32C66.9051 123.511 67.836 125.342 69.3429 126.116L69.8854 126.396L69.8863 126.397ZM66.2546 125.145C66.6771 123.872 65.1034 121.772 63.57 120.779C63.5829 121.977 64.3217 123.892 65.7437 124.814L66.2546 125.145L65.6674 124.982C64.032 124.526 62.0914 125.236 61.1726 126.014C62.9366 126.505 65.5663 126.299 66.2546 125.145ZM62.7669 123.536C61.9646 124.616 59.328 124.558 57.6223 123.895C58.6149 123.212 60.618 122.701 62.1994 123.315L62.7677 123.537C63.318 122.313 61.9646 120.067 60.54 118.925C60.4311 120.118 60.972 122.097 62.2929 123.157L62.7677 123.537L62.7669 123.536ZM59.4617 121.588C60.1337 120.425 59.0151 118.056 57.714 116.776C57.4843 117.952 57.822 119.977 59.028 121.161L59.4617 121.588L58.9183 121.312C57.4089 120.541 55.3637 120.849 54.3069 121.43C55.9363 122.262 58.554 122.582 59.4617 121.588ZM56.3709 119.319C55.3671 120.218 52.7957 119.636 51.2589 118.647C52.3697 118.175 54.4346 118.072 55.8583 118.989L56.3709 119.319L55.9826 118.852C54.9026 117.551 54.7723 115.504 55.1203 114.357C56.2851 115.76 57.1569 118.229 56.3709 119.319ZM53.5269 116.754C52.4374 117.548 49.938 116.713 48.5091 115.574C49.6611 115.215 51.7269 115.319 53.0503 116.374L53.5269 116.754C54.4191 115.747 53.8029 113.203 52.7863 111.69C52.3243 112.797 52.2463 114.848 53.1883 116.249L53.5269 116.754ZM50.9571 113.917C49.7931 114.596 47.3914 113.516 46.086 112.241C47.2689 111.999 49.3131 112.31 50.5226 113.492L50.9571 113.917C51.948 113.004 51.5923 110.412 50.7343 108.806C50.1617 109.861 49.8763 111.893 50.6709 113.381L50.9563 113.917H50.9571ZM48.6891 110.836C47.4617 111.398 45.1826 110.082 44.0134 108.683C45.2143 108.56 47.2166 109.074 48.3 110.371L48.6891 110.836L48.4594 110.276C47.82 108.715 48.3111 106.723 48.9866 105.728C49.6766 107.413 49.7666 110.028 48.6891 110.836ZM46.7451 107.546L46.5737 106.964C46.0963 105.348 46.7854 103.412 47.5594 102.492C48.0754 104.237 47.8997 106.849 46.7451 107.546L46.4049 107.042C45.4586 105.644 43.5189 104.934 42.312 104.935C43.3329 106.443 45.468 107.98 46.7451 107.546ZM45.1457 104.075C43.83 104.381 41.8629 102.639 40.9997 101.036C42.2014 101.154 44.0589 102.055 44.8586 103.541L45.1457 104.075C46.3646 103.496 46.8043 100.916 46.4691 99.1293C45.606 99.9676 44.7231 101.823 45.0343 103.48L45.1457 104.075ZM43.9063 100.465L43.8549 99.8604C43.7134 98.1822 44.7797 96.4224 45.7243 95.6742C45.8769 97.487 45.1774 100.011 43.9063 100.465L43.674 99.9033C43.0294 98.345 41.274 97.2633 40.0903 97.0259C40.7854 98.7076 42.5666 100.637 43.9063 100.465ZM43.0397 96.7473L43.05 96.1413C43.0791 94.4562 44.3194 92.813 45.3343 92.1624C45.3026 93.9804 44.3503 96.4233 43.0397 96.7473L42.8657 96.1653C42.3831 94.5504 40.7451 93.2982 39.5923 92.9424C40.1134 94.6859 41.6889 96.785 43.0397 96.7473ZM42.5554 92.9613C41.208 92.8644 39.8537 90.6196 39.5117 88.8324C40.6226 89.3013 42.1243 90.7104 42.4414 92.3664L42.5554 92.9613C43.8926 92.7702 45.0874 90.4353 45.3034 88.6302C44.2277 89.1753 42.828 90.6856 42.6274 92.3587L42.5554 92.9613ZM42.4577 89.147C41.1266 88.9156 40.0071 86.5464 39.8494 84.7353C40.9063 85.3122 42.258 86.8636 42.4046 88.5436L42.4577 89.147C43.8069 89.0896 45.2331 86.8867 45.6309 85.1116C44.5054 85.5462 42.9591 86.9099 42.5897 88.5556L42.4577 89.147ZM42.7466 85.3422C41.4471 84.9779 40.5729 82.5102 40.6003 80.6913C41.5937 81.3719 42.78 83.0502 42.756 84.7353L42.7474 85.3422C44.0957 85.4202 45.738 83.3699 46.3149 81.6436C45.1509 81.9633 43.4743 83.1667 42.9394 84.7662L42.7466 85.3422ZM43.4211 81.5836L43.6706 81.0307C44.364 79.4922 46.1546 78.4636 47.3443 78.2604C46.5951 79.9207 44.7549 81.7962 43.4211 81.5836L43.4906 80.9827C43.686 79.3087 42.6763 77.519 41.7557 76.7433C41.5457 78.5493 42.1637 81.0924 43.4203 81.5844L43.4211 81.5836ZM44.4737 77.9133C43.2737 77.2987 42.9163 74.7059 43.3097 72.929C44.1454 73.7939 44.9691 75.6753 44.6049 77.321L44.4737 77.9133C45.7783 78.257 47.8011 76.5762 48.7149 74.999C47.5106 75.0813 45.6249 75.9264 44.7789 77.3879L44.4746 77.9142L44.4737 77.9133ZM45.8931 74.3647C44.7617 73.6327 44.6691 71.0176 45.2409 69.2896C45.9849 70.2324 46.6131 72.1876 46.0834 73.7887L45.8931 74.3647C47.1566 74.8379 49.3389 73.3662 50.4086 71.8876C49.2017 71.8499 47.2406 72.5022 46.2497 73.871L45.8931 74.3647ZM47.6657 70.9764C48.8743 71.5739 51.1946 70.3276 52.4083 68.9639C51.2117 68.8044 49.194 69.2579 48.0694 70.5222L47.6649 70.9764L47.9126 70.4219C48.6017 68.8816 48.1749 66.8742 47.5303 65.861C46.7871 67.5239 46.6131 70.1356 47.6649 70.9764H47.6657ZM49.7717 67.7827C48.8117 66.8407 49.2497 64.2599 50.1583 62.6793C50.6966 63.7516 50.9177 65.7916 50.0751 67.2547L49.7726 67.7819L50.2209 67.3704C51.4671 66.2253 53.52 65.9759 54.6943 66.2527C53.3486 67.4887 50.9143 68.4976 49.7717 67.7827ZM52.1923 64.8144L52.68 64.4484C54.0369 63.4336 56.1043 63.3916 57.2443 63.7842C55.7803 64.8804 53.256 65.639 52.1923 64.8144L52.5471 64.3199C53.5329 62.9476 53.5209 60.8956 53.094 59.7753C52.0303 61.2573 51.3317 63.7816 52.1923 64.8144ZM54.9017 62.1033C54.1509 60.9899 55.1014 58.5479 56.31 57.1799C56.6203 58.337 56.4249 60.3804 55.3046 61.6473L54.9017 62.1033C55.8763 63.0307 58.4657 62.5276 60.0326 61.5847C58.938 61.079 56.8766 60.9153 55.4237 61.7896L54.9009 62.1042L54.9017 62.1033ZM57.8726 59.6759C57.2383 58.493 58.4314 56.1582 59.7729 54.9187C59.9649 56.1016 59.562 58.1142 58.3191 59.2636L57.8726 59.6767L58.4237 59.4162C59.958 58.691 61.9911 59.0596 63.0291 59.6724C61.374 60.4542 58.7477 60.6967 57.8726 59.6767V59.6759ZM61.0731 57.5579L61.6483 57.3539C63.2477 56.7864 65.2337 57.3556 66.204 58.0687C64.4777 58.6816 61.8403 58.6602 61.0731 57.5579L61.5591 57.191C62.9126 56.1719 63.5169 54.209 63.4466 53.0133C61.986 54.1139 60.5623 56.3176 61.0731 57.5579ZM64.4726 55.7707C64.0903 54.4859 65.73 52.4347 67.2951 51.4867C67.2437 52.6824 66.4431 54.5759 64.9937 55.4544L64.4726 55.7707L65.0657 55.625C66.7149 55.2187 68.6323 55.9859 69.5254 56.7916C67.7451 57.2287 65.124 56.9433 64.4726 55.7707ZM82.6226 127.779C82.932 129.082 85.38 130.056 87.2126 130.109C86.5706 129.094 84.9309 127.845 83.2329 127.796L82.6226 127.779C82.602 126.439 84.7371 124.899 86.5003 124.402C86.1274 125.541 84.8443 127.152 83.2097 127.614L82.6226 127.779ZM86.4351 127.273C86.2783 125.942 88.2463 124.197 89.9511 123.526C89.6957 124.697 88.5823 126.427 87.0034 127.048L86.436 127.273L87.0454 127.228C88.7391 127.107 90.498 128.186 91.2394 129.13C89.4111 129.262 86.8766 128.538 86.436 127.273H86.4351ZM90.1766 126.388L90.7191 126.108C92.2277 125.332 93.1586 123.5 93.2949 122.309C91.6671 123.146 89.8869 125.079 90.1774 126.387L90.7791 126.282C92.4523 125.993 94.3114 126.89 95.1454 127.754C93.3394 128.068 90.744 127.603 90.1774 126.387L90.1766 126.388ZM93.81 125.134C93.3883 123.861 94.9637 121.76 96.4989 120.765C96.4851 121.964 95.7437 123.879 94.3217 124.802L93.81 125.134L94.3989 124.97C96.0343 124.514 97.9749 125.221 98.8929 125.999C97.1271 126.491 94.4974 126.287 93.81 125.134ZM97.2986 123.523C98.1 124.602 100.737 124.542 102.442 123.877C101.451 123.194 99.4474 122.685 97.8669 123.301L97.2986 123.523C96.7491 122.299 98.1034 120.052 99.5297 118.909C99.6369 120.102 99.0943 122.082 97.7734 123.142L97.2986 123.523ZM100.605 121.572C99.9351 120.41 101.055 118.039 102.357 116.759C102.586 117.935 102.247 119.96 101.04 121.145L100.605 121.572L101.15 121.295C102.66 120.523 104.704 120.83 105.761 121.41C104.131 122.242 101.512 122.565 100.605 121.572ZM103.698 119.3C104.701 120.198 107.273 119.615 108.811 118.624C107.701 118.153 105.636 118.052 104.211 118.97L103.698 119.3L104.087 118.833C105.167 117.531 105.3 115.484 104.953 114.338C103.787 115.741 102.913 118.211 103.698 119.3ZM106.545 116.732L106.884 116.228C107.827 114.825 107.751 112.775 107.289 111.668C106.272 113.181 105.653 115.725 106.545 116.732L107.021 116.352C108.345 115.296 110.41 115.19 111.563 115.547C110.134 116.687 107.634 117.524 106.545 116.732ZM109.117 113.893C110.281 114.572 112.683 113.489 113.991 112.214C112.808 111.973 110.763 112.285 109.553 113.468L109.117 113.893C108.128 112.981 108.485 110.389 109.344 108.782C109.916 109.836 110.2 111.868 109.404 113.357L109.117 113.893ZM111.387 110.81C112.614 111.37 114.895 110.054 116.066 108.653C114.865 108.531 112.863 109.046 111.778 110.344L111.387 110.81L111.619 110.25C112.26 108.688 111.771 106.695 111.095 105.702C110.403 107.387 110.31 110.002 111.387 110.81ZM113.334 107.518C114.612 107.952 116.748 106.414 117.771 104.904C116.563 104.904 114.623 105.614 113.675 107.014L113.334 107.518C112.18 106.822 112.007 104.21 112.524 102.464C113.297 103.385 113.985 105.32 113.506 106.935L113.334 107.518ZM114.936 104.047C116.252 104.352 118.221 102.608 119.085 101.004C117.884 101.123 116.025 102.026 115.224 103.513L114.936 104.047C113.718 103.47 113.28 100.89 113.618 99.1019C114.481 99.9393 115.362 101.795 115.049 103.452L114.936 104.047ZM116.179 100.436C117.519 100.606 119.301 98.675 119.997 96.9933C118.814 97.2316 117.057 98.315 116.411 99.8733L116.179 100.435C114.908 99.9822 114.21 97.4579 114.365 95.645C115.308 96.3924 116.373 98.1513 116.23 99.8296L116.179 100.435V100.436ZM117.049 96.7164C118.399 96.7533 119.977 94.6542 120.499 92.9099C119.345 93.2664 117.707 94.5196 117.223 96.1353L117.049 96.7164C115.738 96.3933 114.789 93.9522 114.758 92.1342C115.773 92.783 117.011 94.4262 117.039 96.1104L117.049 96.7164ZM117.537 92.9304C118.884 92.8327 120.24 90.5862 120.584 88.7999C119.473 89.2696 117.969 90.6796 117.651 92.3356L117.537 92.9304C116.199 92.7402 115.006 90.4062 114.792 88.601C115.867 89.1453 117.266 90.6547 117.465 92.3279L117.537 92.9304ZM117.638 89.1162L117.505 88.5247C117.137 86.8799 115.592 85.517 114.467 85.0833C114.864 86.8584 116.288 89.0604 117.638 89.1162L117.691 88.5127C117.839 86.8327 119.192 85.2804 120.249 84.7027C120.09 86.5139 118.967 88.8847 117.638 89.1162ZM117.351 85.3113C118.652 84.9462 119.528 82.4776 119.503 80.6587C118.509 81.3393 117.321 83.0202 117.344 84.7044L117.351 85.3113C116.003 85.3902 114.363 83.3416 113.788 81.6162C114.952 81.935 116.628 83.1367 117.16 84.7362L117.351 85.3113ZM116.679 81.5536C117.936 81.0607 118.557 78.5176 118.348 76.7116C117.428 77.4882 116.416 79.2787 116.61 80.9527L116.679 81.5536C115.347 81.7679 113.506 79.8933 112.758 78.2339C113.949 78.4362 115.738 79.463 116.43 81.0007L116.679 81.5536ZM115.631 77.8842C116.831 77.2687 117.191 74.6759 116.799 72.899C115.963 73.7647 115.137 75.647 115.501 77.2919L115.631 77.8842C114.326 78.2287 112.305 76.5487 111.393 74.9724C112.597 75.053 114.482 75.8973 115.327 77.3579L115.631 77.8842ZM114.214 74.3373L113.859 73.8444C112.869 72.4764 110.908 71.825 109.701 71.8644C110.769 73.3422 112.951 74.8113 114.214 74.3373L114.025 73.7622C113.497 72.161 114.127 70.2059 114.872 69.2622C115.442 70.9902 115.346 73.6053 114.214 74.3373ZM112.445 70.9499C111.236 71.5482 108.916 70.3036 107.704 68.9407C108.901 68.7804 110.918 69.2322 112.041 70.4956L112.445 70.9499L112.197 70.3962C111.509 68.8559 111.938 66.8484 112.583 65.8353C113.325 67.4973 113.497 70.1082 112.445 70.9499ZM110.341 67.7579C111.303 66.815 110.867 64.2342 109.959 62.6553C109.42 63.7284 109.198 65.7684 110.039 67.2307L110.341 67.7579L109.893 67.3464C108.648 66.2022 106.595 65.9544 105.42 66.2322C106.765 67.4673 109.198 68.4727 110.341 67.7579ZM107.923 64.7922L107.436 64.427C106.08 63.4139 104.013 63.3727 102.872 63.7662C104.335 64.8607 106.859 65.6176 107.923 64.7922L107.569 64.2984C106.584 62.927 106.598 60.875 107.025 59.7539C108.088 61.235 108.784 63.7584 107.923 64.7922ZM105.216 62.0819C105.968 60.9676 105.02 58.5264 103.812 57.1593C103.5 58.3173 103.694 60.3599 104.814 61.6259L105.216 62.081C104.241 63.0093 101.653 62.5079 100.086 61.5667C101.181 61.0602 103.242 60.8947 104.694 61.7673L105.216 62.081V62.0819ZM102.248 59.6579C102.883 58.4742 101.691 56.1402 100.351 54.9016C100.158 56.0853 100.558 58.0962 101.801 59.2447L102.248 59.6579L101.697 59.3964C100.163 58.6722 98.1292 59.0433 97.0912 59.657C98.7454 60.4379 101.372 60.6787 102.248 59.6579ZM99.0489 57.5424C99.5606 56.3022 98.1386 54.0993 96.6789 52.9996C96.6069 54.1953 97.2103 56.1582 98.562 57.1756L99.0489 57.5424C98.2817 58.6456 95.6434 58.6687 93.918 58.0567C94.8891 57.3427 96.8751 56.7719 98.4746 57.3376L99.0489 57.5407V57.5424Z" fill="white"/>
</g>
<path fill-rule="evenodd" clip-rule="evenodd" d="M116.162 79.1504L116.189 78.5427C116.266 76.8516 115.137 75.1202 114.17 74.3984C114.088 76.2224 114.879 78.7347 116.162 79.1504Z" fill="white"/>
<path fill-rule="evenodd" clip-rule="evenodd" d="M43.9843 79.1504L43.9569 78.5427C43.8797 76.8516 45.0094 75.1202 45.9763 74.3984C46.0586 76.2224 45.2674 78.7347 43.9843 79.1504Z" fill="white"/>
<path d="M89.1182 130.534C88.6946 130.609 88.3031 130.598 87.9439 130.5C87.5867 130.403 87.287 130.234 87.0449 129.994C86.8028 129.755 86.6465 129.459 86.5762 129.107L87.8352 128.885C87.8911 129.12 88.025 129.295 88.2369 129.41C88.4488 129.525 88.6827 129.56 88.9385 129.515C89.1423 129.479 89.3143 129.403 89.4543 129.285C89.5959 129.165 89.6965 129.017 89.7559 128.839C89.8169 128.66 89.8287 128.464 89.7914 128.252C89.7533 128.036 89.6739 127.855 89.5531 127.707C89.4342 127.559 89.2868 127.453 89.1107 127.389C88.9346 127.326 88.7435 127.311 88.5373 127.345C88.3575 127.377 88.1891 127.445 88.0323 127.549C87.8775 127.652 87.7644 127.776 87.693 127.921L86.5024 127.917L86.2224 124.629L89.9754 123.967L90.1625 125.028L87.4796 125.501L87.5919 127.067L87.6279 127.06C87.709 126.89 87.8497 126.735 88.0499 126.597C88.2501 126.458 88.4851 126.365 88.7549 126.318C89.1246 126.253 89.4696 126.281 89.7901 126.404C90.1105 126.527 90.3814 126.725 90.6028 126.999C90.8239 127.272 90.9681 127.605 91.0356 127.999C91.1105 128.412 91.0794 128.797 90.9423 129.153C90.8068 129.506 90.5825 129.805 90.2691 130.05C89.9575 130.293 89.5738 130.454 89.1182 130.534Z" fill="white"/>
</g>
</g>
<defs>
<clipPath id="clip0_30843_105390">
<rect width="360" height="360" fill="white"/>
</clipPath>
<clipPath id="clip1_30843_105390">
<rect width="120" height="120" fill="white" transform="translate(20 30)"/>
</clipPath>
</defs>
</svg>
