<svg width="360" height="360" viewBox="0 0 360 360" fill="none" xmlns="http://www.w3.org/2000/svg">
<g clip-path="url(#clip0_30845_105702)">
<rect width="360" height="360" fill="#95001B"/>
<path d="M37.232 274.472V278.936C37.232 281.656 36.56 283.752 35.216 285.224C33.904 286.664 31.952 287.384 29.36 287.384C26.768 287.384 24.8 286.664 23.456 285.224C22.144 283.752 21.488 281.656 21.488 278.936V261.464C21.488 258.744 22.144 256.664 23.456 255.224C24.8 253.752 26.768 253.016 29.36 253.016C31.952 253.016 33.904 253.752 35.216 255.224C36.56 256.664 37.232 258.744 37.232 261.464V264.728H32.24V261.128C32.24 259.912 31.984 259.064 31.472 258.584C30.992 258.072 30.336 257.816 29.504 257.816C28.672 257.816 28 258.072 27.488 258.584C27.008 259.064 26.768 259.912 26.768 261.128V279.272C26.768 280.488 27.008 281.336 27.488 281.816C28 282.296 28.672 282.536 29.504 282.536C30.336 282.536 30.992 282.296 31.472 281.816C31.984 281.336 32.24 280.488 32.24 279.272V274.472H37.232ZM57.5236 287H52.1956L51.2836 280.904H44.8036L43.8916 287H39.0436L44.4196 253.4H52.1476L57.5236 287ZM45.4756 276.344H50.5636L48.0196 259.352L45.4756 276.344ZM65.2625 287H59.9825V253.4H76.6385V287H71.2625V258.2H65.2625V287ZM85.3149 279.272C85.3149 280.488 85.5549 281.352 86.0349 281.864C86.5469 282.344 87.2189 282.584 88.0509 282.584C88.8829 282.584 89.5389 282.344 90.0189 281.864C90.5309 281.352 90.7869 280.488 90.7869 279.272V261.128C90.7869 259.912 90.5309 259.064 90.0189 258.584C89.5389 258.072 88.8829 257.816 88.0509 257.816C87.2189 257.816 86.5469 258.072 86.0349 258.584C85.5549 259.064 85.3149 259.912 85.3149 261.128V279.272ZM80.0349 261.464C80.0349 258.744 80.7229 256.664 82.0989 255.224C83.4749 253.752 85.4589 253.016 88.0509 253.016C90.6429 253.016 92.6269 253.752 94.0029 255.224C95.3789 256.664 96.0669 258.744 96.0669 261.464V278.936C96.0669 281.656 95.3789 283.752 94.0029 285.224C92.6269 286.664 90.6429 287.384 88.0509 287.384C85.4589 287.384 83.4749 286.664 82.0989 285.224C80.7229 283.752 80.0349 281.656 80.0349 278.936V261.464ZM114.714 266.984L120.954 253.4H126.234L119.754 267.032L126.234 287H120.81L116.01 272.12L114.714 274.664V287H109.482V274.664L108.186 272.072L103.386 287H97.9621L104.49 267.176L97.9621 253.4H103.242L109.482 266.984V253.4H114.714V266.984ZM133.747 287H128.467V253.4H133.747V267.8H139.747V253.4H145.123V287H139.747V272.6H133.747V287ZM154.375 287H148.951V253.4H153.655V274.664L155.575 267.272L159.895 253.4H165.703V287H160.951V263.336L158.791 271.592L154.375 287ZM176.348 273.608L174.716 276.68V287H169.436V253.4H174.716V268.04L181.628 253.4H186.908L179.564 268.376L186.908 287H181.484L176.348 273.608ZM37.232 322.472V326.936C37.232 329.656 36.56 331.752 35.216 333.224C33.904 334.664 31.952 335.384 29.36 335.384C26.768 335.384 24.8 334.664 23.456 333.224C22.144 331.752 21.488 329.656 21.488 326.936V309.464C21.488 306.744 22.144 304.664 23.456 303.224C24.8 301.752 26.768 301.016 29.36 301.016C31.952 301.016 33.904 301.752 35.216 303.224C36.56 304.664 37.232 306.744 37.232 309.464V312.728H32.24V309.128C32.24 307.912 31.984 307.064 31.472 306.584C30.992 306.072 30.336 305.816 29.504 305.816C28.672 305.816 28 306.072 27.488 306.584C27.008 307.064 26.768 307.912 26.768 309.128V327.272C26.768 328.488 27.008 329.336 27.488 329.816C28 330.296 28.672 330.536 29.504 330.536C30.336 330.536 30.992 330.296 31.472 329.816C31.984 329.336 32.24 328.488 32.24 327.272V322.472H37.232ZM63.2008 322.472V326.936C63.2008 329.656 62.5288 331.752 61.1848 333.224C59.8728 334.664 57.9208 335.384 55.3288 335.384C52.7368 335.384 50.7688 334.664 49.4248 333.224C48.1128 331.752 47.4568 329.656 47.4568 326.936V309.464C47.4568 306.744 48.1128 304.664 49.4248 303.224C50.7688 301.752 52.7368 301.016 55.3288 301.016C57.9208 301.016 59.8728 301.752 61.1848 303.224C62.5288 304.664 63.2008 306.744 63.2008 309.464V312.728H58.2088V309.128C58.2088 307.912 57.9528 307.064 57.4408 306.584C56.9608 306.072 56.3048 305.816 55.4728 305.816C54.6408 305.816 53.9688 306.072 53.4568 306.584C52.9768 307.064 52.7368 307.912 52.7368 309.128V327.272C52.7368 328.488 52.9768 329.336 53.4568 329.816C53.9688 330.296 54.6408 330.536 55.4728 330.536C56.3048 330.536 56.9608 330.296 57.4408 329.816C57.9528 329.336 58.2088 328.488 58.2088 327.272V322.472H63.2008ZM83.4924 335H78.1644L77.2524 328.904H70.7724L69.8604 335H65.0124L70.3884 301.4H78.1164L83.4924 335ZM71.4444 324.344H76.5324L73.9884 307.352L71.4444 324.344ZM91.2313 335H85.9513V301.4H102.607V335H97.2313V306.2H91.2313V335ZM111.284 327.272C111.284 328.488 111.524 329.352 112.004 329.864C112.516 330.344 113.188 330.584 114.02 330.584C114.852 330.584 115.508 330.344 115.988 329.864C116.5 329.352 116.756 328.488 116.756 327.272V309.128C116.756 307.912 116.5 307.064 115.988 306.584C115.508 306.072 114.852 305.816 114.02 305.816C113.188 305.816 112.516 306.072 112.004 306.584C111.524 307.064 111.284 307.912 111.284 309.128V327.272ZM106.004 309.464C106.004 306.744 106.692 304.664 108.068 303.224C109.444 301.752 111.428 301.016 114.02 301.016C116.612 301.016 118.596 301.752 119.972 303.224C121.348 304.664 122.036 306.744 122.036 309.464V326.936C122.036 329.656 121.348 331.752 119.972 333.224C118.596 334.664 116.612 335.384 114.02 335.384C111.428 335.384 109.444 334.664 108.068 333.224C106.692 331.752 106.004 329.656 106.004 326.936V309.464ZM125.515 335V301.4H139.435V306.2H130.795V335H125.515ZM160.086 335H154.758L153.846 328.904H147.366L146.454 335H141.606L146.982 301.4H154.71L160.086 335ZM148.038 324.344H153.126L150.582 307.352L148.038 324.344ZM173.729 325.256L177.329 301.4H184.673V335H179.681V310.904L176.033 335H171.041L167.105 311.24V335H162.497V301.4H169.841L173.729 325.256ZM193.938 335H188.514V301.4H193.218V322.664L195.138 315.272L199.458 301.4H205.266V335H200.514V311.336L198.354 319.592L193.938 335Z" fill="white"/>
<path d="M20.4773 231.598V230.273H27.4403V231.598H24.7429V239H23.1747V231.598H20.4773ZM32.2087 239H30.5212L33.5937 230.273H35.5454L38.6221 239H36.9346L34.6036 232.062H34.5354L32.2087 239ZM32.2641 235.578H36.8664V236.848H32.2641V235.578ZM48.568 233.06C48.497 232.83 48.399 232.624 48.274 232.442C48.1518 232.257 48.0041 232.099 47.8308 231.969C47.6603 231.838 47.4643 231.74 47.2427 231.675C47.0211 231.607 46.7797 231.572 46.5183 231.572C46.0495 231.572 45.6319 231.69 45.2655 231.926C44.899 232.162 44.6106 232.509 44.4004 232.966C44.193 233.42 44.0893 233.974 44.0893 234.628C44.0893 235.287 44.193 235.845 44.4004 236.303C44.6078 236.76 44.8961 237.108 45.2655 237.347C45.6348 237.582 46.0637 237.7 46.5524 237.7C46.9956 237.7 47.3791 237.615 47.703 237.445C48.0297 237.274 48.2811 237.033 48.4572 236.72C48.6334 236.405 48.7214 236.036 48.7214 235.612L49.0794 235.668H46.7101V234.432H50.2512V235.48C50.2512 236.227 50.0922 236.874 49.774 237.419C49.4558 237.964 49.0183 238.385 48.4615 238.68C47.9047 238.973 47.2655 239.119 46.5439 239.119C45.7399 239.119 45.0339 238.939 44.426 238.578C43.8209 238.214 43.3478 237.699 43.0069 237.031C42.6689 236.361 42.4998 235.565 42.4998 234.645C42.4998 233.94 42.5993 233.311 42.7981 232.757C42.9998 232.203 43.2811 231.733 43.6419 231.347C44.0027 230.957 44.426 230.662 44.9118 230.46C45.3976 230.256 45.926 230.153 46.497 230.153C46.9799 230.153 47.4302 230.224 47.8478 230.366C48.2655 230.506 48.6362 230.705 48.9601 230.963C49.2868 231.222 49.5552 231.528 49.7655 231.884C49.9757 232.239 50.1135 232.631 50.1788 233.06H48.568ZM55.14 239V230.273H56.721V237.675H60.5647V239H55.14ZM66.8779 230.273V239H65.2969V230.273H66.8779ZM79.1217 230.273V239H77.7155L73.6033 233.055H73.5308V239H71.9499V230.273H73.3646L77.4726 236.222H77.5493V230.273H79.1217ZM84.2044 239V230.273H89.8805V231.598H85.7854V233.967H89.5865V235.293H85.7854V237.675H89.9146V239H84.2044ZM102.311 239H100.623L103.696 230.273H105.647L108.724 239H107.037L104.706 232.062H104.637L102.311 239ZM102.366 235.578H106.968V236.848H102.366V235.578ZM114.25 239L111.787 230.273H113.487L115.06 236.686H115.141L116.82 230.273H118.366L120.05 236.69H120.126L121.699 230.273H123.399L120.936 239H119.376L117.629 232.876H117.561L115.81 239H114.25ZM128.156 239H126.468L129.541 230.273H131.492L134.569 239H132.882L130.551 232.062H130.482L128.156 239ZM128.211 235.578H132.813V236.848H128.211V235.578ZM139.079 239V230.273H142.351C143.022 230.273 143.584 230.389 144.039 230.622C144.496 230.855 144.841 231.182 145.074 231.602C145.31 232.02 145.428 232.507 145.428 233.064C145.428 233.624 145.309 234.109 145.07 234.521C144.834 234.93 144.486 235.247 144.026 235.472C143.566 235.693 143 235.804 142.33 235.804H139.999V234.491H142.117C142.509 234.491 142.83 234.437 143.08 234.33C143.33 234.219 143.515 234.058 143.634 233.848C143.756 233.635 143.817 233.374 143.817 233.064C143.817 232.754 143.756 232.49 143.634 232.271C143.512 232.05 143.326 231.882 143.076 231.768C142.826 231.652 142.503 231.594 142.108 231.594H140.66V239H139.079ZM143.587 235.045L145.748 239H143.983L141.861 235.045H143.587ZM153.201 239H150.243V230.273H153.26C154.127 230.273 154.871 230.447 155.493 230.797C156.118 231.143 156.598 231.642 156.934 232.293C157.269 232.943 157.436 233.722 157.436 234.628C157.436 235.537 157.267 236.318 156.929 236.972C156.594 237.625 156.11 238.126 155.476 238.476C154.846 238.825 154.087 239 153.201 239ZM151.824 237.632H153.124C153.732 237.632 154.239 237.521 154.645 237.3C155.052 237.075 155.357 236.741 155.561 236.298C155.766 235.852 155.868 235.295 155.868 234.628C155.868 233.96 155.766 233.406 155.561 232.966C155.357 232.523 155.054 232.192 154.654 231.973C154.256 231.751 153.762 231.641 153.171 231.641H151.824V237.632ZM167.041 232.672C167.002 232.3 166.834 232.01 166.539 231.803C166.246 231.595 165.865 231.491 165.397 231.491C165.067 231.491 164.784 231.541 164.549 231.641C164.313 231.74 164.132 231.875 164.007 232.045C163.882 232.216 163.818 232.411 163.816 232.629C163.816 232.811 163.857 232.969 163.939 233.102C164.024 233.236 164.14 233.349 164.284 233.443C164.429 233.534 164.59 233.611 164.766 233.673C164.942 233.736 165.12 233.788 165.299 233.831L166.117 234.036C166.446 234.112 166.763 234.216 167.067 234.347C167.374 234.477 167.648 234.642 167.89 234.841C168.134 235.04 168.327 235.28 168.469 235.561C168.611 235.842 168.682 236.172 168.682 236.55C168.682 237.061 168.551 237.511 168.29 237.901C168.029 238.287 167.651 238.589 167.157 238.808C166.665 239.024 166.07 239.132 165.371 239.132C164.692 239.132 164.103 239.027 163.603 238.817C163.105 238.607 162.716 238.3 162.435 237.896C162.157 237.493 162.006 237.001 161.983 236.422H163.539C163.561 236.726 163.655 236.979 163.82 237.18C163.985 237.382 164.199 237.533 164.463 237.632C164.73 237.732 165.029 237.781 165.358 237.781C165.702 237.781 166.003 237.73 166.262 237.628C166.523 237.523 166.728 237.378 166.875 237.193C167.023 237.006 167.098 236.787 167.101 236.537C167.098 236.31 167.032 236.122 166.901 235.974C166.77 235.824 166.587 235.699 166.351 235.599C166.118 235.497 165.845 235.406 165.533 235.327L164.54 235.071C163.821 234.886 163.253 234.607 162.836 234.232C162.421 233.854 162.213 233.352 162.213 232.727C162.213 232.213 162.353 231.763 162.631 231.376C162.912 230.99 163.294 230.69 163.777 230.477C164.26 230.261 164.807 230.153 165.418 230.153C166.037 230.153 166.58 230.261 167.046 230.477C167.515 230.69 167.882 230.987 168.149 231.368C168.416 231.746 168.554 232.18 168.563 232.672H167.041ZM179.703 239V237.858L182.733 234.888C183.023 234.595 183.264 234.335 183.457 234.108C183.65 233.881 183.795 233.661 183.892 233.447C183.988 233.234 184.037 233.007 184.037 232.766C184.037 232.49 183.974 232.254 183.849 232.058C183.724 231.859 183.552 231.706 183.334 231.598C183.115 231.49 182.866 231.436 182.588 231.436C182.301 231.436 182.049 231.496 181.834 231.615C181.618 231.732 181.45 231.898 181.331 232.114C181.214 232.33 181.156 232.587 181.156 232.885H179.652C179.652 232.331 179.778 231.849 180.031 231.44C180.284 231.031 180.632 230.714 181.075 230.49C181.521 230.266 182.032 230.153 182.609 230.153C183.194 230.153 183.709 230.263 184.152 230.482C184.595 230.7 184.939 231 185.183 231.381C185.43 231.761 185.554 232.196 185.554 232.685C185.554 233.011 185.491 233.332 185.366 233.648C185.241 233.963 185.021 234.312 184.706 234.696C184.393 235.08 183.954 235.544 183.389 236.089L181.885 237.619V237.679H185.686V239H179.703ZM193.742 239.166C193.04 239.166 192.438 238.989 191.935 238.634C191.435 238.276 191.05 237.76 190.78 237.087C190.513 236.411 190.38 235.597 190.38 234.645C190.383 233.693 190.517 232.884 190.784 232.216C191.054 231.545 191.439 231.034 191.939 230.682C192.442 230.33 193.043 230.153 193.742 230.153C194.441 230.153 195.042 230.33 195.544 230.682C196.047 231.034 196.432 231.545 196.699 232.216C196.969 232.886 197.104 233.696 197.104 234.645C197.104 235.599 196.969 236.415 196.699 237.091C196.432 237.764 196.047 238.278 195.544 238.634C195.044 238.989 194.444 239.166 193.742 239.166ZM193.742 237.832C194.287 237.832 194.718 237.564 195.033 237.027C195.351 236.487 195.51 235.693 195.51 234.645C195.51 233.952 195.438 233.369 195.293 232.898C195.148 232.426 194.944 232.071 194.679 231.832C194.415 231.591 194.103 231.47 193.742 231.47C193.199 231.47 192.77 231.74 192.455 232.28C192.14 232.817 191.981 233.605 191.978 234.645C191.975 235.341 192.044 235.926 192.186 236.401C192.331 236.875 192.536 237.233 192.8 237.474C193.064 237.713 193.378 237.832 193.742 237.832ZM201.88 239V237.858L204.91 234.888C205.2 234.595 205.441 234.335 205.634 234.108C205.827 233.881 205.972 233.661 206.069 233.447C206.165 233.234 206.214 233.007 206.214 232.766C206.214 232.49 206.151 232.254 206.026 232.058C205.901 231.859 205.729 231.706 205.511 231.598C205.292 231.49 205.043 231.436 204.765 231.436C204.478 231.436 204.227 231.496 204.011 231.615C203.795 231.732 203.627 231.898 203.508 232.114C203.391 232.33 203.333 232.587 203.333 232.885H201.829C201.829 232.331 201.955 231.849 202.208 231.44C202.461 231.031 202.809 230.714 203.252 230.49C203.698 230.266 204.209 230.153 204.786 230.153C205.371 230.153 205.886 230.263 206.329 230.482C206.772 230.7 207.116 231 207.36 231.381C207.607 231.761 207.731 232.196 207.731 232.685C207.731 233.011 207.668 233.332 207.543 233.648C207.418 233.963 207.198 234.312 206.883 234.696C206.57 235.08 206.131 235.544 205.566 236.089L204.062 237.619V237.679H207.863V239H201.88ZM215.919 239.166C215.217 239.166 214.615 238.989 214.112 238.634C213.612 238.276 213.227 237.76 212.957 237.087C212.69 236.411 212.557 235.597 212.557 234.645C212.56 233.693 212.694 232.884 212.962 232.216C213.231 231.545 213.616 231.034 214.116 230.682C214.619 230.33 215.22 230.153 215.919 230.153C216.618 230.153 217.219 230.33 217.721 230.682C218.224 231.034 218.609 231.545 218.876 232.216C219.146 232.886 219.281 233.696 219.281 234.645C219.281 235.599 219.146 236.415 218.876 237.091C218.609 237.764 218.224 238.278 217.721 238.634C217.221 238.989 216.621 239.166 215.919 239.166ZM215.919 237.832C216.464 237.832 216.895 237.564 217.21 237.027C217.528 236.487 217.687 235.693 217.687 234.645C217.687 233.952 217.615 233.369 217.47 232.898C217.325 232.426 217.121 232.071 216.856 231.832C216.592 231.591 216.28 231.47 215.919 231.47C215.376 231.47 214.947 231.74 214.632 232.28C214.317 232.817 214.158 233.605 214.155 234.645C214.152 235.341 214.221 235.926 214.364 236.401C214.508 236.875 214.713 237.233 214.977 237.474C215.241 237.713 215.555 237.832 215.919 237.832ZM228.041 234.001V235.271H224.112V234.001H228.041ZM232.702 239V237.858L235.732 234.888C236.022 234.595 236.263 234.335 236.456 234.108C236.65 233.881 236.794 233.661 236.891 233.447C236.988 233.234 237.036 233.007 237.036 232.766C237.036 232.49 236.973 232.254 236.848 232.058C236.723 231.859 236.552 231.706 236.333 231.598C236.114 231.49 235.865 231.436 235.587 231.436C235.3 231.436 235.049 231.496 234.833 231.615C234.617 231.732 234.449 231.898 234.33 232.114C234.213 232.33 234.155 232.587 234.155 232.885H232.651C232.651 232.331 232.777 231.849 233.03 231.44C233.283 231.031 233.631 230.714 234.074 230.49C234.52 230.266 235.032 230.153 235.608 230.153C236.194 230.153 236.708 230.263 237.151 230.482C237.594 230.7 237.938 231 238.182 231.381C238.429 231.761 238.553 232.196 238.553 232.685C238.553 233.011 238.49 233.332 238.365 233.648C238.24 233.963 238.02 234.312 237.705 234.696C237.392 235.08 236.954 235.544 236.388 236.089L234.884 237.619V237.679H238.685V239H232.702ZM246.741 239.166C246.039 239.166 245.437 238.989 244.934 238.634C244.434 238.276 244.049 237.76 243.779 237.087C243.512 236.411 243.379 235.597 243.379 234.645C243.382 233.693 243.517 232.884 243.784 232.216C244.054 231.545 244.439 231.034 244.939 230.682C245.441 230.33 246.042 230.153 246.741 230.153C247.44 230.153 248.041 230.33 248.544 230.682C249.047 231.034 249.431 231.545 249.698 232.216C249.968 232.886 250.103 233.696 250.103 234.645C250.103 235.599 249.968 236.415 249.698 237.091C249.431 237.764 249.047 238.278 248.544 238.634C248.044 238.989 247.443 239.166 246.741 239.166ZM246.741 237.832C247.287 237.832 247.717 237.564 248.032 237.027C248.35 236.487 248.51 235.693 248.51 234.645C248.51 233.952 248.437 233.369 248.292 232.898C248.147 232.426 247.943 232.071 247.679 231.832C247.414 231.591 247.102 231.47 246.741 231.47C246.198 231.47 245.77 231.74 245.454 232.28C245.139 232.817 244.98 233.605 244.977 234.645C244.974 235.341 245.044 235.926 245.186 236.401C245.331 236.875 245.535 237.233 245.799 237.474C246.064 237.713 246.377 237.832 246.741 237.832ZM254.879 239V237.858L257.909 234.888C258.199 234.595 258.44 234.335 258.633 234.108C258.827 233.881 258.971 233.661 259.068 233.447C259.165 233.234 259.213 233.007 259.213 232.766C259.213 232.49 259.15 232.254 259.025 232.058C258.9 231.859 258.729 231.706 258.51 231.598C258.291 231.49 258.043 231.436 257.764 231.436C257.477 231.436 257.226 231.496 257.01 231.615C256.794 231.732 256.626 231.898 256.507 232.114C256.391 232.33 256.332 232.587 256.332 232.885H254.828C254.828 232.331 254.954 231.849 255.207 231.44C255.46 231.031 255.808 230.714 256.251 230.49C256.697 230.266 257.209 230.153 257.785 230.153C258.371 230.153 258.885 230.263 259.328 230.482C259.771 230.7 260.115 231 260.359 231.381C260.606 231.761 260.73 232.196 260.73 232.685C260.73 233.011 260.668 233.332 260.543 233.648C260.418 233.963 260.197 234.312 259.882 234.696C259.57 235.08 259.131 235.544 258.565 236.089L257.061 237.619V237.679H260.862V239H254.879ZM269.242 230.273V239H267.661V231.811H267.61L265.569 233.115V231.666L267.738 230.273H269.242Z" fill="white"/>
<g clip-path="url(#clip1_30845_105702)">
<path d="M136.62 71.6879L132.858 67.6379C130.395 64.9876 129.246 61.3028 129.741 57.6522L130.499 52.0731C131.366 45.6891 127.214 39.7388 121.115 38.6253L115.784 37.6516C112.296 37.0148 109.285 34.7373 107.626 31.4802L105.089 26.5028C102.186 20.8071 95.4682 18.5348 89.9044 21.3659L85.0419 23.8405C81.8602 25.4596 78.1393 25.4596 74.9576 23.8405L70.095 21.3659C64.5313 18.5348 57.813 20.8071 54.9107 26.5028L52.3736 31.4802C50.7142 34.7373 47.703 37.0148 44.2153 37.6516L38.8847 38.6253C32.7853 39.7396 28.6333 45.6891 29.4999 52.0731L30.2576 57.6522C30.7539 61.3028 29.6036 64.9876 27.141 67.6379L23.3782 71.6879C19.0719 76.3216 19.0719 83.6768 23.3782 88.3105L27.141 92.3605C29.6036 95.0108 30.753 98.6948 30.2576 102.346L29.4999 107.925C28.6324 114.309 32.7844 120.26 38.8847 121.373L44.2153 122.347C47.703 122.984 50.7142 125.261 52.3736 128.518L54.9107 133.496C57.813 139.191 64.5313 141.464 70.095 138.632L74.9576 136.158C78.1393 134.539 81.8602 134.539 85.0419 136.158L89.9044 138.632C95.4682 141.464 102.186 139.191 105.089 133.496L107.626 128.518C109.285 125.261 112.296 122.984 115.784 122.347L121.115 121.373C127.214 120.259 131.366 114.309 130.499 107.925L129.741 102.346C129.245 98.6956 130.395 95.0108 132.858 92.3605L136.62 88.3105C140.926 83.6768 140.926 76.3225 136.62 71.6879ZM38.9927 115.286C36.7393 115.286 34.9127 113.384 34.9127 111.038C34.9127 108.692 36.7393 106.79 38.9927 106.79C41.2462 106.79 43.0727 108.692 43.0727 111.038C43.0727 113.384 41.2462 115.286 38.9927 115.286Z" fill="#9F9F9F"/>
<path d="M49.7791 54.0926L48.6554 55.584L52.7114 58.6406L51.9545 59.6434L47.8994 56.5877L46.7911 58.0594L45.9785 57.4474L48.9665 53.4814L49.7791 54.0926Z" fill="white"/>
<path d="M55.3939 53.8232L53.8391 55.3797L54.4305 56.5652L53.4868 57.5097L50.7773 51.5972L51.6002 50.7734L57.5256 53.4674L56.5811 54.412L55.3939 53.8232ZM53.3582 54.4232L54.4356 53.344L52.2791 52.2734L53.3582 54.4232Z" fill="white"/>
<path d="M61.2621 49.838C61.2372 50.1895 61.101 50.5469 60.8524 50.9095C60.6047 51.2729 60.2764 51.6012 59.8701 51.8943C59.4424 52.202 58.9992 52.3803 58.5424 52.4257C58.0847 52.4712 57.6398 52.3803 57.2078 52.1523C56.7767 51.9235 56.3858 51.5695 56.0344 51.0937L55.7927 50.7569C55.4361 50.2632 55.2115 49.7763 55.1172 49.2955C55.0238 48.8146 55.0641 48.3655 55.2398 47.948C55.4155 47.5306 55.7138 47.1706 56.1355 46.8663C56.7218 46.4437 57.2807 46.2517 57.813 46.2937C58.3452 46.3349 58.8338 46.5997 59.2804 47.0909L58.2887 47.8057C58.0392 47.5563 57.7898 47.4209 57.5404 47.402C57.2901 47.3823 57.0287 47.4689 56.7578 47.666C56.4115 47.9163 56.2418 48.236 56.2487 48.6277C56.2547 49.0177 56.4424 49.4712 56.811 49.9872L57.039 50.3017C57.4127 50.8203 57.7941 51.1409 58.1815 51.2643C58.569 51.3869 58.953 51.3115 59.3344 51.0372C59.7167 50.762 59.931 50.4826 59.9755 50.2015L59.361 49.3495L58.4344 50.018L57.8927 49.2672L59.8384 47.864L61.2621 49.838Z" fill="white"/>
<path d="M63.0738 48.6071L65.4404 47.3788L65.9058 48.2745L62.4241 50.0805L59.6152 44.6702L60.7304 44.0908L63.0738 48.6071Z" fill="white"/>
<path d="M67.7014 47.6048L66.5348 48.0694L64.2754 42.4088L65.4411 41.9434L67.7014 47.6048Z" fill="white"/>
<path d="M73.3729 45.9083L72.16 46.2349L68.7554 42.9983L69.7986 46.8709L68.5857 47.1975L67 41.3115L68.2137 40.9849L71.6243 44.2283L70.5786 40.3481L71.7871 40.0215L73.3729 45.9083Z" fill="white"/>
<path d="M77.5979 42.7421L75.2022 43.0155L75.3874 44.6381L78.1988 44.3184L78.3136 45.3195L74.2542 45.7832L73.5625 39.7266L77.6151 39.2646L77.7299 40.2752L74.9262 40.5958L75.0908 42.0401L77.4865 41.7666L77.5979 42.7421Z" fill="white"/>
<path d="M84.4221 44.3507L82.2295 44.1467L81.6955 45.3579L80.3652 45.2327L83.1929 39.375L84.3518 39.483L86.0558 45.7641L84.7264 45.6399L84.4221 44.3507ZM82.6615 43.1644L84.1795 43.3059L83.6284 40.9641L82.6615 43.1644Z" fill="white"/>
<path d="M91.251 45.3483L93.2096 41.3925L94.4148 41.7303L91.4696 47.2357L90.2525 46.8954L90.3948 42.7023L88.3411 46.3614L87.123 46.0211L87.4625 39.7871L88.6676 40.1248L88.2956 44.516L90.4299 40.6177L91.4533 40.904L91.251 45.3483Z" fill="white"/>
<path d="M96.5907 48.1519L94.6081 47.1944L93.6841 48.1424L92.4824 47.5604L97.1787 43.0596L98.227 43.567L97.6287 50.0487L96.4261 49.4667L96.5907 48.1519ZM95.3564 46.4256L96.7296 47.089L97.033 44.701L95.3564 46.4256Z" fill="white"/>
<path d="M101.015 49.7103L100.192 49.1412L98.9243 50.978L97.8906 50.264L101.355 45.248L103.219 46.5355C103.811 46.9452 104.178 47.3926 104.317 47.8786C104.455 48.3646 104.359 48.8489 104.025 49.3315C103.789 49.6735 103.518 49.9075 103.212 50.0326C102.906 50.1586 102.555 50.1869 102.161 50.114L101.83 52.9143L101.797 52.9623L100.687 52.1952L101.015 49.7103ZM100.77 48.3038L101.604 48.8798C101.863 49.0589 102.109 49.1318 102.343 49.0992C102.576 49.0649 102.774 48.9329 102.933 48.7006C103.096 48.464 103.159 48.2309 103.117 48.0029C103.076 47.7749 102.918 47.5649 102.639 47.3729L101.809 46.7995L100.77 48.3038Z" fill="white"/>
<path d="M102.17 53.2919L106.355 48.8613L107.719 50.1496C108.108 50.5165 108.375 50.9339 108.516 51.3993C108.658 51.8656 108.662 52.3422 108.529 52.8282C108.396 53.3142 108.135 53.7642 107.746 54.1756L107.553 54.3796C107.164 54.7902 106.732 55.0765 106.261 55.2376C105.788 55.3988 105.315 55.4219 104.84 55.307C104.364 55.1922 103.932 54.953 103.543 54.5879L102.17 53.2919ZM106.57 50.4633L103.775 53.4213L104.217 53.8379C104.574 54.1765 104.956 54.3162 105.366 54.2622C105.776 54.2073 106.187 53.963 106.601 53.5328L106.822 53.2996C107.248 52.8488 107.477 52.4193 107.51 52.0096C107.542 51.6016 107.38 51.2279 107.02 50.8885L106.57 50.4633Z" fill="white"/>
<path d="M109.215 58.5299C109.401 58.3842 109.494 58.205 109.49 57.995C109.487 57.785 109.407 57.4653 109.25 57.0359C109.092 56.6056 108.99 56.2482 108.942 55.9644C108.81 55.1887 108.995 54.6059 109.494 54.215C109.754 54.0136 110.042 53.9056 110.36 53.8919C110.677 53.879 111 53.9656 111.329 54.1507C111.658 54.3342 111.954 54.5973 112.221 54.9384C112.489 55.2804 112.667 55.6353 112.752 56.0004C112.836 56.3656 112.824 56.711 112.713 57.0359C112.603 57.3624 112.404 57.6376 112.116 57.8622L111.342 56.8739C111.564 56.7016 111.68 56.4984 111.694 56.2644C111.708 56.0313 111.616 55.7879 111.42 55.5376C111.231 55.2959 111.033 55.1476 110.827 55.0927C110.62 55.0387 110.432 55.0764 110.266 55.2076C110.109 55.3302 110.04 55.511 110.058 55.751C110.076 55.9902 110.156 56.2996 110.303 56.6767C110.573 57.3727 110.684 57.9462 110.634 58.3996C110.585 58.853 110.374 59.2259 109.999 59.5182C109.584 59.843 109.135 59.9399 108.654 59.8113C108.171 59.6819 107.722 59.3502 107.306 58.8179C107.017 58.4476 106.823 58.0593 106.72 57.6513C106.618 57.2407 106.622 56.8644 106.734 56.5224C106.844 56.1796 107.055 55.8864 107.364 55.6447L108.14 56.6364C107.61 57.0513 107.592 57.5742 108.087 58.2076C108.271 58.4424 108.462 58.589 108.661 58.6473C108.858 58.7022 109.044 58.6644 109.215 58.5299Z" fill="white"/>
<path d="M60.4749 115.79L56.916 113.601L57.3506 112.896L60.1303 112.137C60.5169 112.028 60.8229 111.911 61.0483 111.793C61.2746 111.672 61.4392 111.527 61.5429 111.359C61.6852 111.129 61.7383 110.913 61.7032 110.707C61.668 110.505 61.542 110.336 61.3252 110.203C61.0929 110.06 60.8597 110.027 60.6266 110.105C60.3943 110.182 60.1972 110.352 60.036 110.614L59.0023 109.978C59.1969 109.663 59.4489 109.419 59.7617 109.251C60.0729 109.083 60.4132 109.009 60.78 109.029C61.1477 109.049 61.506 109.167 61.8549 109.383C62.3897 109.712 62.7266 110.096 62.8646 110.534C63.0034 110.973 62.928 111.427 62.64 111.896C62.4814 112.152 62.2543 112.372 61.9577 112.557C61.6603 112.742 61.242 112.911 60.7003 113.067L58.7546 113.585L60.9866 114.958L60.4749 115.79Z" fill="white"/>
<path d="M66.5425 115.804C66.203 116.575 65.7847 117.095 65.2859 117.364C64.787 117.633 64.2299 117.632 63.6127 117.361C63.005 117.095 62.6287 116.689 62.4822 116.147C62.3365 115.603 62.4247 114.957 62.7453 114.204L63.197 113.177C63.5382 112.398 63.9607 111.877 64.4605 111.616C64.961 111.353 65.5156 111.356 66.1242 111.623C66.7319 111.892 67.109 112.295 67.2556 112.836C67.4022 113.378 67.3139 114.024 66.9933 114.777L66.5425 115.804ZM65.9305 114.189C66.1336 113.726 66.2185 113.361 66.185 113.094C66.1507 112.827 65.999 112.636 65.7316 112.517C65.471 112.403 65.2345 112.42 65.0227 112.565C64.8102 112.712 64.607 112.997 64.4116 113.421L63.8159 114.779C63.6162 115.235 63.5287 115.6 63.5553 115.876C63.5819 116.152 63.7319 116.35 64.0053 116.469C64.2762 116.588 64.5187 116.567 64.7322 116.408C64.9447 116.249 65.1505 115.951 65.3485 115.517L65.9305 114.189Z" fill="white"/>
<path d="M70.9927 119.767L66.9727 118.629L67.1981 117.83L69.6684 116.346C70.0087 116.136 70.2727 115.941 70.4578 115.764C70.6421 115.588 70.7612 115.404 70.8161 115.213C70.8898 114.952 70.8812 114.729 70.7929 114.542C70.7038 114.356 70.5367 114.228 70.2924 114.159C70.0284 114.085 69.7961 114.116 69.5929 114.255C69.3898 114.393 69.2467 114.611 69.1627 114.906L67.9952 114.575C68.0955 114.217 68.2738 113.916 68.5275 113.669C68.7821 113.421 69.0881 113.258 69.4472 113.179C69.8064 113.099 70.1835 113.115 70.5778 113.226C71.1821 113.398 71.6107 113.676 71.8627 114.061C72.1155 114.444 72.1661 114.901 72.0169 115.432C71.9347 115.722 71.7761 115.996 71.5395 116.254C71.3047 116.513 70.9472 116.79 70.4681 117.087L68.7367 118.115L71.2584 118.829L70.9927 119.767Z" fill="white"/>
<path d="M76.8351 118.125C76.7203 118.961 76.4597 119.575 76.0525 119.97C75.6454 120.365 75.1097 120.517 74.4437 120.425C73.7854 120.334 73.3123 120.048 73.0234 119.564C72.7354 119.083 72.6428 118.436 72.7457 117.625L72.8991 116.513C73.0165 115.669 73.2788 115.053 73.6894 114.665C74.1 114.276 74.6331 114.127 75.2905 114.218C75.9497 114.307 76.422 114.595 76.7108 115.075C76.9997 115.556 77.0923 116.202 76.9885 117.013L76.8351 118.125ZM75.804 116.738C75.8734 116.238 75.8563 115.863 75.75 115.616C75.6454 115.369 75.4465 115.225 75.1577 115.185C74.8757 115.146 74.652 115.226 74.4883 115.424C74.3245 115.623 74.2063 115.952 74.1343 116.414L73.932 117.883C73.8634 118.376 73.8797 118.753 73.9825 119.009C74.0828 119.268 74.2817 119.416 74.5765 119.457C74.8705 119.497 75.0968 119.411 75.2597 119.2C75.4208 118.987 75.5365 118.646 75.6077 118.173L75.804 116.738Z" fill="white"/>
<path d="M82.5977 118.201L78.2622 118.243L78.252 117.255L82.5882 117.214L82.5977 118.201Z" fill="white"/>
<path d="M88.3434 119.904L84.2154 120.549L84.0877 119.731L85.712 117.351C85.934 117.016 86.0908 116.73 86.186 116.492C86.2794 116.254 86.3111 116.037 86.2803 115.841C86.2383 115.574 86.138 115.374 85.9785 115.242C85.8191 115.111 85.6151 115.065 85.364 115.103C85.094 115.147 84.8951 115.272 84.7691 115.483C84.6431 115.693 84.6028 115.95 84.6491 116.253L83.45 116.441C83.3934 116.074 83.4285 115.725 83.5563 115.393C83.6831 115.063 83.894 114.787 84.1863 114.564C84.4794 114.342 84.8283 114.199 85.2337 114.136C85.8551 114.039 86.36 114.113 86.7491 114.356C87.14 114.601 87.3765 114.994 87.4623 115.537C87.5094 115.835 87.4794 116.15 87.3731 116.484C87.2668 116.818 87.0594 117.217 86.7483 117.687L85.6048 119.346L88.1943 118.94L88.3434 119.904Z" fill="white"/>
<path d="M92.9552 115.975C93.2003 116.781 93.2218 117.449 93.0169 117.977C92.8138 118.507 92.3903 118.869 91.7466 119.064C91.1115 119.259 90.5612 119.196 90.0975 118.881C89.6338 118.564 89.2781 118.014 89.0321 117.234L88.7055 116.16C88.4578 115.348 88.4381 114.677 88.6481 114.152C88.8572 113.628 89.2798 113.269 89.9158 113.075C90.5518 112.882 91.1012 112.943 91.5649 113.258C92.0278 113.573 92.3835 114.122 92.6295 114.901L92.9552 115.975ZM91.4389 115.147C91.2915 114.664 91.1183 114.331 90.9195 114.152C90.7206 113.97 90.4798 113.923 90.2003 114.008C89.9278 114.092 89.7581 114.258 89.6929 114.506C89.6269 114.756 89.6578 115.104 89.7855 115.555L90.2175 116.974C90.3623 117.449 90.5346 117.783 90.7352 117.975C90.9358 118.167 91.1783 118.218 91.4638 118.132C91.7466 118.045 91.9172 117.872 91.9755 117.613C92.0338 117.353 91.9952 116.993 91.8615 116.535L91.4389 115.147Z" fill="white"/>
<path d="M98.9 116.126L95.0986 117.861L94.7549 117.108L95.6746 114.376C95.798 113.995 95.8726 113.677 95.8992 113.422C95.9258 113.168 95.8983 112.95 95.816 112.77C95.7029 112.525 95.552 112.358 95.3643 112.274C95.1749 112.19 94.9649 112.202 94.7343 112.307C94.4858 112.421 94.3289 112.596 94.2638 112.832C94.1986 113.07 94.2295 113.327 94.3563 113.606L93.2523 114.11C93.098 113.773 93.038 113.428 93.0715 113.076C93.1058 112.723 93.2326 112.4 93.4546 112.106C93.6766 111.812 93.974 111.581 94.3478 111.41C94.9186 111.149 95.4252 111.083 95.8658 111.213C96.308 111.344 96.6423 111.659 96.8703 112.159C96.9955 112.432 97.0529 112.745 97.0392 113.094C97.0272 113.443 96.9355 113.886 96.7632 114.422L96.1092 116.327L98.4937 115.238L98.9 116.126Z" fill="white"/>
<path d="M102.657 113.843L101.637 114.494L99.1299 110.561L98.1519 111.717L97.623 110.886L99.2653 108.767L99.375 108.696L102.657 113.843Z" fill="white"/>
<path fill-rule="evenodd" clip-rule="evenodd" d="M103.696 109.299C104.699 110.196 107.271 109.613 108.809 108.623C107.699 108.151 105.634 108.05 104.209 108.969L103.696 109.299L104.085 108.832C105.165 107.53 105.298 105.483 104.951 104.336C103.785 105.739 102.912 108.209 103.696 109.299ZM106.544 106.73L106.882 106.226C107.825 104.824 107.749 102.773 107.288 101.666C106.27 103.181 105.651 105.725 106.544 106.73L107.019 106.35C108.344 105.294 110.408 105.188 111.561 105.545C110.132 106.686 107.632 107.523 106.544 106.73ZM109.115 103.891C110.279 104.57 112.682 103.487 113.989 102.212C112.806 101.971 110.762 102.283 109.551 103.466L109.115 103.891C108.126 102.979 108.483 100.386 109.342 98.7791C109.914 99.8334 110.198 101.866 109.402 103.355L109.115 103.891ZM111.386 100.809C112.612 101.369 114.893 100.052 116.064 98.6514C114.863 98.5297 112.861 99.0448 111.776 100.343L111.386 100.809L111.616 100.248C112.257 98.6865 111.769 96.6937 111.092 95.7002C110.401 97.3854 110.308 100.001 111.386 100.809ZM113.332 97.5165C114.61 97.9502 116.746 96.4125 117.769 94.9022C116.561 94.9014 114.621 95.6128 113.673 97.0125L113.332 97.5165C112.178 96.8205 112.005 94.2088 112.522 92.4628C113.295 93.3834 113.984 95.318 113.504 96.9337L113.332 97.5165ZM114.934 94.0451C116.25 94.3502 118.219 92.6068 119.083 91.0022C117.882 91.1214 116.023 92.024 115.222 93.5111L114.934 94.0451C113.716 93.4682 113.278 90.8882 113.616 89.1002C114.479 89.9377 115.36 91.7934 115.047 93.4502L114.934 94.0451ZM116.177 90.434C117.517 90.6045 119.299 88.6734 119.996 86.9917C118.812 87.23 117.055 88.3134 116.409 89.8717L116.177 90.434C114.906 89.9814 114.208 87.4571 114.363 85.6442C115.306 86.3917 116.372 88.1505 116.228 89.8288L116.177 90.434ZM117.047 86.7148C118.397 86.7517 119.975 84.6525 120.497 82.9082C119.343 83.2648 117.705 84.518 117.221 86.1337L117.047 86.7148C115.736 86.3917 114.787 83.9505 114.756 82.1325C115.771 82.7814 117.009 84.4245 117.037 86.1088L117.047 86.7148ZM117.535 82.9288C118.882 82.8311 120.238 80.5845 120.582 78.7982C119.471 79.268 117.968 80.678 117.649 82.334L117.535 82.9288C116.198 82.7385 115.004 80.4045 114.79 78.5994C115.865 79.1437 117.264 80.6531 117.463 82.3262L117.535 82.9288ZM117.636 79.1145L117.503 78.5231C117.135 76.8782 115.59 75.5154 114.465 75.0817C114.862 76.856 116.287 79.058 117.636 79.1145L117.689 78.5111C117.837 76.8311 119.19 75.2788 120.248 74.7011C120.088 76.5122 118.966 78.8822 117.636 79.1145ZM117.35 75.3097C118.65 74.9445 119.526 72.476 119.501 70.6571C118.507 71.3377 117.319 73.0185 117.342 74.7028L117.35 75.3097C116.001 75.3885 114.361 73.34 113.786 71.6145C114.95 71.9334 116.625 73.1351 117.158 74.7345L117.35 75.3097ZM116.678 71.552C117.934 71.0591 118.556 68.516 118.346 66.71C117.426 67.4865 116.414 69.2771 116.608 70.9511L116.678 71.552C115.345 71.7662 113.504 69.8917 112.756 68.2322C113.947 68.4345 115.736 69.4614 116.428 70.9991L116.678 71.552Z" fill="white"/>
<path fill-rule="evenodd" clip-rule="evenodd" d="M56.3689 109.318C55.3652 110.216 52.7938 109.635 51.2569 108.646C52.3678 108.174 54.4326 108.071 55.8563 108.988L56.3689 109.318L55.9806 108.851C54.9006 107.55 54.7703 105.503 55.1183 104.356C56.2832 105.759 57.1549 108.228 56.3689 109.318ZM53.5249 106.753C52.4355 107.546 49.9361 106.712 48.5072 105.572C49.6592 105.214 51.7249 105.318 53.0483 106.373L53.5249 106.753C54.4172 105.746 53.8009 103.202 52.7843 101.69C52.3223 102.797 52.2443 104.847 53.1863 106.249L53.5249 106.753ZM50.9552 103.916C49.7912 104.595 47.3895 103.515 46.0841 102.24C47.2669 101.998 49.3112 102.308 50.5206 103.49L50.9552 103.916C51.9461 103.003 51.5903 100.411 50.7323 98.8045C50.1598 99.8596 49.8743 101.892 50.6689 103.38L50.9552 103.916ZM48.6872 100.835C47.4598 101.396 45.1806 100.081 44.0115 98.6819C45.2123 98.5593 47.2146 99.0728 48.2981 100.37L48.6872 100.835L48.4566 100.274C47.8172 98.7128 48.3083 96.7208 48.9838 95.7265C49.6746 97.4108 49.7646 100.026 48.6872 100.835ZM46.7432 97.5445L46.5718 96.9625C46.0943 95.3468 46.7835 93.4113 47.5575 92.4908C48.0735 94.235 47.8978 96.8468 46.7432 97.5445L46.4029 97.0405C45.4566 95.6425 43.5169 94.9328 42.3101 94.9336C43.3309 96.4422 45.4652 97.979 46.7432 97.5445ZM45.1438 94.0739C43.8281 94.3799 41.8609 92.6382 40.9978 91.0345C42.1995 91.1528 44.0569 92.0536 44.8566 93.5399L45.1438 94.0739C46.3626 93.4953 46.8023 90.9153 46.4672 89.1282C45.6041 89.9665 44.7212 91.8222 45.0323 93.479L45.1438 94.0739ZM43.9043 90.4636L43.8529 89.8593C43.7115 88.181 44.7778 86.4213 45.7223 85.673C45.8749 87.485 45.1755 90.0102 43.9043 90.4636L43.6721 89.9022C43.0275 88.3439 41.2721 87.2622 40.0883 87.0248C40.7835 88.7065 42.5646 90.6359 43.9043 90.4636ZM43.0378 86.7462L43.0481 86.1402C43.0772 84.455 44.3175 82.8119 45.3323 82.1613C45.3006 83.9793 44.3492 86.4213 43.0378 86.7462L42.8638 86.165C42.3812 84.5502 40.7432 83.2979 39.5903 82.9422C40.1115 84.6856 41.6878 86.7839 43.0378 86.7462ZM42.5535 82.9602C41.2061 82.8633 39.8518 80.6185 39.5098 78.8313C40.6206 79.3002 42.1223 80.7093 42.4395 82.3653L42.5535 82.9602C43.8906 82.769 45.0855 80.4342 45.3015 78.629C44.2258 79.1742 42.8261 80.6845 42.6255 82.3576L42.5535 82.9602ZM42.4558 79.1459C41.1246 78.9145 40.0052 76.5453 39.8475 74.7342C40.9043 75.311 42.2561 76.8625 42.4026 78.5425L42.4558 79.1459C43.8049 79.0885 45.2312 76.8856 45.6289 75.1105C44.5035 75.545 42.9572 76.9088 42.5878 78.5545L42.4558 79.1459ZM42.7446 75.341C41.4452 74.9768 40.5709 72.509 40.5983 70.6902C41.5918 71.3708 42.7781 73.049 42.7541 74.7342L42.7446 75.341C44.0929 75.419 45.7352 73.3688 46.3121 71.6425C45.1481 71.9622 43.4715 73.1656 42.9366 74.765L42.7446 75.341ZM43.4192 71.5825L43.6686 71.0296C44.3621 69.491 46.1526 68.4625 47.3423 68.2593C46.5941 69.9205 44.7529 71.795 43.4192 71.5825L43.4895 70.9816C43.6849 69.3076 42.6752 67.5179 41.7546 66.7422C41.5446 68.5482 42.1635 71.0913 43.4192 71.5825Z" fill="white"/>
<path fill-rule="evenodd" clip-rule="evenodd" d="M116.162 69.1514L116.189 68.5437C116.267 66.8526 115.137 65.1211 114.17 64.3994C114.087 66.2234 114.88 68.7357 116.162 69.1514Z" fill="white"/>
<path fill-rule="evenodd" clip-rule="evenodd" d="M43.9843 69.1514L43.9569 68.5437C43.8797 66.8526 45.0094 65.1211 45.9763 64.3994C46.0594 66.2234 45.2666 68.7357 43.9843 69.1514Z" fill="white"/>
<path d="M61.816 82.2434C61.816 81.8165 61.6635 81.4882 61.36 81.2611C61.0566 81.0314 60.5098 80.7914 59.7195 80.5377C58.9292 80.284 58.3035 80.0345 57.8432 79.7877C56.5866 79.1148 55.9592 78.208 55.9592 77.068C55.9592 76.4757 56.1272 75.9468 56.464 75.4822C56.8018 75.0177 57.2852 74.6551 57.9152 74.3937C58.5452 74.1322 59.254 74.002 60.0392 74.002C60.8295 74.002 61.5332 74.1442 62.1512 74.428C62.7692 74.7117 63.2492 75.112 63.5912 75.6297C63.9332 76.1474 64.1046 76.7345 64.1046 77.3928H61.8255C61.8255 76.8905 61.6652 76.4997 61.3463 76.2211C61.0275 75.9425 60.5783 75.8028 60.0015 75.8028C59.4452 75.8028 59.0115 75.9194 58.702 76.1534C58.3926 76.3874 58.2392 76.6942 58.2392 77.0765C58.2392 77.4331 58.42 77.7322 58.7826 77.9731C59.1443 78.214 59.6775 78.4402 60.3812 78.6511C61.678 79.0377 62.6226 79.5177 63.2158 80.0902C63.8089 80.6628 64.1046 81.376 64.1046 82.2297C64.1046 83.1785 63.742 83.9242 63.0178 84.4625C62.2926 85.0034 61.3189 85.2725 60.0923 85.2725C59.242 85.2725 58.4672 85.1182 57.7678 84.8088C57.0692 84.5011 56.5352 84.0768 56.1683 83.5402C55.8015 83.0028 55.6172 82.3797 55.6172 81.6717H57.904C57.904 82.882 58.6343 83.4871 60.0923 83.4871C60.6349 83.4871 61.0575 83.3774 61.3609 83.1597C61.6635 82.9402 61.816 82.6351 61.816 82.2434Z" fill="white"/>
<path d="M68.0682 85.1212H65.7891V74.1523H68.0682V85.1212Z" fill="white"/>
<path d="M72.4597 83.3049H77.2991V85.1203H70.1797V74.1523H72.4588L72.4597 83.3049Z" fill="white"/>
<path d="M81.1266 82.4015L83.6338 74.1523H86.1718L82.3198 85.1212H79.942L76.1055 74.1523H78.6349L81.1266 82.4015Z" fill="white"/>
<path d="M93.8697 80.3675H89.494V83.3058H94.63V85.1212H87.2148V74.1523H94.6154V75.9832H89.494V78.5975H93.8697V80.3675Z" fill="white"/>
<path d="M100.061 81.1055H98.2459V85.1212H95.9668V74.1523H100.077C101.384 74.1523 102.392 74.4412 103.101 75.0189C103.81 75.5966 104.165 76.4126 104.165 77.4669C104.165 78.2152 104.001 78.8392 103.674 79.3389C103.348 79.8386 102.852 80.2363 102.19 80.5329L104.583 85.0149V85.1203H102.137L100.061 81.1055ZM98.2459 79.2746H100.085C100.657 79.2746 101.101 79.1306 101.415 78.8418C101.729 78.5529 101.886 78.1552 101.886 77.6478C101.886 77.1301 101.738 76.7238 101.441 76.4272C101.145 76.1306 100.69 75.9823 100.077 75.9823H98.2459V79.2746Z" fill="white"/>
</g>
</g>
<defs>
<clipPath id="clip0_30845_105702">
<rect width="360" height="360" fill="white"/>
</clipPath>
<clipPath id="clip1_30845_105702">
<rect width="120" height="120" fill="white" transform="translate(20 20)"/>
</clipPath>
</defs>
</svg>
