<?xml version="1.0" encoding="UTF-8"?>
<svg id="Layer_1" xmlns="http://www.w3.org/2000/svg" xmlns:xlink="http://www.w3.org/1999/xlink" version="1.1" viewBox="0 0 140 140">
  <!-- Generator: Adobe Illustrator 29.1.0, SVG Export Plug-In . SVG Version: 2.1.0 Build 142)  -->
  <defs>
    <style>
      .st0, .st1 {
        fill: none;
      }

      .st2 {
        fill-rule: evenodd;
      }

      .st2, .st3 {
        fill: #fff;
      }

      .st4 {
        clip-path: url(#clippath-1);
      }

      .st1 {
        clip-rule: evenodd;
      }

      .st5 {
        fill: #9f9f9f;
      }

      .st6 {
        clip-path: url(#clippath);
      }
    </style>
    <clipPath id="clippath">
      <polygon class="st1" points="45.492 115.515 54.995 111.513 51.994 103.511 48.493 66.554 32.562 55.25 28.25 56.875 24.875 51.063 8.48 79.003 45.492 115.515"/>
    </clipPath>
    <clipPath id="clippath-1">
      <polygon class="st1" points="86.005 61.053 106.062 54.313 111.875 56.875 122.562 44.438 120.516 71.5 112.514 99.509 92.007 115.515 85.005 111.513 88.006 102.51 86.005 61.053"/>
    </clipPath>
  </defs>
  <path class="st5" d="M136.058,60.303l-4.39-4.725c-2.873-3.092-4.214-7.391-3.636-11.65l.884-6.509c1.012-7.448-3.832-14.39-10.948-15.689l-6.219-1.136c-4.069-.743-7.582-3.4-9.518-7.2l-2.96-5.807c-3.386-6.645-11.224-9.296-17.715-5.993l-5.673,2.887c-3.712,1.889-8.053,1.889-11.765,0l-5.673-2.887c-6.491-3.304-14.329-.652-17.715,5.993l-2.96,5.807c-1.936,3.8-5.449,6.457-9.518,7.2l-6.219,1.136c-7.116,1.3-11.96,8.241-10.949,15.689l.884,6.509c.579,4.259-.763,8.558-3.636,11.65l-4.39,4.725c-5.024,5.406-5.024,13.987,0,19.393l4.39,4.725c2.873,3.092,4.214,7.39,3.636,11.65l-.884,6.509c-1.012,7.448,3.832,14.39,10.949,15.689l6.219,1.136c4.069.743,7.582,3.4,9.518,7.2l2.96,5.807c3.386,6.645,11.224,9.296,17.715,5.993l5.673-2.887c3.712-1.889,8.053-1.889,11.765,0l5.673,2.887c6.491,3.304,14.329.652,17.715-5.993l2.96-5.807c1.936-3.8,5.449-6.457,9.518-7.2l6.219-1.136c7.116-1.3,11.96-8.241,10.948-15.689l-.884-6.509c-.579-4.259.763-8.558,3.636-11.65l4.39-4.725c5.023-5.406,5.023-13.987,0-19.393ZM22.159,111.167c-2.629,0-4.76-2.219-4.76-4.956s2.131-4.956,4.76-4.956,4.76,2.219,4.76,4.956-2.131,4.956-4.76,4.956Z"/>
  <g>
    <path class="st3" d="M48.303,72.588c0-.449-.16-.799-.481-1.05-.32-.251-.884-.511-1.689-.779-.807-.269-1.465-.528-1.977-.779-1.666-.811-2.498-1.925-2.498-3.343,0-.706.207-1.329.622-1.868s1.002-.959,1.761-1.26c.759-.3,1.612-.451,2.56-.451.924,0,1.752.164,2.484.49s1.302.792,1.707,1.396c.406.604.609,1.293.609,2.069h-3.089c0-.519-.16-.922-.48-1.208-.321-.286-.755-.429-1.302-.429-.554,0-.99.121-1.311.363-.321.242-.481.55-.481.923,0,.327.177.623.529.888.354.266.974.54,1.862.823.889.283,1.618.588,2.188.915,1.389.793,2.083,1.887,2.083,3.281,0,1.114-.424,1.989-1.271,2.625-.848.637-2.01.954-3.486.954-1.041,0-1.984-.185-2.828-.556-.845-.37-1.48-.878-1.906-1.522-.427-.645-.641-1.387-.641-2.228h3.106c0,.683.179,1.187.534,1.51.356.324.935.486,1.734.486.512,0,.916-.109,1.214-.328.297-.22.445-.527.445-.924Z"/>
    <path class="st3" d="M56.29,75.975h-3.089v-12.741h3.089v12.741Z"/>
    <path class="st3" d="M61.541,73.612h5.393v2.362h-8.49v-12.741h3.098v10.379Z"/>
    <path class="st3" d="M71.407,72.509l2.56-9.275h3.459l-4.324,12.741h-3.389l-4.289-12.741h3.433l2.551,9.275Z"/>
    <path class="st3" d="M86.331,70.566h-4.872v3.046h5.754v2.362h-8.852v-12.741h8.869v2.372h-5.771v2.687h4.872v2.275Z"/>
    <path class="st3" d="M93.25,71.468h-1.677v4.507h-3.098v-12.741h5.057c1.524,0,2.716.335,3.574,1.005.859.67,1.289,1.617,1.289,2.841,0,.886-.181,1.62-.543,2.203-.361.583-.928,1.055-1.699,1.416l2.684,5.144v.132h-3.318l-2.269-4.507ZM91.573,69.105h1.959c.589,0,1.031-.153,1.328-.46.298-.307.446-.735.446-1.285s-.15-.981-.45-1.294-.741-.469-1.324-.469h-1.959v3.509Z"/>
  </g>
  <g>
    <circle class="st0" cx="70" cy="70" r="40.407"/>
    <path class="st3" d="M34.738,39.984l-1.274,1.712,4.64,3.458-1.024,1.375-4.641-3.458-1.252,1.68-1.062-.791,3.552-4.767,1.062.791Z"/>
    <path class="st3" d="M41.218,39.727l-1.655,1.668.653,1.227-1.29,1.299-3.21-6.86,1.137-1.145,6.897,3.146-1.297,1.306-1.235-.641ZM38.912,40.17l1.077-1.085-2.291-1.193,1.214,2.278Z"/>
    <path class="st3" d="M48.173,34.806c-.041.392-.215.809-.522,1.252-.307.443-.705.842-1.195,1.197-.755.546-1.524.751-2.31.615-.785-.134-1.491-.603-2.119-1.402l-.364-.496c-.411-.567-.669-1.136-.774-1.703-.105-.569-.055-1.102.153-1.601s.558-.925,1.048-1.279c.719-.52,1.395-.76,2.029-.718s1.221.364,1.758.969l-1.337.967c-.281-.288-.55-.442-.808-.466-.257-.021-.531.071-.821.281-.349.252-.511.595-.486,1.026.023.435.232.926.627,1.477l.252.349c.416.574.827.936,1.232,1.082.405.147.819.067,1.241-.238.361-.261.573-.536.633-.825l-.647-.895-.965.698-.69-.952,2.355-1.704,1.711,2.366Z"/>
    <path class="st3" d="M50.233,33.229l2.646-1.381.61,1.169-4.165,2.175-3.291-6.305,1.521-.793,2.68,5.135Z"/>
    <path class="st3" d="M55.731,32.172l-1.587.635-2.642-6.604,1.588-.635,2.641,6.604Z"/>
    <path class="st3" d="M62.345,30.205l-1.646.443-3.584-3.616,1.15,4.271-1.655.446-1.85-6.866,1.655-.446,3.58,3.619-1.15-4.272,1.65-.446,1.85,6.867Z"/>
    <path class="st3" d="M67.222,26.594l-2.678.307.193,1.688,3.164-.363.15,1.31-4.868.559-.811-7.063,4.877-.561.151,1.315-3.174.364.171,1.489,2.679-.308.145,1.263Z"/>
    <path class="st3" d="M75.033,28.536l-2.339-.218-.533,1.284-1.823-.17,3.259-6.837,1.605.148,1.954,7.326-1.834-.172-.289-1.362ZM73.226,27.038l1.522.143-.534-2.527-.988,2.385Z"/>
    <path class="st3" d="M83.192,28.968l1.986-4.076,1.637.458-3.369,6.442-1.712-.479.175-4.16-1.99,3.651-1.708-.477.458-7.257,1.642.459-.416,4.515,2.142-4.032,1.402.393-.246,4.562Z"/>
    <path class="st3" d="M89.222,32.934l-2.115-1.023-.947,1.016-1.648-.798,5.447-5.264,1.45.702-.735,7.547-1.656-.803.205-1.377ZM88.054,30.897l1.376.667.384-2.554-1.76,1.887Z"/>
    <path class="st3" d="M94.471,34.735l-.761-.53-1.438,2.064-1.406-.979,4.063-5.837,2.297,1.601c.692.481,1.126,1.012,1.302,1.591.177.578.07,1.147-.32,1.708-.282.406-.599.686-.949.838-.35.152-.758.189-1.223.111l-.423,3.204-.042.061-1.508-1.05.407-2.781ZM94.464,33.123l.889.62c.268.186.518.255.751.208.233-.046.437-.195.612-.447.175-.252.244-.497.208-.735s-.187-.448-.451-.633l-.89-.621-1.119,1.608Z"/>
    <path class="st3" d="M95.971,38.923l4.911-5.145,1.656,1.581c.455.435.765.928.931,1.48.166.552.172,1.112.018,1.684-.155.57-.455,1.09-.897,1.559l-.226.236c-.45.471-.952.798-1.507.981-.557.183-1.115.208-1.678.074-.562-.135-1.068-.413-1.516-.836l-1.692-1.615ZM101.208,35.919l-3.086,3.233.431.412c.355.339.749.473,1.182.402.433-.071.888-.356,1.364-.856l.212-.223c.476-.496.736-.962.786-1.396.051-.434-.107-.826-.473-1.174l-.416-.398Z"/>
    <path class="st3" d="M104.13,44.981c.198-.153.299-.344.301-.569.003-.226-.073-.562-.228-1.006s-.263-.822-.325-1.132c-.205-1.006.005-1.751.631-2.234.312-.24.657-.363,1.036-.365.379-.003.763.11,1.152.341.39.229.744.552,1.065.968.312.403.521.822.624,1.255.104.432.091.841-.038,1.224-.13.384-.365.709-.708.973l-1.046-1.353c.229-.176.353-.385.371-.622.018-.238-.066-.478-.252-.717-.187-.241-.389-.393-.604-.449-.216-.058-.405-.024-.57.104-.145.112-.215.291-.213.535.002.246.091.611.267,1.096.176.486.288.91.337,1.271.12.879-.128,1.557-.744,2.032-.492.381-1.022.493-1.59.339-.568-.154-1.102-.554-1.602-1.2-.352-.457-.589-.932-.711-1.429-.122-.496-.113-.948.027-1.355.14-.406.396-.752.767-1.039l1.051,1.359c-.301.234-.463.483-.485.75-.022.266.102.574.372.925.173.225.358.364.556.42.197.055.384.016.559-.12Z"/>
  </g>
  <g>
    <circle class="st0" cx="70" cy="70" r="47.503"/>
    <path class="st3" d="M62.962,117.051l-4.862-.994.215-1.053,2.722-1.896c.68-.516,1.059-.959,1.135-1.328.061-.301.042-.542-.057-.725-.1-.184-.273-.301-.521-.351-.246-.05-.467.013-.663.19-.195.177-.325.423-.39.735l-1.617-.331c.088-.426.275-.801.562-1.118.288-.318.643-.541,1.064-.667.421-.127.866-.142,1.335-.047.753.154,1.298.447,1.634.878.335.431.437.972.304,1.622-.057.275-.162.531-.317.77-.155.24-.37.48-.644.722-.273.242-.699.554-1.274.933l-1.113.855,2.742.561-.254,1.244Z"/>
    <path class="st3" d="M69.746,114.671c-.058.96-.319,1.686-.78,2.18-.463.493-1.086.716-1.869.669-.79-.05-1.385-.349-1.785-.897-.4-.55-.571-1.301-.514-2.254l.08-1.296c.058-.959.318-1.686.78-2.18.463-.492,1.087-.715,1.874-.668.786.048,1.379.348,1.78.897.399.549.571,1.302.513,2.257l-.079,1.292ZM68.195,113.065c.031-.51-.013-.896-.13-1.156-.118-.26-.321-.398-.611-.415-.282-.019-.495.087-.638.312s-.233.575-.272,1.051l-.11,1.813c-.032.529.011.921.13,1.175.117.254.321.389.61.406.279.017.493-.09.641-.32.148-.23.239-.601.274-1.11l.106-1.756Z"/>
    <path class="st3" d="M76.22,117.159l-4.947.396-.085-1.07,2.087-2.578c.511-.684.751-1.215.721-1.591-.024-.306-.11-.533-.256-.681-.146-.148-.345-.212-.598-.192-.25.02-.444.143-.584.368-.139.225-.195.496-.17.814l-1.646.132c-.034-.436.042-.846.23-1.231.188-.386.467-.697.836-.937.37-.238.793-.378,1.271-.415.766-.062,1.37.067,1.812.39.441.32.689.812.742,1.475.022.278-.008.554-.09.827-.084.272-.223.563-.418.871-.196.309-.519.725-.967,1.25l-.83,1.13,2.789-.223.102,1.266Z"/>
    <path class="st3" d="M81.509,113.248l.706-.157.276,1.24-.706.158.328,1.472-1.606.358-.328-1.474-2.685.598-.313-.961,1.783-5.091-.003-.014,1.606-.358.941,4.229ZM78.653,113.883l1.249-.277-.476-2.135-.063.183-.71,2.229Z"/>
  </g>
  <g class="st6">
    <path class="st2" d="M88.258,30.05c-.761,1.37-3.82,1.703-5.896,1.195,1.043-.941,3.281-1.837,5.204-1.365l.692.17-.608-.369c-1.69-1.023-2.623-3.231-2.681-4.627,1.824,1.105,3.736,3.496,3.289,4.995h0ZM70.045,112.892h0c.652,0,1.179.523,1.179,1.17s-.528,1.169-1.18,1.17-1.179-.523-1.179-1.169c0-.647.528-1.171,1.18-1.171h0ZM85.637,28.836h0l-.537-.464c-1.493-1.292-3.896-1.509-5.256-1.145,1.611,1.394,4.485,2.483,5.792,1.608h0ZM54.609,28.849h0c1.307.874,4.182-.218,5.794-1.613-1.36-.363-3.763-.145-5.257,1.149l-.537.464h0ZM67.011,114.078h0c-.362,1.521-3.219,2.659-5.357,2.722.75-1.184,2.664-2.643,4.645-2.702l.712-.02c.025-1.564-2.464-3.358-4.521-3.936.435,1.329,1.929,3.207,3.836,3.744l.685.192h0ZM62.564,113.49h0c.184-1.553-2.11-3.587-4.098-4.367.297,1.365,1.593,3.383,3.436,4.106l.662.261-.711-.051c-1.976-.139-4.028,1.121-4.895,2.223,2.133.152,5.091-.695,5.606-2.172h0ZM58.199,112.462h0c-.663,1.418-3.691,1.965-5.798,1.6.974-1.011,3.143-2.058,5.095-1.723l.702.122c.34-1.527-1.736-3.781-3.633-4.755.156,1.389,1.242,3.526,3,4.429l.633.326h0ZM53.962,111.002h0c.493-1.486-1.343-3.935-3.132-5.094.015,1.398.877,3.632,2.536,4.707l.596.387-.685-.191c-1.908-.531-4.172.297-5.244,1.205,2.058.572,5.127.332,5.93-1.014h0ZM49.893,109.125h0c-.936,1.26-4.012,1.192-6.002.418,1.158-.797,3.495-1.393,5.34-.676l.663.259c.642-1.428-.937-4.049-2.599-5.381-.127,1.392.504,3.701,2.045,4.937l.554.444h0ZM46.037,106.852h0c.784-1.357-.521-4.121-2.039-5.614-.268,1.372.126,3.734,1.533,5.116l.505.498-.633-.322c-1.761-.9-4.147-.54-5.38.138,1.901.97,4.954,1.343,6.013.184h0ZM42.431,104.205h0c-1.171,1.048-4.171.37-5.964-.784,1.296-.551,3.705-.671,5.366.399l.597.385-.452-.545c-1.26-1.518-1.412-3.906-1.006-5.244,1.359,1.636,2.376,4.517,1.459,5.789h0ZM39.113,101.212c-1.271.926-4.187-.048-5.854-1.377,1.344-.418,3.754-.297,5.298.934l.556.442c1.041-1.175.322-4.142-.864-5.907-.539,1.292-.63,3.684.469,5.319l.395.588h0ZM36.115,97.902h0c-1.358.793-4.16-.467-5.683-1.955,1.38-.282,3.765.08,5.176,1.459l.507.496c1.156-1.065.741-4.089-.26-5.963-.668,1.231-1.001,3.602-.074,5.338l.333.625h0ZM33.469,94.308h0c-1.432.655-4.091-.88-5.455-2.512,1.401-.143,3.737.456,5.001,1.969l.454.544-.268-.654c-.746-1.822-.173-4.146.615-5.306.805,1.965.91,5.017-.347,5.96h0ZM31.201,90.469h0l-.2-.679c-.557-1.885.247-4.143,1.15-5.217.602,2.036.397,5.083-.95,5.896l-.397-.588c-1.104-1.631-3.367-2.459-4.775-2.458,1.191,1.76,3.682,3.552,5.172,3.045h0ZM29.335,86.42h0c-1.535.357-3.83-1.675-4.837-3.546,1.402.138,3.569,1.189,4.502,2.923l.335.623c1.422-.675,1.935-3.685,1.544-5.77-1.007.978-2.037,3.143-1.674,5.076l.13.694h0ZM27.889,82.208h0l-.06-.705c-.165-1.958,1.079-4.011,2.181-4.884.178,2.115-.638,5.06-2.121,5.589l-.271-.655c-.752-1.818-2.8-3.08-4.181-3.357.811,1.962,2.889,4.213,4.452,4.012h0ZM26.878,77.871l.012-.707c.034-1.966,1.481-3.883,2.665-4.642-.037,2.121-1.148,4.97-2.677,5.348l-.203-.678c-.563-1.884-2.474-3.345-3.819-3.76.608,2.034,2.446,4.482,4.022,4.438h0ZM26.313,73.454h0c-1.572-.113-3.152-2.732-3.551-4.817,1.296.547,3.048,2.191,3.418,4.123l.133.694c1.56-.223,2.954-2.947,3.206-5.053-1.255.636-2.888,2.398-3.122,4.35l-.084.703h0ZM26.199,69.004c-1.553-.27-2.859-3.034-3.043-5.147,1.233.673,2.81,2.483,2.981,4.443l.062.704c1.574-.067,3.238-2.637,3.702-4.708-1.313.507-3.117,2.098-3.548,4.018l-.154.69h0ZM26.536,64.565h0c-1.516-.425-2.536-3.304-2.504-5.426,1.159.794,2.543,2.752,2.515,4.718l-.01.708c1.573.091,3.489-2.301,4.162-4.315-1.358.373-3.314,1.777-3.938,3.643l-.225.672h0ZM27.323,60.18l.291-.645c.809-1.795,2.898-2.995,4.286-3.232-.874,1.937-3.022,4.125-4.578,3.877l.082-.701c.228-1.953-.95-4.041-2.024-4.946-.245,2.107.476,5.074,1.942,5.648h0ZM28.551,55.898c-1.4-.717-1.817-3.742-1.358-5.815.975,1.009,1.936,3.204,1.511,5.124l-.153.692c1.522.401,3.882-1.561,4.948-3.401-1.405.096-3.605,1.082-4.592,2.787l-.355.614h0ZM30.207,51.758h0c-1.32-.854-1.428-3.905-.761-5.921.868,1.1,1.601,3.381.983,5.249l-.222.672c1.474.552,4.02-1.165,5.268-2.89-1.408-.044-3.696.717-4.852,2.314l-.416.575h0ZM32.275,47.805h0c1.41.697,4.117-.757,5.533-2.348-1.396-.186-3.75.343-5.062,1.818l-.472.53.289-.647c.804-1.797.306-4.139-.446-5.321-.867,1.94-1.07,4.986.157,5.967h0ZM34.732,44.079h0c-1.12-1.099-.609-4.11.451-5.954.628,1.251.886,3.631-.097,5.338l-.353.615.523-.48c1.454-1.336,3.849-1.627,5.219-1.304-1.57,1.442-4.41,2.618-5.743,1.784h0ZM37.556,40.616h0l.569-.427c1.583-1.184,3.995-1.233,5.325-.775-1.708,1.279-4.653,2.164-5.894,1.202l.414-.577c1.15-1.601,1.136-3.995.638-5.302-1.241,1.729-2.056,4.674-1.052,5.879h0ZM40.717,37.453h0c-.876-1.299.233-4.148,1.643-5.744.362,1.35.134,3.734-1.173,5.212l-.47.532c1.137,1.082,4.158.495,5.986-.605-1.277-.59-3.682-.781-5.377.239l-.61.367h0ZM44.183,34.621h0c-.74-1.38.652-4.104,2.217-5.55.224,1.38-.246,3.728-1.696,5.069l-.521.482.643-.304c1.79-.846,4.162-.416,5.373.299-1.931.912-4.996,1.195-6.017.005h0ZM47.917,32.15l.671-.238c1.866-.662,4.183.002,5.315.834-2.014.715-5.091.69-5.986-.596l.567-.428c1.579-1.189,2.284-3.479,2.202-4.874-1.704,1.284-3.365,3.855-2.769,5.302h0ZM51.883,30.065h0c-.446-1.499,1.467-3.892,3.293-4.998-.06,1.395-.994,3.604-2.685,4.629l-.608.369.692-.17c1.924-.474,4.161.421,5.203,1.361-2.077.51-5.135.178-5.895-1.19h0ZM73.058,114.075h0c.361,1.52,3.217,2.656,5.355,2.718-.749-1.184-2.662-2.641-4.643-2.698l-.712-.02c-.024-1.564,2.467-3.36,4.524-3.94-.435,1.329-1.932,3.208-3.839,3.747l-.685.193h0ZM77.506,113.484c-.183-1.553,2.113-3.588,4.102-4.371-.298,1.366-1.597,3.384-3.439,4.109l-.662.262.711-.052c1.976-.141,4.028,1.118,4.893,2.219-2.133.154-5.09-.691-5.604-2.167h0ZM81.871,112.452l.633-.327c1.76-.905,2.846-3.042,3.005-4.432-1.899.976-3.976,3.232-3.637,4.758l.702-.123c1.952-.337,4.121.709,5.094,1.718-2.107.366-5.135-.178-5.796-1.596h0ZM86.11,110.989h0c-.492-1.485,1.346-3.936,3.137-5.097-.016,1.398-.881,3.633-2.54,4.709l-.596.388.686-.192c1.908-.532,4.172.293,5.243,1.201-2.06.574-5.127.336-5.929-1.009h0ZM90.18,109.109c.935,1.259,4.011,1.189,6.001.413-1.157-.796-3.494-1.39-5.338-.672l-.664.259c-.641-1.428.94-4.049,2.604-5.383.125,1.392-.508,3.702-2.049,4.939l-.554.444h0ZM94.038,106.833c-.782-1.356.525-4.122,2.044-5.615.267,1.372-.129,3.734-1.537,5.117l-.506.498.634-.323c1.762-.901,4.147-.543,5.38.134-1.902.971-4.956,1.348-6.014.189h0ZM97.646,104.183c1.17,1.047,4.171.367,5.965-.789-1.295-.55-3.704-.668-5.367.404l-.598.385.454-.545c1.26-1.519,1.415-3.907,1.01-5.245-1.36,1.637-2.38,4.519-1.464,5.79h0ZM100.968,101.186l.395-.588c1.1-1.636,1.011-4.028.473-5.32-1.187,1.766-1.909,4.734-.868,5.908l.555-.443c1.545-1.232,3.954-1.356,5.299-.939-1.667,1.33-4.584,2.307-5.854,1.382h0ZM103.968,97.874h0c1.358.792,4.161-.471,5.686-1.959-1.38-.281-3.765.083-5.177,1.463l-.509.497c-1.154-1.064-.737-4.089.265-5.964.667,1.23.999,3.601.07,5.338l-.334.625h0ZM106.617,94.278c1.431.653,4.092-.883,5.458-2.517-1.401-.142-3.737.459-5.002,1.973l-.455.544.269-.654c.748-1.822.178-4.147-.611-5.306-.807,1.966-.915,5.017.342,5.96h0ZM108.888,90.437h0c1.491.506,3.983-1.288,5.176-3.05-1.409,0-3.672.829-4.778,2.462l-.398.588c-1.346-.812-1.548-3.859-.945-5.896.902,1.074,1.705,3.331,1.146,5.216l-.201.679h0ZM110.757,86.387c1.535.356,3.832-1.678,4.84-3.55-1.401.139-3.57,1.192-4.504,2.927l-.336.623c-1.421-.673-1.932-3.683-1.538-5.769,1.007.977,2.035,3.142,1.67,5.075l-.131.694h0ZM112.207,82.174h0c1.563.199,3.642-2.054,4.455-4.016-1.381.278-3.431,1.542-4.184,3.36l-.271.655c-1.483-.528-2.297-3.473-2.116-5.588,1.1.872,2.343,2.924,2.176,4.882l-.06.705h0ZM113.222,77.835c1.575.043,3.416-2.406,4.025-4.441-1.346.416-3.257,1.878-3.822,3.763l-.203.678c-1.529-.377-2.637-3.225-2.673-5.346,1.184.757,2.629,2.674,2.661,4.639l.012.707h0ZM113.791,73.418h0c1.572-.114,3.154-2.735,3.555-4.819-1.296.548-3.05,2.193-3.422,4.125l-.133.694c-1.56-.222-2.952-2.945-3.202-5.051,1.254.635,2.886,2.396,3.118,4.348l.084.703h0ZM113.909,68.968l-.155-.69c-.429-1.919-2.232-3.509-3.544-4.015.463,2.071,2.124,4.64,3.699,4.705l.062-.704c.173-1.96,1.751-3.771,2.985-4.445-.186,2.113-1.496,4.879-3.047,5.149h0ZM113.575,64.529c1.517-.426,2.539-3.306,2.51-5.428-1.16.794-2.546,2.755-2.519,4.72l.01.708c-1.573.092-3.487-2.298-4.158-4.311,1.358.372,3.313,1.774,3.934,3.64l.224.671h0ZM112.791,60.145c1.466-.575,2.191-3.542,1.947-5.649-1.074.906-2.254,2.995-2.028,4.948l.081.701c-1.555.25-3.702-1.937-4.575-3.873,1.389.236,3.477,1.434,4.284,3.228l.29.645h0ZM111.568,55.864h0c1.4-.718,1.82-3.743,1.363-5.816-.976,1.01-1.939,3.206-1.515,5.125l.152.691c-1.523.402-3.881-1.558-4.945-3.397,1.405.094,3.604,1.079,4.59,2.783l.355.614h0ZM109.915,51.726h0l-.415-.575c-1.155-1.596-3.442-2.356-4.85-2.31,1.246,1.724,3.791,3.438,5.265,2.885l-.221-.671c-.616-1.868.119-4.149.988-5.25.665,2.016.554,5.067-.766,5.921h0ZM107.851,47.774c-1.411.698-4.117-.754-5.531-2.344,1.396-.187,3.749.34,5.059,1.814l.471.53-.288-.646c-.803-1.797-.303-4.139.45-5.321.866,1.939,1.065,4.985-.162,5.967h0ZM105.396,44.05c1.122-1.1.614-4.111-.445-5.953-.629,1.252-.888,3.632.093,5.338l.352.615-.522-.48c-1.453-1.335-3.848-1.624-5.219-1.3,1.569,1.441,4.409,2.614,5.742,1.78h0ZM102.575,40.59h0l-.568-.426c-1.582-1.182-3.994-1.23-5.325-.771,1.707,1.277,4.652,2.16,5.893,1.197l-.413-.576c-1.149-1.6-1.133-3.994-.634-5.302,1.24,1.728,2.052,4.672,1.047,5.878h0ZM99.417,37.428c.877-1.3-.229-4.148-1.638-5.743-.364,1.351-.138,3.734,1.169,5.211l.469.531c-1.137,1.083-4.157.498-5.985-.6,1.278-.591,3.682-.784,5.376.234l.609.366h0ZM95.954,34.6c.741-1.381-.649-4.104-2.213-5.549-.225,1.381.242,3.727,1.692,5.067l.521.481-.643-.304c-1.789-.845-4.162-.412-5.373.304,1.93.911,4.994,1.191,6.016,0h0ZM92.222,32.132c.597-1.447-1.062-4.017-2.765-5.3-.084,1.395.62,3.685,2.197,4.872l.568.427c-.895,1.287-3.973,1.315-5.986.601,1.133-.833,3.45-1.499,5.316-.839l.67.237h0Z"/>
  </g>
  <g class="st4">
    <path class="st2" d="M88.258,30.05c-.761,1.37-3.82,1.703-5.896,1.195,1.043-.941,3.281-1.837,5.204-1.365l.692.17-.608-.369c-1.69-1.023-2.623-3.231-2.681-4.627,1.824,1.105,3.736,3.496,3.289,4.995h0ZM70.045,112.892h0c.652,0,1.179.523,1.179,1.17s-.528,1.169-1.18,1.17-1.179-.523-1.179-1.169c0-.647.528-1.171,1.18-1.171h0ZM85.637,28.836h0l-.537-.464c-1.493-1.292-3.896-1.509-5.256-1.145,1.611,1.394,4.485,2.483,5.792,1.608h0ZM54.609,28.849h0c1.307.874,4.182-.218,5.794-1.613-1.36-.363-3.763-.145-5.257,1.149l-.537.464h0ZM67.011,114.078h0c-.362,1.521-3.219,2.659-5.357,2.722.75-1.184,2.664-2.643,4.645-2.702l.712-.02c.025-1.564-2.464-3.358-4.521-3.936.435,1.329,1.929,3.207,3.836,3.744l.685.192h0ZM62.564,113.49h0c.184-1.553-2.11-3.587-4.098-4.367.297,1.365,1.593,3.383,3.436,4.106l.662.261-.711-.051c-1.976-.139-4.028,1.121-4.895,2.223,2.133.152,5.091-.695,5.606-2.172h0ZM58.199,112.462h0c-.663,1.418-3.691,1.965-5.798,1.6.974-1.011,3.143-2.058,5.095-1.723l.702.122c.34-1.527-1.736-3.781-3.633-4.755.156,1.389,1.242,3.526,3,4.429l.633.326h0ZM53.962,111.002h0c.493-1.486-1.343-3.935-3.132-5.094.015,1.398.877,3.632,2.536,4.707l.596.387-.685-.191c-1.908-.531-4.172.297-5.244,1.205,2.058.572,5.127.332,5.93-1.014h0ZM49.893,109.125h0c-.936,1.26-4.012,1.192-6.002.418,1.158-.797,3.495-1.393,5.34-.676l.663.259c.642-1.428-.937-4.049-2.599-5.381-.127,1.392.504,3.701,2.045,4.937l.554.444h0ZM46.037,106.852h0c.784-1.357-.521-4.121-2.039-5.614-.268,1.372.126,3.734,1.533,5.116l.505.498-.633-.322c-1.761-.9-4.147-.54-5.38.138,1.901.97,4.954,1.343,6.013.184h0ZM42.431,104.205h0c-1.171,1.048-4.171.37-5.964-.784,1.296-.551,3.705-.671,5.366.399l.597.385-.452-.545c-1.26-1.518-1.412-3.906-1.006-5.244,1.359,1.636,2.376,4.517,1.459,5.789h0ZM39.113,101.212c-1.271.926-4.187-.048-5.854-1.377,1.344-.418,3.754-.297,5.298.934l.556.442c1.041-1.175.322-4.142-.864-5.907-.539,1.292-.63,3.684.469,5.319l.395.588h0ZM36.115,97.902h0c-1.358.793-4.16-.467-5.683-1.955,1.38-.282,3.765.08,5.176,1.459l.507.496c1.156-1.065.741-4.089-.26-5.963-.668,1.231-1.001,3.602-.074,5.338l.333.625h0ZM33.469,94.308h0c-1.432.655-4.091-.88-5.455-2.512,1.401-.143,3.737.456,5.001,1.969l.454.544-.268-.654c-.746-1.822-.173-4.146.615-5.306.805,1.965.91,5.017-.347,5.96h0ZM31.201,90.469h0l-.2-.679c-.557-1.885.247-4.143,1.15-5.217.602,2.036.397,5.083-.95,5.896l-.397-.588c-1.104-1.631-3.367-2.459-4.775-2.458,1.191,1.76,3.682,3.552,5.172,3.045h0ZM29.335,86.42h0c-1.535.357-3.83-1.675-4.837-3.546,1.402.138,3.569,1.189,4.502,2.923l.335.623c1.422-.675,1.935-3.685,1.544-5.77-1.007.978-2.037,3.143-1.674,5.076l.13.694h0ZM27.889,82.208h0l-.06-.705c-.165-1.958,1.079-4.011,2.181-4.884.178,2.115-.638,5.06-2.121,5.589l-.271-.655c-.752-1.818-2.8-3.08-4.181-3.357.811,1.962,2.889,4.213,4.452,4.012h0ZM26.878,77.871l.012-.707c.034-1.966,1.481-3.883,2.665-4.642-.037,2.121-1.148,4.97-2.677,5.348l-.203-.678c-.563-1.884-2.474-3.345-3.819-3.76.608,2.034,2.446,4.482,4.022,4.438h0ZM26.313,73.454h0c-1.572-.113-3.152-2.732-3.551-4.817,1.296.547,3.048,2.191,3.418,4.123l.133.694c1.56-.223,2.954-2.947,3.206-5.053-1.255.636-2.888,2.398-3.122,4.35l-.084.703h0ZM26.199,69.004c-1.553-.27-2.859-3.034-3.043-5.147,1.233.673,2.81,2.483,2.981,4.443l.062.704c1.574-.067,3.238-2.637,3.702-4.708-1.313.507-3.117,2.098-3.548,4.018l-.154.69h0ZM26.536,64.565h0c-1.516-.425-2.536-3.304-2.504-5.426,1.159.794,2.543,2.752,2.515,4.718l-.01.708c1.573.091,3.489-2.301,4.162-4.315-1.358.373-3.314,1.777-3.938,3.643l-.225.672h0ZM27.323,60.18l.291-.645c.809-1.795,2.898-2.995,4.286-3.232-.874,1.937-3.022,4.125-4.578,3.877l.082-.701c.228-1.953-.95-4.041-2.024-4.946-.245,2.107.476,5.074,1.942,5.648h0ZM28.551,55.898c-1.4-.717-1.817-3.742-1.358-5.815.975,1.009,1.936,3.204,1.511,5.124l-.153.692c1.522.401,3.882-1.561,4.948-3.401-1.405.096-3.605,1.082-4.592,2.787l-.355.614h0ZM30.207,51.758h0c-1.32-.854-1.428-3.905-.761-5.921.868,1.1,1.601,3.381.983,5.249l-.222.672c1.474.552,4.02-1.165,5.268-2.89-1.408-.044-3.696.717-4.852,2.314l-.416.575h0ZM32.275,47.805h0c1.41.697,4.117-.757,5.533-2.348-1.396-.186-3.75.343-5.062,1.818l-.472.53.289-.647c.804-1.797.306-4.139-.446-5.321-.867,1.94-1.07,4.986.157,5.967h0ZM34.732,44.079h0c-1.12-1.099-.609-4.11.451-5.954.628,1.251.886,3.631-.097,5.338l-.353.615.523-.48c1.454-1.336,3.849-1.627,5.219-1.304-1.57,1.442-4.41,2.618-5.743,1.784h0ZM37.556,40.616h0l.569-.427c1.583-1.184,3.995-1.233,5.325-.775-1.708,1.279-4.653,2.164-5.894,1.202l.414-.577c1.15-1.601,1.136-3.995.638-5.302-1.241,1.729-2.056,4.674-1.052,5.879h0ZM40.717,37.453h0c-.876-1.299.233-4.148,1.643-5.744.362,1.35.134,3.734-1.173,5.212l-.47.532c1.137,1.082,4.158.495,5.986-.605-1.277-.59-3.682-.781-5.377.239l-.61.367h0ZM44.183,34.621h0c-.74-1.38.652-4.104,2.217-5.55.224,1.38-.246,3.728-1.696,5.069l-.521.482.643-.304c1.79-.846,4.162-.416,5.373.299-1.931.912-4.996,1.195-6.017.005h0ZM47.917,32.15l.671-.238c1.866-.662,4.183.002,5.315.834-2.014.715-5.091.69-5.986-.596l.567-.428c1.579-1.189,2.284-3.479,2.202-4.874-1.704,1.284-3.365,3.855-2.769,5.302h0ZM51.883,30.065h0c-.446-1.499,1.467-3.892,3.293-4.998-.06,1.395-.994,3.604-2.685,4.629l-.608.369.692-.17c1.924-.474,4.161.421,5.203,1.361-2.077.51-5.135.178-5.895-1.19h0ZM73.058,114.075h0c.361,1.52,3.217,2.656,5.355,2.718-.749-1.184-2.662-2.641-4.643-2.698l-.712-.02c-.024-1.564,2.467-3.36,4.524-3.94-.435,1.329-1.932,3.208-3.839,3.747l-.685.193h0ZM77.506,113.484c-.183-1.553,2.113-3.588,4.102-4.371-.298,1.366-1.597,3.384-3.439,4.109l-.662.262.711-.052c1.976-.141,4.028,1.118,4.893,2.219-2.133.154-5.09-.691-5.604-2.167h0ZM81.871,112.452l.633-.327c1.76-.905,2.846-3.042,3.005-4.432-1.899.976-3.976,3.232-3.637,4.758l.702-.123c1.952-.337,4.121.709,5.094,1.718-2.107.366-5.135-.178-5.796-1.596h0ZM86.11,110.989h0c-.492-1.485,1.346-3.936,3.137-5.097-.016,1.398-.881,3.633-2.54,4.709l-.596.388.686-.192c1.908-.532,4.172.293,5.243,1.201-2.06.574-5.127.336-5.929-1.009h0ZM90.18,109.109c.935,1.259,4.011,1.189,6.001.413-1.157-.796-3.494-1.39-5.338-.672l-.664.259c-.641-1.428.94-4.049,2.604-5.383.125,1.392-.508,3.702-2.049,4.939l-.554.444h0ZM94.038,106.833c-.782-1.356.525-4.122,2.044-5.615.267,1.372-.129,3.734-1.537,5.117l-.506.498.634-.323c1.762-.901,4.147-.543,5.38.134-1.902.971-4.956,1.348-6.014.189h0ZM97.646,104.183c1.17,1.047,4.171.367,5.965-.789-1.295-.55-3.704-.668-5.367.404l-.598.385.454-.545c1.26-1.519,1.415-3.907,1.01-5.245-1.36,1.637-2.38,4.519-1.464,5.79h0ZM100.968,101.186l.395-.588c1.1-1.636,1.011-4.028.473-5.32-1.187,1.766-1.909,4.734-.868,5.908l.555-.443c1.545-1.232,3.954-1.356,5.299-.939-1.667,1.33-4.584,2.307-5.854,1.382h0ZM103.968,97.874h0c1.358.792,4.161-.471,5.686-1.959-1.38-.281-3.765.083-5.177,1.463l-.509.497c-1.154-1.064-.737-4.089.265-5.964.667,1.23.999,3.601.07,5.338l-.334.625h0ZM106.617,94.278c1.431.653,4.092-.883,5.458-2.517-1.401-.142-3.737.459-5.002,1.973l-.455.544.269-.654c.748-1.822.178-4.147-.611-5.306-.807,1.966-.915,5.017.342,5.96h0ZM108.888,90.437h0c1.491.506,3.983-1.288,5.176-3.05-1.409,0-3.672.829-4.778,2.462l-.398.588c-1.346-.812-1.548-3.859-.945-5.896.902,1.074,1.705,3.331,1.146,5.216l-.201.679h0ZM110.757,86.387c1.535.356,3.832-1.678,4.84-3.55-1.401.139-3.57,1.192-4.504,2.927l-.336.623c-1.421-.673-1.932-3.683-1.538-5.769,1.007.977,2.035,3.142,1.67,5.075l-.131.694h0ZM112.207,82.174h0c1.563.199,3.642-2.054,4.455-4.016-1.381.278-3.431,1.542-4.184,3.36l-.271.655c-1.483-.528-2.297-3.473-2.116-5.588,1.1.872,2.343,2.924,2.176,4.882l-.06.705h0ZM113.222,77.835c1.575.043,3.416-2.406,4.025-4.441-1.346.416-3.257,1.878-3.822,3.763l-.203.678c-1.529-.377-2.637-3.225-2.673-5.346,1.184.757,2.629,2.674,2.661,4.639l.012.707h0ZM113.791,73.418h0c1.572-.114,3.154-2.735,3.555-4.819-1.296.548-3.05,2.193-3.422,4.125l-.133.694c-1.56-.222-2.952-2.945-3.202-5.051,1.254.635,2.886,2.396,3.118,4.348l.084.703h0ZM113.909,68.968l-.155-.69c-.429-1.919-2.232-3.509-3.544-4.015.463,2.071,2.124,4.64,3.699,4.705l.062-.704c.173-1.96,1.751-3.771,2.985-4.445-.186,2.113-1.496,4.879-3.047,5.149h0ZM113.575,64.529c1.517-.426,2.539-3.306,2.51-5.428-1.16.794-2.546,2.755-2.519,4.72l.01.708c-1.573.092-3.487-2.298-4.158-4.311,1.358.372,3.313,1.774,3.934,3.64l.224.671h0ZM112.791,60.145c1.466-.575,2.191-3.542,1.947-5.649-1.074.906-2.254,2.995-2.028,4.948l.081.701c-1.555.25-3.702-1.937-4.575-3.873,1.389.236,3.477,1.434,4.284,3.228l.29.645h0ZM111.568,55.864h0c1.4-.718,1.82-3.743,1.363-5.816-.976,1.01-1.939,3.206-1.515,5.125l.152.691c-1.523.402-3.881-1.558-4.945-3.397,1.405.094,3.604,1.079,4.59,2.783l.355.614h0ZM109.915,51.726h0l-.415-.575c-1.155-1.596-3.442-2.356-4.85-2.31,1.246,1.724,3.791,3.438,5.265,2.885l-.221-.671c-.616-1.868.119-4.149.988-5.25.665,2.016.554,5.067-.766,5.921h0ZM107.851,47.774c-1.411.698-4.117-.754-5.531-2.344,1.396-.187,3.749.34,5.059,1.814l.471.53-.288-.646c-.803-1.797-.303-4.139.45-5.321.866,1.939,1.065,4.985-.162,5.967h0ZM105.396,44.05c1.122-1.1.614-4.111-.445-5.953-.629,1.252-.888,3.632.093,5.338l.352.615-.522-.48c-1.453-1.335-3.848-1.624-5.219-1.3,1.569,1.441,4.409,2.614,5.742,1.78h0ZM102.575,40.59h0l-.568-.426c-1.582-1.182-3.994-1.23-5.325-.771,1.707,1.277,4.652,2.16,5.893,1.197l-.413-.576c-1.149-1.6-1.133-3.994-.634-5.302,1.24,1.728,2.052,4.672,1.047,5.878h0ZM99.417,37.428c.877-1.3-.229-4.148-1.638-5.743-.364,1.351-.138,3.734,1.169,5.211l.469.531c-1.137,1.083-4.157.498-5.985-.6,1.278-.591,3.682-.784,5.376.234l.609.366h0ZM95.954,34.6c.741-1.381-.649-4.104-2.213-5.549-.225,1.381.242,3.727,1.692,5.067l.521.481-.643-.304c-1.789-.845-4.162-.412-5.373.304,1.93.911,4.994,1.191,6.016,0h0ZM92.222,32.132c.597-1.447-1.062-4.017-2.765-5.3-.084,1.395.62,3.685,2.197,4.872l.568.427c-.895,1.287-3.973,1.315-5.986.601,1.133-.833,3.45-1.499,5.316-.839l.67.237h0Z"/>
  </g>
  <path class="st2" d="M112.189,57.343h0l.032-.709c.09-1.973-1.228-3.993-2.356-4.835-.096,2.128.828,5.059,2.325,5.544h0Z"/>
  <path class="st2" d="M27.982,57.343h0l-.032-.709c-.09-1.973,1.228-3.993,2.356-4.835.096,2.128-.828,5.059-2.325,5.544h0Z"/>
</svg>