<svg width="300" height="85" viewBox="0 0 300 85" fill="none" xmlns="http://www.w3.org/2000/svg">
<path d="M87.854 23.6634H105.374L108.155 18.8296H53.3451L56.1239 23.6634H73.646V72.4614H87.854V23.6634ZM50.3208 43.2341C49.7478 59.21 40.3496 72.8344 19.1858 72.8344C12.8319 72.8344 4.26549 70.2277 0 65.7868L6.44027 54.5849C8.87389 57.9954 13.8805 61.084 18.6084 61.2594C29.2124 61.6569 36.115 56.0348 37.031 48.0324H16.9204L14.1593 43.2341H50.3208ZM50.3208 41.1758C49.7478 25.2044 40.3496 11.5733 19.1858 11.5733C12.8319 11.5733 4.26106 14.1911 0 18.6186L6.44248 29.8184C8.87611 26.4012 13.885 23.3259 18.6106 23.1571C29.2146 22.7597 36.1173 28.3751 37.0332 36.393H16.9137L14.1593 41.1758H50.3208ZM152.876 72.4636L154.75 67.0947H142.327L144.201 72.4636H152.876ZM148.535 52.3245L142.367 32.0388L136.062 11.9418H117.407V72.4658H131.124L130.956 34.4635L141.619 65.0363H155.485L166.15 34.4635L165.982 72.4658H179.699V11.9418H161.027L154.719 32.0388L148.535 52.3245ZM296.199 49.8221H198.277V46.5336H261.814L259.918 43.2408H300L296.199 49.8221ZM245.42 69.1819H285.077L281.288 75.7698H224.002V72.4658H247.314L245.42 69.1819ZM240.447 60.5222H290.044L286.254 67.1102H224.002V63.8196H242.341L240.447 60.5222ZM250.389 77.8059H280.108L276.314 84.4028H224.002V81.1143H252.288L250.389 77.8059ZM296.21 34.5812H198.277V37.874H261.814L259.918 41.1691H300L296.21 34.5812ZM245.418 15.2258H285.08L281.288 8.63787H224.002V11.9418H247.314L245.418 15.2258ZM240.447 23.8854H290.044L286.261 17.293H224.002V20.5881H242.341L240.447 23.8854ZM250.389 6.59731H280.108L276.314 0.00268555H224.002V3.29556H252.288L250.389 6.59731ZM198.277 25.9393V29.2344H266.788L264.892 32.5295H295.027L291.237 25.9393H198.277ZM198.277 58.4684V55.1733H266.788L264.892 51.8804H295.027L291.237 58.4684H198.277ZM108.155 16.7801L105.374 11.9418H56.1239L53.3429 16.7801H108.155Z" fill="#264796"/>
</svg>
