<svg width="289" height="89" viewBox="0 0 289 89" fill="none" xmlns="http://www.w3.org/2000/svg">
<path d="M113.716 57.4641H122.825C122.873 59.5527 123.279 61.0716 124.044 62.0209C124.666 62.9228 125.765 63.3737 127.343 63.3737C129.017 63.3737 130.212 62.8516 130.929 61.8073C131.647 60.8105 132.005 59.3153 132.005 57.3217C132.005 55.2807 131.671 53.738 131.001 52.6937C130.332 51.6495 128.969 50.89 126.913 50.4154L125.048 49.917C122.705 49.2524 120.912 48.493 119.669 47.6386C118.234 46.7367 117.135 45.645 116.37 44.3634C115.557 43.0343 115.007 41.5391 114.72 39.8778C114.433 38.2639 114.29 36.3415 114.29 34.1106C114.29 29.5064 115.437 26.0413 117.732 23.7154C120.028 21.437 123.351 20.2979 127.702 20.2979C131.957 20.2979 135.161 21.3658 137.313 23.5018C139.512 25.7328 140.708 29.3165 140.899 34.253H131.718C131.671 32.3069 131.336 30.8829 130.714 29.981C130.14 29.1266 129.136 28.6994 127.702 28.6994C126.315 28.6994 125.287 29.1266 124.618 29.981C123.948 30.9304 123.614 32.2831 123.614 34.0394C123.614 35.0837 123.685 35.9618 123.829 36.6738C123.877 37.3383 124.092 37.9317 124.474 38.4538C124.809 38.9285 125.287 39.3319 125.909 39.6642C126.483 39.9965 127.295 40.305 128.347 40.5898L130.069 41.0882C132.459 41.8002 134.133 42.3935 135.089 42.8682C136.332 43.4378 137.337 44.1735 138.102 45.0754C139.249 46.2146 140.086 47.8047 140.612 49.8458C141.042 51.8393 141.257 54.1889 141.257 56.8945C141.257 59.6476 140.947 61.9497 140.325 63.8009C139.656 65.7945 138.747 67.3609 137.6 68.5001C136.309 69.7817 134.874 70.6598 133.296 71.1345C131.575 71.7041 129.638 71.9889 127.487 71.9889C123.088 71.9889 119.741 70.7785 117.446 68.3577C115.103 66.0318 113.859 62.4007 113.716 57.4641Z" fill="#756EDA"/>
<path d="M155.875 71.4905H146.479V20.7963H155.875V71.4905Z" fill="#756EDA"/>
<path d="M171.758 71.4905H162.936V20.7963H171.758L180.292 48.493L188.827 20.7963H197.578V71.4905H188.756V47.069L188.899 41.8714L187.895 46.2146L183.161 61.7361H177.424L172.618 46.2146L171.614 41.8714L171.758 47.069V71.4905Z" fill="#756EDA"/>
<path d="M204.47 71.4905V20.7963H218.6C222.903 20.7963 226.25 21.9592 228.641 24.285C231.079 26.6584 232.299 30.4794 232.299 35.7482V37.5282C232.299 42.7495 231.103 46.5468 228.713 48.9202C226.37 51.246 222.999 52.409 218.6 52.409H213.866V71.4905H204.47ZM217.667 29.269H213.866V43.9362H217.667C219.628 43.9362 220.99 43.414 221.755 42.3698C222.521 41.4205 222.903 39.6642 222.903 37.101V36.1754C222.903 33.6597 222.521 31.8797 221.755 30.8354C220.99 29.7912 219.628 29.269 217.667 29.269Z" fill="#756EDA"/>
<path d="M261.489 71.4905H237.39V20.7963H246.786V62.8753H261.489V71.4905Z" fill="#756EDA"/>
<path d="M265.331 20.7963H289V29.4114H274.727V41.6578H286.777V50.2018H274.727V62.8753H289V71.4905H265.331V20.7963Z" fill="#756EDA"/>
<path d="M66.1543 44.4997C66.1543 56.4593 56.4591 66.1544 44.4996 66.1544C32.54 66.1544 22.8448 56.4593 22.8448 44.4997C22.8448 32.5401 32.54 22.845 44.4996 22.845C56.4591 22.845 66.1543 32.5401 66.1543 44.4997Z" fill="url(#paint0_linear)"/>
<mask id="mask0" mask-type="alpha" maskUnits="userSpaceOnUse" x="0" y="0" width="89" height="89">
<path fill-rule="evenodd" clip-rule="evenodd" d="M44.5 11.3349C40.1447 11.3349 35.832 12.1927 31.8083 13.8594C27.7845 15.5261 24.1284 17.9691 21.0487 21.0487C17.9691 24.1284 15.5262 27.7845 13.8594 31.8083C12.1927 35.832 11.3349 40.1447 11.3349 44.5C11.3349 48.8553 12.1927 53.168 13.8594 57.1917C15.5261 61.2155 17.9691 64.8716 21.0487 67.9513C24.1284 71.0309 27.7845 73.4738 31.8083 75.1405C35.832 76.8073 40.1447 77.6651 44.5 77.6651C48.8553 77.6651 53.168 76.8073 57.1917 75.1405C61.2155 73.4738 64.8716 71.0309 67.9513 67.9513C71.0309 64.8716 73.4738 61.2155 75.1405 57.1917C76.8073 53.168 77.6651 48.8553 77.6651 44.5C77.6651 40.1447 76.8073 35.832 75.1405 31.8083C73.4739 27.7845 71.0309 24.1284 67.9513 21.0487C64.8716 17.9691 61.2155 15.5262 57.1917 13.8595C53.168 12.1927 48.8553 11.3349 44.5 11.3349ZM27.4706 3.38736C32.8696 1.15102 38.6562 -7.66324e-07 44.5 0C50.3438 7.66326e-07 56.1304 1.15103 61.5294 3.38736C66.9284 5.6237 71.834 8.90154 75.9663 13.0338C80.0985 17.166 83.3763 22.0716 85.6126 27.4706C87.849 32.8696 89 38.6562 89 44.5C89 50.3438 87.849 56.1304 85.6126 61.5294C83.3763 66.9284 80.0985 71.834 75.9663 75.9663C71.834 80.0985 66.9284 83.3763 61.5294 85.6126C56.1304 87.849 50.3438 89 44.5 89C38.6562 89 32.8696 87.849 27.4706 85.6126C22.0716 83.3763 17.166 80.0985 13.0337 75.9662C8.90154 71.834 5.62369 66.9284 3.38736 61.5294C1.15103 56.1304 -5.10883e-07 50.3438 0 44.5C5.10884e-07 38.6562 1.15103 32.8696 3.38736 27.4706C5.6237 22.0716 8.90154 17.166 13.0338 13.0337C17.166 8.90154 22.0716 5.62369 27.4706 3.38736Z" fill="url(#paint1_linear)"/>
</mask>
<g mask="url(#mask0)">
<path fill-rule="evenodd" clip-rule="evenodd" d="M69.0233 22.1726C65.8546 18.6923 61.9814 15.9263 57.6612 14.0584L62.1594 3.6543C67.9562 6.16051 73.1531 9.87185 77.4047 14.5416C81.6564 19.2114 84.8654 24.7327 86.8184 30.7385C88.7714 36.7442 89.4238 43.0969 88.7321 49.3743C88.0404 55.6516 86.0204 61.7098 82.8065 67.1462L73.0492 61.3779C75.4444 57.3262 76.9498 52.8112 77.4654 48.1328C77.9809 43.4544 77.4947 38.7198 76.0391 34.2438C74.5836 29.7678 72.192 25.6529 69.0233 22.1726Z" fill="url(#paint2_linear)"/>
<g filter="url(#filter0_d)">
<path fill-rule="evenodd" clip-rule="evenodd" d="M48.8861 11.6262C44.5691 11.0502 40.1809 11.3302 35.972 12.4501C31.7632 13.57 27.8161 15.5079 24.3562 18.1533C20.8963 20.7986 17.9913 24.0995 15.8071 27.8675C13.6229 31.6355 12.2022 35.7968 11.6262 40.1139C11.0502 44.4309 11.3302 48.8191 12.4501 53.028C13.57 57.2369 15.5079 61.1839 18.1533 64.6438C20.7986 68.1037 24.0995 71.0087 27.8675 73.1929C30.5755 74.7626 31.4982 78.2304 29.9285 80.9384C28.3587 83.6464 24.8909 84.5691 22.183 82.9993C17.1272 80.0686 12.6981 76.1708 9.14869 71.5284C5.59927 66.886 2.99899 61.59 1.49632 55.9426C-0.00634336 50.2953 -0.381973 44.4073 0.390881 38.6148C1.16373 32.8223 3.06994 27.2388 6.00065 22.183C8.93137 17.1272 12.8292 12.6981 17.4716 9.14869C22.114 5.59927 27.4101 2.99899 33.0574 1.49632C38.7047 -0.00634356 44.5927 -0.381973 50.3852 0.390881C56.1777 1.16373 61.7612 3.06994 66.817 6.00065C69.525 7.57039 70.4477 11.0382 68.878 13.7461C67.3083 16.4541 63.8405 17.3768 61.1325 15.8071C57.3645 13.6229 53.2032 12.2022 48.8861 11.6262Z" fill="url(#paint3_linear)"/>
</g>
<g filter="url(#filter1_d)">
<path fill-rule="evenodd" clip-rule="evenodd" d="M53.1552 76.5158C61.5197 74.2545 68.6671 68.8096 73.0682 61.3459L82.832 67.1034C76.9266 77.118 67.3365 84.4238 56.1133 87.4579C44.8901 90.4919 32.9252 89.0133 22.7783 83.3382C20.0465 81.8103 19.0705 78.3572 20.5984 75.6254C22.1262 72.8936 25.5794 71.9176 28.3112 73.4454C35.8735 77.675 44.7908 78.777 53.1552 76.5158Z" fill="url(#paint4_linear)"/>
</g>
<path fill-rule="evenodd" clip-rule="evenodd" d="M70.9673 64.4847C74.9421 59.2206 77.2569 52.8908 77.6159 46.3044L88.934 46.9213C88.4524 55.7588 85.3464 64.2519 80.0131 71.315L70.9673 64.4847Z" fill="url(#paint5_linear)"/>
</g>
<defs>
<filter id="filter0_d" x="-16" y="-20" width="133.643" height="147.765" filterUnits="userSpaceOnUse" color-interpolation-filters="sRGB">
<feFlood flood-opacity="0" result="BackgroundImageFix"/>
<feColorMatrix in="SourceAlpha" type="matrix" values="0 0 0 0 0 0 0 0 0 0 0 0 0 0 0 0 0 0 127 0" result="hardAlpha"/>
<feOffset dx="16" dy="12"/>
<feGaussianBlur stdDeviation="16"/>
<feColorMatrix type="matrix" values="0 0 0 0 0 0 0 0 0 0 0 0 0 0 0 0 0 0 0.41 0"/>
<feBlend mode="normal" in2="BackgroundImageFix" result="effect1_dropShadow"/>
<feBlend mode="normal" in="SourceGraphic" in2="effect1_dropShadow" result="shape"/>
</filter>
<filter id="filter1_d" x="15.8763" y="49.3459" width="94.9557" height="59.6541" filterUnits="userSpaceOnUse" color-interpolation-filters="sRGB">
<feFlood flood-opacity="0" result="BackgroundImageFix"/>
<feColorMatrix in="SourceAlpha" type="matrix" values="0 0 0 0 0 0 0 0 0 0 0 0 0 0 0 0 0 0 127 0" result="hardAlpha"/>
<feOffset dx="12" dy="4"/>
<feGaussianBlur stdDeviation="8"/>
<feColorMatrix type="matrix" values="0 0 0 0 0 0 0 0 0 0 0 0 0 0 0 0 0 0 0.24 0"/>
<feBlend mode="normal" in2="BackgroundImageFix" result="effect1_dropShadow"/>
<feBlend mode="normal" in="SourceGraphic" in2="effect1_dropShadow" result="shape"/>
</filter>
<linearGradient id="paint0_linear" x1="44.4996" y1="22.845" x2="44.4996" y2="66.1544" gradientUnits="userSpaceOnUse">
<stop stop-color="#9D85F8"/>
<stop offset="1" stop-color="#5A5EC7"/>
</linearGradient>
<linearGradient id="paint1_linear" x1="44.5" y1="1.3262e-06" x2="44.5" y2="89" gradientUnits="userSpaceOnUse">
<stop stop-color="#9D85F8"/>
<stop offset="1" stop-color="#5A5EC7"/>
</linearGradient>
<linearGradient id="paint2_linear" x1="73.3305" y1="3.6543" x2="73.3305" y2="67.1462" gradientUnits="userSpaceOnUse">
<stop stop-color="#876DED"/>
<stop offset="1" stop-color="#9480F1"/>
</linearGradient>
<linearGradient id="paint3_linear" x1="34.8216" y1="1.24819e-06" x2="34.8216" y2="83.7645" gradientUnits="userSpaceOnUse">
<stop stop-color="#9D85F8"/>
<stop offset="1" stop-color="#5A5EC7"/>
</linearGradient>
<linearGradient id="paint4_linear" x1="52.5" y1="61.5" x2="51.3541" y2="89" gradientUnits="userSpaceOnUse">
<stop stop-color="#9D85F8"/>
<stop offset="1" stop-color="#7276E2"/>
</linearGradient>
<linearGradient id="paint5_linear" x1="78.8425" y1="45.4669" x2="75.4566" y2="67.7169" gradientUnits="userSpaceOnUse">
<stop stop-color="#8E79ED"/>
<stop offset="1" stop-color="#9582F4"/>
</linearGradient>
</defs>
</svg>
