<svg width="457" height="101" viewBox="0 0 457 101" fill="none" xmlns="http://www.w3.org/2000/svg">
<mask id="mask0_4075_2859" style="mask-type:alpha" maskUnits="userSpaceOnUse" x="0" y="0" width="105" height="101">
<path d="M38.9729 100.101C31.6847 100.622 34.0645 100.473 31.6847 100.622C31.6847 100.622 -0.368638 86.6406 0.00321049 56.5209C0.00321049 33.1688 11.1587 26.7731 11.1587 26.7731C16.3952 29.0772 21.1606 32.3298 25.2145 36.3667C28.58 40.1592 31.3394 44.4489 33.3952 49.0839C36.251 37.4526 42.7371 27.0331 51.9132 19.3361C64.7805 7.08497 81.8182 0.174231 99.5841 0C103.071 9.01406 104.862 18.5953 104.864 28.2604C105.385 66.3377 82.5535 93.7801 46.4098 99.1347L38.9729 100.101Z" fill="white"/>
</mask>
<g mask="url(#mask0_4075_2859)">
<path d="M24.0991 23.0502L-9.36719 31.6199L12.5569 111.382L35.2546 101.138C35.2546 101.138 38.9731 87.088 38.9731 75.1089C38.9731 56.5165 24.0991 23.0502 24.0991 23.0502Z" fill="url(#paint0_linear_4075_2859)"/>
<path d="M125.214 91.9879L102.187 -2.97309L68.7209 4.4638L42.6918 19.3378C42.6918 19.3378 30.7913 44.193 30.792 75.1151C30.7927 106.037 35.9381 113.635 35.9381 113.635L125.214 91.9879Z" fill="url(#paint1_linear_4075_2859)"/>
</g>
<path d="M372.508 19.7019H326.329C319.181 19.7019 313.569 20.5597 313.355 21.6677L299.916 95.9392C299.916 96.3681 300.345 96.6897 300.845 96.8684C304.829 97.9235 308.954 98.3457 313.069 98.1194H358.139C358.533 98.1194 358.926 97.7262 359.247 97.2259C360.6 94.6376 361.483 91.8302 361.857 88.9338C362.459 86.262 362.64 83.5124 362.393 80.7846C362.142 79.2477 361.857 79.0333 361.356 79.0333H329.189L331.369 66.8453H357.782C358.175 66.8453 358.533 66.4879 358.818 66.0233C360.139 63.57 360.988 60.8907 361.32 58.1243C361.879 55.5915 362.06 52.9899 361.857 50.4041C361.606 48.9387 361.32 48.7242 360.856 48.7242H334.478L336.444 38.0017H369.434C369.827 38.0017 370.184 37.6085 370.506 37.1439C371.789 34.6777 372.624 32.0032 372.972 29.245C373.531 26.7121 373.712 24.1105 373.508 21.5247C373.258 19.9164 372.972 19.7019 372.508 19.7019Z" fill="white"/>
<path d="M274.003 53.5164L303.204 22.3853C303.633 21.8134 303.49 21.5632 303.204 21.2773C298.848 19.9908 294.299 19.4826 289.765 19.7761C285.566 19.5701 281.36 20.004 277.292 21.0628C276.803 21.2456 276.372 21.5538 276.041 21.9564L250.092 49.6563L254.846 21.8492C254.846 21.2058 254.202 20.9914 253.559 20.7769C249.469 19.8524 245.274 19.4797 241.085 19.6689C237.344 19.5671 233.606 19.9638 229.969 20.8484C229.398 20.8484 228.897 21.2773 228.79 21.8849L215.53 95.7275C215.53 96.3351 215.53 96.5138 216.102 96.7282C220.02 97.8175 224.084 98.2878 228.147 98.1222C232.36 98.3488 236.583 97.9024 240.656 96.7997C241.085 96.621 241.407 96.4781 241.514 96.0491L247.697 61.0579L261.994 95.799C262.209 96.2636 262.28 96.4423 263.066 96.7997C267.648 97.843 272.345 98.2876 277.041 98.1222C282.152 98.3807 287.273 97.9478 292.267 96.8355C292.982 96.5853 293.483 96.3351 293.232 95.656L274.003 53.5164Z" fill="white"/>
<path d="M456.465 20.9212C451.991 19.6771 447.341 19.182 442.705 19.4558C438.59 19.2458 434.468 19.6677 430.481 20.7068C430.034 20.8767 429.656 21.1912 429.409 21.6003L412.11 46.2264L404.961 21.779C404.961 21.2786 404.961 21.0999 404.032 20.7783C400.393 19.7063 396.598 19.2591 392.809 19.4558C388.528 19.2868 384.245 19.72 380.085 20.7425C379.334 20.9927 378.798 21.2072 378.977 21.8863L395.454 68.851L390.664 95.7288C390.664 96.3364 390.665 96.5151 391.236 96.7296C395.167 97.818 399.242 98.2883 403.317 98.1235C407.531 98.3441 411.752 97.8978 415.827 96.8011C416.22 96.6224 416.542 96.4794 416.649 96.0505L421.438 69.4586L456.823 22.0292C457.18 21.4574 456.966 21.2072 456.465 20.9212Z" fill="white"/>
<path d="M217.103 25.9584L230.792 3.54831C230.901 3.35182 230.933 3.12122 230.88 2.90257C230.827 2.68393 230.693 2.49332 230.506 2.36883C227.984 1.2379 225.221 0.746827 222.464 0.939154C220.124 0.90448 217.791 1.19314 215.53 1.79696C214.851 2.01141 214.172 2.36883 214.029 2.86921L209.025 25.9584C209.025 25.9584 209.025 26.2801 209.347 26.4231C210.402 26.892 211.552 27.1121 212.706 27.0664C213.851 27.104 214.996 26.9715 216.102 26.6733C216.514 26.57 216.871 26.3146 217.103 25.9584Z" fill="white"/>
<path d="M173.211 17.1339C166.429 16.988 159.69 18.25 153.42 20.8402C147.149 23.4304 141.484 27.2926 136.782 32.1828C132.08 37.073 128.443 42.8851 126.101 49.252C123.758 55.6189 122.761 62.4023 123.173 69.174C123.852 88.6533 137.041 99.5188 158.164 99.5188C183.362 99.5188 209.418 80.1467 208.381 48.1221C207.774 31.2519 197.123 17.1339 173.211 17.1339ZM161.631 80.3612C152.66 80.3612 149.693 73.8562 149.443 66.4576C149.014 54.5556 154.769 36.2558 169.423 36.2558C178.287 36.2558 181.825 42.6893 182.075 50.5525C182.612 65.9215 174.355 80.3612 161.631 80.3612Z" fill="white"/>
<defs>
<linearGradient id="paint0_linear_4075_2859" x1="-97665" y1="-203219" x2="-97504.1" y2="-202628" gradientUnits="userSpaceOnUse">
<stop stop-color="#00A138"/>
<stop offset="0.33" stop-color="#41AF2B"/>
<stop offset="0.78" stop-color="#93C11A"/>
<stop offset="1" stop-color="#93C11A"/>
</linearGradient>
<linearGradient id="paint1_linear_4075_2859" x1="71.5391" y1="34.3761" x2="83.743" y2="84.7054" gradientUnits="userSpaceOnUse">
<stop stop-color="#00A138"/>
<stop offset="0.33" stop-color="#41AF2B"/>
<stop offset="0.78" stop-color="#93C11A"/>
<stop offset="1" stop-color="#93C11A"/>
</linearGradient>
</defs>
</svg>
