<svg width="48" height="48" viewBox="0 0 48 48" fill="none" xmlns="http://www.w3.org/2000/svg">
<circle cx="24" cy="24" r="24" fill="white"/>
<path d="M12.1 14.9C12.1 14.1268 12.7268 13.5 13.5 13.5H34.5C35.2732 13.5 35.9 14.1268 35.9 14.9V18.4C35.9 19.1732 35.2732 19.8 34.5 19.8H13.5C12.7268 19.8 12.1 19.1732 12.1 18.4V14.9Z" fill="#B62100"/>
<path fill-rule="evenodd" clip-rule="evenodd" d="M13.5 21.9V33.1C13.5 33.8732 14.1268 34.5 14.9 34.5H33.1C33.8732 34.5 34.5 33.8732 34.5 33.1V21.9H13.5ZM20.5 25.05C20.5 24.4701 20.9701 24 21.55 24H26.45C27.0299 24 27.5 24.4701 27.5 25.05C27.5 25.6299 27.0299 26.1 26.45 26.1H21.55C20.9701 26.1 20.5 25.6299 20.5 25.05Z" fill="#B62100"/>
</svg>
