<svg width="48" height="48" viewBox="0 0 48 48" fill="none" xmlns="http://www.w3.org/2000/svg">
<circle cx="24" cy="24" r="24" fill="white"/>
<path fill-rule="evenodd" clip-rule="evenodd" d="M14.9 11.4004C14.1268 11.4004 13.5 12.0272 13.5 12.8004V22.9504H34.5V12.8004C34.5 12.0272 33.8732 11.4004 33.1 11.4004H14.9ZM21.55 14.9004C20.9701 14.9004 20.5 15.3705 20.5 15.9504C20.5 16.5303 20.9701 17.0004 21.55 17.0004H26.45C27.0299 17.0004 27.5 16.5303 27.5 15.9504C27.5 15.3705 27.0299 14.9004 26.45 14.9004H21.55Z" fill="#B62100"/>
<path fill-rule="evenodd" clip-rule="evenodd" d="M34.5 25.0504H13.5V35.2004C13.5 35.9736 14.1268 36.6004 14.9 36.6004H33.1C33.8732 36.6004 34.5 35.9736 34.5 35.2004V25.0504ZM21.55 28.5504C20.9701 28.5504 20.5 29.0205 20.5 29.6004C20.5 30.1803 20.9701 30.6504 21.55 30.6504H26.45C27.0299 30.6504 27.5 30.1803 27.5 29.6004C27.5 29.0205 27.0299 28.5504 26.45 28.5504H21.55Z" fill="#B62100"/>
</svg>
