<svg width="41" height="60" viewBox="0 0 41 60" fill="none" xmlns="http://www.w3.org/2000/svg">
<g clip-path="url(#clip0_2692_50840)">
<path d="M20.832 30.0459C20.832 24.5386 25.2852 20.0512 30.8008 20.0512C36.2938 20.0512 40.7696 24.5159 40.7696 30.0459C40.7696 35.5531 36.3164 40.0405 30.8008 40.0405C25.3078 40.0405 20.832 35.5531 20.832 30.0459Z" fill="#1ABCFE"/>
<path d="M0.916992 50.0125C0.916992 44.5052 5.37016 40.0178 10.8858 40.0178H20.8545V50.0125C20.8545 55.5197 16.4014 60.0071 10.8858 60.0071C5.37016 60.0071 0.916992 55.5424 0.916992 50.0125Z" fill="#0ACF83"/>
<path d="M20.832 0.0844922V20.0511H30.8008C36.2938 20.0511 40.7696 15.5864 40.7696 10.0565C40.7696 4.54923 36.3164 0.0618286 30.8008 0.0618286H20.832V0.0844922Z" fill="#FF7262"/>
<path d="M0.916992 10.0792C0.916992 15.5865 5.37016 20.0739 10.8858 20.0739H20.8545V0.0845337H10.8858C5.37016 0.0845337 0.916992 4.54927 0.916992 10.0792Z" fill="#F24E1E"/>
<path d="M0.916992 30.0459C0.916992 35.5531 5.37016 40.0405 10.8858 40.0405H20.8545V20.0512H10.8858C5.37016 20.0512 0.916992 24.5386 0.916992 30.0459Z" fill="#A259FF"/>
</g>
<defs>
<clipPath id="clip0_2692_50840">
<rect width="39.75" height="60" fill="white" transform="translate(0.916992)"/>
</clipPath>
</defs>
</svg>
