<svg width="25" height="40" viewBox="0 0 25 40" fill="none" xmlns="http://www.w3.org/2000/svg">
<g clip-path="url(#clip0_3071_1041)">
<path d="M22.9041 7.22381C22.0561 3.50591 19.9363 0.489197 19.6427 0C19.1862 0.684876 17.4903 3.35915 16.626 6.31064C15.6802 9.62087 15.5498 12.5397 15.8759 15.4097C16.2021 18.296 17.4087 21.2475 17.4087 21.2475C18.061 22.7966 19.0231 24.4598 19.659 25.2752C20.5885 24.0685 22.7084 20.481 23.3769 15.8174C23.7357 13.2083 23.752 10.9254 22.9041 7.22381ZM19.6264 24.3457C19.2025 23.563 18.5665 22.0791 18.5013 19.7636C18.485 17.5459 19.3818 15.6217 19.6427 15.2303C19.871 15.6217 20.6374 17.3013 20.7353 19.5842C20.8005 21.8019 20.0667 23.563 19.6264 24.3457ZM22.6431 13.5181C22.6105 14.9368 22.4475 16.437 22.2192 17.3339C22.3007 15.7848 22.105 13.616 21.7626 11.9201C21.4038 10.2242 20.4091 7.38688 19.6101 6.08235C18.8763 7.33796 17.9632 9.78394 17.4903 11.9038C17.0174 14.0236 17.0011 16.6001 17.0011 17.3665C16.8706 16.7142 16.5608 14.3987 16.6423 12.0669C16.7239 10.1427 17.1641 8.16959 17.4087 7.25642C18.3545 4.2234 19.4144 2.28292 19.6101 1.97309C19.8058 2.28292 21.1429 4.67998 21.8441 7.17489C22.5453 9.7024 22.6758 12.0995 22.6431 13.5181Z" fill="white"/>
<path d="M21.0764 26.1394H14.6353V30.4606L14.6516 30.4443C16.1681 28.9278 18.6304 28.9278 20.1469 30.4443C21.6634 31.9608 21.6634 34.4231 20.1469 35.9396C20.1469 35.9559 20.1306 35.9559 20.1306 35.9559L20.1143 35.9722C18.5978 37.4724 16.6247 38.2225 14.6353 38.2225C12.6459 38.2225 10.6565 37.4724 9.13997 35.9559C6.4657 33.2816 6.15587 29.1398 8.19419 26.1231C8.47141 25.7154 8.78123 25.324 9.13997 24.9653C10.6565 23.4488 12.6459 22.6987 14.6353 22.6987V12.3114C6.98751 12.3277 0.791016 18.5079 0.791016 26.1394C0.791016 33.7708 6.98751 39.9673 14.619 39.9673C18.5978 39.9673 22.1852 38.2714 24.7127 35.5809V26.1231H21.0764V26.1394Z" fill="white"/>
</g>
<defs>
<clipPath id="clip0_3071_1041">
<rect width="24.2857" height="40" fill="white" transform="translate(0.65625)"/>
</clipPath>
</defs>
</svg>
