<svg width="36" height="48" viewBox="0 0 45 60" fill="none" xmlns="http://www.w3.org/2000/svg">
<g clip-path="url(#clip0_2692_50860)">
<mask id="mask0_2692_50860" style="mask-type:luminance" maskUnits="userSpaceOnUse" x="0" y="0" width="45" height="60">
<path d="M27.7705 0H4.66113C2.41816 0 0.583008 1.84091 0.583008 4.09091V55.9091C0.583008 58.1591 2.41816 60 4.66113 60H40.0049C42.2479 60 44.083 58.1591 44.083 55.9091V16.3636L27.7705 0Z" fill="white"/>
</mask>
<g mask="url(#mask0_2692_50860)">
<path d="M27.7705 0H4.66113C2.41816 0 0.583008 1.84091 0.583008 4.09091V55.9091C0.583008 58.1591 2.41816 60 4.66113 60H40.0049C42.2479 60 44.083 58.1591 44.083 55.9091V16.3636L34.5674 9.54545L27.7705 0Z" fill="#4285F4"/>
</g>
<mask id="mask1_2692_50860" style="mask-type:luminance" maskUnits="userSpaceOnUse" x="0" y="0" width="45" height="60">
<path d="M27.7705 0H4.66113C2.41816 0 0.583008 1.84091 0.583008 4.09091V55.9091C0.583008 58.1591 2.41816 60 4.66113 60H40.0049C42.2479 60 44.083 58.1591 44.083 55.9091V16.3636L27.7705 0Z" fill="white"/>
</mask>
<g mask="url(#mask1_2692_50860)">
<path d="M28.9629 15.1671L44.0825 30.3307V16.3636L28.9629 15.1671Z" fill="url(#paint0_linear_2692_50860)"/>
</g>
<mask id="mask2_2692_50860" style="mask-type:luminance" maskUnits="userSpaceOnUse" x="0" y="0" width="45" height="60">
<path d="M27.7705 0H4.66113C2.41816 0 0.583008 1.84091 0.583008 4.09091V55.9091C0.583008 58.1591 2.41816 60 4.66113 60H40.0049C42.2479 60 44.083 58.1591 44.083 55.9091V16.3636L27.7705 0Z" fill="white"/>
</mask>
<g mask="url(#mask2_2692_50860)">
<path d="M11.458 43.6364H33.208V40.9091H11.458V43.6364ZM11.458 49.0909H27.7705V46.3636H11.458V49.0909ZM11.458 30V32.7273H33.208V30H11.458ZM11.458 38.1818H33.208V35.4545H11.458V38.1818Z" fill="#F1F1F1"/>
</g>
<mask id="mask3_2692_50860" style="mask-type:luminance" maskUnits="userSpaceOnUse" x="0" y="0" width="45" height="60">
<path d="M27.7705 0H4.66113C2.41816 0 0.583008 1.84091 0.583008 4.09091V55.9091C0.583008 58.1591 2.41816 60 4.66113 60H40.0049C42.2479 60 44.083 58.1591 44.083 55.9091V16.3636L27.7705 0Z" fill="white"/>
</mask>
<g mask="url(#mask3_2692_50860)">
<path d="M27.7705 0V12.2727C27.7705 14.533 29.5955 16.3636 31.8486 16.3636H44.083L27.7705 0Z" fill="#A1C2FA"/>
</g>
<mask id="mask4_2692_50860" style="mask-type:luminance" maskUnits="userSpaceOnUse" x="0" y="0" width="45" height="60">
<path d="M27.7705 0H4.66113C2.41816 0 0.583008 1.84091 0.583008 4.09091V55.9091C0.583008 58.1591 2.41816 60 4.66113 60H40.0049C42.2479 60 44.083 58.1591 44.083 55.9091V16.3636L27.7705 0Z" fill="white"/>
</mask>
<g mask="url(#mask4_2692_50860)">
<path d="M4.66113 0C2.41816 0 0.583008 1.84091 0.583008 4.09091V4.43182C0.583008 2.18182 2.41816 0.340909 4.66113 0.340909H27.7705V0H4.66113Z" fill="white" fill-opacity="0.2"/>
</g>
<mask id="mask5_2692_50860" style="mask-type:luminance" maskUnits="userSpaceOnUse" x="0" y="0" width="45" height="60">
<path d="M27.7705 0H4.66113C2.41816 0 0.583008 1.84091 0.583008 4.09091V55.9091C0.583008 58.1591 2.41816 60 4.66113 60H40.0049C42.2479 60 44.083 58.1591 44.083 55.9091V16.3636L27.7705 0Z" fill="white"/>
</mask>
<g mask="url(#mask5_2692_50860)">
<path d="M40.0049 59.6591H4.66113C2.41816 59.6591 0.583008 57.8182 0.583008 55.5682V55.9091C0.583008 58.1591 2.41816 60 4.66113 60H40.0049C42.2479 60 44.083 58.1591 44.083 55.9091V55.5682C44.083 57.8182 42.2479 59.6591 40.0049 59.6591Z" fill="#1A237E" fill-opacity="0.2"/>
</g>
<mask id="mask6_2692_50860" style="mask-type:luminance" maskUnits="userSpaceOnUse" x="0" y="0" width="45" height="60">
<path d="M27.7705 0H4.66113C2.41816 0 0.583008 1.84091 0.583008 4.09091V55.9091C0.583008 58.1591 2.41816 60 4.66113 60H40.0049C42.2479 60 44.083 58.1591 44.083 55.9091V16.3636L27.7705 0Z" fill="white"/>
</mask>
<g mask="url(#mask6_2692_50860)">
<path d="M31.8486 16.3636C29.5955 16.3636 27.7705 14.533 27.7705 12.2727V12.6136C27.7705 14.8739 29.5955 16.7046 31.8486 16.7046H44.083V16.3636H31.8486Z" fill="#1A237E" fill-opacity="0.1"/>
</g>
<path d="M27.7705 0H4.66113C2.41816 0 0.583008 1.84091 0.583008 4.09091V55.9091C0.583008 58.1591 2.41816 60 4.66113 60H40.0049C42.2479 60 44.083 58.1591 44.083 55.9091V16.3636L27.7705 0Z" fill="url(#paint1_radial_2692_50860)"/>
</g>
<defs>
<linearGradient id="paint0_linear_2692_50860" x1="785.027" y1="145.364" x2="785.027" y2="1531.74" gradientUnits="userSpaceOnUse">
<stop stop-color="#1A237E" stop-opacity="0.2"/>
<stop offset="1" stop-color="#1A237E" stop-opacity="0.02"/>
</linearGradient>
<radialGradient id="paint1_radial_2692_50860" cx="0" cy="0" r="1" gradientUnits="userSpaceOnUse" gradientTransform="translate(138.393 117.902) scale(7014.31 6995.71)">
<stop stop-color="white" stop-opacity="0.1"/>
<stop offset="1" stop-color="white" stop-opacity="0"/>
</radialGradient>
<clipPath id="clip0_2692_50860">
<rect width="43.5" height="60" fill="white" transform="translate(0.583008)"/>
</clipPath>
</defs>
</svg>
