<svg width="60" height="60" viewBox="0 0 60 60" fill="none" xmlns="http://www.w3.org/2000/svg">
<path d="M54.5488 6.42737H28.751C28.751 9.51596 29.9779 12.4781 32.1619 14.662C34.3458 16.846 37.3079 18.0729 40.3965 18.0729H45.1488V22.6613C45.153 29.0871 50.361 34.2953 56.7868 34.2995V8.66533C56.7868 7.42969 55.7851 6.42737 54.5488 6.42737Z" fill="#2684FF"/>
<path d="M41.784 19.2815H15.9863C15.9903 25.7073 21.1983 30.9155 27.6243 30.9197H32.3766V35.5228C32.3848 41.9486 37.5963 47.1532 44.0221 47.1532V21.5199C44.0221 20.2838 43.02 19.2815 41.784 19.2815Z" fill="url(#paint0_linear_2692_50916)"/>
<path d="M29.0117 32.1283H3.21387C3.21387 38.5599 8.42795 43.7738 14.8594 43.7738H19.6266V48.362C19.6308 54.7819 24.8298 59.9878 31.2499 60V34.3664C31.2499 33.1304 30.2478 32.1283 29.0117 32.1283Z" fill="url(#paint1_linear_2692_50916)"/>
<defs>
<linearGradient id="paint0_linear_2692_50916" x1="7033.26" y1="32.1135" x2="4250.19" y2="3284.53" gradientUnits="userSpaceOnUse">
<stop offset="0.18" stop-color="#0052CC"/>
<stop offset="1" stop-color="#2684FF"/>
</linearGradient>
<linearGradient id="paint1_linear_2692_50916" x1="7209.09" y1="68.3923" x2="3989.8" y2="3615.76" gradientUnits="userSpaceOnUse">
<stop offset="0.18" stop-color="#0052CC"/>
<stop offset="1" stop-color="#2684FF"/>
</linearGradient>
</defs>
</svg>
