<svg width="48" height="48" viewBox="0 0 48 48" fill="none" xmlns="http://www.w3.org/2000/svg">
<circle cx="24" cy="24" r="24" fill="white"/>
<path fill-rule="evenodd" clip-rule="evenodd" d="M17 21.1998V19.7998C17 18.8806 17.1811 17.9703 17.5329 17.121C17.8847 16.2717 18.4003 15.5001 19.0503 14.8501C19.7003 14.2 20.472 13.6844 21.3213 13.3326C22.1705 12.9809 23.0808 12.7998 24 12.7998C24.9193 12.7998 25.8296 12.9809 26.6788 13.3326C27.5281 13.6844 28.2998 14.2 28.9498 14.8501C29.5998 15.5001 30.1154 16.2717 30.4672 17.121C30.819 17.9703 31.0001 18.8806 31.0001 19.7998V21.1998H33.8001C34.5733 21.1998 35.2001 21.8266 35.2001 22.5998V33.7998C35.2001 34.573 34.5733 35.1998 33.8001 35.1998H14.2C13.4269 35.1998 12.8 34.573 12.8 33.7998V22.5998C12.8 21.8266 13.4269 21.1998 14.2 21.1998H17ZM22.3928 15.9195C22.9023 15.7084 23.4485 15.5998 24 15.5998C24.5516 15.5998 25.0978 15.7084 25.6073 15.9195C26.1169 16.1306 26.5799 16.44 26.9699 16.83C27.3599 17.22 27.6693 17.683 27.8803 18.1925C28.0914 18.7021 28.2001 19.2483 28.2001 19.7998V21.1998H19.8V19.7998C19.8 19.2483 19.9087 18.7021 20.1198 18.1925C20.3308 17.683 20.6402 17.22 21.0302 16.83C21.4202 16.44 21.8832 16.1306 22.3928 15.9195ZM22.7556 27.3443C22.7556 26.657 23.3128 26.0998 24 26.0998C24.6873 26.0998 25.2445 26.657 25.2445 27.3443V29.0554C25.2445 29.7427 24.6873 30.2998 24 30.2998C23.3128 30.2998 22.7556 29.7427 22.7556 29.0554V27.3443Z" fill="#B62100"/>
</svg>
