<svg width="48" height="48" viewBox="0 0 48 48" fill="none" xmlns="http://www.w3.org/2000/svg">
<circle cx="24" cy="24" r="24" fill="white"/>
<path opacity="0.998" fill-rule="evenodd" clip-rule="evenodd" d="M25.8109 12.2832C25.8325 12.3105 25.8629 12.3206 25.9022 12.3134C25.8971 13.0886 25.9022 13.8638 25.9174 14.6389C25.9259 14.6112 25.9411 14.5911 25.9631 14.5785C29.3261 14.6087 32.6942 14.6188 36.0674 14.6087C36.0695 21.0152 36.0796 27.5034 36.0979 34.0735C36.0524 34.1322 35.9915 34.1574 35.9152 34.149C35.4041 34.1342 34.902 34.1242 34.4087 34.1188C34.2721 34.1163 34.1402 34.1364 34.0131 34.1792C33.9928 34.159 33.9725 34.1389 33.9522 34.1188C32.8844 34.1396 31.8192 34.1396 30.7566 34.1188C30.6199 34.1163 30.488 34.1364 30.3609 34.1792C30.3203 34.0986 30.2797 34.0986 30.2392 34.1792C30.1986 34.0986 30.158 34.0986 30.1174 34.1792C30.1022 34.1641 30.087 34.149 30.0718 34.1339C29.9957 34.1288 29.9196 34.1238 29.8435 34.1188C28.55 34.127 27.2566 34.127 25.9631 34.1188C25.9811 34.7935 25.9912 35.463 25.9935 36.1272C25.9753 36.1665 25.9449 36.1916 25.9022 36.2027C21.2418 35.3982 16.5955 34.5928 11.9631 33.7866C11.9856 33.7905 12.0059 33.7855 12.0239 33.7715C11.9708 33.7608 11.92 33.7457 11.8718 33.7262C11.8313 30.5663 11.811 27.4002 11.8109 24.2278C11.8109 21.0605 11.8312 17.8994 11.8718 14.7446C11.8429 14.73 11.8125 14.725 11.7805 14.7295C11.7855 17.0852 11.7805 19.441 11.7652 21.7966C11.7536 21.7798 11.7384 21.7698 11.7196 21.7664C11.7095 19.4036 11.7196 17.0428 11.75 14.6842C16.4322 13.8749 21.1191 13.0745 25.8109 12.2832ZM26.6326 25.2094C26.4677 25.1885 26.3053 25.1583 26.1457 25.1188C26.1148 25.0833 26.0743 25.0632 26.0239 25.0584C25.999 24.9898 25.9787 24.9193 25.9631 24.847C25.9581 24.7857 25.9632 24.7253 25.9783 24.6658C26.1726 24.8401 26.3806 24.9962 26.6022 25.1339C26.6251 25.1541 26.6353 25.1793 26.6326 25.2094ZM29.0674 27.9577C29.343 27.9733 29.6169 28.0035 29.8892 28.0483C29.8428 28.0804 29.7921 28.1005 29.737 28.1087C29.6575 28.165 29.5764 28.1952 29.4935 28.1993C29.4834 28.2346 29.4732 28.2698 29.4631 28.305C29.4882 28.3827 29.4882 28.4582 29.4631 28.5315C29.4991 28.5782 29.5295 28.6286 29.5544 28.6825C29.5823 28.7015 29.6127 28.7116 29.6457 28.7127C29.7196 28.8075 29.821 28.8579 29.95 28.8637C30.0149 28.8654 30.0555 28.8956 30.0718 28.9543C28.7135 28.9832 27.3541 28.9933 25.9935 28.9845C25.9631 28.663 25.953 28.3409 25.9631 28.0181C26.9872 27.9579 28.022 27.9378 29.0674 27.9577ZM25.9631 30.253C28.0938 30.2443 30.2242 30.2543 32.3544 30.2832C32.3892 30.6433 32.3943 31.0057 32.3696 31.3705C32.3456 31.4985 32.2898 31.6093 32.2022 31.7027C32.1062 31.7597 32.025 31.8302 31.9587 31.9141C31.9283 31.9141 31.8979 31.9141 31.8674 31.9141C31.874 31.9799 31.8486 32.0303 31.7913 32.0651C31.771 32.1657 31.771 32.2664 31.7913 32.3671C31.8577 32.3857 31.9134 32.4209 31.9587 32.4728C31.9418 32.4844 31.9317 32.4995 31.9283 32.5181C29.9411 32.5481 27.9527 32.5582 25.9631 32.5483C25.9631 31.7832 25.9631 31.0181 25.9631 30.253Z" fill="#D14021"/>
<path opacity="0.301" fill-rule="evenodd" clip-rule="evenodd" d="M25.9631 14.5789C25.9411 14.5915 25.9259 14.6116 25.9174 14.6393C25.9022 13.8642 25.8971 13.089 25.9022 12.3138C25.8629 12.321 25.8325 12.3109 25.8109 12.2836C25.8674 12.2076 25.9232 12.2076 25.9783 12.2836C25.9834 12.339 25.9884 12.3943 25.9935 12.4497C26.0017 13.1536 25.9916 13.8633 25.9631 14.5789Z" fill="#D75C41"/>
<path fill-rule="evenodd" clip-rule="evenodd" d="M11.8718 33.7268C11.8413 33.7268 11.8109 33.7268 11.7805 33.7268C11.7855 29.9012 11.7805 26.0757 11.7653 22.2502C11.7594 22.3169 11.7442 22.3773 11.7196 22.4315C11.7196 22.21 11.7196 21.9885 11.7196 21.767C11.7384 21.7704 11.7536 21.7804 11.7653 21.7972C11.7805 19.4416 11.7855 17.0858 11.7805 14.7301C11.8125 14.7256 11.8429 14.7306 11.8718 14.7452C11.8312 17.9 11.8109 21.0611 11.8109 24.2284C11.811 27.4008 11.8313 30.5669 11.8718 33.7268Z" fill="#CF3515"/>
<path fill-rule="evenodd" clip-rule="evenodd" d="M34.6674 32.5788C34.6674 27.1124 34.6674 21.6459 34.6674 16.1795C31.7558 16.1795 28.8442 16.1795 25.9326 16.1795C28.8319 16.1493 31.7537 16.1392 34.6978 16.1493C34.708 21.648 34.6978 27.1245 34.6674 32.5788Z" fill="#CF300F"/>
<path opacity="0.998" fill-rule="evenodd" clip-rule="evenodd" d="M25.9326 16.1797C28.8442 16.1797 31.7557 16.1797 34.6674 16.1797C34.6674 21.6461 34.6674 27.1126 34.6674 32.579C33.8355 32.579 33.0036 32.579 32.1717 32.579C32.1354 32.5303 32.105 32.48 32.0804 32.428C32.0401 32.348 31.9995 32.2675 31.9587 32.1864C32.0084 32.007 32.0896 31.8459 32.2021 31.7032C32.2898 31.6098 32.3456 31.499 32.3695 31.371C32.3942 31.0063 32.3892 30.6438 32.3543 30.2837C32.3543 30.2636 32.3543 30.2435 32.3543 30.2233C32.3643 29.8052 32.3542 29.3925 32.3239 28.9851C32.3137 28.9851 32.3036 28.9851 32.2934 28.9851C31.652 28.9948 31.0129 28.9847 30.376 28.9549C30.352 28.9158 30.3216 28.8805 30.2847 28.8492C30.1546 28.7871 30.0278 28.7217 29.9043 28.6528C29.9067 28.5432 29.9168 28.4324 29.9347 28.3206C30.0707 28.2817 30.1772 28.2012 30.2543 28.079C30.1912 28.0276 30.1202 27.9923 30.0413 27.9733C30.8174 27.9682 31.5885 27.9531 32.3543 27.928C32.3543 27.5052 32.3543 27.0824 32.3543 26.6596C30.2137 26.6596 28.0731 26.6596 25.9326 26.6596C25.9326 26.6495 25.9326 26.6394 25.9326 26.6294C25.962 26.5657 25.9722 26.4952 25.963 26.4179C26.0137 26.4179 26.0644 26.4179 26.1152 26.4179C26.1152 26.4481 26.1152 26.4783 26.1152 26.5085C26.1557 26.5085 26.1963 26.5085 26.2369 26.5085C26.2417 26.4671 26.2366 26.4268 26.2217 26.3877C26.1351 26.3347 26.0539 26.2743 25.9782 26.2065C25.963 25.8443 25.9579 25.4819 25.963 25.1193C26.0239 25.1193 26.0847 25.1193 26.1456 25.1193C26.3053 25.1588 26.4676 25.189 26.6326 25.2099C26.6826 25.2164 26.7283 25.2063 26.7695 25.1797C28.2136 25.8436 29.568 25.6976 30.8326 24.7418C31.7 23.9873 32.1362 23.036 32.1413 21.8877C30.934 21.8928 29.7267 21.8877 28.5195 21.8726C28.4892 20.6718 28.479 19.4688 28.4891 18.2636C27.5097 18.2742 26.6626 18.6064 25.9478 19.2602C25.9326 18.2334 25.9275 17.2066 25.9326 16.1797Z" fill="#FEFEFD"/>
<path fill-rule="evenodd" clip-rule="evenodd" d="M29.3717 17.69C29.3403 17.7126 29.3048 17.7328 29.2652 17.7504C29.2344 17.7251 29.1989 17.7151 29.1586 17.7202C29.1586 18.8981 29.1586 20.0759 29.1586 21.2538C30.333 21.2589 31.5047 21.2488 32.6739 21.2236C32.7135 21.2412 32.749 21.2614 32.7804 21.284C31.563 21.284 30.3456 21.284 29.1282 21.284C29.1382 20.0948 29.128 18.9068 29.0978 17.7202C29.1869 17.6905 29.2782 17.6805 29.3717 17.69Z" fill="#CF3010"/>
<path fill-rule="evenodd" clip-rule="evenodd" d="M29.3717 17.6895C30.8759 17.8647 31.936 18.6398 32.5522 20.015C32.7101 20.4303 32.7862 20.8531 32.7804 21.2834C32.7491 21.2608 32.7135 21.2407 32.6739 21.223C31.5048 21.2482 30.333 21.2583 29.1587 21.2532C29.1587 20.0754 29.1587 18.8975 29.1587 17.7197C29.1989 17.7145 29.2344 17.7246 29.2652 17.7499C29.3048 17.7322 29.3404 17.7121 29.3717 17.6895Z" fill="#D14121"/>
<path fill-rule="evenodd" clip-rule="evenodd" d="M18.263 19.3809C18.9126 19.3558 19.5517 19.4514 20.1804 19.6678C21.1177 20.0945 21.6605 20.8143 21.8087 21.8272C21.9058 22.6282 21.7638 23.3832 21.3826 24.0923C20.9948 24.6652 20.4622 25.0428 19.7848 25.2248C19.047 25.4289 18.3064 25.444 17.563 25.2701C17.563 26.3372 17.563 27.4044 17.563 28.4715C16.9923 28.4057 16.4242 28.3252 15.8587 28.2299C15.8283 25.3709 15.8181 22.5118 15.8283 19.6527C16.637 19.5005 17.4486 19.4099 18.263 19.3809Z" fill="#FEFDFD"/>
<path fill-rule="evenodd" clip-rule="evenodd" d="M17.7761 20.9813C18.1227 20.9697 18.4676 20.9848 18.8109 21.0266C19.2928 21.132 19.6022 21.4189 19.7392 21.8873C19.905 22.5234 19.7477 23.0619 19.2674 23.5031C19.0752 23.6111 18.8723 23.6917 18.6587 23.7447C18.291 23.7731 17.9258 23.758 17.5631 23.6994C17.558 22.8135 17.5631 21.9275 17.5783 21.0417C17.6476 21.0231 17.7135 21.0029 17.7761 20.9813Z" fill="#D14020"/>
<path fill-rule="evenodd" clip-rule="evenodd" d="M25.963 24.847C25.9787 24.9193 25.999 24.9898 26.0239 25.0584C25.9935 25.0584 25.963 25.0584 25.9326 25.0584C25.9326 25.5819 25.9326 26.1054 25.9326 26.6289C25.9326 26.6389 25.9326 26.649 25.9326 26.6591C25.8972 25.9696 25.8921 25.275 25.9174 24.5752C25.9229 24.6717 25.9381 24.7623 25.963 24.847Z" fill="#DD7761"/>
<path fill-rule="evenodd" clip-rule="evenodd" d="M26.0239 25.0586C26.0742 25.0634 26.1148 25.0835 26.1457 25.119C26.0848 25.119 26.0239 25.119 25.9631 25.119C25.958 25.4816 25.9631 25.844 25.9783 26.2062C26.054 26.274 26.1351 26.3344 26.2217 26.3875C26.2367 26.4265 26.2417 26.4668 26.237 26.5083C26.1964 26.5083 26.1558 26.5083 26.1152 26.5083C26.1152 26.4781 26.1152 26.4479 26.1152 26.4177C26.0645 26.4177 26.0138 26.4177 25.9631 26.4177C25.9722 26.4949 25.9621 26.5654 25.9326 26.6291C25.9326 26.1056 25.9326 25.5821 25.9326 25.0586C25.9631 25.0586 25.9935 25.0586 26.0239 25.0586Z" fill="#EEBFB5"/>
<path opacity="0.412" fill-rule="evenodd" clip-rule="evenodd" d="M29.9499 27.9277C30.7514 27.9277 31.5529 27.9277 32.3543 27.9277C31.5885 27.9529 30.8174 27.968 30.0412 27.973C30.1202 27.9921 30.1912 28.0273 30.2543 28.0787C30.1772 28.2009 30.0706 28.2815 29.9347 28.3204C29.9168 28.4321 29.9066 28.5429 29.9043 28.6526C30.0278 28.7214 30.1546 28.7868 30.2847 28.8489C30.3216 28.8803 30.352 28.9155 30.376 28.9546C30.2402 28.863 30.088 28.8126 29.9195 28.8036C29.8633 28.7427 29.8125 28.6772 29.7673 28.6073C29.7812 28.5583 29.8116 28.5231 29.8586 28.5016C29.8789 28.421 29.8992 28.3405 29.9195 28.2599C30.0488 28.2617 30.1198 28.2013 30.1326 28.0787C30.092 28.0787 30.0514 28.0787 30.0108 28.0787C30.0007 28.0237 29.9804 27.9734 29.9499 27.9277Z" fill="#EEBFB5"/>
<path opacity="0.041" fill-rule="evenodd" clip-rule="evenodd" d="M29.7369 28.1094C29.7419 28.2005 29.7369 28.2911 29.7217 28.3812C29.6427 28.4831 29.6173 28.5938 29.6456 28.7134C29.6127 28.7122 29.5822 28.7021 29.5543 28.6832C29.5295 28.6292 29.499 28.5789 29.463 28.5322C29.4881 28.4588 29.4881 28.3833 29.463 28.3057C29.4731 28.2704 29.4833 28.2352 29.4934 28.2C29.5763 28.1958 29.6574 28.1656 29.7369 28.1094Z" fill="#D75F44"/>
<path opacity="0.261" fill-rule="evenodd" clip-rule="evenodd" d="M30.0108 28.0791C30.0514 28.0791 30.092 28.0791 30.1326 28.0791C30.1198 28.2017 30.0488 28.2621 29.9195 28.2603C29.8992 28.3409 29.879 28.4214 29.8587 28.5019C29.8116 28.5234 29.7812 28.5586 29.7674 28.6076C29.8126 28.6776 29.8633 28.743 29.9195 28.8039C29.729 28.7384 29.6935 28.6276 29.813 28.4717C29.8096 28.3008 29.8756 28.17 30.0108 28.0791Z" fill="#E49481"/>
<path opacity="0.073" fill-rule="evenodd" clip-rule="evenodd" d="M29.0674 27.9577C29.3561 27.9277 29.6503 27.9176 29.95 27.9275C29.9805 27.9731 30.0008 28.0235 30.0109 28.0785C29.8756 28.1694 29.8097 28.3002 29.813 28.4711C29.6935 28.6271 29.729 28.7378 29.9196 28.8033C29.9297 28.8235 29.9399 28.8436 29.95 28.8637C29.821 28.8578 29.7195 28.8075 29.6456 28.7127C29.6174 28.5931 29.6427 28.4824 29.7217 28.3805C29.7369 28.2905 29.742 28.1999 29.7369 28.1087C29.7921 28.1005 29.8428 28.0804 29.8891 28.0483C29.6169 28.0035 29.343 27.9733 29.0674 27.9577Z" fill="#DC735B"/>
<path opacity="0.988" fill-rule="evenodd" clip-rule="evenodd" d="M25.9631 28.0184C25.953 28.3412 25.9631 28.6633 25.9935 28.9849C27.3541 28.9936 28.7135 28.9835 30.0718 28.9547C30.0414 28.9748 30.0109 28.9949 29.9805 29.0151C28.6414 29.0151 27.3022 29.0151 25.9631 29.0151C25.9443 29.0117 25.9291 29.0016 25.9174 28.9849C25.8971 28.6426 25.8971 28.3003 25.9174 27.958C25.9259 27.9857 25.9411 28.0058 25.9631 28.0184Z" fill="#D9654C"/>
<path opacity="0.996" fill-rule="evenodd" clip-rule="evenodd" d="M29.9196 28.8037C30.088 28.8128 30.2402 28.8631 30.3761 28.9547C31.0129 28.9846 31.652 28.9946 32.2935 28.9849C31.5277 29.0151 30.7567 29.0251 29.9804 29.0151C30.0109 28.995 30.0413 28.9749 30.0717 28.9547C30.0554 28.8959 30.0149 28.8657 29.95 28.8641C29.9399 28.844 29.9297 28.8239 29.9196 28.8037Z" fill="#E28A76"/>
<path fill-rule="evenodd" clip-rule="evenodd" d="M32.2934 28.9854C32.3036 28.9854 32.3137 28.9854 32.3239 28.9854C32.3284 29.0171 32.3234 29.0473 32.3087 29.076C30.2111 29.0511 28.1212 29.0511 26.0391 29.076C26.0088 29.0589 25.9835 29.0387 25.963 29.0156C27.3021 29.0156 28.6413 29.0156 29.9804 29.0156C30.7566 29.0255 31.5277 29.0155 32.2934 28.9854Z" fill="#CF3010"/>
<path opacity="0.038" fill-rule="evenodd" clip-rule="evenodd" d="M11.8717 33.7265C11.92 33.7461 11.9707 33.7612 12.0239 33.7718C12.0058 33.7858 11.9855 33.7909 11.963 33.7869C11.8833 33.795 11.8072 33.7849 11.7348 33.7567C11.7196 29.9815 11.7145 26.2064 11.7196 22.4312C11.7442 22.3771 11.7594 22.3167 11.7652 22.25C11.7804 26.0755 11.7855 29.901 11.7804 33.7265C11.8109 33.7265 11.8413 33.7265 11.8717 33.7265Z" fill="#D3492B"/>
<path fill-rule="evenodd" clip-rule="evenodd" d="M32.3543 30.2235C32.3543 30.2436 32.3543 30.2638 32.3543 30.2839C30.2241 30.255 28.0937 30.245 25.963 30.2537C28.071 30.2235 30.2014 30.2134 32.3543 30.2235Z" fill="#DC755D"/>
<path opacity="0.047" fill-rule="evenodd" clip-rule="evenodd" d="M32.2022 31.7031C32.0897 31.8459 32.0085 32.007 31.9587 32.1863C31.9995 32.2674 32.0401 32.3479 32.0804 32.428C31.9821 32.3959 31.9212 32.3304 31.8978 32.2316C31.9424 32.1326 31.9627 32.0269 31.9587 31.9145C32.025 31.8307 32.1062 31.7602 32.2022 31.7031Z" fill="#F2CDC4"/>
<path opacity="0.043" fill-rule="evenodd" clip-rule="evenodd" d="M31.9587 31.9141C31.9628 32.0264 31.9425 32.1321 31.8979 32.2312C31.9213 32.3299 31.9821 32.3954 32.0805 32.4275C32.1051 32.4794 32.1355 32.5298 32.1718 32.5785C32.0745 32.5947 31.9933 32.5745 31.9283 32.5181C31.9317 32.4995 31.9418 32.4844 31.9587 32.4728C31.9135 32.4209 31.8577 32.3857 31.7913 32.3671C31.771 32.2664 31.771 32.1657 31.7913 32.0651C31.8487 32.0302 31.874 31.9799 31.8674 31.9141C31.8979 31.9141 31.9283 31.9141 31.9587 31.9141Z" fill="#E69B8A"/>
</svg>
