<svg width="99" height="16" viewBox="0 0 99 16" fill="none" xmlns="http://www.w3.org/2000/svg">
<g clip-path="url(#clip0_3071_1056)">
<path d="M44.2293 5.07005L46.2685 3.58081H39.4414V12.5016H46.2685V11.0124H41.392V8.73473H45.5592V7.2455H41.392V5.07005H44.2293Z" fill="white"/>
<path d="M34.2857 7.05569H31.9213V5.07005H35.7043L37.7436 3.58081H29.9707V12.5016H34.0345C36.3102 12.5016 37.6254 11.4796 37.6254 9.69836C37.6254 7.99012 36.4432 7.05569 34.2857 7.05569ZM33.9606 11.0124H31.9213V8.54493H33.9606C35.2019 8.54493 35.7782 8.95374 35.7782 9.78596C35.7782 10.6182 35.1576 11.0124 33.9606 11.0124Z" fill="white"/>
<path d="M51.7951 3.58081H48.0859V12.5016H50.0365V9.97576H51.8098C54.1742 9.97576 55.6519 8.74933 55.6519 6.77829C55.6519 4.80724 54.1742 3.58081 51.7951 3.58081ZM51.7507 8.48653H50.0218V5.07005H51.7507C53.0068 5.07005 53.6866 5.68326 53.6866 6.77829C53.6866 7.87331 53.0068 8.48653 51.7507 8.48653Z" fill="white"/>
<path d="M26.6307 10.5744C26.1135 10.8518 25.5372 10.9978 24.9461 10.9978C23.1876 10.9978 21.9168 9.75674 21.9168 8.0485C21.9168 6.34026 23.1876 5.09923 24.9461 5.09923C25.5815 5.08463 26.2022 5.28903 26.7194 5.65404L28.1233 4.63202L28.0346 4.54442C27.2218 3.829 26.1283 3.46399 24.887 3.46399C23.5423 3.46399 22.3158 3.9166 21.4291 4.73422C20.5425 5.58104 20.04 6.76367 20.0696 7.9901C20.0548 9.23113 20.5425 10.4284 21.4291 11.3044C22.3601 12.1658 23.6014 12.6476 24.8722 12.6184C26.2761 12.6184 27.5026 12.1366 28.3301 11.2606L27.0741 10.3408L26.6307 10.5744Z" fill="white"/>
<path d="M79.1036 3.59529V12.5161H81.0542V8.86602H85.2066V12.5161H87.1572V3.59529H85.2066V7.25998H81.0542V3.59529H79.1036ZM75.7491 12.5161H77.8032L73.9906 3.59529H72.0105L68.124 12.5161H70.0894L70.8726 10.7203H75.0103L75.7491 12.5161ZM71.4637 9.23102L72.971 5.65394L74.3896 9.23102H71.4637ZM91.5313 8.90982H92.7431L95.7281 12.5015H98.2403L94.2504 7.88779L97.7378 3.58069H95.5064L92.6101 7.40598H91.5313V3.58069H89.5807V12.5015H91.5313V8.90982ZM61.6811 7.07017V5.08452H66.7793V3.59529H59.7305V12.5161H63.7942C66.07 12.5161 67.3851 11.4941 67.3851 9.71284C67.3851 8.0046 66.203 7.07017 64.0455 7.07017H61.6811ZM61.6811 11.0269V8.55941H63.7204C64.9617 8.55941 65.538 8.96822 65.538 9.80044C65.538 10.6327 64.9321 11.0415 63.7204 11.0415H61.6811V11.0269Z" fill="white"/>
<path d="M13.9664 3.52234C14.321 3.97495 14.6166 4.47136 14.8678 4.99697L8.04063 9.97569L5.17383 8.19445V6.0628L8.02586 7.82944L13.9664 3.52234Z" fill="white"/>
<path d="M2.26215 8.04855C2.26215 7.94635 2.26215 7.85875 2.27693 7.75655L0.54798 7.66895C0.54798 7.78575 0.533203 7.91715 0.533203 8.03395C0.533203 10.078 1.37551 11.9322 2.73503 13.2755L3.96155 12.0637C2.91236 11.0416 2.26215 9.62539 2.26215 8.04855Z" fill="white"/>
<path d="M8.02467 2.35436C8.12811 2.35436 8.21677 2.35436 8.32021 2.36896L8.40888 0.660719C8.29066 0.660719 8.15766 0.646118 8.03945 0.646118C5.97062 0.646118 4.09389 1.47834 2.73438 2.82157L3.9609 4.0334C4.99531 2.99677 6.44349 2.35436 8.02467 2.35436Z" fill="white"/>
<path d="M8.02484 13.7426C7.92139 13.7426 7.83273 13.7426 7.72929 13.728L7.64062 15.4363C7.75884 15.4363 7.89184 15.4509 8.01006 15.4509C10.0789 15.4509 11.9556 14.6187 13.3151 13.2754L12.0886 12.0636C11.0542 13.1148 9.62079 13.7426 8.02484 13.7426Z" fill="white"/>
<path d="M11.2764 3.34714L12.7394 2.28131C11.4537 1.25929 9.81345 0.63147 8.02539 0.63147V2.33971C9.23713 2.35431 10.3602 2.71932 11.2764 3.34714Z" fill="white"/>
<path d="M15.5337 8.04848C15.5337 7.59587 15.4893 7.15786 15.4154 6.71985L13.8047 7.90248C13.8047 7.94628 13.8047 8.00468 13.8047 8.04848C13.8047 9.72752 13.0658 11.2314 11.8984 12.268L13.0658 13.5382C14.5731 12.195 15.5337 10.2239 15.5337 8.04848Z" fill="white"/>
<path d="M8.02503 13.7426C6.32564 13.7426 4.80357 13.0126 3.75438 11.8591L2.46875 13.0126C3.84304 14.5164 5.82321 15.4508 8.02503 15.4508V13.7426Z" fill="white"/>
<path d="M4.16843 3.82895L3.00102 2.55872C1.47895 3.91655 0.533203 5.873 0.533203 8.04845H2.26215C2.26215 6.38401 3.00102 4.86557 4.16843 3.82895Z" fill="white"/>
</g>
<defs>
<clipPath id="clip0_3071_1056">
<rect width="97.8261" height="15" fill="white" transform="translate(0.488281 0.5)"/>
</clipPath>
</defs>
</svg>
