<svg width="96" height="16" viewBox="0 0 96 16" fill="none" xmlns="http://www.w3.org/2000/svg">
<path fill-rule="evenodd" clip-rule="evenodd" d="M35.1053 12.1943C36.2521 12.1943 37.1702 11.8763 37.8912 11.2395C38.5943 10.6663 39.0556 9.93417 39.3067 9.04296C39.5493 8.18356 39.5006 7.45106 39.1291 6.84643C38.7583 6.24148 38.0194 5.92342 36.8725 5.92342C35.7253 5.92342 34.8076 6.24148 34.0952 6.84643C33.3832 7.45106 32.9216 8.18356 32.6797 9.04296C32.4285 9.93449 32.4772 10.6663 32.857 11.2395C33.2196 11.8759 33.9584 12.1943 35.1053 12.1943ZM35.5356 10.6663C35.1855 10.6663 34.9343 10.5391 34.8331 10.2207C34.7226 9.93449 34.7347 9.55218 34.8783 9.04296C35.0129 8.56523 35.2164 8.18356 35.4971 7.86486C35.7689 7.57861 36.0914 7.45106 36.4422 7.45106C36.7927 7.45106 37.0435 7.57829 37.1539 7.86486C37.2555 8.18356 37.2431 8.56523 37.1087 9.04296C36.9652 9.5525 36.7618 9.93449 36.4899 10.2207C36.2089 10.5388 35.8864 10.6663 35.5356 10.6663ZM92.1092 10.3642C91.7903 10.3642 91.6031 10.237 91.5159 9.9822C91.3965 9.72775 91.3905 9.40937 91.5073 8.99525C91.6241 8.58114 91.8183 8.23159 92.072 8.00831C92.3034 7.75354 92.5848 7.65812 92.8808 7.62663C93.5499 7.62663 93.7658 8.10404 93.5372 9.02706C93.4207 9.44086 93.2351 9.75924 93.004 10.014C92.7096 10.2691 92.4276 10.3642 92.1092 10.3642ZM90.1023 6.06686L87.8683 13.9936H90.1621L90.8981 11.3829C91.1368 11.8922 91.5748 12.1469 92.1481 12.1469C92.849 12.1469 93.549 11.924 94.2662 11.4144C94.6227 11.1373 94.9318 10.804 95.1813 10.4278C95.4398 10.0776 95.6467 9.56808 95.8399 8.99525C96.0732 8.16766 96.0564 7.43548 95.7807 6.83053C95.5054 6.22557 94.9257 5.9072 94.0338 5.9072C93.6833 5.9072 93.3379 6.00261 92.9426 6.16196C92.5472 6.32099 92.2114 6.60757 91.9218 6.95775H91.8896L92.1408 6.06654L90.1023 6.06686ZM88.2118 9.56713C88.5167 8.48445 88.5129 7.59324 88.0962 6.92467C87.7114 6.25579 86.9493 5.90592 85.8664 5.90592C84.9427 5.90592 84.0972 6.19218 83.3301 6.76532C82.5314 7.33847 81.9976 8.10245 81.7105 9.1212C81.4412 10.076 81.5447 10.8403 82.0381 11.3492C82.491 11.8906 83.184 12.145 84.1399 12.145C84.8408 12.145 85.5137 12.0178 86.2 11.7312C86.886 11.445 87.4437 10.9354 87.8734 10.2032H85.6751C85.5666 10.3626 85.4033 10.4898 85.2171 10.5852C85.0627 10.6807 84.8625 10.7125 84.6712 10.7125C84.3525 10.7125 84.1249 10.617 83.9645 10.3941C83.8041 10.1714 83.7805 9.91668 83.8789 9.56649H88.2118V9.56713ZM84.2109 8.38903C84.3993 7.72046 84.8485 7.36996 85.5583 7.33847C85.8359 7.37028 86.0641 7.4657 86.1695 7.65685C86.307 7.84769 86.3624 8.10245 86.2815 8.38903H84.2109ZM76.4382 12.0124L77.6316 7.77835H75.6558L76.1403 6.05923H82.3847L81.9009 7.77835H79.9251L78.732 12.0124H76.4382ZM75.3556 8.31937C75.4706 7.45997 75.2996 6.82289 74.8021 6.44122C74.2953 6.09072 73.6482 5.89988 72.8836 5.89988C71.8959 5.89988 71.0593 6.15465 70.2925 6.72779C69.5349 7.26913 68.9919 8.06492 68.7048 9.08336C68.4266 10.0703 68.5297 10.8343 69.0148 11.3756C69.4767 11.8848 70.1604 12.1714 71.1163 12.1714C71.9127 12.1714 72.6996 11.9803 73.3805 11.5983C73.7372 11.3985 74.0578 11.1402 74.3288 10.8343C74.6095 10.5162 74.8129 10.1342 75.0023 9.68831H72.7079C72.6134 9.9192 72.468 10.1259 72.2826 10.2929C72.1015 10.4841 71.8516 10.5795 71.5648 10.5795C71.2144 10.5795 70.9954 10.4526 70.9167 10.1657C70.8292 9.91095 70.8324 9.56077 70.967 9.08336C71.0119 8.92432 71.0975 8.73317 71.1835 8.54201C71.2691 8.35086 71.3547 8.16002 71.4633 8.00099C71.5718 7.84164 71.7351 7.71442 71.8895 7.61868C72.0436 7.52326 72.2212 7.45965 72.444 7.45965C72.6987 7.45965 72.8629 7.55507 72.9457 7.7141C73.0689 7.84133 73.0701 8.0646 73.03 8.31905H75.3556V8.31937ZM64.2175 10.8336C63.7075 10.8336 63.4977 10.6743 63.5875 10.3562C63.6413 10.1651 63.7499 10.0057 63.9042 9.91031C64.0586 9.8149 64.2041 9.75128 64.404 9.71948C64.5813 9.65587 64.8134 9.62406 65.0136 9.59225C65.2545 9.52832 65.4637 9.46471 65.7046 9.4011C65.6196 9.8149 65.4662 10.1333 65.2265 10.4198C64.9544 10.7064 64.6316 10.8336 64.2175 10.8336ZM67.5585 11.9796L67.5856 11.8842C67.4621 11.757 67.434 11.6298 67.4382 11.5022C67.4331 11.4068 67.4372 11.2796 67.4821 11.1202L68.2626 8.35054C68.3616 8.00004 68.4511 7.68198 68.4772 7.3636C68.525 7.10086 68.477 6.8297 68.3419 6.5993C68.2136 6.37665 67.9717 6.21731 67.5932 6.09008C67.215 5.96286 66.6911 5.89893 65.9905 5.89893C64.9073 5.89893 64.0249 6.09008 63.4255 6.40814C62.8169 6.75865 62.4505 7.26786 62.271 7.9043H64.5329C64.6682 7.64985 64.8089 7.4905 64.9951 7.39477C65.2042 7.33147 65.3408 7.29935 65.5 7.29935C65.6591 7.29935 65.8097 7.33147 65.9828 7.39477C66.1245 7.4587 66.184 7.58592 66.1531 7.80888C66.0494 8.06333 65.7817 8.223 65.3497 8.28661C65.1492 8.31842 64.9174 8.35022 64.6854 8.38203C64.4215 8.41352 64.1579 8.44532 63.8533 8.50925C63.5983 8.50925 63.3255 8.57287 63.0757 8.66829C62.8029 8.7319 62.5119 8.85944 62.285 8.98635C62.058 9.11325 61.8447 9.30473 61.6547 9.52769C61.4644 9.75065 61.3202 10.0372 61.2215 10.3871C61.0601 10.9602 61.1572 11.4058 61.4908 11.6924C61.7833 12.0108 62.2254 12.138 62.7669 12.138C63.2129 12.138 63.6041 12.1062 63.9587 11.9787C64.3448 11.8514 64.7264 11.6288 65.1256 11.3422L65.0737 11.9787H67.5585V11.9796ZM47.7825 12.0124L48.9759 7.77835H46.9686L47.453 6.05923H53.7293L53.2448 7.77835H51.2378L50.0445 12.0124H47.7825ZM42.7588 10.3642C42.4405 10.3642 42.2534 10.237 42.1655 9.9822C42.0461 9.72775 42.0401 9.40937 42.1569 8.99525C42.2734 8.58145 42.4679 8.23159 42.7219 8.00831C42.953 7.75354 43.2347 7.65812 43.5304 7.62663C44.1995 7.62663 44.4154 8.10404 44.1868 9.02706C44.0703 9.44086 43.8847 9.75924 43.6536 10.014C43.3595 10.2691 43.0775 10.3642 42.7588 10.3642ZM40.7525 6.06686L38.5186 13.9936H40.8127L41.5483 11.3829C41.787 11.8922 42.225 12.1469 42.7986 12.1469C43.4996 12.1469 44.1995 11.924 44.9164 11.4144C45.2729 11.1373 45.582 10.804 45.8315 10.4278C46.0897 10.0776 46.2969 9.56808 46.4905 8.99525C46.7238 8.16766 46.7069 7.43548 46.4316 6.83053C46.1559 6.22557 45.5763 5.9072 44.6843 5.9072C44.3339 5.9072 43.9885 6.00261 43.5932 6.16196C43.1978 6.32099 42.862 6.60757 42.572 6.95775H42.5402L42.7913 6.06654L40.7525 6.06686ZM24.6976 12.0124H26.9599L28.1526 7.77835H29.9689L28.7756 12.0124H31.0697L32.7472 6.05923H26.3751L24.6976 12.0124ZM25.0373 8.31937C25.1522 7.45997 24.9809 6.82289 24.4834 6.44122C23.9769 6.09072 23.3298 5.89988 22.5649 5.89988C21.5772 5.89988 20.7413 6.15465 19.9741 6.72779C19.2165 7.26913 18.6735 8.06492 18.3864 9.08336C18.1085 10.0703 18.2116 10.8343 18.6961 11.3756C19.158 11.8848 19.842 12.1714 20.7976 12.1714C21.594 12.1714 22.3809 11.9803 23.0618 11.5983C23.4184 11.3984 23.739 11.1402 24.01 10.8343C24.2908 10.5162 24.4942 10.1342 24.6836 9.68831H22.3895C22.2951 9.91927 22.1497 10.126 21.9642 10.2929C21.7831 10.4841 21.5332 10.5795 21.2464 10.5795C20.896 10.5795 20.677 10.4526 20.5983 10.1657C20.5108 9.91095 20.514 9.56077 20.6486 9.08336C20.6935 8.92432 20.7791 8.73317 20.8651 8.54201C20.9507 8.35086 21.0363 8.16002 21.1449 8.00099C21.2534 7.84164 21.4167 7.71442 21.5711 7.61868C21.7255 7.52326 21.9028 7.45965 22.1259 7.45965C22.3806 7.45965 22.5448 7.55507 22.6276 7.7141C22.7508 7.84133 22.7517 8.0646 22.712 8.31905H25.0373V8.31937Z" fill="white"/>
<path fill-rule="evenodd" clip-rule="evenodd" d="M54.8379 4.20943L56.4043 11.4959L62.1136 4.16077L57.5627 7.35569L54.8379 4.20943Z" fill="white"/>
<path fill-rule="evenodd" clip-rule="evenodd" d="M54.3665 6.06372L52.6699 11.9968H55.6067L54.3665 6.06372ZM61.5758 6.06372L57.0407 11.9968H59.8795L61.5758 6.06372Z" fill="white"/>
<path fill-rule="evenodd" clip-rule="evenodd" d="M17.8718 2.95142L12.3252 9.23631L0 3.00421L11.651 5.45869L17.8718 2.95142Z" fill="white"/>
<path fill-rule="evenodd" clip-rule="evenodd" d="M1.10938 15.3378L7.60938 7.97244L22.0539 15.2761L8.39944 12.3992L1.10938 15.3378ZM11.2866 0.668478C10.2202 0.754672 9.42028 1.69454 9.50686 2.76068C9.59344 3.82683 10.5341 4.6258 11.6004 4.53928C12.6674 4.45309 13.467 3.51322 13.3804 2.44739C13.2942 1.38125 12.3536 0.582283 11.2866 0.668478Z" fill="white"/>
</svg>
