<svg width="48" height="48" viewBox="0 0 48 48" fill="none" xmlns="http://www.w3.org/2000/svg">
<circle cx="24" cy="24" r="24" fill="white"/>
<path d="M22.7175 11.4134C23.2421 10.3505 24.7579 10.3505 25.2825 11.4134L28.5008 17.9344C28.7091 18.3565 29.1118 18.6491 29.5776 18.7168L36.774 19.7625C37.947 19.9329 38.4154 21.3745 37.5666 22.2019L32.3592 27.2778C32.0221 27.6063 31.8683 28.0797 31.9479 28.5436L33.1772 35.7109C33.3776 36.8792 32.1513 37.7701 31.1021 37.2185L24.6655 33.8346C24.2489 33.6156 23.7511 33.6156 23.3345 33.8346L16.8979 37.2185C15.8487 37.7701 14.6224 36.8792 14.8228 35.7109L16.0521 28.5436C16.1317 28.0797 15.9779 27.6063 15.6408 27.2778L10.4334 22.2019C9.58464 21.3745 10.053 19.9329 11.226 19.7625L18.4224 18.7168C18.8882 18.6491 19.2909 18.3565 19.4992 17.9344L22.7175 11.4134Z" fill="#B62100"/>
</svg>
