<svg width="48" height="48" viewBox="0 0 48 48" fill="none" xmlns="http://www.w3.org/2000/svg">
<circle cx="24" cy="24" r="24" fill="white"/>
<path fill-rule="evenodd" clip-rule="evenodd" d="M19.6618 28.1657C20.0488 29.0999 20.248 30.1012 20.248 31.1124V33.3414L27.682 31.3495V31.1824C27.682 30.1712 27.8811 29.1699 28.2681 28.2357C28.6551 27.3015 29.2222 26.4527 29.9373 25.7377L29.9397 25.7401C31.1144 24.5653 31.9145 23.0686 32.2386 21.4391C32.5627 19.8097 32.3963 18.1207 31.7606 16.5859C31.1248 15.051 30.0481 13.7391 28.6668 12.816C27.2854 11.893 25.6613 11.4004 24 11.4004C22.3386 11.4004 20.7146 11.893 19.3332 12.816C17.9518 13.739 16.8752 15.051 16.2394 16.5858C15.6036 18.1207 15.4373 19.8097 15.7614 21.4391C16.0855 23.0686 16.8855 24.5653 18.0603 25.7401L18.0622 25.7381C18.7445 26.4382 19.2875 27.262 19.6618 28.1657ZM24 13.5004C22.754 13.5004 21.5359 13.8699 20.4999 14.5621C19.4639 15.2544 18.6564 16.2383 18.1795 17.3895C17.7027 18.5407 17.5779 19.8074 17.821 21.0295C18.0577 22.2192 18.6326 23.3145 19.4758 24.1846L19.4776 24.1827C20.3876 25.0928 21.1095 26.1731 21.602 27.3621C21.8639 27.9944 22.0582 28.6508 22.1827 29.3204H25.7605C25.8854 28.675 26.0752 28.0423 26.328 27.4321C26.8205 26.2431 27.5423 25.1628 28.4523 24.2527L28.4548 24.2552C29.3358 23.3741 29.9358 22.2515 30.1789 21.0295C30.422 19.8074 30.2973 18.5407 29.8204 17.3895C29.3436 16.2383 28.5361 15.2544 27.5001 14.5621C26.464 13.8699 25.246 13.5004 24 13.5004Z" fill="#B62100"/>
<path d="M27.682 32.0742L20.248 34.0661V35.2004C20.248 35.2107 20.2481 35.2211 20.2483 35.2313L27.682 33.2395V32.0742Z" fill="#B62100"/>
<path d="M27.682 33.9642L20.4381 35.9052C20.6808 36.321 21.1318 36.6004 21.648 36.6004H26.282C27.0552 36.6004 27.682 35.9736 27.682 35.2004V33.9642Z" fill="#B62100"/>
</svg>
