<svg width="64" height="64" viewBox="0 0 64 64" fill="none" xmlns="http://www.w3.org/2000/svg">
<path d="M42.691 30.389C45.341 30.389 47.336 29.285 48.807 27.363L46.841 25.863C46.3554 26.503 45.7277 27.0215 45.0076 27.3776C44.2874 27.7337 43.4944 27.9177 42.691 27.915C39.815 27.915 37.731 25.572 37.731 22.697C37.731 19.822 39.781 17.347 42.773 17.347C44.103 17.347 45.043 17.661 45.863 18.169V20.697H48.337V17.011L47.863 16.638C46.503 15.568 44.426 15 42.69 15C38.446 15 34.994 18.452 34.994 22.696C34.994 26.936 38.445 30.389 42.691 30.389ZM47.824 45.569L47.736 42.026V33.38H42.576V35.855H45.13V41.721C45.13 44.248 43.2 46.037 41.253 46.037C39.306 46.037 38.29 44.687 38.29 42.161V33.379H33.47V35.854H35.684V42.59C35.684 46.018 37.606 48.38 41.034 48.38C43.004 48.38 44.504 47.287 45.399 45.602H45.439L45.792 47.958H49.757V45.572H47.827V45.567L47.824 45.569ZM34.424 15.363H30.124L26.384 26.223H26.326L22.606 15.363H18.024V17.839H20.601L25.036 30.217H27.392V30.214L32.017 17.84H34.422V15.364L34.424 15.363ZM14 47.99H16.548V45.443H14.001V47.99H14ZM23.84 36.25H23.812L23.652 33.38H19.104V35.636H21.524V45.57H19.104V47.957H30.344V45.617H24.086V39.622C24.369 37.452 25.996 35.599 28.216 35.599H28.256L28.211 37.817H30.685V33.339H28.729C26.489 33.333 24.827 34.545 23.839 36.251L23.84 36.25Z" fill="#212121"/>
</svg>
