<svg width="72" height="20" viewBox="0 0 72 20" fill="none" xmlns="http://www.w3.org/2000/svg">
<g clip-path="url(#clip0_3071_969)">
<path d="M67.87 17.4152C69.2577 17.4152 70.2406 17.1699 70.973 16.6416V14.2454C70.2213 14.7548 69.3155 15.0756 68.0435 15.0756C65.9042 15.0756 65.0176 13.4529 65.0176 10.8869C65.0176 8.18877 66.0969 6.81141 68.0628 6.81141C69.2191 6.81141 70.3562 7.20763 70.9537 7.58499V5.09443C70.3177 4.7548 69.2191 4.50952 67.7158 4.50952C63.8805 4.50952 61.8954 7.20764 61.8954 10.9812C61.9147 15.1133 63.8613 17.4152 67.87 17.4152ZM49.1175 16.3208V13.9246C48.1924 14.5473 46.612 15.0944 45.1665 15.0944C42.9694 15.0944 42.1406 14.0756 42.0057 12.0001H49.2524V10.4529C49.2524 6.13216 47.3058 4.50952 44.3185 4.50952C40.6566 4.50952 38.9221 7.24537 38.9221 11.0001C38.9221 15.3208 41.0999 17.4152 44.916 17.4152C46.824 17.4152 48.2309 16.9057 49.1175 16.3208ZM21.615 4.73594V9.6416H17.6062V4.73594H14.5996V17.1699H17.6062V11.9812H21.615V17.1699H24.6215V4.73594H21.615ZM38.1704 14.8303H36.8406V4.73594H28.0907V5.79254C28.0907 8.83028 27.8979 12.7548 26.8379 14.8303H25.8743V20.0001H28.6496V17.1699H35.3758V20.0001H38.1511V14.8303H38.1704ZM58.6961 17.1699H62.1074L57.2892 10.4718L61.5292 4.73594H58.5034L54.2633 10.4718V4.73594H51.2568V17.1699H54.2633V11.0567L58.6961 17.1699ZM44.2414 6.81141C45.7254 6.81141 46.188 8.01896 46.188 9.58499V9.83028H42.0057C42.0828 7.84914 42.8152 6.81141 44.2414 6.81141ZM33.834 14.8303H29.594C30.4227 12.9624 30.654 9.56612 30.654 7.41518V7.03782H33.834V14.8303Z" fill="white"/>
<path d="M12.0937 17.1698H9.02933V2.32075H7.66095C5.15546 2.32075 3.8449 3.54717 3.8449 5.37736C3.8449 7.45283 4.75073 8.41509 6.62021 9.64151L8.16204 10.6604L3.72927 17.1698H0.433594L4.42309 11.3585C2.12961 9.75472 0.838326 8.18868 0.838326 5.54717C0.838326 2.24528 3.18962 0 7.64167 0H12.0745V17.1698H12.0937Z" fill="white"/>
</g>
<defs>
<clipPath id="clip0_3071_969">
<rect width="70.7317" height="20" fill="white" transform="translate(0.433594)"/>
</clipPath>
</defs>
</svg>
