<svg width="64" height="64" viewBox="0 0 64 64" fill="none" xmlns="http://www.w3.org/2000/svg">
<path d="M49.1514 25.0364C49.1514 25.0364 48.8096 22.6348 47.7568 21.5802C46.4238 20.1922 44.9336 20.1854 44.25 20.1038C39.3555 19.75 32.0068 19.75 32.0068 19.75H31.9932C31.9932 19.75 24.6445 19.75 19.75 20.1038C19.0664 20.1854 17.5762 20.1922 16.2432 21.5802C15.1904 22.6348 14.8555 25.0364 14.8555 25.0364C14.8555 25.0364 14.5 27.86 14.5 30.6767V33.3165C14.5 36.1332 14.8486 38.9567 14.8486 38.9567C14.8486 38.9567 15.1904 41.3584 16.2363 42.413C17.5693 43.801 19.3193 43.7533 20.0986 43.903C22.9014 44.1684 32 44.25 32 44.25C32 44.25 39.3555 44.2364 44.25 43.8894C44.9336 43.8078 46.4238 43.801 47.7568 42.413C48.8096 41.3584 49.1514 38.9567 49.1514 38.9567C49.1514 38.9567 49.5 36.14 49.5 33.3165V30.6767C49.5 27.86 49.1514 25.0364 49.1514 25.0364ZM28.3838 36.521V26.7306L37.8379 31.6428L28.3838 36.521Z" fill="#212121"/>
</svg>
