<svg width="243" height="61" viewBox="0 0 243 61" fill="none" xmlns="http://www.w3.org/2000/svg">
<g clip-path="url(#clip0_5080_10370)">
<path d="M81.6406 53.1495V42.9731H84.9499C86.0481 42.9731 86.8732 43.2014 87.4247 43.6581C87.9807 44.1148 88.2591 44.7905 88.2591 45.6851C88.2591 46.1602 88.1244 46.5821 87.8557 46.95C87.5871 47.3134 87.2208 47.5954 86.7575 47.7959C87.3042 47.9494 87.7353 48.2432 88.0503 48.6765C88.3702 49.105 88.5302 49.6178 88.5302 50.214C88.5302 51.1274 88.2359 51.8448 87.6473 52.3666C87.0587 52.8884 86.2267 53.1495 85.1514 53.1495H81.6406ZM82.9757 48.3897V52.0523H85.1794C85.8002 52.0523 86.2894 51.8915 86.646 51.5698C87.0075 51.2437 87.1882 50.7964 87.1882 50.228C87.1882 49.0027 86.5255 48.3897 85.2002 48.3897H82.9757ZM82.9757 47.3134H84.9914C85.5755 47.3134 86.0412 47.1665 86.3888 46.8731C86.7412 46.5796 86.9171 46.1811 86.9171 45.6781C86.9171 45.1187 86.7551 44.7135 86.4307 44.4619C86.1063 44.2057 85.6125 44.0776 84.9499 44.0776H82.9757V47.3134ZM93.9455 46.7474C93.7509 46.7147 93.5401 46.6983 93.313 46.6983C92.4696 46.6983 91.8973 47.0597 91.596 47.7816V53.1495H90.3098V45.5872H91.5611L91.5818 46.4606C92.0035 45.7853 92.6015 45.4473 93.3756 45.4473C93.626 45.4473 93.8157 45.48 93.9455 45.5451V46.7474ZM96.5318 53.1495H95.2456V45.5872H96.5318V53.1495ZM95.1414 43.5812C95.1414 43.3717 95.2041 43.1945 95.329 43.05C95.4589 42.9056 95.649 42.8332 95.8989 42.8332C96.1493 42.8332 96.3393 42.9056 96.4692 43.05C96.599 43.1945 96.6638 43.3717 96.6638 43.5812C96.6638 43.7908 96.599 43.9655 96.4692 44.1054C96.3393 44.245 96.1493 44.315 95.8989 44.315C95.649 44.315 95.4589 44.245 95.329 44.1054C95.2041 43.9655 95.1414 43.7908 95.1414 43.5812ZM99.813 45.5872L99.8546 46.5375C100.429 45.8107 101.18 45.4473 102.107 45.4473C103.697 45.4473 104.499 46.3489 104.512 48.1523V53.1495H103.226V48.1453C103.222 47.5999 103.097 47.1968 102.851 46.9361C102.61 46.675 102.232 46.5445 101.718 46.5445C101.301 46.5445 100.934 46.6566 100.619 46.88C100.304 47.1039 100.059 47.3973 99.8826 47.7607V53.1495H98.5964V45.5872H99.813ZM106.146 49.3055C106.146 48.1265 106.417 47.1898 106.96 46.4957C107.502 45.7968 108.22 45.4473 109.115 45.4473C110.032 45.4473 110.748 45.7735 111.263 46.4258L111.325 45.5872H112.5V52.9678C112.5 53.9462 112.21 54.7176 111.631 55.2812C111.056 55.8451 110.283 56.127 109.309 56.127C108.767 56.127 108.236 56.0104 107.717 55.7775C107.198 55.5447 106.802 55.2255 106.528 54.8199L107.196 54.0441C107.748 54.7291 108.422 55.0716 109.219 55.0716C109.845 55.0716 110.331 54.8944 110.679 54.5404C111.031 54.1864 111.207 53.6876 111.207 53.0447V52.3948C110.693 52.9911 109.991 53.2894 109.101 53.2894C108.22 53.2894 107.507 52.933 106.96 52.2201C106.417 51.5072 106.146 50.5357 106.146 49.3055ZM107.439 49.4521C107.439 50.3049 107.613 50.976 107.961 51.4651C108.308 51.9496 108.795 52.1919 109.42 52.1919C110.232 52.1919 110.827 51.8215 111.207 51.0808V47.6281C110.813 46.9058 110.222 46.5445 109.434 46.5445C108.809 46.5445 108.32 46.7892 107.968 47.2786C107.615 47.7677 107.439 48.4924 107.439 49.4521ZM115.844 53.1495H114.558V45.5872H115.844V53.1495ZM114.454 43.5812C114.454 43.3717 114.516 43.1945 114.641 43.05C114.771 42.9056 114.961 42.8332 115.211 42.8332C115.462 42.8332 115.652 42.9056 115.781 43.05C115.911 43.1945 115.976 43.3717 115.976 43.5812C115.976 43.7908 115.911 43.9655 115.781 44.1054C115.652 44.245 115.462 44.315 115.211 44.315C114.961 44.315 114.771 44.245 114.641 44.1054C114.516 43.9655 114.454 43.7908 114.454 43.5812ZM119.125 45.5872L119.167 46.5375C119.742 45.8107 120.492 45.4473 121.419 45.4473C123.009 45.4473 123.811 46.3489 123.825 48.1523V53.1495H122.539V48.1453C122.534 47.5999 122.409 47.1968 122.163 46.9361C121.922 46.675 121.545 46.5445 121.03 46.5445C120.613 46.5445 120.247 46.6566 119.932 46.88C119.617 47.1039 119.371 47.3973 119.195 47.7607V53.1495H117.909V45.5872H119.125ZM125.458 49.3055C125.458 48.1265 125.729 47.1898 126.272 46.4957C126.814 45.7968 127.533 45.4473 128.427 45.4473C129.345 45.4473 130.061 45.7735 130.575 46.4258L130.638 45.5872H131.813V52.9678C131.813 53.9462 131.523 54.7176 130.944 55.2812C130.369 55.8451 129.595 56.127 128.622 56.127C128.079 56.127 127.549 56.0104 127.03 55.7775C126.511 55.5447 126.115 55.2255 125.841 54.8199L126.508 54.0441C127.06 54.7291 127.734 55.0716 128.531 55.0716C129.157 55.0716 129.644 54.8944 129.991 54.5404C130.343 54.1864 130.52 53.6876 130.52 53.0447V52.3948C130.005 52.9911 129.303 53.2894 128.413 53.2894C127.533 53.2894 126.819 52.933 126.272 52.2201C125.729 51.5072 125.458 50.5357 125.458 49.3055ZM126.752 49.4521C126.752 50.3049 126.925 50.976 127.273 51.4651C127.621 51.9496 128.107 52.1919 128.733 52.1919C129.544 52.1919 130.139 51.8215 130.52 51.0808V47.6281C130.126 46.9058 129.535 46.5445 128.747 46.5445C128.121 46.5445 127.632 46.7892 127.28 47.2786C126.928 47.7677 126.752 48.4924 126.752 49.4521ZM139.036 43.7559V45.5872H140.44V46.5866H139.036V51.2764C139.036 51.5792 139.098 51.8076 139.223 51.9614C139.348 52.1104 139.562 52.1849 139.863 52.1849C140.011 52.1849 140.215 52.1571 140.475 52.101V53.1495C140.136 53.2428 139.807 53.2894 139.488 53.2894C138.913 53.2894 138.479 53.1147 138.187 52.7652C137.896 52.4157 137.749 51.9193 137.749 51.2764V46.5866H136.38V45.5872H137.749V43.7559H139.036ZM141.469 49.2986C141.469 48.5575 141.612 47.8912 141.9 47.2995C142.192 46.7077 142.595 46.251 143.109 45.9294C143.628 45.6081 144.219 45.4473 144.882 45.4473C145.906 45.4473 146.734 45.8037 147.364 46.5166C147.999 47.2295 148.316 48.1777 148.316 49.3612V49.4521C148.316 50.1883 148.175 50.85 147.892 51.4372C147.614 52.0196 147.213 52.4738 146.69 52.8C146.17 53.1261 145.573 53.2894 144.896 53.2894C143.876 53.2894 143.049 52.933 142.414 52.2201C141.784 51.5072 141.469 50.5635 141.469 49.3894V49.2986ZM142.762 49.4521C142.762 50.291 142.954 50.9642 143.339 51.472C143.728 51.9799 144.247 52.234 144.896 52.234C145.55 52.234 146.069 51.9778 146.453 51.4651C146.838 50.9478 147.03 50.2255 147.03 49.2986C147.03 48.4691 146.833 47.7979 146.439 47.2856C146.05 46.7683 145.531 46.5097 144.882 46.5097C144.247 46.5097 143.735 46.7638 143.346 47.2716C142.956 47.7795 142.762 48.5063 142.762 49.4521ZM149.623 49.3055C149.623 48.1265 149.894 47.1898 150.437 46.4957C150.979 45.7968 151.697 45.4473 152.592 45.4473C153.509 45.4473 154.225 45.7735 154.74 46.4258L154.803 45.5872H155.977V52.9678C155.977 53.9462 155.688 54.7176 155.108 55.2812C154.534 55.8451 153.76 56.127 152.786 56.127C152.244 56.127 151.713 56.0104 151.194 55.7775C150.675 55.5447 150.279 55.2255 150.006 54.8199L150.673 54.0441C151.225 54.7291 151.899 55.0716 152.696 55.0716C153.322 55.0716 153.809 54.8944 154.156 54.5404C154.508 54.1864 154.684 53.6876 154.684 53.0447V52.3948C154.17 52.9911 153.468 53.2894 152.578 53.2894C151.697 53.2894 150.984 52.933 150.437 52.2201C149.894 51.5072 149.623 50.5357 149.623 49.3055ZM150.916 49.4521C150.916 50.3049 151.09 50.976 151.438 51.4651C151.786 51.9496 152.272 52.1919 152.898 52.1919C153.709 52.1919 154.304 51.8215 154.684 51.0808V47.6281C154.29 46.9058 153.699 46.5445 152.911 46.5445C152.286 46.5445 151.797 46.7892 151.445 47.2786C151.092 47.7677 150.916 48.4924 150.916 49.4521ZM161.045 53.2894C160.026 53.2894 159.196 52.9538 158.557 52.2827C157.917 51.6071 157.597 50.7055 157.597 49.5781V49.3403C157.597 48.5902 157.739 47.9215 158.021 47.3343C158.308 46.7425 158.707 46.2813 159.217 45.9506C159.731 45.6151 160.287 45.4473 160.885 45.4473C161.863 45.4473 162.623 45.771 163.166 46.4188C163.708 47.0666 163.979 47.9936 163.979 49.2004V49.7389H158.883C158.902 50.4841 159.117 51.0877 159.53 51.549C159.947 52.0056 160.475 52.234 161.115 52.234C161.569 52.234 161.954 52.1407 162.269 51.9545C162.584 51.7679 162.86 51.5211 163.096 51.2134L163.882 51.8285C163.251 52.8024 162.306 53.2894 161.045 53.2894ZM160.885 46.5097C160.366 46.5097 159.931 46.7008 159.578 47.083C159.226 47.4603 159.008 47.9915 158.925 48.6765H162.693V48.5784C162.656 47.9215 162.48 47.4137 162.165 47.0548C161.849 46.6914 161.423 46.5097 160.885 46.5097ZM167.219 43.7559V45.5872H168.623V46.5866H167.219V51.2764C167.219 51.5792 167.281 51.8076 167.406 51.9614C167.532 52.1104 167.744 52.1849 168.046 52.1849C168.194 52.1849 168.398 52.1571 168.657 52.101V53.1495C168.319 53.2428 167.99 53.2894 167.67 53.2894C167.096 53.2894 166.663 53.1147 166.37 52.7652C166.078 52.4157 165.932 51.9193 165.932 51.2764V46.5866H164.563V45.5872H165.932V43.7559H167.219ZM171.418 46.5027C171.988 45.7992 172.729 45.4473 173.642 45.4473C175.232 45.4473 176.034 46.3489 176.047 48.1523V53.1495H174.761V48.1453C174.757 47.5999 174.632 47.1968 174.386 46.9361C174.145 46.675 173.767 46.5445 173.253 46.5445C172.836 46.5445 172.469 46.6566 172.154 46.88C171.839 47.1039 171.593 47.3973 171.418 47.7607V53.1495H170.131V42.4141H171.418V46.5027ZM181.095 53.2894C180.075 53.2894 179.245 52.9538 178.606 52.2827C177.966 51.6071 177.647 50.7055 177.647 49.5781V49.3403C177.647 48.5902 177.788 47.9215 178.07 47.3343C178.358 46.7425 178.756 46.2813 179.266 45.9506C179.781 45.6151 180.337 45.4473 180.935 45.4473C181.912 45.4473 182.673 45.771 183.215 46.4188C183.757 47.0666 184.028 47.9936 184.028 49.2004V49.7389H178.932C178.951 50.4841 179.167 51.0877 179.579 51.549C179.996 52.0056 180.524 52.234 181.164 52.234C181.618 52.234 182.003 52.1407 182.318 51.9545C182.633 51.7679 182.909 51.5211 183.145 51.2134L183.931 51.8285C183.3 52.8024 182.355 53.2894 181.095 53.2894ZM180.935 46.5097C180.416 46.5097 179.98 46.7008 179.628 47.083C179.276 47.4603 179.058 47.9915 178.974 48.6765H182.742V48.5784C182.705 47.9215 182.529 47.4137 182.214 47.0548C181.899 46.6914 181.472 46.5097 180.935 46.5097ZM189.159 46.7474C188.964 46.7147 188.753 46.6983 188.526 46.6983C187.683 46.6983 187.11 47.0597 186.809 47.7816V53.1495H185.523V45.5872H186.774L186.795 46.4606C187.217 45.7853 187.815 45.4473 188.589 45.4473C188.839 45.4473 189.029 45.48 189.159 45.5451V46.7474Z" fill="white"/>
<path d="M92.9329 9.31885C96.1251 9.31885 99.5147 10.391 101.841 12.6953L99.1477 17.1056C97.6174 15.7689 95.3253 14.669 93.1995 14.669C88.4458 14.669 86.4862 18.0454 86.4862 21.4845C86.4862 25.0281 88.612 28.6691 93.1995 28.6691C95.5573 28.6691 97.8874 27.3638 99.5147 25.7277L102.506 30.0058C102.188 30.3364 101.845 30.6567 101.478 30.9665C99.4316 32.693 96.6237 34.0123 92.9329 34.0123C85.2882 34.0123 80.4688 28.7004 80.4688 21.6168C80.4688 14.6655 85.5894 9.31885 92.9329 9.31885Z" fill="white"/>
<path d="M115.453 9.31885C122.831 9.31885 127.883 14.6655 127.883 21.5159C127.883 28.5333 122.831 34.0123 115.453 34.0123C108.075 34.0123 103.023 28.5333 103.023 21.5159C103.02 14.6655 108.071 9.31885 115.453 9.31885ZM115.453 28.6656C119.21 28.6656 121.869 25.592 121.869 21.5159C121.869 17.6068 119.21 14.6655 115.453 14.6655C111.696 14.6655 109.037 17.6068 109.037 21.5159C109.037 25.592 111.696 28.6656 115.453 28.6656Z" fill="white"/>
<path d="M131.07 9.71906H136.953L143.534 20.8788C144.466 22.4487 145.529 24.9549 145.529 24.9549H145.595C145.595 24.9549 145.328 22.3825 145.328 20.8788V9.71906H151.145V33.6119H145.293L138.68 22.4835C137.749 20.9136 136.686 18.4073 136.686 18.4073H136.62C136.62 18.4073 136.887 20.9797 136.887 22.4835V33.6119H131.07V9.71906Z" fill="white"/>
<path d="M161.931 14.7315H154.719V9.71906H174.959V14.7315H167.747V33.6119H161.931V14.7315Z" fill="white"/>
<path d="M182.351 9.71906H188.465L196.543 33.6119H190.56L189.099 28.5994H181.686L180.256 33.6119H174.273L182.351 9.71906ZM187.735 23.9211L186.405 19.2776C185.972 17.7738 185.443 15.1666 185.443 15.1666H185.377C185.377 15.1666 184.844 17.7738 184.414 19.2776L183.05 23.9211H187.735Z" fill="white"/>
<path d="M209.925 9.31885C213.117 9.31885 216.507 10.391 218.834 12.6953L216.14 17.1056C214.61 15.7689 212.318 14.669 210.192 14.669C205.438 14.669 203.478 18.0454 203.478 21.4845C203.478 25.0281 205.604 28.6691 210.192 28.6691C212.549 28.6691 214.88 27.3638 216.507 25.7277L219.498 30.0058C217.404 32.1778 214.281 34.0157 209.925 34.0157C202.28 34.0157 197.461 28.7039 197.461 21.6203C197.461 14.6655 202.578 9.31885 209.925 9.31885Z" fill="white"/>
<path d="M229.337 14.7315H222.125V9.71906H242.365V14.7315H235.154V33.6119H229.337V14.7315Z" fill="white"/>
<path fill-rule="evenodd" clip-rule="evenodd" d="M53.9123 19.1177C56.2563 18.4877 58.666 19.8905 59.2927 22.247C59.9713 24.7985 60.3141 27.437 60.3106 30.0895C60.3106 46.8047 46.787 60.401 30.1612 60.401C13.5388 60.401 0.0117188 46.8047 0.0117188 30.0895C0.0117188 16.34 9.2352 4.28914 22.4438 0.780403C24.7912 0.153843 27.1975 1.5636 27.8172 3.92364C28.437 6.28368 27.0382 8.7029 24.6908 9.32598C15.3357 11.8079 8.80242 20.3465 8.80242 30.0895C8.80242 35.3108 10.6686 40.104 13.7604 43.8285C13.4107 42.7425 13.2168 41.5834 13.2168 40.3755C13.2168 34.1725 18.2198 29.1461 24.3861 29.1461C30.5559 29.1461 35.5554 34.176 35.5554 40.3755C35.5554 45.7117 31.8473 50.1707 26.8824 51.3124C27.9522 51.4795 29.0498 51.5665 30.1646 51.5665C41.9433 51.5665 51.5234 41.9349 51.5234 30.0929C51.5234 28.2028 51.281 26.3301 50.7997 24.527C50.1731 22.1704 51.5684 19.7478 53.9123 19.1177ZM49.0307 10.175C49.0307 14.2179 45.771 17.4953 41.7496 17.4953C37.7282 17.4953 34.4684 14.2179 34.4684 10.175C34.4684 6.13208 37.7282 2.85465 41.7496 2.85465C45.771 2.85465 49.0307 6.13208 49.0307 10.175Z" fill="#F58A1F"/>
</g>
<defs>
<clipPath id="clip0_5080_10370">
<rect width="243" height="61" fill="white"/>
</clipPath>
</defs>
</svg>
