<?xml version="1.0" encoding="utf-8"?>
<!-- Generator: Adobe Illustrator 27.5.0, SVG Export Plug-In . SVG Version: 6.00 Build 0)  -->
<svg version="1.1" id="Capa_1" xmlns="http://www.w3.org/2000/svg" xmlns:xlink="http://www.w3.org/1999/xlink" x="0px" y="0px"
	 viewBox="0 0 2122 2122" style="enable-background:new 0 0 2122 2122;" xml:space="preserve">
<path style="fill:#004042;" d="M1778.228,1413.999c-0.002-1.85-0.037-3.699-0.059-5.548c-0.024-1.94-0.031-3.88-0.078-5.82
	c-0.047-1.881-0.127-3.76-0.193-5.641c-0.065-1.898-0.117-3.797-0.207-5.693c-0.09-1.917-0.217-3.831-0.329-5.746
	c-0.11-1.865-0.205-3.732-0.336-5.596c-0.131-1.898-0.304-3.794-0.46-5.69c-0.156-1.881-0.294-3.762-0.473-5.641
	c-0.178-1.898-0.397-3.792-0.599-5.688c-0.197-1.865-0.38-3.732-0.602-5.594c-0.226-1.921-0.494-3.837-0.748-5.755
	c-0.241-1.838-0.463-3.677-0.726-5.512c-0.278-1.935-0.597-3.865-0.899-5.797c-0.282-1.81-0.548-3.621-0.853-5.427
	c-0.326-1.947-0.697-3.888-1.052-5.832c-0.324-1.788-0.629-3.578-0.977-5.363c-0.378-1.95-0.799-3.893-1.203-5.839
	c-0.368-1.769-0.716-3.542-1.104-5.308c-0.432-1.957-0.909-3.905-1.365-5.857c-0.412-1.749-0.799-3.502-1.23-5.248
	c-0.48-1.941-1.006-3.875-1.511-5.812c-0.458-1.747-0.891-3.498-1.369-5.24c-0.538-1.959-1.123-3.909-1.686-5.862
	c-0.494-1.71-0.967-3.424-1.481-5.129c-0.621-2.061-1.293-4.11-1.946-6.164c-0.507-1.587-0.987-3.178-1.51-4.76
	c-0.738-2.234-1.528-4.455-2.304-6.68c-0.485-1.394-0.946-2.794-1.445-4.185c-0.899-2.496-1.851-4.979-2.796-7.463
	c-0.424-1.111-0.821-2.229-1.252-3.338c-1.401-3.588-2.848-7.164-4.348-10.727C1632.75,973.9,1314.772,864.899,1151.7,631.921
	c-18.938-27.076-35.812-55.873-55.654-82.181c14.582-1.7,27.342-2.643,40.053-11.469c5.155-3.578,7.516-8.563,7.854-13.769
	c0.019-0.285,0.073-0.566,0.08-0.852c0.036-1.686-0.161-3.387-0.521-5.067c-0.034-0.151-0.044-0.304-0.078-0.455
	c-1.72-7.309-6.965-14.122-13.805-17.171c-2.765-1.23-5.628-2.054-8.541-2.633c-0.297-0.059-0.585-0.155-0.882-0.207
	c-1.06-0.19-2.141-0.29-3.215-0.41c-0.56-0.062-1.111-0.167-1.674-0.211c-0.93-0.074-1.871-0.079-2.809-0.109
	c-0.723-0.024-1.442-0.082-2.168-0.082c-0.012,0-0.022-0.001-0.034-0.001c-1.087,0-2.183,0.059-3.276,0.106
	c-0.568,0.023-1.13,0.019-1.698,0.054c-5.028,0.308-10.098,1.022-15.091,1.794c18.1-38.359,45.352-72.448,79.425-97.739
	c21.815-16.202,46.711-29.506,62.723-51.417c1.349-1.848,2.614-3.754,3.801-5.702c0.385-0.629,0.711-1.288,1.079-1.927
	c0.767-1.338,1.54-2.675,2.231-4.052c0.4-0.797,0.743-1.619,1.119-2.427c0.584-1.257,1.179-2.51,1.703-3.795
	c0.36-0.885,0.667-1.79,0.999-2.686c0.458-1.239,0.926-2.475,1.328-3.734c0.304-0.949,0.56-1.912,0.833-2.871
	c0.348-1.231,0.704-2.462,1.001-3.707c0.239-0.997,0.434-2.003,0.641-3.008c0.251-1.228,0.499-2.457,0.701-3.694
	c0.168-1.031,0.297-2.066,0.429-3.104c0.159-1.224,0.309-2.45,0.417-3.679c0.095-1.056,0.156-2.112,0.215-3.171
	c0.066-1.221,0.119-2.442,0.139-3.664c0.007-0.47,0.054-0.939,0.054-1.409c0-0.675-0.051-1.348-0.066-2.022
	c-0.019-0.972-0.046-1.945-0.095-2.916c-0.063-1.193-0.161-2.381-0.268-3.571c-0.088-0.967-0.173-1.933-0.29-2.896
	c-0.146-1.191-0.331-2.374-0.524-3.558c-0.153-0.949-0.297-1.899-0.482-2.843c-0.229-1.19-0.509-2.369-0.787-3.548
	c-0.217-0.921-0.421-1.847-0.667-2.761c-0.322-1.194-0.699-2.37-1.07-3.549c-0.275-0.878-0.531-1.763-0.833-2.631
	c-0.426-1.217-0.916-2.409-1.393-3.606c-0.324-0.805-0.616-1.621-0.962-2.416c-0.57-1.304-1.21-2.574-1.844-3.848
	c-0.326-0.657-0.619-1.33-0.962-1.977c-1.011-1.905-2.092-3.775-3.257-5.599c-1.113-1.745-2.305-3.433-3.542-5.084
	c-0.404-0.537-0.835-1.051-1.252-1.578c-0.868-1.099-1.749-2.186-2.67-3.24c-0.509-0.586-1.038-1.155-1.566-1.726
	c-0.887-0.962-1.79-1.905-2.721-2.825c-0.563-0.557-1.13-1.11-1.707-1.651c-0.977-0.914-1.976-1.798-2.992-2.667
	c-0.56-0.479-1.113-0.967-1.685-1.433c-1.211-0.987-2.458-1.93-3.722-2.854c-0.405-0.295-0.792-0.61-1.201-0.898
	c-1.688-1.192-3.417-2.328-5.184-3.405c-0.4-0.245-0.816-0.463-1.221-0.701c-1.381-0.814-2.774-1.603-4.197-2.345
	c-0.633-0.33-1.279-0.637-1.919-0.953c-1.225-0.605-2.461-1.191-3.71-1.742c-0.709-0.312-1.425-0.612-2.141-0.906
	c-1.235-0.508-2.48-0.986-3.737-1.441c-0.712-0.259-1.423-0.519-2.144-0.76c-1.354-0.454-2.724-0.865-4.098-1.256
	c-0.624-0.177-1.24-0.373-1.866-0.537c-4-1.051-8.068-1.833-12.168-2.334c-0.646-0.078-1.293-0.122-1.939-0.187
	c-1.411-0.141-2.821-0.262-4.234-0.335c-0.772-0.04-1.547-0.055-2.321-0.075c-0.721-0.018-1.445-0.07-2.168-0.07
	c-0.414,0-0.823,0.053-1.237,0.059c-1.737,0.025-3.474,0.118-5.208,0.249c-0.782,0.059-1.566,0.094-2.348,0.176
	c-2.495,0.26-4.982,0.604-7.449,1.094c-21.474,4.253-40.88,16.309-62.448,20.003c-1.077,0.203-2.117,0.33-3.194,0.495
	c-41.444,5.559-80.596-19.497-118.051-38.801c-38.439-19.827-88.981-33.12-121.962-5.17c-25.674,21.767-30.919,61.507-57.743,81.781
	c-17.334,13.079-40.14,15.382-61.619,18.462c-48.789,6.977-99.669,22.049-131.892,59.332
	c-32.256,37.282-36.189,101.976,2.979,131.865c20.408,15.59,47.277,18.873,72.428,24.133
	c57.722,12.088,112.508,37.699,159.003,73.978v0c-16.984,8.27-33.116,18.485-43.849,32.794c-6.217,8.29-0.502,23.077,10.646,22.982
	c18.295-0.168,36.437-6.544,53.986-13.702v0c-21.496,146.229-88.827,262.462-168.279,388.411
	c-77.598,123.039-158.324,247.155-197.604,387.223c-39.281,140.068-30.897,301.685,58.457,416.468
	c69.214,88.966,177.469,138.927,286,169.281c94.22,26.319,193.627,39.318,291.882,36.493
	c149.198-4.221,295.63-44.957,416.959-130.74c4.18-2.957,8.307-5.995,12.405-9.07c1.035-0.775,2.066-1.554,3.094-2.336
	c4.022-3.06,8.017-6.156,11.959-9.326c0.056-0.044,0.112-0.088,0.168-0.132c3.995-3.215,7.93-6.506,11.84-9.831
	c0.977-0.832,1.951-1.668,2.923-2.506c3.801-3.276,7.571-6.586,11.286-9.963c0.095-0.086,0.193-0.169,0.285-0.255
	c3.795-3.453,7.53-6.977,11.235-10.532c0.93-0.894,1.859-1.792,2.787-2.693c3.567-3.469,7.103-6.971,10.587-10.531
	c0.122-0.126,0.249-0.248,0.37-0.374c3.586-3.674,7.111-7.413,10.602-11.181c0.882-0.951,1.759-1.907,2.636-2.865
	c3.311-3.62,6.589-7.269,9.812-10.969c0.173-0.2,0.351-0.394,0.524-0.594c3.369-3.879,6.672-7.816,9.942-11.78
	c0.816-0.99,1.627-1.984,2.438-2.978c3.082-3.784,6.13-7.596,9.118-11.454c0.188-0.241,0.38-0.477,0.568-0.719
	c3.138-4.06,6.204-8.172,9.24-12.309c0.77-1.048,1.53-2.098,2.292-3.151c2.828-3.907,5.62-7.841,8.356-11.813
	c0.207-0.298,0.419-0.592,0.624-0.891c2.899-4.229,5.729-8.504,8.524-12.803c0.707-1.086,1.405-2.175,2.102-3.265
	c2.572-4.012,5.106-8.045,7.583-12.114c0.224-0.368,0.456-0.73,0.677-1.098c2.651-4.376,5.233-8.794,7.771-13.232
	c0.641-1.12,1.277-2.242,1.91-3.366c2.319-4.114,4.601-8.249,6.826-12.413c0.224-0.418,0.455-0.83,0.677-1.248
	c2.394-4.508,4.714-9.051,6.991-13.613c0.578-1.156,1.147-2.313,1.718-3.472c2.065-4.201,4.09-8.419,6.056-12.663
	c0.214-0.461,0.438-0.918,0.651-1.38c2.129-4.623,4.18-9.276,6.187-13.945c0.512-1.184,1.011-2.372,1.513-3.559
	c1.798-4.253,3.554-8.521,5.25-12.809c0.209-0.531,0.431-1.058,0.641-1.589c1.849-4.713,3.62-9.452,5.347-14.205
	c0.441-1.213,0.872-2.428,1.306-3.644c1.525-4.289,3.008-8.591,4.434-12.909c0.195-0.594,0.402-1.184,0.597-1.778
	c1.564-4.792,3.048-9.604,4.485-14.427c0.366-1.228,0.721-2.458,1.08-3.689c1.259-4.333,2.475-8.677,3.63-13.034
	c0.168-0.631,0.348-1.259,0.514-1.89c1.269-4.857,2.458-9.73,3.596-14.61c0.29-1.24,0.57-2.481,0.85-3.722
	c0.987-4.358,1.925-8.723,2.804-13.097c0.137-0.674,0.285-1.346,0.419-2.021c0.965-4.901,1.849-9.813,2.68-14.731
	c0.21-1.253,0.412-2.506,0.614-3.759c0.706-4.366,1.364-8.737,1.963-13.113c0.095-0.709,0.207-1.417,0.3-2.126
	c0.656-4.931,1.223-9.868,1.737-14.808c0.129-1.258,0.249-2.516,0.371-3.774c0.421-4.361,0.794-8.725,1.105-13.09
	c0.054-0.742,0.12-1.483,0.171-2.226c0.331-4.947,0.575-9.896,0.763-14.844c0.046-1.249,0.08-2.496,0.119-3.745
	c0.132-4.343,0.212-8.685,0.232-13.027c0.002-0.587,0.031-1.174,0.031-1.761C1778.235,1414.493,1778.228,1414.246,1778.228,1413.999
	z"/>
<path style="fill:#032C29;" d="M1778.228,1413.999c-0.002-1.85-0.037-3.699-0.059-5.548c-0.024-1.94-0.031-3.88-0.078-5.82
	c-0.047-1.881-0.127-3.76-0.193-5.641c-0.065-1.898-0.117-3.797-0.207-5.693c-0.09-1.917-0.217-3.831-0.329-5.746
	c-0.11-1.865-0.205-3.732-0.336-5.596c-0.131-1.898-0.304-3.794-0.46-5.69c-0.156-1.881-0.294-3.762-0.473-5.641
	c-0.178-1.898-0.397-3.792-0.599-5.688c-0.197-1.865-0.38-3.732-0.602-5.594c-0.226-1.921-0.494-3.837-0.748-5.755
	c-0.241-1.838-0.463-3.677-0.726-5.512c-0.278-1.935-0.597-3.865-0.899-5.797c-0.282-1.81-0.548-3.621-0.853-5.427
	c-0.326-1.947-0.697-3.888-1.052-5.832c-0.324-1.788-0.629-3.578-0.977-5.363c-0.378-1.95-0.799-3.893-1.203-5.839
	c-0.368-1.769-0.716-3.542-1.104-5.308c-0.432-1.957-0.909-3.905-1.365-5.857c-0.412-1.749-0.799-3.502-1.23-5.248
	c-0.48-1.941-1.006-3.875-1.511-5.812c-0.458-1.747-0.891-3.498-1.369-5.24c-0.538-1.959-1.123-3.909-1.686-5.862
	c-0.494-1.71-0.967-3.424-1.481-5.129c-0.621-2.061-1.293-4.11-1.946-6.164c-0.507-1.587-0.987-3.178-1.51-4.76
	c-0.738-2.234-1.528-4.455-2.304-6.68c-0.485-1.394-0.946-2.794-1.445-4.185c-0.899-2.496-1.851-4.979-2.796-7.463
	c-0.424-1.111-0.821-2.229-1.252-3.338c-1.401-3.588-2.848-7.164-4.348-10.727C1632.75,973.9,1314.772,864.899,1151.7,631.921
	c-18.938-27.076-35.812-55.873-55.654-82.181c0,0,0-0.001-0.002-0.002c14.582-1.701,27.342-2.644,40.054-11.469
	c5.156-3.577,7.517-8.561,7.856-13.767c0.019-0.285,0.073-0.566,0.08-0.852c0.036-1.686-0.161-3.387-0.521-5.067
	c-0.034-0.151-0.044-0.304-0.078-0.455c-1.72-7.308-6.965-14.12-13.808-17.169c-2.765-1.23-5.625-2.056-8.538-2.635
	c-0.297-0.059-0.585-0.155-0.882-0.207c-1.06-0.19-2.141-0.29-3.215-0.41c-0.56-0.062-1.111-0.167-1.674-0.211
	c-0.93-0.074-1.871-0.079-2.809-0.109c-0.723-0.024-1.442-0.082-2.168-0.082c-1.099,0-2.205,0.057-3.311,0.104
	c-0.568,0.023-1.13,0.019-1.698,0.054c-5.028,0.308-10.098,1.023-15.091,1.797v-0.003c18.1-38.359,45.352-72.448,79.425-97.739
	c21.815-16.202,46.711-29.506,62.723-51.417c1.349-1.848,2.614-3.754,3.801-5.702c0.385-0.629,0.711-1.288,1.079-1.927
	c0.767-1.338,1.54-2.675,2.231-4.052c0.4-0.797,0.743-1.619,1.119-2.427c0.584-1.257,1.179-2.51,1.703-3.795
	c0.36-0.885,0.667-1.79,0.999-2.686c0.458-1.239,0.926-2.475,1.328-3.734c0.304-0.949,0.56-1.912,0.833-2.871
	c0.348-1.231,0.704-2.462,1.001-3.707c0.239-0.997,0.434-2.003,0.641-3.008c0.251-1.228,0.499-2.457,0.701-3.694
	c0.168-1.031,0.297-2.066,0.429-3.104c0.159-1.224,0.309-2.45,0.417-3.679c0.095-1.056,0.156-2.112,0.215-3.171
	c0.066-1.221,0.119-2.442,0.139-3.664c0.007-0.47,0.054-0.939,0.054-1.409c0-0.675-0.051-1.348-0.066-2.022
	c-0.019-0.972-0.046-1.945-0.095-2.916c-0.063-1.193-0.161-2.381-0.268-3.571c-0.088-0.967-0.173-1.933-0.29-2.896
	c-0.146-1.191-0.331-2.374-0.524-3.558c-0.153-0.949-0.297-1.899-0.482-2.843c-0.229-1.19-0.509-2.369-0.787-3.548
	c-0.217-0.921-0.421-1.847-0.667-2.761c-0.322-1.194-0.699-2.37-1.07-3.549c-0.275-0.878-0.531-1.763-0.833-2.631
	c-0.426-1.217-0.916-2.409-1.393-3.606c-0.324-0.805-0.616-1.621-0.962-2.416c-0.57-1.304-1.21-2.574-1.844-3.848
	c-0.326-0.657-0.619-1.33-0.962-1.977c-1.011-1.905-2.092-3.775-3.257-5.599c-1.113-1.745-2.305-3.433-3.542-5.084
	c-0.404-0.537-0.835-1.051-1.252-1.578c-0.868-1.099-1.749-2.186-2.67-3.24c-0.509-0.586-1.038-1.155-1.566-1.726
	c-0.887-0.962-1.79-1.905-2.721-2.825c-0.563-0.557-1.13-1.11-1.707-1.651c-0.977-0.914-1.976-1.798-2.992-2.667
	c-0.56-0.479-1.113-0.967-1.685-1.433c-1.211-0.987-2.458-1.93-3.722-2.854c-0.405-0.295-0.792-0.61-1.201-0.898
	c-1.688-1.192-3.417-2.328-5.184-3.405c-0.4-0.245-0.816-0.463-1.221-0.701c-1.381-0.814-2.774-1.603-4.197-2.345
	c-0.633-0.33-1.279-0.637-1.919-0.953c-1.225-0.605-2.461-1.191-3.71-1.742c-0.709-0.312-1.425-0.612-2.141-0.906
	c-1.235-0.508-2.48-0.986-3.737-1.441c-0.712-0.259-1.423-0.519-2.144-0.76c-1.354-0.454-2.724-0.865-4.098-1.256
	c-0.624-0.177-1.24-0.373-1.866-0.537c-4-1.051-8.068-1.833-12.168-2.334c-0.646-0.078-1.293-0.122-1.939-0.187
	c-1.411-0.141-2.821-0.262-4.234-0.335c-0.772-0.04-1.547-0.055-2.321-0.075c-0.721-0.018-1.445-0.07-2.168-0.07
	c-0.414,0-0.823,0.053-1.237,0.059c-1.737,0.025-3.474,0.118-5.208,0.249c-0.782,0.059-1.566,0.094-2.348,0.176
	c-2.495,0.26-4.982,0.604-7.449,1.094c-21.474,4.253-40.88,16.309-62.448,20.003c-1.077,0.203-2.117,0.33-3.194,0.495
	c-3.944,27.209-11.993,54.098-20.743,78.546c-19.476,54.626-46.136,107.594-59.067,163.631c-2.999,13.037-5.281,26.218-6.523,39.665
	c-0.139,1.562-0.267,3.123-0.373,4.69v0.002c-16.01,3.776-31.906,7.963-47.697,12.601c-30.003,8.789-59.347,19.284-88.141,31.437
	l-1.218,0.516c-10.534,4.436-21.998,9.045-33.096,14.492v0c-16.984,8.27-33.116,18.485-43.849,32.794
	c-6.217,8.29-0.502,23.077,10.646,22.982c18.295-0.168,36.437-6.544,53.986-13.702c0,0,0.002,0,0.002,0
	c6.041-2.48,12.053-5.035,17.939-7.455c3.381-1.393,6.723-2.75,10.061-4.036c29.145-11.172,58.972-20.855,88.984-29.386
	c11.084-3.14,22.217-6.056,33.374-8.789c4.638,41.513,18.292,81.721,37.885,119.803c27.428,53.352,66.499,102.472,108.638,145.046
	c85.596,86.392,187.332,157.811,259.349,255.81c88.96,121.057,125.639,279.225,99.018,427.064
	c-27.481,152.705-119.043,288.893-235.622,391.285c-46.331,40.746-96.492,76.547-149.172,108.536
	c149.198-4.221,295.63-44.957,416.959-130.74c4.18-2.957,8.307-5.995,12.405-9.07c1.035-0.775,2.066-1.554,3.094-2.336
	c4.022-3.06,8.017-6.156,11.959-9.326c0.056-0.044,0.112-0.088,0.168-0.132c3.995-3.215,7.93-6.506,11.84-9.831
	c0.977-0.832,1.951-1.668,2.923-2.506c3.801-3.276,7.571-6.586,11.286-9.963c0.095-0.086,0.193-0.169,0.285-0.255
	c3.795-3.453,7.53-6.977,11.235-10.532c0.93-0.894,1.859-1.792,2.787-2.693c3.567-3.469,7.103-6.971,10.587-10.531
	c0.122-0.126,0.249-0.248,0.37-0.374c3.586-3.674,7.111-7.413,10.602-11.181c0.882-0.951,1.759-1.907,2.636-2.865
	c3.311-3.62,6.589-7.269,9.812-10.969c0.173-0.2,0.351-0.394,0.524-0.594c3.369-3.879,6.672-7.816,9.942-11.78
	c0.816-0.99,1.627-1.984,2.438-2.978c3.082-3.784,6.13-7.596,9.118-11.454c0.188-0.241,0.38-0.477,0.568-0.719
	c3.138-4.06,6.204-8.172,9.24-12.309c0.77-1.048,1.53-2.098,2.292-3.151c2.828-3.907,5.62-7.841,8.356-11.813
	c0.207-0.298,0.419-0.592,0.624-0.891c2.899-4.229,5.729-8.504,8.524-12.803c0.707-1.086,1.405-2.175,2.102-3.265
	c2.572-4.012,5.106-8.045,7.583-12.114c0.224-0.368,0.456-0.73,0.677-1.098c2.651-4.376,5.233-8.794,7.771-13.232
	c0.641-1.12,1.277-2.242,1.91-3.366c2.319-4.114,4.601-8.249,6.826-12.413c0.224-0.418,0.455-0.83,0.677-1.248
	c2.394-4.508,4.714-9.051,6.991-13.613c0.578-1.156,1.147-2.313,1.718-3.472c2.065-4.201,4.09-8.419,6.056-12.663
	c0.214-0.461,0.438-0.918,0.651-1.38c2.129-4.623,4.18-9.276,6.187-13.945c0.512-1.184,1.011-2.372,1.513-3.559
	c1.798-4.253,3.554-8.521,5.25-12.809c0.209-0.531,0.431-1.058,0.641-1.589c1.849-4.713,3.62-9.452,5.347-14.205
	c0.441-1.213,0.872-2.428,1.306-3.644c1.525-4.289,3.008-8.591,4.434-12.909c0.195-0.594,0.402-1.184,0.597-1.778
	c1.564-4.792,3.048-9.604,4.485-14.427c0.366-1.228,0.721-2.458,1.08-3.689c1.259-4.333,2.475-8.677,3.63-13.034
	c0.168-0.631,0.348-1.259,0.514-1.89c1.269-4.857,2.458-9.73,3.596-14.61c0.29-1.24,0.57-2.481,0.85-3.722
	c0.987-4.358,1.925-8.723,2.804-13.097c0.137-0.674,0.285-1.346,0.419-2.021c0.965-4.901,1.849-9.813,2.68-14.731
	c0.21-1.253,0.412-2.506,0.614-3.759c0.706-4.366,1.364-8.737,1.963-13.113c0.095-0.709,0.207-1.417,0.3-2.126
	c0.656-4.931,1.223-9.868,1.737-14.808c0.129-1.258,0.249-2.516,0.371-3.774c0.421-4.361,0.794-8.725,1.105-13.09
	c0.054-0.742,0.12-1.483,0.171-2.226c0.331-4.947,0.575-9.896,0.763-14.844c0.046-1.249,0.08-2.496,0.119-3.745
	c0.132-4.343,0.212-8.685,0.232-13.027c0.002-0.587,0.031-1.174,0.031-1.761C1778.235,1414.493,1778.228,1414.246,1778.228,1413.999
	z"/>
<path style="fill:#90A667;" d="M852.57,1256.327c-63.352,82.555-106.894,188.927-83.347,290.287
	c7.166,30.849,20.883,60.773,42.233,83.949c1.297-6.15,2.648-12.289,4.096-18.41c10.093-42.633,23.936-84.256,40.702-124.698
	c-34.994-41.632-43.295-102.013-15.342-149.803c8.765-14.979,29.422-4.346,26.558,11.196c-5.219,28.286-1.63,60.695,12.249,86.863
	c16.736-33.597,35.961-65.743,57.482-96.489c-20.842-32.884-24.966-75.651-6.515-110.934c6.383-12.2,22.539-3.009,20.594,8.682
	c-3.863,23.218-0.701,48.35,10.324,68.964c29.118-38.609,62.192-81.691,103.274-106.229c12.755-7.618,29.929,8.046,21.096,21.094
	c-27.974,41.328-65.403,75.691-94.597,116.631c0.413,0.245,0.788,0.526,1.208,0.764c16.702,9.455,37.019,12.429,55.947,9.516
	c18.996-2.921,54.012-29.771,69.145-9.571c5.359,7.152,2.855,19.696-3.279,25.42c-38.872,36.265-102.74,37.79-145.806,8.34
	c-20.167,32.446-38.248,66.31-54.195,100.941c13.76,8.206,29.716,13.031,45.511,14.115c22.329,1.533,40.151-7.162,61.247-11.615
	c20.887-4.409,39.196,21.386,21.905,37.637c-37.963,35.683-102.466,30.665-148.058,5.973
	c-13.235,34.588-24.034,70.143-32.488,106.149c-2.957,12.595-5.639,25.27-7.997,38.003c97.526,49.666,215.067-29.267,263.622-116.6
	c85.745-154.214,91.698-340.972,66.728-515.646C1053.851,1067.974,935.469,1148.3,852.57,1256.327z"/>
<path style="fill:#B1C670;" d="M1145.968,518.164l0.003,0l-0.078-0.456l-0.007-0.04l-0.025-0.111
	c-1.92-8.054-7.559-15.428-15.22-18.877c-2.945-1.311-5.958-2.178-8.984-2.784v-0.002l-0.886-0.208l-0.071-0.016l-0.053-0.009
	c-1.201-0.215-2.336-0.317-3.384-0.434c-0.427-0.045-1.011-0.159-1.752-0.22c-1.05-0.082-2.027-0.085-2.921-0.116
	c-0.648-0.02-1.394-0.08-2.239-0.084c-1.198,0-2.338,0.062-3.425,0.107c-0.482,0.022-1.062,0.017-1.742,0.056
	c-5.165,0.318-10.309,1.045-15.325,1.823c-3.871,0.581-7.659,1.204-11.328,1.72l0.017-0.003c-8.185,1.091-16.339,2.329-24.49,3.64
	c-6.787,1.102-13.537,2.28-20.26,3.533c-14.563,2.702-29.089,5.777-43.499,9.228c-16.044,3.784-31.986,7.983-47.821,12.634
	c-30.094,8.816-59.529,19.342-88.408,31.532l-1.222,0.518l0.006-0.003c-10.508,4.426-22.019,9.052-33.228,14.552l-0.188,0.092
	l0.195-0.095c-17.143,8.356-33.625,18.725-44.753,33.54c-2.124,2.834-3.061,6.237-3.059,9.586c0.008,4.247,1.463,8.474,4.129,11.768
	c2.647,3.285,6.671,5.631,11.461,5.619h0.122c18.877-0.185,37.291-6.706,54.917-13.888c6.066-2.49,12.078-5.045,17.945-7.457
	l-0.948-2.307l0.95,2.306c3.372-1.39,6.698-2.74,10.008-4.015c29.06-11.139,58.816-20.8,88.768-29.314
	c11.051-3.131,22.155-6.039,33.286-8.766c18.059-4.384,36.262-8.21,54.569-11.517c8.244-1.478,16.514-2.88,24.799-4.129
	c6.592-0.999,13.177-1.927,19.754-2.78l0.036-0.005l-0.017,0.003c1.605-0.221,3.17-0.409,4.692-0.564l0.02-0.002l0.017-0.002
	c14.468-1.695,27.851-2.641,41.188-11.898c5.754-3.962,8.536-9.755,8.906-15.577l0.007,0.001l0.083-0.85l0.005-0.063l0.005-0.131
	l0.002-0.429C1146.529,521.532,1146.314,519.824,1145.968,518.164z"/>
<path style="fill:#0D5B5B;" d="M649.233,1187.172c50.826-72.514,92.877-152.903,131.527-232.416
	c37.788-77.737,75.147-158.387,97.291-242.136c2.548-9.627-12.287-16.738-16.677-7.031
	c-36.034,79.661-66.611,161.398-105.564,239.815c-39.113,78.735-85.008,152.718-129.821,228.182
	C617.009,1188.709,639.431,1201.161,649.233,1187.172z"/>
<path style="fill:#0D5B5B;" d="M545.74,1634.446c-5.788-32.738-13.505-63.744-14.27-97.289c-0.726-31.644,2.099-63.184,8.341-94.212
	c6.251-31.069,15.435-61.671,28.351-90.645c12.926-28.996,31.454-54.923,44.712-83.649c4.565-9.9-6.534-18.855-15.05-11.61
	c-49.301,41.927-76.414,119.905-88.955,181.476c-13.067,64.148-16.609,141.9,5.418,204.602
	C521.297,1663.086,549.389,1655.064,545.74,1634.446z"/>
<path style="fill:#0D5B5B;" d="M734.188,456.038c-43.143-8.651-130.285-27.951-91.776-90.19
	c9.013-14.565-10.436-26.689-22.217-17.14c-38.772,31.437-10.373,89.342,24.175,110.261
	c53.223,32.222,134.217,11.754,173.652,67.854c3.352,4.77,11.488,2.044,9.797-4.131C815.81,478.901,775.202,464.262,734.188,456.038
	z"/>
<path style="fill:#0D5B5B;" d="M866.315,232.307c-9.369,8.436-14.456,20.039-22.227,29.954
	c-9.603,12.249-20.784,23.342-33.237,32.706c-21.632,16.266-47.747,22.551-69.861,37.033c-5.067,3.318-2.587,9.922,2.88,10.629
	c29.038,3.746,61.71-16.253,83.722-33.338c20.088-15.586,49.481-42.138,53.214-68.548
	C881.983,232.399,873.219,226.095,866.315,232.307z"/>
<path style="fill:#0D5B5B;" d="M946.105,1905.89c-17.033-1.842-33.934-4.341-50.743-7.678
	c-32.321-6.417-64.078-15.532-94.899-27.189c-30.757-11.634-60.404-26.241-88.735-42.918c-13.875-8.173-28.809-16.482-39.464-28.823
	c-8.414-9.74-10.31-23.416-20.366-31.513c-4.18-3.365-8.862-3.479-13.067,0c-25.364,20.994,8.716,56.75,25.671,70.036
	c29.457,23.087,64.594,40.161,98.86,54.85c35.605,15.266,72.522,27.315,110.387,35.552c25.71,5.591,83.264,24.056,104.273,2.67
	c3.63-3.693,2.943-8.638,0-12.421C969.667,1907.717,959.001,1907.286,946.105,1905.89z"/>
</svg>
