<svg width="588" height="588" viewBox="0 0 588 588" fill="none" xmlns="http://www.w3.org/2000/svg">
<g clip-path="url(#clip0_30215_26818)">
<path d="M171.551 340.922C171.551 332.886 178.066 326.371 186.102 326.371H481.395C489.431 326.371 495.946 332.886 495.946 340.922V488.588H171.551V340.922Z" fill="#DAE6F0"/>
<path d="M148.247 488.588C148.247 496.624 154.761 503.268 162.798 503.268H504.699C512.735 503.268 519.25 496.624 519.25 488.588V488.588H148.247V488.588Z" fill="#DAE6F0"/>
<path d="M190.194 345.902C190.194 343.223 192.366 341.052 195.045 341.052H472.452C475.131 341.052 477.302 343.223 477.302 345.902V488.588H190.194V345.902Z" fill="#004A7F"/>
<path d="M351.549 341.052H190.194V377.374V434.231C190.194 447.624 201.052 458.493 214.446 458.493H373.832C373.832 458.493 351.549 452.44 351.549 434.279V341.052Z" fill="#015FA8"/>
<path d="M266.719 351.328H430.694C410.719 351.328 404.573 367.768 404.573 376.901V434.233C404.573 447.627 393.715 458.493 380.321 458.493H220.956C220.956 458.493 242.467 452.404 242.467 434.138V375.587C242.467 362.194 253.325 351.328 266.719 351.328Z" fill="#0079C2"/>
<path d="M438.136 351.328H269.429C289.495 351.328 295.529 367.918 295.529 377.018C295.529 383.348 295.529 461.908 295.622 519.459C295.643 532.829 306.491 543.639 319.861 543.639H484.76C484.76 543.639 462.388 537.616 462.388 519.416V375.572C462.388 362.178 451.53 351.328 438.136 351.328Z" fill="white"/>
<path d="M190.194 319.413C190.194 312.716 195.623 307.287 202.32 307.287H339.334C346.031 307.287 351.46 312.716 351.46 319.413V326.371H190.194V319.413Z" fill="#015FA8"/>
<path d="M357.355 392.277C359.086 392.277 360.61 391.532 361.395 390.404L369.66 378.602C369.855 378.327 369.955 378.016 369.95 377.701C369.945 377.385 369.836 377.076 369.633 376.804C369.43 376.533 369.141 376.307 368.793 376.15C368.446 375.994 368.052 375.911 367.652 375.911H333.482L331.312 372.274H323.762V375.911H328.38L336.691 389.713L333.574 394.15C331.889 396.587 334.105 399.551 337.615 399.551H365.32V395.914H337.615L340.154 392.277H357.355ZM335.675 379.548H363.727L357.355 388.64H341.147L335.675 379.548ZM337.615 401.37C335.075 401.37 333.02 403.006 333.02 405.007C333.02 407.007 335.075 408.644 337.615 408.644C340.154 408.644 342.232 407.007 342.232 405.007C342.232 403.006 340.154 401.37 337.615 401.37ZM360.702 401.37C358.163 401.37 356.108 403.006 356.108 405.007C356.108 407.007 358.163 408.644 360.702 408.644C363.242 408.644 365.32 407.007 365.32 405.007C365.32 403.006 363.242 401.37 360.702 401.37Z" fill="#0079C2"/>
<rect x="379.425" y="389.496" width="56.8623" height="19.0843" rx="9.54217" fill="#D6E3ED"/>
<rect x="323.495" y="423.261" width="112.792" height="3.67007" rx="1.83504" fill="#AFC8DC"/>
<rect x="323.495" y="431.335" width="52.2015" height="3.67005" rx="1.83503" fill="#AFC8DC"/>
<rect x="323.495" y="504.736" width="52.2015" height="3.67005" rx="1.83503" fill="#DAE6F0"/>
<rect x="323.495" y="512.81" width="30.7616" height="3.67005" rx="1.83503" fill="#DAE6F0"/>
<path d="M326.291 461.809C326.291 460.596 328.6 456.959 331.68 454.535C341.11 447.109 348.615 452.716 341.687 457.565C335.82 461.672 333.79 466.695 338.409 467.302C343.937 468.027 341.948 462.14 346.306 457.565C350.925 452.716 351.695 466.661 351.695 466.052C351.695 457.565 355.509 449.685 364.011 449.685C372.479 449.685 370.17 466.052 364.011 466.052C359.393 466.052 359.393 461.202 364.011 459.384C368.026 457.803 377.098 457.565 381.717 461.809" stroke="#AFC8DC" stroke-width="1.81887"/>
<ellipse cx="405.361" cy="510.479" rx="18.4753" ry="14.5479" fill="#C0EBFF"/>
<path d="M400.472 524.403L437.42 483.639L496.2 488.929L489.483 503.476C480.526 511.631 457.689 528.456 444.137 537.198C433.221 544.24 421.745 540.284 419.785 537.198L444.137 507.443L433.221 514.055C419.785 529.395 405.23 527.489 400.472 524.403Z" fill="#C6844E"/>
<path d="M533.988 607.287H457.573L457.403 606.992C449.052 592.526 439.945 576.75 440.779 559.018C441.132 551.513 439.099 544.901 436.58 538.288L471.009 513.394C471.009 513.394 483.605 510.088 481.085 498.847L476.887 493.557L444.137 475.043C441.058 476.145 431.542 482.449 418.106 498.847C404.67 515.245 391.795 513.173 387.036 510.088L413.068 475.043L397.113 463.802C415.307 462.259 455.558 459.438 471.009 460.496C490.322 461.819 496.2 465.786 526.431 488.929C556.661 512.071 549.943 534.553 544.905 555.712C540.874 572.639 535.947 597.148 533.988 607.287Z" fill="#E2AF85"/>
<path d="M572.79 507.541C575.563 508.061 576.991 510.622 575.98 513.261L574.938 515.985C573.927 518.624 570.86 520.342 568.087 519.822L560.121 518.329L564.824 506.047L572.79 507.541Z" fill="#DAE6F0"/>
<path d="M352.949 467.284L563.814 509.922C561.093 517.586 552.432 522.493 544.465 520.882L393.256 490.307C372.306 486.07 355.64 478.87 349.926 475.799L352.949 467.284Z" fill="#37CEEF"/>
<path d="M352.049 469.326L562.914 511.964C565.635 504.301 561.385 496.783 553.419 495.172L402.21 464.597C381.26 460.361 362.056 460.308 355.073 460.812L352.049 469.326Z" fill="#37CEEF"/>
<path d="M337.661 464.149L352.049 466.852L349.109 474.546C349.109 474.546 342.161 472.783 336.136 468.139L337.661 464.149Z" fill="#DAE6F0"/>
<path d="M337.192 464.581L351.58 467.284L354.52 459.591C354.52 459.591 347.245 458.682 338.716 460.592L337.192 464.581Z" fill="#DAE6F0"/>
<path d="M337.192 463.837L324.985 461.519L335.65 467.915L337.192 463.837Z" fill="#004A7F"/>
<path d="M336.931 464.15L324.724 461.831L338.473 460.072L336.931 464.15Z" fill="#004A7F"/>
<rect width="25.4166" height="6.18199" transform="matrix(-0.346466 0.941243 -0.98332 -0.19179 513.192 488.345)" fill="#EEF7FF"/>
<path d="M411.388 502.153C420.121 512.733 432.941 533.01 438.259 541.826L471.848 513.162C471.848 513.162 461.497 518.452 438.259 498.847C426.503 488.929 419.785 476.366 407.189 471.737C397.113 468.034 387.876 470.194 384.517 471.737C389.835 477.468 402.655 491.574 411.388 502.153Z" fill="#E2AF85"/>
</g>
<defs>
<clipPath id="clip0_30215_26818">
<rect width="588" height="588" fill="white"/>
</clipPath>
</defs>
</svg>
