<svg width="588" height="588" viewBox="0 0 588 588" fill="none" xmlns="http://www.w3.org/2000/svg">
<g clip-path="url(#clip0_30215_26827)">
<path d="M201.669 484.11C158.172 530.609 178.357 596.526 240.432 610.697C283.928 564.198 263.744 498.281 201.669 484.11Z" fill="black" fill-opacity="0.1"/>
<path d="M162.235 410.458C91.6608 485.905 124.411 592.856 225.13 615.85C295.703 540.404 262.953 433.452 162.235 410.458Z" fill="black" fill-opacity="0.1"/>
<path d="M470.91 434.801C464.039 563.526 339.494 626.52 231.732 555.776C238.604 427.051 363.148 364.057 470.91 434.801Z" fill="black" fill-opacity="0.1"/>
<path d="M509.579 485.087C518.118 586.527 427.5 649.268 335.554 605.575C327.015 504.135 417.633 441.394 509.579 485.087Z" fill="black" fill-opacity="0.1"/>
<path d="M217.958 408.218C217.958 403.151 222.065 399.043 227.132 399.043H361.694C366.761 399.043 370.869 403.151 370.869 408.218V589.418H217.958V408.218Z" fill="#2F2F2F"/>
<path d="M217.958 419.686H370.869V589.418H217.958V419.686Z" fill="black"/>
<path d="M381.573 434.977H253.892C243.758 434.977 235.543 443.193 235.543 453.327V589.418H366.282V459.719C366.282 449.241 372.201 439.663 381.573 434.977V434.977Z" fill="#323232"/>
<g filter="url(#filter0_d_30215_26827)">
<path d="M253.892 434.977H381.573C391.707 434.977 399.922 443.193 399.922 453.327V571.068C399.922 576.135 395.815 580.243 390.748 580.243H278.358C273.291 580.243 269.183 576.135 269.183 571.068V459.719C269.183 449.241 263.263 439.663 253.892 434.977V434.977Z" fill="white"/>
</g>
<path fill-rule="evenodd" clip-rule="evenodd" d="M334.001 455.62H338.758H343.515C343.515 457.594 344.282 459.491 345.653 460.91L345.745 461.005C348.129 463.472 349.462 466.769 349.462 470.2V515.256C349.462 516.945 348.093 518.314 346.404 518.314H338.758H331.112C329.423 518.314 328.054 516.945 328.054 515.256V470.2C328.054 466.769 329.387 463.472 331.771 461.005L331.863 460.91C333.234 459.491 334.001 457.594 334.001 455.62Z" fill="#83CFC9"/>
<path fill-rule="evenodd" clip-rule="evenodd" d="M338.758 455.62H334.001C334.001 457.594 333.234 459.491 331.863 460.91L331.771 461.005C329.387 463.472 328.054 466.769 328.054 470.2V470.643C330.809 470.469 333.929 470.807 337.229 472.058C341.892 473.827 346.125 473.983 349.462 473.492V470.2C349.462 466.769 348.129 463.472 345.745 461.005L345.653 460.91C344.282 459.491 343.515 457.594 343.515 455.62H338.758Z" fill="#B8F7F2"/>
<path d="M333.406 451.798C333.406 450.953 334.091 450.269 334.935 450.269H342.581C343.425 450.269 344.11 450.953 344.11 451.798V455.62H333.406V451.798Z" fill="#39B4AA"/>
<path d="M307.063 469.627C307.734 464.67 311.966 460.972 316.968 460.972V460.972C321.97 460.972 326.202 464.67 326.873 469.627L329.253 487.204C329.472 488.823 329.472 490.463 329.253 492.082L326.873 509.659C326.202 514.616 321.97 518.314 316.968 518.314V518.314C311.966 518.314 307.734 514.616 307.063 509.659L304.683 492.082C304.464 490.463 304.464 488.823 304.683 487.204L307.063 469.627Z" fill="#F9C664"/>
<ellipse cx="316.968" cy="470.147" rx="4.96961" ry="2.29367" fill="#D9A43F"/>
<ellipse cx="316.968" cy="477.028" rx="7.26328" ry="2.29367" fill="#D9A43F"/>
<ellipse cx="316.968" cy="483.909" rx="7.26328" ry="2.29367" fill="#D9A43F"/>
<ellipse cx="316.968" cy="490.79" rx="7.26328" ry="2.29367" fill="#D9A43F"/>
<ellipse cx="316.968" cy="497.671" rx="7.26328" ry="2.29367" fill="#D9A43F"/>
<ellipse cx="316.968" cy="504.552" rx="7.26328" ry="2.29367" fill="#D9A43F"/>
<circle cx="368.958" cy="506.463" r="14.1443" fill="#A8D56C"/>
<path fill-rule="evenodd" clip-rule="evenodd" d="M374.586 519.443C372.862 520.192 370.958 520.608 368.958 520.608C361.146 520.608 354.813 514.275 354.813 506.463C354.813 505.043 355.023 503.671 355.412 502.378C368.306 503.745 372.946 513.497 374.586 519.443Z" fill="#71A230"/>
<path d="M372.398 520.225C372.398 520.225 354.431 501.111 378.132 488.496C378.132 498.818 383.102 497.289 383.102 507.61C383.102 514.109 378.132 518.696 372.398 520.225Z" fill="#C5FB7D"/>
<rect x="286.768" y="484.673" width="81.8075" height="5.35189" rx="2.67595" fill="#DF010C"/>
<path fill-rule="evenodd" clip-rule="evenodd" d="M290.591 490.025H364.753L359.11 519.651C358.835 521.093 357.574 522.137 356.106 522.137H299.238C297.77 522.137 296.508 521.093 296.234 519.651L290.591 490.025ZM321.938 493.848C321.938 493.003 322.622 492.319 323.467 492.319C324.311 492.319 324.996 493.003 324.996 493.848V501.493C324.996 502.338 324.311 503.023 323.467 503.023C322.622 503.023 321.938 502.338 321.938 501.493V493.848ZM308.176 492.319C307.331 492.319 306.646 493.003 306.646 493.848V501.493C306.646 502.338 307.331 503.023 308.176 503.023C309.02 503.023 309.705 502.338 309.705 501.493V493.848C309.705 493.003 309.02 492.319 308.176 492.319ZM337.229 493.848C337.229 493.003 337.913 492.319 338.758 492.319C339.602 492.319 340.287 493.003 340.287 493.848V501.493C340.287 502.338 339.602 503.023 338.758 503.023C337.913 503.023 337.229 502.338 337.229 501.493V493.848ZM315.821 492.319C314.977 492.319 314.292 493.003 314.292 493.848V501.493C314.292 502.338 314.977 503.023 315.821 503.023C316.666 503.023 317.35 502.338 317.35 501.493V493.848C317.35 493.003 316.666 492.319 315.821 492.319ZM329.583 493.848C329.583 493.003 330.268 492.319 331.112 492.319C331.957 492.319 332.642 493.003 332.642 493.848V501.493C332.642 502.338 331.957 503.023 331.112 503.023C330.268 503.023 329.583 502.338 329.583 501.493V493.848ZM346.403 492.319C345.559 492.319 344.874 493.003 344.874 493.848V501.493C344.874 502.338 345.559 503.023 346.403 503.023C347.248 503.023 347.933 502.338 347.933 501.493V493.848C347.933 493.003 347.248 492.319 346.403 492.319ZM321.938 509.139C321.938 508.295 322.622 507.61 323.467 507.61C324.311 507.61 324.996 508.295 324.996 509.139V516.785C324.996 517.629 324.311 518.314 323.467 518.314C322.622 518.314 321.938 517.629 321.938 516.785V509.139ZM308.176 507.61C307.331 507.61 306.646 508.295 306.646 509.139V516.785C306.646 517.629 307.331 518.314 308.176 518.314C309.02 518.314 309.705 517.629 309.705 516.785V509.139C309.705 508.295 309.02 507.61 308.176 507.61ZM337.229 509.139C337.229 508.295 337.913 507.61 338.758 507.61C339.602 507.61 340.287 508.295 340.287 509.139V516.785C340.287 517.629 339.602 518.314 338.758 518.314C337.913 518.314 337.229 517.629 337.229 516.785V509.139ZM315.821 507.61C314.977 507.61 314.292 508.295 314.292 509.139V516.785C314.292 517.629 314.977 518.314 315.821 518.314C316.666 518.314 317.35 517.629 317.35 516.785V509.139C317.35 508.295 316.666 507.61 315.821 507.61ZM329.583 509.139C329.583 508.295 330.268 507.61 331.112 507.61C331.957 507.61 332.642 508.295 332.642 509.139V516.785C332.642 517.629 331.957 518.314 331.112 518.314C330.268 518.314 329.583 517.629 329.583 516.785V509.139ZM346.403 507.61C345.559 507.61 344.874 508.295 344.874 509.139V516.785C344.874 517.629 345.559 518.314 346.403 518.314C347.248 518.314 347.933 517.629 347.933 516.785V509.139C347.933 508.295 347.248 507.61 346.403 507.61Z" fill="#DF010C"/>
<path fill-rule="evenodd" clip-rule="evenodd" d="M290.591 490.025H364.753L359.11 519.651C358.835 521.093 357.574 522.137 356.106 522.137H299.238C297.77 522.137 296.508 521.093 296.234 519.651L290.591 490.025ZM321.938 493.848C321.938 493.003 322.622 492.319 323.467 492.319C324.311 492.319 324.996 493.003 324.996 493.848V501.493C324.996 502.338 324.311 503.023 323.467 503.023C322.622 503.023 321.938 502.338 321.938 501.493V493.848ZM308.176 492.319C307.331 492.319 306.646 493.003 306.646 493.848V501.493C306.646 502.338 307.331 503.023 308.176 503.023C309.02 503.023 309.705 502.338 309.705 501.493V493.848C309.705 493.003 309.02 492.319 308.176 492.319ZM337.229 493.848C337.229 493.003 337.913 492.319 338.758 492.319C339.602 492.319 340.287 493.003 340.287 493.848V501.493C340.287 502.338 339.602 503.023 338.758 503.023C337.913 503.023 337.229 502.338 337.229 501.493V493.848ZM315.821 492.319C314.977 492.319 314.292 493.003 314.292 493.848V501.493C314.292 502.338 314.977 503.023 315.821 503.023C316.666 503.023 317.35 502.338 317.35 501.493V493.848C317.35 493.003 316.666 492.319 315.821 492.319ZM329.583 493.848C329.583 493.003 330.268 492.319 331.112 492.319C331.957 492.319 332.642 493.003 332.642 493.848V501.493C332.642 502.338 331.957 503.023 331.112 503.023C330.268 503.023 329.583 502.338 329.583 501.493V493.848ZM346.403 492.319C345.559 492.319 344.874 493.003 344.874 493.848V501.493C344.874 502.338 345.559 503.023 346.403 503.023C347.248 503.023 347.933 502.338 347.933 501.493V493.848C347.933 493.003 347.248 492.319 346.403 492.319ZM321.938 509.139C321.938 508.295 322.622 507.61 323.467 507.61C324.311 507.61 324.996 508.295 324.996 509.139V516.785C324.996 517.629 324.311 518.314 323.467 518.314C322.622 518.314 321.938 517.629 321.938 516.785V509.139ZM308.176 507.61C307.331 507.61 306.646 508.295 306.646 509.139V516.785C306.646 517.629 307.331 518.314 308.176 518.314C309.02 518.314 309.705 517.629 309.705 516.785V509.139C309.705 508.295 309.02 507.61 308.176 507.61ZM337.229 509.139C337.229 508.295 337.913 507.61 338.758 507.61C339.602 507.61 340.287 508.295 340.287 509.139V516.785C340.287 517.629 339.602 518.314 338.758 518.314C337.913 518.314 337.229 517.629 337.229 516.785V509.139ZM315.821 507.61C314.977 507.61 314.292 508.295 314.292 509.139V516.785C314.292 517.629 314.977 518.314 315.821 518.314C316.666 518.314 317.35 517.629 317.35 516.785V509.139C317.35 508.295 316.666 507.61 315.821 507.61ZM329.583 509.139C329.583 508.295 330.268 507.61 331.112 507.61C331.957 507.61 332.642 508.295 332.642 509.139V516.785C332.642 517.629 331.957 518.314 331.112 518.314C330.268 518.314 329.583 517.629 329.583 516.785V509.139ZM346.403 507.61C345.559 507.61 344.874 508.295 344.874 509.139V516.785C344.874 517.629 345.559 518.314 346.403 518.314C347.248 518.314 347.933 517.629 347.933 516.785V509.139C347.933 508.295 347.248 507.61 346.403 507.61Z" fill="url(#paint0_linear_30215_26827)" fill-opacity="0.2"/>
<rect x="327.611" y="482.38" width="49.1693" height="4.3656" rx="1.52911" transform="rotate(36.8065 327.611 482.38)" fill="#282828"/>
<circle cx="328.054" cy="485.438" r="0.764556" fill="#757575"/>
<path fill-rule="evenodd" clip-rule="evenodd" d="M314.292 508.375H297.472V510.668C298.316 510.668 299.001 511.353 299.001 512.197C299.001 513.042 298.316 513.727 297.472 513.727V514.622C298.363 514.937 299.001 515.786 299.001 516.785C299.001 517.783 298.363 518.633 297.472 518.948V522.202C297.917 522.359 298.236 522.784 298.236 523.284C298.236 523.783 297.917 524.208 297.472 524.365V528.253H314.292C319.781 528.253 324.231 523.803 324.231 518.314C324.231 512.825 319.781 508.375 314.292 508.375Z" fill="#E4B840"/>
<path fill-rule="evenodd" clip-rule="evenodd" d="M314.292 509.139H297.472V510.668C298.316 510.668 299.001 511.353 299.001 512.198C299.001 513.042 298.316 513.727 297.472 513.727V514.622C298.362 514.937 299.001 515.786 299.001 516.785C299.001 517.783 298.362 518.633 297.472 518.948V522.202C297.917 522.359 298.236 522.784 298.236 523.283C298.236 523.783 297.917 524.208 297.472 524.365V527.489H314.292C319.359 527.489 323.467 523.381 323.467 518.314C323.467 513.247 319.359 509.139 314.292 509.139Z" fill="#F9E467"/>
<circle cx="303.588" cy="513.727" r="0.764556" fill="#E4B840"/>
<circle cx="315.821" cy="523.666" r="0.764556" fill="#E4B840"/>
<circle cx="310.087" cy="514.109" r="1.14683" fill="#E4B840"/>
<circle cx="314.674" cy="518.696" r="1.14683" fill="#E4B840"/>
<circle cx="310.087" cy="522.519" r="1.14683" fill="#E4B840"/>
<circle cx="305.117" cy="519.078" r="1.52911" fill="#E4B840"/>
<circle cx="318.879" cy="515.256" r="1.52911" fill="#E4B840"/>
</g>
<defs>
<filter id="filter0_d_30215_26827" x="223.31" y="412.041" width="207.195" height="206.43" filterUnits="userSpaceOnUse" color-interpolation-filters="sRGB">
<feFlood flood-opacity="0" result="BackgroundImageFix"/>
<feColorMatrix in="SourceAlpha" type="matrix" values="0 0 0 0 0 0 0 0 0 0 0 0 0 0 0 0 0 0 127 0" result="hardAlpha"/>
<feOffset dy="7.64556"/>
<feGaussianBlur stdDeviation="15.2911"/>
<feComposite in2="hardAlpha" operator="out"/>
<feColorMatrix type="matrix" values="0 0 0 0 0 0 0 0 0 0 0 0 0 0 0 0 0 0 0.5 0"/>
<feBlend mode="normal" in2="BackgroundImageFix" result="effect1_dropShadow_30215_26827"/>
<feBlend mode="normal" in="SourceGraphic" in2="effect1_dropShadow_30215_26827" result="shape"/>
</filter>
<linearGradient id="paint0_linear_30215_26827" x1="327.672" y1="490.025" x2="327.672" y2="496.142" gradientUnits="userSpaceOnUse">
<stop/>
<stop offset="1" stop-opacity="0"/>
</linearGradient>
<clipPath id="clip0_30215_26827">
<rect width="588" height="588" fill="white"/>
</clipPath>
</defs>
</svg>
