<svg width="588" height="588" viewBox="0 0 588 588" fill="none" xmlns="http://www.w3.org/2000/svg">
<g clip-path="url(#clip0_30215_26821)">
<rect x="385.623" y="517.89" width="62.9506" height="36.7134" fill="#4F5769"/>
<path d="M353.492 557.226C353.492 555.778 354.667 554.603 356.115 554.603H478.082C479.531 554.603 480.705 555.778 480.705 557.226V559.192H353.492V557.226Z" fill="#4F5769"/>
<g filter="url(#filter0_d_30215_26821)">
<rect x="277.427" y="348.09" width="279.343" height="177.667" rx="11.1645" fill="#575F70"/>
</g>
<rect x="288.574" y="359.235" width="257.048" height="156.688" rx="3.72151" fill="#FAFBFF"/>
<ellipse cx="432.335" cy="417.43" rx="12.5601" ry="12.5601" fill="#A4C76C"/>
<ellipse cx="432.334" cy="417.43" rx="5.11708" ry="5.11708" fill="white"/>
<rect x="452.508" y="409.756" width="71.4752" height="2.62294" rx="1.31147" fill="#D1D3DD"/>
<rect x="452.508" y="416.313" width="34.0982" height="2.62294" rx="1.31147" fill="#D1D3DD"/>
<rect x="452.508" y="422.87" width="49.1802" height="2.62294" rx="1.31147" fill="#D1D3DD"/>
<ellipse cx="432.335" cy="450.923" rx="12.5601" ry="12.5601" fill="#FFCD1E"/>
<ellipse cx="432.334" cy="450.923" rx="5.11708" ry="5.11708" fill="white"/>
<rect x="452.508" y="443.198" width="41.3113" height="2.62294" rx="1.31147" fill="#D1D3DD"/>
<rect x="452.508" y="449.755" width="62.2949" height="2.62294" rx="1.31147" fill="#D1D3DD"/>
<rect x="452.508" y="456.313" width="22.9507" height="2.62294" rx="1.31147" fill="#D1D3DD"/>
<ellipse cx="432.335" cy="484.417" rx="12.5601" ry="12.5601" fill="#F86D7E"/>
<ellipse cx="432.334" cy="484.417" rx="5.11708" ry="5.11708" fill="white"/>
<rect x="452.508" y="476.641" width="67.5407" height="2.62294" rx="1.31147" fill="#D1D3DD"/>
<rect x="452.508" y="483.198" width="31.4753" height="2.62294" rx="1.31147" fill="#D1D3DD"/>
<rect x="452.508" y="489.755" width="49.1802" height="2.62294" rx="1.31147" fill="#D1D3DD"/>
<path fill-rule="evenodd" clip-rule="evenodd" d="M353.718 387.81C336.486 367.264 302.404 380.444 307.765 410.682C308.546 415.085 309.921 419.117 311.796 422.87H323.984C324.617 422.87 325.211 423.175 325.581 423.689L326.999 425.66L336.325 394.228C336.571 393.4 337.329 392.829 338.192 392.821C339.056 392.812 339.825 393.369 340.086 394.192L351.268 429.382L356.087 412.092C356.311 411.286 357.021 410.71 357.856 410.657C358.691 410.603 359.469 411.084 359.794 411.855L365.676 425.786L366.9 423.804C367.258 423.224 367.892 422.87 368.574 422.87H374.763L380.018 415.368C380.395 414.83 381.016 414.515 381.673 414.53C382.33 414.544 382.936 414.886 383.289 415.441L388.015 422.87H395.64C397.515 419.117 398.891 415.085 399.671 410.682C405.033 380.444 370.951 367.264 353.718 387.81ZM393.433 426.805H386.934C386.262 426.805 385.636 426.461 385.275 425.893L381.55 420.038L377.398 425.966C377.03 426.492 376.429 426.805 375.787 426.805H369.671L367.021 431.098C366.635 431.724 365.931 432.082 365.197 432.026C364.462 431.97 363.821 431.508 363.535 430.83L358.363 418.58L353.287 436.795C353.053 437.633 352.297 438.218 351.427 438.234C350.557 438.25 349.78 437.692 349.517 436.863L338.276 401.486L329.631 430.624C329.417 431.344 328.813 431.879 328.073 432.004C327.333 432.129 326.586 431.823 326.148 431.213L322.976 426.805H314.003C321.983 439.606 335.98 449.247 351.652 460.041L351.66 460.046C352.343 460.517 353.029 460.99 353.718 461.465C354.41 460.988 355.098 460.514 355.784 460.041C371.456 449.247 385.454 439.606 393.433 426.805Z" fill="#E4394E"/>
<rect x="306.935" y="470.739" width="80.6554" height="10.4918" rx="5.24589" fill="#D1D3DD"/>
<rect x="306.935" y="486.477" width="57.7047" height="10.4918" rx="5.24589" fill="#D1D3DD"/>
<g filter="url(#filter1_d_30215_26821)">
<ellipse cx="312.496" cy="564.824" rx="63.2657" ry="63.2657" fill="#56B4FF"/>
<ellipse cx="19.5379" cy="19.5379" rx="19.5379" ry="19.5379" transform="matrix(-1 0 0 1 332.034 545.286)" fill="white"/>
<path d="M359.015 564.824C359.015 552.487 354.114 540.654 345.39 531.93C336.666 523.207 324.834 518.305 312.496 518.305C300.158 518.305 288.326 523.207 279.602 531.93C270.878 540.654 265.977 552.487 265.977 564.824L312.496 564.824H359.015Z" fill="white"/>
<path d="M312.961 540.634L316.217 575.058L309.705 575.058L312.961 540.634Z" fill="#373C47"/>
<ellipse cx="5.58227" cy="5.58227" rx="5.58227" ry="5.58227" transform="matrix(-0.866025 0.5 0.5 0.866026 314.722 558.85)" fill="#373C47"/>
<ellipse cx="1.86076" cy="1.86076" rx="1.86076" ry="1.86076" transform="matrix(-0.866025 0.5 0.5 0.866026 313.359 563.934)" fill="white"/>
<path d="M337.51 558.312H350.642C347.572 539.831 331.662 525.748 312.496 525.748C293.33 525.748 277.42 539.831 274.351 558.312H274.589C279.31 545.386 291.614 536.169 306.049 536.169C320.484 536.169 332.788 545.386 337.51 558.312Z" fill="#A4C76C"/>
<mask id="mask0_30215_26821" style="mask-type:alpha" maskUnits="userSpaceOnUse" x="274" y="525" width="77" height="34">
<path d="M337.51 558.312H350.642C347.572 539.831 331.662 525.748 312.496 525.748C293.33 525.748 277.42 539.831 274.351 558.312H274.589C279.31 545.386 291.614 536.169 306.049 536.169C320.484 536.169 332.788 545.386 337.51 558.312Z" fill="#D1D3DD"/>
</mask>
<g mask="url(#mask0_30215_26821)">
<path d="M293.889 509.002L311.566 564.824L350.642 522.957L293.889 509.002Z" fill="#FFCD1E"/>
<path d="M339.477 522.027L318.078 554.59V571.337H365.527L339.477 522.027Z" fill="#E4394E"/>
</g>
</g>
<rect x="419.721" y="377.625" width="115.409" height="17.0491" rx="1.86076" fill="#FFEA9E"/>
<rect x="452.508" y="385.493" width="49.1802" height="2.62294" rx="1.31147" fill="#E8D389"/>
<rect x="501.648" y="385.332" width="11.1645" height="2.79114" rx="1.39557" fill="#E8D389"/>
<rect x="443.983" y="385.493" width="4.59015" height="2.62294" rx="1.31147" fill="#E8D389"/>
<path d="M431.095 382.771C431.464 382.219 432.275 382.219 432.643 382.771L436.487 388.537C436.9 389.155 436.456 389.983 435.713 389.983H428.026C427.282 389.983 426.839 389.155 427.251 388.537L431.095 382.771Z" fill="#E8D389"/>
</g>
<defs>
<filter id="filter0_d_30215_26821" x="258.819" y="338.786" width="316.558" height="214.882" filterUnits="userSpaceOnUse" color-interpolation-filters="sRGB">
<feFlood flood-opacity="0" result="BackgroundImageFix"/>
<feColorMatrix in="SourceAlpha" type="matrix" values="0 0 0 0 0 0 0 0 0 0 0 0 0 0 0 0 0 0 127 0" result="hardAlpha"/>
<feOffset dy="9.30378"/>
<feGaussianBlur stdDeviation="9.30378"/>
<feComposite in2="hardAlpha" operator="out"/>
<feColorMatrix type="matrix" values="0 0 0 0 0.15 0 0 0 0 0.165625 0 0 0 0 0.2 0 0 0 1 0"/>
<feBlend mode="normal" in2="BackgroundImageFix" result="effect1_dropShadow_30215_26821"/>
<feBlend mode="normal" in="SourceGraphic" in2="effect1_dropShadow_30215_26821" result="shape"/>
</filter>
<filter id="filter1_d_30215_26821" x="230.622" y="492.255" width="163.747" height="163.747" filterUnits="userSpaceOnUse" color-interpolation-filters="sRGB">
<feFlood flood-opacity="0" result="BackgroundImageFix"/>
<feColorMatrix in="SourceAlpha" type="matrix" values="0 0 0 0 0 0 0 0 0 0 0 0 0 0 0 0 0 0 127 0" result="hardAlpha"/>
<feOffset dy="9.30378"/>
<feGaussianBlur stdDeviation="9.30378"/>
<feComposite in2="hardAlpha" operator="out"/>
<feColorMatrix type="matrix" values="0 0 0 0 0 0 0 0 0 0 0 0 0 0 0 0 0 0 0.25 0"/>
<feBlend mode="normal" in2="BackgroundImageFix" result="effect1_dropShadow_30215_26821"/>
<feBlend mode="normal" in="SourceGraphic" in2="effect1_dropShadow_30215_26821" result="shape"/>
</filter>
<clipPath id="clip0_30215_26821">
<rect width="588" height="588" fill="white"/>
</clipPath>
</defs>
</svg>
