<svg width="588" height="588" viewBox="0 0 588 588" fill="none" xmlns="http://www.w3.org/2000/svg">
<g clip-path="url(#clip0_30214_24445)">
<rect x="259.578" y="370.928" width="108.063" height="107.053" fill="#00BDB5"/>
<rect x="259.578" y="376.987" width="108.063" height="94.9335" fill="#00A19A"/>
<mask id="path-3-inside-1_30214_24445" fill="white">
<path d="M259.578 370.928H292.906C301.83 370.928 309.065 378.163 309.065 387.087V461.822C309.065 470.746 301.831 477.981 292.906 477.981H259.578V370.928Z"/>
</mask>
<path d="M259.578 370.928H292.906C301.83 370.928 309.065 378.163 309.065 387.087V461.822C309.065 470.746 301.831 477.981 292.906 477.981H259.578V370.928Z" fill="#00A19A"/>
<path d="M259.578 365.879H292.906C304.619 365.879 314.115 375.374 314.115 387.087L304.015 387.087C304.015 380.952 299.042 375.978 292.906 375.978H259.578V365.879ZM314.115 461.822C314.115 473.535 304.619 483.031 292.906 483.031H259.578V472.931H292.906C299.042 472.931 304.015 467.957 304.015 461.822L314.115 461.822ZM259.578 477.981V370.928V477.981ZM292.906 365.879C304.619 365.879 314.115 375.374 314.115 387.087V461.822C314.115 473.535 304.619 483.031 292.906 483.031L292.906 472.931C299.042 472.931 304.015 467.957 304.015 461.822V387.087C304.015 380.952 299.042 375.978 292.906 375.978L292.906 365.879Z" fill="#00BDB5" mask="url(#path-3-inside-1_30214_24445)"/>
<path d="M314.115 489.089V492.119C314.115 500.486 307.333 507.268 298.966 507.268H253.519C246.826 507.268 241.4 512.694 241.4 519.387V519.387C241.4 526.08 246.826 531.506 253.519 531.506H314.115H330.5" stroke="#52637D" stroke-width="5.04965"/>
<rect x="306.036" y="477.98" width="16.1589" height="12.1192" fill="#344053"/>
<path d="M211 462V559.851C211 568.218 217.782 575 226.149 575H331" stroke="#52637D" stroke-width="5.04965"/>
<rect x="202.487" y="451.192" width="16.1589" height="12.1192" fill="#344053"/>
<rect x="153" y="330" width="119.172" height="121.192" rx="24.2383" fill="#00050D"/>
<rect x="165.12" y="342.119" width="94.9335" height="96.9533" rx="14.139" fill="#1B2432"/>
<rect x="174.208" y="351.209" width="76.7547" height="65.6455" rx="9.08938" fill="#A9D7FF"/>
<rect x="174.713" y="351.714" width="75.7448" height="64.6356" rx="8.58441" stroke="white" stroke-opacity="0.4" stroke-width="1.00993"/>
<path d="M220.665 421.903C220.665 421.346 220.213 420.893 219.655 420.893H209.556C205.652 420.893 202.487 424.059 202.487 427.963V427.963C202.487 431.867 205.652 435.032 209.556 435.032H219.655C220.213 435.032 220.665 434.58 220.665 434.022V421.903Z" fill="#E0E7F2"/>
<path d="M221.676 421.903C221.676 421.346 222.128 420.893 222.685 420.893H232.785C236.689 420.893 239.854 424.059 239.854 427.963V427.963C239.854 431.867 236.689 435.032 232.785 435.032H222.685C222.128 435.032 221.676 434.58 221.676 434.022V421.903Z" fill="#E0E7F2"/>
<rect x="181.278" y="420.893" width="14.139" height="14.139" rx="7.06951" fill="#E0E7F2"/>
<path d="M224.367 365.159L224.771 365.563V371.218C224.636 371.757 224.299 372.094 223.761 372.228L223.155 370.613V366.371L224.367 365.159ZM223.155 363.543V359.301L223.761 357.685C224.299 357.82 224.636 358.157 224.771 358.695V364.351L224.367 364.755L223.155 363.543ZM233.223 364.149L234.031 364.957L233.223 365.765H227.971L227.164 364.957L227.971 364.149H233.223ZM234.031 372.228H227.366C226.827 372.094 226.49 371.757 226.356 371.218L227.971 370.613H233.425L234.031 372.228ZM226.356 370.814V365.563L226.76 365.159L227.971 366.371V370.209L226.356 370.814ZM232.819 359.301H227.992L226.376 358.695C226.51 358.157 226.847 357.82 227.386 357.685H233.425L232.819 359.301ZM233.223 363.543V359.301L233.829 357.685C234.368 357.82 234.704 358.157 234.839 358.695V364.351L234.435 364.755L233.223 363.543ZM244.492 365.159L244.896 365.563V371.218C244.762 371.757 244.425 372.094 243.886 372.228L243.28 370.613V366.371L244.492 365.159ZM243.482 372.228H237.423C236.884 372.094 236.548 371.757 236.413 371.218L238.029 370.613H242.876L243.482 372.228ZM236.413 370.814V365.563L236.817 365.159L238.029 366.371V370.209L236.413 370.814ZM242.876 359.301H238.049L236.433 358.695C236.568 358.157 236.904 357.82 237.443 357.685H243.482L242.876 359.301ZM238.029 359.705V363.543L236.817 364.755L236.413 364.351V359.099L238.029 359.705ZM243.28 363.543V359.301L243.886 357.685C244.425 357.82 244.762 358.157 244.896 358.695V364.351L244.492 364.755L243.28 363.543Z" fill="black"/>
<path d="M232.69 383.338L233.498 384.145L232.69 384.953H227.438L226.63 384.145L227.438 383.338H232.69ZM233.902 384.347L234.306 384.751V390.407C234.171 390.946 233.835 391.282 233.296 391.417L232.69 389.801V385.559L233.902 384.347ZM232.892 391.417H226.832C226.294 391.282 225.957 390.946 225.823 390.407L227.438 389.801H232.286L232.892 391.417ZM225.823 390.003V384.751L226.226 384.347L227.438 385.559V389.397L225.823 390.003ZM232.286 378.49H227.459L225.843 377.884C225.977 377.345 226.314 377.009 226.853 376.874H232.892L232.286 378.49ZM227.438 378.894V382.732L226.226 383.944L225.823 383.54V378.288L227.438 378.894ZM232.69 382.732V378.49L233.296 376.874C233.835 377.009 234.171 377.345 234.306 377.884V383.54L233.902 383.944L232.69 382.732ZM243.959 384.347L244.363 384.751V390.407C244.229 390.946 243.892 391.282 243.353 391.417L242.747 389.801V385.559L243.959 384.347ZM242.949 391.417H236.89C236.351 391.282 236.014 390.946 235.88 390.407L237.496 389.801H242.343L242.949 391.417ZM235.88 390.003V384.751L236.284 384.347L237.496 385.559V389.397L235.88 390.003ZM242.343 378.49H237.516L235.9 377.884C236.035 377.345 236.371 377.009 236.91 376.874H242.949L242.343 378.49ZM237.496 378.894V382.732L236.284 383.944L235.88 383.54V378.288L237.496 378.894ZM242.747 382.732V378.49L243.353 376.874C243.892 377.009 244.229 377.345 244.363 377.884V383.54L243.959 383.944L242.747 382.732Z" fill="black"/>
<path d="M232.69 401.516L233.498 402.324L232.69 403.132H227.438L226.63 402.324L227.438 401.516H232.69ZM233.902 402.526L234.306 402.93V408.586C234.171 409.125 233.835 409.461 233.296 409.596L232.69 407.98V403.738L233.902 402.526ZM232.892 409.596H226.832C226.294 409.461 225.957 409.125 225.823 408.586L227.438 407.98H232.286L232.892 409.596ZM225.823 408.182V402.93L226.226 402.526L227.438 403.738V407.576L225.823 408.182ZM232.892 396.669H227.459L225.843 396.063C225.977 395.524 226.314 395.187 226.853 395.053H233.498L232.892 396.669ZM227.438 397.073V400.91L226.226 402.122L225.823 401.718V396.467L227.438 397.073ZM243.959 402.526L244.363 402.93V408.586C244.229 409.125 243.892 409.461 243.353 409.596L242.747 407.98V403.738L243.959 402.526ZM242.949 409.596H236.89C236.351 409.461 236.014 409.125 235.88 408.586L237.496 407.98H242.343L242.949 409.596ZM235.88 408.182V402.93L236.284 402.526L237.496 403.738V407.576L235.88 408.182ZM242.343 396.669H237.516L235.9 396.063C236.035 395.524 236.371 395.187 236.91 395.053H242.949L242.343 396.669ZM237.496 397.073V400.91L236.284 402.122L235.88 401.718V396.467L237.496 397.073ZM242.747 400.91V396.669L243.353 395.053C243.892 395.187 244.229 395.524 244.363 396.063V401.718L243.959 402.122L242.747 400.91Z" fill="black"/>
<path d="M211.879 398.615C211.938 398.654 212.009 398.675 212.081 398.675C212.153 398.675 212.224 398.654 212.283 398.615L212.081 398.348L212.283 398.615L212.287 398.612L212.297 398.606L212.334 398.581C212.546 398.435 212.753 398.284 212.957 398.129C213.471 397.739 213.962 397.322 214.428 396.881C214.963 396.371 215.507 395.775 215.919 395.142C216.329 394.513 216.626 393.821 216.626 393.128C216.626 392.305 216.353 391.661 215.871 391.225C215.391 390.791 214.743 390.596 214.062 390.596C213.258 390.596 212.548 390.96 212.081 391.521C211.614 390.96 210.904 390.596 210.1 390.596C208.665 390.596 207.536 391.748 207.536 393.128C207.536 393.821 207.833 394.512 208.243 395.142C208.655 395.774 209.199 396.37 209.734 396.881C210.384 397.497 211.084 398.065 211.828 398.581L211.865 398.606L211.875 398.612L211.879 398.615Z" fill="black"/>
<path d="M185.318 405.24H192.892L196.427 395.141L199.457 409.785L203.497 400.191L205.012 405.24H218.141" stroke="black" stroke-width="2.01986"/>
<path d="M209.556 427.964L214.606 424.934L214.606 430.993L209.556 427.964Z" fill="#97A8C2"/>
<path d="M232.785 427.964L227.735 424.934L227.735 430.993L232.785 427.964Z" fill="#97A8C2"/>
<rect x="187.338" y="423.924" width="2.01986" height="8.07944" fill="#97A8C2"/>
<path d="M542.348 393.307V566.172C542.348 573.423 536.47 579.301 529.219 579.301H500.303" stroke="#9AA3AF" stroke-width="2.01986" stroke-dasharray="5.05 3.03"/>
<rect x="329.986" y="415.398" width="169.668" height="260.562" rx="24.2383" fill="#00050D"/>
<path fill-rule="evenodd" clip-rule="evenodd" d="M404.721 423.477C403.606 423.477 402.702 424.381 402.702 425.497C402.702 426.612 403.606 427.517 404.721 427.517H430.98C432.095 427.517 433 426.612 433 425.497C433 424.381 432.095 423.477 430.98 423.477H404.721ZM398.662 423.477C397.546 423.477 396.642 424.381 396.642 425.497C396.642 426.613 397.546 427.517 398.662 427.517C399.777 427.517 400.682 426.613 400.682 425.497C400.682 424.381 399.777 423.477 398.662 423.477Z" fill="#344053"/>
<path d="M355.234 419.438C343.521 419.438 334.026 428.933 334.026 440.646V658.791C334.026 670.504 343.521 680 355.234 680H474.406C486.119 680 495.615 670.504 495.615 658.791V440.646C495.615 428.933 486.119 419.438 474.406 419.438H464.307C463.191 419.438 462.287 420.342 462.287 421.457V421.457C462.287 428.151 456.861 433.577 450.168 433.577H379.473C372.78 433.577 367.354 428.151 367.354 421.457V421.457C367.354 420.342 366.449 419.438 365.334 419.438H355.234Z" fill="#E0E7F2"/>
<rect x="334.026" y="557.798" width="161.589" height="53.5263" fill="white"/>
<mask id="mask0_30214_24445" style="mask-type:alpha" maskUnits="userSpaceOnUse" x="334" y="419" width="162" height="261">
<path d="M355.234 419.438C343.521 419.438 334.026 428.933 334.026 440.646V658.791C334.026 670.504 343.521 680 355.234 680H474.406C486.119 680 495.615 670.504 495.615 658.791V440.646C495.615 428.933 486.119 419.438 474.406 419.438H464.307C463.191 419.438 462.287 420.342 462.287 421.458V421.458C462.287 428.151 456.861 433.577 450.168 433.577H379.473C372.779 433.577 367.353 428.151 367.353 421.458V421.458C367.353 420.342 366.449 419.438 365.334 419.438H355.234Z" fill="#1D73BE"/>
</mask>
<g mask="url(#mask0_30214_24445)">
<rect x="334.026" y="419.438" width="161.589" height="84.8342" fill="#1D73BE"/>
</g>
<circle cx="332.06" cy="575.06" r="6.05958" fill="#FFDE00"/>
<circle cx="332.06" cy="575.06" r="8.07944" stroke="#FFDE00" stroke-opacity="0.4" stroke-width="4.03972"/>
<circle cx="367.354" cy="467.914" r="20.1986" fill="#1B2432"/>
<path d="M367.354 467.775C365.113 467.775 363.314 465.976 363.314 463.735C363.314 461.526 365.113 459.696 367.354 459.696C369.563 459.696 371.394 461.526 371.394 463.735C371.394 465.976 369.563 467.775 367.354 467.775ZM368.932 469.29C371.962 469.29 374.423 471.752 374.423 474.782C374.423 475.381 373.918 475.855 373.319 475.855H361.357C360.758 475.855 360.284 475.381 360.284 474.782C360.284 471.752 362.715 469.29 365.744 469.29H368.932Z" fill="white"/>
<rect opacity="0.6" x="396.642" y="455.795" width="68.6753" height="5.04965" rx="2.52483" fill="#1B2432"/>
<rect opacity="0.6" x="396.642" y="464.885" width="48.4767" height="5.04965" rx="2.52483" fill="#1B2432"/>
<rect opacity="0.6" x="396.642" y="478.014" width="29.288" height="3.02979" rx="1.5149" fill="white"/>
<path d="M431.287 526.698V538.45H428.803V529.057H428.734L426.043 530.744V528.54L428.952 526.698H431.287ZM433.757 538.45V536.66L437.94 532.787C438.296 532.442 438.595 532.132 438.836 531.857C439.08 531.582 439.266 531.312 439.392 531.048C439.518 530.78 439.582 530.491 439.582 530.181C439.582 529.837 439.503 529.541 439.346 529.292C439.189 529.04 438.975 528.846 438.704 528.712C438.432 528.575 438.124 528.506 437.78 528.506C437.42 528.506 437.106 528.579 436.839 528.724C436.571 528.869 436.364 529.078 436.219 529.349C436.074 529.621 436.001 529.944 436.001 530.319H433.642C433.642 529.55 433.817 528.883 434.165 528.317C434.513 527.75 435.001 527.312 435.628 527.002C436.255 526.693 436.978 526.538 437.797 526.538C438.639 526.538 439.371 526.687 439.995 526.985C440.622 527.28 441.11 527.689 441.458 528.213C441.806 528.737 441.98 529.338 441.98 530.015C441.98 530.459 441.892 530.897 441.716 531.329C441.544 531.761 441.236 532.241 440.792 532.769C440.349 533.293 439.723 533.923 438.916 534.657L437.2 536.339V536.419H442.135V538.45H433.757ZM448.22 538.708C447.233 538.705 446.384 538.462 445.672 537.98C444.965 537.498 444.419 536.8 444.037 535.885C443.658 534.971 443.471 533.871 443.475 532.586C443.475 531.304 443.664 530.212 444.043 529.309C444.425 528.406 444.97 527.72 445.678 527.249C446.39 526.775 447.237 526.538 448.22 526.538C449.203 526.538 450.049 526.775 450.756 527.249C451.468 527.724 452.015 528.412 452.398 529.315C452.78 530.214 452.969 531.304 452.966 532.586C452.966 533.875 452.774 534.977 452.392 535.891C452.013 536.805 451.47 537.503 450.762 537.985C450.054 538.467 449.207 538.708 448.22 538.708ZM448.22 536.648C448.893 536.648 449.431 536.31 449.833 535.633C450.234 534.956 450.433 533.94 450.429 532.586C450.429 531.694 450.337 530.952 450.154 530.359C449.974 529.766 449.718 529.321 449.385 529.022C449.056 528.724 448.668 528.575 448.22 528.575C447.551 528.575 447.015 528.909 446.613 529.579C446.212 530.248 446.009 531.251 446.005 532.586C446.005 533.489 446.095 534.242 446.275 534.847C446.458 535.447 446.717 535.899 447.049 536.201C447.382 536.499 447.772 536.648 448.22 536.648ZM459.556 526.147L455.768 540.218H453.662L457.45 526.147H459.556ZM464.771 538.611C463.888 538.611 463.101 538.467 462.413 538.181C461.728 537.89 461.191 537.494 460.8 536.993C460.41 536.492 460.215 535.924 460.215 535.288C460.215 534.799 460.326 534.349 460.548 533.94C460.774 533.527 461.08 533.184 461.466 532.913C461.852 532.637 462.285 532.461 462.763 532.385V532.305C462.135 532.178 461.627 531.874 461.236 531.392C460.846 530.906 460.651 530.342 460.651 529.699C460.651 529.091 460.829 528.55 461.185 528.076C461.541 527.597 462.028 527.222 462.648 526.951C463.272 526.675 463.979 526.538 464.771 526.538C465.563 526.538 466.269 526.675 466.889 526.951C467.512 527.226 468.002 527.603 468.358 528.081C468.713 528.556 468.893 529.095 468.897 529.699C468.893 530.346 468.694 530.91 468.3 531.392C467.906 531.874 467.401 532.178 466.785 532.305V532.385C467.256 532.461 467.682 532.637 468.065 532.913C468.451 533.184 468.757 533.527 468.983 533.94C469.213 534.349 469.329 534.799 469.333 535.288C469.329 535.924 469.132 536.492 468.742 536.993C468.352 537.494 467.812 537.89 467.124 538.181C466.439 538.467 465.655 538.611 464.771 538.611ZM464.771 536.786C465.165 536.786 465.51 536.715 465.804 536.574C466.099 536.428 466.328 536.23 466.493 535.977C466.661 535.721 466.745 535.426 466.745 535.093C466.745 534.753 466.659 534.453 466.487 534.192C466.315 533.929 466.081 533.722 465.787 533.573C465.492 533.42 465.154 533.343 464.771 533.343C464.393 533.343 464.054 533.42 463.756 533.573C463.457 533.722 463.222 533.929 463.05 534.192C462.881 534.453 462.797 534.753 462.797 535.093C462.797 535.426 462.88 535.721 463.044 535.977C463.209 536.23 463.44 536.428 463.738 536.574C464.037 536.715 464.381 536.786 464.771 536.786ZM464.771 531.536C465.1 531.536 465.393 531.469 465.649 531.335C465.905 531.201 466.106 531.015 466.252 530.778C466.397 530.541 466.47 530.268 466.47 529.958C466.47 529.652 466.397 529.384 466.252 529.154C466.106 528.921 465.907 528.739 465.655 528.609C465.402 528.475 465.108 528.408 464.771 528.408C464.438 528.408 464.144 528.475 463.888 528.609C463.631 528.739 463.43 528.921 463.285 529.154C463.143 529.384 463.073 529.652 463.073 529.958C463.073 530.268 463.145 530.541 463.291 530.778C463.436 531.015 463.637 531.201 463.893 531.335C464.15 531.469 464.442 531.536 464.771 531.536ZM475.355 538.708C474.368 538.705 473.519 538.462 472.807 537.98C472.1 537.498 471.554 536.8 471.172 535.885C470.793 534.971 470.606 533.871 470.609 532.586C470.609 531.304 470.799 530.212 471.178 529.309C471.56 528.406 472.105 527.72 472.813 527.249C473.525 526.775 474.372 526.538 475.355 526.538C476.338 526.538 477.184 526.775 477.891 527.249C478.603 527.724 479.15 528.412 479.532 529.315C479.915 530.214 480.104 531.304 480.101 532.586C480.101 533.875 479.909 534.977 479.527 535.891C479.148 536.805 478.605 537.503 477.897 537.985C477.189 538.467 476.342 538.708 475.355 538.708ZM475.355 536.648C476.028 536.648 476.566 536.31 476.967 535.633C477.369 534.956 477.568 533.94 477.564 532.586C477.564 531.694 477.472 530.952 477.289 530.359C477.109 529.766 476.853 529.321 476.52 529.022C476.191 528.724 475.803 528.575 475.355 528.575C474.686 528.575 474.15 528.909 473.748 529.579C473.347 530.248 473.144 531.251 473.14 532.586C473.14 533.489 473.23 534.242 473.41 534.847C473.593 535.447 473.852 535.899 474.184 536.201C474.517 536.499 474.907 536.648 475.355 536.648Z" fill="#636B78"/>
<path d="M461.823 591.127C461.012 591.127 460.289 590.978 459.654 590.68C459.023 590.381 458.522 589.97 458.151 589.446C457.779 588.922 457.586 588.321 457.571 587.644H459.981C460.008 588.099 460.199 588.468 460.555 588.752C460.911 589.035 461.333 589.176 461.823 589.176C462.213 589.176 462.558 589.09 462.856 588.918C463.158 588.742 463.393 588.499 463.562 588.189C463.734 587.875 463.82 587.516 463.82 587.11C463.82 586.697 463.732 586.334 463.556 586.02C463.384 585.706 463.145 585.462 462.839 585.286C462.533 585.11 462.183 585.02 461.789 585.016C461.444 585.016 461.11 585.087 460.784 585.228C460.463 585.37 460.213 585.563 460.033 585.808L457.823 585.412L458.38 579.215H465.564V581.246H460.429L460.125 584.19H460.193C460.4 583.899 460.712 583.658 461.129 583.467C461.546 583.275 462.012 583.18 462.529 583.18C463.237 583.18 463.868 583.346 464.422 583.679C464.977 584.012 465.415 584.469 465.737 585.05C466.058 585.628 466.217 586.294 466.213 587.047C466.217 587.839 466.033 588.543 465.662 589.159C465.295 589.771 464.78 590.253 464.118 590.605C463.46 590.953 462.695 591.127 461.823 591.127ZM468.696 591.116C468.317 591.116 467.992 590.982 467.72 590.714C467.452 590.442 467.318 590.117 467.318 589.739C467.318 589.364 467.452 589.042 467.72 588.774C467.992 588.507 468.317 588.373 468.696 588.373C469.063 588.373 469.384 588.507 469.66 588.774C469.935 589.042 470.073 589.364 470.073 589.739C470.073 589.991 470.008 590.222 469.878 590.433C469.751 590.639 469.585 590.806 469.378 590.932C469.172 591.054 468.944 591.116 468.696 591.116ZM475.765 579.054C476.369 579.054 476.951 579.155 477.509 579.358C478.072 579.561 478.573 579.884 479.013 580.328C479.456 580.772 479.806 581.361 480.063 582.095C480.323 582.826 480.455 583.723 480.459 584.786C480.459 585.785 480.346 586.676 480.12 587.46C479.898 588.241 479.579 588.905 479.162 589.452C478.745 589.999 478.242 590.416 477.653 590.703C477.063 590.986 476.406 591.127 475.679 591.127C474.894 591.127 474.202 590.976 473.601 590.674C473.001 590.368 472.517 589.953 472.15 589.429C471.786 588.901 471.566 588.308 471.49 587.65H473.94C474.036 588.078 474.236 588.411 474.542 588.648C474.849 588.882 475.227 588.998 475.679 588.998C476.444 588.998 477.025 588.665 477.423 588C477.821 587.33 478.022 586.414 478.026 585.251H477.945C477.769 585.595 477.532 585.892 477.234 586.141C476.935 586.385 476.593 586.575 476.207 586.709C475.824 586.843 475.417 586.91 474.984 586.91C474.292 586.91 473.674 586.747 473.131 586.422C472.588 586.097 472.159 585.649 471.846 585.079C471.532 584.509 471.375 583.859 471.375 583.128C471.371 582.34 471.553 581.638 471.92 581.022C472.287 580.406 472.8 579.924 473.458 579.576C474.12 579.224 474.889 579.05 475.765 579.054ZM475.782 581.005C475.396 581.005 475.051 581.097 474.749 581.28C474.451 581.464 474.213 581.711 474.038 582.021C473.865 582.33 473.781 582.677 473.785 583.059C473.785 583.446 473.869 583.794 474.038 584.104C474.21 584.41 474.443 584.654 474.738 584.838C475.036 585.018 475.376 585.108 475.759 585.108C476.046 585.108 476.312 585.054 476.557 584.947C476.801 584.84 477.014 584.693 477.194 584.505C477.377 584.314 477.521 584.094 477.624 583.845C477.727 583.597 477.779 583.333 477.779 583.053C477.775 582.682 477.687 582.342 477.515 582.032C477.343 581.722 477.106 581.474 476.803 581.286C476.501 581.099 476.161 581.005 475.782 581.005Z" fill="#636B78"/>
<circle cx="362.304" cy="531.54" r="15.149" fill="#B7BDC8"/>
<path d="M361.989 538.511C362.081 538.575 362.191 538.609 362.304 538.609C362.416 538.609 362.526 538.575 362.618 538.511L362.304 538.077L362.619 538.511L362.625 538.507L362.64 538.496L362.698 538.455C363.027 538.218 363.35 537.974 363.667 537.722C364.467 537.087 365.23 536.41 365.955 535.694C366.787 534.864 367.633 533.895 368.274 532.868C368.912 531.846 369.374 530.722 369.374 529.595C369.374 528.257 368.949 527.212 368.199 526.502C367.452 525.796 366.444 525.481 365.386 525.481C364.135 525.481 363.031 526.072 362.304 526.983C361.578 526.071 360.473 525.48 359.223 525.48C356.989 525.48 355.235 527.353 355.235 529.594C355.235 530.721 355.696 531.844 356.334 532.867C356.975 533.895 357.821 534.863 358.653 535.693C359.665 536.694 360.754 537.618 361.91 538.455L361.968 538.496L361.984 538.507L361.989 538.511Z" fill="white"/>
<circle cx="362.304" cy="584.056" r="15.149" fill="#B7BDC8"/>
<path d="M363.527 577.716C362.987 576.744 361.621 576.744 361.081 577.716L357.935 583.387C357.52 584.136 357.254 585.002 357.254 585.948C357.254 586.705 357.416 587.453 357.728 588.138C358.04 588.824 358.496 589.431 359.061 589.917C359.627 590.403 360.29 590.756 361.004 590.951C361.717 591.146 362.464 591.178 363.191 591.046C365.042 590.722 366.566 589.3 367.121 587.479C367.577 585.983 367.321 584.607 366.718 583.474L366.716 583.47L363.527 577.716Z" fill="white"/>
<g filter="url(#filter0_d_30214_24445)">
<rect x="472.975" y="316.183" width="84.8342" height="113.112" rx="8.07944" fill="#00050D"/>
<rect x="484.084" y="327.292" width="62.6157" height="61.6058" rx="1.00993" fill="#00A19A"/>
<rect x="484.589" y="327.797" width="61.6058" height="60.5958" rx="0.504965" stroke="white" stroke-opacity="0.2" stroke-width="1.00993"/>
<rect x="484.084" y="390.917" width="30.2979" height="16.1589" rx="1.00993" fill="#E0E7F2"/>
<rect x="516.402" y="390.917" width="30.2979" height="16.1589" rx="1.00993" fill="#E0E7F2"/>
<path d="M495.194 418.185C495.194 413.723 498.811 410.106 503.273 410.106H527.512C531.974 410.106 535.591 413.723 535.591 418.185V429.294H495.194V418.185Z" fill="#1B2432"/>
<path d="M507.313 413.136H523.472V462.623C523.472 463.738 522.568 464.642 521.452 464.642H509.333C508.217 464.642 507.313 463.738 507.313 462.623V413.136Z" fill="#E0E7F2"/>
<rect x="507.313" y="413.136" width="16.1589" height="3.02979" fill="#B5BDCA"/>
<rect x="512.363" y="453.533" width="6.05958" height="11.1092" fill="#DB3833"/>
<path d="M493.908 332.81C493.584 332.185 492.764 332.185 492.44 332.81L490.553 336.455C490.304 336.937 490.144 337.494 490.144 338.102C490.144 338.589 490.241 339.069 490.428 339.51C490.616 339.951 490.889 340.341 491.228 340.654C491.568 340.966 491.966 341.193 492.394 341.318C492.822 341.444 493.27 341.464 493.706 341.379C494.817 341.171 495.731 340.257 496.064 339.086C496.338 338.124 496.184 337.24 495.822 336.512L495.821 336.509L493.908 332.81Z" fill="black"/>
<path d="M491.311 381.828L494.951 378.07H503.682L507.111 381.828H491.311ZM508.242 380.297L504.425 376.713V368.155L508.242 364.745V380.297ZM494.351 365.998C493.526 365.348 492.689 364.711 491.841 364.084L494.351 362.24H504.001L506.475 364.084L504.001 365.998H494.351ZM491.275 346.48H507.076L503.576 350.238H494.916L491.275 346.48ZM490.144 363.528V347.976L493.962 351.351V359.979L490.144 363.528Z" fill="black"/>
<path d="M512.619 376.679H517.072V381.132H512.619V376.679Z" fill="black"/>
<path d="M538.621 380.297L534.803 376.713V368.155L538.621 364.745V380.297ZM524.729 365.998C523.904 365.348 523.068 364.711 522.219 364.084L524.729 362.24H534.379L536.853 364.084L534.379 365.998H524.729ZM521.654 346.48H537.454L533.955 350.238H525.295L521.654 346.48ZM520.523 363.528V347.976L524.34 351.351V359.979L520.523 363.528ZM538.515 347.976V363.528L534.697 360.153V351.56L538.515 347.976Z" fill="black"/>
<path d="M494.184 398.997L501.253 394.957L501.253 403.037L494.184 398.997Z" fill="#97A8C2"/>
<path d="M535.591 398.997L528.521 394.957L528.521 403.037L535.591 398.997Z" fill="#97A8C2"/>
</g>
<circle cx="497.811" cy="580.171" r="6.05958" fill="#FFDE00"/>
<circle cx="497.811" cy="580.171" r="8.07944" stroke="#FFDE00" stroke-opacity="0.4" stroke-width="4.03972"/>
<circle cx="331.671" cy="531.611" r="6.05958" fill="#FFDE00"/>
<circle cx="331.671" cy="531.611" r="8.07944" stroke="#FFDE00" stroke-opacity="0.4" stroke-width="4.03972"/>
</g>
<defs>
<filter id="filter0_d_30214_24445" x="472.975" y="316.183" width="84.8342" height="152.5" filterUnits="userSpaceOnUse" color-interpolation-filters="sRGB">
<feFlood flood-opacity="0" result="BackgroundImageFix"/>
<feColorMatrix in="SourceAlpha" type="matrix" values="0 0 0 0 0 0 0 0 0 0 0 0 0 0 0 0 0 0 127 0" result="hardAlpha"/>
<feOffset dy="4.03972"/>
<feComposite in2="hardAlpha" operator="out"/>
<feColorMatrix type="matrix" values="0 0 0 0 0 0 0 0 0 0 0 0 0 0 0 0 0 0 0.25 0"/>
<feBlend mode="normal" in2="BackgroundImageFix" result="effect1_dropShadow_30214_24445"/>
<feBlend mode="normal" in="SourceGraphic" in2="effect1_dropShadow_30214_24445" result="shape"/>
</filter>
<clipPath id="clip0_30214_24445">
<rect width="588" height="588" fill="white"/>
</clipPath>
</defs>
</svg>
