<svg width="545" height="98" viewBox="0 0 545 98" fill="none" xmlns="http://www.w3.org/2000/svg">
<path fill-rule="evenodd" clip-rule="evenodd" d="M5.6 3.5C2.50721 3.5 0 6.00721 0 9.10001V57.05H16.9007L23.9735 49.0127C24.3568 48.5772 24.9032 48.3196 25.4831 48.3011C26.063 48.2826 26.6247 48.5049 27.0349 48.9151L32.3533 54.2335L39.2463 21.9614C39.4547 20.9861 40.3202 20.2918 41.3175 20.3001C42.3148 20.3084 43.1687 21.0171 43.3607 21.9957L52.2079 67.0875L53.9438 58.7233C54.1461 57.7487 55.0047 57.05 56 57.05H63.2396L70.3221 45.7825C70.7024 45.1775 71.3642 44.8074 72.0788 44.8001C72.7934 44.7929 73.4625 45.1496 73.855 45.7468L81.2829 57.05H94.5V61.25H80.15C79.4429 61.25 78.7833 60.8942 78.395 60.3033L72.1393 50.7837L66.1779 60.2676C65.7936 60.879 65.1222 61.25 64.4 61.25H57.7089L54.2062 78.1268C54.0031 79.1056 53.1382 79.8055 52.1386 79.8C51.139 79.7946 50.2818 79.0853 50.0893 78.1044L41.2127 32.8624L35.6537 58.8887C35.4929 59.6413 34.9334 60.2457 34.1954 60.4639C33.4575 60.6821 32.6593 60.4791 32.1151 59.935L25.6478 53.4677L19.4265 60.5374C19.0278 60.9904 18.4535 61.25 17.85 61.25H0V90.3C0 93.3928 2.5072 95.9 5.59999 95.9H289.8C292.893 95.9 295.4 93.3928 295.4 90.3V9.1C295.4 6.00721 292.893 3.5 289.8 3.5H5.6ZM101.15 36.7502H103.25H122.85C128.263 36.7502 132.65 41.1378 132.65 46.5502C132.65 51.9626 128.263 56.3502 122.85 56.3502H112.35V52.1502H122.85C125.943 52.1502 128.45 49.643 128.45 46.5502C128.45 43.4574 125.943 40.9502 122.85 40.9502H105.35V68.2502H101.15V38.8502V36.7502ZM159.604 56.6998L152.587 44.7305L148.8 51.1001H143.913L150.795 39.5266L152.613 36.4693L154.412 39.5379L171.448 68.6002H166.58L162.066 60.8998H143.206L138.643 68.6002H133.761L139.65 58.6629V56.6998H159.604ZM206.778 36.4003L194.022 50.4004H199.704L207.2 42.1733V50.4004H211.4V36.7503V36.4003H206.778ZM207.2 55.3004L211.4 55.3003V68.2503H207.2V55.3004ZM195.24 55.3004H189.558L182.7 62.8274V55.3004H178.5V68.2503V68.6002H183.122L195.24 55.3004ZM182.7 50.4004H178.5V36.7503H182.7V50.4004ZM235.55 37.4499C227.879 37.4499 221.518 43.0591 220.344 50.3998H224.619C225.736 45.3926 230.206 41.6499 235.55 41.6499H250.6V37.4499H235.55ZM224.465 55.2998H220.226C220.641 59.0982 222.717 62.2137 225.357 64.3989C228.289 66.8253 232.079 68.2499 235.55 68.2499H250.6V64.0499H235.55C233.144 64.0499 230.284 63.0245 228.035 61.1633C226.177 59.6255 224.85 57.6194 224.465 55.2998ZM257.95 60.5499C257.95 56.2973 261.397 52.8499 265.65 52.8499H272.35C273.482 52.8499 274.4 53.7677 274.4 54.8999V61.2499V68.2499H271.6V66.7203C271.492 66.7934 271.382 66.8634 271.27 66.9304C269.575 67.9475 267.545 68.2499 266 68.2499H265.65C261.397 68.2499 257.95 64.8025 257.95 60.5499ZM271.6 61.2499V55.6499H265.65C262.944 55.6499 260.75 57.8437 260.75 60.5499C260.75 63.2561 262.944 65.4499 265.65 65.4499H266C267.255 65.4499 268.725 65.1923 269.83 64.5294C270.849 63.918 271.6 62.9525 271.6 61.2499Z" fill="white"/>
<path d="M154 34.2998L133.7 68.9498L138.6 34.2998H154Z" fill="white"/>
<path d="M315.129 20H317.598V14.8452C318.402 14.9432 319.362 15.002 320.323 15.002C323.518 15.002 324.674 14.0808 324.674 10.6508C324.674 7.2404 323.518 6.2996 320.029 6.2996C317.716 6.2996 316.677 6.3192 315.129 6.476V20ZM317.598 13.0028V8.3184H319.97C321.675 8.3184 322.204 8.7888 322.204 10.6508C322.204 12.5128 321.675 12.9832 319.97 13.0028H317.598ZM335.505 18.0204H330.193C329.487 18.0204 329.233 17.7264 329.233 16.8836V13.8652H334.76V11.9836H329.233V9.612C329.233 8.7692 329.487 8.4752 330.193 8.4752H335.505L335.603 6.5936C333.819 6.4368 331.643 6.4368 329.644 6.4368C327.88 6.4368 326.783 7.4168 326.783 9.0044V17.4716C326.783 19.0592 327.861 20.0392 329.644 20.0392C331.643 20.0392 333.819 20.0392 335.603 19.8824L335.505 18.0204ZM345.253 16.178L346.37 20H348.879L344.822 7.1228C344.704 6.7112 344.351 6.476 343.94 6.476H341.549C341.137 6.476 340.784 6.7112 340.667 7.1228L336.609 20H339.118L340.235 16.178H345.253ZM344.665 14.1592H340.823L342.176 9.4944L342.489 8.338H343.019C343.077 8.7104 343.215 9.122 343.313 9.4944L344.665 14.1592ZM360.751 6.476H358.282V11.7876H352.951V6.476H350.501V20H352.951V13.8064H358.282V20H360.751V6.476ZM374.485 20V6.476H371.977L366.881 15.3548C366.587 15.884 366.332 16.4132 366.136 16.9816H365.999C366.116 16.3936 366.155 15.8056 366.155 15.2176V6.476H363.803V20H366.293L371.408 11.082C371.683 10.6116 371.937 10.004 372.153 9.4356H372.271C372.173 10.004 372.114 10.5724 372.114 11.1408V20H374.485ZM388.287 6.476C387.719 6.476 387.386 6.7504 387.248 7.2992L385.328 14.61C385.171 15.2568 385.053 15.8448 384.916 16.472H384.622C384.504 15.8448 384.387 15.2568 384.23 14.6296L382.29 7.2992C382.152 6.7504 381.839 6.476 381.29 6.476H378.762C378.134 6.476 377.821 6.8092 377.801 7.4364L377.292 20H379.683L380.094 8.4556H380.447L382.799 17.452C382.936 17.9812 383.289 18.2752 383.858 18.2752H385.72C386.288 18.2752 386.621 17.9812 386.758 17.452L389.091 8.4556H389.444L389.914 20H392.305L391.776 7.4364C391.737 6.8092 391.423 6.476 390.796 6.476H388.287ZM402.292 16.178L403.409 20H405.918L401.861 7.1228C401.743 6.7112 401.39 6.476 400.979 6.476H398.588C398.176 6.476 397.823 6.7112 397.706 7.1228L393.648 20H396.157L397.274 16.178H402.292ZM401.704 14.1592H397.862L399.215 9.4944L399.528 8.338H400.058C400.116 8.7104 400.254 9.122 400.352 9.4944L401.704 14.1592ZM419.241 18.0988H417.595V6.476H415.125V18.0988H409.99V6.476H407.54V20H417.34L417.536 22.9596H419.241V18.0988ZM432.003 20V6.476H429.494L424.398 15.3548C424.104 15.884 423.849 16.4132 423.653 16.9816H423.516C423.634 16.3936 423.673 15.8056 423.673 15.2176V6.476H421.321V20H423.81L428.926 11.082C429.2 10.6116 429.455 10.004 429.671 9.4356H429.788C429.69 10.004 429.631 10.5724 429.631 11.1408V20H432.003ZM440.14 6.2212C436.024 6.2212 434.574 7.8676 434.574 13.238C434.574 18.6084 436.024 20.2548 440.14 20.2548C444.276 20.2548 445.726 18.6084 445.726 13.238C445.726 7.8676 444.276 6.2212 440.14 6.2212ZM440.14 8.3184C442.434 8.3184 443.139 9.4748 443.139 13.238C443.139 17.0012 442.434 18.1576 440.14 18.1576C437.867 18.1576 437.161 17.0012 437.161 13.238C437.161 9.4748 437.867 8.3184 440.14 8.3184ZM458.541 6.476H456.071V11.7876H450.74V6.476H448.29V20H450.74V13.8064H456.071V20H458.541V6.476ZM471.844 6.476H469.374V11.7876H464.043V6.476H461.593V20H464.043V13.8064H469.374V20H471.844V6.476ZM479.972 6.2212C475.856 6.2212 474.406 7.8676 474.406 13.238C474.406 18.6084 475.856 20.2548 479.972 20.2548C484.108 20.2548 485.558 18.6084 485.558 13.238C485.558 7.8676 484.108 6.2212 479.972 6.2212ZM479.972 8.3184C482.265 8.3184 482.971 9.4748 482.971 13.238C482.971 17.0012 482.265 18.1576 479.972 18.1576C477.698 18.1576 476.993 17.0012 476.993 13.238C476.993 9.4748 477.698 8.3184 479.972 8.3184ZM322.342 41.178L323.459 45H325.968L321.91 32.1228C321.793 31.7112 321.44 31.476 321.028 31.476H318.637C318.226 31.476 317.873 31.7112 317.755 32.1228L313.698 45H316.207L317.324 41.178H322.342ZM321.754 39.1592H317.912L319.264 34.4944L319.578 33.338H320.107C320.166 33.7104 320.303 34.122 320.401 34.4944L321.754 39.1592ZM337.84 31.476H335.371V36.7876H330.039V31.476H327.589V45H330.039V38.8064H335.371V45H337.84V31.476ZM349.496 43.0204H344.185C343.479 43.0204 343.224 42.7264 343.224 41.8836V38.8652H348.752V36.9836H343.224V34.612C343.224 33.7692 343.479 33.4752 344.185 33.4752H349.496L349.594 31.5936C347.811 31.4368 345.635 31.4368 343.636 31.4368C341.872 31.4368 340.774 32.4168 340.774 34.0044V42.4716C340.774 44.0592 341.852 45.0392 343.636 45.0392C345.635 45.0392 347.811 45.0392 349.594 44.8824L349.496 43.0204ZM360.874 42.8832C359.718 43.04 358.659 43.0792 356.935 43.0792C354.7 43.0792 354.014 41.9424 354.014 38.238C354.014 34.5336 354.7 33.3968 356.935 33.3968C358.561 33.3968 359.365 33.436 360.58 33.534L360.815 31.672C359.639 31.3584 358.738 31.2408 356.935 31.2408C352.877 31.2408 351.427 33.0832 351.427 38.238C351.427 43.3928 352.877 45.2352 356.935 45.2352C358.797 45.2352 359.894 45.098 361.09 44.7256L360.874 42.8832ZM372.911 33.5732V31.476H362.131V33.5732H366.267V45H368.736V33.5732H372.911ZM383.452 43.0204H378.14C377.435 43.0204 377.18 42.7264 377.18 41.8836V38.8652H382.707V36.9836H377.18V34.612C377.18 33.7692 377.435 33.4752 378.14 33.4752H383.452L383.55 31.5936C381.766 31.4368 379.591 31.4368 377.592 31.4368C375.828 31.4368 374.73 32.4168 374.73 34.0044V42.4716C374.73 44.0592 375.808 45.0392 377.592 45.0392C379.591 45.0392 381.766 45.0392 383.55 44.8824L383.452 43.0204ZM385.595 33.4948C386.673 33.3968 387.81 33.2596 389.261 33.2596C390.966 33.2596 391.534 33.632 391.534 35.1608C391.534 36.67 391.005 37.062 389.457 37.062H387.007V38.9044H389.457C391.26 38.924 391.848 39.414 391.848 41.178C391.848 42.8244 391.299 43.1968 389.574 43.1968C388.026 43.1968 386.556 43.0596 385.282 42.8832L385.086 44.6276C386.517 45.0196 387.987 45.1568 390.025 45.1568C393.102 45.1568 394.376 44.412 394.376 41.6288C394.376 39.4728 393.69 38.1988 391.691 38.0224V37.944C393.318 37.7872 393.965 36.7876 393.965 34.8472C393.965 32.064 392.789 31.3192 389.437 31.3192C387.791 31.3192 386.654 31.4172 385.399 31.672L385.595 33.4948ZM407.58 45V31.476H405.071L399.975 40.3548C399.681 40.884 399.426 41.4132 399.23 41.9816H399.093C399.21 41.3936 399.25 40.8056 399.25 40.2176V31.476H396.898V45H399.387L404.502 36.082C404.777 35.6116 405.032 35.004 405.247 34.4356H405.365C405.267 35.004 405.208 35.5724 405.208 36.1408V45H407.58ZM415.717 31.2212C411.601 31.2212 410.15 32.8676 410.15 38.238C410.15 43.6084 411.601 45.2548 415.717 45.2548C419.852 45.2548 421.303 43.6084 421.303 38.238C421.303 32.8676 419.852 31.2212 415.717 31.2212ZM415.717 33.3184C418.01 33.3184 418.716 34.4748 418.716 38.238C418.716 42.0012 418.01 43.1576 415.717 43.1576C413.443 43.1576 412.738 42.0012 412.738 38.238C412.738 34.4748 413.443 33.3184 415.717 33.3184ZM433.652 31.476H428.399C426.556 31.476 425.537 32.4168 425.38 34.22C425.067 38.434 424.832 40.0608 424.224 41.6092C423.871 42.55 423.205 42.9224 422.284 43.138L422.48 45.0392C424.4 45.196 425.714 44.2944 426.537 42.256C427.242 40.5312 427.438 38.5516 427.772 34.612C427.85 33.7692 428.262 33.3772 429.085 33.3772H431.182V45H433.652V31.476ZM441.786 31.2212C437.67 31.2212 436.22 32.8676 436.22 38.238C436.22 43.6084 437.67 45.2548 441.786 45.2548C445.922 45.2548 447.372 43.6084 447.372 38.238C447.372 32.8676 445.922 31.2212 441.786 31.2212ZM441.786 33.3184C444.08 33.3184 444.785 34.4748 444.785 38.238C444.785 42.0012 444.08 43.1576 441.786 43.1576C439.513 43.1576 438.807 42.0012 438.807 38.238C438.807 34.4748 439.513 33.3184 441.786 33.3184ZM449.897 45H452.347V34.71C452.347 33.7692 452.641 33.4752 453.503 33.4752H458.247L458.364 31.6132C456.62 31.4368 454.523 31.4368 452.602 31.4368C451.034 31.4368 449.897 32.5736 449.897 34.2396V45ZM470.897 45V31.476H468.388L463.292 40.3548C462.998 40.884 462.743 41.4132 462.547 41.9816H462.41C462.527 41.3936 462.567 40.8056 462.567 40.2176V31.476H460.215V45H462.704L467.819 36.082C468.094 35.6116 468.349 35.004 468.564 34.4356H468.682C468.584 35.004 468.525 35.5724 468.525 36.1408V45H470.897ZM483.464 31.476H481.014V37.3756C479.642 37.944 478.72 38.1204 477.584 38.1204C476.349 38.1204 475.898 37.6696 475.918 36.572V31.476H473.468V37.0816C473.468 39.2572 474.506 40.2764 476.702 40.2764C477.799 40.2764 479.504 39.9432 481.014 39.1788V45H483.464V31.476ZM495.118 43.0204H489.807C489.101 43.0204 488.846 42.7264 488.846 41.8836V38.8652H494.374V36.9836H488.846V34.612C488.846 33.7692 489.101 33.4752 489.807 33.4752H495.118L495.216 31.5936C493.433 31.4368 491.257 31.4368 489.258 31.4368C487.494 31.4368 486.396 32.4168 486.396 34.0044V42.4716C486.396 44.0592 487.474 45.0392 489.258 45.0392C491.257 45.0392 493.433 45.0392 495.216 44.8824L495.118 43.0204ZM506.496 42.8832C505.34 43.04 504.281 43.0792 502.557 43.0792C500.322 43.0792 499.636 41.9424 499.636 38.238C499.636 34.5336 500.322 33.3968 502.557 33.3968C504.183 33.3968 504.987 33.436 506.202 33.534L506.437 31.672C505.261 31.3584 504.36 31.2408 502.557 31.2408C498.499 31.2408 497.049 33.0832 497.049 38.238C497.049 43.3928 498.499 45.2352 502.557 45.2352C504.419 45.2352 505.516 45.098 506.712 44.7256L506.496 42.8832ZM514.339 37.9048C516.808 37.6108 517.318 35.5136 518.651 31.476H516.161C515.044 35.004 514.456 37.0032 512.32 37.0228H511.183C511.261 36.5132 511.32 35.984 511.32 35.4548V31.476H508.87V45H511.32V40.2372C511.32 39.806 511.261 39.3552 511.183 38.9044H512.32C514.574 38.9044 515.005 40.6488 516.436 45H519.003C517.396 40.2764 516.965 38.2772 514.339 37.9832V37.9048ZM528.218 41.178L529.335 45H531.844L527.787 32.1228C527.669 31.7112 527.317 31.476 526.905 31.476H524.514C524.102 31.476 523.749 31.7112 523.632 32.1228L519.575 45H522.083L523.201 41.178H528.218ZM527.63 39.1592H523.789L525.141 34.4944L525.455 33.338H525.984C526.043 33.7104 526.18 34.122 526.278 34.4944L527.63 39.1592ZM542.639 45V31.476C541.09 31.3192 540.032 31.2996 537.739 31.2996C534.485 31.2996 533.172 32.3972 533.172 35.2588C533.152 37.3952 533.838 38.5712 535.739 38.8064L535.759 38.924C535.014 39.0612 534.113 39.5708 533.779 40.8644L532.643 45H535.23L536.269 40.9428C536.523 40.0412 537.013 39.708 537.837 39.708L540.169 39.6884V45H542.639ZM540.169 37.6892H537.797C536.151 37.6892 535.622 37.0424 535.622 35.4156C535.641 33.7496 536.151 33.3184 537.797 33.3184H540.169V37.6892ZM325.811 69V55.476H323.302L318.206 64.3548C317.912 64.884 317.657 65.4132 317.461 65.9816H317.324C317.442 65.3936 317.481 64.8056 317.481 64.2176V55.476H315.129V69H317.618L322.734 60.082C323.008 59.6116 323.263 59.004 323.478 58.4356H323.596C323.498 59.004 323.439 59.5724 323.439 60.1408V69H325.811ZM339.123 55.476H336.653V60.7876H331.322V55.476H328.872V69H331.322V62.8064H336.653V69H339.123V55.476ZM349.995 54.4764H347.545V56.2992C343.017 56.4952 341.41 57.9848 341.41 62.1008C341.41 66.1188 343.017 67.5692 347.545 67.7848V69.588H350.014V67.7848C354.503 67.5692 356.13 66.0992 356.149 62.1008C356.13 57.9848 354.503 56.5148 349.995 56.2992V54.4764ZM347.643 65.8052C344.722 65.6484 343.899 64.786 343.899 62.1008C343.899 59.3176 344.722 58.416 347.643 58.2592V65.8052ZM349.897 58.2592C352.798 58.4356 353.621 59.3176 353.64 62.1008C353.621 64.7664 352.798 65.6484 349.897 65.8052V58.2592ZM363.501 55.2212C359.385 55.2212 357.935 56.8676 357.935 62.238C357.935 67.6084 359.385 69.2548 363.501 69.2548C367.637 69.2548 369.087 67.6084 369.087 62.238C369.087 56.8676 367.637 55.2212 363.501 55.2212ZM363.501 57.3184C365.794 57.3184 366.5 58.4748 366.5 62.238C366.5 66.0012 365.794 67.1576 363.501 67.1576C361.228 67.1576 360.522 66.0012 360.522 62.238C360.522 58.4748 361.228 57.3184 363.501 57.3184ZM371.651 69H374.121V63.8452C374.924 63.9432 375.885 64.002 376.845 64.002C380.04 64.002 381.196 63.0808 381.196 59.6508C381.196 56.2404 380.04 55.2996 376.551 55.2996C374.238 55.2996 373.199 55.3192 371.651 55.476V69ZM374.121 62.0028V57.3184H376.492C378.197 57.3184 378.727 57.7888 378.727 59.6508C378.727 61.5128 378.197 61.9832 376.492 62.0028H374.121ZM394.163 55.476C393.595 55.476 393.262 55.7504 393.125 56.2992L391.204 63.61C391.047 64.2568 390.929 64.8448 390.792 65.472H390.498C390.381 64.8448 390.263 64.2568 390.106 63.6296L388.166 56.2992C388.029 55.7504 387.715 55.476 387.166 55.476H384.638C384.011 55.476 383.697 55.8092 383.677 56.4364L383.168 69H385.559L385.971 57.4556H386.323L388.675 66.452C388.813 66.9812 389.165 67.2752 389.734 67.2752H391.596C392.164 67.2752 392.497 66.9812 392.635 66.452L394.967 57.4556H395.32L395.79 69H398.181L397.652 56.4364C397.613 55.8092 397.299 55.476 396.672 55.476H394.163ZM408.168 65.178L409.285 69H411.794L407.737 56.1228C407.619 55.7112 407.267 55.476 406.855 55.476H404.464C404.052 55.476 403.699 55.7112 403.582 56.1228L399.525 69H402.033L403.151 65.178H408.168ZM407.58 63.1592H403.739L405.091 58.4944L405.405 57.338H405.934C405.993 57.7104 406.13 58.122 406.228 58.4944L407.58 63.1592ZM425.117 67.0988H423.471V55.476H421.001V67.0988H415.866V55.476H413.416V69H423.216L423.412 71.9596H425.117V67.0988ZM437.879 69V55.476H435.37L430.274 64.3548C429.98 64.884 429.726 65.4132 429.53 65.9816H429.392C429.51 65.3936 429.549 64.8056 429.549 64.2176V55.476H427.197V69H429.686L434.802 60.082C435.076 59.6116 435.331 59.004 435.547 58.4356H435.664C435.566 59.004 435.508 59.5724 435.508 60.1408V69H437.879ZM446.016 55.2212C441.9 55.2212 440.45 56.8676 440.45 62.238C440.45 67.6084 441.9 69.2548 446.016 69.2548C450.152 69.2548 451.602 67.6084 451.602 62.238C451.602 56.8676 450.152 55.2212 446.016 55.2212ZM446.016 57.3184C448.31 57.3184 449.015 58.4748 449.015 62.238C449.015 66.0012 448.31 67.1576 446.016 67.1576C443.743 67.1576 443.037 66.0012 443.037 62.238C443.037 58.4748 443.743 57.3184 446.016 57.3184ZM464.417 55.476H461.947V60.7876H456.616V55.476H454.166V69H456.616V62.8064H461.947V69H464.417V55.476ZM477.72 55.476H475.25V60.7876H469.919V55.476H467.469V69H469.919V62.8064H475.25V69H477.72V55.476ZM487.985 65.178L489.102 69H491.611L487.553 56.1228C487.436 55.7112 487.083 55.476 486.671 55.476H484.28C483.869 55.476 483.516 55.7112 483.398 56.1228L479.341 69H481.85L482.967 65.178H487.985ZM487.397 63.1592H483.555L484.907 58.4944L485.221 57.338H485.75C485.809 57.7104 485.946 58.122 486.044 58.4944L487.397 63.1592ZM502.405 69V55.476C500.857 55.3192 499.798 55.2996 497.505 55.2996C494.251 55.2996 492.938 56.3972 492.938 59.2588C492.919 61.3952 493.605 62.5712 495.506 62.8064L495.525 62.924C494.781 63.0612 493.879 63.5708 493.546 64.8644L492.409 69H494.996L496.035 64.9428C496.29 64.0412 496.78 63.708 497.603 63.708L499.935 63.6884V69H502.405ZM499.935 61.6892H497.564C495.917 61.6892 495.388 61.0424 495.388 59.4156C495.408 57.7496 495.917 57.3184 497.564 57.3184H499.935V61.6892ZM324.086 91.8832C322.93 92.04 321.871 92.0792 320.146 92.0792C317.912 92.0792 317.226 90.9424 317.226 87.238C317.226 83.5336 317.912 82.3968 320.146 82.3968C321.773 82.3968 322.577 82.436 323.792 82.534L324.027 80.672C322.851 80.3584 321.95 80.2408 320.146 80.2408C316.089 80.2408 314.639 82.0832 314.639 87.238C314.639 92.3928 316.089 94.2352 320.146 94.2352C322.008 94.2352 323.106 94.098 324.302 93.7256L324.086 91.8832ZM337.142 94V80.476H334.633L329.537 89.3548C329.243 89.884 328.988 90.4132 328.792 90.9816H328.655C328.773 90.3936 328.812 89.8056 328.812 89.2176V80.476H326.46V94H328.949L334.065 85.082C334.339 84.6116 334.594 84.004 334.81 83.4356H334.927C334.829 84.004 334.77 84.5724 334.77 85.1408V94H337.142ZM349.16 91.8832C348.004 92.04 346.945 92.0792 345.221 92.0792C342.986 92.0792 342.3 90.9424 342.3 87.238C342.3 83.5336 342.986 82.3968 345.221 82.3968C346.847 82.3968 347.651 82.436 348.866 82.534L349.101 80.672C347.925 80.3584 347.024 80.2408 345.221 80.2408C341.163 80.2408 339.713 82.0832 339.713 87.238C339.713 92.3928 341.163 94.2352 345.221 94.2352C347.083 94.2352 348.18 94.098 349.376 93.7256L349.16 91.8832ZM361.197 82.5732V80.476H350.417V82.5732H354.553V94H357.022V82.5732H361.197ZM371.738 92.0204H366.426C365.721 92.0204 365.466 91.7264 365.466 90.8836V87.8652H370.993V85.9836H365.466V83.612C365.466 82.7692 365.721 82.4752 366.426 82.4752H371.738L371.836 80.5936C370.052 80.4368 367.877 80.4368 365.877 80.4368C364.113 80.4368 363.016 81.4168 363.016 83.0044V91.4716C363.016 93.0592 364.094 94.0392 365.877 94.0392C367.877 94.0392 370.052 94.0392 371.836 93.8824L371.738 92.0204ZM385.014 80.476C384.446 80.476 384.113 80.7504 383.975 81.2992L382.055 88.61C381.898 89.2568 381.78 89.8448 381.643 90.472H381.349C381.231 89.8448 381.114 89.2568 380.957 88.6296L379.017 81.2992C378.879 80.7504 378.566 80.476 378.017 80.476H375.489C374.861 80.476 374.548 80.8092 374.528 81.4364L374.019 94H376.41L376.821 82.4556H377.174L379.526 91.452C379.663 91.9812 380.016 92.2752 380.585 92.2752H382.447C383.015 92.2752 383.348 91.9812 383.485 91.452L385.818 82.4556H386.171L386.641 94H389.032L388.503 81.4364C388.464 80.8092 388.15 80.476 387.523 80.476H385.014ZM399.019 90.178L400.136 94H402.645L398.588 81.1228C398.47 80.7112 398.117 80.476 397.706 80.476H395.315C394.903 80.476 394.55 80.7112 394.433 81.1228L390.375 94H392.884L394.001 90.178H399.019ZM398.431 88.1592H394.589L395.942 83.4944L396.255 82.338H396.785C396.843 82.7104 396.981 83.122 397.079 83.4944L398.431 88.1592Z" fill="white"/>
<path d="M309.68 39.4854V37.7998H303.8V39.4854H309.68Z" fill="white"/>
</svg>
