<?xml version="1.0" encoding="utf-8"?>
<!-- Generator: Adobe Illustrator 24.0.1, SVG Export Plug-In . SVG Version: 6.00 Build 0)  -->
<svg version="1.1" id="Layer_1" xmlns="http://www.w3.org/2000/svg" xmlns:xlink="http://www.w3.org/1999/xlink" x="0px" y="0px"
	 viewBox="0 0 347.3 120.1" style="enable-background:new 0 0 347.3 120.1;" xml:space="preserve">
<style type="text/css">
	.st0{fill-rule:evenodd;clip-rule:evenodd;fill:#32BCAD;}
	.st1{fill-rule:evenodd;clip-rule:evenodd;fill:#A7A9AC;}
	.st2{fill-rule:evenodd;clip-rule:evenodd;fill:#DCDDDE;}
	.st3{fill-rule:evenodd;clip-rule:evenodd;fill:#00AEEF;}
	.st4{fill-rule:evenodd;clip-rule:evenodd;fill:#FAA61A;}
	.st5{fill-rule:evenodd;clip-rule:evenodd;fill:#CBDB2A;}
	.st6{fill:#A7A9AC;}
</style>
<g>
	<g>
		<path class="st0" d="M140.4,25.3c6.3,0,11.5,2,15.8,6.3c4.5,4.5,6.5,9.8,6.5,15.8c0,6.3-2,11.5-6.5,15.8
			c-4.3,4.5-9.8,6.8-15.8,6.8v-5.8c4.5,0,8.3-1.5,11.5-5c3.3-3.2,5-7,5-11.8c0-4.5-1.7-8.5-5-11.8c-3-3-7-4.8-11.5-4.8V25.3z
			 M140.4,69.8c-6.3,0-11.5-2.3-16-6.5c-4.3-4.5-6.5-9.8-6.5-16c0-6,2.2-11.3,6.5-15.5c4.5-4.5,9.8-6.5,16-6.5v5.5
			c-4.8,0-8.5,1.8-11.8,4.8c-3.2,3.3-4.8,7.3-4.8,11.8c0,4.8,1.5,8.8,4.5,12c3,3.3,7,4.7,12,4.7V69.8z"/>
		<path class="st0" d="M140.4,69.8c-6.3,0-11.5-2.3-16-6.5c-4.3-4.5-6.5-9.8-6.5-16c0-6,2.2-11.3,6.5-15.5c4.5-4.5,9.8-6.5,16-6.5
			c6.3,0,11.5,2,15.8,6.3c4.5,4.5,6.5,9.8,6.5,15.8c0,6.3-2,11.5-6.5,15.8C151.9,67.6,146.4,69.8,140.4,69.8 M140.4,64.1
			c4.5,0,8.3-1.5,11.5-5c3.3-3.2,5-7,5-11.8c0-4.5-1.7-8.5-5-11.8c-3-3-7-4.8-11.5-4.8c-4.8,0-8.5,1.8-11.8,4.8
			c-3.2,3.3-4.8,7.3-4.8,11.8c0,4.8,1.5,8.8,4.5,12C131.4,62.6,135.4,64.1,140.4,64.1"/>
		<path class="st1" d="M214.8,27.5h6.3V33c1.5-2,3.5-3.5,6-4.8c2.5-1.2,5-2,7.3-2c3.2,0,6.5,1,9.5,2.5c3,1.5,5.3,3.5,6.2,5.5
			c1-2,3-4,6-5.5c3.3-1.5,6.5-2.5,9.8-2.5c5,0,9.5,1.8,13,4.8c3.7,3.2,5.5,7,5.5,11.5v27.3h-6.3v-26c0-3.3-1.2-6-3.7-8.3
			c-2.5-2.3-5.5-3.5-9-3.5c-3.5,0-6.5,1.3-9,3.5c-2.5,2.3-3.8,5-3.8,8.3v26h-6v-26c0-3.3-1.3-6-3.8-8.3c-2.5-2.3-5.5-3.5-9-3.5
			c-3.5,0-6.5,1.3-9,3.5c-2.5,2.3-3.8,5-3.8,8.3v26h-6.3V27.5z"/>
		<path class="st1" d="M190.5,64.1c3,0,5.8-0.7,8.5-2.5c2.8-1.5,4.8-3.5,6-5.8h6.3c-1.3,3.8-3.8,7.2-7.8,9.8c-4,2.8-8.3,4.3-13,4.3
			c-6,0-11.3-2.3-15.8-6.5c-4.5-4.5-6.5-9.8-6.5-16c0-6,2-11.3,6.5-15.5c4.3-4.5,9.8-6.5,15.8-6.5c4.5,0,8.8,1.2,12.8,3.5
			c3.8,2.5,6.5,5.8,7.8,9.5h-6.8c-1.2-2-3-4-5.8-5.2c-2.5-1.5-5.3-2.3-8-2.3c-4.5,0-8.3,1.8-11.5,4.8c-3.3,3.3-4.8,7.3-4.8,11.8
			c0,4.8,1.5,8.8,4.5,12C181.7,62.6,185.7,64.1,190.5,64.1"/>
		<polygon class="st1" points="117.7,6.4 117.7,51.1 124.2,51.1 124.2,42.7 130.8,34.2 143.9,51.1 152.8,51.1 135.6,28.6 151.5,6.6 
			143.4,6.6 125,30.9 125,6.4 		"/>
		<path class="st0" d="M314.9,69.8L314.9,69.8v-5.8c4.5,0,8.5-1.5,11.8-5c3.3-3.2,4.8-7,4.8-11.8c0-4.5-1.5-8.5-4.8-11.8
			c-3.3-3-7.3-4.8-11.8-4.8v-5.5c6.3,0,11.5,2,16,6.3c4.3,4.5,6.5,9.8,6.5,15.8c0,6.3-2.3,11.5-6.5,15.8
			C326.4,67.6,321.1,69.8,314.9,69.8 M314.9,69.8c-6,0-11.3-2.3-15.8-6.5c-4.5-4.5-6.8-9.8-6.8-16c0-6,2.3-11.3,6.8-15.5
			c4.3-4.5,9.5-6.5,15.8-6.5v5.5c-4.5,0-8.5,1.8-11.8,4.8c-3,3.3-4.8,7.3-4.8,11.8c0,4.8,1.5,8.8,4.8,12c3,3.3,7,4.7,11.8,4.7V69.8z
			"/>
		<rect x="330.6" y="25.5" class="st1" width="7.5" height="44.1"/>
		<polygon class="st2" points="0,51.6 43.5,0 95.4,43.3 51.8,95.1 		"/>
		<rect x="32.5" y="6.3" class="st3" width="26.5" height="26.5"/>
		<rect x="69.3" y="43.3" class="st4" width="26.5" height="26.5"/>
		<rect x="32.5" y="43.1" class="st5" width="26.5" height="26.8"/>
		<rect x="69.3" y="6.3" class="st0" width="26.5" height="26.5"/>
	</g>
	<g>
		<path class="st6" d="M127.5,83.4v3.8c0,1.4,0,2.3-0.1,3.6l0.1,0c0.5-1.1,0.8-1.7,1.4-2.8l2.6-4.7h1.8v9h-1.5v-3.8
			c0-1.5,0-2.2,0.1-3.7h0c-0.6,1.2-0.9,1.9-1.4,2.8c-0.8,1.4-1.7,3.1-2.6,4.7H126v-9H127.5z"/>
		<path class="st6" d="M142.9,83.4v3.6h4v-3.6h1.5v9h-1.5v-4.1h-4v4.1h-1.5v-9H142.9z"/>
		<path class="st6" d="M161.6,79.3l0,4c2.4,0.2,4.2,1.9,4.2,4.7c0,3-1.8,4.5-4.2,4.7l0,3.5h-1.4l0-3.5c-2.4-0.2-4.2-1.8-4.2-4.6
			c0-3,1.8-4.5,4.2-4.7l0-4H161.6z M160.2,84.4c-1.7,0.2-2.7,1.7-2.7,3.6c0,1.8,1,3.3,2.7,3.5V84.4z M161.6,91.5
			c1.7-0.3,2.7-1.7,2.7-3.6c0-1.9-1-3.3-2.7-3.5V91.5z"/>
		<path class="st6" d="M181.1,87.9c0,3.3-2.2,4.8-4.2,4.8c-2.3,0-4-1.8-4-4.6c0-3,1.9-4.8,4.1-4.8C179.5,83.2,181.1,85.1,181.1,87.9
			z M174.5,88c0,2,1,3.5,2.5,3.5c1.5,0,2.5-1.5,2.5-3.5c0-1.5-0.7-3.4-2.5-3.4C175.2,84.5,174.5,86.3,174.5,88z"/>
		<path class="st6" d="M188.8,86.4c0-1.2,0-2.1-0.1-2.9h1.3l0.1,1.5h0c0.6-1.1,1.6-1.7,3-1.7c2,0,3.6,1.8,3.6,4.6
			c0,3.2-1.9,4.8-3.8,4.8c-1.1,0-2.1-0.5-2.6-1.4h0v4.9h-1.5V86.4z M190.3,88.8c0,0.2,0,0.5,0.1,0.7c0.3,1.1,1.2,1.9,2.3,1.9
			c1.6,0,2.5-1.4,2.5-3.5c0-1.8-0.9-3.3-2.5-3.3c-1,0-2,0.8-2.3,2c-0.1,0.2-0.1,0.4-0.1,0.7V88.8z"/>
		<path class="st6" d="M204.5,83.4h1.9l1.5,4.5c0.2,0.7,0.6,1.8,0.8,2.5h0c0.2-0.7,0.7-2.1,1-3.1l1.3-3.9h1.9l0.6,9H212l-0.2-4.3
			c0-1-0.1-2.1-0.1-3.2h-0.1c-0.2,0.8-0.5,1.5-0.9,2.9l-1.6,4.5H208l-1.5-4.5c-0.3-0.8-0.6-2.1-0.8-3h-0.1c0,1.1-0.1,2.3-0.1,3.2
			l-0.2,4.3h-1.4L204.5,83.4z"/>
		<path class="st6" d="M227.1,90.3c0,0.8,0,1.5,0.1,2.2h-1.4l-0.1-1.1h0c-0.5,0.7-1.4,1.3-2.6,1.3c-1.7,0-2.6-1.3-2.6-2.6
			c0-2.2,1.8-3.4,5-3.4v-0.2c0-0.7-0.2-2.1-1.9-2.1c-0.8,0-1.6,0.2-2.2,0.7l-0.3-1.1c0.7-0.5,1.7-0.8,2.8-0.8c2.6,0,3.2,1.9,3.2,3.7
			V90.3z M225.6,87.9c-1.7,0-3.5,0.3-3.5,2c0,1.1,0.7,1.6,1.4,1.6c1.1,0,1.8-0.7,2.1-1.5c0.1-0.2,0.1-0.4,0.1-0.5V87.9z"/>
		<path class="st6" d="M236.8,83.4v7.7h3.9v-7.7h1.5v7.8l0.9,0l-0.1,4.1h-1.2l-0.1-2.8h-6.4v-9H236.8z"/>
		<path class="st6" d="M252,83.4v3.8c0,1.4,0,2.3-0.1,3.6l0,0c0.5-1.1,0.8-1.7,1.4-2.8l2.6-4.7h1.8v9h-1.5v-3.8c0-1.5,0-2.2,0.1-3.7
			h0c-0.6,1.2-0.9,1.9-1.4,2.8c-0.8,1.4-1.7,3.1-2.6,4.7h-1.8v-9H252z"/>
		<path class="st6" d="M273.6,87.9c0,3.3-2.2,4.8-4.2,4.8c-2.2,0-4-1.8-4-4.6c0-3,1.9-4.8,4.2-4.8C272,83.2,273.6,85.1,273.6,87.9z
			 M267,88c0,2,1,3.5,2.5,3.5c1.5,0,2.5-1.5,2.5-3.5c0-1.5-0.7-3.4-2.5-3.4C267.7,84.5,267,86.3,267,88z"/>
		<path class="st6" d="M282.7,83.4v3.6h4v-3.6h1.5v9h-1.5v-4.1h-4v4.1h-1.5v-9H282.7z"/>
		<path class="st6" d="M298,83.4v3.6h4v-3.6h1.5v9h-1.5v-4.1h-4v4.1h-1.5v-9H298z"/>
		<path class="st6" d="M313.2,83.4v3.1c0.3-0.1,0.8-0.1,1.3-0.1c1.8,0,3.6,0.8,3.6,3c0,0.9-0.3,1.6-0.9,2.1c-0.9,0.8-2.3,1-3.4,1
			c-0.8,0-1.6-0.1-2.3-0.1v-9H313.2z M313.2,91.3c0.3,0.1,0.6,0.1,1.1,0.1c1.2,0,2.4-0.5,2.4-1.9c0-1.5-1.2-1.9-2.4-1.9
			c-0.4,0-0.8,0-1.1,0.1V91.3z M320.7,83.4v9h-1.5v-9H320.7z"/>
		<path class="st6" d="M329.9,88.2c0,2.2,1.3,3.1,2.9,3.1c1.1,0,1.8-0.2,2.3-0.5l0.3,1.2c-0.5,0.3-1.5,0.6-2.8,0.6
			c-2.6,0-4.1-1.8-4.1-4.6c0-2.7,1.5-4.8,3.9-4.8c2.7,0,3.5,2.6,3.5,4.2c0,0.3,0,0.6,0,0.8H329.9z M334.3,87.1c0-1-0.4-2.6-2.1-2.6
			c-1.6,0-2.2,1.5-2.3,2.6H334.3z"/>
		<path class="st6" d="M131.7,102.1v1.3h-2.6v7.7h-1.5v-7.7h-2.6v-1.3H131.7z"/>
		<path class="st6" d="M135.3,106.9c0,2.2,1.3,3.1,2.9,3.1c1.1,0,1.8-0.2,2.3-0.5l0.3,1.2c-0.5,0.3-1.5,0.6-2.8,0.6
			c-2.6,0-4.1-1.8-4.1-4.6c0-2.7,1.5-4.8,3.9-4.8c2.8,0,3.5,2.6,3.5,4.2c0,0.3,0,0.6-0.1,0.8H135.3z M139.8,105.7
			c0-1-0.4-2.6-2.1-2.6c-1.6,0-2.2,1.5-2.3,2.6H139.8z"/>
		<path class="st6" d="M145.5,102.1l1.2,1.9c0.3,0.5,0.6,0.9,0.9,1.5h0c0.3-0.5,0.6-1,0.8-1.5l1.2-1.9h1.7l-2.9,4.4l2.9,4.7h-1.7
			l-1.2-2c-0.3-0.5-0.6-1-0.9-1.6h0c-0.3,0.5-0.6,1-0.9,1.6l-1.2,2h-1.7l3-4.6l-2.8-4.4H145.5z"/>
		<path class="st6" d="M155.9,102.1v3.6h4v-3.6h1.5v9h-1.5V107h-4v4.1h-1.5v-9H155.9z"/>
		<path class="st6" d="M173.1,106.5c0,3.3-2.2,4.8-4.2,4.8c-2.3,0-4-1.8-4-4.6c0-3,1.9-4.8,4.1-4.8
			C171.5,101.9,173.1,103.8,173.1,106.5z M166.5,106.6c0,2,1,3.5,2.5,3.5c1.5,0,2.5-1.5,2.5-3.5c0-1.5-0.7-3.4-2.5-3.4
			C167.3,103.1,166.5,104.9,166.5,106.6z"/>
		<path class="st6" d="M183.1,102.1v9h-1.5v-7.7h-2.9v2.3c0,2.5-0.2,4.2-1.3,5c-0.4,0.4-0.9,0.6-1.7,0.6l-0.2-1.3
			c0.3-0.1,0.6-0.2,0.8-0.4c0.8-0.6,0.9-1.9,0.9-3.9v-3.6H183.1z"/>
		<path class="st6" d="M194.8,106.5c0,3.3-2.2,4.8-4.2,4.8c-2.2,0-4-1.8-4-4.6c0-3,1.9-4.8,4.2-4.8
			C193.2,101.9,194.8,103.8,194.8,106.5z M188.2,106.6c0,2,1,3.5,2.5,3.5c1.5,0,2.5-1.5,2.5-3.5c0-1.5-0.7-3.4-2.5-3.4
			C189,103.1,188.2,104.9,188.2,106.6z"/>
		<path class="st6" d="M203.5,102.1v1.3h-3.6v7.7h-1.5v-9H203.5z"/>
		<path class="st6" d="M208.1,102.1v3.8c0,1.4,0,2.3-0.1,3.6l0,0c0.5-1.1,0.8-1.7,1.4-2.8l2.6-4.7h1.8v9h-1.5v-3.8
			c0-1.5,0-2.2,0.1-3.7h0c-0.6,1.2-0.9,1.9-1.4,2.8c-0.8,1.4-1.7,3.1-2.6,4.7h-1.8v-9H208.1z"/>
		<path class="st6" d="M219.3,102.1v3.8c0,1.4,0,2.3-0.1,3.6l0,0c0.5-1.1,0.8-1.7,1.4-2.8l2.6-4.7h1.8v9h-1.5v-3.8
			c0-1.5,0-2.2,0.1-3.7h0c-0.6,1.2-0.9,1.9-1.4,2.8c-0.8,1.4-1.7,3.1-2.6,4.7h-1.8v-9H219.3z"/>
		<path class="st6" d="M234.5,102.2c0.6-0.1,1.7-0.2,2.7-0.2c1.4,0,3.7,0.3,3.7,2.3c0,1.1-0.8,1.8-1.7,2v0c1.2,0.2,2.1,0.9,2.1,2.2
			c0,2.4-2.8,2.7-4.4,2.7c-0.9,0-1.9-0.1-2.4-0.1V102.2z M235.9,110c0.4,0,0.7,0.1,1.2,0.1c1,0,2.6-0.2,2.6-1.6
			c0-1.3-1.2-1.6-2.7-1.6h-1.1V110z M235.9,105.9h1.1c1.1,0,2.3-0.4,2.3-1.4c0-0.9-0.7-1.3-2.2-1.3c-0.5,0-0.8,0-1.2,0.1V105.9z"/>
		<path class="st6" d="M250.3,102.1h1.9l1.5,4.5c0.2,0.7,0.6,1.8,0.8,2.5h0c0.2-0.7,0.7-2.1,1-3.1l1.3-3.9h1.9l0.6,9h-1.5l-0.2-4.3
			c0-1-0.1-2.1-0.1-3.2h-0.1c-0.2,0.8-0.5,1.5-0.9,2.9l-1.6,4.5h-1.1l-1.5-4.5c-0.3-0.8-0.6-2.1-0.8-3h-0.1c0,1.1-0.1,2.3-0.1,3.2
			l-0.2,4.3h-1.4L250.3,102.1z"/>
		<path class="st6" d="M263.8,106.9c0,2.2,1.3,3.1,2.9,3.1c1.1,0,1.8-0.2,2.3-0.5l0.3,1.2c-0.5,0.3-1.5,0.6-2.8,0.6
			c-2.6,0-4.1-1.8-4.1-4.6c0-2.7,1.5-4.8,3.9-4.8c2.7,0,3.5,2.6,3.5,4.2c0,0.3,0,0.6,0,0.8H263.8z M268.2,105.7c0-1-0.4-2.6-2.1-2.6
			c-1.6,0-2.2,1.5-2.3,2.6H268.2z"/>
		<path class="st6" d="M279.8,102.1v7.8l0.9,0l-0.1,4.1h-1.2l-0.1-2.8h-5.8l-0.1,2.8h-1.2l-0.1-4l0.7,0c0.4-0.6,0.6-1.2,0.8-1.8
			c0.3-1.1,0.5-2.3,0.5-3.6v-2.3H279.8z M275.6,104.8c0,1.2-0.1,2.4-0.4,3.4c-0.2,0.6-0.4,1.2-0.7,1.7h3.9v-6.5h-2.8V104.8z"/>
		<path class="st6" d="M285.6,102.1v3.8c0,1.4,0,2.3-0.1,3.6l0.1,0c0.5-1.1,0.8-1.7,1.4-2.8l2.6-4.7h1.8v9h-1.5v-3.8
			c0-1.5,0-2.2,0.1-3.7h0c-0.6,1.2-0.9,1.9-1.4,2.8c-0.8,1.4-1.7,3.1-2.6,4.7h-1.8v-9H285.6z"/>
		<path class="st6" d="M296.9,102.1v7.7h3.9v-7.7h1.5v7.8l0.9,0l-0.1,4.1h-1.2l-0.1-2.8h-6.4v-9H296.9z"/>
		<path class="st6" d="M308,102.1v3.8c0,1.4,0,2.3-0.1,3.6l0.1,0c0.5-1.1,0.8-1.7,1.4-2.8l2.6-4.7h1.8v9h-1.5v-3.8
			c0-1.5,0-2.2,0.1-3.7h0c-0.6,1.2-0.9,1.9-1.4,2.8c-0.8,1.4-1.7,3.1-2.6,4.7h-1.8v-9H308z"/>
		<path class="st6" d="M319.4,102.1v3.6h4v-3.6h1.5v9h-1.5V107h-4v4.1h-1.5v-9H319.4z"/>
		<path class="st6" d="M329.9,106.9c0,2.2,1.3,3.1,2.9,3.1c1.1,0,1.8-0.2,2.3-0.5l0.3,1.2c-0.5,0.3-1.5,0.6-2.8,0.6
			c-2.6,0-4.1-1.8-4.1-4.6c0-2.7,1.5-4.8,3.9-4.8c2.7,0,3.5,2.6,3.5,4.2c0,0.3,0,0.6,0,0.8H329.9z M334.3,105.7c0-1-0.4-2.6-2.1-2.6
			c-1.6,0-2.2,1.5-2.3,2.6H334.3z"/>
	</g>
</g>
</svg>
