<svg width="451" height="422" viewBox="0 0 451 422" fill="none" xmlns="http://www.w3.org/2000/svg">
<g clip-path="url(#clip0_1350_9898)">
<path opacity="0.1" fill-rule="evenodd" clip-rule="evenodd" d="M413.088 102.069C442.097 145.67 429.854 204.326 410.305 252.108C394.565 290.58 351.984 303.88 319.875 329.907C283.291 359.561 259.207 407.919 212.141 412.737C153.526 418.738 87.3938 404.104 49.8182 357.552C10.8617 309.289 12.2279 241.015 25.1092 181.025C37.322 124.149 67.0228 70.0021 117.533 42.1981C164.252 16.481 219.628 34.186 272.433 44.8828C323.814 55.2911 383.77 58.0034 413.088 102.069Z" fill="#56B9F2"/>
<path d="M152.9 271.85C149.501 281.897 147.41 308.699 151.042 328.5" stroke="#0071B3" stroke-width="3.65921" stroke-linecap="round"/>
<path d="M226.042 270.5C230.042 284.5 232.542 302.5 232.542 328.5" stroke="#0071B3" stroke-width="3.65921" stroke-linecap="round"/>
<path d="M185.042 307.5C185.042 314 188.455 323.5 193.042 328" stroke="#0071B3" stroke-width="3.65921" stroke-linecap="round"/>
<path d="M207.473 41.3432L206.188 34.606C206.095 34.1212 205.627 33.8031 205.143 33.8955C204.658 33.9879 204.34 34.4558 204.433 34.9405L205.718 41.6778C206.422 45.371 209.41 48.1993 213.135 48.6994C216.099 49.0972 218.475 51.3469 219.035 54.2843L220.32 61.0216C220.413 61.5064 220.881 61.8245 221.365 61.7321C221.85 61.6397 222.168 61.1718 222.075 60.687L220.79 53.9497C220.086 50.2566 217.098 47.4282 213.373 46.9281C210.409 46.5304 208.033 44.2807 207.473 41.3432Z" fill="#0071B3"/>
<path d="M331.167 217.657L326.576 212.562C326.246 212.195 325.681 212.165 325.314 212.496C324.948 212.826 324.918 213.391 325.249 213.758L329.84 218.853C332.356 221.646 336.377 222.516 339.823 221.013C342.563 219.817 345.761 220.509 347.763 222.731L352.354 227.827C352.684 228.194 353.249 228.223 353.616 227.893C353.982 227.563 354.012 226.998 353.681 226.631L349.091 221.535C346.574 218.742 342.553 217.872 339.108 219.375C336.367 220.571 333.169 219.879 331.167 217.657Z" fill="#0071B3"/>
<path d="M76.1051 266.732L82.9626 266.859C83.456 266.868 83.8635 266.476 83.8726 265.982C83.8818 265.489 83.4892 265.082 82.9958 265.073L76.1382 264.946C72.3792 264.876 68.9972 267.219 67.7423 270.762C66.7441 273.581 64.0541 275.444 61.0642 275.389L54.2067 275.262C53.7133 275.253 53.3058 275.646 53.2967 276.139C53.2875 276.632 53.6801 277.039 54.1735 277.049L61.031 277.175C64.7901 277.245 68.1721 274.902 69.427 271.359C70.4252 268.541 73.1151 266.677 76.1051 266.732Z" fill="#0071B3"/>
<path d="M38.1377 122.441C36.0546 123.701 33.3484 122.52 32.8508 120.134L32.3024 117.504C32.2015 117.02 31.728 116.709 31.2448 116.809C30.7616 116.91 30.4516 117.383 30.5524 117.867L31.1008 120.496C31.8504 124.092 35.9267 125.87 39.0645 123.971L39.2284 123.872C41.3049 122.616 43.994 123.879 44.3575 126.282C44.9119 129.947 49.0136 131.874 52.181 129.957C54.2575 128.7 56.9467 129.964 57.3101 132.367C57.8645 136.032 61.9662 137.958 65.1336 136.042C67.2101 134.785 69.8993 136.049 70.2627 138.451C70.8171 142.116 74.9188 144.043 78.0862 142.127C80.1628 140.87 82.8519 142.133 83.2153 144.536C83.7697 148.201 87.8714 150.128 91.0388 148.211L91.2026 148.112C93.2858 146.852 95.9919 148.032 96.4896 150.419L97.038 153.049C97.1388 153.533 97.6123 153.844 98.0956 153.743C98.5788 153.643 98.8888 153.17 98.7879 152.686L98.2395 150.056C97.4899 146.461 93.4137 144.683 90.2758 146.581L90.112 146.681C88.0354 147.937 85.3463 146.674 84.9829 144.271C84.4285 140.606 80.3268 138.679 77.1594 140.596C75.0828 141.852 72.3937 140.589 72.0302 138.186C71.4759 134.521 67.3742 132.594 64.2068 134.511C62.1302 135.768 59.4411 134.504 59.0776 132.102C58.5232 128.436 54.4216 126.51 51.2542 128.426C49.1776 129.683 46.4885 128.42 46.125 126.017C45.5706 122.352 41.4689 120.425 38.3016 122.341L38.1377 122.441Z" fill="#0071B3"/>
<path d="M282.339 76.9636C284.353 78.3328 284.406 81.2848 282.443 82.7311L280.28 84.3247C279.883 84.6178 279.797 85.1777 280.089 85.5753C280.382 85.973 280.941 86.0578 281.339 85.7647L283.502 84.1711C286.458 81.9926 286.378 77.5459 283.345 75.4836L283.187 75.3759C281.18 74.0111 281.208 71.0402 283.242 69.7093C286.343 67.6792 286.387 63.1477 283.326 61.066C281.319 59.7012 281.347 56.7303 283.381 55.3993C286.482 53.3692 286.526 48.8377 283.465 46.756C281.458 45.3912 281.486 42.4203 283.52 41.0893C286.621 39.0592 286.665 34.5277 283.604 32.446C281.597 31.0812 281.625 28.1103 283.659 26.7794C286.76 24.7493 286.804 20.2177 283.743 18.1361L283.584 18.0284C281.571 16.6593 281.518 13.7072 283.48 12.2609L285.643 10.6673C286.041 10.3742 286.126 9.8143 285.834 9.41666C285.542 9.01902 284.982 8.93425 284.585 9.22732L282.422 10.821C279.465 12.9995 279.545 17.4461 282.578 19.5084L282.737 19.6161C284.744 20.9809 284.715 23.9518 282.682 25.2827C279.58 27.3128 279.536 31.8444 282.598 33.926C284.605 35.2908 284.576 38.2618 282.543 39.5927C279.441 41.6228 279.397 46.1543 282.459 48.236C284.466 49.6008 284.437 52.5717 282.404 53.9027C279.302 55.9328 279.258 60.4643 282.32 62.546C284.327 63.9108 284.298 66.8817 282.265 68.2126C279.163 70.2427 279.119 74.7743 282.181 76.8559L282.339 76.9636Z" fill="#56B9F2"/>
<path d="M398.526 111.771C399.417 109.504 402.284 108.801 404.128 110.396L406.16 112.153C406.534 112.476 407.099 112.436 407.422 112.063C407.745 111.69 407.704 111.126 407.331 110.803L405.299 109.045C402.521 106.643 398.202 107.703 396.86 111.116L396.79 111.294C395.902 113.553 392.998 114.181 391.251 112.492C388.587 109.915 384.157 110.873 382.803 114.319C381.915 116.577 379.011 117.205 377.264 115.516C374.599 112.939 370.17 113.897 368.815 117.343C367.927 119.602 365.023 120.229 363.276 118.54C360.612 115.964 356.182 116.921 354.828 120.367C353.94 122.626 351.036 123.253 349.289 121.564C346.624 118.988 342.195 119.945 340.84 123.391L340.77 123.569C339.88 125.835 337.012 126.539 335.168 124.944L333.136 123.186C332.763 122.863 332.198 122.903 331.874 123.276C331.551 123.649 331.592 124.213 331.966 124.537L333.997 126.294C336.775 128.697 341.094 127.637 342.436 124.223L342.506 124.045C343.394 121.786 346.298 121.158 348.045 122.848C350.71 125.424 355.139 124.466 356.493 121.021C357.381 118.762 360.285 118.134 362.032 119.823C364.697 122.4 369.127 121.442 370.481 117.997C371.369 115.738 374.273 115.11 376.02 116.799C378.685 119.376 383.114 118.418 384.468 114.973C385.356 112.714 388.26 112.086 390.007 113.775C392.672 116.352 397.101 115.394 398.456 111.949L398.526 111.771Z" fill="#0071B3"/>
<circle cx="105.776" cy="299.776" r="6.77632" fill="#56B9F2"/>
<circle cx="90.73" cy="63.73" r="6.77632" transform="rotate(20.64 90.73 63.73)" fill="#56B9F2"/>
<circle cx="256.238" cy="242.238" r="4.06579" transform="rotate(20.64 256.238 242.238)" stroke="#0071B3" stroke-width="2.03289"/>
<circle cx="352.066" cy="60.0658" r="4.06579" stroke="#0071B3" stroke-width="2.03289"/>
<path d="M246.225 133.5C246.014 133.01 245.711 132.567 245.332 132.195C244.953 131.821 244.505 131.524 244.014 131.32C243.505 131.107 242.959 130.999 242.408 131C241.635 131 240.88 131.213 240.224 131.615C240.067 131.711 239.918 131.816 239.777 131.931C239.636 131.816 239.487 131.711 239.33 131.615C238.674 131.213 237.92 131 237.146 131C236.589 131 236.05 131.107 235.54 131.32C235.047 131.525 234.603 131.82 234.222 132.195C233.842 132.567 233.539 133.01 233.329 133.5C233.111 134.009 233 134.549 233 135.106C233 135.63 233.107 136.177 233.318 136.734C233.496 137.199 233.75 137.681 234.075 138.168C234.589 138.939 235.297 139.742 236.175 140.557C237.631 141.908 239.073 142.841 239.134 142.879L239.506 143.118C239.67 143.224 239.882 143.224 240.047 143.118L240.419 142.879C240.48 142.839 241.92 141.908 243.377 140.557C244.256 139.742 244.963 138.939 245.478 138.168C245.803 137.681 246.058 137.199 246.234 136.734C246.446 136.177 246.553 135.63 246.553 135.106C246.554 134.549 246.443 134.009 246.225 133.5V133.5Z" stroke="#0071B3" stroke-width="2.03289"/>
<path d="M85.2573 227.666C85.1101 227.34 84.8979 227.045 84.6325 226.796C84.3669 226.547 84.0537 226.349 83.71 226.213C83.3537 226.072 82.9714 225.999 82.5855 226C82.0442 226 81.516 226.142 81.0569 226.41C80.9471 226.474 80.8428 226.544 80.744 226.621C80.6451 226.544 80.5408 226.474 80.431 226.41C79.972 226.142 79.4438 226 78.9024 226C78.5125 226 78.1348 226.071 77.7779 226.213C77.4331 226.35 77.1223 226.546 76.8555 226.796C76.5897 227.045 76.3774 227.34 76.2306 227.666C76.078 228.006 76 228.366 76 228.737C76 229.087 76.0747 229.452 76.2229 229.822C76.347 230.132 76.5249 230.454 76.7522 230.779C77.1124 231.292 77.6077 231.828 78.2226 232.371C79.2417 233.272 80.2509 233.894 80.2937 233.919L80.554 234.079C80.6693 234.149 80.8175 234.149 80.9328 234.079L81.1931 233.919C81.2359 233.893 82.244 233.272 83.2642 232.371C83.8792 231.828 84.3744 231.292 84.7346 230.779C84.9619 230.454 85.1409 230.132 85.2639 229.822C85.4122 229.452 85.4868 229.087 85.4868 228.737C85.4879 228.366 85.41 228.006 85.2573 227.666V227.666Z" stroke="#56B9F2" stroke-width="2.03289"/>
<path fill-rule="evenodd" clip-rule="evenodd" d="M184.152 167.723C178.938 168.185 174.024 166.537 170.25 163.483C166.298 160.286 163.596 155.548 163.111 150.08C162.638 144.735 164.371 139.704 167.558 135.892L167.613 135.827C169.644 133.222 173.2 130.376 177.618 128.049C185.635 123.827 193.451 122.913 195.077 126.007C195.875 127.527 195.032 129.732 193.017 132.082C197.203 134.815 200.304 139.138 201.403 144.28C203.594 144.881 205.239 146.563 205.426 148.675C205.65 151.198 203.716 153.484 200.96 154.164C198.686 161.449 192.215 167.008 184.152 167.723ZM200.139 150.827L198.261 151.29L197.685 153.138C195.811 159.141 190.48 163.712 183.848 164.3C179.87 164.653 176.102 163.512 173.098 161.34C175.094 159.673 176.897 157.79 178.473 155.73C177.774 155.226 177.133 154.556 176.612 153.744C174.874 151.035 175.136 147.764 177.196 146.439C178.905 145.339 181.316 145.924 183.08 147.702C184.311 144.692 185.133 141.481 185.482 138.148C187.381 137.014 189.078 135.796 190.507 134.566C194.274 136.781 197.089 140.511 198.048 144.999L198.485 147.043L200.498 147.595C201.615 147.901 201.974 148.593 202.008 148.978C202.047 149.414 201.671 150.449 200.139 150.827Z" fill="#0071B3"/>
<path d="M293.042 159.5C295.5 158 297.5 160.5 297.5 162.5C301.273 160.5 308.55 155.965 310.956 162.338C318 181 221.709 216.528 221.709 216.528C225.038 228.677 231.888 254.131 232.654 258.75C233.612 264.523 234.317 265.924 224.542 270.5C213.042 275.883 172.341 280.091 152.042 269.5C141.542 264.022 152.042 253.5 155.567 240.151M148.829 257C138.042 251 127.071 243.757 121.569 238.033C109.042 225 113.531 215.681 121.571 208.025C129.611 200.369 145.538 192.671 164.542 183.5C183.545 174.329 204.5 175.172 217.862 177.155C231.225 179.139 242.897 179.281 255.794 175.583C263.161 173.47 270.262 170.854 278 167M155.567 240.151C158.12 230.482 158.542 226 159.418 215.083C155.55 216.735 140.592 222.875 143.042 229C145.492 235.125 153.589 238.935 155.567 240.151Z" stroke="#0071B3" stroke-width="3.65921"/>
<path d="M146.542 221C138.942 216.6 132.375 206.167 130.042 201.5C142.042 195.667 168.442 183 178.042 179C190.042 174 202.542 175.5 215.042 177C225.042 178.2 235.875 178.833 240.042 179C241.642 191.4 248.042 201.5 251.042 205L222.542 217C224.875 227.667 230.042 250.4 232.042 256C234.542 263 233.542 265 229.542 268C225.542 271 208.542 275.5 191.042 276.5C173.542 277.5 159.042 273 152.042 269.5C145.042 266 148.042 258.5 152.042 249C155.242 241.4 158.042 223.5 159.042 215.5L146.542 221Z" fill="#0071B3"/>
<circle cx="284" cy="127" r="19" stroke="#56B9F2" stroke-width="3.65921"/>
<path d="M274.772 127.083L281.166 134.265C284.44 128.694 286.984 125.312 293.033 120.1" stroke="#56B9F2" stroke-width="3.65921" stroke-linecap="round"/>
<path d="M297.613 260.869C297.365 260.308 297.007 259.799 296.559 259.371C296.111 258.942 295.583 258.601 295.003 258.367C294.402 258.123 293.758 257.999 293.107 258C292.194 258 291.303 258.244 290.529 258.706C290.344 258.816 290.168 258.937 290.001 259.069C289.834 258.937 289.658 258.816 289.473 258.706C288.699 258.244 287.808 258 286.895 258C286.238 258 285.6 258.123 284.998 258.367C284.417 258.602 283.893 258.941 283.443 259.371C282.995 259.798 282.637 260.307 282.389 260.869C282.131 261.453 282 262.074 282 262.712C282 263.315 282.126 263.942 282.376 264.581C282.585 265.115 282.885 265.668 283.269 266.227C283.876 267.112 284.711 268.034 285.749 268.97C287.467 270.52 289.169 271.591 289.242 271.634L289.681 271.909C289.875 272.03 290.125 272.03 290.319 271.909L290.758 271.634C290.831 271.589 292.531 270.52 294.251 268.97C295.289 268.034 296.124 267.112 296.731 266.227C297.115 265.668 297.417 265.115 297.624 264.581C297.874 263.942 298 263.315 298 262.712C298.002 262.074 297.87 261.453 297.613 260.869Z" stroke="#56B9F2" stroke-width="2.03289"/>
<path d="M271.5 149C278.101 146.467 290.735 145.463 295 151C300.332 157.921 274.826 163.343 276.489 155.271C277.508 150.323 294.633 152.5 293 162.5C291.737 170.235 276.208 172.304 278.5 166C280.792 159.696 297 169 284 175" stroke="#56B9F2" stroke-width="3.65921" stroke-linecap="round"/>
</g>
<defs>
<clipPath id="clip0_1350_9898">
<rect width="451" height="422" fill="white"/>
</clipPath>
</defs>
</svg>
