<svg width="451" height="422" viewBox="0 0 451 422" fill="none" xmlns="http://www.w3.org/2000/svg">
<path opacity="0.1" fill-rule="evenodd" clip-rule="evenodd" d="M248.277 32.5137C196.377 24.7881 144.55 47.4342 105.226 82.1988C63.2682 119.291 32.0638 169.364 30.1391 225.357C28.1565 283.033 47.2543 346.4 95.0333 378.714C139.062 408.493 195.18 375.053 248.277 372.891C297.234 370.898 353.236 399.656 389.54 366.726C426.223 333.452 417.916 274.406 410.927 225.357C405.048 184.094 381.146 151.123 354.282 119.272C323.674 82.9827 295.213 39.5006 248.277 32.5137Z" fill="#56B9F2"/>
<path d="M337.122 162.246L343.862 160.971C344.346 160.879 344.665 160.412 344.573 159.927C344.482 159.442 344.014 159.124 343.529 159.215L336.79 160.49C333.096 161.189 330.264 164.173 329.758 167.898C329.356 170.861 327.103 173.234 324.165 173.79L317.425 175.065C316.941 175.157 316.622 175.624 316.713 176.109C316.805 176.594 317.273 176.913 317.758 176.821L324.497 175.546C328.191 174.847 331.023 171.863 331.529 168.138C331.931 165.175 334.184 162.802 337.122 162.246Z" fill="#56B9F2"/>
<path d="M387.878 270.946L382.567 266.606C382.185 266.294 381.622 266.351 381.31 266.733C380.998 267.115 381.054 267.677 381.436 267.99L386.748 272.33C389.659 274.709 393.766 274.958 396.943 272.949C399.47 271.352 402.736 271.55 405.052 273.442L410.363 277.782C410.745 278.095 411.308 278.038 411.62 277.656C411.933 277.274 411.876 276.711 411.494 276.399L406.183 272.059C403.271 269.68 399.165 269.43 395.987 271.439C393.46 273.037 390.194 272.838 387.878 270.946Z" fill="#0071B3"/>
<path d="M115.278 166.806L121.196 170.274C121.621 170.523 122.169 170.38 122.418 169.955C122.668 169.529 122.525 168.982 122.099 168.732L116.181 165.265C112.938 163.364 108.842 163.751 106.013 166.227C103.763 168.196 100.505 168.504 97.9248 166.992L92.0072 163.524C91.5814 163.275 91.034 163.418 90.7845 163.843C90.5351 164.269 90.678 164.816 91.1038 165.066L97.0214 168.533C100.265 170.434 104.361 170.047 107.19 167.571C109.44 165.602 112.698 165.294 115.278 166.806Z" fill="#0071B3"/>
<path d="M60.459 229.545C59.8252 231.896 57.0535 232.913 55.044 231.533L52.8297 230.011C52.4225 229.732 51.8655 229.834 51.5856 230.241C51.3057 230.647 51.4088 231.204 51.816 231.483L54.0303 233.005C57.0573 235.084 61.2322 233.551 62.187 230.01L62.2368 229.825C62.8686 227.482 65.685 226.536 67.6087 228.021C70.5429 230.286 74.8387 228.843 75.8024 225.268C76.4342 222.925 79.2506 221.978 81.1743 223.463C84.1085 225.728 88.4043 224.285 89.368 220.711C89.9998 218.367 92.8162 217.421 94.7399 218.906C97.6741 221.171 101.97 219.728 102.934 216.153C103.565 213.81 106.382 212.864 108.305 214.349C111.24 216.614 115.535 215.171 116.499 211.596L116.549 211.411C117.183 209.06 119.955 208.043 121.964 209.423L124.178 210.945C124.586 211.224 125.143 211.122 125.423 210.715C125.702 210.309 125.599 209.752 125.192 209.473L122.978 207.951C119.951 205.872 115.776 207.405 114.821 210.946L114.771 211.131C114.139 213.474 111.323 214.42 109.399 212.935C106.465 210.67 102.169 212.113 101.206 215.688C100.574 218.031 97.7575 218.978 95.8338 217.493C92.8996 215.228 88.6038 216.671 87.6401 220.245C87.0083 222.589 84.1919 223.535 82.2682 222.05C79.334 219.785 75.0382 221.228 74.0745 224.803C73.4427 227.146 70.6263 228.092 68.7026 226.607C65.7684 224.342 61.4726 225.785 60.5089 229.36L60.459 229.545Z" fill="#0071B3"/>
<path d="M130.501 131.697C132.65 130.55 135.288 131.876 135.656 134.286L136.062 136.941C136.136 137.43 136.592 137.766 137.08 137.692C137.568 137.618 137.903 137.162 137.829 136.674L137.423 134.018C136.869 130.388 132.895 128.391 129.659 130.118L129.49 130.208C127.348 131.351 124.731 129.944 124.498 127.525C124.143 123.835 120.151 121.69 116.885 123.432C114.743 124.575 112.127 123.168 111.893 120.749C111.538 117.06 107.546 114.914 104.28 116.657C102.139 117.799 99.5216 116.392 99.2885 113.973C98.9329 110.284 94.9413 108.138 91.675 109.881C89.5336 111.023 86.9166 109.617 86.6835 107.198C86.328 103.508 82.3364 101.362 79.0701 103.105L78.9011 103.195C76.7529 104.341 74.1145 103.016 73.7465 100.606L73.341 97.9503C73.2665 97.4619 72.8105 97.126 72.3225 97.1999C71.8346 97.2738 71.4995 97.7297 71.5741 98.218L71.9795 100.874C72.5338 104.504 76.508 106.5 79.7439 104.774L79.9128 104.684C82.0542 103.541 84.6712 104.948 84.9043 107.367C85.2598 111.057 89.2514 113.202 92.5177 111.46C94.6592 110.317 97.2761 111.724 97.5092 114.143C97.8648 117.832 101.856 119.978 105.123 118.235C107.264 117.093 109.881 118.499 110.114 120.918C110.47 124.608 114.461 126.754 117.728 125.011C119.869 123.868 122.486 125.275 122.719 127.694C123.075 131.384 127.066 133.529 130.333 131.787L130.501 131.697Z" fill="#56B9F2"/>
<path d="M301.529 56.9457C300.925 54.5869 302.838 52.3381 305.266 52.5521L307.943 52.7879C308.435 52.8313 308.869 52.468 308.913 51.9764C308.957 51.4849 308.594 51.0512 308.101 51.0079L305.425 50.772C301.767 50.4496 298.885 53.837 299.795 57.39L299.843 57.5755C300.445 59.9268 298.458 62.1355 296.052 61.7883C292.384 61.2588 289.353 64.6277 290.271 68.2141C290.873 70.5654 288.886 72.7741 286.481 72.4269C282.812 71.8974 279.781 75.2663 280.7 78.8527C281.302 81.204 279.315 83.4127 276.909 83.0655C273.241 82.536 270.21 85.9049 271.128 89.4913C271.73 91.8426 269.743 94.0513 267.338 93.7041C263.669 93.1746 260.638 96.5435 261.557 100.13L261.604 100.315C262.208 102.674 260.295 104.923 257.866 104.709L255.19 104.473C254.698 104.43 254.263 104.793 254.22 105.285C254.176 105.776 254.539 106.21 255.031 106.253L257.707 106.489C261.366 106.811 264.247 103.424 263.337 99.8711L263.29 99.6856C262.688 97.3343 264.675 95.1256 267.08 95.4728C270.749 96.0023 273.78 92.6334 272.862 89.047C272.259 86.6957 274.247 84.487 276.652 84.8342C280.32 85.3637 283.352 81.9948 282.433 78.4084C281.831 76.0571 283.818 73.8484 286.223 74.1956C289.892 74.7251 292.923 71.3562 292.005 67.7698C291.402 65.4185 293.39 63.2098 295.795 63.5569C299.464 64.0865 302.495 60.7176 301.576 57.1312L301.529 56.9457Z" fill="#0071B3"/>
<circle cx="151.776" cy="98.7763" r="6.77632" fill="#56B9F2"/>
<circle cx="358.73" cy="91.73" r="6.77632" transform="rotate(20.64 358.73 91.73)" fill="#56B9F2"/>
<circle cx="236.238" cy="59.238" r="4.06579" transform="rotate(20.64 236.238 59.238)" stroke="#0071B3" stroke-width="2.03289"/>
<path d="M270.225 185.5C270.014 185.01 269.711 184.567 269.332 184.195C268.953 183.821 268.505 183.524 268.014 183.32C267.505 183.107 266.959 182.999 266.408 183C265.635 183 264.88 183.213 264.224 183.615C264.067 183.711 263.918 183.816 263.777 183.931C263.636 183.816 263.487 183.711 263.33 183.615C262.674 183.213 261.92 183 261.146 183C260.589 183 260.05 183.107 259.54 183.32C259.047 183.525 258.603 183.82 258.222 184.195C257.842 184.567 257.539 185.01 257.329 185.5C257.111 186.009 257 186.549 257 187.106C257 187.63 257.107 188.177 257.318 188.734C257.496 189.199 257.75 189.681 258.075 190.168C258.589 190.939 259.297 191.742 260.175 192.557C261.631 193.908 263.073 194.841 263.134 194.879L263.506 195.118C263.67 195.224 263.882 195.224 264.047 195.118L264.419 194.879C264.48 194.839 265.92 193.908 267.377 192.557C268.256 191.742 268.963 190.939 269.478 190.168C269.803 189.681 270.058 189.199 270.234 188.734C270.446 188.177 270.553 187.63 270.553 187.106C270.554 186.549 270.443 186.009 270.225 185.5V185.5Z" stroke="#0071B3" stroke-width="2.03289"/>
<path d="M365.257 347.666C365.11 347.34 364.898 347.045 364.632 346.796C364.367 346.547 364.054 346.349 363.71 346.213C363.354 346.072 362.971 345.999 362.586 346C362.044 346 361.516 346.142 361.057 346.41C360.947 346.474 360.843 346.544 360.744 346.621C360.645 346.544 360.541 346.474 360.431 346.41C359.972 346.142 359.444 346 358.902 346C358.513 346 358.135 346.071 357.778 346.213C357.433 346.35 357.122 346.546 356.855 346.796C356.59 347.045 356.377 347.34 356.231 347.666C356.078 348.006 356 348.366 356 348.737C356 349.087 356.075 349.452 356.223 349.822C356.347 350.132 356.525 350.454 356.752 350.779C357.112 351.292 357.608 351.828 358.223 352.371C359.242 353.272 360.251 353.894 360.294 353.919L360.554 354.079C360.669 354.149 360.818 354.149 360.933 354.079L361.193 353.919C361.236 353.893 362.244 353.272 363.264 352.371C363.879 351.828 364.374 351.292 364.735 350.779C364.962 350.454 365.141 350.132 365.264 349.822C365.412 349.452 365.487 349.087 365.487 348.737C365.488 348.366 365.41 348.006 365.257 347.666V347.666Z" stroke="#56B9F2" stroke-width="2.03289"/>
<path d="M37.6129 329.869C37.3646 329.308 37.0067 328.799 36.5591 328.371C36.1111 327.942 35.583 327.601 35.0033 327.367C34.4023 327.123 33.7577 326.999 33.1068 327C32.1938 327 31.3029 327.244 30.5288 327.706C30.3435 327.816 30.1676 327.937 30.0009 328.069C29.8342 327.937 29.6583 327.816 29.4731 327.706C28.6989 327.244 27.8081 327 26.895 327C26.2375 327 25.6004 327.123 24.9985 327.367C24.4169 327.602 23.8928 327.941 23.4428 328.371C22.9946 328.798 22.6365 329.307 22.3889 329.869C22.1315 330.453 22 331.074 22 331.712C22 332.315 22.1259 332.942 22.376 333.581C22.5853 334.115 22.8853 334.668 23.2687 335.227C23.8761 336.112 24.7114 337.034 25.7486 337.97C27.4673 339.52 29.1693 340.591 29.2416 340.634L29.6805 340.909C29.875 341.03 30.125 341.03 30.3195 340.909L30.7584 340.634C30.8306 340.589 32.5308 339.52 34.2514 337.97C35.2886 337.034 36.1238 336.112 36.7313 335.227C37.1147 334.668 37.4166 334.115 37.624 333.581C37.874 332.942 38 332.315 38 331.712C38.0018 331.074 37.8703 330.453 37.6129 329.869Z" stroke="#56B9F2" stroke-width="2.03289"/>
<circle cx="77.0658" cy="191.066" r="4.06579" stroke="#0071B3" stroke-width="2.03289"/>
<circle cx="152.066" cy="286.066" r="4.06579" stroke="#0071B3" stroke-width="3.65921" stroke-linecap="round"/>
<circle cx="238.066" cy="123.066" r="4.06579" fill="#0071B3" stroke="#0071B3" stroke-width="2.03289"/>
<path fill-rule="evenodd" clip-rule="evenodd" d="M162.743 146.273C161.027 152.564 164.404 158.964 170.285 160.569C171.556 160.915 172.84 161.01 174.09 160.881C172.54 162.955 171.347 165.349 170.625 167.998C168.911 174.282 170.207 180.677 173.638 185.656C176.392 189.652 180.522 192.735 185.574 194.113C196.353 197.053 207.453 191.177 211.186 180.871C212.647 180.988 213.923 180.351 214.221 179.26C214.528 178.135 213.692 176.897 212.298 176.273C213.532 166.572 207.912 157.171 198.662 153.703C198.045 153.472 197.412 153.267 196.764 153.09C196.478 153.012 196.192 152.941 195.905 152.875C194.546 152.563 193.185 152.389 191.838 152.345C188.926 152.249 186.078 152.756 183.448 153.778C183.682 153.236 183.881 152.67 184.041 152.082C185.758 145.791 182.381 139.39 176.5 137.786C170.618 136.182 164.46 139.981 162.743 146.273ZM176.98 184.877C179.852 184.071 182.614 182.935 185.208 181.499C184.885 180.883 184.632 180.199 184.47 179.464C183.712 176.023 185.225 172.767 187.85 172.192C189.961 171.729 192.148 173.141 193.318 175.501C197.665 171.299 201.064 166.016 203.052 159.92C207.537 163.811 209.946 169.773 209.17 175.874L208.914 177.883L208.22 179.797C205.042 188.575 195.583 193.58 186.403 191.075C182.533 190.02 179.299 187.791 176.98 184.877Z" fill="#0071B3"/>
<path d="M99.2281 259.502L122.11 316H211L190.808 258.026C189.968 255.616 187.695 254 185.142 254H102.936C100.098 254 98.1631 256.872 99.2281 259.502Z" stroke="#0071B3" stroke-width="3.65921" stroke-linecap="round"/>
<path d="M210.464 316H242V316C242 311.582 238.418 308 234 308H208.5" stroke="#0071B3" stroke-width="3.65921" stroke-linecap="round"/>
<path d="M90 316.17H354.17" stroke="#0071B3" stroke-width="3.65921" stroke-linecap="round"/>
<path d="M127 252C130.5 234.667 147.478 199.411 194 208C226.5 214 238.5 233.5 246.5 247.5C255.357 263 253.5 277.5 235.5 292.5C217.5 307.5 210 307.5 210 307.5" stroke="#0071B3" stroke-width="3.65921" stroke-linecap="round"/>
<path d="M208 246C212 252.5 214.74 254.674 218.5 260C224.5 268.5 224 271.5 218.5 278.5C213 285.5 205 291.5 205 298.5" stroke="#0071B3" stroke-width="3.65921" stroke-linecap="round"/>
<path d="M189 254H126.5C130.5 232.5 145.5 205.5 185.5 206C217.5 206.4 236.5 230.5 243 243L213.5 254C214.833 255.667 219.4 261.5 221 267.5C223 275 217.5 279.5 213.5 283C210.3 285.8 204 292 204 297L189 254Z" fill="#0071B3"/>
<line x1="269.83" y1="308.17" x2="345.17" y2="308.17" stroke="#56B9F2" stroke-width="3.65921" stroke-linecap="round"/>
<line x1="275.83" y1="301.17" x2="351.17" y2="301.17" stroke="#56B9F2" stroke-width="3.65921" stroke-linecap="round"/>
<line x1="261.83" y1="294.17" x2="337.17" y2="294.17" stroke="#56B9F2" stroke-width="3.65921" stroke-linecap="round"/>
<line x1="275.83" y1="287.17" x2="351.17" y2="287.17" stroke="#56B9F2" stroke-width="3.65921" stroke-linecap="round"/>
<line x1="285.83" y1="280.17" x2="361.17" y2="280.17" stroke="#56B9F2" stroke-width="3.65921" stroke-linecap="round"/>
<line x1="269.83" y1="273.17" x2="345.17" y2="273.17" stroke="#56B9F2" stroke-width="3.65921" stroke-linecap="round"/>
<line x1="269.83" y1="266.17" x2="345.17" y2="266.17" stroke="#56B9F2" stroke-width="3.65921" stroke-linecap="round"/>
<line x1="275.83" y1="259.17" x2="351.17" y2="259.17" stroke="#56B9F2" stroke-width="3.65921" stroke-linecap="round"/>
<line x1="269.83" y1="252.17" x2="345.17" y2="252.17" stroke="#56B9F2" stroke-width="3.65921" stroke-linecap="round"/>
<line x1="278.83" y1="245.17" x2="354.17" y2="245.17" stroke="#56B9F2" stroke-width="3.65921" stroke-linecap="round"/>
<line x1="265.83" y1="238.17" x2="341.17" y2="238.17" stroke="#56B9F2" stroke-width="3.65921" stroke-linecap="round"/>
<line x1="265.83" y1="231.17" x2="341.17" y2="231.17" stroke="#56B9F2" stroke-width="3.65921" stroke-linecap="round"/>
<path d="M298.862 231C296.025 226.574 291.598 216.153 291.148 204.001C291.107 202.897 292.006 202 293.111 202H321.078C322.076 202 322.925 202.734 322.947 203.731C323.089 210.269 320.152 222.614 314.5 231" stroke="#56B9F2" stroke-width="3.65921" stroke-linecap="round"/>
<circle cx="328.5" cy="214.5" r="5.5" stroke="#56B9F2" stroke-width="3.65921" stroke-linecap="round"/>
</svg>
