<svg xmlns="http://www.w3.org/2000/svg" fill-rule="evenodd" viewBox="0 0 100 100">
    <path d="M84 17.5H17a1.5 1.5 0 0 0-1.5 1.5v33a1.5 1.5 0 0 0 1.5 1.5h9.5V82a1.5 1.5 0 0 0 1.5 1.5h7.5V90a1.5 1.5 0 0 0 1.5 1.5h36a1.5 1.5 0 0 0 1.5-1.5V53.5H84a1.5 1.5 0 0 0 1.5-1.5V19a1.5 1.5 0 0 0-1.5-1.5Zm-65.5 33v-30h8v30Zm11-30h33v60h-33Zm42 68h-33v-5H64a1.5 1.5 0 0 0 1.5-1.5V28.5h6Zm11-38h-8V27a1.5 1.5 0 0 0-1.5-1.5h-7.5v-5h17Z"/>
    <path d="M40.5 55.77a1.5 1.5 0 0 0-3 0c0 3.57 3 6.54 7 7.15V65a1.5 1.5 0 0 0 3 0v-2.08c4-.61 7-3.58 7-7.15s-3-6.54-7-7.15v-8.49c2.3.51 4 2.15 4 4.11a1.5 1.5 0 0 0 3 0c0-3.57-3-6.54-7-7.15V35a1.5 1.5 0 0 0-3 0v2.08c-4 .61-7 3.58-7 7.15s3 6.54 7 7.14v8.5c-2.3-.51-4-2.15-4-4.1Zm11 0c0 2-1.69 3.6-4 4.11v-8.22c2.31.51 4 2.16 4 4.11Zm-11-11.53c0-2 1.69-3.6 4-4.11v8.2c-2.31-.51-4-2.15-4-4.1ZM29 7a2 2 0 1 0 0 4 2 2 0 1 0 0-4zm10 0a2 2 0 1 0 0 4 2 2 0 1 0 0-4z"/>
</svg>
