<svg xmlns="http://www.w3.org/2000/svg" fill-rule="evenodd" viewBox="0 0 100 100">
    <path d="M90 21.5H10A1.5 1.5 0 0 0 8.5 23v48a1.5 1.5 0 0 0 1.5 1.5h28.5V82a1.49 1.49 0 0 0 .09.5H30a1.5 1.5 0 0 0 0 3h40a1.5 1.5 0 0 0 0-3h-9.59a1.48 1.48 0 0 0 .09-.5v-9.5H90a1.5 1.5 0 0 0 1.5-1.5V23a1.5 1.5 0 0 0-1.5-1.5Zm-32.41 61H41.41a1.49 1.49 0 0 0 .09-.5v-9.5h16V82a1.48 1.48 0 0 0 .09.5Zm30.91-13h-77v-45h77Z"/>
    <path d="M43.5 54.15a1.5 1.5 0 0 0-3 0c0 3.79 3.25 6.93 7.5 7.54V64a1.5 1.5 0 0 0 3 0v-2.31c4.25-.61 7.5-3.76 7.5-7.54s-3.25-6.93-7.5-7.54v-9.26c2.58.52 4.5 2.34 4.5 4.5a1.5 1.5 0 0 0 3 0c0-3.79-3.25-6.93-7.5-7.54V32a1.5 1.5 0 0 0-3 0v2.31c-4.25.61-7.5 3.76-7.5 7.54s3.25 6.92 7.5 7.53v9.27c-2.58-.51-4.5-2.33-4.5-4.5Zm12 0c0 2.17-1.92 4-4.5 4.5v-9c2.58.52 4.5 2.35 4.5 4.5Zm-12-12.3c0-2.16 1.92-4 4.5-4.5v9c-2.58-.52-4.5-2.35-4.5-4.5Z"/>
</svg>
