<svg width="256" height="256" viewBox="0 0 256 256" fill="none" xmlns="http://www.w3.org/2000/svg">
<g clip-path="url(#clip0_4416_24822)">
<mask id="mask0_4416_24822" style="mask-type:luminance" maskUnits="userSpaceOnUse" x="0" y="0" width="256" height="256">
<path d="M204.8 0H51.2C22.923 0 0 22.923 0 51.2V204.8C0 233.077 22.923 256 51.2 256H204.8C233.077 256 256 233.077 256 204.8V51.2C256 22.923 233.077 0 204.8 0Z" fill="white"/>
</mask>
<g mask="url(#mask0_4416_24822)">
<path fill-rule="evenodd" clip-rule="evenodd" d="M256 0H0V175.082C20.0801 167.644 39.5784 160.381 39.5784 160.381L101.61 192.824C101.61 192.824 82.0192 229.763 68.0979 256H256V0ZM81.9174 121.055H170.534C172.14 121.055 173.419 121.535 173.488 124.004C173.631 132.582 172.732 158.648 157.734 169.229C140.385 180.276 112.942 180.118 108.502 180.044C108.354 180.033 108.218 180.02 108.09 180.009L108.045 180.004C107.526 179.956 107.132 179.92 106.533 180.044C103.48 177.987 47.4555 150.549 47.4555 150.549C47.4555 150.549 62.6573 118.722 70.1018 103.359C70.9293 100.881 73.1546 100.881 74.0403 103.359C75.7933 107.053 81.9174 121.055 81.9174 121.055ZM95.7024 150.549C90.8045 150.549 86.841 146.572 86.841 141.701C86.841 136.81 90.8045 132.853 95.7024 132.853C100.588 132.853 104.564 136.81 104.564 141.701C104.564 146.572 100.588 150.549 95.7024 150.549Z" fill="#95001B"/>
</g>
</g>
<defs>
<clipPath id="clip0_4416_24822">
<rect width="256" height="256" fill="white"/>
</clipPath>
</defs>
</svg>
