<svg width="40" height="40" viewBox="0 0 40 40" fill="none" xmlns="http://www.w3.org/2000/svg">
<g clip-path="url(#clip0_2291_10755)">
<path fill-rule="evenodd" clip-rule="evenodd" d="M40 0H0V27.3566C3.13752 26.1943 6.18413 25.0595 6.18413 25.0595L15.8766 30.1288C15.8766 30.1288 12.8155 35.9005 10.6403 40H40V0ZM12.7996 18.9149H26.646C26.8968 18.9149 27.0967 18.9899 27.1075 19.3757C27.1298 20.716 26.9893 24.7888 24.6459 26.442C21.9352 28.1681 17.6472 28.1435 16.9535 28.1318C16.9303 28.1302 16.909 28.1282 16.889 28.1264L16.882 28.1257C16.8009 28.1182 16.7394 28.1125 16.6458 28.1318C16.1688 27.8104 7.41492 23.5233 7.41492 23.5233C7.41492 23.5233 9.79021 18.5503 10.9534 16.1498C11.0827 15.7626 11.4304 15.7626 11.5688 16.1498C11.8427 16.7271 12.7996 18.9149 12.7996 18.9149ZM14.9535 23.5233C14.1882 23.5233 13.5689 22.9018 13.5689 22.1408C13.5689 21.3766 14.1882 20.7583 14.9535 20.7583C15.7169 20.7583 16.3381 21.3766 16.3381 22.1408C16.3381 22.9018 15.7169 23.5233 14.9535 23.5233Z" fill="#BF6676"/>
</g>
<defs>
<clipPath id="clip0_2291_10755">
<rect width="40" height="40" rx="8"/>
</clipPath>
</defs>
</svg>
