<svg width="16" height="16" viewBox="0 0 16 16" fill="none" xmlns="http://www.w3.org/2000/svg">
    <g clip-path="url(#clip0_2291_10755)">
        <path fill-rule="evenodd" clip-rule="evenodd"
              d="M16 0H0V10.9426C1.255 10.4777 2.4737 10.0238 2.4737 10.0238L6.3506 12.0515C6.3506 12.0515 5.1262 14.3602 4.2561 16H16V0M5.1198 7.566H10.6584C10.7587 7.566 10.8387 7.596 10.843 7.7503C10.8519 8.2864 10.7957 9.9155 9.8584 10.5768C8.7741 11.2672 7.0589 11.2574 6.7814 11.2527C6.7721 11.2521 6.7636 11.2513 6.7556 11.2506L6.7528 11.2503C6.7204 11.2473 6.6958 11.245 6.6583 11.2527C6.4675 11.1242 2.966 9.4093 2.966 9.4093C2.966 9.4093 3.9161 7.4201 4.3814 6.4599C4.4331 6.305 4.5722 6.305 4.6275 6.4599C4.7371 6.6908 5.1198 7.566 5.1198 7.566M5.9814 9.4093C5.6753 9.4093 5.4276 9.1607 5.4276 8.8563C5.4276 8.5506 5.6753 8.3033 5.9814 8.3033C6.2868 8.3033 6.5352 8.5506 6.5352 8.8563C6.5352 9.1607 6.2868 9.4093 5.9814 9.4093" fill="black"/>
    </g>
    <defs>
        <clipPath id="clip0_2291_10755">
            <rect width="16" height="16" rx="3"/>
        </clipPath>
    </defs>
</svg>
