<svg width="716" height="600" viewBox="0 0 716 600" fill="none" xmlns="http://www.w3.org/2000/svg">
<g filter="url(#filter0_b_3090_496)">
<rect width="716" height="600" fill="#323232"/>
<rect x="62.5" y="61.5" width="231" height="436" rx="28.9954" fill="#323232" stroke="white"/>
<rect x="62.5" y="61.5" width="231" height="476" rx="28.9954" fill="#323232" stroke="white"/>
<path d="M128.635 72.5C130.575 72.5 132.148 74.0729 132.148 76.0131C132.148 85.408 139.902 91.8357 149.344 91.8357H207.968C217.411 91.8357 225.165 85.408 225.165 76.0131C225.165 74.0729 226.738 72.5 228.678 72.5L261.109 72.5C272.931 72.5 282.5 81.921 282.5 93.5247L282.5 505.475C282.5 517.079 272.931 526.5 261.109 526.5H94.8912C83.0692 526.5 73.5 517.079 73.5 505.475L73.5 93.5247C73.5 81.921 83.0691 72.5 94.8911 72.5H128.635Z" stroke="white"/>
<path d="M89.5986 119.496H103.22M89.5986 114.307H103.22M89.5986 109.118H103.22" stroke="white" stroke-width="1.5567" stroke-linecap="round" stroke-linejoin="round"/>
<rect x="115.834" y="105.982" width="121.739" height="16" rx="8" fill="#4C4C4C"/>
<g clip-path="url(#clip0_3090_496)">
<path fill-rule="evenodd" clip-rule="evenodd" d="M255.703 105.334C254.53 105.334 253.375 105.615 252.333 106.152C251.292 106.689 250.393 107.468 249.714 108.423C249.034 109.378 248.593 110.482 248.426 111.642C248.26 112.803 248.374 113.986 248.758 115.093C249.142 116.201 249.785 117.201 250.634 118.009C251.483 118.817 252.513 119.411 253.638 119.74C254.763 120.07 255.95 120.125 257.101 119.902C258.252 119.679 259.333 119.184 260.253 118.459L263.412 121.617C263.575 121.775 263.793 121.862 264.02 121.86C264.247 121.858 264.464 121.767 264.624 121.607C264.784 121.446 264.875 121.229 264.877 121.003C264.879 120.776 264.792 120.558 264.635 120.394L261.476 117.236C262.331 116.152 262.863 114.849 263.011 113.477C263.16 112.105 262.919 110.719 262.317 109.477C261.715 108.235 260.775 107.188 259.605 106.455C258.435 105.723 257.083 105.334 255.703 105.334ZM250.081 112.685C250.081 111.194 250.673 109.765 251.728 108.71C252.782 107.656 254.212 107.064 255.703 107.064C257.193 107.064 258.623 107.656 259.677 108.71C260.732 109.765 261.324 111.194 261.324 112.685C261.324 114.176 260.732 115.606 259.677 116.66C258.623 117.714 257.193 118.307 255.703 118.307C254.212 118.307 252.782 117.714 251.728 116.66C250.673 115.606 250.081 114.176 250.081 112.685Z" fill="white"/>
</g>
<rect x="87" y="145" width="229" height="133" rx="15.5061" fill="#242424"/>
<rect x="87" y="140" width="229" height="133" rx="15.5061" fill="#AB001F"/>
<circle cx="126.419" cy="178.982" r="21.8484" fill="#323232"/>
<path d="M131.882 175.704C131.882 174.196 131.27 172.83 130.283 171.843C129.294 170.854 127.928 170.242 126.42 170.242C124.911 170.242 123.546 170.854 122.557 171.843C121.569 172.83 120.958 174.196 120.958 175.704C120.958 177.213 121.569 178.578 122.557 179.566C123.546 180.555 124.911 181.166 126.42 181.166C127.928 181.166 129.294 180.555 130.283 179.566C130.791 179.06 131.193 178.458 131.468 177.795C131.742 177.132 131.883 176.422 131.882 175.704ZM119.865 186.629C119.865 187.721 122.323 188.813 126.42 188.813C130.263 188.813 132.974 187.721 132.974 186.629C132.974 184.444 130.403 182.259 126.42 182.259C122.323 182.259 119.865 184.444 119.865 186.629Z" fill="white"/>
<rect x="161" y="169" width="81" height="6" rx="3" fill="white" fill-opacity="0.7" style="mix-blend-mode:soft-light"/>
<rect x="161" y="183" width="44" height="6" rx="3" fill="white" fill-opacity="0.7" style="mix-blend-mode:soft-light"/>
<path d="M90.4036 323.727C90.4036 322.822 91.1372 322.089 92.0422 322.089H281.577V325.366H92.0422C91.1372 325.366 90.4036 324.632 90.4036 323.727Z" fill="white" fill-opacity="0.2"/>
<rect x="90.4036" y="322.089" width="53.5287" height="3.27726" rx="1.63863" fill="white" fill-opacity="0.3"/>
<rect x="90.4036" y="306.795" width="53.5287" height="8.73937" rx="4.36969" fill="white"/>
<rect x="150.487" y="306.795" width="40.4196" height="8.73937" rx="4.36969" fill="white" fill-opacity="0.2"/>
<rect x="197.461" y="306.795" width="60.0832" height="8.73937" rx="4.36969" fill="white" fill-opacity="0.2"/>
<path d="M264.099 311.165C264.099 308.751 266.055 306.795 268.468 306.795H281.577V315.534H268.468C266.055 315.534 264.099 313.578 264.099 311.165Z" fill="white" fill-opacity="0.2"/>
<rect x="103.513" y="422.591" width="150.754" height="6.55453" rx="3.27726" fill="white" fill-opacity="0.7" style="mix-blend-mode:soft-light"/>
<rect x="103.513" y="436.793" width="78.6543" height="6.55453" rx="3.27726" fill="white" fill-opacity="0.7" style="mix-blend-mode:soft-light"/>
<rect x="90.5" y="343.5" width="176" height="114" rx="8.23937" stroke="white"/>
<rect x="103.513" y="355.954" width="54.6211" height="54.6211" rx="8.73937" fill="#4C4C4C"/>
<rect x="166.874" y="387.634" width="76.4695" height="6.55453" rx="3.27726" fill="white"/>
<rect x="166.874" y="358.139" width="30.5878" height="12.0166" rx="6.00832" fill="#AB001F"/>
<rect x="166.874" y="401.835" width="40.4196" height="6.55453" rx="3.27726" fill="white"/>
<mask id="mask0_3090_496" style="mask-type:alpha" maskUnits="userSpaceOnUse" x="89" y="454" width="178" height="72">
<rect x="89" y="454" width="178" height="71.8" fill="#D9D9D9"/>
</mask>
<g mask="url(#mask0_3090_496)">
<rect x="90.5" y="466.5" width="176" height="114" rx="8.23937" stroke="white"/>
<rect x="103.513" y="478.954" width="54.6211" height="54.6211" rx="8.73937" fill="#4C4C4C"/>
<rect x="166.874" y="510.634" width="76.4695" height="6.55453" rx="3.27726" fill="white"/>
<rect x="166.874" y="481.139" width="30.5878" height="12.0166" rx="6.00832" fill="#AB001F"/>
</g>
<rect x="476.5" y="356.5" width="176" height="181" rx="8.23937" fill="#E8E8E8" stroke="white"/>
<rect x="488" y="368" width="152" height="78" rx="6" fill="white"/>
<rect x="488" y="490" width="53" height="7" rx="3.5" fill="#ACACAC" fill-opacity="0.7"/>
<rect x="488" y="504" width="113" height="7" rx="3.5" fill="#ACACAC" fill-opacity="0.7"/>
<rect x="488" y="518" width="113" height="7" rx="3.5" fill="#ACACAC" fill-opacity="0.7"/>
<rect x="488" y="458" width="131" height="7" rx="3.5" fill="#4E4E4E"/>
<rect x="488" y="472" width="65" height="7" rx="3.5" fill="#4E4E4E"/>
<rect x="498" y="378" width="36" height="14" rx="7" fill="#AB001F"/>
<g filter="url(#filter1_d_3090_496)">
<rect x="412" y="203" width="102" height="36" rx="18" fill="#E3E3E3"/>
<rect x="430" y="218" width="66" height="6" rx="3" fill="white" style="mix-blend-mode:soft-light"/>
</g>
<rect x="385.5" y="59.5" width="267" height="199" rx="28.9954" stroke="#626262" stroke-dasharray="2.18 4.37"/>
<path d="M182.614 242.614C182.4 242.827 182.4 243.173 182.614 243.386L186.09 246.862C186.303 247.076 186.649 247.076 186.862 246.862C187.076 246.649 187.076 246.303 186.862 246.09L183.772 243L186.862 239.91C187.076 239.697 187.076 239.351 186.862 239.138C186.649 238.924 186.303 238.924 186.09 239.138L182.614 242.614ZM412.913 222C412.913 220.391 411.609 219.087 410 219.087C408.391 219.087 407.087 220.391 407.087 222C407.087 223.609 408.391 224.913 410 224.913C411.609 224.913 412.913 223.609 412.913 222ZM357 222L357 222.546L357 222ZM341 243L341 243.546L341 243ZM341 242.454L183 242.454L183 243.546L341 243.546L341 242.454ZM349.546 235L349.546 230L348.454 230L348.454 235L349.546 235ZM357 222.546L410 222.546L410 221.454L357 221.454L357 222.546ZM349.546 230C349.546 225.883 352.883 222.546 357 222.546L357 221.454C352.28 221.454 348.454 225.28 348.454 230L349.546 230ZM341 243.546C345.72 243.546 349.546 239.72 349.546 235L348.454 235C348.454 239.117 345.117 242.454 341 242.454L341 243.546Z" fill="white"/>
<circle cx="534.38" cy="220.731" r="2.73105" fill="#D9D9D9"/>
<circle cx="545.304" cy="220.731" r="2.73105" fill="#D9D9D9" fill-opacity="0.2"/>
<circle cx="556.228" cy="220.731" r="2.73105" fill="#D9D9D9" fill-opacity="0.2"/>
<circle cx="567.152" cy="220.731" r="2.73105" fill="#D9D9D9" fill-opacity="0.2"/>
<circle cx="578.076" cy="220.731" r="2.73105" fill="#D9D9D9" fill-opacity="0.2"/>
<path d="M554.087 239C554.087 240.609 555.391 241.913 557 241.913C558.609 241.913 559.913 240.609 559.913 239C559.913 237.391 558.609 236.087 557 236.087C555.391 236.087 554.087 237.391 554.087 239ZM183.614 288.614C183.4 288.827 183.4 289.173 183.614 289.386L187.09 292.862C187.303 293.076 187.649 293.076 187.862 292.862C188.076 292.649 188.076 292.303 187.862 292.09L184.772 289L187.862 285.91C188.076 285.697 188.076 285.351 187.862 285.138C187.649 284.924 187.303 284.924 187.09 285.138L183.614 288.614ZM556.454 239V281H557.546V239H556.454ZM549 288.454H184V289.546H549V288.454ZM556.454 281C556.454 285.117 553.117 288.454 549 288.454V289.546C553.72 289.546 557.546 285.72 557.546 281H556.454Z" fill="white"/>
<path d="M470.087 370C470.087 371.609 471.391 372.913 473 372.913C474.609 372.913 475.913 371.609 475.913 370C475.913 368.391 474.609 367.087 473 367.087C471.391 367.087 470.087 368.391 470.087 370ZM247.614 369.614C247.4 369.827 247.4 370.173 247.614 370.386L251.09 373.862C251.303 374.076 251.649 374.076 251.862 373.862C252.076 373.649 252.076 373.303 251.862 373.09L248.772 370L251.862 366.91C252.076 366.697 252.076 366.351 251.862 366.138C251.649 365.924 251.303 365.924 251.09 366.138L247.614 369.614ZM473 369.454H248V370.546H473V369.454Z" fill="white"/>
<path d="M487.087 138C487.087 139.609 488.391 140.913 490 140.913C491.609 140.913 492.913 139.609 492.913 138C492.913 136.391 491.609 135.087 490 135.087C488.391 135.087 487.087 136.391 487.087 138ZM294.614 174.614C294.4 174.827 294.4 175.173 294.614 175.386L298.09 178.862C298.303 179.076 298.649 179.076 298.862 178.862C299.076 178.649 299.076 178.303 298.862 178.09L295.772 175L298.862 171.91C299.076 171.697 299.076 171.351 298.862 171.138C298.649 170.924 298.303 170.924 298.09 171.138L294.614 174.614ZM489.454 138V166.261H490.546V138H489.454ZM481.261 174.454H295V175.546H481.261V174.454ZM489.454 166.261C489.454 170.786 485.786 174.454 481.261 174.454V175.546C486.389 175.546 490.546 171.389 490.546 166.261H489.454Z" fill="white"/>
<circle cx="435.607" cy="109.251" r="24.0333" fill="#D9D9D9"/>
<g filter="url(#filter2_d_3090_496)">
<circle cx="490.229" cy="109.251" r="24.0333" fill="#AB001F"/>
<circle cx="490.229" cy="109.251" r="23.0333" stroke="white" stroke-opacity="0.2" stroke-width="2"/>
</g>
<path d="M481.49 108.796L487.631 114.713L498.969 103.789" stroke="white" stroke-width="3.27726" stroke-linecap="round"/>
<circle cx="544.85" cy="109.251" r="24.0333" fill="#95001B"/>
<circle cx="599.471" cy="109.251" r="24.0333" fill="#6B0013"/>
<path d="M265 458H308C312.418 458 316 454.418 316 450V423" stroke="#626262" stroke-dasharray="2.18 4.37"/>
<path d="M265 467H308C312.418 467 316 470.582 316 475V502" stroke="#626262" stroke-dasharray="2.18 4.37"/>
<path d="M325.354 422.646C325.158 422.451 324.842 422.451 324.646 422.646L321.464 425.828C321.269 426.024 321.269 426.34 321.464 426.536C321.66 426.731 321.976 426.731 322.172 426.536L325 423.707L327.828 426.536C328.024 426.731 328.34 426.731 328.536 426.536C328.731 426.34 328.731 426.024 328.536 425.828L325.354 422.646ZM324.646 502.354C324.842 502.549 325.158 502.549 325.354 502.354L328.536 499.172C328.731 498.976 328.731 498.66 328.536 498.464C328.34 498.269 328.024 498.269 327.828 498.464L325 501.293L322.172 498.464C321.976 498.269 321.66 498.269 321.464 498.464C321.269 498.66 321.269 498.976 321.464 499.172L324.646 502.354ZM324.5 423V502H325.5V423H324.5Z" fill="white"/>
<g filter="url(#filter3_d_3090_496)">
<circle cx="377" cy="369" r="24" fill="#6E6E6E"/>
<circle cx="377" cy="369" r="23.4" stroke="white" stroke-opacity="0.1" stroke-width="1.2"/>
</g>
<path d="M377 381C370.372 381 365 375.628 365 369C365 362.372 370.372 357 377 357C383.628 357 389 362.372 389 369C389 375.628 383.628 381 377 381ZM382.784 375.091C384.233 373.718 385.145 371.874 385.358 369.89C385.57 367.905 385.07 365.91 383.945 364.261C382.82 362.613 381.145 361.418 379.22 360.892C377.295 360.366 375.245 360.542 373.438 361.39L374.608 363.496C375.522 363.099 376.519 362.935 377.511 363.02C378.503 363.105 379.458 363.435 380.291 363.981C381.123 364.527 381.807 365.272 382.28 366.148C382.753 367.024 383 368.004 383 369H379.4L382.784 375.091ZM380.562 376.61L379.392 374.504C378.478 374.901 377.481 375.065 376.489 374.98C375.497 374.895 374.542 374.565 373.709 374.019C372.877 373.473 372.193 372.728 371.72 371.852C371.247 370.976 371 369.996 371 369H374.6L371.216 362.909C369.767 364.282 368.855 366.126 368.642 368.11C368.43 370.095 368.93 372.09 370.055 373.739C371.18 375.387 372.855 376.582 374.78 377.108C376.705 377.634 378.755 377.458 380.562 376.61Z" fill="white"/>
<g filter="url(#filter4_d_3090_496)">
<path d="M263.5 177L269.5 184.5H257.5L263.5 177Z" fill="#FEE0BC"/>
<rect x="229" y="184.5" width="69" height="32" rx="4" fill="#FEE0BC"/>
<path d="M252.915 204.739L252.761 209.25H250.716V206.5H249.898V204.739H252.915ZM242.148 206.5V194.864H244.17V204.75H249.398V194.864H251.438V206.5H242.148ZM254.541 206.5V197.773H258.206C259.24 197.773 260.056 197.979 260.655 198.392C261.257 198.805 261.558 199.381 261.558 200.119C261.558 200.608 261.388 201.008 261.047 201.318C260.71 201.625 260.25 201.831 259.666 201.938C260.125 201.975 260.526 202.091 260.871 202.284C261.219 202.477 261.492 202.731 261.689 203.045C261.886 203.36 261.984 203.722 261.984 204.131C261.984 204.612 261.857 205.03 261.604 205.386C261.354 205.739 260.988 206.013 260.507 206.21C260.03 206.403 259.45 206.5 258.768 206.5H254.541ZM256.467 204.881H258.768C259.147 204.881 259.445 204.792 259.661 204.614C259.876 204.432 259.984 204.186 259.984 203.875C259.984 203.515 259.876 203.233 259.661 203.028C259.445 202.82 259.147 202.716 258.768 202.716H256.467V204.881ZM256.467 201.386H258.246C258.526 201.386 258.767 201.347 258.967 201.267C259.168 201.184 259.321 201.068 259.428 200.92C259.534 200.769 259.587 200.589 259.587 200.381C259.587 200.081 259.464 199.847 259.217 199.676C258.975 199.506 258.638 199.42 258.206 199.42H256.467V201.386ZM267.545 206.67C266.67 206.67 265.915 206.489 265.278 206.125C264.646 205.758 264.159 205.239 263.818 204.568C263.477 203.894 263.307 203.1 263.307 202.188C263.307 201.29 263.477 200.502 263.818 199.824C264.163 199.142 264.644 198.612 265.261 198.233C265.879 197.85 266.604 197.659 267.438 197.659C267.975 197.659 268.483 197.746 268.96 197.92C269.441 198.091 269.866 198.356 270.233 198.716C270.604 199.076 270.896 199.534 271.108 200.091C271.32 200.644 271.426 201.303 271.426 202.068V202.699H264.273V201.312H269.455C269.451 200.919 269.366 200.568 269.199 200.261C269.032 199.951 268.799 199.706 268.5 199.528C268.205 199.35 267.86 199.261 267.466 199.261C267.045 199.261 266.676 199.364 266.358 199.568C266.04 199.769 265.792 200.034 265.614 200.364C265.439 200.689 265.35 201.047 265.347 201.438V202.648C265.347 203.155 265.439 203.591 265.625 203.955C265.811 204.314 266.07 204.591 266.403 204.784C266.737 204.973 267.127 205.068 267.574 205.068C267.873 205.068 268.144 205.027 268.386 204.943C268.629 204.856 268.839 204.729 269.017 204.562C269.195 204.396 269.33 204.189 269.42 203.943L271.341 204.159C271.22 204.667 270.989 205.11 270.648 205.489C270.311 205.864 269.879 206.155 269.352 206.364C268.826 206.568 268.223 206.67 267.545 206.67ZM272.439 199.46V197.773H280.075V199.46H277.251V206.5H275.263V199.46H272.439ZM284.23 194.864L284.043 203.08H282.213L282.031 194.864H284.23ZM283.128 206.625C282.783 206.625 282.488 206.504 282.241 206.261C281.999 206.019 281.878 205.723 281.878 205.375C281.878 205.034 281.999 204.742 282.241 204.5C282.488 204.258 282.783 204.136 283.128 204.136C283.465 204.136 283.757 204.258 284.003 204.5C284.253 204.742 284.378 205.034 284.378 205.375C284.378 205.606 284.319 205.816 284.202 206.006C284.088 206.195 283.937 206.347 283.747 206.46C283.562 206.57 283.355 206.625 283.128 206.625Z" fill="#313741"/>
</g>
<g filter="url(#filter5_d_3090_496)">
<rect x="50" y="227" width="135" height="32" rx="4" fill="#FEE0BC"/>
<path d="M73.108 241.29H70.983C70.9223 240.941 70.8106 240.633 70.6477 240.364C70.4848 240.091 70.2822 239.86 70.0398 239.67C69.7973 239.481 69.5208 239.339 69.2102 239.244C68.9034 239.146 68.572 239.097 68.2159 239.097C67.5833 239.097 67.0227 239.256 66.5341 239.574C66.0455 239.888 65.6629 240.35 65.3864 240.96C65.1098 241.566 64.9716 242.307 64.9716 243.182C64.9716 244.072 65.1098 244.822 65.3864 245.432C65.6667 246.038 66.0492 246.496 66.5341 246.807C67.0227 247.114 67.5814 247.267 68.2102 247.267C68.5587 247.267 68.8845 247.222 69.1875 247.131C69.4943 247.036 69.7689 246.898 70.0114 246.716C70.2576 246.534 70.464 246.311 70.6307 246.045C70.8011 245.78 70.9186 245.477 70.983 245.136L73.108 245.148C73.0284 245.701 72.8561 246.22 72.5909 246.705C72.3295 247.189 71.9867 247.617 71.5625 247.989C71.1383 248.356 70.642 248.644 70.0739 248.852C69.5057 249.057 68.875 249.159 68.1818 249.159C67.1591 249.159 66.2462 248.922 65.4432 248.449C64.6402 247.975 64.0076 247.292 63.5455 246.398C63.0833 245.504 62.8523 244.432 62.8523 243.182C62.8523 241.928 63.0852 240.856 63.5511 239.966C64.017 239.072 64.6515 238.388 65.4545 237.915C66.2576 237.441 67.1667 237.205 68.1818 237.205C68.8295 237.205 69.4318 237.295 69.9886 237.477C70.5455 237.659 71.0417 237.926 71.4773 238.278C71.9129 238.627 72.2708 239.055 72.5511 239.562C72.8352 240.066 73.0208 240.642 73.108 241.29ZM74.527 239.131V237.364H83.8111V239.131H80.2145V249H78.1236V239.131H74.527ZM85.6889 249H83.4389L87.5355 237.364H90.1378L94.2401 249H91.9901L88.8821 239.75H88.7912L85.6889 249ZM85.7628 244.438H91.8991V246.131H85.7628V244.438ZM102.162 249.176C101.609 249.176 101.111 249.078 100.668 248.881C100.228 248.68 99.8797 248.384 99.6222 247.994C99.3684 247.604 99.2415 247.123 99.2415 246.551C99.2415 246.059 99.3324 245.652 99.5142 245.33C99.696 245.008 99.9441 244.75 100.259 244.557C100.573 244.364 100.927 244.218 101.321 244.119C101.719 244.017 102.13 243.943 102.554 243.898C103.065 243.845 103.48 243.797 103.798 243.756C104.116 243.71 104.348 243.642 104.491 243.551C104.639 243.456 104.713 243.311 104.713 243.114V243.08C104.713 242.652 104.586 242.32 104.332 242.085C104.079 241.85 103.713 241.733 103.236 241.733C102.732 241.733 102.332 241.843 102.037 242.062C101.745 242.282 101.548 242.542 101.446 242.841L99.5256 242.568C99.6771 242.038 99.9271 241.595 100.276 241.239C100.624 240.879 101.05 240.61 101.554 240.432C102.058 240.25 102.615 240.159 103.224 240.159C103.645 240.159 104.063 240.208 104.48 240.307C104.897 240.405 105.277 240.568 105.622 240.795C105.967 241.019 106.243 241.324 106.452 241.71C106.664 242.097 106.77 242.58 106.77 243.159V249H104.793V247.801H104.724C104.599 248.044 104.423 248.271 104.196 248.483C103.973 248.691 103.69 248.86 103.349 248.989C103.012 249.114 102.616 249.176 102.162 249.176ZM102.696 247.665C103.109 247.665 103.467 247.583 103.77 247.42C104.073 247.254 104.306 247.034 104.469 246.761C104.635 246.489 104.719 246.191 104.719 245.869V244.841C104.654 244.894 104.545 244.943 104.389 244.989C104.238 245.034 104.067 245.074 103.878 245.108C103.688 245.142 103.501 245.172 103.315 245.199C103.13 245.225 102.969 245.248 102.832 245.267C102.526 245.309 102.251 245.377 102.009 245.472C101.766 245.566 101.575 245.699 101.435 245.869C101.295 246.036 101.224 246.252 101.224 246.517C101.224 246.896 101.363 247.182 101.639 247.375C101.916 247.568 102.268 247.665 102.696 247.665ZM108.838 249V240.273H110.895V243.795H111.645L114.27 240.273H116.747L113.514 244.557L116.781 249H114.293L111.901 245.71H110.895V249H108.838ZM117.47 241.96V240.273H125.107V241.96H122.283V249H120.294V241.96H117.47ZM128.727 246.216L132.222 240.273H134.335V249H132.347V243.051L128.864 249H126.744V240.273H128.727V246.216ZM136.447 249V240.273H140.112C141.146 240.273 141.963 240.479 142.561 240.892C143.163 241.305 143.464 241.881 143.464 242.619C143.464 243.108 143.294 243.508 142.953 243.818C142.616 244.125 142.156 244.331 141.572 244.438C142.031 244.475 142.432 244.591 142.777 244.784C143.125 244.977 143.398 245.231 143.595 245.545C143.792 245.86 143.891 246.222 143.891 246.631C143.891 247.112 143.764 247.53 143.51 247.886C143.26 248.239 142.894 248.513 142.413 248.71C141.936 248.903 141.357 249 140.675 249H136.447ZM138.374 247.381H140.675C141.054 247.381 141.351 247.292 141.567 247.114C141.783 246.932 141.891 246.686 141.891 246.375C141.891 246.015 141.783 245.733 141.567 245.528C141.351 245.32 141.054 245.216 140.675 245.216H138.374V247.381ZM138.374 243.886H140.152C140.432 243.886 140.673 243.847 140.874 243.767C141.074 243.684 141.228 243.568 141.334 243.42C141.44 243.269 141.493 243.089 141.493 242.881C141.493 242.581 141.37 242.347 141.124 242.176C140.881 242.006 140.544 241.92 140.112 241.92H138.374V243.886ZM151.582 243.784V245.472H146.935V243.784H151.582ZM147.571 240.273V249H145.588V240.273H147.571ZM152.929 240.273V249H150.952V240.273H152.929ZM158.874 249.17C157.999 249.17 157.243 248.989 156.607 248.625C155.974 248.258 155.487 247.739 155.146 247.068C154.805 246.394 154.635 245.6 154.635 244.688C154.635 243.79 154.805 243.002 155.146 242.324C155.491 241.642 155.972 241.112 156.589 240.733C157.207 240.35 157.932 240.159 158.766 240.159C159.304 240.159 159.811 240.246 160.288 240.42C160.769 240.591 161.194 240.856 161.561 241.216C161.932 241.576 162.224 242.034 162.436 242.591C162.648 243.144 162.754 243.803 162.754 244.568V245.199H155.601V243.812H160.783C160.779 243.419 160.694 243.068 160.527 242.761C160.36 242.451 160.127 242.206 159.828 242.028C159.533 241.85 159.188 241.761 158.794 241.761C158.374 241.761 158.004 241.864 157.686 242.068C157.368 242.269 157.12 242.534 156.942 242.864C156.768 243.189 156.679 243.547 156.675 243.938V245.148C156.675 245.655 156.768 246.091 156.953 246.455C157.139 246.814 157.398 247.091 157.732 247.284C158.065 247.473 158.455 247.568 158.902 247.568C159.201 247.568 159.472 247.527 159.714 247.443C159.957 247.356 160.167 247.229 160.345 247.062C160.523 246.896 160.658 246.689 160.749 246.443L162.669 246.659C162.548 247.167 162.317 247.61 161.976 247.989C161.639 248.364 161.207 248.655 160.68 248.864C160.154 249.068 159.552 249.17 158.874 249.17ZM168.358 249.17C167.483 249.17 166.727 248.989 166.091 248.625C165.458 248.258 164.972 247.739 164.631 247.068C164.29 246.394 164.119 245.6 164.119 244.688C164.119 243.79 164.29 243.002 164.631 242.324C164.975 241.642 165.456 241.112 166.074 240.733C166.691 240.35 167.417 240.159 168.25 240.159C168.788 240.159 169.295 240.246 169.773 240.42C170.254 240.591 170.678 240.856 171.045 241.216C171.417 241.576 171.708 242.034 171.92 242.591C172.133 243.144 172.239 243.803 172.239 244.568V245.199H165.085V243.812H170.267C170.263 243.419 170.178 243.068 170.011 242.761C169.845 242.451 169.612 242.206 169.312 242.028C169.017 241.85 168.672 241.761 168.278 241.761C167.858 241.761 167.489 241.864 167.17 242.068C166.852 242.269 166.604 242.534 166.426 242.864C166.252 243.189 166.163 243.547 166.159 243.938V245.148C166.159 245.655 166.252 246.091 166.438 246.455C166.623 246.814 166.883 247.091 167.216 247.284C167.549 247.473 167.939 247.568 168.386 247.568C168.686 247.568 168.956 247.527 169.199 247.443C169.441 247.356 169.652 247.229 169.83 247.062C170.008 246.896 170.142 246.689 170.233 246.443L172.153 246.659C172.032 247.167 171.801 247.61 171.46 247.989C171.123 248.364 170.691 248.655 170.165 248.864C169.638 249.068 169.036 249.17 168.358 249.17Z" fill="#313741"/>
<path d="M192.5 243L185 249L185 237L192.5 243Z" fill="#FEE0BC"/>
</g>
<g filter="url(#filter6_d_3090_496)">
<rect x="340" y="506" width="123" height="32" rx="4" fill="#FEE0BC"/>
<path d="M360.119 528L356.29 522.915H355.256V528H353.148V516.364H355.256V521.148H355.784L359.92 516.364H362.517L357.92 521.67L362.716 528H360.119ZM367.223 528.17C366.371 528.17 365.632 527.983 365.007 527.608C364.382 527.233 363.897 526.708 363.553 526.034C363.212 525.36 363.041 524.572 363.041 523.67C363.041 522.769 363.212 521.979 363.553 521.301C363.897 520.623 364.382 520.097 365.007 519.722C365.632 519.347 366.371 519.159 367.223 519.159C368.075 519.159 368.814 519.347 369.439 519.722C370.064 520.097 370.547 520.623 370.888 521.301C371.232 521.979 371.405 522.769 371.405 523.67C371.405 524.572 371.232 525.36 370.888 526.034C370.547 526.708 370.064 527.233 369.439 527.608C368.814 527.983 368.075 528.17 367.223 528.17ZM367.234 526.523C367.696 526.523 368.083 526.396 368.393 526.142C368.704 525.884 368.935 525.54 369.087 525.108C369.242 524.676 369.32 524.195 369.32 523.665C369.32 523.131 369.242 522.648 369.087 522.216C368.935 521.78 368.704 521.434 368.393 521.176C368.083 520.919 367.696 520.79 367.234 520.79C366.761 520.79 366.367 520.919 366.053 521.176C365.742 521.434 365.509 521.78 365.354 522.216C365.202 522.648 365.126 523.131 365.126 523.665C365.126 524.195 365.202 524.676 365.354 525.108C365.509 525.54 365.742 525.884 366.053 526.142C366.367 526.396 366.761 526.523 367.234 526.523ZM378.173 525.608L380.764 519.273H382.423L378.895 528H377.457L374.009 519.273H375.651L378.173 525.608ZM375.134 519.273V528H373.151V519.273H375.134ZM381.298 528V519.273H383.264V528H381.298ZM385.338 528V519.273H392.707V528H390.724V520.96H387.304V528H385.338ZM398.629 528.17C397.777 528.17 397.038 527.983 396.413 527.608C395.788 527.233 395.304 526.708 394.959 526.034C394.618 525.36 394.447 524.572 394.447 523.67C394.447 522.769 394.618 521.979 394.959 521.301C395.304 520.623 395.788 520.097 396.413 519.722C397.038 519.347 397.777 519.159 398.629 519.159C399.482 519.159 400.22 519.347 400.845 519.722C401.47 520.097 401.953 520.623 402.294 521.301C402.639 521.979 402.811 522.769 402.811 523.67C402.811 524.572 402.639 525.36 402.294 526.034C401.953 526.708 401.47 527.233 400.845 527.608C400.22 527.983 399.482 528.17 398.629 528.17ZM398.641 526.523C399.103 526.523 399.489 526.396 399.8 526.142C400.11 525.884 400.341 525.54 400.493 525.108C400.648 524.676 400.726 524.195 400.726 523.665C400.726 523.131 400.648 522.648 400.493 522.216C400.341 521.78 400.11 521.434 399.8 521.176C399.489 520.919 399.103 520.79 398.641 520.79C398.167 520.79 397.773 520.919 397.459 521.176C397.148 521.434 396.915 521.78 396.76 522.216C396.608 522.648 396.533 523.131 396.533 523.665C396.533 524.195 396.608 524.676 396.76 525.108C396.915 525.54 397.148 525.884 397.459 526.142C397.773 526.396 398.167 526.523 398.641 526.523ZM404.074 525.608H406.114C406.133 525.934 406.278 526.186 406.551 526.364C406.824 526.542 407.178 526.631 407.614 526.631C408.057 526.631 408.43 526.534 408.733 526.341C409.04 526.144 409.193 525.847 409.193 525.449C409.193 525.214 409.134 525.008 409.017 524.83C408.9 524.648 408.735 524.508 408.523 524.409C408.311 524.311 408.061 524.261 407.773 524.261H406.438V522.801H407.773C408.201 522.801 408.525 522.703 408.744 522.506C408.968 522.309 409.08 522.061 409.08 521.761C409.08 521.439 408.962 521.178 408.727 520.977C408.496 520.777 408.176 520.676 407.767 520.676C407.358 520.676 407.017 520.769 406.744 520.955C406.475 521.14 406.335 521.379 406.324 521.67H404.295C404.303 521.163 404.455 520.722 404.75 520.347C405.049 519.972 405.451 519.68 405.955 519.472C406.462 519.263 407.034 519.159 407.67 519.159C408.352 519.159 408.941 519.261 409.438 519.466C409.934 519.67 410.316 519.956 410.585 520.324C410.854 520.687 410.989 521.116 410.989 521.608C410.989 522.081 410.841 522.473 410.545 522.784C410.25 523.091 409.852 523.311 409.352 523.443V523.534C409.697 523.553 410.008 523.652 410.284 523.83C410.561 524.004 410.78 524.241 410.943 524.54C411.106 524.839 411.188 525.186 411.188 525.58C411.188 526.114 411.034 526.576 410.727 526.966C410.42 527.352 409.998 527.65 409.46 527.858C408.926 528.066 408.314 528.17 407.625 528.17C406.955 528.17 406.354 528.07 405.824 527.869C405.297 527.665 404.879 527.371 404.568 526.989C404.258 526.606 404.093 526.146 404.074 525.608ZM414.79 525.216L418.284 519.273H420.398V528H418.409V522.051L414.926 528H412.807V519.273H414.79V525.216ZM429.879 519.273V526.466H431.214V530.807H429.203V528H422.51V519.273H424.493V526.312H427.913V519.273H429.879ZM434.884 525.216L438.378 519.273H440.491V528H438.503V522.051L435.02 528H432.901V519.273H434.884V525.216ZM447.763 528V520.943H445.899C445.426 520.943 445.062 521.053 444.808 521.273C444.554 521.492 444.429 521.765 444.433 522.091C444.429 522.417 444.549 522.686 444.791 522.898C445.034 523.11 445.38 523.216 445.831 523.216H448.411V524.716H445.831C445.134 524.716 444.532 524.606 444.024 524.386C443.517 524.167 443.126 523.856 442.854 523.455C442.581 523.053 442.445 522.583 442.445 522.045C442.445 521.485 442.583 520.998 442.859 520.585C443.14 520.169 443.537 519.847 444.053 519.619C444.571 519.388 445.187 519.273 445.899 519.273H449.689V528H447.763ZM442.126 528L444.564 523.523H446.592L444.149 528H442.126Z" fill="#313741"/>
<path d="M470.5 522L463 528L463 516L470.5 522Z" fill="#FEE0BC"/>
</g>
<g filter="url(#filter7_d_3090_496)">
<rect x="596" y="306" width="57" height="32" rx="8" fill="#FEE0BC"/>
<path d="M613.545 317.659H615.898C616.807 317.659 617.614 317.854 618.318 318.244C619.023 318.634 619.576 319.184 619.977 319.892C620.379 320.597 620.58 321.422 620.58 322.369C620.58 323.294 620.379 324.102 619.977 324.795C619.576 325.489 619.023 326.028 618.318 326.415C617.614 326.797 616.807 326.989 615.898 326.989H613.545C612.633 326.989 611.822 326.799 611.114 326.42C610.409 326.038 609.856 325.5 609.455 324.807C609.053 324.114 608.852 323.303 608.852 322.375C608.852 321.428 609.055 320.602 609.46 319.898C609.866 319.189 610.42 318.64 611.125 318.25C611.833 317.856 612.64 317.659 613.545 317.659ZM613.545 319.443C612.992 319.443 612.513 319.557 612.108 319.784C611.706 320.008 611.396 320.337 611.176 320.773C610.956 321.208 610.847 321.742 610.847 322.375C610.847 322.981 610.956 323.494 611.176 323.915C611.4 324.335 611.714 324.655 612.119 324.875C612.525 325.095 613 325.205 613.545 325.205H615.903C616.453 325.205 616.926 325.095 617.324 324.875C617.725 324.652 618.034 324.33 618.25 323.909C618.47 323.485 618.58 322.972 618.58 322.369C618.58 321.744 618.47 321.214 618.25 320.778C618.034 320.343 617.725 320.011 617.324 319.784C616.926 319.557 616.453 319.443 615.903 319.443H613.545ZM615.739 316.159V328.477H613.71V316.159H615.739ZM626.301 328.17C625.449 328.17 624.71 327.983 624.085 327.608C623.46 327.233 622.975 326.708 622.631 326.034C622.29 325.36 622.119 324.572 622.119 323.67C622.119 322.769 622.29 321.979 622.631 321.301C622.975 320.623 623.46 320.097 624.085 319.722C624.71 319.347 625.449 319.159 626.301 319.159C627.153 319.159 627.892 319.347 628.517 319.722C629.142 320.097 629.625 320.623 629.966 321.301C630.311 321.979 630.483 322.769 630.483 323.67C630.483 324.572 630.311 325.36 629.966 326.034C629.625 326.708 629.142 327.233 628.517 327.608C627.892 327.983 627.153 328.17 626.301 328.17ZM626.312 326.523C626.775 326.523 627.161 326.396 627.472 326.142C627.782 325.884 628.013 325.54 628.165 325.108C628.32 324.676 628.398 324.195 628.398 323.665C628.398 323.131 628.32 322.648 628.165 322.216C628.013 321.78 627.782 321.434 627.472 321.176C627.161 320.919 626.775 320.79 626.312 320.79C625.839 320.79 625.445 320.919 625.131 321.176C624.82 321.434 624.587 321.78 624.432 322.216C624.28 322.648 624.205 323.131 624.205 323.665C624.205 324.195 624.28 324.676 624.432 325.108C624.587 325.54 624.82 325.884 625.131 326.142C625.445 326.396 625.839 326.523 626.312 326.523ZM638.223 322.784V324.472H633.575V322.784H638.223ZM634.212 319.273V328H632.229V319.273H634.212ZM639.57 319.273V328H637.592V319.273H639.57Z" fill="#313741"/>
<path d="M624.5 345.5L618.5 338L630.5 338L624.5 345.5Z" fill="#FEE0BC"/>
</g>
<path d="M342.866 463.602V457.705H344.205V463.602H342.866ZM340.587 461.322V459.984H346.484V461.322H340.587ZM351.169 463.381V462.124L354.872 456.273H355.92V458.062H355.281L352.788 462.013V462.081H357.957V463.381H351.169ZM355.332 465V462.997L355.349 462.435V456.273H356.841V465H355.332ZM362.312 467.455V458.455H363.829V459.537H363.919C363.998 459.378 364.11 459.209 364.255 459.03C364.4 458.848 364.596 458.693 364.843 458.565C365.091 458.435 365.406 458.369 365.789 458.369C366.295 458.369 366.751 458.499 367.157 458.757C367.566 459.013 367.89 459.392 368.129 459.895C368.37 460.395 368.491 461.009 368.491 461.736C368.491 462.455 368.373 463.065 368.137 463.568C367.902 464.071 367.581 464.455 367.174 464.719C366.768 464.983 366.308 465.115 365.794 465.115C365.419 465.115 365.108 465.053 364.86 464.928C364.613 464.803 364.414 464.652 364.264 464.476C364.116 464.297 364.001 464.128 363.919 463.969H363.855V467.455H362.312ZM363.825 461.727C363.825 462.151 363.885 462.521 364.004 462.839C364.126 463.158 364.301 463.406 364.528 463.585C364.758 463.761 365.037 463.849 365.363 463.849C365.704 463.849 365.99 463.759 366.22 463.577C366.45 463.392 366.623 463.141 366.74 462.822C366.859 462.501 366.919 462.136 366.919 461.727C366.919 461.321 366.86 460.96 366.744 460.645C366.627 460.33 366.454 460.082 366.224 459.903C365.994 459.724 365.707 459.635 365.363 459.635C365.034 459.635 364.754 459.722 364.524 459.895C364.294 460.068 364.119 460.311 364 460.624C363.883 460.936 363.825 461.304 363.825 461.727ZM370.827 458.455L372.148 460.871L373.491 458.455H375.123L373.15 461.727L375.157 465H373.533L372.148 462.643L370.776 465H369.14L371.134 461.727L369.191 458.455H370.827Z" fill="white"/>
</g>
<defs>
<filter id="filter0_b_3090_496" x="-80" y="-80" width="876" height="760" filterUnits="userSpaceOnUse" color-interpolation-filters="sRGB">
<feFlood flood-opacity="0" result="BackgroundImageFix"/>
<feGaussianBlur in="BackgroundImageFix" stdDeviation="40"/>
<feComposite in2="SourceAlpha" operator="in" result="effect1_backgroundBlur_3090_496"/>
<feBlend mode="normal" in="SourceGraphic" in2="effect1_backgroundBlur_3090_496" result="shape"/>
</filter>
<filter id="filter1_d_3090_496" x="412" y="203" width="102" height="40.3697" filterUnits="userSpaceOnUse" color-interpolation-filters="sRGB">
<feFlood flood-opacity="0" result="BackgroundImageFix"/>
<feColorMatrix in="SourceAlpha" type="matrix" values="0 0 0 0 0 0 0 0 0 0 0 0 0 0 0 0 0 0 127 0" result="hardAlpha"/>
<feOffset dy="4.36969"/>
<feComposite in2="hardAlpha" operator="out"/>
<feColorMatrix type="matrix" values="0 0 0 0 0.162435 0 0 0 0 0.162435 0 0 0 0 0.162435 0 0 0 1 0"/>
<feBlend mode="normal" in2="BackgroundImageFix" result="effect1_dropShadow_3090_496"/>
<feBlend mode="normal" in="SourceGraphic" in2="effect1_dropShadow_3090_496" result="shape"/>
</filter>
<filter id="filter2_d_3090_496" x="450.195" y="72.418" width="80.0664" height="80.0665" filterUnits="userSpaceOnUse" color-interpolation-filters="sRGB">
<feFlood flood-opacity="0" result="BackgroundImageFix"/>
<feColorMatrix in="SourceAlpha" type="matrix" values="0 0 0 0 0 0 0 0 0 0 0 0 0 0 0 0 0 0 127 0" result="hardAlpha"/>
<feOffset dy="3.2"/>
<feGaussianBlur stdDeviation="8"/>
<feComposite in2="hardAlpha" operator="out"/>
<feColorMatrix type="matrix" values="0 0 0 0 0.670588 0 0 0 0 0 0 0 0 0 0.121569 0 0 0 1 0"/>
<feBlend mode="normal" in2="BackgroundImageFix" result="effect1_dropShadow_3090_496"/>
<feBlend mode="normal" in="SourceGraphic" in2="effect1_dropShadow_3090_496" result="shape"/>
</filter>
<filter id="filter3_d_3090_496" x="333.8" y="329.64" width="86.4" height="86.4" filterUnits="userSpaceOnUse" color-interpolation-filters="sRGB">
<feFlood flood-opacity="0" result="BackgroundImageFix"/>
<feColorMatrix in="SourceAlpha" type="matrix" values="0 0 0 0 0 0 0 0 0 0 0 0 0 0 0 0 0 0 127 0" result="hardAlpha"/>
<feOffset dy="3.84"/>
<feGaussianBlur stdDeviation="9.6"/>
<feComposite in2="hardAlpha" operator="out"/>
<feColorMatrix type="matrix" values="0 0 0 0 0.410026 0 0 0 0 0.410026 0 0 0 0 0.410026 0 0 0 0.8 0"/>
<feBlend mode="normal" in2="BackgroundImageFix" result="effect1_dropShadow_3090_496"/>
<feBlend mode="normal" in="SourceGraphic" in2="effect1_dropShadow_3090_496" result="shape"/>
</filter>
<filter id="filter4_d_3090_496" x="205" y="153" width="117" height="87.5" filterUnits="userSpaceOnUse" color-interpolation-filters="sRGB">
<feFlood flood-opacity="0" result="BackgroundImageFix"/>
<feColorMatrix in="SourceAlpha" type="matrix" values="0 0 0 0 0 0 0 0 0 0 0 0 0 0 0 0 0 0 127 0" result="hardAlpha"/>
<feOffset/>
<feGaussianBlur stdDeviation="12"/>
<feComposite in2="hardAlpha" operator="out"/>
<feColorMatrix type="matrix" values="0 0 0 0 0.192157 0 0 0 0 0.215686 0 0 0 0 0.254902 0 0 0 0.24 0"/>
<feBlend mode="normal" in2="BackgroundImageFix" result="effect1_dropShadow_3090_496"/>
<feBlend mode="normal" in="SourceGraphic" in2="effect1_dropShadow_3090_496" result="shape"/>
</filter>
<filter id="filter5_d_3090_496" x="26" y="203" width="190.5" height="80" filterUnits="userSpaceOnUse" color-interpolation-filters="sRGB">
<feFlood flood-opacity="0" result="BackgroundImageFix"/>
<feColorMatrix in="SourceAlpha" type="matrix" values="0 0 0 0 0 0 0 0 0 0 0 0 0 0 0 0 0 0 127 0" result="hardAlpha"/>
<feOffset/>
<feGaussianBlur stdDeviation="12"/>
<feComposite in2="hardAlpha" operator="out"/>
<feColorMatrix type="matrix" values="0 0 0 0 0.192157 0 0 0 0 0.215686 0 0 0 0 0.254902 0 0 0 0.24 0"/>
<feBlend mode="normal" in2="BackgroundImageFix" result="effect1_dropShadow_3090_496"/>
<feBlend mode="normal" in="SourceGraphic" in2="effect1_dropShadow_3090_496" result="shape"/>
</filter>
<filter id="filter6_d_3090_496" x="316" y="482" width="178.5" height="80" filterUnits="userSpaceOnUse" color-interpolation-filters="sRGB">
<feFlood flood-opacity="0" result="BackgroundImageFix"/>
<feColorMatrix in="SourceAlpha" type="matrix" values="0 0 0 0 0 0 0 0 0 0 0 0 0 0 0 0 0 0 127 0" result="hardAlpha"/>
<feOffset/>
<feGaussianBlur stdDeviation="12"/>
<feComposite in2="hardAlpha" operator="out"/>
<feColorMatrix type="matrix" values="0 0 0 0 0.192157 0 0 0 0 0.215686 0 0 0 0 0.254902 0 0 0 0.24 0"/>
<feBlend mode="normal" in2="BackgroundImageFix" result="effect1_dropShadow_3090_496"/>
<feBlend mode="normal" in="SourceGraphic" in2="effect1_dropShadow_3090_496" result="shape"/>
</filter>
<filter id="filter7_d_3090_496" x="572" y="282" width="105" height="87.5" filterUnits="userSpaceOnUse" color-interpolation-filters="sRGB">
<feFlood flood-opacity="0" result="BackgroundImageFix"/>
<feColorMatrix in="SourceAlpha" type="matrix" values="0 0 0 0 0 0 0 0 0 0 0 0 0 0 0 0 0 0 127 0" result="hardAlpha"/>
<feOffset/>
<feGaussianBlur stdDeviation="12"/>
<feComposite in2="hardAlpha" operator="out"/>
<feColorMatrix type="matrix" values="0 0 0 0 0.192157 0 0 0 0 0.215686 0 0 0 0 0.254902 0 0 0 0.24 0"/>
<feBlend mode="normal" in2="BackgroundImageFix" result="effect1_dropShadow_3090_496"/>
<feBlend mode="normal" in="SourceGraphic" in2="effect1_dropShadow_3090_496" result="shape"/>
</filter>
<clipPath id="clip0_3090_496">
<rect width="20.756" height="20.756" fill="white" transform="translate(246.619 103.604)"/>
</clipPath>
</defs>
</svg>
