<svg width="576" height="576" viewBox="0 0 576 576" fill="none" xmlns="http://www.w3.org/2000/svg">
<g filter="url(#filter0_b_3470_2505)">
<rect width="576" height="576" fill="#323232"/>
<rect x="50.2792" y="96.1341" width="185.832" height="350.749" rx="23.3259" fill="#323232" stroke="white" stroke-width="0.804469"/>
<rect x="50.2792" y="96.1341" width="185.832" height="382.927" rx="23.3259" fill="#323232" stroke="white" stroke-width="0.804469"/>
<path d="M76.3368 104.983H103.482C105.043 104.983 106.309 106.249 106.309 107.809C106.309 115.367 112.546 120.538 120.143 120.538L167.304 120.538C174.9 120.538 181.138 115.367 181.138 107.809C181.138 106.249 182.403 104.983 183.964 104.983H210.054C219.564 104.983 227.262 112.562 227.262 121.897L227.262 453.299C227.262 462.633 219.564 470.212 210.054 470.212H76.3368C66.8264 470.212 59.1283 462.633 59.1283 453.299L59.1283 121.897C59.1283 112.562 66.8264 104.983 76.3368 104.983Z" stroke="white" stroke-width="0.804469"/>
<path d="M72.0791 142.79H83.0369M72.0791 138.616H83.0369M72.0791 134.441H83.0369" stroke="white" stroke-width="1.25232" stroke-linecap="round" stroke-linejoin="round"/>
<rect x="93.1851" y="131.919" width="97.9356" height="12.8715" rx="6.43575" fill="#4C4C4C"/>
<g clip-path="url(#clip0_3470_2505)">
<path fill-rule="evenodd" clip-rule="evenodd" d="M205.705 131.397C204.762 131.397 203.832 131.623 202.994 132.055C202.156 132.488 201.434 133.114 200.887 133.882C200.34 134.651 199.985 135.539 199.851 136.472C199.718 137.406 199.809 138.357 200.118 139.248C200.427 140.139 200.944 140.944 201.627 141.594C202.31 142.244 203.139 142.722 204.044 142.987C204.949 143.252 205.904 143.296 206.83 143.117C207.756 142.938 208.625 142.539 209.366 141.956L211.906 144.497C212.038 144.623 212.213 144.693 212.396 144.692C212.578 144.69 212.753 144.617 212.882 144.488C213.011 144.359 213.084 144.185 213.086 144.002C213.087 143.82 213.017 143.644 212.89 143.513L210.349 140.972C211.037 140.1 211.465 139.052 211.584 137.948C211.704 136.844 211.51 135.729 211.026 134.73C210.541 133.731 209.785 132.889 208.844 132.299C207.903 131.71 206.815 131.397 205.705 131.397ZM201.182 137.311C201.182 136.112 201.659 134.961 202.507 134.113C203.355 133.265 204.505 132.789 205.705 132.789C206.904 132.789 208.054 133.265 208.902 134.113C209.751 134.961 210.227 136.112 210.227 137.311C210.227 138.51 209.751 139.661 208.902 140.509C208.054 141.357 206.904 141.833 205.705 141.833C204.505 141.833 203.355 141.357 202.507 140.509C201.659 139.661 201.182 138.51 201.182 137.311Z" fill="white"/>
</g>
<rect x="69.9888" y="163.307" width="184.223" height="106.994" rx="12.4742" fill="#242424"/>
<rect x="69.9888" y="159.285" width="184.223" height="106.994" rx="12.4742" fill="#AB001F"/>
<circle cx="101.701" cy="190.644" r="17.5764" fill="#323232"/>
<path d="M106.095 188.008C106.095 186.794 105.603 185.696 104.808 184.901C104.013 184.106 102.914 183.614 101.701 183.614C100.487 183.614 99.3885 184.106 98.5931 184.901C97.7987 185.696 97.3066 186.794 97.3066 188.008C97.3066 189.222 97.7987 190.32 98.5931 191.115C99.3885 191.91 100.487 192.402 101.701 192.402C102.914 192.402 104.013 191.91 104.808 191.115C105.217 190.707 105.541 190.223 105.762 189.69C105.983 189.157 106.096 188.585 106.095 188.008ZM96.4277 196.796C96.4277 197.675 98.4051 198.554 101.701 198.554C104.792 198.554 106.974 197.675 106.974 196.796C106.974 195.038 104.905 193.281 101.701 193.281C98.4051 193.281 96.4277 195.038 96.4277 196.796Z" fill="white"/>
<rect x="129.52" y="182.615" width="65.162" height="4.82682" rx="2.41341" fill="white" fill-opacity="0.7" style="mix-blend-mode:soft-light"/>
<rect x="129.52" y="193.877" width="35.3966" height="4.82682" rx="2.41341" fill="white" fill-opacity="0.7" style="mix-blend-mode:soft-light"/>
<path d="M72.7271 307.088C72.7271 306.36 73.3172 305.77 74.0453 305.77H226.52V308.406H74.0453C73.3172 308.406 72.7271 307.816 72.7271 307.088V307.088Z" fill="white" fill-opacity="0.2"/>
<rect x="72.7271" y="305.77" width="43.0622" height="2.63646" rx="1.31823" fill="white" fill-opacity="0.3"/>
<rect x="72.7271" y="293.466" width="43.0622" height="7.03056" rx="3.51528" fill="white"/>
<rect x="121.062" y="293.466" width="32.5163" height="7.03056" rx="3.51528" fill="white" fill-opacity="0.2"/>
<rect x="158.851" y="293.466" width="48.3351" height="7.03056" rx="3.51528" fill="white" fill-opacity="0.2"/>
<path d="M212.459 296.982C212.459 295.04 214.033 293.466 215.974 293.466H226.52V300.497H215.974C214.033 300.497 212.459 298.923 212.459 296.982V296.982Z" fill="white" fill-opacity="0.2"/>
<rect x="83.2734" y="386.621" width="121.277" height="5.27292" rx="2.63646" fill="white" fill-opacity="0.7" style="mix-blend-mode:soft-light"/>
<rect x="83.2734" y="398.046" width="63.275" height="5.27292" rx="2.63646" fill="white" fill-opacity="0.7" style="mix-blend-mode:soft-light"/>
<rect x="72.8046" y="322.994" width="141.587" height="91.7095" rx="6.62832" stroke="white" stroke-width="0.804469"/>
<rect x="83.2734" y="333.013" width="43.941" height="43.941" rx="7.03056" fill="#4C4C4C"/>
<rect x="134.245" y="358.499" width="61.5174" height="5.27292" rx="2.63646" fill="white"/>
<rect x="134.245" y="334.771" width="24.6069" height="9.66701" rx="4.83351" fill="#AB001F"/>
<rect x="134.245" y="369.924" width="32.5163" height="5.27292" rx="2.63646" fill="white"/>
<mask id="mask0_3470_2505" style="mask-type:alpha" maskUnits="userSpaceOnUse" x="71" y="411" width="144" height="59">
<rect x="71.5977" y="411.888" width="143.196" height="57.7609" fill="#D9D9D9"/>
</mask>
<g mask="url(#mask0_3470_2505)">
<rect x="72.8046" y="421.944" width="141.587" height="91.7095" rx="6.62832" stroke="white" stroke-width="0.804469"/>
<rect x="83.2734" y="431.963" width="43.941" height="43.941" rx="7.03056" fill="#4C4C4C"/>
<rect x="134.245" y="457.449" width="61.5174" height="5.27292" rx="2.63646" fill="white"/>
<rect x="134.245" y="433.72" width="24.6069" height="9.66701" rx="4.83351" fill="#AB001F"/>
</g>
<rect x="383.329" y="333.453" width="141.587" height="145.609" rx="6.62832" fill="#E8E8E8" stroke="white" stroke-width="0.804469"/>
<rect x="392.581" y="342.704" width="122.279" height="62.7486" rx="4.82682" fill="white"/>
<rect x="392.581" y="440.849" width="42.6369" height="5.63128" rx="2.81564" fill="#ACACAC" fill-opacity="0.7"/>
<rect x="392.581" y="452.112" width="90.905" height="5.63128" rx="2.81564" fill="#ACACAC" fill-opacity="0.7"/>
<rect x="392.581" y="463.374" width="90.905" height="5.63128" rx="2.81564" fill="#ACACAC" fill-opacity="0.7"/>
<rect x="392.581" y="415.106" width="105.385" height="5.63128" rx="2.81564" fill="#4E4E4E"/>
<rect x="392.581" y="426.369" width="52.2905" height="5.63128" rx="2.81564" fill="#4E4E4E"/>
<rect x="400.625" y="350.749" width="28.9609" height="11.2626" rx="5.63128" fill="#AB001F"/>
<g filter="url(#filter1_d_3470_2505)">
<rect x="331.441" y="209.966" width="82.0559" height="28.9609" rx="14.4804" fill="#E3E3E3"/>
<rect x="345.922" y="222.034" width="53.095" height="4.82682" rx="2.41341" fill="white" style="mix-blend-mode:soft-light"/>
</g>
<rect x="310.123" y="94.5251" width="214.793" height="160.089" rx="23.3259" stroke="#626262" stroke-width="0.804469" stroke-dasharray="1.76 3.52"/>
<path d="M146.907 241.835C146.736 242.006 146.736 242.284 146.907 242.456L149.704 245.252C149.875 245.424 150.153 245.424 150.325 245.252C150.497 245.081 150.497 244.803 150.325 244.631L147.839 242.145L150.325 239.66C150.497 239.488 150.497 239.21 150.325 239.038C150.153 238.867 149.875 238.867 149.704 239.038L146.907 241.835ZM332.176 225.251C332.176 223.957 331.127 222.908 329.833 222.908C328.538 222.908 327.489 223.957 327.489 225.251C327.489 226.546 328.538 227.595 329.833 227.595C331.127 227.595 332.176 226.546 332.176 225.251ZM287.196 225.251L287.196 225.691L287.196 225.251ZM274.324 242.145L274.324 241.706L274.324 242.145ZM274.324 241.706L147.218 241.706L147.218 242.585L274.324 242.585L274.324 241.706ZM281.199 235.709L281.199 231.687L280.32 231.687L280.32 235.709L281.199 235.709ZM287.196 225.691L329.833 225.691L329.833 224.812L287.196 224.812L287.196 225.691ZM281.199 231.687C281.199 228.375 283.884 225.691 287.196 225.691L287.196 224.812C283.399 224.812 280.32 227.89 280.32 231.687L281.199 231.687ZM274.324 242.585C278.121 242.585 281.199 239.507 281.199 235.709L280.32 235.709C280.32 239.021 277.636 241.706 274.324 241.706L274.324 242.585Z" fill="white"/>
<circle cx="429.892" cy="224.231" r="2.19705" fill="#D9D9D9"/>
<circle cx="438.68" cy="224.231" r="2.19705" fill="#D9D9D9" fill-opacity="0.2"/>
<circle cx="447.468" cy="224.231" r="2.19705" fill="#D9D9D9" fill-opacity="0.2"/>
<circle cx="456.257" cy="224.231" r="2.19705" fill="#D9D9D9" fill-opacity="0.2"/>
<circle cx="465.045" cy="224.231" r="2.19705" fill="#D9D9D9" fill-opacity="0.2"/>
<path d="M445.746 238.927C445.746 240.222 446.795 241.271 448.09 241.271C449.384 241.271 450.433 240.222 450.433 238.927C450.433 237.633 449.384 236.584 448.09 236.584C446.795 236.584 445.746 237.633 445.746 238.927ZM147.712 278.84C147.54 279.012 147.54 279.29 147.712 279.462L150.508 282.258C150.68 282.43 150.958 282.43 151.13 282.258C151.301 282.086 151.301 281.808 151.13 281.637L148.644 279.151L151.13 276.665C151.301 276.494 151.301 276.215 151.13 276.044C150.958 275.872 150.68 275.872 150.508 276.044L147.712 278.84ZM447.65 238.927V272.715H448.529V238.927H447.65ZM441.654 278.711H148.022V279.59H441.654V278.711ZM447.65 272.715C447.65 276.027 444.965 278.711 441.654 278.711V279.59C445.451 279.59 448.529 276.512 448.529 272.715H447.65Z" fill="white"/>
<path d="M378.17 344.313C378.17 345.607 379.22 346.656 380.514 346.656C381.808 346.656 382.857 345.607 382.857 344.313C382.857 343.019 381.808 341.969 380.514 341.969C379.22 341.969 378.17 343.019 378.17 344.313ZM199.198 344.002C199.026 344.174 199.026 344.452 199.198 344.624L201.994 347.42C202.166 347.592 202.444 347.592 202.615 347.42C202.787 347.248 202.787 346.97 202.615 346.799L200.13 344.313L202.615 341.827C202.787 341.656 202.787 341.377 202.615 341.206C202.444 341.034 202.166 341.034 201.994 341.206L199.198 344.002ZM380.514 343.873H199.508V344.752H380.514V343.873Z" fill="white"/>
<path d="M391.846 157.676C391.846 158.97 392.896 160.019 394.19 160.019C395.484 160.019 396.533 158.97 396.533 157.676C396.533 156.382 395.484 155.332 394.19 155.332C392.896 155.332 391.846 156.382 391.846 157.676ZM237.008 187.131C236.836 187.302 236.836 187.58 237.008 187.752L239.804 190.548C239.976 190.72 240.254 190.72 240.425 190.548C240.597 190.377 240.597 190.099 240.425 189.927L237.94 187.441L240.425 184.956C240.597 184.784 240.597 184.506 240.425 184.334C240.254 184.163 239.976 184.163 239.804 184.334L237.008 187.131ZM393.75 157.676V180.411H394.629V157.676H393.75ZM387.159 187.002H237.318V187.881H387.159V187.002ZM393.75 180.411C393.75 184.051 390.8 187.002 387.159 187.002V187.881C391.285 187.881 394.629 184.536 394.629 180.411H393.75Z" fill="white"/>
<circle cx="350.433" cy="134.549" r="19.334" fill="#D9D9D9"/>
<g filter="url(#filter2_d_3470_2505)">
<circle cx="394.374" cy="134.549" r="19.334" fill="#AB001F"/>
<circle cx="394.374" cy="134.549" r="18.5296" stroke="white" stroke-opacity="0.2" stroke-width="1.60894"/>
</g>
<path d="M387.344 134.182L392.285 138.943L401.405 130.154" stroke="white" stroke-width="2.63646" stroke-linecap="round"/>
<circle cx="438.315" cy="134.549" r="19.334" fill="#95001B"/>
<circle cx="482.256" cy="134.549" r="19.334" fill="#6B0013"/>
<path d="M213.185 415.106H247.777C251.331 415.106 254.213 412.225 254.213 408.67V386.95" stroke="#626262" stroke-width="0.804469" stroke-dasharray="1.76 3.52"/>
<path d="M213.185 422.346H247.777C251.331 422.346 254.213 425.228 254.213 428.782V450.503" stroke="#626262" stroke-width="0.804469" stroke-dasharray="1.76 3.52"/>
<path d="M261.737 386.665C261.58 386.508 261.325 386.508 261.168 386.665L258.608 389.225C258.451 389.382 258.451 389.637 258.608 389.794C258.765 389.951 259.02 389.951 259.177 389.794L261.453 387.519L263.728 389.794C263.885 389.951 264.14 389.951 264.297 389.794C264.454 389.637 264.454 389.382 264.297 389.225L261.737 386.665ZM261.168 450.787C261.325 450.944 261.58 450.944 261.737 450.787L264.297 448.227C264.454 448.07 264.454 447.816 264.297 447.659C264.14 447.501 263.885 447.501 263.728 447.659L261.453 449.934L259.177 447.659C259.02 447.501 258.765 447.501 258.608 447.659C258.451 447.816 258.451 448.07 258.608 448.227L261.168 450.787ZM261.05 386.95V450.503H261.855V386.95H261.05Z" fill="white"/>
<g filter="url(#filter3_d_3470_2505)">
<circle cx="303.285" cy="343.508" r="19.3073" fill="#6E6E6E"/>
<circle cx="303.285" cy="343.508" r="18.8246" stroke="white" stroke-opacity="0.1" stroke-width="0.965363"/>
</g>
<path d="M303.285 353.162C297.953 353.162 293.631 348.84 293.631 343.508C293.631 338.177 297.953 333.855 303.285 333.855C308.617 333.855 312.939 338.177 312.939 343.508C312.939 348.84 308.617 353.162 303.285 353.162ZM307.938 348.409C309.103 347.304 309.837 345.821 310.008 344.224C310.18 342.628 309.777 341.023 308.872 339.696C307.967 338.37 306.62 337.409 305.071 336.986C303.522 336.562 301.873 336.704 300.42 337.386L301.361 339.08C302.096 338.761 302.898 338.63 303.696 338.698C304.494 338.766 305.263 339.032 305.932 339.471C306.602 339.91 307.152 340.509 307.532 341.214C307.913 341.919 308.112 342.707 308.112 343.508H305.216L307.938 348.409ZM306.15 349.631L305.209 347.937C304.474 348.256 303.672 348.387 302.874 348.319C302.076 348.251 301.307 347.985 300.638 347.546C299.968 347.106 299.418 346.507 299.038 345.803C298.657 345.098 298.458 344.309 298.458 343.508H301.354L298.632 338.608C297.467 339.713 296.733 341.196 296.562 342.792C296.39 344.389 296.793 345.994 297.698 347.32C298.603 348.647 299.95 349.608 301.499 350.031C303.048 350.454 304.697 350.313 306.15 349.631Z" fill="white"/>
<g filter="url(#filter4_d_3470_2505)">
<path d="M207.553 188.595L212.38 194.628H202.726L207.553 188.595Z" fill="#FEE0BC"/>
<rect x="184.399" y="194.628" width="46.3073" height="26.6536" rx="3.21788" fill="#FEE0BC"/>
<path d="M201.242 210.393L201.149 213.115H199.915V211.455H199.422V210.393H201.242ZM194.746 211.455V204.434H195.966V210.399H199.12V204.434H200.351V211.455H194.746ZM202.223 211.455V206.19H204.434C205.058 206.19 205.551 206.314 205.912 206.563C206.275 206.812 206.457 207.16 206.457 207.606C206.457 207.9 206.354 208.141 206.149 208.329C205.945 208.514 205.667 208.639 205.316 208.703C205.592 208.725 205.834 208.795 206.042 208.912C206.253 209.028 206.417 209.181 206.536 209.371C206.655 209.561 206.714 209.779 206.714 210.026C206.714 210.316 206.638 210.569 206.485 210.783C206.334 210.996 206.113 211.162 205.823 211.28C205.535 211.397 205.185 211.455 204.774 211.455H202.223ZM203.385 210.478H204.774C205.002 210.478 205.182 210.425 205.312 210.317C205.442 210.207 205.507 210.059 205.507 209.872C205.507 209.654 205.442 209.484 205.312 209.361C205.182 209.235 205.002 209.172 204.774 209.172H203.385V210.478ZM203.385 208.37H204.458C204.628 208.37 204.773 208.346 204.894 208.298C205.015 208.248 205.108 208.178 205.172 208.089C205.236 207.997 205.268 207.889 205.268 207.763C205.268 207.583 205.193 207.441 205.045 207.338C204.898 207.235 204.695 207.184 204.434 207.184H203.385V208.37ZM210.069 211.558C209.542 211.558 209.086 211.448 208.702 211.229C208.32 211.007 208.026 210.694 207.821 210.29C207.615 209.883 207.512 209.404 207.512 208.853C207.512 208.312 207.615 207.836 207.821 207.427C208.029 207.016 208.319 206.696 208.691 206.467C209.064 206.237 209.502 206.121 210.004 206.121C210.329 206.121 210.635 206.174 210.923 206.279C211.213 206.382 211.469 206.542 211.691 206.759C211.915 206.976 212.091 207.252 212.219 207.588C212.347 207.922 212.411 208.32 212.411 208.781V209.162H208.095V208.325H211.221C211.219 208.088 211.168 207.876 211.067 207.691C210.967 207.504 210.826 207.356 210.645 207.249C210.467 207.142 210.259 207.088 210.021 207.088C209.768 207.088 209.545 207.15 209.353 207.273C209.161 207.394 209.011 207.554 208.904 207.753C208.799 207.949 208.745 208.165 208.743 208.401V209.131C208.743 209.437 208.799 209.7 208.911 209.92C209.023 210.137 209.179 210.303 209.38 210.42C209.582 210.534 209.817 210.591 210.087 210.591C210.267 210.591 210.431 210.566 210.577 210.516C210.723 210.463 210.85 210.387 210.957 210.286C211.065 210.186 211.146 210.061 211.201 209.913L212.359 210.043C212.286 210.349 212.147 210.617 211.941 210.845C211.738 211.071 211.477 211.247 211.16 211.373C210.842 211.496 210.479 211.558 210.069 211.558ZM213.022 207.208V206.19H217.629V207.208H215.926V211.455H214.726V207.208H213.022ZM220.136 204.434L220.023 209.392H218.919L218.81 204.434H220.136ZM219.471 211.531C219.263 211.531 219.085 211.458 218.936 211.311C218.79 211.165 218.717 210.987 218.717 210.777C218.717 210.571 218.79 210.395 218.936 210.249C219.085 210.102 219.263 210.029 219.471 210.029C219.675 210.029 219.851 210.102 219.999 210.249C220.15 210.395 220.225 210.571 220.225 210.777C220.225 210.916 220.19 211.043 220.119 211.157C220.05 211.271 219.959 211.363 219.845 211.431C219.733 211.498 219.608 211.531 219.471 211.531Z" fill="#313741"/>
</g>
<g filter="url(#filter5_d_3470_2505)">
<rect x="40.5112" y="228.818" width="86.3073" height="26.6536" rx="3.21788" fill="#FEE0BC"/>
<path d="M56.867 240.993H55.5849C55.5484 240.783 55.4809 240.597 55.3827 240.434C55.2844 240.27 55.1621 240.131 55.0159 240.016C54.8696 239.902 54.7027 239.816 54.5153 239.759C54.3302 239.7 54.1302 239.67 53.9154 239.67C53.5338 239.67 53.1955 239.766 52.9007 239.958C52.6059 240.148 52.375 240.426 52.2082 240.794C52.0414 241.16 51.958 241.607 51.958 242.135C51.958 242.672 52.0414 243.124 52.2082 243.492C52.3773 243.858 52.6082 244.135 52.9007 244.322C53.1955 244.507 53.5326 244.6 53.912 244.6C54.1223 244.6 54.3188 244.572 54.5016 244.517C54.6868 244.46 54.8524 244.377 54.9987 244.267C55.1473 244.157 55.2718 244.023 55.3724 243.863C55.4752 243.703 55.5461 243.52 55.5849 243.314L56.867 243.321C56.8191 243.655 56.7151 243.968 56.5551 244.26C56.3974 244.553 56.1906 244.811 55.9346 245.035C55.6786 245.257 55.3792 245.43 55.0364 245.556C54.6936 245.68 54.3131 245.741 53.8949 245.741C53.2778 245.741 52.727 245.598 52.2425 245.313C51.758 245.027 51.3763 244.615 51.0975 244.075C50.8187 243.536 50.6793 242.889 50.6793 242.135C50.6793 241.378 50.8198 240.732 51.1009 240.195C51.382 239.655 51.7648 239.243 52.2493 238.957C52.7339 238.671 53.2824 238.528 53.8949 238.528C54.2857 238.528 54.649 238.583 54.985 238.693C55.321 238.803 55.6203 238.964 55.8832 239.176C56.146 239.387 56.362 239.645 56.5311 239.951C56.7025 240.255 56.8145 240.602 56.867 240.993ZM57.7232 239.691V238.624H63.3248V239.691H61.1548V245.645H59.8932V239.691H57.7232ZM64.4578 245.645H63.1003L65.5719 238.624H67.142L69.6171 245.645H68.2596L66.3844 240.064H66.3296L64.4578 245.645ZM64.5024 242.892H68.2047V243.914H64.5024V242.892ZM74.3968 245.752C74.0631 245.752 73.7626 245.692 73.4952 245.573C73.2301 245.452 73.0199 245.274 72.8644 245.038C72.7113 244.803 72.6348 244.513 72.6348 244.168C72.6348 243.871 72.6896 243.625 72.7993 243.431C72.909 243.236 73.0587 243.081 73.2484 242.964C73.4381 242.848 73.6518 242.76 73.8895 242.7C74.1294 242.639 74.3774 242.594 74.6334 242.567C74.9419 242.535 75.1921 242.506 75.3841 242.481C75.5761 242.454 75.7155 242.413 75.8024 242.358C75.8915 242.301 75.9361 242.213 75.9361 242.094V242.073C75.9361 241.815 75.8595 241.615 75.7064 241.473C75.5532 241.332 75.3327 241.261 75.0447 241.261C74.7408 241.261 74.4997 241.327 74.3214 241.459C74.1454 241.592 74.0266 241.749 73.9649 241.929L72.8062 241.765C72.8976 241.445 73.0484 241.177 73.2587 240.962C73.4689 240.745 73.726 240.583 74.03 240.476C74.334 240.366 74.6699 240.311 75.0379 240.311C75.2916 240.311 75.5441 240.341 75.7955 240.4C76.0469 240.46 76.2766 240.558 76.4846 240.695C76.6925 240.83 76.8594 241.014 76.9851 241.247C77.113 241.48 77.177 241.771 77.177 242.121V245.645H75.984V244.922H75.9429C75.8675 245.068 75.7612 245.205 75.6241 245.333C75.4893 245.459 75.319 245.561 75.1133 245.638C74.9099 245.714 74.6711 245.752 74.3968 245.752ZM74.7191 244.84C74.9682 244.84 75.1841 244.791 75.367 244.692C75.5498 244.592 75.6904 244.459 75.7886 244.295C75.8892 244.13 75.9395 243.951 75.9395 243.756V243.136C75.9006 243.168 75.8344 243.198 75.7406 243.225C75.6492 243.252 75.5464 243.276 75.4321 243.297C75.3178 243.318 75.2047 243.336 75.0927 243.352C74.9807 243.368 74.8836 243.382 74.8013 243.393C74.6162 243.418 74.4505 243.459 74.3043 243.516C74.158 243.574 74.0426 243.654 73.958 243.756C73.8735 243.857 73.8312 243.987 73.8312 244.147C73.8312 244.376 73.9146 244.548 74.0814 244.665C74.2483 244.781 74.4608 244.84 74.7191 244.84ZM78.4249 245.645V240.38H79.6659V242.505H80.1184L81.7022 240.38H83.1968L81.2462 242.964L83.2174 245.645H81.7159L80.2726 243.66H79.6659V245.645H78.4249ZM83.6331 241.398V240.38H88.2405V241.398H86.5367V245.645H85.3369V241.398H83.6331ZM90.4251 243.965L92.5334 240.38H93.8086V245.645H92.6088V242.056L90.5073 245.645H89.2286V240.38H90.4251V243.965ZM95.083 245.645V240.38H97.2942C97.9181 240.38 98.4106 240.504 98.7717 240.753C99.1351 241.002 99.3168 241.35 99.3168 241.795C99.3168 242.09 99.214 242.331 99.0083 242.519C98.8049 242.704 98.5272 242.828 98.1752 242.892C98.4518 242.915 98.694 242.985 98.902 243.102C99.1123 243.218 99.2768 243.371 99.3956 243.561C99.5145 243.751 99.5739 243.969 99.5739 244.216C99.5739 244.506 99.4973 244.759 99.3442 244.973C99.1934 245.186 98.9728 245.352 98.6826 245.47C98.3946 245.587 98.045 245.645 97.6336 245.645H95.083ZM96.2452 244.668H97.6336C97.8621 244.668 98.0415 244.615 98.1718 244.507C98.3021 244.397 98.3672 244.249 98.3672 244.061C98.3672 243.844 98.3021 243.674 98.1718 243.551C98.0415 243.425 97.8621 243.362 97.6336 243.362H96.2452V244.668ZM96.2452 242.56H97.3182C97.4873 242.56 97.6324 242.536 97.7536 242.488C97.8747 242.438 97.9673 242.368 98.0312 242.279C98.0952 242.187 98.1272 242.079 98.1272 241.953C98.1272 241.773 98.053 241.631 97.9044 241.528C97.7581 241.425 97.5547 241.374 97.2942 241.374H96.2452V242.56ZM104.215 242.498V243.516H101.411V242.498H104.215ZM101.794 240.38V245.645H100.598V240.38H101.794ZM105.027 240.38V245.645H103.834V240.38H105.027ZM108.614 245.748C108.086 245.748 107.63 245.638 107.246 245.419C106.864 245.197 106.571 244.884 106.365 244.48C106.159 244.073 106.057 243.594 106.057 243.043C106.057 242.502 106.159 242.026 106.365 241.617C106.573 241.206 106.863 240.886 107.236 240.657C107.608 240.426 108.046 240.311 108.549 240.311C108.873 240.311 109.18 240.364 109.468 240.469C109.758 240.572 110.014 240.732 110.235 240.949C110.459 241.166 110.635 241.442 110.763 241.778C110.891 242.112 110.955 242.51 110.955 242.971V243.352H106.639V242.515H109.766C109.763 242.278 109.712 242.066 109.611 241.881C109.511 241.694 109.37 241.546 109.19 241.439C109.012 241.332 108.804 241.278 108.566 241.278C108.312 241.278 108.089 241.34 107.897 241.463C107.705 241.584 107.556 241.744 107.448 241.943C107.343 242.139 107.289 242.355 107.287 242.591V243.321C107.287 243.627 107.343 243.89 107.455 244.109C107.567 244.327 107.724 244.493 107.925 244.61C108.126 244.724 108.361 244.781 108.631 244.781C108.812 244.781 108.975 244.756 109.121 244.706C109.268 244.653 109.394 244.577 109.502 244.476C109.609 244.376 109.69 244.251 109.745 244.103L110.904 244.233C110.831 244.539 110.691 244.807 110.486 245.035C110.282 245.261 110.022 245.437 109.704 245.563C109.386 245.686 109.023 245.748 108.614 245.748ZM114.336 245.748C113.808 245.748 113.352 245.638 112.968 245.419C112.587 245.197 112.293 244.884 112.087 244.48C111.882 244.073 111.779 243.594 111.779 243.043C111.779 242.502 111.882 242.026 112.087 241.617C112.295 241.206 112.586 240.886 112.958 240.657C113.331 240.426 113.768 240.311 114.271 240.311C114.596 240.311 114.902 240.364 115.19 240.469C115.48 240.572 115.736 240.732 115.958 240.949C116.182 241.166 116.358 241.442 116.486 241.778C116.614 242.112 116.678 242.51 116.678 242.971V243.352H112.362V242.515H115.488C115.486 242.278 115.434 242.066 115.334 241.881C115.233 241.694 115.093 241.546 114.912 241.439C114.734 241.332 114.526 241.278 114.288 241.278C114.035 241.278 113.812 241.34 113.62 241.463C113.428 241.584 113.278 241.744 113.171 241.943C113.066 242.139 113.012 242.355 113.01 242.591V243.321C113.01 243.627 113.066 243.89 113.178 244.109C113.29 244.327 113.446 244.493 113.647 244.61C113.848 244.724 114.084 244.781 114.353 244.781C114.534 244.781 114.697 244.756 114.844 244.706C114.99 244.653 115.117 244.577 115.224 244.476C115.332 244.376 115.413 244.251 115.468 244.103L116.626 244.233C116.553 244.539 116.414 244.807 116.208 245.035C116.005 245.261 115.744 245.437 115.426 245.563C115.109 245.686 114.745 245.748 114.336 245.748Z" fill="#313741"/>
<path d="M132.852 242.145L126.819 246.972L126.819 237.318L132.852 242.145Z" fill="#FEE0BC"/>
</g>
<g filter="url(#filter6_d_3470_2505)">
<rect x="290.581" y="453.265" width="79.3073" height="26.6536" rx="3.21788" fill="#FEE0BC"/>
<path d="M305.134 470.092L302.823 467.024H302.199V470.092H300.927V463.071H302.199V465.958H302.518L305.014 463.071H306.58L303.807 466.273L306.7 470.092H305.134ZM309.42 470.195C308.905 470.195 308.46 470.082 308.083 469.856C307.706 469.629 307.413 469.313 307.205 468.906C306.999 468.499 306.897 468.024 306.897 467.48C306.897 466.936 306.999 466.459 307.205 466.05C307.413 465.641 307.706 465.324 308.083 465.097C308.46 464.871 308.905 464.758 309.42 464.758C309.934 464.758 310.38 464.871 310.757 465.097C311.134 465.324 311.425 465.641 311.631 466.05C311.839 466.459 311.943 466.936 311.943 467.48C311.943 468.024 311.839 468.499 311.631 468.906C311.425 469.313 311.134 469.629 310.757 469.856C310.38 470.082 309.934 470.195 309.42 470.195ZM309.427 469.201C309.705 469.201 309.938 469.124 310.126 468.971C310.313 468.816 310.453 468.608 310.544 468.347C310.638 468.087 310.685 467.796 310.685 467.477C310.685 467.154 310.638 466.863 310.544 466.602C310.453 466.34 310.313 466.13 310.126 465.975C309.938 465.82 309.705 465.742 309.427 465.742C309.141 465.742 308.903 465.82 308.714 465.975C308.526 466.13 308.386 466.34 308.292 466.602C308.2 466.863 308.155 467.154 308.155 467.477C308.155 467.796 308.2 468.087 308.292 468.347C308.386 468.608 308.526 468.816 308.714 468.971C308.903 469.124 309.141 469.201 309.427 469.201ZM316.027 468.649L317.59 464.827H318.591L316.462 470.092H315.595L313.514 464.827H314.504L316.027 468.649ZM314.193 464.827V470.092H312.996V464.827H314.193ZM317.912 470.092V464.827H319.098V470.092H317.912ZM320.349 470.092V464.827H324.796V470.092H323.599V465.845H321.536V470.092H320.349ZM328.369 470.195C327.854 470.195 327.409 470.082 327.032 469.856C326.655 469.629 326.362 469.313 326.154 468.906C325.948 468.499 325.846 468.024 325.846 467.48C325.846 466.936 325.948 466.459 326.154 466.05C326.362 465.641 326.655 465.324 327.032 465.097C327.409 464.871 327.854 464.758 328.369 464.758C328.883 464.758 329.329 464.871 329.706 465.097C330.083 465.324 330.374 465.641 330.58 466.05C330.788 466.459 330.892 466.936 330.892 467.48C330.892 468.024 330.788 468.499 330.58 468.906C330.374 469.313 330.083 469.629 329.706 469.856C329.329 470.082 328.883 470.195 328.369 470.195ZM328.376 469.201C328.654 469.201 328.888 469.124 329.075 468.971C329.262 468.816 329.402 468.608 329.493 468.347C329.587 468.087 329.634 467.796 329.634 467.477C329.634 467.154 329.587 466.863 329.493 466.602C329.402 466.34 329.262 466.13 329.075 465.975C328.888 465.82 328.654 465.742 328.376 465.742C328.09 465.742 327.852 465.82 327.663 465.975C327.475 466.13 327.335 466.34 327.241 466.602C327.149 466.863 327.104 467.154 327.104 467.477C327.104 467.796 327.149 468.087 327.241 468.347C327.335 468.608 327.475 468.816 327.663 468.971C327.852 469.124 328.09 469.201 328.376 469.201ZM331.654 468.649H332.884C332.896 468.845 332.984 468.997 333.148 469.105C333.313 469.212 333.527 469.266 333.789 469.266C334.057 469.266 334.282 469.208 334.465 469.091C334.65 468.972 334.742 468.793 334.742 468.553C334.742 468.411 334.707 468.287 334.636 468.179C334.565 468.07 334.466 467.985 334.338 467.926C334.21 467.866 334.059 467.836 333.885 467.836H333.08V466.955H333.885C334.144 466.955 334.339 466.896 334.472 466.777C334.606 466.658 334.674 466.509 334.674 466.328C334.674 466.134 334.603 465.976 334.461 465.855C334.322 465.734 334.129 465.673 333.882 465.673C333.635 465.673 333.43 465.729 333.265 465.841C333.103 465.953 333.018 466.097 333.011 466.273H331.787C331.792 465.967 331.883 465.701 332.062 465.474C332.242 465.248 332.484 465.072 332.788 464.947C333.095 464.821 333.44 464.758 333.824 464.758C334.235 464.758 334.591 464.82 334.89 464.943C335.189 465.067 335.42 465.239 335.582 465.461C335.745 465.68 335.826 465.938 335.826 466.236C335.826 466.521 335.737 466.758 335.558 466.945C335.38 467.13 335.14 467.263 334.838 467.343V467.398C335.046 467.409 335.234 467.469 335.401 467.576C335.568 467.681 335.7 467.824 335.798 468.004C335.897 468.185 335.946 468.394 335.946 468.632C335.946 468.954 335.853 469.233 335.668 469.468C335.483 469.701 335.228 469.881 334.904 470.006C334.581 470.132 334.212 470.195 333.796 470.195C333.392 470.195 333.03 470.134 332.71 470.013C332.392 469.89 332.139 469.713 331.952 469.482C331.765 469.251 331.665 468.973 331.654 468.649ZM338.119 468.412L340.227 464.827H341.503V470.092H340.303V466.503L338.201 470.092H336.923V464.827H338.119V468.412ZM347.223 464.827V469.167H348.029V471.786H346.816V470.092H342.777V464.827H343.974V469.074H346.037V464.827H347.223ZM350.243 468.412L352.351 464.827H353.626V470.092H352.427V466.503L350.325 470.092H349.046V464.827H350.243V468.412ZM358.014 470.092V465.834H356.889C356.603 465.834 356.384 465.901 356.231 466.033C356.078 466.166 356.002 466.33 356.005 466.527C356.002 466.723 356.074 466.886 356.221 467.014C356.367 467.142 356.576 467.206 356.848 467.206H358.404V468.111H356.848C356.427 468.111 356.064 468.044 355.758 467.912C355.452 467.779 355.216 467.592 355.052 467.35C354.887 467.107 354.805 466.824 354.805 466.499C354.805 466.161 354.888 465.868 355.055 465.618C355.224 465.367 355.464 465.173 355.775 465.036C356.088 464.896 356.459 464.827 356.889 464.827H359.176V470.092H358.014ZM354.613 470.092L356.083 467.391H357.307L355.833 470.092H354.613Z" fill="#313741"/>
<path d="M375.922 466.592L369.888 471.419L369.888 461.765L375.922 466.592Z" fill="#FEE0BC"/>
</g>
<g filter="url(#filter7_d_3470_2505)">
<rect x="485.956" y="292.372" width="39.3073" height="26.6536" rx="6.43575" fill="#FEE0BC"/>
<path d="M498.955 302.959H500.374C500.923 302.959 501.41 303.077 501.835 303.312C502.26 303.548 502.594 303.879 502.836 304.306C503.078 304.731 503.199 305.23 503.199 305.801C503.199 306.359 503.078 306.847 502.836 307.265C502.594 307.683 502.26 308.009 501.835 308.242C501.41 308.473 500.923 308.588 500.374 308.588H498.955C498.404 308.588 497.915 308.474 497.488 308.245C497.063 308.014 496.729 307.69 496.487 307.272C496.245 306.853 496.124 306.364 496.124 305.804C496.124 305.233 496.246 304.735 496.49 304.31C496.735 303.882 497.07 303.551 497.495 303.316C497.922 303.078 498.409 302.959 498.955 302.959ZM498.955 304.036C498.622 304.036 498.332 304.104 498.088 304.241C497.846 304.376 497.658 304.575 497.526 304.838C497.393 305.101 497.327 305.423 497.327 305.804C497.327 306.17 497.393 306.48 497.526 306.733C497.661 306.987 497.85 307.18 498.095 307.313C498.339 307.445 498.626 307.512 498.955 307.512H500.378C500.709 307.512 500.995 307.445 501.235 307.313C501.477 307.178 501.663 306.984 501.794 306.73C501.926 306.474 501.993 306.164 501.993 305.801C501.993 305.424 501.926 305.104 501.794 304.841C501.663 304.578 501.477 304.378 501.235 304.241C500.995 304.104 500.709 304.036 500.378 304.036H498.955ZM500.278 302.054V309.486H499.055V302.054H500.278ZM506.651 309.301C506.137 309.301 505.692 309.188 505.314 308.962C504.937 308.736 504.645 308.419 504.437 308.012C504.231 307.605 504.128 307.13 504.128 306.586C504.128 306.042 504.231 305.566 504.437 305.157C504.645 304.747 504.937 304.43 505.314 304.204C505.692 303.977 506.137 303.864 506.651 303.864C507.166 303.864 507.611 303.977 507.988 304.204C508.365 304.43 508.657 304.747 508.863 305.157C509.071 305.566 509.175 306.042 509.175 306.586C509.175 307.13 509.071 307.605 508.863 308.012C508.657 308.419 508.365 308.736 507.988 308.962C507.611 309.188 507.166 309.301 506.651 309.301ZM506.658 308.307C506.937 308.307 507.17 308.23 507.358 308.077C507.545 307.922 507.684 307.714 507.776 307.453C507.87 307.193 507.916 306.903 507.916 306.583C507.916 306.26 507.87 305.969 507.776 305.708C507.684 305.446 507.545 305.237 507.358 305.081C507.17 304.926 506.937 304.848 506.658 304.848C506.373 304.848 506.135 304.926 505.945 305.081C505.758 305.237 505.617 305.446 505.524 305.708C505.432 305.969 505.386 306.26 505.386 306.583C505.386 306.903 505.432 307.193 505.524 307.453C505.617 307.714 505.758 307.922 505.945 308.077C506.135 308.23 506.373 308.307 506.658 308.307ZM513.844 306.051V307.069H511.04V306.051H513.844ZM511.424 303.933V309.198H510.228V303.933H511.424ZM514.657 303.933V309.198H513.464V303.933H514.657Z" fill="#313741"/>
<path d="M505.609 325.059L500.782 319.025L510.436 319.025L505.609 325.059Z" fill="#FEE0BC"/>
</g>
<path d="M275.825 420.35V415.606H276.902V420.35H275.825ZM273.991 418.516V417.44H278.736V418.516H273.991ZM282.504 420.172V419.161L285.483 414.454H286.327V415.894H285.812L283.807 419.072V419.127H287.965V420.172H282.504ZM285.854 421.475V419.864L285.867 419.411V414.454H287.067V421.475H285.854ZM291.469 423.449V416.209H292.689V417.08H292.761C292.825 416.952 292.916 416.816 293.032 416.672C293.149 416.526 293.306 416.401 293.505 416.298C293.704 416.193 293.958 416.141 294.266 416.141C294.673 416.141 295.04 416.245 295.367 416.453C295.696 416.658 295.956 416.963 296.148 417.368C296.343 417.77 296.44 418.264 296.44 418.849C296.44 419.427 296.345 419.918 296.155 420.323C295.965 420.728 295.707 421.036 295.38 421.249C295.054 421.461 294.683 421.567 294.27 421.567C293.968 421.567 293.718 421.517 293.519 421.417C293.32 421.316 293.16 421.195 293.039 421.053C292.92 420.909 292.828 420.773 292.761 420.645H292.71V423.449H291.469ZM292.686 418.842C292.686 419.183 292.734 419.481 292.83 419.737C292.928 419.993 293.069 420.193 293.251 420.337C293.437 420.478 293.661 420.549 293.923 420.549C294.198 420.549 294.427 420.476 294.612 420.33C294.798 420.181 294.937 419.979 295.031 419.723C295.127 419.465 295.175 419.171 295.175 418.842C295.175 418.515 295.128 418.225 295.034 417.971C294.94 417.718 294.801 417.519 294.616 417.375C294.431 417.231 294.2 417.159 293.923 417.159C293.658 417.159 293.433 417.229 293.248 417.368C293.063 417.507 292.922 417.703 292.826 417.954C292.733 418.206 292.686 418.502 292.686 418.842ZM298.319 416.209L299.382 418.153L300.462 416.209H301.775L300.187 418.842L301.802 421.475H300.496L299.382 419.579L298.278 421.475H296.962L298.566 418.842L297.003 416.209H298.319Z" fill="white"/>
</g>
<defs>
<filter id="filter0_b_3470_2505" x="-64.3575" y="-64.3575" width="704.715" height="704.715" filterUnits="userSpaceOnUse" color-interpolation-filters="sRGB">
<feFlood flood-opacity="0" result="BackgroundImageFix"/>
<feGaussianBlur in="BackgroundImageFix" stdDeviation="32.1788"/>
<feComposite in2="SourceAlpha" operator="in" result="effect1_backgroundBlur_3470_2505"/>
<feBlend mode="normal" in="SourceGraphic" in2="effect1_backgroundBlur_3470_2505" result="shape"/>
</filter>
<filter id="filter1_d_3470_2505" x="331.441" y="209.966" width="82.0557" height="32.4762" filterUnits="userSpaceOnUse" color-interpolation-filters="sRGB">
<feFlood flood-opacity="0" result="BackgroundImageFix"/>
<feColorMatrix in="SourceAlpha" type="matrix" values="0 0 0 0 0 0 0 0 0 0 0 0 0 0 0 0 0 0 127 0" result="hardAlpha"/>
<feOffset dy="3.51528"/>
<feComposite in2="hardAlpha" operator="out"/>
<feColorMatrix type="matrix" values="0 0 0 0 0.162435 0 0 0 0 0.162435 0 0 0 0 0.162435 0 0 0 1 0"/>
<feBlend mode="normal" in2="BackgroundImageFix" result="effect1_dropShadow_3470_2505"/>
<feBlend mode="normal" in="SourceGraphic" in2="effect1_dropShadow_3470_2505" result="shape"/>
</filter>
<filter id="filter2_d_3470_2505" x="362.169" y="104.917" width="64.411" height="64.4111" filterUnits="userSpaceOnUse" color-interpolation-filters="sRGB">
<feFlood flood-opacity="0" result="BackgroundImageFix"/>
<feColorMatrix in="SourceAlpha" type="matrix" values="0 0 0 0 0 0 0 0 0 0 0 0 0 0 0 0 0 0 127 0" result="hardAlpha"/>
<feOffset dy="2.5743"/>
<feGaussianBlur stdDeviation="6.43575"/>
<feComposite in2="hardAlpha" operator="out"/>
<feColorMatrix type="matrix" values="0 0 0 0 0.670588 0 0 0 0 0 0 0 0 0 0.121569 0 0 0 1 0"/>
<feBlend mode="normal" in2="BackgroundImageFix" result="effect1_dropShadow_3470_2505"/>
<feBlend mode="normal" in="SourceGraphic" in2="effect1_dropShadow_3470_2505" result="shape"/>
</filter>
<filter id="filter3_d_3470_2505" x="268.532" y="311.844" width="69.5064" height="69.5062" filterUnits="userSpaceOnUse" color-interpolation-filters="sRGB">
<feFlood flood-opacity="0" result="BackgroundImageFix"/>
<feColorMatrix in="SourceAlpha" type="matrix" values="0 0 0 0 0 0 0 0 0 0 0 0 0 0 0 0 0 0 127 0" result="hardAlpha"/>
<feOffset dy="3.08916"/>
<feGaussianBlur stdDeviation="7.72291"/>
<feComposite in2="hardAlpha" operator="out"/>
<feColorMatrix type="matrix" values="0 0 0 0 0.410026 0 0 0 0 0.410026 0 0 0 0 0.410026 0 0 0 0.8 0"/>
<feBlend mode="normal" in2="BackgroundImageFix" result="effect1_dropShadow_3470_2505"/>
<feBlend mode="normal" in="SourceGraphic" in2="effect1_dropShadow_3470_2505" result="shape"/>
</filter>
<filter id="filter4_d_3470_2505" x="165.092" y="169.288" width="84.9217" height="71.3017" filterUnits="userSpaceOnUse" color-interpolation-filters="sRGB">
<feFlood flood-opacity="0" result="BackgroundImageFix"/>
<feColorMatrix in="SourceAlpha" type="matrix" values="0 0 0 0 0 0 0 0 0 0 0 0 0 0 0 0 0 0 127 0" result="hardAlpha"/>
<feOffset/>
<feGaussianBlur stdDeviation="9.65363"/>
<feComposite in2="hardAlpha" operator="out"/>
<feColorMatrix type="matrix" values="0 0 0 0 0.192157 0 0 0 0 0.215686 0 0 0 0 0.254902 0 0 0 0.24 0"/>
<feBlend mode="normal" in2="BackgroundImageFix" result="effect1_dropShadow_3470_2505"/>
<feBlend mode="normal" in="SourceGraphic" in2="effect1_dropShadow_3470_2505" result="shape"/>
</filter>
<filter id="filter5_d_3470_2505" x="21.204" y="209.511" width="130.955" height="65.2682" filterUnits="userSpaceOnUse" color-interpolation-filters="sRGB">
<feFlood flood-opacity="0" result="BackgroundImageFix"/>
<feColorMatrix in="SourceAlpha" type="matrix" values="0 0 0 0 0 0 0 0 0 0 0 0 0 0 0 0 0 0 127 0" result="hardAlpha"/>
<feOffset/>
<feGaussianBlur stdDeviation="9.65363"/>
<feComposite in2="hardAlpha" operator="out"/>
<feColorMatrix type="matrix" values="0 0 0 0 0.192157 0 0 0 0 0.215686 0 0 0 0 0.254902 0 0 0 0.24 0"/>
<feBlend mode="normal" in2="BackgroundImageFix" result="effect1_dropShadow_3470_2505"/>
<feBlend mode="normal" in="SourceGraphic" in2="effect1_dropShadow_3470_2505" result="shape"/>
</filter>
<filter id="filter6_d_3470_2505" x="271.274" y="433.958" width="123.955" height="65.2682" filterUnits="userSpaceOnUse" color-interpolation-filters="sRGB">
<feFlood flood-opacity="0" result="BackgroundImageFix"/>
<feColorMatrix in="SourceAlpha" type="matrix" values="0 0 0 0 0 0 0 0 0 0 0 0 0 0 0 0 0 0 127 0" result="hardAlpha"/>
<feOffset/>
<feGaussianBlur stdDeviation="9.65363"/>
<feComposite in2="hardAlpha" operator="out"/>
<feColorMatrix type="matrix" values="0 0 0 0 0.192157 0 0 0 0 0.215686 0 0 0 0 0.254902 0 0 0 0.24 0"/>
<feBlend mode="normal" in2="BackgroundImageFix" result="effect1_dropShadow_3470_2505"/>
<feBlend mode="normal" in="SourceGraphic" in2="effect1_dropShadow_3470_2505" result="shape"/>
</filter>
<filter id="filter7_d_3470_2505" x="466.648" y="273.064" width="77.9217" height="71.3017" filterUnits="userSpaceOnUse" color-interpolation-filters="sRGB">
<feFlood flood-opacity="0" result="BackgroundImageFix"/>
<feColorMatrix in="SourceAlpha" type="matrix" values="0 0 0 0 0 0 0 0 0 0 0 0 0 0 0 0 0 0 127 0" result="hardAlpha"/>
<feOffset/>
<feGaussianBlur stdDeviation="9.65363"/>
<feComposite in2="hardAlpha" operator="out"/>
<feColorMatrix type="matrix" values="0 0 0 0 0.192157 0 0 0 0 0.215686 0 0 0 0 0.254902 0 0 0 0.24 0"/>
<feBlend mode="normal" in2="BackgroundImageFix" result="effect1_dropShadow_3470_2505"/>
<feBlend mode="normal" in="SourceGraphic" in2="effect1_dropShadow_3470_2505" result="shape"/>
</filter>
<clipPath id="clip0_3470_2505">
<rect width="16.6976" height="16.6976" fill="white" transform="translate(198.397 130.006)"/>
</clipPath>
</defs>
</svg>
