<svg width="300" height="68" viewBox="0 0 300 68" fill="none" xmlns="http://www.w3.org/2000/svg">
<g clip-path="url(#clip0_2343_86801)">
<path fill-rule="evenodd" clip-rule="evenodd" d="M0.519196 33.6926C0.519196 51.9908 16.1705 66.8248 35.4774 66.8248C54.7841 66.8248 70.4358 51.9908 70.4358 33.6926C70.4358 15.3942 54.7841 0.560547 35.4774 0.560547C16.1705 0.560547 0.519196 15.3942 0.519196 33.6926ZM35.4782 59.479C50.5045 59.479 62.6863 47.9342 62.6863 33.6926C62.6863 19.4509 50.5045 7.90589 35.4782 7.90589C20.4516 7.90589 8.27007 19.4509 8.27007 33.6926C8.27007 47.9342 20.4516 59.479 35.4782 59.479Z" fill="#58CEFE"/>
<path fill-rule="evenodd" clip-rule="evenodd" d="M53.3578 33.6928C53.3578 24.3337 45.3526 16.7466 35.4776 16.7466C25.6026 16.7466 17.5973 24.3337 17.5973 33.6928C17.5973 43.052 25.6026 50.6391 35.4776 50.6391C45.3526 50.6391 53.3578 43.052 53.3578 33.6928ZM35.477 43.2262C41.0323 43.2262 45.5357 38.958 45.5357 33.6929C45.5357 28.4278 41.0323 24.1597 35.477 24.1597C29.9217 24.1597 25.4182 28.4278 25.4182 33.6929C25.4182 38.958 29.9217 43.2262 35.477 43.2262Z" fill="#002552"/>
<path d="M92.7053 41.3734H110.918V36.2053H92.7053V20.7009H114.517V15.5328H87.2525V51.7096H92.7053V41.3734ZM126.806 17.8585C126.806 16.153 125.333 14.7576 123.534 14.7576C121.734 14.7576 120.262 16.153 120.262 17.8585C120.262 19.5639 121.734 20.9593 123.534 20.9593C125.333 20.9593 126.806 19.5639 126.806 17.8585ZM120.807 25.869V51.7096H126.26V25.869H120.807ZM132.516 51.7096H146.149C150.675 51.7096 154.328 48.247 154.328 43.9575C154.328 39.6679 150.675 36.2053 146.149 36.2053H140.696C139.169 36.2053 137.969 35.0683 137.969 33.6212C137.969 32.1741 139.169 31.0372 140.696 31.0372H151.111V25.869H140.696C136.17 25.869 132.516 29.3317 132.516 33.6212C132.516 37.9107 136.17 41.3734 140.696 41.3734H146.149C147.675 41.3734 148.875 42.5104 148.875 43.9575C148.875 45.4045 147.675 46.5415 146.149 46.5415H132.516V51.7096ZM160.314 51.7096H165.767V38.2725C165.767 33.983 169.42 30.5204 173.947 30.5204C178.472 30.5204 182.126 33.983 182.126 38.2725V51.7096H187.579V38.2725C187.579 31.1405 181.471 25.3522 173.947 25.3522C170.892 25.3522 168.057 26.3341 165.767 27.9363V12.9487H160.314V51.7096ZM193.596 12.9487V51.7096H199.049V12.9487H193.596ZM219.223 52.2265C227.076 52.2265 233.401 46.2314 233.401 38.7893C233.401 31.3473 227.076 25.3522 219.223 25.3522C211.37 25.3522 205.046 31.3473 205.046 38.7893C205.046 46.2314 211.37 52.2265 219.223 52.2265ZM219.223 46.8516C214.37 46.8516 210.498 43.2339 210.498 38.7893C210.498 34.3448 214.37 30.7271 219.223 30.7271C224.076 30.7271 227.948 34.3448 227.948 38.7893C227.948 43.2339 224.076 46.8516 219.223 46.8516ZM251.92 52.2265C259.772 52.2265 266.098 46.2314 266.098 38.7893C266.098 31.3473 259.772 25.3522 251.92 25.3522C244.068 25.3522 237.742 31.3473 237.742 38.7893C237.742 46.2314 244.068 52.2265 251.92 52.2265ZM251.92 46.8516C247.066 46.8516 243.195 43.2339 243.195 38.7893C243.195 34.3448 247.066 30.7271 251.92 30.7271C256.773 30.7271 260.645 34.3448 260.645 38.7893C260.645 43.2339 256.773 46.8516 251.92 46.8516ZM285.722 42.4587L295.537 51.7096L299.354 48.0922L289.593 38.7893L299.409 29.4351L295.591 25.8173L277.542 42.8722V12.9487H272.089V51.7096H275.907L285.722 42.4587Z" fill="#002552"/>
</g>
<defs>
<clipPath id="clip0_2343_86801">
<rect width="300" height="67" fill="white" transform="translate(0 0.0927734)"/>
</clipPath>
</defs>
</svg>
