<svg width="576" height="576" viewBox="0 0 576 576" fill="none" xmlns="http://www.w3.org/2000/svg">
<rect width="576" height="576" fill="#323232"/>
<rect x="50.2792" y="96.9386" width="325.006" height="238.927" rx="18.905" fill="#323232" stroke="white" stroke-width="0.804469"/>
<g clip-path="url(#clip0_3470_2395)">
<rect x="91.7095" y="127.106" width="269.497" height="1.60894" rx="0.804469" fill="white" fill-opacity="0.2"/>
<rect x="91.7095" y="127.106" width="43.4413" height="1.60894" rx="0.804469" fill="white" fill-opacity="0.3"/>
<rect x="91.7095" y="117.453" width="43.4413" height="4.82682" rx="2.41341" fill="white"/>
<rect x="141.586" y="117.453" width="32.9832" height="4.82682" rx="2.41341" fill="white" fill-opacity="0.2"/>
<rect x="181.005" y="117.453" width="48.2682" height="4.82682" rx="2.41341" fill="white" fill-opacity="0.2"/>
<rect x="308.916" y="117.453" width="4.82682" height="4.82682" rx="2.41341" fill="white"/>
<g filter="url(#filter0_d_3470_2395)">
<rect x="317.765" y="117.453" width="43.4413" height="4.82682" rx="2.41341" fill="#AB001F"/>
<rect x="318.167" y="117.855" width="42.6369" height="4.02235" rx="2.01117" stroke="white" stroke-opacity="0.2" stroke-width="0.804469"/>
</g>
</g>
<rect x="62.7485" y="173.765" width="45.8547" height="4.82682" rx="2.41341" fill="white" fill-opacity="0.2"/>
<rect x="72.4019" y="238.927" width="45.8547" height="4.82682" rx="2.41341" fill="white" fill-opacity="0.2"/>
<rect x="72.4019" y="253.408" width="45.8547" height="4.82682" rx="2.41341" fill="white" fill-opacity="0.2"/>
<rect x="126.704" y="235.307" width="68.3799" height="10.4581" rx="1.2067" stroke="#5B5B5B" stroke-width="0.804469"/>
<rect x="126.704" y="249.788" width="53.8994" height="10.4581" rx="1.2067" stroke="#5B5B5B" stroke-width="0.804469"/>
<rect x="62.7485" y="192.268" width="28.9609" height="4.82682" rx="2.41341" fill="white" fill-opacity="0.2"/>
<rect x="156.067" y="173.765" width="71.5978" height="4.82682" rx="2.41341" fill="white" fill-opacity="0.2"/>
<rect x="156.067" y="192.268" width="55.5084" height="4.82682" rx="2.41341" fill="white" fill-opacity="0.2"/>
<rect x="237.318" y="173.765" width="21.7207" height="4.82682" rx="2.41341" fill="white" fill-opacity="0.2"/>
<rect x="237.318" y="192.268" width="33.7877" height="4.82682" rx="2.41341" fill="white" fill-opacity="0.2"/>
<rect x="296.849" y="173.765" width="58.7263" height="4.82682" rx="2.41341" fill="white" fill-opacity="0.2"/>
<rect x="296.849" y="192.268" width="42.6369" height="4.82682" rx="2.41341" fill="white" fill-opacity="0.2"/>
<rect x="62.7485" y="166.525" width="298.458" height="0.804469" rx="0.402235" fill="white" fill-opacity="0.2"/>
<rect x="62.7485" y="185.028" width="298.458" height="0.804469" rx="0.402235" fill="white" fill-opacity="0.2"/>
<rect x="62.7485" y="148.827" width="139.173" height="6.43575" rx="3.21788" fill="#929292"/>
<rect x="72.4019" y="220.425" width="83.6648" height="6.43575" rx="3.21788" fill="#929292"/>
<circle cx="72.4022" cy="119.061" r="9.65363" fill="#4C4C4C"/>
<rect x="63.1508" y="211.173" width="297.654" height="59.5307" rx="9.2514" stroke="white" stroke-width="0.804469"/>
<mask id="mask0_3470_2395" style="mask-type:alpha" maskUnits="userSpaceOnUse" x="49" y="273" width="327" height="64">
<path d="M49.877 273.52H375.687V316.961C375.687 327.624 367.043 336.268 356.38 336.268H69.1842C58.5211 336.268 49.877 327.624 49.877 316.961V273.52Z" fill="#D9D9D9"/>
</mask>
<g mask="url(#mask0_3470_2395)">
<rect x="63.1508" y="284.38" width="297.654" height="72.4022" rx="9.2514" stroke="white" stroke-width="0.804469"/>
<rect x="72.4023" y="293.631" width="83.6648" height="6.43575" rx="3.21788" fill="#929292"/>
<rect x="163.709" y="294.034" width="82.8603" height="30.5698" rx="6.03352" stroke="#5B5B5B" stroke-width="0.804469"/>
<g filter="url(#filter1_d_3470_2395)">
<rect x="72.4023" y="313.743" width="53.8994" height="11.2626" rx="5.63128" fill="#AB001F"/>
<rect x="72.8046" y="314.145" width="53.095" height="10.4581" rx="5.22905" stroke="white" stroke-opacity="0.2" stroke-width="0.804469"/>
</g>
</g>
<rect x="401.43" y="96.5363" width="124.693" height="117.453" rx="12.8715" fill="#CCCCCC"/>
<rect x="401.832" y="96.9386" width="123.888" height="116.648" rx="12.4693" stroke="white" stroke-opacity="0.5" stroke-width="0.804469"/>
<circle cx="430.391" cy="125.497" r="16.0894" fill="white"/>
<path d="M434.414 123.084C434.414 121.973 433.963 120.967 433.236 120.24C432.508 119.512 431.502 119.061 430.391 119.061C429.28 119.061 428.275 119.512 427.547 120.24C426.819 120.967 426.369 121.973 426.369 123.084C426.369 124.195 426.819 125.2 427.547 125.928C428.275 126.656 429.28 127.106 430.391 127.106C431.502 127.106 432.508 126.656 433.236 125.928C433.61 125.555 433.907 125.111 434.109 124.623C434.311 124.135 434.414 123.612 434.414 123.084ZM425.564 131.129C425.564 131.933 427.375 132.737 430.391 132.737C433.221 132.737 435.218 131.933 435.218 131.129C435.218 129.52 433.324 127.911 430.391 127.911C427.375 127.911 425.564 129.52 425.564 131.129Z" fill="#ABABAB"/>
<rect x="452.916" y="118.257" width="53.095" height="4.82682" rx="2.41341" fill="#323232" fill-opacity="0.2"/>
<rect x="423.955" y="160.894" width="67.5754" height="4.82682" rx="2.41341" fill="#323232" fill-opacity="0.2"/>
<rect x="414.302" y="160.894" width="4.82682" height="4.82682" rx="2.41341" fill="#323232" fill-opacity="0.2"/>
<rect x="423.955" y="181.006" width="43.4413" height="4.82682" rx="2.41341" fill="#323232" fill-opacity="0.2"/>
<rect x="414.302" y="201.117" width="43.4413" height="4.82682" rx="2.41341" fill="#AB001F"/>
<rect x="414.302" y="181.006" width="4.82682" height="4.82682" rx="2.41341" fill="#323232" fill-opacity="0.2"/>
<rect x="452.916" y="127.911" width="28.9609" height="4.82682" rx="2.41341" fill="#323232" fill-opacity="0.2"/>
<line opacity="0.2" x1="401.43" y1="153.251" x2="526.123" y2="153.251" stroke="black" stroke-width="0.804469"/>
<line opacity="0.2" x1="401.43" y1="173.363" x2="526.123" y2="173.363" stroke="black" stroke-width="0.804469"/>
<line opacity="0.2" x1="401.43" y1="193.475" x2="526.123" y2="193.475" stroke="black" stroke-width="0.804469"/>
<path d="M100.29 320.983C100.29 322.168 99.3299 323.129 98.1451 323.129C96.9603 323.129 95.9998 322.168 95.9998 320.983C95.9998 319.798 96.9603 318.838 98.1451 318.838C99.3299 318.838 100.29 319.798 100.29 320.983ZM199.39 389.883C199.547 390.04 199.547 390.295 199.39 390.452L196.831 393.012C196.673 393.169 196.419 393.169 196.262 393.012C196.105 392.855 196.105 392.6 196.262 392.443L198.537 390.168L196.262 387.892C196.105 387.735 196.105 387.48 196.262 387.323C196.419 387.166 196.673 387.166 196.831 387.323L199.39 389.883ZM199.106 390.57H198.231V389.765H199.106V390.57ZM194.73 390.57H192.979V389.765H194.73V390.57ZM189.478 390.57H187.728V389.765H189.478V390.57ZM184.227 390.57H182.477V389.765H184.227V390.57ZM178.976 390.57H177.225V389.765H178.976V390.57ZM173.724 390.57H171.974V389.765H173.724V390.57ZM168.473 390.57H166.722V389.765H168.473V390.57ZM163.221 390.57H161.471V389.765H163.221V390.57ZM157.97 390.57H156.22V389.765H157.97V390.57ZM152.719 390.57H150.968V389.765H152.719V390.57ZM147.467 390.57H145.717V389.765H147.467V390.57ZM142.216 390.57H140.465V389.765H142.216V390.57ZM136.964 390.57H135.214V389.765H136.964V390.57ZM131.713 390.57H129.963V389.765H131.713V390.57ZM126.462 390.57H124.711V389.765H126.462V390.57ZM121.21 390.57H119.46V389.765H121.21V390.57ZM115.959 390.57H114.208V389.765H115.959V390.57ZM110.707 390.57H108.957V389.765H110.707V390.57ZM105.456 390.57H104.581V389.765H105.456V390.57ZM104.581 390.57C104.278 390.57 103.981 390.55 103.688 390.512L103.792 389.714C104.05 389.748 104.313 389.765 104.581 389.765V390.57ZM100.418 389.157C99.9442 388.793 99.5197 388.369 99.1558 387.895L99.7936 387.405C100.115 387.823 100.49 388.198 100.908 388.519L100.418 389.157ZM97.8006 384.624C97.7625 384.332 97.7428 384.034 97.7428 383.732H98.5473C98.5473 383.999 98.5647 384.263 98.5983 384.52L97.8006 384.624ZM97.7428 383.732V382.86H98.5473V383.732H97.7428ZM97.7428 379.374V377.631H98.5473V379.374H97.7428ZM97.7428 374.145V372.402H98.5473V374.145H97.7428ZM97.7428 368.916V367.173H98.5473V368.916H97.7428ZM97.7428 363.687V361.944H98.5473V363.687H97.7428ZM97.7428 358.458V356.715H98.5473V358.458H97.7428ZM97.7428 353.229V351.486H98.5473V353.229H97.7428ZM97.7428 348V346.257H98.5473V348H97.7428ZM97.7428 342.771V341.028H98.5473V342.771H97.7428ZM97.7428 337.542V335.799H98.5473V337.542H97.7428ZM97.7428 332.313V330.57H98.5473V332.313H97.7428ZM97.7428 327.084V325.341H98.5473V327.084H97.7428ZM97.7428 321.855V320.983H98.5473V321.855H97.7428ZM100.29 320.983C100.29 322.168 99.3299 323.129 98.1451 323.129C96.9603 323.129 95.9998 322.168 95.9998 320.983C95.9998 319.798 96.9603 318.838 98.1451 318.838C99.3299 318.838 100.29 319.798 100.29 320.983ZM199.39 389.883C199.547 390.04 199.547 390.295 199.39 390.452L196.831 393.012C196.673 393.169 196.419 393.169 196.262 393.012C196.105 392.855 196.105 392.6 196.262 392.443L198.537 390.168L196.262 387.892C196.105 387.735 196.105 387.48 196.262 387.323C196.419 387.166 196.673 387.166 196.831 387.323L199.39 389.883ZM199.106 390.57H198.231V389.765H199.106V390.57ZM194.73 390.57H192.979V389.765H194.73V390.57ZM189.478 390.57H187.728V389.765H189.478V390.57ZM184.227 390.57H182.477V389.765H184.227V390.57ZM178.976 390.57H177.225V389.765H178.976V390.57ZM173.724 390.57H171.974V389.765H173.724V390.57ZM168.473 390.57H166.722V389.765H168.473V390.57ZM163.221 390.57H161.471V389.765H163.221V390.57ZM157.97 390.57H156.22V389.765H157.97V390.57ZM152.719 390.57H150.968V389.765H152.719V390.57ZM147.467 390.57H145.717V389.765H147.467V390.57ZM142.216 390.57H140.465V389.765H142.216V390.57ZM136.964 390.57H135.214V389.765H136.964V390.57ZM131.713 390.57H129.963V389.765H131.713V390.57ZM126.462 390.57H124.711V389.765H126.462V390.57ZM121.21 390.57H119.46V389.765H121.21V390.57ZM115.959 390.57H114.208V389.765H115.959V390.57ZM110.707 390.57H108.957V389.765H110.707V390.57ZM105.456 390.57H104.581V389.765H105.456V390.57ZM104.581 390.57C104.278 390.57 103.981 390.55 103.688 390.512L103.792 389.714C104.05 389.748 104.313 389.765 104.581 389.765V390.57ZM100.418 389.157C99.9442 388.793 99.5197 388.369 99.1558 387.895L99.7936 387.405C100.115 387.823 100.49 388.198 100.908 388.519L100.418 389.157ZM97.8006 384.624C97.7625 384.332 97.7428 384.034 97.7428 383.732H98.5473C98.5473 383.999 98.5647 384.263 98.5983 384.52L97.8006 384.624ZM97.7428 383.732V382.86H98.5473V383.732H97.7428ZM97.7428 379.374V377.631H98.5473V379.374H97.7428ZM97.7428 374.145V372.402H98.5473V374.145H97.7428ZM97.7428 368.916V367.173H98.5473V368.916H97.7428ZM97.7428 363.687V361.944H98.5473V363.687H97.7428ZM97.7428 358.458V356.715H98.5473V358.458H97.7428ZM97.7428 353.229V351.486H98.5473V353.229H97.7428ZM97.7428 348V346.257H98.5473V348H97.7428ZM97.7428 342.771V341.028H98.5473V342.771H97.7428ZM97.7428 337.542V335.799H98.5473V337.542H97.7428ZM97.7428 332.313V330.57H98.5473V332.313H97.7428ZM97.7428 327.084V325.341H98.5473V327.084H97.7428ZM97.7428 321.855V320.983H98.5473V321.855H97.7428Z" fill="white"/>
<path d="M400.91 153.938C401.067 153.781 401.067 153.526 400.91 153.369L398.35 150.809C398.193 150.652 397.938 150.652 397.781 150.809C397.624 150.966 397.624 151.221 397.781 151.378L400.057 153.654L397.781 155.929C397.624 156.086 397.624 156.341 397.781 156.498C397.938 156.655 398.193 156.655 398.35 156.498L400.91 153.938ZM337.877 147.218L337.475 147.218V147.218L337.877 147.218ZM340.022 120.67C340.022 119.486 339.062 118.525 337.877 118.525C336.692 118.525 335.732 119.486 335.732 120.67C335.732 121.855 336.692 122.816 337.877 122.816C339.062 122.816 340.022 121.855 340.022 120.67ZM400.625 153.251L399.772 153.251L399.772 154.056L400.625 154.056L400.625 153.251ZM396.359 153.251L394.653 153.251L394.653 154.056L396.359 154.056L396.359 153.251ZM391.24 153.251L389.534 153.251L389.534 154.056L391.24 154.056L391.24 153.251ZM386.121 153.251L384.414 153.251L384.414 154.056L386.121 154.056L386.121 153.251ZM381.001 153.251L379.295 153.251L379.295 154.056L381.001 154.056L381.001 153.251ZM375.882 153.251L374.176 153.251L374.176 154.056L375.882 154.056L375.882 153.251ZM370.763 153.251L369.056 153.251L369.056 154.056L370.763 154.056L370.763 153.251ZM365.643 153.251L363.937 153.251L363.937 154.056L365.643 154.056L365.643 153.251ZM360.524 153.251L358.817 153.251L358.817 154.056L360.524 154.056L360.524 153.251ZM355.405 153.251L353.698 153.251L353.698 154.056L355.405 154.056L355.405 153.251ZM350.285 153.251L348.579 153.251L348.579 154.056L350.285 154.056L350.285 153.251ZM345.166 153.251L344.313 153.251L344.313 154.056L345.166 154.056L345.166 153.251ZM344.313 153.251C344.045 153.251 343.782 153.234 343.524 153.2L343.42 153.998C343.712 154.036 344.01 154.056 344.313 154.056L344.313 153.251ZM340.64 152.005C340.222 151.684 339.847 151.309 339.525 150.891L338.888 151.381C339.251 151.855 339.676 152.279 340.15 152.643L340.64 152.005ZM338.33 148.006C338.296 147.749 338.279 147.485 338.279 147.218L337.475 147.218C337.475 147.52 337.494 147.818 337.532 148.11L338.33 148.006ZM338.279 147.218L338.279 146.333L337.475 146.333L337.475 147.218L338.279 147.218ZM338.279 142.793L338.279 141.023L337.475 141.023L337.475 142.793L338.279 142.793ZM338.279 137.484L338.279 135.714L337.475 135.714L337.475 137.484L338.279 137.484ZM338.279 132.174L338.279 130.404L337.475 130.404L337.475 132.174L338.279 132.174ZM338.279 126.865L338.279 125.095L337.475 125.095L337.475 126.865L338.279 126.865ZM338.279 121.555L338.279 120.67L337.475 120.67L337.475 121.555L338.279 121.555ZM400.91 153.938C401.067 153.781 401.067 153.526 400.91 153.369L398.35 150.809C398.193 150.652 397.938 150.652 397.781 150.809C397.624 150.966 397.624 151.221 397.781 151.378L400.057 153.654L397.781 155.929C397.624 156.086 397.624 156.341 397.781 156.498C397.938 156.655 398.193 156.655 398.35 156.498L400.91 153.938ZM337.877 147.218L337.475 147.218V147.218L337.877 147.218ZM340.022 120.67C340.022 119.486 339.062 118.525 337.877 118.525C336.692 118.525 335.732 119.486 335.732 120.67C335.732 121.855 336.692 122.816 337.877 122.816C339.062 122.816 340.022 121.855 340.022 120.67ZM400.625 153.251L399.772 153.251L399.772 154.056L400.625 154.056L400.625 153.251ZM396.359 153.251L394.653 153.251L394.653 154.056L396.359 154.056L396.359 153.251ZM391.24 153.251L389.534 153.251L389.534 154.056L391.24 154.056L391.24 153.251ZM386.121 153.251L384.414 153.251L384.414 154.056L386.121 154.056L386.121 153.251ZM381.001 153.251L379.295 153.251L379.295 154.056L381.001 154.056L381.001 153.251ZM375.882 153.251L374.176 153.251L374.176 154.056L375.882 154.056L375.882 153.251ZM370.763 153.251L369.056 153.251L369.056 154.056L370.763 154.056L370.763 153.251ZM365.643 153.251L363.937 153.251L363.937 154.056L365.643 154.056L365.643 153.251ZM360.524 153.251L358.817 153.251L358.817 154.056L360.524 154.056L360.524 153.251ZM355.405 153.251L353.698 153.251L353.698 154.056L355.405 154.056L355.405 153.251ZM350.285 153.251L348.579 153.251L348.579 154.056L350.285 154.056L350.285 153.251ZM345.166 153.251L344.313 153.251L344.313 154.056L345.166 154.056L345.166 153.251ZM344.313 153.251C344.045 153.251 343.782 153.234 343.524 153.2L343.42 153.998C343.712 154.036 344.01 154.056 344.313 154.056L344.313 153.251ZM340.64 152.005C340.222 151.684 339.847 151.309 339.525 150.891L338.888 151.381C339.251 151.855 339.676 152.279 340.15 152.643L340.64 152.005ZM338.33 148.006C338.296 147.749 338.279 147.485 338.279 147.218L337.475 147.218C337.475 147.52 337.494 147.818 337.532 148.11L338.33 148.006ZM338.279 147.218L338.279 146.333L337.475 146.333L337.475 147.218L338.279 147.218ZM338.279 142.793L338.279 141.023L337.475 141.023L337.475 142.793L338.279 142.793ZM338.279 137.484L338.279 135.714L337.475 135.714L337.475 137.484L338.279 137.484ZM338.279 132.174L338.279 130.404L337.475 130.404L337.475 132.174L338.279 132.174ZM338.279 126.865L338.279 125.095L337.475 125.095L337.475 126.865L338.279 126.865ZM338.279 121.555L338.279 120.67L337.475 120.67L337.475 121.555L338.279 121.555Z" fill="white"/>
<rect x="200.715" y="240.134" width="325.006" height="238.927" rx="18.905" fill="#E8E8E8" stroke="white" stroke-width="0.804469"/>
<path d="M219.62 240.134L506.816 240.134C517.257 240.134 525.721 248.598 525.721 259.039V319.777L200.715 319.777V259.039C200.715 248.598 209.179 240.134 219.62 240.134Z" fill="#F5F5F5" stroke="white" stroke-width="0.804469"/>
<g clip-path="url(#clip1_3470_2395)">
<rect x="242.145" y="270.302" width="269.497" height="1.60894" rx="0.804469" fill="#323232" fill-opacity="0.16"/>
<rect x="242.145" y="270.302" width="43.4413" height="1.60894" rx="0.804469" fill="#323232" fill-opacity="0.32"/>
<rect x="242.145" y="260.648" width="43.4413" height="4.82682" rx="2.41341" fill="#323232"/>
<rect x="292.022" y="260.648" width="32.9832" height="4.82682" rx="2.41341" fill="#323232" fill-opacity="0.16"/>
<rect x="331.441" y="260.648" width="48.2682" height="4.82682" rx="2.41341" fill="#323232" fill-opacity="0.16"/>
<rect x="459.352" y="260.648" width="4.82682" height="4.82682" rx="2.41341" fill="#323232" fill-opacity="0.16"/>
<rect x="468.201" y="260.648" width="43.4413" height="4.82682" rx="2.41341" fill="#323232" fill-opacity="0.16"/>
</g>
<rect x="213.185" y="404.648" width="298.458" height="0.804469" rx="0.402235" fill="#323232" fill-opacity="0.16"/>
<rect x="213.185" y="304.089" width="32.9832" height="4.82682" rx="2.41341" fill="#323232" fill-opacity="0.16"/>
<rect x="263.866" y="304.089" width="42.6369" height="4.82682" rx="2.41341" fill="#323232" fill-opacity="0.16"/>
<rect x="331.441" y="438.436" width="59.5307" height="4.82682" rx="2.41341" fill="#323232" fill-opacity="0.16"/>
<rect x="331.441" y="456.134" width="59.5307" height="4.82682" rx="2.41341" fill="#323232" fill-opacity="0.16"/>
<rect x="331.441" y="447.285" width="82.0559" height="4.82682" rx="2.41341" fill="#323232" fill-opacity="0.16"/>
<rect x="314.547" y="304.089" width="33.7877" height="4.82682" rx="2.41341" fill="#323232" fill-opacity="0.16"/>
<rect x="419.933" y="286.391" width="33.7877" height="4.82682" rx="2.41341" fill="#323232" fill-opacity="0.16"/>
<rect x="458.547" y="286.391" width="20.9162" height="4.82682" rx="2.41341" fill="#323232" fill-opacity="0.16"/>
<rect x="484.291" y="286.391" width="27.352" height="4.82682" rx="2.41341" fill="#323232" fill-opacity="0.16"/>
<rect x="356.38" y="304.089" width="33.7877" height="4.82682" rx="2.41341" fill="#323232" fill-opacity="0.16"/>
<circle cx="222.838" cy="262.257" r="9.65363" fill="#4C4C4C" fill-opacity="0.2"/>
<rect x="213.185" y="286.391" width="42.6369" height="12.067" rx="6.03352" fill="#323232"/>
<rect x="263.866" y="286.391" width="42.6369" height="12.067" rx="6.03352" fill="#323232"/>
<rect x="331.441" y="419.129" width="59.5307" height="12.067" rx="6.03352" fill="#323232"/>
<rect x="314.547" y="286.391" width="25.743" height="12.067" rx="6.03352" fill="#A2A2A2"/>
<rect x="356.38" y="286.391" width="25.743" height="12.067" rx="6.03352" fill="#A2A2A2"/>
<rect x="213.185" y="333.855" width="83.6648" height="6.43575" rx="3.21788" fill="#929292"/>
<rect x="213.185" y="352.358" width="32.9832" height="4.82682" rx="2.41341" fill="#323232" fill-opacity="0.16"/>
<rect x="251.799" y="352.358" width="40.2235" height="4.82682" rx="2.41341" fill="#323232"/>
<rect x="252.201" y="352.76" width="39.419" height="4.02235" rx="2.01117" stroke="white" stroke-opacity="0.2" stroke-width="0.804469"/>
<rect x="251.799" y="362.816" width="24.9385" height="4.82682" rx="2.41341" fill="#323232"/>
<rect x="252.201" y="363.218" width="24.1341" height="4.02235" rx="2.01117" stroke="white" stroke-opacity="0.2" stroke-width="0.804469"/>
<rect x="251.799" y="373.274" width="32.9832" height="4.82682" rx="2.41341" fill="#323232"/>
<rect x="252.201" y="373.676" width="32.1788" height="4.02235" rx="2.01117" stroke="white" stroke-opacity="0.2" stroke-width="0.804469"/>
<rect x="251.799" y="383.732" width="49.8771" height="4.82682" rx="2.41341" fill="#323232"/>
<rect x="252.201" y="384.134" width="49.0726" height="4.02235" rx="2.01117" stroke="white" stroke-opacity="0.2" stroke-width="0.804469"/>
<rect x="213.185" y="362.816" width="19.3073" height="4.82682" rx="2.41341" fill="#323232" fill-opacity="0.16"/>
<rect x="213.185" y="373.274" width="24.9385" height="4.82682" rx="2.41341" fill="#323232" fill-opacity="0.16"/>
<rect x="213.185" y="383.732" width="24.9385" height="4.82682" rx="2.41341" fill="#323232" fill-opacity="0.16"/>
<path opacity="0.2" d="M354.481 367.944L331.441 373.676V396.603H511.643V335.464L478.729 353.614L451.575 346.927L422.776 353.614H407.142L396.445 361.257H385.749L361.886 373.676L354.481 367.944Z" fill="url(#paint0_linear_3470_2395)"/>
<path opacity="0.4" d="M331.441 373.274L354.481 367.602L361.886 373.274L385.749 360.985H396.445L407.142 353.423H422.776L451.575 346.807L478.729 353.423L511.643 335.464" stroke="#AB001F" stroke-width="4.82682"/>
<path d="M261.453 441.654C261.453 454.982 250.648 465.788 237.319 465.788C223.99 465.788 213.185 454.982 213.185 441.654C213.185 428.325 223.99 417.52 237.319 417.52C250.648 417.52 261.453 428.325 261.453 441.654ZM222.816 441.654C222.816 449.663 229.309 456.156 237.319 456.156C245.328 456.156 251.821 449.663 251.821 441.654C251.821 433.644 245.328 427.151 237.319 427.151C229.309 427.151 222.816 433.644 222.816 441.654Z" fill="#FCFCFC"/>
<path d="M319.717 441.654C319.717 454.982 308.912 465.788 295.583 465.788C282.254 465.788 271.449 454.982 271.449 441.654C271.449 428.325 282.254 417.52 295.583 417.52C308.912 417.52 319.717 428.325 319.717 441.654ZM281.081 441.654C281.081 449.663 287.574 456.156 295.583 456.156C303.593 456.156 310.086 449.663 310.086 441.654C310.086 433.644 303.593 427.151 295.583 427.151C287.574 427.151 281.081 433.644 281.081 441.654Z" fill="#FCFCFC"/>
<path d="M237.318 417.519C242.415 417.519 247.381 419.133 251.504 422.129C255.627 425.124 258.696 429.349 260.271 434.196C261.846 439.043 261.846 444.264 260.271 449.111C258.696 453.959 255.627 458.183 251.504 461.178L245.843 453.387C248.321 451.586 250.165 449.048 251.111 446.135C252.058 443.222 252.058 440.085 251.111 437.172C250.165 434.259 248.321 431.721 245.843 429.921C243.365 428.12 240.381 427.151 237.318 427.151L237.318 417.519Z" fill="#CEA3AB"/>
<path d="M295.583 417.519C300.68 417.519 305.646 419.133 309.769 422.129C313.892 425.124 316.961 429.349 318.536 434.196C320.111 439.043 320.111 444.264 318.536 449.111C316.961 453.959 313.892 458.183 309.769 461.178C305.646 464.174 300.68 465.788 295.583 465.788C290.487 465.788 285.521 464.174 281.398 461.178C277.274 458.183 274.205 453.959 272.631 449.111C271.056 444.264 271.056 439.043 272.631 434.196L281.79 437.172C280.844 440.085 280.844 443.222 281.79 446.135C282.737 449.048 284.581 451.586 287.059 453.387C289.537 455.187 292.521 456.156 295.583 456.156C298.646 456.156 301.63 455.187 304.108 453.387C306.586 451.586 308.43 449.048 309.376 446.135C310.323 443.222 310.323 440.085 309.376 437.172C308.43 434.259 306.586 431.721 304.108 429.921C301.63 428.12 298.646 427.151 295.583 427.151L295.583 417.519Z" fill="#CEA3AB"/>
<path d="M237.318 417.519C241.127 417.519 244.881 418.421 248.275 420.15C251.668 421.879 254.604 424.387 256.843 427.468L249.051 433.129C247.706 431.277 245.942 429.771 243.902 428.731C241.863 427.692 239.607 427.151 237.318 427.151L237.318 417.519Z" fill="#AB001F"/>
<path d="M295.583 417.519C300.421 417.519 305.147 418.973 309.149 421.693C313.15 424.412 316.242 428.271 318.023 432.769C319.804 437.267 320.192 442.197 319.136 446.918C318.081 451.64 315.631 455.935 312.104 459.247L305.511 452.226C307.63 450.236 309.103 447.654 309.737 444.817C310.371 441.98 310.138 439.018 309.068 436.315C307.998 433.612 306.14 431.293 303.735 429.659C301.331 428.025 298.491 427.151 295.583 427.151L295.583 417.519Z" fill="#AB001F"/>
<rect x="427.978" y="416.715" width="83.6648" height="49.8771" rx="6.43575" fill="white" fill-opacity="0.6"/>
<g filter="url(#filter2_d_3470_2395)">
<rect x="437.631" y="446.48" width="53.8994" height="11.2626" rx="5.63128" fill="#AB001F"/>
<rect x="438.034" y="446.883" width="53.095" height="10.4581" rx="5.22905" stroke="white" stroke-opacity="0.2" stroke-width="0.804469"/>
</g>
<rect x="437.631" y="425.564" width="39.419" height="4.82682" rx="2.41341" fill="#323232" fill-opacity="0.16"/>
<rect x="437.631" y="434.413" width="63.5531" height="4.82682" rx="2.41341" fill="#323232" fill-opacity="0.16"/>
<circle cx="76.4244" cy="440.849" r="26.1453" fill="#323232" stroke="white" stroke-width="0.804469"/>
<circle cx="98.9493" cy="440.849" r="25.9441" fill="#323232" stroke="white" stroke-width="1.2067"/>
<circle cx="124.693" cy="440.849" r="25.743" fill="#323232" stroke="white" stroke-width="1.60894"/>
<path d="M152.581 440.849C152.581 439.664 151.62 438.704 150.436 438.704C149.251 438.704 148.29 439.664 148.29 440.849C148.29 442.034 149.251 442.994 150.436 442.994C151.62 442.994 152.581 442.034 152.581 440.849ZM199.793 441.134C199.95 440.976 199.95 440.722 199.793 440.565L197.233 438.005C197.076 437.848 196.821 437.848 196.664 438.005C196.507 438.162 196.507 438.417 196.664 438.574L198.939 440.849L196.664 443.125C196.507 443.282 196.507 443.536 196.664 443.693C196.821 443.85 197.076 443.85 197.233 443.693L199.793 441.134ZM199.508 440.447L198.6 440.447L198.6 441.251L199.508 441.251L199.508 440.447ZM194.965 440.447L193.147 440.447L193.147 441.251L194.965 441.251L194.965 440.447ZM189.512 440.447L187.695 440.447L187.695 441.251L189.512 441.251L189.512 440.447ZM184.06 440.447L182.242 440.447L182.242 441.251L184.06 441.251L184.06 440.447ZM178.607 440.447L176.789 440.447L176.789 441.251L178.607 441.251L178.607 440.447ZM173.154 440.447L171.337 440.447L171.337 441.251L173.154 441.251L173.154 440.447ZM167.702 440.447L165.884 440.447L165.884 441.251L167.702 441.251L167.702 440.447ZM162.249 440.447L160.432 440.447L160.432 441.251L162.249 441.251L162.249 440.447ZM156.797 440.447L154.979 440.447L154.979 441.251L156.797 441.251L156.797 440.447ZM151.344 440.447L150.436 440.447L150.436 441.251L151.344 441.251L151.344 440.447ZM152.581 440.849C152.581 439.664 151.62 438.704 150.436 438.704C149.251 438.704 148.29 439.664 148.29 440.849C148.29 442.034 149.251 442.994 150.436 442.994C151.62 442.994 152.581 442.034 152.581 440.849ZM199.793 441.134C199.95 440.976 199.95 440.722 199.793 440.565L197.233 438.005C197.076 437.848 196.821 437.848 196.664 438.005C196.507 438.162 196.507 438.417 196.664 438.574L198.939 440.849L196.664 443.125C196.507 443.282 196.507 443.536 196.664 443.693C196.821 443.85 197.076 443.85 197.233 443.693L199.793 441.134ZM199.508 440.447L198.6 440.447L198.6 441.251L199.508 441.251L199.508 440.447ZM194.965 440.447L193.147 440.447L193.147 441.251L194.965 441.251L194.965 440.447ZM189.512 440.447L187.695 440.447L187.695 441.251L189.512 441.251L189.512 440.447ZM184.06 440.447L182.242 440.447L182.242 441.251L184.06 441.251L184.06 440.447ZM178.607 440.447L176.789 440.447L176.789 441.251L178.607 441.251L178.607 440.447ZM173.154 440.447L171.337 440.447L171.337 441.251L173.154 441.251L173.154 440.447ZM167.702 440.447L165.884 440.447L165.884 441.251L167.702 441.251L167.702 440.447ZM162.249 440.447L160.432 440.447L160.432 441.251L162.249 441.251L162.249 440.447ZM156.797 440.447L154.979 440.447L154.979 441.251L156.797 441.251L156.797 440.447ZM151.344 440.447L150.436 440.447L150.436 441.251L151.344 441.251L151.344 440.447Z" fill="white"/>
<path d="M127.213 443.104H116.723V441.778H127.213C128.356 441.778 129.346 441.542 130.184 441.07C131.022 440.59 131.67 439.935 132.127 439.104C132.584 438.274 132.813 437.322 132.813 436.248C132.813 435.158 132.584 434.195 132.127 433.357C131.67 432.519 131.022 431.863 130.184 431.391C129.346 430.919 128.356 430.683 127.213 430.683H121.34V452.76H119.911V429.357H127.213C128.661 429.357 129.91 429.658 130.961 430.26C132.013 430.854 132.82 431.673 133.384 432.717C133.948 433.753 134.23 434.93 134.23 436.248C134.23 437.55 133.948 438.72 133.384 439.756C132.82 440.784 132.013 441.599 130.961 442.201C129.91 442.803 128.661 443.104 127.213 443.104ZM127.213 445.206V446.532H116.723V445.206H127.213Z" fill="white"/>
<defs>
<filter id="filter0_d_3470_2395" x="304.894" y="107.155" width="69.1844" height="30.5699" filterUnits="userSpaceOnUse" color-interpolation-filters="sRGB">
<feFlood flood-opacity="0" result="BackgroundImageFix"/>
<feColorMatrix in="SourceAlpha" type="matrix" values="0 0 0 0 0 0 0 0 0 0 0 0 0 0 0 0 0 0 127 0" result="hardAlpha"/>
<feOffset dy="2.5743"/>
<feGaussianBlur stdDeviation="6.43575"/>
<feComposite in2="hardAlpha" operator="out"/>
<feColorMatrix type="matrix" values="0 0 0 0 0.670588 0 0 0 0 0 0 0 0 0 0.121569 0 0 0 1 0"/>
<feBlend mode="normal" in2="BackgroundImageFix" result="effect1_dropShadow_3470_2395"/>
<feBlend mode="normal" in="SourceGraphic" in2="effect1_dropShadow_3470_2395" result="shape"/>
</filter>
<filter id="filter1_d_3470_2395" x="59.5308" y="303.446" width="79.6424" height="37.0056" filterUnits="userSpaceOnUse" color-interpolation-filters="sRGB">
<feFlood flood-opacity="0" result="BackgroundImageFix"/>
<feColorMatrix in="SourceAlpha" type="matrix" values="0 0 0 0 0 0 0 0 0 0 0 0 0 0 0 0 0 0 127 0" result="hardAlpha"/>
<feOffset dy="2.5743"/>
<feGaussianBlur stdDeviation="6.43575"/>
<feComposite in2="hardAlpha" operator="out"/>
<feColorMatrix type="matrix" values="0 0 0 0 0.670588 0 0 0 0 0 0 0 0 0 0.121569 0 0 0 1 0"/>
<feBlend mode="normal" in2="BackgroundImageFix" result="effect1_dropShadow_3470_2395"/>
<feBlend mode="normal" in="SourceGraphic" in2="effect1_dropShadow_3470_2395" result="shape"/>
</filter>
<filter id="filter2_d_3470_2395" x="426.288" y="437.712" width="76.5854" height="33.9486" filterUnits="userSpaceOnUse" color-interpolation-filters="sRGB">
<feFlood flood-opacity="0" result="BackgroundImageFix"/>
<feColorMatrix in="SourceAlpha" type="matrix" values="0 0 0 0 0 0 0 0 0 0 0 0 0 0 0 0 0 0 127 0" result="hardAlpha"/>
<feOffset dy="2.5743"/>
<feGaussianBlur stdDeviation="5.67151"/>
<feComposite in2="hardAlpha" operator="out"/>
<feColorMatrix type="matrix" values="0 0 0 0 0.670588 0 0 0 0 0 0 0 0 0 0.121569 0 0 0 0.2 0"/>
<feBlend mode="normal" in2="BackgroundImageFix" result="effect1_dropShadow_3470_2395"/>
<feBlend mode="normal" in="SourceGraphic" in2="effect1_dropShadow_3470_2395" result="shape"/>
</filter>
<linearGradient id="paint0_linear_3470_2395" x1="417.016" y1="335.464" x2="417.016" y2="396.603" gradientUnits="userSpaceOnUse">
<stop stop-color="#AB001F"/>
<stop offset="1" stop-color="#AB001F" stop-opacity="0"/>
</linearGradient>
<clipPath id="clip0_3470_2395">
<rect width="269.497" height="11.2626" fill="white" transform="translate(91.7095 117.453)"/>
</clipPath>
<clipPath id="clip1_3470_2395">
<rect width="269.497" height="11.2626" fill="white" transform="translate(242.145 260.648)"/>
</clipPath>
</defs>
</svg>
