<svg width="349" height="88" viewBox="0 0 349 88" fill="none" xmlns="http://www.w3.org/2000/svg">
<path d="M117.051 76.0541V61.4923H121.796C123.37 61.4923 124.553 61.8191 125.344 62.4726C126.141 63.1261 126.54 64.0929 126.54 65.373C126.54 66.0529 126.347 66.6565 125.962 67.183C125.577 67.703 125.052 68.1065 124.387 68.3934C125.171 68.6131 125.789 69.0334 126.241 69.6536C126.7 70.2667 126.929 71.0004 126.929 71.8536C126.929 73.1606 126.507 74.1872 125.663 74.9338C124.819 75.6805 123.627 76.0541 122.085 76.0541H117.051ZM118.965 69.2431V74.4841H122.125C123.015 74.4841 123.716 74.254 124.228 73.7937C124.746 73.327 125.005 72.687 125.005 71.8736C125.005 70.1203 124.055 69.2431 122.155 69.2431H118.965ZM118.965 67.703H121.855C122.693 67.703 123.36 67.4928 123.859 67.0729C124.364 66.6531 124.616 66.0827 124.616 65.363C124.616 64.5626 124.384 63.9828 123.919 63.6227C123.454 63.2561 122.746 63.0728 121.796 63.0728H118.965V67.703ZM134.693 66.8931C134.414 66.8463 134.112 66.8229 133.786 66.8229C132.577 66.8229 131.756 67.3399 131.325 68.373V76.0541H129.481V65.233H131.274L131.304 66.4827C131.909 65.5164 132.766 65.0328 133.876 65.0328C134.235 65.0328 134.507 65.0796 134.693 65.1727V66.8931ZM138.401 76.0541H136.557V65.233H138.401V76.0541ZM136.408 62.3625C136.408 62.0626 136.498 61.8091 136.677 61.6024C136.863 61.3957 137.135 61.2921 137.494 61.2921C137.853 61.2921 138.125 61.3957 138.311 61.6024C138.498 61.8091 138.59 62.0626 138.59 62.3625C138.59 62.6623 138.498 62.9124 138.311 63.1126C138.125 63.3123 137.853 63.4125 137.494 63.4125C137.135 63.4125 136.863 63.3123 136.677 63.1126C136.498 62.9124 136.408 62.6623 136.408 62.3625ZM143.106 65.233L143.165 66.5928C143.989 65.5528 145.066 65.0328 146.395 65.0328C148.674 65.0328 149.823 66.3228 149.843 68.9034V76.0541H148V68.8935C147.993 68.113 147.813 67.5362 147.461 67.1631C147.115 66.7895 146.574 66.6028 145.837 66.6028C145.239 66.6028 144.713 66.7631 144.262 67.0829C143.81 67.4032 143.458 67.8231 143.205 68.3431V76.0541H141.361V65.233H143.106ZM152.186 70.5536C152.186 68.8666 152.574 67.5262 153.352 66.533C154.129 65.5328 155.159 65.0328 156.442 65.0328C157.757 65.0328 158.784 65.4995 159.521 66.4329L159.611 65.233H161.295V75.7941C161.295 77.1942 160.88 78.298 160.05 79.1044C159.226 79.9113 158.116 80.3147 156.721 80.3147C155.943 80.3147 155.182 80.1479 154.438 79.8147C153.694 79.4814 153.126 79.0247 152.734 78.4444L153.691 77.3342C154.481 78.3144 155.448 78.8045 156.591 78.8045C157.488 78.8045 158.186 78.551 158.684 78.0444C159.189 77.5379 159.441 76.8241 159.441 75.9041V74.9742C158.704 75.8274 157.698 76.2543 156.421 76.2543C155.159 76.2543 154.136 75.7442 153.352 74.7242C152.574 73.7041 152.186 72.3139 152.186 70.5536ZM154.04 70.7633C154.04 71.9836 154.289 72.944 154.787 73.6438C155.285 74.3371 155.983 74.6838 156.88 74.6838C158.043 74.6838 158.897 74.1538 159.441 73.0939V68.1533C158.877 67.1198 158.03 66.6028 156.9 66.6028C156.003 66.6028 155.302 66.9529 154.797 67.6532C154.292 68.353 154.04 69.3901 154.04 70.7633ZM166.09 76.0541H164.246V65.233H166.09V76.0541ZM164.096 62.3625C164.096 62.0626 164.186 61.8091 164.365 61.6024C164.551 61.3957 164.824 61.2921 165.183 61.2921C165.542 61.2921 165.814 61.3957 166 61.6024C166.186 61.8091 166.279 62.0626 166.279 62.3625C166.279 62.6623 166.186 62.9124 166 63.1126C165.814 63.3123 165.542 63.4125 165.183 63.4125C164.824 63.4125 164.551 63.3123 164.365 63.1126C164.186 62.9124 164.096 62.6623 164.096 62.3625ZM170.794 65.233L170.854 66.5928C171.678 65.5528 172.754 65.0328 174.083 65.0328C176.363 65.0328 177.512 66.3228 177.532 68.9034V76.0541H175.688V68.8935C175.682 68.113 175.502 67.5362 175.15 67.1631C174.804 66.7895 174.263 66.6028 173.525 66.6028C172.927 66.6028 172.402 66.7631 171.951 67.0829C171.498 67.4032 171.146 67.8231 170.894 68.3431V76.0541H169.05V65.233H170.794ZM179.874 70.5536C179.874 68.8666 180.263 67.5262 181.041 66.533C181.818 65.5328 182.848 65.0328 184.13 65.0328C185.446 65.0328 186.473 65.4995 187.21 66.4329L187.3 65.233H188.984V75.7941C188.984 77.1942 188.569 78.298 187.738 79.1044C186.914 79.9113 185.805 80.3147 184.409 80.3147C183.632 80.3147 182.871 80.1479 182.127 79.8147C181.383 79.4814 180.815 79.0247 180.423 78.4444L181.379 77.3342C182.17 78.3144 183.137 78.8045 184.28 78.8045C185.177 78.8045 185.875 78.551 186.373 78.0444C186.878 77.5379 187.13 76.8241 187.13 75.9041V74.9742C186.393 75.8274 185.386 76.2543 184.11 76.2543C182.848 76.2543 181.824 75.7442 181.041 74.7242C180.263 73.7041 179.874 72.3139 179.874 70.5536ZM181.728 70.7633C181.728 71.9836 181.977 72.944 182.476 73.6438C182.974 74.3371 183.672 74.6838 184.569 74.6838C185.732 74.6838 186.585 74.1538 187.13 73.0939V68.1533C186.565 67.1198 185.718 66.6028 184.589 66.6028C183.692 66.6028 182.99 66.9529 182.486 67.6532C181.981 68.353 181.728 69.3901 181.728 70.7633ZM199.34 62.6125V65.233H201.354V66.663H199.34V73.3738C199.34 73.8072 199.43 74.1339 199.609 74.3541C199.788 74.5673 200.094 74.6738 200.526 74.6738C200.739 74.6738 201.031 74.634 201.403 74.5538V76.0541C200.918 76.1876 200.446 76.2543 199.988 76.2543C199.164 76.2543 198.543 76.0043 198.124 75.5042C197.706 75.0041 197.496 74.2938 197.496 73.3738V66.663H195.533V65.233H197.496V62.6125H199.34ZM202.828 70.5437C202.828 69.4832 203.034 68.5299 203.446 67.6831C203.865 66.8364 204.443 66.1829 205.181 65.7226C205.925 65.2629 206.772 65.0328 207.722 65.0328C209.191 65.0328 210.377 65.5428 211.281 66.5629C212.191 67.583 212.646 68.9398 212.646 70.6333V70.7633C212.646 71.8168 212.444 72.7637 212.038 73.6039C211.639 74.4373 211.065 75.0873 210.314 75.554C209.569 76.0207 208.713 76.2543 207.742 76.2543C206.28 76.2543 205.094 75.7442 204.184 74.7242C203.281 73.7041 202.828 72.3537 202.828 70.6737V70.5437ZM204.682 70.7633C204.682 71.9637 204.958 72.927 205.51 73.6538C206.068 74.3805 206.812 74.7441 207.742 74.7441C208.679 74.7441 209.424 74.3775 209.975 73.6438C210.527 72.9036 210.802 71.8701 210.802 70.5437C210.802 69.3567 210.52 68.3964 209.955 67.6632C209.397 66.923 208.653 66.5529 207.722 66.5529C206.812 66.5529 206.078 66.9165 205.52 67.6433C204.961 68.37 204.682 69.41 204.682 70.7633ZM214.52 70.5536C214.52 68.8666 214.909 67.5262 215.686 66.533C216.463 65.5328 217.493 65.0328 218.776 65.0328C220.092 65.0328 221.118 65.4995 221.856 66.4329L221.946 65.233H223.63V75.7941C223.63 77.1942 223.215 78.298 222.384 79.1044C221.56 79.9113 220.45 80.3147 219.055 80.3147C218.278 80.3147 217.517 80.1479 216.773 79.8147C216.029 79.4814 215.46 79.0247 215.068 78.4444L216.025 77.3342C216.816 78.3144 217.783 78.8045 218.926 78.8045C219.823 78.8045 220.52 78.551 221.019 78.0444C221.524 77.5379 221.776 76.8241 221.776 75.9041V74.9742C221.039 75.8274 220.032 76.2543 218.756 76.2543C217.493 76.2543 216.47 75.7442 215.686 74.7242C214.909 73.7041 214.52 72.3139 214.52 70.5536ZM216.374 70.7633C216.374 71.9836 216.623 72.944 217.122 73.6438C217.62 74.3371 218.317 74.6838 219.214 74.6838C220.377 74.6838 221.231 74.1538 221.776 73.0939V68.1533C221.211 67.1198 220.364 66.6028 219.234 66.6028C218.337 66.6028 217.636 66.9529 217.132 67.6532C216.626 68.353 216.374 69.3901 216.374 70.7633ZM230.896 76.2543C229.434 76.2543 228.245 75.7741 227.328 74.8138C226.411 73.847 225.952 72.5569 225.952 70.9436V70.6034C225.952 69.53 226.155 68.5732 226.56 67.7329C226.972 66.8862 227.544 66.2262 228.275 65.753C229.012 65.2728 229.809 65.0328 230.667 65.0328C232.069 65.0328 233.159 65.496 233.936 66.4229C234.713 67.3499 235.102 68.6763 235.102 70.4032V71.1737H227.796C227.823 72.2402 228.132 73.1039 228.723 73.7638C229.321 74.4173 230.079 74.7441 230.996 74.7441C231.647 74.7441 232.199 74.6106 232.65 74.3441C233.102 74.0771 233.497 73.724 233.836 73.2837L234.963 74.1638C234.059 75.5575 232.703 76.2543 230.896 76.2543ZM230.667 66.5529C229.923 66.5529 229.298 66.8264 228.793 67.3733C228.288 67.9132 227.976 68.6733 227.856 69.6536H233.258V69.5131C233.205 68.5732 232.953 67.8465 232.501 67.333C232.049 66.8129 231.438 66.5529 230.667 66.5529ZM239.747 62.6125V65.233H241.76V66.663H239.747V73.3738C239.747 73.8072 239.837 74.1339 240.016 74.3541C240.196 74.5673 240.501 74.6738 240.933 74.6738C241.146 74.6738 241.438 74.634 241.81 74.5538V76.0541C241.325 76.1876 240.853 76.2543 240.395 76.2543C239.571 76.2543 238.95 76.0043 238.531 75.5042C238.112 75.0041 237.903 74.2938 237.903 73.3738V66.663H235.939V65.233H237.903V62.6125H239.747ZM245.767 66.543C246.584 65.5363 247.647 65.0328 248.956 65.0328C251.235 65.0328 252.385 66.3228 252.405 68.9034V76.0541H250.561V68.8935C250.554 68.113 250.375 67.5362 250.023 67.1631C249.677 66.7895 249.136 66.6028 248.398 66.6028C247.8 66.6028 247.275 66.7631 246.823 67.0829C246.372 67.4032 246.019 67.8231 245.767 68.3431V76.0541H243.923V60.6924H245.767V66.543ZM259.641 76.2543C258.179 76.2543 256.99 75.7741 256.073 74.8138C255.156 73.847 254.698 72.5569 254.698 70.9436V70.6034C254.698 69.53 254.9 68.5732 255.305 67.7329C255.717 66.8862 256.289 66.2262 257.02 65.753C257.758 65.2728 258.555 65.0328 259.412 65.0328C260.814 65.0328 261.904 65.496 262.681 66.4229C263.459 67.3499 263.847 68.6763 263.847 70.4032V71.1737H256.541C256.568 72.2402 256.877 73.1039 257.469 73.7638C258.066 74.4173 258.824 74.7441 259.741 74.7441C260.392 74.7441 260.943 74.6106 261.396 74.3441C261.847 74.0771 262.242 73.724 262.582 73.2837L263.708 74.1638C262.804 75.5575 261.449 76.2543 259.641 76.2543ZM259.412 66.5529C258.668 66.5529 258.043 66.8264 257.538 67.3733C257.033 67.9132 256.721 68.6733 256.601 69.6536H262.003V69.5131C261.95 68.5732 261.698 67.8465 261.246 67.333C260.794 66.8129 260.183 66.5529 259.412 66.5529ZM271.203 66.8931C270.924 66.8463 270.622 66.8229 270.296 66.8229C269.087 66.8229 268.266 67.3399 267.834 68.373V76.0541H265.99V65.233H267.784L267.815 66.4827C268.419 65.5164 269.276 65.0328 270.386 65.0328C270.745 65.0328 271.017 65.0796 271.203 65.1727V66.8931Z" fill="white"/>
<path d="M133.238 13.335C137.815 13.335 142.674 14.8691 146.01 18.1665L142.148 24.4773C139.954 22.5646 136.668 20.9906 133.62 20.9906C126.805 20.9906 123.995 25.8221 123.995 30.7433C123.995 35.8139 127.043 41.0239 133.62 41.0239C137.001 41.0239 140.341 39.1561 142.674 36.8151L146.963 42.9366C146.507 43.4098 146.015 43.868 145.489 44.3114C142.555 46.7819 138.529 48.6697 133.238 48.6697C122.277 48.6697 115.368 41.0688 115.368 30.9326C115.368 20.9857 122.709 13.335 133.238 13.335Z" fill="white"/>
<path d="M165.533 13.335C176.111 13.335 183.353 20.9857 183.353 30.7881C183.353 40.8297 176.111 48.6697 165.533 48.6697C154.954 48.6697 147.712 40.8297 147.712 30.7881C147.707 20.9857 154.949 13.335 165.533 13.335ZM165.533 41.019C170.918 41.019 174.731 36.6208 174.731 30.7881C174.731 25.1946 170.918 20.9857 165.533 20.9857C160.147 20.9857 156.334 25.1946 156.334 30.7881C156.334 36.6208 160.147 41.019 165.533 41.019Z" fill="white"/>
<path d="M187.915 13.9082H196.349L205.785 29.8771C207.121 32.1235 208.645 35.7097 208.645 35.7097H208.739C208.739 35.7097 208.357 32.0288 208.357 29.8771V13.9082H216.696V48.0973H208.307L198.826 32.1733C197.49 29.9269 195.967 26.3406 195.967 26.3406H195.872C195.872 26.3406 196.254 30.0215 196.254 32.1733V48.0973H187.915V13.9082Z" fill="white"/>
<path d="M232.159 21.0807H221.819V13.9082H250.838V21.0807H240.498V48.0973H232.159V21.0807Z" fill="white"/>
<path d="M261.442 13.9082H270.208L281.789 48.0973H273.211L271.117 40.9248H260.489L258.439 48.0973H249.861L261.442 13.9082ZM269.161 34.2304L267.255 27.5858C266.634 25.4341 265.875 21.7034 265.875 21.7034H265.78C265.78 21.7034 265.016 25.4341 264.4 27.5858L262.444 34.2304H269.161Z" fill="white"/>
<path d="M300.974 13.335C305.551 13.335 310.411 14.8691 313.746 18.1665L309.885 24.4773C307.69 22.5646 304.404 20.9906 301.356 20.9906C294.541 20.9906 291.731 25.8221 291.731 30.7433C291.731 35.8139 294.779 41.0239 301.356 41.0239C304.737 41.0239 308.078 39.1561 310.411 36.8151L314.7 42.9366C311.696 46.0447 307.219 48.6746 300.974 48.6746C290.014 48.6746 283.104 41.0738 283.104 30.9376C283.104 20.9857 290.441 13.335 300.974 13.335Z" fill="white"/>
<path d="M328.812 21.0807H318.472V13.9082H347.491V21.0807H337.152V48.0973H328.812V21.0807Z" fill="white"/>
<path fill-rule="evenodd" clip-rule="evenodd" d="M77.2935 27.3568C80.6541 26.4552 84.109 28.4625 85.0075 31.8346C85.9804 35.4856 86.4718 39.2612 86.4669 43.0566C86.4669 66.9751 67.0777 86.4306 43.2408 86.4306C19.4088 86.4306 0.0146484 66.9751 0.0146484 43.0566C0.0146484 23.382 13.2386 6.13801 32.1761 1.11724C35.5417 0.220669 38.9916 2.23794 39.8802 5.61501C40.7687 8.99208 38.7633 12.4538 35.3977 13.3454C21.9851 16.8968 12.6181 29.115 12.6181 43.0566C12.6181 50.528 15.2937 57.3868 19.7265 62.7164C19.2252 61.1623 18.9472 59.5037 18.9472 57.7753C18.9472 48.8993 26.1201 41.7068 34.9609 41.7068C43.8067 41.7068 50.9746 48.9042 50.9746 57.7753C50.9746 65.411 45.6582 71.7916 38.5399 73.4253C40.0738 73.6644 41.6473 73.789 43.2457 73.789C60.1331 73.789 73.8684 60.0067 73.8684 43.0616C73.8684 40.357 73.5209 37.6772 72.8309 35.0971C71.9324 31.725 73.9329 28.2583 77.2935 27.3568ZM70.2943 14.5604C70.2943 20.3456 65.6208 25.0353 59.8551 25.0353C54.0895 25.0353 49.4159 20.3456 49.4159 14.5604C49.4159 8.77532 54.0895 4.08552 59.8551 4.08552C65.6208 4.08552 70.2943 8.77532 70.2943 14.5604Z" fill="#F58A1F"/>
</svg>
