<svg width="760" height="560" viewBox="0 0 760 560" fill="none" xmlns="http://www.w3.org/2000/svg">
<rect width="760" height="560" rx="8" fill="#D4E2E8"/>
<circle cx="518.938" cy="300.938" r="209.938" fill="white" fill-opacity="0.3"/>
<circle cx="671.482" cy="143.482" r="43.4824" fill="#8298A2"/>
<circle cx="683.356" cy="432.744" r="26.4971" fill="white"/>
<circle cx="325.588" cy="214.588" r="13.5882" fill="white"/>
<circle cx="407" cy="471" r="57" fill="#8298A2"/>
<g filter="url(#filter0_di_4188_24570)">
<path fill-rule="evenodd" clip-rule="evenodd" d="M618.754 300.937C618.754 356.002 574.115 400.641 519.05 400.641C500.317 400.641 482.79 395.475 467.818 386.489L422.846 399.275C420.775 399.864 418.874 397.925 419.505 395.866L433.091 351.485C424.356 336.664 419.346 319.386 419.346 300.937C419.346 245.873 463.985 201.234 519.05 201.234C574.115 201.234 618.754 245.873 618.754 300.937ZM477.244 314.836C485.253 314.836 491.746 308.343 491.746 300.334C491.746 292.324 485.253 285.831 477.244 285.831C469.234 285.831 462.741 292.324 462.741 300.334C462.741 308.343 469.234 314.836 477.244 314.836ZM532.836 299.754C532.836 307.443 526.343 313.676 518.334 313.676C510.324 313.676 503.831 307.443 503.831 299.754C503.831 292.065 510.324 285.831 518.334 285.831C526.343 285.831 532.836 292.065 532.836 299.754ZM559.424 314.836C567.434 314.836 573.927 308.343 573.927 300.334C573.927 292.324 567.434 285.831 559.424 285.831C551.415 285.831 544.922 292.324 544.922 300.334C544.922 308.343 551.415 314.836 559.424 314.836Z" fill="url(#paint0_linear_4188_24570)"/>
</g>
<path d="M518.938 432.065C591.357 432.065 650.065 373.358 650.065 300.938C650.065 228.519 591.357 169.812 518.938 169.812C446.519 169.812 387.812 228.519 387.812 300.938" stroke="#223548" stroke-width="11"/>
<rect x="506.029" y="414.4" width="57.0706" height="27.1765" rx="13.5882" fill="#223548"/>
<path d="M678.6 266.288C678.6 248.277 663.999 233.677 645.988 233.677H639.194C633.19 233.677 628.324 238.543 628.324 244.547V350.535C628.324 356.539 633.19 361.406 639.194 361.406H645.988C663.999 361.406 678.6 346.805 678.6 328.794V266.288Z" fill="#223548"/>
<path d="M678.6 266.288C678.6 248.277 663.999 233.677 645.988 233.677H639.194C633.19 233.677 628.324 238.543 628.324 244.547V350.535C628.324 356.539 633.19 361.406 639.194 361.406H645.988C663.999 361.406 678.6 346.805 678.6 328.794V266.288Z" fill="url(#paint1_linear_4188_24570)"/>
<path d="M359.276 266.288C359.276 248.277 373.877 233.677 391.888 233.677H398.682C404.686 233.677 409.553 238.543 409.553 244.547V350.535C409.553 356.539 404.686 361.406 398.682 361.406H391.888C373.877 361.406 359.276 346.805 359.276 328.794V266.288Z" fill="#223548"/>
<path d="M359.276 266.288C359.276 248.277 373.877 233.677 391.888 233.677H398.682C404.686 233.677 409.553 238.543 409.553 244.547V350.535C409.553 356.539 404.686 361.406 398.682 361.406H391.888C373.877 361.406 359.276 346.805 359.276 328.794V266.288Z" fill="url(#paint2_linear_4188_24570)"/>
<path d="M688.112 277.159C688.112 271.906 683.853 267.647 678.6 267.647V328.794C683.853 328.794 688.112 324.536 688.112 319.282V277.159Z" fill="#223548"/>
<path d="M688.112 277.159C688.112 271.906 683.853 267.647 678.6 267.647V328.794C683.853 328.794 688.112 324.536 688.112 319.282V277.159Z" fill="url(#paint3_linear_4188_24570)" fill-opacity="0.2"/>
<path d="M349.765 277.159C349.765 271.906 354.023 267.647 359.276 267.647V328.794C354.023 328.794 349.765 324.536 349.765 319.282V277.159Z" fill="#223548"/>
<path d="M349.765 277.159C349.765 271.906 354.023 267.647 359.276 267.647V328.794C354.023 328.794 349.765 324.536 349.765 319.282V277.159Z" fill="url(#paint4_linear_4188_24570)" fill-opacity="0.2"/>
<rect x="381.5" y="452.5" width="51" height="37" rx="3.93529" stroke="white" stroke-width="3"/>
<rect x="408.5" y="475.5" width="17" height="7" rx="3.5" stroke="white" stroke-width="3"/>
<circle cx="667" cy="147" r="17.5" stroke="white" stroke-width="3"/>
<circle cx="667" cy="147" r="11.5" stroke="white" stroke-width="3"/>
<path d="M671.482 130.735C672.545 125.8 676.954 122.1 682.231 122.1C688.302 122.1 693.224 126.997 693.224 133.038C693.224 138.492 689.213 143.013 683.967 143.841" stroke="white" stroke-width="3"/>
<path d="M467.525 49.8203L452.174 67.0241V49.8203H441.032V93.1688H452.174V74.9168L468.639 93.1688H483L462.759 70.4771L481.514 49.8203H467.525Z" fill="#EF2F24"/>
<path d="M421.348 65.9758H405.997V49.8203H394.855V93.1688H405.997V76.0884H421.348V93.1688H432.49V49.8203H421.348V65.9758Z" fill="#EF2F24"/>
<path d="M98.1087 73.3136C97.8611 81.3914 96.8088 82.9946 92.2283 82.9946V93.1688H93.8996C105.289 93.1688 108.013 87.3109 108.446 74.3002L108.879 59.8713H119.526V93.1688H130.668V49.8203H98.9134L98.1087 73.3136Z" fill="#EF2F24"/>
<path d="M157.594 83.6729H150.414V72.6353H157.594C161.432 72.6353 163.784 74.3002 163.784 77.9383C163.784 81.8847 161.556 83.6729 157.594 83.6729ZM158.461 63.016H150.414V49.8203H139.272V93.1688H158.584C170.717 93.1688 175.05 85.3377 175.05 77.9383C175.05 68.3806 169.046 63.016 158.461 63.016Z" fill="#EF2F24"/>
<path d="M211.323 83.7346V59.1931C217.513 60.0563 221.351 64.681 221.351 71.4638C221.413 78.2467 217.513 82.8714 211.323 83.7346ZM200.181 83.7346C193.991 82.8714 190.153 78.2467 190.153 71.4638C190.153 64.681 193.991 60.0563 200.181 59.1931V83.7346ZM211.323 48.8338V32.74H200.181V48.8338C187.43 49.8821 178.826 58.9464 178.826 71.4638C178.826 84.1046 187.43 93.1073 200.181 94.2172V110.558H211.323V94.2172C224.074 93.2306 232.678 84.1046 232.678 71.4638C232.678 58.8231 224.074 49.8204 211.323 48.8338Z" fill="#EF2F24"/>
<path d="M263.319 77.0134C263.319 82.008 259.79 84.8445 255.148 84.8445C251.124 84.8445 247.967 83.3646 247.967 79.0482C247.967 74.7935 251.434 74.1152 254.467 74.1152H263.38V77.0134H263.319ZM274.46 79.8498V65.2975C274.46 54.6916 267.651 47.9705 256.2 47.9705C244.377 47.9705 238.125 55.0616 237.568 62.4611H248.834C249.205 60.8579 250.939 58.0831 256.2 58.0831C260.533 58.0831 263.319 60.0563 263.319 65.2975H252.238C242.335 65.2975 236.454 70.4772 236.454 79.1099C236.454 88.1125 242.892 94.2788 252.177 94.2788C258.986 94.2788 262.761 91.0723 264.371 88.6675C265.856 91.5656 269.075 93.2305 273.346 93.2305H277.184V83.2412C275.203 83.1796 274.46 82.2546 274.46 79.8498Z" fill="#EF2F24"/>
<path d="M321.628 82.2547H309.743V66.5309H321.628C327.818 66.5309 331.284 69.3674 331.284 74.362C331.284 79.5416 327.818 82.2547 321.628 82.2547ZM322.123 55.9866H309.681V43.7159H338.527V32.6783H297.982V93.169H322.123C335.494 93.169 343.169 86.5711 343.169 74.362C343.169 62.8928 335.555 55.9866 322.123 55.9866Z" fill="#EF2F24"/>
<path d="M374.676 77.0134C374.676 82.008 371.148 84.8445 366.505 84.8445C362.482 84.8445 359.325 83.3646 359.325 79.0482C359.325 74.7935 362.791 74.1152 365.824 74.1152H374.738V77.0134H374.676ZM385.818 79.8498V65.2975C385.818 54.6916 379.009 47.9705 367.557 47.9705C355.735 47.9705 349.483 55.0616 348.926 62.4611H360.191C360.563 60.8579 362.296 58.0831 367.557 58.0831C371.89 58.0831 374.676 60.0563 374.676 65.2975H363.596C353.692 65.2975 347.811 70.4772 347.811 79.1099C347.811 88.1125 354.249 94.2788 363.534 94.2788C370.343 94.2788 374.119 91.0723 375.728 88.6675C377.214 91.5656 380.432 93.2305 384.704 93.2305H388.541V83.2412C386.561 83.1796 385.818 82.2546 385.818 79.8498Z" fill="#EF2F24"/>
<path d="M91.5473 124H32V111.668H91.5473V124Z" fill="#EF2F24"/>
<path d="M53.2935 70.2922L61.6499 45.5657H61.9594L69.8207 70.2922H53.2935ZM72.6061 41.0027C70.9348 35.9464 68.9541 32 62.2689 32C55.5838 32 53.4792 35.9464 51.6841 41.0027L33.238 93.1689H45.4322L49.7033 80.7748H73.2251L77.1867 93.1689H90.1856L72.6061 41.0027Z" fill="#EF2F24"/>
<defs>
<filter id="filter0_di_4188_24570" x="283.464" y="65.3513" width="471.172" height="471.172" filterUnits="userSpaceOnUse" color-interpolation-filters="sRGB">
<feFlood flood-opacity="0" result="BackgroundImageFix"/>
<feColorMatrix in="SourceAlpha" type="matrix" values="0 0 0 0 0 0 0 0 0 0 0 0 0 0 0 0 0 0 127 0" result="hardAlpha"/>
<feOffset/>
<feGaussianBlur stdDeviation="67.9412"/>
<feComposite in2="hardAlpha" operator="out"/>
<feColorMatrix type="matrix" values="0 0 0 0 1 0 0 0 0 1 0 0 0 0 1 0 0 0 1 0"/>
<feBlend mode="normal" in2="BackgroundImageFix" result="effect1_dropShadow_4188_24570"/>
<feBlend mode="normal" in="SourceGraphic" in2="effect1_dropShadow_4188_24570" result="shape"/>
<feColorMatrix in="SourceAlpha" type="matrix" values="0 0 0 0 0 0 0 0 0 0 0 0 0 0 0 0 0 0 127 0" result="hardAlpha"/>
<feOffset/>
<feGaussianBlur stdDeviation="7.53928"/>
<feComposite in2="hardAlpha" operator="arithmetic" k2="-1" k3="1"/>
<feColorMatrix type="matrix" values="0 0 0 0 1 0 0 0 0 0.818719 0 0 0 0 0.808333 0 0 0 1 0"/>
<feBlend mode="overlay" in2="shape" result="effect2_innerShadow_4188_24570"/>
</filter>
<linearGradient id="paint0_linear_4188_24570" x1="519.05" y1="201.234" x2="519.05" y2="400.641" gradientUnits="userSpaceOnUse">
<stop stop-color="#EF2F24"/>
<stop offset="1" stop-color="#C1180F"/>
</linearGradient>
<linearGradient id="paint1_linear_4188_24570" x1="653.462" y1="233.677" x2="653.462" y2="361.406" gradientUnits="userSpaceOnUse">
<stop stop-color="#44607C"/>
<stop offset="1" stop-color="#44607C" stop-opacity="0"/>
</linearGradient>
<linearGradient id="paint2_linear_4188_24570" x1="384.415" y1="233.677" x2="384.415" y2="361.406" gradientUnits="userSpaceOnUse">
<stop stop-color="#44607C"/>
<stop offset="1" stop-color="#44607C" stop-opacity="0"/>
</linearGradient>
<linearGradient id="paint3_linear_4188_24570" x1="683.356" y1="267.647" x2="683.356" y2="328.794" gradientUnits="userSpaceOnUse">
<stop/>
<stop offset="1" stop-opacity="0"/>
</linearGradient>
<linearGradient id="paint4_linear_4188_24570" x1="354.521" y1="267.647" x2="354.521" y2="328.794" gradientUnits="userSpaceOnUse">
<stop/>
<stop offset="1" stop-opacity="0"/>
</linearGradient>
</defs>
</svg>
