<svg width="608" height="448" viewBox="0 0 608 448" fill="none" xmlns="http://www.w3.org/2000/svg">
<g clip-path="url(#clip0_30399_103514)">
<rect width="608" height="448" fill="#CF0A2C"/>
<path d="M596.837 309.165L596.652 311.926C595.73 322.784 588.9 333.735 577.641 333.735C568.966 333.735 562.044 330.514 556.322 323.98C549.493 316.159 543.402 306.773 537.126 289.657C554.753 230.12 609.019 39.4537 609.019 39.4537H506.025C506.025 39.4537 496.519 84.1755 487.936 124.848C487.474 123.836 487.105 122.916 486.644 121.904C478.061 103.592 464.402 83.2553 449.082 68.9922C422.503 44.1467 391.309 32 353.655 32C301.697 32 257.675 51.1402 222.882 89.0526C188.273 126.689 170 174.908 170 228.555C170 288.369 187.35 337.415 221.59 374.408C257.305 413.056 299.943 431 355.87 431C388.448 431 419.55 421.338 448.344 402.382C466.986 390.143 483.967 373.119 500.026 351.126C506.763 372.843 513.592 387.75 521.714 398.885C534.819 416.829 554.569 427.135 575.703 427.135C597.76 427.135 617.879 415.909 628.123 397.781C637.26 381.677 640.951 361.801 640.951 329.042V309.165H596.837ZM424.256 347.262C408.66 370.083 388.264 382.045 365.284 382.045C338.52 382.045 318.309 370.083 303.45 345.421C287.853 319.563 279.916 280.823 279.916 230.212C279.916 183.834 288.315 146.933 304.834 120.616C320.339 95.8621 339.812 84.3595 366.022 84.3595C389.371 84.3595 407.644 94.0217 423.518 114.91C440.499 137.271 454.896 174.263 465.141 221.746C452.22 286.068 439.576 324.901 424.256 347.262Z" fill="#E51633"/>
<rect x="454" y="296" width="132" height="77" rx="4.90853" fill="white"/>
<rect x="287" y="295.8" width="152" height="32" rx="4.90853" fill="#FAD9DF"/>
<rect x="287" y="341.4" width="152" height="32" rx="4.90853" fill="white"/>
<rect x="466.472" y="308.686" width="85.8992" height="6.13566" rx="3.06783" fill="#344154"/>
<rect x="576.833" y="307.942" width="6.13566" height="6.13566" rx="3.06783" fill="#E1E6EE"/>
<rect x="568.243" y="307.942" width="6.13566" height="6.13566" rx="3.06783" fill="#E1E6EE"/>
<rect x="559.653" y="307.942" width="6.13566" height="6.13566" rx="3.06783" fill="#E1E6EE"/>
<rect x="466" y="324" width="116" height="4" rx="2" fill="#E1E6EE"/>
<rect x="466" y="341" width="11.8382" height="3.6814" rx="1.8407" fill="#E1E6EE"/>
<rect x="483.36" y="341" width="11.8382" height="3.6814" rx="1.8407" fill="#E1E6EE"/>
<rect x="500.721" y="341" width="11.8382" height="3.6814" rx="1.8407" fill="#E1E6EE"/>
<rect x="518.081" y="341" width="11.8382" height="3.6814" rx="1.8407" fill="#E1E6EE"/>
<rect x="535.441" y="341" width="11.8382" height="3.6814" rx="1.8407" fill="#A9B4C6"/>
<rect x="552.801" y="341" width="11.8382" height="3.6814" rx="1.8407" fill="#A9B4C6"/>
<rect x="570.162" y="341" width="11.8382" height="3.6814" rx="1.8407" fill="#A9B4C6"/>
<rect x="466" y="350" width="11.8382" height="3.6814" rx="1.8407" fill="#A9B4C6"/>
<rect x="483.36" y="350" width="11.8382" height="3.6814" rx="1.8407" fill="#A9B4C6"/>
<rect x="500.721" y="350" width="11.8382" height="3.6814" rx="1.8407" fill="#A9B4C6"/>
<rect x="518.081" y="350" width="11.8382" height="3.6814" rx="1.8407" fill="#A9B4C6"/>
<rect x="535.441" y="350" width="11.8382" height="3.6814" rx="1.8407" fill="#A9B4C6"/>
<rect x="552.801" y="350" width="11.8382" height="3.6814" rx="1.8407" fill="#A9B4C6"/>
<rect x="570.162" y="350" width="11.8382" height="3.6814" rx="1.8407" fill="#A9B4C6"/>
<rect x="466" y="358" width="11.8382" height="3.6814" rx="1.8407" fill="#344154"/>
<rect x="483.36" y="358" width="11.8382" height="3.6814" rx="1.8407" fill="#344154"/>
<rect x="500.721" y="358" width="11.8382" height="3.6814" rx="1.8407" fill="#E1E6EE"/>
<rect x="518.081" y="358" width="11.8382" height="3.6814" rx="1.8407" fill="white"/>
<rect x="535.441" y="358" width="11.8382" height="3.6814" rx="1.8407" fill="white"/>
<rect x="552.801" y="358" width="11.8382" height="3.6814" rx="1.8407" fill="white"/>
<rect x="570.162" y="358" width="11.8382" height="3.6814" rx="1.8407" fill="#E1E6EE"/>
<rect x="313.4" y="308.6" width="104" height="6.4" rx="3.2" fill="#FDA0B0"/>
<circle cx="300.42" cy="311.753" r="6.74922" fill="#CF0A2C"/>
<rect x="292.933" y="349.794" width="14.7256" height="14.7256" rx="2.45426" fill="#475467"/>
<rect x="313.794" y="349.794" width="14.7256" height="14.7256" rx="2.45426" fill="#475467"/>
<rect x="334.655" y="349.794" width="14.7256" height="14.7256" rx="2.45426" fill="#667285"/>
<rect x="355.517" y="349.794" width="14.7256" height="14.7256" rx="2.45426" fill="#667285"/>
<rect x="376.378" y="349.794" width="14.7256" height="14.7256" rx="2.45426" fill="#E1E6EE"/>
<rect x="397.239" y="349.794" width="14.7256" height="14.7256" rx="2.45426" fill="#E1E6EE"/>
<rect x="418.101" y="349.794" width="14.7256" height="14.7256" rx="2.45426" fill="#E1E6EE"/>
<circle cx="300.295" cy="357.156" r="3.06783" fill="white"/>
<circle cx="321.157" cy="357.156" r="3.06783" fill="white"/>
<circle cx="342.018" cy="357.156" r="3.06783" fill="#D8DDE5"/>
<circle cx="362.879" cy="357.156" r="3.06783" fill="#D8DDE5"/>
<circle cx="383.741" cy="357.156" r="3.06783" fill="#475467"/>
<circle cx="404.602" cy="357.156" r="3.06783" fill="#475467"/>
<circle cx="425.463" cy="357.156" r="3.06783" fill="#475467"/>
<path d="M287 140.999C287 135.697 291.298 131.399 296.6 131.399H493.4C498.702 131.399 503 135.697 503 140.999V271.799C503 277.101 498.702 281.399 493.4 281.399H296.6C291.298 281.399 287 277.101 287 271.799V140.999Z" fill="#F0F2F5"/>
<path d="M287 140.999C287 135.697 291.298 131.399 296.6 131.399H493.4C498.702 131.399 503 135.697 503 140.999V153.259H287V140.999Z" fill="white"/>
<rect x="339.56" y="137.43" width="26.64" height="10.5528" rx="3.2" fill="#E1E6EE"/>
<rect x="469.16" y="140.444" width="26.64" height="4.52261" rx="2.26131" fill="#E1E6EE"/>
<rect x="437.48" y="140.444" width="26.64" height="4.52261" rx="2.26131" fill="#E1E6EE"/>
<rect x="428.12" y="140.444" width="4.32" height="4.52261" rx="2.16" fill="#E1E6EE"/>
<rect x="418.76" y="140.444" width="4.32" height="4.52261" rx="2.16" fill="#E1E6EE"/>
<path d="M287 155.52H309.32V280.645H296.6C291.298 280.645 287 276.347 287 271.045V155.52Z" fill="white"/>
<rect x="287" y="155.52" width="22.32" height="18.0905" fill="#AF0522"/>
<g filter="url(#filter0_d_30399_103514)">
<rect x="287" y="173.61" width="22.32" height="18.0905" fill="white"/>
</g>
<g filter="url(#filter1_d_30399_103514)">
<rect x="287" y="192.454" width="22.32" height="18.0905" fill="white"/>
</g>
<g filter="url(#filter2_d_30399_103514)">
<rect x="287" y="211.299" width="22.32" height="18.0905" fill="white"/>
</g>
<g filter="url(#filter3_d_30399_103514)">
<rect x="287" y="230.143" width="22.32" height="18.0905" fill="white"/>
</g>
<g filter="url(#filter4_d_30399_103514)">
<rect x="287" y="248.987" width="22.32" height="18.0905" fill="white"/>
</g>
<path d="M446.12 156.274H503V271.8C503 277.102 498.702 281.4 493.4 281.4H446.12V156.274Z" fill="white"/>
<rect x="312.2" y="256.524" width="131.04" height="24.8744" fill="white"/>
<rect x="294.2" y="137.43" width="39.6" height="10.5528" rx="5.27638" fill="#CF0A2C"/>
<ellipse cx="297.8" cy="164.565" rx="2.88" ry="3.01508" fill="white"/>
<ellipse cx="297.8" cy="182.656" rx="2.88" ry="3.01508" fill="#475467"/>
<ellipse cx="297.8" cy="201.5" rx="2.88" ry="3.01508" fill="#475467"/>
<ellipse cx="297.8" cy="220.344" rx="2.88" ry="3.01508" fill="#475467"/>
<ellipse cx="297.8" cy="239.189" rx="2.88" ry="3.01508" fill="#475467"/>
<ellipse cx="297.8" cy="258.033" rx="2.88" ry="3.01508" fill="#475467"/>
<path d="M314.137 198.484L323.229 197.526L317.693 189.984L314.137 198.484ZM348.937 171.449L348.307 171.92L349.266 173.227L349.896 172.756L348.937 171.449ZM347.047 172.863L345.787 173.805L346.746 175.111L348.006 174.169L347.047 172.863ZM344.527 174.747L343.267 175.689L344.226 176.996L345.486 176.053L344.527 174.747ZM342.007 176.632L340.747 177.574L341.706 178.88L342.966 177.938L342.007 176.632ZM339.487 178.516L338.227 179.458L339.186 180.764L340.446 179.822L339.487 178.516ZM336.967 180.4L335.707 181.343L336.666 182.649L337.926 181.707L336.967 180.4ZM334.447 182.285L333.187 183.227L334.146 184.533L335.406 183.591L334.447 182.285ZM331.927 184.169L330.667 185.111L331.626 186.418L332.886 185.475L331.927 184.169ZM329.407 186.054L328.147 186.996L329.106 188.302L330.366 187.36L329.407 186.054ZM326.887 187.938L325.627 188.88L326.586 190.187L327.846 189.244L326.887 187.938ZM324.367 189.822L323.107 190.765L324.066 192.071L325.326 191.129L324.367 189.822ZM321.847 191.707L320.587 192.649L321.546 193.955L322.806 193.013L321.847 191.707ZM319.327 193.591L318.067 194.534L319.026 195.84L320.286 194.898L319.327 193.591ZM316.807 195.476L315.547 196.418L316.506 197.724L317.766 196.782L316.807 195.476Z" fill="#D00B2D"/>
<rect x="319.4" y="264.816" width="66.96" height="8.29146" rx="4.14573" fill="#E1E6EE"/>
<rect x="454.04" y="163.812" width="41.76" height="9.799" rx="4.8995" fill="#E1E6EE"/>
<rect x="454.04" y="209.792" width="41.76" height="9.799" rx="4.8995" fill="#E1E6EE"/>
<rect x="454.04" y="178.888" width="34.56" height="3.76884" rx="1.88442" fill="#E1E6EE"/>
<rect x="454.04" y="224.113" width="34.56" height="3.76884" rx="1.88442" fill="#E1E6EE"/>
<rect x="454.04" y="187.179" width="41.76" height="3.76884" rx="1.88442" fill="#E1E6EE"/>
<rect x="454.04" y="232.404" width="41.76" height="3.76884" rx="1.88442" fill="#E1E6EE"/>
<rect x="454.04" y="195.47" width="30.24" height="3.76884" rx="1.88442" fill="#E1E6EE"/>
<rect x="454.04" y="240.696" width="30.24" height="3.76884" rx="1.88442" fill="#E1E6EE"/>
<path d="M314.136 241.45L317.815 250.057L323.244 242.678L314.136 241.45ZM349.886 267.947L349.256 267.462L348.316 268.74L348.946 269.225L349.886 267.947ZM347.996 266.493L346.736 265.524L345.796 266.802L347.056 267.771L347.996 266.493ZM345.476 264.555L344.216 263.586L343.276 264.864L344.536 265.833L345.476 264.555ZM342.956 262.617L341.696 261.648L340.756 262.926L342.016 263.895L342.956 262.617ZM340.436 260.678L339.176 259.709L338.236 260.987L339.496 261.957L340.436 260.678ZM337.916 258.74L336.656 257.771L335.716 259.049L336.976 260.018L337.916 258.74ZM335.396 256.802L334.136 255.833L333.196 257.111L334.456 258.08L335.396 256.802ZM332.876 254.864L331.616 253.894L330.676 255.173L331.936 256.142L332.876 254.864ZM330.356 252.925L329.096 251.956L328.156 253.234L329.416 254.203L330.356 252.925ZM327.836 250.987L326.576 250.018L325.636 251.296L326.896 252.265L327.836 250.987ZM325.316 249.049L324.056 248.08L323.116 249.358L324.376 250.327L325.316 249.049ZM322.796 247.111L321.536 246.141L320.596 247.42L321.856 248.389L322.796 247.111ZM320.276 245.172L319.016 244.203L318.076 245.481L319.336 246.45L320.276 245.172ZM317.756 243.234L316.496 242.265L315.556 243.543L316.816 244.512L317.756 243.234Z" fill="#D00B2D"/>
<g filter="url(#filter5_d_30399_103514)">
<rect x="347.479" y="171.35" width="131.04" height="97.99" fill="white"/>
</g>
<rect x="356.12" y="180.395" width="66.96" height="8.29146" rx="4.14573" fill="#344154"/>
<path d="M356.12 200.178C356.12 198.41 357.552 196.978 359.32 196.978H382.76V207.53H359.32C357.552 207.53 356.12 206.098 356.12 204.33V200.178Z" fill="#646D80"/>
<rect x="356.12" y="254.264" width="6.48" height="6.78392" rx="1.6" fill="#475467"/>
<rect x="385.784" y="254.408" width="6.19111" height="6.49503" rx="0.722222" fill="white" stroke="#98A3B3" stroke-width="0.288889"/>
<rect x="356.12" y="211.3" width="26.64" height="10.5528" rx="3.2" fill="#E1E6EE"/>
<rect x="356.12" y="225.62" width="113.76" height="10.5528" rx="3.2" fill="#E1E6EE"/>
<path d="M356.12 243.142C356.12 241.375 357.552 239.942 359.32 239.942H412.28V250.495H359.32C357.552 250.495 356.12 249.062 356.12 247.295V243.142Z" fill="#E1E6EE"/>
<path d="M413 239.942H465.96C467.727 239.942 469.16 241.375 469.16 243.142V247.295C469.16 249.062 467.727 250.495 465.96 250.495H413V239.942Z" fill="#646D80"/>
<rect x="383.479" y="211.3" width="28.8" height="10.5528" rx="3.2" fill="#E1E6EE"/>
<rect x="413" y="211.3" width="56.88" height="10.5528" rx="3.2" fill="#E1E6EE"/>
<rect x="383.479" y="196.978" width="28.8" height="10.5528" fill="#E1E6EE"/>
<path d="M413 196.978H436.44C438.207 196.978 439.64 198.41 439.64 200.178V204.33C439.64 206.098 438.207 207.53 436.44 207.53H413V196.978Z" fill="#E1E6EE"/>
<rect x="435.32" y="181.902" width="26.64" height="4.52261" rx="2.26131" fill="#E1E6EE"/>
<rect x="465.56" y="181.902" width="4.32" height="4.52261" rx="2.16" fill="#E1E6EE"/>
<rect x="366.2" y="257.279" width="12.96" height="1.50754" rx="0.753769" fill="#E1E6EE"/>
<rect x="395.72" y="257.279" width="27.36" height="1.50754" rx="0.753769" fill="#E1E6EE"/>
<rect x="519" y="131" width="67" height="70" rx="4.02094" fill="#344154"/>
<rect x="524" y="139" width="51" height="4" rx="2" fill="#79859E"/>
<rect x="524" y="148" width="28" height="4" rx="2" fill="#79859E"/>
<rect x="524" y="165" width="29" height="4" rx="2" fill="#79859E"/>
<rect x="525" y="182" width="26" height="10" rx="2.01047" fill="#CF0A2C"/>
<rect x="553" y="182" width="26" height="10" rx="2.01047" fill="#4C5A6F"/>
<rect x="524" y="156" width="41" height="4" rx="2" fill="#79859E"/>
<rect x="519" y="214" width="67" height="67" rx="5.08609" fill="white"/>
<rect x="529.683" y="256.223" width="37.5099" height="5.35762" rx="2.67881" fill="#344154"/>
<rect x="529.683" y="266.572" width="27.3377" height="5.35762" rx="2.67881" fill="#344154"/>
<ellipse cx="543.702" cy="237.259" rx="13.9868" ry="13.4868" fill="#344154"/>
<path d="M78.7006 32H51.7854C40.8707 32 32 40.8707 32 51.7756V78.7006C32 89.6055 40.8707 98.4762 51.7854 98.4762H78.7104C89.6153 98.4762 98.486 89.6055 98.486 78.7006V51.7756C98.4762 40.8707 89.6055 32 78.7006 32Z" fill="white"/>
<path d="M86.2213 73.4092L86.2018 73.7026C86.104 74.8567 85.3802 76.0205 84.1871 76.0205C83.2677 76.0205 82.5342 75.6782 81.9278 74.9838C81.2041 74.1525 80.5586 73.1549 79.8935 71.3358C81.7616 65.008 87.5123 44.7434 87.5123 44.7434H76.5976C76.5976 44.7434 75.5902 49.4966 74.6807 53.8194C74.6318 53.7118 74.5927 53.614 74.5438 53.5065C73.6342 51.5602 72.1867 49.3988 70.5632 47.8828C67.7465 45.2422 64.4408 43.9512 60.4504 43.9512C54.9442 43.9512 50.279 45.9855 46.5919 50.0149C42.9243 54.015 40.9878 59.1399 40.9878 64.8417C40.9878 71.1989 42.8265 76.4118 46.4549 80.3434C50.2399 84.4511 54.7584 86.3582 60.6852 86.3582C64.1376 86.3582 67.4335 85.3313 70.485 83.3166C72.4606 82.0158 74.2601 80.2065 75.9619 77.869C76.6758 80.1771 77.3996 81.7615 78.2602 82.9449C79.649 84.8521 81.742 85.9475 83.9817 85.9475C86.3191 85.9475 88.4512 84.7543 89.5368 82.8276C90.5051 81.116 90.8963 79.0035 90.8963 75.5218V73.4092H86.2213ZM67.9323 77.4582C66.2795 79.8837 64.118 81.1552 61.6828 81.1552C58.8465 81.1552 56.7046 79.8837 55.13 77.2626C53.4771 74.5144 52.636 70.3969 52.636 65.0178C52.636 60.0885 53.526 56.1667 55.2767 53.3695C56.9198 50.7387 58.9834 49.5161 61.761 49.5161C64.2354 49.5161 66.1719 50.543 67.8541 52.7632C69.6536 55.1398 71.1794 59.0714 72.265 64.118C70.8957 70.9544 69.5558 75.0816 67.9323 77.4582Z" fill="#D70926"/>
<path d="M131.758 45.7127C131.005 42.319 128.863 39.9424 124.159 39.9424C119.738 39.9424 117.313 42.3092 116.56 45.7127L113.146 61.0872H116.795C117.626 61.0872 118.457 60.4222 118.633 59.6104L119.328 56.4808H129L129.695 59.6104C129.871 60.4222 130.702 61.0872 131.533 61.0872H135.181L131.758 45.7127ZM120.276 52.1481L121.479 46.7005C121.675 45.8203 122.359 44.4706 124.159 44.4706C125.959 44.4706 126.643 45.8203 126.839 46.7005L128.042 52.1481H120.276Z" fill="white"/>
<path d="M144.169 45.0753H152.307V61.0855H157.343V40.4395H142.145C140.482 40.4395 139.123 41.7989 139.123 43.4615V53.897C139.123 55.2956 138.477 56.1758 137.362 56.4008L136.326 56.6453L137.265 61.0757H138.223C141.675 61.0757 144.16 58.5133 144.16 54.1416V45.0753" fill="white"/>
<path d="M201.149 40.4411H199.31V38.0449H195.779C194.948 38.0449 194.263 38.7198 194.263 39.5511V40.4411H192.425C186.195 40.4411 182.302 44.6857 182.302 50.7592C182.302 56.8425 186.195 61.0871 192.425 61.0871H194.263V63.5909H197.794C198.625 63.5909 199.31 62.9063 199.31 62.0847V61.0871H201.149C207.379 61.0871 211.271 56.8425 211.271 50.7592C211.271 44.6955 207.379 40.4411 201.149 40.4411ZM192.435 56.5296C188.982 56.5296 187.349 54.3486 187.349 50.7592C187.349 47.1797 188.982 44.9987 192.435 44.9987H194.273V56.5296H192.435ZM201.149 56.5296H199.31V45.0084H201.149C204.601 45.0084 206.225 47.1894 206.225 50.769C206.225 54.3486 204.591 56.5296 201.149 56.5296Z" fill="white"/>
<path d="M172.982 45.6826H165.745V40.4502H160.708V59.5803C160.708 60.4116 161.393 61.0963 162.224 61.0963H172.982C177.374 61.0963 180.689 57.7905 180.689 53.3894C180.689 48.9883 177.911 45.6826 172.982 45.6826ZM172.982 56.4604H165.745V50.3184H172.982C174.215 50.3184 175.642 51.4138 175.642 53.3894C175.652 55.3553 174.215 56.4604 172.982 56.4604Z" fill="white"/>
<path d="M230.069 45.7127C229.316 42.319 227.174 39.9424 222.47 39.9424C218.049 39.9424 215.624 42.3092 214.871 45.7127L211.458 61.0872H215.106C215.937 61.0872 216.768 60.4222 216.944 59.6104L217.639 56.4808H227.311L227.996 59.6104C228.172 60.4222 229.003 61.0872 229.835 61.0872H233.483L230.069 45.7127ZM218.587 52.1481L219.79 46.7005C219.986 45.8203 220.67 44.4706 222.47 44.4706C224.27 44.4706 224.954 45.8203 225.15 46.7005L226.353 52.1481H218.587Z" fill="white"/>
<path d="M259.283 79.3547C260.173 78.4842 260.74 77.2911 260.74 75.6382C260.74 71.9804 257.904 69.418 254.246 69.418H241.923C241.091 69.418 240.407 70.0928 240.407 70.9241V88.5481C240.407 89.3794 241.091 90.0543 241.923 90.0543H255.028C258.891 90.0543 261.454 87.2962 261.454 83.6286C261.454 81.7997 260.574 80.3523 259.283 79.3547ZM254.246 73.7017C254.911 73.7017 255.83 74.4548 255.83 75.736C255.83 77.027 254.911 77.692 254.246 77.7703H245.356V73.7017H254.246ZM254.647 85.7803H245.356V81.7117H254.647C255.322 81.79 256.231 82.455 256.231 83.746C256.231 85.0272 255.322 85.7803 254.647 85.7803Z" fill="white"/>
<path d="M225.99 68.9395C219.76 68.9395 215.408 73.3797 215.408 79.7368C215.408 86.094 219.76 90.5342 225.99 90.5342H227.712C233.942 90.5342 238.294 86.094 238.294 79.7368C238.294 73.3797 233.942 68.9395 227.712 68.9395H225.99ZM220.846 79.7368C220.846 76.0399 222.822 73.2036 226.294 73.2036H227.418C230.89 73.2036 232.866 76.0399 232.866 79.7368C232.866 83.4435 230.89 86.27 227.418 86.27H226.294C222.822 86.27 220.846 83.4435 220.846 79.7368Z" fill="white"/>
<path d="M131.924 69.4102L132.589 72.5301C132.765 73.3614 133.587 74.046 134.428 74.046H139.123V90.0562H144.159V74.046H148.707C149.539 74.046 150.36 73.3712 150.536 72.5301L151.201 69.4102H131.924Z" fill="white"/>
<path d="M301.709 69.4102V77.6158H291.9V69.4102H286.863V90.066H291.9V82.0364H301.709V90.066H306.746V69.4102H301.709Z" fill="white"/>
<path d="M190.586 74.6903C189.833 71.2867 187.691 68.9199 182.987 68.9199C178.566 68.9199 176.141 71.2867 175.388 74.6903L171.975 90.0648H175.623C176.454 90.0648 177.285 89.3997 177.461 88.588L178.146 85.4583H187.819L188.513 88.588C188.689 89.3997 189.52 90.0648 190.352 90.0648H194L190.586 74.6903ZM179.114 81.1256L180.317 75.6781C180.513 74.7978 181.197 73.4482 182.997 73.4482C184.796 73.4482 185.481 74.7978 185.677 75.6781L186.88 81.1159H179.114V81.1256Z" fill="white"/>
<path d="M281.219 74.6903C280.466 71.2867 278.324 68.9199 273.62 68.9199C269.199 68.9199 266.774 71.2867 266.021 74.6903L262.607 90.0648H266.255C267.087 90.0648 267.918 89.3997 268.094 88.588L268.789 85.4583H278.461L279.156 88.588C279.332 89.3997 280.163 90.0648 280.994 90.0648H284.652L281.219 74.6903ZM269.737 81.1256L270.94 75.6781C271.136 74.7978 271.82 73.4482 273.62 73.4482C275.42 73.4482 276.104 74.7978 276.3 75.6781L277.503 81.1159H269.737V81.1256Z" fill="white"/>
<path d="M133.499 90.0053V90.064H123.65C117.684 90.064 113.528 85.8194 113.528 79.7361C113.528 73.6626 117.694 69.418 123.65 69.418H131.122L130.389 72.5868C130.203 73.3985 129.372 74.0538 128.54 74.0538H123.65C120.462 74.0538 118.565 76.4304 118.565 79.7459C118.565 83.0614 120.462 85.438 123.65 85.438H130.927C131.758 85.438 132.589 86.103 132.775 86.9148L133.499 90.0053Z" fill="white"/>
<path d="M164.718 69.4102H153.959C153.128 69.4102 152.443 70.0948 152.443 70.9163V90.0562H157.48V84.814H164.708C169.637 84.814 172.415 81.4985 172.415 77.1072C172.424 72.7257 169.119 69.4102 164.718 69.4102ZM164.718 80.188H157.49V74.0558H164.718C165.95 74.0558 167.388 75.1512 167.388 77.1268C167.388 79.0926 165.95 80.188 164.718 80.188Z" fill="white"/>
<path d="M349.477 85.704H338.621V81.743H350.426V77.7527H338.621V73.7721H349.477C350.367 73.7721 351.081 73.3809 351.325 72.2953L352 69.4102H335.09C334.259 69.4102 333.574 70.085 333.574 70.9261V88.5501C333.574 89.3814 334.259 90.066 335.09 90.066H352L351.325 87.1808C351.081 86.0952 350.377 85.704 349.477 85.704Z" fill="white"/>
<path d="M310.208 90.064V69.418H315.245V83.032L323.979 70.6307C324.468 69.9657 325.554 69.418 326.385 69.418H330.121V90.064H325.084V76.4402L316.35 88.8415C315.861 89.5163 314.776 90.064 313.945 90.064H310.208Z" fill="white"/>
<path d="M209.209 79.6285L216.241 69.418H211.615C210.617 69.418 209.913 69.7212 209.287 70.6894L205.541 76.5771H204.876L201.12 70.6894C200.504 69.7212 199.8 69.418 198.793 69.418H194.02L201.208 79.8535L194.177 90.064H198.803C199.81 90.064 200.514 89.7608 201.13 88.7926L204.886 82.9049H205.551L209.297 88.7926C209.913 89.7608 210.617 90.064 211.624 90.064H216.407L209.209 79.6285Z" fill="white"/>
<path d="M113.938 105.821C113.938 103.151 115.738 100.735 118.838 100.735C120.1 100.735 120.912 101.019 121.645 101.488L120.99 102.486C120.423 102.105 119.728 101.85 118.809 101.85C116.52 101.85 115.357 103.718 115.357 105.792C115.357 107.894 116.481 109.841 118.838 109.841C119.904 109.841 120.667 109.489 121.225 109.009L121.821 109.958C121.313 110.437 120.208 110.965 118.809 110.965C115.67 110.965 113.938 108.491 113.938 105.821Z" fill="white"/>
<path d="M123.689 100.911H128.902V102.036H125.029V105.019H128.423V106.134H125.029V109.664H129V110.789H123.689V100.911Z" fill="white"/>
<path d="M131.23 100.911H133.852C135.886 100.911 137.392 101.879 137.392 103.816C137.392 105.791 136.013 106.887 133.685 106.887H132.57V110.789H131.221V100.911H131.23ZM133.695 105.791C135.338 105.791 136.023 105.126 136.023 103.845C136.023 102.75 135.397 102.007 133.734 102.007H132.58V105.791H133.695Z" fill="white"/>
<path d="M139.416 100.911H142.164C144.002 100.911 145.44 101.576 145.44 103.376C145.44 104.559 144.756 105.293 143.68 105.576V105.606C144.883 105.811 145.87 106.662 145.87 108.021C145.87 110.036 144.345 110.799 142.115 110.799H139.416V100.911ZM142.027 105.126C143.455 105.126 144.071 104.608 144.071 103.493C144.071 102.456 143.377 101.997 142.056 101.997H140.746V105.126H142.027ZM142.086 109.704C143.719 109.704 144.472 109.195 144.472 108.012C144.472 106.867 143.866 106.173 142.174 106.173H140.746V109.704H142.086Z" fill="white"/>
<path d="M147.994 100.911H149.236V107.513C149.236 108.256 149.197 108.716 149.177 108.892H149.206C149.373 108.628 149.666 108.109 150.155 107.395L154.576 100.911H155.916V110.789H154.683V103.757C154.683 103.249 154.732 102.808 154.732 102.632H154.703C154.537 102.916 154.224 103.464 153.901 103.953L149.246 110.789H148.003V100.911H147.994Z" fill="white"/>
<path d="M158.058 105.821C158.058 103.151 159.857 100.735 162.958 100.735C164.219 100.735 165.031 101.019 165.764 101.488L165.109 102.486C164.542 102.105 163.848 101.85 162.928 101.85C160.64 101.85 159.476 103.718 159.476 105.792C159.476 107.894 160.6 109.841 162.958 109.841C164.024 109.841 164.786 109.489 165.344 109.009L165.94 109.958C165.432 110.437 164.327 110.965 162.928 110.965C159.799 110.965 158.058 108.491 158.058 105.821Z" fill="white"/>
<path d="M171.065 100.911H176.659V102.036H172.415V104.853H173.989C176.004 104.853 177.52 105.801 177.52 107.728C177.52 109.704 176.141 110.779 173.813 110.779H171.065V100.911ZM173.813 109.694C175.476 109.694 176.16 109.009 176.16 107.777C176.16 106.691 175.525 105.958 173.882 105.958H172.424V109.694H173.813Z" fill="white"/>
<path d="M179.251 110.73L179.427 109.704C179.545 109.733 179.711 109.752 179.907 109.752C180.718 109.752 181.198 109.263 181.657 108.207L181.912 107.64L178.929 100.901H180.22L182.567 106.202L184.895 100.901H186.186L182.763 108.686C182.078 110.232 181.266 110.809 179.917 110.809C179.623 110.819 179.388 110.789 179.251 110.73Z" fill="white"/>
<path d="M186.068 109.664H186.85C187.623 109.009 187.916 108.109 188.112 105.997L188.601 100.911H194.342V109.664H195.349L195.036 112.931H194.117L194.009 110.799H187.369L187.163 112.931H186.244L186.068 109.664ZM192.992 109.664V102.036H189.833L189.432 106.222C189.256 108.119 188.865 109.097 188.337 109.664H192.992Z" fill="white"/>
<path d="M196.993 110.73L197.169 109.704C197.286 109.733 197.452 109.752 197.648 109.752C198.46 109.752 198.939 109.263 199.399 108.207L199.653 107.64L196.67 100.901H197.961L200.308 106.202L202.636 100.901H203.927L200.504 108.686C199.819 110.232 199.007 110.809 197.658 110.809C197.364 110.819 197.13 110.789 196.993 110.73Z" fill="white"/>
<path d="M217.335 110.789H205.608V100.911H206.958V109.664H210.968V100.911H212.298V109.664H216.308V100.911H217.658V109.664H218.685L218.352 112.921H217.433L217.335 110.789Z" fill="white"/>
<path d="M220.739 100.911H225.952V102.036H222.079V105.019H225.473V106.134H222.079V109.664H226.05V110.789H220.739V100.911Z" fill="white"/>
<path d="M228.279 100.911H233.59V102.026H229.629V110.789H228.279V100.911Z" fill="white"/>
<path d="M234.402 105.87C234.402 103.151 236.202 100.735 239.302 100.735C242.383 100.735 244.212 103.122 244.212 105.841C244.212 108.54 242.412 110.975 239.332 110.975C236.231 110.965 234.402 108.569 234.402 105.87ZM242.784 105.87C242.784 103.718 241.61 101.85 239.332 101.85C237.043 101.85 235.82 103.689 235.82 105.841C235.82 107.992 237.023 109.86 239.302 109.86C241.581 109.86 242.784 108.012 242.784 105.87Z" fill="white"/>
<path d="M249.591 100.911H252.329C254.168 100.911 255.606 101.576 255.606 103.376C255.606 104.559 254.921 105.293 253.845 105.576V105.606C255.048 105.811 256.036 106.662 256.036 108.021C256.036 110.036 254.51 110.799 252.28 110.799H249.581V100.911H249.591ZM252.202 105.126C253.63 105.126 254.246 104.608 254.246 103.493C254.246 102.456 253.552 101.997 252.232 101.997H250.931V105.126H252.202ZM252.261 109.704C253.894 109.704 254.647 109.195 254.647 108.012C254.647 106.867 254.041 106.173 252.349 106.173H250.921V109.704H252.261Z" fill="white"/>
<path d="M261.414 100.911H262.763V105.038H268.113V100.911H269.463V110.789H268.113V106.163H262.763V110.789H261.414V100.911Z" fill="white"/>
<path d="M274.923 100.911H276.214L280.028 110.789H278.571L277.71 108.461H273.319L272.468 110.789H271.128L274.923 100.911ZM277.299 107.347L276.126 104.158C275.813 103.327 275.676 102.867 275.529 102.447H275.5C275.363 102.897 275.206 103.395 274.923 104.158L273.739 107.347H277.299Z" fill="white"/>
<path d="M280.692 105.821C280.692 103.151 282.482 100.735 285.592 100.735C286.854 100.735 287.666 101.019 288.399 101.488L287.744 102.486C287.177 102.105 286.482 101.85 285.563 101.85C283.284 101.85 282.101 103.718 282.101 105.792C282.101 107.894 283.225 109.841 285.592 109.841C286.658 109.841 287.411 109.489 287.979 109.009L288.575 109.958C288.067 110.437 286.962 110.965 285.563 110.965C282.423 110.965 280.692 108.491 280.692 105.821Z" fill="white"/>
<path d="M292.252 102.036H289.455V100.911H296.389V102.036H293.601V110.789H292.252V102.036Z" fill="white"/>
<path d="M297.201 105.87C297.201 103.151 299 100.735 302.101 100.735C305.181 100.735 307.01 103.122 307.01 105.841C307.01 108.54 305.22 110.975 302.13 110.975C299.02 110.965 297.201 108.569 297.201 105.87ZM305.582 105.87C305.582 103.718 304.409 101.85 302.13 101.85C299.851 101.85 298.609 103.689 298.609 105.841C298.609 107.992 299.812 109.86 302.101 109.86C304.379 109.86 305.582 108.012 305.582 105.87Z" fill="white"/>
<path d="M308.224 109.674H308.37C309.035 109.674 309.436 108.902 310.297 107.659C310.727 107.024 311.187 106.398 311.51 106.192V106.163C309.994 106.056 308.82 105.224 308.82 103.61C308.82 101.909 310.062 100.911 312.175 100.911H314.982V110.789H313.652V106.32H313.251C312.615 106.339 312.214 107.151 311.353 108.413C310.18 110.144 309.71 110.789 308.771 110.789H308.253L308.224 109.674ZM313.652 105.273V102.007H312.312C310.874 102.007 310.189 102.544 310.189 103.591C310.189 104.647 310.825 105.263 312.224 105.263H313.652V105.273Z" fill="white"/>
<path d="M329.475 110.789H317.758V100.911H319.108V109.664H323.108V100.911H324.448V109.664H328.448V100.911H329.808V109.664H330.825L330.502 112.921H329.583L329.475 110.789Z" fill="white"/>
<path d="M332.889 100.911H338.092V102.036H334.219V105.019H337.622V106.134H334.219V109.664H338.199V110.789H332.889V100.911Z" fill="white"/>
<path d="M341.163 100.911H342.425L344.782 107.513C345.065 108.315 345.232 108.804 345.388 109.303H345.418C345.554 108.833 345.731 108.295 346.014 107.513L348.391 100.911H349.662L351.002 110.789H349.652L348.841 104.588C348.753 103.875 348.704 103.474 348.674 103.19H348.645C348.557 103.513 348.44 103.933 348.215 104.569L346.004 110.789H344.704L342.454 104.569C342.229 103.933 342.102 103.513 341.994 103.19H341.965C341.936 103.532 341.887 103.943 341.818 104.618L341.065 110.789H339.823L341.163 100.911Z" fill="white"/>
</g>
<defs>
<filter id="filter0_d_30399_103514" x="287" y="173.61" width="22.3198" height="18.8908" filterUnits="userSpaceOnUse" color-interpolation-filters="sRGB">
<feFlood flood-opacity="0" result="BackgroundImageFix"/>
<feColorMatrix in="SourceAlpha" type="matrix" values="0 0 0 0 0 0 0 0 0 0 0 0 0 0 0 0 0 0 127 0" result="hardAlpha"/>
<feOffset dy="0.8"/>
<feComposite in2="hardAlpha" operator="out"/>
<feColorMatrix type="matrix" values="0 0 0 0 0.941176 0 0 0 0 0.94902 0 0 0 0 0.960784 0 0 0 1 0"/>
<feBlend mode="normal" in2="BackgroundImageFix" result="effect1_dropShadow_30399_103514"/>
<feBlend mode="normal" in="SourceGraphic" in2="effect1_dropShadow_30399_103514" result="shape"/>
</filter>
<filter id="filter1_d_30399_103514" x="287" y="192.454" width="22.3198" height="18.8908" filterUnits="userSpaceOnUse" color-interpolation-filters="sRGB">
<feFlood flood-opacity="0" result="BackgroundImageFix"/>
<feColorMatrix in="SourceAlpha" type="matrix" values="0 0 0 0 0 0 0 0 0 0 0 0 0 0 0 0 0 0 127 0" result="hardAlpha"/>
<feOffset dy="0.8"/>
<feComposite in2="hardAlpha" operator="out"/>
<feColorMatrix type="matrix" values="0 0 0 0 0.941176 0 0 0 0 0.94902 0 0 0 0 0.960784 0 0 0 1 0"/>
<feBlend mode="normal" in2="BackgroundImageFix" result="effect1_dropShadow_30399_103514"/>
<feBlend mode="normal" in="SourceGraphic" in2="effect1_dropShadow_30399_103514" result="shape"/>
</filter>
<filter id="filter2_d_30399_103514" x="287" y="211.299" width="22.3198" height="18.8908" filterUnits="userSpaceOnUse" color-interpolation-filters="sRGB">
<feFlood flood-opacity="0" result="BackgroundImageFix"/>
<feColorMatrix in="SourceAlpha" type="matrix" values="0 0 0 0 0 0 0 0 0 0 0 0 0 0 0 0 0 0 127 0" result="hardAlpha"/>
<feOffset dy="0.8"/>
<feComposite in2="hardAlpha" operator="out"/>
<feColorMatrix type="matrix" values="0 0 0 0 0.941176 0 0 0 0 0.94902 0 0 0 0 0.960784 0 0 0 1 0"/>
<feBlend mode="normal" in2="BackgroundImageFix" result="effect1_dropShadow_30399_103514"/>
<feBlend mode="normal" in="SourceGraphic" in2="effect1_dropShadow_30399_103514" result="shape"/>
</filter>
<filter id="filter3_d_30399_103514" x="287" y="230.143" width="22.3198" height="18.8908" filterUnits="userSpaceOnUse" color-interpolation-filters="sRGB">
<feFlood flood-opacity="0" result="BackgroundImageFix"/>
<feColorMatrix in="SourceAlpha" type="matrix" values="0 0 0 0 0 0 0 0 0 0 0 0 0 0 0 0 0 0 127 0" result="hardAlpha"/>
<feOffset dy="0.8"/>
<feComposite in2="hardAlpha" operator="out"/>
<feColorMatrix type="matrix" values="0 0 0 0 0.941176 0 0 0 0 0.94902 0 0 0 0 0.960784 0 0 0 1 0"/>
<feBlend mode="normal" in2="BackgroundImageFix" result="effect1_dropShadow_30399_103514"/>
<feBlend mode="normal" in="SourceGraphic" in2="effect1_dropShadow_30399_103514" result="shape"/>
</filter>
<filter id="filter4_d_30399_103514" x="287" y="248.987" width="22.3198" height="18.8908" filterUnits="userSpaceOnUse" color-interpolation-filters="sRGB">
<feFlood flood-opacity="0" result="BackgroundImageFix"/>
<feColorMatrix in="SourceAlpha" type="matrix" values="0 0 0 0 0 0 0 0 0 0 0 0 0 0 0 0 0 0 127 0" result="hardAlpha"/>
<feOffset dy="0.8"/>
<feComposite in2="hardAlpha" operator="out"/>
<feColorMatrix type="matrix" values="0 0 0 0 0.941176 0 0 0 0 0.94902 0 0 0 0 0.960784 0 0 0 1 0"/>
<feBlend mode="normal" in2="BackgroundImageFix" result="effect1_dropShadow_30399_103514"/>
<feBlend mode="normal" in="SourceGraphic" in2="effect1_dropShadow_30399_103514" result="shape"/>
</filter>
<filter id="filter5_d_30399_103514" x="337.319" y="161.19" width="151.36" height="118.31" filterUnits="userSpaceOnUse" color-interpolation-filters="sRGB">
<feFlood flood-opacity="0" result="BackgroundImageFix"/>
<feColorMatrix in="SourceAlpha" type="matrix" values="0 0 0 0 0 0 0 0 0 0 0 0 0 0 0 0 0 0 127 0" result="hardAlpha"/>
<feOffset/>
<feGaussianBlur stdDeviation="5.08"/>
<feComposite in2="hardAlpha" operator="out"/>
<feColorMatrix type="matrix" values="0 0 0 0 0.882353 0 0 0 0 0.901961 0 0 0 0 0.933333 0 0 0 1 0"/>
<feBlend mode="multiply" in2="BackgroundImageFix" result="effect1_dropShadow_30399_103514"/>
<feBlend mode="normal" in="SourceGraphic" in2="effect1_dropShadow_30399_103514" result="shape"/>
</filter>
<clipPath id="clip0_30399_103514">
<rect width="608" height="448" fill="white"/>
</clipPath>
</defs>
</svg>
