<svg width="760" height="560" viewBox="0 0 760 560" fill="none" xmlns="http://www.w3.org/2000/svg">
<g clip-path="url(#clip0_4286_51769)">
<rect width="760" height="560" fill="#CF0A2C"/>
<path d="M705.598 390.27L705.367 393.729C704.214 407.337 695.677 421.059 681.603 421.059C670.759 421.059 662.107 417.023 654.954 408.836C646.418 399.034 638.804 387.272 630.959 365.824C652.993 291.216 720.826 52.2857 720.826 52.2857H592.082C592.082 52.2857 580.2 108.328 569.472 159.297C568.895 158.028 568.433 156.875 567.857 155.607C557.128 132.659 540.054 107.175 520.904 89.3014C487.68 58.1667 448.688 42.9453 401.621 42.9453C336.672 42.9453 281.645 66.9306 238.154 114.44C194.893 161.603 172.052 222.027 172.052 289.255C172.052 364.209 193.74 425.671 236.539 472.027C281.184 520.459 334.481 542.945 404.39 542.945C445.112 542.945 483.989 530.837 519.982 507.083C543.285 491.746 564.511 470.413 584.584 442.853C593.005 470.067 601.542 488.748 611.694 502.701C628.075 525.187 652.762 538.102 679.18 538.102C706.752 538.102 731.9 524.034 744.705 501.317C756.126 481.137 760.741 456.23 760.741 415.178V390.27H705.598ZM489.872 438.01C470.376 466.608 444.881 481.598 416.156 481.598C382.702 481.598 357.437 466.608 338.864 435.704C319.368 403.301 309.447 354.753 309.447 291.331C309.447 233.213 319.945 186.972 340.595 153.992C359.975 122.973 384.317 108.559 417.079 108.559C446.266 108.559 469.107 120.667 488.949 146.843C510.176 174.864 528.172 221.22 540.977 280.722C524.827 361.326 509.022 409.989 489.872 438.01Z" fill="#E51633"/>
<path d="M90.3757 32H56.7318C43.0883 32 32 43.0883 32 56.7195V90.3757C32 104.007 43.0883 115.095 56.7318 115.095H90.388C104.019 115.095 115.107 104.007 115.107 90.3757V56.7195C115.095 43.0883 104.007 32 90.3757 32Z" fill="white"/>
<path d="M99.7768 83.762L99.7524 84.1288C99.6301 85.5714 98.7254 87.0262 97.2339 87.0262C96.0848 87.0262 95.1679 86.5983 94.4099 85.7303C93.5052 84.6911 92.6984 83.4442 91.867 81.1703C94.2021 73.2605 101.391 47.9297 101.391 47.9297H87.7471C87.7471 47.9297 86.4879 53.8712 85.351 59.2748C85.2898 59.1403 85.2409 59.018 85.1798 58.8836C84.0429 56.4507 82.2335 53.7489 80.2041 51.854C76.6832 48.5532 72.5511 46.9395 67.5632 46.9395C60.6803 46.9395 54.8489 49.4823 50.24 54.5191C45.6555 59.5193 43.2349 65.9253 43.2349 73.0527C43.2349 80.9991 45.5332 87.5152 50.0688 92.4297C54.8 97.5644 60.4481 99.9483 67.8566 99.9483C72.1721 99.9483 76.292 98.6646 80.1063 96.1462C82.5758 94.5203 84.8253 92.2586 86.9525 89.3367C87.8449 92.2219 88.7496 94.2024 89.8254 95.6817C91.5614 98.0656 94.1776 99.4348 96.9772 99.4348C99.8991 99.4348 102.564 97.9433 103.921 95.535C105.131 93.3955 105.62 90.7549 105.62 86.4027V83.762H99.7768ZM76.9155 88.8233C74.8494 91.8552 72.1477 93.4444 69.1036 93.4444C65.5582 93.4444 62.8809 91.8552 60.9126 88.5788C58.8466 85.1435 57.7952 79.9966 57.7952 73.2727C57.7952 67.1112 58.9077 62.2088 61.096 58.7124C63.1498 55.4238 65.7294 53.8956 69.2014 53.8956C72.2944 53.8956 74.715 55.1793 76.8177 57.9544C79.0672 60.9252 80.9743 65.8397 82.3313 72.148C80.6198 80.6935 78.9449 85.8525 76.9155 88.8233Z" fill="#D70926"/>
<path d="M156.698 49.1407C155.756 44.8985 153.079 41.9277 147.199 41.9277C141.673 41.9277 138.641 44.8863 137.7 49.1407L133.433 68.3588H137.993C139.032 68.3588 140.071 67.5275 140.291 66.5128L141.159 62.6007H153.25L154.118 66.5128C154.338 67.5275 155.377 68.3588 156.417 68.3588H160.977L156.698 49.1407ZM142.345 57.1849L143.849 50.3754C144.094 49.2751 144.949 47.588 147.199 47.588C149.448 47.588 150.304 49.2751 150.549 50.3754L152.052 57.1849H142.345Z" fill="white"/>
<path d="M172.212 48.3446H182.383V68.3574H188.679V42.5498H169.681C167.603 42.5498 165.904 44.2491 165.904 46.3274V59.3718C165.904 61.12 165.097 62.2203 163.703 62.5015L162.407 62.8071L163.581 68.3452H164.779C169.094 68.3452 172.2 65.1421 172.2 59.6774V48.3446" fill="white"/>
<path d="M243.436 42.5509H241.137V39.5557H236.724C235.685 39.5557 234.829 40.3992 234.829 41.4384V42.5509H232.531C224.743 42.5509 219.877 47.8566 219.877 55.4485C219.877 63.0527 224.743 68.3584 232.531 68.3584H234.829V71.4881H239.242C240.281 71.4881 241.137 70.6323 241.137 69.6054V68.3584H243.436C251.223 68.3584 256.089 63.0527 256.089 55.4485C256.089 47.8689 251.223 42.5509 243.436 42.5509ZM232.543 62.6615C228.227 62.6615 226.186 59.9352 226.186 55.4485C226.186 50.9741 228.227 48.2478 232.543 48.2478H234.841V62.6615H232.543ZM243.436 62.6615H241.137V48.2601H243.436C247.751 48.2601 249.78 50.9863 249.78 55.4608C249.78 59.9352 247.739 62.6615 243.436 62.6615Z" fill="white"/>
<path d="M208.228 49.103H199.181V42.5625H192.885V66.4752C192.885 67.5143 193.741 68.3701 194.78 68.3701H208.228C213.717 68.3701 217.861 64.2379 217.861 58.7366C217.861 53.2352 214.389 49.103 208.228 49.103ZM208.228 62.5753H199.181V54.8978H208.228C209.768 54.8978 211.553 56.267 211.553 58.7366C211.565 61.1938 209.768 62.5753 208.228 62.5753Z" fill="white"/>
<path d="M279.586 49.1407C278.645 44.8985 275.968 41.9277 270.087 41.9277C264.562 41.9277 261.53 44.8863 260.588 49.1407L256.322 68.3588H260.882C261.921 68.3588 262.96 67.5275 263.18 66.5128L264.048 62.6007H276.139L276.995 66.5128C277.215 67.5275 278.254 68.3588 279.293 68.3588H283.853L279.586 49.1407ZM265.234 57.1849L266.738 50.3754C266.982 49.2751 267.838 47.588 270.087 47.588C272.337 47.588 273.193 49.2751 273.437 50.3754L274.941 57.1849H265.234Z" fill="white"/>
<path d="M316.103 91.1934C317.216 90.1053 317.925 88.6138 317.925 86.5477C317.925 81.9755 314.379 78.7725 309.807 78.7725H294.403C293.364 78.7725 292.508 79.616 292.508 80.6552V102.685C292.508 103.724 293.364 104.568 294.403 104.568H310.785C315.614 104.568 318.817 101.12 318.817 96.5358C318.817 94.2497 317.717 92.4403 316.103 91.1934ZM309.807 84.1271C310.638 84.1271 311.788 85.0685 311.788 86.67C311.788 88.2837 310.638 89.115 309.807 89.2129H298.694V84.1271H309.807ZM310.308 99.2254H298.694V94.1396H310.308C311.152 94.2374 312.289 95.0688 312.289 96.6825C312.289 98.284 311.152 99.2254 310.308 99.2254Z" fill="white"/>
<path d="M274.488 78.1738C266.701 78.1738 261.26 83.7241 261.26 91.6705C261.26 99.617 266.701 105.167 274.488 105.167H276.64C284.427 105.167 289.867 99.617 289.867 91.6705C289.867 83.7241 284.427 78.1738 276.64 78.1738H274.488ZM268.058 91.6705C268.058 87.0494 270.527 83.5041 274.867 83.5041H276.273C280.613 83.5041 283.082 87.0494 283.082 91.6705C283.082 96.3039 280.613 99.837 276.273 99.837H274.867C270.527 99.837 268.058 96.3039 268.058 91.6705Z" fill="white"/>
<path d="M156.905 78.7627L157.737 82.6626C157.957 83.7017 158.984 84.5575 160.035 84.5575H165.903V104.57H172.199V84.5575H177.884C178.923 84.5575 179.95 83.7139 180.17 82.6626L181.001 78.7627H156.905Z" fill="white"/>
<path d="M369.137 78.7627V89.0197H356.875V78.7627H350.579V104.582H356.875V94.5455H369.137V104.582H375.433V78.7627H369.137Z" fill="white"/>
<path d="M230.233 85.3633C229.292 81.1089 226.614 78.1504 220.734 78.1504C215.208 78.1504 212.176 81.1089 211.235 85.3633L206.968 104.581H211.528C212.567 104.581 213.607 103.75 213.827 102.735L214.682 98.8233H226.773L227.641 102.735C227.861 103.75 228.9 104.581 229.94 104.581H234.5L230.233 85.3633ZM215.893 93.4075L217.396 86.5981C217.641 85.4978 218.497 83.8107 220.746 83.8107C222.996 83.8107 223.851 85.4978 224.096 86.5981L225.6 93.3953H215.893V93.4075Z" fill="white"/>
<path d="M343.524 85.3633C342.583 81.1089 339.905 78.1504 334.025 78.1504C328.499 78.1504 325.467 81.1089 324.526 85.3633L320.259 104.581H324.819C325.858 104.581 326.898 103.75 327.118 102.735L327.986 98.8233H340.076L340.944 102.735C341.164 103.75 342.204 104.581 343.243 104.581H347.815L343.524 85.3633ZM329.172 93.4075L330.675 86.5981C330.92 85.4978 331.776 83.8107 334.025 83.8107C336.274 83.8107 337.13 85.4978 337.375 86.5981L338.878 93.3953H329.172V93.4075Z" fill="white"/>
<path d="M158.874 104.507V104.58H146.563C139.106 104.58 133.91 99.2743 133.91 91.6701C133.91 84.0782 139.118 78.7725 146.563 78.7725H155.903L154.987 82.7335C154.754 83.7481 153.715 84.5672 152.676 84.5672H146.563C142.578 84.5672 140.206 87.538 140.206 91.6824C140.206 95.8267 142.578 98.7975 146.563 98.7975H155.659C156.698 98.7975 157.737 99.6288 157.97 100.643L158.874 104.507Z" fill="white"/>
<path d="M197.897 78.7627H184.449C183.41 78.7627 182.554 79.6185 182.554 80.6454V104.57H188.85V98.0175H197.885C204.046 98.0175 207.518 93.8731 207.518 88.384C207.53 82.9071 203.398 78.7627 197.897 78.7627ZM197.897 92.235H188.862V84.5697H197.897C199.437 84.5697 201.234 85.9389 201.234 88.4085C201.234 90.8657 199.437 92.235 197.897 92.235Z" fill="white"/>
<path d="M428.846 99.13H415.276V94.1788H430.032V89.1909H415.276V84.2152H428.846C429.959 84.2152 430.851 83.7262 431.157 82.3692L432 78.7627H410.863C409.824 78.7627 408.968 79.6062 408.968 80.6576V102.688C408.968 103.727 409.824 104.582 410.863 104.582H432L431.157 100.976C430.851 99.619 429.971 99.13 428.846 99.13Z" fill="white"/>
<path d="M379.76 104.58V78.7725H386.056V95.7901L396.973 80.2884C397.585 79.4571 398.942 78.7725 399.981 78.7725H404.651V104.58H398.355V87.5502L387.438 103.052C386.826 103.895 385.469 104.58 384.43 104.58H379.76Z" fill="white"/>
<path d="M253.511 91.5357L262.301 78.7725H256.518C255.271 78.7725 254.391 79.1514 253.609 80.3617L248.926 87.7214H248.095L243.4 80.3617C242.63 79.1514 241.75 78.7725 240.491 78.7725H234.525L243.51 91.8168L234.721 104.58H240.503C241.762 104.58 242.642 104.201 243.413 102.991L248.107 95.6311H248.939L253.621 102.991C254.391 104.201 255.271 104.58 256.53 104.58H262.509L253.511 91.5357Z" fill="white"/>
<path d="M134.423 124.276C134.423 120.939 136.673 117.919 140.548 117.919C142.125 117.919 143.14 118.273 144.057 118.86L143.238 120.107C142.529 119.63 141.661 119.313 140.512 119.313C137.651 119.313 136.196 121.648 136.196 124.239C136.196 126.868 137.602 129.301 140.548 129.301C141.881 129.301 142.834 128.861 143.531 128.262L144.277 129.447C143.641 130.046 142.26 130.707 140.512 130.707C136.587 130.707 134.423 127.614 134.423 124.276Z" fill="white"/>
<path d="M146.612 118.139H153.128V119.545H148.287V123.273H152.529V124.667H148.287V129.08H153.25V130.486H146.612V118.139Z" fill="white"/>
<path d="M156.038 118.139H159.314C161.857 118.139 163.74 119.349 163.74 121.77C163.74 124.239 162.016 125.608 159.107 125.608H157.713V130.486H156.026V118.139H156.038ZM159.119 124.239C161.173 124.239 162.028 123.408 162.028 121.806C162.028 120.437 161.246 119.508 159.168 119.508H157.725V124.239H159.119Z" fill="white"/>
<path d="M166.27 118.139H169.705C172.003 118.139 173.8 118.97 173.8 121.219C173.8 122.699 172.945 123.616 171.6 123.97V124.007C173.103 124.264 174.338 125.327 174.338 127.026C174.338 129.545 172.431 130.498 169.644 130.498H166.27V118.139ZM169.534 123.408C171.319 123.408 172.089 122.76 172.089 121.366C172.089 120.07 171.221 119.496 169.57 119.496H167.932V123.408H169.534ZM169.607 129.129C171.649 129.129 172.59 128.493 172.59 127.014C172.59 125.584 171.832 124.716 169.717 124.716H167.932V129.129H169.607Z" fill="white"/>
<path d="M176.992 118.139H178.545V126.391C178.545 127.32 178.496 127.894 178.471 128.114H178.508C178.716 127.784 179.083 127.136 179.694 126.244L185.22 118.139H186.895V130.486H185.354V121.696C185.354 121.061 185.415 120.51 185.415 120.29H185.379C185.171 120.645 184.78 121.329 184.376 121.941L178.557 130.486H177.004V118.139H176.992Z" fill="white"/>
<path d="M189.572 124.276C189.572 120.939 191.822 117.919 195.697 117.919C197.274 117.919 198.289 118.273 199.206 118.86L198.387 120.107C197.678 119.63 196.81 119.313 195.66 119.313C192.8 119.313 191.345 121.648 191.345 124.239C191.345 126.868 192.751 129.301 195.697 129.301C197.03 129.301 197.983 128.861 198.68 128.262L199.426 129.447C198.79 130.046 197.409 130.707 195.66 130.707C191.748 130.707 189.572 127.614 189.572 124.276Z" fill="white"/>
<path d="M205.831 118.139H212.824V119.545H207.518V123.065H209.486C212.005 123.065 213.9 124.251 213.9 126.66C213.9 129.129 212.176 130.474 209.266 130.474H205.831V118.139ZM209.266 129.117C211.345 129.117 212.2 128.261 212.2 126.721C212.2 125.364 211.406 124.447 209.352 124.447H207.53V129.117H209.266Z" fill="white"/>
<path d="M216.064 130.413L216.284 129.13C216.431 129.166 216.639 129.191 216.883 129.191C217.898 129.191 218.497 128.58 219.071 127.259L219.389 126.55L215.661 118.127H217.274L220.208 124.753L223.118 118.127H224.732L220.453 127.858C219.597 129.79 218.582 130.511 216.895 130.511C216.529 130.523 216.235 130.487 216.064 130.413Z" fill="white"/>
<path d="M224.585 129.08H225.563C226.529 128.261 226.896 127.136 227.14 124.496L227.751 118.139H234.928V129.08H236.187L235.796 133.164H234.646L234.512 130.498H226.211L225.954 133.164H224.805L224.585 129.08ZM233.24 129.08V119.545H229.292L228.79 124.777C228.57 127.149 228.081 128.371 227.421 129.08H233.24Z" fill="white"/>
<path d="M238.241 130.413L238.461 129.13C238.608 129.166 238.815 129.191 239.06 129.191C240.075 129.191 240.674 128.58 241.248 127.259L241.566 126.55L237.837 118.127H239.451L242.385 124.753L245.295 118.127H246.909L242.63 127.858C241.774 129.79 240.759 130.511 239.072 130.511C238.705 130.523 238.412 130.487 238.241 130.413Z" fill="white"/>
<path d="M263.669 130.486H249.011V118.139H250.698V129.08H255.71V118.139H257.373V129.08H262.385V118.139H264.072V129.08H265.356L264.94 133.151H263.791L263.669 130.486Z" fill="white"/>
<path d="M267.924 118.139H274.44V119.545H269.599V123.273H273.841V124.667H269.599V129.08H274.563V130.486H267.924V118.139Z" fill="white"/>
<path d="M277.349 118.139H283.987V119.532H279.036V130.486H277.349V118.139Z" fill="white"/>
<path d="M285.003 124.337C285.003 120.939 287.252 117.919 291.128 117.919C294.979 117.919 297.265 120.902 297.265 124.301C297.265 127.675 295.015 130.719 291.164 130.719C287.289 130.707 285.003 127.711 285.003 124.337ZM295.48 124.337C295.48 121.648 294.013 119.313 291.164 119.313C288.304 119.313 286.776 121.611 286.776 124.301C286.776 126.99 288.279 129.325 291.128 129.325C293.976 129.325 295.48 127.015 295.48 124.337Z" fill="white"/>
<path d="M303.988 118.139H307.411C309.71 118.139 311.507 118.97 311.507 121.219C311.507 122.699 310.651 123.616 309.306 123.97V124.007C310.81 124.264 312.045 125.327 312.045 127.026C312.045 129.545 310.138 130.498 307.35 130.498H303.976V118.139H303.988ZM307.252 123.408C309.037 123.408 309.808 122.76 309.808 121.366C309.808 120.07 308.94 119.496 307.289 119.496H305.663V123.408H307.252ZM307.326 129.129C309.367 129.129 310.309 128.493 310.309 127.014C310.309 125.584 309.551 124.716 307.436 124.716H305.651V129.129H307.326Z" fill="white"/>
<path d="M318.767 118.139H320.454V123.298H327.141V118.139H328.829V130.486H327.141V124.704H320.454V130.486H318.767V118.139Z" fill="white"/>
<path d="M335.653 118.139H337.267L342.035 130.486H340.213L339.137 127.577H333.648L332.585 130.486H330.91L335.653 118.139ZM338.624 126.183L337.157 122.197C336.766 121.158 336.594 120.584 336.411 120.058H336.374C336.203 120.62 336.008 121.244 335.653 122.197L334.174 126.183H338.624Z" fill="white"/>
<path d="M342.865 124.276C342.865 120.939 345.102 117.919 348.99 117.919C350.567 117.919 351.582 118.273 352.499 118.86L351.68 120.107C350.971 119.63 350.103 119.313 348.953 119.313C346.105 119.313 344.626 121.648 344.626 124.239C344.626 126.868 346.032 129.301 348.99 129.301C350.323 129.301 351.264 128.861 351.973 128.262L352.719 129.447C352.083 130.046 350.702 130.707 348.953 130.707C345.029 130.707 342.865 127.614 342.865 124.276Z" fill="white"/>
<path d="M357.315 119.545H353.818V118.139H362.486V119.545H359.002V130.486H357.315V119.545Z" fill="white"/>
<path d="M363.501 124.337C363.501 120.939 365.75 117.919 369.626 117.919C373.477 117.919 375.763 120.902 375.763 124.301C375.763 127.675 373.526 130.719 369.663 130.719C365.775 130.707 363.501 127.711 363.501 124.337ZM373.978 124.337C373.978 121.648 372.511 119.313 369.663 119.313C366.814 119.313 365.261 121.611 365.261 124.301C365.261 126.99 366.765 129.325 369.626 129.325C372.474 129.325 373.978 127.015 373.978 124.337Z" fill="white"/>
<path d="M377.28 129.093H377.463C378.295 129.093 378.796 128.127 379.872 126.574C380.409 125.779 380.984 124.997 381.388 124.74V124.704C379.493 124.569 378.026 123.53 378.026 121.513C378.026 119.386 379.578 118.139 382.219 118.139H385.727V130.486H384.065V124.899H383.564C382.769 124.924 382.268 125.938 381.192 127.515C379.725 129.679 379.138 130.486 377.964 130.486H377.316L377.28 129.093ZM384.065 123.591V119.508H382.39C380.593 119.508 379.737 120.18 379.737 121.488C379.737 122.809 380.532 123.579 382.28 123.579H384.065V123.591Z" fill="white"/>
<path d="M403.844 130.486H389.198V118.139H390.885V129.08H395.885V118.139H397.56V129.08H402.561V118.139H404.26V129.08H405.531L405.128 133.151H403.979L403.844 130.486Z" fill="white"/>
<path d="M408.111 118.139H414.615V119.545H409.773V123.273H414.028V124.667H409.773V129.08H414.749V130.486H408.111V118.139Z" fill="white"/>
<path d="M418.454 118.139H420.031L422.978 126.391C423.332 127.393 423.54 128.004 423.735 128.628H423.772C423.943 128.041 424.163 127.369 424.518 126.391L427.489 118.139H429.078L430.753 130.486H429.066L428.051 122.735C427.941 121.843 427.88 121.342 427.843 120.987H427.807C427.696 121.391 427.55 121.916 427.269 122.711L424.506 130.486H422.88L420.068 122.711C419.787 121.916 419.628 121.391 419.493 120.987H419.457C419.42 121.415 419.359 121.929 419.273 122.772L418.332 130.486H416.779L418.454 118.139Z" fill="white"/>
<rect x="509" y="406" width="200.943" height="96.6366" rx="6.13566" fill="white"/>
<rect x="300" y="406" width="190" height="40" rx="6.13566" fill="#FAD9DF"/>
<rect x="300" y="463" width="190" height="40" rx="6.13566" fill="white"/>
<rect x="524.339" y="422.106" width="107.374" height="7.66957" rx="3.83479" fill="#344154"/>
<rect x="682.291" y="421.178" width="7.66957" height="7.66957" rx="3.83479" fill="#E1E6EE"/>
<rect x="671.554" y="421.178" width="7.66957" height="7.66957" rx="3.83479" fill="#E1E6EE"/>
<rect x="660.816" y="421.178" width="7.66957" height="7.66957" rx="3.83479" fill="#E1E6EE"/>
<rect x="524.339" y="441.279" width="170.265" height="4.60174" rx="2.30087" fill="#E1E6EE"/>
<rect x="524.339" y="452.018" width="18.407" height="4.60174" rx="2.30087" fill="white"/>
<rect x="549.649" y="452.018" width="18.407" height="4.60174" rx="2.30087" fill="white"/>
<rect x="574.958" y="452.018" width="18.407" height="4.60174" rx="2.30087" fill="white"/>
<rect x="600.268" y="452.018" width="18.407" height="4.60174" rx="2.30087" fill="white"/>
<rect x="625.578" y="452.018" width="18.407" height="4.60174" rx="2.30087" fill="white"/>
<rect x="650.887" y="452.018" width="18.407" height="4.60174" rx="2.30087" fill="#E1E6EE"/>
<rect x="676.197" y="452.018" width="18.407" height="4.60174" rx="2.30087" fill="#E1E6EE"/>
<rect x="524.339" y="462.755" width="18.407" height="4.60174" rx="2.30087" fill="#E1E6EE"/>
<rect x="549.649" y="462.755" width="18.407" height="4.60174" rx="2.30087" fill="#E1E6EE"/>
<rect x="574.958" y="462.755" width="18.407" height="4.60174" rx="2.30087" fill="#E1E6EE"/>
<rect x="600.268" y="462.755" width="18.407" height="4.60174" rx="2.30087" fill="#E1E6EE"/>
<rect x="625.578" y="462.755" width="18.407" height="4.60174" rx="2.30087" fill="#A9B4C6"/>
<rect x="650.887" y="462.755" width="18.407" height="4.60174" rx="2.30087" fill="#A9B4C6"/>
<rect x="676.197" y="462.755" width="18.407" height="4.60174" rx="2.30087" fill="#A9B4C6"/>
<rect x="524.339" y="473.492" width="18.407" height="4.60174" rx="2.30087" fill="#A9B4C6"/>
<rect x="549.649" y="473.492" width="18.407" height="4.60174" rx="2.30087" fill="#A9B4C6"/>
<rect x="574.958" y="473.492" width="18.407" height="4.60174" rx="2.30087" fill="#A9B4C6"/>
<rect x="600.268" y="473.492" width="18.407" height="4.60174" rx="2.30087" fill="#A9B4C6"/>
<rect x="625.578" y="473.492" width="18.407" height="4.60174" rx="2.30087" fill="#A9B4C6"/>
<rect x="650.887" y="473.492" width="18.407" height="4.60174" rx="2.30087" fill="#A9B4C6"/>
<rect x="676.197" y="473.492" width="18.407" height="4.60174" rx="2.30087" fill="#A9B4C6"/>
<rect x="524.339" y="484.229" width="18.407" height="4.60174" rx="2.30087" fill="#344154"/>
<rect x="549.649" y="484.229" width="18.407" height="4.60174" rx="2.30087" fill="#344154"/>
<rect x="574.958" y="484.229" width="18.407" height="4.60174" rx="2.30087" fill="#E1E6EE"/>
<rect x="600.268" y="484.229" width="18.407" height="4.60174" rx="2.30087" fill="white"/>
<rect x="625.578" y="484.229" width="18.407" height="4.60174" rx="2.30087" fill="white"/>
<rect x="650.887" y="484.229" width="18.407" height="4.60174" rx="2.30087" fill="white"/>
<rect x="676.197" y="484.229" width="18.407" height="4.60174" rx="2.30087" fill="#E1E6EE"/>
<rect x="333" y="422" width="130" height="8" rx="4" fill="#FDA0B0"/>
<circle cx="316.775" cy="425.941" r="8.43653" fill="#CF0A2C"/>
<rect x="307.416" y="473.492" width="18.407" height="18.407" rx="3.06783" fill="#475467"/>
<rect x="333.492" y="473.492" width="18.407" height="18.407" rx="3.06783" fill="#475467"/>
<rect x="359.569" y="473.492" width="18.407" height="18.407" rx="3.06783" fill="#667285"/>
<rect x="385.646" y="473.492" width="18.407" height="18.407" rx="3.06783" fill="#667285"/>
<rect x="411.722" y="473.492" width="18.407" height="18.407" rx="3.06783" fill="#E1E6EE"/>
<rect x="437.799" y="473.492" width="18.407" height="18.407" rx="3.06783" fill="#E1E6EE"/>
<rect x="463.875" y="473.492" width="18.407" height="18.407" rx="3.06783" fill="#E1E6EE"/>
<circle cx="316.619" cy="482.695" r="3.83479" fill="white"/>
<circle cx="342.696" cy="482.695" r="3.83479" fill="white"/>
<circle cx="368.772" cy="482.695" r="3.83479" fill="#D8DDE5"/>
<circle cx="394.849" cy="482.695" r="3.83479" fill="#D8DDE5"/>
<circle cx="420.926" cy="482.695" r="3.83479" fill="#475467"/>
<circle cx="447.002" cy="482.695" r="3.83479" fill="#475467"/>
<circle cx="473.078" cy="482.695" r="3.83479" fill="#475467"/>
<path d="M300 200C300 193.373 305.373 188 312 188H558C564.627 188 570 193.373 570 200V375C570 381.627 564.627 387 558 387H312C305.373 387 300 381.627 300 375V200Z" fill="#F0F2F5"/>
<path d="M300 200C300 193.373 305.373 188 312 188H558C564.627 188 570 193.373 570 200V217H300V200Z" fill="white"/>
<rect x="365.7" y="196" width="33.3" height="14" rx="4" fill="#E1E6EE"/>
<rect x="527.7" y="200" width="33.3" height="6" rx="3" fill="#E1E6EE"/>
<rect x="488.1" y="200" width="33.3" height="6" rx="3" fill="#E1E6EE"/>
<rect x="476.4" y="200" width="5.4" height="6" rx="2.7" fill="#E1E6EE"/>
<rect x="464.7" y="200" width="5.4" height="6" rx="2.7" fill="#E1E6EE"/>
<path d="M300 220H327.9V386H312C305.373 386 300 380.627 300 374V220Z" fill="white"/>
<rect x="300" y="220" width="27.9" height="24" fill="#AF0522"/>
<g filter="url(#filter0_d_4286_51769)">
<rect x="300" y="244" width="27.9" height="24" fill="white"/>
</g>
<g filter="url(#filter1_d_4286_51769)">
<rect x="300" y="269" width="27.9" height="24" fill="white"/>
</g>
<g filter="url(#filter2_d_4286_51769)">
<rect x="300" y="294" width="27.9" height="24" fill="white"/>
</g>
<g filter="url(#filter3_d_4286_51769)">
<rect x="300" y="319" width="27.9" height="24" fill="white"/>
</g>
<g filter="url(#filter4_d_4286_51769)">
<rect x="300" y="344" width="27.9" height="24" fill="white"/>
</g>
<path d="M498.9 221H570V375C570 381.627 564.627 387 558 387H498.9V221Z" fill="white"/>
<rect x="331.5" y="354" width="163.8" height="33" fill="white"/>
<rect x="309" y="196" width="49.5" height="14" rx="7" fill="#CF0A2C"/>
<ellipse cx="313.5" cy="232" rx="3.6" ry="4" fill="white"/>
<ellipse cx="313.5" cy="256" rx="3.6" ry="4" fill="#475467"/>
<ellipse cx="313.5" cy="281" rx="3.6" ry="4" fill="#475467"/>
<ellipse cx="313.5" cy="306" rx="3.6" ry="4" fill="#475467"/>
<ellipse cx="313.5" cy="331" rx="3.6" ry="4" fill="#475467"/>
<ellipse cx="313.5" cy="356" rx="3.6" ry="4" fill="#475467"/>
<path d="M333.921 277L345.107 275.7L337.942 266.23L333.921 277ZM377.4 241.18L376.613 241.805L377.854 243.445L378.641 242.82L377.4 241.18ZM375.038 243.055L373.463 244.305L374.704 245.945L376.279 244.695L375.038 243.055ZM371.888 245.555L370.313 246.805L371.554 248.445L373.129 247.195L371.888 245.555ZM368.738 248.055L367.163 249.305L368.404 250.945L369.979 249.695L368.738 248.055ZM365.588 250.555L364.013 251.805L365.254 253.445L366.829 252.195L365.588 250.555ZM362.438 253.055L360.863 254.305L362.104 255.945L363.679 254.695L362.438 253.055ZM359.288 255.555L357.713 256.805L358.954 258.445L360.529 257.195L359.288 255.555ZM356.138 258.055L354.563 259.305L355.804 260.945L357.379 259.695L356.138 258.055ZM352.988 260.555L351.413 261.805L352.654 263.445L354.229 262.195L352.988 260.555ZM349.838 263.055L348.263 264.305L349.504 265.945L351.079 264.695L349.838 263.055ZM346.688 265.555L345.113 266.805L346.354 268.445L347.929 267.195L346.688 265.555ZM343.538 268.055L341.963 269.305L343.204 270.945L344.779 269.695L343.538 268.055ZM340.388 270.555L338.813 271.805L340.054 273.445L341.629 272.195L340.388 270.555ZM337.238 273.055L335.663 274.305L336.904 275.945L338.479 274.695L337.238 273.055Z" fill="#D00B2D"/>
<rect x="340.5" y="365" width="83.7" height="11" rx="5.5" fill="#E1E6EE"/>
<rect x="508.8" y="231" width="52.2" height="13" rx="6.5" fill="#E1E6EE"/>
<rect x="508.8" y="292" width="52.2" height="13" rx="6.5" fill="#E1E6EE"/>
<rect x="508.8" y="251" width="43.2" height="5" rx="2.5" fill="#E1E6EE"/>
<rect x="508.8" y="311" width="43.2" height="5" rx="2.5" fill="#E1E6EE"/>
<rect x="508.8" y="262" width="52.2" height="5" rx="2.5" fill="#E1E6EE"/>
<rect x="508.8" y="322" width="52.2" height="5" rx="2.5" fill="#E1E6EE"/>
<rect x="508.8" y="273" width="37.8" height="5" rx="2.5" fill="#E1E6EE"/>
<rect x="508.8" y="333" width="37.8" height="5" rx="2.5" fill="#E1E6EE"/>
<path d="M333.921 334L338.455 344.998L345.182 335.897L333.921 334ZM378.603 369.212L377.816 368.569L376.65 370.145L377.438 370.788L378.603 369.212ZM376.241 367.283L374.666 365.998L373.5 367.574L375.075 368.86L376.241 367.283ZM373.091 364.712L371.516 363.426L370.35 365.002L371.925 366.288L373.091 364.712ZM369.941 362.14L368.366 360.855L367.2 362.431L368.775 363.717L369.941 362.14ZM366.791 359.569L365.216 358.283L364.05 359.86L365.625 361.145L366.791 359.569ZM363.641 356.998L362.066 355.712L360.9 357.288L362.475 358.574L363.641 356.998ZM360.491 354.426L358.916 353.14L357.75 354.717L359.325 356.002L360.491 354.426ZM357.341 351.855L355.766 350.569L354.6 352.145L356.175 353.431L357.341 351.855ZM354.191 349.283L352.616 347.998L351.45 349.574L353.025 350.86L354.191 349.283ZM351.041 346.712L349.466 345.426L348.3 347.002L349.875 348.288L351.041 346.712ZM347.891 344.14L346.316 342.855L345.15 344.431L346.725 345.717L347.891 344.14ZM344.741 341.569L343.166 340.283L342 341.86L343.575 343.145L344.741 341.569ZM341.591 338.998L340.016 337.712L338.85 339.288L340.425 340.574L341.591 338.998ZM338.441 336.426L336.866 335.14L335.7 336.717L337.275 338.002L338.441 336.426Z" fill="#D00B2D"/>
<g filter="url(#filter5_d_4286_51769)">
<rect x="375.6" y="241" width="163.8" height="130" fill="white"/>
</g>
<rect x="386.4" y="253" width="83.7" height="11" rx="5.5" fill="#344154"/>
<path d="M386.4 279C386.4 276.791 388.191 275 390.4 275H419.7V289H390.4C388.191 289 386.4 287.209 386.4 285V279Z" fill="#646D80"/>
<rect x="386.4" y="351" width="8.1" height="9" rx="2" fill="#475467"/>
<rect x="423.48" y="351.181" width="7.73889" height="8.63889" rx="0.902778" fill="white" stroke="#98A3B3" stroke-width="0.361111"/>
<rect x="386.4" y="294" width="33.3" height="14" rx="4" fill="#E1E6EE"/>
<rect x="386.4" y="313" width="142.2" height="14" rx="4" fill="#E1E6EE"/>
<path d="M386.4 336C386.4 333.791 388.191 332 390.4 332H456.6V346H390.4C388.191 346 386.4 344.209 386.4 342V336Z" fill="#E1E6EE"/>
<path d="M457.5 332H523.7C525.909 332 527.7 333.791 527.7 336V342C527.7 344.209 525.909 346 523.7 346H457.5V332Z" fill="#646D80"/>
<rect x="420.6" y="294" width="36" height="14" rx="4" fill="#E1E6EE"/>
<rect x="457.5" y="294" width="71.1" height="14" rx="4" fill="#E1E6EE"/>
<rect x="420.6" y="275" width="36" height="14" fill="#E1E6EE"/>
<path d="M457.5 275H486.8C489.009 275 490.8 276.791 490.8 279V285C490.8 287.209 489.009 289 486.8 289H457.5V275Z" fill="#E1E6EE"/>
<rect x="485.4" y="255" width="33.3" height="6" rx="3" fill="#E1E6EE"/>
<rect x="523.2" y="255" width="5.4" height="6" rx="2.7" fill="#E1E6EE"/>
<rect x="399" y="355" width="16.2" height="2" rx="1" fill="#E1E6EE"/>
<rect x="435.9" y="355" width="34.2" height="2" rx="1" fill="#E1E6EE"/>
<path d="M489 348L498.5 357.5L516 339" stroke="white" stroke-width="6" stroke-linecap="round" stroke-linejoin="round"/>
<rect x="590" y="188" width="120" height="120" rx="5.02618" fill="#344154"/>
<rect x="598.762" y="200.436" width="87.9581" height="6.28272" rx="3.14136" fill="#79859E"/>
<rect x="598.762" y="213.627" width="48.377" height="6.28272" rx="3.14136" fill="#79859E"/>
<rect x="602.565" y="240.775" width="48.377" height="6.28272" rx="3.14136" fill="#79859E"/>
<rect x="602.565" y="279.101" width="43.9791" height="16.3351" rx="2.51309" fill="#CF0A2C"/>
<rect x="653.455" y="279.101" width="43.9791" height="16.3351" rx="2.51309" fill="#4C5A6F"/>
<rect x="602.565" y="227.582" width="69.1099" height="6.28272" rx="3.14136" fill="#79859E"/>
<rect x="590" y="327" width="120" height="60.3974" rx="6.35762" fill="white"/>
<rect x="649.603" y="345.278" width="46.8874" height="7.94702" rx="3.97351" fill="#344154"/>
<rect x="649.603" y="361.966" width="34.1722" height="7.94702" rx="3.97351" fill="#344154"/>
<circle cx="623.377" cy="357.199" r="17.4834" fill="#344154"/>
</g>
<defs>
<filter id="filter0_d_4286_51769" x="300" y="244" width="27.8999" height="25" filterUnits="userSpaceOnUse" color-interpolation-filters="sRGB">
<feFlood flood-opacity="0" result="BackgroundImageFix"/>
<feColorMatrix in="SourceAlpha" type="matrix" values="0 0 0 0 0 0 0 0 0 0 0 0 0 0 0 0 0 0 127 0" result="hardAlpha"/>
<feOffset dy="1"/>
<feComposite in2="hardAlpha" operator="out"/>
<feColorMatrix type="matrix" values="0 0 0 0 0.941176 0 0 0 0 0.94902 0 0 0 0 0.960784 0 0 0 1 0"/>
<feBlend mode="normal" in2="BackgroundImageFix" result="effect1_dropShadow_4286_51769"/>
<feBlend mode="normal" in="SourceGraphic" in2="effect1_dropShadow_4286_51769" result="shape"/>
</filter>
<filter id="filter1_d_4286_51769" x="300" y="269" width="27.8999" height="25" filterUnits="userSpaceOnUse" color-interpolation-filters="sRGB">
<feFlood flood-opacity="0" result="BackgroundImageFix"/>
<feColorMatrix in="SourceAlpha" type="matrix" values="0 0 0 0 0 0 0 0 0 0 0 0 0 0 0 0 0 0 127 0" result="hardAlpha"/>
<feOffset dy="1"/>
<feComposite in2="hardAlpha" operator="out"/>
<feColorMatrix type="matrix" values="0 0 0 0 0.941176 0 0 0 0 0.94902 0 0 0 0 0.960784 0 0 0 1 0"/>
<feBlend mode="normal" in2="BackgroundImageFix" result="effect1_dropShadow_4286_51769"/>
<feBlend mode="normal" in="SourceGraphic" in2="effect1_dropShadow_4286_51769" result="shape"/>
</filter>
<filter id="filter2_d_4286_51769" x="300" y="294" width="27.8999" height="25" filterUnits="userSpaceOnUse" color-interpolation-filters="sRGB">
<feFlood flood-opacity="0" result="BackgroundImageFix"/>
<feColorMatrix in="SourceAlpha" type="matrix" values="0 0 0 0 0 0 0 0 0 0 0 0 0 0 0 0 0 0 127 0" result="hardAlpha"/>
<feOffset dy="1"/>
<feComposite in2="hardAlpha" operator="out"/>
<feColorMatrix type="matrix" values="0 0 0 0 0.941176 0 0 0 0 0.94902 0 0 0 0 0.960784 0 0 0 1 0"/>
<feBlend mode="normal" in2="BackgroundImageFix" result="effect1_dropShadow_4286_51769"/>
<feBlend mode="normal" in="SourceGraphic" in2="effect1_dropShadow_4286_51769" result="shape"/>
</filter>
<filter id="filter3_d_4286_51769" x="300" y="319" width="27.8999" height="25" filterUnits="userSpaceOnUse" color-interpolation-filters="sRGB">
<feFlood flood-opacity="0" result="BackgroundImageFix"/>
<feColorMatrix in="SourceAlpha" type="matrix" values="0 0 0 0 0 0 0 0 0 0 0 0 0 0 0 0 0 0 127 0" result="hardAlpha"/>
<feOffset dy="1"/>
<feComposite in2="hardAlpha" operator="out"/>
<feColorMatrix type="matrix" values="0 0 0 0 0.941176 0 0 0 0 0.94902 0 0 0 0 0.960784 0 0 0 1 0"/>
<feBlend mode="normal" in2="BackgroundImageFix" result="effect1_dropShadow_4286_51769"/>
<feBlend mode="normal" in="SourceGraphic" in2="effect1_dropShadow_4286_51769" result="shape"/>
</filter>
<filter id="filter4_d_4286_51769" x="300" y="344" width="27.8999" height="25" filterUnits="userSpaceOnUse" color-interpolation-filters="sRGB">
<feFlood flood-opacity="0" result="BackgroundImageFix"/>
<feColorMatrix in="SourceAlpha" type="matrix" values="0 0 0 0 0 0 0 0 0 0 0 0 0 0 0 0 0 0 127 0" result="hardAlpha"/>
<feOffset dy="1"/>
<feComposite in2="hardAlpha" operator="out"/>
<feColorMatrix type="matrix" values="0 0 0 0 0.941176 0 0 0 0 0.94902 0 0 0 0 0.960784 0 0 0 1 0"/>
<feBlend mode="normal" in2="BackgroundImageFix" result="effect1_dropShadow_4286_51769"/>
<feBlend mode="normal" in="SourceGraphic" in2="effect1_dropShadow_4286_51769" result="shape"/>
</filter>
<filter id="filter5_d_4286_51769" x="362.9" y="228.3" width="189.2" height="155.4" filterUnits="userSpaceOnUse" color-interpolation-filters="sRGB">
<feFlood flood-opacity="0" result="BackgroundImageFix"/>
<feColorMatrix in="SourceAlpha" type="matrix" values="0 0 0 0 0 0 0 0 0 0 0 0 0 0 0 0 0 0 127 0" result="hardAlpha"/>
<feOffset/>
<feGaussianBlur stdDeviation="6.35"/>
<feComposite in2="hardAlpha" operator="out"/>
<feColorMatrix type="matrix" values="0 0 0 0 0.882353 0 0 0 0 0.901961 0 0 0 0 0.933333 0 0 0 1 0"/>
<feBlend mode="multiply" in2="BackgroundImageFix" result="effect1_dropShadow_4286_51769"/>
<feBlend mode="normal" in="SourceGraphic" in2="effect1_dropShadow_4286_51769" result="shape"/>
</filter>
<clipPath id="clip0_4286_51769">
<rect width="760" height="560" fill="white"/>
</clipPath>
</defs>
</svg>
