<svg width="608" height="448" viewBox="0 0 608 448" fill="none" xmlns="http://www.w3.org/2000/svg">
<g clip-path="url(#clip0_30399_103514)">
<rect width="608" height="448" fill="#CF0A2C"/>
<path d="M591.837 309.86L591.652 312.627C590.73 323.513 583.9 334.491 572.641 334.491C563.966 334.491 557.044 331.262 551.322 324.712C544.493 316.871 538.402 307.461 532.126 290.303C549.753 230.616 604.019 39.4723 604.019 39.4723H501.025C501.025 39.4723 491.519 84.3063 482.936 125.081C482.474 124.066 482.105 123.144 481.644 122.129C473.061 103.771 459.402 83.3838 444.082 69.0849C417.503 44.1771 386.309 32 348.655 32C296.697 32 252.675 51.1882 217.882 89.1956C183.273 126.926 165 175.266 165 229.048C165 289.011 182.35 338.181 216.59 375.266C252.305 414.011 294.943 432 350.87 432C383.448 432 414.55 422.314 443.344 403.31C461.986 391.041 478.967 373.974 495.026 351.926C501.763 373.697 508.592 388.642 516.714 399.804C529.819 417.793 549.569 428.125 570.703 428.125C592.76 428.125 612.879 416.871 623.123 398.697C632.26 382.553 635.951 362.627 635.951 329.786V309.86H591.837ZM419.256 348.052C403.66 370.93 383.264 382.923 360.284 382.923C333.52 382.923 313.309 370.93 298.45 346.207C282.853 320.284 274.916 281.447 274.916 230.709C274.916 184.214 283.315 147.221 299.834 120.838C315.339 96.0222 334.812 84.4908 361.022 84.4908C384.371 84.4908 402.644 94.1771 418.518 115.118C435.499 137.535 449.896 174.62 460.141 222.221C447.22 286.705 434.576 325.635 419.256 348.052Z" fill="#E51633"/>
<rect x="449" y="329" width="132" height="77" rx="4.90853" fill="white"/>
<rect x="282" y="328.8" width="152" height="32" rx="4.90853" fill="#FAD9DF"/>
<rect x="282" y="374.4" width="152" height="32" rx="4.90853" fill="white"/>
<rect x="461.472" y="341.686" width="85.8992" height="6.13566" rx="3.06783" fill="#344154"/>
<rect x="571.833" y="310.942" width="6.13566" height="6.13566" rx="3.06783" fill="#E1E6EE"/>
<rect x="563.243" y="340.942" width="6.13566" height="6.13566" rx="3.06783" fill="#E1E6EE"/>
<rect x="554.653" y="340.942" width="6.13566" height="6.13566" rx="3.06783" fill="#E1E6EE"/>
<rect x="461" y="357" width="116" height="4" rx="2" fill="#E1E6EE"/>
<rect x="461" y="374" width="11.8382" height="3.6814" rx="1.8407" fill="#E1E6EE"/>
<rect x="478.36" y="374" width="11.8382" height="3.6814" rx="1.8407" fill="#E1E6EE"/>
<rect x="495.721" y="374" width="11.8382" height="3.6814" rx="1.8407" fill="#E1E6EE"/>
<rect x="513.081" y="374" width="11.8382" height="3.6814" rx="1.8407" fill="#E1E6EE"/>
<rect x="530.441" y="374" width="11.8382" height="3.6814" rx="1.8407" fill="#A9B4C6"/>
<rect x="547.801" y="374" width="11.8382" height="3.6814" rx="1.8407" fill="#A9B4C6"/>
<rect x="565.162" y="374" width="11.8382" height="3.6814" rx="1.8407" fill="#A9B4C6"/>
<rect x="461" y="383" width="11.8382" height="3.6814" rx="1.8407" fill="#A9B4C6"/>
<rect x="478.36" y="383" width="11.8382" height="3.6814" rx="1.8407" fill="#A9B4C6"/>
<rect x="495.721" y="383" width="11.8382" height="3.6814" rx="1.8407" fill="#A9B4C6"/>
<rect x="513.081" y="383" width="11.8382" height="3.6814" rx="1.8407" fill="#A9B4C6"/>
<rect x="530.441" y="383" width="11.8382" height="3.6814" rx="1.8407" fill="#A9B4C6"/>
<rect x="547.801" y="383" width="11.8382" height="3.6814" rx="1.8407" fill="#A9B4C6"/>
<rect x="565.162" y="383" width="11.8382" height="3.6814" rx="1.8407" fill="#A9B4C6"/>
<rect x="461" y="391" width="11.8382" height="3.6814" rx="1.8407" fill="#344154"/>
<rect x="478.36" y="391" width="11.8382" height="3.6814" rx="1.8407" fill="#344154"/>
<rect x="495.721" y="391" width="11.8382" height="3.6814" rx="1.8407" fill="#E1E6EE"/>
<rect x="513.081" y="391" width="11.8382" height="3.6814" rx="1.8407" fill="white"/>
<rect x="530.441" y="391" width="11.8382" height="3.6814" rx="1.8407" fill="white"/>
<rect x="547.801" y="391" width="11.8382" height="3.6814" rx="1.8407" fill="white"/>
<rect x="565.162" y="391" width="11.8382" height="3.6814" rx="1.8407" fill="#E1E6EE"/>
<rect x="308.4" y="341.6" width="104" height="6.4" rx="3.2" fill="#FDA0B0"/>
<circle cx="295.42" cy="344.753" r="6.74922" fill="#CF0A2C"/>
<rect x="287.933" y="382.794" width="14.7256" height="14.7256" rx="2.45426" fill="#475467"/>
<rect x="308.794" y="382.794" width="14.7256" height="14.7256" rx="2.45426" fill="#475467"/>
<rect x="329.655" y="382.794" width="14.7256" height="14.7256" rx="2.45426" fill="#667285"/>
<rect x="350.517" y="382.794" width="14.7256" height="14.7256" rx="2.45426" fill="#667285"/>
<rect x="371.378" y="382.794" width="14.7256" height="14.7256" rx="2.45426" fill="#E1E6EE"/>
<rect x="392.239" y="382.794" width="14.7256" height="14.7256" rx="2.45426" fill="#E1E6EE"/>
<rect x="413.101" y="382.794" width="14.7256" height="14.7256" rx="2.45426" fill="#E1E6EE"/>
<circle cx="295.295" cy="390.156" r="3.06783" fill="white"/>
<circle cx="316.157" cy="390.156" r="3.06783" fill="white"/>
<circle cx="337.018" cy="390.156" r="3.06783" fill="#D8DDE5"/>
<circle cx="357.879" cy="390.156" r="3.06783" fill="#D8DDE5"/>
<circle cx="378.741" cy="390.156" r="3.06783" fill="#475467"/>
<circle cx="399.602" cy="390.156" r="3.06783" fill="#475467"/>
<circle cx="420.463" cy="390.156" r="3.06783" fill="#475467"/>
<path d="M282 163.999C282 158.697 286.298 154.399 291.6 154.399H488.4C493.702 154.399 498 158.697 498 163.999V303.999C498 309.301 493.702 313.599 488.4 313.599H291.6C286.298 313.599 282 309.301 282 303.999V163.999Z" fill="#F0F2F5"/>
<path d="M282 163.999C282 158.697 286.298 154.399 291.6 154.399H488.4C493.702 154.399 498 158.697 498 163.999V177.599H282V163.999Z" fill="white"/>
<rect x="334.56" y="160.8" width="26.64" height="11.2" rx="3.2" fill="#E1E6EE"/>
<rect x="464.16" y="163.999" width="26.64" height="4.8" rx="2.4" fill="#E1E6EE"/>
<rect x="432.48" y="163.999" width="26.64" height="4.8" rx="2.4" fill="#E1E6EE"/>
<rect x="423.12" y="163.999" width="4.32" height="4.8" rx="2.16" fill="#E1E6EE"/>
<rect x="413.76" y="163.999" width="4.32" height="4.8" rx="2.16" fill="#E1E6EE"/>
<path d="M282 179.999H304.32V312.799H291.6C286.298 312.799 282 308.501 282 303.199V179.999Z" fill="white"/>
<rect x="282" y="179.999" width="22.32" height="19.2" fill="#AF0522"/>
<g filter="url(#filter0_d_30399_103514)">
<rect x="282" y="199.199" width="22.32" height="19.2" fill="white"/>
</g>
<g filter="url(#filter1_d_30399_103514)">
<rect x="282" y="219.199" width="22.32" height="19.2" fill="white"/>
</g>
<g filter="url(#filter2_d_30399_103514)">
<rect x="282" y="239.199" width="22.32" height="19.2" fill="white"/>
</g>
<g filter="url(#filter3_d_30399_103514)">
<rect x="282" y="259.199" width="22.32" height="19.2" fill="white"/>
</g>
<g filter="url(#filter4_d_30399_103514)">
<rect x="282" y="279.199" width="22.32" height="19.2" fill="white"/>
</g>
<path d="M441.12 180.8H498V304C498 309.302 493.702 313.6 488.4 313.6H441.12V180.8Z" fill="white"/>
<rect x="307.2" y="287.199" width="131.04" height="26.4" fill="white"/>
<rect x="289.2" y="160.8" width="39.6" height="11.2" rx="5.6" fill="#CF0A2C"/>
<ellipse cx="292.8" cy="189.599" rx="2.88" ry="3.2" fill="white"/>
<ellipse cx="292.8" cy="208.8" rx="2.88" ry="3.2" fill="#475467"/>
<ellipse cx="292.8" cy="228.8" rx="2.88" ry="3.2" fill="#475467"/>
<ellipse cx="292.8" cy="248.8" rx="2.88" ry="3.2" fill="#475467"/>
<ellipse cx="292.8" cy="268.8" rx="2.88" ry="3.2" fill="#475467"/>
<ellipse cx="292.8" cy="288.8" rx="2.88" ry="3.2" fill="#475467"/>
<path d="M309.137 225.599L318.085 224.559L312.353 216.983L309.137 225.599ZM343.92 196.943L343.29 197.443L344.283 198.755L344.913 198.255L343.92 196.943ZM342.03 198.443L340.77 199.443L341.763 200.755L343.023 199.755L342.03 198.443ZM339.51 200.443L338.25 201.443L339.243 202.755L340.503 201.755L339.51 200.443ZM336.99 202.443L335.73 203.443L336.723 204.755L337.983 203.755L336.99 202.443ZM334.47 204.443L333.21 205.443L334.203 206.755L335.463 205.755L334.47 204.443ZM331.95 206.443L330.69 207.443L331.683 208.755L332.943 207.755L331.95 206.443ZM329.43 208.443L328.17 209.443L329.163 210.755L330.423 209.755L329.43 208.443ZM326.91 210.443L325.65 211.443L326.643 212.755L327.903 211.755L326.91 210.443ZM324.39 212.443L323.13 213.443L324.123 214.755L325.383 213.755L324.39 212.443ZM321.87 214.443L320.61 215.443L321.603 216.755L322.863 215.755L321.87 214.443ZM319.35 216.443L318.09 217.443L319.083 218.755L320.343 217.755L319.35 216.443ZM316.83 218.443L315.57 219.443L316.563 220.755L317.823 219.755L316.83 218.443ZM314.31 220.443L313.05 221.443L314.043 222.755L315.303 221.755L314.31 220.443ZM311.79 222.443L310.53 223.443L311.523 224.755L312.783 223.755L311.79 222.443Z" fill="#D00B2D"/>
<rect x="314.4" y="295.999" width="66.96" height="8.8" rx="4.4" fill="#E1E6EE"/>
<rect x="449.04" y="188.8" width="41.76" height="10.4" rx="5.2" fill="#E1E6EE"/>
<rect x="449.04" y="237.6" width="41.76" height="10.4" rx="5.2" fill="#E1E6EE"/>
<rect x="449.04" y="204.8" width="34.56" height="4" rx="2" fill="#E1E6EE"/>
<rect x="449.04" y="252.8" width="34.56" height="4" rx="2" fill="#E1E6EE"/>
<rect x="449.04" y="213.6" width="41.76" height="4" rx="2" fill="#E1E6EE"/>
<rect x="449.04" y="261.6" width="41.76" height="4" rx="2" fill="#E1E6EE"/>
<rect x="449.04" y="222.399" width="30.24" height="4" rx="2" fill="#E1E6EE"/>
<rect x="449.04" y="270.399" width="30.24" height="4" rx="2" fill="#E1E6EE"/>
<path d="M309.136 271.2L312.764 279.998L318.145 272.718L309.136 271.2ZM344.882 299.37L344.252 298.855L343.32 300.116L343.95 300.63L344.882 299.37ZM342.992 297.827L341.732 296.798L340.8 298.059L342.06 299.088L342.992 297.827ZM340.472 295.77L339.212 294.741L338.28 296.002L339.54 297.03L340.472 295.77ZM337.952 293.712L336.692 292.684L335.76 293.945L337.02 294.973L337.952 293.712ZM335.432 291.655L334.172 290.627L333.24 291.888L334.5 292.916L335.432 291.655ZM332.912 289.598L331.652 288.57L330.72 289.83L331.98 290.859L332.912 289.598ZM330.392 287.541L329.132 286.512L328.2 287.773L329.46 288.802L330.392 287.541ZM327.872 285.484L326.612 284.455L325.68 285.716L326.94 286.745L327.872 285.484ZM325.352 283.427L324.092 282.398L323.16 283.659L324.42 284.688L325.352 283.427ZM322.832 281.37L321.572 280.341L320.64 281.602L321.9 282.63L322.832 281.37ZM320.312 279.312L319.052 278.284L318.12 279.545L319.38 280.573L320.312 279.312ZM317.792 277.255L316.532 276.227L315.6 277.488L316.86 278.516L317.792 277.255ZM315.272 275.198L314.012 274.17L313.08 275.43L314.34 276.459L315.272 275.198ZM312.752 273.141L311.492 272.112L310.56 273.373L311.82 274.402L312.752 273.141Z" fill="#D00B2D"/>
<g filter="url(#filter5_d_30399_103514)">
<rect x="342.479" y="196.8" width="131.04" height="104" fill="white"/>
</g>
<rect x="351.12" y="206.399" width="66.96" height="8.8" rx="4.4" fill="#344154"/>
<path d="M351.12 227.2C351.12 225.433 352.552 224 354.32 224H377.76V235.2H354.32C352.552 235.2 351.12 233.767 351.12 232V227.2Z" fill="#646D80"/>
<rect x="351.12" y="284.8" width="6.48" height="7.2" rx="1.6" fill="#475467"/>
<rect x="380.784" y="284.944" width="6.19111" height="6.91111" rx="0.722222" fill="white" stroke="#98A3B3" stroke-width="0.288889"/>
<rect x="351.12" y="239.2" width="26.64" height="11.2" rx="3.2" fill="#E1E6EE"/>
<rect x="351.12" y="254.399" width="113.76" height="11.2" rx="3.2" fill="#E1E6EE"/>
<path d="M351.12 272.8C351.12 271.032 352.552 269.6 354.32 269.6H407.28V280.8H354.32C352.552 280.8 351.12 279.367 351.12 277.6V272.8Z" fill="#E1E6EE"/>
<path d="M408 269.6H460.96C462.727 269.6 464.16 271.032 464.16 272.8V277.6C464.16 279.367 462.727 280.8 460.96 280.8H408V269.6Z" fill="#646D80"/>
<rect x="378.479" y="239.2" width="28.8" height="11.2" rx="3.2" fill="#E1E6EE"/>
<rect x="408" y="239.2" width="56.88" height="11.2" rx="3.2" fill="#E1E6EE"/>
<rect x="378.479" y="224" width="28.8" height="11.2" fill="#E1E6EE"/>
<path d="M408 224H431.44C433.207 224 434.64 225.433 434.64 227.2V232C434.64 233.767 433.207 235.2 431.44 235.2H408V224Z" fill="#E1E6EE"/>
<rect x="430.32" y="208" width="26.64" height="4.8" rx="2.4" fill="#E1E6EE"/>
<rect x="460.56" y="208" width="4.32" height="4.8" rx="2.16" fill="#E1E6EE"/>
<rect x="361.2" y="288" width="12.96" height="1.6" rx="0.8" fill="#E1E6EE"/>
<rect x="390.72" y="288" width="27.36" height="1.6" rx="0.8" fill="#E1E6EE"/>
<rect x="514" y="154" width="67" height="76" rx="4.02094" fill="#344154"/>
<rect x="519" y="162" width="51" height="4" rx="2" fill="#79859E"/>
<rect x="519" y="171" width="28" height="4" rx="2" fill="#79859E"/>
<rect x="519" y="188" width="29" height="4" rx="2" fill="#79859E"/>
<rect x="520" y="212" width="26" height="10" rx="2.01047" fill="#CF0A2C"/>
<rect x="548" y="212" width="26" height="10" rx="2.01047" fill="#4C5A6F"/>
<rect x="519" y="179" width="41" height="4" rx="2" fill="#79859E"/>
<rect x="514" y="246" width="67" height="68" rx="5.08609" fill="white"/>
<rect x="524.683" y="288.223" width="37.5099" height="6.35762" rx="3.17881" fill="#344154"/>
<rect x="524.683" y="298.572" width="27.3377" height="6.35762" rx="3.17881" fill="#344154"/>
<circle cx="538.702" cy="269.759" r="13.9868" fill="#344154"/>
<path d="M78.7006 32H51.7854C40.8707 32 32 40.8707 32 51.7756V78.7006C32 89.6055 40.8707 98.4762 51.7854 98.4762H78.7104C89.6153 98.4762 98.486 89.6055 98.486 78.7006V51.7756C98.4762 40.8707 89.6055 32 78.7006 32Z" fill="white"/>
<path d="M86.2213 73.4092L86.2018 73.7026C86.104 74.8567 85.3802 76.0205 84.1871 76.0205C83.2677 76.0205 82.5342 75.6782 81.9278 74.9838C81.2041 74.1525 80.5586 73.1549 79.8935 71.3358C81.7616 65.008 87.5123 44.7434 87.5123 44.7434H76.5976C76.5976 44.7434 75.5902 49.4966 74.6807 53.8194C74.6318 53.7118 74.5927 53.614 74.5438 53.5065C73.6342 51.5602 72.1867 49.3988 70.5632 47.8828C67.7465 45.2422 64.4408 43.9512 60.4504 43.9512C54.9442 43.9512 50.279 45.9855 46.5919 50.0149C42.9243 54.015 40.9878 59.1399 40.9878 64.8417C40.9878 71.1989 42.8265 76.4118 46.4549 80.3434C50.2399 84.4511 54.7584 86.3582 60.6852 86.3582C64.1376 86.3582 67.4335 85.3313 70.485 83.3166C72.4606 82.0158 74.2601 80.2065 75.9619 77.869C76.6758 80.1771 77.3996 81.7615 78.2602 82.9449C79.649 84.8521 81.742 85.9475 83.9817 85.9475C86.3191 85.9475 88.4512 84.7543 89.5368 82.8276C90.5051 81.116 90.8963 79.0035 90.8963 75.5218V73.4092H86.2213ZM67.9323 77.4582C66.2795 79.8837 64.118 81.1552 61.6828 81.1552C58.8465 81.1552 56.7046 79.8837 55.13 77.2626C53.4771 74.5144 52.636 70.3969 52.636 65.0178C52.636 60.0885 53.526 56.1667 55.2767 53.3695C56.9198 50.7387 58.9834 49.5161 61.761 49.5161C64.2354 49.5161 66.1719 50.543 67.8541 52.7632C69.6536 55.1398 71.1794 59.0714 72.265 64.118C70.8957 70.9544 69.5558 75.0816 67.9323 77.4582Z" fill="#D70926"/>
<path d="M131.758 45.7127C131.005 42.319 128.863 39.9424 124.159 39.9424C119.738 39.9424 117.313 42.3092 116.56 45.7127L113.146 61.0872H116.795C117.626 61.0872 118.457 60.4222 118.633 59.6104L119.328 56.4808H129L129.695 59.6104C129.871 60.4222 130.702 61.0872 131.533 61.0872H135.181L131.758 45.7127ZM120.276 52.1481L121.479 46.7005C121.675 45.8203 122.359 44.4706 124.159 44.4706C125.959 44.4706 126.643 45.8203 126.839 46.7005L128.042 52.1481H120.276Z" fill="white"/>
<path d="M144.169 45.0753H152.307V61.0855H157.343V40.4395H142.145C140.482 40.4395 139.123 41.7989 139.123 43.4615V53.897C139.123 55.2956 138.477 56.1758 137.362 56.4008L136.326 56.6453L137.265 61.0757H138.223C141.675 61.0757 144.16 58.5133 144.16 54.1416V45.0753" fill="white"/>
<path d="M201.149 40.4411H199.31V38.0449H195.779C194.948 38.0449 194.263 38.7198 194.263 39.5511V40.4411H192.425C186.195 40.4411 182.302 44.6857 182.302 50.7592C182.302 56.8425 186.195 61.0871 192.425 61.0871H194.263V63.5909H197.794C198.625 63.5909 199.31 62.9063 199.31 62.0847V61.0871H201.149C207.379 61.0871 211.271 56.8425 211.271 50.7592C211.271 44.6955 207.379 40.4411 201.149 40.4411ZM192.435 56.5296C188.982 56.5296 187.349 54.3486 187.349 50.7592C187.349 47.1797 188.982 44.9987 192.435 44.9987H194.273V56.5296H192.435ZM201.149 56.5296H199.31V45.0084H201.149C204.601 45.0084 206.225 47.1894 206.225 50.769C206.225 54.3486 204.591 56.5296 201.149 56.5296Z" fill="white"/>
<path d="M172.982 45.6826H165.745V40.4502H160.708V59.5803C160.708 60.4116 161.393 61.0963 162.224 61.0963H172.982C177.374 61.0963 180.689 57.7905 180.689 53.3894C180.689 48.9883 177.911 45.6826 172.982 45.6826ZM172.982 56.4604H165.745V50.3184H172.982C174.215 50.3184 175.642 51.4138 175.642 53.3894C175.652 55.3553 174.215 56.4604 172.982 56.4604Z" fill="white"/>
<path d="M230.069 45.7127C229.316 42.319 227.174 39.9424 222.47 39.9424C218.049 39.9424 215.624 42.3092 214.871 45.7127L211.458 61.0872H215.106C215.937 61.0872 216.768 60.4222 216.944 59.6104L217.639 56.4808H227.311L227.996 59.6104C228.172 60.4222 229.003 61.0872 229.835 61.0872H233.483L230.069 45.7127ZM218.587 52.1481L219.79 46.7005C219.986 45.8203 220.67 44.4706 222.47 44.4706C224.27 44.4706 224.954 45.8203 225.15 46.7005L226.353 52.1481H218.587Z" fill="white"/>
<path d="M259.283 79.3547C260.173 78.4842 260.74 77.2911 260.74 75.6382C260.74 71.9804 257.904 69.418 254.246 69.418H241.923C241.091 69.418 240.407 70.0928 240.407 70.9241V88.5481C240.407 89.3794 241.091 90.0543 241.923 90.0543H255.028C258.891 90.0543 261.454 87.2962 261.454 83.6286C261.454 81.7997 260.574 80.3523 259.283 79.3547ZM254.246 73.7017C254.911 73.7017 255.83 74.4548 255.83 75.736C255.83 77.027 254.911 77.692 254.246 77.7703H245.356V73.7017H254.246ZM254.647 85.7803H245.356V81.7117H254.647C255.322 81.79 256.231 82.455 256.231 83.746C256.231 85.0272 255.322 85.7803 254.647 85.7803Z" fill="white"/>
<path d="M225.99 68.9395C219.76 68.9395 215.408 73.3797 215.408 79.7368C215.408 86.094 219.76 90.5342 225.99 90.5342H227.712C233.942 90.5342 238.294 86.094 238.294 79.7368C238.294 73.3797 233.942 68.9395 227.712 68.9395H225.99ZM220.846 79.7368C220.846 76.0399 222.822 73.2036 226.294 73.2036H227.418C230.89 73.2036 232.866 76.0399 232.866 79.7368C232.866 83.4435 230.89 86.27 227.418 86.27H226.294C222.822 86.27 220.846 83.4435 220.846 79.7368Z" fill="white"/>
<path d="M131.924 69.4102L132.589 72.5301C132.765 73.3614 133.587 74.046 134.428 74.046H139.123V90.0562H144.159V74.046H148.707C149.539 74.046 150.36 73.3712 150.536 72.5301L151.201 69.4102H131.924Z" fill="white"/>
<path d="M301.709 69.4102V77.6158H291.9V69.4102H286.863V90.066H291.9V82.0364H301.709V90.066H306.746V69.4102H301.709Z" fill="white"/>
<path d="M190.586 74.6903C189.833 71.2867 187.691 68.9199 182.987 68.9199C178.566 68.9199 176.141 71.2867 175.388 74.6903L171.975 90.0648H175.623C176.454 90.0648 177.285 89.3997 177.461 88.588L178.146 85.4583H187.819L188.513 88.588C188.689 89.3997 189.52 90.0648 190.352 90.0648H194L190.586 74.6903ZM179.114 81.1256L180.317 75.6781C180.513 74.7978 181.197 73.4482 182.997 73.4482C184.796 73.4482 185.481 74.7978 185.677 75.6781L186.88 81.1159H179.114V81.1256Z" fill="white"/>
<path d="M281.219 74.6903C280.466 71.2867 278.324 68.9199 273.62 68.9199C269.199 68.9199 266.774 71.2867 266.021 74.6903L262.607 90.0648H266.255C267.087 90.0648 267.918 89.3997 268.094 88.588L268.789 85.4583H278.461L279.156 88.588C279.332 89.3997 280.163 90.0648 280.994 90.0648H284.652L281.219 74.6903ZM269.737 81.1256L270.94 75.6781C271.136 74.7978 271.82 73.4482 273.62 73.4482C275.42 73.4482 276.104 74.7978 276.3 75.6781L277.503 81.1159H269.737V81.1256Z" fill="white"/>
<path d="M133.499 90.0053V90.064H123.65C117.684 90.064 113.528 85.8194 113.528 79.7361C113.528 73.6626 117.694 69.418 123.65 69.418H131.122L130.389 72.5868C130.203 73.3985 129.372 74.0538 128.54 74.0538H123.65C120.462 74.0538 118.565 76.4304 118.565 79.7459C118.565 83.0614 120.462 85.438 123.65 85.438H130.927C131.758 85.438 132.589 86.103 132.775 86.9148L133.499 90.0053Z" fill="white"/>
<path d="M164.718 69.4102H153.959C153.128 69.4102 152.443 70.0948 152.443 70.9163V90.0562H157.48V84.814H164.708C169.637 84.814 172.415 81.4985 172.415 77.1072C172.424 72.7257 169.119 69.4102 164.718 69.4102ZM164.718 80.188H157.49V74.0558H164.718C165.95 74.0558 167.388 75.1512 167.388 77.1268C167.388 79.0926 165.95 80.188 164.718 80.188Z" fill="white"/>
<path d="M349.477 85.704H338.621V81.743H350.426V77.7527H338.621V73.7721H349.477C350.367 73.7721 351.081 73.3809 351.325 72.2953L352 69.4102H335.09C334.259 69.4102 333.574 70.085 333.574 70.9261V88.5501C333.574 89.3814 334.259 90.066 335.09 90.066H352L351.325 87.1808C351.081 86.0952 350.377 85.704 349.477 85.704Z" fill="white"/>
<path d="M310.208 90.064V69.418H315.245V83.032L323.979 70.6307C324.468 69.9657 325.554 69.418 326.385 69.418H330.121V90.064H325.084V76.4402L316.35 88.8415C315.861 89.5163 314.776 90.064 313.945 90.064H310.208Z" fill="white"/>
<path d="M209.209 79.6285L216.241 69.418H211.615C210.617 69.418 209.913 69.7212 209.287 70.6894L205.541 76.5771H204.876L201.12 70.6894C200.504 69.7212 199.8 69.418 198.793 69.418H194.02L201.208 79.8535L194.177 90.064H198.803C199.81 90.064 200.514 89.7608 201.13 88.7926L204.886 82.9049H205.551L209.297 88.7926C209.913 89.7608 210.617 90.064 211.624 90.064H216.407L209.209 79.6285Z" fill="white"/>
<path d="M113.938 105.821C113.938 103.151 115.738 100.735 118.838 100.735C120.1 100.735 120.912 101.019 121.645 101.488L120.99 102.486C120.423 102.105 119.728 101.85 118.809 101.85C116.52 101.85 115.357 103.718 115.357 105.792C115.357 107.894 116.481 109.841 118.838 109.841C119.904 109.841 120.667 109.489 121.225 109.009L121.821 109.958C121.313 110.437 120.208 110.965 118.809 110.965C115.67 110.965 113.938 108.491 113.938 105.821Z" fill="white"/>
<path d="M123.689 100.911H128.902V102.036H125.029V105.019H128.423V106.134H125.029V109.664H129V110.789H123.689V100.911Z" fill="white"/>
<path d="M131.23 100.911H133.852C135.886 100.911 137.392 101.879 137.392 103.816C137.392 105.791 136.013 106.887 133.685 106.887H132.57V110.789H131.221V100.911H131.23ZM133.695 105.791C135.338 105.791 136.023 105.126 136.023 103.845C136.023 102.75 135.397 102.007 133.734 102.007H132.58V105.791H133.695Z" fill="white"/>
<path d="M139.416 100.911H142.164C144.002 100.911 145.44 101.576 145.44 103.376C145.44 104.559 144.756 105.293 143.68 105.576V105.606C144.883 105.811 145.87 106.662 145.87 108.021C145.87 110.036 144.345 110.799 142.115 110.799H139.416V100.911ZM142.027 105.126C143.455 105.126 144.071 104.608 144.071 103.493C144.071 102.456 143.377 101.997 142.056 101.997H140.746V105.126H142.027ZM142.086 109.704C143.719 109.704 144.472 109.195 144.472 108.012C144.472 106.867 143.866 106.173 142.174 106.173H140.746V109.704H142.086Z" fill="white"/>
<path d="M147.994 100.911H149.236V107.513C149.236 108.256 149.197 108.716 149.177 108.892H149.206C149.373 108.628 149.666 108.109 150.155 107.395L154.576 100.911H155.916V110.789H154.683V103.757C154.683 103.249 154.732 102.808 154.732 102.632H154.703C154.537 102.916 154.224 103.464 153.901 103.953L149.246 110.789H148.003V100.911H147.994Z" fill="white"/>
<path d="M158.058 105.821C158.058 103.151 159.857 100.735 162.958 100.735C164.219 100.735 165.031 101.019 165.764 101.488L165.109 102.486C164.542 102.105 163.848 101.85 162.928 101.85C160.64 101.85 159.476 103.718 159.476 105.792C159.476 107.894 160.6 109.841 162.958 109.841C164.024 109.841 164.786 109.489 165.344 109.009L165.94 109.958C165.432 110.437 164.327 110.965 162.928 110.965C159.799 110.965 158.058 108.491 158.058 105.821Z" fill="white"/>
<path d="M171.065 100.911H176.659V102.036H172.415V104.853H173.989C176.004 104.853 177.52 105.801 177.52 107.728C177.52 109.704 176.141 110.779 173.813 110.779H171.065V100.911ZM173.813 109.694C175.476 109.694 176.16 109.009 176.16 107.777C176.16 106.691 175.525 105.958 173.882 105.958H172.424V109.694H173.813Z" fill="white"/>
<path d="M179.251 110.73L179.427 109.704C179.545 109.733 179.711 109.752 179.907 109.752C180.718 109.752 181.198 109.263 181.657 108.207L181.912 107.64L178.929 100.901H180.22L182.567 106.202L184.895 100.901H186.186L182.763 108.686C182.078 110.232 181.266 110.809 179.917 110.809C179.623 110.819 179.388 110.789 179.251 110.73Z" fill="white"/>
<path d="M186.068 109.664H186.85C187.623 109.009 187.916 108.109 188.112 105.997L188.601 100.911H194.342V109.664H195.349L195.036 112.931H194.117L194.009 110.799H187.369L187.163 112.931H186.244L186.068 109.664ZM192.992 109.664V102.036H189.833L189.432 106.222C189.256 108.119 188.865 109.097 188.337 109.664H192.992Z" fill="white"/>
<path d="M196.993 110.73L197.169 109.704C197.286 109.733 197.452 109.752 197.648 109.752C198.46 109.752 198.939 109.263 199.399 108.207L199.653 107.64L196.67 100.901H197.961L200.308 106.202L202.636 100.901H203.927L200.504 108.686C199.819 110.232 199.007 110.809 197.658 110.809C197.364 110.819 197.13 110.789 196.993 110.73Z" fill="white"/>
<path d="M217.335 110.789H205.608V100.911H206.958V109.664H210.968V100.911H212.298V109.664H216.308V100.911H217.658V109.664H218.685L218.352 112.921H217.433L217.335 110.789Z" fill="white"/>
<path d="M220.739 100.911H225.952V102.036H222.079V105.019H225.473V106.134H222.079V109.664H226.05V110.789H220.739V100.911Z" fill="white"/>
<path d="M228.279 100.911H233.59V102.026H229.629V110.789H228.279V100.911Z" fill="white"/>
<path d="M234.402 105.87C234.402 103.151 236.202 100.735 239.302 100.735C242.383 100.735 244.212 103.122 244.212 105.841C244.212 108.54 242.412 110.975 239.332 110.975C236.231 110.965 234.402 108.569 234.402 105.87ZM242.784 105.87C242.784 103.718 241.61 101.85 239.332 101.85C237.043 101.85 235.82 103.689 235.82 105.841C235.82 107.992 237.023 109.86 239.302 109.86C241.581 109.86 242.784 108.012 242.784 105.87Z" fill="white"/>
<path d="M249.591 100.911H252.329C254.168 100.911 255.606 101.576 255.606 103.376C255.606 104.559 254.921 105.293 253.845 105.576V105.606C255.048 105.811 256.036 106.662 256.036 108.021C256.036 110.036 254.51 110.799 252.28 110.799H249.581V100.911H249.591ZM252.202 105.126C253.63 105.126 254.246 104.608 254.246 103.493C254.246 102.456 253.552 101.997 252.232 101.997H250.931V105.126H252.202ZM252.261 109.704C253.894 109.704 254.647 109.195 254.647 108.012C254.647 106.867 254.041 106.173 252.349 106.173H250.921V109.704H252.261Z" fill="white"/>
<path d="M261.414 100.911H262.763V105.038H268.113V100.911H269.463V110.789H268.113V106.163H262.763V110.789H261.414V100.911Z" fill="white"/>
<path d="M274.923 100.911H276.214L280.028 110.789H278.571L277.71 108.461H273.319L272.468 110.789H271.128L274.923 100.911ZM277.299 107.347L276.126 104.158C275.813 103.327 275.676 102.867 275.529 102.447H275.5C275.363 102.897 275.206 103.395 274.923 104.158L273.739 107.347H277.299Z" fill="white"/>
<path d="M280.692 105.821C280.692 103.151 282.482 100.735 285.592 100.735C286.854 100.735 287.666 101.019 288.399 101.488L287.744 102.486C287.177 102.105 286.482 101.85 285.563 101.85C283.284 101.85 282.101 103.718 282.101 105.792C282.101 107.894 283.225 109.841 285.592 109.841C286.658 109.841 287.411 109.489 287.979 109.009L288.575 109.958C288.067 110.437 286.962 110.965 285.563 110.965C282.423 110.965 280.692 108.491 280.692 105.821Z" fill="white"/>
<path d="M292.252 102.036H289.455V100.911H296.389V102.036H293.601V110.789H292.252V102.036Z" fill="white"/>
<path d="M297.201 105.87C297.201 103.151 299 100.735 302.101 100.735C305.181 100.735 307.01 103.122 307.01 105.841C307.01 108.54 305.22 110.975 302.13 110.975C299.02 110.965 297.201 108.569 297.201 105.87ZM305.582 105.87C305.582 103.718 304.409 101.85 302.13 101.85C299.851 101.85 298.609 103.689 298.609 105.841C298.609 107.992 299.812 109.86 302.101 109.86C304.379 109.86 305.582 108.012 305.582 105.87Z" fill="white"/>
<path d="M308.224 109.674H308.37C309.035 109.674 309.436 108.902 310.297 107.659C310.727 107.024 311.187 106.398 311.51 106.192V106.163C309.994 106.056 308.82 105.224 308.82 103.61C308.82 101.909 310.062 100.911 312.175 100.911H314.982V110.789H313.652V106.32H313.251C312.615 106.339 312.214 107.151 311.353 108.413C310.18 110.144 309.71 110.789 308.771 110.789H308.253L308.224 109.674ZM313.652 105.273V102.007H312.312C310.874 102.007 310.189 102.544 310.189 103.591C310.189 104.647 310.825 105.263 312.224 105.263H313.652V105.273Z" fill="white"/>
<path d="M329.475 110.789H317.758V100.911H319.108V109.664H323.108V100.911H324.448V109.664H328.448V100.911H329.808V109.664H330.825L330.502 112.921H329.583L329.475 110.789Z" fill="white"/>
<path d="M332.889 100.911H338.092V102.036H334.219V105.019H337.622V106.134H334.219V109.664H338.199V110.789H332.889V100.911Z" fill="white"/>
<path d="M341.163 100.911H342.425L344.782 107.513C345.065 108.315 345.232 108.804 345.388 109.303H345.418C345.554 108.833 345.731 108.295 346.014 107.513L348.391 100.911H349.662L351.002 110.789H349.652L348.841 104.588C348.753 103.875 348.704 103.474 348.674 103.19H348.645C348.557 103.513 348.44 103.933 348.215 104.569L346.004 110.789H344.704L342.454 104.569C342.229 103.933 342.102 103.513 341.994 103.19H341.965C341.936 103.532 341.887 103.943 341.818 104.618L341.065 110.789H339.823L341.163 100.911Z" fill="white"/>
</g>
<defs>
<filter id="filter0_d_30399_103514" x="282" y="199.199" width="22.3198" height="20.0002" filterUnits="userSpaceOnUse" color-interpolation-filters="sRGB">
<feFlood flood-opacity="0" result="BackgroundImageFix"/>
<feColorMatrix in="SourceAlpha" type="matrix" values="0 0 0 0 0 0 0 0 0 0 0 0 0 0 0 0 0 0 127 0" result="hardAlpha"/>
<feOffset dy="0.8"/>
<feComposite in2="hardAlpha" operator="out"/>
<feColorMatrix type="matrix" values="0 0 0 0 0.941176 0 0 0 0 0.94902 0 0 0 0 0.960784 0 0 0 1 0"/>
<feBlend mode="normal" in2="BackgroundImageFix" result="effect1_dropShadow_30399_103514"/>
<feBlend mode="normal" in="SourceGraphic" in2="effect1_dropShadow_30399_103514" result="shape"/>
</filter>
<filter id="filter1_d_30399_103514" x="282" y="219.199" width="22.3198" height="20.0002" filterUnits="userSpaceOnUse" color-interpolation-filters="sRGB">
<feFlood flood-opacity="0" result="BackgroundImageFix"/>
<feColorMatrix in="SourceAlpha" type="matrix" values="0 0 0 0 0 0 0 0 0 0 0 0 0 0 0 0 0 0 127 0" result="hardAlpha"/>
<feOffset dy="0.8"/>
<feComposite in2="hardAlpha" operator="out"/>
<feColorMatrix type="matrix" values="0 0 0 0 0.941176 0 0 0 0 0.94902 0 0 0 0 0.960784 0 0 0 1 0"/>
<feBlend mode="normal" in2="BackgroundImageFix" result="effect1_dropShadow_30399_103514"/>
<feBlend mode="normal" in="SourceGraphic" in2="effect1_dropShadow_30399_103514" result="shape"/>
</filter>
<filter id="filter2_d_30399_103514" x="282" y="239.199" width="22.3198" height="20.0002" filterUnits="userSpaceOnUse" color-interpolation-filters="sRGB">
<feFlood flood-opacity="0" result="BackgroundImageFix"/>
<feColorMatrix in="SourceAlpha" type="matrix" values="0 0 0 0 0 0 0 0 0 0 0 0 0 0 0 0 0 0 127 0" result="hardAlpha"/>
<feOffset dy="0.8"/>
<feComposite in2="hardAlpha" operator="out"/>
<feColorMatrix type="matrix" values="0 0 0 0 0.941176 0 0 0 0 0.94902 0 0 0 0 0.960784 0 0 0 1 0"/>
<feBlend mode="normal" in2="BackgroundImageFix" result="effect1_dropShadow_30399_103514"/>
<feBlend mode="normal" in="SourceGraphic" in2="effect1_dropShadow_30399_103514" result="shape"/>
</filter>
<filter id="filter3_d_30399_103514" x="282" y="259.199" width="22.3198" height="20.0002" filterUnits="userSpaceOnUse" color-interpolation-filters="sRGB">
<feFlood flood-opacity="0" result="BackgroundImageFix"/>
<feColorMatrix in="SourceAlpha" type="matrix" values="0 0 0 0 0 0 0 0 0 0 0 0 0 0 0 0 0 0 127 0" result="hardAlpha"/>
<feOffset dy="0.8"/>
<feComposite in2="hardAlpha" operator="out"/>
<feColorMatrix type="matrix" values="0 0 0 0 0.941176 0 0 0 0 0.94902 0 0 0 0 0.960784 0 0 0 1 0"/>
<feBlend mode="normal" in2="BackgroundImageFix" result="effect1_dropShadow_30399_103514"/>
<feBlend mode="normal" in="SourceGraphic" in2="effect1_dropShadow_30399_103514" result="shape"/>
</filter>
<filter id="filter4_d_30399_103514" x="282" y="279.199" width="22.3198" height="20.0002" filterUnits="userSpaceOnUse" color-interpolation-filters="sRGB">
<feFlood flood-opacity="0" result="BackgroundImageFix"/>
<feColorMatrix in="SourceAlpha" type="matrix" values="0 0 0 0 0 0 0 0 0 0 0 0 0 0 0 0 0 0 127 0" result="hardAlpha"/>
<feOffset dy="0.8"/>
<feComposite in2="hardAlpha" operator="out"/>
<feColorMatrix type="matrix" values="0 0 0 0 0.941176 0 0 0 0 0.94902 0 0 0 0 0.960784 0 0 0 1 0"/>
<feBlend mode="normal" in2="BackgroundImageFix" result="effect1_dropShadow_30399_103514"/>
<feBlend mode="normal" in="SourceGraphic" in2="effect1_dropShadow_30399_103514" result="shape"/>
</filter>
<filter id="filter5_d_30399_103514" x="332.319" y="186.64" width="151.36" height="124.32" filterUnits="userSpaceOnUse" color-interpolation-filters="sRGB">
<feFlood flood-opacity="0" result="BackgroundImageFix"/>
<feColorMatrix in="SourceAlpha" type="matrix" values="0 0 0 0 0 0 0 0 0 0 0 0 0 0 0 0 0 0 127 0" result="hardAlpha"/>
<feOffset/>
<feGaussianBlur stdDeviation="5.08"/>
<feComposite in2="hardAlpha" operator="out"/>
<feColorMatrix type="matrix" values="0 0 0 0 0.882353 0 0 0 0 0.901961 0 0 0 0 0.933333 0 0 0 1 0"/>
<feBlend mode="multiply" in2="BackgroundImageFix" result="effect1_dropShadow_30399_103514"/>
<feBlend mode="normal" in="SourceGraphic" in2="effect1_dropShadow_30399_103514" result="shape"/>
</filter>
<clipPath id="clip0_30399_103514">
<rect width="608" height="448" fill="white"/>
</clipPath>
</defs>
</svg>
