<svg width="808" height="632" viewBox="0 0 808 632" fill="none" xmlns="http://www.w3.org/2000/svg">
<rect width="808" height="632" fill="#CF0A2C"/>
<path d="M765.099 513.219L764.919 515.91C764.022 526.496 757.38 537.172 746.431 537.172C737.994 537.172 731.263 534.032 725.698 527.663C719.057 520.037 713.133 510.886 707.03 494.199C724.172 436.154 776.946 250.267 776.946 250.267H676.784C676.784 250.267 667.54 293.868 659.193 333.521C658.744 332.535 658.385 331.637 657.936 330.651C649.589 312.798 636.306 292.971 621.407 279.065C595.559 254.842 565.223 243 528.605 243C478.075 243 435.264 261.661 401.427 298.623C367.771 335.316 350 382.326 350 434.629C350 492.943 366.873 540.761 400.171 576.826C434.905 614.506 476.37 632 530.759 632C562.441 632 592.687 622.58 620.689 604.099C638.819 592.167 655.333 575.57 670.95 554.128C677.502 575.301 684.143 589.834 692.042 600.69C704.786 618.184 723.993 628.232 744.546 628.232C765.996 628.232 785.562 617.287 795.525 599.613C804.41 583.913 808 564.535 808 532.597V513.219H765.099ZM597.264 550.36C582.096 572.609 562.261 584.272 539.913 584.272C513.886 584.272 494.23 572.609 479.78 548.566C464.612 523.356 456.894 485.587 456.894 436.244C456.894 391.028 465.061 355.053 481.126 329.395C496.205 305.262 515.142 294.047 540.631 294.047C563.338 294.047 581.109 303.467 596.546 323.832C613.061 345.633 627.062 381.698 637.024 427.99C624.459 490.7 612.163 528.56 597.264 550.36Z" fill="#E51633"/>
<path d="M137.202 60H92.7077C74.6643 60 60 74.6643 60 92.6916V137.202C60 155.229 74.6643 169.893 92.7077 169.893H137.218C155.245 169.893 169.91 155.229 169.91 137.202V92.6916C169.893 74.6643 155.229 60 137.202 60Z" fill="white"/>
<path d="M149.635 128.456L149.603 128.941C149.441 130.849 148.244 132.773 146.272 132.773C144.752 132.773 143.54 132.207 142.537 131.059C141.341 129.685 140.274 128.036 139.174 125.028C142.262 114.568 151.769 81.0679 151.769 81.0679H133.726C133.726 81.0679 132.06 88.9255 130.557 96.0717C130.476 95.8939 130.411 95.7322 130.33 95.5543C128.827 92.3369 126.434 88.7638 123.75 86.2578C119.094 81.8924 113.629 79.7583 107.032 79.7583C97.9298 79.7583 90.2177 83.1212 84.1224 89.7824C78.0594 96.3951 74.8582 104.867 74.8582 114.293C74.8582 124.802 77.8977 133.42 83.896 139.919C90.153 146.71 97.6226 149.862 107.42 149.862C113.128 149.862 118.576 148.165 123.621 144.834C126.887 142.684 129.861 139.693 132.675 135.829C133.855 139.644 135.051 142.264 136.474 144.22C138.77 147.373 142.23 149.183 145.932 149.183C149.797 149.183 153.321 147.211 155.116 144.026C156.716 141.196 157.363 137.704 157.363 131.948V128.456H149.635ZM119.401 135.15C116.668 139.159 113.095 141.261 109.07 141.261C104.381 141.261 100.84 139.159 98.237 134.826C95.5046 130.283 94.1142 123.476 94.1142 114.584C94.1142 106.435 95.5854 99.952 98.4795 95.328C101.196 90.9788 104.607 88.9578 109.199 88.9578C113.289 88.9578 116.491 90.6555 119.271 94.3256C122.246 98.2544 124.769 104.754 126.563 113.097C124.3 124.398 122.085 131.221 119.401 135.15Z" fill="#D70926"/>
<path d="M224.913 82.6688C223.668 77.0585 220.127 73.1297 212.35 73.1297C205.042 73.1297 201.033 77.0423 199.788 82.6688L194.145 108.085H200.176C201.55 108.085 202.924 106.985 203.215 105.643L204.363 100.47H220.353L221.501 105.643C221.792 106.985 223.167 108.085 224.541 108.085H230.572L224.913 82.6688ZM205.932 93.3073L207.92 84.3017C208.244 82.8466 209.375 80.6155 212.35 80.6155C215.325 80.6155 216.457 82.8466 216.78 84.3017L218.769 93.3073H205.932Z" fill="white"/>
<path d="M245.43 81.6161H258.882V108.083H267.208V73.9525H242.083C239.335 73.9525 237.087 76.1998 237.087 78.9484V96.1996C237.087 98.5116 236.02 99.9667 234.177 100.339L232.463 100.743L234.016 108.067H235.6C241.307 108.067 245.414 103.831 245.414 96.6038V81.6161" fill="white"/>
<path d="M339.624 73.9536H336.585V69.9925H330.748C329.374 69.9925 328.242 71.1081 328.242 72.4823V73.9536H325.203C314.904 73.9536 308.469 80.9705 308.469 91.0108C308.469 101.067 314.904 108.084 325.203 108.084H328.242V112.223H334.079C335.453 112.223 336.585 111.091 336.585 109.733V108.084H339.624C349.923 108.084 356.358 101.067 356.358 91.0108C356.358 80.9867 349.923 73.9536 339.624 73.9536ZM325.219 100.55C319.512 100.55 316.812 96.9444 316.812 91.0108C316.812 85.0933 319.512 81.4879 325.219 81.4879H328.258V100.55H325.219ZM339.624 100.55H336.585V81.504H339.624C345.332 81.504 348.016 85.1095 348.016 91.027C348.016 96.9444 345.316 100.55 339.624 100.55Z" fill="white"/>
<path d="M293.061 82.6195H281.097V73.9696H272.77V105.594C272.77 106.968 273.902 108.1 275.276 108.1H293.061C300.32 108.1 305.801 102.635 305.801 95.3598C305.801 88.0842 301.21 82.6195 293.061 82.6195ZM293.061 100.437H281.097V90.2831H293.061C295.098 90.2831 297.459 92.0939 297.459 95.3598C297.475 98.6095 295.098 100.437 293.061 100.437Z" fill="white"/>
<path d="M387.433 82.6688C386.188 77.0585 382.648 73.1297 374.871 73.1297C367.563 73.1297 363.553 77.0423 362.308 82.6688L356.666 108.085H362.696C364.071 108.085 365.445 106.985 365.736 105.643L366.884 100.47H382.874L384.006 105.643C384.297 106.985 385.671 108.085 387.045 108.085H393.076L387.433 82.6688ZM368.452 93.3073L370.441 84.3017C370.764 82.8466 371.896 80.6155 374.871 80.6155C377.846 80.6155 378.978 82.8466 379.301 84.3017L381.29 93.3073H368.452Z" fill="white"/>
<path d="M435.726 138.284C437.198 136.846 438.135 134.873 438.135 132.141C438.135 126.094 433.447 121.858 427.4 121.858H407.028C405.654 121.858 404.522 122.973 404.522 124.348V153.482C404.522 154.857 405.654 155.972 407.028 155.972H428.693C435.08 155.972 439.316 151.413 439.316 145.35C439.316 142.326 437.861 139.934 435.726 138.284ZM427.4 128.939C428.499 128.939 430.019 130.184 430.019 132.302C430.019 134.436 428.499 135.536 427.4 135.665H412.703V128.939H427.4ZM428.063 148.907H412.703V142.181H428.063C429.178 142.31 430.682 143.41 430.682 145.544C430.682 147.662 429.178 148.907 428.063 148.907Z" fill="white"/>
<path d="M380.691 121.066C370.392 121.066 363.197 128.406 363.197 138.915C363.197 149.424 370.392 156.765 380.691 156.765H383.536C393.835 156.765 401.03 149.424 401.03 138.915C401.03 128.406 393.835 121.066 383.536 121.066H380.691ZM372.186 138.915C372.186 132.804 375.452 128.115 381.192 128.115H383.051C388.791 128.115 392.057 132.804 392.057 138.915C392.057 145.043 388.791 149.715 383.051 149.715H381.192C375.452 149.715 372.186 145.043 372.186 138.915Z" fill="white"/>
<path d="M225.187 121.843L226.287 127.001C226.578 128.375 227.936 129.507 229.326 129.507H237.087V155.974H245.413V129.507H252.932C254.306 129.507 255.664 128.391 255.955 127.001L257.054 121.843H225.187Z" fill="white"/>
<path d="M505.863 121.843V135.408H489.646V121.843H481.32V155.99H489.646V142.716H505.863V155.99H514.189V121.843H505.863Z" fill="white"/>
<path d="M322.163 130.573C320.918 124.947 317.377 121.034 309.6 121.034C302.293 121.034 298.283 124.947 297.038 130.573L291.395 155.989H297.426C298.8 155.989 300.175 154.89 300.466 153.548L301.597 148.374H317.587L318.735 153.548C319.026 154.89 320.401 155.989 321.775 155.989H327.806L322.163 130.573ZM303.198 141.212L305.187 132.206C305.51 130.751 306.642 128.52 309.617 128.52C312.592 128.52 313.723 130.751 314.047 132.206L316.035 141.196H303.198V141.212Z" fill="white"/>
<path d="M471.991 130.573C470.746 124.947 467.205 121.034 459.428 121.034C452.12 121.034 448.111 124.947 446.866 130.573L441.223 155.989H447.254C448.628 155.989 450.002 154.89 450.293 153.548L451.441 148.374H467.431L468.579 153.548C468.87 154.89 470.245 155.989 471.619 155.989H477.666L471.991 130.573ZM453.01 141.212L454.998 132.206C455.322 130.751 456.453 128.52 459.428 128.52C462.403 128.52 463.535 130.751 463.858 132.206L465.847 141.196H453.01V141.212Z" fill="white"/>
<path d="M227.791 155.891V155.988H211.509C201.647 155.988 194.776 148.971 194.776 138.915C194.776 128.875 201.663 121.858 211.509 121.858H223.862L222.649 127.096C222.342 128.438 220.968 129.521 219.593 129.521H211.509C206.239 129.521 203.102 133.45 203.102 138.931C203.102 144.412 206.239 148.341 211.509 148.341H223.538C224.913 148.341 226.287 149.44 226.594 150.782L227.791 155.891Z" fill="white"/>
<path d="M279.399 121.843H261.614C260.24 121.843 259.108 122.975 259.108 124.333V155.974H267.434V147.308H279.382C287.531 147.308 292.123 141.827 292.123 134.567C292.139 127.324 286.674 121.843 279.399 121.843ZM279.399 139.66H267.451V129.523H279.399C281.436 129.523 283.813 131.334 283.813 134.6C283.813 137.85 281.436 139.66 279.399 139.66Z" fill="white"/>
<path d="M584.829 148.779H566.882V142.231H586.397V135.635H566.882V129.054H584.829C586.3 129.054 587.48 128.407 587.884 126.613L589 121.843H561.046C559.671 121.843 558.54 122.959 558.54 124.349V153.484C558.54 154.858 559.671 155.99 561.046 155.99H589L587.884 151.22C587.48 149.426 586.316 148.779 584.829 148.779Z" fill="white"/>
<path d="M519.913 155.988V121.858H528.24V144.364L542.678 123.863C543.486 122.763 545.281 121.858 546.655 121.858H552.831V155.988H544.505V133.466L530.067 153.967C529.259 155.083 527.464 155.988 526.09 155.988H519.913Z" fill="white"/>
<path d="M352.948 138.737L364.572 121.858H356.925C355.276 121.858 354.112 122.359 353.077 123.96L346.885 133.693H345.785L339.577 123.96C338.558 122.359 337.394 121.858 335.729 121.858H327.839L339.722 139.109L328.097 155.988H335.745C337.41 155.988 338.574 155.487 339.593 153.887L345.801 144.153H346.901L353.093 153.887C354.112 155.487 355.276 155.988 356.941 155.988H364.847L352.948 138.737Z" fill="white"/>
<path d="M195.455 182.036C195.455 177.622 198.429 173.628 203.555 173.628C205.64 173.628 206.982 174.097 208.195 174.873L207.112 176.522C206.174 175.892 205.026 175.471 203.506 175.471C199.723 175.471 197.799 178.559 197.799 181.987C197.799 185.463 199.658 188.681 203.555 188.681C205.317 188.681 206.578 188.099 207.5 187.306L208.486 188.875C207.645 189.667 205.818 190.54 203.506 190.54C198.316 190.54 195.455 186.449 195.455 182.036Z" fill="white"/>
<path d="M211.574 173.919H220.192V175.778H213.789V180.71H219.4V182.553H213.789V188.389H220.354V190.249H211.574V173.919Z" fill="white"/>
<path d="M224.04 173.919H228.373C231.736 173.919 234.226 175.52 234.226 178.721C234.226 181.987 231.947 183.798 228.099 183.798H226.255V190.249H224.024V173.919H224.04ZM228.115 181.987C230.831 181.987 231.963 180.887 231.963 178.769C231.963 176.959 230.928 175.73 228.179 175.73H226.272V181.987H228.115Z" fill="white"/>
<path d="M237.571 173.919H242.115C245.154 173.919 247.531 175.018 247.531 177.993C247.531 179.95 246.399 181.162 244.621 181.631V181.68C246.609 182.019 248.242 183.426 248.242 185.673C248.242 189.004 245.72 190.265 242.034 190.265H237.571V173.919ZM241.888 180.887C244.249 180.887 245.267 180.031 245.267 178.187C245.267 176.474 244.119 175.714 241.937 175.714H239.77V180.887H241.888ZM241.985 188.454C244.685 188.454 245.93 187.613 245.93 185.657C245.93 183.765 244.928 182.617 242.131 182.617H239.77V188.454H241.985Z" fill="white"/>
<path d="M251.752 173.919H253.806V184.832C253.806 186.061 253.741 186.821 253.709 187.112H253.757C254.032 186.676 254.517 185.819 255.325 184.638L262.633 173.919H264.848V190.249H262.811V178.624C262.811 177.783 262.892 177.056 262.892 176.765H262.843C262.569 177.233 262.051 178.139 261.518 178.947L253.822 190.249H251.768V173.919H251.752Z" fill="white"/>
<path d="M268.389 182.036C268.389 177.622 271.364 173.628 276.49 173.628C278.575 173.628 279.917 174.097 281.13 174.873L280.046 176.522C279.109 175.892 277.961 175.471 276.441 175.471C272.658 175.471 270.734 178.559 270.734 181.987C270.734 185.463 272.593 188.681 276.49 188.681C278.252 188.681 279.513 188.099 280.435 187.306L281.421 188.875C280.58 189.667 278.753 190.54 276.441 190.54C271.267 190.54 268.389 186.449 268.389 182.036Z" fill="white"/>
<path d="M289.892 173.919H299.14V175.778H292.123V180.435H294.726C298.057 180.435 300.563 182.003 300.563 185.188C300.563 188.454 298.283 190.233 294.435 190.233H289.892V173.919ZM294.435 188.438C297.183 188.438 298.315 187.306 298.315 185.269C298.315 183.474 297.264 182.262 294.548 182.262H292.139V188.438H294.435Z" fill="white"/>
<path d="M303.425 190.152L303.716 188.455C303.91 188.503 304.185 188.536 304.508 188.536C305.85 188.536 306.642 187.727 307.402 185.981L307.822 185.043L302.891 173.904H305.025L308.906 182.667L312.754 173.904H314.888L309.229 186.773C308.097 189.328 306.755 190.282 304.524 190.282C304.039 190.298 303.651 190.249 303.425 190.152Z" fill="white"/>
<path d="M314.694 188.389H315.987C317.264 187.306 317.749 185.819 318.073 182.326L318.881 173.919H328.372V188.389H330.037L329.52 193.789H328L327.822 190.265H316.844L316.504 193.789H314.985L314.694 188.389ZM326.141 188.389V175.778H320.918L320.255 182.698C319.964 185.835 319.318 187.452 318.445 188.389H326.141Z" fill="white"/>
<path d="M332.753 190.152L333.044 188.455C333.238 188.503 333.513 188.536 333.836 188.536C335.178 188.536 335.971 187.727 336.73 185.981L337.151 185.043L332.22 173.904H334.354L338.234 182.667L342.082 173.904H344.216L338.557 186.773C337.426 189.328 336.084 190.282 333.853 190.282C333.368 190.298 332.98 190.249 332.753 190.152Z" fill="white"/>
<path d="M366.382 190.249H346.997V173.919H349.228V188.389H355.857V173.919H358.055V188.389H364.684V173.919H366.915V188.389H368.613L368.063 193.773H366.544L366.382 190.249Z" fill="white"/>
<path d="M372.01 173.919H380.627V175.778H374.225V180.71H379.835V182.553H374.225V188.389H380.789V190.249H372.01V173.919Z" fill="white"/>
<path d="M384.474 173.919H393.253V175.762H386.705V190.249H384.474V173.919Z" fill="white"/>
<path d="M394.597 182.116C394.597 177.622 397.572 173.628 402.697 173.628C407.79 173.628 410.813 177.573 410.813 182.068C410.813 186.53 407.838 190.556 402.745 190.556C397.62 190.54 394.597 186.579 394.597 182.116ZM408.453 182.116C408.453 178.559 406.512 175.471 402.745 175.471C398.962 175.471 396.941 178.511 396.941 182.068C396.941 185.625 398.93 188.713 402.697 188.713C406.464 188.713 408.453 185.657 408.453 182.116Z" fill="white"/>
<path d="M419.705 173.919H424.232C427.271 173.919 429.648 175.018 429.648 177.993C429.648 179.95 428.516 181.162 426.738 181.631V181.68C428.726 182.019 430.359 183.426 430.359 185.673C430.359 189.004 427.837 190.265 424.151 190.265H419.688V173.919H419.705ZM424.021 180.887C426.382 180.887 427.401 180.031 427.401 178.187C427.401 176.474 426.253 175.714 424.07 175.714H421.92V180.887H424.021ZM424.119 188.454C426.819 188.454 428.063 187.613 428.063 185.657C428.063 183.765 427.061 182.617 424.264 182.617H421.904V188.454H424.119Z" fill="white"/>
<path d="M439.25 173.919H441.481V180.742H450.325V173.919H452.556V190.249H450.325V182.602H441.481V190.249H439.25V173.919Z" fill="white"/>
<path d="M461.581 173.919H463.715L470.02 190.249H467.611L466.188 186.401H458.929L457.522 190.249H455.307L461.581 173.919ZM465.509 184.558L463.569 179.287C463.052 177.913 462.825 177.153 462.583 176.457H462.534C462.308 177.201 462.049 178.026 461.581 179.287L459.624 184.558H465.509Z" fill="white"/>
<path d="M471.119 182.035C471.119 177.621 474.078 173.628 479.219 173.628C481.305 173.628 482.647 174.097 483.859 174.873L482.776 176.522C481.838 175.891 480.69 175.471 479.171 175.471C475.404 175.471 473.447 178.559 473.447 181.987C473.447 185.463 475.307 188.68 479.219 188.68C480.981 188.68 482.226 188.098 483.164 187.306L484.15 188.874C483.31 189.666 481.483 190.54 479.171 190.54C473.981 190.54 471.119 186.449 471.119 182.035Z" fill="white"/>
<path d="M490.229 175.778H485.605V173.919H497.068V175.778H492.46V190.249H490.229V175.778Z" fill="white"/>
<path d="M498.41 182.116C498.41 177.622 501.385 173.628 506.51 173.628C511.603 173.628 514.627 177.573 514.627 182.068C514.627 186.53 511.668 190.556 506.559 190.556C501.417 190.54 498.41 186.579 498.41 182.116ZM512.266 182.116C512.266 178.559 510.326 175.471 506.559 175.471C502.792 175.471 500.738 178.511 500.738 182.068C500.738 185.625 502.727 188.713 506.51 188.713C510.277 188.713 512.266 185.657 512.266 182.116Z" fill="white"/>
<path d="M516.632 188.406H516.874C517.974 188.406 518.636 187.128 520.059 185.075C520.771 184.024 521.531 182.989 522.064 182.65V182.601C519.558 182.423 517.618 181.049 517.618 178.381C517.618 175.568 519.671 173.919 523.163 173.919H527.804V190.249H525.605V182.86H524.942C523.891 182.892 523.228 184.234 521.805 186.32C519.865 189.182 519.089 190.249 517.537 190.249H516.68L516.632 188.406ZM525.605 181.13V175.73H523.39C521.013 175.73 519.881 176.619 519.881 178.349C519.881 180.095 520.932 181.114 523.244 181.114H525.605V181.13Z" fill="white"/>
<path d="M551.764 190.249H532.395V173.919H534.626V188.389H541.239V173.919H543.454V188.389H550.066V173.919H552.314V188.389H553.995L553.462 193.773H551.942L551.764 190.249Z" fill="white"/>
<path d="M557.407 173.919H566.008V175.778H559.606V180.71H565.232V182.553H559.606V188.389H566.186V190.249H557.407V173.919Z" fill="white"/>
<path d="M571.085 173.919H573.171L577.067 184.832C577.536 186.158 577.811 186.967 578.07 187.791H578.118C578.344 187.015 578.635 186.126 579.104 184.832L583.033 173.919H585.135L587.35 190.249H585.119L583.777 179.998C583.631 178.818 583.551 178.155 583.502 177.686H583.454C583.308 178.22 583.114 178.915 582.742 179.966L579.088 190.249H576.938L573.219 179.966C572.847 178.915 572.637 178.22 572.459 177.686H572.411C572.362 178.252 572.281 178.931 572.168 180.047L570.923 190.249H568.87L571.085 173.919Z" fill="white"/>
<rect x="60" y="233" width="151" height="93" rx="8" fill="white"/>
<rect x="486" y="446" width="262" height="126" rx="8" fill="white"/>
<rect x="60" y="348" width="151" height="76" rx="8" fill="white"/>
<rect x="60" y="446" width="404" height="52" rx="8" fill="#FAD9DF"/>
<rect x="60" y="520" width="404" height="52" rx="8" fill="white"/>
<rect x="233" y="233" width="191" height="191" rx="8" fill="#344154"/>
<rect x="446" y="233" width="302" height="191" rx="8" fill="white"/>
<line x1="447" y1="323" x2="747" y2="323" stroke="#D8DDE6" stroke-width="2" stroke-linecap="round" stroke-dasharray="0.62 4.96"/>
<rect x="80" y="254" width="90" height="10" rx="5" fill="#E1E6EE"/>
<rect x="253" y="254" width="140" height="10" rx="5" fill="#79859E"/>
<rect x="465" y="254" width="140" height="14" rx="7" fill="#344154"/>
<rect x="506" y="467" width="140" height="10" rx="5" fill="#344154"/>
<rect x="718" y="467" width="10" height="10" rx="5" fill="#E1E6EE"/>
<rect x="704" y="467" width="10" height="10" rx="5" fill="#E1E6EE"/>
<rect x="690" y="467" width="10" height="10" rx="5" fill="#E1E6EE"/>
<rect x="714" y="254" width="14" height="14" rx="7" fill="#CF0A2C"/>
<rect x="465" y="342" width="101" height="10" rx="5" fill="#E1E6EE"/>
<rect x="465" y="401" width="126" height="6" rx="3" fill="#E1E6EE"/>
<rect x="506" y="492" width="222" height="6" rx="3" fill="#E1E6EE"/>
<rect x="506" y="506" width="24" height="6" rx="3" fill="white"/>
<rect x="539" y="506" width="24" height="6" rx="3" fill="white"/>
<rect x="572" y="506" width="24" height="6" rx="3" fill="white"/>
<rect x="605" y="506" width="24" height="6" rx="3" fill="white"/>
<rect x="638" y="506" width="24" height="6" rx="3" fill="white"/>
<rect x="671" y="506" width="24" height="6" rx="3" fill="#E1E6EE"/>
<rect x="704" y="506" width="24" height="6" rx="3" fill="#E1E6EE"/>
<rect x="506" y="520" width="24" height="6" rx="3" fill="#E1E6EE"/>
<rect x="539" y="520" width="24" height="6" rx="3" fill="#E1E6EE"/>
<rect x="572" y="520" width="24" height="6" rx="3" fill="#E1E6EE"/>
<rect x="605" y="520" width="24" height="6" rx="3" fill="#E1E6EE"/>
<rect x="638" y="520" width="24" height="6" rx="3" fill="#A9B4C6"/>
<rect x="671" y="520" width="24" height="6" rx="3" fill="#A9B4C6"/>
<rect x="704" y="520" width="24" height="6" rx="3" fill="#A9B4C6"/>
<rect x="506" y="534" width="24" height="6" rx="3" fill="#A9B4C6"/>
<rect x="539" y="534" width="24" height="6" rx="3" fill="#A9B4C6"/>
<rect x="572" y="534" width="24" height="6" rx="3" fill="#A9B4C6"/>
<rect x="605" y="534" width="24" height="6" rx="3" fill="#A9B4C6"/>
<rect x="638" y="534" width="24" height="6" rx="3" fill="#A9B4C6"/>
<rect x="671" y="534" width="24" height="6" rx="3" fill="#A9B4C6"/>
<rect x="704" y="534" width="24" height="6" rx="3" fill="#A9B4C6"/>
<rect x="506" y="548" width="24" height="6" rx="3" fill="#344154"/>
<rect x="539" y="548" width="24" height="6" rx="3" fill="#344154"/>
<rect x="572" y="548" width="24" height="6" rx="3" fill="#E1E6EE"/>
<rect x="605" y="548" width="24" height="6" rx="3" fill="white"/>
<rect x="638" y="548" width="24" height="6" rx="3" fill="white"/>
<rect x="671" y="548" width="24" height="6" rx="3" fill="white"/>
<rect x="704" y="548" width="24" height="6" rx="3" fill="#E1E6EE"/>
<rect x="80" y="275" width="114" height="10" rx="5" fill="#E1E6EE"/>
<rect x="253" y="275" width="77" height="10" rx="5" fill="#79859E"/>
<rect x="253" y="317" width="77" height="10" rx="5" fill="#79859E"/>
<rect x="253" y="378" width="70" height="26" rx="4" fill="#CF0A2C"/>
<rect x="465.31" y="278.31" width="125.38" height="25.38" rx="3.41018" fill="white" stroke="#98A3B3" stroke-width="0.620033"/>
<rect x="465.31" y="362.31" width="125.38" height="25.38" rx="3.41018" fill="white" stroke="#98A3B3" stroke-width="0.620033"/>
<rect x="334" y="378" width="70" height="26" rx="4" fill="#4C5A6F"/>
<rect x="602.31" y="278.31" width="125.38" height="25.38" rx="3.41018" fill="white" stroke="#98A3B3" stroke-width="0.620033"/>
<rect x="602.31" y="362.31" width="125.38" height="25.38" rx="3.41018" fill="white" stroke="#98A3B3" stroke-width="0.620033"/>
<rect x="135" y="371" width="59" height="10" rx="5" fill="#344154"/>
<rect x="135" y="392" width="43" height="10" rx="5" fill="#344154"/>
<rect x="80" y="296" width="77" height="10" rx="5" fill="#E1E6EE"/>
<rect x="253" y="296" width="110" height="10" rx="5" fill="#79859E"/>
<rect x="116" y="467" width="265" height="10" rx="5" fill="#FDA0B0"/>
<circle cx="91" cy="472" r="11" fill="#CF0A2C"/>
<circle cx="102" cy="386" r="22" fill="#344154"/>
<rect x="80" y="534" width="24" height="24" rx="4" fill="#475467"/>
<rect x="114" y="534" width="24" height="24" rx="4" fill="#475467"/>
<rect x="148" y="534" width="24" height="24" rx="4" fill="#475467"/>
<rect x="182" y="534" width="24" height="24" rx="4" fill="#667285"/>
<rect x="216" y="534" width="24" height="24" rx="4" fill="#667285"/>
<rect x="250" y="534" width="24" height="24" rx="4" fill="#E1E6EE"/>
<rect x="284" y="534" width="24" height="24" rx="4" fill="#E1E6EE"/>
<rect x="318" y="534" width="24" height="24" rx="4" fill="#E1E6EE"/>
<rect x="352.365" y="534.365" width="23.2695" height="23.2695" rx="4.01786" fill="white" stroke="#98A3B3" stroke-width="0.730519" stroke-dasharray="2.92 2.92"/>
<rect x="386" y="534" width="24" height="24" rx="4" fill="#E1E6EE"/>
<rect x="420" y="534" width="24" height="24" rx="4" fill="#E1E6EE"/>
<circle cx="92" cy="546" r="5" fill="white"/>
<circle cx="126" cy="546" r="5" fill="white"/>
<circle cx="160" cy="546" r="5" fill="white"/>
<circle cx="194" cy="546" r="5" fill="#D8DDE5"/>
<circle cx="228" cy="546" r="5" fill="#D8DDE5"/>
<circle cx="262" cy="546" r="5" fill="#475467"/>
<circle cx="296" cy="546" r="5" fill="#475467"/>
<circle cx="330" cy="546" r="5" fill="#475467"/>
<circle cx="364" cy="546" r="5" fill="#98A3B3"/>
<circle cx="398" cy="546" r="5" fill="#475467"/>
<circle cx="432" cy="546" r="5" fill="#475467"/>
<rect x="657" y="538" width="131" height="74" rx="16" fill="#344154"/>
<path d="M700.422 583.045V587H682.914V583.625L691.193 574.748C692.025 573.822 692.682 573.008 693.162 572.305C693.643 571.59 693.988 570.951 694.199 570.389C694.422 569.814 694.533 569.27 694.533 568.754C694.533 567.98 694.404 567.318 694.146 566.768C693.889 566.205 693.508 565.771 693.004 565.467C692.512 565.162 691.902 565.01 691.176 565.01C690.402 565.01 689.734 565.197 689.172 565.572C688.621 565.947 688.199 566.469 687.906 567.137C687.625 567.805 687.484 568.561 687.484 569.404H682.404C682.404 567.881 682.768 566.486 683.494 565.221C684.221 563.943 685.246 562.93 686.57 562.18C687.895 561.418 689.465 561.037 691.281 561.037C693.074 561.037 694.586 561.33 695.816 561.916C697.059 562.49 697.996 563.322 698.629 564.412C699.273 565.49 699.596 566.779 699.596 568.279C699.596 569.123 699.461 569.949 699.191 570.758C698.922 571.555 698.535 572.352 698.031 573.148C697.539 573.934 696.941 574.73 696.238 575.539C695.535 576.348 694.756 577.186 693.9 578.053L689.453 583.045H700.422ZM720.812 571.953V576.383C720.812 578.305 720.607 579.963 720.197 581.357C719.787 582.74 719.195 583.877 718.422 584.768C717.66 585.646 716.752 586.297 715.697 586.719C714.643 587.141 713.471 587.352 712.182 587.352C711.15 587.352 710.189 587.223 709.299 586.965C708.408 586.695 707.605 586.279 706.891 585.717C706.188 585.154 705.578 584.445 705.062 583.59C704.559 582.723 704.172 581.691 703.902 580.496C703.633 579.301 703.498 577.93 703.498 576.383V571.953C703.498 570.031 703.703 568.385 704.113 567.014C704.535 565.631 705.127 564.5 705.889 563.621C706.662 562.742 707.576 562.098 708.631 561.688C709.686 561.266 710.857 561.055 712.146 561.055C713.178 561.055 714.133 561.189 715.012 561.459C715.902 561.717 716.705 562.121 717.42 562.672C718.135 563.223 718.744 563.932 719.248 564.799C719.752 565.654 720.139 566.68 720.408 567.875C720.678 569.059 720.812 570.418 720.812 571.953ZM715.732 577.051V571.268C715.732 570.342 715.68 569.533 715.574 568.842C715.48 568.15 715.334 567.564 715.135 567.084C714.936 566.592 714.689 566.193 714.396 565.889C714.104 565.584 713.77 565.361 713.395 565.221C713.02 565.08 712.604 565.01 712.146 565.01C711.572 565.01 711.062 565.121 710.617 565.344C710.184 565.566 709.814 565.924 709.51 566.416C709.205 566.896 708.971 567.541 708.807 568.35C708.654 569.146 708.578 570.119 708.578 571.268V577.051C708.578 577.977 708.625 578.791 708.719 579.494C708.824 580.197 708.977 580.801 709.176 581.305C709.387 581.797 709.633 582.201 709.914 582.518C710.207 582.822 710.541 583.045 710.916 583.186C711.303 583.326 711.725 583.396 712.182 583.396C712.744 583.396 713.242 583.285 713.676 583.062C714.121 582.828 714.496 582.465 714.801 581.973C715.117 581.469 715.352 580.812 715.504 580.004C715.656 579.195 715.732 578.211 715.732 577.051ZM741.766 583.045V587H724.258V583.625L732.537 574.748C733.369 573.822 734.025 573.008 734.506 572.305C734.986 571.59 735.332 570.951 735.543 570.389C735.766 569.814 735.877 569.27 735.877 568.754C735.877 567.98 735.748 567.318 735.49 566.768C735.232 566.205 734.852 565.771 734.348 565.467C733.855 565.162 733.246 565.01 732.52 565.01C731.746 565.01 731.078 565.197 730.516 565.572C729.965 565.947 729.543 566.469 729.25 567.137C728.969 567.805 728.828 568.561 728.828 569.404H723.748C723.748 567.881 724.111 566.486 724.838 565.221C725.564 563.943 726.59 562.93 727.914 562.18C729.238 561.418 730.809 561.037 732.625 561.037C734.418 561.037 735.93 561.33 737.16 561.916C738.402 562.49 739.34 563.322 739.973 564.412C740.617 565.49 740.939 566.779 740.939 568.279C740.939 569.123 740.805 569.949 740.535 570.758C740.266 571.555 739.879 572.352 739.375 573.148C738.883 573.934 738.285 574.73 737.582 575.539C736.879 576.348 736.1 577.186 735.244 578.053L730.797 583.045H741.766ZM750.115 572.006H752.822C753.689 572.006 754.404 571.859 754.967 571.566C755.529 571.262 755.945 570.84 756.215 570.301C756.496 569.75 756.637 569.111 756.637 568.385C756.637 567.729 756.508 567.148 756.25 566.645C756.004 566.129 755.623 565.73 755.107 565.449C754.592 565.156 753.941 565.01 753.156 565.01C752.535 565.01 751.961 565.133 751.434 565.379C750.906 565.625 750.484 565.971 750.168 566.416C749.852 566.861 749.693 567.4 749.693 568.033H744.613C744.613 566.627 744.988 565.402 745.738 564.359C746.5 563.316 747.52 562.502 748.797 561.916C750.074 561.33 751.48 561.037 753.016 561.037C754.75 561.037 756.268 561.318 757.568 561.881C758.869 562.432 759.883 563.246 760.609 564.324C761.336 565.402 761.699 566.738 761.699 568.332C761.699 569.141 761.512 569.926 761.137 570.688C760.762 571.438 760.223 572.117 759.52 572.727C758.828 573.324 757.984 573.805 756.988 574.168C755.992 574.52 754.873 574.695 753.631 574.695H750.115V572.006ZM750.115 575.855V573.236H753.631C755.025 573.236 756.25 573.395 757.305 573.711C758.359 574.027 759.244 574.484 759.959 575.082C760.674 575.668 761.213 576.365 761.576 577.174C761.939 577.971 762.121 578.855 762.121 579.828C762.121 581.023 761.893 582.09 761.436 583.027C760.979 583.953 760.334 584.738 759.502 585.383C758.682 586.027 757.721 586.52 756.619 586.859C755.518 587.188 754.316 587.352 753.016 587.352C751.938 587.352 750.877 587.205 749.834 586.912C748.803 586.607 747.865 586.156 747.021 585.559C746.189 584.949 745.521 584.188 745.018 583.273C744.525 582.348 744.279 581.252 744.279 579.986H749.359C749.359 580.643 749.523 581.229 749.852 581.744C750.18 582.26 750.631 582.664 751.205 582.957C751.791 583.25 752.441 583.396 753.156 583.396C753.965 583.396 754.656 583.25 755.23 582.957C755.816 582.652 756.262 582.23 756.566 581.691C756.883 581.141 757.041 580.502 757.041 579.775C757.041 578.838 756.871 578.088 756.531 577.525C756.191 576.951 755.705 576.529 755.072 576.26C754.439 575.99 753.689 575.855 752.822 575.855H750.115Z" fill="white"/>
</svg>
