<svg width="609" height="448" viewBox="0 0 609 448" fill="none" xmlns="http://www.w3.org/2000/svg">
<rect x="0.600098" width="608" height="448" rx="6.4" fill="#D4E2E8"/>
<circle cx="415.75" cy="240.751" r="167.951" fill="white" fill-opacity="0.3"/>
<circle cx="537.786" cy="114.786" r="34.7859" fill="#8298A2"/>
<circle cx="547.285" cy="346.195" r="21.1976" fill="white"/>
<circle cx="261.07" cy="171.671" r="10.8706" fill="white"/>
<circle cx="326.2" cy="376.8" r="45.6" fill="#8298A2"/>
<g filter="url(#filter0_di_30215_28960)">
<path fill-rule="evenodd" clip-rule="evenodd" d="M495.602 240.75C495.602 284.802 459.891 320.513 415.839 320.513C400.852 320.513 386.831 316.38 374.853 309.191L338.876 319.42C337.219 319.891 335.698 318.34 336.203 316.693L347.072 281.188C340.084 269.331 336.076 255.508 336.076 240.75C336.076 196.698 371.787 160.987 415.839 160.987C459.891 160.987 495.602 196.698 495.602 240.75ZM382.394 251.869C388.802 251.869 393.996 246.675 393.996 240.267C393.996 233.859 388.802 228.665 382.394 228.665C375.986 228.665 370.792 233.859 370.792 240.267C370.792 246.675 375.986 251.869 382.394 251.869ZM426.868 239.803C426.868 245.954 421.674 250.941 415.266 250.941C408.859 250.941 403.665 245.954 403.665 239.803C403.665 233.652 408.859 228.665 415.266 228.665C421.674 228.665 426.868 233.652 426.868 239.803ZM448.138 251.869C454.546 251.869 459.74 246.675 459.74 240.267C459.74 233.859 454.546 228.665 448.138 228.665C441.731 228.665 436.536 233.859 436.536 240.267C436.536 246.675 441.731 251.869 448.138 251.869Z" fill="url(#paint0_linear_30215_28960)"/>
</g>
<path d="M415.75 345.652C473.685 345.652 520.651 298.686 520.651 240.751C520.651 182.815 473.685 135.849 415.75 135.849C357.814 135.849 310.849 182.815 310.849 240.751" stroke="#223548" stroke-width="8.8"/>
<rect x="405.423" y="331.52" width="45.6565" height="21.7412" rx="10.8706" fill="#223548"/>
<path d="M543.479 213.031C543.479 198.622 531.799 186.941 517.39 186.941H511.955C507.152 186.941 503.258 190.835 503.258 195.638V280.428C503.258 285.231 507.152 289.125 511.955 289.125H517.39C531.799 289.125 543.479 277.444 543.479 263.035V213.031Z" fill="#223548"/>
<path d="M543.479 213.031C543.479 198.622 531.799 186.941 517.39 186.941H511.955C507.152 186.941 503.258 190.835 503.258 195.638V280.428C503.258 285.231 507.152 289.125 511.955 289.125H517.39C531.799 289.125 543.479 277.444 543.479 263.035V213.031Z" fill="url(#paint1_linear_30215_28960)"/>
<path d="M288.021 213.031C288.021 198.622 299.701 186.941 314.11 186.941H319.545C324.348 186.941 328.242 190.835 328.242 195.638V280.428C328.242 285.231 324.348 289.125 319.545 289.125H314.11C299.701 289.125 288.021 277.444 288.021 263.035V213.031Z" fill="#223548"/>
<path d="M288.021 213.031C288.021 198.622 299.701 186.941 314.11 186.941H319.545C324.348 186.941 328.242 190.835 328.242 195.638V280.428C328.242 285.231 324.348 289.125 319.545 289.125H314.11C299.701 289.125 288.021 277.444 288.021 263.035V213.031Z" fill="url(#paint2_linear_30215_28960)"/>
<path d="M551.089 221.727C551.089 217.524 547.682 214.118 543.479 214.118V214.118V263.035V263.035C547.682 263.035 551.089 259.628 551.089 255.426V221.727Z" fill="#223548"/>
<path d="M551.089 221.727C551.089 217.524 547.682 214.118 543.479 214.118V214.118V263.035V263.035C547.682 263.035 551.089 259.628 551.089 255.426V221.727Z" fill="url(#paint3_linear_30215_28960)" fill-opacity="0.2"/>
<path d="M280.411 221.727C280.411 217.524 283.818 214.118 288.021 214.118V214.118V263.035V263.035C283.818 263.035 280.411 259.628 280.411 255.426V221.727Z" fill="#223548"/>
<path d="M280.411 221.727C280.411 217.524 283.818 214.118 288.021 214.118V214.118V263.035V263.035C283.818 263.035 280.411 259.628 280.411 255.426V221.727Z" fill="url(#paint4_linear_30215_28960)" fill-opacity="0.2"/>
<rect x="305.8" y="362" width="40.8" height="29.6" rx="3.14824" stroke="white" stroke-width="2.4"/>
<rect x="327.4" y="380.4" width="13.6" height="5.6" rx="2.8" stroke="white" stroke-width="2.4"/>
<circle cx="534.2" cy="117.6" r="14" stroke="white" stroke-width="2.4"/>
<circle cx="534.2" cy="117.6" r="9.2" stroke="white" stroke-width="2.4"/>
<path d="M537.786 104.588C538.636 100.64 542.163 97.6798 546.385 97.6798C551.241 97.6798 555.179 101.598 555.179 106.431C555.179 110.793 551.97 114.41 547.773 115.073" stroke="white" stroke-width="2.4"/>
<path d="M381.02 46.2563L368.739 60.0194V46.2563H359.825V80.9352H368.739V66.3336L381.911 80.9352H393.399L377.207 62.7818L392.211 46.2563H381.02Z" fill="#EF2F24"/>
<path d="M344.078 59.1806H331.797V46.2562H322.884V80.935H331.797V67.2707H344.078V80.935H352.992V46.2562H344.078V59.1806Z" fill="#EF2F24"/>
<path d="M85.4866 65.051C85.2885 71.5132 84.4467 72.7958 80.7822 72.7958V80.9352H82.1193C91.2309 80.9352 93.4097 76.2488 93.7564 65.8403L94.103 54.2971H102.62V80.9352H111.534V46.2563H86.1303L85.4866 65.051Z" fill="#EF2F24"/>
<path d="M133.075 73.3384H127.331V64.5084H133.075C136.145 64.5084 138.027 65.8403 138.027 68.7507C138.027 71.9078 136.244 73.3384 133.075 73.3384ZM133.768 56.8129H127.331V46.2563H118.417V80.9352H133.867C143.573 80.9352 147.039 74.6703 147.039 68.7507C147.039 61.1046 142.236 56.8129 133.768 56.8129Z" fill="#EF2F24"/>
<path d="M176.058 73.3876V53.7544C181.01 54.445 184.08 58.1447 184.08 63.571C184.13 68.9973 181.01 72.697 176.058 73.3876ZM167.144 73.3876C162.192 72.697 159.122 68.9973 159.122 63.571C159.122 58.1447 162.192 54.445 167.144 53.7544V73.3876ZM176.058 45.467V32.5919H167.144V45.467C156.943 46.3056 150.06 53.5571 150.06 63.571C150.06 73.6836 156.943 80.8858 167.144 81.7737V94.8461H176.058V81.7737C186.259 80.9844 193.142 73.6836 193.142 63.571C193.142 53.4584 186.259 46.2563 176.058 45.467Z" fill="#EF2F24"/>
<path d="M217.655 68.0107C217.655 72.0064 214.832 74.2756 211.118 74.2756C207.899 74.2756 205.374 73.0917 205.374 69.6386C205.374 66.2348 208.147 65.6922 210.573 65.6922H217.704V68.0107H217.655ZM226.568 70.2799V58.638C226.568 50.1533 221.121 44.7764 211.96 44.7764C202.502 44.7764 197.5 50.4493 197.054 56.3689H206.067C206.364 55.0863 207.751 52.8665 211.96 52.8665C215.426 52.8665 217.655 54.445 217.655 58.638H208.791C200.867 58.638 196.163 62.7817 196.163 69.6879C196.163 76.89 201.313 81.823 208.741 81.823C214.188 81.823 217.209 79.2579 218.496 77.334C219.685 79.6525 222.26 80.9844 225.677 80.9844H228.747V72.993C227.162 72.9437 226.568 72.2037 226.568 70.2799Z" fill="#EF2F24"/>
<path d="M264.302 72.2037H254.794V59.6246H264.302C269.254 59.6246 272.027 61.8938 272.027 65.8895C272.027 70.0332 269.254 72.2037 264.302 72.2037ZM264.698 51.1892H254.745V41.3726H277.821V32.5426H245.386V80.9351H264.698C275.395 80.9351 281.535 75.6568 281.535 65.8895C281.535 56.7142 275.444 51.1892 264.698 51.1892Z" fill="#EF2F24"/>
<path d="M306.741 68.0107C306.741 72.0064 303.918 74.2756 300.204 74.2756C296.985 74.2756 294.46 73.0917 294.46 69.6386C294.46 66.2348 297.233 65.6922 299.659 65.6922H306.79V68.0107H306.741ZM315.654 70.2799V58.638C315.654 50.1533 310.207 44.7764 301.046 44.7764C291.588 44.7764 286.586 50.4493 286.14 56.3689H295.153C295.45 55.0863 296.837 52.8665 301.046 52.8665C304.512 52.8665 306.741 54.445 306.741 58.638H297.877C289.953 58.638 285.249 62.7817 285.249 69.6879C285.249 76.89 290.399 81.823 297.827 81.823C303.274 81.823 306.295 79.2579 307.582 77.334C308.771 79.6525 311.346 80.9844 314.763 80.9844H317.833V72.993C316.248 72.9437 315.654 72.2037 315.654 70.2799Z" fill="#EF2F24"/>
<path d="M80.2375 105.6H32.5996V95.734H80.2375V105.6Z" fill="#EF2F24"/>
<path d="M49.6342 62.6338L56.3194 42.8525H56.567L62.8559 62.6338H49.6342ZM65.0843 39.2021C63.7473 35.1571 62.1627 32 56.8145 32C51.4664 32 49.7828 35.1571 48.3467 39.2021L33.5898 80.9351H43.3452L46.7621 71.0198H65.5795L68.7488 80.9351H79.1479L65.0843 39.2021Z" fill="#EF2F24"/>
<defs>
<filter id="filter0_di_30215_28960" x="227.37" y="52.2809" width="376.938" height="376.938" filterUnits="userSpaceOnUse" color-interpolation-filters="sRGB">
<feFlood flood-opacity="0" result="BackgroundImageFix"/>
<feColorMatrix in="SourceAlpha" type="matrix" values="0 0 0 0 0 0 0 0 0 0 0 0 0 0 0 0 0 0 127 0" result="hardAlpha"/>
<feOffset/>
<feGaussianBlur stdDeviation="54.3529"/>
<feComposite in2="hardAlpha" operator="out"/>
<feColorMatrix type="matrix" values="0 0 0 0 1 0 0 0 0 1 0 0 0 0 1 0 0 0 1 0"/>
<feBlend mode="normal" in2="BackgroundImageFix" result="effect1_dropShadow_30215_28960"/>
<feBlend mode="normal" in="SourceGraphic" in2="effect1_dropShadow_30215_28960" result="shape"/>
<feColorMatrix in="SourceAlpha" type="matrix" values="0 0 0 0 0 0 0 0 0 0 0 0 0 0 0 0 0 0 127 0" result="hardAlpha"/>
<feOffset/>
<feGaussianBlur stdDeviation="6.03142"/>
<feComposite in2="hardAlpha" operator="arithmetic" k2="-1" k3="1"/>
<feColorMatrix type="matrix" values="0 0 0 0 1 0 0 0 0 0.818719 0 0 0 0 0.808333 0 0 0 1 0"/>
<feBlend mode="overlay" in2="shape" result="effect2_innerShadow_30215_28960"/>
</filter>
<linearGradient id="paint0_linear_30215_28960" x1="415.839" y1="160.987" x2="415.839" y2="320.513" gradientUnits="userSpaceOnUse">
<stop stop-color="#EF2F24"/>
<stop offset="1" stop-color="#C1180F"/>
</linearGradient>
<linearGradient id="paint1_linear_30215_28960" x1="523.369" y1="186.941" x2="523.369" y2="289.125" gradientUnits="userSpaceOnUse">
<stop stop-color="#44607C"/>
<stop offset="1" stop-color="#44607C" stop-opacity="0"/>
</linearGradient>
<linearGradient id="paint2_linear_30215_28960" x1="308.131" y1="186.941" x2="308.131" y2="289.125" gradientUnits="userSpaceOnUse">
<stop stop-color="#44607C"/>
<stop offset="1" stop-color="#44607C" stop-opacity="0"/>
</linearGradient>
<linearGradient id="paint3_linear_30215_28960" x1="547.284" y1="214.118" x2="547.284" y2="263.035" gradientUnits="userSpaceOnUse">
<stop/>
<stop offset="1" stop-opacity="0"/>
</linearGradient>
<linearGradient id="paint4_linear_30215_28960" x1="284.216" y1="214.118" x2="284.216" y2="263.035" gradientUnits="userSpaceOnUse">
<stop/>
<stop offset="1" stop-opacity="0"/>
</linearGradient>
</defs>
</svg>
