<svg width="760" height="560" viewBox="0 0 760 560" fill="none" xmlns="http://www.w3.org/2000/svg">
<g clip-path="url(#clip0_4163_1819)">
<rect width="760" height="560" rx="8" fill="#F3F3F3"/>
<path d="M633.5 224C656.42 224 675 205.42 675 182.5C675 159.58 656.42 141 633.5 141C610.58 141 592 159.58 592 182.5C592 205.42 610.58 224 633.5 224Z" fill="#E1E1E1"/>
<path d="M520.5 141C531.27 141 540 132.27 540 121.5C540 110.73 531.27 102 520.5 102C509.73 102 501 110.73 501 121.5C501 132.27 509.73 141 520.5 141Z" fill="#E1E1E1"/>
<path d="M616.5 521C627.27 521 636 512.27 636 501.5C636 490.73 627.27 482 616.5 482C605.73 482 597 490.73 597 501.5C597 512.27 605.73 521 616.5 521Z" fill="#E1E1E1"/>
<path d="M681.5 108C696.136 108 708 96.1355 708 81.5C708 66.8645 696.136 55 681.5 55C666.864 55 655 66.8645 655 81.5C655 96.1355 666.864 108 681.5 108Z" fill="#E1E1E1"/>
<path d="M585 51C603.778 51 619 35.7777 619 17C619 -1.77768 603.778 -17 585 -17C566.222 -17 551 -1.77768 551 17C551 35.7777 566.222 51 585 51Z" fill="#E1E1E1"/>
<path d="M477 584C495.778 584 511 568.778 511 550C511 531.222 495.778 516 477 516C458.222 516 443 531.222 443 550C443 568.778 458.222 584 477 584Z" fill="#E1E1E1"/>
<g filter="url(#filter0_d_4163_1819)">
<rect x="389" y="182" width="380" height="313" rx="15.1857" fill="#FDFDFD"/>
</g>
<path d="M389 197.186C389 188.799 395.799 182 404.186 182H461.814C470.201 182 477 188.799 477 197.186V495H404.186C395.799 495 389 488.201 389 479.814V197.186Z" fill="#323333"/>
<path d="M389 197.186C389 188.799 395.799 182 404.186 182H753.814C762.201 182 769 188.799 769 197.186V217H389V197.186Z" fill="#00AAFF"/>
<circle cx="409.88" cy="200.349" r="4.42916" fill="white"/>
<circle cx="422.535" cy="200.349" r="4.42916" fill="white"/>
<circle cx="435.19" cy="200.349" r="4.42916" fill="white"/>
<rect x="404.186" y="235.15" width="50.619" height="8.85833" rx="4.42916" fill="#525454"/>
<rect x="404.186" y="252.867" width="35.4333" height="8.85833" rx="4.42916" fill="#525454"/>
<rect x="404.186" y="270.583" width="43.0262" height="8.85833" rx="4.42916" fill="#525454"/>
<rect x="404.186" y="288.3" width="50.619" height="8.85833" rx="4.42916" fill="#525454"/>
<rect x="404.186" y="306.017" width="22.7786" height="8.85833" rx="4.42916" fill="#525454"/>
<rect x="404.186" y="323.733" width="43.0262" height="8.85833" rx="4.42916" fill="#525454"/>
<rect x="404.186" y="341.45" width="55.6809" height="8.85833" rx="4.42916" fill="#525454"/>
<rect x="495.3" y="442.688" width="50.619" height="26.575" rx="13.2875" fill="#DCDCDC"/>
<rect x="556.043" y="449.015" width="54.4154" height="3.79643" rx="1.89821" fill="#DCDCDC"/>
<rect x="556.043" y="457.874" width="80.9904" height="3.79643" rx="1.89821" fill="#DCDCDC"/>
<rect x="495.3" y="403.458" width="50.619" height="26.575" rx="13.2875" fill="#DCDCDC"/>
<rect x="556.043" y="409.786" width="92.3797" height="3.79643" rx="1.89821" fill="#DCDCDC"/>
<rect x="556.043" y="418.644" width="80.9904" height="3.79643" rx="1.89821" fill="#DCDCDC"/>
<rect x="495.3" y="364.229" width="50.619" height="26.575" rx="13.2875" fill="#DCDCDC"/>
<path d="M606.662 293.362C606.662 282.349 603.396 271.584 597.278 262.427C591.16 253.27 582.463 246.134 572.289 241.919C562.115 237.705 550.919 236.602 540.118 238.751C529.317 240.899 519.396 246.202 511.608 253.989L550.981 293.362H606.662Z" fill="#E0CCFF"/>
<path d="M498.615 312.289C503.077 324.631 511.754 335.001 523.116 341.569C534.479 348.137 547.796 350.48 560.718 348.185C573.64 345.89 585.336 339.104 593.741 329.025C602.147 318.947 606.723 306.223 606.661 293.099L550.981 293.362L498.615 312.289Z" fill="#A2E0FF"/>
<path d="M511.608 253.989C503.911 261.687 498.639 271.472 496.444 282.135C494.249 292.797 495.227 303.869 499.258 313.981L550.981 293.362L511.608 253.989Z" fill="#E8F9C6"/>
<path d="M687.887 412.887C721.739 379.034 721.739 324.148 687.887 290.295C654.034 256.443 599.148 256.443 565.296 290.295C531.443 324.148 531.443 379.034 565.296 412.887C599.148 446.739 654.034 446.739 687.887 412.887Z" fill="white" fill-opacity="0.5"/>
<path d="M680.728 297.454C710.627 327.353 710.627 375.829 680.728 405.728C650.829 435.627 602.353 435.627 572.454 405.728C542.555 375.829 542.555 327.353 572.454 297.454C602.353 267.555 650.829 267.555 680.728 297.454Z" stroke="#39225B" stroke-width="20.2476"/>
<rect x="683.86" y="416.913" width="10.1238" height="34.1678" transform="rotate(-45 683.86 416.913)" fill="#39225B"/>
<rect x="694.598" y="440.179" width="27.8405" height="120.362" rx="13.9202" transform="rotate(-45 694.598 440.179)" fill="#A169F7"/>
<rect x="694.598" y="440.179" width="27.8405" height="120.362" rx="13.9202" transform="rotate(-45 694.598 440.179)" fill="url(#paint0_linear_4163_1819)" fill-opacity="0.3"/>
<path d="M626.751 399.839C653.309 399.839 674.839 378.309 674.839 351.751C674.839 325.193 653.309 303.663 626.751 303.663C600.193 303.663 578.663 325.193 578.663 351.751C578.663 378.309 600.193 399.839 626.751 399.839Z" fill="#97CF26"/>
<path d="M602.707 354.548L620.29 369.468L654.592 335.3" stroke="white" stroke-width="7.59285"/>
<path d="M106.34 133.88C121.55 133.88 133.88 121.55 133.88 106.34C133.88 91.1301 121.55 78.8 106.34 78.8C91.1301 78.8 78.8 91.1301 78.8 106.34C78.8 121.55 91.1301 133.88 106.34 133.88Z" fill="#97CF26"/>
<path d="M54.62 119.12C61.6782 119.12 67.4 113.398 67.4 106.34C67.4 99.2819 61.6782 93.5601 54.62 93.5601C47.5618 93.5601 41.84 99.2819 41.84 106.34C41.84 113.398 47.5618 119.12 54.62 119.12Z" fill="#A169F7"/>
<path d="M106.34 72.3199C116.115 72.3199 124.04 64.3954 124.04 54.6199C124.04 44.8445 116.115 36.9199 106.34 36.9199C96.5645 36.9199 88.64 44.8445 88.64 54.6199C88.64 64.3954 96.5645 72.3199 106.34 72.3199Z" fill="#FF6163"/>
<path d="M54.62 77.24C67.1127 77.24 77.24 67.1127 77.24 54.62C77.24 42.1273 67.1127 32 54.62 32C42.1273 32 32 42.1273 32 54.62C32 67.1127 42.1273 77.24 54.62 77.24Z" fill="#00AAFF"/>
<path d="M205.34 119H219.62L193.16 47H182.78L156.32 119H170.66L175.7 105.26H200.3L205.34 119L179.66 94.4L188 71.78L196.34 94.4H179.66L205.34 119Z" fill="black"/>
<path d="M255.02 69.8L241.88 105.56L228.74 69.8H215.3L233.36 119H250.34L268.4 69.8H255.02Z" fill="black"/>
<path d="M274.1 69.8H287.54V119H274.1V69.8Z" fill="black"/>
<path d="M280.82 64.2199C285.592 64.2199 289.46 60.3517 289.46 55.5799C289.46 50.8082 285.592 46.9399 280.82 46.9399C276.048 46.9399 272.18 50.8082 272.18 55.5799C272.18 60.3517 276.048 64.2199 280.82 64.2199Z" fill="black"/>
<path d="M334.88 80.66V69.8H318.8V56.24H305.36V69.8H294.74V80.66H305.36V101.84C305.36 112.76 310.82 120.02 324.74 120.02C330.14 120.02 334.82 118.04 334.82 118.04L333.2 107.42C333.2 107.42 330.56 108.2 327.32 108.2C323.36 108.2 318.74 106.46 318.74 101V80.66H334.88Z" fill="black"/>
<path d="M365.66 107.72C358.16 107.72 352.1 101.78 352.1 94.46C352.1 87.14 358.16 81.2 365.66 81.2C373.16 81.2 379.22 87.14 379.22 94.46C379.22 101.78 373.16 107.72 365.66 107.72ZM365.66 68.54C351.14 68.54 339.32 80.06 339.32 94.28C339.32 108.5 351.14 120.02 365.66 120.02C380.18 120.02 392 108.5 392 94.28C392 80.06 380.18 68.54 365.66 68.54Z" fill="black"/>
</g>
<defs>
<filter id="filter0_d_4163_1819" x="351.036" y="156.69" width="455.929" height="388.929" filterUnits="userSpaceOnUse" color-interpolation-filters="sRGB">
<feFlood flood-opacity="0" result="BackgroundImageFix"/>
<feColorMatrix in="SourceAlpha" type="matrix" values="0 0 0 0 0 0 0 0 0 0 0 0 0 0 0 0 0 0 127 0" result="hardAlpha"/>
<feOffset dy="12.6548"/>
<feGaussianBlur stdDeviation="18.9821"/>
<feComposite in2="hardAlpha" operator="out"/>
<feColorMatrix type="matrix" values="0 0 0 0 0.7625 0 0 0 0 0.7625 0 0 0 0 0.7625 0 0 0 1 0"/>
<feBlend mode="normal" in2="BackgroundImageFix" result="effect1_dropShadow_4163_1819"/>
<feBlend mode="normal" in="SourceGraphic" in2="effect1_dropShadow_4163_1819" result="shape"/>
</filter>
<linearGradient id="paint0_linear_4163_1819" x1="698.413" y1="481.96" x2="719.02" y2="481.451" gradientUnits="userSpaceOnUse">
<stop/>
<stop offset="1" stop-opacity="0"/>
</linearGradient>
<clipPath id="clip0_4163_1819">
<rect width="760" height="560" rx="8" fill="white"/>
</clipPath>
</defs>
</svg>
