<svg width="608" height="448" viewBox="0 0 608 448" fill="none" xmlns="http://www.w3.org/2000/svg">
<g clip-path="url(#clip0_30762_157755)">
<rect width="608" height="448" rx="6.4" fill="#191928"/>
<g clip-path="url(#clip1_30762_157755)">
<path d="M659.2 276.125C653.417 276.158 648.739 280.856 648.739 286.647C648.739 292.438 653.417 297.134 659.2 297.167V316H238.4V297.167C244.183 297.135 248.862 292.438 248.862 286.647C248.862 280.856 244.183 276.157 238.4 276.125V257.6H659.2V276.125ZM273.416 276.124C267.604 276.124 262.893 280.835 262.893 286.647C262.893 292.458 267.604 297.169 273.416 297.169C279.227 297.169 283.939 292.458 283.939 286.647C283.939 280.835 279.227 276.124 273.416 276.124ZM308.493 276.124C302.681 276.124 297.969 280.835 297.969 286.647C297.969 292.458 302.681 297.169 308.493 297.169C314.304 297.169 319.016 292.458 319.016 286.647C319.016 280.835 314.304 276.124 308.493 276.124ZM343.57 276.124C337.758 276.124 333.046 280.835 333.046 286.647C333.047 292.458 337.758 297.169 343.57 297.169C349.381 297.169 354.092 292.458 354.092 286.647C354.092 280.835 349.381 276.124 343.57 276.124ZM378.647 276.124C372.835 276.124 368.124 280.835 368.124 286.647C368.124 292.458 372.835 297.169 378.647 297.169C384.458 297.169 389.169 292.458 389.169 286.647C389.169 280.835 384.458 276.124 378.647 276.124ZM413.723 276.124C407.912 276.124 403.201 280.835 403.201 286.647C403.201 292.458 407.912 297.169 413.723 297.169C419.535 297.169 424.246 292.458 424.247 286.647C424.247 280.835 419.535 276.124 413.723 276.124ZM448.8 276.124C442.989 276.124 438.277 280.835 438.277 286.647C438.277 292.458 442.989 297.169 448.8 297.169C454.612 297.169 459.323 292.458 459.323 286.647C459.323 280.835 454.612 276.124 448.8 276.124ZM483.877 276.124C478.066 276.124 473.354 280.835 473.354 286.647C473.354 292.458 478.066 297.169 483.877 297.169C489.689 297.169 494.4 292.458 494.4 286.647C494.4 280.835 489.689 276.124 483.877 276.124ZM518.954 276.124C513.142 276.124 508.431 280.835 508.431 286.647C508.431 292.458 513.142 297.169 518.954 297.169C524.765 297.169 529.477 292.458 529.477 286.647C529.477 280.835 524.765 276.124 518.954 276.124ZM554.031 276.124C548.219 276.124 543.508 280.835 543.508 286.647C543.509 292.458 548.219 297.169 554.031 297.169C559.842 297.169 564.554 292.458 564.554 286.647C564.554 280.835 559.842 276.124 554.031 276.124ZM589.108 276.124C583.296 276.124 578.584 280.835 578.584 286.647C578.585 292.458 583.296 297.169 589.108 297.169C594.919 297.169 599.631 292.458 599.631 286.647C599.631 280.835 594.92 276.124 589.108 276.124ZM624.185 276.124C618.373 276.124 613.662 280.835 613.662 286.647C613.662 292.458 618.373 297.169 624.185 297.169C629.997 297.169 634.707 292.458 634.708 286.647C634.708 280.835 629.997 276.124 624.185 276.124Z" fill="#656580"/>
<rect x="238.4" y="319.2" width="420.8" height="4" fill="#9C9CBF"/>
<rect x="238.4" y="250.4" width="420.8" height="4" fill="#9C9CBF"/>
</g>
<rect x="288" y="212.8" width="35.2" height="37.6" fill="#DADAED"/>
<rect x="323.2" y="212.8" width="19.2" height="37.6" fill="#787898"/>
<path d="M279.2 201.6H304.866L313.6 212.8H287.726L279.2 201.6Z" fill="#787898"/>
<path d="M352 201.6H332.683L323.2 212.8H342.868L352 201.6Z" fill="#DADAED"/>
<rect x="376.6" y="212.985" width="35.0769" height="37.4154" fill="#DADAED"/>
<rect x="411.677" y="212.985" width="19.8769" height="37.4154" fill="#787898"/>
<path d="M368.123 201.292H393.64L402.323 212.984H376.6L368.123 201.292Z" fill="#787898"/>
<path d="M440.908 201.292H421.302L411.677 212.984H431.639L440.908 201.292Z" fill="#DADAED"/>
<rect x="465.461" y="212.985" width="35.0769" height="37.4154" fill="#DADAED"/>
<rect x="500.538" y="212.985" width="19.8769" height="37.4154" fill="#787898"/>
<path d="M456.985 201.292H482.502L491.185 212.984H465.462L456.985 201.292Z" fill="#787898"/>
<path d="M529.769 201.292H510.163L500.538 212.984H520.501L529.769 201.292Z" fill="#DADAED"/>
<rect x="552.8" y="212.8" width="36" height="37.6" fill="#DADAED"/>
<rect x="588.8" y="212.8" width="21.6" height="37.6" fill="#787898"/>
<path d="M544.8 201.6H570.466L579.2 212.8H553.327L544.8 201.6Z" fill="#787898"/>
<path d="M617.6 201.6H598.283L588.8 212.8H608.468L617.6 201.6Z" fill="#DADAED"/>
<g filter="url(#filter0_d_30762_157755)">
<rect x="341.6" y="128.8" width="214.4" height="243.2" rx="14.0308" fill="#10334D"/>
</g>
<mask id="mask0_30762_157755" style="mask-type:alpha" maskUnits="userSpaceOnUse" x="350" y="135" width="196" height="229">
<rect x="350.585" y="135.815" width="195.262" height="228" fill="#C4C4C4"/>
</mask>
<g mask="url(#mask0_30762_157755)">
<path d="M659.2 276.125C653.417 276.158 648.739 280.856 648.739 286.647C648.739 292.438 653.417 297.134 659.2 297.167V316H238.4V297.167C244.183 297.135 248.862 292.438 248.862 286.647C248.862 280.856 244.183 276.157 238.4 276.125V257.6H659.2V276.125ZM273.416 276.124C267.604 276.124 262.893 280.835 262.893 286.647C262.893 292.458 267.604 297.169 273.416 297.169C279.227 297.169 283.939 292.458 283.939 286.647C283.939 280.835 279.227 276.124 273.416 276.124ZM308.493 276.124C302.681 276.124 297.969 280.835 297.969 286.647C297.969 292.458 302.681 297.169 308.493 297.169C314.304 297.169 319.016 292.458 319.016 286.647C319.016 280.835 314.304 276.124 308.493 276.124ZM343.57 276.124C337.758 276.124 333.046 280.835 333.046 286.647C333.047 292.458 337.758 297.169 343.57 297.169C349.381 297.169 354.092 292.458 354.092 286.647C354.092 280.835 349.381 276.124 343.57 276.124ZM378.647 276.124C372.835 276.124 368.124 280.835 368.124 286.647C368.124 292.458 372.835 297.169 378.647 297.169C384.458 297.169 389.169 292.458 389.169 286.647C389.169 280.835 384.458 276.124 378.647 276.124ZM413.723 276.124C407.911 276.124 403.201 280.835 403.201 286.647C403.201 292.458 407.912 297.169 413.723 297.169C419.535 297.169 424.246 292.458 424.247 286.647C424.247 280.835 419.535 276.124 413.723 276.124ZM448.8 276.124C442.989 276.124 438.277 280.835 438.277 286.647C438.277 292.458 442.989 297.169 448.8 297.169C454.612 297.169 459.323 292.458 459.324 286.647C459.324 280.835 454.612 276.124 448.8 276.124ZM483.877 276.124C478.066 276.124 473.354 280.835 473.354 286.647C473.354 292.458 478.066 297.169 483.877 297.169C489.689 297.169 494.4 292.458 494.4 286.647C494.4 280.835 489.689 276.124 483.877 276.124ZM518.954 276.124C513.142 276.124 508.431 280.835 508.431 286.647C508.431 292.458 513.142 297.169 518.954 297.169C524.765 297.169 529.477 292.458 529.477 286.647C529.477 280.835 524.765 276.124 518.954 276.124ZM554.031 276.124C548.219 276.124 543.508 280.835 543.508 286.647C543.509 292.458 548.219 297.169 554.031 297.169C559.842 297.169 564.554 292.458 564.554 286.647C564.554 280.835 559.842 276.124 554.031 276.124ZM589.108 276.124C583.296 276.124 578.584 280.835 578.584 286.647C578.585 292.458 583.296 297.169 589.108 297.169C594.919 297.169 599.631 292.458 599.631 286.647C599.631 280.835 594.92 276.124 589.108 276.124ZM624.185 276.124C618.373 276.124 613.662 280.835 613.662 286.647C613.662 292.458 618.373 297.169 624.185 297.169C629.997 297.169 634.708 292.458 634.708 286.647C634.708 280.835 629.997 276.124 624.185 276.124Z" fill="#00A0FF"/>
<rect x="238.4" y="319.2" width="420.8" height="4" fill="#00C8FF"/>
<rect x="238.4" y="250.4" width="420.8" height="4" fill="#00C8FF"/>
<path d="M352.046 201.292H332.44L322.816 212.985H342.778L352.046 201.292Z" fill="#DADAED"/>
<rect x="376.8" y="212.8" width="35.2" height="37.6" fill="#F2F9FE"/>
<rect x="412" y="212.8" width="19.2" height="37.6" fill="#AEBECB"/>
<path d="M368 201.6H393.666L402.4 212.8H376.526L368 201.6Z" fill="#AEBECB"/>
<path d="M440.8 201.6H421.483L412 212.8H431.668L440.8 201.6Z" fill="#F2F9FE"/>
<rect x="465.6" y="212.8" width="35.2" height="37.6" fill="#F2F9FE"/>
<rect x="500.8" y="212.8" width="20" height="37.6" fill="#AEBECB"/>
<path d="M456.8 201.6H482.466L491.2 212.8H465.327L456.8 201.6Z" fill="#AEBECB"/>
<path d="M529.6 201.6H510.283L500.8 212.8H520.468L529.6 201.6Z" fill="#F2F9FE"/>
</g>
<rect x="550.4" y="134.4" width="232" height="203.2" rx="8.43077" transform="rotate(90 550.4 134.4)" stroke="white" stroke-width="11.2"/>
<rect x="431.2" y="346.4" width="34.4" height="3.2" rx="1.6" fill="#235A84"/>
<circle cx="448.8" cy="155.692" r="4.67692" fill="#235A84"/>
<rect x="206.4" y="140.8" width="135.2" height="307.2" fill="url(#paint0_linear_30762_157755)"/>
<g clip-path="url(#clip2_30762_157755)">
<path d="M85.6399 77.8182C84.6228 74.4727 81.5716 72 77.9392 72C81.5716 72 84.6228 69.5273 85.6399 66.1818C85.7852 65.4545 85.9305 64.7273 85.9305 64V48C85.9305 39.1273 78.8109 32 69.9478 32H69.0761H56.4352H34.0595C33.6236 32 33.333 32 33.0424 32.1455C31.2989 32.5818 29.9912 34.1818 29.9912 36.0727V40.1455V55.7091C29.9912 56 30.1365 56.1455 30.4271 56.1455C38.9996 56.4364 45.9739 63.4182 45.9739 72.1455C45.9739 80.8727 39.1449 87.8545 30.4271 88.1455C30.1365 88.1455 29.9912 88.4364 29.9912 88.5818V104.145V108.218C29.9912 110.109 31.2989 111.709 33.0424 112.145C33.333 112 33.6236 112 34.0595 112H56.5805H69.2214H69.9478C78.8109 112 85.9305 104.873 85.9305 96V80C85.9305 79.1273 85.7852 78.4 85.6399 77.8182Z" fill="#00C6FF"/>
<path d="M85.64 77.8182C84.6229 74.4727 81.5717 72 77.9392 72C81.5717 72 84.6229 69.5273 85.64 66.1818C85.7853 65.4545 85.9306 64.7273 85.9306 64V48C85.9306 39.1273 78.811 32 69.9479 32H69.0761H56.4353C69.3667 40.5818 77.9392 55.2727 77.9392 72C77.9392 88.7273 69.3667 103.418 56.4353 112H69.0761H69.9479C78.811 112 85.9306 104.873 85.9306 96V80C85.9306 79.1273 85.7853 78.4 85.64 77.8182Z" fill="#00A0FF"/>
<path d="M56.4352 32H34.0595C33.6236 32 33.333 32 33.0424 32.1455C31.2989 32.5818 29.9912 34.1818 29.9912 36.0727V40.1455C47.5721 40.1455 61.9565 54.5455 61.9565 72.1455C61.9565 89.7455 47.7174 104.145 29.9912 104.145V108.218C29.9912 110.109 31.2989 111.709 33.0424 112.145C33.333 112 33.6236 112 34.0595 112H56.5805C69.5119 103.418 78.0845 88.7273 78.0845 72C77.9392 55.2727 69.3667 40.5818 56.4352 32Z" fill="#00B4FF"/>
<path d="M29.9912 40V55.5636C29.9912 55.8545 30.1365 56 30.4271 56C38.9996 56.2909 45.9739 63.2727 45.9739 72C45.9739 80.7273 39.1449 87.7091 30.4271 88C30.1365 88 29.9912 88.2909 29.9912 88.4364V104C47.5721 104 61.9565 89.6 61.9565 72C61.9565 54.4 47.7174 40 29.9912 40Z" fill="#00C8FF"/>
<path d="M30.2819 64C29.1195 64 27.9572 64.1455 26.9401 64.5818C26.6495 64.7273 26.5042 65.0182 26.6495 65.3091C26.9401 65.7455 27.0854 66.3273 26.9401 66.9091C26.7948 67.9273 25.923 68.8 24.9059 68.9455C24.3247 69.0909 23.7436 68.9455 23.3077 68.6545C23.0171 68.5091 22.7265 68.6545 22.5812 68.9455C22.1453 69.9636 22 70.9818 22 72.2909C22.1453 76.3636 25.4871 79.8545 29.5554 80C34.3502 80.2909 38.1279 76.3636 37.9827 71.5636C37.8374 67.4909 34.3502 64.1455 30.2819 64Z" fill="white"/>
<path d="M125.596 64.4363C125.596 67.6363 124.579 69.8181 122.109 71.2727V71.4181C125.015 72.4363 126.759 75.1999 126.759 79.2727C126.759 84.9454 122.545 88 116.588 88H103.802C102.64 88 102.204 87.5636 102.204 86.4V57.4545C102.204 56.2909 102.64 55.8545 103.802 55.8545H116.297C122.109 55.9999 125.596 59.0545 125.596 64.4363ZM115.716 61.2363H108.015V69.0909H115.716C118.332 69.0909 119.785 67.7818 119.785 65.1636C119.785 62.5454 118.332 61.2363 115.716 61.2363ZM116.443 74.3272H108.015V82.7636H116.443C119.203 82.7636 120.656 81.309 120.656 78.6909C120.656 76.0727 119.203 74.3272 116.443 74.3272Z" fill="white"/>
<path d="M142.16 64C143.177 64 143.613 64.2909 143.613 65.4545V67.4909C143.613 68.5091 143.323 68.9455 142.16 68.9455H140.562C138.819 68.9455 137.511 69.0909 136.348 69.5273C135.913 69.6727 135.913 69.8182 135.913 70.1091V86.8364C135.913 87.8545 135.622 88.2909 134.605 88.2909H132.135C131.118 88.2909 130.682 88 130.682 86.8364V67.9273C130.682 66.4727 130.972 65.8909 132.425 65.3091C134.024 64.7273 136.784 64 140.853 64H142.16Z" fill="white"/>
<path d="M153.057 58.6181V59.0545C153.057 61.0909 152.331 61.8181 150.297 61.8181H150.006C147.972 61.8181 147.246 61.0909 147.246 59.0545V58.6181C147.246 56.5818 147.972 55.8545 150.006 55.8545H150.297C152.331 55.8545 153.057 56.5818 153.057 58.6181ZM152.767 66.0363V86.5454C152.767 87.5636 152.476 88 151.314 88H148.844C147.827 88 147.536 87.709 147.536 86.5454V66.0363C147.536 65.0181 147.827 64.7272 148.844 64.7272H151.314C152.331 64.5818 152.767 64.8727 152.767 66.0363Z" fill="white"/>
<path d="M167.006 64C170.638 64 173.544 64.7273 175.143 65.4545C176.596 66.1818 176.741 66.4727 176.741 67.9273V88.7273C176.741 94.6909 173.98 98.4727 166.861 98.4727C162.066 98.4727 159.16 96.8727 157.562 94.1091C156.835 93.0909 157.126 92.3636 158.143 91.9273L159.887 91.0545C160.904 90.4727 161.485 90.6182 162.211 91.6364C163.083 93.0909 164.391 93.9636 166.861 93.9636C170.057 93.9636 171.656 92.3636 171.656 89.1636V86.9818C170.348 87.2727 168.459 87.8545 166.28 87.8545C159.887 87.8545 156.981 84.5091 156.981 78.8364V73.7455C156.835 67.3455 160.032 64 167.006 64ZM167.297 68.6545C163.664 68.6545 161.921 70.2545 161.921 73.4545V78.2545C161.921 81.0182 163.664 82.6182 166.861 82.6182C168.75 82.6182 170.348 82.3273 171.51 82.0364V69.8182C171.51 69.5273 171.365 69.3818 171.074 69.2364C170.203 68.9455 168.75 68.6545 167.297 68.6545Z" fill="white"/>
<path d="M186.476 56V64.5818C186.912 64.2909 189.237 64 191.852 64C198.245 64 201.151 67.3455 201.151 73.0182V86.5455C201.151 87.5637 200.86 88 199.698 88H197.228C196.211 88 195.775 87.7091 195.775 86.5455V73.1636C195.775 70.2546 194.031 68.8 190.835 68.8C188.655 68.8 186.621 69.2364 186.185 69.5273V86.6909C186.185 87.7091 185.895 88.1455 184.878 88.1455H182.408C181.39 88.1455 180.955 87.8546 180.955 86.6909V56.1455C180.955 55.1273 181.245 54.6909 182.408 54.6909H184.878C186.04 54.6909 186.476 54.9818 186.476 56Z" fill="white"/>
<path d="M213.501 60.5089V64.5816H218.586C219.603 64.5816 220.039 64.8725 220.039 65.8907V67.9271C220.039 68.9453 219.749 69.3816 218.586 69.3816H213.501V78.5453C213.501 82.9089 214.809 83.7816 218.586 83.7816C219.603 83.7816 220.039 84.0725 220.039 85.2362V87.2725C220.039 88.2907 219.749 88.7271 218.586 88.7271C211.176 89.018 208.27 86.5453 208.27 78.8362V69.6725H205.074C204.057 69.6725 203.766 69.3816 203.766 68.218V66.1816C203.766 65.1634 204.057 64.8725 205.074 64.8725H208.125V60.7998C208.125 59.7816 208.416 59.4907 209.578 59.4907H212.048C213.065 59.1998 213.501 59.4907 213.501 60.5089Z" fill="white"/>
<path d="M233.116 64C240.236 64 243.432 68.0727 243.432 73.3091V76.0727C243.432 77.2364 242.996 77.9636 241.398 77.9636H227.885V79.5636C227.885 82.4727 229.774 84.0727 232.971 84.0727C235.586 84.0727 237.33 83.2 238.347 81.7455C239.073 80.7273 239.509 80.5818 240.672 81.1636L242.27 82.0364C243.287 82.4727 243.432 83.3455 242.851 84.2182C241.253 86.8364 238.202 88.5818 233.116 88.5818C225.706 88.5818 222.8 84.5091 222.8 78.9818V73.6C222.655 67.3455 226.287 64 233.116 64ZM233.116 68.3636C229.774 68.3636 227.885 69.9636 227.885 73.0182V74.0364H238.202V73.0182C238.202 69.9636 236.458 68.3636 233.116 68.3636Z" fill="white"/>
<path d="M267.261 66.0365V88.7274C267.261 94.6911 264.5 98.4729 257.381 98.4729C252.586 98.4729 249.68 96.8729 248.082 94.1092C247.501 93.0911 247.646 92.3638 248.663 91.9274L250.406 91.0547C251.424 90.4729 252.005 90.6183 252.586 91.6365C253.458 93.0911 254.911 93.9638 257.235 93.9638C260.432 93.9638 262.03 92.3638 262.03 89.1638V86.982C260.577 87.2729 258.834 87.5638 256.654 87.5638C250.261 87.5638 247.21 84.2183 247.21 78.5456V66.0365C247.21 65.0183 247.501 64.7274 248.663 64.7274H251.133C252.15 64.7274 252.441 65.0183 252.441 66.0365V78.2547C252.441 81.3092 254.039 82.7638 257.381 82.7638C259.27 82.7638 260.868 82.4729 262.03 82.182V66.0365C262.03 65.0183 262.321 64.7274 263.483 64.7274H265.953C266.97 64.582 267.261 64.8729 267.261 66.0365Z" fill="white"/>
<path d="M281.791 64C288.91 64 292.107 68.0727 292.107 73.3091V76.0727C292.107 77.2364 291.671 77.9636 290.072 77.9636H276.56V79.5636C276.56 82.4727 278.449 84.0727 281.645 84.0727C284.261 84.0727 286.004 83.2 287.021 81.7455C287.748 80.7273 288.184 80.5818 289.346 81.1636L290.944 82.0364C291.961 82.4727 292.107 83.3455 291.525 84.2182C289.927 86.8364 286.876 88.5818 281.791 88.5818C274.38 88.5818 271.474 84.5091 271.474 78.9818V73.6C271.329 67.3455 274.962 64 281.791 64ZM281.791 68.3636C278.449 68.3636 276.56 69.9636 276.56 73.0182V74.0364H286.876V73.0182C287.021 69.9636 285.278 68.3636 281.791 68.3636Z" fill="white"/>
</g>
</g>
<defs>
<filter id="filter0_d_30762_157755" x="318.215" y="117.107" width="261.169" height="289.969" filterUnits="userSpaceOnUse" color-interpolation-filters="sRGB">
<feFlood flood-opacity="0" result="BackgroundImageFix"/>
<feColorMatrix in="SourceAlpha" type="matrix" values="0 0 0 0 0 0 0 0 0 0 0 0 0 0 0 0 0 0 127 0" result="hardAlpha"/>
<feOffset dy="11.6923"/>
<feGaussianBlur stdDeviation="11.6923"/>
<feComposite in2="hardAlpha" operator="out"/>
<feColorMatrix type="matrix" values="0 0 0 0 0.0980392 0 0 0 0 0.0980392 0 0 0 0 0.156863 0 0 0 1 0"/>
<feBlend mode="normal" in2="BackgroundImageFix" result="effect1_dropShadow_30762_157755"/>
<feBlend mode="normal" in="SourceGraphic" in2="effect1_dropShadow_30762_157755" result="shape"/>
</filter>
<linearGradient id="paint0_linear_30762_157755" x1="261.347" y1="304" x2="341.6" y2="304" gradientUnits="userSpaceOnUse">
<stop offset="0.187741" stop-color="#191928"/>
<stop offset="1" stop-color="#191928" stop-opacity="0.505208"/>
</linearGradient>
<clipPath id="clip0_30762_157755">
<rect width="608" height="448" rx="6.4" fill="white"/>
</clipPath>
<clipPath id="clip1_30762_157755">
<rect width="422.4" height="72.8" fill="white" transform="translate(237.6 250.4)"/>
</clipPath>
<clipPath id="clip2_30762_157755">
<rect width="270.252" height="80" fill="white" transform="translate(22 32)"/>
</clipPath>
</defs>
</svg>
