<svg width="608" height="448" viewBox="0 0 608 448" fill="none" xmlns="http://www.w3.org/2000/svg">
<g clip-path="url(#clip0_30215_28715)">
<rect width="608" height="448" rx="6.4" fill="#191928"/>
<g clip-path="url(#clip1_30215_28715)">
<path fill-rule="evenodd" clip-rule="evenodd" d="M659.2 289.6H238.4V308.124C244.184 308.157 248.862 312.855 248.862 318.646C248.862 324.438 244.184 329.136 238.4 329.169V348H659.2V329.169C653.417 329.136 648.739 324.438 648.739 318.646C648.739 312.855 653.417 308.157 659.2 308.124V289.6ZM283.939 318.646C283.939 324.458 279.227 329.17 273.416 329.17C267.604 329.17 262.892 324.458 262.892 318.646C262.892 312.835 267.604 308.123 273.416 308.123C279.227 308.123 283.939 312.835 283.939 318.646ZM308.493 329.17C314.304 329.17 319.016 324.458 319.016 318.646C319.016 312.835 314.304 308.123 308.493 308.123C302.681 308.123 297.97 312.835 297.97 318.646C297.97 324.458 302.681 329.17 308.493 329.17ZM354.093 318.646C354.093 324.458 349.381 329.17 343.57 329.17C337.758 329.17 333.046 324.458 333.046 318.646C333.046 312.835 337.758 308.123 343.57 308.123C349.381 308.123 354.093 312.835 354.093 318.646ZM378.647 329.17C384.458 329.17 389.17 324.458 389.17 318.646C389.17 312.835 384.458 308.123 378.647 308.123C372.835 308.123 368.123 312.835 368.123 318.646C368.123 324.458 372.835 329.17 378.647 329.17ZM424.246 318.646C424.246 324.458 419.535 329.17 413.723 329.17C407.912 329.17 403.2 324.458 403.2 318.646C403.2 312.835 407.912 308.123 413.723 308.123C419.535 308.123 424.246 312.835 424.246 318.646ZM448.8 329.17C454.612 329.17 459.323 324.458 459.323 318.646C459.323 312.835 454.612 308.123 448.8 308.123C442.988 308.123 438.277 312.835 438.277 318.646C438.277 324.458 442.988 329.17 448.8 329.17ZM494.4 318.646C494.4 324.458 489.689 329.17 483.877 329.17C478.065 329.17 473.354 324.458 473.354 318.646C473.354 312.835 478.065 308.123 483.877 308.123C489.689 308.123 494.4 312.835 494.4 318.646ZM518.954 329.17C524.766 329.17 529.477 324.458 529.477 318.646C529.477 312.835 524.766 308.123 518.954 308.123C513.142 308.123 508.431 312.835 508.431 318.646C508.431 324.458 513.142 329.17 518.954 329.17ZM564.554 318.646C564.554 324.458 559.843 329.17 554.031 329.17C548.219 329.17 543.508 324.458 543.508 318.646C543.508 312.835 548.219 308.123 554.031 308.123C559.843 308.123 564.554 312.835 564.554 318.646ZM589.108 329.17C594.919 329.17 599.631 324.458 599.631 318.646C599.631 312.835 594.919 308.123 589.108 308.123C583.296 308.123 578.585 312.835 578.585 318.646C578.585 324.458 583.296 329.17 589.108 329.17ZM634.708 318.646C634.708 324.458 629.997 329.17 624.185 329.17C618.373 329.17 613.662 324.458 613.662 318.646C613.662 312.835 618.373 308.123 624.185 308.123C629.997 308.123 634.708 312.835 634.708 318.646Z" fill="#656580"/>
<rect x="238.4" y="351.2" width="420.8" height="4" fill="#9C9CBF"/>
<rect x="238.4" y="282.4" width="420.8" height="4" fill="#9C9CBF"/>
</g>
<rect x="288" y="244.8" width="35.2" height="37.6" fill="#DADAED"/>
<rect x="323.2" y="244.8" width="19.2" height="37.6" fill="#787898"/>
<path d="M279.2 233.6H304.866L313.6 244.8H287.726L279.2 233.6Z" fill="#787898"/>
<path d="M352 233.6H332.683L323.2 244.8H342.868L352 233.6Z" fill="#DADAED"/>
<rect x="376.6" y="244.984" width="35.0769" height="37.4154" fill="#DADAED"/>
<rect x="411.677" y="244.984" width="19.8769" height="37.4154" fill="#787898"/>
<path d="M368.123 233.292H393.64L402.323 244.984H376.6L368.123 233.292Z" fill="#787898"/>
<path d="M440.908 233.292H421.302L411.677 244.984H431.639L440.908 233.292Z" fill="#DADAED"/>
<rect x="465.461" y="244.984" width="35.0769" height="37.4154" fill="#DADAED"/>
<rect x="500.538" y="244.984" width="19.8769" height="37.4154" fill="#787898"/>
<path d="M456.985 233.292H482.502L491.185 244.984H465.462L456.985 233.292Z" fill="#787898"/>
<path d="M529.769 233.292H510.163L500.538 244.984H520.501L529.769 233.292Z" fill="#DADAED"/>
<rect x="552.8" y="244.8" width="36" height="37.6" fill="#DADAED"/>
<rect x="588.8" y="244.8" width="21.6" height="37.6" fill="#787898"/>
<path d="M544.8 233.6H570.466L579.2 244.8H553.327L544.8 233.6Z" fill="#787898"/>
<path d="M617.6 233.6H598.283L588.8 244.8H608.468L617.6 233.6Z" fill="#DADAED"/>
<g filter="url(#filter0_d_30215_28715)">
<rect x="341.6" y="160.8" width="214.4" height="243.2" rx="14.0308" fill="#10334D"/>
</g>
<mask id="mask0_30215_28715" style="mask-type:alpha" maskUnits="userSpaceOnUse" x="350" y="167" width="196" height="229">
<rect x="350.585" y="167.815" width="195.262" height="228" fill="#C4C4C4"/>
</mask>
<g mask="url(#mask0_30215_28715)">
<path fill-rule="evenodd" clip-rule="evenodd" d="M659.2 289.6H238.4V308.124C244.184 308.157 248.862 312.855 248.862 318.647C248.862 324.438 244.184 329.137 238.4 329.17V348H659.2V329.17C653.417 329.136 648.739 324.438 648.739 318.647C648.739 312.856 653.417 308.157 659.2 308.124V289.6ZM283.939 318.647C283.939 324.458 279.227 329.17 273.416 329.17C267.604 329.17 262.892 324.458 262.892 318.647C262.892 312.835 267.604 308.124 273.416 308.124C279.227 308.124 283.939 312.835 283.939 318.647ZM308.493 329.17C314.304 329.17 319.016 324.458 319.016 318.647C319.016 312.835 314.304 308.124 308.493 308.124C302.681 308.124 297.97 312.835 297.97 318.647C297.97 324.458 302.681 329.17 308.493 329.17ZM354.093 318.647C354.093 324.458 349.381 329.17 343.57 329.17C337.758 329.17 333.046 324.458 333.046 318.647C333.046 312.835 337.758 308.124 343.57 308.124C349.381 308.124 354.093 312.835 354.093 318.647ZM378.647 329.17C384.458 329.17 389.17 324.458 389.17 318.647C389.17 312.835 384.458 308.124 378.647 308.124C372.835 308.124 368.123 312.835 368.123 318.647C368.123 324.458 372.835 329.17 378.647 329.17ZM424.246 318.647C424.246 324.458 419.535 329.17 413.723 329.17C407.911 329.17 403.2 324.458 403.2 318.647C403.2 312.835 407.911 308.124 413.723 308.124C419.535 308.124 424.246 312.835 424.246 318.647ZM448.8 329.17C454.612 329.17 459.323 324.458 459.323 318.647C459.323 312.835 454.612 308.124 448.8 308.124C442.989 308.124 438.277 312.835 438.277 318.647C438.277 324.458 442.989 329.17 448.8 329.17ZM494.4 318.647C494.4 324.458 489.689 329.17 483.877 329.17C478.065 329.17 473.354 324.458 473.354 318.647C473.354 312.835 478.065 308.124 483.877 308.124C489.689 308.124 494.4 312.835 494.4 318.647ZM518.954 329.17C524.766 329.17 529.477 324.458 529.477 318.647C529.477 312.835 524.766 308.124 518.954 308.124C513.142 308.124 508.431 312.835 508.431 318.647C508.431 324.458 513.142 329.17 518.954 329.17ZM564.554 318.647C564.554 324.458 559.843 329.17 554.031 329.17C548.219 329.17 543.508 324.458 543.508 318.647C543.508 312.835 548.219 308.124 554.031 308.124C559.843 308.124 564.554 312.835 564.554 318.647ZM589.108 329.17C594.92 329.17 599.631 324.458 599.631 318.647C599.631 312.835 594.92 308.124 589.108 308.124C583.296 308.124 578.585 312.835 578.585 318.647C578.585 324.458 583.296 329.17 589.108 329.17ZM634.708 318.647C634.708 324.458 629.997 329.17 624.185 329.17C618.373 329.17 613.662 324.458 613.662 318.647C613.662 312.835 618.373 308.124 624.185 308.124C629.997 308.124 634.708 312.835 634.708 318.647Z" fill="#00A0FF"/>
<rect x="238.4" y="351.2" width="420.8" height="4" fill="#00C8FF"/>
<rect x="238.4" y="282.4" width="420.8" height="4" fill="#00C8FF"/>
<path d="M352.046 233.292H332.44L322.816 244.985H342.778L352.046 233.292Z" fill="#DADAED"/>
<rect x="376.8" y="244.8" width="35.2" height="37.6" fill="#F2F9FE"/>
<rect x="412" y="244.8" width="19.2" height="37.6" fill="#AEBECB"/>
<path d="M368 233.6H393.666L402.4 244.8H376.526L368 233.6Z" fill="#AEBECB"/>
<path d="M440.8 233.6H421.483L412 244.8H431.668L440.8 233.6Z" fill="#F2F9FE"/>
<rect x="465.6" y="244.8" width="35.2" height="37.6" fill="#F2F9FE"/>
<rect x="500.8" y="244.8" width="20" height="37.6" fill="#AEBECB"/>
<path d="M456.8 233.6H482.466L491.2 244.8H465.327L456.8 233.6Z" fill="#AEBECB"/>
<path d="M529.6 233.6H510.283L500.8 244.8H520.468L529.6 233.6Z" fill="#F2F9FE"/>
<path d="M545.846 233.292H571.363L580.046 244.985H554.323L545.846 233.292Z" fill="#787898"/>
</g>
<rect x="550.4" y="166.4" width="232" height="203.2" rx="8.43077" transform="rotate(90 550.4 166.4)" stroke="white" stroke-width="11.2"/>
<rect x="431.2" y="378.4" width="34.4" height="3.2" rx="1.6" fill="#235A84"/>
<circle cx="448.8" cy="187.692" r="4.67692" fill="#235A84"/>
<rect x="206.4" y="140.8" width="135.2" height="307.2" fill="url(#paint0_linear_30215_28715)"/>
<g clip-path="url(#clip2_30215_28715)">
<path d="M107.732 86.5236C106.521 82.5425 102.89 79.6 98.5677 79.6C102.89 79.6 106.521 76.6575 107.732 72.6764C107.904 71.8109 108.077 70.9455 108.077 70.08V51.04C108.077 40.4815 99.6051 32 89.058 32H88.0206H72.978H46.3509C45.8322 32 45.4864 32 45.1406 32.1731C43.0658 32.6924 41.5096 34.5964 41.5096 36.8465V41.6931V60.2138C41.5096 60.56 41.6825 60.7331 42.0284 60.7331C52.2296 61.0793 60.529 69.3876 60.529 79.7731C60.529 90.1586 52.4025 98.4669 42.0284 98.8131C41.6825 98.8131 41.5096 99.1593 41.5096 99.3324V117.853V122.7C41.5096 124.95 43.0658 126.854 45.1406 127.373C45.4864 127.2 45.8322 127.2 46.3509 127.2H73.1509H88.1935H89.058C99.6051 127.2 108.077 118.719 108.077 108.16V89.12C108.077 88.0815 107.904 87.216 107.732 86.5236Z" fill="#00C6FF"/>
<path d="M107.732 86.5236C106.521 82.5425 102.89 79.6 98.5678 79.6C102.89 79.6 106.521 76.6575 107.732 72.6764C107.905 71.8109 108.078 70.9455 108.078 70.08V51.04C108.078 40.4815 99.6052 32 89.0582 32H88.0207H72.9781C88.3665 42.2124 98.5678 59.6945 98.5678 79.6C98.5678 99.5055 88.3665 116.988 72.9781 127.2H88.0207H89.0582C99.6052 127.2 108.078 118.719 108.078 108.16V89.12C108.078 88.0815 107.905 87.216 107.732 86.5236Z" fill="#00A0FF"/>
<path d="M72.978 32H46.3509C45.8322 32 45.4864 32 45.1406 32.1731C43.0658 32.6924 41.5096 34.5964 41.5096 36.8465V41.6931C62.4309 41.6931 79.5484 58.8291 79.5484 79.7731C79.5484 100.717 62.6038 117.853 41.5096 117.853V122.7C41.5096 124.95 43.0658 126.854 45.1406 127.373C45.4864 127.2 45.8322 127.2 46.3509 127.2H73.1509C88.5393 116.988 98.7406 99.5055 98.7406 79.6C98.5677 59.6945 88.3664 42.2124 72.978 32Z" fill="#00B4FF"/>
<path d="M41.5096 41.52V60.0407C41.5096 60.3869 41.6825 60.56 42.0284 60.56C52.2296 60.9062 60.529 69.2146 60.529 79.6C60.529 89.9855 52.4025 98.2938 42.0284 98.64C41.6825 98.64 41.5096 98.9862 41.5096 99.1593V117.68C62.4309 117.68 79.5484 100.544 79.5484 79.6C79.5484 58.656 62.6038 41.52 41.5096 41.52Z" fill="#00C8FF"/>
<path d="M41.8555 70.0796C40.4723 70.0796 39.089 70.2527 37.8787 70.772C37.5329 70.945 37.36 71.2912 37.5329 71.6374C37.8787 72.1567 38.0516 72.849 37.8787 73.5414C37.7058 74.753 36.6684 75.7916 35.4581 75.9647C34.7665 76.1378 34.0748 75.9647 33.5561 75.6185C33.2103 75.4454 32.8645 75.6185 32.6916 75.9647C32.1729 77.1763 32 78.388 32 79.9458C32.1729 84.7923 36.1497 88.9465 40.991 89.1196C46.6968 89.4658 51.1923 84.7923 51.0194 79.0803C50.8465 74.2338 46.6968 70.2527 41.8555 70.0796Z" fill="white"/>
<path d="M155.28 70.5991C155.28 74.4071 154.07 77.0034 151.13 78.7344V78.9075C154.588 80.1191 156.663 83.4078 156.663 88.2544C156.663 95.0049 151.649 98.6398 144.56 98.6398H129.345C127.961 98.6398 127.443 98.1205 127.443 96.7358V62.2907C127.443 60.906 127.961 60.3867 129.345 60.3867H144.214C151.13 60.5598 155.28 64.1947 155.28 70.5991ZM143.523 66.7911H134.359V76.138H143.523C146.635 76.138 148.364 74.5802 148.364 71.4645C148.364 68.3489 146.635 66.7911 143.523 66.7911ZM144.387 82.3693H134.359V92.4085H144.387C147.672 92.4085 149.401 90.6776 149.401 87.562C149.401 84.4464 147.672 82.3693 144.387 82.3693Z" fill="white"/>
<path d="M174.991 70.0796C176.201 70.0796 176.72 70.4258 176.72 71.8105V74.2338C176.72 75.4454 176.374 75.9647 174.991 75.9647H173.089C171.014 75.9647 169.458 76.1378 168.075 76.657C167.556 76.8301 167.556 77.0032 167.556 77.3494V97.2549C167.556 98.4665 167.21 98.9858 166 98.9858H163.061C161.85 98.9858 161.332 98.6396 161.332 97.2549V74.753C161.332 73.0221 161.677 72.3298 163.406 71.6374C165.308 70.945 168.594 70.0796 173.435 70.0796H174.991Z" fill="white"/>
<path d="M187.959 63.6754V64.1947C187.959 66.618 187.094 67.4834 184.674 67.4834H184.328C181.907 67.4834 181.043 66.618 181.043 64.1947V63.6754C181.043 61.2522 181.907 60.3867 184.328 60.3867H184.674C187.094 60.3867 187.959 61.2522 187.959 63.6754ZM187.613 72.5031V96.9089C187.613 98.1205 187.267 98.6398 185.884 98.6398H182.945C181.734 98.6398 181.388 98.2936 181.388 96.9089V72.5031C181.388 71.2914 181.734 70.9453 182.945 70.9453H185.884C187.094 70.7722 187.613 71.1184 187.613 72.5031Z" fill="white"/>
<path d="M204.557 70.0796C208.88 70.0796 212.338 70.945 214.24 71.8105C215.969 72.676 216.142 73.0221 216.142 74.753V99.505C216.142 106.602 212.857 111.102 204.385 111.102C198.679 111.102 195.221 109.198 193.319 105.909C192.454 104.698 192.8 103.832 194.01 103.313L196.085 102.274C197.295 101.582 197.987 101.755 198.852 102.967C199.889 104.698 201.445 105.736 204.385 105.736C208.188 105.736 210.09 103.832 210.09 100.024V97.428C208.534 97.7741 206.286 98.4665 203.693 98.4665C196.085 98.4665 192.627 94.4854 192.627 87.7349V81.6767C192.454 74.0607 196.258 70.0796 204.557 70.0796ZM204.903 75.6185C200.581 75.6185 198.506 77.5225 198.506 81.3305V87.0425C198.506 90.3312 200.581 92.2352 204.385 92.2352C206.632 92.2352 208.534 91.889 209.917 91.5429V77.0032C209.917 76.657 209.745 76.484 209.399 76.3109C208.361 75.9647 206.632 75.6185 204.903 75.6185Z" fill="white"/>
<path d="M227.726 60.5598V70.7721C228.245 70.426 231.012 70.0798 234.124 70.0798C241.732 70.0798 245.19 74.0609 245.19 80.8114V96.9089C245.19 98.1205 244.844 98.6398 243.461 98.6398H240.521C239.311 98.6398 238.792 98.2936 238.792 96.9089V80.9845C238.792 77.5227 236.717 75.7918 232.914 75.7918C230.32 75.7918 227.899 76.311 227.381 76.6572V97.082C227.381 98.2936 227.035 98.8129 225.825 98.8129H222.885C221.675 98.8129 221.156 98.4667 221.156 97.082V60.7329C221.156 59.5212 221.502 59.002 222.885 59.002H225.825C227.208 59.002 227.726 59.3481 227.726 60.5598Z" fill="white"/>
<path d="M259.886 65.9258V70.7723H265.938C267.148 70.7723 267.667 71.1185 267.667 72.3301V74.7534C267.667 75.9651 267.321 76.4843 265.938 76.4843H259.886V87.3891C259.886 92.5818 261.443 93.6203 265.938 93.6203C267.148 93.6203 267.667 93.9665 267.667 95.3512V97.7745C267.667 98.9862 267.321 99.5054 265.938 99.5054C257.12 99.8516 253.662 96.9091 253.662 87.7352V76.8305H249.858C248.648 76.8305 248.302 76.4843 248.302 75.0996V72.6763C248.302 71.4647 248.648 71.1185 249.858 71.1185H253.489V66.272C253.489 65.0603 253.835 64.7141 255.218 64.7141H258.157C259.368 64.368 259.886 64.7141 259.886 65.9258Z" fill="white"/>
<path d="M283.228 70.0796C291.701 70.0796 295.504 74.9261 295.504 81.1574V84.4461C295.504 85.8309 294.986 86.6963 293.084 86.6963H277.004V88.6003C277.004 92.0621 279.252 93.9661 283.055 93.9661C286.168 93.9661 288.243 92.9276 289.453 91.1967C290.317 89.985 290.836 89.812 292.219 90.5043L294.121 91.5429C295.332 92.0621 295.505 93.1007 294.813 94.1392C292.911 97.2549 289.28 99.332 283.228 99.332C274.41 99.332 270.952 94.4854 270.952 87.908V81.5036C270.779 74.0607 275.102 70.0796 283.228 70.0796ZM283.228 75.2723C279.252 75.2723 277.004 77.1763 277.004 80.8112V82.0229H289.28V80.8112C289.28 77.1763 287.205 75.2723 283.228 75.2723Z" fill="white"/>
<path d="M323.861 72.5032V99.5054C323.861 106.602 320.575 111.103 312.103 111.103C306.397 111.103 302.939 109.199 301.037 105.91C300.346 104.698 300.519 103.833 301.729 103.313L303.804 102.275C305.014 101.583 305.706 101.756 306.397 102.967C307.435 104.698 309.164 105.737 311.93 105.737C315.734 105.737 317.636 103.833 317.636 100.025V97.4283C315.907 97.7745 313.832 98.1207 311.239 98.1207C303.631 98.1207 300 94.1396 300 87.3891V72.5032C300 71.2916 300.346 70.9454 301.729 70.9454H304.668C305.879 70.9454 306.225 71.2916 306.225 72.5032V87.0429C306.225 90.6778 308.126 92.4087 312.103 92.4087C314.351 92.4087 316.253 92.0625 317.636 91.7163V72.5032C317.636 71.2916 317.982 70.9454 319.365 70.9454H322.304C323.515 70.7723 323.861 71.1185 323.861 72.5032Z" fill="white"/>
<path d="M341.151 70.0796C349.623 70.0796 353.427 74.9261 353.427 81.1574V84.4461C353.427 85.8309 352.908 86.6963 351.007 86.6963H334.926V88.6003C334.926 92.0621 337.174 93.9661 340.978 93.9661C344.09 93.9661 346.165 92.9276 347.376 91.1967C348.24 89.985 348.759 89.812 350.142 90.5043L352.044 91.5429C353.254 92.0621 353.427 93.1007 352.736 94.1392C350.834 97.2549 347.203 99.332 341.151 99.332C332.333 99.332 328.875 94.4854 328.875 87.908V81.5036C328.702 74.0607 333.025 70.0796 341.151 70.0796ZM341.151 75.2723C337.174 75.2723 334.926 77.1763 334.926 80.8112V82.0229H347.203V80.8112C347.376 77.1763 345.301 75.2723 341.151 75.2723Z" fill="white"/>
</g>
</g>
<defs>
<filter id="filter0_d_30215_28715" x="318.215" y="149.107" width="261.169" height="289.969" filterUnits="userSpaceOnUse" color-interpolation-filters="sRGB">
<feFlood flood-opacity="0" result="BackgroundImageFix"/>
<feColorMatrix in="SourceAlpha" type="matrix" values="0 0 0 0 0 0 0 0 0 0 0 0 0 0 0 0 0 0 127 0" result="hardAlpha"/>
<feOffset dy="11.6923"/>
<feGaussianBlur stdDeviation="11.6923"/>
<feComposite in2="hardAlpha" operator="out"/>
<feColorMatrix type="matrix" values="0 0 0 0 0.0980392 0 0 0 0 0.0980392 0 0 0 0 0.156863 0 0 0 1 0"/>
<feBlend mode="normal" in2="BackgroundImageFix" result="effect1_dropShadow_30215_28715"/>
<feBlend mode="normal" in="SourceGraphic" in2="effect1_dropShadow_30215_28715" result="shape"/>
</filter>
<linearGradient id="paint0_linear_30215_28715" x1="261.348" y1="304" x2="341.6" y2="304" gradientUnits="userSpaceOnUse">
<stop offset="0.187741" stop-color="#191928"/>
<stop offset="1" stop-color="#191928" stop-opacity="0.505208"/>
</linearGradient>
<clipPath id="clip0_30215_28715">
<rect width="608" height="448" rx="6.4" fill="white"/>
</clipPath>
<clipPath id="clip1_30215_28715">
<rect width="422.4" height="72.8" fill="white" transform="translate(237.6 282.4)"/>
</clipPath>
<clipPath id="clip2_30215_28715">
<rect width="321.6" height="95.2" fill="white" transform="translate(32 32)"/>
</clipPath>
</defs>
</svg>
