<svg width="609" height="448" viewBox="0 0 609 448" fill="none" xmlns="http://www.w3.org/2000/svg">
<g clip-path="url(#clip0_30215_29343)">
<rect x="0.399902" width="608" height="448" rx="6.4" fill="#1890FF"/>
<path d="M32.3999 84.207V40.5391H41.3696V58.2758H42.6199L49.4151 40.5391H58.3304L50.1218 61.0792L58.7653 84.207H49.5782L42.6199 64.6912H41.3696V84.207H32.3999Z" fill="white"/>
<path d="M74.8898 84.8C71.6644 84.8 69.1094 84.2249 67.2248 83.0748C65.3403 81.9247 63.9813 80.2894 63.1477 78.169C62.3504 76.0125 61.9518 73.4428 61.9518 70.4597V54.1786C61.9518 51.1955 62.3504 48.6437 63.1477 46.5232C63.9813 44.4027 65.3403 42.7854 67.2248 41.6712C69.1094 40.5571 71.6644 40 74.8898 40C78.1515 40 80.7246 40.5751 82.6092 41.7252C84.5299 42.8393 85.889 44.4566 86.6863 46.5771C87.5198 48.6617 87.9366 51.1955 87.9366 54.1786V70.4597C87.9366 73.4428 87.5198 76.0125 86.6863 78.169C85.889 80.2894 84.5299 81.9247 82.6092 83.0748C80.7246 84.2249 78.1515 84.8 74.8898 84.8ZM74.8898 78.3846C76.0495 78.3846 76.9012 78.133 77.4448 77.6298C77.9884 77.0907 78.3508 76.3899 78.532 75.5273C78.7132 74.6288 78.8039 73.6764 78.8039 72.67V52.0221C78.8039 51.0158 78.7132 50.0813 78.532 49.2188C78.3508 48.3562 77.9884 47.6733 77.4448 47.1702C76.9012 46.631 76.0495 46.3615 74.8898 46.3615C73.8026 46.3615 72.9872 46.631 72.4435 47.1702C71.8999 47.6733 71.5375 48.3562 71.3563 49.2188C71.1751 50.0813 71.0845 51.0158 71.0845 52.0221V72.67C71.0845 73.6764 71.157 74.6288 71.302 75.5273C71.4832 76.3899 71.8456 77.0907 72.3892 77.6298C72.9328 78.133 73.7663 78.3846 74.8898 78.3846Z" fill="white"/>
<path d="M94.0344 84.207V40.5391H103.004V58.4915H110.778V40.5391H119.747V84.207H110.778V64.8529H103.004V84.207H94.0344Z" fill="white"/>
<path d="M130.653 84.207V47.1702H123.858V40.5391H146.363V47.1702H139.677V84.207H130.653Z" fill="white"/>
<path d="M150.358 84.207V40.5391H164.329C166.974 40.5391 169.131 41.0423 170.798 42.0486C172.465 43.019 173.697 44.4387 174.494 46.3076C175.328 48.1765 175.744 50.4408 175.744 53.1004C175.744 56.2272 175.201 58.6712 174.114 60.4323C173.063 62.1933 171.613 63.4513 169.765 64.206C167.916 64.9248 165.796 65.2842 163.404 65.2842H159.327V84.207H150.358ZM159.327 59.0306H162.48C163.785 59.0306 164.782 58.8329 165.47 58.4375C166.195 58.0063 166.684 57.3414 166.938 56.4428C167.192 55.5443 167.318 54.3942 167.318 52.9925C167.318 51.6627 167.21 50.5486 166.992 49.6501C166.811 48.7515 166.376 48.0507 165.688 47.5475C164.999 47.0444 163.912 46.7928 162.426 46.7928H159.327V59.0306Z" fill="white"/>
<path d="M192.638 84.8C189.412 84.8 186.857 84.2249 184.973 83.0748C183.088 81.9247 181.729 80.2894 180.896 78.169C180.098 76.0125 179.7 73.4428 179.7 70.4597V54.1786C179.7 51.1955 180.098 48.6437 180.896 46.5232C181.729 44.4027 183.088 42.7854 184.973 41.6712C186.857 40.5571 189.412 40 192.638 40C195.899 40 198.473 40.5751 200.357 41.7252C202.278 42.8393 203.637 44.4566 204.434 46.5771C205.268 48.6617 205.685 51.1955 205.685 54.1786V70.4597C205.685 73.4428 205.268 76.0125 204.434 78.169C203.637 80.2894 202.278 81.9247 200.357 83.0748C198.473 84.2249 195.899 84.8 192.638 84.8ZM192.638 78.3846C193.797 78.3846 194.649 78.133 195.193 77.6298C195.736 77.0907 196.099 76.3899 196.28 75.5273C196.461 74.6288 196.552 73.6764 196.552 72.67V52.0221C196.552 51.0158 196.461 50.0813 196.28 49.2188C196.099 48.3562 195.736 47.6733 195.193 47.1702C194.649 46.631 193.797 46.3615 192.638 46.3615C191.551 46.3615 190.735 46.631 190.192 47.1702C189.648 47.6733 189.285 48.3562 189.104 49.2188C188.923 50.0813 188.832 51.0158 188.832 52.0221V72.67C188.832 73.6764 188.905 74.6288 189.05 75.5273C189.231 76.3899 189.594 77.0907 190.137 77.6298C190.681 78.133 191.514 78.3846 192.638 78.3846Z" fill="white"/>
<path d="M208.684 84.207V77.8994C209.807 77.8994 210.731 77.8275 211.456 77.6837C212.217 77.504 212.815 77.1267 213.25 76.5516C213.721 75.9406 214.102 75.0241 214.392 73.8022C214.682 72.5442 214.917 70.873 215.098 68.7884C215.316 66.7039 215.533 64.0623 215.751 60.8635L217.219 40.5391H239.67V84.207H230.755V47.3319H225.264L224.34 62.2652C224.122 65.7155 223.869 68.7166 223.579 71.2683C223.325 73.7842 222.908 75.9047 222.329 77.6298C221.785 79.355 220.969 80.7387 219.882 81.781C218.831 82.7873 217.4 83.4882 215.588 83.8835C213.776 84.2429 211.474 84.3507 208.684 84.207Z" fill="white"/>
<path d="M246.555 84.207V40.5391H255.524V58.9227H257.59C260.453 58.9227 262.863 59.354 264.82 60.2166C266.777 61.0792 268.263 62.4449 269.278 64.3138C270.293 66.1468 270.8 68.5548 270.8 71.5379C270.8 74.1256 270.456 76.2461 269.767 77.8994C269.115 79.5167 268.154 80.7926 266.886 81.7271C265.654 82.6615 264.186 83.3085 262.483 83.6679C260.815 84.0273 258.967 84.207 256.938 84.207H246.555ZM255.524 78.3307H256.992C258.333 78.3307 259.402 78.0971 260.199 77.6298C261.033 77.1626 261.631 76.4258 261.993 75.4195C262.356 74.3772 262.519 73.0294 262.483 71.3762C262.446 69.4713 262.048 67.9618 261.287 66.8477C260.562 65.6976 259.094 65.1225 256.883 65.1225H255.524V78.3307Z" fill="white"/>
<path fill-rule="evenodd" clip-rule="evenodd" d="M584.536 136.066L609.654 123.097L613.176 269.552L589.082 272.783L570.592 203.263L605.336 198.604L605.04 196.391L570.013 201.087L555.562 146.752L584.536 136.066ZM557.698 180.659L563.368 201.978L504.013 209.937L501.777 186.064L557.698 180.659ZM499.554 186.279L501.799 210.234L478.93 213.3L476.646 188.493L499.554 186.279ZM501.152 179.395L555.953 174.098L541.331 119.123L496.286 127.45L501.152 179.395ZM496.076 125.218L540.756 116.959L532.614 86.3489L493.151 93.9937L496.076 125.218ZM490.949 94.4203L498.93 179.61L476.032 181.823L469.605 112.016L476.808 110.128V97.1596L490.949 94.4203ZM502.007 212.459L478.073 215.668L476.92 215.823L476.813 214.664L474.423 188.708L450.708 191L452.804 219.941L452.883 221.04L451.786 221.134L413.337 224.434L414.939 242.017L503.877 232.42L502.007 212.459ZM392.498 223.981L410.91 222.401L409.832 210.567L412.056 210.365L413.135 222.21L450.497 219.004L448.485 191.215L403.108 195.6L392.498 223.981ZM412.719 242.256L411.113 224.625L391.633 226.296L384.529 245.298L412.719 242.256ZM383.655 247.638L412.922 244.48L415.123 268.641L368.869 274.221L382.589 250.359L382.727 250.121L382.823 249.863L383.655 247.638ZM367.48 276.637L415.326 270.866L417.596 295.783L355.797 304.071L354.403 304.258L353.56 305.385L340.467 322.901L338.455 319.27L357.241 294.392L357.367 294.225L357.471 294.044L367.48 276.637ZM455.252 266.05L417.543 270.598L419.811 295.486L457.528 290.427L455.252 266.05ZM455.044 263.826L417.341 268.374L415.142 244.24L452.835 240.173L455.044 263.826ZM457.469 265.782L459.743 290.13L483.24 286.979L480.946 262.95L457.469 265.782ZM460.366 296.805L483.877 293.651L485.218 307.7L461.682 310.898L460.366 296.805ZM486.091 293.354L487.432 307.399L510.607 304.251L509.294 290.242L486.091 293.354ZM461.89 313.123L485.43 309.925L487.514 331.76L463.924 334.9L461.89 313.123ZM487.644 309.624L489.729 331.465L512.867 328.384L510.815 306.475L487.644 309.624ZM464.132 337.125L487.726 333.984L498.609 448H474.486L464.132 337.125ZM489.941 333.689L500.852 448H563.265L552.242 325.394L515.291 330.314L525.923 443.801L523.7 444.009L513.076 330.609L489.941 333.689ZM554.457 325.1L565.507 448H617.468L613.338 276.288L590.818 279.308L599.173 310.722L605.94 308.384L606.669 310.494L599.748 312.886L604.869 332.141L607.756 331.552L608.202 333.74L605.444 334.302L611.97 358.838L605.746 361.314L598.916 335.633L588.108 337.835L587.189 338.023L586.846 337.151L579.59 318.721L579.163 317.637L580.264 317.257L592.87 312.901L584.173 280.2L544.701 285.494L552.032 299.361L552.779 300.774L551.196 300.989L513.029 306.175L515.082 328.089L560.945 321.983L561.952 321.849L562.18 322.839L589.531 441.606L587.355 442.107L560.233 324.331L554.457 325.1ZM483.164 262.683L485.454 286.682L508.669 283.568L506.449 259.874L483.164 262.683ZM506.241 257.65L482.952 260.46L480.728 237.164L504.085 234.644L506.241 257.65ZM455.055 239.934L478.508 237.403L480.734 260.727L457.262 263.558L455.055 239.934ZM458.152 297.102L420.419 302.162L421.71 316.329L459.468 311.199L458.152 297.102ZM459.676 313.424L421.913 318.555L423.887 340.23L461.709 335.195L459.676 313.424ZM461.917 337.42L424.09 342.456L433.706 448H472.243L461.917 337.42ZM510.884 283.271L508.667 259.607L527.302 257.359L539.007 279.499L510.884 283.271ZM508.458 257.383L526.185 255.245L514.689 233.499L506.306 234.404L508.458 257.383ZM358.083 310.523L418.204 302.459L421.711 340.941L421.71 340.941L411.207 358.281L361.965 318.806L360.759 317.839L360.22 319.288L354.638 334.305L354.373 335.018L354.94 335.525L385.969 363.306L408.762 436.048L410.893 435.38L388.008 362.345L387.916 362.052L387.687 361.847L356.996 334.369L361.774 321.515L410.804 360.82L411.797 361.616L412.457 360.527L422.052 344.687L431.464 448H241.249L293.614 378.653L296.082 382.276L252.531 440.534L257.896 444.544L300.068 388.13L335.226 439.755L337.071 438.498L323.608 418.729L340.338 399.59L340.917 398.928L340.409 398.21L317.127 365.31L339.628 335.21L366.494 383.707L380.341 439.927L386.845 438.325L372.891 381.672L372.784 381.24L372.569 380.85L344.026 329.326L358.083 310.523ZM593.445 315.064L582.094 318.987L588.58 335.461L598.341 333.471L593.445 315.064ZM315.721 367.19L301.482 386.239L322.309 416.822L338.078 398.782L315.721 367.19ZM541.365 279.183L516.309 231.787L515.955 231.117L515.203 231.198L506.097 232.181L504.222 212.162L563.947 204.154L582.437 273.674L541.365 279.183ZM542.343 285.81L511.509 289.945L512.821 303.95L549.312 298.992L542.343 285.81ZM473.809 182.038L468.281 121.986L445.936 125.091L450.224 184.317L473.809 182.038ZM232.856 448L289.634 372.808L272.619 347.823L196.933 404.27L192.929 398.901L268.845 342.281L259.985 329.272L196.641 369.085L195.453 367.194L258.728 327.425L235.516 293.341L190.823 308.449L190.108 306.333L234.211 291.425L193.45 231.571L195.295 230.315L236.407 290.683L258.464 283.227L315.137 215.094L284.52 160.069L268.634 169.782L267.733 170.333L267.133 169.464L239.782 129.875L239.456 129.402L239.651 128.862L245.182 113.529L232.328 106.033L186 217.292V448H232.856ZM286.426 158.903L316.667 213.254L351.482 171.399L303.929 145.773L302.559 148.811L302.418 149.125L302.124 149.305L286.426 158.903ZM316.301 217.186L305.552 230.108L312.697 241.605L321.029 225.685L316.301 217.186ZM259.979 284.898L304.048 231.917L311.496 243.901L294.971 275.475L294.844 275.718V275.993V304.726L260.619 326.236L237.712 292.599L259.478 285.241L259.777 285.14L259.979 284.898ZM333.133 278.716L297.685 275.103L312.864 246.102L333.133 278.716ZM345.572 298.73L334.622 281.112L297.076 277.286V305.343V305.96L296.554 306.288L261.877 328.083L270.636 340.945L294.516 323.135L295.149 322.664L295.926 322.524L332.583 315.932L345.572 298.73ZM347.014 296.821L314.065 243.806L322.75 227.212L338.703 238.074L338.456 238.17L355.863 283.404L351.769 290.523L347.014 296.821ZM357.296 280.911L369.765 259.225L341.56 240.02L357.296 280.911ZM370.881 257.284L323.041 224.709L317.831 215.346L353.488 172.479L396.03 195.405L376.645 247.259L370.881 257.284ZM355.852 166.145L306.689 139.651L325.878 97.0852L385.273 130.774L355.852 166.145ZM304.718 138.589L323.928 95.979L288.704 76L271.222 120.538L304.718 138.589ZM300.666 147.58L301.959 144.711L268.756 126.819L268.61 127.193L247.143 114.673L241.946 129.079L268.37 167.326L300.666 147.58ZM297.495 380.385L295.035 376.772L334.038 325.119L336.069 328.784L297.495 380.385ZM274.41 346.486L291.055 370.927L326.637 323.807L297.888 328.976L274.41 346.486ZM357.858 167.225L398.398 189.072L414.082 147.115L387.247 131.893L357.858 167.225ZM441.389 93.1992L448.001 184.532L405.718 188.619L441.389 93.1992Z" fill="#40A3FF"/>
<path fill-rule="evenodd" clip-rule="evenodd" d="M584.536 136.066L609.654 123.097L613.176 269.552L589.082 272.783L570.592 203.263L605.336 198.604L605.04 196.391L570.013 201.087L555.562 146.752L584.536 136.066ZM557.698 180.659L563.368 201.978L504.013 209.937L501.777 186.064L557.698 180.659ZM499.554 186.279L501.799 210.234L478.93 213.3L476.646 188.493L499.554 186.279ZM501.152 179.395L555.953 174.098L541.331 119.123L496.286 127.45L501.152 179.395ZM496.076 125.218L540.756 116.959L532.614 86.3489L493.151 93.9937L496.076 125.218ZM490.949 94.4203L498.93 179.61L476.032 181.823L469.605 112.016L476.808 110.128V97.1596L490.949 94.4203ZM502.007 212.459L478.073 215.668L476.92 215.823L476.813 214.664L474.423 188.708L450.708 191L452.804 219.941L452.883 221.04L451.786 221.134L413.337 224.434L414.939 242.017L503.877 232.42L502.007 212.459ZM392.498 223.981L410.91 222.401L409.832 210.567L412.056 210.365L413.135 222.21L450.497 219.004L448.485 191.215L403.108 195.6L392.498 223.981ZM412.719 242.256L411.113 224.625L391.633 226.296L384.529 245.298L412.719 242.256ZM383.655 247.638L412.922 244.48L415.123 268.641L368.869 274.221L382.589 250.359L382.727 250.121L382.823 249.863L383.655 247.638ZM367.48 276.637L415.326 270.866L417.596 295.783L355.797 304.071L354.403 304.258L353.56 305.385L340.467 322.901L338.455 319.27L357.241 294.392L357.367 294.225L357.471 294.044L367.48 276.637ZM455.252 266.05L417.543 270.598L419.811 295.486L457.528 290.427L455.252 266.05ZM455.044 263.826L417.341 268.374L415.142 244.24L452.835 240.173L455.044 263.826ZM457.469 265.782L459.743 290.13L483.24 286.979L480.946 262.95L457.469 265.782ZM460.366 296.805L483.877 293.651L485.218 307.7L461.682 310.898L460.366 296.805ZM486.091 293.354L487.432 307.399L510.607 304.251L509.294 290.242L486.091 293.354ZM461.89 313.123L485.43 309.925L487.514 331.76L463.924 334.9L461.89 313.123ZM487.644 309.624L489.729 331.465L512.867 328.384L510.815 306.475L487.644 309.624ZM464.132 337.125L487.726 333.984L498.609 448H474.486L464.132 337.125ZM489.941 333.689L500.852 448H563.265L552.242 325.394L515.291 330.314L525.923 443.801L523.7 444.009L513.076 330.609L489.941 333.689ZM554.457 325.1L565.507 448H617.468L613.338 276.288L590.818 279.308L599.173 310.722L605.94 308.384L606.669 310.494L599.748 312.886L604.869 332.141L607.756 331.552L608.202 333.74L605.444 334.302L611.97 358.838L605.746 361.314L598.916 335.633L588.108 337.835L587.189 338.023L586.846 337.151L579.59 318.721L579.163 317.637L580.264 317.257L592.87 312.901L584.173 280.2L544.701 285.494L552.032 299.361L552.779 300.774L551.196 300.989L513.029 306.175L515.082 328.089L560.945 321.983L561.952 321.849L562.18 322.839L589.531 441.606L587.355 442.107L560.233 324.331L554.457 325.1ZM483.164 262.683L485.454 286.682L508.669 283.568L506.449 259.874L483.164 262.683ZM506.241 257.65L482.952 260.46L480.728 237.164L504.085 234.644L506.241 257.65ZM455.055 239.934L478.508 237.403L480.734 260.727L457.262 263.558L455.055 239.934ZM458.152 297.102L420.419 302.162L421.71 316.329L459.468 311.199L458.152 297.102ZM459.676 313.424L421.913 318.555L423.887 340.23L461.709 335.195L459.676 313.424ZM461.917 337.42L424.09 342.456L433.706 448H472.243L461.917 337.42ZM510.884 283.271L508.667 259.607L527.302 257.359L539.007 279.499L510.884 283.271ZM508.458 257.383L526.185 255.245L514.689 233.499L506.306 234.404L508.458 257.383ZM358.083 310.523L418.204 302.459L421.711 340.941L421.71 340.941L411.207 358.281L361.965 318.806L360.759 317.839L360.22 319.288L354.638 334.305L354.373 335.018L354.94 335.525L385.969 363.306L408.762 436.048L410.893 435.38L388.008 362.345L387.916 362.052L387.687 361.847L356.996 334.369L361.774 321.515L410.804 360.82L411.797 361.616L412.457 360.527L422.052 344.687L431.464 448H241.249L293.614 378.653L296.082 382.276L252.531 440.534L257.896 444.544L300.068 388.13L335.226 439.755L337.071 438.498L323.608 418.729L340.338 399.59L340.917 398.928L340.409 398.21L317.127 365.31L339.628 335.21L366.494 383.707L380.341 439.927L386.845 438.325L372.891 381.672L372.784 381.24L372.569 380.85L344.026 329.326L358.083 310.523ZM593.445 315.064L582.094 318.987L588.58 335.461L598.341 333.471L593.445 315.064ZM315.721 367.19L301.482 386.239L322.309 416.822L338.078 398.782L315.721 367.19ZM541.365 279.183L516.309 231.787L515.955 231.117L515.203 231.198L506.097 232.181L504.222 212.162L563.947 204.154L582.437 273.674L541.365 279.183ZM542.343 285.81L511.509 289.945L512.821 303.95L549.312 298.992L542.343 285.81ZM473.809 182.038L468.281 121.986L445.936 125.091L450.224 184.317L473.809 182.038ZM232.856 448L289.634 372.808L272.619 347.823L196.933 404.27L192.929 398.901L268.845 342.281L259.985 329.272L196.641 369.085L195.453 367.194L258.728 327.425L235.516 293.341L190.823 308.449L190.108 306.333L234.211 291.425L193.45 231.571L195.295 230.315L236.407 290.683L258.464 283.227L315.137 215.094L284.52 160.069L268.634 169.782L267.733 170.333L267.133 169.464L239.782 129.875L239.456 129.402L239.651 128.862L245.182 113.529L232.328 106.033L186 217.292V448H232.856ZM286.426 158.903L316.667 213.254L351.482 171.399L303.929 145.773L302.559 148.811L302.418 149.125L302.124 149.305L286.426 158.903ZM316.301 217.186L305.552 230.108L312.697 241.605L321.029 225.685L316.301 217.186ZM259.979 284.898L304.048 231.917L311.496 243.901L294.971 275.475L294.844 275.718V275.993V304.726L260.619 326.236L237.712 292.599L259.478 285.241L259.777 285.14L259.979 284.898ZM333.133 278.716L297.685 275.103L312.864 246.102L333.133 278.716ZM345.572 298.73L334.622 281.112L297.076 277.286V305.343V305.96L296.554 306.288L261.877 328.083L270.636 340.945L294.516 323.135L295.149 322.664L295.926 322.524L332.583 315.932L345.572 298.73ZM347.014 296.821L314.065 243.806L322.75 227.212L338.703 238.074L338.456 238.17L355.863 283.404L351.769 290.523L347.014 296.821ZM357.296 280.911L369.765 259.225L341.56 240.02L357.296 280.911ZM370.881 257.284L323.041 224.709L317.831 215.346L353.488 172.479L396.03 195.405L376.645 247.259L370.881 257.284ZM355.852 166.145L306.689 139.651L325.878 97.0852L385.273 130.774L355.852 166.145ZM304.718 138.589L323.928 95.979L288.704 76L271.222 120.538L304.718 138.589ZM300.666 147.58L301.959 144.711L268.756 126.819L268.61 127.193L247.143 114.673L241.946 129.079L268.37 167.326L300.666 147.58ZM297.495 380.385L295.035 376.772L334.038 325.119L336.069 328.784L297.495 380.385ZM274.41 346.486L291.055 370.927L326.637 323.807L297.888 328.976L274.41 346.486ZM357.858 167.225L398.398 189.072L414.082 147.115L387.247 131.893L357.858 167.225ZM441.389 93.1992L448.001 184.532L405.718 188.619L441.389 93.1992Z" fill="url(#paint0_linear_30215_29343)"/>
<g filter="url(#filter0_d_30215_29343)">
<path d="M297.2 121.396C297.2 113.998 303.198 108 310.596 108H554.204C561.603 108 567.6 113.998 567.6 121.396V448H297.2V121.396Z" fill="white"/>
</g>
<path fill-rule="evenodd" clip-rule="evenodd" d="M266.812 215.751C268.034 216.91 269.011 218.291 269.689 219.815C270.391 221.396 270.748 223.075 270.748 224.803C270.748 227.286 270.139 229.752 268.937 232.13C267.975 234.045 266.632 235.913 264.939 237.683C262.048 240.711 259.015 242.562 258.155 243.058C257.906 243.202 257.629 243.272 257.348 243.272C257.064 243.272 256.786 243.198 256.541 243.058C255.681 242.562 252.649 240.711 249.757 237.683C248.064 235.91 246.721 234.045 245.76 232.13C244.564 229.749 243.956 227.279 243.956 224.8C243.956 223.071 244.312 221.393 245.014 219.812C245.693 218.288 246.671 216.907 247.892 215.748C249.123 214.578 250.553 213.658 252.148 213.015C253.797 212.351 255.548 212.014 257.352 212.014C259.156 212.014 260.906 212.351 262.555 213.019C264.141 213.655 265.586 214.582 266.812 215.751ZM262.981 222.238C262.03 220.127 259.867 218.653 257.352 218.653C254.84 218.653 252.679 220.123 251.726 222.23C251.392 222.969 251.206 223.787 251.206 224.648C251.206 227.958 253.958 230.642 257.352 230.642C260.746 230.642 263.498 227.958 263.498 224.648C263.498 223.79 263.313 222.975 262.981 222.238Z" fill="#8CD6FF"/>
<path fill-rule="evenodd" clip-rule="evenodd" d="M614.832 335.381C616.054 336.539 617.032 337.92 617.71 339.445C618.412 341.025 618.768 342.704 618.768 344.432C618.768 346.916 618.16 349.381 616.957 351.759C615.996 353.674 614.652 355.542 612.96 357.313C610.068 360.34 607.036 362.191 606.175 362.687C605.927 362.831 605.65 362.901 605.369 362.901C605.085 362.901 604.806 362.827 604.562 362.687C603.701 362.191 600.669 360.34 597.777 357.313C596.085 355.539 594.742 353.674 593.78 351.759C592.585 349.378 591.976 346.909 591.976 344.429C591.976 342.701 592.333 341.022 593.035 339.441C593.714 337.917 594.691 336.536 595.912 335.377C597.144 334.207 598.573 333.287 600.169 332.644C601.818 331.981 603.568 331.643 605.372 331.643C607.176 331.643 608.927 331.981 610.576 332.648C612.161 333.284 613.607 334.212 614.832 335.381ZM611 341.863C610.048 339.754 607.886 338.282 605.372 338.282C602.858 338.282 600.696 339.755 599.744 341.864C599.411 342.602 599.226 343.418 599.226 344.277C599.226 347.587 601.978 350.271 605.372 350.271C608.767 350.271 611.518 347.587 611.518 344.277C611.518 343.418 611.333 342.602 611 341.863Z" fill="#8CD6FF"/>
<path fill-rule="evenodd" clip-rule="evenodd" d="M601.436 196.954C602.658 198.112 603.636 199.493 604.314 201.018C605.016 202.598 605.372 204.277 605.372 206.006C605.372 208.489 604.764 210.955 603.561 213.333C602.6 215.247 601.256 217.116 599.564 218.886C596.672 221.914 593.64 223.765 592.779 224.26C592.531 224.404 592.254 224.474 591.973 224.474C591.689 224.475 591.41 224.401 591.166 224.26C590.305 223.765 587.273 221.914 584.381 218.886C582.689 217.112 581.346 215.247 580.384 213.333C579.189 210.951 578.58 208.482 578.58 206.002C578.58 204.274 578.937 202.595 579.639 201.014C580.318 199.49 581.295 198.109 582.516 196.95C583.748 195.781 585.177 194.86 586.773 194.218C588.422 193.554 590.172 193.217 591.976 193.217C593.78 193.217 595.531 193.554 597.18 194.221C598.765 194.857 600.211 195.785 601.436 196.954ZM597.605 203.44C596.654 201.329 594.492 199.855 591.976 199.855C589.464 199.855 587.303 201.326 586.35 203.433C586.016 204.172 585.831 204.99 585.831 205.85C585.831 209.161 588.582 211.845 591.976 211.845C595.371 211.845 598.122 209.161 598.122 205.85C598.122 204.993 597.938 204.177 597.605 203.44Z" fill="#8CD6FF"/>
<mask id="mask0_30215_29343" style="mask-type:alpha" maskUnits="userSpaceOnUse" x="297" y="108" width="271" height="340">
<path d="M297.261 121.77C297.261 114.371 303.258 108.374 310.657 108.374H554.02C561.419 108.374 567.417 114.371 567.417 121.77V448H297.261V121.77Z" fill="white"/>
</mask>
<g mask="url(#mask0_30215_29343)">
<path fill-rule="evenodd" clip-rule="evenodd" d="M588.536 130.44L613.654 117.237L617.177 266.393L593.081 269.683L574.57 198.831L609.339 194.085L609.037 191.873L574.002 196.655L559.546 141.324L588.536 130.44ZM561.682 175.778L567.373 197.56L508.015 205.663L505.771 181.28L561.682 175.778ZM503.549 181.498L505.801 205.965L482.931 209.087L480.64 183.753L503.549 181.498ZM505.157 174.61L559.968 169.217L545.326 113.172L500.284 121.649L505.157 174.61ZM500.078 119.416L544.761 111.007L536.614 79.8257L497.151 87.6084L500.078 119.416ZM494.949 88.0427L502.935 174.828L480.037 177.081L473.605 105.956L480.808 104.034V90.8315L494.949 88.0427ZM506.005 208.191L482.076 211.457L480.918 211.615L480.813 210.452L478.418 183.971L454.704 186.305L456.804 215.831L456.882 216.927L455.788 217.022L417.335 220.381L418.941 238.321L507.879 228.552L506.005 208.191ZM396.483 219.962L414.912 218.352L413.832 206.281L416.056 206.082L417.136 218.158L454.499 214.894L452.481 186.523L407.123 190.986L396.483 219.962ZM416.721 238.565L415.111 220.576L395.632 222.277L388.514 241.664L416.721 238.565ZM387.654 244.004L416.92 240.789L419.125 265.426L372.839 271.11L386.602 246.742L386.736 246.505L386.83 246.25L387.654 244.004ZM371.474 273.527L419.324 267.651L421.601 293.097L359.79 301.536L358.383 301.728L357.543 302.873L344.469 320.678L342.435 316.94L361.258 291.563L361.382 291.396L361.484 291.214L371.474 273.527ZM459.25 262.748L421.541 267.379L423.816 292.794L461.534 287.644L459.25 262.748ZM459.046 260.524L421.342 265.154L419.14 240.546L456.834 236.405L459.046 260.524ZM461.467 262.476L463.748 287.342L487.246 284.134L484.945 259.593L461.467 262.476ZM464.361 294.019L487.871 290.808L489.22 305.189L465.684 308.445L464.361 294.019ZM490.086 290.506L491.434 304.883L514.609 301.678L513.289 287.338L490.086 290.506ZM465.888 310.671L489.428 307.415L491.516 329.683L467.925 332.88L465.888 310.671ZM491.642 307.108L493.73 329.383L516.87 326.246L514.813 303.903L491.642 307.108ZM468.13 335.106L491.725 331.908L502.609 448H478.486L468.13 335.106ZM493.939 331.607L504.852 448H567.265L556.24 323.163L519.289 328.172L529.923 443.729L527.7 443.933L517.074 328.472L493.939 331.607ZM558.455 322.863L569.507 448H621.468L617.337 273.131L594.786 276.21L603.162 308.269L609.934 305.887L610.675 307.993L603.728 310.437L608.858 330.073L611.752 329.473L612.206 331.659L609.423 332.236L615.955 357.237L609.746 359.75L602.911 333.587L592.112 335.828L591.185 336.02L590.844 335.138L583.587 316.376L583.172 315.302L584.258 314.92L596.874 310.481L588.157 277.115L548.668 282.507L556.036 296.697L556.765 298.1L555.198 298.317L517.027 303.597L519.084 325.946L564.943 319.731L565.956 319.594L566.181 320.591L593.532 441.5L591.354 441.993L564.229 322.081L558.455 322.863ZM487.162 259.321L489.46 283.831L512.675 280.662L510.448 256.461L487.162 259.321ZM510.243 254.237L486.953 257.097L484.726 233.341L508.084 230.775L510.243 254.237ZM459.053 236.161L482.506 233.585L484.736 257.369L461.263 260.252L459.053 236.161ZM462.146 294.321L424.414 299.473L425.711 313.974L463.47 308.751L462.146 294.321ZM463.674 310.977L425.911 316.201L427.889 338.307L465.711 333.18L463.674 310.977ZM465.915 335.406L428.088 340.533L437.706 448H476.243L465.915 335.406ZM514.889 280.359L512.665 256.189L531.297 253.901L543.041 276.515L514.889 280.359ZM512.46 253.965L530.199 251.786L518.684 229.611L510.304 230.532L512.46 253.965ZM362.102 307.981L422.199 299.775L425.711 339.019L425.706 339.028L415.205 356.677L365.972 316.498L364.756 315.505L364.218 316.98L358.636 332.267L358.379 332.971L358.933 333.475L389.965 361.76C394.408 376.199 399.257 392.229 404.107 408.263L404.108 408.266L404.109 408.267L404.11 408.272L404.112 408.28C408.214 421.839 412.316 435.401 416.173 448H394.407C391.973 438.267 389.169 427.71 386.373 417.185L386.372 417.183L386.372 417.183L386.372 417.182L386.372 417.182L386.372 417.181L386.372 417.181L386.371 417.181L386.371 417.18L386.371 417.18L386.371 417.18L386.365 417.155C382.98 404.415 379.608 391.722 376.894 380.504L376.791 380.077L376.581 379.691L348.006 327.178L362.102 307.981ZM416.461 358.932L426.051 342.815L435.464 448H418.508C414.593 435.216 410.419 421.418 406.245 407.617L406.244 407.616L406.244 407.616L406.243 407.611C401.361 391.473 396.478 375.331 392.009 360.812L391.92 360.521L391.694 360.315L360.99 332.33L365.777 319.22L414.796 359.226L415.799 360.044L416.461 358.932ZM597.441 312.649L586.085 316.644L592.585 333.45L602.346 331.424L597.441 312.649ZM545.39 276.195L520.313 227.903L519.961 227.225L519.2 227.308L510.099 228.308L508.22 207.888L567.942 199.736L586.452 270.588L545.39 276.195ZM546.319 282.828L515.503 287.036L516.823 301.371L553.326 296.322L546.319 282.828ZM477.815 177.3L472.281 116.106L449.936 119.267L454.229 179.621L477.815 177.3ZM379.891 418.875C382.539 428.84 385.178 438.776 387.501 448H347.588L327.625 418.168L344.345 398.696L344.907 398.041L344.414 397.332L321.11 363.806L343.626 333.142L370.487 382.507C373.203 393.698 376.55 406.297 379.885 418.851L379.891 418.875ZM319.713 365.709L305.485 385.084L326.336 416.242L342.088 397.897L319.713 365.709ZM245.222 448H344.901L304.08 386.999L261.913 444.423L256.514 440.459L300.117 381.078L297.625 377.352L245.222 448ZM340.089 326.642L301.523 379.163L299.037 375.448L338.036 322.87L340.089 326.642ZM330.719 321.492L295.081 369.538L278.402 344.613L301.907 326.767L330.719 321.492ZM196.906 398.081L272.889 340.389L263.999 327.105L200.649 367.639L199.445 365.759L262.757 325.249L239.524 290.53L194.829 305.911L194.102 303.799L238.24 288.611L197.445 227.649L199.3 226.407L240.423 287.859L262.457 280.277L319.144 210.897L288.517 154.86L272.641 164.742L271.73 165.309L271.128 164.421L243.777 124.118L243.46 123.65L243.649 123.118L249.184 107.498L236.328 99.8649L190 213.131V448H236.883L293.669 371.442L276.621 345.966L200.956 403.416L196.906 398.081ZM290.415 153.678L320.668 209.031L355.519 166.377L307.945 140.277L306.562 143.4L306.423 143.714L306.132 143.895L290.415 153.678ZM320.3 213.012L309.544 226.175L316.697 237.892L325.034 221.674L320.3 213.012ZM263.985 281.935L308.047 228.008L315.501 240.218L298.967 272.38L298.844 272.62V272.89V302.159L264.638 324.045L241.708 289.778L263.484 282.285L263.784 282.181L263.985 281.935ZM337.153 275.684L301.671 272.003L316.864 242.45L337.153 275.684ZM349.588 296.053L338.616 278.081L301.076 274.186V302.77V303.381L300.562 303.71L265.88 325.901L274.671 339.037L298.493 320.949L299.129 320.466L299.915 320.322L336.563 313.613L349.588 296.053ZM351.022 294.119L318.06 240.124L326.753 223.215L342.708 234.275L342.453 234.371L359.871 280.45L355.754 287.739L351.022 294.119ZM361.301 277.918L373.784 255.817L345.548 236.243L361.301 277.918ZM374.887 253.864L327.047 220.702L321.824 211.146L357.51 167.469L400.053 190.808L380.636 243.685L374.887 253.864ZM359.83 161.102L310.667 134.131L329.875 90.754L389.281 125.056L359.83 161.102ZM308.702 133.053L327.931 89.6312L292.704 69.2902L275.205 114.676L308.702 133.053ZM304.66 142.181L305.981 139.199L272.773 120.982L272.61 121.406L251.141 108.66L245.942 123.331L272.372 162.279L304.66 142.181ZM361.82 162.194L402.388 184.449L418.089 141.691L391.239 126.188L361.82 162.194ZM445.387 86.7818L452.006 179.84L409.687 184.004L445.387 86.7818Z" fill="#EFEFEF"/>
</g>
<path d="M310.596 113.582H554.204C558.52 113.582 562.018 117.08 562.018 121.396V463.218H302.782V121.396C302.782 117.08 306.281 113.582 310.596 113.582Z" stroke="white" stroke-width="11.1635"/>
<rect x="444.618" y="130.701" width="4.46539" height="37.9558" rx="2.23269" transform="rotate(90 444.618 130.701)" fill="#8F8F8F"/>
<rect x="456.898" y="130.701" width="4.46539" height="4.46539" rx="2.23269" transform="rotate(90 456.898 130.701)" fill="#8F8F8F"/>
<path fill-rule="evenodd" clip-rule="evenodd" d="M373.694 275.873C375.73 277.818 377.359 280.135 378.489 282.695C379.66 285.348 380.254 288.166 380.254 291.067C380.254 295.236 379.24 299.375 377.235 303.366C375.633 306.579 373.394 309.716 370.573 312.688C365.753 317.77 360.7 320.877 359.265 321.708C358.851 321.95 358.389 322.068 357.921 322.068C357.448 322.069 356.984 321.945 356.577 321.708C355.142 320.877 350.089 317.77 345.269 312.688C342.448 309.71 340.21 306.579 338.607 303.366C336.614 299.369 335.6 295.224 335.6 291.061C335.6 288.16 336.194 285.342 337.365 282.689C338.496 280.13 340.125 277.813 342.16 275.867C344.213 273.904 346.596 272.359 349.254 271.28C352.003 270.166 354.92 269.6 357.927 269.6C360.934 269.6 363.851 270.166 366.6 271.286C369.242 272.354 371.651 273.911 373.694 275.873ZM367.307 286.756C365.72 283.215 362.118 280.743 357.927 280.743C353.736 280.743 350.134 283.215 348.547 286.756C347.992 287.995 347.684 289.365 347.684 290.806C347.684 296.363 352.27 300.868 357.927 300.868C363.584 300.868 368.17 296.363 368.17 290.806C368.17 289.365 367.862 287.995 367.307 286.756Z" fill="#FAAD14"/>
<path fill-rule="evenodd" clip-rule="evenodd" d="M527.366 177.473C529.403 179.418 531.032 181.735 532.162 184.295C533.332 186.948 533.926 189.766 533.926 192.667C533.926 196.836 532.912 200.975 530.907 204.966C529.305 208.18 527.066 211.316 524.245 214.288C519.426 219.37 514.372 222.477 512.938 223.309C512.524 223.55 512.062 223.668 511.593 223.668C511.121 223.669 510.656 223.545 510.249 223.309C508.815 222.477 503.761 219.37 498.941 214.288C496.121 211.31 493.882 208.18 492.279 204.966C490.287 200.969 489.272 196.824 489.272 192.661C489.272 189.76 489.867 186.942 491.037 184.289C492.168 181.73 493.797 179.413 495.832 177.467C497.885 175.504 500.268 173.959 502.927 172.88C505.676 171.766 508.592 171.2 511.599 171.2C514.606 171.2 517.523 171.766 520.272 172.886C522.915 173.954 525.323 175.511 527.366 177.473ZM520.979 188.355C519.392 184.815 515.79 182.343 511.599 182.343C507.408 182.343 503.805 184.816 502.219 188.357C501.664 189.596 501.356 190.965 501.356 192.406C501.356 197.963 505.942 202.468 511.599 202.468C517.256 202.468 521.842 197.963 521.842 192.406C521.842 190.965 521.534 189.594 520.979 188.355Z" fill="#FAAD14"/>
<path d="M478.145 229.84C476.055 225.102 473.041 220.812 469.273 217.212C465.494 213.58 461.038 210.697 456.149 208.721C451.064 206.648 445.667 205.6 440.105 205.6C434.542 205.6 429.146 206.648 424.06 208.71C419.141 210.708 414.733 213.567 410.936 217.201C407.171 220.803 404.157 225.092 402.064 229.829C399.899 234.74 398.8 239.957 398.8 245.326C398.8 253.031 400.676 260.704 404.363 268.103C407.327 274.052 411.469 279.847 416.687 285.358C425.604 294.766 434.953 300.518 437.606 302.056C438.36 302.494 439.219 302.724 440.094 302.722C440.96 302.722 441.815 302.504 442.581 302.056C445.234 300.518 454.584 294.766 463.5 285.358C468.718 279.858 472.86 274.052 475.824 268.103C479.533 260.715 481.409 253.053 481.409 245.337C481.409 239.968 480.31 234.751 478.145 229.84ZM440.105 226.991C429.312 226.991 420.563 235.591 420.563 246.199C420.563 256.808 429.312 265.408 440.105 265.408C450.897 265.408 459.647 256.808 459.647 246.199C459.647 235.591 450.897 226.991 440.105 226.991ZM448.899 254.843C447.745 255.98 446.374 256.882 444.865 257.496C443.356 258.11 441.738 258.425 440.105 258.423C436.785 258.423 433.665 257.146 431.311 254.843C430.154 253.709 429.237 252.362 428.612 250.879C427.987 249.395 427.666 247.805 427.669 246.199C427.669 242.936 428.968 239.869 431.311 237.556C433.665 235.242 436.785 233.976 440.105 233.976C443.425 233.976 446.545 235.242 448.899 237.556C451.252 239.869 452.54 242.936 452.54 246.199C452.54 249.463 451.252 252.529 448.899 254.843Z" fill="#EA7306"/>
<path d="M439.601 230.078C439.935 229.05 441.39 229.05 441.724 230.078L445.801 242.624C445.95 243.084 446.379 243.395 446.862 243.395H460.054C461.135 243.395 461.585 244.779 460.71 245.415L450.038 253.168C449.647 253.453 449.483 253.956 449.632 254.416L453.709 266.962C454.043 267.99 452.866 268.846 451.991 268.21L441.319 260.456C440.927 260.172 440.398 260.172 440.006 260.456L429.334 268.21C428.46 268.846 427.282 267.99 427.617 266.962L431.693 254.416C431.842 253.956 431.679 253.453 431.287 253.168L420.615 245.415C419.741 244.779 420.19 243.395 421.272 243.395H434.463C434.946 243.395 435.375 243.084 435.525 242.624L439.601 230.078Z" fill="white"/>
<g filter="url(#filter1_d_30215_29343)">
<rect x="325.169" y="367.2" width="214.339" height="58.05" rx="13.3962" fill="white"/>
</g>
<rect x="336.333" y="378.364" width="126.147" height="17.8615" rx="8.93077" fill="#E3E3E3"/>
<rect x="492.621" y="378.364" width="35.7231" height="35.7231" rx="17.8615" fill="#1184EE"/>
<rect x="336.333" y="402.923" width="108.286" height="3.34904" rx="1.67452" fill="#CBCBCB"/>
<rect x="336.333" y="410.738" width="50.2356" height="3.34904" rx="1.67452" fill="#CBCBCB"/>
</g>
<defs>
<filter id="filter0_d_30215_29343" x="255.6" y="77.5635" width="353.6" height="423.2" filterUnits="userSpaceOnUse" color-interpolation-filters="sRGB">
<feFlood flood-opacity="0" result="BackgroundImageFix"/>
<feColorMatrix in="SourceAlpha" type="matrix" values="0 0 0 0 0 0 0 0 0 0 0 0 0 0 0 0 0 0 127 0" result="hardAlpha"/>
<feOffset dy="11.1635"/>
<feGaussianBlur stdDeviation="20.8"/>
<feComposite in2="hardAlpha" operator="out"/>
<feColorMatrix type="matrix" values="0 0 0 0 0.0286806 0 0 0 0 0.269527 0 0 0 0 0.491667 0 0 0 0.8 0"/>
<feBlend mode="normal" in2="BackgroundImageFix" result="effect1_dropShadow_30215_29343"/>
<feBlend mode="normal" in="SourceGraphic" in2="effect1_dropShadow_30215_29343" result="shape"/>
</filter>
<filter id="filter1_d_30215_29343" x="302.843" y="344.873" width="258.992" height="102.704" filterUnits="userSpaceOnUse" color-interpolation-filters="sRGB">
<feFlood flood-opacity="0" result="BackgroundImageFix"/>
<feColorMatrix in="SourceAlpha" type="matrix" values="0 0 0 0 0 0 0 0 0 0 0 0 0 0 0 0 0 0 127 0" result="hardAlpha"/>
<feOffset/>
<feGaussianBlur stdDeviation="11.1635"/>
<feComposite in2="hardAlpha" operator="out"/>
<feColorMatrix type="matrix" values="0 0 0 0 0 0 0 0 0 0 0 0 0 0 0 0 0 0 0.25 0"/>
<feBlend mode="normal" in2="BackgroundImageFix" result="effect1_dropShadow_30215_29343"/>
<feBlend mode="normal" in="SourceGraphic" in2="effect1_dropShadow_30215_29343" result="shape"/>
</filter>
<linearGradient id="paint0_linear_30215_29343" x1="186" y1="284.8" x2="292.4" y2="284.8" gradientUnits="userSpaceOnUse">
<stop stop-color="#1890FF"/>
<stop offset="1" stop-color="#1890FF" stop-opacity="0"/>
</linearGradient>
<clipPath id="clip0_30215_29343">
<rect x="0.399902" width="608" height="448" rx="6.4" fill="white"/>
</clipPath>
</defs>
</svg>
