<svg width="760" height="560" viewBox="0 0 760 560" fill="none" xmlns="http://www.w3.org/2000/svg">
<g clip-path="url(#clip0_4188_24975)">
<rect width="760" height="560" rx="8" fill="#1890FF"/>
<path d="M32 103.259V48.6739H43.2121V70.8448H44.775L53.269 48.6739H64.4131L54.1523 74.349L64.9567 103.259H53.4728L44.775 78.864H43.2121V103.259H32Z" fill="white"/>
<path d="M85.1124 104C81.0806 104 77.8868 103.281 75.5312 101.844C73.1755 100.406 71.4767 98.3618 70.4348 95.7112C69.4382 93.0156 68.9398 89.8034 68.9398 86.0746V65.7232C68.9398 61.9944 69.4382 58.8047 70.4348 56.154C71.4767 53.5034 73.1755 51.4818 75.5312 50.0891C77.8868 48.6964 81.0806 48 85.1124 48C89.1895 48 92.4059 48.7188 94.7616 50.1564C97.1625 51.5491 98.8613 53.5708 99.858 56.2214C100.9 58.8271 101.421 61.9944 101.421 65.7232V86.0746C101.421 89.8034 100.9 93.0156 99.858 95.7112C98.8613 98.3618 97.1625 100.406 94.7616 101.844C92.4059 103.281 89.1895 104 85.1124 104ZM85.1124 95.9807C86.562 95.9807 87.6266 95.6663 88.3061 95.0373C88.9857 94.3634 89.4387 93.4874 89.6652 92.4091C89.8917 91.286 90.0049 90.0955 90.0049 88.8375V63.0277C90.0049 61.7698 89.8917 60.6017 89.6652 59.5235C89.4387 58.4452 88.9857 57.5917 88.3061 56.9627C87.6266 56.2888 86.562 55.9519 85.1124 55.9519C83.7534 55.9519 82.7341 56.2888 82.0546 56.9627C81.375 57.5917 80.922 58.4452 80.6955 59.5235C80.469 60.6017 80.3558 61.7698 80.3558 63.0277V88.8375C80.3558 90.0955 80.4464 91.286 80.6276 92.4091C80.8541 93.4874 81.3071 94.3634 81.9866 95.0373C82.6661 95.6663 83.7081 95.9807 85.1124 95.9807Z" fill="white"/>
<path d="M109.043 103.259V48.6739H120.255V71.1143H129.972V48.6739H141.184V103.259H129.972V79.0662H120.255V103.259H109.043Z" fill="white"/>
<path d="M154.816 103.259V56.9627H146.322V48.6739H174.454V56.9627H166.096V103.259H154.816Z" fill="white"/>
<path d="M179.447 103.259V48.6739H196.911C200.218 48.6739 202.913 49.3028 204.997 50.5608C207.081 51.7738 208.621 53.5483 209.618 55.8845C210.66 58.2206 211.181 61.0509 211.181 64.3755C211.181 68.284 210.501 71.339 209.142 73.5403C207.828 75.7417 206.016 77.3141 203.706 78.2575C201.396 79.156 198.746 79.6053 195.756 79.6053H190.659V103.259H179.447ZM190.659 71.7882H194.6C196.231 71.7882 197.477 71.5411 198.338 71.0469C199.244 70.5078 199.855 69.6767 200.173 68.5535C200.49 67.4304 200.648 65.9928 200.648 64.2407C200.648 62.5784 200.512 61.1857 200.241 60.0626C200.014 58.9394 199.47 58.0634 198.61 57.4344C197.749 56.8055 196.39 56.491 194.533 56.491H190.659V71.7882Z" fill="white"/>
<path d="M232.297 104C228.266 104 225.072 103.281 222.716 101.844C220.36 100.406 218.662 98.3618 217.62 95.7112C216.623 93.0156 216.125 89.8034 216.125 86.0746V65.7232C216.125 61.9944 216.623 58.8047 217.62 56.154C218.662 53.5034 220.36 51.4818 222.716 50.0891C225.072 48.6964 228.266 48 232.297 48C236.374 48 239.591 48.7188 241.947 50.1564C244.347 51.5491 246.046 53.5708 247.043 56.2214C248.085 58.8271 248.606 61.9944 248.606 65.7232V86.0746C248.606 89.8034 248.085 93.0156 247.043 95.7112C246.046 98.3618 244.347 100.406 241.947 101.844C239.591 103.281 236.374 104 232.297 104ZM232.297 95.9807C233.747 95.9807 234.812 95.6663 235.491 95.0373C236.171 94.3634 236.624 93.4874 236.85 92.4091C237.077 91.286 237.19 90.0955 237.19 88.8375V63.0277C237.19 61.7698 237.077 60.6017 236.85 59.5235C236.624 58.4452 236.171 57.5917 235.491 56.9627C234.812 56.2888 233.747 55.9519 232.297 55.9519C230.938 55.9519 229.919 56.2888 229.24 56.9627C228.56 57.5917 228.107 58.4452 227.88 59.5235C227.654 60.6017 227.541 61.7698 227.541 63.0277V88.8375C227.541 90.0955 227.631 91.286 227.813 92.4091C228.039 93.4874 228.492 94.3634 229.172 95.0373C229.851 95.6663 230.893 95.9807 232.297 95.9807Z" fill="white"/>
<path d="M252.355 103.259V95.3742C253.759 95.3742 254.914 95.2844 255.82 95.1047C256.772 94.8801 257.519 94.4083 258.063 93.6895C258.652 92.9258 259.127 91.7802 259.49 90.2527C259.852 88.6803 260.147 86.5913 260.373 83.9856C260.645 81.3799 260.917 78.0778 261.189 74.0794L263.023 48.6739H291.087V103.259H279.943V57.1649H273.08L271.925 75.8315C271.653 80.1444 271.336 83.8957 270.974 87.0854C270.657 90.2302 270.136 92.8809 269.411 95.0373C268.731 97.1937 267.712 98.9234 266.353 100.226C265.039 101.484 263.25 102.36 260.985 102.854C258.72 103.304 255.843 103.438 252.355 103.259Z" fill="white"/>
<path d="M299.693 103.259V48.6739H310.906V71.6534H313.488C317.066 71.6534 320.079 72.1925 322.525 73.2708C324.972 74.349 326.829 76.0562 328.097 78.3923C329.366 80.6835 330 83.6935 330 87.4224C330 90.657 329.57 93.3077 328.709 95.3742C327.893 97.3959 326.693 98.9908 325.107 100.159C323.567 101.327 321.733 102.136 319.603 102.585C317.52 103.034 315.209 103.259 312.672 103.259H299.693ZM310.906 95.9134H312.74C314.416 95.9134 315.753 95.6213 316.749 95.0373C317.791 94.4533 318.539 93.5323 318.992 92.2744C319.445 90.9715 319.649 89.2868 319.603 87.2202C319.558 84.8391 319.06 82.9523 318.108 81.5596C317.202 80.1219 315.368 79.4031 312.604 79.4031H310.906V95.9134Z" fill="white"/>
<path fill-rule="evenodd" clip-rule="evenodd" d="M730.17 170.083L761.567 153.872L765.97 336.94L735.853 340.979L712.74 254.078L756.171 248.255L755.8 245.489L712.017 251.359L693.952 183.44L730.17 170.083ZM696.622 225.824L703.71 252.473L629.517 262.421L626.721 232.58L696.622 225.824ZM623.943 232.848L626.748 262.793L598.162 266.626L595.307 235.616L623.943 232.848ZM625.94 224.244L694.441 217.623L676.164 148.904L619.857 159.312L625.94 224.244ZM619.596 156.523L675.445 146.199L665.268 107.936L615.939 117.492L619.596 156.523ZM613.186 118.025L623.162 224.512L594.539 227.279L586.506 140.02L595.51 137.661V121.45L613.186 118.025ZM627.009 265.573L597.091 269.585L595.65 269.778L595.516 268.33L592.529 235.884L562.885 238.75L565.505 274.927L565.604 276.3L564.232 276.418L516.172 280.542L518.174 302.521L629.347 290.525L627.009 265.573ZM490.123 279.976L513.138 278.001L511.79 263.209L514.569 262.956L515.919 277.763L562.622 273.755L560.107 239.018L503.385 244.5L490.123 279.976ZM515.399 302.82L513.391 280.781L489.041 282.87L480.162 306.622L515.399 302.82ZM479.069 309.547L515.652 305.6L518.404 335.802L460.587 342.776L477.737 312.949L477.908 312.651L478.029 312.328L479.069 309.547ZM458.85 345.796L518.657 338.582L521.495 369.729L444.247 380.089L442.504 380.323L441.451 381.732L425.084 403.626L422.569 399.088L446.051 367.991L446.209 367.782L446.34 367.555L458.85 345.796ZM568.565 332.562L521.429 338.248L524.264 369.357L571.41 363.034L568.565 332.562ZM568.305 329.782L521.176 335.467L518.427 305.301L565.544 300.217L568.305 329.782ZM571.336 332.228L574.179 362.663L603.55 358.723L600.683 328.688L571.336 332.228ZM574.958 371.006L604.346 367.064L606.022 384.625L576.603 388.623L574.958 371.006ZM607.114 366.693L608.79 384.249L637.758 380.313L636.118 362.803L607.114 366.693ZM576.863 391.404L606.288 387.406L608.893 414.699L579.405 418.625L576.863 391.404ZM609.055 387.03L611.661 414.331L640.584 410.48L638.019 383.094L609.055 387.03ZM579.664 421.406L609.158 417.48L622.761 560H592.607L579.664 421.406ZM611.926 417.111L625.565 560H703.581L689.802 406.743L643.613 412.892L656.903 554.751L654.125 555.011L640.845 413.261L611.926 417.111ZM692.571 406.374L706.384 560H771.335L766.173 345.36L738.022 349.136L748.466 388.403L756.925 385.48L757.836 388.117L749.185 391.107L755.587 415.176L759.195 414.44L759.752 417.175L756.305 417.878L764.463 448.548L756.683 451.642L748.145 419.541L734.635 422.294L733.487 422.528L733.058 421.438L723.987 398.401L723.454 397.047L724.83 396.571L740.587 391.126L729.716 350.25L680.377 356.867L689.54 374.201L690.474 375.967L688.495 376.236L640.787 382.718L643.353 410.112L700.681 402.479L701.94 402.312L702.225 403.549L736.414 552.008L733.694 552.634L699.791 405.413L692.571 406.374ZM603.455 328.354L606.318 358.352L635.336 354.46L632.562 324.843L603.455 328.354ZM632.301 322.063L603.189 325.575L600.41 296.455L629.607 293.304L632.301 322.063ZM568.319 299.917L597.635 296.754L600.418 325.909L571.077 329.448L568.319 299.917ZM572.189 371.377L525.024 377.703L526.637 395.412L573.835 388.999L572.189 371.377ZM574.095 391.78L526.891 398.194L529.359 425.288L576.636 418.994L574.095 391.78ZM576.896 421.775L529.613 428.07L541.633 560H589.804L576.896 421.775ZM638.105 354.089L635.333 324.508L658.628 321.699L673.259 349.374L638.105 354.089ZM635.073 321.729L657.231 319.056L642.862 291.874L632.382 293.005L635.073 321.729ZM447.103 388.154L522.255 378.074L526.638 426.177L513.509 447.852L451.956 398.508L450.448 397.299L449.775 399.11L442.798 417.881L442.466 418.772L443.175 419.407L481.961 454.132L510.453 545.059L513.116 544.225L484.51 452.931L484.395 452.565L484.109 452.309L445.745 417.962L451.718 401.894L513.005 451.025L514.246 452.02L515.071 450.659L527.064 430.859L538.83 560H301.062L366.518 473.316L369.602 477.845L315.164 550.668L321.87 555.681L374.585 485.162L418.532 549.694L420.839 548.123L404.01 523.411L424.923 499.487L425.646 498.66L425.011 497.763L395.908 456.638L424.035 419.012L457.617 479.633L474.927 549.909L483.056 547.907L465.614 477.09L465.48 476.55L465.211 476.063L429.533 411.658L447.103 388.154ZM741.307 393.83L727.117 398.734L735.225 419.326L747.426 416.839L741.307 393.83ZM394.152 458.988L376.352 482.798L402.387 521.027L422.098 498.478L394.152 458.988ZM676.207 348.979L644.887 289.733L644.444 288.896L643.503 288.998L632.122 290.226L629.777 265.202L704.433 255.192L727.546 342.093L676.207 348.979ZM677.429 357.262L638.886 362.432L640.526 379.937L686.139 373.739L677.429 357.262ZM591.762 227.547L584.851 152.483L556.92 156.364L562.281 230.396L591.762 227.547ZM290.57 560L361.543 466.011L340.273 434.778L245.666 505.337L240.661 498.626L335.556 427.852L324.482 411.59L245.301 461.356L243.816 458.993L322.91 409.282L293.895 366.676L238.029 385.561L237.135 382.917L292.264 364.282L241.312 289.464L243.619 287.893L295.009 363.354L322.58 354.034L393.421 268.868L355.15 200.086L335.292 212.227L334.166 212.916L333.416 211.83L299.228 162.344L298.82 161.753L299.064 161.077L305.978 141.912L289.91 132.541L232 271.615V560H290.57ZM357.533 198.629L395.334 266.567L438.853 214.248L379.412 182.216L377.699 186.014L377.523 186.406L377.155 186.631L357.533 198.629ZM394.876 271.483L381.44 287.635L390.372 302.006L400.787 282.106L394.876 271.483ZM324.474 356.122L379.56 289.896L388.87 304.876L368.214 344.344L368.055 344.648V344.991V380.908L325.274 407.796L296.64 365.749L323.848 356.551L324.221 356.425L324.474 356.122ZM415.916 348.395L371.607 343.879L390.58 307.628L415.916 348.395ZM431.465 373.413L417.777 351.39L370.846 346.607V381.679V382.45L370.193 382.86L326.846 410.104L337.795 426.181L367.645 403.919L368.436 403.329L369.407 403.155L415.229 394.914L431.465 373.413ZM433.267 371.026L392.082 304.757L402.938 284.015L422.879 297.593L422.57 297.712L444.329 354.255L439.212 363.154L433.267 371.026ZM446.12 351.139L461.707 324.031L426.45 300.024L446.12 351.139ZM463.102 321.605L403.302 280.886L396.789 269.182L441.359 215.599L494.538 244.256L470.307 309.074L463.102 321.605ZM444.315 207.681L382.861 174.564L406.848 121.357L481.092 163.468L444.315 207.681ZM380.398 173.237L404.41 119.974L360.38 95L338.527 150.673L380.398 173.237ZM375.332 184.474L376.949 180.889L335.446 158.523L335.262 158.991L308.429 143.342L301.933 161.348L334.962 209.158L375.332 184.474ZM371.369 475.481L368.294 470.965L417.048 406.399L419.586 410.98L371.369 475.481ZM342.513 433.108L363.318 463.659L407.796 404.758L371.86 411.221L342.513 433.108ZM446.822 209.032L497.497 236.34L517.103 183.893L483.558 164.867L446.822 209.032ZM551.236 116.499L559.502 230.665L506.647 235.773L551.236 116.499Z" fill="#40A3FF"/>
<path fill-rule="evenodd" clip-rule="evenodd" d="M730.17 170.083L761.567 153.872L765.97 336.94L735.853 340.979L712.74 254.078L756.171 248.255L755.8 245.489L712.017 251.359L693.952 183.44L730.17 170.083ZM696.622 225.824L703.71 252.473L629.517 262.421L626.721 232.58L696.622 225.824ZM623.943 232.848L626.748 262.793L598.162 266.626L595.307 235.616L623.943 232.848ZM625.94 224.244L694.441 217.623L676.164 148.904L619.857 159.312L625.94 224.244ZM619.596 156.523L675.445 146.199L665.268 107.936L615.939 117.492L619.596 156.523ZM613.186 118.025L623.162 224.512L594.539 227.279L586.506 140.02L595.51 137.661V121.45L613.186 118.025ZM627.009 265.573L597.091 269.585L595.65 269.778L595.516 268.33L592.529 235.884L562.885 238.75L565.505 274.927L565.604 276.3L564.232 276.418L516.172 280.542L518.174 302.521L629.347 290.525L627.009 265.573ZM490.123 279.976L513.138 278.001L511.79 263.209L514.569 262.956L515.919 277.763L562.622 273.755L560.107 239.018L503.385 244.5L490.123 279.976ZM515.399 302.82L513.391 280.781L489.041 282.87L480.162 306.622L515.399 302.82ZM479.069 309.547L515.652 305.6L518.404 335.802L460.587 342.776L477.737 312.949L477.908 312.651L478.029 312.328L479.069 309.547ZM458.85 345.796L518.657 338.582L521.495 369.729L444.247 380.089L442.504 380.323L441.451 381.732L425.084 403.626L422.569 399.088L446.051 367.991L446.209 367.782L446.34 367.555L458.85 345.796ZM568.565 332.562L521.429 338.248L524.264 369.357L571.41 363.034L568.565 332.562ZM568.305 329.782L521.176 335.467L518.427 305.301L565.544 300.217L568.305 329.782ZM571.336 332.228L574.179 362.663L603.55 358.723L600.683 328.688L571.336 332.228ZM574.958 371.006L604.346 367.064L606.022 384.625L576.603 388.623L574.958 371.006ZM607.114 366.693L608.79 384.249L637.758 380.313L636.118 362.803L607.114 366.693ZM576.863 391.404L606.288 387.406L608.893 414.699L579.405 418.625L576.863 391.404ZM609.055 387.03L611.661 414.331L640.584 410.48L638.019 383.094L609.055 387.03ZM579.664 421.406L609.158 417.48L622.761 560H592.607L579.664 421.406ZM611.926 417.111L625.565 560H703.581L689.802 406.743L643.613 412.892L656.903 554.751L654.125 555.011L640.845 413.261L611.926 417.111ZM692.571 406.374L706.384 560H771.335L766.173 345.36L738.022 349.136L748.466 388.403L756.925 385.48L757.836 388.117L749.185 391.107L755.587 415.176L759.195 414.44L759.752 417.175L756.305 417.878L764.463 448.548L756.683 451.642L748.145 419.541L734.635 422.294L733.487 422.528L733.058 421.438L723.987 398.401L723.454 397.047L724.83 396.571L740.587 391.126L729.716 350.25L680.377 356.867L689.54 374.201L690.474 375.967L688.495 376.236L640.787 382.718L643.353 410.112L700.681 402.479L701.94 402.312L702.225 403.549L736.414 552.008L733.694 552.634L699.791 405.413L692.571 406.374ZM603.455 328.354L606.318 358.352L635.336 354.46L632.562 324.843L603.455 328.354ZM632.301 322.063L603.189 325.575L600.41 296.455L629.607 293.304L632.301 322.063ZM568.319 299.917L597.635 296.754L600.418 325.909L571.077 329.448L568.319 299.917ZM572.189 371.377L525.024 377.703L526.637 395.412L573.835 388.999L572.189 371.377ZM574.095 391.78L526.891 398.194L529.359 425.288L576.636 418.994L574.095 391.78ZM576.896 421.775L529.613 428.07L541.633 560H589.804L576.896 421.775ZM638.105 354.089L635.333 324.508L658.628 321.699L673.259 349.374L638.105 354.089ZM635.073 321.729L657.231 319.056L642.862 291.874L632.382 293.005L635.073 321.729ZM447.103 388.154L522.255 378.074L526.638 426.177L513.509 447.852L451.956 398.508L450.448 397.299L449.775 399.11L442.798 417.881L442.466 418.772L443.175 419.407L481.961 454.132L510.453 545.059L513.116 544.225L484.51 452.931L484.395 452.565L484.109 452.309L445.745 417.962L451.718 401.894L513.005 451.025L514.246 452.02L515.071 450.659L527.064 430.859L538.83 560H301.062L366.518 473.316L369.602 477.845L315.164 550.668L321.87 555.681L374.585 485.162L418.532 549.694L420.839 548.123L404.01 523.411L424.923 499.487L425.646 498.66L425.011 497.763L395.908 456.638L424.035 419.012L457.617 479.633L474.927 549.909L483.056 547.907L465.614 477.09L465.48 476.55L465.211 476.063L429.533 411.658L447.103 388.154ZM741.307 393.83L727.117 398.734L735.225 419.326L747.426 416.839L741.307 393.83ZM394.152 458.988L376.352 482.798L402.387 521.027L422.098 498.478L394.152 458.988ZM676.207 348.979L644.887 289.733L644.444 288.896L643.503 288.998L632.122 290.226L629.777 265.202L704.433 255.192L727.546 342.093L676.207 348.979ZM677.429 357.262L638.886 362.432L640.526 379.937L686.139 373.739L677.429 357.262ZM591.762 227.547L584.851 152.483L556.92 156.364L562.281 230.396L591.762 227.547ZM290.57 560L361.543 466.011L340.273 434.778L245.666 505.337L240.661 498.626L335.556 427.852L324.482 411.59L245.301 461.356L243.816 458.993L322.91 409.282L293.895 366.676L238.029 385.561L237.135 382.917L292.264 364.282L241.312 289.464L243.619 287.893L295.009 363.354L322.58 354.034L393.421 268.868L355.15 200.086L335.292 212.227L334.166 212.916L333.416 211.83L299.228 162.344L298.82 161.753L299.064 161.077L305.978 141.912L289.91 132.541L232 271.615V560H290.57ZM357.533 198.629L395.334 266.567L438.853 214.248L379.412 182.216L377.699 186.014L377.523 186.406L377.155 186.631L357.533 198.629ZM394.876 271.483L381.44 287.635L390.372 302.006L400.787 282.106L394.876 271.483ZM324.474 356.122L379.56 289.896L388.87 304.876L368.214 344.344L368.055 344.648V344.991V380.908L325.274 407.796L296.64 365.749L323.848 356.551L324.221 356.425L324.474 356.122ZM415.916 348.395L371.607 343.879L390.58 307.628L415.916 348.395ZM431.465 373.413L417.777 351.39L370.846 346.607V381.679V382.45L370.193 382.86L326.846 410.104L337.795 426.181L367.645 403.919L368.436 403.329L369.407 403.155L415.229 394.914L431.465 373.413ZM433.267 371.026L392.082 304.757L402.938 284.015L422.879 297.593L422.57 297.712L444.329 354.255L439.212 363.154L433.267 371.026ZM446.12 351.139L461.707 324.031L426.45 300.024L446.12 351.139ZM463.102 321.605L403.302 280.886L396.789 269.182L441.359 215.599L494.538 244.256L470.307 309.074L463.102 321.605ZM444.315 207.681L382.861 174.564L406.848 121.357L481.092 163.468L444.315 207.681ZM380.398 173.237L404.41 119.974L360.38 95L338.527 150.673L380.398 173.237ZM375.332 184.474L376.949 180.889L335.446 158.523L335.262 158.991L308.429 143.342L301.933 161.348L334.962 209.158L375.332 184.474ZM371.369 475.481L368.294 470.965L417.048 406.399L419.586 410.98L371.369 475.481ZM342.513 433.108L363.318 463.659L407.796 404.758L371.86 411.221L342.513 433.108ZM446.822 209.032L497.497 236.34L517.103 183.893L483.558 164.867L446.822 209.032ZM551.236 116.499L559.502 230.665L506.647 235.773L551.236 116.499Z" fill="url(#paint0_linear_4188_24975)"/>
<g filter="url(#filter0_d_4188_24975)">
<path d="M371 151.745C371 142.497 378.497 135 387.745 135H692.255C701.503 135 709 142.497 709 151.745V560H371V151.745Z" fill="white"/>
</g>
<path fill-rule="evenodd" clip-rule="evenodd" d="M333.015 269.689C334.542 271.138 335.764 272.863 336.612 274.769C337.489 276.745 337.935 278.844 337.935 281.004C337.935 284.108 337.174 287.19 335.671 290.163C334.469 292.556 332.79 294.892 330.674 297.104C327.06 300.889 323.27 303.203 322.194 303.822C321.883 304.002 321.537 304.09 321.185 304.09C320.831 304.091 320.482 303.998 320.177 303.822C319.101 303.203 315.311 300.889 311.696 297.104C309.581 294.887 307.902 292.556 306.7 290.163C305.205 287.186 304.445 284.099 304.445 281C304.445 278.839 304.89 276.741 305.768 274.765C306.617 272.86 307.838 271.134 309.365 269.685C310.904 268.223 312.691 267.073 314.685 266.269C316.747 265.439 318.935 265.018 321.19 265.018C323.445 265.018 325.633 265.439 327.694 266.274C329.676 267.068 331.483 268.228 333.015 269.689ZM328.224 277.793C327.034 275.157 324.333 273.316 321.19 273.316C318.047 273.316 315.346 275.157 314.156 277.793C313.739 278.716 313.508 279.736 313.508 280.809C313.508 284.948 316.947 288.303 321.19 288.303C325.433 288.303 328.872 284.948 328.872 280.809C328.872 279.736 328.641 278.716 328.224 277.793Z" fill="#8CD6FF"/>
<path fill-rule="evenodd" clip-rule="evenodd" d="M768.041 419.226C769.568 420.674 770.79 422.4 771.637 424.306C772.515 426.282 772.961 428.38 772.961 430.54C772.961 433.645 772.2 436.727 770.696 439.699C769.495 442.092 767.816 444.428 765.7 446.641C762.085 450.426 758.295 452.739 757.219 453.358C756.909 453.539 756.562 453.626 756.211 453.626C755.856 453.627 755.508 453.534 755.203 453.358C754.127 452.739 750.337 450.426 746.722 446.641C744.606 444.424 742.927 442.092 741.725 439.699C740.231 436.722 739.47 433.636 739.47 430.536C739.47 428.376 739.916 426.277 740.794 424.301C741.642 422.396 742.864 420.67 744.39 419.221C745.93 417.759 747.717 416.609 749.711 415.806C751.773 414.976 753.96 414.554 756.215 414.554C758.471 414.554 760.658 414.976 762.72 415.81C764.702 416.605 766.508 417.765 768.041 419.226ZM763.25 427.329C762.06 424.693 759.358 422.852 756.215 422.852C753.073 422.852 750.371 424.693 749.181 427.33C748.764 428.253 748.533 429.273 748.533 430.346C748.533 434.484 751.973 437.839 756.215 437.839C760.458 437.839 763.898 434.484 763.898 430.346C763.898 429.272 763.666 428.252 763.25 427.329Z" fill="#8CD6FF"/>
<path fill-rule="evenodd" clip-rule="evenodd" d="M751.295 246.192C752.823 247.64 754.045 249.366 754.892 251.272C755.77 253.248 756.215 255.347 756.215 257.507C756.215 260.611 755.455 263.693 753.951 266.666C752.749 269.059 751.07 271.394 748.955 273.607C745.34 277.392 741.55 279.706 740.474 280.325C740.163 280.505 739.817 280.593 739.466 280.593C739.111 280.593 738.763 280.501 738.457 280.325C737.382 279.706 733.591 277.392 729.977 273.607C727.861 271.39 726.182 269.059 724.98 266.666C723.486 263.689 722.725 260.602 722.725 257.502C722.725 255.342 723.171 253.244 724.048 251.268C724.897 249.362 726.119 247.637 727.645 246.188C729.184 244.726 730.972 243.575 732.966 242.772C735.027 241.942 737.215 241.521 739.47 241.521C741.725 241.521 743.913 241.942 745.975 242.776C747.957 243.571 749.763 244.731 751.295 246.192ZM746.505 254.296C745.315 251.659 742.613 249.819 739.47 249.819C736.328 249.819 733.626 251.659 732.436 254.295C732.019 255.218 731.788 256.239 731.788 257.312C731.788 261.451 735.227 264.806 739.47 264.806C743.713 264.806 747.153 261.451 747.153 257.312C747.153 256.239 746.921 255.219 746.505 254.296Z" fill="#8CD6FF"/>
<mask id="mask0_4188_24975" style="mask-type:alpha" maskUnits="userSpaceOnUse" x="371" y="135" width="338" height="425">
<path d="M371.076 152.212C371.076 142.964 378.573 135.467 387.821 135.467H692.025C701.274 135.467 708.771 142.964 708.771 152.212V560H371.076V152.212Z" fill="white"/>
</mask>
<g mask="url(#mask0_4188_24975)">
<path fill-rule="evenodd" clip-rule="evenodd" d="M735.17 163.05L766.567 146.546L770.972 332.991L740.851 337.104L717.713 248.539L761.174 242.607L760.796 239.841L717.002 245.819L698.933 176.655L735.17 163.05ZM701.603 219.723L708.716 246.951L634.519 257.079L631.714 226.6L701.603 219.723ZM628.936 226.873L631.751 257.457L603.164 261.359L600.3 229.691L628.936 226.873ZM630.947 218.262L699.46 211.521L681.158 141.466L624.855 152.061L630.947 218.262ZM624.598 149.27L680.451 138.759L670.268 99.7822L620.939 109.511L624.598 149.27ZM618.186 110.054L628.169 218.535L599.546 221.352L591.506 132.445L600.51 130.043V113.539L618.186 110.054ZM632.007 260.238L602.094 264.322L600.648 264.519L600.516 263.065L597.523 229.964L567.88 232.881L570.505 269.789L570.602 271.158L569.234 271.278L521.169 275.477L523.176 297.902L634.349 285.69L632.007 260.238ZM495.104 274.953L518.14 272.94L516.79 257.852L519.57 257.603L520.921 272.697L567.624 268.617L565.102 233.154L508.404 238.733L495.104 274.953ZM520.401 298.207L518.389 275.72L494.041 277.847L485.142 302.08L520.401 298.207ZM484.068 305.005L520.65 300.987L523.406 331.783L465.549 338.887L482.753 308.428L482.92 308.131L483.037 307.812L484.068 305.005ZM463.843 341.909L523.655 334.564L526.502 366.371L449.237 376.921L447.479 377.161L446.429 378.591L430.086 400.847L427.544 396.175L451.073 364.453L451.228 364.245L451.356 364.018L463.843 341.909ZM573.563 328.435L526.427 334.224L529.27 365.993L576.417 359.556L573.563 328.435ZM573.308 325.655L526.178 331.442L523.425 300.682L570.542 295.506L573.308 325.655ZM576.334 328.095L579.185 359.178L608.557 355.167L605.681 324.491L576.334 328.095ZM579.951 367.523L609.339 363.511L611.025 381.487L581.605 385.556L579.951 367.523ZM612.107 363.133L613.792 381.104L642.761 377.097L641.111 359.173L612.107 363.133ZM581.86 388.339L611.285 384.268L613.895 412.104L584.407 416.1L581.86 388.339ZM614.053 383.885L616.663 411.728L645.587 407.808L643.017 379.879L614.053 383.885ZM584.662 418.882L614.156 414.885L627.762 560H597.607L584.662 418.882ZM616.924 414.509L630.565 560H708.582L694.8 403.954L648.611 410.215L661.904 554.661L659.124 554.917L645.843 410.59L616.924 414.509ZM697.569 403.579L711.383 560H776.335L771.171 341.414L742.983 345.263L753.452 385.337L761.917 382.358L762.844 384.991L754.16 388.046L760.573 412.591L764.19 411.841L764.757 414.573L761.279 415.295L769.443 446.546L761.683 449.688L753.139 416.984L739.639 419.785L738.481 420.025L738.054 418.922L728.984 395.47L728.465 394.128L729.823 393.65L745.593 388.102L734.697 346.394L685.335 353.134L694.545 370.871L695.456 372.625L693.498 372.896L645.784 379.496L648.355 407.433L705.678 399.664L706.945 399.492L707.227 400.739L741.415 551.875L738.693 552.491L704.786 402.601L697.569 403.579ZM608.452 324.151L611.325 354.789L640.343 350.827L637.559 320.577L608.452 324.151ZM637.304 317.796L608.192 321.371L605.408 291.677L634.605 288.469L637.304 317.796ZM573.317 295.202L602.633 291.981L605.42 321.712L576.079 325.315L573.317 295.202ZM577.183 367.901L530.017 374.341L531.639 392.468L578.837 385.939L577.183 367.901ZM579.093 388.721L531.888 395.251L534.361 422.883L581.639 416.475L579.093 388.721ZM581.894 419.257L534.61 425.666L546.633 560H594.804L581.894 419.257ZM643.111 350.449L640.331 320.236L663.622 317.376L678.301 345.644L643.111 350.449ZM640.075 317.456L662.249 314.733L647.855 287.014L637.379 288.165L640.075 317.456ZM452.128 384.976L527.249 374.719L531.639 423.774L531.633 423.785L518.506 445.847L456.965 395.622L455.445 394.382L454.772 396.225L447.795 415.334L447.474 416.213L448.166 416.844L486.956 452.2C492.51 470.247 498.57 490.282 504.632 510.322L504.634 510.329L504.635 510.33L504.637 510.339C509.765 527.292 514.894 544.248 519.717 560H492.509C489.466 547.832 485.959 534.632 482.464 521.473L482.456 521.444C478.225 505.519 474.01 489.653 470.618 475.63L470.488 475.096L470.226 474.614L434.507 408.972L452.128 384.976ZM520.077 448.664L532.064 428.519L543.83 560H522.635C517.742 544.023 512.526 526.778 507.308 509.529L507.308 509.529L507.308 509.528L507.307 509.527L507.305 509.521L507.305 509.52L507.303 509.511C501.201 489.339 495.098 469.164 489.512 451.015L489.4 450.651L489.118 450.394L450.738 415.412L456.721 399.025L517.995 449.032L519.249 450.055L520.077 448.664ZM746.301 390.811L732.106 395.805L740.231 416.812L752.432 414.28L746.301 390.811ZM681.237 345.243L649.891 284.879L649.451 284.031L648.5 284.135L637.124 285.385L634.775 259.861L709.427 249.67L732.565 338.235L681.237 345.243ZM682.398 353.535L643.879 358.795L645.528 376.714L691.157 370.403L682.398 353.535ZM596.768 221.625L589.851 145.133L561.92 149.084L567.286 224.526L596.768 221.625ZM474.364 523.594C477.673 536.05 480.973 548.47 483.876 560H433.985L409.031 522.711L429.931 498.37L430.634 497.551L430.018 496.665L400.887 454.758L429.033 416.428L462.609 478.133C466.003 492.123 470.187 507.872 474.356 523.563L474.364 523.594ZM399.141 457.136L381.357 481.356L407.42 520.303L427.11 497.371L399.141 457.136ZM306.028 560H430.627L379.6 483.748L326.891 555.529L320.143 550.574L374.647 476.347L371.531 471.691L306.028 560ZM424.611 408.303L376.404 473.955L373.296 469.311L422.045 403.588L424.611 408.303ZM412.899 401.865L368.352 461.922L347.503 430.767L376.884 408.459L412.899 401.865ZM245.632 497.601L340.612 425.487L329.499 408.881L250.311 459.549L248.807 457.199L327.947 406.561L298.905 363.162L243.036 382.388L242.128 379.749L297.3 360.763L246.306 284.561L248.626 283.009L300.029 359.824L327.571 350.346L398.43 263.622L360.146 193.575L340.302 205.927L339.163 206.636L338.41 205.526L304.222 155.147L303.825 154.563L304.061 153.898L310.98 134.372L294.91 124.831L237 266.413V560H295.604L366.587 464.302L345.276 432.457L250.695 504.27L245.632 497.601ZM362.519 192.098L400.336 261.289L443.899 207.971L384.432 175.347L382.703 179.25L382.529 179.642L382.165 179.869L362.519 192.098ZM399.875 266.265L386.43 282.719L395.371 297.365L405.793 277.093L399.875 266.265ZM329.481 352.419L384.559 285.01L393.877 300.273L373.209 340.475L373.055 340.775V341.113V377.699L330.298 405.057L301.634 362.223L328.855 352.856L329.23 352.727L329.481 352.419ZM420.941 344.606L376.589 340.004L395.58 303.063L420.941 344.606ZM436.485 370.067L422.77 347.601L375.846 342.733V378.463V379.227L375.202 379.638L331.851 407.377L342.838 423.796L372.616 401.186L373.412 400.583L374.394 400.403L420.204 392.016L436.485 370.067ZM438.278 367.649L397.075 300.156L407.941 279.018L427.886 292.844L427.567 292.964L449.339 350.563L444.193 359.674L438.278 367.649ZM451.127 347.398L466.73 319.771L431.435 295.304L451.127 347.398ZM468.109 317.33L408.309 275.878L401.78 263.932L446.388 209.336L499.566 238.511L475.295 304.607L468.109 317.33ZM449.287 201.377L387.834 167.663L411.844 113.443L486.101 156.321L449.287 201.377ZM385.378 166.316L409.413 112.039L365.38 86.6128L343.506 143.345L385.378 166.316ZM380.325 177.727L381.976 174L340.467 151.227L340.262 151.758L313.427 135.825L306.927 154.164L339.966 202.849L380.325 177.727ZM451.776 202.742L502.485 230.562L522.111 177.114L488.549 157.735L451.776 202.742ZM556.234 108.478L564.507 224.8L511.609 230.005L556.234 108.478Z" fill="#EFEFEF"/>
</g>
<path d="M377.977 151.745C377.977 146.35 382.35 141.977 387.745 141.977H692.255C697.65 141.977 702.023 146.35 702.023 151.745V579.023H377.977V151.745Z" stroke="white" stroke-width="13.9543"/>
<rect x="555.273" y="163.376" width="5.58174" height="47.4447" rx="2.79087" transform="rotate(90 555.273 163.376)" fill="#8F8F8F"/>
<rect x="570.623" y="163.376" width="5.58173" height="5.58173" rx="2.79087" transform="rotate(90 570.623 163.376)" fill="#8F8F8F"/>
<path fill-rule="evenodd" clip-rule="evenodd" d="M466.617 344.842C469.163 347.272 471.199 350.169 472.612 353.369C474.075 356.685 474.817 360.208 474.817 363.834C474.817 369.045 473.549 374.218 471.044 379.208C469.041 383.224 466.242 387.145 462.716 390.86C456.692 397.213 450.375 401.097 448.582 402.136C448.064 402.438 447.486 402.585 446.901 402.585C446.31 402.586 445.73 402.431 445.221 402.136C443.428 401.097 437.111 397.213 431.086 390.86C427.56 387.138 424.762 383.224 422.759 379.208C420.268 374.211 419 369.03 419 363.827C419 360.201 419.743 356.678 421.206 353.361C422.62 350.163 424.656 347.266 427.2 344.834C429.766 342.38 432.744 340.449 436.068 339.1C439.504 337.707 443.15 337 446.909 337C450.667 337 454.313 337.707 457.75 339.108C461.053 340.442 464.063 342.389 466.617 344.842ZM458.633 358.445C456.65 354.019 452.147 350.929 446.909 350.929C441.67 350.929 437.167 354.019 435.184 358.445C434.49 359.994 434.105 361.706 434.105 363.507C434.105 370.454 439.837 376.085 446.909 376.085C453.98 376.085 459.713 370.454 459.713 363.507C459.713 361.706 459.327 359.994 458.633 358.445Z" fill="#FAAD14"/>
<path fill-rule="evenodd" clip-rule="evenodd" d="M658.708 221.842C661.253 224.272 663.29 227.169 664.702 230.369C666.165 233.685 666.908 237.208 666.908 240.834C666.908 246.045 665.64 251.218 663.134 256.208C661.131 260.224 658.333 264.145 654.806 267.86C648.782 274.213 642.465 278.097 640.672 279.136C640.154 279.438 639.577 279.585 638.991 279.585C638.4 279.586 637.82 279.431 637.311 279.136C635.518 278.097 629.201 274.213 623.177 267.86C619.65 264.138 616.852 260.224 614.849 256.208C612.358 251.211 611.09 246.03 611.09 240.827C611.09 237.201 611.833 233.678 613.296 230.361C614.71 227.163 616.747 224.266 619.29 221.834C621.856 219.38 624.835 217.449 628.158 216.1C631.594 214.708 635.24 214 638.999 214C642.758 214 646.404 214.708 649.84 216.108C653.143 217.442 656.154 219.389 658.708 221.842ZM650.723 235.443C648.74 231.018 644.236 227.929 638.999 227.929C633.76 227.929 629.256 231.02 627.273 235.446C626.58 236.995 626.195 238.707 626.195 240.507C626.195 247.454 631.927 253.085 638.999 253.085C646.07 253.085 651.803 247.454 651.803 240.507C651.803 238.706 651.417 236.993 650.723 235.443Z" fill="#FAAD14"/>
<path d="M597.182 287.3C594.569 281.377 590.801 276.015 586.092 271.515C581.367 266.975 575.798 263.372 569.687 260.902C563.33 258.31 556.585 257 549.631 257C542.677 257 535.932 258.31 529.575 260.888C523.427 263.385 517.917 266.959 513.17 271.502C508.464 276.004 504.697 281.365 502.081 287.286C499.374 293.425 498 299.946 498 306.658C498 316.289 500.346 325.88 504.954 335.129C508.659 342.564 513.836 349.808 520.36 356.698C531.505 368.457 543.191 375.647 546.508 377.571C547.45 378.117 548.524 378.405 549.617 378.403C550.7 378.403 551.768 378.13 552.726 377.571C556.043 375.647 567.73 368.457 578.875 356.698C585.398 349.822 590.575 342.564 594.281 335.129C598.916 325.894 601.262 316.317 601.262 306.672C601.262 299.96 599.888 293.439 597.182 287.3ZM549.631 283.739C536.14 283.739 525.203 294.489 525.203 307.749C525.203 321.01 536.14 331.76 549.631 331.76C563.122 331.76 574.059 321.01 574.059 307.749C574.059 294.489 563.122 283.739 549.631 283.739ZM560.623 318.554C559.182 319.975 557.468 321.102 555.582 321.87C553.695 322.638 551.673 323.032 549.631 323.029C545.481 323.029 541.581 321.433 538.639 318.554C537.193 317.137 536.046 315.453 535.265 313.598C534.484 311.744 534.083 309.756 534.086 307.749C534.086 303.67 535.71 299.837 538.639 296.945C541.581 294.052 545.481 292.47 549.631 292.47C553.781 292.47 557.681 294.052 560.623 296.945C563.566 299.837 565.176 303.67 565.176 307.749C565.176 311.828 563.566 315.662 560.623 318.554Z" fill="#EA7306"/>
<path d="M549.002 287.598C549.419 286.312 551.238 286.312 551.656 287.598L556.751 303.28C556.938 303.855 557.474 304.244 558.078 304.244L574.567 304.244C575.919 304.244 576.481 305.974 575.388 306.768L562.048 316.46C561.559 316.816 561.354 317.446 561.541 318.02L566.636 333.702C567.054 334.988 565.582 336.057 564.489 335.263L551.149 325.571C550.66 325.215 549.998 325.215 549.509 325.571L536.169 335.263C535.075 336.057 533.604 334.988 534.021 333.702L539.117 318.02C539.303 317.446 539.099 316.816 538.61 316.46L525.27 306.768C524.176 305.974 524.738 304.244 526.09 304.244L542.579 304.244C543.184 304.244 543.719 303.855 543.906 303.28L549.002 287.598Z" fill="white"/>
<g filter="url(#filter1_d_4188_24975)">
<rect x="405.962" y="459" width="267.923" height="72.5625" rx="16.7452" fill="white"/>
</g>
<rect x="419.916" y="472.955" width="157.684" height="22.3269" rx="11.1635" fill="#E3E3E3"/>
<rect x="615.277" y="472.955" width="44.6539" height="44.6539" rx="22.3269" fill="#1184EE"/>
<rect x="419.916" y="503.654" width="135.357" height="4.1863" rx="2.09315" fill="#CBCBCB"/>
<rect x="419.916" y="513.422" width="62.7945" height="4.1863" rx="2.09315" fill="#CBCBCB"/>
</g>
<defs>
<filter id="filter0_d_4188_24975" x="319" y="96.9543" width="442" height="529" filterUnits="userSpaceOnUse" color-interpolation-filters="sRGB">
<feFlood flood-opacity="0" result="BackgroundImageFix"/>
<feColorMatrix in="SourceAlpha" type="matrix" values="0 0 0 0 0 0 0 0 0 0 0 0 0 0 0 0 0 0 127 0" result="hardAlpha"/>
<feOffset dy="13.9543"/>
<feGaussianBlur stdDeviation="26"/>
<feComposite in2="hardAlpha" operator="out"/>
<feColorMatrix type="matrix" values="0 0 0 0 0.0286806 0 0 0 0 0.269527 0 0 0 0 0.491667 0 0 0 0.8 0"/>
<feBlend mode="normal" in2="BackgroundImageFix" result="effect1_dropShadow_4188_24975"/>
<feBlend mode="normal" in="SourceGraphic" in2="effect1_dropShadow_4188_24975" result="shape"/>
</filter>
<filter id="filter1_d_4188_24975" x="378.053" y="431.091" width="323.741" height="128.38" filterUnits="userSpaceOnUse" color-interpolation-filters="sRGB">
<feFlood flood-opacity="0" result="BackgroundImageFix"/>
<feColorMatrix in="SourceAlpha" type="matrix" values="0 0 0 0 0 0 0 0 0 0 0 0 0 0 0 0 0 0 127 0" result="hardAlpha"/>
<feOffset/>
<feGaussianBlur stdDeviation="13.9543"/>
<feComposite in2="hardAlpha" operator="out"/>
<feColorMatrix type="matrix" values="0 0 0 0 0 0 0 0 0 0 0 0 0 0 0 0 0 0 0.25 0"/>
<feBlend mode="normal" in2="BackgroundImageFix" result="effect1_dropShadow_4188_24975"/>
<feBlend mode="normal" in="SourceGraphic" in2="effect1_dropShadow_4188_24975" result="shape"/>
</filter>
<linearGradient id="paint0_linear_4188_24975" x1="232" y1="356" x2="365" y2="356" gradientUnits="userSpaceOnUse">
<stop stop-color="#1890FF"/>
<stop offset="1" stop-color="#1890FF" stop-opacity="0"/>
</linearGradient>
<clipPath id="clip0_4188_24975">
<rect width="760" height="560" rx="8" fill="white"/>
</clipPath>
</defs>
</svg>
