<svg width="760" height="560" viewBox="0 0 760 560" fill="none" xmlns="http://www.w3.org/2000/svg">
<g clip-path="url(#clip0_4188_24677)">
<rect width="760" height="560" rx="8" fill="#011E35"/>
<g clip-path="url(#clip1_4188_24677)">
<path d="M223.506 96.1484C223.442 96.2653 223.391 96.3887 223.354 96.5164C222.427 96.5164 219.966 96.3895 217.504 96.5164C217.408 96.4442 217.301 96.3884 217.187 96.3514C215.894 92.798 214.222 89.3942 212.201 86.1989C211.479 86.8096 210.696 87.3454 209.866 87.7979C209.468 87.9799 209.082 88.1876 208.711 88.4198C208.759 91.0206 208.941 93.6172 209.257 96.1992C209.172 96.2762 209.099 96.3661 209.041 96.4657C208.572 96.4657 207.43 96.3641 206.503 96.3641C205.577 96.3641 204.689 96.4276 204.258 96.453C204.203 96.3701 204.139 96.2935 204.067 96.2245C204.067 96.2245 204.385 90.628 204.385 85.1583C204.385 79.6886 204.067 74.0666 204.067 74.0666C204.138 73.9969 204.202 73.9204 204.258 73.8382C204.664 73.8382 205.628 73.927 206.542 73.927C207.455 73.927 208.419 73.927 208.838 73.8382C208.894 73.9204 208.958 73.9969 209.028 74.0666C209.028 74.0666 208.737 78.3815 208.711 84.2192C209.883 83.4616 210.928 82.5236 211.807 81.4399C213.709 79.2537 215.177 76.7256 216.134 73.9905C216.245 73.9456 216.345 73.8762 216.426 73.7874C218.092 73.9593 219.771 73.9593 221.438 73.7874C221.472 73.8716 221.515 73.9524 221.565 74.0286C219.964 77.5339 217.795 80.75 215.144 83.5466C216.248 85.4375 219.56 90.6026 223.506 96.1484ZM313.188 74.2443L312.997 74.0159C312.591 74.0159 311.627 74.1047 310.739 74.1047C309.85 74.1047 308.861 74.0413 308.455 74.0159L308.277 74.2443C308.277 74.2443 308.518 78.5845 308.582 83.3943C307.313 83.3943 305.841 83.4704 304.191 83.4704C302.542 83.4704 301.057 83.4704 299.827 83.3943C299.827 78.0515 300.131 74.2443 300.131 74.2443C300.06 74.1746 299.997 74.0981 299.941 74.0159C299.535 74.0159 298.57 74.1047 297.67 74.1047C296.769 74.1047 295.804 74.0413 295.398 74.0159C295.343 74.0981 295.279 74.1746 295.208 74.2443C295.208 74.2443 295.424 79.7267 295.424 85.2344C295.424 90.7422 295.107 96.2245 295.107 96.2245C295.195 96.292 295.272 96.3734 295.335 96.4657C295.754 96.4657 296.693 96.3768 297.568 96.3768C298.444 96.3768 299.611 96.4403 300.106 96.4657L300.309 96.1992C299.951 93.1876 299.764 90.1581 299.751 87.1253H308.493C308.493 91.8843 308.201 96.2245 308.201 96.2245C308.289 96.2888 308.363 96.371 308.417 96.4657C308.848 96.4657 309.774 96.3768 310.663 96.3768C311.551 96.3768 312.693 96.4403 313.2 96.4657C313.26 96.3709 313.328 96.2817 313.403 96.1992C312.981 92.56 312.79 88.8977 312.832 85.2344C312.82 78.9525 313.188 74.2443 313.188 74.2443ZM232.261 77.6962V83.4704C232.261 87.8487 231.994 94.892 231.944 96.2499C232.036 96.3116 232.122 96.384 232.197 96.4657C232.629 96.4657 233.542 96.3768 234.405 96.3768C235.268 96.3768 236.258 96.4403 236.676 96.4657C236.729 96.3734 236.793 96.2882 236.867 96.2119C236.803 94.7524 236.55 87.7979 236.55 83.5212V77.7469C240.483 77.7469 242.145 77.8611 242.653 77.8992L242.818 77.7089C242.742 77.1251 242.551 75.3357 242.526 74.0666C242.465 74.0116 242.414 73.9474 242.374 73.8763C241.65 73.8763 238.402 74.1174 234.367 74.1174C230.332 74.1174 227.3 73.9397 226.437 73.889C226.37 73.9701 226.293 74.0425 226.209 74.1047C226.209 75.3738 225.993 77.1124 225.917 77.7089C225.992 77.7591 226.057 77.8238 226.107 77.8992C226.716 77.8104 228.391 77.7215 232.261 77.6962ZM379.535 70.7036C382.395 70.3989 385.278 70.3989 388.138 70.7036C388.182 70.6354 388.233 70.5717 388.29 70.5133C388.454 69.2851 388.695 68.0685 389.013 66.871L388.874 66.6934C388.506 66.6934 387.224 66.8456 383.798 66.8456C380.373 66.8456 379.129 66.7314 378.723 66.6934L378.584 66.871C378.902 68.0685 379.143 69.2851 379.307 70.5133C379.39 70.5675 379.467 70.6314 379.535 70.7036ZM337.384 74.2443L337.194 74.0159C336.788 74.0159 335.824 74.1047 334.935 74.1047C334.047 74.1047 333.058 74.0413 332.652 74.0159L332.474 74.2443C332.474 74.2443 332.715 78.5845 332.766 83.3943C331.497 83.3943 330.038 83.4704 328.388 83.4704C326.739 83.4704 325.242 83.4704 324.023 83.3943C324.023 78.0515 324.328 74.2443 324.328 74.2443C324.257 74.1746 324.193 74.0981 324.138 74.0159C323.719 74.0159 322.767 74.1047 321.866 74.1047C320.965 74.1047 320.001 74.0413 319.595 74.0159C319.539 74.0981 319.476 74.1746 319.405 74.2443C319.405 74.2443 319.722 79.7647 319.722 85.2344C319.722 90.7041 319.405 96.2245 319.405 96.2245C319.494 96.292 319.571 96.3734 319.633 96.4657C320.052 96.4657 320.991 96.3768 321.866 96.3768C322.742 96.3768 323.909 96.4403 324.404 96.4657L324.607 96.2245C324.249 93.213 324.062 90.1835 324.049 87.1507H332.791C332.791 91.9097 332.499 96.2499 332.499 96.2499C332.584 96.3177 332.657 96.3992 332.715 96.491C333.146 96.491 334.073 96.4022 334.961 96.4022C335.849 96.4022 336.991 96.4657 337.499 96.491C337.558 96.3963 337.626 96.3071 337.702 96.2245C337.279 92.5854 337.088 88.9231 337.131 85.2598C337.08 78.9525 337.384 74.2443 337.384 74.2443ZM250.545 125.185C250.741 126.365 251 127.534 251.319 128.687C251.241 128.763 251.172 128.848 251.116 128.941C249.847 128.941 244.087 128.776 238.339 128.776C232.591 128.776 226.919 128.916 225.549 128.941C225.496 128.845 225.428 128.759 225.346 128.687C225.671 127.535 225.933 126.365 226.132 125.185C226.252 125.114 226.359 125.024 226.45 124.918H228.683C232.4 117.799 235.496 110.667 236.296 108.661C236.055 108.065 235.89 107.621 235.776 107.392C235.86 107.275 235.929 107.147 235.979 107.012C237.308 106.636 238.613 106.178 239.887 105.641C240.018 105.706 240.16 105.744 240.305 105.755C240.711 107.024 242.069 110.73 243.706 115.121C244.835 118.103 246.535 122.101 247.817 124.944H250.152C250.268 125.045 250.401 125.127 250.545 125.185ZM238.339 125.185H242.462C241.714 122.913 240.686 119.905 239.684 117.291C239.176 116.022 238.719 114.816 238.288 113.725C236.207 118.091 234.291 122.329 233.022 125.147C234.875 125.121 236.803 125.147 238.326 125.147L238.339 125.185ZM151.22 106.022C149.177 106.186 147.127 106.237 145.079 106.174H141.209C140.308 106.174 139.331 106.174 138.938 106.085C138.882 106.167 138.818 106.244 138.747 106.314C138.747 106.314 139.065 111.834 139.065 117.316C139.065 122.799 138.747 128.294 138.747 128.294C138.833 128.365 138.91 128.446 138.976 128.535C139.395 128.535 140.333 128.446 141.209 128.446C142.084 128.446 143.252 128.446 143.747 128.548C143.807 128.45 143.875 128.356 143.95 128.268C143.527 124.634 143.336 120.976 143.379 117.316C143.379 114.334 143.379 111.707 143.455 109.765C147.008 109.765 150.129 109.943 150.941 109.994C151.009 109.913 151.091 109.844 151.182 109.791C151.182 108.522 151.372 106.834 151.449 106.212C151.362 106.162 151.285 106.098 151.22 106.022ZM189.818 92.6965C189.818 90.9706 189.717 88.8893 189.704 86.8208C192.394 86.8208 194.183 86.9857 194.779 87.0238C194.833 86.9552 194.898 86.8952 194.97 86.8461C194.894 86.2624 194.703 84.4857 194.691 83.2166C194.596 83.1678 194.51 83.1035 194.437 83.0262C193.802 83.1024 192.051 83.2674 189.717 83.3562V77.7977C194.665 77.7977 196.974 77.8992 197.609 77.95C197.667 77.8621 197.74 77.7849 197.825 77.7215C197.748 77.0997 197.571 75.3738 197.545 74.1428C197.458 74.089 197.381 74.0203 197.317 73.9397C196.492 73.9397 193.295 74.1682 189.704 74.1682H188.156C187.293 74.1682 186.177 74.0793 185.618 74.0413C185.516 74.1429 185.395 74.2247 185.263 74.2824C185.263 75.5514 185.568 80.9957 185.568 85.2471C185.568 89.4985 185.327 94.9047 185.263 96.2119C185.363 96.2845 185.449 96.3748 185.517 96.4784L187.319 96.3641C188.714 96.288 189.996 96.3641 189.996 96.3641C195.198 96.3641 197.507 96.4657 198.091 96.5037L198.269 96.3261C198.269 94.6382 198.637 92.5189 198.637 92.5189C198.56 92.4549 198.495 92.3775 198.446 92.2904C197.584 92.227 193.549 92.6838 189.818 92.6965ZM263.195 81.8587C263.195 88.0771 258.551 89.9173 254.973 89.9173C253.982 89.9212 252.993 89.8062 252.029 89.5746C252.106 92.6458 252.182 95.4123 252.207 96.2372C252.133 96.3041 252.069 96.381 252.017 96.4657C251.611 96.4657 250.646 96.3768 249.746 96.3768C248.845 96.3768 247.906 96.4403 247.487 96.4657C247.43 96.3772 247.361 96.2962 247.284 96.2245C247.347 94.9555 247.589 89.5239 247.589 85.2344C247.589 80.945 247.335 75.6403 247.284 74.4981C247.346 74.4185 247.401 74.3335 247.449 74.2443C247.665 74.2443 248.033 74.1809 248.477 74.1555C250.186 73.9473 251.906 73.833 253.628 73.8128C259.668 73.8128 263.195 77.1885 263.195 81.8587ZM258.539 81.9983C258.323 77.2139 254.326 77.0489 251.852 77.5312C251.852 78.9145 251.852 80.8561 251.953 83.1151C251.953 84.0161 251.953 85.0187 252.017 86.0466C256.458 87.5187 258.627 85.2725 258.539 81.9983ZM367.354 74.2443C367.283 74.1746 367.22 74.0981 367.164 74.0159C366.745 74.0159 365.794 74.1047 364.893 74.1047C363.992 74.1047 363.015 74.0413 362.622 74.0159C362.566 74.0981 362.502 74.1746 362.431 74.2443C362.431 74.2443 362.748 79.7647 362.748 85.2344C362.748 90.7041 362.431 96.2245 362.431 96.2245C362.52 96.292 362.597 96.3734 362.66 96.4657C363.078 96.4657 364.017 96.3768 364.893 96.3768C365.768 96.3768 366.936 96.4403 367.43 96.4657L367.633 96.1992C367.211 92.56 367.02 88.8977 367.062 85.2344C367.037 78.9525 367.354 74.2443 367.354 74.2443ZM359.31 88.6101C359.31 93.3057 355.782 96.656 349.743 96.656C348.004 96.656 346.101 96.4783 344.896 96.3514C344.211 96.3514 343.627 96.2499 343.284 96.2119C343.241 96.1239 343.186 96.0427 343.119 95.9707C343.119 94.8286 343.437 89.5239 343.437 85.2217C343.437 80.9196 343.183 75.4626 343.119 74.2316C343.2 74.1633 343.269 74.0817 343.322 73.9905C343.741 73.9905 344.693 74.092 345.581 74.092C346.469 74.092 347.446 74.092 347.852 73.9905C347.905 74.0791 347.969 74.1602 348.043 74.2316C348.043 75.0565 347.941 77.8611 347.865 80.983H347.966C348.984 80.7121 350.034 80.5798 351.088 80.5896C354.666 80.5516 359.31 82.3917 359.31 88.6101ZM347.789 84.5111C347.789 84.5111 347.789 86.3131 347.725 87.3411C347.725 89.5873 347.649 91.529 347.624 92.9123C347.737 92.8933 347.853 92.8933 347.966 92.9123C350.504 93.3818 354.438 93.2295 354.641 88.4452C354.793 85.1964 352.522 82.874 347.789 84.5111ZM290.501 84.7649C290.593 87.0765 289.996 89.3632 288.786 91.335C287.576 93.3068 285.808 94.8747 283.706 95.8398C281.604 96.8048 279.263 97.1235 276.979 96.7554C274.696 96.3873 272.573 95.349 270.88 93.7722C269.188 92.1954 268.002 90.1513 267.473 87.8992C266.944 85.6471 267.095 83.2886 267.909 81.123C268.722 78.9573 270.161 77.0822 272.041 75.7355C273.922 74.3888 276.16 73.6312 278.472 73.559C280 73.5065 281.524 73.7557 282.956 74.2925C284.387 74.8293 285.699 75.643 286.817 76.6873C287.934 77.7316 288.834 78.9858 289.466 80.3784C290.098 81.7709 290.45 83.2744 290.501 84.8029V84.7649ZM285.578 83.6862C285.417 82.7642 285.076 81.8831 284.574 81.0931C284.072 80.3031 283.419 79.6199 282.653 79.0824C281.887 78.5449 281.023 78.1637 280.11 77.9607C279.196 77.7577 278.252 77.7368 277.33 77.8992C275.491 78.3588 273.908 79.5257 272.924 81.1463C271.941 82.767 271.636 84.7104 272.077 86.5543C272.228 87.4838 272.561 88.3741 273.059 89.1735C273.556 89.973 274.207 90.6656 274.975 91.2111C275.742 91.7566 276.61 92.1441 277.529 92.3512C278.447 92.5583 279.397 92.5808 280.325 92.4173C281.243 92.1902 282.108 91.784 282.87 91.2219C283.631 90.6599 284.275 89.9531 284.763 89.142C285.251 88.3309 285.574 87.4315 285.714 86.4953C285.853 85.5591 285.807 84.6045 285.578 83.6862ZM224.052 117.037C224.146 119.352 223.551 121.643 222.341 123.619C221.131 125.595 219.361 127.166 217.256 128.134C215.151 129.102 212.806 129.422 210.519 129.054C208.232 128.686 206.105 127.646 204.41 126.067C202.715 124.488 201.528 122.44 200.998 120.184C200.469 117.929 200.622 115.567 201.438 113.398C202.254 111.229 203.695 109.352 205.58 108.005C207.465 106.658 209.707 105.901 212.023 105.831C215.103 105.725 218.099 106.845 220.354 108.946C222.609 111.047 223.939 113.957 224.052 117.037ZM219.116 115.959C218.956 115.035 218.616 114.153 218.115 113.362C217.614 112.57 216.962 111.885 216.196 111.347C215.429 110.808 214.564 110.426 213.65 110.222C212.736 110.018 211.791 109.997 210.868 110.159C209.031 110.624 207.45 111.795 206.469 113.417C205.489 115.039 205.186 116.983 205.628 118.827C205.786 119.75 206.125 120.634 206.626 121.426C207.126 122.218 207.779 122.904 208.545 123.443C209.312 123.982 210.177 124.364 211.092 124.567C212.007 124.77 212.953 124.79 213.875 124.626C215.715 124.164 217.297 122.994 218.279 121.371C219.26 119.748 219.561 117.802 219.116 115.959ZM176.28 117.037C176.374 119.352 175.779 121.643 174.569 123.619C173.359 125.595 171.589 127.166 169.484 128.134C167.379 129.102 165.034 129.422 162.747 129.054C160.46 128.686 158.334 127.646 156.639 126.067C154.943 124.488 153.756 122.44 153.226 120.184C152.697 117.929 152.85 115.567 153.666 113.398C154.482 111.229 155.924 109.352 157.808 108.005C159.693 106.658 161.936 105.901 164.251 105.831C165.777 105.777 167.298 106.024 168.728 106.558C170.158 107.091 171.469 107.902 172.586 108.942C173.703 109.983 174.604 111.233 175.238 112.622C175.872 114.011 176.226 115.511 176.28 117.037ZM171.357 115.959C171.025 114.1 169.972 112.449 168.426 111.367C166.88 110.285 164.968 109.859 163.109 110.184C161.269 110.647 159.686 111.816 158.702 113.439C157.719 115.061 157.415 117.007 157.856 118.852C158.014 119.776 158.353 120.659 158.854 121.452C159.354 122.244 160.007 122.929 160.773 123.468C161.54 124.007 162.405 124.389 163.32 124.592C164.235 124.796 165.181 124.816 166.104 124.652C167.949 124.189 169.537 123.016 170.521 121.388C171.505 119.759 171.805 117.808 171.357 115.959ZM145.701 96.6687C147.22 96.7451 148.739 96.502 150.16 95.9551C151.58 95.4081 152.869 94.5695 153.945 93.4933C155.021 92.417 155.86 91.1271 156.407 89.7068C156.954 88.2864 157.197 86.7672 157.12 85.2471C157.12 83.7289 156.818 82.2258 156.231 80.8258C155.643 79.4259 154.783 78.157 153.7 77.0936C152.616 76.0301 151.332 75.1934 149.921 74.6322C148.511 74.0711 147.003 73.7968 145.485 73.8255C143.333 73.8185 141.218 74.3834 139.356 75.4626V79.4348C139.458 79.4596 139.557 79.498 139.648 79.549C140.663 78.6648 141.864 78.0225 143.163 77.6708C144.132 77.4299 145.14 77.3877 146.126 77.5469C147.112 77.706 148.055 78.0632 148.899 78.5968C149.743 79.1304 150.471 79.8294 151.038 80.6518C151.604 81.4741 151.999 82.4027 152.197 83.3816C148.682 83.3816 144.838 83.1024 144.013 83.0136C143.939 83.0868 143.853 83.1469 143.759 83.1912C143.759 84.4603 143.556 86.1989 143.493 86.77C143.558 86.8227 143.618 86.8823 143.671 86.9477C144.406 86.9477 148.238 86.7192 152.349 86.7065C152.243 88.0675 151.739 89.3672 150.9 90.4437C150.061 91.5201 148.923 92.3257 147.629 92.76C145.503 93.3591 143.226 93.1041 141.285 92.0493C140.493 91.5208 139.758 90.9127 139.09 90.2345L138.798 90.3234V92.4935C138.798 93.496 138.722 94.5874 138.722 94.5874C140.784 95.9708 143.218 96.6965 145.701 96.6687ZM393.683 83.3816C393.683 79.2317 393.759 75.3103 393.772 74.2824C393.686 74.2073 393.609 74.122 393.543 74.0286C393.175 74.0286 392.389 74.1174 391.538 74.1174C390.688 74.1174 389.838 74.1174 389.508 74.0286H389.28C388.734 74.8788 385.397 80.0947 383.278 83.0643C382.009 84.8537 379.878 87.7852 378.203 90.0442V86.9984C378.203 82.6328 378.469 75.5768 378.52 74.2189C378.425 74.1657 378.339 74.0971 378.266 74.0159C377.822 74.0159 376.909 74.1047 376.059 74.1047C375.208 74.1047 374.193 74.0413 373.787 74.0159C373.735 74.1081 373.671 74.1934 373.597 74.2697C373.597 75.7291 373.914 82.6836 373.914 86.9604C373.914 91.2371 373.838 95.0443 373.825 96.0723C373.911 96.1474 373.988 96.2326 374.054 96.3261C374.422 96.3261 375.208 96.2372 376.059 96.2372C376.909 96.2372 377.733 96.3007 378.076 96.3261L378.203 96.2499H378.317C378.812 95.4885 381.35 92.4427 385.372 86.3512C386.793 84.2065 388.354 82.0744 389.381 80.7292V83.3943C389.381 87.7726 389.115 94.8159 389.064 96.1865C389.159 96.2397 389.245 96.3083 389.318 96.3895C389.762 96.3895 390.663 96.3007 391.526 96.3007C392.388 96.3007 393.391 96.3641 393.797 96.3895C393.849 96.2973 393.913 96.212 393.987 96.1357C393.949 94.6636 393.683 87.7091 393.683 83.3816ZM181.368 96.0723C180.568 94.6382 177.219 87.6583 175.353 83.0516C173.59 78.7114 172.131 74.9931 171.699 73.7874C171.551 73.7762 171.405 73.7419 171.268 73.6859C170.01 74.2539 168.717 74.7414 167.398 75.1453C167.36 75.285 167.3 75.4177 167.22 75.5388C167.296 75.7037 167.398 75.9702 167.537 76.2875C164.987 83.1305 161.973 89.7917 158.516 96.2245L158.719 96.4149C160.451 96.2853 162.19 96.2853 163.921 96.4149C163.921 96.4149 165.824 90.5772 169.466 80.8054L171.306 85.171C173.361 90.0823 175.493 96.4149 175.493 96.4149C175.493 96.4149 176.762 96.288 178.17 96.288C179.122 96.288 180.708 96.288 181.19 96.3895C181.236 96.2847 181.296 96.1865 181.368 96.0976V96.0723ZM197.013 113.991C197.013 120.21 192.356 122.05 188.778 122.05C187.786 122.06 186.797 121.945 185.834 121.707C185.91 124.791 185.986 127.558 186.012 128.37C185.938 128.441 185.874 128.523 185.821 128.611C185.415 128.611 184.451 128.51 183.55 128.51C182.649 128.51 181.71 128.51 181.292 128.598C181.234 128.514 181.166 128.437 181.089 128.37C181.089 127.101 181.406 121.657 181.406 117.38C181.406 113.103 181.139 107.773 181.089 106.631C181.146 106.553 181.193 106.468 181.228 106.377L182.256 106.288C183.966 106.08 185.685 105.966 187.407 105.946C193.472 105.92 197.013 109.271 197.013 113.991ZM192.343 114.131C192.128 109.347 188.131 109.182 185.656 109.664C185.656 111.047 185.656 112.989 185.758 115.248V118.192C190.262 119.626 192.483 117.38 192.343 114.106V114.131Z" fill="white"/>
<path d="M117.545 117.228C117.545 110.717 101.976 105.438 82.7662 105.438C63.556 105.438 48 110.717 48 117.228C48.174 126.336 51.914 135.014 58.4161 141.394C64.9183 147.774 73.6637 151.348 82.7726 151.348C91.8815 151.348 100.627 147.774 107.129 141.394C113.631 135.014 117.371 126.336 117.545 117.228Z" fill="#FD403E"/>
<path d="M113.663 117.228C113.663 122.152 99.8322 126.111 82.7663 126.111C65.7004 126.111 51.8827 122.126 51.8827 117.228C51.8827 112.329 65.713 108.344 82.7663 108.344C99.8195 108.344 113.663 112.342 113.663 117.228Z" fill="#BBFF00"/>
<path d="M117.545 82.7725C117.371 73.6636 113.631 64.9866 107.129 58.6063C100.627 52.226 91.8815 48.6517 82.7726 48.6517C73.6637 48.6517 64.9183 52.226 58.4161 58.6063C51.914 64.9866 48.174 73.6636 48 82.7725C48 89.2828 63.5687 94.5621 82.7662 94.5621C101.964 94.5621 117.545 89.2828 117.545 82.7725Z" fill="#FD403E"/>
</g>
<g filter="url(#filter0_f_4188_24677)">
<circle cx="655.725" cy="413.452" r="320.275" fill="#0F5893"/>
</g>
<g filter="url(#filter1_d_4188_24677)">
<path d="M447 225.369C447 213.567 456.567 204 468.369 204H762.193C773.994 204 783.561 213.567 783.561 225.369V620.695H447V225.369Z" fill="white" fill-opacity="0.1" shape-rendering="crispEdges"/>
</g>
<g filter="url(#filter2_d_4188_24677)">
<path d="M417 275.369C417 263.567 426.567 254 438.369 254H447V671H417V275.369Z" fill="white" fill-opacity="0.05" shape-rendering="crispEdges"/>
</g>
<g filter="url(#filter3_d_4188_24677)">
<path d="M487 165.369C487 153.567 496.567 144 508.369 144H802.193C813.994 144 823.561 153.567 823.561 165.369V560.695H487V165.369Z" fill="#FD403E"/>
</g>
<path d="M487 215.23C487 203.428 496.567 193.861 508.369 193.861H802.193C813.994 193.861 823.561 203.428 823.561 215.23V560.695H487V215.23Z" fill="#FAFAFA"/>
<rect x="510.15" y="167.15" width="28.492" height="5.34225" rx="2.67112" fill="white"/>
<rect x="556.449" y="167.15" width="124.652" height="5.34225" rx="2.67112" fill="white"/>
<rect x="487" y="225.914" width="334.781" height="1.78075" fill="#E9E9E9"/>
<rect x="487" y="512.615" width="334.781" height="1.78075" fill="#E9E9E9"/>
<rect x="542.203" y="252.626" width="71.2299" height="12.4652" rx="6.23262" fill="#CCCCCC"/>
<rect x="504.807" y="532.203" width="117.529" height="12.4652" rx="6.23262" fill="#CCCCCC"/>
<circle cx="518.163" cy="258.858" r="12.4652" stroke="#C4C4C4" stroke-width="1.78075"/>
<g filter="url(#filter4_d_4188_24677)">
<rect x="504.807" y="290.021" width="42.738" height="42.738" rx="7.12299" fill="white"/>
</g>
<path d="M504.807 318.513H547.545V325.636C547.545 329.57 544.356 332.759 540.422 332.759H511.93C507.996 332.759 504.807 329.57 504.807 325.636V318.513Z" fill="#B8FC03"/>
<circle cx="526.177" cy="325.636" r="3.5615" fill="#98CC0C"/>
<g filter="url(#filter5_d_4188_24677)">
<rect x="505.698" y="290.912" width="40.9572" height="40.9572" rx="6.23262" stroke="#FD403E" stroke-width="1.78075" shape-rendering="crispEdges"/>
</g>
<rect x="519.944" y="299.815" width="12.4652" height="12.4652" rx="0.890374" stroke="#98CC0C" stroke-width="1.78075"/>
<path fill-rule="evenodd" clip-rule="evenodd" d="M526.176 309.61C527.16 309.61 527.957 308.812 527.957 307.829C527.957 307.829 527.957 307.829 527.957 307.829H531.518C532.502 307.829 533.299 308.626 533.299 309.61V311.39C533.299 312.374 532.502 313.171 531.518 313.171H520.834C519.85 313.171 519.053 312.374 519.053 311.39V309.61C519.053 308.626 519.85 307.829 520.834 307.829H524.395C524.395 307.829 524.395 307.829 524.395 307.829C524.395 308.812 525.193 309.61 526.176 309.61Z" fill="#98CC0C"/>
<g filter="url(#filter6_d_4188_24677)">
<rect x="504.807" y="341.663" width="42.738" height="42.738" rx="7.12299" fill="white"/>
</g>
<path d="M504.807 370.155H547.545V377.278C547.545 381.212 544.356 384.401 540.422 384.401H511.93C507.996 384.401 504.807 381.212 504.807 377.278V370.155Z" fill="#B8FC03"/>
<circle cx="526.177" cy="377.278" r="3.5615" fill="#98CC0C"/>
<rect x="519.944" y="351.457" width="12.4652" height="12.4652" rx="0.890374" stroke="#98CC0C" stroke-width="1.78075"/>
<path fill-rule="evenodd" clip-rule="evenodd" d="M526.176 361.251C527.16 361.251 527.957 360.454 527.957 359.47C527.957 359.47 527.957 359.47 527.957 359.47H531.519C532.502 359.47 533.299 360.268 533.299 361.251V363.032C533.299 364.015 532.502 364.813 531.519 364.813H520.834C519.851 364.813 519.053 364.015 519.053 363.032V361.251C519.053 360.268 519.851 359.47 520.834 359.47H524.396C524.396 359.47 524.396 359.47 524.396 359.47C524.396 360.454 525.193 361.251 526.176 361.251Z" fill="#98CC0C"/>
<g filter="url(#filter7_d_4188_24677)">
<rect x="504.807" y="393.305" width="42.738" height="42.738" rx="7.12299" fill="white"/>
</g>
<path d="M504.807 421.797H547.545V428.92C547.545 432.854 544.356 436.043 540.422 436.043H511.93C507.996 436.043 504.807 432.854 504.807 428.92V421.797Z" fill="#B8FC03"/>
<circle cx="526.177" cy="428.92" r="3.5615" fill="#98CC0C"/>
<rect x="519.944" y="403.099" width="12.4652" height="12.4652" rx="0.890374" stroke="#98CC0C" stroke-width="1.78075"/>
<path fill-rule="evenodd" clip-rule="evenodd" d="M526.176 412.893C527.16 412.893 527.957 412.096 527.957 411.112C527.957 411.112 527.957 411.112 527.957 411.112H531.519C532.502 411.112 533.299 411.91 533.299 412.893V414.674C533.299 415.657 532.502 416.455 531.519 416.455H520.834C519.851 416.455 519.053 415.657 519.053 414.674V412.893C519.053 411.91 519.851 411.112 520.834 411.112H524.396C524.396 411.112 524.396 411.112 524.396 411.112C524.396 412.096 525.193 412.893 526.176 412.893Z" fill="#98CC0C"/>
<g filter="url(#filter8_d_4188_24677)">
<rect x="504.807" y="444.947" width="42.738" height="42.738" rx="7.12299" fill="white"/>
</g>
<path d="M504.807 473.439H547.545V480.562C547.545 484.496 544.356 487.685 540.422 487.685H511.93C507.996 487.685 504.807 484.496 504.807 480.562V473.439Z" fill="#B8FC03"/>
<circle cx="526.177" cy="480.562" r="3.5615" fill="#98CC0C"/>
<rect x="519.944" y="454.741" width="12.4652" height="12.4652" rx="0.890374" stroke="#98CC0C" stroke-width="1.78075"/>
<path fill-rule="evenodd" clip-rule="evenodd" d="M526.176 464.535C527.16 464.535 527.957 463.738 527.957 462.754C527.957 462.754 527.957 462.754 527.957 462.754H531.519C532.502 462.754 533.299 463.552 533.299 464.535V466.316C533.299 467.299 532.502 468.097 531.519 468.097H520.834C519.851 468.097 519.053 467.299 519.053 466.316V464.535C519.053 463.552 519.851 462.754 520.834 462.754H524.396C524.396 462.754 524.396 462.754 524.396 462.754C524.396 463.738 525.193 464.535 526.176 464.535Z" fill="#98CC0C"/>
<g filter="url(#filter9_d_4188_24677)">
<rect x="711.374" y="290.021" width="42.738" height="42.738" rx="7.12299" fill="white"/>
</g>
<path d="M711.374 318.513H754.112V325.636C754.112 329.57 750.923 332.759 746.989 332.759H718.497C714.563 332.759 711.374 329.57 711.374 325.636V318.513Z" fill="#B8FC03"/>
<circle cx="732.743" cy="325.636" r="3.5615" fill="#98CC0C"/>
<g filter="url(#filter10_d_4188_24677)">
<rect x="712.265" y="290.912" width="40.9572" height="40.9572" rx="6.23262" stroke="#FD403E" stroke-width="1.78075" shape-rendering="crispEdges"/>
</g>
<rect x="726.511" y="299.815" width="12.4652" height="12.4652" rx="0.890374" stroke="#98CC0C" stroke-width="1.78075"/>
<path fill-rule="evenodd" clip-rule="evenodd" d="M732.744 309.61C733.727 309.61 734.524 308.812 734.524 307.829C734.524 307.829 734.524 307.829 734.524 307.829H738.086C739.069 307.829 739.867 308.626 739.867 309.61V311.39C739.867 312.374 739.069 313.171 738.086 313.171H727.401C726.418 313.171 725.621 312.374 725.621 311.39V309.61C725.621 308.626 726.418 307.829 727.401 307.829H730.963C730.963 307.829 730.963 307.829 730.963 307.829C730.963 308.812 731.76 309.61 732.744 309.61Z" fill="#98CC0C"/>
<g filter="url(#filter11_d_4188_24677)">
<rect x="711.374" y="341.663" width="42.738" height="42.738" rx="7.12299" fill="white"/>
</g>
<path d="M711.374 370.155H754.112V377.278C754.112 381.212 750.923 384.401 746.989 384.401H718.497C714.563 384.401 711.374 381.212 711.374 377.278V370.155Z" fill="#011E35"/>
<circle cx="732.743" cy="377.278" r="3.5615" fill="#4F7089"/>
<rect x="726.511" y="351.457" width="12.4652" height="12.4652" rx="0.890374" stroke="#98CC0C" stroke-width="1.78075"/>
<path fill-rule="evenodd" clip-rule="evenodd" d="M730.963 359.471H727.401C726.418 359.471 725.621 360.268 725.621 361.251V363.032C725.621 364.015 726.418 364.813 727.401 364.813H738.086C739.069 364.813 739.867 364.015 739.867 363.032V361.251C739.867 360.268 739.069 359.471 738.086 359.471H734.524C734.524 360.454 733.727 361.251 732.743 361.251C731.76 361.251 730.963 360.454 730.963 359.471Z" fill="#98CC0C"/>
<g filter="url(#filter12_d_4188_24677)">
<rect x="711.374" y="393.305" width="42.738" height="42.738" rx="7.12299" fill="white"/>
</g>
<path d="M711.374 421.797H754.112V428.92C754.112 432.854 750.923 436.043 746.989 436.043H718.497C714.563 436.043 711.374 432.854 711.374 428.92V421.797Z" fill="#B8FC03"/>
<circle cx="732.743" cy="428.92" r="3.5615" fill="#98CC0C"/>
<rect x="726.511" y="403.099" width="12.4652" height="12.4652" rx="0.890374" stroke="#98CC0C" stroke-width="1.78075"/>
<path fill-rule="evenodd" clip-rule="evenodd" d="M732.744 412.893C733.727 412.893 734.524 412.096 734.524 411.112C734.524 411.112 734.524 411.112 734.524 411.112H738.086C739.069 411.112 739.866 411.91 739.866 412.893V414.674C739.866 415.657 739.069 416.455 738.086 416.455H727.401C726.418 416.455 725.62 415.657 725.62 414.674V412.893C725.62 411.91 726.418 411.112 727.401 411.112H730.963C730.963 411.112 730.963 411.112 730.963 411.112C730.963 412.096 731.76 412.893 732.744 412.893Z" fill="#98CC0C"/>
<g filter="url(#filter13_d_4188_24677)">
<rect x="711.374" y="444.946" width="42.738" height="42.738" rx="7.12299" fill="white"/>
</g>
<path d="M711.374 473.439H754.112V480.562C754.112 484.496 750.923 487.685 746.989 487.685H718.497C714.563 487.685 711.374 484.496 711.374 480.562V473.439Z" fill="#B8FC03"/>
<circle cx="732.743" cy="480.561" r="3.5615" fill="#98CC0C"/>
<rect x="726.51" y="454.741" width="12.4652" height="12.4652" rx="0.890374" stroke="#98CC0C" stroke-width="1.78075"/>
<path fill-rule="evenodd" clip-rule="evenodd" d="M732.744 464.535C733.727 464.535 734.524 463.738 734.524 462.754C734.524 462.754 734.524 462.754 734.524 462.754H738.086C739.069 462.754 739.866 463.551 739.866 464.535V466.316C739.866 467.299 739.069 468.096 738.086 468.096H727.401C726.418 468.096 725.62 467.299 725.62 466.316V464.535C725.62 463.551 726.418 462.754 727.401 462.754H730.963C730.963 462.754 730.963 462.754 730.963 462.754C730.963 463.738 731.76 464.535 732.744 464.535Z" fill="#98CC0C"/>
<g filter="url(#filter14_d_4188_24677)">
<rect x="608.091" y="290.021" width="42.738" height="42.738" rx="7.12299" fill="white"/>
</g>
<path d="M608.091 318.513H650.829V325.636C650.829 329.57 647.64 332.759 643.706 332.759H615.214C611.28 332.759 608.091 329.57 608.091 325.636V318.513Z" fill="#B8FC03"/>
<circle cx="629.46" cy="325.636" r="3.5615" fill="#98CC0C"/>
<g filter="url(#filter15_d_4188_24677)">
<rect x="608.981" y="290.912" width="40.9572" height="40.9572" rx="6.23262" stroke="#FD403E" stroke-width="1.78075" shape-rendering="crispEdges"/>
</g>
<rect x="623.227" y="299.816" width="12.4652" height="12.4652" rx="0.890374" stroke="#98CC0C" stroke-width="1.78075"/>
<path fill-rule="evenodd" clip-rule="evenodd" d="M629.46 309.61C630.443 309.61 631.241 308.813 631.241 307.829C631.241 307.829 631.241 307.829 631.241 307.829H634.802C635.786 307.829 636.583 308.626 636.583 309.61V311.39C636.583 312.374 635.786 313.171 634.802 313.171H624.118C623.134 313.171 622.337 312.374 622.337 311.39V309.61C622.337 308.626 623.134 307.829 624.118 307.829H627.679C627.679 307.829 627.679 307.829 627.679 307.829C627.679 308.813 628.476 309.61 629.46 309.61Z" fill="#98CC0C"/>
<g filter="url(#filter16_d_4188_24677)">
<rect x="608.091" y="341.663" width="42.738" height="42.738" rx="7.12299" fill="white"/>
</g>
<path d="M608.091 370.155H650.829V377.278C650.829 381.212 647.64 384.401 643.706 384.401H615.214C611.28 384.401 608.091 381.212 608.091 377.278V370.155Z" fill="#B8FC03"/>
<circle cx="629.46" cy="377.278" r="3.5615" fill="#98CC0C"/>
<g filter="url(#filter17_d_4188_24677)">
<rect x="608.981" y="342.553" width="40.9572" height="40.9572" rx="6.23262" stroke="#FD403E" stroke-width="1.78075" shape-rendering="crispEdges"/>
</g>
<rect x="623.227" y="351.457" width="12.4652" height="12.4652" rx="0.890374" stroke="#98CC0C" stroke-width="1.78075"/>
<path fill-rule="evenodd" clip-rule="evenodd" d="M627.679 359.471H624.118C623.134 359.471 622.337 360.268 622.337 361.251V363.032C622.337 364.016 623.134 364.813 624.118 364.813H634.802C635.786 364.813 636.583 364.016 636.583 363.032V361.251C636.583 360.268 635.786 359.471 634.802 359.471H631.241C631.241 360.454 630.443 361.251 629.46 361.251C628.476 361.251 627.679 360.454 627.679 359.471Z" fill="#98CC0C"/>
<g filter="url(#filter18_d_4188_24677)">
<rect x="608.091" y="393.305" width="42.738" height="42.738" rx="7.12299" fill="white"/>
</g>
<path d="M608.091 421.797H650.829V428.92C650.829 432.854 647.64 436.043 643.706 436.043H615.214C611.28 436.043 608.091 432.854 608.091 428.92V421.797Z" fill="#011E35"/>
<circle cx="629.46" cy="428.92" r="3.5615" fill="#4F7089"/>
<rect x="623.227" y="403.099" width="12.4652" height="12.4652" rx="0.890374" stroke="#98CC0C" stroke-width="1.78075"/>
<path fill-rule="evenodd" clip-rule="evenodd" d="M629.46 412.893C630.443 412.893 631.241 412.096 631.241 411.112C631.241 411.112 631.241 411.112 631.241 411.112H634.802C635.786 411.112 636.583 411.91 636.583 412.893V414.674C636.583 415.657 635.786 416.455 634.802 416.455H624.118C623.134 416.455 622.337 415.657 622.337 414.674V412.893C622.337 411.91 623.134 411.112 624.118 411.112H627.679C627.679 411.112 627.679 411.112 627.679 411.112C627.679 412.096 628.476 412.893 629.46 412.893Z" fill="#98CC0C"/>
<g filter="url(#filter19_d_4188_24677)">
<rect x="608.091" y="444.947" width="42.738" height="42.738" rx="7.12299" fill="white"/>
</g>
<path d="M608.091 473.439H650.829V480.562C650.829 484.496 647.64 487.685 643.706 487.685H615.214C611.28 487.685 608.091 484.496 608.091 480.562V473.439Z" fill="#B8FC03"/>
<circle cx="629.46" cy="480.562" r="3.5615" fill="#98CC0C"/>
<g filter="url(#filter20_d_4188_24677)">
<rect x="608.981" y="445.837" width="40.9572" height="40.9572" rx="6.23262" stroke="#FD403E" stroke-width="1.78075" shape-rendering="crispEdges"/>
</g>
<rect x="623.227" y="454.741" width="12.4652" height="12.4652" rx="0.890374" stroke="#98CC0C" stroke-width="1.78075"/>
<path fill-rule="evenodd" clip-rule="evenodd" d="M629.46 464.535C630.443 464.535 631.241 463.738 631.241 462.754C631.241 462.754 631.241 462.754 631.241 462.754H634.802C635.786 462.754 636.583 463.551 636.583 464.535V466.316C636.583 467.299 635.786 468.096 634.802 468.096H624.118C623.134 468.096 622.337 467.299 622.337 466.316V464.535C622.337 463.551 623.134 462.754 624.118 462.754H627.679C627.679 462.754 627.679 462.754 627.679 462.754C627.679 463.738 628.476 464.535 629.46 464.535Z" fill="#98CC0C"/>
<g filter="url(#filter21_d_4188_24677)">
<rect x="556.449" y="290.021" width="42.738" height="42.738" rx="7.12299" fill="white"/>
</g>
<path d="M556.449 318.513H599.187V325.636C599.187 329.57 595.998 332.759 592.064 332.759H563.572C559.638 332.759 556.449 329.57 556.449 325.636V318.513Z" fill="#B8FC03"/>
<circle cx="577.818" cy="325.636" r="3.5615" fill="#98CC0C"/>
<rect x="571.586" y="299.815" width="12.4652" height="12.4652" rx="0.890374" stroke="#011E35" stroke-width="1.78075"/>
<path fill-rule="evenodd" clip-rule="evenodd" d="M577.818 309.61C578.802 309.61 579.599 308.812 579.599 307.829C579.599 307.829 579.599 307.829 579.599 307.829H583.161C584.144 307.829 584.941 308.626 584.941 309.61V311.39C584.941 312.374 584.144 313.171 583.161 313.171H572.476C571.493 313.171 570.695 312.374 570.695 311.39V309.61C570.695 308.626 571.493 307.829 572.476 307.829H576.037C576.037 307.829 576.037 307.829 576.037 307.829C576.037 308.812 576.835 309.61 577.818 309.61Z" fill="#011E35"/>
<path d="M577.818 306.048L574.257 302.487L581.38 302.487L577.818 306.048Z" fill="#011E35"/>
<g filter="url(#filter22_d_4188_24677)">
<rect x="556.449" y="341.663" width="42.738" height="42.738" rx="7.12299" fill="white"/>
</g>
<path d="M556.449 370.155H599.187V377.278C599.187 381.212 595.998 384.401 592.064 384.401H563.572C559.638 384.401 556.449 381.212 556.449 377.278V370.155Z" fill="#011E35"/>
<circle cx="577.818" cy="377.278" r="3.5615" fill="#4F7089"/>
<rect x="571.585" y="351.457" width="12.4652" height="12.4652" rx="0.890374" stroke="#011E35" stroke-width="1.78075"/>
<path fill-rule="evenodd" clip-rule="evenodd" d="M577.818 361.251C578.801 361.251 579.598 360.454 579.598 359.47C579.598 359.47 579.598 359.47 579.598 359.47H583.16C584.144 359.47 584.941 360.268 584.941 361.251V363.032C584.941 364.015 584.144 364.813 583.16 364.813H572.476C571.492 364.813 570.695 364.015 570.695 363.032V361.251C570.695 360.268 571.492 359.47 572.476 359.47H576.037C576.037 359.47 576.037 359.47 576.037 359.47C576.037 360.454 576.834 361.251 577.818 361.251Z" fill="#011E35"/>
<path d="M577.818 357.69L574.257 354.128L581.38 354.128L577.818 357.69Z" fill="#011E35"/>
<g filter="url(#filter23_d_4188_24677)">
<rect x="556.449" y="393.305" width="42.738" height="42.738" rx="7.12299" fill="white"/>
</g>
<path d="M556.449 421.797H599.187V428.92C599.187 432.854 595.998 436.043 592.064 436.043H563.572C559.638 436.043 556.449 432.854 556.449 428.92V421.797Z" fill="#B8FC03"/>
<circle cx="577.818" cy="428.92" r="3.5615" fill="#98CC0C"/>
<rect x="571.586" y="403.099" width="12.4652" height="12.4652" rx="0.890374" stroke="#011E35" stroke-width="1.78075"/>
<path fill-rule="evenodd" clip-rule="evenodd" d="M577.818 412.893C578.802 412.893 579.599 412.096 579.599 411.112C579.599 411.112 579.599 411.112 579.599 411.112H583.161C584.144 411.112 584.941 411.91 584.941 412.893V414.674C584.941 415.657 584.144 416.455 583.161 416.455H572.476C571.493 416.455 570.695 415.657 570.695 414.674V412.893C570.695 411.91 571.493 411.112 572.476 411.112H576.037C576.037 411.112 576.037 411.112 576.037 411.112C576.037 412.096 576.835 412.893 577.818 412.893Z" fill="#011E35"/>
<path d="M577.818 409.331L574.257 405.77L581.38 405.77L577.818 409.331Z" fill="#011E35"/>
<g filter="url(#filter24_d_4188_24677)">
<rect x="556.449" y="444.946" width="42.738" height="42.738" rx="7.12299" fill="white"/>
</g>
<path d="M556.449 473.439H599.187V480.562C599.187 484.496 595.998 487.685 592.064 487.685H563.572C559.638 487.685 556.449 484.496 556.449 480.562V473.439Z" fill="#B8FC03"/>
<circle cx="577.818" cy="480.561" r="3.5615" fill="#98CC0C"/>
<rect x="571.586" y="454.741" width="12.4652" height="12.4652" rx="0.890374" stroke="#011E35" stroke-width="1.78075"/>
<path fill-rule="evenodd" clip-rule="evenodd" d="M577.818 464.535C578.802 464.535 579.599 463.738 579.599 462.754C579.599 462.754 579.599 462.754 579.599 462.754H583.161C584.144 462.754 584.941 463.551 584.941 464.535V466.316C584.941 467.299 584.144 468.096 583.161 468.096H572.476C571.493 468.096 570.695 467.299 570.695 466.316V464.535C570.695 463.551 571.493 462.754 572.476 462.754H576.037C576.037 462.754 576.037 462.754 576.037 462.754C576.037 463.738 576.835 464.535 577.818 464.535Z" fill="#011E35"/>
<path d="M577.818 460.973L574.257 457.412L581.38 457.412L577.818 460.973Z" fill="#011E35"/>
<g filter="url(#filter25_d_4188_24677)">
<rect x="763.016" y="290.021" width="42.738" height="42.738" rx="7.12299" fill="white"/>
</g>
<g filter="url(#filter26_d_4188_24677)">
<rect x="763.016" y="341.663" width="42.738" height="42.738" rx="7.12299" fill="white"/>
</g>
<g filter="url(#filter27_d_4188_24677)">
<rect x="763.016" y="393.305" width="42.738" height="42.738" rx="7.12299" fill="white"/>
</g>
<g filter="url(#filter28_d_4188_24677)">
<rect x="763.016" y="444.946" width="42.738" height="42.738" rx="7.12299" fill="white"/>
</g>
<g filter="url(#filter29_d_4188_24677)">
<rect x="659.733" y="290.021" width="42.738" height="42.738" rx="7.12299" fill="white"/>
</g>
<path d="M659.733 318.513H702.471V325.636C702.471 329.57 699.282 332.759 695.348 332.759H666.856C662.922 332.759 659.733 329.57 659.733 325.636V318.513Z" fill="#B8FC03"/>
<circle cx="681.102" cy="325.636" r="3.5615" fill="#98CC0C"/>
<rect x="674.869" y="299.815" width="12.4652" height="12.4652" rx="0.890374" stroke="#98CC0C" stroke-width="1.78075"/>
<path fill-rule="evenodd" clip-rule="evenodd" d="M681.102 309.61C682.085 309.61 682.882 308.812 682.882 307.829C682.882 307.829 682.882 307.829 682.882 307.829H686.444C687.427 307.829 688.225 308.626 688.225 309.61V311.39C688.225 312.374 687.427 313.171 686.444 313.171H675.759C674.776 313.171 673.979 312.374 673.979 311.39V309.61C673.979 308.626 674.776 307.829 675.759 307.829H679.321C679.321 307.829 679.321 307.829 679.321 307.829C679.321 308.812 680.118 309.61 681.102 309.61Z" fill="#98CC0C"/>
<path d="M681.102 306.048L677.54 302.487L684.663 302.487L681.102 306.048Z" fill="#98CC0C"/>
<g filter="url(#filter30_d_4188_24677)">
<rect x="659.733" y="341.663" width="42.738" height="42.738" rx="7.12299" fill="white"/>
</g>
<path d="M659.733 370.155H702.471V377.278C702.471 381.212 699.282 384.401 695.348 384.401H666.856C662.922 384.401 659.733 381.212 659.733 377.278V370.155Z" fill="#B8FC03"/>
<circle cx="681.102" cy="377.278" r="3.5615" fill="#98CC0C"/>
<rect x="674.869" y="351.457" width="12.4652" height="12.4652" rx="0.890374" stroke="#98CC0C" stroke-width="1.78075"/>
<path fill-rule="evenodd" clip-rule="evenodd" d="M679.321 359.471H675.759C674.776 359.471 673.979 360.268 673.979 361.251V363.032C673.979 364.016 674.776 364.813 675.759 364.813H686.444C687.427 364.813 688.225 364.016 688.225 363.032V361.251C688.225 360.268 687.427 359.471 686.444 359.471H682.882C682.882 360.454 682.085 361.251 681.101 361.251C680.118 361.251 679.321 360.454 679.321 359.471Z" fill="#98CC0C"/>
<path d="M681.102 357.69L677.54 354.128L684.663 354.128L681.102 357.69Z" fill="#98CC0C"/>
<g filter="url(#filter31_d_4188_24677)">
<rect x="659.733" y="393.305" width="42.738" height="42.738" rx="7.12299" fill="white"/>
</g>
<path d="M659.733 421.797H702.471V428.92C702.471 432.854 699.282 436.043 695.348 436.043H666.856C662.922 436.043 659.733 432.854 659.733 428.92V421.797Z" fill="#B8FC03"/>
<circle cx="681.102" cy="428.92" r="3.5615" fill="#98CC0C"/>
<rect x="674.869" y="403.099" width="12.4652" height="12.4652" rx="0.890374" stroke="#98CC0C" stroke-width="1.78075"/>
<path fill-rule="evenodd" clip-rule="evenodd" d="M681.102 412.893C682.085 412.893 682.882 412.096 682.882 411.112C682.882 411.112 682.882 411.112 682.882 411.112H686.444C687.427 411.112 688.225 411.91 688.225 412.893V414.674C688.225 415.657 687.427 416.455 686.444 416.455H675.759C674.776 416.455 673.979 415.657 673.979 414.674V412.893C673.979 411.91 674.776 411.112 675.759 411.112H679.321C679.321 411.112 679.321 411.112 679.321 411.112C679.321 412.096 680.118 412.893 681.102 412.893Z" fill="#98CC0C"/>
<path d="M681.102 409.331L677.54 405.77L684.663 405.77L681.102 409.331Z" fill="#98CC0C"/>
<g filter="url(#filter32_d_4188_24677)">
<rect x="659.733" y="444.946" width="42.738" height="42.738" rx="7.12299" fill="white"/>
</g>
<path d="M659.733 473.439H702.471V480.562C702.471 484.496 699.282 487.685 695.348 487.685H666.856C662.922 487.685 659.733 484.496 659.733 480.562V473.439Z" fill="#B8FC03"/>
<circle cx="681.102" cy="480.561" r="3.5615" fill="#98CC0C"/>
<rect x="674.869" y="454.741" width="12.4652" height="12.4652" rx="0.890374" stroke="#98CC0C" stroke-width="1.78075"/>
<path fill-rule="evenodd" clip-rule="evenodd" d="M681.102 464.535C682.085 464.535 682.882 463.738 682.882 462.754C682.882 462.754 682.882 462.754 682.882 462.754H686.444C687.427 462.754 688.225 463.551 688.225 464.535V466.316C688.225 467.299 687.427 468.096 686.444 468.096H675.759C674.776 468.096 673.979 467.299 673.979 466.316V464.535C673.979 463.551 674.776 462.754 675.759 462.754H679.321C679.321 462.754 679.321 462.754 679.321 462.754C679.321 463.738 680.118 464.535 681.102 464.535Z" fill="#98CC0C"/>
<path d="M681.102 460.973L677.54 457.412L684.663 457.412L681.102 460.973Z" fill="#98CC0C"/>
<g filter="url(#filter33_d_4188_24677)">
<circle opacity="0.4" cx="488.155" cy="388.155" r="117.845" fill="#86C6FE"/>
<circle cx="488.155" cy="388.154" r="85.1106" fill="#0F4C7F"/>
<circle cx="488.155" cy="388.154" r="85.1106" fill="url(#paint0_linear_4188_24677)" fill-opacity="0.4"/>
<mask id="mask0_4188_24677" style="mask-type:alpha" maskUnits="userSpaceOnUse" x="403" y="303" width="171" height="171">
<circle cx="488.155" cy="388.154" r="85.1106" fill="white"/>
</mask>
<g mask="url(#mask0_4188_24677)">
<path d="M456.042 422.41C470.921 416.989 475.678 412.414 475.678 402.617C475.678 396.738 470.803 392.927 469.141 387.888C467.479 382.85 466.517 376.884 465.718 372.544C464.919 368.205 464.601 366.526 464.167 361.902C463.636 356.132 467.499 341.234 488.155 341.234C508.804 341.234 512.68 356.132 512.137 361.902C511.702 366.526 511.383 368.205 510.585 372.544C509.788 376.884 508.836 382.849 507.175 387.888C505.514 392.928 500.632 396.738 500.632 402.617C500.632 412.414 505.388 416.989 520.267 422.41C535.201 427.842 544.895 433.199 544.895 436.984V495.244H431.414V436.984C431.414 433.205 441.114 427.848 456.042 422.41Z" fill="#3878AD"/>
</g>
<path fill-rule="evenodd" clip-rule="evenodd" d="M460.875 359.196H515.433C515.433 343.945 503.22 331.581 488.154 331.581C473.089 331.581 460.875 343.945 460.875 359.196Z" fill="#B8FC03"/>
<path d="M481.607 331.414C481.607 330.209 482.584 329.232 483.79 329.232H492.519C493.724 329.232 494.701 330.209 494.701 331.414V348.872H481.607V331.414Z" fill="#B8FC03"/>
<path d="M494.701 349.964H495.793V348.872V331.414C495.793 329.606 494.327 328.14 492.519 328.14H483.79C481.982 328.14 480.516 329.606 480.516 331.414V348.872V349.964H481.607H494.701Z" stroke="#0F4C7F" stroke-width="2.18232"/>
<rect x="456.511" y="358.693" width="61.1051" height="4.36465" rx="2.18232" fill="#B8FC03"/>
<rect x="479.425" y="344.508" width="17.4586" height="6.54697" fill="#B8FC03"/>
</g>
</g>
<defs>
<filter id="filter0_f_4188_24677" x="117.08" y="-125.193" width="1077.29" height="1077.29" filterUnits="userSpaceOnUse" color-interpolation-filters="sRGB">
<feFlood flood-opacity="0" result="BackgroundImageFix"/>
<feBlend mode="normal" in="SourceGraphic" in2="BackgroundImageFix" result="shape"/>
<feGaussianBlur stdDeviation="109.185" result="effect1_foregroundBlur_4188_24677"/>
</filter>
<filter id="filter1_d_4188_24677" x="393.578" y="168.385" width="443.406" height="523.54" filterUnits="userSpaceOnUse" color-interpolation-filters="sRGB">
<feFlood flood-opacity="0" result="BackgroundImageFix"/>
<feColorMatrix in="SourceAlpha" type="matrix" values="0 0 0 0 0 0 0 0 0 0 0 0 0 0 0 0 0 0 127 0" result="hardAlpha"/>
<feOffset dy="17.8075"/>
<feGaussianBlur stdDeviation="26.7112"/>
<feComposite in2="hardAlpha" operator="out"/>
<feColorMatrix type="matrix" values="0 0 0 0 0.3125 0 0 0 0 0.283677 0 0 0 0 0.0455729 0 0 0 0.3 0"/>
<feBlend mode="normal" in2="BackgroundImageFix" result="effect1_dropShadow_4188_24677"/>
<feBlend mode="normal" in="SourceGraphic" in2="effect1_dropShadow_4188_24677" result="shape"/>
</filter>
<filter id="filter2_d_4188_24677" x="363.578" y="218.385" width="136.845" height="523.845" filterUnits="userSpaceOnUse" color-interpolation-filters="sRGB">
<feFlood flood-opacity="0" result="BackgroundImageFix"/>
<feColorMatrix in="SourceAlpha" type="matrix" values="0 0 0 0 0 0 0 0 0 0 0 0 0 0 0 0 0 0 127 0" result="hardAlpha"/>
<feOffset dy="17.8075"/>
<feGaussianBlur stdDeviation="26.7112"/>
<feComposite in2="hardAlpha" operator="out"/>
<feColorMatrix type="matrix" values="0 0 0 0 0.3125 0 0 0 0 0.283677 0 0 0 0 0.0455729 0 0 0 0.3 0"/>
<feBlend mode="normal" in2="BackgroundImageFix" result="effect1_dropShadow_4188_24677"/>
<feBlend mode="normal" in="SourceGraphic" in2="effect1_dropShadow_4188_24677" result="shape"/>
</filter>
<filter id="filter3_d_4188_24677" x="433.578" y="108.385" width="443.406" height="523.54" filterUnits="userSpaceOnUse" color-interpolation-filters="sRGB">
<feFlood flood-opacity="0" result="BackgroundImageFix"/>
<feColorMatrix in="SourceAlpha" type="matrix" values="0 0 0 0 0 0 0 0 0 0 0 0 0 0 0 0 0 0 127 0" result="hardAlpha"/>
<feOffset dy="17.8075"/>
<feGaussianBlur stdDeviation="26.7112"/>
<feComposite in2="hardAlpha" operator="out"/>
<feColorMatrix type="matrix" values="0 0 0 0 0.3125 0 0 0 0 0.283677 0 0 0 0 0.0455729 0 0 0 0.3 0"/>
<feBlend mode="normal" in2="BackgroundImageFix" result="effect1_dropShadow_4188_24677"/>
<feBlend mode="normal" in="SourceGraphic" in2="effect1_dropShadow_4188_24677" result="shape"/>
</filter>
<filter id="filter4_d_4188_24677" x="497.684" y="282.898" width="56.984" height="56.984" filterUnits="userSpaceOnUse" color-interpolation-filters="sRGB">
<feFlood flood-opacity="0" result="BackgroundImageFix"/>
<feColorMatrix in="SourceAlpha" type="matrix" values="0 0 0 0 0 0 0 0 0 0 0 0 0 0 0 0 0 0 127 0" result="hardAlpha"/>
<feOffset/>
<feGaussianBlur stdDeviation="3.5615"/>
<feComposite in2="hardAlpha" operator="out"/>
<feColorMatrix type="matrix" values="0 0 0 0 0 0 0 0 0 0 0 0 0 0 0 0 0 0 0.15 0"/>
<feBlend mode="normal" in2="BackgroundImageFix" result="effect1_dropShadow_4188_24677"/>
<feBlend mode="normal" in="SourceGraphic" in2="effect1_dropShadow_4188_24677" result="shape"/>
</filter>
<filter id="filter5_d_4188_24677" x="497.684" y="282.898" width="56.984" height="56.984" filterUnits="userSpaceOnUse" color-interpolation-filters="sRGB">
<feFlood flood-opacity="0" result="BackgroundImageFix"/>
<feColorMatrix in="SourceAlpha" type="matrix" values="0 0 0 0 0 0 0 0 0 0 0 0 0 0 0 0 0 0 127 0" result="hardAlpha"/>
<feOffset/>
<feGaussianBlur stdDeviation="3.5615"/>
<feComposite in2="hardAlpha" operator="out"/>
<feColorMatrix type="matrix" values="0 0 0 0 0 0 0 0 0 0 0 0 0 0 0 0 0 0 0.15 0"/>
<feBlend mode="normal" in2="BackgroundImageFix" result="effect1_dropShadow_4188_24677"/>
<feBlend mode="normal" in="SourceGraphic" in2="effect1_dropShadow_4188_24677" result="shape"/>
</filter>
<filter id="filter6_d_4188_24677" x="497.684" y="334.54" width="56.984" height="56.984" filterUnits="userSpaceOnUse" color-interpolation-filters="sRGB">
<feFlood flood-opacity="0" result="BackgroundImageFix"/>
<feColorMatrix in="SourceAlpha" type="matrix" values="0 0 0 0 0 0 0 0 0 0 0 0 0 0 0 0 0 0 127 0" result="hardAlpha"/>
<feOffset/>
<feGaussianBlur stdDeviation="3.5615"/>
<feComposite in2="hardAlpha" operator="out"/>
<feColorMatrix type="matrix" values="0 0 0 0 0 0 0 0 0 0 0 0 0 0 0 0 0 0 0.15 0"/>
<feBlend mode="normal" in2="BackgroundImageFix" result="effect1_dropShadow_4188_24677"/>
<feBlend mode="normal" in="SourceGraphic" in2="effect1_dropShadow_4188_24677" result="shape"/>
</filter>
<filter id="filter7_d_4188_24677" x="497.684" y="386.182" width="56.984" height="56.984" filterUnits="userSpaceOnUse" color-interpolation-filters="sRGB">
<feFlood flood-opacity="0" result="BackgroundImageFix"/>
<feColorMatrix in="SourceAlpha" type="matrix" values="0 0 0 0 0 0 0 0 0 0 0 0 0 0 0 0 0 0 127 0" result="hardAlpha"/>
<feOffset/>
<feGaussianBlur stdDeviation="3.5615"/>
<feComposite in2="hardAlpha" operator="out"/>
<feColorMatrix type="matrix" values="0 0 0 0 0 0 0 0 0 0 0 0 0 0 0 0 0 0 0.15 0"/>
<feBlend mode="normal" in2="BackgroundImageFix" result="effect1_dropShadow_4188_24677"/>
<feBlend mode="normal" in="SourceGraphic" in2="effect1_dropShadow_4188_24677" result="shape"/>
</filter>
<filter id="filter8_d_4188_24677" x="497.684" y="437.824" width="56.984" height="56.984" filterUnits="userSpaceOnUse" color-interpolation-filters="sRGB">
<feFlood flood-opacity="0" result="BackgroundImageFix"/>
<feColorMatrix in="SourceAlpha" type="matrix" values="0 0 0 0 0 0 0 0 0 0 0 0 0 0 0 0 0 0 127 0" result="hardAlpha"/>
<feOffset/>
<feGaussianBlur stdDeviation="3.5615"/>
<feComposite in2="hardAlpha" operator="out"/>
<feColorMatrix type="matrix" values="0 0 0 0 0 0 0 0 0 0 0 0 0 0 0 0 0 0 0.15 0"/>
<feBlend mode="normal" in2="BackgroundImageFix" result="effect1_dropShadow_4188_24677"/>
<feBlend mode="normal" in="SourceGraphic" in2="effect1_dropShadow_4188_24677" result="shape"/>
</filter>
<filter id="filter9_d_4188_24677" x="704.251" y="282.898" width="56.984" height="56.984" filterUnits="userSpaceOnUse" color-interpolation-filters="sRGB">
<feFlood flood-opacity="0" result="BackgroundImageFix"/>
<feColorMatrix in="SourceAlpha" type="matrix" values="0 0 0 0 0 0 0 0 0 0 0 0 0 0 0 0 0 0 127 0" result="hardAlpha"/>
<feOffset/>
<feGaussianBlur stdDeviation="3.5615"/>
<feComposite in2="hardAlpha" operator="out"/>
<feColorMatrix type="matrix" values="0 0 0 0 0 0 0 0 0 0 0 0 0 0 0 0 0 0 0.15 0"/>
<feBlend mode="normal" in2="BackgroundImageFix" result="effect1_dropShadow_4188_24677"/>
<feBlend mode="normal" in="SourceGraphic" in2="effect1_dropShadow_4188_24677" result="shape"/>
</filter>
<filter id="filter10_d_4188_24677" x="704.251" y="282.898" width="56.984" height="56.984" filterUnits="userSpaceOnUse" color-interpolation-filters="sRGB">
<feFlood flood-opacity="0" result="BackgroundImageFix"/>
<feColorMatrix in="SourceAlpha" type="matrix" values="0 0 0 0 0 0 0 0 0 0 0 0 0 0 0 0 0 0 127 0" result="hardAlpha"/>
<feOffset/>
<feGaussianBlur stdDeviation="3.5615"/>
<feComposite in2="hardAlpha" operator="out"/>
<feColorMatrix type="matrix" values="0 0 0 0 0 0 0 0 0 0 0 0 0 0 0 0 0 0 0.15 0"/>
<feBlend mode="normal" in2="BackgroundImageFix" result="effect1_dropShadow_4188_24677"/>
<feBlend mode="normal" in="SourceGraphic" in2="effect1_dropShadow_4188_24677" result="shape"/>
</filter>
<filter id="filter11_d_4188_24677" x="704.251" y="334.54" width="56.984" height="56.984" filterUnits="userSpaceOnUse" color-interpolation-filters="sRGB">
<feFlood flood-opacity="0" result="BackgroundImageFix"/>
<feColorMatrix in="SourceAlpha" type="matrix" values="0 0 0 0 0 0 0 0 0 0 0 0 0 0 0 0 0 0 127 0" result="hardAlpha"/>
<feOffset/>
<feGaussianBlur stdDeviation="3.5615"/>
<feComposite in2="hardAlpha" operator="out"/>
<feColorMatrix type="matrix" values="0 0 0 0 0 0 0 0 0 0 0 0 0 0 0 0 0 0 0.15 0"/>
<feBlend mode="normal" in2="BackgroundImageFix" result="effect1_dropShadow_4188_24677"/>
<feBlend mode="normal" in="SourceGraphic" in2="effect1_dropShadow_4188_24677" result="shape"/>
</filter>
<filter id="filter12_d_4188_24677" x="704.251" y="386.182" width="56.984" height="56.984" filterUnits="userSpaceOnUse" color-interpolation-filters="sRGB">
<feFlood flood-opacity="0" result="BackgroundImageFix"/>
<feColorMatrix in="SourceAlpha" type="matrix" values="0 0 0 0 0 0 0 0 0 0 0 0 0 0 0 0 0 0 127 0" result="hardAlpha"/>
<feOffset/>
<feGaussianBlur stdDeviation="3.5615"/>
<feComposite in2="hardAlpha" operator="out"/>
<feColorMatrix type="matrix" values="0 0 0 0 0 0 0 0 0 0 0 0 0 0 0 0 0 0 0.15 0"/>
<feBlend mode="normal" in2="BackgroundImageFix" result="effect1_dropShadow_4188_24677"/>
<feBlend mode="normal" in="SourceGraphic" in2="effect1_dropShadow_4188_24677" result="shape"/>
</filter>
<filter id="filter13_d_4188_24677" x="704.251" y="437.823" width="56.984" height="56.984" filterUnits="userSpaceOnUse" color-interpolation-filters="sRGB">
<feFlood flood-opacity="0" result="BackgroundImageFix"/>
<feColorMatrix in="SourceAlpha" type="matrix" values="0 0 0 0 0 0 0 0 0 0 0 0 0 0 0 0 0 0 127 0" result="hardAlpha"/>
<feOffset/>
<feGaussianBlur stdDeviation="3.5615"/>
<feComposite in2="hardAlpha" operator="out"/>
<feColorMatrix type="matrix" values="0 0 0 0 0 0 0 0 0 0 0 0 0 0 0 0 0 0 0.15 0"/>
<feBlend mode="normal" in2="BackgroundImageFix" result="effect1_dropShadow_4188_24677"/>
<feBlend mode="normal" in="SourceGraphic" in2="effect1_dropShadow_4188_24677" result="shape"/>
</filter>
<filter id="filter14_d_4188_24677" x="600.968" y="282.898" width="56.984" height="56.984" filterUnits="userSpaceOnUse" color-interpolation-filters="sRGB">
<feFlood flood-opacity="0" result="BackgroundImageFix"/>
<feColorMatrix in="SourceAlpha" type="matrix" values="0 0 0 0 0 0 0 0 0 0 0 0 0 0 0 0 0 0 127 0" result="hardAlpha"/>
<feOffset/>
<feGaussianBlur stdDeviation="3.5615"/>
<feComposite in2="hardAlpha" operator="out"/>
<feColorMatrix type="matrix" values="0 0 0 0 0 0 0 0 0 0 0 0 0 0 0 0 0 0 0.15 0"/>
<feBlend mode="normal" in2="BackgroundImageFix" result="effect1_dropShadow_4188_24677"/>
<feBlend mode="normal" in="SourceGraphic" in2="effect1_dropShadow_4188_24677" result="shape"/>
</filter>
<filter id="filter15_d_4188_24677" x="600.968" y="282.898" width="56.984" height="56.984" filterUnits="userSpaceOnUse" color-interpolation-filters="sRGB">
<feFlood flood-opacity="0" result="BackgroundImageFix"/>
<feColorMatrix in="SourceAlpha" type="matrix" values="0 0 0 0 0 0 0 0 0 0 0 0 0 0 0 0 0 0 127 0" result="hardAlpha"/>
<feOffset/>
<feGaussianBlur stdDeviation="3.5615"/>
<feComposite in2="hardAlpha" operator="out"/>
<feColorMatrix type="matrix" values="0 0 0 0 0 0 0 0 0 0 0 0 0 0 0 0 0 0 0.15 0"/>
<feBlend mode="normal" in2="BackgroundImageFix" result="effect1_dropShadow_4188_24677"/>
<feBlend mode="normal" in="SourceGraphic" in2="effect1_dropShadow_4188_24677" result="shape"/>
</filter>
<filter id="filter16_d_4188_24677" x="600.968" y="334.54" width="56.984" height="56.984" filterUnits="userSpaceOnUse" color-interpolation-filters="sRGB">
<feFlood flood-opacity="0" result="BackgroundImageFix"/>
<feColorMatrix in="SourceAlpha" type="matrix" values="0 0 0 0 0 0 0 0 0 0 0 0 0 0 0 0 0 0 127 0" result="hardAlpha"/>
<feOffset/>
<feGaussianBlur stdDeviation="3.5615"/>
<feComposite in2="hardAlpha" operator="out"/>
<feColorMatrix type="matrix" values="0 0 0 0 0 0 0 0 0 0 0 0 0 0 0 0 0 0 0.15 0"/>
<feBlend mode="normal" in2="BackgroundImageFix" result="effect1_dropShadow_4188_24677"/>
<feBlend mode="normal" in="SourceGraphic" in2="effect1_dropShadow_4188_24677" result="shape"/>
</filter>
<filter id="filter17_d_4188_24677" x="600.968" y="334.54" width="56.984" height="56.984" filterUnits="userSpaceOnUse" color-interpolation-filters="sRGB">
<feFlood flood-opacity="0" result="BackgroundImageFix"/>
<feColorMatrix in="SourceAlpha" type="matrix" values="0 0 0 0 0 0 0 0 0 0 0 0 0 0 0 0 0 0 127 0" result="hardAlpha"/>
<feOffset/>
<feGaussianBlur stdDeviation="3.5615"/>
<feComposite in2="hardAlpha" operator="out"/>
<feColorMatrix type="matrix" values="0 0 0 0 0 0 0 0 0 0 0 0 0 0 0 0 0 0 0.15 0"/>
<feBlend mode="normal" in2="BackgroundImageFix" result="effect1_dropShadow_4188_24677"/>
<feBlend mode="normal" in="SourceGraphic" in2="effect1_dropShadow_4188_24677" result="shape"/>
</filter>
<filter id="filter18_d_4188_24677" x="600.968" y="386.182" width="56.984" height="56.984" filterUnits="userSpaceOnUse" color-interpolation-filters="sRGB">
<feFlood flood-opacity="0" result="BackgroundImageFix"/>
<feColorMatrix in="SourceAlpha" type="matrix" values="0 0 0 0 0 0 0 0 0 0 0 0 0 0 0 0 0 0 127 0" result="hardAlpha"/>
<feOffset/>
<feGaussianBlur stdDeviation="3.5615"/>
<feComposite in2="hardAlpha" operator="out"/>
<feColorMatrix type="matrix" values="0 0 0 0 0 0 0 0 0 0 0 0 0 0 0 0 0 0 0.15 0"/>
<feBlend mode="normal" in2="BackgroundImageFix" result="effect1_dropShadow_4188_24677"/>
<feBlend mode="normal" in="SourceGraphic" in2="effect1_dropShadow_4188_24677" result="shape"/>
</filter>
<filter id="filter19_d_4188_24677" x="600.968" y="437.824" width="56.984" height="56.984" filterUnits="userSpaceOnUse" color-interpolation-filters="sRGB">
<feFlood flood-opacity="0" result="BackgroundImageFix"/>
<feColorMatrix in="SourceAlpha" type="matrix" values="0 0 0 0 0 0 0 0 0 0 0 0 0 0 0 0 0 0 127 0" result="hardAlpha"/>
<feOffset/>
<feGaussianBlur stdDeviation="3.5615"/>
<feComposite in2="hardAlpha" operator="out"/>
<feColorMatrix type="matrix" values="0 0 0 0 0 0 0 0 0 0 0 0 0 0 0 0 0 0 0.15 0"/>
<feBlend mode="normal" in2="BackgroundImageFix" result="effect1_dropShadow_4188_24677"/>
<feBlend mode="normal" in="SourceGraphic" in2="effect1_dropShadow_4188_24677" result="shape"/>
</filter>
<filter id="filter20_d_4188_24677" x="600.968" y="437.824" width="56.984" height="56.984" filterUnits="userSpaceOnUse" color-interpolation-filters="sRGB">
<feFlood flood-opacity="0" result="BackgroundImageFix"/>
<feColorMatrix in="SourceAlpha" type="matrix" values="0 0 0 0 0 0 0 0 0 0 0 0 0 0 0 0 0 0 127 0" result="hardAlpha"/>
<feOffset/>
<feGaussianBlur stdDeviation="3.5615"/>
<feComposite in2="hardAlpha" operator="out"/>
<feColorMatrix type="matrix" values="0 0 0 0 0 0 0 0 0 0 0 0 0 0 0 0 0 0 0.15 0"/>
<feBlend mode="normal" in2="BackgroundImageFix" result="effect1_dropShadow_4188_24677"/>
<feBlend mode="normal" in="SourceGraphic" in2="effect1_dropShadow_4188_24677" result="shape"/>
</filter>
<filter id="filter21_d_4188_24677" x="549.326" y="282.898" width="56.984" height="56.984" filterUnits="userSpaceOnUse" color-interpolation-filters="sRGB">
<feFlood flood-opacity="0" result="BackgroundImageFix"/>
<feColorMatrix in="SourceAlpha" type="matrix" values="0 0 0 0 0 0 0 0 0 0 0 0 0 0 0 0 0 0 127 0" result="hardAlpha"/>
<feOffset/>
<feGaussianBlur stdDeviation="3.5615"/>
<feComposite in2="hardAlpha" operator="out"/>
<feColorMatrix type="matrix" values="0 0 0 0 0 0 0 0 0 0 0 0 0 0 0 0 0 0 0.15 0"/>
<feBlend mode="normal" in2="BackgroundImageFix" result="effect1_dropShadow_4188_24677"/>
<feBlend mode="normal" in="SourceGraphic" in2="effect1_dropShadow_4188_24677" result="shape"/>
</filter>
<filter id="filter22_d_4188_24677" x="549.326" y="334.54" width="56.984" height="56.984" filterUnits="userSpaceOnUse" color-interpolation-filters="sRGB">
<feFlood flood-opacity="0" result="BackgroundImageFix"/>
<feColorMatrix in="SourceAlpha" type="matrix" values="0 0 0 0 0 0 0 0 0 0 0 0 0 0 0 0 0 0 127 0" result="hardAlpha"/>
<feOffset/>
<feGaussianBlur stdDeviation="3.5615"/>
<feComposite in2="hardAlpha" operator="out"/>
<feColorMatrix type="matrix" values="0 0 0 0 0 0 0 0 0 0 0 0 0 0 0 0 0 0 0.15 0"/>
<feBlend mode="normal" in2="BackgroundImageFix" result="effect1_dropShadow_4188_24677"/>
<feBlend mode="normal" in="SourceGraphic" in2="effect1_dropShadow_4188_24677" result="shape"/>
</filter>
<filter id="filter23_d_4188_24677" x="549.326" y="386.182" width="56.984" height="56.984" filterUnits="userSpaceOnUse" color-interpolation-filters="sRGB">
<feFlood flood-opacity="0" result="BackgroundImageFix"/>
<feColorMatrix in="SourceAlpha" type="matrix" values="0 0 0 0 0 0 0 0 0 0 0 0 0 0 0 0 0 0 127 0" result="hardAlpha"/>
<feOffset/>
<feGaussianBlur stdDeviation="3.5615"/>
<feComposite in2="hardAlpha" operator="out"/>
<feColorMatrix type="matrix" values="0 0 0 0 0 0 0 0 0 0 0 0 0 0 0 0 0 0 0.15 0"/>
<feBlend mode="normal" in2="BackgroundImageFix" result="effect1_dropShadow_4188_24677"/>
<feBlend mode="normal" in="SourceGraphic" in2="effect1_dropShadow_4188_24677" result="shape"/>
</filter>
<filter id="filter24_d_4188_24677" x="549.326" y="437.823" width="56.984" height="56.984" filterUnits="userSpaceOnUse" color-interpolation-filters="sRGB">
<feFlood flood-opacity="0" result="BackgroundImageFix"/>
<feColorMatrix in="SourceAlpha" type="matrix" values="0 0 0 0 0 0 0 0 0 0 0 0 0 0 0 0 0 0 127 0" result="hardAlpha"/>
<feOffset/>
<feGaussianBlur stdDeviation="3.5615"/>
<feComposite in2="hardAlpha" operator="out"/>
<feColorMatrix type="matrix" values="0 0 0 0 0 0 0 0 0 0 0 0 0 0 0 0 0 0 0.15 0"/>
<feBlend mode="normal" in2="BackgroundImageFix" result="effect1_dropShadow_4188_24677"/>
<feBlend mode="normal" in="SourceGraphic" in2="effect1_dropShadow_4188_24677" result="shape"/>
</filter>
<filter id="filter25_d_4188_24677" x="755.893" y="282.898" width="56.984" height="56.984" filterUnits="userSpaceOnUse" color-interpolation-filters="sRGB">
<feFlood flood-opacity="0" result="BackgroundImageFix"/>
<feColorMatrix in="SourceAlpha" type="matrix" values="0 0 0 0 0 0 0 0 0 0 0 0 0 0 0 0 0 0 127 0" result="hardAlpha"/>
<feOffset/>
<feGaussianBlur stdDeviation="3.5615"/>
<feComposite in2="hardAlpha" operator="out"/>
<feColorMatrix type="matrix" values="0 0 0 0 0 0 0 0 0 0 0 0 0 0 0 0 0 0 0.15 0"/>
<feBlend mode="normal" in2="BackgroundImageFix" result="effect1_dropShadow_4188_24677"/>
<feBlend mode="normal" in="SourceGraphic" in2="effect1_dropShadow_4188_24677" result="shape"/>
</filter>
<filter id="filter26_d_4188_24677" x="755.893" y="334.54" width="56.984" height="56.984" filterUnits="userSpaceOnUse" color-interpolation-filters="sRGB">
<feFlood flood-opacity="0" result="BackgroundImageFix"/>
<feColorMatrix in="SourceAlpha" type="matrix" values="0 0 0 0 0 0 0 0 0 0 0 0 0 0 0 0 0 0 127 0" result="hardAlpha"/>
<feOffset/>
<feGaussianBlur stdDeviation="3.5615"/>
<feComposite in2="hardAlpha" operator="out"/>
<feColorMatrix type="matrix" values="0 0 0 0 0 0 0 0 0 0 0 0 0 0 0 0 0 0 0.15 0"/>
<feBlend mode="normal" in2="BackgroundImageFix" result="effect1_dropShadow_4188_24677"/>
<feBlend mode="normal" in="SourceGraphic" in2="effect1_dropShadow_4188_24677" result="shape"/>
</filter>
<filter id="filter27_d_4188_24677" x="755.893" y="386.182" width="56.984" height="56.984" filterUnits="userSpaceOnUse" color-interpolation-filters="sRGB">
<feFlood flood-opacity="0" result="BackgroundImageFix"/>
<feColorMatrix in="SourceAlpha" type="matrix" values="0 0 0 0 0 0 0 0 0 0 0 0 0 0 0 0 0 0 127 0" result="hardAlpha"/>
<feOffset/>
<feGaussianBlur stdDeviation="3.5615"/>
<feComposite in2="hardAlpha" operator="out"/>
<feColorMatrix type="matrix" values="0 0 0 0 0 0 0 0 0 0 0 0 0 0 0 0 0 0 0.15 0"/>
<feBlend mode="normal" in2="BackgroundImageFix" result="effect1_dropShadow_4188_24677"/>
<feBlend mode="normal" in="SourceGraphic" in2="effect1_dropShadow_4188_24677" result="shape"/>
</filter>
<filter id="filter28_d_4188_24677" x="755.893" y="437.823" width="56.984" height="56.984" filterUnits="userSpaceOnUse" color-interpolation-filters="sRGB">
<feFlood flood-opacity="0" result="BackgroundImageFix"/>
<feColorMatrix in="SourceAlpha" type="matrix" values="0 0 0 0 0 0 0 0 0 0 0 0 0 0 0 0 0 0 127 0" result="hardAlpha"/>
<feOffset/>
<feGaussianBlur stdDeviation="3.5615"/>
<feComposite in2="hardAlpha" operator="out"/>
<feColorMatrix type="matrix" values="0 0 0 0 0 0 0 0 0 0 0 0 0 0 0 0 0 0 0.15 0"/>
<feBlend mode="normal" in2="BackgroundImageFix" result="effect1_dropShadow_4188_24677"/>
<feBlend mode="normal" in="SourceGraphic" in2="effect1_dropShadow_4188_24677" result="shape"/>
</filter>
<filter id="filter29_d_4188_24677" x="652.61" y="282.898" width="56.984" height="56.984" filterUnits="userSpaceOnUse" color-interpolation-filters="sRGB">
<feFlood flood-opacity="0" result="BackgroundImageFix"/>
<feColorMatrix in="SourceAlpha" type="matrix" values="0 0 0 0 0 0 0 0 0 0 0 0 0 0 0 0 0 0 127 0" result="hardAlpha"/>
<feOffset/>
<feGaussianBlur stdDeviation="3.5615"/>
<feComposite in2="hardAlpha" operator="out"/>
<feColorMatrix type="matrix" values="0 0 0 0 0 0 0 0 0 0 0 0 0 0 0 0 0 0 0.15 0"/>
<feBlend mode="normal" in2="BackgroundImageFix" result="effect1_dropShadow_4188_24677"/>
<feBlend mode="normal" in="SourceGraphic" in2="effect1_dropShadow_4188_24677" result="shape"/>
</filter>
<filter id="filter30_d_4188_24677" x="652.61" y="334.54" width="56.984" height="56.984" filterUnits="userSpaceOnUse" color-interpolation-filters="sRGB">
<feFlood flood-opacity="0" result="BackgroundImageFix"/>
<feColorMatrix in="SourceAlpha" type="matrix" values="0 0 0 0 0 0 0 0 0 0 0 0 0 0 0 0 0 0 127 0" result="hardAlpha"/>
<feOffset/>
<feGaussianBlur stdDeviation="3.5615"/>
<feComposite in2="hardAlpha" operator="out"/>
<feColorMatrix type="matrix" values="0 0 0 0 0 0 0 0 0 0 0 0 0 0 0 0 0 0 0.15 0"/>
<feBlend mode="normal" in2="BackgroundImageFix" result="effect1_dropShadow_4188_24677"/>
<feBlend mode="normal" in="SourceGraphic" in2="effect1_dropShadow_4188_24677" result="shape"/>
</filter>
<filter id="filter31_d_4188_24677" x="652.61" y="386.182" width="56.984" height="56.984" filterUnits="userSpaceOnUse" color-interpolation-filters="sRGB">
<feFlood flood-opacity="0" result="BackgroundImageFix"/>
<feColorMatrix in="SourceAlpha" type="matrix" values="0 0 0 0 0 0 0 0 0 0 0 0 0 0 0 0 0 0 127 0" result="hardAlpha"/>
<feOffset/>
<feGaussianBlur stdDeviation="3.5615"/>
<feComposite in2="hardAlpha" operator="out"/>
<feColorMatrix type="matrix" values="0 0 0 0 0 0 0 0 0 0 0 0 0 0 0 0 0 0 0.15 0"/>
<feBlend mode="normal" in2="BackgroundImageFix" result="effect1_dropShadow_4188_24677"/>
<feBlend mode="normal" in="SourceGraphic" in2="effect1_dropShadow_4188_24677" result="shape"/>
</filter>
<filter id="filter32_d_4188_24677" x="652.61" y="437.823" width="56.984" height="56.984" filterUnits="userSpaceOnUse" color-interpolation-filters="sRGB">
<feFlood flood-opacity="0" result="BackgroundImageFix"/>
<feColorMatrix in="SourceAlpha" type="matrix" values="0 0 0 0 0 0 0 0 0 0 0 0 0 0 0 0 0 0 127 0" result="hardAlpha"/>
<feOffset/>
<feGaussianBlur stdDeviation="3.5615"/>
<feComposite in2="hardAlpha" operator="out"/>
<feColorMatrix type="matrix" values="0 0 0 0 0 0 0 0 0 0 0 0 0 0 0 0 0 0 0.15 0"/>
<feBlend mode="normal" in2="BackgroundImageFix" result="effect1_dropShadow_4188_24677"/>
<feBlend mode="normal" in="SourceGraphic" in2="effect1_dropShadow_4188_24677" result="shape"/>
</filter>
<filter id="filter33_d_4188_24677" x="326.663" y="226.663" width="322.984" height="322.984" filterUnits="userSpaceOnUse" color-interpolation-filters="sRGB">
<feFlood flood-opacity="0" result="BackgroundImageFix"/>
<feColorMatrix in="SourceAlpha" type="matrix" values="0 0 0 0 0 0 0 0 0 0 0 0 0 0 0 0 0 0 127 0" result="hardAlpha"/>
<feOffset/>
<feGaussianBlur stdDeviation="21.8232"/>
<feComposite in2="hardAlpha" operator="out"/>
<feColorMatrix type="matrix" values="0 0 0 0 0.142066 0 0 0 0 0.176699 0 0 0 0 0.204167 0 0 0 0.2 0"/>
<feBlend mode="normal" in2="BackgroundImageFix" result="effect1_dropShadow_4188_24677"/>
<feBlend mode="normal" in="SourceGraphic" in2="effect1_dropShadow_4188_24677" result="shape"/>
</filter>
<linearGradient id="paint0_linear_4188_24677" x1="488.155" y1="303.044" x2="488.155" y2="454.715" gradientUnits="userSpaceOnUse">
<stop stop-color="#011E35" stop-opacity="0"/>
<stop offset="1" stop-color="#011E35"/>
</linearGradient>
<clipPath id="clip0_4188_24677">
<rect width="760" height="560" rx="8" fill="white"/>
</clipPath>
<clipPath id="clip1_4188_24677">
<rect width="346" height="104" fill="white" transform="translate(48 48)"/>
</clipPath>
</defs>
</svg>
