<svg width="760" height="560" viewBox="0 0 760 560" fill="none" xmlns="http://www.w3.org/2000/svg">
<g clip-path="url(#clip0_4188_24677)">
<rect width="760" height="560" rx="8" fill="#011E35"/>
<g clip-path="url(#clip1_4188_24677)">
<path d="M207.506 80.1484C207.442 80.2653 207.391 80.3887 207.354 80.5164C206.427 80.5164 203.966 80.3895 201.504 80.5164C201.408 80.4442 201.301 80.3884 201.187 80.3514C199.894 76.798 198.222 73.3942 196.201 70.1989C195.479 70.8096 194.696 71.3454 193.866 71.7979C193.468 71.9799 193.082 72.1876 192.711 72.4198C192.759 75.0206 192.941 77.6172 193.257 80.1992C193.172 80.2762 193.099 80.3661 193.041 80.4657C192.572 80.4657 191.43 80.3641 190.503 80.3641C189.577 80.3641 188.689 80.4276 188.258 80.453C188.203 80.3701 188.139 80.2935 188.067 80.2245C188.067 80.2245 188.385 74.628 188.385 69.1583C188.385 63.6886 188.067 58.0666 188.067 58.0666C188.138 57.9969 188.202 57.9204 188.258 57.8382C188.664 57.8382 189.628 57.927 190.542 57.927C191.455 57.927 192.419 57.927 192.838 57.8382C192.894 57.9204 192.958 57.9969 193.028 58.0666C193.028 58.0666 192.737 62.3815 192.711 68.2192C193.883 67.4616 194.928 66.5236 195.807 65.4399C197.709 63.2537 199.177 60.7256 200.134 57.9905C200.245 57.9456 200.345 57.8762 200.426 57.7874C202.092 57.9593 203.771 57.9593 205.438 57.7874C205.472 57.8716 205.515 57.9524 205.565 58.0286C203.964 61.5339 201.795 64.75 199.144 67.5466C200.248 69.4375 203.56 74.6026 207.506 80.1484ZM297.188 58.2443L296.997 58.0159C296.591 58.0159 295.627 58.1047 294.739 58.1047C293.85 58.1047 292.861 58.0413 292.455 58.0159L292.277 58.2443C292.277 58.2443 292.518 62.5845 292.582 67.3943C291.313 67.3943 289.841 67.4704 288.191 67.4704C286.542 67.4704 285.057 67.4704 283.827 67.3943C283.827 62.0515 284.131 58.2443 284.131 58.2443C284.06 58.1746 283.997 58.0981 283.941 58.0159C283.535 58.0159 282.57 58.1047 281.67 58.1047C280.769 58.1047 279.804 58.0413 279.398 58.0159C279.343 58.0981 279.279 58.1746 279.208 58.2443C279.208 58.2443 279.424 63.7267 279.424 69.2344C279.424 74.7422 279.107 80.2245 279.107 80.2245C279.195 80.292 279.272 80.3734 279.335 80.4657C279.754 80.4657 280.693 80.3768 281.568 80.3768C282.444 80.3768 283.611 80.4403 284.106 80.4657L284.309 80.1992C283.951 77.1876 283.764 74.1581 283.751 71.1253H292.493C292.493 75.8843 292.201 80.2245 292.201 80.2245C292.289 80.2888 292.363 80.371 292.417 80.4657C292.848 80.4657 293.774 80.3768 294.663 80.3768C295.551 80.3768 296.693 80.4403 297.2 80.4657C297.26 80.3709 297.328 80.2817 297.403 80.1992C296.981 76.56 296.79 72.8977 296.832 69.2344C296.82 62.9525 297.188 58.2443 297.188 58.2443ZM216.261 61.6962V67.4704C216.261 71.8487 215.994 78.892 215.944 80.2499C216.036 80.3116 216.122 80.384 216.197 80.4657C216.629 80.4657 217.542 80.3768 218.405 80.3768C219.268 80.3768 220.258 80.4403 220.676 80.4657C220.729 80.3734 220.793 80.2882 220.867 80.2119C220.803 78.7524 220.55 71.7979 220.55 67.5212V61.7469C224.483 61.7469 226.145 61.8611 226.653 61.8992L226.818 61.7089C226.742 61.1251 226.551 59.3357 226.526 58.0666C226.465 58.0116 226.414 57.9474 226.374 57.8763C225.65 57.8763 222.402 58.1174 218.367 58.1174C214.332 58.1174 211.3 57.9397 210.437 57.889C210.37 57.9701 210.293 58.0425 210.209 58.1047C210.209 59.3738 209.993 61.1124 209.917 61.7089C209.992 61.7591 210.057 61.8238 210.107 61.8992C210.716 61.8104 212.391 61.7215 216.261 61.6962ZM363.535 54.7036C366.395 54.3989 369.278 54.3989 372.138 54.7036C372.182 54.6354 372.233 54.5717 372.29 54.5133C372.454 53.2851 372.695 52.0685 373.013 50.871L372.874 50.6934C372.506 50.6934 371.224 50.8456 367.798 50.8456C364.373 50.8456 363.129 50.7314 362.723 50.6934L362.584 50.871C362.902 52.0685 363.143 53.2851 363.307 54.5133C363.39 54.5675 363.467 54.6314 363.535 54.7036ZM321.384 58.2443L321.194 58.0159C320.788 58.0159 319.824 58.1047 318.935 58.1047C318.047 58.1047 317.058 58.0413 316.652 58.0159L316.474 58.2443C316.474 58.2443 316.715 62.5845 316.766 67.3943C315.497 67.3943 314.038 67.4704 312.388 67.4704C310.739 67.4704 309.242 67.4704 308.023 67.3943C308.023 62.0515 308.328 58.2443 308.328 58.2443C308.257 58.1746 308.193 58.0981 308.138 58.0159C307.719 58.0159 306.767 58.1047 305.866 58.1047C304.965 58.1047 304.001 58.0413 303.595 58.0159C303.539 58.0981 303.476 58.1746 303.405 58.2443C303.405 58.2443 303.722 63.7647 303.722 69.2344C303.722 74.7041 303.405 80.2245 303.405 80.2245C303.494 80.292 303.571 80.3734 303.633 80.4657C304.052 80.4657 304.991 80.3768 305.866 80.3768C306.742 80.3768 307.909 80.4403 308.404 80.4657L308.607 80.2245C308.249 77.213 308.062 74.1835 308.049 71.1507H316.791C316.791 75.9097 316.499 80.2499 316.499 80.2499C316.584 80.3177 316.657 80.3992 316.715 80.491C317.146 80.491 318.073 80.4022 318.961 80.4022C319.849 80.4022 320.991 80.4657 321.499 80.491C321.558 80.3963 321.626 80.3071 321.702 80.2245C321.279 76.5854 321.088 72.9231 321.131 69.2598C321.08 62.9525 321.384 58.2443 321.384 58.2443ZM234.545 109.185C234.741 110.365 235 111.534 235.319 112.687C235.241 112.763 235.172 112.848 235.116 112.941C233.847 112.941 228.087 112.776 222.339 112.776C216.591 112.776 210.919 112.916 209.549 112.941C209.496 112.845 209.428 112.759 209.346 112.687C209.671 111.535 209.933 110.365 210.132 109.185C210.252 109.114 210.359 109.024 210.45 108.918H212.683C216.4 101.799 219.496 94.6665 220.296 92.6614C220.055 92.0649 219.89 91.6208 219.776 91.3923C219.86 91.2753 219.929 91.1472 219.979 91.0116C221.308 90.6359 222.613 90.1781 223.887 89.641C224.018 89.7055 224.16 89.7443 224.305 89.7552C224.711 91.0243 226.069 94.73 227.706 99.1209C228.835 102.103 230.535 106.101 231.817 108.944H234.152C234.268 109.045 234.401 109.127 234.545 109.185ZM222.339 109.185H226.462C225.714 106.913 224.686 103.905 223.684 101.291C223.176 100.022 222.719 98.8164 222.288 97.725C220.207 102.091 218.291 106.329 217.022 109.147C218.875 109.121 220.803 109.147 222.326 109.147L222.339 109.185ZM135.22 90.0217C133.177 90.1862 131.127 90.2371 129.079 90.174H125.209C124.308 90.174 123.331 90.174 122.938 90.0852C122.882 90.1674 122.818 90.2439 122.747 90.3136C122.747 90.3136 123.065 95.8341 123.065 101.316C123.065 106.799 122.747 112.294 122.747 112.294C122.833 112.365 122.91 112.446 122.976 112.535C123.395 112.535 124.333 112.446 125.209 112.446C126.084 112.446 127.252 112.446 127.747 112.548C127.807 112.45 127.875 112.356 127.95 112.268C127.527 108.634 127.336 104.976 127.379 101.316C127.379 98.3341 127.379 95.7071 127.455 93.7655C131.008 93.7655 134.129 93.9431 134.941 93.9939C135.009 93.9131 135.091 93.8445 135.182 93.7909C135.182 92.5218 135.372 90.8339 135.449 90.2121C135.362 90.1621 135.285 90.0977 135.22 90.0217ZM173.818 76.6965C173.818 74.9706 173.717 72.8893 173.704 70.8208C176.394 70.8208 178.183 70.9857 178.779 71.0238C178.833 70.9552 178.898 70.8952 178.97 70.8461C178.894 70.2624 178.703 68.4857 178.691 67.2166C178.596 67.1678 178.51 67.1035 178.437 67.0262C177.802 67.1024 176.051 67.2674 173.717 67.3562V61.7977C178.665 61.7977 180.974 61.8992 181.609 61.95C181.667 61.8621 181.74 61.7849 181.825 61.7215C181.748 61.0997 181.571 59.3738 181.545 58.1428C181.458 58.089 181.381 58.0203 181.317 57.9397C180.492 57.9397 177.295 58.1682 173.704 58.1682H172.156C171.293 58.1682 170.177 58.0793 169.618 58.0413C169.516 58.1429 169.395 58.2247 169.263 58.2824C169.263 59.5514 169.568 64.9957 169.568 69.2471C169.568 73.4985 169.327 78.9047 169.263 80.2119C169.363 80.2845 169.449 80.3748 169.517 80.4784L171.319 80.3641C172.714 80.288 173.996 80.3641 173.996 80.3641C179.198 80.3641 181.507 80.4657 182.091 80.5037L182.269 80.3261C182.269 78.6382 182.637 76.5189 182.637 76.5189C182.56 76.4549 182.495 76.3775 182.446 76.2904C181.584 76.227 177.549 76.6838 173.818 76.6965ZM247.195 65.8587C247.195 72.0771 242.551 73.9173 238.973 73.9173C237.982 73.9212 236.993 73.8062 236.029 73.5746C236.106 76.6458 236.182 79.4123 236.207 80.2372C236.133 80.3041 236.069 80.381 236.017 80.4657C235.611 80.4657 234.646 80.3768 233.746 80.3768C232.845 80.3768 231.906 80.4403 231.487 80.4657C231.43 80.3772 231.361 80.2962 231.284 80.2245C231.347 78.9555 231.589 73.5239 231.589 69.2344C231.589 64.945 231.335 59.6403 231.284 58.4981C231.346 58.4185 231.401 58.3335 231.449 58.2443C231.665 58.2443 232.033 58.1809 232.477 58.1555C234.186 57.9473 235.906 57.833 237.628 57.8128C243.668 57.8128 247.195 61.1885 247.195 65.8587ZM242.539 65.9983C242.323 61.2139 238.326 61.0489 235.852 61.5312C235.852 62.9145 235.852 64.8561 235.953 67.1151C235.953 68.0161 235.953 69.0187 236.017 70.0466C240.458 71.5187 242.627 69.2725 242.539 65.9983ZM351.354 58.2443C351.283 58.1746 351.22 58.0981 351.164 58.0159C350.745 58.0159 349.794 58.1047 348.893 58.1047C347.992 58.1047 347.015 58.0413 346.622 58.0159C346.566 58.0981 346.502 58.1746 346.431 58.2443C346.431 58.2443 346.748 63.7647 346.748 69.2344C346.748 74.7041 346.431 80.2245 346.431 80.2245C346.52 80.292 346.597 80.3734 346.66 80.4657C347.078 80.4657 348.017 80.3768 348.893 80.3768C349.768 80.3768 350.936 80.4403 351.43 80.4657L351.633 80.1992C351.211 76.56 351.02 72.8977 351.062 69.2344C351.037 62.9525 351.354 58.2443 351.354 58.2443ZM343.31 72.6101C343.31 77.3057 339.782 80.656 333.743 80.656C332.004 80.656 330.101 80.4783 328.896 80.3514C328.211 80.3514 327.627 80.2499 327.284 80.2119C327.241 80.1239 327.186 80.0427 327.119 79.9707C327.119 78.8286 327.437 73.5239 327.437 69.2217C327.437 64.9196 327.183 59.4626 327.119 58.2316C327.2 58.1633 327.269 58.0817 327.322 57.9905C327.741 57.9905 328.693 58.092 329.581 58.092C330.469 58.092 331.446 58.092 331.852 57.9905C331.905 58.0791 331.969 58.1602 332.043 58.2316C332.043 59.0565 331.941 61.8611 331.865 64.983H331.966C332.984 64.7121 334.034 64.5798 335.088 64.5896C338.666 64.5516 343.31 66.3917 343.31 72.6101ZM331.789 68.5111C331.789 68.5111 331.789 70.3131 331.725 71.3411C331.725 73.5873 331.649 75.529 331.624 76.9123C331.737 76.8933 331.853 76.8933 331.966 76.9123C334.504 77.3818 338.438 77.2295 338.641 72.4452C338.793 69.1964 336.522 66.874 331.789 68.5111ZM274.501 68.7649C274.593 71.0765 273.996 73.3632 272.786 75.335C271.576 77.3068 269.808 78.8747 267.706 79.8398C265.604 80.8048 263.263 81.1235 260.979 80.7554C258.696 80.3873 256.573 79.349 254.88 77.7722C253.188 76.1954 252.002 74.1513 251.473 71.8992C250.944 69.6471 251.095 67.2886 251.909 65.123C252.722 62.9573 254.161 61.0822 256.041 59.7355C257.922 58.3888 260.16 57.6312 262.472 57.559C264 57.5065 265.524 57.7557 266.956 58.2925C268.387 58.8293 269.699 59.643 270.817 60.6873C271.934 61.7316 272.834 62.9858 273.466 64.3784C274.098 65.7709 274.45 67.2744 274.501 68.8029V68.7649ZM269.578 67.6862C269.417 66.7642 269.076 65.8831 268.574 65.0931C268.072 64.3031 267.419 63.6199 266.653 63.0824C265.887 62.5449 265.023 62.1637 264.11 61.9607C263.196 61.7577 262.252 61.7368 261.33 61.8992C259.491 62.3588 257.908 63.5257 256.924 65.1463C255.941 66.767 255.636 68.7104 256.077 70.5543C256.228 71.4838 256.561 72.3741 257.059 73.1735C257.556 73.973 258.207 74.6656 258.975 75.2111C259.742 75.7566 260.61 76.1441 261.529 76.3512C262.447 76.5583 263.397 76.5808 264.325 76.4173C265.243 76.1902 266.108 75.784 266.87 75.2219C267.631 74.6599 268.275 73.9531 268.763 73.142C269.251 72.3309 269.574 71.4315 269.714 70.4953C269.853 69.5591 269.807 68.6045 269.578 67.6862ZM208.052 101.037C208.146 103.352 207.551 105.643 206.341 107.619C205.131 109.595 203.361 111.166 201.256 112.134C199.151 113.102 196.806 113.422 194.519 113.054C192.232 112.686 190.105 111.646 188.41 110.067C186.715 108.488 185.528 106.44 184.998 104.184C184.469 101.929 184.622 99.5666 185.438 97.3981C186.254 95.2295 187.695 93.3524 189.58 92.0051C191.465 90.6578 193.707 89.9012 196.023 89.8314C199.103 89.7251 202.099 90.8453 204.354 92.9462C206.609 95.0471 207.939 97.9569 208.052 101.037ZM203.116 99.9585C202.956 99.0354 202.616 98.1529 202.115 97.3615C201.614 96.5701 200.962 95.8854 200.196 95.3466C199.429 94.8079 198.564 94.4256 197.65 94.2218C196.736 94.018 195.791 93.9966 194.868 94.1589C193.031 94.6241 191.45 95.7946 190.469 97.417C189.489 99.0394 189.186 100.983 189.628 102.827C189.786 103.75 190.125 104.634 190.626 105.426C191.126 106.218 191.779 106.904 192.545 107.443C193.312 107.982 194.177 108.364 195.092 108.567C196.007 108.77 196.953 108.79 197.875 108.626C199.715 108.164 201.297 106.994 202.279 105.371C203.26 103.748 203.561 101.802 203.116 99.9585ZM160.28 101.037C160.374 103.352 159.779 105.643 158.569 107.619C157.359 109.595 155.589 111.166 153.484 112.134C151.379 113.102 149.034 113.422 146.747 113.054C144.46 112.686 142.334 111.646 140.639 110.067C138.943 108.488 137.756 106.44 137.226 104.184C136.697 101.929 136.85 99.5666 137.666 97.3981C138.482 95.2295 139.924 93.3524 141.808 92.0051C143.693 90.6578 145.936 89.9012 148.251 89.8314C149.777 89.7771 151.298 90.0239 152.728 90.5577C154.158 91.0914 155.469 91.9018 156.586 92.9424C157.703 93.9829 158.604 95.2334 159.238 96.6223C159.872 98.0113 160.226 99.5115 160.28 101.037ZM155.357 99.9585C155.025 98.1005 153.972 96.4494 152.426 95.3671C150.88 94.2848 148.968 93.8595 147.109 94.1843C145.269 94.6467 143.686 95.8161 142.702 97.4388C141.719 99.0615 141.415 101.007 141.856 102.852C142.014 103.776 142.353 104.659 142.854 105.452C143.354 106.244 144.007 106.929 144.773 107.468C145.54 108.007 146.405 108.389 147.32 108.592C148.235 108.796 149.181 108.816 150.104 108.652C151.949 108.189 153.537 107.016 154.521 105.388C155.505 103.759 155.805 101.808 155.357 99.9585ZM129.701 80.6687C131.22 80.7451 132.739 80.502 134.16 79.9551C135.58 79.4081 136.869 78.5695 137.945 77.4933C139.021 76.417 139.86 75.1271 140.407 73.7068C140.954 72.2864 141.197 70.7672 141.12 69.2471C141.12 67.7289 140.818 66.2258 140.231 64.8258C139.643 63.4259 138.783 62.157 137.7 61.0936C136.616 60.0301 135.332 59.1934 133.921 58.6322C132.511 58.0711 131.003 57.7968 129.485 57.8255C127.333 57.8185 125.218 58.3834 123.356 59.4626V63.4348C123.458 63.4596 123.557 63.498 123.648 63.549C124.663 62.6648 125.864 62.0225 127.163 61.6708C128.132 61.4299 129.14 61.3877 130.126 61.5469C131.112 61.706 132.055 62.0632 132.899 62.5968C133.743 63.1304 134.471 63.8294 135.038 64.6518C135.604 65.4741 135.999 66.4027 136.197 67.3816C132.682 67.3816 128.838 67.1024 128.013 67.0136C127.939 67.0868 127.853 67.1469 127.759 67.1912C127.759 68.4603 127.556 70.1989 127.493 70.77C127.558 70.8227 127.618 70.8823 127.671 70.9477C128.406 70.9477 132.238 70.7192 136.349 70.7065C136.243 72.0675 135.739 73.3672 134.9 74.4437C134.061 75.5201 132.923 76.3257 131.629 76.76C129.503 77.3591 127.226 77.1041 125.285 76.0493C124.493 75.5208 123.758 74.9127 123.09 74.2345L122.798 74.3234V76.4935C122.798 77.496 122.722 78.5874 122.722 78.5874C124.784 79.9708 127.218 80.6965 129.701 80.6687ZM377.683 67.3816C377.683 63.2317 377.759 59.3103 377.772 58.2824C377.686 58.2073 377.609 58.122 377.543 58.0286C377.175 58.0286 376.389 58.1174 375.538 58.1174C374.688 58.1174 373.838 58.1174 373.508 58.0286H373.28C372.734 58.8788 369.397 64.0947 367.278 67.0643C366.009 68.8537 363.878 71.7852 362.203 74.0442V70.9984C362.203 66.6328 362.469 59.5768 362.52 58.2189C362.425 58.1657 362.339 58.0971 362.266 58.0159C361.822 58.0159 360.909 58.1047 360.059 58.1047C359.208 58.1047 358.193 58.0413 357.787 58.0159C357.735 58.1081 357.671 58.1934 357.597 58.2697C357.597 59.7291 357.914 66.6836 357.914 70.9604C357.914 75.2371 357.838 79.0443 357.825 80.0723C357.911 80.1474 357.988 80.2326 358.054 80.3261C358.422 80.3261 359.208 80.2372 360.059 80.2372C360.909 80.2372 361.733 80.3007 362.076 80.3261L362.203 80.2499H362.317C362.812 79.4885 365.35 76.4427 369.372 70.3512C370.793 68.2065 372.354 66.0744 373.381 64.7292V67.3943C373.381 71.7726 373.115 78.8159 373.064 80.1865C373.159 80.2397 373.245 80.3083 373.318 80.3895C373.762 80.3895 374.663 80.3007 375.526 80.3007C376.388 80.3007 377.391 80.3641 377.797 80.3895C377.849 80.2973 377.913 80.212 377.987 80.1357C377.949 78.6636 377.683 71.7091 377.683 67.3816ZM165.368 80.0723C164.568 78.6382 161.219 71.6583 159.353 67.0516C157.59 62.7114 156.131 58.9931 155.699 57.7874C155.551 57.7762 155.405 57.7419 155.268 57.6859C154.01 58.2539 152.717 58.7414 151.398 59.1453C151.36 59.285 151.3 59.4177 151.22 59.5388C151.296 59.7037 151.398 59.9702 151.537 60.2875C148.987 67.1305 145.973 73.7917 142.516 80.2245L142.719 80.4149C144.451 80.2853 146.19 80.2853 147.921 80.4149C147.921 80.4149 149.824 74.5772 153.466 64.8054L155.306 69.171C157.361 74.0823 159.493 80.4149 159.493 80.4149C159.493 80.4149 160.762 80.288 162.17 80.288C163.122 80.288 164.708 80.288 165.19 80.3895C165.236 80.2847 165.296 80.1865 165.368 80.0976V80.0723ZM181.013 97.9915C181.013 104.21 176.356 106.05 172.778 106.05C171.786 106.06 170.797 105.945 169.834 105.707C169.91 108.791 169.986 111.558 170.012 112.37C169.938 112.441 169.874 112.523 169.821 112.611C169.415 112.611 168.451 112.51 167.55 112.51C166.649 112.51 165.71 112.51 165.292 112.598C165.234 112.514 165.166 112.437 165.089 112.37C165.089 111.101 165.406 105.657 165.406 101.38C165.406 97.1031 165.139 91.773 165.089 90.6309C165.146 90.5529 165.193 90.4675 165.228 90.3771L166.256 90.2882C167.966 90.0801 169.685 89.9657 171.407 89.9456C177.472 89.9202 181.013 93.2705 181.013 97.9915ZM176.343 98.1311C176.128 93.3467 172.131 93.1817 169.656 93.664C169.656 95.0472 169.656 96.9889 169.758 99.2478V102.192C174.262 103.626 176.483 101.38 176.343 98.1057V98.1311Z" fill="white"/>
<path d="M101.545 101.228C101.545 94.7173 85.9765 89.438 66.7662 89.438C47.556 89.438 32 94.7173 32 101.228C32.174 110.336 35.914 119.014 42.4161 125.394C48.9183 131.774 57.6637 135.348 66.7726 135.348C75.8815 135.348 84.6268 131.774 91.129 125.394C97.6312 119.014 101.371 110.336 101.545 101.228Z" fill="#FD403E"/>
<path d="M97.6625 101.228C97.6625 106.152 83.8322 110.111 66.7663 110.111C49.7004 110.111 35.8827 106.126 35.8827 101.228C35.8827 96.329 49.713 92.3441 66.7663 92.3441C83.8195 92.3441 97.6625 96.3417 97.6625 101.228Z" fill="#BBFF00"/>
<path d="M101.545 66.7725C101.371 57.6636 97.6312 48.9866 91.129 42.6063C84.6268 36.226 75.8815 32.6517 66.7726 32.6517C57.6637 32.6517 48.9183 36.226 42.4161 42.6063C35.914 48.9866 32.174 57.6636 32 66.7725C32 73.2828 47.5687 78.5621 66.7662 78.5621C85.9638 78.5621 101.545 73.2828 101.545 66.7725Z" fill="#FD403E"/>
</g>
<g filter="url(#filter0_f_4188_24677)">
<circle cx="655.725" cy="413.452" r="320.275" fill="#0F5893"/>
</g>
<g filter="url(#filter1_d_4188_24677)">
<path d="M447 225.369C447 213.567 456.567 204 468.369 204H762.193C773.994 204 783.561 213.567 783.561 225.369V620.695H447V225.369Z" fill="white" fill-opacity="0.1" shape-rendering="crispEdges"/>
</g>
<g filter="url(#filter2_d_4188_24677)">
<path d="M417 275.369C417 263.567 426.567 254 438.369 254H447V671H417V275.369Z" fill="white" fill-opacity="0.05" shape-rendering="crispEdges"/>
</g>
<g filter="url(#filter3_d_4188_24677)">
<path d="M487 165.369C487 153.567 496.567 144 508.369 144H802.193C813.994 144 823.561 153.567 823.561 165.369V560.695H487V165.369Z" fill="#FD403E"/>
</g>
<path d="M487 215.23C487 203.428 496.567 193.861 508.369 193.861H802.193C813.994 193.861 823.561 203.428 823.561 215.23V560.695H487V215.23Z" fill="#FAFAFA"/>
<rect x="510.15" y="167.15" width="28.492" height="5.34225" rx="2.67112" fill="white"/>
<rect x="556.449" y="167.15" width="124.652" height="5.34225" rx="2.67112" fill="white"/>
<rect x="487" y="225.914" width="334.781" height="1.78075" fill="#E9E9E9"/>
<rect x="487" y="512.615" width="334.781" height="1.78075" fill="#E9E9E9"/>
<rect x="542.203" y="252.626" width="71.2299" height="12.4652" rx="6.23262" fill="#CCCCCC"/>
<rect x="504.807" y="532.203" width="117.529" height="12.4652" rx="6.23262" fill="#CCCCCC"/>
<circle cx="518.163" cy="258.858" r="12.4652" stroke="#C4C4C4" stroke-width="1.78075"/>
<g filter="url(#filter4_d_4188_24677)">
<rect x="504.807" y="290.021" width="42.738" height="42.738" rx="7.12299" fill="white"/>
</g>
<path d="M504.807 318.513H547.545V325.636C547.545 329.57 544.356 332.759 540.422 332.759H511.93C507.996 332.759 504.807 329.57 504.807 325.636V318.513Z" fill="#B8FC03"/>
<circle cx="526.177" cy="325.636" r="3.5615" fill="#98CC0C"/>
<g filter="url(#filter5_d_4188_24677)">
<rect x="505.698" y="290.912" width="40.9572" height="40.9572" rx="6.23262" stroke="#FD403E" stroke-width="1.78075" shape-rendering="crispEdges"/>
</g>
<rect x="519.944" y="299.815" width="12.4652" height="12.4652" rx="0.890374" stroke="#98CC0C" stroke-width="1.78075"/>
<path fill-rule="evenodd" clip-rule="evenodd" d="M526.176 309.61C527.16 309.61 527.957 308.812 527.957 307.829C527.957 307.829 527.957 307.829 527.957 307.829H531.518C532.502 307.829 533.299 308.626 533.299 309.61V311.39C533.299 312.374 532.502 313.171 531.518 313.171H520.834C519.85 313.171 519.053 312.374 519.053 311.39V309.61C519.053 308.626 519.85 307.829 520.834 307.829H524.395C524.395 307.829 524.395 307.829 524.395 307.829C524.395 308.812 525.193 309.61 526.176 309.61Z" fill="#98CC0C"/>
<g filter="url(#filter6_d_4188_24677)">
<rect x="504.807" y="341.663" width="42.738" height="42.738" rx="7.12299" fill="white"/>
</g>
<path d="M504.807 370.155H547.545V377.278C547.545 381.212 544.356 384.401 540.422 384.401H511.93C507.996 384.401 504.807 381.212 504.807 377.278V370.155Z" fill="#B8FC03"/>
<circle cx="526.177" cy="377.278" r="3.5615" fill="#98CC0C"/>
<rect x="519.944" y="351.457" width="12.4652" height="12.4652" rx="0.890374" stroke="#98CC0C" stroke-width="1.78075"/>
<path fill-rule="evenodd" clip-rule="evenodd" d="M526.176 361.251C527.16 361.251 527.957 360.454 527.957 359.47C527.957 359.47 527.957 359.47 527.957 359.47H531.519C532.502 359.47 533.299 360.268 533.299 361.251V363.032C533.299 364.015 532.502 364.813 531.519 364.813H520.834C519.851 364.813 519.053 364.015 519.053 363.032V361.251C519.053 360.268 519.851 359.47 520.834 359.47H524.396C524.396 359.47 524.396 359.47 524.396 359.47C524.396 360.454 525.193 361.251 526.176 361.251Z" fill="#98CC0C"/>
<g filter="url(#filter7_d_4188_24677)">
<rect x="504.807" y="393.305" width="42.738" height="42.738" rx="7.12299" fill="white"/>
</g>
<path d="M504.807 421.797H547.545V428.92C547.545 432.854 544.356 436.043 540.422 436.043H511.93C507.996 436.043 504.807 432.854 504.807 428.92V421.797Z" fill="#B8FC03"/>
<circle cx="526.177" cy="428.92" r="3.5615" fill="#98CC0C"/>
<rect x="519.944" y="403.099" width="12.4652" height="12.4652" rx="0.890374" stroke="#98CC0C" stroke-width="1.78075"/>
<path fill-rule="evenodd" clip-rule="evenodd" d="M526.176 412.893C527.16 412.893 527.957 412.096 527.957 411.112C527.957 411.112 527.957 411.112 527.957 411.112H531.519C532.502 411.112 533.299 411.91 533.299 412.893V414.674C533.299 415.657 532.502 416.455 531.519 416.455H520.834C519.851 416.455 519.053 415.657 519.053 414.674V412.893C519.053 411.91 519.851 411.112 520.834 411.112H524.396C524.396 411.112 524.396 411.112 524.396 411.112C524.396 412.096 525.193 412.893 526.176 412.893Z" fill="#98CC0C"/>
<g filter="url(#filter8_d_4188_24677)">
<rect x="504.807" y="444.947" width="42.738" height="42.738" rx="7.12299" fill="white"/>
</g>
<path d="M504.807 473.439H547.545V480.562C547.545 484.496 544.356 487.685 540.422 487.685H511.93C507.996 487.685 504.807 484.496 504.807 480.562V473.439Z" fill="#B8FC03"/>
<circle cx="526.177" cy="480.562" r="3.5615" fill="#98CC0C"/>
<rect x="519.944" y="454.741" width="12.4652" height="12.4652" rx="0.890374" stroke="#98CC0C" stroke-width="1.78075"/>
<path fill-rule="evenodd" clip-rule="evenodd" d="M526.176 464.535C527.16 464.535 527.957 463.738 527.957 462.754C527.957 462.754 527.957 462.754 527.957 462.754H531.519C532.502 462.754 533.299 463.552 533.299 464.535V466.316C533.299 467.299 532.502 468.097 531.519 468.097H520.834C519.851 468.097 519.053 467.299 519.053 466.316V464.535C519.053 463.552 519.851 462.754 520.834 462.754H524.396C524.396 462.754 524.396 462.754 524.396 462.754C524.396 463.738 525.193 464.535 526.176 464.535Z" fill="#98CC0C"/>
<g filter="url(#filter9_d_4188_24677)">
<rect x="711.374" y="290.021" width="42.738" height="42.738" rx="7.12299" fill="white"/>
</g>
<path d="M711.374 318.513H754.112V325.636C754.112 329.57 750.923 332.759 746.989 332.759H718.497C714.563 332.759 711.374 329.57 711.374 325.636V318.513Z" fill="#B8FC03"/>
<circle cx="732.743" cy="325.636" r="3.5615" fill="#98CC0C"/>
<g filter="url(#filter10_d_4188_24677)">
<rect x="712.265" y="290.912" width="40.9572" height="40.9572" rx="6.23262" stroke="#FD403E" stroke-width="1.78075" shape-rendering="crispEdges"/>
</g>
<rect x="726.511" y="299.815" width="12.4652" height="12.4652" rx="0.890374" stroke="#98CC0C" stroke-width="1.78075"/>
<path fill-rule="evenodd" clip-rule="evenodd" d="M732.744 309.61C733.727 309.61 734.524 308.812 734.524 307.829C734.524 307.829 734.524 307.829 734.524 307.829H738.086C739.069 307.829 739.867 308.626 739.867 309.61V311.39C739.867 312.374 739.069 313.171 738.086 313.171H727.401C726.418 313.171 725.621 312.374 725.621 311.39V309.61C725.621 308.626 726.418 307.829 727.401 307.829H730.963C730.963 307.829 730.963 307.829 730.963 307.829C730.963 308.812 731.76 309.61 732.744 309.61Z" fill="#98CC0C"/>
<g filter="url(#filter11_d_4188_24677)">
<rect x="711.374" y="341.663" width="42.738" height="42.738" rx="7.12299" fill="white"/>
</g>
<path d="M711.374 370.155H754.112V377.278C754.112 381.212 750.923 384.401 746.989 384.401H718.497C714.563 384.401 711.374 381.212 711.374 377.278V370.155Z" fill="#011E35"/>
<circle cx="732.743" cy="377.278" r="3.5615" fill="#4F7089"/>
<rect x="726.511" y="351.457" width="12.4652" height="12.4652" rx="0.890374" stroke="#98CC0C" stroke-width="1.78075"/>
<path fill-rule="evenodd" clip-rule="evenodd" d="M730.963 359.471H727.401C726.418 359.471 725.621 360.268 725.621 361.251V363.032C725.621 364.015 726.418 364.813 727.401 364.813H738.086C739.069 364.813 739.867 364.015 739.867 363.032V361.251C739.867 360.268 739.069 359.471 738.086 359.471H734.524C734.524 360.454 733.727 361.251 732.743 361.251C731.76 361.251 730.963 360.454 730.963 359.471Z" fill="#98CC0C"/>
<g filter="url(#filter12_d_4188_24677)">
<rect x="711.374" y="393.305" width="42.738" height="42.738" rx="7.12299" fill="white"/>
</g>
<path d="M711.374 421.797H754.112V428.92C754.112 432.854 750.923 436.043 746.989 436.043H718.497C714.563 436.043 711.374 432.854 711.374 428.92V421.797Z" fill="#B8FC03"/>
<circle cx="732.743" cy="428.92" r="3.5615" fill="#98CC0C"/>
<rect x="726.511" y="403.099" width="12.4652" height="12.4652" rx="0.890374" stroke="#98CC0C" stroke-width="1.78075"/>
<path fill-rule="evenodd" clip-rule="evenodd" d="M732.744 412.893C733.727 412.893 734.524 412.096 734.524 411.112C734.524 411.112 734.524 411.112 734.524 411.112H738.086C739.069 411.112 739.866 411.91 739.866 412.893V414.674C739.866 415.657 739.069 416.455 738.086 416.455H727.401C726.418 416.455 725.62 415.657 725.62 414.674V412.893C725.62 411.91 726.418 411.112 727.401 411.112H730.963C730.963 411.112 730.963 411.112 730.963 411.112C730.963 412.096 731.76 412.893 732.744 412.893Z" fill="#98CC0C"/>
<g filter="url(#filter13_d_4188_24677)">
<rect x="711.374" y="444.946" width="42.738" height="42.738" rx="7.12299" fill="white"/>
</g>
<path d="M711.374 473.439H754.112V480.562C754.112 484.496 750.923 487.685 746.989 487.685H718.497C714.563 487.685 711.374 484.496 711.374 480.562V473.439Z" fill="#B8FC03"/>
<circle cx="732.743" cy="480.561" r="3.5615" fill="#98CC0C"/>
<rect x="726.51" y="454.741" width="12.4652" height="12.4652" rx="0.890374" stroke="#98CC0C" stroke-width="1.78075"/>
<path fill-rule="evenodd" clip-rule="evenodd" d="M732.744 464.535C733.727 464.535 734.524 463.738 734.524 462.754C734.524 462.754 734.524 462.754 734.524 462.754H738.086C739.069 462.754 739.866 463.551 739.866 464.535V466.316C739.866 467.299 739.069 468.096 738.086 468.096H727.401C726.418 468.096 725.62 467.299 725.62 466.316V464.535C725.62 463.551 726.418 462.754 727.401 462.754H730.963C730.963 462.754 730.963 462.754 730.963 462.754C730.963 463.738 731.76 464.535 732.744 464.535Z" fill="#98CC0C"/>
<g filter="url(#filter14_d_4188_24677)">
<rect x="608.091" y="290.021" width="42.738" height="42.738" rx="7.12299" fill="white"/>
</g>
<path d="M608.091 318.513H650.829V325.636C650.829 329.57 647.64 332.759 643.706 332.759H615.214C611.28 332.759 608.091 329.57 608.091 325.636V318.513Z" fill="#B8FC03"/>
<circle cx="629.46" cy="325.636" r="3.5615" fill="#98CC0C"/>
<g filter="url(#filter15_d_4188_24677)">
<rect x="608.981" y="290.912" width="40.9572" height="40.9572" rx="6.23262" stroke="#FD403E" stroke-width="1.78075" shape-rendering="crispEdges"/>
</g>
<rect x="623.227" y="299.816" width="12.4652" height="12.4652" rx="0.890374" stroke="#98CC0C" stroke-width="1.78075"/>
<path fill-rule="evenodd" clip-rule="evenodd" d="M629.46 309.61C630.443 309.61 631.241 308.813 631.241 307.829C631.241 307.829 631.241 307.829 631.241 307.829H634.802C635.786 307.829 636.583 308.626 636.583 309.61V311.39C636.583 312.374 635.786 313.171 634.802 313.171H624.118C623.134 313.171 622.337 312.374 622.337 311.39V309.61C622.337 308.626 623.134 307.829 624.118 307.829H627.679C627.679 307.829 627.679 307.829 627.679 307.829C627.679 308.813 628.476 309.61 629.46 309.61Z" fill="#98CC0C"/>
<g filter="url(#filter16_d_4188_24677)">
<rect x="608.091" y="341.663" width="42.738" height="42.738" rx="7.12299" fill="white"/>
</g>
<path d="M608.091 370.155H650.829V377.278C650.829 381.212 647.64 384.401 643.706 384.401H615.214C611.28 384.401 608.091 381.212 608.091 377.278V370.155Z" fill="#B8FC03"/>
<circle cx="629.46" cy="377.278" r="3.5615" fill="#98CC0C"/>
<g filter="url(#filter17_d_4188_24677)">
<rect x="608.981" y="342.553" width="40.9572" height="40.9572" rx="6.23262" stroke="#FD403E" stroke-width="1.78075" shape-rendering="crispEdges"/>
</g>
<rect x="623.227" y="351.457" width="12.4652" height="12.4652" rx="0.890374" stroke="#98CC0C" stroke-width="1.78075"/>
<path fill-rule="evenodd" clip-rule="evenodd" d="M627.679 359.471H624.118C623.134 359.471 622.337 360.268 622.337 361.251V363.032C622.337 364.016 623.134 364.813 624.118 364.813H634.802C635.786 364.813 636.583 364.016 636.583 363.032V361.251C636.583 360.268 635.786 359.471 634.802 359.471H631.241C631.241 360.454 630.443 361.251 629.46 361.251C628.476 361.251 627.679 360.454 627.679 359.471Z" fill="#98CC0C"/>
<g filter="url(#filter18_d_4188_24677)">
<rect x="608.091" y="393.305" width="42.738" height="42.738" rx="7.12299" fill="white"/>
</g>
<path d="M608.091 421.797H650.829V428.92C650.829 432.854 647.64 436.043 643.706 436.043H615.214C611.28 436.043 608.091 432.854 608.091 428.92V421.797Z" fill="#011E35"/>
<circle cx="629.46" cy="428.92" r="3.5615" fill="#4F7089"/>
<rect x="623.227" y="403.099" width="12.4652" height="12.4652" rx="0.890374" stroke="#98CC0C" stroke-width="1.78075"/>
<path fill-rule="evenodd" clip-rule="evenodd" d="M629.46 412.893C630.443 412.893 631.241 412.096 631.241 411.112C631.241 411.112 631.241 411.112 631.241 411.112H634.802C635.786 411.112 636.583 411.91 636.583 412.893V414.674C636.583 415.657 635.786 416.455 634.802 416.455H624.118C623.134 416.455 622.337 415.657 622.337 414.674V412.893C622.337 411.91 623.134 411.112 624.118 411.112H627.679C627.679 411.112 627.679 411.112 627.679 411.112C627.679 412.096 628.476 412.893 629.46 412.893Z" fill="#98CC0C"/>
<g filter="url(#filter19_d_4188_24677)">
<rect x="608.091" y="444.947" width="42.738" height="42.738" rx="7.12299" fill="white"/>
</g>
<path d="M608.091 473.439H650.829V480.562C650.829 484.496 647.64 487.685 643.706 487.685H615.214C611.28 487.685 608.091 484.496 608.091 480.562V473.439Z" fill="#B8FC03"/>
<circle cx="629.46" cy="480.562" r="3.5615" fill="#98CC0C"/>
<g filter="url(#filter20_d_4188_24677)">
<rect x="608.981" y="445.837" width="40.9572" height="40.9572" rx="6.23262" stroke="#FD403E" stroke-width="1.78075" shape-rendering="crispEdges"/>
</g>
<rect x="623.227" y="454.741" width="12.4652" height="12.4652" rx="0.890374" stroke="#98CC0C" stroke-width="1.78075"/>
<path fill-rule="evenodd" clip-rule="evenodd" d="M629.46 464.535C630.443 464.535 631.241 463.738 631.241 462.754C631.241 462.754 631.241 462.754 631.241 462.754H634.802C635.786 462.754 636.583 463.551 636.583 464.535V466.316C636.583 467.299 635.786 468.096 634.802 468.096H624.118C623.134 468.096 622.337 467.299 622.337 466.316V464.535C622.337 463.551 623.134 462.754 624.118 462.754H627.679C627.679 462.754 627.679 462.754 627.679 462.754C627.679 463.738 628.476 464.535 629.46 464.535Z" fill="#98CC0C"/>
<g filter="url(#filter21_d_4188_24677)">
<rect x="556.449" y="290.021" width="42.738" height="42.738" rx="7.12299" fill="white"/>
</g>
<path d="M556.449 318.513H599.187V325.636C599.187 329.57 595.998 332.759 592.064 332.759H563.572C559.638 332.759 556.449 329.57 556.449 325.636V318.513Z" fill="#B8FC03"/>
<circle cx="577.818" cy="325.636" r="3.5615" fill="#98CC0C"/>
<rect x="571.586" y="299.815" width="12.4652" height="12.4652" rx="0.890374" stroke="#011E35" stroke-width="1.78075"/>
<path fill-rule="evenodd" clip-rule="evenodd" d="M577.818 309.61C578.802 309.61 579.599 308.812 579.599 307.829C579.599 307.829 579.599 307.829 579.599 307.829H583.161C584.144 307.829 584.941 308.626 584.941 309.61V311.39C584.941 312.374 584.144 313.171 583.161 313.171H572.476C571.493 313.171 570.695 312.374 570.695 311.39V309.61C570.695 308.626 571.493 307.829 572.476 307.829H576.037C576.037 307.829 576.037 307.829 576.037 307.829C576.037 308.812 576.835 309.61 577.818 309.61Z" fill="#011E35"/>
<path d="M577.818 306.048L574.257 302.487L581.38 302.487L577.818 306.048Z" fill="#011E35"/>
<g filter="url(#filter22_d_4188_24677)">
<rect x="556.449" y="341.663" width="42.738" height="42.738" rx="7.12299" fill="white"/>
</g>
<path d="M556.449 370.155H599.187V377.278C599.187 381.212 595.998 384.401 592.064 384.401H563.572C559.638 384.401 556.449 381.212 556.449 377.278V370.155Z" fill="#011E35"/>
<circle cx="577.818" cy="377.278" r="3.5615" fill="#4F7089"/>
<rect x="571.585" y="351.457" width="12.4652" height="12.4652" rx="0.890374" stroke="#011E35" stroke-width="1.78075"/>
<path fill-rule="evenodd" clip-rule="evenodd" d="M577.818 361.251C578.801 361.251 579.598 360.454 579.598 359.47C579.598 359.47 579.598 359.47 579.598 359.47H583.16C584.144 359.47 584.941 360.268 584.941 361.251V363.032C584.941 364.015 584.144 364.813 583.16 364.813H572.476C571.492 364.813 570.695 364.015 570.695 363.032V361.251C570.695 360.268 571.492 359.47 572.476 359.47H576.037C576.037 359.47 576.037 359.47 576.037 359.47C576.037 360.454 576.834 361.251 577.818 361.251Z" fill="#011E35"/>
<path d="M577.818 357.69L574.257 354.128L581.38 354.128L577.818 357.69Z" fill="#011E35"/>
<g filter="url(#filter23_d_4188_24677)">
<rect x="556.449" y="393.305" width="42.738" height="42.738" rx="7.12299" fill="white"/>
</g>
<path d="M556.449 421.797H599.187V428.92C599.187 432.854 595.998 436.043 592.064 436.043H563.572C559.638 436.043 556.449 432.854 556.449 428.92V421.797Z" fill="#B8FC03"/>
<circle cx="577.818" cy="428.92" r="3.5615" fill="#98CC0C"/>
<rect x="571.586" y="403.099" width="12.4652" height="12.4652" rx="0.890374" stroke="#011E35" stroke-width="1.78075"/>
<path fill-rule="evenodd" clip-rule="evenodd" d="M577.818 412.893C578.802 412.893 579.599 412.096 579.599 411.112C579.599 411.112 579.599 411.112 579.599 411.112H583.161C584.144 411.112 584.941 411.91 584.941 412.893V414.674C584.941 415.657 584.144 416.455 583.161 416.455H572.476C571.493 416.455 570.695 415.657 570.695 414.674V412.893C570.695 411.91 571.493 411.112 572.476 411.112H576.037C576.037 411.112 576.037 411.112 576.037 411.112C576.037 412.096 576.835 412.893 577.818 412.893Z" fill="#011E35"/>
<path d="M577.818 409.331L574.257 405.77L581.38 405.77L577.818 409.331Z" fill="#011E35"/>
<g filter="url(#filter24_d_4188_24677)">
<rect x="556.449" y="444.946" width="42.738" height="42.738" rx="7.12299" fill="white"/>
</g>
<path d="M556.449 473.439H599.187V480.562C599.187 484.496 595.998 487.685 592.064 487.685H563.572C559.638 487.685 556.449 484.496 556.449 480.562V473.439Z" fill="#B8FC03"/>
<circle cx="577.818" cy="480.561" r="3.5615" fill="#98CC0C"/>
<rect x="571.586" y="454.741" width="12.4652" height="12.4652" rx="0.890374" stroke="#011E35" stroke-width="1.78075"/>
<path fill-rule="evenodd" clip-rule="evenodd" d="M577.818 464.535C578.802 464.535 579.599 463.738 579.599 462.754C579.599 462.754 579.599 462.754 579.599 462.754H583.161C584.144 462.754 584.941 463.551 584.941 464.535V466.316C584.941 467.299 584.144 468.096 583.161 468.096H572.476C571.493 468.096 570.695 467.299 570.695 466.316V464.535C570.695 463.551 571.493 462.754 572.476 462.754H576.037C576.037 462.754 576.037 462.754 576.037 462.754C576.037 463.738 576.835 464.535 577.818 464.535Z" fill="#011E35"/>
<path d="M577.818 460.973L574.257 457.412L581.38 457.412L577.818 460.973Z" fill="#011E35"/>
<g filter="url(#filter25_d_4188_24677)">
<rect x="763.016" y="290.021" width="42.738" height="42.738" rx="7.12299" fill="white"/>
</g>
<g filter="url(#filter26_d_4188_24677)">
<rect x="763.016" y="341.663" width="42.738" height="42.738" rx="7.12299" fill="white"/>
</g>
<g filter="url(#filter27_d_4188_24677)">
<rect x="763.016" y="393.305" width="42.738" height="42.738" rx="7.12299" fill="white"/>
</g>
<g filter="url(#filter28_d_4188_24677)">
<rect x="763.016" y="444.946" width="42.738" height="42.738" rx="7.12299" fill="white"/>
</g>
<g filter="url(#filter29_d_4188_24677)">
<rect x="659.733" y="290.021" width="42.738" height="42.738" rx="7.12299" fill="white"/>
</g>
<path d="M659.733 318.513H702.471V325.636C702.471 329.57 699.282 332.759 695.348 332.759H666.856C662.922 332.759 659.733 329.57 659.733 325.636V318.513Z" fill="#B8FC03"/>
<circle cx="681.102" cy="325.636" r="3.5615" fill="#98CC0C"/>
<rect x="674.869" y="299.815" width="12.4652" height="12.4652" rx="0.890374" stroke="#98CC0C" stroke-width="1.78075"/>
<path fill-rule="evenodd" clip-rule="evenodd" d="M681.102 309.61C682.085 309.61 682.882 308.812 682.882 307.829C682.882 307.829 682.882 307.829 682.882 307.829H686.444C687.427 307.829 688.225 308.626 688.225 309.61V311.39C688.225 312.374 687.427 313.171 686.444 313.171H675.759C674.776 313.171 673.979 312.374 673.979 311.39V309.61C673.979 308.626 674.776 307.829 675.759 307.829H679.321C679.321 307.829 679.321 307.829 679.321 307.829C679.321 308.812 680.118 309.61 681.102 309.61Z" fill="#98CC0C"/>
<path d="M681.102 306.048L677.54 302.487L684.663 302.487L681.102 306.048Z" fill="#98CC0C"/>
<g filter="url(#filter30_d_4188_24677)">
<rect x="659.733" y="341.663" width="42.738" height="42.738" rx="7.12299" fill="white"/>
</g>
<path d="M659.733 370.155H702.471V377.278C702.471 381.212 699.282 384.401 695.348 384.401H666.856C662.922 384.401 659.733 381.212 659.733 377.278V370.155Z" fill="#B8FC03"/>
<circle cx="681.102" cy="377.278" r="3.5615" fill="#98CC0C"/>
<rect x="674.869" y="351.457" width="12.4652" height="12.4652" rx="0.890374" stroke="#98CC0C" stroke-width="1.78075"/>
<path fill-rule="evenodd" clip-rule="evenodd" d="M679.321 359.471H675.759C674.776 359.471 673.979 360.268 673.979 361.251V363.032C673.979 364.016 674.776 364.813 675.759 364.813H686.444C687.427 364.813 688.225 364.016 688.225 363.032V361.251C688.225 360.268 687.427 359.471 686.444 359.471H682.882C682.882 360.454 682.085 361.251 681.101 361.251C680.118 361.251 679.321 360.454 679.321 359.471Z" fill="#98CC0C"/>
<path d="M681.102 357.69L677.54 354.128L684.663 354.128L681.102 357.69Z" fill="#98CC0C"/>
<g filter="url(#filter31_d_4188_24677)">
<rect x="659.733" y="393.305" width="42.738" height="42.738" rx="7.12299" fill="white"/>
</g>
<path d="M659.733 421.797H702.471V428.92C702.471 432.854 699.282 436.043 695.348 436.043H666.856C662.922 436.043 659.733 432.854 659.733 428.92V421.797Z" fill="#B8FC03"/>
<circle cx="681.102" cy="428.92" r="3.5615" fill="#98CC0C"/>
<rect x="674.869" y="403.099" width="12.4652" height="12.4652" rx="0.890374" stroke="#98CC0C" stroke-width="1.78075"/>
<path fill-rule="evenodd" clip-rule="evenodd" d="M681.102 412.893C682.085 412.893 682.882 412.096 682.882 411.112C682.882 411.112 682.882 411.112 682.882 411.112H686.444C687.427 411.112 688.225 411.91 688.225 412.893V414.674C688.225 415.657 687.427 416.455 686.444 416.455H675.759C674.776 416.455 673.979 415.657 673.979 414.674V412.893C673.979 411.91 674.776 411.112 675.759 411.112H679.321C679.321 411.112 679.321 411.112 679.321 411.112C679.321 412.096 680.118 412.893 681.102 412.893Z" fill="#98CC0C"/>
<path d="M681.102 409.331L677.54 405.77L684.663 405.77L681.102 409.331Z" fill="#98CC0C"/>
<g filter="url(#filter32_d_4188_24677)">
<rect x="659.733" y="444.946" width="42.738" height="42.738" rx="7.12299" fill="white"/>
</g>
<path d="M659.733 473.439H702.471V480.562C702.471 484.496 699.282 487.685 695.348 487.685H666.856C662.922 487.685 659.733 484.496 659.733 480.562V473.439Z" fill="#B8FC03"/>
<circle cx="681.102" cy="480.561" r="3.5615" fill="#98CC0C"/>
<rect x="674.869" y="454.741" width="12.4652" height="12.4652" rx="0.890374" stroke="#98CC0C" stroke-width="1.78075"/>
<path fill-rule="evenodd" clip-rule="evenodd" d="M681.102 464.535C682.085 464.535 682.882 463.738 682.882 462.754C682.882 462.754 682.882 462.754 682.882 462.754H686.444C687.427 462.754 688.225 463.551 688.225 464.535V466.316C688.225 467.299 687.427 468.096 686.444 468.096H675.759C674.776 468.096 673.979 467.299 673.979 466.316V464.535C673.979 463.551 674.776 462.754 675.759 462.754H679.321C679.321 462.754 679.321 462.754 679.321 462.754C679.321 463.738 680.118 464.535 681.102 464.535Z" fill="#98CC0C"/>
<path d="M681.102 460.973L677.54 457.412L684.663 457.412L681.102 460.973Z" fill="#98CC0C"/>
<g filter="url(#filter33_d_4188_24677)">
<circle opacity="0.4" cx="488.155" cy="388.155" r="117.845" fill="#86C6FE"/>
<circle cx="488.155" cy="388.154" r="85.1106" fill="#0F4C7F"/>
<circle cx="488.155" cy="388.154" r="85.1106" fill="url(#paint0_linear_4188_24677)" fill-opacity="0.4"/>
<mask id="mask0_4188_24677" style="mask-type:alpha" maskUnits="userSpaceOnUse" x="403" y="303" width="171" height="171">
<circle cx="488.155" cy="388.154" r="85.1106" fill="white"/>
</mask>
<g mask="url(#mask0_4188_24677)">
<path d="M456.042 422.41C470.921 416.989 475.678 412.414 475.678 402.617C475.678 396.738 470.803 392.927 469.141 387.888C467.479 382.85 466.517 376.884 465.718 372.544C464.919 368.205 464.601 366.526 464.167 361.902C463.636 356.132 467.499 341.234 488.155 341.234C508.804 341.234 512.68 356.132 512.137 361.902C511.702 366.526 511.383 368.205 510.585 372.544C509.788 376.884 508.836 382.849 507.175 387.888C505.514 392.928 500.632 396.738 500.632 402.617C500.632 412.414 505.388 416.989 520.267 422.41C535.201 427.842 544.895 433.199 544.895 436.984V495.244H431.414V436.984C431.414 433.205 441.114 427.848 456.042 422.41Z" fill="#3878AD"/>
</g>
<path fill-rule="evenodd" clip-rule="evenodd" d="M460.875 359.196H515.433C515.433 343.945 503.22 331.581 488.154 331.581C473.089 331.581 460.875 343.945 460.875 359.196Z" fill="#B8FC03"/>
<path d="M481.607 331.414C481.607 330.209 482.584 329.232 483.79 329.232H492.519C493.724 329.232 494.701 330.209 494.701 331.414V348.872H481.607V331.414Z" fill="#B8FC03"/>
<path d="M494.701 349.964H495.793V348.872V331.414C495.793 329.606 494.327 328.14 492.519 328.14H483.79C481.982 328.14 480.516 329.606 480.516 331.414V348.872V349.964H481.607H494.701Z" stroke="#0F4C7F" stroke-width="2.18232"/>
<rect x="456.511" y="358.693" width="61.1051" height="4.36465" rx="2.18232" fill="#B8FC03"/>
<rect x="479.425" y="344.508" width="17.4586" height="6.54697" fill="#B8FC03"/>
</g>
</g>
<defs>
<filter id="filter0_f_4188_24677" x="117.08" y="-125.193" width="1077.29" height="1077.29" filterUnits="userSpaceOnUse" color-interpolation-filters="sRGB">
<feFlood flood-opacity="0" result="BackgroundImageFix"/>
<feBlend mode="normal" in="SourceGraphic" in2="BackgroundImageFix" result="shape"/>
<feGaussianBlur stdDeviation="109.185" result="effect1_foregroundBlur_4188_24677"/>
</filter>
<filter id="filter1_d_4188_24677" x="393.578" y="168.385" width="443.406" height="523.54" filterUnits="userSpaceOnUse" color-interpolation-filters="sRGB">
<feFlood flood-opacity="0" result="BackgroundImageFix"/>
<feColorMatrix in="SourceAlpha" type="matrix" values="0 0 0 0 0 0 0 0 0 0 0 0 0 0 0 0 0 0 127 0" result="hardAlpha"/>
<feOffset dy="17.8075"/>
<feGaussianBlur stdDeviation="26.7112"/>
<feComposite in2="hardAlpha" operator="out"/>
<feColorMatrix type="matrix" values="0 0 0 0 0.3125 0 0 0 0 0.283677 0 0 0 0 0.0455729 0 0 0 0.3 0"/>
<feBlend mode="normal" in2="BackgroundImageFix" result="effect1_dropShadow_4188_24677"/>
<feBlend mode="normal" in="SourceGraphic" in2="effect1_dropShadow_4188_24677" result="shape"/>
</filter>
<filter id="filter2_d_4188_24677" x="363.578" y="218.385" width="136.845" height="523.845" filterUnits="userSpaceOnUse" color-interpolation-filters="sRGB">
<feFlood flood-opacity="0" result="BackgroundImageFix"/>
<feColorMatrix in="SourceAlpha" type="matrix" values="0 0 0 0 0 0 0 0 0 0 0 0 0 0 0 0 0 0 127 0" result="hardAlpha"/>
<feOffset dy="17.8075"/>
<feGaussianBlur stdDeviation="26.7112"/>
<feComposite in2="hardAlpha" operator="out"/>
<feColorMatrix type="matrix" values="0 0 0 0 0.3125 0 0 0 0 0.283677 0 0 0 0 0.0455729 0 0 0 0.3 0"/>
<feBlend mode="normal" in2="BackgroundImageFix" result="effect1_dropShadow_4188_24677"/>
<feBlend mode="normal" in="SourceGraphic" in2="effect1_dropShadow_4188_24677" result="shape"/>
</filter>
<filter id="filter3_d_4188_24677" x="433.578" y="108.385" width="443.406" height="523.54" filterUnits="userSpaceOnUse" color-interpolation-filters="sRGB">
<feFlood flood-opacity="0" result="BackgroundImageFix"/>
<feColorMatrix in="SourceAlpha" type="matrix" values="0 0 0 0 0 0 0 0 0 0 0 0 0 0 0 0 0 0 127 0" result="hardAlpha"/>
<feOffset dy="17.8075"/>
<feGaussianBlur stdDeviation="26.7112"/>
<feComposite in2="hardAlpha" operator="out"/>
<feColorMatrix type="matrix" values="0 0 0 0 0.3125 0 0 0 0 0.283677 0 0 0 0 0.0455729 0 0 0 0.3 0"/>
<feBlend mode="normal" in2="BackgroundImageFix" result="effect1_dropShadow_4188_24677"/>
<feBlend mode="normal" in="SourceGraphic" in2="effect1_dropShadow_4188_24677" result="shape"/>
</filter>
<filter id="filter4_d_4188_24677" x="497.684" y="282.898" width="56.984" height="56.984" filterUnits="userSpaceOnUse" color-interpolation-filters="sRGB">
<feFlood flood-opacity="0" result="BackgroundImageFix"/>
<feColorMatrix in="SourceAlpha" type="matrix" values="0 0 0 0 0 0 0 0 0 0 0 0 0 0 0 0 0 0 127 0" result="hardAlpha"/>
<feOffset/>
<feGaussianBlur stdDeviation="3.5615"/>
<feComposite in2="hardAlpha" operator="out"/>
<feColorMatrix type="matrix" values="0 0 0 0 0 0 0 0 0 0 0 0 0 0 0 0 0 0 0.15 0"/>
<feBlend mode="normal" in2="BackgroundImageFix" result="effect1_dropShadow_4188_24677"/>
<feBlend mode="normal" in="SourceGraphic" in2="effect1_dropShadow_4188_24677" result="shape"/>
</filter>
<filter id="filter5_d_4188_24677" x="497.684" y="282.898" width="56.984" height="56.984" filterUnits="userSpaceOnUse" color-interpolation-filters="sRGB">
<feFlood flood-opacity="0" result="BackgroundImageFix"/>
<feColorMatrix in="SourceAlpha" type="matrix" values="0 0 0 0 0 0 0 0 0 0 0 0 0 0 0 0 0 0 127 0" result="hardAlpha"/>
<feOffset/>
<feGaussianBlur stdDeviation="3.5615"/>
<feComposite in2="hardAlpha" operator="out"/>
<feColorMatrix type="matrix" values="0 0 0 0 0 0 0 0 0 0 0 0 0 0 0 0 0 0 0.15 0"/>
<feBlend mode="normal" in2="BackgroundImageFix" result="effect1_dropShadow_4188_24677"/>
<feBlend mode="normal" in="SourceGraphic" in2="effect1_dropShadow_4188_24677" result="shape"/>
</filter>
<filter id="filter6_d_4188_24677" x="497.684" y="334.54" width="56.984" height="56.984" filterUnits="userSpaceOnUse" color-interpolation-filters="sRGB">
<feFlood flood-opacity="0" result="BackgroundImageFix"/>
<feColorMatrix in="SourceAlpha" type="matrix" values="0 0 0 0 0 0 0 0 0 0 0 0 0 0 0 0 0 0 127 0" result="hardAlpha"/>
<feOffset/>
<feGaussianBlur stdDeviation="3.5615"/>
<feComposite in2="hardAlpha" operator="out"/>
<feColorMatrix type="matrix" values="0 0 0 0 0 0 0 0 0 0 0 0 0 0 0 0 0 0 0.15 0"/>
<feBlend mode="normal" in2="BackgroundImageFix" result="effect1_dropShadow_4188_24677"/>
<feBlend mode="normal" in="SourceGraphic" in2="effect1_dropShadow_4188_24677" result="shape"/>
</filter>
<filter id="filter7_d_4188_24677" x="497.684" y="386.182" width="56.984" height="56.984" filterUnits="userSpaceOnUse" color-interpolation-filters="sRGB">
<feFlood flood-opacity="0" result="BackgroundImageFix"/>
<feColorMatrix in="SourceAlpha" type="matrix" values="0 0 0 0 0 0 0 0 0 0 0 0 0 0 0 0 0 0 127 0" result="hardAlpha"/>
<feOffset/>
<feGaussianBlur stdDeviation="3.5615"/>
<feComposite in2="hardAlpha" operator="out"/>
<feColorMatrix type="matrix" values="0 0 0 0 0 0 0 0 0 0 0 0 0 0 0 0 0 0 0.15 0"/>
<feBlend mode="normal" in2="BackgroundImageFix" result="effect1_dropShadow_4188_24677"/>
<feBlend mode="normal" in="SourceGraphic" in2="effect1_dropShadow_4188_24677" result="shape"/>
</filter>
<filter id="filter8_d_4188_24677" x="497.684" y="437.824" width="56.984" height="56.984" filterUnits="userSpaceOnUse" color-interpolation-filters="sRGB">
<feFlood flood-opacity="0" result="BackgroundImageFix"/>
<feColorMatrix in="SourceAlpha" type="matrix" values="0 0 0 0 0 0 0 0 0 0 0 0 0 0 0 0 0 0 127 0" result="hardAlpha"/>
<feOffset/>
<feGaussianBlur stdDeviation="3.5615"/>
<feComposite in2="hardAlpha" operator="out"/>
<feColorMatrix type="matrix" values="0 0 0 0 0 0 0 0 0 0 0 0 0 0 0 0 0 0 0.15 0"/>
<feBlend mode="normal" in2="BackgroundImageFix" result="effect1_dropShadow_4188_24677"/>
<feBlend mode="normal" in="SourceGraphic" in2="effect1_dropShadow_4188_24677" result="shape"/>
</filter>
<filter id="filter9_d_4188_24677" x="704.251" y="282.898" width="56.984" height="56.984" filterUnits="userSpaceOnUse" color-interpolation-filters="sRGB">
<feFlood flood-opacity="0" result="BackgroundImageFix"/>
<feColorMatrix in="SourceAlpha" type="matrix" values="0 0 0 0 0 0 0 0 0 0 0 0 0 0 0 0 0 0 127 0" result="hardAlpha"/>
<feOffset/>
<feGaussianBlur stdDeviation="3.5615"/>
<feComposite in2="hardAlpha" operator="out"/>
<feColorMatrix type="matrix" values="0 0 0 0 0 0 0 0 0 0 0 0 0 0 0 0 0 0 0.15 0"/>
<feBlend mode="normal" in2="BackgroundImageFix" result="effect1_dropShadow_4188_24677"/>
<feBlend mode="normal" in="SourceGraphic" in2="effect1_dropShadow_4188_24677" result="shape"/>
</filter>
<filter id="filter10_d_4188_24677" x="704.251" y="282.898" width="56.984" height="56.984" filterUnits="userSpaceOnUse" color-interpolation-filters="sRGB">
<feFlood flood-opacity="0" result="BackgroundImageFix"/>
<feColorMatrix in="SourceAlpha" type="matrix" values="0 0 0 0 0 0 0 0 0 0 0 0 0 0 0 0 0 0 127 0" result="hardAlpha"/>
<feOffset/>
<feGaussianBlur stdDeviation="3.5615"/>
<feComposite in2="hardAlpha" operator="out"/>
<feColorMatrix type="matrix" values="0 0 0 0 0 0 0 0 0 0 0 0 0 0 0 0 0 0 0.15 0"/>
<feBlend mode="normal" in2="BackgroundImageFix" result="effect1_dropShadow_4188_24677"/>
<feBlend mode="normal" in="SourceGraphic" in2="effect1_dropShadow_4188_24677" result="shape"/>
</filter>
<filter id="filter11_d_4188_24677" x="704.251" y="334.54" width="56.984" height="56.984" filterUnits="userSpaceOnUse" color-interpolation-filters="sRGB">
<feFlood flood-opacity="0" result="BackgroundImageFix"/>
<feColorMatrix in="SourceAlpha" type="matrix" values="0 0 0 0 0 0 0 0 0 0 0 0 0 0 0 0 0 0 127 0" result="hardAlpha"/>
<feOffset/>
<feGaussianBlur stdDeviation="3.5615"/>
<feComposite in2="hardAlpha" operator="out"/>
<feColorMatrix type="matrix" values="0 0 0 0 0 0 0 0 0 0 0 0 0 0 0 0 0 0 0.15 0"/>
<feBlend mode="normal" in2="BackgroundImageFix" result="effect1_dropShadow_4188_24677"/>
<feBlend mode="normal" in="SourceGraphic" in2="effect1_dropShadow_4188_24677" result="shape"/>
</filter>
<filter id="filter12_d_4188_24677" x="704.251" y="386.182" width="56.984" height="56.984" filterUnits="userSpaceOnUse" color-interpolation-filters="sRGB">
<feFlood flood-opacity="0" result="BackgroundImageFix"/>
<feColorMatrix in="SourceAlpha" type="matrix" values="0 0 0 0 0 0 0 0 0 0 0 0 0 0 0 0 0 0 127 0" result="hardAlpha"/>
<feOffset/>
<feGaussianBlur stdDeviation="3.5615"/>
<feComposite in2="hardAlpha" operator="out"/>
<feColorMatrix type="matrix" values="0 0 0 0 0 0 0 0 0 0 0 0 0 0 0 0 0 0 0.15 0"/>
<feBlend mode="normal" in2="BackgroundImageFix" result="effect1_dropShadow_4188_24677"/>
<feBlend mode="normal" in="SourceGraphic" in2="effect1_dropShadow_4188_24677" result="shape"/>
</filter>
<filter id="filter13_d_4188_24677" x="704.251" y="437.823" width="56.984" height="56.984" filterUnits="userSpaceOnUse" color-interpolation-filters="sRGB">
<feFlood flood-opacity="0" result="BackgroundImageFix"/>
<feColorMatrix in="SourceAlpha" type="matrix" values="0 0 0 0 0 0 0 0 0 0 0 0 0 0 0 0 0 0 127 0" result="hardAlpha"/>
<feOffset/>
<feGaussianBlur stdDeviation="3.5615"/>
<feComposite in2="hardAlpha" operator="out"/>
<feColorMatrix type="matrix" values="0 0 0 0 0 0 0 0 0 0 0 0 0 0 0 0 0 0 0.15 0"/>
<feBlend mode="normal" in2="BackgroundImageFix" result="effect1_dropShadow_4188_24677"/>
<feBlend mode="normal" in="SourceGraphic" in2="effect1_dropShadow_4188_24677" result="shape"/>
</filter>
<filter id="filter14_d_4188_24677" x="600.968" y="282.898" width="56.984" height="56.984" filterUnits="userSpaceOnUse" color-interpolation-filters="sRGB">
<feFlood flood-opacity="0" result="BackgroundImageFix"/>
<feColorMatrix in="SourceAlpha" type="matrix" values="0 0 0 0 0 0 0 0 0 0 0 0 0 0 0 0 0 0 127 0" result="hardAlpha"/>
<feOffset/>
<feGaussianBlur stdDeviation="3.5615"/>
<feComposite in2="hardAlpha" operator="out"/>
<feColorMatrix type="matrix" values="0 0 0 0 0 0 0 0 0 0 0 0 0 0 0 0 0 0 0.15 0"/>
<feBlend mode="normal" in2="BackgroundImageFix" result="effect1_dropShadow_4188_24677"/>
<feBlend mode="normal" in="SourceGraphic" in2="effect1_dropShadow_4188_24677" result="shape"/>
</filter>
<filter id="filter15_d_4188_24677" x="600.968" y="282.898" width="56.984" height="56.984" filterUnits="userSpaceOnUse" color-interpolation-filters="sRGB">
<feFlood flood-opacity="0" result="BackgroundImageFix"/>
<feColorMatrix in="SourceAlpha" type="matrix" values="0 0 0 0 0 0 0 0 0 0 0 0 0 0 0 0 0 0 127 0" result="hardAlpha"/>
<feOffset/>
<feGaussianBlur stdDeviation="3.5615"/>
<feComposite in2="hardAlpha" operator="out"/>
<feColorMatrix type="matrix" values="0 0 0 0 0 0 0 0 0 0 0 0 0 0 0 0 0 0 0.15 0"/>
<feBlend mode="normal" in2="BackgroundImageFix" result="effect1_dropShadow_4188_24677"/>
<feBlend mode="normal" in="SourceGraphic" in2="effect1_dropShadow_4188_24677" result="shape"/>
</filter>
<filter id="filter16_d_4188_24677" x="600.968" y="334.54" width="56.984" height="56.984" filterUnits="userSpaceOnUse" color-interpolation-filters="sRGB">
<feFlood flood-opacity="0" result="BackgroundImageFix"/>
<feColorMatrix in="SourceAlpha" type="matrix" values="0 0 0 0 0 0 0 0 0 0 0 0 0 0 0 0 0 0 127 0" result="hardAlpha"/>
<feOffset/>
<feGaussianBlur stdDeviation="3.5615"/>
<feComposite in2="hardAlpha" operator="out"/>
<feColorMatrix type="matrix" values="0 0 0 0 0 0 0 0 0 0 0 0 0 0 0 0 0 0 0.15 0"/>
<feBlend mode="normal" in2="BackgroundImageFix" result="effect1_dropShadow_4188_24677"/>
<feBlend mode="normal" in="SourceGraphic" in2="effect1_dropShadow_4188_24677" result="shape"/>
</filter>
<filter id="filter17_d_4188_24677" x="600.968" y="334.54" width="56.984" height="56.984" filterUnits="userSpaceOnUse" color-interpolation-filters="sRGB">
<feFlood flood-opacity="0" result="BackgroundImageFix"/>
<feColorMatrix in="SourceAlpha" type="matrix" values="0 0 0 0 0 0 0 0 0 0 0 0 0 0 0 0 0 0 127 0" result="hardAlpha"/>
<feOffset/>
<feGaussianBlur stdDeviation="3.5615"/>
<feComposite in2="hardAlpha" operator="out"/>
<feColorMatrix type="matrix" values="0 0 0 0 0 0 0 0 0 0 0 0 0 0 0 0 0 0 0.15 0"/>
<feBlend mode="normal" in2="BackgroundImageFix" result="effect1_dropShadow_4188_24677"/>
<feBlend mode="normal" in="SourceGraphic" in2="effect1_dropShadow_4188_24677" result="shape"/>
</filter>
<filter id="filter18_d_4188_24677" x="600.968" y="386.182" width="56.984" height="56.984" filterUnits="userSpaceOnUse" color-interpolation-filters="sRGB">
<feFlood flood-opacity="0" result="BackgroundImageFix"/>
<feColorMatrix in="SourceAlpha" type="matrix" values="0 0 0 0 0 0 0 0 0 0 0 0 0 0 0 0 0 0 127 0" result="hardAlpha"/>
<feOffset/>
<feGaussianBlur stdDeviation="3.5615"/>
<feComposite in2="hardAlpha" operator="out"/>
<feColorMatrix type="matrix" values="0 0 0 0 0 0 0 0 0 0 0 0 0 0 0 0 0 0 0.15 0"/>
<feBlend mode="normal" in2="BackgroundImageFix" result="effect1_dropShadow_4188_24677"/>
<feBlend mode="normal" in="SourceGraphic" in2="effect1_dropShadow_4188_24677" result="shape"/>
</filter>
<filter id="filter19_d_4188_24677" x="600.968" y="437.824" width="56.984" height="56.984" filterUnits="userSpaceOnUse" color-interpolation-filters="sRGB">
<feFlood flood-opacity="0" result="BackgroundImageFix"/>
<feColorMatrix in="SourceAlpha" type="matrix" values="0 0 0 0 0 0 0 0 0 0 0 0 0 0 0 0 0 0 127 0" result="hardAlpha"/>
<feOffset/>
<feGaussianBlur stdDeviation="3.5615"/>
<feComposite in2="hardAlpha" operator="out"/>
<feColorMatrix type="matrix" values="0 0 0 0 0 0 0 0 0 0 0 0 0 0 0 0 0 0 0.15 0"/>
<feBlend mode="normal" in2="BackgroundImageFix" result="effect1_dropShadow_4188_24677"/>
<feBlend mode="normal" in="SourceGraphic" in2="effect1_dropShadow_4188_24677" result="shape"/>
</filter>
<filter id="filter20_d_4188_24677" x="600.968" y="437.824" width="56.984" height="56.984" filterUnits="userSpaceOnUse" color-interpolation-filters="sRGB">
<feFlood flood-opacity="0" result="BackgroundImageFix"/>
<feColorMatrix in="SourceAlpha" type="matrix" values="0 0 0 0 0 0 0 0 0 0 0 0 0 0 0 0 0 0 127 0" result="hardAlpha"/>
<feOffset/>
<feGaussianBlur stdDeviation="3.5615"/>
<feComposite in2="hardAlpha" operator="out"/>
<feColorMatrix type="matrix" values="0 0 0 0 0 0 0 0 0 0 0 0 0 0 0 0 0 0 0.15 0"/>
<feBlend mode="normal" in2="BackgroundImageFix" result="effect1_dropShadow_4188_24677"/>
<feBlend mode="normal" in="SourceGraphic" in2="effect1_dropShadow_4188_24677" result="shape"/>
</filter>
<filter id="filter21_d_4188_24677" x="549.326" y="282.898" width="56.984" height="56.984" filterUnits="userSpaceOnUse" color-interpolation-filters="sRGB">
<feFlood flood-opacity="0" result="BackgroundImageFix"/>
<feColorMatrix in="SourceAlpha" type="matrix" values="0 0 0 0 0 0 0 0 0 0 0 0 0 0 0 0 0 0 127 0" result="hardAlpha"/>
<feOffset/>
<feGaussianBlur stdDeviation="3.5615"/>
<feComposite in2="hardAlpha" operator="out"/>
<feColorMatrix type="matrix" values="0 0 0 0 0 0 0 0 0 0 0 0 0 0 0 0 0 0 0.15 0"/>
<feBlend mode="normal" in2="BackgroundImageFix" result="effect1_dropShadow_4188_24677"/>
<feBlend mode="normal" in="SourceGraphic" in2="effect1_dropShadow_4188_24677" result="shape"/>
</filter>
<filter id="filter22_d_4188_24677" x="549.326" y="334.54" width="56.984" height="56.984" filterUnits="userSpaceOnUse" color-interpolation-filters="sRGB">
<feFlood flood-opacity="0" result="BackgroundImageFix"/>
<feColorMatrix in="SourceAlpha" type="matrix" values="0 0 0 0 0 0 0 0 0 0 0 0 0 0 0 0 0 0 127 0" result="hardAlpha"/>
<feOffset/>
<feGaussianBlur stdDeviation="3.5615"/>
<feComposite in2="hardAlpha" operator="out"/>
<feColorMatrix type="matrix" values="0 0 0 0 0 0 0 0 0 0 0 0 0 0 0 0 0 0 0.15 0"/>
<feBlend mode="normal" in2="BackgroundImageFix" result="effect1_dropShadow_4188_24677"/>
<feBlend mode="normal" in="SourceGraphic" in2="effect1_dropShadow_4188_24677" result="shape"/>
</filter>
<filter id="filter23_d_4188_24677" x="549.326" y="386.182" width="56.984" height="56.984" filterUnits="userSpaceOnUse" color-interpolation-filters="sRGB">
<feFlood flood-opacity="0" result="BackgroundImageFix"/>
<feColorMatrix in="SourceAlpha" type="matrix" values="0 0 0 0 0 0 0 0 0 0 0 0 0 0 0 0 0 0 127 0" result="hardAlpha"/>
<feOffset/>
<feGaussianBlur stdDeviation="3.5615"/>
<feComposite in2="hardAlpha" operator="out"/>
<feColorMatrix type="matrix" values="0 0 0 0 0 0 0 0 0 0 0 0 0 0 0 0 0 0 0.15 0"/>
<feBlend mode="normal" in2="BackgroundImageFix" result="effect1_dropShadow_4188_24677"/>
<feBlend mode="normal" in="SourceGraphic" in2="effect1_dropShadow_4188_24677" result="shape"/>
</filter>
<filter id="filter24_d_4188_24677" x="549.326" y="437.823" width="56.984" height="56.984" filterUnits="userSpaceOnUse" color-interpolation-filters="sRGB">
<feFlood flood-opacity="0" result="BackgroundImageFix"/>
<feColorMatrix in="SourceAlpha" type="matrix" values="0 0 0 0 0 0 0 0 0 0 0 0 0 0 0 0 0 0 127 0" result="hardAlpha"/>
<feOffset/>
<feGaussianBlur stdDeviation="3.5615"/>
<feComposite in2="hardAlpha" operator="out"/>
<feColorMatrix type="matrix" values="0 0 0 0 0 0 0 0 0 0 0 0 0 0 0 0 0 0 0.15 0"/>
<feBlend mode="normal" in2="BackgroundImageFix" result="effect1_dropShadow_4188_24677"/>
<feBlend mode="normal" in="SourceGraphic" in2="effect1_dropShadow_4188_24677" result="shape"/>
</filter>
<filter id="filter25_d_4188_24677" x="755.893" y="282.898" width="56.984" height="56.984" filterUnits="userSpaceOnUse" color-interpolation-filters="sRGB">
<feFlood flood-opacity="0" result="BackgroundImageFix"/>
<feColorMatrix in="SourceAlpha" type="matrix" values="0 0 0 0 0 0 0 0 0 0 0 0 0 0 0 0 0 0 127 0" result="hardAlpha"/>
<feOffset/>
<feGaussianBlur stdDeviation="3.5615"/>
<feComposite in2="hardAlpha" operator="out"/>
<feColorMatrix type="matrix" values="0 0 0 0 0 0 0 0 0 0 0 0 0 0 0 0 0 0 0.15 0"/>
<feBlend mode="normal" in2="BackgroundImageFix" result="effect1_dropShadow_4188_24677"/>
<feBlend mode="normal" in="SourceGraphic" in2="effect1_dropShadow_4188_24677" result="shape"/>
</filter>
<filter id="filter26_d_4188_24677" x="755.893" y="334.54" width="56.984" height="56.984" filterUnits="userSpaceOnUse" color-interpolation-filters="sRGB">
<feFlood flood-opacity="0" result="BackgroundImageFix"/>
<feColorMatrix in="SourceAlpha" type="matrix" values="0 0 0 0 0 0 0 0 0 0 0 0 0 0 0 0 0 0 127 0" result="hardAlpha"/>
<feOffset/>
<feGaussianBlur stdDeviation="3.5615"/>
<feComposite in2="hardAlpha" operator="out"/>
<feColorMatrix type="matrix" values="0 0 0 0 0 0 0 0 0 0 0 0 0 0 0 0 0 0 0.15 0"/>
<feBlend mode="normal" in2="BackgroundImageFix" result="effect1_dropShadow_4188_24677"/>
<feBlend mode="normal" in="SourceGraphic" in2="effect1_dropShadow_4188_24677" result="shape"/>
</filter>
<filter id="filter27_d_4188_24677" x="755.893" y="386.182" width="56.984" height="56.984" filterUnits="userSpaceOnUse" color-interpolation-filters="sRGB">
<feFlood flood-opacity="0" result="BackgroundImageFix"/>
<feColorMatrix in="SourceAlpha" type="matrix" values="0 0 0 0 0 0 0 0 0 0 0 0 0 0 0 0 0 0 127 0" result="hardAlpha"/>
<feOffset/>
<feGaussianBlur stdDeviation="3.5615"/>
<feComposite in2="hardAlpha" operator="out"/>
<feColorMatrix type="matrix" values="0 0 0 0 0 0 0 0 0 0 0 0 0 0 0 0 0 0 0.15 0"/>
<feBlend mode="normal" in2="BackgroundImageFix" result="effect1_dropShadow_4188_24677"/>
<feBlend mode="normal" in="SourceGraphic" in2="effect1_dropShadow_4188_24677" result="shape"/>
</filter>
<filter id="filter28_d_4188_24677" x="755.893" y="437.823" width="56.984" height="56.984" filterUnits="userSpaceOnUse" color-interpolation-filters="sRGB">
<feFlood flood-opacity="0" result="BackgroundImageFix"/>
<feColorMatrix in="SourceAlpha" type="matrix" values="0 0 0 0 0 0 0 0 0 0 0 0 0 0 0 0 0 0 127 0" result="hardAlpha"/>
<feOffset/>
<feGaussianBlur stdDeviation="3.5615"/>
<feComposite in2="hardAlpha" operator="out"/>
<feColorMatrix type="matrix" values="0 0 0 0 0 0 0 0 0 0 0 0 0 0 0 0 0 0 0.15 0"/>
<feBlend mode="normal" in2="BackgroundImageFix" result="effect1_dropShadow_4188_24677"/>
<feBlend mode="normal" in="SourceGraphic" in2="effect1_dropShadow_4188_24677" result="shape"/>
</filter>
<filter id="filter29_d_4188_24677" x="652.61" y="282.898" width="56.984" height="56.984" filterUnits="userSpaceOnUse" color-interpolation-filters="sRGB">
<feFlood flood-opacity="0" result="BackgroundImageFix"/>
<feColorMatrix in="SourceAlpha" type="matrix" values="0 0 0 0 0 0 0 0 0 0 0 0 0 0 0 0 0 0 127 0" result="hardAlpha"/>
<feOffset/>
<feGaussianBlur stdDeviation="3.5615"/>
<feComposite in2="hardAlpha" operator="out"/>
<feColorMatrix type="matrix" values="0 0 0 0 0 0 0 0 0 0 0 0 0 0 0 0 0 0 0.15 0"/>
<feBlend mode="normal" in2="BackgroundImageFix" result="effect1_dropShadow_4188_24677"/>
<feBlend mode="normal" in="SourceGraphic" in2="effect1_dropShadow_4188_24677" result="shape"/>
</filter>
<filter id="filter30_d_4188_24677" x="652.61" y="334.54" width="56.984" height="56.984" filterUnits="userSpaceOnUse" color-interpolation-filters="sRGB">
<feFlood flood-opacity="0" result="BackgroundImageFix"/>
<feColorMatrix in="SourceAlpha" type="matrix" values="0 0 0 0 0 0 0 0 0 0 0 0 0 0 0 0 0 0 127 0" result="hardAlpha"/>
<feOffset/>
<feGaussianBlur stdDeviation="3.5615"/>
<feComposite in2="hardAlpha" operator="out"/>
<feColorMatrix type="matrix" values="0 0 0 0 0 0 0 0 0 0 0 0 0 0 0 0 0 0 0.15 0"/>
<feBlend mode="normal" in2="BackgroundImageFix" result="effect1_dropShadow_4188_24677"/>
<feBlend mode="normal" in="SourceGraphic" in2="effect1_dropShadow_4188_24677" result="shape"/>
</filter>
<filter id="filter31_d_4188_24677" x="652.61" y="386.182" width="56.984" height="56.984" filterUnits="userSpaceOnUse" color-interpolation-filters="sRGB">
<feFlood flood-opacity="0" result="BackgroundImageFix"/>
<feColorMatrix in="SourceAlpha" type="matrix" values="0 0 0 0 0 0 0 0 0 0 0 0 0 0 0 0 0 0 127 0" result="hardAlpha"/>
<feOffset/>
<feGaussianBlur stdDeviation="3.5615"/>
<feComposite in2="hardAlpha" operator="out"/>
<feColorMatrix type="matrix" values="0 0 0 0 0 0 0 0 0 0 0 0 0 0 0 0 0 0 0.15 0"/>
<feBlend mode="normal" in2="BackgroundImageFix" result="effect1_dropShadow_4188_24677"/>
<feBlend mode="normal" in="SourceGraphic" in2="effect1_dropShadow_4188_24677" result="shape"/>
</filter>
<filter id="filter32_d_4188_24677" x="652.61" y="437.823" width="56.984" height="56.984" filterUnits="userSpaceOnUse" color-interpolation-filters="sRGB">
<feFlood flood-opacity="0" result="BackgroundImageFix"/>
<feColorMatrix in="SourceAlpha" type="matrix" values="0 0 0 0 0 0 0 0 0 0 0 0 0 0 0 0 0 0 127 0" result="hardAlpha"/>
<feOffset/>
<feGaussianBlur stdDeviation="3.5615"/>
<feComposite in2="hardAlpha" operator="out"/>
<feColorMatrix type="matrix" values="0 0 0 0 0 0 0 0 0 0 0 0 0 0 0 0 0 0 0.15 0"/>
<feBlend mode="normal" in2="BackgroundImageFix" result="effect1_dropShadow_4188_24677"/>
<feBlend mode="normal" in="SourceGraphic" in2="effect1_dropShadow_4188_24677" result="shape"/>
</filter>
<filter id="filter33_d_4188_24677" x="326.663" y="226.663" width="322.984" height="322.984" filterUnits="userSpaceOnUse" color-interpolation-filters="sRGB">
<feFlood flood-opacity="0" result="BackgroundImageFix"/>
<feColorMatrix in="SourceAlpha" type="matrix" values="0 0 0 0 0 0 0 0 0 0 0 0 0 0 0 0 0 0 127 0" result="hardAlpha"/>
<feOffset/>
<feGaussianBlur stdDeviation="21.8232"/>
<feComposite in2="hardAlpha" operator="out"/>
<feColorMatrix type="matrix" values="0 0 0 0 0.142066 0 0 0 0 0.176699 0 0 0 0 0.204167 0 0 0 0.2 0"/>
<feBlend mode="normal" in2="BackgroundImageFix" result="effect1_dropShadow_4188_24677"/>
<feBlend mode="normal" in="SourceGraphic" in2="effect1_dropShadow_4188_24677" result="shape"/>
</filter>
<linearGradient id="paint0_linear_4188_24677" x1="488.155" y1="303.044" x2="488.155" y2="454.715" gradientUnits="userSpaceOnUse">
<stop stop-color="#011E35" stop-opacity="0"/>
<stop offset="1" stop-color="#011E35"/>
</linearGradient>
<clipPath id="clip0_4188_24677">
<rect width="760" height="560" rx="8" fill="white"/>
</clipPath>
<clipPath id="clip1_4188_24677">
<rect width="346" height="104" fill="white" transform="translate(32 32)"/>
</clipPath>
</defs>
</svg>
