<svg width="760" height="560" viewBox="0 0 760 560" fill="none" xmlns="http://www.w3.org/2000/svg">
<g clip-path="url(#clip0_4188_25663)">
<rect width="760" height="560" rx="8" fill="#EEF2FA"/>
<g clip-path="url(#clip1_4188_25663)">
<path d="M102.649 79.115V90L115.799 76.8295C115.22 69.0001 111.708 61.6791 105.966 56.3329C100.224 50.9867 92.6771 48.0103 84.8366 48L73.9414 48V61.2475H84.8366C89.5726 61.2484 94.1143 63.1327 97.4631 66.4859C100.812 69.8391 102.694 74.3868 102.695 79.129" fill="#FBBC06"/>
<path d="M84.8365 118.742H73.9448L87.0946 131.909C94.9229 131.336 102.245 127.82 107.591 122.065C112.938 116.311 115.912 108.744 115.918 100.885V90H102.691V100.885C102.692 103.234 102.23 105.56 101.332 107.73C100.435 109.9 99.1193 111.872 97.4606 113.533C95.8019 115.193 93.8327 116.511 91.6654 117.41C89.4981 118.308 87.1753 118.77 84.8295 118.77" fill="#4B7DDE"/>
<path d="M45.2474 100.885V90L32.0907 103.174C32.6711 111.008 36.1876 118.332 41.9352 123.678C47.6827 129.024 55.2362 131.997 63.081 132H73.9448V118.753H63.074C58.3387 118.751 53.7978 116.866 50.4498 113.513C47.1017 110.16 45.2204 105.613 45.2195 100.871" fill="#86E0F5"/>
<path d="M63.0742 61.153H73.945L60.7882 48C52.9655 48.5811 45.6514 52.1018 40.3124 57.8561C34.9733 63.6104 32.0041 71.173 32 79.0275V89.9125H45.2301V79.017C45.2301 74.2742 47.1115 69.7256 50.4604 66.3716C53.8094 63.0176 58.3516 61.1329 63.0882 61.132" fill="#E62F34"/>
<path d="M172.669 110.703H206.4V122.841H159.142V59.7705H205.477V71.954H172.666V84.575H198.273V96.7165H172.666L172.669 110.703ZM261.701 122.841H218.963V59.7705H232.49V110.703H261.701V122.841ZM305.761 87.2595L327.544 59.7705H339.491V122.841H326.006V80.795L305.757 106.611L285.554 80.97V122.841H272.026V59.7705H284.19L305.761 87.2595ZM388.071 96.2755L380.426 75.559L372.74 96.279L388.071 96.2755ZM392.552 107.976H368.259L362.858 122.841H348.45L373.226 59.7705H387.588L412.36 122.841H397.952L392.552 107.976Z" fill="#062543"/>
</g>
<path d="M651.63 22.0462V-20.355L600.354 30.9627C602.616 61.4773 616.321 90.0079 638.721 110.833C661.121 131.658 690.56 143.238 721.133 143.251H763.473V91.6468H721.106C702.651 91.6396 684.954 84.2982 671.905 71.2365C658.856 58.1748 651.524 40.4619 651.521 21.9916" fill="white"/>
<path d="M392.486 537.95H447.929L380.827 470.9C340.929 473.863 303.625 491.81 276.395 521.144C249.165 550.477 234.021 589.029 234 629.068V684.556H301.477V629.015C301.477 604.838 311.072 581.65 328.152 564.553C345.233 547.455 368.399 537.848 392.557 537.843" fill="white"/>
<g opacity="0.6">
<rect x="496" y="165" width="226.723" height="87.8555" rx="15.9104" fill="white"/>
<path d="M745.926 250.867C745.926 250.867 722.723 237.608 722.723 217.72L714.768 247.552C714.768 247.552 731.342 256.833 745.926 250.867Z" fill="white"/>
</g>
<g opacity="0.6">
<rect x="544" y="447" width="167.059" height="84.8555" rx="15.9104" fill="white"/>
<path d="M734.262 529.867C734.262 529.867 711.059 516.608 711.059 496.72L703.104 526.552C703.104 526.552 719.677 535.833 734.262 529.867Z" fill="white"/>
</g>
<g opacity="0.6">
<rect width="234.679" height="124.609" rx="15.9104" transform="matrix(-1 0 0 1 593 236)" fill="white"/>
<path d="M335.119 358.62C335.119 358.62 358.322 345.362 358.322 325.474L366.277 355.306C366.277 355.306 349.703 364.587 335.119 358.62Z" fill="white"/>
</g>
<rect x="389" y="210" width="294.343" height="121.092" rx="15.9104" fill="#D3DCEE"/>
<path d="M706.545 329.103C706.545 329.103 683.343 315.845 683.343 295.957L675.387 325.789C675.387 325.789 691.961 335.07 706.545 329.103Z" fill="#D3DCEE"/>
<rect x="433" y="234" width="134" height="22" rx="11" fill="#EEF2FA"/>
<rect x="433" y="271" width="83" height="4" rx="2" fill="#A7B2C8"/>
<rect x="433" y="303" width="108" height="4" rx="2" fill="#A7B2C8"/>
<rect x="433" y="282" width="166" height="4" rx="2" fill="#A7B2C8"/>
<rect x="433" y="292" width="204" height="4" rx="2" fill="#A7B2C8"/>
<rect width="295.343" height="121.092" rx="15.9104" transform="matrix(-1 0 0 1 681 374)" fill="#FFC0C2"/>
<path d="M362.455 493.103C362.455 493.103 385.657 479.845 385.657 459.957L393.613 489.789C393.613 489.789 377.039 499.07 362.455 493.103Z" fill="#FFC0C2"/>
<rect x="433" y="399" width="100" height="21" rx="10.5" fill="#FFE3E4"/>
<rect x="433" y="436" width="152" height="4" rx="2" fill="#EAA1A3"/>
<rect x="433" y="458" width="126" height="4" rx="2" fill="#EAA1A3"/>
<rect x="433" y="469" width="181" height="4" rx="2" fill="#EAA1A3"/>
<rect x="433" y="447" width="96" height="4" rx="2" fill="#EAA1A3"/>
<g filter="url(#filter0_d_4188_25663)">
<ellipse cx="390.979" cy="222.976" rx="55.0235" ry="55.0119" fill="#F3F7FF"/>
<ellipse cx="390.979" cy="222.976" rx="55.0235" ry="55.0119" fill="url(#paint0_linear_4188_25663)" fill-opacity="0.2"/>
<mask id="mask0_4188_25663" style="mask-type:alpha" maskUnits="userSpaceOnUse" x="335" y="167" width="112" height="111">
<ellipse cx="390.979" cy="222.976" rx="55.0235" ry="55.0119" fill="white"/>
</mask>
<g mask="url(#mask0_4188_25663)">
<path d="M370.218 244.009C379.837 240.506 382.913 237.548 382.913 231.216C382.913 227.416 379.761 224.953 378.686 221.696C377.612 218.439 376.99 214.583 376.474 211.778C375.957 208.973 375.752 207.889 375.471 204.9C375.127 201.17 377.625 191.541 390.979 191.541C404.329 191.541 406.834 201.17 406.483 204.9C406.202 207.889 405.995 208.974 405.48 211.778C404.964 214.583 404.349 218.439 403.275 221.696C402.201 224.953 399.045 227.416 399.045 231.216C399.045 237.548 402.12 240.505 411.739 244.009C421.394 247.52 427.661 250.983 427.661 253.429V291.086H354.296V253.429C354.296 250.987 360.567 247.524 370.218 244.009Z" fill="#A7B2C8"/>
</g>
</g>
<ellipse cx="62.3158" cy="62.3026" rx="62.3158" ry="62.3026" transform="matrix(-1 0 0 1 733.715 317.237)" fill="#E62F34"/>
<ellipse cx="62.3158" cy="62.3026" rx="62.3158" ry="62.3026" transform="matrix(-1 0 0 1 733.715 317.237)" fill="url(#paint1_linear_4188_25663)" fill-opacity="0.4"/>
<g clip-path="url(#clip2_4188_25663)">
<rect x="637" y="341" width="72" height="48" rx="20.0446" fill="#FBBC06"/>
<rect x="649" y="353" width="48" height="24" rx="12" fill="white"/>
<circle cx="662.119" cy="365.035" r="2.65173" fill="#E62F34"/>
<circle cx="672.726" cy="365.035" r="2.65173" fill="#E62F34"/>
<circle cx="683.332" cy="365.035" r="2.65173" fill="#E62F34"/>
<path d="M640.242 353.102C636.901 353.102 633.697 354.359 631.335 356.597C628.973 358.835 627.646 361.87 627.646 365.035C627.646 368.2 628.973 371.235 631.335 373.473C633.697 375.711 636.901 376.968 640.242 376.968L640.242 365.035L640.242 353.102Z" fill="#FBBC06"/>
<path d="M705.209 353.102C708.55 353.102 711.754 354.359 714.116 356.597C716.478 358.835 717.805 361.87 717.805 365.035C717.805 368.2 716.478 371.235 714.116 373.473C711.754 375.711 708.55 376.968 705.209 376.968L705.209 365.035L705.209 353.102Z" fill="#FBBC06"/>
<rect x="710" y="317" width="4" height="43" fill="#FBBC06"/>
<circle cx="711.839" cy="317.966" r="5.9664" fill="#CD1B20"/>
<path d="M665 397C665 392.582 668.582 389 673 389H675C679.418 389 683 392.582 683 397H665Z" fill="#FBBC06"/>
<mask id="mask1_4188_25663" style="mask-type:alpha" maskUnits="userSpaceOnUse" x="609" y="317" width="125" height="125">
<circle cx="62.3158" cy="62.3158" r="62.3158" transform="matrix(-1 0 0 1 733.715 317.304)" fill="#4C7EDE"/>
<circle cx="62.3158" cy="62.3158" r="62.3158" transform="matrix(-1 0 0 1 733.715 317.304)" fill="url(#paint2_linear_4188_25663)" fill-opacity="0.4"/>
</mask>
<g mask="url(#mask1_4188_25663)">
<path d="M650 406.027C650 399.385 655.385 394 662.027 394H685.973C692.615 394 698 399.385 698 406.027V445H650V406.027Z" fill="#FBBC06"/>
</g>
<path d="M629.515 393.734C631.317 398.498 638.554 407.872 653.078 407.254" stroke="#FFE59A" stroke-width="5.30347" stroke-linecap="round"/>
<circle cx="627.646" cy="390.227" r="6.62934" fill="#FBBC06"/>
</g>
</g>
<defs>
<filter id="filter0_d_4188_25663" x="282.92" y="114.93" width="216.116" height="216.093" filterUnits="userSpaceOnUse" color-interpolation-filters="sRGB">
<feFlood flood-opacity="0" result="BackgroundImageFix"/>
<feColorMatrix in="SourceAlpha" type="matrix" values="0 0 0 0 0 0 0 0 0 0 0 0 0 0 0 0 0 0 127 0" result="hardAlpha"/>
<feOffset/>
<feGaussianBlur stdDeviation="26.5174"/>
<feComposite in2="hardAlpha" operator="out"/>
<feColorMatrix type="matrix" values="0 0 0 0 0.729444 0 0 0 0 0.775185 0 0 0 0 0.866667 0 0 0 1 0"/>
<feBlend mode="normal" in2="BackgroundImageFix" result="effect1_dropShadow_4188_25663"/>
<feBlend mode="normal" in="SourceGraphic" in2="effect1_dropShadow_4188_25663" result="shape"/>
</filter>
<linearGradient id="paint0_linear_4188_25663" x1="390.979" y1="128.356" x2="390.979" y2="240.58" gradientUnits="userSpaceOnUse">
<stop stop-color="white"/>
<stop offset="1" stop-color="white" stop-opacity="0"/>
</linearGradient>
<linearGradient id="paint1_linear_4188_25663" x1="62.3158" y1="0" x2="62.3158" y2="124.605" gradientUnits="userSpaceOnUse">
<stop stop-color="#FBBC06"/>
<stop offset="1" stop-color="#FBBC06" stop-opacity="0"/>
</linearGradient>
<linearGradient id="paint2_linear_4188_25663" x1="62.3158" y1="0" x2="62.3158" y2="124.632" gradientUnits="userSpaceOnUse">
<stop stop-color="#86E0F5"/>
<stop offset="1" stop-color="#86E0F5" stop-opacity="0"/>
</linearGradient>
<clipPath id="clip0_4188_25663">
<rect width="760" height="560" rx="8" fill="white"/>
</clipPath>
<clipPath id="clip1_4188_25663">
<rect width="381" height="84" fill="white" transform="translate(32 48)"/>
</clipPath>
<clipPath id="clip2_4188_25663">
<rect width="96.7883" height="132.587" fill="white" transform="translate(621.017 312)"/>
</clipPath>
</defs>
</svg>
