<svg width="588" height="588" viewBox="0 0 588 588" fill="none" xmlns="http://www.w3.org/2000/svg">
<g clip-path="url(#clip0_30215_26818)">
<path d="M390.531 420.461C347.165 270.454 238.749 148.738 223.738 129C200.387 156.633 113.655 264.533 69.4548 383.617C21.085 517.176 14.4132 634.945 31.0925 750.739C47.7717 867.192 109.485 986.277 109.485 986.277C142.843 1048.78 192.047 1115.89 224.572 1148.78C272.108 1100.1 380.523 955.354 414.715 767.188C433.063 661.92 433.897 569.81 390.531 420.461Z" fill="white" fill-opacity="0.4" style="mix-blend-mode:soft-light"/>
<path d="M31.7424 298.788C31.7424 287.842 40.616 278.968 51.5621 278.968H453.777C464.723 278.968 473.597 287.842 473.597 298.788V499.922H31.7424V298.788Z" fill="#DAE6F0"/>
<path d="M0 499.922C0 510.868 8.87357 519.917 19.8197 519.917H485.519C496.466 519.917 505.339 510.868 505.339 499.922V499.922H0V499.922Z" fill="#DAE6F0"/>
<path d="M57.1362 305.571C57.1362 301.922 60.0941 298.964 63.7428 298.964H441.596C445.245 298.964 448.203 301.922 448.203 305.571V499.922H57.1362V305.571Z" fill="#004A7F"/>
<path d="M276.916 298.964H57.1362V348.438V425.882C57.1362 444.126 71.9255 458.93 90.169 458.93H307.266C307.266 458.93 276.916 450.685 276.916 425.948V298.964Z" fill="#015FA8"/>
<path d="M161.37 312.961H384.718C357.51 312.961 349.139 335.354 349.139 347.795V425.886C349.139 444.129 334.349 458.93 316.106 458.93H99.0363C99.0363 458.93 128.337 450.637 128.337 425.755V346.005C128.337 327.761 143.126 312.961 161.37 312.961Z" fill="#0079C2"/>
<path d="M394.855 312.961H165.061C192.393 312.961 200.612 335.559 200.612 347.954C200.612 356.575 200.612 463.582 200.738 541.971C200.767 560.182 215.543 574.906 233.754 574.906H458.36C458.36 574.906 427.888 566.702 427.888 541.913V345.984C427.888 327.74 413.098 312.961 394.855 312.961Z" fill="white"/>
<path d="M57.1362 269.49C57.1362 260.368 64.5309 252.974 73.6526 252.974H260.277C269.399 252.974 276.794 260.368 276.794 269.49V278.968H57.1362V269.49Z" fill="#015FA8"/>
<path d="M284.823 368.738C287.182 368.738 289.257 367.723 290.327 366.187L301.585 350.112C301.85 349.736 301.986 349.313 301.979 348.883C301.973 348.454 301.824 348.033 301.548 347.663C301.271 347.292 300.877 346.985 300.404 346.772C299.93 346.558 299.394 346.446 298.849 346.446H252.307L249.35 341.492H239.067V346.446H245.357L256.678 365.246L252.432 371.29C250.137 374.609 253.156 378.646 257.936 378.646H295.673V373.692H257.936L261.395 368.738H284.823ZM255.294 351.4H293.503L284.823 363.784H262.747L255.294 351.4ZM257.936 381.123C254.476 381.123 251.678 383.352 251.678 386.077C251.678 388.801 254.476 391.031 257.936 391.031C261.395 391.031 264.225 388.801 264.225 386.077C264.225 383.352 261.395 381.123 257.936 381.123ZM289.383 381.123C285.924 381.123 283.125 383.352 283.125 386.077C283.125 388.801 285.924 391.031 289.383 391.031C292.842 391.031 295.673 388.801 295.673 386.077C295.673 383.352 292.842 381.123 289.383 381.123Z" fill="#0079C2"/>
<rect x="314.885" y="364.95" width="77.4515" height="25.9945" rx="12.9973" fill="#D6E3ED"/>
<rect x="238.703" y="410.94" width="153.633" height="4.99896" rx="2.49948" fill="#AFC8DC"/>
<rect x="238.703" y="421.938" width="71.103" height="4.99893" rx="2.49947" fill="#AFC8DC"/>
<rect x="238.703" y="521.917" width="71.103" height="4.99893" rx="2.49947" fill="#DAE6F0"/>
<rect x="238.703" y="532.915" width="41.9" height="4.99893" rx="2.49947" fill="#DAE6F0"/>
<path d="M242.512 463.446C242.512 461.794 245.658 456.841 249.852 453.538C262.696 443.424 272.92 451.061 263.483 457.666C255.491 463.26 252.727 470.102 259.018 470.928C266.548 471.916 263.839 463.897 269.774 457.666C276.065 451.061 277.114 470.055 277.114 469.225C277.114 457.666 282.309 446.933 293.89 446.933C305.424 446.933 302.279 469.225 293.89 469.225C287.599 469.225 287.599 462.62 293.89 460.143C299.359 457.99 311.716 457.666 318.007 463.446" stroke="#AFC8DC" stroke-width="2.47746"/>
<ellipse cx="350.212" cy="529.739" rx="25.165" ry="19.8155" fill="#C0EBFF"/>
<path d="M343.553 548.705L393.879 493.181L473.944 500.386L464.793 520.2C452.593 531.308 421.487 554.226 403.029 566.133C388.16 575.724 372.528 570.336 369.86 566.133L403.029 525.604L388.16 534.61C369.86 555.505 350.034 552.908 343.553 548.705Z" fill="#C6844E"/>
<path d="M525.414 661.6H421.33L421.098 661.199C409.723 641.494 397.318 620.007 398.454 595.853C398.935 585.631 396.167 576.625 392.735 567.618L439.63 533.709C439.63 533.709 456.787 529.206 453.356 513.895L447.637 506.69L403.029 481.472C398.836 482.973 385.873 491.559 367.572 513.895C349.272 536.231 331.734 533.409 325.252 529.206L360.71 481.472L338.978 466.161C363.76 464.06 418.585 460.217 439.63 461.658C465.937 463.46 473.944 468.863 515.12 500.386C556.296 531.908 547.146 562.53 540.283 591.35C534.793 614.407 528.083 647.79 525.414 661.6Z" fill="#E2AF85"/>
<path d="M578.265 525.737C582.042 526.445 583.988 529.934 582.611 533.529L581.191 537.238C579.814 540.833 575.636 543.174 571.859 542.466L561.01 540.432L567.415 523.703L578.265 525.737Z" fill="#DAE6F0"/>
<path d="M278.823 470.904L566.04 528.981C562.333 539.419 550.535 546.103 539.684 543.909L333.725 502.263C305.188 496.493 282.488 486.685 274.705 482.502L278.823 470.904Z" fill="#37CEEF"/>
<path d="M277.597 473.686L564.814 531.762C568.52 521.324 562.731 511.084 551.88 508.89L345.921 467.244C317.384 461.474 291.227 461.402 281.715 462.088L277.597 473.686Z" fill="#37CEEF"/>
<path d="M257.999 466.634L277.597 470.316L273.592 480.795C273.592 480.795 264.128 478.393 255.922 472.068L257.999 466.634Z" fill="#DAE6F0"/>
<path d="M257.36 467.223L276.958 470.904L280.963 460.425C280.963 460.425 271.054 459.187 259.436 461.789L257.36 467.223Z" fill="#DAE6F0"/>
<path d="M257.36 466.209L240.733 463.051L255.26 471.764L257.36 466.209Z" fill="#004A7F"/>
<path d="M257.005 466.634L240.378 463.477L259.105 461.08L257.005 466.634Z" fill="#004A7F"/>
<rect width="34.6197" height="8.42042" transform="matrix(-0.346466 0.941243 -0.98332 -0.19179 497.088 499.59)" fill="#EEF7FF"/>
<path d="M358.422 518.399C370.317 532.809 387.779 560.429 395.023 572.437L440.774 533.394C440.774 533.394 426.675 540.599 395.023 513.896C379.01 500.386 369.86 483.274 352.703 476.969C338.978 471.926 326.396 474.868 321.821 476.969C329.065 484.775 346.526 503.989 358.422 518.399Z" fill="#E2AF85"/>
</g>
<defs>
<clipPath id="clip0_30215_26818">
<rect width="588" height="588" fill="white"/>
</clipPath>
</defs>
</svg>
