<svg width="760" height="560" viewBox="0 0 760 560" fill="none" xmlns="http://www.w3.org/2000/svg">
<g clip-path="url(#clip0_4188_25960)">
<rect width="760" height="560" rx="8" fill="#0079C2"/>
<path d="M694.578 319.455C660.423 169.448 575.037 47.7319 563.214 27.9941C544.823 55.627 476.513 163.527 441.702 282.611C403.606 416.17 398.352 533.939 411.488 649.734C424.625 766.186 473.229 885.271 473.229 885.271C499.502 947.774 538.255 1014.88 563.871 1047.78C601.309 999.092 686.696 854.349 713.626 666.182C728.076 560.914 728.733 468.804 694.578 319.455Z" fill="white" fill-opacity="0.4" style="mix-blend-mode:soft-light"/>
<g clip-path="url(#clip1_4188_25960)">
<path d="M119.583 120.855H137.533V126.731H128.974V167.916H119.583V120.855Z" fill="white"/>
<path d="M148.203 150.289L149.814 126.731H150.37L151.982 150.289H148.203ZM137.755 167.916H147.036L147.925 155.444H152.371L153.26 167.916H162.485L157.539 120.855H142.701L137.755 167.916Z" fill="white"/>
<path d="M175.933 151.453V160.322C175.933 161.542 176.878 161.874 177.378 161.874C178.268 161.874 178.879 161.154 178.879 160.322V149.347C178.879 147.906 178.601 146.243 175.1 146.243H171.265V141.088H175.267C177.934 141.088 178.879 140.478 178.879 137.595V128.283C178.879 127.452 178.268 126.731 177.378 126.731C176.823 126.731 175.933 127.064 175.933 128.283V135.933H166.486V129.281C166.486 126.011 166.875 120.855 173.488 120.855H181.324C187.937 120.855 188.382 126.011 188.382 129.281V136.819C188.382 141.975 184.77 143.36 181.935 143.249V143.693C188.271 143.527 188.382 148.404 188.382 150.067V159.546C188.382 162.872 187.937 167.971 181.324 167.971H173.488C166.875 167.971 166.486 162.872 166.486 159.546V151.509H175.933V151.453Z" fill="white"/>
<path d="M194.55 120.855H216.39V167.916H206.999V126.731H203.998V167.916H194.55V120.855Z" fill="white"/>
<path d="M232.062 146.741V126.731H233.284C234.285 126.731 235.007 127.562 235.007 129.059V144.358C235.007 145.854 234.285 146.686 233.284 146.686H232.062V146.741ZM222.615 167.916H232.062V151.896H237.452C244.01 151.896 244.455 146.797 244.455 143.471V129.225C244.455 125.955 244.01 120.8 237.452 120.8H222.615V167.916Z" fill="white"/>
<path d="M263.071 160.322C263.071 161.154 262.46 161.874 261.571 161.874C261.015 161.874 260.126 161.542 260.126 160.322V128.283C260.126 127.064 261.071 126.731 261.571 126.731C262.46 126.731 263.071 127.452 263.071 128.283V160.322ZM250.623 159.546C250.623 162.872 251.068 167.971 257.625 167.971H265.461C272.019 167.971 272.463 162.872 272.463 159.546V129.281C272.463 126.011 272.019 120.855 265.461 120.855H257.625C251.068 120.855 250.623 126.011 250.623 129.281V159.546Z" fill="white"/>
<path d="M303.195 120.855H315.477V167.916H306.085V138.427H305.696L300.861 167.916H293.303L288.468 138.427H288.135V167.916H278.688V120.855H290.914L297.082 154.003L303.195 120.855Z" fill="white"/>
<path d="M107.357 56.5558C104.467 43.9176 97.2424 33.6629 96.2421 32C94.6861 34.3281 88.9065 43.4187 85.9611 53.4516C82.7379 64.7041 82.2933 74.6261 83.4048 84.3819C84.5162 94.1931 88.6286 104.226 88.6286 104.226C90.8515 109.492 94.1303 115.146 96.2977 117.917C99.4653 113.816 106.69 101.621 108.968 85.7677C110.191 76.8988 110.246 69.1385 107.357 56.5558ZM96.1865 114.758C94.7416 112.097 92.5743 107.053 92.352 99.1819C92.2964 91.6433 95.3529 85.1025 96.2421 83.7722C97.0201 85.1025 99.632 90.8119 99.9655 98.5721C100.188 106.111 97.687 112.097 96.1865 114.758ZM106.467 77.952C106.356 82.7744 105.801 87.874 105.023 90.9227C105.3 85.6568 104.634 78.2845 103.467 72.5198C102.244 66.755 98.854 57.1101 96.131 52.6756C93.6302 56.9438 90.5181 65.2584 88.9065 72.4643C87.2949 79.6703 87.2393 88.4283 87.2393 91.0336C86.7947 88.8164 85.7388 80.9452 86.0167 73.0186C86.2946 66.4778 87.795 59.7707 88.6286 56.6666C91.8518 46.3565 95.4641 39.7603 96.131 38.7071C96.7978 39.7603 101.355 47.9086 103.744 56.3895C106.134 64.9812 106.579 73.1295 106.467 77.952Z" fill="white"/>
<path d="M101.133 120.855H79.1813V135.544L79.2368 135.489C84.4051 130.334 92.7966 130.334 97.9649 135.489C103.133 140.644 103.133 149.014 97.9649 154.169C97.9649 154.224 97.9093 154.224 97.9093 154.224L97.8537 154.28C92.6855 159.38 85.9612 161.929 79.1813 161.929C72.4014 161.929 65.6215 159.38 60.4533 154.224C51.3393 145.134 50.2834 131.054 57.23 120.8C58.1748 119.414 59.2306 118.084 60.4533 116.864C65.6215 111.709 72.4014 109.159 79.1813 109.159V73.8501C53.1176 73.9055 32 94.9137 32 120.855C32 146.797 53.1177 167.86 79.1257 167.86C92.6855 167.86 104.911 162.096 113.525 152.95V120.8H101.133V120.855Z" fill="white"/>
</g>
<path d="M412 197.782C412 186.836 420.874 177.962 431.82 177.962H740.18C751.126 177.962 760 186.836 760 197.782V398.916H412V197.782Z" fill="#DAE6F0"/>
<path d="M387 398.915C387 409.861 395.874 418.911 406.82 418.911H765.18C776.126 418.911 785 409.861 785 398.915H387Z" fill="#DAE6F0"/>
<path d="M432 204.565C432 200.916 434.958 197.958 438.607 197.958H733.393C737.042 197.958 740 200.916 740 204.565V398.916H432V204.565Z" fill="#004A7F"/>
<path d="M605.096 197.958H432V247.432V324.876C432 343.12 446.789 357.924 465.033 357.924H629C629 357.924 605.096 349.679 605.096 324.941V197.958Z" fill="#015FA8"/>
<path d="M521.11 211.955H690C668.571 211.955 661.978 234.348 661.978 246.789V324.88C661.978 343.123 647.189 357.924 628.945 357.924H465C465 357.924 488.077 349.631 488.077 324.749V244.999C488.077 226.755 502.866 211.955 521.11 211.955Z" fill="#0079C2"/>
<path d="M690.967 211.955H517C538.527 211.955 545 234.553 545 246.948C545 255.569 545 362.56 545.099 440.947C545.122 459.165 559.9 473.9 578.119 473.9H748C748 473.9 724 465.696 724 440.907V244.978C724 226.734 709.211 211.955 690.967 211.955Z" fill="white"/>
<path d="M432 168.484C432 159.362 439.395 151.968 448.516 151.968H588.484C597.605 151.968 605 159.362 605 168.484V177.962H432V168.484Z" fill="#015FA8"/>
<path d="M611.324 267.732C613.182 267.732 614.816 266.717 615.658 265.181L624.525 249.106C624.734 248.73 624.841 248.307 624.836 247.877C624.831 247.448 624.714 247.027 624.496 246.657C624.278 246.286 623.968 245.979 623.595 245.766C623.222 245.552 622.8 245.44 622.37 245.44H585.714L583.386 240.486H575.287V245.44H580.24L589.157 264.24L585.813 270.283C584.005 273.602 586.383 277.64 590.148 277.64H619.869V272.686H590.148L592.872 267.732H611.324ZM588.067 250.394H618.16L611.324 262.778H593.937L588.067 250.394ZM590.148 280.117C587.423 280.117 585.219 282.346 585.219 285.071C585.219 287.795 587.423 290.025 590.148 290.025C592.872 290.025 595.101 287.795 595.101 285.071C595.101 282.346 592.872 280.117 590.148 280.117ZM614.915 280.117C612.191 280.117 609.987 282.346 609.987 285.071C609.987 287.795 612.191 290.025 614.915 290.025C617.64 290.025 619.869 287.795 619.869 285.071C619.869 282.346 617.64 280.117 614.915 280.117Z" fill="#0079C2"/>
<rect x="635" y="263.944" width="61" height="25.9945" rx="12.9973" fill="#D6E3ED"/>
<rect x="575" y="309.935" width="121" height="4.99896" rx="2.49948" fill="#AFC8DC"/>
<rect x="575" y="320.932" width="56" height="4.99893" rx="2.49947" fill="#AFC8DC"/>
<rect x="575" y="420.911" width="56" height="4.99893" rx="2.49947" fill="#DAE6F0"/>
<rect x="575" y="431.909" width="33" height="4.99893" rx="2.49947" fill="#DAE6F0"/>
<path d="M578 362.44C578 360.788 580.477 355.834 583.781 352.532C593.897 342.418 601.949 350.055 594.516 356.66C588.222 362.254 586.045 369.096 591 369.922C596.93 370.91 594.797 362.891 599.471 356.66C604.426 350.055 605.252 369.049 605.252 368.219C605.252 356.66 609.344 345.927 618.465 345.927C627.549 345.927 625.072 368.219 618.465 368.219C613.51 368.219 613.51 361.614 618.465 359.137C622.772 356.984 632.504 356.66 637.459 362.44" stroke="#AFC8DC" stroke-width="2.47746"/>
<ellipse cx="662.824" cy="428.733" rx="19.8197" ry="19.8155" fill="#C0EBFF"/>
<path d="M657.579 447.699L697.215 392.175L760.273 399.38L753.067 419.194C743.458 430.302 718.959 453.221 704.422 465.127C692.711 474.719 680.4 469.33 678.298 465.127L704.422 424.598L692.711 433.605C678.298 454.5 662.683 451.902 657.579 447.699Z" fill="#C6844E"/>
<path d="M800.811 560.594H718.835L718.653 560.193C709.694 540.488 699.924 519.001 700.819 494.848C701.197 484.625 699.017 475.619 696.314 466.612L733.248 432.704C733.248 432.704 746.761 428.2 744.058 412.89L739.554 405.684L704.422 380.467C701.119 381.968 690.91 390.554 676.496 412.89C662.083 435.225 648.27 432.403 643.166 428.2L671.091 380.467L653.975 365.156C673.493 363.054 716.673 359.211 733.248 360.652C753.968 362.454 760.273 367.858 792.703 399.38C825.133 430.902 817.926 461.524 812.522 490.344C808.198 513.401 802.913 546.785 800.811 560.594Z" fill="#E2AF85"/>
<path d="M605.634 369.898L832.807 430.754C830.421 439.658 821.281 444.945 812.378 442.56L650.045 399.074C627.474 393.028 609.265 383.699 602.982 379.791L605.634 369.898Z" fill="#37CEEF"/>
<path d="M605.633 369.901L832.807 430.757C835.193 421.853 829.922 412.706 821.018 410.321L658.686 366.834C636.115 360.788 615.68 359.764 608.284 360.008L605.633 369.901Z" fill="#37CEEF"/>
<path d="M589.694 365.629L605.633 369.898L602.981 379.79C602.981 379.79 595.251 377.13 588.32 370.758L589.694 365.629Z" fill="#DAE6F0"/>
<path d="M589.694 365.629L605.632 369.898L608.283 360.007C608.283 360.007 600.259 358.446 591.068 360.5L589.694 365.629Z" fill="#DAE6F0"/>
<path d="M589.694 365.628L576.32 362.046L588.319 370.758L589.694 365.628Z" fill="#004A7F"/>
<path d="M589.694 365.629L576.319 362.046L591.069 360.499L589.694 365.629Z" fill="#004A7F"/>
<path d="M669.289 417.393C678.658 431.803 692.411 459.423 698.116 471.431L734.149 432.388C734.149 432.388 723.045 439.593 698.116 412.89C685.504 399.38 678.298 382.268 664.785 375.964C653.975 370.92 644.066 373.862 640.463 375.964C646.168 383.769 659.921 402.983 669.289 417.393Z" fill="#E2AF85"/>
</g>
<defs>
<clipPath id="clip0_4188_25960">
<rect width="760" height="560" rx="8" fill="white"/>
</clipPath>
<clipPath id="clip1_4188_25960">
<rect width="284" height="135.971" fill="white" transform="translate(32 32)"/>
</clipPath>
</defs>
</svg>
