<svg width="608" height="448" viewBox="0 0 608 448" fill="none" xmlns="http://www.w3.org/2000/svg">
<g clip-path="url(#clip0_30215_28674)">
<rect width="608" height="448" rx="6.4" fill="#0079C2"/>
<path d="M555.662 255.564C528.339 135.559 460.029 38.1857 450.571 22.3955C435.858 44.5018 381.211 130.822 353.362 226.089C322.885 332.936 318.681 427.151 329.191 519.787C339.7 612.949 378.583 708.217 378.583 708.217C399.602 758.219 430.604 811.906 451.096 838.223C481.047 799.274 549.357 683.479 570.901 532.946C582.461 448.731 582.986 375.044 555.662 255.564Z" fill="white" fill-opacity="0.4" style="mix-blend-mode:soft-light"/>
<g clip-path="url(#clip1_30215_28674)">
<path d="M102.066 103.084H116.426V107.785H109.58V140.733H102.066V103.084Z" fill="white"/>
<path d="M124.962 126.631L126.251 107.785H126.696L127.985 126.631H124.962ZM116.604 140.733H124.029L124.74 130.755H128.297L129.008 140.733H136.388L132.431 103.084H120.561L116.604 140.733Z" fill="white"/>
<path d="M147.147 127.563V134.658C147.147 135.633 147.903 135.899 148.303 135.899C149.014 135.899 149.503 135.323 149.503 134.658V125.878C149.503 124.725 149.281 123.394 146.48 123.394H143.412V119.27H146.613C148.747 119.27 149.503 118.782 149.503 116.476V109.027C149.503 108.361 149.014 107.785 148.303 107.785C147.858 107.785 147.147 108.051 147.147 109.027V115.146H139.589V109.825C139.589 107.209 139.9 103.084 145.191 103.084H151.459C156.75 103.084 157.105 107.209 157.105 109.825V115.856C157.105 119.98 154.216 121.088 151.948 121V121.354C157.016 121.221 157.105 125.124 157.105 126.454V134.037C157.105 136.698 156.75 140.777 151.459 140.777H145.191C139.9 140.777 139.589 136.698 139.589 134.037V127.607H147.147V127.563Z" fill="white"/>
<path d="M162.04 103.084H179.512V140.733H171.999V107.785H169.598V140.733H162.04V103.084Z" fill="white"/>
<path d="M192.05 123.793V107.785H193.028C193.828 107.785 194.406 108.45 194.406 109.647V121.886C194.406 123.084 193.828 123.749 193.028 123.749H192.05V123.793ZM184.492 140.733H192.05V127.917H196.362C201.608 127.917 201.964 123.838 201.964 121.177V109.78C201.964 107.164 201.608 103.04 196.362 103.04H184.492V140.733Z" fill="white"/>
<path d="M216.857 134.658C216.857 135.323 216.368 135.899 215.657 135.899C215.212 135.899 214.501 135.633 214.501 134.658V109.027C214.501 108.051 215.257 107.785 215.657 107.785C216.368 107.785 216.857 108.361 216.857 109.027V134.658ZM206.899 134.037C206.899 136.698 207.254 140.777 212.5 140.777H218.769C224.015 140.777 224.371 136.698 224.371 134.037V109.825C224.371 107.209 224.015 103.084 218.769 103.084H212.5C207.254 103.084 206.899 107.209 206.899 109.825V134.037Z" fill="white"/>
<path d="M248.956 103.084H258.781V140.733H251.268V117.142H250.957L247.089 140.733H241.043L237.175 117.142H236.908V140.733H229.35V103.084H239.131L244.066 129.602L248.956 103.084Z" fill="white"/>
<path d="M92.2854 51.6446C89.9735 41.5341 84.194 33.3303 83.3937 32C82.1489 33.8625 77.5252 41.135 75.1689 49.1613C72.5904 58.1632 72.2347 66.1009 73.1239 73.9055C74.013 81.7545 77.3029 89.7809 77.3029 89.7809C79.0813 93.9936 81.7043 98.5167 83.4382 100.734C85.9723 97.4524 91.7519 87.6967 93.5746 75.0141C94.5527 67.919 94.5972 61.7108 92.2854 51.6446ZM83.3492 98.2063C82.1933 96.0778 80.4595 92.0424 80.2816 85.7455C80.2372 79.7147 82.6824 74.482 83.3937 73.4177C84.0161 74.482 86.1057 79.0495 86.3724 85.2577C86.5502 91.2886 84.5496 96.0778 83.3492 98.2063ZM91.574 68.7616C91.4851 72.6195 91.0405 76.6992 90.4181 79.1382C90.6404 74.9255 90.1069 69.0276 89.1733 64.4158C88.1952 59.804 85.4832 52.0881 83.3048 48.5405C81.3042 51.955 78.8145 58.6067 77.5252 64.3715C76.2359 70.1362 76.1915 77.1427 76.1915 79.2269C75.8358 77.4531 74.9911 71.1562 75.2134 64.8149C75.4357 59.5823 76.6361 54.2166 77.3029 51.7333C79.8815 43.4852 82.7713 38.2082 83.3048 37.3657C83.8383 38.2082 87.4839 44.7269 89.3956 51.5116C91.3073 58.385 91.6629 64.9036 91.574 68.7616Z" fill="white"/>
<path d="M87.306 103.084H69.745V114.835L69.7895 114.791C73.9241 110.667 80.6373 110.667 84.7719 114.791C88.9065 118.915 88.9065 125.611 84.7719 129.735C84.7719 129.779 84.7274 129.779 84.7274 129.779L84.683 129.824C80.5484 133.904 75.1689 135.943 69.745 135.943C64.3211 135.943 58.8972 133.904 54.7626 129.779C47.4715 122.507 46.6268 111.243 52.184 103.04C52.9398 101.931 53.7845 100.867 54.7626 99.8913C58.8972 95.7673 64.3211 93.7274 69.745 93.7274V65.48C48.8941 65.5243 32 82.3309 32 103.084C32 123.837 48.8941 140.688 69.7006 140.688C80.5484 140.688 90.3292 136.076 97.2202 128.76V103.04H87.306V103.084Z" fill="white"/>
</g>
<path d="M329.6 158.225C329.6 149.468 336.699 142.37 345.456 142.37H592.144C600.901 142.37 608 149.468 608 158.225V319.132H329.6V158.225Z" fill="#DAE6F0"/>
<path d="M309.6 319.132C309.6 327.889 316.699 335.129 325.456 335.129H612.144C620.901 335.129 628 327.889 628 319.132V319.132H309.6V319.132Z" fill="#DAE6F0"/>
<path d="M345.6 163.651C345.6 160.732 347.966 158.366 350.885 158.366H586.715C589.634 158.366 592 160.732 592 163.651V319.132H345.6V163.651Z" fill="#004A7F"/>
<path d="M484.077 158.366H345.6V197.945V259.901C345.6 274.496 357.431 286.339 372.026 286.339H503.2C503.2 286.339 484.077 279.743 484.077 259.953V158.366Z" fill="#015FA8"/>
<path d="M416.888 169.564H552C534.857 169.564 529.582 187.478 529.582 197.431V259.904C529.582 274.499 517.751 286.339 503.156 286.339H372C372 286.339 390.462 279.704 390.462 259.799V195.999C390.462 181.404 402.293 169.564 416.888 169.564Z" fill="#0079C2"/>
<path d="M552.774 169.564H413.6C430.821 169.564 436 187.642 436 197.558C436 204.455 436 290.048 436.079 352.758C436.098 367.332 447.92 379.12 462.495 379.12H598.4C598.4 379.12 579.2 372.557 579.2 352.725V195.982C579.2 181.387 567.369 169.564 552.774 169.564Z" fill="white"/>
<path d="M345.6 134.787C345.6 127.49 351.516 121.574 358.813 121.574H470.787C478.084 121.574 484 127.49 484 134.787V142.37H345.6V134.787Z" fill="#015FA8"/>
<path d="M489.059 214.186C490.545 214.186 491.853 213.373 492.527 212.145L499.62 199.284C499.787 198.984 499.873 198.645 499.869 198.302C499.865 197.958 499.771 197.621 499.597 197.325C499.423 197.029 499.174 196.783 498.876 196.613C498.578 196.442 498.24 196.352 497.896 196.352H468.571L466.709 192.389H460.229V196.352H464.192L471.325 211.392L468.651 216.227C467.204 218.882 469.106 222.112 472.118 222.112H495.895V218.149H472.118L474.298 214.186H489.059ZM470.454 200.315H494.528L489.059 210.223H475.15L470.454 200.315ZM472.118 224.093C469.938 224.093 468.175 225.877 468.175 228.057C468.175 230.236 469.938 232.02 472.118 232.02C474.298 232.02 476.081 230.236 476.081 228.057C476.081 225.877 474.298 224.093 472.118 224.093ZM491.932 224.093C489.753 224.093 487.989 225.877 487.989 228.057C487.989 230.236 489.753 232.02 491.932 232.02C494.112 232.02 495.895 230.236 495.895 228.057C495.895 225.877 494.112 224.093 491.932 224.093Z" fill="#0079C2"/>
<rect x="508" y="211.155" width="48.8" height="20.7956" rx="10.3978" fill="#D6E3ED"/>
<rect x="460" y="247.947" width="96.8" height="3.99917" rx="1.99958" fill="#AFC8DC"/>
<rect x="460" y="256.746" width="44.8" height="3.99915" rx="1.99957" fill="#AFC8DC"/>
<rect x="460" y="336.729" width="44.8" height="3.99915" rx="1.99957" fill="#DAE6F0"/>
<rect x="460" y="345.527" width="26.4" height="3.99915" rx="1.99957" fill="#DAE6F0"/>
<path d="M462.4 289.952C462.4 288.63 464.382 284.667 467.025 282.025C475.117 273.934 481.559 280.044 475.613 285.328C470.578 289.803 468.836 295.277 472.8 295.937C477.544 296.728 475.837 290.313 479.577 285.328C483.541 280.044 484.202 295.239 484.202 294.575C484.202 285.328 487.475 276.741 494.772 276.741C502.039 276.741 500.057 294.575 494.772 294.575C490.808 294.575 490.808 289.291 494.772 287.309C498.218 285.587 506.003 285.328 509.967 289.952" stroke="#AFC8DC" stroke-width="1.98197"/>
<ellipse cx="530.259" cy="342.986" rx="15.8557" ry="15.8524" fill="#C0EBFF"/>
<path d="M526.063 358.16L557.772 313.74L608.219 319.504L602.453 335.356C594.766 344.242 575.167 362.576 563.537 372.102C554.169 379.775 544.32 375.464 542.638 372.102L563.537 339.679L554.169 346.884C542.638 363.6 530.147 361.522 526.063 358.16Z" fill="#C6844E"/>
<path d="M640.648 448.475H575.068L574.922 448.154C567.755 432.391 559.939 415.201 560.655 395.878C560.958 387.7 559.213 380.495 557.051 373.29L586.599 346.163C586.599 346.163 597.409 342.56 595.247 330.312L591.643 324.548L563.537 304.373C560.895 305.574 552.727 312.443 541.197 330.312C529.666 348.18 518.616 345.923 514.532 342.56L536.873 304.373L523.18 292.125C538.795 290.443 573.338 287.369 586.599 288.522C603.174 289.963 608.219 294.286 634.162 319.504C660.106 344.722 654.341 369.219 650.017 392.276C646.558 410.721 642.33 437.428 640.648 448.475Z" fill="#E2AF85"/>
<path d="M484.507 295.918L666.246 344.603C664.337 351.726 657.025 355.956 649.902 354.048L520.036 319.259C501.979 314.422 487.412 306.959 482.386 303.832L484.507 295.918Z" fill="#37CEEF"/>
<path d="M484.506 295.92L666.245 344.605C668.154 337.482 663.937 330.164 656.815 328.256L526.949 293.467C508.892 288.63 492.544 287.811 486.627 288.006L484.506 295.92Z" fill="#37CEEF"/>
<path d="M471.755 292.502L484.506 295.918L482.385 303.831C482.385 303.831 476.201 301.703 470.655 296.606L471.755 292.502Z" fill="#DAE6F0"/>
<path d="M471.755 292.503L484.506 295.918L486.627 288.005C486.627 288.005 480.207 286.757 472.855 288.4L471.755 292.503Z" fill="#DAE6F0"/>
<path d="M471.755 292.502L461.055 289.636L470.655 296.606L471.755 292.502Z" fill="#004A7F"/>
<path d="M471.755 292.503L461.055 289.637L472.855 288.399L471.755 292.503Z" fill="#004A7F"/>
<path d="M535.431 333.914C542.926 345.443 553.928 367.538 558.493 377.145L587.319 345.911C587.319 345.911 578.436 351.675 558.493 330.312C548.403 319.504 542.638 305.814 531.828 300.771C523.18 296.736 515.253 299.09 512.37 300.771C516.934 307.015 527.936 322.386 535.431 333.914Z" fill="#E2AF85"/>
</g>
<defs>
<clipPath id="clip0_30215_28674">
<rect width="608" height="448" rx="6.4" fill="white"/>
</clipPath>
<clipPath id="clip1_30215_28674">
<rect width="227.2" height="108.777" fill="white" transform="translate(32 32)"/>
</clipPath>
</defs>
</svg>
