<svg width="760" height="560" viewBox="0 0 760 560" fill="none" xmlns="http://www.w3.org/2000/svg">
<g clip-path="url(#clip0_4188_25960)">
<rect width="760" height="560" rx="8" fill="#0079C2"/>
<path d="M694.578 319.455C660.423 169.448 575.037 47.7319 563.214 27.9941C544.823 55.627 476.513 163.527 441.702 282.611C403.606 416.17 398.352 533.939 411.488 649.734C424.625 766.186 473.229 885.271 473.229 885.271C499.502 947.774 538.255 1014.88 563.871 1047.78C601.309 999.092 686.696 854.349 713.626 666.182C728.076 560.914 728.733 468.804 694.578 319.455Z" fill="white" fill-opacity="0.4" style="mix-blend-mode:soft-light"/>
<g clip-path="url(#clip1_4188_25960)">
<path d="M135.583 136.845H153.533V142.72H144.974V183.905H135.583V136.845Z" fill="white"/>
<path d="M164.203 166.278L165.814 142.72H166.37L167.982 166.278H164.203ZM153.755 183.905H163.036L163.925 171.433H168.371L169.26 183.905H178.485L173.539 136.845H158.701L153.755 183.905Z" fill="white"/>
<path d="M191.933 167.442V176.311C191.933 177.531 192.878 177.863 193.378 177.863C194.268 177.863 194.879 177.143 194.879 176.311V165.336C194.879 163.895 194.601 162.232 191.1 162.232H187.265V157.077H191.267C193.934 157.077 194.879 156.467 194.879 153.585V144.272C194.879 143.441 194.268 142.72 193.378 142.72C192.823 142.72 191.933 143.053 191.933 144.272V151.922H182.486V145.27C182.486 142 182.875 136.845 189.488 136.845H197.324C203.937 136.845 204.382 142 204.382 145.27V152.809C204.382 157.964 200.77 159.35 197.935 159.239V159.682C204.271 159.516 204.382 164.394 204.382 166.057V175.535C204.382 178.861 203.937 183.961 197.324 183.961H189.488C182.875 183.961 182.486 178.861 182.486 175.535V167.498H191.933V167.442Z" fill="white"/>
<path d="M210.55 136.845H232.39V183.905H222.999V142.72H219.998V183.905H210.55V136.845Z" fill="white"/>
<path d="M248.062 162.731V142.721H249.284C250.285 142.721 251.007 143.552 251.007 145.049V160.348C251.007 161.844 250.285 162.676 249.284 162.676H248.062V162.731ZM238.615 183.906H248.062V167.886H253.452C260.01 167.886 260.455 162.786 260.455 159.461V145.215C260.455 141.945 260.01 136.79 253.452 136.79H238.615V183.906Z" fill="white"/>
<path d="M279.071 176.311C279.071 177.143 278.46 177.863 277.571 177.863C277.015 177.863 276.126 177.531 276.126 176.311V144.272C276.126 143.053 277.071 142.72 277.571 142.72C278.46 142.72 279.071 143.441 279.071 144.272V176.311ZM266.623 175.535C266.623 178.861 267.068 183.961 273.625 183.961H281.461C288.019 183.961 288.463 178.861 288.463 175.535V145.27C288.463 142 288.019 136.845 281.461 136.845H273.625C267.068 136.845 266.623 142 266.623 145.27V175.535Z" fill="white"/>
<path d="M319.195 136.845H331.477V183.905H322.085V154.416H321.696L316.861 183.905H309.303L304.468 154.416H304.135V183.905H294.688V136.845H306.914L313.082 169.992L319.195 136.845Z" fill="white"/>
<path d="M123.357 72.5455C120.467 59.9073 113.242 49.6527 112.242 47.9897C110.686 50.3178 104.906 59.4085 101.961 69.4414C98.7379 80.6938 98.2933 90.6159 99.4048 100.372C100.516 110.183 104.629 120.216 104.629 120.216C106.852 125.482 110.13 131.136 112.298 133.907C115.465 129.805 122.69 117.611 124.968 101.757C126.191 92.8885 126.246 85.1283 123.357 72.5455ZM112.187 130.748C110.742 128.087 108.574 123.043 108.352 115.172C108.296 107.633 111.353 101.092 112.242 99.7619C113.02 101.092 115.632 106.802 115.965 114.562C116.188 122.1 113.687 128.087 112.187 130.748ZM122.467 93.9417C122.356 98.7642 121.801 103.864 121.023 106.912C121.3 101.647 120.634 94.2743 119.467 88.5095C118.244 82.7447 114.854 73.0998 112.131 68.6654C109.63 72.9335 106.518 81.2481 104.906 88.4541C103.295 95.6601 103.239 104.418 103.239 107.023C102.795 104.806 101.739 96.935 102.017 89.0084C102.295 82.4676 103.795 75.7605 104.629 72.6564C107.852 62.3463 111.464 55.75 112.131 54.6969C112.798 55.75 117.355 63.8983 119.744 72.3792C122.134 80.9709 122.579 89.1192 122.467 93.9417Z" fill="white"/>
<path d="M117.133 136.845H95.1813V151.534L95.2368 151.479C100.405 146.324 108.797 146.324 113.965 151.479C119.133 156.634 119.133 165.004 113.965 170.159C113.965 170.214 113.909 170.214 113.909 170.214L113.854 170.27C108.685 175.369 101.961 177.919 95.1813 177.919C88.4014 177.919 81.6215 175.369 76.4533 170.214C67.3393 161.124 66.2834 147.044 73.23 136.79C74.1748 135.404 75.2307 134.073 76.4533 132.854C81.6215 127.699 88.4014 125.149 95.1813 125.149V89.8398C69.1176 89.8953 48 110.903 48 136.845C48 162.787 69.1177 183.85 95.1257 183.85C108.685 183.85 120.911 178.085 129.525 168.939V136.79H117.133V136.845Z" fill="white"/>
</g>
<path d="M412 197.782C412 186.836 420.874 177.962 431.82 177.962H740.18C751.126 177.962 760 186.836 760 197.782V398.916H412V197.782Z" fill="#DAE6F0"/>
<path d="M387 398.915C387 409.861 395.874 418.911 406.82 418.911H765.18C776.126 418.911 785 409.861 785 398.915V398.915H387V398.915Z" fill="#DAE6F0"/>
<path d="M432 204.565C432 200.916 434.958 197.958 438.607 197.958H733.393C737.042 197.958 740 200.916 740 204.565V398.916H432V204.565Z" fill="#004A7F"/>
<path d="M605.096 197.958H432V247.432V324.876C432 343.12 446.789 357.924 465.033 357.924H629C629 357.924 605.096 349.679 605.096 324.941V197.958Z" fill="#015FA8"/>
<path d="M521.11 211.955H690C668.571 211.955 661.978 234.348 661.978 246.789V324.88C661.978 343.123 647.189 357.924 628.945 357.924H465C465 357.924 488.077 349.631 488.077 324.749V244.999C488.077 226.755 502.866 211.955 521.11 211.955Z" fill="#0079C2"/>
<path d="M690.967 211.955H517C538.527 211.955 545 234.553 545 246.948C545 255.569 545 362.56 545.099 440.947C545.122 459.165 559.9 473.9 578.119 473.9H748C748 473.9 724 465.696 724 440.907V244.978C724 226.734 709.211 211.955 690.967 211.955Z" fill="white"/>
<path d="M432 168.484C432 159.362 439.395 151.968 448.516 151.968H588.484C597.605 151.968 605 159.362 605 168.484V177.962H432V168.484Z" fill="#015FA8"/>
<path d="M611.324 267.732C613.182 267.732 614.816 266.717 615.658 265.181L624.525 249.106C624.734 248.73 624.841 248.307 624.836 247.877C624.831 247.448 624.714 247.027 624.496 246.657C624.278 246.286 623.968 245.979 623.595 245.766C623.222 245.552 622.8 245.44 622.37 245.44H585.714L583.386 240.486H575.287V245.44H580.24L589.157 264.24L585.813 270.283C584.005 273.602 586.383 277.64 590.148 277.64H619.869V272.686H590.148L592.872 267.732H611.324ZM588.067 250.394H618.16L611.324 262.778H593.937L588.067 250.394ZM590.148 280.117C587.423 280.117 585.219 282.346 585.219 285.071C585.219 287.795 587.423 290.025 590.148 290.025C592.872 290.025 595.101 287.795 595.101 285.071C595.101 282.346 592.872 280.117 590.148 280.117ZM614.915 280.117C612.191 280.117 609.987 282.346 609.987 285.071C609.987 287.795 612.191 290.025 614.915 290.025C617.64 290.025 619.869 287.795 619.869 285.071C619.869 282.346 617.64 280.117 614.915 280.117Z" fill="#0079C2"/>
<rect x="635" y="263.944" width="61" height="25.9945" rx="12.9973" fill="#D6E3ED"/>
<rect x="575" y="309.935" width="121" height="4.99896" rx="2.49948" fill="#AFC8DC"/>
<rect x="575" y="320.932" width="56" height="4.99893" rx="2.49947" fill="#AFC8DC"/>
<rect x="575" y="420.911" width="56" height="4.99893" rx="2.49947" fill="#DAE6F0"/>
<rect x="575" y="431.909" width="33" height="4.99893" rx="2.49947" fill="#DAE6F0"/>
<path d="M578 362.44C578 360.788 580.477 355.834 583.781 352.532C593.897 342.418 601.949 350.055 594.516 356.66C588.222 362.254 586.045 369.096 591 369.922C596.93 370.91 594.797 362.891 599.471 356.66C604.426 350.055 605.252 369.049 605.252 368.219C605.252 356.66 609.344 345.927 618.465 345.927C627.549 345.927 625.072 368.219 618.465 368.219C613.51 368.219 613.51 361.614 618.465 359.137C622.772 356.984 632.504 356.66 637.459 362.44" stroke="#AFC8DC" stroke-width="2.47746"/>
<ellipse cx="662.824" cy="428.733" rx="19.8197" ry="19.8155" fill="#C0EBFF"/>
<path d="M657.579 447.699L697.215 392.175L760.273 399.38L753.067 419.194C743.458 430.302 718.959 453.221 704.422 465.127C692.711 474.719 680.4 469.33 678.298 465.127L704.422 424.598L692.711 433.605C678.298 454.5 662.683 451.902 657.579 447.699Z" fill="#C6844E"/>
<path d="M800.811 560.594H718.835L718.653 560.193C709.694 540.488 699.924 519.001 700.819 494.848C701.197 484.625 699.017 475.619 696.314 466.612L733.248 432.704C733.248 432.704 746.761 428.2 744.058 412.89L739.554 405.684L704.422 380.467C701.119 381.968 690.91 390.554 676.496 412.89C662.083 435.225 648.27 432.403 643.166 428.2L671.091 380.467L653.975 365.156C673.493 363.054 716.673 359.211 733.248 360.652C753.968 362.454 760.273 367.858 792.703 399.38C825.133 430.902 817.926 461.524 812.522 490.344C808.198 513.401 802.913 546.785 800.811 560.594Z" fill="#E2AF85"/>
<path d="M605.634 369.898L832.807 430.754C830.421 439.658 821.281 444.945 812.378 442.56L650.045 399.074C627.474 393.028 609.265 383.699 602.982 379.791L605.634 369.898Z" fill="#37CEEF"/>
<path d="M605.633 369.901L832.807 430.757C835.193 421.853 829.922 412.706 821.018 410.321L658.686 366.834C636.115 360.788 615.68 359.764 608.284 360.008L605.633 369.901Z" fill="#37CEEF"/>
<path d="M589.694 365.629L605.633 369.898L602.981 379.79C602.981 379.79 595.251 377.13 588.32 370.758L589.694 365.629Z" fill="#DAE6F0"/>
<path d="M589.694 365.629L605.632 369.898L608.283 360.007C608.283 360.007 600.259 358.446 591.068 360.5L589.694 365.629Z" fill="#DAE6F0"/>
<path d="M589.694 365.628L576.32 362.046L588.319 370.758L589.694 365.628Z" fill="#004A7F"/>
<path d="M589.694 365.629L576.319 362.046L591.069 360.499L589.694 365.629Z" fill="#004A7F"/>
<path d="M669.289 417.393C678.658 431.803 692.411 459.423 698.116 471.431L734.149 432.388C734.149 432.388 723.045 439.593 698.116 412.89C685.504 399.38 678.298 382.268 664.785 375.964C653.975 370.92 644.066 373.862 640.463 375.964C646.168 383.769 659.921 402.983 669.289 417.393Z" fill="#E2AF85"/>
</g>
<defs>
<clipPath id="clip0_4188_25960">
<rect width="760" height="560" rx="8" fill="white"/>
</clipPath>
<clipPath id="clip1_4188_25960">
<rect width="284" height="135.971" fill="white" transform="translate(48 47.9897)"/>
</clipPath>
</defs>
</svg>
