<svg width="608" height="448" viewBox="0 0 608 448" fill="none" xmlns="http://www.w3.org/2000/svg">
<g clip-path="url(#clip0_30215_27918)">
<rect width="608" height="448" rx="6.4" fill="black"/>
<circle cx="577.953" cy="421.569" r="3.45605" fill="#51575C"/>
<circle cx="584.865" cy="438.849" r="3.45605" fill="#51575C"/>
<circle cx="548" cy="414.657" r="3.45605" fill="#51575C"/>
<circle cx="596.385" cy="431.938" r="3.45605" fill="#51575C"/>
<circle cx="603.297" cy="449.217" r="3.45605" fill="#51575C"/>
<circle cx="566.433" cy="425.025" r="3.45605" fill="#51575C"/>
<circle cx="569.889" cy="438.849" r="3.45605" fill="#51575C"/>
<circle cx="548" cy="438.849" r="3.45605" fill="#51575C"/>
<circle cx="590.625" cy="428.481" r="3.45605" fill="#51575C"/>
<circle cx="597.537" cy="445.761" r="3.45605" fill="#51575C"/>
<circle cx="560.673" cy="421.569" r="3.45605" fill="#51575C"/>
<circle cx="609.058" cy="438.849" r="3.45605" fill="#51575C"/>
<circle cx="579.105" cy="431.937" r="3.45605" fill="#51575C"/>
<circle cx="582.561" cy="445.761" r="3.45605" fill="#51575C"/>
<circle cx="560.673" cy="445.761" r="3.45605" fill="#51575C"/>
<circle cx="599.462" cy="436.553" r="3.45605" transform="rotate(153.417 599.462 436.553)" fill="#51575C"/>
<circle cx="585.548" cy="424.192" r="3.45605" transform="rotate(153.417 585.548 424.192)" fill="#51575C"/>
<circle cx="578.339" cy="435.529" r="3.45605" transform="rotate(153.417 578.339 435.529)" fill="#51575C"/>
<circle cx="564.424" cy="423.169" r="3.45605" transform="rotate(153.417 564.424 423.169)" fill="#51575C"/>
<circle cx="608.218" cy="428.307" r="3.45605" transform="rotate(153.417 608.218 428.307)" fill="#51575C"/>
<circle cx="598.941" cy="417.491" r="3.45605" transform="rotate(153.417 598.941 417.491)" fill="#51575C"/>
<circle cx="598.936" cy="402.035" r="3.45605" transform="rotate(153.417 598.936 402.035)" fill="#51575C"/>
<circle cx="585.037" cy="436.042" r="3.45605" transform="rotate(153.417 585.037 436.042)" fill="#51575C"/>
<circle cx="571.122" cy="423.681" r="3.45605" transform="rotate(153.417 571.122 423.681)" fill="#51575C"/>
<circle cx="563.913" cy="435.018" r="3.45605" transform="rotate(153.417 563.913 435.018)" fill="#51575C"/>
<circle cx="549.999" cy="422.658" r="3.45605" transform="rotate(153.417 549.999 422.658)" fill="#51575C"/>
<circle cx="593.792" cy="427.796" r="3.45605" transform="rotate(153.417 593.792 427.796)" fill="#51575C"/>
<circle cx="584.516" cy="416.98" r="3.45605" transform="rotate(153.417 584.516 416.98)" fill="#51575C"/>
<circle cx="584.511" cy="401.524" r="3.45605" transform="rotate(153.417 584.511 401.524)" fill="#51575C"/>
<circle cx="604.09" cy="407.185" r="3.45605" transform="rotate(153.417 604.09 407.185)" fill="#51575C"/>
<circle cx="582.223" cy="408.108" r="3.45605" transform="rotate(-166.76 582.223 408.108)" fill="#51575C"/>
<circle cx="579.453" cy="389.704" r="3.45605" transform="rotate(-166.76 579.453 389.704)" fill="#51575C"/>
<circle cx="609.796" cy="421.696" r="3.45605" transform="rotate(-166.76 609.796 421.696)" fill="#51575C"/>
<circle cx="566.655" cy="393.793" r="3.45605" transform="rotate(-166.76 566.655 393.793)" fill="#51575C"/>
<circle cx="563.885" cy="375.39" r="3.45605" transform="rotate(-166.76 563.885 375.39)" fill="#51575C"/>
<circle cx="594.229" cy="407.382" r="3.45605" transform="rotate(-166.76 594.229 407.382)" fill="#51575C"/>
<circle cx="594.031" cy="393.134" r="3.45605" transform="rotate(-166.76 594.031 393.134)" fill="#51575C"/>
<circle cx="603.925" cy="381.26" r="3.45605" transform="rotate(-166.76 603.925 381.26)" fill="#51575C"/>
<circle cx="571.471" cy="398.477" r="3.45605" transform="rotate(-166.76 571.471 398.477)" fill="#51575C"/>
<circle cx="568.7" cy="380.074" r="3.45605" transform="rotate(-166.76 568.7 380.074)" fill="#51575C"/>
<circle cx="599.044" cy="412.066" r="3.45605" transform="rotate(-166.76 599.044 412.066)" fill="#51575C"/>
<circle cx="555.903" cy="384.163" r="3.45605" transform="rotate(-166.76 555.903 384.163)" fill="#51575C"/>
<circle cx="553.132" cy="365.759" r="3.45605" transform="rotate(-166.76 553.132 365.759)" fill="#51575C"/>
<circle cx="583.476" cy="397.752" r="3.45605" transform="rotate(-166.76 583.476 397.752)" fill="#51575C"/>
<circle cx="583.278" cy="383.503" r="3.45605" transform="rotate(-166.76 583.278 383.503)" fill="#51575C"/>
<circle cx="593.173" cy="371.629" r="3.45605" transform="rotate(-166.76 593.173 371.629)" fill="#51575C"/>
<circle cx="604.585" cy="388.516" r="3.45605" transform="rotate(-166.76 604.585 388.516)" fill="#51575C"/>
<circle cx="564.717" cy="388.596" r="3.45605" transform="rotate(-13.3426 564.717 388.596)" fill="#51575C"/>
<circle cx="575.431" cy="403.815" r="3.45605" transform="rotate(-13.3426 575.431 403.815)" fill="#51575C"/>
<circle cx="533.978" cy="388.783" r="3.45605" transform="rotate(-13.3426 533.978 388.783)" fill="#51575C"/>
<circle cx="585.045" cy="394.43" r="3.45605" transform="rotate(-13.3426 585.045 394.43)" fill="#51575C"/>
<circle cx="595.758" cy="409.649" r="3.45605" transform="rotate(-13.3426 595.758 409.649)" fill="#51575C"/>
<circle cx="554.306" cy="394.617" r="3.45605" transform="rotate(-13.3426 554.306 394.617)" fill="#51575C"/>
<circle cx="560.859" cy="407.271" r="3.45605" transform="rotate(-13.3426 560.859 407.271)" fill="#51575C"/>
<circle cx="557.323" cy="422.317" r="3.45605" transform="rotate(-13.3426 557.323 422.317)" fill="#51575C"/>
<circle cx="539.561" cy="412.322" r="3.45605" transform="rotate(-13.3426 539.561 412.322)" fill="#51575C"/>
<circle cx="578.643" cy="392.397" r="3.45605" transform="rotate(-13.3426 578.643 392.397)" fill="#51575C"/>
<circle cx="589.356" cy="407.616" r="3.45605" transform="rotate(-13.3426 589.356 407.616)" fill="#51575C"/>
<circle cx="547.904" cy="392.584" r="3.45605" transform="rotate(-13.3426 547.904 392.584)" fill="#51575C"/>
<circle cx="598.97" cy="398.232" r="3.45605" transform="rotate(-13.3426 598.97 398.232)" fill="#51575C"/>
<circle cx="609.683" cy="413.451" r="3.45605" transform="rotate(-13.3426 609.683 413.451)" fill="#51575C"/>
<circle cx="568.231" cy="398.419" r="3.45605" transform="rotate(-13.3426 568.231 398.419)" fill="#51575C"/>
<circle cx="574.784" cy="411.073" r="3.45605" transform="rotate(-13.3426 574.784 411.073)" fill="#51575C"/>
<circle cx="571.249" cy="426.118" r="3.45605" transform="rotate(-13.3426 571.249 426.118)" fill="#51575C"/>
<circle cx="553.487" cy="416.123" r="3.45605" transform="rotate(-13.3426 553.487 416.123)" fill="#51575C"/>
<path fill-rule="evenodd" clip-rule="evenodd" d="M604.802 333.554C644.968 345.424 690.499 353.858 712.079 390.715C734.966 429.804 727.982 476.009 709.825 512.927C692.105 548.957 659.567 574.817 618.662 580.658C577.991 586.466 534.819 571.821 501.435 542.686C468.609 514.04 450.578 473.369 448.546 432.201C446.472 390.173 456.995 346.578 490.704 325.296C522.716 305.087 565.402 321.911 604.802 333.554Z" fill="#51575C" fill-opacity="0.4"/>
<g opacity="0.4" clip-path="url(#clip1_30215_27918)">
<circle cx="26.9697" cy="111.946" r="2.25588" transform="rotate(180 26.9697 111.946)" fill="#51575C"/>
<circle cx="22.4577" cy="100.666" r="2.25588" transform="rotate(180 22.4577 100.666)" fill="#51575C"/>
<circle cx="46.5207" cy="116.458" r="2.25588" transform="rotate(180 46.5207 116.458)" fill="#51575C"/>
<circle cx="14.9382" cy="105.179" r="2.25588" transform="rotate(180 14.9382 105.179)" fill="#51575C"/>
<circle cx="10.4265" cy="93.8994" r="2.25588" transform="rotate(180 10.4265 93.8994)" fill="#51575C"/>
<circle cx="34.4892" cy="109.69" r="2.25588" transform="rotate(180 34.4892 109.69)" fill="#51575C"/>
<circle cx="32.2334" cy="100.666" r="2.25588" transform="rotate(180 32.2334 100.666)" fill="#51575C"/>
<circle cx="36.7451" cy="91.6435" r="2.25588" transform="rotate(180 36.7451 91.6435)" fill="#51575C"/>
<circle cx="46.5207" cy="100.667" r="2.25588" transform="rotate(180 46.5207 100.667)" fill="#51575C"/>
<circle cx="18.698" cy="107.435" r="2.25588" transform="rotate(180 18.698 107.435)" fill="#51575C"/>
<circle cx="14.186" cy="96.1548" r="2.25588" transform="rotate(180 14.186 96.1548)" fill="#51575C"/>
<circle cx="38.249" cy="111.946" r="2.25588" transform="rotate(180 38.249 111.946)" fill="#51575C"/>
<circle cx="6.66673" cy="100.666" r="2.25588" transform="rotate(180 6.66673 100.666)" fill="#51575C"/>
<circle cx="2.15477" cy="89.3867" r="2.25588" transform="rotate(180 2.15477 89.3867)" fill="#51575C"/>
<circle cx="26.2178" cy="105.178" r="2.25588" transform="rotate(180 26.2178 105.178)" fill="#51575C"/>
<circle cx="23.9619" cy="96.1548" r="2.25588" transform="rotate(180 23.9619 96.1548)" fill="#51575C"/>
<circle cx="28.4736" cy="87.1313" r="2.25588" transform="rotate(180 28.4736 87.1313)" fill="#51575C"/>
<circle cx="38.249" cy="96.1548" r="2.25588" transform="rotate(180 38.249 96.1548)" fill="#51575C"/>
<circle cx="12.9302" cy="102.166" r="2.25588" transform="rotate(-26.5827 12.9302 102.166)" fill="#51575C"/>
<circle cx="22.0125" cy="110.234" r="2.25588" transform="rotate(-26.5827 22.0125 110.234)" fill="#51575C"/>
<circle cx="26.7183" cy="102.834" r="2.25588" transform="rotate(-26.5827 26.7183 102.834)" fill="#51575C"/>
<circle cx="35.8003" cy="110.902" r="2.25588" transform="rotate(-26.5827 35.8003 110.902)" fill="#51575C"/>
<circle cx="7.21512" cy="107.547" r="2.25588" transform="rotate(-26.5827 7.21512 107.547)" fill="#51575C"/>
<circle cx="13.2705" cy="114.608" r="2.25588" transform="rotate(-26.5827 13.2705 114.608)" fill="#51575C"/>
<circle cx="13.2735" cy="124.697" r="2.25588" transform="rotate(-26.5827 13.2735 124.697)" fill="#51575C"/>
<circle cx="0.49344" cy="121.001" r="2.25588" transform="rotate(-26.5827 0.49344 121.001)" fill="#51575C"/>
<circle cx="22.3465" cy="102.499" r="2.25588" transform="rotate(-26.5827 22.3465 102.499)" fill="#51575C"/>
<circle cx="31.4287" cy="110.567" r="2.25588" transform="rotate(-26.5827 31.4287 110.567)" fill="#51575C"/>
<circle cx="2.84354" cy="107.213" r="2.25588" transform="rotate(-26.5827 2.84354 107.213)" fill="#51575C"/>
<circle cx="36.1346" cy="103.167" r="2.25588" transform="rotate(-26.5827 36.1346 103.167)" fill="#51575C"/>
<circle cx="45.2166" cy="111.235" r="2.25588" transform="rotate(-26.5827 45.2166 111.235)" fill="#51575C"/>
<circle cx="16.6314" cy="107.881" r="2.25588" transform="rotate(-26.5827 16.6314 107.881)" fill="#51575C"/>
<circle cx="22.6868" cy="114.941" r="2.25588" transform="rotate(-26.5827 22.6868 114.941)" fill="#51575C"/>
<circle cx="22.6897" cy="125.03" r="2.25588" transform="rotate(-26.5827 22.6897 125.03)" fill="#51575C"/>
<circle cx="9.9097" cy="121.335" r="2.25588" transform="rotate(-26.5827 9.9097 121.335)" fill="#51575C"/>
<circle cx="24.1822" cy="120.732" r="2.25588" transform="rotate(13.2401 24.1822 120.732)" fill="#51575C"/>
<circle cx="25.9908" cy="132.745" r="2.25588" transform="rotate(13.2401 25.9908 132.745)" fill="#51575C"/>
<circle cx="6.18413" cy="111.862" r="2.25588" transform="rotate(13.2401 6.18413 111.862)" fill="#51575C"/>
<circle cx="34.3438" cy="130.075" r="2.25588" transform="rotate(13.2401 34.3438 130.075)" fill="#51575C"/>
<circle cx="36.1519" cy="142.088" r="2.25588" transform="rotate(13.2401 36.1519 142.088)" fill="#51575C"/>
<circle cx="16.346" cy="121.206" r="2.25588" transform="rotate(13.2401 16.346 121.206)" fill="#51575C"/>
<circle cx="16.4751" cy="130.506" r="2.25588" transform="rotate(13.2401 16.4751 130.506)" fill="#51575C"/>
<circle cx="10.0166" cy="138.256" r="2.25588" transform="rotate(13.2401 10.0166 138.256)" fill="#51575C"/>
<circle cx="2.56767" cy="127.234" r="2.25588" transform="rotate(13.2401 2.56767 127.234)" fill="#51575C"/>
<circle cx="31.201" cy="127.018" r="2.25588" transform="rotate(13.2401 31.201 127.018)" fill="#51575C"/>
<circle cx="33.0093" cy="139.031" r="2.25588" transform="rotate(13.2401 33.0093 139.031)" fill="#51575C"/>
<circle cx="13.2029" cy="118.149" r="2.25588" transform="rotate(13.2401 13.2029 118.149)" fill="#51575C"/>
<circle cx="41.3624" cy="136.362" r="2.25588" transform="rotate(13.2401 41.3624 136.362)" fill="#51575C"/>
<circle cx="43.1707" cy="148.375" r="2.25588" transform="rotate(13.2401 43.1707 148.375)" fill="#51575C"/>
<circle cx="23.3645" cy="127.492" r="2.25588" transform="rotate(13.2401 23.3645 127.492)" fill="#51575C"/>
<circle cx="23.4937" cy="136.792" r="2.25588" transform="rotate(13.2401 23.4937 136.792)" fill="#51575C"/>
<circle cx="17.0354" cy="144.543" r="2.25588" transform="rotate(13.2401 17.0354 144.543)" fill="#51575C"/>
<circle cx="9.58647" cy="133.52" r="2.25588" transform="rotate(13.2401 9.58647 133.52)" fill="#51575C"/>
<circle cx="35.6089" cy="133.469" r="2.25588" transform="rotate(166.657 35.6089 133.469)" fill="#51575C"/>
<circle cx="28.616" cy="123.535" r="2.25588" transform="rotate(166.657 28.616 123.535)" fill="#51575C"/>
<circle cx="55.6736" cy="133.347" r="2.25588" transform="rotate(166.657 55.6736 133.347)" fill="#51575C"/>
<circle cx="22.3403" cy="129.66" r="2.25588" transform="rotate(166.657 22.3403 129.66)" fill="#51575C"/>
<circle cx="15.3474" cy="119.726" r="2.25588" transform="rotate(166.657 15.3474 119.726)" fill="#51575C"/>
<circle cx="42.405" cy="129.538" r="2.25588" transform="rotate(166.657 42.405 129.538)" fill="#51575C"/>
<circle cx="38.1277" cy="121.279" r="2.25588" transform="rotate(166.657 38.1277 121.279)" fill="#51575C"/>
<circle cx="40.4353" cy="111.458" r="2.25588" transform="rotate(166.657 40.4353 111.458)" fill="#51575C"/>
<circle cx="52.029" cy="117.982" r="2.25588" transform="rotate(166.657 52.029 117.982)" fill="#51575C"/>
<circle cx="26.5195" cy="130.987" r="2.25588" transform="rotate(166.657 26.5195 130.987)" fill="#51575C"/>
<circle cx="19.5266" cy="121.054" r="2.25588" transform="rotate(166.657 19.5266 121.054)" fill="#51575C"/>
<circle cx="46.5842" cy="130.865" r="2.25588" transform="rotate(166.657 46.5842 130.865)" fill="#51575C"/>
<circle cx="13.2512" cy="127.179" r="2.25588" transform="rotate(166.657 13.2512 127.179)" fill="#51575C"/>
<circle cx="6.2583" cy="117.245" r="2.25588" transform="rotate(166.657 6.2583 117.245)" fill="#51575C"/>
<circle cx="33.3159" cy="127.057" r="2.25588" transform="rotate(166.657 33.3159 127.057)" fill="#51575C"/>
<circle cx="29.0383" cy="118.797" r="2.25588" transform="rotate(166.657 29.0383 118.797)" fill="#51575C"/>
<circle cx="31.3459" cy="108.976" r="2.25588" transform="rotate(166.657 31.3459 108.976)" fill="#51575C"/>
<circle cx="42.9402" cy="115.5" r="2.25588" transform="rotate(166.657 42.9402 115.5)" fill="#51575C"/>
</g>
<g opacity="0.2" clip-path="url(#clip2_30215_27918)">
<circle cx="490.692" cy="289.026" r="1.87315" transform="rotate(180 490.692 289.026)" fill="#51575C"/>
<circle cx="486.945" cy="279.66" r="1.87315" transform="rotate(180 486.945 279.66)" fill="#51575C"/>
<circle cx="506.926" cy="292.772" r="1.87315" transform="rotate(180 506.926 292.772)" fill="#51575C"/>
<circle cx="480.702" cy="283.407" r="1.87315" transform="rotate(180 480.702 283.407)" fill="#51575C"/>
<circle cx="476.955" cy="274.041" r="1.87315" transform="rotate(180 476.955 274.041)" fill="#51575C"/>
<circle cx="496.935" cy="287.153" r="1.87315" transform="rotate(180 496.935 287.153)" fill="#51575C"/>
<circle cx="495.062" cy="279.66" r="1.87315" transform="rotate(180 495.062 279.66)" fill="#51575C"/>
<circle cx="498.809" cy="272.167" r="1.87315" transform="rotate(180 498.809 272.167)" fill="#51575C"/>
<circle cx="506.926" cy="279.66" r="1.87315" transform="rotate(180 506.926 279.66)" fill="#51575C"/>
<circle cx="483.823" cy="285.279" r="1.87315" transform="rotate(180 483.823 285.279)" fill="#51575C"/>
<circle cx="480.077" cy="275.913" r="1.87315" transform="rotate(180 480.077 275.913)" fill="#51575C"/>
<circle cx="500.058" cy="289.026" r="1.87315" transform="rotate(180 500.058 289.026)" fill="#51575C"/>
<circle cx="473.834" cy="279.66" r="1.87315" transform="rotate(180 473.834 279.66)" fill="#51575C"/>
<circle cx="470.087" cy="270.294" r="1.87315" transform="rotate(180 470.087 270.294)" fill="#51575C"/>
<circle cx="490.067" cy="283.406" r="1.87315" transform="rotate(180 490.067 283.406)" fill="#51575C"/>
<circle cx="488.194" cy="275.913" r="1.87315" transform="rotate(180 488.194 275.913)" fill="#51575C"/>
<circle cx="491.941" cy="268.421" r="1.87315" transform="rotate(180 491.941 268.421)" fill="#51575C"/>
<circle cx="500.058" cy="275.913" r="1.87315" transform="rotate(180 500.058 275.913)" fill="#51575C"/>
<circle cx="479.034" cy="280.904" r="1.87315" transform="rotate(-26.5827 479.034 280.904)" fill="#51575C"/>
<circle cx="486.575" cy="287.604" r="1.87315" transform="rotate(-26.5827 486.575 287.604)" fill="#51575C"/>
<circle cx="462.84" cy="284.818" r="1.87315" transform="rotate(-26.5827 462.84 284.818)" fill="#51575C"/>
<circle cx="490.483" cy="281.459" r="1.87315" transform="rotate(-26.5827 490.483 281.459)" fill="#51575C"/>
<circle cx="498.024" cy="288.158" r="1.87315" transform="rotate(-26.5827 498.024 288.158)" fill="#51575C"/>
<circle cx="474.288" cy="285.373" r="1.87315" transform="rotate(-26.5827 474.288 285.373)" fill="#51575C"/>
<circle cx="479.316" cy="291.235" r="1.87315" transform="rotate(-26.5827 479.316 291.235)" fill="#51575C"/>
<circle cx="479.319" cy="299.613" r="1.87315" transform="rotate(-26.5827 479.319 299.613)" fill="#51575C"/>
<circle cx="468.707" cy="296.544" r="1.87315" transform="rotate(-26.5827 468.707 296.544)" fill="#51575C"/>
<circle cx="486.852" cy="281.181" r="1.87315" transform="rotate(-26.5827 486.852 281.181)" fill="#51575C"/>
<circle cx="494.394" cy="287.88" r="1.87315" transform="rotate(-26.5827 494.394 287.88)" fill="#51575C"/>
<circle cx="470.658" cy="285.096" r="1.87315" transform="rotate(-26.5827 470.658 285.096)" fill="#51575C"/>
<circle cx="498.301" cy="281.736" r="1.87315" transform="rotate(-26.5827 498.301 281.736)" fill="#51575C"/>
<circle cx="505.842" cy="288.436" r="1.87315" transform="rotate(-26.5827 505.842 288.436)" fill="#51575C"/>
<circle cx="482.107" cy="285.65" r="1.87315" transform="rotate(-26.5827 482.107 285.65)" fill="#51575C"/>
<circle cx="487.135" cy="291.512" r="1.87315" transform="rotate(-26.5827 487.135 291.512)" fill="#51575C"/>
<circle cx="487.137" cy="299.89" r="1.87315" transform="rotate(-26.5827 487.137 299.89)" fill="#51575C"/>
<circle cx="476.526" cy="296.822" r="1.87315" transform="rotate(-26.5827 476.526 296.822)" fill="#51575C"/>
<circle cx="488.378" cy="296.321" r="1.87315" transform="rotate(13.2401 488.378 296.321)" fill="#51575C"/>
<circle cx="489.879" cy="306.296" r="1.87315" transform="rotate(13.2401 489.879 306.296)" fill="#51575C"/>
<circle cx="473.433" cy="288.956" r="1.87315" transform="rotate(13.2401 473.433 288.956)" fill="#51575C"/>
<circle cx="496.815" cy="304.079" r="1.87315" transform="rotate(13.2401 496.815 304.079)" fill="#51575C"/>
<circle cx="498.316" cy="314.054" r="1.87315" transform="rotate(13.2401 498.316 314.054)" fill="#51575C"/>
<circle cx="481.87" cy="296.715" r="1.87315" transform="rotate(13.2401 481.87 296.715)" fill="#51575C"/>
<circle cx="481.978" cy="304.437" r="1.87315" transform="rotate(13.2401 481.978 304.437)" fill="#51575C"/>
<circle cx="476.615" cy="310.872" r="1.87315" transform="rotate(13.2401 476.615 310.872)" fill="#51575C"/>
<circle cx="470.43" cy="301.72" r="1.87315" transform="rotate(13.2401 470.43 301.72)" fill="#51575C"/>
<circle cx="494.205" cy="301.541" r="1.87315" transform="rotate(13.2401 494.205 301.541)" fill="#51575C"/>
<circle cx="495.707" cy="311.516" r="1.87315" transform="rotate(13.2401 495.707 311.516)" fill="#51575C"/>
<circle cx="479.261" cy="294.176" r="1.87315" transform="rotate(13.2401 479.261 294.176)" fill="#51575C"/>
<circle cx="502.643" cy="309.299" r="1.87315" transform="rotate(13.2401 502.643 309.299)" fill="#51575C"/>
<circle cx="504.144" cy="319.274" r="1.87315" transform="rotate(13.2401 504.144 319.274)" fill="#51575C"/>
<circle cx="487.699" cy="301.935" r="1.87315" transform="rotate(13.2401 487.699 301.935)" fill="#51575C"/>
<circle cx="487.805" cy="309.657" r="1.87315" transform="rotate(13.2401 487.805 309.657)" fill="#51575C"/>
<circle cx="482.443" cy="316.092" r="1.87315" transform="rotate(13.2401 482.443 316.092)" fill="#51575C"/>
<circle cx="476.258" cy="306.939" r="1.87315" transform="rotate(13.2401 476.258 306.939)" fill="#51575C"/>
<circle cx="497.865" cy="306.896" r="1.87315" transform="rotate(166.657 497.865 306.896)" fill="#51575C"/>
<circle cx="492.058" cy="298.648" r="1.87315" transform="rotate(166.657 492.058 298.648)" fill="#51575C"/>
<circle cx="514.525" cy="306.795" r="1.87315" transform="rotate(166.657 514.525 306.795)" fill="#51575C"/>
<circle cx="486.848" cy="303.734" r="1.87315" transform="rotate(166.657 486.848 303.734)" fill="#51575C"/>
<circle cx="481.041" cy="295.486" r="1.87315" transform="rotate(166.657 481.041 295.486)" fill="#51575C"/>
<circle cx="503.508" cy="303.633" r="1.87315" transform="rotate(166.657 503.508 303.633)" fill="#51575C"/>
<circle cx="499.957" cy="296.775" r="1.87315" transform="rotate(166.657 499.957 296.775)" fill="#51575C"/>
<circle cx="501.873" cy="288.62" r="1.87315" transform="rotate(166.657 501.873 288.62)" fill="#51575C"/>
<circle cx="511.499" cy="294.037" r="1.87315" transform="rotate(166.657 511.499 294.037)" fill="#51575C"/>
<circle cx="490.318" cy="304.836" r="1.87315" transform="rotate(166.657 490.318 304.836)" fill="#51575C"/>
<circle cx="484.511" cy="296.587" r="1.87315" transform="rotate(166.657 484.511 296.587)" fill="#51575C"/>
<circle cx="506.978" cy="304.735" r="1.87315" transform="rotate(166.657 506.978 304.735)" fill="#51575C"/>
<circle cx="479.301" cy="301.674" r="1.87315" transform="rotate(166.657 479.301 301.674)" fill="#51575C"/>
<circle cx="473.494" cy="293.426" r="1.87315" transform="rotate(166.657 473.494 293.426)" fill="#51575C"/>
<circle cx="495.961" cy="301.573" r="1.87315" transform="rotate(166.657 495.961 301.573)" fill="#51575C"/>
<circle cx="492.409" cy="294.715" r="1.87315" transform="rotate(166.657 492.409 294.715)" fill="#51575C"/>
<circle cx="494.325" cy="286.559" r="1.87315" transform="rotate(166.657 494.325 286.559)" fill="#51575C"/>
<circle cx="503.952" cy="291.976" r="1.87315" transform="rotate(166.657 503.952 291.976)" fill="#51575C"/>
</g>
<g opacity="0.7" clip-path="url(#clip3_30215_27918)">
<circle cx="597.781" cy="79.4664" r="1.59564" transform="rotate(-90 597.781 79.4664)" fill="#51575C"/>
<circle cx="605.759" cy="76.275" r="1.59564" transform="rotate(-90 605.759 76.275)" fill="#51575C"/>
<circle cx="594.589" cy="93.2955" r="1.59564" transform="rotate(-90 594.589 93.2955)" fill="#51575C"/>
<circle cx="602.568" cy="70.9561" r="1.59564" transform="rotate(-90 602.568 70.9561)" fill="#51575C"/>
<circle cx="599.376" cy="84.7852" r="1.59564" transform="rotate(-90 599.376 84.7852)" fill="#51575C"/>
<circle cx="605.759" cy="83.1895" r="1.59564" transform="rotate(-90 605.759 83.1895)" fill="#51575C"/>
<circle cx="605.759" cy="93.2955" r="1.59564" transform="rotate(-90 605.759 93.2955)" fill="#51575C"/>
<circle cx="600.972" cy="73.6158" r="1.59564" transform="rotate(-90 600.972 73.6158)" fill="#51575C"/>
<circle cx="608.95" cy="70.4244" r="1.59564" transform="rotate(-90 608.95 70.4244)" fill="#51575C"/>
<circle cx="597.781" cy="87.4449" r="1.59564" transform="rotate(-90 597.781 87.4449)" fill="#51575C"/>
<circle cx="605.759" cy="65.1055" r="1.59564" transform="rotate(-90 605.759 65.1055)" fill="#51575C"/>
<circle cx="602.568" cy="78.9346" r="1.59564" transform="rotate(-90 602.568 78.9346)" fill="#51575C"/>
<circle cx="608.95" cy="77.3389" r="1.59564" transform="rotate(-90 608.95 77.3389)" fill="#51575C"/>
<circle cx="608.95" cy="87.4449" r="1.59564" transform="rotate(-90 608.95 87.4449)" fill="#51575C"/>
<circle cx="604.698" cy="69.536" r="1.59564" transform="rotate(63.4173 604.698 69.536)" fill="#51575C"/>
<circle cx="598.992" cy="75.9603" r="1.59564" transform="rotate(63.4173 598.992 75.9603)" fill="#51575C"/>
<circle cx="601.364" cy="55.7406" r="1.59564" transform="rotate(63.4173 601.364 55.7406)" fill="#51575C"/>
<circle cx="604.226" cy="79.2885" r="1.59564" transform="rotate(63.4173 604.226 79.2885)" fill="#51575C"/>
<circle cx="598.519" cy="85.7123" r="1.59564" transform="rotate(63.4173 598.519 85.7123)" fill="#51575C"/>
<circle cx="600.892" cy="65.4935" r="1.59564" transform="rotate(63.4173 600.892 65.4935)" fill="#51575C"/>
<circle cx="595.898" cy="69.7763" r="1.59564" transform="rotate(63.4173 595.898 69.7763)" fill="#51575C"/>
<circle cx="588.762" cy="69.7787" r="1.59564" transform="rotate(63.4173 588.762 69.7787)" fill="#51575C"/>
<circle cx="591.375" cy="60.7391" r="1.59564" transform="rotate(63.4173 591.375 60.7391)" fill="#51575C"/>
<circle cx="604.463" cy="76.1967" r="1.59564" transform="rotate(63.4173 604.463 76.1967)" fill="#51575C"/>
<circle cx="598.756" cy="82.6205" r="1.59564" transform="rotate(63.4173 598.756 82.6205)" fill="#51575C"/>
<circle cx="601.129" cy="62.4017" r="1.59564" transform="rotate(63.4173 601.129 62.4017)" fill="#51575C"/>
<circle cx="603.99" cy="85.9491" r="1.59564" transform="rotate(63.4173 603.99 85.9491)" fill="#51575C"/>
<circle cx="598.283" cy="92.3729" r="1.59564" transform="rotate(63.4173 598.283 92.3729)" fill="#51575C"/>
<circle cx="600.656" cy="72.1537" r="1.59564" transform="rotate(63.4173 600.656 72.1537)" fill="#51575C"/>
<circle cx="595.662" cy="76.4374" r="1.59564" transform="rotate(63.4173 595.662 76.4374)" fill="#51575C"/>
<circle cx="588.526" cy="76.4393" r="1.59564" transform="rotate(63.4173 588.526 76.4393)" fill="#51575C"/>
<circle cx="591.14" cy="67.3993" r="1.59564" transform="rotate(63.4173 591.14 67.3993)" fill="#51575C"/>
<circle cx="591.566" cy="77.4949" r="1.59564" transform="rotate(103.24 591.566 77.4949)" fill="#51575C"/>
<circle cx="583.069" cy="78.7742" r="1.59564" transform="rotate(103.24 583.069 78.7742)" fill="#51575C"/>
<circle cx="597.84" cy="64.7644" r="1.59564" transform="rotate(103.24 597.84 64.7644)" fill="#51575C"/>
<circle cx="584.957" cy="84.6829" r="1.59564" transform="rotate(103.24 584.957 84.6829)" fill="#51575C"/>
<circle cx="576.46" cy="85.9617" r="1.59564" transform="rotate(103.24 576.46 85.9617)" fill="#51575C"/>
<circle cx="591.231" cy="71.9524" r="1.59564" transform="rotate(103.24 591.231 71.9524)" fill="#51575C"/>
<circle cx="584.653" cy="72.0437" r="1.59564" transform="rotate(103.24 584.653 72.0437)" fill="#51575C"/>
<circle cx="579.171" cy="67.4754" r="1.59564" transform="rotate(103.24 579.171 67.4754)" fill="#51575C"/>
<circle cx="586.967" cy="62.2068" r="1.59564" transform="rotate(103.24 586.967 62.2068)" fill="#51575C"/>
<circle cx="587.12" cy="82.4593" r="1.59564" transform="rotate(103.24 587.12 82.4593)" fill="#51575C"/>
<circle cx="578.623" cy="83.7386" r="1.59564" transform="rotate(103.24 578.623 83.7386)" fill="#51575C"/>
<circle cx="593.393" cy="69.7288" r="1.59564" transform="rotate(103.24 593.393 69.7288)" fill="#51575C"/>
<circle cx="580.511" cy="89.6472" r="1.59564" transform="rotate(103.24 580.511 89.6472)" fill="#51575C"/>
<circle cx="572.014" cy="90.9261" r="1.59564" transform="rotate(103.24 572.014 90.9261)" fill="#51575C"/>
<circle cx="586.785" cy="76.9168" r="1.59564" transform="rotate(103.24 586.785 76.9168)" fill="#51575C"/>
<circle cx="580.206" cy="77.0076" r="1.59564" transform="rotate(103.24 580.206 77.0076)" fill="#51575C"/>
<circle cx="574.724" cy="72.4397" r="1.59564" transform="rotate(103.24 574.724 72.4397)" fill="#51575C"/>
<circle cx="582.521" cy="67.1707" r="1.59564" transform="rotate(103.24 582.521 67.1707)" fill="#51575C"/>
<circle cx="582.558" cy="85.5772" r="1.59564" transform="rotate(-103.343 582.558 85.5772)" fill="#51575C"/>
<circle cx="589.584" cy="80.631" r="1.59564" transform="rotate(-103.343 589.584 80.631)" fill="#51575C"/>
<circle cx="582.644" cy="99.7691" r="1.59564" transform="rotate(-103.343 582.644 99.7691)" fill="#51575C"/>
<circle cx="585.251" cy="76.192" r="1.59564" transform="rotate(-103.343 585.251 76.192)" fill="#51575C"/>
<circle cx="592.278" cy="71.2457" r="1.59564" transform="rotate(-103.343 592.278 71.2457)" fill="#51575C"/>
<circle cx="585.338" cy="90.3844" r="1.59564" transform="rotate(-103.343 585.338 90.3844)" fill="#51575C"/>
<circle cx="591.179" cy="87.359" r="1.59564" transform="rotate(-103.343 591.179 87.359)" fill="#51575C"/>
<circle cx="598.126" cy="88.9908" r="1.59564" transform="rotate(-103.343 598.126 88.9908)" fill="#51575C"/>
<circle cx="593.512" cy="97.1915" r="1.59564" transform="rotate(-103.343 593.512 97.1915)" fill="#51575C"/>
<circle cx="584.312" cy="79.1476" r="1.59564" transform="rotate(-103.343 584.312 79.1476)" fill="#51575C"/>
<circle cx="591.339" cy="74.2013" r="1.59564" transform="rotate(-103.343 591.339 74.2013)" fill="#51575C"/>
<circle cx="584.399" cy="93.3399" r="1.59564" transform="rotate(-103.343 584.399 93.3399)" fill="#51575C"/>
<circle cx="587.006" cy="69.7628" r="1.59564" transform="rotate(-103.343 587.006 69.7628)" fill="#51575C"/>
<circle cx="594.033" cy="64.8165" r="1.59564" transform="rotate(-103.343 594.033 64.8165)" fill="#51575C"/>
<circle cx="587.093" cy="83.9547" r="1.59564" transform="rotate(-103.343 587.093 83.9547)" fill="#51575C"/>
<circle cx="592.935" cy="80.9293" r="1.59564" transform="rotate(-103.343 592.935 80.9293)" fill="#51575C"/>
<circle cx="599.881" cy="82.5611" r="1.59564" transform="rotate(-103.343 599.881 82.5611)" fill="#51575C"/>
<circle cx="595.267" cy="90.7623" r="1.59564" transform="rotate(-103.343 595.267 90.7623)" fill="#51575C"/>
</g>
<path fill-rule="evenodd" clip-rule="evenodd" d="M445.793 149.366C451.693 149.366 456.476 144.583 456.476 138.683C456.476 132.783 451.693 128 445.793 128C439.893 128 435.11 132.783 435.11 138.683C435.11 138.765 435.111 138.847 435.112 138.928L417.383 139.913C416.888 134.472 412.314 130.21 406.744 130.21C400.844 130.21 396.061 134.993 396.061 140.893C396.061 143.858 397.268 146.54 399.218 148.475L379.7 183.419C378.906 183.312 378.096 183.257 377.274 183.257C367.304 183.257 359.223 191.339 359.223 201.308C359.223 210.402 365.947 217.925 374.695 219.176V236.304H374.695C360.86 236.304 349.645 247.519 349.645 261.354C349.645 275.189 360.86 286.404 374.695 286.404C382.044 286.404 388.653 283.239 393.235 278.199L417.433 289.367C417.608 295.341 421.846 300.295 427.48 301.562V326.571C422.959 327.815 419.638 331.956 419.638 336.873C419.638 337.741 419.741 338.586 419.937 339.394L399.055 350.921C397.647 349.74 395.832 349.029 393.851 349.029C389.375 349.029 385.747 352.658 385.747 357.134C385.747 361.61 389.375 365.238 393.851 365.238C398.327 365.238 401.955 361.61 401.955 357.134C401.955 356.793 401.934 356.457 401.893 356.127L422.883 344.541C424.806 346.407 427.429 347.556 430.321 347.556C436.221 347.556 441.004 342.773 441.004 336.873C441.004 332.047 437.804 327.968 433.41 326.643V301.503C439.039 300.119 443.214 295.038 443.214 288.982C443.214 281.862 437.441 276.089 430.321 276.089C425.194 276.089 420.765 279.082 418.688 283.415L396.729 273.281C398.652 269.734 399.745 265.672 399.745 261.354C399.745 249.562 391.597 239.673 380.625 237.01V219.048C388.993 217.477 395.324 210.132 395.324 201.308C395.324 194.295 391.325 188.216 385.482 185.227L404.42 151.323C405.168 151.489 405.946 151.576 406.744 151.576C410.827 151.576 414.375 149.286 416.174 145.919L437.006 144.762C437.729 145.804 438.632 146.711 439.67 147.439L433.462 168.546C433.154 168.53 432.843 168.522 432.531 168.522C422.562 168.522 414.48 176.604 414.48 186.573C414.48 195.201 420.534 202.415 428.626 204.2L427.929 220.22C419.932 221.216 413.744 228.037 413.744 236.304C413.744 245.256 421.001 252.513 429.952 252.513C434.868 252.513 439.273 250.324 442.245 246.869L461.716 257.799C460.71 260.512 460.16 263.448 460.16 266.511C460.16 276.669 466.206 285.415 474.896 289.346L467.753 306.354C467.437 306.316 467.116 306.297 466.79 306.297C462.314 306.297 458.686 309.925 458.686 314.401C458.686 318.877 462.314 322.506 466.79 322.506C471.266 322.506 474.895 318.877 474.895 314.401C474.895 312.415 474.18 310.596 472.995 309.187L480.577 291.134C482.078 291.415 483.627 291.561 485.21 291.561C499.044 291.561 510.26 280.346 510.26 266.511C510.26 252.677 499.044 241.461 485.21 241.461C476.556 241.461 468.928 245.849 464.427 252.521L445.226 241.742C445.832 240.042 446.161 238.212 446.161 236.304C446.161 228.695 440.919 222.311 433.849 220.566L434.547 204.512C443.567 203.509 450.582 195.86 450.582 186.573C450.582 178.985 445.9 172.491 439.268 169.821L445.287 149.354C445.455 149.362 445.623 149.366 445.793 149.366ZM497.291 167.54C494.323 170.856 490.01 172.943 485.21 172.943C476.258 172.943 469.001 165.686 469.001 156.734C469.001 147.782 476.258 140.525 485.21 140.525C494.162 140.525 501.418 147.782 501.418 156.734C501.418 158.736 501.056 160.653 500.392 162.423L519.959 170.957C523.306 164.685 529.915 160.417 537.52 160.417C548.506 160.417 557.413 169.323 557.413 180.31C557.413 191.296 548.506 200.202 537.52 200.202C530.855 200.202 524.956 196.925 521.347 191.894L500.906 200.566C501.241 201.863 501.418 203.222 501.418 204.624C501.418 206.602 501.064 208.497 500.416 210.249L524.855 222.774C527.017 220.233 530.238 218.622 533.836 218.622C540.346 218.622 545.624 223.899 545.624 230.41C545.624 236.657 540.765 241.769 534.62 242.172L536.047 263.571C536.169 263.567 536.292 263.565 536.415 263.565C539.621 263.565 542.498 264.977 544.456 267.214L563.197 258.337C562.79 257.083 562.57 255.744 562.57 254.355C562.57 247.954 567.234 242.642 573.35 241.634V219.708C570.088 218.66 567.727 215.601 567.727 211.991C567.727 207.515 571.356 203.887 575.832 203.887C580.308 203.887 583.936 207.515 583.936 211.991C583.936 215.234 582.031 218.032 579.28 219.327V242.035C584.537 243.662 588.357 248.563 588.357 254.355C588.357 261.476 582.584 267.248 575.463 267.248C571.88 267.248 568.638 265.787 566.302 263.427L546.969 272.585C547.054 273.127 547.098 273.682 547.098 274.248C547.098 280.148 542.315 284.931 536.415 284.931C530.515 284.931 525.732 280.148 525.732 274.248C525.732 270.65 527.51 267.468 530.235 265.533L528.597 240.973C524.716 239.044 522.048 235.038 522.048 230.41C522.048 229.624 522.125 228.856 522.271 228.113L497.364 215.348C494.394 218.711 490.049 220.832 485.21 220.832C476.258 220.832 469.001 213.576 469.001 204.624C469.001 195.672 476.258 188.415 485.21 188.415C490.643 188.415 495.452 191.088 498.393 195.191L518.642 186.6C517.984 184.623 517.627 182.508 517.627 180.31C517.627 179.029 517.748 177.776 517.98 176.562L497.291 167.54ZM325.467 198.4C333.786 196.789 340.067 189.468 340.067 180.679C340.067 177.814 339.4 175.105 338.212 172.7L357.148 159.527C359.247 161.452 362.045 162.628 365.117 162.628C371.628 162.628 376.906 157.35 376.906 150.84C376.906 144.329 371.628 139.052 365.117 139.052C358.607 139.052 353.329 144.329 353.329 150.84C353.329 152.135 353.538 153.381 353.924 154.547L334.75 167.885C331.486 164.636 326.986 162.628 322.016 162.628C312.047 162.628 303.966 170.71 303.966 180.679C303.966 189.806 310.74 197.351 319.535 198.56L320.8 217.835C318.372 218.663 316.27 220.195 314.737 222.188L295.712 212.675C295.81 212.093 295.861 211.496 295.861 210.886C295.861 204.986 291.078 200.203 285.178 200.203C279.278 200.203 274.495 204.986 274.495 210.886C274.495 215.839 277.866 220.004 282.438 221.214V244.027C277.866 245.237 274.495 249.402 274.495 254.355C274.495 260.255 279.278 265.038 285.178 265.038C291.078 265.038 295.861 260.255 295.861 254.355C295.861 249.566 292.71 245.513 288.368 244.156V221.085C290.226 220.504 291.866 219.43 293.134 218.016L312.301 227.599C312.149 228.39 312.07 229.206 312.07 230.041C312.07 237.162 317.843 242.935 324.963 242.935C332.084 242.935 337.857 237.162 337.857 230.041C337.857 223.511 333.002 218.115 326.705 217.265L325.467 198.4ZM335.647 274.247C335.647 280.209 331.6 285.226 326.104 286.701L326.104 302.455C329.949 303.83 332.7 307.505 332.7 311.823C332.7 312.667 332.594 313.487 332.396 314.27L346.457 323.978C348.392 322.588 350.765 321.769 353.329 321.769C356.912 321.769 360.121 323.367 362.283 325.89L377.365 318.195C377.065 317.104 376.905 315.956 376.905 314.77C376.905 307.649 382.678 301.876 389.799 301.876C396.919 301.876 402.692 307.649 402.692 314.77C402.692 321.891 396.919 327.663 389.799 327.663C385.995 327.663 382.577 326.016 380.217 323.397L364.885 331.219C365.037 331.975 365.117 332.757 365.117 333.557C365.117 339.255 361.074 344.009 355.701 345.107V375.054C361.074 376.152 365.117 380.906 365.117 386.604C365.117 393.114 359.839 398.392 353.329 398.392C346.818 398.392 341.541 393.114 341.541 386.604C341.541 381.333 344.999 376.871 349.771 375.362V344.799C344.999 343.29 341.541 338.828 341.541 333.557C341.541 331.769 341.939 330.074 342.651 328.556L329.283 319.326C327.536 320.847 325.252 321.769 322.753 321.769C317.26 321.769 312.807 317.316 312.807 311.823C312.807 307.221 315.931 303.35 320.175 302.214V286.883C317.744 286.39 315.562 285.213 313.838 283.562L294.25 294.486C294.341 294.971 294.388 295.471 294.388 295.982C294.388 300.458 290.759 304.086 286.283 304.086C281.808 304.086 278.179 300.458 278.179 295.982C278.179 291.506 281.808 287.877 286.283 287.877C288.043 287.877 289.671 288.438 291 289.39L310.569 278.477C310.11 277.152 309.86 275.729 309.86 274.247C309.86 267.127 315.632 261.354 322.753 261.354C329.874 261.354 335.647 267.127 335.647 274.247Z" fill="url(#paint0_radial_30215_27918)"/>
<path fill-rule="evenodd" clip-rule="evenodd" d="M445.793 149.366C451.693 149.366 456.476 144.583 456.476 138.683C456.476 132.783 451.693 128 445.793 128C439.893 128 435.11 132.783 435.11 138.683C435.11 138.765 435.111 138.847 435.112 138.928L417.383 139.913C416.888 134.472 412.314 130.21 406.744 130.21C400.844 130.21 396.061 134.993 396.061 140.893C396.061 143.858 397.268 146.54 399.218 148.475L379.7 183.419C378.906 183.312 378.096 183.257 377.274 183.257C367.304 183.257 359.223 191.339 359.223 201.308C359.223 210.402 365.947 217.925 374.695 219.176V236.304H374.695C360.86 236.304 349.645 247.519 349.645 261.354C349.645 275.189 360.86 286.404 374.695 286.404C382.044 286.404 388.653 283.239 393.235 278.199L417.433 289.367C417.608 295.341 421.846 300.295 427.48 301.562V326.571C422.959 327.815 419.638 331.956 419.638 336.873C419.638 337.741 419.741 338.586 419.937 339.394L399.055 350.921C397.647 349.74 395.832 349.029 393.851 349.029C389.375 349.029 385.747 352.658 385.747 357.134C385.747 361.61 389.375 365.238 393.851 365.238C398.327 365.238 401.955 361.61 401.955 357.134C401.955 356.793 401.934 356.457 401.893 356.127L422.883 344.541C424.806 346.407 427.429 347.556 430.321 347.556C436.221 347.556 441.004 342.773 441.004 336.873C441.004 332.047 437.804 327.968 433.41 326.643V301.503C439.039 300.119 443.214 295.038 443.214 288.982C443.214 281.862 437.441 276.089 430.321 276.089C425.194 276.089 420.765 279.082 418.688 283.415L396.729 273.281C398.652 269.734 399.745 265.672 399.745 261.354C399.745 249.562 391.597 239.673 380.625 237.01V219.048C388.993 217.477 395.324 210.132 395.324 201.308C395.324 194.295 391.325 188.216 385.482 185.227L404.42 151.323C405.168 151.489 405.946 151.576 406.744 151.576C410.827 151.576 414.375 149.286 416.174 145.919L437.006 144.762C437.729 145.804 438.632 146.711 439.67 147.439L433.462 168.546C433.154 168.53 432.843 168.522 432.531 168.522C422.562 168.522 414.48 176.604 414.48 186.573C414.48 195.201 420.534 202.415 428.626 204.2L427.929 220.22C419.932 221.216 413.744 228.037 413.744 236.304C413.744 245.256 421.001 252.513 429.952 252.513C434.868 252.513 439.273 250.324 442.245 246.869L461.716 257.799C460.71 260.512 460.16 263.448 460.16 266.511C460.16 276.669 466.206 285.415 474.896 289.346L467.753 306.354C467.437 306.316 467.116 306.297 466.79 306.297C462.314 306.297 458.686 309.925 458.686 314.401C458.686 318.877 462.314 322.506 466.79 322.506C471.266 322.506 474.895 318.877 474.895 314.401C474.895 312.415 474.18 310.596 472.995 309.187L480.577 291.134C482.078 291.415 483.627 291.561 485.21 291.561C499.044 291.561 510.26 280.346 510.26 266.511C510.26 252.677 499.044 241.461 485.21 241.461C476.556 241.461 468.928 245.849 464.427 252.521L445.226 241.742C445.832 240.042 446.161 238.212 446.161 236.304C446.161 228.695 440.919 222.311 433.849 220.566L434.547 204.512C443.567 203.509 450.582 195.86 450.582 186.573C450.582 178.985 445.9 172.491 439.268 169.821L445.287 149.354C445.455 149.362 445.623 149.366 445.793 149.366ZM497.291 167.54C494.323 170.856 490.01 172.943 485.21 172.943C476.258 172.943 469.001 165.686 469.001 156.734C469.001 147.782 476.258 140.525 485.21 140.525C494.162 140.525 501.418 147.782 501.418 156.734C501.418 158.736 501.056 160.653 500.392 162.423L519.959 170.957C523.306 164.685 529.915 160.417 537.52 160.417C548.506 160.417 557.413 169.323 557.413 180.31C557.413 191.296 548.506 200.202 537.52 200.202C530.855 200.202 524.956 196.925 521.347 191.894L500.906 200.566C501.241 201.863 501.418 203.222 501.418 204.624C501.418 206.602 501.064 208.497 500.416 210.249L524.855 222.774C527.017 220.233 530.238 218.622 533.836 218.622C540.346 218.622 545.624 223.899 545.624 230.41C545.624 236.657 540.765 241.769 534.62 242.172L536.047 263.571C536.169 263.567 536.292 263.565 536.415 263.565C539.621 263.565 542.498 264.977 544.456 267.214L563.197 258.337C562.79 257.083 562.57 255.744 562.57 254.355C562.57 247.954 567.234 242.642 573.35 241.634V219.708C570.088 218.66 567.727 215.601 567.727 211.991C567.727 207.515 571.356 203.887 575.832 203.887C580.308 203.887 583.936 207.515 583.936 211.991C583.936 215.234 582.031 218.032 579.28 219.327V242.035C584.537 243.662 588.357 248.563 588.357 254.355C588.357 261.476 582.584 267.248 575.463 267.248C571.88 267.248 568.638 265.787 566.302 263.427L546.969 272.585C547.054 273.127 547.098 273.682 547.098 274.248C547.098 280.148 542.315 284.931 536.415 284.931C530.515 284.931 525.732 280.148 525.732 274.248C525.732 270.65 527.51 267.468 530.235 265.533L528.597 240.973C524.716 239.044 522.048 235.038 522.048 230.41C522.048 229.624 522.125 228.856 522.271 228.113L497.364 215.348C494.394 218.711 490.049 220.832 485.21 220.832C476.258 220.832 469.001 213.576 469.001 204.624C469.001 195.672 476.258 188.415 485.21 188.415C490.643 188.415 495.452 191.088 498.393 195.191L518.642 186.6C517.984 184.623 517.627 182.508 517.627 180.31C517.627 179.029 517.748 177.776 517.98 176.562L497.291 167.54ZM325.467 198.4C333.786 196.789 340.067 189.468 340.067 180.679C340.067 177.814 339.4 175.105 338.212 172.7L357.148 159.527C359.247 161.452 362.045 162.628 365.117 162.628C371.628 162.628 376.906 157.35 376.906 150.84C376.906 144.329 371.628 139.052 365.117 139.052C358.607 139.052 353.329 144.329 353.329 150.84C353.329 152.135 353.538 153.381 353.924 154.547L334.75 167.885C331.486 164.636 326.986 162.628 322.016 162.628C312.047 162.628 303.966 170.71 303.966 180.679C303.966 189.806 310.74 197.351 319.535 198.56L320.8 217.835C318.372 218.663 316.27 220.195 314.737 222.188L295.712 212.675C295.81 212.093 295.861 211.496 295.861 210.886C295.861 204.986 291.078 200.203 285.178 200.203C279.278 200.203 274.495 204.986 274.495 210.886C274.495 215.839 277.866 220.004 282.438 221.214V244.027C277.866 245.237 274.495 249.402 274.495 254.355C274.495 260.255 279.278 265.038 285.178 265.038C291.078 265.038 295.861 260.255 295.861 254.355C295.861 249.566 292.71 245.513 288.368 244.156V221.085C290.226 220.504 291.866 219.43 293.134 218.016L312.301 227.599C312.149 228.39 312.07 229.206 312.07 230.041C312.07 237.162 317.843 242.935 324.963 242.935C332.084 242.935 337.857 237.162 337.857 230.041C337.857 223.511 333.002 218.115 326.705 217.265L325.467 198.4ZM335.647 274.247C335.647 280.209 331.6 285.226 326.104 286.701L326.104 302.455C329.949 303.83 332.7 307.505 332.7 311.823C332.7 312.667 332.594 313.487 332.396 314.27L346.457 323.978C348.392 322.588 350.765 321.769 353.329 321.769C356.912 321.769 360.121 323.367 362.283 325.89L377.365 318.195C377.065 317.104 376.905 315.956 376.905 314.77C376.905 307.649 382.678 301.876 389.799 301.876C396.919 301.876 402.692 307.649 402.692 314.77C402.692 321.891 396.919 327.663 389.799 327.663C385.995 327.663 382.577 326.016 380.217 323.397L364.885 331.219C365.037 331.975 365.117 332.757 365.117 333.557C365.117 339.255 361.074 344.009 355.701 345.107V375.054C361.074 376.152 365.117 380.906 365.117 386.604C365.117 393.114 359.839 398.392 353.329 398.392C346.818 398.392 341.541 393.114 341.541 386.604C341.541 381.333 344.999 376.871 349.771 375.362V344.799C344.999 343.29 341.541 338.828 341.541 333.557C341.541 331.769 341.939 330.074 342.651 328.556L329.283 319.326C327.536 320.847 325.252 321.769 322.753 321.769C317.26 321.769 312.807 317.316 312.807 311.823C312.807 307.221 315.931 303.35 320.175 302.214V286.883C317.744 286.39 315.562 285.213 313.838 283.562L294.25 294.486C294.341 294.971 294.388 295.471 294.388 295.982C294.388 300.458 290.759 304.086 286.283 304.086C281.808 304.086 278.179 300.458 278.179 295.982C278.179 291.506 281.808 287.877 286.283 287.877C288.043 287.877 289.671 288.438 291 289.39L310.569 278.477C310.11 277.152 309.86 275.729 309.86 274.247C309.86 267.127 315.632 261.354 322.753 261.354C329.874 261.354 335.647 267.127 335.647 274.247Z" fill="url(#paint1_linear_30215_27918)"/>
<g filter="url(#filter0_f_30215_27918)">
<ellipse cx="50.9951" cy="50.4021" rx="50.9951" ry="50.4021" transform="matrix(-1 0 0 1 425.428 211.016)" fill="#FECD64" fill-opacity="0.5"/>
</g>
<g filter="url(#filter1_d_30215_27918)">
<circle cx="36.1709" cy="36.1709" r="36.1709" transform="matrix(-1 0 0 1 411.197 225.248)" fill="#FECD64" style="mix-blend-mode:screen" shape-rendering="crispEdges"/>
</g>
<circle cx="25.4975" cy="25.4975" r="25.4975" transform="matrix(-1 0 0 1 400.523 235.921)" fill="#FFA756"/>
<g filter="url(#filter2_d_30215_27918)">
<circle cx="13.6382" cy="13.6382" r="13.6382" transform="matrix(-1 0 0 1 388.664 247.78)" fill="#CA5632"/>
</g>
<path d="M377.009 262.923L344.905 247.264C335.661 242.755 324.565 244.717 317.428 252.122L299.97 270.236C290.999 279.545 276.225 279.954 266.752 271.156L223.628 231.106C213.465 221.667 197.406 222.925 188.837 233.832L136.98 299.834C128.704 310.367 113.354 311.962 103.09 303.355L42.0202 252.149" stroke="white" stroke-width="4.74373"/>
<path d="M377.009 262.923L344.905 247.264C335.661 242.755 324.565 244.717 317.428 252.122L299.97 270.236C290.999 279.545 276.225 279.954 266.752 271.156L223.628 231.106C213.465 221.667 197.406 222.925 188.837 233.832L136.98 299.834C128.704 310.367 113.354 311.962 103.09 303.355L42.0202 252.149" stroke="url(#paint2_linear_30215_27918)" stroke-width="4.74373"/>
<g filter="url(#filter3_d_30215_27918)">
<circle cx="7.04626" cy="7.04626" r="7.04626" transform="matrix(-1 0 0 1 381.59 254.317)" fill="white"/>
</g>
<g filter="url(#filter4_f_30215_27918)">
<ellipse cx="538.183" cy="179.725" rx="39.227" ry="38.7708" fill="#FECD64" fill-opacity="0.5"/>
</g>
<g filter="url(#filter5_d_30215_27918)">
<circle cx="537.727" cy="179.725" r="27.8238" fill="#FECD64" style="mix-blend-mode:screen" shape-rendering="crispEdges"/>
</g>
<circle cx="537.727" cy="179.725" r="19.6135" fill="#FFA756"/>
<g filter="url(#filter6_d_30215_27918)">
<circle cx="537.727" cy="179.725" r="10.4909" fill="#CA5632"/>
</g>
<path d="M536.201 180.883L557.319 170.582C566.562 166.073 577.658 168.035 584.795 175.441L591.733 182.639C600.704 191.948 615.478 192.357 624.952 183.559L649.83 160.454C659.993 151.015 676.052 152.273 684.622 163.18L717.348 204.832C725.623 215.365 740.974 216.96 751.238 208.354L793.885 172.595" stroke="white" stroke-width="3.55779"/>
<path d="M536.201 180.883L557.319 170.582C566.562 166.073 577.658 168.035 584.795 175.441L591.733 182.639C600.704 191.948 615.478 192.357 624.952 183.559L649.83 160.454C659.993 151.015 676.052 152.273 684.622 163.18L717.348 204.832C725.623 215.365 740.974 216.96 751.238 208.354L793.885 172.595" stroke="url(#paint3_linear_30215_27918)" stroke-width="3.55779"/>
<g filter="url(#filter7_d_30215_27918)">
<circle cx="538.097" cy="179.683" r="5.4202" fill="white"/>
</g>
<rect x="32" y="40" width="531.2" height="51.4786"/>
</g>
<defs>
<filter id="filter0_f_30215_27918" x="247.538" y="135.116" width="253.789" height="252.603" filterUnits="userSpaceOnUse" color-interpolation-filters="sRGB">
<feFlood flood-opacity="0" result="BackgroundImageFix"/>
<feBlend mode="normal" in="SourceGraphic" in2="BackgroundImageFix" result="shape"/>
<feGaussianBlur stdDeviation="37.9498" result="effect1_foregroundBlur_30215_27918"/>
</filter>
<filter id="filter1_d_30215_27918" x="303.277" y="189.67" width="143.498" height="143.498" filterUnits="userSpaceOnUse" color-interpolation-filters="sRGB">
<feFlood flood-opacity="0" result="BackgroundImageFix"/>
<feColorMatrix in="SourceAlpha" type="matrix" values="0 0 0 0 0 0 0 0 0 0 0 0 0 0 0 0 0 0 127 0" result="hardAlpha"/>
<feOffset/>
<feGaussianBlur stdDeviation="17.789"/>
<feComposite in2="hardAlpha" operator="out"/>
<feColorMatrix type="matrix" values="0 0 0 0 1 0 0 0 0 0.807843 0 0 0 0 0.4 0 0 0 1 0"/>
<feBlend mode="normal" in2="BackgroundImageFix" result="effect1_dropShadow_30215_27918"/>
<feBlend mode="normal" in="SourceGraphic" in2="effect1_dropShadow_30215_27918" result="shape"/>
</filter>
<filter id="filter2_d_30215_27918" x="337.669" y="224.062" width="74.7136" height="74.7136" filterUnits="userSpaceOnUse" color-interpolation-filters="sRGB">
<feFlood flood-opacity="0" result="BackgroundImageFix"/>
<feColorMatrix in="SourceAlpha" type="matrix" values="0 0 0 0 0 0 0 0 0 0 0 0 0 0 0 0 0 0 127 0" result="hardAlpha"/>
<feOffset/>
<feGaussianBlur stdDeviation="11.8593"/>
<feComposite in2="hardAlpha" operator="out"/>
<feColorMatrix type="matrix" values="0 0 0 0 0.675 0 0 0 0 0.174057 0 0 0 0 0 0 0 0 1 0"/>
<feBlend mode="normal" in2="BackgroundImageFix" result="effect1_dropShadow_30215_27918"/>
<feBlend mode="normal" in="SourceGraphic" in2="effect1_dropShadow_30215_27918" result="shape"/>
</filter>
<filter id="filter3_d_30215_27918" x="353.267" y="240.086" width="42.5549" height="42.5546" filterUnits="userSpaceOnUse" color-interpolation-filters="sRGB">
<feFlood flood-opacity="0" result="BackgroundImageFix"/>
<feColorMatrix in="SourceAlpha" type="matrix" values="0 0 0 0 0 0 0 0 0 0 0 0 0 0 0 0 0 0 127 0" result="hardAlpha"/>
<feOffset/>
<feGaussianBlur stdDeviation="7.11559"/>
<feComposite in2="hardAlpha" operator="out"/>
<feColorMatrix type="matrix" values="0 0 0 0 1 0 0 0 0 0.493786 0 0 0 0 0.225 0 0 0 1 0"/>
<feBlend mode="normal" in2="BackgroundImageFix" result="effect1_dropShadow_30215_27918"/>
<feBlend mode="normal" in="SourceGraphic" in2="effect1_dropShadow_30215_27918" result="shape"/>
</filter>
<filter id="filter4_f_30215_27918" x="423.056" y="65.0545" width="230.253" height="229.341" filterUnits="userSpaceOnUse" color-interpolation-filters="sRGB">
<feFlood flood-opacity="0" result="BackgroundImageFix"/>
<feBlend mode="normal" in="SourceGraphic" in2="BackgroundImageFix" result="shape"/>
<feGaussianBlur stdDeviation="37.9498" result="effect1_foregroundBlur_30215_27918"/>
</filter>
<filter id="filter5_d_30215_27918" x="474.325" y="116.323" width="126.803" height="126.803" filterUnits="userSpaceOnUse" color-interpolation-filters="sRGB">
<feFlood flood-opacity="0" result="BackgroundImageFix"/>
<feColorMatrix in="SourceAlpha" type="matrix" values="0 0 0 0 0 0 0 0 0 0 0 0 0 0 0 0 0 0 127 0" result="hardAlpha"/>
<feOffset/>
<feGaussianBlur stdDeviation="17.789"/>
<feComposite in2="hardAlpha" operator="out"/>
<feColorMatrix type="matrix" values="0 0 0 0 1 0 0 0 0 0.807843 0 0 0 0 0.4 0 0 0 1 0"/>
<feBlend mode="normal" in2="BackgroundImageFix" result="effect1_dropShadow_30215_27918"/>
<feBlend mode="normal" in="SourceGraphic" in2="effect1_dropShadow_30215_27918" result="shape"/>
</filter>
<filter id="filter6_d_30215_27918" x="503.517" y="145.516" width="68.4192" height="68.4192" filterUnits="userSpaceOnUse" color-interpolation-filters="sRGB">
<feFlood flood-opacity="0" result="BackgroundImageFix"/>
<feColorMatrix in="SourceAlpha" type="matrix" values="0 0 0 0 0 0 0 0 0 0 0 0 0 0 0 0 0 0 127 0" result="hardAlpha"/>
<feOffset/>
<feGaussianBlur stdDeviation="11.8593"/>
<feComposite in2="hardAlpha" operator="out"/>
<feColorMatrix type="matrix" values="0 0 0 0 0.675 0 0 0 0 0.174057 0 0 0 0 0 0 0 0 1 0"/>
<feBlend mode="normal" in2="BackgroundImageFix" result="effect1_dropShadow_30215_27918"/>
<feBlend mode="normal" in="SourceGraphic" in2="effect1_dropShadow_30215_27918" result="shape"/>
</filter>
<filter id="filter7_d_30215_27918" x="518.446" y="160.032" width="39.3027" height="39.3027" filterUnits="userSpaceOnUse" color-interpolation-filters="sRGB">
<feFlood flood-opacity="0" result="BackgroundImageFix"/>
<feColorMatrix in="SourceAlpha" type="matrix" values="0 0 0 0 0 0 0 0 0 0 0 0 0 0 0 0 0 0 127 0" result="hardAlpha"/>
<feOffset/>
<feGaussianBlur stdDeviation="7.11559"/>
<feComposite in2="hardAlpha" operator="out"/>
<feColorMatrix type="matrix" values="0 0 0 0 1 0 0 0 0 0.493786 0 0 0 0 0.225 0 0 0 1 0"/>
<feBlend mode="normal" in2="BackgroundImageFix" result="effect1_dropShadow_30215_27918"/>
<feBlend mode="normal" in="SourceGraphic" in2="effect1_dropShadow_30215_27918" result="shape"/>
</filter>
<radialGradient id="paint0_radial_30215_27918" cx="0" cy="0" r="1" gradientUnits="userSpaceOnUse" gradientTransform="translate(372.061 263.196) rotate(71.1901) scale(182.915 212.321)">
<stop stop-color="#FFE24C"/>
<stop offset="0.380029" stop-color="#FFCB46"/>
<stop offset="0.519364" stop-color="#FF8653"/>
<stop offset="0.923004" stop-color="#802425"/>
</radialGradient>
<linearGradient id="paint1_linear_30215_27918" x1="264.141" y1="136.302" x2="368.777" y2="263.196" gradientUnits="userSpaceOnUse">
<stop/>
<stop offset="1" stop-opacity="0"/>
</linearGradient>
<linearGradient id="paint2_linear_30215_27918" x1="227.141" y1="262.436" x2="320.33" y2="262.436" gradientUnits="userSpaceOnUse">
<stop/>
<stop offset="1" stop-opacity="0"/>
</linearGradient>
<linearGradient id="paint3_linear_30215_27918" x1="631.78" y1="199.156" x2="596.202" y2="199.156" gradientUnits="userSpaceOnUse">
<stop/>
<stop offset="1" stop-opacity="0"/>
</linearGradient>
<clipPath id="clip0_30215_27918">
<rect width="608" height="448" rx="6.4" fill="white"/>
</clipPath>
<clipPath id="clip1_30215_27918">
<rect width="74.9197" height="72.312" fill="white" transform="translate(65.3198 156.312) rotate(180)"/>
</clipPath>
<clipPath id="clip2_30215_27918">
<rect width="62.2087" height="60.0436" fill="white" transform="translate(522.535 325.864) rotate(180)"/>
</clipPath>
<clipPath id="clip3_30215_27918">
<rect width="52.9927" height="51.1482" fill="white" transform="translate(566.4 106.593) rotate(-90)"/>
</clipPath>
</defs>
</svg>
