<svg width="760" height="560" viewBox="0 0 760 560" fill="none" xmlns="http://www.w3.org/2000/svg">
<g clip-path="url(#clip0_4188_25181)">
<rect width="760" height="560" rx="8" fill="black"/>
<circle cx="722.441" cy="526.961" r="4.32007" fill="#51575C"/>
<circle cx="731.081" cy="548.561" r="4.32007" fill="#51575C"/>
<circle cx="685.001" cy="518.321" r="4.32007" fill="#51575C"/>
<circle cx="745.482" cy="539.922" r="4.32007" fill="#51575C"/>
<circle cx="754.122" cy="561.522" r="4.32007" fill="#51575C"/>
<circle cx="708.041" cy="531.281" r="4.32007" fill="#51575C"/>
<circle cx="712.361" cy="548.561" r="4.32007" fill="#51575C"/>
<circle cx="685.001" cy="548.561" r="4.32007" fill="#51575C"/>
<circle cx="738.281" cy="535.601" r="4.32007" fill="#51575C"/>
<circle cx="746.922" cy="557.201" r="4.32007" fill="#51575C"/>
<circle cx="700.841" cy="526.961" r="4.32007" fill="#51575C"/>
<circle cx="761.322" cy="548.561" r="4.32007" fill="#51575C"/>
<circle cx="723.881" cy="539.922" r="4.32007" fill="#51575C"/>
<circle cx="728.201" cy="557.201" r="4.32007" fill="#51575C"/>
<circle cx="700.841" cy="557.201" r="4.32007" fill="#51575C"/>
<circle cx="749.328" cy="545.691" r="4.32007" transform="rotate(153.417 749.328 545.691)" fill="#51575C"/>
<circle cx="731.935" cy="530.24" r="4.32007" transform="rotate(153.417 731.935 530.24)" fill="#51575C"/>
<circle cx="722.924" cy="544.411" r="4.32007" transform="rotate(153.417 722.924 544.411)" fill="#51575C"/>
<circle cx="705.531" cy="528.96" r="4.32007" transform="rotate(153.417 705.531 528.96)" fill="#51575C"/>
<circle cx="760.273" cy="535.384" r="4.32007" transform="rotate(153.417 760.273 535.384)" fill="#51575C"/>
<circle cx="748.677" cy="521.863" r="4.32007" transform="rotate(153.417 748.677 521.863)" fill="#51575C"/>
<circle cx="748.671" cy="502.543" r="4.32007" transform="rotate(153.417 748.671 502.543)" fill="#51575C"/>
<circle cx="731.296" cy="545.052" r="4.32007" transform="rotate(153.417 731.296 545.052)" fill="#51575C"/>
<circle cx="713.903" cy="529.602" r="4.32007" transform="rotate(153.417 713.903 529.602)" fill="#51575C"/>
<circle cx="704.892" cy="543.772" r="4.32007" transform="rotate(153.417 704.892 543.772)" fill="#51575C"/>
<circle cx="687.499" cy="528.322" r="4.32007" transform="rotate(153.417 687.499 528.322)" fill="#51575C"/>
<circle cx="742.241" cy="534.745" r="4.32007" transform="rotate(153.417 742.241 534.745)" fill="#51575C"/>
<circle cx="730.644" cy="521.225" r="4.32007" transform="rotate(153.417 730.644 521.225)" fill="#51575C"/>
<circle cx="730.639" cy="501.905" r="4.32007" transform="rotate(153.417 730.639 501.905)" fill="#51575C"/>
<circle cx="755.113" cy="508.981" r="4.32007" transform="rotate(153.417 755.113 508.981)" fill="#51575C"/>
<circle cx="727.779" cy="510.135" r="4.32007" transform="rotate(-166.76 727.779 510.135)" fill="#51575C"/>
<circle cx="724.316" cy="487.131" r="4.32007" transform="rotate(-166.76 724.316 487.131)" fill="#51575C"/>
<circle cx="762.246" cy="527.121" r="4.32007" transform="rotate(-166.76 762.246 527.121)" fill="#51575C"/>
<circle cx="708.32" cy="492.242" r="4.32007" transform="rotate(-166.76 708.32 492.242)" fill="#51575C"/>
<circle cx="704.856" cy="469.237" r="4.32007" transform="rotate(-166.76 704.856 469.237)" fill="#51575C"/>
<circle cx="742.786" cy="509.228" r="4.32007" transform="rotate(-166.76 742.786 509.228)" fill="#51575C"/>
<circle cx="742.539" cy="491.418" r="4.32007" transform="rotate(-166.76 742.539 491.418)" fill="#51575C"/>
<circle cx="754.907" cy="476.575" r="4.32007" transform="rotate(-166.76 754.907 476.575)" fill="#51575C"/>
<circle cx="714.339" cy="498.096" r="4.32007" transform="rotate(-166.76 714.339 498.096)" fill="#51575C"/>
<circle cx="710.876" cy="475.092" r="4.32007" transform="rotate(-166.76 710.876 475.092)" fill="#51575C"/>
<circle cx="748.805" cy="515.082" r="4.32007" transform="rotate(-166.76 748.805 515.082)" fill="#51575C"/>
<circle cx="694.879" cy="480.204" r="4.32007" transform="rotate(-166.76 694.879 480.204)" fill="#51575C"/>
<circle cx="691.416" cy="457.199" r="4.32007" transform="rotate(-166.76 691.416 457.199)" fill="#51575C"/>
<circle cx="729.346" cy="497.19" r="4.32007" transform="rotate(-166.76 729.346 497.19)" fill="#51575C"/>
<circle cx="729.098" cy="479.379" r="4.32007" transform="rotate(-166.76 729.098 479.379)" fill="#51575C"/>
<circle cx="741.466" cy="464.537" r="4.32007" transform="rotate(-166.76 741.466 464.537)" fill="#51575C"/>
<circle cx="755.731" cy="485.645" r="4.32007" transform="rotate(-166.76 755.731 485.645)" fill="#51575C"/>
<circle cx="705.897" cy="485.746" r="4.32007" transform="rotate(-13.3426 705.897 485.746)" fill="#51575C"/>
<circle cx="719.288" cy="504.769" r="4.32007" transform="rotate(-13.3426 719.288 504.769)" fill="#51575C"/>
<circle cx="667.473" cy="485.979" r="4.32007" transform="rotate(-13.3426 667.473 485.979)" fill="#51575C"/>
<circle cx="731.306" cy="493.039" r="4.32007" transform="rotate(-13.3426 731.306 493.039)" fill="#51575C"/>
<circle cx="744.698" cy="512.062" r="4.32007" transform="rotate(-13.3426 744.698 512.062)" fill="#51575C"/>
<circle cx="692.882" cy="493.272" r="4.32007" transform="rotate(-13.3426 692.882 493.272)" fill="#51575C"/>
<circle cx="701.074" cy="509.089" r="4.32007" transform="rotate(-13.3426 701.074 509.089)" fill="#51575C"/>
<circle cx="696.655" cy="527.896" r="4.32007" transform="rotate(-13.3426 696.655 527.896)" fill="#51575C"/>
<circle cx="674.452" cy="515.403" r="4.32007" transform="rotate(-13.3426 674.452 515.403)" fill="#51575C"/>
<circle cx="723.304" cy="490.497" r="4.32007" transform="rotate(-13.3426 723.304 490.497)" fill="#51575C"/>
<circle cx="736.695" cy="509.52" r="4.32007" transform="rotate(-13.3426 736.695 509.52)" fill="#51575C"/>
<circle cx="684.88" cy="490.73" r="4.32007" transform="rotate(-13.3426 684.88 490.73)" fill="#51575C"/>
<circle cx="748.713" cy="497.79" r="4.32007" transform="rotate(-13.3426 748.713 497.79)" fill="#51575C"/>
<circle cx="762.104" cy="516.813" r="4.32007" transform="rotate(-13.3426 762.104 516.813)" fill="#51575C"/>
<circle cx="710.289" cy="498.024" r="4.32007" transform="rotate(-13.3426 710.289 498.024)" fill="#51575C"/>
<circle cx="718.48" cy="513.841" r="4.32007" transform="rotate(-13.3426 718.48 513.841)" fill="#51575C"/>
<circle cx="714.061" cy="532.648" r="4.32007" transform="rotate(-13.3426 714.061 532.648)" fill="#51575C"/>
<circle cx="691.858" cy="520.155" r="4.32007" transform="rotate(-13.3426 691.858 520.155)" fill="#51575C"/>
<path fill-rule="evenodd" clip-rule="evenodd" d="M756.002 416.943C806.21 431.78 863.124 442.322 890.099 488.394C918.707 537.255 909.978 595.011 887.282 641.159C865.131 686.196 824.458 718.521 773.327 725.823C722.489 733.083 668.524 714.776 626.793 678.358C585.762 642.55 563.223 591.712 560.683 540.251C558.09 487.717 571.243 433.222 613.38 406.62C653.395 381.359 706.752 402.389 756.002 416.943Z" fill="#51575C" fill-opacity="0.4"/>
<g opacity="0.4" clip-path="url(#clip1_4188_25181)">
<circle cx="33.7121" cy="139.933" r="2.81985" transform="rotate(180 33.7121 139.933)" fill="#51575C"/>
<circle cx="28.0725" cy="125.833" r="2.81985" transform="rotate(180 28.0725 125.833)" fill="#51575C"/>
<circle cx="58.1511" cy="145.572" r="2.81985" transform="rotate(180 58.1511 145.572)" fill="#51575C"/>
<circle cx="18.6731" cy="131.473" r="2.81985" transform="rotate(180 18.6731 131.473)" fill="#51575C"/>
<circle cx="13.0334" cy="117.374" r="2.81985" transform="rotate(180 13.0334 117.374)" fill="#51575C"/>
<circle cx="43.1118" cy="137.113" r="2.81985" transform="rotate(180 43.1118 137.113)" fill="#51575C"/>
<circle cx="40.292" cy="125.833" r="2.81985" transform="rotate(180 40.292 125.833)" fill="#51575C"/>
<circle cx="45.9316" cy="114.554" r="2.81985" transform="rotate(180 45.9316 114.554)" fill="#51575C"/>
<circle cx="58.1511" cy="125.833" r="2.81985" transform="rotate(180 58.1511 125.833)" fill="#51575C"/>
<circle cx="23.3728" cy="134.293" r="2.81985" transform="rotate(180 23.3728 134.293)" fill="#51575C"/>
<circle cx="17.7329" cy="120.194" r="2.81985" transform="rotate(180 17.7329 120.194)" fill="#51575C"/>
<circle cx="47.8115" cy="139.933" r="2.81985" transform="rotate(180 47.8115 139.933)" fill="#51575C"/>
<circle cx="8.33372" cy="125.833" r="2.81985" transform="rotate(180 8.33372 125.833)" fill="#51575C"/>
<circle cx="2.69382" cy="111.734" r="2.81985" transform="rotate(180 2.69382 111.734)" fill="#51575C"/>
<circle cx="32.7724" cy="131.473" r="2.81985" transform="rotate(180 32.7724 131.473)" fill="#51575C"/>
<circle cx="29.9526" cy="120.194" r="2.81985" transform="rotate(180 29.9526 120.194)" fill="#51575C"/>
<circle cx="35.5923" cy="108.915" r="2.81985" transform="rotate(180 35.5923 108.915)" fill="#51575C"/>
<circle cx="47.8115" cy="120.194" r="2.81985" transform="rotate(180 47.8115 120.194)" fill="#51575C"/>
<circle cx="16.1628" cy="127.707" r="2.81985" transform="rotate(-26.5827 16.1628 127.707)" fill="#51575C"/>
<circle cx="27.5153" cy="137.792" r="2.81985" transform="rotate(-26.5827 27.5153 137.792)" fill="#51575C"/>
<circle cx="33.3976" cy="128.542" r="2.81985" transform="rotate(-26.5827 33.3976 128.542)" fill="#51575C"/>
<circle cx="44.7502" cy="138.628" r="2.81985" transform="rotate(-26.5827 44.7502 138.628)" fill="#51575C"/>
<circle cx="9.01872" cy="134.435" r="2.81985" transform="rotate(-26.5827 9.01872 134.435)" fill="#51575C"/>
<circle cx="16.5878" cy="143.26" r="2.81985" transform="rotate(-26.5827 16.5878 143.26)" fill="#51575C"/>
<circle cx="16.5917" cy="155.871" r="2.81985" transform="rotate(-26.5827 16.5917 155.871)" fill="#51575C"/>
<circle cx="0.616373" cy="151.252" r="2.81985" transform="rotate(-26.5827 0.616373 151.252)" fill="#51575C"/>
<circle cx="27.9333" cy="128.124" r="2.81985" transform="rotate(-26.5827 27.9333 128.124)" fill="#51575C"/>
<circle cx="39.2861" cy="138.209" r="2.81985" transform="rotate(-26.5827 39.2861 138.209)" fill="#51575C"/>
<circle cx="3.55436" cy="134.016" r="2.81985" transform="rotate(-26.5827 3.55436 134.016)" fill="#51575C"/>
<circle cx="45.1681" cy="128.959" r="2.81985" transform="rotate(-26.5827 45.1681 128.959)" fill="#51575C"/>
<circle cx="56.5207" cy="139.044" r="2.81985" transform="rotate(-26.5827 56.5207 139.044)" fill="#51575C"/>
<circle cx="20.7892" cy="134.852" r="2.81985" transform="rotate(-26.5827 20.7892 134.852)" fill="#51575C"/>
<circle cx="28.3586" cy="143.676" r="2.81985" transform="rotate(-26.5827 28.3586 143.676)" fill="#51575C"/>
<circle cx="28.362" cy="156.287" r="2.81985" transform="rotate(-26.5827 28.362 156.287)" fill="#51575C"/>
<circle cx="12.3869" cy="151.669" r="2.81985" transform="rotate(-26.5827 12.3869 151.669)" fill="#51575C"/>
<circle cx="30.2277" cy="150.915" r="2.81985" transform="rotate(13.2401 30.2277 150.915)" fill="#51575C"/>
<circle cx="32.4882" cy="165.931" r="2.81985" transform="rotate(13.2401 32.4882 165.931)" fill="#51575C"/>
<circle cx="7.73016" cy="139.828" r="2.81985" transform="rotate(13.2401 7.73016 139.828)" fill="#51575C"/>
<circle cx="42.9296" cy="162.594" r="2.81985" transform="rotate(13.2401 42.9296 162.594)" fill="#51575C"/>
<circle cx="45.1899" cy="177.61" r="2.81985" transform="rotate(13.2401 45.1899 177.61)" fill="#51575C"/>
<circle cx="20.4323" cy="151.507" r="2.81985" transform="rotate(13.2401 20.4323 151.507)" fill="#51575C"/>
<circle cx="20.5939" cy="163.132" r="2.81985" transform="rotate(13.2401 20.5939 163.132)" fill="#51575C"/>
<circle cx="12.5209" cy="172.82" r="2.81985" transform="rotate(13.2401 12.5209 172.82)" fill="#51575C"/>
<circle cx="3.20965" cy="159.042" r="2.81985" transform="rotate(13.2401 3.20965 159.042)" fill="#51575C"/>
<circle cx="39.0012" cy="158.773" r="2.81985" transform="rotate(13.2401 39.0012 158.773)" fill="#51575C"/>
<circle cx="41.2617" cy="173.789" r="2.81985" transform="rotate(13.2401 41.2617 173.789)" fill="#51575C"/>
<circle cx="16.5036" cy="147.686" r="2.81985" transform="rotate(13.2401 16.5036 147.686)" fill="#51575C"/>
<circle cx="51.7031" cy="170.452" r="2.81985" transform="rotate(13.2401 51.7031 170.452)" fill="#51575C"/>
<circle cx="53.9633" cy="185.468" r="2.81985" transform="rotate(13.2401 53.9633 185.468)" fill="#51575C"/>
<circle cx="29.2057" cy="159.365" r="2.81985" transform="rotate(13.2401 29.2057 159.365)" fill="#51575C"/>
<circle cx="29.3669" cy="170.99" r="2.81985" transform="rotate(13.2401 29.3669 170.99)" fill="#51575C"/>
<circle cx="21.2941" cy="180.678" r="2.81985" transform="rotate(13.2401 21.2941 180.678)" fill="#51575C"/>
<circle cx="11.9828" cy="166.9" r="2.81985" transform="rotate(13.2401 11.9828 166.9)" fill="#51575C"/>
<circle cx="44.5108" cy="166.835" r="2.81985" transform="rotate(166.657 44.5108 166.835)" fill="#51575C"/>
<circle cx="35.7698" cy="154.418" r="2.81985" transform="rotate(166.657 35.7698 154.418)" fill="#51575C"/>
<circle cx="69.5919" cy="166.683" r="2.81985" transform="rotate(166.657 69.5919 166.683)" fill="#51575C"/>
<circle cx="27.9256" cy="162.074" r="2.81985" transform="rotate(166.657 27.9256 162.074)" fill="#51575C"/>
<circle cx="19.1844" cy="149.658" r="2.81985" transform="rotate(166.657 19.1844 149.658)" fill="#51575C"/>
<circle cx="53.0059" cy="161.923" r="2.81985" transform="rotate(166.657 53.0059 161.923)" fill="#51575C"/>
<circle cx="47.6595" cy="151.598" r="2.81985" transform="rotate(166.657 47.6595 151.598)" fill="#51575C"/>
<circle cx="50.544" cy="139.322" r="2.81985" transform="rotate(166.657 50.544 139.322)" fill="#51575C"/>
<circle cx="65.0364" cy="147.477" r="2.81985" transform="rotate(166.657 65.0364 147.477)" fill="#51575C"/>
<circle cx="33.1492" cy="163.734" r="2.81985" transform="rotate(166.657 33.1492 163.734)" fill="#51575C"/>
<circle cx="24.408" cy="151.317" r="2.81985" transform="rotate(166.657 24.408 151.317)" fill="#51575C"/>
<circle cx="58.23" cy="163.581" r="2.81985" transform="rotate(166.657 58.23 163.581)" fill="#51575C"/>
<circle cx="16.564" cy="158.973" r="2.81985" transform="rotate(166.657 16.564 158.973)" fill="#51575C"/>
<circle cx="7.82256" cy="146.556" r="2.81985" transform="rotate(166.657 7.82256 146.556)" fill="#51575C"/>
<circle cx="41.6446" cy="158.821" r="2.81985" transform="rotate(166.657 41.6446 158.821)" fill="#51575C"/>
<circle cx="36.2977" cy="148.497" r="2.81985" transform="rotate(166.657 36.2977 148.497)" fill="#51575C"/>
<circle cx="39.1822" cy="136.22" r="2.81985" transform="rotate(166.657 39.1822 136.22)" fill="#51575C"/>
<circle cx="53.6749" cy="144.375" r="2.81985" transform="rotate(166.657 53.6749 144.375)" fill="#51575C"/>
</g>
<g opacity="0.2" clip-path="url(#clip2_4188_25181)">
<circle cx="613.365" cy="361.282" r="2.34144" transform="rotate(180 613.365 361.282)" fill="#51575C"/>
<circle cx="608.682" cy="349.575" r="2.34144" transform="rotate(180 608.682 349.575)" fill="#51575C"/>
<circle cx="633.657" cy="365.965" r="2.34144" transform="rotate(180 633.657 365.965)" fill="#51575C"/>
<circle cx="600.877" cy="354.258" r="2.34144" transform="rotate(180 600.877 354.258)" fill="#51575C"/>
<circle cx="596.194" cy="342.551" r="2.34144" transform="rotate(180 596.194 342.551)" fill="#51575C"/>
<circle cx="621.17" cy="358.941" r="2.34144" transform="rotate(180 621.17 358.941)" fill="#51575C"/>
<circle cx="618.828" cy="349.575" r="2.34144" transform="rotate(180 618.828 349.575)" fill="#51575C"/>
<circle cx="623.511" cy="340.209" r="2.34144" transform="rotate(180 623.511 340.209)" fill="#51575C"/>
<circle cx="633.657" cy="349.575" r="2.34144" transform="rotate(180 633.657 349.575)" fill="#51575C"/>
<circle cx="604.779" cy="356.599" r="2.34144" transform="rotate(180 604.779 356.599)" fill="#51575C"/>
<circle cx="600.096" cy="344.892" r="2.34144" transform="rotate(180 600.096 344.892)" fill="#51575C"/>
<circle cx="625.072" cy="361.282" r="2.34144" transform="rotate(180 625.072 361.282)" fill="#51575C"/>
<circle cx="592.292" cy="349.575" r="2.34144" transform="rotate(180 592.292 349.575)" fill="#51575C"/>
<circle cx="587.609" cy="337.868" r="2.34144" transform="rotate(180 587.609 337.868)" fill="#51575C"/>
<circle cx="612.584" cy="354.258" r="2.34144" transform="rotate(180 612.584 354.258)" fill="#51575C"/>
<circle cx="610.243" cy="344.892" r="2.34144" transform="rotate(180 610.243 344.892)" fill="#51575C"/>
<circle cx="614.926" cy="335.526" r="2.34144" transform="rotate(180 614.926 335.526)" fill="#51575C"/>
<circle cx="625.072" cy="344.892" r="2.34144" transform="rotate(180 625.072 344.892)" fill="#51575C"/>
<circle cx="598.793" cy="351.131" r="2.34144" transform="rotate(-26.5827 598.793 351.131)" fill="#51575C"/>
<circle cx="608.219" cy="359.504" r="2.34144" transform="rotate(-26.5827 608.219 359.504)" fill="#51575C"/>
<circle cx="578.55" cy="356.023" r="2.34144" transform="rotate(-26.5827 578.55 356.023)" fill="#51575C"/>
<circle cx="613.104" cy="351.824" r="2.34144" transform="rotate(-26.5827 613.104 351.824)" fill="#51575C"/>
<circle cx="622.53" cy="360.198" r="2.34144" transform="rotate(-26.5827 622.53 360.198)" fill="#51575C"/>
<circle cx="592.861" cy="356.717" r="2.34144" transform="rotate(-26.5827 592.861 356.717)" fill="#51575C"/>
<circle cx="599.146" cy="364.045" r="2.34144" transform="rotate(-26.5827 599.146 364.045)" fill="#51575C"/>
<circle cx="599.149" cy="374.516" r="2.34144" transform="rotate(-26.5827 599.149 374.516)" fill="#51575C"/>
<circle cx="585.884" cy="370.68" r="2.34144" transform="rotate(-26.5827 585.884 370.68)" fill="#51575C"/>
<circle cx="608.566" cy="351.476" r="2.34144" transform="rotate(-26.5827 608.566 351.476)" fill="#51575C"/>
<circle cx="617.992" cy="359.85" r="2.34144" transform="rotate(-26.5827 617.992 359.85)" fill="#51575C"/>
<circle cx="588.323" cy="356.369" r="2.34144" transform="rotate(-26.5827 588.323 356.369)" fill="#51575C"/>
<circle cx="622.877" cy="352.17" r="2.34144" transform="rotate(-26.5827 622.877 352.17)" fill="#51575C"/>
<circle cx="632.303" cy="360.544" r="2.34144" transform="rotate(-26.5827 632.303 360.544)" fill="#51575C"/>
<circle cx="602.634" cy="357.063" r="2.34144" transform="rotate(-26.5827 602.634 357.063)" fill="#51575C"/>
<circle cx="608.919" cy="364.39" r="2.34144" transform="rotate(-26.5827 608.919 364.39)" fill="#51575C"/>
<circle cx="608.922" cy="374.862" r="2.34144" transform="rotate(-26.5827 608.922 374.862)" fill="#51575C"/>
<circle cx="595.657" cy="371.027" r="2.34144" transform="rotate(-26.5827 595.657 371.027)" fill="#51575C"/>
<circle cx="610.471" cy="370.401" r="2.34144" transform="rotate(13.2401 610.471 370.401)" fill="#51575C"/>
<circle cx="612.349" cy="382.87" r="2.34144" transform="rotate(13.2401 612.349 382.87)" fill="#51575C"/>
<circle cx="591.791" cy="361.195" r="2.34144" transform="rotate(13.2401 591.791 361.195)" fill="#51575C"/>
<circle cx="621.018" cy="380.099" r="2.34144" transform="rotate(13.2401 621.018 380.099)" fill="#51575C"/>
<circle cx="622.895" cy="392.567" r="2.34144" transform="rotate(13.2401 622.895 392.567)" fill="#51575C"/>
<circle cx="602.338" cy="370.893" r="2.34144" transform="rotate(13.2401 602.338 370.893)" fill="#51575C"/>
<circle cx="602.472" cy="380.546" r="2.34144" transform="rotate(13.2401 602.472 380.546)" fill="#51575C"/>
<circle cx="595.769" cy="388.59" r="2.34144" transform="rotate(13.2401 595.769 388.59)" fill="#51575C"/>
<circle cx="588.037" cy="377.149" r="2.34144" transform="rotate(13.2401 588.037 377.149)" fill="#51575C"/>
<circle cx="617.756" cy="376.926" r="2.34144" transform="rotate(13.2401 617.756 376.926)" fill="#51575C"/>
<circle cx="619.633" cy="389.395" r="2.34144" transform="rotate(13.2401 619.633 389.395)" fill="#51575C"/>
<circle cx="599.076" cy="367.72" r="2.34144" transform="rotate(13.2401 599.076 367.72)" fill="#51575C"/>
<circle cx="628.303" cy="386.624" r="2.34144" transform="rotate(13.2401 628.303 386.624)" fill="#51575C"/>
<circle cx="630.18" cy="399.092" r="2.34144" transform="rotate(13.2401 630.18 399.092)" fill="#51575C"/>
<circle cx="609.623" cy="377.418" r="2.34144" transform="rotate(13.2401 609.623 377.418)" fill="#51575C"/>
<circle cx="609.757" cy="387.071" r="2.34144" transform="rotate(13.2401 609.757 387.071)" fill="#51575C"/>
<circle cx="603.054" cy="395.115" r="2.34144" transform="rotate(13.2401 603.054 395.115)" fill="#51575C"/>
<circle cx="595.322" cy="383.674" r="2.34144" transform="rotate(13.2401 595.322 383.674)" fill="#51575C"/>
<circle cx="622.331" cy="383.621" r="2.34144" transform="rotate(166.657 622.331 383.621)" fill="#51575C"/>
<circle cx="615.073" cy="373.31" r="2.34144" transform="rotate(166.657 615.073 373.31)" fill="#51575C"/>
<circle cx="643.157" cy="383.494" r="2.34144" transform="rotate(166.657 643.157 383.494)" fill="#51575C"/>
<circle cx="608.56" cy="379.668" r="2.34144" transform="rotate(166.657 608.56 379.668)" fill="#51575C"/>
<circle cx="601.301" cy="369.357" r="2.34144" transform="rotate(166.657 601.301 369.357)" fill="#51575C"/>
<circle cx="629.385" cy="379.541" r="2.34144" transform="rotate(166.657 629.385 379.541)" fill="#51575C"/>
<circle cx="624.946" cy="370.969" r="2.34144" transform="rotate(166.657 624.946 370.969)" fill="#51575C"/>
<circle cx="627.341" cy="360.775" r="2.34144" transform="rotate(166.657 627.341 360.775)" fill="#51575C"/>
<circle cx="639.374" cy="367.547" r="2.34144" transform="rotate(166.657 639.374 367.547)" fill="#51575C"/>
<circle cx="612.897" cy="381.046" r="2.34144" transform="rotate(166.657 612.897 381.046)" fill="#51575C"/>
<circle cx="605.639" cy="370.735" r="2.34144" transform="rotate(166.657 605.639 370.735)" fill="#51575C"/>
<circle cx="633.723" cy="380.919" r="2.34144" transform="rotate(166.657 633.723 380.919)" fill="#51575C"/>
<circle cx="599.126" cy="377.092" r="2.34144" transform="rotate(166.657 599.126 377.092)" fill="#51575C"/>
<circle cx="591.867" cy="366.782" r="2.34144" transform="rotate(166.657 591.867 366.782)" fill="#51575C"/>
<circle cx="619.951" cy="376.966" r="2.34144" transform="rotate(166.657 619.951 376.966)" fill="#51575C"/>
<circle cx="615.511" cy="368.393" r="2.34144" transform="rotate(166.657 615.511 368.393)" fill="#51575C"/>
<circle cx="617.906" cy="358.2" r="2.34144" transform="rotate(166.657 617.906 358.2)" fill="#51575C"/>
<circle cx="629.94" cy="364.971" r="2.34144" transform="rotate(166.657 629.94 364.971)" fill="#51575C"/>
</g>
<g opacity="0.7" clip-path="url(#clip3_4188_25181)">
<circle cx="747.226" cy="99.3331" r="1.99455" transform="rotate(-90 747.226 99.3331)" fill="#51575C"/>
<circle cx="757.199" cy="95.3438" r="1.99455" transform="rotate(-90 757.199 95.3438)" fill="#51575C"/>
<circle cx="743.237" cy="116.619" r="1.99455" transform="rotate(-90 743.237 116.619)" fill="#51575C"/>
<circle cx="753.21" cy="88.6954" r="1.99455" transform="rotate(-90 753.21 88.6954)" fill="#51575C"/>
<circle cx="749.221" cy="105.982" r="1.99455" transform="rotate(-90 749.221 105.982)" fill="#51575C"/>
<circle cx="757.199" cy="103.987" r="1.99455" transform="rotate(-90 757.199 103.987)" fill="#51575C"/>
<circle cx="757.199" cy="116.619" r="1.99455" transform="rotate(-90 757.199 116.619)" fill="#51575C"/>
<circle cx="751.215" cy="92.0196" r="1.99455" transform="rotate(-90 751.215 92.0196)" fill="#51575C"/>
<circle cx="761.188" cy="88.0303" r="1.99455" transform="rotate(-90 761.188 88.0303)" fill="#51575C"/>
<circle cx="747.226" cy="109.306" r="1.99455" transform="rotate(-90 747.226 109.306)" fill="#51575C"/>
<circle cx="757.199" cy="81.3819" r="1.99455" transform="rotate(-90 757.199 81.3819)" fill="#51575C"/>
<circle cx="753.21" cy="98.668" r="1.99455" transform="rotate(-90 753.21 98.668)" fill="#51575C"/>
<circle cx="761.188" cy="96.6734" r="1.99455" transform="rotate(-90 761.188 96.6734)" fill="#51575C"/>
<circle cx="761.188" cy="109.306" r="1.99455" transform="rotate(-90 761.188 109.306)" fill="#51575C"/>
<circle cx="755.874" cy="86.9199" r="1.99455" transform="rotate(63.4173 755.874 86.9199)" fill="#51575C"/>
<circle cx="748.74" cy="94.9502" r="1.99455" transform="rotate(63.4173 748.74 94.9502)" fill="#51575C"/>
<circle cx="751.706" cy="69.6758" r="1.99455" transform="rotate(63.4173 751.706 69.6758)" fill="#51575C"/>
<circle cx="755.283" cy="99.1108" r="1.99455" transform="rotate(63.4173 755.283 99.1108)" fill="#51575C"/>
<circle cx="748.149" cy="107.141" r="1.99455" transform="rotate(63.4173 748.149 107.141)" fill="#51575C"/>
<circle cx="751.115" cy="81.8672" r="1.99455" transform="rotate(63.4173 751.115 81.8672)" fill="#51575C"/>
<circle cx="744.872" cy="87.2207" r="1.99455" transform="rotate(63.4173 744.872 87.2207)" fill="#51575C"/>
<circle cx="735.953" cy="87.2231" r="1.99455" transform="rotate(63.4173 735.953 87.2231)" fill="#51575C"/>
<circle cx="739.22" cy="75.9238" r="1.99455" transform="rotate(63.4173 739.22 75.9238)" fill="#51575C"/>
<circle cx="755.579" cy="95.2456" r="1.99455" transform="rotate(63.4173 755.579 95.2456)" fill="#51575C"/>
<circle cx="748.445" cy="103.275" r="1.99455" transform="rotate(63.4173 748.445 103.275)" fill="#51575C"/>
<circle cx="751.411" cy="78.0019" r="1.99455" transform="rotate(63.4173 751.411 78.0019)" fill="#51575C"/>
<circle cx="754.988" cy="107.436" r="1.99455" transform="rotate(63.4173 754.988 107.436)" fill="#51575C"/>
<circle cx="747.855" cy="115.466" r="1.99455" transform="rotate(63.4173 747.855 115.466)" fill="#51575C"/>
<circle cx="750.82" cy="90.1919" r="1.99455" transform="rotate(63.4173 750.82 90.1919)" fill="#51575C"/>
<circle cx="744.578" cy="95.5464" r="1.99455" transform="rotate(63.4173 744.578 95.5464)" fill="#51575C"/>
<circle cx="735.658" cy="95.5488" r="1.99455" transform="rotate(63.4173 735.658 95.5488)" fill="#51575C"/>
<circle cx="738.925" cy="84.249" r="1.99455" transform="rotate(63.4173 738.925 84.249)" fill="#51575C"/>
<circle cx="739.458" cy="96.869" r="1.99455" transform="rotate(103.24 739.458 96.869)" fill="#51575C"/>
<circle cx="728.836" cy="98.4681" r="1.99455" transform="rotate(103.24 728.836 98.4681)" fill="#51575C"/>
<circle cx="747.3" cy="80.9559" r="1.99455" transform="rotate(103.24 747.3 80.9559)" fill="#51575C"/>
<circle cx="731.197" cy="105.854" r="1.99455" transform="rotate(103.24 731.197 105.854)" fill="#51575C"/>
<circle cx="720.575" cy="107.452" r="1.99455" transform="rotate(103.24 720.575 107.452)" fill="#51575C"/>
<circle cx="739.039" cy="89.9408" r="1.99455" transform="rotate(103.24 739.039 89.9408)" fill="#51575C"/>
<circle cx="730.816" cy="90.055" r="1.99455" transform="rotate(103.24 730.816 90.055)" fill="#51575C"/>
<circle cx="723.963" cy="84.3451" r="1.99455" transform="rotate(103.24 723.963 84.3451)" fill="#51575C"/>
<circle cx="733.709" cy="77.7586" r="1.99455" transform="rotate(103.24 733.709 77.7586)" fill="#51575C"/>
<circle cx="733.9" cy="103.075" r="1.99455" transform="rotate(103.24 733.9 103.075)" fill="#51575C"/>
<circle cx="723.278" cy="104.674" r="1.99455" transform="rotate(103.24 723.278 104.674)" fill="#51575C"/>
<circle cx="741.742" cy="87.1615" r="1.99455" transform="rotate(103.24 741.742 87.1615)" fill="#51575C"/>
<circle cx="725.639" cy="112.059" r="1.99455" transform="rotate(103.24 725.639 112.059)" fill="#51575C"/>
<circle cx="715.017" cy="113.658" r="1.99455" transform="rotate(103.24 715.017 113.658)" fill="#51575C"/>
<circle cx="733.481" cy="96.1468" r="1.99455" transform="rotate(103.24 733.481 96.1468)" fill="#51575C"/>
<circle cx="725.258" cy="96.2601" r="1.99455" transform="rotate(103.24 725.258 96.2601)" fill="#51575C"/>
<circle cx="718.405" cy="90.5506" r="1.99455" transform="rotate(103.24 718.405 90.5506)" fill="#51575C"/>
<circle cx="728.151" cy="83.9637" r="1.99455" transform="rotate(103.24 728.151 83.9637)" fill="#51575C"/>
<circle cx="728.197" cy="106.972" r="1.99455" transform="rotate(-103.343 728.197 106.972)" fill="#51575C"/>
<circle cx="736.98" cy="100.789" r="1.99455" transform="rotate(-103.343 736.98 100.789)" fill="#51575C"/>
<circle cx="728.305" cy="124.712" r="1.99455" transform="rotate(-103.343 728.305 124.712)" fill="#51575C"/>
<circle cx="731.564" cy="95.2406" r="1.99455" transform="rotate(-103.343 731.564 95.2406)" fill="#51575C"/>
<circle cx="740.347" cy="89.0575" r="1.99455" transform="rotate(-103.343 740.347 89.0575)" fill="#51575C"/>
<circle cx="731.672" cy="112.981" r="1.99455" transform="rotate(-103.343 731.672 112.981)" fill="#51575C"/>
<circle cx="738.975" cy="109.199" r="1.99455" transform="rotate(-103.343 738.975 109.199)" fill="#51575C"/>
<circle cx="747.658" cy="111.239" r="1.99455" transform="rotate(-103.343 747.658 111.239)" fill="#51575C"/>
<circle cx="741.89" cy="121.49" r="1.99455" transform="rotate(-103.343 741.89 121.49)" fill="#51575C"/>
<circle cx="730.391" cy="98.9354" r="1.99455" transform="rotate(-103.343 730.391 98.9354)" fill="#51575C"/>
<circle cx="739.174" cy="92.7523" r="1.99455" transform="rotate(-103.343 739.174 92.7523)" fill="#51575C"/>
<circle cx="730.498" cy="116.676" r="1.99455" transform="rotate(-103.343 730.498 116.676)" fill="#51575C"/>
<circle cx="733.758" cy="87.204" r="1.99455" transform="rotate(-103.343 733.758 87.204)" fill="#51575C"/>
<circle cx="742.541" cy="81.0209" r="1.99455" transform="rotate(-103.343 742.541 81.0209)" fill="#51575C"/>
<circle cx="733.866" cy="104.944" r="1.99455" transform="rotate(-103.343 733.866 104.944)" fill="#51575C"/>
<circle cx="741.168" cy="101.162" r="1.99455" transform="rotate(-103.343 741.168 101.162)" fill="#51575C"/>
<circle cx="749.852" cy="103.203" r="1.99455" transform="rotate(-103.343 749.852 103.203)" fill="#51575C"/>
<circle cx="744.083" cy="113.453" r="1.99455" transform="rotate(-103.343 744.083 113.453)" fill="#51575C"/>
</g>
<path fill-rule="evenodd" clip-rule="evenodd" d="M557.241 186.708C564.616 186.708 570.595 180.729 570.595 173.354C570.595 165.979 564.616 160 557.241 160C549.866 160 543.887 165.979 543.887 173.354C543.887 173.456 543.888 173.558 543.89 173.66L521.729 174.892C521.11 168.091 515.392 162.763 508.43 162.763C501.055 162.763 495.076 168.742 495.076 176.117C495.076 179.822 496.586 183.175 499.023 185.594L474.625 229.274C473.633 229.14 472.62 229.072 471.592 229.072C459.131 229.072 449.029 239.174 449.029 251.635C449.029 263.002 457.434 272.406 468.369 273.97V295.38H468.369C451.075 295.38 437.056 309.399 437.056 326.693C437.056 343.986 451.075 358.005 468.369 358.005C477.554 358.005 485.817 354.05 491.544 347.749L521.791 361.709C522.01 369.176 527.308 375.369 534.35 376.953V408.214C528.699 409.769 524.547 414.945 524.547 421.091C524.547 422.176 524.677 423.232 524.921 424.243L498.819 438.651C497.059 437.175 494.79 436.287 492.314 436.287C486.719 436.287 482.183 440.822 482.183 446.417C482.183 452.012 486.719 456.548 492.314 456.548C497.909 456.548 502.444 452.012 502.444 446.417C502.444 445.991 502.418 445.571 502.367 445.159L528.604 430.676C531.008 433.009 534.287 434.445 537.901 434.445C545.276 434.445 551.255 428.466 551.255 421.091C551.255 415.058 547.255 409.96 541.762 408.304V376.88C548.798 375.15 554.018 368.799 554.018 361.229C554.018 352.328 546.802 345.112 537.901 345.112C531.492 345.112 525.957 348.853 523.36 354.27L495.911 341.601C498.316 337.168 499.681 332.09 499.681 326.693C499.681 311.953 489.497 299.592 475.781 296.263V273.81C486.241 271.847 494.155 262.665 494.155 251.635C494.155 242.868 489.156 235.269 481.852 231.534L505.525 189.154C506.46 189.361 507.432 189.471 508.43 189.471C513.534 189.471 517.97 186.607 520.217 182.399L546.258 180.952C547.161 182.255 548.29 183.389 549.587 184.298L541.828 210.682C541.442 210.662 541.054 210.652 540.664 210.652C528.202 210.652 518.1 220.754 518.1 233.216C518.1 244.001 525.667 253.019 535.782 255.25L534.911 275.275C524.915 276.52 517.18 285.047 517.18 295.38C517.18 306.57 526.251 315.641 537.441 315.641C543.585 315.641 549.091 312.906 552.806 308.587L577.145 322.249C575.887 325.641 575.2 329.31 575.2 333.14C575.2 345.837 582.757 356.77 593.62 361.683L584.691 382.942C584.297 382.895 583.895 382.871 583.488 382.871C577.893 382.871 573.358 387.407 573.358 393.002C573.358 398.597 577.893 403.132 583.488 403.132C589.083 403.132 593.619 398.597 593.619 393.002C593.619 390.519 592.726 388.245 591.243 386.484L600.721 363.918C602.598 364.269 604.533 364.452 606.512 364.452C623.805 364.452 637.824 350.433 637.824 333.14C637.824 315.846 623.805 301.827 606.512 301.827C595.695 301.827 586.16 307.312 580.534 315.652L556.533 302.178C557.29 300.053 557.702 297.765 557.702 295.38C557.702 285.869 551.149 277.889 542.312 275.708L543.184 255.64C554.459 254.387 563.227 244.825 563.227 233.216C563.227 223.731 557.375 215.614 549.085 212.276L556.609 186.693C556.818 186.703 557.029 186.708 557.241 186.708ZM621.614 209.424C617.904 213.57 612.513 216.178 606.512 216.178C595.322 216.178 586.251 207.107 586.251 195.917C586.251 184.727 595.322 175.656 606.512 175.656C617.702 175.656 626.773 184.727 626.773 195.917C626.773 198.42 626.32 200.816 625.49 203.028L649.949 213.696C654.133 205.857 662.393 200.522 671.9 200.522C685.633 200.522 696.766 211.655 696.766 225.388C696.766 239.121 685.633 250.254 671.9 250.254C663.569 250.254 656.195 246.157 651.683 239.868L626.133 250.707C626.551 252.328 626.773 254.028 626.773 255.78C626.773 258.252 626.33 260.621 625.52 262.811L656.069 278.467C658.772 275.292 662.798 273.277 667.295 273.277C675.433 273.277 682.03 279.874 682.03 288.013C682.03 295.821 675.956 302.211 668.275 302.716L670.058 329.464L670.144 329.461C670.177 329.46 670.211 329.459 670.244 329.458C670.336 329.457 670.427 329.456 670.518 329.456C674.526 329.456 678.122 331.221 680.57 334.017L703.996 322.921C703.487 321.353 703.212 319.681 703.212 317.944C703.212 309.943 709.043 303.303 716.687 302.043V274.635C712.61 273.325 709.659 269.502 709.659 264.989C709.659 259.394 714.195 254.858 719.789 254.858C725.384 254.858 729.92 259.394 729.92 264.989C729.92 269.042 727.539 272.54 724.099 274.159V302.545C730.672 304.578 735.446 310.704 735.446 317.944C735.446 326.845 728.23 334.061 719.329 334.061C714.85 334.061 710.798 332.233 707.877 329.284L683.711 340.731C683.817 341.408 683.872 342.102 683.872 342.81C683.872 350.185 677.893 356.163 670.518 356.163C663.143 356.163 657.165 350.185 657.165 342.81C657.165 338.313 659.387 334.336 662.793 331.916L660.747 301.216C655.895 298.805 652.56 293.798 652.56 288.013C652.56 287.03 652.656 286.07 652.84 285.141L621.705 269.185C617.992 273.389 612.562 276.041 606.512 276.041C595.322 276.041 586.251 266.969 586.251 255.78C586.251 244.59 595.322 235.519 606.512 235.519C613.304 235.519 619.315 238.86 622.991 243.989L648.303 233.251C647.48 230.779 647.034 228.136 647.034 225.388C647.034 223.786 647.185 222.22 647.475 220.703L621.614 209.424ZM406.834 248C417.232 245.987 425.084 236.835 425.084 225.848C425.084 222.268 424.25 218.882 422.765 215.874L446.435 199.408C449.058 201.816 452.556 203.285 456.397 203.285C464.535 203.285 471.132 196.688 471.132 188.55C471.132 180.412 464.535 173.815 456.397 173.815C448.259 173.815 441.661 180.412 441.661 188.55C441.661 190.169 441.922 191.726 442.404 193.183L418.437 209.856C414.357 205.795 408.732 203.285 402.52 203.285C390.059 203.285 379.957 213.387 379.957 225.848C379.957 237.258 388.425 246.689 399.419 248.2L401 272.294C397.965 273.329 395.337 275.244 393.421 277.735L369.64 265.844C369.763 265.117 369.827 264.37 369.827 263.607C369.827 256.232 363.848 250.254 356.473 250.254C349.098 250.254 343.119 256.232 343.119 263.607C343.119 269.798 347.332 275.005 353.047 276.518V305.033C347.332 306.546 343.119 311.753 343.119 317.944C343.119 325.319 349.098 331.298 356.473 331.298C363.848 331.298 369.827 325.319 369.827 317.944C369.827 311.957 365.887 306.891 360.459 305.195V276.356C362.782 275.631 364.832 274.288 366.417 272.52L390.376 284.499C390.187 285.488 390.087 286.508 390.087 287.552C390.087 296.453 397.303 303.669 406.204 303.669C415.105 303.669 422.321 296.453 422.321 287.552C422.321 279.39 416.253 272.644 408.381 271.581L406.834 248ZM419.558 342.809C419.558 350.261 414.5 356.532 407.63 358.376V378.069C412.436 379.788 415.875 384.382 415.875 389.778C415.875 390.834 415.743 391.858 415.495 392.837L433.071 404.972C435.489 403.235 438.456 402.211 441.661 402.211C446.14 402.211 450.151 404.209 452.854 407.362L471.706 397.743C471.332 396.38 471.132 394.945 471.132 393.462C471.132 384.561 478.347 377.345 487.248 377.345C496.149 377.345 503.365 384.561 503.365 393.462C503.365 402.363 496.149 409.579 487.248 409.579C482.494 409.579 478.221 407.52 475.271 404.246L456.106 414.024C456.297 414.968 456.396 415.946 456.396 416.946C456.396 424.069 451.343 430.011 444.626 431.383V468.818C451.343 470.19 456.396 476.132 456.396 483.255C456.396 491.393 449.799 497.99 441.661 497.99C433.523 497.99 426.926 491.393 426.926 483.255C426.926 476.667 431.249 471.088 437.214 469.203V430.999C431.249 429.113 426.926 423.534 426.926 416.946C426.926 414.711 427.423 412.593 428.314 410.695L411.604 399.157C409.42 401.059 406.565 402.211 403.442 402.211C396.575 402.211 391.009 396.645 391.009 389.778C391.009 384.027 394.914 379.187 400.218 377.767V358.604C397.181 357.987 394.453 356.516 392.298 354.453L367.813 368.108C367.926 368.714 367.985 369.339 367.985 369.978C367.985 375.573 363.449 380.108 357.854 380.108C352.259 380.108 347.724 375.573 347.724 369.978C347.724 364.383 352.259 359.847 357.854 359.847C360.054 359.847 362.089 360.548 363.75 361.738L388.212 348.096C387.637 346.44 387.325 344.661 387.325 342.809C387.325 333.908 394.54 326.693 403.441 326.693C412.342 326.693 419.558 333.908 419.558 342.809Z" fill="url(#paint0_radial_4188_25181)"/>
<path fill-rule="evenodd" clip-rule="evenodd" d="M557.241 186.708C564.616 186.708 570.595 180.729 570.595 173.354C570.595 165.979 564.616 160 557.241 160C549.866 160 543.887 165.979 543.887 173.354C543.887 173.456 543.888 173.558 543.89 173.66L521.729 174.892C521.11 168.091 515.392 162.763 508.43 162.763C501.055 162.763 495.076 168.742 495.076 176.117C495.076 179.822 496.586 183.175 499.023 185.594L474.625 229.274C473.633 229.14 472.62 229.072 471.592 229.072C459.131 229.072 449.029 239.174 449.029 251.635C449.029 263.002 457.434 272.406 468.369 273.97V295.38H468.369C451.075 295.38 437.056 309.399 437.056 326.693C437.056 343.986 451.075 358.005 468.369 358.005C477.554 358.005 485.817 354.05 491.544 347.749L521.791 361.709C522.01 369.176 527.308 375.369 534.35 376.953V408.214C528.699 409.769 524.547 414.945 524.547 421.091C524.547 422.176 524.677 423.232 524.921 424.243L498.819 438.651C497.059 437.175 494.79 436.287 492.314 436.287C486.719 436.287 482.183 440.822 482.183 446.417C482.183 452.012 486.719 456.548 492.314 456.548C497.909 456.548 502.444 452.012 502.444 446.417C502.444 445.991 502.418 445.571 502.367 445.159L528.604 430.676C531.008 433.009 534.287 434.445 537.901 434.445C545.276 434.445 551.255 428.466 551.255 421.091C551.255 415.058 547.255 409.96 541.762 408.304V376.88C548.798 375.15 554.018 368.799 554.018 361.229C554.018 352.328 546.802 345.112 537.901 345.112C531.492 345.112 525.957 348.853 523.36 354.27L495.911 341.601C498.316 337.168 499.681 332.09 499.681 326.693C499.681 311.953 489.497 299.592 475.781 296.263V273.81C486.241 271.847 494.155 262.665 494.155 251.635C494.155 242.868 489.156 235.269 481.852 231.534L505.525 189.154C506.46 189.361 507.432 189.471 508.43 189.471C513.534 189.471 517.97 186.607 520.217 182.399L546.258 180.952C547.161 182.255 548.29 183.389 549.587 184.298L541.828 210.682C541.442 210.662 541.054 210.652 540.664 210.652C528.202 210.652 518.1 220.754 518.1 233.216C518.1 244.001 525.667 253.019 535.782 255.25L534.911 275.275C524.915 276.52 517.18 285.047 517.18 295.38C517.18 306.57 526.251 315.641 537.441 315.641C543.585 315.641 549.091 312.906 552.806 308.587L577.145 322.249C575.887 325.641 575.2 329.31 575.2 333.14C575.2 345.837 582.757 356.77 593.62 361.683L584.691 382.942C584.297 382.895 583.895 382.871 583.488 382.871C577.893 382.871 573.358 387.407 573.358 393.002C573.358 398.597 577.893 403.132 583.488 403.132C589.083 403.132 593.619 398.597 593.619 393.002C593.619 390.519 592.726 388.245 591.243 386.484L600.721 363.918C602.598 364.269 604.533 364.452 606.512 364.452C623.805 364.452 637.824 350.433 637.824 333.14C637.824 315.846 623.805 301.827 606.512 301.827C595.695 301.827 586.16 307.312 580.534 315.652L556.533 302.178C557.29 300.053 557.702 297.765 557.702 295.38C557.702 285.869 551.149 277.889 542.312 275.708L543.184 255.64C554.459 254.387 563.227 244.825 563.227 233.216C563.227 223.731 557.375 215.614 549.085 212.276L556.609 186.693C556.818 186.703 557.029 186.708 557.241 186.708ZM621.614 209.424C617.904 213.57 612.513 216.178 606.512 216.178C595.322 216.178 586.251 207.107 586.251 195.917C586.251 184.727 595.322 175.656 606.512 175.656C617.702 175.656 626.773 184.727 626.773 195.917C626.773 198.42 626.32 200.816 625.49 203.028L649.949 213.696C654.133 205.857 662.393 200.522 671.9 200.522C685.633 200.522 696.766 211.655 696.766 225.388C696.766 239.121 685.633 250.254 671.9 250.254C663.569 250.254 656.195 246.157 651.683 239.868L626.133 250.707C626.551 252.328 626.773 254.028 626.773 255.78C626.773 258.252 626.33 260.621 625.52 262.811L656.069 278.467C658.772 275.292 662.798 273.277 667.295 273.277C675.433 273.277 682.03 279.874 682.03 288.013C682.03 295.821 675.956 302.211 668.275 302.716L670.058 329.464L670.144 329.461C670.177 329.46 670.211 329.459 670.244 329.458C670.336 329.457 670.427 329.456 670.518 329.456C674.526 329.456 678.122 331.221 680.57 334.017L703.996 322.921C703.487 321.353 703.212 319.681 703.212 317.944C703.212 309.943 709.043 303.303 716.687 302.043V274.635C712.61 273.325 709.659 269.502 709.659 264.989C709.659 259.394 714.195 254.858 719.789 254.858C725.384 254.858 729.92 259.394 729.92 264.989C729.92 269.042 727.539 272.54 724.099 274.159V302.545C730.672 304.578 735.446 310.704 735.446 317.944C735.446 326.845 728.23 334.061 719.329 334.061C714.85 334.061 710.798 332.233 707.877 329.284L683.711 340.731C683.817 341.408 683.872 342.102 683.872 342.81C683.872 350.185 677.893 356.163 670.518 356.163C663.143 356.163 657.165 350.185 657.165 342.81C657.165 338.313 659.387 334.336 662.793 331.916L660.747 301.216C655.895 298.805 652.56 293.798 652.56 288.013C652.56 287.03 652.656 286.07 652.84 285.141L621.705 269.185C617.992 273.389 612.562 276.041 606.512 276.041C595.322 276.041 586.251 266.969 586.251 255.78C586.251 244.59 595.322 235.519 606.512 235.519C613.304 235.519 619.315 238.86 622.991 243.989L648.303 233.251C647.48 230.779 647.034 228.136 647.034 225.388C647.034 223.786 647.185 222.22 647.475 220.703L621.614 209.424ZM406.834 248C417.232 245.987 425.084 236.835 425.084 225.848C425.084 222.268 424.25 218.882 422.765 215.874L446.435 199.408C449.058 201.816 452.556 203.285 456.397 203.285C464.535 203.285 471.132 196.688 471.132 188.55C471.132 180.412 464.535 173.815 456.397 173.815C448.259 173.815 441.661 180.412 441.661 188.55C441.661 190.169 441.922 191.726 442.404 193.183L418.437 209.856C414.357 205.795 408.732 203.285 402.52 203.285C390.059 203.285 379.957 213.387 379.957 225.848C379.957 237.258 388.425 246.689 399.419 248.2L401 272.294C397.965 273.329 395.337 275.244 393.421 277.735L369.64 265.844C369.763 265.117 369.827 264.37 369.827 263.607C369.827 256.232 363.848 250.254 356.473 250.254C349.098 250.254 343.119 256.232 343.119 263.607C343.119 269.798 347.332 275.005 353.047 276.518V305.033C347.332 306.546 343.119 311.753 343.119 317.944C343.119 325.319 349.098 331.298 356.473 331.298C363.848 331.298 369.827 325.319 369.827 317.944C369.827 311.957 365.887 306.891 360.459 305.195V276.356C362.782 275.631 364.832 274.288 366.417 272.52L390.376 284.499C390.187 285.488 390.087 286.508 390.087 287.552C390.087 296.453 397.303 303.669 406.204 303.669C415.105 303.669 422.321 296.453 422.321 287.552C422.321 279.39 416.253 272.644 408.381 271.581L406.834 248ZM419.558 342.809C419.558 350.261 414.5 356.532 407.63 358.376V378.069C412.436 379.788 415.875 384.382 415.875 389.778C415.875 390.834 415.743 391.858 415.495 392.837L433.071 404.972C435.489 403.235 438.456 402.211 441.661 402.211C446.14 402.211 450.151 404.209 452.854 407.362L471.706 397.743C471.332 396.38 471.132 394.945 471.132 393.462C471.132 384.561 478.347 377.345 487.248 377.345C496.149 377.345 503.365 384.561 503.365 393.462C503.365 402.363 496.149 409.579 487.248 409.579C482.494 409.579 478.221 407.52 475.271 404.246L456.106 414.024C456.297 414.968 456.396 415.946 456.396 416.946C456.396 424.069 451.343 430.011 444.626 431.383V468.818C451.343 470.19 456.396 476.132 456.396 483.255C456.396 491.393 449.799 497.99 441.661 497.99C433.523 497.99 426.926 491.393 426.926 483.255C426.926 476.667 431.249 471.088 437.214 469.203V430.999C431.249 429.113 426.926 423.534 426.926 416.946C426.926 414.711 427.423 412.593 428.314 410.695L411.604 399.157C409.42 401.059 406.565 402.211 403.442 402.211C396.575 402.211 391.009 396.645 391.009 389.778C391.009 384.027 394.914 379.187 400.218 377.767V358.604C397.181 357.987 394.453 356.516 392.298 354.453L367.813 368.108C367.926 368.714 367.985 369.339 367.985 369.978C367.985 375.573 363.449 380.108 357.854 380.108C352.259 380.108 347.724 375.573 347.724 369.978C347.724 364.383 352.259 359.847 357.854 359.847C360.054 359.847 362.089 360.548 363.75 361.738L388.212 348.096C387.637 346.44 387.325 344.661 387.325 342.809C387.325 333.908 394.54 326.693 403.441 326.693C412.342 326.693 419.558 333.908 419.558 342.809Z" fill="url(#paint1_linear_4188_25181)"/>
<g filter="url(#filter0_f_4188_25181)">
<ellipse cx="63.7438" cy="63.0026" rx="63.7438" ry="63.0026" transform="matrix(-1 0 0 1 531.785 263.77)" fill="#FECD64" fill-opacity="0.5"/>
</g>
<g filter="url(#filter1_d_4188_25181)">
<circle cx="45.2136" cy="45.2136" r="45.2136" transform="matrix(-1 0 0 1 513.996 281.559)" fill="#FECD64" style="mix-blend-mode:screen" shape-rendering="crispEdges"/>
</g>
<circle cx="31.8719" cy="31.8719" r="31.8719" transform="matrix(-1 0 0 1 500.654 294.9)" fill="#FFA756"/>
<g filter="url(#filter2_d_4188_25181)">
<circle cx="17.0478" cy="17.0478" r="17.0478" transform="matrix(-1 0 0 1 485.83 309.725)" fill="#CA5632"/>
</g>
<path d="M471.261 328.653L431.131 309.079C419.577 303.443 405.707 305.896 396.785 315.152L374.963 337.794C363.748 349.43 345.281 349.942 333.439 338.944L279.535 288.882C266.831 277.083 246.758 278.656 236.046 292.29L171.225 374.792C160.88 387.958 141.693 389.952 128.862 379.194L52.5253 315.186" stroke="white" stroke-width="5.92966"/>
<path d="M471.261 328.653L431.131 309.079C419.577 303.443 405.707 305.896 396.785 315.152L374.963 337.794C363.748 349.43 345.281 349.942 333.439 338.944L279.535 288.882C266.831 277.083 246.758 278.656 236.046 292.29L171.225 374.792C160.88 387.958 141.693 389.952 128.862 379.194L52.5253 315.186" stroke="url(#paint2_linear_4188_25181)" stroke-width="5.92966"/>
<g filter="url(#filter3_d_4188_25181)">
<circle cx="8.80783" cy="8.80783" r="8.80783" transform="matrix(-1 0 0 1 476.988 317.896)" fill="white"/>
</g>
<g filter="url(#filter4_f_4188_25181)">
<ellipse cx="672.729" cy="224.656" rx="49.0337" ry="48.4636" fill="#FECD64" fill-opacity="0.5"/>
</g>
<g filter="url(#filter5_d_4188_25181)">
<circle cx="672.158" cy="224.657" r="34.7797" fill="#FECD64" style="mix-blend-mode:screen" shape-rendering="crispEdges"/>
</g>
<circle cx="672.158" cy="224.657" r="24.5169" fill="#FFA756"/>
<g filter="url(#filter6_d_4188_25181)">
<circle cx="672.158" cy="224.657" r="13.1137" fill="#CA5632"/>
</g>
<path d="M670.252 226.104L696.648 213.228C708.202 207.592 722.072 210.045 730.994 219.301L739.666 228.299C750.88 239.935 769.348 240.447 781.189 229.449L812.288 200.567C824.992 188.768 845.065 190.341 855.777 203.975L896.685 256.041C907.029 269.207 926.217 271.201 939.047 260.442L992.356 215.744" stroke="white" stroke-width="4.44724"/>
<path d="M670.252 226.104L696.648 213.228C708.202 207.592 722.072 210.045 730.994 219.301L739.666 228.299C750.88 239.935 769.348 240.447 781.189 229.449L812.288 200.567C824.992 188.768 845.065 190.341 855.777 203.975L896.685 256.041C907.029 269.207 926.217 271.201 939.047 260.442L992.356 215.744" stroke="url(#paint3_linear_4188_25181)" stroke-width="4.44724"/>
<g filter="url(#filter7_d_4188_25181)">
<circle cx="672.621" cy="224.604" r="6.77525" fill="white"/>
</g>
<rect x="32" y="48" width="664" height="64.3483"/>
</g>
<defs>
<filter id="filter0_f_4188_25181" x="309.422" y="168.895" width="317.237" height="315.754" filterUnits="userSpaceOnUse" color-interpolation-filters="sRGB">
<feFlood flood-opacity="0" result="BackgroundImageFix"/>
<feBlend mode="normal" in="SourceGraphic" in2="BackgroundImageFix" result="shape"/>
<feGaussianBlur stdDeviation="47.4373" result="effect1_foregroundBlur_4188_25181"/>
</filter>
<filter id="filter1_d_4188_25181" x="379.096" y="237.087" width="179.372" height="179.372" filterUnits="userSpaceOnUse" color-interpolation-filters="sRGB">
<feFlood flood-opacity="0" result="BackgroundImageFix"/>
<feColorMatrix in="SourceAlpha" type="matrix" values="0 0 0 0 0 0 0 0 0 0 0 0 0 0 0 0 0 0 127 0" result="hardAlpha"/>
<feOffset/>
<feGaussianBlur stdDeviation="22.2362"/>
<feComposite in2="hardAlpha" operator="out"/>
<feColorMatrix type="matrix" values="0 0 0 0 1 0 0 0 0 0.807843 0 0 0 0 0.4 0 0 0 1 0"/>
<feBlend mode="normal" in2="BackgroundImageFix" result="effect1_dropShadow_4188_25181"/>
<feBlend mode="normal" in="SourceGraphic" in2="effect1_dropShadow_4188_25181" result="shape"/>
</filter>
<filter id="filter2_d_4188_25181" x="422.086" y="280.077" width="93.3922" height="93.3923" filterUnits="userSpaceOnUse" color-interpolation-filters="sRGB">
<feFlood flood-opacity="0" result="BackgroundImageFix"/>
<feColorMatrix in="SourceAlpha" type="matrix" values="0 0 0 0 0 0 0 0 0 0 0 0 0 0 0 0 0 0 127 0" result="hardAlpha"/>
<feOffset/>
<feGaussianBlur stdDeviation="14.8241"/>
<feComposite in2="hardAlpha" operator="out"/>
<feColorMatrix type="matrix" values="0 0 0 0 0.675 0 0 0 0 0.174057 0 0 0 0 0 0 0 0 1 0"/>
<feBlend mode="normal" in2="BackgroundImageFix" result="effect1_dropShadow_4188_25181"/>
<feBlend mode="normal" in="SourceGraphic" in2="effect1_dropShadow_4188_25181" result="shape"/>
</filter>
<filter id="filter3_d_4188_25181" x="441.583" y="300.108" width="53.1935" height="53.1937" filterUnits="userSpaceOnUse" color-interpolation-filters="sRGB">
<feFlood flood-opacity="0" result="BackgroundImageFix"/>
<feColorMatrix in="SourceAlpha" type="matrix" values="0 0 0 0 0 0 0 0 0 0 0 0 0 0 0 0 0 0 127 0" result="hardAlpha"/>
<feOffset/>
<feGaussianBlur stdDeviation="8.89449"/>
<feComposite in2="hardAlpha" operator="out"/>
<feColorMatrix type="matrix" values="0 0 0 0 1 0 0 0 0 0.493786 0 0 0 0 0.225 0 0 0 1 0"/>
<feBlend mode="normal" in2="BackgroundImageFix" result="effect1_dropShadow_4188_25181"/>
<feBlend mode="normal" in="SourceGraphic" in2="effect1_dropShadow_4188_25181" result="shape"/>
</filter>
<filter id="filter4_f_4188_25181" x="528.82" y="81.3183" width="287.816" height="286.676" filterUnits="userSpaceOnUse" color-interpolation-filters="sRGB">
<feFlood flood-opacity="0" result="BackgroundImageFix"/>
<feBlend mode="normal" in="SourceGraphic" in2="BackgroundImageFix" result="shape"/>
<feGaussianBlur stdDeviation="47.4373" result="effect1_foregroundBlur_4188_25181"/>
</filter>
<filter id="filter5_d_4188_25181" x="592.906" y="145.405" width="158.504" height="158.504" filterUnits="userSpaceOnUse" color-interpolation-filters="sRGB">
<feFlood flood-opacity="0" result="BackgroundImageFix"/>
<feColorMatrix in="SourceAlpha" type="matrix" values="0 0 0 0 0 0 0 0 0 0 0 0 0 0 0 0 0 0 127 0" result="hardAlpha"/>
<feOffset/>
<feGaussianBlur stdDeviation="22.2362"/>
<feComposite in2="hardAlpha" operator="out"/>
<feColorMatrix type="matrix" values="0 0 0 0 1 0 0 0 0 0.807843 0 0 0 0 0.4 0 0 0 1 0"/>
<feBlend mode="normal" in2="BackgroundImageFix" result="effect1_dropShadow_4188_25181"/>
<feBlend mode="normal" in="SourceGraphic" in2="effect1_dropShadow_4188_25181" result="shape"/>
</filter>
<filter id="filter6_d_4188_25181" x="629.396" y="181.895" width="85.5239" height="85.5241" filterUnits="userSpaceOnUse" color-interpolation-filters="sRGB">
<feFlood flood-opacity="0" result="BackgroundImageFix"/>
<feColorMatrix in="SourceAlpha" type="matrix" values="0 0 0 0 0 0 0 0 0 0 0 0 0 0 0 0 0 0 127 0" result="hardAlpha"/>
<feOffset/>
<feGaussianBlur stdDeviation="14.8241"/>
<feComposite in2="hardAlpha" operator="out"/>
<feColorMatrix type="matrix" values="0 0 0 0 0.675 0 0 0 0 0.174057 0 0 0 0 0 0 0 0 1 0"/>
<feBlend mode="normal" in2="BackgroundImageFix" result="effect1_dropShadow_4188_25181"/>
<feBlend mode="normal" in="SourceGraphic" in2="effect1_dropShadow_4188_25181" result="shape"/>
</filter>
<filter id="filter7_d_4188_25181" x="648.057" y="200.04" width="49.1285" height="49.1282" filterUnits="userSpaceOnUse" color-interpolation-filters="sRGB">
<feFlood flood-opacity="0" result="BackgroundImageFix"/>
<feColorMatrix in="SourceAlpha" type="matrix" values="0 0 0 0 0 0 0 0 0 0 0 0 0 0 0 0 0 0 127 0" result="hardAlpha"/>
<feOffset/>
<feGaussianBlur stdDeviation="8.89449"/>
<feComposite in2="hardAlpha" operator="out"/>
<feColorMatrix type="matrix" values="0 0 0 0 1 0 0 0 0 0.493786 0 0 0 0 0.225 0 0 0 1 0"/>
<feBlend mode="normal" in2="BackgroundImageFix" result="effect1_dropShadow_4188_25181"/>
<feBlend mode="normal" in="SourceGraphic" in2="effect1_dropShadow_4188_25181" result="shape"/>
</filter>
<radialGradient id="paint0_radial_4188_25181" cx="0" cy="0" r="1" gradientUnits="userSpaceOnUse" gradientTransform="translate(465.077 328.995) rotate(71.1901) scale(228.643 265.401)">
<stop stop-color="#FFE24C"/>
<stop offset="0.380029" stop-color="#FFCB46"/>
<stop offset="0.519364" stop-color="#FF8653"/>
<stop offset="0.923004" stop-color="#802425"/>
</radialGradient>
<linearGradient id="paint1_linear_4188_25181" x1="330.177" y1="170.377" x2="460.971" y2="328.995" gradientUnits="userSpaceOnUse">
<stop/>
<stop offset="1" stop-opacity="0"/>
</linearGradient>
<linearGradient id="paint2_linear_4188_25181" x1="283.926" y1="328.045" x2="400.412" y2="328.045" gradientUnits="userSpaceOnUse">
<stop/>
<stop offset="1" stop-opacity="0"/>
</linearGradient>
<linearGradient id="paint3_linear_4188_25181" x1="789.725" y1="248.945" x2="745.253" y2="248.945" gradientUnits="userSpaceOnUse">
<stop/>
<stop offset="1" stop-opacity="0"/>
</linearGradient>
<clipPath id="clip0_4188_25181">
<rect width="760" height="560" rx="8" fill="white"/>
</clipPath>
<clipPath id="clip1_4188_25181">
<rect width="93.6496" height="90.39" fill="white" transform="translate(81.6497 195.39) rotate(180)"/>
</clipPath>
<clipPath id="clip2_4188_25181">
<rect width="77.7609" height="75.0545" fill="white" transform="translate(653.169 407.331) rotate(180)"/>
</clipPath>
<clipPath id="clip3_4188_25181">
<rect width="66.2408" height="63.9352" fill="white" transform="translate(708 133.241) rotate(-90)"/>
</clipPath>
</defs>
</svg>
