<svg width="808" height="632" viewBox="0 0 808 632" fill="none" xmlns="http://www.w3.org/2000/svg">
<g clip-path="url(#clip0_129_370763)">
<rect width="808" height="632" fill="#001E35"/>
<path opacity="0.7" fill-rule="evenodd" clip-rule="evenodd" d="M808 413.627C808 338.16 627.35 277 404.515 277C181.665 277 1 338.16 1 413.627C1 636.406 181.65 817 404.5 817C627.32 817 807.956 636.45 808 413.7V413.627Z" fill="#001220"/>
<path fill-rule="evenodd" clip-rule="evenodd" d="M280.61 152.774C280.284 145.859 274.183 145.626 270.39 146.32C270.361 146.326 270.33 146.327 270.301 146.331C270.335 148.336 270.388 151.146 270.454 154.41C270.479 155.721 270.512 157.171 270.551 158.663C277.431 160.769 280.833 157.512 280.61 152.774ZM287.742 152.578C287.742 161.573 280.637 164.233 275.166 164.233C273.349 164.233 271.741 164.005 270.675 163.733C270.793 168.19 270.903 172.192 270.938 173.378C270.824 173.477 270.729 173.591 270.646 173.714C270.029 173.674 268.553 173.582 267.17 173.582C265.815 173.582 264.37 173.67 263.732 173.712C263.641 173.585 263.534 173.47 263.414 173.371C263.503 171.592 263.889 163.662 263.889 157.472C263.889 151.249 263.499 143.579 263.412 141.931C263.517 141.819 263.6 141.702 263.672 141.569C263.992 141.534 264.57 141.479 265.245 141.432C267.035 141.233 270.215 140.938 273.112 140.938C282.337 140.938 287.742 145.775 287.742 152.578ZM263.835 126.732C262.617 124.665 257.489 114.563 254.639 107.896C251.953 101.61 249.726 96.2392 249.055 94.4916C248.817 94.4751 248.602 94.4237 248.41 94.3466C247.492 94.7266 245.204 95.6903 242.495 96.4613C242.431 96.665 242.336 96.8541 242.21 97.0248C242.324 97.2781 242.491 97.6471 242.702 98.1189C242.702 98.1189 236.828 113.447 228.914 126.976C229.028 127.057 229.131 127.15 229.22 127.253C230.405 127.168 233.623 126.994 237.181 127.29C237.181 127.29 240.082 118.831 245.654 104.698C246.486 106.569 247.438 108.7 248.462 111.024C251.596 118.111 254.854 127.29 254.854 127.29C254.854 127.29 256.842 127.099 258.948 127.099C260.404 127.099 262.745 127.189 263.571 127.247C263.633 127.064 263.718 126.889 263.835 126.732ZM588.349 108.344C588.349 102.335 588.448 96.6705 588.479 95.169C588.349 95.0662 588.229 94.9432 588.132 94.8092C587.561 94.8551 586.363 94.934 585.062 94.934C583.677 94.934 582.453 94.844 581.961 94.8018C581.887 94.8367 581.813 94.8679 581.738 94.8954C581.697 94.912 581.653 94.9248 581.61 94.9358C580.776 96.1712 575.678 103.714 572.439 108.015C570.492 110.6 567.238 114.829 564.707 118.106C564.703 116.663 564.699 115.132 564.699 113.577C564.699 107.257 565.101 97.0432 565.18 95.09C565.033 95.0056 564.905 94.9046 564.79 94.7871C564.123 94.833 562.733 94.912 561.418 94.912C560.043 94.912 558.577 94.8239 557.953 94.7798C557.873 94.9175 557.772 95.046 557.656 95.1598C557.741 97.269 558.135 107.325 558.135 113.577C558.135 119.585 558.034 125.254 558.003 126.752C558.137 126.86 558.253 126.978 558.35 127.113C558.922 127.068 560.119 126.987 561.42 126.987C562.779 126.987 563.986 127.075 564.5 127.117C564.562 127.079 564.628 127.045 564.693 127.016C564.755 126.987 564.814 126.959 564.878 126.935C565.644 125.838 569.501 121.412 575.65 112.61C577.82 109.504 580.219 106.429 581.777 104.483C581.78 105.728 581.782 107.027 581.782 108.344C581.782 114.664 581.381 124.881 581.301 126.831C581.449 126.917 581.577 127.022 581.691 127.134C582.362 127.091 583.751 127.009 585.064 127.009C586.439 127.009 587.905 127.101 588.529 127.141C588.609 127.003 588.71 126.878 588.828 126.761C588.741 124.657 588.349 114.596 588.349 108.344ZM209.287 127.554C219.33 127.554 226.635 120.947 226.635 111.024C226.635 101.895 218.915 94.4953 208.868 94.4953C205.433 94.4953 202.226 95.3635 199.487 96.8633C199.487 96.8633 199.602 97.8931 199.602 99.0808C199.602 100.643 199.511 102.611 199.511 102.611C199.674 102.647 199.821 102.701 199.955 102.767C201.008 101.889 202.78 100.751 205.449 100.074C210.976 98.6678 217.66 101.719 219.249 108.329C219.254 108.358 219.26 108.382 219.266 108.412C213.898 108.375 208.022 108.006 206.773 107.883C206.659 107.984 206.529 108.068 206.383 108.142C206.352 109.944 206.065 112.478 205.963 113.307C206.067 113.386 206.158 113.472 206.242 113.57C207.361 113.493 213.231 113.243 219.509 113.227C218.933 117.41 216.289 120.89 212.289 121.977C209.562 122.711 205.323 122.601 202.648 120.942C200.734 119.754 199.295 118.317 199.295 118.317C199.158 118.376 199.008 118.416 198.847 118.443C198.882 119.279 198.937 120.578 198.937 121.584C198.937 123.051 198.814 124.611 198.814 124.611C201.941 126.581 205.536 127.554 209.287 127.554ZM248.528 155.462C247.264 149.685 241.622 145.933 235.925 147.078C230.229 148.224 226.639 153.834 227.904 159.612C229.174 165.385 234.814 169.139 240.509 167.994C246.205 166.848 249.794 161.237 248.528 155.462ZM256.066 157.013C256.361 166.248 248.607 173.973 238.75 174.263C228.893 174.553 220.662 167.3 220.369 158.061C220.073 148.826 227.824 141.101 237.681 140.809C247.541 140.519 255.769 147.772 256.066 157.013ZM321.538 155.462C320.272 149.685 314.631 145.933 308.933 147.078C303.239 148.224 299.648 153.834 300.916 159.612C302.18 165.385 307.824 169.139 313.519 167.994C319.213 166.848 322.805 161.237 321.538 155.462ZM329.074 157.013C329.373 166.248 321.618 173.973 311.758 174.263C301.901 174.553 293.671 167.3 293.378 158.061C293.083 148.826 300.834 141.101 310.692 140.809C320.551 140.519 328.781 147.772 329.074 157.013ZM423.106 108.784C421.84 103.011 416.199 99.257 410.503 100.402C404.807 101.548 401.216 107.158 402.484 112.933C403.748 118.708 409.392 122.462 415.087 121.316C420.781 120.171 424.373 114.563 423.106 108.784ZM430.642 110.335C430.939 119.572 423.188 127.297 413.33 127.587C403.471 127.877 395.239 120.622 394.946 111.385C394.651 102.146 402.404 94.4218 412.262 94.1355C422.119 93.8418 430.35 101.098 430.642 110.335ZM518.191 109.972C518.191 109.972 518.131 112.573 518.1 114.064C518.036 117.316 517.982 120.114 517.947 122.115C518.12 122.111 518.292 122.124 518.457 122.152C522.25 122.847 528.351 122.614 528.677 115.701C528.9 110.956 525.345 107.604 518.191 109.972ZM535.81 115.897C535.81 122.697 530.407 127.536 521.18 127.536C518.517 127.536 515.616 127.284 513.774 127.093C512.731 127.047 511.773 126.954 511.319 126.902C511.247 126.774 511.162 126.654 511.059 126.543C511.148 124.894 511.536 117.226 511.536 111.004C511.536 104.814 511.152 96.8816 511.061 95.1047C511.183 95.0019 511.29 94.8899 511.379 94.7614C512.019 94.8037 513.464 94.8918 514.819 94.8918C516.202 94.8918 517.676 94.8 518.294 94.7596C518.376 94.8808 518.473 94.9946 518.585 95.0974C518.55 96.2906 518.436 100.355 518.318 104.863C518.366 104.848 518.413 104.828 518.463 104.814C519.516 104.511 521.256 104.243 523.234 104.243C528.705 104.243 535.81 106.901 535.81 115.897ZM548.095 95.1139C547.981 95.0148 547.884 94.9046 547.801 94.7816C547.176 94.8257 545.71 94.912 544.335 94.912C542.95 94.912 541.478 94.8239 540.858 94.7798C540.778 94.9046 540.685 95.0148 540.579 95.1157C540.579 95.1157 541.054 103.099 541.054 111.024C541.054 118.886 540.579 126.91 540.579 126.91C540.709 127.016 540.825 127.132 540.918 127.266C541.568 127.22 542.995 127.135 544.335 127.135C545.726 127.135 547.455 127.227 548.183 127.268C548.27 127.128 548.371 126.998 548.495 126.884C548.495 126.884 547.618 121.069 547.618 111.024C547.618 101.932 548.095 95.1139 548.095 95.1139ZM381.78 106.328C381.453 99.4149 375.352 99.1817 371.56 99.8756C371.531 99.8811 371.5 99.883 371.473 99.8848C371.504 101.889 371.557 104.702 371.624 107.962C371.65 109.276 371.683 110.723 371.717 112.217C378.602 114.324 382.003 111.066 381.78 106.328ZM388.913 106.13C388.913 115.128 381.809 117.786 376.337 117.786C374.519 117.786 372.912 117.559 371.843 117.285C371.96 121.746 372.074 125.746 372.109 126.93C371.995 127.033 371.9 127.146 371.816 127.268C371.197 127.225 369.724 127.135 368.341 127.135C366.985 127.135 365.541 127.222 364.903 127.266C364.811 127.139 364.705 127.025 364.583 126.923C364.674 125.147 365.06 117.214 365.06 111.024C365.06 104.803 364.67 97.1313 364.583 95.4829C364.685 95.3727 364.769 95.2534 364.844 95.1267C365.162 95.09 365.736 95.0313 366.415 94.9872C368.205 94.789 371.386 94.4898 374.283 94.4898C383.51 94.4898 388.913 99.3304 388.913 106.13ZM276.766 121.816C276.687 119.319 276.603 116.248 276.572 113.302C280.699 113.379 283.42 113.548 284.302 113.61C284.384 113.515 284.477 113.425 284.582 113.346C284.481 112.505 284.192 109.928 284.161 108.092C284.017 108.019 283.883 107.932 283.771 107.831C282.809 107.925 280.121 108.169 276.568 108.296C276.586 105.498 276.621 102.618 276.66 100.256C284.215 100.259 287.758 100.415 288.73 100.48C288.815 100.358 288.924 100.25 289.046 100.153C288.937 99.2423 288.664 96.7605 288.633 94.978C288.495 94.8936 288.375 94.7945 288.27 94.6843C287.006 94.7596 282.13 95.0019 276.603 95.0074C276.305 95.0037 275.566 94.9946 274.228 94.9946C272.913 94.9946 271.199 94.8716 270.26 94.8018C270.105 94.945 269.921 95.0662 269.707 95.1506C269.8 96.9789 270.182 104.867 270.182 111.024C270.182 117.155 269.804 124.995 269.709 126.873C269.864 126.983 269.996 127.115 270.107 127.266C270.689 127.229 271.621 127.165 272.861 127.102C274.996 126.99 276.956 127.036 276.956 127.036C284.902 127.036 288.427 127.187 289.327 127.247C289.405 127.154 289.49 127.068 289.587 126.99C289.694 124.547 290.163 121.397 290.163 121.397C290.046 121.3 289.948 121.186 289.862 121.069C288.631 121.14 282.458 121.792 276.766 121.816ZM217.754 141.087C216.768 141.151 216.146 141.301 208.385 141.301C207.764 141.344 203.833 141.358 202.458 141.358C201.074 141.358 199.602 141.268 198.983 141.226C198.902 141.347 198.809 141.461 198.702 141.564C198.702 141.564 199.179 149.545 199.179 157.472C199.179 165.334 198.702 173.354 198.702 173.354C198.834 173.462 198.948 173.578 199.041 173.71C199.691 173.666 201.12 173.582 202.458 173.582C203.849 173.582 205.581 173.674 206.308 173.714C206.391 173.574 206.494 173.446 206.618 173.328C206.618 173.328 205.744 167.511 205.744 157.472C205.744 153.156 205.798 149.362 205.856 146.557C211.292 146.57 216.049 146.805 217.3 146.88C217.401 146.77 217.523 146.673 217.66 146.588C217.691 144.802 217.965 142.324 218.072 141.413C217.949 141.316 217.845 141.206 217.754 141.087ZM350.907 168.758C352.757 168.758 354.968 168.732 357.208 168.695C356.075 165.418 354.508 161.053 352.963 157.27C352.202 155.421 351.493 153.692 350.841 152.121C347.655 158.43 344.725 164.565 342.791 168.662C345.626 168.717 348.559 168.758 350.907 168.758ZM369.565 168.798C369.96 171.072 370.513 173.066 370.75 173.87C370.631 173.986 370.527 174.109 370.443 174.243C368.458 174.197 359.702 174 350.907 174C342.112 174 333.356 174.197 331.371 174.243C331.287 174.109 331.184 173.986 331.066 173.87C331.301 173.066 331.855 171.072 332.251 168.798C332.445 168.695 332.608 168.569 332.747 168.422C333.354 168.44 334.576 168.475 336.151 168.513C341.831 158.213 346.567 147.904 347.882 144.989C347.525 144.13 347.259 143.493 347.102 143.119C347.232 142.952 347.331 142.763 347.401 142.564C350.133 141.863 352.447 140.956 353.374 140.598C353.564 140.679 353.777 140.734 354.019 140.76C354.638 142.522 356.711 147.948 359.223 154.298C360.933 158.626 363.541 164.391 365.494 168.519C367.15 168.479 368.438 168.44 369.066 168.422C369.208 168.569 369.373 168.695 369.565 168.798ZM502.301 95.1139C502.189 95.0148 502.09 94.9046 502.006 94.7816C501.382 94.8257 499.918 94.912 498.543 94.912C497.158 94.912 495.682 94.8239 495.066 94.7798C494.986 94.9046 494.893 95.0148 494.783 95.1157C494.783 95.1157 495.159 101.399 495.244 108.345C493.369 108.41 491.067 108.461 488.55 108.461C486.036 108.461 483.744 108.41 481.873 108.345C481.95 100.626 482.336 95.1139 482.336 95.1139C482.222 95.0148 482.125 94.9046 482.042 94.7816C481.417 94.8257 479.951 94.912 478.576 94.912C477.191 94.912 475.716 94.8239 475.099 94.7798C475.019 94.9046 474.926 95.0148 474.822 95.1157C474.822 95.1157 475.295 103.099 475.295 111.024C475.295 118.886 474.822 126.91 474.822 126.91C474.95 127.016 475.064 127.132 475.159 127.266C475.809 127.22 477.236 127.135 478.576 127.135C479.966 127.135 481.694 127.227 482.422 127.268C482.507 127.128 482.612 126.998 482.738 126.884C482.738 126.884 482.016 122.113 481.881 113.759C483.575 113.728 485.759 113.707 488.55 113.707C491.354 113.707 493.543 113.728 495.242 113.759C495.157 120.643 494.785 126.91 494.785 126.91C494.916 127.016 495.029 127.132 495.126 127.266C495.774 127.22 497.205 127.135 498.543 127.135C499.933 127.135 501.661 127.227 502.388 127.268C502.474 127.128 502.578 126.998 502.699 126.884C502.699 126.884 501.824 121.069 501.824 111.024C501.824 101.932 502.301 95.1139 502.301 95.1139ZM566.72 89.9887C567.399 89.9263 569.52 89.6674 573.292 89.6656C577.066 89.6674 579.184 89.9263 579.865 89.9887C579.962 89.8547 580.095 89.7225 580.095 89.7225C580.095 89.7225 580.493 86.846 581.209 84.4578C581.209 84.4578 581.061 84.2999 580.986 84.1916C580.431 84.2485 578.468 84.4211 573.292 84.4229C568.114 84.4211 566.156 84.2485 565.599 84.1916C565.522 84.2999 565.376 84.4578 565.376 84.4578C566.09 86.846 566.487 89.7225 566.487 89.7225C566.487 89.7225 566.619 89.8547 566.72 89.9887ZM341.631 100.111C341.645 102.37 341.656 105.302 341.656 108.47C341.656 114.792 341.253 125.006 341.176 126.959C341.327 127.042 341.453 127.146 341.569 127.262C342.232 127.216 343.627 127.135 344.94 127.135C346.315 127.135 347.781 127.225 348.405 127.266C348.485 127.13 348.586 127.001 348.7 126.888C348.615 124.78 348.221 114.723 348.221 108.47C348.221 105.302 348.25 102.37 348.283 100.111C354.295 100.145 356.835 100.278 357.609 100.331C357.681 100.232 357.762 100.144 357.853 100.061C357.747 99.2111 357.44 96.6302 357.413 94.7963C357.326 94.71 357.246 94.6183 357.177 94.5228C356.073 94.587 351.11 94.8532 344.94 94.8532C338.978 94.8532 334.142 94.6054 332.827 94.5301C332.724 94.644 332.606 94.7523 332.466 94.8385C332.433 96.6614 332.133 99.1909 332.028 100.048C332.135 100.131 332.232 100.224 332.317 100.327C333.149 100.272 335.714 100.144 341.631 100.111ZM465.222 95.1139C465.112 95.0148 465.013 94.9046 464.929 94.7816C464.305 94.8257 462.841 94.912 461.466 94.912C460.081 94.912 458.605 94.8239 457.989 94.7798C457.909 94.9046 457.814 95.0148 457.706 95.1157C457.706 95.1157 458.082 101.399 458.169 108.345C456.292 108.41 453.99 108.461 451.471 108.461C448.961 108.461 446.667 108.41 444.794 108.345C444.871 100.626 445.257 95.1139 445.257 95.1139C445.145 95.0148 445.048 94.9046 444.964 94.7816C444.34 94.8257 442.874 94.912 441.499 94.912C440.114 94.912 438.638 94.8239 438.022 94.7798C437.942 94.9046 437.849 95.0148 437.739 95.1157C437.739 95.1157 438.218 103.099 438.218 111.024C438.218 118.886 437.741 126.91 437.741 126.91C437.872 127.016 437.987 127.132 438.082 127.266C438.732 127.22 440.157 127.135 441.499 127.135C442.889 127.135 444.617 127.227 445.344 127.268C445.43 127.128 445.535 126.998 445.657 126.884C445.657 126.884 444.937 122.113 444.803 113.759C446.498 113.728 448.682 113.707 451.471 113.707C454.275 113.707 456.466 113.728 458.165 113.759C458.08 120.643 457.707 126.91 457.707 126.91C457.839 127.016 457.952 127.132 458.047 127.266C458.696 127.22 460.124 127.135 461.466 127.135C462.858 127.135 464.582 127.227 465.309 127.268C465.395 127.128 465.501 126.998 465.622 126.884C465.622 126.884 464.747 121.069 464.747 111.024C464.747 101.932 465.222 95.1139 465.222 95.1139ZM328.246 126.811C328.141 126.972 328.06 127.148 328.004 127.334C326.586 127.266 322.83 127.152 319.062 127.35C318.924 127.253 318.763 127.17 318.587 127.11C317.976 125.7 315.237 118.493 310.961 112.509C309.08 113.939 307.899 114.579 307.397 114.824C307.319 114.8 306.416 115.297 305.64 115.718C305.845 122.904 306.456 126.959 306.456 126.959C306.334 127.075 306.227 127.207 306.142 127.348C305.407 127.306 303.666 127.216 302.264 127.216C300.914 127.216 299.477 127.301 298.819 127.345C298.724 127.213 298.608 127.093 298.476 126.987C298.476 126.987 298.955 118.899 298.955 110.974C298.955 102.983 298.476 94.9358 298.476 94.9358C298.589 94.8367 298.678 94.721 298.759 94.5999C299.382 94.6403 300.867 94.7302 302.264 94.7302C303.65 94.7302 305.128 94.6421 305.758 94.5999C305.842 94.721 305.942 94.8349 306.053 94.934C306.053 94.934 305.619 101.179 305.576 109.702C306.772 108.982 308.506 107.721 310.306 105.675C314.9 100.432 316.533 96.0941 316.923 94.9028C317.091 94.8275 317.243 94.7284 317.373 94.6146C320.623 94.9689 323.828 94.7137 325.015 94.6127C325.073 94.7357 325.143 94.8514 325.225 94.9597C324.389 96.5953 321.214 103.147 315.408 108.722C317.148 111.317 322.213 118.781 328.246 126.811Z" fill="white"/>
<path fill-rule="evenodd" clip-rule="evenodd" d="M166.661 159.79C166.661 150.298 142.784 142.605 113.332 142.605C83.8784 142.605 60 150.298 60 159.79C60 187.811 83.8764 210.526 113.33 210.526C142.78 210.526 166.655 187.816 166.661 159.799V159.79Z" fill="#FE403C"/>
<path fill-rule="evenodd" clip-rule="evenodd" d="M160.843 160.961C160.843 168.058 139.572 173.812 113.328 173.812C87.0865 173.812 65.8176 168.058 65.8176 160.961C65.8176 153.864 87.0865 148.113 113.328 148.113C139.572 148.113 160.843 153.864 160.843 160.961Z" fill="#BBFF00"/>
<path fill-rule="evenodd" clip-rule="evenodd" d="M166.661 110.724C166.655 82.7079 142.78 60 113.33 60C83.8764 60 60 82.7116 60 110.735C60 120.227 83.8784 127.92 113.332 127.92C142.784 127.92 166.661 120.227 166.661 110.735V110.724Z" fill="#FE403C"/>
<rect x="657" y="538" width="131" height="74" rx="16" fill="#1F3653"/>
<path d="M700.422 583.045V587H682.914V583.625L691.193 574.748C692.025 573.822 692.682 573.008 693.162 572.305C693.643 571.59 693.988 570.951 694.199 570.389C694.422 569.814 694.533 569.27 694.533 568.754C694.533 567.98 694.404 567.318 694.146 566.768C693.889 566.205 693.508 565.771 693.004 565.467C692.512 565.162 691.902 565.01 691.176 565.01C690.402 565.01 689.734 565.197 689.172 565.572C688.621 565.947 688.199 566.469 687.906 567.137C687.625 567.805 687.484 568.561 687.484 569.404H682.404C682.404 567.881 682.768 566.486 683.494 565.221C684.221 563.943 685.246 562.93 686.57 562.18C687.895 561.418 689.465 561.037 691.281 561.037C693.074 561.037 694.586 561.33 695.816 561.916C697.059 562.49 697.996 563.322 698.629 564.412C699.273 565.49 699.596 566.779 699.596 568.279C699.596 569.123 699.461 569.949 699.191 570.758C698.922 571.555 698.535 572.352 698.031 573.148C697.539 573.934 696.941 574.73 696.238 575.539C695.535 576.348 694.756 577.186 693.9 578.053L689.453 583.045H700.422ZM720.812 571.953V576.383C720.812 578.305 720.607 579.963 720.197 581.357C719.787 582.74 719.195 583.877 718.422 584.768C717.66 585.646 716.752 586.297 715.697 586.719C714.643 587.141 713.471 587.352 712.182 587.352C711.15 587.352 710.189 587.223 709.299 586.965C708.408 586.695 707.605 586.279 706.891 585.717C706.188 585.154 705.578 584.445 705.062 583.59C704.559 582.723 704.172 581.691 703.902 580.496C703.633 579.301 703.498 577.93 703.498 576.383V571.953C703.498 570.031 703.703 568.385 704.113 567.014C704.535 565.631 705.127 564.5 705.889 563.621C706.662 562.742 707.576 562.098 708.631 561.688C709.686 561.266 710.857 561.055 712.146 561.055C713.178 561.055 714.133 561.189 715.012 561.459C715.902 561.717 716.705 562.121 717.42 562.672C718.135 563.223 718.744 563.932 719.248 564.799C719.752 565.654 720.139 566.68 720.408 567.875C720.678 569.059 720.812 570.418 720.812 571.953ZM715.732 577.051V571.268C715.732 570.342 715.68 569.533 715.574 568.842C715.48 568.15 715.334 567.564 715.135 567.084C714.936 566.592 714.689 566.193 714.396 565.889C714.104 565.584 713.77 565.361 713.395 565.221C713.02 565.08 712.604 565.01 712.146 565.01C711.572 565.01 711.062 565.121 710.617 565.344C710.184 565.566 709.814 565.924 709.51 566.416C709.205 566.896 708.971 567.541 708.807 568.35C708.654 569.146 708.578 570.119 708.578 571.268V577.051C708.578 577.977 708.625 578.791 708.719 579.494C708.824 580.197 708.977 580.801 709.176 581.305C709.387 581.797 709.633 582.201 709.914 582.518C710.207 582.822 710.541 583.045 710.916 583.186C711.303 583.326 711.725 583.396 712.182 583.396C712.744 583.396 713.242 583.285 713.676 583.062C714.121 582.828 714.496 582.465 714.801 581.973C715.117 581.469 715.352 580.812 715.504 580.004C715.656 579.195 715.732 578.211 715.732 577.051ZM741.766 583.045V587H724.258V583.625L732.537 574.748C733.369 573.822 734.025 573.008 734.506 572.305C734.986 571.59 735.332 570.951 735.543 570.389C735.766 569.814 735.877 569.27 735.877 568.754C735.877 567.98 735.748 567.318 735.49 566.768C735.232 566.205 734.852 565.771 734.348 565.467C733.855 565.162 733.246 565.01 732.52 565.01C731.746 565.01 731.078 565.197 730.516 565.572C729.965 565.947 729.543 566.469 729.25 567.137C728.969 567.805 728.828 568.561 728.828 569.404H723.748C723.748 567.881 724.111 566.486 724.838 565.221C725.564 563.943 726.59 562.93 727.914 562.18C729.238 561.418 730.809 561.037 732.625 561.037C734.418 561.037 735.93 561.33 737.16 561.916C738.402 562.49 739.34 563.322 739.973 564.412C740.617 565.49 740.939 566.779 740.939 568.279C740.939 569.123 740.805 569.949 740.535 570.758C740.266 571.555 739.879 572.352 739.375 573.148C738.883 573.934 738.285 574.73 737.582 575.539C736.879 576.348 736.1 577.186 735.244 578.053L730.797 583.045H741.766ZM750.115 572.006H752.822C753.689 572.006 754.404 571.859 754.967 571.566C755.529 571.262 755.945 570.84 756.215 570.301C756.496 569.75 756.637 569.111 756.637 568.385C756.637 567.729 756.508 567.148 756.25 566.645C756.004 566.129 755.623 565.73 755.107 565.449C754.592 565.156 753.941 565.01 753.156 565.01C752.535 565.01 751.961 565.133 751.434 565.379C750.906 565.625 750.484 565.971 750.168 566.416C749.852 566.861 749.693 567.4 749.693 568.033H744.613C744.613 566.627 744.988 565.402 745.738 564.359C746.5 563.316 747.52 562.502 748.797 561.916C750.074 561.33 751.48 561.037 753.016 561.037C754.75 561.037 756.268 561.318 757.568 561.881C758.869 562.432 759.883 563.246 760.609 564.324C761.336 565.402 761.699 566.738 761.699 568.332C761.699 569.141 761.512 569.926 761.137 570.688C760.762 571.438 760.223 572.117 759.52 572.727C758.828 573.324 757.984 573.805 756.988 574.168C755.992 574.52 754.873 574.695 753.631 574.695H750.115V572.006ZM750.115 575.855V573.236H753.631C755.025 573.236 756.25 573.395 757.305 573.711C758.359 574.027 759.244 574.484 759.959 575.082C760.674 575.668 761.213 576.365 761.576 577.174C761.939 577.971 762.121 578.855 762.121 579.828C762.121 581.023 761.893 582.09 761.436 583.027C760.979 583.953 760.334 584.738 759.502 585.383C758.682 586.027 757.721 586.52 756.619 586.859C755.518 587.188 754.316 587.352 753.016 587.352C751.938 587.352 750.877 587.205 749.834 586.912C748.803 586.607 747.865 586.156 747.021 585.559C746.189 584.949 745.521 584.188 745.018 583.273C744.525 582.348 744.279 581.252 744.279 579.986H749.359C749.359 580.643 749.523 581.229 749.852 581.744C750.18 582.26 750.631 582.664 751.205 582.957C751.791 583.25 752.441 583.396 753.156 583.396C753.965 583.396 754.656 583.25 755.23 582.957C755.816 582.652 756.262 582.23 756.566 581.691C756.883 581.141 757.041 580.502 757.041 579.775C757.041 578.838 756.871 578.088 756.531 577.525C756.191 576.951 755.705 576.529 755.072 576.26C754.439 575.99 753.689 575.855 752.822 575.855H750.115Z" fill="white"/>
<rect x="200.5" y="230.5" width="406.746" height="863" rx="36.5" fill="#143B58" stroke="#143B58" stroke-width="25"/>
<path fill-rule="evenodd" clip-rule="evenodd" d="M237 243C223.745 243 213 253.745 213 267V1057C213 1070.25 223.745 1081 237 1081H570.746C584.001 1081 594.746 1070.25 594.746 1057V267C594.746 253.745 584.001 243 570.746 243H472.52V254.72C472.52 265.817 463.525 274.812 452.428 274.812H355.318C344.221 274.812 335.226 265.817 335.226 254.72V243H237Z" fill="#001E35"/>
<rect x="243" y="275" width="41" height="52" rx="20.5" fill="#FE403C"/>
<rect x="299" y="290" width="82" height="11" rx="5.5" fill="white"/>
<rect x="358" y="533" width="92" height="8" rx="4" fill="white"/>
<path opacity="0.1" d="M239 606C239 601.582 242.582 598 247 598H560C564.418 598 568 601.582 568 606V632H239V606Z" fill="white"/>
<rect x="385" y="552" width="8" height="8" rx="4" fill="white"/>
<rect opacity="0.2" x="400" y="552" width="8" height="8" rx="4" fill="white"/>
<rect opacity="0.2" x="415" y="552" width="8" height="8" rx="4" fill="white"/>
<rect x="548" y="290" width="24" height="24" rx="12" fill="white"/>
<rect x="515" y="290" width="24" height="24" rx="12" fill="white"/>
<rect x="299" y="307" width="56" height="11" rx="5.5" fill="white"/>
<circle cx="248.5" cy="444.5" r="127.5" fill="#14507E"/>
<rect x="185" y="382" width="18" height="18" fill="white"/>
<rect x="203" y="382" width="18" height="18" fill="white"/>
<rect x="221" y="382" width="18" height="18" fill="white"/>
<rect x="239" y="382" width="18" height="18" fill="white"/>
<rect x="257" y="400" width="18" height="18" fill="white"/>
<rect x="275" y="418" width="18" height="18" fill="white"/>
<rect x="293" y="436" width="18" height="18" fill="white"/>
<rect x="293" y="454" width="18" height="18" fill="white"/>
<rect x="293" y="472" width="18" height="18" fill="white"/>
<rect x="293" y="490" width="18" height="18" fill="white"/>
<rect x="257" y="490" width="18" height="18" fill="white"/>
<rect x="257" y="472" width="18" height="18" fill="white"/>
<rect x="257" y="454" width="18" height="18" fill="white"/>
<rect x="239" y="436" width="18" height="18" fill="white"/>
<rect x="221" y="418" width="18" height="18" fill="white"/>
<rect x="203" y="418" width="18" height="18" fill="white"/>
<rect x="185" y="418" width="18" height="18" fill="white"/>
<rect x="185" y="454" width="18" height="18" fill="white"/>
<rect x="203" y="454" width="18" height="18" fill="white"/>
<rect x="221" y="472" width="18" height="18" fill="white"/>
<rect x="221" y="490" width="18" height="18" fill="white"/>
<rect x="185" y="490" width="18" height="18" fill="white"/>
<circle cx="560.5" cy="444.5" r="127.5" fill="#FE403C"/>
<rect x="479" y="382" width="18" height="18" fill="white"/>
<rect x="479" y="400" width="18" height="18" fill="white"/>
<rect x="479" y="418" width="18" height="18" fill="white"/>
<rect x="479" y="436" width="18" height="18" fill="white"/>
<rect x="479" y="454" width="18" height="18" fill="white"/>
<rect x="497" y="454" width="18" height="18" fill="white"/>
<rect x="515" y="454" width="18" height="18" fill="white"/>
<rect x="533" y="454" width="18" height="18" fill="white"/>
<rect x="551" y="454" width="18" height="18" fill="white"/>
<rect x="569" y="454" width="18" height="18" fill="white"/>
<rect x="569" y="472" width="18" height="18" fill="white"/>
<rect x="551" y="490" width="18" height="18" fill="white"/>
<rect x="551" y="508" width="18" height="18" fill="white"/>
<rect x="533" y="490" width="18" height="18" fill="white"/>
<rect x="533" y="508" width="18" height="18" fill="white"/>
<rect x="533" y="472" width="18" height="18" fill="white"/>
<rect x="497" y="382" width="18" height="18" fill="white"/>
<rect x="515" y="382" width="18" height="18" fill="white"/>
<rect x="515" y="418" width="18" height="18" fill="white"/>
<rect x="533" y="418" width="18" height="18" fill="white"/>
<rect x="533" y="382" width="18" height="18" fill="white"/>
<rect x="551" y="382" width="18" height="18" fill="white"/>
<rect x="569" y="382" width="18" height="18" fill="white"/>
<rect x="587" y="400" width="18" height="18" fill="white"/>
<rect x="587" y="418" width="18" height="18" fill="white"/>
<rect x="587" y="436" width="18" height="18" fill="white"/>
<rect x="605" y="436" width="18" height="18" fill="white"/>
<rect x="605" y="418" width="18" height="18" fill="white"/>
<rect x="623" y="400" width="18" height="18" fill="white"/>
<rect x="623" y="418" width="18" height="18" fill="white"/>
<rect x="623" y="436" width="18" height="18" fill="white"/>
<rect x="623" y="454" width="18" height="18" fill="white"/>
<rect x="358" y="399" width="92" height="92" rx="46" fill="#BBFF00"/>
<rect x="349.056" y="390.056" width="109.889" height="109.889" rx="54.9444" stroke="white" stroke-opacity="0.1" stroke-width="17.8889"/>
<path d="M404.639 434.778V456.5" stroke="#001626" stroke-width="5" stroke-linecap="round"/>
<path d="M393.778 445.639L415.5 445.639" stroke="#001626" stroke-width="5" stroke-linecap="round"/>
</g>
<defs>
<clipPath id="clip0_129_370763">
<rect width="808" height="632" fill="white"/>
</clipPath>
</defs>
</svg>
