<svg width="609" height="448" viewBox="0 0 609 448" fill="none" xmlns="http://www.w3.org/2000/svg">
<g clip-path="url(#clip0_30215_29438)">
<rect x="0.799805" width="608" height="448" rx="6.4" fill="#E3000B"/>
<mask id="mask0_30215_29438" style="mask-type:alpha" maskUnits="userSpaceOnUse" x="26" y="25" width="78" height="75">
<path d="M54.9061 98.8193C49.5752 99.2001 51.3159 99.0913 49.5752 99.2001C49.5752 99.2001 26.1298 88.9733 26.4018 66.9423C26.4018 49.8614 34.5614 45.1832 34.5614 45.1832C38.3917 46.8686 41.8774 49.2477 44.8426 52.2005C47.3042 54.9746 49.3226 58.1122 50.8263 61.5025C52.9152 52.9948 57.6595 45.3735 64.3713 39.7435C73.7831 30.7824 86.2453 25.7275 99.2402 25.6001C101.791 32.1934 103.1 39.2016 103.102 46.2712C103.483 74.1228 86.7831 94.1955 60.3459 98.1121L54.9061 98.8193Z" fill="white"/>
</mask>
<g mask="url(#mask0_30215_29438)">
<path d="M44.0268 42.4633L19.5479 48.7316L35.5842 107.074L52.1864 99.5808C52.1864 99.5808 54.9063 89.3037 54.9063 80.5416C54.9063 66.9422 44.0268 42.4633 44.0268 42.4633Z" fill="url(#paint0_linear_30215_29438)"/>
<path d="M117.987 92.8835L101.144 23.4242L76.6651 28.8639L57.6261 39.7435C57.6261 39.7435 48.9215 57.9239 48.922 80.5418C48.9226 103.16 52.6861 108.717 52.6861 108.717L117.987 92.8835Z" fill="url(#paint1_linear_30215_29438)"/>
</g>
<path d="M300.457 40.6684C300.457 39.5804 300.076 39.4172 299.695 39.4172H265.697C260.257 39.4172 256.286 40.07 256.123 40.886L246.331 95.5556C246.331 95.882 246.603 96.0996 247.038 96.2084C249.954 97.0341 252.991 97.347 256.014 97.1331H289.196C289.368 97.099 289.53 97.0278 289.671 96.9244C289.812 96.821 289.928 96.688 290.012 96.5348C290.988 94.6075 291.632 92.5293 291.916 90.3878C292.369 88.4274 292.497 86.4061 292.297 84.4041C292.297 83.2617 291.916 83.0985 291.59 83.0985H267.709L269.341 74.1229H288.87C289.196 74.1229 289.414 73.8509 289.686 73.5246C290.635 71.7064 291.261 69.7368 291.535 67.704C291.939 65.9207 292.067 64.0863 291.916 62.2642C291.916 61.1763 291.535 61.0131 291.209 61.0131H271.735L273.149 53.0166H297.465C297.465 53.0166 298.009 52.7447 298.226 52.4183C299.183 50.6031 299.81 48.6322 300.076 46.5977C300.494 44.6508 300.622 42.6528 300.457 40.6684Z" fill="white"/>
<path d="M218.372 95.4466C218.439 95.6281 218.548 95.7913 218.69 95.9234C218.832 96.0556 219.002 96.1531 219.188 96.2082C222.557 96.9817 226.016 97.2928 229.469 97.133C233.229 97.3441 237 97.0329 240.675 96.2082C241.219 96.2082 241.599 95.8274 241.382 95.3378L227.184 64.3312L248.671 41.321C249.052 40.8858 248.943 40.6682 248.671 40.505C245.477 39.5749 242.145 39.2068 238.825 39.4171C235.714 39.2631 232.597 39.5748 229.578 40.3418C229.223 40.4573 228.917 40.6868 228.707 40.9946L209.505 61.5025L213.149 41.1034C213.149 40.6682 212.66 40.4506 212.225 40.3418C209.213 39.6435 206.121 39.3508 203.032 39.4715C200.285 39.4076 197.543 39.7002 194.872 40.3418C194.437 40.3418 194.056 40.6682 194.002 41.1034L184.21 95.501C184.21 95.9362 184.21 96.0994 184.645 96.2082C187.505 97.0396 190.483 97.3889 193.458 97.2417C196.551 97.3985 199.65 97.0867 202.651 96.317C202.977 96.317 203.195 96.317 203.249 95.7186L207.873 69.9885L218.372 95.4466Z" fill="white"/>
<path d="M365.353 40.2332C362.343 39.5272 359.248 39.2524 356.16 39.4173C353.395 39.3269 350.631 39.6198 347.946 40.2876C347.701 40.3598 347.477 40.4905 347.293 40.6684L323.739 69.8255L324.283 67.5952L329.07 40.9948C329.07 40.5596 328.581 40.342 328.145 40.2332C325.062 39.518 321.897 39.2252 318.735 39.3629C315.971 39.2961 313.209 39.5887 310.521 40.2332C310.14 40.2332 309.759 40.5596 309.65 40.9948L299.913 95.3924C299.913 95.8276 299.913 95.9364 300.348 96.0996C303.195 96.9043 306.151 97.2532 309.106 97.1332C312.221 97.3017 315.343 96.9712 318.354 96.154L318.843 95.8276L342.561 66.9425L342.071 69.1184L337.339 95.338C337.339 95.7732 337.339 95.882 337.774 96.0452C340.634 96.8766 343.612 97.2259 346.586 97.0788C349.701 97.2418 352.822 96.9113 355.834 96.0996C355.97 96.0641 356.096 95.9961 356.2 95.9013C356.304 95.8066 356.384 95.688 356.432 95.5556L366.278 41.158C366.333 40.5596 365.789 40.3964 365.353 40.2332Z" fill="white"/>
<path d="M343.486 25.6001C341.743 25.5995 340.007 25.8188 338.319 26.2529C337.829 26.2529 337.285 26.6881 337.231 27.0688L333.586 44.1497C333.586 44.1497 333.586 44.1497 333.586 44.4761C334.362 44.8574 335.226 45.0263 336.088 44.9657C336.899 45.0996 337.726 45.0996 338.536 44.9657C338.848 44.8847 339.12 44.6909 339.298 44.4217L349.361 28.1024C349.421 28.0465 349.468 27.979 349.5 27.9042C349.532 27.8293 349.549 27.7487 349.549 27.6672C349.549 27.5857 349.532 27.5051 349.5 27.4302C349.468 27.3554 349.421 27.288 349.361 27.232C347.573 26.199 345.551 25.6374 343.486 25.6001Z" fill="white"/>
<path d="M189.268 25.6001C187.543 25.5994 185.824 25.8188 184.154 26.2529C183.665 26.2529 183.121 26.6881 183.067 27.0688L179.422 44.1497C179.422 44.1497 179.422 44.1497 179.422 44.4761C180.267 44.9553 181.225 45.1995 182.196 45.1832C183.025 45.3202 183.87 45.3202 184.698 45.1832C185.003 45.0863 185.27 44.896 185.46 44.6393L195.415 28.32C195.522 28.2003 195.581 28.0454 195.581 27.8848C195.581 27.7242 195.522 27.5693 195.415 27.4496C193.552 26.3311 191.439 25.6954 189.268 25.6001Z" fill="white"/>
<path d="M178.879 60.3056C179.11 65.2755 178.32 70.2399 176.557 74.8924C174.794 79.5448 172.096 83.7864 168.629 87.355C165.163 90.9236 161.001 93.7435 156.402 95.6405C151.802 97.5374 146.863 98.4711 141.888 98.384C126.331 98.384 116.593 90.3875 116.158 76.0809C115.862 71.1048 116.604 66.1214 118.337 61.4473C120.07 56.7731 122.755 52.5104 126.224 48.9296C129.692 45.3489 133.867 42.5284 138.483 40.6473C143.1 38.7662 148.057 37.8656 153.04 38.0026C170.61 37.5674 178.443 47.9574 178.879 60.3056ZM135.361 73.9594C135.361 79.3992 137.754 84.1862 144.336 84.1862C153.693 84.1862 159.731 73.5786 159.404 62.4271C159.404 56.661 156.63 51.9828 150.102 51.9828C139.223 51.6564 135.197 65.147 135.524 73.9594H135.361Z" fill="white"/>
<path d="M272.316 281.515C203.374 355.218 235.367 459.696 333.757 482.159C402.699 408.456 370.706 303.977 272.316 281.515Z" fill="black" fill-opacity="0.1"/>
<path d="M209.812 164.777C97.9519 284.361 149.862 453.88 309.502 490.326C421.362 370.742 369.452 201.222 209.812 164.777Z" fill="black" fill-opacity="0.1"/>
<path d="M699.067 203.36C688.175 407.391 490.771 507.237 319.967 395.107C330.858 191.077 528.263 91.2302 699.067 203.36Z" fill="black" fill-opacity="0.1"/>
<path d="M760.357 283.064C773.892 443.848 630.261 543.293 484.526 474.04C470.991 313.256 614.622 213.811 760.357 283.064Z" fill="black" fill-opacity="0.1"/>
<g filter="url(#filter0_d_30215_29438)">
<path d="M298.135 161.226C298.135 153.195 304.645 146.684 312.677 146.684H525.959C533.99 146.684 540.501 153.195 540.501 161.226V448.43H298.135V161.226Z" fill="#2F2F2F"/>
</g>
<path d="M298.135 179.404H540.501V448.43H298.135V179.404Z" fill="black"/>
<rect x="412.647" y="161.226" width="4.84732" height="41.2022" rx="2.42366" transform="rotate(90 412.647 161.226)" fill="#848484"/>
<rect x="425.978" y="161.226" width="4.84732" height="4.84732" rx="2.42366" transform="rotate(90 425.978 161.226)" fill="#848484"/>
<path d="M557.466 203.64H355.09C339.028 203.64 326.006 216.661 326.006 232.724V448.43H533.229V242.856C533.229 226.249 542.612 211.067 557.466 203.64Z" fill="#323232"/>
<g filter="url(#filter1_d_30215_29438)">
<path d="M355.091 203.64H557.466C573.529 203.64 586.55 216.661 586.55 232.724V419.346C586.55 427.377 580.04 433.888 572.008 433.888H393.869C385.838 433.888 379.327 427.377 379.327 419.346V242.856C379.327 226.249 369.945 211.067 355.091 203.64Z" fill="white"/>
</g>
<path fill-rule="evenodd" clip-rule="evenodd" d="M482.062 236.359H489.602H497.143C497.143 239.488 498.358 242.494 500.532 244.744L500.677 244.894C504.456 248.805 506.568 254.03 506.568 259.468V330.882C506.568 333.559 504.398 335.73 501.721 335.73H489.602H477.484C474.807 335.73 472.637 333.559 472.637 330.882V259.468C472.637 254.03 474.749 248.805 478.528 244.894L478.673 244.744C480.847 242.494 482.062 239.488 482.062 236.359Z" fill="#83CFC9"/>
<path fill-rule="evenodd" clip-rule="evenodd" d="M489.602 236.359H482.062C482.062 239.488 480.847 242.494 478.673 244.744L478.528 244.894C474.749 248.805 472.637 254.03 472.637 259.468V260.171C477.003 259.895 481.948 260.43 487.179 262.414C494.57 265.217 501.279 265.464 506.568 264.685V259.468C506.568 254.03 504.456 248.805 500.677 244.894L500.532 244.744C498.358 242.494 497.143 239.488 497.143 236.359H489.602Z" fill="#B8F7F2"/>
<path d="M481.12 230.3C481.12 228.962 482.205 227.877 483.544 227.877H495.662C497.001 227.877 498.086 228.962 498.086 230.3V236.36H481.12V230.3Z" fill="#39B4AA"/>
<path d="M439.366 258.56C440.43 250.703 447.138 244.842 455.066 244.842C462.995 244.842 469.703 250.703 470.766 258.56L474.538 286.42C474.886 288.986 474.886 291.586 474.538 294.151L470.766 322.012C469.703 329.869 462.995 335.73 455.066 335.73C447.138 335.73 440.43 329.869 439.366 322.012L435.595 294.151C435.247 291.586 435.247 288.986 435.595 286.42L439.366 258.56Z" fill="#F9C664"/>
<ellipse cx="455.067" cy="259.384" rx="7.8769" ry="3.63549" fill="#D9A43F"/>
<ellipse cx="455.067" cy="270.291" rx="11.5124" ry="3.63549" fill="#D9A43F"/>
<ellipse cx="455.067" cy="281.197" rx="11.5124" ry="3.63549" fill="#D9A43F"/>
<ellipse cx="455.067" cy="292.103" rx="11.5124" ry="3.63549" fill="#D9A43F"/>
<ellipse cx="455.067" cy="303.01" rx="11.5124" ry="3.63549" fill="#D9A43F"/>
<ellipse cx="455.067" cy="313.916" rx="11.5124" ry="3.63549" fill="#D9A43F"/>
<circle cx="537.472" cy="316.946" r="22.4189" fill="#A8D56C"/>
<path fill-rule="evenodd" clip-rule="evenodd" d="M546.392 337.52C543.658 338.707 540.641 339.365 537.471 339.365C525.089 339.365 515.052 329.328 515.052 316.946C515.052 314.695 515.384 312.521 516.001 310.471C536.438 312.638 543.793 328.095 546.392 337.52Z" fill="#71A230"/>
<path d="M542.924 338.759C542.924 338.759 514.446 308.463 552.013 288.468C552.013 304.828 559.889 302.404 559.889 318.764C559.889 329.064 552.013 336.335 542.924 338.759Z" fill="#C5FB7D"/>
<rect x="407.199" y="282.409" width="129.666" height="8.48281" rx="4.24141" fill="#DF010C"/>
<path fill-rule="evenodd" clip-rule="evenodd" d="M413.259 290.892H530.806L521.862 337.848C521.427 340.135 519.428 341.789 517.101 341.789H426.965C424.637 341.789 422.638 340.135 422.203 337.848L413.259 290.892ZM462.944 296.951C462.944 295.612 464.029 294.527 465.368 294.527C466.706 294.527 467.792 295.612 467.792 296.951V309.069C467.792 310.407 466.706 311.493 465.368 311.493C464.029 311.493 462.944 310.407 462.944 309.069V296.951ZM441.131 294.527C439.792 294.527 438.707 295.612 438.707 296.951V309.069C438.707 310.407 439.792 311.493 441.131 311.493C442.469 311.493 443.555 310.407 443.555 309.069V296.951C443.555 295.612 442.469 294.527 441.131 294.527ZM487.181 296.951C487.181 295.612 488.266 294.527 489.604 294.527C490.943 294.527 492.028 295.612 492.028 296.951V309.069C492.028 310.407 490.943 311.493 489.604 311.493C488.266 311.493 487.181 310.407 487.181 309.069V296.951ZM453.249 294.527C451.911 294.527 450.825 295.612 450.825 296.951V309.069C450.825 310.407 451.911 311.493 453.249 311.493C454.588 311.493 455.673 310.407 455.673 309.069V296.951C455.673 295.612 454.588 294.527 453.249 294.527ZM475.062 296.951C475.062 295.612 476.147 294.527 477.486 294.527C478.824 294.527 479.91 295.612 479.91 296.951V309.069C479.91 310.407 478.824 311.493 477.486 311.493C476.147 311.493 475.062 310.407 475.062 309.069V296.951ZM501.722 294.527C500.384 294.527 499.299 295.612 499.299 296.951V309.069C499.299 310.407 500.384 311.493 501.722 311.493C503.061 311.493 504.146 310.407 504.146 309.069V296.951C504.146 295.612 503.061 294.527 501.722 294.527ZM462.944 321.187C462.944 319.849 464.029 318.764 465.368 318.764C466.706 318.764 467.792 319.849 467.792 321.187V333.306C467.792 334.644 466.706 335.729 465.368 335.729C464.029 335.729 462.944 334.644 462.944 333.306V321.187ZM441.131 318.764C439.792 318.764 438.707 319.849 438.707 321.187V333.306C438.707 334.644 439.792 335.729 441.131 335.729C442.469 335.729 443.555 334.644 443.555 333.306V321.187C443.555 319.849 442.469 318.764 441.131 318.764ZM487.181 321.187C487.181 319.849 488.266 318.764 489.604 318.764C490.943 318.764 492.028 319.849 492.028 321.187V333.306C492.028 334.644 490.943 335.729 489.604 335.729C488.266 335.729 487.181 334.644 487.181 333.306V321.187ZM453.249 318.764C451.911 318.764 450.825 319.849 450.825 321.187V333.306C450.825 334.644 451.911 335.729 453.249 335.729C454.588 335.729 455.673 334.644 455.673 333.306V321.187C455.673 319.849 454.588 318.764 453.249 318.764ZM475.062 321.187C475.062 319.849 476.147 318.764 477.486 318.764C478.824 318.764 479.91 319.849 479.91 321.187V333.306C479.91 334.644 478.824 335.729 477.486 335.729C476.147 335.729 475.062 334.644 475.062 333.306V321.187ZM501.722 318.764C500.384 318.764 499.299 319.849 499.299 321.187V333.306C499.299 334.644 500.384 335.729 501.722 335.729C503.061 335.729 504.146 334.644 504.146 333.306V321.187C504.146 319.849 503.061 318.764 501.722 318.764Z" fill="#DF010C"/>
<path fill-rule="evenodd" clip-rule="evenodd" d="M413.259 290.892H530.806L521.862 337.848C521.427 340.135 519.428 341.789 517.101 341.789H426.965C424.637 341.789 422.638 340.135 422.203 337.848L413.259 290.892ZM462.944 296.951C462.944 295.612 464.029 294.527 465.368 294.527C466.706 294.527 467.792 295.612 467.792 296.951V309.069C467.792 310.407 466.706 311.493 465.368 311.493C464.029 311.493 462.944 310.407 462.944 309.069V296.951ZM441.131 294.527C439.792 294.527 438.707 295.612 438.707 296.951V309.069C438.707 310.407 439.792 311.493 441.131 311.493C442.469 311.493 443.555 310.407 443.555 309.069V296.951C443.555 295.612 442.469 294.527 441.131 294.527ZM487.181 296.951C487.181 295.612 488.266 294.527 489.604 294.527C490.943 294.527 492.028 295.612 492.028 296.951V309.069C492.028 310.407 490.943 311.493 489.604 311.493C488.266 311.493 487.181 310.407 487.181 309.069V296.951ZM453.249 294.527C451.911 294.527 450.825 295.612 450.825 296.951V309.069C450.825 310.407 451.911 311.493 453.249 311.493C454.588 311.493 455.673 310.407 455.673 309.069V296.951C455.673 295.612 454.588 294.527 453.249 294.527ZM475.062 296.951C475.062 295.612 476.147 294.527 477.486 294.527C478.824 294.527 479.91 295.612 479.91 296.951V309.069C479.91 310.407 478.824 311.493 477.486 311.493C476.147 311.493 475.062 310.407 475.062 309.069V296.951ZM501.722 294.527C500.384 294.527 499.299 295.612 499.299 296.951V309.069C499.299 310.407 500.384 311.493 501.722 311.493C503.061 311.493 504.146 310.407 504.146 309.069V296.951C504.146 295.612 503.061 294.527 501.722 294.527ZM462.944 321.187C462.944 319.849 464.029 318.764 465.368 318.764C466.706 318.764 467.792 319.849 467.792 321.187V333.306C467.792 334.644 466.706 335.729 465.368 335.729C464.029 335.729 462.944 334.644 462.944 333.306V321.187ZM441.131 318.764C439.792 318.764 438.707 319.849 438.707 321.187V333.306C438.707 334.644 439.792 335.729 441.131 335.729C442.469 335.729 443.555 334.644 443.555 333.306V321.187C443.555 319.849 442.469 318.764 441.131 318.764ZM487.181 321.187C487.181 319.849 488.266 318.764 489.604 318.764C490.943 318.764 492.028 319.849 492.028 321.187V333.306C492.028 334.644 490.943 335.729 489.604 335.729C488.266 335.729 487.181 334.644 487.181 333.306V321.187ZM453.249 318.764C451.911 318.764 450.825 319.849 450.825 321.187V333.306C450.825 334.644 451.911 335.729 453.249 335.729C454.588 335.729 455.673 334.644 455.673 333.306V321.187C455.673 319.849 454.588 318.764 453.249 318.764ZM475.062 321.187C475.062 319.849 476.147 318.764 477.486 318.764C478.824 318.764 479.91 319.849 479.91 321.187V333.306C479.91 334.644 478.824 335.729 477.486 335.729C476.147 335.729 475.062 334.644 475.062 333.306V321.187ZM501.722 318.764C500.384 318.764 499.299 319.849 499.299 321.187V333.306C499.299 334.644 500.384 335.729 501.722 335.729C503.061 335.729 504.146 334.644 504.146 333.306V321.187C504.146 319.849 503.061 318.764 501.722 318.764Z" fill="url(#paint2_linear_30215_29438)" fill-opacity="0.2"/>
<rect x="471.936" y="278.773" width="77.9339" height="6.91953" rx="2.42366" transform="rotate(36.8065 471.936 278.773)" fill="#282828"/>
<circle cx="472.639" cy="283.621" r="1.21183" fill="#757575"/>
<path fill-rule="evenodd" clip-rule="evenodd" d="M450.824 319.976H424.164V323.611H424.165C425.503 323.611 426.588 324.696 426.588 326.035C426.588 327.373 425.503 328.459 424.165 328.459H424.164V329.877C425.576 330.376 426.588 331.723 426.588 333.306C426.588 334.889 425.576 336.235 424.164 336.734V341.892C424.87 342.141 425.376 342.815 425.376 343.606C425.376 344.398 424.87 345.072 424.164 345.321V351.483H450.824C459.525 351.483 466.578 344.43 466.578 335.73C466.578 327.029 459.525 319.976 450.824 319.976Z" fill="#E4B840"/>
<path fill-rule="evenodd" clip-rule="evenodd" d="M450.824 321.188H424.164V323.611H424.165C425.503 323.611 426.588 324.696 426.588 326.035C426.588 327.373 425.503 328.459 424.165 328.459H424.164V329.877C425.576 330.376 426.588 331.723 426.588 333.306C426.588 334.889 425.576 336.235 424.164 336.734V341.892C424.87 342.141 425.376 342.815 425.376 343.606C425.376 344.398 424.87 345.071 424.164 345.321V350.271H450.824C458.856 350.271 465.366 343.761 465.366 335.73C465.366 327.698 458.856 321.188 450.824 321.188Z" fill="#F9E467"/>
<circle cx="433.859" cy="328.459" r="1.21183" fill="#E4B840"/>
<circle cx="453.248" cy="344.212" r="1.21183" fill="#E4B840"/>
<circle cx="444.16" cy="329.064" r="1.81775" fill="#E4B840"/>
<circle cx="451.43" cy="336.335" r="1.81775" fill="#E4B840"/>
<circle cx="444.16" cy="342.395" r="1.81775" fill="#E4B840"/>
<circle cx="436.283" cy="336.941" r="2.42366" fill="#E4B840"/>
<circle cx="458.096" cy="330.882" r="2.42366" fill="#E4B840"/>
<path d="M478.696 387.838C494.09 387.838 506.568 375.359 506.568 359.966C506.568 344.573 494.09 332.094 478.696 332.094C463.303 332.094 450.824 344.573 450.824 359.966C450.824 375.359 463.303 387.838 478.696 387.838Z" fill="#94C11B"/>
<path d="M465.366 361.194L475.222 369.661L494.45 350.271" stroke="white" stroke-width="4.84732"/>
<rect x="453.249" y="398.745" width="52.1087" height="3.63549" rx="1.81775" fill="#DCDCDC"/>
<rect x="439.918" y="407.227" width="77.5571" height="3.63549" rx="1.81775" fill="#DCDCDC"/>
</g>
<defs>
<filter id="filter0_d_30215_29438" x="273.898" y="134.566" width="290.839" height="350.219" filterUnits="userSpaceOnUse" color-interpolation-filters="sRGB">
<feFlood flood-opacity="0" result="BackgroundImageFix"/>
<feColorMatrix in="SourceAlpha" type="matrix" values="0 0 0 0 0 0 0 0 0 0 0 0 0 0 0 0 0 0 127 0" result="hardAlpha"/>
<feOffset dy="12.1183"/>
<feGaussianBlur stdDeviation="12.1183"/>
<feComposite in2="hardAlpha" operator="out"/>
<feColorMatrix type="matrix" values="0 0 0 0 0.803922 0 0 0 0 0.0352941 0 0 0 0 0.0352941 0 0 0 1 0"/>
<feBlend mode="normal" in2="BackgroundImageFix" result="effect1_dropShadow_30215_29438"/>
<feBlend mode="normal" in="SourceGraphic" in2="effect1_dropShadow_30215_29438" result="shape"/>
</filter>
<filter id="filter1_d_30215_29438" x="306.618" y="167.285" width="328.406" height="327.194" filterUnits="userSpaceOnUse" color-interpolation-filters="sRGB">
<feFlood flood-opacity="0" result="BackgroundImageFix"/>
<feColorMatrix in="SourceAlpha" type="matrix" values="0 0 0 0 0 0 0 0 0 0 0 0 0 0 0 0 0 0 127 0" result="hardAlpha"/>
<feOffset dy="12.1183"/>
<feGaussianBlur stdDeviation="24.2366"/>
<feComposite in2="hardAlpha" operator="out"/>
<feColorMatrix type="matrix" values="0 0 0 0 0 0 0 0 0 0 0 0 0 0 0 0 0 0 0.5 0"/>
<feBlend mode="normal" in2="BackgroundImageFix" result="effect1_dropShadow_30215_29438"/>
<feBlend mode="normal" in="SourceGraphic" in2="effect1_dropShadow_30215_29438" result="shape"/>
</filter>
<linearGradient id="paint0_linear_30215_29438" x1="-71410.7" y1="-148619" x2="-71292.9" y2="-148187" gradientUnits="userSpaceOnUse">
<stop stop-color="#00A138"/>
<stop offset="0.33" stop-color="#41AF2B"/>
<stop offset="0.78" stop-color="#93C11A"/>
<stop offset="1" stop-color="#93C11A"/>
</linearGradient>
<linearGradient id="paint1_linear_30215_29438" x1="78.7265" y1="50.7433" x2="87.653" y2="87.5567" gradientUnits="userSpaceOnUse">
<stop stop-color="#00A138"/>
<stop offset="0.33" stop-color="#41AF2B"/>
<stop offset="0.78" stop-color="#93C11A"/>
<stop offset="1" stop-color="#93C11A"/>
</linearGradient>
<linearGradient id="paint2_linear_30215_29438" x1="472.033" y1="290.892" x2="472.033" y2="300.586" gradientUnits="userSpaceOnUse">
<stop/>
<stop offset="1" stop-opacity="0"/>
</linearGradient>
<clipPath id="clip0_30215_29438">
<rect x="0.799805" width="608" height="448" rx="6.4" fill="white"/>
</clipPath>
</defs>
</svg>
