<svg width="608" height="448" viewBox="0 0 608 448" fill="none" xmlns="http://www.w3.org/2000/svg">
<g clip-path="url(#clip0_30215_27849)">
<rect width="608" height="448" rx="6.4" fill="#313741"/>
<path fill-rule="evenodd" clip-rule="evenodd" d="M639.6 -156.074H561.095V-77.7954H466.23L200.4 118.577V328.601L639.6 5.39787V-156.074ZM639.6 336.332V232.446L496.26 124.559L203.99 339.276L419.871 504.52L639.6 336.332ZM200.4 104.813V-156.074H278.977V-77.8286H380.915V-156.074H459.492V-86.3247L200.4 104.813Z" fill="#262D38" fill-opacity="0.8"/>
<g filter="url(#filter0_f_30215_27849)">
<ellipse cx="476" cy="356.8" rx="55.6" ry="49.6" fill="#55A76F"/>
</g>
<g filter="url(#filter1_f_30215_27849)">
<ellipse cx="345.6" cy="193.6" rx="55.6" ry="14.4" fill="#3683F6"/>
</g>
<g filter="url(#filter2_f_30215_27849)">
<ellipse cx="380.8" cy="329.6" rx="62.8" ry="49.6" fill="#D9B021"/>
</g>
<g filter="url(#filter3_f_30215_27849)">
<ellipse cx="476.8" cy="150.4" rx="109.2" ry="49.6" fill="#E85353"/>
</g>
<g clip-path="url(#clip1_30215_27849)">
<path d="M138.208 82.3219V63.536H127.825V82.3254H123.143V59.2041H142.924V82.3219H138.208Z" fill="white"/>
<path d="M164.055 82.3219L162.704 78.4052H153.273L151.888 82.3219H146.546L155.054 59.2041H160.923L169.396 82.3219H164.055ZM157.988 64.1254L154.558 74.0726H161.417L157.988 64.1254Z" fill="white"/>
<path d="M188.157 82.3219V72.6152H177.772V82.3219H173.089V59.2041H177.772V68.2868H188.157V59.2041H192.871V82.3219H188.157Z" fill="white"/>
<path d="M198.839 82.3219V59.2041H214.403V63.536H203.522V82.3254L198.839 82.3219Z" fill="white"/>
<path d="M219.314 82.3219V59.2041H234.875V63.536H223.993V68.4233H234.644V72.7553H223.996V77.9892H234.877V82.3219H219.314Z" fill="white"/>
<path d="M239.129 70.7805C239.129 63.8139 243.975 58.8232 250.604 58.8232C257.265 58.8232 262.11 63.8152 262.11 70.7805C262.11 77.7457 257.263 82.7377 250.604 82.7377C243.975 82.7377 239.129 77.7471 239.129 70.7805ZM257.295 70.7805C257.295 66.4485 254.657 63.1905 250.602 63.1905C246.547 63.1905 243.941 66.4492 243.941 70.7805C243.941 75.0791 246.545 78.3711 250.602 78.3711C254.659 78.3711 257.295 75.0784 257.295 70.7805V70.7805Z" fill="white"/>
<path d="M123.143 115.181V92.0635H133.431C138.211 92.0635 140.817 95.4608 140.817 99.5154C140.817 103.537 138.179 106.967 133.431 106.967H127.825V115.181H123.143ZM136.033 99.5119C136.033 97.5706 134.648 96.3919 132.802 96.3919H127.825V102.632H132.804C134.647 102.635 136.032 101.421 136.032 99.5154L136.033 99.5119Z" fill="white"/>
<path d="M160.529 115.181L159.177 111.265H149.746L148.361 115.181H143.019L151.526 92.0635H157.396L165.869 115.181H160.529ZM154.461 96.9847L151.032 106.933H157.891L154.461 96.9847Z" fill="white"/>
<path d="M168.244 111.231C170.486 110.919 171.739 109.983 172.431 103.882L173.717 92.0635H189.344V110.849H191.322V119.446H186.64V115.183H172.925V119.446H168.243L168.244 111.231ZM174.409 110.85H184.631V96.3975H177.936L177.079 104.232C176.75 107.349 175.794 109.499 174.409 110.85Z" fill="white"/>
<path d="M210.873 115.181L209.521 111.265H200.09L198.705 115.181H193.364L201.871 92.0635H207.741L216.213 115.181H210.873ZM204.806 96.9847L201.376 106.933H208.235L204.806 96.9847Z" fill="white"/>
<path d="M219.907 115.181V92.0635H230.196C234.976 92.0635 237.582 95.4608 237.582 99.5154C237.582 103.537 234.944 106.967 230.196 106.967H224.59V115.181H219.907ZM232.798 99.5119C232.798 97.5706 231.413 96.3919 229.567 96.3919H224.589V102.632H229.567C231.413 102.635 232.798 101.421 232.798 99.5154V99.5119Z" fill="white"/>
<path d="M106.18 114.969V97.4732L81.9841 79.3037L32.6489 115.464L69.0896 143.293L106.18 114.969Z" fill="white"/>
<path d="M106.18 32.001H92.9204V45.1868H76.8978L31.9998 78.265V113.643L106.18 59.2004V32.001Z" fill="white"/>
<path d="M31.9998 32.001V75.9652L75.7193 43.755V32.001H62.4601V45.1868H45.259V32.001H31.9998Z" fill="white"/>
</g>
<g filter="url(#filter4_d_30215_27849)">
<rect x="324.4" y="100.8" width="350.4" height="250.4" rx="12.1486" fill="#FDFDFD"/>
</g>
<path d="M324.4 112.948C324.4 106.239 329.839 100.8 336.548 100.8H665.051C671.761 100.8 677.2 106.239 677.2 112.948V128.8H324.4V112.948Z" fill="#E85353"/>
<rect x="305.2" y="264.8" width="147.2" height="112.8" rx="12" fill="#FFF7DA"/>
<path d="M429.2 361.6H326.8V344C335.2 333.2 345.2 340.8 352.8 328.8C360.457 316.71 375.646 315.237 382 316C392 317.2 397.6 317.2 408 306.8C416.32 298.48 424.933 296.8 429.2 296V361.6Z" fill="#D9B021" fill-opacity="0.6"/>
<line x1="327.2" y1="361.6" x2="327.2" y2="292" stroke="#FAE291" stroke-width="0.8" stroke-dasharray="1.6 1.6"/>
<line x1="360.8" y1="361.6" x2="360.8" y2="292" stroke="#FAE291" stroke-width="0.8" stroke-dasharray="1.6 1.6"/>
<line x1="394.4" y1="361.6" x2="394.4" y2="292" stroke="#FAE291" stroke-width="0.8" stroke-dasharray="1.6 1.6"/>
<line x1="428.8" y1="361.6" x2="428.8" y2="292" stroke="#FAE291" stroke-width="0.8" stroke-dasharray="1.6 1.6"/>
<rect x="318" y="286.4" width="9.6" height="3.2" rx="1.6" fill="#FAE291"/>
<rect x="351.6" y="286.4" width="9.6" height="3.2" rx="1.6" fill="#FAE291"/>
<rect x="385.2" y="286.4" width="9.6" height="3.2" rx="1.6" fill="#FAE291"/>
<line x1="321.2" y1="361.2" x2="434.8" y2="361.2" stroke="#D9B021" stroke-width="0.8"/>
<rect x="521.6" y="150.4" width="147.2" height="110.4" rx="12" fill="#EEF5FF"/>
<circle cx="557.6" cy="186.4" r="23.2" fill="white"/>
<path d="M557.6 187.76C560.795 187.76 563.7 188.704 565.837 190.032C566.904 190.699 567.816 191.481 568.475 192.331C569.123 193.169 569.6 194.169 569.6 195.24C569.6 196.389 569.052 197.295 568.263 197.941C567.516 198.553 566.531 198.958 565.484 199.241C563.38 199.808 560.572 200 557.6 200C554.628 200 551.82 199.809 549.716 199.241C548.669 198.958 547.684 198.553 546.937 197.941C546.147 197.293 545.6 196.389 545.6 195.24C545.6 194.169 546.077 193.169 546.725 192.331C547.384 191.481 548.295 190.699 549.363 190.032C551.5 188.704 554.407 187.76 557.6 187.76ZM557.6 172.8C559.368 172.8 561.064 173.516 562.314 174.791C563.564 176.067 564.267 177.796 564.267 179.6C564.267 181.403 563.564 183.133 562.314 184.408C561.064 185.683 559.368 186.4 557.6 186.4C555.832 186.4 554.136 185.683 552.886 184.408C551.636 183.133 550.933 181.403 550.933 179.6C550.933 177.796 551.636 176.067 552.886 174.791C554.136 173.516 555.832 172.8 557.6 172.8Z" fill="#BFCEE3"/>
<rect x="534.4" y="222.4" width="46.4" height="21.6" rx="10.8" fill="#BFCEE3" fill-opacity="0.5"/>
<rect x="592.8" y="168" width="43.5323" height="3.2" rx="1.6" fill="#BFCEE3" fill-opacity="0.5"/>
<rect x="592.8" y="182.4" width="43.5323" height="3.2" rx="1.6" fill="#BFCEE3" fill-opacity="0.5"/>
<rect x="592.8" y="196.8" width="43.5323" height="3.2" rx="1.6" fill="#BFCEE3" fill-opacity="0.5"/>
<rect x="592.8" y="211.2" width="43.5323" height="3.2" rx="1.6" fill="#BFCEE3" fill-opacity="0.5"/>
<rect x="592.8" y="225.6" width="43.5323" height="3.2" rx="1.6" fill="#BFCEE3" fill-opacity="0.5"/>
<rect x="592.8" y="240" width="43.5323" height="3.2" rx="1.6" fill="#BFCEE3" fill-opacity="0.5"/>
<rect x="592.8" y="175.086" width="64.7923" height="3.2" rx="1.6" fill="#BFCEE3" fill-opacity="0.5"/>
<rect x="592.8" y="189.487" width="64.7923" height="3.2" rx="1.6" fill="#BFCEE3" fill-opacity="0.5"/>
<rect x="592.8" y="203.887" width="64.7923" height="3.2" rx="1.6" fill="#BFCEE3" fill-opacity="0.5"/>
<rect x="592.8" y="218.287" width="64.7923" height="3.2" rx="1.6" fill="#BFCEE3" fill-opacity="0.5"/>
<rect x="592.8" y="232.687" width="64.7923" height="3.2" rx="1.6" fill="#BFCEE3" fill-opacity="0.5"/>
<circle cx="331.104" cy="115.479" r="3.54333" fill="white"/>
<circle cx="341.391" cy="115.479" r="3.54333" fill="white"/>
<circle cx="351.678" cy="115.479" r="3.54333" fill="white"/>
<rect x="264.4" y="160.8" width="147.199" height="35.2" rx="17.6" fill="#3683F6"/>
<ellipse cx="287.6" cy="178.4" rx="4.79996" ry="4.8" fill="white"/>
<ellipse cx="302" cy="178.4" rx="4.79996" ry="4.8" fill="white"/>
<ellipse cx="316.4" cy="178.4" rx="4.79996" ry="4.8" fill="white"/>
<ellipse cx="330.8" cy="178.4" rx="4.79996" ry="4.8" fill="white"/>
<ellipse cx="345.2" cy="178.4" rx="4.79996" ry="4.8" fill="white"/>
<ellipse cx="359.6" cy="178.4" rx="4.79996" ry="4.8" fill="white"/>
<ellipse cx="373.999" cy="178.4" rx="4.79996" ry="4.8" fill="white"/>
<ellipse cx="388.399" cy="178.4" rx="4.79996" ry="4.8" fill="white"/>
<path d="M394.4 284.8V230.065L476.8 193.611L559.2 230.065V284.8C559.2 335.845 523.913 383.448 476.8 395.465C429.687 383.448 394.4 335.845 394.4 284.8Z" fill="#55A76F"/>
<path d="M394.4 284.8V230.065L476.8 193.611L559.2 230.065V284.8C559.2 335.845 523.913 383.448 476.8 395.465C429.687 383.448 394.4 335.845 394.4 284.8Z" fill="white" fill-opacity="0.8" style="mix-blend-mode:soft-light"/>
<path d="M394.4 284.8V230.065L476.8 193.611L559.2 230.065V284.8C559.2 335.845 523.913 383.448 476.8 395.465C429.687 383.448 394.4 335.845 394.4 284.8Z" stroke="#55A76F" stroke-width="8.8"/>
<g filter="url(#filter5_d_30215_27849)">
<path d="M481.45 294.045C481.45 294.959 481.177 295.852 480.666 296.613C480.155 297.373 479.429 297.965 478.58 298.315C477.73 298.665 476.795 298.756 475.893 298.578C474.991 298.4 474.162 297.959 473.512 297.313C472.862 296.667 472.419 295.843 472.239 294.946C472.06 294.05 472.152 293.12 472.504 292.276C472.856 291.431 473.452 290.709 474.217 290.201C474.981 289.694 475.88 289.422 476.8 289.422C478.033 289.422 479.216 289.909 480.088 290.776C480.96 291.643 481.45 292.819 481.45 294.045ZM514 277.096V320.237C514 321.872 513.347 323.439 512.184 324.595C511.021 325.751 509.444 326.4 507.8 326.4H445.8C444.156 326.4 442.579 325.751 441.416 324.595C440.253 323.439 439.6 321.872 439.6 320.237V277.096C439.6 275.462 440.253 273.894 441.416 272.739C442.579 271.583 444.156 270.934 445.8 270.934H459.75V260.148C459.75 255.653 461.546 251.343 464.744 248.164C467.941 244.986 472.278 243.2 476.8 243.2C481.322 243.2 485.659 244.986 488.856 248.164C492.054 251.343 493.85 255.653 493.85 260.148V270.934H507.8C509.444 270.934 511.021 271.583 512.184 272.739C513.347 273.894 514 275.462 514 277.096ZM487.65 294.045C487.652 292.044 487.095 290.082 486.04 288.378C484.985 286.674 483.473 285.296 481.675 284.397C479.877 283.498 477.863 283.114 475.858 283.288C473.853 283.461 471.936 284.186 470.321 285.381C468.707 286.576 467.458 288.193 466.716 290.053C465.973 291.912 465.765 293.941 466.116 295.911C466.467 297.881 467.362 299.715 468.701 301.209C470.04 302.702 471.771 303.796 473.7 304.368V310.993C473.7 311.81 474.027 312.594 474.608 313.172C475.189 313.75 475.978 314.074 476.8 314.074C477.622 314.074 478.411 313.75 478.992 313.172C479.573 312.594 479.9 311.81 479.9 310.993V304.368C482.14 303.71 484.106 302.349 485.503 300.488C486.9 298.627 487.654 296.367 487.65 294.045ZM487.65 260.148C487.65 257.288 486.507 254.545 484.472 252.522C482.437 250.499 479.678 249.363 476.8 249.363C473.922 249.363 471.163 250.499 469.128 252.522C467.093 254.545 465.95 257.288 465.95 260.148V270.934H487.65V260.148Z" fill="white"/>
</g>
</g>
<defs>
<filter id="filter0_f_30215_27849" x="382" y="268.8" width="188" height="176" filterUnits="userSpaceOnUse" color-interpolation-filters="sRGB">
<feFlood flood-opacity="0" result="BackgroundImageFix"/>
<feBlend mode="normal" in="SourceGraphic" in2="BackgroundImageFix" result="shape"/>
<feGaussianBlur stdDeviation="19.2" result="effect1_foregroundBlur_30215_27849"/>
</filter>
<filter id="filter1_f_30215_27849" x="251.6" y="140.8" width="188" height="105.6" filterUnits="userSpaceOnUse" color-interpolation-filters="sRGB">
<feFlood flood-opacity="0" result="BackgroundImageFix"/>
<feBlend mode="normal" in="SourceGraphic" in2="BackgroundImageFix" result="shape"/>
<feGaussianBlur stdDeviation="19.2" result="effect1_foregroundBlur_30215_27849"/>
</filter>
<filter id="filter2_f_30215_27849" x="279.6" y="241.6" width="202.4" height="176" filterUnits="userSpaceOnUse" color-interpolation-filters="sRGB">
<feFlood flood-opacity="0" result="BackgroundImageFix"/>
<feBlend mode="normal" in="SourceGraphic" in2="BackgroundImageFix" result="shape"/>
<feGaussianBlur stdDeviation="19.2" result="effect1_foregroundBlur_30215_27849"/>
</filter>
<filter id="filter3_f_30215_27849" x="329.2" y="62.3998" width="295.2" height="176" filterUnits="userSpaceOnUse" color-interpolation-filters="sRGB">
<feFlood flood-opacity="0" result="BackgroundImageFix"/>
<feBlend mode="normal" in="SourceGraphic" in2="BackgroundImageFix" result="shape"/>
<feGaussianBlur stdDeviation="19.2" result="effect1_foregroundBlur_30215_27849"/>
</filter>
<filter id="filter4_d_30215_27849" x="294.028" y="80.5522" width="411.143" height="311.143" filterUnits="userSpaceOnUse" color-interpolation-filters="sRGB">
<feFlood flood-opacity="0" result="BackgroundImageFix"/>
<feColorMatrix in="SourceAlpha" type="matrix" values="0 0 0 0 0 0 0 0 0 0 0 0 0 0 0 0 0 0 127 0" result="hardAlpha"/>
<feOffset dy="10.1238"/>
<feGaussianBlur stdDeviation="15.1857"/>
<feComposite in2="hardAlpha" operator="out"/>
<feColorMatrix type="matrix" values="0 0 0 0 0 0 0 0 0 0 0 0 0 0 0 0 0 0 0.2 0"/>
<feBlend mode="normal" in2="BackgroundImageFix" result="effect1_dropShadow_30215_27849"/>
<feBlend mode="normal" in="SourceGraphic" in2="effect1_dropShadow_30215_27849" result="shape"/>
</filter>
<filter id="filter5_d_30215_27849" x="439.6" y="243.2" width="74.3999" height="88.0002" filterUnits="userSpaceOnUse" color-interpolation-filters="sRGB">
<feFlood flood-opacity="0" result="BackgroundImageFix"/>
<feColorMatrix in="SourceAlpha" type="matrix" values="0 0 0 0 0 0 0 0 0 0 0 0 0 0 0 0 0 0 127 0" result="hardAlpha"/>
<feOffset dy="4.8"/>
<feComposite in2="hardAlpha" operator="out"/>
<feColorMatrix type="matrix" values="0 0 0 0 0.411649 0 0 0 0 0.754167 0 0 0 0 0.539577 0 0 0 1 0"/>
<feBlend mode="normal" in2="BackgroundImageFix" result="effect1_dropShadow_30215_27849"/>
<feBlend mode="normal" in="SourceGraphic" in2="effect1_dropShadow_30215_27849" result="shape"/>
</filter>
<clipPath id="clip0_30215_27849">
<rect width="608" height="448" rx="6.4" fill="white"/>
</clipPath>
<clipPath id="clip1_30215_27849">
<rect width="230.4" height="112" fill="white" transform="translate(32 32)"/>
</clipPath>
</defs>
</svg>
