<svg width="588" height="588" viewBox="0 0 588 588" fill="none" xmlns="http://www.w3.org/2000/svg">
<g clip-path="url(#clip0_30214_24688)">
<path fill-rule="evenodd" clip-rule="evenodd" d="M593.587 88H546.194V135.256H488.924L328.445 253.805V380.596L593.587 185.48V88ZM593.587 385.263V322.548L507.054 257.416L330.612 387.04L460.938 486.797L593.587 385.263ZM328.445 245.496V88H375.881V135.236H437.42V88H484.857V130.107L328.445 245.496Z" fill="#262D38" fill-opacity="0.6"/>
<path d="M208.437 503.556L258.815 468.741" stroke="#434B53" stroke-width="2.40505"/>
<path d="M435.852 348.741L501.778 301.333" stroke="#434B53" stroke-width="2.40505"/>
<rect x="125.804" y="497.211" width="88.985" height="88.985" rx="17.4366" fill="#55A76F" fill-opacity="0.16"/>
<rect x="125.804" y="497.211" width="88.985" height="88.985" rx="17.4366" stroke="#55A76F" stroke-width="3.60758"/>
<path d="M188.83 531.244H179.691V524.409C179.691 521.896 177.641 519.852 175.121 519.852H165.982C163.462 519.852 161.413 521.896 161.413 524.409V535.801H152.273C149.753 535.801 147.704 537.845 147.704 540.358V560.864C147.704 561.469 147.944 562.048 148.373 562.475C148.801 562.903 149.383 563.143 149.989 563.143H191.115C191.721 563.143 192.302 562.903 192.731 562.475C193.159 562.048 193.4 561.469 193.4 560.864V535.801C193.4 533.288 191.35 531.244 188.83 531.244ZM152.273 540.358H161.413V558.586H152.273V540.358ZM165.982 538.08V524.409H175.121V558.586H165.982V538.08ZM188.83 558.586H179.691V535.801H188.83V558.586Z" fill="#55A76F"/>
<rect x="496.314" y="231.425" width="74.5566" height="74.5566" rx="18.0379" fill="#E85353" fill-opacity="0.16"/>
<rect x="496.314" y="231.425" width="74.5566" height="74.5566" rx="18.0379" stroke="#E85353" stroke-width="2.40505"/>
<path d="M553.073 266.538H552.705C550.426 266.538 548.467 265.09 547.603 262.98L547.558 262.874C546.675 260.759 547.019 258.335 548.64 256.714L548.898 256.456C549.099 256.255 549.258 256.016 549.367 255.754C549.476 255.491 549.532 255.21 549.532 254.926C549.532 254.641 549.476 254.36 549.367 254.097C549.258 253.835 549.099 253.596 548.898 253.395C548.697 253.194 548.458 253.035 548.196 252.926C547.933 252.817 547.652 252.761 547.367 252.761C547.083 252.761 546.802 252.817 546.539 252.926C546.277 253.035 546.038 253.194 545.837 253.395L545.58 253.653C543.958 255.274 541.534 255.618 539.419 254.735L539.313 254.69C537.205 253.828 535.757 251.859 535.757 249.579V249.404C535.757 248.025 534.789 247.058 533.592 247.058C532.395 247.058 531.428 248.025 531.428 249.222V249.3C531.428 251.672 529.999 253.811 527.806 254.718L527.793 254.724C526.722 255.168 525.542 255.284 524.404 255.057C523.267 254.831 522.222 254.272 521.402 253.452L521.347 253.398C521.146 253.197 520.908 253.037 520.645 252.928C520.383 252.82 520.101 252.764 519.817 252.764C519.533 252.764 519.251 252.82 518.989 252.928C518.726 253.037 518.488 253.197 518.287 253.398C518.086 253.599 517.926 253.837 517.818 254.1C517.709 254.362 517.653 254.644 517.653 254.928C517.653 255.212 517.709 255.494 517.818 255.756C517.926 256.019 518.086 256.257 518.287 256.458L518.365 256.536C519.178 257.35 519.732 258.387 519.956 259.515C520.181 260.643 520.066 261.813 519.627 262.876L519.568 263.015C519.136 264.057 518.404 264.949 517.466 265.576C516.527 266.203 515.424 266.538 514.295 266.538C512.916 266.538 511.947 267.506 511.947 268.703C511.947 269.9 512.914 270.868 514.111 270.868H514.259C515.398 270.867 516.513 271.205 517.46 271.839C518.408 272.472 519.146 273.373 519.581 274.426L519.627 274.532C520.066 275.595 520.181 276.765 519.956 277.893C519.732 279.022 519.178 280.058 518.365 280.872L518.287 280.95C517.881 281.356 517.653 281.906 517.653 282.48C517.653 283.054 517.881 283.605 518.287 284.011C518.693 284.417 519.243 284.645 519.817 284.645C520.391 284.645 520.942 284.417 521.347 284.011L521.425 283.933C522.239 283.119 523.276 282.565 524.404 282.341C525.532 282.116 526.702 282.231 527.765 282.671L528.075 282.801C529.068 283.211 529.916 283.906 530.513 284.799C531.11 285.692 531.428 286.742 531.428 287.816V288C531.428 289.381 532.395 290.349 533.592 290.349C534.789 290.349 535.757 289.379 535.757 288.184V287.816C535.757 285.619 537.079 283.638 539.112 282.799L539.657 282.573C540.65 282.162 541.743 282.054 542.798 282.264C543.852 282.474 544.82 282.992 545.58 283.753L545.837 284.011C546.038 284.212 546.277 284.371 546.539 284.48C546.802 284.589 547.083 284.645 547.367 284.645C547.652 284.645 547.933 284.589 548.196 284.48C548.458 284.371 548.697 284.212 548.898 284.011C549.099 283.81 549.258 283.571 549.367 283.309C549.476 283.046 549.532 282.765 549.532 282.48C549.532 282.196 549.476 281.915 549.367 281.652C549.258 281.39 549.099 281.151 548.898 280.95L548.64 280.692C547.019 279.071 546.675 276.647 547.558 274.532L547.603 274.426C548.467 272.316 550.437 270.868 552.716 270.868H552.889C554.27 270.868 555.238 269.9 555.238 268.703C555.238 267.506 554.27 266.538 553.073 266.538ZM524.934 270.868C524.36 270.868 523.809 270.64 523.403 270.234C522.998 269.828 522.77 269.277 522.77 268.703C522.77 268.129 522.998 267.578 523.403 267.172C523.809 266.767 524.36 266.538 524.934 266.538C525.508 266.538 526.059 266.767 526.465 267.172C526.871 267.578 527.099 268.129 527.099 268.703C527.099 269.277 526.871 269.828 526.465 270.234C526.059 270.64 525.508 270.868 524.934 270.868ZM535.757 278.444C535.183 278.444 534.632 278.215 534.226 277.81C533.82 277.404 533.592 276.853 533.592 276.279C533.592 275.705 533.82 275.154 534.226 274.748C534.632 274.342 535.183 274.114 535.757 274.114C536.331 274.114 536.881 274.342 537.287 274.748C537.693 275.154 537.921 275.705 537.921 276.279C537.921 276.853 537.693 277.404 537.287 277.81C536.881 278.215 536.331 278.444 535.757 278.444ZM537.921 268.703C537.353 268.703 536.79 268.591 536.264 268.373C535.739 268.155 535.262 267.836 534.86 267.434C534.458 267.032 534.139 266.554 533.921 266.029C533.704 265.504 533.592 264.94 533.592 264.372C533.592 263.803 533.705 263.24 533.922 262.715C534.14 262.189 534.459 261.712 534.861 261.31C535.263 260.908 535.741 260.589 536.266 260.372C536.792 260.154 537.355 260.043 537.924 260.043C539.072 260.043 540.173 260.499 540.985 261.312C541.797 262.124 542.253 263.226 542.253 264.374C542.252 265.522 541.796 266.624 540.984 267.436C540.171 268.247 539.07 268.703 537.921 268.703Z" fill="#E85353"/>
<line x1="501.974" y1="236.587" x2="565.708" y2="300.321" stroke="#E85353" stroke-width="2.40505"/>
<path d="M584.78 462.445L538.074 422.814" stroke="#434B53" stroke-width="2.40505"/>
<rect x="582.228" y="426.969" width="67.4944" height="67.4944" rx="11.5138" fill="#D9B021" fill-opacity="0.2"/>
<rect x="582.228" y="426.969" width="67.4944" height="67.4944" rx="11.5138" stroke="#D9B021" stroke-width="2.38215"/>
<g clip-path="url(#clip1_30214_24688)">
<rect x="255.852" y="342.815" width="284.444" height="191.852" rx="17.7778" fill="#0A111C"/>
<rect x="255.852" y="342.815" width="284.444" height="25.1852" fill="#252B34"/>
<rect opacity="0.2" x="255.852" y="368" width="45.9259" height="166.667" fill="white"/>
<rect opacity="0.2" x="301.778" y="368" width="59.2593" height="166.667" fill="url(#paint0_linear_30214_24688)"/>
<rect opacity="0.1" x="310.667" y="376.148" width="41.4815" height="23.7037" rx="2.96296" fill="white"/>
<rect opacity="0.1" x="310.667" y="405.037" width="41.4815" height="9.62963" rx="2.96296" fill="white"/>
<rect opacity="0.1" x="267.704" y="376.148" width="22.963" height="3.7037" rx="1.85185" fill="white"/>
<rect opacity="0.1" x="267.704" y="384.296" width="22.963" height="3.7037" rx="1.85185" fill="white"/>
<rect opacity="0.1" x="267.704" y="392.444" width="22.963" height="3.7037" rx="1.85185" fill="white"/>
<rect opacity="0.1" x="267.704" y="400.593" width="22.963" height="3.7037" rx="1.85185" fill="white"/>
<rect opacity="0.1" x="267.704" y="408.741" width="22.963" height="3.7037" rx="1.85185" fill="white"/>
<rect opacity="0.1" x="267.704" y="416.889" width="22.963" height="3.7037" rx="1.85185" fill="white"/>
<rect opacity="0.1" x="267.704" y="425.037" width="22.963" height="3.7037" rx="1.85185" fill="white"/>
<rect opacity="0.1" x="267.704" y="433.185" width="22.963" height="3.7037" rx="1.85185" fill="white"/>
<rect opacity="0.1" x="267.704" y="441.333" width="22.963" height="3.7037" rx="1.85185" fill="white"/>
<rect opacity="0.1" x="267.704" y="449.482" width="22.963" height="3.7037" rx="1.85185" fill="white"/>
<rect opacity="0.1" x="267.704" y="457.63" width="22.963" height="3.7037" rx="1.85185" fill="white"/>
<rect opacity="0.1" x="267.704" y="465.778" width="22.963" height="3.7037" rx="1.85185" fill="white"/>
<rect opacity="0.1" x="267.704" y="473.926" width="22.963" height="3.7037" rx="1.85185" fill="white"/>
<rect opacity="0.1" x="267.704" y="482.074" width="22.963" height="3.7037" rx="1.85185" fill="white"/>
<rect opacity="0.1" x="267.704" y="490.222" width="22.963" height="3.7037" rx="1.85185" fill="white"/>
<rect opacity="0.1" x="378.815" y="456.889" width="140.741" height="9.62963" rx="2.96296" fill="white"/>
<rect opacity="0.1" x="378.815" y="471.704" width="140.741" height="62.963" rx="2.96296" fill="white"/>
<rect opacity="0.1" x="310.667" y="419.852" width="41.4815" height="23.7037" rx="2.96296" fill="white"/>
<rect opacity="0.1" x="310.667" y="448.741" width="41.4815" height="16.2963" rx="2.96296" fill="white"/>
<rect opacity="0.2" x="361.037" y="368" width="179.259" height="166.667" fill="url(#paint1_linear_30214_24688)"/>
<rect x="378.815" y="414.667" width="22.2222" height="27.4074" fill="#E85353"/>
<rect x="408.445" y="394.667" width="22.2222" height="47.4074" fill="#E85353"/>
<rect x="438.074" y="434.667" width="22.2222" height="7.40741" fill="#E85353"/>
<rect x="467.704" y="421.333" width="22.2222" height="20.7407" fill="#E85353"/>
<rect x="497.334" y="410.963" width="22.2222" height="31.1111" fill="#E85353"/>
<rect x="378.815" y="399.852" width="22.2222" height="14.8148" fill="#747C8A" fill-opacity="0.4"/>
<rect x="408.445" y="385.778" width="22.2222" height="8.88889" fill="#747C8A" fill-opacity="0.4"/>
<rect x="438.074" y="430.222" width="22.2222" height="4.44444" fill="#747C8A" fill-opacity="0.4"/>
<rect x="467.704" y="410.222" width="22.2222" height="11.1111" fill="#747C8A" fill-opacity="0.4"/>
<rect x="497.334" y="394.667" width="22.2222" height="16.2963" fill="#747C8A" fill-opacity="0.4"/>
</g>
<rect x="258.257" y="345.22" width="279.634" height="187.042" rx="15.3727" stroke="#C6CCD6" stroke-width="4.8101"/>
<mask id="path-48-inside-1_30214_24688" fill="white">
<path d="M240.296 532.774C240.296 531.365 241.439 530.222 242.848 530.222H553.301C554.71 530.222 555.852 531.365 555.852 532.774V532.774C555.852 544.047 546.713 553.185 535.44 553.185H260.708C249.435 553.185 240.296 544.047 240.296 532.774V532.774Z"/>
</mask>
<path d="M240.296 532.774C240.296 531.365 241.439 530.222 242.848 530.222H553.301C554.71 530.222 555.852 531.365 555.852 532.774V532.774C555.852 544.047 546.713 553.185 535.44 553.185H260.708C249.435 553.185 240.296 544.047 240.296 532.774V532.774Z" fill="white" fill-opacity="0.1"/>
<path d="M240.296 532.774C240.296 531.365 241.439 530.222 242.848 530.222H553.301C554.71 530.222 555.852 531.365 555.852 532.774V532.774C555.852 544.047 546.713 553.185 535.44 553.185H260.708C249.435 553.185 240.296 544.047 240.296 532.774V532.774Z" stroke="#C6CCD6" stroke-width="9.62021" mask="url(#path-48-inside-1_30214_24688)"/>
</g>
<defs>
<linearGradient id="paint0_linear_30214_24688" x1="331.408" y1="468.741" x2="264.741" y2="470.222" gradientUnits="userSpaceOnUse">
<stop stop-color="white"/>
<stop offset="1" stop-color="white" stop-opacity="0"/>
</linearGradient>
<linearGradient id="paint1_linear_30214_24688" x1="383.26" y1="468.741" x2="326.963" y2="470.222" gradientUnits="userSpaceOnUse">
<stop stop-color="white"/>
<stop offset="1" stop-color="white" stop-opacity="0"/>
</linearGradient>
<clipPath id="clip0_30214_24688">
<rect width="588" height="588" fill="white"/>
</clipPath>
<clipPath id="clip1_30214_24688">
<rect x="255.852" y="342.815" width="284.444" height="191.852" rx="17.7778" fill="white"/>
</clipPath>
</defs>
</svg>
