<svg width="608" height="448" viewBox="0 0 608 448" fill="none" xmlns="http://www.w3.org/2000/svg">
<g clip-path="url(#clip0_30215_27849)">
<rect width="608" height="448" rx="6.4" fill="#313741"/>
<path fill-rule="evenodd" clip-rule="evenodd" d="M642.525 -154.436H566.786V-78.9149H475.263L218.8 110.538V313.163L642.525 1.3471V-154.436ZM642.525 320.621V220.395L504.236 116.309L222.264 323.461L430.538 482.883L642.525 320.621ZM218.8 97.2593V-154.436H294.609V-78.9469H392.954V-154.436H468.763V-87.1436L218.8 97.2593Z" fill="#262D38" fill-opacity="0.8"/>
<g filter="url(#filter0_f_30215_27849)">
<ellipse cx="484.689" cy="340.367" rx="53.6409" ry="47.8523" fill="#55A76F"/>
</g>
<g filter="url(#filter1_f_30215_27849)">
<ellipse cx="358.884" cy="182.918" rx="53.6409" ry="13.8926" fill="#3683F6"/>
</g>
<g filter="url(#filter2_f_30215_27849)">
<ellipse cx="392.844" cy="314.125" rx="60.5872" ry="47.8523" fill="#D9B021"/>
</g>
<g filter="url(#filter3_f_30215_27849)">
<ellipse cx="485.461" cy="141.239" rx="105.352" ry="47.8523" fill="#E85353"/>
</g>
<g clip-path="url(#clip1_30215_27849)">
<path d="M138.208 82.3219V63.536H127.825V82.3254H123.143V59.2041H142.924V82.3219H138.208Z" fill="white"/>
<path d="M164.055 82.3219L162.704 78.4052H153.273L151.888 82.3219H146.546L155.054 59.2041H160.923L169.396 82.3219H164.055ZM157.988 64.1254L154.558 74.0726H161.417L157.988 64.1254Z" fill="white"/>
<path d="M188.157 82.3219V72.6152H177.772V82.3219H173.089V59.2041H177.772V68.2868H188.157V59.2041H192.871V82.3219H188.157Z" fill="white"/>
<path d="M198.839 82.3219V59.2041H214.403V63.536H203.522V82.3254L198.839 82.3219Z" fill="white"/>
<path d="M219.314 82.3219V59.2041H234.875V63.536H223.993V68.4233H234.644V72.7553H223.996V77.9893H234.877V82.3219H219.314Z" fill="white"/>
<path d="M239.129 70.7805C239.129 63.8139 243.975 58.8232 250.604 58.8232C257.265 58.8232 262.11 63.8152 262.11 70.7805C262.11 77.7457 257.263 82.7377 250.604 82.7377C243.975 82.7377 239.129 77.7471 239.129 70.7805ZM257.295 70.7805C257.295 66.4485 254.657 63.1905 250.602 63.1905C246.547 63.1905 243.941 66.4492 243.941 70.7805C243.941 75.0791 246.545 78.3711 250.602 78.3711C254.659 78.3711 257.295 75.0784 257.295 70.7805Z" fill="white"/>
<path d="M123.143 115.181V92.0635H133.431C138.211 92.0635 140.817 95.4608 140.817 99.5154C140.817 103.537 138.179 106.967 133.431 106.967H127.825V115.181H123.143ZM136.033 99.5119C136.033 97.5706 134.648 96.3919 132.802 96.3919H127.825V102.632H132.804C134.647 102.635 136.032 101.421 136.032 99.5154L136.033 99.5119Z" fill="white"/>
<path d="M160.529 115.181L159.177 111.265H149.746L148.361 115.181H143.019L151.526 92.0635H157.396L165.869 115.181H160.529ZM154.461 96.9847L151.032 106.933H157.891L154.461 96.9847Z" fill="white"/>
<path d="M168.244 111.231C170.486 110.919 171.739 109.983 172.431 103.882L173.717 92.0635H189.344V110.849H191.322V119.446H186.64V115.183H172.925V119.446H168.243L168.244 111.231ZM174.409 110.85H184.631V96.3975H177.936L177.079 104.232C176.75 107.349 175.794 109.499 174.409 110.85Z" fill="white"/>
<path d="M210.873 115.181L209.521 111.265H200.09L198.705 115.181H193.364L201.871 92.0635H207.741L216.213 115.181H210.873ZM204.806 96.9847L201.376 106.933H208.235L204.806 96.9847Z" fill="white"/>
<path d="M219.907 115.181V92.0635H230.196C234.976 92.0635 237.582 95.4608 237.582 99.5154C237.582 103.537 234.944 106.967 230.196 106.967H224.59V115.181H219.907ZM232.798 99.5119C232.798 97.5706 231.413 96.3919 229.567 96.3919H224.589V102.632H229.567C231.413 102.635 232.798 101.421 232.798 99.5154V99.5119Z" fill="white"/>
<path d="M106.18 114.969V97.4732L81.9841 79.3037L32.6489 115.464L69.0896 143.293L106.18 114.969Z" fill="white"/>
<path d="M106.18 32.001H92.9204V45.1868H76.8978L31.9998 78.265V113.643L106.18 59.2004V32.001Z" fill="white"/>
<path d="M31.9998 32.001V75.9652L75.7193 43.755V32.001H62.4601V45.1868H45.259V32.001H31.9998Z" fill="white"/>
</g>
<g filter="url(#filter4_d_30215_27849)">
<rect x="338.431" y="93.3867" width="338.054" height="241.577" rx="11.7205" fill="#FDFDFD"/>
</g>
<path d="M338.431 105.107C338.431 98.6342 343.678 93.3867 350.151 93.3867H667.079C673.552 93.3867 678.8 98.6342 678.8 105.107V120.4H338.431V105.107Z" fill="#E85353"/>
<rect x="319.907" y="251.608" width="142.013" height="108.826" rx="11.5772" fill="#FFF7DA"/>
<path d="M439.538 344.998H340.746V328.018C348.85 317.598 358.498 324.93 365.83 313.353C373.217 301.689 387.871 300.269 394.001 301.004C403.649 302.162 409.052 302.162 419.085 292.128C427.112 284.102 435.422 282.481 439.538 281.709V344.998Z" fill="#D9B021" fill-opacity="0.6"/>
<line x1="341.132" y1="344.998" x2="341.132" y2="277.85" stroke="#FAE291" stroke-width="0.771812" stroke-dasharray="1.54 1.54"/>
<line x1="373.548" y1="344.998" x2="373.548" y2="277.85" stroke="#FAE291" stroke-width="0.771812" stroke-dasharray="1.54 1.54"/>
<line x1="405.964" y1="344.998" x2="405.964" y2="277.85" stroke="#FAE291" stroke-width="0.771812" stroke-dasharray="1.54 1.54"/>
<line x1="439.152" y1="344.998" x2="439.152" y2="277.85" stroke="#FAE291" stroke-width="0.771812" stroke-dasharray="1.54 1.54"/>
<rect x="332.256" y="272.447" width="9.26175" height="3.08725" rx="1.54362" fill="#FAE291"/>
<rect x="364.672" y="272.447" width="9.26175" height="3.08725" rx="1.54362" fill="#FAE291"/>
<rect x="397.089" y="272.447" width="9.26175" height="3.08725" rx="1.54362" fill="#FAE291"/>
<line x1="335.344" y1="344.612" x2="444.941" y2="344.612" stroke="#D9B021" stroke-width="0.771812"/>
<rect x="528.683" y="141.239" width="142.013" height="106.51" rx="11.5772" fill="#EEF5FF"/>
<circle cx="563.414" cy="175.97" r="22.3826" fill="white"/>
<path d="M563.414 177.283C566.496 177.283 569.299 178.194 571.361 179.475C572.39 180.118 573.27 180.873 573.906 181.693C574.531 182.501 574.991 183.467 574.991 184.499C574.991 185.608 574.463 186.482 573.701 187.105C572.981 187.696 572.03 188.087 571.02 188.36C568.99 188.907 566.281 189.092 563.414 189.092C560.547 189.092 557.838 188.908 555.808 188.36C554.798 188.087 553.847 187.696 553.127 187.105C552.364 186.481 551.837 185.608 551.837 184.499C551.837 183.467 552.297 182.501 552.923 181.693C553.558 180.873 554.437 180.118 555.467 179.475C557.529 178.194 560.333 177.283 563.414 177.283ZM563.414 162.85C565.12 162.85 566.756 163.541 567.962 164.772C569.168 166.002 569.846 167.671 569.846 169.411C569.846 171.15 569.168 172.819 567.962 174.049C566.756 175.28 565.12 175.971 563.414 175.971C561.708 175.971 560.072 175.28 558.866 174.049C557.66 172.819 556.982 171.15 556.982 169.411C556.982 167.671 557.66 166.002 558.866 164.772C560.072 163.541 561.708 162.85 563.414 162.85Z" fill="#BFCEE3"/>
<rect x="541.032" y="210.702" width="44.7651" height="20.8389" rx="10.4195" fill="#BFCEE3" fill-opacity="0.5"/>
<rect x="597.374" y="158.219" width="41.9985" height="3.08725" rx="1.54362" fill="#BFCEE3" fill-opacity="0.5"/>
<rect x="597.374" y="172.112" width="41.9985" height="3.08725" rx="1.54362" fill="#BFCEE3" fill-opacity="0.5"/>
<rect x="597.374" y="186.004" width="41.9985" height="3.08725" rx="1.54362" fill="#BFCEE3" fill-opacity="0.5"/>
<rect x="597.374" y="199.897" width="41.9985" height="3.08725" rx="1.54362" fill="#BFCEE3" fill-opacity="0.5"/>
<rect x="597.374" y="213.79" width="41.9985" height="3.08725" rx="1.54362" fill="#BFCEE3" fill-opacity="0.5"/>
<rect x="597.374" y="227.682" width="41.9985" height="3.08725" rx="1.54362" fill="#BFCEE3" fill-opacity="0.5"/>
<rect x="597.374" y="165.056" width="62.5094" height="3.08725" rx="1.54362" fill="#BFCEE3" fill-opacity="0.5"/>
<rect x="597.374" y="178.949" width="62.5094" height="3.08725" rx="1.54362" fill="#BFCEE3" fill-opacity="0.5"/>
<rect x="597.374" y="192.841" width="62.5094" height="3.08725" rx="1.54362" fill="#BFCEE3" fill-opacity="0.5"/>
<rect x="597.374" y="206.734" width="62.5094" height="3.08725" rx="1.54362" fill="#BFCEE3" fill-opacity="0.5"/>
<rect x="597.374" y="220.626" width="62.5094" height="3.08725" rx="1.54362" fill="#BFCEE3" fill-opacity="0.5"/>
<circle cx="344.899" cy="107.548" r="3.41848" fill="white"/>
<circle cx="354.823" cy="107.548" r="3.41848" fill="white"/>
<circle cx="364.747" cy="107.548" r="3.41848" fill="white"/>
<rect x="280.545" y="151.273" width="142.013" height="33.9597" rx="16.9799" fill="#3683F6"/>
<ellipse cx="302.927" cy="168.253" rx="4.63083" ry="4.63087" fill="white"/>
<ellipse cx="316.82" cy="168.253" rx="4.63083" ry="4.63087" fill="white"/>
<ellipse cx="330.713" cy="168.253" rx="4.63083" ry="4.63087" fill="white"/>
<ellipse cx="344.605" cy="168.253" rx="4.63083" ry="4.63087" fill="white"/>
<ellipse cx="358.498" cy="168.253" rx="4.63083" ry="4.63087" fill="white"/>
<ellipse cx="372.39" cy="168.253" rx="4.63083" ry="4.63087" fill="white"/>
<ellipse cx="386.283" cy="168.253" rx="4.63083" ry="4.63087" fill="white"/>
<ellipse cx="400.175" cy="168.253" rx="4.63083" ry="4.63087" fill="white"/>
<path d="M405.964 270.904V218.097L485.461 182.928L564.958 218.097V270.904C564.958 320.15 530.914 366.076 485.461 377.67C440.008 366.076 405.964 320.15 405.964 270.904Z" fill="#55A76F"/>
<path d="M405.964 270.904V218.097L485.461 182.928L564.958 218.097V270.904C564.958 320.15 530.914 366.076 485.461 377.67C440.008 366.076 405.964 320.15 405.964 270.904Z" fill="white" fill-opacity="0.8" style="mix-blend-mode:soft-light"/>
<path d="M405.964 270.904V218.097L485.461 182.928L564.958 218.097V270.904C564.958 320.15 530.914 366.076 485.461 377.67C440.008 366.076 405.964 320.15 405.964 270.904Z" stroke="#55A76F" stroke-width="8.48993"/>
<g filter="url(#filter5_d_30215_27849)">
<path d="M489.947 279.823C489.947 280.705 489.684 281.567 489.191 282.3C488.698 283.034 487.998 283.605 487.178 283.943C486.358 284.28 485.456 284.369 484.586 284.197C483.716 284.025 482.916 283.6 482.289 282.976C481.661 282.353 481.234 281.558 481.061 280.693C480.888 279.828 480.977 278.931 481.316 278.116C481.656 277.302 482.231 276.605 482.969 276.115C483.706 275.625 484.574 275.364 485.461 275.364C486.651 275.364 487.792 275.833 488.633 276.67C489.475 277.506 489.947 278.64 489.947 279.823ZM521.35 263.472V305.093C521.35 306.67 520.72 308.182 519.598 309.297C518.477 310.412 516.955 311.038 515.369 311.038H455.553C453.967 311.038 452.445 310.412 451.324 309.297C450.202 308.182 449.572 306.67 449.572 305.093V263.472C449.572 261.895 450.202 260.383 451.324 259.268C452.445 258.153 453.967 257.526 455.553 257.526H469.012V247.121C469.012 242.784 470.745 238.626 473.83 235.559C476.914 232.493 481.098 230.77 485.461 230.77C489.824 230.77 494.008 232.493 497.092 235.559C500.177 238.626 501.91 242.784 501.91 247.121V257.526H515.369C516.955 257.526 518.477 258.153 519.598 259.268C520.72 260.383 521.35 261.895 521.35 263.472ZM495.929 279.823C495.931 277.893 495.393 276 494.375 274.356C493.357 272.712 491.899 271.382 490.165 270.515C488.43 269.648 486.486 269.277 484.552 269.445C482.617 269.613 480.768 270.312 479.21 271.464C477.653 272.617 476.448 274.178 475.732 275.972C475.015 277.766 474.815 279.723 475.153 281.623C475.492 283.524 476.355 285.294 477.647 286.735C478.939 288.176 480.609 289.231 482.47 289.782V296.174C482.47 296.962 482.785 297.719 483.346 298.276C483.907 298.834 484.668 299.147 485.461 299.147C486.254 299.147 487.015 298.834 487.576 298.276C488.137 297.719 488.452 296.962 488.452 296.174V289.782C490.613 289.148 492.51 287.835 493.858 286.039C495.205 284.244 495.932 282.063 495.929 279.823ZM495.929 247.121C495.929 244.361 494.826 241.715 492.863 239.763C490.9 237.812 488.237 236.716 485.461 236.716C482.685 236.716 480.022 237.812 478.059 239.763C476.096 241.715 474.993 244.361 474.993 247.121V257.526H495.929V247.121Z" fill="white"/>
</g>
</g>
<defs>
<filter id="filter0_f_30215_27849" x="394.001" y="255.468" width="181.376" height="169.799" filterUnits="userSpaceOnUse" color-interpolation-filters="sRGB">
<feFlood flood-opacity="0" result="BackgroundImageFix"/>
<feBlend mode="normal" in="SourceGraphic" in2="BackgroundImageFix" result="shape"/>
<feGaussianBlur stdDeviation="18.5235" result="effect1_foregroundBlur_30215_27849"/>
</filter>
<filter id="filter1_f_30215_27849" x="268.196" y="131.978" width="181.376" height="101.879" filterUnits="userSpaceOnUse" color-interpolation-filters="sRGB">
<feFlood flood-opacity="0" result="BackgroundImageFix"/>
<feBlend mode="normal" in="SourceGraphic" in2="BackgroundImageFix" result="shape"/>
<feGaussianBlur stdDeviation="18.5235" result="effect1_foregroundBlur_30215_27849"/>
</filter>
<filter id="filter2_f_30215_27849" x="295.209" y="229.226" width="195.269" height="169.799" filterUnits="userSpaceOnUse" color-interpolation-filters="sRGB">
<feFlood flood-opacity="0" result="BackgroundImageFix"/>
<feBlend mode="normal" in="SourceGraphic" in2="BackgroundImageFix" result="shape"/>
<feGaussianBlur stdDeviation="18.5235" result="effect1_foregroundBlur_30215_27849"/>
</filter>
<filter id="filter3_f_30215_27849" x="343.062" y="56.3397" width="284.799" height="169.799" filterUnits="userSpaceOnUse" color-interpolation-filters="sRGB">
<feFlood flood-opacity="0" result="BackgroundImageFix"/>
<feBlend mode="normal" in="SourceGraphic" in2="BackgroundImageFix" result="shape"/>
<feGaussianBlur stdDeviation="18.5235" result="effect1_foregroundBlur_30215_27849"/>
</filter>
<filter id="filter4_d_30215_27849" x="309.129" y="73.8525" width="396.656" height="300.18" filterUnits="userSpaceOnUse" color-interpolation-filters="sRGB">
<feFlood flood-opacity="0" result="BackgroundImageFix"/>
<feColorMatrix in="SourceAlpha" type="matrix" values="0 0 0 0 0 0 0 0 0 0 0 0 0 0 0 0 0 0 127 0" result="hardAlpha"/>
<feOffset dy="9.76709"/>
<feGaussianBlur stdDeviation="14.6506"/>
<feComposite in2="hardAlpha" operator="out"/>
<feColorMatrix type="matrix" values="0 0 0 0 0 0 0 0 0 0 0 0 0 0 0 0 0 0 0.2 0"/>
<feBlend mode="normal" in2="BackgroundImageFix" result="effect1_dropShadow_30215_27849"/>
<feBlend mode="normal" in="SourceGraphic" in2="effect1_dropShadow_30215_27849" result="shape"/>
</filter>
<filter id="filter5_d_30215_27849" x="449.572" y="230.77" width="71.7786" height="84.8994" filterUnits="userSpaceOnUse" color-interpolation-filters="sRGB">
<feFlood flood-opacity="0" result="BackgroundImageFix"/>
<feColorMatrix in="SourceAlpha" type="matrix" values="0 0 0 0 0 0 0 0 0 0 0 0 0 0 0 0 0 0 127 0" result="hardAlpha"/>
<feOffset dy="4.63087"/>
<feComposite in2="hardAlpha" operator="out"/>
<feColorMatrix type="matrix" values="0 0 0 0 0.411649 0 0 0 0 0.754167 0 0 0 0 0.539577 0 0 0 1 0"/>
<feBlend mode="normal" in2="BackgroundImageFix" result="effect1_dropShadow_30215_27849"/>
<feBlend mode="normal" in="SourceGraphic" in2="effect1_dropShadow_30215_27849" result="shape"/>
</filter>
<clipPath id="clip0_30215_27849">
<rect width="608" height="448" rx="6.4" fill="white"/>
</clipPath>
<clipPath id="clip1_30215_27849">
<rect width="230.4" height="112" fill="white" transform="translate(32 32)"/>
</clipPath>
</defs>
</svg>
