<svg width="760" height="560" viewBox="0 0 760 560" fill="none" xmlns="http://www.w3.org/2000/svg">
<g clip-path="url(#clip0_4188_24452)">
<rect width="760" height="560" rx="8" fill="#313741"/>
<path fill-rule="evenodd" clip-rule="evenodd" d="M787 -195.093H688.869V-97.2443H570.287L238 148.221V410.752L787 6.74733V-195.093ZM787 420.416V290.558L607.826 155.699L242.488 424.095L512.339 630.651L787 420.416ZM238 131.016V-195.093H336.222V-97.2858H463.643V-195.093H561.865V-107.906L238 131.016Z" fill="#262D38" fill-opacity="0.8"/>
<g filter="url(#filter0_f_4188_24452)">
<ellipse cx="582.5" cy="446" rx="69.5" ry="62" fill="#55A76F"/>
</g>
<g filter="url(#filter1_f_4188_24452)">
<ellipse cx="419.5" cy="242" rx="69.5" ry="18" fill="#3683F6"/>
</g>
<g filter="url(#filter2_f_4188_24452)">
<ellipse cx="463.5" cy="412" rx="78.5" ry="62" fill="#D9B021"/>
</g>
<g filter="url(#filter3_f_4188_24452)">
<ellipse cx="583.5" cy="188" rx="136.5" ry="62" fill="#E85353"/>
</g>
<g clip-path="url(#clip1_4188_24452)">
<path d="M164.76 94.9011V71.4188H151.782V94.9055H145.929V66.0039H170.655V94.9011H164.76Z" fill="white"/>
<path d="M197.069 94.9011L195.38 90.0053H183.592L181.861 94.9011H175.183L185.818 66.0039H193.154L203.745 94.9011H197.069ZM189.485 72.1555L185.198 84.5895H193.772L189.485 72.1555Z" fill="white"/>
<path d="M227.196 94.9011V82.7678H214.215V94.9011H208.362V66.0039H214.215V77.3572H227.196V66.0039H233.089V94.9011H227.196Z" fill="white"/>
<path d="M240.549 94.9011V66.0039H260.005V71.4188H246.402V94.9055L240.549 94.9011Z" fill="white"/>
<path d="M266.143 94.9011V66.0039H285.594V71.4188H271.992V77.528H285.305V82.9429H271.995V89.4853H285.597V94.9011H266.143Z" fill="white"/>
<path d="M290.911 80.4748C290.911 71.7666 296.969 65.5283 305.255 65.5283C313.581 65.5283 319.637 71.7683 319.637 80.4748C319.637 89.1814 313.579 95.4214 305.255 95.4214C296.969 95.4214 290.911 89.1831 290.911 80.4748ZM313.619 80.4748C313.619 75.0599 310.321 70.9875 305.253 70.9875C300.185 70.9875 296.927 75.0608 296.927 80.4748C296.927 85.8482 300.182 89.9631 305.253 89.9631C310.323 89.9631 313.619 85.8473 313.619 80.4748Z" fill="white"/>
<path d="M145.928 135.975V107.078H158.789C164.764 107.078 168.022 111.325 168.022 116.393C168.022 121.42 164.724 125.707 158.789 125.707H151.782V135.975H145.928ZM162.042 116.389C162.042 113.962 160.311 112.489 158.002 112.489H151.782V120.289H158.005C160.309 120.292 162.04 118.775 162.04 116.393L162.042 116.389Z" fill="white"/>
<path d="M192.661 135.975L190.971 131.08H179.182L177.451 135.975H170.774L181.408 107.078H188.745L199.336 135.975H192.661ZM185.077 113.23L180.79 125.665H189.363L185.077 113.23Z" fill="white"/>
<path d="M202.305 131.038C205.108 130.648 206.674 129.478 207.539 121.851L209.146 107.078H228.68V130.56H231.153V141.306H225.3V135.978H208.157V141.306H202.304L202.305 131.038ZM210.011 130.561H222.789V112.496H214.421L213.349 122.289C212.938 126.186 211.742 128.872 210.011 130.561Z" fill="white"/>
<path d="M255.592 135.975L253.902 131.08H242.113L240.382 135.975H233.705L244.339 107.078H251.676L262.267 135.975H255.592ZM248.008 113.23L243.721 125.665H252.294L248.008 113.23Z" fill="white"/>
<path d="M266.885 135.975V107.078H279.745C285.72 107.078 288.978 111.325 288.978 116.393C288.978 121.42 285.681 125.707 279.745 125.707H272.738V135.975H266.885ZM282.998 116.389C282.998 113.962 281.267 112.489 278.959 112.489H272.736V120.289H278.959C281.267 120.292 282.998 118.775 282.998 116.393V116.389Z" fill="white"/>
<path d="M124.725 135.71V113.841L94.4805 91.1289L32.8115 136.33L78.3623 171.116L124.725 135.71Z" fill="white"/>
<path d="M124.725 32H108.151V48.4823H88.1226L32 89.83V134.053L124.725 65.9993V32Z" fill="white"/>
<path d="M32 32V86.9553L86.6494 46.6926V32H70.0754V48.4823H48.574V32H32Z" fill="white"/>
</g>
<g filter="url(#filter4_d_4188_24452)">
<rect x="393" y="126" width="438" height="313" rx="15.1857" fill="#FDFDFD"/>
</g>
<path d="M393 141.186C393 132.799 399.799 126 408.186 126H818.814C827.201 126 834 132.799 834 141.186V161H393V141.186Z" fill="#E85353"/>
<rect x="369" y="331" width="184" height="141" rx="15" fill="#FFF7DA"/>
<path d="M524 452H396V430C406.5 416.5 419 426 428.5 411C438.071 395.887 457.057 394.047 465 395C477.5 396.5 484.5 396.5 497.5 383.5C507.9 373.1 518.667 371 524 370V452Z" fill="#D9B021" fill-opacity="0.6"/>
<line x1="396.5" y1="452" x2="396.5" y2="365" stroke="#FAE291" stroke-dasharray="2 2"/>
<line x1="438.5" y1="452" x2="438.5" y2="365" stroke="#FAE291" stroke-dasharray="2 2"/>
<line x1="480.5" y1="452" x2="480.5" y2="365" stroke="#FAE291" stroke-dasharray="2 2"/>
<line x1="523.5" y1="452" x2="523.5" y2="365" stroke="#FAE291" stroke-dasharray="2 2"/>
<rect x="385" y="358" width="12" height="4" rx="2" fill="#FAE291"/>
<rect x="427" y="358" width="12" height="4" rx="2" fill="#FAE291"/>
<rect x="469" y="358" width="12" height="4" rx="2" fill="#FAE291"/>
<line x1="389" y1="451.5" x2="531" y2="451.5" stroke="#D9B021"/>
<rect x="652" y="188" width="184" height="138" rx="15" fill="#EEF5FF"/>
<circle cx="697" cy="233" r="29" fill="white"/>
<path d="M697 234.7C700.993 234.7 704.625 235.88 707.297 237.541C708.63 238.374 709.77 239.351 710.593 240.414C711.403 241.461 712 242.712 712 244.05C712 245.487 711.315 246.619 710.328 247.426C709.395 248.191 708.163 248.698 706.855 249.051C704.225 249.76 700.715 250 697 250C693.285 250 689.775 249.762 687.145 249.051C685.837 248.698 684.605 248.191 683.672 247.426C682.683 246.617 682 245.487 682 244.05C682 242.712 682.597 241.461 683.407 240.414C684.23 239.351 685.368 238.374 686.703 237.541C689.375 235.88 693.008 234.7 697 234.7ZM697 216C699.21 216 701.33 216.896 702.893 218.49C704.455 220.084 705.333 222.246 705.333 224.5C705.333 226.754 704.455 228.916 702.893 230.51C701.33 232.104 699.21 233 697 233C694.79 233 692.67 232.104 691.107 230.51C689.545 228.916 688.667 226.754 688.667 224.5C688.667 222.246 689.545 220.084 691.107 218.49C692.67 216.896 694.79 216 697 216Z" fill="#BFCEE3"/>
<rect x="668" y="278" width="58" height="27" rx="13.5" fill="#BFCEE3" fill-opacity="0.5"/>
<rect x="741" y="210" width="54.4154" height="4" rx="2" fill="#BFCEE3" fill-opacity="0.5"/>
<rect x="741" y="228" width="54.4154" height="4" rx="2" fill="#BFCEE3" fill-opacity="0.5"/>
<rect x="741" y="246" width="54.4154" height="4" rx="2" fill="#BFCEE3" fill-opacity="0.5"/>
<rect x="741" y="264" width="54.4154" height="4" rx="2" fill="#BFCEE3" fill-opacity="0.5"/>
<rect x="741" y="282" width="54.4154" height="4" rx="2" fill="#BFCEE3" fill-opacity="0.5"/>
<rect x="741" y="300" width="54.4154" height="4" rx="2" fill="#BFCEE3" fill-opacity="0.5"/>
<rect x="741" y="218.858" width="80.9904" height="4" rx="2" fill="#BFCEE3" fill-opacity="0.5"/>
<rect x="741" y="236.858" width="80.9904" height="4" rx="2" fill="#BFCEE3" fill-opacity="0.5"/>
<rect x="741" y="254.858" width="80.9904" height="4" rx="2" fill="#BFCEE3" fill-opacity="0.5"/>
<rect x="741" y="272.858" width="80.9904" height="4" rx="2" fill="#BFCEE3" fill-opacity="0.5"/>
<rect x="741" y="290.858" width="80.9904" height="4" rx="2" fill="#BFCEE3" fill-opacity="0.5"/>
<circle cx="413.88" cy="144.349" r="4.42916" fill="white"/>
<circle cx="426.739" cy="144.349" r="4.42916" fill="white"/>
<circle cx="439.597" cy="144.349" r="4.42916" fill="white"/>
<rect x="318" y="201" width="183.999" height="44" rx="22" fill="#3683F6"/>
<ellipse cx="347" cy="223" rx="5.99995" ry="6" fill="white"/>
<ellipse cx="365" cy="223" rx="5.99995" ry="6" fill="white"/>
<ellipse cx="383" cy="223" rx="5.99995" ry="6" fill="white"/>
<ellipse cx="401" cy="223" rx="5.99995" ry="6" fill="white"/>
<ellipse cx="418.999" cy="223" rx="5.99995" ry="6" fill="white"/>
<ellipse cx="436.999" cy="223" rx="5.99995" ry="6" fill="white"/>
<ellipse cx="454.999" cy="223" rx="5.99995" ry="6" fill="white"/>
<ellipse cx="472.999" cy="223" rx="5.99995" ry="6" fill="white"/>
<path d="M480.5 356V287.581L583.5 242.014L686.5 287.581V356C686.5 419.807 642.392 479.31 583.5 494.332C524.608 479.31 480.5 419.807 480.5 356Z" fill="#55A76F"/>
<path d="M480.5 356V287.581L583.5 242.014L686.5 287.581V356C686.5 419.807 642.392 479.31 583.5 494.332C524.608 479.31 480.5 419.807 480.5 356Z" fill="white" fill-opacity="0.8" style="mix-blend-mode:soft-light"/>
<path d="M480.5 356V287.581L583.5 242.014L686.5 287.581V356C686.5 419.807 642.392 479.31 583.5 494.332C524.608 479.31 480.5 419.807 480.5 356Z" stroke="#55A76F" stroke-width="11"/>
<g filter="url(#filter5_d_4188_24452)">
<path d="M589.312 367.556C589.312 368.698 588.972 369.815 588.333 370.766C587.694 371.716 586.786 372.456 585.724 372.894C584.662 373.331 583.494 373.445 582.366 373.222C581.239 372.999 580.203 372.449 579.39 371.641C578.577 370.833 578.023 369.804 577.799 368.683C577.575 367.562 577.69 366.4 578.13 365.345C578.57 364.289 579.315 363.386 580.271 362.752C581.227 362.117 582.35 361.778 583.5 361.778C585.042 361.778 586.52 362.387 587.61 363.47C588.7 364.554 589.312 366.023 589.312 367.556ZM630 346.37V400.296C630 402.339 629.183 404.299 627.73 405.744C626.277 407.188 624.305 408 622.25 408H544.75C542.695 408 540.723 407.188 539.27 405.744C537.817 404.299 537 402.339 537 400.296V346.37C537 344.327 537.817 342.368 539.27 340.923C540.723 339.478 542.695 338.667 544.75 338.667H562.188V325.185C562.188 319.567 564.433 314.178 568.43 310.205C572.427 306.232 577.848 304 583.5 304C589.152 304 594.573 306.232 598.57 310.205C602.567 314.178 604.812 319.567 604.812 325.185V338.667H622.25C624.305 338.667 626.277 339.478 627.73 340.923C629.183 342.368 630 344.327 630 346.37ZM597.062 367.556C597.065 365.055 596.368 362.602 595.05 360.472C593.731 358.343 591.842 356.62 589.594 355.496C587.346 354.372 584.829 353.892 582.322 354.109C579.816 354.326 577.419 355.232 575.401 356.726C573.383 358.219 571.823 360.241 570.894 362.566C569.966 364.89 569.707 367.426 570.145 369.888C570.583 372.351 571.702 374.644 573.376 376.511C575.05 378.378 577.214 379.745 579.625 380.459V388.741C579.625 389.762 580.033 390.742 580.76 391.464C581.487 392.187 582.472 392.593 583.5 392.593C584.528 392.593 585.513 392.187 586.24 391.464C586.967 390.742 587.375 389.762 587.375 388.741V380.459C590.175 379.637 592.633 377.936 594.379 375.61C596.125 373.284 597.067 370.458 597.062 367.556ZM597.062 325.185C597.062 321.61 595.634 318.181 593.09 315.652C590.547 313.124 587.097 311.704 583.5 311.704C579.903 311.704 576.453 313.124 573.91 315.652C571.366 318.181 569.938 321.61 569.938 325.185V338.667H597.062V325.185Z" fill="white"/>
</g>
</g>
<defs>
<filter id="filter0_f_4188_24452" x="465" y="336" width="235" height="220" filterUnits="userSpaceOnUse" color-interpolation-filters="sRGB">
<feFlood flood-opacity="0" result="BackgroundImageFix"/>
<feBlend mode="normal" in="SourceGraphic" in2="BackgroundImageFix" result="shape"/>
<feGaussianBlur stdDeviation="24" result="effect1_foregroundBlur_4188_24452"/>
</filter>
<filter id="filter1_f_4188_24452" x="302" y="176" width="235" height="132" filterUnits="userSpaceOnUse" color-interpolation-filters="sRGB">
<feFlood flood-opacity="0" result="BackgroundImageFix"/>
<feBlend mode="normal" in="SourceGraphic" in2="BackgroundImageFix" result="shape"/>
<feGaussianBlur stdDeviation="24" result="effect1_foregroundBlur_4188_24452"/>
</filter>
<filter id="filter2_f_4188_24452" x="337" y="302" width="253" height="220" filterUnits="userSpaceOnUse" color-interpolation-filters="sRGB">
<feFlood flood-opacity="0" result="BackgroundImageFix"/>
<feBlend mode="normal" in="SourceGraphic" in2="BackgroundImageFix" result="shape"/>
<feGaussianBlur stdDeviation="24" result="effect1_foregroundBlur_4188_24452"/>
</filter>
<filter id="filter3_f_4188_24452" x="399" y="78" width="369" height="220" filterUnits="userSpaceOnUse" color-interpolation-filters="sRGB">
<feFlood flood-opacity="0" result="BackgroundImageFix"/>
<feBlend mode="normal" in="SourceGraphic" in2="BackgroundImageFix" result="shape"/>
<feGaussianBlur stdDeviation="24" result="effect1_foregroundBlur_4188_24452"/>
</filter>
<filter id="filter4_d_4188_24452" x="355.036" y="100.69" width="513.929" height="388.929" filterUnits="userSpaceOnUse" color-interpolation-filters="sRGB">
<feFlood flood-opacity="0" result="BackgroundImageFix"/>
<feColorMatrix in="SourceAlpha" type="matrix" values="0 0 0 0 0 0 0 0 0 0 0 0 0 0 0 0 0 0 127 0" result="hardAlpha"/>
<feOffset dy="12.6548"/>
<feGaussianBlur stdDeviation="18.9821"/>
<feComposite in2="hardAlpha" operator="out"/>
<feColorMatrix type="matrix" values="0 0 0 0 0 0 0 0 0 0 0 0 0 0 0 0 0 0 0.2 0"/>
<feBlend mode="normal" in2="BackgroundImageFix" result="effect1_dropShadow_4188_24452"/>
<feBlend mode="normal" in="SourceGraphic" in2="effect1_dropShadow_4188_24452" result="shape"/>
</filter>
<filter id="filter5_d_4188_24452" x="537" y="304" width="93" height="110" filterUnits="userSpaceOnUse" color-interpolation-filters="sRGB">
<feFlood flood-opacity="0" result="BackgroundImageFix"/>
<feColorMatrix in="SourceAlpha" type="matrix" values="0 0 0 0 0 0 0 0 0 0 0 0 0 0 0 0 0 0 127 0" result="hardAlpha"/>
<feOffset dy="6"/>
<feComposite in2="hardAlpha" operator="out"/>
<feColorMatrix type="matrix" values="0 0 0 0 0.411649 0 0 0 0 0.754167 0 0 0 0 0.539577 0 0 0 1 0"/>
<feBlend mode="normal" in2="BackgroundImageFix" result="effect1_dropShadow_4188_24452"/>
<feBlend mode="normal" in="SourceGraphic" in2="effect1_dropShadow_4188_24452" result="shape"/>
</filter>
<clipPath id="clip0_4188_24452">
<rect width="760" height="560" rx="8" fill="white"/>
</clipPath>
<clipPath id="clip1_4188_24452">
<rect width="288" height="140" fill="white" transform="translate(32 32)"/>
</clipPath>
</defs>
</svg>
