<svg width="609" height="448" viewBox="0 0 609 448" fill="none" xmlns="http://www.w3.org/2000/svg">
<g clip-path="url(#clip0_30215_28998)">
<rect x="0.600098" width="608" height="448" rx="6.4" fill="#FECC31"/>
<path fill-rule="evenodd" clip-rule="evenodd" d="M45.4474 39.4173C54.1299 36.2317 63.0994 33.6682 72.3113 32.6478C79.4058 31.9559 86.5843 31.6772 93.6788 32.5284C95.9744 32.8818 98.6855 33.275 100.14 35.3208C100.823 38.3969 100.872 42.7971 97.602 44.4347C96.4493 44.4396 95.2966 43.6582 94.1686 44.0265C93.1296 44.9225 92.7982 46.3361 92.3034 47.5606C90.4284 53.1105 89.1668 58.8447 87.8657 64.554C85.1744 76.0123 83.5863 87.7195 82.9283 99.4715C82.7106 102.886 82.4187 106.808 79.6828 109.223C78.1541 110.442 75.9525 111.622 74.0181 110.676C72.8407 110.158 71.5841 109.377 71.2922 108.013C70.0702 103.951 70.0504 99.6457 70.3225 95.4447C71.5099 81.0944 75.1956 67.1224 78.2827 53.1006C78.8418 50.3381 79.8214 47.6153 79.6432 44.7483C77.2042 45.1365 74.8394 45.9827 72.3509 46.0325C69.1896 46.2614 65.7809 46.4108 63.0598 48.2475C61.9318 48.9742 61.5064 50.3381 61.4025 51.6073C60.7148 58.2972 60.1409 65.0218 58.6815 71.6022C56.9647 79.7952 55.0353 87.9485 52.8139 96.022C52.1658 99.2973 50.6173 102.587 47.8221 104.529C46.2192 105.688 44.1314 105.315 42.4196 104.638C41.8952 103.289 41.4104 101.896 41.3361 100.437C40.8216 93.1251 42.6769 85.9226 44.7498 78.9839C45.4771 76.2114 45.5908 73.3244 46.2686 70.537C47.5055 63.9268 49.6674 57.4958 50.5382 50.8159C46.0064 52.1001 41.4846 53.9468 36.7055 53.8223C34.8749 53.7775 32.6981 52.7223 32.6041 50.6417C32.5299 48.0086 33.4798 45.1664 35.5626 43.469C38.4271 41.2241 42.1178 40.6617 45.4474 39.4173ZM222.408 50.3132C223.536 49.6511 225 49.5715 226.163 50.2136C228.449 51.4331 230.299 53.3097 232.105 55.1464C233.396 54.5092 234.613 53.6083 236.053 53.3495C237.458 53.8671 238.338 55.2409 239.199 56.4057C242.969 62.3837 244.364 69.5663 244.627 76.5499C244.587 85.0217 242.118 93.593 237.171 100.497C234.326 104.255 230.734 107.675 226.242 109.292C223.229 110.402 219.801 110.492 216.808 109.267C210.98 107.072 206.666 101.597 205.439 95.5094C202.396 81.4975 206.987 66.4504 216.199 55.6989C218.045 53.678 219.989 51.6471 222.408 50.3132ZM222.596 66.0223C217.134 74.305 214.537 84.5538 215.65 94.4491C215.982 97.2416 216.832 100.527 219.682 101.721C224.387 100.173 226.955 95.4994 229.117 91.3631C233.04 83.0057 235.281 73.1353 232.288 64.1209C231.704 62.5629 230.72 60.3429 228.681 60.7262C225.94 61.3534 224.194 63.887 222.596 66.0223ZM306.28 52.0254C306.765 50.8557 307.735 49.233 309.248 49.915C311.564 50.9802 313.572 52.6675 315.324 54.5142C316.64 55.7238 316.046 57.6501 315.675 59.1483C312.9 68.3269 310.124 77.5304 308.393 86.9778C316.353 77.1472 324.635 67.5554 333.456 58.4963C335.89 56.1767 338.156 53.5685 341.094 51.8811C342.702 50.8308 344.429 52.334 345.448 53.5336C346.606 55.0319 348.124 56.8387 347.6 58.8746C346.729 61.2439 344.666 62.8417 342.959 64.5888C341.881 65.6291 341.737 67.2169 341.282 68.5758C339.096 76.0123 337.908 83.7076 337.216 91.4228C336.548 97.2416 336.558 103.125 335.776 108.934C335.662 109.875 335.425 110.87 334.752 111.572C333.213 112.249 331.541 111.418 330.156 110.741C327.544 109.352 324.803 107.371 324.08 104.315C323.576 101.458 324.056 98.5457 324.6 95.7333C325.802 89.82 327.222 83.9565 328.513 78.063C323.027 84.3198 317.926 90.9001 312.83 97.4705C310.396 100.651 307.819 103.727 305.701 107.137C304.727 108.546 303.539 110.512 301.536 110.128C299.032 109.685 296.9 108.038 295.06 106.36C293.62 105.156 294.253 103.11 294.337 101.497C296.113 89.611 299.388 78.0232 302.312 66.3807C303.663 61.6072 304.365 56.6247 306.28 52.0254ZM357.806 50.0892C358.454 49.4023 359.419 49.9946 360.052 50.3978C361.932 51.7069 363.659 53.2748 365.079 55.0817C366.019 56.1618 365.346 57.6401 364.901 58.78C362.907 63.1851 361.091 67.7595 360.384 72.5728C360.201 74.0213 360.26 76.51 362.279 76.4055C366.034 76.3657 369.675 75.2258 373.242 74.1407C375.087 67.7595 376.873 61.2936 379.832 55.3256C380.465 54.345 381.272 52.5033 382.716 53.0508C384.997 54.2355 387.129 55.8134 388.861 57.7347C390.236 59.437 388.613 61.5176 388.054 63.2249C385.363 70.4872 382.805 77.859 381.524 85.5244C380.688 90.2929 380.064 95.0962 379.446 99.8996C379.05 103.777 379.446 107.884 377.818 111.522C377.393 111.681 376.972 111.841 376.557 112C374.34 110.691 372.074 109.471 369.828 108.227C368.275 107.406 367.162 105.708 367.459 103.902C368.201 96.6791 370.076 89.6358 371.619 82.5578C367.543 83.6926 363.501 85.0217 359.32 85.6886C356.857 86.0869 354.724 84.3796 353.186 82.6573C350.855 80.0093 348.782 76.5847 349.396 72.8963C350.237 67.0776 352.181 61.4728 354.442 56.0672C355.422 54.0115 356.218 51.7666 357.806 50.0892ZM130.645 52.0702C138.521 50.6168 146.556 50.4675 154.521 49.8104C158.518 49.3475 162.783 51.1992 164.905 54.6934C165.484 55.6839 165.949 56.9532 165.459 58.0732C164.851 58.6058 164.094 58.9293 163.307 59.0886C159.79 59.7854 156.173 59.6063 152.651 60.2583C149.148 71.642 146.229 83.2098 144.334 94.9768C143.375 100.014 143.127 105.196 141.697 110.128C139.07 110.233 136.636 109.038 134.44 107.724C133.292 106.953 131.936 105.962 131.833 104.449C131.64 101.094 132.515 97.809 133.055 94.5288C135.291 83.2098 138.012 71.9904 140.881 60.8208C137.497 60.8855 134.113 61.6869 130.729 61.3086C127.85 60.3828 127.157 57.0179 126.519 54.4396C127.464 53.0359 129.013 52.2992 130.645 52.0702ZM170.056 51.5128C168.289 52.2395 165.969 53.0658 165.509 55.1563C165.786 58.2175 167.038 61.4131 169.684 63.1602C166.736 76.2761 163.228 89.2526 159.859 102.259C159.557 104.036 158.974 106.415 160.552 107.754C162.293 108.829 164.411 108.969 166.325 109.611C167.602 109.909 169.353 110.711 170.367 109.432C171.391 108.137 171.589 106.41 171.94 104.837C173.039 97.8538 173.712 90.7807 175.537 83.9365C177.17 86.1117 178.733 88.7548 181.484 89.596C183.799 89.7653 185.808 88.2023 187.579 86.8882C192.477 82.8415 196.598 77.844 199.641 72.2542C201.189 69.208 202.802 65.649 201.684 62.1896C199.764 56.2016 194.109 52.2594 188.301 50.6218C182.32 49.1534 175.883 49.5665 170.056 51.5128ZM180.252 62.2444C181.563 60.7013 183.824 60.8755 185.654 60.7461C187.97 60.6864 190.988 60.7859 192.195 63.1602C193.15 65.7983 191.388 68.3419 189.785 70.2831C186.179 74.4244 181.568 77.7793 176.378 79.5812C176.893 75.3851 177.808 71.2537 178.659 67.1174C179.089 65.4698 179.277 63.6829 180.252 62.2444ZM254.62 52.3739C258.439 51.2639 262.373 50.6267 266.301 50.0593C272.539 49.2729 279.357 49.8005 284.591 53.6382C289.014 56.5948 291.705 62.2792 290.458 67.5753C289.261 72.752 285.185 76.6992 280.702 79.2079C284.759 81.7215 288.039 86.3955 287.178 91.378C286.258 96.1764 283.478 100.437 280.168 103.926C277.313 106.793 273.895 109.586 269.759 110.104C265.846 110.616 262.6 107.804 260.146 105.096C259.637 106.565 259.315 108.157 258.4 109.442C257.717 110.382 256.367 110.268 255.476 109.73C253.21 108.456 251.147 106.798 249.401 104.877C248.48 104.006 248.664 102.637 248.758 101.502C249.173 99.0783 250.182 96.8085 251.004 94.5089C254.996 84.4741 256.94 73.7574 258.167 63.0657C254.482 62.2045 251.721 58.8049 251.3 55.0767C251.523 53.4192 253.245 52.8019 254.62 52.3739ZM267.384 59.5615C268.057 60.6316 269.145 61.6471 269.076 63.0258C269.14 67.3215 268.156 71.5375 267.533 75.7634C272.421 73.9217 277.215 71.0546 280.183 66.6196C281.623 64.5988 281.444 61.3832 279.164 60.0493C275.636 57.8741 271.204 58.8397 267.384 59.5615ZM265.786 83.842C264.703 89.1978 262.788 94.3297 261.403 99.6059C267.162 99.3271 273.217 96.6542 276.101 91.4178C277.477 89.0585 277.368 85.3452 274.736 83.9316C271.956 82.5428 268.67 83.0854 265.786 83.842ZM107.442 52.4336C103.831 52.8866 100.095 52.9114 96.6373 54.1857C95.44 54.6536 93.9163 55.6391 94.3318 57.1673C94.8266 59.7357 95.4104 63.2001 98.4876 63.7476C97.1963 67.2369 95.6676 70.6266 94.3863 74.1208C92.719 78.8296 91.5416 83.6976 90.4284 88.5607C89.4637 93.1201 88.4792 97.7841 88.9591 102.468C89.2658 105.076 90.6263 107.799 93.1593 108.834C97.32 110.79 102.04 110.158 106.438 109.611C110.376 108.974 114.354 108.332 118.119 106.968C119.42 106.569 120.266 105.255 120.053 103.892C119.87 102.289 119.974 100.333 118.702 99.1479C116.342 98.7249 114.111 99.8199 111.895 100.442C108.377 101.467 104.667 101.751 101.026 101.547C99.2247 101.467 99.2891 99.2674 99.4325 97.9533C100.076 93.3292 101.209 88.7648 102.812 84.3845C106.913 84.2949 111.029 84.3298 115.12 84.0461C116.06 83.9067 117.649 83.7872 117.619 82.503C117.654 80.8306 117.748 79.1282 117.51 77.4707C116.847 76.7639 115.937 76.3259 114.977 76.2313C111.435 75.6887 107.858 76.3707 104.306 76.4503C105.473 72.6126 106.873 68.8496 108.377 65.1313C109.075 63.6381 109.678 61.6122 111.534 61.2688C116.372 60.2633 121.265 61.7765 126.133 61.3136C125.698 59.0786 124.387 57.1822 123.11 55.3604C122.037 53.7327 120.439 52.349 118.435 52.1598C114.784 51.7019 111.098 52.2693 107.442 52.4336Z" fill="#EE1D23"/>
<g filter="url(#filter0_d_30215_28998)">
<path d="M304.6 169.079C304.6 161.042 311.115 154.527 319.152 154.527H653.857C661.894 154.527 668.41 161.042 668.41 169.079V448H304.6V169.079Z" fill="white"/>
<path d="M304.6 169.079C304.6 161.042 311.115 154.527 319.152 154.527H653.857C661.894 154.527 668.41 161.042 668.41 169.079V448H304.6V169.079Z" fill="url(#paint0_linear_30215_28998)" fill-opacity="0.2"/>
</g>
<path d="M304.6 169.079C304.6 161.042 311.115 154.527 319.152 154.527H653.857C661.894 154.527 668.41 161.042 668.41 169.079V187.27H304.6V169.079Z" fill="#323333"/>
<rect x="304.6" y="187.27" width="363.81" height="48.5079" fill="#FFD860"/>
<rect x="320.365" y="201.822" width="90.9524" height="19.4032" rx="9.70159" fill="#EE1D23"/>
<rect x="320.365" y="269.733" width="230.413" height="19.4032" rx="9.70159" fill="#DDDDDD"/>
<rect x="320.365" y="296.413" width="147.949" height="19.4032" rx="9.70159" fill="#DDDDDD"/>
<path d="M320.365 387.365C320.365 379.328 326.881 372.813 334.918 372.813H536.226C544.263 372.813 550.778 379.328 550.778 387.365V448H320.365V387.365Z" fill="#FFE8A4"/>
<path d="M575.032 284.286C575.032 276.918 581.004 270.946 588.372 270.946H638.092C645.46 270.946 651.432 276.918 651.432 284.286V460.127H575.032V284.286Z" stroke="#DDDDDD" stroke-width="2.4254"/>
<rect x="418.594" y="201.822" width="40.0191" height="19.4032" rx="9.70159" fill="#DFB42F"/>
<rect x="322.791" y="169.079" width="37.5937" height="3.6381" rx="1.81905" fill="#5C5C5C"/>
<rect x="587.159" y="281.86" width="15.7651" height="3.6381" rx="1.81905" fill="#DDDDDD"/>
<rect x="322.791" y="251.543" width="191.606" height="3.6381" rx="1.81905" fill="#E9E9E9"/>
<rect x="367.661" y="169.079" width="59.4222" height="3.6381" rx="1.81905" fill="#5C5C5C"/>
<rect x="434.359" y="169.079" width="24.254" height="3.6381" rx="1.81905" fill="#5C5C5C"/>
<rect x="596.524" y="169.079" width="46.0825" height="3.6381" rx="1.81905" fill="#FFD860"/>
<path d="M327.701 333.918C328.064 332.801 329.644 332.801 330.007 333.918L330.488 335.396C330.65 335.896 331.116 336.234 331.641 336.234H333.195C334.37 336.234 334.858 337.737 333.908 338.428L332.651 339.341C332.226 339.65 332.048 340.198 332.21 340.697L332.69 342.175C333.053 343.293 331.775 344.222 330.824 343.531L329.567 342.618C329.142 342.309 328.566 342.309 328.141 342.618L326.884 343.531C325.934 344.222 324.655 343.293 325.018 342.175L325.498 340.697C325.66 340.198 325.483 339.65 325.058 339.341L323.8 338.428C322.85 337.737 323.338 336.234 324.513 336.234H326.067C326.593 336.234 327.058 335.896 327.221 335.396L327.701 333.918Z" fill="#FAC82F"/>
<path d="M345.891 333.918C346.254 332.801 347.835 332.801 348.198 333.918L348.678 335.396C348.841 335.896 349.306 336.234 349.832 336.234H351.386C352.56 336.234 353.049 337.737 352.098 338.428L350.841 339.341C350.416 339.65 350.238 340.198 350.401 340.697L350.881 342.175C351.244 343.293 349.965 344.222 349.015 343.531L347.757 342.618C347.332 342.309 346.757 342.309 346.332 342.618L345.074 343.531C344.124 344.222 342.845 343.293 343.208 342.175L343.689 340.697C343.851 340.198 343.673 339.65 343.248 339.341L341.991 338.428C341.04 337.737 341.529 336.234 342.703 336.234H344.258C344.783 336.234 345.249 335.896 345.411 335.396L345.891 333.918Z" fill="#FAC82F"/>
<path d="M364.082 333.918C364.445 332.801 366.025 332.801 366.388 333.918L366.869 335.396C367.031 335.896 367.497 336.234 368.022 336.234H369.576C370.751 336.234 371.239 337.737 370.289 338.428L369.032 339.341C368.607 339.65 368.429 340.197 368.591 340.697L369.071 342.175C369.434 343.292 368.156 344.222 367.205 343.531L365.948 342.618C365.523 342.309 364.947 342.309 364.522 342.618L363.265 343.531C362.314 344.222 361.036 343.292 361.399 342.175L361.879 340.697C362.041 340.197 361.863 339.65 361.438 339.341L360.181 338.428C359.231 337.737 359.719 336.234 360.894 336.234H362.448C362.973 336.234 363.439 335.896 363.601 335.396L364.082 333.918Z" fill="#FAC82F"/>
<path d="M382.272 333.918C382.635 332.801 384.216 332.801 384.579 333.918L385.059 335.396C385.221 335.896 385.687 336.234 386.212 336.234H387.767C388.941 336.234 389.43 337.737 388.479 338.428L387.222 339.341C386.797 339.65 386.619 340.198 386.781 340.697L387.262 342.175C387.625 343.293 386.346 344.222 385.396 343.531L384.138 342.618C383.713 342.309 383.138 342.309 382.713 342.618L381.455 343.531C380.505 344.222 379.226 343.293 379.589 342.175L380.069 340.697C380.232 340.198 380.054 339.65 379.629 339.341L378.371 338.428C377.421 337.737 377.91 336.234 379.084 336.234H380.638C381.164 336.234 381.629 335.896 381.792 335.396L382.272 333.918Z" fill="#FAC82F"/>
<path d="M400.462 333.918C400.826 332.801 402.406 332.801 402.769 333.918L403.249 335.396C403.412 335.896 403.877 336.234 404.403 336.234H405.957C407.132 336.234 407.62 337.737 406.67 338.428L405.412 339.341C404.987 339.65 404.81 340.197 404.972 340.697L405.452 342.175C405.815 343.292 404.536 344.222 403.586 343.531L402.329 342.618C401.904 342.309 401.328 342.309 400.903 342.618L399.646 343.531C398.695 344.222 397.417 343.292 397.78 342.175L398.26 340.697C398.422 340.197 398.244 339.65 397.819 339.341L396.562 338.428C395.612 337.737 396.1 336.234 397.275 336.234H398.829C399.354 336.234 399.82 335.896 399.982 335.396L400.462 333.918Z" fill="#FAC82F"/>
<path d="M411.8 312.2L527 329.6V264C527 260.465 524.134 257.6 520.6 257.6H418.2C414.665 257.6 411.8 260.465 411.8 264V312.2Z" fill="#593D13"/>
<rect x="411.8" y="196" width="115.2" height="61.6" rx="6.4" fill="#8D5809"/>
<rect x="411.8" y="146.4" width="115.2" height="49.6" rx="6.4" fill="#C0842A"/>
<rect x="419.912" y="153.61" width="55.2757" height="12.0165" rx="6.00823" fill="#E0A64F"/>
<rect x="419.912" y="202.877" width="55.2757" height="12.0165" rx="6.00823" fill="#73490A"/>
<rect x="419.912" y="265.363" width="55.2757" height="12.0165" rx="6.00823" fill="#73490A"/>
<rect x="419.912" y="177.643" width="37.251" height="3.60494" rx="1.80247" fill="#E0A64F"/>
<rect x="419.912" y="232.919" width="26.4362" height="3.60494" rx="1.80247" fill="#73490A"/>
<rect x="419.912" y="295.404" width="26.4362" height="3.60494" rx="1.80247" fill="#73490A"/>
<rect x="419.912" y="184.853" width="51.6708" height="3.60494" rx="1.80247" fill="#E0A64F"/>
<rect x="419.912" y="240.128" width="37.251" height="3.60494" rx="1.80247" fill="#73490A"/>
<rect x="419.912" y="302.614" width="37.251" height="3.60494" rx="1.80247" fill="#73490A"/>
<rect x="419.912" y="247.338" width="19.2263" height="3.60494" rx="1.80247" fill="#73490A"/>
<rect x="419.912" y="309.824" width="19.2263" height="3.60494" rx="1.80247" fill="#73490A"/>
<path d="M542.48 337.462L562.646 236.859C563.246 233.869 565.872 231.717 568.921 231.717H630.2" stroke="#323333" stroke-width="19.2" stroke-linecap="round"/>
<path d="M397.081 381.923H558.835C569.712 381.923 578.529 373.105 578.529 362.228V362.228C578.529 352.418 571.309 344.103 561.595 342.728L397.081 319.437" stroke="#323333" stroke-width="19.2" stroke-linecap="round"/>
<circle cx="434.332" cy="421.577" r="16.823" stroke="#323333" stroke-width="19.2" stroke-linecap="round"/>
<ellipse cx="550.291" cy="421.577" rx="16.2222" ry="16.823" stroke="#323333" stroke-width="19.2" stroke-linecap="round"/>
</g>
<defs>
<filter id="filter0_d_30215_28998" x="268.219" y="130.273" width="436.571" height="366.235" filterUnits="userSpaceOnUse" color-interpolation-filters="sRGB">
<feFlood flood-opacity="0" result="BackgroundImageFix"/>
<feColorMatrix in="SourceAlpha" type="matrix" values="0 0 0 0 0 0 0 0 0 0 0 0 0 0 0 0 0 0 127 0" result="hardAlpha"/>
<feOffset dy="12.127"/>
<feGaussianBlur stdDeviation="18.1905"/>
<feComposite in2="hardAlpha" operator="out"/>
<feColorMatrix type="matrix" values="0 0 0 0 0.7625 0 0 0 0 0.591965 0 0 0 0 0.0667188 0 0 0 1 0"/>
<feBlend mode="normal" in2="BackgroundImageFix" result="effect1_dropShadow_30215_28998"/>
<feBlend mode="normal" in="SourceGraphic" in2="effect1_dropShadow_30215_28998" result="shape"/>
</filter>
<linearGradient id="paint0_linear_30215_28998" x1="486.505" y1="448" x2="486.505" y2="333.4" gradientUnits="userSpaceOnUse">
<stop stop-color="#FECC31"/>
<stop offset="1" stop-color="#FECC31" stop-opacity="0"/>
</linearGradient>
<clipPath id="clip0_30215_28998">
<rect x="0.600098" width="608" height="448" rx="6.4" fill="white"/>
</clipPath>
</defs>
</svg>
