<svg width="608" height="448" viewBox="0 0 608 448" fill="none" xmlns="http://www.w3.org/2000/svg">
<g clip-path="url(#clip0_30215_28871)">
<rect width="608" height="448" rx="6.4" fill="#F3F3F3"/>
<path d="M506.8 179.2C525.136 179.2 540 164.336 540 146C540 127.664 525.136 112.8 506.8 112.8C488.464 112.8 473.6 127.664 473.6 146C473.6 164.336 488.464 179.2 506.8 179.2Z" fill="#E1E1E1"/>
<path d="M416.4 112.8C425.015 112.8 432 105.816 432 97.2C432 88.5843 425.015 81.6 416.4 81.6C407.784 81.6 400.8 88.5843 400.8 97.2C400.8 105.816 407.784 112.8 416.4 112.8Z" fill="#E1E1E1"/>
<path d="M493.2 416.8C501.816 416.8 508.8 409.816 508.8 401.2C508.8 392.584 501.816 385.6 493.2 385.6C484.584 385.6 477.6 392.584 477.6 401.2C477.6 409.816 484.584 416.8 493.2 416.8Z" fill="#E1E1E1"/>
<path d="M545.2 86.4C556.908 86.4 566.4 76.9084 566.4 65.2C566.4 53.4916 556.908 44 545.2 44C533.492 44 524 53.4916 524 65.2C524 76.9084 533.492 86.4 545.2 86.4Z" fill="#E1E1E1"/>
<path d="M468 40.8C483.022 40.8 495.2 28.6222 495.2 13.6C495.2 -1.42212 483.022 -13.6 468 -13.6C452.978 -13.6 440.8 -1.42212 440.8 13.6C440.8 28.6222 452.978 40.8 468 40.8Z" fill="#E1E1E1"/>
<path d="M381.6 467.2C396.622 467.2 408.8 455.022 408.8 440C408.8 424.978 396.622 412.8 381.6 412.8C366.578 412.8 354.4 424.978 354.4 440C354.4 455.022 366.578 467.2 381.6 467.2Z" fill="#E1E1E1"/>
<g filter="url(#filter0_d_30215_28871)">
<rect x="311.2" y="145.6" width="304" height="250.4" rx="12.1486" fill="#FDFDFD"/>
</g>
<path d="M311.2 157.749C311.2 151.039 316.639 145.6 323.349 145.6H369.452C376.161 145.6 381.6 151.039 381.6 157.749V396H323.349C316.639 396 311.2 390.561 311.2 383.851V157.749Z" fill="#323333"/>
<path d="M311.2 157.749C311.2 151.039 316.639 145.6 323.349 145.6H603.052C609.761 145.6 615.2 151.039 615.2 157.749V173.6H311.2V157.749Z" fill="#00AAFF"/>
<circle cx="327.904" cy="160.279" r="3.54333" fill="white"/>
<circle cx="338.028" cy="160.279" r="3.54333" fill="white"/>
<circle cx="348.152" cy="160.279" r="3.54333" fill="white"/>
<rect x="323.349" y="188.12" width="40.4952" height="7.08666" rx="3.54333" fill="#525454"/>
<rect x="323.349" y="202.293" width="28.3466" height="7.08666" rx="3.54333" fill="#525454"/>
<rect x="323.349" y="216.467" width="34.4209" height="7.08666" rx="3.54333" fill="#525454"/>
<rect x="323.349" y="230.64" width="40.4952" height="7.08666" rx="3.54333" fill="#525454"/>
<rect x="323.349" y="244.813" width="18.2228" height="7.08666" rx="3.54333" fill="#525454"/>
<rect x="323.349" y="258.987" width="34.4209" height="7.08666" rx="3.54333" fill="#525454"/>
<rect x="323.349" y="273.16" width="44.5447" height="7.08666" rx="3.54333" fill="#525454"/>
<rect x="396.24" y="354.15" width="40.4952" height="21.26" rx="10.63" fill="#DCDCDC"/>
<rect x="444.834" y="359.212" width="43.5323" height="3.03714" rx="1.51857" fill="#DCDCDC"/>
<rect x="444.834" y="366.299" width="64.7923" height="3.03714" rx="1.51857" fill="#DCDCDC"/>
<rect x="396.24" y="322.767" width="40.4952" height="21.26" rx="10.63" fill="#DCDCDC"/>
<rect x="444.834" y="327.828" width="73.9038" height="3.03714" rx="1.51857" fill="#DCDCDC"/>
<rect x="444.834" y="334.915" width="64.7923" height="3.03714" rx="1.51857" fill="#DCDCDC"/>
<rect x="396.24" y="291.383" width="40.4952" height="21.26" rx="10.63" fill="#DCDCDC"/>
<path d="M485.329 234.69C485.329 225.879 482.717 217.267 477.822 209.942C472.927 202.616 465.97 196.907 457.831 193.536C449.692 190.164 440.735 189.282 432.094 191.001C423.453 192.719 415.516 196.962 409.287 203.192L440.784 234.69H485.329Z" fill="#E0CCFF"/>
<path d="M398.892 249.831C402.461 259.705 409.403 268.001 418.493 273.255C427.583 278.509 438.237 280.384 448.574 278.548C458.912 276.712 468.268 271.283 474.993 263.22C481.718 255.157 485.378 244.978 485.329 234.479L440.784 234.69L398.892 249.831Z" fill="#A2E0FF"/>
<path d="M409.287 203.192C403.129 209.35 398.911 217.178 397.155 225.708C395.399 234.238 396.182 243.095 399.407 251.185L440.784 234.69L409.287 203.192Z" fill="#E8F9C6"/>
<path d="M550.31 330.309C577.392 303.227 577.392 259.318 550.31 232.236C523.228 205.154 479.319 205.154 452.237 232.236C425.155 259.318 425.155 303.227 452.237 330.309C479.319 357.391 523.228 357.391 550.31 330.309Z" fill="white" fill-opacity="0.5"/>
<path d="M544.583 237.963C568.502 261.882 568.502 300.663 544.583 324.582C520.663 348.502 481.883 348.502 457.964 324.582C434.044 300.663 434.044 261.882 457.964 237.963C481.883 214.044 520.663 214.044 544.583 237.963Z" stroke="#39225B" stroke-width="16.1981"/>
<rect x="547.088" y="333.531" width="8.09904" height="27.3343" transform="rotate(-45 547.088 333.531)" fill="#39225B"/>
<rect x="555.679" y="352.143" width="22.2724" height="96.2898" rx="11.1362" transform="rotate(-45 555.679 352.143)" fill="#A169F7"/>
<rect x="555.679" y="352.143" width="22.2724" height="96.2898" rx="11.1362" transform="rotate(-45 555.679 352.143)" fill="url(#paint0_linear_30215_28871)" fill-opacity="0.3"/>
<path d="M501.401 319.871C522.648 319.871 539.872 302.647 539.872 281.401C539.872 260.154 522.648 242.93 501.401 242.93C480.154 242.93 462.931 260.154 462.931 281.401C462.931 302.647 480.154 319.871 501.401 319.871Z" fill="#97CF26"/>
<path d="M482.166 283.638L496.232 295.574L523.674 268.24" stroke="white" stroke-width="6.07428"/>
<path d="M91.4719 113.504C103.64 113.504 113.504 103.64 113.504 91.4719C113.504 79.304 103.64 69.4399 91.4719 69.4399C79.304 69.4399 69.4399 79.304 69.4399 91.4719C69.4399 103.64 79.304 113.504 91.4719 113.504Z" fill="#97CF26"/>
<path d="M50.0961 101.696C55.7426 101.696 60.3201 97.1186 60.3201 91.472C60.3201 85.8255 55.7426 81.248 50.0961 81.248C44.4495 81.248 39.8721 85.8255 39.8721 91.472C39.8721 97.1186 44.4495 101.696 50.0961 101.696Z" fill="#A169F7"/>
<path d="M91.472 64.256C99.2924 64.256 105.632 57.9164 105.632 50.096C105.632 42.2757 99.2924 35.936 91.472 35.936C83.6517 35.936 77.312 42.2757 77.312 50.096C77.312 57.9164 83.6517 64.256 91.472 64.256Z" fill="#FF6163"/>
<path d="M50.096 68.192C60.0901 68.192 68.192 60.0901 68.192 50.096C68.192 40.1018 60.0901 32 50.096 32C40.1019 32 32 40.1018 32 50.096C32 60.0901 40.1019 68.192 50.096 68.192Z" fill="#00AAFF"/>
<path d="M170.672 101.6H182.096L160.928 44H152.624L131.456 101.6H142.928L146.96 90.608H166.64L170.672 101.6L150.128 81.92L156.8 63.824L163.472 81.92H150.128L170.672 101.6Z" fill="black"/>
<path d="M210.416 62.24L199.904 90.848L189.392 62.24H178.64L193.088 101.6H206.672L221.12 62.24H210.416Z" fill="black"/>
<path d="M225.68 62.24H236.432V101.6H225.68V62.24Z" fill="black"/>
<path d="M231.056 57.776C234.873 57.776 237.968 54.6814 237.968 50.864C237.968 47.0466 234.873 43.952 231.056 43.952C227.239 43.952 224.144 47.0466 224.144 50.864C224.144 54.6814 227.239 57.776 231.056 57.776Z" fill="black"/>
<path d="M274.304 70.928V62.24H261.44V51.392H250.688V62.24H242.192V70.928H250.688V87.872C250.688 96.608 255.056 102.416 266.192 102.416C270.512 102.416 274.256 100.832 274.256 100.832L272.96 92.336C272.96 92.336 270.848 92.96 268.256 92.96C265.088 92.96 261.392 91.568 261.392 87.2V70.928H274.304Z" fill="black"/>
<path d="M298.928 92.5759C292.928 92.5759 288.08 87.8239 288.08 81.9679C288.08 76.1119 292.928 71.3599 298.928 71.3599C304.928 71.3599 309.776 76.1119 309.776 81.9679C309.776 87.8239 304.928 92.5759 298.928 92.5759ZM298.928 61.2319C287.312 61.2319 277.856 70.4479 277.856 81.8239C277.856 93.1999 287.312 102.416 298.928 102.416C310.544 102.416 320 93.1999 320 81.8239C320 70.4479 310.544 61.2319 298.928 61.2319Z" fill="black"/>
</g>
<defs>
<filter id="filter0_d_30215_28871" x="280.829" y="125.352" width="364.743" height="311.143" filterUnits="userSpaceOnUse" color-interpolation-filters="sRGB">
<feFlood flood-opacity="0" result="BackgroundImageFix"/>
<feColorMatrix in="SourceAlpha" type="matrix" values="0 0 0 0 0 0 0 0 0 0 0 0 0 0 0 0 0 0 127 0" result="hardAlpha"/>
<feOffset dy="10.1238"/>
<feGaussianBlur stdDeviation="15.1857"/>
<feComposite in2="hardAlpha" operator="out"/>
<feColorMatrix type="matrix" values="0 0 0 0 0.7625 0 0 0 0 0.7625 0 0 0 0 0.7625 0 0 0 1 0"/>
<feBlend mode="normal" in2="BackgroundImageFix" result="effect1_dropShadow_30215_28871"/>
<feBlend mode="normal" in="SourceGraphic" in2="effect1_dropShadow_30215_28871" result="shape"/>
</filter>
<linearGradient id="paint0_linear_30215_28871" x1="558.731" y1="385.568" x2="575.217" y2="385.161" gradientUnits="userSpaceOnUse">
<stop/>
<stop offset="1" stop-opacity="0"/>
</linearGradient>
<clipPath id="clip0_30215_28871">
<rect width="608" height="448" rx="6.4" fill="white"/>
</clipPath>
</defs>
</svg>
