<svg width="760" height="560" viewBox="0 0 760 560" fill="none" xmlns="http://www.w3.org/2000/svg">
<g clip-path="url(#clip0_4188_24614)">
<rect width="760" height="560" rx="8" fill="#FECC31"/>
<path fill-rule="evenodd" clip-rule="evenodd" d="M63.0591 57.2716C73.9123 53.2896 85.1241 50.0853 96.639 48.8098C105.507 47.9449 114.48 47.5965 123.348 48.6604C126.218 49.1022 129.607 49.5937 131.425 52.151C132.278 55.9961 132.34 61.4963 128.252 63.5433C126.812 63.5496 125.371 62.5727 123.961 63.0331C122.662 64.1531 122.248 65.9201 121.629 67.4507C119.285 74.3882 117.708 81.5559 116.082 88.6924C112.718 103.015 110.733 117.649 109.91 132.339C109.638 136.608 109.273 141.511 105.853 144.528C103.943 146.053 101.191 147.527 98.7726 146.345C97.3007 145.698 95.73 144.721 95.3651 143.016C93.8376 137.939 93.8129 132.557 94.153 127.306C95.6372 109.368 100.244 91.903 104.103 74.3757C104.802 70.9226 106.027 67.5192 105.804 63.9353C102.755 64.4206 99.7991 65.4784 96.6885 65.5406C92.7368 65.8268 88.476 66.0134 85.0747 68.3093C83.6647 69.2178 83.1328 70.9226 83.003 72.5092C82.1434 80.8715 81.426 89.2773 79.6017 97.5027C77.4558 107.744 75.044 117.936 72.2673 128.028C71.4572 132.122 69.5215 136.234 66.0275 138.661C64.0238 140.111 61.4141 139.644 59.2744 138.798C58.6189 137.112 58.0128 135.369 57.9201 133.546C57.2769 124.406 59.596 115.403 62.1871 106.73C63.0962 103.264 63.2384 99.6555 64.0857 96.1712C65.6317 87.9085 68.3342 79.8697 69.4226 71.5199C63.7579 73.1251 58.1056 75.4335 52.1317 75.2779C49.8436 75.2219 47.1225 73.9029 47.005 71.3021C46.9123 68.0107 48.0996 64.458 50.7032 62.3363C54.2838 59.5302 58.8972 58.8271 63.0591 57.2716ZM284.26 70.8915C285.67 70.0639 287.5 69.9644 288.954 70.767C291.811 72.2914 294.124 74.6371 296.381 76.933C297.995 76.1366 299.516 75.0104 301.316 74.6868C303.072 75.3339 304.173 77.0512 305.249 78.5071C309.961 85.9797 311.705 94.9579 312.033 103.687C311.984 114.277 308.898 124.991 302.713 133.621C299.158 138.319 294.668 142.593 289.053 144.615C285.287 146.003 281.001 146.115 277.26 144.584C269.975 141.84 264.582 134.996 263.048 127.387C259.245 109.872 264.984 91.063 276.499 77.6236C278.806 75.0975 281.236 72.5589 284.26 70.8915ZM284.495 90.5279C277.668 100.881 274.421 113.692 275.812 126.061C276.227 129.552 277.29 133.658 280.853 135.152C286.734 133.217 289.943 127.374 292.646 122.204C297.55 111.757 300.351 99.4191 296.61 88.1511C295.88 86.2037 294.649 83.4287 292.101 83.9078C288.675 84.6917 286.492 87.8587 284.495 90.5279ZM389.1 73.0318C389.706 71.5696 390.918 69.5413 392.81 70.3937C395.705 71.7252 398.215 73.8344 400.405 76.1428C402.05 77.6547 401.307 80.0626 400.844 81.9354C397.374 93.4087 393.905 104.913 391.741 116.722C401.691 104.434 412.043 92.4443 423.069 81.1203C426.112 78.2209 428.944 74.9606 432.618 72.8514C434.628 71.5385 436.786 73.4176 438.06 74.917C439.507 76.7899 441.405 79.0484 440.75 81.5932C439.662 84.5548 437.083 86.5521 434.949 88.736C433.601 90.0364 433.422 92.0212 432.853 93.7198C430.119 103.015 428.635 112.634 427.769 122.278C426.935 129.552 426.947 136.906 425.97 144.167C425.828 145.343 425.531 146.588 424.69 147.465C422.766 148.311 420.676 147.272 418.945 146.426C415.679 144.69 412.253 142.214 411.35 138.393C410.72 134.822 411.32 131.182 412 127.667C413.503 120.275 415.277 112.946 416.892 105.579C410.033 113.4 403.657 121.625 397.288 129.838C394.245 133.814 391.023 137.659 388.376 141.921C387.158 143.682 385.674 146.14 383.169 145.661C380.04 145.107 377.375 143.047 375.074 140.951C373.275 139.445 374.066 136.888 374.171 134.872C376.391 120.014 380.485 105.529 384.14 90.9759C385.828 85.009 386.707 78.7809 389.1 73.0318ZM453.508 70.6115C454.318 69.7528 455.524 70.4932 456.315 70.9972C458.665 72.6336 460.824 74.5935 462.599 76.8521C463.774 78.2022 462.933 80.0502 462.376 81.475C459.884 86.9814 457.614 92.6994 456.73 98.716C456.501 100.527 456.575 103.638 459.098 103.507C463.792 103.457 468.344 102.032 472.802 100.676C475.109 92.6994 477.342 84.6171 481.04 77.157C481.831 75.9312 482.839 73.6291 484.645 74.3135C487.496 75.7943 490.161 77.7667 492.326 80.1684C494.045 82.2963 492.017 84.897 491.318 87.0312C487.954 96.109 484.756 105.324 483.155 114.905C482.11 120.866 481.33 126.87 480.557 132.874C480.063 137.721 480.557 142.854 478.523 147.403C477.991 147.602 477.465 147.801 476.946 148C474.175 146.364 471.343 144.839 468.535 143.284C466.594 142.257 465.202 140.135 465.573 137.877C466.501 128.849 468.845 120.045 470.774 111.197C465.678 112.616 460.626 114.277 455.4 115.111C452.321 115.609 449.655 113.474 447.732 111.322C444.819 108.012 442.228 103.731 442.995 99.1204C444.046 91.847 446.476 84.841 449.303 78.084C450.527 75.5144 451.523 72.7083 453.508 70.6115ZM169.556 73.0878C179.402 71.271 189.445 71.0843 199.401 70.263C204.398 69.6844 209.729 71.999 212.382 76.3668C213.105 77.6049 213.686 79.1915 213.074 80.5915C212.314 81.2572 211.367 81.6616 210.384 81.8607C205.987 82.7318 201.467 82.5078 197.063 83.3229C192.685 97.5525 189.036 112.012 186.668 126.721C185.468 133.018 185.159 139.495 183.372 145.661C180.088 145.791 177.045 144.298 174.3 142.655C172.865 141.691 171.17 140.453 171.041 138.561C170.799 134.368 171.894 130.261 172.568 126.161C175.363 112.012 178.765 97.988 182.351 84.026C178.121 84.1069 173.891 85.1086 169.661 84.6357C166.062 83.4784 165.197 79.2724 164.399 76.0494C165.58 74.2949 167.516 73.374 169.556 73.0878ZM218.819 72.3909C216.612 73.2993 213.711 74.3322 213.136 76.9454C213.482 80.7719 215.047 84.7664 218.355 86.9503C214.67 103.345 210.285 119.566 206.074 135.824C205.697 138.045 204.967 141.019 206.94 142.693C209.116 144.037 211.763 144.211 214.156 145.013C215.752 145.387 217.941 146.389 219.209 144.789C220.489 143.172 220.736 141.013 221.175 139.047C222.548 130.317 223.389 121.476 225.671 112.921C227.712 115.64 229.666 118.944 233.105 119.995C235.999 120.207 238.51 118.253 240.724 116.61C246.846 111.552 251.997 105.305 255.801 98.3178C257.736 94.51 259.752 90.0613 258.355 85.737C255.955 78.252 248.887 73.3242 241.626 71.2772C234.15 69.4417 226.104 69.9582 218.819 72.3909ZM231.565 85.8055C233.204 83.8766 236.03 84.0944 238.318 83.9326C241.212 83.858 244.984 83.9824 246.493 86.9503C247.687 90.2479 245.485 93.4273 243.482 95.8539C238.973 101.031 233.21 105.224 226.723 107.476C227.366 102.231 228.51 97.0672 229.574 91.8967C230.112 89.8373 230.347 87.6036 231.565 85.8055ZM324.525 73.4673C329.299 72.0798 334.216 71.2834 339.126 70.5741C346.924 69.5911 355.446 70.2506 361.989 75.0477C367.517 78.7435 370.881 85.849 369.323 92.4692C367.826 98.94 362.731 103.874 357.128 107.01C362.199 110.152 366.299 115.994 365.223 122.222C364.073 128.22 360.597 133.546 356.46 137.908C352.892 141.492 348.618 144.982 343.449 145.629C338.557 146.27 334.5 142.755 331.433 139.37C330.796 141.206 330.394 143.197 329.25 144.802C328.396 145.978 326.708 145.835 325.595 145.163C322.763 143.57 320.184 141.498 318.001 139.096C316.85 138.008 317.079 136.297 317.197 134.878C317.716 131.848 318.978 129.011 320.004 126.136C324.995 113.593 327.425 100.197 328.959 86.8321C324.352 85.7557 320.901 81.5061 320.375 76.8459C320.654 74.7739 322.806 74.0024 324.525 73.4673ZM340.48 82.4518C341.321 83.7895 342.682 85.0588 342.595 86.7823C342.675 92.1518 341.445 97.4218 340.666 102.704C346.776 100.402 352.768 96.8183 356.479 91.2745C358.278 88.7484 358.055 84.7291 355.205 83.0616C350.795 80.3426 345.254 81.5496 340.48 82.4518ZM338.483 112.802C337.128 119.497 334.735 125.912 333.003 132.507C340.202 132.159 347.771 128.818 351.377 122.272C353.096 119.323 352.96 114.681 349.67 112.914C346.194 111.179 342.088 111.857 338.483 112.802ZM140.553 73.542C136.038 74.1082 131.369 74.1393 127.047 75.7321C125.55 76.317 123.645 77.5489 124.165 79.4591C124.783 82.6696 125.513 87.0001 129.359 87.6845C127.745 92.0461 125.834 96.2832 124.233 100.651C122.149 106.537 120.677 112.622 119.285 118.701C118.079 124.4 116.849 130.23 117.449 136.085C117.832 139.345 119.533 142.749 122.699 144.043C127.9 146.488 133.8 145.698 139.297 145.013C144.22 144.217 149.192 143.414 153.898 141.71C155.525 141.212 156.582 139.569 156.316 137.864C156.087 135.861 156.217 133.416 154.628 131.935C151.678 131.406 148.889 132.775 146.118 133.553C141.721 134.834 137.083 135.189 132.532 134.934C130.281 134.834 130.361 132.084 130.541 130.442C131.344 124.661 132.761 118.956 134.764 113.481C139.891 113.369 145.036 113.412 150.15 113.058C151.325 112.883 153.311 112.734 153.273 111.129C153.317 109.038 153.434 106.91 153.137 104.838C152.309 103.955 151.171 103.407 149.971 103.289C145.543 102.611 141.072 103.463 136.632 103.563C138.091 98.7658 139.842 94.062 141.721 89.4142C142.593 87.5476 143.348 85.0153 145.667 84.586C151.715 83.3291 157.831 85.2206 163.916 84.6419C163.372 81.8483 161.733 79.4777 160.138 77.2005C158.796 75.1659 156.798 73.4362 154.294 73.1998C149.73 72.6274 145.123 73.3367 140.553 73.542Z" fill="#EE1D23"/>
<g filter="url(#filter0_d_4188_24614)">
<path d="M380 211.349C380 201.303 388.144 193.159 398.19 193.159H816.571C826.618 193.159 834.762 201.303 834.762 211.349V560H380V211.349Z" fill="white"/>
<path d="M380 211.349C380 201.303 388.144 193.159 398.19 193.159H816.571C826.618 193.159 834.762 201.303 834.762 211.349V560H380V211.349Z" fill="url(#paint0_linear_4188_24614)" fill-opacity="0.2"/>
</g>
<path d="M380 211.349C380 201.303 388.144 193.159 398.19 193.159H816.571C826.618 193.159 834.762 201.303 834.762 211.349V234.087H380V211.349Z" fill="#323333"/>
<rect x="380" y="234.087" width="454.762" height="60.6349" fill="#FFD860"/>
<rect x="399.706" y="252.278" width="113.69" height="24.254" rx="12.127" fill="#EE1D23"/>
<rect x="399.706" y="337.167" width="288.016" height="24.254" rx="12.127" fill="#DDDDDD"/>
<rect x="399.706" y="370.516" width="184.937" height="24.254" rx="12.127" fill="#DDDDDD"/>
<path d="M399.706 484.206C399.706 474.16 407.851 466.016 417.897 466.016H669.532C679.578 466.016 687.722 474.16 687.722 484.206V560H399.706V484.206Z" fill="#FFE8A4"/>
<path d="M734.714 338.682H796.865C806.074 338.682 813.54 346.148 813.54 355.357V575.159H718.04V355.357C718.04 346.148 725.505 338.682 734.714 338.682Z" stroke="#DDDDDD" stroke-width="3.03175"/>
<rect x="522.492" y="252.278" width="50.0238" height="24.254" rx="12.127" fill="#DFB42F"/>
<rect x="402.738" y="211.349" width="46.9921" height="4.54762" rx="2.27381" fill="#5C5C5C"/>
<rect x="733.198" y="352.326" width="19.7064" height="4.54762" rx="2.27381" fill="#DDDDDD"/>
<rect x="402.738" y="314.428" width="239.508" height="4.54762" rx="2.27381" fill="#E9E9E9"/>
<rect x="458.825" y="211.349" width="74.2778" height="4.54762" rx="2.27381" fill="#5C5C5C"/>
<rect x="542.198" y="211.349" width="30.3175" height="4.54762" rx="2.27381" fill="#5C5C5C"/>
<rect x="744.905" y="211.349" width="57.6032" height="4.54762" rx="2.27381" fill="#FFD860"/>
<path d="M408.876 417.397C409.33 416.001 411.305 416.001 411.759 417.397L412.359 419.245C412.562 419.87 413.144 420.292 413.801 420.292H415.744C417.212 420.292 417.823 422.172 416.635 423.035L415.063 424.177C414.532 424.563 414.31 425.247 414.513 425.871L415.113 427.719C415.567 429.116 413.968 430.277 412.78 429.414L411.208 428.272C410.677 427.886 409.958 427.886 409.426 428.272L407.855 429.414C406.667 430.277 405.068 429.116 405.522 427.719L406.122 425.871C406.325 425.247 406.103 424.563 405.572 424.177L404 423.035C402.812 422.172 403.423 420.292 404.891 420.292H406.834C407.49 420.292 408.073 419.87 408.275 419.245L408.876 417.397Z" fill="#FAC82F"/>
<path d="M431.614 417.397C432.068 416.001 434.043 416.001 434.497 417.397L435.098 419.245C435.3 419.87 435.883 420.292 436.539 420.292H438.482C439.95 420.292 440.561 422.172 439.373 423.035L437.801 424.177C437.27 424.563 437.048 425.247 437.251 425.871L437.851 427.719C438.305 429.116 436.706 430.277 435.518 429.414L433.947 428.272C433.415 427.886 432.696 427.886 432.165 428.272L430.593 429.414C429.405 430.277 427.806 429.116 428.26 427.719L428.861 425.871C429.063 425.247 428.841 424.563 428.31 424.177L426.738 423.035C425.55 422.172 426.161 420.292 427.629 420.292H429.572C430.229 420.292 430.811 419.87 431.014 419.245L431.614 417.397Z" fill="#FAC82F"/>
<path d="M454.352 417.397C454.806 416.001 456.782 416.001 457.235 417.397L457.836 419.245C458.039 419.87 458.621 420.292 459.277 420.292H461.22C462.689 420.292 463.299 422.172 462.111 423.035L460.539 424.177C460.008 424.563 459.786 425.247 459.989 425.871L460.589 427.719C461.043 429.116 459.444 430.277 458.256 429.414L456.685 428.272C456.153 427.886 455.434 427.886 454.903 428.272L453.331 429.414C452.143 430.277 450.544 429.116 450.998 427.719L451.599 425.871C451.802 425.247 451.579 424.563 451.048 424.177L449.476 423.035C448.288 422.172 448.899 420.292 450.367 420.292H452.31C452.967 420.292 453.549 419.87 453.752 419.245L454.352 417.397Z" fill="#FAC82F"/>
<path d="M477.09 417.397C477.544 416.001 479.52 416.001 479.973 417.397L480.574 419.245C480.777 419.87 481.359 420.292 482.015 420.292H483.958C485.427 420.292 486.037 422.172 484.849 423.035L483.277 424.177C482.746 424.563 482.524 425.247 482.727 425.871L483.327 427.719C483.781 429.116 482.182 430.277 480.994 429.414L479.423 428.272C478.891 427.886 478.172 427.886 477.641 428.272L476.069 429.414C474.881 430.277 473.283 429.116 473.736 427.719L474.337 425.871C474.54 425.247 474.317 424.563 473.786 424.177L472.214 423.035C471.026 422.172 471.637 420.292 473.105 420.292H475.048C475.705 420.292 476.287 419.87 476.49 419.245L477.09 417.397Z" fill="#FAC82F"/>
<path d="M499.828 417.397C500.282 416.001 502.258 416.001 502.712 417.397L503.312 419.245C503.515 419.87 504.097 420.292 504.754 420.292H506.696C508.165 420.292 508.775 422.172 507.587 423.035L506.016 424.177C505.484 424.563 505.262 425.247 505.465 425.871L506.065 427.719C506.519 429.116 504.921 430.277 503.733 429.414L502.161 428.272C501.63 427.886 500.91 427.886 500.379 428.272L498.807 429.414C497.619 430.277 496.021 429.116 496.474 427.719L497.075 425.871C497.278 425.247 497.055 424.563 496.524 424.177L494.952 423.035C493.764 422.172 494.375 420.292 495.843 420.292H497.786C498.443 420.292 499.025 419.87 499.228 419.245L499.828 417.397Z" fill="#FAC82F"/>
<path d="M514 390.25L658 412V330C658 325.582 654.418 322 650 322H522C517.582 322 514 325.582 514 330V390.25Z" fill="#593D13"/>
<rect x="514" y="245" width="144" height="77" rx="8" fill="#8D5809"/>
<rect x="514" y="183" width="144" height="62" rx="8" fill="#C0842A"/>
<rect x="524.14" y="192.012" width="69.0946" height="15.0206" rx="7.51029" fill="#E0A64F"/>
<rect x="524.14" y="253.597" width="69.0946" height="15.0206" rx="7.51029" fill="#73490A"/>
<rect x="524.14" y="331.704" width="69.0946" height="15.0206" rx="7.51029" fill="#73490A"/>
<rect x="524.14" y="222.053" width="46.5638" height="4.50617" rx="2.25309" fill="#E0A64F"/>
<rect x="524.14" y="291.148" width="33.0453" height="4.50617" rx="2.25309" fill="#73490A"/>
<rect x="524.14" y="369.255" width="33.0453" height="4.50617" rx="2.25309" fill="#73490A"/>
<rect x="524.14" y="231.066" width="64.5885" height="4.50617" rx="2.25309" fill="#E0A64F"/>
<rect x="524.14" y="300.16" width="46.5638" height="4.50617" rx="2.25309" fill="#73490A"/>
<rect x="524.14" y="378.267" width="46.5638" height="4.50617" rx="2.25309" fill="#73490A"/>
<rect x="524.14" y="309.173" width="24.0329" height="4.50617" rx="2.25309" fill="#73490A"/>
<rect x="524.14" y="387.28" width="24.0329" height="4.50617" rx="2.25309" fill="#73490A"/>
<path d="M677.35 421.827L702.558 296.074C703.307 292.336 706.589 289.646 710.402 289.646H787" stroke="#323333" stroke-width="24" stroke-linecap="round"/>
<path d="M495.601 477.403H697.793C711.39 477.403 722.412 466.381 722.412 452.785V452.785C722.412 440.522 713.386 430.129 701.244 428.41L495.601 399.296" stroke="#323333" stroke-width="24" stroke-linecap="round"/>
<circle cx="542.165" cy="526.971" r="21.0288" stroke="#323333" stroke-width="24" stroke-linecap="round"/>
<ellipse cx="687.113" cy="526.971" rx="20.2778" ry="21.0288" stroke="#323333" stroke-width="24" stroke-linecap="round"/>
</g>
<defs>
<filter id="filter0_d_4188_24614" x="334.524" y="162.841" width="545.714" height="457.794" filterUnits="userSpaceOnUse" color-interpolation-filters="sRGB">
<feFlood flood-opacity="0" result="BackgroundImageFix"/>
<feColorMatrix in="SourceAlpha" type="matrix" values="0 0 0 0 0 0 0 0 0 0 0 0 0 0 0 0 0 0 127 0" result="hardAlpha"/>
<feOffset dy="15.1587"/>
<feGaussianBlur stdDeviation="22.7381"/>
<feComposite in2="hardAlpha" operator="out"/>
<feColorMatrix type="matrix" values="0 0 0 0 0.7625 0 0 0 0 0.591965 0 0 0 0 0.0667188 0 0 0 1 0"/>
<feBlend mode="normal" in2="BackgroundImageFix" result="effect1_dropShadow_4188_24614"/>
<feBlend mode="normal" in="SourceGraphic" in2="effect1_dropShadow_4188_24614" result="shape"/>
</filter>
<linearGradient id="paint0_linear_4188_24614" x1="607.381" y1="560" x2="607.381" y2="416.75" gradientUnits="userSpaceOnUse">
<stop stop-color="#FECC31"/>
<stop offset="1" stop-color="#FECC31" stop-opacity="0"/>
</linearGradient>
<clipPath id="clip0_4188_24614">
<rect width="760" height="560" rx="8" fill="white"/>
</clipPath>
</defs>
</svg>
