<svg width="760" height="560" viewBox="0 0 760 560" fill="none" xmlns="http://www.w3.org/2000/svg">
<g clip-path="url(#clip0_4288_52008)">
<rect width="760" height="560" rx="8" fill="#1E2229"/>
<path d="M178.314 127.067V108.865H184.245C186.213 108.865 187.692 109.274 188.68 110.09C189.677 110.907 190.176 112.116 190.176 113.716C190.176 114.566 189.934 115.32 189.453 115.979C188.971 116.629 188.315 117.133 187.485 117.491C188.465 117.766 189.237 118.292 189.802 119.067C190.375 119.833 190.662 120.75 190.662 121.817C190.662 123.451 190.134 124.734 189.079 125.667C188.025 126.6 186.534 127.067 184.606 127.067H178.314ZM180.707 118.554V125.105H184.657C185.769 125.105 186.646 124.817 187.285 124.242C187.933 123.659 188.257 122.858 188.257 121.842C188.257 119.65 187.069 118.554 184.694 118.554H180.707ZM180.707 116.629H184.32C185.366 116.629 186.201 116.366 186.824 115.841C187.456 115.316 187.771 114.603 187.771 113.704C187.771 112.703 187.48 111.978 186.899 111.528C186.318 111.07 185.433 110.841 184.245 110.841H180.707V116.629ZM200.367 115.616C200.018 115.558 199.64 115.528 199.233 115.528C197.722 115.528 196.696 116.175 196.156 117.466V127.067H193.851V113.541H196.093L196.131 115.103C196.886 113.895 197.958 113.291 199.345 113.291C199.794 113.291 200.134 113.349 200.367 113.466V115.616ZM205.002 127.067H202.697V113.541H205.002V127.067ZM202.51 109.953C202.51 109.578 202.622 109.261 202.846 109.003C203.079 108.744 203.42 108.615 203.868 108.615C204.316 108.615 204.657 108.744 204.89 109.003C205.122 109.261 205.238 109.578 205.238 109.953C205.238 110.328 205.122 110.64 204.89 110.891C204.657 111.14 204.316 111.265 203.868 111.265C203.42 111.265 203.079 111.14 202.846 110.891C202.622 110.64 202.51 110.328 202.51 109.953ZM210.882 113.541L210.957 115.241C211.987 113.941 213.333 113.291 214.994 113.291C217.842 113.291 219.279 114.903 219.304 118.129V127.067H217V118.117C216.991 117.141 216.767 116.42 216.327 115.954C215.895 115.487 215.218 115.253 214.296 115.253C213.549 115.253 212.892 115.454 212.327 115.853C211.763 116.254 211.322 116.779 211.007 117.429V127.067H208.702V113.541H210.882ZM222.232 120.192C222.232 118.083 222.718 116.408 223.69 115.166C224.662 113.916 225.949 113.291 227.553 113.291C229.197 113.291 230.48 113.874 231.402 115.041L231.514 113.541H233.62V126.742C233.62 128.492 233.1 129.872 232.062 130.88C231.032 131.889 229.645 132.393 227.901 132.393C226.93 132.393 225.978 132.185 225.048 131.768C224.118 131.352 223.408 130.781 222.917 130.055L224.114 128.667C225.102 129.893 226.31 130.505 227.739 130.505C228.861 130.505 229.732 130.189 230.355 129.555C230.987 128.922 231.302 128.03 231.302 126.88V125.717C230.381 126.784 229.122 127.318 227.527 127.318C225.949 127.318 224.67 126.68 223.69 125.405C222.718 124.13 222.232 122.392 222.232 120.192ZM224.55 120.454C224.55 121.979 224.861 123.18 225.484 124.054C226.107 124.921 226.979 125.355 228.1 125.355C229.554 125.355 230.621 124.692 231.302 123.367V117.191C230.597 115.899 229.537 115.253 228.125 115.253C227.004 115.253 226.128 115.691 225.497 116.566C224.865 117.441 224.55 118.737 224.55 120.454ZM239.612 127.067H237.307V113.541H239.612V127.067ZM237.121 109.953C237.121 109.578 237.233 109.261 237.457 109.003C237.69 108.744 238.03 108.615 238.479 108.615C238.927 108.615 239.268 108.744 239.5 109.003C239.733 109.261 239.849 109.578 239.849 109.953C239.849 110.328 239.733 110.64 239.5 110.891C239.268 111.14 238.927 111.265 238.479 111.265C238.03 111.265 237.69 111.14 237.457 110.891C237.233 110.64 237.121 110.328 237.121 109.953ZM245.493 113.541L245.568 115.241C246.598 113.941 247.943 113.291 249.604 113.291C252.454 113.291 253.891 114.903 253.915 118.129V127.067H251.61V118.117C251.602 117.141 251.378 116.42 250.938 115.954C250.506 115.487 249.829 115.253 248.907 115.253C248.159 115.253 247.503 115.454 246.939 115.853C246.373 116.254 245.933 116.779 245.618 117.429V127.067H243.313V113.541H245.493ZM256.843 120.192C256.843 118.083 257.329 116.408 258.301 115.166C259.273 113.916 260.56 113.291 262.163 113.291C263.808 113.291 265.091 113.874 266.013 115.041L266.125 113.541H268.231V126.742C268.231 128.492 267.712 129.872 266.673 130.88C265.643 131.889 264.256 132.393 262.512 132.393C261.54 132.393 260.589 132.185 259.659 131.768C258.729 131.352 258.019 130.781 257.529 130.055L258.724 128.667C259.713 129.893 260.921 130.505 262.35 130.505C263.471 130.505 264.343 130.189 264.966 129.555C265.598 128.922 265.913 128.03 265.913 126.88V125.717C264.991 126.784 263.733 127.318 262.138 127.318C260.56 127.318 259.281 126.68 258.301 125.405C257.329 124.13 256.843 122.392 256.843 120.192ZM259.161 120.454C259.161 121.979 259.472 123.18 260.095 124.054C260.718 124.921 261.59 125.355 262.712 125.355C264.165 125.355 265.232 124.692 265.913 123.367V117.191C265.207 115.899 264.148 115.253 262.736 115.253C261.615 115.253 260.738 115.691 260.107 116.566C259.476 117.441 259.161 118.737 259.161 120.454ZM281.176 110.265V113.541H283.692V115.329H281.176V123.717C281.176 124.259 281.287 124.667 281.512 124.942C281.736 125.209 282.118 125.342 282.658 125.342C282.924 125.342 283.289 125.292 283.754 125.192V127.067C283.148 127.234 282.558 127.318 281.985 127.318C280.955 127.318 280.178 127.005 279.655 126.38C279.132 125.755 278.87 124.867 278.87 123.717V115.329H276.416V113.541H278.87V110.265H281.176ZM285.536 120.179C285.536 118.854 285.793 117.662 286.308 116.604C286.832 115.545 287.554 114.728 288.476 114.153C289.407 113.578 290.466 113.291 291.653 113.291C293.489 113.291 294.972 113.928 296.101 115.203C297.239 116.479 297.808 118.175 297.808 120.291V120.454C297.808 121.771 297.555 122.954 297.048 124.005C296.55 125.046 295.831 125.859 294.893 126.442C293.962 127.026 292.891 127.318 291.678 127.318C289.851 127.318 288.368 126.68 287.23 125.405C286.101 124.13 285.536 122.442 285.536 120.342V120.179ZM287.853 120.454C287.853 121.954 288.198 123.159 288.888 124.067C289.585 124.975 290.515 125.43 291.678 125.43C292.85 125.43 293.78 124.972 294.469 124.054C295.158 123.129 295.503 121.837 295.503 120.179C295.503 118.696 295.15 117.495 294.444 116.579C293.746 115.654 292.816 115.191 291.653 115.191C290.515 115.191 289.598 115.645 288.9 116.554C288.202 117.462 287.853 118.762 287.853 120.454ZM300.15 120.192C300.15 118.083 300.636 116.408 301.608 115.166C302.58 113.916 303.867 113.291 305.47 113.291C307.115 113.291 308.398 113.874 309.32 115.041L309.432 113.541H311.538V126.742C311.538 128.492 311.019 129.872 309.98 130.88C308.951 131.889 307.563 132.393 305.819 132.393C304.847 132.393 303.896 132.185 302.966 131.768C302.036 131.352 301.326 130.781 300.835 130.055L302.032 128.667C303.02 129.893 304.229 130.505 305.657 130.505C306.778 130.505 307.651 130.189 308.274 129.555C308.905 128.922 309.221 128.03 309.221 126.88V125.717C308.299 126.784 307.04 127.318 305.446 127.318C303.867 127.318 302.588 126.68 301.608 125.405C300.636 124.13 300.15 122.392 300.15 120.192ZM302.468 120.454C302.468 121.979 302.779 123.18 303.402 124.054C304.025 124.921 304.897 125.355 306.018 125.355C307.472 125.355 308.539 124.692 309.221 123.367V117.191C308.515 115.899 307.455 115.253 306.043 115.253C304.922 115.253 304.046 115.691 303.415 116.566C302.783 117.441 302.468 118.737 302.468 120.454ZM320.62 127.318C318.793 127.318 317.306 126.717 316.16 125.517C315.014 124.309 314.441 122.696 314.441 120.679V120.254C314.441 118.912 314.694 117.716 315.2 116.666C315.715 115.607 316.43 114.782 317.344 114.191C318.266 113.591 319.262 113.291 320.334 113.291C322.086 113.291 323.449 113.87 324.42 115.028C325.392 116.187 325.878 117.845 325.878 120.004V120.967H316.745C316.779 122.3 317.165 123.38 317.905 124.205C318.652 125.021 319.599 125.43 320.745 125.43C321.559 125.43 322.249 125.263 322.813 124.93C323.378 124.596 323.872 124.155 324.296 123.604L325.704 124.705C324.574 126.447 322.88 127.318 320.62 127.318ZM320.334 115.191C319.404 115.191 318.623 115.533 317.991 116.216C317.36 116.891 316.97 117.841 316.821 119.067H323.573V118.891C323.506 117.716 323.191 116.808 322.627 116.166C322.061 115.516 321.297 115.191 320.334 115.191ZM331.684 110.265V113.541H334.201V115.329H331.684V123.717C331.684 124.259 331.796 124.667 332.02 124.942C332.245 125.209 332.626 125.342 333.166 125.342C333.432 125.342 333.798 125.292 334.263 125.192V127.067C333.656 127.234 333.067 127.318 332.494 127.318C331.464 127.318 330.687 127.005 330.164 126.38C329.641 125.755 329.379 124.867 329.379 123.717V115.329H326.925V113.541H329.379V110.265H331.684ZM339.209 115.178C340.231 113.92 341.56 113.291 343.196 113.291C346.045 113.291 347.482 114.903 347.506 118.129V127.067H345.202V118.117C345.193 117.141 344.969 116.42 344.529 115.954C344.097 115.487 343.42 115.253 342.498 115.253C341.751 115.253 341.094 115.454 340.53 115.853C339.965 116.254 339.524 116.779 339.209 117.429V127.067H336.904V107.865H339.209V115.178ZM356.552 127.318C354.725 127.318 353.238 126.717 352.091 125.517C350.945 124.309 350.373 122.696 350.373 120.679V120.254C350.373 118.912 350.626 117.716 351.132 116.666C351.647 115.607 352.361 114.782 353.275 114.191C354.197 113.591 355.194 113.291 356.265 113.291C358.018 113.291 359.38 113.87 360.352 115.028C361.324 116.187 361.809 117.845 361.809 120.004V120.967H352.677C352.711 122.3 353.097 123.38 353.836 124.205C354.583 125.021 355.53 125.43 356.677 125.43C357.49 125.43 358.18 125.263 358.745 124.93C359.31 124.596 359.803 124.155 360.227 123.604L361.635 124.705C360.505 126.447 358.811 127.318 356.552 127.318ZM356.265 115.191C355.335 115.191 354.554 115.533 353.923 116.216C353.292 116.891 352.902 117.841 352.752 119.067H359.504V118.891C359.438 117.716 359.123 116.808 358.557 116.166C357.993 115.516 357.229 115.191 356.265 115.191ZM371.004 115.616C370.655 115.558 370.277 115.528 369.87 115.528C368.359 115.528 367.333 116.175 366.793 117.466V127.067H364.488V113.541H366.731L366.768 115.103C367.524 113.895 368.595 113.291 369.983 113.291C370.431 113.291 370.772 113.349 371.004 113.466V115.616Z" fill="white"/>
<path d="M198.547 48.668C204.268 48.668 210.343 50.5856 214.513 54.7073L209.685 62.5959C206.943 60.205 202.835 58.2376 199.025 58.2376C190.506 58.2376 186.994 64.277 186.994 70.4284C186.994 76.7666 190.803 83.2792 199.025 83.2792C203.251 83.2792 207.427 80.9444 210.343 78.0181L215.704 85.67C215.133 86.2615 214.519 86.8343 213.861 87.3885C210.194 90.4766 205.162 92.8363 198.547 92.8363C184.847 92.8363 176.209 83.3352 176.209 70.665C176.209 58.2313 185.387 48.668 198.547 48.668Z" fill="white"/>
<path d="M238.916 48.668C252.139 48.668 261.192 58.2314 261.192 70.4844C261.192 83.0364 252.139 92.8363 238.916 92.8363C225.693 92.8363 216.64 83.0364 216.64 70.4844C216.634 58.2314 225.687 48.668 238.916 48.668ZM238.916 83.273C245.648 83.273 250.414 77.7753 250.414 70.4844C250.414 63.4925 245.648 58.2313 238.916 58.2313C232.184 58.2313 227.418 63.4925 227.418 70.4844C227.418 77.7753 232.184 83.273 238.916 83.273Z" fill="white"/>
<path d="M266.894 49.3848H277.436L289.232 69.3458C290.901 72.1538 292.806 76.6367 292.806 76.6367H292.924C292.924 76.6367 292.446 72.0355 292.446 69.3458V49.3848H302.87V92.1211H292.384L280.532 72.2161C278.863 69.4081 276.958 64.9253 276.958 64.9253H276.841C276.841 64.9253 277.318 69.5264 277.318 72.2161V92.1211H266.894V49.3848Z" fill="white"/>
<path d="M322.199 58.3504H309.274V49.3848H345.548V58.3504H332.623V92.1211H322.199V58.3504Z" fill="white"/>
<path d="M358.802 49.3848H369.76L384.236 92.1211H373.514L370.896 83.1555H357.611L355.048 92.1211H344.326L358.802 49.3848ZM368.451 74.7875L366.068 66.4818C365.293 63.7921 364.343 59.1287 364.343 59.1287H364.225C364.225 59.1287 363.27 63.7921 362.5 66.4818L360.056 74.7875H368.451Z" fill="white"/>
<path d="M408.218 48.668C413.939 48.668 420.014 50.5856 424.183 54.7073L419.356 62.5959C416.613 60.205 412.506 58.2376 408.696 58.2376C400.177 58.2376 396.665 64.277 396.665 70.4284C396.665 76.7666 400.474 83.2792 408.696 83.2792C412.921 83.2792 417.097 80.9444 420.014 78.0181L425.375 85.67C421.621 89.5552 416.024 92.8426 408.218 92.8426C394.518 92.8426 385.88 83.3415 385.88 70.6712C385.88 58.2314 395.051 48.668 408.218 48.668Z" fill="white"/>
<path d="M443.015 58.3504H430.09V49.3848H466.364V58.3504H453.44V92.1211H443.015V58.3504Z" fill="white"/>
<path fill-rule="evenodd" clip-rule="evenodd" d="M128.617 66.1955C132.818 65.0685 137.136 67.5777 138.26 71.7928C139.476 76.3566 140.09 81.076 140.084 85.8203C140.084 115.718 115.847 140.038 86.0512 140.038C56.2613 140.038 32.0186 115.718 32.0186 85.8203C32.0186 61.227 48.5485 39.672 72.2204 33.3961C76.4273 32.2753 80.7398 34.7969 81.8505 39.0183C82.9611 43.2396 80.4543 47.5668 76.2474 48.6813C59.4816 53.1205 47.7729 68.3933 47.7729 85.8203C47.7729 95.1596 51.1174 103.733 56.6584 110.395C56.0317 108.452 55.6842 106.379 55.6842 104.219C55.6842 93.1236 64.6504 84.133 75.7014 84.133C86.7586 84.133 95.7185 93.1298 95.7185 104.219C95.7185 113.763 89.073 121.739 80.1751 123.781C82.0925 124.08 84.0594 124.236 86.0574 124.236C107.167 124.236 124.336 107.008 124.336 85.8265C124.336 82.4457 123.901 79.0961 123.039 75.8709C121.916 71.6558 124.416 67.3224 128.617 66.1955ZM119.868 50.2C119.868 57.4315 114.026 63.2936 106.819 63.2936C99.6121 63.2936 93.7702 57.4315 93.7702 50.2C93.7702 42.9687 99.6121 37.1064 106.819 37.1064C114.026 37.1064 119.868 42.9687 119.868 50.2Z" fill="#F58A1F"/>
<g opacity="0.4">
<rect x="663.812" y="189.791" width="15.0055" height="13.9419" rx="6.97096" fill="#956A37"/>
</g>
<path d="M713.473 111.088C609.14 104.964 519.597 184.579 513.473 288.912C507.349 393.245 586.963 482.788 691.296 488.912C795.629 495.036 885.172 415.421 891.296 311.088C893.671 270.63 883.153 232.396 863.301 200.388" stroke="#F58A1F" stroke-width="28.8628" stroke-linecap="round"/>
<path opacity="0.6" d="M710.501 161.707C634.124 157.224 568.574 215.506 564.091 291.883C559.608 368.26 617.89 433.81 694.267 438.293C770.644 442.776 836.194 384.494 840.677 308.117C842.415 278.5 834.716 250.511 820.183 227.079" stroke="url(#paint0_linear_4288_52008)" stroke-width="21.5907" stroke-linecap="round"/>
<path opacity="0.4" d="M707.776 208.135C657.041 205.157 613.499 243.872 610.521 294.607C607.543 345.342 646.257 388.885 696.992 391.863C747.727 394.841 791.27 356.126 794.248 305.391C795.403 285.717 790.288 267.125 780.635 251.56" stroke="url(#paint1_linear_4288_52008)" stroke-width="14.3938" stroke-linecap="round"/>
<path opacity="0.2" d="M705.527 246.444C675.949 244.708 650.564 267.279 648.828 296.857C647.092 326.435 669.662 351.82 699.241 353.556C728.819 355.292 754.204 332.722 755.94 303.144C756.613 291.674 753.631 280.835 748.003 271.76" stroke="url(#paint2_linear_4288_52008)" stroke-width="10.7954" stroke-linecap="round"/>
<rect x="607.461" y="196.702" width="138.462" height="241.996" rx="14.9688" fill="white"/>
<rect x="631.162" y="209.176" width="89.8129" height="7.48441" rx="3.7422" fill="#FFCED3"/>
<rect x="617.441" y="227.887" width="117.256" height="24.948" rx="4.9896" fill="#E8EDF5"/>
<rect x="617.441" y="269.053" width="117.256" height="24.948" rx="4.9896" fill="#E8EDF5"/>
<rect x="617.44" y="310.216" width="117.256" height="24.948" rx="4.9896" fill="#E8EDF5"/>
<rect x="617.44" y="351.381" width="117.256" height="24.948" rx="4.9896" fill="#E8EDF5"/>
<rect x="617.441" y="403.771" width="117.256" height="24.948" rx="4.9896" fill="#E22338"/>
<rect x="617.441" y="262.814" width="38.6694" height="2.4948" rx="1.2474" fill="#BEC5D0"/>
<rect x="617.441" y="303.978" width="38.6694" height="2.4948" rx="1.2474" fill="#BEC5D0"/>
<rect x="617.441" y="345.144" width="38.6694" height="2.4948" rx="1.2474" fill="#BEC5D0"/>
<rect x="651.121" y="413.75" width="51.1435" height="4.9896" rx="2.4948" fill="white"/>
<rect x="369" y="196.702" width="138.462" height="241.996" rx="14.9688" fill="white"/>
<rect x="392.701" y="209.176" width="89.8129" height="7.48441" rx="3.7422" fill="#D0DDFF"/>
<rect x="378.979" y="269.053" width="117.256" height="24.948" rx="4.9896" fill="#E8EDF5"/>
<rect x="378.979" y="310.216" width="117.256" height="24.948" rx="4.9896" fill="#E8EDF5"/>
<rect x="378.979" y="351.381" width="117.256" height="24.948" rx="4.9896" fill="#E8EDF5"/>
<rect x="378.979" y="402.523" width="117.256" height="24.948" rx="4.9896" fill="#E8EDF5"/>
<rect x="378.979" y="378.821" width="7.48441" height="7.48441" rx="1.2474" fill="#E8EDF5"/>
<rect x="378.979" y="403.771" width="117.256" height="24.948" rx="4.9896" fill="#5986FD"/>
<rect x="378.979" y="262.814" width="38.6694" height="2.4948" rx="1.2474" fill="#BEC5D0"/>
<rect x="378.979" y="227.887" width="117.256" height="2.4948" rx="1.2474" fill="#BEC5D0"/>
<rect x="378.979" y="232.877" width="77.3389" height="2.4948" rx="1.2474" fill="#BEC5D0"/>
<rect x="378.979" y="237.865" width="108.524" height="2.4948" rx="1.2474" fill="#BEC5D0"/>
<rect x="378.979" y="242.856" width="94.8025" height="2.4948" rx="1.2474" fill="#BEC5D0"/>
<rect x="378.979" y="247.846" width="113.514" height="2.4948" rx="1.2474" fill="#BEC5D0"/>
<rect x="378.979" y="303.978" width="38.6694" height="2.4948" rx="1.2474" fill="#BEC5D0"/>
<rect x="378.979" y="345.144" width="38.6694" height="2.4948" rx="1.2474" fill="#BEC5D0"/>
<rect x="378.979" y="396.286" width="38.6694" height="2.4948" rx="1.2474" fill="#BEC5D0"/>
<rect x="390.206" y="381.317" width="63.6175" height="2.4948" rx="1.2474" fill="#BEC5D0"/>
<rect x="412.659" y="413.75" width="51.1435" height="4.9896" rx="2.4948" fill="white"/>
<g filter="url(#filter0_d_4288_52008)">
<rect x="492.077" y="168.47" width="170.769" height="298.462" rx="18.4615" fill="white"/>
<rect x="521.308" y="183.854" width="110.769" height="9.23077" rx="4.61538" fill="#FFE3C2"/>
<rect x="504.385" y="219.238" width="144.615" height="30.7692" rx="6.15385" fill="#E8EDF5"/>
<rect x="504.385" y="253.085" width="144.615" height="30.7692" rx="6.15385" fill="#E8EDF5"/>
<rect x="504.385" y="286.93" width="144.615" height="30.7692" rx="6.15385" fill="#E8EDF5"/>
<rect x="504.385" y="320.776" width="144.615" height="30.7692" rx="6.15385" fill="#E8EDF5"/>
<rect x="504.385" y="382.314" width="9.23077" height="9.23077" rx="1.53846" fill="#E8EDF5"/>
<rect x="504.385" y="394.622" width="9.23077" height="9.23077" rx="1.53846" fill="#E8EDF5"/>
<rect x="504.385" y="423.854" width="144.615" height="30.7692" rx="6.15385" fill="#F58A1F"/>
<rect x="504.385" y="206.931" width="60" height="6.15385" rx="3.07692" fill="#BEC5D0"/>
<rect x="504.385" y="366.931" width="60" height="6.15385" rx="3.07692" fill="#BEC5D0"/>
<rect x="518.231" y="385.392" width="78.4615" height="3.07692" rx="1.53846" fill="#BEC5D0"/>
<rect x="518.231" y="397.699" width="78.4615" height="3.07692" rx="1.53846" fill="#BEC5D0"/>
<rect x="545.924" y="436.162" width="63.0769" height="6.15385" rx="3.07692" fill="white"/>
</g>
<rect x="530.538" y="136.16" width="71.7949" height="71.7949" rx="35.8974" fill="#5986FD"/>
<path fill-rule="evenodd" clip-rule="evenodd" d="M552.076 153.597C552.076 151.331 553.912 149.494 556.178 149.494H576.691C578.957 149.494 580.794 151.331 580.794 153.597V190.007C580.794 192.273 578.957 194.11 576.691 194.11H556.178C553.912 194.11 552.076 192.273 552.076 190.007V153.597ZM562.332 153.956C562.332 153.307 562.858 152.782 563.507 152.782H569.363C570.012 152.782 570.538 153.307 570.538 153.956C570.538 154.604 570.012 155.13 569.363 155.13H563.507C562.858 155.13 562.332 154.604 562.332 153.956ZM566.07 189.883C565.422 189.883 564.896 190.409 564.896 191.057C564.896 191.705 565.422 192.231 566.07 192.231H567.312C567.96 192.231 568.486 191.705 568.486 191.057C568.486 190.409 567.96 189.883 567.312 189.883H566.07Z" fill="white"/>
<path fill-rule="evenodd" clip-rule="evenodd" d="M555.153 162.315C555.153 161.182 556.071 160.264 557.204 160.264H575.666C576.799 160.264 577.717 161.182 577.717 162.315V172.571C577.717 173.704 576.799 174.623 575.666 174.623H557.204C556.071 174.623 555.153 173.704 555.153 172.571V162.315ZM557.204 171.289C557.204 170.581 557.778 170.007 558.486 170.007H562.589C563.297 170.007 563.871 170.581 563.871 171.289C563.871 171.997 563.297 172.571 562.589 172.571H558.486C557.778 172.571 557.204 171.997 557.204 171.289ZM566.179 170.007C565.471 170.007 564.897 170.581 564.897 171.289C564.897 171.997 565.471 172.571 566.179 172.571H566.692C567.4 172.571 567.974 171.997 567.974 171.289C567.974 170.581 567.4 170.007 566.692 170.007H566.179Z" fill="#5986FD"/>
<rect x="558.23" y="179.237" width="16.4103" height="5.1282" rx="2.5641" fill="#5986FD"/>
<rect x="454.897" y="421.288" width="71.7949" height="71.7949" rx="35.8974" fill="#E22338"/>
<path fill-rule="evenodd" clip-rule="evenodd" d="M506.692 459.742C504.429 461.051 501.802 461.8 498.999 461.8C491.556 461.8 485.348 456.515 483.923 449.492H472.333C470.067 449.492 468.23 451.329 468.23 453.595V471.031C468.23 473.296 470.067 475.133 472.333 475.133H502.589C504.855 475.133 506.692 473.296 506.692 471.031V459.742ZM472.589 469.493C471.881 469.493 471.307 470.067 471.307 470.775C471.307 471.483 471.881 472.057 472.589 472.057H478.23C478.939 472.057 479.513 471.483 479.513 470.775C479.513 470.067 478.939 469.493 478.23 469.493H472.589ZM481.051 470.775C481.051 470.067 481.625 469.493 482.333 469.493H483.358C484.066 469.493 484.64 470.067 484.64 470.775C484.64 471.483 484.066 472.057 483.358 472.057H482.333C481.625 472.057 481.051 471.483 481.051 470.775Z" fill="white"/>
<path fill-rule="evenodd" clip-rule="evenodd" d="M499 458.212C505.514 458.212 510.795 452.931 510.795 446.417C510.795 439.903 505.514 434.622 499 434.622C492.486 434.622 487.205 439.903 487.205 446.417C487.205 452.931 492.486 458.212 499 458.212ZM492.266 445.896C492.48 442.25 495.609 439.469 499.254 439.683C499.819 439.716 500.305 439.284 500.338 438.719C500.371 438.153 499.94 437.668 499.374 437.635C494.598 437.355 490.499 440.999 490.218 445.775C489.938 450.552 493.583 454.651 498.359 454.931C503.135 455.212 507.234 451.567 507.515 446.791C507.623 444.94 507.141 443.188 506.232 441.722C505.934 441.241 505.302 441.093 504.82 441.391C504.339 441.69 504.191 442.322 504.489 442.803C505.183 443.921 505.55 445.256 505.467 446.67C505.253 450.316 502.124 453.097 498.479 452.883C494.834 452.669 492.052 449.541 492.266 445.896ZM499.601 446.929H495.667C495.1 446.929 494.641 446.47 494.641 445.904C494.641 445.337 495.1 444.878 495.667 444.878H499.6L498.787 444.065C498.387 443.665 498.387 443.016 498.787 442.615C499.188 442.214 499.837 442.214 500.238 442.615L502.802 445.179L503.527 445.904L502.802 446.63L500.238 449.194C499.837 449.594 499.188 449.594 498.787 449.194C498.387 448.793 498.387 448.144 498.787 447.743L499.601 446.929Z" fill="white"/>
<g filter="url(#filter1_d_4288_52008)">
<rect x="411.564" y="339.749" width="41.0256" height="41.0256" rx="20.5128" fill="white"/>
<path fill-rule="evenodd" clip-rule="evenodd" d="M435.148 355.866C431.247 356.705 428.213 359.878 427.582 363.852C427.542 363.853 427.502 363.853 427.461 363.853C423.213 363.853 419.769 360.409 419.769 356.161C419.769 351.913 423.213 348.469 427.461 348.469C431.611 348.469 434.993 351.755 435.148 355.866Z" fill="#E22338"/>
<ellipse cx="437.205" cy="365.392" rx="7.69231" ry="7.69231" fill="#E22338"/>
<path d="M437.204 362.314V368.468" stroke="white" stroke-width="2.05128" stroke-linecap="round"/>
<path d="M434.127 365.391H440.281" stroke="white" stroke-width="2.05128" stroke-linecap="round"/>
<path d="M424.896 356.16L430.025 356.16" stroke="white" stroke-width="2.05128" stroke-linecap="round"/>
</g>
<g filter="url(#filter2_d_4288_52008)">
<rect x="349" y="179.238" width="41.0256" height="41.0256" rx="20.5128" fill="white"/>
<path d="M358.23 197.186C358.23 196.619 358.69 196.16 359.256 196.16H363.359C363.925 196.16 364.384 196.619 364.384 197.186V206.417H358.23V197.186Z" fill="#5986FD"/>
<path d="M366.436 194.11C366.436 193.543 366.895 193.084 367.461 193.084H371.564C372.13 193.084 372.589 193.543 372.589 194.11V206.417H366.436V194.11Z" fill="#5986FD"/>
<path d="M374.642 191.032C374.642 190.466 375.101 190.007 375.667 190.007H379.77C380.336 190.007 380.795 190.466 380.795 191.032V206.417H374.642V191.032Z" fill="#5986FD"/>
<rect x="356.692" y="207.442" width="25.641" height="2.05128" rx="1.02564" fill="#5986FD"/>
</g>
<g filter="url(#filter3_d_4288_52008)">
<rect x="713.975" y="236.519" width="41.0256" height="41.0256" rx="20.5128" fill="white"/>
<path d="M730 260.109C728.55 260.109 727.311 259.621 726.284 258.645C725.256 257.669 724.743 256.476 724.743 255.067C724.743 253.858 725.117 252.782 725.866 251.837C726.615 250.892 727.594 250.288 728.805 250.024C729.203 248.599 730 247.445 731.194 246.562C732.389 245.679 733.743 245.237 735.256 245.237C737.12 245.237 738.701 245.869 739.999 247.132C741.298 248.394 741.947 249.932 741.946 251.744C743.045 251.868 743.957 252.329 744.682 253.127C745.407 253.925 745.769 254.858 745.769 255.926C745.769 257.088 745.351 258.076 744.514 258.89C743.677 259.703 742.662 260.11 741.468 260.109H730Z" fill="#F58A1F"/>
<ellipse cx="733.205" cy="264.467" rx="2.82051" ry="2.82051" fill="#F58A1F"/>
<circle cx="727.564" cy="267.545" r="1.79487" fill="#F58A1F"/>
</g>
<rect x="625.667" y="286.929" width="71.7949" height="71.7949" rx="35.8974" fill="#F58A1F"/>
<path fill-rule="evenodd" clip-rule="evenodd" d="M673.872 318.981C673.872 321.672 667.443 323.853 659.513 323.853C651.583 323.853 645.154 321.672 645.154 318.981C645.154 316.291 651.583 314.109 659.513 314.109C667.443 314.109 673.872 316.291 673.872 318.981ZM645.155 320.264H645.155V325.905H645.174C645.161 325.99 645.155 326.076 645.155 326.162C645.155 328.852 651.583 331.034 659.514 331.034C660.649 331.034 661.754 330.989 662.813 330.904C664.872 328.178 668.141 326.417 671.82 326.417C672.502 326.417 673.169 326.477 673.817 326.593C673.854 326.451 673.873 326.307 673.873 326.162C673.873 326.076 673.866 325.99 673.853 325.905H673.873V321.549C673.868 324.238 667.441 326.418 659.514 326.418C651.583 326.418 645.155 324.237 645.155 321.547C645.155 321.461 645.161 321.375 645.174 321.291H645.155V320.264ZM660.956 340.752C661.426 342.428 662.274 343.947 663.402 345.21C662.165 345.328 660.861 345.391 659.513 345.391C651.583 345.391 645.154 343.21 645.154 340.52C645.154 340.434 645.16 340.348 645.173 340.263H645.154V334.622H645.154V335.648H645.173C645.161 335.733 645.154 335.818 645.154 335.904C645.154 338.595 651.583 340.776 659.513 340.776C660 340.776 660.482 340.768 660.956 340.752ZM661.322 333.559C660.816 334.84 660.538 336.237 660.538 337.699C660.538 337.867 660.542 338.034 660.549 338.199C660.207 338.208 659.862 338.212 659.513 338.212C651.583 338.212 645.154 336.031 645.154 333.34C645.154 333.254 645.161 333.169 645.174 333.084H645.154V328.725C645.154 331.416 651.583 333.597 659.513 333.597C660.126 333.597 660.73 333.584 661.322 333.559ZM645.154 328.725V328.469H645.174C645.161 328.554 645.154 328.639 645.154 328.725ZM673.853 321.291C673.866 321.374 673.872 321.459 673.873 321.544L673.873 321.291H673.853Z" fill="white"/>
<ellipse cx="671.821" cy="337.698" rx="7.69231" ry="7.69231" fill="white"/>
<path d="M668.231 337.962L670.612 340.261L675.923 335.133" stroke="#F58A1F" stroke-width="2.05128" stroke-linecap="round"/>
<path d="M653.872 310.519L653.872 301.288" stroke="white" stroke-width="2.05128" stroke-linecap="round"/>
<path d="M664.641 310.519L664.641 301.288" stroke="white" stroke-width="2.05128" stroke-linecap="round"/>
<path d="M651.308 303.34L653.872 300.776L656.436 303.34" stroke="white" stroke-width="2.05128" stroke-linecap="round"/>
<path d="M662.077 303.34L664.641 300.776L667.205 303.34" stroke="white" stroke-width="2.05128" stroke-linecap="round"/>
</g>
<defs>
<filter id="filter0_d_4288_52008" x="445.923" y="122.316" width="263.077" height="390.77" filterUnits="userSpaceOnUse" color-interpolation-filters="sRGB">
<feFlood flood-opacity="0" result="BackgroundImageFix"/>
<feColorMatrix in="SourceAlpha" type="matrix" values="0 0 0 0 0 0 0 0 0 0 0 0 0 0 0 0 0 0 127 0" result="hardAlpha"/>
<feOffset/>
<feGaussianBlur stdDeviation="23.0769"/>
<feComposite in2="hardAlpha" operator="out"/>
<feColorMatrix type="matrix" values="0 0 0 0 0.117647 0 0 0 0 0.133333 0 0 0 0 0.160784 0 0 0 0.2 0"/>
<feBlend mode="normal" in2="BackgroundImageFix" result="effect1_dropShadow_4288_52008"/>
<feBlend mode="normal" in="SourceGraphic" in2="effect1_dropShadow_4288_52008" result="shape"/>
</filter>
<filter id="filter1_d_4288_52008" x="374.641" y="302.826" width="114.872" height="114.872" filterUnits="userSpaceOnUse" color-interpolation-filters="sRGB">
<feFlood flood-opacity="0" result="BackgroundImageFix"/>
<feColorMatrix in="SourceAlpha" type="matrix" values="0 0 0 0 0 0 0 0 0 0 0 0 0 0 0 0 0 0 127 0" result="hardAlpha"/>
<feOffset/>
<feGaussianBlur stdDeviation="18.4615"/>
<feComposite in2="hardAlpha" operator="out"/>
<feColorMatrix type="matrix" values="0 0 0 0 0.886275 0 0 0 0 0.137255 0 0 0 0 0.219608 0 0 0 1 0"/>
<feBlend mode="normal" in2="BackgroundImageFix" result="effect1_dropShadow_4288_52008"/>
<feBlend mode="normal" in="SourceGraphic" in2="effect1_dropShadow_4288_52008" result="shape"/>
</filter>
<filter id="filter2_d_4288_52008" x="312.077" y="142.315" width="114.872" height="114.872" filterUnits="userSpaceOnUse" color-interpolation-filters="sRGB">
<feFlood flood-opacity="0" result="BackgroundImageFix"/>
<feColorMatrix in="SourceAlpha" type="matrix" values="0 0 0 0 0 0 0 0 0 0 0 0 0 0 0 0 0 0 127 0" result="hardAlpha"/>
<feOffset/>
<feGaussianBlur stdDeviation="18.4615"/>
<feComposite in2="hardAlpha" operator="out"/>
<feColorMatrix type="matrix" values="0 0 0 0 0.34902 0 0 0 0 0.52549 0 0 0 0 0.992157 0 0 0 1 0"/>
<feBlend mode="normal" in2="BackgroundImageFix" result="effect1_dropShadow_4288_52008"/>
<feBlend mode="normal" in="SourceGraphic" in2="effect1_dropShadow_4288_52008" result="shape"/>
</filter>
<filter id="filter3_d_4288_52008" x="677.052" y="199.595" width="114.872" height="114.872" filterUnits="userSpaceOnUse" color-interpolation-filters="sRGB">
<feFlood flood-opacity="0" result="BackgroundImageFix"/>
<feColorMatrix in="SourceAlpha" type="matrix" values="0 0 0 0 0 0 0 0 0 0 0 0 0 0 0 0 0 0 127 0" result="hardAlpha"/>
<feOffset/>
<feGaussianBlur stdDeviation="18.4615"/>
<feComposite in2="hardAlpha" operator="out"/>
<feColorMatrix type="matrix" values="0 0 0 0 0.960784 0 0 0 0 0.541176 0 0 0 0 0.121569 0 0 0 1 0"/>
<feBlend mode="normal" in2="BackgroundImageFix" result="effect1_dropShadow_4288_52008"/>
<feBlend mode="normal" in="SourceGraphic" in2="effect1_dropShadow_4288_52008" result="shape"/>
</filter>
<linearGradient id="paint0_linear_4288_52008" x1="633.278" y1="415.385" x2="788.011" y2="190.482" gradientUnits="userSpaceOnUse">
<stop stop-color="#F58A1F"/>
<stop offset="1" stop-color="#F58A1F" stop-opacity="0"/>
</linearGradient>
<linearGradient id="paint1_linear_4288_52008" x1="633.278" y1="379.4" x2="784.413" y2="231.864" gradientUnits="userSpaceOnUse">
<stop stop-color="#F58A1F"/>
<stop offset="1" stop-color="#F58A1F" stop-opacity="0"/>
</linearGradient>
<linearGradient id="paint2_linear_4288_52008" x1="663.865" y1="345.216" x2="735.834" y2="260.653" gradientUnits="userSpaceOnUse">
<stop stop-color="#F58A1F"/>
<stop offset="1" stop-color="#F58A1F" stop-opacity="0"/>
</linearGradient>
<clipPath id="clip0_4288_52008">
<rect width="760" height="560" rx="8" fill="white"/>
</clipPath>
</defs>
</svg>
