<svg width="608" height="448" viewBox="0 0 608 448" fill="none" xmlns="http://www.w3.org/2000/svg">
<g clip-path="url(#clip0_30215_27549)">
<rect width="608" height="448" rx="6.4" fill="#1E2229"/>
<path d="M149.051 108.054V93.4923H153.796C155.37 93.4923 156.553 93.8191 157.344 94.4726C158.141 95.1261 158.54 96.0929 158.54 97.373C158.54 98.0529 158.347 98.6565 157.962 99.183C157.577 99.703 157.052 100.106 156.387 100.393C157.171 100.613 157.789 101.033 158.241 101.654C158.7 102.267 158.929 103 158.929 103.854C158.929 105.161 158.507 106.187 157.663 106.934C156.819 107.68 155.627 108.054 154.085 108.054H149.051ZM150.965 101.243V106.484H154.125C155.015 106.484 155.716 106.254 156.228 105.794C156.746 105.327 157.005 104.687 157.005 103.874C157.005 102.12 156.055 101.243 154.155 101.243H150.965ZM150.965 99.703H153.855C154.693 99.703 155.36 99.4928 155.859 99.0729C156.364 98.6531 156.616 98.0827 156.616 97.363C156.616 96.5626 156.384 95.9828 155.919 95.6227C155.454 95.2561 154.746 95.0728 153.796 95.0728H150.965V99.703ZM166.693 98.8931C166.414 98.8463 166.112 98.8229 165.786 98.8229C164.577 98.8229 163.756 99.3399 163.325 100.373V108.054H161.481V97.233H163.274L163.304 98.4827C163.909 97.5164 164.766 97.0328 165.876 97.0328C166.235 97.0328 166.507 97.0796 166.693 97.1727V98.8931ZM170.401 108.054H168.557V97.233H170.401V108.054ZM168.408 94.3625C168.408 94.0626 168.498 93.8091 168.677 93.6024C168.863 93.3957 169.135 93.2921 169.494 93.2921C169.853 93.2921 170.125 93.3957 170.311 93.6024C170.498 93.8091 170.59 94.0626 170.59 94.3625C170.59 94.6623 170.498 94.9124 170.311 95.1126C170.125 95.3123 169.853 95.4125 169.494 95.4125C169.135 95.4125 168.863 95.3123 168.677 95.1126C168.498 94.9124 168.408 94.6623 168.408 94.3625ZM175.106 97.233L175.165 98.5928C175.989 97.5528 177.066 97.0328 178.395 97.0328C180.674 97.0328 181.823 98.3228 181.843 100.903V108.054H180V100.893C179.993 100.113 179.813 99.5362 179.461 99.1631C179.115 98.7895 178.574 98.6028 177.837 98.6028C177.239 98.6028 176.713 98.7631 176.262 99.0829C175.81 99.4032 175.458 99.8231 175.205 100.343V108.054H173.361V97.233H175.106ZM184.186 102.554C184.186 100.867 184.574 99.5262 185.352 98.533C186.129 97.5328 187.159 97.0328 188.442 97.0328C189.757 97.0328 190.784 97.4995 191.521 98.4329L191.611 97.233H193.295V107.794C193.295 109.194 192.88 110.298 192.05 111.104C191.226 111.911 190.116 112.315 188.721 112.315C187.943 112.315 187.182 112.148 186.438 111.815C185.694 111.481 185.126 111.025 184.734 110.444L185.691 109.334C186.481 110.314 187.448 110.805 188.591 110.805C189.488 110.805 190.186 110.551 190.684 110.044C191.189 109.538 191.441 108.824 191.441 107.904V106.974C190.704 107.827 189.698 108.254 188.421 108.254C187.159 108.254 186.136 107.744 185.352 106.724C184.574 105.704 184.186 104.314 184.186 102.554ZM186.04 102.763C186.04 103.984 186.289 104.944 186.787 105.644C187.285 106.337 187.983 106.684 188.88 106.684C190.043 106.684 190.897 106.154 191.441 105.094V100.153C190.877 99.1198 190.03 98.6028 188.9 98.6028C188.003 98.6028 187.302 98.9529 186.797 99.6532C186.292 100.353 186.04 101.39 186.04 102.763ZM198.09 108.054H196.246V97.233H198.09V108.054ZM196.096 94.3625C196.096 94.0626 196.186 93.8091 196.365 93.6024C196.551 93.3957 196.824 93.2921 197.183 93.2921C197.542 93.2921 197.814 93.3957 198 93.6024C198.186 93.8091 198.279 94.0626 198.279 94.3625C198.279 94.6623 198.186 94.9124 198 95.1126C197.814 95.3123 197.542 95.4125 197.183 95.4125C196.824 95.4125 196.551 95.3123 196.365 95.1126C196.186 94.9124 196.096 94.6623 196.096 94.3625ZM202.794 97.233L202.854 98.5928C203.678 97.5528 204.754 97.0328 206.083 97.0328C208.363 97.0328 209.512 98.3228 209.532 100.903V108.054H207.688V100.893C207.682 100.113 207.502 99.5362 207.15 99.1631C206.804 98.7895 206.263 98.6028 205.525 98.6028C204.927 98.6028 204.402 98.7631 203.951 99.0829C203.498 99.4032 203.146 99.8231 202.894 100.343V108.054H201.05V97.233H202.794ZM211.874 102.554C211.874 100.867 212.263 99.5262 213.041 98.533C213.818 97.5328 214.848 97.0328 216.13 97.0328C217.446 97.0328 218.473 97.4995 219.21 98.4329L219.3 97.233H220.984V107.794C220.984 109.194 220.569 110.298 219.738 111.104C218.914 111.911 217.805 112.315 216.409 112.315C215.632 112.315 214.871 112.148 214.127 111.815C213.383 111.481 212.815 111.025 212.423 110.444L213.379 109.334C214.17 110.314 215.137 110.805 216.28 110.805C217.177 110.805 217.875 110.551 218.373 110.044C218.878 109.538 219.13 108.824 219.13 107.904V106.974C218.393 107.827 217.386 108.254 216.11 108.254C214.848 108.254 213.824 107.744 213.041 106.724C212.263 105.704 211.874 104.314 211.874 102.554ZM213.728 102.763C213.728 103.984 213.977 104.944 214.476 105.644C214.974 106.337 215.672 106.684 216.569 106.684C217.732 106.684 218.585 106.154 219.13 105.094V100.153C218.565 99.1198 217.718 98.6028 216.589 98.6028C215.692 98.6028 214.99 98.9529 214.486 99.6532C213.981 100.353 213.728 101.39 213.728 102.763ZM231.34 94.6125V97.233H233.354V98.663H231.34V105.374C231.34 105.807 231.43 106.134 231.609 106.354C231.788 106.567 232.094 106.674 232.526 106.674C232.739 106.674 233.031 106.634 233.403 106.554V108.054C232.918 108.188 232.446 108.254 231.988 108.254C231.164 108.254 230.543 108.004 230.124 107.504C229.706 107.004 229.496 106.294 229.496 105.374V98.663H227.533V97.233H229.496V94.6125H231.34ZM234.828 102.544C234.828 101.483 235.034 100.53 235.446 99.6831C235.865 98.8364 236.443 98.1829 237.181 97.7226C237.925 97.2629 238.772 97.0328 239.722 97.0328C241.191 97.0328 242.377 97.5428 243.281 98.5629C244.191 99.583 244.646 100.94 244.646 102.633V102.763C244.646 103.817 244.444 104.764 244.038 105.604C243.639 106.437 243.065 107.087 242.314 107.554C241.569 108.021 240.713 108.254 239.742 108.254C238.28 108.254 237.094 107.744 236.184 106.724C235.281 105.704 234.828 104.354 234.828 102.674V102.544ZM236.682 102.763C236.682 103.964 236.958 104.927 237.51 105.654C238.068 106.38 238.812 106.744 239.742 106.744C240.679 106.744 241.424 106.377 241.975 105.644C242.527 104.904 242.802 103.87 242.802 102.544C242.802 101.357 242.52 100.396 241.955 99.6632C241.397 98.923 240.653 98.5529 239.722 98.5529C238.812 98.5529 238.078 98.9165 237.52 99.6433C236.961 100.37 236.682 101.41 236.682 102.763ZM246.52 102.554C246.52 100.867 246.909 99.5262 247.686 98.533C248.463 97.5328 249.493 97.0328 250.776 97.0328C252.092 97.0328 253.118 97.4995 253.856 98.4329L253.946 97.233H255.63V107.794C255.63 109.194 255.215 110.298 254.384 111.104C253.56 111.911 252.45 112.315 251.055 112.315C250.278 112.315 249.517 112.148 248.773 111.815C248.029 111.481 247.46 111.025 247.068 110.444L248.025 109.334C248.816 110.314 249.783 110.805 250.926 110.805C251.823 110.805 252.52 110.551 253.019 110.044C253.524 109.538 253.776 108.824 253.776 107.904V106.974C253.039 107.827 252.032 108.254 250.756 108.254C249.493 108.254 248.47 107.744 247.686 106.724C246.909 105.704 246.52 104.314 246.52 102.554ZM248.374 102.763C248.374 103.984 248.623 104.944 249.122 105.644C249.62 106.337 250.317 106.684 251.214 106.684C252.377 106.684 253.231 106.154 253.776 105.094V100.153C253.211 99.1198 252.364 98.6028 251.234 98.6028C250.337 98.6028 249.636 98.9529 249.132 99.6532C248.626 100.353 248.374 101.39 248.374 102.763ZM262.896 108.254C261.434 108.254 260.245 107.774 259.328 106.814C258.411 105.847 257.952 104.557 257.952 102.944V102.603C257.952 101.53 258.155 100.573 258.56 99.7329C258.972 98.8862 259.544 98.2262 260.275 97.753C261.012 97.2728 261.809 97.0328 262.667 97.0328C264.069 97.0328 265.159 97.496 265.936 98.4229C266.713 99.3499 267.102 100.676 267.102 102.403V103.174H259.796C259.823 104.24 260.132 105.104 260.723 105.764C261.321 106.417 262.079 106.744 262.996 106.744C263.647 106.744 264.199 106.611 264.65 106.344C265.102 106.077 265.497 105.724 265.836 105.284L266.963 106.164C266.059 107.557 264.703 108.254 262.896 108.254ZM262.667 98.5529C261.923 98.5529 261.298 98.8264 260.793 99.3733C260.288 99.9132 259.976 100.673 259.856 101.654H265.258V101.513C265.205 100.573 264.953 99.8465 264.501 99.333C264.049 98.8129 263.438 98.5529 262.667 98.5529ZM271.747 94.6125V97.233H273.76V98.663H271.747V105.374C271.747 105.807 271.837 106.134 272.016 106.354C272.196 106.567 272.501 106.674 272.933 106.674C273.146 106.674 273.438 106.634 273.81 106.554V108.054C273.325 108.188 272.853 108.254 272.395 108.254C271.571 108.254 270.95 108.004 270.531 107.504C270.112 107.004 269.903 106.294 269.903 105.374V98.663H267.939V97.233H269.903V94.6125H271.747ZM277.767 98.543C278.584 97.5363 279.647 97.0328 280.956 97.0328C283.235 97.0328 284.385 98.3228 284.405 100.903V108.054H282.561V100.893C282.554 100.113 282.375 99.5362 282.023 99.1631C281.677 98.7895 281.136 98.6028 280.398 98.6028C279.8 98.6028 279.275 98.7631 278.823 99.0829C278.372 99.4032 278.019 99.8231 277.767 100.343V108.054H275.923V92.6924H277.767V98.543ZM291.641 108.254C290.179 108.254 288.99 107.774 288.073 106.814C287.156 105.847 286.698 104.557 286.698 102.944V102.603C286.698 101.53 286.9 100.573 287.305 99.7329C287.717 98.8862 288.289 98.2262 289.02 97.753C289.758 97.2728 290.555 97.0328 291.412 97.0328C292.814 97.0328 293.904 97.496 294.681 98.4229C295.459 99.3499 295.847 100.676 295.847 102.403V103.174H288.541C288.568 104.24 288.877 105.104 289.469 105.764C290.066 106.417 290.824 106.744 291.741 106.744C292.392 106.744 292.943 106.611 293.396 106.344C293.847 106.077 294.242 105.724 294.582 105.284L295.708 106.164C294.804 107.557 293.449 108.254 291.641 108.254ZM291.412 98.5529C290.668 98.5529 290.043 98.8264 289.538 99.3733C289.033 99.9132 288.721 100.673 288.601 101.654H294.003V101.513C293.95 100.573 293.698 99.8465 293.246 99.333C292.794 98.8129 292.183 98.5529 291.412 98.5529ZM303.203 98.8931C302.924 98.8463 302.622 98.8229 302.296 98.8229C301.087 98.8229 300.266 99.3399 299.834 100.373V108.054H297.99V97.233H299.784L299.815 98.4827C300.419 97.5164 301.276 97.0328 302.386 97.0328C302.745 97.0328 303.017 97.0796 303.203 97.1727V98.8931Z" fill="white"/>
<path d="M165.238 45.335C169.815 45.335 174.674 46.8691 178.01 50.1665L174.148 56.4773C171.954 54.5646 168.668 52.9906 165.62 52.9906C158.805 52.9906 155.995 57.8221 155.995 62.7433C155.995 67.8139 159.043 73.0239 165.62 73.0239C169.001 73.0239 172.341 71.1561 174.674 68.8151L178.963 74.9366C178.507 75.4098 178.015 75.868 177.489 76.3114C174.555 78.7819 170.529 80.6697 165.238 80.6697C154.277 80.6697 147.368 73.0688 147.368 62.9326C147.368 52.9857 154.709 45.335 165.238 45.335Z" fill="white"/>
<path d="M197.533 45.335C208.111 45.335 215.353 52.9857 215.353 62.7881C215.353 72.8297 208.111 80.6697 197.533 80.6697C186.954 80.6697 179.712 72.8297 179.712 62.7881C179.707 52.9857 186.949 45.335 197.533 45.335ZM197.533 73.019C202.918 73.019 206.731 68.6208 206.731 62.7881C206.731 57.1946 202.918 52.9857 197.533 52.9857C192.147 52.9857 188.334 57.1946 188.334 62.7881C188.334 68.6208 192.147 73.019 197.533 73.019Z" fill="white"/>
<path d="M219.915 45.9082H228.349L237.785 61.8771C239.121 64.1235 240.645 67.7097 240.645 67.7097H240.739C240.739 67.7097 240.357 64.0288 240.357 61.8771V45.9082H248.696V80.0973H240.307L230.826 64.1733C229.49 61.9269 227.967 58.3406 227.967 58.3406H227.872C227.872 58.3406 228.254 62.0215 228.254 64.1733V80.0973H219.915V45.9082Z" fill="white"/>
<path d="M264.159 53.0807H253.819V45.9082H282.838V53.0807H272.498V80.0973H264.159V53.0807Z" fill="white"/>
<path d="M293.442 45.9082H302.208L313.789 80.0973H305.211L303.117 72.9248H292.489L290.439 80.0973H281.861L293.442 45.9082ZM301.161 66.2304L299.255 59.5858C298.634 57.4341 297.875 53.7034 297.875 53.7034H297.78C297.78 53.7034 297.016 57.4341 296.4 59.5858L294.444 66.2304H301.161Z" fill="white"/>
<path d="M332.974 45.335C337.551 45.335 342.411 46.8691 345.746 50.1665L341.885 56.4773C339.69 54.5646 336.404 52.9906 333.356 52.9906C326.541 52.9906 323.731 57.8221 323.731 62.7433C323.731 67.8139 326.779 73.0239 333.356 73.0239C336.737 73.0239 340.078 71.1561 342.411 68.8151L346.7 74.9366C343.696 78.0447 339.219 80.6746 332.974 80.6746C322.014 80.6746 315.104 73.0738 315.104 62.9376C315.104 52.9857 322.441 45.335 332.974 45.335Z" fill="white"/>
<path d="M360.812 53.0807H350.472V45.9082H379.491V53.0807H369.152V80.0973H360.812V53.0807Z" fill="white"/>
<path fill-rule="evenodd" clip-rule="evenodd" d="M109.293 59.3568C112.654 58.4552 116.109 60.4625 117.007 63.8346C117.98 67.4856 118.472 71.2612 118.467 75.0566C118.467 98.9751 99.0777 118.431 75.2408 118.431C51.4088 118.431 32.0146 98.9751 32.0146 75.0566C32.0146 55.382 45.2386 38.138 64.1761 33.1172C67.5417 32.2207 70.9916 34.2379 71.8802 37.615C72.7687 40.9921 70.7633 44.4538 67.3977 45.3454C53.9851 48.8968 44.6181 61.115 44.6181 75.0566C44.6181 82.528 47.2937 89.3868 51.7265 94.7164C51.2252 93.1623 50.9472 91.5037 50.9472 89.7753C50.9472 80.8993 58.1201 73.7068 66.9609 73.7068C75.8067 73.7068 82.9746 80.9042 82.9746 89.7753C82.9746 97.411 77.6582 103.792 70.5399 105.425C72.0738 105.664 73.6473 105.789 75.2457 105.789C92.1331 105.789 105.868 92.0067 105.868 75.0616C105.868 72.357 105.521 69.6772 104.831 67.0971C103.932 63.725 105.933 60.2583 109.293 59.3568ZM102.294 46.5604C102.294 52.3456 97.6208 57.0353 91.8551 57.0353C86.0895 57.0353 81.4159 52.3456 81.4159 46.5604C81.4159 40.7753 86.0895 36.0855 91.8551 36.0855C97.6208 36.0855 102.294 40.7753 102.294 46.5604Z" fill="#F58A1F"/>
<g opacity="0.4">
<rect x="531.05" y="151.833" width="12.0044" height="11.1535" rx="5.57677" fill="#956A37"/>
</g>
<path d="M570.778 88.8706C487.311 83.9715 415.677 147.663 410.778 231.129C405.879 314.596 469.57 386.23 553.036 391.129C636.503 396.028 708.137 332.337 713.036 248.871C714.936 216.504 706.522 185.917 690.64 160.31" stroke="#F58A1F" stroke-width="23.0902" stroke-linecap="round"/>
<path opacity="0.6" d="M568.401 129.366C507.299 125.779 454.859 172.405 451.273 233.506C447.686 294.608 494.312 347.048 555.413 350.635C616.515 354.221 668.955 307.596 672.541 246.494C673.932 222.8 667.772 200.409 656.146 181.663" stroke="url(#paint0_linear_30215_27549)" stroke-width="17.2726" stroke-linecap="round"/>
<path opacity="0.4" d="M566.221 166.508C525.633 164.126 490.799 195.097 488.416 235.685C486.034 276.274 517.006 311.108 557.594 313.49C598.182 315.873 633.016 284.901 635.399 244.313C636.322 228.574 632.231 213.7 624.508 201.248" stroke="url(#paint1_linear_30215_27549)" stroke-width="11.515" stroke-linecap="round"/>
<path opacity="0.2" d="M564.422 197.155C540.759 195.767 520.451 213.823 519.062 237.485C517.673 261.148 535.73 281.456 559.392 282.845C583.055 284.234 603.363 266.177 604.752 242.515C605.29 233.339 602.905 224.668 598.402 217.408" stroke="url(#paint2_linear_30215_27549)" stroke-width="8.63628" stroke-linecap="round"/>
<rect x="485.969" y="157.361" width="110.769" height="193.597" rx="11.9751" fill="white"/>
<rect x="504.93" y="167.341" width="71.8503" height="5.98753" rx="2.99376" fill="#FFCED3"/>
<rect x="493.953" y="182.31" width="93.8046" height="19.9584" rx="3.99168" fill="#E8EDF5"/>
<rect x="493.953" y="215.242" width="93.8046" height="19.9584" rx="3.99168" fill="#E8EDF5"/>
<rect x="493.953" y="248.173" width="93.8046" height="19.9584" rx="3.99168" fill="#E8EDF5"/>
<rect x="493.952" y="281.104" width="93.8046" height="19.9584" rx="3.99168" fill="#E8EDF5"/>
<rect x="493.953" y="323.017" width="93.8046" height="19.9584" rx="3.99168" fill="#E22338"/>
<rect x="493.953" y="210.251" width="30.9356" height="1.99584" rx="0.997921" fill="#BEC5D0"/>
<rect x="493.953" y="243.182" width="30.9356" height="1.99584" rx="0.997921" fill="#BEC5D0"/>
<rect x="493.953" y="276.115" width="30.9356" height="1.99584" rx="0.997921" fill="#BEC5D0"/>
<rect x="520.897" y="331" width="40.9148" height="3.99168" rx="1.99584" fill="white"/>
<rect x="295.2" y="157.361" width="110.769" height="193.597" rx="11.9751" fill="white"/>
<rect x="314.161" y="167.341" width="71.8503" height="5.98753" rx="2.99376" fill="#D0DDFF"/>
<rect x="303.184" y="215.242" width="93.8046" height="19.9584" rx="3.99168" fill="#E8EDF5"/>
<rect x="303.184" y="248.173" width="93.8046" height="19.9584" rx="3.99168" fill="#E8EDF5"/>
<rect x="303.184" y="281.104" width="93.8046" height="19.9584" rx="3.99168" fill="#E8EDF5"/>
<rect x="303.183" y="322.019" width="93.8046" height="19.9584" rx="3.99168" fill="#E8EDF5"/>
<rect x="303.183" y="303.057" width="5.98753" height="5.98753" rx="0.997921" fill="#E8EDF5"/>
<rect x="303.184" y="323.017" width="93.8046" height="19.9584" rx="3.99168" fill="#5986FD"/>
<rect x="303.184" y="210.251" width="30.9356" height="1.99584" rx="0.997921" fill="#BEC5D0"/>
<rect x="303.184" y="182.31" width="93.8046" height="1.99584" rx="0.997921" fill="#BEC5D0"/>
<rect x="303.184" y="186.302" width="61.8711" height="1.99584" rx="0.997921" fill="#BEC5D0"/>
<rect x="303.184" y="190.292" width="86.8191" height="1.99584" rx="0.997921" fill="#BEC5D0"/>
<rect x="303.184" y="194.285" width="75.842" height="1.99584" rx="0.997921" fill="#BEC5D0"/>
<rect x="303.184" y="198.276" width="90.8108" height="1.99584" rx="0.997921" fill="#BEC5D0"/>
<rect x="303.184" y="243.182" width="30.9356" height="1.99584" rx="0.997921" fill="#BEC5D0"/>
<rect x="303.184" y="276.115" width="30.9356" height="1.99584" rx="0.997921" fill="#BEC5D0"/>
<rect x="303.184" y="317.029" width="30.9356" height="1.99584" rx="0.997921" fill="#BEC5D0"/>
<rect x="312.165" y="305.054" width="50.894" height="1.99584" rx="0.997921" fill="#BEC5D0"/>
<rect x="330.127" y="331" width="40.9148" height="3.99168" rx="1.99584" fill="white"/>
<g filter="url(#filter0_d_30215_27549)">
<rect x="393.662" y="134.775" width="136.615" height="238.769" rx="14.7692" fill="white"/>
<rect x="417.046" y="147.083" width="88.6154" height="7.38462" rx="3.69231" fill="#FFE3C2"/>
<rect x="403.508" y="175.391" width="115.692" height="24.6154" rx="4.92308" fill="#E8EDF5"/>
<rect x="403.508" y="202.468" width="115.692" height="24.6154" rx="4.92308" fill="#E8EDF5"/>
<rect x="403.508" y="229.544" width="115.692" height="24.6154" rx="4.92308" fill="#E8EDF5"/>
<rect x="403.508" y="256.621" width="115.692" height="24.6154" rx="4.92308" fill="#E8EDF5"/>
<rect x="403.508" y="305.852" width="7.38462" height="7.38462" rx="1.23077" fill="#E8EDF5"/>
<rect x="403.508" y="315.697" width="7.38462" height="7.38462" rx="1.23077" fill="#E8EDF5"/>
<rect x="403.508" y="339.084" width="115.692" height="24.6154" rx="4.92308" fill="#F58A1F"/>
<rect x="403.508" y="165.544" width="48" height="4.92308" rx="2.46154" fill="#BEC5D0"/>
<rect x="403.508" y="293.545" width="48" height="4.92308" rx="2.46154" fill="#BEC5D0"/>
<rect x="414.585" y="308.313" width="62.7692" height="2.46154" rx="1.23077" fill="#BEC5D0"/>
<rect x="414.585" y="318.159" width="62.7692" height="2.46154" rx="1.23077" fill="#BEC5D0"/>
<rect x="436.739" y="348.93" width="50.4615" height="4.92308" rx="2.46154" fill="white"/>
</g>
<rect x="424.43" y="108.929" width="57.4359" height="57.4359" rx="28.7179" fill="#5986FD"/>
<path fill-rule="evenodd" clip-rule="evenodd" d="M441.66 122.878C441.66 121.065 443.13 119.596 444.942 119.596H461.352C463.165 119.596 464.635 121.065 464.635 122.878V152.006C464.635 153.819 463.165 155.288 461.352 155.288H444.942C443.13 155.288 441.66 153.819 441.66 152.006V122.878ZM449.866 123.165C449.866 122.646 450.286 122.225 450.805 122.225H455.49C456.009 122.225 456.43 122.646 456.43 123.165C456.43 123.683 456.009 124.104 455.49 124.104H450.805C450.286 124.104 449.866 123.683 449.866 123.165ZM452.856 151.907C452.337 151.907 451.917 152.327 451.917 152.846C451.917 153.365 452.337 153.785 452.856 153.785H453.849C454.368 153.785 454.788 153.365 454.788 152.846C454.788 152.327 454.368 151.907 453.849 151.907H452.856Z" fill="white"/>
<path fill-rule="evenodd" clip-rule="evenodd" d="M444.122 129.853C444.122 128.947 444.856 128.212 445.763 128.212H460.532C461.438 128.212 462.173 128.947 462.173 129.853V138.058C462.173 138.964 461.438 139.699 460.532 139.699H445.763C444.856 139.699 444.122 138.964 444.122 138.058V129.853ZM445.763 137.032C445.763 136.466 446.222 136.006 446.788 136.006H450.071C450.637 136.006 451.096 136.466 451.096 137.032C451.096 137.598 450.637 138.058 450.071 138.058H446.788C446.222 138.058 445.763 137.598 445.763 137.032ZM452.942 136.006C452.376 136.006 451.917 136.466 451.917 137.032C451.917 137.598 452.376 138.058 452.942 138.058H453.353C453.919 138.058 454.378 137.598 454.378 137.032C454.378 136.466 453.919 136.006 453.353 136.006H452.942Z" fill="#5986FD"/>
<rect x="446.583" y="143.391" width="13.1282" height="4.10256" rx="2.05128" fill="#5986FD"/>
<rect x="363.917" y="337.031" width="57.4359" height="57.4359" rx="28.7179" fill="#E22338"/>
<path fill-rule="evenodd" clip-rule="evenodd" d="M405.353 367.795C403.543 368.842 401.441 369.441 399.199 369.441C393.245 369.441 388.278 365.213 387.138 359.595H377.866C376.053 359.595 374.584 361.064 374.584 362.877V376.825C374.584 378.638 376.053 380.108 377.866 380.108H402.071C403.884 380.108 405.353 378.638 405.353 376.825V367.795ZM378.071 375.596C377.505 375.596 377.046 376.055 377.046 376.621C377.046 377.188 377.505 377.647 378.071 377.647H382.584C383.151 377.647 383.61 377.188 383.61 376.621C383.61 376.055 383.151 375.596 382.584 375.596H378.071ZM384.84 376.621C384.84 376.055 385.299 375.596 385.866 375.596H386.686C387.253 375.596 387.712 376.055 387.712 376.621C387.712 377.188 387.253 377.647 386.686 377.647H385.866C385.299 377.647 384.84 377.188 384.84 376.621Z" fill="white"/>
<path fill-rule="evenodd" clip-rule="evenodd" d="M399.2 366.57C404.411 366.57 408.635 362.345 408.635 357.134C408.635 351.923 404.411 347.698 399.2 347.698C393.988 347.698 389.764 351.923 389.764 357.134C389.764 362.345 393.988 366.57 399.2 366.57ZM393.813 356.717C393.984 353.801 396.486 351.576 399.403 351.747C399.855 351.773 400.243 351.428 400.27 350.976C400.296 350.523 399.951 350.135 399.499 350.109C395.678 349.884 392.399 352.8 392.174 356.621C391.95 360.442 394.866 363.721 398.687 363.946C402.508 364.17 405.787 361.254 406.011 357.433C406.098 355.953 405.713 354.551 404.986 353.378C404.747 352.993 404.241 352.875 403.856 353.114C403.471 353.352 403.352 353.858 403.591 354.243C404.146 355.138 404.439 356.205 404.373 357.337C404.202 360.253 401.699 362.478 398.783 362.307C395.867 362.136 393.641 359.633 393.813 356.717ZM399.681 357.544L396.533 357.544C396.08 357.544 395.712 357.177 395.712 356.723C395.712 356.27 396.08 355.903 396.533 355.903H399.68L399.03 355.253C398.709 354.933 398.709 354.413 399.03 354.093C399.35 353.772 399.87 353.772 400.19 354.093L402.241 356.144L402.821 356.724L402.241 357.304L400.19 359.356C399.87 359.676 399.35 359.676 399.03 359.356C398.709 359.035 398.709 358.516 399.03 358.195L399.681 357.544Z" fill="white"/>
<g filter="url(#filter1_d_30215_27549)">
<rect x="329.251" y="271.8" width="32.8205" height="32.8205" rx="16.4103" fill="white"/>
<path fill-rule="evenodd" clip-rule="evenodd" d="M348.119 284.693C344.998 285.364 342.571 287.903 342.066 291.082C342.034 291.083 342.002 291.083 341.969 291.083C338.571 291.083 335.815 288.328 335.815 284.929C335.815 281.531 338.571 278.775 341.969 278.775C345.289 278.775 347.995 281.404 348.119 284.693Z" fill="#E22338"/>
<ellipse cx="349.764" cy="292.314" rx="6.15385" ry="6.15385" fill="#E22338"/>
<path d="M349.763 289.853V294.776" stroke="white" stroke-width="1.64103" stroke-linecap="round"/>
<path d="M347.302 292.313H352.225" stroke="white" stroke-width="1.64103" stroke-linecap="round"/>
<path d="M339.917 284.929L344.02 284.929" stroke="white" stroke-width="1.64103" stroke-linecap="round"/>
</g>
<g filter="url(#filter2_d_30215_27549)">
<rect x="279.2" y="143.392" width="32.8205" height="32.8205" rx="16.4103" fill="white"/>
<path d="M286.584 157.749C286.584 157.296 286.951 156.929 287.404 156.929H290.687C291.14 156.929 291.507 157.296 291.507 157.749V165.134H286.584V157.749Z" fill="#5986FD"/>
<path d="M293.148 155.288C293.148 154.835 293.515 154.468 293.968 154.468H297.251C297.704 154.468 298.071 154.835 298.071 155.288V165.134H293.148V155.288Z" fill="#5986FD"/>
<path d="M299.713 152.826C299.713 152.373 300.08 152.006 300.533 152.006H303.815C304.269 152.006 304.636 152.373 304.636 152.826V165.134H299.713V152.826Z" fill="#5986FD"/>
<rect x="285.354" y="165.955" width="20.5128" height="1.64103" rx="0.820513" fill="#5986FD"/>
</g>
<g filter="url(#filter3_d_30215_27549)">
<rect x="571.179" y="189.216" width="32.8205" height="32.8205" rx="16.4103" fill="white"/>
<path d="M583.999 208.088C582.839 208.088 581.849 207.697 581.026 206.917C580.204 206.136 579.793 205.182 579.794 204.054C579.794 203.087 580.093 202.226 580.692 201.47C581.291 200.714 582.075 200.231 583.043 200.02C583.362 198.88 583.999 197.956 584.955 197.25C585.91 196.544 586.994 196.19 588.204 196.19C589.695 196.19 590.96 196.696 591.999 197.706C593.038 198.716 593.557 199.946 593.556 201.396C594.435 201.495 595.165 201.864 595.745 202.502C596.325 203.141 596.615 203.887 596.614 204.742C596.614 205.671 596.28 206.461 595.611 207.112C594.941 207.763 594.129 208.088 593.174 208.088H583.999Z" fill="#F58A1F"/>
<ellipse cx="586.563" cy="211.575" rx="2.25641" ry="2.25641" fill="#F58A1F"/>
<circle cx="582.051" cy="214.036" r="1.4359" fill="#F58A1F"/>
</g>
<rect x="500.533" y="229.544" width="57.4359" height="57.4359" rx="28.7179" fill="#F58A1F"/>
<path fill-rule="evenodd" clip-rule="evenodd" d="M539.097 255.187C539.097 257.34 533.954 259.085 527.61 259.085C521.266 259.085 516.123 257.34 516.123 255.187C516.123 253.035 521.266 251.29 527.61 251.29C533.954 251.29 539.097 253.035 539.097 255.187ZM516.123 257.035V257.24V260.727H516.139C516.128 260.795 516.123 260.863 516.123 260.932C516.123 263.085 521.266 264.83 527.61 264.83C528.518 264.83 529.402 264.794 530.249 264.726C531.896 262.545 534.512 261.135 537.456 261.135C538.001 261.135 538.535 261.183 539.053 261.276C539.083 261.163 539.097 261.048 539.097 260.932C539.097 260.863 539.092 260.795 539.082 260.727H539.097V257.24V257.035H539.082C539.092 257.103 539.097 257.171 539.097 257.24C539.097 259.393 533.955 261.137 527.61 261.137C521.266 261.137 516.123 259.393 516.123 257.24C516.123 257.171 516.128 257.103 516.139 257.035H516.123ZM528.765 272.603C529.141 273.945 529.819 275.16 530.722 276.17C529.732 276.265 528.688 276.315 527.61 276.315C521.266 276.315 516.123 274.57 516.123 272.418C516.123 272.349 516.128 272.281 516.138 272.213H516.123V268.52H516.138C516.128 268.588 516.123 268.657 516.123 268.725C516.123 270.878 521.266 272.623 527.61 272.623C528 272.623 528.385 272.616 528.765 272.603ZM529.057 266.849C528.653 267.874 528.43 268.992 528.43 270.161C528.43 270.295 528.433 270.429 528.439 270.561C528.165 270.568 527.889 270.571 527.61 270.571C521.266 270.571 516.123 268.826 516.123 266.674C516.123 266.605 516.128 266.537 516.139 266.469H516.123V262.994C516.141 265.141 521.277 266.88 527.61 266.88C528.1 266.88 528.583 266.869 529.057 266.849ZM516.123 262.971V262.777H516.139C516.129 262.841 516.124 262.906 516.123 262.971Z" fill="white"/>
<ellipse cx="537.456" cy="270.16" rx="6.15385" ry="6.15385" fill="white"/>
<path d="M534.584 270.371L536.489 272.21L540.738 268.107" stroke="#F58A1F" stroke-width="1.64103" stroke-linecap="round"/>
<path d="M523.097 248.416L523.097 241.031" stroke="white" stroke-width="1.64103" stroke-linecap="round"/>
<path d="M531.712 248.416L531.712 241.031" stroke="white" stroke-width="1.64103" stroke-linecap="round"/>
<path d="M521.045 242.673L523.097 240.622L525.148 242.673" stroke="white" stroke-width="1.64103" stroke-linecap="round"/>
<path d="M529.661 242.673L531.712 240.622L533.764 242.673" stroke="white" stroke-width="1.64103" stroke-linecap="round"/>
</g>
<defs>
<filter id="filter0_d_30215_27549" x="356.739" y="97.8523" width="210.461" height="312.616" filterUnits="userSpaceOnUse" color-interpolation-filters="sRGB">
<feFlood flood-opacity="0" result="BackgroundImageFix"/>
<feColorMatrix in="SourceAlpha" type="matrix" values="0 0 0 0 0 0 0 0 0 0 0 0 0 0 0 0 0 0 127 0" result="hardAlpha"/>
<feOffset/>
<feGaussianBlur stdDeviation="18.4615"/>
<feComposite in2="hardAlpha" operator="out"/>
<feColorMatrix type="matrix" values="0 0 0 0 0.117647 0 0 0 0 0.133333 0 0 0 0 0.160784 0 0 0 0.2 0"/>
<feBlend mode="normal" in2="BackgroundImageFix" result="effect1_dropShadow_30215_27549"/>
<feBlend mode="normal" in="SourceGraphic" in2="effect1_dropShadow_30215_27549" result="shape"/>
</filter>
<filter id="filter1_d_30215_27549" x="299.713" y="242.261" width="91.8972" height="91.8972" filterUnits="userSpaceOnUse" color-interpolation-filters="sRGB">
<feFlood flood-opacity="0" result="BackgroundImageFix"/>
<feColorMatrix in="SourceAlpha" type="matrix" values="0 0 0 0 0 0 0 0 0 0 0 0 0 0 0 0 0 0 127 0" result="hardAlpha"/>
<feOffset/>
<feGaussianBlur stdDeviation="14.7692"/>
<feComposite in2="hardAlpha" operator="out"/>
<feColorMatrix type="matrix" values="0 0 0 0 0.886275 0 0 0 0 0.137255 0 0 0 0 0.219608 0 0 0 1 0"/>
<feBlend mode="normal" in2="BackgroundImageFix" result="effect1_dropShadow_30215_27549"/>
<feBlend mode="normal" in="SourceGraphic" in2="effect1_dropShadow_30215_27549" result="shape"/>
</filter>
<filter id="filter2_d_30215_27549" x="249.661" y="113.853" width="91.8972" height="91.8972" filterUnits="userSpaceOnUse" color-interpolation-filters="sRGB">
<feFlood flood-opacity="0" result="BackgroundImageFix"/>
<feColorMatrix in="SourceAlpha" type="matrix" values="0 0 0 0 0 0 0 0 0 0 0 0 0 0 0 0 0 0 127 0" result="hardAlpha"/>
<feOffset/>
<feGaussianBlur stdDeviation="14.7692"/>
<feComposite in2="hardAlpha" operator="out"/>
<feColorMatrix type="matrix" values="0 0 0 0 0.34902 0 0 0 0 0.52549 0 0 0 0 0.992157 0 0 0 1 0"/>
<feBlend mode="normal" in2="BackgroundImageFix" result="effect1_dropShadow_30215_27549"/>
<feBlend mode="normal" in="SourceGraphic" in2="effect1_dropShadow_30215_27549" result="shape"/>
</filter>
<filter id="filter3_d_30215_27549" x="541.641" y="159.677" width="91.8972" height="91.8972" filterUnits="userSpaceOnUse" color-interpolation-filters="sRGB">
<feFlood flood-opacity="0" result="BackgroundImageFix"/>
<feColorMatrix in="SourceAlpha" type="matrix" values="0 0 0 0 0 0 0 0 0 0 0 0 0 0 0 0 0 0 127 0" result="hardAlpha"/>
<feOffset/>
<feGaussianBlur stdDeviation="14.7692"/>
<feComposite in2="hardAlpha" operator="out"/>
<feColorMatrix type="matrix" values="0 0 0 0 0.960784 0 0 0 0 0.541176 0 0 0 0 0.121569 0 0 0 1 0"/>
<feBlend mode="normal" in2="BackgroundImageFix" result="effect1_dropShadow_30215_27549"/>
<feBlend mode="normal" in="SourceGraphic" in2="effect1_dropShadow_30215_27549" result="shape"/>
</filter>
<linearGradient id="paint0_linear_30215_27549" x1="506.622" y1="332.309" x2="630.409" y2="152.386" gradientUnits="userSpaceOnUse">
<stop stop-color="#F58A1F"/>
<stop offset="1" stop-color="#F58A1F" stop-opacity="0"/>
</linearGradient>
<linearGradient id="paint1_linear_30215_27549" x1="506.623" y1="303.52" x2="627.53" y2="185.491" gradientUnits="userSpaceOnUse">
<stop stop-color="#F58A1F"/>
<stop offset="1" stop-color="#F58A1F" stop-opacity="0"/>
</linearGradient>
<linearGradient id="paint2_linear_30215_27549" x1="531.091" y1="276.173" x2="588.667" y2="208.522" gradientUnits="userSpaceOnUse">
<stop stop-color="#F58A1F"/>
<stop offset="1" stop-color="#F58A1F" stop-opacity="0"/>
</linearGradient>
<clipPath id="clip0_30215_27549">
<rect width="608" height="448" rx="6.4" fill="white"/>
</clipPath>
</defs>
</svg>
