<svg width="760" height="561" viewBox="0 0 760 561" fill="none" xmlns="http://www.w3.org/2000/svg">
<rect width="760" height="560" transform="translate(0 0.772461)" fill="#313741"/>
<path fill-rule="evenodd" clip-rule="evenodd" d="M760 1H0V442.806C0 463.793 17.0132 480.806 38 480.806H722C742.987 480.806 760 463.793 760 442.806V1ZM397.591 461.671C387.134 454.405 373.262 454.405 362.805 461.671L359.014 464.306C343.685 474.958 325.488 480.705 306.83 480.795H303.208L306.354 480.796C306.512 480.796 306.671 480.796 306.83 480.795H453.566C453.725 480.796 453.884 480.796 454.042 480.796L457.188 480.795H453.566C434.908 480.705 416.711 474.958 401.382 464.306L397.591 461.671Z" fill="#1E2229"/>
<circle cx="380" cy="474.473" r="6.33333" fill="#1E2229"/>
<path d="M186.314 135.84V117.638H192.245C194.213 117.638 195.692 118.046 196.68 118.863C197.677 119.68 198.176 120.888 198.176 122.488C198.176 123.338 197.934 124.093 197.453 124.751C196.971 125.401 196.315 125.905 195.485 126.264C196.465 126.539 197.237 127.064 197.802 127.839C198.375 128.606 198.662 129.523 198.662 130.589C198.662 132.223 198.134 133.506 197.079 134.44C196.025 135.373 194.534 135.84 192.606 135.84H186.314ZM188.707 127.326V133.877H192.657C193.769 133.877 194.646 133.59 195.285 133.014C195.933 132.431 196.257 131.631 196.257 130.614C196.257 128.423 195.069 127.326 192.694 127.326H188.707ZM188.707 125.401H192.32C193.366 125.401 194.201 125.138 194.824 124.613C195.456 124.089 195.771 123.376 195.771 122.476C195.771 121.475 195.48 120.751 194.899 120.301C194.318 119.842 193.433 119.613 192.245 119.613H188.707V125.401ZM208.367 124.389C208.018 124.33 207.64 124.301 207.233 124.301C205.722 124.301 204.696 124.947 204.156 126.238V135.84H201.851V122.313H204.093L204.131 123.876C204.886 122.668 205.958 122.063 207.345 122.063C207.794 122.063 208.134 122.122 208.367 122.238V124.389ZM213.002 135.84H210.697V122.313H213.002V135.84ZM210.51 118.725C210.51 118.351 210.622 118.034 210.846 117.775C211.079 117.517 211.42 117.387 211.868 117.387C212.316 117.387 212.657 117.517 212.89 117.775C213.122 118.034 213.238 118.351 213.238 118.725C213.238 119.1 213.122 119.413 212.89 119.663C212.657 119.913 212.316 120.038 211.868 120.038C211.42 120.038 211.079 119.913 210.846 119.663C210.622 119.413 210.51 119.1 210.51 118.725ZM218.882 122.313L218.957 124.013C219.987 122.713 221.333 122.063 222.994 122.063C225.842 122.063 227.279 123.676 227.304 126.902V135.84H225V126.889C224.991 125.913 224.767 125.192 224.327 124.726C223.895 124.259 223.218 124.026 222.296 124.026C221.549 124.026 220.892 124.226 220.327 124.626C219.763 125.026 219.322 125.551 219.007 126.201V135.84H216.702V122.313H218.882ZM230.232 128.964C230.232 126.855 230.718 125.18 231.69 123.938C232.662 122.688 233.949 122.063 235.553 122.063C237.197 122.063 238.48 122.647 239.402 123.813L239.514 122.313H241.62V135.515C241.62 137.265 241.1 138.645 240.062 139.653C239.032 140.661 237.645 141.166 235.901 141.166C234.93 141.166 233.978 140.957 233.048 140.541C232.118 140.124 231.408 139.553 230.917 138.828L232.114 137.44C233.102 138.665 234.31 139.278 235.739 139.278C236.861 139.278 237.732 138.961 238.355 138.328C238.987 137.695 239.302 136.802 239.302 135.652V134.49C238.381 135.557 237.122 136.09 235.527 136.09C233.949 136.09 232.67 135.453 231.69 134.177C230.718 132.902 230.232 131.165 230.232 128.964ZM232.55 129.226C232.55 130.752 232.861 131.952 233.484 132.827C234.107 133.694 234.979 134.127 236.1 134.127C237.554 134.127 238.621 133.465 239.302 132.14V125.964C238.597 124.672 237.537 124.026 236.125 124.026C235.004 124.026 234.128 124.463 233.497 125.339C232.865 126.214 232.55 127.51 232.55 129.226ZM247.612 135.84H245.307V122.313H247.612V135.84ZM245.121 118.725C245.121 118.351 245.233 118.034 245.457 117.775C245.69 117.517 246.03 117.387 246.479 117.387C246.927 117.387 247.268 117.517 247.5 117.775C247.733 118.034 247.849 118.351 247.849 118.725C247.849 119.1 247.733 119.413 247.5 119.663C247.268 119.913 246.927 120.038 246.479 120.038C246.03 120.038 245.69 119.913 245.457 119.663C245.233 119.413 245.121 119.1 245.121 118.725ZM253.493 122.313L253.568 124.013C254.598 122.713 255.943 122.063 257.604 122.063C260.454 122.063 261.891 123.676 261.915 126.902V135.84H259.61V126.889C259.602 125.913 259.378 125.192 258.938 124.726C258.506 124.259 257.829 124.026 256.907 124.026C256.159 124.026 255.503 124.226 254.939 124.626C254.373 125.026 253.933 125.551 253.618 126.201V135.84H251.313V122.313H253.493ZM264.843 128.964C264.843 126.855 265.329 125.18 266.301 123.938C267.273 122.688 268.56 122.063 270.163 122.063C271.808 122.063 273.091 122.647 274.013 123.813L274.125 122.313H276.231V135.515C276.231 137.265 275.712 138.645 274.673 139.653C273.643 140.661 272.256 141.166 270.512 141.166C269.54 141.166 268.589 140.957 267.659 140.541C266.729 140.124 266.019 139.553 265.529 138.828L266.724 137.44C267.713 138.665 268.921 139.278 270.35 139.278C271.471 139.278 272.343 138.961 272.966 138.328C273.598 137.695 273.913 136.802 273.913 135.652V134.49C272.991 135.557 271.733 136.09 270.138 136.09C268.56 136.09 267.281 135.453 266.301 134.177C265.329 132.902 264.843 131.165 264.843 128.964ZM267.161 129.226C267.161 130.752 267.472 131.952 268.095 132.827C268.718 133.694 269.59 134.127 270.712 134.127C272.165 134.127 273.232 133.465 273.913 132.14V125.964C273.207 124.672 272.148 124.026 270.736 124.026C269.615 124.026 268.738 124.463 268.107 125.339C267.476 126.214 267.161 127.51 267.161 129.226ZM289.176 119.038V122.313H291.692V124.101H289.176V132.489C289.176 133.031 289.287 133.44 289.512 133.715C289.736 133.981 290.118 134.115 290.658 134.115C290.924 134.115 291.289 134.065 291.754 133.964V135.84C291.148 136.007 290.558 136.09 289.985 136.09C288.955 136.09 288.178 135.778 287.655 135.152C287.132 134.527 286.871 133.639 286.871 132.489V124.101H284.416V122.313H286.871V119.038H289.176ZM293.536 128.952C293.536 127.626 293.793 126.435 294.308 125.376C294.832 124.318 295.554 123.501 296.476 122.925C297.406 122.351 298.466 122.063 299.653 122.063C301.489 122.063 302.972 122.701 304.101 123.976C305.239 125.251 305.808 126.947 305.808 129.064V129.226C305.808 130.543 305.555 131.727 305.048 132.777C304.55 133.819 303.831 134.631 302.893 135.215C301.962 135.798 300.891 136.09 299.678 136.09C297.851 136.09 296.368 135.453 295.23 134.177C294.101 132.902 293.536 131.214 293.536 129.114V128.952ZM295.853 129.226C295.853 130.727 296.198 131.931 296.888 132.839C297.585 133.748 298.515 134.202 299.678 134.202C300.85 134.202 301.78 133.744 302.469 132.827C303.158 131.902 303.503 130.61 303.503 128.952C303.503 127.468 303.15 126.268 302.444 125.351C301.746 124.426 300.816 123.963 299.653 123.963C298.515 123.963 297.598 124.418 296.9 125.326C296.202 126.235 295.853 127.535 295.853 129.226ZM308.15 128.964C308.15 126.855 308.636 125.18 309.608 123.938C310.58 122.688 311.867 122.063 313.47 122.063C315.115 122.063 316.398 122.647 317.32 123.813L317.432 122.313H319.538V135.515C319.538 137.265 319.019 138.645 317.98 139.653C316.951 140.661 315.563 141.166 313.819 141.166C312.847 141.166 311.896 140.957 310.966 140.541C310.036 140.124 309.326 139.553 308.835 138.828L310.032 137.44C311.02 138.665 312.229 139.278 313.657 139.278C314.778 139.278 315.651 138.961 316.274 138.328C316.905 137.695 317.221 136.802 317.221 135.652V134.49C316.299 135.557 315.04 136.09 313.446 136.09C311.867 136.09 310.588 135.453 309.608 134.177C308.636 132.902 308.15 131.165 308.15 128.964ZM310.468 129.226C310.468 130.752 310.779 131.952 311.402 132.827C312.025 133.694 312.897 134.127 314.018 134.127C315.472 134.127 316.539 133.465 317.221 132.14V125.964C316.515 124.672 315.455 124.026 314.043 124.026C312.922 124.026 312.046 124.463 311.415 125.339C310.783 126.214 310.468 127.51 310.468 129.226ZM328.62 136.09C326.793 136.09 325.306 135.49 324.16 134.289C323.014 133.081 322.441 131.468 322.441 129.452V129.027C322.441 127.685 322.694 126.489 323.2 125.438C323.715 124.38 324.43 123.555 325.344 122.963C326.266 122.363 327.262 122.063 328.334 122.063C330.086 122.063 331.449 122.642 332.42 123.801C333.392 124.96 333.878 126.618 333.878 128.776V129.739H324.745C324.779 131.072 325.165 132.152 325.905 132.977C326.652 133.794 327.599 134.202 328.745 134.202C329.559 134.202 330.249 134.035 330.813 133.702C331.378 133.369 331.872 132.927 332.296 132.377L333.704 133.477C332.574 135.219 330.88 136.09 328.62 136.09ZM328.334 123.963C327.404 123.963 326.623 124.305 325.991 124.989C325.36 125.664 324.97 126.614 324.821 127.839H331.573V127.664C331.506 126.489 331.191 125.58 330.627 124.938C330.061 124.288 329.297 123.963 328.334 123.963ZM339.684 119.038V122.313H342.201V124.101H339.684V132.489C339.684 133.031 339.796 133.44 340.02 133.715C340.245 133.981 340.626 134.115 341.166 134.115C341.432 134.115 341.798 134.065 342.263 133.964V135.84C341.656 136.007 341.067 136.09 340.494 136.09C339.464 136.09 338.687 135.778 338.164 135.152C337.641 134.527 337.379 133.639 337.379 132.489V124.101H334.925V122.313H337.379V119.038H339.684ZM347.209 123.951C348.231 122.693 349.56 122.063 351.196 122.063C354.045 122.063 355.482 123.676 355.506 126.902V135.84H353.202V126.889C353.193 125.913 352.969 125.192 352.529 124.726C352.097 124.259 351.42 124.026 350.498 124.026C349.751 124.026 349.094 124.226 348.53 124.626C347.965 125.026 347.524 125.551 347.209 126.201V135.84H344.904V116.638H347.209V123.951ZM364.552 136.09C362.725 136.09 361.238 135.49 360.091 134.289C358.945 133.081 358.373 131.468 358.373 129.452V129.027C358.373 127.685 358.626 126.489 359.132 125.438C359.647 124.38 360.361 123.555 361.275 122.963C362.197 122.363 363.194 122.063 364.265 122.063C366.018 122.063 367.38 122.642 368.352 123.801C369.324 124.96 369.809 126.618 369.809 128.776V129.739H360.677C360.711 131.072 361.097 132.152 361.836 132.977C362.583 133.794 363.53 134.202 364.677 134.202C365.49 134.202 366.18 134.035 366.745 133.702C367.31 133.369 367.803 132.927 368.227 132.377L369.635 133.477C368.505 135.219 366.811 136.09 364.552 136.09ZM364.265 123.963C363.335 123.963 362.554 124.305 361.923 124.989C361.292 125.664 360.902 126.614 360.752 127.839H367.504V127.664C367.438 126.489 367.123 125.58 366.557 124.938C365.993 124.288 365.229 123.963 364.265 123.963ZM379.004 124.389C378.655 124.33 378.277 124.301 377.87 124.301C376.359 124.301 375.333 124.947 374.793 126.238V135.84H372.488V122.313H374.731L374.768 123.876C375.524 122.668 376.595 122.063 377.983 122.063C378.431 122.063 378.772 122.122 379.004 122.238V124.389Z" fill="white"/>
<path d="M206.547 57.4404C212.268 57.4404 218.343 59.3581 222.513 63.4798L217.685 71.3683C214.943 68.9775 210.835 67.01 207.025 67.01C198.506 67.01 194.994 73.0494 194.994 79.2009C194.994 85.5391 198.803 92.0517 207.025 92.0517C211.251 92.0517 215.427 89.7168 218.343 86.7905L223.704 94.4425C223.133 95.034 222.519 95.6068 221.861 96.1609C218.194 99.2491 213.162 101.609 206.547 101.609C192.847 101.609 184.209 92.1077 184.209 79.4375C184.209 67.0038 193.387 57.4404 206.547 57.4404Z" fill="white"/>
<path d="M246.916 57.4404C260.139 57.4404 269.192 67.0038 269.192 79.2569C269.192 91.8088 260.139 101.609 246.916 101.609C233.693 101.609 224.64 91.8088 224.64 79.2569C224.634 67.0038 233.687 57.4404 246.916 57.4404ZM246.916 92.0454C253.648 92.0454 258.414 86.5477 258.414 79.2569C258.414 72.2649 253.648 67.0038 246.916 67.0038C240.184 67.0038 235.418 72.2649 235.418 79.2569C235.418 86.5477 240.184 92.0454 246.916 92.0454Z" fill="white"/>
<path d="M274.894 58.1572H285.436L297.232 78.1183C298.901 80.9263 300.806 85.4091 300.806 85.4091H300.924C300.924 85.4091 300.446 80.808 300.446 78.1183V58.1572H310.87V100.894H300.384L288.532 80.9886C286.863 78.1806 284.958 73.6977 284.958 73.6977H284.841C284.841 73.6977 285.318 78.2989 285.318 80.9886V100.894H274.894V58.1572Z" fill="white"/>
<path d="M330.199 67.1229H317.274V58.1572H353.548V67.1229H340.623V100.894H330.199V67.1229Z" fill="white"/>
<path d="M366.802 58.1572H377.76L392.236 100.894H381.514L378.896 91.9279H365.611L363.048 100.894H352.326L366.802 58.1572ZM376.451 83.56L374.068 75.2543C373.293 72.5646 372.343 67.9012 372.343 67.9012H372.225C372.225 67.9012 371.27 72.5646 370.5 75.2543L368.056 83.56H376.451Z" fill="white"/>
<path d="M416.218 57.4404C421.939 57.4404 428.014 59.3581 432.183 63.4798L427.356 71.3683C424.613 68.9775 420.506 67.01 416.696 67.01C408.177 67.01 404.665 73.0494 404.665 79.2009C404.665 85.5391 408.474 92.0517 416.696 92.0517C420.921 92.0517 425.097 89.7168 428.014 86.7905L433.375 94.4425C429.621 98.3276 424.024 101.615 416.218 101.615C402.518 101.615 393.88 92.1139 393.88 79.4437C393.88 67.0038 403.051 57.4404 416.218 57.4404Z" fill="white"/>
<path d="M451.015 67.1229H438.09V58.1572H474.364V67.1229H461.44V100.894H451.015V67.1229Z" fill="white"/>
<path fill-rule="evenodd" clip-rule="evenodd" d="M136.617 74.9679C140.818 73.841 145.136 76.3501 146.26 80.5652C147.476 85.129 148.09 89.8484 148.084 94.5928C148.084 124.491 123.847 148.81 94.0512 148.81C64.2613 148.81 40.0186 124.491 40.0186 94.5928C40.0186 69.9995 56.5485 48.4445 80.2204 42.1685C84.4273 41.0478 88.7398 43.5694 89.8505 47.7907C90.9611 52.0121 88.4543 56.3393 84.2474 57.4537C67.4816 61.893 55.7729 77.1658 55.7729 94.5928C55.7729 103.932 59.1174 112.505 64.6584 119.167C64.0317 117.225 63.6842 115.152 63.6842 112.991C63.6842 101.896 72.6504 92.9055 83.7014 92.9055C94.7586 92.9055 103.719 101.902 103.719 112.991C103.719 122.536 97.073 130.511 88.1751 132.554C90.0925 132.853 92.0594 133.008 94.0574 133.008C115.167 133.008 132.336 115.78 132.336 94.599C132.336 91.2182 131.901 87.8685 131.039 84.6434C129.916 80.4283 132.416 76.0949 136.617 74.9679ZM127.868 58.9725C127.868 66.2039 122.026 72.0661 114.819 72.0661C107.612 72.0661 101.77 66.2039 101.77 58.9725C101.77 51.7411 107.612 45.8789 114.819 45.8789C122.026 45.8789 127.868 51.7411 127.868 58.9725Z" fill="#F58A1F"/>
<path d="M206.126 222.412C147.482 219.016 97.1505 263.169 93.7083 321.031C90.2661 378.893 135.016 428.553 193.661 431.949C252.305 435.345 302.636 391.192 306.079 333.33C307.413 310.892 301.501 289.688 290.343 271.937" stroke="#E22338" stroke-width="20.6931" stroke-linecap="round"/>
<path d="M385.886 222.412C327.242 219.016 276.911 263.169 273.469 321.031C270.026 378.893 314.777 428.553 373.421 431.949C432.066 435.345 482.397 391.192 485.839 333.33C487.174 310.892 481.262 289.688 470.103 271.937" stroke="#5986FD" stroke-width="20.6931" stroke-linecap="round"/>
<path d="M565.4 222.412C506.755 219.016 456.424 263.169 452.982 321.031C449.54 378.893 494.29 428.553 552.934 431.949C611.579 435.345 661.91 391.192 665.352 333.33C666.687 310.892 660.775 289.688 649.616 271.937" stroke="#F58A1F" stroke-width="20.6931" stroke-linecap="round"/>
<g opacity="0.4">
<rect x="61.1387" y="212.406" width="14.1089" height="12.1089" rx="6.05446" fill="#921D29"/>
</g>
<g opacity="0.4">
<rect x="265.248" y="450.473" width="14.1089" height="13.1089" rx="6.55446" fill="#5986FD"/>
</g>
<g opacity="0.4">
<rect x="656.535" y="168.198" width="14.1089" height="13.1089" rx="6.55446" fill="#956A37"/>
</g>
<rect x="142.029" y="185.23" width="113.812" height="218.218" rx="15.9901" fill="white" stroke="#424B59" stroke-width="9.40594"/>
<rect x="164.604" y="199.339" width="67.7228" height="5.64356" rx="2.82178" fill="#FFCED3"/>
<rect x="154.257" y="213.447" width="88.4158" height="18.8119" rx="3.76238" fill="#E8EDF5"/>
<rect x="154.257" y="244.487" width="88.4158" height="18.8119" rx="3.76238" fill="#E8EDF5"/>
<rect x="154.257" y="275.526" width="88.4158" height="18.8119" rx="3.76238" fill="#E8EDF5"/>
<rect x="154.257" y="306.566" width="88.4158" height="18.8119" rx="3.76238" fill="#E8EDF5"/>
<rect x="154.257" y="327.26" width="88.4158" height="18.8119" rx="3.76238" fill="#E8EDF5"/>
<rect x="154.257" y="347.952" width="88.4158" height="18.8119" rx="3.76238" fill="#E8EDF5"/>
<rect x="154.257" y="372.408" width="88.4158" height="18.8119" rx="3.76238" fill="#E22338"/>
<rect x="154.257" y="239.784" width="29.1584" height="1.88119" rx="0.940594" fill="#BEC5D0"/>
<rect x="154.257" y="270.824" width="29.1584" height="1.88119" rx="0.940594" fill="#BEC5D0"/>
<rect x="154.257" y="301.863" width="29.1584" height="1.88119" rx="0.940594" fill="#BEC5D0"/>
<rect x="179.653" y="379.933" width="38.5644" height="3.76238" rx="1.88119" fill="white"/>
<rect x="322.624" y="185.23" width="113.812" height="218.218" rx="15.9901" fill="white" stroke="#424B59" stroke-width="9.40594"/>
<rect x="345.198" y="199.339" width="67.7228" height="5.64356" rx="2.82178" fill="#D0DDFF"/>
<rect x="334.852" y="244.487" width="88.4158" height="18.8119" rx="3.76238" fill="#E8EDF5"/>
<rect x="334.852" y="275.526" width="88.4158" height="18.8119" rx="3.76238" fill="#E8EDF5"/>
<rect x="334.852" y="306.566" width="88.4158" height="18.8119" rx="3.76238" fill="#E8EDF5"/>
<rect x="334.852" y="345.131" width="88.4158" height="18.8119" rx="3.76238" fill="#E8EDF5"/>
<rect x="334.852" y="327.26" width="5.64356" height="5.64356" rx="0.940594" fill="#E8EDF5"/>
<rect x="334.852" y="372.408" width="88.4158" height="18.8119" rx="3.76238" fill="#5986FD"/>
<rect x="334.852" y="239.784" width="29.1584" height="1.88119" rx="0.940594" fill="#BEC5D0"/>
<rect x="334.852" y="213.447" width="88.4158" height="1.88119" rx="0.940594" fill="#BEC5D0"/>
<rect x="334.852" y="217.21" width="58.3168" height="1.88119" rx="0.940594" fill="#BEC5D0"/>
<rect x="334.852" y="220.973" width="81.8317" height="1.88119" rx="0.940594" fill="#BEC5D0"/>
<rect x="334.852" y="224.734" width="71.4851" height="1.88119" rx="0.940594" fill="#BEC5D0"/>
<rect x="334.852" y="228.497" width="85.5941" height="1.88119" rx="0.940594" fill="#BEC5D0"/>
<rect x="334.852" y="270.823" width="29.1584" height="1.88119" rx="0.940594" fill="#BEC5D0"/>
<rect x="334.852" y="301.863" width="29.1584" height="1.88119" rx="0.940594" fill="#BEC5D0"/>
<rect x="334.852" y="340.428" width="29.1584" height="1.88119" rx="0.940594" fill="#BEC5D0"/>
<rect x="343.317" y="329.141" width="47.9703" height="1.88119" rx="0.940594" fill="#BEC5D0"/>
<rect x="360.248" y="379.933" width="38.5644" height="3.76238" rx="1.88119" fill="white"/>
<rect x="502.277" y="185.23" width="113.812" height="218.218" rx="15.9901" fill="white" stroke="#424B59" stroke-width="9.40594"/>
<rect x="524.851" y="199.339" width="67.7228" height="5.64356" rx="2.82178" fill="#FFE3C2"/>
<rect x="514.505" y="220.973" width="88.4158" height="18.8119" rx="3.76238" fill="#E8EDF5"/>
<rect x="514.505" y="241.665" width="88.4158" height="18.8119" rx="3.76238" fill="#E8EDF5"/>
<rect x="514.505" y="262.358" width="88.4158" height="18.8119" rx="3.76238" fill="#E8EDF5"/>
<rect x="514.505" y="283.052" width="88.4158" height="18.8119" rx="3.76238" fill="#E8EDF5"/>
<rect x="514.505" y="320.675" width="5.64356" height="5.64356" rx="0.940594" fill="#E8EDF5"/>
<rect x="514.505" y="328.2" width="5.64356" height="5.64356" rx="0.940594" fill="#E8EDF5"/>
<rect x="514.505" y="372.408" width="88.4158" height="18.8119" rx="3.76238" fill="#F58A1F"/>
<rect x="514.505" y="213.447" width="36.6832" height="3.76238" rx="1.88119" fill="#BEC5D0"/>
<rect x="514.505" y="311.27" width="36.6832" height="3.76238" rx="1.88119" fill="#BEC5D0"/>
<rect x="522.97" y="322.557" width="47.9703" height="1.88119" rx="0.940594" fill="#BEC5D0"/>
<rect x="522.97" y="330.081" width="47.9703" height="1.88119" rx="0.940594" fill="#BEC5D0"/>
<rect x="539.901" y="379.933" width="38.5644" height="3.76238" rx="1.88119" fill="white"/>
</svg>
