<svg width="760" height="560" viewBox="0 0 760 560" fill="none" xmlns="http://www.w3.org/2000/svg">
<g clip-path="url(#clip0_4288_52008)">
<rect width="760" height="560" fill="#1E2229"/>
<path d="M186.314 135.067V116.865H192.245C194.213 116.865 195.692 117.274 196.68 118.09C197.677 118.907 198.176 120.116 198.176 121.716C198.176 122.566 197.934 123.32 197.453 123.979C196.971 124.629 196.315 125.133 195.485 125.491C196.465 125.766 197.237 126.292 197.802 127.067C198.375 127.833 198.662 128.75 198.662 129.817C198.662 131.451 198.134 132.734 197.079 133.667C196.025 134.6 194.534 135.067 192.606 135.067H186.314ZM188.707 126.554V133.105H192.657C193.769 133.105 194.646 132.817 195.285 132.242C195.933 131.659 196.257 130.858 196.257 129.842C196.257 127.65 195.069 126.554 192.694 126.554H188.707ZM188.707 124.629H192.32C193.366 124.629 194.201 124.366 194.824 123.841C195.456 123.316 195.771 122.603 195.771 121.704C195.771 120.703 195.48 119.978 194.899 119.528C194.318 119.07 193.433 118.841 192.245 118.841H188.707V124.629ZM208.367 123.616C208.018 123.558 207.64 123.528 207.233 123.528C205.722 123.528 204.696 124.175 204.156 125.466V135.067H201.851V121.541H204.093L204.131 123.103C204.886 121.895 205.958 121.291 207.345 121.291C207.794 121.291 208.134 121.349 208.367 121.466V123.616ZM213.002 135.067H210.697V121.541H213.002V135.067ZM210.51 117.953C210.51 117.578 210.622 117.261 210.846 117.003C211.079 116.744 211.42 116.615 211.868 116.615C212.316 116.615 212.657 116.744 212.89 117.003C213.122 117.261 213.238 117.578 213.238 117.953C213.238 118.328 213.122 118.64 212.89 118.891C212.657 119.14 212.316 119.265 211.868 119.265C211.42 119.265 211.079 119.14 210.846 118.891C210.622 118.64 210.51 118.328 210.51 117.953ZM218.882 121.541L218.957 123.241C219.987 121.941 221.333 121.291 222.994 121.291C225.842 121.291 227.279 122.903 227.304 126.129V135.067H225V126.117C224.991 125.141 224.767 124.42 224.327 123.954C223.895 123.487 223.218 123.253 222.296 123.253C221.549 123.253 220.892 123.454 220.327 123.853C219.763 124.254 219.322 124.779 219.007 125.429V135.067H216.702V121.541H218.882ZM230.232 128.192C230.232 126.083 230.718 124.408 231.69 123.166C232.662 121.916 233.949 121.291 235.553 121.291C237.197 121.291 238.48 121.874 239.402 123.041L239.514 121.541H241.62V134.742C241.62 136.492 241.1 137.872 240.062 138.88C239.032 139.889 237.645 140.393 235.901 140.393C234.93 140.393 233.978 140.185 233.048 139.768C232.118 139.352 231.408 138.781 230.917 138.055L232.114 136.667C233.102 137.893 234.31 138.505 235.739 138.505C236.861 138.505 237.732 138.189 238.355 137.555C238.987 136.922 239.302 136.03 239.302 134.88V133.717C238.381 134.784 237.122 135.318 235.527 135.318C233.949 135.318 232.67 134.68 231.69 133.405C230.718 132.13 230.232 130.392 230.232 128.192ZM232.55 128.454C232.55 129.979 232.861 131.18 233.484 132.054C234.107 132.921 234.979 133.355 236.1 133.355C237.554 133.355 238.621 132.692 239.302 131.367V125.191C238.597 123.899 237.537 123.253 236.125 123.253C235.004 123.253 234.128 123.691 233.497 124.566C232.865 125.441 232.55 126.737 232.55 128.454ZM247.612 135.067H245.307V121.541H247.612V135.067ZM245.121 117.953C245.121 117.578 245.233 117.261 245.457 117.003C245.69 116.744 246.03 116.615 246.479 116.615C246.927 116.615 247.268 116.744 247.5 117.003C247.733 117.261 247.849 117.578 247.849 117.953C247.849 118.328 247.733 118.64 247.5 118.891C247.268 119.14 246.927 119.265 246.479 119.265C246.03 119.265 245.69 119.14 245.457 118.891C245.233 118.64 245.121 118.328 245.121 117.953ZM253.493 121.541L253.568 123.241C254.598 121.941 255.943 121.291 257.604 121.291C260.454 121.291 261.891 122.903 261.915 126.129V135.067H259.61V126.117C259.602 125.141 259.378 124.42 258.938 123.954C258.506 123.487 257.829 123.253 256.907 123.253C256.159 123.253 255.503 123.454 254.939 123.853C254.373 124.254 253.933 124.779 253.618 125.429V135.067H251.313V121.541H253.493ZM264.843 128.192C264.843 126.083 265.329 124.408 266.301 123.166C267.273 121.916 268.56 121.291 270.163 121.291C271.808 121.291 273.091 121.874 274.013 123.041L274.125 121.541H276.231V134.742C276.231 136.492 275.712 137.872 274.673 138.88C273.643 139.889 272.256 140.393 270.512 140.393C269.54 140.393 268.589 140.185 267.659 139.768C266.729 139.352 266.019 138.781 265.529 138.055L266.724 136.667C267.713 137.893 268.921 138.505 270.35 138.505C271.471 138.505 272.343 138.189 272.966 137.555C273.598 136.922 273.913 136.03 273.913 134.88V133.717C272.991 134.784 271.733 135.318 270.138 135.318C268.56 135.318 267.281 134.68 266.301 133.405C265.329 132.13 264.843 130.392 264.843 128.192ZM267.161 128.454C267.161 129.979 267.472 131.18 268.095 132.054C268.718 132.921 269.59 133.355 270.712 133.355C272.165 133.355 273.232 132.692 273.913 131.367V125.191C273.207 123.899 272.148 123.253 270.736 123.253C269.615 123.253 268.738 123.691 268.107 124.566C267.476 125.441 267.161 126.737 267.161 128.454ZM289.176 118.265V121.541H291.692V123.329H289.176V131.717C289.176 132.259 289.287 132.667 289.512 132.942C289.736 133.209 290.118 133.342 290.658 133.342C290.924 133.342 291.289 133.292 291.754 133.192V135.067C291.148 135.234 290.558 135.318 289.985 135.318C288.955 135.318 288.178 135.005 287.655 134.38C287.132 133.755 286.871 132.867 286.871 131.717V123.329H284.416V121.541H286.871V118.265H289.176ZM293.536 128.179C293.536 126.854 293.793 125.662 294.308 124.604C294.832 123.545 295.554 122.728 296.476 122.153C297.406 121.578 298.466 121.291 299.653 121.291C301.489 121.291 302.972 121.928 304.101 123.203C305.239 124.479 305.808 126.175 305.808 128.291V128.454C305.808 129.771 305.555 130.954 305.048 132.005C304.55 133.046 303.831 133.859 302.893 134.442C301.962 135.026 300.891 135.318 299.678 135.318C297.851 135.318 296.368 134.68 295.23 133.405C294.101 132.13 293.536 130.442 293.536 128.342V128.179ZM295.853 128.454C295.853 129.954 296.198 131.159 296.888 132.067C297.585 132.975 298.515 133.43 299.678 133.43C300.85 133.43 301.78 132.972 302.469 132.054C303.158 131.129 303.503 129.837 303.503 128.179C303.503 126.696 303.15 125.495 302.444 124.579C301.746 123.654 300.816 123.191 299.653 123.191C298.515 123.191 297.598 123.645 296.9 124.554C296.202 125.462 295.853 126.762 295.853 128.454ZM308.15 128.192C308.15 126.083 308.636 124.408 309.608 123.166C310.58 121.916 311.867 121.291 313.47 121.291C315.115 121.291 316.398 121.874 317.32 123.041L317.432 121.541H319.538V134.742C319.538 136.492 319.019 137.872 317.98 138.88C316.951 139.889 315.563 140.393 313.819 140.393C312.847 140.393 311.896 140.185 310.966 139.768C310.036 139.352 309.326 138.781 308.835 138.055L310.032 136.667C311.02 137.893 312.229 138.505 313.657 138.505C314.778 138.505 315.651 138.189 316.274 137.555C316.905 136.922 317.221 136.03 317.221 134.88V133.717C316.299 134.784 315.04 135.318 313.446 135.318C311.867 135.318 310.588 134.68 309.608 133.405C308.636 132.13 308.15 130.392 308.15 128.192ZM310.468 128.454C310.468 129.979 310.779 131.18 311.402 132.054C312.025 132.921 312.897 133.355 314.018 133.355C315.472 133.355 316.539 132.692 317.221 131.367V125.191C316.515 123.899 315.455 123.253 314.043 123.253C312.922 123.253 312.046 123.691 311.415 124.566C310.783 125.441 310.468 126.737 310.468 128.454ZM328.62 135.318C326.793 135.318 325.306 134.717 324.16 133.517C323.014 132.309 322.441 130.696 322.441 128.679V128.254C322.441 126.912 322.694 125.716 323.2 124.666C323.715 123.607 324.43 122.782 325.344 122.191C326.266 121.591 327.262 121.291 328.334 121.291C330.086 121.291 331.449 121.87 332.42 123.028C333.392 124.187 333.878 125.845 333.878 128.004V128.967H324.745C324.779 130.3 325.165 131.38 325.905 132.205C326.652 133.021 327.599 133.43 328.745 133.43C329.559 133.43 330.249 133.263 330.813 132.93C331.378 132.596 331.872 132.155 332.296 131.604L333.704 132.705C332.574 134.447 330.88 135.318 328.62 135.318ZM328.334 123.191C327.404 123.191 326.623 123.533 325.991 124.216C325.36 124.891 324.97 125.841 324.821 127.067H331.573V126.891C331.506 125.716 331.191 124.808 330.627 124.166C330.061 123.516 329.297 123.191 328.334 123.191ZM339.684 118.265V121.541H342.201V123.329H339.684V131.717C339.684 132.259 339.796 132.667 340.02 132.942C340.245 133.209 340.626 133.342 341.166 133.342C341.432 133.342 341.798 133.292 342.263 133.192V135.067C341.656 135.234 341.067 135.318 340.494 135.318C339.464 135.318 338.687 135.005 338.164 134.38C337.641 133.755 337.379 132.867 337.379 131.717V123.329H334.925V121.541H337.379V118.265H339.684ZM347.209 123.178C348.231 121.92 349.56 121.291 351.196 121.291C354.045 121.291 355.482 122.903 355.506 126.129V135.067H353.202V126.117C353.193 125.141 352.969 124.42 352.529 123.954C352.097 123.487 351.42 123.253 350.498 123.253C349.751 123.253 349.094 123.454 348.53 123.853C347.965 124.254 347.524 124.779 347.209 125.429V135.067H344.904V115.865H347.209V123.178ZM364.552 135.318C362.725 135.318 361.238 134.717 360.091 133.517C358.945 132.309 358.373 130.696 358.373 128.679V128.254C358.373 126.912 358.626 125.716 359.132 124.666C359.647 123.607 360.361 122.782 361.275 122.191C362.197 121.591 363.194 121.291 364.265 121.291C366.018 121.291 367.38 121.87 368.352 123.028C369.324 124.187 369.809 125.845 369.809 128.004V128.967H360.677C360.711 130.3 361.097 131.38 361.836 132.205C362.583 133.021 363.53 133.43 364.677 133.43C365.49 133.43 366.18 133.263 366.745 132.93C367.31 132.596 367.803 132.155 368.227 131.604L369.635 132.705C368.505 134.447 366.811 135.318 364.552 135.318ZM364.265 123.191C363.335 123.191 362.554 123.533 361.923 124.216C361.292 124.891 360.902 125.841 360.752 127.067H367.504V126.891C367.438 125.716 367.123 124.808 366.557 124.166C365.993 123.516 365.229 123.191 364.265 123.191ZM379.004 123.616C378.655 123.558 378.277 123.528 377.87 123.528C376.359 123.528 375.333 124.175 374.793 125.466V135.067H372.488V121.541H374.731L374.768 123.103C375.524 121.895 376.595 121.291 377.983 121.291C378.431 121.291 378.772 121.349 379.004 121.466V123.616Z" fill="white"/>
<path d="M206.547 56.668C212.268 56.668 218.343 58.5856 222.513 62.7073L217.685 70.5959C214.943 68.205 210.835 66.2376 207.025 66.2376C198.506 66.2376 194.994 72.277 194.994 78.4284C194.994 84.7666 198.803 91.2792 207.025 91.2792C211.251 91.2792 215.427 88.9444 218.343 86.0181L223.704 93.67C223.133 94.2615 222.519 94.8343 221.861 95.3885C218.194 98.4766 213.162 100.836 206.547 100.836C192.847 100.836 184.209 91.3352 184.209 78.665C184.209 66.2313 193.387 56.668 206.547 56.668Z" fill="white"/>
<path d="M246.916 56.668C260.139 56.668 269.192 66.2314 269.192 78.4844C269.192 91.0364 260.139 100.836 246.916 100.836C233.693 100.836 224.64 91.0364 224.64 78.4844C224.634 66.2314 233.687 56.668 246.916 56.668ZM246.916 91.273C253.648 91.273 258.414 85.7753 258.414 78.4844C258.414 71.4925 253.648 66.2314 246.916 66.2314C240.184 66.2314 235.418 71.4925 235.418 78.4844C235.418 85.7753 240.184 91.273 246.916 91.273Z" fill="white"/>
<path d="M274.894 57.3848H285.436L297.232 77.3458C298.901 80.1538 300.806 84.6367 300.806 84.6367H300.924C300.924 84.6367 300.446 80.0355 300.446 77.3458V57.3848H310.87V100.121H300.384L288.532 80.2161C286.863 77.4081 284.958 72.9253 284.958 72.9253H284.841C284.841 72.9253 285.318 77.5264 285.318 80.2161V100.121H274.894V57.3848Z" fill="white"/>
<path d="M330.199 66.3504H317.274V57.3848H353.548V66.3504H340.623V100.121H330.199V66.3504Z" fill="white"/>
<path d="M366.802 57.3848H377.76L392.236 100.121H381.514L378.896 91.1555H365.611L363.048 100.121H352.326L366.802 57.3848ZM376.451 82.7875L374.068 74.4818C373.293 71.7921 372.343 67.1287 372.343 67.1287H372.225C372.225 67.1287 371.27 71.7921 370.5 74.4818L368.056 82.7875H376.451Z" fill="white"/>
<path d="M416.218 56.668C421.939 56.668 428.014 58.5856 432.183 62.7073L427.356 70.5959C424.613 68.205 420.506 66.2376 416.696 66.2376C408.177 66.2376 404.665 72.277 404.665 78.4284C404.665 84.7666 408.474 91.2792 416.696 91.2792C420.921 91.2792 425.097 88.9444 428.014 86.0181L433.375 93.67C429.621 97.5552 424.024 100.843 416.218 100.843C402.518 100.843 393.88 91.3415 393.88 78.6712C393.88 66.2314 403.051 56.668 416.218 56.668Z" fill="white"/>
<path d="M451.015 66.3504H438.09V57.3848H474.364V66.3504H461.44V100.121H451.015V66.3504Z" fill="white"/>
<path fill-rule="evenodd" clip-rule="evenodd" d="M136.617 74.1955C140.818 73.0685 145.136 75.5777 146.26 79.7928C147.476 84.3566 148.09 89.076 148.084 93.8203C148.084 123.718 123.847 148.038 94.0512 148.038C64.2613 148.038 40.0186 123.718 40.0186 93.8203C40.0186 69.227 56.5485 47.672 80.2204 41.3961C84.4273 40.2753 88.7398 42.7969 89.8505 47.0183C90.9611 51.2396 88.4543 55.5668 84.2474 56.6813C67.4816 61.1205 55.7729 76.3933 55.7729 93.8203C55.7729 103.16 59.1174 111.733 64.6584 118.395C64.0317 116.452 63.6842 114.379 63.6842 112.219C63.6842 101.124 72.6504 92.133 83.7014 92.133C94.7586 92.133 103.719 101.13 103.719 112.219C103.719 121.763 97.073 129.739 88.1751 131.781C90.0925 132.08 92.0594 132.236 94.0574 132.236C115.167 132.236 132.336 115.008 132.336 93.8265C132.336 90.4457 131.901 87.0961 131.039 83.8709C129.916 79.6558 132.416 75.3224 136.617 74.1955ZM127.868 58.2C127.868 65.4315 122.026 71.2936 114.819 71.2936C107.612 71.2936 101.77 65.4315 101.77 58.2C101.77 50.9687 107.612 45.1064 114.819 45.1064C122.026 45.1064 127.868 50.9687 127.868 58.2Z" fill="#F58A1F"/>
<g opacity="0.4">
<rect x="653.812" y="189.791" width="15.0055" height="13.9419" rx="6.97096" fill="#956A37"/>
</g>
<path d="M703.473 111.088C599.14 104.964 509.597 184.579 503.473 288.912C497.349 393.245 576.963 482.788 681.296 488.912C785.629 495.036 875.172 415.421 881.296 311.088C883.671 270.63 873.153 232.396 853.301 200.388" stroke="#F58A1F" stroke-width="28.8628" stroke-linecap="round"/>
<path opacity="0.6" d="M700.501 161.707C624.124 157.224 558.574 215.506 554.091 291.883C549.608 368.26 607.89 433.81 684.267 438.293C760.644 442.776 826.194 384.494 830.677 308.117C832.415 278.5 824.716 250.511 810.183 227.079" stroke="url(#paint0_linear_4288_52008)" stroke-width="21.5907" stroke-linecap="round"/>
<path opacity="0.4" d="M697.776 208.135C647.041 205.157 603.499 243.872 600.521 294.607C597.543 345.342 636.257 388.885 686.992 391.863C737.727 394.841 781.27 356.126 784.248 305.391C785.403 285.717 780.288 267.125 770.635 251.56" stroke="url(#paint1_linear_4288_52008)" stroke-width="14.3938" stroke-linecap="round"/>
<path opacity="0.2" d="M695.527 246.444C665.949 244.708 640.564 267.279 638.828 296.857C637.092 326.435 659.662 351.82 689.241 353.556C718.819 355.292 744.204 332.722 745.94 303.144C746.613 291.674 743.631 280.835 738.003 271.76" stroke="url(#paint2_linear_4288_52008)" stroke-width="10.7954" stroke-linecap="round"/>
<rect x="597.461" y="196.702" width="138.462" height="241.996" rx="14.9688" fill="white"/>
<rect x="621.162" y="209.176" width="89.8129" height="7.48441" rx="3.7422" fill="#FFCED3"/>
<rect x="607.441" y="227.887" width="117.256" height="24.948" rx="4.9896" fill="#E8EDF5"/>
<rect x="607.441" y="269.053" width="117.256" height="24.948" rx="4.9896" fill="#E8EDF5"/>
<rect x="607.44" y="310.216" width="117.256" height="24.948" rx="4.9896" fill="#E8EDF5"/>
<rect x="607.44" y="351.381" width="117.256" height="24.948" rx="4.9896" fill="#E8EDF5"/>
<rect x="607.441" y="403.771" width="117.256" height="24.948" rx="4.9896" fill="#E22338"/>
<rect x="607.441" y="262.814" width="38.6694" height="2.4948" rx="1.2474" fill="#BEC5D0"/>
<rect x="607.441" y="303.978" width="38.6694" height="2.4948" rx="1.2474" fill="#BEC5D0"/>
<rect x="607.441" y="345.144" width="38.6694" height="2.4948" rx="1.2474" fill="#BEC5D0"/>
<rect x="641.121" y="413.75" width="51.1435" height="4.9896" rx="2.4948" fill="white"/>
<rect x="359" y="196.702" width="138.462" height="241.996" rx="14.9688" fill="white"/>
<rect x="382.701" y="209.176" width="89.8129" height="7.48441" rx="3.7422" fill="#D0DDFF"/>
<rect x="368.979" y="269.053" width="117.256" height="24.948" rx="4.9896" fill="#E8EDF5"/>
<rect x="368.979" y="310.216" width="117.256" height="24.948" rx="4.9896" fill="#E8EDF5"/>
<rect x="368.979" y="351.381" width="117.256" height="24.948" rx="4.9896" fill="#E8EDF5"/>
<rect x="368.979" y="402.523" width="117.256" height="24.948" rx="4.9896" fill="#E8EDF5"/>
<rect x="368.979" y="378.821" width="7.48441" height="7.48441" rx="1.2474" fill="#E8EDF5"/>
<rect x="368.979" y="403.771" width="117.256" height="24.948" rx="4.9896" fill="#5986FD"/>
<rect x="368.979" y="262.814" width="38.6694" height="2.4948" rx="1.2474" fill="#BEC5D0"/>
<rect x="368.979" y="227.887" width="117.256" height="2.4948" rx="1.2474" fill="#BEC5D0"/>
<rect x="368.979" y="232.877" width="77.3389" height="2.4948" rx="1.2474" fill="#BEC5D0"/>
<rect x="368.979" y="237.865" width="108.524" height="2.4948" rx="1.2474" fill="#BEC5D0"/>
<rect x="368.979" y="242.856" width="94.8025" height="2.4948" rx="1.2474" fill="#BEC5D0"/>
<rect x="368.979" y="247.846" width="113.514" height="2.4948" rx="1.2474" fill="#BEC5D0"/>
<rect x="368.979" y="303.978" width="38.6694" height="2.4948" rx="1.2474" fill="#BEC5D0"/>
<rect x="368.979" y="345.144" width="38.6694" height="2.4948" rx="1.2474" fill="#BEC5D0"/>
<rect x="368.979" y="396.286" width="38.6694" height="2.4948" rx="1.2474" fill="#BEC5D0"/>
<rect x="380.206" y="381.317" width="63.6175" height="2.4948" rx="1.2474" fill="#BEC5D0"/>
<rect x="402.659" y="413.75" width="51.1435" height="4.9896" rx="2.4948" fill="white"/>
<g filter="url(#filter0_d_4288_52008)">
<rect x="482.077" y="168.47" width="170.769" height="298.462" rx="18.4615" fill="white"/>
<rect x="511.308" y="183.854" width="110.769" height="9.23077" rx="4.61538" fill="#FFE3C2"/>
<rect x="494.385" y="219.238" width="144.615" height="30.7692" rx="6.15385" fill="#E8EDF5"/>
<rect x="494.385" y="253.085" width="144.615" height="30.7692" rx="6.15385" fill="#E8EDF5"/>
<rect x="494.385" y="286.93" width="144.615" height="30.7692" rx="6.15385" fill="#E8EDF5"/>
<rect x="494.385" y="320.776" width="144.615" height="30.7692" rx="6.15385" fill="#E8EDF5"/>
<rect x="494.385" y="382.314" width="9.23077" height="9.23077" rx="1.53846" fill="#E8EDF5"/>
<rect x="494.385" y="394.622" width="9.23077" height="9.23077" rx="1.53846" fill="#E8EDF5"/>
<rect x="494.385" y="423.854" width="144.615" height="30.7692" rx="6.15385" fill="#F58A1F"/>
<rect x="494.385" y="206.931" width="60" height="6.15385" rx="3.07692" fill="#BEC5D0"/>
<rect x="494.385" y="366.931" width="60" height="6.15385" rx="3.07692" fill="#BEC5D0"/>
<rect x="508.231" y="385.392" width="78.4615" height="3.07692" rx="1.53846" fill="#BEC5D0"/>
<rect x="508.231" y="397.699" width="78.4615" height="3.07692" rx="1.53846" fill="#BEC5D0"/>
<rect x="535.924" y="436.162" width="63.0769" height="6.15385" rx="3.07692" fill="white"/>
</g>
<rect x="520.538" y="136.16" width="71.7949" height="71.7949" rx="35.8974" fill="#5986FD"/>
<path fill-rule="evenodd" clip-rule="evenodd" d="M542.076 153.597C542.076 151.331 543.912 149.494 546.178 149.494H566.691C568.957 149.494 570.794 151.331 570.794 153.597V190.007C570.794 192.273 568.957 194.11 566.691 194.11H546.178C543.912 194.11 542.076 192.273 542.076 190.007V153.597ZM552.332 153.956C552.332 153.307 552.858 152.782 553.507 152.782H559.363C560.012 152.782 560.538 153.307 560.538 153.956C560.538 154.604 560.012 155.13 559.363 155.13H553.507C552.858 155.13 552.332 154.604 552.332 153.956ZM556.07 189.883C555.422 189.883 554.896 190.409 554.896 191.057C554.896 191.705 555.422 192.231 556.07 192.231H557.312C557.96 192.231 558.486 191.705 558.486 191.057C558.486 190.409 557.96 189.883 557.312 189.883H556.07Z" fill="white"/>
<path fill-rule="evenodd" clip-rule="evenodd" d="M545.153 162.315C545.153 161.182 546.071 160.264 547.204 160.264H565.666C566.799 160.264 567.717 161.182 567.717 162.315V172.571C567.717 173.704 566.799 174.623 565.666 174.623H547.204C546.071 174.623 545.153 173.704 545.153 172.571V162.315ZM547.204 171.289C547.204 170.581 547.778 170.007 548.486 170.007H552.589C553.297 170.007 553.871 170.581 553.871 171.289C553.871 171.997 553.297 172.571 552.589 172.571H548.486C547.778 172.571 547.204 171.997 547.204 171.289ZM556.179 170.007C555.471 170.007 554.897 170.581 554.897 171.289C554.897 171.997 555.471 172.571 556.179 172.571H556.692C557.4 172.571 557.974 171.997 557.974 171.289C557.974 170.581 557.4 170.007 556.692 170.007H556.179Z" fill="#5986FD"/>
<rect x="548.23" y="179.237" width="16.4103" height="5.1282" rx="2.5641" fill="#5986FD"/>
<rect x="444.897" y="421.288" width="71.7949" height="71.7949" rx="35.8974" fill="#E22338"/>
<path fill-rule="evenodd" clip-rule="evenodd" d="M496.692 459.742C494.429 461.051 491.802 461.8 488.999 461.8C481.556 461.8 475.348 456.515 473.923 449.492H462.333C460.067 449.492 458.23 451.329 458.23 453.595V471.031C458.23 473.296 460.067 475.133 462.333 475.133H492.589C494.855 475.133 496.692 473.296 496.692 471.031V459.742ZM462.589 469.493C461.881 469.493 461.307 470.067 461.307 470.775C461.307 471.483 461.881 472.057 462.589 472.057H468.23C468.939 472.057 469.513 471.483 469.513 470.775C469.513 470.067 468.939 469.493 468.23 469.493H462.589ZM471.051 470.775C471.051 470.067 471.625 469.493 472.333 469.493H473.358C474.066 469.493 474.64 470.067 474.64 470.775C474.64 471.483 474.066 472.057 473.358 472.057H472.333C471.625 472.057 471.051 471.483 471.051 470.775Z" fill="white"/>
<path fill-rule="evenodd" clip-rule="evenodd" d="M489 458.212C495.514 458.212 500.795 452.931 500.795 446.417C500.795 439.903 495.514 434.622 489 434.622C482.486 434.622 477.205 439.903 477.205 446.417C477.205 452.931 482.486 458.212 489 458.212ZM482.266 445.896C482.48 442.25 485.609 439.469 489.254 439.683C489.819 439.716 490.305 439.284 490.338 438.719C490.371 438.153 489.94 437.668 489.374 437.635C484.598 437.355 480.499 440.999 480.218 445.775C479.938 450.552 483.583 454.651 488.359 454.931C493.135 455.212 497.234 451.567 497.515 446.791C497.623 444.94 497.141 443.188 496.232 441.722C495.934 441.241 495.302 441.093 494.82 441.391C494.339 441.69 494.191 442.322 494.489 442.803C495.183 443.921 495.55 445.256 495.467 446.67C495.253 450.316 492.124 453.097 488.479 452.883C484.834 452.669 482.052 449.541 482.266 445.896ZM489.601 446.929H485.667C485.1 446.929 484.641 446.47 484.641 445.904C484.641 445.337 485.1 444.878 485.667 444.878H489.6L488.787 444.065C488.387 443.665 488.387 443.016 488.787 442.615C489.188 442.214 489.837 442.214 490.238 442.615L492.802 445.179L493.527 445.904L492.802 446.63L490.238 449.194C489.837 449.594 489.188 449.594 488.787 449.194C488.387 448.793 488.387 448.144 488.787 447.743L489.601 446.929Z" fill="white"/>
<g filter="url(#filter1_d_4288_52008)">
<rect x="401.564" y="339.749" width="41.0256" height="41.0256" rx="20.5128" fill="white"/>
<path fill-rule="evenodd" clip-rule="evenodd" d="M425.148 355.866C421.247 356.705 418.213 359.878 417.582 363.852C417.542 363.853 417.502 363.853 417.461 363.853C413.213 363.853 409.769 360.409 409.769 356.161C409.769 351.913 413.213 348.469 417.461 348.469C421.611 348.469 424.993 351.755 425.148 355.866Z" fill="#E22338"/>
<ellipse cx="427.205" cy="365.392" rx="7.69231" ry="7.69231" fill="#E22338"/>
<path d="M427.204 362.314V368.468" stroke="white" stroke-width="2.05128" stroke-linecap="round"/>
<path d="M424.127 365.391H430.281" stroke="white" stroke-width="2.05128" stroke-linecap="round"/>
<path d="M414.896 356.16L420.025 356.16" stroke="white" stroke-width="2.05128" stroke-linecap="round"/>
</g>
<g filter="url(#filter2_d_4288_52008)">
<rect x="339" y="179.238" width="41.0256" height="41.0256" rx="20.5128" fill="white"/>
<path d="M348.23 197.186C348.23 196.619 348.69 196.16 349.256 196.16H353.359C353.925 196.16 354.384 196.619 354.384 197.186V206.417H348.23V197.186Z" fill="#5986FD"/>
<path d="M356.436 194.11C356.436 193.543 356.895 193.084 357.461 193.084H361.564C362.13 193.084 362.589 193.543 362.589 194.11V206.417H356.436V194.11Z" fill="#5986FD"/>
<path d="M364.642 191.032C364.642 190.466 365.101 190.007 365.667 190.007H369.77C370.336 190.007 370.795 190.466 370.795 191.032V206.417H364.642V191.032Z" fill="#5986FD"/>
<rect x="346.692" y="207.442" width="25.641" height="2.05128" rx="1.02564" fill="#5986FD"/>
</g>
<g filter="url(#filter3_d_4288_52008)">
<rect x="717.975" y="230.519" width="41.0256" height="41.0256" rx="20.5128" fill="white"/>
<path d="M734 254.109C732.55 254.109 731.311 253.621 730.284 252.645C729.256 251.669 728.743 250.476 728.743 249.067C728.743 247.858 729.117 246.782 729.866 245.837C730.615 244.892 731.594 244.288 732.805 244.024C733.203 242.599 734 241.445 735.194 240.562C736.389 239.679 737.743 239.237 739.256 239.237C741.12 239.237 742.701 239.869 743.999 241.132C745.298 242.394 745.947 243.932 745.946 245.744C747.045 245.868 747.957 246.329 748.682 247.127C749.407 247.925 749.769 248.858 749.769 249.926C749.769 251.088 749.351 252.076 748.514 252.89C747.677 253.703 746.662 254.11 745.468 254.109H734Z" fill="#F58A1F"/>
<ellipse cx="737.205" cy="258.467" rx="2.82051" ry="2.82051" fill="#F58A1F"/>
<circle cx="731.564" cy="261.545" r="1.79487" fill="#F58A1F"/>
</g>
<rect x="615.667" y="286.929" width="71.7949" height="71.7949" rx="35.8974" fill="#F58A1F"/>
<path fill-rule="evenodd" clip-rule="evenodd" d="M663.872 318.981C663.872 321.672 657.443 323.853 649.513 323.853C641.583 323.853 635.154 321.672 635.154 318.981C635.154 316.291 641.583 314.109 649.513 314.109C657.443 314.109 663.872 316.291 663.872 318.981ZM635.155 320.264H635.155V325.905H635.174C635.161 325.99 635.155 326.076 635.155 326.162C635.155 328.852 641.583 331.034 649.514 331.034C650.649 331.034 651.754 330.989 652.813 330.904C654.872 328.178 658.141 326.417 661.82 326.417C662.502 326.417 663.169 326.477 663.817 326.593C663.854 326.451 663.873 326.307 663.873 326.162C663.873 326.076 663.866 325.99 663.853 325.905H663.873V321.549C663.868 324.238 657.441 326.418 649.514 326.418C641.583 326.418 635.155 324.237 635.155 321.547C635.155 321.461 635.161 321.375 635.174 321.291H635.155V320.264ZM650.956 340.752C651.426 342.428 652.274 343.947 653.402 345.21C652.165 345.328 650.861 345.391 649.513 345.391C641.583 345.391 635.154 343.21 635.154 340.52C635.154 340.434 635.16 340.348 635.173 340.263H635.154V334.622H635.154V335.648H635.173C635.161 335.733 635.154 335.818 635.154 335.904C635.154 338.595 641.583 340.776 649.513 340.776C650 340.776 650.482 340.768 650.956 340.752ZM651.322 333.559C650.816 334.84 650.538 336.237 650.538 337.699C650.538 337.867 650.542 338.034 650.549 338.199C650.207 338.208 649.862 338.212 649.513 338.212C641.583 338.212 635.154 336.031 635.154 333.34C635.154 333.254 635.161 333.169 635.174 333.084H635.154V328.725C635.154 331.416 641.583 333.597 649.513 333.597C650.126 333.597 650.73 333.584 651.322 333.559ZM635.154 328.725V328.469H635.174C635.161 328.554 635.154 328.639 635.154 328.725ZM663.853 321.291C663.866 321.374 663.872 321.459 663.873 321.544L663.873 321.291H663.853Z" fill="white"/>
<ellipse cx="661.821" cy="337.698" rx="7.69231" ry="7.69231" fill="white"/>
<path d="M658.231 337.962L660.612 340.261L665.923 335.133" stroke="#F58A1F" stroke-width="2.05128" stroke-linecap="round"/>
<path d="M643.872 310.519L643.872 301.288" stroke="white" stroke-width="2.05128" stroke-linecap="round"/>
<path d="M654.641 310.519L654.641 301.288" stroke="white" stroke-width="2.05128" stroke-linecap="round"/>
<path d="M641.308 303.34L643.872 300.776L646.436 303.34" stroke="white" stroke-width="2.05128" stroke-linecap="round"/>
<path d="M652.077 303.34L654.641 300.776L657.205 303.34" stroke="white" stroke-width="2.05128" stroke-linecap="round"/>
</g>
<defs>
<filter id="filter0_d_4288_52008" x="435.923" y="122.316" width="263.077" height="390.77" filterUnits="userSpaceOnUse" color-interpolation-filters="sRGB">
<feFlood flood-opacity="0" result="BackgroundImageFix"/>
<feColorMatrix in="SourceAlpha" type="matrix" values="0 0 0 0 0 0 0 0 0 0 0 0 0 0 0 0 0 0 127 0" result="hardAlpha"/>
<feOffset/>
<feGaussianBlur stdDeviation="23.0769"/>
<feComposite in2="hardAlpha" operator="out"/>
<feColorMatrix type="matrix" values="0 0 0 0 0.117647 0 0 0 0 0.133333 0 0 0 0 0.160784 0 0 0 0.2 0"/>
<feBlend mode="normal" in2="BackgroundImageFix" result="effect1_dropShadow_4288_52008"/>
<feBlend mode="normal" in="SourceGraphic" in2="effect1_dropShadow_4288_52008" result="shape"/>
</filter>
<filter id="filter1_d_4288_52008" x="364.641" y="302.826" width="114.872" height="114.872" filterUnits="userSpaceOnUse" color-interpolation-filters="sRGB">
<feFlood flood-opacity="0" result="BackgroundImageFix"/>
<feColorMatrix in="SourceAlpha" type="matrix" values="0 0 0 0 0 0 0 0 0 0 0 0 0 0 0 0 0 0 127 0" result="hardAlpha"/>
<feOffset/>
<feGaussianBlur stdDeviation="18.4615"/>
<feComposite in2="hardAlpha" operator="out"/>
<feColorMatrix type="matrix" values="0 0 0 0 0.886275 0 0 0 0 0.137255 0 0 0 0 0.219608 0 0 0 1 0"/>
<feBlend mode="normal" in2="BackgroundImageFix" result="effect1_dropShadow_4288_52008"/>
<feBlend mode="normal" in="SourceGraphic" in2="effect1_dropShadow_4288_52008" result="shape"/>
</filter>
<filter id="filter2_d_4288_52008" x="302.077" y="142.315" width="114.872" height="114.872" filterUnits="userSpaceOnUse" color-interpolation-filters="sRGB">
<feFlood flood-opacity="0" result="BackgroundImageFix"/>
<feColorMatrix in="SourceAlpha" type="matrix" values="0 0 0 0 0 0 0 0 0 0 0 0 0 0 0 0 0 0 127 0" result="hardAlpha"/>
<feOffset/>
<feGaussianBlur stdDeviation="18.4615"/>
<feComposite in2="hardAlpha" operator="out"/>
<feColorMatrix type="matrix" values="0 0 0 0 0.34902 0 0 0 0 0.52549 0 0 0 0 0.992157 0 0 0 1 0"/>
<feBlend mode="normal" in2="BackgroundImageFix" result="effect1_dropShadow_4288_52008"/>
<feBlend mode="normal" in="SourceGraphic" in2="effect1_dropShadow_4288_52008" result="shape"/>
</filter>
<filter id="filter3_d_4288_52008" x="681.052" y="193.595" width="114.872" height="114.872" filterUnits="userSpaceOnUse" color-interpolation-filters="sRGB">
<feFlood flood-opacity="0" result="BackgroundImageFix"/>
<feColorMatrix in="SourceAlpha" type="matrix" values="0 0 0 0 0 0 0 0 0 0 0 0 0 0 0 0 0 0 127 0" result="hardAlpha"/>
<feOffset/>
<feGaussianBlur stdDeviation="18.4615"/>
<feComposite in2="hardAlpha" operator="out"/>
<feColorMatrix type="matrix" values="0 0 0 0 0.960784 0 0 0 0 0.541176 0 0 0 0 0.121569 0 0 0 1 0"/>
<feBlend mode="normal" in2="BackgroundImageFix" result="effect1_dropShadow_4288_52008"/>
<feBlend mode="normal" in="SourceGraphic" in2="effect1_dropShadow_4288_52008" result="shape"/>
</filter>
<linearGradient id="paint0_linear_4288_52008" x1="623.278" y1="415.385" x2="778.011" y2="190.482" gradientUnits="userSpaceOnUse">
<stop stop-color="#F58A1F"/>
<stop offset="1" stop-color="#F58A1F" stop-opacity="0"/>
</linearGradient>
<linearGradient id="paint1_linear_4288_52008" x1="623.278" y1="379.4" x2="774.413" y2="231.864" gradientUnits="userSpaceOnUse">
<stop stop-color="#F58A1F"/>
<stop offset="1" stop-color="#F58A1F" stop-opacity="0"/>
</linearGradient>
<linearGradient id="paint2_linear_4288_52008" x1="653.865" y1="345.216" x2="725.834" y2="260.653" gradientUnits="userSpaceOnUse">
<stop stop-color="#F58A1F"/>
<stop offset="1" stop-color="#F58A1F" stop-opacity="0"/>
</linearGradient>
<clipPath id="clip0_4288_52008">
<rect width="760" height="560" fill="white"/>
</clipPath>
</defs>
</svg>
