<svg width="808" height="632" viewBox="0 0 808 632" fill="none" xmlns="http://www.w3.org/2000/svg">
<rect width="808" height="632" fill="#313741"/>
<path fill-rule="evenodd" clip-rule="evenodd" d="M808 0H0V535.625C0 557.937 18.0877 576.025 40.4 576.025H767.6C789.912 576.025 808 557.937 808 535.625V0ZM422.702 555.682C411.584 547.957 396.836 547.957 385.719 555.682L381.689 558.483C365.39 569.809 346.041 575.919 326.201 576.014H322.358L325.702 576.015C325.868 576.015 326.035 576.014 326.201 576.014H482.22C482.386 576.014 482.552 576.015 482.718 576.015L486.062 576.014H482.22C462.38 575.919 443.031 569.809 426.732 558.483L422.702 555.682Z" fill="#1E2229"/>
<circle cx="404" cy="569.292" r="6.73333" fill="#1E2229"/>
<rect x="657" y="538" width="131" height="74" rx="16" fill="#566173"/>
<path d="M700.422 583.045V587H682.914V583.625L691.193 574.748C692.025 573.822 692.682 573.008 693.162 572.305C693.643 571.59 693.988 570.951 694.199 570.389C694.422 569.814 694.533 569.27 694.533 568.754C694.533 567.98 694.404 567.318 694.146 566.768C693.889 566.205 693.508 565.771 693.004 565.467C692.512 565.162 691.902 565.01 691.176 565.01C690.402 565.01 689.734 565.197 689.172 565.572C688.621 565.947 688.199 566.469 687.906 567.137C687.625 567.805 687.484 568.561 687.484 569.404H682.404C682.404 567.881 682.768 566.486 683.494 565.221C684.221 563.943 685.246 562.93 686.57 562.18C687.895 561.418 689.465 561.037 691.281 561.037C693.074 561.037 694.586 561.33 695.816 561.916C697.059 562.49 697.996 563.322 698.629 564.412C699.273 565.49 699.596 566.779 699.596 568.279C699.596 569.123 699.461 569.949 699.191 570.758C698.922 571.555 698.535 572.352 698.031 573.148C697.539 573.934 696.941 574.73 696.238 575.539C695.535 576.348 694.756 577.186 693.9 578.053L689.453 583.045H700.422ZM720.812 571.953V576.383C720.812 578.305 720.607 579.963 720.197 581.357C719.787 582.74 719.195 583.877 718.422 584.768C717.66 585.646 716.752 586.297 715.697 586.719C714.643 587.141 713.471 587.352 712.182 587.352C711.15 587.352 710.189 587.223 709.299 586.965C708.408 586.695 707.605 586.279 706.891 585.717C706.188 585.154 705.578 584.445 705.062 583.59C704.559 582.723 704.172 581.691 703.902 580.496C703.633 579.301 703.498 577.93 703.498 576.383V571.953C703.498 570.031 703.703 568.385 704.113 567.014C704.535 565.631 705.127 564.5 705.889 563.621C706.662 562.742 707.576 562.098 708.631 561.688C709.686 561.266 710.857 561.055 712.146 561.055C713.178 561.055 714.133 561.189 715.012 561.459C715.902 561.717 716.705 562.121 717.42 562.672C718.135 563.223 718.744 563.932 719.248 564.799C719.752 565.654 720.139 566.68 720.408 567.875C720.678 569.059 720.812 570.418 720.812 571.953ZM715.732 577.051V571.268C715.732 570.342 715.68 569.533 715.574 568.842C715.48 568.15 715.334 567.564 715.135 567.084C714.936 566.592 714.689 566.193 714.396 565.889C714.104 565.584 713.77 565.361 713.395 565.221C713.02 565.08 712.604 565.01 712.146 565.01C711.572 565.01 711.062 565.121 710.617 565.344C710.184 565.566 709.814 565.924 709.51 566.416C709.205 566.896 708.971 567.541 708.807 568.35C708.654 569.146 708.578 570.119 708.578 571.268V577.051C708.578 577.977 708.625 578.791 708.719 579.494C708.824 580.197 708.977 580.801 709.176 581.305C709.387 581.797 709.633 582.201 709.914 582.518C710.207 582.822 710.541 583.045 710.916 583.186C711.303 583.326 711.725 583.396 712.182 583.396C712.744 583.396 713.242 583.285 713.676 583.062C714.121 582.828 714.496 582.465 714.801 581.973C715.117 581.469 715.352 580.812 715.504 580.004C715.656 579.195 715.732 578.211 715.732 577.051ZM741.766 583.045V587H724.258V583.625L732.537 574.748C733.369 573.822 734.025 573.008 734.506 572.305C734.986 571.59 735.332 570.951 735.543 570.389C735.766 569.814 735.877 569.27 735.877 568.754C735.877 567.98 735.748 567.318 735.49 566.768C735.232 566.205 734.852 565.771 734.348 565.467C733.855 565.162 733.246 565.01 732.52 565.01C731.746 565.01 731.078 565.197 730.516 565.572C729.965 565.947 729.543 566.469 729.25 567.137C728.969 567.805 728.828 568.561 728.828 569.404H723.748C723.748 567.881 724.111 566.486 724.838 565.221C725.564 563.943 726.59 562.93 727.914 562.18C729.238 561.418 730.809 561.037 732.625 561.037C734.418 561.037 735.93 561.33 737.16 561.916C738.402 562.49 739.34 563.322 739.973 564.412C740.617 565.49 740.939 566.779 740.939 568.279C740.939 569.123 740.805 569.949 740.535 570.758C740.266 571.555 739.879 572.352 739.375 573.148C738.883 573.934 738.285 574.73 737.582 575.539C736.879 576.348 736.1 577.186 735.244 578.053L730.797 583.045H741.766ZM762.438 583.045V587H744.93V583.625L753.209 574.748C754.041 573.822 754.697 573.008 755.178 572.305C755.658 571.59 756.004 570.951 756.215 570.389C756.438 569.814 756.549 569.27 756.549 568.754C756.549 567.98 756.42 567.318 756.162 566.768C755.904 566.205 755.523 565.771 755.02 565.467C754.527 565.162 753.918 565.01 753.191 565.01C752.418 565.01 751.75 565.197 751.188 565.572C750.637 565.947 750.215 566.469 749.922 567.137C749.641 567.805 749.5 568.561 749.5 569.404H744.42C744.42 567.881 744.783 566.486 745.51 565.221C746.236 563.943 747.262 562.93 748.586 562.18C749.91 561.418 751.48 561.037 753.297 561.037C755.09 561.037 756.602 561.33 757.832 561.916C759.074 562.49 760.012 563.322 760.645 564.412C761.289 565.49 761.611 566.779 761.611 568.279C761.611 569.123 761.477 569.949 761.207 570.758C760.938 571.555 760.551 572.352 760.047 573.148C759.555 573.934 758.957 574.73 758.254 575.539C757.551 576.348 756.771 577.186 755.916 578.053L751.469 583.045H762.438Z" fill="white"/>
<path d="M215.555 161.071V141.719H221.861C223.953 141.719 225.525 142.154 226.576 143.022C227.635 143.89 228.166 145.175 228.166 146.876C228.166 147.78 227.909 148.582 227.397 149.282C226.885 149.973 226.187 150.509 225.305 150.89C226.346 151.182 227.168 151.741 227.768 152.565C228.378 153.38 228.682 154.355 228.682 155.489C228.682 157.226 228.122 158.59 227 159.582C225.879 160.575 224.293 161.071 222.244 161.071H215.555ZM218.099 152.02V158.985H222.298C223.481 158.985 224.413 158.679 225.092 158.067C225.781 157.447 226.125 156.596 226.125 155.515C226.125 153.185 224.863 152.02 222.338 152.02H218.099ZM218.099 149.973H221.94C223.053 149.973 223.94 149.694 224.602 149.136C225.274 148.578 225.609 147.82 225.609 146.863C225.609 145.8 225.3 145.029 224.682 144.55C224.064 144.063 223.123 143.82 221.861 143.82H218.099V149.973ZM239 148.897C238.63 148.835 238.228 148.803 237.795 148.803C236.188 148.803 235.098 149.49 234.524 150.863V161.071H232.073V146.69H234.457L234.497 148.351C235.3 147.067 236.44 146.424 237.915 146.424C238.392 146.424 238.753 146.487 239 146.61V148.897ZM243.928 161.071H241.478V146.69H243.928V161.071ZM241.279 142.876C241.279 142.477 241.398 142.14 241.637 141.866C241.884 141.591 242.246 141.453 242.722 141.453C243.199 141.453 243.561 141.591 243.809 141.866C244.056 142.14 244.18 142.477 244.18 142.876C244.18 143.274 244.056 143.607 243.809 143.873C243.561 144.138 243.199 144.271 242.722 144.271C242.246 144.271 241.884 144.138 241.637 143.873C241.398 143.607 241.279 143.274 241.279 142.876ZM250.18 146.69L250.259 148.498C251.354 147.115 252.785 146.424 254.551 146.424C257.58 146.424 259.108 148.139 259.134 151.568V161.071H256.684V151.555C256.675 150.518 256.437 149.751 255.968 149.256C255.509 148.759 254.789 148.511 253.81 148.511C253.015 148.511 252.317 148.724 251.716 149.149C251.116 149.575 250.648 150.133 250.313 150.824V161.071H247.862V146.69H250.18ZM262.247 153.761C262.247 151.519 262.764 149.738 263.797 148.418C264.83 147.089 266.199 146.424 267.903 146.424C269.651 146.424 271.016 147.045 271.996 148.285L272.115 146.69H274.354V160.726C274.354 162.586 273.801 164.053 272.698 165.125C271.603 166.197 270.128 166.733 268.274 166.733C267.241 166.733 266.23 166.512 265.241 166.069C264.252 165.626 263.496 165.019 262.975 164.248L264.247 162.772C265.298 164.075 266.582 164.726 268.102 164.726C269.294 164.726 270.221 164.389 270.883 163.716C271.554 163.043 271.89 162.094 271.89 160.872V159.636C270.91 160.77 269.572 161.337 267.876 161.337C266.199 161.337 264.839 160.659 263.797 159.304C262.764 157.948 262.247 156.101 262.247 153.761ZM264.711 154.04C264.711 155.662 265.042 156.938 265.704 157.868C266.366 158.789 267.294 159.25 268.486 159.25C270.031 159.25 271.166 158.546 271.89 157.137V150.571C271.14 149.198 270.013 148.511 268.512 148.511C267.32 148.511 266.389 148.976 265.718 149.907C265.046 150.837 264.711 152.215 264.711 154.04ZM280.725 161.071H278.274V146.69H280.725V161.071ZM278.075 142.876C278.075 142.477 278.195 142.14 278.433 141.866C278.68 141.591 279.043 141.453 279.52 141.453C279.996 141.453 280.359 141.591 280.605 141.866C280.853 142.14 280.977 142.477 280.977 142.876C280.977 143.274 280.853 143.607 280.605 143.873C280.359 144.138 279.996 144.271 279.52 144.271C279.043 144.271 278.68 144.138 278.433 143.873C278.195 143.607 278.075 143.274 278.075 142.876ZM286.977 146.69L287.056 148.498C288.151 147.115 289.582 146.424 291.348 146.424C294.377 146.424 295.905 148.139 295.931 151.568V161.071H293.48V151.555C293.472 150.518 293.233 149.751 292.765 149.256C292.306 148.759 291.586 148.511 290.606 148.511C289.811 148.511 289.114 148.724 288.514 149.149C287.913 149.575 287.445 150.133 287.109 150.824V161.071H284.659V146.69H286.977ZM299.043 153.761C299.043 151.519 299.56 149.738 300.594 148.418C301.627 147.089 302.996 146.424 304.7 146.424C306.448 146.424 307.813 147.045 308.793 148.285L308.912 146.69H311.151V160.726C311.151 162.586 310.599 164.053 309.495 165.125C308.4 166.197 306.925 166.733 305.07 166.733C304.037 166.733 303.026 166.512 302.037 166.069C301.048 165.626 300.294 165.019 299.772 164.248L301.044 162.772C302.095 164.075 303.38 164.726 304.898 164.726C306.09 164.726 307.018 164.389 307.68 163.716C308.351 163.043 308.687 162.094 308.687 160.872V159.636C307.706 160.77 306.369 161.337 304.673 161.337C302.996 161.337 301.635 160.659 300.594 159.304C299.56 157.948 299.043 156.101 299.043 153.761ZM301.507 154.04C301.507 155.662 301.839 156.938 302.501 157.868C303.163 158.789 304.09 159.25 305.283 159.25C306.828 159.25 307.962 158.546 308.687 157.137V150.571C307.936 149.198 306.81 148.511 305.309 148.511C304.117 148.511 303.185 148.976 302.514 149.907C301.843 150.837 301.507 152.215 301.507 154.04ZM324.913 143.208V146.69H327.589V148.591H324.913V157.509C324.913 158.085 325.032 158.519 325.271 158.812C325.509 159.095 325.915 159.237 326.489 159.237C326.771 159.237 327.16 159.184 327.655 159.077V161.071C327.01 161.249 326.383 161.337 325.774 161.337C324.679 161.337 323.853 161.005 323.297 160.34C322.741 159.676 322.462 158.732 322.462 157.509V148.591H319.853V146.69H322.462V143.208H324.913ZM329.549 153.748C329.549 152.339 329.822 151.072 330.37 149.947C330.927 148.821 331.695 147.953 332.675 147.341C333.664 146.73 334.79 146.424 336.052 146.424C338.004 146.424 339.58 147.102 340.781 148.458C341.991 149.814 342.596 151.617 342.596 153.867V154.04C342.596 155.44 342.327 156.698 341.788 157.815C341.258 158.922 340.494 159.786 339.497 160.407C338.507 161.027 337.368 161.337 336.079 161.337C334.136 161.337 332.56 160.659 331.35 159.304C330.15 157.948 329.549 156.154 329.549 153.921V153.748ZM332.012 154.04C332.012 155.635 332.379 156.915 333.112 157.881C333.854 158.847 334.843 159.33 336.079 159.33C337.324 159.33 338.313 158.843 339.046 157.868C339.779 156.884 340.146 155.511 340.146 153.748C340.146 152.171 339.77 150.894 339.02 149.92C338.278 148.936 337.289 148.445 336.052 148.445C334.843 148.445 333.867 148.928 333.125 149.894C332.383 150.859 332.012 152.242 332.012 154.04ZM345.086 153.761C345.086 151.519 345.603 149.738 346.636 148.418C347.669 147.089 349.038 146.424 350.742 146.424C352.49 146.424 353.855 147.045 354.835 148.285L354.954 146.69H357.193V160.726C357.193 162.586 356.641 164.053 355.537 165.125C354.442 166.197 352.967 166.733 351.113 166.733C350.08 166.733 349.069 166.512 348.08 166.069C347.091 165.626 346.336 165.019 345.814 164.248L347.086 162.772C348.137 164.075 349.422 164.726 350.941 164.726C352.133 164.726 353.06 164.389 353.723 163.716C354.394 163.043 354.729 162.094 354.729 160.872V159.636C353.749 160.77 352.411 161.337 350.716 161.337C349.038 161.337 347.678 160.659 346.636 159.304C345.603 157.948 345.086 156.101 345.086 153.761ZM347.55 154.04C347.55 155.662 347.881 156.938 348.544 157.868C349.206 158.789 350.133 159.25 351.325 159.25C352.87 159.25 354.005 158.546 354.729 157.137V150.571C353.979 149.198 352.853 148.511 351.351 148.511C350.159 148.511 349.228 148.976 348.557 149.907C347.885 150.837 347.55 152.215 347.55 154.04ZM366.849 161.337C364.906 161.337 363.326 160.699 362.107 159.423C360.888 158.138 360.279 156.424 360.279 154.28V153.828C360.279 152.401 360.548 151.129 361.087 150.013C361.634 148.887 362.394 148.01 363.365 147.382C364.346 146.743 365.405 146.424 366.544 146.424C368.407 146.424 369.856 147.04 370.889 148.272C371.922 149.504 372.439 151.266 372.439 153.561V154.585H362.729C362.765 156.003 363.175 157.15 363.962 158.028C364.756 158.896 365.763 159.33 366.982 159.33C367.847 159.33 368.58 159.153 369.18 158.799C369.781 158.444 370.306 157.975 370.756 157.389L372.253 158.559C371.053 160.411 369.251 161.337 366.849 161.337ZM366.544 148.445C365.555 148.445 364.726 148.808 364.054 149.535C363.383 150.252 362.968 151.263 362.809 152.565H369.988V152.379C369.917 151.129 369.582 150.164 368.982 149.481C368.381 148.79 367.569 148.445 366.544 148.445ZM378.611 143.208V146.69H381.287V148.591H378.611V157.509C378.611 158.085 378.731 158.519 378.969 158.812C379.208 159.095 379.613 159.237 380.187 159.237C380.47 159.237 380.859 159.184 381.353 159.077V161.071C380.708 161.249 380.082 161.337 379.472 161.337C378.377 161.337 377.552 161.005 376.995 160.34C376.439 159.676 376.16 158.732 376.16 157.509V148.591H373.551V146.69H376.16V143.208H378.611ZM386.612 148.431C387.698 147.094 389.111 146.424 390.85 146.424C393.879 146.424 395.407 148.139 395.433 151.568V161.071H392.983V151.555C392.974 150.518 392.736 149.751 392.267 149.256C391.808 148.759 391.088 148.511 390.109 148.511C389.314 148.511 388.616 148.724 388.016 149.149C387.415 149.575 386.947 150.133 386.612 150.824V161.071H384.161V140.656H386.612V148.431ZM405.05 161.337C403.107 161.337 401.527 160.699 400.308 159.423C399.089 158.138 398.48 156.424 398.48 154.28V153.828C398.48 152.401 398.749 151.129 399.288 150.013C399.835 148.887 400.594 148.01 401.566 147.382C402.546 146.743 403.606 146.424 404.745 146.424C406.608 146.424 408.057 147.04 409.09 148.272C410.123 149.504 410.639 151.266 410.639 153.561V154.585H400.93C400.966 156.003 401.376 157.15 402.163 158.028C402.957 158.896 403.963 159.33 405.183 159.33C406.047 159.33 406.78 159.153 407.381 158.799C407.982 158.444 408.507 157.975 408.957 157.389L410.454 158.559C409.253 160.411 407.452 161.337 405.05 161.337ZM404.745 148.445C403.756 148.445 402.926 148.808 402.255 149.535C401.584 150.252 401.169 151.263 401.01 152.565H408.189V152.379C408.118 151.129 407.783 150.164 407.182 149.481C406.582 148.79 405.77 148.445 404.745 148.445ZM420.415 148.897C420.044 148.835 419.642 148.803 419.209 148.803C417.602 148.803 416.512 149.49 415.938 150.863V161.071H413.487V146.69H415.871L415.912 148.351C416.715 147.067 417.854 146.424 419.329 146.424C419.806 146.424 420.168 146.487 420.415 146.61V148.897Z" fill="white"/>
<path d="M237.066 77.7211C243.148 77.7211 249.606 79.7599 254.04 84.1419L248.907 92.5287C245.991 89.9869 241.624 87.8951 237.574 87.8951C228.516 87.8951 224.783 94.3159 224.783 100.856C224.783 107.594 228.833 114.518 237.574 114.518C242.066 114.518 246.506 112.036 249.606 108.925L255.306 117.06C254.699 117.689 254.046 118.298 253.347 118.887C249.448 122.17 244.098 124.679 237.066 124.679C222.5 124.679 213.317 114.578 213.317 101.107C213.317 87.8885 223.074 77.7211 237.066 77.7211Z" fill="white"/>
<path d="M279.984 77.7211C294.042 77.7211 303.667 87.8885 303.667 100.915C303.667 114.26 294.042 124.679 279.984 124.679C265.927 124.679 256.302 114.26 256.302 100.915C256.295 87.8885 265.92 77.7211 279.984 77.7211ZM279.984 114.512C287.142 114.512 292.208 108.667 292.208 100.915C292.208 93.4819 287.142 87.8885 279.984 87.8885C272.827 87.8885 267.76 93.4819 267.76 100.915C267.76 108.667 272.827 114.512 279.984 114.512Z" fill="white"/>
<path d="M309.729 78.4821H320.938L333.478 99.7038C335.253 102.689 337.278 107.455 337.278 107.455H337.403C337.403 107.455 336.895 102.563 336.895 99.7038V78.4821H347.978V123.918H336.829L324.229 102.755C322.455 99.77 320.43 95.0041 320.43 95.0041H320.304C320.304 95.0041 320.812 99.8958 320.812 102.755V123.918H309.729V78.4821Z" fill="white"/>
<path d="M368.527 88.014H354.786V78.4821H393.351V88.014H379.61V123.918H368.527V88.014Z" fill="white"/>
<path d="M407.442 78.4821H419.092L434.482 123.918H423.083L420.299 114.386H406.175L403.451 123.918H392.052L407.442 78.4821ZM417.7 105.489L415.167 96.6589C414.342 93.7994 413.333 88.8414 413.333 88.8414H413.208C413.208 88.8414 412.192 93.7994 411.374 96.6589L408.775 105.489H417.7Z" fill="white"/>
<path d="M459.979 77.7211C466.062 77.7211 472.52 79.7599 476.953 84.1419L471.821 92.5287C468.905 89.9869 464.538 87.8951 460.487 87.8951C451.43 87.8951 447.696 94.3159 447.696 100.856C447.696 107.594 451.746 114.518 460.487 114.518C464.98 114.518 469.419 112.036 472.52 108.925L478.22 117.06C474.228 121.191 468.278 124.686 459.979 124.686C445.414 124.686 436.231 114.585 436.231 101.114C436.231 87.8885 445.981 77.7211 459.979 77.7211Z" fill="white"/>
<path d="M496.974 88.014H483.233V78.4821H521.798V88.014H508.057V123.918H496.974V88.014Z" fill="white"/>
<path fill-rule="evenodd" clip-rule="evenodd" d="M162.719 96.355C167.185 95.1569 171.776 97.8245 172.971 102.306C174.264 107.158 174.917 112.175 174.91 117.219C174.91 149.006 149.143 174.861 117.465 174.861C85.7934 174.861 60.0195 149.006 60.0195 117.219C60.0195 91.0727 77.5935 68.1564 102.76 61.484C107.233 60.2925 111.818 62.9734 112.999 67.4613C114.18 71.9493 111.514 76.5498 107.042 77.7346C89.2171 82.4543 76.7689 98.6916 76.7689 117.219C76.7689 127.148 80.3246 136.263 86.2156 143.346C85.5493 141.281 85.1799 139.077 85.1799 136.78C85.1799 124.984 94.7123 115.425 106.461 115.425C118.217 115.425 127.743 124.99 127.743 136.78C127.743 146.927 120.677 155.407 111.218 157.578C113.256 157.895 115.347 158.061 117.471 158.061C139.914 158.061 158.167 139.745 158.167 117.226C158.167 113.632 157.705 110.07 156.788 106.642C155.594 102.16 158.253 97.5531 162.719 96.355ZM153.418 79.3491C153.418 87.0372 147.207 93.2696 139.545 93.2696C131.883 93.2696 125.672 87.0372 125.672 79.3491C125.672 71.661 131.883 65.4285 139.545 65.4285C147.207 65.4285 153.418 71.661 153.418 79.3491Z" fill="#F58A1F"/>
<path d="M219.144 267.626C156.796 263.967 103.286 311.543 99.6262 373.892C95.9666 436.24 143.543 489.75 205.892 493.41C268.24 497.069 321.75 449.492 325.409 387.144C326.828 362.967 320.543 340.119 308.68 320.991" stroke="#E22338" stroke-width="22" stroke-linecap="round"/>
<path d="M410.258 267.626C347.91 263.967 294.4 311.543 290.74 373.892C287.081 436.24 334.658 489.75 397.006 493.41C459.354 497.069 512.864 449.492 516.524 387.144C517.943 362.967 511.657 340.119 499.794 320.991" stroke="#5986FD" stroke-width="22" stroke-linecap="round"/>
<path d="M601.108 267.626C538.76 263.967 485.25 311.543 481.59 373.892C477.931 436.24 525.507 489.75 587.856 493.41C650.204 497.069 703.714 449.492 707.374 387.144C708.793 362.967 702.507 340.119 690.644 320.991" stroke="#F58A1F" stroke-width="22" stroke-linecap="round"/>
<g opacity="0.4">
<rect x="65" y="225" width="15" height="15" rx="7.5" fill="#921D29"/>
</g>
<g opacity="0.4">
<rect x="282" y="510" width="15" height="15" rx="7.5" fill="#5986FD"/>
</g>
<g opacity="0.4">
<rect x="698" y="178" width="15" height="15" rx="7.5" fill="#956A37"/>
</g>
<rect x="151" y="228" width="121" height="232" rx="17" fill="white" stroke="#424B59" stroke-width="10"/>
<rect x="175" y="243" width="72" height="6" rx="3" fill="#FFCED3"/>
<rect x="164" y="258" width="94" height="20" rx="4" fill="#E8EDF5"/>
<rect x="164" y="291" width="94" height="20" rx="4" fill="#E8EDF5"/>
<rect x="164" y="324" width="94" height="20" rx="4" fill="#E8EDF5"/>
<rect x="164" y="357" width="94" height="20" rx="4" fill="#E8EDF5"/>
<rect x="164" y="379" width="94" height="20" rx="4" fill="#E8EDF5"/>
<rect x="164" y="401" width="94" height="20" rx="4" fill="#E8EDF5"/>
<rect x="164" y="427" width="94" height="20" rx="4" fill="#E22338"/>
<rect x="164" y="286" width="31" height="2" rx="1" fill="#BEC5D0"/>
<rect x="164" y="319" width="31" height="2" rx="1" fill="#BEC5D0"/>
<rect x="164" y="352" width="31" height="2" rx="1" fill="#BEC5D0"/>
<rect x="191" y="435" width="41" height="4" rx="2" fill="white"/>
<rect x="343" y="228" width="121" height="232" rx="17" fill="white" stroke="#424B59" stroke-width="10"/>
<rect x="367" y="243" width="72" height="6" rx="3" fill="#D0DDFF"/>
<rect x="356" y="291" width="94" height="20" rx="4" fill="#E8EDF5"/>
<rect x="356" y="324" width="94" height="20" rx="4" fill="#E8EDF5"/>
<rect x="356" y="357" width="94" height="20" rx="4" fill="#E8EDF5"/>
<rect x="356" y="398" width="94" height="20" rx="4" fill="#E8EDF5"/>
<rect x="356" y="379" width="6" height="6" rx="1" fill="#E8EDF5"/>
<rect x="356" y="427" width="94" height="20" rx="4" fill="#5986FD"/>
<rect x="356" y="286" width="31" height="2" rx="1" fill="#BEC5D0"/>
<rect x="356" y="258" width="94" height="2" rx="1" fill="#BEC5D0"/>
<rect x="356" y="262" width="62" height="2" rx="1" fill="#BEC5D0"/>
<rect x="356" y="266" width="87" height="2" rx="1" fill="#BEC5D0"/>
<rect x="356" y="270" width="76" height="2" rx="1" fill="#BEC5D0"/>
<rect x="356" y="274" width="91" height="2" rx="1" fill="#BEC5D0"/>
<rect x="356" y="319" width="31" height="2" rx="1" fill="#BEC5D0"/>
<rect x="356" y="352" width="31" height="2" rx="1" fill="#BEC5D0"/>
<rect x="356" y="393" width="31" height="2" rx="1" fill="#BEC5D0"/>
<rect x="365" y="381" width="51" height="2" rx="1" fill="#BEC5D0"/>
<rect x="383" y="435" width="41" height="4" rx="2" fill="white"/>
<rect x="534" y="228" width="121" height="232" rx="17" fill="white" stroke="#424B59" stroke-width="10"/>
<rect x="558" y="243" width="72" height="6" rx="3" fill="#FFE3C2"/>
<rect x="547" y="266" width="94" height="20" rx="4" fill="#E8EDF5"/>
<rect x="547" y="288" width="94" height="20" rx="4" fill="#E8EDF5"/>
<rect x="547" y="310" width="94" height="20" rx="4" fill="#E8EDF5"/>
<rect x="547" y="332" width="94" height="20" rx="4" fill="#E8EDF5"/>
<rect x="547" y="372" width="6" height="6" rx="1" fill="#E8EDF5"/>
<rect x="547" y="380" width="6" height="6" rx="1" fill="#E8EDF5"/>
<rect x="547" y="427" width="94" height="20" rx="4" fill="#F58A1F"/>
<rect x="547" y="258" width="39" height="4" rx="2" fill="#BEC5D0"/>
<rect x="547" y="362" width="39" height="4" rx="2" fill="#BEC5D0"/>
<rect x="556" y="374" width="51" height="2" rx="1" fill="#BEC5D0"/>
<rect x="556" y="382" width="51" height="2" rx="1" fill="#BEC5D0"/>
<rect x="574" y="435" width="41" height="4" rx="2" fill="white"/>
</svg>
