<svg width="760" height="560" viewBox="0 0 760 560" fill="none" xmlns="http://www.w3.org/2000/svg">
<g clip-path="url(#clip0_4188_24528)">
<rect width="760" height="560" rx="8" fill="#03A9A1"/>
<line x1="319" y1="217.708" x2="907.729" y2="217.708" stroke="url(#paint0_linear_4188_24528)" stroke-width="3" stroke-dasharray="4.16 5.54"/>
<line x1="319" y1="271.733" x2="907.729" y2="271.733" stroke="url(#paint1_linear_4188_24528)" stroke-width="3" stroke-dasharray="4.16 5.54"/>
<line x1="319" y1="368.7" x2="907.729" y2="368.7" stroke="url(#paint2_linear_4188_24528)" stroke-width="3" stroke-dasharray="4.16 5.54"/>
<path d="M368.176 277.629H363.328V320.331H869.635V275.551C856.475 275.551 858.048 275.551 854.397 267.932C851.627 262.151 850.242 260.073 846.086 250.617C842.067 241.472 834.711 244.459 831.541 250.617C827.385 258.688 828.078 256.61 823.922 264.469C820.133 271.636 815.61 275.551 810.762 275.551H780.698C780.05 275.551 779.493 276.001 779.352 276.634L771.017 311.091C770.675 312.617 768.461 312.496 768.289 310.941L755.095 194.971C754.917 193.367 752.606 193.311 752.351 194.904L737.111 289.997C736.927 291.148 735.499 291.559 734.831 290.604C733.62 288.873 732.526 286.705 731.11 282.93C729.018 277.351 726.262 275.551 723.492 275.551H718.643C714.488 275.551 710.167 275.879 708.947 271.396C707.561 266.307 707.561 266.307 704.791 258.688C702.092 251.266 695.787 251.31 693.016 256.61C690.246 261.91 691.631 259.621 686.783 267.932C681.934 276.244 677.779 275.551 674.315 275.551H630.852C629.595 275.551 628.974 274.012 629.881 273.141C641.041 262.417 660.849 241.594 667.51 227.76C676.514 209.06 674.667 186.017 659.199 176.266C627.338 156.18 609.209 190.811 609.209 190.811C609.209 190.811 592.586 156.18 560.725 176.266C545.257 186.017 543.41 209.06 552.414 227.76C559.075 241.594 578.883 262.417 590.043 273.141C590.95 274.012 590.334 275.551 589.077 275.551H557.262C551.721 275.551 549.643 275.551 546.18 271.396C542.717 267.24 537.176 257.543 533.713 250.617C530.25 243.691 524.152 245.829 521.938 250.617C519.168 256.61 516.42 261.458 512.934 267.932C508.086 276.937 501.16 275.551 496.311 275.551H470.403C469.755 275.551 469.198 276.001 469.057 276.634L460.571 311.768C460.234 313.272 458.062 313.185 457.847 311.659L440.893 194.33C440.669 192.74 438.372 192.741 438.149 194.331L424.86 289.169C424.675 290.491 423.066 290.735 422.564 289.498C421.668 287.292 420.673 284.723 419.43 282.237C417.262 277.9 416.66 277.629 411.811 277.629H403.5C397.266 277.629 396.574 269.318 394.496 264.469C392.418 259.621 391.725 254.08 386.184 254.08C380.643 254.08 379.258 262.844 375.795 269.77C373.145 275.07 372.332 277.629 368.176 277.629Z" fill="#8CF857" fill-opacity="0.4"/>
<path d="M368.176 277.629H363.328V320.331H869.635V275.551C856.475 275.551 858.048 275.551 854.397 267.932C851.627 262.151 850.242 260.073 846.086 250.617C842.067 241.472 834.711 244.459 831.541 250.617C827.385 258.688 828.078 256.61 823.922 264.469C820.133 271.636 815.61 275.551 810.762 275.551H780.698C780.05 275.551 779.493 276.001 779.352 276.634L771.017 311.091C770.675 312.617 768.461 312.496 768.289 310.941L755.095 194.971C754.917 193.367 752.606 193.311 752.351 194.904L737.111 289.997C736.927 291.148 735.499 291.559 734.831 290.604C733.62 288.873 732.526 286.705 731.11 282.93C729.018 277.351 726.262 275.551 723.492 275.551H718.643C714.488 275.551 710.167 275.879 708.947 271.396C707.561 266.307 707.561 266.307 704.791 258.688C702.092 251.266 695.787 251.31 693.016 256.61C690.246 261.91 691.631 259.621 686.783 267.932C681.934 276.244 677.779 275.551 674.315 275.551H630.852C629.595 275.551 628.974 274.012 629.881 273.141C641.041 262.417 660.849 241.594 667.51 227.76C676.514 209.06 674.667 186.017 659.199 176.266C627.338 156.18 609.209 190.811 609.209 190.811C609.209 190.811 592.586 156.18 560.725 176.266C545.257 186.017 543.41 209.06 552.414 227.76C559.075 241.594 578.883 262.417 590.043 273.141C590.95 274.012 590.334 275.551 589.077 275.551H557.262C551.721 275.551 549.643 275.551 546.18 271.396C542.717 267.24 537.176 257.543 533.713 250.617C530.25 243.691 524.152 245.829 521.938 250.617C519.168 256.61 516.42 261.458 512.934 267.932C508.086 276.937 501.16 275.551 496.311 275.551H470.403C469.755 275.551 469.198 276.001 469.057 276.634L460.571 311.768C460.234 313.272 458.062 313.185 457.847 311.659L440.893 194.33C440.669 192.74 438.372 192.741 438.149 194.331L424.86 289.169C424.675 290.491 423.066 290.735 422.564 289.498C421.668 287.292 420.673 284.723 419.43 282.237C417.262 277.9 416.66 277.629 411.811 277.629H403.5C397.266 277.629 396.574 269.318 394.496 264.469C392.418 259.621 391.725 254.08 386.184 254.08C380.643 254.08 379.258 262.844 375.795 269.77C373.145 275.07 372.332 277.629 368.176 277.629Z" fill="url(#paint3_linear_4188_24528)"/>
<path d="M363.328 277.629H368.176C372.332 277.629 373.145 275.07 375.795 269.77C379.258 262.844 380.643 254.08 386.184 254.08C391.725 254.08 392.418 259.621 394.496 264.469C396.574 269.318 397.266 277.629 403.5 277.629H411.811C416.66 277.629 417.262 277.9 419.43 282.237C420.673 284.723 421.668 287.292 422.564 289.498C423.066 290.735 424.675 290.491 424.86 289.169L438.149 194.331C438.372 192.741 440.669 192.74 440.893 194.33L457.847 314.43C458.062 315.955 460.234 316.042 460.571 314.539L469.057 276.634C469.198 276.001 469.755 275.551 470.403 275.551H496.311C501.16 275.551 508.086 276.937 512.934 267.932C516.42 261.458 519.168 256.61 521.938 250.617C524.152 245.829 530.25 243.691 533.713 250.617C537.176 257.543 542.717 267.24 546.18 271.396C549.643 275.551 551.721 275.551 557.262 275.551H589.077C590.334 275.551 590.95 274.012 590.043 273.141C578.883 262.417 559.075 241.594 552.414 227.76C543.41 209.06 545.257 186.017 560.725 176.266C592.586 156.18 609.209 190.811 609.209 190.811C609.209 190.811 627.338 156.18 659.199 176.266C674.667 186.017 676.514 209.06 667.51 227.76C660.849 241.594 641.041 262.417 629.881 273.141C628.974 274.012 629.595 275.551 630.852 275.551H675.008M674.315 275.551C677.779 275.551 681.934 276.244 686.783 267.932C691.631 259.621 690.246 261.91 693.016 256.61C695.787 251.31 702.092 251.266 704.791 258.688C707.561 266.307 707.561 266.307 708.947 271.396C710.167 275.879 714.488 275.551 718.643 275.551H723.492C726.262 275.551 729.018 277.351 731.11 282.93C732.526 286.705 733.62 288.873 734.831 290.604C735.499 291.559 736.927 291.148 737.111 289.997L752.351 194.904C752.606 193.311 754.917 193.367 755.095 194.971L768.289 313.712C768.461 315.266 770.675 315.388 771.017 313.862L779.352 276.634C779.493 276.001 780.05 275.551 780.698 275.551H810.762C815.61 275.551 820.133 271.636 823.922 264.469C828.078 256.61 827.385 258.688 831.541 250.617C834.711 244.459 842.067 241.472 846.086 250.617C850.242 260.073 851.627 262.151 854.397 267.932C858.048 275.551 856.475 275.551 869.635 275.551" stroke="#8CF857" stroke-width="8"/>
<path d="M382.065 341.11H356.402C355.637 341.11 355.016 341.73 355.016 342.495V415.913C355.016 416.678 355.637 417.298 356.402 417.298H878.639C879.404 417.298 880.025 416.678 880.025 415.913V371.585C880.025 370.82 879.404 370.2 878.639 370.2H775.295C774.942 370.2 774.603 370.065 774.346 369.823L752.175 348.957C751.63 348.444 750.776 348.457 750.246 348.986L729.439 369.794C729.179 370.054 728.826 370.2 728.459 370.2H656.04C655.763 370.2 655.492 370.117 655.263 369.962L613.437 341.628C612.974 341.314 612.368 341.31 611.9 341.617L568.69 369.973C568.465 370.121 568.2 370.2 567.93 370.2H445.928C445.396 370.2 444.911 369.895 444.68 369.416L428.274 335.342C427.775 334.305 426.302 334.294 425.787 335.323L408.612 369.672C408.163 370.57 406.937 370.707 406.301 369.93L383.137 341.618C382.874 341.296 382.48 341.11 382.065 341.11Z" fill="#44D0FF" fill-opacity="0.5"/>
<path d="M382.065 341.11H356.402C355.637 341.11 355.016 341.73 355.016 342.495V415.913C355.016 416.678 355.637 417.298 356.402 417.298H878.639C879.404 417.298 880.025 416.678 880.025 415.913V371.585C880.025 370.82 879.404 370.2 878.639 370.2H775.295C774.942 370.2 774.603 370.065 774.346 369.823L752.175 348.957C751.63 348.444 750.776 348.457 750.246 348.986L729.439 369.794C729.179 370.054 728.826 370.2 728.459 370.2H656.04C655.763 370.2 655.492 370.117 655.263 369.962L613.437 341.628C612.974 341.314 612.368 341.31 611.9 341.617L568.69 369.973C568.465 370.121 568.2 370.2 567.93 370.2H445.928C445.396 370.2 444.911 369.895 444.68 369.416L428.274 335.342C427.775 334.305 426.302 334.294 425.787 335.323L408.612 369.672C408.163 370.57 406.937 370.707 406.301 369.93L383.137 341.618C382.874 341.296 382.48 341.11 382.065 341.11Z" fill="url(#paint4_linear_4188_24528)"/>
<path d="M364.016 341.11H382.065C382.48 341.11 382.874 341.296 383.137 341.618L406.301 369.93C406.937 370.707 408.163 370.57 408.612 369.672L425.787 335.323C426.302 334.294 427.775 334.305 428.274 335.342L444.68 369.416C444.911 369.895 445.396 370.2 445.928 370.2H567.93C568.2 370.2 568.465 370.121 568.69 369.973L611.9 341.617C612.368 341.31 612.974 341.314 613.437 341.628L655.263 369.962C655.492 370.117 655.763 370.2 656.04 370.2H728.459C728.826 370.2 729.179 370.054 729.439 369.794L750.246 348.986C750.776 348.457 751.63 348.444 752.175 348.957L774.346 369.823C774.603 370.065 774.942 370.2 775.295 370.2H880.025" stroke="#44D0FF" stroke-width="8"/>
<rect x="363.328" y="449.159" width="505.615" height="55.4098" fill="#AD5C5C"/>
<rect x="363.328" y="449.159" width="505.615" height="55.4098" fill="url(#paint5_linear_4188_24528)"/>
<line x1="363.328" y1="450.7" x2="902.188" y2="450.7" stroke="#F5222D" stroke-width="8"/>
<path d="M420 417.184H907.729" stroke="url(#paint6_linear_4188_24528)" stroke-width="3" stroke-dasharray="4.16 5.54"/>
<path d="M231 476.749H907.729" stroke="url(#paint7_linear_4188_24528)" stroke-width="3" stroke-dasharray="4.16 5.54"/>
<line x1="319" y1="320.217" x2="907.729" y2="320.217" stroke="url(#paint8_linear_4188_24528)" stroke-width="3" stroke-dasharray="4.16 5.54"/>
<path fill-rule="evenodd" clip-rule="evenodd" d="M37.6 35.4999C34.5072 35.4999 32 38.0071 32 41.0999V89.0499H48.9007L55.9735 81.0126C56.3568 80.577 56.9032 80.3195 57.4831 80.301C58.063 80.2825 58.6247 80.5047 59.0349 80.915L64.3533 86.2333L71.2463 53.9613C71.4547 52.9859 72.3202 52.2917 73.3175 52.3C74.3148 52.3083 75.1687 53.0169 75.3607 53.9956L84.2079 99.0874L85.9438 90.7232C86.1461 89.7486 87.0047 89.0499 88 89.0499H95.2396L102.322 77.7824C102.702 77.1774 103.364 76.8073 104.079 76.8C104.793 76.7928 105.463 77.1495 105.855 77.7466L113.283 89.0499H126.5V93.2499H112.15C111.443 93.2499 110.783 92.8941 110.395 92.3032L104.139 82.7836L98.1779 92.2675C97.7936 92.8789 97.1222 93.2499 96.4 93.2499H89.7089L86.2062 110.127C86.0031 111.105 85.1382 111.805 84.1386 111.8C83.139 111.794 82.2818 111.085 82.0893 110.104L73.2127 64.8622L67.6537 90.8886C67.4929 91.6412 66.9334 92.2455 66.1954 92.4637C65.4575 92.6819 64.6593 92.479 64.1151 91.9348L57.6478 85.4676L51.4265 92.5372C51.0278 92.9903 50.4535 93.2499 49.85 93.2499H32V122.3C32 125.393 34.5072 127.9 37.6 127.9H321.8C324.893 127.9 327.4 125.393 327.4 122.3V41.0999C327.4 38.0071 324.893 35.4999 321.8 35.4999H37.6ZM133.15 68.75H135.25H154.85C160.263 68.75 164.65 73.1377 164.65 78.55C164.65 83.9624 160.263 88.35 154.85 88.35H144.35V84.15H154.85C157.943 84.15 160.45 81.6428 160.45 78.55C160.45 75.4573 157.943 72.95 154.85 72.95H137.35V100.25H133.15V70.85V68.75ZM191.604 88.6997L184.587 76.7304L180.8 83.1H175.913L182.795 71.5265L184.613 68.4692L186.412 71.5378L203.448 100.6H198.58L194.066 92.8997H175.206L170.643 100.6H165.761L171.65 90.6628V88.6997H191.604ZM238.778 68.4002L226.022 82.4002H231.704L239.2 74.1732V82.4002H243.4V68.7502V68.4002H238.778ZM239.2 87.3002L243.4 87.3002V100.25H239.2V87.3002ZM227.24 87.3002H221.558L214.7 94.8272V87.3002H210.5V100.25V100.6H215.122L227.24 87.3002ZM214.7 82.4002H210.5V68.7502H214.7V82.4002ZM267.55 69.4498C259.879 69.4498 253.518 75.0589 252.344 82.3997H256.619C257.736 77.3925 262.206 73.6498 267.55 73.6498H282.6V69.4498H267.55ZM256.465 87.2997H252.226C252.641 91.0981 254.717 94.2136 257.357 96.3988C260.289 98.8252 264.079 100.25 267.55 100.25H282.6V96.0498H267.55C265.144 96.0498 262.284 95.0244 260.035 93.1632C258.177 91.6254 256.85 89.6193 256.465 87.2997ZM289.95 92.5498C289.95 88.2972 293.397 84.8498 297.65 84.8498H304.35C305.482 84.8498 306.4 85.7676 306.4 86.8998V93.2498V100.25H303.6V98.7202C303.492 98.7933 303.382 98.8633 303.27 98.9303C301.575 99.9474 299.545 100.25 298 100.25H297.65C293.397 100.25 289.95 96.8024 289.95 92.5498ZM303.6 93.2498V87.6498H297.65C294.944 87.6498 292.75 89.8436 292.75 92.5498C292.75 95.256 294.944 97.4498 297.65 97.4498H298C299.255 97.4498 300.725 97.1922 301.83 96.5293C302.849 95.9179 303.6 94.9523 303.6 93.2498Z" fill="white"/>
<path d="M186 66.2999L165.7 100.95L170.6 66.2999H186Z" fill="white"/>
<path d="M347.129 52H349.598V46.8452C350.402 46.9432 351.362 47.002 352.323 47.002C355.518 47.002 356.674 46.0808 356.674 42.6508C356.674 39.2404 355.518 38.2996 352.029 38.2996C349.716 38.2996 348.677 38.3192 347.129 38.476V52ZM349.598 45.0028V40.3184H351.97C353.675 40.3184 354.204 40.7888 354.204 42.6508C354.204 44.5128 353.675 44.9832 351.97 45.0028H349.598ZM367.505 50.0204H362.193C361.487 50.0204 361.233 49.7264 361.233 48.8836V45.8652H366.76V43.9836H361.233V41.612C361.233 40.7692 361.487 40.4752 362.193 40.4752H367.505L367.603 38.5936C365.819 38.4368 363.643 38.4368 361.644 38.4368C359.88 38.4368 358.783 39.4168 358.783 41.0044V49.4716C358.783 51.0592 359.861 52.0392 361.644 52.0392C363.643 52.0392 365.819 52.0392 367.603 51.8824L367.505 50.0204ZM377.253 48.178L378.37 52H380.879L376.822 39.1228C376.704 38.7112 376.351 38.476 375.94 38.476H373.549C373.137 38.476 372.784 38.7112 372.667 39.1228L368.609 52H371.118L372.235 48.178H377.253ZM376.665 46.1592H372.823L374.176 41.4944L374.489 40.338H375.019C375.077 40.7104 375.215 41.122 375.313 41.4944L376.665 46.1592ZM392.751 38.476H390.282V43.7876H384.951V38.476H382.501V52H384.951V45.8064H390.282V52H392.751V38.476ZM406.485 52V38.476H403.977L398.881 47.3548C398.587 47.884 398.332 48.4132 398.136 48.9816H397.999C398.116 48.3936 398.155 47.8056 398.155 47.2176V38.476H395.803V52H398.293L403.408 43.082C403.683 42.6116 403.937 42.004 404.153 41.4356H404.271C404.173 42.004 404.114 42.5724 404.114 43.1408V52H406.485ZM420.287 38.476C419.719 38.476 419.386 38.7504 419.248 39.2992L417.328 46.61C417.171 47.2568 417.053 47.8448 416.916 48.472H416.622C416.504 47.8448 416.387 47.2568 416.23 46.6296L414.29 39.2992C414.152 38.7504 413.839 38.476 413.29 38.476H410.762C410.134 38.476 409.821 38.8092 409.801 39.4364L409.292 52H411.683L412.094 40.4556H412.447L414.799 49.452C414.936 49.9812 415.289 50.2752 415.858 50.2752H417.72C418.288 50.2752 418.621 49.9812 418.758 49.452L421.091 40.4556H421.444L421.914 52H424.305L423.776 39.4364C423.737 38.8092 423.423 38.476 422.796 38.476H420.287ZM434.292 48.178L435.409 52H437.918L433.861 39.1228C433.743 38.7112 433.39 38.476 432.979 38.476H430.588C430.176 38.476 429.823 38.7112 429.706 39.1228L425.648 52H428.157L429.274 48.178H434.292ZM433.704 46.1592H429.862L431.215 41.4944L431.528 40.338H432.058C432.116 40.7104 432.254 41.122 432.352 41.4944L433.704 46.1592ZM451.241 50.0988H449.595V38.476H447.125V50.0988H441.99V38.476H439.54V52H449.34L449.536 54.9596H451.241V50.0988ZM464.003 52V38.476H461.494L456.398 47.3548C456.104 47.884 455.849 48.4132 455.653 48.9816H455.516C455.634 48.3936 455.673 47.8056 455.673 47.2176V38.476H453.321V52H455.81L460.926 43.082C461.2 42.6116 461.455 42.004 461.671 41.4356H461.788C461.69 42.004 461.631 42.5724 461.631 43.1408V52H464.003ZM472.14 38.2212C468.024 38.2212 466.574 39.8676 466.574 45.238C466.574 50.6084 468.024 52.2548 472.14 52.2548C476.276 52.2548 477.726 50.6084 477.726 45.238C477.726 39.8676 476.276 38.2212 472.14 38.2212ZM472.14 40.3184C474.434 40.3184 475.139 41.4748 475.139 45.238C475.139 49.0012 474.434 50.1576 472.14 50.1576C469.867 50.1576 469.161 49.0012 469.161 45.238C469.161 41.4748 469.867 40.3184 472.14 40.3184ZM490.541 38.476H488.071V43.7876H482.74V38.476H480.29V52H482.74V45.8064H488.071V52H490.541V38.476ZM503.844 38.476H501.374V43.7876H496.043V38.476H493.593V52H496.043V45.8064H501.374V52H503.844V38.476ZM511.972 38.2212C507.856 38.2212 506.406 39.8676 506.406 45.238C506.406 50.6084 507.856 52.2548 511.972 52.2548C516.108 52.2548 517.558 50.6084 517.558 45.238C517.558 39.8676 516.108 38.2212 511.972 38.2212ZM511.972 40.3184C514.265 40.3184 514.971 41.4748 514.971 45.238C514.971 49.0012 514.265 50.1576 511.972 50.1576C509.698 50.1576 508.993 49.0012 508.993 45.238C508.993 41.4748 509.698 40.3184 511.972 40.3184ZM354.342 73.178L355.459 77H357.968L353.91 64.1228C353.793 63.7112 353.44 63.476 353.028 63.476H350.637C350.226 63.476 349.873 63.7112 349.755 64.1228L345.698 77H348.207L349.324 73.178H354.342ZM353.754 71.1592H349.912L351.264 66.4944L351.578 65.338H352.107C352.166 65.7104 352.303 66.122 352.401 66.4944L353.754 71.1592ZM369.84 63.476H367.371V68.7876H362.039V63.476H359.589V77H362.039V70.8064H367.371V77H369.84V63.476ZM381.496 75.0204H376.185C375.479 75.0204 375.224 74.7264 375.224 73.8836V70.8652H380.752V68.9836H375.224V66.612C375.224 65.7692 375.479 65.4752 376.185 65.4752H381.496L381.594 63.5936C379.811 63.4368 377.635 63.4368 375.636 63.4368C373.872 63.4368 372.774 64.4168 372.774 66.0044V74.4716C372.774 76.0592 373.852 77.0392 375.636 77.0392C377.635 77.0392 379.811 77.0392 381.594 76.8824L381.496 75.0204ZM392.874 74.8832C391.718 75.04 390.659 75.0792 388.935 75.0792C386.7 75.0792 386.014 73.9424 386.014 70.238C386.014 66.5336 386.7 65.3968 388.935 65.3968C390.561 65.3968 391.365 65.436 392.58 65.534L392.815 63.672C391.639 63.3584 390.738 63.2408 388.935 63.2408C384.877 63.2408 383.427 65.0832 383.427 70.238C383.427 75.3928 384.877 77.2352 388.935 77.2352C390.797 77.2352 391.894 77.098 393.09 76.7256L392.874 74.8832ZM404.911 65.5732V63.476H394.131V65.5732H398.267V77H400.736V65.5732H404.911ZM415.452 75.0204H410.14C409.435 75.0204 409.18 74.7264 409.18 73.8836V70.8652H414.707V68.9836H409.18V66.612C409.18 65.7692 409.435 65.4752 410.14 65.4752H415.452L415.55 63.5936C413.766 63.4368 411.591 63.4368 409.592 63.4368C407.828 63.4368 406.73 64.4168 406.73 66.0044V74.4716C406.73 76.0592 407.808 77.0392 409.592 77.0392C411.591 77.0392 413.766 77.0392 415.55 76.8824L415.452 75.0204ZM417.595 65.4948C418.673 65.3968 419.81 65.2596 421.261 65.2596C422.966 65.2596 423.534 65.632 423.534 67.1608C423.534 68.67 423.005 69.062 421.457 69.062H419.007V70.9044H421.457C423.26 70.924 423.848 71.414 423.848 73.178C423.848 74.8244 423.299 75.1968 421.574 75.1968C420.026 75.1968 418.556 75.0596 417.282 74.8832L417.086 76.6276C418.517 77.0196 419.987 77.1568 422.025 77.1568C425.102 77.1568 426.376 76.412 426.376 73.6288C426.376 71.4728 425.69 70.1988 423.691 70.0224V69.944C425.318 69.7872 425.965 68.7876 425.965 66.8472C425.965 64.064 424.789 63.3192 421.437 63.3192C419.791 63.3192 418.654 63.4172 417.399 63.672L417.595 65.4948ZM439.58 77V63.476H437.071L431.975 72.3548C431.681 72.884 431.426 73.4132 431.23 73.9816H431.093C431.21 73.3936 431.25 72.8056 431.25 72.2176V63.476H428.898V77H431.387L436.502 68.082C436.777 67.6116 437.032 67.004 437.247 66.4356H437.365C437.267 67.004 437.208 67.5724 437.208 68.1408V77H439.58ZM447.717 63.2212C443.601 63.2212 442.15 64.8676 442.15 70.238C442.15 75.6084 443.601 77.2548 447.717 77.2548C451.852 77.2548 453.303 75.6084 453.303 70.238C453.303 64.8676 451.852 63.2212 447.717 63.2212ZM447.717 65.3184C450.01 65.3184 450.716 66.4748 450.716 70.238C450.716 74.0012 450.01 75.1576 447.717 75.1576C445.443 75.1576 444.738 74.0012 444.738 70.238C444.738 66.4748 445.443 65.3184 447.717 65.3184ZM465.652 63.476H460.399C458.556 63.476 457.537 64.4168 457.38 66.22C457.067 70.434 456.832 72.0608 456.224 73.6092C455.871 74.55 455.205 74.9224 454.284 75.138L454.48 77.0392C456.4 77.196 457.714 76.2944 458.537 74.256C459.242 72.5312 459.438 70.5516 459.772 66.612C459.85 65.7692 460.262 65.3772 461.085 65.3772H463.182V77H465.652V63.476ZM473.786 63.2212C469.67 63.2212 468.22 64.8676 468.22 70.238C468.22 75.6084 469.67 77.2548 473.786 77.2548C477.922 77.2548 479.372 75.6084 479.372 70.238C479.372 64.8676 477.922 63.2212 473.786 63.2212ZM473.786 65.3184C476.08 65.3184 476.785 66.4748 476.785 70.238C476.785 74.0012 476.08 75.1576 473.786 75.1576C471.513 75.1576 470.807 74.0012 470.807 70.238C470.807 66.4748 471.513 65.3184 473.786 65.3184ZM481.897 77H484.347V66.71C484.347 65.7692 484.641 65.4752 485.503 65.4752H490.247L490.364 63.6132C488.62 63.4368 486.523 63.4368 484.602 63.4368C483.034 63.4368 481.897 64.5736 481.897 66.2396V77ZM502.897 77V63.476H500.388L495.292 72.3548C494.998 72.884 494.743 73.4132 494.547 73.9816H494.41C494.527 73.3936 494.567 72.8056 494.567 72.2176V63.476H492.215V77H494.704L499.819 68.082C500.094 67.6116 500.349 67.004 500.564 66.4356H500.682C500.584 67.004 500.525 67.5724 500.525 68.1408V77H502.897ZM515.464 63.476H513.014V69.3756C511.642 69.944 510.72 70.1204 509.584 70.1204C508.349 70.1204 507.898 69.6696 507.918 68.572V63.476H505.468V69.0816C505.468 71.2572 506.506 72.2764 508.702 72.2764C509.799 72.2764 511.504 71.9432 513.014 71.1788V77H515.464V63.476ZM527.118 75.0204H521.807C521.101 75.0204 520.846 74.7264 520.846 73.8836V70.8652H526.374V68.9836H520.846V66.612C520.846 65.7692 521.101 65.4752 521.807 65.4752H527.118L527.216 63.5936C525.433 63.4368 523.257 63.4368 521.258 63.4368C519.494 63.4368 518.396 64.4168 518.396 66.0044V74.4716C518.396 76.0592 519.474 77.0392 521.258 77.0392C523.257 77.0392 525.433 77.0392 527.216 76.8824L527.118 75.0204ZM538.496 74.8832C537.34 75.04 536.281 75.0792 534.557 75.0792C532.322 75.0792 531.636 73.9424 531.636 70.238C531.636 66.5336 532.322 65.3968 534.557 65.3968C536.183 65.3968 536.987 65.436 538.202 65.534L538.437 63.672C537.261 63.3584 536.36 63.2408 534.557 63.2408C530.499 63.2408 529.049 65.0832 529.049 70.238C529.049 75.3928 530.499 77.2352 534.557 77.2352C536.419 77.2352 537.516 77.098 538.712 76.7256L538.496 74.8832ZM546.339 69.9048C548.808 69.6108 549.318 67.5136 550.651 63.476H548.161C547.044 67.004 546.456 69.0032 544.32 69.0228H543.183C543.261 68.5132 543.32 67.984 543.32 67.4548V63.476H540.87V77H543.32V72.2372C543.32 71.806 543.261 71.3552 543.183 70.9044H544.32C546.574 70.9044 547.005 72.6488 548.436 77H551.003C549.396 72.2764 548.965 70.2772 546.339 69.9832V69.9048ZM560.218 73.178L561.335 77H563.844L559.787 64.1228C559.669 63.7112 559.317 63.476 558.905 63.476H556.514C556.102 63.476 555.749 63.7112 555.632 64.1228L551.575 77H554.083L555.201 73.178H560.218ZM559.63 71.1592H555.789L557.141 66.4944L557.455 65.338H557.984C558.043 65.7104 558.18 66.122 558.278 66.4944L559.63 71.1592ZM574.639 77V63.476C573.09 63.3192 572.032 63.2996 569.739 63.2996C566.485 63.2996 565.172 64.3972 565.172 67.2588C565.152 69.3952 565.838 70.5712 567.739 70.8064L567.759 70.924C567.014 71.0612 566.113 71.5708 565.779 72.8644L564.643 77H567.23L568.269 72.9428C568.523 72.0412 569.013 71.708 569.837 71.708L572.169 71.6884V77H574.639ZM572.169 69.6892H569.797C568.151 69.6892 567.622 69.0424 567.622 67.4156C567.641 65.7496 568.151 65.3184 569.797 65.3184H572.169V69.6892ZM357.811 101V87.476H355.302L350.206 96.3548C349.912 96.884 349.657 97.4132 349.461 97.9816H349.324C349.442 97.3936 349.481 96.8056 349.481 96.2176V87.476H347.129V101H349.618L354.734 92.082C355.008 91.6116 355.263 91.004 355.478 90.4356H355.596C355.498 91.004 355.439 91.5724 355.439 92.1408V101H357.811ZM371.123 87.476H368.653V92.7876H363.322V87.476H360.872V101H363.322V94.8064H368.653V101H371.123V87.476ZM381.995 86.4764H379.545V88.2992C375.017 88.4952 373.41 89.9848 373.41 94.1008C373.41 98.1188 375.017 99.5692 379.545 99.7848V101.588H382.014V99.7848C386.503 99.5692 388.13 98.0992 388.149 94.1008C388.13 89.9848 386.503 88.5148 381.995 88.2992V86.4764ZM379.643 97.8052C376.722 97.6484 375.899 96.786 375.899 94.1008C375.899 91.3176 376.722 90.416 379.643 90.2592V97.8052ZM381.897 90.2592C384.798 90.4356 385.621 91.3176 385.64 94.1008C385.621 96.7664 384.798 97.6484 381.897 97.8052V90.2592ZM395.501 87.2212C391.385 87.2212 389.935 88.8676 389.935 94.238C389.935 99.6084 391.385 101.255 395.501 101.255C399.637 101.255 401.087 99.6084 401.087 94.238C401.087 88.8676 399.637 87.2212 395.501 87.2212ZM395.501 89.3184C397.794 89.3184 398.5 90.4748 398.5 94.238C398.5 98.0012 397.794 99.1576 395.501 99.1576C393.228 99.1576 392.522 98.0012 392.522 94.238C392.522 90.4748 393.228 89.3184 395.501 89.3184ZM403.651 101H406.121V95.8452C406.924 95.9432 407.885 96.002 408.845 96.002C412.04 96.002 413.196 95.0808 413.196 91.6508C413.196 88.2404 412.04 87.2996 408.551 87.2996C406.238 87.2996 405.199 87.3192 403.651 87.476V101ZM406.121 94.0028V89.3184H408.492C410.197 89.3184 410.727 89.7888 410.727 91.6508C410.727 93.5128 410.197 93.9832 408.492 94.0028H406.121ZM426.163 87.476C425.595 87.476 425.262 87.7504 425.125 88.2992L423.204 95.61C423.047 96.2568 422.929 96.8448 422.792 97.472H422.498C422.381 96.8448 422.263 96.2568 422.106 95.6296L420.166 88.2992C420.029 87.7504 419.715 87.476 419.166 87.476H416.638C416.011 87.476 415.697 87.8092 415.677 88.4364L415.168 101H417.559L417.971 89.4556H418.323L420.675 98.452C420.813 98.9812 421.165 99.2752 421.734 99.2752H423.596C424.164 99.2752 424.497 98.9812 424.635 98.452L426.967 89.4556H427.32L427.79 101H430.181L429.652 88.4364C429.613 87.8092 429.299 87.476 428.672 87.476H426.163ZM440.168 97.178L441.285 101H443.794L439.737 88.1228C439.619 87.7112 439.267 87.476 438.855 87.476H436.464C436.052 87.476 435.699 87.7112 435.582 88.1228L431.525 101H434.033L435.151 97.178H440.168ZM439.58 95.1592H435.739L437.091 90.4944L437.405 89.338H437.934C437.993 89.7104 438.13 90.122 438.228 90.4944L439.58 95.1592ZM457.117 99.0988H455.471V87.476H453.001V99.0988H447.866V87.476H445.416V101H455.216L455.412 103.96H457.117V99.0988ZM469.879 101V87.476H467.37L462.274 96.3548C461.98 96.884 461.726 97.4132 461.53 97.9816H461.392C461.51 97.3936 461.549 96.8056 461.549 96.2176V87.476H459.197V101H461.686L466.802 92.082C467.076 91.6116 467.331 91.004 467.547 90.4356H467.664C467.566 91.004 467.508 91.5724 467.508 92.1408V101H469.879ZM478.016 87.2212C473.9 87.2212 472.45 88.8676 472.45 94.238C472.45 99.6084 473.9 101.255 478.016 101.255C482.152 101.255 483.602 99.6084 483.602 94.238C483.602 88.8676 482.152 87.2212 478.016 87.2212ZM478.016 89.3184C480.31 89.3184 481.015 90.4748 481.015 94.238C481.015 98.0012 480.31 99.1576 478.016 99.1576C475.743 99.1576 475.037 98.0012 475.037 94.238C475.037 90.4748 475.743 89.3184 478.016 89.3184ZM496.417 87.476H493.947V92.7876H488.616V87.476H486.166V101H488.616V94.8064H493.947V101H496.417V87.476ZM509.72 87.476H507.25V92.7876H501.919V87.476H499.469V101H501.919V94.8064H507.25V101H509.72V87.476ZM519.985 97.178L521.102 101H523.611L519.553 88.1228C519.436 87.7112 519.083 87.476 518.671 87.476H516.28C515.869 87.476 515.516 87.7112 515.398 88.1228L511.341 101H513.85L514.967 97.178H519.985ZM519.397 95.1592H515.555L516.907 90.4944L517.221 89.338H517.75C517.809 89.7104 517.946 90.122 518.044 90.4944L519.397 95.1592ZM534.405 101V87.476C532.857 87.3192 531.798 87.2996 529.505 87.2996C526.251 87.2996 524.938 88.3972 524.938 91.2588C524.919 93.3952 525.605 94.5712 527.506 94.8064L527.525 94.924C526.781 95.0612 525.879 95.5708 525.546 96.8644L524.409 101H526.996L528.035 96.9428C528.29 96.0412 528.78 95.708 529.603 95.708L531.935 95.6884V101H534.405ZM531.935 93.6892H529.564C527.917 93.6892 527.388 93.0424 527.388 91.4156C527.408 89.7496 527.917 89.3184 529.564 89.3184H531.935V93.6892ZM356.086 123.883C354.93 124.04 353.871 124.079 352.146 124.079C349.912 124.079 349.226 122.942 349.226 119.238C349.226 115.534 349.912 114.397 352.146 114.397C353.773 114.397 354.577 114.436 355.792 114.534L356.027 112.672C354.851 112.358 353.95 112.241 352.146 112.241C348.089 112.241 346.639 114.083 346.639 119.238C346.639 124.393 348.089 126.235 352.146 126.235C354.008 126.235 355.106 126.098 356.302 125.726L356.086 123.883ZM369.142 126V112.476H366.633L361.537 121.355C361.243 121.884 360.988 122.413 360.792 122.982H360.655C360.773 122.394 360.812 121.806 360.812 121.218V112.476H358.46V126H360.949L366.065 117.082C366.339 116.612 366.594 116.004 366.81 115.436H366.927C366.829 116.004 366.77 116.572 366.77 117.141V126H369.142ZM381.16 123.883C380.004 124.04 378.945 124.079 377.221 124.079C374.986 124.079 374.3 122.942 374.3 119.238C374.3 115.534 374.986 114.397 377.221 114.397C378.847 114.397 379.651 114.436 380.866 114.534L381.101 112.672C379.925 112.358 379.024 112.241 377.221 112.241C373.163 112.241 371.713 114.083 371.713 119.238C371.713 124.393 373.163 126.235 377.221 126.235C379.083 126.235 380.18 126.098 381.376 125.726L381.16 123.883ZM393.197 114.573V112.476H382.417V114.573H386.553V126H389.022V114.573H393.197ZM403.738 124.02H398.426C397.721 124.02 397.466 123.726 397.466 122.884V119.865H402.993V117.984H397.466V115.612C397.466 114.769 397.721 114.475 398.426 114.475H403.738L403.836 112.594C402.052 112.437 399.877 112.437 397.877 112.437C396.113 112.437 395.016 113.417 395.016 115.004V123.472C395.016 125.059 396.094 126.039 397.877 126.039C399.877 126.039 402.052 126.039 403.836 125.882L403.738 124.02ZM417.014 112.476C416.446 112.476 416.113 112.75 415.975 113.299L414.055 120.61C413.898 121.257 413.78 121.845 413.643 122.472H413.349C413.231 121.845 413.114 121.257 412.957 120.63L411.017 113.299C410.879 112.75 410.566 112.476 410.017 112.476H407.489C406.861 112.476 406.548 112.809 406.528 113.436L406.019 126H408.41L408.821 114.456H409.174L411.526 123.452C411.663 123.981 412.016 124.275 412.585 124.275H414.447C415.015 124.275 415.348 123.981 415.485 123.452L417.818 114.456H418.171L418.641 126H421.032L420.503 113.436C420.464 112.809 420.15 112.476 419.523 112.476H417.014ZM431.019 122.178L432.136 126H434.645L430.588 113.123C430.47 112.711 430.117 112.476 429.706 112.476H427.315C426.903 112.476 426.55 112.711 426.433 113.123L422.375 126H424.884L426.001 122.178H431.019ZM430.431 120.159H426.589L427.942 115.494L428.255 114.338H428.785C428.843 114.71 428.981 115.122 429.079 115.494L430.431 120.159Z" fill="white"/>
<path d="M341.68 71.4854V69.7998H335.8V71.4854H341.68Z" fill="white"/>
</g>
<defs>
<linearGradient id="paint0_linear_4188_24528" x1="613.365" y1="219.208" x2="354" y2="219" gradientUnits="userSpaceOnUse">
<stop stop-color="#8CF857"/>
<stop offset="1" stop-color="#03A9A1"/>
</linearGradient>
<linearGradient id="paint1_linear_4188_24528" x1="454" y1="273.233" x2="336" y2="273.233" gradientUnits="userSpaceOnUse">
<stop stop-color="#8CF857"/>
<stop offset="1" stop-color="#03A9A1"/>
</linearGradient>
<linearGradient id="paint2_linear_4188_24528" x1="433" y1="370" x2="344" y2="370.001" gradientUnits="userSpaceOnUse">
<stop stop-color="#44D0FF"/>
<stop offset="1" stop-color="#03A9A1"/>
</linearGradient>
<linearGradient id="paint3_linear_4188_24528" x1="363" y1="315" x2="475" y2="315" gradientUnits="userSpaceOnUse">
<stop stop-color="#03A9A1"/>
<stop offset="1" stop-color="#03A9A1" stop-opacity="0"/>
</linearGradient>
<linearGradient id="paint4_linear_4188_24528" x1="355" y1="401" x2="450" y2="401" gradientUnits="userSpaceOnUse">
<stop stop-color="#03A9A1"/>
<stop offset="1" stop-color="#03A9A1" stop-opacity="0"/>
</linearGradient>
<linearGradient id="paint5_linear_4188_24528" x1="363" y1="491" x2="523" y2="491" gradientUnits="userSpaceOnUse">
<stop stop-color="#03A9A1"/>
<stop offset="1" stop-color="#03A9A1" stop-opacity="0"/>
</linearGradient>
<linearGradient id="paint6_linear_4188_24528" x1="475" y1="417" x2="281" y2="417" gradientUnits="userSpaceOnUse">
<stop stop-color="#44D0FF"/>
<stop offset="1" stop-color="#03A9A1"/>
</linearGradient>
<linearGradient id="paint7_linear_4188_24528" x1="455" y1="478.003" x2="329" y2="478.002" gradientUnits="userSpaceOnUse">
<stop stop-color="#F5222D"/>
<stop offset="1" stop-color="#03A9A1"/>
</linearGradient>
<linearGradient id="paint8_linear_4188_24528" x1="462" y1="322.002" x2="319" y2="322.003" gradientUnits="userSpaceOnUse">
<stop stop-color="#8CF857"/>
<stop offset="1" stop-color="#03A9A1"/>
</linearGradient>
<clipPath id="clip0_4188_24528">
<rect width="760" height="560" rx="8" fill="white"/>
</clipPath>
</defs>
</svg>
