<svg width="609" height="448" viewBox="0 0 609 448" fill="none" xmlns="http://www.w3.org/2000/svg">
<g clip-path="url(#clip0_30215_28924)">
<rect x="0.200195" width="608" height="448" rx="6.4" fill="#03A9A1"/>
<line x1="255.4" y1="174.167" x2="726.383" y2="174.167" stroke="url(#paint0_linear_30215_28924)" stroke-width="2.4" stroke-dasharray="3.32 4.43"/>
<line x1="255.4" y1="217.386" x2="726.383" y2="217.386" stroke="url(#paint1_linear_30215_28924)" stroke-width="2.4" stroke-dasharray="3.32 4.43"/>
<line x1="255.4" y1="294.96" x2="726.383" y2="294.96" stroke="url(#paint2_linear_30215_28924)" stroke-width="2.4" stroke-dasharray="3.32 4.43"/>
<path d="M294.741 222.103H290.862V256.265H695.908V220.441C685.38 220.441 686.639 220.441 683.718 214.346C681.502 209.721 680.393 208.058 677.069 200.493C673.853 193.177 667.969 195.567 665.433 200.493C662.108 206.95 662.662 205.288 659.338 211.575C656.306 217.309 652.688 220.441 648.81 220.441H624.759C624.24 220.441 623.795 220.801 623.681 221.307L617.014 248.873C616.74 250.094 614.969 249.997 614.831 248.753L604.276 155.977C604.134 154.694 602.285 154.649 602.081 155.924L589.889 231.998C589.742 232.919 588.6 233.247 588.065 232.483C587.096 231.098 586.221 229.364 585.088 226.344C583.415 221.881 581.21 220.441 578.993 220.441H575.115C571.79 220.441 568.334 220.703 567.357 217.116C566.249 213.045 566.249 213.045 564.033 206.95C561.874 201.013 556.829 201.048 554.613 205.288C552.397 209.528 553.505 207.697 549.626 214.346C545.747 220.995 542.423 220.441 539.652 220.441H504.882C503.876 220.441 503.38 219.21 504.105 218.513C513.033 209.933 528.88 193.275 534.208 182.208C541.412 167.248 539.934 148.814 527.559 141.012C502.071 124.944 487.567 152.649 487.567 152.649C487.567 152.649 474.269 124.944 448.78 141.012C436.406 148.814 434.928 167.248 442.131 182.208C447.46 193.275 463.306 209.933 472.235 218.513C472.96 219.21 472.468 220.441 471.462 220.441H446.01C441.577 220.441 439.915 220.441 437.144 217.116C434.374 213.792 429.941 206.034 427.17 200.493C424.4 194.953 419.522 196.663 417.751 200.493C415.534 205.288 413.336 209.167 410.548 214.346C406.669 221.549 401.128 220.441 397.249 220.441H376.523C376.004 220.441 375.559 220.801 375.445 221.307L368.657 249.415C368.387 250.617 366.65 250.548 366.478 249.327L352.914 155.464C352.735 154.192 350.898 154.193 350.72 155.465L340.088 231.335C339.94 232.393 338.653 232.588 338.251 231.599C337.535 229.833 336.739 227.778 335.744 225.79C334.01 222.32 333.528 222.103 329.649 222.103H323C318.013 222.103 317.459 215.454 315.797 211.575C314.134 207.697 313.58 203.264 309.148 203.264C304.715 203.264 303.607 210.275 300.836 215.816C298.716 220.056 298.066 222.103 294.741 222.103Z" fill="#8CF857" fill-opacity="0.4"/>
<path d="M294.741 222.103H290.862V256.265H695.908V220.441C685.38 220.441 686.639 220.441 683.718 214.346C681.502 209.721 680.393 208.058 677.069 200.493C673.853 193.177 667.969 195.567 665.433 200.493C662.108 206.95 662.662 205.288 659.338 211.575C656.306 217.309 652.688 220.441 648.81 220.441H624.759C624.24 220.441 623.795 220.801 623.681 221.307L617.014 248.873C616.74 250.094 614.969 249.997 614.831 248.753L604.276 155.977C604.134 154.694 602.285 154.649 602.081 155.924L589.889 231.998C589.742 232.919 588.6 233.247 588.065 232.483C587.096 231.098 586.221 229.364 585.088 226.344C583.415 221.881 581.21 220.441 578.993 220.441H575.115C571.79 220.441 568.334 220.703 567.357 217.116C566.249 213.045 566.249 213.045 564.033 206.95C561.874 201.013 556.829 201.048 554.613 205.288C552.397 209.528 553.505 207.697 549.626 214.346C545.747 220.995 542.423 220.441 539.652 220.441H504.882C503.876 220.441 503.38 219.21 504.105 218.513C513.033 209.933 528.88 193.275 534.208 182.208C541.412 167.248 539.934 148.814 527.559 141.012C502.071 124.944 487.567 152.649 487.567 152.649C487.567 152.649 474.269 124.944 448.78 141.012C436.406 148.814 434.928 167.248 442.131 182.208C447.46 193.275 463.306 209.933 472.235 218.513C472.96 219.21 472.468 220.441 471.462 220.441H446.01C441.577 220.441 439.915 220.441 437.144 217.116C434.374 213.792 429.941 206.034 427.17 200.493C424.4 194.953 419.522 196.663 417.751 200.493C415.534 205.288 413.336 209.167 410.548 214.346C406.669 221.549 401.128 220.441 397.249 220.441H376.523C376.004 220.441 375.559 220.801 375.445 221.307L368.657 249.415C368.387 250.617 366.65 250.548 366.478 249.327L352.914 155.464C352.735 154.192 350.898 154.193 350.72 155.465L340.088 231.335C339.94 232.393 338.653 232.588 338.251 231.599C337.535 229.833 336.739 227.778 335.744 225.79C334.01 222.32 333.528 222.103 329.649 222.103H323C318.013 222.103 317.459 215.454 315.797 211.575C314.134 207.697 313.58 203.264 309.148 203.264C304.715 203.264 303.607 210.275 300.836 215.816C298.716 220.056 298.066 222.103 294.741 222.103Z" fill="url(#paint3_linear_30215_28924)"/>
<path d="M290.862 222.103H294.741C298.066 222.103 298.716 220.056 300.836 215.816C303.607 210.275 304.715 203.264 309.148 203.264C313.58 203.264 314.134 207.697 315.797 211.575C317.459 215.454 318.013 222.103 323 222.103H329.649C333.528 222.103 334.01 222.32 335.744 225.79C336.739 227.778 337.535 229.833 338.251 231.599C338.653 232.588 339.94 232.393 340.088 231.335L350.72 155.465C350.898 154.193 352.735 154.192 352.914 155.464L366.478 251.544C366.65 252.764 368.387 252.834 368.657 251.631L375.445 221.307C375.559 220.801 376.004 220.441 376.523 220.441H397.249C401.128 220.441 406.669 221.549 410.548 214.346C413.336 209.167 415.534 205.288 417.751 200.493C419.522 196.663 424.4 194.953 427.17 200.493C429.941 206.034 434.374 213.792 437.144 217.116C439.915 220.441 441.577 220.441 446.01 220.441H471.462C472.468 220.441 472.96 219.21 472.235 218.513C463.306 209.933 447.46 193.275 442.131 182.208C434.928 167.248 436.406 148.814 448.78 141.012C474.269 124.944 487.567 152.649 487.567 152.649C487.567 152.649 502.071 124.944 527.559 141.012C539.934 148.814 541.412 167.248 534.208 182.208C528.88 193.275 513.033 209.933 504.105 218.513C503.38 219.21 503.876 220.441 504.882 220.441H540.207M539.652 220.441C542.423 220.441 545.747 220.995 549.626 214.346C553.505 207.697 552.397 209.528 554.613 205.288C556.829 201.048 561.874 201.013 564.033 206.95C566.249 213.045 566.249 213.045 567.357 217.116C568.334 220.703 571.79 220.441 575.115 220.441H578.993C581.21 220.441 583.415 221.881 585.088 226.344C586.221 229.364 587.097 231.098 588.065 232.483C588.6 233.247 589.742 232.919 589.889 231.998L602.081 155.924C602.285 154.649 604.134 154.694 604.276 155.977L614.831 250.969C614.969 252.213 616.74 252.31 617.014 251.089L623.681 221.307C623.795 220.801 624.24 220.441 624.759 220.441H648.81C652.688 220.441 656.306 217.309 659.338 211.575C662.662 205.288 662.108 206.95 665.433 200.493C667.969 195.567 673.853 193.177 677.069 200.493C680.393 208.058 681.502 209.721 683.718 214.346C686.639 220.441 685.38 220.441 695.908 220.441" stroke="#8CF857" stroke-width="6.4"/>
<path d="M305.852 272.888H285.321C284.709 272.888 284.213 273.384 284.213 273.996V332.73C284.213 333.342 284.709 333.839 285.321 333.839H703.111C703.723 333.839 704.219 333.342 704.219 332.73V297.268C704.219 296.656 703.723 296.16 703.111 296.16H620.436C620.154 296.16 619.882 296.052 619.676 295.859L601.94 279.166C601.504 278.755 600.82 278.766 600.397 279.189L583.75 295.835C583.543 296.043 583.261 296.16 582.967 296.16H525.032C524.81 296.16 524.593 296.094 524.41 295.969L490.949 273.302C490.579 273.051 490.094 273.048 489.72 273.293L455.152 295.978C454.971 296.097 454.76 296.16 454.544 296.16H356.942C356.516 296.16 356.128 295.916 355.944 295.533L342.819 268.273C342.419 267.444 341.241 267.435 340.829 268.259L327.09 295.738C326.73 296.456 325.75 296.566 325.241 295.944L306.709 273.294C306.499 273.037 306.184 272.888 305.852 272.888Z" fill="#44D0FF" fill-opacity="0.5"/>
<path d="M305.852 272.888H285.321C284.709 272.888 284.213 273.384 284.213 273.996V332.73C284.213 333.342 284.709 333.839 285.321 333.839H703.111C703.723 333.839 704.219 333.342 704.219 332.73V297.268C704.219 296.656 703.723 296.16 703.111 296.16H620.436C620.154 296.16 619.882 296.052 619.676 295.859L601.94 279.166C601.504 278.755 600.82 278.766 600.397 279.189L583.75 295.835C583.543 296.043 583.261 296.16 582.967 296.16H525.032C524.81 296.16 524.593 296.094 524.41 295.969L490.949 273.302C490.579 273.051 490.094 273.048 489.72 273.293L455.152 295.978C454.971 296.097 454.76 296.16 454.544 296.16H356.942C356.516 296.16 356.128 295.916 355.944 295.533L342.819 268.273C342.419 267.444 341.241 267.435 340.829 268.259L327.09 295.738C326.73 296.456 325.75 296.566 325.241 295.944L306.709 273.294C306.499 273.037 306.184 272.888 305.852 272.888Z" fill="url(#paint4_linear_30215_28924)"/>
<path d="M291.413 272.888H305.852C306.184 272.888 306.499 273.037 306.71 273.294L325.241 295.944C325.75 296.566 326.731 296.456 327.09 295.738L340.829 268.259C341.241 267.435 342.42 267.444 342.819 268.273L355.944 295.533C356.128 295.916 356.517 296.16 356.942 296.16H454.544C454.76 296.16 454.972 296.097 455.152 295.978L489.72 273.293C490.094 273.048 490.579 273.051 490.949 273.302L524.41 295.969C524.594 296.094 524.81 296.16 525.032 296.16H582.967C583.261 296.16 583.543 296.043 583.751 295.835L600.397 279.189C600.821 278.765 601.504 278.755 601.94 279.166L619.677 295.859C619.882 296.052 620.154 296.16 620.436 296.16H704.22" stroke="#44D0FF" stroke-width="6.4"/>
<rect x="290.862" y="359.327" width="404.492" height="44.3279" fill="#AD5C5C"/>
<rect x="290.862" y="359.327" width="404.492" height="44.3279" fill="url(#paint5_linear_30215_28924)"/>
<line x1="290.862" y1="360.56" x2="721.951" y2="360.56" stroke="#F5222D" stroke-width="6.4"/>
<path d="M336.2 333.747H726.384" stroke="url(#paint6_linear_30215_28924)" stroke-width="2.4" stroke-dasharray="3.32 4.43"/>
<path d="M185 381.399H726.383" stroke="url(#paint7_linear_30215_28924)" stroke-width="2.4" stroke-dasharray="3.32 4.43"/>
<line x1="255.4" y1="256.173" x2="726.383" y2="256.173" stroke="url(#paint8_linear_30215_28924)" stroke-width="2.4" stroke-dasharray="3.32 4.43"/>
<g clip-path="url(#clip1_30215_28924)">
<path fill-rule="evenodd" clip-rule="evenodd" d="M36.6797 34.7999C34.2055 34.7999 32.1997 36.8057 32.1997 39.2799V77.6399H45.7205L51.3788 71.2101C51.6854 70.8616 52.1225 70.6556 52.5864 70.6408C53.0504 70.626 53.4997 70.8038 53.8279 71.132L58.0826 75.3867L63.597 49.569C63.7637 48.7888 64.4562 48.2333 65.254 48.24C66.0518 48.2467 66.7349 48.8135 66.8885 49.5965L73.9663 85.6699L75.355 78.9785C75.5168 78.1989 76.2037 77.6399 77 77.6399H82.7917L88.4576 68.6259C88.7619 68.1419 89.2913 67.8458 89.863 67.84C90.4347 67.8342 90.97 68.1196 91.284 68.5973L97.2263 77.6399H107.8V80.9999H96.32C95.7543 80.9999 95.2266 80.7153 94.916 80.2426L89.9114 72.6268L85.1423 80.214C84.8349 80.7031 84.2977 80.9999 83.72 80.9999H78.3671L75.5649 94.5013C75.4024 95.2843 74.7105 95.8443 73.9108 95.8399C73.1111 95.8355 72.4254 95.2681 72.2714 94.4834L65.1701 58.2898L60.7229 79.1109C60.5943 79.7129 60.1467 80.1964 59.5563 80.371C58.9659 80.5455 58.3274 80.3832 57.892 79.9479L52.7182 74.7741L47.7412 80.4298C47.4222 80.7922 46.9628 80.9999 46.48 80.9999H32.1997V104.24C32.1997 106.714 34.2055 108.72 36.6797 108.72H264.04C266.514 108.72 268.52 106.714 268.52 104.24V39.2799C268.52 36.8057 266.514 34.7999 264.04 34.7999H36.6797ZM113.12 61.4001H114.8H130.48C134.81 61.4001 138.32 64.9102 138.32 69.2401C138.32 73.57 134.81 77.0801 130.48 77.0801H122.08V73.7201H130.48C132.954 73.7201 134.96 71.7143 134.96 69.2401C134.96 66.7658 132.954 64.7601 130.48 64.7601H116.48V86.6001H113.12V63.0801V61.4001ZM159.883 77.3597L154.269 67.7843L151.24 72.88H147.33L152.836 63.6212L154.29 61.1754L155.729 63.6302L169.358 86.8801H165.463L161.852 80.7197H146.765L143.114 86.8801H139.208L143.92 78.9299V77.3597H159.883ZM197.622 61.1202L187.418 72.3202H191.963L197.96 65.7385V72.3202H201.32V61.4002V61.1202H197.622ZM201.32 76.2402H197.96V86.6002H201.32V76.2402ZM188.392 76.2402H183.846L178.36 82.2618V76.2402H175V86.6002V86.8801H178.698L188.392 76.2402ZM178.36 72.3202H175V61.4002H178.36V72.3202ZM220.64 61.9598C214.503 61.9598 209.414 66.4471 208.475 72.3197H211.895C212.789 68.314 216.365 65.3198 220.64 65.3198H232.68V61.9598H220.64ZM211.772 76.2397H208.381C208.713 79.2785 210.373 81.7709 212.486 83.5191C214.831 85.4601 217.863 86.5998 220.64 86.5998H232.68V83.2398H220.64C218.715 83.2398 216.427 82.4195 214.628 80.9306C213.141 79.7003 212.08 78.0955 211.772 76.2397ZM238.56 80.4399C238.56 77.0378 241.318 74.2799 244.72 74.2799H250.08C250.985 74.2799 251.72 75.0141 251.72 75.9199V80.9999V86.5999H249.48V85.3762C249.393 85.4346 249.305 85.4907 249.216 85.5443C247.86 86.358 246.235 86.5999 245 86.5999H244.72C241.318 86.5999 238.56 83.8419 238.56 80.4399ZM249.48 80.9999V76.5199H244.72C242.555 76.5199 240.8 78.2749 240.8 80.4399C240.8 82.6048 242.555 84.3599 244.72 84.3599H245C246.004 84.3599 247.18 84.1538 248.063 83.6235C248.879 83.1343 249.48 82.3619 249.48 80.9999Z" fill="white"/>
<path d="M155.4 59.4399L139.16 87.1599L143.08 59.4399H155.4Z" fill="white"/>
<path d="M284.303 48H286.279V43.8762C286.922 43.9546 287.69 44.0016 288.458 44.0016C291.014 44.0016 291.939 43.2646 291.939 40.5206C291.939 37.7923 291.014 37.0397 288.223 37.0397C286.373 37.0397 285.542 37.0554 284.303 37.1808V48ZM286.279 42.4022V38.6547H288.176C289.54 38.6547 289.964 39.031 289.964 40.5206C289.964 42.0102 289.54 42.3866 288.176 42.4022H286.279ZM300.604 46.4163H296.355C295.79 46.4163 295.586 46.1811 295.586 45.5069V43.0922H300.008V41.5869H295.586V39.6896C295.586 39.0154 295.79 38.7802 296.355 38.7802H300.604L300.682 37.2749C299.255 37.1494 297.515 37.1494 295.916 37.1494C294.504 37.1494 293.626 37.9334 293.626 39.2035V45.9773C293.626 47.2474 294.489 48.0314 295.916 48.0314C297.515 48.0314 299.255 48.0314 300.682 47.9059L300.604 46.4163ZM308.402 44.9424L309.296 48H311.303L308.057 37.6982C307.963 37.369 307.681 37.1808 307.352 37.1808H305.439C305.11 37.1808 304.827 37.369 304.733 37.6982L301.488 48H303.495L304.388 44.9424H308.402ZM307.932 43.3274H304.859L305.941 39.5955L306.192 38.6704H306.615C306.662 38.9683 306.772 39.2976 306.85 39.5955L307.932 43.3274ZM320.801 37.1808H318.826V41.4301H314.561V37.1808H312.601V48H314.561V43.0451H318.826V48H320.801V37.1808ZM331.788 48V37.1808H329.781L325.705 44.2838C325.469 44.7072 325.266 45.1306 325.109 45.5853H324.999C325.093 45.1149 325.124 44.6445 325.124 44.1741V37.1808H323.243V48H325.234L329.327 40.8656C329.546 40.4893 329.75 40.0032 329.922 39.5485H330.017C329.938 40.0032 329.891 40.4579 329.891 40.9126V48H331.788ZM342.83 37.1808C342.375 37.1808 342.109 37.4003 341.999 37.8394L340.462 43.688C340.337 44.2054 340.243 44.6758 340.133 45.1776H339.898C339.804 44.6758 339.709 44.2054 339.584 43.7037L338.032 37.8394C337.922 37.4003 337.671 37.1808 337.232 37.1808H335.209C334.708 37.1808 334.457 37.4474 334.441 37.9491L334.033 48H335.946L336.276 38.7645H336.558L338.439 45.9616C338.549 46.385 338.831 46.6202 339.286 46.6202H340.776C341.23 46.6202 341.497 46.385 341.607 45.9616L343.473 38.7645H343.755L344.131 48H346.044L345.621 37.9491C345.589 37.4474 345.339 37.1808 344.837 37.1808H342.83ZM354.034 44.9424L354.927 48H356.934L353.689 37.6982C353.595 37.369 353.312 37.1808 352.983 37.1808H351.07C350.741 37.1808 350.459 37.369 350.365 37.6982L347.119 48H349.126L350.02 44.9424H354.034ZM353.563 43.3274H350.49L351.572 39.5955L351.823 38.6704H352.246C352.293 38.9683 352.403 39.2976 352.481 39.5955L353.563 43.3274ZM367.593 46.479H366.276V37.1808H364.3V46.479H360.192V37.1808H358.232V48H366.072L366.229 50.3677H367.593V46.479ZM377.802 48V37.1808H375.795L371.719 44.2838C371.483 44.7072 371.28 45.1306 371.123 45.5853H371.013C371.107 45.1149 371.138 44.6445 371.138 44.1741V37.1808H369.257V48H371.248L375.341 40.8656C375.56 40.4893 375.764 40.0032 375.937 39.5485H376.031C375.952 40.0032 375.905 40.4579 375.905 40.9126V48H377.802ZM384.312 36.977C381.02 36.977 379.859 38.2941 379.859 42.5904C379.859 46.8867 381.02 48.2038 384.312 48.2038C387.621 48.2038 388.781 46.8867 388.781 42.5904C388.781 38.2941 387.621 36.977 384.312 36.977ZM384.312 38.6547C386.147 38.6547 386.711 39.5798 386.711 42.5904C386.711 45.601 386.147 46.5261 384.312 46.5261C382.493 46.5261 381.929 45.601 381.929 42.5904C381.929 39.5798 382.493 38.6547 384.312 38.6547ZM399.033 37.1808H397.057V41.4301H392.792V37.1808H390.832V48H392.792V43.0451H397.057V48H399.033V37.1808ZM409.675 37.1808H407.699V41.4301H403.434V37.1808H401.474V48H403.434V43.0451H407.699V48H409.675V37.1808ZM416.178 36.977C412.885 36.977 411.725 38.2941 411.725 42.5904C411.725 46.8867 412.885 48.2038 416.178 48.2038C419.486 48.2038 420.646 46.8867 420.646 42.5904C420.646 38.2941 419.486 36.977 416.178 36.977ZM416.178 38.6547C418.012 38.6547 418.577 39.5798 418.577 42.5904C418.577 45.601 418.012 46.5261 416.178 46.5261C414.359 46.5261 413.794 45.601 413.794 42.5904C413.794 39.5798 414.359 38.6547 416.178 38.6547ZM290.073 64.9424L290.967 68H292.974L289.728 57.6982C289.634 57.369 289.352 57.1808 289.023 57.1808H287.11C286.781 57.1808 286.498 57.369 286.404 57.6982L283.158 68H285.166L286.059 64.9424H290.073ZM289.603 63.3274H286.53L287.612 59.5955L287.862 58.6704H288.286C288.333 58.9683 288.443 59.2976 288.521 59.5955L289.603 63.3274ZM302.472 57.1808H300.497V61.4301H296.232V57.1808H294.272V68H296.232V63.0451H300.497V68H302.472V57.1808ZM311.797 66.4163H307.548C306.984 66.4163 306.78 66.1811 306.78 65.5069V63.0922H311.201V61.5869H306.78V59.6896C306.78 59.0154 306.984 58.7802 307.548 58.7802H311.797L311.876 57.2749C310.449 57.1494 308.708 57.1494 307.109 57.1494C305.698 57.1494 304.82 57.9334 304.82 59.2035V65.9773C304.82 67.2474 305.682 68.0314 307.109 68.0314C308.708 68.0314 310.449 68.0314 311.876 67.9059L311.797 66.4163ZM320.9 66.3066C319.974 66.432 319.128 66.4634 317.748 66.4634C315.96 66.4634 315.412 65.5539 315.412 62.5904C315.412 59.6269 315.96 58.7174 317.748 58.7174C319.049 58.7174 319.692 58.7488 320.664 58.8272L320.852 57.3376C319.912 57.0867 319.19 56.9926 317.748 56.9926C314.502 56.9926 313.342 58.4666 313.342 62.5904C313.342 66.7142 314.502 68.1882 317.748 68.1882C319.237 68.1882 320.116 68.0784 321.072 67.7805L320.9 66.3066ZM330.529 58.8586V57.1808H321.905V58.8586H325.213V68H327.189V58.8586H330.529ZM338.962 66.4163H334.712C334.148 66.4163 333.944 66.1811 333.944 65.5069V63.0922H338.366V61.5869H333.944V59.6896C333.944 59.0154 334.148 58.7802 334.712 58.7802H338.962L339.04 57.2749C337.613 57.1494 335.873 57.1494 334.273 57.1494C332.862 57.1494 331.984 57.9334 331.984 59.2035V65.9773C331.984 67.2474 332.846 68.0314 334.273 68.0314C335.873 68.0314 337.613 68.0314 339.04 67.9059L338.962 66.4163ZM340.676 58.7958C341.539 58.7174 342.448 58.6077 343.609 58.6077C344.973 58.6077 345.427 58.9056 345.427 60.1286C345.427 61.336 345.004 61.6496 343.765 61.6496H341.805V63.1235H343.765C345.208 63.1392 345.678 63.5312 345.678 64.9424C345.678 66.2595 345.239 66.5574 343.859 66.5574C342.621 66.5574 341.445 66.4477 340.426 66.3066L340.269 67.7021C341.413 68.0157 342.589 68.1254 344.22 68.1254C346.682 68.1254 347.701 67.5296 347.701 65.303C347.701 63.5782 347.152 62.559 345.553 62.4179V62.3552C346.854 62.2298 347.372 61.4301 347.372 59.8778C347.372 57.6512 346.431 57.0554 343.75 57.0554C342.433 57.0554 341.523 57.1338 340.52 57.3376L340.676 58.7958ZM358.264 68V57.1808H356.257L352.18 64.2838C351.945 64.7072 351.741 65.1306 351.584 65.5853H351.474C351.568 65.1149 351.6 64.6445 351.6 64.1741V57.1808H349.718V68H351.709L355.802 60.8656C356.021 60.4893 356.225 60.0032 356.398 59.5485H356.492C356.413 60.0032 356.366 60.4579 356.366 60.9126V68H358.264ZM364.774 56.977C361.481 56.977 360.32 58.2941 360.32 62.5904C360.32 66.8867 361.481 68.2038 364.774 68.2038C368.082 68.2038 369.242 66.8867 369.242 62.5904C369.242 58.2941 368.082 56.977 364.774 56.977ZM364.774 58.6547C366.608 58.6547 367.173 59.5798 367.173 62.5904C367.173 65.601 366.608 66.5261 364.774 66.5261C362.955 66.5261 362.39 65.601 362.39 62.5904C362.39 59.5798 362.955 58.6547 364.774 58.6547ZM379.121 57.1808H374.919C373.445 57.1808 372.63 57.9334 372.504 59.376C372.254 62.7472 372.065 64.0486 371.579 65.2874C371.297 66.04 370.764 66.3379 370.027 66.5104L370.184 68.0314C371.72 68.1568 372.771 67.4355 373.43 65.8048C373.994 64.425 374.151 62.8413 374.417 59.6896C374.48 59.0154 374.809 58.7018 375.468 58.7018H377.146V68H379.121V57.1808ZM385.629 56.977C382.336 56.977 381.176 58.2941 381.176 62.5904C381.176 66.8867 382.336 68.2038 385.629 68.2038C388.938 68.2038 390.098 66.8867 390.098 62.5904C390.098 58.2941 388.938 56.977 385.629 56.977ZM385.629 58.6547C387.464 58.6547 388.028 59.5798 388.028 62.5904C388.028 65.601 387.464 66.5261 385.629 66.5261C383.81 66.5261 383.246 65.601 383.246 62.5904C383.246 59.5798 383.81 58.6547 385.629 58.6547ZM392.118 68H394.078V59.768C394.078 59.0154 394.313 58.7802 395.003 58.7802H398.797L398.891 57.2906C397.496 57.1494 395.818 57.1494 394.282 57.1494C393.027 57.1494 392.118 58.0589 392.118 59.3917V68ZM408.917 68V57.1808H406.91L402.834 64.2838C402.598 64.7072 402.395 65.1306 402.238 65.5853H402.128C402.222 65.1149 402.253 64.6445 402.253 64.1741V57.1808H400.372V68H402.363L406.456 60.8656C406.675 60.4893 406.879 60.0032 407.052 59.5485H407.146C407.067 60.0032 407.02 60.4579 407.02 60.9126V68H408.917ZM418.971 57.1808H417.011V61.9005C415.913 62.3552 415.176 62.4963 414.267 62.4963C413.279 62.4963 412.919 62.1357 412.934 61.2576V57.1808H410.974V61.6653C410.974 63.4058 411.805 64.2211 413.561 64.2211C414.44 64.2211 415.804 63.9546 417.011 63.343V68H418.971V57.1808ZM428.295 66.4163H424.045C423.481 66.4163 423.277 66.1811 423.277 65.5069V63.0922H427.699V61.5869H423.277V59.6896C423.277 59.0154 423.481 58.7802 424.045 58.7802H428.295L428.373 57.2749C426.946 57.1494 425.206 57.1494 423.606 57.1494C422.195 57.1494 421.317 57.9334 421.317 59.2035V65.9773C421.317 67.2474 422.18 68.0314 423.606 68.0314C425.206 68.0314 426.946 68.0314 428.373 67.9059L428.295 66.4163ZM437.397 66.3066C436.472 66.432 435.625 66.4634 434.245 66.4634C432.458 66.4634 431.909 65.5539 431.909 62.5904C431.909 59.6269 432.458 58.7174 434.245 58.7174C435.547 58.7174 436.19 58.7488 437.162 58.8272L437.35 57.3376C436.409 57.0867 435.688 56.9926 434.245 56.9926C431 56.9926 429.839 58.4666 429.839 62.5904C429.839 66.7142 431 68.1882 434.245 68.1882C435.735 68.1882 436.613 68.0784 437.569 67.7805L437.397 66.3066ZM443.671 62.3238C445.647 62.0886 446.054 60.4109 447.121 57.1808H445.129C444.235 60.0032 443.765 61.6026 442.056 61.6182H441.146C441.209 61.2106 441.256 60.7872 441.256 60.3638V57.1808H439.296V68H441.256V64.1898C441.256 63.8448 441.209 63.4842 441.146 63.1235H442.056C443.859 63.1235 444.204 64.519 445.349 68H447.403C446.117 64.2211 445.772 62.6218 443.671 62.3866V62.3238ZM454.775 64.9424L455.668 68H457.675L454.43 57.6982C454.336 57.369 454.053 57.1808 453.724 57.1808H451.811C451.482 57.1808 451.2 57.369 451.105 57.6982L447.86 68H449.867L450.761 64.9424H454.775ZM454.304 63.3274H451.231L452.313 59.5955L452.564 58.6704H452.987C453.034 58.9683 453.144 59.2976 453.222 59.5955L454.304 63.3274ZM466.311 68V57.1808C465.072 57.0554 464.226 57.0397 462.391 57.0397C459.788 57.0397 458.738 57.9178 458.738 60.207C458.722 61.9162 459.271 62.857 460.792 63.0451L460.807 63.1392C460.212 63.249 459.49 63.6566 459.224 64.6915L458.314 68H460.384L461.215 64.7542C461.419 64.033 461.811 63.7664 462.469 63.7664L464.335 63.7507V68H466.311ZM464.335 62.1514H462.438C461.121 62.1514 460.698 61.6339 460.698 60.3325C460.713 58.9997 461.121 58.6547 462.438 58.6547H464.335V62.1514ZM292.849 87V76.1808H290.842L286.765 83.2838C286.53 83.7072 286.326 84.1306 286.169 84.5853H286.059C286.153 84.1149 286.185 83.6445 286.185 83.1741V76.1808H284.303V87H286.294L290.387 79.8656C290.606 79.4893 290.81 79.0032 290.983 78.5485H291.077C290.998 79.0032 290.951 79.4579 290.951 79.9126V87H292.849ZM303.498 76.1808H301.522V80.4301H297.257V76.1808H295.297V87H297.257V82.0451H301.522V87H303.498V76.1808ZM312.196 75.3811H310.236V76.8394C306.614 76.9962 305.328 78.1878 305.328 81.4806C305.328 84.695 306.614 85.8554 310.236 86.0278V87.4704H312.212V86.0278C315.802 85.8554 317.104 84.6794 317.12 81.4806C317.104 78.1878 315.802 77.0118 312.196 76.8394V75.3811ZM310.314 84.4442C307.978 84.3187 307.32 83.6288 307.32 81.4806C307.32 79.2541 307.978 78.5328 310.314 78.4074V84.4442ZM312.118 78.4074C314.438 78.5485 315.097 79.2541 315.112 81.4806C315.097 83.6131 314.438 84.3187 312.118 84.4442V78.4074ZM323.001 75.977C319.708 75.977 318.548 77.2941 318.548 81.5904C318.548 85.8867 319.708 87.2038 323.001 87.2038C326.31 87.2038 327.47 85.8867 327.47 81.5904C327.47 77.2941 326.31 75.977 323.001 75.977ZM323.001 77.6547C324.836 77.6547 325.4 78.5798 325.4 81.5904C325.4 84.601 324.836 85.5261 323.001 85.5261C321.182 85.5261 320.618 84.601 320.618 81.5904C320.618 78.5798 321.182 77.6547 323.001 77.6547ZM329.521 87H331.497V82.8762C332.139 82.9546 332.908 83.0016 333.676 83.0016C336.232 83.0016 337.157 82.2646 337.157 79.5206C337.157 76.7923 336.232 76.0397 333.441 76.0397C331.591 76.0397 330.76 76.0554 329.521 76.1808V87ZM331.497 81.4022V77.6547H333.394C334.758 77.6547 335.181 78.031 335.181 79.5206C335.181 81.0102 334.758 81.3866 333.394 81.4022H331.497ZM347.531 76.1808C347.076 76.1808 346.809 76.4003 346.7 76.8394L345.163 82.688C345.038 83.2054 344.944 83.6758 344.834 84.1776H344.599C344.505 83.6758 344.41 83.2054 344.285 82.7037L342.733 76.8394C342.623 76.4003 342.372 76.1808 341.933 76.1808H339.91C339.409 76.1808 339.158 76.4474 339.142 76.9491L338.734 87H340.647L340.977 77.7645H341.259L343.14 84.9616C343.25 85.385 343.532 85.6202 343.987 85.6202H345.477C345.931 85.6202 346.198 85.385 346.308 84.9616L348.174 77.7645H348.456L348.832 87H350.745L350.322 76.9491C350.29 76.4474 350.04 76.1808 349.538 76.1808H347.531ZM358.735 83.9424L359.628 87H361.635L358.39 76.6982C358.296 76.369 358.013 76.1808 357.684 76.1808H355.771C355.442 76.1808 355.16 76.369 355.065 76.6982L351.82 87H353.827L354.721 83.9424H358.735ZM358.264 82.3274H355.191L356.273 78.5955L356.524 77.6704H356.947C356.994 77.9683 357.104 78.2976 357.182 78.5955L358.264 82.3274ZM372.294 85.479H370.977V76.1808H369.001V85.479H364.893V76.1808H362.933V87H370.773L370.93 89.3677H372.294V85.479ZM382.503 87V76.1808H380.496L376.42 83.2838C376.184 83.7072 375.981 84.1306 375.824 84.5853H375.714C375.808 84.1149 375.839 83.6445 375.839 83.1741V76.1808H373.958V87H375.949L380.042 79.8656C380.261 79.4893 380.465 79.0032 380.637 78.5485H380.732C380.653 79.0032 380.606 79.4579 380.606 79.9126V87H382.503ZM389.013 75.977C385.72 75.977 384.56 77.2941 384.56 81.5904C384.56 85.8867 385.72 87.2038 389.013 87.2038C392.322 87.2038 393.482 85.8867 393.482 81.5904C393.482 77.2941 392.322 75.977 389.013 75.977ZM389.013 77.6547C390.848 77.6547 391.412 78.5798 391.412 81.5904C391.412 84.601 390.848 85.5261 389.013 85.5261C387.194 85.5261 386.63 84.601 386.63 81.5904C386.63 78.5798 387.194 77.6547 389.013 77.6547ZM403.734 76.1808H401.758V80.4301H397.493V76.1808H395.533V87H397.493V82.0451H401.758V87H403.734V76.1808ZM414.376 76.1808H412.4V80.4301H408.135V76.1808H406.175V87H408.135V82.0451H412.4V87H414.376V76.1808ZM422.588 83.9424L423.481 87H425.489L422.243 76.6982C422.149 76.369 421.866 76.1808 421.537 76.1808H419.624C419.295 76.1808 419.013 76.369 418.919 76.6982L415.673 87H417.68L418.574 83.9424H422.588ZM422.117 82.3274H419.044L420.126 78.5955L420.377 77.6704H420.8C420.847 77.9683 420.957 78.2976 421.035 78.5955L422.117 82.3274ZM434.124 87V76.1808C432.885 76.0554 432.039 76.0397 430.204 76.0397C427.601 76.0397 426.551 76.9178 426.551 79.207C426.535 80.9162 427.084 81.857 428.605 82.0451L428.62 82.1392C428.025 82.249 427.303 82.6566 427.037 83.6915L426.127 87H428.197L429.028 83.7542C429.232 83.033 429.624 82.7664 430.283 82.7664L432.148 82.7507V87H434.124ZM432.148 81.1514H430.251C428.934 81.1514 428.511 80.6339 428.511 79.3325C428.526 77.9997 428.934 77.6547 430.251 77.6547H432.148V81.1514ZM291.469 105.307C290.544 105.432 289.697 105.463 288.317 105.463C286.53 105.463 285.981 104.554 285.981 101.59C285.981 98.6269 286.53 97.7174 288.317 97.7174C289.619 97.7174 290.262 97.7488 291.234 97.8272L291.422 96.3376C290.481 96.0867 289.76 95.9926 288.317 95.9926C285.071 95.9926 283.911 97.4666 283.911 101.59C283.911 105.714 285.071 107.188 288.317 107.188C289.807 107.188 290.685 107.078 291.641 106.78L291.469 105.307ZM301.914 107V96.1808H299.907L295.83 103.284C295.595 103.707 295.391 104.131 295.234 104.585H295.124C295.218 104.115 295.25 103.644 295.25 103.174V96.1808H293.368V107H295.359L299.452 99.8656C299.671 99.4893 299.875 99.0032 300.048 98.5485H300.142C300.063 99.0032 300.016 99.4579 300.016 99.9126V107H301.914ZM311.528 105.307C310.603 105.432 309.756 105.463 308.377 105.463C306.589 105.463 306.04 104.554 306.04 101.59C306.04 98.6269 306.589 97.7174 308.377 97.7174C309.678 97.7174 310.321 97.7488 311.293 97.8272L311.481 96.3376C310.54 96.0867 309.819 95.9926 308.377 95.9926C305.131 95.9926 303.97 97.4666 303.97 101.59C303.97 105.714 305.131 107.188 308.377 107.188C309.866 107.188 310.744 107.078 311.701 106.78L311.528 105.307ZM321.158 97.8586V96.1808H312.534V97.8586H315.842V107H317.818V97.8586H321.158ZM329.59 105.416H325.341C324.777 105.416 324.573 105.181 324.573 104.507V102.092H328.995V100.587H324.573V98.6896C324.573 98.0154 324.777 97.7802 325.341 97.7802H329.59L329.669 96.2749C328.242 96.1494 326.501 96.1494 324.902 96.1494C323.491 96.1494 322.613 96.9334 322.613 98.2035V104.977C322.613 106.247 323.475 107.031 324.902 107.031C326.501 107.031 328.242 107.031 329.669 106.906L329.59 105.416ZM340.211 96.1808C339.757 96.1808 339.49 96.4003 339.38 96.8394L337.844 102.688C337.718 103.205 337.624 103.676 337.514 104.178H337.279C337.185 103.676 337.091 103.205 336.966 102.704L335.413 96.8394C335.304 96.4003 335.053 96.1808 334.614 96.1808H332.591C332.089 96.1808 331.838 96.4474 331.823 96.9491L331.415 107H333.328L333.657 97.7645H333.939L335.821 104.962C335.931 105.385 336.213 105.62 336.668 105.62H338.157C338.612 105.62 338.879 105.385 338.988 104.962L340.854 97.7645H341.137L341.513 107H343.426L343.002 96.9491C342.971 96.4474 342.72 96.1808 342.218 96.1808H340.211ZM351.415 103.942L352.309 107H354.316L351.07 96.6982C350.976 96.369 350.694 96.1808 350.365 96.1808H348.452C348.122 96.1808 347.84 96.369 347.746 96.6982L344.5 107H346.507L347.401 103.942H351.415ZM350.945 102.327H347.872L348.953 98.5955L349.204 97.6704H349.628C349.675 97.9683 349.785 98.2976 349.863 98.5955L350.945 102.327Z" fill="white"/>
<path d="M279.944 63.5883V62.2399H275.24V63.5883H279.944Z" fill="white"/>
</g>
</g>
<defs>
<linearGradient id="paint0_linear_30215_28924" x1="490.892" y1="175.366" x2="283.4" y2="175.233" gradientUnits="userSpaceOnUse">
<stop stop-color="#8CF857"/>
<stop offset="1" stop-color="#03A9A1"/>
</linearGradient>
<linearGradient id="paint1_linear_30215_28924" x1="363.4" y1="218.586" x2="269" y2="218.586" gradientUnits="userSpaceOnUse">
<stop stop-color="#8CF857"/>
<stop offset="1" stop-color="#03A9A1"/>
</linearGradient>
<linearGradient id="paint2_linear_30215_28924" x1="346.6" y1="295.96" x2="275.4" y2="295.961" gradientUnits="userSpaceOnUse">
<stop stop-color="#44D0FF"/>
<stop offset="1" stop-color="#03A9A1"/>
</linearGradient>
<linearGradient id="paint3_linear_30215_28924" x1="290.6" y1="252" x2="380.2" y2="252" gradientUnits="userSpaceOnUse">
<stop stop-color="#03A9A1"/>
<stop offset="1" stop-color="#03A9A1" stop-opacity="0"/>
</linearGradient>
<linearGradient id="paint4_linear_30215_28924" x1="284.2" y1="320.8" x2="360.2" y2="320.8" gradientUnits="userSpaceOnUse">
<stop stop-color="#03A9A1"/>
<stop offset="1" stop-color="#03A9A1" stop-opacity="0"/>
</linearGradient>
<linearGradient id="paint5_linear_30215_28924" x1="290.6" y1="392.8" x2="418.6" y2="392.8" gradientUnits="userSpaceOnUse">
<stop stop-color="#03A9A1"/>
<stop offset="1" stop-color="#03A9A1" stop-opacity="0"/>
</linearGradient>
<linearGradient id="paint6_linear_30215_28924" x1="380.2" y1="333.564" x2="225" y2="333.564" gradientUnits="userSpaceOnUse">
<stop stop-color="#44D0FF"/>
<stop offset="1" stop-color="#03A9A1"/>
</linearGradient>
<linearGradient id="paint7_linear_30215_28924" x1="364.2" y1="382.654" x2="263.4" y2="382.652" gradientUnits="userSpaceOnUse">
<stop stop-color="#F5222D"/>
<stop offset="1" stop-color="#03A9A1"/>
</linearGradient>
<linearGradient id="paint8_linear_30215_28924" x1="369.8" y1="257.659" x2="255.4" y2="257.659" gradientUnits="userSpaceOnUse">
<stop stop-color="#8CF857"/>
<stop offset="1" stop-color="#03A9A1"/>
</linearGradient>
<clipPath id="clip0_30215_28924">
<rect x="0.200195" width="608" height="448" rx="6.4" fill="white"/>
</clipPath>
<clipPath id="clip1_30215_28924">
<rect width="435.68" height="78.4" fill="white" transform="translate(32.2002 32)"/>
</clipPath>
</defs>
</svg>
