<svg width="760" height="560" viewBox="0 0 760 560" fill="none" xmlns="http://www.w3.org/2000/svg">
<g clip-path="url(#clip0_4188_24528)">
<rect width="760" height="560" rx="8" fill="#03A9A1"/>
<line x1="319" y1="217.708" x2="907.729" y2="217.708" stroke="url(#paint0_linear_4188_24528)" stroke-width="3" stroke-dasharray="4.16 5.54"/>
<line x1="319" y1="271.733" x2="907.729" y2="271.733" stroke="url(#paint1_linear_4188_24528)" stroke-width="3" stroke-dasharray="4.16 5.54"/>
<line x1="319" y1="368.7" x2="907.729" y2="368.7" stroke="url(#paint2_linear_4188_24528)" stroke-width="3" stroke-dasharray="4.16 5.54"/>
<path d="M368.176 277.629H363.328V320.331H869.635V275.551C856.475 275.551 858.048 275.551 854.397 267.932C851.627 262.151 850.242 260.073 846.086 250.617C842.067 241.472 834.711 244.459 831.541 250.617C827.385 258.688 828.078 256.61 823.922 264.469C820.133 271.636 815.61 275.551 810.762 275.551H780.698C780.05 275.551 779.493 276.001 779.352 276.634L771.017 311.091C770.675 312.617 768.461 312.496 768.289 310.941L755.095 194.971C754.917 193.367 752.606 193.311 752.351 194.904L737.111 289.997C736.927 291.148 735.499 291.559 734.831 290.604C733.62 288.873 732.526 286.705 731.11 282.93C729.018 277.351 726.262 275.551 723.492 275.551H718.643C714.488 275.551 710.167 275.879 708.947 271.396C707.561 266.307 707.561 266.307 704.791 258.688C702.092 251.266 695.787 251.31 693.016 256.61C690.246 261.91 691.631 259.621 686.783 267.932C681.934 276.244 677.779 275.551 674.315 275.551H630.852C629.595 275.551 628.974 274.012 629.881 273.141C641.041 262.417 660.849 241.594 667.51 227.76C676.514 209.06 674.667 186.017 659.199 176.266C627.338 156.18 609.209 190.811 609.209 190.811C609.209 190.811 592.586 156.18 560.725 176.266C545.257 186.017 543.41 209.06 552.414 227.76C559.075 241.594 578.883 262.417 590.043 273.141C590.95 274.012 590.334 275.551 589.077 275.551H557.262C551.721 275.551 549.643 275.551 546.18 271.396C542.717 267.24 537.176 257.543 533.713 250.617C530.25 243.691 524.152 245.829 521.938 250.617C519.168 256.61 516.42 261.458 512.934 267.932C508.086 276.937 501.16 275.551 496.311 275.551H470.403C469.755 275.551 469.198 276.001 469.057 276.634L460.571 311.768C460.234 313.272 458.062 313.185 457.847 311.659L440.893 194.33C440.669 192.74 438.372 192.741 438.149 194.331L424.86 289.169C424.675 290.491 423.066 290.735 422.564 289.498C421.668 287.292 420.673 284.723 419.43 282.237C417.262 277.9 416.66 277.629 411.811 277.629H403.5C397.266 277.629 396.574 269.318 394.496 264.469C392.418 259.621 391.725 254.08 386.184 254.08C380.643 254.08 379.258 262.844 375.795 269.77C373.145 275.07 372.332 277.629 368.176 277.629Z" fill="#8CF857" fill-opacity="0.4"/>
<path d="M368.176 277.629H363.328V320.331H869.635V275.551C856.475 275.551 858.048 275.551 854.397 267.932C851.627 262.151 850.242 260.073 846.086 250.617C842.067 241.472 834.711 244.459 831.541 250.617C827.385 258.688 828.078 256.61 823.922 264.469C820.133 271.636 815.61 275.551 810.762 275.551H780.698C780.05 275.551 779.493 276.001 779.352 276.634L771.017 311.091C770.675 312.617 768.461 312.496 768.289 310.941L755.095 194.971C754.917 193.367 752.606 193.311 752.351 194.904L737.111 289.997C736.927 291.148 735.499 291.559 734.831 290.604C733.62 288.873 732.526 286.705 731.11 282.93C729.018 277.351 726.262 275.551 723.492 275.551H718.643C714.488 275.551 710.167 275.879 708.947 271.396C707.561 266.307 707.561 266.307 704.791 258.688C702.092 251.266 695.787 251.31 693.016 256.61C690.246 261.91 691.631 259.621 686.783 267.932C681.934 276.244 677.779 275.551 674.315 275.551H630.852C629.595 275.551 628.974 274.012 629.881 273.141C641.041 262.417 660.849 241.594 667.51 227.76C676.514 209.06 674.667 186.017 659.199 176.266C627.338 156.18 609.209 190.811 609.209 190.811C609.209 190.811 592.586 156.18 560.725 176.266C545.257 186.017 543.41 209.06 552.414 227.76C559.075 241.594 578.883 262.417 590.043 273.141C590.95 274.012 590.334 275.551 589.077 275.551H557.262C551.721 275.551 549.643 275.551 546.18 271.396C542.717 267.24 537.176 257.543 533.713 250.617C530.25 243.691 524.152 245.829 521.938 250.617C519.168 256.61 516.42 261.458 512.934 267.932C508.086 276.937 501.16 275.551 496.311 275.551H470.403C469.755 275.551 469.198 276.001 469.057 276.634L460.571 311.768C460.234 313.272 458.062 313.185 457.847 311.659L440.893 194.33C440.669 192.74 438.372 192.741 438.149 194.331L424.86 289.169C424.675 290.491 423.066 290.735 422.564 289.498C421.668 287.292 420.673 284.723 419.43 282.237C417.262 277.9 416.66 277.629 411.811 277.629H403.5C397.266 277.629 396.574 269.318 394.496 264.469C392.418 259.621 391.725 254.08 386.184 254.08C380.643 254.08 379.258 262.844 375.795 269.77C373.145 275.07 372.332 277.629 368.176 277.629Z" fill="url(#paint3_linear_4188_24528)"/>
<path d="M363.328 277.629H368.176C372.332 277.629 373.145 275.07 375.795 269.77C379.258 262.844 380.643 254.08 386.184 254.08C391.725 254.08 392.418 259.621 394.496 264.469C396.574 269.318 397.266 277.629 403.5 277.629H411.811C416.66 277.629 417.262 277.9 419.43 282.237C420.673 284.723 421.668 287.292 422.564 289.498C423.066 290.735 424.675 290.491 424.86 289.169L438.149 194.331C438.372 192.741 440.669 192.74 440.893 194.33L457.847 314.43C458.062 315.955 460.234 316.042 460.571 314.539L469.057 276.634C469.198 276.001 469.755 275.551 470.403 275.551H496.311C501.16 275.551 508.086 276.937 512.934 267.932C516.42 261.458 519.168 256.61 521.938 250.617C524.152 245.829 530.25 243.691 533.713 250.617C537.176 257.543 542.717 267.24 546.18 271.396C549.643 275.551 551.721 275.551 557.262 275.551H589.077C590.334 275.551 590.95 274.012 590.043 273.141C578.883 262.417 559.075 241.594 552.414 227.76C543.41 209.06 545.257 186.017 560.725 176.266C592.586 156.18 609.209 190.811 609.209 190.811C609.209 190.811 627.338 156.18 659.199 176.266C674.667 186.017 676.514 209.06 667.51 227.76C660.849 241.594 641.041 262.417 629.881 273.141C628.974 274.012 629.595 275.551 630.852 275.551H675.008M674.315 275.551C677.779 275.551 681.934 276.244 686.783 267.932C691.631 259.621 690.246 261.91 693.016 256.61C695.787 251.31 702.092 251.266 704.791 258.688C707.561 266.307 707.561 266.307 708.947 271.396C710.167 275.879 714.488 275.551 718.643 275.551H723.492C726.262 275.551 729.018 277.351 731.11 282.93C732.526 286.705 733.62 288.873 734.831 290.604C735.499 291.559 736.927 291.148 737.111 289.997L752.351 194.904C752.606 193.311 754.917 193.367 755.095 194.971L768.289 313.712C768.461 315.266 770.675 315.388 771.017 313.862L779.352 276.634C779.493 276.001 780.05 275.551 780.698 275.551H810.762C815.61 275.551 820.133 271.636 823.922 264.469C828.078 256.61 827.385 258.688 831.541 250.617C834.711 244.459 842.067 241.472 846.086 250.617C850.242 260.073 851.627 262.151 854.397 267.932C858.048 275.551 856.475 275.551 869.635 275.551" stroke="#8CF857" stroke-width="8"/>
<path d="M382.065 341.11H356.402C355.637 341.11 355.016 341.73 355.016 342.495V415.913C355.016 416.678 355.637 417.298 356.402 417.298H878.639C879.404 417.298 880.025 416.678 880.025 415.913V371.585C880.025 370.82 879.404 370.2 878.639 370.2H775.295C774.942 370.2 774.603 370.065 774.346 369.823L752.175 348.957C751.63 348.444 750.776 348.457 750.246 348.986L729.439 369.794C729.179 370.054 728.826 370.2 728.459 370.2H656.04C655.763 370.2 655.492 370.117 655.263 369.962L613.437 341.628C612.974 341.314 612.368 341.31 611.9 341.617L568.69 369.973C568.465 370.121 568.2 370.2 567.93 370.2H445.928C445.396 370.2 444.911 369.895 444.68 369.416L428.274 335.342C427.775 334.305 426.302 334.294 425.787 335.323L408.612 369.672C408.163 370.57 406.937 370.707 406.301 369.93L383.137 341.618C382.874 341.296 382.48 341.11 382.065 341.11Z" fill="#44D0FF" fill-opacity="0.5"/>
<path d="M382.065 341.11H356.402C355.637 341.11 355.016 341.73 355.016 342.495V415.913C355.016 416.678 355.637 417.298 356.402 417.298H878.639C879.404 417.298 880.025 416.678 880.025 415.913V371.585C880.025 370.82 879.404 370.2 878.639 370.2H775.295C774.942 370.2 774.603 370.065 774.346 369.823L752.175 348.957C751.63 348.444 750.776 348.457 750.246 348.986L729.439 369.794C729.179 370.054 728.826 370.2 728.459 370.2H656.04C655.763 370.2 655.492 370.117 655.263 369.962L613.437 341.628C612.974 341.314 612.368 341.31 611.9 341.617L568.69 369.973C568.465 370.121 568.2 370.2 567.93 370.2H445.928C445.396 370.2 444.911 369.895 444.68 369.416L428.274 335.342C427.775 334.305 426.302 334.294 425.787 335.323L408.612 369.672C408.163 370.57 406.937 370.707 406.301 369.93L383.137 341.618C382.874 341.296 382.48 341.11 382.065 341.11Z" fill="url(#paint4_linear_4188_24528)"/>
<path d="M364.016 341.11H382.065C382.48 341.11 382.874 341.296 383.137 341.618L406.301 369.93C406.937 370.707 408.163 370.57 408.612 369.672L425.787 335.323C426.302 334.294 427.775 334.305 428.274 335.342L444.68 369.416C444.911 369.895 445.396 370.2 445.928 370.2H567.93C568.2 370.2 568.465 370.121 568.69 369.973L611.9 341.617C612.368 341.31 612.974 341.314 613.437 341.628L655.263 369.962C655.492 370.117 655.763 370.2 656.04 370.2H728.459C728.826 370.2 729.179 370.054 729.439 369.794L750.246 348.986C750.776 348.457 751.63 348.444 752.175 348.957L774.346 369.823C774.603 370.065 774.942 370.2 775.295 370.2H880.025" stroke="#44D0FF" stroke-width="8"/>
<rect x="363.328" y="449.159" width="505.615" height="55.4098" fill="#AD5C5C"/>
<rect x="363.328" y="449.159" width="505.615" height="55.4098" fill="url(#paint5_linear_4188_24528)"/>
<line x1="363.328" y1="450.7" x2="902.188" y2="450.7" stroke="#F5222D" stroke-width="8"/>
<path d="M420 417.184H907.729" stroke="url(#paint6_linear_4188_24528)" stroke-width="3" stroke-dasharray="4.16 5.54"/>
<path d="M231 476.749H907.729" stroke="url(#paint7_linear_4188_24528)" stroke-width="3" stroke-dasharray="4.16 5.54"/>
<line x1="319" y1="320.217" x2="907.729" y2="320.217" stroke="url(#paint8_linear_4188_24528)" stroke-width="3" stroke-dasharray="4.16 5.54"/>
<path fill-rule="evenodd" clip-rule="evenodd" d="M53.6 49.4999C50.5072 49.4999 48 52.0071 48 55.0999V103.05H64.9007L71.9735 95.0126C72.3568 94.577 72.9032 94.3195 73.4831 94.301C74.063 94.2825 74.6247 94.5047 75.0349 94.915L80.3533 100.233L87.2463 67.9613C87.4547 66.9859 88.3202 66.2917 89.3175 66.3C90.3148 66.3083 91.1687 67.0169 91.3607 67.9956L100.208 113.087L101.944 104.723C102.146 103.749 103.005 103.05 104 103.05H111.24L118.322 91.7824C118.702 91.1774 119.364 90.8073 120.079 90.8C120.793 90.7928 121.463 91.1495 121.855 91.7466L129.283 103.05H142.5V107.25H128.15C127.443 107.25 126.783 106.894 126.395 106.303L120.139 96.7836L114.178 106.267C113.794 106.879 113.122 107.25 112.4 107.25H105.709L102.206 124.127C102.003 125.105 101.138 125.805 100.139 125.8C99.139 125.794 98.2818 125.085 98.0893 124.104L89.2127 78.8622L83.6537 104.889C83.4929 105.641 82.9334 106.246 82.1954 106.464C81.4575 106.682 80.6593 106.479 80.1151 105.935L73.6478 99.4676L67.4265 106.537C67.0278 106.99 66.4535 107.25 65.85 107.25H48V136.3C48 139.393 50.5072 141.9 53.6 141.9H337.8C340.893 141.9 343.4 139.393 343.4 136.3V55.0999C343.4 52.0071 340.893 49.4999 337.8 49.4999H53.6ZM149.15 82.75H151.25H170.85C176.263 82.75 180.65 87.1377 180.65 92.55C180.65 97.9624 176.263 102.35 170.85 102.35H160.35V98.15H170.85C173.943 98.15 176.45 95.6428 176.45 92.55C176.45 89.4573 173.943 86.95 170.85 86.95H153.35V114.25H149.15V84.85V82.75ZM207.604 102.7L200.587 90.7304L196.8 97.1H191.913L198.795 85.5265L200.613 82.4692L202.412 85.5378L219.448 114.6H214.58L210.066 106.9H191.206L186.643 114.6H181.761L187.65 104.663V102.7H207.604ZM254.778 82.4002L242.022 96.4002H247.704L255.2 88.1732V96.4002H259.4V82.7502V82.4002H254.778ZM255.2 101.3L259.4 101.3V114.25H255.2V101.3ZM243.24 101.3H237.558L230.7 108.827V101.3H226.5V114.25V114.6H231.122L243.24 101.3ZM230.7 96.4002H226.5V82.7502H230.7V96.4002ZM283.55 83.4498C275.879 83.4498 269.518 89.0589 268.344 96.3997H272.619C273.736 91.3925 278.206 87.6498 283.55 87.6498H298.6V83.4498H283.55ZM272.465 101.3H268.226C268.641 105.098 270.717 108.214 273.357 110.399C276.289 112.825 280.079 114.25 283.55 114.25H298.6V110.05H283.55C281.144 110.05 278.284 109.024 276.035 107.163C274.177 105.625 272.85 103.619 272.465 101.3ZM305.95 106.55C305.95 102.297 309.397 98.8498 313.65 98.8498H320.35C321.482 98.8498 322.4 99.7676 322.4 100.9V107.25V114.25H319.6V112.72C319.492 112.793 319.382 112.863 319.27 112.93C317.575 113.947 315.545 114.25 314 114.25H313.65C309.397 114.25 305.95 110.802 305.95 106.55ZM319.6 107.25V101.65H313.65C310.944 101.65 308.75 103.844 308.75 106.55C308.75 109.256 310.944 111.45 313.65 111.45H314C315.255 111.45 316.725 111.192 317.83 110.529C318.849 109.918 319.6 108.952 319.6 107.25Z" fill="white"/>
<path d="M202 80.2999L181.7 114.95L186.6 80.2999H202Z" fill="white"/>
<path d="M363.129 66H365.598V60.8452C366.402 60.9432 367.362 61.002 368.323 61.002C371.518 61.002 372.674 60.0808 372.674 56.6508C372.674 53.2404 371.518 52.2996 368.029 52.2996C365.716 52.2996 364.677 52.3192 363.129 52.476V66ZM365.598 59.0028V54.3184H367.97C369.675 54.3184 370.204 54.7888 370.204 56.6508C370.204 58.5128 369.675 58.9832 367.97 59.0028H365.598ZM383.505 64.0204H378.193C377.487 64.0204 377.233 63.7264 377.233 62.8836V59.8652H382.76V57.9836H377.233V55.612C377.233 54.7692 377.487 54.4752 378.193 54.4752H383.505L383.603 52.5936C381.819 52.4368 379.643 52.4368 377.644 52.4368C375.88 52.4368 374.783 53.4168 374.783 55.0044V63.4716C374.783 65.0592 375.861 66.0392 377.644 66.0392C379.643 66.0392 381.819 66.0392 383.603 65.8824L383.505 64.0204ZM393.253 62.178L394.37 66H396.879L392.822 53.1228C392.704 52.7112 392.351 52.476 391.94 52.476H389.549C389.137 52.476 388.784 52.7112 388.667 53.1228L384.609 66H387.118L388.235 62.178H393.253ZM392.665 60.1592H388.823L390.176 55.4944L390.489 54.338H391.019C391.077 54.7104 391.215 55.122 391.313 55.4944L392.665 60.1592ZM408.751 52.476H406.282V57.7876H400.951V52.476H398.501V66H400.951V59.8064H406.282V66H408.751V52.476ZM422.485 66V52.476H419.977L414.881 61.3548C414.587 61.884 414.332 62.4132 414.136 62.9816H413.999C414.116 62.3936 414.155 61.8056 414.155 61.2176V52.476H411.803V66H414.293L419.408 57.082C419.683 56.6116 419.937 56.004 420.153 55.4356H420.271C420.173 56.004 420.114 56.5724 420.114 57.1408V66H422.485ZM436.287 52.476C435.719 52.476 435.386 52.7504 435.248 53.2992L433.328 60.61C433.171 61.2568 433.053 61.8448 432.916 62.472H432.622C432.504 61.8448 432.387 61.2568 432.23 60.6296L430.29 53.2992C430.152 52.7504 429.839 52.476 429.29 52.476H426.762C426.134 52.476 425.821 52.8092 425.801 53.4364L425.292 66H427.683L428.094 54.4556H428.447L430.799 63.452C430.936 63.9812 431.289 64.2752 431.858 64.2752H433.72C434.288 64.2752 434.621 63.9812 434.758 63.452L437.091 54.4556H437.444L437.914 66H440.305L439.776 53.4364C439.737 52.8092 439.423 52.476 438.796 52.476H436.287ZM450.292 62.178L451.409 66H453.918L449.861 53.1228C449.743 52.7112 449.39 52.476 448.979 52.476H446.588C446.176 52.476 445.823 52.7112 445.706 53.1228L441.648 66H444.157L445.274 62.178H450.292ZM449.704 60.1592H445.862L447.215 55.4944L447.528 54.338H448.058C448.116 54.7104 448.254 55.122 448.352 55.4944L449.704 60.1592ZM467.241 64.0988H465.595V52.476H463.125V64.0988H457.99V52.476H455.54V66H465.34L465.536 68.9596H467.241V64.0988ZM480.003 66V52.476H477.494L472.398 61.3548C472.104 61.884 471.849 62.4132 471.653 62.9816H471.516C471.634 62.3936 471.673 61.8056 471.673 61.2176V52.476H469.321V66H471.81L476.926 57.082C477.2 56.6116 477.455 56.004 477.671 55.4356H477.788C477.69 56.004 477.631 56.5724 477.631 57.1408V66H480.003ZM488.14 52.2212C484.024 52.2212 482.574 53.8676 482.574 59.238C482.574 64.6084 484.024 66.2548 488.14 66.2548C492.276 66.2548 493.726 64.6084 493.726 59.238C493.726 53.8676 492.276 52.2212 488.14 52.2212ZM488.14 54.3184C490.434 54.3184 491.139 55.4748 491.139 59.238C491.139 63.0012 490.434 64.1576 488.14 64.1576C485.867 64.1576 485.161 63.0012 485.161 59.238C485.161 55.4748 485.867 54.3184 488.14 54.3184ZM506.541 52.476H504.071V57.7876H498.74V52.476H496.29V66H498.74V59.8064H504.071V66H506.541V52.476ZM519.844 52.476H517.374V57.7876H512.043V52.476H509.593V66H512.043V59.8064H517.374V66H519.844V52.476ZM527.972 52.2212C523.856 52.2212 522.406 53.8676 522.406 59.238C522.406 64.6084 523.856 66.2548 527.972 66.2548C532.108 66.2548 533.558 64.6084 533.558 59.238C533.558 53.8676 532.108 52.2212 527.972 52.2212ZM527.972 54.3184C530.265 54.3184 530.971 55.4748 530.971 59.238C530.971 63.0012 530.265 64.1576 527.972 64.1576C525.698 64.1576 524.993 63.0012 524.993 59.238C524.993 55.4748 525.698 54.3184 527.972 54.3184ZM370.342 87.178L371.459 91H373.968L369.91 78.1228C369.793 77.7112 369.44 77.476 369.028 77.476H366.637C366.226 77.476 365.873 77.7112 365.755 78.1228L361.698 91H364.207L365.324 87.178H370.342ZM369.754 85.1592H365.912L367.264 80.4944L367.578 79.338H368.107C368.166 79.7104 368.303 80.122 368.401 80.4944L369.754 85.1592ZM385.84 77.476H383.371V82.7876H378.039V77.476H375.589V91H378.039V84.8064H383.371V91H385.84V77.476ZM397.496 89.0204H392.185C391.479 89.0204 391.224 88.7264 391.224 87.8836V84.8652H396.752V82.9836H391.224V80.612C391.224 79.7692 391.479 79.4752 392.185 79.4752H397.496L397.594 77.5936C395.811 77.4368 393.635 77.4368 391.636 77.4368C389.872 77.4368 388.774 78.4168 388.774 80.0044V88.4716C388.774 90.0592 389.852 91.0392 391.636 91.0392C393.635 91.0392 395.811 91.0392 397.594 90.8824L397.496 89.0204ZM408.874 88.8832C407.718 89.04 406.659 89.0792 404.935 89.0792C402.7 89.0792 402.014 87.9424 402.014 84.238C402.014 80.5336 402.7 79.3968 404.935 79.3968C406.561 79.3968 407.365 79.436 408.58 79.534L408.815 77.672C407.639 77.3584 406.738 77.2408 404.935 77.2408C400.877 77.2408 399.427 79.0832 399.427 84.238C399.427 89.3928 400.877 91.2352 404.935 91.2352C406.797 91.2352 407.894 91.098 409.09 90.7256L408.874 88.8832ZM420.911 79.5732V77.476H410.131V79.5732H414.267V91H416.736V79.5732H420.911ZM431.452 89.0204H426.14C425.435 89.0204 425.18 88.7264 425.18 87.8836V84.8652H430.707V82.9836H425.18V80.612C425.18 79.7692 425.435 79.4752 426.14 79.4752H431.452L431.55 77.5936C429.766 77.4368 427.591 77.4368 425.592 77.4368C423.828 77.4368 422.73 78.4168 422.73 80.0044V88.4716C422.73 90.0592 423.808 91.0392 425.592 91.0392C427.591 91.0392 429.766 91.0392 431.55 90.8824L431.452 89.0204ZM433.595 79.4948C434.673 79.3968 435.81 79.2596 437.261 79.2596C438.966 79.2596 439.534 79.632 439.534 81.1608C439.534 82.67 439.005 83.062 437.457 83.062H435.007V84.9044H437.457C439.26 84.924 439.848 85.414 439.848 87.178C439.848 88.8244 439.299 89.1968 437.574 89.1968C436.026 89.1968 434.556 89.0596 433.282 88.8832L433.086 90.6276C434.517 91.0196 435.987 91.1568 438.025 91.1568C441.102 91.1568 442.376 90.412 442.376 87.6288C442.376 85.4728 441.69 84.1988 439.691 84.0224V83.944C441.318 83.7872 441.965 82.7876 441.965 80.8472C441.965 78.064 440.789 77.3192 437.437 77.3192C435.791 77.3192 434.654 77.4172 433.399 77.672L433.595 79.4948ZM455.58 91V77.476H453.071L447.975 86.3548C447.681 86.884 447.426 87.4132 447.23 87.9816H447.093C447.21 87.3936 447.25 86.8056 447.25 86.2176V77.476H444.898V91H447.387L452.502 82.082C452.777 81.6116 453.032 81.004 453.247 80.4356H453.365C453.267 81.004 453.208 81.5724 453.208 82.1408V91H455.58ZM463.717 77.2212C459.601 77.2212 458.15 78.8676 458.15 84.238C458.15 89.6084 459.601 91.2548 463.717 91.2548C467.852 91.2548 469.303 89.6084 469.303 84.238C469.303 78.8676 467.852 77.2212 463.717 77.2212ZM463.717 79.3184C466.01 79.3184 466.716 80.4748 466.716 84.238C466.716 88.0012 466.01 89.1576 463.717 89.1576C461.443 89.1576 460.738 88.0012 460.738 84.238C460.738 80.4748 461.443 79.3184 463.717 79.3184ZM481.652 77.476H476.399C474.556 77.476 473.537 78.4168 473.38 80.22C473.067 84.434 472.832 86.0608 472.224 87.6092C471.871 88.55 471.205 88.9224 470.284 89.138L470.48 91.0392C472.4 91.196 473.714 90.2944 474.537 88.256C475.242 86.5312 475.438 84.5516 475.772 80.612C475.85 79.7692 476.262 79.3772 477.085 79.3772H479.182V91H481.652V77.476ZM489.786 77.2212C485.67 77.2212 484.22 78.8676 484.22 84.238C484.22 89.6084 485.67 91.2548 489.786 91.2548C493.922 91.2548 495.372 89.6084 495.372 84.238C495.372 78.8676 493.922 77.2212 489.786 77.2212ZM489.786 79.3184C492.08 79.3184 492.785 80.4748 492.785 84.238C492.785 88.0012 492.08 89.1576 489.786 89.1576C487.513 89.1576 486.807 88.0012 486.807 84.238C486.807 80.4748 487.513 79.3184 489.786 79.3184ZM497.897 91H500.347V80.71C500.347 79.7692 500.641 79.4752 501.503 79.4752H506.247L506.364 77.6132C504.62 77.4368 502.523 77.4368 500.602 77.4368C499.034 77.4368 497.897 78.5736 497.897 80.2396V91ZM518.897 91V77.476H516.388L511.292 86.3548C510.998 86.884 510.743 87.4132 510.547 87.9816H510.41C510.527 87.3936 510.567 86.8056 510.567 86.2176V77.476H508.215V91H510.704L515.819 82.082C516.094 81.6116 516.349 81.004 516.564 80.4356H516.682C516.584 81.004 516.525 81.5724 516.525 82.1408V91H518.897ZM531.464 77.476H529.014V83.3756C527.642 83.944 526.72 84.1204 525.584 84.1204C524.349 84.1204 523.898 83.6696 523.918 82.572V77.476H521.468V83.0816C521.468 85.2572 522.506 86.2764 524.702 86.2764C525.799 86.2764 527.504 85.9432 529.014 85.1788V91H531.464V77.476ZM543.118 89.0204H537.807C537.101 89.0204 536.846 88.7264 536.846 87.8836V84.8652H542.374V82.9836H536.846V80.612C536.846 79.7692 537.101 79.4752 537.807 79.4752H543.118L543.216 77.5936C541.433 77.4368 539.257 77.4368 537.258 77.4368C535.494 77.4368 534.396 78.4168 534.396 80.0044V88.4716C534.396 90.0592 535.474 91.0392 537.258 91.0392C539.257 91.0392 541.433 91.0392 543.216 90.8824L543.118 89.0204ZM554.496 88.8832C553.34 89.04 552.281 89.0792 550.557 89.0792C548.322 89.0792 547.636 87.9424 547.636 84.238C547.636 80.5336 548.322 79.3968 550.557 79.3968C552.183 79.3968 552.987 79.436 554.202 79.534L554.437 77.672C553.261 77.3584 552.36 77.2408 550.557 77.2408C546.499 77.2408 545.049 79.0832 545.049 84.238C545.049 89.3928 546.499 91.2352 550.557 91.2352C552.419 91.2352 553.516 91.098 554.712 90.7256L554.496 88.8832ZM562.339 83.9048C564.808 83.6108 565.318 81.5136 566.651 77.476H564.161C563.044 81.004 562.456 83.0032 560.32 83.0228H559.183C559.261 82.5132 559.32 81.984 559.32 81.4548V77.476H556.87V91H559.32V86.2372C559.32 85.806 559.261 85.3552 559.183 84.9044H560.32C562.574 84.9044 563.005 86.6488 564.436 91H567.003C565.396 86.2764 564.965 84.2772 562.339 83.9832V83.9048ZM576.218 87.178L577.335 91H579.844L575.787 78.1228C575.669 77.7112 575.317 77.476 574.905 77.476H572.514C572.102 77.476 571.749 77.7112 571.632 78.1228L567.575 91H570.083L571.201 87.178H576.218ZM575.63 85.1592H571.789L573.141 80.4944L573.455 79.338H573.984C574.043 79.7104 574.18 80.122 574.278 80.4944L575.63 85.1592ZM590.639 91V77.476C589.09 77.3192 588.032 77.2996 585.739 77.2996C582.485 77.2996 581.172 78.3972 581.172 81.2588C581.152 83.3952 581.838 84.5712 583.739 84.8064L583.759 84.924C583.014 85.0612 582.113 85.5708 581.779 86.8644L580.643 91H583.23L584.269 86.9428C584.523 86.0412 585.013 85.708 585.837 85.708L588.169 85.6884V91H590.639ZM588.169 83.6892H585.797C584.151 83.6892 583.622 83.0424 583.622 81.4156C583.641 79.7496 584.151 79.3184 585.797 79.3184H588.169V83.6892ZM373.811 115V101.476H371.302L366.206 110.355C365.912 110.884 365.657 111.413 365.461 111.982H365.324C365.442 111.394 365.481 110.806 365.481 110.218V101.476H363.129V115H365.618L370.734 106.082C371.008 105.612 371.263 105.004 371.478 104.436H371.596C371.498 105.004 371.439 105.572 371.439 106.141V115H373.811ZM387.123 101.476H384.653V106.788H379.322V101.476H376.872V115H379.322V108.806H384.653V115H387.123V101.476ZM397.995 100.476H395.545V102.299C391.017 102.495 389.41 103.985 389.41 108.101C389.41 112.119 391.017 113.569 395.545 113.785V115.588H398.014V113.785C402.503 113.569 404.13 112.099 404.149 108.101C404.13 103.985 402.503 102.515 397.995 102.299V100.476ZM395.643 111.805C392.722 111.648 391.899 110.786 391.899 108.101C391.899 105.318 392.722 104.416 395.643 104.259V111.805ZM397.897 104.259C400.798 104.436 401.621 105.318 401.64 108.101C401.621 110.766 400.798 111.648 397.897 111.805V104.259ZM411.501 101.221C407.385 101.221 405.935 102.868 405.935 108.238C405.935 113.608 407.385 115.255 411.501 115.255C415.637 115.255 417.087 113.608 417.087 108.238C417.087 102.868 415.637 101.221 411.501 101.221ZM411.501 103.318C413.794 103.318 414.5 104.475 414.5 108.238C414.5 112.001 413.794 113.158 411.501 113.158C409.228 113.158 408.522 112.001 408.522 108.238C408.522 104.475 409.228 103.318 411.501 103.318ZM419.651 115H422.121V109.845C422.924 109.943 423.885 110.002 424.845 110.002C428.04 110.002 429.196 109.081 429.196 105.651C429.196 102.24 428.04 101.3 424.551 101.3C422.238 101.3 421.199 101.319 419.651 101.476V115ZM422.121 108.003V103.318H424.492C426.197 103.318 426.727 103.789 426.727 105.651C426.727 107.513 426.197 107.983 424.492 108.003H422.121ZM442.163 101.476C441.595 101.476 441.262 101.75 441.125 102.299L439.204 109.61C439.047 110.257 438.929 110.845 438.792 111.472H438.498C438.381 110.845 438.263 110.257 438.106 109.63L436.166 102.299C436.029 101.75 435.715 101.476 435.166 101.476H432.638C432.011 101.476 431.697 101.809 431.677 102.436L431.168 115H433.559L433.971 103.456H434.323L436.675 112.452C436.813 112.981 437.165 113.275 437.734 113.275H439.596C440.164 113.275 440.497 112.981 440.635 112.452L442.967 103.456H443.32L443.79 115H446.181L445.652 102.436C445.613 101.809 445.299 101.476 444.672 101.476H442.163ZM456.168 111.178L457.285 115H459.794L455.737 102.123C455.619 101.711 455.267 101.476 454.855 101.476H452.464C452.052 101.476 451.699 101.711 451.582 102.123L447.525 115H450.033L451.151 111.178H456.168ZM455.58 109.159H451.739L453.091 104.494L453.405 103.338H453.934C453.993 103.71 454.13 104.122 454.228 104.494L455.58 109.159ZM473.117 113.099H471.471V101.476H469.001V113.099H463.866V101.476H461.416V115H471.216L471.412 117.96H473.117V113.099ZM485.879 115V101.476H483.37L478.274 110.355C477.98 110.884 477.726 111.413 477.53 111.982H477.392C477.51 111.394 477.549 110.806 477.549 110.218V101.476H475.197V115H477.686L482.802 106.082C483.076 105.612 483.331 105.004 483.547 104.436H483.664C483.566 105.004 483.508 105.572 483.508 106.141V115H485.879ZM494.016 101.221C489.9 101.221 488.45 102.868 488.45 108.238C488.45 113.608 489.9 115.255 494.016 115.255C498.152 115.255 499.602 113.608 499.602 108.238C499.602 102.868 498.152 101.221 494.016 101.221ZM494.016 103.318C496.31 103.318 497.015 104.475 497.015 108.238C497.015 112.001 496.31 113.158 494.016 113.158C491.743 113.158 491.037 112.001 491.037 108.238C491.037 104.475 491.743 103.318 494.016 103.318ZM512.417 101.476H509.947V106.788H504.616V101.476H502.166V115H504.616V108.806H509.947V115H512.417V101.476ZM525.72 101.476H523.25V106.788H517.919V101.476H515.469V115H517.919V108.806H523.25V115H525.72V101.476ZM535.985 111.178L537.102 115H539.611L535.553 102.123C535.436 101.711 535.083 101.476 534.671 101.476H532.28C531.869 101.476 531.516 101.711 531.398 102.123L527.341 115H529.85L530.967 111.178H535.985ZM535.397 109.159H531.555L532.907 104.494L533.221 103.338H533.75C533.809 103.71 533.946 104.122 534.044 104.494L535.397 109.159ZM550.405 115V101.476C548.857 101.319 547.798 101.3 545.505 101.3C542.251 101.3 540.938 102.397 540.938 105.259C540.919 107.395 541.605 108.571 543.506 108.806L543.525 108.924C542.781 109.061 541.879 109.571 541.546 110.864L540.409 115H542.996L544.035 110.943C544.29 110.041 544.78 109.708 545.603 109.708L547.935 109.688V115H550.405ZM547.935 107.689H545.564C543.917 107.689 543.388 107.042 543.388 105.416C543.408 103.75 543.917 103.318 545.564 103.318H547.935V107.689ZM372.086 137.883C370.93 138.04 369.871 138.079 368.146 138.079C365.912 138.079 365.226 136.942 365.226 133.238C365.226 129.534 365.912 128.397 368.146 128.397C369.773 128.397 370.577 128.436 371.792 128.534L372.027 126.672C370.851 126.358 369.95 126.241 368.146 126.241C364.089 126.241 362.639 128.083 362.639 133.238C362.639 138.393 364.089 140.235 368.146 140.235C370.008 140.235 371.106 140.098 372.302 139.726L372.086 137.883ZM385.142 140V126.476H382.633L377.537 135.355C377.243 135.884 376.988 136.413 376.792 136.982H376.655C376.773 136.394 376.812 135.806 376.812 135.218V126.476H374.46V140H376.949L382.065 131.082C382.339 130.612 382.594 130.004 382.81 129.436H382.927C382.829 130.004 382.77 130.572 382.77 131.141V140H385.142ZM397.16 137.883C396.004 138.04 394.945 138.079 393.221 138.079C390.986 138.079 390.3 136.942 390.3 133.238C390.3 129.534 390.986 128.397 393.221 128.397C394.847 128.397 395.651 128.436 396.866 128.534L397.101 126.672C395.925 126.358 395.024 126.241 393.221 126.241C389.163 126.241 387.713 128.083 387.713 133.238C387.713 138.393 389.163 140.235 393.221 140.235C395.083 140.235 396.18 140.098 397.376 139.726L397.16 137.883ZM409.197 128.573V126.476H398.417V128.573H402.553V140H405.022V128.573H409.197ZM419.738 138.02H414.426C413.721 138.02 413.466 137.726 413.466 136.884V133.865H418.993V131.984H413.466V129.612C413.466 128.769 413.721 128.475 414.426 128.475H419.738L419.836 126.594C418.052 126.437 415.877 126.437 413.877 126.437C412.113 126.437 411.016 127.417 411.016 129.004V137.472C411.016 139.059 412.094 140.039 413.877 140.039C415.877 140.039 418.052 140.039 419.836 139.882L419.738 138.02ZM433.014 126.476C432.446 126.476 432.113 126.75 431.975 127.299L430.055 134.61C429.898 135.257 429.78 135.845 429.643 136.472H429.349C429.231 135.845 429.114 135.257 428.957 134.63L427.017 127.299C426.879 126.75 426.566 126.476 426.017 126.476H423.489C422.861 126.476 422.548 126.809 422.528 127.436L422.019 140H424.41L424.821 128.456H425.174L427.526 137.452C427.663 137.981 428.016 138.275 428.585 138.275H430.447C431.015 138.275 431.348 137.981 431.485 137.452L433.818 128.456H434.171L434.641 140H437.032L436.503 127.436C436.464 126.809 436.15 126.476 435.523 126.476H433.014ZM447.019 136.178L448.136 140H450.645L446.588 127.123C446.47 126.711 446.117 126.476 445.706 126.476H443.315C442.903 126.476 442.55 126.711 442.433 127.123L438.375 140H440.884L442.001 136.178H447.019ZM446.431 134.159H442.589L443.942 129.494L444.255 128.338H444.785C444.843 128.71 444.981 129.122 445.079 129.494L446.431 134.159Z" fill="white"/>
<path d="M357.68 85.4854V83.7998H351.8V85.4854H357.68Z" fill="white"/>
</g>
<defs>
<linearGradient id="paint0_linear_4188_24528" x1="613.365" y1="219.208" x2="354" y2="219" gradientUnits="userSpaceOnUse">
<stop stop-color="#8CF857"/>
<stop offset="1" stop-color="#03A9A1"/>
</linearGradient>
<linearGradient id="paint1_linear_4188_24528" x1="454" y1="273.233" x2="336" y2="273.233" gradientUnits="userSpaceOnUse">
<stop stop-color="#8CF857"/>
<stop offset="1" stop-color="#03A9A1"/>
</linearGradient>
<linearGradient id="paint2_linear_4188_24528" x1="433" y1="370" x2="344" y2="370.001" gradientUnits="userSpaceOnUse">
<stop stop-color="#44D0FF"/>
<stop offset="1" stop-color="#03A9A1"/>
</linearGradient>
<linearGradient id="paint3_linear_4188_24528" x1="363" y1="315" x2="475" y2="315" gradientUnits="userSpaceOnUse">
<stop stop-color="#03A9A1"/>
<stop offset="1" stop-color="#03A9A1" stop-opacity="0"/>
</linearGradient>
<linearGradient id="paint4_linear_4188_24528" x1="355" y1="401" x2="450" y2="401" gradientUnits="userSpaceOnUse">
<stop stop-color="#03A9A1"/>
<stop offset="1" stop-color="#03A9A1" stop-opacity="0"/>
</linearGradient>
<linearGradient id="paint5_linear_4188_24528" x1="363" y1="491" x2="523" y2="491" gradientUnits="userSpaceOnUse">
<stop stop-color="#03A9A1"/>
<stop offset="1" stop-color="#03A9A1" stop-opacity="0"/>
</linearGradient>
<linearGradient id="paint6_linear_4188_24528" x1="475" y1="417" x2="281" y2="417" gradientUnits="userSpaceOnUse">
<stop stop-color="#44D0FF"/>
<stop offset="1" stop-color="#03A9A1"/>
</linearGradient>
<linearGradient id="paint7_linear_4188_24528" x1="455" y1="478.003" x2="329" y2="478.002" gradientUnits="userSpaceOnUse">
<stop stop-color="#F5222D"/>
<stop offset="1" stop-color="#03A9A1"/>
</linearGradient>
<linearGradient id="paint8_linear_4188_24528" x1="462" y1="322.002" x2="319" y2="322.003" gradientUnits="userSpaceOnUse">
<stop stop-color="#8CF857"/>
<stop offset="1" stop-color="#03A9A1"/>
</linearGradient>
<clipPath id="clip0_4188_24528">
<rect width="760" height="560" rx="8" fill="white"/>
</clipPath>
</defs>
</svg>
