<svg width="760" height="560" viewBox="0 0 760 560" fill="none" xmlns="http://www.w3.org/2000/svg">
<g clip-path="url(#clip0_4188_25734)">
<rect width="760" height="560" rx="8" fill="#F0F6FF"/>
<g clip-path="url(#clip1_4188_25734)">
<line x1="639.782" y1="271.527" x2="822.213" y2="2.54212" stroke="#D1DCED" stroke-width="3.99482" stroke-dasharray="7.99 7.99"/>
<path d="M494.637 271.527L692 -20" stroke="#D1DCED" stroke-width="3.99482" stroke-dasharray="7.99 7.99"/>
<line x1="411.649" y1="307.888" x2="243.219" y2="-24.0965" stroke="#D1DCED" stroke-width="3.99482" stroke-dasharray="7.99 7.99"/>
<circle cx="543.527" cy="591.532" r="229.702" stroke="#D1DCED" stroke-width="3.99482"/>
<circle cx="543.562" cy="591.568" r="316.923" fill="#F0F6FF" stroke="#D1DCED" stroke-width="3.99482"/>
<path d="M543.527 333.2L543.527 849.864" stroke="#D1DCED" stroke-width="3.99482"/>
<path d="M360.859 408.864L726.195 774.2" stroke="#D1DCED" stroke-width="3.99482"/>
<path d="M360.859 774.2L726.195 408.864" stroke="#D1DCED" stroke-width="3.99482"/>
<path d="M444.667 352.865L642.386 830.2" stroke="#D1DCED" stroke-width="3.99482"/>
<path d="M304.859 492.673L782.194 690.391" stroke="#D1DCED" stroke-width="3.99482"/>
<path d="M304.859 690.392L782.194 492.673" stroke="#D1DCED" stroke-width="3.99482"/>
<path d="M444.667 830.2L642.386 352.865" stroke="#D1DCED" stroke-width="3.99482"/>
<path d="M495.727 351.224L591.327 831.839" stroke="#D1DCED" stroke-width="1.33161"/>
<path d="M339.804 455.408L747.25 727.655" stroke="#D1DCED" stroke-width="1.33161"/>
<path d="M303.219 639.332L783.835 543.732" stroke="#D1DCED" stroke-width="1.33161"/>
<path d="M407.403 795.255L679.65 387.809" stroke="#D1DCED" stroke-width="1.33161"/>
<path d="M591.327 351.224L495.726 831.84" stroke="#D1DCED" stroke-width="1.33161"/>
<path d="M407.403 387.809L679.65 795.255" stroke="#D1DCED" stroke-width="1.33161"/>
<path d="M303.219 543.731L783.834 639.332" stroke="#D1DCED" stroke-width="1.33161"/>
<path d="M339.804 727.655L747.25 455.408" stroke="#D1DCED" stroke-width="1.33161"/>
<path d="M518.894 347.758L568.159 835.307" stroke="#D1DCED" stroke-width="1.33161"/>
<path d="M353.735 436.576L733.319 746.49" stroke="#D1DCED" stroke-width="1.33161"/>
<path d="M388.57 781.325L698.484 401.74" stroke="#D1DCED" stroke-width="1.33161"/>
<path d="M566.963 347.64L520.09 835.424" stroke="#D1DCED" stroke-width="1.33161"/>
<path d="M387.641 402.502L699.412 780.562" stroke="#D1DCED" stroke-width="1.33161"/>
<path d="M354.497 747.417L732.556 435.646" stroke="#D1DCED" stroke-width="1.33161"/>
<path d="M614.058 356.888L472.996 826.177" stroke="#D1DCED" stroke-width="1.33161"/>
<path d="M427.481 375.74L659.572 807.324" stroke="#D1DCED" stroke-width="1.33161"/>
<path d="M308.882 521.001L778.171 662.064" stroke="#D1DCED" stroke-width="1.33161"/>
<path d="M327.735 707.578L759.319 475.486" stroke="#D1DCED" stroke-width="1.33161"/>
<path d="M658.512 375.173L428.541 807.89" stroke="#D1DCED" stroke-width="1.33161"/>
<path d="M471.845 357.236L615.208 825.827" stroke="#D1DCED" stroke-width="1.33161"/>
<path d="M327.168 476.546L759.885 706.518" stroke="#D1DCED" stroke-width="1.33161"/>
<path d="M309.231 663.213L777.822 519.851" stroke="#D1DCED" stroke-width="1.33161"/>
<circle cx="543.527" cy="591.532" r="220.381" fill="#F0F6FF" stroke="#D1DCED" stroke-width="3.99482"/>
<circle cx="543.562" cy="591.568" r="132.495" fill="white" stroke="#D1DCED" stroke-width="7.98964"/>
<line x1="558.003" y1="275" x2="558.003" y2="-20" stroke="#D1DCED" stroke-width="3.99482" stroke-dasharray="7.99 7.99"/>
<path d="M462.322 94.5629V82.3548H450.113V78.1362H462.322V65.9281H466.54V78.1362H478.748V82.3548H466.54V94.5629H462.322Z" fill="#D1DCED"/>
<path d="M288.991 200.672V191.516H279.835V188.352H288.991V179.196H292.155V188.352H301.311V191.516H292.155V200.672H288.991Z" fill="#D1DCED"/>
<path d="M693.598 70.5733V66.3548H712.326V70.5733H693.598Z" fill="#D1DCED"/>
<path d="M397.198 130.68V127.516H411.244V130.68H397.198Z" fill="#D1DCED"/>
</g>
<g clip-path="url(#clip2_4188_25734)">
<path d="M113.203 145.778L84.4677 129.6V203.029H113.203V145.778Z" fill="#A2BCE5"/>
<path d="M162.448 168.974L138.539 155.977V203.029H162.448V168.974Z" fill="#A2BCE5"/>
<path d="M198.916 187.071L179.613 177.639V203.029H198.916V187.071Z" fill="#A2BCE5"/>
<path d="M50.6871 203.029V144.078L84.4678 129.6L113.203 145.778V203.029" stroke="#467BCD" stroke-width="5.36294" stroke-miterlimit="10"/>
<path d="M84.4677 129.6V203.029" stroke="#467BCD" stroke-width="5.36294" stroke-miterlimit="10"/>
<path d="M113.203 167.274L138.539 155.977L162.448 168.974V203.029" stroke="#467BCD" stroke-width="5.36294" stroke-miterlimit="10"/>
<path d="M138.539 155.977V203.138" stroke="#467BCD" stroke-width="5.36294" stroke-miterlimit="10"/>
<path d="M162.448 184.932L179.887 176.926L198.477 187.071V203.029" stroke="#467BCD" stroke-width="5.36294" stroke-miterlimit="10"/>
<path d="M179.887 176.926V203.139" stroke="#467BCD" stroke-width="5.36294" stroke-miterlimit="10"/>
<path d="M157.677 146.491L164.039 131.136L153.016 143.42L157.677 146.491Z" fill="#467BCD"/>
<path d="M168.957 153.157C170.529 150.498 165.335 144.519 157.357 139.804C149.378 135.089 141.636 133.422 140.064 136.081C138.493 138.741 143.686 144.72 151.665 149.435C159.643 154.15 167.385 155.817 168.957 153.157Z" stroke="#467BCD" stroke-width="2.6815" stroke-miterlimit="10"/>
<path d="M138.813 135.907C138.813 135.907 135.303 150.22 147.039 156.471C160.2 163.545 169.248 154.607 169.248 154.607C169.248 154.607 158.281 154.607 150.11 148.684C142.761 143.365 138.813 135.907 138.813 135.907Z" fill="#467BCD"/>
<path d="M197.49 162.558V169.687" stroke="#467BCD" stroke-width="2.6815" stroke-miterlimit="10"/>
<path d="M197.49 147.477V155.319" stroke="#467BCD" stroke-width="2.6815" stroke-miterlimit="10"/>
<path d="M197.49 132.616V140.239" stroke="#467BCD" stroke-width="2.6815" stroke-miterlimit="10"/>
<path d="M197.49 117.426V124.884" stroke="#467BCD" stroke-width="2.6815" stroke-miterlimit="10"/>
<path d="M197.49 101.961V109.584" stroke="#467BCD" stroke-width="2.6815" stroke-miterlimit="10"/>
<path d="M197.49 87.4834V94.3382" stroke="#467BCD" stroke-width="2.6815" stroke-miterlimit="10"/>
<path d="M190.635 91.7061L194.255 86.3867" stroke="#467BCD" stroke-width="2.6815" stroke-miterlimit="10"/>
<path d="M183.068 102.784L187.235 96.6416" stroke="#467BCD" stroke-width="2.6815" stroke-miterlimit="10"/>
<path d="M175.39 114.135L179.394 108.213" stroke="#467BCD" stroke-width="2.6815" stroke-miterlimit="10"/>
<path d="M167.658 125.487L171.552 119.729" stroke="#467BCD" stroke-width="2.6815" stroke-miterlimit="10"/>
<path d="M107.281 119.729L99.9321 122.855" stroke="#467BCD" stroke-width="2.6815" stroke-miterlimit="10"/>
<path d="M124.774 112.38L116.439 115.89" stroke="#467BCD" stroke-width="2.6815" stroke-miterlimit="10"/>
<path d="M141.171 105.471L133.603 108.652" stroke="#467BCD" stroke-width="2.6815" stroke-miterlimit="10"/>
<path d="M157.622 98.5063L150 101.742" stroke="#467BCD" stroke-width="2.6815" stroke-miterlimit="10"/>
<path d="M174.897 91.2676L166.561 94.7773" stroke="#467BCD" stroke-width="2.6815" stroke-miterlimit="10"/>
<path d="M191.567 84.1934L184.055 87.374" stroke="#467BCD" stroke-width="2.6815" stroke-miterlimit="10"/>
<path d="M203.523 66.0417C201.055 69.5514 200.946 69.7159 200.891 69.7707L204.017 71.9643L207.142 74.1578C207.142 74.1578 207.252 73.9933 209.775 70.4288C210.158 69.8255 210.487 69.2772 210.707 68.6739L204.894 64.561C204.4 64.9449 203.962 65.4385 203.523 66.0417Z" fill="#467BCD"/>
<path d="M211.146 67.0839C211.694 64.3968 210.871 62.1484 210.871 62.1484C210.871 62.1484 208.513 62.1484 206.155 63.5742L211.146 67.0839Z" fill="#467BCD"/>
<path d="M204.51 77.7773C206.978 74.2676 207.088 74.1031 207.142 74.0482L204.017 71.8547L200.891 69.6611C200.891 69.6611 200.781 69.8256 198.258 73.3902C197.875 73.9934 197.546 74.5418 197.326 75.145L203.139 79.2579C203.688 78.874 204.126 78.3805 204.51 77.7773Z" fill="#467BCD"/>
<path d="M196.887 76.7354C196.339 79.4225 197.162 81.6708 197.162 81.6708C197.162 81.6708 199.52 81.6708 201.878 80.245L196.887 76.7354Z" fill="#467BCD"/>
<path d="M201.713 68.565L197.436 65.5488L195.078 68.894L199.355 71.9101" stroke="#467BCD" stroke-width="1.58103" stroke-miterlimit="10"/>
<path d="M199.136 64.2323L179.284 50.3032L174.568 56.9387L194.419 70.9226" stroke="#467BCD" stroke-width="3.39956" stroke-miterlimit="10"/>
<path d="M207.965 72.9517L212.242 75.9678L209.884 79.313L205.607 76.2968" stroke="#467BCD" stroke-width="1.58103" stroke-miterlimit="10"/>
<path d="M212.9 73.939L232.752 87.9228L228.036 94.5583L208.184 80.6293" stroke="#467BCD" stroke-width="3.39956" stroke-miterlimit="10"/>
</g>
<g filter="url(#filter0_d_4188_25734)">
<path d="M616.853 644.385C596.835 651.809 562.197 652.339 547.052 652.339V176.64C584.586 176.64 658.998 178.382 693.24 192.303C698.648 194.501 703.118 197.606 705.752 212.852C708.386 228.098 708.386 345.924 701.142 365.976C695.874 380.56 672.826 387.189 655.047 403.097C640.413 416.191 632.584 429.613 635.291 478.665C636.608 502.529 645.827 591.355 647.144 604.612C648.462 617.87 641.876 635.104 616.853 644.385Z" fill="#1E2E47"/>
<path d="M476.282 644.385C496.472 651.809 531.776 652.339 547.052 652.339V176.64C509.195 176.64 433.777 178.382 399.242 192.303C394.584 194.18 389.279 197.606 386.623 212.852C383.966 228.098 383.966 345.924 391.272 365.976C396.585 380.56 419.83 387.189 437.762 403.097C452.521 416.191 460.417 429.613 457.686 478.665C456.358 502.529 447.06 591.355 445.732 604.612C444.403 617.87 451.045 635.105 476.282 644.385Z" fill="#1E2E47"/>
<rect x="439" y="227" width="214" height="136" rx="6.96996" fill="#467BCD"/>
<path d="M488 420.97C488 417.121 491.121 414 494.97 414H598.03C601.879 414 605 417.121 605 420.97V566H488V420.97Z" fill="#2F466A"/>
<path d="M498.485 422.871H594.515C595.959 422.871 597.129 424.041 597.129 425.485V567.129H495.871V425.485C495.871 424.041 497.041 422.871 498.485 422.871Z" fill="#2F466A" stroke="#1E2E47" stroke-width="1.74249"/>
<rect x="453" y="241" width="52" height="18" rx="9" fill="#6398EB"/>
<rect x="512" y="241" width="18" height="18" rx="9" fill="#6398EB"/>
<rect x="597" y="241" width="18" height="18" rx="9" fill="#6398EB"/>
<rect x="621.979" y="241.112" width="18" height="18" rx="9" fill="#6398EB"/>
<rect x="453" y="266" width="186" height="82" rx="6.96996" fill="#AEE83A"/>
<rect x="469" y="313.934" width="43" height="5.99872" rx="2.99936" fill="#D8FF8A"/>
<rect x="469" y="325.931" width="61" height="5.99875" rx="2.99937" fill="#D8FF8A"/>
<rect x="469" y="281" width="54" height="18" rx="9" fill="#C8FF5B"/>
<path d="M571.882 307.327C571.882 306.124 570.907 305.149 569.704 305.149C568.501 305.149 567.526 306.124 567.526 307.327L571.882 307.327ZM568.164 333.263C569.014 334.113 570.393 334.113 571.244 333.263L585.105 319.401C585.956 318.551 585.956 317.171 585.105 316.321C584.255 315.47 582.876 315.47 582.025 316.321L569.704 328.642L557.383 316.321C556.532 315.47 555.153 315.47 554.302 316.321C553.452 317.171 553.452 318.551 554.302 319.401L568.164 333.263ZM567.526 307.327L567.526 331.722L571.882 331.722L571.882 307.327L567.526 307.327Z" fill="#8CBE28"/>
<path d="M607.603 331.721C607.603 332.924 608.578 333.899 609.781 333.899C610.984 333.899 611.959 332.924 611.959 331.721L607.603 331.721ZM611.321 305.785C610.471 304.935 609.092 304.935 608.241 305.785L594.38 319.647C593.529 320.497 593.529 321.876 594.38 322.727C595.23 323.578 596.609 323.578 597.46 322.727L609.781 310.406L622.102 322.727C622.953 323.578 624.332 323.578 625.183 322.727C626.033 321.876 626.033 320.497 625.183 319.647L611.321 305.785ZM611.959 331.721L611.959 307.325L607.603 307.325L607.603 331.721L611.959 331.721Z" fill="#8CBE28"/>
<rect x="509" y="433" width="35" height="17" rx="3.48498" fill="#9DBAE7"/>
<rect x="549" y="433" width="35" height="17" rx="3.48498" fill="#9DBAE7"/>
<path d="M576.674 498.129C576.674 514.97 563.021 528.623 546.18 528.623C529.339 528.623 515.687 514.97 515.687 498.129C515.687 481.288 529.339 467.636 546.18 467.636C563.021 467.636 576.674 481.288 576.674 498.129ZM527.431 498.129C527.431 508.484 535.825 516.879 546.18 516.879C556.535 516.879 564.93 508.484 564.93 498.129C564.93 487.774 556.535 479.38 546.18 479.38C535.825 479.38 527.431 487.774 527.431 498.129Z" fill="#9DBAE7"/>
<rect x="545.309" y="464.15" width="1.74249" height="67.9571" fill="#2F466A"/>
<rect x="512.202" y="499" width="1.74249" height="67.9571" transform="rotate(-90 512.202 499)" fill="#2F466A"/>
<circle cx="546.181" cy="498.129" r="11.3266" fill="#1E2E47"/>
</g>
<circle opacity="0.4" cx="694.292" cy="189.708" r="96.7082" fill="#00AC6E"/>
<circle opacity="0.6" cx="694.292" cy="189.708" r="75.2175" fill="#00AC6E"/>
<circle cx="694.292" cy="189.708" r="44.5165" fill="#2BE76B"/>
<path d="M671.266 189.5L686.612 203.524L718.853 172.823" stroke="white" stroke-width="10.4549"/>
</g>
<defs>
<filter id="filter0_d_4188_25734" x="350.15" y="159.215" width="392.06" height="545.399" filterUnits="userSpaceOnUse" color-interpolation-filters="sRGB">
<feFlood flood-opacity="0" result="BackgroundImageFix"/>
<feColorMatrix in="SourceAlpha" type="matrix" values="0 0 0 0 0 0 0 0 0 0 0 0 0 0 0 0 0 0 127 0" result="hardAlpha"/>
<feOffset dy="17.4249"/>
<feGaussianBlur stdDeviation="17.4249"/>
<feComposite in2="hardAlpha" operator="out"/>
<feColorMatrix type="matrix" values="0 0 0 0 0.117647 0 0 0 0 0.180392 0 0 0 0 0.278431 0 0 0 0.4 0"/>
<feBlend mode="normal" in2="BackgroundImageFix" result="effect1_dropShadow_4188_25734"/>
<feBlend mode="normal" in="SourceGraphic" in2="effect1_dropShadow_4188_25734" result="shape"/>
</filter>
<clipPath id="clip0_4188_25734">
<rect width="760" height="560" rx="8" fill="white"/>
</clipPath>
<clipPath id="clip1_4188_25734">
<rect width="675.054" height="928.059" fill="white" transform="translate(206 1)"/>
</clipPath>
<clipPath id="clip2_4188_25734">
<rect width="187" height="155.833" fill="white" transform="translate(48 48)"/>
</clipPath>
</defs>
</svg>
