<svg width="588" height="588" viewBox="0 0 588 588" fill="none" xmlns="http://www.w3.org/2000/svg">
<g clip-path="url(#clip0_30215_26824)">
<g clip-path="url(#clip1_30215_26824)">
<line x1="491.295" y1="380.374" x2="626.417" y2="181.142" stroke="#D1DCED" stroke-width="2.95889" stroke-dasharray="5.92 5.92"/>
<path d="M383.788 380.374L529.971 164.446" stroke="#D1DCED" stroke-width="2.95889" stroke-dasharray="5.92 5.92"/>
<line x1="322.32" y1="407.307" x2="197.567" y2="161.412" stroke="#D1DCED" stroke-width="2.95889" stroke-dasharray="5.92 5.92"/>
<circle cx="420" cy="617.396" r="170.136" stroke="#D1DCED" stroke-width="2.95889"/>
<circle cx="420.026" cy="617.423" r="234.739" fill="#F0F6FF" stroke="#D1DCED" stroke-width="2.95889"/>
<path d="M420 426.055L420 808.738" stroke="#D1DCED" stroke-width="2.95889"/>
<path d="M284.701 482.097L555.299 752.695" stroke="#D1DCED" stroke-width="2.95889"/>
<path d="M284.701 752.695L555.299 482.097" stroke="#D1DCED" stroke-width="2.95889"/>
<path d="M346.777 440.62L493.223 794.173" stroke="#D1DCED" stroke-width="2.95889"/>
<path d="M243.223 544.173L596.777 690.62" stroke="#D1DCED" stroke-width="2.95889"/>
<path d="M243.223 690.62L596.777 544.173" stroke="#D1DCED" stroke-width="2.95889"/>
<path d="M346.777 794.173L493.223 440.62" stroke="#D1DCED" stroke-width="2.95889"/>
<path d="M384.595 439.405L455.404 795.388" stroke="#D1DCED" stroke-width="0.986297"/>
<path d="M269.105 516.572L570.894 718.221" stroke="#D1DCED" stroke-width="0.986297"/>
<path d="M242.008 652.801L597.992 581.992" stroke="#D1DCED" stroke-width="0.986297"/>
<path d="M319.176 768.29L520.824 466.502" stroke="#D1DCED" stroke-width="0.986297"/>
<path d="M455.405 439.405L384.595 795.388" stroke="#D1DCED" stroke-width="0.986297"/>
<path d="M319.176 466.502L520.824 768.29" stroke="#D1DCED" stroke-width="0.986297"/>
<path d="M242.008 581.992L597.992 652.801" stroke="#D1DCED" stroke-width="0.986297"/>
<path d="M269.106 718.22L570.894 516.572" stroke="#D1DCED" stroke-width="0.986297"/>
<path d="M401.755 436.837L438.244 797.956" stroke="#D1DCED" stroke-width="0.986297"/>
<path d="M279.424 502.623L560.576 732.17" stroke="#D1DCED" stroke-width="0.986297"/>
<path d="M305.226 757.972L534.774 476.821" stroke="#D1DCED" stroke-width="0.986297"/>
<path d="M437.358 436.75L402.641 798.043" stroke="#D1DCED" stroke-width="0.986297"/>
<path d="M304.538 477.385L535.461 757.407" stroke="#D1DCED" stroke-width="0.986297"/>
<path d="M279.989 732.858L560.011 501.934" stroke="#D1DCED" stroke-width="0.986297"/>
<path d="M472.241 443.6L367.759 791.193" stroke="#D1DCED" stroke-width="0.986297"/>
<path d="M334.047 457.563L505.953 777.229" stroke="#D1DCED" stroke-width="0.986297"/>
<path d="M246.203 565.155L593.797 669.638" stroke="#D1DCED" stroke-width="0.986297"/>
<path d="M260.167 703.349L579.833 531.443" stroke="#D1DCED" stroke-width="0.986297"/>
<path d="M505.168 457.144L334.832 777.649" stroke="#D1DCED" stroke-width="0.986297"/>
<path d="M366.907 443.858L473.093 790.935" stroke="#D1DCED" stroke-width="0.986297"/>
<path d="M259.747 532.228L580.253 702.564" stroke="#D1DCED" stroke-width="0.986297"/>
<path d="M246.461 670.489L593.538 564.303" stroke="#D1DCED" stroke-width="0.986297"/>
<circle cx="420" cy="617.396" r="163.232" fill="#F0F6FF" stroke="#D1DCED" stroke-width="2.95889"/>
<circle cx="420.026" cy="617.423" r="98.1366" fill="white" stroke="#D1DCED" stroke-width="5.91778"/>
<line x1="430.722" y1="382.947" x2="430.722" y2="164.446" stroke="#D1DCED" stroke-width="2.95889" stroke-dasharray="5.92 5.92"/>
<path d="M359.853 248.304V227.094H362.977V248.304H359.853ZM350.81 239.261V236.137H372.02V239.261H350.81Z" fill="#D1DCED"/>
<path d="M231.47 328.266V312.359H233.813V328.266H231.47ZM224.688 321.485V319.141H240.595V321.485H224.688Z" fill="#D1DCED"/>
<path d="M531.155 230.535V227.41H545.027V230.535H531.155Z" fill="#D1DCED"/>
<path d="M311.617 276.424V274.081H322.021V276.424H311.617Z" fill="#D1DCED"/>
</g>
<g filter="url(#filter0_d_30215_26824)">
<path d="M474.312 656.543C459.484 662.042 433.829 662.435 422.611 662.435V310.093C450.412 310.093 505.527 311.384 530.89 321.694C534.896 323.323 538.206 325.622 540.157 336.915C542.108 348.208 542.108 435.479 536.743 450.331C532.841 461.133 515.77 466.043 502.601 477.826C491.762 487.525 485.963 497.466 487.969 533.798C488.944 551.473 495.772 617.265 496.748 627.085C497.723 636.904 492.846 649.67 474.312 656.543Z" fill="#1E2E47"/>
<path d="M370.193 656.543C385.148 662.042 411.297 662.435 422.611 662.435V310.093C394.571 310.093 338.711 311.384 313.131 321.694C309.681 323.085 305.752 325.622 303.784 336.915C301.816 348.208 301.816 435.479 307.228 450.331C311.163 461.133 328.38 466.043 341.662 477.826C352.594 487.525 358.442 497.466 356.42 533.798C355.436 551.473 348.549 617.265 347.565 627.085C346.581 636.904 351.5 649.67 370.193 656.543Z" fill="#1E2E47"/>
<rect x="342.579" y="347.394" width="158.506" height="100.733" rx="5.16252" fill="#467BCD"/>
<path d="M378.872 491.064C378.872 488.213 381.183 485.902 384.035 485.902H460.369C463.221 485.902 465.532 488.213 465.532 491.064V598.485H378.872V491.064Z" fill="#2F466A"/>
<path d="M386.638 492.472H457.766C458.835 492.472 459.702 493.339 459.702 494.408V599.321H384.702V494.408C384.702 493.339 385.569 492.472 386.638 492.472Z" fill="#2F466A" stroke="#1E2E47" stroke-width="1.29063"/>
<rect x="352.948" y="357.764" width="38.5155" height="13.3323" rx="6.66614" fill="#6398EB"/>
<rect x="396.648" y="357.764" width="13.3323" height="13.3323" rx="6.66614" fill="#6398EB"/>
<rect x="459.606" y="357.764" width="13.3323" height="13.3323" rx="6.66614" fill="#6398EB"/>
<rect x="478.107" y="357.846" width="13.3323" height="13.3323" rx="6.66614" fill="#6398EB"/>
<rect x="352.948" y="376.281" width="137.767" height="60.7359" rx="5.16252" fill="#AEE83A"/>
<rect x="414.924" y="411.784" width="37.4548" height="4.44314" rx="2.22157" fill="#D8FF8A"/>
<rect x="414.924" y="420.671" width="53.1336" height="4.44316" rx="2.22158" fill="#D8FF8A"/>
<rect x="364.799" y="387.391" width="39.9968" height="13.3323" rx="6.66614" fill="#C8FF5B"/>
<path d="M441.002 406.89C441.002 405.999 440.28 405.277 439.389 405.277C438.498 405.277 437.775 405.999 437.775 406.89L441.002 406.89ZM438.248 426.101C438.878 426.731 439.899 426.731 440.529 426.101L450.796 415.834C451.426 415.204 451.426 414.182 450.796 413.552C450.166 412.922 449.145 412.922 448.515 413.552L439.389 422.678L430.263 413.552C429.633 412.922 428.611 412.922 427.981 413.552C427.351 414.182 427.351 415.204 427.981 415.834L438.248 426.101ZM437.775 406.89L437.775 424.96L441.002 424.96L441.002 406.89L437.775 406.89Z" fill="#8CBE28"/>
<path d="M467.46 424.959C467.46 425.85 468.182 426.572 469.073 426.572C469.964 426.572 470.687 425.85 470.687 424.959L467.46 424.959ZM470.214 405.749C469.584 405.119 468.563 405.119 467.932 405.749L457.666 416.016C457.036 416.646 457.036 417.667 457.666 418.297C458.296 418.927 459.317 418.927 459.947 418.297L469.073 409.171L478.199 418.297C478.829 418.927 479.851 418.927 480.481 418.297C481.111 417.667 481.111 416.646 480.481 416.016L470.214 405.749ZM470.687 424.959L470.687 406.89L467.46 406.89L467.46 424.959L470.687 424.959Z" fill="#8CBE28"/>
<rect x="394.426" y="499.975" width="25.9239" height="12.5916" rx="2.58126" fill="#9DBAE7"/>
<rect x="424.054" y="499.975" width="25.9239" height="12.5916" rx="2.58126" fill="#9DBAE7"/>
<path d="M444.551 548.215C444.551 560.688 434.439 570.801 421.965 570.801C409.491 570.801 399.379 560.688 399.379 548.215C399.379 535.741 409.491 525.629 421.965 525.629C434.439 525.629 444.551 535.741 444.551 548.215ZM408.078 548.215C408.078 555.884 414.295 562.102 421.965 562.102C429.635 562.102 435.852 555.884 435.852 548.215C435.852 540.545 429.635 534.327 421.965 534.327C414.295 534.327 408.078 540.545 408.078 548.215Z" fill="#9DBAE7"/>
<rect x="421.32" y="523.047" width="1.29063" height="50.3346" fill="#2F466A"/>
<rect x="396.798" y="548.86" width="1.29063" height="50.3346" transform="rotate(-90 396.798 548.86)" fill="#2F466A"/>
<circle cx="421.966" cy="548.215" r="8.38942" fill="#1E2E47"/>
</g>
<circle opacity="0.4" cx="531.669" cy="319.773" r="71.63" fill="#00AC6E"/>
<circle opacity="0.6" cx="531.669" cy="319.773" r="55.7122" fill="#00AC6E"/>
<circle cx="531.669" cy="319.773" r="32.9725" fill="#2BE76B"/>
<path d="M514.614 319.618L525.981 330.006L549.861 307.266" stroke="white" stroke-width="7.74378"/>
</g>
<defs>
<filter id="filter0_d_30215_26824" x="276.769" y="297.187" width="290.392" height="403.967" filterUnits="userSpaceOnUse" color-interpolation-filters="sRGB">
<feFlood flood-opacity="0" result="BackgroundImageFix"/>
<feColorMatrix in="SourceAlpha" type="matrix" values="0 0 0 0 0 0 0 0 0 0 0 0 0 0 0 0 0 0 127 0" result="hardAlpha"/>
<feOffset dy="12.9063"/>
<feGaussianBlur stdDeviation="12.9063"/>
<feComposite in2="hardAlpha" operator="out"/>
<feColorMatrix type="matrix" values="0 0 0 0 0.117647 0 0 0 0 0.180392 0 0 0 0 0.278431 0 0 0 0.4 0"/>
<feBlend mode="normal" in2="BackgroundImageFix" result="effect1_dropShadow_30215_26824"/>
<feBlend mode="normal" in="SourceGraphic" in2="effect1_dropShadow_30215_26824" result="shape"/>
</filter>
<clipPath id="clip0_30215_26824">
<rect width="588" height="588" fill="white"/>
</clipPath>
<clipPath id="clip1_30215_26824">
<rect width="500" height="687.396" fill="white" transform="translate(170 180)"/>
</clipPath>
</defs>
</svg>
