<svg width="760" height="560" viewBox="0 0 760 560" fill="none" xmlns="http://www.w3.org/2000/svg">
<g clip-path="url(#clip0_4188_25861)">
<rect width="760" height="560" rx="8" fill="#262B35"/>
<path d="M85.8669 32L32 64.472L75.5647 89.3036L106.485 68.7681V42.9849L85.8669 32Z" fill="#E3E7EC"/>
<path d="M32 124.155L75.5647 98.3718V89.3037L32 64.4722V124.155Z" fill="#C3C7CC"/>
<path d="M32 124.155L75.5647 155.668V98.3716L32 124.155Z" fill="#E3E7EC"/>
<path d="M90.0819 155.668L139.271 127.023L90.0819 98.3716V155.668Z" fill="#2465FF"/>
<path d="M139.271 68.2925L90.0885 98.3718L139.271 127.024V68.2925Z" fill="#56B4FF"/>
<path d="M120.532 58.2661L139.271 68.2926L120.532 79.7533V58.2661Z" fill="#2465FF"/>
<path d="M195.976 50.9135H189.677V67.3071H187.11V50.9135H180.837V48.5879H195.976V50.9135Z" fill="white"/>
<path d="M212.763 64.9814V67.3071H199.437V48.5879H212.399V50.9135H202.057V56.664H211.268V58.9361H202.057V64.9814H212.763Z" fill="white"/>
<path d="M232.15 48.5879V67.3071H229.576V50.9135H221.444L221.259 56.3959C221.173 58.983 220.968 61.0741 220.644 62.6826C220.319 64.2844 219.81 65.4975 219.108 66.3084C218.407 67.1194 217.467 67.5282 216.276 67.5282C215.734 67.5282 215.185 67.4545 214.622 67.3138L214.808 64.9345C215.085 65.0082 215.37 65.0417 215.648 65.0417C216.402 65.0417 217.004 64.7334 217.461 64.1168C217.917 63.5002 218.255 62.582 218.486 61.3488C218.711 60.1156 218.864 58.5004 218.93 56.4831L219.221 48.5946H232.15V48.5879Z" fill="white"/>
<path d="M251.458 64.9814V67.3071H238.132V48.5879H251.094V50.9135H240.759V56.664H249.962V58.9361H240.759V64.9814H251.458Z" fill="white"/>
<path d="M272.863 67.3071L272.837 53.6681L266.2 65.035H264.996L258.359 53.7486V67.3071H255.838V48.5879H257.989L265.651 61.7443L273.207 48.5879H275.358L275.384 67.3071H272.863Z" fill="white"/>
<path d="M294.692 64.9814V67.3071H281.366V48.5879H294.321V50.9135H283.986V56.664H293.196V58.9361H283.986V64.9814H294.692Z" fill="white"/>
<path d="M316.567 64.9814V71.4021H314.132V67.3138H299.019L298.993 71.4021H296.551L296.577 64.9814H297.471C298.622 64.9077 299.436 63.9761 299.912 62.1866C300.382 60.3971 300.673 57.8704 300.779 54.6064L300.958 48.5879H313.867V64.9814H316.567ZM302.466 61.3957C302.142 63.1249 301.626 64.3179 300.905 64.9814H311.267V50.9135H303.214L303.082 54.841C302.996 57.4817 302.791 59.6666 302.466 61.3957Z" fill="white"/>
<path d="M320.424 48.5879H323.025V63.0244L333.883 48.5879H336.298V67.3071H333.724V52.8907L322.839 67.3071H320.424V48.5879Z" fill="white"/>
<path d="M360.535 64.9814V71.5562H358.093V67.3071H342.279V48.5879H344.873V64.9814H355.109V48.5879H357.703V64.9814H360.535Z" fill="white"/>
<path d="M364.286 48.5879H366.88V63.0244L377.745 48.5879H380.16V67.3071H377.586V52.8907L366.702 67.3071H364.286V48.5879Z" fill="white"/>
<path d="M401.929 48.5879V67.3071H399.309V58.9629H388.762V67.3071H386.135V48.5879H388.762V56.6372H399.309V48.5879H401.929Z" fill="white"/>
<path d="M411.153 66.2755C409.678 65.4445 408.52 64.3051 407.679 62.8507C406.839 61.3964 406.422 59.761 406.422 57.9447C406.422 56.1284 406.839 54.4864 407.679 53.0387C408.52 51.5844 409.684 50.445 411.173 49.6139C412.662 48.7896 414.316 48.374 416.155 48.374C417.591 48.374 418.901 48.622 420.092 49.1113C421.283 49.6005 422.296 50.3244 423.136 51.2895L421.429 52.9717C420.053 51.4905 418.326 50.7533 416.261 50.7533C414.898 50.7533 413.667 51.0683 412.562 51.6916C411.457 52.3149 410.597 53.1795 409.975 54.2719C409.353 55.3711 409.042 56.5976 409.042 57.9514C409.042 59.3053 409.353 60.5318 409.975 61.6242C410.597 62.7234 411.457 63.5813 412.562 64.2046C413.667 64.8279 414.898 65.1429 416.261 65.1429C418.306 65.1429 420.033 64.3989 421.429 62.8976L423.136 64.5799C422.296 65.545 421.277 66.2755 420.079 66.7715C418.881 67.2675 417.565 67.5154 416.129 67.5154C414.289 67.5221 412.629 67.1066 411.153 66.2755Z" fill="white"/>
<path d="M433.412 59.0701H429.581V67.3071H427.007V48.5879H429.581V56.7176H433.465L439.235 48.5879H442.04L435.483 57.6559L442.351 67.3071H439.367L433.412 59.0701Z" fill="white"/>
<path d="M445.322 48.5879H447.916V63.0244L458.78 48.5879H461.189V67.3071H458.621V52.8907L447.737 67.3071H445.322V48.5879Z" fill="white"/>
<path d="M480.503 64.9814V67.3071H467.171V48.5879H480.133V50.9135H469.797V56.664H479.001V58.9361H469.797V64.9814H480.503Z" fill="white"/>
<path d="M183.358 82.9707H185.952V97.4072L196.817 82.9707H199.225V101.683H196.658V87.2735L185.773 101.683H183.358V82.9707Z" fill="white"/>
<path d="M221.001 82.9707V101.683H218.381V93.3457H207.834V101.683H205.207V82.9707H207.834V91.0133H218.381V82.9707H221.001Z" fill="white"/>
<path d="M244.689 98.1308C242.988 99.5382 240.6 100.296 237.503 100.403V102.38H235.061V100.403C231.965 100.275 229.563 99.5114 227.862 98.104C226.155 96.6965 225.302 94.7596 225.302 92.2999C225.302 89.8201 226.155 87.8765 227.862 86.469C229.563 85.0615 231.965 84.2908 235.061 84.1702V82.2734H237.503V84.1702C240.58 84.2975 242.975 85.0615 244.676 86.4824C246.376 87.8966 247.23 89.8402 247.23 92.2999C247.236 94.7797 246.389 96.7233 244.689 98.1308ZM229.722 96.5625C230.972 97.5879 232.752 98.171 235.061 98.3117V86.2813C232.719 86.4221 230.933 87.0052 229.702 88.0172C228.465 89.0359 227.849 90.4568 227.849 92.2932C227.849 94.1162 228.471 95.537 229.722 96.5625ZM242.869 96.5625C244.1 95.537 244.715 94.1095 244.715 92.2731C244.715 90.4769 244.087 89.056 242.843 88.0373C241.592 87.0119 239.812 86.4288 237.503 86.288V98.3184C239.845 98.1777 241.632 97.5879 242.869 96.5625Z" fill="white"/>
<path d="M254.793 100.657C253.304 99.8262 252.139 98.6868 251.292 97.219C250.439 95.758 250.015 94.1293 250.015 92.3264C250.015 90.5236 250.439 88.8949 251.292 87.4338C252.139 85.9728 253.304 84.8267 254.793 83.9956C256.281 83.1713 257.949 82.749 259.802 82.749C261.634 82.749 263.295 83.1646 264.784 83.9956C266.273 84.8267 267.431 85.9661 268.271 87.4204C269.111 88.8748 269.528 90.5101 269.528 92.3264C269.528 94.1427 269.105 95.7781 268.271 97.2324C267.431 98.6868 266.273 99.8262 264.784 100.657C263.295 101.488 261.634 101.904 259.802 101.904C257.942 101.897 256.275 101.488 254.793 100.657ZM263.434 98.5796C264.513 97.9563 265.36 97.0984 265.982 95.9992C266.597 94.9001 266.908 93.6803 266.908 92.3264C266.908 90.9726 266.597 89.7461 265.982 88.6469C265.36 87.5545 264.513 86.6899 263.434 86.0666C262.356 85.4433 261.151 85.1283 259.802 85.1283C258.452 85.1283 257.234 85.4433 256.142 86.0666C255.051 86.6899 254.19 87.5545 253.569 88.6469C252.953 89.7461 252.642 90.9726 252.642 92.3264C252.642 93.6803 252.953 94.9068 253.569 95.9992C254.19 97.0984 255.044 97.9563 256.142 98.5796C257.234 99.2029 258.458 99.5179 259.802 99.5179C261.145 99.5179 262.356 99.2096 263.434 98.5796Z" fill="white"/>
<path d="M286.824 84.7069C288.187 85.8664 288.869 87.4615 288.869 89.4923C288.869 91.523 288.181 93.1182 286.824 94.2776C285.461 95.4371 283.589 96.0135 281.213 96.0135H276.674V101.684H274.054V82.9644H281.22C283.582 82.9711 285.455 83.5474 286.824 84.7069ZM284.932 92.6088C285.805 91.8849 286.242 90.8461 286.242 89.4923C286.242 88.1384 285.805 87.0996 284.932 86.3758C284.058 85.6519 282.788 85.29 281.127 85.29H276.667V93.6878H281.127C282.788 93.6878 284.058 93.3259 284.932 92.6088Z" fill="white"/>
<path d="M309.798 101.684L309.778 88.0446L303.135 99.4115H301.93L295.294 88.125V101.684H292.773V82.9644H294.93L302.585 96.1207L310.142 82.9644H312.292L312.319 101.684H309.798Z" fill="white"/>
<path d="M330.237 97.0051H320.477L318.459 101.683H315.759L324.077 82.9707H326.677L335.014 101.683H332.262L330.237 97.0051ZM329.317 94.8671L325.354 85.6918L321.39 94.8671H329.317Z" fill="white"/>
<path d="M356.704 99.3575V105.939H354.262V101.683H338.448V82.9707H341.042V99.3575H351.278V82.9707H353.872V99.3575H356.704Z" fill="white"/>
<path d="M360.456 82.9707H363.056V97.4072L373.914 82.9707H376.329V101.683H373.755V87.2735L362.871 101.683H360.456V82.9707Z" fill="white"/>
<path d="M385.559 100.657C384.071 99.8262 382.906 98.6868 382.059 97.219C381.206 95.758 380.782 94.1293 380.782 92.3264C380.782 90.5236 381.206 88.8949 382.059 87.4338C382.906 85.9728 384.077 84.8267 385.559 83.9956C387.048 83.1713 388.716 82.749 390.568 82.749C392.408 82.749 394.069 83.1646 395.551 83.9956C397.04 84.8267 398.197 85.9661 399.038 87.4204C399.878 88.8748 400.295 90.5101 400.295 92.3264C400.295 94.1427 399.878 95.7781 399.038 97.2324C398.197 98.6868 397.04 99.8262 395.551 100.657C394.062 101.488 392.401 101.904 390.568 101.904C388.716 101.897 387.048 101.488 385.559 100.657ZM394.208 98.5796C395.286 97.9563 396.126 97.0984 396.748 95.9992C397.37 94.9001 397.681 93.6803 397.681 92.3264C397.681 90.9726 397.37 89.7461 396.748 88.6469C396.126 87.5545 395.279 86.6899 394.208 86.0666C393.129 85.4433 391.918 85.1283 390.575 85.1283C389.225 85.1283 388.008 85.4433 386.916 86.0666C385.824 86.6899 384.964 87.5545 384.342 88.6469C383.72 89.7461 383.409 90.9726 383.409 92.3264C383.409 93.6803 383.72 94.9068 384.342 95.9992C384.964 97.0984 385.817 97.9563 386.916 98.5796C388.008 99.2029 389.232 99.5179 390.575 99.5179C391.918 99.5179 393.129 99.2096 394.208 98.5796Z" fill="white"/>
<path d="M420.609 82.9707V101.683H417.988V93.3457H407.441V101.683H404.814V82.9707H407.441V91.0133H417.988V82.9707H420.609Z" fill="white"/>
<path d="M442.384 82.9707V101.683H439.764V93.3457H429.21V101.683H426.59V82.9707H429.21V91.0133H439.764V82.9707H442.384Z" fill="white"/>
<path d="M461.44 90.9857C462.605 91.9844 463.187 93.4521 463.187 95.3958C463.187 97.4466 462.559 99.0082 461.315 100.074C460.064 101.146 458.278 101.676 455.948 101.676H448.366V82.9565H450.966V89.4778H456.425C458.602 89.4912 460.282 89.9938 461.44 90.9857ZM459.343 98.5123C460.157 97.8085 460.56 96.7898 460.56 95.4494C460.56 92.8825 458.986 91.6023 455.836 91.6023H450.959V99.5712H455.836C457.364 99.5712 458.529 99.2227 459.343 98.5123ZM466.099 82.9699H468.692V101.689H466.099V82.9699Z" fill="white"/>
<path d="M488 99.3575V101.683H474.674V82.9707H487.636V85.2964H477.301V91.0401H486.505V93.3189H477.301V99.3575H488Z" fill="white"/>
<path d="M186.594 135.033C185.118 134.202 183.96 133.062 183.12 131.608C182.28 130.154 181.863 128.518 181.863 126.702C181.863 124.886 182.28 123.244 183.12 121.796C183.96 120.342 185.118 119.202 186.607 118.371C188.096 117.547 189.757 117.125 191.589 117.125C193.025 117.125 194.335 117.372 195.526 117.862C196.717 118.351 197.73 119.075 198.57 120.04L196.863 121.722C195.48 120.241 193.76 119.504 191.695 119.504C190.332 119.504 189.095 119.819 187.997 120.442C186.892 121.065 186.031 121.93 185.409 123.022C184.787 124.122 184.476 125.348 184.476 126.702C184.476 128.056 184.787 129.282 185.409 130.375C186.031 131.474 186.892 132.332 187.997 132.955C189.095 133.578 190.332 133.893 191.695 133.893C193.74 133.893 195.46 133.149 196.863 131.648L198.57 133.33C197.73 134.296 196.711 135.026 195.513 135.522C194.309 136.018 192.999 136.266 191.563 136.266C189.73 136.279 188.076 135.864 186.594 135.033Z" fill="white"/>
<path d="M202.454 117.346H205.048V131.783L215.913 117.346H218.328V136.065H215.754V121.649L204.869 136.065H202.454V117.346Z" fill="white"/>
<path d="M227.545 135.033C226.069 134.202 224.911 133.062 224.071 131.608C223.231 130.154 222.814 128.518 222.814 126.702C222.814 124.886 223.231 123.244 224.071 121.796C224.911 120.342 226.069 119.202 227.558 118.371C229.047 117.547 230.708 117.125 232.541 117.125C233.976 117.125 235.287 117.372 236.478 117.862C237.669 118.351 238.681 119.075 239.521 120.04L237.814 121.722C236.431 120.241 234.711 119.504 232.646 119.504C231.283 119.504 230.046 119.819 228.948 120.442C227.849 121.065 226.982 121.93 226.36 123.022C225.739 124.122 225.434 125.348 225.434 126.702C225.434 128.056 225.745 129.282 226.36 130.375C226.982 131.474 227.843 132.332 228.948 132.955C230.053 133.578 231.283 133.893 232.646 133.893C234.691 133.893 236.411 133.149 237.814 131.648L239.521 133.33C238.681 134.296 237.662 135.026 236.464 135.522C235.267 136.018 233.95 136.266 232.514 136.266C230.681 136.279 229.027 135.864 227.545 135.033Z" fill="white"/>
<path d="M255.812 119.672H249.519V136.065H246.945V119.672H240.672V117.346H255.812V119.672Z" fill="white"/>
<path d="M272.605 133.74V136.065H259.272V117.346H272.234V119.672H261.899V125.422H271.103V127.694H261.899V133.74H272.605Z" fill="white"/>
<path d="M294.01 136.065L293.984 122.426L287.347 133.793H286.136L279.5 122.507V136.065H276.979V117.346H279.136L286.791 130.503L294.348 117.346H296.498L296.524 136.065H294.01Z" fill="white"/>
<path d="M315.581 125.369C316.745 126.367 317.328 127.835 317.328 129.779C317.328 131.829 316.699 133.391 315.455 134.457C314.204 135.529 312.418 136.059 310.089 136.059H302.506V117.339H305.106V123.861H310.565C312.749 123.874 314.423 124.37 315.581 125.369ZM313.49 132.895C314.304 132.191 314.707 131.173 314.707 129.832C314.707 127.265 313.133 125.978 309.99 125.978H305.113V133.947H309.99C311.505 133.954 312.676 133.599 313.49 132.895ZM320.239 117.346H322.833V136.065H320.239V117.346Z" fill="white"/>
<rect x="588" y="448.905" width="96" height="55.9882" fill="#4F5769"/>
<path d="M539 508.894C539 506.684 540.791 504.894 543 504.894H729C731.209 504.894 733 506.684 733 508.894V511.892H539V508.894Z" fill="#4F5769"/>
<g filter="url(#filter0_d_4188_25861)">
<rect x="423" y="189.96" width="426" height="270.943" rx="17.026" fill="#575F70"/>
</g>
<rect x="440" y="206.957" width="392" height="238.949" rx="5.67532" fill="#FAFBFF"/>
<circle cx="659.235" cy="295.703" r="19.1542" fill="#A4C76C"/>
<circle cx="659.235" cy="295.703" r="7.80357" fill="white"/>
<rect x="690" y="284" width="109" height="4" rx="2" fill="#D1D3DD"/>
<rect x="690" y="294" width="52" height="4" rx="2" fill="#D1D3DD"/>
<rect x="690" y="304" width="75" height="4" rx="2" fill="#D1D3DD"/>
<circle cx="659.235" cy="346.781" r="19.1542" fill="#FFCD1E"/>
<circle cx="659.235" cy="346.781" r="7.80357" fill="white"/>
<rect x="690" y="335" width="63" height="4" rx="2" fill="#D1D3DD"/>
<rect x="690" y="345" width="95" height="4" rx="2" fill="#D1D3DD"/>
<rect x="690" y="355" width="35" height="4" rx="2" fill="#D1D3DD"/>
<circle cx="659.235" cy="397.859" r="19.1542" fill="#F86D7E"/>
<circle cx="659.235" cy="397.859" r="7.80357" fill="white"/>
<rect x="690" y="386" width="103" height="4" rx="2" fill="#D1D3DD"/>
<rect x="690" y="396" width="48" height="4" rx="2" fill="#D1D3DD"/>
<rect x="690" y="406" width="75" height="4" rx="2" fill="#D1D3DD"/>
<path fill-rule="evenodd" clip-rule="evenodd" d="M539.344 250.533C513.065 219.2 461.089 239.301 469.265 285.413C470.456 292.128 472.553 298.276 475.413 304H494C494.965 304 495.871 304.465 496.435 305.248L498.599 308.255L512.821 260.321C513.196 259.058 514.351 258.187 515.668 258.174C516.986 258.162 518.157 259.01 518.556 260.266L535.609 313.931L542.957 287.563C543.3 286.334 544.382 285.456 545.656 285.375C546.929 285.293 548.115 286.026 548.611 287.202L557.581 308.447L559.447 305.424C559.994 304.539 560.96 304 562 304H571.439L579.452 292.559C580.027 291.738 580.974 291.259 581.976 291.281C582.978 291.303 583.903 291.825 584.44 292.67L591.647 304H603.275C606.135 298.276 608.232 292.128 609.423 285.413C617.599 239.301 565.624 219.2 539.344 250.533ZM599.91 310H590C588.974 310 588.019 309.476 587.469 308.61L581.789 299.681L575.457 308.721C574.896 309.523 573.979 310 573 310H563.674L559.632 316.547C559.043 317.503 557.969 318.049 556.85 317.963C555.73 317.877 554.753 317.173 554.316 316.138L546.428 297.458L538.687 325.236C538.331 326.514 537.177 327.406 535.851 327.43C534.524 327.454 533.34 326.603 532.938 325.339L515.795 271.39L502.611 315.825C502.286 316.922 501.364 317.739 500.236 317.93C499.107 318.12 497.968 317.653 497.3 316.724L492.463 310H478.778C490.947 329.522 512.294 344.225 536.194 360.686C537.239 361.406 538.29 362.13 539.344 362.857C540.399 362.13 541.449 361.406 542.494 360.686C566.394 344.225 587.741 329.522 599.91 310Z" fill="#E4394E"/>
<rect x="468" y="377" width="123" height="16" rx="8" fill="#D1D3DD"/>
<rect x="468" y="401" width="88" height="16" rx="8" fill="#D1D3DD"/>
<g filter="url(#filter1_d_4188_25861)">
<circle cx="476.481" cy="520.481" r="96.4805" fill="#56B4FF"/>
<circle cx="29.7955" cy="29.7955" r="29.7955" transform="matrix(-1 0 0 1 506.276 490.685)" fill="white"/>
<path d="M547.422 520.481C547.422 501.666 539.948 483.621 526.644 470.317C513.34 457.013 495.295 449.539 476.481 449.539C457.666 449.539 439.621 457.013 426.317 470.317C413.013 483.621 405.539 501.666 405.539 520.481L476.481 520.481H547.422Z" fill="white"/>
<path d="M477.19 483.591L482.156 536.088L472.224 536.088L477.19 483.591Z" fill="#373C47"/>
<circle cx="8.51299" cy="8.51299" r="8.51299" transform="matrix(-0.866025 0.5 0.5 0.866025 479.875 511.37)" fill="#373C47"/>
<circle cx="2.83766" cy="2.83766" r="2.83766" transform="matrix(-0.866025 0.5 0.5 0.866025 477.798 519.123)" fill="white"/>
<path d="M514.626 510.549H534.653C529.972 482.365 505.709 460.89 476.481 460.89C447.252 460.89 422.989 482.365 418.308 510.549H418.672C425.872 490.836 444.636 476.781 466.649 476.781C488.663 476.781 507.426 490.836 514.626 510.549Z" fill="#A4C76C"/>
<mask id="mask0_4188_25861" style="mask-type:alpha" maskUnits="userSpaceOnUse" x="418" y="460" width="117" height="51">
<path d="M514.626 510.549H534.653C529.972 482.365 505.709 460.89 476.481 460.89C447.252 460.89 422.989 482.365 418.308 510.549H418.672C425.872 490.836 444.636 476.781 466.649 476.781C488.663 476.781 507.426 490.836 514.626 510.549Z" fill="#D1D3DD"/>
</mask>
<g mask="url(#mask0_4188_25861)">
<path d="M448.104 435.351L475.062 520.48L534.653 456.633L448.104 435.351Z" fill="#FFCD1E"/>
<path d="M517.627 455.214L484.994 504.873V530.412H557.354L517.627 455.214Z" fill="#E4394E"/>
</g>
</g>
<rect x="640" y="235" width="176" height="26" rx="2.83766" fill="#FFEA9E"/>
<rect x="690" y="247" width="75" height="4" rx="2" fill="#E8D389"/>
<rect x="677" y="247" width="7" height="4" rx="2" fill="#E8D389"/>
<path d="M657.345 242.849C657.907 242.007 659.145 242.007 659.707 242.849L665.568 251.642C666.197 252.585 665.521 253.848 664.388 253.848H652.664C651.531 253.848 650.855 252.585 651.484 251.642L657.345 242.849Z" fill="#E8D389"/>
</g>
<defs>
<filter id="filter0_d_4188_25861" x="394.623" y="175.772" width="482.753" height="327.696" filterUnits="userSpaceOnUse" color-interpolation-filters="sRGB">
<feFlood flood-opacity="0" result="BackgroundImageFix"/>
<feColorMatrix in="SourceAlpha" type="matrix" values="0 0 0 0 0 0 0 0 0 0 0 0 0 0 0 0 0 0 127 0" result="hardAlpha"/>
<feOffset dy="14.1883"/>
<feGaussianBlur stdDeviation="14.1883"/>
<feComposite in2="hardAlpha" operator="out"/>
<feColorMatrix type="matrix" values="0 0 0 0 0.15 0 0 0 0 0.165625 0 0 0 0 0.2 0 0 0 1 0"/>
<feBlend mode="normal" in2="BackgroundImageFix" result="effect1_dropShadow_4188_25861"/>
<feBlend mode="normal" in="SourceGraphic" in2="effect1_dropShadow_4188_25861" result="shape"/>
</filter>
<filter id="filter1_d_4188_25861" x="351.623" y="409.812" width="249.714" height="249.714" filterUnits="userSpaceOnUse" color-interpolation-filters="sRGB">
<feFlood flood-opacity="0" result="BackgroundImageFix"/>
<feColorMatrix in="SourceAlpha" type="matrix" values="0 0 0 0 0 0 0 0 0 0 0 0 0 0 0 0 0 0 127 0" result="hardAlpha"/>
<feOffset dy="14.1883"/>
<feGaussianBlur stdDeviation="14.1883"/>
<feComposite in2="hardAlpha" operator="out"/>
<feColorMatrix type="matrix" values="0 0 0 0 0 0 0 0 0 0 0 0 0 0 0 0 0 0 0.25 0"/>
<feBlend mode="normal" in2="BackgroundImageFix" result="effect1_dropShadow_4188_25861"/>
<feBlend mode="normal" in="SourceGraphic" in2="effect1_dropShadow_4188_25861" result="shape"/>
</filter>
<clipPath id="clip0_4188_25861">
<rect width="760" height="560" rx="8" fill="white"/>
</clipPath>
</defs>
</svg>
