<svg width="760" height="560" viewBox="0 0 760 560" fill="none" xmlns="http://www.w3.org/2000/svg">
<g clip-path="url(#clip0_4188_24381)">
<rect width="760" height="560" rx="8" fill="#E6F4F3"/>
<path d="M213.799 48.1085C213.966 48.0374 214.145 48.0005 214.326 48C218.366 48.0098 222.362 48.8303 226.084 50.4137C229.807 51.9971 233.18 54.3117 236.007 57.2228C241.773 63.1598 245.002 71.1403 245 79.4512C245.001 79.8254 244.856 80.1848 244.596 80.452C244.469 80.5827 244.317 80.6864 244.15 80.7573C243.982 80.8281 243.802 80.8646 243.621 80.8646C243.439 80.8646 243.26 80.8281 243.092 80.7573C242.925 80.6864 242.773 80.5827 242.646 80.452C242.389 80.186 242.244 79.8262 242.244 79.4534C242.247 71.8884 239.308 64.6239 234.059 59.22C231.487 56.5708 228.417 54.4645 225.029 53.0238C221.641 51.583 218.003 50.8365 214.326 50.8279C213.961 50.8279 213.611 50.6774 213.353 50.4136C213.093 50.1469 212.948 49.7879 212.948 49.4139C212.948 49.04 213.093 48.6809 213.353 48.4143C213.48 48.2836 213.632 48.1796 213.799 48.1085Z" fill="#1D73BE"/>
<path d="M214.326 54.0068C214.145 54.0073 213.966 54.0442 213.799 54.1153C213.632 54.1864 213.48 54.2904 213.353 54.4211C213.093 54.6878 212.948 55.0468 212.948 55.4208C212.948 55.7947 213.093 56.1538 213.353 56.4204C213.611 56.6864 213.961 56.8347 214.326 56.8347C217.231 56.8424 220.105 57.4328 222.781 58.5715C225.458 59.7101 227.883 61.3744 229.915 63.4673C234.062 67.7364 236.384 73.4749 236.383 79.4512C236.383 79.8263 236.53 80.186 236.787 80.452C236.915 80.5827 237.066 80.6865 237.234 80.7573C237.401 80.8282 237.581 80.8646 237.762 80.8646C237.944 80.8646 238.124 80.8282 238.291 80.7573C238.459 80.6865 238.61 80.5827 238.737 80.452C238.997 80.1848 239.142 79.8254 239.142 79.4512C239.141 72.7279 236.528 66.2725 231.863 61.4701C229.576 59.1156 226.848 57.2433 223.838 55.962C220.827 54.6808 217.594 54.0161 214.326 54.0068Z" fill="#1D73BE"/>
<path d="M214.326 60.0158C214.145 60.0163 213.966 60.0532 213.799 60.1243C213.632 60.1954 213.48 60.2993 213.353 60.43C213.093 60.6967 212.948 61.0557 212.948 61.4297C212.948 61.8037 213.093 62.1627 213.353 62.4294C213.611 62.6932 213.961 62.8437 214.326 62.8437C216.46 62.8472 218.573 63.2791 220.54 64.1143C222.507 64.9494 224.29 66.171 225.784 67.708C228.833 70.844 230.541 75.0612 230.54 79.4534C230.54 79.8284 230.682 80.186 230.942 80.452C231.069 80.5826 231.221 80.6864 231.388 80.7573C231.556 80.8281 231.735 80.8646 231.917 80.8646C232.098 80.8646 232.278 80.8281 232.446 80.7573C232.613 80.6864 232.765 80.5826 232.892 80.452C233.151 80.1853 233.296 79.8268 233.296 79.4534C233.298 74.3147 231.3 69.3804 227.734 65.7108C225.985 63.911 223.899 62.4803 221.597 61.5021C219.295 60.524 216.822 60.018 214.324 60.0136L214.326 60.0158Z" fill="#1D73BE"/>
<path d="M121.545 68.5385H58.5803C57.2029 68.5029 55.8327 68.7499 54.5528 69.2646C53.2672 69.782 52.0982 70.5555 51.1156 71.5387C50.127 72.5286 49.3436 73.7071 48.8111 75.0054C48.2756 76.3083 48 77.7049 48 79.1153C48 80.5257 48.2756 81.9223 48.8111 83.2252C49.3427 84.524 50.1262 85.7026 51.1156 86.6919C52.098 87.6754 53.2671 88.4489 54.5528 88.966C55.8348 89.4828 57.2054 89.7291 58.5803 89.6943H79.7509V134.548C79.7509 135.937 80.0168 137.315 80.5357 138.597C81.0545 139.883 81.8133 141.048 82.7732 142.031C83.7308 143.012 84.8701 143.793 86.1196 144.325C87.3698 144.856 88.7127 145.129 90.0693 145.129C91.4259 145.129 92.7687 144.856 94.0189 144.325C95.2745 143.791 96.4126 143.011 97.3676 142.031C99.3035 140.029 100.388 137.344 100.39 134.548V89.6943H121.545C122.923 89.7293 124.293 89.4815 125.573 88.966C126.858 88.4486 128.027 87.6751 129.01 86.6919C129.999 85.702 130.782 84.5235 131.315 83.2252C131.85 81.9223 132.125 80.5257 132.125 79.1153C132.125 77.7049 131.85 76.3083 131.315 75.0054C130.782 73.7071 129.999 72.5286 129.01 71.5387C128.027 70.5555 126.858 69.7821 125.573 69.2646C124.293 68.7499 122.923 68.5029 121.545 68.5385Z" fill="#1D73BE"/>
<path d="M169.224 70.9084C167.381 69.3677 165.061 68.5282 162.667 68.5362C160.273 68.548 157.959 69.4068 156.128 70.9629L131.209 92.1121L110.172 74.4427C109.134 73.559 107.931 72.8933 106.635 72.4844C105.338 72.0756 103.973 71.9319 102.621 72.0618C101.266 72.1958 99.9517 72.5999 98.7533 73.2509C97.5549 73.9018 96.4968 74.7864 95.6404 75.8534C93.8922 78.0285 93.0586 80.808 93.3186 83.5957C93.5708 86.3788 94.8987 88.9501 97.0153 90.7537L123.454 112.971C125.627 114.81 128.372 115.818 131.209 115.821C134.045 115.818 136.79 114.81 138.963 112.971L152.384 101.627V134.249C152.384 139.89 156.534 144.811 162.021 145.17C163.43 145.266 164.844 145.064 166.172 144.577C167.506 144.089 168.726 143.327 169.754 142.34C170.787 141.347 171.609 140.151 172.169 138.826C172.731 137.496 173.023 136.065 173.023 134.618V79.3419C173.042 77.7367 172.712 76.1467 172.054 74.6847C171.4 73.2292 170.434 71.9386 169.224 70.9062V70.9084Z" fill="#00A19A"/>
<path d="M64.3739 162.794H48.891C48.8104 162.793 48.7303 162.808 48.6557 162.839C48.581 162.87 48.5133 162.915 48.4565 162.973C48.3986 163.031 48.3528 163.101 48.3216 163.177C48.2905 163.253 48.2746 163.335 48.2749 163.418C48.2749 163.586 48.3398 163.745 48.4565 163.865C48.5132 163.923 48.5807 163.97 48.6553 164.001C48.7299 164.033 48.81 164.05 48.891 164.05H55.9385V179.844C55.9378 179.933 55.9544 180.021 55.9874 180.104C56.0204 180.186 56.0692 180.261 56.1309 180.324C56.192 180.387 56.2649 180.438 56.3454 180.472C56.426 180.507 56.5126 180.524 56.6001 180.525C56.7798 180.524 56.9526 180.454 57.0821 180.328C57.214 180.201 57.2928 180.028 57.3026 179.844V164.05H64.3718C64.5382 164.05 64.6939 163.985 64.8106 163.865C64.9264 163.746 64.9913 163.586 64.9913 163.419C64.9913 163.252 64.9264 163.092 64.8106 162.973C64.7536 162.915 64.6855 162.869 64.6105 162.838C64.5355 162.807 64.455 162.791 64.3739 162.792V162.794ZM75.4489 173.314C75.4508 173.196 75.4177 173.08 75.3538 172.981C75.2898 172.882 75.198 172.804 75.09 172.758C75.0189 172.728 74.9423 172.714 74.8652 172.715H68.2371V168.236H78.6441C78.7211 168.237 78.7975 168.222 78.8685 168.192C78.9395 168.162 79.0037 168.118 79.057 168.062C79.1119 168.006 79.1554 167.94 79.1847 167.868C79.214 167.795 79.2287 167.717 79.2278 167.639C79.2277 167.521 79.1934 167.406 79.1293 167.308C79.0652 167.209 78.9739 167.132 78.8667 167.085C78.7961 167.056 78.7204 167.041 78.6441 167.041H67.5756C67.4882 167.041 67.4018 167.059 67.3212 167.093C67.2407 167.127 67.1677 167.177 67.1065 167.24C66.9818 167.368 66.9119 167.54 66.9119 167.72V179.844C66.9115 179.933 66.9284 180.021 66.9618 180.104C66.9952 180.186 67.0443 180.261 67.1065 180.324C67.1675 180.387 67.2404 180.438 67.321 180.472C67.4015 180.507 67.4881 180.524 67.5756 180.525H79.2537C79.3703 180.526 79.4846 180.492 79.5813 180.426C79.6779 180.36 79.7522 180.266 79.7942 180.156C79.8533 180.009 79.8525 179.845 79.792 179.698C79.7328 179.554 79.6194 179.438 79.4764 179.378C79.4058 179.348 79.3301 179.333 79.2537 179.334H68.2284V173.899H74.8566C75.0101 173.899 75.1592 173.84 75.2673 173.731C75.3787 173.621 75.4453 173.471 75.4489 173.314ZM83.8324 167.693V179.844C83.832 179.933 83.8489 180.021 83.8823 180.104C83.9157 180.186 83.9649 180.261 84.027 180.324C84.088 180.387 84.1609 180.438 84.2415 180.472C84.322 180.507 84.4086 180.524 84.4961 180.525H95.0414C95.1184 180.525 95.1947 180.51 95.2657 180.48C95.3367 180.45 95.4009 180.406 95.4543 180.35C95.5087 180.294 95.5516 180.228 95.5806 180.156C95.6095 180.083 95.6239 180.005 95.623 179.927C95.6228 179.81 95.5887 179.696 95.5249 179.598C95.4612 179.501 95.3705 179.424 95.2641 179.378C95.1935 179.348 95.1178 179.334 95.0414 179.334H85.1641V167.691C85.1638 167.512 85.094 167.34 84.9695 167.212C84.9083 167.148 84.8352 167.098 84.7544 167.064C84.6737 167.029 84.587 167.012 84.4993 167.012C84.4117 167.012 84.325 167.029 84.2442 167.064C84.1635 167.098 84.0904 167.148 84.0291 167.212C83.9041 167.339 83.8341 167.512 83.8346 167.691L83.8324 167.693ZM107.535 173.314C107.536 173.156 107.475 173.003 107.366 172.889C107.312 172.833 107.247 172.789 107.176 172.759C107.105 172.729 107.028 172.714 106.951 172.715H100.323V168.236H110.728C110.805 168.238 110.882 168.223 110.953 168.193C111.025 168.163 111.089 168.118 111.143 168.062C111.197 168.006 111.24 167.94 111.269 167.868C111.298 167.795 111.312 167.717 111.311 167.639C111.311 167.481 111.25 167.329 111.14 167.216C111.087 167.161 111.023 167.117 110.952 167.087C110.882 167.057 110.806 167.042 110.73 167.041H99.6612C99.5739 167.041 99.4874 167.059 99.4069 167.093C99.3263 167.127 99.2533 167.177 99.1921 167.24C99.0674 167.368 98.9976 167.54 98.9975 167.72V179.844C98.9971 179.933 99.014 180.021 99.0474 180.104C99.0808 180.186 99.13 180.261 99.1921 180.324C99.2529 180.387 99.3254 180.437 99.4056 180.472C99.4858 180.506 99.5719 180.524 99.6591 180.525H111.337C111.493 180.525 111.64 180.459 111.75 180.35C111.861 180.238 111.923 180.086 111.923 179.927C111.922 179.77 111.86 179.62 111.75 179.509C111.696 179.454 111.633 179.41 111.562 179.38C111.492 179.35 111.416 179.334 111.339 179.334H100.314V173.899H106.944C107.098 173.899 107.245 173.839 107.355 173.731C107.467 173.621 107.531 173.471 107.535 173.314ZM134.185 179.844V163.723C134.185 163.477 134.089 163.242 133.917 163.067C133.823 162.97 133.708 162.896 133.581 162.85C133.455 162.804 133.319 162.787 133.185 162.801C133.052 162.814 132.922 162.858 132.807 162.929C132.692 162.999 132.594 163.095 132.521 163.208L125.158 174.564L117.866 163.208C117.784 163.082 117.671 162.977 117.539 162.905C117.407 162.833 117.259 162.795 117.109 162.794C116.929 162.794 116.752 162.848 116.603 162.951C116.454 163.053 116.339 163.198 116.273 163.368C116.227 163.481 116.204 163.601 116.203 163.723V179.844C116.203 179.933 116.22 180.021 116.253 180.104C116.287 180.186 116.336 180.261 116.398 180.324C116.459 180.387 116.532 180.436 116.612 180.47C116.693 180.504 116.779 180.522 116.866 180.522C116.953 180.522 117.039 180.504 117.12 180.47C117.2 180.436 117.273 180.387 117.334 180.324C117.459 180.196 117.529 180.024 117.529 179.844V164.975L124.369 175.434C124.458 175.568 124.579 175.679 124.72 175.756C124.861 175.833 125.019 175.874 125.179 175.876C125.341 175.877 125.499 175.836 125.641 175.759C125.783 175.682 125.904 175.57 125.992 175.434L132.832 164.975V179.844C132.832 179.933 132.849 180.021 132.882 180.104C132.915 180.186 132.965 180.261 133.027 180.324C133.087 180.387 133.16 180.437 133.24 180.472C133.32 180.506 133.406 180.524 133.494 180.525C133.583 180.528 133.673 180.514 133.756 180.481C133.84 180.448 133.916 180.399 133.98 180.335C134.045 180.271 134.097 180.195 134.131 180.111C134.166 180.026 134.184 179.936 134.183 179.844H134.185ZM148.592 173.314C148.593 173.156 148.533 173.003 148.423 172.889C148.369 172.834 148.305 172.79 148.234 172.76C148.163 172.73 148.087 172.714 148.01 172.715H141.382V168.236H151.793C151.871 168.238 151.948 168.223 152.019 168.193C152.09 168.163 152.155 168.118 152.208 168.062C152.263 168.006 152.306 167.94 152.335 167.867C152.364 167.795 152.378 167.717 152.377 167.639C152.377 167.481 152.316 167.329 152.206 167.216C152.153 167.161 152.089 167.117 152.018 167.087C151.948 167.057 151.872 167.042 151.796 167.041H140.727C140.639 167.041 140.552 167.059 140.472 167.093C140.391 167.127 140.317 167.177 140.256 167.24C140.131 167.368 140.061 167.54 140.061 167.72V179.844C140.061 180.025 140.133 180.198 140.256 180.324C140.317 180.387 140.39 180.438 140.47 180.472C140.551 180.507 140.637 180.524 140.725 180.525H152.399C152.515 180.526 152.63 180.492 152.726 180.426C152.823 180.36 152.897 180.266 152.939 180.156C152.968 180.083 152.982 180.006 152.98 179.927C152.98 179.81 152.946 179.695 152.882 179.598C152.818 179.5 152.726 179.423 152.619 179.378C152.549 179.348 152.473 179.333 152.397 179.334H141.376V173.899H148.004C148.157 173.899 148.305 173.839 148.414 173.731C148.525 173.621 148.589 173.471 148.592 173.314ZM170.054 173.831C170.054 169.754 167.144 167.033 162.823 167.033H157.693C157.605 167.033 157.519 167.051 157.438 167.085C157.358 167.12 157.285 167.17 157.224 167.233C157.099 167.361 157.03 167.534 157.029 167.713V179.844C157.029 180.025 157.101 180.198 157.224 180.324C157.285 180.387 157.358 180.438 157.438 180.472C157.519 180.507 157.605 180.524 157.693 180.525H162.823C167.283 180.525 170.054 177.974 170.054 173.831ZM158.342 168.204H162.855C166.269 168.204 168.656 170.499 168.656 173.796C168.656 177.228 166.435 179.363 162.855 179.363H158.342V168.204ZM189.147 179.844V163.536C189.146 163.346 189.072 163.165 188.94 163.03C188.875 162.963 188.798 162.911 188.713 162.875C188.628 162.839 188.537 162.82 188.445 162.82C188.352 162.815 188.26 162.83 188.173 162.864C188.087 162.898 188.008 162.95 187.943 163.017C187.877 163.084 187.825 163.165 187.792 163.254C187.758 163.343 187.743 163.438 187.749 163.533V170.188H176.192V163.533C176.191 163.344 176.116 163.162 175.984 163.028C175.919 162.962 175.841 162.909 175.756 162.874C175.671 162.838 175.579 162.82 175.487 162.82C175.394 162.815 175.302 162.83 175.215 162.864C175.129 162.898 175.05 162.95 174.985 163.017C174.919 163.084 174.867 163.165 174.834 163.254C174.8 163.343 174.786 163.438 174.791 163.533V179.844C174.791 179.982 174.832 180.117 174.909 180.231C174.986 180.345 175.096 180.433 175.223 180.483C175.31 180.516 175.398 180.529 175.489 180.525C175.67 180.525 175.843 180.455 175.973 180.328C176.104 180.201 176.181 180.028 176.189 179.844V171.417H187.783V179.844C187.783 179.982 187.825 180.117 187.902 180.231C187.979 180.345 188.088 180.433 188.216 180.483C188.34 180.528 188.474 180.535 188.603 180.506C188.731 180.477 188.849 180.411 188.942 180.318C189.066 180.191 189.139 180.022 189.147 179.844ZM200.568 181C205.281 181 207.123 179.722 207.123 176.426V167.726C207.123 167.547 207.053 167.375 206.928 167.246C206.867 167.184 206.794 167.134 206.714 167.099C206.633 167.065 206.547 167.048 206.459 167.048C206.372 167.048 206.285 167.065 206.205 167.099C206.124 167.134 206.051 167.184 205.99 167.246C205.866 167.375 205.796 167.547 205.795 167.726V175.841C205.795 179.24 204.12 179.809 200.607 179.809C197.094 179.809 195.419 179.221 195.419 175.841V167.728C195.419 167.549 195.349 167.377 195.224 167.249C195.163 167.186 195.09 167.136 195.009 167.102C194.929 167.068 194.842 167.05 194.755 167.05C194.668 167.05 194.581 167.068 194.501 167.102C194.42 167.136 194.347 167.186 194.286 167.249C194.162 167.377 194.092 167.549 194.091 167.728V176.447C194.085 179.164 195.185 181 200.568 181ZM219.934 167.046H212.398C212.31 167.046 212.224 167.064 212.143 167.098C212.062 167.133 211.99 167.183 211.929 167.246C211.804 167.375 211.734 167.547 211.734 167.726V179.844C211.734 180.025 211.805 180.198 211.929 180.324C211.99 180.387 212.062 180.438 212.143 180.472C212.224 180.507 212.31 180.524 212.398 180.525H220.353C223.207 180.525 224.845 179.112 224.845 176.644C224.845 175.918 224.642 175.207 224.262 174.594C223.883 173.984 223.34 173.495 222.697 173.186L222.074 172.817L222.684 172.429C223.064 172.19 223.371 171.85 223.573 171.447C223.775 171.044 223.864 170.592 223.829 170.142C223.844 168.827 223.44 167.046 219.934 167.046ZM223.466 176.563C223.466 178.336 222.4 179.397 220.61 179.397H213.055V173.729H220.597C222.392 173.729 223.46 174.782 223.46 176.528L223.466 176.563ZM219.899 172.545H213.046V168.271H219.86C222 168.271 222.446 169.433 222.446 170.406C222.446 171.376 222.003 172.512 219.895 172.512L219.901 172.547L219.899 172.545Z" fill="#1D73BE"/>
<path d="M214.54 68.5391C211.801 68.5391 209.179 69.6532 207.242 71.6373C205.301 73.6358 204.215 76.3228 204.219 79.1202V94.4108H166.249C163.512 94.4108 160.888 95.525 158.951 97.5113C157.011 99.5092 155.925 102.195 155.929 104.992C155.929 107.8 157.016 110.491 158.951 112.475C159.902 113.454 161.038 114.233 162.291 114.765C163.544 115.297 164.89 115.571 166.249 115.573H204.226V134.57C204.226 135.959 204.494 137.335 205.011 138.619C205.527 139.899 206.287 141.065 207.248 142.051C208.206 143.034 209.345 143.813 210.597 144.345C211.847 144.876 213.189 145.149 214.545 145.149C215.901 145.149 217.244 144.876 218.494 144.345C219.749 143.811 220.887 143.031 221.842 142.051C222.8 141.07 223.561 139.903 224.08 138.619C224.599 137.335 224.865 135.959 224.865 134.57V79.1202C224.865 77.7312 224.598 76.3554 224.078 75.0691C223.561 73.7882 222.801 72.6216 221.84 71.6351C220.885 70.6547 219.746 69.8751 218.489 69.3414C217.238 68.8108 215.895 68.538 214.538 68.5391H214.54Z" fill="#FFDE00"/>
<path d="M393.824 187.463H668.176C683.839 187.463 696.537 200.161 696.537 215.824V601.537H365.463V215.824C365.463 200.161 378.161 187.463 393.824 187.463Z" fill="#C9E5E3" stroke="white" stroke-width="14.9267"/>
<path d="M478 195H584V198.088C584 207.981 575.981 216 566.088 216H495.912C486.019 216 478 207.981 478 198.088V195Z" fill="white"/>
<path d="M402.877 329.968C402.877 320.075 410.896 312.056 420.789 312.056H641.704C651.597 312.056 659.616 320.075 659.616 329.968V406.094C659.616 415.986 651.596 424.006 641.704 424.006H420.789C410.896 424.006 402.877 415.986 402.877 406.094V329.968Z" fill="white" fill-opacity="0.6"/>
<path d="M420.789 312.802H641.704C651.184 312.802 658.87 320.487 658.87 329.968V406.094C658.87 415.574 651.184 423.259 641.704 423.259H420.789C411.309 423.259 403.623 415.574 403.623 406.094V329.968C403.623 320.487 411.309 312.802 420.789 312.802Z" stroke="white" stroke-opacity="0.8" stroke-width="1.49267"/>
<path d="M402.877 453.859C402.877 443.967 410.896 435.947 420.789 435.947H641.704C651.597 435.947 659.616 443.967 659.616 453.859V529.985C659.616 539.878 651.596 547.897 641.704 547.897H420.789C410.896 547.897 402.877 539.878 402.877 529.985V453.859Z" fill="white" fill-opacity="0.6"/>
<path d="M420.789 436.694H641.704C651.184 436.694 658.87 444.379 658.87 453.859V529.985C658.87 539.466 651.184 547.151 641.704 547.151H420.789C411.309 547.151 403.623 539.466 403.623 529.985V453.859C403.623 444.379 411.309 436.694 420.789 436.694Z" stroke="white" stroke-opacity="0.8" stroke-width="1.49267"/>
<circle cx="435.716" cy="257.827" r="32.8387" fill="white"/>
<rect opacity="0.6" x="481.988" y="242.9" width="125.384" height="11.9413" rx="5.97067" fill="white"/>
<rect x="481.988" y="338.924" width="125.384" height="11.9413" rx="5.97067" fill="white"/>
<rect x="481.988" y="462.814" width="125.384" height="11.9413" rx="5.97067" fill="white"/>
<rect x="481.988" y="356.836" width="50.7507" height="11.9413" rx="5.97067" fill="white"/>
<rect x="481.988" y="480.727" width="50.7507" height="11.9413" rx="5.97067" fill="white"/>
<rect opacity="0.6" x="419.296" y="401.615" width="52.2434" height="5.97067" rx="2.98534" fill="white"/>
<rect opacity="0.6" x="419.296" y="528" width="52.2434" height="5.97067" rx="2.98534" fill="white"/>
<rect opacity="0.6" x="481.988" y="401.615" width="80.6041" height="5.97067" rx="2.98534" fill="white"/>
<rect opacity="0.6" x="481.988" y="528" width="80.6041" height="5.97067" rx="2.98534" fill="white"/>
<rect opacity="0.6" x="573.041" y="401.615" width="34.3314" height="5.97067" rx="2.98534" fill="white"/>
<rect opacity="0.6" x="481.988" y="260.812" width="73.1408" height="11.9413" rx="5.97067" fill="white"/>
<path d="M434.969 255.988C430.001 255.988 426.013 252 426.013 247.032C426.013 242.134 430.001 238.076 434.969 238.076C439.867 238.076 443.925 242.134 443.925 247.032C443.925 252 439.867 255.988 434.969 255.988ZM438.467 259.346C445.184 259.346 450.642 264.804 450.642 271.521C450.642 272.85 449.522 273.9 448.193 273.9H421.675C420.345 273.9 419.296 272.85 419.296 271.521C419.296 264.804 424.683 259.346 431.401 259.346H438.467Z" fill="#00A19A"/>
<rect x="417.804" y="326.982" width="53.7361" height="53.7361" rx="26.868" fill="white"/>
<path d="M432.233 350.119V346.387C432.233 345.703 432.477 345.117 432.964 344.63C433.451 344.143 434.037 343.899 434.721 343.899H454.623C455.307 343.899 455.893 344.143 456.38 344.63C456.867 345.117 457.111 345.703 457.111 346.387V353.229H454.623V346.387H434.721V350.119H432.233ZM438.452 360.07C438.224 360.07 438.007 360.013 437.799 359.899C437.592 359.785 437.437 359.614 437.333 359.386L435.187 355.094H432.233V352.607H435.965C436.193 352.607 436.41 352.664 436.618 352.778C436.825 352.892 436.98 353.063 437.084 353.291L438.452 356.027L442.308 348.315C442.412 348.108 442.568 347.952 442.775 347.849C442.982 347.745 443.2 347.693 443.428 347.693C443.656 347.693 443.874 347.745 444.081 347.849C444.288 347.952 444.444 348.108 444.547 348.315L446.631 352.482C446.258 352.71 445.9 352.949 445.558 353.197C445.216 353.446 444.9 353.726 444.61 354.037L443.428 351.674L439.572 359.386C439.468 359.614 439.313 359.785 439.105 359.899C438.898 360.013 438.68 360.07 438.452 360.07ZM443.024 363.802H434.721C434.037 363.802 433.451 363.558 432.964 363.071C432.477 362.584 432.233 361.998 432.233 361.314V357.582H434.721V361.314H442.277C442.34 361.749 442.433 362.174 442.557 362.589C442.682 363.004 442.837 363.408 443.024 363.802ZM450.891 366.289C449.171 366.289 447.704 365.683 446.491 364.47C445.278 363.257 444.672 361.791 444.672 360.07C444.672 358.349 445.278 356.883 446.491 355.67C447.704 354.457 449.171 353.851 450.891 353.851C452.612 353.851 454.079 354.457 455.292 355.67C456.504 356.883 457.111 358.349 457.111 360.07C457.111 361.791 456.504 363.257 455.292 364.47C454.079 365.683 452.612 366.289 450.891 366.289ZM451.14 360.692L453.97 357.862L453.099 356.991L450.269 359.821L451.14 360.692Z" fill="#00A19A"/>
<rect x="561" y="144" width="71.6481" height="71.6481" rx="35.824" fill="#D13535"/>
<path d="M599.025 194.751C598.328 194.751 597.675 194.602 597.066 194.304C596.456 194.005 595.94 193.582 595.517 193.035L587.382 182.698L588.091 181.952C588.589 181.429 589.186 181.118 589.882 181.019C590.579 180.919 591.226 181.056 591.823 181.429L594.584 183.109V167.883C594.584 167.46 594.727 167.106 595.013 166.82C595.299 166.534 595.654 166.391 596.077 166.391C596.5 166.391 596.86 166.534 597.159 166.82C597.458 167.106 597.607 167.46 597.607 167.883V188.482L593.987 186.243L597.868 191.206C598.017 191.405 598.191 191.548 598.39 191.635C598.589 191.723 598.801 191.766 599.025 191.766H607.272C608.093 191.766 608.796 191.474 609.38 190.889C609.965 190.304 610.257 189.602 610.257 188.781V178.332C610.257 177.909 610.4 177.555 610.686 177.269C610.972 176.982 611.327 176.839 611.75 176.839C612.173 176.839 612.527 176.982 612.813 177.269C613.099 177.555 613.243 177.909 613.243 178.332V188.781C613.243 190.423 612.658 191.828 611.489 192.998C610.319 194.167 608.914 194.751 607.272 194.751H599.025ZM599.809 181.317V173.854C599.809 173.431 599.952 173.077 600.238 172.791C600.524 172.504 600.878 172.361 601.301 172.361C601.724 172.361 602.079 172.504 602.365 172.791C602.651 173.077 602.794 173.431 602.794 173.854V181.317H599.809ZM605.033 181.317V175.347C605.033 174.924 605.176 174.569 605.462 174.283C605.748 173.997 606.103 173.854 606.526 173.854C606.948 173.854 607.303 173.997 607.589 174.283C607.875 174.569 608.018 174.924 608.018 175.347V181.317H605.033ZM585.628 176.839C584.185 176.839 582.954 176.342 581.934 175.347C580.914 174.352 580.404 173.133 580.404 171.69C580.404 170.645 580.715 169.706 581.337 168.872C581.959 168.039 582.605 167.224 583.277 166.428L585.628 163.741L587.979 166.465C588.651 167.261 589.298 168.07 589.92 168.891C590.542 169.712 590.852 170.645 590.852 171.69C590.852 173.133 590.342 174.352 589.323 175.347C588.303 176.342 587.071 176.839 585.628 176.839ZM585.628 173.854C586.25 173.854 586.779 173.643 587.214 173.22C587.649 172.797 587.867 172.287 587.867 171.69C587.867 171.018 587.637 170.44 587.177 169.954C586.717 169.469 586.263 168.978 585.815 168.48L585.628 168.294L585.442 168.48C584.994 168.978 584.54 169.469 584.08 169.954C583.619 170.44 583.389 171.018 583.389 171.69C583.389 172.287 583.607 172.797 584.042 173.22C584.478 173.643 585.006 173.854 585.628 173.854Z" fill="white"/>
<rect x="403" y="100" width="53.7361" height="53.7361" rx="26.868" fill="#D38600"/>
<path d="M424.27 115.673C425.348 115.673 426.375 115.901 427.349 116.357C428.323 116.813 429.163 117.456 429.868 118.285C430.573 117.456 431.412 116.813 432.387 116.357C433.361 115.901 434.387 115.673 435.465 115.673C437.414 115.673 439.042 116.326 440.348 117.632C441.654 118.938 442.307 120.565 442.307 122.514C442.307 122.618 442.302 122.722 442.291 122.825C442.281 122.929 442.276 123.033 442.276 123.136H439.788C439.809 123.033 439.819 122.929 439.819 122.825V122.514C439.819 121.27 439.404 120.234 438.575 119.405C437.746 118.575 436.709 118.161 435.465 118.161C434.491 118.161 433.589 118.435 432.76 118.985C431.931 119.534 431.361 120.234 431.05 121.084H428.686C428.375 120.234 427.805 119.534 426.976 118.985C426.147 118.435 425.245 118.161 424.27 118.161C423.026 118.161 421.99 118.575 421.161 119.405C420.331 120.234 419.917 121.27 419.917 122.514V122.825C419.917 122.929 419.927 123.033 419.948 123.136H417.46C417.46 123.033 417.455 122.929 417.444 122.825C417.434 122.722 417.429 122.618 417.429 122.514C417.429 120.565 418.082 118.938 419.388 117.632C420.694 116.326 422.322 115.673 424.27 115.673ZM421.534 130.6H425.017C425.68 131.242 426.406 131.937 427.193 132.683C427.981 133.429 428.873 134.248 429.868 135.14C430.863 134.248 431.754 133.429 432.542 132.683C433.33 131.937 434.056 131.242 434.719 130.6H438.233C437.445 131.47 436.512 132.414 435.434 133.429C434.356 134.445 433.102 135.596 431.671 136.881L429.868 138.498L428.064 136.881C426.634 135.596 425.385 134.445 424.317 133.429C423.249 132.414 422.322 131.47 421.534 130.6ZM428.686 131.843C428.956 131.843 429.189 131.766 429.386 131.61C429.583 131.455 429.723 131.253 429.806 131.004L431.485 125.935L432.573 127.552C432.677 127.718 432.822 127.853 433.009 127.956C433.195 128.06 433.392 128.112 433.6 128.112H443.551V125.624H434.315L432.169 122.452C432.045 122.265 431.884 122.126 431.687 122.032C431.49 121.939 431.278 121.892 431.05 121.892C430.78 121.892 430.547 121.97 430.35 122.126C430.153 122.281 430.013 122.483 429.93 122.732L428.251 127.77L427.193 126.184C427.09 126.018 426.945 125.883 426.758 125.779C426.572 125.676 426.375 125.624 426.167 125.624H416.185V128.112H425.421L427.567 131.284C427.691 131.47 427.852 131.61 428.049 131.703C428.246 131.797 428.458 131.843 428.686 131.843Z" fill="white"/>
<rect x="527" y="37" width="47.7654" height="47.7654" rx="23.8827" fill="#1AB132"/>
<path d="M550.883 68.8437C550.601 68.8437 550.364 68.7483 550.174 68.5576C549.983 68.3668 549.888 68.1305 549.888 67.8486V63.8681C549.888 63.5862 549.983 63.3498 550.174 63.1591C550.364 62.9684 550.601 62.873 550.883 62.873H553.371C553.652 62.873 553.889 62.9684 554.08 63.1591C554.27 63.3498 554.366 63.5862 554.366 63.8681V67.8486C554.366 68.1305 554.27 68.3668 554.08 68.5576C553.889 68.7483 553.652 68.8437 553.371 68.8437H550.883ZM551.38 67.351H552.873V64.3657H551.38V67.351ZM555.858 70.8339V68.0973C555.858 67.8154 555.954 67.579 556.144 67.3883C556.335 67.1976 556.571 67.1022 556.853 67.1022H558.844V66.3559H555.858V64.8632H559.341C559.623 64.8632 559.86 64.9586 560.05 65.1493C560.241 65.34 560.336 65.5764 560.336 65.8583V67.5998C560.336 67.8817 560.241 68.1181 560.05 68.3088C559.86 68.4995 559.623 68.5949 559.341 68.5949H557.351V69.3412H560.336V70.8339H555.858ZM547.897 70.7841C545.857 70.5519 544.186 69.6771 542.885 68.1595C541.583 66.642 540.932 64.8135 540.932 62.674C540.932 61.0154 541.591 59.2118 542.909 57.263C544.228 55.3143 546.222 53.2038 548.893 50.9316C551.082 52.7892 552.819 54.5472 554.104 56.2057C555.39 57.8643 556.223 59.4233 556.605 60.8828H554.54C554.175 59.8379 553.52 58.7018 552.574 57.4745C551.629 56.2472 550.402 54.9453 548.893 53.5687C546.919 55.3765 545.43 57.0433 544.427 58.5691C543.424 60.095 542.922 61.4632 542.922 62.674C542.922 64.2661 543.382 65.622 544.303 66.7415C545.223 67.861 546.421 68.5368 547.897 68.769V70.7841Z" fill="white"/>
<rect x="680" y="110" width="35" height="35" rx="17.5" fill="#BA4CAD"/>
<path d="M697.5 135.601C696.379 135.601 695.424 135.206 694.634 134.416C693.844 133.626 693.449 132.671 693.449 131.55C693.449 130.902 693.591 130.298 693.875 129.737C694.158 129.177 694.556 128.701 695.07 128.309V121.828C695.07 121.153 695.306 120.579 695.779 120.106C696.251 119.634 696.825 119.397 697.5 119.397C698.175 119.397 698.749 119.634 699.222 120.106C699.694 120.579 699.931 121.153 699.931 121.828V128.309C700.444 128.701 700.842 129.177 701.126 129.737C701.409 130.298 701.551 130.902 701.551 131.55C701.551 132.671 701.156 133.626 700.366 134.416C699.576 135.206 698.621 135.601 697.5 135.601ZM696.69 126.689H698.31V121.828C698.31 121.598 698.233 121.406 698.077 121.251C697.922 121.095 697.73 121.018 697.5 121.018C697.271 121.018 697.078 121.095 696.923 121.251C696.768 121.406 696.69 121.598 696.69 121.828V126.689Z" fill="white"/>
<rect x="417.804" y="450.874" width="53.7361" height="53.7361" rx="26.868" fill="white"/>
<path d="M444.672 477.742C445.708 477.742 446.589 477.379 447.315 476.653C448.04 475.928 448.403 475.047 448.403 474.01C448.403 472.974 448.04 472.093 447.315 471.367C446.589 470.641 445.708 470.279 444.672 470.279C443.635 470.279 442.754 470.641 442.028 471.367C441.303 472.093 440.94 472.974 440.94 474.01C440.94 475.047 441.303 475.928 442.028 476.653C442.754 477.379 443.635 477.742 444.672 477.742ZM442.806 474.632C442.64 474.632 442.495 474.57 442.37 474.446C442.246 474.321 442.184 474.176 442.184 474.01C442.184 473.844 442.246 473.699 442.37 473.575C442.495 473.45 442.64 473.388 442.806 473.388C442.972 473.388 443.117 473.45 443.241 473.575C443.365 473.699 443.428 473.844 443.428 474.01C443.428 474.176 443.365 474.321 443.241 474.446C443.117 474.57 442.972 474.632 442.806 474.632ZM444.672 474.632C444.506 474.632 444.361 474.57 444.236 474.446C444.112 474.321 444.05 474.176 444.05 474.01C444.05 473.844 444.112 473.699 444.236 473.575C444.361 473.45 444.506 473.388 444.672 473.388C444.837 473.388 444.983 473.45 445.107 473.575C445.231 473.699 445.294 473.844 445.294 474.01C445.294 474.176 445.231 474.321 445.107 474.446C444.983 474.57 444.837 474.632 444.672 474.632ZM446.537 474.632C446.372 474.632 446.226 474.57 446.102 474.446C445.978 474.321 445.915 474.176 445.915 474.01C445.915 473.844 445.978 473.699 446.102 473.575C446.226 473.45 446.372 473.388 446.537 473.388C446.703 473.388 446.848 473.45 446.973 473.575C447.097 473.699 447.159 473.844 447.159 474.01C447.159 474.176 447.097 474.321 446.973 474.446C446.848 474.57 446.703 474.632 446.537 474.632ZM435.964 488.937C435.28 488.937 434.695 488.693 434.207 488.206C433.72 487.719 433.477 487.133 433.477 486.449V469.035C433.477 468.351 433.72 467.765 434.207 467.278C434.695 466.79 435.28 466.547 435.964 466.547H453.379C454.063 466.547 454.649 466.79 455.136 467.278C455.623 467.765 455.867 468.351 455.867 469.035V486.449C455.867 487.133 455.623 487.719 455.136 488.206C454.649 488.693 454.063 488.937 453.379 488.937H435.964ZM435.964 486.449H453.379V469.035H435.964V486.449Z" fill="#00A19A"/>
<rect x="493" y="347" width="239" height="102" rx="35.824" fill="#007671"/>
<circle cx="543.751" cy="398.123" r="32.8387" fill="#00A19A"/>
<circle cx="543.751" cy="398.123" r="32.0924" stroke="white" stroke-opacity="0.1" stroke-width="1.49267"/>
<path d="M543.005 396.284C538.037 396.284 534.049 392.296 534.049 387.328C534.049 382.43 538.037 378.372 543.005 378.372C547.902 378.372 551.961 382.43 551.961 387.328C551.961 392.296 547.902 396.284 543.005 396.284ZM549.722 400.132C554.829 401.531 558.678 406.219 558.678 411.817C558.678 413.146 557.558 414.196 556.229 414.196H529.71C528.381 414.196 527.332 413.146 527.332 411.817C527.332 406.219 531.11 401.531 536.288 400.132V404.33C534.678 404.82 533.489 406.289 533.489 408.039C533.489 410.208 535.238 411.957 537.407 411.957C539.576 411.957 541.325 410.208 541.325 408.039C541.325 406.289 540.136 404.82 538.527 404.33V399.712C538.806 399.712 539.086 399.642 539.436 399.642H546.503C546.853 399.642 547.133 399.712 547.483 399.712V403.77C545.523 404.26 544.124 406.149 544.124 408.248V410.278C544.124 410.627 544.264 410.907 544.474 411.117L545.174 411.817C545.384 412.027 545.733 412.027 545.943 411.817L546.713 411.047C546.993 410.837 546.993 410.487 546.713 410.208L546.363 409.858V408.039C546.363 406.709 547.553 405.66 548.952 405.869C550.071 406.009 550.841 407.059 550.841 408.178V409.858L550.421 410.208C550.211 410.487 550.211 410.837 550.421 411.047L551.191 411.817C551.401 412.027 551.821 412.027 552.031 411.817L552.73 411.117C552.94 410.907 553.08 410.627 553.08 410.278V408.039C553.08 406.009 551.611 404.26 549.722 403.77V400.132ZM535.728 408.039C535.728 407.129 536.497 406.359 537.407 406.359C538.317 406.359 539.086 407.129 539.086 408.039C539.086 409.018 538.317 409.718 537.407 409.718C536.497 409.718 535.728 409.018 535.728 408.039Z" fill="white"/>
<rect opacity="0.2" x="597.487" y="413.05" width="11.9413" height="11.9413" rx="5.97067" fill="white"/>
<rect opacity="0.2" x="616.892" y="413.05" width="11.9413" height="11.9413" rx="5.97067" fill="white"/>
<rect opacity="0.2" x="636.296" y="413.05" width="11.9413" height="11.9413" rx="5.97067" fill="white"/>
<rect opacity="0.6" x="597" y="371" width="101" height="12" rx="6" fill="white"/>
<rect opacity="0.6" x="597" y="389" width="59" height="12" rx="6" fill="white"/>
<path d="M624.014 347.372H576.589C595.994 347.372 604.204 305.213 584.843 295.129C608.682 302.592 624.014 321.997 624.014 347.372Z" fill="#007671"/>
<path d="M765.287 254.161C767.713 254.161 769.765 256.214 769.765 258.639V285.507C769.765 288.026 767.713 289.985 765.287 289.985H726.478C723.959 289.985 722 288.026 722 285.507V252.669C722 250.243 723.959 248.191 726.478 248.191H741.405L747.375 254.161H765.287ZM754.839 273.846V270.394C754.839 269.741 754.186 269.088 753.533 269.088H748.868V264.423C748.868 263.77 748.215 263.117 747.562 263.117H744.11C743.457 263.117 742.897 263.77 742.897 264.423V269.088H738.139C737.486 269.088 736.927 269.741 736.927 270.394V273.846C736.927 274.499 737.486 275.059 738.139 275.059H742.897V279.817C742.897 280.47 743.457 281.029 744.11 281.029H747.562C748.215 281.029 748.868 280.47 748.868 279.817V275.059H753.533C754.186 275.059 754.839 274.499 754.839 273.846Z" fill="#C9E5E3"/>
<path d="M502.979 124.103C509.673 124.103 515.061 128.919 516.04 135.123C516.122 135.531 515.795 135.857 515.387 135.857H490.653C490.245 135.857 489.918 135.531 490 135.123C490.98 128.919 496.367 124.103 502.979 124.103ZM515.387 138.47C515.795 138.47 516.122 138.878 516.04 139.286C515.061 145.49 509.673 150.224 502.979 150.224C496.367 150.224 490.98 145.49 490 139.286C489.918 138.878 490.245 138.47 490.653 138.47H515.387ZM519.55 113.817L536.856 131.123C537.101 131.368 537.101 131.858 536.774 132.102C531.631 135.776 524.53 135.368 519.877 130.796C515.305 126.143 514.897 119.042 518.571 113.899C518.816 113.572 519.305 113.572 519.55 113.817ZM538.407 112.266C542.978 116.919 543.386 124.021 539.713 129.164C539.468 129.49 538.978 129.49 538.733 129.245L521.428 111.94C521.183 111.695 521.183 111.205 521.509 110.96C526.652 107.287 533.754 107.695 538.407 112.266Z" fill="#C9E5E3"/>
<path d="M659.51 58.132C661.329 58.132 662.868 59.6713 662.868 61.4905V86.1195C662.868 88.0087 661.329 89.478 659.51 89.478H639.359C637.469 89.478 636 88.0087 636 86.1195V61.4905C636 59.6713 637.469 58.132 639.359 58.132H643.067C644.046 55.5431 646.495 53.654 649.434 53.654C652.303 53.654 654.752 55.5431 655.731 58.132H659.51ZM642.717 81.0817C643.627 81.0817 644.396 80.3821 644.396 79.4025C644.396 78.4929 643.627 77.7232 642.717 77.7232C641.737 77.7232 641.038 78.4929 641.038 79.4025C641.038 80.3821 641.737 81.0817 642.717 81.0817ZM642.717 74.3647C643.627 74.3647 644.396 73.665 644.396 72.6855C644.396 71.7759 643.627 71.0062 642.717 71.0062C641.737 71.0062 641.038 71.7759 641.038 72.6855C641.038 73.665 641.737 74.3647 642.717 74.3647ZM649.434 58.132C648.175 58.132 647.195 59.1815 647.195 60.371C647.195 61.6304 648.175 62.61 649.434 62.61C650.623 62.61 651.673 61.6304 651.673 60.371C651.673 59.1815 650.623 58.132 649.434 58.132ZM657.271 80.522C657.83 80.522 658.39 80.0322 658.39 79.4025C658.39 78.8427 657.83 78.283 657.271 78.283H648.315C647.685 78.283 647.195 78.8427 647.195 79.4025C647.195 80.0322 647.685 80.522 648.315 80.522H657.271ZM657.271 73.805C657.83 73.805 658.39 73.3152 658.39 72.6855C658.39 72.1257 657.83 71.566 657.271 71.566H648.315C647.685 71.566 647.195 72.1257 647.195 72.6855C647.195 73.3152 647.685 73.805 648.315 73.805H657.271Z" fill="#C9E5E3"/>
<path d="M378.88 76.222C379.524 76.8167 379.524 77.8575 378.88 78.4522C378.582 78.7496 378.186 78.8983 377.789 78.8983C377.343 78.8983 376.947 78.7496 376.649 78.4522L376.303 78.1053L362.624 91.6851C361.632 92.6763 360.344 93.1719 359.006 93.1719C357.568 93.1719 356.181 92.5772 355.14 91.4373C353.356 89.3557 353.703 86.2333 355.586 84.3005L369.067 70.8694L368.72 70.5224C368.075 69.9277 368.075 68.8869 368.72 68.2922C369.017 67.9948 369.414 67.7966 369.86 67.7966C370.256 67.7966 370.653 67.9948 370.95 68.2922L378.88 76.222ZM369.364 80.4842L374.023 75.875L371.297 73.0996L363.912 80.4842H369.364Z" fill="#C9E5E3"/>
</g>
<defs>
<clipPath id="clip0_4188_24381">
<rect width="760" height="560" rx="8" fill="white"/>
</clipPath>
</defs>
</svg>
