<svg width="716" height="600" viewBox="0 0 716 600" fill="none" xmlns="http://www.w3.org/2000/svg">
<g clip-path="url(#clip0_2741_21984)" filter="url(#filter0_b_2741_21984)">
<rect width="716" height="600" fill="#323232"/>
<path d="M87 74V106C87 132.51 108.49 154 135 154H381C407.51 154 429 175.49 429 202V266C429 292.51 407.51 314 381 314H119.5C101.551 314 87 328.551 87 346.5V346.5C87 364.449 101.551 379 119.5 379H381C407.51 379 429 400.49 429 427V464C429 490.51 450.49 512 477 512H555C581.51 512 603 490.51 603 464V202C603 175.49 624.49 154 651 154H722" stroke="#626262" stroke-width="2" stroke-dasharray="8 4"/>
<g opacity="0.4" filter="url(#filter1_d_2741_21984)">
<circle cx="87" cy="74" r="20" fill="#AB001F"/>
</g>
<circle cx="86.9999" cy="74" r="10" fill="#AB001F"/>
<g filter="url(#filter2_d_2741_21984)">
<circle cx="153" cy="153" r="16" fill="#6E6E6E"/>
<circle cx="153" cy="153" r="15.5" stroke="white" stroke-opacity="0.2"/>
</g>
<path d="M154.961 147.091V158H152.654V149.28H152.591L150.092 150.846V148.801L152.793 147.091H154.961Z" fill="white"/>
<g filter="url(#filter3_d_2741_21984)">
<circle cx="153" cy="245" r="40" fill="#AB001F"/>
<circle cx="153" cy="245" r="39" stroke="white" stroke-opacity="0.2" stroke-width="2"/>
</g>
<g filter="url(#filter4_d_2741_21984)">
<circle cx="153" cy="245" r="47" stroke="white" stroke-opacity="0.2" stroke-width="2" shape-rendering="crispEdges"/>
</g>
<path d="M153 171.667C151.527 171.667 150.333 170.473 150.333 169C150.333 167.527 151.527 166.333 153 166.333C154.473 166.333 155.667 167.527 155.667 169C155.667 170.473 154.473 171.667 153 171.667ZM153 207.667C151.527 207.667 150.333 206.473 150.333 205C150.333 203.527 151.527 202.333 153 202.333C154.473 202.333 155.667 203.527 155.667 205C155.667 206.473 154.473 207.667 153 207.667ZM153.5 169L153.5 205L152.5 205L152.5 169L153.5 169Z" fill="white"/>
<path d="M168 231C169.625 231 171 232.375 171 234V235H135V234C135 232.375 136.312 231 138 231H168ZM135 256V237H171V256C171 257.688 169.625 259 168 259H138C136.312 259 135 257.688 135 256ZM158 241C157.438 241 157 241.5 157 242C157 242.562 157.438 243 158 243H166C166.5 243 167 242.562 167 242C167 241.5 166.5 241 166 241H158ZM158 245C157.438 245 157 245.5 157 246C157 246.562 157.438 247 158 247H166C166.5 247 167 246.562 167 246C167 245.5 166.5 245 166 245H158ZM158 249C157.438 249 157 249.5 157 250C157 250.562 157.438 251 158 251H166C166.5 251 167 250.562 167 250C167 249.5 166.5 249 166 249H158ZM146 241C143.75 241 142 242.812 142 245C142 247.25 143.75 249 146 249C148.188 249 150 247.25 150 245C150 242.812 148.188 241 146 241ZM142 251C140.312 251 139 252.375 139 254C139 254.562 139.438 255 140 255H152C152.5 255 153 254.562 153 254C153 252.375 151.625 251 150 251H142Z" fill="white"/>
<g filter="url(#filter5_d_2741_21984)">
<circle cx="153" cy="379" r="16" fill="#6E6E6E"/>
<circle cx="153" cy="379" r="15.5" stroke="white" stroke-opacity="0.2"/>
</g>
<path d="M152.973 384.149C152.177 384.149 151.469 384.012 150.847 383.739C150.229 383.462 149.741 383.082 149.383 382.599C149.027 382.113 148.845 381.551 148.834 380.916H151.156C151.17 381.182 151.258 381.417 151.417 381.619C151.581 381.818 151.797 381.972 152.067 382.082C152.337 382.192 152.641 382.248 152.978 382.248C153.33 382.248 153.64 382.185 153.91 382.061C154.18 381.937 154.391 381.765 154.544 381.544C154.697 381.324 154.773 381.07 154.773 380.783C154.773 380.491 154.691 380.234 154.528 380.01C154.368 379.783 154.137 379.605 153.836 379.478C153.537 379.35 153.182 379.286 152.77 379.286H151.753V377.592H152.77C153.118 377.592 153.425 377.532 153.692 377.411C153.962 377.29 154.171 377.123 154.32 376.91C154.47 376.694 154.544 376.441 154.544 376.154C154.544 375.88 154.478 375.641 154.347 375.435C154.219 375.225 154.038 375.062 153.804 374.945C153.573 374.827 153.303 374.769 152.994 374.769C152.682 374.769 152.396 374.826 152.136 374.939C151.877 375.049 151.669 375.207 151.513 375.413C151.357 375.619 151.273 375.861 151.263 376.138H149.052C149.063 375.509 149.242 374.955 149.59 374.476C149.938 373.996 150.407 373.622 150.996 373.352C151.59 373.078 152.259 372.942 153.005 372.942C153.758 372.942 154.416 373.078 154.981 373.352C155.545 373.625 155.984 373.995 156.297 374.46C156.613 374.922 156.769 375.44 156.765 376.015C156.769 376.626 156.579 377.136 156.195 377.544C155.815 377.952 155.32 378.212 154.709 378.322V378.407C155.512 378.51 156.123 378.789 156.542 379.243C156.964 379.694 157.174 380.259 157.17 380.937C157.174 381.559 156.994 382.111 156.632 382.594C156.273 383.077 155.778 383.457 155.146 383.734C154.514 384.011 153.789 384.149 152.973 384.149Z" fill="white"/>
<g filter="url(#filter6_d_2741_21984)">
<circle cx="153" cy="471" r="40" fill="#9A9A9A"/>
<circle cx="153" cy="471" r="39" stroke="white" stroke-opacity="0.1" stroke-width="2"/>
</g>
<g filter="url(#filter7_d_2741_21984)">
<circle cx="153" cy="471" r="47" stroke="white" stroke-opacity="0.1" stroke-width="2" shape-rendering="crispEdges"/>
</g>
<path d="M153 397.667C151.527 397.667 150.333 396.473 150.333 395C150.333 393.527 151.527 392.333 153 392.333C154.473 392.333 155.667 393.527 155.667 395C155.667 396.473 154.473 397.667 153 397.667ZM153 433.667C151.527 433.667 150.333 432.473 150.333 431C150.333 429.527 151.527 428.333 153 428.333C154.473 428.333 155.667 429.527 155.667 431C155.667 432.473 154.473 433.667 153 433.667ZM153.5 395L153.5 431L152.5 431L152.5 395L153.5 395Z" fill="white"/>
<path d="M153.625 468.562C153.875 468.688 154.062 469.062 153.938 469.312C153.5 470.688 152.75 471.938 151.812 473C151.688 473.125 151.5 473.188 151.375 473.188C151.25 473.188 151.125 473.188 151 473.125L149.188 472.062C148.438 472.688 147.562 473.188 146.625 473.562V475.688C146.625 475.938 146.375 476.25 146.062 476.312C145.375 476.438 144.688 476.562 144 476.562C143.25 476.562 142.562 476.438 141.875 476.312C141.562 476.25 141.312 475.938 141.312 475.688V473.562C140.375 473.188 139.5 472.688 138.75 472.062L136.938 473.125C136.812 473.188 136.688 473.188 136.562 473.188C136.438 473.188 136.25 473.125 136.125 473C135.188 471.938 134.438 470.688 134 469.312C133.875 469.062 134.062 468.688 134.312 468.562L136.125 467.5C136 467.062 136 466.562 136 466C136 465.5 136 465 136.125 464.5L134.312 463.5C134.062 463.312 133.875 463 134 462.688C134.438 461.312 135.188 460.125 136.125 459.062C136.25 458.875 136.438 458.812 136.562 458.812C136.688 458.812 136.812 458.875 136.938 458.938L138.75 460C139.5 459.375 140.375 458.812 141.312 458.5V456.375C141.312 456.062 141.562 455.812 141.875 455.75C142.562 455.562 143.25 455.5 144 455.5C144.688 455.5 145.375 455.562 146.062 455.75C146.375 455.812 146.625 456.062 146.625 456.375V458.5C147.562 458.812 148.438 459.375 149.188 460L151 458.938C151.125 458.875 151.25 458.812 151.375 458.812C151.5 458.812 151.688 458.875 151.812 459.062C152.75 460.125 153.5 461.312 153.938 462.688C154.062 463 153.875 463.312 153.625 463.5L151.812 464.5C151.938 465 152 465.5 152 466C152 466.562 151.938 467.062 151.812 467.5L153.625 468.562ZM144 469C145.625 469 147 467.688 147 466C147 464.375 145.625 463 144 463C142.312 463 141 464.375 141 466C141 467.688 142.312 469 144 469ZM173.25 474.938C173.375 475.625 173.5 476.312 173.5 477C173.5 477.75 173.375 478.438 173.25 479.125C173.188 479.438 172.875 479.688 172.625 479.688H170.438C170.125 480.625 169.625 481.5 169 482.25L170.062 484.062C170.125 484.188 170.125 484.312 170.125 484.438C170.125 484.562 170.062 484.75 169.938 484.875C168.875 485.812 167.625 486.562 166.25 487C166 487.125 165.625 486.938 165.5 486.688L164.438 484.875C163.938 485 163.438 485 162.938 485C162.438 485 161.938 485 161.438 484.875L160.438 486.688C160.25 486.938 159.938 487.125 159.625 487C158.25 486.562 157 485.812 156 484.875C155.812 484.75 155.75 484.562 155.75 484.438C155.75 484.312 155.812 484.188 155.875 484.062L156.938 482.25C156.25 481.5 155.75 480.625 155.438 479.688H153.312C153 479.688 152.75 479.438 152.688 479.125C152.5 478.438 152.438 477.75 152.438 477C152.438 476.312 152.5 475.625 152.688 474.938C152.75 474.625 153 474.375 153.312 474.375H155.438C155.75 473.438 156.25 472.562 156.938 471.812L155.875 470C155.812 469.875 155.75 469.75 155.75 469.625C155.75 469.5 155.812 469.312 156 469.188C157 468.25 158.25 467.5 159.625 467.062C159.938 466.938 160.25 467.125 160.438 467.375L161.438 469.188C161.938 469.062 162.438 469 162.938 469C163.438 469 163.938 469.062 164.438 469.188L165.5 467.375C165.625 467.125 166 466.938 166.25 467.062C167.625 467.5 168.875 468.25 169.938 469.188C170.062 469.312 170.125 469.5 170.125 469.625C170.125 469.75 170.125 469.875 170.062 470L169 471.812C169.625 472.562 170.125 473.438 170.438 474.375H172.625C172.875 474.375 173.188 474.625 173.25 474.938ZM162.938 480C164.625 480 165.938 478.688 165.938 477C165.938 475.375 164.625 474 162.938 474C161.312 474 159.938 475.375 159.938 477C159.938 478.688 161.312 480 162.938 480Z" fill="white"/>
<g filter="url(#filter8_d_2741_21984)">
<circle cx="318" cy="153" r="16" fill="#6E6E6E"/>
<circle cx="318" cy="153" r="15.5" stroke="white" stroke-opacity="0.2"/>
</g>
<path d="M314.16 158V156.338L318.043 152.743C318.374 152.423 318.651 152.135 318.874 151.88C319.102 151.624 319.274 151.374 319.391 151.129C319.508 150.88 319.567 150.612 319.567 150.324C319.567 150.005 319.494 149.729 319.348 149.499C319.203 149.264 319.004 149.085 318.752 148.961C318.5 148.833 318.214 148.769 317.894 148.769C317.56 148.769 317.269 148.836 317.021 148.971C316.772 149.106 316.58 149.3 316.445 149.552C316.31 149.804 316.243 150.104 316.243 150.452H314.054C314.054 149.738 314.215 149.119 314.538 148.593C314.861 148.067 315.314 147.661 315.897 147.373C316.479 147.086 317.15 146.942 317.91 146.942C318.691 146.942 319.371 147.08 319.95 147.357C320.533 147.631 320.985 148.011 321.309 148.497C321.632 148.984 321.793 149.541 321.793 150.17C321.793 150.582 321.712 150.988 321.548 151.39C321.388 151.791 321.103 152.237 320.691 152.727C320.279 153.213 319.698 153.797 318.949 154.479L317.356 156.04V156.114H321.937V158H314.16Z" fill="white"/>
<g filter="url(#filter9_d_2741_21984)">
<circle cx="318" cy="245" r="40" fill="#525252"/>
<circle cx="318" cy="245" r="39" stroke="white" stroke-opacity="0.1" stroke-width="2"/>
</g>
<g filter="url(#filter10_d_2741_21984)">
<circle cx="318" cy="245" r="47" stroke="white" stroke-opacity="0.1" stroke-width="2" shape-rendering="crispEdges"/>
</g>
<path d="M318 171.667C316.527 171.667 315.333 170.473 315.333 169C315.333 167.527 316.527 166.333 318 166.333C319.473 166.333 320.667 167.527 320.667 169C320.667 170.473 319.473 171.667 318 171.667ZM318 207.667C316.527 207.667 315.333 206.473 315.333 205C315.333 203.527 316.527 202.333 318 202.333C319.473 202.333 320.667 203.527 320.667 205C320.667 206.473 319.473 207.667 318 207.667ZM318.5 169L318.5 205L317.5 205L317.5 169L318.5 169Z" fill="white"/>
<path d="M325 240C325 246.125 319.125 251 312 251C309.562 251 307.375 250.5 305.438 249.5C303.875 250.312 301.875 251 299.438 251C299.25 251 299.062 250.938 299 250.75C298.938 250.562 298.938 250.375 299.125 250.25C299.125 250.188 300.562 248.688 301.562 246.625C299.938 244.75 299 242.5 299 240C299 233.938 304.812 229 312 229C319.125 229 325 233.938 325 240ZM336.438 256.75C337.438 258.75 338.812 260.188 338.812 260.25C339 260.375 339 260.562 338.938 260.75C338.875 260.938 338.688 261 338.5 261C336.25 261 334.312 260.438 332.75 259.688C331.062 260.5 329.062 261 327 261C321.312 261 316.625 257.5 315.312 252.688C322 251.375 327 246.188 327 240C327 239.688 326.938 239.375 326.938 239.062C326.938 239.062 326.938 239 327 239C333.625 239 339 243.938 339 250C339 252.562 338 254.875 336.438 256.75Z" fill="white"/>
<g filter="url(#filter11_d_2741_21984)">
<circle cx="318" cy="379" r="16" fill="#6E6E6E"/>
<circle cx="318" cy="379" r="15.5" stroke="white" stroke-opacity="0.2"/>
</g>
<path d="M313.136 382.082V380.266L317.69 373.091H319.256V375.605H318.33L315.459 380.149V380.234H321.93V382.082H313.136ZM318.372 384V381.528L318.415 380.724V373.091H320.578V384H318.372Z" fill="white"/>
<g filter="url(#filter12_d_2741_21984)">
<circle cx="318" cy="471" r="40" fill="#D8D8D8"/>
<circle cx="318" cy="471" r="39" stroke="white" stroke-opacity="0.1" stroke-width="2"/>
</g>
<g filter="url(#filter13_d_2741_21984)">
<circle cx="318" cy="471" r="47" stroke="white" stroke-opacity="0.1" stroke-width="2" shape-rendering="crispEdges"/>
</g>
<path d="M318 397.667C316.527 397.667 315.333 396.473 315.333 395C315.333 393.527 316.527 392.333 318 392.333C319.473 392.333 320.667 393.527 320.667 395C320.667 396.473 319.473 397.667 318 397.667ZM318 433.667C316.527 433.667 315.333 432.473 315.333 431C315.333 429.527 316.527 428.333 318 428.333C319.473 428.333 320.667 429.527 320.667 431C320.667 432.473 319.473 433.667 318 433.667ZM318.5 395L318.5 431L317.5 431L317.5 395L318.5 395Z" fill="white"/>
<path d="M331 461C332.625 461 334 462.375 334 464V482C334 483.688 332.625 485 331 485H305C303.312 485 302 483.688 302 482V460C302 458.375 303.312 457 305 457H315L319 461H331ZM323 474.5C323.812 474.5 324.5 473.875 324.5 473C324.5 472.188 323.812 471.562 323 471.562H319.5V468C319.5 467.188 318.812 466.5 318 466.5C317.125 466.5 316.5 467.188 316.5 468V471.562H313C312.125 471.562 311.5 472.188 311.5 473C311.5 473.875 312.125 474.5 313 474.5H316.5V478.062C316.5 478.875 317.125 479.5 318 479.5C318.812 479.5 319.5 478.875 319.5 478.062V474.5H323Z" fill="#323232"/>
<g filter="url(#filter14_d_2741_21984)">
<circle cx="511" cy="511" r="16" transform="rotate(-180 511 511)" fill="#6E6E6E"/>
<circle cx="511" cy="511" r="15.5" transform="rotate(-180 511 511)" stroke="white" stroke-opacity="0.2"/>
</g>
<path d="M511.035 517.149C510.282 517.149 509.611 517.011 509.021 516.734C508.435 516.457 507.97 516.075 507.626 515.588C507.281 515.102 507.102 514.544 507.088 513.916H509.325C509.35 514.338 509.527 514.681 509.857 514.944C510.188 515.207 510.58 515.338 511.035 515.338C511.397 515.338 511.716 515.258 511.993 515.098C512.274 514.935 512.492 514.71 512.649 514.422C512.808 514.131 512.888 513.797 512.888 513.42C512.888 513.037 512.807 512.7 512.643 512.408C512.483 512.117 512.262 511.89 511.977 511.727C511.693 511.563 511.368 511.48 511.003 511.476C510.683 511.476 510.372 511.542 510.07 511.673C509.772 511.805 509.54 511.984 509.373 512.211L507.322 511.844L507.839 506.091H514.508V507.977H509.74L509.458 510.709H509.522C509.714 510.439 510.003 510.216 510.39 510.038C510.777 509.86 511.21 509.772 511.69 509.772C512.347 509.772 512.933 509.926 513.448 510.235C513.963 510.544 514.369 510.968 514.667 511.508C514.966 512.044 515.113 512.662 515.11 513.362C515.113 514.097 514.943 514.75 514.598 515.322C514.257 515.89 513.78 516.338 513.165 516.664C512.555 516.988 511.844 517.149 511.035 517.149Z" fill="white"/>
<g filter="url(#filter15_d_2741_21984)">
<circle cx="511" cy="419" r="40" transform="rotate(-180 511 419)" fill="#AB001F"/>
<circle cx="511" cy="419" r="39" transform="rotate(-180 511 419)" stroke="white" stroke-opacity="0.2" stroke-width="2"/>
</g>
<g filter="url(#filter16_d_2741_21984)">
<path d="M464 419C464 393.043 485.043 372 511 372C536.957 372 558 393.043 558 419C558 444.957 536.957 466 511 466C485.043 466 464 444.957 464 419Z" stroke="white" stroke-opacity="0.2" stroke-width="2" shape-rendering="crispEdges"/>
</g>
<path d="M511 492.333C512.473 492.333 513.667 493.527 513.667 495C513.667 496.473 512.473 497.667 511 497.667C509.527 497.667 508.333 496.473 508.333 495C508.333 493.527 509.527 492.333 511 492.333ZM511 456.333C512.473 456.333 513.667 457.527 513.667 459C513.667 460.473 512.473 461.667 511 461.667C509.527 461.667 508.333 460.473 508.333 459C508.333 457.527 509.527 456.333 511 456.333ZM510.5 495L510.5 459L511.5 459L511.5 495L510.5 495Z" fill="white"/>
<path d="M505 419C500.562 419 497 415.438 497 411C497 406.625 500.562 403 505 403C509.375 403 513 406.625 513 411C513 415.438 509.375 419 505 419ZM508.125 422C514.125 422 519 426.875 519 432.875C519 434.062 518 435 516.812 435H493.125C491.938 435 491 434.062 491 432.875C491 426.875 495.812 422 501.812 422H508.125ZM520.938 423C526.5 423 531 427.5 531 433C531 434.125 530.062 435 529 435H520.375C520.75 434.375 521 433.688 521 432.875C521 428.938 519.188 425.375 516.375 423H520.938ZM518 419C516 419 514.25 418.25 513 416.938C514.25 415.312 515 413.25 515 411C515 409.375 514.5 407.812 513.812 406.438C514.938 405.562 516.375 405 518 405C521.812 405 525 408.188 525 412C525 415.875 521.812 419 518 419Z" fill="white"/>
<g filter="url(#filter17_d_2741_21984)">
<circle cx="603" cy="245" r="16" transform="rotate(90 603 245)" fill="#6E6E6E"/>
<circle cx="603" cy="245" r="15.5" transform="rotate(90 603 245)" stroke="white" stroke-opacity="0.2"/>
</g>
<path d="M603.12 250.149C602.559 250.146 602.017 250.051 601.495 249.867C600.977 249.682 600.512 249.382 600.1 248.967C599.688 248.551 599.361 248.001 599.119 247.315C598.882 246.63 598.763 245.788 598.763 244.79C598.766 243.874 598.871 243.056 599.077 242.335C599.286 241.61 599.585 240.996 599.972 240.492C600.362 239.988 600.829 239.604 601.373 239.341C601.916 239.075 602.525 238.942 603.2 238.942C603.928 238.942 604.57 239.084 605.128 239.368C605.686 239.648 606.133 240.03 606.47 240.513C606.811 240.996 607.017 241.538 607.088 242.138H604.814C604.725 241.758 604.539 241.46 604.254 241.243C603.97 241.026 603.619 240.918 603.2 240.918C602.49 240.918 601.95 241.227 601.58 241.845C601.215 242.463 601.028 243.303 601.021 244.364H601.096C601.259 244.041 601.479 243.766 601.756 243.539C602.037 243.308 602.355 243.132 602.71 243.011C603.068 242.887 603.447 242.825 603.844 242.825C604.491 242.825 605.066 242.978 605.57 243.283C606.074 243.585 606.472 244 606.763 244.529C607.055 245.059 607.2 245.664 607.2 246.346C607.2 247.085 607.028 247.741 606.683 248.317C606.343 248.892 605.865 249.343 605.251 249.67C604.64 249.993 603.93 250.153 603.12 250.149ZM603.109 248.338C603.464 248.338 603.782 248.253 604.063 248.082C604.343 247.912 604.563 247.681 604.723 247.39C604.883 247.099 604.963 246.772 604.963 246.41C604.963 246.048 604.883 245.723 604.723 245.435C604.567 245.147 604.35 244.918 604.073 244.748C603.796 244.577 603.48 244.492 603.125 244.492C602.859 244.492 602.612 244.542 602.385 244.641C602.161 244.741 601.964 244.879 601.794 245.057C601.627 245.234 601.495 245.44 601.399 245.675C601.303 245.906 601.256 246.152 601.256 246.415C601.256 246.767 601.335 247.088 601.495 247.379C601.659 247.67 601.879 247.903 602.156 248.077C602.436 248.251 602.754 248.338 603.109 248.338Z" fill="white"/>
<g filter="url(#filter18_d_2741_21984)">
<circle cx="511" cy="245" r="40" transform="rotate(90 511 245)" fill="#9A9A9A"/>
<circle cx="511" cy="245" r="39" transform="rotate(90 511 245)" stroke="white" stroke-opacity="0.1" stroke-width="2"/>
</g>
<path d="M509.812 241.188C508.188 241.688 506.938 243.25 506.938 245.062C506.938 247.25 508.75 249.062 511 249.062C512.75 249.062 514.312 247.812 514.812 246.188L518.5 242.438C518.812 243.25 518.938 244.125 518.938 245.062C518.938 249.438 515.375 253.062 511 253.062C506.562 253.062 503 249.438 503 245.062C503 240.625 506.562 237.062 511 237.062C511.875 237.062 512.75 237.188 513.562 237.5L509.812 241.188ZM524.062 242.125L525.375 240.875C525.75 242.188 526 243.562 526 245.062C526 253.312 519.25 260 511 260C502.688 260 496 253.312 496 245.062C496 236.75 502.688 230.062 511 230.062C512.438 230.062 513.812 230.25 515.125 230.625L513.875 231.938C513.25 232.5 512.938 233.375 513 234.25C512.312 234.125 511.688 234.062 511 234.062C504.875 234.062 500 238.938 500 245.062C500 251.125 504.875 256 511 256C517.062 256 521.938 251.125 521.938 245.062C521.938 244.312 521.875 243.688 521.75 243C521.812 243 521.875 243.062 522 243.062C522.75 243.062 523.5 242.75 524.062 242.125ZM526.938 235.75C527.062 236.125 526.938 236.5 526.688 236.75L522.688 240.75C522.5 240.938 522.25 241.062 522 241.062C521.875 241.062 521.812 241 521.75 241L517.875 240.25L512.5 245.562C512.25 245.875 511.875 246.062 511.5 246.062C511.062 246.062 510.688 245.875 510.438 245.562C509.812 245 509.812 244.062 510.438 243.5L515.75 238.125L515 234.25C514.938 233.875 515 233.562 515.25 233.312L519.25 229.312C519.5 229.062 519.875 228.938 520.25 229.062C520.625 229.188 520.875 229.5 520.938 229.812L522 234.062L526.188 235.062C526.5 235.125 526.812 235.375 526.938 235.75Z" fill="white"/>
<g filter="url(#filter19_d_2741_21984)">
<circle cx="511" cy="245" r="47" transform="rotate(90 511 245)" stroke="white" stroke-opacity="0.1" stroke-width="2" shape-rendering="crispEdges"/>
</g>
<path d="M584.333 245C584.333 243.527 585.527 242.333 587 242.333C588.473 242.333 589.667 243.527 589.667 245C589.667 246.473 588.473 247.667 587 247.667C585.527 247.667 584.333 246.473 584.333 245ZM548.333 245C548.333 243.527 549.527 242.333 551 242.333C552.473 242.333 553.667 243.527 553.667 245C553.667 246.473 552.473 247.667 551 247.667C549.527 247.667 548.333 246.473 548.333 245ZM587 245.5L551 245.5L551 244.5L587 244.5V245.5Z" fill="white"/>
<path fill-rule="evenodd" clip-rule="evenodd" d="M555.381 78.16C557.808 76.7591 560.624 75.9576 563.627 75.9576H564.52C573.643 75.9576 581.038 83.353 581.038 92.4758C581.038 93.8616 580.868 95.2076 580.546 96.4938H581.931C591.301 96.4938 598.896 104.089 598.896 113.459C598.896 122.828 591.301 130.423 581.931 130.423H497.623L497.554 130.423H496.661L496.592 130.423H494.429C490.249 130.423 486.422 128.911 483.465 126.404C477.152 122.155 473 114.943 473 106.762C473 93.6942 483.594 83.1007 496.661 83.1007H497.554C499.752 83.1007 501.881 83.4005 503.9 83.9614C506.395 71.7508 517.197 62.5645 530.144 62.5645H531.037C541.836 62.5645 551.142 68.9547 555.381 78.16Z" fill="white" fill-opacity="0.16"/>
<path fill-rule="evenodd" clip-rule="evenodd" d="M609.76 62.0922C612.071 57.3037 616.972 54 622.645 54H623.122C631.019 54 637.421 60.4018 637.421 68.2988C637.421 68.8231 637.393 69.3408 637.338 69.8505C642.244 70.6123 646 74.8556 646 79.9761C646 85.6356 641.412 90.2235 635.753 90.2235H601.436C595.776 90.2235 591.188 85.6356 591.188 79.9761C591.188 75.7177 593.786 72.0659 597.483 70.5188C597.418 70.1061 597.384 69.683 597.384 69.2521C597.384 64.7771 601.012 61.1494 605.487 61.1494H605.963C607.335 61.1494 608.628 61.4904 609.76 62.0922Z" fill="white" fill-opacity="0.08"/>
<path d="M619 498.291L623.077 494.214C627.061 490.23 633.521 490.23 637.505 494.214V494.214C641.489 498.198 647.948 498.198 651.932 494.214V494.214C655.916 490.23 662.375 490.23 666.359 494.214V494.214C670.343 498.198 676.802 498.198 680.786 494.214V494.214C684.77 490.23 691.23 490.23 695.214 494.214V494.214C699.198 498.198 705.657 498.198 709.641 494.214V494.214C713.625 490.23 720.084 490.23 724.068 494.214V494.214C728.052 498.198 734.511 498.198 738.495 494.214V494.214C742.479 490.23 748.939 490.23 752.923 494.214L757 498.291" stroke="white" stroke-opacity="0.1" stroke-width="2"/>
<path d="M619 510.836L623.077 506.759C627.061 502.775 633.521 502.775 637.505 506.759V506.759C641.489 510.743 647.948 510.743 651.932 506.759V506.759C655.916 502.775 662.375 502.775 666.359 506.759V506.759C670.343 510.743 676.802 510.743 680.786 506.759V506.759C684.77 502.775 691.23 502.775 695.214 506.759V506.759C699.198 510.743 705.657 510.743 709.641 506.759V506.759C713.625 502.775 720.084 502.775 724.068 506.759V506.759C728.052 510.743 734.511 510.743 738.495 506.759V506.759C742.479 502.775 748.939 502.775 752.923 506.759L757 510.836" stroke="white" stroke-opacity="0.1" stroke-width="2"/>
<path d="M619 524.009L623.077 519.932C627.061 515.948 633.521 515.948 637.505 519.932V519.932C641.489 523.916 647.948 523.916 651.932 519.932V519.932C655.916 515.948 662.375 515.948 666.359 519.932V519.932C670.343 523.916 676.802 523.916 680.786 519.932V519.932C684.77 515.948 691.23 515.948 695.214 519.932V519.932C699.198 523.916 705.657 523.916 709.641 519.932V519.932C713.625 515.948 720.084 515.948 724.068 519.932V519.932C728.052 523.916 734.511 523.916 738.495 519.932V519.932C742.479 515.948 748.939 515.948 752.923 519.932L757 524.009" stroke="white" stroke-opacity="0.1" stroke-width="2"/>
<path d="M-51 256.291L-46.9227 252.214C-42.9388 248.23 -36.4794 248.23 -32.4955 252.214V252.214C-28.5115 256.198 -22.0522 256.198 -18.0682 252.214V252.214C-14.0842 248.23 -7.62489 248.23 -3.64091 252.214V252.214C0.343074 256.198 6.80238 256.198 10.7864 252.214V252.214C14.7703 248.23 21.2297 248.23 25.2136 252.214V252.214C29.1976 256.198 35.6569 256.198 39.6409 252.214V252.214C43.6249 248.23 50.0842 248.23 54.0682 252.214V252.214C58.0522 256.198 64.5115 256.198 68.4955 252.214V252.214C72.4794 248.23 78.9387 248.23 82.9227 252.214L87 256.291" stroke="white" stroke-opacity="0.1" stroke-width="2"/>
<path d="M-51 268.836L-46.9227 264.759C-42.9388 260.775 -36.4794 260.775 -32.4955 264.759V264.759C-28.5115 268.743 -22.0522 268.743 -18.0682 264.759V264.759C-14.0842 260.775 -7.62489 260.775 -3.64091 264.759V264.759C0.343074 268.743 6.80238 268.743 10.7864 264.759V264.759C14.7703 260.775 21.2297 260.775 25.2136 264.759V264.759C29.1976 268.743 35.6569 268.743 39.6409 264.759V264.759C43.6249 260.775 50.0842 260.775 54.0682 264.759V264.759C58.0522 268.743 64.5115 268.743 68.4955 264.759V264.759C72.4794 260.775 78.9387 260.775 82.9227 264.759L87 268.836" stroke="white" stroke-opacity="0.1" stroke-width="2"/>
<path d="M-51 282.009L-46.9227 277.932C-42.9388 273.948 -36.4794 273.948 -32.4955 277.932V277.932C-28.5115 281.916 -22.0522 281.916 -18.0682 277.932V277.932C-14.0842 273.948 -7.62489 273.948 -3.64091 277.932V277.932C0.343074 281.916 6.80238 281.916 10.7864 277.932V277.932C14.7703 273.948 21.2297 273.948 25.2136 277.932V277.932C29.1976 281.916 35.6569 281.916 39.6409 277.932V277.932C43.6249 273.948 50.0842 273.948 54.0682 277.932V277.932C58.0522 281.916 64.5115 281.916 68.4955 277.932V277.932C72.4794 273.948 78.9387 273.948 82.9227 277.932L87 282.009" stroke="white" stroke-opacity="0.1" stroke-width="2"/>
<path d="M464 323.291L468.077 319.214C472.061 315.23 478.521 315.23 482.505 319.214V319.214C486.489 323.198 492.948 323.198 496.932 319.214V319.214C500.916 315.23 507.375 315.23 511.359 319.214V319.214C515.343 323.198 521.802 323.198 525.786 319.214V319.214C529.77 315.23 536.23 315.23 540.214 319.214L547.427 326.427" stroke="white" stroke-opacity="0.1" stroke-width="2"/>
<path d="M464 335.836L468.077 331.759C472.061 327.775 478.521 327.775 482.505 331.759V331.759C486.489 335.743 492.948 335.743 496.932 331.759V331.759C500.916 327.775 507.375 327.775 511.359 331.759V331.759C515.343 335.743 521.802 335.743 525.786 331.759V331.759C529.77 327.775 536.23 327.775 540.214 331.759L547.427 338.973" stroke="white" stroke-opacity="0.1" stroke-width="2"/>
<path d="M464 349.009L468.077 344.932C472.061 340.948 478.521 340.948 482.505 344.932V344.932C486.489 348.916 492.948 348.916 496.932 344.932V344.932C500.916 340.948 507.375 340.948 511.359 344.932V344.932C515.343 348.916 521.802 348.916 525.786 344.932V344.932C529.77 340.948 536.23 340.948 540.214 344.932L547.427 352.146" stroke="white" stroke-opacity="0.1" stroke-width="2"/>
<path fill-rule="evenodd" clip-rule="evenodd" d="M658.278 411.961C658.615 409.685 660.568 408 662.869 408C665.144 408 667.084 409.649 667.449 411.895L669.251 422.95C669.845 426.595 667.242 429.924 663.668 430.321V437.483H662.011V430.292C658.586 429.79 656.112 426.581 656.636 423.041L658.278 411.961ZM641.487 418.862C644.517 418.862 646.974 421.319 646.974 424.349V435.161C646.974 437.918 644.942 440.199 642.294 440.589V451.138H640.68V440.589C638.032 440.199 636 437.918 636 435.161V424.349C636 421.319 638.457 418.862 641.487 418.862ZM655.552 460.404C655.552 457.343 658.033 454.862 661.094 454.862C664.155 454.862 666.636 457.343 666.636 460.404C666.636 463.188 664.584 465.493 661.909 465.887V471H660.279V465.887C657.604 465.493 655.552 463.188 655.552 460.404Z" fill="white" fill-opacity="0.08"/>
<path fill-rule="evenodd" clip-rule="evenodd" d="M217.431 507C214.354 507 211.741 509.254 211.29 512.299L209.094 527.12C208.392 531.855 211.703 536.147 216.284 536.819V546.438H218.5V536.858C223.281 536.327 226.763 531.873 225.969 526.998L223.559 512.21C223.069 509.206 220.474 507 217.431 507ZM230.905 523.339C230.905 519.245 234.224 515.925 238.319 515.925C242.413 515.925 245.732 519.245 245.732 523.339C245.732 527.063 242.986 530.146 239.409 530.673V537.512H237.228V530.673C233.651 530.146 230.905 527.063 230.905 523.339Z" fill="white" fill-opacity="0.08"/>
<g filter="url(#filter20_d_2741_21984)">
<rect x="207" y="84" width="221" height="32" rx="8" fill="#FEE0BC"/>
<path d="M219.861 104V95.2727H225.537V96.598H221.442V98.9673H225.243V100.293H221.442V102.675H225.571V104H219.861ZM229.937 104.128C229.283 104.128 228.722 103.984 228.254 103.697C227.788 103.411 227.428 103.014 227.175 102.509C226.925 102 226.8 101.415 226.8 100.753C226.8 100.088 226.928 99.5014 227.184 98.9929C227.44 98.4815 227.8 98.0838 228.266 97.7997C228.735 97.5128 229.289 97.3693 229.928 97.3693C230.46 97.3693 230.93 97.4673 231.339 97.6634C231.751 97.8565 232.079 98.1307 232.323 98.4858C232.567 98.8381 232.707 99.25 232.741 99.7216H231.266C231.207 99.4062 231.065 99.1435 230.84 98.9332C230.619 98.7202 230.322 98.6136 229.95 98.6136C229.634 98.6136 229.357 98.6989 229.119 98.8693C228.88 99.0369 228.694 99.2784 228.56 99.5938C228.43 99.9091 228.364 100.287 228.364 100.727C228.364 101.173 228.43 101.557 228.56 101.878C228.691 102.196 228.874 102.442 229.11 102.615C229.349 102.786 229.629 102.871 229.95 102.871C230.177 102.871 230.38 102.828 230.559 102.743C230.741 102.655 230.893 102.528 231.015 102.364C231.137 102.199 231.221 101.999 231.266 101.763H232.741C232.704 102.226 232.567 102.636 232.332 102.994C232.096 103.349 231.775 103.628 231.369 103.83C230.962 104.028 230.485 104.128 229.937 104.128ZM233.532 98.7202V97.4545H239.26V98.7202H237.142V104H235.65V98.7202H233.532ZM241.532 99.5852H243.462C244.298 99.5852 244.944 99.7884 245.401 100.195C245.859 100.601 246.089 101.134 246.092 101.793C246.089 102.222 245.984 102.602 245.776 102.935C245.572 103.267 245.273 103.528 244.881 103.719C244.492 103.906 244.019 104 243.462 104H240.488V97.4545H241.975V102.734H243.462C243.798 102.734 244.073 102.649 244.289 102.479C244.505 102.305 244.613 102.084 244.613 101.814C244.613 101.53 244.505 101.298 244.289 101.119C244.073 100.94 243.798 100.851 243.462 100.851H241.532V99.5852ZM249.811 105.901V102.73H250.331C250.47 102.622 250.586 102.476 250.68 102.291C250.774 102.104 250.85 101.884 250.91 101.631C250.973 101.375 251.024 101.089 251.064 100.774C251.103 100.456 251.139 100.114 251.17 99.7472L251.358 97.4545H256.088V102.73H257.102V105.901H255.61V104H251.328V105.901H249.811ZM251.916 102.73H254.613V98.6989H252.696L252.593 99.7472C252.537 100.44 252.461 101.034 252.368 101.528C252.274 102.023 252.123 102.423 251.916 102.73ZM261.109 104.128C260.469 104.128 259.915 103.987 259.447 103.706C258.978 103.425 258.614 103.031 258.356 102.526C258.1 102.02 257.972 101.429 257.972 100.753C257.972 100.077 258.1 99.4844 258.356 98.9759C258.614 98.4673 258.978 98.0724 259.447 97.7912C259.915 97.5099 260.469 97.3693 261.109 97.3693C261.748 97.3693 262.302 97.5099 262.771 97.7912C263.239 98.0724 263.602 98.4673 263.857 98.9759C264.116 99.4844 264.245 100.077 264.245 100.753C264.245 101.429 264.116 102.02 263.857 102.526C263.602 103.031 263.239 103.425 262.771 103.706C262.302 103.987 261.748 104.128 261.109 104.128ZM261.117 102.892C261.464 102.892 261.754 102.797 261.987 102.607C262.219 102.413 262.393 102.155 262.506 101.831C262.623 101.507 262.681 101.146 262.681 100.749C262.681 100.348 262.623 99.9858 262.506 99.6619C262.393 99.3352 262.219 99.0753 261.987 98.8821C261.754 98.6889 261.464 98.5923 261.117 98.5923C260.762 98.5923 260.467 98.6889 260.231 98.8821C259.998 99.0753 259.823 99.3352 259.707 99.6619C259.593 99.9858 259.536 100.348 259.536 100.749C259.536 101.146 259.593 101.507 259.707 101.831C259.823 102.155 259.998 102.413 260.231 102.607C260.467 102.797 260.762 102.892 261.117 102.892ZM265.554 104V97.4545H271.081V104H269.594V98.7202H267.029V104H265.554ZM275.523 104.128C274.884 104.128 274.33 103.987 273.861 103.706C273.392 103.425 273.028 103.031 272.77 102.526C272.514 102.02 272.386 101.429 272.386 100.753C272.386 100.077 272.514 99.4844 272.77 98.9759C273.028 98.4673 273.392 98.0724 273.861 97.7912C274.33 97.5099 274.884 97.3693 275.523 97.3693C276.162 97.3693 276.716 97.5099 277.185 97.7912C277.653 98.0724 278.016 98.4673 278.271 98.9759C278.53 99.4844 278.659 100.077 278.659 100.753C278.659 101.429 278.53 102.02 278.271 102.526C278.016 103.031 277.653 103.425 277.185 103.706C276.716 103.987 276.162 104.128 275.523 104.128ZM275.531 102.892C275.878 102.892 276.168 102.797 276.401 102.607C276.634 102.413 276.807 102.155 276.92 101.831C277.037 101.507 277.095 101.146 277.095 100.749C277.095 100.348 277.037 99.9858 276.92 99.6619C276.807 99.3352 276.634 99.0753 276.401 98.8821C276.168 98.6889 275.878 98.5923 275.531 98.5923C275.176 98.5923 274.881 98.6889 274.645 98.8821C274.412 99.0753 274.237 99.3352 274.121 99.6619C274.007 99.9858 273.95 100.348 273.95 100.749C273.95 101.146 274.007 101.507 274.121 101.831C274.237 102.155 274.412 102.413 274.645 102.607C274.881 102.797 275.176 102.892 275.531 102.892ZM279.517 104L279.508 102.73H279.734C279.904 102.73 280.048 102.692 280.164 102.615C280.281 102.538 280.377 102.411 280.454 102.232C280.531 102.05 280.591 101.805 280.633 101.499C280.676 101.192 280.706 100.81 280.723 100.352L280.838 97.4545H285.61V104H284.119V98.7202H282.24L282.137 100.83C282.112 101.375 282.051 101.848 281.954 102.249C281.86 102.646 281.727 102.974 281.554 103.233C281.383 103.491 281.169 103.685 280.91 103.812C280.652 103.938 280.346 104 279.994 104H279.517ZM291.659 100.088V101.354H288.174V100.088H291.659ZM288.651 97.4545V104H287.164V97.4545H288.651ZM292.669 97.4545V104H291.186V97.4545H292.669ZM295.717 101.912L298.338 97.4545H299.923V104H298.432V99.5384L295.82 104H294.23V97.4545H295.717V101.912ZM300.775 98.7202V97.4545H306.502V98.7202H304.384V104H302.892V98.7202H300.775ZM310.358 104.128C309.702 104.128 309.135 103.991 308.658 103.719C308.184 103.443 307.819 103.054 307.563 102.551C307.307 102.045 307.179 101.45 307.179 100.766C307.179 100.092 307.307 99.5014 307.563 98.9929C307.821 98.4815 308.182 98.0838 308.645 97.7997C309.108 97.5128 309.652 97.3693 310.277 97.3693C310.681 97.3693 311.061 97.4347 311.419 97.5653C311.78 97.6932 312.098 97.892 312.374 98.1619C312.652 98.4318 312.871 98.7756 313.03 99.1932C313.189 99.608 313.269 100.102 313.269 100.676V101.149H307.904V100.109H311.79C311.787 99.8139 311.723 99.5511 311.598 99.321C311.473 99.0881 311.299 98.9048 311.074 98.7713C310.853 98.6378 310.594 98.571 310.299 98.571C309.983 98.571 309.706 98.6477 309.468 98.8011C309.229 98.9517 309.043 99.1506 308.909 99.3977C308.779 99.642 308.712 99.9105 308.709 100.203V101.111C308.709 101.491 308.779 101.818 308.918 102.091C309.057 102.361 309.252 102.568 309.502 102.713C309.752 102.855 310.044 102.926 310.38 102.926C310.604 102.926 310.807 102.895 310.989 102.832C311.171 102.767 311.328 102.672 311.462 102.547C311.596 102.422 311.696 102.267 311.765 102.082L313.205 102.244C313.114 102.625 312.941 102.957 312.685 103.241C312.432 103.523 312.108 103.741 311.713 103.898C311.319 104.051 310.867 104.128 310.358 104.128ZM314.122 104L314.114 102.73H314.339C314.51 102.73 314.653 102.692 314.77 102.615C314.886 102.538 314.983 102.411 315.06 102.232C315.136 102.05 315.196 101.805 315.239 101.499C315.281 101.192 315.311 100.81 315.328 100.352L315.443 97.4545H320.216V104H318.724V98.7202H316.845L316.743 100.83C316.717 101.375 316.656 101.848 316.56 102.249C316.466 102.646 316.332 102.974 316.159 103.233C315.989 103.491 315.774 103.685 315.516 103.812C315.257 103.938 314.952 104 314.599 104H314.122ZM322.813 99.5852H324.744C325.579 99.5852 326.225 99.7884 326.683 100.195C327.14 100.601 327.37 101.134 327.373 101.793C327.37 102.222 327.265 102.602 327.058 102.935C326.853 103.267 326.555 103.528 326.163 103.719C325.773 103.906 325.3 104 324.744 104H321.769V97.4545H323.256V102.734H324.744C325.079 102.734 325.354 102.649 325.57 102.479C325.786 102.305 325.894 102.084 325.894 101.814C325.894 101.53 325.786 101.298 325.57 101.119C325.354 100.94 325.079 100.851 324.744 100.851H322.813V99.5852ZM333.191 100.088V101.354H329.705V100.088H333.191ZM330.182 97.4545V104H328.695V97.4545H330.182ZM334.201 97.4545V104H332.718V97.4545H334.201ZM336.805 99.5852H338.736C339.571 99.5852 340.217 99.7884 340.675 100.195C341.132 100.601 341.362 101.134 341.365 101.793C341.362 102.222 341.257 102.602 341.05 102.935C340.845 103.267 340.547 103.528 340.155 103.719C339.766 103.906 339.293 104 338.736 104H335.761V97.4545H337.249V102.734H338.736C339.071 102.734 339.347 102.649 339.562 102.479C339.778 102.305 339.886 102.084 339.886 101.814C339.886 101.53 339.778 101.298 339.562 101.119C339.347 100.94 339.071 100.851 338.736 100.851H336.805V99.5852ZM342.179 104V97.4545H343.722V104H342.179ZM346.799 101.912L349.42 97.4545H351.005V104H349.514V99.5384L346.902 104H345.312V97.4545H346.799V101.912ZM348.998 95.2045H350.153C350.153 95.7017 349.973 96.1051 349.612 96.4148C349.254 96.7216 348.768 96.875 348.154 96.875C347.547 96.875 347.062 96.7216 346.701 96.4148C346.343 96.1051 346.166 95.7017 346.169 95.2045H347.315C347.315 95.4091 347.377 95.5923 347.502 95.7543C347.63 95.9134 347.848 95.9929 348.154 95.9929C348.456 95.9929 348.67 95.9134 348.798 95.7543C348.929 95.5952 348.995 95.4119 348.998 95.2045ZM357.45 104.132C357.035 104.132 356.661 104.058 356.329 103.911C355.999 103.76 355.738 103.538 355.545 103.246C355.354 102.953 355.259 102.592 355.259 102.163C355.259 101.794 355.327 101.489 355.464 101.247C355.6 101.006 355.786 100.812 356.022 100.668C356.258 100.523 356.523 100.413 356.819 100.339C357.117 100.263 357.425 100.207 357.744 100.173C358.127 100.134 358.438 100.098 358.677 100.067C358.915 100.033 359.089 99.9815 359.197 99.9134C359.308 99.8423 359.363 99.733 359.363 99.5852V99.5597C359.363 99.2386 359.268 98.9901 359.077 98.8139C358.887 98.6378 358.613 98.5497 358.255 98.5497C357.877 98.5497 357.577 98.6321 357.356 98.7969C357.137 98.9616 356.989 99.1562 356.913 99.3807L355.472 99.1761C355.586 98.7784 355.773 98.446 356.035 98.179C356.296 97.9091 356.616 97.7074 356.994 97.5739C357.371 97.4375 357.789 97.3693 358.246 97.3693C358.562 97.3693 358.876 97.4062 359.188 97.4801C359.501 97.554 359.786 97.6761 360.045 97.8466C360.303 98.0142 360.511 98.2429 360.667 98.5327C360.826 98.8224 360.906 99.1847 360.906 99.6193V104H359.423V103.101H359.371C359.278 103.283 359.146 103.453 358.975 103.612C358.808 103.768 358.596 103.895 358.34 103.991C358.087 104.085 357.79 104.132 357.45 104.132ZM357.85 102.999C358.16 102.999 358.428 102.937 358.656 102.815C358.883 102.69 359.058 102.526 359.18 102.321C359.305 102.116 359.367 101.893 359.367 101.652V100.881C359.319 100.92 359.237 100.957 359.12 100.991C359.006 101.026 358.879 101.055 358.737 101.081C358.594 101.107 358.454 101.129 358.315 101.149C358.175 101.169 358.055 101.186 357.952 101.2C357.722 101.232 357.516 101.283 357.335 101.354C357.153 101.425 357.009 101.524 356.904 101.652C356.799 101.777 356.746 101.939 356.746 102.138C356.746 102.422 356.85 102.636 357.058 102.781C357.265 102.926 357.529 102.999 357.85 102.999ZM362.457 106.455V97.4545H363.974V98.5369H364.063C364.143 98.3778 364.255 98.2088 364.4 98.0298C364.545 97.848 364.741 97.6932 364.988 97.5653C365.235 97.4347 365.55 97.3693 365.934 97.3693C366.44 97.3693 366.896 97.4986 367.302 97.7571C367.711 98.0128 368.035 98.392 368.273 98.8949C368.515 99.3949 368.636 100.009 368.636 100.736C368.636 101.455 368.518 102.065 368.282 102.568C368.046 103.071 367.725 103.455 367.319 103.719C366.913 103.983 366.452 104.115 365.938 104.115C365.563 104.115 365.252 104.053 365.005 103.928C364.758 103.803 364.559 103.652 364.408 103.476C364.261 103.297 364.146 103.128 364.063 102.969H363.999V106.455H362.457ZM363.969 100.727C363.969 101.151 364.029 101.521 364.148 101.839C364.271 102.158 364.445 102.406 364.673 102.585C364.903 102.761 365.181 102.849 365.508 102.849C365.849 102.849 366.134 102.759 366.364 102.577C366.594 102.392 366.768 102.141 366.884 101.822C367.004 101.501 367.063 101.136 367.063 100.727C367.063 100.321 367.005 99.9602 366.888 99.6449C366.772 99.3295 366.599 99.0824 366.369 98.9034C366.138 98.7244 365.852 98.6349 365.508 98.6349C365.178 98.6349 364.898 98.7216 364.668 98.8949C364.438 99.0682 364.263 99.3111 364.144 99.6236C364.028 99.9361 363.969 100.304 363.969 100.727ZM369.235 98.7202V97.4545H374.963V98.7202H372.845V104H371.353V98.7202H369.235ZM378.819 104.128C378.163 104.128 377.596 103.991 377.119 103.719C376.645 103.443 376.279 103.054 376.024 102.551C375.768 102.045 375.64 101.45 375.64 100.766C375.64 100.092 375.768 99.5014 376.024 98.9929C376.282 98.4815 376.643 98.0838 377.106 97.7997C377.569 97.5128 378.113 97.3693 378.738 97.3693C379.142 97.3693 379.522 97.4347 379.88 97.5653C380.241 97.6932 380.559 97.892 380.835 98.1619C381.113 98.4318 381.332 98.7756 381.491 99.1932C381.65 99.608 381.73 100.102 381.73 100.676V101.149H376.365V100.109H380.251C380.248 99.8139 380.184 99.5511 380.059 99.321C379.934 99.0881 379.76 98.9048 379.535 98.7713C379.314 98.6378 379.055 98.571 378.76 98.571C378.444 98.571 378.167 98.6477 377.929 98.8011C377.69 98.9517 377.504 99.1506 377.37 99.3977C377.24 99.642 377.173 99.9105 377.17 100.203V101.111C377.17 101.491 377.24 101.818 377.379 102.091C377.518 102.361 377.713 102.568 377.963 102.713C378.213 102.855 378.505 102.926 378.841 102.926C379.065 102.926 379.268 102.895 379.45 102.832C379.632 102.767 379.789 102.672 379.923 102.547C380.056 102.422 380.157 102.267 380.225 102.082L381.666 102.244C381.575 102.625 381.402 102.957 381.146 103.241C380.893 103.523 380.569 103.741 380.174 103.898C379.779 104.051 379.328 104.128 378.819 104.128ZM386.005 106.224V95.2727H387.552V106.224H386.005ZM386.005 104.128C385.525 104.128 385.086 104.047 384.688 103.885C384.29 103.723 383.947 103.493 383.657 103.195C383.37 102.896 383.147 102.541 382.988 102.129C382.832 101.714 382.754 101.256 382.754 100.753C382.754 100.25 382.832 99.7912 382.988 99.3764C383.147 98.9616 383.37 98.6051 383.657 98.3068C383.947 98.0057 384.29 97.7741 384.688 97.6122C385.086 97.4503 385.525 97.3693 386.005 97.3693H386.333V104.128H386.005ZM386.005 102.884H386.197V98.6136H386.005C385.732 98.6136 385.491 98.6705 385.281 98.7841C385.073 98.8949 384.898 99.0497 384.756 99.2486C384.617 99.4446 384.511 99.6719 384.437 99.9304C384.366 100.186 384.33 100.46 384.33 100.753C384.33 101.142 384.394 101.499 384.522 101.822C384.65 102.143 384.837 102.401 385.085 102.594C385.335 102.787 385.641 102.884 386.005 102.884ZM387.552 104.128H387.224V97.3693H387.552C388.032 97.3693 388.471 97.4503 388.869 97.6122C389.266 97.7741 389.609 98.0057 389.896 98.3068C390.185 98.6051 390.408 98.9616 390.565 99.3764C390.724 99.7912 390.803 100.25 390.803 100.753C390.803 101.256 390.724 101.714 390.565 102.129C390.408 102.541 390.185 102.896 389.896 103.195C389.609 103.493 389.266 103.723 388.869 103.885C388.471 104.047 388.032 104.128 387.552 104.128ZM387.552 102.884C387.827 102.884 388.069 102.828 388.276 102.717C388.484 102.607 388.657 102.453 388.796 102.257C388.938 102.061 389.045 101.835 389.116 101.58C389.187 101.321 389.222 101.045 389.222 100.753C389.222 100.364 389.16 100.007 389.035 99.6832C388.91 99.3594 388.722 99.1009 388.472 98.9077C388.225 98.7116 387.918 98.6136 387.552 98.6136H387.36V102.884H387.552ZM393.989 104.132C393.574 104.132 393.2 104.058 392.868 103.911C392.538 103.76 392.277 103.538 392.084 103.246C391.893 102.953 391.798 102.592 391.798 102.163C391.798 101.794 391.866 101.489 392.003 101.247C392.139 101.006 392.325 100.812 392.561 100.668C392.797 100.523 393.063 100.413 393.358 100.339C393.656 100.263 393.964 100.207 394.283 100.173C394.666 100.134 394.977 100.098 395.216 100.067C395.455 100.033 395.628 99.9815 395.736 99.9134C395.847 99.8423 395.902 99.733 395.902 99.5852V99.5597C395.902 99.2386 395.807 98.9901 395.616 98.8139C395.426 98.6378 395.152 98.5497 394.794 98.5497C394.416 98.5497 394.116 98.6321 393.895 98.7969C393.676 98.9616 393.528 99.1562 393.452 99.3807L392.011 99.1761C392.125 98.7784 392.313 98.446 392.574 98.179C392.835 97.9091 393.155 97.7074 393.533 97.5739C393.911 97.4375 394.328 97.3693 394.786 97.3693C395.101 97.3693 395.415 97.4062 395.727 97.4801C396.04 97.554 396.325 97.6761 396.584 97.8466C396.842 98.0142 397.05 98.2429 397.206 98.5327C397.365 98.8224 397.445 99.1847 397.445 99.6193V104H395.962V103.101H395.911C395.817 103.283 395.685 103.453 395.514 103.612C395.347 103.768 395.135 103.895 394.879 103.991C394.626 104.085 394.33 104.132 393.989 104.132ZM394.389 102.999C394.699 102.999 394.967 102.937 395.195 102.815C395.422 102.69 395.597 102.526 395.719 102.321C395.844 102.116 395.906 101.893 395.906 101.652V100.881C395.858 100.92 395.776 100.957 395.659 100.991C395.545 101.026 395.418 101.055 395.276 101.081C395.134 101.107 394.993 101.129 394.854 101.149C394.714 101.169 394.594 101.186 394.491 101.2C394.261 101.232 394.055 101.283 393.874 101.354C393.692 101.425 393.548 101.524 393.443 101.652C393.338 101.777 393.286 101.939 393.286 102.138C393.286 102.422 393.389 102.636 393.597 102.781C393.804 102.926 394.068 102.999 394.389 102.999ZM398.996 104V97.4545H400.538V100.097H401.101L403.07 97.4545H404.928L402.503 100.668L404.953 104H403.087L401.293 101.533H400.538V104H398.996ZM405.47 98.7202V97.4545H411.197V98.7202H409.079V104H407.588V98.7202H405.47ZM414.313 95.2727L414.173 101.435H412.8L412.664 95.2727H414.313ZM413.487 104.094C413.228 104.094 413.006 104.003 412.822 103.821C412.64 103.639 412.549 103.418 412.549 103.156C412.549 102.901 412.64 102.682 412.822 102.5C413.006 102.318 413.228 102.227 413.487 102.227C413.739 102.227 413.958 102.318 414.143 102.5C414.33 102.682 414.424 102.901 414.424 103.156C414.424 103.33 414.38 103.487 414.292 103.629C414.207 103.771 414.093 103.885 413.951 103.97C413.812 104.053 413.657 104.094 413.487 104.094Z" fill="#313741"/>
<path d="M317.5 123.5L311.5 116L323.5 116L317.5 123.5Z" fill="#FEE0BC"/>
</g>
</g>
<defs>
<filter id="filter0_b_2741_21984" x="-80" y="-80" width="876" height="760" filterUnits="userSpaceOnUse" color-interpolation-filters="sRGB">
<feFlood flood-opacity="0" result="BackgroundImageFix"/>
<feGaussianBlur in="BackgroundImageFix" stdDeviation="40"/>
<feComposite in2="SourceAlpha" operator="in" result="effect1_backgroundBlur_2741_21984"/>
<feBlend mode="normal" in="SourceGraphic" in2="effect1_backgroundBlur_2741_21984" result="shape"/>
</filter>
<filter id="filter1_d_2741_21984" x="47" y="38" width="80" height="80" filterUnits="userSpaceOnUse" color-interpolation-filters="sRGB">
<feFlood flood-opacity="0" result="BackgroundImageFix"/>
<feColorMatrix in="SourceAlpha" type="matrix" values="0 0 0 0 0 0 0 0 0 0 0 0 0 0 0 0 0 0 127 0" result="hardAlpha"/>
<feOffset dy="4"/>
<feGaussianBlur stdDeviation="10"/>
<feComposite in2="hardAlpha" operator="out"/>
<feColorMatrix type="matrix" values="0 0 0 0 0.670588 0 0 0 0 0 0 0 0 0 0.121569 0 0 0 1 0"/>
<feBlend mode="normal" in2="BackgroundImageFix" result="effect1_dropShadow_2741_21984"/>
<feBlend mode="normal" in="SourceGraphic" in2="effect1_dropShadow_2741_21984" result="shape"/>
</filter>
<filter id="filter2_d_2741_21984" x="124.2" y="126.76" width="57.6" height="57.6" filterUnits="userSpaceOnUse" color-interpolation-filters="sRGB">
<feFlood flood-opacity="0" result="BackgroundImageFix"/>
<feColorMatrix in="SourceAlpha" type="matrix" values="0 0 0 0 0 0 0 0 0 0 0 0 0 0 0 0 0 0 127 0" result="hardAlpha"/>
<feOffset dy="2.56"/>
<feGaussianBlur stdDeviation="6.4"/>
<feComposite in2="hardAlpha" operator="out"/>
<feColorMatrix type="matrix" values="0 0 0 0 0.410026 0 0 0 0 0.410026 0 0 0 0 0.410026 0 0 0 0.8 0"/>
<feBlend mode="normal" in2="BackgroundImageFix" result="effect1_dropShadow_2741_21984"/>
<feBlend mode="normal" in="SourceGraphic" in2="effect1_dropShadow_2741_21984" result="shape"/>
</filter>
<filter id="filter3_d_2741_21984" x="97" y="192.2" width="112" height="112" filterUnits="userSpaceOnUse" color-interpolation-filters="sRGB">
<feFlood flood-opacity="0" result="BackgroundImageFix"/>
<feColorMatrix in="SourceAlpha" type="matrix" values="0 0 0 0 0 0 0 0 0 0 0 0 0 0 0 0 0 0 127 0" result="hardAlpha"/>
<feOffset dy="3.2"/>
<feGaussianBlur stdDeviation="8"/>
<feComposite in2="hardAlpha" operator="out"/>
<feColorMatrix type="matrix" values="0 0 0 0 0.670588 0 0 0 0 0 0 0 0 0 0.121569 0 0 0 1 0"/>
<feBlend mode="normal" in2="BackgroundImageFix" result="effect1_dropShadow_2741_21984"/>
<feBlend mode="normal" in="SourceGraphic" in2="effect1_dropShadow_2741_21984" result="shape"/>
</filter>
<filter id="filter4_d_2741_21984" x="89" y="184.2" width="128" height="128" filterUnits="userSpaceOnUse" color-interpolation-filters="sRGB">
<feFlood flood-opacity="0" result="BackgroundImageFix"/>
<feColorMatrix in="SourceAlpha" type="matrix" values="0 0 0 0 0 0 0 0 0 0 0 0 0 0 0 0 0 0 127 0" result="hardAlpha"/>
<feOffset dy="3.2"/>
<feGaussianBlur stdDeviation="8"/>
<feComposite in2="hardAlpha" operator="out"/>
<feColorMatrix type="matrix" values="0 0 0 0 0.670588 0 0 0 0 0 0 0 0 0 0.121569 0 0 0 1 0"/>
<feBlend mode="normal" in2="BackgroundImageFix" result="effect1_dropShadow_2741_21984"/>
<feBlend mode="normal" in="SourceGraphic" in2="effect1_dropShadow_2741_21984" result="shape"/>
</filter>
<filter id="filter5_d_2741_21984" x="124.2" y="352.76" width="57.6" height="57.6" filterUnits="userSpaceOnUse" color-interpolation-filters="sRGB">
<feFlood flood-opacity="0" result="BackgroundImageFix"/>
<feColorMatrix in="SourceAlpha" type="matrix" values="0 0 0 0 0 0 0 0 0 0 0 0 0 0 0 0 0 0 127 0" result="hardAlpha"/>
<feOffset dy="2.56"/>
<feGaussianBlur stdDeviation="6.4"/>
<feComposite in2="hardAlpha" operator="out"/>
<feColorMatrix type="matrix" values="0 0 0 0 0.410026 0 0 0 0 0.410026 0 0 0 0 0.410026 0 0 0 0.8 0"/>
<feBlend mode="normal" in2="BackgroundImageFix" result="effect1_dropShadow_2741_21984"/>
<feBlend mode="normal" in="SourceGraphic" in2="effect1_dropShadow_2741_21984" result="shape"/>
</filter>
<filter id="filter6_d_2741_21984" x="97" y="418.2" width="112" height="112" filterUnits="userSpaceOnUse" color-interpolation-filters="sRGB">
<feFlood flood-opacity="0" result="BackgroundImageFix"/>
<feColorMatrix in="SourceAlpha" type="matrix" values="0 0 0 0 0 0 0 0 0 0 0 0 0 0 0 0 0 0 127 0" result="hardAlpha"/>
<feOffset dy="3.2"/>
<feGaussianBlur stdDeviation="8"/>
<feComposite in2="hardAlpha" operator="out"/>
<feColorMatrix type="matrix" values="0 0 0 0 0.410026 0 0 0 0 0.410026 0 0 0 0 0.410026 0 0 0 0.8 0"/>
<feBlend mode="normal" in2="BackgroundImageFix" result="effect1_dropShadow_2741_21984"/>
<feBlend mode="normal" in="SourceGraphic" in2="effect1_dropShadow_2741_21984" result="shape"/>
</filter>
<filter id="filter7_d_2741_21984" x="89" y="410.2" width="128" height="128" filterUnits="userSpaceOnUse" color-interpolation-filters="sRGB">
<feFlood flood-opacity="0" result="BackgroundImageFix"/>
<feColorMatrix in="SourceAlpha" type="matrix" values="0 0 0 0 0 0 0 0 0 0 0 0 0 0 0 0 0 0 127 0" result="hardAlpha"/>
<feOffset dy="3.2"/>
<feGaussianBlur stdDeviation="8"/>
<feComposite in2="hardAlpha" operator="out"/>
<feColorMatrix type="matrix" values="0 0 0 0 0.410026 0 0 0 0 0.410026 0 0 0 0 0.410026 0 0 0 0.8 0"/>
<feBlend mode="normal" in2="BackgroundImageFix" result="effect1_dropShadow_2741_21984"/>
<feBlend mode="normal" in="SourceGraphic" in2="effect1_dropShadow_2741_21984" result="shape"/>
</filter>
<filter id="filter8_d_2741_21984" x="289.2" y="126.76" width="57.6" height="57.6" filterUnits="userSpaceOnUse" color-interpolation-filters="sRGB">
<feFlood flood-opacity="0" result="BackgroundImageFix"/>
<feColorMatrix in="SourceAlpha" type="matrix" values="0 0 0 0 0 0 0 0 0 0 0 0 0 0 0 0 0 0 127 0" result="hardAlpha"/>
<feOffset dy="2.56"/>
<feGaussianBlur stdDeviation="6.4"/>
<feComposite in2="hardAlpha" operator="out"/>
<feColorMatrix type="matrix" values="0 0 0 0 0.410026 0 0 0 0 0.410026 0 0 0 0 0.410026 0 0 0 0.8 0"/>
<feBlend mode="normal" in2="BackgroundImageFix" result="effect1_dropShadow_2741_21984"/>
<feBlend mode="normal" in="SourceGraphic" in2="effect1_dropShadow_2741_21984" result="shape"/>
</filter>
<filter id="filter9_d_2741_21984" x="262" y="192.2" width="112" height="112" filterUnits="userSpaceOnUse" color-interpolation-filters="sRGB">
<feFlood flood-opacity="0" result="BackgroundImageFix"/>
<feColorMatrix in="SourceAlpha" type="matrix" values="0 0 0 0 0 0 0 0 0 0 0 0 0 0 0 0 0 0 127 0" result="hardAlpha"/>
<feOffset dy="3.2"/>
<feGaussianBlur stdDeviation="8"/>
<feComposite in2="hardAlpha" operator="out"/>
<feColorMatrix type="matrix" values="0 0 0 0 0.410026 0 0 0 0 0.410026 0 0 0 0 0.410026 0 0 0 0.8 0"/>
<feBlend mode="normal" in2="BackgroundImageFix" result="effect1_dropShadow_2741_21984"/>
<feBlend mode="normal" in="SourceGraphic" in2="effect1_dropShadow_2741_21984" result="shape"/>
</filter>
<filter id="filter10_d_2741_21984" x="254" y="184.2" width="128" height="128" filterUnits="userSpaceOnUse" color-interpolation-filters="sRGB">
<feFlood flood-opacity="0" result="BackgroundImageFix"/>
<feColorMatrix in="SourceAlpha" type="matrix" values="0 0 0 0 0 0 0 0 0 0 0 0 0 0 0 0 0 0 127 0" result="hardAlpha"/>
<feOffset dy="3.2"/>
<feGaussianBlur stdDeviation="8"/>
<feComposite in2="hardAlpha" operator="out"/>
<feColorMatrix type="matrix" values="0 0 0 0 0.410026 0 0 0 0 0.410026 0 0 0 0 0.410026 0 0 0 0.8 0"/>
<feBlend mode="normal" in2="BackgroundImageFix" result="effect1_dropShadow_2741_21984"/>
<feBlend mode="normal" in="SourceGraphic" in2="effect1_dropShadow_2741_21984" result="shape"/>
</filter>
<filter id="filter11_d_2741_21984" x="289.2" y="352.76" width="57.6" height="57.6" filterUnits="userSpaceOnUse" color-interpolation-filters="sRGB">
<feFlood flood-opacity="0" result="BackgroundImageFix"/>
<feColorMatrix in="SourceAlpha" type="matrix" values="0 0 0 0 0 0 0 0 0 0 0 0 0 0 0 0 0 0 127 0" result="hardAlpha"/>
<feOffset dy="2.56"/>
<feGaussianBlur stdDeviation="6.4"/>
<feComposite in2="hardAlpha" operator="out"/>
<feColorMatrix type="matrix" values="0 0 0 0 0.410026 0 0 0 0 0.410026 0 0 0 0 0.410026 0 0 0 0.8 0"/>
<feBlend mode="normal" in2="BackgroundImageFix" result="effect1_dropShadow_2741_21984"/>
<feBlend mode="normal" in="SourceGraphic" in2="effect1_dropShadow_2741_21984" result="shape"/>
</filter>
<filter id="filter12_d_2741_21984" x="262" y="418.2" width="112" height="112" filterUnits="userSpaceOnUse" color-interpolation-filters="sRGB">
<feFlood flood-opacity="0" result="BackgroundImageFix"/>
<feColorMatrix in="SourceAlpha" type="matrix" values="0 0 0 0 0 0 0 0 0 0 0 0 0 0 0 0 0 0 127 0" result="hardAlpha"/>
<feOffset dy="3.2"/>
<feGaussianBlur stdDeviation="8"/>
<feComposite in2="hardAlpha" operator="out"/>
<feColorMatrix type="matrix" values="0 0 0 0 0.410026 0 0 0 0 0.410026 0 0 0 0 0.410026 0 0 0 0.8 0"/>
<feBlend mode="normal" in2="BackgroundImageFix" result="effect1_dropShadow_2741_21984"/>
<feBlend mode="normal" in="SourceGraphic" in2="effect1_dropShadow_2741_21984" result="shape"/>
</filter>
<filter id="filter13_d_2741_21984" x="254" y="410.2" width="128" height="128" filterUnits="userSpaceOnUse" color-interpolation-filters="sRGB">
<feFlood flood-opacity="0" result="BackgroundImageFix"/>
<feColorMatrix in="SourceAlpha" type="matrix" values="0 0 0 0 0 0 0 0 0 0 0 0 0 0 0 0 0 0 127 0" result="hardAlpha"/>
<feOffset dy="3.2"/>
<feGaussianBlur stdDeviation="8"/>
<feComposite in2="hardAlpha" operator="out"/>
<feColorMatrix type="matrix" values="0 0 0 0 0.410026 0 0 0 0 0.410026 0 0 0 0 0.410026 0 0 0 0.8 0"/>
<feBlend mode="normal" in2="BackgroundImageFix" result="effect1_dropShadow_2741_21984"/>
<feBlend mode="normal" in="SourceGraphic" in2="effect1_dropShadow_2741_21984" result="shape"/>
</filter>
<filter id="filter14_d_2741_21984" x="482.2" y="484.76" width="57.6" height="57.6" filterUnits="userSpaceOnUse" color-interpolation-filters="sRGB">
<feFlood flood-opacity="0" result="BackgroundImageFix"/>
<feColorMatrix in="SourceAlpha" type="matrix" values="0 0 0 0 0 0 0 0 0 0 0 0 0 0 0 0 0 0 127 0" result="hardAlpha"/>
<feOffset dy="2.56"/>
<feGaussianBlur stdDeviation="6.4"/>
<feComposite in2="hardAlpha" operator="out"/>
<feColorMatrix type="matrix" values="0 0 0 0 0.410026 0 0 0 0 0.410026 0 0 0 0 0.410026 0 0 0 0.8 0"/>
<feBlend mode="normal" in2="BackgroundImageFix" result="effect1_dropShadow_2741_21984"/>
<feBlend mode="normal" in="SourceGraphic" in2="effect1_dropShadow_2741_21984" result="shape"/>
</filter>
<filter id="filter15_d_2741_21984" x="455" y="366.2" width="112" height="112" filterUnits="userSpaceOnUse" color-interpolation-filters="sRGB">
<feFlood flood-opacity="0" result="BackgroundImageFix"/>
<feColorMatrix in="SourceAlpha" type="matrix" values="0 0 0 0 0 0 0 0 0 0 0 0 0 0 0 0 0 0 127 0" result="hardAlpha"/>
<feOffset dy="3.2"/>
<feGaussianBlur stdDeviation="8"/>
<feComposite in2="hardAlpha" operator="out"/>
<feColorMatrix type="matrix" values="0 0 0 0 0.670588 0 0 0 0 0 0 0 0 0 0.121569 0 0 0 1 0"/>
<feBlend mode="normal" in2="BackgroundImageFix" result="effect1_dropShadow_2741_21984"/>
<feBlend mode="normal" in="SourceGraphic" in2="effect1_dropShadow_2741_21984" result="shape"/>
</filter>
<filter id="filter16_d_2741_21984" x="447" y="358.2" width="128" height="128" filterUnits="userSpaceOnUse" color-interpolation-filters="sRGB">
<feFlood flood-opacity="0" result="BackgroundImageFix"/>
<feColorMatrix in="SourceAlpha" type="matrix" values="0 0 0 0 0 0 0 0 0 0 0 0 0 0 0 0 0 0 127 0" result="hardAlpha"/>
<feOffset dy="3.2"/>
<feGaussianBlur stdDeviation="8"/>
<feComposite in2="hardAlpha" operator="out"/>
<feColorMatrix type="matrix" values="0 0 0 0 0.670588 0 0 0 0 0 0 0 0 0 0.121569 0 0 0 1 0"/>
<feBlend mode="normal" in2="BackgroundImageFix" result="effect1_dropShadow_2741_21984"/>
<feBlend mode="normal" in="SourceGraphic" in2="effect1_dropShadow_2741_21984" result="shape"/>
</filter>
<filter id="filter17_d_2741_21984" x="574.2" y="218.76" width="57.6" height="57.6" filterUnits="userSpaceOnUse" color-interpolation-filters="sRGB">
<feFlood flood-opacity="0" result="BackgroundImageFix"/>
<feColorMatrix in="SourceAlpha" type="matrix" values="0 0 0 0 0 0 0 0 0 0 0 0 0 0 0 0 0 0 127 0" result="hardAlpha"/>
<feOffset dy="2.56"/>
<feGaussianBlur stdDeviation="6.4"/>
<feComposite in2="hardAlpha" operator="out"/>
<feColorMatrix type="matrix" values="0 0 0 0 0.410026 0 0 0 0 0.410026 0 0 0 0 0.410026 0 0 0 0.8 0"/>
<feBlend mode="normal" in2="BackgroundImageFix" result="effect1_dropShadow_2741_21984"/>
<feBlend mode="normal" in="SourceGraphic" in2="effect1_dropShadow_2741_21984" result="shape"/>
</filter>
<filter id="filter18_d_2741_21984" x="455" y="192.2" width="112" height="112" filterUnits="userSpaceOnUse" color-interpolation-filters="sRGB">
<feFlood flood-opacity="0" result="BackgroundImageFix"/>
<feColorMatrix in="SourceAlpha" type="matrix" values="0 0 0 0 0 0 0 0 0 0 0 0 0 0 0 0 0 0 127 0" result="hardAlpha"/>
<feOffset dy="3.2"/>
<feGaussianBlur stdDeviation="8"/>
<feComposite in2="hardAlpha" operator="out"/>
<feColorMatrix type="matrix" values="0 0 0 0 0.410026 0 0 0 0 0.410026 0 0 0 0 0.410026 0 0 0 0.8 0"/>
<feBlend mode="normal" in2="BackgroundImageFix" result="effect1_dropShadow_2741_21984"/>
<feBlend mode="normal" in="SourceGraphic" in2="effect1_dropShadow_2741_21984" result="shape"/>
</filter>
<filter id="filter19_d_2741_21984" x="447" y="184.2" width="128" height="128" filterUnits="userSpaceOnUse" color-interpolation-filters="sRGB">
<feFlood flood-opacity="0" result="BackgroundImageFix"/>
<feColorMatrix in="SourceAlpha" type="matrix" values="0 0 0 0 0 0 0 0 0 0 0 0 0 0 0 0 0 0 127 0" result="hardAlpha"/>
<feOffset dy="3.2"/>
<feGaussianBlur stdDeviation="8"/>
<feComposite in2="hardAlpha" operator="out"/>
<feColorMatrix type="matrix" values="0 0 0 0 0.410026 0 0 0 0 0.410026 0 0 0 0 0.410026 0 0 0 0.8 0"/>
<feBlend mode="normal" in2="BackgroundImageFix" result="effect1_dropShadow_2741_21984"/>
<feBlend mode="normal" in="SourceGraphic" in2="effect1_dropShadow_2741_21984" result="shape"/>
</filter>
<filter id="filter20_d_2741_21984" x="183" y="60" width="269" height="87.5" filterUnits="userSpaceOnUse" color-interpolation-filters="sRGB">
<feFlood flood-opacity="0" result="BackgroundImageFix"/>
<feColorMatrix in="SourceAlpha" type="matrix" values="0 0 0 0 0 0 0 0 0 0 0 0 0 0 0 0 0 0 127 0" result="hardAlpha"/>
<feOffset/>
<feGaussianBlur stdDeviation="12"/>
<feComposite in2="hardAlpha" operator="out"/>
<feColorMatrix type="matrix" values="0 0 0 0 0.192157 0 0 0 0 0.215686 0 0 0 0 0.254902 0 0 0 0.24 0"/>
<feBlend mode="normal" in2="BackgroundImageFix" result="effect1_dropShadow_2741_21984"/>
<feBlend mode="normal" in="SourceGraphic" in2="effect1_dropShadow_2741_21984" result="shape"/>
</filter>
<clipPath id="clip0_2741_21984">
<rect width="716" height="600" fill="white"/>
</clipPath>
</defs>
</svg>
