<svg width="716" height="716" viewBox="0 0 716 716" fill="none" xmlns="http://www.w3.org/2000/svg">
<g clip-path="url(#clip0_2875_1856)" filter="url(#filter0_b_2875_1856)">
<rect width="716" height="716" fill="#323232"/>
<path d="M87 132V164C87 190.51 108.49 212 135 212H381C407.51 212 429 233.49 429 260V324C429 350.51 407.51 372 381 372H119.5C101.551 372 87 386.551 87 404.5V404.5C87 422.449 101.551 437 119.5 437H381C407.51 437 429 458.49 429 485V522C429 548.51 450.49 570 477 570H555C581.51 570 603 548.51 603 522V260C603 233.49 624.49 212 651 212H722" stroke="#626262" stroke-width="2" stroke-dasharray="8 4"/>
<g opacity="0.4" filter="url(#filter1_d_2875_1856)">
<circle cx="87" cy="132" r="20" fill="#AB001F"/>
</g>
<circle cx="87" cy="132" r="10" fill="#AB001F"/>
<g filter="url(#filter2_d_2875_1856)">
<circle cx="153" cy="211" r="16" fill="#6E6E6E"/>
<circle cx="153" cy="211" r="15.5" stroke="white" stroke-opacity="0.2"/>
</g>
<path d="M154.961 205.091V216H152.654V207.28H152.591L150.092 208.846V206.801L152.793 205.091H154.961Z" fill="white"/>
<g filter="url(#filter3_d_2875_1856)">
<circle cx="153" cy="303" r="40" fill="#AB001F"/>
<circle cx="153" cy="303" r="39" stroke="white" stroke-opacity="0.2" stroke-width="2"/>
</g>
<g filter="url(#filter4_d_2875_1856)">
<circle cx="153" cy="303" r="47" stroke="white" stroke-opacity="0.2" stroke-width="2" shape-rendering="crispEdges"/>
</g>
<path d="M153 229.667C151.527 229.667 150.333 228.473 150.333 227C150.333 225.527 151.527 224.333 153 224.333C154.473 224.333 155.667 225.527 155.667 227C155.667 228.473 154.473 229.667 153 229.667ZM153 265.667C151.527 265.667 150.333 264.473 150.333 263C150.333 261.527 151.527 260.333 153 260.333C154.473 260.333 155.667 261.527 155.667 263C155.667 264.473 154.473 265.667 153 265.667ZM153.5 227L153.5 263L152.5 263L152.5 227L153.5 227Z" fill="white"/>
<path d="M168 289C169.625 289 171 290.375 171 292V293H135V292C135 290.375 136.312 289 138 289H168ZM135 314V295H171V314C171 315.688 169.625 317 168 317H138C136.312 317 135 315.688 135 314ZM158 299C157.438 299 157 299.5 157 300C157 300.562 157.438 301 158 301H166C166.5 301 167 300.562 167 300C167 299.5 166.5 299 166 299H158ZM158 303C157.438 303 157 303.5 157 304C157 304.562 157.438 305 158 305H166C166.5 305 167 304.562 167 304C167 303.5 166.5 303 166 303H158ZM158 307C157.438 307 157 307.5 157 308C157 308.562 157.438 309 158 309H166C166.5 309 167 308.562 167 308C167 307.5 166.5 307 166 307H158ZM146 299C143.75 299 142 300.812 142 303C142 305.25 143.75 307 146 307C148.188 307 150 305.25 150 303C150 300.812 148.188 299 146 299ZM142 309C140.312 309 139 310.375 139 312C139 312.562 139.438 313 140 313H152C152.5 313 153 312.562 153 312C153 310.375 151.625 309 150 309H142Z" fill="white"/>
<g filter="url(#filter5_d_2875_1856)">
<circle cx="153" cy="437" r="16" fill="#6E6E6E"/>
<circle cx="153" cy="437" r="15.5" stroke="white" stroke-opacity="0.2"/>
</g>
<path d="M152.973 442.149C152.177 442.149 151.469 442.012 150.847 441.739C150.229 441.462 149.741 441.082 149.383 440.599C149.027 440.113 148.845 439.551 148.834 438.916H151.156C151.17 439.182 151.258 439.417 151.417 439.619C151.581 439.818 151.797 439.972 152.067 440.082C152.337 440.192 152.641 440.248 152.978 440.248C153.33 440.248 153.64 440.185 153.91 440.061C154.18 439.937 154.391 439.765 154.544 439.544C154.697 439.324 154.773 439.07 154.773 438.783C154.773 438.491 154.691 438.234 154.528 438.01C154.368 437.783 154.137 437.605 153.836 437.478C153.537 437.35 153.182 437.286 152.77 437.286H151.753V435.592H152.77C153.118 435.592 153.425 435.532 153.692 435.411C153.962 435.29 154.171 435.123 154.32 434.91C154.47 434.694 154.544 434.441 154.544 434.154C154.544 433.88 154.478 433.641 154.347 433.435C154.219 433.225 154.038 433.062 153.804 432.945C153.573 432.827 153.303 432.769 152.994 432.769C152.682 432.769 152.396 432.826 152.136 432.939C151.877 433.049 151.669 433.207 151.513 433.413C151.357 433.619 151.273 433.861 151.263 434.138H149.052C149.063 433.509 149.242 432.955 149.59 432.476C149.938 431.996 150.407 431.622 150.996 431.352C151.59 431.078 152.259 430.942 153.005 430.942C153.758 430.942 154.416 431.078 154.981 431.352C155.545 431.625 155.984 431.995 156.297 432.46C156.613 432.922 156.769 433.44 156.765 434.015C156.769 434.626 156.579 435.136 156.195 435.544C155.815 435.952 155.32 436.212 154.709 436.322V436.407C155.512 436.51 156.123 436.789 156.542 437.243C156.964 437.694 157.174 438.259 157.17 438.937C157.174 439.559 156.994 440.111 156.632 440.594C156.273 441.077 155.778 441.457 155.146 441.734C154.514 442.011 153.789 442.149 152.973 442.149Z" fill="white"/>
<g filter="url(#filter6_d_2875_1856)">
<circle cx="153" cy="529" r="40" fill="#9A9A9A"/>
<circle cx="153" cy="529" r="39" stroke="white" stroke-opacity="0.1" stroke-width="2"/>
</g>
<g filter="url(#filter7_d_2875_1856)">
<circle cx="153" cy="529" r="47" stroke="white" stroke-opacity="0.1" stroke-width="2" shape-rendering="crispEdges"/>
</g>
<path d="M153 455.667C151.527 455.667 150.333 454.473 150.333 453C150.333 451.527 151.527 450.333 153 450.333C154.473 450.333 155.667 451.527 155.667 453C155.667 454.473 154.473 455.667 153 455.667ZM153 491.667C151.527 491.667 150.333 490.473 150.333 489C150.333 487.527 151.527 486.333 153 486.333C154.473 486.333 155.667 487.527 155.667 489C155.667 490.473 154.473 491.667 153 491.667ZM153.5 453L153.5 489L152.5 489L152.5 453L153.5 453Z" fill="white"/>
<path d="M153.625 526.562C153.875 526.688 154.062 527.062 153.938 527.312C153.5 528.688 152.75 529.938 151.812 531C151.688 531.125 151.5 531.188 151.375 531.188C151.25 531.188 151.125 531.188 151 531.125L149.188 530.062C148.438 530.688 147.562 531.188 146.625 531.562V533.688C146.625 533.938 146.375 534.25 146.062 534.312C145.375 534.438 144.688 534.562 144 534.562C143.25 534.562 142.562 534.438 141.875 534.312C141.562 534.25 141.312 533.938 141.312 533.688V531.562C140.375 531.188 139.5 530.688 138.75 530.062L136.938 531.125C136.812 531.188 136.688 531.188 136.562 531.188C136.438 531.188 136.25 531.125 136.125 531C135.188 529.938 134.438 528.688 134 527.312C133.875 527.062 134.062 526.688 134.312 526.562L136.125 525.5C136 525.062 136 524.562 136 524C136 523.5 136 523 136.125 522.5L134.312 521.5C134.062 521.312 133.875 521 134 520.688C134.438 519.312 135.188 518.125 136.125 517.062C136.25 516.875 136.438 516.812 136.562 516.812C136.688 516.812 136.812 516.875 136.938 516.938L138.75 518C139.5 517.375 140.375 516.812 141.312 516.5V514.375C141.312 514.062 141.562 513.812 141.875 513.75C142.562 513.562 143.25 513.5 144 513.5C144.688 513.5 145.375 513.562 146.062 513.75C146.375 513.812 146.625 514.062 146.625 514.375V516.5C147.562 516.812 148.438 517.375 149.188 518L151 516.938C151.125 516.875 151.25 516.812 151.375 516.812C151.5 516.812 151.688 516.875 151.812 517.062C152.75 518.125 153.5 519.312 153.938 520.688C154.062 521 153.875 521.312 153.625 521.5L151.812 522.5C151.938 523 152 523.5 152 524C152 524.562 151.938 525.062 151.812 525.5L153.625 526.562ZM144 527C145.625 527 147 525.688 147 524C147 522.375 145.625 521 144 521C142.312 521 141 522.375 141 524C141 525.688 142.312 527 144 527ZM173.25 532.938C173.375 533.625 173.5 534.312 173.5 535C173.5 535.75 173.375 536.438 173.25 537.125C173.188 537.438 172.875 537.688 172.625 537.688H170.438C170.125 538.625 169.625 539.5 169 540.25L170.062 542.062C170.125 542.188 170.125 542.312 170.125 542.438C170.125 542.562 170.062 542.75 169.938 542.875C168.875 543.812 167.625 544.562 166.25 545C166 545.125 165.625 544.938 165.5 544.688L164.438 542.875C163.938 543 163.438 543 162.938 543C162.438 543 161.938 543 161.438 542.875L160.438 544.688C160.25 544.938 159.938 545.125 159.625 545C158.25 544.562 157 543.812 156 542.875C155.812 542.75 155.75 542.562 155.75 542.438C155.75 542.312 155.812 542.188 155.875 542.062L156.938 540.25C156.25 539.5 155.75 538.625 155.438 537.688H153.312C153 537.688 152.75 537.438 152.688 537.125C152.5 536.438 152.438 535.75 152.438 535C152.438 534.312 152.5 533.625 152.688 532.938C152.75 532.625 153 532.375 153.312 532.375H155.438C155.75 531.438 156.25 530.562 156.938 529.812L155.875 528C155.812 527.875 155.75 527.75 155.75 527.625C155.75 527.5 155.812 527.312 156 527.188C157 526.25 158.25 525.5 159.625 525.062C159.938 524.938 160.25 525.125 160.438 525.375L161.438 527.188C161.938 527.062 162.438 527 162.938 527C163.438 527 163.938 527.062 164.438 527.188L165.5 525.375C165.625 525.125 166 524.938 166.25 525.062C167.625 525.5 168.875 526.25 169.938 527.188C170.062 527.312 170.125 527.5 170.125 527.625C170.125 527.75 170.125 527.875 170.062 528L169 529.812C169.625 530.562 170.125 531.438 170.438 532.375H172.625C172.875 532.375 173.188 532.625 173.25 532.938ZM162.938 538C164.625 538 165.938 536.688 165.938 535C165.938 533.375 164.625 532 162.938 532C161.312 532 159.938 533.375 159.938 535C159.938 536.688 161.312 538 162.938 538Z" fill="white"/>
<g filter="url(#filter8_d_2875_1856)">
<circle cx="318" cy="211" r="16" fill="#6E6E6E"/>
<circle cx="318" cy="211" r="15.5" stroke="white" stroke-opacity="0.2"/>
</g>
<path d="M314.16 216V214.338L318.043 210.743C318.374 210.423 318.651 210.135 318.874 209.88C319.102 209.624 319.274 209.374 319.391 209.129C319.508 208.88 319.567 208.612 319.567 208.324C319.567 208.005 319.494 207.729 319.348 207.499C319.203 207.264 319.004 207.085 318.752 206.961C318.5 206.833 318.214 206.769 317.894 206.769C317.56 206.769 317.269 206.836 317.021 206.971C316.772 207.106 316.58 207.3 316.445 207.552C316.31 207.804 316.243 208.104 316.243 208.452H314.054C314.054 207.738 314.215 207.119 314.538 206.593C314.861 206.067 315.314 205.661 315.897 205.373C316.479 205.086 317.15 204.942 317.91 204.942C318.691 204.942 319.371 205.08 319.95 205.357C320.533 205.631 320.985 206.011 321.309 206.497C321.632 206.984 321.793 207.541 321.793 208.17C321.793 208.582 321.712 208.988 321.548 209.39C321.388 209.791 321.103 210.237 320.691 210.727C320.279 211.213 319.698 211.797 318.949 212.479L317.356 214.04V214.114H321.937V216H314.16Z" fill="white"/>
<g filter="url(#filter9_d_2875_1856)">
<circle cx="318" cy="303" r="40" fill="#525252"/>
<circle cx="318" cy="303" r="39" stroke="white" stroke-opacity="0.1" stroke-width="2"/>
</g>
<g filter="url(#filter10_d_2875_1856)">
<circle cx="318" cy="303" r="47" stroke="white" stroke-opacity="0.1" stroke-width="2" shape-rendering="crispEdges"/>
</g>
<path d="M318 229.667C316.527 229.667 315.333 228.473 315.333 227C315.333 225.527 316.527 224.333 318 224.333C319.473 224.333 320.667 225.527 320.667 227C320.667 228.473 319.473 229.667 318 229.667ZM318 265.667C316.527 265.667 315.333 264.473 315.333 263C315.333 261.527 316.527 260.333 318 260.333C319.473 260.333 320.667 261.527 320.667 263C320.667 264.473 319.473 265.667 318 265.667ZM318.5 227L318.5 263L317.5 263L317.5 227L318.5 227Z" fill="white"/>
<path d="M325 298C325 304.125 319.125 309 312 309C309.562 309 307.375 308.5 305.438 307.5C303.875 308.312 301.875 309 299.438 309C299.25 309 299.062 308.938 299 308.75C298.938 308.562 298.938 308.375 299.125 308.25C299.125 308.188 300.562 306.688 301.562 304.625C299.938 302.75 299 300.5 299 298C299 291.938 304.812 287 312 287C319.125 287 325 291.938 325 298ZM336.438 314.75C337.438 316.75 338.812 318.188 338.812 318.25C339 318.375 339 318.562 338.938 318.75C338.875 318.938 338.688 319 338.5 319C336.25 319 334.312 318.438 332.75 317.688C331.062 318.5 329.062 319 327 319C321.312 319 316.625 315.5 315.312 310.688C322 309.375 327 304.188 327 298C327 297.688 326.938 297.375 326.938 297.062C326.938 297.062 326.938 297 327 297C333.625 297 339 301.938 339 308C339 310.562 338 312.875 336.438 314.75Z" fill="white"/>
<g filter="url(#filter11_d_2875_1856)">
<circle cx="318" cy="437" r="16" fill="#6E6E6E"/>
<circle cx="318" cy="437" r="15.5" stroke="white" stroke-opacity="0.2"/>
</g>
<path d="M313.136 440.082V438.266L317.69 431.091H319.256V433.605H318.33L315.459 438.149V438.234H321.93V440.082H313.136ZM318.372 442V439.528L318.415 438.724V431.091H320.578V442H318.372Z" fill="white"/>
<g filter="url(#filter12_d_2875_1856)">
<circle cx="318" cy="529" r="40" fill="#D8D8D8"/>
<circle cx="318" cy="529" r="39" stroke="white" stroke-opacity="0.1" stroke-width="2"/>
</g>
<g filter="url(#filter13_d_2875_1856)">
<circle cx="318" cy="529" r="47" stroke="white" stroke-opacity="0.1" stroke-width="2" shape-rendering="crispEdges"/>
</g>
<path d="M318 455.667C316.527 455.667 315.333 454.473 315.333 453C315.333 451.527 316.527 450.333 318 450.333C319.473 450.333 320.667 451.527 320.667 453C320.667 454.473 319.473 455.667 318 455.667ZM318 491.667C316.527 491.667 315.333 490.473 315.333 489C315.333 487.527 316.527 486.333 318 486.333C319.473 486.333 320.667 487.527 320.667 489C320.667 490.473 319.473 491.667 318 491.667ZM318.5 453L318.5 489L317.5 489L317.5 453L318.5 453Z" fill="white"/>
<path d="M331 519C332.625 519 334 520.375 334 522V540C334 541.688 332.625 543 331 543H305C303.312 543 302 541.688 302 540V518C302 516.375 303.312 515 305 515H315L319 519H331ZM323 532.5C323.812 532.5 324.5 531.875 324.5 531C324.5 530.188 323.812 529.562 323 529.562H319.5V526C319.5 525.188 318.812 524.5 318 524.5C317.125 524.5 316.5 525.188 316.5 526V529.562H313C312.125 529.562 311.5 530.188 311.5 531C311.5 531.875 312.125 532.5 313 532.5H316.5V536.062C316.5 536.875 317.125 537.5 318 537.5C318.812 537.5 319.5 536.875 319.5 536.062V532.5H323Z" fill="#323232"/>
<g filter="url(#filter14_d_2875_1856)">
<circle cx="511" cy="569" r="16" transform="rotate(-180 511 569)" fill="#6E6E6E"/>
<circle cx="511" cy="569" r="15.5" transform="rotate(-180 511 569)" stroke="white" stroke-opacity="0.2"/>
</g>
<path d="M511.035 575.149C510.282 575.149 509.611 575.011 509.021 574.734C508.435 574.457 507.97 574.075 507.626 573.588C507.281 573.102 507.102 572.544 507.088 571.916H509.325C509.35 572.338 509.527 572.681 509.857 572.944C510.188 573.207 510.58 573.338 511.035 573.338C511.397 573.338 511.716 573.258 511.993 573.098C512.274 572.935 512.492 572.71 512.649 572.422C512.808 572.131 512.888 571.797 512.888 571.42C512.888 571.037 512.807 570.7 512.643 570.408C512.483 570.117 512.262 569.89 511.977 569.727C511.693 569.563 511.368 569.48 511.003 569.476C510.683 569.476 510.372 569.542 510.07 569.673C509.772 569.805 509.54 569.984 509.373 570.211L507.322 569.844L507.839 564.091H514.508V565.977H509.74L509.458 568.709H509.522C509.714 568.439 510.003 568.216 510.39 568.038C510.777 567.86 511.21 567.772 511.69 567.772C512.347 567.772 512.933 567.926 513.448 568.235C513.963 568.544 514.369 568.968 514.667 569.508C514.966 570.044 515.113 570.662 515.11 571.362C515.113 572.097 514.943 572.75 514.598 573.322C514.257 573.89 513.78 574.338 513.165 574.664C512.555 574.988 511.844 575.149 511.035 575.149Z" fill="white"/>
<g filter="url(#filter15_d_2875_1856)">
<circle cx="511" cy="477" r="40" transform="rotate(-180 511 477)" fill="#AB001F"/>
<circle cx="511" cy="477" r="39" transform="rotate(-180 511 477)" stroke="white" stroke-opacity="0.2" stroke-width="2"/>
</g>
<g filter="url(#filter16_d_2875_1856)">
<path d="M464 477C464 451.043 485.043 430 511 430C536.957 430 558 451.043 558 477C558 502.957 536.957 524 511 524C485.043 524 464 502.957 464 477Z" stroke="white" stroke-opacity="0.2" stroke-width="2" shape-rendering="crispEdges"/>
</g>
<path d="M511 550.333C512.473 550.333 513.667 551.527 513.667 553C513.667 554.473 512.473 555.667 511 555.667C509.527 555.667 508.333 554.473 508.333 553C508.333 551.527 509.527 550.333 511 550.333ZM511 514.333C512.473 514.333 513.667 515.527 513.667 517C513.667 518.473 512.473 519.667 511 519.667C509.527 519.667 508.333 518.473 508.333 517C508.333 515.527 509.527 514.333 511 514.333ZM510.5 553L510.5 517L511.5 517L511.5 553L510.5 553Z" fill="white"/>
<path d="M505 477C500.562 477 497 473.438 497 469C497 464.625 500.562 461 505 461C509.375 461 513 464.625 513 469C513 473.438 509.375 477 505 477ZM508.125 480C514.125 480 519 484.875 519 490.875C519 492.062 518 493 516.812 493H493.125C491.938 493 491 492.062 491 490.875C491 484.875 495.812 480 501.812 480H508.125ZM520.938 481C526.5 481 531 485.5 531 491C531 492.125 530.062 493 529 493H520.375C520.75 492.375 521 491.688 521 490.875C521 486.938 519.188 483.375 516.375 481H520.938ZM518 477C516 477 514.25 476.25 513 474.938C514.25 473.312 515 471.25 515 469C515 467.375 514.5 465.812 513.812 464.438C514.938 463.562 516.375 463 518 463C521.812 463 525 466.188 525 470C525 473.875 521.812 477 518 477Z" fill="white"/>
<g filter="url(#filter17_d_2875_1856)">
<circle cx="603" cy="303" r="16" transform="rotate(90 603 303)" fill="#6E6E6E"/>
<circle cx="603" cy="303" r="15.5" transform="rotate(90 603 303)" stroke="white" stroke-opacity="0.2"/>
</g>
<path d="M603.12 308.149C602.559 308.146 602.017 308.051 601.495 307.867C600.977 307.682 600.512 307.382 600.1 306.967C599.688 306.551 599.361 306.001 599.119 305.315C598.882 304.63 598.763 303.788 598.763 302.79C598.766 301.874 598.871 301.056 599.077 300.335C599.286 299.61 599.585 298.996 599.972 298.492C600.362 297.988 600.829 297.604 601.373 297.341C601.916 297.075 602.525 296.942 603.2 296.942C603.928 296.942 604.57 297.084 605.128 297.368C605.686 297.648 606.133 298.03 606.47 298.513C606.811 298.996 607.017 299.538 607.088 300.138H604.814C604.725 299.758 604.539 299.46 604.254 299.243C603.97 299.026 603.619 298.918 603.2 298.918C602.49 298.918 601.95 299.227 601.58 299.845C601.215 300.463 601.028 301.303 601.021 302.364H601.096C601.259 302.041 601.479 301.766 601.756 301.539C602.037 301.308 602.355 301.132 602.71 301.011C603.068 300.887 603.447 300.825 603.844 300.825C604.491 300.825 605.066 300.978 605.57 301.283C606.074 301.585 606.472 302 606.763 302.529C607.055 303.059 607.2 303.664 607.2 304.346C607.2 305.085 607.028 305.741 606.683 306.317C606.343 306.892 605.865 307.343 605.251 307.67C604.64 307.993 603.93 308.153 603.12 308.149ZM603.109 306.338C603.464 306.338 603.782 306.253 604.063 306.082C604.343 305.912 604.563 305.681 604.723 305.39C604.883 305.099 604.963 304.772 604.963 304.41C604.963 304.048 604.883 303.723 604.723 303.435C604.567 303.147 604.35 302.918 604.073 302.748C603.796 302.577 603.48 302.492 603.125 302.492C602.859 302.492 602.612 302.542 602.385 302.641C602.161 302.741 601.964 302.879 601.794 303.057C601.627 303.234 601.495 303.44 601.399 303.675C601.303 303.906 601.256 304.152 601.256 304.415C601.256 304.767 601.335 305.088 601.495 305.379C601.659 305.67 601.879 305.903 602.156 306.077C602.436 306.251 602.754 306.338 603.109 306.338Z" fill="white"/>
<g filter="url(#filter18_d_2875_1856)">
<circle cx="511" cy="303" r="40" transform="rotate(90 511 303)" fill="#9A9A9A"/>
<circle cx="511" cy="303" r="39" transform="rotate(90 511 303)" stroke="white" stroke-opacity="0.1" stroke-width="2"/>
</g>
<path d="M509.812 299.188C508.188 299.688 506.938 301.25 506.938 303.062C506.938 305.25 508.75 307.062 511 307.062C512.75 307.062 514.312 305.812 514.812 304.188L518.5 300.438C518.812 301.25 518.938 302.125 518.938 303.062C518.938 307.438 515.375 311.062 511 311.062C506.562 311.062 503 307.438 503 303.062C503 298.625 506.562 295.062 511 295.062C511.875 295.062 512.75 295.188 513.562 295.5L509.812 299.188ZM524.062 300.125L525.375 298.875C525.75 300.188 526 301.562 526 303.062C526 311.312 519.25 318 511 318C502.688 318 496 311.312 496 303.062C496 294.75 502.688 288.062 511 288.062C512.438 288.062 513.812 288.25 515.125 288.625L513.875 289.938C513.25 290.5 512.938 291.375 513 292.25C512.312 292.125 511.688 292.062 511 292.062C504.875 292.062 500 296.938 500 303.062C500 309.125 504.875 314 511 314C517.062 314 521.938 309.125 521.938 303.062C521.938 302.312 521.875 301.688 521.75 301C521.812 301 521.875 301.062 522 301.062C522.75 301.062 523.5 300.75 524.062 300.125ZM526.938 293.75C527.062 294.125 526.938 294.5 526.688 294.75L522.688 298.75C522.5 298.938 522.25 299.062 522 299.062C521.875 299.062 521.812 299 521.75 299L517.875 298.25L512.5 303.562C512.25 303.875 511.875 304.062 511.5 304.062C511.062 304.062 510.688 303.875 510.438 303.562C509.812 303 509.812 302.062 510.438 301.5L515.75 296.125L515 292.25C514.938 291.875 515 291.562 515.25 291.312L519.25 287.312C519.5 287.062 519.875 286.938 520.25 287.062C520.625 287.188 520.875 287.5 520.938 287.812L522 292.062L526.188 293.062C526.5 293.125 526.812 293.375 526.938 293.75Z" fill="white"/>
<g filter="url(#filter19_d_2875_1856)">
<circle cx="511" cy="303" r="47" transform="rotate(90 511 303)" stroke="white" stroke-opacity="0.1" stroke-width="2" shape-rendering="crispEdges"/>
</g>
<path d="M584.333 303C584.333 301.527 585.527 300.333 587 300.333C588.473 300.333 589.667 301.527 589.667 303C589.667 304.473 588.473 305.667 587 305.667C585.527 305.667 584.333 304.473 584.333 303ZM548.333 303C548.333 301.527 549.527 300.333 551 300.333C552.473 300.333 553.667 301.527 553.667 303C553.667 304.473 552.473 305.667 551 305.667C549.527 305.667 548.333 304.473 548.333 303ZM587 303.5L551 303.5L551 302.5L587 302.5V303.5Z" fill="white"/>
<path fill-rule="evenodd" clip-rule="evenodd" d="M555.381 136.16C557.808 134.759 560.624 133.958 563.627 133.958H564.52C573.643 133.958 581.038 141.353 581.038 150.476C581.038 151.862 580.868 153.208 580.546 154.494H581.931C591.301 154.494 598.896 162.089 598.896 171.459C598.896 180.828 591.301 188.423 581.931 188.423H497.621L497.554 188.423H496.661L496.595 188.423H494.429C490.249 188.423 486.422 186.911 483.465 184.404C477.152 180.155 473 172.943 473 164.762C473 151.694 483.594 141.101 496.661 141.101H497.554C499.752 141.101 501.881 141.4 503.9 141.961C506.395 129.751 517.197 120.564 530.144 120.564H531.037C541.836 120.564 551.142 126.955 555.381 136.16Z" fill="white" fill-opacity="0.16"/>
<path fill-rule="evenodd" clip-rule="evenodd" d="M609.76 120.092C612.071 115.304 616.972 112 622.645 112H623.122C631.019 112 637.421 118.402 637.421 126.299C637.421 126.823 637.392 127.341 637.337 127.85C642.244 128.612 646 132.856 646 137.976C646 143.636 641.412 148.224 635.752 148.224H601.435C595.776 148.224 591.188 143.636 591.188 137.976C591.188 133.718 593.785 130.066 597.483 128.519C597.418 128.106 597.384 127.683 597.384 127.252C597.384 122.777 601.012 119.149 605.487 119.149H605.963C607.335 119.149 608.628 119.49 609.76 120.092Z" fill="white" fill-opacity="0.08"/>
<path d="M619 556.291L623.077 552.214C627.061 548.23 633.521 548.23 637.505 552.214V552.214C641.489 556.198 647.948 556.198 651.932 552.214V552.214C655.916 548.23 662.375 548.23 666.359 552.214V552.214C670.343 556.198 676.802 556.198 680.786 552.214V552.214C684.77 548.23 691.23 548.23 695.214 552.214V552.214C699.198 556.198 705.657 556.198 709.641 552.214V552.214C713.625 548.23 720.084 548.23 724.068 552.214V552.214C728.052 556.198 734.511 556.198 738.495 552.214V552.214C742.479 548.23 748.939 548.23 752.923 552.214L757 556.291" stroke="white" stroke-opacity="0.1" stroke-width="2"/>
<path d="M619 568.836L623.077 564.759C627.061 560.775 633.521 560.775 637.505 564.759V564.759C641.489 568.743 647.948 568.743 651.932 564.759V564.759C655.916 560.775 662.375 560.775 666.359 564.759V564.759C670.343 568.743 676.802 568.743 680.786 564.759V564.759C684.77 560.775 691.23 560.775 695.214 564.759V564.759C699.198 568.743 705.657 568.743 709.641 564.759V564.759C713.625 560.775 720.084 560.775 724.068 564.759V564.759C728.052 568.743 734.511 568.743 738.495 564.759V564.759C742.479 560.775 748.939 560.775 752.923 564.759L757 568.836" stroke="white" stroke-opacity="0.1" stroke-width="2"/>
<path d="M619 582.009L623.077 577.932C627.061 573.948 633.521 573.948 637.505 577.932V577.932C641.489 581.916 647.948 581.916 651.932 577.932V577.932C655.916 573.948 662.375 573.948 666.359 577.932V577.932C670.343 581.916 676.802 581.916 680.786 577.932V577.932C684.77 573.948 691.23 573.948 695.214 577.932V577.932C699.198 581.916 705.657 581.916 709.641 577.932V577.932C713.625 573.948 720.084 573.948 724.068 577.932V577.932C728.052 581.916 734.511 581.916 738.495 577.932V577.932C742.479 573.948 748.939 573.948 752.923 577.932L757 582.009" stroke="white" stroke-opacity="0.1" stroke-width="2"/>
<path d="M-51 314.291L-46.9227 310.214C-42.9388 306.23 -36.4794 306.23 -32.4955 310.214V310.214C-28.5115 314.198 -22.0522 314.198 -18.0682 310.214V310.214C-14.0842 306.23 -7.62489 306.23 -3.64091 310.214V310.214C0.343074 314.198 6.80238 314.198 10.7864 310.214V310.214C14.7703 306.23 21.2297 306.23 25.2136 310.214V310.214C29.1976 314.198 35.6569 314.198 39.6409 310.214V310.214C43.6249 306.23 50.0842 306.23 54.0682 310.214V310.214C58.0522 314.198 64.5115 314.198 68.4955 310.214V310.214C72.4794 306.23 78.9387 306.23 82.9227 310.214L87 314.291" stroke="white" stroke-opacity="0.1" stroke-width="2"/>
<path d="M-51 326.836L-46.9227 322.759C-42.9388 318.775 -36.4794 318.775 -32.4955 322.759V322.759C-28.5115 326.743 -22.0522 326.743 -18.0682 322.759V322.759C-14.0842 318.775 -7.62489 318.775 -3.64091 322.759V322.759C0.343074 326.743 6.80238 326.743 10.7864 322.759V322.759C14.7703 318.775 21.2297 318.775 25.2136 322.759V322.759C29.1976 326.743 35.6569 326.743 39.6409 322.759V322.759C43.6249 318.775 50.0842 318.775 54.0682 322.759V322.759C58.0522 326.743 64.5115 326.743 68.4955 322.759V322.759C72.4794 318.775 78.9387 318.775 82.9227 322.759L87 326.836" stroke="white" stroke-opacity="0.1" stroke-width="2"/>
<path d="M-51 340.009L-46.9227 335.932C-42.9388 331.948 -36.4794 331.948 -32.4955 335.932V335.932C-28.5115 339.916 -22.0522 339.916 -18.0682 335.932V335.932C-14.0842 331.948 -7.62489 331.948 -3.64091 335.932V335.932C0.343074 339.916 6.80238 339.916 10.7864 335.932V335.932C14.7703 331.948 21.2297 331.948 25.2136 335.932V335.932C29.1976 339.916 35.6569 339.916 39.6409 335.932V335.932C43.6249 331.948 50.0842 331.948 54.0682 335.932V335.932C58.0522 339.916 64.5115 339.916 68.4955 335.932V335.932C72.4794 331.948 78.9387 331.948 82.9227 335.932L87 340.009" stroke="white" stroke-opacity="0.1" stroke-width="2"/>
<path d="M464 381.291L468.077 377.214C472.061 373.23 478.521 373.23 482.505 377.214V377.214C486.489 381.198 492.948 381.198 496.932 377.214V377.214C500.916 373.23 507.375 373.23 511.359 377.214V377.214C515.343 381.198 521.802 381.198 525.786 377.214V377.214C529.77 373.23 536.23 373.23 540.214 377.214L547.427 384.427" stroke="white" stroke-opacity="0.1" stroke-width="2"/>
<path d="M464 393.836L468.077 389.759C472.061 385.775 478.521 385.775 482.505 389.759V389.759C486.489 393.743 492.948 393.743 496.932 389.759V389.759C500.916 385.775 507.375 385.775 511.359 389.759V389.759C515.343 393.743 521.802 393.743 525.786 389.759V389.759C529.77 385.775 536.23 385.775 540.214 389.759L547.427 396.973" stroke="white" stroke-opacity="0.1" stroke-width="2"/>
<path d="M464 407.009L468.077 402.932C472.061 398.948 478.521 398.948 482.505 402.932V402.932C486.489 406.916 492.948 406.916 496.932 402.932V402.932C500.916 398.948 507.375 398.948 511.359 402.932V402.932C515.343 406.916 521.802 406.916 525.786 402.932V402.932C529.77 398.948 536.23 398.948 540.214 402.932L547.427 410.146" stroke="white" stroke-opacity="0.1" stroke-width="2"/>
<path fill-rule="evenodd" clip-rule="evenodd" d="M658.278 469.961C658.615 467.685 660.568 466 662.869 466C665.144 466 667.084 467.649 667.449 469.895L669.251 480.95C669.845 484.595 667.242 487.924 663.668 488.321V495.483H662.011V488.292C658.586 487.79 656.112 484.581 656.636 481.041L658.278 469.961ZM641.487 476.862C644.517 476.862 646.974 479.319 646.974 482.349V493.161C646.974 495.918 644.942 498.199 642.294 498.589V509.138H640.68V498.589C638.032 498.199 636 495.918 636 493.161V482.349C636 479.319 638.457 476.862 641.487 476.862ZM655.552 518.404C655.552 515.343 658.033 512.862 661.094 512.862C664.155 512.862 666.636 515.343 666.636 518.404C666.636 521.188 664.584 523.493 661.909 523.887V529H660.279V523.887C657.604 523.493 655.552 521.188 655.552 518.404Z" fill="white" fill-opacity="0.08"/>
<path fill-rule="evenodd" clip-rule="evenodd" d="M217.431 565C214.354 565 211.741 567.254 211.29 570.299L209.094 585.12C208.392 589.855 211.703 594.147 216.284 594.819V604.438H218.5V594.858C223.281 594.327 226.763 589.873 225.969 584.998L223.559 570.21C223.069 567.206 220.474 565 217.431 565ZM230.905 581.339C230.905 577.245 234.224 573.925 238.319 573.925C242.413 573.925 245.732 577.245 245.732 581.339C245.732 585.063 242.986 588.146 239.409 588.673V595.512H237.228V588.673C233.651 588.146 230.905 585.063 230.905 581.339Z" fill="white" fill-opacity="0.08"/>
<g filter="url(#filter20_d_2875_1856)">
<rect x="207" y="142" width="221" height="32" rx="8" fill="#FEE0BC"/>
<path d="M219.861 162V153.273H225.537V154.598H221.442V156.967H225.243V158.293H221.442V160.675H225.571V162H219.861ZM229.937 162.128C229.283 162.128 228.722 161.984 228.254 161.697C227.788 161.411 227.428 161.014 227.175 160.509C226.925 160 226.8 159.415 226.8 158.753C226.8 158.088 226.928 157.501 227.184 156.993C227.44 156.482 227.8 156.084 228.266 155.8C228.735 155.513 229.289 155.369 229.928 155.369C230.46 155.369 230.93 155.467 231.339 155.663C231.751 155.857 232.079 156.131 232.323 156.486C232.567 156.838 232.707 157.25 232.741 157.722H231.266C231.207 157.406 231.065 157.143 230.84 156.933C230.619 156.72 230.322 156.614 229.95 156.614C229.634 156.614 229.357 156.699 229.119 156.869C228.88 157.037 228.694 157.278 228.56 157.594C228.43 157.909 228.364 158.287 228.364 158.727C228.364 159.173 228.43 159.557 228.56 159.878C228.691 160.196 228.874 160.442 229.11 160.615C229.349 160.786 229.629 160.871 229.95 160.871C230.177 160.871 230.38 160.828 230.559 160.743C230.741 160.655 230.893 160.528 231.015 160.364C231.137 160.199 231.221 159.999 231.266 159.763H232.741C232.704 160.226 232.567 160.636 232.332 160.994C232.096 161.349 231.775 161.628 231.369 161.83C230.962 162.028 230.485 162.128 229.937 162.128ZM233.532 156.72V155.455H239.26V156.72H237.142V162H235.65V156.72H233.532ZM241.532 157.585H243.462C244.298 157.585 244.944 157.788 245.401 158.195C245.859 158.601 246.089 159.134 246.092 159.793C246.089 160.222 245.984 160.602 245.776 160.935C245.572 161.267 245.273 161.528 244.881 161.719C244.492 161.906 244.019 162 243.462 162H240.488V155.455H241.975V160.734H243.462C243.798 160.734 244.073 160.649 244.289 160.479C244.505 160.305 244.613 160.084 244.613 159.814C244.613 159.53 244.505 159.298 244.289 159.119C244.073 158.94 243.798 158.851 243.462 158.851H241.532V157.585ZM249.811 163.901V160.73H250.331C250.47 160.622 250.586 160.476 250.68 160.291C250.774 160.104 250.85 159.884 250.91 159.631C250.973 159.375 251.024 159.089 251.064 158.774C251.103 158.456 251.139 158.114 251.17 157.747L251.358 155.455H256.088V160.73H257.102V163.901H255.61V162H251.328V163.901H249.811ZM251.916 160.73H254.613V156.699H252.696L252.593 157.747C252.537 158.44 252.461 159.034 252.368 159.528C252.274 160.023 252.123 160.423 251.916 160.73ZM261.109 162.128C260.469 162.128 259.915 161.987 259.447 161.706C258.978 161.425 258.614 161.031 258.356 160.526C258.1 160.02 257.972 159.429 257.972 158.753C257.972 158.077 258.1 157.484 258.356 156.976C258.614 156.467 258.978 156.072 259.447 155.791C259.915 155.51 260.469 155.369 261.109 155.369C261.748 155.369 262.302 155.51 262.771 155.791C263.239 156.072 263.602 156.467 263.857 156.976C264.116 157.484 264.245 158.077 264.245 158.753C264.245 159.429 264.116 160.02 263.857 160.526C263.602 161.031 263.239 161.425 262.771 161.706C262.302 161.987 261.748 162.128 261.109 162.128ZM261.117 160.892C261.464 160.892 261.754 160.797 261.987 160.607C262.219 160.413 262.393 160.155 262.506 159.831C262.623 159.507 262.681 159.146 262.681 158.749C262.681 158.348 262.623 157.986 262.506 157.662C262.393 157.335 262.219 157.075 261.987 156.882C261.754 156.689 261.464 156.592 261.117 156.592C260.762 156.592 260.467 156.689 260.231 156.882C259.998 157.075 259.823 157.335 259.707 157.662C259.593 157.986 259.536 158.348 259.536 158.749C259.536 159.146 259.593 159.507 259.707 159.831C259.823 160.155 259.998 160.413 260.231 160.607C260.467 160.797 260.762 160.892 261.117 160.892ZM265.554 162V155.455H271.081V162H269.594V156.72H267.029V162H265.554ZM275.523 162.128C274.884 162.128 274.33 161.987 273.861 161.706C273.392 161.425 273.028 161.031 272.77 160.526C272.514 160.02 272.386 159.429 272.386 158.753C272.386 158.077 272.514 157.484 272.77 156.976C273.028 156.467 273.392 156.072 273.861 155.791C274.33 155.51 274.884 155.369 275.523 155.369C276.162 155.369 276.716 155.51 277.185 155.791C277.653 156.072 278.016 156.467 278.271 156.976C278.53 157.484 278.659 158.077 278.659 158.753C278.659 159.429 278.53 160.02 278.271 160.526C278.016 161.031 277.653 161.425 277.185 161.706C276.716 161.987 276.162 162.128 275.523 162.128ZM275.531 160.892C275.878 160.892 276.168 160.797 276.401 160.607C276.634 160.413 276.807 160.155 276.92 159.831C277.037 159.507 277.095 159.146 277.095 158.749C277.095 158.348 277.037 157.986 276.92 157.662C276.807 157.335 276.634 157.075 276.401 156.882C276.168 156.689 275.878 156.592 275.531 156.592C275.176 156.592 274.881 156.689 274.645 156.882C274.412 157.075 274.237 157.335 274.121 157.662C274.007 157.986 273.95 158.348 273.95 158.749C273.95 159.146 274.007 159.507 274.121 159.831C274.237 160.155 274.412 160.413 274.645 160.607C274.881 160.797 275.176 160.892 275.531 160.892ZM279.517 162L279.508 160.73H279.734C279.904 160.73 280.048 160.692 280.164 160.615C280.281 160.538 280.377 160.411 280.454 160.232C280.531 160.05 280.591 159.805 280.633 159.499C280.676 159.192 280.706 158.81 280.723 158.352L280.838 155.455H285.61V162H284.119V156.72H282.24L282.137 158.83C282.112 159.375 282.051 159.848 281.954 160.249C281.86 160.646 281.727 160.974 281.554 161.233C281.383 161.491 281.169 161.685 280.91 161.812C280.652 161.938 280.346 162 279.994 162H279.517ZM291.659 158.088V159.354H288.174V158.088H291.659ZM288.651 155.455V162H287.164V155.455H288.651ZM292.669 155.455V162H291.186V155.455H292.669ZM295.717 159.912L298.338 155.455H299.923V162H298.432V157.538L295.82 162H294.23V155.455H295.717V159.912ZM300.775 156.72V155.455H306.502V156.72H304.384V162H302.892V156.72H300.775ZM310.358 162.128C309.702 162.128 309.135 161.991 308.658 161.719C308.184 161.443 307.819 161.054 307.563 160.551C307.307 160.045 307.179 159.45 307.179 158.766C307.179 158.092 307.307 157.501 307.563 156.993C307.821 156.482 308.182 156.084 308.645 155.8C309.108 155.513 309.652 155.369 310.277 155.369C310.681 155.369 311.061 155.435 311.419 155.565C311.78 155.693 312.098 155.892 312.374 156.162C312.652 156.432 312.871 156.776 313.03 157.193C313.189 157.608 313.269 158.102 313.269 158.676V159.149H307.904V158.109H311.79C311.787 157.814 311.723 157.551 311.598 157.321C311.473 157.088 311.299 156.905 311.074 156.771C310.853 156.638 310.594 156.571 310.299 156.571C309.983 156.571 309.706 156.648 309.468 156.801C309.229 156.952 309.043 157.151 308.909 157.398C308.779 157.642 308.712 157.911 308.709 158.203V159.111C308.709 159.491 308.779 159.818 308.918 160.091C309.057 160.361 309.252 160.568 309.502 160.713C309.752 160.855 310.044 160.926 310.38 160.926C310.604 160.926 310.807 160.895 310.989 160.832C311.171 160.767 311.328 160.672 311.462 160.547C311.596 160.422 311.696 160.267 311.765 160.082L313.205 160.244C313.114 160.625 312.941 160.957 312.685 161.241C312.432 161.523 312.108 161.741 311.713 161.898C311.319 162.051 310.867 162.128 310.358 162.128ZM314.122 162L314.114 160.73H314.339C314.51 160.73 314.653 160.692 314.77 160.615C314.886 160.538 314.983 160.411 315.06 160.232C315.136 160.05 315.196 159.805 315.239 159.499C315.281 159.192 315.311 158.81 315.328 158.352L315.443 155.455H320.216V162H318.724V156.72H316.845L316.743 158.83C316.717 159.375 316.656 159.848 316.56 160.249C316.466 160.646 316.332 160.974 316.159 161.233C315.989 161.491 315.774 161.685 315.516 161.812C315.257 161.938 314.952 162 314.599 162H314.122ZM322.813 157.585H324.744C325.579 157.585 326.225 157.788 326.683 158.195C327.14 158.601 327.37 159.134 327.373 159.793C327.37 160.222 327.265 160.602 327.058 160.935C326.853 161.267 326.555 161.528 326.163 161.719C325.773 161.906 325.3 162 324.744 162H321.769V155.455H323.256V160.734H324.744C325.079 160.734 325.354 160.649 325.57 160.479C325.786 160.305 325.894 160.084 325.894 159.814C325.894 159.53 325.786 159.298 325.57 159.119C325.354 158.94 325.079 158.851 324.744 158.851H322.813V157.585ZM333.191 158.088V159.354H329.705V158.088H333.191ZM330.182 155.455V162H328.695V155.455H330.182ZM334.201 155.455V162H332.718V155.455H334.201ZM336.805 157.585H338.736C339.571 157.585 340.217 157.788 340.675 158.195C341.132 158.601 341.362 159.134 341.365 159.793C341.362 160.222 341.257 160.602 341.05 160.935C340.845 161.267 340.547 161.528 340.155 161.719C339.766 161.906 339.293 162 338.736 162H335.761V155.455H337.249V160.734H338.736C339.071 160.734 339.347 160.649 339.562 160.479C339.778 160.305 339.886 160.084 339.886 159.814C339.886 159.53 339.778 159.298 339.562 159.119C339.347 158.94 339.071 158.851 338.736 158.851H336.805V157.585ZM342.179 162V155.455H343.722V162H342.179ZM346.799 159.912L349.42 155.455H351.005V162H349.514V157.538L346.902 162H345.312V155.455H346.799V159.912ZM348.998 153.205H350.153C350.153 153.702 349.973 154.105 349.612 154.415C349.254 154.722 348.768 154.875 348.154 154.875C347.547 154.875 347.062 154.722 346.701 154.415C346.343 154.105 346.166 153.702 346.169 153.205H347.315C347.315 153.409 347.377 153.592 347.502 153.754C347.63 153.913 347.848 153.993 348.154 153.993C348.456 153.993 348.67 153.913 348.798 153.754C348.929 153.595 348.995 153.412 348.998 153.205ZM357.45 162.132C357.035 162.132 356.661 162.058 356.329 161.911C355.999 161.76 355.738 161.538 355.545 161.246C355.354 160.953 355.259 160.592 355.259 160.163C355.259 159.794 355.327 159.489 355.464 159.247C355.6 159.006 355.786 158.812 356.022 158.668C356.258 158.523 356.523 158.413 356.819 158.339C357.117 158.263 357.425 158.207 357.744 158.173C358.127 158.134 358.438 158.098 358.677 158.067C358.915 158.033 359.089 157.982 359.197 157.913C359.308 157.842 359.363 157.733 359.363 157.585V157.56C359.363 157.239 359.268 156.99 359.077 156.814C358.887 156.638 358.613 156.55 358.255 156.55C357.877 156.55 357.577 156.632 357.356 156.797C357.137 156.962 356.989 157.156 356.913 157.381L355.472 157.176C355.586 156.778 355.773 156.446 356.035 156.179C356.296 155.909 356.616 155.707 356.994 155.574C357.371 155.438 357.789 155.369 358.246 155.369C358.562 155.369 358.876 155.406 359.188 155.48C359.501 155.554 359.786 155.676 360.045 155.847C360.303 156.014 360.511 156.243 360.667 156.533C360.826 156.822 360.906 157.185 360.906 157.619V162H359.423V161.101H359.371C359.278 161.283 359.146 161.453 358.975 161.612C358.808 161.768 358.596 161.895 358.34 161.991C358.087 162.085 357.79 162.132 357.45 162.132ZM357.85 160.999C358.16 160.999 358.428 160.937 358.656 160.815C358.883 160.69 359.058 160.526 359.18 160.321C359.305 160.116 359.367 159.893 359.367 159.652V158.881C359.319 158.92 359.237 158.957 359.12 158.991C359.006 159.026 358.879 159.055 358.737 159.081C358.594 159.107 358.454 159.129 358.315 159.149C358.175 159.169 358.055 159.186 357.952 159.2C357.722 159.232 357.516 159.283 357.335 159.354C357.153 159.425 357.009 159.524 356.904 159.652C356.799 159.777 356.746 159.939 356.746 160.138C356.746 160.422 356.85 160.636 357.058 160.781C357.265 160.926 357.529 160.999 357.85 160.999ZM362.457 164.455V155.455H363.974V156.537H364.063C364.143 156.378 364.255 156.209 364.4 156.03C364.545 155.848 364.741 155.693 364.988 155.565C365.235 155.435 365.55 155.369 365.934 155.369C366.44 155.369 366.896 155.499 367.302 155.757C367.711 156.013 368.035 156.392 368.273 156.895C368.515 157.395 368.636 158.009 368.636 158.736C368.636 159.455 368.518 160.065 368.282 160.568C368.046 161.071 367.725 161.455 367.319 161.719C366.913 161.983 366.452 162.115 365.938 162.115C365.563 162.115 365.252 162.053 365.005 161.928C364.758 161.803 364.559 161.652 364.408 161.476C364.261 161.297 364.146 161.128 364.063 160.969H363.999V164.455H362.457ZM363.969 158.727C363.969 159.151 364.029 159.521 364.148 159.839C364.271 160.158 364.445 160.406 364.673 160.585C364.903 160.761 365.181 160.849 365.508 160.849C365.849 160.849 366.134 160.759 366.364 160.577C366.594 160.392 366.768 160.141 366.884 159.822C367.004 159.501 367.063 159.136 367.063 158.727C367.063 158.321 367.005 157.96 366.888 157.645C366.772 157.33 366.599 157.082 366.369 156.903C366.138 156.724 365.852 156.635 365.508 156.635C365.178 156.635 364.898 156.722 364.668 156.895C364.438 157.068 364.263 157.311 364.144 157.624C364.028 157.936 363.969 158.304 363.969 158.727ZM369.235 156.72V155.455H374.963V156.72H372.845V162H371.353V156.72H369.235ZM378.819 162.128C378.163 162.128 377.596 161.991 377.119 161.719C376.645 161.443 376.279 161.054 376.024 160.551C375.768 160.045 375.64 159.45 375.64 158.766C375.64 158.092 375.768 157.501 376.024 156.993C376.282 156.482 376.643 156.084 377.106 155.8C377.569 155.513 378.113 155.369 378.738 155.369C379.142 155.369 379.522 155.435 379.88 155.565C380.241 155.693 380.559 155.892 380.835 156.162C381.113 156.432 381.332 156.776 381.491 157.193C381.65 157.608 381.73 158.102 381.73 158.676V159.149H376.365V158.109H380.251C380.248 157.814 380.184 157.551 380.059 157.321C379.934 157.088 379.76 156.905 379.535 156.771C379.314 156.638 379.055 156.571 378.76 156.571C378.444 156.571 378.167 156.648 377.929 156.801C377.69 156.952 377.504 157.151 377.37 157.398C377.24 157.642 377.173 157.911 377.17 158.203V159.111C377.17 159.491 377.24 159.818 377.379 160.091C377.518 160.361 377.713 160.568 377.963 160.713C378.213 160.855 378.505 160.926 378.841 160.926C379.065 160.926 379.268 160.895 379.45 160.832C379.632 160.767 379.789 160.672 379.923 160.547C380.056 160.422 380.157 160.267 380.225 160.082L381.666 160.244C381.575 160.625 381.402 160.957 381.146 161.241C380.893 161.523 380.569 161.741 380.174 161.898C379.779 162.051 379.328 162.128 378.819 162.128ZM386.005 164.224V153.273H387.552V164.224H386.005ZM386.005 162.128C385.525 162.128 385.086 162.047 384.688 161.885C384.29 161.723 383.947 161.493 383.657 161.195C383.37 160.896 383.147 160.541 382.988 160.129C382.832 159.714 382.754 159.256 382.754 158.753C382.754 158.25 382.832 157.791 382.988 157.376C383.147 156.962 383.37 156.605 383.657 156.307C383.947 156.006 384.29 155.774 384.688 155.612C385.086 155.45 385.525 155.369 386.005 155.369H386.333V162.128H386.005ZM386.005 160.884H386.197V156.614H386.005C385.732 156.614 385.491 156.67 385.281 156.784C385.073 156.895 384.898 157.05 384.756 157.249C384.617 157.445 384.511 157.672 384.437 157.93C384.366 158.186 384.33 158.46 384.33 158.753C384.33 159.142 384.394 159.499 384.522 159.822C384.65 160.143 384.837 160.401 385.085 160.594C385.335 160.787 385.641 160.884 386.005 160.884ZM387.552 162.128H387.224V155.369H387.552C388.032 155.369 388.471 155.45 388.869 155.612C389.266 155.774 389.609 156.006 389.896 156.307C390.185 156.605 390.408 156.962 390.565 157.376C390.724 157.791 390.803 158.25 390.803 158.753C390.803 159.256 390.724 159.714 390.565 160.129C390.408 160.541 390.185 160.896 389.896 161.195C389.609 161.493 389.266 161.723 388.869 161.885C388.471 162.047 388.032 162.128 387.552 162.128ZM387.552 160.884C387.827 160.884 388.069 160.828 388.276 160.717C388.484 160.607 388.657 160.453 388.796 160.257C388.938 160.061 389.045 159.835 389.116 159.58C389.187 159.321 389.222 159.045 389.222 158.753C389.222 158.364 389.16 158.007 389.035 157.683C388.91 157.359 388.722 157.101 388.472 156.908C388.225 156.712 387.918 156.614 387.552 156.614H387.36V160.884H387.552ZM393.989 162.132C393.574 162.132 393.2 162.058 392.868 161.911C392.538 161.76 392.277 161.538 392.084 161.246C391.893 160.953 391.798 160.592 391.798 160.163C391.798 159.794 391.866 159.489 392.003 159.247C392.139 159.006 392.325 158.812 392.561 158.668C392.797 158.523 393.063 158.413 393.358 158.339C393.656 158.263 393.964 158.207 394.283 158.173C394.666 158.134 394.977 158.098 395.216 158.067C395.455 158.033 395.628 157.982 395.736 157.913C395.847 157.842 395.902 157.733 395.902 157.585V157.56C395.902 157.239 395.807 156.99 395.616 156.814C395.426 156.638 395.152 156.55 394.794 156.55C394.416 156.55 394.116 156.632 393.895 156.797C393.676 156.962 393.528 157.156 393.452 157.381L392.011 157.176C392.125 156.778 392.313 156.446 392.574 156.179C392.835 155.909 393.155 155.707 393.533 155.574C393.911 155.438 394.328 155.369 394.786 155.369C395.101 155.369 395.415 155.406 395.727 155.48C396.04 155.554 396.325 155.676 396.584 155.847C396.842 156.014 397.05 156.243 397.206 156.533C397.365 156.822 397.445 157.185 397.445 157.619V162H395.962V161.101H395.911C395.817 161.283 395.685 161.453 395.514 161.612C395.347 161.768 395.135 161.895 394.879 161.991C394.626 162.085 394.33 162.132 393.989 162.132ZM394.389 160.999C394.699 160.999 394.967 160.937 395.195 160.815C395.422 160.69 395.597 160.526 395.719 160.321C395.844 160.116 395.906 159.893 395.906 159.652V158.881C395.858 158.92 395.776 158.957 395.659 158.991C395.545 159.026 395.418 159.055 395.276 159.081C395.134 159.107 394.993 159.129 394.854 159.149C394.714 159.169 394.594 159.186 394.491 159.2C394.261 159.232 394.055 159.283 393.874 159.354C393.692 159.425 393.548 159.524 393.443 159.652C393.338 159.777 393.286 159.939 393.286 160.138C393.286 160.422 393.389 160.636 393.597 160.781C393.804 160.926 394.068 160.999 394.389 160.999ZM398.996 162V155.455H400.538V158.097H401.101L403.07 155.455H404.928L402.503 158.668L404.953 162H403.087L401.293 159.533H400.538V162H398.996ZM405.47 156.72V155.455H411.197V156.72H409.079V162H407.588V156.72H405.47ZM414.313 153.273L414.173 159.435H412.8L412.664 153.273H414.313ZM413.487 162.094C413.228 162.094 413.006 162.003 412.822 161.821C412.64 161.639 412.549 161.418 412.549 161.156C412.549 160.901 412.64 160.682 412.822 160.5C413.006 160.318 413.228 160.227 413.487 160.227C413.739 160.227 413.958 160.318 414.143 160.5C414.33 160.682 414.424 160.901 414.424 161.156C414.424 161.33 414.38 161.487 414.292 161.629C414.207 161.771 414.093 161.885 413.951 161.97C413.812 162.053 413.657 162.094 413.487 162.094Z" fill="#313741"/>
<path d="M317.5 181.5L311.5 174L323.5 174L317.5 181.5Z" fill="#FEE0BC"/>
</g>
</g>
<defs>
<filter id="filter0_b_2875_1856" x="-80" y="-80" width="876" height="876" filterUnits="userSpaceOnUse" color-interpolation-filters="sRGB">
<feFlood flood-opacity="0" result="BackgroundImageFix"/>
<feGaussianBlur in="BackgroundImageFix" stdDeviation="40"/>
<feComposite in2="SourceAlpha" operator="in" result="effect1_backgroundBlur_2875_1856"/>
<feBlend mode="normal" in="SourceGraphic" in2="effect1_backgroundBlur_2875_1856" result="shape"/>
</filter>
<filter id="filter1_d_2875_1856" x="47" y="96" width="80" height="80" filterUnits="userSpaceOnUse" color-interpolation-filters="sRGB">
<feFlood flood-opacity="0" result="BackgroundImageFix"/>
<feColorMatrix in="SourceAlpha" type="matrix" values="0 0 0 0 0 0 0 0 0 0 0 0 0 0 0 0 0 0 127 0" result="hardAlpha"/>
<feOffset dy="4"/>
<feGaussianBlur stdDeviation="10"/>
<feComposite in2="hardAlpha" operator="out"/>
<feColorMatrix type="matrix" values="0 0 0 0 0.670588 0 0 0 0 0 0 0 0 0 0.121569 0 0 0 1 0"/>
<feBlend mode="normal" in2="BackgroundImageFix" result="effect1_dropShadow_2875_1856"/>
<feBlend mode="normal" in="SourceGraphic" in2="effect1_dropShadow_2875_1856" result="shape"/>
</filter>
<filter id="filter2_d_2875_1856" x="124.2" y="184.76" width="57.6" height="57.6" filterUnits="userSpaceOnUse" color-interpolation-filters="sRGB">
<feFlood flood-opacity="0" result="BackgroundImageFix"/>
<feColorMatrix in="SourceAlpha" type="matrix" values="0 0 0 0 0 0 0 0 0 0 0 0 0 0 0 0 0 0 127 0" result="hardAlpha"/>
<feOffset dy="2.56"/>
<feGaussianBlur stdDeviation="6.4"/>
<feComposite in2="hardAlpha" operator="out"/>
<feColorMatrix type="matrix" values="0 0 0 0 0.410026 0 0 0 0 0.410026 0 0 0 0 0.410026 0 0 0 0.8 0"/>
<feBlend mode="normal" in2="BackgroundImageFix" result="effect1_dropShadow_2875_1856"/>
<feBlend mode="normal" in="SourceGraphic" in2="effect1_dropShadow_2875_1856" result="shape"/>
</filter>
<filter id="filter3_d_2875_1856" x="97" y="250.2" width="112" height="112" filterUnits="userSpaceOnUse" color-interpolation-filters="sRGB">
<feFlood flood-opacity="0" result="BackgroundImageFix"/>
<feColorMatrix in="SourceAlpha" type="matrix" values="0 0 0 0 0 0 0 0 0 0 0 0 0 0 0 0 0 0 127 0" result="hardAlpha"/>
<feOffset dy="3.2"/>
<feGaussianBlur stdDeviation="8"/>
<feComposite in2="hardAlpha" operator="out"/>
<feColorMatrix type="matrix" values="0 0 0 0 0.670588 0 0 0 0 0 0 0 0 0 0.121569 0 0 0 1 0"/>
<feBlend mode="normal" in2="BackgroundImageFix" result="effect1_dropShadow_2875_1856"/>
<feBlend mode="normal" in="SourceGraphic" in2="effect1_dropShadow_2875_1856" result="shape"/>
</filter>
<filter id="filter4_d_2875_1856" x="89" y="242.2" width="128" height="128" filterUnits="userSpaceOnUse" color-interpolation-filters="sRGB">
<feFlood flood-opacity="0" result="BackgroundImageFix"/>
<feColorMatrix in="SourceAlpha" type="matrix" values="0 0 0 0 0 0 0 0 0 0 0 0 0 0 0 0 0 0 127 0" result="hardAlpha"/>
<feOffset dy="3.2"/>
<feGaussianBlur stdDeviation="8"/>
<feComposite in2="hardAlpha" operator="out"/>
<feColorMatrix type="matrix" values="0 0 0 0 0.670588 0 0 0 0 0 0 0 0 0 0.121569 0 0 0 1 0"/>
<feBlend mode="normal" in2="BackgroundImageFix" result="effect1_dropShadow_2875_1856"/>
<feBlend mode="normal" in="SourceGraphic" in2="effect1_dropShadow_2875_1856" result="shape"/>
</filter>
<filter id="filter5_d_2875_1856" x="124.2" y="410.76" width="57.6" height="57.6" filterUnits="userSpaceOnUse" color-interpolation-filters="sRGB">
<feFlood flood-opacity="0" result="BackgroundImageFix"/>
<feColorMatrix in="SourceAlpha" type="matrix" values="0 0 0 0 0 0 0 0 0 0 0 0 0 0 0 0 0 0 127 0" result="hardAlpha"/>
<feOffset dy="2.56"/>
<feGaussianBlur stdDeviation="6.4"/>
<feComposite in2="hardAlpha" operator="out"/>
<feColorMatrix type="matrix" values="0 0 0 0 0.410026 0 0 0 0 0.410026 0 0 0 0 0.410026 0 0 0 0.8 0"/>
<feBlend mode="normal" in2="BackgroundImageFix" result="effect1_dropShadow_2875_1856"/>
<feBlend mode="normal" in="SourceGraphic" in2="effect1_dropShadow_2875_1856" result="shape"/>
</filter>
<filter id="filter6_d_2875_1856" x="97" y="476.2" width="112" height="112" filterUnits="userSpaceOnUse" color-interpolation-filters="sRGB">
<feFlood flood-opacity="0" result="BackgroundImageFix"/>
<feColorMatrix in="SourceAlpha" type="matrix" values="0 0 0 0 0 0 0 0 0 0 0 0 0 0 0 0 0 0 127 0" result="hardAlpha"/>
<feOffset dy="3.2"/>
<feGaussianBlur stdDeviation="8"/>
<feComposite in2="hardAlpha" operator="out"/>
<feColorMatrix type="matrix" values="0 0 0 0 0.410026 0 0 0 0 0.410026 0 0 0 0 0.410026 0 0 0 0.8 0"/>
<feBlend mode="normal" in2="BackgroundImageFix" result="effect1_dropShadow_2875_1856"/>
<feBlend mode="normal" in="SourceGraphic" in2="effect1_dropShadow_2875_1856" result="shape"/>
</filter>
<filter id="filter7_d_2875_1856" x="89" y="468.2" width="128" height="128" filterUnits="userSpaceOnUse" color-interpolation-filters="sRGB">
<feFlood flood-opacity="0" result="BackgroundImageFix"/>
<feColorMatrix in="SourceAlpha" type="matrix" values="0 0 0 0 0 0 0 0 0 0 0 0 0 0 0 0 0 0 127 0" result="hardAlpha"/>
<feOffset dy="3.2"/>
<feGaussianBlur stdDeviation="8"/>
<feComposite in2="hardAlpha" operator="out"/>
<feColorMatrix type="matrix" values="0 0 0 0 0.410026 0 0 0 0 0.410026 0 0 0 0 0.410026 0 0 0 0.8 0"/>
<feBlend mode="normal" in2="BackgroundImageFix" result="effect1_dropShadow_2875_1856"/>
<feBlend mode="normal" in="SourceGraphic" in2="effect1_dropShadow_2875_1856" result="shape"/>
</filter>
<filter id="filter8_d_2875_1856" x="289.2" y="184.76" width="57.6" height="57.6" filterUnits="userSpaceOnUse" color-interpolation-filters="sRGB">
<feFlood flood-opacity="0" result="BackgroundImageFix"/>
<feColorMatrix in="SourceAlpha" type="matrix" values="0 0 0 0 0 0 0 0 0 0 0 0 0 0 0 0 0 0 127 0" result="hardAlpha"/>
<feOffset dy="2.56"/>
<feGaussianBlur stdDeviation="6.4"/>
<feComposite in2="hardAlpha" operator="out"/>
<feColorMatrix type="matrix" values="0 0 0 0 0.410026 0 0 0 0 0.410026 0 0 0 0 0.410026 0 0 0 0.8 0"/>
<feBlend mode="normal" in2="BackgroundImageFix" result="effect1_dropShadow_2875_1856"/>
<feBlend mode="normal" in="SourceGraphic" in2="effect1_dropShadow_2875_1856" result="shape"/>
</filter>
<filter id="filter9_d_2875_1856" x="262" y="250.2" width="112" height="112" filterUnits="userSpaceOnUse" color-interpolation-filters="sRGB">
<feFlood flood-opacity="0" result="BackgroundImageFix"/>
<feColorMatrix in="SourceAlpha" type="matrix" values="0 0 0 0 0 0 0 0 0 0 0 0 0 0 0 0 0 0 127 0" result="hardAlpha"/>
<feOffset dy="3.2"/>
<feGaussianBlur stdDeviation="8"/>
<feComposite in2="hardAlpha" operator="out"/>
<feColorMatrix type="matrix" values="0 0 0 0 0.410026 0 0 0 0 0.410026 0 0 0 0 0.410026 0 0 0 0.8 0"/>
<feBlend mode="normal" in2="BackgroundImageFix" result="effect1_dropShadow_2875_1856"/>
<feBlend mode="normal" in="SourceGraphic" in2="effect1_dropShadow_2875_1856" result="shape"/>
</filter>
<filter id="filter10_d_2875_1856" x="254" y="242.2" width="128" height="128" filterUnits="userSpaceOnUse" color-interpolation-filters="sRGB">
<feFlood flood-opacity="0" result="BackgroundImageFix"/>
<feColorMatrix in="SourceAlpha" type="matrix" values="0 0 0 0 0 0 0 0 0 0 0 0 0 0 0 0 0 0 127 0" result="hardAlpha"/>
<feOffset dy="3.2"/>
<feGaussianBlur stdDeviation="8"/>
<feComposite in2="hardAlpha" operator="out"/>
<feColorMatrix type="matrix" values="0 0 0 0 0.410026 0 0 0 0 0.410026 0 0 0 0 0.410026 0 0 0 0.8 0"/>
<feBlend mode="normal" in2="BackgroundImageFix" result="effect1_dropShadow_2875_1856"/>
<feBlend mode="normal" in="SourceGraphic" in2="effect1_dropShadow_2875_1856" result="shape"/>
</filter>
<filter id="filter11_d_2875_1856" x="289.2" y="410.76" width="57.6" height="57.6" filterUnits="userSpaceOnUse" color-interpolation-filters="sRGB">
<feFlood flood-opacity="0" result="BackgroundImageFix"/>
<feColorMatrix in="SourceAlpha" type="matrix" values="0 0 0 0 0 0 0 0 0 0 0 0 0 0 0 0 0 0 127 0" result="hardAlpha"/>
<feOffset dy="2.56"/>
<feGaussianBlur stdDeviation="6.4"/>
<feComposite in2="hardAlpha" operator="out"/>
<feColorMatrix type="matrix" values="0 0 0 0 0.410026 0 0 0 0 0.410026 0 0 0 0 0.410026 0 0 0 0.8 0"/>
<feBlend mode="normal" in2="BackgroundImageFix" result="effect1_dropShadow_2875_1856"/>
<feBlend mode="normal" in="SourceGraphic" in2="effect1_dropShadow_2875_1856" result="shape"/>
</filter>
<filter id="filter12_d_2875_1856" x="262" y="476.2" width="112" height="112" filterUnits="userSpaceOnUse" color-interpolation-filters="sRGB">
<feFlood flood-opacity="0" result="BackgroundImageFix"/>
<feColorMatrix in="SourceAlpha" type="matrix" values="0 0 0 0 0 0 0 0 0 0 0 0 0 0 0 0 0 0 127 0" result="hardAlpha"/>
<feOffset dy="3.2"/>
<feGaussianBlur stdDeviation="8"/>
<feComposite in2="hardAlpha" operator="out"/>
<feColorMatrix type="matrix" values="0 0 0 0 0.410026 0 0 0 0 0.410026 0 0 0 0 0.410026 0 0 0 0.8 0"/>
<feBlend mode="normal" in2="BackgroundImageFix" result="effect1_dropShadow_2875_1856"/>
<feBlend mode="normal" in="SourceGraphic" in2="effect1_dropShadow_2875_1856" result="shape"/>
</filter>
<filter id="filter13_d_2875_1856" x="254" y="468.2" width="128" height="128" filterUnits="userSpaceOnUse" color-interpolation-filters="sRGB">
<feFlood flood-opacity="0" result="BackgroundImageFix"/>
<feColorMatrix in="SourceAlpha" type="matrix" values="0 0 0 0 0 0 0 0 0 0 0 0 0 0 0 0 0 0 127 0" result="hardAlpha"/>
<feOffset dy="3.2"/>
<feGaussianBlur stdDeviation="8"/>
<feComposite in2="hardAlpha" operator="out"/>
<feColorMatrix type="matrix" values="0 0 0 0 0.410026 0 0 0 0 0.410026 0 0 0 0 0.410026 0 0 0 0.8 0"/>
<feBlend mode="normal" in2="BackgroundImageFix" result="effect1_dropShadow_2875_1856"/>
<feBlend mode="normal" in="SourceGraphic" in2="effect1_dropShadow_2875_1856" result="shape"/>
</filter>
<filter id="filter14_d_2875_1856" x="482.2" y="542.76" width="57.6" height="57.6" filterUnits="userSpaceOnUse" color-interpolation-filters="sRGB">
<feFlood flood-opacity="0" result="BackgroundImageFix"/>
<feColorMatrix in="SourceAlpha" type="matrix" values="0 0 0 0 0 0 0 0 0 0 0 0 0 0 0 0 0 0 127 0" result="hardAlpha"/>
<feOffset dy="2.56"/>
<feGaussianBlur stdDeviation="6.4"/>
<feComposite in2="hardAlpha" operator="out"/>
<feColorMatrix type="matrix" values="0 0 0 0 0.410026 0 0 0 0 0.410026 0 0 0 0 0.410026 0 0 0 0.8 0"/>
<feBlend mode="normal" in2="BackgroundImageFix" result="effect1_dropShadow_2875_1856"/>
<feBlend mode="normal" in="SourceGraphic" in2="effect1_dropShadow_2875_1856" result="shape"/>
</filter>
<filter id="filter15_d_2875_1856" x="455" y="424.2" width="112" height="112" filterUnits="userSpaceOnUse" color-interpolation-filters="sRGB">
<feFlood flood-opacity="0" result="BackgroundImageFix"/>
<feColorMatrix in="SourceAlpha" type="matrix" values="0 0 0 0 0 0 0 0 0 0 0 0 0 0 0 0 0 0 127 0" result="hardAlpha"/>
<feOffset dy="3.2"/>
<feGaussianBlur stdDeviation="8"/>
<feComposite in2="hardAlpha" operator="out"/>
<feColorMatrix type="matrix" values="0 0 0 0 0.670588 0 0 0 0 0 0 0 0 0 0.121569 0 0 0 1 0"/>
<feBlend mode="normal" in2="BackgroundImageFix" result="effect1_dropShadow_2875_1856"/>
<feBlend mode="normal" in="SourceGraphic" in2="effect1_dropShadow_2875_1856" result="shape"/>
</filter>
<filter id="filter16_d_2875_1856" x="447" y="416.2" width="128" height="128" filterUnits="userSpaceOnUse" color-interpolation-filters="sRGB">
<feFlood flood-opacity="0" result="BackgroundImageFix"/>
<feColorMatrix in="SourceAlpha" type="matrix" values="0 0 0 0 0 0 0 0 0 0 0 0 0 0 0 0 0 0 127 0" result="hardAlpha"/>
<feOffset dy="3.2"/>
<feGaussianBlur stdDeviation="8"/>
<feComposite in2="hardAlpha" operator="out"/>
<feColorMatrix type="matrix" values="0 0 0 0 0.670588 0 0 0 0 0 0 0 0 0 0.121569 0 0 0 1 0"/>
<feBlend mode="normal" in2="BackgroundImageFix" result="effect1_dropShadow_2875_1856"/>
<feBlend mode="normal" in="SourceGraphic" in2="effect1_dropShadow_2875_1856" result="shape"/>
</filter>
<filter id="filter17_d_2875_1856" x="574.2" y="276.76" width="57.6" height="57.6" filterUnits="userSpaceOnUse" color-interpolation-filters="sRGB">
<feFlood flood-opacity="0" result="BackgroundImageFix"/>
<feColorMatrix in="SourceAlpha" type="matrix" values="0 0 0 0 0 0 0 0 0 0 0 0 0 0 0 0 0 0 127 0" result="hardAlpha"/>
<feOffset dy="2.56"/>
<feGaussianBlur stdDeviation="6.4"/>
<feComposite in2="hardAlpha" operator="out"/>
<feColorMatrix type="matrix" values="0 0 0 0 0.410026 0 0 0 0 0.410026 0 0 0 0 0.410026 0 0 0 0.8 0"/>
<feBlend mode="normal" in2="BackgroundImageFix" result="effect1_dropShadow_2875_1856"/>
<feBlend mode="normal" in="SourceGraphic" in2="effect1_dropShadow_2875_1856" result="shape"/>
</filter>
<filter id="filter18_d_2875_1856" x="455" y="250.2" width="112" height="112" filterUnits="userSpaceOnUse" color-interpolation-filters="sRGB">
<feFlood flood-opacity="0" result="BackgroundImageFix"/>
<feColorMatrix in="SourceAlpha" type="matrix" values="0 0 0 0 0 0 0 0 0 0 0 0 0 0 0 0 0 0 127 0" result="hardAlpha"/>
<feOffset dy="3.2"/>
<feGaussianBlur stdDeviation="8"/>
<feComposite in2="hardAlpha" operator="out"/>
<feColorMatrix type="matrix" values="0 0 0 0 0.410026 0 0 0 0 0.410026 0 0 0 0 0.410026 0 0 0 0.8 0"/>
<feBlend mode="normal" in2="BackgroundImageFix" result="effect1_dropShadow_2875_1856"/>
<feBlend mode="normal" in="SourceGraphic" in2="effect1_dropShadow_2875_1856" result="shape"/>
</filter>
<filter id="filter19_d_2875_1856" x="447" y="242.2" width="128" height="128" filterUnits="userSpaceOnUse" color-interpolation-filters="sRGB">
<feFlood flood-opacity="0" result="BackgroundImageFix"/>
<feColorMatrix in="SourceAlpha" type="matrix" values="0 0 0 0 0 0 0 0 0 0 0 0 0 0 0 0 0 0 127 0" result="hardAlpha"/>
<feOffset dy="3.2"/>
<feGaussianBlur stdDeviation="8"/>
<feComposite in2="hardAlpha" operator="out"/>
<feColorMatrix type="matrix" values="0 0 0 0 0.410026 0 0 0 0 0.410026 0 0 0 0 0.410026 0 0 0 0.8 0"/>
<feBlend mode="normal" in2="BackgroundImageFix" result="effect1_dropShadow_2875_1856"/>
<feBlend mode="normal" in="SourceGraphic" in2="effect1_dropShadow_2875_1856" result="shape"/>
</filter>
<filter id="filter20_d_2875_1856" x="183" y="118" width="269" height="87.5" filterUnits="userSpaceOnUse" color-interpolation-filters="sRGB">
<feFlood flood-opacity="0" result="BackgroundImageFix"/>
<feColorMatrix in="SourceAlpha" type="matrix" values="0 0 0 0 0 0 0 0 0 0 0 0 0 0 0 0 0 0 127 0" result="hardAlpha"/>
<feOffset/>
<feGaussianBlur stdDeviation="12"/>
<feComposite in2="hardAlpha" operator="out"/>
<feColorMatrix type="matrix" values="0 0 0 0 0.192157 0 0 0 0 0.215686 0 0 0 0 0.254902 0 0 0 0.24 0"/>
<feBlend mode="normal" in2="BackgroundImageFix" result="effect1_dropShadow_2875_1856"/>
<feBlend mode="normal" in="SourceGraphic" in2="effect1_dropShadow_2875_1856" result="shape"/>
</filter>
<clipPath id="clip0_2875_1856">
<rect width="716" height="716" fill="white"/>
</clipPath>
</defs>
</svg>
