<svg width="10" height="10" viewBox="0 0 10 10" fill="none" xmlns="http://www.w3.org/2000/svg">
<g clip-path="url(#clip0_30753_155645)">
<mask id="mask0_30753_155645" style="mask-type:luminance" maskUnits="userSpaceOnUse" x="0" y="0" width="10" height="10">
<path d="M8 0H2C0.89543 0 0 0.89543 0 2V8C0 9.10457 0.89543 10 2 10H8C9.10457 10 10 9.10457 10 8V2C10 0.89543 9.10457 0 8 0Z" fill="white"/>
</mask>
<g mask="url(#mask0_30753_155645)">
<path fill-rule="evenodd" clip-rule="evenodd" d="M10 0H0V6.83915C0.78438 6.54857 1.54603 6.26487 1.54603 6.26487L3.96915 7.5322C3.96915 7.5322 3.20387 8.97512 2.66007 10H10V0ZM3.1999 4.72872H6.6615C6.7242 4.72872 6.77418 4.74747 6.77688 4.84392C6.78245 5.179 6.74733 6.1972 6.16148 6.6105C5.4838 7.04202 4.4118 7.03587 4.23838 7.03295C4.23258 7.03255 4.22725 7.03205 4.22225 7.0316L4.2205 7.03142C4.20022 7.02955 4.18485 7.02812 4.16145 7.03295C4.0422 6.9526 1.85373 5.88083 1.85373 5.88083C1.85373 5.88083 2.44755 4.63757 2.73835 4.03745C2.77067 3.94065 2.8576 3.94065 2.8922 4.03745C2.96067 4.18177 3.1999 4.72872 3.1999 4.72872ZM3.73837 5.88083C3.54705 5.88083 3.39223 5.72545 3.39223 5.5352C3.39223 5.34415 3.54705 5.18958 3.73837 5.18958C3.92922 5.18958 4.08453 5.34415 4.08453 5.5352C4.08453 5.72545 3.92922 5.88083 3.73837 5.88083Z" fill="#19676C"/>
</g>
</g>
<defs>
<clipPath id="clip0_30753_155645">
<rect width="10" height="10" fill="white"/>
</clipPath>
</defs>
</svg>
