<?xml version="1.0" encoding="UTF-8"?> <svg xmlns="http://www.w3.org/2000/svg" width="300" height="79" viewBox="0 0 300 79" fill="none"> <g clip-path="url(#clip0_2360_87071)"> <path d="M155.983 47.5217C155.546 47.5217 155.197 47.4344 154.847 47.2597C154.498 46.9977 154.236 46.5609 154.148 46.2115C152.489 42.3683 150.83 38.4377 149.17 34.5945C147.511 30.7513 145.764 26.8207 144.105 22.9775L142.096 18.4355H141.834V51.4523C141.834 51.8017 141.659 51.9764 141.31 51.9764H139.738C139.389 51.9764 139.214 51.8017 139.214 51.4523V15.2911C139.214 14.8543 139.301 14.4176 139.476 14.0682C139.651 13.7188 140.087 13.5441 140.786 13.5441H141.572C142.009 13.5441 142.445 13.6315 142.795 13.8935C143.144 14.2429 143.406 14.6796 143.581 15.2037C143.755 15.5531 144.017 16.2519 144.454 17.2127C144.891 18.1735 145.415 19.3963 145.939 20.7065C146.463 22.0167 147.162 23.5016 147.773 25.0738C148.384 26.646 149.083 28.1309 149.782 29.6158C150.48 31.1007 151.004 32.4982 151.528 33.8084C152.052 35.1186 152.576 36.1668 152.926 37.0402C153.537 38.3504 154.061 39.6606 154.673 40.9708C155.284 42.281 155.808 43.5912 156.332 44.9887H156.594L160 37.3022L169.432 15.1164C169.607 14.5923 169.869 14.1556 170.218 13.8062C170.568 13.5441 171.004 13.4568 171.354 13.4568H172.14C172.838 13.4568 173.362 13.6315 173.537 13.9809C173.712 14.3302 173.886 14.767 173.799 15.2037V51.365C173.799 51.7143 173.624 51.889 173.275 51.889H171.616C171.266 51.889 171.092 51.7143 171.092 51.365V18.1735H170.917L168.646 23.5016L158.865 46.2115C158.69 46.6483 158.428 46.9977 158.166 47.2597C157.817 47.5217 157.38 47.6091 157.031 47.5217H155.983Z" fill="#4B4E56"></path> <path d="M180.262 37.6516V35.5553C180.262 35.2059 180.437 35.0312 180.699 35.0312H193.1C193.362 35.0312 193.537 35.1186 193.624 35.3806V35.468V37.6516C193.624 37.9137 193.537 38.0884 193.275 38.1757C193.188 38.1757 193.188 38.1757 193.1 38.1757H180.699C180.437 38.1757 180.262 38.001 180.262 37.6516Z" fill="#4B4E56"></path> <path d="M223.93 51.9765H208.384C207.074 51.9765 205.764 51.8018 204.541 51.3651C203.581 51.0157 202.707 50.4043 202.009 49.6182C201.31 48.832 200.873 47.8712 200.611 46.9104C200.349 45.7749 200.175 44.6394 200.175 43.5913V14.1557C200.175 13.8936 200.349 13.6316 200.611 13.6316C200.611 13.6316 200.699 13.6316 200.786 13.6316H202.445C202.707 13.6316 202.969 13.8063 202.969 14.0683C202.969 14.0683 202.969 14.1557 202.969 14.243V43.766C202.882 45.3382 203.319 46.8231 204.279 47.9586C205.153 48.9194 206.638 49.4435 208.646 49.4435H223.93C224.279 49.4435 224.454 49.6181 224.454 49.9675V51.4524C224.454 51.7145 224.279 51.9765 223.93 51.9765Z" fill="#4B4E56"></path> <path d="M231.703 51.9765H230.044C229.694 51.9765 229.52 51.8018 229.52 51.4524V14.1557C229.52 13.8936 229.694 13.6316 229.956 13.6316C230.044 13.6316 230.044 13.6316 230.131 13.6316H231.79C232.052 13.6316 232.314 13.8063 232.314 14.0683C232.314 14.0683 232.314 14.1557 232.314 14.243V51.5398C232.227 51.8018 232.052 51.9765 231.703 51.9765Z" fill="#4B4E56"></path> <path d="M243.231 17.3874V51.4523C243.231 51.8017 243.057 51.9764 242.707 51.9764H241.048C240.699 51.9764 240.524 51.8017 240.524 51.4523V15.2911C240.524 14.8543 240.611 14.3302 240.873 13.9809C241.223 13.6315 241.747 13.4568 242.271 13.4568H243.057C243.493 13.4568 243.843 13.5441 244.192 13.8062C244.542 14.2429 244.804 14.5923 245.066 15.1164L260.786 40.4467L265.502 48.2205H265.764V14.0682C265.764 13.8062 265.939 13.5441 266.201 13.5441C266.288 13.5441 266.288 13.5441 266.376 13.5441H268.035C268.297 13.5441 268.559 13.7188 268.559 13.9809C268.559 13.9809 268.559 14.0682 268.559 14.1556V50.2295C268.559 50.6662 268.472 51.1029 268.21 51.4523C268.035 51.8017 267.598 51.9764 266.9 51.9764H266.114C265.677 51.9764 265.328 51.889 264.978 51.627C264.629 51.1903 264.367 50.8409 264.105 50.3168L247.249 23.6763L243.493 17.4747L243.231 17.3874Z" fill="#4B4E56"></path> <path d="M299.476 51.9763H284.279C282.969 51.9763 281.572 51.8016 280.349 51.3649C279.389 51.0155 278.515 50.4041 277.817 49.618C277.118 48.8319 276.681 47.9584 276.419 46.9103C276.157 45.7748 275.983 44.6393 275.983 43.5911V22.0166C275.983 20.8811 276.157 19.7456 276.419 18.6102C276.681 17.6493 277.205 16.6885 277.817 15.9024C278.515 15.1163 279.389 14.5049 280.437 14.1555C281.659 13.7188 282.969 13.4567 284.367 13.5441H298.952C299.389 13.5441 299.563 13.7188 299.563 14.2428V15.4657C299.563 15.9024 299.389 16.1645 298.952 16.1645H284.367C282.358 16.1645 280.961 16.6012 280.087 17.562C279.127 18.6975 278.69 20.1824 278.777 21.6673V30.3145H297.205C297.467 30.3145 297.729 30.4892 297.817 30.7512C297.817 30.8386 297.817 30.8386 297.817 30.9259V32.1488C297.904 32.4108 297.642 32.6729 297.38 32.7602C297.293 32.7602 297.293 32.7602 297.205 32.7602H278.777V43.9405C278.69 45.338 279.127 46.7356 280 47.8711C280.786 48.9192 282.271 49.356 284.367 49.356H299.476C299.913 49.356 300.087 49.5306 300.087 50.0547V51.2776C300 51.7143 299.825 51.9763 299.476 51.9763Z" fill="#4B4E56"></path> <path d="M142.707 69.2708C142.62 69.2708 142.533 69.2708 142.533 69.2708H141.747C141.659 69.2708 141.572 69.2708 141.572 69.2708C141.485 69.1835 141.485 69.0961 141.485 69.0088V63.3313H139.476C139.389 63.3313 139.301 63.3313 139.301 63.244C139.301 63.1566 139.214 63.1566 139.214 63.0693V62.4578C139.214 62.3705 139.214 62.2831 139.301 62.2831C139.301 62.1958 139.389 62.1958 139.476 62.1958H144.978C145.066 62.1958 145.153 62.1958 145.24 62.2831C145.24 62.3705 145.328 62.4578 145.328 62.4578V63.0693C145.328 63.1566 145.328 63.244 145.24 63.244C145.153 63.3313 145.066 63.3313 144.978 63.3313H142.882V69.0961C142.707 69.1835 142.707 69.1835 142.707 69.2708Z" fill="#4B4E56"></path> <path d="M149.083 62.0212C149.52 62.0212 149.956 62.1086 150.393 62.1959C150.742 62.2833 151.092 62.5453 151.354 62.8074C151.616 63.0694 151.79 63.4188 151.878 63.7682C151.965 64.2049 152.052 64.5543 152.052 64.991C152.052 65.1657 152.052 65.3404 151.965 65.6024C151.878 65.7771 151.79 65.8645 151.703 65.9518C151.616 66.0392 151.441 66.1265 151.354 66.1265C151.179 66.1265 151.092 66.2138 150.917 66.2138H147.162C147.162 66.5632 147.249 66.9126 147.336 67.262C147.424 67.524 147.598 67.6987 147.773 67.9608C147.948 68.1355 148.21 68.2228 148.472 68.3102C148.734 68.3975 148.996 68.3975 149.258 68.3975C149.52 68.3975 149.869 68.3975 150.131 68.3102C150.393 68.2228 150.655 68.1355 150.83 68.0481C151.004 67.9608 151.092 68.0481 151.092 68.1355L151.441 68.7469C151.528 68.9216 151.441 69.0089 151.354 69.0963C151.004 69.271 150.655 69.4457 150.218 69.533C149.869 69.6203 149.432 69.6203 149.083 69.6203C148.21 69.7077 147.336 69.3583 146.638 68.7469C146.026 67.9608 145.677 66.9126 145.764 65.9518C145.764 65.4277 145.852 64.9037 146.026 64.3796C146.201 63.9429 146.376 63.5061 146.725 63.2441C146.987 62.8947 147.336 62.6327 147.686 62.5453C148.21 62.1086 148.646 62.0212 149.083 62.0212ZM150.83 65.0784C150.83 64.8163 150.83 64.5543 150.742 64.2922C150.655 64.0302 150.568 63.8555 150.48 63.6808C150.306 63.5061 150.131 63.3314 149.956 63.2441C149.694 63.1567 149.345 63.0694 149.083 63.0694C148.821 63.0694 148.559 63.1567 148.297 63.2441C148.122 63.3314 147.86 63.5061 147.773 63.6808C147.598 63.8555 147.511 64.1175 147.424 64.2922C147.336 64.5543 147.249 64.729 147.249 64.991H150.83V65.0784Z" fill="#4B4E56"></path> <path d="M158.865 62.1086C159.039 62.1086 159.301 62.1086 159.476 62.2833C159.563 62.458 159.651 62.6327 159.651 62.8074V69.0963C159.651 69.1837 159.651 69.271 159.563 69.271C159.476 69.271 159.389 69.271 159.389 69.271H158.603C158.515 69.271 158.428 69.271 158.428 69.271C158.341 69.1837 158.341 69.1837 158.341 69.0963V63.3315H155.895L155.808 64.2923C155.721 65.2531 155.633 65.9519 155.546 66.5633C155.459 67.0874 155.371 67.6114 155.197 68.0482C155.109 68.3976 154.847 68.7469 154.585 69.009C154.323 69.271 153.974 69.4457 153.537 69.5331C153.45 69.5331 153.362 69.5331 153.275 69.5331C153.188 69.5331 153.188 69.5331 153.188 69.3584L153.013 68.7469C153.013 68.6596 152.926 68.5722 153.013 68.5722C153.1 68.4849 153.1 68.4849 153.188 68.4849C153.362 68.3976 153.537 68.3102 153.712 68.1355C153.886 67.9608 153.974 67.7861 154.061 67.5241C154.148 67.1747 154.236 66.738 154.323 66.3886C154.411 65.8645 154.41 65.2531 154.498 64.3796L154.585 62.9821C154.585 62.8074 154.673 62.5454 154.847 62.458C155.022 62.3707 155.197 62.2833 155.371 62.2833L158.865 62.1086Z" fill="#4B4E56"></path> <path d="M164.279 62.0212C164.716 62.0212 165.153 62.1086 165.59 62.1959C165.939 62.2833 166.288 62.5453 166.55 62.8074C166.812 63.0694 166.987 63.4188 167.074 63.7682C167.162 64.2049 167.249 64.5543 167.249 64.991C167.249 65.1657 167.249 65.3404 167.162 65.6024C167.074 65.7771 166.987 65.8645 166.9 65.9518C166.812 66.0392 166.638 66.1265 166.55 66.1265C166.376 66.1265 166.288 66.2138 166.114 66.2138H162.445C162.445 66.5632 162.533 66.9126 162.62 67.262C162.707 67.524 162.882 67.6987 163.057 67.9608C163.231 68.1355 163.493 68.2228 163.755 68.3102C164.017 68.3975 164.279 68.3975 164.541 68.3975C165.066 68.3975 165.677 68.2228 166.114 67.9608C166.288 67.8734 166.376 67.9608 166.376 68.0481L166.725 68.6595C166.812 68.8342 166.725 68.9216 166.638 69.0089C166.288 69.1836 165.939 69.3583 165.502 69.4457C165.153 69.533 164.716 69.533 164.367 69.533C163.493 69.6203 162.62 69.271 161.921 68.6595C161.31 67.8734 160.961 66.8253 161.048 65.8645C161.048 65.3404 161.135 64.8163 161.31 64.2922C161.485 63.8555 161.659 63.4188 162.009 63.1567C162.271 62.8074 162.62 62.6327 163.057 62.458C163.406 62.1086 163.843 62.0212 164.279 62.0212ZM166.026 65.0784C166.026 64.8163 166.026 64.5543 165.939 64.2922C165.852 64.0302 165.764 63.8555 165.677 63.6808C165.502 63.5061 165.328 63.3314 165.153 63.2441C164.891 63.1567 164.542 63.0694 164.279 63.0694C164.017 63.0694 163.755 63.1567 163.493 63.2441C163.319 63.3314 163.057 63.5061 162.969 63.6808C162.707 64.0302 162.533 64.5543 162.445 64.991H166.026V65.0784Z" fill="#4B4E56"></path> <path d="M170.044 64.3794V69.0961C170.044 69.1835 170.044 69.2708 169.956 69.2708C169.869 69.2708 169.869 69.2708 169.782 69.2708H168.996C168.908 69.2708 168.908 69.2708 168.821 69.2708C168.821 69.2708 168.734 69.1835 168.734 69.0961V62.7199C168.734 62.5452 168.821 62.4578 168.908 62.3705C168.996 62.1958 169.258 62.1084 169.432 62.1084H169.956C170.131 62.1084 170.218 62.1084 170.393 62.1958C170.48 62.2831 170.655 62.3705 170.655 62.5452L171.965 65.2529L172.751 66.9998H172.838L173.712 65.0782L174.935 62.5452C175.022 62.2831 175.284 62.0211 175.633 62.1084H176.07C176.245 62.1084 176.419 62.1958 176.594 62.2831C176.681 62.3705 176.681 62.5452 176.681 62.6325V69.0961C176.681 69.1835 176.681 69.2708 176.594 69.2708C176.507 69.2708 176.507 69.2708 176.419 69.2708H175.546C175.459 69.2708 175.459 69.2708 175.371 69.2708C175.284 69.2708 175.284 69.1835 175.284 69.0961V64.2921H175.197L174.498 65.8643L173.45 67.9606C173.362 68.1353 173.275 68.2227 173.188 68.31C173.1 68.3974 172.926 68.3974 172.751 68.3974H172.402C172.227 68.3974 172.14 68.3974 171.965 68.31C171.878 68.2227 171.79 68.048 171.703 67.9606L170.742 65.9517L170.044 64.3794Z" fill="#4B4E56"></path> <path d="M181.397 62.0212C181.834 62.0212 182.271 62.1086 182.707 62.1959C183.057 62.2833 183.406 62.5453 183.668 62.8074C183.93 63.0694 184.105 63.4188 184.192 63.7682C184.279 64.2049 184.367 64.5543 184.367 64.991C184.367 65.1657 184.367 65.3404 184.279 65.6024C184.192 65.7771 184.105 65.8645 184.017 65.9518C183.93 66.0392 183.755 66.1265 183.668 66.1265C183.493 66.1265 183.406 66.2138 183.231 66.2138H179.476C179.476 66.5632 179.563 66.9126 179.651 67.262C179.825 67.7861 180.262 68.1355 180.699 68.3102C180.961 68.3975 181.223 68.3975 181.485 68.3975C181.747 68.3975 182.096 68.3102 182.358 68.3102C182.62 68.2228 182.882 68.1355 183.057 68.0481C183.231 67.9608 183.319 68.0481 183.319 68.1355L183.668 68.7469C183.755 68.9216 183.668 69.0089 183.581 69.0963C183.231 69.271 182.882 69.4457 182.445 69.533C182.096 69.6203 181.659 69.6203 181.31 69.6203C180.437 69.7077 179.563 69.3583 178.865 68.7469C178.253 67.9608 177.904 66.9126 177.991 65.9518C177.991 65.4277 178.079 64.9037 178.253 64.3796C178.428 63.9429 178.603 63.5061 178.952 63.2441C179.214 62.8947 179.563 62.6327 179.913 62.5453C180.437 62.1086 180.873 62.0212 181.397 62.0212ZM183.057 65.0784C183.057 64.8163 183.057 64.5543 182.969 64.2922C182.882 64.0302 182.795 63.8555 182.707 63.6808C182.533 63.5061 182.358 63.3314 182.183 63.2441C181.921 63.1567 181.572 63.0694 181.31 63.0694C181.048 63.0694 180.786 63.1567 180.524 63.2441C180.349 63.3314 180.087 63.5061 180 63.6808C179.825 63.8555 179.738 64.1175 179.651 64.2922C179.563 64.5543 179.476 64.729 179.476 64.991H183.057V65.0784Z" fill="#4B4E56"></path> <path d="M185.939 68.2227C186.026 68.1353 186.114 67.9606 186.201 67.8733C186.288 67.6986 186.376 67.6113 186.376 67.4366C186.463 67.2619 186.463 67.0872 186.55 66.8251C186.638 66.5631 186.638 66.3884 186.638 66.039L187.074 62.8946C187.074 62.7199 187.162 62.4578 187.336 62.3705C187.511 62.2832 187.773 62.1958 188.035 62.1958H191.354C191.703 62.1958 191.878 62.2832 191.965 62.3705C192.052 62.5452 192.052 62.7199 192.052 62.8946V68.2227H192.489C192.664 68.2227 192.838 68.31 192.838 68.3974C192.838 68.4847 192.926 68.5721 192.926 68.6594L192.751 71.1924C192.751 71.2798 192.751 71.2798 192.664 71.3671H192.576H191.703C191.616 71.3671 191.528 71.2798 191.528 71.1924L191.441 69.2708H186.463L186.376 71.2798C186.376 71.3671 186.288 71.4545 186.201 71.4545H185.328H185.24C185.24 71.4545 185.153 71.3671 185.153 71.2798L185.066 68.8341C185.066 68.7468 185.066 68.5721 185.153 68.4847C185.24 68.3974 185.328 68.31 185.502 68.31L185.939 68.2227ZM190.83 63.3313H188.384L188.122 65.1656C188.035 65.777 187.948 66.2137 187.948 66.5631C187.948 66.9125 187.86 67.1745 187.773 67.4366C187.773 67.6113 187.686 67.7859 187.598 67.9606C187.511 68.048 187.511 68.2227 187.424 68.31H190.83V63.3313Z" fill="#4B4E56"></path> <path d="M194.323 62.3707C194.323 62.2833 194.323 62.196 194.411 62.196C194.498 62.196 194.498 62.196 194.585 62.196H195.459C195.546 62.196 195.546 62.196 195.633 62.196C195.633 62.196 195.721 62.2833 195.721 62.3707V67.3494H195.808L196.769 65.6898L198.777 62.5454C198.865 62.3707 198.952 62.2833 199.039 62.196C199.214 62.1086 199.301 62.1086 199.476 62.1086H199.825C200 62.1086 200.175 62.1086 200.262 62.2833C200.349 62.3707 200.437 62.5454 200.437 62.7201V69.0963C200.437 69.1837 200.437 69.271 200.349 69.271C200.262 69.271 200.262 69.271 200.175 69.271H199.301C199.214 69.271 199.214 69.271 199.127 69.271C199.039 69.271 199.039 69.1837 199.039 69.0963V64.1176H198.952L197.991 65.6898L195.983 68.8343C195.895 69.009 195.808 69.0963 195.633 69.1837C195.546 69.271 195.371 69.271 195.197 69.271H194.847C194.673 69.271 194.498 69.271 194.411 69.0963C194.323 69.009 194.236 68.8343 194.236 68.6596V62.3707H194.323Z" fill="#4B4E56"></path> <path d="M208.297 68.2229H208.734C208.908 68.2229 209.083 68.3102 209.083 68.3976C209.083 68.4849 209.17 68.5722 209.17 68.6596L208.996 71.1926C208.996 71.28 208.996 71.28 208.908 71.3673H208.821H207.948C207.86 71.3673 207.773 71.28 207.773 71.1926L207.686 69.271H202.969C202.795 69.271 202.62 69.1837 202.445 69.0963C202.271 68.9216 202.271 68.7469 202.271 68.4849V62.3707C202.271 62.2833 202.271 62.196 202.358 62.196C202.445 62.196 202.533 62.1086 202.62 62.1086H203.406C203.493 62.1086 203.581 62.1086 203.668 62.196C203.668 62.196 203.755 62.2833 203.755 62.3707V68.2229H207.074V62.3707C207.074 62.2833 207.074 62.196 207.162 62.196C207.249 62.196 207.336 62.1086 207.424 62.1086H208.21C208.297 62.1086 208.384 62.1086 208.384 62.196C208.472 62.196 208.472 62.2833 208.472 62.3707L208.297 68.2229Z" fill="#4B4E56"></path> <path d="M210.48 62.3707C210.48 62.2833 210.48 62.196 210.568 62.196C210.655 62.196 210.655 62.196 210.742 62.196H211.616C211.703 62.196 211.703 62.196 211.79 62.196C211.79 62.196 211.878 62.2833 211.878 62.3707V67.3494H211.965L213.013 65.6898L215.022 62.5454C215.109 62.3707 215.197 62.2833 215.284 62.196C215.459 62.1086 215.546 62.1086 215.721 62.1086H216.07C216.245 62.1086 216.419 62.1086 216.507 62.2833C216.594 62.3707 216.681 62.5454 216.681 62.7201V69.0963C216.681 69.1837 216.681 69.271 216.594 69.271C216.507 69.271 216.507 69.271 216.419 69.271H215.546C215.459 69.271 215.459 69.271 215.371 69.271C215.371 69.271 215.284 69.1837 215.284 69.0963V64.1176H215.197L214.236 65.6898L212.227 68.8343C212.14 69.009 212.052 69.0963 211.878 69.1837C211.79 69.271 211.616 69.271 211.441 69.271H211.092C210.917 69.271 210.742 69.271 210.655 69.0963C210.568 69.009 210.48 68.8343 210.48 68.6596V62.3707Z" fill="#4B4E56"></path> <path d="M219.738 69.271C219.651 69.271 219.563 69.271 219.563 69.271H218.777C218.69 69.271 218.603 69.271 218.603 69.271C218.515 69.1837 218.515 69.0963 218.515 69.009V62.3707C218.515 62.2833 218.515 62.196 218.603 62.196C218.69 62.196 218.777 62.1086 218.777 62.1086H219.563C219.651 62.1086 219.738 62.1086 219.738 62.196C219.738 62.196 219.825 62.2833 219.825 62.3707V64.8164H223.144V62.3707C223.144 62.2833 223.144 62.196 223.231 62.196C223.319 62.196 223.406 62.1086 223.493 62.1086H224.279C224.367 62.1086 224.454 62.1086 224.454 62.196C224.454 62.196 224.542 62.2833 224.542 62.3707V69.009C224.542 69.0963 224.541 69.1837 224.454 69.271C224.367 69.271 224.279 69.271 224.279 69.271H223.493C223.406 69.271 223.319 69.271 223.231 69.271C223.144 69.1837 223.144 69.0963 223.144 69.009V66.0392H219.825V69.009C219.825 69.0963 219.825 69.1837 219.738 69.271Z" fill="#4B4E56"></path> <path d="M229.258 68.3101C229.52 68.3101 229.869 68.3101 230.131 68.2228C230.393 68.1354 230.655 68.0481 230.83 67.9607C230.917 67.9607 231.004 67.8734 231.004 67.9607L231.092 68.0481L231.441 68.7468C231.528 68.8342 231.528 68.9215 231.441 69.0089C231.441 69.0089 231.441 69.0089 231.354 69.0089C231.004 69.1836 230.568 69.3583 230.218 69.3583C229.869 69.4456 229.432 69.4456 228.996 69.4456C228.122 69.5329 227.336 69.1836 226.725 68.4848C226.114 67.6987 225.852 66.7379 225.939 65.7771C225.939 65.253 226.026 64.7289 226.114 64.2048C226.288 63.7681 226.463 63.3314 226.725 62.982C226.987 62.6326 227.336 62.3706 227.773 62.1959C228.21 62.0212 228.646 61.9338 229.083 61.9338C229.432 61.9338 229.782 61.9338 230.131 62.0212C230.48 62.1085 230.83 62.1959 231.092 62.3706C231.179 62.3706 231.266 62.5453 231.179 62.6326V62.7199L230.83 63.4187C230.83 63.5061 230.742 63.5061 230.742 63.5061C230.742 63.5061 230.655 63.5061 230.568 63.5061C230.306 63.4187 230.131 63.3314 229.869 63.244C229.607 63.1567 229.345 63.1567 229.083 63.1567C228.821 63.1567 228.472 63.244 228.21 63.3314C227.948 63.5061 227.773 63.6808 227.598 63.9428C227.424 64.2048 227.336 64.4669 227.249 64.8163C227.162 65.1656 227.162 65.515 227.162 65.7771C227.162 66.1264 227.162 66.3885 227.249 66.7379C227.336 66.9999 227.424 67.2619 227.511 67.524C227.686 67.786 227.86 67.9607 228.122 68.0481C228.384 68.2228 228.734 68.2228 229.083 68.2228" fill="#4B4E56"></path> <path d="M234.148 69.271C234.061 69.271 234.061 69.271 233.974 69.271H233.1C233.013 69.271 233.013 69.271 232.926 69.271C232.926 69.271 232.838 69.1837 232.838 69.0963V62.3707C232.838 62.2833 232.838 62.196 232.926 62.196C233.013 62.196 233.013 62.196 233.1 62.196H233.974C234.061 62.196 234.061 62.196 234.148 62.196C234.148 62.196 234.236 62.2833 234.236 62.3707V64.9037H235.197C235.459 64.9037 235.721 64.8164 235.983 64.729C236.245 64.5543 236.419 64.2923 236.507 63.9429L237.031 62.2833C237.031 62.196 237.031 62.1086 237.118 62.1086H237.205H238.079C238.166 62.1086 238.253 62.1086 238.253 62.196C238.253 62.2833 238.253 62.2833 238.253 62.3707L237.729 64.1176C237.642 64.3796 237.555 64.6417 237.38 64.9037C237.205 65.0784 237.031 65.2531 236.856 65.4278C237.118 65.5151 237.467 65.6898 237.642 65.9519C237.817 66.2139 237.904 66.4759 237.991 66.738L238.69 69.0963C238.69 69.1837 238.69 69.1837 238.69 69.271C238.69 69.3584 238.603 69.3584 238.515 69.3584H237.555H237.467C237.38 69.3584 237.38 69.271 237.38 69.1837L236.769 67C236.681 66.738 236.507 66.4759 236.245 66.3013C235.983 66.1266 235.721 66.1266 235.459 66.1266H234.323V69.0963C234.236 69.1837 234.236 69.271 234.148 69.271Z" fill="#4B4E56"></path> <path d="M240 62.3707C240 62.2833 240 62.196 240.087 62.196C240.175 62.196 240.175 62.196 240.262 62.196H241.135C241.223 62.196 241.223 62.196 241.31 62.196C241.31 62.196 241.397 62.2833 241.397 62.3707V67.3494H241.485L242.533 65.6898L244.541 62.5454C244.629 62.3707 244.716 62.2833 244.803 62.196C244.978 62.1086 245.066 62.1086 245.24 62.1086H245.59C245.764 62.1086 245.939 62.1086 246.026 62.2833C246.114 62.3707 246.201 62.5454 246.201 62.7201V69.0963C246.201 69.1837 246.201 69.271 246.114 69.271C246.026 69.271 246.026 69.271 245.939 69.271H245.066C244.978 69.271 244.978 69.271 244.891 69.271C244.891 69.271 244.803 69.1837 244.803 69.0963V64.1176H244.716L243.755 65.6898L241.747 68.8343C241.659 69.009 241.572 69.0963 241.397 69.1837C241.31 69.271 241.135 69.271 240.961 69.271H240.611C240.437 69.271 240.262 69.271 240.175 69.0963C240.087 69.009 240 68.8343 240 68.6596V62.3707Z" fill="#4B4E56"></path> <path d="M250.83 62.0212C251.266 62.0212 251.703 62.1086 252.14 62.1959C252.489 62.2833 252.838 62.5453 253.1 62.8074C253.362 63.0694 253.537 63.4188 253.624 63.7682C253.712 64.2049 253.799 64.5543 253.799 64.991C253.799 65.1657 253.799 65.3404 253.712 65.6024C253.624 65.7771 253.537 65.8645 253.45 65.9518C253.362 66.0392 253.188 66.1265 253.1 66.1265C252.926 66.1265 252.838 66.2138 252.664 66.2138H248.908C248.908 66.5632 248.996 66.9126 249.083 67.262C249.258 67.7861 249.694 68.1355 250.218 68.3102C250.48 68.3975 250.742 68.3975 251.004 68.3975C251.266 68.3975 251.616 68.3102 251.878 68.3102C252.14 68.2228 252.402 68.1355 252.576 68.0481C252.751 67.9608 252.838 68.0481 252.838 68.1355L253.188 68.7469C253.275 68.9216 253.188 69.0089 253.1 69.0963C252.751 69.271 252.402 69.4457 251.965 69.533C251.616 69.6203 251.179 69.6203 250.83 69.6203C249.956 69.7077 249.083 69.3583 248.384 68.7469C247.773 67.9608 247.424 66.9126 247.511 65.9518C247.511 65.4277 247.598 64.9037 247.773 64.3796C247.948 63.9429 248.122 63.5061 248.472 63.2441C248.734 62.8947 249.083 62.6327 249.432 62.5453C249.956 62.1086 250.393 62.0212 250.83 62.0212ZM252.576 65.0784C252.576 64.8163 252.576 64.5543 252.489 64.2922C252.402 64.0302 252.314 63.8555 252.227 63.6808C252.052 63.5061 251.878 63.3314 251.703 63.2441C251.441 63.1567 251.092 63.0694 250.83 63.0694C250.568 63.0694 250.306 63.1567 250.044 63.2441C249.869 63.3314 249.607 63.5061 249.52 63.6808C249.345 63.8555 249.258 64.1175 249.17 64.2922C249.083 64.5543 248.996 64.729 248.996 64.991H252.576V65.0784Z" fill="#4B4E56"></path> <path d="M262.183 70.4065C262.009 70.9305 261.747 71.3673 261.31 71.7166C260.961 71.9787 260.437 72.1534 260 72.066H259.563C259.301 72.066 259.127 71.9787 258.952 71.9787C258.777 71.9787 258.777 71.8913 258.777 71.7166L258.952 71.0179C258.952 70.9305 258.952 70.8432 259.039 70.8432C259.127 70.8432 259.127 70.8432 259.214 70.8432L259.563 70.9305H259.913C260.175 70.9305 260.437 70.8432 260.699 70.7558C260.961 70.5812 261.048 70.3191 261.135 70.0571L261.485 69.0963H261.223C261.135 69.0963 260.961 69.0963 260.873 69.0089C260.786 68.9216 260.699 68.8342 260.611 68.5722L258.603 62.1959C258.603 62.1086 258.603 62.0212 258.69 62.0212H259.738C259.825 62.0212 259.825 62.0212 259.913 62.0212L260 62.1086L261.048 65.4277L261.747 67.9608H261.834L262.62 65.4277L263.755 62.1086C263.755 62.1086 263.755 62.0212 263.843 62.0212C263.843 62.0212 263.93 62.0212 264.017 62.0212H264.978C265.066 62.0212 265.153 62.1086 265.066 62.1959L262.183 70.4065Z" fill="#4B4E56"></path> <path d="M268.821 68.3101C269.083 68.3101 269.432 68.3101 269.694 68.2228C269.956 68.1354 270.218 68.0481 270.393 67.9607C270.48 67.9607 270.568 67.8734 270.568 67.9607L270.655 68.0481L271.004 68.7468C271.092 68.8342 271.092 68.9215 271.004 69.0089C271.004 69.0089 271.004 69.0089 270.917 69.0089C270.568 69.1836 270.218 69.3583 269.782 69.3583C269.432 69.4456 268.996 69.4456 268.559 69.4456C267.686 69.4456 266.9 69.0962 266.376 68.4848C265.764 67.6987 265.502 66.7379 265.59 65.7771C265.59 65.253 265.677 64.7289 265.764 64.2048C265.939 63.7681 266.114 63.3314 266.376 62.982C266.638 62.6326 266.987 62.3706 267.336 62.1959C267.773 62.0212 268.21 61.9338 268.646 61.9338C268.996 61.9338 269.345 61.9338 269.694 62.0212C270.044 62.1085 270.393 62.1959 270.655 62.3706C270.742 62.3706 270.83 62.5453 270.742 62.6326V62.7199L270.393 63.4187C270.393 63.5061 270.306 63.5061 270.306 63.5061C270.218 63.5061 270.131 63.5061 270.131 63.5061C269.869 63.4187 269.694 63.3314 269.432 63.244C269.17 63.1567 268.908 63.1567 268.646 63.1567C268.384 63.1567 268.035 63.244 267.773 63.3314C267.511 63.5061 267.336 63.6808 267.162 63.9428C266.987 64.2048 266.9 64.4669 266.812 64.8163C266.725 65.1656 266.725 65.515 266.725 65.7771C266.725 66.1264 266.725 66.3885 266.812 66.7379C266.9 66.9999 266.987 67.2619 267.074 67.524C267.249 67.786 267.424 67.9607 267.686 68.0481C268.21 68.3101 268.472 68.3974 268.821 68.3101Z" fill="#4B4E56"></path> <path d="M277.991 62.1086C278.166 62.1086 278.428 62.1086 278.603 62.2833C278.69 62.458 278.777 62.6327 278.777 62.8074V69.0963C278.777 69.1837 278.777 69.271 278.69 69.271C278.603 69.271 278.515 69.271 278.515 69.271H277.729C277.642 69.271 277.555 69.271 277.555 69.271C277.467 69.1837 277.467 69.1837 277.467 69.0963V63.3315H275.022L274.935 64.2923C274.847 65.2531 274.76 65.9519 274.673 66.5633C274.585 67.0874 274.498 67.6114 274.323 68.0482C274.236 68.3976 273.974 68.7469 273.712 69.009C273.45 69.271 273.1 69.4457 272.664 69.5331C272.576 69.5331 272.489 69.5331 272.402 69.5331C272.314 69.5331 272.314 69.5331 272.314 69.3584L272.14 68.7469C272.14 68.6596 272.14 68.5722 272.14 68.5722C272.227 68.4849 272.227 68.4849 272.314 68.4849C272.489 68.3976 272.664 68.3102 272.838 68.1355C273.013 67.9608 273.188 67.7861 273.188 67.5241C273.275 67.1747 273.362 66.738 273.45 66.3886C273.537 65.8645 273.537 65.2531 273.624 64.3796L273.712 62.9821C273.712 62.8074 273.799 62.5454 273.974 62.458C274.148 62.3707 274.323 62.2833 274.498 62.2833L277.991 62.1086Z" fill="#4B4E56"></path> <path d="M283.668 70.4065C283.493 70.9305 283.231 71.3673 282.795 71.7166C282.445 71.9787 281.921 72.1534 281.485 72.066H281.048C280.873 72.066 280.611 71.9787 280.437 71.9787C280.262 71.9787 280.262 71.8913 280.262 71.7166L280.437 71.0179C280.437 70.9305 280.437 70.8432 280.524 70.8432C280.611 70.8432 280.611 70.8432 280.699 70.8432L281.048 70.9305H281.397C281.659 70.9305 281.921 70.8432 282.183 70.7558C282.445 70.5812 282.533 70.3191 282.62 70.0571L282.969 69.0963H282.707C282.533 69.0963 282.445 69.0963 282.358 69.0089C282.271 69.0089 282.183 68.8342 282.096 68.5722L280.087 62.1959C280.087 62.1086 280.087 62.0212 280.175 62.0212H281.223C281.31 62.0212 281.31 62.0212 281.397 62.0212L281.485 62.1086L282.533 65.4277L283.231 67.9608H283.319L284.105 65.4277L285.24 62.1086C285.24 62.1086 285.24 62.0212 285.328 62.0212C285.415 62.0212 285.415 62.0212 285.502 62.0212H286.55C286.638 62.0212 286.725 62.1086 286.638 62.1959L283.668 70.4065Z" fill="#4B4E56"></path> <path d="M288.996 63.5062C288.821 63.6809 288.734 63.9429 288.821 64.2049V69.009C288.821 69.0963 288.821 69.1837 288.734 69.271C288.646 69.271 288.559 69.271 288.472 69.271H287.686C287.598 69.271 287.511 69.271 287.511 69.271C287.424 69.1837 287.424 69.0963 287.424 69.009V64.3796C287.424 64.1176 287.424 63.7682 287.511 63.5062C287.598 63.2441 287.686 62.9821 287.86 62.8074C288.035 62.5454 288.297 62.3707 288.559 62.2833C288.908 62.1086 289.258 62.1086 289.694 62.1086H292.489C292.576 62.1086 292.664 62.1086 292.664 62.196C292.664 62.2833 292.664 62.3707 292.664 62.3707V62.9821C292.664 63.0694 292.664 63.1568 292.664 63.1568C292.576 63.2441 292.489 63.2441 292.489 63.2441H289.694C289.432 63.2441 289.17 63.3315 288.996 63.5062Z" fill="#4B4E56"></path> <path d="M293.886 62.3707C293.886 62.2833 293.886 62.196 293.974 62.196C294.061 62.196 294.061 62.196 294.148 62.196H295.022C295.109 62.196 295.109 62.196 295.197 62.196C295.197 62.196 295.284 62.2833 295.284 62.3707V67.3494H295.371L296.419 65.6898L298.428 62.5454C298.515 62.3707 298.603 62.2833 298.69 62.196C298.865 62.1086 298.952 62.1086 299.127 62.1086H299.476C299.651 62.1086 299.825 62.1086 299.913 62.2833C300 62.3707 300.087 62.5454 300.087 62.7201V69.0963C300.087 69.1837 300.087 69.271 300 69.271C299.913 69.271 299.913 69.271 299.825 69.271H298.952C298.865 69.271 298.865 69.271 298.777 69.271C298.777 69.271 298.69 69.1837 298.69 69.0963V64.1176H298.603L297.642 65.6898L295.633 68.8343C295.546 69.009 295.459 69.0963 295.284 69.1837C295.197 69.271 295.022 69.271 294.847 69.271H294.498C294.323 69.271 294.148 69.271 294.061 69.0963C293.974 69.009 293.886 68.8343 293.886 68.6596V62.3707Z" fill="#4B4E56"></path> <path d="M113.712 26.122L113.362 25.5106L113.1 25.0738C112.576 24.2877 112.14 23.4143 111.878 22.4535C112.14 21.4927 112.576 20.6192 113.1 19.8331L113.624 18.9596C114.061 18.0862 114.585 17.3001 115.284 16.6013C116.245 16.3392 117.205 16.3392 118.166 16.4266H119.127C120.087 16.3392 121.048 16.4266 122.009 16.6013C122.707 17.3001 123.231 18.0862 123.581 18.9596L124.105 19.8331C124.629 20.6192 125.065 21.4927 125.328 22.4535C125.065 23.4143 124.629 24.2877 124.105 25.0738L123.581 25.9473C123.144 26.8208 122.62 27.6069 122.009 28.3057C121.048 28.5677 120.087 28.5677 119.127 28.4803H117.904C116.943 28.4803 115.983 28.4803 115.022 28.655C114.672 27.8689 114.236 26.9955 113.712 26.122ZM36.6812 1.14104C36.2445 1.92715 36.5065 2.9753 37.2926 3.41203L38.6026 4.19815C43.7555 7.16791 46.3755 8.6528 47.5109 10.5744C48.6463 12.496 48.6463 15.5531 48.6463 21.4927V24.5498C48.6463 30.4893 48.6463 33.4591 47.5109 35.468C46.3755 37.477 43.7555 38.8745 38.6026 41.8443L37.2926 42.6304C36.6812 42.9798 35.9825 43.3292 35.3712 43.6786C31.6157 45.7749 27.9476 47.8712 25.9389 50.9283C23.9301 47.8712 20.262 45.7749 16.5065 43.6786L14.5852 42.6304L13.2751 41.8443C8.12227 38.8745 5.50218 37.3896 4.45415 35.468C3.40611 33.5464 3.31878 30.4893 3.31878 24.5498V21.4927C3.31878 15.5531 3.31878 12.5834 4.45415 10.5744C5.58952 8.56545 8.12227 7.16791 13.3624 4.19815L14.6725 3.41203C15.4585 2.9753 15.7205 1.92715 15.2838 1.14104C14.8472 0.354924 13.7991 0.0928861 13.0131 0.529616L11.7031 1.31573C0.349345 7.86668 0 8.39076 0 21.4927V24.5498C0 37.6517 0.262008 38.1758 11.7031 44.7267L13.0131 45.5128L14.9345 46.561C20.9607 49.9675 24.3668 52.0638 24.3668 56.6931V63.3314C24.2795 69.9697 28.7336 75.8219 35.1965 77.4815C36.5065 77.8308 37.8166 78.0055 39.214 78.0055C44.3668 78.0055 49.1703 75.2105 51.7031 70.6685L64.6288 47.8712C65.0655 47.1724 65.7642 46.7357 66.6376 46.7357C67.4236 46.7357 68.2096 47.1724 68.6463 47.8712L72.4891 54.5095C73.3624 56.0817 75.1092 57.1298 76.9432 57.0425C78.7773 57.0425 80.524 56.0817 81.3974 54.4221L90.5677 38.2631C91.0044 37.5643 91.7031 37.1276 92.5764 37.1276C93.3624 37.1276 94.1485 37.5643 94.4978 38.2631L97.9039 44.7267V44.814C98.8646 46.561 100.786 47.6091 102.795 47.6091C104.803 47.6091 106.638 46.561 107.686 44.814L114.76 32.5856C115.109 31.9742 115.808 31.8868 117.904 31.8868H119.127C123.668 31.8868 124.279 31.5375 126.463 27.6069L126.987 26.7334C129.258 22.8029 129.258 22.1914 126.987 18.1735L126.463 17.3001C125.328 15.3784 124.803 14.3303 123.668 13.7189C122.533 13.1074 121.31 13.0201 119.127 13.0201H118.166C113.712 13.0201 113.188 13.3695 110.917 17.3001L110.393 18.1735C108.122 22.1041 108.122 22.7155 110.393 26.7334L110.655 27.1702L111.004 27.7816C112.052 29.6158 112.314 30.2273 111.965 30.926L104.891 43.1545C104.454 43.8532 103.755 44.29 102.882 44.29C102.096 44.29 101.31 43.8532 100.961 43.1545L97.5546 36.7782V36.6909C96.5939 34.944 94.6725 33.8958 92.6637 33.8958C90.655 33.8958 88.821 34.944 87.7729 36.6909L78.4279 52.8499C78.0786 53.4613 77.4672 53.8107 76.8559 53.7233C76.2445 53.7233 75.6332 53.374 75.2838 52.8499L71.441 46.2116C70.4803 44.4647 68.5589 43.4165 66.5502 43.4165C64.5415 43.4165 62.7074 44.4647 61.6594 46.2116L48.7336 69.0089C45.5895 74.4244 38.69 76.2586 33.2751 73.1142C29.7817 71.1052 27.5983 67.3493 27.5983 63.3314V56.6931C27.5983 52.1511 31.179 49.8801 37.0306 46.561L38.952 45.5128L40.262 44.7267C51.6157 38.1758 51.9651 37.6517 51.9651 24.5498V21.4927C51.9651 8.39076 51.6157 7.86668 40.3493 1.31573L39.0393 0.529616C38.7773 0.354924 38.5153 0.267578 38.1659 0.267578C37.5546 0.354924 37.0306 0.704308 36.6812 1.14104Z" fill="url(#paint0_linear_2360_87071)"></path> </g> <defs> <linearGradient id="paint0_linear_2360_87071" x1="0" y1="39.2021" x2="128.574" y2="39.2021" gradientUnits="userSpaceOnUse"> <stop stop-color="#00AFE6"></stop> <stop offset="1" stop-color="#09E78B"></stop> </linearGradient> <clipPath id="clip0_2360_87071"> <rect width="300" height="78" fill="white" transform="translate(0 0.0927734)"></rect> </clipPath> </defs> </svg> 