<svg width="576" height="576" viewBox="0 0 576 576" fill="none" xmlns="http://www.w3.org/2000/svg">
<g clip-path="url(#clip0_3470_2273)" filter="url(#filter0_b_3470_2273)">
<rect width="576" height="576" fill="#323232"/>
<rect x="50.2792" y="96.9386" width="325.006" height="382.123" rx="18.905" fill="#323232" stroke="white" stroke-width="0.804469"/>
<rect x="91.7095" y="116.648" width="43.4413" height="4.82682" rx="2.41341" fill="white"/>
<rect x="141.586" y="116.648" width="32.9832" height="4.82682" rx="2.41341" fill="white" fill-opacity="0.2"/>
<rect x="181.005" y="116.648" width="48.2682" height="4.82682" rx="2.41341" fill="white" fill-opacity="0.2"/>
<rect x="235.709" y="116.648" width="32.1788" height="4.82682" rx="2.41341" fill="white" fill-opacity="0.2"/>
<rect x="309.721" y="112.626" width="12.8715" height="12.8715" rx="6.43575" fill="#4C4C4C"/>
<rect x="329.028" y="112.626" width="12.8715" height="12.8715" rx="6.43575" fill="#4C4C4C"/>
<rect x="348.335" y="112.626" width="12.8715" height="12.8715" rx="6.43575" fill="#4C4C4C"/>
<rect x="49.877" y="139.978" width="325.81" height="0.804469" rx="0.402235" fill="white" fill-opacity="0.2"/>
<rect x="62.7485" y="152.045" width="298.458" height="20.9162" rx="10.4581" fill="#4C4C4C"/>
<rect x="62.7485" y="445.676" width="298.458" height="20.9162" rx="10.4581" fill="white"/>
<rect x="267.888" y="217.207" width="93.3184" height="20.9162" rx="10.4581" fill="#4C4C4C"/>
<circle cx="72.4022" cy="119.061" r="9.65363" fill="#4C4C4C"/>
<g clip-path="url(#clip1_3470_2273)">
<rect x="62.7485" y="201.117" width="298.458" height="1.60894" rx="0.804469" fill="white" fill-opacity="0.2"/>
<rect x="62.7485" y="201.117" width="28.1564" height="1.60894" rx="0.804469" fill="white" fill-opacity="0.3"/>
<rect x="62.7485" y="191.464" width="28.1564" height="4.82682" rx="2.41341" fill="white"/>
<rect x="97.3408" y="191.464" width="52.2905" height="4.82682" rx="2.41341" fill="white" fill-opacity="0.2"/>
<rect x="156.067" y="191.464" width="30.5698" height="4.82682" rx="2.41341" fill="white" fill-opacity="0.2"/>
<rect x="193.073" y="191.464" width="44.2458" height="4.82682" rx="2.41341" fill="white" fill-opacity="0.2"/>
</g>
<rect x="63.1508" y="217.609" width="194.682" height="90.905" rx="12.4693" fill="#E8E8E8" stroke="white" stroke-width="0.804469"/>
<g filter="url(#filter1_d_3470_2273)">
<circle cx="267.888" cy="119.061" r="9.65363" fill="#AB001F"/>
<circle cx="267.888" cy="119.061" r="9.25195" stroke="white" stroke-opacity="0.2" stroke-width="0.803356"/>
</g>
<path d="M267.309 123.011V115.479H268.587V123.011H267.309ZM264.182 119.884V118.606H271.714V119.884H264.182Z" fill="white"/>
<g filter="url(#filter2_d_3470_2273)">
<circle cx="267.888" cy="201.117" r="9.65363" fill="#AB001F"/>
<circle cx="267.888" cy="201.117" r="9.25195" stroke="white" stroke-opacity="0.2" stroke-width="0.803356"/>
</g>
<path d="M267.309 205.066V197.535H268.587V205.066H267.309ZM264.182 201.94V200.662H271.714V201.94H264.182Z" fill="white"/>
<g filter="url(#filter3_d_3470_2273)">
<circle cx="322.592" cy="220.425" r="9.65363" fill="#AB001F"/>
<circle cx="322.592" cy="220.425" r="9.25195" stroke="white" stroke-opacity="0.2" stroke-width="0.803356"/>
</g>
<path d="M322.013 224.374V216.842H323.291V224.374H322.013ZM318.886 221.247V219.969H326.418V221.247H318.886Z" fill="white"/>
<path d="M344.433 226.324L347.602 229.493L350.771 226.324" stroke="#B1B1B1" stroke-width="1.2067" stroke-linecap="round"/>
<g filter="url(#filter4_d_3470_2273)">
<path d="M267.083 256.626C267.083 253.071 269.965 250.19 273.519 250.19H355.575C359.129 250.19 362.011 253.071 362.011 256.626V262.257H267.083V256.626Z" fill="white"/>
<rect x="267.486" y="261.855" width="15.9438" height="12.067" fill="#323333" stroke="#4C4C4C" stroke-width="0.804469"/>
<rect x="283.122" y="261.855" width="15.9438" height="12.067" fill="#323333" stroke="#4C4C4C" stroke-width="0.804469"/>
<rect x="298.757" y="261.855" width="15.9438" height="12.067" fill="#323333" stroke="#4C4C4C" stroke-width="0.804469"/>
<rect x="314.394" y="261.855" width="15.9438" height="12.067" fill="#323333" stroke="#4C4C4C" stroke-width="0.804469"/>
<rect x="330.029" y="261.855" width="15.9438" height="12.067" fill="#323333" stroke="#4C4C4C" stroke-width="0.804469"/>
<rect x="345.665" y="261.855" width="15.9438" height="12.067" fill="#323333" stroke="#4C4C4C" stroke-width="0.804469"/>
<rect x="267.486" y="273.922" width="15.9438" height="12.067" fill="#323333" stroke="#4C4C4C" stroke-width="0.804469"/>
<rect x="283.122" y="273.922" width="15.9438" height="12.067" fill="#323333" stroke="#4C4C4C" stroke-width="0.804469"/>
<rect x="298.757" y="273.922" width="15.9438" height="12.067" fill="#323333" stroke="#4C4C4C" stroke-width="0.804469"/>
<rect x="314.394" y="273.922" width="15.9438" height="12.067" fill="#323333" stroke="#4C4C4C" stroke-width="0.804469"/>
<rect x="330.029" y="273.922" width="15.9438" height="12.067" fill="#323333" stroke="#4C4C4C" stroke-width="0.804469"/>
<rect x="345.665" y="273.922" width="15.9438" height="12.067" fill="#323333" stroke="#4C4C4C" stroke-width="0.804469"/>
<rect x="267.486" y="285.989" width="15.9438" height="11.2626" fill="#323333" stroke="#4C4C4C" stroke-width="0.804469"/>
<rect x="283.122" y="285.989" width="15.9438" height="11.2626" fill="#323333" stroke="#4C4C4C" stroke-width="0.804469"/>
<rect x="298.757" y="285.989" width="15.9438" height="11.2626" fill="#323333" stroke="#4C4C4C" stroke-width="0.804469"/>
<rect x="314.394" y="285.989" width="15.9438" height="11.2626" fill="#323333" stroke="#4C4C4C" stroke-width="0.804469"/>
<rect x="330.029" y="285.989" width="15.9438" height="11.2626" fill="#323333" stroke="#4C4C4C" stroke-width="0.804469"/>
<rect x="345.665" y="285.989" width="15.9438" height="11.2626" fill="#323333" stroke="#4C4C4C" stroke-width="0.804469"/>
<path d="M267.888 297.251H267.486V297.654V302.481C267.486 306.257 270.547 309.318 274.324 309.318H283.027H283.43V308.916V297.654V297.251H283.027H267.888Z" fill="#323333" stroke="#4C4C4C" stroke-width="0.804469"/>
<rect x="283.122" y="297.251" width="15.9438" height="12.067" fill="#323333" stroke="#4C4C4C" stroke-width="0.804469"/>
<rect x="298.757" y="297.251" width="15.9438" height="12.067" fill="#323333" stroke="#4C4C4C" stroke-width="0.804469"/>
<rect x="314.394" y="297.251" width="15.9438" height="12.067" fill="#323333" stroke="#4C4C4C" stroke-width="0.804469"/>
<rect x="330.029" y="297.251" width="15.9438" height="12.067" fill="#323333" stroke="#4C4C4C" stroke-width="0.804469"/>
<path d="M346.067 297.251H345.665V297.654V308.916V309.318H346.067H354.771C358.547 309.318 361.609 306.257 361.609 302.481V297.654V297.251H361.207H346.067Z" fill="#323333" stroke="#4C4C4C" stroke-width="0.804469"/>
</g>
<g filter="url(#filter5_d_3470_2273)">
<circle cx="322.592" cy="307.307" r="9.65363" fill="#AB001F"/>
<circle cx="322.592" cy="307.307" r="9.25195" stroke="white" stroke-opacity="0.2" stroke-width="0.803356"/>
</g>
<path d="M322.013 311.257V303.725H323.291V311.257H322.013ZM318.886 308.13V306.852H326.418V308.13H318.886Z" fill="white"/>
<g filter="url(#filter6_d_3470_2273)">
<circle cx="255.821" cy="445.676" r="9.65363" fill="#AB001F"/>
<circle cx="255.821" cy="445.676" r="9.25195" stroke="white" stroke-opacity="0.2" stroke-width="0.803356"/>
</g>
<path d="M255.242 449.625V442.094H256.52V449.625H255.242ZM252.115 446.499V445.221H259.647V446.499H252.115Z" fill="white"/>
<rect x="72.4023" y="349.14" width="62.7486" height="4.82682" rx="2.41341" fill="white" fill-opacity="0.2"/>
<rect x="72.4023" y="358.793" width="45.8547" height="4.82682" rx="2.41341" fill="white" fill-opacity="0.2"/>
<rect x="72.4023" y="333.855" width="69.1844" height="6.43575" rx="3.21788" fill="#929292"/>
<rect x="63.1508" y="324.603" width="92.514" height="49.0726" rx="9.2514" stroke="white" stroke-width="0.804469"/>
<rect x="175.375" y="349.14" width="53.8994" height="4.82682" rx="2.41341" fill="white" fill-opacity="0.2"/>
<rect x="175.375" y="358.793" width="69.1844" height="4.82682" rx="2.41341" fill="white" fill-opacity="0.2"/>
<rect x="175.375" y="333.855" width="39.419" height="6.43575" rx="3.21788" fill="#929292"/>
<rect x="166.123" y="324.603" width="92.514" height="49.0726" rx="9.2514" stroke="white" stroke-width="0.804469"/>
<rect x="278.347" y="349.14" width="31.3743" height="4.82682" rx="2.41341" fill="white" fill-opacity="0.2"/>
<rect x="278.347" y="358.793" width="63.5531" height="4.82682" rx="2.41341" fill="white" fill-opacity="0.2"/>
<rect x="278.347" y="333.855" width="69.1844" height="6.43575" rx="3.21788" fill="#929292"/>
<rect x="269.095" y="324.603" width="92.514" height="49.0726" rx="9.2514" stroke="white" stroke-width="0.804469"/>
<rect x="74.8154" y="453.721" width="44.2458" height="4.82682" rx="2.41341" fill="#CBCBCB"/>
<rect x="123.888" y="453.721" width="32.1788" height="4.82682" rx="2.41341" fill="#CBCBCB"/>
<rect x="160.894" y="453.721" width="74.8156" height="4.82682" rx="2.41341" fill="#CBCBCB"/>
<rect x="275.933" y="453.721" width="74.8156" height="4.82682" rx="2.41341" fill="#AB001F"/>
<circle opacity="0.4" cx="69.1843" cy="391.777" r="6.43575" fill="white"/>
<circle opacity="0.6" cx="69.1842" cy="391.777" r="3.21788" fill="white"/>
<rect x="82.0557" y="388.559" width="61.9441" height="4.82682" rx="2.41341" fill="white" fill-opacity="0.2"/>
<rect x="82.0557" y="398.212" width="125.497" height="4.82682" rx="2.41341" fill="white" fill-opacity="0.2"/>
<circle opacity="0.4" cx="69.1843" cy="419.129" r="6.43575" fill="white"/>
<circle opacity="0.6" cx="69.1842" cy="419.129" r="3.21788" fill="white"/>
<rect x="82.0557" y="415.911" width="92.514" height="4.82682" rx="2.41341" fill="white" fill-opacity="0.2"/>
<rect x="82.0557" y="425.564" width="67.5754" height="4.82682" rx="2.41341" fill="white" fill-opacity="0.2"/>
<rect x="405.05" y="96.9386" width="120.67" height="76.4246" rx="18.905" stroke="#626262" stroke-width="0.804469" stroke-dasharray="1.76 3.52"/>
<rect x="405.05" y="199.106" width="120.67" height="76.4246" rx="18.905" stroke="#626262" stroke-width="0.804469" stroke-dasharray="1.76 3.52"/>
<g filter="url(#filter7_d_3470_2273)">
<circle cx="465.814" cy="237.345" r="19.334" fill="#AB001F"/>
<circle cx="465.814" cy="237.345" r="18.5296" stroke="white" stroke-opacity="0.2" stroke-width="1.60894"/>
</g>
<rect x="532.961" y="309.318" width="120.67" height="76.4246" rx="18.905" stroke="#626262" stroke-width="0.804469" stroke-dasharray="1.76 3.52"/>
<rect x="405.05" y="402.637" width="120.67" height="76.4246" rx="18.905" stroke="#626262" stroke-width="0.804469" stroke-dasharray="1.76 3.52"/>
<rect x="405.05" y="309.318" width="120.67" height="76.4246" rx="18.905" stroke="#626262" stroke-width="0.804469" stroke-dasharray="1.76 3.52"/>
<path d="M377.028 238.123C377.028 239.308 376.067 240.268 374.882 240.268C373.698 240.268 372.737 239.308 372.737 238.123C372.737 236.938 373.698 235.978 374.882 235.978C376.067 235.978 377.028 236.938 377.028 238.123ZM404.128 237.839C404.285 237.996 404.285 238.25 404.128 238.407L401.568 240.967C401.411 241.124 401.156 241.124 400.999 240.967C400.842 240.81 400.842 240.555 400.999 240.398L403.274 238.123L400.999 235.848C400.842 235.69 400.842 235.436 400.999 235.279C401.156 235.122 401.411 235.122 401.568 235.279L404.128 237.839ZM403.843 238.525L402.878 238.525L402.878 237.721L403.843 237.721L403.843 238.525ZM399.016 238.525L397.086 238.525L397.086 237.721L399.016 237.721L399.016 238.525ZM393.224 238.525L391.294 238.525L391.294 237.721L393.224 237.721L393.224 238.525ZM387.432 238.525L385.501 238.525L385.501 237.721L387.432 237.721L387.432 238.525ZM381.64 238.525L379.709 238.525L379.709 237.721L381.64 237.721L381.64 238.525ZM375.848 238.525L374.882 238.525L374.882 237.721L375.848 237.721L375.848 238.525ZM377.028 238.123C377.028 239.308 376.067 240.268 374.882 240.268C373.698 240.268 372.737 239.308 372.737 238.123C372.737 236.938 373.698 235.978 374.882 235.978C376.067 235.978 377.028 236.938 377.028 238.123ZM404.128 237.839C404.285 237.996 404.285 238.25 404.128 238.407L401.568 240.967C401.411 241.124 401.156 241.124 400.999 240.967C400.842 240.81 400.842 240.555 400.999 240.398L403.274 238.123L400.999 235.848C400.842 235.69 400.842 235.436 400.999 235.279C401.156 235.122 401.411 235.122 401.568 235.279L404.128 237.839ZM403.843 238.525L402.878 238.525L402.878 237.721L403.843 237.721L403.843 238.525ZM399.016 238.525L397.086 238.525L397.086 237.721L399.016 237.721L399.016 238.525ZM393.224 238.525L391.294 238.525L391.294 237.721L393.224 237.721L393.224 238.525ZM387.432 238.525L385.501 238.525L385.501 237.721L387.432 237.721L387.432 238.525ZM381.64 238.525L379.709 238.525L379.709 237.721L381.64 237.721L381.64 238.525ZM375.848 238.525L374.882 238.525L374.882 237.721L375.848 237.721L375.848 238.525Z" fill="white"/>
<path d="M465.788 175.911C464.603 175.911 463.642 174.95 463.642 173.765C463.642 172.581 464.603 171.62 465.788 171.62C466.972 171.62 467.933 172.581 467.933 173.765C467.933 174.95 466.972 175.911 465.788 175.911ZM466.072 198.988C465.915 199.145 465.66 199.145 465.503 198.988L462.943 196.429C462.786 196.272 462.786 196.017 462.943 195.86C463.1 195.703 463.355 195.703 463.512 195.86L465.788 198.135L468.063 195.86C468.22 195.703 468.475 195.703 468.632 195.86C468.789 196.017 468.789 196.272 468.632 196.429L466.072 198.988ZM466.19 173.765L466.19 198.704L465.385 198.704L465.385 173.765L466.19 173.765Z" fill="#626262"/>
<path d="M561.52 388.29C560.335 388.29 559.374 387.33 559.374 386.145C559.374 384.96 560.335 384 561.52 384C562.704 384 563.665 384.96 563.665 386.145C563.665 387.33 562.704 388.29 561.52 388.29ZM555.084 440.045L555.084 439.642L555.084 440.045ZM526.643 440.329C526.486 440.172 526.486 439.917 526.643 439.76L529.203 437.2C529.36 437.043 529.614 437.043 529.772 437.2C529.929 437.358 529.929 437.612 529.772 437.769L527.496 440.045L529.772 442.32C529.929 442.477 529.929 442.732 529.772 442.889C529.614 443.046 529.36 443.046 529.203 442.889L526.643 440.329ZM561.922 386.145L561.922 433.609L561.117 433.609L561.117 386.145L561.922 386.145ZM555.084 440.447L526.927 440.447L526.927 439.642L555.084 439.642L555.084 440.447ZM561.922 433.609C561.922 437.385 558.86 440.447 555.084 440.447L555.084 439.642C558.416 439.642 561.117 436.941 561.117 433.609L561.922 433.609Z" fill="#626262"/>
<path d="M465.788 278.078C464.603 278.078 463.642 277.118 463.642 275.933C463.642 274.748 464.603 273.788 465.788 273.788C466.972 273.788 467.933 274.748 467.933 275.933C467.933 277.118 466.972 278.078 465.788 278.078ZM466.072 309.201C465.915 309.358 465.66 309.358 465.503 309.201L462.943 306.641C462.786 306.484 462.786 306.229 462.943 306.072C463.1 305.915 463.355 305.915 463.512 306.072L465.788 308.347L468.063 306.072C468.22 305.915 468.475 305.915 468.632 306.072C468.789 306.229 468.789 306.484 468.632 306.641L466.072 309.201ZM466.19 275.933L466.19 308.916L465.385 308.916L465.385 275.933L466.19 275.933Z" fill="#626262"/>
<path d="M465.788 278.078C464.603 278.078 463.642 277.118 463.642 275.933C463.642 274.748 464.603 273.788 465.788 273.788C466.972 273.788 467.933 274.748 467.933 275.933C467.933 277.118 466.972 278.078 465.788 278.078ZM561.804 310.005C561.647 310.162 561.392 310.162 561.235 310.005L558.675 307.445C558.518 307.288 558.518 307.034 558.675 306.876C558.832 306.719 559.087 306.719 559.244 306.876L561.52 309.152L563.795 306.876C563.952 306.719 564.207 306.719 564.364 306.876C564.521 307.034 564.521 307.288 564.364 307.445L561.804 310.005ZM466.19 275.933L466.19 281.967L465.385 281.967L465.385 275.933L466.19 275.933ZM472.223 288L555.084 288L555.084 288.805L472.223 288.805L472.223 288ZM561.922 294.838L561.922 309.721L561.117 309.721L561.117 294.838L561.922 294.838ZM466.19 281.967C466.19 285.299 468.891 288 472.223 288L472.223 288.805C468.447 288.805 465.385 285.743 465.385 281.967L466.19 281.967ZM555.084 288C558.86 288 561.922 291.062 561.922 294.838L561.117 294.838C561.117 291.506 558.416 288.805 555.084 288.805L555.084 288Z" fill="#626262"/>
<path d="M465.02 244.61V230.738H466.357V244.61H465.02ZM458.758 238.348V237H472.619V238.348H458.758Z" fill="white"/>
<g filter="url(#filter8_d_3470_2273)">
<circle cx="465.788" cy="135.151" r="12.8715" fill="#6E6E6E"/>
<circle cx="465.788" cy="135.151" r="12.4693" stroke="white" stroke-opacity="0.1" stroke-width="0.804469"/>
</g>
<path d="M461.107 134.907L464.396 138.076L470.469 132.226" stroke="white" stroke-width="1.75521" stroke-linecap="round"/>
<g filter="url(#filter9_d_3470_2273)">
<circle cx="465.788" cy="347.531" r="12.8715" fill="#6E6E6E"/>
<circle cx="465.788" cy="347.531" r="12.4693" stroke="white" stroke-opacity="0.1" stroke-width="0.804469"/>
</g>
<path d="M461.107 347.287L464.396 350.456L470.469 344.605" stroke="white" stroke-width="1.75521" stroke-linecap="round"/>
<g filter="url(#filter10_d_3470_2273)">
<circle cx="465.788" cy="441.654" r="12.8715" fill="#FEE0BC"/>
<circle cx="465.788" cy="441.654" r="12.4693" stroke="white" stroke-opacity="0.1" stroke-width="0.804469"/>
</g>
<path d="M464.676 444.385V444.287C464.683 443.649 464.747 443.142 464.867 442.765C464.99 442.388 465.165 442.083 465.391 441.85C465.617 441.617 465.89 441.404 466.209 441.212C466.414 441.082 466.599 440.936 466.764 440.775C466.929 440.614 467.059 440.429 467.155 440.22C467.251 440.011 467.299 439.779 467.299 439.525C467.299 439.22 467.227 438.956 467.083 438.734C466.939 438.511 466.747 438.339 466.507 438.219C466.27 438.096 466.006 438.034 465.715 438.034C465.451 438.034 465.199 438.089 464.959 438.199C464.719 438.308 464.52 438.48 464.363 438.713C464.205 438.943 464.114 439.239 464.09 439.603H462.527C462.551 438.986 462.707 438.464 462.995 438.039C463.283 437.611 463.663 437.287 464.136 437.067C464.613 436.848 465.139 436.738 465.715 436.738C466.346 436.738 466.898 436.857 467.371 437.093C467.844 437.326 468.211 437.654 468.471 438.075C468.735 438.494 468.867 438.982 468.867 439.541C468.867 439.925 468.807 440.271 468.687 440.58C468.567 440.885 468.396 441.157 468.173 441.397C467.954 441.637 467.69 441.85 467.381 442.035C467.09 442.217 466.853 442.405 466.671 442.6C466.493 442.796 466.363 443.027 466.281 443.295C466.198 443.562 466.154 443.893 466.147 444.287V444.385H464.676ZM465.453 447.511C465.172 447.511 464.93 447.412 464.728 447.213C464.525 447.011 464.424 446.767 464.424 446.483C464.424 446.202 464.525 445.962 464.728 445.763C464.93 445.561 465.172 445.46 465.453 445.46C465.73 445.46 465.97 445.561 466.173 445.763C466.378 445.962 466.481 446.202 466.481 446.483C466.481 446.671 466.433 446.845 466.337 447.002C466.245 447.156 466.121 447.28 465.967 447.372C465.813 447.465 465.641 447.511 465.453 447.511Z" fill="#B29067"/>
</g>
<defs>
<filter id="filter0_b_3470_2273" x="-64.3575" y="-64.3575" width="704.715" height="704.715" filterUnits="userSpaceOnUse" color-interpolation-filters="sRGB">
<feFlood flood-opacity="0" result="BackgroundImageFix"/>
<feGaussianBlur in="BackgroundImageFix" stdDeviation="32.1788"/>
<feComposite in2="SourceAlpha" operator="in" result="effect1_backgroundBlur_3470_2273"/>
<feBlend mode="normal" in="SourceGraphic" in2="effect1_backgroundBlur_3470_2273" result="shape"/>
</filter>
<filter id="filter1_d_3470_2273" x="251.808" y="104.266" width="32.1608" height="32.1609" filterUnits="userSpaceOnUse" color-interpolation-filters="sRGB">
<feFlood flood-opacity="0" result="BackgroundImageFix"/>
<feColorMatrix in="SourceAlpha" type="matrix" values="0 0 0 0 0 0 0 0 0 0 0 0 0 0 0 0 0 0 127 0" result="hardAlpha"/>
<feOffset dy="1.28537"/>
<feGaussianBlur stdDeviation="3.21342"/>
<feComposite in2="hardAlpha" operator="out"/>
<feColorMatrix type="matrix" values="0 0 0 0 0.670588 0 0 0 0 0 0 0 0 0 0.121569 0 0 0 1 0"/>
<feBlend mode="normal" in2="BackgroundImageFix" result="effect1_dropShadow_3470_2273"/>
<feBlend mode="normal" in="SourceGraphic" in2="effect1_dropShadow_3470_2273" result="shape"/>
</filter>
<filter id="filter2_d_3470_2273" x="251.808" y="186.322" width="32.1608" height="32.1609" filterUnits="userSpaceOnUse" color-interpolation-filters="sRGB">
<feFlood flood-opacity="0" result="BackgroundImageFix"/>
<feColorMatrix in="SourceAlpha" type="matrix" values="0 0 0 0 0 0 0 0 0 0 0 0 0 0 0 0 0 0 127 0" result="hardAlpha"/>
<feOffset dy="1.28537"/>
<feGaussianBlur stdDeviation="3.21342"/>
<feComposite in2="hardAlpha" operator="out"/>
<feColorMatrix type="matrix" values="0 0 0 0 0.670588 0 0 0 0 0 0 0 0 0 0.121569 0 0 0 1 0"/>
<feBlend mode="normal" in2="BackgroundImageFix" result="effect1_dropShadow_3470_2273"/>
<feBlend mode="normal" in="SourceGraphic" in2="effect1_dropShadow_3470_2273" result="shape"/>
</filter>
<filter id="filter3_d_3470_2273" x="306.512" y="205.63" width="32.1608" height="32.1609" filterUnits="userSpaceOnUse" color-interpolation-filters="sRGB">
<feFlood flood-opacity="0" result="BackgroundImageFix"/>
<feColorMatrix in="SourceAlpha" type="matrix" values="0 0 0 0 0 0 0 0 0 0 0 0 0 0 0 0 0 0 127 0" result="hardAlpha"/>
<feOffset dy="1.28537"/>
<feGaussianBlur stdDeviation="3.21342"/>
<feComposite in2="hardAlpha" operator="out"/>
<feColorMatrix type="matrix" values="0 0 0 0 0.670588 0 0 0 0 0 0 0 0 0 0.121569 0 0 0 1 0"/>
<feBlend mode="normal" in2="BackgroundImageFix" result="effect1_dropShadow_3470_2273"/>
<feBlend mode="normal" in="SourceGraphic" in2="effect1_dropShadow_3470_2273" result="shape"/>
</filter>
<filter id="filter4_d_3470_2273" x="249.159" y="238.224" width="130.776" height="95.3791" filterUnits="userSpaceOnUse" color-interpolation-filters="sRGB">
<feFlood flood-opacity="0" result="BackgroundImageFix"/>
<feColorMatrix in="SourceAlpha" type="matrix" values="0 0 0 0 0 0 0 0 0 0 0 0 0 0 0 0 0 0 127 0" result="hardAlpha"/>
<feOffset dy="5.95817"/>
<feGaussianBlur stdDeviation="8.96208"/>
<feComposite in2="hardAlpha" operator="out"/>
<feColorMatrix type="matrix" values="0 0 0 0 0.0666667 0 0 0 0 0.305882 0 0 0 0 0.321569 0 0 0 0.12 0"/>
<feBlend mode="normal" in2="BackgroundImageFix" result="effect1_dropShadow_3470_2273"/>
<feBlend mode="normal" in="SourceGraphic" in2="effect1_dropShadow_3470_2273" result="shape"/>
</filter>
<filter id="filter5_d_3470_2273" x="306.512" y="292.512" width="32.1608" height="32.1609" filterUnits="userSpaceOnUse" color-interpolation-filters="sRGB">
<feFlood flood-opacity="0" result="BackgroundImageFix"/>
<feColorMatrix in="SourceAlpha" type="matrix" values="0 0 0 0 0 0 0 0 0 0 0 0 0 0 0 0 0 0 127 0" result="hardAlpha"/>
<feOffset dy="1.28537"/>
<feGaussianBlur stdDeviation="3.21342"/>
<feComposite in2="hardAlpha" operator="out"/>
<feColorMatrix type="matrix" values="0 0 0 0 0.670588 0 0 0 0 0 0 0 0 0 0.121569 0 0 0 1 0"/>
<feBlend mode="normal" in2="BackgroundImageFix" result="effect1_dropShadow_3470_2273"/>
<feBlend mode="normal" in="SourceGraphic" in2="effect1_dropShadow_3470_2273" result="shape"/>
</filter>
<filter id="filter6_d_3470_2273" x="239.741" y="430.881" width="32.1608" height="32.1611" filterUnits="userSpaceOnUse" color-interpolation-filters="sRGB">
<feFlood flood-opacity="0" result="BackgroundImageFix"/>
<feColorMatrix in="SourceAlpha" type="matrix" values="0 0 0 0 0 0 0 0 0 0 0 0 0 0 0 0 0 0 127 0" result="hardAlpha"/>
<feOffset dy="1.28537"/>
<feGaussianBlur stdDeviation="3.21342"/>
<feComposite in2="hardAlpha" operator="out"/>
<feColorMatrix type="matrix" values="0 0 0 0 0.670588 0 0 0 0 0 0 0 0 0 0.121569 0 0 0 1 0"/>
<feBlend mode="normal" in2="BackgroundImageFix" result="effect1_dropShadow_3470_2273"/>
<feBlend mode="normal" in="SourceGraphic" in2="effect1_dropShadow_3470_2273" result="shape"/>
</filter>
<filter id="filter7_d_3470_2273" x="433.609" y="207.714" width="64.411" height="64.4111" filterUnits="userSpaceOnUse" color-interpolation-filters="sRGB">
<feFlood flood-opacity="0" result="BackgroundImageFix"/>
<feColorMatrix in="SourceAlpha" type="matrix" values="0 0 0 0 0 0 0 0 0 0 0 0 0 0 0 0 0 0 127 0" result="hardAlpha"/>
<feOffset dy="2.5743"/>
<feGaussianBlur stdDeviation="6.43575"/>
<feComposite in2="hardAlpha" operator="out"/>
<feColorMatrix type="matrix" values="0 0 0 0 0.670588 0 0 0 0 0 0 0 0 0 0.121569 0 0 0 1 0"/>
<feBlend mode="normal" in2="BackgroundImageFix" result="effect1_dropShadow_3470_2273"/>
<feBlend mode="normal" in="SourceGraphic" in2="effect1_dropShadow_3470_2273" result="shape"/>
</filter>
<filter id="filter8_d_3470_2273" x="442.619" y="114.042" width="46.3376" height="46.3375" filterUnits="userSpaceOnUse" color-interpolation-filters="sRGB">
<feFlood flood-opacity="0" result="BackgroundImageFix"/>
<feColorMatrix in="SourceAlpha" type="matrix" values="0 0 0 0 0 0 0 0 0 0 0 0 0 0 0 0 0 0 127 0" result="hardAlpha"/>
<feOffset dy="2.05944"/>
<feGaussianBlur stdDeviation="5.1486"/>
<feComposite in2="hardAlpha" operator="out"/>
<feColorMatrix type="matrix" values="0 0 0 0 0.410026 0 0 0 0 0.410026 0 0 0 0 0.410026 0 0 0 0.8 0"/>
<feBlend mode="normal" in2="BackgroundImageFix" result="effect1_dropShadow_3470_2273"/>
<feBlend mode="normal" in="SourceGraphic" in2="effect1_dropShadow_3470_2273" result="shape"/>
</filter>
<filter id="filter9_d_3470_2273" x="442.619" y="326.422" width="46.3376" height="46.3375" filterUnits="userSpaceOnUse" color-interpolation-filters="sRGB">
<feFlood flood-opacity="0" result="BackgroundImageFix"/>
<feColorMatrix in="SourceAlpha" type="matrix" values="0 0 0 0 0 0 0 0 0 0 0 0 0 0 0 0 0 0 127 0" result="hardAlpha"/>
<feOffset dy="2.05944"/>
<feGaussianBlur stdDeviation="5.1486"/>
<feComposite in2="hardAlpha" operator="out"/>
<feColorMatrix type="matrix" values="0 0 0 0 0.410026 0 0 0 0 0.410026 0 0 0 0 0.410026 0 0 0 0.8 0"/>
<feBlend mode="normal" in2="BackgroundImageFix" result="effect1_dropShadow_3470_2273"/>
<feBlend mode="normal" in="SourceGraphic" in2="effect1_dropShadow_3470_2273" result="shape"/>
</filter>
<filter id="filter10_d_3470_2273" x="442.619" y="420.544" width="46.3376" height="46.3373" filterUnits="userSpaceOnUse" color-interpolation-filters="sRGB">
<feFlood flood-opacity="0" result="BackgroundImageFix"/>
<feColorMatrix in="SourceAlpha" type="matrix" values="0 0 0 0 0 0 0 0 0 0 0 0 0 0 0 0 0 0 127 0" result="hardAlpha"/>
<feOffset dy="2.05944"/>
<feGaussianBlur stdDeviation="5.1486"/>
<feComposite in2="hardAlpha" operator="out"/>
<feColorMatrix type="matrix" values="0 0 0 0 0.996078 0 0 0 0 0.878431 0 0 0 0 0.737255 0 0 0 0.2 0"/>
<feBlend mode="normal" in2="BackgroundImageFix" result="effect1_dropShadow_3470_2273"/>
<feBlend mode="normal" in="SourceGraphic" in2="effect1_dropShadow_3470_2273" result="shape"/>
</filter>
<clipPath id="clip0_3470_2273">
<rect width="576" height="576" fill="white"/>
</clipPath>
<clipPath id="clip1_3470_2273">
<rect width="298.458" height="11.2626" fill="white" transform="translate(62.7485 191.464)"/>
</clipPath>
</defs>
</svg>
