<svg width="360" height="360" viewBox="0 0 360 360" fill="none" xmlns="http://www.w3.org/2000/svg">
<g clip-path="url(#clip0_5155_52366)">
<rect width="360" height="360" rx="8" fill="#181E28"/>
<path d="M49.5389 65.6342L86.9506 52.5244V46.5793L49.5389 33.0122V41.0915L74.379 49.7805L49.5389 58.0122V65.6342ZM39.6937 29.5061L30 26V34.3842L39.6937 37.7378V29.5061ZM39.6937 61.2135L30 64.4147V72.4939L39.6937 69.1403V61.2135Z" fill="#E31B23"/>
<path d="M64.8366 89.8719V79.9634C64.8366 77.3719 64.2308 75.5426 63.1705 74.4756C62.1103 73.4085 60.1412 72.9512 57.5663 72.9512C55.1429 72.9512 53.1739 73.4085 51.5078 74.3231C49.8416 75.2378 48.9329 76.3048 48.9329 77.6768C48.9329 78.2865 49.0843 78.5914 49.3873 78.8963C49.6902 79.2012 50.1446 79.3536 50.9019 79.3536H54.6885V75.6951C54.9914 75.6951 55.2944 75.5426 55.4458 75.5426C57.1119 75.3902 58.1722 75.6951 58.9295 76.3048C59.5354 76.9146 59.6868 77.8292 59.6868 79.2012V80.1158C54.6885 81.1829 51.6592 82.25 50.296 83.317C48.9329 84.3841 48.1755 85.7561 48.1755 87.5853C48.1755 89.1097 48.6299 90.3292 49.6902 91.3963C50.599 92.3109 51.9621 92.9207 53.4768 92.9207C54.537 92.9207 55.4458 92.7683 56.6575 92.311C57.7178 92.0061 58.778 91.3963 59.9898 90.4817L60.4441 92.6158H67.563V90.4817L65.291 90.3292L64.8366 89.8719ZM54.84 84.3841C55.7488 83.7744 57.2634 83.1646 59.6868 82.7073V88.6524C58.9295 88.9573 58.3236 89.2622 57.7178 89.4146C56.0517 89.8719 54.9914 89.7195 54.2341 88.9573C53.7797 88.5 53.4768 87.8902 53.4768 86.9756C53.6283 85.7561 54.0826 84.9939 54.84 84.3841Z" fill="white"/>
<path d="M81.6491 74.7805C81.0433 74.4757 80.5889 74.1708 79.983 73.8659C79.3772 73.561 78.7713 73.4086 78.1655 73.2562C77.5596 73.1037 76.9537 73.1037 76.4993 72.9513C76.045 72.9513 75.5906 72.7988 75.1362 72.7988C74.2274 72.7988 73.3186 72.7988 72.2583 72.9513C71.1981 73.1037 70.1378 73.2561 68.9261 73.7135H68.7747V79.2013H71.501L71.9554 76.1525L72.4098 75.8476C72.7127 75.6952 73.0157 75.5427 73.4701 75.3903C73.9245 75.2379 74.5303 75.2379 75.1362 75.2379C75.8935 75.2379 76.4994 75.3903 76.9537 75.5427C77.4081 75.6952 77.8625 76.0001 78.3169 76.3049C78.6198 76.6098 78.9228 76.9147 79.2257 77.372C79.5286 77.8293 79.6801 78.1342 79.8316 78.5915C79.983 79.0488 80.1345 79.5062 80.1345 79.9635C80.1345 80.4208 80.286 80.8781 80.286 81.183H73.0157V83.7745H80.286C80.286 84.994 80.1345 86.2135 79.8316 86.9757C79.5286 87.7379 79.2257 88.5001 78.6198 88.9574C78.1655 89.4147 77.5596 89.7196 77.1052 90.0245C76.1964 90.3293 75.5906 90.3293 74.9847 90.3293C74.6818 90.3293 74.3788 90.3293 73.773 90.1769C73.3186 90.1769 72.7127 89.872 71.9554 89.5671L71.6525 89.2623L71.1981 85.9086H68.4717V92.0062H68.6232C69.9864 92.3111 71.1981 92.6159 72.2583 92.7684C73.3186 92.9208 74.2274 92.9208 74.8332 92.9208C76.1964 92.9208 77.5596 92.7684 78.9228 92.3111C80.286 91.8537 81.3462 91.244 82.4065 90.4818C83.4667 89.7196 84.224 88.6525 84.8299 87.433C85.4357 86.2135 85.7387 84.6891 85.7387 83.0123C85.7387 80.8781 85.2843 79.2013 84.527 77.9818C83.7696 76.6098 82.7094 75.5427 81.6491 74.7805Z" fill="white"/>
<path d="M101.036 72.9512C100.128 72.9512 99.2189 73.1036 98.1586 73.5609C97.2498 73.8658 96.3411 74.4756 95.1293 75.2378V73.1036H93.1603L87.4047 74.9329V76.7622H89.9796V98.1036L89.5252 98.561L87.4047 98.7134V101H98.0072V98.8658L95.5837 98.7134L95.1293 98.2561V92.4634C95.5837 92.4634 96.0381 92.6158 96.4925 92.6158C96.9469 92.6158 97.5528 92.6158 98.0072 92.6158C101.188 92.6158 103.611 91.7012 105.58 89.8719C107.398 88.0426 108.307 85.4512 108.307 82.4024C108.307 79.8109 107.549 77.5243 106.186 75.8475C104.823 73.8658 103.157 72.9512 101.036 72.9512ZM102.703 82.8597C102.703 84.9939 102.248 86.8231 101.188 88.1951C100.279 89.4146 98.916 90.1768 97.2498 90.1768C96.7955 90.1768 96.4925 90.1768 96.0381 90.1768C95.7352 90.1768 95.2808 90.0244 94.9779 90.0244V77.5243C95.5837 77.3719 96.0381 77.067 96.4925 77.067C96.9469 76.9146 97.4013 76.9146 97.8557 76.9146C99.3703 76.9146 100.582 77.5244 101.339 78.5914C102.4 79.3536 102.703 80.878 102.703 82.8597Z" fill="white"/>
<path d="M121.03 72.9512C118.001 72.9512 115.577 73.8658 113.76 75.6951C111.942 77.5244 111.033 79.9634 111.033 83.0122C111.033 85.9085 111.942 88.3475 113.76 90.1768C115.577 92.0061 118.001 92.9207 120.878 92.9207C123.908 92.9207 126.331 92.0061 128.149 90.1768C129.966 88.3475 130.875 86.0609 130.875 83.1646C130.875 80.1158 129.966 77.6768 128.3 75.8475C126.331 73.8658 123.908 72.9512 121.03 72.9512ZM123.908 88.5C123.15 89.7195 122.09 90.3292 120.727 90.3292C119.364 90.3292 118.455 89.7195 117.698 88.3475C116.94 86.9756 116.486 85.1463 116.486 82.7073C116.486 80.2683 116.94 78.439 117.698 77.2195C118.455 76 119.515 75.3902 120.727 75.3902C122.09 75.3902 123.15 76 123.908 77.3719C124.665 78.7439 125.119 80.5731 125.119 83.0122C125.119 85.2987 124.665 87.2805 123.908 88.5Z" fill="white"/>
<path d="M150.717 89.7194L148.445 85.2986C148.293 84.9938 147.99 84.6889 147.839 84.384C147.536 84.0791 147.385 83.7743 146.93 83.4694C146.476 83.0121 145.719 82.5548 145.113 82.4023C145.416 82.2499 145.719 81.945 146.021 81.6401C146.324 81.3352 146.476 80.8779 146.627 80.573L147.688 77.9816C147.839 77.8291 147.839 77.5243 147.991 77.3718C147.991 77.2194 148.142 77.2194 148.142 77.0669L150.414 78.5913C151.171 78.4389 151.777 78.134 152.231 77.6767C152.534 77.2194 152.837 76.6096 152.837 75.9999C152.837 75.3901 152.686 74.7803 152.534 74.4755C152.232 74.1706 152.08 73.8657 151.626 73.5608C151.323 73.4084 150.868 73.256 150.565 73.256C150.262 73.256 149.96 73.1035 149.657 73.1035C149.202 73.1035 148.748 73.256 148.293 73.4084C147.839 73.5608 147.536 73.8657 147.082 74.1706C146.779 74.4755 146.476 74.9328 146.173 75.3901C145.87 75.8474 145.567 76.3047 145.416 76.9145L144.204 79.6584C144.052 80.1157 143.75 80.573 143.447 80.8779C143.144 81.1828 142.689 81.3352 142.083 81.3352H140.114V76.1523L140.569 75.695L142.689 75.5426V73.4084H132.541V75.5426L134.662 75.695L135.116 76.1523V89.7194L134.662 90.1767L132.541 90.3291V92.4633H142.689V90.3291L140.72 90.1767L140.266 89.7194V83.7743H141.175C141.78 83.7743 142.235 83.9267 142.689 84.2316C143.144 84.5365 143.447 84.9938 143.598 85.2986L145.87 90.9389V92.3109H153.595V90.1767H151.323L150.717 89.7194Z" fill="white"/>
<path d="M158.29 75.5423L160.865 75.6947L161.319 76.152C161.319 77.3715 161.168 78.591 161.016 79.8106C160.865 81.0301 160.713 82.2496 160.41 83.4691C160.107 84.6886 159.956 85.7557 159.502 86.8228C159.199 87.7374 158.896 88.4996 158.441 89.2618L156.321 87.2801H156.169C155.563 87.2801 155.261 87.4325 154.806 87.7374C154.503 87.8898 154.2 88.1947 154.049 88.4996C153.897 88.8045 153.746 89.1094 153.746 89.4142C153.746 89.7191 153.594 90.024 153.594 90.1764C153.594 90.9386 153.746 91.7008 154.2 92.1581C154.655 92.6155 155.412 92.9203 156.321 92.9203C157.381 92.9203 158.29 92.6155 159.199 92.0057C159.956 91.3959 160.713 90.6337 161.168 89.7191C161.774 88.8045 162.076 87.7374 162.531 86.5179C162.834 85.2984 163.137 84.0789 163.288 82.8593C163.44 81.6398 163.591 80.4203 163.743 79.2008C163.894 78.1337 163.894 77.0666 163.894 76.152H167.226V90.024L166.772 90.4813H164.954V92.6155H175.254V90.4813L173.133 90.3289L172.679 89.8715V76.3045L173.133 75.8471L175.254 75.6947V73.5605H158.29V75.5423Z" fill="white"/>
<path d="M189.037 75.5423L191.158 75.8471L191.461 76.3045L187.523 86.5179L183.585 76.3045L183.887 75.8471L185.856 75.5423V73.5605H175.708V75.5423L178.132 75.8471L184.796 92.7679C184.342 93.835 183.887 94.7496 183.433 95.5118C182.979 96.274 182.524 96.7313 182.07 97.1886L178.738 94.902H178.586C177.98 95.2069 177.374 95.6642 177.072 96.1216C176.769 96.5789 176.466 97.1886 176.466 97.7984C176.466 98.5606 176.769 99.3228 177.526 99.9325C178.132 100.542 179.041 100.847 179.949 100.847C181.313 100.847 182.676 100.237 183.887 98.8655C185.099 97.6459 186.311 95.8167 187.22 93.6825L194.49 75.8471L196.61 75.5423V73.5605H188.886V75.5423H189.037Z" fill="white"/>
<path d="M216.604 78.7441C215.998 77.5246 215.392 76.4575 214.483 75.6953C213.877 75.0856 213.12 74.6282 212.06 74.1709C211 73.7136 209.788 73.4087 208.273 73.4087C206.759 73.4087 205.244 73.7136 203.881 74.4758C202.669 75.0856 201.76 76.0002 201.003 77.0673C201.154 75.8478 201.306 74.7807 201.76 74.0185C202.215 73.1039 202.82 72.3417 203.426 71.8843C204.032 71.2746 204.79 70.9697 205.547 70.6648C206.304 70.3599 207.213 70.2075 207.97 70.0551L211 69.5978C211.757 69.4453 212.363 69.2929 212.969 69.1404C213.574 68.8356 214.18 68.5307 214.786 68.0734C215.392 67.616 215.846 67.0063 216.149 66.2441C216.604 65.4819 216.755 64.5673 216.907 63.5002V63.1953H214.332V63.3477C214.18 63.8051 213.877 64.1099 213.272 64.2624C212.969 64.4148 212.666 64.4148 212.363 64.4148C212.06 64.4148 211.757 64.5673 211.454 64.5673L208.425 64.8721C207.819 65.0246 207.213 65.0246 206.607 65.177C206.001 65.3295 205.395 65.4819 204.79 65.7868C204.184 66.0917 203.578 66.3965 202.972 66.7014C202.366 67.1587 201.76 67.616 201.154 68.2258C200.549 68.988 199.943 69.9026 199.488 70.9697C199.034 72.0368 198.579 73.1039 198.277 74.3234C197.974 75.5429 197.822 76.61 197.671 77.8295C197.519 79.049 197.519 80.1161 197.519 81.3356C197.519 82.0978 197.519 82.86 197.671 83.6222C197.671 84.3843 197.822 85.1465 198.125 85.9087C198.277 86.6709 198.579 87.4331 199.034 88.1953C199.488 88.9575 199.943 89.5673 200.549 90.177C201.154 90.7868 201.912 91.2441 203.123 91.8539C204.184 92.3112 205.547 92.6161 207.364 92.6161C208.425 92.6161 209.636 92.4636 210.848 92.1587C212.06 91.8539 213.12 91.3965 214.18 90.6343C214.635 90.3295 215.089 89.8722 215.543 89.2624C215.998 88.8051 216.301 88.1953 216.604 87.5856C217.21 86.3661 217.513 84.6892 217.513 82.7075C217.513 81.3356 217.21 79.9636 216.604 78.7441ZM207.516 90.3295C206.456 90.3295 205.698 90.0246 205.244 89.5673C204.638 88.9575 204.184 88.3478 204.032 87.5856C203.729 86.8234 203.578 85.9087 203.578 85.1465C203.578 84.3843 203.426 83.6221 203.426 83.0124C203.426 81.6404 203.578 80.5734 203.729 79.8112C203.881 79.049 204.184 78.4392 204.487 77.8295C204.79 77.2197 205.244 76.7624 205.698 76.3051C206.153 75.8478 206.91 75.6953 207.667 75.6953C208.576 75.6953 209.182 75.8478 209.788 76.3051C210.394 76.7624 210.848 77.3722 211.151 77.9819C211.454 78.7441 211.757 79.5063 211.757 80.4209C211.908 81.3356 211.908 82.2502 211.908 83.0124C211.908 83.3173 211.908 83.4697 211.908 83.7746V84.8417C211.908 85.6039 211.757 86.3661 211.454 87.1283C211.151 87.8905 210.697 88.5002 210.091 89.11C209.333 90.177 208.425 90.3295 207.516 90.3295Z" fill="white"/>
<rect x="30.5" y="182.5" width="299" height="250" rx="23.5" stroke="#FF3C3C"/>
<g filter="url(#filter0_i_5155_52366)">
<path d="M162.975 154.727C172.581 145.829 187.419 145.829 197.025 154.727L299 249.189L180 322.468L61 249.189L162.975 154.727Z" fill="url(#paint0_linear_5155_52366)"/>
</g>
<g filter="url(#filter1_d_5155_52366)">
<rect x="86" y="246.891" width="188" height="53.9118" rx="8.29412" fill="#859197"/>
</g>
<mask id="mask0_5155_52366" style="mask-type:alpha" maskUnits="userSpaceOnUse" x="86" y="246" width="188" height="55">
<rect x="86" y="246.891" width="188" height="53.9118" rx="8.29412" fill="#859197"/>
</mask>
<g mask="url(#mask0_5155_52366)">
<circle cx="139.912" cy="249.656" r="0.691176" fill="white"/>
<circle cx="139.912" cy="253.111" r="0.691176" fill="white"/>
<circle cx="139.912" cy="256.566" r="0.691176" fill="white"/>
<circle cx="139.912" cy="260.023" r="0.691176" fill="white"/>
<circle cx="139.912" cy="263.478" r="0.691176" fill="white"/>
<circle cx="139.912" cy="266.935" r="0.691176" fill="white"/>
<circle cx="139.912" cy="270.39" r="0.691176" fill="white"/>
<circle cx="139.912" cy="273.845" r="0.691176" fill="white"/>
<circle cx="139.912" cy="277.302" r="0.691176" fill="white"/>
<circle cx="139.912" cy="280.758" r="0.691176" fill="white"/>
<circle cx="139.912" cy="284.215" r="0.691176" fill="white"/>
<circle cx="139.912" cy="287.67" r="0.691176" fill="white"/>
<circle cx="139.912" cy="291.125" r="0.691176" fill="white"/>
<circle cx="139.912" cy="294.582" r="0.691176" fill="white"/>
<circle cx="139.912" cy="298.037" r="0.691176" fill="white"/>
</g>
<g filter="url(#filter2_d_5155_52366)">
<path d="M118.593 262.933C122.914 262.933 126.434 266.452 126.434 270.773C126.434 275.139 122.914 278.614 118.593 278.614C117.925 278.614 117.301 278.525 116.678 278.391L115.208 279.861C115.074 279.995 114.896 280.04 114.718 280.04H112.178V282.178C112.178 282.579 111.822 282.891 111.465 282.891H109.327V285.029C109.327 285.43 108.971 285.742 108.614 285.742H104.338C103.937 285.742 103.625 285.43 103.625 285.029V280.663C103.625 280.262 103.759 279.906 104.026 279.639L110.975 272.689C110.842 272.065 110.753 271.442 110.753 270.773C110.753 266.452 114.227 262.933 118.593 262.933ZM120.375 270.773C121.355 270.773 122.157 270.016 122.157 268.991C122.157 268.011 121.355 267.21 120.375 267.21C119.351 267.21 118.593 268.011 118.593 268.991C118.593 270.016 119.351 270.773 120.375 270.773Z" fill="url(#paint1_linear_5155_52366)"/>
</g>
<rect x="148.897" y="253.803" width="24.5294" height="12.1471" rx="2.76471" fill="#181E28"/>
<path d="M154.268 257.85V262.877H153.357V258.736H153.327L152.152 259.487V258.653L153.401 257.85H154.268ZM157.402 262.973C156.998 262.973 156.651 262.87 156.361 262.666C156.073 262.46 155.851 262.163 155.696 261.775C155.542 261.385 155.465 260.917 155.465 260.368C155.467 259.82 155.545 259.354 155.698 258.969C155.854 258.583 156.076 258.289 156.364 258.086C156.653 257.883 156.999 257.781 157.402 257.781C157.804 257.781 158.15 257.883 158.44 258.086C158.73 258.289 158.951 258.583 159.105 258.969C159.261 259.356 159.338 259.822 159.338 260.368C159.338 260.918 159.261 261.388 159.105 261.777C158.951 262.165 158.73 262.461 158.44 262.666C158.152 262.87 157.806 262.973 157.402 262.973ZM157.402 262.204C157.716 262.204 157.964 262.05 158.146 261.741C158.329 261.43 158.42 260.972 158.42 260.368C158.42 259.969 158.379 259.634 158.295 259.362C158.212 259.091 158.094 258.886 157.942 258.749C157.79 258.609 157.61 258.54 157.402 258.54C157.089 258.54 156.842 258.695 156.661 259.006C156.479 259.316 156.387 259.77 156.386 260.368C156.384 260.769 156.424 261.106 156.506 261.38C156.589 261.653 156.707 261.859 156.859 261.998C157.012 262.136 157.192 262.204 157.402 262.204ZM160.711 262.273C160.562 262.273 160.435 262.221 160.328 262.116C160.222 262.01 160.169 261.882 160.171 261.733C160.169 261.586 160.222 261.46 160.328 261.355C160.435 261.25 160.562 261.198 160.711 261.198C160.855 261.198 160.98 261.25 161.087 261.355C161.195 261.46 161.249 261.586 161.251 261.733C161.249 261.833 161.223 261.924 161.173 262.006C161.123 262.087 161.058 262.153 160.976 262.202C160.896 262.249 160.808 262.273 160.711 262.273ZM160.711 259.782C160.562 259.782 160.435 259.73 160.328 259.625C160.222 259.518 160.169 259.391 160.171 259.242C160.169 259.095 160.222 258.969 160.328 258.864C160.435 258.758 160.562 258.704 160.711 258.704C160.855 258.704 160.98 258.758 161.087 258.864C161.195 258.969 161.249 259.095 161.251 259.242C161.249 259.34 161.223 259.43 161.173 259.512C161.123 259.594 161.058 259.659 160.976 259.708C160.896 259.757 160.808 259.782 160.711 259.782ZM163.906 262.946C163.579 262.946 163.286 262.884 163.028 262.762C162.769 262.637 162.564 262.467 162.411 262.251C162.261 262.035 162.181 261.788 162.171 261.51H163.055C163.071 261.716 163.16 261.885 163.322 262.015C163.484 262.145 163.679 262.209 163.906 262.209C164.085 262.209 164.243 262.168 164.382 262.087C164.521 262.005 164.631 261.891 164.711 261.745C164.791 261.6 164.831 261.434 164.829 261.247C164.831 261.057 164.791 260.889 164.709 260.742C164.627 260.594 164.515 260.479 164.373 260.395C164.23 260.31 164.067 260.268 163.882 260.268C163.731 260.266 163.583 260.294 163.437 260.351C163.292 260.409 163.176 260.484 163.091 260.577L162.269 260.442L162.532 257.85H165.448V258.611H163.285L163.14 259.944H163.17C163.263 259.834 163.395 259.743 163.565 259.671C163.735 259.598 163.922 259.561 164.125 259.561C164.429 259.561 164.701 259.633 164.94 259.777C165.178 259.919 165.367 260.116 165.504 260.366C165.642 260.616 165.71 260.903 165.71 261.225C165.71 261.557 165.633 261.853 165.48 262.114C165.327 262.372 165.115 262.576 164.844 262.725C164.574 262.872 164.261 262.946 163.906 262.946ZM168.319 262.946C167.954 262.946 167.63 262.884 167.347 262.762C167.066 262.639 166.845 262.471 166.685 262.258C166.526 262.044 166.447 261.801 166.449 261.529C166.447 261.318 166.493 261.124 166.586 260.948C166.68 260.771 166.806 260.624 166.964 260.506C167.125 260.386 167.303 260.31 167.5 260.278V260.243C167.241 260.186 167.032 260.054 166.871 259.848C166.712 259.64 166.634 259.401 166.636 259.129C166.634 258.87 166.706 258.64 166.852 258.437C166.997 258.234 167.197 258.074 167.45 257.958C167.704 257.84 167.994 257.781 168.319 257.781C168.642 257.781 168.929 257.84 169.181 257.958C169.434 258.074 169.634 258.234 169.78 258.437C169.927 258.64 170.001 258.87 170.001 259.129C170.001 259.401 169.92 259.64 169.758 259.848C169.597 260.054 169.39 260.186 169.137 260.243V260.278C169.333 260.31 169.51 260.386 169.667 260.506C169.826 260.624 169.952 260.771 170.045 260.948C170.14 261.124 170.187 261.318 170.187 261.529C170.187 261.801 170.107 262.044 169.947 262.258C169.786 262.471 169.565 262.639 169.284 262.762C169.004 262.884 168.683 262.946 168.319 262.946ZM168.319 262.244C168.507 262.244 168.671 262.212 168.81 262.148C168.949 262.083 169.057 261.991 169.134 261.873C169.211 261.755 169.25 261.619 169.252 261.466C169.25 261.305 169.209 261.164 169.127 261.041C169.047 260.917 168.936 260.819 168.795 260.749C168.656 260.679 168.498 260.643 168.319 260.643C168.139 260.643 167.979 260.679 167.838 260.749C167.698 260.819 167.586 260.917 167.504 261.041C167.424 261.164 167.385 261.305 167.387 261.466C167.385 261.619 167.423 261.755 167.5 261.873C167.576 261.989 167.684 262.08 167.824 262.146C167.964 262.211 168.13 262.244 168.319 262.244ZM168.319 259.954C168.473 259.954 168.609 259.923 168.727 259.86C168.846 259.798 168.94 259.712 169.009 259.6C169.078 259.489 169.113 259.361 169.115 259.215C169.113 259.071 169.079 258.945 169.011 258.837C168.944 258.727 168.851 258.643 168.732 258.584C168.612 258.524 168.475 258.493 168.319 258.493C168.161 258.493 168.021 258.524 167.9 258.584C167.78 258.643 167.687 258.727 167.62 258.837C167.554 258.945 167.522 259.071 167.524 259.215C167.522 259.361 167.555 259.489 167.622 259.6C167.691 259.71 167.785 259.797 167.905 259.86C168.026 259.923 168.164 259.954 168.319 259.954Z" fill="white"/>
<rect x="149" y="271" width="59" height="4" rx="2" fill="white"/>
<rect x="149" y="278" width="40" height="4" rx="2" fill="white"/>
<rect opacity="0.13" x="149.168" y="292.762" width="30.08" height="1.504" rx="0.752" fill="white"/>
<rect opacity="0.13" x="149.168" y="289.002" width="46.624" height="1.504" rx="0.752" fill="white"/>
<circle cx="260.522" cy="259.678" r="5.52941" stroke="white" stroke-width="0.691176"/>
<path d="M258.103 260.023L259.831 261.751L263.632 257.949" stroke="white" stroke-width="0.691176" stroke-linecap="round"/>
<g filter="url(#filter3_i_5155_52366)">
<path d="M180.176 343.788C188.131 338.898 188.131 327.335 180.176 322.445L61 249.19L61 417.043L180.176 343.788Z" fill="url(#paint2_linear_5155_52366)"/>
</g>
<g filter="url(#filter4_i_5155_52366)">
<path d="M179.824 343.788C171.869 338.898 171.869 327.335 179.824 322.445L299 249.19L299 417.043L179.824 343.788Z" fill="url(#paint3_linear_5155_52366)"/>
<path d="M179.824 343.788C171.869 338.898 171.869 327.335 179.824 322.445L299 249.19L299 417.043L179.824 343.788Z" fill="url(#paint4_linear_5155_52366)"/>
</g>
<g filter="url(#filter5_i_5155_52366)">
<path d="M162.975 322.581C172.581 313.683 187.419 313.683 197.025 322.581L299 417.042H61L162.975 322.581Z" fill="url(#paint5_linear_5155_52366)"/>
</g>
<g filter="url(#filter6_d_5155_52366)">
<rect x="55" y="197" width="250" height="71.6912" rx="11.0294" fill="#2B3133"/>
</g>
<mask id="mask1_5155_52366" style="mask-type:alpha" maskUnits="userSpaceOnUse" x="55" y="197" width="250" height="72">
<rect x="55" y="197" width="250" height="71.6912" rx="11.0294" fill="#2B3133"/>
</mask>
<g mask="url(#mask1_5155_52366)">
<circle cx="126.691" cy="200.677" r="0.919118" fill="white"/>
<circle cx="126.691" cy="205.273" r="0.919118" fill="white"/>
<circle cx="126.691" cy="209.868" r="0.919118" fill="white"/>
<circle cx="126.691" cy="214.464" r="0.919118" fill="white"/>
<circle cx="126.691" cy="219.06" r="0.919118" fill="white"/>
<circle cx="126.691" cy="223.655" r="0.919118" fill="white"/>
<circle cx="126.691" cy="228.251" r="0.919118" fill="white"/>
<circle cx="126.691" cy="232.847" r="0.919118" fill="white"/>
<circle cx="126.691" cy="237.441" r="0.919118" fill="white"/>
<circle cx="126.691" cy="242.036" r="0.919118" fill="white"/>
<circle cx="126.691" cy="246.632" r="0.919118" fill="white"/>
<circle cx="126.691" cy="251.228" r="0.919118" fill="white"/>
<circle cx="126.691" cy="255.823" r="0.919118" fill="white"/>
<circle cx="126.691" cy="260.419" r="0.919118" fill="white"/>
<circle cx="126.691" cy="265.015" r="0.919118" fill="white"/>
</g>
<g filter="url(#filter7_d_5155_52366)">
<path d="M101.186 217.46C104.325 217.46 106.873 220.008 106.873 223.148V238.313C106.873 241.275 104.622 243.645 101.778 243.941L104.799 247.021C105.095 247.317 104.918 247.791 104.444 247.791H102.015C101.719 247.791 101.482 247.732 101.304 247.554L97.809 244H89.3376L85.8425 247.554C85.6648 247.732 85.4278 247.791 85.1316 247.791H82.7028C82.2288 247.791 82.0511 247.317 82.3473 247.021L85.3686 243.941C82.525 243.645 80.3332 241.275 80.3332 238.313V223.148C80.3332 220.008 82.8212 217.46 86.0202 217.46H101.186ZM93.6029 239.261C95.1432 239.261 96.4464 238.017 96.4464 236.417C96.4464 234.877 95.1432 233.574 93.6029 233.574C92.0034 233.574 90.7594 234.877 90.7594 236.417C90.7594 238.017 92.0034 239.261 93.6029 239.261ZM103.081 228.835V223.148C103.081 222.14 102.193 221.252 101.186 221.252H86.0202C84.9539 221.252 84.1245 222.14 84.1245 223.148V228.835C84.1245 229.901 84.9539 230.73 86.0202 230.73H101.186C102.193 230.73 103.081 229.901 103.081 228.835Z" fill="url(#paint6_linear_5155_52366)"/>
</g>
<rect x="138.64" y="206.191" width="32.3529" height="15.5147" rx="3.67647" fill="#181E28"/>
<path d="M145.648 210.265V216.949H144.437V211.443H144.398L142.835 212.442V211.332L144.496 210.265H145.648ZM149.816 217.077C149.279 217.077 148.817 216.941 148.432 216.669C148.049 216.394 147.755 215.999 147.548 215.484C147.343 214.966 147.241 214.342 147.241 213.614C147.243 212.885 147.347 212.264 147.551 211.753C147.758 211.24 148.053 210.848 148.436 210.578C148.821 210.308 149.281 210.173 149.816 210.173C150.352 210.173 150.812 210.308 151.197 210.578C151.582 210.848 151.877 211.24 152.081 211.753C152.288 212.267 152.391 212.887 152.391 213.614C152.391 214.345 152.288 214.969 152.081 215.487C151.877 216.003 151.582 216.397 151.197 216.669C150.814 216.941 150.354 217.077 149.816 217.077ZM149.816 216.055C150.234 216.055 150.564 215.849 150.805 215.438C151.049 215.025 151.171 214.416 151.171 213.614C151.171 213.083 151.115 212.637 151.004 212.275C150.893 211.914 150.737 211.642 150.534 211.459C150.332 211.274 150.093 211.182 149.816 211.182C149.401 211.182 149.072 211.389 148.831 211.802C148.589 212.213 148.467 212.817 148.465 213.614C148.463 214.147 148.516 214.595 148.625 214.958C148.736 215.322 148.893 215.596 149.095 215.781C149.297 215.964 149.538 216.055 149.816 216.055ZM154.217 216.146C154.019 216.146 153.849 216.077 153.708 215.937C153.566 215.796 153.497 215.626 153.499 215.428C153.497 215.232 153.566 215.065 153.708 214.926C153.849 214.786 154.019 214.717 154.217 214.717C154.408 214.717 154.575 214.786 154.716 214.926C154.86 215.065 154.933 215.232 154.935 215.428C154.933 215.561 154.898 215.682 154.83 215.791C154.765 215.899 154.678 215.986 154.569 216.052C154.463 216.115 154.345 216.146 154.217 216.146ZM154.217 212.833C154.019 212.833 153.849 212.764 153.708 212.625C153.566 212.483 153.497 212.313 153.499 212.115C153.497 211.92 153.566 211.752 153.708 211.613C153.849 211.471 154.019 211.401 154.217 211.401C154.408 211.401 154.575 211.471 154.716 211.613C154.86 211.752 154.933 211.92 154.935 212.115C154.933 212.246 154.898 212.366 154.83 212.474C154.765 212.583 154.678 212.67 154.569 212.736C154.463 212.801 154.345 212.833 154.217 212.833ZM158.466 217.041C158.03 217.041 157.641 216.959 157.297 216.796C156.953 216.63 156.68 216.404 156.478 216.117C156.278 215.83 156.171 215.501 156.158 215.131H157.333C157.355 215.405 157.473 215.63 157.689 215.804C157.904 215.975 158.163 216.061 158.466 216.061C158.703 216.061 158.914 216.007 159.099 215.898C159.284 215.789 159.43 215.638 159.536 215.445C159.643 215.251 159.695 215.03 159.693 214.782C159.695 214.53 159.642 214.305 159.533 214.11C159.424 213.914 159.275 213.76 159.086 213.649C158.896 213.536 158.679 213.48 158.433 213.48C158.233 213.478 158.036 213.514 157.842 213.591C157.649 213.667 157.495 213.767 157.382 213.891L156.289 213.711L156.638 210.265H160.515V211.277H157.64L157.447 213.049H157.486C157.61 212.903 157.786 212.782 158.012 212.687C158.238 212.589 158.486 212.54 158.756 212.54C159.161 212.54 159.522 212.635 159.84 212.827C160.157 213.016 160.408 213.277 160.59 213.61C160.773 213.943 160.865 214.324 160.865 214.753C160.865 215.194 160.762 215.588 160.558 215.934C160.355 216.278 160.074 216.549 159.712 216.747C159.353 216.943 158.938 217.041 158.466 217.041ZM164.334 217.041C163.849 217.041 163.418 216.959 163.042 216.796C162.667 216.633 162.374 216.41 162.16 216.127C161.949 215.842 161.845 215.519 161.847 215.157C161.845 214.877 161.906 214.619 162.03 214.384C162.154 214.149 162.321 213.953 162.532 213.796C162.746 213.637 162.983 213.536 163.244 213.493V213.447C162.9 213.371 162.622 213.196 162.408 212.922C162.197 212.645 162.093 212.326 162.095 211.965C162.093 211.621 162.189 211.315 162.382 211.045C162.576 210.775 162.841 210.563 163.179 210.408C163.516 210.252 163.901 210.173 164.334 210.173C164.763 210.173 165.145 210.252 165.48 210.408C165.817 210.563 166.083 210.775 166.276 211.045C166.472 211.315 166.57 211.621 166.57 211.965C166.57 212.326 166.462 212.645 166.247 212.922C166.034 213.196 165.758 213.371 165.421 213.447V213.493C165.682 213.536 165.917 213.637 166.126 213.796C166.337 213.953 166.505 214.149 166.629 214.384C166.755 214.619 166.818 214.877 166.818 215.157C166.818 215.519 166.711 215.842 166.498 216.127C166.285 216.41 165.991 216.633 165.617 216.796C165.245 216.959 164.817 217.041 164.334 217.041ZM164.334 216.107C164.584 216.107 164.802 216.065 164.987 215.98C165.172 215.893 165.315 215.771 165.418 215.614C165.52 215.458 165.572 215.277 165.574 215.072C165.572 214.859 165.517 214.671 165.408 214.508C165.301 214.342 165.154 214.213 164.967 214.119C164.782 214.026 164.571 213.979 164.334 213.979C164.095 213.979 163.882 214.026 163.694 214.119C163.507 214.213 163.359 214.342 163.251 214.508C163.144 214.671 163.092 214.859 163.094 215.072C163.092 215.277 163.142 215.458 163.244 215.614C163.346 215.769 163.49 215.89 163.675 215.977C163.862 216.064 164.082 216.107 164.334 216.107ZM164.334 213.062C164.539 213.062 164.719 213.021 164.876 212.938C165.035 212.855 165.16 212.74 165.251 212.592C165.343 212.444 165.389 212.273 165.392 212.079C165.389 211.888 165.344 211.72 165.255 211.577C165.165 211.431 165.041 211.319 164.882 211.241C164.724 211.16 164.541 211.12 164.334 211.12C164.123 211.12 163.937 211.16 163.776 211.241C163.617 211.319 163.493 211.431 163.404 211.577C163.317 211.72 163.274 211.888 163.277 212.079C163.274 212.273 163.318 212.444 163.407 212.592C163.499 212.738 163.624 212.853 163.783 212.938C163.944 213.021 164.127 213.062 164.334 213.062Z" fill="white"/>
<rect x="139" y="229" width="105" height="6" rx="3" fill="white"/>
<rect x="139" y="238" width="123" height="6" rx="3" fill="white"/>
<rect opacity="0.13" x="139" y="258" width="40" height="2" rx="1" fill="white"/>
<rect opacity="0.13" x="139" y="253" width="62" height="2" rx="1" fill="white"/>
<circle cx="287.077" cy="214.004" r="7.35294" stroke="white" stroke-width="0.919118"/>
<path d="M283.86 214.462L286.158 216.76L291.213 211.705" stroke="white" stroke-width="0.919118" stroke-linecap="round"/>
<g filter="url(#filter8_d_5155_52366)">
<rect x="44" y="136" width="272" height="78" rx="12" fill="#FF3C3C"/>
</g>
<mask id="mask2_5155_52366" style="mask-type:alpha" maskUnits="userSpaceOnUse" x="44" y="136" width="272" height="78">
<rect x="44" y="136" width="272" height="78" rx="12" fill="#FF3C3C"/>
</mask>
<g mask="url(#mask2_5155_52366)">
<circle cx="122" cy="140" r="1" fill="white"/>
<circle cx="122" cy="145" r="1" fill="white"/>
<circle cx="122" cy="150" r="1" fill="white"/>
<circle cx="122" cy="155" r="1" fill="white"/>
<circle cx="122" cy="160" r="1" fill="white"/>
<circle cx="122" cy="165" r="1" fill="white"/>
<circle cx="122" cy="170" r="1" fill="white"/>
<circle cx="122" cy="175" r="1" fill="white"/>
<circle cx="122" cy="180" r="1" fill="white"/>
<circle cx="122" cy="185" r="1" fill="white"/>
<circle cx="122" cy="190" r="1" fill="white"/>
<circle cx="122" cy="195" r="1" fill="white"/>
<circle cx="122" cy="200" r="1" fill="white"/>
<circle cx="122" cy="205" r="1" fill="white"/>
<circle cx="122" cy="210" r="1" fill="white"/>
</g>
<g filter="url(#filter9_d_5155_52366)">
<path d="M83.293 158.125C83.6152 158.125 84.0664 158.383 84.1953 158.705L90.9629 170.5H98.3105C100.631 170.5 104.562 172.369 104.562 174.625C104.562 176.945 100.631 178.75 98.3105 178.75H90.9629L84.1953 190.609C84.002 190.932 83.6797 191.125 83.293 191.125H79.1035C78.3945 191.125 77.8789 190.48 78.0723 189.836L81.2305 178.75H74.5918L71.8203 182.488C71.627 182.746 71.3691 182.875 70.9824 182.875H68.4043C67.7598 182.875 67.2441 182.295 67.4375 181.65L69.4355 174.625L67.4375 167.664C67.2441 167.02 67.7598 166.375 68.4043 166.375H70.9824C71.3691 166.375 71.627 166.568 71.8203 166.826L74.5918 170.5H81.2305L78.0723 159.479C77.8789 158.834 78.3945 158.125 79.1035 158.125H83.293Z" fill="url(#paint7_linear_5155_52366)"/>
</g>
<rect x="135" y="146" width="36" height="17" rx="4" fill="#181E28"/>
<path d="M142.976 150.727V158H141.659V152.009H141.616L139.915 153.096V151.888L141.723 150.727H142.976ZM144.823 158V157.048L147.348 154.573C147.589 154.329 147.791 154.113 147.952 153.923C148.113 153.734 148.233 153.55 148.314 153.373C148.394 153.195 148.435 153.006 148.435 152.805C148.435 152.575 148.382 152.379 148.278 152.215C148.174 152.049 148.031 151.922 147.849 151.832C147.666 151.742 147.459 151.697 147.227 151.697C146.988 151.697 146.779 151.746 146.599 151.846C146.419 151.943 146.279 152.081 146.18 152.261C146.083 152.441 146.034 152.656 146.034 152.904H144.78C144.78 152.442 144.886 152.041 145.097 151.7C145.307 151.359 145.597 151.095 145.967 150.908C146.338 150.721 146.764 150.628 147.245 150.628C147.733 150.628 148.161 150.719 148.53 150.901C148.9 151.084 149.186 151.333 149.39 151.651C149.596 151.968 149.699 152.33 149.699 152.737C149.699 153.009 149.647 153.277 149.543 153.54C149.438 153.803 149.255 154.094 148.992 154.413C148.732 154.733 148.366 155.12 147.895 155.575L146.641 156.849V156.899H149.809V158H144.823ZM151.84 157.126C151.625 157.126 151.44 157.051 151.286 156.899C151.132 156.745 151.056 156.561 151.059 156.345C151.056 156.132 151.132 155.95 151.286 155.798C151.44 155.647 151.625 155.571 151.84 155.571C152.048 155.571 152.23 155.647 152.383 155.798C152.54 155.95 152.619 156.132 152.621 156.345C152.619 156.49 152.581 156.621 152.508 156.739C152.437 156.858 152.342 156.952 152.224 157.023C152.108 157.092 151.98 157.126 151.84 157.126ZM151.84 153.522C151.625 153.522 151.44 153.446 151.286 153.295C151.132 153.141 151.056 152.956 151.059 152.741C151.056 152.528 151.132 152.345 151.286 152.194C151.44 152.04 151.625 151.963 151.84 151.963C152.048 151.963 152.23 152.04 152.383 152.194C152.54 152.345 152.619 152.528 152.621 152.741C152.619 152.883 152.581 153.013 152.508 153.131C152.437 153.25 152.342 153.344 152.224 153.415C152.108 153.487 151.98 153.522 151.84 153.522ZM156.623 158.138C156.038 158.138 155.536 157.991 155.117 157.695C154.7 157.396 154.379 156.967 154.155 156.406C153.932 155.842 153.821 155.164 153.821 154.371C153.823 153.578 153.936 152.903 154.158 152.347C154.383 151.788 154.704 151.362 155.12 151.068C155.54 150.775 156.04 150.628 156.623 150.628C157.205 150.628 157.706 150.775 158.125 151.068C158.544 151.362 158.865 151.788 159.087 152.347C159.312 152.905 159.424 153.58 159.424 154.371C159.424 155.166 159.312 155.846 159.087 156.409C158.865 156.97 158.544 157.399 158.125 157.695C157.708 157.991 157.207 158.138 156.623 158.138ZM156.623 157.027C157.077 157.027 157.436 156.803 157.699 156.356C157.964 155.906 158.096 155.244 158.096 154.371C158.096 153.793 158.036 153.308 157.915 152.915C157.794 152.522 157.624 152.226 157.404 152.027C157.184 151.826 156.923 151.725 156.623 151.725C156.17 151.725 155.813 151.95 155.55 152.4C155.287 152.847 155.155 153.504 155.152 154.371C155.15 154.951 155.208 155.438 155.326 155.834C155.447 156.229 155.618 156.527 155.838 156.729C156.058 156.928 156.32 157.027 156.623 157.027ZM163.293 158.138C162.708 158.138 162.206 157.991 161.787 157.695C161.37 157.396 161.049 156.967 160.824 156.406C160.602 155.842 160.491 155.164 160.491 154.371C160.493 153.578 160.605 152.903 160.828 152.347C161.053 151.788 161.374 151.362 161.79 151.068C162.209 150.775 162.71 150.628 163.293 150.628C163.875 150.628 164.376 150.775 164.795 151.068C165.214 151.362 165.534 151.788 165.757 152.347C165.982 152.905 166.094 153.58 166.094 154.371C166.094 155.166 165.982 155.846 165.757 156.409C165.534 156.97 165.214 157.399 164.795 157.695C164.378 157.991 163.877 158.138 163.293 158.138ZM163.293 157.027C163.747 157.027 164.106 156.803 164.369 156.356C164.634 155.906 164.766 155.244 164.766 154.371C164.766 153.793 164.706 153.308 164.585 152.915C164.464 152.522 164.294 152.226 164.074 152.027C163.854 151.826 163.593 151.725 163.293 151.725C162.84 151.725 162.483 151.95 162.22 152.4C161.957 152.847 161.825 153.504 161.822 154.371C161.82 154.951 161.878 155.438 161.996 155.834C162.117 156.229 162.288 156.527 162.508 156.729C162.728 156.928 162.989 157.027 163.293 157.027Z" fill="white"/>
<rect x="135" y="171" width="74" height="6" rx="3" fill="white"/>
<rect x="135" y="181" width="53" height="6" rx="3" fill="white"/>
<rect opacity="0.32" x="135" y="202" width="134" height="2" rx="1" fill="white"/>
<rect opacity="0.32" x="135" y="197" width="104" height="2" rx="1" fill="white"/>
<circle cx="296.5" cy="154.5" r="8" stroke="white"/>
<path d="M293 155L295.5 157.5L301 152" stroke="white" stroke-linecap="round"/>
</g>
<defs>
<filter id="filter0_i_5155_52366" x="61" y="148.055" width="240" height="174.412" filterUnits="userSpaceOnUse" color-interpolation-filters="sRGB">
<feFlood flood-opacity="0" result="BackgroundImageFix"/>
<feBlend mode="normal" in="SourceGraphic" in2="BackgroundImageFix" result="shape"/>
<feColorMatrix in="SourceAlpha" type="matrix" values="0 0 0 0 0 0 0 0 0 0 0 0 0 0 0 0 0 0 127 0" result="hardAlpha"/>
<feOffset dx="2"/>
<feGaussianBlur stdDeviation="2"/>
<feComposite in2="hardAlpha" operator="arithmetic" k2="-1" k3="1"/>
<feColorMatrix type="matrix" values="0 0 0 0 1 0 0 0 0 1 0 0 0 0 1 0 0 0 0.8 0"/>
<feBlend mode="normal" in2="shape" result="effect1_innerShadow_5155_52366"/>
</filter>
<filter id="filter1_d_5155_52366" x="67.952" y="231.851" width="224.096" height="90.0081" filterUnits="userSpaceOnUse" color-interpolation-filters="sRGB">
<feFlood flood-opacity="0" result="BackgroundImageFix"/>
<feColorMatrix in="SourceAlpha" type="matrix" values="0 0 0 0 0 0 0 0 0 0 0 0 0 0 0 0 0 0 127 0" result="hardAlpha"/>
<feOffset dy="3.008"/>
<feGaussianBlur stdDeviation="9.024"/>
<feComposite in2="hardAlpha" operator="out"/>
<feColorMatrix type="matrix" values="0 0 0 0 0.168627 0 0 0 0 0.192157 0 0 0 0 0.2 0 0 0 0.4 0"/>
<feBlend mode="normal" in2="BackgroundImageFix" result="effect1_dropShadow_5155_52366"/>
<feBlend mode="normal" in="SourceGraphic" in2="effect1_dropShadow_5155_52366" result="shape"/>
</filter>
<filter id="filter2_d_5155_52366" x="95.3308" y="257.404" width="39.3971" height="39.3968" filterUnits="userSpaceOnUse" color-interpolation-filters="sRGB">
<feFlood flood-opacity="0" result="BackgroundImageFix"/>
<feColorMatrix in="SourceAlpha" type="matrix" values="0 0 0 0 0 0 0 0 0 0 0 0 0 0 0 0 0 0 127 0" result="hardAlpha"/>
<feOffset dy="2.76471"/>
<feGaussianBlur stdDeviation="4.14706"/>
<feComposite in2="hardAlpha" operator="out"/>
<feColorMatrix type="matrix" values="0 0 0 0 0.19796 0 0 0 0 0.19796 0 0 0 0 0.19796 0 0 0 0.2 0"/>
<feBlend mode="normal" in2="BackgroundImageFix" result="effect1_dropShadow_5155_52366"/>
<feBlend mode="normal" in="SourceGraphic" in2="effect1_dropShadow_5155_52366" result="shape"/>
</filter>
<filter id="filter3_i_5155_52366" x="61" y="249.189" width="125.143" height="169.854" filterUnits="userSpaceOnUse" color-interpolation-filters="sRGB">
<feFlood flood-opacity="0" result="BackgroundImageFix"/>
<feBlend mode="normal" in="SourceGraphic" in2="BackgroundImageFix" result="shape"/>
<feColorMatrix in="SourceAlpha" type="matrix" values="0 0 0 0 0 0 0 0 0 0 0 0 0 0 0 0 0 0 127 0" result="hardAlpha"/>
<feOffset dy="2"/>
<feGaussianBlur stdDeviation="2"/>
<feComposite in2="hardAlpha" operator="arithmetic" k2="-1" k3="1"/>
<feColorMatrix type="matrix" values="0 0 0 0 1 0 0 0 0 1 0 0 0 0 1 0 0 0 0.8 0"/>
<feBlend mode="normal" in2="shape" result="effect1_innerShadow_5155_52366"/>
</filter>
<filter id="filter4_i_5155_52366" x="173.857" y="249.189" width="125.143" height="169.854" filterUnits="userSpaceOnUse" color-interpolation-filters="sRGB">
<feFlood flood-opacity="0" result="BackgroundImageFix"/>
<feBlend mode="normal" in="SourceGraphic" in2="BackgroundImageFix" result="shape"/>
<feColorMatrix in="SourceAlpha" type="matrix" values="0 0 0 0 0 0 0 0 0 0 0 0 0 0 0 0 0 0 127 0" result="hardAlpha"/>
<feOffset dy="2"/>
<feGaussianBlur stdDeviation="2"/>
<feComposite in2="hardAlpha" operator="arithmetic" k2="-1" k3="1"/>
<feColorMatrix type="matrix" values="0 0 0 0 1 0 0 0 0 1 0 0 0 0 1 0 0 0 0.8 0"/>
<feBlend mode="normal" in2="shape" result="effect1_innerShadow_5155_52366"/>
</filter>
<filter id="filter5_i_5155_52366" x="61" y="315.908" width="240" height="101.135" filterUnits="userSpaceOnUse" color-interpolation-filters="sRGB">
<feFlood flood-opacity="0" result="BackgroundImageFix"/>
<feBlend mode="normal" in="SourceGraphic" in2="BackgroundImageFix" result="shape"/>
<feColorMatrix in="SourceAlpha" type="matrix" values="0 0 0 0 0 0 0 0 0 0 0 0 0 0 0 0 0 0 127 0" result="hardAlpha"/>
<feOffset dx="2"/>
<feGaussianBlur stdDeviation="2"/>
<feComposite in2="hardAlpha" operator="arithmetic" k2="-1" k3="1"/>
<feColorMatrix type="matrix" values="0 0 0 0 1 0 0 0 0 1 0 0 0 0 1 0 0 0 0.8 0"/>
<feBlend mode="normal" in2="shape" result="effect1_innerShadow_5155_52366"/>
</filter>
<filter id="filter6_d_5155_52366" x="31" y="177" width="298" height="119.691" filterUnits="userSpaceOnUse" color-interpolation-filters="sRGB">
<feFlood flood-opacity="0" result="BackgroundImageFix"/>
<feColorMatrix in="SourceAlpha" type="matrix" values="0 0 0 0 0 0 0 0 0 0 0 0 0 0 0 0 0 0 127 0" result="hardAlpha"/>
<feOffset dy="4"/>
<feGaussianBlur stdDeviation="12"/>
<feComposite in2="hardAlpha" operator="out"/>
<feColorMatrix type="matrix" values="0 0 0 0 0.168627 0 0 0 0 0.192157 0 0 0 0 0.2 0 0 0 1 0"/>
<feBlend mode="normal" in2="BackgroundImageFix" result="effect1_dropShadow_5155_52366"/>
<feBlend mode="normal" in="SourceGraphic" in2="effect1_dropShadow_5155_52366" result="shape"/>
</filter>
<filter id="filter7_d_5155_52366" x="69.3037" y="210.108" width="48.5984" height="52.3889" filterUnits="userSpaceOnUse" color-interpolation-filters="sRGB">
<feFlood flood-opacity="0" result="BackgroundImageFix"/>
<feColorMatrix in="SourceAlpha" type="matrix" values="0 0 0 0 0 0 0 0 0 0 0 0 0 0 0 0 0 0 127 0" result="hardAlpha"/>
<feOffset dy="3.67647"/>
<feGaussianBlur stdDeviation="5.51471"/>
<feComposite in2="hardAlpha" operator="out"/>
<feColorMatrix type="matrix" values="0 0 0 0 0.19796 0 0 0 0 0.19796 0 0 0 0 0.19796 0 0 0 1 0"/>
<feBlend mode="normal" in2="BackgroundImageFix" result="effect1_dropShadow_5155_52366"/>
<feBlend mode="normal" in="SourceGraphic" in2="effect1_dropShadow_5155_52366" result="shape"/>
</filter>
<filter id="filter8_d_5155_52366" x="20" y="116" width="320" height="126" filterUnits="userSpaceOnUse" color-interpolation-filters="sRGB">
<feFlood flood-opacity="0" result="BackgroundImageFix"/>
<feColorMatrix in="SourceAlpha" type="matrix" values="0 0 0 0 0 0 0 0 0 0 0 0 0 0 0 0 0 0 127 0" result="hardAlpha"/>
<feOffset dy="4"/>
<feGaussianBlur stdDeviation="12"/>
<feComposite in2="hardAlpha" operator="out"/>
<feColorMatrix type="matrix" values="0 0 0 0 1 0 0 0 0 0.235294 0 0 0 0 0.235294 0 0 0 0.5 0"/>
<feBlend mode="normal" in2="BackgroundImageFix" result="effect1_dropShadow_5155_52366"/>
<feBlend mode="normal" in="SourceGraphic" in2="effect1_dropShadow_5155_52366" result="shape"/>
</filter>
<filter id="filter9_d_5155_52366" x="55.2441" y="150.125" width="61.3184" height="57" filterUnits="userSpaceOnUse" color-interpolation-filters="sRGB">
<feFlood flood-opacity="0" result="BackgroundImageFix"/>
<feColorMatrix in="SourceAlpha" type="matrix" values="0 0 0 0 0 0 0 0 0 0 0 0 0 0 0 0 0 0 127 0" result="hardAlpha"/>
<feOffset dy="4"/>
<feGaussianBlur stdDeviation="6"/>
<feComposite in2="hardAlpha" operator="out"/>
<feColorMatrix type="matrix" values="0 0 0 0 0.883413 0 0 0 0 0.127548 0 0 0 0 0.127548 0 0 0 1 0"/>
<feBlend mode="normal" in2="BackgroundImageFix" result="effect1_dropShadow_5155_52366"/>
<feBlend mode="normal" in="SourceGraphic" in2="effect1_dropShadow_5155_52366" result="shape"/>
</filter>
<linearGradient id="paint0_linear_5155_52366" x1="180" y1="147.725" x2="196.016" y2="315.3" gradientUnits="userSpaceOnUse">
<stop stop-color="#EEEFF0"/>
<stop offset="1" stop-color="#EFF1F0"/>
</linearGradient>
<linearGradient id="paint1_linear_5155_52366" x1="115.029" y1="262.788" x2="115.029" y2="284.214" gradientUnits="userSpaceOnUse">
<stop stop-color="white"/>
<stop offset="1" stop-color="#D7D7D7"/>
</linearGradient>
<linearGradient id="paint2_linear_5155_52366" x1="169.353" y1="388.232" x2="133.131" y2="244.203" gradientUnits="userSpaceOnUse">
<stop stop-color="white"/>
<stop offset="0.44695" stop-color="#E9EBEA"/>
<stop offset="1" stop-color="#EDEEF0"/>
</linearGradient>
<linearGradient id="paint3_linear_5155_52366" x1="215.461" y1="363.153" x2="237.681" y2="240.713" gradientUnits="userSpaceOnUse">
<stop stop-color="#E6E8E7"/>
<stop offset="1" stop-color="#D9DEDF"/>
</linearGradient>
<linearGradient id="paint4_linear_5155_52366" x1="190.647" y1="388.232" x2="226.869" y2="244.203" gradientUnits="userSpaceOnUse">
<stop stop-color="white"/>
<stop offset="0.44695" stop-color="#E9EBEA"/>
<stop offset="1" stop-color="#EDEEF0"/>
</linearGradient>
<linearGradient id="paint5_linear_5155_52366" x1="137.411" y1="349.598" x2="300.201" y2="401.483" gradientUnits="userSpaceOnUse">
<stop stop-color="#E6E8E7"/>
<stop offset="1" stop-color="#D9DEDF"/>
</linearGradient>
<linearGradient id="paint6_linear_5155_52366" x1="93.6029" y1="218.14" x2="93.6029" y2="246.632" gradientUnits="userSpaceOnUse">
<stop stop-color="white"/>
<stop offset="1" stop-color="#D7D7D7"/>
</linearGradient>
<linearGradient id="paint7_linear_5155_52366" x1="86" y1="159" x2="86" y2="190" gradientUnits="userSpaceOnUse">
<stop stop-color="white"/>
<stop offset="1" stop-color="#D7D7D7"/>
</linearGradient>
<clipPath id="clip0_5155_52366">
<rect width="360" height="360" rx="8" fill="white"/>
</clipPath>
</defs>
</svg>
