<svg width="360" height="360" viewBox="0 0 360 360" fill="none" xmlns="http://www.w3.org/2000/svg">
<g clip-path="url(#clip0_2571_78054)">
<rect width="360" height="360" rx="8" fill="#D4E2E8"/>
<circle cx="179.5" cy="212.5" r="154.5" fill="white" fill-opacity="0.3"/>
<circle cx="333" cy="128" r="32" fill="#8298A2"/>
<circle cx="300.5" cy="309.5" r="19.5" fill="white"/>
<circle cx="35" cy="267" r="10" fill="white"/>
<circle cx="67" cy="338" r="42" fill="#8298A2"/>
<g filter="url(#filter0_di_2571_78054)">
<path fill-rule="evenodd" clip-rule="evenodd" d="M252.957 212.499C252.957 253.023 220.106 285.874 179.582 285.874C165.796 285.874 152.898 282.072 141.879 275.46L108.783 284.869C107.259 285.303 105.86 283.875 106.324 282.36L116.322 249.699C109.894 238.791 106.207 226.076 106.207 212.499C106.207 171.975 139.058 139.124 179.582 139.124C220.106 139.124 252.957 171.975 252.957 212.499ZM148.816 222.728C154.71 222.728 159.488 217.95 159.488 212.055C159.488 206.161 154.71 201.382 148.816 201.382C142.921 201.382 138.143 206.161 138.143 212.055C138.143 217.95 142.921 222.728 148.816 222.728ZM189.728 211.628C189.728 217.287 184.95 221.874 179.055 221.874C173.161 221.874 168.382 217.287 168.382 211.628C168.382 205.97 173.161 201.382 179.055 201.382C184.95 201.382 189.728 205.97 189.728 211.628ZM209.295 222.728C215.189 222.728 219.968 217.95 219.968 212.055C219.968 206.161 215.189 201.382 209.295 201.382C203.4 201.382 198.622 206.161 198.622 212.055C198.622 217.95 203.4 222.728 209.295 222.728Z" fill="url(#paint0_linear_2571_78054)"/>
</g>
<path d="M179.5 309C232.795 309 276 265.795 276 212.5C276 159.205 232.795 116 179.5 116C126.205 116 83 159.205 83 212.5" stroke="#223548" stroke-width="8"/>
<rect x="170" y="296" width="42" height="20" rx="10" fill="#223548"/>
<path d="M297 187C297 173.745 286.255 163 273 163H268C263.582 163 260 166.582 260 171V249C260 253.418 263.582 257 268 257H273C286.255 257 297 246.255 297 233V187Z" fill="#223548"/>
<path d="M297 187C297 173.745 286.255 163 273 163H268C263.582 163 260 166.582 260 171V249C260 253.418 263.582 257 268 257H273C286.255 257 297 246.255 297 233V187Z" fill="url(#paint1_linear_2571_78054)"/>
<path d="M62 187C62 173.745 72.7452 163 86 163H91C95.4183 163 99 166.582 99 171V249C99 253.418 95.4183 257 91 257H86C72.7452 257 62 246.255 62 233V187Z" fill="#223548"/>
<path d="M62 187C62 173.745 72.7452 163 86 163H91C95.4183 163 99 166.582 99 171V249C99 253.418 95.4183 257 91 257H86C72.7452 257 62 246.255 62 233V187Z" fill="url(#paint2_linear_2571_78054)"/>
<path d="M304 195C304 191.134 300.866 188 297 188V233C300.866 233 304 229.866 304 226V195Z" fill="#223548"/>
<path d="M304 195C304 191.134 300.866 188 297 188V233C300.866 233 304 229.866 304 226V195Z" fill="url(#paint3_linear_2571_78054)" fill-opacity="0.2"/>
<path d="M55 195C55 191.134 58.134 188 62 188V233C58.134 233 55 229.866 55 226V195Z" fill="#223548"/>
<path d="M55 195C55 191.134 58.134 188 62 188V233C58.134 233 55 229.866 55 226V195Z" fill="url(#paint4_linear_2571_78054)" fill-opacity="0.2"/>
<path d="M318.741 41.8157L308.563 53.2225V41.8157H301.177V70.5576H308.563V58.4558L319.479 70.5576H329L315.581 55.5121L328.015 41.8157H318.741Z" fill="#EF2F24"/>
<path d="M288.127 52.5275H277.949V41.8157H270.562V70.5576H277.949V59.2326H288.127V70.5576H295.513V41.8157H288.127V52.5275Z" fill="#EF2F24"/>
<path d="M73.8281 57.3928C73.664 62.7486 72.9663 63.8117 69.9296 63.8117V70.5576H71.0376C78.5885 70.5576 80.3942 66.6736 80.6814 58.0469L80.9687 48.4799H88.0272V70.5576H95.4139V41.8157H74.3616L73.8281 57.3928Z" fill="#EF2F24"/>
<path d="M113.265 64.2614H108.505V56.943H113.265C115.81 56.943 117.369 58.0469 117.369 60.4591C117.369 63.0757 115.892 64.2614 113.265 64.2614ZM113.84 50.565H108.505V41.8157H101.118V70.5576H113.922C121.965 70.5576 124.838 65.3653 124.838 60.4591C124.838 54.122 120.857 50.565 113.84 50.565Z" fill="#EF2F24"/>
<path d="M148.886 64.3024V48.0303C152.99 48.6027 155.534 51.669 155.534 56.1663C155.575 60.6636 152.99 63.73 148.886 64.3024ZM141.499 64.3024C137.395 63.73 134.851 60.6636 134.851 56.1663C134.851 51.669 137.395 48.6027 141.499 48.0303V64.3024ZM148.886 41.1616V30.4907H141.499V41.1616C133.045 41.8567 127.341 47.8667 127.341 56.1663C127.341 64.5477 133.045 70.5169 141.499 71.2528V82.0872H148.886V71.2528C157.34 70.5986 163.044 64.5477 163.044 56.1663C163.044 47.785 157.34 41.8158 148.886 41.1616Z" fill="#EF2F24"/>
<path d="M183.358 59.8458C183.358 63.1575 181.018 65.0382 177.941 65.0382C175.273 65.0382 173.18 64.0569 173.18 61.195C173.18 58.374 175.478 57.9242 177.489 57.9242H183.399V59.8458H183.358ZM190.744 61.7265V52.0777C190.744 45.0455 186.23 40.5891 178.638 40.5891C170.8 40.5891 166.655 45.2909 166.286 50.197H173.755C174.001 49.134 175.15 47.2942 178.638 47.2942C181.511 47.2942 183.358 48.6025 183.358 52.0777H176.012C169.446 52.0777 165.547 55.512 165.547 61.2359C165.547 67.2051 169.815 71.2935 175.971 71.2935C180.485 71.2935 182.988 69.1675 184.055 67.573C185.04 69.4946 187.174 70.5985 190.006 70.5985H192.55V63.9752C191.237 63.9343 190.744 63.321 190.744 61.7265Z" fill="#EF2F24"/>
<path d="M222.015 63.321H214.136V52.8954H222.015C226.119 52.8954 228.417 54.7761 228.417 58.0878C228.417 61.5221 226.119 63.321 222.015 63.321ZM222.343 45.9041H214.095V37.7681H233.218V30.4497H206.339V70.5576H222.343C231.207 70.5576 236.296 66.1829 236.296 58.0878C236.296 50.4832 231.248 45.9041 222.343 45.9041Z" fill="#EF2F24"/>
<path d="M257.184 59.8458C257.184 63.1575 254.845 65.0382 251.767 65.0382C249.1 65.0382 247.007 64.0569 247.007 61.195C247.007 58.374 249.305 57.9242 251.316 57.9242H257.225V59.8458H257.184ZM264.571 61.7265V52.0777C264.571 45.0455 260.057 40.5891 252.465 40.5891C244.627 40.5891 240.482 45.2909 240.113 50.197H247.581C247.828 49.134 248.977 47.2942 252.465 47.2942C255.338 47.2942 257.184 48.6025 257.184 52.0777H249.838C243.272 52.0777 239.374 55.512 239.374 61.2359C239.374 67.2051 243.642 71.2935 249.797 71.2935C254.312 71.2935 256.815 69.1675 257.882 67.573C258.867 69.4946 261.001 70.5985 263.832 70.5985H266.377V63.9752C265.063 63.9343 264.571 63.321 264.571 61.7265Z" fill="#EF2F24"/>
<path d="M69.4782 90.9999H30V82.823H69.4782V90.9999Z" fill="#EF2F24"/>
<path d="M44.117 55.3894L49.6571 38.9946H49.8623L55.074 55.3894H44.117ZM56.9207 35.9692C55.8127 32.6166 54.4995 30 50.0674 30C45.6354 30 44.2401 32.6166 43.05 35.9692L30.8208 70.5576H38.9052L41.7368 62.3398H57.3311L59.9575 70.5576H68.5754L56.9207 35.9692Z" fill="#EF2F24"/>
<rect x="48" y="321" width="38" height="26" rx="3" stroke="white" stroke-width="2"/>
<rect x="68" y="337" width="13" height="5" rx="2.5" stroke="white" stroke-width="2"/>
<circle cx="329.5" cy="130.5" r="12.5" stroke="white" stroke-width="2"/>
<circle cx="329.5" cy="130.5" r="8.5" stroke="white" stroke-width="2"/>
<path d="M333 119.355C333.782 115.723 337.027 113 340.91 113C345.378 113 349 116.604 349 121.05C349 125.063 346.048 128.391 342.188 129" stroke="white" stroke-width="2"/>
</g>
<defs>
<filter id="filter0_di_2571_78054" x="6.20703" y="39.1243" width="346.75" height="346.75" filterUnits="userSpaceOnUse" color-interpolation-filters="sRGB">
<feFlood flood-opacity="0" result="BackgroundImageFix"/>
<feColorMatrix in="SourceAlpha" type="matrix" values="0 0 0 0 0 0 0 0 0 0 0 0 0 0 0 0 0 0 127 0" result="hardAlpha"/>
<feOffset/>
<feGaussianBlur stdDeviation="50"/>
<feComposite in2="hardAlpha" operator="out"/>
<feColorMatrix type="matrix" values="0 0 0 0 1 0 0 0 0 1 0 0 0 0 1 0 0 0 1 0"/>
<feBlend mode="normal" in2="BackgroundImageFix" result="effect1_dropShadow_2571_78054"/>
<feBlend mode="normal" in="SourceGraphic" in2="effect1_dropShadow_2571_78054" result="shape"/>
<feColorMatrix in="SourceAlpha" type="matrix" values="0 0 0 0 0 0 0 0 0 0 0 0 0 0 0 0 0 0 127 0" result="hardAlpha"/>
<feOffset/>
<feGaussianBlur stdDeviation="5.54839"/>
<feComposite in2="hardAlpha" operator="arithmetic" k2="-1" k3="1"/>
<feColorMatrix type="matrix" values="0 0 0 0 1 0 0 0 0 0.818719 0 0 0 0 0.808333 0 0 0 1 0"/>
<feBlend mode="overlay" in2="shape" result="effect2_innerShadow_2571_78054"/>
</filter>
<linearGradient id="paint0_linear_2571_78054" x1="179.582" y1="139.124" x2="179.582" y2="285.874" gradientUnits="userSpaceOnUse">
<stop stop-color="#EF2F24"/>
<stop offset="1" stop-color="#C1180F"/>
</linearGradient>
<linearGradient id="paint1_linear_2571_78054" x1="278.5" y1="163" x2="278.5" y2="257" gradientUnits="userSpaceOnUse">
<stop stop-color="#44607C"/>
<stop offset="1" stop-color="#44607C" stop-opacity="0"/>
</linearGradient>
<linearGradient id="paint2_linear_2571_78054" x1="80.5" y1="163" x2="80.5" y2="257" gradientUnits="userSpaceOnUse">
<stop stop-color="#44607C"/>
<stop offset="1" stop-color="#44607C" stop-opacity="0"/>
</linearGradient>
<linearGradient id="paint3_linear_2571_78054" x1="300.5" y1="188" x2="300.5" y2="233" gradientUnits="userSpaceOnUse">
<stop/>
<stop offset="1" stop-opacity="0"/>
</linearGradient>
<linearGradient id="paint4_linear_2571_78054" x1="58.5" y1="188" x2="58.5" y2="233" gradientUnits="userSpaceOnUse">
<stop/>
<stop offset="1" stop-opacity="0"/>
</linearGradient>
<clipPath id="clip0_2571_78054">
<rect width="360" height="360" rx="8" fill="white"/>
</clipPath>
</defs>
</svg>
