<svg width="360" height="360" viewBox="0 0 360 360" fill="none" xmlns="http://www.w3.org/2000/svg">
<g clip-path="url(#clip0_1807_21398)">
<rect width="360" height="360" rx="8" fill="#CF0A2C"/>
<path d="M336.02 293.434L335.92 294.942C335.418 300.875 331.706 306.857 325.586 306.857C320.87 306.857 317.108 305.098 313.997 301.528C310.285 297.255 306.974 292.126 303.563 282.775C313.144 250.246 342.642 146.072 342.642 146.072H286.656C286.656 146.072 281.489 170.507 276.824 192.729C276.573 192.176 276.372 191.673 276.122 191.12C271.456 181.115 264.031 170.004 255.704 162.211C241.256 148.637 224.299 142 203.831 142C175.588 142 151.658 152.458 132.745 173.172C113.933 193.735 104 220.08 104 249.391C104 282.071 113.431 308.869 132.043 329.08C151.458 350.196 174.635 360 205.035 360C222.744 360 239.65 354.721 255.302 344.364C265.436 337.677 274.667 328.376 283.396 316.36C287.058 328.225 290.77 336.37 295.185 342.453C302.308 352.257 313.044 357.888 324.532 357.888C336.522 357.888 347.458 351.755 353.027 341.85C357.993 333.052 360 322.192 360 304.293V293.434H336.02ZM242.209 314.248C233.731 326.717 222.644 333.253 210.152 333.253C195.604 333.253 184.618 326.717 176.541 313.243C168.063 299.115 163.748 277.948 163.748 250.296C163.748 224.957 168.314 204.796 177.293 190.417C185.721 176.892 196.306 170.607 210.554 170.607C223.246 170.607 233.179 175.887 241.808 187.299C251.038 199.517 258.864 219.728 264.433 245.671C257.409 280.814 250.537 302.031 242.209 314.248Z" fill="#E51633"/>
<path d="M72.4683 30H47.9923C38.0668 30 30 38.0668 30 47.9834V72.4683C30 82.385 38.0668 90.4518 47.9923 90.4518H72.4772C82.3939 90.4518 90.4607 82.385 90.4607 72.4683V47.9834C90.4518 38.0668 82.385 30 72.4683 30Z" fill="white"/>
<path d="M79.3076 67.6573L79.2899 67.9242C79.2009 68.9736 78.5428 70.032 77.4577 70.032C76.6217 70.032 75.9546 69.7207 75.4032 69.0893C74.7451 68.3333 74.1581 67.4261 73.5533 65.7718C75.252 60.0175 80.4816 41.5893 80.4816 41.5893H70.5561C70.5561 41.5893 69.64 45.9118 68.8128 49.8429C68.7684 49.745 68.7328 49.6561 68.6883 49.5583C67.8612 47.7884 66.5449 45.8228 65.0685 44.4443C62.5071 42.0429 59.5009 40.8689 55.8722 40.8689C50.865 40.8689 46.6226 42.7189 43.2696 46.3831C39.9344 50.0207 38.1734 54.6811 38.1734 59.8663C38.1734 65.6473 39.8454 70.3878 43.1451 73.9631C46.587 77.6985 50.696 79.4328 56.0857 79.4328C59.2252 79.4328 62.2225 78.499 64.9974 76.6668C66.7939 75.484 68.4304 73.8386 69.9779 71.7129C70.6272 73.8119 71.2853 75.2527 72.068 76.3289C73.3309 78.0632 75.2342 79.0593 77.2709 79.0593C79.3966 79.0593 81.3354 77.9742 82.3227 76.2221C83.2032 74.6657 83.5589 72.7446 83.5589 69.5784V67.6573H79.3076ZM62.6761 71.3394C61.173 73.5451 59.2074 74.7013 56.9929 74.7013C54.4136 74.7013 52.4659 73.5451 51.034 71.1615C49.5309 68.6623 48.766 64.918 48.766 60.0264C48.766 55.5439 49.5754 51.9774 51.1674 49.4337C52.6615 47.0413 54.5381 45.9296 57.064 45.9296C59.3142 45.9296 61.0752 46.8634 62.6049 48.8823C64.2414 51.0435 65.6288 54.6189 66.6161 59.2081C65.3709 65.425 64.1524 69.1782 62.6761 71.3394Z" fill="#D70926"/>
<path d="M120.718 42.47C120.033 39.3838 118.085 37.2226 113.807 37.2226C109.787 37.2226 107.581 39.3749 106.897 42.47L103.793 56.4512H107.11C107.866 56.4512 108.622 55.8464 108.782 55.1082L109.414 52.2621H118.21L118.841 55.1082C119.001 55.8464 119.757 56.4512 120.513 56.4512H123.831L120.718 42.47ZM110.276 48.3221L111.37 43.3682C111.548 42.5678 112.171 41.3404 113.807 41.3404C115.444 41.3404 116.066 42.5678 116.244 43.3682L117.338 48.3221H110.276Z" fill="white"/>
<path d="M132.004 41.8909H139.404V56.4502H143.984V37.6752H130.163C128.651 37.6752 127.415 38.9114 127.415 40.4234V49.9132C127.415 51.185 126.828 51.9854 125.814 52.19L124.871 52.4124L125.725 56.4413H126.597C129.736 56.4413 131.995 54.1111 131.995 50.1355V41.8909" fill="white"/>
<path d="M183.82 37.6758H182.148V35.4968H178.937C178.181 35.4968 177.559 36.1105 177.559 36.8665V37.6758H175.887C170.221 37.6758 166.681 41.5357 166.681 47.0589C166.681 52.5909 170.221 56.4508 175.887 56.4508H177.559V58.7276H180.769C181.525 58.7276 182.148 58.1051 182.148 57.358V56.4508H183.82C189.485 56.4508 193.025 52.5909 193.025 47.0589C193.025 41.5446 189.485 37.6758 183.82 37.6758ZM175.895 52.3063C172.756 52.3063 171.271 50.3229 171.271 47.0589C171.271 43.8037 172.756 41.8204 175.895 41.8204H177.567V52.3063H175.895ZM183.82 52.3063H182.148V41.8292H183.82C186.959 41.8292 188.436 43.8126 188.436 47.0678C188.436 50.3229 186.951 52.3063 183.82 52.3063Z" fill="white"/>
<path d="M158.206 42.4428H151.624V37.6846H147.044V55.0811C147.044 55.837 147.666 56.4596 148.422 56.4596H158.206C162.199 56.4596 165.214 53.4535 165.214 49.4512C165.214 45.449 162.688 42.4428 158.206 42.4428ZM158.206 52.2439H151.624V46.6585H158.206C159.326 46.6585 160.625 47.6547 160.625 49.4512C160.634 51.2389 159.326 52.2439 158.206 52.2439Z" fill="white"/>
<path d="M210.119 42.47C209.434 39.3838 207.487 37.2226 203.209 37.2226C199.189 37.2226 196.983 39.3749 196.298 42.47L193.194 56.4512H196.512C197.268 56.4512 198.024 55.8464 198.184 55.1082L198.815 52.2621H207.611L208.234 55.1082C208.394 55.8464 209.15 56.4512 209.906 56.4512H213.223L210.119 42.47ZM199.678 48.3221L200.772 43.3682C200.95 42.5678 201.572 41.3404 203.209 41.3404C204.845 41.3404 205.468 42.5678 205.646 43.3682L206.74 48.3221H199.678Z" fill="white"/>
<path d="M236.685 73.0638C237.494 72.2723 238.01 71.1872 238.01 69.6842C238.01 66.3578 235.431 64.0276 232.105 64.0276H220.898C220.142 64.0276 219.52 64.6413 219.52 65.3973V81.4241C219.52 82.1801 220.142 82.7938 220.898 82.7938H232.816C236.329 82.7938 238.659 80.2857 238.659 76.9505C238.659 75.2873 237.859 73.971 236.685 73.0638ZM232.105 67.9232C232.709 67.9232 233.545 68.608 233.545 69.7731C233.545 70.9471 232.709 71.5519 232.105 71.623H224.02V67.9232H232.105ZM232.469 78.9071H224.02V75.2073H232.469C233.083 75.2784 233.91 75.8832 233.91 77.0572C233.91 78.2223 233.083 78.9071 232.469 78.9071Z" fill="white"/>
<path d="M206.41 63.592C200.745 63.592 196.787 67.6298 196.787 73.4108C196.787 79.1919 200.745 83.2297 206.41 83.2297H207.975C213.641 83.2297 217.599 79.1919 217.599 73.4108C217.599 67.6298 213.641 63.592 207.975 63.592H206.41ZM201.732 73.4108C201.732 70.0489 203.529 67.4697 206.686 67.4697H207.709C210.866 67.4697 212.663 70.0489 212.663 73.4108C212.663 76.7816 210.866 79.3519 207.709 79.3519H206.686C203.529 79.3519 201.732 76.7816 201.732 73.4108Z" fill="white"/>
<path d="M120.869 64.0197L121.473 66.8568C121.634 67.6128 122.381 68.2354 123.145 68.2354H127.415V82.7947H131.995V68.2354H136.131C136.887 68.2354 137.634 67.6217 137.794 66.8568L138.399 64.0197H120.869Z" fill="white"/>
<path d="M275.267 64.0197V71.4816H266.346V64.0197H261.766V82.8036H266.346V75.5017H275.267V82.8036H279.847V64.0197H275.267Z" fill="white"/>
<path d="M174.214 68.8219C173.53 65.7269 171.582 63.5746 167.304 63.5746C163.284 63.5746 161.078 65.7269 160.393 68.8219L157.289 82.8031H160.607C161.363 82.8031 162.119 82.1984 162.279 81.4602L162.901 78.6141H171.697L172.329 81.4602C172.489 82.1984 173.245 82.8031 174.001 82.8031H177.318L174.214 68.8219ZM163.782 74.6741L164.876 69.7202C165.054 68.9198 165.676 67.6924 167.313 67.6924C168.949 67.6924 169.572 68.9198 169.75 69.7202L170.844 74.6652H163.782V74.6741Z" fill="white"/>
<path d="M256.634 68.8219C255.949 65.7269 254.001 63.5746 249.723 63.5746C245.703 63.5746 243.498 65.7269 242.813 68.8219L239.709 82.8031H243.026C243.782 82.8031 244.538 82.1984 244.698 81.4602L245.33 78.6141H254.126L254.757 81.4602C254.917 82.1984 255.673 82.8031 256.429 82.8031H259.756L256.634 68.8219ZM246.192 74.6741L247.286 69.7202C247.464 68.9198 248.087 67.6924 249.723 67.6924C251.36 67.6924 251.982 68.9198 252.16 69.7202L253.254 74.6652H246.192V74.6741Z" fill="white"/>
<path d="M122.301 82.7493V82.8027H113.345C107.919 82.8027 104.139 78.9427 104.139 73.4107C104.139 67.8876 107.928 64.0276 113.345 64.0276H120.139L119.472 66.9093C119.303 67.6475 118.547 68.2434 117.791 68.2434H113.345C110.445 68.2434 108.72 70.4046 108.72 73.4196C108.72 76.4346 110.445 78.5958 113.345 78.5958H119.962C120.718 78.5958 121.474 79.2006 121.643 79.9388L122.301 82.7493Z" fill="white"/>
<path d="M150.69 64.0197H140.907C140.151 64.0197 139.528 64.6422 139.528 65.3893V82.7947H144.108V78.0275H150.681C155.164 78.0275 157.689 75.0125 157.689 71.0191C157.698 67.0347 154.692 64.0197 150.69 64.0197ZM150.69 73.8207H144.117V68.2443H150.69C151.811 68.2443 153.118 69.2404 153.118 71.0369C153.118 72.8246 151.811 73.8207 150.69 73.8207Z" fill="white"/>
<path d="M318.705 78.8369H308.833V75.2349H319.568V71.6061H308.833V67.9863H318.705C319.515 67.9863 320.164 67.6306 320.386 66.6434L321 64.0197H305.622C304.866 64.0197 304.244 64.6333 304.244 65.3982V81.425C304.244 82.181 304.866 82.8036 305.622 82.8036H321L320.386 80.1799C320.164 79.1926 319.524 78.8369 318.705 78.8369Z" fill="white"/>
<path d="M282.996 82.8027V64.0276H287.576V76.4079L295.518 65.1305C295.963 64.5257 296.95 64.0276 297.706 64.0276H301.104V82.8027H296.523V70.4135L288.581 81.6909C288.137 82.3046 287.149 82.8027 286.393 82.8027H282.996Z" fill="white"/>
<path d="M191.149 73.3129L197.544 64.0276H193.337C192.43 64.0276 191.789 64.3034 191.22 65.1839L187.814 70.538H187.209L183.794 65.1839C183.233 64.3034 182.593 64.0276 181.677 64.0276H177.337L183.874 73.5174L177.479 82.8027H181.686C182.602 82.8027 183.242 82.5269 183.802 81.6465L187.218 76.2923H187.823L191.229 81.6465C191.789 82.5269 192.43 82.8027 193.346 82.8027H197.695L191.149 73.3129Z" fill="white"/>
<path d="M104.513 97.1311C104.513 94.7031 106.149 92.5063 108.969 92.5063C110.116 92.5063 110.854 92.7642 111.521 93.1911L110.925 94.0983C110.409 93.7514 109.778 93.5202 108.942 93.5202C106.861 93.5202 105.802 95.2189 105.802 97.1044C105.802 99.0166 106.825 100.786 108.969 100.786C109.938 100.786 110.632 100.466 111.139 100.031L111.681 100.893C111.219 101.329 110.214 101.809 108.942 101.809C106.087 101.809 104.513 99.5591 104.513 97.1311Z" fill="white"/>
<path d="M113.38 92.6662H118.121V93.689H114.599V96.4017H117.685V97.4156H114.599V100.626H118.21V101.649H113.38V92.6662Z" fill="white"/>
<path d="M120.238 92.6662H122.621C124.471 92.6662 125.841 93.5467 125.841 95.3077C125.841 97.1043 124.587 98.1004 122.47 98.1004H121.456V101.649H120.229V92.6662H120.238ZM122.479 97.1043C123.973 97.1043 124.596 96.4995 124.596 95.3344C124.596 94.3383 124.027 93.6624 122.515 93.6624H121.465V97.1043H122.479Z" fill="white"/>
<path d="M127.681 92.6662H130.18C131.852 92.6662 133.16 93.271 133.16 94.9075C133.16 95.9837 132.537 96.6507 131.559 96.9086V96.9353C132.653 97.1221 133.551 97.8959 133.551 99.1321C133.551 100.964 132.164 101.658 130.136 101.658H127.681V92.6662ZM130.056 96.4995C131.354 96.4995 131.915 96.0281 131.915 95.0142C131.915 94.0715 131.283 93.6535 130.082 93.6535H128.891V96.4995H130.056ZM130.109 100.662C131.594 100.662 132.279 100.199 132.279 99.1232C132.279 98.0826 131.728 97.4512 130.189 97.4512H128.891V100.662H130.109Z" fill="white"/>
<path d="M135.482 92.6662H136.611V98.6696C136.611 99.3456 136.576 99.7636 136.558 99.9237H136.585C136.736 99.6835 137.003 99.2121 137.447 98.5629L141.467 92.6662H142.686V101.649H141.565V95.2544C141.565 94.7919 141.61 94.3917 141.61 94.2316H141.583C141.432 94.4895 141.147 94.9876 140.854 95.4322L136.62 101.649H135.491V92.6662H135.482Z" fill="white"/>
<path d="M144.634 97.1311C144.634 94.7031 146.27 92.5063 149.09 92.5063C150.237 92.5063 150.975 92.7642 151.642 93.1911L151.046 94.0983C150.531 93.7514 149.899 93.5202 149.063 93.5202C146.982 93.5202 145.923 95.2189 145.923 97.1044C145.923 99.0166 146.946 100.786 149.09 100.786C150.059 100.786 150.753 100.466 151.26 100.031L151.802 100.893C151.34 101.329 150.335 101.809 149.063 101.809C146.217 101.809 144.634 99.5591 144.634 97.1311Z" fill="white"/>
<path d="M156.462 92.6662H161.549V93.689H157.689V96.2505H159.121C160.954 96.2505 162.332 97.1132 162.332 98.8653C162.332 100.662 161.078 101.64 158.961 101.64H156.462V92.6662ZM158.961 100.653C160.473 100.653 161.096 100.03 161.096 98.9098C161.096 97.9225 160.518 97.2555 159.024 97.2555H157.698V100.653H158.961Z" fill="white"/>
<path d="M163.907 101.596L164.067 100.662C164.173 100.689 164.325 100.707 164.502 100.707C165.241 100.707 165.676 100.262 166.094 99.3015L166.326 98.7857L163.613 92.6578H164.787L166.922 97.4783L169.038 92.6578H170.212L167.1 99.7373C166.477 101.143 165.739 101.667 164.511 101.667C164.245 101.676 164.031 101.65 163.907 101.596Z" fill="white"/>
<path d="M170.106 100.626H170.817C171.52 100.03 171.787 99.2121 171.964 97.2911L172.409 92.6662H177.63V100.626H178.546L178.261 103.597H177.425L177.327 101.658H171.288L171.102 103.597H170.266L170.106 100.626ZM176.402 100.626V93.689H173.53L173.165 97.4956C173.005 99.221 172.649 100.11 172.169 100.626H176.402Z" fill="white"/>
<path d="M180.04 101.596L180.2 100.662C180.307 100.689 180.458 100.707 180.636 100.707C181.374 100.707 181.81 100.262 182.228 99.3015L182.459 98.7857L179.746 92.6578H180.92L183.055 97.4783L185.172 92.6578H186.346L183.233 99.7373C182.61 101.143 181.872 101.667 180.645 101.667C180.378 101.676 180.165 101.65 180.04 101.596Z" fill="white"/>
<path d="M198.539 101.649H187.875V92.6662H189.103V100.626H192.749V92.6662H193.959V100.626H197.605V92.6662H198.832V100.626H199.766L199.464 103.588H198.628L198.539 101.649Z" fill="white"/>
<path d="M201.635 92.6662H206.375V93.689H202.853V96.4017H205.94V97.4156H202.853V100.626H206.464V101.649H201.635V92.6662Z" fill="white"/>
<path d="M208.491 92.6662H213.321V93.6801H209.719V101.649H208.491V92.6662Z" fill="white"/>
<path d="M214.06 97.1756C214.06 94.7031 215.696 92.5063 218.516 92.5063C221.317 92.5063 222.98 94.6764 222.98 97.1489C222.98 99.6036 221.344 101.818 218.542 101.818C215.723 101.809 214.06 99.6303 214.06 97.1756ZM221.682 97.1756C221.682 95.2189 220.615 93.5202 218.542 93.5202C216.461 93.5202 215.349 95.1922 215.349 97.1489C215.349 99.1055 216.443 100.804 218.516 100.804C220.588 100.804 221.682 99.1233 221.682 97.1756Z" fill="white"/>
<path d="M227.872 92.6662H230.362C232.034 92.6662 233.341 93.271 233.341 94.9075C233.341 95.9837 232.719 96.6507 231.74 96.9086V96.9353C232.834 97.1221 233.733 97.8959 233.733 99.1321C233.733 100.964 232.345 101.658 230.317 101.658H227.863V92.6662H227.872ZM230.246 96.4995C231.545 96.4995 232.105 96.0281 232.105 95.0142C232.105 94.0715 231.474 93.6535 230.273 93.6535H229.09V96.4995H230.246ZM230.3 100.662C231.785 100.662 232.47 100.199 232.47 99.1232C232.47 98.0826 231.918 97.4512 230.38 97.4512H229.081V100.662H230.3Z" fill="white"/>
<path d="M238.623 92.6664H239.85V96.4196H244.715V92.6664H245.943V101.649H244.715V97.4424H239.85V101.649H238.623V92.6664Z" fill="white"/>
<path d="M250.907 92.6662H252.081L255.55 101.649H254.225L253.442 99.5323H249.449L248.675 101.649H247.456L250.907 92.6662ZM253.068 98.5184L252.001 95.619C251.717 94.863 251.592 94.445 251.459 94.0626H251.432C251.307 94.4717 251.165 94.9253 250.907 95.619L249.831 98.5184H253.068Z" fill="white"/>
<path d="M256.154 97.1309C256.154 94.7029 257.782 92.5061 260.61 92.5061C261.757 92.5061 262.496 92.764 263.163 93.1909L262.567 94.0981C262.051 93.7512 261.42 93.52 260.583 93.52C258.511 93.52 257.435 95.2187 257.435 97.1042C257.435 99.0164 258.458 100.786 260.61 100.786C261.58 100.786 262.264 100.466 262.78 100.03L263.323 100.893C262.86 101.329 261.855 101.809 260.583 101.809C257.729 101.809 256.154 99.5589 256.154 97.1309Z" fill="white"/>
<path d="M266.667 93.689H264.123V92.6662H270.429V93.689H267.894V101.649H266.667V93.689Z" fill="white"/>
<path d="M271.167 97.1756C271.167 94.7031 272.803 92.5063 275.623 92.5063C278.424 92.5063 280.088 94.6764 280.088 97.1489C280.088 99.6036 278.46 101.818 275.65 101.818C272.821 101.809 271.167 99.6303 271.167 97.1756ZM278.789 97.1756C278.789 95.2189 277.722 93.5202 275.65 93.5202C273.577 93.5202 272.448 95.1922 272.448 97.1489C272.448 99.1055 273.542 100.804 275.623 100.804C277.695 100.804 278.789 99.1233 278.789 97.1756Z" fill="white"/>
<path d="M281.19 100.635H281.324C281.929 100.635 282.293 99.9326 283.076 98.803C283.467 98.2249 283.885 97.6557 284.179 97.4689V97.4423C282.8 97.3444 281.733 96.5884 281.733 95.121C281.733 93.5734 282.863 92.6662 284.784 92.6662H287.336V101.649H286.127V97.5846H285.762C285.184 97.6024 284.819 98.3405 284.037 99.4879C282.969 101.062 282.542 101.649 281.689 101.649H281.217L281.19 100.635ZM286.127 96.6329V93.6624H284.908C283.601 93.6624 282.978 94.1515 282.978 95.1032C282.978 96.0637 283.556 96.624 284.828 96.624H286.127V96.6329Z" fill="white"/>
<path d="M300.517 101.649H289.862V92.6662H291.089V100.626H294.727V92.6662H295.945V100.626H299.583V92.6662H300.819V100.626H301.744L301.45 103.588H300.614L300.517 101.649Z" fill="white"/>
<path d="M303.621 92.6662H308.352V93.689H304.83V96.4017H307.926V97.4156H304.83V100.626H308.45V101.649H303.621V92.6662Z" fill="white"/>
<path d="M311.145 92.6662H312.292L314.436 98.6696C314.694 99.3989 314.845 99.8436 314.987 100.297H315.014C315.138 99.8703 315.299 99.3811 315.556 98.6696L317.718 92.6662H318.874L320.092 101.649H318.865L318.127 96.0103C318.047 95.3611 318.002 94.9964 317.976 94.7385H317.949C317.869 95.032 317.762 95.4145 317.558 95.9926L315.548 101.649H314.365L312.319 95.9926C312.114 95.4145 311.999 95.032 311.901 94.7385H311.874C311.848 95.0498 311.803 95.4234 311.741 96.037L311.056 101.649H309.927L311.145 92.6662Z" fill="white"/>
<g filter="url(#filter0_d_1807_21398)">
<path d="M30 140C30 133.373 35.3726 128 42 128H318C324.627 128 330 133.373 330 140V315C330 321.627 324.627 327 318 327H42C35.3726 327 30 321.627 30 315V140Z" fill="#F0F2F5"/>
</g>
<path d="M30 140C30 133.373 35.3726 128 42 128H318C324.627 128 330 133.373 330 140V157H30V140Z" fill="white"/>
<rect x="103" y="136" width="37" height="14" rx="4" fill="#E1E6EE"/>
<rect x="283" y="140" width="37" height="6" rx="3" fill="#E1E6EE"/>
<rect x="239" y="140" width="37" height="6" rx="3" fill="#E1E6EE"/>
<rect x="226" y="140" width="6" height="6" rx="3" fill="#E1E6EE"/>
<rect x="213" y="140" width="6" height="6" rx="3" fill="#E1E6EE"/>
<path d="M30 160H61V326H42C35.3726 326 30 320.627 30 314V160Z" fill="white"/>
<rect x="30" y="160" width="31" height="24" fill="#AF0522"/>
<g filter="url(#filter1_d_1807_21398)">
<rect x="30" y="184" width="31" height="24" fill="white"/>
</g>
<g filter="url(#filter2_d_1807_21398)">
<rect x="30" y="209" width="31" height="24" fill="white"/>
</g>
<g filter="url(#filter3_d_1807_21398)">
<rect x="30" y="234" width="31" height="24" fill="white"/>
</g>
<g filter="url(#filter4_d_1807_21398)">
<rect x="30" y="259" width="31" height="24" fill="white"/>
</g>
<g filter="url(#filter5_d_1807_21398)">
<rect x="30" y="284" width="31" height="24" fill="white"/>
</g>
<path d="M251 161H330V315C330 321.627 324.627 327 318 327H251V161Z" fill="white"/>
<rect x="65" y="294" width="182" height="33" fill="white"/>
<rect x="40" y="136" width="55" height="14" rx="7" fill="#CF0A2C"/>
<circle cx="45" cy="172" r="4" fill="white"/>
<circle cx="45" cy="196" r="4" fill="#475467"/>
<circle cx="45" cy="221" r="4" fill="#475467"/>
<circle cx="45" cy="246" r="4" fill="#475467"/>
<circle cx="45" cy="271" r="4" fill="#475467"/>
<circle cx="45" cy="296" r="4" fill="#475467"/>
<path d="M67.6896 217L79.1827 215.886L72.4711 206.49L67.6896 217ZM116.108 181.186L115.292 181.77L116.454 183.397L117.271 182.814L116.108 181.186ZM113.658 182.936L112.025 184.103L113.187 185.73L114.821 184.564L113.658 182.936ZM110.392 185.27L108.758 186.436L109.921 188.064L111.554 186.897L110.392 185.27ZM107.125 187.603L105.492 188.77L106.654 190.397L108.287 189.23L107.125 187.603ZM103.858 189.936L102.225 191.103L103.387 192.73L105.021 191.564L103.858 189.936ZM100.592 192.27L98.9584 193.436L100.121 195.064L101.754 193.897L100.592 192.27ZM97.325 194.603L95.6917 195.77L96.8542 197.397L98.4875 196.23L97.325 194.603ZM94.0584 196.936L92.425 198.103L93.5875 199.73L95.2208 198.564L94.0584 196.936ZM90.7917 199.27L89.1583 200.436L90.3208 202.064L91.9542 200.897L90.7917 199.27ZM87.525 201.603L85.8917 202.77L87.0542 204.397L88.6875 203.23L87.525 201.603ZM84.2583 203.936L82.625 205.103L83.7875 206.73L85.4208 205.564L84.2583 203.936ZM80.9917 206.27L79.3583 207.436L80.5208 209.064L82.1542 207.897L80.9917 206.27ZM77.725 208.603L76.0917 209.77L77.2542 211.397L78.8875 210.23L77.725 208.603ZM74.4583 210.936L72.825 212.103L73.9875 213.73L75.6208 212.564L74.4583 210.936ZM71.1917 213.27L69.5583 214.436L70.7208 216.064L72.3542 214.897L71.1917 213.27Z" fill="#D00B2D"/>
<rect x="75" y="305" width="93" height="11" rx="5.5" fill="#E1E6EE"/>
<rect x="262" y="171" width="58" height="13" rx="6.5" fill="#E1E6EE"/>
<rect x="262" y="232" width="58" height="13" rx="6.5" fill="#E1E6EE"/>
<rect x="262" y="191" width="48" height="5" rx="2.5" fill="#E1E6EE"/>
<rect x="262" y="251" width="48" height="5" rx="2.5" fill="#E1E6EE"/>
<rect x="262" y="202" width="58" height="5" rx="2.5" fill="#E1E6EE"/>
<rect x="262" y="262" width="58" height="5" rx="2.5" fill="#E1E6EE"/>
<rect x="262" y="213" width="42" height="5" rx="2.5" fill="#E1E6EE"/>
<rect x="262" y="273" width="42" height="5" rx="2.5" fill="#E1E6EE"/>
<path d="M67.6896 274L72.3301 284.574L79.1668 275.268L67.6896 274ZM117.282 309.194L116.465 308.594L115.281 310.206L116.098 310.806L117.282 309.194ZM114.832 307.394L113.198 306.194L112.014 307.806L113.648 309.006L114.832 307.394ZM111.565 304.994L109.932 303.794L108.748 305.406L110.381 306.606L111.565 304.994ZM108.298 302.594L106.665 301.394L105.481 303.006L107.114 304.206L108.298 302.594ZM105.032 300.194L103.398 298.994L102.214 300.606L103.848 301.806L105.032 300.194ZM101.765 297.794L100.132 296.594L98.9475 298.206L100.581 299.406L101.765 297.794ZM98.4983 295.394L96.865 294.194L95.6809 295.806L97.3142 297.006L98.4983 295.394ZM95.2317 292.994L93.5983 291.794L92.4142 293.406L94.0475 294.606L95.2317 292.994ZM91.965 290.594L90.3317 289.394L89.1475 291.006L90.7809 292.206L91.965 290.594ZM88.6983 288.194L87.065 286.994L85.8809 288.606L87.5142 289.806L88.6983 288.194ZM85.4317 285.794L83.7983 284.594L82.6142 286.206L84.2475 287.406L85.4317 285.794ZM82.165 283.394L80.5317 282.194L79.3475 283.806L80.9809 285.006L82.165 283.394ZM78.8983 280.994L77.265 279.794L76.0809 281.406L77.7142 282.606L78.8983 280.994ZM75.6317 278.594L73.9984 277.394L72.8142 279.006L74.4475 280.206L75.6317 278.594ZM72.365 276.194L70.7317 274.994L69.5475 276.606L71.1809 277.806L72.365 276.194Z" fill="#D00B2D"/>
<g filter="url(#filter6_d_1807_21398)">
<rect x="114" y="181" width="182" height="130" fill="white"/>
</g>
<rect x="126" y="193" width="93" height="11" rx="5.5" fill="#344154"/>
<path d="M126 219C126 216.791 127.791 215 130 215H163V229H130C127.791 229 126 227.209 126 225V219Z" fill="#646D80"/>
<rect x="126" y="291" width="9" height="9" rx="2" fill="#475467"/>
<rect x="167.181" y="291.181" width="8.63889" height="8.63889" rx="0.902778" fill="white" stroke="#98A3B3" stroke-width="0.361111"/>
<rect x="126" y="234" width="37" height="14" rx="4" fill="#E1E6EE"/>
<rect x="126" y="253" width="158" height="14" rx="4" fill="#E1E6EE"/>
<path d="M126 276C126 273.791 127.791 272 130 272H204V286H130C127.791 286 126 284.209 126 282V276Z" fill="#E1E6EE"/>
<path d="M205 272H279C281.209 272 283 273.791 283 276V282C283 284.209 281.209 286 279 286H205V272Z" fill="#646D80"/>
<rect x="164" y="234" width="40" height="14" rx="4" fill="#E1E6EE"/>
<rect x="205" y="234" width="79" height="14" rx="4" fill="#E1E6EE"/>
<rect x="164" y="215" width="40" height="14" fill="#E1E6EE"/>
<path d="M205 215H238C240.209 215 242 216.791 242 219V225C242 227.209 240.209 229 238 229H205V215Z" fill="#E1E6EE"/>
<rect x="236" y="195" width="37" height="6" rx="3" fill="#E1E6EE"/>
<rect x="278" y="195" width="6" height="6" rx="3" fill="#E1E6EE"/>
<rect x="140" y="295" width="18" height="2" rx="1" fill="#E1E6EE"/>
<rect x="181" y="295" width="38" height="2" rx="1" fill="#E1E6EE"/>
<circle cx="264" cy="288" r="47" fill="#344154"/>
<circle cx="264" cy="288" r="37" stroke="white" stroke-width="2" stroke-dasharray="4 4" style="mix-blend-mode:soft-light"/>
<path d="M250 288L259.5 297.5L277 279" stroke="white" stroke-width="6" stroke-linecap="round" stroke-linejoin="round"/>
</g>
<defs>
<filter id="filter0_d_1807_21398" x="0" y="108" width="360" height="259" filterUnits="userSpaceOnUse" color-interpolation-filters="sRGB">
<feFlood flood-opacity="0" result="BackgroundImageFix"/>
<feColorMatrix in="SourceAlpha" type="matrix" values="0 0 0 0 0 0 0 0 0 0 0 0 0 0 0 0 0 0 127 0" result="hardAlpha"/>
<feOffset dy="10"/>
<feGaussianBlur stdDeviation="15"/>
<feComposite in2="hardAlpha" operator="out"/>
<feColorMatrix type="matrix" values="0 0 0 0 0.898039 0 0 0 0 0.0901961 0 0 0 0 0.203922 0 0 0 1 0"/>
<feBlend mode="normal" in2="BackgroundImageFix" result="effect1_dropShadow_1807_21398"/>
<feBlend mode="normal" in="SourceGraphic" in2="effect1_dropShadow_1807_21398" result="shape"/>
</filter>
<filter id="filter1_d_1807_21398" x="30" y="184" width="31" height="25" filterUnits="userSpaceOnUse" color-interpolation-filters="sRGB">
<feFlood flood-opacity="0" result="BackgroundImageFix"/>
<feColorMatrix in="SourceAlpha" type="matrix" values="0 0 0 0 0 0 0 0 0 0 0 0 0 0 0 0 0 0 127 0" result="hardAlpha"/>
<feOffset dy="1"/>
<feComposite in2="hardAlpha" operator="out"/>
<feColorMatrix type="matrix" values="0 0 0 0 0.941176 0 0 0 0 0.94902 0 0 0 0 0.960784 0 0 0 1 0"/>
<feBlend mode="normal" in2="BackgroundImageFix" result="effect1_dropShadow_1807_21398"/>
<feBlend mode="normal" in="SourceGraphic" in2="effect1_dropShadow_1807_21398" result="shape"/>
</filter>
<filter id="filter2_d_1807_21398" x="30" y="209" width="31" height="25" filterUnits="userSpaceOnUse" color-interpolation-filters="sRGB">
<feFlood flood-opacity="0" result="BackgroundImageFix"/>
<feColorMatrix in="SourceAlpha" type="matrix" values="0 0 0 0 0 0 0 0 0 0 0 0 0 0 0 0 0 0 127 0" result="hardAlpha"/>
<feOffset dy="1"/>
<feComposite in2="hardAlpha" operator="out"/>
<feColorMatrix type="matrix" values="0 0 0 0 0.941176 0 0 0 0 0.94902 0 0 0 0 0.960784 0 0 0 1 0"/>
<feBlend mode="normal" in2="BackgroundImageFix" result="effect1_dropShadow_1807_21398"/>
<feBlend mode="normal" in="SourceGraphic" in2="effect1_dropShadow_1807_21398" result="shape"/>
</filter>
<filter id="filter3_d_1807_21398" x="30" y="234" width="31" height="25" filterUnits="userSpaceOnUse" color-interpolation-filters="sRGB">
<feFlood flood-opacity="0" result="BackgroundImageFix"/>
<feColorMatrix in="SourceAlpha" type="matrix" values="0 0 0 0 0 0 0 0 0 0 0 0 0 0 0 0 0 0 127 0" result="hardAlpha"/>
<feOffset dy="1"/>
<feComposite in2="hardAlpha" operator="out"/>
<feColorMatrix type="matrix" values="0 0 0 0 0.941176 0 0 0 0 0.94902 0 0 0 0 0.960784 0 0 0 1 0"/>
<feBlend mode="normal" in2="BackgroundImageFix" result="effect1_dropShadow_1807_21398"/>
<feBlend mode="normal" in="SourceGraphic" in2="effect1_dropShadow_1807_21398" result="shape"/>
</filter>
<filter id="filter4_d_1807_21398" x="30" y="259" width="31" height="25" filterUnits="userSpaceOnUse" color-interpolation-filters="sRGB">
<feFlood flood-opacity="0" result="BackgroundImageFix"/>
<feColorMatrix in="SourceAlpha" type="matrix" values="0 0 0 0 0 0 0 0 0 0 0 0 0 0 0 0 0 0 127 0" result="hardAlpha"/>
<feOffset dy="1"/>
<feComposite in2="hardAlpha" operator="out"/>
<feColorMatrix type="matrix" values="0 0 0 0 0.941176 0 0 0 0 0.94902 0 0 0 0 0.960784 0 0 0 1 0"/>
<feBlend mode="normal" in2="BackgroundImageFix" result="effect1_dropShadow_1807_21398"/>
<feBlend mode="normal" in="SourceGraphic" in2="effect1_dropShadow_1807_21398" result="shape"/>
</filter>
<filter id="filter5_d_1807_21398" x="30" y="284" width="31" height="25" filterUnits="userSpaceOnUse" color-interpolation-filters="sRGB">
<feFlood flood-opacity="0" result="BackgroundImageFix"/>
<feColorMatrix in="SourceAlpha" type="matrix" values="0 0 0 0 0 0 0 0 0 0 0 0 0 0 0 0 0 0 127 0" result="hardAlpha"/>
<feOffset dy="1"/>
<feComposite in2="hardAlpha" operator="out"/>
<feColorMatrix type="matrix" values="0 0 0 0 0.941176 0 0 0 0 0.94902 0 0 0 0 0.960784 0 0 0 1 0"/>
<feBlend mode="normal" in2="BackgroundImageFix" result="effect1_dropShadow_1807_21398"/>
<feBlend mode="normal" in="SourceGraphic" in2="effect1_dropShadow_1807_21398" result="shape"/>
</filter>
<filter id="filter6_d_1807_21398" x="101.3" y="168.3" width="207.4" height="155.4" filterUnits="userSpaceOnUse" color-interpolation-filters="sRGB">
<feFlood flood-opacity="0" result="BackgroundImageFix"/>
<feColorMatrix in="SourceAlpha" type="matrix" values="0 0 0 0 0 0 0 0 0 0 0 0 0 0 0 0 0 0 127 0" result="hardAlpha"/>
<feOffset/>
<feGaussianBlur stdDeviation="6.35"/>
<feComposite in2="hardAlpha" operator="out"/>
<feColorMatrix type="matrix" values="0 0 0 0 0.882353 0 0 0 0 0.901961 0 0 0 0 0.933333 0 0 0 1 0"/>
<feBlend mode="multiply" in2="BackgroundImageFix" result="effect1_dropShadow_1807_21398"/>
<feBlend mode="normal" in="SourceGraphic" in2="effect1_dropShadow_1807_21398" result="shape"/>
</filter>
<clipPath id="clip0_1807_21398">
<rect width="360" height="360" rx="8" fill="white"/>
</clipPath>
</defs>
</svg>
