<svg width="360" height="360" viewBox="0 0 360 360" fill="none" xmlns="http://www.w3.org/2000/svg">
<g clip-path="url(#clip0_5047_51366)">
<rect width="360" height="360" rx="8" fill="#F0F0F2"/>
<g filter="url(#filter0_d_5047_51366)">
<rect x="118" y="116" width="89.3235" height="57.8476" rx="6.8056" fill="white"/>
</g>
<circle cx="138.418" cy="136.418" r="11.9098" fill="#CE253D"/>
<path opacity="0.3" d="M138.418 136.796C139.89 136.796 141.229 137.222 142.214 137.822C142.705 138.123 143.126 138.476 143.43 138.86C143.728 139.239 143.948 139.691 143.948 140.175C143.948 140.694 143.696 141.103 143.332 141.395C142.988 141.671 142.534 141.855 142.052 141.982C141.082 142.239 139.787 142.325 138.418 142.325C137.049 142.325 135.755 142.239 134.785 141.982C134.303 141.855 133.849 141.671 133.505 141.395C133.141 141.102 132.889 140.694 132.889 140.175C132.889 139.691 133.109 139.239 133.407 138.86C133.711 138.476 134.131 138.123 134.623 137.822C135.608 137.222 136.947 136.796 138.418 136.796ZM138.419 130.037C140.784 130.037 142.262 132.598 141.079 134.646C140.809 135.112 140.421 135.5 139.954 135.77C139.487 136.039 138.958 136.181 138.419 136.181C136.054 136.181 134.575 133.621 135.758 131.573C136.027 131.106 136.416 130.718 136.883 130.448C137.35 130.179 137.88 130.037 138.419 130.037Z" fill="#530B15"/>
<rect x="155.432" y="128.334" width="15.5576" height="3.4028" rx="1.7014" fill="#2F4154"/>
<rect x="155.432" y="134.289" width="29.7745" height="3.4028" rx="1.7014" fill="#2F4154"/>
<rect x="155.432" y="141.945" width="39.1182" height="2.5521" rx="1.27605" fill="#B8C7D8"/>
<rect x="126.508" y="155.133" width="39.9829" height="1.7014" rx="0.8507" fill="#E4EBF3"/>
<rect x="126.508" y="159.387" width="31.0506" height="1.7014" rx="0.8507" fill="#E4EBF3"/>
<rect x="126.508" y="163.641" width="61.6758" height="1.7014" rx="0.8507" fill="#E4EBF3"/>
<path d="M72.8445 30H48.1465C38.1399 30 30 38.1399 30 48.1465V72.8535C30 82.8601 38.1399 91 48.1465 91H72.8445C82.8511 91 90.9911 82.8601 90.9911 72.8535V48.1465C90.9911 38.1399 82.8511 30 72.8445 30Z" fill="#CE253D"/>
<path d="M62.964 71.7136C61.4473 73.9393 59.4639 75.106 57.2292 75.106C54.6266 75.106 52.6612 73.9393 51.2073 71.5341C49.6906 69.0123 48.9188 65.234 48.9188 60.298C48.9188 55.7748 49.7355 52.176 51.3419 49.6093C52.8496 47.1951 54.7433 46.0733 57.292 46.0733C59.5626 46.0733 61.3396 47.0157 62.8832 49.0529C64.5345 51.2337 65.9345 54.8415 66.9307 59.4723C65.6833 65.7456 64.4537 69.5328 62.964 71.7136ZM79.7464 67.9982L79.7284 68.2674C79.6387 69.3264 78.9746 70.3944 77.8797 70.3944C77.0361 70.3944 76.363 70.0803 75.8065 69.4431C75.1424 68.6802 74.5411 67.7648 73.9398 66.0955C75.654 60.289 80.931 41.6938 80.931 41.6938H70.9154C70.9154 41.6938 69.991 46.0554 69.1564 50.0221C69.1115 49.9234 69.0756 49.8337 69.0308 49.735C68.1961 47.949 66.8679 45.9656 65.3871 44.5746C62.8114 42.1515 59.778 40.9668 56.1074 40.9668C51.0547 40.9668 46.7739 42.8335 43.3905 46.531C40.025 50.2016 38.248 54.9043 38.248 60.1365C38.248 65.9609 39.9353 70.7534 43.2648 74.3611C46.738 78.1304 50.8842 79.8805 56.3228 79.8805C59.4908 79.8805 62.5152 78.9381 65.3153 77.0894C67.1282 75.8958 68.7795 74.2355 70.3411 72.0906C70.9962 74.2175 71.6603 75.6624 72.4501 76.7484C73.7244 78.4984 75.645 79.5035 77.7002 79.5035C79.8451 79.5035 81.8015 78.4086 82.7977 76.6406C83.6862 75.0701 84.0452 73.1316 84.0452 69.9367V67.9982H79.7464Z" fill="white"/>
<path d="M110.996 48.4873L112.099 43.4885C112.279 42.6808 112.907 41.4423 114.558 41.4423C116.21 41.4423 116.838 42.6808 117.017 43.4885L118.121 48.4873H110.996ZM121.532 42.5821C120.841 39.4679 118.875 37.2871 114.558 37.2871C110.502 37.2871 108.276 39.4679 107.585 42.5821L104.453 56.6901H107.801C108.563 56.6901 109.326 56.0798 109.488 55.3349L110.125 52.4631H119.001L119.638 55.3349C119.8 56.0798 120.562 56.6901 121.325 56.6901H124.673L121.532 42.5821Z" fill="#CE253D"/>
<path d="M132.91 41.9981H140.377V56.6894H144.999V37.7441H131.053C129.527 37.7441 128.28 38.9916 128.28 40.5173V50.0931C128.28 51.3765 127.687 52.1932 126.664 52.3906L125.713 52.615L126.574 56.6894H127.454C130.622 56.6894 132.902 54.3381 132.902 50.3265V41.9981H132.91Z" fill="#CE253D"/>
<path d="M185.206 52.5088H183.519V41.9368H185.206C188.374 41.9368 189.864 43.9381 189.864 47.2227C189.864 50.5074 188.365 52.5088 185.206 52.5088ZM177.21 52.5088C174.042 52.5088 172.543 50.5074 172.543 47.2227C172.543 43.9381 174.042 41.9368 177.21 41.9368H178.897V52.5088H177.21ZM185.206 37.7456H183.519V35.5469H180.279C179.516 35.5469 178.888 36.1661 178.888 36.9289V37.7456H177.201C171.484 37.7456 167.912 41.6406 167.912 47.2227C167.912 52.7959 171.484 56.6999 177.201 56.6999H178.888V58.9974H182.128C182.891 58.9974 183.519 58.3692 183.519 57.6153V56.6999H185.206C190.923 56.6999 194.495 52.8049 194.495 47.2227C194.495 41.6406 190.914 37.7456 185.206 37.7456Z" fill="#CE253D"/>
<path d="M159.36 52.4452H152.719V46.8092H159.36C160.491 46.8092 161.801 47.8234 161.801 49.6272C161.81 51.4311 160.491 52.4452 159.36 52.4452ZM159.36 42.5553H152.719V37.7539H148.088V55.3081C148.088 56.071 148.716 56.6902 149.479 56.6902H159.351C163.381 56.6902 166.414 53.6478 166.414 49.6183C166.432 45.5887 163.883 42.5553 159.36 42.5553Z" fill="#CE253D"/>
<path d="M201.208 48.4873L202.312 43.4885C202.492 42.6808 203.12 41.4423 204.771 41.4423C206.423 41.4423 207.051 42.6808 207.23 43.4885L208.334 48.4873H201.208ZM211.745 42.5821C211.054 39.4679 209.088 37.2871 204.771 37.2871C200.715 37.2871 198.489 39.4679 197.798 42.5821L194.666 56.6901H198.014C198.776 56.6901 199.539 56.0798 199.701 55.3349L200.338 52.4631H209.214L209.851 55.3349C210.013 56.0798 210.775 56.6901 211.538 56.6901H214.868L211.745 42.5821Z" fill="#CE253D"/>
<path d="M234.297 79.3515H225.772V75.6181H234.297C234.917 75.6899 235.751 76.3002 235.751 77.4848C235.751 78.6515 234.908 79.3515 234.297 79.3515ZM233.929 68.259C234.54 68.259 235.383 68.95 235.383 70.1257C235.383 71.3103 234.54 71.9206 233.929 71.9924H225.772V68.259H233.929ZM238.551 73.4462C239.368 72.6475 239.889 71.5526 239.889 70.0359C239.889 66.6794 237.286 64.3281 233.929 64.3281H222.622C221.859 64.3281 221.23 64.9473 221.23 65.7102V81.8823C221.23 82.6452 221.859 83.2734 222.622 83.2734H234.638C238.183 83.2734 240.535 80.7426 240.535 77.3861C240.535 75.6989 239.736 74.3706 238.551 73.4462Z" fill="#CE253D"/>
<path d="M203.281 73.8044C203.281 70.403 205.094 67.8094 208.28 67.8094H209.312C212.498 67.8094 214.302 70.403 214.302 73.8044C214.302 77.2058 212.489 79.7994 209.312 79.7994H208.28C205.094 79.7994 203.281 77.2058 203.281 73.8044ZM208.001 63.8965C202.285 63.8965 198.291 67.9709 198.291 73.8044C198.291 79.6379 202.285 83.7123 208.001 83.7123H209.581C215.298 83.7123 219.291 79.6379 219.291 73.8044C219.291 67.9709 215.298 63.8965 209.581 63.8965H208.001Z" fill="#CE253D"/>
<path d="M121.684 64.3281L122.294 67.191C122.455 67.9538 123.209 68.5731 123.981 68.5731H128.298V83.2644H132.92V68.5731H137.093C137.856 68.5731 138.61 67.9538 138.771 67.191L139.381 64.3281H121.684Z" fill="#CE253D"/>
<path d="M277.483 64.3281V71.8578H268.481V64.3281H263.859V83.2734H268.481V75.9142H277.483V83.2734H282.105V64.3281H277.483Z" fill="#CE253D"/>
<path d="M164.986 75.0701L166.09 70.0713C166.269 69.2636 166.897 68.0341 168.549 68.0341C170.2 68.0341 170.828 69.2726 171.008 70.0803L172.112 75.0701H164.986ZM175.513 69.1739C174.822 66.0507 172.856 63.8789 168.54 63.8789C164.483 63.8789 162.267 66.0507 161.575 69.1739L158.443 83.2819H161.791C162.554 83.2819 163.317 82.6716 163.478 81.9267L164.106 79.0548H172.973L173.61 81.9267C173.772 82.6716 174.535 83.2819 175.298 83.2819H178.645L175.513 69.1739Z" fill="#CE253D"/>
<path d="M248.144 75.0701L249.248 70.0713C249.427 69.2636 250.056 68.0341 251.707 68.0341C253.358 68.0341 253.986 69.2726 254.166 70.0803L255.27 75.0701H248.144ZM258.68 69.1739C257.989 66.0507 256.024 63.8789 251.707 63.8789C247.65 63.8789 245.425 66.0507 244.734 69.1739L241.602 83.2819H244.949C245.712 83.2819 246.475 82.6716 246.636 81.9267L247.273 79.0548H256.149L256.786 81.9267C256.948 82.6716 257.711 83.2819 258.474 83.2819H261.83L258.68 69.1739Z" fill="#CE253D"/>
<path d="M123.119 83.2274V83.2812H114.082C108.607 83.2812 104.793 79.3863 104.793 73.8041C104.793 68.2309 108.616 64.3359 114.082 64.3359H120.938L120.265 67.2347C120.095 67.9796 119.332 68.5809 118.569 68.5809H114.082C111.156 68.5809 109.415 70.7617 109.415 73.8041C109.415 76.8375 111.156 79.0273 114.082 79.0273H120.759C121.522 79.0273 122.284 79.6376 122.455 80.3824L123.119 83.2274Z" fill="#CE253D"/>
<path d="M151.775 74.2181H145.143V68.591H151.775C152.906 68.591 154.225 69.5962 154.225 71.409C154.225 73.2129 152.906 74.2181 151.775 74.2181ZM151.775 64.3281H141.903C141.14 64.3281 140.512 64.9563 140.512 65.7192V83.2824H145.134V78.481H151.766C156.289 78.481 158.838 75.4386 158.838 71.409C158.847 67.3705 155.813 64.3281 151.775 64.3281Z" fill="#CE253D"/>
<path d="M321.313 79.2786H311.352V75.6439H322.184V71.9912H311.352V68.3386H321.313C322.13 68.3386 322.785 67.9796 323.01 66.9834L323.629 64.3359H308.112C307.349 64.3359 306.721 64.9552 306.721 65.718V81.8902C306.721 82.653 307.349 83.2812 308.112 83.2812H323.629L323.01 80.6337C322.785 79.6376 322.139 79.2786 321.313 79.2786Z" fill="#CE253D"/>
<path d="M285.281 83.2734V64.3281H289.903V76.8297L297.917 65.4499C298.366 64.8397 299.362 64.3371 300.125 64.3371H303.553V83.2824H298.932V70.7808L290.917 82.1606C290.469 82.7798 289.472 83.2824 288.71 83.2824H285.281V83.2734Z" fill="#CE253D"/>
<path d="M192.602 73.7054L199.054 64.3359H194.809C193.894 64.3359 193.248 64.6142 192.673 65.5026L189.236 70.9053H188.626L185.189 65.5026C184.623 64.6142 183.977 64.3359 183.053 64.3359H178.664L185.26 73.9118L178.808 83.2902H183.053C183.977 83.2902 184.623 83.012 185.189 82.1235L188.626 76.7208H189.236L192.673 82.1235C193.239 83.012 193.885 83.2902 194.809 83.2902H199.198L192.602 73.7054Z" fill="#CE253D"/>
<g clip-path="url(#clip1_5047_51366)">
<path d="M229.065 233.707H137.852V360H229.065V233.707Z" fill="#3C1E25"/>
<path d="M266.714 233.707H175.5V360H266.714V233.707Z" fill="#65383B"/>
<path d="M51.7745 354.066V339.03C51.7745 338.353 51.4371 337.726 50.8739 337.352L33.0893 325.567L31.4787 324.501C31.3672 324.427 31.2393 324.389 31.1114 324.389C31.0026 324.389 30.8911 324.416 30.7931 324.471C30.5728 324.591 30.4395 324.811 30.4395 325.062V336.22C30.4395 336.514 30.6272 336.771 30.9074 336.861L47.348 342.074C48.186 342.339 48.7464 343.108 48.7464 343.989V348.894L48.8117 348.932C50.1149 349.69 51.0726 350.896 51.5106 352.334L51.7717 354.066H51.7745Z" fill="#3E5670"/>
<path d="M72.5204 354.075V339.388C72.5204 338.526 71.9735 337.759 71.1601 337.484L33.0879 324.496V325.571L50.8725 337.356C51.4357 337.729 51.773 338.354 51.773 339.031V339.497L67.8273 342.236C68.7932 342.4 69.4951 343.232 69.4951 344.216V348.9L69.5604 348.939C70.8608 349.694 71.8212 350.903 72.2592 352.34L72.5204 354.081V354.075Z" fill="#3A2F32"/>
<path d="M3.67133 352.334C4.10935 350.896 5.06972 349.688 6.37017 348.932L6.43547 348.894V343.989C6.43547 343.108 6.99864 342.339 7.83658 342.074L22.2612 337.499L24.2772 336.861C24.5574 336.771 24.7452 336.514 24.7452 336.22V325.062C24.7452 324.811 24.6119 324.591 24.3915 324.471C24.2935 324.419 24.182 324.389 24.0732 324.389C23.9426 324.389 23.8147 324.427 23.7032 324.501L4.31068 337.352C3.74751 337.726 3.41016 338.353 3.41016 339.03V354.093L3.67133 352.334Z" fill="#3E5670"/>
<path d="M-17.072 352.334C-16.634 350.899 -15.6764 349.69 -14.3732 348.932L-14.3079 348.894V344.213C-14.3079 343.23 -13.606 342.396 -12.6402 342.232L3.41414 339.493V339.027C3.41414 338.35 3.7515 337.723 4.31194 337.352L22.0966 325.567V324.492L-15.9756 337.48C-16.7891 337.758 -17.3359 338.522 -17.3359 339.384V353.94L-17.0748 352.328L-17.072 352.334Z" fill="#3A2F32"/>
<path d="M31.0846 338.747C31.8464 338.747 32.532 338.324 32.8748 337.642L32.9455 337.503L30.9077 336.857C30.6302 336.766 30.4425 336.51 30.4425 336.218V325.061C30.4425 324.81 30.5731 324.592 30.7935 324.472C30.8942 324.417 31.0002 324.39 31.1118 324.39C31.2397 324.39 31.3675 324.428 31.4791 324.504L33.0897 325.574V321.056C33.0897 319.946 32.1892 319.043 31.0846 319.043H24.1035C22.9962 319.043 22.0957 319.946 22.0957 321.056V325.571L23.709 324.502C23.8206 324.428 23.9484 324.39 24.0763 324.39C24.1851 324.39 24.294 324.417 24.3919 324.472C24.6123 324.592 24.7429 324.81 24.7429 325.061V336.218C24.7429 336.51 24.5551 336.766 24.2776 336.857L22.2399 337.503L22.3106 337.642C22.6534 338.324 23.3417 338.747 24.1035 338.747H31.0846Z" fill="#27191C"/>
<path d="M29.5719 340.896C29.9419 340.896 30.2412 340.594 30.2412 340.225V338.744H24.9414V340.225C24.9414 340.596 25.2407 340.896 25.6107 340.896H29.5719Z" fill="white"/>
<path d="M30.2895 307.301H24.8945V319.045H30.2895V307.301Z" fill="white"/>
<path d="M27.7265 340.896V338.744H24.9434V340.225C24.9434 340.596 25.2426 340.896 25.6126 340.896H27.7265Z" fill="#DDDCE0"/>
<path d="M27.7267 307.301H24.8945V319.045H27.7267V307.301Z" fill="#DDDCE0"/>
<path d="M77.9712 285.814C80.583 285.814 82.7078 283.681 82.7078 281.062C82.7078 279.791 82.2154 278.599 81.3203 277.704C80.4252 276.806 79.2336 276.312 77.9712 276.312H25.1914L26.9299 276.572C27.6127 276.806 28.2194 277.188 28.7391 277.706C29.6342 278.601 30.1266 279.793 30.1266 281.062C30.1266 283.089 28.8397 284.895 26.9272 285.555L25.3682 285.814H77.9712Z" fill="#3E5670"/>
<path d="M17.6172 279.727C19.0809 279.727 20.346 278.322 20.5555 276.459L20.5718 276.312H2.35733C-0.662548 276.312 -3.57359 275.682 -6.29692 274.438L-6.61523 274.293L-6.47377 274.612C-5.08898 277.768 -2.41461 279.73 0.504598 279.73H17.6145L17.6172 279.727Z" fill="#3E5670"/>
<path d="M59.5659 276.314L60.9235 276.306C56.5705 275.613 51.2735 273.322 48.1312 270.171C44.1836 266.213 42.0098 260.948 42.0098 255.35V177.017C42.0098 174.477 39.9503 172.412 37.4174 172.412H-23.293L-21.6225 172.671C-20.9696 172.898 -20.3874 173.266 -19.8922 173.762C-19.0243 174.63 -18.5482 175.787 -18.5482 177.017V240.03L-18.3796 239.981C-14.5435 238.879 -10.4599 238.319 -6.23747 238.319C-1.42744 238.319 3.51318 239.042 8.45381 240.466L8.64698 240.524C11.0683 241.23 13.4978 242.114 15.8675 243.145C22.6935 246.113 29.0815 250.284 34.8519 255.544C35.7143 256.329 35.9211 257.538 35.3198 258.244L35.1974 258.373C34.9661 258.596 34.6641 258.722 34.3159 258.741C34.286 258.741 34.2533 258.741 34.2207 258.741C33.7228 258.741 33.1923 258.52 32.7679 258.13C30.5316 256.092 28.1537 254.202 25.7025 252.51L25.5147 252.382L23.2485 276.312H59.5604L59.5659 276.314Z" fill="#3A2F32"/>
<path d="M25.3894 285.814C28.0039 285.814 30.1287 283.681 30.1287 281.062C30.1287 279.794 29.6363 278.602 28.7412 277.704C27.8434 276.807 26.6545 276.313 25.3894 276.313H23.2537L23.2265 276.61C22.9191 279.914 22.391 277.704 19.499 277.704L8.99902 273.727L-0.000976562 277.704C-4.65322 277.704 -8.21011 278.918 -9.60578 273.727L-10.0656 272.21L-10.1009 272.183C-12.6583 270.276 -14.7804 267.772 -16.2359 264.94C-17.7703 261.956 -18.5457 258.731 -18.5457 255.351V244.281L-18.7225 244.344C-19.5578 244.636 -20.412 244.971 -21.2609 245.342C-21.4486 245.424 -21.6526 245.465 -21.8676 245.465C-22.5912 245.465 -23.3394 245.012 -23.772 244.308C-23.7774 244.3 -23.7992 244.265 -23.7992 244.265C-24.1338 243.725 -24.2345 243.116 -24.0767 242.603C-23.957 242.222 -23.6958 241.924 -23.3421 241.769C-21.8376 241.109 -20.2542 240.533 -18.6409 240.061L-18.5457 240.034V177.021C-18.5457 175.79 -19.0245 174.634 -19.8924 173.764C-20.7603 172.893 -21.9111 172.416 -23.1381 172.416C-25.671 172.416 -27.7305 174.481 -27.7305 177.021V255.209C-27.7305 258.881 -27.0884 262.474 -25.8206 265.887C-24.5963 269.182 -22.8252 272.224 -20.5562 274.924C-15.9856 280.361 -9.64658 284.055 -2.70903 285.32C-0.90799 285.651 0.942022 285.817 2.79476 285.817H22.2335H25.3894V285.814Z" fill="#3E5670"/>
<path d="M74.1028 276.316L76.3691 252.389L76.3038 252.345C75.5447 251.827 74.7748 251.325 74.0185 250.853L73.8362 250.738L71.4121 276.313H74.1028V276.316Z" fill="white"/>
<path d="M31.1449 307.305L32.3093 293.352H22.877L24.0441 307.305H31.1449Z" fill="#3A2F32"/>
<path d="M48.7548 293.353C53.1187 293.353 56.9166 290.248 57.7872 285.971L57.8199 285.81H22.2615H2.79558C1.00814 285.81 -0.784747 285.654 -2.52866 285.343L-2.71094 285.311L-2.68373 285.493C-2.39535 287.427 -1.47306 289.255 -0.0855477 290.644C1.65564 292.39 3.97088 293.35 6.43303 293.35H48.7548V293.353Z" fill="#27191C"/>
<path d="M20.5728 276.312L22.9969 250.738L22.9261 250.694C16.228 246.561 9.03197 243.042 1.85772 241.943H1.84412C1.34081 241.921 0.802126 241.624 0.298813 241.596C-1.87223 241.484 -3.12643 240.628 -5.5913 241.321C-5.8552 241.394 -6.13542 241.274 -6.40749 241.25H-6.41565H-6.42381C-9.63413 241.332 -12.8907 242.682 -15.8589 243.462L-15.9922 243.498L-10.5591 261.388L-10.453 261.737L-7.04411 272.965L-7.03323 273.006C-6.92168 273.429 -6.78293 273.846 -6.62241 274.247L-6.60337 274.296L-6.55712 274.318C-3.75761 275.641 -0.756785 276.315 2.35831 276.315H20.5701L20.5728 276.312Z" fill="#3A2F32"/>
<path d="M29.4785 200.63C27.5034 200.796 25.5309 200.924 23.5558 201.025C19.6082 201.222 15.6606 201.314 11.713 201.312C7.76536 201.312 3.81776 201.219 -0.129847 201.023C-2.10501 200.919 -4.07745 200.793 -6.05261 200.627C-7.04019 200.542 -8.02777 200.452 -9.01263 200.343C-10.0002 200.24 -10.9878 200.117 -11.9727 199.972C-10.9851 199.828 -9.99749 199.705 -9.01263 199.601C-8.02505 199.492 -7.03747 199.402 -6.05261 199.318C-4.07745 199.151 -2.10501 199.026 -0.129847 198.922C3.81776 198.726 7.76536 198.633 11.713 198.633C15.6606 198.633 19.6082 198.723 23.5558 198.919C25.5309 199.02 27.5034 199.146 29.4785 199.315C30.4661 199.402 31.4537 199.492 32.4386 199.601C33.4261 199.705 34.4137 199.83 35.3986 199.975C34.411 200.12 33.4234 200.245 32.4386 200.349C31.451 200.458 30.4634 200.548 29.4785 200.635V200.63Z" fill="#27191C"/>
<path d="M29.4785 225.02C27.5034 225.187 25.5309 225.315 23.5558 225.416C19.6082 225.612 15.6606 225.705 11.713 225.702C7.76536 225.702 3.81776 225.61 -0.129847 225.413C-2.10501 225.309 -4.07745 225.184 -6.05261 225.018C-7.04019 224.933 -8.02777 224.843 -9.01263 224.734C-10.0002 224.63 -10.9878 224.507 -11.9727 224.363C-10.9851 224.218 -9.99749 224.096 -9.01263 223.992C-8.02505 223.883 -7.03747 223.793 -6.05261 223.708C-4.07745 223.542 -2.10501 223.416 -0.129847 223.313C3.81776 223.116 7.76536 223.023 11.713 223.023C15.6606 223.023 19.6082 223.113 23.5558 223.31C25.5309 223.411 27.5034 223.536 29.4785 223.705C30.4661 223.793 31.4537 223.883 32.4386 223.992C33.4261 224.096 34.4137 224.221 35.3986 224.366C34.411 224.51 33.4234 224.636 32.4386 224.739C31.451 224.848 30.4634 224.938 29.4785 225.026V225.02Z" fill="#27191C"/>
<path d="M29.4785 249.411C27.5034 249.577 25.5309 249.706 23.5558 249.806C19.6082 250.003 15.6606 250.096 11.713 250.093C7.76536 250.093 3.81776 250 -0.129847 249.804C-2.10501 249.7 -4.07745 249.575 -6.05261 249.408C-7.04019 249.324 -8.02777 249.234 -9.01263 249.124C-10.0002 249.021 -10.9878 248.898 -11.9727 248.753C-10.9851 248.609 -9.99749 248.486 -9.01263 248.382C-8.02505 248.273 -7.03747 248.183 -6.05261 248.099C-4.07745 247.932 -2.10501 247.807 -0.129847 247.703C3.81776 247.507 7.76536 247.414 11.713 247.414C15.6606 247.414 19.6082 247.504 23.5558 247.701C25.5309 247.801 27.5034 247.927 29.4785 248.096C30.4661 248.183 31.4537 248.273 32.4386 248.382C33.4261 248.486 34.4137 248.612 35.3986 248.756C34.411 248.901 33.4234 249.026 32.4386 249.13C31.451 249.239 30.4634 249.329 29.4785 249.416V249.411Z" fill="#27191C"/>
<path d="M39.9395 354.066C39.9395 350.795 42.5948 348.133 45.8568 348.133C49.1188 348.133 51.7741 350.795 51.7741 354.066C51.7741 357.337 49.1188 359.999 45.8568 359.999C42.5948 359.999 39.9395 357.337 39.9395 354.066ZM43.1525 354.066C43.1525 355.561 44.3659 356.778 45.8568 356.778C47.3477 356.778 48.5611 355.561 48.5611 354.066C48.5611 352.571 47.3477 351.355 45.8568 351.355C44.3659 351.355 43.1525 352.571 43.1525 354.066Z" fill="#27191C"/>
<path d="M60.6855 354.066C60.6855 350.795 63.3409 348.133 66.6029 348.133C69.8649 348.133 72.5202 350.795 72.5202 354.066C72.5202 357.337 69.8649 359.999 66.6029 359.999C63.3409 359.999 60.6855 357.337 60.6855 354.066ZM63.8986 354.066C63.8986 355.561 65.112 356.778 66.6029 356.778C68.0938 356.778 69.3072 355.561 69.3072 354.066C69.3072 352.571 68.0938 351.355 66.6029 351.355C65.112 351.355 63.8986 352.571 63.8986 354.066Z" fill="#27191C"/>
<path d="M3.41016 354.066C3.41016 350.795 6.06547 348.133 9.32748 348.133C12.5895 348.133 15.2448 350.795 15.2448 354.066C15.2448 357.337 12.5895 359.999 9.32748 359.999C6.06547 359.999 3.41016 357.337 3.41016 354.066ZM6.62319 354.066C6.62319 355.561 7.83658 356.778 9.33019 356.778C10.8238 356.778 12.0345 355.561 12.0345 354.066C12.0345 352.571 10.8211 351.355 9.33019 351.355C7.8393 351.355 6.62319 352.571 6.62319 354.066Z" fill="#27191C"/>
<path d="M134.318 348.884H147.885L146.454 338.758H132.887L134.318 348.884Z" fill="white"/>
<path d="M166.278 355.51L149.712 347.195C149.298 346.988 148.833 346.903 148.373 346.963C146.64 347.184 141.531 347.321 134.212 343.087C132.89 342.323 131.206 342.97 130.757 344.432L126.927 356.899C126.459 358.421 127.593 359.965 129.182 359.965L165.219 360C167.714 360 168.511 356.631 166.28 355.513L166.278 355.51Z" fill="#27191C"/>
<path d="M113.579 227.064C113.59 227.34 116.994 228.223 117.402 228.344C119.668 229.006 121.79 229.361 124.146 229.208C126.366 229.064 128.499 228.521 130.662 228.049C132.27 227.697 133.897 227.43 135.532 227.244C136.906 227.089 138.535 227.225 139.629 226.218C140.638 225.285 140.636 223.878 139.387 223.147C137.967 222.315 136.22 222.596 134.656 222.508C133.554 222.446 131.946 222.151 132.308 220.673C132.447 220.105 133.072 219.819 133.633 219.666C136.718 218.826 140.453 219.805 142.605 222.203C143.547 223.25 144.21 224.642 145.476 225.356C147.432 226.458 147.219 222.931 147.105 221.886C146.828 219.298 145.021 217.32 142.896 215.997C140.976 214.802 138.864 213.913 136.674 213.351C134.596 212.819 132.577 212.508 130.569 213.394C129.043 214.068 127.86 215.241 126.469 216.158C124.698 217.328 122.908 218.406 120.797 218.771C118.672 219.139 116.449 218.951 114.428 218.201C113.802 221.18 113.462 224.012 113.574 227.064H113.579Z" fill="#F1B57D"/>
<path d="M119.431 218.675L118.626 230.209C118.574 230.943 117.91 231.475 117.187 231.366L73.306 224.559C69.3638 223.946 65.7726 221.922 63.2044 218.861L60.696 215.871L59.7057 214.69L50.6134 203.852L29.1777 178.299L36.7002 158.756C36.7002 158.756 50.8338 163.781 62.7256 180.634C72.0817 193.892 77.678 201.612 79.6423 204.304C80.1592 205.014 80.8883 205.535 81.7208 205.799L118.555 217.39C119.107 217.565 119.469 218.097 119.428 218.675H119.431Z" fill="#CE253D"/>
<path d="M59.7028 214.691L51.5 214L42.8105 161.848C42.8105 161.848 62.875 173.826 59.7028 214.691Z" fill="#B11A30"/>
<path d="M23.4728 157.049L8.68359 243.508L41.5213 242.341L42.2994 180.373L36.6977 158.757L23.4728 157.049Z" fill="white"/>
<path d="M150.307 339.905C150.5 340.653 149.978 341.398 149.211 341.468L141.076 342.23L133.028 342.982L114.262 299.804L106.815 282.785L20.6456 279.026L8.04102 258.413L25.6896 239.162L115.29 255.009C123.68 256.49 130.441 262.737 132.596 271L150.313 339.903L150.307 339.905Z" fill="#2F4154"/>
<path d="M141.073 342.233L133.026 342.986L114.259 299.808L96.0527 256.887C112.51 261.189 117.543 271.77 120.127 278.255C122.511 284.224 138.636 334.59 141.073 342.236V342.233Z" fill="#27191C"/>
<path d="M122.006 348.883H135.573L134.529 336.566H120.961L122.006 348.883Z" fill="white"/>
<path d="M153.961 355.51L137.395 347.195C136.982 346.988 136.517 346.903 136.057 346.963C134.324 347.184 129.214 347.321 121.896 343.087C120.574 342.323 118.89 342.97 118.441 344.432L114.61 356.899C114.142 358.421 115.277 359.965 116.866 359.965L152.903 360C155.398 360 156.195 356.631 153.964 355.513L153.961 355.51Z" fill="#27191C"/>
<path d="M119.52 340.353L89.2911 287.196L17.146 281.549C5.98335 280.676 -2.63281 271.335 -2.63281 260.11C-2.63281 247.422 8.26595 237.492 20.8624 238.704L25.6833 239.167L96.0545 256.888C105.62 259.297 113.309 266.417 116.462 275.787L136.836 336.381C137.079 337.101 136.632 337.867 135.89 338.015L120.85 340.969C120.322 341.073 119.786 340.827 119.523 340.358L119.52 340.353Z" fill="#2F4154"/>
<path d="M23.4728 157.049C25.4262 186.407 26.9551 215.168 25.3255 239.46C25.097 242.862 23.655 246.067 21.2582 248.484L1.13928 268.778C-1.67655 271.617 -6.4893 269.408 -6.1982 265.414C-3.40957 227.302 -8.45086 205.522 -5.34937 187.048C-3.03413 173.272 2.9893 163.323 23.4673 157.049H23.4728Z" fill="#CE253D"/>
<path d="M57.8692 245.265L39.0725 243.7C36.964 243.525 35.4214 241.643 35.6445 239.531C35.7615 238.435 35.8703 237.308 35.9737 236.157C36.4879 230.346 36.8116 223.873 36.9994 216.938C37.47 199.529 37.1653 178.624 36.7001 158.754C59.9287 166.346 57.8773 205.178 56.1171 223.802C55.6546 228.707 55.203 232.25 55.2302 233.522C55.2383 233.887 55.2628 234.255 55.3036 234.618C55.6981 238.233 57.5481 241.635 58.8458 243.629C59.3247 244.368 58.7506 245.334 57.8746 245.26L57.8692 245.265Z" fill="#CE253D"/>
<path d="M55.2269 233.524C55.2351 233.89 55.2596 234.258 55.3004 234.621C49.8102 235.54 42.2877 236.489 35.9732 236.157C32.2106 235.955 28.8751 235.303 26.6551 233.914C17.6635 228.295 3.57617 187.828 3.57617 187.828L22.0001 211.55L36.9961 216.938L56.1138 223.802C55.6513 228.706 55.1997 232.25 55.2269 233.521V233.524Z" fill="#B11A30"/>
<path d="M71.1073 227.064C71.1182 227.34 74.5216 228.223 74.9297 228.344C77.196 229.006 79.3181 229.361 81.6741 229.208C83.8941 229.064 86.0271 228.521 88.19 228.049C89.7978 227.697 91.4248 227.43 93.0599 227.244C94.4338 227.089 96.0634 227.225 97.1571 226.218C98.1664 225.285 98.1637 223.878 96.9122 223.147C95.4921 222.315 93.7455 222.596 92.1811 222.508C91.0793 222.446 89.4714 222.151 89.8332 220.673C89.972 220.105 90.5977 219.819 91.1582 219.666C94.2433 218.826 97.9787 219.805 100.131 222.203C101.072 223.25 101.736 224.642 103.001 225.356C104.957 226.458 104.745 222.931 104.631 221.886C104.353 219.298 102.547 217.32 100.422 215.997C98.5011 214.802 96.3899 213.913 94.1998 213.351C92.1213 212.819 90.1026 212.508 88.0948 213.394C86.5685 214.068 85.385 215.241 83.9948 216.158C82.2237 217.328 80.4335 218.406 78.3223 218.771C76.1975 219.139 73.9748 218.951 71.9534 218.201C71.3276 221.18 70.9876 224.012 71.0991 227.064H71.1073Z" fill="#F1B57D"/>
<path d="M77.3234 216.665L77.8866 228.207C77.9192 228.891 77.3996 229.478 76.714 229.521L32.6945 232.326C28.6735 232.582 24.8837 230.416 23.0527 226.818L0.662109 182.773L21.4122 164.299L38.8295 212.139C39.0853 212.845 39.7382 213.331 40.4864 213.375L76.1427 215.472C76.782 215.511 77.288 216.024 77.3207 216.665H77.3234Z" fill="#CE253D"/>
<path d="M25.4886 136.382L23.4727 157.051L29.1397 166.013C29.4498 166.504 30.149 166.553 30.5245 166.105L36.7003 158.754L36.8064 157.829L36.9315 156.768L37.9381 148.153L38.0388 147.293L25.4914 136.379L25.4886 136.382Z" fill="#F1B57D"/>
<path d="M28.9375 142.203C28.9375 142.203 29.0518 152.302 36.8028 157.832L36.9279 156.77L37.9346 148.156L28.9375 142.203Z" fill="#DF944D"/>
<path d="M49.4285 130.92C49.4285 135.067 49.7903 141.778 50.5847 145.845C50.631 146.077 50.6718 146.336 50.5494 146.538C50.3644 146.841 49.9399 146.843 49.589 146.868C47.9566 146.985 46.6725 148.295 45.7067 149.618C44.7409 150.943 43.8594 152.427 42.4256 153.224C40.9919 154.021 39.3649 154.847 37.6727 154.615C35.8635 154.367 34.1414 152.834 33.3388 151.244C30.9229 147.163 28.1152 141.262 25.1797 134.778L28.556 125.273L49.4312 130.92H49.4285Z" fill="#F1B57D"/>
<path d="M25.42 123.68C26.307 122.605 27.3626 121.68 28.5923 121.061C29.9607 120.373 31.4816 120.057 32.9697 119.74C33.016 119.729 33.1411 119.71 33.2908 119.686C33.4023 119.271 33.6118 118.655 33.6499 118.581C33.8322 118.207 34.0716 117.866 34.3518 117.558C34.4334 117.465 34.5205 117.375 34.6103 117.288C36.229 115.741 38.0083 115.7 39.7985 116.172C41.0962 116.51 42.3994 117.122 43.6508 117.621C44.3555 117.902 45.0465 118.076 45.7321 118.131C46.6598 118.207 47.5848 118.063 48.5398 117.664C50.2782 116.944 51.6984 115.61 53.5539 115.136C56.3915 114.413 59.2182 116.734 59.9038 119.402C60.0643 120.032 60.1187 120.698 60.0588 121.347C59.6916 125.3 57.2893 129.463 53.3852 130.819C51.7311 131.394 49.9572 131.231 48.2541 131.029C45.996 130.761 43.7325 130.538 41.4662 130.328C40.3099 130.221 39.1537 130.118 37.9974 130.014C37.32 129.954 35.5516 129.425 35.2958 130.388C35.1598 130.9 35.4047 131.435 35.5461 131.918C36.1964 134.149 36.6834 136.441 37.2411 138.7C37.3826 139.273 37.8151 141.419 36.6453 141.234C36.4793 141.207 36.327 141.122 36.1855 141.032C34.7653 140.126 33.8975 138.528 33.1466 137.068C32.7684 136.335 32.3957 135.593 31.9468 134.897C31.5414 134.269 30.9565 133.339 30.2546 133.017C28.984 132.436 28.4834 133.819 28.1488 134.758C27.6455 136.165 27.1259 137.464 26.3967 138.762C26.1356 139.226 25.8064 139.682 25.3303 139.916C24.0108 140.568 23.3497 138.964 23.1891 137.933C23.0313 136.913 22.9116 135.884 22.8355 134.856C22.5416 130.911 22.7838 126.869 25.4146 123.682L25.42 123.68Z" fill="#27191C"/>
<path d="M276.171 227.092H-65.1706C-66.7332 227.092 -68 228.362 -68 229.929V231.511C-68 233.078 -66.7332 234.348 -65.1706 234.348H276.171C277.733 234.348 279 233.078 279 231.511V229.929C279 228.362 277.733 227.092 276.171 227.092Z" fill="#65383B"/>
<path d="M224.682 208.298H153.666L169.165 146.84H240.181L224.682 208.298Z" fill="#3E5670"/>
<path d="M153.666 208.298H151.131L166.63 146.84H169.166L153.666 208.298Z" fill="#2F4154"/>
<path d="M213.549 222.994H185.369V227.092H213.549V222.994Z" fill="#3E5670"/>
<path d="M169.683 222.994H185.37V227.092H166.631V226.058C166.631 224.366 167.999 222.994 169.686 222.994H169.683Z" fill="#2F4154"/>
<path d="M191.781 183.148H207.139L213.549 222.993H198.191L191.781 183.148Z" fill="#65788D"/>
<path d="M191.781 183.148V222.993H198.191L191.781 183.148Z" fill="#2F4154"/>
<g opacity="0.5">
<path d="M191.783 183.148L184.666 208.297H191.783V183.148Z" fill="#27191C"/>
</g>
<path d="M97.252 227.091H160.147L158.694 223.945H98.7048L97.252 227.091Z" fill="#3E5670"/>
</g>
<g filter="url(#filter1_d_5047_51366)">
<rect x="247" y="163" width="89.3235" height="57.8476" rx="6.8056" fill="white"/>
</g>
<circle cx="267.418" cy="183.418" r="11.9098" fill="#CE253D"/>
<path opacity="0.3" d="M267.418 183.796C268.89 183.796 270.229 184.222 271.214 184.822C271.705 185.123 272.126 185.476 272.43 185.86C272.728 186.239 272.948 186.691 272.948 187.175C272.948 187.694 272.696 188.103 272.332 188.395C271.988 188.671 271.534 188.855 271.052 188.982C270.082 189.239 268.787 189.325 267.418 189.325C266.049 189.325 264.755 189.239 263.785 188.982C263.303 188.855 262.849 188.671 262.505 188.395C262.141 188.102 261.889 187.694 261.889 187.175C261.889 186.691 262.109 186.239 262.407 185.86C262.711 185.476 263.131 185.123 263.623 184.822C264.608 184.222 265.947 183.796 267.418 183.796ZM267.419 177.037C269.784 177.037 271.262 179.598 270.079 181.646C269.809 182.112 269.421 182.5 268.954 182.77C268.487 183.039 267.958 183.181 267.419 183.181C265.054 183.181 263.575 180.621 264.758 178.573C265.027 178.106 265.416 177.718 265.883 177.448C266.35 177.179 266.88 177.037 267.419 177.037Z" fill="#530B15"/>
<rect x="284.432" y="175.334" width="21.5576" height="3.4028" rx="1.7014" fill="#2F4154"/>
<rect x="284.432" y="181.289" width="29.7745" height="3.4028" rx="1.7014" fill="#2F4154"/>
<rect x="284.432" y="188.945" width="16.1182" height="2.5521" rx="1.27605" fill="#B8C7D8"/>
<rect x="255.508" y="202.133" width="39.9829" height="1.7014" rx="0.8507" fill="#E4EBF3"/>
<rect x="255.508" y="206.387" width="31.0506" height="1.7014" rx="0.8507" fill="#E4EBF3"/>
<rect x="255.508" y="210.641" width="61.6758" height="1.7014" rx="0.8507" fill="#E4EBF3"/>
<g filter="url(#filter2_d_5047_51366)">
<rect x="164.721" y="201" width="140.279" height="90.8476" rx="10.688" fill="white"/>
</g>
<circle cx="196.784" cy="233.063" r="18.7039" fill="#CE253D"/>
<path opacity="0.3" d="M196.784 233.656C199.096 233.656 201.198 234.326 202.745 235.269C203.517 235.741 204.177 236.296 204.653 236.899C205.122 237.494 205.468 238.205 205.468 238.964C205.468 239.779 205.071 240.422 204.5 240.88C203.96 241.314 203.247 241.602 202.489 241.803C200.967 242.205 198.935 242.341 196.784 242.341C194.633 242.341 192.601 242.206 191.078 241.803C190.321 241.602 189.608 241.314 189.067 240.88C188.495 240.421 188.1 239.779 188.1 238.964C188.1 238.205 188.445 237.494 188.914 236.899C189.391 236.296 190.049 235.741 190.822 235.269C192.369 234.326 194.473 233.656 196.784 233.656ZM196.784 223.043C200.498 223.043 202.819 227.063 200.962 230.279C200.538 231.013 199.93 231.622 199.196 232.046C198.463 232.469 197.631 232.692 196.784 232.692C193.07 232.692 190.749 228.671 192.606 225.455C193.03 224.722 193.639 224.113 194.372 223.689C195.105 223.266 195.937 223.043 196.784 223.043Z" fill="#530B15"/>
<rect x="223.504" y="220.371" width="62.1237" height="5.34398" rx="2.67199" fill="#2F4154"/>
<rect x="223.504" y="229.723" width="46.7598" height="5.34398" rx="2.67199" fill="#2F4154"/>
<rect x="223.504" y="241.748" width="34.7359" height="4.00798" rx="2.00399" fill="#B8C7D8"/>
<rect x="178.08" y="262.455" width="62.7917" height="2.67199" rx="1.33599" fill="#E4EBF3"/>
<rect x="178.08" y="269.135" width="48.7638" height="2.67199" rx="1.33599" fill="#E4EBF3"/>
<rect x="178.08" y="275.814" width="96.8596" height="2.67199" rx="1.33599" fill="#E4EBF3"/>
</g>
<defs>
<filter id="filter0_d_5047_51366" x="105.239" y="103.239" width="114.845" height="83.3687" filterUnits="userSpaceOnUse" color-interpolation-filters="sRGB">
<feFlood flood-opacity="0" result="BackgroundImageFix"/>
<feColorMatrix in="SourceAlpha" type="matrix" values="0 0 0 0 0 0 0 0 0 0 0 0 0 0 0 0 0 0 127 0" result="hardAlpha"/>
<feOffset/>
<feGaussianBlur stdDeviation="6.38025"/>
<feComposite in2="hardAlpha" operator="out"/>
<feColorMatrix type="matrix" values="0 0 0 0 0.152941 0 0 0 0 0.0980392 0 0 0 0 0.109804 0 0 0 0.1 0"/>
<feBlend mode="normal" in2="BackgroundImageFix" result="effect1_dropShadow_5047_51366"/>
<feBlend mode="normal" in="SourceGraphic" in2="effect1_dropShadow_5047_51366" result="shape"/>
</filter>
<filter id="filter1_d_5047_51366" x="234.239" y="150.239" width="114.845" height="83.3687" filterUnits="userSpaceOnUse" color-interpolation-filters="sRGB">
<feFlood flood-opacity="0" result="BackgroundImageFix"/>
<feColorMatrix in="SourceAlpha" type="matrix" values="0 0 0 0 0 0 0 0 0 0 0 0 0 0 0 0 0 0 127 0" result="hardAlpha"/>
<feOffset/>
<feGaussianBlur stdDeviation="6.38025"/>
<feComposite in2="hardAlpha" operator="out"/>
<feColorMatrix type="matrix" values="0 0 0 0 0.152941 0 0 0 0 0.0980392 0 0 0 0 0.109804 0 0 0 0.1 0"/>
<feBlend mode="normal" in2="BackgroundImageFix" result="effect1_dropShadow_5047_51366"/>
<feBlend mode="normal" in="SourceGraphic" in2="effect1_dropShadow_5047_51366" result="shape"/>
</filter>
<filter id="filter2_d_5047_51366" x="144.681" y="180.96" width="180.359" height="130.927" filterUnits="userSpaceOnUse" color-interpolation-filters="sRGB">
<feFlood flood-opacity="0" result="BackgroundImageFix"/>
<feColorMatrix in="SourceAlpha" type="matrix" values="0 0 0 0 0 0 0 0 0 0 0 0 0 0 0 0 0 0 127 0" result="hardAlpha"/>
<feOffset/>
<feGaussianBlur stdDeviation="10.02"/>
<feComposite in2="hardAlpha" operator="out"/>
<feColorMatrix type="matrix" values="0 0 0 0 0.152941 0 0 0 0 0.0980392 0 0 0 0 0.109804 0 0 0 0.1 0"/>
<feBlend mode="normal" in2="BackgroundImageFix" result="effect1_dropShadow_5047_51366"/>
<feBlend mode="normal" in="SourceGraphic" in2="effect1_dropShadow_5047_51366" result="shape"/>
</filter>
<clipPath id="clip0_5047_51366">
<rect width="360" height="360" rx="8" fill="white"/>
</clipPath>
<clipPath id="clip1_5047_51366">
<rect width="347" height="245" fill="white" transform="translate(-68 115)"/>
</clipPath>
</defs>
</svg>
