<svg width="360" height="360" viewBox="0 0 360 360" fill="none" xmlns="http://www.w3.org/2000/svg">
<g clip-path="url(#clip0_4164_1909)">
<rect width="360" height="360" rx="8" fill="#F3F3F3"/>
<path d="M331 147C348.121 147 362 133.121 362 116C362 98.8792 348.121 85 331 85C313.879 85 300 98.8792 300 116C300 133.121 313.879 147 331 147Z" fill="#E1E1E1"/>
<path d="M365 319C379.359 319 391 307.359 391 293C391 278.641 379.359 267 365 267C350.641 267 339 278.641 339 293C339 307.359 350.641 319 365 319Z" fill="#E1E1E1"/>
<path d="M321.5 57C326.194 57 330 53.1944 330 48.5C330 43.8056 326.194 40 321.5 40C316.806 40 313 43.8056 313 48.5C313 53.1944 316.806 57 321.5 57Z" fill="#E1E1E1"/>
<path d="M31 314C52.5391 314 70 296.539 70 275C70 253.461 52.5391 236 31 236C9.4609 236 -8 253.461 -8 275C-8 296.539 9.4609 314 31 314Z" fill="#E1E1E1"/>
<g filter="url(#filter0_d_4164_1909)">
<path d="M30 125C30 118.373 35.3726 113 42 113H318C324.627 113 330 118.373 330 125V360H30V125Z" fill="#FDFDFD"/>
</g>
<path d="M30 125C30 118.373 35.3726 113 42 113H86C92.6274 113 98 118.373 98 125V360H30V125Z" fill="#323333"/>
<path d="M30 125C30 118.373 35.3726 113 42 113H318C324.627 113 330 118.373 330 125V141H30V125Z" fill="#00AAFF"/>
<circle cx="46.5" cy="127.5" r="3.5" fill="white"/>
<circle cx="56.5" cy="127.5" r="3.5" fill="white"/>
<circle cx="66.5" cy="127.5" r="3.5" fill="white"/>
<rect x="42" y="155" width="40" height="7" rx="3.5" fill="#525454"/>
<rect x="42" y="169" width="28" height="7" rx="3.5" fill="#525454"/>
<rect x="42" y="183" width="34" height="7" rx="3.5" fill="#525454"/>
<rect x="42" y="197" width="40" height="7" rx="3.5" fill="#525454"/>
<rect x="42" y="211" width="18" height="7" rx="3.5" fill="#525454"/>
<rect x="42" y="225" width="34" height="7" rx="3.5" fill="#525454"/>
<rect x="42" y="239" width="44" height="7" rx="3.5" fill="#525454"/>
<rect x="114" y="319" width="40" height="21" rx="10.5" fill="#DCDCDC"/>
<rect x="162" y="324" width="43" height="3" rx="1.5" fill="#DCDCDC"/>
<rect x="162" y="331" width="64" height="3" rx="1.5" fill="#DCDCDC"/>
<rect x="114" y="288" width="40" height="21" rx="10.5" fill="#DCDCDC"/>
<rect x="162" y="293" width="73" height="3" rx="1.5" fill="#DCDCDC"/>
<rect x="162" y="300" width="64" height="3" rx="1.5" fill="#DCDCDC"/>
<rect x="114" y="257" width="40" height="21" rx="10.5" fill="#DCDCDC"/>
<path d="M202 201C202 192.298 199.419 183.791 194.585 176.555C189.75 169.319 182.878 163.68 174.838 160.349C166.798 157.019 157.951 156.148 149.416 157.845C140.881 159.543 133.041 163.734 126.887 169.887L158 201H202Z" fill="#E0CCFF"/>
<path d="M116.62 215.956C120.145 225.71 127.002 233.904 135.981 239.094C144.96 244.284 155.483 246.136 165.694 244.322C175.905 242.508 185.148 237.146 191.79 229.182C198.433 221.218 202.048 211.163 202 200.792L158 201L116.62 215.956Z" fill="#A2E0FF"/>
<path d="M126.887 169.887C120.805 175.97 116.638 183.702 114.904 192.128C113.169 200.554 113.943 209.303 117.128 217.294L158 201L126.887 169.887Z" fill="#E8F9C6"/>
<path d="M253.31 291.31C280.061 264.559 280.061 221.188 253.31 194.437C226.56 167.686 183.188 167.686 156.437 194.437C129.686 221.188 129.686 264.559 156.437 291.31C183.188 318.061 226.56 318.061 253.31 291.31Z" fill="white" fill-opacity="0.5"/>
<path d="M247.654 200.094C271.28 223.72 271.28 262.027 247.654 285.653C224.027 309.28 185.72 309.28 162.094 285.653C138.467 262.027 138.467 223.72 162.094 200.094C185.72 176.467 224.027 176.467 247.654 200.094Z" stroke="#39225B" stroke-width="16"/>
<rect x="250.128" y="294.492" width="8" height="27" transform="rotate(-45 250.128 294.492)" fill="#39225B"/>
<rect x="258.614" y="312.877" width="22" height="95.1123" rx="11" transform="rotate(-45 258.614 312.877)" fill="#A169F7"/>
<rect x="258.614" y="312.877" width="22" height="95.1123" rx="11" transform="rotate(-45 258.614 312.877)" fill="url(#paint0_linear_4164_1909)" fill-opacity="0.3"/>
<path d="M205 281C225.987 281 243 263.987 243 243C243 222.013 225.987 205 205 205C184.013 205 167 222.013 167 243C167 263.987 184.013 281 205 281Z" fill="#97CF26"/>
<path d="M186 245.21L199.894 257L227 230" stroke="white" stroke-width="6"/>
<path d="M73.7809 89.9999C82.7385 89.9999 90 82.7384 90 73.7808C90 64.8233 82.7385 57.5618 73.7809 57.5618C64.8234 57.5618 57.5618 64.8233 57.5618 73.7808C57.5618 82.7384 64.8234 89.9999 73.7809 89.9999Z" fill="#97CF26"/>
<path d="M43.3215 81.3074C47.4783 81.3074 50.848 77.9377 50.848 73.7809C50.848 69.6241 47.4783 66.2544 43.3215 66.2544C39.1648 66.2544 35.795 69.6241 35.795 73.7809C35.795 77.9377 39.1648 81.3074 43.3215 81.3074Z" fill="#A169F7"/>
<path d="M73.7809 53.7455C79.5379 53.7455 84.2049 49.0785 84.2049 43.3215C84.2049 37.5645 79.5379 32.8975 73.7809 32.8975C68.0239 32.8975 63.3569 37.5645 63.3569 43.3215C63.3569 49.0785 68.0239 53.7455 73.7809 53.7455Z" fill="#FF6163"/>
<path d="M43.3216 56.6431C50.6788 56.6431 56.6431 50.6788 56.6431 43.3215C56.6431 35.9643 50.6788 30 43.3216 30C35.9643 30 30 35.9643 30 43.3215C30 50.6788 35.9643 56.6431 43.3216 56.6431Z" fill="#00AAFF"/>
<path d="M132.085 81.2368H140.495L124.912 38.834H118.799L103.216 81.2368H111.661L114.629 73.1449H129.117L132.085 81.2368L116.961 66.7492L121.873 53.4276L126.784 66.7492H116.961L132.085 81.2368Z" fill="black"/>
<path d="M161.343 52.2615L153.604 73.3216L145.866 52.2615H137.951L148.587 81.2367H158.587L169.223 52.2615H161.343Z" fill="black"/>
<path d="M172.58 52.2615H180.495V81.2367H172.58V52.2615Z" fill="black"/>
<path d="M176.537 48.9753C179.347 48.9753 181.625 46.6971 181.625 43.8869C181.625 41.0767 179.347 38.7986 176.537 38.7986C173.727 38.7986 171.449 41.0767 171.449 43.8869C171.449 46.6971 173.727 48.9753 176.537 48.9753Z" fill="black"/>
<path d="M208.375 58.6573V52.2615H198.905V44.2756H190.989V52.2615H184.735V58.6573H190.989V71.1308C190.989 77.5619 194.205 81.8375 202.403 81.8375C205.583 81.8375 208.339 80.6714 208.339 80.6714L207.385 74.417C207.385 74.417 205.83 74.8763 203.922 74.8763C201.59 74.8763 198.869 73.8516 198.869 70.6361V58.6573H208.375Z" fill="black"/>
<path d="M226.502 74.5937C222.085 74.5937 218.516 71.0955 218.516 66.7846C218.516 62.4736 222.085 58.9754 226.502 58.9754C230.919 58.9754 234.488 62.4736 234.488 66.7846C234.488 71.0955 230.919 74.5937 226.502 74.5937ZM226.502 51.5195C217.951 51.5195 210.989 58.304 210.989 66.6785C210.989 75.0531 217.951 81.8376 226.502 81.8376C235.053 81.8376 242.014 75.0531 242.014 66.6785C242.014 58.304 235.053 51.5195 226.502 51.5195Z" fill="black"/>
</g>
<defs>
<filter id="filter0_d_4164_1909" x="0" y="93" width="360" height="307" filterUnits="userSpaceOnUse" color-interpolation-filters="sRGB">
<feFlood flood-opacity="0" result="BackgroundImageFix"/>
<feColorMatrix in="SourceAlpha" type="matrix" values="0 0 0 0 0 0 0 0 0 0 0 0 0 0 0 0 0 0 127 0" result="hardAlpha"/>
<feOffset dy="10"/>
<feGaussianBlur stdDeviation="15"/>
<feComposite in2="hardAlpha" operator="out"/>
<feColorMatrix type="matrix" values="0 0 0 0 0.7625 0 0 0 0 0.7625 0 0 0 0 0.7625 0 0 0 1 0"/>
<feBlend mode="normal" in2="BackgroundImageFix" result="effect1_dropShadow_4164_1909"/>
<feBlend mode="normal" in="SourceGraphic" in2="effect1_dropShadow_4164_1909" result="shape"/>
</filter>
<linearGradient id="paint0_linear_4164_1909" x1="261.628" y1="345.893" x2="277.913" y2="345.491" gradientUnits="userSpaceOnUse">
<stop/>
<stop offset="1" stop-opacity="0"/>
</linearGradient>
<clipPath id="clip0_4164_1909">
<rect width="360" height="360" rx="8" fill="white"/>
</clipPath>
</defs>
</svg>
