<svg width="360" height="360" viewBox="0 0 360 360" fill="none" xmlns="http://www.w3.org/2000/svg">
<g clip-path="url(#clip0_4643_23776)">
<rect width="360" height="360" rx="8" fill="#DCF6FF"/>
<path d="M314.501 189.539C332.615 200.662 359.009 197.04 371.009 194.04V366.039H32.0088C-0.499998 324.039 23.0088 289.039 43.0088 266.039C63.0088 243.039 66.2805 224.039 69.5088 207.539C78.5088 161.539 111.509 143.539 132.009 147.039C152.509 150.539 184.009 155.04 198.009 139.54C212.009 124.04 242.009 114.54 267.509 129.54C293.009 144.54 286.001 172.039 314.501 189.539Z" fill="#BFE9F8"/>
<path d="M35.5226 37.2034C35.5226 36.1362 35.6826 35.4692 36.0028 35.2024C36.3229 34.8823 36.9899 34.7222 38.0037 34.7222H42.4058C43.4729 34.7222 44.1399 34.8823 44.4067 35.2024C44.7269 35.4692 44.8869 36.1362 44.8869 37.2034V44.7269H50.4095V36.3229C50.4095 34.1886 49.8759 32.6146 48.8088 31.6007C47.795 30.5336 46.2209 30 44.0866 30H36.3229C34.1886 30 32.5879 30.5336 31.5207 31.6007C30.5069 32.6146 30 34.1886 30 36.3229V73.5403C30 75.6746 30.5069 77.2754 31.5207 78.3425C32.5879 79.3563 34.1886 79.8632 36.3229 79.8632H44.0866C46.2209 79.8632 47.795 79.3563 48.8088 78.3425C49.8759 77.2754 50.4095 75.6746 50.4095 73.5403V65.1364H44.8869V72.6599C44.8869 73.6737 44.7269 74.3407 44.4067 74.6608C44.1399 74.981 43.4729 75.141 42.4058 75.141H38.0037C36.9899 75.141 36.3229 74.981 36.0028 74.6608C35.6826 74.3407 35.5226 73.6737 35.5226 72.6599V37.2034Z" fill="#21343C"/>
<path d="M114.119 37.2034C114.119 36.1362 114.279 35.4692 114.599 35.2024C114.919 34.8823 115.586 34.7222 116.6 34.7222H121.002C122.069 34.7222 122.736 34.8823 123.003 35.2024C123.323 35.4692 123.483 36.1362 123.483 37.2034V44.7269H129.005V36.3229C129.005 34.1886 128.472 32.6146 127.405 31.6007C126.391 30.5336 124.817 30 122.683 30H114.919C112.785 30 111.184 30.5336 110.117 31.6007C109.103 32.6146 108.596 34.1886 108.596 36.3229V73.5403C108.596 75.6746 109.103 77.2754 110.117 78.3425C111.184 79.3563 112.785 79.8632 114.919 79.8632H122.683C124.817 79.8632 126.391 79.3563 127.405 78.3425C128.472 77.2754 129.005 75.6746 129.005 73.5403V65.1364H123.483V72.6599C123.483 73.6737 123.323 74.3407 123.003 74.6608C122.736 74.981 122.069 75.141 121.002 75.141H116.6C115.586 75.141 114.919 74.981 114.599 74.6608C114.279 74.3407 114.119 73.6737 114.119 72.6599V37.2034Z" fill="#21343C"/>
<path d="M157.237 79.7832L146.672 55.1317L157.397 30H151.474L140.989 55.1317L151.314 79.7832H157.237Z" fill="#21343C"/>
<path d="M173.472 52.8455L167.38 30H160.977V64.4789L166.019 59.7843V41.2052L170 56.0783L173.472 52.8455Z" fill="#21343C"/>
<path d="M182.347 44.5827L177.304 49.2774V30H182.347V44.5827Z" fill="#21343C"/>
<path d="M72.638 57.2927H61.913V79.7832H56.3904V30H61.913V52.5705H72.638V30H78.1606V79.7832H72.638V57.2927Z" fill="#21343C"/>
<path d="M85.3508 30V79.7832H104.56V75.061H90.8733V56.2522H101.598V51.53H90.8733V34.7222H103.999V30H85.3508Z" fill="#21343C"/>
<path d="M134.986 30H140.429V79.7832H134.986V30Z" fill="#21343C"/>
<path d="M174.406 56.3498L177.304 67.2173V53.6516L182.347 48.957V79.7832H176.344L170.937 59.58L174.406 56.3498Z" fill="#019AD0"/>
<path d="M166.019 64.1586L160.977 68.8532V79.7832H166.019V64.1586Z" fill="#019AD0"/>
<path fill-rule="evenodd" clip-rule="evenodd" d="M208.755 58.2532C207.741 59.267 206.167 59.7739 204.033 59.7739H194.989V79.7832H189.546V30H204.033C206.167 30 207.741 30.5336 208.755 31.6007C209.822 32.6146 210.356 34.1886 210.356 36.3229V53.4509C210.356 55.5852 209.822 57.186 208.755 58.2532ZM204.433 35.2024C204.753 35.4692 204.913 36.1362 204.913 37.2034V52.5705C204.913 53.5843 204.753 54.2513 204.433 54.5714C204.166 54.8916 203.499 55.0517 202.432 55.0517H194.989V34.7222H202.432C203.499 34.7222 204.166 34.8823 204.433 35.2024Z" fill="#019AD0"/>
<path fill-rule="evenodd" clip-rule="evenodd" d="M229.815 67.1373L231.864 79.7832H237.387L228.823 30H220.098L212.335 79.7832H217.857L219.664 67.1373H229.815ZM229.05 62.4151L224.42 33.8418L220.339 62.4151H229.05Z" fill="#019AD0"/>
<path d="M237.368 30L247.213 64.5761V79.7832H252.656V64.5761L262.1 30H256.577L249.934 59.2136L242.891 30H237.368Z" fill="#019AD0"/>
<rect x="30.2666" y="92.5898" width="223.037" height="22.4104" fill="#019AD0"/>
<path d="M50.5349 109.665H47.8115L49.2906 101.776C49.5489 100.414 49.7367 99.217 49.8776 98.2309H52.3192L52.061 100.273H52.1079C53.1644 98.7474 54.62 97.9727 56.2165 97.9727C57.8599 97.9727 59.1277 98.9587 59.1277 101.119C59.1277 101.635 59.0338 102.433 58.9164 102.997L57.6721 109.665H54.9252L56.1461 103.208C56.2165 102.786 56.2869 102.293 56.2869 101.846C56.2869 100.884 55.9348 100.203 54.8548 100.203C53.6105 100.203 52.014 101.706 51.521 104.382L50.5349 109.665Z" fill="white"/>
<path d="M62.4804 114.313H59.757L62.0109 102.48C62.2457 101.119 62.5039 99.3344 62.6683 98.184H65.1334L64.8752 100.109H64.9221C65.8847 98.7709 67.3168 97.9961 68.7724 97.9727C71.2611 97.9727 72.388 99.9683 72.388 102.199C72.388 106.213 69.6411 109.923 65.7438 109.923C64.6873 109.923 63.8656 109.665 63.4665 109.43H63.4195L62.4804 114.313ZM64.3352 104.429L63.8421 107.223C64.2882 107.598 64.8986 107.81 65.6734 107.81C67.8099 107.81 69.5237 104.992 69.5237 102.41C69.5237 101.377 69.0776 100.203 67.7159 100.203C66.3308 100.203 64.8047 101.753 64.3352 104.429Z" fill="white"/>
<path d="M78.5809 109.923C75.6932 109.923 73.9089 107.927 73.9089 105.204C73.9089 101.33 76.6088 97.9727 80.5296 97.9727C83.6051 97.9727 85.2016 100.18 85.2016 102.692C85.2016 106.589 82.5017 109.923 78.5809 109.923ZM78.9566 107.81C81.0226 107.81 82.3843 104.992 82.3843 102.715C82.3843 101.541 81.8443 100.086 80.1774 100.086C77.994 100.086 76.7262 102.997 76.7262 105.133C76.7262 106.706 77.5479 107.81 78.9566 107.81Z" fill="white"/>
<path d="M93.2073 97.9727C95.3907 97.9727 96.9168 98.8413 96.9168 100.696C96.9168 102.246 95.4142 103.138 94.2403 103.49V103.537C95.4142 103.678 96.6115 104.476 96.6115 106.002C96.6115 108.89 93.3951 109.899 90.9769 109.899C88.324 109.899 86.7744 108.866 86.7744 106.472C86.7744 104.382 87.7135 100.508 89.7561 99.0057C90.6717 98.3248 91.7986 97.9727 93.2073 97.9727ZM92.9021 99.8743C91.1647 99.8743 90.4369 101.659 90.0378 103.138C91.0943 102.973 92.3386 102.786 93.2073 102.339C93.7942 102.058 94.2873 101.612 94.2873 101.001C94.2873 100.273 93.7003 99.8743 92.9021 99.8743ZM91.7986 104.593C90.9769 104.593 90.1787 104.781 89.6857 104.922C89.6152 105.321 89.5213 105.838 89.5213 106.307C89.5213 107.317 90.0378 107.974 91.3056 107.974C92.7143 107.974 93.8412 107.246 93.8412 106.096C93.8412 104.969 92.9021 104.593 91.7986 104.593Z" fill="white"/>
<path d="M106.985 107.012L107.243 109.007C106.116 109.594 104.59 109.923 103.205 109.923C100.035 109.923 98.5094 107.974 98.5094 105.18C98.5094 101.729 101.045 97.9727 104.989 97.9727C107.243 97.9727 108.675 99.2639 108.675 101.189C108.675 104.124 105.6 105.063 101.186 104.969C101.139 105.368 101.233 106.143 101.491 106.589C101.937 107.364 102.759 107.763 103.839 107.763C105.13 107.763 106.163 107.434 106.985 107.012ZM106.093 101.189C106.093 100.461 105.506 100.015 104.637 100.015C102.923 100.015 101.796 101.541 101.468 102.926C104.285 102.95 106.093 102.574 106.093 101.189Z" fill="white"/>
<path d="M111.27 114.313H108.546L110.8 102.48C111.035 101.119 111.293 99.3344 111.458 98.184H113.923L113.665 100.109H113.711C114.674 98.7709 116.106 97.9961 117.562 97.9727C120.05 97.9727 121.177 99.9683 121.177 102.199C121.177 106.213 118.43 109.923 114.533 109.923C113.477 109.923 112.655 109.665 112.256 109.43H112.209L111.27 114.313ZM113.125 104.429L112.632 107.223C113.078 107.598 113.688 107.81 114.463 107.81C116.599 107.81 118.313 104.992 118.313 102.41C118.313 101.377 117.867 100.203 116.505 100.203C115.12 100.203 113.594 101.753 113.125 104.429Z" fill="white"/>
<path d="M124.649 98.2309H127.325L126.128 103.02H126.151C126.902 102.269 128.17 101.776 129.297 101.776C131.105 101.776 132.49 102.903 132.49 104.852C132.49 107.481 130.283 109.852 126.48 109.852C124.672 109.852 122.817 109.359 122.817 107.105C122.817 106.519 123.005 105.579 123.146 104.969L124.649 98.2309ZM126.973 107.88C128.358 107.88 129.814 106.871 129.814 105.345C129.814 104.382 129.274 103.748 128.264 103.748C127.02 103.748 126.034 104.805 125.729 105.603C125.611 105.932 125.541 106.237 125.541 106.659C125.541 107.411 126.057 107.88 126.973 107.88Z" fill="white"/>
<path d="M140.28 98.2309H143.003L141.829 104.476C141.712 105.039 141.641 105.603 141.641 106.049C141.641 106.988 142.017 107.669 143.097 107.669C144.365 107.669 145.82 106.166 146.29 103.772L147.323 98.2309H150.07L148.567 106.119C148.309 107.481 148.145 108.678 148.004 109.665H145.562L145.82 107.669H145.773C144.67 109.148 143.238 109.923 141.806 109.923C140.139 109.923 138.824 109.031 138.824 106.683C138.824 106.072 138.894 105.415 139.059 104.64L140.28 98.2309Z" fill="white"/>
<path d="M160.248 109.923C157.36 109.923 155.576 107.927 155.576 105.204C155.576 101.33 158.276 97.9727 162.197 97.9727C165.272 97.9727 166.869 100.18 166.869 102.692C166.869 106.589 164.169 109.923 160.248 109.923ZM160.624 107.81C162.69 107.81 164.051 104.992 164.051 102.715C164.051 101.541 163.512 100.086 161.845 100.086C159.661 100.086 158.393 102.997 158.393 105.133C158.393 106.706 159.215 107.81 160.624 107.81Z" fill="white"/>
<path d="M170.766 109.665H168.043L169.522 101.776C169.78 100.414 169.968 99.217 170.109 98.2309H172.55L172.292 100.273H172.339C173.395 98.7474 174.851 97.9727 176.447 97.9727C178.091 97.9727 179.359 98.9587 179.359 101.119C179.359 101.635 179.265 102.433 179.147 102.997L177.903 109.665H175.156L176.377 103.208C176.447 102.786 176.518 102.293 176.518 101.846C176.518 100.884 176.166 100.203 175.086 100.203C173.841 100.203 172.245 101.706 171.752 104.382L170.766 109.665Z" fill="white"/>
<path d="M184.118 98.2309H192.547L190.387 109.665H187.664L189.401 100.367H186.255L185.762 102.879C185.175 105.861 184.4 107.739 183.015 108.749C182.264 109.43 181.395 109.805 180.01 109.805L179.822 107.622C180.456 107.575 180.996 107.364 181.348 107.035C182.287 106.331 182.851 104.828 183.25 102.833L184.118 98.2309Z" fill="white"/>
<path d="M203.541 109.665H201.029C201.029 108.984 201.123 108.068 201.217 107.105H201.17C200.02 109.195 198.494 109.923 197.038 109.923C194.996 109.923 193.657 108.326 193.657 106.025C193.657 102.128 196.381 97.9727 201.71 97.9727C202.954 97.9727 204.293 98.2074 205.161 98.4892L204.011 104.452C203.682 106.143 203.494 108.303 203.541 109.665ZM201.522 103.208L202.086 100.203C201.827 100.133 201.475 100.086 200.982 100.086C198.47 100.086 196.498 102.926 196.498 105.532C196.498 106.73 196.944 107.716 198.142 107.716C199.433 107.716 201.006 106.119 201.522 103.208Z" fill="white"/>
<path d="M208.847 109.665H206.194L207.649 101.776C207.907 100.414 208.072 99.217 208.213 98.2309H210.584L210.326 100.227H210.373C211.429 98.7005 212.861 97.9727 214.364 97.9727C216.148 97.9727 216.946 99.1231 217.04 100.32C218.073 98.7709 219.505 97.9961 221.102 97.9727C222.651 97.9727 223.872 98.9822 223.872 101.025C223.872 101.518 223.778 102.363 223.684 102.973L222.44 109.665H219.787L220.961 103.279C221.055 102.833 221.125 102.293 221.125 101.846C221.125 100.86 220.726 100.203 219.74 100.203C218.472 100.203 217.087 101.776 216.641 104.194L215.632 109.665H212.979L214.223 103.185C214.293 102.715 214.364 102.269 214.364 101.846C214.364 101.001 214.106 100.203 212.979 100.203C211.711 100.203 210.255 101.94 209.833 104.265L208.847 109.665Z" fill="white"/>
<path d="M227.518 98.2309H230.241L229.068 104.476C228.95 105.039 228.88 105.603 228.88 106.049C228.88 106.988 229.255 107.669 230.335 107.669C231.603 107.669 233.059 106.166 233.528 103.772L234.561 98.2309H237.308L235.806 106.119C235.547 107.481 235.383 108.678 235.242 109.665H232.801L233.059 107.669H233.012C231.908 109.148 230.476 109.923 229.044 109.923C227.377 109.923 226.062 109.031 226.062 106.683C226.062 106.072 226.133 105.415 226.297 104.64L227.518 98.2309Z" fill="white"/>
<path d="M30.5 226C30.5 221.858 33.8579 218.5 38 218.5H94C98.1421 218.5 101.5 221.858 101.5 226V333C101.5 337.142 98.1421 340.5 94 340.5H38C33.8579 340.5 30.5 337.142 30.5 333V226Z" fill="#019AD0" stroke="#21343C"/>
<rect x="33" y="221" width="66" height="117" rx="6" fill="#21343C"/>
<rect x="37" y="234" width="58" height="91" rx="3" fill="#019AD0"/>
<rect x="58" y="225" width="16" height="5" rx="2.5" fill="#019AD0"/>
<rect x="55" y="328" width="22" height="7" rx="3.5" fill="#019AD0"/>
<circle cx="83" cy="168" r="32" fill="#FFBB00"/>
<g filter="url(#filter0_i_4643_23776)">
<circle cx="83" cy="168" r="23" stroke="#FF9E0D" stroke-width="2"/>
</g>
<path d="M346.487 331.5C346.227 336.514 342.079 340.5 337 340.5H93C87.921 340.5 83.7729 336.514 83.5129 331.5H346.487Z" fill="#15B5EE" stroke="#21343C"/>
<path d="M104 210C104 205.582 107.582 202 112 202H318C322.418 202 326 205.582 326 210V331H104V210Z" fill="#21343C"/>
<rect x="112" y="210" width="206" height="113" fill="#019AD0"/>
<path d="M243.473 331.5C243.224 333.75 241.316 335.5 239 335.5H191C188.684 335.5 186.776 333.75 186.527 331.5H243.473Z" fill="#019AD0" stroke="#21343C"/>
<path d="M163 210H277V307C277 309.209 275.209 311 273 311H167C164.791 311 163 309.209 163 307V210Z" fill="#1280A7"/>
<rect x="158" y="160" width="114" height="146" rx="4" fill="white"/>
<rect x="168" y="174" width="46" height="8" rx="4" fill="#192836"/>
<rect x="193" y="276" width="69" height="17" rx="8.5" fill="#015E7F"/>
<rect x="233" y="174" width="29" height="4" rx="2" fill="#D8DBDD"/>
<rect x="233" y="182" width="29" height="4" rx="2" fill="#D8DBDD"/>
<rect x="233" y="190" width="29" height="4" rx="2" fill="#D8DBDD"/>
<rect x="193" y="198" width="69" height="4" rx="2" fill="#D8DBDD"/>
<rect x="193" y="214" width="69" height="4" rx="2" fill="#D8DBDD"/>
<rect x="168" y="236" width="94" height="4" rx="2" fill="#D8DBDD"/>
<rect x="168" y="244" width="94" height="4" rx="2" fill="#D8DBDD"/>
<rect x="168" y="252" width="94" height="4" rx="2" fill="#D8DBDD"/>
<rect x="168" y="260" width="65" height="4" rx="2" fill="#D8DBDD"/>
<rect x="233" y="206" width="29" height="4" rx="2" fill="#D8DBDD"/>
<rect x="182" y="206" width="47" height="4" rx="2" fill="#D8DBDD"/>
<rect x="43" y="251" width="46.8493" height="60" rx="1.64385" fill="white"/>
<rect x="47.1094" y="256.754" width="18.9041" height="3.28767" rx="1.64384" fill="#192836"/>
<rect x="57.3838" y="298.672" width="28.3562" height="6.9863" rx="3.49315" fill="#015E7F"/>
<rect x="73.8223" y="256.754" width="11.9178" height="1.64384" rx="0.821918" fill="#D8DBDD"/>
<rect x="73.8223" y="260.041" width="11.9178" height="1.64384" rx="0.821918" fill="#D8DBDD"/>
<rect x="73.8223" y="263.328" width="11.9178" height="1.64384" rx="0.821918" fill="#D8DBDD"/>
<rect x="57.3838" y="266.617" width="28.3562" height="1.64384" rx="0.821918" fill="#D8DBDD"/>
<rect x="57.3838" y="273.191" width="28.3562" height="1.64384" rx="0.821918" fill="#D8DBDD"/>
<rect x="47.1094" y="282.232" width="38.6301" height="1.64384" rx="0.821918" fill="#D8DBDD"/>
<rect x="47.1094" y="285.521" width="38.6301" height="1.64384" rx="0.821918" fill="#D8DBDD"/>
<rect x="47.1094" y="288.809" width="38.6301" height="1.64384" rx="0.821918" fill="#D8DBDD"/>
<rect x="47.1094" y="292.096" width="26.7123" height="1.64384" rx="0.821918" fill="#D8DBDD"/>
<rect x="73.8223" y="269.904" width="11.9178" height="1.64384" rx="0.821918" fill="#D8DBDD"/>
<rect x="52.8633" y="269.904" width="19.3151" height="1.64384" rx="0.821918" fill="#D8DBDD"/>
<g filter="url(#filter1_d_4643_23776)">
<path d="M78.3366 178.82V158H84.5312C85.8164 158 86.8531 158.248 87.6413 158.745C88.4296 159.225 89.0036 159.953 89.3635 160.93C89.7405 161.907 89.929 163.141 89.929 164.632C89.929 166.054 89.7233 167.245 89.3121 168.204C88.9008 169.147 88.2582 169.858 87.3843 170.338C86.5275 170.8 85.4308 171.032 84.0942 171.032H82.1407V178.82H78.3366ZM77 176V173.448L87.4614 173.474V176H77ZM82.1407 168.153H83.683C84.2827 168.153 84.7625 168.042 85.1224 167.819C85.4994 167.596 85.765 167.228 85.9192 166.714C86.0905 166.199 86.1762 165.514 86.1762 164.657C86.1762 163.715 86.0991 162.969 85.9449 162.421C85.8078 161.873 85.5593 161.479 85.1995 161.239C84.8396 160.999 84.3256 160.879 83.6573 160.879H82.1407V168.153Z" fill="#F59300"/>
</g>
</g>
<defs>
<filter id="filter0_i_4643_23776" x="59" y="144" width="52" height="52" filterUnits="userSpaceOnUse" color-interpolation-filters="sRGB">
<feFlood flood-opacity="0" result="BackgroundImageFix"/>
<feBlend mode="normal" in="SourceGraphic" in2="BackgroundImageFix" result="shape"/>
<feColorMatrix in="SourceAlpha" type="matrix" values="0 0 0 0 0 0 0 0 0 0 0 0 0 0 0 0 0 0 127 0" result="hardAlpha"/>
<feOffset dx="4" dy="4"/>
<feGaussianBlur stdDeviation="2"/>
<feComposite in2="hardAlpha" operator="arithmetic" k2="-1" k3="1"/>
<feColorMatrix type="matrix" values="0 0 0 0 1 0 0 0 0 0.87451 0 0 0 0 0.156863 0 0 0 1 0"/>
<feBlend mode="normal" in2="shape" result="effect1_innerShadow_4643_23776"/>
</filter>
<filter id="filter1_d_4643_23776" x="77" y="158" width="13.9287" height="21.8203" filterUnits="userSpaceOnUse" color-interpolation-filters="sRGB">
<feFlood flood-opacity="0" result="BackgroundImageFix"/>
<feColorMatrix in="SourceAlpha" type="matrix" values="0 0 0 0 0 0 0 0 0 0 0 0 0 0 0 0 0 0 127 0" result="hardAlpha"/>
<feOffset dx="1" dy="1"/>
<feComposite in2="hardAlpha" operator="out"/>
<feColorMatrix type="matrix" values="0 0 0 0 1 0 0 0 0 0.801428 0 0 0 0 0.255355 0 0 0 1 0"/>
<feBlend mode="normal" in2="BackgroundImageFix" result="effect1_dropShadow_4643_23776"/>
<feBlend mode="normal" in="SourceGraphic" in2="effect1_dropShadow_4643_23776" result="shape"/>
</filter>
<clipPath id="clip0_4643_23776">
<rect width="360" height="360" rx="8" fill="white"/>
</clipPath>
</defs>
</svg>
