<svg width="360" height="360" viewBox="0 0 360 360" fill="none" xmlns="http://www.w3.org/2000/svg">
<g clip-path="url(#clip0_4459_29327)">
<rect width="360" height="360" rx="8" fill="#2C3741"/>
<circle cx="299.5" cy="290.5" r="50.5" fill="#58CAB3"/>
<path fill-rule="evenodd" clip-rule="evenodd" d="M31 183.5C31 187.694 31.906 191.677 33.533 195.263C23.607 201.44 17 212.448 17 225C17 228.361 17.4738 231.612 18.3582 234.688C-15.8202 243.79 -41 274.955 -41 312C-41 356.183 -5.18278 392 39 392C83.1828 392 119 356.183 119 312C119 297.075 114.913 283.104 107.796 271.146C131.246 266.783 149 246.215 149 221.5C149 193.61 126.39 171 98.5 171C94.1284 171 89.8866 171.555 85.8412 172.6C81.561 162.268 71.3793 155 59.5 155C43.7599 155 31 167.76 31 183.5ZM277 253C284.427 253 291.443 251.24 297.654 248.114C298.708 249.721 299.921 251.215 301.27 252.575C270.231 263.575 248 293.191 248 328C248 372.183 283.817 408 328 408C372.183 408 408 372.183 408 328C408 289.389 380.647 257.167 344.262 249.654C347.864 244.881 350 238.94 350 232.5C350 217.231 337.993 204.767 322.906 204.034C321.377 180.011 301.409 161 277 161C251.595 161 231 181.595 231 207C231 232.405 251.595 253 277 253Z" fill="#395168"/>
<path fill-rule="evenodd" clip-rule="evenodd" d="M87.9134 352.518C115.614 348.888 137 325.191 137 296.5C137 265.296 111.704 240 80.5 240C54.5584 240 32.7003 257.483 26.0654 281.31C23.3619 280.459 20.4845 280 17.5 280C1.75988 280 -11 292.76 -11 308.5C-11 315.556 -8.43584 322.013 -4.1885 326.99C-9.7477 335.104 -13 344.922 -13 355.5C-13 383.39 9.60962 406 37.5 406C65.3904 406 88 383.39 88 355.5C88 354.499 87.9709 353.505 87.9134 352.518ZM381 339.5C381 370.704 355.704 396 324.5 396C293.296 396 268 370.704 268 339.5C268 323.733 274.458 309.475 284.874 299.226C272.329 296.239 263 284.959 263 271.5C263 255.76 275.76 243 291.5 243C307.24 243 320 255.76 320 271.5C320 275.765 319.063 279.811 317.384 283.444C319.715 283.151 322.09 283 324.5 283C355.704 283 381 308.296 381 339.5Z" fill="#58CAB3"/>
<g clip-path="url(#clip1_4459_29327)">
<path d="M148.833 30H66.1667C46.1924 30 30 46.0718 30 65.8974C30 85.723 46.1924 101.795 66.1667 101.795H148.833C168.808 101.795 185 85.723 185 65.8974C185 46.0718 168.808 30 148.833 30Z" fill="#E4E9F0"/>
<path d="M148.833 101.795C168.808 101.795 185 85.723 185 65.8974C185 46.0718 168.808 30 148.833 30C128.859 30 112.667 46.0718 112.667 65.8974C112.667 85.723 128.859 101.795 148.833 101.795Z" fill="#2AD5EF"/>
<path d="M156.448 56.4522L154.009 58.0522C153.567 57.2048 153.03 56.5202 152.397 56.0009C151.57 55.3727 150.537 55.0573 149.297 55.0573C147.919 55.0573 146.804 55.4548 145.949 56.2471C145.094 57.0125 144.668 58.0253 144.668 59.283C144.668 60.2125 145.011 61.0061 145.701 61.6625C146.251 62.2099 147.216 62.7843 148.594 63.3855L151.24 64.5343C153.195 65.3817 154.615 66.2432 155.497 67.1189C156.82 68.4317 157.481 70.0868 157.481 72.083C157.481 74.5714 156.654 76.5958 155.001 78.1548C153.348 79.7138 151.268 80.4932 148.76 80.4932C146.28 80.4932 144.282 79.7548 142.766 78.2779C141.526 77.074 140.671 75.4612 140.204 73.4368L143.18 72.6163C143.373 73.9843 143.924 75.1458 144.833 76.1035C145.853 77.1163 147.175 77.6214 148.801 77.6214C150.564 77.6214 151.928 77.1022 152.893 76.0625C153.857 74.9958 154.34 73.7099 154.34 72.2061C154.34 70.8932 153.885 69.8266 152.976 69.0061C152.451 68.5138 151.35 67.8843 149.669 67.1189L147.189 65.9702C145.507 65.2048 144.283 64.4522 143.51 63.7138C142.242 62.5099 141.609 61.0202 141.609 59.242C141.609 57.1355 142.325 55.4407 143.758 54.1548C145.218 52.842 147.078 52.1855 149.338 52.1855C151.046 52.1855 152.521 52.5958 153.761 53.4163C154.89 54.1548 155.786 55.1663 156.448 56.4522ZM55.513 80.0009V52.6368H61.1343C65.3775 52.6368 68.7681 53.7035 71.3023 55.8368C74.4437 58.4355 76.0143 61.9355 76.0143 66.3394C76.0143 70.6061 74.4023 74.1073 71.1783 76.842C69.8557 77.9638 68.4361 78.7702 66.921 79.2625C65.4059 79.7548 63.4632 80.0009 61.093 80.0009H55.513ZM58.5717 55.5086V77.1291H61.2583C64.5379 77.1291 67.169 76.3086 69.153 74.6676C71.633 72.5894 72.873 69.8125 72.873 66.3394C72.873 63.0573 71.8125 60.4317 69.6903 58.4625C67.5681 56.4932 64.7575 55.5086 61.2583 55.5086H58.5717Z" fill="#303741"/>
<path d="M52.1392 120.168H54.3867C55.0661 120.168 55.6602 120.228 56.1692 120.347C56.6768 120.459 57.1508 120.677 57.59 121.001C58.1144 121.394 58.52 121.889 58.8042 122.488C59.0961 123.087 59.2433 123.741 59.2433 124.45C59.2433 125.946 58.666 127.094 57.5125 127.898C57.0475 128.223 56.5735 128.441 56.0917 128.552C55.6086 128.664 55.0325 128.719 54.3608 128.719H52.1392V120.168ZM53.8183 121.603V127.283H54.335C55.2133 127.283 55.9147 127.094 56.4404 126.719C56.7762 126.479 57.0385 126.159 57.2283 125.757C57.4169 125.347 57.5125 124.911 57.5125 124.45C57.5147 124.007 57.4177 123.569 57.2283 123.168C57.0604 122.774 56.7935 122.43 56.4533 122.168C55.9444 121.792 55.2392 121.603 54.335 121.603H53.8183ZM68.3354 128.719L67.5733 126.924H64.0987L63.3366 128.719H61.5154L65.2483 119.988H66.5141L70.1437 128.719H68.3354ZM64.6283 125.565H67.0825L65.8683 122.488L64.6283 125.565ZM77.0373 121.603H75.0998V128.719H73.4207V121.603H71.4832V120.168H77.0373V121.603ZM85.14 128.719L84.3779 126.924H80.9033L80.1412 128.719H78.32L82.0529 119.988H83.3187L86.9496 128.719H85.14ZM81.4329 125.565H83.887L82.6729 122.488L81.4329 125.565ZM99.068 121.36L98.3059 121.86C98.1836 121.614 98.0122 121.396 97.8022 121.219C97.5438 121.023 97.2209 120.924 96.8334 120.924C96.402 120.924 96.0545 121.048 95.7872 121.296C95.5198 121.536 95.3867 121.851 95.3867 122.244C95.3867 122.536 95.494 122.783 95.7097 122.988C95.8815 123.159 96.1837 123.338 96.6138 123.527L97.4405 123.886C98.0515 124.151 98.4945 124.42 98.7709 124.693C99.1842 125.103 99.3909 125.62 99.3909 126.244C99.3909 127.023 99.1326 127.655 98.6159 128.142C98.0993 128.629 97.4482 128.873 96.6655 128.873C95.8905 128.873 95.2653 128.642 94.7926 128.18C94.4051 127.805 94.1377 127.3 93.9917 126.668L94.9217 126.411C94.9825 126.838 95.1542 127.202 95.4384 127.501C95.7562 127.818 96.1695 127.975 96.6784 127.975C97.2287 127.975 97.6562 127.812 97.9572 127.488C98.2581 127.155 98.4092 126.753 98.4092 126.283C98.4092 125.873 98.2672 125.539 97.983 125.283C97.819 125.129 97.4754 124.933 96.9497 124.693L96.1747 124.334C95.649 124.094 95.2666 123.86 95.0251 123.629C94.8325 123.451 94.68 123.234 94.5776 122.993C94.4753 122.753 94.4253 122.493 94.4309 122.232C94.4309 121.574 94.6544 121.043 95.1026 120.642C95.5585 120.232 96.1398 120.027 96.8463 120.027C97.3798 120.027 97.8409 120.155 98.2284 120.411C98.581 120.642 98.8613 120.959 99.068 121.36ZM110.016 127.603C109.155 128.45 108.095 128.873 106.839 128.873C105.581 128.873 104.518 128.45 103.648 127.603C102.787 126.757 102.357 125.706 102.357 124.45C102.357 123.184 102.791 122.133 103.661 121.296C104.53 120.45 105.59 120.027 106.839 120.027C108.086 120.027 109.146 120.45 110.016 121.296C110.885 122.133 111.321 123.184 111.321 124.45C111.321 125.706 110.885 126.757 110.016 127.603ZM109.319 121.95C108.999 121.618 108.613 121.356 108.187 121.18C107.76 121.003 107.301 120.916 106.839 120.924C105.865 120.924 105.038 121.266 104.359 121.95C103.678 122.633 103.338 123.466 103.338 124.45C103.338 125.433 103.678 126.266 104.359 126.95C105.038 127.633 105.865 127.975 106.839 127.975C107.811 127.975 108.638 127.633 109.319 126.95C109.998 126.266 110.339 125.433 110.339 124.45C110.339 123.466 109.998 122.633 109.319 121.95ZM114.755 120.168H115.711V127.821H118.088V128.719H114.755V120.168ZM122.02 120.168V125.411C122.02 125.736 122.023 125.988 122.033 126.168C122.049 126.347 122.11 126.569 122.213 126.834C122.326 127.091 122.489 127.309 122.704 127.488C123.092 127.812 123.566 127.975 124.125 127.975C124.684 127.975 125.158 127.812 125.546 127.488C125.762 127.309 125.92 127.091 126.024 126.834C126.122 126.624 126.183 126.398 126.205 126.168C126.221 125.988 126.23 125.736 126.23 125.411V120.168H127.186V125.668C127.186 126.539 127.005 127.223 126.644 127.719C126.376 128.078 126.024 128.36 125.585 128.565C125.154 128.77 124.668 128.873 124.125 128.873C123.583 128.873 123.092 128.77 122.653 128.565C122.239 128.373 121.879 128.083 121.606 127.719C121.245 127.223 121.064 126.539 121.064 125.668V120.168H122.02ZM135.304 121.065H133.212V128.719H132.256V121.065H130.164V120.168H135.304V121.065ZM138.273 120.168H139.229V128.719H138.273V120.168ZM150.324 127.603C149.464 128.45 148.405 128.873 147.146 128.873C145.89 128.873 144.827 128.45 143.956 127.603C143.096 126.757 142.664 125.706 142.664 124.45C142.664 123.184 143.1 122.133 143.969 121.296C144.84 120.45 145.899 120.027 147.146 120.027C148.395 120.027 149.455 120.45 150.324 121.296C151.194 122.133 151.629 123.184 151.629 124.45C151.629 125.706 151.194 126.757 150.324 127.603ZM149.626 121.95C149.307 121.618 148.921 121.356 148.494 121.18C148.068 121.003 147.609 120.916 147.146 120.924C146.174 120.924 145.347 121.266 144.666 121.95C143.987 122.633 143.646 123.466 143.646 124.45C143.646 125.433 143.987 126.266 144.666 126.95C145.347 127.633 146.174 127.975 147.146 127.975C148.12 127.975 148.947 127.633 149.626 126.95C150.307 126.266 150.647 125.433 150.647 124.45C150.647 123.466 150.307 122.633 149.626 121.95ZM156.02 128.719H155.064V119.809L161.781 126.796V120.168H162.737V129.103L156.02 122.116V128.719Z" fill="white"/>
</g>
<path fill-rule="evenodd" clip-rule="evenodd" d="M226 160H138V210H226C234.837 210 242 198.807 242 185C242 171.193 234.837 160 226 160Z" fill="#8B4114"/>
<path opacity="0.6" fill-rule="evenodd" clip-rule="evenodd" d="M138 202V210H226C230.635 210 234.809 206.921 237.731 202H138Z" fill="#4D1E00"/>
<rect x="159" y="172" width="28" height="4" rx="2" fill="#7D3100"/>
<rect x="192" y="172" width="15" height="4" rx="2" fill="#7D3100"/>
<rect x="159" y="194" width="18" height="4" rx="2" fill="#7D3100"/>
<rect x="182" y="194" width="24" height="4" rx="2" fill="#7D3100"/>
<rect x="211" y="194" width="18" height="4" rx="2" fill="#7D3100"/>
<rect x="164" y="183" width="13" height="4" rx="2" fill="#7D3100"/>
<rect x="182" y="183" width="35" height="4" rx="2" fill="#7D3100"/>
<rect x="222" y="183" width="6" height="4" rx="2" fill="#7D3100"/>
<ellipse cx="138" cy="185" rx="16" ry="25" fill="#F3BA74"/>
<path d="M150.5 185C150.5 191.122 148.986 196.593 146.618 200.484C144.234 204.401 141.143 206.5 138 206.5C134.857 206.5 131.766 204.401 129.382 200.484C127.014 196.593 125.5 191.122 125.5 185C125.5 178.878 127.014 173.407 129.382 169.516C131.766 165.599 134.857 163.5 138 163.5C141.143 163.5 144.234 165.599 146.618 169.516C148.986 173.407 150.5 178.878 150.5 185Z" stroke="#DD9F54" stroke-width="3"/>
<path d="M145.5 185C145.5 189.5 144.531 193.499 143.038 196.319C141.51 199.206 139.656 200.5 138 200.5C136.344 200.5 134.49 199.206 132.962 196.319C131.469 193.499 130.5 189.5 130.5 185C130.5 180.5 131.469 176.501 132.962 173.681C134.49 170.794 136.344 169.5 138 169.5C139.656 169.5 141.51 170.794 143.038 173.681C144.531 176.501 145.5 180.5 145.5 185Z" stroke="#DD9F54" stroke-width="3"/>
<path d="M140.5 185C140.5 187.619 140.073 189.922 139.436 191.514C139.116 192.314 138.772 192.861 138.467 193.183C138.167 193.5 138.009 193.5 138 193.5H138H138C137.991 193.5 137.833 193.5 137.533 193.183C137.228 192.861 136.884 192.314 136.564 191.514C135.927 189.922 135.5 187.619 135.5 185C135.5 182.381 135.927 180.078 136.564 178.486C136.884 177.686 137.228 177.139 137.533 176.817C137.833 176.5 137.991 176.5 138 176.5L138 176.5L138 176.5C138.009 176.5 138.167 176.5 138.467 176.817C138.772 177.139 139.116 177.686 139.436 178.486C140.073 180.078 140.5 182.381 140.5 185Z" stroke="#DD9F54" stroke-width="3"/>
<path fill-rule="evenodd" clip-rule="evenodd" d="M123 260H283V310H123C114.163 310 107 298.807 107 285C107 271.193 114.163 260 123 260Z" fill="#8B4114"/>
<path opacity="0.6" fill-rule="evenodd" clip-rule="evenodd" d="M281 302V310H143V309.997C142.911 309.999 142.821 310 142.732 310C138.097 310 133.922 306.921 131 302H281Z" fill="#4D1E00"/>
<ellipse cx="16" cy="25" rx="16" ry="25" transform="matrix(-1 0 0 1 297 260)" fill="#F3BA74"/>
<rect width="28" height="4" rx="2" transform="matrix(-1 0 0 1 260 272)" fill="#7D3100"/>
<rect width="15" height="4" rx="2" transform="matrix(-1 0 0 1 227 272)" fill="#7D3100"/>
<rect width="18" height="4" rx="2" transform="matrix(-1 0 0 1 260 294)" fill="#7D3100"/>
<rect width="24" height="4" rx="2" transform="matrix(-1 0 0 1 237 294)" fill="#7D3100"/>
<rect width="18" height="4" rx="2" transform="matrix(-1 0 0 1 208 294)" fill="#7D3100"/>
<rect width="13" height="4" rx="2" transform="matrix(-1 0 0 1 255 283)" fill="#7D3100"/>
<rect width="35" height="4" rx="2" transform="matrix(-1 0 0 1 237 283)" fill="#7D3100"/>
<rect width="6" height="4" rx="2" transform="matrix(-1 0 0 1 197 283)" fill="#7D3100"/>
<path d="M268.5 285C268.5 291.122 270.014 296.593 272.382 300.484C274.766 304.401 277.857 306.5 281 306.5C284.143 306.5 287.234 304.401 289.618 300.484C291.986 296.593 293.5 291.122 293.5 285C293.5 278.878 291.986 273.407 289.618 269.516C287.234 265.599 284.143 263.5 281 263.5C277.857 263.5 274.766 265.599 272.382 269.516C270.014 273.407 268.5 278.878 268.5 285Z" stroke="#DD9F54" stroke-width="3"/>
<path d="M273.5 285C273.5 289.5 274.469 293.499 275.962 296.319C277.49 299.206 279.344 300.5 281 300.5C282.656 300.5 284.51 299.206 286.038 296.319C287.531 293.499 288.5 289.5 288.5 285C288.5 280.5 287.531 276.501 286.038 273.681C284.51 270.794 282.656 269.5 281 269.5C279.344 269.5 277.49 270.794 275.962 273.681C274.469 276.501 273.5 280.5 273.5 285Z" stroke="#DD9F54" stroke-width="3"/>
<path d="M278.5 285C278.5 287.619 278.927 289.922 279.564 291.514C279.884 292.314 280.228 292.861 280.533 293.183C280.833 293.5 280.991 293.5 281 293.5H281H281C281.009 293.5 281.167 293.5 281.467 293.183C281.772 292.861 282.116 292.314 282.436 291.514C283.073 289.922 283.5 287.619 283.5 285C283.5 282.381 283.073 280.078 282.436 278.486C282.116 277.686 281.772 277.139 281.467 276.817C281.167 276.5 281.009 276.5 281 276.5L281 276.5L281 276.5C280.991 276.5 280.833 276.5 280.533 276.817C280.228 277.139 279.884 277.686 279.564 278.486C278.927 280.078 278.5 282.381 278.5 285Z" stroke="#DD9F54" stroke-width="3"/>
<path fill-rule="evenodd" clip-rule="evenodd" d="M269 210H98V260H269C277.837 260 285 248.807 285 235C285 221.193 277.837 210 269 210Z" fill="#712D02"/>
<path opacity="0.2" fill-rule="evenodd" clip-rule="evenodd" d="M98 252V260H268C272.635 260 276.809 256.921 279.731 252H98Z" fill="#150800"/>
<rect x="119" y="222" width="28" height="4" rx="2" fill="#7D3708"/>
<rect x="152" y="222" width="15" height="4" rx="2" fill="#7D3708"/>
<rect x="172" y="222" width="56" height="4" rx="2" fill="#7D3708"/>
<rect x="233" y="222" width="27" height="4" rx="2" fill="#7D3708"/>
<rect x="119" y="244" width="18" height="4" rx="2" fill="#7D3708"/>
<rect x="142" y="244" width="24" height="4" rx="2" fill="#7D3708"/>
<rect x="171" y="244" width="18" height="4" rx="2" fill="#7D3708"/>
<rect x="194" y="244" width="6" height="4" rx="2" fill="#7D3708"/>
<rect x="205" y="244" width="47" height="4" rx="2" fill="#7D3708"/>
<rect x="124" y="233" width="13" height="4" rx="2" fill="#7D3708"/>
<rect x="142" y="233" width="35" height="4" rx="2" fill="#7D3708"/>
<rect x="182" y="233" width="6" height="4" rx="2" fill="#7D3708"/>
<rect x="193" y="233" width="35" height="4" rx="2" fill="#7D3708"/>
<rect x="233" y="233" width="13" height="4" rx="2" fill="#7D3708"/>
<rect x="251" y="233" width="13" height="4" rx="2" fill="#7D3708"/>
<ellipse cx="98" cy="235" rx="16" ry="25" fill="#F3BA74"/>
<path d="M110.5 235C110.5 241.122 108.986 246.593 106.618 250.484C104.234 254.401 101.143 256.5 98 256.5C94.8572 256.5 91.7662 254.401 89.3818 250.484C87.0136 246.593 85.5 241.122 85.5 235C85.5 228.878 87.0136 223.407 89.3818 219.516C91.7662 215.599 94.8572 213.5 98 213.5C101.143 213.5 104.234 215.599 106.618 219.516C108.986 223.407 110.5 228.878 110.5 235Z" stroke="#DD9F54" stroke-width="3"/>
<path d="M105.5 235C105.5 239.5 104.531 243.499 103.038 246.319C101.51 249.206 99.6559 250.5 98 250.5C96.3441 250.5 94.4902 249.206 92.9617 246.319C91.4688 243.499 90.5 239.5 90.5 235C90.5 230.5 91.4688 226.501 92.9617 223.681C94.4902 220.794 96.3441 219.5 98 219.5C99.6559 219.5 101.51 220.794 103.038 223.681C104.531 226.501 105.5 230.5 105.5 235Z" stroke="#DD9F54" stroke-width="3"/>
<path d="M100.5 235C100.5 237.619 100.073 239.922 99.4357 241.514C99.1156 242.314 98.772 242.861 98.4671 243.183C98.1674 243.5 98.0092 243.5 98.0002 243.5H98H97.9998C97.9908 243.5 97.8326 243.5 97.5329 243.183C97.228 242.861 96.8844 242.314 96.5643 241.514C95.9274 239.922 95.5 237.619 95.5 235C95.5 232.381 95.9274 230.078 96.5643 228.486C96.8844 227.686 97.228 227.139 97.5329 226.817C97.8326 226.5 97.9908 226.5 97.9998 226.5L98 226.5L98.0002 226.5C98.0092 226.5 98.1674 226.5 98.4671 226.817C98.772 227.139 99.1156 227.686 99.4357 228.486C100.073 230.078 100.5 232.381 100.5 235Z" stroke="#DD9F54" stroke-width="3"/>
<path fill-rule="evenodd" clip-rule="evenodd" d="M212 310H41V360H212C220.837 360 228 348.807 228 335C228 321.193 220.837 310 212 310Z" fill="#712D02"/>
<path opacity="0.2" fill-rule="evenodd" clip-rule="evenodd" d="M42 352V360H212C216.635 360 220.809 356.921 223.731 352H42Z" fill="#150800"/>
<ellipse cx="41" cy="335" rx="16" ry="25" fill="#F3BA74"/>
<rect x="62" y="322" width="28" height="4" rx="2" fill="#7D3708"/>
<rect x="95" y="322" width="15" height="4" rx="2" fill="#7D3708"/>
<rect x="115" y="322" width="56" height="4" rx="2" fill="#7D3708"/>
<rect x="176" y="322" width="27" height="4" rx="2" fill="#7D3708"/>
<rect x="62" y="344" width="18" height="4" rx="2" fill="#7D3708"/>
<rect x="85" y="344" width="24" height="4" rx="2" fill="#7D3708"/>
<rect x="114" y="344" width="18" height="4" rx="2" fill="#7D3708"/>
<rect x="137" y="344" width="6" height="4" rx="2" fill="#7D3708"/>
<rect x="148" y="344" width="47" height="4" rx="2" fill="#7D3708"/>
<rect x="67" y="333" width="13" height="4" rx="2" fill="#7D3708"/>
<rect x="85" y="333" width="35" height="4" rx="2" fill="#7D3708"/>
<rect x="125" y="333" width="6" height="4" rx="2" fill="#7D3708"/>
<rect x="136" y="333" width="35" height="4" rx="2" fill="#7D3708"/>
<rect x="176" y="333" width="13" height="4" rx="2" fill="#7D3708"/>
<rect x="194" y="333" width="13" height="4" rx="2" fill="#7D3708"/>
<path d="M53.5 335C53.5 341.122 51.9864 346.593 49.6182 350.484C47.2338 354.401 44.1428 356.5 41 356.5C37.8572 356.5 34.7662 354.401 32.3818 350.484C30.0136 346.593 28.5 341.122 28.5 335C28.5 328.878 30.0136 323.407 32.3818 319.516C34.7662 315.599 37.8572 313.5 41 313.5C44.1428 313.5 47.2338 315.599 49.6182 319.516C51.9864 323.407 53.5 328.878 53.5 335Z" stroke="#DD9F54" stroke-width="3"/>
<path d="M48.5 335C48.5 339.5 47.5312 343.499 46.0383 346.319C44.5098 349.206 42.6559 350.5 41 350.5C39.3441 350.5 37.4902 349.206 35.9617 346.319C34.4688 343.499 33.5 339.5 33.5 335C33.5 330.5 34.4688 326.501 35.9617 323.681C37.4902 320.794 39.3441 319.5 41 319.5C42.6559 319.5 44.5098 320.794 46.0383 323.681C47.5312 326.501 48.5 330.5 48.5 335Z" stroke="#DD9F54" stroke-width="3"/>
<path d="M43.5 335C43.5 337.619 43.0726 339.922 42.4357 341.514C42.1156 342.314 41.772 342.861 41.4671 343.183C41.1674 343.5 41.0092 343.5 41.0002 343.5H41H40.9998C40.9908 343.5 40.8326 343.5 40.5329 343.183C40.228 342.861 39.8844 342.314 39.5643 341.514C38.9274 339.922 38.5 337.619 38.5 335C38.5 332.381 38.9274 330.078 39.5643 328.486C39.8844 327.686 40.228 327.139 40.5329 326.817C40.8326 326.5 40.9908 326.5 40.9998 326.5L41 326.5L41.0002 326.5C41.0092 326.5 41.1674 326.5 41.4671 326.817C41.772 327.139 42.1156 327.686 42.4357 328.486C43.0726 330.078 43.5 332.381 43.5 335Z" stroke="#DD9F54" stroke-width="3"/>
<path fill-rule="evenodd" clip-rule="evenodd" d="M319 310H148V360H319C327.837 360 335 348.807 335 335C335 321.193 327.837 310 319 310Z" fill="#712D02"/>
<path opacity="0.2" fill-rule="evenodd" clip-rule="evenodd" d="M149 352V360H319C323.635 360 327.809 356.921 330.731 352H149Z" fill="#150800"/>
<ellipse cx="148" cy="335" rx="16" ry="25" fill="#F3BA74"/>
<rect x="169" y="322" width="28" height="4" rx="2" fill="#7D3708"/>
<rect x="202" y="322" width="15" height="4" rx="2" fill="#7D3708"/>
<rect x="222" y="322" width="56" height="4" rx="2" fill="#7D3708"/>
<rect x="283" y="322" width="27" height="4" rx="2" fill="#7D3708"/>
<rect x="169" y="344" width="18" height="4" rx="2" fill="#7D3708"/>
<rect x="192" y="344" width="24" height="4" rx="2" fill="#7D3708"/>
<rect x="221" y="344" width="18" height="4" rx="2" fill="#7D3708"/>
<rect x="244" y="344" width="6" height="4" rx="2" fill="#7D3708"/>
<rect x="255" y="344" width="47" height="4" rx="2" fill="#7D3708"/>
<rect x="174" y="333" width="13" height="4" rx="2" fill="#7D3708"/>
<rect x="192" y="333" width="35" height="4" rx="2" fill="#7D3708"/>
<rect x="232" y="333" width="6" height="4" rx="2" fill="#7D3708"/>
<rect x="243" y="333" width="35" height="4" rx="2" fill="#7D3708"/>
<rect x="283" y="333" width="13" height="4" rx="2" fill="#7D3708"/>
<rect x="301" y="333" width="13" height="4" rx="2" fill="#7D3708"/>
<path d="M160.5 335C160.5 341.122 158.986 346.593 156.618 350.484C154.234 354.401 151.143 356.5 148 356.5C144.857 356.5 141.766 354.401 139.382 350.484C137.014 346.593 135.5 341.122 135.5 335C135.5 328.878 137.014 323.407 139.382 319.516C141.766 315.599 144.857 313.5 148 313.5C151.143 313.5 154.234 315.599 156.618 319.516C158.986 323.407 160.5 328.878 160.5 335Z" stroke="#DD9F54" stroke-width="3"/>
<path d="M155.5 335C155.5 339.5 154.531 343.499 153.038 346.319C151.51 349.206 149.656 350.5 148 350.5C146.344 350.5 144.49 349.206 142.962 346.319C141.469 343.499 140.5 339.5 140.5 335C140.5 330.5 141.469 326.501 142.962 323.681C144.49 320.794 146.344 319.5 148 319.5C149.656 319.5 151.51 320.794 153.038 323.681C154.531 326.501 155.5 330.5 155.5 335Z" stroke="#DD9F54" stroke-width="3"/>
<path d="M150.5 335C150.5 337.619 150.073 339.922 149.436 341.514C149.116 342.314 148.772 342.861 148.467 343.183C148.167 343.5 148.009 343.5 148 343.5H148H148C147.991 343.5 147.833 343.5 147.533 343.183C147.228 342.861 146.884 342.314 146.564 341.514C145.927 339.922 145.5 337.619 145.5 335C145.5 332.381 145.927 330.078 146.564 328.486C146.884 327.686 147.228 327.139 147.533 326.817C147.833 326.5 147.991 326.5 148 326.5L148 326.5L148 326.5C148.009 326.5 148.167 326.5 148.467 326.817C148.772 327.139 149.116 327.686 149.436 328.486C150.073 330.078 150.5 332.381 150.5 335Z" stroke="#DD9F54" stroke-width="3"/>
<rect x="189" y="119.789" width="110" height="190.208" rx="9.16667" fill="#161718"/>
<rect x="195.875" y="126.664" width="96.25" height="176.458" rx="4.58333" fill="#F2F5F8"/>
<path d="M195.875 131.247C195.875 128.716 197.927 126.664 200.458 126.664H287.542C290.073 126.664 292.125 128.716 292.125 131.247V147.289H195.875V131.247Z" fill="#3E5467"/>
<circle cx="211.917" cy="163.332" r="6.875" fill="#D0D6DF"/>
<circle cx="211.917" cy="163.335" r="2.29167" fill="white"/>
<circle cx="233.306" cy="163.332" r="6.30208" fill="#F2F5F8" stroke="#D0D6DF" stroke-width="1.14583"/>
<circle cx="254.694" cy="163.332" r="6.30208" fill="#F2F5F8" stroke="#D0D6DF" stroke-width="1.14583"/>
<circle cx="276.083" cy="163.332" r="6.30208" fill="#F2F5F8" stroke="#D0D6DF" stroke-width="1.14583"/>
<rect x="205.042" y="179.371" width="77.9167" height="42.3958" rx="4.58333" fill="white"/>
<rect x="211.917" y="186.246" width="30.9375" height="5.72917" rx="2.86458" fill="#A0ACBC"/>
<rect x="211.917" y="196.559" width="57.2917" height="3.4375" rx="1.71875" fill="#DFE4EA"/>
<rect x="211.917" y="212.602" width="30.9375" height="3.4375" rx="1.71875" fill="#A0D728"/>
<rect x="211.917" y="202.289" width="40.1042" height="3.4375" rx="1.71875" fill="#DFE4EA"/>
<rect x="205.042" y="226.352" width="77.9167" height="42.3958" rx="4.58333" fill="white"/>
<rect x="211.917" y="233.227" width="46.9792" height="5.72917" rx="2.86458" fill="#A0ACBC"/>
<rect x="211.917" y="243.539" width="57.2917" height="3.4375" rx="1.71875" fill="#DFE4EA"/>
<rect x="211.917" y="259.582" width="30.9375" height="3.4375" rx="1.71875" fill="#FF4D4F"/>
<rect x="211.917" y="249.27" width="40.1042" height="3.4375" rx="1.71875" fill="#DFE4EA"/>
<rect x="205.042" y="275.621" width="77.9167" height="18.3333" rx="4.58333" fill="#32475A"/>
<rect x="229.104" y="131.246" width="29.7917" height="2.29167" rx="1.14583" fill="#687A8A"/>
<path fill-rule="evenodd" clip-rule="evenodd" d="M69 260H207V310H69C60.1634 310 53 298.807 53 285C53 271.193 60.1634 260 69 260Z" fill="#8B4114"/>
<path opacity="0.6" fill-rule="evenodd" clip-rule="evenodd" d="M207 302V310H69V309.997C68.9107 309.999 68.8212 310 68.7315 310C64.0966 310 59.922 306.921 57 302H207Z" fill="#4D1E00"/>
<rect width="28" height="4" rx="2" transform="matrix(-1 0 0 1 186 272)" fill="#7D3100"/>
<rect width="15" height="4" rx="2" transform="matrix(-1 0 0 1 153 272)" fill="#7D3100"/>
<rect width="15" height="4" rx="2" transform="matrix(-1 0 0 1 133 272)" fill="#7D3100"/>
<rect width="4" height="4" rx="2" transform="matrix(-1 0 0 1 113 272)" fill="#7D3100"/>
<rect width="25" height="4" rx="2" transform="matrix(-1 0 0 1 104 272)" fill="#7D3100"/>
<rect width="18" height="4" rx="2" transform="matrix(-1 0 0 1 186 294)" fill="#7D3100"/>
<rect width="24" height="4" rx="2" transform="matrix(-1 0 0 1 163 294)" fill="#7D3100"/>
<rect width="18" height="4" rx="2" transform="matrix(-1 0 0 1 134 294)" fill="#7D3100"/>
<rect width="24" height="4" rx="2" transform="matrix(-1 0 0 1 111 294)" fill="#7D3100"/>
<rect width="15" height="4" rx="2" transform="matrix(-1 0 0 1 82 294)" fill="#7D3100"/>
<rect width="35" height="4" rx="2" transform="matrix(-1 0 0 1 181 283)" fill="#7D3100"/>
<rect width="13" height="4" rx="2" transform="matrix(-1 0 0 1 141 283)" fill="#7D3100"/>
<rect width="6" height="4" rx="2" transform="matrix(-1 0 0 1 123 283)" fill="#7D3100"/>
<rect width="30" height="4" rx="2" transform="matrix(-1 0 0 1 112 283)" fill="#7D3100"/>
<rect width="13" height="4" rx="2" transform="matrix(-1 0 0 1 77 283)" fill="#7D3100"/>
<ellipse cx="16" cy="25" rx="16" ry="25" transform="matrix(-1 0 0 1 223 260)" fill="#F3BA74"/>
<path d="M194.5 285C194.5 291.122 196.014 296.593 198.382 300.484C200.766 304.401 203.857 306.5 207 306.5C210.143 306.5 213.234 304.401 215.618 300.484C217.986 296.593 219.5 291.122 219.5 285C219.5 278.878 217.986 273.407 215.618 269.516C213.234 265.599 210.143 263.5 207 263.5C203.857 263.5 200.766 265.599 198.382 269.516C196.014 273.407 194.5 278.878 194.5 285Z" stroke="#DD9F54" stroke-width="3"/>
<path d="M199.5 285C199.5 289.5 200.469 293.499 201.962 296.319C203.49 299.206 205.344 300.5 207 300.5C208.656 300.5 210.51 299.206 212.038 296.319C213.531 293.499 214.5 289.5 214.5 285C214.5 280.5 213.531 276.501 212.038 273.681C210.51 270.794 208.656 269.5 207 269.5C205.344 269.5 203.49 270.794 201.962 273.681C200.469 276.501 199.5 280.5 199.5 285Z" stroke="#DD9F54" stroke-width="3"/>
<path d="M204.5 285C204.5 287.619 204.927 289.922 205.564 291.514C205.884 292.314 206.228 292.861 206.533 293.183C206.833 293.5 206.991 293.5 207 293.5H207H207C207.009 293.5 207.167 293.5 207.467 293.183C207.772 292.861 208.116 292.314 208.436 291.514C209.073 289.922 209.5 287.619 209.5 285C209.5 282.381 209.073 280.078 208.436 278.486C208.116 277.686 207.772 277.139 207.467 276.817C207.167 276.5 207.009 276.5 207 276.5L207 276.5L207 276.5C206.991 276.5 206.833 276.5 206.533 276.817C206.228 277.139 205.884 277.686 205.564 278.486C204.927 280.078 204.5 282.381 204.5 285Z" stroke="#DD9F54" stroke-width="3"/>
</g>
<defs>
<clipPath id="clip0_4459_29327">
<rect width="360" height="360" rx="8" fill="white"/>
</clipPath>
<clipPath id="clip1_4459_29327">
<rect width="155" height="100" fill="white" transform="translate(30 30)"/>
</clipPath>
</defs>
</svg>
