<svg width="360" height="360" viewBox="0 0 360 360" fill="none" xmlns="http://www.w3.org/2000/svg">
<g clip-path="url(#clip0_30561_104685)">
<rect width="360" height="360" rx="8" fill="#1890FF"/>
<path d="M40.9941 107.339L36.0811 118.823L35.8418 119.381L36.2266 119.85L60.7266 149.755L61.2393 150.381L61.958 150.01L76.2783 142.625L103.604 184.037L52.9727 235.366L33.1162 241.026L-3.72168 195.412L-5.27832 196.668L31.0264 241.622L-8.27441 252.825L-7.72559 254.749L32.3916 243.313L53.0176 268.854L-3.46875 298.792L-2.53125 300.56L54.2979 270.438L61.9531 279.917L-5.59668 322.4L-4 324.939L-2.40332 327.479L65.748 284.616L80.666 303.089L29.7051 360H-12V185.729L29.5 101.687L40.9941 107.339ZM199.134 279.058L189.754 292.115L145.56 262.24L144.568 261.569L144.085 262.665L139.085 274.008L138.766 274.732L139.397 275.21L167.163 296.172L187.562 351.068L189.438 350.371L168.938 295.202L168.836 294.929L168.603 294.753L141.233 274.09L145.432 264.566L189.44 294.317L190.245 294.861L190.812 294.072L199.456 282.037L207.88 360H37.7588L84.4854 307.817L86.4434 310.242L47.7549 353.886L52.2451 357.866L90.2656 314.975L121.722 353.925L123.278 352.669L111.358 337.908L126.194 323.597L126.866 322.949L126.266 322.234L105.629 297.644L125.636 275.075L149.745 311.775L162.12 354.139L167.88 352.457L155.38 309.662L155.254 309.231L155.008 308.856L129.76 270.423L141.98 256.639L196.052 250.522L199.134 279.058ZM244.409 360H209.892L201.294 280.428L235.175 276.623L244.409 360ZM268.026 360H246.422L237.163 276.4L258.295 274.027L268.026 360ZM325.945 360H270.04L260.283 273.804L281.002 271.479L290.506 357.017L292.494 356.796L282.989 271.255L316.086 267.539L325.945 360ZM374.5 360H327.956L318.073 267.316L323.26 266.734L347.535 355.624L349.465 355.097L324.965 265.383L324.739 264.557L323.889 264.652L282.769 269.269L280.964 253.021L315.114 249.108L316.689 248.929L315.848 247.584L309.636 237.676L344.816 233.698L352.422 257.812L341.22 261.077L340.101 261.403L340.594 262.46L347.094 276.381L347.417 277.072L348.169 276.943L357.927 275.266L364 294.52L369.688 292.611L363.894 274.24L366.169 273.85L365.831 271.879L363.286 272.315L358.784 258.041L364.78 256.294L364.22 254.374L358.183 256.133L350.89 233.012L370.813 230.759L374.5 360ZM124.134 322.805L110.097 336.347L91.6113 313.457L104.288 299.156L124.134 322.805ZM122.224 269.881L87.7891 308.725L85.8369 306.308L120.63 267.455L122.224 269.881ZM82.0176 301.579L67.4531 283.544L88.0664 270.581L113.188 266.771L82.0176 301.579ZM121.186 234.096L130.784 247.12L119.476 259.749L86.5498 264.742L85.9316 264.836L85.4033 265.169L63.6582 278.845L56.0986 269.484L86.9688 253.124L87.5 252.843V231.201L121.186 234.096ZM234.955 274.636L201.079 278.439L199.344 262.373L233.168 258.497L234.955 274.636ZM357.319 273.341L348.583 274.843L342.899 262.67L353.023 259.719L357.319 273.341ZM258.069 272.04L236.942 274.412L235.155 258.27L256.237 255.854L258.069 272.04ZM280.781 269.491L260.059 271.816L258.226 255.626L278.978 253.249L280.781 269.491ZM100.36 205.84L85.6504 229.543L85.5 229.785V251.639L54.8184 267.899L34.4814 242.718L53.7744 237.219L54.0273 237.146L54.2119 236.959L93.751 196.872L100.36 205.84ZM195.407 244.558L140.163 250.807L139.019 250.936L138.255 251.798L126.348 265.229L124.771 262.829L141.235 244.445L141.367 244.298L141.479 244.135L150.635 230.704L193.439 226.351L195.407 244.558ZM232.947 256.509L199.129 260.385L198.039 250.298L231.836 246.475L232.947 256.509ZM256.013 253.866L234.935 256.281L233.824 246.25L254.881 243.868L256.013 253.866ZM278.756 251.261L258.001 253.638L256.869 243.644L277.649 241.294L278.756 251.261ZM313.31 247.302L280.743 251.033L279.637 241.069L307.432 237.926L313.31 247.302ZM124.75 201.538L124.59 201.611L140.074 235.542L136.633 240.59L132.146 245.599L102.773 205.743L110.473 193.34L124.75 201.538ZM231.176 240.512L197.395 244.333L195.429 226.148L229.205 222.712L231.176 240.512ZM254.206 237.907L233.164 240.287L231.195 222.51L252.222 220.371L254.206 237.907ZM276.986 235.331L256.194 237.682L254.212 220.168L275.065 218.048L276.986 235.331ZM303.896 232.287L278.975 235.106L277.057 217.846L293.776 216.145L303.896 232.287ZM152.425 217.429L141.392 233.609L127.467 203.098L152.425 217.429ZM342.978 227.868L306.102 232.038L283.848 196.54L283.521 196.02L282.909 196.075L274.721 196.819L273.075 182.006L326.604 175.953L342.978 227.868ZM119.606 231.953L88.1826 229.253L101.638 207.573L119.606 231.953ZM193.225 224.361L152.108 228.544L163.979 211.136L164.132 210.911L164.242 210.662L165.064 208.806L191.286 206.419L193.225 224.361ZM370.642 224.739L349.051 227.181L332.677 175.267L363.612 171.77L363.5 170.775L363.388 169.782L332.063 173.323L319.159 132.408L345 124.372L367.5 114.576L370.642 224.739ZM228.984 220.724L195.214 224.159L193.278 206.238L227.04 203.166L228.984 220.724ZM251.996 218.383L230.975 220.521L229.032 202.984L250.037 201.073L251.996 218.383ZM274.845 216.06L253.987 218.181L252.03 200.892L272.948 198.989L274.845 216.06ZM292.592 214.255L276.835 215.857L274.941 198.809L282.479 198.123L292.592 214.255ZM175.919 169.517L158.869 207.979L153.555 215.771L110.704 191.166L106.165 184.287L137.815 152.201L175.919 169.517ZM191.071 204.431L165.992 206.713L172.211 192.685L189.666 191.421L191.071 204.431ZM248.506 183.774L248.615 184.772L249.612 184.659L271.087 182.23L272.728 197.001L193.063 204.249L191.662 191.277L226.072 188.788L227.083 188.715L226.996 187.705L225.16 166.332L246.412 164.6L248.506 183.774ZM108.905 192.072L101.496 204.01L95.1729 195.431L104.729 185.743L108.905 192.072ZM224.917 186.865L191.447 189.287L190.494 180.465L188.506 180.68L189.451 189.432L173.129 190.613L182.347 169.822L223.167 166.494L224.917 186.865ZM135.876 151.32L105.039 182.581L78.0674 141.703L91.958 134.542L92.2354 134.399L92.3818 134.124L93.4863 132.057L135.876 151.32ZM270.866 180.242L250.385 182.559L248.406 164.437L268.925 162.764L270.866 180.242ZM325.99 174.01L272.854 180.018L270.919 162.602L321.103 158.513L325.99 174.01ZM192.246 132.688L178.352 164.03L142.306 147.65L168.343 121.254L192.246 132.688ZM222.654 160.517L185.115 163.576L216.783 92.1396L222.654 160.517ZM245.761 158.633L224.647 160.354L220.846 116.082L240.859 113.736L245.761 158.633ZM268.262 156.799L247.755 158.47L242.049 106.204L248.5 104.78V94.9834L261.164 92.9141L268.262 156.799ZM319.251 152.645L270.257 156.636L265.966 118.015L306.344 111.721L319.251 152.645ZM58.833 116.112L58.7588 116.276L91.6611 131.228L90.7637 132.907L61.7607 147.861L38.1572 119.052L42.79 108.223L58.833 116.112ZM166.434 120.341L140.365 146.769L96.3213 126.754L113.329 94.9404L166.434 120.341ZM111.522 94.0771L94.4961 125.925L64.501 112.295L80 79L111.522 94.0771ZM305.735 109.791L265.745 116.025L263.142 92.5908L298.489 86.8174L305.735 109.791Z" fill="#40A3FF"/>
<g filter="url(#filter0_d_30561_104685)">
<path d="M59 120C59 113.373 64.3726 108 71 108H289C295.627 108 301 113.373 301 120V360H59V120Z" fill="white"/>
</g>
<path d="M34 294C35.616 294 37.1838 294.302 38.6611 294.899C40.0814 295.469 41.3765 296.301 42.4746 297.348C43.569 298.385 44.4445 299.622 45.0518 300.988C45.6807 302.404 46 303.908 46 305.456C46 307.681 45.4544 309.889 44.377 312.02C43.5157 313.734 42.313 315.408 40.7969 316.994C38.2071 319.706 35.4913 321.364 34.7197 321.808C34.4972 321.937 34.2486 322 33.9971 322C33.7429 322 33.4933 321.934 33.2744 321.808C32.5034 321.364 29.7866 319.706 27.1963 316.994C25.6803 315.405 24.4775 313.734 23.6162 312.02C22.5453 309.886 22 307.674 22 305.453C22 303.905 22.3193 302.401 22.9482 300.985C23.5563 299.62 24.4317 298.383 25.5254 297.345C26.6286 296.297 27.9098 295.472 29.3389 294.896C30.8162 294.302 32.384 294 34 294ZM34 299.946C30.9595 299.946 28.4943 302.351 28.4941 305.316C28.4941 308.282 30.9595 310.687 34 310.687C37.0405 310.687 39.5059 308.282 39.5059 305.316C39.5057 302.351 37.0405 299.946 34 299.946Z" fill="#8CD6FF"/>
<path d="M335 308C336.616 308 338.184 308.302 339.661 308.899C341.081 309.469 342.377 310.301 343.475 311.348C344.569 312.385 345.444 313.622 346.052 314.988C346.681 316.404 347 317.908 347 319.456C347 321.681 346.454 323.889 345.377 326.02C344.516 327.734 343.313 329.408 341.797 330.994C339.207 333.706 336.491 335.364 335.72 335.808C335.497 335.937 335.249 336 334.997 336C334.743 336 334.493 335.934 334.274 335.808C333.503 335.364 330.787 333.706 328.196 330.994C326.68 329.405 325.477 327.734 324.616 326.02C323.545 323.886 323 321.674 323 319.453C323 317.905 323.319 316.401 323.948 314.985C324.556 313.62 325.432 312.383 326.525 311.345C327.629 310.297 328.91 309.472 330.339 308.896C331.816 308.302 333.384 308 335 308ZM335 313.946C331.96 313.946 329.494 316.351 329.494 319.316C329.494 322.282 331.959 324.687 335 324.687C338.041 324.687 340.506 322.282 340.506 319.316C340.506 316.351 338.04 313.946 335 313.946Z" fill="#8CD6FF"/>
<path d="M323 184C324.616 184 326.184 184.302 327.661 184.899C329.081 185.469 330.377 186.301 331.475 187.348C332.569 188.385 333.444 189.622 334.052 190.988C334.681 192.404 335 193.908 335 195.456C335 197.681 334.454 199.889 333.377 202.02C332.516 203.734 331.313 205.408 329.797 206.994C327.207 209.706 324.491 211.364 323.72 211.808C323.497 211.937 323.249 212 322.997 212C322.743 212 322.493 211.934 322.274 211.808C321.503 211.364 318.787 209.706 316.196 206.994C314.68 205.405 313.477 203.734 312.616 202.02C311.545 199.886 311 197.674 311 195.453C311 193.905 311.319 192.401 311.948 190.985C312.556 189.62 313.432 188.383 314.525 187.345C315.629 186.297 316.91 185.472 318.339 184.896C319.816 184.302 321.384 184 323 184ZM323 189.946C319.96 189.946 317.494 192.351 317.494 195.316C317.494 198.282 319.959 200.687 323 200.687C326.041 200.687 328.506 198.282 328.506 195.316C328.506 192.351 326.04 189.946 323 189.946Z" fill="#8CD6FF"/>
<mask id="mask0_30561_104685" style="mask-type:alpha" maskUnits="userSpaceOnUse" x="59" y="108" width="242" height="252">
<path d="M59 120C59 113.373 64.3726 108 71 108H289C295.627 108 301 113.373 301 120V360H59V120Z" fill="white"/>
</mask>
<g mask="url(#mask0_30561_104685)">
<path d="M40.9941 107.339L36.0811 118.823L35.8418 119.381L36.2266 119.85L60.7266 149.755L61.2393 150.381L61.958 150.01L76.2783 142.625L103.604 184.037L52.9727 235.366L33.127 241.022L-3.72168 195.411L-5.27832 196.669L31.0361 241.619L-8.27441 252.825L-7.72559 254.749L32.4023 243.311L53.0322 268.846L-3.46875 298.792L-2.53125 300.56L54.3125 270.431L61.9688 279.907L-5.59668 322.4L-4 324.939L-2.40332 327.479L65.7646 284.606L80.6826 303.07L29.7051 360H-12V185.729L29.5 101.687L40.9941 107.339ZM86.46 310.223L47.7549 353.886L52.2451 357.866L90.2832 314.955L126.675 360H37.7588L84.502 307.799L86.46 310.223ZM149.749 311.78C152.18 320.073 155.169 329.395 158.144 338.668C160.485 345.968 162.816 353.24 164.874 360H129.247L111.382 337.886L126.194 323.597L126.866 322.949L126.266 322.234L105.628 297.644L125.636 275.075L149.749 311.78ZM199.134 279.058L189.754 292.115L145.56 262.24L144.568 261.569L144.085 262.665L139.085 274.008L138.766 274.732L139.397 275.21L167.163 296.171C171.137 306.87 175.474 318.743 179.811 330.619C183.473 340.647 187.138 350.676 190.584 360H171.144C168.94 352.689 166.393 344.745 163.856 336.836C160.824 327.38 157.807 317.973 155.38 309.662L155.254 309.231L155.008 308.856L129.76 270.423L141.98 256.639L196.052 250.522L199.134 279.058ZM189.44 294.317L190.245 294.861L190.812 294.072L199.456 282.037L207.88 360H192.716C189.198 350.486 185.443 340.211 181.689 329.933C177.316 317.957 172.941 305.978 168.938 295.202L168.836 294.929L168.603 294.753L141.233 274.09L145.432 264.566L189.44 294.317ZM244.409 360H209.892L201.294 280.428L235.175 276.623L244.409 360ZM268.026 360H246.422L237.163 276.4L258.295 274.027L268.026 360ZM325.945 360H270.04L260.283 273.804L281.002 271.479L290.506 357.017L292.494 356.796L282.989 271.255L316.086 267.539L325.945 360ZM374.5 360H327.956L318.073 267.316L323.26 266.734L347.535 355.624L349.465 355.097L324.965 265.383L324.739 264.557L323.889 264.652L282.769 269.269L280.964 253.021L315.114 249.108L316.689 248.929L315.848 247.584L309.636 237.676L344.816 233.698L352.422 257.812L341.22 261.077L340.101 261.403L340.594 262.46L347.094 276.381L347.417 277.072L348.169 276.943L357.927 275.266L364 294.52L369.688 292.611L363.894 274.24L366.169 273.85L365.831 271.879L363.286 272.315L358.784 258.041L364.78 256.294L364.22 254.374L358.183 256.133L350.89 233.012L370.813 230.759L374.5 360ZM124.134 322.805L110.119 336.324L91.6289 313.437L104.288 299.156L124.134 322.805ZM122.224 269.881L87.8066 308.705L85.8545 306.289L120.63 267.455L122.224 269.881ZM82.0342 301.561L67.4707 283.533L88.0664 270.581L113.188 266.771L82.0342 301.561ZM121.186 234.096L130.784 247.12L119.476 259.749L86.5498 264.742L85.9316 264.836L85.4033 265.169L63.6738 278.834L56.1143 269.477L86.9688 253.124L87.5 252.843V231.201L121.186 234.096ZM234.955 274.636L201.079 278.439L199.344 262.373L233.168 258.497L234.955 274.636ZM357.319 273.341L348.583 274.843L342.899 262.67L353.023 259.719L357.319 273.341ZM258.069 272.04L236.942 274.412L235.155 258.27L256.237 255.854L258.069 272.04ZM280.781 269.491L260.059 271.816L258.226 255.626L278.978 253.249L280.781 269.491ZM100.36 205.84L85.6504 229.543L85.5 229.785V251.639L54.833 267.892L34.4932 242.714L53.7744 237.219L54.0273 237.146L54.2119 236.959L93.751 196.872L100.36 205.84ZM195.407 244.558L140.163 250.807L139.019 250.936L138.255 251.798L126.348 265.229L124.771 262.829L141.235 244.445L141.367 244.298L141.479 244.135L150.635 230.704L193.439 226.351L195.407 244.558ZM232.947 256.509L199.129 260.385L198.039 250.298L231.836 246.475L232.947 256.509ZM256.013 253.866L234.935 256.281L233.824 246.25L254.881 243.868L256.013 253.866ZM278.756 251.261L258.001 253.638L256.869 243.644L277.649 241.294L278.756 251.261ZM313.31 247.302L280.743 251.033L279.637 241.069L307.432 237.926L313.31 247.302ZM124.75 201.538L124.59 201.611L140.074 235.542L136.633 240.59L132.146 245.599L102.773 205.743L110.473 193.34L124.75 201.538ZM231.176 240.512L197.395 244.333L195.429 226.148L229.205 222.712L231.176 240.512ZM254.206 237.907L233.164 240.287L231.195 222.51L252.222 220.371L254.206 237.907ZM276.986 235.331L256.194 237.682L254.212 220.168L275.065 218.048L276.986 235.331ZM303.896 232.287L278.975 235.106L277.057 217.846L293.776 216.145L303.896 232.287ZM152.425 217.429L141.392 233.609L127.467 203.098L152.425 217.429ZM342.978 227.868L306.102 232.038L283.848 196.54L283.521 196.02L282.909 196.075L274.721 196.819L273.075 182.006L326.604 175.953L342.978 227.868ZM119.606 231.953L88.1826 229.253L101.638 207.573L119.606 231.953ZM193.225 224.361L152.108 228.544L163.979 211.136L164.132 210.911L164.242 210.662L165.064 208.806L191.286 206.419L193.225 224.361ZM370.642 224.739L349.051 227.181L332.677 175.267L363.612 171.77L363.5 170.775L363.388 169.782L332.063 173.323L319.159 132.408L345 124.372L367.5 114.576L370.642 224.739ZM228.984 220.724L195.214 224.159L193.278 206.238L227.04 203.166L228.984 220.724ZM251.996 218.383L230.975 220.521L229.032 202.984L250.037 201.073L251.996 218.383ZM274.845 216.06L253.987 218.181L252.03 200.892L272.948 198.989L274.845 216.06ZM292.592 214.255L276.835 215.857L274.941 198.809L282.479 198.123L292.592 214.255ZM175.919 169.517L158.869 207.979L153.555 215.771L110.704 191.166L106.165 184.287L137.815 152.201L175.919 169.517ZM191.071 204.431L165.992 206.713L172.211 192.685L189.666 191.421L191.071 204.431ZM248.506 183.774L248.615 184.772L249.612 184.659L271.087 182.23L272.728 197.001L193.063 204.249L191.662 191.277L226.072 188.788L227.083 188.715L226.996 187.705L225.16 166.332L246.412 164.6L248.506 183.774ZM108.905 192.072L101.496 204.01L95.1729 195.431L104.729 185.743L108.905 192.072ZM224.917 186.865L191.447 189.287L190.494 180.465L188.506 180.68L189.451 189.432L173.129 190.613L182.347 169.822L223.167 166.494L224.917 186.865ZM135.876 151.32L105.039 182.581L78.0674 141.703L91.958 134.542L92.2354 134.399L92.3818 134.124L93.4863 132.057L135.876 151.32ZM270.866 180.242L250.385 182.559L248.406 164.437L268.925 162.764L270.866 180.242ZM325.99 174.01L272.854 180.018L270.919 162.602L321.103 158.513L325.99 174.01ZM192.246 132.688L178.352 164.03L142.306 147.65L168.343 121.254L192.246 132.688ZM222.654 160.517L185.115 163.576L216.783 92.1396L222.654 160.517ZM245.761 158.633L224.647 160.354L220.846 116.082L240.859 113.736L245.761 158.633ZM268.262 156.799L247.755 158.47L242.049 106.204L248.5 104.78V94.9834L261.164 92.9141L268.262 156.799ZM319.251 152.645L270.257 156.636L265.966 118.015L306.344 111.721L319.251 152.645ZM58.833 116.112L58.7588 116.276L91.6611 131.228L90.7637 132.907L61.7607 147.861L38.1572 119.052L42.79 108.223L58.833 116.112ZM166.434 120.341L140.365 146.769L96.3213 126.754L113.329 94.9404L166.434 120.341ZM111.522 94.0771L94.4961 125.925L64.501 112.295L80 79L111.522 94.0771ZM305.735 109.791L265.745 116.025L263.142 92.5908L298.489 86.8174L305.735 109.791Z" fill="#EFEFEF"/>
</g>
<path d="M71 113H289C292.866 113 296 116.134 296 120V377H64V120C64 116.134 67.134 113 71 113Z" stroke="white" stroke-width="10"/>
<path d="M147.214 62.6029V33.361H154.083V45.2383H155.041L160.245 33.361H167.072L160.786 47.1155L167.405 62.6029H160.37L155.041 49.5343H154.083V62.6029H147.214Z" fill="white"/>
<path d="M179.754 63C177.284 63 175.327 62.6149 173.884 61.8448C172.441 61.0746 171.4 59.9795 170.762 58.5596C170.151 57.1155 169.846 55.3947 169.846 53.3971V42.4946C169.846 40.497 170.151 38.7882 170.762 37.3682C171.4 35.9483 172.441 34.8652 173.884 34.1191C175.327 33.373 177.284 33 179.754 33C182.252 33 184.222 33.3851 185.666 34.1552C187.137 34.9013 188.177 35.9844 188.788 37.4043C189.426 38.8002 189.745 40.497 189.745 42.4946V53.3971C189.745 55.3947 189.426 57.1155 188.788 58.5596C188.177 59.9795 187.137 61.0746 185.666 61.8448C184.222 62.6149 182.252 63 179.754 63ZM179.754 58.704C180.642 58.704 181.294 58.5355 181.711 58.1986C182.127 57.8375 182.404 57.3682 182.543 56.7906C182.682 56.1889 182.751 55.5511 182.751 54.8773V41.0505C182.751 40.3767 182.682 39.7509 182.543 39.1733C182.404 38.5957 182.127 38.1384 181.711 37.8014C181.294 37.4404 180.642 37.2599 179.754 37.2599C178.921 37.2599 178.297 37.4404 177.881 37.8014C177.464 38.1384 177.187 38.5957 177.048 39.1733C176.909 39.7509 176.84 40.3767 176.84 41.0505V54.8773C176.84 55.5511 176.895 56.1889 177.006 56.7906C177.145 57.3682 177.423 57.8375 177.839 58.1986C178.255 58.5355 178.894 58.704 179.754 58.704Z" fill="white"/>
<path d="M194.415 62.6029V33.361H201.284V45.3827H207.238V33.361H214.107V62.6029H207.238V49.6426H201.284V62.6029H194.415Z" fill="white"/>
<path d="M222.458 62.6029V37.8014H217.255V33.361H234.49V37.8014H229.369V62.6029H222.458Z" fill="white"/>
<path d="M237.549 62.6029V33.361H248.248C250.274 33.361 251.925 33.698 253.202 34.3718C254.479 35.0217 255.422 35.9723 256.033 37.2238C256.671 38.4753 256.99 39.9916 256.99 41.7726C256.99 43.8664 256.574 45.503 255.742 46.6823C254.937 47.8616 253.827 48.704 252.411 49.2094C250.996 49.6907 249.372 49.9314 247.54 49.9314H244.418V62.6029H237.549ZM244.418 45.7437H246.832C247.832 45.7437 248.595 45.6113 249.122 45.3466C249.677 45.0578 250.052 44.6125 250.246 44.0108C250.441 43.4091 250.538 42.639 250.538 41.7004C250.538 40.8099 250.454 40.0638 250.288 39.4621C250.149 38.8604 249.816 38.3911 249.289 38.0542C248.761 37.7172 247.929 37.5487 246.791 37.5487H244.418V45.7437Z" fill="white"/>
<path d="M269.928 63C267.458 63 265.501 62.6149 264.058 61.8448C262.614 61.0746 261.574 59.9795 260.935 58.5596C260.325 57.1155 260.019 55.3947 260.019 53.3971V42.4946C260.019 40.497 260.325 38.7882 260.935 37.3682C261.574 35.9483 262.614 34.8652 264.058 34.1191C265.501 33.373 267.458 33 269.928 33C272.426 33 274.396 33.3851 275.839 34.1552C277.31 34.9013 278.351 35.9844 278.962 37.4043C279.6 38.8002 279.919 40.497 279.919 42.4946V53.3971C279.919 55.3947 279.6 57.1155 278.962 58.5596C278.351 59.9795 277.31 61.0746 275.839 61.8448C274.396 62.6149 272.426 63 269.928 63ZM269.928 58.704C270.816 58.704 271.468 58.5355 271.884 58.1986C272.301 57.8375 272.578 57.3682 272.717 56.7906C272.856 56.1889 272.925 55.5511 272.925 54.8773V41.0505C272.925 40.3767 272.856 39.7509 272.717 39.1733C272.578 38.5957 272.301 38.1384 271.884 37.8014C271.468 37.4404 270.816 37.2599 269.928 37.2599C269.095 37.2599 268.471 37.4404 268.054 37.8014C267.638 38.1384 267.36 38.5957 267.222 39.1733C267.083 39.7509 267.014 40.3767 267.014 41.0505V54.8773C267.014 55.5511 267.069 56.1889 267.18 56.7906C267.319 57.3682 267.596 57.8375 268.013 58.1986C268.429 58.5355 269.067 58.704 269.928 58.704Z" fill="white"/>
<path d="M282.216 62.6029V58.3791C283.076 58.3791 283.784 58.3309 284.339 58.2347C284.922 58.1143 285.38 57.8616 285.713 57.4765C286.074 57.0674 286.365 56.4537 286.587 55.6354C286.809 54.793 286.99 53.6739 287.129 52.278C287.295 50.8821 287.462 49.1131 287.628 46.9711L288.752 33.361H305.946V62.6029H299.118V37.9097H294.914L294.206 47.9097C294.039 50.2202 293.845 52.2298 293.623 53.9386C293.429 55.6233 293.11 57.0433 292.665 58.1986C292.249 59.3538 291.625 60.2804 290.792 60.9783C289.987 61.6522 288.891 62.1215 287.503 62.3863C286.115 62.627 284.353 62.6992 282.216 62.6029Z" fill="white"/>
<path d="M311.218 62.6029V33.361H318.087V45.6715H319.669C321.862 45.6715 323.708 45.9603 325.206 46.5379C326.705 47.1155 327.843 48.0301 328.62 49.2816C329.397 50.509 329.786 52.1215 329.786 54.1191C329.786 55.852 329.522 57.272 328.995 58.3791C328.495 59.4621 327.76 60.3165 326.788 60.9422C325.845 61.568 324.721 62.0012 323.416 62.2419C322.14 62.4825 320.724 62.6029 319.17 62.6029H311.218ZM318.087 58.6679H319.211C320.238 58.6679 321.057 58.5114 321.668 58.1986C322.306 57.8857 322.764 57.3923 323.042 56.7184C323.319 56.0205 323.444 55.1179 323.416 54.0108C323.388 52.7353 323.083 51.7244 322.5 50.9783C321.945 50.2082 320.821 49.8231 319.128 49.8231H318.087V58.6679Z" fill="white"/>
<rect x="191" y="128" width="4" height="34" rx="2" transform="rotate(90 191 128)" fill="#8F8F8F"/>
<rect x="202" y="128" width="4" height="4" rx="2" transform="rotate(90 202 128)" fill="#8F8F8F"/>
<path d="M106 211C108.693 211 111.306 211.507 113.769 212.511C116.136 213.467 118.294 214.861 120.124 216.619C121.948 218.361 123.407 220.438 124.419 222.73C125.467 225.107 126 227.631 126 230.229C126 233.963 125.092 237.672 123.296 241.247C121.86 244.125 119.855 246.935 117.328 249.597C113.011 254.149 108.485 256.933 107.199 257.678C106.828 257.894 106.413 258 105.994 258C105.571 258.001 105.155 257.889 104.79 257.678C103.505 256.933 98.9781 254.149 94.6611 249.597C92.1344 246.93 90.1288 244.125 88.6934 241.247C86.9084 237.666 86 233.953 86 230.225C86 227.626 86.5327 225.101 87.5811 222.725C88.5945 220.433 90.0532 218.357 91.876 216.614C93.7147 214.856 95.8497 213.471 98.2314 212.505C100.694 211.507 103.307 211 106 211ZM106 220.982C100.932 220.982 96.8242 225.018 96.8242 229.996C96.8244 234.974 100.933 239.01 106 239.01C111.067 239.01 115.176 234.974 115.176 229.996C115.176 225.018 111.068 220.982 106 220.982Z" fill="#FAAD14"/>
<path d="M251 143C253.693 143 256.306 143.507 258.769 144.511C261.136 145.467 263.294 146.861 265.124 148.619C266.948 150.361 268.407 152.438 269.419 154.73C270.467 157.107 271 159.631 271 162.229C271 165.963 270.092 169.672 268.296 173.247C266.86 176.125 264.855 178.935 262.328 181.597C258.011 186.149 253.485 188.933 252.199 189.678C251.828 189.894 251.413 190 250.994 190C250.571 190.001 250.155 189.889 249.79 189.678C248.505 188.933 243.978 186.149 239.661 181.597C237.134 178.93 235.129 176.125 233.693 173.247C231.908 169.666 231 165.953 231 162.225C231 159.626 231.533 157.101 232.581 154.725C233.595 152.433 235.053 150.357 236.876 148.614C238.715 146.856 240.85 145.471 243.231 144.505C245.694 143.507 248.307 143 251 143ZM251 152.982C245.932 152.982 241.824 157.018 241.824 161.996C241.824 166.974 245.933 171.01 251 171.01C256.067 171.01 260.176 166.974 260.176 161.996C260.176 157.018 256.068 152.982 251 152.982Z" fill="#FAAD14"/>
<path d="M185 166C189.983 166 194.817 166.938 199.372 168.796C203.751 170.566 207.743 173.149 211.129 176.402C214.503 179.627 217.204 183.469 219.076 187.713C221.016 192.112 222 196.786 222 201.596C222 208.508 220.319 215.371 216.997 221.989C214.341 227.317 210.632 232.518 205.957 237.445C197.97 245.873 189.595 251.025 187.218 252.403C186.532 252.804 185.766 253 184.99 253C184.207 253.001 183.436 252.795 182.762 252.403C180.384 251.024 172.01 245.872 164.023 237.445C159.349 232.508 155.639 227.317 152.983 221.989C149.681 215.361 148 208.488 148 201.586C148 196.776 148.984 192.102 150.924 187.703C152.799 183.461 155.499 179.619 158.871 176.393C162.273 173.137 166.222 170.575 170.628 168.786C175.183 166.938 180.017 166 185 166Z" fill="#EA7306"/>
<path d="M184.549 187.927C184.848 187.006 186.152 187.006 186.451 187.927L190.103 199.165C190.236 199.577 190.62 199.856 191.054 199.856H202.87C203.839 199.856 204.242 201.096 203.458 201.665L193.898 208.611C193.548 208.865 193.401 209.317 193.535 209.729L197.186 220.967C197.486 221.888 196.431 222.654 195.647 222.085L186.088 215.139C185.737 214.885 185.263 214.885 184.912 215.139L175.353 222.085C174.569 222.654 173.514 221.888 173.814 220.967L177.465 209.729C177.599 209.317 177.452 208.865 177.102 208.611L167.542 201.665C166.758 201.096 167.161 199.856 168.13 199.856H179.946C180.38 199.856 180.764 199.577 180.897 199.165L184.549 187.927Z" fill="white"/>
<g filter="url(#filter1_d_30561_104685)">
<rect x="84" y="288" width="192" height="52" rx="12" fill="white"/>
</g>
<rect x="94" y="298" width="113" height="16" rx="8" fill="#E3E3E3"/>
<rect x="234" y="298" width="32" height="32" rx="16" fill="#2AD5EF"/>
<rect x="94" y="320" width="97" height="3" rx="1.5" fill="#CBCBCB"/>
<rect x="94" y="327" width="45" height="3" rx="1.5" fill="#CBCBCB"/>
<g clip-path="url(#clip1_30561_104685)">
<path d="M89.4167 30H48.0833C38.0962 30 30 38.0359 30 47.9487C30 57.8615 38.0962 65.8974 48.0833 65.8974H89.4167C99.4038 65.8974 107.5 57.8615 107.5 47.9487C107.5 38.0359 99.4038 30 89.4167 30Z" fill="#E4E9F0"/>
<path d="M89.4166 65.8974C99.4037 65.8974 107.5 57.8615 107.5 47.9487C107.5 38.0359 99.4037 30 89.4166 30C79.4294 30 71.3333 38.0359 71.3333 47.9487C71.3333 57.8615 79.4294 65.8974 89.4166 65.8974Z" fill="#2AD5EF"/>
<path d="M93.2237 43.2261L92.0044 44.0261C91.7835 43.6024 91.5148 43.2601 91.1984 43.0005C90.785 42.6864 90.2684 42.5287 89.6484 42.5287C88.9593 42.5287 88.4019 42.7274 87.9744 43.1235C87.5468 43.5062 87.3337 44.0126 87.3337 44.6415C87.3337 45.1062 87.5055 45.503 87.8504 45.8312C88.1255 46.105 88.6079 46.3921 89.297 46.6928L90.6197 47.2671C91.5975 47.6909 92.3073 48.1216 92.7484 48.5594C93.4097 49.2158 93.7404 50.0434 93.7404 51.0415C93.7404 52.2857 93.327 53.2979 92.5004 54.0774C91.6737 54.8569 90.6339 55.2466 89.3797 55.2466C88.1397 55.2466 87.1406 54.8774 86.383 54.1389C85.763 53.537 85.3355 52.7306 85.1017 51.7184L86.5897 51.3082C86.6866 51.9921 86.9617 52.5729 87.4164 53.0517C87.9266 53.5582 88.5873 53.8107 89.4004 53.8107C90.2819 53.8107 90.9639 53.5511 91.4464 53.0312C91.9282 52.4979 92.1697 51.855 92.1697 51.103C92.1697 50.4466 91.9424 49.9133 91.4877 49.503C91.2255 49.2569 90.6746 48.9421 89.8344 48.5594L88.5944 47.9851C87.7535 47.6024 87.1412 47.2261 86.755 46.8569C86.1208 46.255 85.8044 45.5101 85.8044 44.621C85.8044 43.5678 86.1622 42.7203 86.879 42.0774C87.6088 41.421 88.5388 41.0928 89.669 41.0928C90.5228 41.0928 91.2604 41.2979 91.8804 41.7082C92.4448 42.0774 92.893 42.5832 93.2237 43.2261ZM42.7563 55.0005V41.3184H45.567C47.6886 41.3184 49.3839 41.8517 50.651 42.9184C52.2217 44.2178 53.007 45.9678 53.007 48.1697C53.007 50.303 52.201 52.0537 50.589 53.421C49.9277 53.9819 49.2179 54.3851 48.4603 54.6312C47.7028 54.8774 46.7315 55.0005 45.5463 55.0005H42.7563ZM44.2857 42.7543V53.5646H45.629C47.2688 53.5646 48.5843 53.1543 49.5763 52.3338C50.8163 51.2947 51.4363 49.9062 51.4363 48.1697C51.4363 46.5287 50.9061 45.2159 49.845 44.2312C48.7839 43.2466 47.3786 42.7543 45.629 42.7543H44.2857Z" fill="#303741"/>
</g>
</g>
<defs>
<filter id="filter0_d_30561_104685" x="29" y="88" width="302" height="312" filterUnits="userSpaceOnUse" color-interpolation-filters="sRGB">
<feFlood flood-opacity="0" result="BackgroundImageFix"/>
<feColorMatrix in="SourceAlpha" type="matrix" values="0 0 0 0 0 0 0 0 0 0 0 0 0 0 0 0 0 0 127 0" result="hardAlpha"/>
<feOffset dy="10"/>
<feGaussianBlur stdDeviation="15"/>
<feComposite in2="hardAlpha" operator="out"/>
<feColorMatrix type="matrix" values="0 0 0 0 0.0286806 0 0 0 0 0.269527 0 0 0 0 0.491667 0 0 0 0.8 0"/>
<feBlend mode="normal" in2="BackgroundImageFix" result="effect1_dropShadow_30561_104685"/>
<feBlend mode="normal" in="SourceGraphic" in2="effect1_dropShadow_30561_104685" result="shape"/>
</filter>
<filter id="filter1_d_30561_104685" x="64" y="268" width="232" height="92" filterUnits="userSpaceOnUse" color-interpolation-filters="sRGB">
<feFlood flood-opacity="0" result="BackgroundImageFix"/>
<feColorMatrix in="SourceAlpha" type="matrix" values="0 0 0 0 0 0 0 0 0 0 0 0 0 0 0 0 0 0 127 0" result="hardAlpha"/>
<feOffset/>
<feGaussianBlur stdDeviation="10"/>
<feComposite in2="hardAlpha" operator="out"/>
<feColorMatrix type="matrix" values="0 0 0 0 0 0 0 0 0 0 0 0 0 0 0 0 0 0 0.25 0"/>
<feBlend mode="normal" in2="BackgroundImageFix" result="effect1_dropShadow_30561_104685"/>
<feBlend mode="normal" in="SourceGraphic" in2="effect1_dropShadow_30561_104685" result="shape"/>
</filter>
<clipPath id="clip0_30561_104685">
<rect width="360" height="360" rx="8" fill="white"/>
</clipPath>
<clipPath id="clip1_30561_104685">
<rect width="77.5" height="50" fill="white" transform="translate(30 30)"/>
</clipPath>
</defs>
</svg>
