<svg width="360" height="360" viewBox="0 0 360 360" fill="none" xmlns="http://www.w3.org/2000/svg">
<g clip-path="url(#clip0_2242_75291)">
<rect width="360" height="360" rx="8" fill="#235380"/>
<path d="M333 223.5C374.2 229.5 389.833 248.216 397.5 256.549V409.049H-12V210.049C-12 210.049 36.5 207.81 93 233.549C138 254.049 170 255.5 209.5 254C249 252.5 281.5 216 333 223.5Z" fill="white" style="mix-blend-mode:soft-light"/>
<path d="M71.9809 190.805C72.7036 189.732 74.2964 189.732 75.0191 190.805L83.4747 203.363C84.2836 204.564 83.4138 206.174 81.9556 206.174H65.0444C63.5862 206.174 62.7164 204.564 63.5253 203.363L71.9809 190.805Z" fill="#71CAEF"/>
<path d="M71.9765 199.419C72.6982 198.337 74.3018 198.337 75.0235 199.419L87.6048 218.283C88.4063 219.485 87.5358 221.087 86.0813 221.087H60.9187C59.4642 221.087 58.5937 219.485 59.3953 218.283L71.9765 199.419Z" fill="#71CAEF"/>
<path d="M71.9809 208.43C72.7036 207.356 74.2964 207.356 75.0191 208.43L91.6903 233.19C92.4992 234.391 91.6294 236 90.1712 236H56.8288C55.3706 236 54.5008 234.391 55.3097 233.19L71.9809 208.43Z" fill="#71CAEF"/>
<path d="M-1.01906 198.805C-0.296413 197.732 1.29642 197.732 2.01907 198.805L10.4747 211.363C11.2836 212.564 10.4138 214.174 8.95565 214.174H-7.95564C-9.41381 214.174 -10.2836 212.564 -9.47471 211.363L-1.01906 198.805Z" fill="#71CAEF"/>
<path d="M-1.02347 207.419C-0.30179 206.337 1.3018 206.337 2.02348 207.419L14.6048 226.283C15.4063 227.485 14.5358 229.087 13.0813 229.087H-12.0813C-13.5358 229.087 -14.4063 227.485 -13.6047 226.283L-1.02347 207.419Z" fill="#71CAEF"/>
<path d="M-1.01906 216.43C-0.296417 215.356 1.29642 215.356 2.01907 216.43L18.6903 241.19C19.4992 242.391 18.6294 244 17.1712 244H-16.1712C-17.6294 244 -18.4992 242.391 -17.6903 241.19L-1.01906 216.43Z" fill="#71CAEF"/>
<path d="M291.981 198.805C292.704 197.732 294.296 197.732 295.019 198.805L303.475 211.363C304.284 212.564 303.414 214.174 301.956 214.174H285.044C283.586 214.174 282.716 212.564 283.525 211.363L291.981 198.805Z" fill="#71CAEF"/>
<path d="M291.977 207.419C292.698 206.337 294.302 206.337 295.023 207.419L307.605 226.283C308.406 227.485 307.536 229.087 306.081 229.087H280.919C279.464 229.087 278.594 227.485 279.395 226.283L291.977 207.419Z" fill="#71CAEF"/>
<path d="M291.981 216.43C292.704 215.356 294.296 215.356 295.019 216.43L311.69 241.19C312.499 242.391 311.629 244 310.171 244H276.829C275.371 244 274.501 242.391 275.31 241.19L291.981 216.43Z" fill="#71CAEF"/>
<path d="M314.097 224.472C314.526 223.843 315.474 223.843 315.903 224.472L320.931 231.844C321.412 232.549 320.895 233.493 320.028 233.493H309.972C309.105 233.493 308.588 232.549 309.069 231.844L314.097 224.472Z" fill="#B4E9FF"/>
<path d="M314.094 229.529C314.523 228.894 315.477 228.894 315.906 229.529L323.387 240.601C323.863 241.306 323.346 242.247 322.481 242.247H307.519C306.654 242.247 306.137 241.306 306.613 240.601L314.094 229.529Z" fill="#B4E9FF"/>
<path d="M314.097 234.817C314.526 234.187 315.474 234.187 315.903 234.817L325.816 249.35C326.297 250.056 325.78 251 324.913 251H305.087C304.22 251 303.703 250.056 304.184 249.35L314.097 234.817Z" fill="#B4E9FF"/>
<path d="M356.097 212.472C356.526 211.843 357.474 211.843 357.903 212.472L362.931 219.844C363.412 220.549 362.895 221.493 362.028 221.493H351.972C351.105 221.493 350.588 220.549 351.069 219.844L356.097 212.472Z" fill="#B4E9FF"/>
<path d="M356.094 217.529C356.523 216.894 357.477 216.894 357.906 217.529L365.387 228.601C365.863 229.306 365.346 230.247 364.481 230.247H349.519C348.654 230.247 348.137 229.306 348.613 228.601L356.094 217.529Z" fill="#B4E9FF"/>
<path d="M356.097 222.817C356.526 222.187 357.474 222.187 357.903 222.817L367.816 237.35C368.297 238.056 367.78 239 366.913 239H347.087C346.22 239 345.703 238.056 346.184 237.35L356.097 222.817Z" fill="#B4E9FF"/>
<path d="M43.0968 224.472C43.5265 223.843 44.4735 223.843 44.9032 224.472L49.9309 231.844C50.4118 232.549 49.8947 233.493 49.0277 233.493H38.9723C38.1053 233.493 37.5882 232.549 38.0691 231.844L43.0968 224.472Z" fill="#B4E9FF"/>
<path d="M43.0942 229.529C43.5233 228.894 44.4767 228.894 44.9058 229.529L52.3866 240.601C52.8632 241.306 52.3456 242.247 51.4808 242.247H36.5192C35.6544 242.247 35.1368 241.306 35.6134 240.601L43.0942 229.529Z" fill="#B4E9FF"/>
<path d="M43.0968 234.817C43.5265 234.187 44.4735 234.187 44.9032 234.817L54.8159 249.35C55.2968 250.056 54.7796 251 53.9126 251H34.0874C33.2203 251 32.7032 250.056 33.1841 249.35L43.0968 234.817Z" fill="#B4E9FF"/>
<path d="M52.5 264.5C11.3 270.5 -4.33333 289.216 -12 297.549V450.049H397.5V251.049C397.5 251.049 349 248.81 292.5 274.549C247.5 295.049 215.5 296.5 176 295C136.5 293.5 104 257 52.5 264.5Z" fill="white" style="mix-blend-mode:soft-light"/>
<path fill-rule="evenodd" clip-rule="evenodd" d="M82.9918 30.1553C84.3372 30.5864 85.25 31.8374 85.25 33.2502V56.0002C85.25 57.7952 83.7949 59.2502 82 59.2502C80.2051 59.2502 78.75 57.7952 78.75 56.0002V43.3917L68.3946 57.8893C67.5734 59.0389 66.1036 59.5264 64.7582 59.0952C63.4128 58.664 62.5 57.413 62.5 56.0002V33.2502C62.5 31.4553 63.9551 30.0002 65.75 30.0002C67.5449 30.0002 69 31.4553 69 33.2502V45.8587L79.3554 31.3612C80.1766 30.2115 81.6464 29.7241 82.9918 30.1553ZM103.911 30.0003C105.208 29.9899 106.386 30.7506 106.91 31.936L115.847 52.151C115.934 52.3476 116 52.5482 116.046 52.7502H116.125C117.92 52.7502 119.375 54.2053 119.375 56.0002C119.375 57.7952 117.92 59.2502 116.125 59.2502H91.75C89.9551 59.2502 88.5 57.7952 88.5 56.0002C88.5 54.2053 89.9551 52.7502 91.75 52.7502H92.1586L100.944 31.9839C101.449 30.7902 102.615 30.0107 103.911 30.0003ZM99.2164 52.7502H109.005L104.003 41.4361L99.2164 52.7502ZM34.875 34.8752C34.875 32.1828 37.0576 30.0002 39.75 30.0002H46.25C49.8399 30.0002 52.75 32.9104 52.75 36.5002V39.7502C52.75 40.405 52.6726 41.0416 52.5263 41.6515C56.3916 42.6365 59.25 46.1408 59.25 50.3127C59.25 55.2488 55.2485 59.2502 50.3125 59.2502H39.75C37.0576 59.2502 34.875 57.0676 34.875 54.3752V34.8752ZM41.375 47.8752V52.7502H50.3125C51.6587 52.7502 52.75 51.6589 52.75 50.3127C52.75 48.9665 51.6587 47.8752 50.3125 47.8752H41.375ZM41.375 41.3752H44.625C45.5225 41.3752 46.25 40.6477 46.25 39.7502V36.5002H41.375V41.3752ZM122.625 33.2502C122.625 31.4553 124.08 30.0002 125.875 30.0002H140.5C142.295 30.0002 143.75 31.4553 143.75 33.2502C143.75 35.0452 142.295 36.5002 140.5 36.5002H129.125V41.3752L132.375 41.3752C134.17 41.3752 135.625 42.8303 135.625 44.6252C135.625 46.4202 134.17 47.8752 132.375 47.8752H129.125V52.7502H140.5C142.295 52.7502 143.75 54.2053 143.75 56.0002C143.75 57.7952 142.295 59.2502 140.5 59.2502H125.875C124.08 59.2502 122.625 57.7952 122.625 56.0002V33.2502ZM145.375 42.1877C145.375 35.4568 150.832 30.0002 157.562 30.0002C164.293 30.0002 169.75 35.4568 169.75 42.1877V47.0627C169.75 53.7937 164.293 59.2502 157.562 59.2502C150.832 59.2502 145.375 53.7937 145.375 47.0627V42.1877ZM157.562 36.5002C154.421 36.5002 151.875 39.0466 151.875 42.1877V47.0627C151.875 50.2038 154.421 52.7502 157.562 52.7502C160.704 52.7502 163.25 50.2038 163.25 47.0627V42.1877C163.25 39.0466 160.704 36.5002 157.562 36.5002ZM163.25 74.6877C163.25 67.9568 168.707 62.5002 175.438 62.5002C182.168 62.5002 187.625 67.9568 187.625 74.6877V79.5627C187.625 86.2937 182.168 91.7502 175.438 91.7502C168.707 91.7502 163.25 86.2937 163.25 79.5627V74.6877ZM175.438 69.0002C172.296 69.0002 169.75 71.5466 169.75 74.6877V79.5627C169.75 82.7039 172.296 85.2502 175.438 85.2502C178.579 85.2502 181.125 82.7039 181.125 79.5627V74.6877C181.125 71.5466 178.579 69.0002 175.438 69.0002ZM216.062 74.6877C216.062 67.9568 221.519 62.5002 228.25 62.5002C234.981 62.5002 240.438 67.9568 240.438 74.6877V79.5627C240.438 86.2937 234.981 91.7502 228.25 91.7502C221.519 91.7502 216.062 86.2937 216.062 79.5627V74.6877ZM228.25 69.0002C225.109 69.0002 222.562 71.5466 222.562 74.6877V79.5627C222.562 82.7039 225.109 85.2502 228.25 85.2502C231.391 85.2502 233.938 82.7039 233.938 79.5627V74.6877C233.938 71.5466 231.391 69.0002 228.25 69.0002ZM192.5 66.5627C192.5 64.7678 193.955 63.3127 195.75 63.3127H203.875C208.811 63.3127 212.812 67.3142 212.812 72.2502C212.812 77.1863 208.811 81.1877 203.875 81.1877H199V88.5002C199 90.2952 197.545 91.7502 195.75 91.7502C193.955 91.7502 192.5 90.2952 192.5 88.5002V66.5627ZM199 74.6877V69.8127H203.875C205.221 69.8127 206.312 70.904 206.312 72.2502C206.312 73.5964 205.221 74.6877 203.875 74.6877H199ZM243.688 66.5627C243.688 64.7678 245.143 63.3127 246.938 63.3127H260.75C262.545 63.3127 264 64.7678 264 66.5627V73.8752C264 74.7372 263.658 75.5638 263.048 76.1733L261.855 77.3664L263.288 79.1575C263.749 79.7337 264 80.4497 264 81.1877V87.6877C264 89.4827 262.545 90.9377 260.75 90.9377H246.938C245.143 90.9377 243.688 89.4827 243.688 87.6877C243.688 85.8928 245.143 84.4377 246.938 84.4377H257.5V82.3278L255.938 80.3752H251.812C250.018 80.3752 248.562 78.9202 248.562 77.1252C248.562 75.3303 250.018 73.8752 251.812 73.8752H256.154L257.5 72.529V69.8127H246.938C245.143 69.8127 243.688 68.3577 243.688 66.5627ZM135.588 64.2167C136.925 63.8926 138.322 64.4459 139.074 65.598L145.25 75.0526L150.821 65.7106C151.528 64.5252 152.906 63.9156 154.259 64.1902C155.611 64.4649 156.643 65.5639 156.832 66.9312L159.97 89.6812C160.215 91.4593 158.972 93.0995 157.194 93.3448C155.416 93.59 153.776 92.3474 153.53 90.5693L151.658 76.9966L148.166 82.8523C147.592 83.8152 146.562 84.4142 145.441 84.437C144.321 84.4599 143.267 83.9036 142.654 82.965L138.643 76.8244L137.233 90.4597C137.048 92.2451 135.451 93.5427 133.666 93.358C131.88 93.1733 130.583 91.5762 130.767 89.7908L133.121 67.0408C133.262 65.672 134.251 64.5407 135.588 64.2167ZM45.4114 64.1253C46.7075 64.1149 47.8858 64.8756 48.4099 66.0611L57.3474 86.2761C57.4344 86.4726 57.5002 86.6732 57.546 86.8752H57.625C59.4199 86.8752 60.875 88.3303 60.875 90.1252C60.875 91.9202 59.4199 93.3752 57.625 93.3752H33.25C31.4551 93.3752 30 91.9202 30 90.1252C30 88.3303 31.4551 86.8752 33.25 86.8752H33.6586L42.4444 66.1089C42.9494 64.9152 44.1154 64.1357 45.4114 64.1253ZM40.7164 86.8752H50.5054L45.5032 75.5611L40.7164 86.8752ZM64.125 67.3752C64.125 65.5803 65.5801 64.1252 67.375 64.1252H82C83.7949 64.1252 85.25 65.5803 85.25 67.3752C85.25 69.1702 83.7949 70.6252 82 70.6252H70.625V75.5002H73.875C75.6699 75.5002 77.125 76.9553 77.125 78.7502C77.125 80.5452 75.6699 82.0002 73.875 82.0002H70.625V86.8752H82C83.7949 86.8752 85.25 88.3303 85.25 90.1252C85.25 91.9202 83.7949 93.3752 82 93.3752H67.375C65.5801 93.3752 64.125 91.9202 64.125 90.1252V67.3752ZM103.911 64.1253C105.208 64.1149 106.386 64.8756 106.91 66.0611L115.847 86.2761C115.934 86.4726 116 86.6732 116.046 86.8752H116.125C117.92 86.8752 119.375 88.3303 119.375 90.1252C119.375 91.9202 117.92 93.3752 116.125 93.3752H91.75C89.9551 93.3752 88.5 91.9202 88.5 90.1252C88.5 88.3303 89.9551 86.8752 91.75 86.8752H92.1586L100.944 66.1089C101.449 64.9152 102.615 64.1357 103.911 64.1253ZM99.2164 86.8752H109.005L104.003 75.5611L99.2164 86.8752Z" fill="white"/>
<path d="M36 166.952C36 158.708 41.5212 151.889 49.2422 150.495C72.4887 146.295 117.726 140 180 140C242.274 140 287.511 146.295 310.758 150.495C318.479 151.889 324 158.708 324 166.952V296.917C324 305.208 318.42 312.074 310.632 313.463C287.076 317.666 241.39 324 180 324C118.61 324 72.9237 317.666 49.368 313.463C41.5798 312.074 36 305.208 36 296.917V166.952Z" stroke="#E4F2FA" stroke-width="12"/>
<g filter="url(#filter0_f_2242_75291)">
<ellipse cx="180.5" cy="144" rx="66.5" ry="23" fill="#235380"/>
</g>
<mask id="mask0_2242_75291" style="mask-type:alpha" maskUnits="userSpaceOnUse" x="30" y="132" width="300" height="186">
<path d="M30 164.952C30 154.007 37.4047 144.536 48.1756 142.59C71.7272 138.336 117.323 132 180 132C242.677 132 288.273 138.336 311.824 142.59C322.595 144.536 330 154.007 330 164.952V284.917C330 295.923 322.521 305.437 311.686 307.37C287.841 311.624 241.798 318 180 318C118.202 318 72.1592 311.624 48.3141 307.37C37.4789 305.437 30 295.923 30 284.917V164.952Z" fill="#C4C4C4"/>
</mask>
<g mask="url(#mask0_2242_75291)">
<path d="M294 313.5C294 313.5 268 253 242.936 242.488L125.532 264.997C125.532 264.997 116.408 289.027 113.672 302.412L138.006 322.484L188.191 331L254.5 320.5V317C254.5 317 246.286 286.595 242.024 277.167C242.024 277.167 260 302.412 265 317L294 313.5Z" fill="#AC1005"/>
<path d="M294 313.5C294 313.5 268 253 242.936 242.488L125.532 264.997C125.532 264.997 116.408 289.027 113.672 302.412L138.006 322.484L188.191 331L254.5 320.5V317C254.5 317 246.286 286.595 242.024 277.167C242.024 277.167 260 302.412 265 317L294 313.5Z" fill="url(#paint0_linear_2242_75291)" fill-opacity="0.2"/>
</g>
<path d="M125.532 265.004C125.532 265.004 114.28 273.217 112.146 284.772C110.019 296.327 134.352 301.5 134.352 301.5L124.924 320.356C124.924 320.356 96.0322 318.837 87.8198 298.455C79.6075 278.079 101.205 253.442 112.457 246.445L125.532 265.004Z" fill="#AC1005"/>
<path d="M125.532 265.004C125.532 265.004 114.28 273.217 112.146 284.772C110.019 296.327 134.352 301.5 134.352 301.5L124.924 320.356C124.924 320.356 96.0322 318.837 87.8198 298.455C79.6075 278.079 101.205 253.442 112.457 246.445L125.532 265.004Z" fill="url(#paint1_linear_2242_75291)" fill-opacity="0.2"/>
<g filter="url(#filter1_i_2242_75291)">
<path d="M243.93 183.64C250.091 166.076 241.195 153.754 241.195 153.754C241.195 135.962 229.336 122.956 215.874 117.258C202.413 111.553 179.606 112.009 179.606 112.009C179.606 112.009 156.793 111.553 143.338 117.258C129.876 122.963 118.017 135.962 118.017 153.754C118.017 153.754 109.121 166.069 115.282 183.64C115.282 183.64 88.5934 226.07 121.443 264.168C145.507 292.072 179.613 290.173 179.613 290.173C179.613 290.173 213.719 292.072 237.783 264.168C270.619 226.07 243.93 183.64 243.93 183.64Z" fill="white"/>
</g>
<g filter="url(#filter2_di_2242_75291)">
<path d="M219.065 225.614L208.346 213.755H179.606H150.866L140.147 225.614C140.147 225.614 131.934 231.319 120.075 226.982C120.075 226.982 123.494 242.039 149.734 244.318C175.966 246.597 179.62 235.65 179.62 235.65C179.62 235.65 183.267 246.597 209.506 244.318C235.739 242.039 239.165 226.982 239.165 226.982C227.278 231.312 219.065 225.614 219.065 225.614Z" fill="#EFF6F9"/>
</g>
<path d="M179.599 161.511C133.288 159.687 115.268 183.641 115.268 183.641C118.915 217.402 140.133 225.614 140.133 225.614C148.117 219.225 162.035 216.946 162.035 216.946C163.63 219.681 167.284 219.909 168.88 219.681C170.475 219.453 171.843 219.909 173.673 221.048C175.496 222.188 179.606 221.96 179.606 221.96C179.606 221.96 183.709 222.188 185.539 221.048C187.369 219.909 188.73 219.453 190.333 219.681C191.928 219.909 195.582 219.681 197.177 216.946C197.177 216.946 211.095 219.225 219.079 225.614C219.079 225.614 240.297 217.402 243.944 183.641C243.93 183.641 225.91 159.687 179.599 161.511Z" fill="#FDD9C8"/>
<g filter="url(#filter3_d_2242_75291)">
<path d="M187.356 174.289C187.356 174.289 187.356 176.112 187.356 178.854C187.356 181.589 188.723 181.589 192.377 182.273C196.031 182.957 205.839 184.78 208.346 185.464C210.853 186.148 212.911 185.92 212.683 184.552C212.456 183.185 207.89 178.619 202.876 175.884C197.854 173.149 193.296 171.781 191.244 171.781C189.179 171.774 187.584 172.458 187.356 174.289Z" fill="#FBFFFC"/>
</g>
<path d="M197.391 205.308C199.406 205.308 201.038 203.675 201.038 201.661C201.038 199.647 199.406 198.014 197.391 198.014C195.377 198.014 193.745 199.647 193.745 201.661C193.745 203.675 195.377 205.308 197.391 205.308Z" fill="#4C6173"/>
<path d="M196.611 203.298C197.82 203.298 198.8 202.317 198.8 201.108C198.8 199.899 197.82 198.919 196.611 198.919C195.402 198.919 194.421 199.899 194.421 201.108C194.421 202.317 195.402 203.298 196.611 203.298Z" fill="#FBFFFC"/>
<path d="M203.78 119.537C185.532 116.574 172.982 116.346 155.418 119.537C127.894 124.545 124.392 145.998 124.392 145.998C134.2 139.609 150.397 137.329 156.558 136.418C162.719 135.506 168.189 135.506 170.019 137.675C171.843 139.844 179.599 157.408 179.599 157.408C179.599 157.408 187.356 139.844 189.179 137.675C191.002 135.506 196.48 135.506 202.641 136.418C208.802 137.329 224.998 139.609 234.806 145.998C234.806 145.998 231.394 124.027 203.78 119.537Z" fill="#AC1005"/>
<g filter="url(#filter4_d_2242_75291)">
<path d="M171.843 174.289C171.843 174.289 171.843 176.112 171.843 178.854C171.843 181.589 170.475 181.589 166.821 182.273C163.168 182.957 153.36 184.78 150.853 185.464C148.345 186.148 146.287 185.92 146.515 184.552C146.743 183.185 151.308 178.619 156.323 175.884C161.344 173.149 165.903 171.781 167.954 171.781C170.005 171.781 171.615 172.458 171.843 174.289Z" fill="#FBFFFC"/>
</g>
<path d="M161.807 205.308C163.821 205.308 165.454 203.675 165.454 201.661C165.454 199.647 163.821 198.014 161.807 198.014C159.793 198.014 158.16 199.647 158.16 201.661C158.16 203.675 159.793 205.308 161.807 205.308Z" fill="#4C6173"/>
<path d="M162.587 203.298C163.797 203.298 164.777 202.317 164.777 201.108C164.777 199.899 163.797 198.919 162.587 198.919C161.378 198.919 160.398 199.899 160.398 201.108C160.398 202.317 161.378 203.298 162.587 203.298Z" fill="#FBFFFC"/>
<g filter="url(#filter5_f_2242_75291)">
<path d="M175.034 218.085C175.034 218.085 170.931 212.38 174.806 207.366C174.806 207.366 171.159 208.505 171.615 213.527C172.07 218.541 175.034 218.085 175.034 218.085Z" fill="#D5A690" fill-opacity="0.6"/>
</g>
<g filter="url(#filter6_f_2242_75291)">
<path d="M185.575 218.085C185.575 218.085 189.678 212.38 185.803 207.366C185.803 207.366 189.45 208.505 188.994 213.527C188.538 218.541 185.575 218.085 185.575 218.085Z" fill="#D5A690" fill-opacity="0.6"/>
</g>
<path d="M138.31 303.061C138.31 303.061 136.942 300.665 132.149 301.348C127.355 302.032 122.679 307.737 121.995 312.752C121.312 317.773 122.341 323.133 127.7 324.273C133.06 325.412 134.089 323.589 134.089 323.589L138.31 303.061Z" fill="white"/>
<path d="M130.325 312.869C130.325 312.869 132.376 306.708 135.913 304.429C139.449 302.15 146.522 300.437 153.249 301.922C159.976 303.407 164.652 309.561 165.454 314.237C166.255 318.913 164.314 324.956 158.837 327.699C153.36 330.434 149.713 326.441 148 325.758C146.287 325.074 141.956 324.956 138.876 324.846C135.802 324.729 128.612 323.133 130.325 312.869Z" fill="#F74C43"/>
</g>
<defs>
<filter id="filter0_f_2242_75291" x="74" y="81" width="213" height="126" filterUnits="userSpaceOnUse" color-interpolation-filters="sRGB">
<feFlood flood-opacity="0" result="BackgroundImageFix"/>
<feBlend mode="normal" in="SourceGraphic" in2="BackgroundImageFix" result="shape"/>
<feGaussianBlur stdDeviation="20" result="effect1_foregroundBlur_2242_75291"/>
</filter>
<filter id="filter1_i_2242_75291" x="105.055" y="108" width="149.106" height="182.2" filterUnits="userSpaceOnUse" color-interpolation-filters="sRGB">
<feFlood flood-opacity="0" result="BackgroundImageFix"/>
<feBlend mode="normal" in="SourceGraphic" in2="BackgroundImageFix" result="shape"/>
<feColorMatrix in="SourceAlpha" type="matrix" values="0 0 0 0 0 0 0 0 0 0 0 0 0 0 0 0 0 0 127 0" result="hardAlpha"/>
<feOffset dy="-4"/>
<feGaussianBlur stdDeviation="2"/>
<feComposite in2="hardAlpha" operator="arithmetic" k2="-1" k3="1"/>
<feColorMatrix type="matrix" values="0 0 0 0 0.87451 0 0 0 0 0.913725 0 0 0 0 0.933333 0 0 0 1 0"/>
<feBlend mode="normal" in2="shape" result="effect1_innerShadow_2242_75291"/>
</filter>
<filter id="filter2_di_2242_75291" x="110.075" y="207.755" width="139.089" height="50.8754" filterUnits="userSpaceOnUse" color-interpolation-filters="sRGB">
<feFlood flood-opacity="0" result="BackgroundImageFix"/>
<feColorMatrix in="SourceAlpha" type="matrix" values="0 0 0 0 0 0 0 0 0 0 0 0 0 0 0 0 0 0 127 0" result="hardAlpha"/>
<feOffset dy="4"/>
<feGaussianBlur stdDeviation="5"/>
<feComposite in2="hardAlpha" operator="out"/>
<feColorMatrix type="matrix" values="0 0 0 0 0.698039 0 0 0 0 0.764706 0 0 0 0 0.803922 0 0 0 0.8 0"/>
<feBlend mode="normal" in2="BackgroundImageFix" result="effect1_dropShadow_2242_75291"/>
<feBlend mode="normal" in="SourceGraphic" in2="effect1_dropShadow_2242_75291" result="shape"/>
<feColorMatrix in="SourceAlpha" type="matrix" values="0 0 0 0 0 0 0 0 0 0 0 0 0 0 0 0 0 0 127 0" result="hardAlpha"/>
<feOffset dy="-4"/>
<feGaussianBlur stdDeviation="1.5"/>
<feComposite in2="hardAlpha" operator="arithmetic" k2="-1" k3="1"/>
<feColorMatrix type="matrix" values="0 0 0 0 0.87451 0 0 0 0 0.913725 0 0 0 0 0.933333 0 0 0 0.6 0"/>
<feBlend mode="normal" in2="shape" result="effect2_innerShadow_2242_75291"/>
</filter>
<filter id="filter3_d_2242_75291" x="183.356" y="171.781" width="33.345" height="22.056" filterUnits="userSpaceOnUse" color-interpolation-filters="sRGB">
<feFlood flood-opacity="0" result="BackgroundImageFix"/>
<feColorMatrix in="SourceAlpha" type="matrix" values="0 0 0 0 0 0 0 0 0 0 0 0 0 0 0 0 0 0 127 0" result="hardAlpha"/>
<feOffset dy="4"/>
<feGaussianBlur stdDeviation="2"/>
<feComposite in2="hardAlpha" operator="out"/>
<feColorMatrix type="matrix" values="0 0 0 0 0.929412 0 0 0 0 0.776471 0 0 0 0 0.701961 0 0 0 1 0"/>
<feBlend mode="normal" in2="BackgroundImageFix" result="effect1_dropShadow_2242_75291"/>
<feBlend mode="normal" in="SourceGraphic" in2="effect1_dropShadow_2242_75291" result="shape"/>
</filter>
<filter id="filter4_d_2242_75291" x="142.498" y="171.781" width="33.345" height="22.056" filterUnits="userSpaceOnUse" color-interpolation-filters="sRGB">
<feFlood flood-opacity="0" result="BackgroundImageFix"/>
<feColorMatrix in="SourceAlpha" type="matrix" values="0 0 0 0 0 0 0 0 0 0 0 0 0 0 0 0 0 0 127 0" result="hardAlpha"/>
<feOffset dy="4"/>
<feGaussianBlur stdDeviation="2"/>
<feComposite in2="hardAlpha" operator="out"/>
<feColorMatrix type="matrix" values="0 0 0 0 0.929412 0 0 0 0 0.776471 0 0 0 0 0.701961 0 0 0 1 0"/>
<feBlend mode="normal" in2="BackgroundImageFix" result="effect1_dropShadow_2242_75291"/>
<feBlend mode="normal" in="SourceGraphic" in2="effect1_dropShadow_2242_75291" result="shape"/>
</filter>
<filter id="filter5_f_2242_75291" x="169.575" y="205.366" width="7.45837" height="14.7303" filterUnits="userSpaceOnUse" color-interpolation-filters="sRGB">
<feFlood flood-opacity="0" result="BackgroundImageFix"/>
<feBlend mode="normal" in="SourceGraphic" in2="BackgroundImageFix" result="shape"/>
<feGaussianBlur stdDeviation="1" result="effect1_foregroundBlur_2242_75291"/>
</filter>
<filter id="filter6_f_2242_75291" x="183.575" y="205.366" width="7.45837" height="14.7303" filterUnits="userSpaceOnUse" color-interpolation-filters="sRGB">
<feFlood flood-opacity="0" result="BackgroundImageFix"/>
<feBlend mode="normal" in="SourceGraphic" in2="BackgroundImageFix" result="shape"/>
<feGaussianBlur stdDeviation="1" result="effect1_foregroundBlur_2242_75291"/>
</filter>
<linearGradient id="paint0_linear_2242_75291" x1="204" y1="282.5" x2="204" y2="312" gradientUnits="userSpaceOnUse">
<stop/>
<stop offset="1" stop-opacity="0"/>
</linearGradient>
<linearGradient id="paint1_linear_2242_75291" x1="119" y1="259.5" x2="105.5" y2="280" gradientUnits="userSpaceOnUse">
<stop/>
<stop offset="1" stop-opacity="0"/>
</linearGradient>
<clipPath id="clip0_2242_75291">
<rect width="360" height="360" rx="8" fill="white"/>
</clipPath>
</defs>
</svg>
