<svg width="360" height="360" viewBox="0 0 360 360" fill="none" xmlns="http://www.w3.org/2000/svg">
<g clip-path="url(#clip0_3899_19)">
<rect width="360" height="360" rx="8" fill="#134D65"/>
<path fill-rule="evenodd" clip-rule="evenodd" d="M208.841 80.3616C209.204 81.3056 209.349 82.3041 209.313 83.3208C209.313 87.5689 206.394 91.1272 201.969 91.1272C200.97 91.1111 199.984 90.8949 199.07 90.4914C198.155 90.0879 197.331 89.5053 196.645 88.7778C195.959 88.0503 195.425 87.1927 195.075 86.2555C194.725 85.3183 194.566 84.3204 194.608 83.3208C194.608 79.0545 197.509 75.5144 201.897 75.5144C203.407 75.5291 204.878 75.9996 206.117 76.8643C207.356 77.7291 208.305 78.9479 208.841 80.3616ZM201.969 68.3252C193.085 68.3252 186.394 75.006 186.394 83.3208V83.3389C186.394 91.7263 192.994 98.3708 201.897 98.3708C210.8 98.3708 217.49 91.7263 217.49 83.3389C217.49 74.9516 210.872 68.3252 201.969 68.3252ZM108.19 75.8774V90.7641H99.6678C101.245 86.0621 102.025 81.1422 101.916 76.1679V75.8774H108.19ZM91.2908 90.7641H88.1177V102.928H95.9689L96.5128 97.7717H111.798V103H119.269V90.7641H116.204V68.8517H94.2463V69.596C94.2463 80.4524 93.2128 85.4993 91.2908 90.7641ZM131.762 68.8517H123.838V97.7717H131.308L142.478 81.4872V97.7717H150.402V68.8517H142.949L131.762 85.1181V68.8517ZM156.748 68.8517H182.604V97.7717H174.608V75.8774H164.744V97.7717H156.748V68.8517ZM264.815 91.0364C267.444 91.0364 268.986 89.8382 268.986 87.5689C268.986 85.5175 267.444 84.2103 264.852 84.2103H260.645V91.0364H264.815ZM252.63 68.8517H260.645V77.9289H264.997C271.923 77.9289 277 81.2512 277 87.7686C277 93.9956 272.467 97.7536 265.414 97.7536H252.63V68.8517ZM221.262 89.7838C220.609 90.2558 219.811 90.5099 218.995 90.5462V98.0803C220.029 98.0803 221.081 98.0077 222.096 97.8988C223.817 97.6324 225.428 96.8868 226.746 95.7472C228.064 94.6076 229.035 93.1199 229.548 91.454C231.212 86.5253 232.04 81.3523 231.996 76.1498V75.8593H238.27V97.7173H246.266V68.8517H224.29V69.5779C224.471 76.9667 224.217 83.7746 222.731 87.8412C222.44 88.6219 221.933 89.2936 221.28 89.7656L221.262 89.7838Z" fill="white"/>
<path d="M73.5882 30H59.0554H44.5328H30V44.5949V59.2H44.5328V44.5949H59.0554V59.2H73.5882V44.5949V30Z" fill="#0EB0B2"/>
<path d="M73.5882 88.4101V73.7998H59.0554V88.4101H44.5328V73.7998H30V88.4101V103H44.5328H59.0554H73.5882V88.4101Z" fill="#DF1831"/>
<path d="M89.0393 157.991L143.48 127.296L197.921 157.991V219.301L143.48 249.997L89.0393 219.301V157.991Z" stroke="#20627E" stroke-width="4"/>
<path d="M89.0393 341.525L143.48 310.829L197.921 341.525V402.834L143.48 433.53L89.0393 402.834V341.525Z" stroke="#20627E" stroke-width="4"/>
<path d="M35 249.498L89.441 218.803L143.882 249.498V310.808L89.441 341.503L35 310.808V249.498Z" stroke="#20627E" stroke-width="4"/>
<path d="M83.3279 241.33C86.9892 239.263 91.465 239.263 95.1262 241.33L120.353 255.571C124.123 257.699 126.454 261.692 126.454 266.021V294.04C126.454 298.369 124.123 302.362 120.353 304.49L95.1262 318.731C91.465 320.798 86.9891 320.798 83.3279 318.731L58.1009 304.49C54.3313 302.362 52 298.369 52 294.04V266.021C52 261.692 54.3313 257.699 58.1009 255.571L83.3279 241.33Z" fill="#0EB0B2"/>
<path d="M193.803 240.498C196.549 238.948 199.906 238.948 202.651 240.498L230.879 256.432C233.706 258.028 235.454 261.023 235.454 264.27V295.791C235.454 299.038 233.706 302.033 230.878 303.629L202.651 319.564C199.906 321.114 196.549 321.114 193.803 319.564L165.576 303.629C162.748 302.033 161 299.038 161 295.791V264.27C161 261.023 162.748 258.028 165.576 256.432L193.803 240.498Z" fill="#DF1831"/>
<path d="M138.803 149.498C141.549 147.948 144.906 147.948 147.651 149.498L175.879 165.432C178.706 167.028 180.454 170.023 180.454 173.27V204.791C180.454 208.038 178.706 211.033 175.878 212.629L147.651 228.564C144.906 230.114 141.549 230.114 138.803 228.564L110.576 212.629C107.748 211.033 106 208.038 106 204.791V173.27C106 170.023 107.748 167.028 110.576 165.432L138.803 149.498Z" fill="white"/>
<path d="M247.803 149.498C250.549 147.948 253.906 147.948 256.651 149.498L284.879 165.432C287.706 167.028 289.454 170.023 289.454 173.27V204.791C289.454 208.038 287.706 211.033 284.878 212.629L256.651 228.564C253.906 230.114 250.549 230.114 247.803 228.564L219.576 212.629C216.748 211.033 215 208.038 215 204.791V173.27C215 170.023 216.748 167.028 219.576 165.432L247.803 149.498Z" fill="#2A97C5"/>
<path d="M324.803 -43.5024C327.549 -45.0525 330.906 -45.0525 333.651 -43.5024L361.879 -27.5677C364.706 -25.9718 366.454 -22.9769 366.454 -19.7303V11.7915C366.454 15.038 364.706 18.0329 361.878 19.6289L333.651 35.5635C330.906 37.1136 327.549 37.1136 324.803 35.5635L296.576 19.6289C293.748 18.0329 292 15.038 292 11.7915V-19.7303C292 -22.9769 293.748 -25.9718 296.576 -27.5677L324.803 -43.5024Z" fill="#0E4258"/>
<path d="M-41.1973 149.498C-38.4514 147.948 -35.0945 147.948 -32.3486 149.498L-4.1215 165.432C-1.29434 167.028 0.454147 170.023 0.454147 173.27V204.791C0.454147 208.038 -1.29434 211.033 -4.12151 212.629L-32.3486 228.564C-35.0945 230.114 -38.4514 230.114 -41.1973 228.564L-69.4244 212.629C-72.2515 211.033 -74 208.038 -74 204.791V173.27C-74 170.023 -72.2515 167.028 -69.4243 165.432L-41.1973 149.498Z" fill="#0E4258"/>
<path d="M138.803 332.498C141.549 330.948 144.906 330.948 147.651 332.498L175.879 348.432C178.706 350.028 180.454 353.023 180.454 356.27V387.791C180.454 391.038 178.706 394.033 175.878 395.629L147.651 411.564C144.906 413.114 141.549 413.114 138.803 411.564L110.576 395.629C107.748 394.033 106 391.038 106 387.791V356.27C106 353.023 107.748 350.028 110.576 348.432L138.803 332.498Z" fill="#447ADB"/>
<path d="M198 157.991L252.441 127.296L306.882 157.991V219.301L252.441 249.997L198 219.301V157.991Z" stroke="#20627E" stroke-width="4"/>
<path d="M275 -35.0085L329.441 -65.704L383.882 -35.0085V26.3011L329.441 56.9966L275 26.3011V-35.0085Z" stroke="#20627E" stroke-width="4"/>
<path d="M275 341.991L329.441 311.296L383.882 341.991V403.301L329.441 433.997L275 403.301V341.991Z" stroke="#20627E" stroke-width="4"/>
<path d="M-91 157.991L-36.559 127.296L17.8821 157.991V219.301L-36.559 249.997L-91 219.301V157.991Z" stroke="#20627E" stroke-width="4"/>
<path d="M143.079 249.498L197.52 218.803L251.961 249.498V310.808L197.52 341.503L143.079 310.808V249.498Z" stroke="#20627E" stroke-width="4"/>
<path d="M73.8704 299C73.366 299 72.8343 298.833 72.5 298.499C72.1657 298.164 72 297.745 72 297.241V295H70V286.685C70 286.181 70.1671 285.762 70.5014 285.427C70.8356 285.093 71.4957 285 72 285H74V269.093C74 266.817 74.8463 264.917 76.5 263.357C78.1537 261.798 80.3444 261 82.6667 261C84.9185 261 86.9284 261.786 88.5 263.357C90.0716 264.929 91 266.841 91 269.093V290.907C91 292.186 91.202 293.268 92.0875 294.153C92.973 295.039 94.055 295.482 95.3333 295.482C96.6821 295.482 97.8403 295.045 98.8079 294.171C99.7755 293.297 100 292.209 100 290.907V275H98C97.4957 275 96.8727 274.907 96.5385 274.573C96.2042 274.238 96.0371 273.819 96.0371 273.315L96 265H98V262.759C98 262.255 98.3153 261.836 98.6496 261.501C98.9838 261.167 99.4031 261 99.9074 261H104.13C104.634 261 105.053 261.167 105.388 261.501C105.722 261.836 106.031 262.255 106.031 262.759V265H108V273.315C108 273.819 107.833 274.238 107.499 274.573C107.164 274.907 106.504 275 106 275H104V290.907C104 293.183 103.154 295.083 101.5 296.643C99.8463 298.202 97.6556 299 95.3333 299C93.0815 299 91.1698 298.214 89.5981 296.643C88.0266 295.071 87 293.159 87 290.907V269.093C87 267.814 86.798 266.732 85.9125 265.847C85.027 264.961 83.9451 264.518 82.6667 264.518C81.3179 264.518 80.1597 264.955 79.1921 265.829C78.2245 266.703 78 267.791 78 269.093V285H80C80.5043 285 81.1273 285.093 81.4615 285.427C81.7958 285.762 82 286.183 82 286.688V295H80V297.241C80 297.745 79.8343 298.164 79.5 298.499C79.1657 298.833 78.5969 299 78.0926 299H73.8704Z" fill="white"/>
<path d="M234 205.067V201C234.892 201 235.654 200.861 236.285 200.582C236.917 200.304 237.556 200.002 238.203 199.677C238.849 199.353 239.567 199.057 240.355 198.792C241.143 198.526 242.109 198.394 243.252 198.394C244.426 198.394 245.393 198.526 246.153 198.792C246.913 199.057 247.614 199.353 248.257 199.68C248.9 200.006 249.545 200.307 250.191 200.585C250.838 200.862 251.607 201 252.5 201C253.4 201 254.171 200.861 254.814 200.582C255.457 200.304 256.1 200.002 256.743 199.677C257.386 199.353 258.094 199.057 258.866 198.792C259.639 198.526 260.597 198.394 261.741 198.394C262.915 198.394 263.89 198.526 264.665 198.792C265.44 199.057 266.151 199.353 266.797 199.68C267.444 200.006 268.089 200.307 268.732 200.585C269.375 200.862 270.131 201 271 201V205.067C269.835 205.067 268.86 204.929 268.074 204.652C267.288 204.375 266.572 204.075 265.925 203.752C265.277 203.429 264.642 203.135 264.018 202.87C263.395 202.604 262.637 202.471 261.745 202.471C260.875 202.471 260.127 202.604 259.499 202.87C258.871 203.135 258.241 203.429 257.609 203.752C256.977 204.075 256.268 204.375 255.482 204.652C254.696 204.929 253.702 205.067 252.5 205.067C251.298 205.067 250.304 204.929 249.518 204.652C248.732 204.375 248.023 204.075 247.391 203.752C246.759 203.429 246.135 203.135 245.519 202.87C244.903 202.604 244.149 202.471 243.255 202.471C242.387 202.471 241.635 202.604 241 202.87C240.364 203.135 239.723 203.429 239.077 203.752C238.431 204.075 237.715 204.375 236.931 204.652C236.146 204.929 235.169 205.067 234 205.067Z" fill="url(#paint0_linear_3899_19)"/>
<path d="M234 196.606V192.528C234.892 192.528 235.654 192.39 236.285 192.113C236.917 191.836 237.556 191.536 238.203 191.214C238.849 190.891 239.567 190.596 240.355 190.331C241.143 190.065 242.109 189.933 243.252 189.933C244.426 189.933 245.393 190.065 246.153 190.331C246.913 190.596 247.614 190.89 248.257 191.213C248.9 191.536 249.545 191.836 250.191 192.113C250.838 192.39 251.607 192.528 252.5 192.528C253.4 192.528 254.171 192.39 254.814 192.113C255.457 191.836 256.1 191.536 256.743 191.214C257.386 190.891 258.094 190.596 258.866 190.331C259.639 190.065 260.597 189.933 261.741 189.933C262.915 189.933 263.89 190.065 264.665 190.331C265.44 190.596 266.151 190.89 266.797 191.213C267.444 191.536 268.089 191.836 268.732 192.113C269.375 192.39 270.131 192.528 271 192.528V196.606C269.835 196.606 268.86 196.467 268.074 196.188C267.288 195.91 266.572 195.608 265.925 195.283C265.277 194.958 264.642 194.663 264.018 194.398C263.395 194.132 262.637 194 261.744 194C260.851 194 260.089 194.132 259.458 194.397C258.826 194.661 258.195 194.957 257.564 195.284C256.933 195.611 256.232 195.913 255.461 196.19C254.69 196.468 253.703 196.606 252.5 196.606C251.298 196.606 250.304 196.467 249.518 196.188C248.732 195.91 248.023 195.608 247.391 195.283C246.759 194.958 246.135 194.663 245.519 194.398C244.903 194.132 244.149 194 243.255 194C242.387 194 241.635 194.132 241 194.398C240.364 194.663 239.723 194.958 239.077 195.283C238.431 195.608 237.715 195.91 236.931 196.188C236.146 196.467 235.169 196.606 234 196.606Z" fill="url(#paint1_linear_3899_19)"/>
<path d="M234 188.145V184.067C234.892 184.067 235.654 183.929 236.285 183.652C236.917 183.375 237.556 183.076 238.203 182.753C238.849 182.43 239.567 182.135 240.355 181.87C241.143 181.604 242.109 181.472 243.252 181.472C244.426 181.472 245.393 181.604 246.153 181.87C246.913 182.135 247.614 182.43 248.257 182.752C248.9 183.075 249.545 183.375 250.191 183.652C250.838 183.929 251.607 184.067 252.5 184.067C253.4 184.067 254.171 183.929 254.814 183.652C255.457 183.375 256.1 183.076 256.743 182.753C257.386 182.43 258.094 182.135 258.866 181.87C259.639 181.604 260.597 181.472 261.741 181.472C262.915 181.472 263.89 181.604 264.665 181.87C265.44 182.135 266.151 182.43 266.797 182.752C267.444 183.075 268.089 183.375 268.732 183.652C269.375 183.929 270.131 184.067 271 184.067V188.145C269.835 188.145 268.86 188.006 268.074 187.728C267.288 187.449 266.572 187.147 265.925 186.822C265.277 186.498 264.642 186.202 264.018 185.937C263.395 185.671 262.637 185.539 261.745 185.539C260.875 185.539 260.127 185.671 259.499 185.937C258.871 186.202 258.241 186.498 257.609 186.822C256.977 187.147 256.268 187.449 255.482 187.728C254.696 188.006 253.702 188.145 252.5 188.145C251.298 188.145 250.304 188.006 249.518 187.728C248.732 187.449 248.023 187.147 247.391 186.822C246.759 186.498 246.135 186.202 245.519 185.937C244.903 185.671 244.149 185.539 243.255 185.539C242.387 185.539 241.635 185.671 241 185.937C240.364 186.202 239.723 186.498 239.077 186.822C238.431 187.147 237.715 187.449 236.931 187.728C236.146 188.006 235.169 188.145 234 188.145Z" fill="url(#paint2_linear_3899_19)"/>
<path d="M234 179.684V175.607C234.892 175.607 235.654 175.467 236.285 175.189C236.917 174.91 237.556 174.609 238.203 174.284C238.849 173.959 239.567 173.664 240.355 173.398C241.143 173.133 242.109 173 243.252 173C244.426 173 245.393 173.133 246.153 173.398C246.913 173.664 247.614 173.96 248.257 174.286C248.9 174.612 249.545 174.914 250.191 175.191C250.838 175.468 251.607 175.607 252.5 175.607C253.4 175.607 254.171 175.467 254.814 175.189C255.457 174.91 256.1 174.609 256.743 174.284C257.386 173.959 258.094 173.664 258.866 173.398C259.639 173.133 260.597 173 261.741 173C262.915 173 263.89 173.133 264.665 173.398C265.44 173.664 266.151 173.96 266.797 174.286C267.444 174.612 268.089 174.914 268.732 175.191C269.375 175.468 270.131 175.607 271 175.607V179.684C269.835 179.684 268.86 179.545 268.074 179.267C267.288 178.988 266.572 178.687 265.925 178.362C265.277 178.037 264.642 177.742 264.018 177.476C263.395 177.211 262.637 177.078 261.745 177.078C260.875 177.078 260.127 177.211 259.499 177.476C258.871 177.742 258.241 178.037 257.609 178.362C256.977 178.687 256.268 178.988 255.482 179.267C254.696 179.545 253.702 179.684 252.5 179.684C251.298 179.684 250.304 179.545 249.518 179.267C248.732 178.988 248.023 178.687 247.391 178.362C246.759 178.037 246.135 177.742 245.519 177.476C244.903 177.211 244.149 177.078 243.255 177.078C242.387 177.078 241.635 177.211 241 177.476C240.364 177.742 239.723 178.037 239.077 178.362C238.431 178.687 237.715 178.988 236.931 179.267C236.146 179.545 235.169 179.684 234 179.684Z" fill="url(#paint3_linear_3899_19)"/>
<path d="M174 280.844C174 277.535 174.631 274.437 175.893 271.551C177.155 268.664 178.879 266.142 181.064 263.985C183.25 261.828 185.795 260.124 188.7 258.874C191.605 257.625 194.705 257 198 257C201.295 257 204.395 257.625 207.3 258.874C210.205 260.124 212.75 261.828 214.936 263.985C217.121 266.142 218.845 268.664 220.107 271.551C221.369 274.437 222 277.535 222 280.844H217.655C217.655 278.146 217.135 275.613 216.094 273.244C215.054 270.875 213.64 268.805 211.853 267.034C210.066 265.262 207.98 263.867 205.596 262.847C203.211 261.827 200.679 261.317 198 261.317C195.321 261.317 192.789 261.827 190.404 262.847C188.02 263.867 185.934 265.262 184.147 267.034C182.36 268.805 180.946 270.875 179.906 273.244C178.865 275.613 178.345 278.146 178.345 280.844H174ZM182.689 280.844C182.689 276.599 184.191 273.003 187.195 270.055C190.198 267.107 193.8 265.633 198 265.633C202.2 265.633 205.802 267.107 208.805 270.055C211.809 273.003 213.311 276.599 213.311 280.844H208.966C208.966 277.824 207.894 275.253 205.75 273.132C203.606 271.01 201.022 269.95 198 269.95C194.978 269.95 192.394 271.01 190.25 273.132C188.106 275.253 187.034 277.824 187.034 280.844H182.689Z" fill="url(#paint4_linear_3899_19)"/>
<path d="M191.483 303.702L188.026 300.268L195.529 292.814V285.988C194.551 285.514 193.764 284.816 193.166 283.895C192.569 282.974 192.27 281.957 192.27 280.844C192.27 279.256 192.826 277.91 193.936 276.806C195.047 275.703 196.401 275.151 198 275.151C199.599 275.151 200.953 275.703 202.064 276.806C203.174 277.91 203.73 279.256 203.73 280.844C203.73 281.957 203.431 282.974 202.834 283.895C202.236 284.816 201.449 285.514 200.471 285.988V292.814L207.974 300.268L204.517 303.702L198 297.254L191.483 303.702Z" fill="url(#paint5_linear_3899_19)"/>
<path d="M123 182V174.427C123 173.502 123.331 172.699 123.992 172.019C124.653 171.34 125.433 171 126.333 171H159.667C160.567 171 161.347 171.34 162.008 172.019C162.669 172.699 163 173.502 163 174.427V198H159V175H127V182H123ZM133 197.386C132.678 197.386 132.383 197.309 132.117 197.155C131.85 197.001 131.633 196.769 131.467 196.461L127.95 189.162H123V185.735H129C129.296 185.735 129.578 185.818 129.847 185.984C130.116 186.149 130.322 186.386 130.467 186.695L133 191.835L139.5 178.47C139.644 178.173 139.854 177.956 140.129 177.819C140.404 177.682 140.693 177.614 140.996 177.614C141.299 177.614 141.589 177.682 141.867 177.819C142.144 177.956 142.356 178.173 142.5 178.47L146.283 186.284C145.794 186.592 145.325 186.935 144.875 187.312C144.425 187.689 144 188.088 143.6 188.511L141 183.097L134.467 196.461C134.331 196.769 134.127 197.001 133.856 197.155C133.584 197.309 133.299 197.386 133 197.386ZM151 204H126C125.1 204 124.653 203.557 123.992 202.878C123.331 202.198 123 201.396 123 200.47V193H127V200H151C151 200.5 151 202.122 151 203C151 203.878 151 203.5 151 204Z" fill="#2A97C5"/>
<path d="M72 295H80V297.5C80 298.328 79.3284 299 78.5 299H73.5C72.6716 299 72 298.328 72 297.5V295Z" fill="#47E0E2"/>
<path d="M106 265L98 265L98 262.5C98 261.672 98.6716 261 99.5 261L104.5 261C105.328 261 106 261.672 106 262.5L106 265Z" fill="#47E0E2"/>
<rect x="100" y="275" width="4" height="7" fill="url(#paint6_linear_3899_19)"/>
<rect x="78" y="285" width="4" height="7" transform="rotate(-180 78 285)" fill="url(#paint7_linear_3899_19)"/>
<rect x="137" y="200" width="12" height="4" fill="url(#paint8_linear_3899_19)"/>
<rect x="163" y="180" width="12" height="4" transform="rotate(90 163 180)" fill="url(#paint9_linear_3899_19)"/>
<path d="M169 199.004C169 202.326 167.83 205.155 165.489 207.493C163.148 209.831 160.317 211 156.996 211C153.674 211 150.845 209.83 148.507 207.489C146.169 205.148 145 202.317 145 198.996C145 195.674 146.17 192.845 148.511 190.507C150.852 188.169 153.683 187 157.004 187C160.326 187 163.155 188.17 165.493 190.511C167.831 192.852 169 195.683 169 199.004ZM158.241 198.503L152.593 192.855L150.855 194.593L156.503 200.241L158.241 198.503Z" fill="#2A97C5"/>
<circle cx="157" cy="199" r="4" fill="white"/>
<circle cx="198" cy="281" r="6" fill="white"/>
<circle cx="198" cy="281" r="2" fill="#DF1831"/>
<path d="M253 291L336.918 245.138C338.202 244.436 339 243.09 339 241.628V186C339 183.791 340.791 182 343 182H395" stroke="#20627E" stroke-width="4"/>
<path d="M61.9999 234L62 149.891C62 148.419 61.1908 147.065 59.8935 146.368L-11.5 108" stroke="#20627E" stroke-width="4"/>
<path d="M281 141L328.087 114.514C328.685 114.177 329.361 114 330.048 114L365 114" stroke="#20627E" stroke-width="4"/>
<circle cx="252" cy="291" r="6" fill="#134D65" stroke="#20627E" stroke-width="4"/>
<circle cx="62" cy="235" r="6" transform="rotate(-90 62 235)" fill="#134D65" stroke="#20627E" stroke-width="4"/>
<circle cx="280.5" cy="142.5" r="6" transform="rotate(-90 280.5 142.5)" fill="#134D65" stroke="#20627E" stroke-width="4"/>
</g>
<defs>
<linearGradient id="paint0_linear_3899_19" x1="252" y1="201.389" x2="271" y2="201.731" gradientUnits="userSpaceOnUse">
<stop stop-color="white"/>
<stop offset="1" stop-color="white" stop-opacity="0"/>
</linearGradient>
<linearGradient id="paint1_linear_3899_19" x1="252" y1="192.928" x2="271" y2="193.27" gradientUnits="userSpaceOnUse">
<stop stop-color="white"/>
<stop offset="1" stop-color="white" stop-opacity="0"/>
</linearGradient>
<linearGradient id="paint2_linear_3899_19" x1="252" y1="184.467" x2="271" y2="184.81" gradientUnits="userSpaceOnUse">
<stop stop-color="white"/>
<stop offset="1" stop-color="white" stop-opacity="0"/>
</linearGradient>
<linearGradient id="paint3_linear_3899_19" x1="252" y1="176" x2="271" y2="176.342" gradientUnits="userSpaceOnUse">
<stop stop-color="white"/>
<stop offset="1" stop-color="white" stop-opacity="0"/>
</linearGradient>
<linearGradient id="paint4_linear_3899_19" x1="198" y1="270" x2="198" y2="280.844" gradientUnits="userSpaceOnUse">
<stop stop-color="white"/>
<stop offset="1" stop-color="white" stop-opacity="0"/>
</linearGradient>
<linearGradient id="paint5_linear_3899_19" x1="198" y1="287" x2="198" y2="303.702" gradientUnits="userSpaceOnUse">
<stop stop-color="#FE2E48"/>
<stop offset="1" stop-color="white"/>
</linearGradient>
<linearGradient id="paint6_linear_3899_19" x1="102" y1="275" x2="102" y2="282" gradientUnits="userSpaceOnUse">
<stop stop-color="#47E0E2" stop-opacity="0.6"/>
<stop offset="1" stop-color="#47E0E2" stop-opacity="0"/>
</linearGradient>
<linearGradient id="paint7_linear_3899_19" x1="80" y1="285" x2="80" y2="292" gradientUnits="userSpaceOnUse">
<stop stop-color="#47E0E2" stop-opacity="0.6"/>
<stop offset="1" stop-color="#47E0E2" stop-opacity="0"/>
</linearGradient>
<linearGradient id="paint8_linear_3899_19" x1="149" y1="202" x2="137" y2="202" gradientUnits="userSpaceOnUse">
<stop stop-color="#116C92"/>
<stop offset="1" stop-color="#116C92" stop-opacity="0"/>
</linearGradient>
<linearGradient id="paint9_linear_3899_19" x1="175" y1="182" x2="163" y2="182" gradientUnits="userSpaceOnUse">
<stop stop-color="#116C92"/>
<stop offset="1" stop-color="#116C92" stop-opacity="0"/>
</linearGradient>
<clipPath id="clip0_3899_19">
<rect width="360" height="360" rx="8" fill="white"/>
</clipPath>
</defs>
</svg>
