<svg width="360" height="360" viewBox="0 0 360 360" fill="none" xmlns="http://www.w3.org/2000/svg">
<g clip-path="url(#clip0_2697_3173)">
<rect width="360" height="360" rx="8" fill="#F2FFCC"/>
<g clip-path="url(#clip1_2697_3173)">
<path d="M148.188 62.4075C148.145 62.4862 148.11 62.5693 148.085 62.6552C147.461 62.6552 145.804 62.5698 144.146 62.6552C144.081 62.6066 144.009 62.5691 143.932 62.5442C143.062 60.1525 141.936 57.8614 140.574 55.7108C140.088 56.1218 139.561 56.4825 139.002 56.787C138.734 56.9095 138.474 57.0493 138.225 57.2056C138.257 58.9561 138.379 60.7038 138.592 62.4417C138.535 62.4936 138.486 62.5541 138.447 62.6211C138.131 62.6211 137.362 62.5527 136.738 62.5527C136.114 62.5527 135.516 62.5955 135.226 62.6125C135.189 62.5568 135.146 62.5052 135.097 62.4588C135.097 62.4588 135.311 58.6919 135.311 55.0103C135.311 51.3288 135.097 47.5448 135.097 47.5448C135.145 47.4979 135.188 47.4464 135.226 47.3911C135.499 47.3911 136.148 47.4509 136.764 47.4509C137.379 47.4509 138.028 47.4509 138.31 47.3911C138.348 47.4464 138.391 47.4979 138.438 47.5448C138.438 47.5448 138.242 50.449 138.225 54.3783C139.014 53.8684 139.717 53.237 140.309 52.5076C141.59 51.0361 142.579 49.3345 143.223 47.4936C143.298 47.4633 143.365 47.4166 143.42 47.3569C144.542 47.4726 145.673 47.4726 146.795 47.3569C146.818 47.4136 146.847 47.4679 146.88 47.5192C145.803 49.8785 144.342 52.0433 142.557 53.9255C143.3 55.1983 145.53 58.6748 148.188 62.4075ZM208.58 47.6644L208.452 47.5106C208.178 47.5106 207.529 47.5704 206.931 47.5704C206.333 47.5704 205.666 47.5277 205.393 47.5106L205.273 47.6644C205.273 47.6644 205.436 50.5857 205.478 53.823C204.624 53.823 203.633 53.8743 202.522 53.8743C201.411 53.8743 200.412 53.8743 199.583 53.823C199.583 50.2269 199.788 47.6644 199.788 47.6644C199.74 47.6175 199.697 47.566 199.66 47.5106C199.386 47.5106 198.737 47.5704 198.13 47.5704C197.523 47.5704 196.874 47.5277 196.601 47.5106C196.563 47.566 196.52 47.6175 196.472 47.6644C196.472 47.6644 196.618 51.3545 196.618 55.0616C196.618 58.7687 196.404 62.4588 196.404 62.4588C196.464 62.5042 196.516 62.559 196.558 62.6211C196.84 62.6211 197.472 62.5613 198.062 62.5613C198.651 62.5613 199.437 62.604 199.771 62.6211L199.907 62.4417C199.666 60.4147 199.541 58.3756 199.531 56.3343H205.419C205.419 59.5375 205.222 62.4588 205.222 62.4588C205.281 62.5021 205.331 62.5574 205.367 62.6211C205.658 62.6211 206.282 62.5613 206.88 62.5613C207.478 62.5613 208.247 62.604 208.589 62.6211C208.629 62.5573 208.674 62.4972 208.725 62.4417C208.441 59.9923 208.312 57.5273 208.341 55.0616C208.332 50.8334 208.58 47.6644 208.58 47.6644ZM154.083 49.9878V53.8743C154.083 56.8212 153.904 61.5619 153.87 62.4759C153.932 62.5174 153.989 62.5661 154.041 62.6211C154.331 62.6211 154.946 62.5613 155.527 62.5613C156.108 62.5613 156.775 62.604 157.057 62.6211C157.092 62.559 157.135 62.5016 157.185 62.4502C157.142 61.4679 156.971 56.787 156.971 53.9085V50.0219C159.62 50.0219 160.739 50.0988 161.081 50.1244L161.192 49.9963C161.141 49.6034 161.013 48.399 160.996 47.5448C160.955 47.5078 160.92 47.4645 160.893 47.4167C160.406 47.4167 158.219 47.579 155.502 47.579C152.784 47.579 150.742 47.4594 150.161 47.4252C150.116 47.4798 150.065 47.5286 150.007 47.5704C150.007 48.4246 149.862 49.5948 149.811 49.9963C149.862 50.0301 149.905 50.0737 149.939 50.1244C150.349 50.0646 151.477 50.0049 154.083 49.9878ZM253.259 45.2812C255.185 45.0762 257.127 45.0762 259.052 45.2812C259.082 45.2353 259.117 45.1924 259.155 45.1531C259.265 44.3264 259.428 43.5076 259.642 42.7016L259.548 42.582C259.3 42.582 258.437 42.6845 256.13 42.6845C253.823 42.6845 252.986 42.6077 252.712 42.582L252.618 42.7016C252.833 43.5076 252.995 44.3264 253.105 45.1531C253.162 45.1896 253.213 45.2327 253.259 45.2812ZM224.874 47.6644L224.746 47.5106C224.473 47.5106 223.823 47.5704 223.225 47.5704C222.627 47.5704 221.961 47.5277 221.687 47.5106L221.568 47.6644C221.568 47.6644 221.73 50.5857 221.764 53.823C220.91 53.823 219.927 53.8743 218.816 53.8743C217.706 53.8743 216.697 53.8743 215.877 53.823C215.877 50.2269 216.082 47.6644 216.082 47.6644C216.034 47.6175 215.992 47.566 215.954 47.5106C215.672 47.5106 215.031 47.5704 214.424 47.5704C213.818 47.5704 213.168 47.5277 212.895 47.5106C212.857 47.566 212.815 47.6175 212.767 47.6644C212.767 47.6644 212.98 51.3801 212.98 55.0616C212.98 58.7431 212.767 62.4588 212.767 62.4588C212.827 62.5042 212.879 62.559 212.921 62.6211C213.203 62.6211 213.835 62.5613 214.424 62.5613C215.014 62.5613 215.8 62.604 216.133 62.6211L216.27 62.4588C216.029 60.4318 215.903 58.3927 215.894 56.3514H221.781C221.781 59.5546 221.585 62.4759 221.585 62.4759C221.642 62.5215 221.691 62.5764 221.73 62.6382C222.021 62.6382 222.644 62.5784 223.242 62.5784C223.841 62.5784 224.61 62.6211 224.951 62.6382C224.991 62.5744 225.037 62.5143 225.088 62.4588C224.804 60.0094 224.675 57.5444 224.704 55.0787C224.669 50.8334 224.874 47.6644 224.874 47.6644ZM166.396 81.9512C166.528 82.7456 166.702 83.5325 166.917 84.3087C166.864 84.3596 166.818 84.417 166.78 84.4795C165.926 84.4795 162.047 84.3685 158.176 84.3685C154.305 84.3685 150.486 84.4624 149.563 84.4795C149.528 84.4151 149.482 84.3573 149.426 84.3087C149.645 83.533 149.822 82.746 149.956 81.9512C150.037 81.9035 150.109 81.8429 150.17 81.7718H151.674C154.177 76.9798 156.262 72.1793 156.8 70.8297C156.638 70.4283 156.527 70.1293 156.45 69.9756C156.507 69.8968 156.553 69.8106 156.587 69.7193C157.482 69.4664 158.361 69.1583 159.218 68.7968C159.307 68.8402 159.402 68.8663 159.5 68.8737C159.774 69.7279 160.688 72.2221 161.79 75.1775C162.551 77.1848 163.696 79.8755 164.559 81.7889H166.131C166.21 81.8574 166.299 81.9123 166.396 81.9512ZM158.176 81.9512H160.953C160.449 80.4222 159.757 78.3978 159.082 76.6382C158.74 75.784 158.432 74.9725 158.142 74.2379C156.741 77.1763 155.45 80.0293 154.596 81.9255C155.843 81.9085 157.142 81.9255 158.167 81.9255L158.176 81.9512ZM99.5095 69.0531C98.134 69.1638 96.7533 69.198 95.374 69.1556H92.7679C92.1612 69.1556 91.5033 69.1556 91.2384 69.0958C91.2009 69.1511 91.1579 69.2026 91.1103 69.2495C91.1103 69.2495 91.3239 72.9652 91.3239 76.6553C91.3239 80.3453 91.1103 84.0439 91.1103 84.0439C91.168 84.0915 91.2196 84.146 91.2641 84.2062C91.546 84.2062 92.1783 84.1464 92.7679 84.1464C93.3575 84.1464 94.1436 84.1464 94.4768 84.2147C94.5175 84.1487 94.5632 84.0859 94.6135 84.0268C94.3288 81.5803 94.2003 79.1181 94.229 76.6553C94.229 74.6479 94.229 72.8798 94.2803 71.5729C96.6727 71.5729 98.7747 71.6925 99.3215 71.7266C99.3675 71.6723 99.4224 71.6261 99.4839 71.59C99.4839 70.7358 99.612 69.5997 99.6633 69.1812C99.6051 69.1475 99.5531 69.1042 99.5095 69.0531ZM125.502 60.0842C125.502 58.9225 125.434 57.5216 125.425 56.1293C127.236 56.1293 128.441 56.2404 128.843 56.266C128.879 56.2198 128.922 56.1794 128.971 56.1464C128.92 55.7535 128.792 54.5576 128.783 53.7034C128.719 53.6706 128.661 53.6273 128.612 53.5753C128.185 53.6266 127.006 53.7376 125.434 53.7974V50.0561C128.766 50.0561 130.321 50.1244 130.748 50.1586C130.788 50.0995 130.837 50.0475 130.893 50.0049C130.842 49.5863 130.723 48.4246 130.705 47.5961C130.647 47.5599 130.595 47.5136 130.552 47.4594C129.996 47.4594 127.843 47.6131 125.425 47.6131H124.383C123.802 47.6131 123.05 47.5534 122.674 47.5277C122.605 47.5962 122.523 47.6512 122.434 47.69C122.434 48.5442 122.639 52.2086 122.639 55.0701C122.639 57.9316 122.477 61.5704 122.434 62.4502C122.502 62.4991 122.56 62.5599 122.605 62.6296L123.819 62.5527C124.759 62.5015 125.621 62.5527 125.621 62.5527C129.125 62.5527 130.68 62.6211 131.073 62.6467L131.193 62.5271C131.193 61.3911 131.44 59.9646 131.44 59.9646C131.389 59.9215 131.345 59.8694 131.312 59.8108C130.731 59.7681 128.014 60.0756 125.502 60.0842ZM174.915 52.7895C174.915 56.975 171.787 58.2135 169.378 58.2135C168.71 58.2162 168.045 58.1387 167.396 57.9829C167.447 60.05 167.498 61.9121 167.515 62.4673C167.465 62.5123 167.422 62.5641 167.387 62.6211C167.114 62.6211 166.464 62.5613 165.858 62.5613C165.251 62.5613 164.619 62.604 164.337 62.6211C164.298 62.5615 164.252 62.507 164.2 62.4588C164.243 61.6046 164.405 57.9487 164.405 55.0616C164.405 52.1745 164.234 48.604 164.2 47.8352C164.242 47.7816 164.279 47.7245 164.311 47.6644C164.456 47.6644 164.704 47.6217 165.003 47.6046C166.154 47.4645 167.312 47.3875 168.472 47.374C172.539 47.374 174.915 49.6461 174.915 52.7895ZM171.779 52.8834C171.634 49.6632 168.942 49.5521 167.276 49.8767C167.276 50.8078 167.276 52.1147 167.344 53.6351C167.344 54.2416 167.344 54.9164 167.387 55.6083C170.378 56.5991 171.839 55.0872 171.779 52.8834ZM245.057 47.6644C245.009 47.6175 244.966 47.566 244.928 47.5106C244.646 47.5106 244.006 47.5704 243.399 47.5704C242.792 47.5704 242.134 47.5277 241.869 47.5106C241.832 47.566 241.789 47.6175 241.741 47.6644C241.741 47.6644 241.955 51.3801 241.955 55.0616C241.955 58.7431 241.741 62.4588 241.741 62.4588C241.801 62.5042 241.853 62.559 241.895 62.6211C242.177 62.6211 242.809 62.5613 243.399 62.5613C243.988 62.5613 244.775 62.604 245.108 62.6211L245.245 62.4417C244.96 59.9923 244.832 57.5273 244.86 55.0616C244.843 50.8334 245.057 47.6644 245.057 47.6644ZM239.639 57.3337C239.639 60.4942 237.264 62.7492 233.197 62.7492C232.026 62.7492 230.744 62.6296 229.933 62.5442C229.471 62.5442 229.078 62.4759 228.848 62.4502C228.819 62.3911 228.781 62.3364 228.737 62.288C228.737 61.5192 228.95 57.9487 228.95 55.0531C228.95 52.1574 228.779 48.4844 228.737 47.6559C228.791 47.6098 228.837 47.555 228.873 47.4936C229.155 47.4936 229.796 47.5619 230.394 47.5619C230.992 47.5619 231.65 47.5619 231.924 47.4936C231.959 47.5532 232.002 47.6078 232.052 47.6559C232.052 48.2111 231.983 50.0988 231.932 52.2001H232.001C232.686 52.0177 233.393 51.9287 234.102 51.9353C236.512 51.9097 239.639 53.1482 239.639 57.3337ZM231.881 54.5747C231.881 54.5747 231.881 55.7876 231.838 56.4795C231.838 57.9914 231.787 59.2983 231.77 60.2294C231.846 60.2166 231.924 60.2166 232.001 60.2294C233.709 60.5454 236.358 60.4429 236.495 57.2227C236.597 55.036 235.068 53.4728 231.881 54.5747ZM193.302 54.7455C193.364 56.3014 192.962 57.8406 192.148 59.1678C191.333 60.4949 190.143 61.5503 188.727 62.1998C187.311 62.8494 185.735 63.0639 184.197 62.8161C182.659 62.5683 181.23 61.8695 180.09 60.8082C178.95 59.7469 178.151 58.371 177.795 56.8552C177.439 55.3394 177.541 53.7519 178.089 52.2943C178.637 50.8366 179.605 49.5745 180.872 48.6681C182.138 47.7616 183.645 47.2518 185.202 47.2031C186.231 47.1678 187.257 47.3355 188.222 47.6968C189.186 48.0581 190.069 48.6059 190.822 49.3087C191.574 50.0116 192.18 50.8558 192.606 51.7931C193.032 52.7304 193.268 53.7424 193.302 54.7712V54.7455ZM189.987 54.0195C189.879 53.399 189.649 52.8059 189.311 52.2742C188.973 51.7425 188.534 51.2826 188.018 50.9208C187.502 50.559 186.92 50.3025 186.305 50.1658C185.69 50.0292 185.054 50.0151 184.433 50.1244C183.195 50.4338 182.129 51.2192 181.466 52.31C180.804 53.4008 180.599 54.7089 180.896 55.9499C180.997 56.5756 181.222 57.1748 181.557 57.7129C181.892 58.251 182.33 58.7172 182.847 59.0843C183.364 59.4515 183.949 59.7124 184.567 59.8517C185.185 59.9911 185.825 60.0063 186.45 59.8962C187.069 59.7434 187.651 59.4699 188.164 59.0916C188.677 58.7133 189.11 58.2376 189.438 57.6917C189.767 57.1458 189.985 56.5404 190.079 55.9103C190.173 55.2801 190.142 54.6376 189.987 54.0195ZM148.555 76.4673C148.619 78.0256 148.218 79.5675 147.403 80.8974C146.588 82.2273 145.396 83.2851 143.979 83.9364C142.561 84.5877 140.982 84.8032 139.442 84.5554C137.902 84.3077 136.47 83.6079 135.328 82.545C134.187 81.4821 133.387 80.104 133.031 78.5857C132.674 77.0674 132.777 75.4775 133.327 74.0179C133.876 72.5583 134.847 71.2948 136.116 70.388C137.385 69.4812 138.895 68.9719 140.455 68.9249C142.529 68.8534 144.547 69.6074 146.065 71.0214C147.584 72.4355 148.479 74.394 148.555 76.4673ZM145.231 75.7413C145.124 75.12 144.895 74.526 144.557 73.9933C144.22 73.4606 143.781 72.9998 143.265 72.6371C142.749 72.2745 142.166 72.0172 141.551 71.88C140.935 71.7428 140.298 71.7284 139.677 71.8377C138.44 72.1508 137.375 72.9386 136.715 74.0306C136.054 75.1226 135.851 76.4308 136.148 77.6717C136.255 78.2935 136.483 78.8882 136.82 79.4214C137.157 79.9547 137.597 80.416 138.113 80.7788C138.629 81.1416 139.212 81.3988 139.828 81.5355C140.444 81.6722 141.081 81.6857 141.702 81.5753C142.941 81.2642 144.007 80.4767 144.667 79.3842C145.328 78.2916 145.531 76.9824 145.231 75.7413ZM116.385 76.4673C116.449 78.0256 116.047 79.5675 115.233 80.8974C114.418 82.2273 113.226 83.2851 111.809 83.9364C110.391 84.5877 108.812 84.8032 107.272 84.5554C105.732 84.3077 104.3 83.6079 103.158 82.545C102.017 81.4821 101.217 80.104 100.861 78.5857C100.504 77.0674 100.607 75.4775 101.157 74.0179C101.706 72.5583 102.677 71.2948 103.946 70.388C105.215 69.4812 106.725 68.9719 108.285 68.9249C109.312 68.8884 110.336 69.0545 111.299 69.4138C112.263 69.7731 113.145 70.3185 113.898 71.0189C114.65 71.7193 115.257 72.5609 115.683 73.4958C116.11 74.4306 116.349 75.4404 116.385 76.4673ZM113.07 75.7413C112.847 74.4907 112.137 73.3794 111.096 72.6509C110.055 71.9224 108.767 71.6361 107.516 71.8548C106.277 72.166 105.21 72.9531 104.548 74.0453C103.886 75.1375 103.681 76.4467 103.978 77.6888C104.085 78.3106 104.313 78.9053 104.65 79.4385C104.987 79.9717 105.427 80.4331 105.943 80.7959C106.459 81.1587 107.042 81.4159 107.658 81.5526C108.274 81.6893 108.911 81.7028 109.532 81.5924C110.775 81.2813 111.844 80.4916 112.507 79.3955C113.17 78.2994 113.372 76.9859 113.07 75.7413ZM95.7926 62.7577C96.8161 62.8092 97.839 62.6456 98.7953 62.2774C99.7516 61.9093 100.62 61.3448 101.345 60.6204C102.069 59.896 102.634 59.0278 103.002 58.0718C103.37 57.1158 103.534 56.0933 103.483 55.0701C103.483 54.0482 103.279 53.0366 102.884 52.0943C102.488 51.152 101.909 50.298 101.179 49.5822C100.45 48.8664 99.5847 48.3032 98.6349 47.9255C97.685 47.5478 96.6694 47.3632 95.6474 47.3825C94.1984 47.3778 92.7741 47.7581 91.5204 48.4844V51.158C91.5891 51.1747 91.6552 51.2005 91.7169 51.2349C92.3999 50.6397 93.2092 50.2074 94.0837 49.9707C94.7364 49.8085 95.4151 49.7802 96.079 49.8873C96.7428 49.9944 97.3782 50.2348 97.9466 50.594C98.5151 50.9531 99.0049 51.4236 99.3866 51.9771C99.7683 52.5306 100.034 53.1556 100.167 53.8145C97.8006 53.8145 95.2116 53.6266 94.6562 53.5668C94.6065 53.6161 94.5487 53.6565 94.4853 53.6864C94.4853 54.5405 94.3486 55.7108 94.3059 56.0951C94.3499 56.1306 94.39 56.1707 94.4255 56.2147C94.9211 56.2147 97.5015 56.061 100.27 56.0524C100.199 56.9685 99.8592 57.8433 99.294 58.5678C98.7288 59.2923 97.9628 59.8346 97.0914 60.1269C95.6594 60.5301 94.1265 60.3585 92.8192 59.6485C92.2861 59.2928 91.7907 58.8835 91.341 58.4271L91.1444 58.4869V59.9475C91.1444 60.6223 91.0932 61.3569 91.0932 61.3569C92.482 62.288 94.1205 62.7764 95.7926 62.7577ZM262.786 53.8145C262.786 51.0213 262.838 48.3819 262.846 47.69C262.788 47.6395 262.737 47.5821 262.692 47.5192C262.445 47.5192 261.915 47.579 261.342 47.579C260.77 47.579 260.197 47.579 259.975 47.5192H259.821C259.454 48.0915 257.207 51.6022 255.78 53.6009C254.925 54.8053 253.49 56.7785 252.362 58.2989V56.2489C252.362 53.3105 252.542 48.5613 252.576 47.6473C252.512 47.6115 252.454 47.5653 252.405 47.5106C252.106 47.5106 251.491 47.5704 250.918 47.5704C250.346 47.5704 249.662 47.5277 249.389 47.5106C249.353 47.5727 249.31 47.6301 249.26 47.6815C249.26 48.6638 249.474 53.3447 249.474 56.2233C249.474 59.1019 249.423 61.6644 249.414 62.3563C249.472 62.4068 249.524 62.4642 249.568 62.5271C249.816 62.5271 250.346 62.4673 250.918 62.4673C251.491 62.4673 252.046 62.51 252.277 62.5271L252.362 62.4759H252.439C252.772 61.9634 254.481 59.9133 257.19 55.8133C258.147 54.3697 259.198 52.9347 259.89 52.0293V53.823C259.89 56.77 259.71 61.5106 259.676 62.4332C259.74 62.469 259.798 62.5152 259.847 62.5698C260.146 62.5698 260.753 62.51 261.334 62.51C261.915 62.51 262.59 62.5527 262.863 62.5698C262.899 62.5078 262.942 62.4504 262.991 62.399C262.966 61.4081 262.786 56.7272 262.786 53.8145ZM119.811 62.3563C119.273 61.3911 117.017 56.6931 115.761 53.5924C114.573 50.6711 113.591 48.1684 113.3 47.3569C113.201 47.3493 113.103 47.3263 113.01 47.2886C112.163 47.6709 111.292 47.999 110.404 48.2709C110.378 48.3648 110.338 48.4542 110.284 48.5357C110.335 48.6467 110.404 48.8261 110.498 49.0396C108.78 53.6455 106.75 58.129 104.423 62.4588L104.559 62.5869C105.725 62.4997 106.896 62.4997 108.063 62.5869C108.063 62.5869 109.344 58.6577 111.796 52.0805L113.035 55.0189C114.42 58.3246 115.855 62.5869 115.855 62.5869C115.855 62.5869 116.71 62.5015 117.658 62.5015C118.299 62.5015 119.367 62.5015 119.692 62.5698C119.722 62.4993 119.763 62.4332 119.811 62.3734V62.3563ZM130.347 74.4173C130.347 78.6028 127.211 79.8413 124.801 79.8413C124.133 79.8483 123.467 79.7708 122.819 79.6107C122.87 81.6864 122.921 83.5485 122.939 84.0952C122.889 84.1432 122.846 84.1978 122.81 84.2574C122.537 84.2574 121.888 84.1891 121.281 84.1891C120.674 84.1891 120.042 84.1891 119.76 84.2489C119.721 84.1918 119.676 84.14 119.623 84.0952C119.623 83.241 119.837 79.5765 119.837 76.698C119.837 73.8194 119.657 70.2318 119.623 69.4631C119.662 69.4105 119.694 69.3531 119.717 69.2922L120.409 69.2324C121.561 69.0923 122.719 69.0154 123.878 69.0018C127.963 68.9847 130.347 71.2398 130.347 74.4173ZM127.202 74.5113C127.057 71.291 124.365 71.18 122.699 71.5045C122.699 72.4356 122.699 73.7425 122.768 75.2629V77.2446C125.801 78.2099 127.296 76.698 127.202 74.4942V74.5113Z" fill="black"/>
<path d="M76.8324 76.5955C76.8324 72.2135 66.3483 68.6602 53.4119 68.6602C40.4756 68.6602 30 72.2135 30 76.5955C30.1172 82.7264 32.6357 88.5668 37.0143 92.8612C41.393 97.1556 47.2822 99.5614 53.4162 99.5614C59.5502 99.5614 65.4394 97.1556 69.8181 92.8612C74.1967 88.5668 76.7153 82.7264 76.8324 76.5955Z" fill="#FD403E"/>
<path d="M74.2178 76.5955C74.2178 79.9097 64.9043 82.5747 53.4119 82.5747C41.9196 82.5747 32.6146 79.8926 32.6146 76.5955C32.6146 73.2983 41.9281 70.6162 53.4119 70.6162C64.8958 70.6162 74.2178 73.3069 74.2178 76.5955Z" fill="#BBFF00"/>
<path d="M76.8324 53.4046C76.7153 47.2736 74.1967 41.4333 69.8181 37.1389C65.4394 32.8445 59.5502 30.4387 53.4162 30.4387C47.2822 30.4387 41.393 32.8445 37.0143 37.1389C32.6357 41.4333 30.1172 47.2736 30 53.4046C30 57.7865 40.4841 61.3399 53.4119 61.3399C66.3398 61.3399 76.8324 57.7865 76.8324 53.4046Z" fill="#FD403E"/>
</g>
<path d="M33 322V148C33 143.582 36.5639 140 40.9822 140H143C175.5 140 180.5 165.5 180.5 174.5V360.5C180.5 360.5 174 330 143 330H40.9783C36.56 330 33 326.418 33 322Z" fill="#BAD56C"/>
<path d="M327.5 322V148C327.5 143.582 323.936 140 319.518 140H217.5C185 140 180 165.5 180 174.5V360.5C180 360.5 186.5 330 217.5 330H319.522C323.94 330 327.5 326.418 327.5 322Z" fill="#BAD56C"/>
<path d="M327.5 322V148C327.5 143.582 323.936 140 319.518 140H217.5C185 140 180 165.5 180 174.5V360.5C180 360.5 186.5 330 217.5 330H319.522C323.94 330 327.5 326.418 327.5 322Z" fill="url(#paint0_linear_2697_3173)" fill-opacity="0.2"/>
<g filter="url(#filter0_d_2697_3173)">
<path d="M47.5 306V133C47.5 128.582 51.0675 125 55.4857 125H143C175.5 125 180.5 150.5 180.5 159.5V333.5C180.5 333.5 174 314 143 314H55.4883C51.07 314 47.5 310.418 47.5 306Z" fill="white"/>
<path d="M313 306V133C313 128.582 309.433 125 305.014 125H217.5C185 125 180 150.5 180 159.5V333.5C180 333.5 186.5 314 217.5 314H305.012C309.43 314 313 310.418 313 306Z" fill="white"/>
<path d="M313 306V133C313 128.582 309.433 125 305.014 125H217.5C185 125 180 150.5 180 159.5V333.5C180 333.5 186.5 314 217.5 314H305.012C309.43 314 313 310.418 313 306Z" fill="url(#paint1_linear_2697_3173)" fill-opacity="0.6"/>
<circle cx="81.5" cy="160.5" r="13.5" fill="#A5DF05"/>
<rect x="103" y="152" width="24" height="3" rx="1.5" fill="#D0DBAF"/>
<rect x="103" y="159" width="50" height="3" rx="1.5" fill="#D0DBAF"/>
<rect x="103" y="166" width="32" height="3" rx="1.5" fill="#D0DBAF"/>
<path d="M77 160.474L80.4615 163L86 157" stroke="white" stroke-width="2" stroke-linecap="round"/>
<circle cx="81.5" cy="238.5" r="13.5" fill="#A5DF05"/>
<rect x="103" y="230" width="15" height="3" rx="1.5" fill="#D0DBAF"/>
<rect x="103" y="237" width="27" height="3" rx="1.5" fill="#D0DBAF"/>
<rect x="103" y="244" width="45" height="3" rx="1.5" fill="#D0DBAF"/>
<path d="M77 238.474L80.4615 241L86 235" stroke="white" stroke-width="2" stroke-linecap="round"/>
<circle cx="81.5" cy="277.5" r="13.5" fill="#A5DF05"/>
<rect x="103" y="269" width="45" height="3" rx="1.5" fill="#D0DBAF"/>
<rect x="103" y="276" width="27" height="3" rx="1.5" fill="#D0DBAF"/>
<rect x="103" y="283" width="40" height="3" rx="1.5" fill="#D0DBAF"/>
<path d="M77 277.474L80.4615 280L86 274" stroke="white" stroke-width="2" stroke-linecap="round"/>
<circle cx="81.5" cy="199.5" r="13.5" fill="#FD403E"/>
<path d="M82.811 192.512C82.8174 192.231 82.5917 192 82.3111 192H80.6954C80.4149 192 80.1893 192.231 80.1955 192.511L80.4023 201.78H82.5977L82.811 192.512ZM81.5 206C82.3046 206 82.9932 205.337 83 204.512C82.9932 203.7 82.3046 203.038 81.5 203.038C80.6682 203.038 79.9932 203.7 80.0001 204.512C79.9932 205.337 80.6682 206 81.5 206Z" fill="white"/>
<rect x="103" y="191" width="40" height="3" rx="1.5" fill="#F0C6C5"/>
<rect x="103" y="198" width="24" height="3" rx="1.5" fill="#F0C6C5"/>
<rect x="103" y="205" width="45" height="3" rx="1.5" fill="#F0C6C5"/>
</g>
<g filter="url(#filter1_di_2697_3173)">
<path fill-rule="evenodd" clip-rule="evenodd" d="M177.192 260.543C171.375 251.525 168 240.785 168 229.256C168 197.333 193.879 171.454 225.802 171.454C257.725 171.454 283.604 197.333 283.604 229.256C283.604 261.179 257.725 287.058 225.802 287.058C214.979 287.058 204.85 284.083 196.19 278.907L168 287.058L177.192 260.543Z" fill="url(#paint2_linear_2697_3173)"/>
</g>
<g filter="url(#filter2_dd_2697_3173)">
<rect x="195" y="207" width="35" height="10" rx="5" fill="white"/>
</g>
<g filter="url(#filter3_dd_2697_3173)">
<rect x="195" y="225" width="48" height="10" rx="5" fill="white"/>
</g>
<g filter="url(#filter4_dd_2697_3173)">
<rect x="195" y="243" width="64" height="10" rx="5" fill="white"/>
</g>
<g filter="url(#filter5_di_2697_3173)">
<path fill-rule="evenodd" clip-rule="evenodd" d="M365.545 205.131C372.735 193.983 376.908 180.706 376.908 166.454C376.908 126.991 344.917 95 305.454 95C265.991 95 234 126.991 234 166.454C234 205.917 265.991 237.908 305.454 237.908C318.833 237.908 331.354 234.23 342.06 227.831L376.908 237.907L365.545 205.131Z" fill="url(#paint3_linear_2697_3173)"/>
</g>
<g filter="url(#filter6_dd_2697_3173)">
<rect x="268" y="142" width="54" height="12" rx="6" fill="white"/>
</g>
<g filter="url(#filter7_dd_2697_3173)">
<rect x="268" y="162" width="73" height="12" rx="6" fill="white"/>
</g>
<g filter="url(#filter8_dd_2697_3173)">
<rect x="268" y="182" width="42" height="12" rx="6" fill="white"/>
</g>
</g>
<defs>
<filter id="filter0_d_2697_3173" x="41.5" y="125" width="277.5" height="222.5" filterUnits="userSpaceOnUse" color-interpolation-filters="sRGB">
<feFlood flood-opacity="0" result="BackgroundImageFix"/>
<feColorMatrix in="SourceAlpha" type="matrix" values="0 0 0 0 0 0 0 0 0 0 0 0 0 0 0 0 0 0 127 0" result="hardAlpha"/>
<feOffset dy="8"/>
<feGaussianBlur stdDeviation="3"/>
<feComposite in2="hardAlpha" operator="out"/>
<feColorMatrix type="matrix" values="0 0 0 0 0.546792 0 0 0 0 0.641667 0 0 0 0 0.272708 0 0 0 0.6 0"/>
<feBlend mode="normal" in2="BackgroundImageFix" result="effect1_dropShadow_2697_3173"/>
<feBlend mode="normal" in="SourceGraphic" in2="effect1_dropShadow_2697_3173" result="shape"/>
</filter>
<filter id="filter1_di_2697_3173" x="152" y="155.454" width="155.604" height="155.604" filterUnits="userSpaceOnUse" color-interpolation-filters="sRGB">
<feFlood flood-opacity="0" result="BackgroundImageFix"/>
<feColorMatrix in="SourceAlpha" type="matrix" values="0 0 0 0 0 0 0 0 0 0 0 0 0 0 0 0 0 0 127 0" result="hardAlpha"/>
<feOffset dx="4" dy="4"/>
<feGaussianBlur stdDeviation="10"/>
<feComposite in2="hardAlpha" operator="out"/>
<feColorMatrix type="matrix" values="0 0 0 0 0.815686 0 0 0 0 0.164706 0 0 0 0 0.156863 0 0 0 0.4 0"/>
<feBlend mode="normal" in2="BackgroundImageFix" result="effect1_dropShadow_2697_3173"/>
<feBlend mode="normal" in="SourceGraphic" in2="effect1_dropShadow_2697_3173" result="shape"/>
<feColorMatrix in="SourceAlpha" type="matrix" values="0 0 0 0 0 0 0 0 0 0 0 0 0 0 0 0 0 0 127 0" result="hardAlpha"/>
<feOffset/>
<feGaussianBlur stdDeviation="7.53928"/>
<feComposite in2="hardAlpha" operator="arithmetic" k2="-1" k3="1"/>
<feColorMatrix type="matrix" values="0 0 0 0 1 0 0 0 0 0.620681 0 0 0 0 0.616667 0 0 0 1 0"/>
<feBlend mode="overlay" in2="shape" result="effect2_innerShadow_2697_3173"/>
</filter>
<filter id="filter2_dd_2697_3173" x="191" y="205" width="43" height="18" filterUnits="userSpaceOnUse" color-interpolation-filters="sRGB">
<feFlood flood-opacity="0" result="BackgroundImageFix"/>
<feColorMatrix in="SourceAlpha" type="matrix" values="0 0 0 0 0 0 0 0 0 0 0 0 0 0 0 0 0 0 127 0" result="hardAlpha"/>
<feOffset dy="-1"/>
<feComposite in2="hardAlpha" operator="out"/>
<feColorMatrix type="matrix" values="0 0 0 0 0.7625 0 0 0 0 0.118998 0 0 0 0 0.111198 0 0 0 1 0"/>
<feBlend mode="normal" in2="BackgroundImageFix" result="effect1_dropShadow_2697_3173"/>
<feColorMatrix in="SourceAlpha" type="matrix" values="0 0 0 0 0 0 0 0 0 0 0 0 0 0 0 0 0 0 127 0" result="hardAlpha"/>
<feOffset dy="2"/>
<feGaussianBlur stdDeviation="2"/>
<feComposite in2="hardAlpha" operator="out"/>
<feColorMatrix type="matrix" values="0 0 0 0 1 0 0 0 0 0.361111 0 0 0 0 0.354167 0 0 0 1 0"/>
<feBlend mode="normal" in2="effect1_dropShadow_2697_3173" result="effect2_dropShadow_2697_3173"/>
<feBlend mode="normal" in="SourceGraphic" in2="effect2_dropShadow_2697_3173" result="shape"/>
</filter>
<filter id="filter3_dd_2697_3173" x="191" y="223" width="56" height="18" filterUnits="userSpaceOnUse" color-interpolation-filters="sRGB">
<feFlood flood-opacity="0" result="BackgroundImageFix"/>
<feColorMatrix in="SourceAlpha" type="matrix" values="0 0 0 0 0 0 0 0 0 0 0 0 0 0 0 0 0 0 127 0" result="hardAlpha"/>
<feOffset dy="-1"/>
<feComposite in2="hardAlpha" operator="out"/>
<feColorMatrix type="matrix" values="0 0 0 0 0.7625 0 0 0 0 0.118998 0 0 0 0 0.111198 0 0 0 1 0"/>
<feBlend mode="normal" in2="BackgroundImageFix" result="effect1_dropShadow_2697_3173"/>
<feColorMatrix in="SourceAlpha" type="matrix" values="0 0 0 0 0 0 0 0 0 0 0 0 0 0 0 0 0 0 127 0" result="hardAlpha"/>
<feOffset dy="2"/>
<feGaussianBlur stdDeviation="2"/>
<feComposite in2="hardAlpha" operator="out"/>
<feColorMatrix type="matrix" values="0 0 0 0 1 0 0 0 0 0.361111 0 0 0 0 0.354167 0 0 0 1 0"/>
<feBlend mode="normal" in2="effect1_dropShadow_2697_3173" result="effect2_dropShadow_2697_3173"/>
<feBlend mode="normal" in="SourceGraphic" in2="effect2_dropShadow_2697_3173" result="shape"/>
</filter>
<filter id="filter4_dd_2697_3173" x="191" y="241" width="72" height="18" filterUnits="userSpaceOnUse" color-interpolation-filters="sRGB">
<feFlood flood-opacity="0" result="BackgroundImageFix"/>
<feColorMatrix in="SourceAlpha" type="matrix" values="0 0 0 0 0 0 0 0 0 0 0 0 0 0 0 0 0 0 127 0" result="hardAlpha"/>
<feOffset dy="-1"/>
<feComposite in2="hardAlpha" operator="out"/>
<feColorMatrix type="matrix" values="0 0 0 0 0.7625 0 0 0 0 0.118998 0 0 0 0 0.111198 0 0 0 1 0"/>
<feBlend mode="normal" in2="BackgroundImageFix" result="effect1_dropShadow_2697_3173"/>
<feColorMatrix in="SourceAlpha" type="matrix" values="0 0 0 0 0 0 0 0 0 0 0 0 0 0 0 0 0 0 127 0" result="hardAlpha"/>
<feOffset dy="2"/>
<feGaussianBlur stdDeviation="2"/>
<feComposite in2="hardAlpha" operator="out"/>
<feColorMatrix type="matrix" values="0 0 0 0 1 0 0 0 0 0.361111 0 0 0 0 0.354167 0 0 0 1 0"/>
<feBlend mode="normal" in2="effect1_dropShadow_2697_3173" result="effect2_dropShadow_2697_3173"/>
<feBlend mode="normal" in="SourceGraphic" in2="effect2_dropShadow_2697_3173" result="shape"/>
</filter>
<filter id="filter5_di_2697_3173" x="222" y="91" width="182.908" height="182.907" filterUnits="userSpaceOnUse" color-interpolation-filters="sRGB">
<feFlood flood-opacity="0" result="BackgroundImageFix"/>
<feColorMatrix in="SourceAlpha" type="matrix" values="0 0 0 0 0 0 0 0 0 0 0 0 0 0 0 0 0 0 127 0" result="hardAlpha"/>
<feOffset dx="8" dy="16"/>
<feGaussianBlur stdDeviation="10"/>
<feComposite in2="hardAlpha" operator="out"/>
<feColorMatrix type="matrix" values="0 0 0 0 0.340566 0 0 0 0 0.433333 0 0 0 0 0.0830556 0 0 0 0.4 0"/>
<feBlend mode="normal" in2="BackgroundImageFix" result="effect1_dropShadow_2697_3173"/>
<feBlend mode="normal" in="SourceGraphic" in2="effect1_dropShadow_2697_3173" result="shape"/>
<feColorMatrix in="SourceAlpha" type="matrix" values="0 0 0 0 0 0 0 0 0 0 0 0 0 0 0 0 0 0 127 0" result="hardAlpha"/>
<feOffset/>
<feGaussianBlur stdDeviation="7.53928"/>
<feComposite in2="hardAlpha" operator="arithmetic" k2="-1" k3="1"/>
<feColorMatrix type="matrix" values="0 0 0 0 0.82 0 0 0 0 1 0 0 0 0 0.325 0 0 0 1 0"/>
<feBlend mode="overlay" in2="shape" result="effect2_innerShadow_2697_3173"/>
</filter>
<filter id="filter6_dd_2697_3173" x="264" y="140" width="62" height="20" filterUnits="userSpaceOnUse" color-interpolation-filters="sRGB">
<feFlood flood-opacity="0" result="BackgroundImageFix"/>
<feColorMatrix in="SourceAlpha" type="matrix" values="0 0 0 0 0 0 0 0 0 0 0 0 0 0 0 0 0 0 127 0" result="hardAlpha"/>
<feOffset dy="-1"/>
<feComposite in2="hardAlpha" operator="out"/>
<feColorMatrix type="matrix" values="0 0 0 0 0.680204 0 0 0 0 0.916667 0 0 0 0 0.0229167 0 0 0 1 0"/>
<feBlend mode="normal" in2="BackgroundImageFix" result="effect1_dropShadow_2697_3173"/>
<feColorMatrix in="SourceAlpha" type="matrix" values="0 0 0 0 0 0 0 0 0 0 0 0 0 0 0 0 0 0 127 0" result="hardAlpha"/>
<feOffset dy="2"/>
<feGaussianBlur stdDeviation="2"/>
<feComposite in2="hardAlpha" operator="out"/>
<feColorMatrix type="matrix" values="0 0 0 0 0.764706 0 0 0 0 0.980392 0 0 0 0 0.00784314 0 0 0 1 0"/>
<feBlend mode="normal" in2="effect1_dropShadow_2697_3173" result="effect2_dropShadow_2697_3173"/>
<feBlend mode="normal" in="SourceGraphic" in2="effect2_dropShadow_2697_3173" result="shape"/>
</filter>
<filter id="filter7_dd_2697_3173" x="264" y="160" width="81" height="20" filterUnits="userSpaceOnUse" color-interpolation-filters="sRGB">
<feFlood flood-opacity="0" result="BackgroundImageFix"/>
<feColorMatrix in="SourceAlpha" type="matrix" values="0 0 0 0 0 0 0 0 0 0 0 0 0 0 0 0 0 0 127 0" result="hardAlpha"/>
<feOffset dy="-1"/>
<feComposite in2="hardAlpha" operator="out"/>
<feColorMatrix type="matrix" values="0 0 0 0 0.680204 0 0 0 0 0.916667 0 0 0 0 0.0229167 0 0 0 1 0"/>
<feBlend mode="normal" in2="BackgroundImageFix" result="effect1_dropShadow_2697_3173"/>
<feColorMatrix in="SourceAlpha" type="matrix" values="0 0 0 0 0 0 0 0 0 0 0 0 0 0 0 0 0 0 127 0" result="hardAlpha"/>
<feOffset dy="2"/>
<feGaussianBlur stdDeviation="2"/>
<feComposite in2="hardAlpha" operator="out"/>
<feColorMatrix type="matrix" values="0 0 0 0 0.764706 0 0 0 0 0.980392 0 0 0 0 0.00784314 0 0 0 1 0"/>
<feBlend mode="normal" in2="effect1_dropShadow_2697_3173" result="effect2_dropShadow_2697_3173"/>
<feBlend mode="normal" in="SourceGraphic" in2="effect2_dropShadow_2697_3173" result="shape"/>
</filter>
<filter id="filter8_dd_2697_3173" x="264" y="180" width="50" height="20" filterUnits="userSpaceOnUse" color-interpolation-filters="sRGB">
<feFlood flood-opacity="0" result="BackgroundImageFix"/>
<feColorMatrix in="SourceAlpha" type="matrix" values="0 0 0 0 0 0 0 0 0 0 0 0 0 0 0 0 0 0 127 0" result="hardAlpha"/>
<feOffset dy="-1"/>
<feComposite in2="hardAlpha" operator="out"/>
<feColorMatrix type="matrix" values="0 0 0 0 0.680204 0 0 0 0 0.916667 0 0 0 0 0.0229167 0 0 0 1 0"/>
<feBlend mode="normal" in2="BackgroundImageFix" result="effect1_dropShadow_2697_3173"/>
<feColorMatrix in="SourceAlpha" type="matrix" values="0 0 0 0 0 0 0 0 0 0 0 0 0 0 0 0 0 0 127 0" result="hardAlpha"/>
<feOffset dy="2"/>
<feGaussianBlur stdDeviation="2"/>
<feComposite in2="hardAlpha" operator="out"/>
<feColorMatrix type="matrix" values="0 0 0 0 0.764706 0 0 0 0 0.980392 0 0 0 0 0.00784314 0 0 0 1 0"/>
<feBlend mode="normal" in2="effect1_dropShadow_2697_3173" result="effect2_dropShadow_2697_3173"/>
<feBlend mode="normal" in="SourceGraphic" in2="effect2_dropShadow_2697_3173" result="shape"/>
</filter>
<linearGradient id="paint0_linear_2697_3173" x1="180" y1="298" x2="265" y2="298" gradientUnits="userSpaceOnUse">
<stop/>
<stop offset="1" stop-opacity="0"/>
</linearGradient>
<linearGradient id="paint1_linear_2697_3173" x1="180" y1="229" x2="218" y2="229" gradientUnits="userSpaceOnUse">
<stop stop-color="#C3D392"/>
<stop offset="1" stop-color="#C3D392" stop-opacity="0"/>
</linearGradient>
<linearGradient id="paint2_linear_2697_3173" x1="184.104" y1="259.629" x2="248.011" y2="176.308" gradientUnits="userSpaceOnUse">
<stop stop-color="#BF2220"/>
<stop offset="1" stop-color="#FD403E"/>
</linearGradient>
<linearGradient id="paint3_linear_2697_3173" x1="357" y1="204" x2="278" y2="101" gradientUnits="userSpaceOnUse">
<stop stop-color="#A5DF05"/>
<stop offset="1" stop-color="#BBFF00"/>
</linearGradient>
<clipPath id="clip0_2697_3173">
<rect width="360" height="360" rx="8" fill="white"/>
</clipPath>
<clipPath id="clip1_2697_3173">
<rect width="233" height="70" fill="white" transform="translate(30 30)"/>
</clipPath>
</defs>
</svg>
