<svg width="360" height="360" viewBox="0 0 360 360" fill="none" xmlns="http://www.w3.org/2000/svg">
<g clip-path="url(#clip0_2624_75710)">
<rect width="360" height="360" rx="8" fill="#EFF4F8"/>
<mask id="mask0_2624_75710" style="mask-type:alpha" maskUnits="userSpaceOnUse" x="40" y="88" width="280" height="280">
<path fill-rule="evenodd" clip-rule="evenodd" d="M180 368C257.32 368 320 305.32 320 228C320 150.68 257.32 88 180 88C102.68 88 40 150.68 40 228C40 305.32 102.68 368 180 368ZM180 306C223.078 306 258 271.078 258 228C258 184.922 223.078 150 180 150C136.922 150 102 184.922 102 228C102 271.078 136.922 306 180 306Z" fill="#C4C4C4"/>
</mask>
<g mask="url(#mask0_2624_75710)">
<line x1="35" y1="228" x2="325" y2="228" stroke="#D2DAE0" stroke-width="8"/>
<line x1="74.6411" y1="331.702" x2="279.702" y2="126.641" stroke="#D2DAE0" stroke-width="8"/>
<line x1="181" y1="377" x2="181" y2="87" stroke="#D2DAE0" stroke-width="8"/>
<line x1="283.238" y1="333.824" x2="78.1766" y2="128.763" stroke="#D2DAE0" stroke-width="8"/>
</g>
<path d="M179.5 119C202.413 119 224.738 126.254 243.275 139.722C261.812 153.19 275.609 172.18 282.69 193.972L241.414 207.383C237.165 194.308 228.887 182.914 217.765 174.833C206.643 166.752 193.248 162.4 179.5 162.4V119Z" fill="#E62F34"/>
<path d="M282.69 193.974C289.77 215.765 289.77 239.239 282.689 261.031C275.608 282.822 261.81 301.812 243.273 315.28L217.764 280.168C228.886 272.087 237.165 260.693 241.413 247.618C245.662 234.543 245.662 220.459 241.414 207.384L282.69 193.974Z" fill="#FBBC06"/>
<path d="M243.09 315.412C224.525 328.841 202.185 336.048 179.272 336C156.36 335.952 134.05 328.651 115.541 315.144L141.125 280.087C152.23 288.191 165.616 292.571 179.363 292.6C193.111 292.629 206.515 288.305 217.654 280.247L243.09 315.412Z" fill="#4B7DDE"/>
<path d="M115.484 315.102C96.9839 301.583 83.2388 282.555 76.2184 260.744C69.198 238.933 69.2626 215.459 76.4031 193.687L117.642 207.212C113.358 220.276 113.319 234.36 117.531 247.446C121.743 260.533 129.99 271.95 141.09 280.061L115.484 315.102Z" fill="#86E0F5"/>
<path d="M76.3755 193.772C83.4982 171.994 97.3324 153.03 115.895 139.598C134.458 126.166 156.797 118.956 179.71 119L179.626 162.4C165.878 162.373 152.475 166.7 141.337 174.759C130.199 182.818 121.899 194.196 117.625 207.263L76.3755 193.772Z" fill="#B5EB71"/>
<path d="M216 141L179 171L179 111L216 141Z" fill="#B5EB71"/>
<path d="M269.965 226.46L230 200.541L287.063 182L269.965 226.46Z" fill="#E62F34"/>
<path d="M203.633 317.019L215.934 271L251.201 319.541L203.633 317.019Z" fill="#FBBC06"/>
<path d="M102.634 280.27L150.201 277.748L114.934 326.289L102.634 280.27Z" fill="#4B7DDE"/>
<path d="M107.965 173.27L125.063 217.73L68 199.189L107.965 173.27Z" fill="#86E0F5"/>
<path d="M124 161C132.567 153.003 143.181 147.064 155 144" stroke="#97CF50" stroke-width="4" stroke-linecap="round" stroke-linejoin="round"/>
<path d="M99.168 258.736C94.2101 248.117 91.8415 236.188 92.5795 224" stroke="#69BED2" stroke-width="4" stroke-linecap="round" stroke-linejoin="round"/>
<path d="M189.072 313.221C177.44 314.655 165.363 313.221 154 308.753" stroke="#3E69BE" stroke-width="4" stroke-linecap="round" stroke-linejoin="round"/>
<path d="M264.08 245C261.849 256.505 256.753 267.548 248.992 276.975" stroke="#D7A30F" stroke-width="4" stroke-linecap="round" stroke-linejoin="round"/>
<path d="M226 157.253C236.253 162.93 245.181 171.189 251.747 181.483" stroke="#C92428" stroke-width="4" stroke-linecap="round" stroke-linejoin="round"/>
<path d="M219.43 235.455L214.138 228.423C214.174 227.784 214.138 227.109 214.138 226.612L219.43 219.545C219.693 219.201 219.872 218.8 219.952 218.374C220.032 217.949 220.012 217.51 219.892 217.094C218.997 213.82 217.696 210.67 216.021 207.718C215.804 207.343 215.507 207.021 215.151 206.775C214.795 206.53 214.388 206.366 213.961 206.298L205.259 205.055L203.945 203.741L202.702 195.039C202.634 194.612 202.47 194.205 202.225 193.849C201.979 193.493 201.657 193.196 201.282 192.98C198.33 191.304 195.18 190.003 191.906 189.108C191.49 188.988 191.051 188.968 190.626 189.048C190.2 189.128 189.799 189.307 189.455 189.57L182.423 194.826H180.577L173.545 189.57C173.201 189.307 172.8 189.128 172.374 189.048C171.949 188.968 171.51 188.988 171.094 189.108C167.82 190.003 164.67 191.304 161.718 192.98C161.343 193.196 161.021 193.493 160.775 193.849C160.53 194.205 160.366 194.612 160.298 195.039L159.055 203.741L157.741 205.055L149.039 206.298C148.612 206.366 148.205 206.53 147.849 206.775C147.493 207.021 147.196 207.343 146.98 207.718C145.304 210.67 144.003 213.82 143.108 217.094C142.988 217.51 142.968 217.949 143.048 218.374C143.128 218.8 143.307 219.201 143.57 219.545L148.862 226.577V228.388L143.57 235.455C143.307 235.799 143.128 236.2 143.048 236.626C142.968 237.051 142.988 237.49 143.108 237.906C144.003 241.18 145.304 244.33 146.98 247.282C147.196 247.657 147.493 247.979 147.849 248.225C148.205 248.47 148.612 248.634 149.039 248.702L157.741 249.945L159.055 251.259L160.298 259.961C160.366 260.388 160.53 260.795 160.775 261.151C161.021 261.507 161.343 261.804 161.718 262.021C164.67 263.696 167.82 264.997 171.094 265.892C171.337 265.962 171.588 265.998 171.84 265.998C172.456 266.006 173.057 265.806 173.545 265.43L180.577 260.174H182.423L189.455 265.43C189.799 265.693 190.2 265.872 190.626 265.952C191.051 266.032 191.49 266.012 191.906 265.892C195.18 264.997 198.33 263.696 201.282 262.021C201.657 261.804 201.979 261.507 202.225 261.151C202.47 260.795 202.634 260.388 202.702 259.961L203.945 251.224C204.372 250.798 204.869 250.336 205.224 249.945L213.961 248.702C214.388 248.634 214.795 248.47 215.151 248.225C215.507 247.979 215.804 247.657 216.021 247.282C217.696 244.33 218.997 241.18 219.892 237.906C220.012 237.49 220.032 237.051 219.952 236.626C219.872 236.2 219.693 235.799 219.43 235.455ZM181.5 243.127C178.409 243.127 175.388 242.21 172.818 240.493C170.249 238.776 168.246 236.335 167.063 233.48C165.88 230.625 165.571 227.483 166.174 224.451C166.777 221.42 168.265 218.636 170.45 216.45C172.636 214.265 175.42 212.777 178.451 212.174C181.483 211.571 184.625 211.88 187.48 213.063C190.335 214.246 192.776 216.249 194.493 218.818C196.21 221.388 197.127 224.409 197.127 227.5C197.127 231.644 195.48 235.619 192.55 238.55C189.619 241.48 185.644 243.127 181.5 243.127Z" fill="#062543"/>
<circle cx="325" cy="228" r="8" stroke="#D2DAE0" stroke-width="8"/>
<circle cx="282" cy="333" r="8" stroke="#D2DAE0" stroke-width="8"/>
<circle cx="282" cy="125" r="8" stroke="#D2DAE0" stroke-width="8"/>
<circle cx="181" cy="83" r="8" stroke="#D2DAE0" stroke-width="8"/>
<g clip-path="url(#clip1_2624_75710)">
<path d="M75.4306 50.0025V57L83.8865 48.5333C83.5141 43.5001 81.2555 38.7937 77.5634 35.3569C73.8712 31.92 69.0181 30.0066 63.9763 30L56.9702 30V38.5163H63.9763C67.0218 38.5168 69.9423 39.7281 72.0957 41.8838C74.2492 44.0394 75.4593 46.963 75.4599 50.0115" fill="#FBBC06"/>
<path d="M63.9763 75.477H56.9724L65.4283 83.9415C70.4622 83.5734 75.1708 81.3128 78.6087 77.6135C82.0465 73.9142 83.9593 69.05 83.9629 63.9975V57H75.4576V63.9975C75.4578 65.5075 75.161 67.0027 74.5839 68.3978C74.0067 69.7928 73.1607 71.0604 72.0941 72.1281C71.0275 73.1958 69.7612 74.0427 68.3675 74.6204C66.9739 75.1981 65.4802 75.4953 63.9718 75.495" fill="#4B7DDE"/>
<path d="M38.5187 63.9975V57L30.0583 65.469C30.4316 70.5049 32.6929 75.2133 36.3888 78.6501C40.0847 82.0869 44.942 83.9979 49.9865 84H56.9724V75.4837H49.982C46.937 75.4826 44.017 74.271 41.864 72.1154C39.7111 69.9598 38.5013 67.0367 38.5007 63.9885" fill="#86E0F5"/>
<path d="M49.9821 38.4555H56.9725L48.5121 30C43.4818 30.3736 38.7785 32.6369 35.3452 36.3361C31.912 40.0353 30.0026 44.8969 30 49.9462V56.9438H38.5076V49.9395C38.5076 46.8906 39.7174 43.9665 41.8709 41.8103C44.0244 39.6542 46.9453 38.4426 49.9911 38.442" fill="#E62F34"/>
<path d="M120.457 70.3089H142.147V78.1119H111.758V37.5669H141.554V45.3991H120.454V53.5126H136.921V61.3179H120.454L120.457 70.3089ZM177.708 78.1119H150.225V37.5669H158.924V70.3089H177.708V78.1119ZM206.04 55.2384L220.048 37.5669H227.731V78.1119H219.059V51.0826L206.038 67.6786L193.046 51.1951V78.1119H184.348V37.5669H192.17L206.04 55.2384ZM258.969 61.0344L254.054 47.7166L249.111 61.0366L258.969 61.0344ZM261.851 68.5561H246.229L242.757 78.1119H233.492L249.423 37.5669H258.659L274.589 78.1119H265.324L261.851 68.5561Z" fill="#062543"/>
</g>
<circle cx="75" cy="333" r="8" stroke="#D2DAE0" stroke-width="8"/>
<circle cx="75" cy="125" r="8" stroke="#D2DAE0" stroke-width="8"/>
<circle cx="36" cy="228" r="8" stroke="#D2DAE0" stroke-width="8"/>
</g>
<defs>
<clipPath id="clip0_2624_75710">
<rect width="360" height="360" rx="8" fill="white"/>
</clipPath>
<clipPath id="clip1_2624_75710">
<rect width="245" height="54" fill="white" transform="translate(30 30)"/>
</clipPath>
</defs>
</svg>
