<svg width="360" height="360" viewBox="0 0 360 360" fill="none" xmlns="http://www.w3.org/2000/svg">
<g clip-path="url(#clip0_2113_75175)">
<rect width="360" height="360" rx="8" fill="#FFEFEF"/>
<g clip-path="url(#clip1_2113_75175)">
<path d="M111.5 43.5294H132.241V46.4848H114.738V56.291H129.288V59.2431H114.738V69.2955H132.445V72.251H111.5V43.5294Z" fill="#192038"/>
<path d="M168.969 43.5391H172.207V69.2631H187.165V72.2574H168.969V43.5391Z" fill="#192038"/>
<path d="M197.159 43.5391H193.922V72.2574H197.159V43.5391Z" fill="#192038"/>
<path d="M65.5921 43.5099H62.4288L49.9313 72.2963H53.25L56.6624 64.7068H71.2321L74.5962 72.2963H78.0799L65.5921 43.5099ZM57.9252 61.7934L63.97 47.1459L69.976 61.7934H57.9252Z" fill="#192038"/>
<path d="M161.626 72.2704L156.105 60.1212C159.137 58.6338 161.756 55.8081 161.756 52.1494C161.756 49.8096 160.933 47.7972 159.532 46.4005C157.721 44.5955 154.351 43.5261 150.829 43.5261H139.548V72.2704H142.786V61.1H153.066L158.113 72.2736L161.626 72.2704ZM150.537 58.1866H142.786V46.5204H150.572C155.222 46.5204 158.453 48.656 158.453 52.1883C158.462 55.9668 154.862 58.1866 150.537 58.1866Z" fill="#192038"/>
<path d="M46.4703 56.7867H33.2507V46.5237H51.4595L51.466 43.5261H30V72.2704H33.2507V59.7454H46.4572L46.4703 56.7867Z" fill="#192038"/>
<path d="M82.8887 43.5358H94.5639C97.8566 43.5358 100.492 44.4367 102.098 46.0797C102.702 46.697 103.176 47.4297 103.492 48.2342C103.807 49.0387 103.957 49.8985 103.934 50.7624C103.934 54.4988 101.632 56.427 99.3655 57.4153C102.785 58.4394 105.119 60.2023 105.119 64.2207C105.119 69.1464 101.386 72.2704 95.082 72.2704H82.8887V43.5358ZM94.0265 56.346C97.9408 56.346 100.657 54.5831 100.657 51.1318C100.657 48.2963 98.3909 46.4524 94.2758 46.4524H86.1006V56.346H94.0265ZM95.1921 69.3635C99.5565 69.3635 102.276 67.4191 102.276 64.1461C102.276 61.0287 99.6375 59.2204 94.6158 59.2204H86.1006V69.3635H95.1921Z" fill="#192038"/>
<path d="M227.316 64.7198C225.851 66.764 223.774 68.2874 221.384 69.0684C218.995 69.8495 216.42 69.8476 214.032 69.0629C211.644 68.2781 209.569 66.7516 208.108 64.7052C206.647 62.6588 205.875 60.1991 205.907 57.6839C205.938 55.1687 206.77 52.729 208.281 50.7196C209.794 48.7103 211.907 47.2359 214.313 46.5109C216.72 45.786 219.295 45.8482 221.663 46.6885C224.031 47.5289 226.071 49.1036 227.484 51.1837L230 49.5115C228.226 46.8947 225.665 44.9131 222.689 43.8553C219.711 42.7975 216.474 42.7188 213.45 43.6308C210.425 44.5429 207.77 46.3978 205.873 48.9254C203.975 51.4531 202.933 54.5212 202.899 57.6828C202.866 60.8445 203.841 63.9344 205.684 66.5021C207.527 69.0699 210.141 70.9814 213.146 71.9582C216.151 72.9348 219.388 72.9257 222.387 71.932C225.386 70.9384 227.989 69.0122 229.818 66.4341L227.316 64.7198Z" fill="#192038"/>
<path d="M30.0065 78.9591H33.1665C34.0913 78.9184 35.0169 79.0179 35.9121 79.2539C36.4963 79.4406 36.9954 79.8288 37.3205 80.3493C37.6135 80.8215 37.7642 81.3683 37.7543 81.9242C37.772 82.2695 37.7159 82.6146 37.5897 82.9366C37.4636 83.2584 37.2702 83.5497 37.0226 83.7908C36.6699 84.0946 36.254 84.316 35.8052 84.4389C37.532 84.83 38.3954 85.8022 38.3954 87.3555C38.4103 87.8079 38.3268 88.258 38.1507 88.6749C37.9746 89.0918 37.7101 89.4653 37.3755 89.7698C36.6768 90.3514 35.8038 90.6822 34.8954 90.7095C34.4637 90.7462 33.759 90.7646 32.7812 90.7646H30L30.0065 78.9591ZM32.2243 83.713H33.1956C33.7426 83.7429 34.2906 83.6759 34.8145 83.5154C35.0357 83.3904 35.2201 83.2095 35.3493 82.9907C35.4785 82.7718 35.5479 82.5228 35.5505 82.2687C35.5531 82.0145 35.4889 81.7642 35.3642 81.5427C35.2396 81.3213 35.0589 81.1366 34.8404 81.0071C34.2698 80.8361 33.6737 80.7659 33.0791 80.7998H32.2308L32.2243 83.713ZM32.2243 88.9174H33.2442C34.2932 88.9174 34.9839 88.8429 35.3163 88.6938C35.8376 88.4573 36.0934 87.968 36.0934 87.2226C36.0934 86.4773 35.7987 85.9653 35.2062 85.7286C34.5874 85.5434 33.9409 85.4678 33.296 85.5051H32.2243V88.9174Z" fill="#192038"/>
<path d="M44.6152 83.6936H49.297V85.6379H44.6152V88.8461H49.9543V90.7905H42.3456V78.959H49.7632V80.9033H44.6152V83.6936Z" fill="#192038"/>
<path d="M59.0875 78.959H61.6291L64.106 83.6612L66.5504 78.959H69.0499L65.1906 86.1078V90.7613H62.9242V86.1078L59.0875 78.959Z" fill="#192038"/>
<path d="M76.4478 78.7353C77.112 78.7155 77.7733 78.8285 78.3931 79.0678C79.013 79.3071 79.579 79.6678 80.0578 80.1288C81.1976 81.2306 81.7674 82.8012 81.7674 84.8406C81.7674 86.88 81.1976 88.454 80.0578 89.5623C79.0721 90.4691 77.7819 90.9723 76.443 90.9723C75.104 90.9723 73.8139 90.4691 72.828 89.5623C71.6884 88.4583 71.1185 86.8563 71.1185 84.7564C71.1172 83.8181 71.2805 82.8869 71.6009 82.0052C71.9973 80.8968 72.7881 79.9738 73.822 79.4127C74.622 78.9584 75.5281 78.7247 76.4478 78.7353ZM76.4478 80.6796C76.0476 80.658 75.6484 80.7354 75.2852 80.905C74.9221 81.0746 74.6064 81.3311 74.366 81.6519C73.7789 82.449 73.4852 83.498 73.4852 84.7985C73.4852 86.1725 73.7789 87.2592 74.366 88.0586C74.6196 88.3667 74.9382 88.615 75.299 88.7854C75.6597 88.9557 76.0537 89.0441 76.4527 89.0441C76.8516 89.0441 77.2456 88.9557 77.6063 88.7854C77.9672 88.615 78.2857 88.3667 78.5394 88.0586C79.1243 87.2571 79.4178 86.1876 79.42 84.8504C79.4221 83.5131 79.1286 82.4469 78.5394 81.6519C78.2975 81.3272 77.979 81.0674 77.6123 80.896C77.2456 80.7248 76.8421 80.647 76.4381 80.6699L76.4478 80.6796Z" fill="#192038"/>
<path d="M85.6656 78.959H87.932V85.7351C87.9014 86.3891 87.9658 87.044 88.123 87.6795C88.2606 88.1152 88.5611 88.481 88.9617 88.7003C89.3806 88.9236 89.85 89.0352 90.3246 89.0243C91.5809 89.0243 92.3418 88.5058 92.6073 87.4689C92.7056 86.8943 92.7457 86.3112 92.727 85.7286V78.959H94.9935V85.7643C95.0085 86.4144 94.9706 87.0647 94.8801 87.7086C94.7454 88.6344 94.2523 89.4702 93.5073 90.0354C92.5597 90.6508 91.4542 90.9783 90.3246 90.9783C89.1951 90.9783 88.0897 90.6508 87.142 90.0354C86.3958 89.4708 85.9015 88.635 85.766 87.7086C85.677 87.0646 85.6401 86.4143 85.6559 85.7643L85.6656 78.959Z" fill="#192038"/>
<path d="M99.5885 78.959H102.535C103.357 78.9417 104.18 78.9882 104.996 79.0983C105.875 79.2135 106.674 79.6725 107.217 80.3751C107.686 81.0132 107.93 81.7898 107.909 82.582C107.946 83.2794 107.764 83.971 107.389 84.5601C107.014 85.1492 106.465 85.6065 105.818 85.868L108.538 90.7613H105.896L103.483 86.2536H101.865V90.7613H99.5983L99.5885 78.959ZM101.855 84.319H102.674C103.32 84.3524 103.968 84.2856 104.594 84.1212C104.906 84.0063 105.171 83.7893 105.345 83.5055C105.515 83.2278 105.601 82.9073 105.594 82.582C105.614 82.3036 105.554 82.0254 105.421 81.7802C105.288 81.535 105.088 81.333 104.843 81.1983C104.479 81.022 104.082 80.9248 103.678 80.913C103.477 80.913 103.085 80.913 102.503 80.913H101.855V84.319Z" fill="#192038"/>
<path d="M118.701 78.959H121.851C122.777 78.9185 123.704 79.018 124.6 79.2538C125.183 79.4412 125.681 79.8293 126.005 80.3492C126.298 80.8214 126.449 81.3683 126.439 81.9242C126.461 82.2672 126.409 82.6112 126.288 82.9329C126.167 83.2546 125.979 83.547 125.737 83.7908C125.384 84.0945 124.968 84.3159 124.519 84.4389C126.246 84.8298 127.109 85.8021 127.109 87.3554C127.124 87.8078 127.041 88.2579 126.865 88.6748C126.689 89.0916 126.424 89.4652 126.09 89.7696C125.392 90.3513 124.52 90.6821 123.613 90.7095C123.181 90.7462 122.475 90.7646 121.495 90.7646H118.714L118.701 78.959ZM120.919 83.7129H121.89C122.437 83.7428 122.985 83.6758 123.509 83.5152C123.73 83.3903 123.915 83.2094 124.044 82.9906C124.173 82.7717 124.243 82.5227 124.245 82.2686C124.248 82.0144 124.183 81.7641 124.059 81.5427C123.934 81.3212 123.754 81.1365 123.535 81.007C122.964 80.8358 122.368 80.7656 121.774 80.7996H120.925L120.919 83.7129ZM120.919 88.9174H121.939C122.988 88.9174 123.677 88.8429 124.014 88.6937C124.532 88.4561 124.791 87.9657 124.791 87.2225C124.791 86.461 124.493 85.9652 123.901 85.7286C123.282 85.5432 122.636 85.4676 121.991 85.505H120.919V88.9174Z" fill="#192038"/>
<path d="M133.309 83.6936H137.991V85.6379H133.309V88.8461H138.648V90.7905H131.04V78.959H138.457V80.9033H133.309V83.6936Z" fill="#192038"/>
<path d="M150.207 82.4168H148.031C148.015 82.0317 147.882 81.6608 147.649 81.3538C147.46 81.13 147.221 80.9544 146.95 80.8416C146.68 80.729 146.387 80.6824 146.095 80.7057C145.683 80.6974 145.278 80.8101 144.929 81.0298C144.759 81.1278 144.618 81.2695 144.521 81.4405C144.423 81.6114 144.373 81.8052 144.376 82.0019C144.382 82.1926 144.442 82.3775 144.55 82.5353C144.657 82.6931 144.806 82.8172 144.981 82.8932C145.205 83.0163 145.852 83.2917 146.924 83.7227C147.996 84.1538 148.627 84.4194 148.867 84.5523C149.462 84.8512 149.949 85.3295 150.259 85.9198C150.466 86.3811 150.569 86.8823 150.56 87.3879C150.582 87.9281 150.473 88.4658 150.242 88.9544C150.01 89.4428 149.662 89.8673 149.229 90.191C148.39 90.7797 147.378 91.0716 146.354 91.0205C144.494 91.0205 143.178 90.4178 142.407 89.2124C141.978 88.4759 141.754 87.6376 141.76 86.7851H143.952C144.103 88.2973 144.912 89.0535 146.38 89.0535C146.86 89.0734 147.336 88.9504 147.746 88.7003C147.903 88.6065 148.033 88.4729 148.122 88.3131C148.212 88.1532 148.257 87.9728 148.255 87.7896C148.255 87.3425 147.983 86.9666 147.442 86.6685C147.232 86.5517 146.552 86.2569 145.406 85.7772C144.164 85.2522 143.341 84.7738 142.935 84.3417C142.392 83.7588 142.097 82.987 142.113 82.1898C142.096 81.3839 142.387 80.6017 142.925 80.0025C143.376 79.5105 143.953 79.1518 144.593 78.9654C145.093 78.807 145.616 78.7283 146.14 78.7321C146.978 78.7113 147.805 78.9233 148.53 79.3446C149.27 79.7682 149.813 80.4669 150.042 81.289C150.133 81.6586 150.189 82.0364 150.207 82.4168Z" fill="#192038"/>
<path d="M153.402 78.959H161.892V80.9033H158.762V90.7678H156.495V80.8968H153.393L153.402 78.959Z" fill="#192038"/>
</g>
<path d="M244.375 111.624V77.3739C244.375 67.4564 247.246 57.751 252.641 49.4291C258.035 41.1073 265.723 34.5247 274.777 30.476C283.83 26.4274 293.862 25.0856 303.661 26.6128C313.46 28.1399 322.608 32.4707 330 39.0824C337.392 32.4707 346.54 28.1399 356.339 26.6128C366.138 25.0856 376.17 26.4274 385.223 30.476C394.277 34.5247 401.965 41.1073 407.359 49.4291C412.754 57.751 415.625 67.4564 415.625 77.3739V111.624H441.312C448.125 111.624 454.659 114.33 459.476 119.148C464.294 123.965 467 130.499 467 137.311V299.999C467.005 311.429 464.147 322.678 458.688 332.72C453.229 342.761 445.342 351.276 435.747 357.487L426.414 355.843C413.142 353.514 399.459 346.202 389.167 335.773C378.892 325.344 372.812 312.723 372.812 299.999V111.624H389.938V77.3739C389.938 72.0863 388.307 66.9273 385.266 62.6012C382.226 58.2751 377.925 54.9927 372.95 53.2019C367.974 51.4112 362.568 51.1994 357.468 52.5954C352.368 53.9915 347.823 56.9274 344.453 61.0024C346.183 66.1399 347.125 71.6541 347.125 77.3739V299.999C347.125 321.046 357.092 339.832 370.877 353.806C376.436 359.422 382.645 364.354 389.372 368.499H261.5C243.333 368.499 225.909 361.282 213.063 348.436C200.217 335.589 193 318.166 193 299.999V137.311C193 130.499 195.706 123.965 200.524 119.148C205.341 114.33 211.875 111.624 218.688 111.624H244.375ZM270.062 77.3739V111.624H321.438V77.3739C321.438 70.5611 318.731 64.0274 313.914 59.2101C309.096 54.3927 302.563 51.6864 295.75 51.6864C288.937 51.6864 282.404 54.3927 277.586 59.2101C272.769 64.0274 270.062 70.5611 270.062 77.3739Z" fill="#D3BFBF" fill-opacity="0.4"/>
<path d="M72.3249 236.874V219.324C72.325 214.243 73.796 209.269 76.5603 205.005C79.3246 200.741 83.264 197.368 87.903 195.294C92.542 193.219 97.6824 192.531 102.704 193.314C107.725 194.097 112.412 196.316 116.2 199.703C119.988 196.316 124.675 194.097 129.696 193.314C134.717 192.531 139.858 193.219 144.497 195.294C149.136 197.368 153.075 200.741 155.839 205.005C158.604 209.269 160.075 214.243 160.075 219.324V236.874H173.237C176.728 236.874 180.076 238.261 182.544 240.729C185.013 243.198 186.4 246.546 186.4 250.037V333.399C186.402 339.256 184.938 345.02 182.14 350.165C179.343 355.311 175.302 359.674 170.385 362.857L165.603 362.014C158.802 360.821 151.791 357.074 146.517 351.73C141.252 346.386 138.137 339.919 138.137 333.399V236.874H146.912V219.324C146.912 216.615 146.077 213.971 144.519 211.755C142.961 209.538 140.757 207.856 138.207 206.938C135.658 206.021 132.888 205.912 130.275 206.628C127.661 207.343 125.332 208.847 123.606 210.935C124.492 213.568 124.975 216.393 124.975 219.324V333.399C124.975 344.183 130.082 353.81 137.146 360.97C139.994 363.848 143.175 366.375 146.623 368.499H81.0999C71.7908 368.499 62.863 364.801 56.2805 358.218C49.698 351.636 46 342.708 46 333.399V250.037C46 246.546 47.3868 243.198 49.8552 240.729C52.3236 238.261 55.6716 236.874 59.1625 236.874H72.3249ZM85.4874 219.324V236.874H111.812V219.324C111.812 215.833 110.426 212.486 107.957 210.017C105.489 207.549 102.141 206.162 98.6498 206.162C95.1589 206.162 91.811 207.549 89.3426 210.017C86.8741 212.486 85.4874 215.833 85.4874 219.324Z" fill="#D3BFBF" fill-opacity="0.4"/>
<g filter="url(#filter0_d_2113_75175)">
<rect x="30" y="130" width="144" height="200" rx="12" fill="white"/>
</g>
<path fill-rule="evenodd" clip-rule="evenodd" d="M87.8826 157C89.1004 160.519 93.6305 167.558 102.009 167.558C110.387 167.558 114.917 160.519 116.135 157L121.737 159.346C121.737 159.346 120.194 176.239 121.737 179.524C121.737 179.524 116.917 187.268 116.135 191.49C115.266 196.183 116.378 201.344 120.519 210.26C124.014 217.786 123.865 226.649 123.733 234.451C123.709 235.892 123.685 237.296 123.685 238.649C123.685 245.594 127.907 250.459 130.018 252.023C130.018 252.023 126.404 256.038 117.84 254.134C114.674 253.431 111.221 254.943 108.785 257.289C106.837 259.166 103.816 260 102.009 260C100.202 260 97.1809 259.166 95.2325 257.289C92.7969 254.943 89.3439 253.431 86.1777 254.134C77.614 256.038 74 252.023 74 252.023C76.1108 250.459 80.3324 245.594 80.3324 238.649C80.3324 237.296 80.3087 235.892 80.2845 234.451C80.153 226.649 80.0036 217.786 83.4986 210.26C87.6391 201.344 88.7515 196.183 87.8826 191.49C87.1009 187.268 82.2809 179.524 82.2809 179.524C83.8234 176.239 82.2809 159.346 82.2809 159.346L87.8826 157Z" fill="#99CADF"/>
<rect x="84" y="193" width="35" height="4" fill="white"/>
<rect x="46" y="285" width="73" height="3" rx="1.5" fill="#D3BFBF"/>
<rect x="46" y="292" width="34" height="3" rx="1.5" fill="#D3BFBF"/>
<rect x="46" y="302" width="38" height="12" rx="6" fill="#FF3D71"/>
<rect x="88" y="302" width="26" height="12" rx="6" fill="#F1E8E8"/>
<path d="M142 314H156C156.53 314 157.039 313.789 157.414 313.414C157.789 313.039 158 312.53 158 312V301C158 300.734 157.895 300.48 157.707 300.292C157.52 300.105 157.265 300 157 300H154V299.223C154 296.614 152.097 294.278 149.5 294.025C148.805 293.955 148.103 294.033 147.439 294.251C146.776 294.47 146.166 294.825 145.648 295.293C145.129 295.762 144.715 296.334 144.431 296.972C144.148 297.61 144.001 298.301 144 299V300H141C140.735 300 140.48 300.105 140.293 300.292C140.105 300.48 140 300.734 140 301V312C140 312.53 140.211 313.039 140.586 313.414C140.961 313.789 141.47 314 142 314ZM154 302V304H152V302H154ZM146 299C146 297.346 147.346 296 149 296C150.654 296 152 297.346 152 299V300H146V299ZM144 302H146V304H144V302Z" fill="#A65E5E"/>
<path d="M54.4707 148.177C54.9528 146.608 57.1743 146.608 57.6564 148.177C57.9954 149.281 59.3271 149.713 60.2502 149.02C61.5626 148.034 63.3598 149.339 62.8274 150.892C62.453 151.984 63.276 153.117 64.4305 153.099C66.072 153.072 66.7585 155.185 65.4149 156.128C64.47 156.792 64.47 158.192 65.4149 158.856C66.7585 159.799 66.072 161.912 64.4305 161.886C63.276 161.867 62.453 163 62.8274 164.092C63.3598 165.645 61.5626 166.951 60.2502 165.964C59.3271 165.271 57.9954 165.703 57.6564 166.807C57.1743 168.377 54.9528 168.377 54.4707 166.807C54.1316 165.703 52.7999 165.271 51.8769 165.964C50.5644 166.951 48.7672 165.645 49.2996 164.092C49.674 163 48.851 161.867 47.6965 161.886C46.0551 161.912 45.3686 159.799 46.7121 158.856C47.657 158.192 47.657 156.792 46.7121 156.128C45.3686 155.185 46.0551 153.072 47.6965 153.099C48.851 153.117 49.674 151.984 49.2996 150.892C48.7672 149.339 50.5644 148.034 51.8769 149.02C52.7999 149.713 54.1316 149.281 54.4707 148.177Z" fill="#FF3D71"/>
<g filter="url(#filter1_d_2113_75175)">
<rect x="186" y="130" width="144" height="200" rx="12" fill="white"/>
</g>
<rect x="240" y="193" width="35" height="4" fill="white"/>
<rect x="202" y="285" width="38" height="3" rx="1.5" fill="#D3BFBF"/>
<rect x="202" y="292" width="58" height="3" rx="1.5" fill="#D3BFBF"/>
<rect x="202" y="302" width="26" height="12" rx="6" fill="#F1E8E8"/>
<path d="M298 314H312C312.53 314 313.039 313.789 313.414 313.414C313.789 313.039 314 312.53 314 312V301C314 300.734 313.895 300.48 313.707 300.292C313.52 300.105 313.265 300 313 300H310V299.223C310 296.614 308.097 294.278 305.5 294.025C304.805 293.955 304.103 294.033 303.439 294.251C302.776 294.47 302.166 294.825 301.648 295.293C301.129 295.762 300.715 296.334 300.431 296.972C300.148 297.61 300.001 298.301 300 299V300H297C296.735 300 296.48 300.105 296.293 300.292C296.105 300.48 296 300.734 296 301V312C296 312.53 296.211 313.039 296.586 313.414C296.961 313.789 297.47 314 298 314ZM310 302V304H308V302H310ZM302 299C302 297.346 303.346 296 305 296C306.654 296 308 297.346 308 299V300H302V299ZM300 302H302V304H300V302Z" fill="#A65E5E"/>
<path d="M270 181V172H271.778V172.9L276.286 173.552C277.27 173.694 278 174.538 278 175.532V177.468C278 178.462 277.27 179.306 276.286 179.448L271.778 180.1V181H270Z" fill="#CBC37F"/>
<path fill-rule="evenodd" clip-rule="evenodd" d="M265 163V163.013C269.349 163.251 270 166.625 270 170V189C271.933 189 273.5 190.567 273.5 192.5V197H277C277 197 282.5 207 292 213.5C292.54 213.869 293.049 214.197 293.523 214.503L293.523 214.503C295.975 216.084 297.5 217.068 297.5 220C297.5 223.5 295.5 227 292 232.5C289.2 236.9 282.5 242 279 244C279 244 281 250.5 274 250.5H265H264.5H255.5C248.5 250.5 250.5 244 250.5 244C247 242 240.3 236.9 237.5 232.5C234 227 232 223.5 232 220C232 217.068 233.525 216.084 235.977 214.503L235.977 214.503L235.977 214.503C236.452 214.197 236.961 213.869 237.5 213.5C247 207 252.5 197 252.5 197H255H256H271C271 195.895 270.105 195 269 195H256V192.5C256 190.567 257.567 189 259.5 189H267C267 187.895 266.105 187 265 187H259.5V170C259.5 166.625 260.151 163.251 264.5 163.013V163C264.585 163 264.668 163.001 264.75 163.003C264.832 163.001 264.915 163 265 163Z" fill="#CBC37F"/>
<path d="M256 174C256 172.895 256.895 172 258 172H260V181H258C256.895 181 256 180.105 256 179V174Z" fill="#CBC37F"/>
<path d="M256 176.5C253.167 176.5 244 177.5 238 182.5" stroke="#CBC37F" stroke-width="3"/>
<path d="M240.03 188L233.03 180C215.53 181 198.5 196 208.5 208C222.5 224.8 239.03 200.5 240.03 188Z" fill="#CBC37F"/>
</g>
<defs>
<filter id="filter0_d_2113_75175" x="10" y="120" width="184" height="240" filterUnits="userSpaceOnUse" color-interpolation-filters="sRGB">
<feFlood flood-opacity="0" result="BackgroundImageFix"/>
<feColorMatrix in="SourceAlpha" type="matrix" values="0 0 0 0 0 0 0 0 0 0 0 0 0 0 0 0 0 0 127 0" result="hardAlpha"/>
<feOffset dy="10"/>
<feGaussianBlur stdDeviation="10"/>
<feComposite in2="hardAlpha" operator="out"/>
<feColorMatrix type="matrix" values="0 0 0 0 0.854167 0 0 0 0 0.736719 0 0 0 0 0.736719 0 0 0 1 0"/>
<feBlend mode="normal" in2="BackgroundImageFix" result="effect1_dropShadow_2113_75175"/>
<feBlend mode="normal" in="SourceGraphic" in2="effect1_dropShadow_2113_75175" result="shape"/>
</filter>
<filter id="filter1_d_2113_75175" x="166" y="120" width="184" height="240" filterUnits="userSpaceOnUse" color-interpolation-filters="sRGB">
<feFlood flood-opacity="0" result="BackgroundImageFix"/>
<feColorMatrix in="SourceAlpha" type="matrix" values="0 0 0 0 0 0 0 0 0 0 0 0 0 0 0 0 0 0 127 0" result="hardAlpha"/>
<feOffset dy="10"/>
<feGaussianBlur stdDeviation="10"/>
<feComposite in2="hardAlpha" operator="out"/>
<feColorMatrix type="matrix" values="0 0 0 0 0.854167 0 0 0 0 0.736719 0 0 0 0 0.736719 0 0 0 1 0"/>
<feBlend mode="normal" in2="BackgroundImageFix" result="effect1_dropShadow_2113_75175"/>
<feBlend mode="normal" in="SourceGraphic" in2="effect1_dropShadow_2113_75175" result="shape"/>
</filter>
<clipPath id="clip0_2113_75175">
<rect width="360" height="360" rx="8" fill="white"/>
</clipPath>
<clipPath id="clip1_2113_75175">
<rect width="200" height="48" fill="white" transform="translate(30 43)"/>
</clipPath>
</defs>
</svg>
