<svg width="360" height="360" viewBox="0 0 360 360" fill="none" xmlns="http://www.w3.org/2000/svg">
<g clip-path="url(#clip0_4975_51196)">
<rect width="360" height="360" rx="8" fill="#0B0407"/>
<path d="M0 0H359.5V24.5L0 302V0Z" fill="url(#paint0_linear_4975_51196)"/>
<path d="M255 -39H614.5V317L255 35V-39Z" fill="url(#paint1_linear_4975_51196)"/>
<path d="M149.677 115.94L254.563 34.7416V32.2754L149.677 113.474V115.94Z" fill="#555D7B"/>
<path d="M149.677 122.604L254.563 41.4056V38.9395L149.677 120.138V122.604Z" fill="#555D7B"/>
<path d="M149.677 129.268L254.563 48.0697V45.6035L149.677 126.802V129.268Z" fill="#555D7B"/>
<path d="M149.677 135.932L254.563 54.7338V52.2676L149.677 133.466V135.932Z" fill="#555D7B"/>
<path d="M149.677 142.596L254.563 61.3978V58.9316L149.677 140.13V142.596Z" fill="#555D7B"/>
<path d="M149.677 149.26L254.563 68.0619V65.5957L149.677 146.794V149.26Z" fill="#555D7B"/>
<path d="M149.677 155.924L254.563 74.7259V72.2598L149.677 153.458V155.924Z" fill="#555D7B"/>
<path d="M149.677 162.588L254.563 81.39V78.9238L149.677 160.122V162.588Z" fill="#555D7B"/>
<path d="M149.677 169.252L254.563 88.0541V85.5879L149.677 166.786V169.252Z" fill="#555D7B"/>
<path d="M149.677 175.916L254.563 94.7181V92.252L149.677 173.45V175.916Z" fill="#555D7B"/>
<path d="M149.677 182.58L254.563 101.382V98.9082L149.677 180.114V182.58Z" fill="#555D7B"/>
<path d="M149.677 189.245L254.563 108.046V105.572L149.677 186.771V189.245Z" fill="#555D7B"/>
<path d="M149.677 195.909L254.563 114.71V112.236L149.677 193.435V195.909Z" fill="#555D7B"/>
<path d="M149.677 202.573L254.563 121.374V118.9L149.677 200.099V202.573Z" fill="#555D7B"/>
<path d="M149.677 209.237L254.563 128.038V125.564L149.677 206.763V209.237Z" fill="#555D7B"/>
<path d="M149.677 215.901L254.563 134.695V132.229L149.677 213.427V215.901Z" fill="#555D7B"/>
<path d="M149.677 222.557L254.563 141.359V138.893L149.677 220.091V222.557Z" fill="#555D7B"/>
<path d="M149.677 229.221L254.563 148.023V145.557L149.677 226.755V229.221Z" fill="#555D7B"/>
<path d="M149.677 235.885L254.563 154.687V152.221L149.677 233.419V235.885Z" fill="#555D7B"/>
<path d="M149.677 242.549L254.563 161.351V158.885L149.677 240.083V242.549Z" fill="#555D7B"/>
<path d="M149.677 249.213L254.563 168.015V165.549L149.677 246.747V249.213Z" fill="#555D7B"/>
<path d="M149.677 255.877L254.563 174.679V172.213L149.677 253.411V255.877Z" fill="#555D7B"/>
<path d="M149.677 262.543L254.563 181.345V178.879L149.677 260.077V262.543Z" fill="#555D7B"/>
<path d="M149.677 269.206L254.563 188.007V185.541L149.677 266.739V269.206Z" fill="#555D7B"/>
<path d="M149.677 275.87L254.563 194.671V192.205L149.677 273.403V275.87Z" fill="#555D7B"/>
<path d="M149.677 282.536L254.563 201.337V198.871L149.677 280.069V282.536Z" fill="#555D7B"/>
<path d="M149.677 289.198L254.563 207.999V205.533L149.677 286.732V289.198Z" fill="#555D7B"/>
<path d="M149.677 295.862L254.563 214.663V212.197L149.677 293.396V295.862Z" fill="#555D7B"/>
<path d="M149.677 302.526L254.563 221.327V218.861L149.677 300.06V302.526Z" fill="#555D7B"/>
<path d="M149.677 309.19L254.563 227.992V225.525L149.677 306.724V309.19Z" fill="#555D7B"/>
<path d="M149.677 315.854L254.563 234.656V232.189L149.677 313.388V315.854Z" fill="#555D7B"/>
<path d="M149.677 322.518L254.563 241.32V238.846L149.677 320.044V322.518Z" fill="#555D7B"/>
<path d="M149.767 329.327L254.653 248.128V245.654L149.767 326.853V329.327Z" fill="#555D7B"/>
<path d="M149.677 335.932L254.563 254.734V252.26L149.677 333.458V335.932Z" fill="#555D7B"/>
<path d="M149.677 342.643L254.563 261.445V258.971L149.677 340.169V342.643Z" fill="#555D7B"/>
<path d="M149.677 349.354L254.563 268.156V265.682L149.677 346.88V349.354Z" fill="#555D7B"/>
<path d="M149.767 355.75L254.653 274.552V272.078L149.767 353.276V355.75Z" fill="#555D7B"/>
<path d="M149.677 362.567L254.563 281.368V278.895L149.677 360.093V362.567Z" fill="#555D7B"/>
<path d="M149.677 369.172L254.563 287.974V285.5L149.677 366.698V369.172Z" fill="#555D7B"/>
<path d="M149.677 375.994L254.563 294.796V292.322L149.677 373.521V375.994Z" fill="#555D7B"/>
<path d="M149.677 382.285L254.563 301.087V298.613L149.677 379.812V382.285Z" fill="#555D7B"/>
<path d="M359.457 119.272L254.563 38.0736V35.6074L359.457 116.806V119.272Z" fill="#20253B"/>
<path d="M359.457 125.936L254.563 44.7377V42.2715L359.457 123.47V125.936Z" fill="#20253B"/>
<path d="M359.457 132.6L254.563 51.4017V48.9355L359.457 130.134V132.6Z" fill="#20253B"/>
<path d="M359.457 139.264L254.563 58.0658V55.5996L359.457 136.798V139.264Z" fill="#20253B"/>
<path d="M359.457 145.928L254.563 64.7299V62.2637L359.457 143.462V145.928Z" fill="#20253B"/>
<path d="M359.457 152.592L254.563 71.3939V68.9277L359.457 150.126V152.592Z" fill="#20253B"/>
<path d="M359.457 159.256L254.563 78.058V75.5918L359.457 156.79V159.256Z" fill="#20253B"/>
<path d="M359.457 165.92L254.563 84.722V82.2559L359.457 163.454V165.92Z" fill="#20253B"/>
<path d="M359.457 172.584L254.563 91.3861V88.9199L359.457 170.118V172.584Z" fill="#20253B"/>
<path d="M359.457 179.248L254.563 98.0501V95.5762L359.457 176.782V179.248Z" fill="#20253B"/>
<path d="M359.457 185.912L254.563 104.714V102.24L359.457 183.439V185.912Z" fill="#20253B"/>
<path d="M359.457 192.577L254.563 111.378V108.904L359.457 190.103V192.577Z" fill="#20253B"/>
<path d="M359.457 199.241L254.563 118.042V115.568L359.457 196.767V199.241Z" fill="#20253B"/>
<path d="M359.457 205.905L254.563 124.706V122.232L359.457 203.431V205.905Z" fill="#20253B"/>
<path d="M359.457 212.569L254.563 131.37V128.896L359.457 210.095V212.569Z" fill="#20253B"/>
<path d="M359.457 219.225L254.563 138.027V135.561L359.457 216.759V219.225Z" fill="#20253B"/>
<path d="M359.457 225.889L254.563 144.691V142.225L359.457 223.423V225.889Z" fill="#20253B"/>
<path d="M359.457 232.553L254.563 151.355V148.889L359.457 230.087V232.553Z" fill="#20253B"/>
<path d="M359.457 239.217L254.563 158.019V155.553L359.457 236.751V239.217Z" fill="#20253B"/>
<path d="M359.457 245.881L254.563 164.683V162.217L359.457 243.415V245.881Z" fill="#20253B"/>
<path d="M359.457 252.545L254.563 171.347V168.881L359.457 250.079V252.545Z" fill="#20253B"/>
<path d="M359.457 259.209L254.563 178.011V175.545L359.457 256.743V259.209Z" fill="#20253B"/>
<path d="M359.457 265.873L254.563 184.675V182.209L359.457 263.407V265.873Z" fill="#20253B"/>
<path d="M359.457 272.538L254.563 191.339V188.873L359.457 270.071V272.538Z" fill="#20253B"/>
<path d="M359.457 279.202L254.563 198.003V195.537L359.457 276.735V279.202Z" fill="#20253B"/>
<path d="M359.457 285.866L254.563 204.667V202.201L359.457 283.399V285.866Z" fill="#20253B"/>
<path d="M359.457 292.53L254.563 211.331V208.865L359.457 290.064V292.53Z" fill="#20253B"/>
<path d="M359.457 299.194L254.563 217.995V215.529L359.457 296.728V299.194Z" fill="#20253B"/>
<path d="M359.457 305.858L254.563 224.66V222.193L359.457 303.392V305.858Z" fill="#20253B"/>
<path d="M359.457 312.522L254.563 231.324V228.857L359.457 310.056V312.522Z" fill="#20253B"/>
<path d="M359.457 319.186L254.563 237.988V235.514L359.457 316.72V319.186Z" fill="#20253B"/>
<path d="M359.457 325.852L254.563 244.654V242.18L359.457 323.378V325.852Z" fill="#20253B"/>
<path d="M303.114 228.936L408 147.738V145.271L303.114 226.47V228.936Z" fill="#555D7B"/>
<path d="M303.114 235.6L408 154.402V151.936L303.114 233.134V235.6Z" fill="#555D7B"/>
<path d="M303.114 242.264L408 161.066V158.6L303.114 239.798V242.264Z" fill="#555D7B"/>
<path d="M303.114 248.928L408 167.73V165.264L303.114 246.462V248.928Z" fill="#555D7B"/>
<path d="M303.114 255.592L408 174.394V171.928L303.114 253.126V255.592Z" fill="#555D7B"/>
<path d="M303.114 262.256L408 181.058V178.584L303.114 259.79V262.256Z" fill="#555D7B"/>
<path d="M303.114 268.92L408 187.722V185.248L303.114 266.446V268.92Z" fill="#555D7B"/>
<path d="M303.114 275.584L408 194.386V191.912L303.114 273.11V275.584Z" fill="#555D7B"/>
<path d="M303.114 282.248L408 201.05V198.576L303.114 279.775V282.248Z" fill="#555D7B"/>
<path d="M303.114 288.912L408 207.714V205.24L303.114 286.439V288.912Z" fill="#555D7B"/>
<path d="M303.114 295.577L408 214.37V211.904L303.114 293.103V295.577Z" fill="#555D7B"/>
<path d="M303.114 302.233L408 221.035V218.568L303.114 299.767V302.233Z" fill="#555D7B"/>
<path d="M303.114 308.897L408 227.699V225.232L303.114 306.431V308.897Z" fill="#555D7B"/>
<path d="M303.114 315.561L408 234.363V231.896L303.114 313.095V315.561Z" fill="#555D7B"/>
<path d="M303.114 322.225L408 241.027V238.561L303.114 319.759V322.225Z" fill="#555D7B"/>
<path d="M303.114 328.889L408 247.691V245.225L303.114 326.423V328.889Z" fill="#555D7B"/>
<path d="M303.114 335.553L408 254.355V251.889L303.114 333.087V335.553Z" fill="#555D7B"/>
<path d="M303.114 342.217L408 261.019V258.553L303.114 339.751V342.217Z" fill="#555D7B"/>
<path d="M303.114 348.881L408 267.683V265.217L303.114 346.415V348.881Z" fill="#555D7B"/>
<path d="M303.114 355.545L408 274.347V271.881L303.114 353.079V355.545Z" fill="#555D7B"/>
<path d="M303.114 362.209L408 281.011V278.545L303.114 359.743V362.209Z" fill="#555D7B"/>
<path d="M303.114 368.874L408 287.675V285.209L303.114 366.407V368.874Z" fill="#555D7B"/>
<path d="M303.114 375.538L408 294.339V291.873L303.114 373.071V375.538Z" fill="#555D7B"/>
<path d="M303.114 382.202L408 301.003V298.537L303.114 379.735V382.202Z" fill="#555D7B"/>
<path d="M303.114 388.866L408 307.667V305.201L303.114 386.4V388.866Z" fill="#555D7B"/>
<path d="M303.114 395.53L408 314.331V311.865L303.114 393.064V395.53Z" fill="#555D7B"/>
<path d="M303.114 402.196L408 320.997V318.523L303.114 399.729V402.196Z" fill="#555D7B"/>
<path d="M303.114 408.858L408 327.659V325.186L303.114 406.384V408.858Z" fill="#555D7B"/>
<path d="M303.114 415.522L408 334.324V331.85L303.114 413.048V415.522Z" fill="#555D7B"/>
<path d="M303.114 422.186L408 340.988V338.514L303.114 419.712V422.186Z" fill="#555D7B"/>
<path d="M303.114 428.85L408 347.652V345.178L303.114 426.376V428.85Z" fill="#555D7B"/>
<path d="M303.114 435.514L408 354.308V351.842L303.114 433.04V435.514Z" fill="#555D7B"/>
<path d="M-18 520.61V523.084L196.991 355.816V353.343L-18 520.61Z" fill="#555D7B"/>
<path d="M-18 513.953V516.42L196.991 349.152V346.679L-18 513.953Z" fill="#555D7B"/>
<path d="M-18 507.289V509.755L196.991 342.488V340.023L-18 507.289Z" fill="#555D7B"/>
<path d="M-18 500.625V503.091L196.991 335.824V333.359L-18 500.625Z" fill="#555D7B"/>
<path d="M-18 493.961V496.428L196.991 329.16V326.695L-18 493.961Z" fill="#555D7B"/>
<path d="M-18 487.297V489.764L196.991 322.496V320.031L-18 487.297Z" fill="#555D7B"/>
<path d="M-18 480.633V483.1L196.991 315.832V313.367L-18 480.633Z" fill="#555D7B"/>
<path d="M-18 473.969V476.436L196.991 309.168V306.703L-18 473.969Z" fill="#555D7B"/>
<path d="M-18 467.305V469.772L196.991 302.504V300.039L-18 467.305Z" fill="#555D7B"/>
<path d="M-18 460.641V463.107L196.991 295.84V293.375L-18 460.641Z" fill="#555D7B"/>
<path d="M-18 453.976V456.443L196.991 289.175V286.71L-18 453.976Z" fill="#555D7B"/>
<path d="M-18 447.313V449.779L196.991 282.512V280.047L-18 447.313Z" fill="#555D7B"/>
<path d="M-18 440.648V443.115L196.991 275.847V273.382L-18 440.648Z" fill="#555D7B"/>
<path d="M-18 433.984V436.451L196.991 269.183V266.718L-18 433.984Z" fill="#555D7B"/>
<path d="M-18 427.32V429.786L196.991 262.519V260.053L-18 427.32Z" fill="#555D7B"/>
<path d="M-18 420.656V423.122L196.991 255.855V253.389L-18 420.656Z" fill="#555D7B"/>
<path d="M-18 413.992V416.458L196.991 249.191V246.725L-18 413.992Z" fill="#555D7B"/>
<path d="M-18 407.328V409.802L196.991 242.527V240.061L-18 407.328Z" fill="#555D7B"/>
<path d="M-18 400.664V403.138L196.991 235.871V233.397L-18 400.664Z" fill="#555D7B"/>
<path d="M-18 394V396.474L196.991 229.207V226.733L-18 394Z" fill="#555D7B"/>
<path d="M-18 387.336V389.81L196.991 222.542V220.069L-18 387.336Z" fill="#555D7B"/>
<path d="M-18 380.671V383.145L196.991 215.878V213.404L-18 380.671Z" fill="#555D7B"/>
<path d="M-18 374.015V376.481L196.991 209.214V206.74L-18 374.015Z" fill="#555D7B"/>
<path d="M-18 367.351V369.818L196.991 202.55V200.085L-18 367.351Z" fill="#555D7B"/>
<path d="M-18 360.687V363.154L196.991 195.886V193.421L-18 360.687Z" fill="#555D7B"/>
<path d="M-18 354.023V356.49L196.991 189.222V186.757L-18 354.023Z" fill="#555D7B"/>
<path d="M-18 347.358V349.825L196.991 182.557V180.092L-18 347.358Z" fill="#555D7B"/>
<path d="M-18 340.694V343.161L196.991 175.893V173.428L-18 340.694Z" fill="#555D7B"/>
<path d="M-18 334.031V336.497L196.991 169.23V166.765L-18 334.031Z" fill="#555D7B"/>
<path d="M-18 327.366V329.833L196.991 162.565V160.1L-18 327.366Z" fill="#555D7B"/>
<path d="M-18 320.702V323.169L196.991 155.901V153.435L-18 320.702Z" fill="#555D7B"/>
<path d="M-18 314.038V316.505L196.991 149.237V146.771L-18 314.038Z" fill="#555D7B"/>
<path d="M301.893 227.977L196.999 146.779V144.312L301.893 225.511V227.977Z" fill="#20253B"/>
<path d="M301.893 234.641L196.999 153.443V150.977L301.893 232.175V234.641Z" fill="#20253B"/>
<path d="M301.893 241.305L196.999 160.107V157.641L301.893 238.839V241.305Z" fill="#20253B"/>
<path d="M301.893 247.969L196.999 166.771V164.305L301.893 245.503V247.969Z" fill="#20253B"/>
<path d="M301.893 254.633L196.999 173.435V170.969L301.893 252.167V254.633Z" fill="#20253B"/>
<path d="M301.893 261.297L196.999 180.099V177.633L301.893 258.831V261.297Z" fill="#20253B"/>
<path d="M301.893 267.961L196.999 186.763V184.289L301.893 265.487V267.961Z" fill="#20253B"/>
<path d="M301.893 274.625L196.999 193.427V190.953L301.893 272.151V274.625Z" fill="#20253B"/>
<path d="M301.893 281.289L196.999 200.091V197.617L301.893 278.816V281.289Z" fill="#20253B"/>
<path d="M301.893 287.953L196.999 206.755V204.281L301.893 285.48V287.953Z" fill="#20253B"/>
<path d="M301.893 294.618L196.999 213.412V210.945L301.893 292.144V294.618Z" fill="#20253B"/>
<path d="M301.893 301.274L196.999 220.076V217.609L301.893 298.808V301.274Z" fill="#20253B"/>
<path d="M301.893 307.938L196.999 226.74V224.273L301.893 305.472V307.938Z" fill="#20253B"/>
<path d="M301.893 314.602L196.999 233.404V230.938L301.893 312.136V314.602Z" fill="#20253B"/>
<path d="M301.893 321.266L196.999 240.068V237.602L301.893 318.8V321.266Z" fill="#20253B"/>
<path d="M301.893 327.93L196.999 246.732V244.266L301.893 325.464V327.93Z" fill="#20253B"/>
<path d="M301.893 334.594L196.999 253.396V250.93L301.893 332.128V334.594Z" fill="#20253B"/>
<path d="M301.893 341.258L196.999 260.06V257.594L301.893 338.792V341.258Z" fill="#20253B"/>
<path d="M301.893 347.922L196.999 266.724V264.258L301.893 345.456V347.922Z" fill="#20253B"/>
<path d="M301.893 354.586L196.999 273.388V270.922L301.893 352.12V354.586Z" fill="#20253B"/>
<path d="M301.893 361.25L196.999 280.052V277.586L301.893 358.784V361.25Z" fill="#20253B"/>
<path d="M301.893 367.915L196.999 286.716V284.25L301.893 365.448V367.915Z" fill="#20253B"/>
<path d="M301.893 374.579L196.999 293.38V290.914L301.893 372.112V374.579Z" fill="#20253B"/>
<path d="M301.893 381.245L196.999 300.046V297.58L301.893 378.778V381.245Z" fill="#20253B"/>
<path d="M301.893 387.909L196.999 306.71V304.244L301.893 385.442V387.909Z" fill="#20253B"/>
<path d="M301.893 394.571L196.999 313.372V310.906L301.893 392.105V394.571Z" fill="#20253B"/>
<path d="M301.893 401.235L196.999 320.036V317.562L301.893 398.769V401.235Z" fill="#20253B"/>
<path d="M301.893 407.899L196.999 326.7V324.227L301.893 405.425V407.899Z" fill="#20253B"/>
<path d="M301.893 414.563L196.999 333.365V330.891L301.893 412.089V414.563Z" fill="#20253B"/>
<path d="M301.893 421.227L196.999 340.029V337.555L301.893 418.753V421.227Z" fill="#20253B"/>
<path d="M301.893 427.891L196.999 346.693V344.219L301.893 425.417V427.891Z" fill="#20253B"/>
<path d="M301.893 434.555L196.999 353.349V350.883L301.893 432.081V434.555Z" fill="#20253B"/>
<path d="M190.822 230.436L295.716 149.238V146.771L190.822 227.97V230.436Z" fill="#555D7B"/>
<path d="M190.822 237.1L295.716 155.902V153.436L190.822 234.634V237.1Z" fill="#555D7B"/>
<path d="M190.822 243.764L295.716 162.566V160.1L190.822 241.298V243.764Z" fill="#555D7B"/>
<path d="M190.822 250.428L295.716 169.23V166.764L190.822 247.962V250.428Z" fill="#555D7B"/>
<path d="M190.822 257.092L295.716 175.894V173.428L190.822 254.626V257.092Z" fill="#555D7B"/>
<path d="M190.822 263.756L295.716 182.558V180.092L190.822 261.29V263.756Z" fill="#555D7B"/>
<path d="M190.822 270.42L295.716 189.222V186.756L190.822 267.954V270.42Z" fill="#555D7B"/>
<path d="M190.822 277.084L295.716 195.886V193.42L190.822 274.618V277.084Z" fill="#555D7B"/>
<path d="M190.822 283.748L295.716 202.55V200.084L190.822 281.282V283.748Z" fill="#555D7B"/>
<path d="M190.822 290.412L295.716 209.214V206.74L190.822 287.946V290.412Z" fill="#555D7B"/>
<path d="M190.822 297.077L295.716 215.878V213.404L190.822 294.603V297.077Z" fill="#555D7B"/>
<path d="M190.822 303.741L295.716 222.542V220.068L190.822 301.267V303.741Z" fill="#555D7B"/>
<path d="M190.822 310.407L295.716 229.208V226.734L190.822 307.933V310.407Z" fill="#555D7B"/>
<path d="M190.822 317.071L295.716 235.872V233.398L190.822 314.597V317.071Z" fill="#555D7B"/>
<path d="M190.822 323.733L295.716 242.527V240.061L190.822 321.259V323.733Z" fill="#555D7B"/>
<path d="M190.822 330.389L295.716 249.191V246.725L190.822 327.923V330.389Z" fill="#555D7B"/>
<path d="M190.822 337.053L295.716 255.855V253.389L190.822 334.587V337.053Z" fill="#555D7B"/>
<path d="M190.822 343.717L295.716 262.519V260.053L190.822 341.251V343.717Z" fill="#555D7B"/>
<path d="M190.822 350.381L295.716 269.183V266.717L190.822 347.915V350.381Z" fill="#555D7B"/>
<path d="M190.822 357.045L295.716 275.847V273.381L190.822 354.579V357.045Z" fill="#555D7B"/>
<path d="M190.822 363.711L295.716 282.513V280.047L190.822 361.245V363.711Z" fill="#555D7B"/>
<path d="M190.822 370.373L295.716 289.175V286.709L190.822 367.907V370.373Z" fill="#555D7B"/>
<path d="M190.822 377.04L295.716 295.841V293.375L190.822 374.573V377.04Z" fill="#555D7B"/>
<path d="M190.822 383.704L295.716 302.505V300.039L190.822 381.237V383.704Z" fill="#555D7B"/>
<path d="M190.822 390.368L295.716 309.169V306.703L190.822 387.901V390.368Z" fill="#555D7B"/>
<path d="M190.822 397.032L295.716 315.833V313.367L190.822 394.565V397.032Z" fill="#555D7B"/>
<path d="M190.822 403.696L295.716 322.497V320.031L190.822 401.23V403.696Z" fill="#555D7B"/>
<path d="M190.822 410.36L295.716 329.161V326.695L190.822 407.894V410.36Z" fill="#555D7B"/>
<path d="M190.822 417.022L295.716 335.824V333.357L190.822 414.556V417.022Z" fill="#555D7B"/>
<path d="M190.822 423.686L295.716 342.488V340.021L190.822 421.22V423.686Z" fill="#555D7B"/>
<path d="M190.822 430.352L295.716 349.154V346.68L190.822 427.886V430.352Z" fill="#555D7B"/>
<path d="M190.822 437.016L295.716 355.818V353.344L190.822 434.542V437.016Z" fill="#555D7B"/>
<path d="M400.609 227.977L295.723 146.779V144.312L400.609 225.511V227.977Z" fill="#20253B"/>
<path d="M400.609 234.641L295.723 153.443V150.977L400.609 232.175V234.641Z" fill="#20253B"/>
<path d="M400.609 241.305L295.723 160.107V157.641L400.609 238.839V241.305Z" fill="#20253B"/>
<path d="M400.609 247.969L295.723 166.771V164.305L400.609 245.503V247.969Z" fill="#20253B"/>
<path d="M400.609 254.633L295.723 173.435V170.969L400.609 252.167V254.633Z" fill="#20253B"/>
<path d="M400.609 261.297L295.723 180.099V177.633L400.609 258.831V261.297Z" fill="#20253B"/>
<path d="M400.609 267.961L295.723 186.763V184.289L400.609 265.487V267.961Z" fill="#20253B"/>
<path d="M400.609 274.625L295.723 193.427V190.953L400.609 272.151V274.625Z" fill="#20253B"/>
<path d="M400.609 281.289L295.723 200.091V197.617L400.609 278.816V281.289Z" fill="#20253B"/>
<path d="M400.609 287.953L295.723 206.755V204.281L400.609 285.48V287.953Z" fill="#20253B"/>
<path d="M400.609 294.618L295.723 213.412V210.945L400.609 292.144V294.618Z" fill="#20253B"/>
<path d="M400.609 301.274L295.723 220.076V217.609L400.609 298.808V301.274Z" fill="#20253B"/>
<path d="M400.609 307.938L295.723 226.74V224.273L400.609 305.472V307.938Z" fill="#20253B"/>
<path d="M400.609 314.602L295.723 233.404V230.938L400.609 312.136V314.602Z" fill="#20253B"/>
<path d="M400.609 321.266L295.723 240.068V237.602L400.609 318.8V321.266Z" fill="#20253B"/>
<path d="M400.609 327.93L295.723 246.732V244.266L400.609 325.464V327.93Z" fill="#20253B"/>
<path d="M400.609 334.594L295.723 253.396V250.93L400.609 332.128V334.594Z" fill="#20253B"/>
<path d="M400.609 341.258L295.723 260.06V257.594L400.609 338.792V341.258Z" fill="#20253B"/>
<path d="M400.609 347.922L295.723 266.724V264.258L400.609 345.456V347.922Z" fill="#20253B"/>
<path d="M400.609 354.586L295.723 273.388V270.922L400.609 352.12V354.586Z" fill="#20253B"/>
<path d="M400.609 361.25L295.723 280.052V277.586L400.609 358.784V361.25Z" fill="#20253B"/>
<path d="M400.609 367.915L295.723 286.716V284.25L400.609 365.448V367.915Z" fill="#20253B"/>
<path d="M400.609 374.579L295.723 293.38V290.914L400.609 372.112V374.579Z" fill="#20253B"/>
<path d="M400.609 381.245L295.723 300.046V297.58L400.609 378.778V381.245Z" fill="#20253B"/>
<path d="M400.609 387.909L295.723 306.71V304.244L400.609 385.442V387.909Z" fill="#20253B"/>
<path d="M400.609 394.571L295.723 313.372V310.906L400.609 392.105V394.571Z" fill="#20253B"/>
<path d="M400.609 401.235L295.723 320.036V317.562L400.609 398.769V401.235Z" fill="#20253B"/>
<path d="M400.609 407.899L295.723 326.7V324.227L400.609 405.425V407.899Z" fill="#20253B"/>
<path d="M400.609 414.563L295.723 333.365V330.891L400.609 412.089V414.563Z" fill="#20253B"/>
<path d="M400.609 421.227L295.723 340.029V337.555L400.609 418.753V421.227Z" fill="#20253B"/>
<path d="M400.609 427.891L295.723 346.693V344.219L400.609 425.417V427.891Z" fill="#20253B"/>
<path d="M400.609 434.555L295.723 353.349V350.883L400.609 432.081V434.555Z" fill="#20253B"/>
<rect y="228" width="360" height="132" fill="url(#paint2_linear_4975_51196)"/>
<path d="M63.0991 46.3973C62.7667 45.2408 62.2997 44.2189 61.6982 43.3317C61.0967 42.4287 60.3606 41.6683 59.49 41.0504C58.6352 40.4167 57.6538 39.9335 56.5458 39.6008C55.4535 39.2681 54.2426 39.1017 52.9129 39.1017C50.4277 39.1017 48.2433 39.7196 46.3596 40.9553C44.4917 42.1911 43.0354 43.9892 41.9907 46.3498C40.946 48.6945 40.4236 51.5621 40.4236 54.9525C40.4236 58.3428 40.9381 61.2262 41.967 63.6027C42.9959 65.9791 44.4522 67.7931 46.3359 69.0447C48.2195 70.2804 50.4436 70.8983 53.0079 70.8983C55.3348 70.8983 57.3214 70.4864 58.9676 69.6625C60.6297 68.8229 61.8961 67.6426 62.7667 66.1217C63.6531 64.6008 64.0963 62.8026 64.0963 60.7272L66.1858 61.0361H53.649V53.289H73.9976V59.4202C73.9976 63.6977 73.0953 67.3733 71.2908 70.4468C69.4862 73.5044 67.001 75.865 63.8352 77.5285C60.6693 79.1762 57.0444 80 52.9604 80C48.4016 80 44.3968 78.994 40.946 76.9819C37.4952 74.9541 34.8042 72.0786 32.873 68.3555C30.9577 64.6166 30 60.1806 30 55.0475C30 51.1027 30.5699 47.5856 31.7096 44.4962C32.8651 41.391 34.4797 38.7611 36.5533 36.6065C38.627 34.4518 41.0409 32.8121 43.7952 31.6873C46.5495 30.5624 49.5334 30 52.7467 30C55.501 30 58.0654 30.404 60.4398 31.212C62.8142 32.0041 64.9195 33.129 66.7557 34.5865C68.6077 36.044 70.1194 37.7788 71.2908 39.7909C72.4621 41.7871 73.214 43.9892 73.5464 46.3973H63.0991Z" fill="white"/>
<path d="M76.4415 39.1492V30.6654H116.379V39.1492H101.491V79.3346H91.329V39.1492H76.4415Z" fill="white"/>
<path d="M121.334 79.3346V71.9202L138.643 55.8793C140.115 54.4534 141.35 53.1702 142.347 52.0295C143.36 50.8888 144.128 49.7719 144.65 48.6787C145.173 47.5697 145.434 46.3736 145.434 45.0903C145.434 43.6644 145.109 42.4366 144.46 41.4068C143.811 40.3612 142.925 39.5612 141.801 39.0067C140.677 38.4363 139.403 38.1511 137.978 38.1511C136.49 38.1511 135.192 38.4522 134.084 39.0542C132.976 39.6562 132.121 40.5196 131.52 41.6445C130.918 42.7693 130.618 44.108 130.618 45.6606H120.859C120.859 42.4762 121.579 39.7117 123.02 37.3669C124.46 35.0222 126.478 33.2082 129.074 31.9249C131.67 30.6416 134.662 30 138.05 30C141.532 30 144.563 30.6179 147.143 31.8536C149.74 33.0735 151.758 34.7687 153.198 36.9392C154.639 39.1096 155.359 41.597 155.359 44.4011C155.359 46.2389 154.995 48.0529 154.267 49.8432C153.554 51.6334 152.28 53.6217 150.444 55.808C148.608 57.9785 146.02 60.5846 142.68 63.6264L135.58 70.5894V70.9221H156V79.3346H121.334Z" fill="white"/>
<rect x="35" y="125" width="290" height="52" rx="26" fill="#1D83FF" fill-opacity="0.4"/>
<rect x="41" y="131" width="278" height="40" rx="20" fill="#1D83FF" fill-opacity="0.6"/>
<path d="M60 151C60 149.343 61.3431 148 63 148H157C158.657 148 160 149.343 160 151C160 152.657 158.657 154 157 154H63C61.3431 154 60 152.657 60 151Z" fill="#5FA7FF"/>
<g opacity="0.6">
<path d="M51 182.75H309C314.109 182.75 318.25 186.891 318.25 192V216C318.25 221.109 314.109 225.25 309 225.25H51C45.8914 225.25 41.75 221.109 41.75 216V192C41.75 186.891 45.8914 182.75 51 182.75Z" fill="#0B0407"/>
<path d="M51 182.75H309C314.109 182.75 318.25 186.891 318.25 192V216C318.25 221.109 314.109 225.25 309 225.25H51C45.8914 225.25 41.75 221.109 41.75 216V192C41.75 186.891 45.8914 182.75 51 182.75Z" fill="#1964C4" fill-opacity="0.7"/>
<path d="M51 182.75H309C314.109 182.75 318.25 186.891 318.25 192V216C318.25 221.109 314.109 225.25 309 225.25H51C45.8914 225.25 41.75 221.109 41.75 216V192C41.75 186.891 45.8914 182.75 51 182.75Z" stroke="#2674D9" stroke-width="1.5"/>
</g>
<path d="M87 200C87 198.895 87.8954 198 89 198H195C196.105 198 197 198.895 197 200C197 201.105 196.105 202 195 202H89C87.8954 202 87 201.105 87 200Z" fill="#ADC7FC"/>
<path d="M87 209C87 207.895 87.8954 207 89 207H141C142.105 207 143 207.895 143 209C143 210.105 142.105 211 141 211H89C87.8954 211 87 210.105 87 209Z" fill="#4F76BF"/>
<path d="M147 209C147 207.895 147.895 207 149 207H288C289.105 207 290 207.895 290 209C290 210.105 289.105 211 288 211H149C147.895 211 147 210.105 147 209Z" fill="#4F76BF"/>
<path d="M65 204.9C67.1298 204.9 69.0667 205.525 70.4916 206.405C71.2027 206.844 71.8107 207.362 72.2498 207.926C72.6818 208.479 73 209.142 73 209.85C73 210.61 72.6347 211.21 72.1084 211.637C71.6107 212.042 70.9538 212.311 70.256 212.498C68.8533 212.873 66.9813 213 65 213C63.0187 213 61.1467 212.874 59.744 212.498C59.0462 212.311 58.3893 212.042 57.8916 211.637C57.3644 211.209 57 210.61 57 209.85C57 209.142 57.3182 208.479 57.7502 207.925C58.1893 207.362 58.7964 206.845 59.5084 206.404C60.9333 205.525 62.8711 204.9 65 204.9ZM65 195C66.1787 195 67.3092 195.474 68.1427 196.318C68.9762 197.162 69.4444 198.307 69.4444 199.5C69.4444 200.693 68.9762 201.838 68.1427 202.682C67.3092 203.526 66.1787 204 65 204C63.8213 204 62.6908 203.526 61.8573 202.682C61.0238 201.838 60.5556 200.693 60.5556 199.5C60.5556 198.307 61.0238 197.162 61.8573 196.318C62.6908 195.474 63.8213 195 65 195Z" fill="#C6D1F6"/>
<path opacity="0.6" d="M41 239C41 233.477 45.4772 229 51 229H309C314.523 229 319 233.477 319 239V263C319 268.523 314.523 273 309 273H51C45.4772 273 41 268.523 41 263V239Z" fill="#0B0407"/>
<path d="M87 247C87 245.895 87.8954 245 89 245H145C146.105 245 147 245.895 147 247C147 248.105 146.105 249 145 249H89C87.8954 249 87 248.105 87 247Z" fill="#A5B0D5"/>
<path d="M87 256C87 254.895 87.8954 254 89 254H185C186.105 254 187 254.895 187 256C187 257.105 186.105 258 185 258H89C87.8954 258 87 257.105 87 256Z" fill="#494E63"/>
<path d="M191 256C191 254.895 191.895 254 193 254H226C227.105 254 228 254.895 228 256C228 257.105 227.105 258 226 258H193C191.895 258 191 257.105 191 256Z" fill="#494E63"/>
<path d="M71 241C71.5304 241 72.0391 241.211 72.4142 241.586C72.7893 241.961 73 242.47 73 243V259C73 259.53 72.7893 260.039 72.4142 260.414C72.0391 260.789 71.5304 261 71 261H59C58.4696 261 57.9609 260.789 57.5858 260.414C57.2107 260.039 57 259.53 57 259V243C57 242.47 57.2107 241.961 57.5858 241.586C57.9609 241.211 58.4696 241 59 241H71ZM65 252H62C61.7348 252 61.4804 252.105 61.2929 252.293C61.1054 252.48 61 252.735 61 253C61 253.265 61.1054 253.52 61.2929 253.707C61.4804 253.895 61.7348 254 62 254H65C65.2652 254 65.5196 253.895 65.7071 253.707C65.8946 253.52 66 253.265 66 253C66 252.735 65.8946 252.48 65.7071 252.293C65.5196 252.105 65.2652 252 65 252ZM68 247H62C61.7451 247 61.5 247.098 61.3146 247.273C61.1293 247.448 61.0178 247.687 61.0028 247.941C60.9879 248.196 61.0707 248.446 61.2343 248.642C61.3979 248.837 61.6299 248.963 61.883 248.993L62 249H68C68.2549 249 68.5 248.902 68.6854 248.727C68.8707 248.552 68.9822 248.313 68.9972 248.059C69.0121 247.804 68.9293 247.554 68.7657 247.358C68.6021 247.163 68.3701 247.037 68.117 247.007L68 247Z" fill="#C6D1F6"/>
<rect opacity="0.6" x="41" y="276" width="278" height="44" rx="10" fill="#0B0407"/>
<path d="M72.5 304.5C72.5 305.296 72.1837 306.058 71.6211 306.621C71.0585 307.184 70.2956 307.5 69.5 307.5H60.5C59.7044 307.5 58.9415 307.184 58.3789 306.621C57.8163 306.058 57.5 305.296 57.5 304.5V304.245C57.9695 304.41 58.475 304.5 59 304.5H71C71.525 304.5 72.0305 304.41 72.5 304.245V304.5ZM66.5 288C67.2956 288 68.0585 288.316 68.6211 288.879C69.1837 289.442 69.5 290.204 69.5 291V292.5H71C71.7956 292.5 72.5585 292.816 73.1211 293.379C73.6837 293.942 74 294.704 74 295.5V300C74 300.796 73.6837 301.558 73.1211 302.121C72.5585 302.684 71.7956 303 71 303H59C58.2044 303 57.4415 302.684 56.8789 302.121C56.3163 301.558 56 300.796 56 300V295.5C56 294.704 56.3163 293.942 56.8789 293.379C57.4415 292.816 58.2044 292.5 59 292.5H60.5V291C60.5 290.204 60.8163 289.442 61.3789 288.879C61.9415 288.316 62.7044 288 63.5 288H66.5ZM65 298.5C64.6022 298.5 64.2208 298.658 63.9395 298.939C63.6581 299.221 63.5 299.602 63.5 300C63.5 300.398 63.6581 300.779 63.9395 301.061C64.2208 301.342 64.6022 301.5 65 301.5C65.3978 301.5 65.7792 301.342 66.0605 301.061C66.3419 300.779 66.5 300.398 66.5 300C66.5 299.602 66.3419 299.221 66.0605 298.939C65.7792 298.658 65.3978 298.5 65 298.5ZM63.5 290.25C63.3011 290.25 63.1104 290.329 62.9697 290.47C62.8291 290.61 62.75 290.801 62.75 291V292.5H67.25V291C67.25 290.801 67.1709 290.61 67.0303 290.47C66.8896 290.329 66.6989 290.25 66.5 290.25H63.5Z" fill="#C6D1F6"/>
<path d="M87 294C87 292.895 87.8954 292 89 292H185C186.105 292 187 292.895 187 294C187 295.105 186.105 296 185 296H89C87.8954 296 87 295.105 87 294Z" fill="#A5B0D5"/>
<path d="M87 303C87 301.895 87.8954 301 89 301H213C214.105 301 215 301.895 215 303C215 304.105 214.105 305 213 305H89C87.8954 305 87 304.105 87 303Z" fill="#494E63"/>
<path d="M219 303C219 301.895 219.895 301 221 301H302C303.105 301 304 301.895 304 303C304 304.105 303.105 305 302 305H221C219.895 305 219 304.105 219 303Z" fill="#494E63"/>
<g filter="url(#filter0_d_4975_51196)">
<path d="M269.505 220.598L270.864 220.878L279.865 225.368C281.376 225.864 282.369 227.354 282.239 228.951V229.512L280.297 242.721C280.167 243.649 279.757 244.513 279.002 245.117C278.332 245.765 277.448 246.088 276.519 246.088H261.67C260.612 246.088 259.641 245.7 258.929 244.944L246 232.059L247.943 229.901C248.461 229.361 249.281 229.059 250.058 229.102H250.684L259.252 230.98V208.317C259.252 207.172 259.707 206.074 260.517 205.264C261.326 204.455 262.424 204 263.569 204C264.714 204 265.812 204.455 266.622 205.264C267.431 206.074 267.886 207.172 267.886 208.317V220.598H269.505Z" fill="#EEF3FF"/>
</g>
<g filter="url(#filter1_d_4975_51196)">
<path d="M283.5 98C277.798 98 272.329 100.286 268.297 104.356C264.265 108.425 262 113.945 262 119.7C262 127.078 265.655 133.557 271.214 137.494V144.5C271.214 145.322 271.538 146.111 272.114 146.692C272.69 147.273 273.471 147.6 274.286 147.6H292.714C293.529 147.6 294.31 147.273 294.886 146.692C295.462 146.111 295.786 145.322 295.786 144.5V137.494C301.345 133.557 305 127.078 305 119.7C305 113.945 302.735 108.425 298.703 104.356C294.671 100.286 289.202 98 283.5 98ZM274.286 156.9C274.286 157.722 274.609 158.511 275.185 159.092C275.761 159.673 276.543 160 277.357 160H289.643C290.457 160 291.239 159.673 291.815 159.092C292.391 158.511 292.714 157.722 292.714 156.9V153.8H274.286V156.9Z" fill="url(#paint3_linear_4975_51196)"/>
</g>
<path d="M283.5 139.5V129.279M283.5 129.279C284.821 129.279 286.128 129.019 287.349 128.514C288.569 128.008 289.677 127.268 290.611 126.334C291.545 125.4 292.286 124.291 292.791 123.071C293.297 121.851 293.557 120.543 293.557 119.222C293.557 117.902 293.297 116.594 292.791 115.374C292.286 114.154 291.545 113.045 290.611 112.111C289.677 111.177 288.569 110.437 287.349 109.931C286.128 109.426 284.821 109.166 283.5 109.166C280.833 109.166 278.275 110.225 276.389 112.111C274.503 113.997 273.443 116.555 273.443 119.222C273.443 121.89 274.503 124.448 276.389 126.334C278.275 128.22 280.833 129.279 283.5 129.279Z" stroke="white" stroke-width="4" stroke-linecap="round" stroke-linejoin="round"/>
</g>
<defs>
<filter id="filter0_d_4975_51196" x="222" y="180" width="84.25" height="90.0879" filterUnits="userSpaceOnUse" color-interpolation-filters="sRGB">
<feFlood flood-opacity="0" result="BackgroundImageFix"/>
<feColorMatrix in="SourceAlpha" type="matrix" values="0 0 0 0 0 0 0 0 0 0 0 0 0 0 0 0 0 0 127 0" result="hardAlpha"/>
<feOffset/>
<feGaussianBlur stdDeviation="12"/>
<feComposite in2="hardAlpha" operator="out"/>
<feColorMatrix type="matrix" values="0 0 0 0 0.0293532 0 0 0 0 0.00955986 0 0 0 0 0.0180427 0 0 0 0.3 0"/>
<feBlend mode="normal" in2="BackgroundImageFix" result="effect1_dropShadow_4975_51196"/>
<feBlend mode="normal" in="SourceGraphic" in2="effect1_dropShadow_4975_51196" result="shape"/>
</filter>
<filter id="filter1_d_4975_51196" x="228" y="64" width="111" height="130" filterUnits="userSpaceOnUse" color-interpolation-filters="sRGB">
<feFlood flood-opacity="0" result="BackgroundImageFix"/>
<feColorMatrix in="SourceAlpha" type="matrix" values="0 0 0 0 0 0 0 0 0 0 0 0 0 0 0 0 0 0 127 0" result="hardAlpha"/>
<feOffset/>
<feGaussianBlur stdDeviation="17"/>
<feComposite in2="hardAlpha" operator="out"/>
<feColorMatrix type="matrix" values="0 0 0 0 1 0 0 0 0 0.85098 0 0 0 0 0 0 0 0 1 0"/>
<feBlend mode="normal" in2="BackgroundImageFix" result="effect1_dropShadow_4975_51196"/>
<feBlend mode="normal" in="SourceGraphic" in2="effect1_dropShadow_4975_51196" result="shape"/>
</filter>
<linearGradient id="paint0_linear_4975_51196" x1="127" y1="516" x2="127" y2="63.9999" gradientUnits="userSpaceOnUse">
<stop offset="0.278846" stop-color="#1964C4"/>
<stop offset="1" stop-color="#0B0407"/>
</linearGradient>
<linearGradient id="paint1_linear_4975_51196" x1="391" y1="341" x2="385" y2="-15.9999" gradientUnits="userSpaceOnUse">
<stop offset="0.205036" stop-color="#1964C4"/>
<stop offset="1" stop-color="#0B0407"/>
</linearGradient>
<linearGradient id="paint2_linear_4975_51196" x1="167" y1="378.857" x2="167" y2="228" gradientUnits="userSpaceOnUse">
<stop stop-color="#0B0407"/>
<stop offset="1" stop-color="#0B0407" stop-opacity="0"/>
</linearGradient>
<linearGradient id="paint3_linear_4975_51196" x1="283.5" y1="98" x2="283.5" y2="160" gradientUnits="userSpaceOnUse">
<stop stop-color="#FFD900"/>
<stop offset="1" stop-color="#FFC402"/>
</linearGradient>
<clipPath id="clip0_4975_51196">
<rect width="360" height="360" rx="8" fill="white"/>
</clipPath>
</defs>
</svg>
