<svg width="360" height="360" viewBox="0 0 360 360" fill="none" xmlns="http://www.w3.org/2000/svg">
<g clip-path="url(#clip0_4230_22599)">
<rect width="360" height="360" rx="8" fill="#E9F2E4"/>
<path d="M10.5 221C93.1727 221 160 154.832 160 73.5C160 -7.8318 93.1727 -74 10.5 -74C-14.9908 -74 -39.7927 -67.7969 -61.8387 -55.3903L-44.6152 -25.063C-28.0807 -34.0233 -9.47931 -39.5374 10.5 -39.5374C73.8824 -39.5374 124.864 10.778 124.864 73.5C124.864 136.222 73.8824 186.537 10.5 186.537C-52.8825 186.537 -103.864 136.222 -103.864 73.5C-103.864 52.8224 -98.3525 32.8341 -87.3295 14.9135L-117.643 -2.31778C-131.422 19.7383 -139 45.9299 -139 73.5C-139 155.521 -72.1728 221 10.5 221ZM10.5 151.385C53.9032 151.385 89.0391 116.923 89.0391 73.5C89.0391 30.0771 53.9032 -4.38545 10.5 -4.38545C-13 -4 -16.3687 -0.939232 -27.3917 5.26404L-10.1682 35.5911C-3.96779 32.1448 3.6106 30.0772 11.1889 30.0772C35.3018 30.0772 54.5921 49.3762 54.5921 73.5C54.5921 97.6238 35.3018 116.923 11.1889 116.923C-12.924 116.923 -32.2142 97.6238 -32.2142 73.5C-32.2142 65.9182 -30.1474 57.6471 -26.0138 51.4438L-56.3272 33.5234C-63.2166 45.2407 -67.3502 59.0257 -67.3502 73.5C-67.3502 116.234 -32.2143 151.385 11.1889 151.385H10.5Z" fill="#F8FBF7"/>
<mask id="mask0_4230_22599" style="mask-type:luminance" maskUnits="userSpaceOnUse" x="30" y="30" width="300" height="36">
<path d="M330 30H30V65.8333H330V30Z" fill="white"/>
</mask>
<g mask="url(#mask0_4230_22599)">
<path d="M48.75 65.7506C58.75 65.7506 66.8333 57.7506 66.8333 47.9173C66.8333 38.084 58.75 30.084 48.75 30.084C45.6667 30.084 42.6667 30.834 40 32.334L42.0833 36.0007C44.0833 34.9173 46.3333 34.2507 48.75 34.2507C56.4167 34.2507 62.5833 40.334 62.5833 47.9173C62.5833 55.5006 56.4167 61.584 48.75 61.584C41.0833 61.584 34.9167 55.5006 34.9167 47.9173C34.9167 45.4173 35.5833 43.0006 36.9167 40.834L33.25 38.7506C31.5833 41.4173 30.6667 44.584 30.6667 47.9173C30.6667 57.834 38.75 65.7506 48.75 65.7506ZM48.75 57.334C54 57.334 58.25 53.1673 58.25 47.9173C58.25 42.6673 54 38.5007 48.75 38.5007C43.5 38.5007 45.5 38.9173 44.1667 39.6673L46.25 43.334C47 42.9173 47.9167 42.6673 48.8333 42.6673C51.75 42.6673 54.0833 45.0006 54.0833 47.9173C54.0833 50.834 51.75 53.1673 48.8333 53.1673C45.9167 53.1673 43.5833 50.834 43.5833 47.9173C43.5833 47.0006 43.8333 46.0006 44.3333 45.2506L40.6667 43.084C39.8333 44.5007 39.3333 46.1673 39.3333 47.9173C39.3333 53.084 43.5833 57.334 48.8333 57.334H48.75Z" fill="#53793D"/>
<path d="M120.667 61.5006C128.25 61.5006 134.417 55.4173 134.417 47.9173C134.417 40.4173 128.25 34.334 120.667 34.334C113.083 34.334 106.917 40.4173 106.917 47.9173C106.917 55.4173 113.083 61.5006 120.667 61.5006ZM120.667 57.584C115.417 57.584 111.167 53.2506 111.167 47.834C111.167 42.4173 115.417 38.084 120.667 38.084C125.917 38.084 130.167 42.4173 130.167 47.834C130.167 53.2506 125.917 57.584 120.667 57.584ZM152.333 61.5006C159.917 61.5006 166.083 55.4173 166.083 47.9173C166.083 40.4173 159.917 34.334 152.333 34.334C144.75 34.334 138.583 40.4173 138.583 47.9173C138.583 55.4173 144.75 61.5006 152.333 61.5006ZM152.333 57.584C147.083 57.584 142.833 53.2506 142.833 47.834C142.833 42.4173 147.083 38.084 152.333 38.084C157.583 38.084 161.833 42.4173 161.833 47.834C161.833 53.2506 157.583 57.584 152.333 57.584ZM213.083 60.9173H216.833L222.833 42.0006L228.667 60.9173H232.417L239.833 34.834H235.917L230.75 53.5007L225 34.834H221.25L215.333 53.5007L210.167 34.834H205.833L213.083 60.9173ZM89 49.834H98.3333C97.5 54.334 93.5833 57.6673 89 57.6673C84.4167 57.6673 79.5 53.334 79.5 47.9173C79.5 42.5006 83.75 38.1673 89 38.1673C94.25 38.1673 94.4167 39.4173 96.1667 41.5006L99.1667 38.9173C97.0833 36.2507 93.4167 34.334 89 34.334C81.4167 34.334 75.25 40.4173 75.25 47.9173C75.25 55.4173 81.4167 61.5006 89 61.5006C96.5833 61.5006 102.75 55.4173 102.75 47.9173C102.75 40.4173 102.75 46.5007 102.583 46.0007H89V49.834ZM171.417 60.9173H180.833C188.833 60.9173 194.917 55.1673 194.917 47.834C194.917 40.5006 188.833 34.7507 180.833 34.7507H171.417V60.834V60.9173ZM175.583 57.084V38.6673H180.75C186.417 38.6673 190.667 42.6673 190.667 47.834C190.667 53.0006 186.5 57.0006 180.75 57.0006H175.583V57.084ZM255.75 61.5006C263.333 61.5006 269.5 55.4173 269.5 47.9173C269.5 40.4173 263.333 34.334 255.75 34.334C248.167 34.334 242 40.4173 242 47.9173C242 55.4173 248.167 61.5006 255.75 61.5006ZM255.75 57.584C250.5 57.584 246.25 53.2506 246.25 47.834C246.25 42.4173 250.5 38.084 255.75 38.084C261 38.084 265.25 42.4173 265.25 47.834C265.25 53.2506 261 57.584 255.75 57.584ZM287.417 61.5006C295 61.5006 301.167 55.4173 301.167 47.9173C301.167 40.4173 295 34.334 287.417 34.334C279.833 34.334 273.667 40.4173 273.667 47.9173C273.667 55.4173 279.833 61.5006 287.417 61.5006ZM287.417 57.584C282.167 57.584 277.917 53.2506 277.917 47.834C277.917 42.4173 282.167 38.084 287.417 38.084C292.667 38.084 296.917 42.4173 296.917 47.834C296.917 53.2506 292.667 57.584 287.417 57.584ZM306.417 60.9173H315.833C323.833 60.9173 329.917 55.1673 329.917 47.834C329.917 40.5006 323.833 34.7507 315.833 34.7507H306.417V60.834V60.9173ZM310.667 57.084V38.6673H315.833C321.5 38.6673 325.75 42.6673 325.75 47.834C325.75 53.0006 321.583 57.0006 315.833 57.0006H310.667V57.084Z" fill="#333333"/>
</g>
<path d="M271.5 427C354.173 427 421 360.832 421 279.5C421 198.168 354.173 132 271.5 132C246.009 132 221.207 138.203 199.161 150.61L216.385 180.937C232.919 171.977 251.521 166.463 271.5 166.463C334.882 166.463 385.864 216.778 385.864 279.5C385.864 342.222 334.882 392.537 271.5 392.537C208.117 392.537 157.136 342.222 157.136 279.5C157.136 258.822 162.647 238.834 173.67 220.914L143.357 203.682C129.578 225.738 122 251.93 122 279.5C122 361.521 188.827 427 271.5 427ZM271.5 357.385C314.903 357.385 350.039 322.923 350.039 279.5C350.039 236.077 314.903 201.615 271.5 201.615C248 202 244.631 205.061 233.608 211.264L250.832 241.591C257.032 238.145 264.611 236.077 272.189 236.077C296.302 236.077 315.592 255.376 315.592 279.5C315.592 303.624 296.302 322.923 272.189 322.923C248.076 322.923 228.786 303.624 228.786 279.5C228.786 271.918 230.853 263.647 234.986 257.444L204.673 239.523C197.783 251.241 193.65 265.026 193.65 279.5C193.65 322.234 228.786 357.385 272.189 357.385H271.5Z" fill="#F8FBF7"/>
<g filter="url(#filter0_d_4230_22599)">
<path d="M30 114C30 107.373 35.3726 102 42 102H318C324.627 102 330 107.373 330 114V360H30V114Z" fill="white"/>
<path d="M30 114C30 107.373 35.3726 102 42 102H318C324.627 102 330 107.373 330 114V360H30V114Z" fill="url(#paint0_linear_4230_22599)" fill-opacity="0.3"/>
</g>
<path d="M30 114C30 107.373 35.3726 102 42 102H318C324.627 102 330 107.373 330 114V132H30V114Z" fill="#333333"/>
<circle cx="47" cy="117" r="3" fill="white"/>
<circle cx="59" cy="117" r="3" fill="white"/>
<circle cx="71" cy="117" r="3" fill="white"/>
<circle cx="59" cy="152" r="9" fill="#53793D"/>
<rect x="76" y="148" width="35" height="9" rx="4.5" fill="#BABABA"/>
<rect x="30" y="172" width="300" height="119" fill="#53793D"/>
<rect x="265" y="244" width="65" height="3" fill="#B47920"/>
<rect x="278" y="247" width="52" height="9" fill="#D9D9D9"/>
<rect x="278" y="256" width="52" height="4" fill="#F0F0F0"/>
<rect x="275" y="247" width="3" height="44" fill="white"/>
<rect x="267" y="247" width="8" height="44" fill="#C5AB83"/>
<path d="M179 199H245L265 228V291H154V228L179 199Z" fill="#DFC295"/>
<mask id="mask1_4230_22599" style="mask-type:alpha" maskUnits="userSpaceOnUse" x="154" y="199" width="111" height="92">
<path d="M179 199H245L265 228V291H154V228L179 199Z" fill="#EECE58"/>
</mask>
<g mask="url(#mask1_4230_22599)">
<rect x="154" y="278" width="111" height="1" fill="#7E6428" fill-opacity="0.2"/>
<rect x="154" y="273" width="111" height="1" fill="#7E6428" fill-opacity="0.2"/>
<rect x="154" y="268" width="111" height="1" fill="#7E6428" fill-opacity="0.2"/>
<rect x="154" y="263" width="111" height="1" fill="#7E6428" fill-opacity="0.2"/>
<rect x="154" y="258" width="111" height="1" fill="#7E6428" fill-opacity="0.2"/>
<rect x="154" y="253" width="111" height="1" fill="#7E6428" fill-opacity="0.2"/>
<rect x="154" y="248" width="111" height="1" fill="#7E6428" fill-opacity="0.2"/>
<rect x="154" y="243" width="111" height="1" fill="#7E6428" fill-opacity="0.2"/>
<rect x="154" y="238" width="111" height="1" fill="#7E6428" fill-opacity="0.2"/>
<rect x="154" y="233" width="111" height="1" fill="#7E6428" fill-opacity="0.2"/>
<rect x="154" y="228" width="111" height="1" fill="#7E6428" fill-opacity="0.2"/>
<rect x="154" y="223" width="111" height="1" fill="#7E6428" fill-opacity="0.2"/>
<rect x="154" y="218" width="111" height="1" fill="#7E6428" fill-opacity="0.2"/>
<rect x="154" y="213" width="111" height="1" fill="#7E6428" fill-opacity="0.2"/>
<rect x="154" y="208" width="111" height="1" fill="#7E6428" fill-opacity="0.2"/>
</g>
<rect x="154" y="283" width="111" height="8" fill="#B48743"/>
<rect x="220" y="287" width="40" height="4" fill="#E5E5E5"/>
<rect x="222" y="286" width="36" height="1" fill="#D9D9D9"/>
<rect x="222" y="283" width="36" height="3" fill="white"/>
<rect x="222" y="240" width="36" height="43" fill="#7F6640"/>
<rect x="213" y="233" width="2" height="58" fill="#7E6428" fill-opacity="0.4"/>
<rect x="222" y="236" width="36" height="4" fill="#5D492A"/>
<rect x="228" y="243" width="26" height="40" fill="white"/>
<rect x="231" y="246" width="20" height="37" fill="#C0C0C0"/>
<rect x="246" y="261" width="3" height="8" fill="#E8E8E8"/>
<rect x="168" y="241" width="32" height="32" fill="white"/>
<rect x="171" y="244" width="12" height="26" fill="#69B7D7"/>
<rect x="185" y="244" width="12" height="26" fill="#69B7D7"/>
<rect x="168" y="273" width="32" height="1" fill="#346A80"/>
<rect x="265" y="247" width="2" height="44" fill="#B29871"/>
<rect x="278" y="264" width="52" height="4" fill="#F0F0F0"/>
<rect x="278" y="272" width="52" height="4" fill="#F0F0F0"/>
<rect x="278" y="280" width="52" height="4" fill="#F0F0F0"/>
<rect x="278" y="288" width="52" height="3" fill="#F0F0F0"/>
<rect x="278" y="260" width="52" height="4" fill="#D9D9D9"/>
<rect x="278" y="268" width="52" height="4" fill="#D9D9D9"/>
<rect x="278" y="276" width="52" height="4" fill="#D9D9D9"/>
<rect x="278" y="284" width="52" height="4" fill="#D9D9D9"/>
<path d="M330 244H265V218.5H324L330 224.5V244Z" fill="#D2902E"/>
<path d="M178 191.5L146 229L214.5 231L240 202.5L263.5 229H281L246 191.5H178Z" fill="#E89F33"/>
<rect x="146" y="229" width="70" height="4" fill="#CC8925"/>
<rect x="265" y="229" width="16" height="4" fill="#CC8925"/>
<path d="M240.5 199.5L210 233H216L240.5 206L265 233H271L240.5 199.5Z" fill="#FFD390"/>
<rect x="50" y="200" width="72" height="11" rx="5.5" fill="#729F57"/>
<rect x="50" y="218" width="49" height="11" rx="5.5" fill="#729F57"/>
<rect x="50" y="247" width="49" height="17" rx="8.5" fill="white"/>
<rect x="50" y="309" width="65" height="9" rx="4.5" fill="#333333"/>
<path d="M50 330C50 327.791 51.7909 326 54 326H127C129.209 326 131 327.791 131 330V367H50V330Z" fill="#E9F2E4"/>
<path d="M139 330C139 327.791 140.791 326 143 326H215C217.209 326 219 327.791 219 330V367H139V330Z" fill="#E9F2E4"/>
<path d="M227 330C227 327.791 228.791 326 231 326H304C306.209 326 308 327.791 308 330V367H227V330Z" fill="#E9F2E4"/>
<g filter="url(#filter1_d_4230_22599)">
<mask id="path-72-outside-1_4230_22599" maskUnits="userSpaceOnUse" x="270.977" y="122" width="38" height="33" fill="black">
<rect fill="white" x="270.977" y="122" width="38" height="33"/>
<path fill-rule="evenodd" clip-rule="evenodd" d="M276.838 125C275.258 125 273.977 126.281 273.977 127.861V145.029C273.977 146.609 275.258 147.89 276.838 147.89L285.422 147.89L288.786 151.255C289.456 151.925 290.544 151.925 291.214 151.255L294.578 147.89H303.162C304.742 147.89 306.023 146.609 306.023 145.029V127.861C306.023 126.281 304.742 125 303.162 125H276.838Z"/>
</mask>
<path fill-rule="evenodd" clip-rule="evenodd" d="M276.838 125C275.258 125 273.977 126.281 273.977 127.861V145.029C273.977 146.609 275.258 147.89 276.838 147.89L285.422 147.89L288.786 151.255C289.456 151.925 290.544 151.925 291.214 151.255L294.578 147.89H303.162C304.742 147.89 306.023 146.609 306.023 145.029V127.861C306.023 126.281 304.742 125 303.162 125H276.838Z" fill="#CA412F"/>
<path d="M276.838 147.89V150.179H276.838L276.838 147.89ZM285.422 147.89L287.041 146.272L286.37 145.601H285.422L285.422 147.89ZM291.214 151.255L289.595 149.636L291.214 151.255ZM294.578 147.89V145.601H293.63L292.959 146.272L294.578 147.89ZM276.266 127.861C276.266 127.545 276.522 127.289 276.838 127.289V122.711C273.994 122.711 271.688 125.017 271.688 127.861H276.266ZM276.266 145.029V127.861H271.688V145.029H276.266ZM276.838 145.601C276.522 145.601 276.266 145.345 276.266 145.029H271.688C271.688 147.874 273.994 150.179 276.838 150.179V145.601ZM285.422 145.601L276.838 145.601L276.838 150.179L285.422 150.179L285.422 145.601ZM290.405 149.636L287.041 146.272L283.803 149.509L287.167 152.873L290.405 149.636ZM289.595 149.636C289.819 149.412 290.181 149.412 290.405 149.636L287.167 152.873C288.732 154.437 291.268 154.437 292.833 152.873L289.595 149.636ZM292.959 146.272L289.595 149.636L292.833 152.873L296.197 149.509L292.959 146.272ZM303.162 145.601H294.578V150.179H303.162V145.601ZM303.734 145.029C303.734 145.345 303.478 145.601 303.162 145.601V150.179C306.006 150.179 308.312 147.874 308.312 145.029H303.734ZM303.734 127.861V145.029H308.312V127.861H303.734ZM303.162 127.289C303.478 127.289 303.734 127.545 303.734 127.861H308.312C308.312 125.017 306.006 122.711 303.162 122.711V127.289ZM276.838 127.289H303.162V122.711H276.838V127.289Z" fill="white" mask="url(#path-72-outside-1_4230_22599)"/>
</g>
<rect x="280.844" y="131.867" width="18.3123" height="2.28904" rx="1.14452" fill="white"/>
<rect x="280.844" y="139.879" width="18.3123" height="2.28904" rx="1.14452" fill="white"/>
<g filter="url(#filter2_d_4230_22599)">
<mask id="path-76-outside-2_4230_22599" maskUnits="userSpaceOnUse" x="90.9767" y="222" width="38" height="33" fill="black">
<rect fill="white" x="90.9767" y="222" width="38" height="33"/>
<path fill-rule="evenodd" clip-rule="evenodd" d="M96.838 225C95.2578 225 93.9767 226.281 93.9767 227.861V245.029C93.9767 246.609 95.2578 247.89 96.838 247.89L105.422 247.89L108.786 251.255C109.456 251.925 110.544 251.925 111.214 251.255L114.578 247.89H123.162C124.742 247.89 126.023 246.609 126.023 245.029V227.861C126.023 226.281 124.742 225 123.162 225H96.838Z"/>
</mask>
<path fill-rule="evenodd" clip-rule="evenodd" d="M96.838 225C95.2578 225 93.9767 226.281 93.9767 227.861V245.029C93.9767 246.609 95.2578 247.89 96.838 247.89L105.422 247.89L108.786 251.255C109.456 251.925 110.544 251.925 111.214 251.255L114.578 247.89H123.162C124.742 247.89 126.023 246.609 126.023 245.029V227.861C126.023 226.281 124.742 225 123.162 225H96.838Z" fill="#CA412F"/>
<path d="M96.838 247.89V250.179H96.838L96.838 247.89ZM105.422 247.89L107.041 246.272L106.37 245.601H105.422L105.422 247.89ZM111.214 251.255L109.595 249.636L111.214 251.255ZM114.578 247.89V245.601H113.63L112.959 246.272L114.578 247.89ZM96.2658 227.861C96.2658 227.545 96.522 227.289 96.838 227.289V222.711C93.9936 222.711 91.6877 225.017 91.6877 227.861H96.2658ZM96.2658 245.029V227.861H91.6877V245.029H96.2658ZM96.838 245.601C96.522 245.601 96.2658 245.345 96.2658 245.029H91.6877C91.6877 247.874 93.9936 250.179 96.838 250.179V245.601ZM105.422 245.601L96.838 245.601L96.838 250.179L105.422 250.179L105.422 245.601ZM110.405 249.636L107.041 246.272L103.803 249.509L107.167 252.873L110.405 249.636ZM109.595 249.636C109.819 249.412 110.181 249.412 110.405 249.636L107.167 252.873C108.732 254.437 111.268 254.437 112.833 252.873L109.595 249.636ZM112.959 246.272L109.595 249.636L112.833 252.873L116.197 249.509L112.959 246.272ZM123.162 245.601H114.578V250.179H123.162V245.601ZM123.734 245.029C123.734 245.345 123.478 245.601 123.162 245.601V250.179C126.006 250.179 128.312 247.874 128.312 245.029H123.734ZM123.734 227.861V245.029H128.312V227.861H123.734ZM123.162 227.289C123.478 227.289 123.734 227.545 123.734 227.861H128.312C128.312 225.017 126.006 222.711 123.162 222.711V227.289ZM96.838 227.289H123.162V222.711H96.838V227.289Z" fill="white" mask="url(#path-76-outside-2_4230_22599)"/>
</g>
<rect x="100.844" y="231.867" width="18.3123" height="2.28904" rx="1.14452" fill="white"/>
<rect x="100.844" y="239.879" width="18.3123" height="2.28904" rx="1.14452" fill="white"/>
<g filter="url(#filter3_d_4230_22599)">
<mask id="path-80-outside-3_4230_22599" maskUnits="userSpaceOnUse" x="170.977" y="302" width="38" height="33" fill="black">
<rect fill="white" x="170.977" y="302" width="38" height="33"/>
<path fill-rule="evenodd" clip-rule="evenodd" d="M176.838 305C175.258 305 173.977 306.281 173.977 307.861V325.029C173.977 326.609 175.258 327.89 176.838 327.89L185.422 327.89L188.786 331.255C189.456 331.925 190.544 331.925 191.214 331.255L194.578 327.89H203.162C204.742 327.89 206.023 326.609 206.023 325.029V307.861C206.023 306.281 204.742 305 203.162 305H176.838Z"/>
</mask>
<path fill-rule="evenodd" clip-rule="evenodd" d="M176.838 305C175.258 305 173.977 306.281 173.977 307.861V325.029C173.977 326.609 175.258 327.89 176.838 327.89L185.422 327.89L188.786 331.255C189.456 331.925 190.544 331.925 191.214 331.255L194.578 327.89H203.162C204.742 327.89 206.023 326.609 206.023 325.029V307.861C206.023 306.281 204.742 305 203.162 305H176.838Z" fill="#CA412F"/>
<path d="M176.838 327.89V330.179H176.838L176.838 327.89ZM185.422 327.89L187.041 326.272L186.37 325.601H185.422L185.422 327.89ZM191.214 331.255L189.595 329.636L191.214 331.255ZM194.578 327.89V325.601H193.63L192.959 326.272L194.578 327.89ZM176.266 307.861C176.266 307.545 176.522 307.289 176.838 307.289V302.711C173.994 302.711 171.688 305.017 171.688 307.861H176.266ZM176.266 325.029V307.861H171.688V325.029H176.266ZM176.838 325.601C176.522 325.601 176.266 325.345 176.266 325.029H171.688C171.688 327.874 173.994 330.179 176.838 330.179V325.601ZM185.422 325.601L176.838 325.601L176.838 330.179L185.422 330.179L185.422 325.601ZM190.405 329.636L187.041 326.272L183.803 329.509L187.167 332.873L190.405 329.636ZM189.595 329.636C189.819 329.412 190.181 329.412 190.405 329.636L187.167 332.873C188.732 334.437 191.268 334.437 192.833 332.873L189.595 329.636ZM192.959 326.272L189.595 329.636L192.833 332.873L196.197 329.509L192.959 326.272ZM203.162 325.601H194.578V330.179H203.162V325.601ZM203.734 325.029C203.734 325.345 203.478 325.601 203.162 325.601V330.179C206.006 330.179 208.312 327.874 208.312 325.029H203.734ZM203.734 307.861V325.029H208.312V307.861H203.734ZM203.162 307.289C203.478 307.289 203.734 307.545 203.734 307.861H208.312C208.312 305.017 206.006 302.711 203.162 302.711V307.289ZM176.838 307.289H203.162V302.711H176.838V307.289Z" fill="white" mask="url(#path-80-outside-3_4230_22599)"/>
</g>
<rect x="180.844" y="311.867" width="18.3123" height="2.28904" rx="1.14452" fill="white"/>
<rect x="180.844" y="319.879" width="18.3123" height="2.28904" rx="1.14452" fill="white"/>
<g filter="url(#filter4_d_4230_22599)">
<mask id="path-84-outside-4_4230_22599" maskUnits="userSpaceOnUse" x="260.977" y="312" width="38" height="33" fill="black">
<rect fill="white" x="260.977" y="312" width="38" height="33"/>
<path fill-rule="evenodd" clip-rule="evenodd" d="M266.838 315C265.258 315 263.977 316.281 263.977 317.861V335.029C263.977 336.609 265.258 337.89 266.838 337.89L275.422 337.89L278.786 341.255C279.456 341.925 280.544 341.925 281.214 341.255L284.578 337.89H293.162C294.742 337.89 296.023 336.609 296.023 335.029V317.861C296.023 316.281 294.742 315 293.162 315H266.838Z"/>
</mask>
<path fill-rule="evenodd" clip-rule="evenodd" d="M266.838 315C265.258 315 263.977 316.281 263.977 317.861V335.029C263.977 336.609 265.258 337.89 266.838 337.89L275.422 337.89L278.786 341.255C279.456 341.925 280.544 341.925 281.214 341.255L284.578 337.89H293.162C294.742 337.89 296.023 336.609 296.023 335.029V317.861C296.023 316.281 294.742 315 293.162 315H266.838Z" fill="#CA412F"/>
<path d="M266.838 337.89V340.179H266.838L266.838 337.89ZM275.422 337.89L277.041 336.272L276.37 335.601H275.422L275.422 337.89ZM281.214 341.255L279.595 339.636L281.214 341.255ZM284.578 337.89V335.601H283.63L282.959 336.272L284.578 337.89ZM266.266 317.861C266.266 317.545 266.522 317.289 266.838 317.289V312.711C263.994 312.711 261.688 315.017 261.688 317.861H266.266ZM266.266 335.029V317.861H261.688V335.029H266.266ZM266.838 335.601C266.522 335.601 266.266 335.345 266.266 335.029H261.688C261.688 337.874 263.994 340.179 266.838 340.179V335.601ZM275.422 335.601L266.838 335.601L266.838 340.179L275.422 340.179L275.422 335.601ZM280.405 339.636L277.041 336.272L273.803 339.509L277.167 342.873L280.405 339.636ZM279.595 339.636C279.819 339.412 280.181 339.412 280.405 339.636L277.167 342.873C278.732 344.437 281.268 344.437 282.833 342.873L279.595 339.636ZM282.959 336.272L279.595 339.636L282.833 342.873L286.197 339.509L282.959 336.272ZM293.162 335.601H284.578V340.179H293.162V335.601ZM293.734 335.029C293.734 335.345 293.478 335.601 293.162 335.601V340.179C296.006 340.179 298.312 337.874 298.312 335.029H293.734ZM293.734 317.861V335.029H298.312V317.861H293.734ZM293.162 317.289C293.478 317.289 293.734 317.545 293.734 317.861H298.312C298.312 315.017 296.006 312.711 293.162 312.711V317.289ZM266.838 317.289H293.162V312.711H266.838V317.289Z" fill="white" mask="url(#path-84-outside-4_4230_22599)"/>
</g>
<rect x="270.844" y="321.867" width="18.3123" height="2.28904" rx="1.14452" fill="white"/>
<rect x="270.844" y="329.879" width="18.3123" height="2.28904" rx="1.14452" fill="white"/>
<g filter="url(#filter5_d_4230_22599)">
<mask id="path-88-outside-5_4230_22599" maskUnits="userSpaceOnUse" x="117.977" y="115" width="38" height="33" fill="black">
<rect fill="white" x="117.977" y="115" width="38" height="33"/>
<path fill-rule="evenodd" clip-rule="evenodd" d="M123.838 118C122.258 118 120.977 119.281 120.977 120.861V138.029C120.977 139.609 122.258 140.89 123.838 140.89L132.422 140.89L135.786 144.255C136.456 144.925 137.544 144.925 138.214 144.255L141.578 140.89H150.162C151.742 140.89 153.023 139.609 153.023 138.029V120.861C153.023 119.281 151.742 118 150.162 118H123.838Z"/>
</mask>
<path fill-rule="evenodd" clip-rule="evenodd" d="M123.838 118C122.258 118 120.977 119.281 120.977 120.861V138.029C120.977 139.609 122.258 140.89 123.838 140.89L132.422 140.89L135.786 144.255C136.456 144.925 137.544 144.925 138.214 144.255L141.578 140.89H150.162C151.742 140.89 153.023 139.609 153.023 138.029V120.861C153.023 119.281 151.742 118 150.162 118H123.838Z" fill="#CA412F"/>
<path d="M123.838 140.89V143.179H123.838L123.838 140.89ZM132.422 140.89L134.041 139.272L133.37 138.601H132.422L132.422 140.89ZM138.214 144.255L136.595 142.636L138.214 144.255ZM141.578 140.89V138.601H140.63L139.959 139.272L141.578 140.89ZM123.266 120.861C123.266 120.545 123.522 120.289 123.838 120.289V115.711C120.994 115.711 118.688 118.017 118.688 120.861H123.266ZM123.266 138.029V120.861H118.688V138.029H123.266ZM123.838 138.601C123.522 138.601 123.266 138.345 123.266 138.029H118.688C118.688 140.874 120.994 143.179 123.838 143.179V138.601ZM132.422 138.601L123.838 138.601L123.838 143.179L132.422 143.179L132.422 138.601ZM137.405 142.636L134.041 139.272L130.803 142.509L134.167 145.873L137.405 142.636ZM136.595 142.636C136.819 142.412 137.181 142.412 137.405 142.636L134.167 145.873C135.732 147.437 138.268 147.437 139.833 145.873L136.595 142.636ZM139.959 139.272L136.595 142.636L139.833 145.873L143.197 142.509L139.959 139.272ZM150.162 138.601H141.578V143.179H150.162V138.601ZM150.734 138.029C150.734 138.345 150.478 138.601 150.162 138.601V143.179C153.006 143.179 155.312 140.874 155.312 138.029H150.734ZM150.734 120.861V138.029H155.312V120.861H150.734ZM150.162 120.289C150.478 120.289 150.734 120.545 150.734 120.861H155.312C155.312 118.017 153.006 115.711 150.162 115.711V120.289ZM123.838 120.289H150.162V115.711H123.838V120.289Z" fill="white" mask="url(#path-88-outside-5_4230_22599)"/>
</g>
<rect x="127.844" y="124.867" width="18.3123" height="2.28904" rx="1.14452" fill="white"/>
<rect x="127.844" y="132.879" width="18.3123" height="2.28904" rx="1.14452" fill="white"/>
</g>
<defs>
<filter id="filter0_d_4230_22599" x="0" y="82" width="360" height="318" filterUnits="userSpaceOnUse" color-interpolation-filters="sRGB">
<feFlood flood-opacity="0" result="BackgroundImageFix"/>
<feColorMatrix in="SourceAlpha" type="matrix" values="0 0 0 0 0 0 0 0 0 0 0 0 0 0 0 0 0 0 127 0" result="hardAlpha"/>
<feOffset dy="10"/>
<feGaussianBlur stdDeviation="15"/>
<feComposite in2="hardAlpha" operator="out"/>
<feColorMatrix type="matrix" values="0 0 0 0 0.823796 0 0 0 0 0.871322 0 0 0 0 0.797393 0 0 0 1 0"/>
<feBlend mode="normal" in2="BackgroundImageFix" result="effect1_dropShadow_4230_22599"/>
<feBlend mode="normal" in="SourceGraphic" in2="effect1_dropShadow_4230_22599" result="shape"/>
</filter>
<filter id="filter1_d_4230_22599" x="261.188" y="114.211" width="57.6246" height="52.3359" filterUnits="userSpaceOnUse" color-interpolation-filters="sRGB">
<feFlood flood-opacity="0" result="BackgroundImageFix"/>
<feColorMatrix in="SourceAlpha" type="matrix" values="0 0 0 0 0 0 0 0 0 0 0 0 0 0 0 0 0 0 127 0" result="hardAlpha"/>
<feOffset dy="2"/>
<feGaussianBlur stdDeviation="5.25"/>
<feComposite in2="hardAlpha" operator="out"/>
<feColorMatrix type="matrix" values="0 0 0 0 0 0 0 0 0 0 0 0 0 0 0 0 0 0 0.15 0"/>
<feBlend mode="normal" in2="BackgroundImageFix" result="effect1_dropShadow_4230_22599"/>
<feBlend mode="normal" in="SourceGraphic" in2="effect1_dropShadow_4230_22599" result="shape"/>
</filter>
<filter id="filter2_d_4230_22599" x="81.1877" y="214.211" width="57.6246" height="52.3359" filterUnits="userSpaceOnUse" color-interpolation-filters="sRGB">
<feFlood flood-opacity="0" result="BackgroundImageFix"/>
<feColorMatrix in="SourceAlpha" type="matrix" values="0 0 0 0 0 0 0 0 0 0 0 0 0 0 0 0 0 0 127 0" result="hardAlpha"/>
<feOffset dy="2"/>
<feGaussianBlur stdDeviation="5.25"/>
<feComposite in2="hardAlpha" operator="out"/>
<feColorMatrix type="matrix" values="0 0 0 0 0 0 0 0 0 0 0 0 0 0 0 0 0 0 0.15 0"/>
<feBlend mode="normal" in2="BackgroundImageFix" result="effect1_dropShadow_4230_22599"/>
<feBlend mode="normal" in="SourceGraphic" in2="effect1_dropShadow_4230_22599" result="shape"/>
</filter>
<filter id="filter3_d_4230_22599" x="161.188" y="294.211" width="57.6246" height="52.3359" filterUnits="userSpaceOnUse" color-interpolation-filters="sRGB">
<feFlood flood-opacity="0" result="BackgroundImageFix"/>
<feColorMatrix in="SourceAlpha" type="matrix" values="0 0 0 0 0 0 0 0 0 0 0 0 0 0 0 0 0 0 127 0" result="hardAlpha"/>
<feOffset dy="2"/>
<feGaussianBlur stdDeviation="5.25"/>
<feComposite in2="hardAlpha" operator="out"/>
<feColorMatrix type="matrix" values="0 0 0 0 0 0 0 0 0 0 0 0 0 0 0 0 0 0 0.15 0"/>
<feBlend mode="normal" in2="BackgroundImageFix" result="effect1_dropShadow_4230_22599"/>
<feBlend mode="normal" in="SourceGraphic" in2="effect1_dropShadow_4230_22599" result="shape"/>
</filter>
<filter id="filter4_d_4230_22599" x="251.188" y="304.211" width="57.6246" height="52.3359" filterUnits="userSpaceOnUse" color-interpolation-filters="sRGB">
<feFlood flood-opacity="0" result="BackgroundImageFix"/>
<feColorMatrix in="SourceAlpha" type="matrix" values="0 0 0 0 0 0 0 0 0 0 0 0 0 0 0 0 0 0 127 0" result="hardAlpha"/>
<feOffset dy="2"/>
<feGaussianBlur stdDeviation="5.25"/>
<feComposite in2="hardAlpha" operator="out"/>
<feColorMatrix type="matrix" values="0 0 0 0 0 0 0 0 0 0 0 0 0 0 0 0 0 0 0.15 0"/>
<feBlend mode="normal" in2="BackgroundImageFix" result="effect1_dropShadow_4230_22599"/>
<feBlend mode="normal" in="SourceGraphic" in2="effect1_dropShadow_4230_22599" result="shape"/>
</filter>
<filter id="filter5_d_4230_22599" x="108.188" y="107.211" width="57.6246" height="52.3359" filterUnits="userSpaceOnUse" color-interpolation-filters="sRGB">
<feFlood flood-opacity="0" result="BackgroundImageFix"/>
<feColorMatrix in="SourceAlpha" type="matrix" values="0 0 0 0 0 0 0 0 0 0 0 0 0 0 0 0 0 0 127 0" result="hardAlpha"/>
<feOffset dy="2"/>
<feGaussianBlur stdDeviation="5.25"/>
<feComposite in2="hardAlpha" operator="out"/>
<feColorMatrix type="matrix" values="0 0 0 0 0 0 0 0 0 0 0 0 0 0 0 0 0 0 0.15 0"/>
<feBlend mode="normal" in2="BackgroundImageFix" result="effect1_dropShadow_4230_22599"/>
<feBlend mode="normal" in="SourceGraphic" in2="effect1_dropShadow_4230_22599" result="shape"/>
</filter>
<linearGradient id="paint0_linear_4230_22599" x1="180" y1="189" x2="180" y2="360" gradientUnits="userSpaceOnUse">
<stop stop-color="#E9F2E4" stop-opacity="0"/>
<stop offset="1" stop-color="#E9F2E4"/>
</linearGradient>
<clipPath id="clip0_4230_22599">
<rect width="360" height="360" rx="8" fill="white"/>
</clipPath>
</defs>
</svg>
