<svg width="360" height="360" viewBox="0 0 360 360" fill="none" xmlns="http://www.w3.org/2000/svg">
<g clip-path="url(#clip0_4455_22891)">
<rect width="360" height="360" rx="8" fill="#EDF0FE"/>
<path d="M61.7729 0.498047H0.407959V65.9772C0.407959 76.2467 -5.09605 85.7361 -14.0308 90.8709L-71 123.611L-40.3175 176.511L32.8951 134.437C50.7647 124.167 61.7729 105.188 61.7729 84.649V0.498047Z" fill="#F5F7FF"/>
<path d="M190.318 176.013L221 123.114L164.032 90.3743C155.097 85.2396 149.593 75.7501 149.593 65.4806L149.593 0.000403596L88.2269 0L88.2266 84.1499C88.2265 104.689 99.2346 123.668 117.104 133.938L190.318 176.013Z" fill="#F5F7FF"/>
<path d="M-26.4009 198.1L4.28159 250.999L61.25 218.26C70.1847 213.125 81.1928 213.125 90.1275 218.26L147.097 251L177.78 198.1L104.568 156.025C86.6983 145.755 64.6821 145.755 46.8125 156.024L-26.4009 198.1Z" fill="#F5F7FF"/>
<path d="M128.105 48V73.1016C128.088 76.5645 126.548 78.3926 123.748 78.3926C121.105 78.3926 119.39 76.7402 119.338 73.875H111.795C111.76 81.0645 116.87 84.4922 123.363 84.4922C130.625 84.4922 135.578 80.0801 135.595 73.1016V48H128.105Z" fill="#21253F"/>
<path d="M151.73 84.5273C158.38 84.5273 162.86 81.2754 163.91 76.2656L157.015 75.8086C156.263 77.8652 154.338 78.9375 151.853 78.9375C148.125 78.9375 145.763 76.459 145.763 72.4336V72.416H164.068V70.3594C164.068 61.1836 158.538 56.6484 151.433 56.6484C143.523 56.6484 138.395 62.291 138.395 70.623C138.395 79.1836 143.453 84.5273 151.73 84.5273ZM145.763 67.7754C145.92 64.6992 148.248 62.2383 151.555 62.2383C154.793 62.2383 157.033 64.5586 157.05 67.7754H145.763Z" fill="#21253F"/>
<path d="M180.99 57H175.933V50.5313H168.478V57H164.803V62.625H168.478V76.6875C168.443 81.9785 172.03 84.5977 177.438 84.3691C179.363 84.2988 180.728 83.9121 181.48 83.666L180.308 78.0938C179.94 78.1641 179.153 78.3398 178.453 78.3398C176.965 78.3398 175.933 77.7773 175.933 75.7031V62.625H180.99V57Z" fill="#21253F"/>
<path d="M184.324 84H207.266V77.7246H191.901V48H184.324V84Z" fill="#21253F"/>
<path d="M222.154 84.5273C228.804 84.5273 233.284 81.2754 234.334 76.2656L227.439 75.8086C226.687 77.8652 224.762 78.9375 222.277 78.9375C218.549 78.9375 216.187 76.459 216.187 72.4336V72.416H234.492V70.3594C234.492 61.1836 228.962 56.6484 221.857 56.6484C213.947 56.6484 208.819 62.291 208.819 70.623C208.819 79.1836 213.877 84.5273 222.154 84.5273ZM216.187 67.7754C216.344 64.6992 218.672 62.2383 221.979 62.2383C225.217 62.2383 227.457 64.5586 227.474 67.7754H216.187Z" fill="#21253F"/>
<path d="M244.782 84.5098C248.754 84.5098 251.327 82.7695 252.639 80.2559H252.849V84H259.919V65.7891C259.919 59.3555 254.494 56.6484 248.509 56.6484C242.069 56.6484 237.834 59.7422 236.802 64.6641L243.697 65.2266C244.204 63.4336 245.797 62.1152 248.474 62.1152C251.012 62.1152 252.464 63.3984 252.464 65.6133V65.7188C252.464 67.459 250.627 67.6875 245.954 68.1445C240.634 68.6367 235.857 70.4297 235.857 76.459C235.857 81.8027 239.654 84.5098 244.782 84.5098ZM246.917 79.3418C244.624 79.3418 242.979 78.2695 242.979 76.2129C242.979 74.1035 244.712 73.0664 247.337 72.6973C248.964 72.4688 251.624 72.082 252.517 71.4844V74.3496C252.517 77.1797 250.189 79.3418 246.917 79.3418Z" fill="#21253F"/>
<path d="M263.463 84H270.918V68.7246C270.918 65.4023 273.333 63.1172 276.623 63.1172C277.656 63.1172 279.073 63.293 279.773 63.5215V56.877C279.108 56.7188 278.181 56.6133 277.428 56.6133C274.418 56.6133 271.951 58.3711 270.971 61.7109H270.691V57H263.463V84Z" fill="#21253F"/>
<path d="M288.843 68.3906C288.86 64.9102 290.925 62.8711 293.935 62.8711C296.928 62.8711 298.73 64.8398 298.713 68.1445V84H306.168V66.8086C306.168 60.5156 302.493 56.6484 296.893 56.6484C292.903 56.6484 290.015 58.6172 288.808 61.7637H288.493V57H281.388V84H288.843V68.3906Z" fill="#21253F"/>
<path d="M58.5191 39.1074H45.3381V53.1947C45.3381 55.4041 44.1559 57.4456 42.2368 58.5504L30 65.5942L36.5905 76.9752L52.3162 67.9232C56.1545 65.7138 58.5191 61.6306 58.5191 57.2118V39.1074Z" fill="#4760F3"/>
<path d="M86.1299 76.8677L92.7203 65.4869L80.4838 58.4432C78.5646 57.3385 77.3824 55.297 77.3824 53.0876L77.3823 39.0001L64.2012 39L64.2012 57.1041C64.2012 61.5229 66.5656 65.6061 70.404 67.8155L86.1299 76.8677Z" fill="#24AEFC"/>
<path d="M39.5798 81.6194L46.1703 93.0002L58.4069 85.9566C60.326 84.8519 62.6905 84.8519 64.6096 85.9566L76.8465 93.0003L83.4371 81.6193L67.7114 72.5672C63.8731 70.3578 59.1441 70.3578 55.3057 72.5672L39.5798 81.6194Z" fill="#9347F3"/>
<rect x="77" y="116" width="303" height="208" rx="16" fill="#21253F"/>
<rect x="87" y="126" width="303" height="188" rx="10" fill="white"/>
<rect x="87" y="126" width="303" height="188" rx="10" fill="url(#paint0_linear_4455_22891)"/>
<rect x="97" y="136" width="303" height="16" rx="8" fill="#CFD5F0"/>
<rect x="102" y="141" width="56" height="6" rx="3" fill="white"/>
<rect x="97" y="164" width="90" height="127" rx="8" fill="white"/>
<rect x="107" y="174" width="69" height="10" rx="5" fill="#C643E4"/>
<rect x="107" y="194" width="69" height="4" rx="2" fill="#CFD5F0"/>
<rect x="107" y="204" width="47" height="4" rx="2" fill="#CFD5F0"/>
<rect x="107" y="214" width="59" height="4" rx="2" fill="#CFD5F0"/>
<rect x="107" y="224" width="40" height="4" rx="2" fill="#CFD5F0"/>
<rect x="107" y="234" width="59" height="4" rx="2" fill="#CFD5F0"/>
<rect x="107" y="244" width="69" height="4" rx="2" fill="#CFD5F0"/>
<rect x="107" y="254" width="59" height="4" rx="2" fill="#CFD5F0"/>
<rect x="107" y="264" width="47" height="4" rx="2" fill="#CFD5F0"/>
<rect x="107" y="274" width="47" height="4" rx="2" fill="#CFD5F0"/>
<rect x="295" y="164" width="90" height="127" rx="8" fill="white"/>
<rect x="305" y="174" width="69" height="10" rx="5" fill="#8D44E9"/>
<rect x="305" y="194" width="69" height="4" rx="2" fill="#CFD5F0"/>
<rect x="305" y="204" width="47" height="4" rx="2" fill="#CFD5F0"/>
<rect x="305" y="214" width="59" height="4" rx="2" fill="#CFD5F0"/>
<rect x="305" y="224" width="40" height="4" rx="2" fill="#CFD5F0"/>
<rect x="305" y="234" width="59" height="4" rx="2" fill="#CFD5F0"/>
<rect x="305" y="244" width="69" height="4" rx="2" fill="#CFD5F0"/>
<rect x="305" y="254" width="59" height="4" rx="2" fill="#CFD5F0"/>
<rect x="305" y="264" width="47" height="4" rx="2" fill="#CFD5F0"/>
<rect x="305" y="274" width="47" height="4" rx="2" fill="#CFD5F0"/>
<circle cx="241" cy="205" r="41" fill="white"/>
<rect x="207" y="256" width="69" height="15" rx="7.5" fill="#24AEFC"/>
<rect width="39" height="5" rx="2.5" transform="matrix(1 0 0 -1 222 266)" fill="white"/>
<rect x="207" y="276" width="69" height="15" rx="7.5" fill="#CFD5F0"/>
<rect width="5" height="5" rx="2.5" transform="matrix(1 0 0 -1 231 286)" fill="white"/>
<rect width="5" height="5" rx="2.5" transform="matrix(1 0 0 -1 239 286)" fill="white"/>
<rect width="5" height="5" rx="2.5" transform="matrix(1 0 0 -1 247 286)" fill="white"/>
<path d="M225.595 206.053C228.426 207.419 231.266 208.815 234.051 210.273C235.851 211.215 237.617 212.268 239.466 213.11C241.572 214.07 243.081 213.313 244.892 212.333L247.563 210.864C249.69 209.687 251.895 208.644 254.071 207.561C255.209 206.995 256.336 206.3 257.53 205.859C257.503 206.321 257.527 206.78 257.53 207.242L257.532 218.135C257.535 219.669 257.525 220.501 256.285 221.603C252.531 224.942 248.246 227.047 243.161 227.457C237.211 227.936 231.033 225.944 226.722 221.778C225.183 220.291 225.37 220.346 225.372 218.338L225.375 207.671C225.374 207.379 225.266 206.357 225.425 206.142L225.572 206.108L225.595 206.053Z" fill="url(#paint1_linear_4455_22891)"/>
<mask id="mask0_4455_22891" style="mask-type:alpha" maskUnits="userSpaceOnUse" x="225" y="205" width="33" height="23">
<path d="M225.595 206.055C228.426 207.421 231.266 208.817 234.051 210.275C235.851 211.217 237.617 212.27 239.466 213.112C241.572 214.072 243.081 213.315 244.892 212.335L247.563 210.866C249.69 209.689 251.895 208.646 254.071 207.563C255.209 206.997 256.337 206.302 257.53 205.861C257.503 206.323 257.527 206.782 257.53 207.244L257.532 218.137C257.535 219.671 257.525 220.502 256.286 221.605C252.531 224.943 248.247 227.049 243.161 227.458C237.211 227.938 231.033 225.946 226.722 221.779C225.183 220.293 225.37 220.348 225.372 218.34L225.376 207.673C225.374 207.381 225.266 206.359 225.425 206.144L225.572 206.11L225.595 206.055Z" fill="url(#paint2_linear_4455_22891)"/>
</mask>
<g mask="url(#mask0_4455_22891)">
<path d="M225.595 210.369C224.655 209.803 223.643 209.341 222.663 208.849L218.33 206.664C217.537 206.267 216.425 205.791 215.711 205.31C214.118 204.234 214.109 201.686 215.821 200.686C216.459 200.314 217.165 200.012 217.827 199.681L238.949 188.955C242.124 187.372 242.801 188.464 245.754 189.941L262.213 198.308C263.576 198.992 265.458 199.803 266.722 200.562C268.969 201.912 268.439 204.551 266.27 205.783C264.629 206.616 262.987 207.451 261.311 208.209C260.646 208.542 257.754 209.915 257.53 210.176C256.337 210.616 255.209 211.311 254.071 211.877C251.895 212.96 249.69 214.003 247.563 215.18L244.892 216.65C243.081 217.63 241.572 218.386 239.466 217.426C237.617 216.584 235.851 215.531 234.051 214.589C231.266 213.131 228.426 211.735 225.595 210.369Z" fill="#1D2D89" fill-opacity="0.12"/>
</g>
<rect x="264" y="202" width="1" height="12" fill="#FFCC00"/>
<path d="M225.595 207.348C224.655 206.782 223.643 206.319 222.663 205.828L218.33 203.642C217.537 203.246 216.425 202.77 215.711 202.288C212.816 200.334 214.109 196.588 215.821 195.588C216.459 195.216 217.165 196.991 217.827 196.66L238.948 185.934C242.124 184.351 242.801 185.442 245.754 186.92L262.212 195.286C263.575 195.971 265.722 194.829 266.987 195.588C269.233 196.938 269.575 201.083 266.269 202.761C264.629 203.594 262.987 204.429 261.311 205.187C260.645 205.52 257.754 206.894 257.53 207.154C256.336 207.594 255.209 208.289 254.071 208.856C251.895 209.938 249.69 210.981 247.563 212.158L244.891 213.628C243.081 214.608 241.572 215.365 239.466 214.405C237.617 213.563 235.85 212.51 234.051 211.568C231.266 210.11 228.426 208.714 225.595 207.348Z" fill="#2941CD"/>
<path d="M225.595 205.191C224.655 204.626 223.643 204.163 222.663 203.671L218.33 201.486C217.537 201.089 216.425 200.614 215.711 200.132C214.117 199.056 214.109 196.509 215.821 195.509C216.459 195.136 217.165 194.834 217.827 194.504L238.949 183.777C242.124 182.194 242.801 183.286 245.754 184.764L262.212 193.13C263.575 193.815 265.458 194.625 266.722 195.385C268.969 196.734 268.439 199.374 266.269 200.605C264.629 201.438 262.987 202.273 261.311 203.031C260.645 203.364 257.754 204.737 257.53 204.998C256.336 205.438 255.209 206.133 254.071 206.7C251.895 207.782 249.69 208.825 247.563 210.002L244.892 211.472C243.081 212.452 241.572 213.208 239.466 212.249C237.617 211.407 235.851 210.353 234.051 209.411C231.266 207.953 228.426 206.557 225.595 205.191Z" fill="url(#paint3_linear_4455_22891)"/>
<circle cx="264.5" cy="214.5" r="2.5" fill="url(#paint4_radial_4455_22891)"/>
<rect x="33" y="308" width="143" height="23" rx="6" fill="#4760F3"/>
<rect x="33" y="308" width="143" height="23" rx="6" fill="url(#paint5_linear_4455_22891)" fill-opacity="0.2"/>
<rect x="133" y="308" width="10" height="23" fill="white"/>
<rect x="146" y="308" width="7" height="23" fill="white"/>
<rect x="39" y="284" width="133" height="24" rx="6" fill="#24AEFC"/>
<rect x="39" y="284" width="133" height="24" rx="6" fill="url(#paint6_linear_4455_22891)" fill-opacity="0.2"/>
<rect x="36" y="264" width="133" height="20" rx="6" fill="#9347F3"/>
<rect x="36" y="264" width="133" height="20" rx="6" fill="url(#paint7_linear_4455_22891)" fill-opacity="0.2"/>
<rect x="146" y="290" width="12" height="12" rx="1" fill="white"/>
<path d="M49 270C49 269.448 49.4477 269 50 269H58C58.5523 269 59 269.448 59 270V278C59 278.552 58.5523 279 58 279H50C49.4477 279 49 278.552 49 278V270Z" fill="white"/>
<path d="M62 270C62 269.448 62.4477 269 63 269H66C66.5523 269 67 269.448 67 270V278C67 278.552 66.5523 279 66 279H63C62.4477 279 62 278.552 62 278V270Z" fill="white"/>
</g>
<defs>
<linearGradient id="paint0_linear_4455_22891" x1="285" y1="314" x2="285" y2="126" gradientUnits="userSpaceOnUse">
<stop stop-color="#EDF0FE" stop-opacity="0"/>
<stop offset="1" stop-color="#EDF0FE"/>
</linearGradient>
<linearGradient id="paint1_linear_4455_22891" x1="257.495" y1="211.919" x2="218.666" y2="211.919" gradientUnits="userSpaceOnUse">
<stop stop-color="#4760F3"/>
<stop offset="0.633333" stop-color="#3A7FF6"/>
<stop offset="1" stop-color="#4760F3"/>
</linearGradient>
<linearGradient id="paint2_linear_4455_22891" x1="257.495" y1="211.921" x2="218.666" y2="211.921" gradientUnits="userSpaceOnUse">
<stop stop-color="#4760F3"/>
<stop offset="0.633333" stop-color="#3687F7"/>
<stop offset="1" stop-color="#4760F3"/>
</linearGradient>
<linearGradient id="paint3_linear_4455_22891" x1="240.584" y1="212.559" x2="242.049" y2="183.043" gradientUnits="userSpaceOnUse">
<stop stop-color="#4760F3"/>
<stop offset="1" stop-color="#24AEFC"/>
</linearGradient>
<radialGradient id="paint4_radial_4455_22891" cx="0" cy="0" r="1" gradientUnits="userSpaceOnUse" gradientTransform="translate(264.5 212) rotate(90) scale(4.5)">
<stop stop-color="#FFE683"/>
<stop offset="0.75" stop-color="#FFCC00"/>
<stop offset="1" stop-color="#FFAE00"/>
</radialGradient>
<linearGradient id="paint5_linear_4455_22891" x1="103.962" y1="308" x2="103.962" y2="331" gradientUnits="userSpaceOnUse">
<stop stop-opacity="0"/>
<stop offset="1"/>
</linearGradient>
<linearGradient id="paint6_linear_4455_22891" x1="105" y1="284" x2="105" y2="308" gradientUnits="userSpaceOnUse">
<stop stop-opacity="0"/>
<stop offset="1"/>
</linearGradient>
<linearGradient id="paint7_linear_4455_22891" x1="102" y1="264" x2="102" y2="284" gradientUnits="userSpaceOnUse">
<stop stop-opacity="0"/>
<stop offset="1"/>
</linearGradient>
<clipPath id="clip0_4455_22891">
<rect width="360" height="360" rx="8" fill="white"/>
</clipPath>
</defs>
</svg>
