<svg width="360" height="360" viewBox="0 0 360 360" fill="none" xmlns="http://www.w3.org/2000/svg">
<g clip-path="url(#clip0_4543_23219)">
<rect width="360" height="360" rx="8" fill="#ECDCC3"/>
<path fill-rule="evenodd" clip-rule="evenodd" d="M144.625 134.864C144.699 133.919 144.737 132.964 144.737 132C144.737 112.118 128.619 96 108.737 96C95.5863 96 84.0826 103.051 77.8003 113.579C76.0608 113.234 74.2621 113.053 72.4211 113.053C59.3086 113.053 48.3417 122.239 45.6045 134.526H42.7368C33.4933 134.526 26 142.02 26 151.263C26 160.507 33.4933 168 42.7368 168H72.4211H108.737H141.263C150.507 168 158 160.507 158 151.263C158 143.171 152.257 136.42 144.625 134.864Z" fill="white"/>
<path fill-rule="evenodd" clip-rule="evenodd" d="M239.546 208.83C239.498 208.226 239.474 207.616 239.474 207C239.474 194.297 249.771 184 262.474 184C270.876 184 278.225 188.505 282.239 195.231C283.35 195.01 284.499 194.895 285.676 194.895C294.053 194.895 301.06 200.764 302.808 208.614H304.641C310.546 208.614 315.333 213.401 315.333 219.307C315.333 225.213 310.546 230 304.641 230L285.676 230L262.483 230C262.48 230 262.477 230 262.474 230C262.471 230 262.468 230 262.465 230H241.693C235.788 230 231 225.213 231 219.307C231 214.137 234.669 209.824 239.546 208.83Z" fill="white"/>
<path fill-rule="evenodd" clip-rule="evenodd" d="M103.387 234.654C103.357 234.273 103.342 233.888 103.342 233.5C103.342 225.492 109.834 219 117.842 219C123.139 219 127.772 221.84 130.303 226.08C131.003 225.941 131.728 225.868 132.469 225.868C137.751 225.868 142.168 229.568 143.27 234.518H144.426C148.149 234.518 151.167 237.536 151.167 241.259C151.167 244.982 148.149 248 144.426 248H104.741C101.018 248 98.0001 244.982 98.0001 241.259C98.0001 237.999 100.313 235.28 103.387 234.654Z" fill="white"/>
<path d="M59.5708 59.7602H51.0499C48.3989 55.91 46.0004 51.9651 43.8544 47.9255C43.3495 46.9998 42.8866 46.316 42.4658 45.8742C42.0661 45.4113 41.5085 45.1799 40.7932 45.1799C40.5407 45.1799 40.141 45.2009 39.5939 45.243V52.975C39.5939 55.0579 39.7097 56.3939 39.9411 56.983C40.1936 57.551 40.6354 57.9613 41.2666 58.2138C41.8977 58.4662 42.9602 58.5925 44.454 58.5925V59.7602H30V58.5925C31.8725 58.5925 33.0717 58.2558 33.5977 57.5826C34.1237 56.8883 34.3867 55.3524 34.3867 52.975V37.6373C34.3867 35.3861 34.271 34.0606 34.0396 33.6608C33.8081 33.2401 33.4505 32.8719 32.9665 32.5563C32.4826 32.2197 31.4938 32.0513 30 32.0513V30.8521H44.454V32.0513C42.7078 32.0513 41.6242 32.1776 41.2035 32.43C40.8037 32.6825 40.4355 32.9981 40.0989 33.3768C39.7623 33.7345 39.5939 35.1546 39.5939 37.6373V43.3179C40.0778 43.36 40.404 43.381 40.5723 43.381C41.8557 43.381 43.0549 43.0234 44.17 42.308C45.3061 41.5716 46.316 40.0252 47.1997 37.6688C48.0202 35.4387 48.6935 33.9344 49.2194 33.1559C49.7665 32.3774 50.5134 31.7463 51.4601 31.2624C52.4279 30.7574 53.4378 30.5049 54.4898 30.5049C55.6259 30.5049 56.5306 30.7785 57.2039 31.3255C57.8771 31.8725 58.2138 32.5878 58.2138 33.4715C58.2138 34.2079 57.9718 34.839 57.4879 35.365C57.004 35.87 56.3307 36.1224 55.4681 36.1224C55.0053 36.1224 54.4267 35.9962 53.7324 35.7437C52.8487 35.4282 52.1755 35.2704 51.7126 35.2704C50.7448 35.2704 49.9453 36.1014 49.3141 37.7635C48.5988 39.6781 48.0728 40.9194 47.7362 41.4875C47.3995 42.0345 46.7578 42.7709 45.8111 43.6966C46.4633 43.886 47.1681 44.3699 47.9255 45.1483C48.704 45.9268 50.1347 48.1464 52.2175 51.8073C53.8797 54.7317 55.121 56.5832 55.9415 57.3617C56.7831 58.1401 57.9928 58.5504 59.5708 58.5925V59.7602Z" fill="#6C3A21"/>
<path d="M76.1393 30C80.5155 30 84.029 31.6621 86.68 34.9863C88.9312 37.8266 90.0568 41.0877 90.0568 44.7696C90.0568 47.3575 89.4361 49.9769 88.1948 52.6278C86.9535 55.2788 85.2388 57.2775 83.0507 58.624C80.8837 59.9705 78.4641 60.6438 75.7921 60.6438C71.437 60.6438 67.976 58.9081 65.4092 55.4366C63.2422 52.5121 62.1586 49.23 62.1586 45.5902C62.1586 42.9392 62.8109 40.3093 64.1153 37.7004C65.4408 35.0705 67.1765 33.1349 69.3225 31.8935C71.4685 30.6312 73.7408 30 76.1393 30ZM75.1609 32.0513C74.0459 32.0513 72.9203 32.388 71.7841 33.0612C70.6691 33.7134 69.7644 34.8706 69.0701 36.5327C68.3758 38.1948 68.0286 40.3303 68.0286 42.9392C68.0286 47.1471 68.8597 50.7764 70.5218 53.8271C72.2049 56.8778 74.4141 58.4031 77.1492 58.4031C79.19 58.4031 80.8731 57.5615 82.1986 55.8784C83.5241 54.1952 84.1868 51.3023 84.1868 47.1997C84.1868 42.0661 83.0823 38.0265 80.8731 35.081C79.3793 33.0612 77.4753 32.0513 75.1609 32.0513Z" fill="#6C3A21"/>
<path d="M92.2344 33.724L101.134 30.1262H102.333V36.8799C103.827 34.3341 105.321 32.5563 106.815 31.5464C108.329 30.5155 109.918 30 111.58 30C114.483 30 116.903 31.1361 118.839 33.4084C121.216 36.1856 122.405 39.8043 122.405 44.2647C122.405 49.251 120.974 53.3747 118.113 56.6358C115.756 59.3078 112.79 60.6438 109.213 60.6438C107.656 60.6438 106.31 60.4229 105.174 59.9811C104.332 59.6655 103.385 59.0343 102.333 58.0875V66.8925C102.333 68.8702 102.449 70.122 102.68 70.648C102.933 71.195 103.354 71.6263 103.943 71.9419C104.553 72.2575 105.647 72.4153 107.225 72.4153V73.583H92.0766V72.4153H92.8656C94.0227 72.4364 95.0116 72.2154 95.8321 71.7526C96.2318 71.5211 96.5369 71.1424 96.7473 70.6165C96.9788 70.1115 97.0945 68.8071 97.0945 66.7031V39.373C97.0945 37.5005 97.0103 36.3118 96.842 35.8069C96.6737 35.3019 96.4002 34.9232 96.0215 34.6707C95.6638 34.4183 95.1694 34.292 94.5382 34.292C94.0332 34.292 93.3915 34.4393 92.6131 34.7339L92.2344 33.724ZM102.333 38.7418V49.535C102.333 51.8704 102.428 53.4063 102.617 54.1426C102.912 55.3629 103.627 56.4359 104.763 57.3617C105.92 58.2874 107.372 58.7503 109.118 58.7503C111.222 58.7503 112.927 57.9297 114.231 56.2887C115.935 54.1426 116.787 51.1235 116.787 47.2312C116.787 42.813 115.819 39.4151 113.884 37.0377C112.537 35.3966 110.938 34.5761 109.087 34.5761C108.077 34.5761 107.078 34.8285 106.089 35.3335C105.331 35.7122 104.08 36.8483 102.333 38.7418Z" fill="#6C3A21"/>
<path d="M140.772 30C145.148 30 148.662 31.6621 151.313 34.9863C153.564 37.8266 154.69 41.0877 154.69 44.7696C154.69 47.3575 154.069 49.9769 152.828 52.6278C151.586 55.2788 149.872 57.2775 147.684 58.624C145.517 59.9705 143.097 60.6438 140.425 60.6438C136.07 60.6438 132.609 58.9081 130.042 55.4366C127.875 52.5121 126.791 49.23 126.791 45.5902C126.791 42.9392 127.444 40.3093 128.748 37.7004C130.074 35.0705 131.809 33.1349 133.955 31.8935C136.101 30.6312 138.374 30 140.772 30ZM139.794 32.0513C138.679 32.0513 137.553 32.388 136.417 33.0612C135.302 33.7134 134.397 34.8706 133.703 36.5327C133.009 38.1948 132.661 40.3303 132.661 42.9392C132.661 47.1471 133.493 50.7764 135.155 53.8271C136.838 56.8778 139.047 58.4031 141.782 58.4031C143.823 58.4031 145.506 57.5615 146.831 55.8784C148.157 54.1952 148.82 51.3023 148.82 47.1997C148.82 42.0661 147.715 38.0265 145.506 35.081C144.012 33.0612 142.108 32.0513 139.794 32.0513Z" fill="#6C3A21"/>
<path d="M178.39 43.8228V37.6373C178.39 35.6385 178.285 34.3551 178.075 33.7871C177.886 33.198 177.475 32.7667 176.844 32.4932C176.234 32.1986 175.298 32.0513 174.035 32.0513V30.8521H188.016V32.0513C186.585 32.0513 185.628 32.1986 185.144 32.4932C184.681 32.7667 184.313 33.1138 184.04 33.5346C183.766 33.9554 183.629 35.323 183.629 37.6373V52.975C183.629 54.9737 183.724 56.2676 183.913 56.8567C184.124 57.4248 184.534 57.8561 185.144 58.1506C185.775 58.4452 186.733 58.5925 188.016 58.5925V59.7602H173.341V58.5925C175.024 58.5294 176.118 58.4242 176.623 58.2769C177.149 58.1086 177.57 57.6983 177.886 57.0461C178.222 56.3939 178.39 55.0368 178.39 52.975V45.9057C175.298 47.4837 172.037 48.2727 168.607 48.2727C166.735 48.2727 165.283 48.0412 164.252 47.5784C163.221 47.0945 162.569 46.5474 162.295 45.9373C162.022 45.3061 161.885 44.2962 161.885 42.9076V37.6373C161.885 35.7648 161.801 34.534 161.633 33.9449C161.464 33.3558 161.086 32.8929 160.497 32.5563C159.907 32.2197 159.034 32.0513 157.877 32.0513V30.8521H171.479V32.0513C170.069 32.0513 169.123 32.1986 168.639 32.4932C168.155 32.7667 167.776 33.1138 167.503 33.5346C167.229 33.9554 167.092 35.323 167.092 37.6373V41.2035C167.092 42.592 167.187 43.5283 167.376 44.0122C167.587 44.4961 168.05 44.9064 168.765 45.243C169.501 45.5586 170.532 45.7164 171.858 45.7164C174.151 45.7164 176.329 45.0852 178.39 43.8228Z" fill="#6C3A21"/>
<path d="M220.459 59.7602H211.938C209.287 55.91 206.888 51.9651 204.742 47.9255C204.237 46.9998 203.774 46.316 203.354 45.8742C202.954 45.4113 202.396 45.1799 201.681 45.1799C201.429 45.1799 201.029 45.2009 200.482 45.243V52.975C200.482 55.0579 200.598 56.3939 200.829 56.983C201.081 57.551 201.523 57.9613 202.154 58.2138C202.786 58.4662 203.848 58.5925 205.342 58.5925V59.7602H190.888V58.5925C192.76 58.5925 193.96 58.2558 194.486 57.5826C195.012 56.8883 195.275 55.3524 195.275 52.975V37.6373C195.275 35.3861 195.159 34.0606 194.927 33.6608C194.696 33.2401 194.338 32.8719 193.854 32.5563C193.37 32.2197 192.382 32.0513 190.888 32.0513V30.8521H205.342V32.0513C203.596 32.0513 202.512 32.1776 202.091 32.43C201.692 32.6825 201.323 32.9981 200.987 33.3768C200.65 33.7345 200.482 35.1546 200.482 37.6373V43.3179C200.966 43.36 201.292 43.381 201.46 43.381C202.744 43.381 203.943 43.0234 205.058 42.308C206.194 41.5716 207.204 40.0252 208.088 37.6688C208.908 35.4387 209.581 33.9344 210.107 33.1559C210.654 32.3774 211.401 31.7463 212.348 31.2624C213.316 30.7574 214.326 30.5049 215.378 30.5049C216.514 30.5049 217.418 30.7785 218.092 31.3255C218.765 31.8725 219.102 32.5878 219.102 33.4715C219.102 34.2079 218.86 34.839 218.376 35.365C217.892 35.87 217.219 36.1224 216.356 36.1224C215.893 36.1224 215.315 35.9962 214.62 35.7437C213.737 35.4282 213.063 35.2704 212.6 35.2704C211.633 35.2704 210.833 36.1014 210.202 37.7635C209.487 39.6781 208.961 40.9194 208.624 41.4875C208.287 42.0345 207.646 42.7709 206.699 43.6966C207.351 43.886 208.056 44.3699 208.813 45.1483C209.592 45.9268 211.023 48.1464 213.105 51.8073C214.768 54.7317 216.009 56.5832 216.829 57.3617C217.671 58.1401 218.881 58.5504 220.459 58.5925V59.7602Z" fill="#6C3A21"/>
<path d="M239.268 55.5944C236.301 57.8876 234.439 59.2131 233.682 59.5708C232.546 60.0968 231.336 60.3598 230.053 60.3598C228.054 60.3598 226.402 59.676 225.098 58.3084C223.814 56.9409 223.173 55.142 223.173 52.9118C223.173 51.5022 223.488 50.2819 224.12 49.251C224.982 47.8203 226.476 46.4738 228.601 45.2114C230.747 43.9491 234.303 42.4132 239.268 40.6038V39.4677C239.268 36.5853 238.805 34.6076 237.879 33.5346C236.975 32.4616 235.649 31.9251 233.903 31.9251C232.577 31.9251 231.525 32.2828 230.747 32.9981C229.947 33.7134 229.548 34.534 229.548 35.4597L229.611 37.2901C229.611 38.2579 229.358 39.0048 228.853 39.5308C228.369 40.0568 227.728 40.3198 226.928 40.3198C226.15 40.3198 225.508 40.0463 225.003 39.4993C224.519 38.9522 224.277 38.2053 224.277 37.2586C224.277 35.4492 225.203 33.7871 227.054 32.2722C228.906 30.7574 231.504 30 234.85 30C237.416 30 239.52 30.4313 241.161 31.2939C242.403 31.9461 243.318 32.9665 243.907 34.3551C244.286 35.2598 244.475 37.1113 244.475 39.9095V49.7244C244.475 52.4805 244.528 54.1742 244.633 54.8054C244.738 55.4155 244.906 55.8258 245.138 56.0362C245.39 56.2466 245.674 56.3518 245.99 56.3518C246.327 56.3518 246.621 56.2781 246.874 56.1309C247.315 55.8574 248.167 55.0894 249.43 53.8271V55.5944C247.073 58.7503 244.822 60.3282 242.676 60.3282C241.645 60.3282 240.825 59.9705 240.215 59.2552C239.604 58.5399 239.289 57.3196 239.268 55.5944ZM239.268 53.543V42.5289C236.091 43.7913 234.04 44.6855 233.114 45.2114C231.452 46.1372 230.263 47.105 229.548 48.1149C228.832 49.1248 228.475 50.2293 228.475 51.4286C228.475 52.9434 228.927 54.2058 229.832 55.2157C230.736 56.2045 231.778 56.6989 232.956 56.6989C234.555 56.6989 236.659 55.647 239.268 53.543Z" fill="#6C3A21"/>
<path d="M257.667 53.6377C258.656 53.6377 259.487 53.9849 260.16 54.6791C260.833 55.3524 261.17 56.1729 261.17 57.1408C261.17 58.1086 260.823 58.9396 260.128 59.6339C259.455 60.3072 258.635 60.6438 257.667 60.6438C256.699 60.6438 255.868 60.3072 255.174 59.6339C254.5 58.9396 254.164 58.1086 254.164 57.1408C254.164 56.1519 254.5 55.3209 255.174 54.6476C255.868 53.9743 256.699 53.6377 257.667 53.6377Z" fill="#6C3A21"/>
<path d="M265.683 33.724L274.582 30.1262H275.782V36.8799C277.275 34.3341 278.769 32.5563 280.263 31.5464C281.778 30.5155 283.366 30 285.028 30C287.932 30 290.351 31.1361 292.287 33.4084C294.664 36.1856 295.853 39.8043 295.853 44.2647C295.853 49.251 294.422 53.3747 291.561 56.6358C289.205 59.3078 286.238 60.6438 282.661 60.6438C281.105 60.6438 279.758 60.4229 278.622 59.9811C277.78 59.6655 276.834 59.0343 275.782 58.0875V66.8925C275.782 68.8702 275.897 70.122 276.129 70.648C276.381 71.195 276.802 71.6263 277.391 71.9419C278.001 72.2575 279.095 72.4153 280.673 72.4153V73.583H265.525V72.4153H266.314C267.471 72.4364 268.46 72.2154 269.28 71.7526C269.68 71.5211 269.985 71.1424 270.196 70.6165C270.427 70.1115 270.543 68.8071 270.543 66.7031V39.373C270.543 37.5005 270.459 36.3118 270.29 35.8069C270.122 35.3019 269.849 34.9232 269.47 34.6707C269.112 34.4183 268.618 34.292 267.987 34.292C267.482 34.292 266.84 34.4393 266.061 34.7339L265.683 33.724ZM275.782 38.7418V49.535C275.782 51.8704 275.876 53.4063 276.066 54.1426C276.36 55.3629 277.076 56.4359 278.212 57.3617C279.369 58.2874 280.821 58.7503 282.567 58.7503C284.671 58.7503 286.375 57.9297 287.679 56.2887C289.384 54.1426 290.236 51.1235 290.236 47.2312C290.236 42.813 289.268 39.4151 287.332 37.0377C285.986 35.3966 284.387 34.5761 282.535 34.5761C281.525 34.5761 280.526 34.8285 279.537 35.3335C278.78 35.7122 277.528 36.8483 275.782 38.7418Z" fill="#6C3A21"/>
<path d="M298.441 30.8521H311.917V32.0198H311.254C310.307 32.0198 309.592 32.2302 309.108 32.651C308.645 33.0507 308.414 33.5556 308.414 34.1658C308.414 34.9863 308.761 36.1224 309.455 37.5742L316.493 52.1544L322.962 36.1856C323.32 35.323 323.499 34.4709 323.499 33.6293C323.499 33.2506 323.425 32.9665 323.278 32.7772C323.11 32.5458 322.847 32.3669 322.489 32.2407C322.131 32.0934 321.5 32.0198 320.595 32.0198V30.8521H330V32.0198C329.222 32.1039 328.622 32.2722 328.201 32.5247C327.78 32.7772 327.317 33.2506 326.813 33.9449C326.623 34.2394 326.266 35.0494 325.74 36.3749L313.968 65.2199C312.832 68.0181 311.338 70.1325 309.487 71.5632C307.656 72.9939 305.889 73.7092 304.185 73.7092C302.943 73.7092 301.923 73.3516 301.124 72.6362C300.324 71.9209 299.924 71.1004 299.924 70.1746C299.924 69.291 300.208 68.5756 300.776 68.0286C301.365 67.5026 302.165 67.2396 303.175 67.2396C303.869 67.2396 304.816 67.4711 306.015 67.9339C306.857 68.2495 307.383 68.4073 307.593 68.4073C308.224 68.4073 308.908 68.0812 309.644 67.429C310.402 66.7768 311.159 65.5144 311.917 63.6419L313.968 58.624L303.585 36.8167C303.27 36.1645 302.765 35.3545 302.07 34.3867C301.544 33.6503 301.113 33.1559 300.776 32.9034C300.292 32.5668 299.514 32.2722 298.441 32.0198V30.8521Z" fill="#6C3A21"/>
<path d="M36.6979 280.59C14.6179 284.103 -19.3385 282.054 -33.5566 280.59V424.236H394.871V269.299C274.434 223.508 261.889 284.981 260.634 299.408C259.38 313.836 263.143 346.454 236.798 341.436C210.452 336.417 191.634 335.79 173.443 346.454C155.252 357.117 165.916 367.781 153.371 367.154C140.825 366.527 138.316 348.963 123.262 311.327C108.207 273.69 64.2979 276.199 36.6979 280.59Z" fill="#DAC6A7"/>
<path d="M177.207 242.955L177.521 234.8L185.362 234.486V240.445L184.734 244.209L180.343 247.973L177.207 242.955Z" fill="#FDAA98"/>
<mask id="mask0_4543_23219" style="mask-type:alpha" maskUnits="userSpaceOnUse" x="177" y="234" width="9" height="14">
<path d="M177.207 242.955L177.521 234.8L185.362 234.486V240.445L184.734 244.209L180.343 247.973L177.207 242.955Z" fill="#FDAA98"/>
</mask>
<g mask="url(#mask0_4543_23219)">
<path d="M188.498 241.701C181.472 240.195 178.462 235.428 177.834 233.232H187.871L188.498 241.701Z" fill="#F28E78"/>
</g>
<path d="M165.916 230.722C167.422 229.969 168.634 227.899 169.052 226.958C165.54 225.704 157.762 226.436 154.312 226.958C153.81 227.962 154.102 229.467 154.312 230.095L161.525 232.604C162.362 232.29 164.411 231.475 165.916 230.722Z" fill="#FDA99A"/>
<path d="M125.457 184.617L149.293 271.808" stroke="#635D65" stroke-width="1.25455"/>
<path d="M233.034 184.617L209.198 271.808" stroke="#635D65" stroke-width="1.25455"/>
<path d="M124.202 182.82V151.06L233.661 146.982V183.024C233.661 184.882 233.109 186.7 231.754 187.97C227.126 192.309 213.105 201.869 179.402 201.869C145.9 201.869 131.291 192.423 126.321 188.048C124.832 186.737 124.202 184.805 124.202 182.82Z" fill="#303048"/>
<mask id="mask1_4543_23219" style="mask-type:alpha" maskUnits="userSpaceOnUse" x="124" y="146" width="110" height="56">
<path d="M124.202 182.82V151.06L233.661 146.982V183.024C233.661 184.882 233.109 186.7 231.754 187.97C227.126 192.309 213.105 201.869 179.402 201.869C145.9 201.869 131.291 192.423 126.321 188.048C124.832 186.737 124.202 184.805 124.202 182.82Z" fill="#D9D9D9"/>
</mask>
<g mask="url(#mask1_4543_23219)">
<path d="M203.866 205.632L104.443 139.455H256.871V205.632H203.866Z" fill="#27273F"/>
</g>
<path fill-rule="evenodd" clip-rule="evenodd" d="M177.599 177.215L84.0651 134.832C82.9613 134.332 82.4774 133.232 82.6142 132.206V128.791H87.0051V128.92L177.588 87.5915C178.741 87.0655 180.065 87.0632 181.219 87.5851L272.678 128.925V128.791H277.069V132.104C277.253 133.161 276.771 134.321 275.625 134.836L181.209 177.221C180.06 177.737 178.745 177.734 177.599 177.215Z" fill="#0E0F21"/>
<path d="M177.599 173.451L84.0652 131.068C82.1033 130.179 82.0997 127.394 84.0593 126.5L177.588 83.8277C178.741 83.3017 180.065 83.2994 181.219 83.8213L275.631 126.497C277.602 127.387 277.598 130.187 275.626 131.072L181.209 173.457C180.06 173.973 178.746 173.971 177.599 173.451Z" fill="#303048"/>
<path d="M244.952 210.022C244.952 197.226 248.925 189.427 250.911 187.127H254.048C259.693 196.222 259.798 206.259 259.693 210.022H244.952Z" fill="#F4AC00"/>
<path d="M180.03 125.342C197.593 133.183 234.54 149.805 241.816 153.569C250.912 158.274 252.48 162.037 252.48 170.192C252.48 176.715 252.48 181.274 252.48 182.737" stroke="#F4AC00" stroke-width="2.50909" stroke-linecap="round"/>
<circle cx="252.48" cy="182.737" r="5.64545" fill="#FFC634"/>
<g filter="url(#filter0_d_4543_23219)">
<ellipse cx="180.343" cy="125.028" rx="6.9" ry="4.39091" fill="#FFC634"/>
</g>
<path d="M147.098 281.219H212.334L207.062 318.127C206.488 322.144 203.047 325.128 198.989 325.128H160.443C156.385 325.128 152.944 322.144 152.37 318.127L147.098 281.219Z" fill="#6E6F83"/>
<rect x="142.08" y="269.928" width="75.2727" height="11.9182" rx="5.95909" fill="#2D2C3A"/>
<mask id="mask2_4543_23219" style="mask-type:alpha" maskUnits="userSpaceOnUse" x="147" y="281" width="66" height="45">
<path d="M147.098 281.219H212.334L207.062 318.127C206.488 322.144 203.047 325.128 198.989 325.128H160.443C156.385 325.128 152.944 322.144 152.37 318.127L147.098 281.219Z" fill="#D9D9D9"/>
</mask>
<g mask="url(#mask2_4543_23219)">
<path d="M198.221 283.415H143.962L140.198 277.77H218.607V331.401H137.062C192.262 318.103 200.834 293.87 198.221 283.415Z" fill="#45455D"/>
</g>
<path d="M181.284 245.149L177.207 240.131C176.266 241.072 173.757 242.013 172.502 242.013C173.506 248.787 178.148 254.663 180.657 256.754C187.432 253.743 188.289 245.044 187.871 241.072L185.362 240.131L181.284 245.149Z" fill="white"/>
<path d="M183.793 247.346L181.284 245.15L178.462 247.346L179.402 248.287L177.834 258.323H184.107L182.539 248.287L183.793 247.346Z" fill="#FFC634"/>
<path d="M164.034 234.173C161.776 232.417 154.939 230.305 151.802 229.469C150.652 231.455 148.102 236.494 147.098 240.76C145.843 246.091 148.352 250.169 151.802 252.051C154.562 253.556 161.107 255.187 164.034 255.814C164.034 258.825 162.152 266.687 161.212 270.241H196.966V264.91C197.468 266.415 198.43 269.091 198.848 270.241H209.198C208.571 266.791 206.375 258.951 203.239 252.991C200.102 247.032 197.593 244.523 194.771 243.269C192.512 242.265 188.812 241.178 187.243 240.76C188.247 246.029 183.271 251.528 180.657 253.619C175.639 250.106 174.175 244.21 174.071 241.701C168.049 242.955 162.989 241.596 161.212 240.76C161.462 237.749 163.198 235.114 164.034 234.173Z" fill="#0169A8"/>
<path d="M201.357 268.672C199.852 268.672 199.057 269.717 198.848 270.24C200.73 270.24 200.73 270.867 200.73 271.495C200.73 272.122 200.416 274.317 201.043 275.886C201.357 276.67 202.716 276.304 203.239 275.886C203.741 277.14 205.121 276.826 205.748 276.513C206.375 277.454 207.002 277.14 207.63 276.513C208.257 275.886 209.512 272.749 208.884 270.867C208.382 269.362 207.002 269.404 206.375 269.613C205.372 268.358 203.866 269.09 203.239 269.613C203.239 269.299 202.862 268.672 201.357 268.672Z" fill="#FDA99A"/>
<path d="M175.325 211.592C169.303 211.592 169.471 217.655 170.307 220.687L182.852 238.251H196.966C200.416 238.251 201.984 236.996 199.475 233.546C197.468 230.786 194.875 229.26 193.83 228.842L195.398 222.883C196.652 215.042 190.38 211.592 186.93 211.592H175.325Z" fill="#1F1F3B"/>
<path d="M184.421 221.941H170.934V226.019C170.934 229.469 172.189 236.682 181.912 236.682C189.69 236.682 191.425 232.082 191.321 229.782C192.366 229.678 194.708 229.092 195.712 227.587C196.966 225.705 196.339 223.51 194.771 222.882C193.516 222.381 191.948 222.673 191.321 222.882C191.425 223.928 191.446 226.019 190.693 226.019C189.753 226.019 189.753 225.391 189.439 223.51C189.125 221.628 186.93 221.941 184.421 221.941Z" fill="#FDAA98"/>
<path d="M185.989 226.332C185.361 226.332 184.734 225.704 184.734 224.45C184.589 223.509 185.361 223.195 185.989 223.195C186.616 223.195 186.93 223.823 186.93 224.45C186.93 225.077 186.616 226.332 185.989 226.332Z" fill="#1F1F3B"/>
<path d="M183.166 229.469L180.657 230.096C179.716 230.331 179.402 231.351 180.657 231.351C181.912 231.351 182.539 231.037 184.107 230.096C185.675 229.155 184.421 229.155 183.166 229.469Z" fill="white"/>
<path d="M177.207 221.314L151.802 217.236V229.155L177.207 226.332C179.716 225.077 178.775 221.941 177.207 221.314Z" fill="#603A3E"/>
<circle cx="151.802" cy="223.195" r="5.33182" fill="white" stroke="#FFC634" stroke-width="1.25455"/>
<path d="M63.0432 417.964L103.917 278.709L146.216 417.964H63.0432Z" fill="#C2AA85"/>
<path d="M104.867 310.076V410.121" stroke="white" stroke-width="0.950543"/>
<line x1="97.5757" y1="323.502" x2="105.18" y2="330.155" stroke="white" stroke-width="0.950543"/>
<path d="M110.333 325.285L104.711 330.334" stroke="white" stroke-width="0.950543"/>
<path d="M117.224 337.881L104.711 348.871" stroke="white" stroke-width="0.950543"/>
<path d="M121.502 352.377L104.711 367.407" stroke="white" stroke-width="0.950543"/>
<path d="M95.124 334.791L105.024 343.642" stroke="white" stroke-width="0.950543"/>
<path d="M205.434 428.001L246.308 288.746L288.607 428.001H205.434Z" fill="#C2AA85"/>
<path d="M247.258 320.113V420.158" stroke="white" stroke-width="0.950543"/>
<line x1="239.967" y1="333.539" x2="247.571" y2="340.193" stroke="white" stroke-width="0.950543"/>
<path d="M252.724 335.322L247.102 340.371" stroke="white" stroke-width="0.950543"/>
<path d="M259.615 347.918L247.102 358.908" stroke="white" stroke-width="0.950543"/>
<path d="M237.515 344.828L247.415 353.679" stroke="white" stroke-width="0.950543"/>
<path d="M335.025 399.772L294.152 260.518L251.852 399.772H335.025Z" fill="#604D2F"/>
<path d="M293.201 291.885V391.929" stroke="white" stroke-width="0.950543"/>
<line y1="-0.475271" x2="10.1044" y2="-0.475271" transform="matrix(-0.752577 0.658505 0.658505 0.752577 300.805 305.668)" stroke="white" stroke-width="0.950543"/>
<path d="M287.736 307.094L293.358 312.143" stroke="white" stroke-width="0.950543"/>
<path d="M280.844 319.689L293.357 330.679" stroke="white" stroke-width="0.950543"/>
<path d="M276.567 334.186L293.358 349.215" stroke="white" stroke-width="0.950543"/>
<path d="M302.944 316.6L293.045 325.451" stroke="white" stroke-width="0.950543"/>
<path d="M305.46 350.582L293.044 362.047" stroke="white" stroke-width="0.950543"/>
<path d="M121.38 428L67.4342 244.209L11.6069 428H121.38Z" fill="#604D2F"/>
<path d="M66.1797 285.609V417.65" stroke="white" stroke-width="1.25455"/>
<line y1="-0.627273" x2="13.336" y2="-0.627273" transform="matrix(-0.752577 0.658505 0.658505 0.752577 76.2161 303.801)" stroke="white" stroke-width="1.25455"/>
<path d="M58.9661 305.682L66.3864 312.346" stroke="white" stroke-width="1.25455"/>
<path d="M49.8706 322.305L66.386 336.81" stroke="white" stroke-width="1.25455"/>
<path d="M44.2251 341.436L66.3863 361.272" stroke="white" stroke-width="1.25455"/>
<path d="M79.0388 318.227L65.9732 329.909" stroke="white" stroke-width="1.25455"/>
<path d="M-51.1204 428L2.82509 244.209L58.6524 428H-51.1204Z" fill="#B19974"/>
<path d="M4.07959 285.609V417.65" stroke="white" stroke-width="1.25455"/>
<line x1="-5.54373" y1="303.329" x2="4.49264" y2="312.111" stroke="white" stroke-width="1.25455"/>
<path d="M11.2932 305.682L3.87293 312.346" stroke="white" stroke-width="1.25455"/>
<path d="M20.3887 322.305L3.87324 336.81" stroke="white" stroke-width="1.25455"/>
<path d="M26.0342 341.436L3.87298 361.272" stroke="white" stroke-width="1.25455"/>
<path d="M-8.77954 318.227L4.28608 329.909" stroke="white" stroke-width="1.25455"/>
<path d="M315.207 416.083L356.08 276.828L398.38 416.083H315.207Z" fill="#B19974"/>
<path d="M357.031 308.195V408.24" stroke="white" stroke-width="0.950543"/>
<line x1="349.739" y1="321.621" x2="357.344" y2="328.275" stroke="white" stroke-width="0.950543"/>
<path d="M362.496 323.404L356.874 328.453" stroke="white" stroke-width="0.950543"/>
<path d="M369.388 336L356.875 346.99" stroke="white" stroke-width="0.950543"/>
<path d="M373.665 350.496L356.874 365.526" stroke="white" stroke-width="0.950543"/>
<path d="M347.288 332.91L357.187 341.761" stroke="white" stroke-width="0.950543"/>
</g>
<defs>
<filter id="filter0_d_4543_23219" x="173.443" y="120.637" width="13.8" height="10.0358" filterUnits="userSpaceOnUse" color-interpolation-filters="sRGB">
<feFlood flood-opacity="0" result="BackgroundImageFix"/>
<feColorMatrix in="SourceAlpha" type="matrix" values="0 0 0 0 0 0 0 0 0 0 0 0 0 0 0 0 0 0 127 0" result="hardAlpha"/>
<feOffset dy="1.25455"/>
<feComposite in2="hardAlpha" operator="out"/>
<feColorMatrix type="matrix" values="0 0 0 0 0.693783 0 0 0 0 0.383745 0 0 0 0 0.00481041 0 0 0 1 0"/>
<feBlend mode="normal" in2="BackgroundImageFix" result="effect1_dropShadow_4543_23219"/>
<feBlend mode="normal" in="SourceGraphic" in2="effect1_dropShadow_4543_23219" result="shape"/>
</filter>
<clipPath id="clip0_4543_23219">
<rect width="360" height="360" rx="8" fill="white"/>
</clipPath>
</defs>
</svg>
