<svg width="360" height="360" viewBox="0 0 360 360" fill="none" xmlns="http://www.w3.org/2000/svg">
<g clip-path="url(#clip0_4632_23411)">
<rect width="360" height="360" rx="8" fill="#2F475D"/>
<path fill-rule="evenodd" clip-rule="evenodd" d="M100 65C100 84.33 84.33 100 65 100C45.67 100 30 84.33 30 65C30 45.67 45.67 30 65 30C84.33 30 100 45.67 100 65ZM59.6148 73.4202L59.1075 79.0004H42.3668L42.7818 70.192L42.3668 49.2546H49.9762L49.5611 69.4541L49.6995 72.8668H59.1536L59.6148 73.4202ZM87.258 69.4541L87.5347 79.0004H80.0636L80.4326 70.192L80.3865 67.1943L74.3912 67.1482L69.0876 67.2866L69.0415 69.4541L69.3182 79.0004H61.8472L62.2161 70.192L61.8472 49.2546H69.4105L69.1799 61.1068L74.8523 61.199L80.2942 61.1068L80.0636 49.2546H87.673L87.258 69.4541ZM127.857 57.8787L128.087 70.1921L127.764 79.0006H135.051L134.774 69.4542L135.097 57.3253L127.857 57.8787ZM134.221 47.3178C133.606 46.6721 132.73 46.3493 131.592 46.3493C130.393 46.3493 129.44 46.7182 128.733 47.4561C128.056 48.1632 127.718 49.1163 127.718 50.3154C127.718 51.4837 128.026 52.3907 128.641 53.0363C129.256 53.682 130.147 54.0048 131.315 54.0048C132.484 54.0048 133.421 53.6512 134.129 52.9441C134.836 52.2062 135.189 51.2224 135.189 49.9926C135.189 48.855 134.866 47.9634 134.221 47.3178ZM126.039 79.0006L126.547 73.4203L126.085 72.8669H116.631L116.493 69.4542L116.908 49.2547H109.299L109.714 70.1921L109.299 79.0006H126.039ZM145.911 69.4542L146.234 79.0006H138.947L139.316 70.146L139.039 47.1333L146.28 46.626L145.911 69.4542ZM152.921 67.1022C154.489 69.8078 156.764 73.3742 159.746 77.8015L159.7 78.5394C158.101 78.8776 155.826 79.2004 152.875 79.5079L152.137 79.1389C149.677 75.3573 147.617 71.5603 145.957 67.7479V67.2867L150.707 59.8156L151.768 57.4175H159.331L152.921 67.1022ZM165.698 69.5003L177.78 69.4081L178.564 68.4858C178.749 67.5019 178.841 66.5642 178.841 65.6726C178.841 62.9363 178.042 60.7995 176.443 59.2622C174.875 57.725 172.661 56.9563 169.802 56.9563C166.482 56.9563 163.853 57.9709 161.916 60.0001C159.979 61.9985 159.011 64.7502 159.011 68.2552C159.011 71.7601 160.01 74.5118 162.008 76.5102C164.037 78.5087 166.82 79.5079 170.355 79.5079C172.354 79.5079 174.583 79.1236 177.043 78.3549L178.149 73.1436L177.596 72.7747C174.921 73.7278 172.769 74.2043 171.139 74.2043C169.51 74.2043 168.249 73.82 167.358 73.0514C166.466 72.2828 165.913 71.0991 165.698 69.5003ZM169.756 61.7065C171.601 61.7065 172.523 62.7672 172.523 64.8886L172.431 65.5342L165.79 65.7187C166.036 64.4274 166.497 63.4436 167.173 62.7672C167.85 62.06 168.711 61.7065 169.756 61.7065ZM206.425 69.4542L206.702 79.0006H199.231L199.6 70.1921L199.554 67.1945L193.558 67.1483L188.255 67.2867L188.209 69.4542L188.485 79.0006H181.014L181.383 70.1921L181.014 49.2547H188.578L188.347 61.1069L194.02 61.1992L199.461 61.1069L199.231 49.2547H206.84L206.425 69.4542ZM225.354 58.6166C223.94 57.5098 221.957 56.9563 219.405 56.9563C217.868 56.9563 216.3 57.1716 214.701 57.602C213.102 58.0324 211.611 58.632 210.228 59.4006L211.058 64.1507L211.519 64.4735C212.903 63.6127 214.117 62.9824 215.162 62.5827C216.238 62.183 217.238 61.9832 218.16 61.9832C219.082 61.9832 219.743 62.1984 220.143 62.6288C220.574 63.0285 220.789 63.7049 220.789 64.658V65.9954L213.963 67.1483C210.643 67.7018 208.983 69.5618 208.983 72.7286C208.983 74.7885 209.628 76.418 210.92 77.6171C212.242 78.8161 214.04 79.431 216.315 79.4618C217.914 78.8469 219.482 77.7247 221.019 76.0952H221.342C221.619 77.1098 222.08 77.8938 222.726 78.4472C223.371 79.0006 224.155 79.3234 225.078 79.4156C226.553 79.2927 227.799 78.8776 228.813 78.1705L229.459 74.3427L228.952 73.9276C228.552 74.0506 228.214 74.1121 227.937 74.1121C227.599 74.1121 227.353 74.0199 227.199 73.8354C227.076 73.6509 227.015 73.3435 227.015 72.9131C227.015 72.0829 227.091 70.5611 227.245 68.3474C227.276 67.5173 227.322 66.641 227.384 65.7187C227.445 64.7963 227.476 63.9816 227.476 63.2745C227.476 61.2453 226.769 59.6927 225.354 58.6166ZM215.762 70.7455C216.008 70.4688 216.361 70.2843 216.823 70.1921L220.789 69.4081L220.743 72.7286C219.636 73.7739 218.59 74.2966 217.607 74.2966C216.93 74.2966 216.392 74.0967 215.992 73.697C215.624 73.2974 215.439 72.7286 215.439 71.9907C215.439 71.4373 215.547 71.0222 215.762 70.7455ZM240.861 56.9563C242.982 56.9563 244.873 57.3253 246.533 58.0632L245.334 63.7818L244.781 64.0123C243.951 63.6127 243.228 63.3206 242.613 63.1361C242.029 62.9516 241.445 62.8594 240.861 62.8594C239.631 62.8594 238.693 63.2745 238.048 64.1046C237.433 64.9347 237.125 66.1645 237.125 67.794C237.125 71.7909 238.524 73.7893 241.322 73.7893C242.429 73.7893 243.858 73.4665 245.611 72.8208L246.164 73.2359L245.426 78.7239C243.582 79.2465 241.675 79.5079 239.708 79.5079C236.695 79.5079 234.343 78.5548 232.652 76.6486C230.992 74.7116 230.161 72.0061 230.161 68.5319C230.161 64.9039 231.099 62.0754 232.975 60.0462C234.85 57.9863 237.479 56.9563 240.861 56.9563ZM254.971 79.0006L254.648 69.4542L255.017 46.626L247.776 47.1333L248.053 70.146L247.684 79.0006H254.971ZM268.483 77.8015C265.501 73.3742 263.226 69.8078 261.658 67.1022L268.068 57.4175H260.505L259.444 59.8156L254.694 67.2867V67.7479C256.354 71.5603 258.414 75.3573 260.874 79.1389L261.611 79.5079C264.563 79.2004 266.838 78.8776 268.437 78.5394L268.483 77.8015Z" fill="white"/>
<rect x="30" y="142" width="300" height="1" fill="#EBE6DC"/>
<rect x="30" y="146" width="300" height="56" fill="#EBE6DC"/>
<path d="M30 129C30 124.029 34.0294 120 39 120H321C325.971 120 330 124.029 330 129V142H30V129Z" fill="#192836"/>
<circle cx="45" cy="131" r="3" fill="#45627D"/>
<circle cx="56" cy="131" r="3" fill="#45627D"/>
<circle cx="67" cy="131" r="3" fill="#45627D"/>
<rect x="139" y="161" width="82" height="8" rx="4" fill="#192836"/>
<rect x="116" y="177" width="128" height="8" rx="4" fill="#192836"/>
<rect x="131" y="205" width="98" height="56" fill="#192836"/>
<rect x="139" y="213" width="40" height="40" fill="#EBE6DC"/>
<rect x="184" y="213" width="10" height="6" rx="3" fill="#EBE6DC"/>
<rect x="184" y="228" width="33" height="2" rx="1" fill="#EBE6DC"/>
<rect x="184" y="233" width="21" height="2" rx="1" fill="#EBE6DC"/>
<rect x="184" y="238" width="29" height="2" rx="1" fill="#EBE6DC"/>
<rect x="184" y="243" width="37" height="2" rx="1" fill="#EBE6DC"/>
<rect x="184" y="248" width="29" height="2" rx="1" fill="#EBE6DC"/>
<rect x="131" y="264" width="98" height="56" fill="#192836"/>
<rect x="184" y="272" width="18" height="6" rx="3" fill="#EBE6DC"/>
<rect x="184" y="287" width="33" height="2" rx="1" fill="#EBE6DC"/>
<rect x="184" y="292" width="21" height="2" rx="1" fill="#EBE6DC"/>
<rect x="184" y="297" width="29" height="2" rx="1" fill="#EBE6DC"/>
<rect x="184" y="302" width="37" height="2" rx="1" fill="#EBE6DC"/>
<rect x="184" y="307" width="29" height="2" rx="1" fill="#EBE6DC"/>
<rect x="30" y="264" width="98" height="56" fill="#192836"/>
<rect x="40" y="273" width="34" height="6" rx="3" fill="#EBE6DC"/>
<rect x="40" y="288" width="57" height="2" rx="1" fill="#EBE6DC"/>
<rect x="40" y="293" width="36" height="2" rx="1" fill="#EBE6DC"/>
<rect x="40" y="298" width="51" height="2" rx="1" fill="#EBE6DC"/>
<rect x="40" y="303" width="64" height="2" rx="1" fill="#EBE6DC"/>
<rect x="40" y="308" width="51" height="2" rx="1" fill="#EBE6DC"/>
<path d="M107 274H81C78.7909 274 77 275.791 77 278V279" stroke="#EBE6DC" stroke-width="2"/>
<rect opacity="0.6" x="30" y="264" width="98" height="56" fill="#192836"/>
<rect x="232" y="264" width="98" height="56" fill="#192836"/>
<rect x="242" y="273" width="23" height="6" rx="3" fill="#EBE6DC"/>
<rect x="242" y="288" width="57" height="2" rx="1" fill="#EBE6DC"/>
<rect x="242" y="293" width="36" height="2" rx="1" fill="#EBE6DC"/>
<rect x="242" y="298" width="51" height="2" rx="1" fill="#EBE6DC"/>
<rect x="242" y="303" width="64" height="2" rx="1" fill="#EBE6DC"/>
<rect x="242" y="308" width="51" height="2" rx="1" fill="#EBE6DC"/>
<path d="M289.5 274H272C269.791 274 268 275.791 268 278V279" stroke="#EBE6DC" stroke-width="2"/>
<rect x="131" y="323" width="98" height="56" fill="#192836"/>
<rect x="139" y="331" width="40" height="40" fill="#EBE6DC"/>
<path d="M159 346L179 371H139L159 346Z" fill="#192836"/>
<rect x="184" y="331" width="29" height="6" rx="3" fill="#EBE6DC"/>
<rect x="184" y="346" width="33" height="2" rx="1" fill="#EBE6DC"/>
<rect x="184" y="351" width="21" height="2" rx="1" fill="#EBE6DC"/>
<rect x="184" y="356" width="29" height="2" rx="1" fill="#EBE6DC"/>
<rect opacity="0.6" x="131" y="323" width="98" height="56" fill="#192836"/>
<g clip-path="url(#clip1_4632_23411)">
<rect x="30" y="205" width="98" height="56" fill="#192836"/>
<path d="M130 204.5L28 262.5" stroke="#EBE6DC" stroke-width="2"/>
<rect opacity="0.6" x="30" y="205" width="98" height="56" fill="#192836"/>
<circle cx="109" cy="223" r="13" fill="#CD2323"/>
<path d="M105 219L113 227" stroke="white" stroke-width="2" stroke-linecap="round"/>
<path d="M113 219L105 227" stroke="white" stroke-width="2" stroke-linecap="round"/>
</g>
<circle cx="210" cy="223" r="13" fill="#43B45A"/>
<path d="M216 220L209 227.5L205 223.478" stroke="white" stroke-width="2" stroke-linecap="round" stroke-linejoin="round"/>
<circle cx="210" cy="283" r="13" fill="#43B45A"/>
<path d="M216 280L209 287.5L205 283.478" stroke="white" stroke-width="2" stroke-linecap="round" stroke-linejoin="round"/>
<circle cx="311" cy="283" r="13" fill="#43B45A"/>
<path d="M317 280L310 287.5L306 283.478" stroke="white" stroke-width="2" stroke-linecap="round" stroke-linejoin="round"/>
<circle cx="109" cy="283" r="13" fill="#CD2323"/>
<path d="M105 279L113 287" stroke="white" stroke-width="2" stroke-linecap="round"/>
<path d="M113 279L105 287" stroke="white" stroke-width="2" stroke-linecap="round"/>
<circle cx="210" cy="342" r="13" fill="#CD2323"/>
<path d="M206 338L214 346" stroke="white" stroke-width="2" stroke-linecap="round"/>
<path d="M214 338L206 346" stroke="white" stroke-width="2" stroke-linecap="round"/>
<g clip-path="url(#clip2_4632_23411)">
<rect x="232" y="323" width="98" height="56" fill="#192836"/>
<path d="M332 322.5L230 380.5" stroke="#EBE6DC" stroke-width="2"/>
</g>
<circle cx="311" cy="342" r="13" fill="#43B45A"/>
<path d="M317 339L310 346.5L306 342.478" stroke="white" stroke-width="2" stroke-linecap="round" stroke-linejoin="round"/>
<g clip-path="url(#clip3_4632_23411)">
<rect x="232" y="205" width="98" height="56" fill="#192836"/>
<path d="M332 204.5L230 262.5" stroke="#EBE6DC" stroke-width="2"/>
<circle cx="311" cy="223" r="13" fill="#43B45A"/>
<path d="M317 220L310 227.5L306 223.478" stroke="white" stroke-width="2" stroke-linecap="round" stroke-linejoin="round"/>
</g>
<g clip-path="url(#clip4_4632_23411)">
<rect x="30" y="323" width="98" height="56" fill="#192836"/>
<path d="M28 380.5L130 322.5" stroke="#EBE6DC" stroke-width="2"/>
<circle cx="109" cy="342" r="13" fill="#43B45A"/>
<path d="M115 339L108 346.5L104 342.478" stroke="white" stroke-width="2" stroke-linecap="round" stroke-linejoin="round"/>
</g>
<rect x="139" y="272" width="40" height="40" fill="#EBE6DC"/>
</g>
<defs>
<clipPath id="clip0_4632_23411">
<rect width="360" height="360" rx="8" fill="white"/>
</clipPath>
<clipPath id="clip1_4632_23411">
<rect width="98" height="56" fill="white" transform="translate(30 205)"/>
</clipPath>
<clipPath id="clip2_4632_23411">
<rect width="98" height="56" fill="white" transform="translate(232 323)"/>
</clipPath>
<clipPath id="clip3_4632_23411">
<rect width="98" height="56" fill="white" transform="translate(232 205)"/>
</clipPath>
<clipPath id="clip4_4632_23411">
<rect width="98" height="56" fill="white" transform="translate(30 323)"/>
</clipPath>
</defs>
</svg>
