<svg width="360" height="360" viewBox="0 0 360 360" fill="none" xmlns="http://www.w3.org/2000/svg">
<g clip-path="url(#clip0_5155_52029)">
<rect width="360" height="360" rx="8" fill="#343A40"/>
<rect x="30.5" y="134.5" width="299" height="195" rx="11.5" stroke="#646C73"/>
<path d="M30 159H330" stroke="#646C73"/>
<circle cx="44" cy="147" r="4" stroke="#646C73"/>
<circle cx="56" cy="147" r="4" stroke="#646C73"/>
<circle cx="68" cy="147" r="4" stroke="#646C73"/>
<path d="M108.217 63.6574V60.0902C108.217 59.7545 108.426 59.4188 108.762 59.3348L108.888 59.2929L111.07 58.6214C111.238 58.5794 111.406 58.5375 111.573 58.4955C112.035 58.4535 112.413 58.8312 112.413 59.2929V63.6994H116.735C117.154 63.6994 117.532 64.0771 117.532 64.4967V66.3853C117.532 66.8049 117.154 67.1826 116.735 67.1826H112.413C112.413 70.3721 112.413 73.6036 112.413 76.793C112.413 77.1288 112.455 77.5065 112.539 77.8842C112.916 79.353 113.797 79.7307 114.972 79.6048C115.224 79.5628 115.476 79.5209 115.728 79.4789C116.147 79.395 116.609 79.5209 116.777 79.9825L117.364 81.7032C117.49 82.0389 117.406 82.3746 117.154 82.5845C117.07 82.6684 116.945 82.7104 116.861 82.7523C116.567 82.8782 116.273 82.9622 115.938 83.0461C114.259 83.4658 112.539 83.3399 111.028 82.6264C110.86 82.5425 110.65 82.4166 110.482 82.3327C110.315 82.2068 110.147 82.0809 109.979 81.955C109.224 81.3255 108.804 80.5701 108.552 79.7727C108.3 79.0173 108.259 78.2199 108.259 77.5484C108.259 74.1072 108.259 70.6659 108.259 67.2666H105.027C104.608 67.2666 104.23 66.8889 104.23 66.4692V64.5387C104.23 64.119 104.608 63.7413 105.027 63.7413H108.217V63.6574ZM58.8696 90.2644L46.9525 113.766L70.7028 89.551C70.9126 89.2992 71.2483 89.2152 71.5421 89.2992C71.626 89.3411 71.7519 89.3831 71.7938 89.4251C71.8778 89.509 71.9197 89.5929 71.9617 89.6769C72.0456 89.8867 71.9617 90.1385 71.7099 90.3903L44.8964 117.753C44.8544 117.795 44.8544 117.795 44.8125 117.837C44.7705 117.879 44.7285 117.879 44.7285 117.921C44.5607 118.004 44.3089 118.046 44.0991 117.921C43.9313 117.837 43.8054 117.711 43.7634 117.543C43.7215 117.375 43.7215 117.207 43.8054 117.039L57.6527 89.7188C57.7786 89.4251 58.0304 89.2992 58.2822 89.2992C58.3661 89.2992 58.492 89.3411 58.5759 89.3831C58.6598 89.4251 58.7437 89.467 58.7857 89.551C58.9536 89.6769 59.0375 89.9706 58.8696 90.2644ZM110.566 53.6273L103.349 39.8202C101.251 36.0432 99.0689 31.3429 93.9916 31.3429C92.9425 31.3429 91.9354 31.5528 90.9283 32.0144C90.5087 32.1823 90.1311 32.4341 89.7115 32.6859C88.7463 33.3154 87.9491 34.1547 87.2357 35.078C85.809 36.9245 84.76 39.1907 83.7109 41.2891L80.2281 48.2136C78.4238 51.7808 76.6194 55.348 75.2766 58.0339C75.1088 58.3696 74.8151 58.4955 74.5213 58.4955C74.4374 58.4955 74.3115 58.4535 74.2276 58.4116C74.1437 58.3696 74.0598 58.2857 74.0178 58.2437C73.8919 58.0758 73.8499 57.7821 74.0598 57.4463C75.1927 55.264 76.7453 52.1165 78.3398 48.969L82.578 40.6176C83.3333 39.1488 84.0466 37.638 84.8859 36.2111C85.6831 34.8682 86.5643 33.6511 87.7812 32.56C88.6205 31.8046 89.5017 31.217 90.4248 30.7974C91.5997 30.2518 92.8166 30 94.0755 30C96.7191 30 99.0689 31.301 100.831 33.2314C101.587 34.0708 102.216 35.036 102.845 36.0852C103.978 37.9317 105.069 40.072 105.993 41.8766C106.664 43.1356 107.335 44.4366 108.007 45.7795C109.391 48.4654 110.776 51.1093 111.741 52.9559C111.909 53.2916 111.867 53.5854 111.741 53.7532C111.699 53.8372 111.615 53.8791 111.532 53.9211C111.448 53.9631 111.364 53.9631 111.238 53.9631C110.986 54.047 110.692 53.9211 110.566 53.6273ZM118.161 89.509L141.954 113.64L129.743 90.2644C129.575 89.9287 129.575 89.6349 129.701 89.467C129.743 89.3831 129.827 89.3411 129.911 89.2992C129.995 89.2572 130.079 89.2572 130.204 89.2572C130.498 89.2572 130.792 89.3831 130.96 89.6769L145.227 116.955L145.311 117.123H145.269C145.269 117.165 145.269 117.165 145.269 117.207C145.311 117.417 145.227 117.627 145.059 117.753L145.017 117.795C144.975 117.837 144.933 117.837 144.891 117.879C144.849 117.921 144.807 117.921 144.765 117.921C144.555 117.963 144.304 117.921 144.136 117.753L117.196 90.4323C116.945 90.1385 116.903 89.8447 116.987 89.6769C117.029 89.5929 117.07 89.509 117.154 89.467C117.238 89.4251 117.322 89.3831 117.406 89.3411C117.658 89.2152 117.952 89.2992 118.161 89.509ZM30 82.0809V64.4548C30 63.9931 30.2937 63.6574 30.7973 63.6574C37.0076 63.6574 43.7634 63.6574 49.8059 63.6574C52.5754 63.6574 54.7574 65.1263 55.7225 67.6862C56.1002 68.7354 56.31 69.9105 56.31 71.1695V82.0809C56.31 82.5005 55.9743 82.8782 55.5127 82.8782H52.995C52.5754 82.8782 52.1977 82.5425 52.1977 82.0809V74.7786C52.1977 73.8554 52.1977 72.9321 52.1977 72.0088C52.1977 69.7846 51.6522 68.6095 50.7291 68.0639C49.7639 67.4764 48.2533 67.3925 46.4909 67.4344C46.0294 67.4344 45.5258 67.4344 45.0642 67.4344V82.1228C45.0642 82.5425 44.7285 82.9202 44.267 82.9202H41.7073C41.2877 82.9202 40.91 82.5845 40.91 82.1228V67.4344C38.6861 67.4344 36.5041 67.4344 34.2801 67.4344V82.1228C34.2801 82.5425 33.9024 82.9202 33.4828 82.9202H30.7553C30.2937 82.9202 30 82.5425 30 82.0809ZM149.549 68.6934C147.409 71.0016 147.199 74.9045 149.129 77.3806C149.297 77.6324 149.507 77.8422 149.717 78.052C151.731 79.9405 154.836 79.8986 157.396 79.311C157.815 79.2271 158.235 79.4369 158.361 79.8566L158.948 81.6192C159.116 82.0809 158.864 82.5425 158.361 82.7104C155.423 83.4658 152.192 83.4658 149.339 82.2907C147.241 81.4094 145.562 79.9825 144.555 78.136C142.373 74.2331 143.129 68.8193 146.57 65.9236C147.912 64.7905 149.549 64.0351 151.395 63.6574C153.745 63.1958 156.053 63.4056 158.361 64.0351C158.822 64.161 159.074 64.6646 158.906 65.1263L158.319 66.8049C158.151 67.3085 157.731 67.4764 157.27 67.3505C154.668 66.763 151.563 66.5531 149.549 68.6934ZM79.5567 72.5544C79.5567 72.7642 79.5567 73.016 79.5567 73.2259C79.5567 73.5196 79.5987 73.8554 79.3469 74.1072C79.221 74.275 78.9693 74.4009 78.7595 74.4009H66.3808C66.4227 76.1216 67.3459 77.7583 68.9824 78.6815C71.2064 79.9405 74.4374 79.5209 76.8712 78.5976C77.2908 78.4297 77.7943 78.6396 77.9202 79.1012L78.5077 80.7799C78.6336 81.1576 78.5077 81.6192 78.0881 81.7871C75.9061 82.8363 73.2205 83.3818 70.7028 83.172C67.5557 82.9202 64.7443 81.4514 63.2756 78.7235C62.3525 77.0029 61.9748 75.0304 61.9748 73.1C62.0168 69.1131 63.905 65.2522 67.7655 63.9092C69.9056 63.1538 72.4233 63.1538 74.5213 63.9931C75.8221 64.4967 76.8712 65.3361 77.6685 66.3853C78.9693 68.1479 79.4309 70.3721 79.5567 72.5544ZM66.4227 71.0855H75.3606C75.2347 68.6934 73.3464 66.8049 70.9546 66.8049C68.3949 66.8469 66.8004 68.7354 66.4227 71.0855ZM138.933 72.5544C138.933 72.7642 138.933 73.016 138.933 73.2259C138.933 73.5196 138.974 73.8554 138.723 74.1072C138.597 74.275 138.345 74.4009 138.135 74.4009H125.757C125.798 76.1216 126.722 77.7583 128.358 78.6815C130.582 79.9405 133.813 79.5209 136.247 78.5976C136.667 78.4297 137.17 78.6396 137.296 79.1012L137.883 80.7799C138.009 81.1576 137.883 81.6192 137.464 81.7871C135.282 82.8363 132.596 83.3818 130.079 83.172C126.931 82.9202 124.12 81.4514 122.651 78.7235C121.728 77.0448 121.351 75.0304 121.351 73.1C121.393 69.1131 123.281 65.2522 127.141 63.9092C129.281 63.1538 131.799 63.1538 133.897 63.9931C135.198 64.4967 136.247 65.3361 137.044 66.3853C138.387 68.1479 138.849 70.3721 138.933 72.5544ZM125.798 71.0855H134.736C134.61 68.6934 132.722 66.8049 130.33 66.8049C127.771 66.8469 126.218 68.7354 125.798 71.0855ZM93.0264 63.3217C93.9496 63.3217 94.8308 63.4056 95.67 63.6154C96.2994 63.7833 96.8449 63.9512 97.3904 64.2449C97.9359 64.5387 98.3975 64.8745 98.8171 65.2941C99.6983 66.1754 100.16 67.1826 100.412 68.1898C100.663 69.197 100.663 70.2462 100.663 71.2954V82.1228C100.663 82.6264 100.244 82.9202 99.7822 82.9202H97.6842C97.2226 82.9202 96.8869 82.5425 96.8869 82.1228V81.1996C96.0057 81.913 95.2504 82.3746 94.4112 82.7104C92.3131 83.5497 89.6275 83.4238 87.5714 82.5005C87.3616 82.4166 87.1938 82.3327 86.9839 82.2068C85.2216 81.1996 84.2564 79.395 84.2564 77.3386C84.2564 73.8973 86.6902 71.8829 89.7115 71.2114C90.8444 70.9596 92.397 70.7918 94.537 70.7918C94.9986 70.7918 95.6281 70.7918 96.2155 70.8337C96.2994 70.8337 96.3834 70.8337 96.4673 70.8337C96.4673 70.6239 96.4673 70.4141 96.4673 70.2042C96.4673 69.239 96.2575 68.3997 95.5022 67.7282C94.537 66.8889 92.9845 66.679 91.7256 66.8469C90.4668 66.9728 89.166 67.3925 88.075 67.8121C87.9071 67.8961 87.7812 67.8961 87.5714 67.8961C87.4036 67.8541 87.2357 67.7702 87.1098 67.6443C87.0259 67.5603 86.9839 67.4344 86.9 67.3085L86.3965 65.7977C86.2706 65.504 86.3126 65.1263 86.5643 64.9164C86.6482 64.8325 86.7741 64.7486 86.9 64.7066C88.8722 63.8253 90.8864 63.3217 93.0264 63.3217ZM96.2575 76.5832C96.4253 76.1635 96.5092 75.7439 96.5092 75.3242C96.5092 74.9045 96.5092 74.4849 96.5092 74.0652C95.5441 74.0232 94.5371 73.9813 93.5719 74.0232C92.1033 74.1072 90.173 74.317 89.2079 75.576C88.4106 76.6252 88.4946 78.1779 89.5436 79.0173C90.257 79.6048 91.1801 79.7727 92.1033 79.6887C92.8586 79.6048 93.6139 79.353 94.2853 78.9333C95.1665 78.3878 95.9218 77.5484 96.2575 76.5832Z" fill="white"/>
<path d="M187.5 153.5L180.994 161.399L167 160V163.5L180.5 164.85V188L153.5 189.5L144 176L110.5 180V145L187.5 153.5ZM120.5 159.5L156 162.5V158.5L120.5 155V159.5Z" fill="url(#paint0_linear_5155_52029)"/>
<path d="M162 183L142 182.5" stroke="#7D8389"/>
<path d="M191 156L193 153.5L203 155L202.5 156.5L194 157.5L191 156Z" fill="#9197A0"/>
<path d="M207 154.5L194 153L192 153.8L206.5 155.5L207 154.5Z" fill="white"/>
<path d="M189 186.5V161.672L186.5 161V190.5H189V186.5Z" fill="#3B4044"/>
<rect x="186" y="161" width="0.5" height="30" fill="#282D33"/>
<path d="M188.5 156L191 157L189 161.672L186.5 161L188.5 156Z" fill="#282D33"/>
<path d="M186 161H186.5L188.5 156H188L186 161Z" fill="#3B4044"/>
<path d="M192 186.199V161.371L189.5 160.699V190.199H192V186.199Z" fill="#3B4044"/>
<rect x="189" y="160.699" width="0.5" height="30" fill="#282D33"/>
<path d="M191.5 155.699L194 156.699L192 161.371L189.5 160.699L191.5 155.699Z" fill="#282D33"/>
<path d="M189 160.699H189.5L191.5 155.699H191L189 160.699Z" fill="#3B4044"/>
<path d="M195 185.9V161.072L192.5 160.4V189.9H195V185.9Z" fill="#3B4044"/>
<rect x="192" y="160.4" width="0.5" height="30" fill="#282D33"/>
<path d="M194.5 155.4L197 156.4L195 161.072L192.5 160.4L194.5 155.4Z" fill="#282D33"/>
<path d="M192 160.4H192.5L194.5 155.4H194L192 160.4Z" fill="#3B4044"/>
<path d="M198 185.6V160.771L195.5 160.1V189.6H198V185.6Z" fill="#3B4044"/>
<rect x="195" y="160.1" width="0.5" height="30" fill="#282D33"/>
<path d="M197.5 155.1L200 156.1L198 160.771L195.5 160.1L197.5 155.1Z" fill="#282D33"/>
<path d="M195 160.1H195.5L197.5 155.1H197L195 160.1Z" fill="#3B4044"/>
<path d="M201 185.301V160.473L198.5 159.801V189.301H201V185.301Z" fill="#3B4044"/>
<rect x="198" y="159.801" width="0.5" height="30" fill="#282D33"/>
<path d="M200.5 154.801L203 155.801L201 160.473L198.5 159.801L200.5 154.801Z" fill="#282D33"/>
<path d="M198 159.801H198.5L200.5 154.801H200L198 159.801Z" fill="#3B4044"/>
<path d="M204 185V160.172L201.5 159.5V189H204V185Z" fill="#3B4044"/>
<rect x="201" y="159.5" width="0.5" height="30" fill="#282D33"/>
<path d="M203.5 154.5L206 155.5L204 160.172L201.5 159.5L203.5 154.5Z" fill="#282D33"/>
<path d="M201 159.5H201.5L203.5 154.5H203L201 159.5Z" fill="#3B4044"/>
<path d="M207 184.699V159.871L204.5 159.199V188.699H207V184.699Z" fill="#3B4044"/>
<rect x="204" y="159.199" width="0.5" height="30" fill="#282D33"/>
<path d="M206.5 154.199L209 155.199L207 159.871L204.5 159.199L206.5 154.199Z" fill="#282D33"/>
<path d="M204 159.199H204.5L206.5 154.199H206L204 159.199Z" fill="#3B4044"/>
<path d="M210 184.4V159.572L207.5 158.9V188.4H210V184.4Z" fill="#3B4044"/>
<rect x="207" y="158.9" width="0.5" height="30" fill="#282D33"/>
<path d="M209.5 153.9L212 154.9L210 159.572L207.5 158.9L209.5 153.9Z" fill="#282D33"/>
<path d="M207 158.9H207.5L209.5 153.9H209L207 158.9Z" fill="#3B4044"/>
<path d="M213 184.1V159.271L210.5 158.6V188.1H213V184.1Z" fill="#3B4044"/>
<rect x="210" y="158.6" width="0.5" height="30" fill="#282D33"/>
<path d="M212.5 153.6L215 154.6L213 159.271L210.5 158.6L212.5 153.6Z" fill="#282D33"/>
<path d="M210 158.6H210.5L212.5 153.6H212L210 158.6Z" fill="#3B4044"/>
<path d="M216 183.801V158.973L213.5 158.301V187.801H216V183.801Z" fill="#3B4044"/>
<rect x="213" y="158.301" width="0.5" height="30" fill="#282D33"/>
<path d="M215.5 153.301L218 154.301L216 158.973L213.5 158.301L215.5 153.301Z" fill="#282D33"/>
<path d="M213 158.301H213.5L215.5 153.301H215L213 158.301Z" fill="#3B4044"/>
<path d="M219 183.5V158.672L216.5 158V187.5H219V183.5Z" fill="#3B4044"/>
<rect x="216" y="158" width="0.5" height="30" fill="#282D33"/>
<path d="M218.5 153L221 154L219 158.672L216.5 158L218.5 153Z" fill="#282D33"/>
<path d="M216 158H216.5L218.5 153H218L216 158Z" fill="#3B4044"/>
<path d="M222 183.199V158.371L219.5 157.699V187.199H222V183.199Z" fill="#3B4044"/>
<rect x="219" y="157.699" width="0.5" height="30" fill="#282D33"/>
<path d="M221.5 152.699L224 153.699L222 158.371L219.5 157.699L221.5 152.699Z" fill="#282D33"/>
<path d="M219 157.699H219.5L221.5 152.699H221L219 157.699Z" fill="#3B4044"/>
<path d="M225 182.9V158.072L222.5 157.4V186.9H225V182.9Z" fill="#3B4044"/>
<rect x="222" y="157.4" width="0.5" height="30" fill="#282D33"/>
<path d="M224.5 152.4L227 153.4L225 158.072L222.5 157.4L224.5 152.4Z" fill="#282D33"/>
<path d="M222 157.4H222.5L224.5 152.4H224L222 157.4Z" fill="#3B4044"/>
<path d="M228 182.6V157.771L225.5 157.1V186.6H228V182.6Z" fill="#3B4044"/>
<rect x="225" y="157.1" width="0.5" height="30" fill="#282D33"/>
<path d="M227.5 152.1L230 153.1L228 157.771L225.5 157.1L227.5 152.1Z" fill="#282D33"/>
<path d="M225 157.1H225.5L227.5 152.1H227L225 157.1Z" fill="#3B4044"/>
<path d="M231 182.301V157.473L228.5 156.801V186.301H231V182.301Z" fill="#3B4044"/>
<rect x="228" y="156.801" width="0.5" height="30" fill="#282D33"/>
<path d="M230.5 151.801L233 152.801L231 157.473L228.5 156.801L230.5 151.801Z" fill="#282D33"/>
<path d="M228 156.801H228.5L230.5 151.801H230L228 156.801Z" fill="#3B4044"/>
<path d="M234 182V157.172L231.5 156.5V186H234V182Z" fill="#3B4044"/>
<rect x="231" y="156.5" width="0.5" height="30" fill="#282D33"/>
<path d="M233.5 151.5L236 152.5L234 157.172L231.5 156.5L233.5 151.5Z" fill="#282D33"/>
<path d="M231 156.5H231.5L233.5 151.5H233L231 156.5Z" fill="#3B4044"/>
<path d="M237 181.699V156.871L234.5 156.199V185.699H237V181.699Z" fill="#3B4044"/>
<rect x="234" y="156.199" width="0.5" height="30" fill="#282D33"/>
<path d="M236.5 151.199L239 152.199L237 156.871L234.5 156.199L236.5 151.199Z" fill="#282D33"/>
<path d="M234 156.199H234.5L236.5 151.199H236L234 156.199Z" fill="#3B4044"/>
<path d="M240 181.4V156.572L237.5 155.9V185.4H240V181.4Z" fill="#3B4044"/>
<rect x="237" y="155.9" width="0.5" height="30" fill="#282D33"/>
<path d="M239.5 150.9L242 151.9L240 156.572L237.5 155.9L239.5 150.9Z" fill="#282D33"/>
<path d="M237 155.9H237.5L239.5 150.9H239L237 155.9Z" fill="#3B4044"/>
<path d="M105 178V144L108 143.5V178H105Z" fill="#DADFE5"/>
<path d="M110.5 291.5V252H132.5L143.5 293L110.5 291.5Z" fill="url(#paint1_linear_5155_52029)"/>
<path d="M138 292.5H151.5L146.5 210L104 212.5V253.5H131L138 292.5Z" fill="#BFC5CB"/>
<path d="M104 196V212.5L145.5 211.5V198L152.5 189L108 192.5V195.5L104 196Z" fill="url(#paint2_linear_5155_52029)"/>
<path d="M108 143.5H111V178H108V143.5Z" fill="#BFC5CB"/>
<path d="M109.836 144.514C109.291 144.604 108.923 145.12 109.014 145.664C109.104 146.209 109.62 146.577 110.164 146.486L110 145.5L109.836 144.514ZM110 145.5L110.164 146.486L121.747 144.556L121.583 143.569L121.419 142.583L109.836 144.514L110 145.5ZM126.734 145.999L125.868 146.499L142.634 175.501L143.5 175L144.366 174.499L127.599 145.498L126.734 145.999ZM121.583 143.569L121.747 144.556C123.392 144.282 125.034 145.056 125.868 146.499L126.734 145.999L127.599 145.498C126.348 143.334 123.885 142.172 121.419 142.583L121.583 143.569Z" fill="#787F85"/>
<g filter="url(#filter0_f_5155_52029)">
<path d="M109.918 145.007C109.645 145.052 109.461 145.31 109.507 145.582C109.552 145.855 109.81 146.039 110.082 145.993L110 145.5L109.918 145.007ZM110 145.5L110.082 145.993L121.665 144.063L121.583 143.569L121.501 143.076L109.918 145.007L110 145.5ZM126.734 145.999L126.301 146.249L143.067 175.25L143.5 175L143.933 174.75L127.167 145.749L126.734 145.999ZM121.583 143.569L121.665 144.063C123.515 143.754 125.362 144.626 126.301 146.249L126.734 145.999L127.167 145.749C126.019 143.764 123.762 142.699 121.501 143.076L121.583 143.569Z" fill="white"/>
</g>
<path d="M105 193V178L146 174L155 189L105 193Z" fill="#DADFE5"/>
<mask id="mask0_5155_52029" style="mask-type:alpha" maskUnits="userSpaceOnUse" x="105" y="174" width="50" height="19">
<path d="M105 193V178L146 174L155 189L105 193Z" fill="#DADFE5"/>
</mask>
<g mask="url(#mask0_5155_52029)">
<path d="M152 191L142 174L146.5 171L159.5 190L152 191Z" fill="#BFC5CB"/>
</g>
<path d="M180 182V162H186V182H180Z" fill="#BFC5CB"/>
<path d="M180 162L188 153H194L186 162H180Z" fill="#DADFE5"/>
<path d="M161 179.5V189L175 188V178.5L161 179.5Z" fill="#7E8994"/>
<path d="M196 179.5V186L175 188V178.5L196 179.5Z" fill="#272D32"/>
<path d="M194 187.8H193V182.8H194V187.8ZM192 187.6H191V182.6H192V187.6ZM190 187.4H189V182.4H190V187.4ZM188 187.2H187V182.2H188V187.2ZM186 187H185V182H186V187Z" fill="black"/>
<path d="M241 109V92.0597L254 89V106.442L241 109Z" fill="#20252A"/>
<path d="M294 113L294 97.3265L257 89V105.653L294 113Z" fill="#20252A"/>
<rect x="254" y="89" width="3" height="17" fill="#343A40"/>
<path d="M240 182V95.9832L254 93V181.006L240 182Z" fill="#BFC5CB"/>
<path d="M271 182V95.5L257 93V181.006L271 182Z" fill="#B4BBC1"/>
<rect x="254" y="93" width="3" height="87" fill="#DADFE5"/>
<rect x="276" y="97" width="2" height="87" fill="#DADFE5"/>
<path d="M271 97L276 98V184H271V97Z" fill="#343A40"/>
<path d="M278 97L295 100V184H278V97Z" fill="#B4BBC1"/>
<path d="M240 92.5V75.9832L254 73V90.0056L240 92.5Z" fill="#BFC5CB"/>
<path d="M295 97.5L295 81.5L257 73V90L295 97.5Z" fill="#B4BBC1"/>
<rect x="254" y="73" width="3" height="17" fill="#DADFE5"/>
<path d="M286 87L292 88.5V89.5L286 88V87Z" fill="#343A40"/>
<path d="M286 88.6992L292 90.1992V91.1992L286 89.6992V88.6992Z" fill="#343A40"/>
<path d="M286 90.4004L292 91.9004V92.9004L286 91.4004V90.4004Z" fill="#343A40"/>
<path d="M286 92.0996L292 93.5996V94.5996L286 93.0996V92.0996Z" fill="#343A40"/>
<path d="M291 121V109L296.5 108V119.5L291 121Z" fill="#393E43"/>
<path d="M317.5 112L296.5 108V119.5V124L293 129.5V144L317.5 141V112Z" fill="#5A6065"/>
<path d="M307 130.5L317 128.5L306 126.5V115.5L296.5 117.5V128.5L307 130.5Z" fill="#0B0F11"/>
<path d="M361.5 126.5L337.06 130.121C335.589 130.339 334.5 131.601 334.5 133.088V141" stroke="#787F85" stroke-width="2"/>
<g filter="url(#filter1_f_5155_52029)">
<path d="M361.5 126.5L337.06 130.121C335.589 130.339 334.5 131.601 334.5 133.088V141" stroke="white"/>
</g>
<path d="M300.5 134.5L324.169 131.87C325.946 131.673 327.5 133.064 327.5 134.852V142" stroke="#787F85" stroke-width="2"/>
<g filter="url(#filter2_f_5155_52029)">
<path d="M300.5 134.5L324.169 131.87C325.946 131.673 327.5 133.064 327.5 134.852V142" stroke="white"/>
</g>
<path d="M287.5 178.5V159H293V178.5H287.5Z" fill="#8E969F"/>
<path d="M278 159V149H293V159H278Z" fill="#1C2125"/>
<path d="M293 178V147H299V178H293Z" fill="#0B0F11"/>
<path d="M301 172.5V147.672L298.5 147V176.5H301V172.5Z" fill="#3B4044"/>
<rect x="298" y="147" width="0.5" height="30" fill="#282D33"/>
<path d="M300.5 142L303 143L301 147.672L298.5 147L300.5 142Z" fill="#282D33"/>
<path d="M298 147H298.5L300.5 142H300L298 147Z" fill="#3B4044"/>
<path d="M304 172.199V147.371L301.5 146.699V176.199H304V172.199Z" fill="#3B4044"/>
<rect x="301" y="146.699" width="0.5" height="30" fill="#282D33"/>
<path d="M303.5 141.699L306 142.699L304 147.371L301.5 146.699L303.5 141.699Z" fill="#282D33"/>
<path d="M301 146.699H301.5L303.5 141.699H303L301 146.699Z" fill="#3B4044"/>
<path d="M307 171.9V147.072L304.5 146.4V175.9H307V171.9Z" fill="#3B4044"/>
<rect x="304" y="146.4" width="0.5" height="30" fill="#282D33"/>
<path d="M306.5 141.4L309 142.4L307 147.072L304.5 146.4L306.5 141.4Z" fill="#282D33"/>
<path d="M304 146.4H304.5L306.5 141.4H306L304 146.4Z" fill="#3B4044"/>
<path d="M310 171.6V146.771L307.5 146.1V175.6H310V171.6Z" fill="#3B4044"/>
<rect x="307" y="146.1" width="0.5" height="30" fill="#282D33"/>
<path d="M309.5 141.1L312 142.1L310 146.771L307.5 146.1L309.5 141.1Z" fill="#282D33"/>
<path d="M307 146.1H307.5L309.5 141.1H309L307 146.1Z" fill="#3B4044"/>
<path d="M313 171.301V146.473L310.5 145.801V175.301H313V171.301Z" fill="#3B4044"/>
<rect x="310" y="145.801" width="0.5" height="30" fill="#282D33"/>
<path d="M312.5 140.801L315 141.801L313 146.473L310.5 145.801L312.5 140.801Z" fill="#282D33"/>
<path d="M310 145.801H310.5L312.5 140.801H312L310 145.801Z" fill="#3B4044"/>
<path d="M316 171V146.172L313.5 145.5V175H316V171Z" fill="#3B4044"/>
<rect x="313" y="145.5" width="0.5" height="30" fill="#282D33"/>
<path d="M315.5 140.5L318 141.5L316 146.172L313.5 145.5L315.5 140.5Z" fill="#282D33"/>
<path d="M313 145.5H313.5L315.5 140.5H315L313 145.5Z" fill="#3B4044"/>
<path d="M319 170.699V145.871L316.5 145.199V174.699H319V170.699Z" fill="#3B4044"/>
<rect x="316" y="145.199" width="0.5" height="30" fill="#282D33"/>
<path d="M318.5 140.199L321 141.199L319 145.871L316.5 145.199L318.5 140.199Z" fill="#282D33"/>
<path d="M316 145.199H316.5L318.5 140.199H318L316 145.199Z" fill="#3B4044"/>
<path d="M322 170.4V145.572L319.5 144.9V174.4H322V170.4Z" fill="#3B4044"/>
<rect x="319" y="144.9" width="0.5" height="30" fill="#282D33"/>
<path d="M321.5 139.9L324 140.9L322 145.572L319.5 144.9L321.5 139.9Z" fill="#282D33"/>
<path d="M319 144.9H319.5L321.5 139.9H321L319 144.9Z" fill="#3B4044"/>
<path d="M325 170.1V145.271L322.5 144.6V174.1H325V170.1Z" fill="#3B4044"/>
<rect x="322" y="144.6" width="0.5" height="30" fill="#282D33"/>
<path d="M324.5 139.6L327 140.6L325 145.271L322.5 144.6L324.5 139.6Z" fill="#282D33"/>
<path d="M322 144.6H322.5L324.5 139.6H324L322 144.6Z" fill="#3B4044"/>
<path d="M328 169.801V144.973L325.5 144.301V173.801H328V169.801Z" fill="#3B4044"/>
<rect x="325" y="144.301" width="0.5" height="30" fill="#282D33"/>
<path d="M327.5 139.301L330 140.301L328 144.973L325.5 144.301L327.5 139.301Z" fill="#282D33"/>
<path d="M325 144.301H325.5L327.5 139.301H327L325 144.301Z" fill="#3B4044"/>
<path d="M331 169.5V144.672L328.5 144V173.5H331V169.5Z" fill="#3B4044"/>
<rect x="328" y="144" width="0.5" height="30" fill="#282D33"/>
<path d="M330.5 139L333 140L331 144.672L328.5 144L330.5 139Z" fill="#282D33"/>
<path d="M328 144H328.5L330.5 139H330L328 144Z" fill="#3B4044"/>
<path d="M334 169.199V144.371L331.5 143.699V173.199H334V169.199Z" fill="#3B4044"/>
<rect x="331" y="143.699" width="0.5" height="30" fill="#282D33"/>
<path d="M333.5 138.699L336 139.699L334 144.371L331.5 143.699L333.5 138.699Z" fill="#282D33"/>
<path d="M331 143.699H331.5L333.5 138.699H333L331 143.699Z" fill="#3B4044"/>
<path d="M337 168.9V144.072L334.5 143.4V172.9H337V168.9Z" fill="#3B4044"/>
<rect x="334" y="143.4" width="0.5" height="30" fill="#282D33"/>
<path d="M336.5 138.4L339 139.4L337 144.072L334.5 143.4L336.5 138.4Z" fill="#282D33"/>
<path d="M334 143.4H334.5L336.5 138.4H336L334 143.4Z" fill="#3B4044"/>
<path d="M340 168.6V143.771L337.5 143.1V172.6H340V168.6Z" fill="#3B4044"/>
<rect x="337" y="143.1" width="0.5" height="30" fill="#282D33"/>
<path d="M339.5 138.1L342 139.1L340 143.771L337.5 143.1L339.5 138.1Z" fill="#282D33"/>
<path d="M337 143.1H337.5L339.5 138.1H339L337 143.1Z" fill="#3B4044"/>
<path d="M343 168.301V143.473L340.5 142.801V172.301H343V168.301Z" fill="#3B4044"/>
<rect x="340" y="142.801" width="0.5" height="30" fill="#282D33"/>
<path d="M342.5 137.801L345 138.801L343 143.473L340.5 142.801L342.5 137.801Z" fill="#282D33"/>
<path d="M340 142.801H340.5L342.5 137.801H342L340 142.801Z" fill="#3B4044"/>
<path d="M346 168V143.172L343.5 142.5V172H346V168Z" fill="#3B4044"/>
<rect x="343" y="142.5" width="0.5" height="30" fill="#282D33"/>
<path d="M345.5 137.5L348 138.5L346 143.172L343.5 142.5L345.5 137.5Z" fill="#282D33"/>
<path d="M343 142.5H343.5L345.5 137.5H345L343 142.5Z" fill="#3B4044"/>
<path d="M349 167.699V142.871L346.5 142.199V171.699H349V167.699Z" fill="#3B4044"/>
<rect x="346" y="142.199" width="0.5" height="30" fill="#282D33"/>
<path d="M348.5 137.199L351 138.199L349 142.871L346.5 142.199L348.5 137.199Z" fill="#282D33"/>
<path d="M346 142.199H346.5L348.5 137.199H348L346 142.199Z" fill="#3B4044"/>
<path d="M352 167.4V142.572L349.5 141.9V171.4H352V167.4Z" fill="#3B4044"/>
<rect x="349" y="141.9" width="0.5" height="30" fill="#282D33"/>
<path d="M351.5 136.9L354 137.9L352 142.572L349.5 141.9L351.5 136.9Z" fill="#282D33"/>
<path d="M349 141.9H349.5L351.5 136.9H351L349 141.9Z" fill="#3B4044"/>
<path d="M355 167.1V142.271L352.5 141.6V171.1H355V167.1Z" fill="#3B4044"/>
<rect x="352" y="141.6" width="0.5" height="30" fill="#282D33"/>
<path d="M354.5 136.6L357 137.6L355 142.271L352.5 141.6L354.5 136.6Z" fill="#282D33"/>
<path d="M352 141.6H352.5L354.5 136.6H354L352 141.6Z" fill="#3B4044"/>
<path d="M358 166.5V141.672L355.5 141V170.5H358V166.5Z" fill="#3B4044"/>
<rect x="355" y="141" width="0.5" height="30" fill="#282D33"/>
<path d="M357.5 136L360 137L358 141.672L355.5 141L357.5 136Z" fill="#282D33"/>
<path d="M355 141H355.5L357.5 136H357L355 141Z" fill="#3B4044"/>
<path d="M361 165.6V140.771L358.5 140.1V169.6H361V165.6Z" fill="#3B4044"/>
<rect x="358" y="140.1" width="0.5" height="30" fill="#282D33"/>
<path d="M360.5 135.1L363 136.1L361 140.771L358.5 140.1L360.5 135.1Z" fill="#282D33"/>
<path d="M358 140.1H358.5L360.5 135.1H360L358 140.1Z" fill="#3B4044"/>
<path d="M293 149H287V126.5C287 123.5 289 120.167 293 119.5C295.4 119.1 300.5 118.5 303.5 118V121L298 124L293 130.5V149Z" fill="#1C2125"/>
<circle cx="295" cy="146" r="3" fill="#3B4044"/>
<ellipse cx="295" cy="146" rx="1.5" ry="1.6" fill="#E1E05E"/>
<circle cx="295" cy="140" r="3" fill="#3B4044"/>
<ellipse cx="295" cy="140" rx="1.5" ry="1.6" fill="#E1E05E"/>
<circle cx="295" cy="134" r="3" fill="#3B4044"/>
<ellipse cx="295" cy="134" rx="1.5" ry="1.6" fill="#E1E05E"/>
<circle cx="295" cy="128" r="3" fill="#3B4044"/>
<ellipse cx="295" cy="128" rx="1.5" ry="1.6" fill="#E1E05E"/>
<circle cx="298" cy="123" r="3" fill="#3B4044"/>
<ellipse cx="298" cy="123" rx="1.5" ry="1.6" fill="#E1E05E"/>
<circle cx="303.5" cy="121" r="3" fill="#3B4044"/>
<ellipse cx="303.5" cy="121" rx="1.5" ry="1.6" fill="#E1E05E"/>
<path d="M104 290L360 302V333.5L104 312.5V290Z" fill="url(#paint3_linear_5155_52029)"/>
<path d="M345 175L360 173.5V303L347 302.5L345 175Z" fill="#DADFE5"/>
<path d="M145 283.5L145.5 197.5L340 182.5L339.5 291L145 283.5Z" fill="#E8EDF4"/>
<path d="M338 227.59L147.263 236.404L147.488 199.353L338 184.66V227.59Z" fill="url(#paint4_linear_5155_52029)" stroke="#1C2125" stroke-width="4"/>
<path d="M347 171.5L362 149L363.5 170L347 171.5Z" fill="#DADFE5"/>
<path d="M345 172L360 170.5V173.5L345 175V172Z" fill="#5F646A"/>
<path d="M152 189L347 171L340 182.5L145.5 197.5L152 189Z" fill="#DADFE5"/>
<mask id="mask1_5155_52029" style="mask-type:alpha" maskUnits="userSpaceOnUse" x="145" y="171" width="202" height="27">
<path d="M151.5 189.5L347 171.5L340 182.5L145.5 197.5L151.5 189.5Z" fill="#DADFE5"/>
</mask>
<g mask="url(#mask1_5155_52029)">
<path d="M145.5 195.5L344.5 180L342.5 187L139.5 203.5L145.5 195.5Z" fill="#A1ABB6"/>
<path d="M239.542 195.367L219.918 196.962L223.388 189.432L242.938 187.91L239.542 195.367Z" fill="#343A3F"/>
</g>
<path d="M144.5 283L340 291L346.5 301.5L151 293L144.5 283Z" fill="#8D969F"/>
<path d="M340 182.5L347 171V302.5L339.5 291L340 182.5Z" fill="#BFC5CB"/>
<path d="M222 191.594V235L241.5 234V190.094L222 191.594Z" fill="#11161A"/>
<path d="M237.5 180.5L231 191V286.5L236.5 297" stroke="white" stroke-opacity="0.1"/>
<path d="M238.5 181L232 191V286.5L237.5 297" stroke="black" stroke-opacity="0.06"/>
<circle cx="147.75" cy="199.75" r="0.75" fill="#CCD0D4"/>
<circle cx="147.75" cy="236.25" r="0.75" fill="#CCD0D4"/>
<circle cx="183.75" cy="196.449" r="0.75" fill="#CCD0D4"/>
<circle cx="183.75" cy="234.75" r="0.75" fill="#CCD0D4"/>
<circle cx="219.75" cy="193.75" r="0.75" fill="#CCD0D4"/>
<circle cx="244.25" cy="191.75" r="0.75" fill="#CCD0D4"/>
<circle cx="244.25" cy="231.75" r="0.75" fill="#CCD0D4"/>
<circle cx="287.75" cy="188.35" r="0.75" fill="#CCD0D4"/>
<circle cx="287.75" cy="229.551" r="0.75" fill="#CCD0D4"/>
<circle cx="337.25" cy="184.75" r="0.75" fill="#CCD0D4"/>
<circle cx="337.25" cy="226.75" r="0.75" fill="#CCD0D4"/>
<circle cx="219.75" cy="232.75" r="0.75" fill="#CCD0D4"/>
<rect x="231" y="198.5" width="4" height="73" fill="url(#paint5_linear_5155_52029)"/>
<path d="M237.5 201.5H235V203.5H237.5C237.667 203.333 238 203.125 238 202.5C238 201.875 237.667 201.667 237.5 201.5Z" fill="url(#paint6_linear_5155_52029)"/>
<rect x="235" y="201.5" width="1" height="2" fill="#171D1F" fill-opacity="0.2"/>
<path d="M237.5 266.5H235V268.5H237.5C237.667 268.333 238 268.125 238 267.5C238 266.875 237.667 266.667 237.5 266.5Z" fill="url(#paint7_linear_5155_52029)"/>
<rect x="235" y="266.5" width="1" height="2" fill="#171D1F" fill-opacity="0.2"/>
<rect x="220" y="199" width="4" height="73" fill="url(#paint8_linear_5155_52029)"/>
<path d="M226.5 202H224V204H226.5C226.667 203.833 227 203.625 227 203C227 202.375 226.667 202.167 226.5 202Z" fill="url(#paint9_linear_5155_52029)"/>
<rect x="224" y="202" width="1" height="2" fill="#171D1F" fill-opacity="0.2"/>
<path d="M226.5 267H224V269H226.5C226.667 268.833 227 268.625 227 268C227 267.375 226.667 267.167 226.5 267Z" fill="url(#paint10_linear_5155_52029)"/>
<rect x="224" y="267" width="1" height="2" fill="#171D1F" fill-opacity="0.2"/>
<circle cx="85" cy="275" r="39" fill="url(#paint11_linear_5155_52029)"/>
<path d="M102.531 270.564C103.047 270.564 103.562 271.016 103.562 271.596V273.658C103.562 274.174 103.047 274.689 102.531 274.689H100.984L98.084 287.902C97.6328 289.836 95.957 291.125 94.0234 291.125H75.9121C73.9785 291.125 72.3027 289.836 71.8516 287.902L68.9512 274.689H67.4688C66.8887 274.689 66.4375 274.174 66.4375 273.658V271.596C66.4375 271.016 66.8887 270.564 67.4688 270.564H73.9785L79.9727 258.963C80.3594 258.254 81.3262 257.932 82.0996 258.318C82.8086 258.705 83.1309 259.672 82.7441 260.445L77.459 270.564H92.4766L87.1914 260.445C86.8047 259.672 87.127 258.705 87.8359 258.318C88.6094 257.932 89.5762 258.254 89.9629 258.963L95.957 270.564H102.531ZM78.8125 286.033V277.783C78.8125 277.203 78.2969 276.752 77.7812 276.752C77.2012 276.752 76.75 277.203 76.75 277.783V286.033C76.75 286.549 77.2012 287 77.7812 287C78.2969 287 78.8125 286.549 78.8125 286.033ZM86.0312 286.033V277.783C86.0312 277.203 85.5156 276.752 85 276.752C84.4199 276.752 83.9688 277.203 83.9688 277.783V286.033C83.9688 286.549 84.4199 287 85 287C85.5156 287 86.0312 286.549 86.0312 286.033ZM93.25 286.033V277.783C93.25 277.203 92.7344 276.752 92.2188 276.752C91.6387 276.752 91.1875 277.203 91.1875 277.783V286.033C91.1875 286.549 91.6387 287 92.2188 287C92.7344 287 93.25 286.549 93.25 286.033Z" fill="white"/>
</g>
<defs>
<filter id="filter0_f_5155_52029" x="108.5" y="142.002" width="36.433" height="34.248" filterUnits="userSpaceOnUse" color-interpolation-filters="sRGB">
<feFlood flood-opacity="0" result="BackgroundImageFix"/>
<feBlend mode="normal" in="SourceGraphic" in2="BackgroundImageFix" result="shape"/>
<feGaussianBlur stdDeviation="0.5" result="effect1_foregroundBlur_5155_52029"/>
</filter>
<filter id="filter1_f_5155_52029" x="333" y="125.006" width="29.5733" height="16.9941" filterUnits="userSpaceOnUse" color-interpolation-filters="sRGB">
<feFlood flood-opacity="0" result="BackgroundImageFix"/>
<feBlend mode="normal" in="SourceGraphic" in2="BackgroundImageFix" result="shape"/>
<feGaussianBlur stdDeviation="0.5" result="effect1_foregroundBlur_5155_52029"/>
</filter>
<filter id="filter2_f_5155_52029" x="299.445" y="130.352" width="29.5552" height="12.6484" filterUnits="userSpaceOnUse" color-interpolation-filters="sRGB">
<feFlood flood-opacity="0" result="BackgroundImageFix"/>
<feBlend mode="normal" in="SourceGraphic" in2="BackgroundImageFix" result="shape"/>
<feGaussianBlur stdDeviation="0.5" result="effect1_foregroundBlur_5155_52029"/>
</filter>
<linearGradient id="paint0_linear_5155_52029" x1="136.5" y1="162" x2="98" y2="161" gradientUnits="userSpaceOnUse">
<stop stop-color="#A7AEB5"/>
<stop offset="1" stop-color="#5F646A"/>
</linearGradient>
<linearGradient id="paint1_linear_5155_52029" x1="122.5" y1="259.5" x2="122.5" y2="240.5" gradientUnits="userSpaceOnUse">
<stop stop-color="#8D969F"/>
<stop offset="1" stop-color="#333639"/>
</linearGradient>
<linearGradient id="paint2_linear_5155_52029" x1="123" y1="194.5" x2="121.636" y2="182.409" gradientUnits="userSpaceOnUse">
<stop stop-color="#8D969F"/>
<stop offset="1" stop-color="#333639"/>
</linearGradient>
<linearGradient id="paint3_linear_5155_52029" x1="7" y1="293" x2="371.5" y2="312" gradientUnits="userSpaceOnUse">
<stop stop-color="#2F353B"/>
<stop offset="1" stop-color="#111418"/>
</linearGradient>
<linearGradient id="paint4_linear_5155_52029" x1="309" y1="229.5" x2="146" y2="197.5" gradientUnits="userSpaceOnUse">
<stop stop-color="#1C2125"/>
<stop offset="1" stop-color="#2D3339"/>
</linearGradient>
<linearGradient id="paint5_linear_5155_52029" x1="231" y1="237.5" x2="235" y2="237.5" gradientUnits="userSpaceOnUse">
<stop stop-color="white"/>
<stop offset="0.235577" stop-color="#8D969F"/>
<stop offset="0.617788" stop-color="white"/>
<stop offset="1" stop-color="#8D969F"/>
</linearGradient>
<linearGradient id="paint6_linear_5155_52029" x1="237" y1="206" x2="237" y2="201.5" gradientUnits="userSpaceOnUse">
<stop stop-color="white"/>
<stop offset="0.235577" stop-color="#8D969F"/>
<stop offset="0.617788" stop-color="white"/>
<stop offset="1" stop-color="#8D969F"/>
</linearGradient>
<linearGradient id="paint7_linear_5155_52029" x1="237" y1="271" x2="237" y2="266.5" gradientUnits="userSpaceOnUse">
<stop stop-color="white"/>
<stop offset="0.235577" stop-color="#8D969F"/>
<stop offset="0.617788" stop-color="white"/>
<stop offset="1" stop-color="#8D969F"/>
</linearGradient>
<linearGradient id="paint8_linear_5155_52029" x1="220" y1="238" x2="224" y2="238" gradientUnits="userSpaceOnUse">
<stop stop-color="white"/>
<stop offset="0.235577" stop-color="#8D969F"/>
<stop offset="0.617788" stop-color="white"/>
<stop offset="1" stop-color="#8D969F"/>
</linearGradient>
<linearGradient id="paint9_linear_5155_52029" x1="226" y1="206.5" x2="226" y2="202" gradientUnits="userSpaceOnUse">
<stop stop-color="white"/>
<stop offset="0.235577" stop-color="#8D969F"/>
<stop offset="0.617788" stop-color="white"/>
<stop offset="1" stop-color="#8D969F"/>
</linearGradient>
<linearGradient id="paint10_linear_5155_52029" x1="226" y1="271.5" x2="226" y2="267" gradientUnits="userSpaceOnUse">
<stop stop-color="white"/>
<stop offset="0.235577" stop-color="#8D969F"/>
<stop offset="0.617788" stop-color="white"/>
<stop offset="1" stop-color="#8D969F"/>
</linearGradient>
<linearGradient id="paint11_linear_5155_52029" x1="85" y1="236" x2="85" y2="314" gradientUnits="userSpaceOnUse">
<stop stop-color="#FF9D00"/>
<stop offset="1" stop-color="#FF5900"/>
</linearGradient>
<clipPath id="clip0_5155_52029">
<rect width="360" height="360" rx="8" fill="white"/>
</clipPath>
</defs>
</svg>
