<svg width="360" height="360" viewBox="0 0 360 360" fill="none" xmlns="http://www.w3.org/2000/svg">
<g clip-path="url(#clip0_4425_25061)">
<rect width="360" height="360" rx="8" fill="#072144"/>
<g clip-path="url(#clip1_4425_25061)">
<path fill-rule="evenodd" clip-rule="evenodd" d="M240.906 71.4334C238.65 71.4334 236.576 73.2513 236.576 75.4424C236.576 77.8102 238.65 79.637 240.906 79.637C243.168 79.637 245.242 77.8102 245.242 75.4424C245.242 73.2513 243.168 71.4334 240.906 71.4334ZM40.6068 34.4031L54.3694 61.1906C55.2034 62.8049 55.9233 64.3513 56.531 65.8245C57.1315 67.3066 57.7873 68.8049 58.4983 70.3424H58.7496C58.5821 68.5227 58.468 66.5816 58.4039 64.5227C58.3433 62.4638 58.3148 60.3834 58.3148 58.2816V34.4031H65.4447V79.1906H55.9982L42.9199 54.0352C42.2142 52.7441 41.4729 51.2691 40.7013 49.6102C39.9314 47.9566 39.1865 46.2602 38.4809 44.5245H38.2296C38.3971 46.6245 38.5201 48.687 38.6038 50.7066C38.6894 52.7245 38.7303 54.7281 38.7303 56.7084V79.1906H31.5381V34.4031H40.6068ZM72.3803 60.0031C72.3803 55.1513 73.6776 51.5138 76.2616 49.1049C78.8437 46.6959 82.3917 45.4906 86.8967 45.4906C95.862 45.4906 100.344 50.3799 100.344 60.1513V64.1031H80.0127V66.0388C80.0127 71.1263 82.308 73.6709 86.8967 73.6709C88.9781 73.6709 90.4821 73.2816 91.4016 72.4977C92.3158 71.7084 92.8148 70.7477 92.9039 69.6138H99.909C99.4475 72.7656 98.2179 75.2441 96.2167 77.037C94.2137 78.8388 91.1664 79.7334 87.0838 79.7334C77.2827 79.7334 72.3803 74.8977 72.3803 65.2209V60.0031ZM93.091 58.7049C93.091 56.0388 92.5992 54.1799 91.6208 53.1281C90.6389 52.0781 89.0226 51.5513 86.7684 51.5513C84.3947 51.5513 82.6822 52.1388 81.6415 53.3102C80.599 54.4834 80.0769 56.2763 80.0769 58.7049H93.091ZM115.571 37.4959V46.1031H122.455V51.3084H115.571V72.1584C115.571 73.4941 116.156 74.1584 117.321 74.1584C118.41 74.1584 119.337 74.0566 120.105 73.8584C120.876 73.6549 121.807 73.3334 122.892 72.8852L125.02 77.9781C124.016 78.5049 120.85 79.7334 117.261 79.7334C111.048 79.7334 107.941 76.8066 107.941 70.9495V51.3084H104.498V46.1031H107.941V40.0709L115.571 37.4959ZM137.565 79.1906H129.933V48.8316C132.062 47.6227 137.399 44.8691 147.641 45.6763V52.2834C142.009 51.9281 138.483 52.7906 137.565 53.0691V79.1906ZM203.503 54.6406C203.983 51.1995 205.321 45.5513 217.015 45.5513C227.495 45.5513 228.94 50.6066 229.402 52.0977C229.86 53.5959 230.089 55.3709 230.089 57.4316V77.0709C225.8 78.6352 223.745 79.7334 213.7 79.7334C209.944 79.7334 207.164 78.937 205.346 77.3406C203.534 75.7424 202.625 73.1941 202.625 69.6745V68.2781C202.625 64.887 203.534 62.4834 205.346 61.0709C207.164 59.6602 209.944 58.9477 213.7 58.9477C216.325 58.9477 218.316 59.0477 219.674 59.2477C221.026 59.4549 221.999 59.6602 222.584 59.8566V56.3406C222.584 54.7263 222.135 53.5049 221.236 52.6763C220.342 51.8459 218.87 51.4352 216.828 51.4352C214.948 51.4352 213.479 51.6674 212.414 52.1299C211.353 52.5906 210.715 53.4299 210.507 54.6406H203.503ZM210.193 70.7066C210.193 72.9227 211.341 74.0352 213.636 74.0352C216.266 74.0352 218.243 73.9602 219.579 73.7977C220.912 73.637 221.915 73.4138 222.584 73.1299V65.1316C221.748 64.887 220.645 64.6852 219.264 64.5227C217.888 64.362 216.012 64.2834 213.636 64.2834C211.341 64.2834 210.193 65.2459 210.193 67.1941V70.7066ZM160.829 79.1906H153.2V46.1013H160.829V79.1906ZM157.012 32.4352C154.756 32.4352 152.682 34.2549 152.682 36.4424C152.682 38.8138 154.756 40.6406 157.012 40.6406C159.272 40.6406 161.346 38.8138 161.346 36.4424C161.346 34.2549 159.272 32.4352 157.012 32.4352ZM196.719 72.2191C196.32 71.1727 195.707 70.0781 194.873 68.9477C194.873 68.9477 188.094 60.262 187.681 59.8566V59.6799C188.094 59.437 191.124 57.0888 192.494 55.9191C194.037 54.6209 195.142 53.2781 195.814 51.8834C196.481 50.4941 196.814 48.9513 196.814 47.2513V46.162H189.431V47.9763C189.431 49.3906 188.912 50.5459 187.87 51.4352L180.302 58.037C179.09 59.087 178.181 59.887 177.577 60.4334C176.969 60.9799 176.504 61.4513 176.169 61.8584V31.4941L168.535 33.9816V79.1888H176.169V69.0566C177.194 68.3941 178.222 67.6656 179.266 66.8245C180.369 65.9352 181.508 64.9674 182.677 63.9191C182.8 64.3227 183.156 64.9084 183.737 65.6816C184.318 66.4459 185.09 67.5334 186.054 68.9477L188.554 72.7066C189.386 73.8799 189.807 75.1299 189.807 76.4656V79.1888H197.313V75.9763C197.313 74.5227 197.115 73.2745 196.719 72.2191Z" fill="#1DCBA4"/>
</g>
<rect opacity="0.08" x="30" y="271" width="300" height="100" fill="white"/>
<path d="M31 254C31 249.029 35.0294 245 40 245H320C324.971 245 329 249.029 329 254V457C329 461.971 324.971 466 320 466H40C35.0294 466 31 461.971 31 457V254Z" stroke="white" stroke-width="2"/>
<circle cx="46" cy="259" r="6" fill="#1DCBA4"/>
<rect x="281" y="257" width="23" height="4" rx="2" fill="white"/>
<rect x="119" y="257" width="23" height="4" rx="2" fill="#1DCBA4"/>
<rect x="308" y="257" width="12" height="4" rx="2" fill="#1DCBA4"/>
<rect x="268" y="328" width="52" height="7" rx="3.5" fill="#1DCBA4"/>
<rect opacity="0.08" x="40" y="339" width="280" height="34" fill="white"/>
<rect x="40" y="333" width="97" height="2" rx="1" fill="white" fill-opacity="0.3"/>
<rect x="61" y="257" width="54" height="4" rx="2" fill="white"/>
<rect x="61" y="257" width="54" height="4" rx="2" fill="white"/>
<rect opacity="0.08" x="40" y="281" width="52" height="34" fill="white"/>
<circle cx="46" cy="287" r="1" fill="#1DCBA4"/>
<rect x="49" y="286" width="15" height="2" rx="1" fill="white" fill-opacity="0.3"/>
<rect x="45" y="293" width="42" height="1" rx="0.5" fill="#1DCBA4"/>
<rect x="45" y="300" width="30" height="4" rx="2" fill="white"/>
<rect x="45" y="306" width="15" height="4" rx="2" fill="white"/>
<rect opacity="0.08" x="97" y="281" width="52" height="34" fill="white"/>
<circle cx="103" cy="287" r="1" fill="#1DCBA4"/>
<rect x="106" y="286" width="30" height="2" rx="1" fill="white" fill-opacity="0.3"/>
<rect x="102" y="293" width="42" height="1" rx="0.5" fill="#1DCBA4"/>
<rect x="102" y="300" width="19" height="4" rx="2" fill="white"/>
<rect x="102" y="306" width="37" height="4" rx="2" fill="white"/>
<rect opacity="0.08" x="154" y="281" width="52" height="34" fill="white"/>
<circle cx="160" cy="287" r="1" fill="#1DCBA4"/>
<rect x="163" y="286" width="7" height="2" rx="1" fill="white" fill-opacity="0.3"/>
<rect x="159" y="293" width="42" height="1" rx="0.5" fill="#1DCBA4"/>
<rect x="159" y="300" width="34" height="4" rx="2" fill="white"/>
<rect x="159" y="306" width="23" height="4" rx="2" fill="white"/>
<rect opacity="0.16" x="211" y="281" width="52" height="34" fill="#1DCBA4"/>
<circle cx="217" cy="287" r="1" fill="#1DCBA4"/>
<rect x="220" y="286" width="19" height="2" rx="1" fill="#1DCBA4" fill-opacity="0.3"/>
<rect x="216" y="293" width="42" height="1" rx="0.5" fill="#1DCBA4"/>
<rect x="216" y="300" width="34" height="4" rx="2" fill="#1DCBA4"/>
<rect x="216" y="306" width="23" height="4" rx="2" fill="#1DCBA4"/>
<rect opacity="0.08" x="268" y="281" width="52" height="34" fill="white"/>
<circle cx="274" cy="287" r="1" fill="#1DCBA4"/>
<rect x="277" y="286" width="19" height="2" rx="1" fill="white" fill-opacity="0.3"/>
<rect x="273" y="293" width="42" height="1" rx="0.5" fill="#1DCBA4"/>
<rect x="273" y="300" width="17" height="4" rx="2" fill="white"/>
<rect x="273" y="306" width="39" height="4" rx="2" fill="white"/>
<path d="M96 245V227L79 210V164L58 143" stroke="white" stroke-width="2"/>
<circle cx="81" cy="204" r="19" fill="#1DCBA4"/>
<circle cx="50.5" cy="135.5" r="13.5" fill="#1D60BA"/>
<path d="M90.6875 212.039C91.0781 212.391 91.0781 212.977 90.6875 213.367L89.8281 214.227C89.4375 214.617 88.8516 214.617 88.5 214.227L83.6562 209.383C82.3281 210.242 80.7656 210.75 79.125 210.75C74.6328 210.75 71 207.117 71 202.625C71 198.172 74.6328 194.5 79.125 194.5C83.5781 194.5 87.25 198.172 87.25 202.625C87.25 204.305 86.7031 205.867 85.8438 207.195L90.6875 212.039ZM74.125 202.625C74.125 205.398 76.3516 207.625 79.125 207.625C81.8594 207.625 84.125 205.398 84.125 202.625C84.125 199.891 81.8594 197.625 79.125 197.625C76.3516 197.625 74.125 199.891 74.125 202.625Z" fill="white"/>
<path d="M54.25 129.281H45.3438C44.8164 129.281 44.4062 129.721 44.4062 130.219V139.125C43.6152 139.125 43 138.51 43 137.719V129.75C43 128.725 43.8203 127.875 44.875 127.875H52.8438C53.6055 127.875 54.25 128.52 54.25 129.281ZM57.0625 132.094V139.125L54.25 141.938H47.2188C46.4277 141.938 45.8125 141.322 45.8125 140.531V132.094C45.8125 131.332 46.4277 130.688 47.2188 130.688H55.6562C56.418 130.688 57.0625 131.332 57.0625 132.094ZM54.25 135.609C54.25 135.492 54.1328 135.375 54.0156 135.375H52.375V133.734C52.375 133.617 52.2578 133.5 52.1406 133.5H50.7344C50.5879 133.5 50.5 133.617 50.5 133.734V135.375H48.8594C48.7129 135.375 48.625 135.492 48.625 135.609V137.016C48.625 137.162 48.7129 137.25 48.8594 137.25H50.5V138.891C50.5 139.037 50.5879 139.125 50.7344 139.125H52.1406C52.2578 139.125 52.375 139.037 52.375 138.891V137.25H54.0156C54.1328 137.25 54.25 137.162 54.25 137.016V135.609Z" fill="white"/>
<path d="M141 244V204L174 171V129" stroke="white" stroke-width="2"/>
<circle cx="174" cy="124" r="19" fill="#1DCBA4"/>
<path d="M181.5 118.914C183.219 118.914 184.625 120.281 184.625 122.039C184.625 123.289 183.844 124.383 182.75 124.891V127.938C182.75 131.57 179.664 134.5 175.875 134.5C172.125 134.5 169.078 131.688 169 128.133C166.148 127.547 164 125.047 164 122V115.945C164 115.516 164.312 115.125 164.742 115.008L167.203 114.539C167.711 114.422 168.18 114.773 168.297 115.281L168.414 115.906C168.531 116.414 168.18 116.883 167.672 117L166.461 117.234V122C166.461 124.109 168.18 125.789 170.25 125.75C172.32 125.75 173.961 124.031 173.961 121.961V117.234L172.789 117C172.281 116.883 171.93 116.375 172.047 115.867L172.164 115.281C172.281 114.773 172.75 114.422 173.258 114.539L175.719 115.047C176.148 115.125 176.5 115.516 176.5 115.945V122C176.5 125.047 174.352 127.547 171.5 128.133C171.578 130.281 173.531 132 175.875 132C178.258 132 180.25 130.203 180.25 127.938V124.891C179.117 124.383 178.375 123.289 178.375 122.039C178.375 120.281 179.742 118.914 181.5 118.914ZM181.5 122.938C182.008 122.938 182.438 122.547 182.438 122C182.438 121.492 182.008 121.062 181.5 121.062C180.953 121.062 180.562 121.492 180.562 122C180.562 122.547 180.953 122.938 181.5 122.938Z" fill="white"/>
<circle cx="142.5" cy="202.5" r="13.5" fill="#1D60BA"/>
<path d="M147.656 196.75C148.418 196.75 149.062 197.395 149.062 198.156V199.562H135.938V198.156C135.938 197.395 136.553 196.75 137.344 196.75H138.75V195.812C138.75 195.314 139.16 194.875 139.688 194.875C140.186 194.875 140.625 195.314 140.625 195.812V196.75H144.375V195.812C144.375 195.314 144.785 194.875 145.312 194.875C145.811 194.875 146.25 195.314 146.25 195.812V196.75H147.656ZM135.938 208.469V200.5H149.062V208.469C149.062 209.26 148.418 209.875 147.656 209.875H137.344C136.553 209.875 135.938 209.26 135.938 208.469Z" fill="white"/>
<path d="M202 244V227L217 212V178L261 132" stroke="white" stroke-width="2"/>
<circle cx="260.5" cy="129.5" r="13.5" fill="#1DCBA4"/>
<path d="M260.5 122.344C264.367 122.344 267.531 125.508 267.531 129.375C267.531 133.271 264.367 136.406 260.5 136.406C256.604 136.406 253.469 133.271 253.469 129.375C253.469 125.508 256.604 122.344 260.5 122.344ZM262.932 131.689C263.166 131.367 263.107 130.928 262.785 130.693L261.203 129.492V126.328C261.203 125.947 260.881 125.625 260.5 125.625C260.09 125.625 259.797 125.947 259.797 126.328V129.844C259.797 130.078 259.885 130.283 260.061 130.43L261.936 131.836C262.053 131.924 262.199 131.953 262.346 131.953C262.58 131.953 262.785 131.865 262.932 131.689Z" fill="white"/>
<circle cx="217" cy="176" r="19" fill="#1D60BA"/>
<path d="M220.75 172.375C220.75 176.203 217.078 179.25 212.625 179.25C211.102 179.25 209.734 178.938 208.523 178.312C207.547 178.82 206.297 179.25 204.773 179.25C204.656 179.25 204.539 179.211 204.5 179.094C204.461 178.977 204.461 178.859 204.578 178.781C204.578 178.742 205.477 177.805 206.102 176.516C205.086 175.344 204.5 173.938 204.5 172.375C204.5 168.586 208.133 165.5 212.625 165.5C217.078 165.5 220.75 168.586 220.75 172.375ZM227.898 182.844C228.523 184.094 229.383 184.992 229.383 185.031C229.5 185.109 229.5 185.227 229.461 185.344C229.422 185.461 229.305 185.5 229.188 185.5C227.781 185.5 226.57 185.148 225.594 184.68C224.539 185.188 223.289 185.5 222 185.5C218.445 185.5 215.516 183.312 214.695 180.305C218.875 179.484 222 176.242 222 172.375C222 172.18 221.961 171.984 221.961 171.789C221.961 171.789 221.961 171.75 222 171.75C226.141 171.75 229.5 174.836 229.5 178.625C229.5 180.227 228.875 181.672 227.898 182.844Z" fill="white"/>
<path d="M261 244V218L298 181V83" stroke="white" stroke-width="2"/>
<circle cx="297.5" cy="80.5" r="13.5" fill="#1D60BA"/>
<path d="M297.5 80.375C295.42 80.375 293.75 78.7051 293.75 76.625C293.75 74.5742 295.42 72.875 297.5 72.875C299.551 72.875 301.25 74.5742 301.25 76.625C301.25 78.7051 299.551 80.375 297.5 80.375ZM298.965 81.7812C301.777 81.7812 304.062 84.0664 304.062 86.8789C304.062 87.4355 303.594 87.875 303.037 87.875H291.934C291.377 87.875 290.938 87.4355 290.938 86.8789C290.938 84.0664 293.193 81.7812 296.006 81.7812H298.965Z" fill="white"/>
<circle cx="298" cy="183" r="19" fill="#1DCBA4"/>
<path d="M309.36 182.979C309.36 183.682 308.774 184.232 308.11 184.232H306.86L306.888 190.489C306.896 191.875 305.775 193 304.388 193H291.875C290.496 193 289.375 191.879 289.375 190.5V184.236H288.126C287.423 184.236 286.876 183.689 286.876 182.982C286.876 182.631 286.993 182.318 287.267 182.045L297.276 173.312C297.55 173.039 297.862 173 298.135 173C298.409 173 298.721 173.078 298.956 173.273L303.119 176.933V175.5C303.119 174.808 303.677 174.25 304.369 174.25H305.618C306.31 174.25 306.868 174.808 306.868 175.5V180.225L308.93 182.037C309.243 182.311 309.399 182.623 309.36 182.975V182.979ZM297.495 180.499C297.151 180.499 296.87 180.78 296.87 181.123V182.998H294.995C294.652 182.998 294.371 183.279 294.371 183.623V184.873C294.371 185.216 294.652 185.498 294.995 185.498H296.87V187.372C296.87 187.716 297.151 187.997 297.495 187.997H298.745C299.088 187.997 299.37 187.716 299.37 187.372V185.498H301.244C301.588 185.498 301.869 185.216 301.869 184.873V183.623C301.869 183.279 301.588 182.998 301.244 182.998H299.37V181.123C299.37 180.78 299.088 180.499 298.745 180.499H297.495Z" fill="white"/>
</g>
<defs>
<clipPath id="clip0_4425_25061">
<rect width="360" height="360" rx="8" fill="white"/>
</clipPath>
<clipPath id="clip1_4425_25061">
<rect width="215.625" height="50" fill="white" transform="translate(30 30)"/>
</clipPath>
</defs>
</svg>
