<svg width="360" height="360" viewBox="0 0 360 360" fill="none" xmlns="http://www.w3.org/2000/svg">
<g clip-path="url(#clip0_1807_21398)">
<rect width="360" height="360" rx="8" fill="#001E35"/>
<path fill-rule="evenodd" clip-rule="evenodd" d="M341 249.806C340.982 159.885 268.907 87 180 87C91.081 87 19 159.896 19 249.842C19 280.309 91.0869 305 180.006 305C268.919 305 341 280.309 341 249.842V249.806Z" fill="#002540"/>
<path fill-rule="evenodd" clip-rule="evenodd" d="M152.259 82.6147C152.081 78.8421 148.755 78.7149 146.688 79.0935C146.672 79.0965 146.655 79.0975 146.639 79.0995C146.658 80.1931 146.687 81.7264 146.723 83.507C146.736 84.2221 146.754 85.0133 146.775 85.8275C150.526 86.9762 152.38 85.1996 152.259 82.6147ZM156.147 82.5076C156.147 87.4148 152.273 88.866 149.291 88.866C148.301 88.866 147.424 88.7418 146.843 88.5936C146.907 91.0252 146.968 93.2084 146.987 93.8554C146.924 93.9095 146.873 93.9716 146.827 94.0387C146.491 94.0166 145.686 93.9666 144.933 93.9666C144.194 93.9666 143.406 94.0146 143.058 94.0377C143.009 93.9686 142.951 93.9055 142.885 93.8514C142.934 92.881 143.144 88.5545 143.144 85.1775C143.144 81.7825 142.932 77.5983 142.884 76.6989C142.941 76.6378 142.986 76.5737 143.026 76.5016C143.2 76.4826 143.515 76.4526 143.883 76.4265C144.859 76.3184 146.592 76.1571 148.172 76.1571C153.201 76.1571 156.147 78.796 156.147 82.5076ZM143.114 68.4066C142.451 67.2789 139.655 61.7678 138.101 58.1304C136.637 54.7013 135.424 51.7709 135.058 50.8175C134.928 50.8085 134.811 50.7804 134.706 50.7384C134.206 50.9457 132.958 51.4715 131.482 51.8921C131.447 52.0033 131.395 52.1064 131.326 52.1995C131.389 52.3378 131.48 52.5391 131.595 52.7964C131.595 52.7964 128.393 61.1589 124.078 68.5398C124.141 68.5839 124.197 68.635 124.245 68.691C124.891 68.645 126.645 68.5498 128.585 68.7111C128.585 68.7111 130.167 64.0962 133.204 56.3858C133.657 57.4063 134.176 58.569 134.734 59.8369C136.443 63.7036 138.219 68.7111 138.219 68.7111C138.219 68.7111 139.302 68.6069 140.45 68.6069C141.244 68.6069 142.52 68.656 142.971 68.688C143.004 68.5879 143.051 68.4927 143.114 68.4066ZM320.013 58.3747C320.013 55.0969 320.067 52.0063 320.084 51.187C320.013 51.131 319.948 51.0639 319.895 50.9908C319.584 51.0158 318.931 51.0589 318.222 51.0589C317.467 51.0589 316.8 51.0098 316.531 50.9867C316.491 51.0058 316.451 51.0228 316.41 51.0378C316.387 51.0468 316.363 51.0538 316.34 51.0599C315.885 51.7339 313.106 55.849 311.341 58.1955C310.279 59.6055 308.505 61.913 307.126 63.7006C307.124 62.9135 307.122 62.0782 307.122 61.23C307.122 57.7818 307.34 52.2096 307.384 51.144C307.303 51.0979 307.234 51.0428 307.171 50.9787C306.808 51.0038 306.05 51.0468 305.333 51.0468C304.583 51.0468 303.784 50.9988 303.444 50.9747C303.4 51.0498 303.345 51.1199 303.282 51.182C303.329 52.3327 303.543 57.8189 303.543 61.23C303.543 64.5078 303.488 67.6004 303.471 68.4176C303.544 68.4767 303.608 68.5408 303.661 68.6149C303.972 68.5899 304.625 68.5458 305.334 68.5458C306.075 68.5458 306.733 68.5939 307.013 68.6169C307.047 68.5959 307.082 68.5779 307.118 68.5618C307.152 68.5458 307.184 68.5308 307.219 68.5178C307.636 67.9189 309.739 65.5043 313.091 60.7022C314.274 59.0077 315.582 57.3302 316.431 56.2686C316.433 56.9476 316.434 57.6567 316.434 58.3747C316.434 61.8228 316.215 67.3971 316.172 68.4607C316.252 68.5078 316.322 68.5648 316.384 68.6259C316.75 68.6029 317.507 68.5578 318.223 68.5578C318.972 68.5578 319.771 68.6079 320.112 68.6299C320.155 68.5548 320.21 68.4867 320.275 68.4226C320.227 67.2749 320.013 61.7858 320.013 58.3747ZM113.379 68.8553C118.854 68.8553 122.836 65.2509 122.836 59.8369C122.836 54.8565 118.628 50.8195 113.151 50.8195C111.279 50.8195 109.53 51.2932 108.037 52.1114C108.037 52.1114 108.1 52.6732 108.1 53.3212C108.1 54.1735 108.05 55.2471 108.05 55.2471C108.139 55.2671 108.219 55.2961 108.292 55.3322C108.866 54.8535 109.832 54.2326 111.287 53.863C114.3 53.0959 117.944 54.7603 118.81 58.3667C118.813 58.3827 118.816 58.3957 118.819 58.4118C115.893 58.3917 112.69 58.1904 112.009 58.1233C111.947 58.1784 111.876 58.2245 111.797 58.2646C111.78 59.248 111.623 60.6301 111.567 61.0827C111.624 61.1258 111.674 61.1729 111.719 61.226C112.329 61.1839 115.529 61.0477 118.951 61.0387C118.637 63.3211 117.196 65.2199 115.016 65.8128C113.529 66.2134 111.218 66.1533 109.76 65.2479C108.717 64.6 107.933 63.8158 107.933 63.8158C107.858 63.8478 107.776 63.8699 107.688 63.8849C107.708 64.3406 107.737 65.0496 107.737 65.5984C107.737 66.3986 107.671 67.2499 107.671 67.2499C109.375 68.3245 111.335 68.8553 113.379 68.8553ZM134.77 84.0809C134.081 80.9292 131.006 78.8822 127.9 79.5071C124.795 80.132 122.838 83.1926 123.528 86.3453C124.22 89.4949 127.294 91.543 130.399 90.918C133.504 90.2931 135.461 87.2316 134.77 84.0809ZM138.879 84.9271C139.04 89.9656 134.814 94.1799 129.44 94.3381C124.067 94.4964 119.58 90.5395 119.421 85.499C119.259 80.4605 123.484 76.2463 128.858 76.087C134.232 75.9288 138.718 79.8857 138.879 84.9271ZM174.57 84.0809C173.879 80.9292 170.804 78.8822 167.698 79.5071C164.595 80.132 162.637 83.1926 163.328 86.3453C164.017 89.4949 167.094 91.543 170.198 90.918C173.302 90.2931 175.26 87.2316 174.57 84.0809ZM178.678 84.9271C178.841 89.9656 174.613 94.1799 169.239 94.3381C163.865 94.4964 159.379 90.5395 159.219 85.499C159.058 80.4605 163.284 76.2463 168.657 76.087C174.032 75.9288 178.518 79.8857 178.678 84.9271ZM229.937 58.6151C229.246 55.4654 226.171 53.4174 223.066 54.0423C219.961 54.6672 218.003 57.7278 218.695 60.8784C219.384 64.0291 222.46 66.0772 225.565 65.4522C228.669 64.8273 230.627 61.7678 229.937 58.6151ZM234.045 59.4613C234.206 64.5008 229.981 68.7151 224.607 68.8733C219.233 69.0315 214.745 65.0737 214.586 60.0342C214.425 54.9937 218.652 50.7794 224.025 50.6232C229.398 50.463 233.885 54.4218 234.045 59.4613ZM281.769 59.263C281.769 59.263 281.736 60.6821 281.72 61.4953C281.685 63.27 281.655 64.7963 281.636 65.8879C281.73 65.8859 281.824 65.8929 281.914 65.9079C283.982 66.2875 287.308 66.1603 287.485 62.3887C287.607 59.7998 285.669 57.9711 281.769 59.263ZM291.374 62.4958C291.374 66.2053 288.428 68.8453 283.398 68.8453C281.947 68.8453 280.365 68.7081 279.361 68.6039C278.792 68.5789 278.27 68.5278 278.023 68.4998C277.984 68.4296 277.937 68.3645 277.881 68.3035C277.93 67.4041 278.141 63.2209 278.141 59.8259C278.141 56.4489 277.932 52.1214 277.882 51.152C277.949 51.0959 278.007 51.0348 278.056 50.9647C278.404 50.9877 279.192 51.0358 279.931 51.0358C280.685 51.0358 281.488 50.9857 281.825 50.9637C281.87 51.0298 281.923 51.0919 281.984 51.148C281.965 51.799 281.903 54.0162 281.838 56.4759C281.865 56.4679 281.89 56.4569 281.917 56.4489C282.491 56.2836 283.44 56.1374 284.518 56.1374C287.5 56.1374 291.374 57.5875 291.374 62.4958ZM298.07 51.157C298.008 51.1029 297.955 51.0428 297.91 50.9757C297.569 50.9998 296.77 51.0468 296.021 51.0468C295.266 51.0468 294.463 50.9988 294.125 50.9747C294.082 51.0428 294.031 51.1029 293.973 51.158C293.973 51.158 294.232 55.5135 294.232 59.8369C294.232 64.1263 293.973 68.5038 293.973 68.5038C294.044 68.5618 294.107 68.6249 294.158 68.6981C294.512 68.673 295.29 68.6269 296.021 68.6269C296.779 68.6269 297.722 68.677 298.118 68.6991C298.166 68.6229 298.221 68.5518 298.288 68.4897C298.288 68.4897 297.81 65.317 297.81 59.8369C297.81 54.8765 298.07 51.157 298.07 51.157ZM207.409 57.2751C207.23 53.5035 203.904 53.3763 201.838 53.7549C201.822 53.7579 201.805 53.7589 201.79 53.7599C201.807 54.8535 201.836 56.3878 201.873 58.1664C201.886 58.8835 201.904 59.6726 201.923 60.4879C205.676 61.6376 207.53 59.8599 207.409 57.2751ZM211.297 57.1669C211.297 62.0762 207.425 63.5264 204.441 63.5264C203.451 63.5264 202.574 63.4022 201.992 63.253C202.055 65.6866 202.118 67.8688 202.137 68.5148C202.074 68.5709 202.023 68.633 201.977 68.6991C201.64 68.676 200.837 68.6269 200.083 68.6269C199.344 68.6269 198.556 68.674 198.208 68.698C198.159 68.6289 198.101 68.5669 198.034 68.5108C198.084 67.5423 198.294 63.2139 198.294 59.8369C198.294 56.4429 198.082 52.2576 198.034 51.3583C198.09 51.2982 198.136 51.2331 198.177 51.164C198.35 51.144 198.663 51.1119 199.033 51.0879C200.009 50.9797 201.742 50.8165 203.322 50.8165C208.352 50.8165 211.297 53.4574 211.297 57.1669ZM150.164 65.7246C150.12 64.3626 150.075 62.6871 150.058 61.0797C152.308 61.1218 153.791 61.2139 154.272 61.248C154.316 61.1959 154.367 61.1468 154.424 61.1038C154.369 60.6451 154.211 59.239 154.195 58.2375C154.116 58.1975 154.043 58.1504 153.982 58.0953C153.458 58.1464 151.992 58.2796 150.056 58.3487C150.065 56.8224 150.084 55.2511 150.105 53.9622C154.224 53.9642 156.156 54.0493 156.685 54.0843C156.732 54.0183 156.791 53.9592 156.857 53.9061C156.798 53.4093 156.649 52.0553 156.632 51.0829C156.557 51.0368 156.492 50.9827 156.435 50.9227C155.745 50.9637 153.088 51.0959 150.075 51.0989C149.912 51.0969 149.509 51.0919 148.78 51.0919C148.063 51.0919 147.129 51.0248 146.617 50.9868C146.532 51.0649 146.432 51.131 146.316 51.177C146.366 52.1745 146.575 56.4779 146.575 59.8369C146.575 63.1819 146.368 67.4592 146.317 68.4837C146.401 68.5438 146.473 68.6159 146.533 68.698C146.851 68.678 147.359 68.643 148.035 68.6089C149.198 68.5478 150.267 68.5729 150.267 68.5729C154.598 68.5729 156.52 68.655 157.011 68.688C157.053 68.637 157.1 68.5899 157.152 68.5478C157.211 67.2148 157.466 65.4963 157.466 65.4963C157.403 65.4432 157.349 65.3811 157.303 65.317C156.631 65.3561 153.266 65.7116 150.164 65.7246ZM117.995 76.2382C117.458 76.2733 117.118 76.3554 112.888 76.3554C112.549 76.3785 110.406 76.3865 109.657 76.3865C108.902 76.3865 108.1 76.3374 107.763 76.3144C107.718 76.3805 107.667 76.4425 107.609 76.4986C107.609 76.4986 107.869 80.8531 107.869 85.1775C107.869 89.4669 107.609 93.8424 107.609 93.8424C107.681 93.9015 107.744 93.9646 107.794 94.0367C108.148 94.0126 108.928 93.9666 109.657 93.9666C110.415 93.9666 111.359 94.0166 111.755 94.0387C111.801 93.9626 111.857 93.8925 111.925 93.8284C111.925 93.8284 111.448 90.6547 111.448 85.1775C111.448 82.823 111.477 80.7529 111.509 79.2227C114.472 79.2297 117.065 79.3579 117.747 79.3989C117.802 79.3388 117.869 79.2858 117.944 79.2397C117.961 78.2653 118.11 76.9132 118.168 76.4165C118.101 76.3634 118.044 76.3033 117.995 76.2382ZM190.579 91.3347C191.588 91.3347 192.793 91.3206 194.014 91.3006C193.396 89.513 192.542 87.1314 191.7 85.0674C191.285 84.0589 190.898 83.1155 190.543 82.2582C188.806 85.7003 187.209 89.0473 186.155 91.2826C187.701 91.3126 189.299 91.3347 190.579 91.3347ZM200.75 91.3567C200.966 92.5975 201.267 93.6852 201.396 94.1238C201.331 94.1869 201.274 94.254 201.229 94.3271C200.146 94.3021 195.373 94.1949 190.579 94.1949C185.785 94.1949 181.012 94.3021 179.929 94.3271C179.884 94.254 179.828 94.1869 179.764 94.1238C179.891 93.6852 180.194 92.5975 180.409 91.3567C180.515 91.3006 180.604 91.2315 180.68 91.1514C181.011 91.1614 181.677 91.1804 182.535 91.2015C185.632 85.5821 188.213 79.9578 188.93 78.3674C188.736 77.8987 188.591 77.5512 188.505 77.3469C188.576 77.2558 188.63 77.1526 188.668 77.0444C190.157 76.6619 191.419 76.1671 191.924 75.9719C192.027 76.0159 192.144 76.046 192.276 76.06C192.613 77.0214 193.743 79.9818 195.112 83.4459C196.045 85.8075 197.466 88.9521 198.531 91.2045C199.434 91.1824 200.136 91.1614 200.478 91.1514C200.555 91.2315 200.645 91.3006 200.75 91.3567ZM273.107 51.157C273.046 51.1029 272.992 51.0428 272.946 50.9757C272.606 50.9998 271.808 51.0468 271.058 51.0468C270.304 51.0468 269.499 50.9988 269.163 50.9747C269.12 51.0428 269.069 51.1029 269.009 51.158C269.009 51.158 269.214 54.5861 269.26 58.3757C268.238 58.4108 266.983 58.4388 265.611 58.4388C264.241 58.4388 262.991 58.4108 261.971 58.3757C262.014 54.1645 262.224 51.157 262.224 51.157C262.162 51.1029 262.109 51.0428 262.063 50.9757C261.723 50.9998 260.924 51.0468 260.174 51.0468C259.419 51.0468 258.615 50.9988 258.279 50.9747C258.235 51.0428 258.185 51.1029 258.127 51.158C258.127 51.158 258.385 55.5135 258.385 59.8369C258.385 64.1263 258.127 68.5038 258.127 68.5038C258.197 68.5618 258.26 68.6249 258.311 68.6981C258.666 68.673 259.444 68.6269 260.174 68.6269C260.932 68.6269 261.874 68.677 262.27 68.6991C262.317 68.6229 262.374 68.5518 262.443 68.4897C262.443 68.4897 262.049 65.8869 261.975 61.3291C262.899 61.3121 264.09 61.3011 265.611 61.3011C267.14 61.3011 268.333 61.3121 269.259 61.3291C269.213 65.0847 269.01 68.5038 269.01 68.5038C269.082 68.5618 269.143 68.6249 269.196 68.6981C269.549 68.673 270.329 68.6269 271.058 68.6269C271.816 68.6269 272.758 68.677 273.155 68.6991C273.201 68.6229 273.258 68.5518 273.324 68.4897C273.324 68.4897 272.847 65.317 272.847 59.8369C272.847 54.8765 273.107 51.157 273.107 51.157ZM308.223 48.3608C308.593 48.3268 309.75 48.1856 311.806 48.1846C313.863 48.1856 315.017 48.3268 315.389 48.3608C315.441 48.2877 315.514 48.2156 315.514 48.2156C315.514 48.2156 315.731 46.6463 316.121 45.3434C316.121 45.3434 316.041 45.2572 316 45.1982C315.697 45.2292 314.627 45.3233 311.806 45.3243C308.983 45.3233 307.916 45.2292 307.612 45.1982C307.57 45.2572 307.491 45.3434 307.491 45.3434C307.88 46.6463 308.096 48.2156 308.096 48.2156C308.096 48.2156 308.168 48.2877 308.223 48.3608ZM185.523 53.883C185.53 55.1159 185.537 56.7153 185.537 58.4438C185.537 61.8929 185.317 67.4652 185.274 68.5308C185.357 68.5759 185.426 68.633 185.489 68.696C185.851 68.671 186.611 68.6269 187.326 68.6269C188.076 68.6269 188.875 68.676 189.215 68.698C189.259 68.6239 189.314 68.5538 189.376 68.4917C189.33 67.342 189.115 61.8549 189.115 58.4438C189.115 56.7153 189.131 55.1159 189.149 53.883C192.426 53.9021 193.811 53.9742 194.233 54.0032C194.272 53.9491 194.316 53.9011 194.366 53.856C194.308 53.3923 194.141 51.9842 194.126 50.9837C194.078 50.9367 194.035 50.8866 193.997 50.8345C193.395 50.8696 190.69 51.0148 187.326 51.0148C184.077 51.0148 181.44 50.8796 180.723 50.8385C180.667 50.9006 180.603 50.9597 180.527 51.0068C180.509 52.0013 180.345 53.3813 180.288 53.849C180.346 53.8941 180.399 53.9451 180.445 54.0012C180.899 53.9712 182.297 53.9011 185.523 53.883ZM252.895 51.157C252.834 51.1029 252.78 51.0428 252.735 50.9757C252.395 50.9998 251.596 51.0468 250.847 51.0468C250.092 51.0468 249.288 50.9988 248.952 50.9747C248.908 51.0428 248.856 51.1029 248.797 51.158C248.797 51.158 249.002 54.5861 249.05 58.3757C248.027 58.4108 246.772 58.4388 245.398 58.4388C244.031 58.4388 242.78 58.4108 241.759 58.3757C241.801 54.1645 242.011 51.157 242.011 51.157C241.95 51.1029 241.897 51.0428 241.852 50.9757C241.511 50.9998 240.712 51.0468 239.963 51.0468C239.208 51.0468 238.403 50.9988 238.067 50.9747C238.024 51.0428 237.973 51.1029 237.913 51.158C237.913 51.158 238.174 55.5135 238.174 59.8369C238.174 64.1263 237.914 68.5038 237.914 68.5038C237.986 68.5618 238.048 68.6249 238.1 68.6981C238.454 68.673 239.231 68.6269 239.963 68.6269C240.721 68.6269 241.663 68.677 242.059 68.6991C242.105 68.6229 242.163 68.5518 242.229 68.4897C242.229 68.4897 241.837 65.8869 241.764 61.3291C242.688 61.3121 243.878 61.3011 245.398 61.3011C246.927 61.3011 248.122 61.3121 249.048 61.3291C249.001 65.0847 248.798 68.5038 248.798 68.5038C248.87 68.5618 248.931 68.6249 248.983 68.6981C249.337 68.673 250.115 68.6269 250.847 68.6269C251.606 68.6269 252.546 68.677 252.942 68.6991C252.989 68.6229 253.047 68.5518 253.112 68.4897C253.112 68.4897 252.636 65.317 252.636 59.8369C252.636 54.8765 252.895 51.157 252.895 51.157ZM178.226 68.4497C178.169 68.5378 178.125 68.634 178.094 68.7351C177.321 68.6981 175.274 68.636 173.22 68.7441C173.145 68.691 173.057 68.646 172.961 68.6129C172.628 67.8438 171.135 63.9119 168.804 60.6471C167.779 61.4272 167.135 61.7768 166.861 61.91C166.819 61.8969 166.326 62.1684 165.903 62.3977C166.015 66.3185 166.348 68.5308 166.348 68.5308C166.282 68.5939 166.224 68.666 166.177 68.7431C165.776 68.7201 164.827 68.671 164.063 68.671C163.327 68.671 162.544 68.7171 162.185 68.7411C162.133 68.669 162.07 68.6039 161.998 68.5458C161.998 68.5458 162.259 64.1333 162.259 59.8098C162.259 55.4504 161.998 51.0599 161.998 51.0599C162.059 51.0058 162.108 50.9427 162.152 50.8766C162.492 50.8986 163.302 50.9477 164.063 50.9477C164.819 50.9477 165.624 50.8996 165.968 50.8766C166.013 50.9427 166.068 51.0048 166.128 51.0589C166.128 51.0589 165.892 54.4659 165.868 59.1158C166.521 58.7232 167.466 58.0352 168.447 56.9186C170.951 54.0583 171.841 51.6918 172.054 51.0418C172.146 51.0008 172.228 50.9467 172.299 50.8846C174.071 51.0779 175.818 50.9387 176.465 50.8836C176.497 50.9507 176.535 51.0138 176.579 51.0729C176.124 51.9652 174.393 55.5395 171.228 58.581C172.176 59.9971 174.938 64.0692 178.226 68.4497Z" fill="white"/>
<path fill-rule="evenodd" clip-rule="evenodd" d="M90.1428 86.4422C90.1428 81.2637 77.1273 77.0669 61.0725 77.0669C45.0166 77.0669 32 81.2637 32 86.4422C32 101.729 45.0155 114.122 61.0714 114.122C77.1252 114.122 90.1397 101.733 90.1428 86.4473V86.4422Z" fill="#FE403C"/>
<path fill-rule="evenodd" clip-rule="evenodd" d="M86.9714 87.0813C86.9714 90.9531 75.3763 94.0922 61.0704 94.0922C46.7655 94.0922 35.1714 90.9531 35.1714 87.0813C35.1714 83.2094 46.7655 80.0714 61.0704 80.0714C75.3763 80.0714 86.9714 83.2094 86.9714 87.0813Z" fill="#BBFF00"/>
<path fill-rule="evenodd" clip-rule="evenodd" d="M90.1428 59.6733C90.1397 44.3887 77.1252 32 61.0714 32C45.0155 32 32 44.3907 32 59.6794C32 64.8581 45.0166 69.055 61.0725 69.055C77.1273 69.055 90.1428 64.8581 90.1428 59.6794V59.6733Z" fill="#FE403C"/>
<path opacity="0.7" fill-rule="evenodd" clip-rule="evenodd" d="M359 233.217C359 199.956 278.86 173 180.007 173C81.1463 173 1 199.956 1 233.217C1 331.405 81.1398 411 180 411C278.847 411 358.98 331.424 359 233.249V233.217Z" fill="#001220"/>
<rect x="74" y="149" width="211" height="449.688" rx="17.5625" fill="#001220" stroke="#001220" stroke-width="10"/>
<path fill-rule="evenodd" clip-rule="evenodd" d="M91.5925 154C84.6378 154 79 159.638 79 166.592V581.408C79 588.362 84.6379 594 91.5925 594H267.408C274.362 594 280 588.362 280 581.408V166.592C280 159.638 274.362 154 267.408 154H218V160.458C218 166.28 213.28 171 207.458 171H152.542C146.72 171 142 166.28 142 160.458V154H91.5925Z" fill="url(#paint0_linear_1807_21398)"/>
<rect x="96" y="172" width="18.9895" height="24.0842" rx="9.49474" fill="#FE403C"/>
<rect x="121.937" y="178.947" width="37.9789" height="5.09474" rx="2.54737" fill="white"/>
<rect x="124" y="231" width="114" height="4" rx="2" fill="white"/>
<path opacity="0.1" d="M93 344C93 341.791 94.7909 340 97 340H263C265.209 340 267 341.791 267 344V360H93V344Z" fill="white"/>
<rect x="159" y="296" width="43" height="4" rx="2" fill="white"/>
<rect x="152" y="252" width="57" height="24" rx="12" fill="#BBFF00"/>
<rect x="171.505" y="304.8" width="3.70526" height="3.70526" rx="1.85263" fill="white"/>
<rect opacity="0.2" x="178.453" y="304.8" width="3.70526" height="3.70526" rx="1.85263" fill="white"/>
<rect opacity="0.2" x="185.4" y="304.8" width="3.70526" height="3.70526" rx="1.85263" fill="white"/>
<rect x="253.284" y="178.947" width="10" height="10" rx="5" fill="white"/>
<rect x="238" y="178.947" width="10" height="10" rx="5" fill="white"/>
<rect x="121.937" y="186.821" width="25.9368" height="5.09474" rx="2.54737" fill="white"/>
<circle cx="88" cy="272" r="56" fill="#14507E"/>
<rect x="60.1098" y="244.549" width="7.90588" height="7.90588" fill="white"/>
<rect x="68.0157" y="244.549" width="7.90588" height="7.90588" fill="white"/>
<rect x="75.9216" y="244.549" width="7.90588" height="7.90588" fill="white"/>
<rect x="83.8275" y="244.549" width="7.90588" height="7.90588" fill="white"/>
<rect x="91.7333" y="252.455" width="7.90588" height="7.90588" fill="white"/>
<rect x="99.6392" y="260.361" width="7.90588" height="7.90588" fill="white"/>
<rect x="107.545" y="268.267" width="7.90588" height="7.90588" fill="white"/>
<rect x="107.545" y="276.173" width="7.90588" height="7.90588" fill="white"/>
<rect x="107.545" y="284.078" width="7.90588" height="7.90588" fill="white"/>
<rect x="107.545" y="291.984" width="7.90588" height="7.90588" fill="white"/>
<rect x="91.7333" y="291.984" width="7.90588" height="7.90588" fill="white"/>
<rect x="91.7333" y="284.078" width="7.90588" height="7.90588" fill="white"/>
<rect x="91.7333" y="276.173" width="7.90588" height="7.90588" fill="white"/>
<rect x="83.8275" y="268.267" width="7.90588" height="7.90588" fill="white"/>
<rect x="75.9216" y="260.361" width="7.90588" height="7.90588" fill="white"/>
<rect x="68.0157" y="260.361" width="7.90588" height="7.90588" fill="white"/>
<rect x="60.1098" y="260.361" width="7.90588" height="7.90588" fill="white"/>
<rect x="60.1098" y="276.173" width="7.90588" height="7.90588" fill="white"/>
<rect x="68.0157" y="276.173" width="7.90588" height="7.90588" fill="white"/>
<rect x="75.9216" y="284.078" width="7.90588" height="7.90588" fill="white"/>
<rect x="75.9216" y="291.984" width="7.90588" height="7.90588" fill="white"/>
<rect x="60.1098" y="291.984" width="7.90588" height="7.90588" fill="white"/>
<circle cx="272" cy="272" r="56" fill="#FE403C"/>
<rect x="236.204" y="244.549" width="7.90588" height="7.90588" fill="white"/>
<rect x="236.204" y="252.455" width="7.90588" height="7.90588" fill="white"/>
<rect x="236.204" y="260.361" width="7.90588" height="7.90588" fill="white"/>
<rect x="236.204" y="268.267" width="7.90588" height="7.90588" fill="white"/>
<rect x="236.204" y="276.173" width="7.90588" height="7.90588" fill="white"/>
<rect x="244.11" y="276.173" width="7.90588" height="7.90588" fill="white"/>
<rect x="252.016" y="276.173" width="7.90588" height="7.90588" fill="white"/>
<rect x="259.922" y="276.173" width="7.90588" height="7.90588" fill="white"/>
<rect x="267.827" y="276.173" width="7.90588" height="7.90588" fill="white"/>
<rect x="275.733" y="276.173" width="7.90588" height="7.90588" fill="white"/>
<rect x="275.733" y="284.078" width="7.90588" height="7.90588" fill="white"/>
<rect x="267.827" y="291.984" width="7.90588" height="7.90588" fill="white"/>
<rect x="267.827" y="299.89" width="7.90588" height="7.90588" fill="white"/>
<rect x="259.922" y="291.984" width="7.90588" height="7.90588" fill="white"/>
<rect x="259.922" y="299.89" width="7.90588" height="7.90588" fill="white"/>
<rect x="259.922" y="284.078" width="7.90588" height="7.90588" fill="white"/>
<rect x="244.11" y="244.549" width="7.90588" height="7.90588" fill="white"/>
<rect x="252.016" y="244.549" width="7.90588" height="7.90588" fill="white"/>
<rect x="252.016" y="260.361" width="7.90588" height="7.90588" fill="white"/>
<rect x="259.922" y="260.361" width="7.90588" height="7.90588" fill="white"/>
<rect x="259.922" y="244.549" width="7.90588" height="7.90588" fill="white"/>
<rect x="267.827" y="244.549" width="7.90588" height="7.90588" fill="white"/>
<rect x="275.733" y="244.549" width="7.90588" height="7.90588" fill="white"/>
<rect x="283.639" y="252.455" width="7.90588" height="7.90588" fill="white"/>
<rect x="283.639" y="260.361" width="7.90588" height="7.90588" fill="white"/>
<rect x="283.639" y="268.267" width="7.90588" height="7.90588" fill="white"/>
<rect x="291.545" y="268.267" width="7.90588" height="7.90588" fill="white"/>
<rect x="291.545" y="260.361" width="7.90588" height="7.90588" fill="white"/>
<rect x="299.451" y="252.455" width="7.90588" height="7.90588" fill="white"/>
<rect x="299.451" y="260.361" width="7.90588" height="7.90588" fill="white"/>
<rect x="299.451" y="268.267" width="7.90588" height="7.90588" fill="white"/>
<rect x="299.451" y="276.173" width="7.90588" height="7.90588" fill="white"/>
</g>
<defs>
<linearGradient id="paint0_linear_1807_21398" x1="179.5" y1="154" x2="179.5" y2="594" gradientUnits="userSpaceOnUse">
<stop stop-color="#001E35"/>
<stop offset="1" stop-color="#012B47"/>
</linearGradient>
<clipPath id="clip0_1807_21398">
<rect width="360" height="360" rx="8" fill="white"/>
</clipPath>
</defs>
</svg>
