<svg width="360" height="360" viewBox="0 0 360 360" fill="none" xmlns="http://www.w3.org/2000/svg">
<g clip-path="url(#clip0_2271_75362)">
<rect width="360" height="360" rx="8" fill="#EAEEF1"/>
<g clip-path="url(#clip1_2271_75362)">
<path d="M54.727 78C68.3833 78 79.454 67.2548 79.454 54C79.454 40.7452 68.3833 30 54.727 30C41.0707 30 30 40.7452 30 54C30 67.2548 41.0707 78 54.727 78Z" fill="#FF5034"/>
<path d="M209.428 55.9282C207.657 54.0487 205.059 52.7475 201.616 52.0086C204.661 51.4784 207.012 50.4021 208.634 48.7957C210.272 47.1893 211.083 45.117 211.067 42.611C211.05 39.1572 209.66 36.5226 206.896 34.7074C204.132 32.9082 200.077 32.0086 194.764 32.0246L186.869 32.0407H181.093V75.8961H181.424L186.985 75.9122H195.922C200.805 75.7997 204.694 74.6431 207.591 72.4583C210.603 70.1612 212.109 67.0608 212.093 63.1732C212.076 60.2174 211.199 57.8077 209.428 55.9282ZM191.52 38.4825C191.652 38.4825 191.818 38.4664 192.033 38.4503C192.314 38.4343 192.53 38.4182 192.679 38.4182C195.194 38.4182 197.147 38.8841 198.504 39.8319C199.878 40.7796 200.557 42.129 200.573 43.8961C200.573 45.631 199.928 46.9804 198.637 47.9443C197.329 48.9082 195.509 49.3901 193.142 49.3901C192.745 49.3901 192.43 49.3901 192.182 49.374C191.967 49.374 191.735 49.3419 191.52 49.3098V38.4825ZM199.299 67.4463C197.76 68.5708 195.575 69.133 192.728 69.1491C192.612 69.1491 192.414 69.133 192.132 69.117C191.851 69.1009 191.652 69.0849 191.503 69.0849V68.2816V55.88H192.53C195.492 55.864 197.727 56.4423 199.266 57.5828C200.788 58.7234 201.566 60.4102 201.583 62.6431C201.599 64.7154 200.838 66.3218 199.299 67.4463Z" fill="#2A2A2A"/>
<path d="M103.138 32.0557V49.2444H95.1939V32.0557H84.7668V75.9111H95.1939V56.4733H103.138V75.9111H113.565V32.0557H103.138Z" fill="#2A2A2A"/>
<path d="M133.095 68.6822V32.0557H122.668V75.9111H123.496H133.095H145.508V68.6822H133.095Z" fill="#2A2A2A"/>
<path d="M173.148 39.1239V32.0557H161.066H151.136H150.639V75.9111H151.136H161.066H173.148V68.6822H161.066V56.3127H173.148V49.4051H161.066V39.1239H173.148Z" fill="#2A2A2A"/>
<path d="M242 39.1239V32.0557H229.918H219.987H219.491V75.9111H219.987H229.918H242V68.6822H229.918V56.3127H242V49.4051H229.918V39.1239H242Z" fill="#2A2A2A"/>
</g>
<g filter="url(#filter0_d_2271_75362)">
<path d="M30 124C30 117.373 35.3726 112 42 112H360V330H42C35.3726 330 30 324.627 30 318V124Z" fill="white"/>
</g>
<path d="M30 124C30 117.373 35.3726 112 42 112H360V138H30V124Z" fill="#D0D7DD"/>
<path d="M91 178H360V330H91V178Z" fill="#2A2A2A"/>
<circle cx="57" cy="158" r="10" fill="#FF5034"/>
<rect x="91" y="154" width="45" height="8" rx="4" fill="#EAEEF1"/>
<rect x="144" y="154" width="29" height="8" rx="4" fill="#EAEEF1"/>
<rect x="183" y="154" width="45" height="8" rx="4" fill="#EAEEF1"/>
<rect x="322" y="154" width="8" height="8" rx="4" fill="#EAEEF1"/>
<rect x="306" y="154" width="8" height="8" rx="4" fill="#EAEEF1"/>
<rect x="47" y="122" width="8" height="8" rx="4" fill="white"/>
<rect x="61" y="122" width="8" height="8" rx="4" fill="white"/>
<rect x="75" y="122" width="8" height="8" rx="4" fill="white"/>
<path d="M251.5 204V99C289.1 99 300.5 169 301.5 204H251.5Z" fill="#E18F4C"/>
<path d="M252 204V99C214.4 99 203 169 202 204H252Z" fill="#E18F4C"/>
<ellipse cx="250.508" cy="161.856" rx="8.5" ry="31.76" transform="rotate(53.13 250.508 161.856)" fill="#D2713F"/>
<ellipse cx="250.508" cy="191.856" rx="8.5" ry="31.76" transform="rotate(53.13 250.508 191.856)" fill="#D2713F"/>
<ellipse cx="248.675" cy="132.619" rx="8.5" ry="23.0316" transform="rotate(53.13 248.675 132.619)" fill="#D2713F"/>
<path fill-rule="evenodd" clip-rule="evenodd" d="M282 193L292 184L302 193L312 184V330H192V184L202 193L212 184L222 193L232 184L242 193L252 184L262 193L272 184L282 193Z" fill="#F4C07D"/>
<path fill-rule="evenodd" clip-rule="evenodd" d="M290.5 235C285.253 235 281 239.253 281 244.5C281 249.747 285.253 254 290.5 254H293V322C293 326.418 296.582 330 301 330H357C361.418 330 365 326.418 365 322V254H367.5C372.747 254 377 249.747 377 244.5C377 239.253 372.747 235 367.5 235H290.5Z" fill="#AC4F36"/>
<mask id="path-27-inside-1_2271_75362" fill="white">
<path fill-rule="evenodd" clip-rule="evenodd" d="M234.5 235C229.253 235 225 239.253 225 244.5C225 249.747 229.253 254 234.5 254H237V322C237 326.418 240.582 330 245 330H301C305.418 330 309 326.418 309 322V254H311.5C316.747 254 321 249.747 321 244.5C321 239.253 316.747 235 311.5 235H234.5Z"/>
</mask>
<path fill-rule="evenodd" clip-rule="evenodd" d="M234.5 235C229.253 235 225 239.253 225 244.5C225 249.747 229.253 254 234.5 254H237V322C237 326.418 240.582 330 245 330H301C305.418 330 309 326.418 309 322V254H311.5C316.747 254 321 249.747 321 244.5C321 239.253 316.747 235 311.5 235H234.5Z" fill="#DF9052"/>
<path d="M237 254H243V248H237V254ZM309 254V248H303V254H309ZM231 244.5C231 242.567 232.567 241 234.5 241V229C225.94 229 219 235.94 219 244.5H231ZM234.5 248C232.567 248 231 246.433 231 244.5H219C219 253.06 225.94 260 234.5 260V248ZM237 248H234.5V260H237V248ZM243 322V254H231V322H243ZM245 324C243.895 324 243 323.105 243 322H231C231 329.732 237.268 336 245 336V324ZM301 324H245V336H301V324ZM303 322C303 323.105 302.105 324 301 324V336C308.732 336 315 329.732 315 322H303ZM303 254V322H315V254H303ZM311.5 248H309V260H311.5V248ZM315 244.5C315 246.433 313.433 248 311.5 248V260C320.06 260 327 253.06 327 244.5H315ZM311.5 241C313.433 241 315 242.567 315 244.5H327C327 235.94 320.06 229 311.5 229V241ZM234.5 241H311.5V229H234.5V241Z" fill="#D2723F" mask="url(#path-27-inside-1_2271_75362)"/>
<circle cx="256.5" cy="256.5" r="2.5" fill="#D57341"/>
<circle cx="266.5" cy="279.5" r="4.5" fill="#D57341"/>
<circle cx="253.5" cy="294.5" r="1.5" fill="#D57341"/>
<circle cx="267" cy="312" r="4" fill="#D57341"/>
<circle cx="282.5" cy="302.5" r="3.5" fill="#D57341"/>
<circle cx="288" cy="287" r="2" fill="#D57341"/>
<circle cx="295.5" cy="301.5" r="1.5" fill="#D57341"/>
<circle cx="282.5" cy="266.5" r="3.5" fill="#D57341"/>
<circle cx="271" cy="251" r="2" fill="#D57341"/>
<path fill-rule="evenodd" clip-rule="evenodd" d="M187.304 330C209.672 330 227.804 311.868 227.804 289.5C227.804 267.132 209.672 249 187.304 249H178.5V249.96C160.366 253.98 146.804 270.156 146.804 289.5C146.804 308.844 160.366 325.02 178.5 329.04V330H187.304ZM187.304 302.707C194.598 302.707 200.511 296.794 200.511 289.5C200.511 282.206 194.598 276.293 187.304 276.293C180.011 276.293 174.098 282.206 174.098 289.5C174.098 296.794 180.011 302.707 187.304 302.707Z" fill="#A76835"/>
<path fill-rule="evenodd" clip-rule="evenodd" d="M178.5 330C200.868 330 219 311.868 219 289.5C219 267.132 200.868 249 178.5 249C156.132 249 138 267.132 138 289.5C138 311.868 156.132 330 178.5 330ZM178.5 302.707C185.794 302.707 191.706 296.794 191.706 289.5C191.706 282.206 185.794 276.293 178.5 276.293C171.206 276.293 165.293 282.206 165.293 289.5C165.293 296.794 171.206 302.707 178.5 302.707Z" fill="#D58644"/>
<circle cx="146.804" cy="295.663" r="1.76087" fill="#877A71"/>
<circle cx="156.489" cy="307.989" r="1.76087" fill="#877A71"/>
<circle cx="156.489" cy="293.902" r="1.76087" fill="#877A71"/>
<circle cx="156.489" cy="275.413" r="1.76087" fill="#877A71"/>
<circle cx="146.804" cy="281.576" r="1.76087" fill="#877A71"/>
<circle cx="168.815" cy="271.011" r="1.76087" fill="#877A71"/>
<circle cx="159.13" cy="264.848" r="1.76087" fill="#877A71"/>
<circle cx="175.859" cy="258.685" r="1.76087" fill="#877A71"/>
<circle cx="184.663" cy="269.25" r="1.76087" fill="#877A71"/>
<circle cx="195.228" cy="263.087" r="1.76087" fill="#877A71"/>
<circle cx="205.793" cy="275.413" r="1.76087" fill="#877A71"/>
<circle cx="195.228" cy="271.891" r="1.76087" fill="#877A71"/>
<circle cx="209.315" cy="288.619" r="1.76087" fill="#877A71"/>
<circle cx="199.63" cy="283.337" r="1.76087" fill="#877A71"/>
<circle cx="207.554" cy="301.826" r="1.76087" fill="#877A71"/>
<circle cx="197.87" cy="297.424" r="1.76087" fill="#877A71"/>
<circle cx="196.989" cy="308.869" r="1.76087" fill="#877A71"/>
<circle cx="205.793" cy="309.75" r="1.76087" fill="#877A71"/>
<circle cx="189.065" cy="319.435" r="1.76087" fill="#877A71"/>
<circle cx="184.663" cy="310.63" r="1.76087" fill="#877A71"/>
<circle cx="176.739" cy="319.435" r="1.76087" fill="#877A71"/>
<circle cx="168.815" cy="307.989" r="1.76087" fill="#877A71"/>
<circle cx="164.413" cy="317.674" r="1.76087" fill="#877A71"/>
<path d="M158.706 283.405C158.916 283.437 158.978 283.729 158.799 283.844L155.389 286.035C154.415 286.661 153.124 286.067 152.871 284.877C152.617 283.687 153.555 282.619 154.699 282.794L158.706 283.405Z" fill="#F8DC97"/>
<path d="M150.016 298.415C149.998 298.202 150.267 298.074 150.421 298.221L153.348 301.025C154.184 301.825 153.909 303.219 152.811 303.744C151.713 304.269 150.456 303.607 150.358 302.453L150.016 298.415Z" fill="#F8DC97"/>
<path d="M175.847 308.602C175.918 308.401 176.216 308.395 176.296 308.592L177.81 312.352C178.242 313.426 177.418 314.583 176.201 314.61C174.985 314.636 174.111 313.515 174.497 312.424L175.847 308.602Z" fill="#F8DC97"/>
<path d="M200.422 313.916C200.544 313.742 200.833 313.817 200.856 314.028L201.296 318.057C201.422 319.208 200.315 320.099 199.137 319.795C197.959 319.491 197.421 318.176 198.088 317.23L200.422 313.916Z" fill="#F8DC97"/>
<path d="M207.902 295.009C207.714 294.909 207.753 294.614 207.96 294.565L211.905 293.636C213.032 293.371 214.051 294.361 213.894 295.567C213.736 296.773 212.496 297.468 211.475 296.922L207.902 295.009Z" fill="#F8DC97"/>
<path d="M202.604 269.903C202.419 270.008 202.19 269.817 202.26 269.616L203.586 265.786C203.964 264.692 205.346 264.36 206.281 265.139C207.216 265.918 207.139 267.337 206.132 267.907L202.604 269.903Z" fill="#F8DC97"/>
<path d="M173.616 265.108C173.498 264.931 173.671 264.688 173.877 264.742L177.796 265.775C178.915 266.07 179.35 267.423 178.645 268.414C177.939 269.405 176.518 269.436 175.873 268.474L173.616 265.108Z" fill="#F8DC97"/>
<path d="M188.988 259.67C189.081 259.861 188.877 260.078 188.68 259.996L184.938 258.439C183.869 257.994 183.623 256.594 184.457 255.709C185.292 254.823 186.703 254.986 187.211 256.027L188.988 259.67Z" fill="#F8DC97"/>
<path d="M151.884 267.502C152.05 267.368 152.307 267.517 152.272 267.727L151.601 271.725C151.41 272.866 150.102 273.423 149.051 272.811C148 272.198 147.839 270.786 148.738 270.057L151.884 267.502Z" fill="#F8DC97"/>
<path d="M192.326 305.616C192.202 305.789 191.914 305.712 191.893 305.5L191.483 301.468C191.365 300.316 192.479 299.434 193.655 299.746C194.831 300.059 195.359 301.378 194.685 302.32L192.326 305.616Z" fill="#F8DC97"/>
<path d="M159.754 311.728C159.939 311.623 160.168 311.813 160.099 312.014L158.777 315.846C158.399 316.94 157.018 317.273 156.082 316.495C155.147 315.718 155.222 314.299 156.229 313.727L159.754 311.728Z" fill="#F8DC97"/>
<circle cx="166.174" cy="260.446" r="0.880435" fill="#A06332"/>
<circle cx="162.652" cy="273.652" r="0.880435" fill="#A06332"/>
<circle cx="160.891" cy="302.707" r="0.880435" fill="#A06332"/>
<circle cx="161.772" cy="297.424" r="0.880435" fill="#A06332"/>
<circle cx="148.565" cy="288.62" r="0.880435" fill="#A06332"/>
<circle cx="169.696" cy="314.152" r="0.880435" fill="#A06332"/>
<circle cx="171.456" cy="322.076" r="0.880435" fill="#A06332"/>
<circle cx="182.022" cy="323.837" r="0.880435" fill="#A06332"/>
<circle cx="192.587" cy="313.272" r="0.880435" fill="#A06332"/>
<circle cx="201.391" cy="303.587" r="0.880435" fill="#A06332"/>
<circle cx="202.272" cy="290.38" r="0.880435" fill="#A06332"/>
<circle cx="206.674" cy="282.457" r="0.880435" fill="#A06332"/>
<circle cx="212.837" cy="283.337" r="0.880435" fill="#A06332"/>
<circle cx="194.348" cy="278.055" r="0.880435" fill="#A06332"/>
<circle cx="189.946" cy="265.729" r="0.880435" fill="#A06332"/>
<circle cx="179.38" cy="254.283" r="0.880435" fill="#A06332"/>
<path d="M78.7905 317.971C106.367 286.01 149.633 286.01 177.209 317.971C180.953 322.31 178.436 330 173.273 330H82.7273C77.5641 330 75.0472 322.31 78.7905 317.971Z" fill="#EEB66E"/>
<mask id="mask0_2271_75362" style="mask-type:alpha" maskUnits="userSpaceOnUse" x="77" y="294" width="102" height="36">
<path d="M78.7905 317.971C106.367 286.01 149.633 286.01 177.209 317.971C180.953 322.31 178.436 330 173.273 330H82.7273C77.5641 330 75.0472 322.31 78.7905 317.971Z" fill="#EEB66E"/>
</mask>
<g mask="url(#mask0_2271_75362)">
<path fill-rule="evenodd" clip-rule="evenodd" d="M122 289.626C122 277.626 126 284.626 128 289.626C130 284.626 134 277.626 134 289.626C134 301.626 130 312.626 128 316.626C126 312.626 122 301.626 122 289.626Z" fill="#DF9D48"/>
<path fill-rule="evenodd" clip-rule="evenodd" d="M101 289.626C101 277.626 105 284.626 107 289.626C109 284.626 113 277.626 113 289.626C113 301.626 109 312.626 107 316.626C105 312.626 101 301.626 101 289.626Z" fill="#DF9D48"/>
<path fill-rule="evenodd" clip-rule="evenodd" d="M143 289.626C143 277.626 147 284.626 149 289.626C151 284.626 155 277.626 155 289.626C155 301.626 151 312.626 149 316.626C147 312.626 143 301.626 143 289.626Z" fill="#DF9D48"/>
</g>
</g>
<defs>
<filter id="filter0_d_2271_75362" x="10" y="102" width="370" height="258" filterUnits="userSpaceOnUse" color-interpolation-filters="sRGB">
<feFlood flood-opacity="0" result="BackgroundImageFix"/>
<feColorMatrix in="SourceAlpha" type="matrix" values="0 0 0 0 0 0 0 0 0 0 0 0 0 0 0 0 0 0 127 0" result="hardAlpha"/>
<feOffset dy="10"/>
<feGaussianBlur stdDeviation="10"/>
<feComposite in2="hardAlpha" operator="out"/>
<feColorMatrix type="matrix" values="0 0 0 0 0.177951 0 0 0 0 0.195312 0 0 0 0 0.208333 0 0 0 0.2 0"/>
<feBlend mode="normal" in2="BackgroundImageFix" result="effect1_dropShadow_2271_75362"/>
<feBlend mode="normal" in="SourceGraphic" in2="effect1_dropShadow_2271_75362" result="shape"/>
</filter>
<clipPath id="clip0_2271_75362">
<rect width="360" height="360" rx="8" fill="white"/>
</clipPath>
<clipPath id="clip1_2271_75362">
<rect width="212" height="48" fill="white" transform="translate(30 30)"/>
</clipPath>
</defs>
</svg>
