<svg width="360" height="360" viewBox="0 0 360 360" fill="none" xmlns="http://www.w3.org/2000/svg">
<g clip-path="url(#clip0_2779_2025)">
<rect width="360" height="360" rx="8" fill="#E3000B"/>
<mask id="mask0_2779_2025" style="mask-type:alpha" maskUnits="userSpaceOnUse" x="30" y="30" width="60" height="58">
<path d="M52.2261 87.0876C48.0697 87.3845 49.4269 87.2996 48.0697 87.3845C48.0697 87.3845 29.7898 79.4109 30.0018 62.2337C30.0018 48.9161 36.3637 45.2686 36.3637 45.2686C39.3502 46.5826 42.0678 48.4376 44.3798 50.7398C46.2991 52.9027 47.8728 55.3491 49.0452 57.9924C50.6738 51.3591 54.3729 45.4169 59.6059 41.0273C66.9441 34.0405 76.6607 30.0994 86.7925 30C88.7813 35.1407 89.8022 40.6049 89.8038 46.1168C90.1007 67.8322 77.08 83.4825 56.4674 86.5362L52.2261 87.0876Z" fill="white"/>
</mask>
<g mask="url(#mask0_2779_2025)">
<path d="M43.7438 43.1479L24.6581 48.0352L37.1613 93.5233L50.1057 87.6813C50.1057 87.6813 52.2264 79.6684 52.2264 72.8368C52.2264 62.2336 43.7438 43.1479 43.7438 43.1479Z" fill="url(#paint0_linear_2779_2025)"/>
<path d="M101.409 82.4595L88.2773 28.3035L69.1914 32.5447L54.3471 41.0273C54.3471 41.0273 47.5603 55.2022 47.5607 72.8369C47.5611 90.4717 50.4955 94.805 50.4955 94.805L101.409 82.4595Z" fill="url(#paint1_linear_2779_2025)"/>
</g>
<path d="M243.677 41.7484C243.677 40.9002 243.38 40.7729 243.083 40.7729H216.576C212.334 40.7729 209.238 41.2819 209.111 41.9181L201.477 84.5429C201.477 84.7974 201.689 84.967 202.028 85.0519C204.301 85.6956 206.669 85.9396 209.026 85.7729H234.898C235.031 85.7463 235.158 85.6908 235.268 85.6102C235.378 85.5296 235.468 85.4259 235.534 85.3063C236.295 83.8037 236.797 82.1834 237.018 80.5137C237.371 78.9852 237.472 77.4092 237.315 75.8483C237.315 74.9576 237.018 74.8304 236.764 74.8304H218.145L219.417 67.8323H234.643C234.898 67.8323 235.067 67.6202 235.28 67.3657C236.02 65.9481 236.508 64.4125 236.722 62.8276C237.036 61.4372 237.136 60.0069 237.018 58.5863C237.018 57.7381 236.722 57.6108 236.467 57.6108H221.283L222.386 51.3761H241.345C241.345 51.3761 241.769 51.1641 241.938 50.9096C242.684 49.4944 243.173 47.9577 243.38 46.3714C243.706 44.8534 243.806 43.2957 243.677 41.7484Z" fill="white"/>
<path d="M179.677 84.458C179.73 84.5994 179.815 84.7267 179.925 84.8297C180.035 84.9328 180.168 85.0088 180.313 85.0517C182.94 85.6548 185.637 85.8974 188.329 85.7728C191.261 85.9374 194.201 85.6947 197.066 85.0517C197.49 85.0517 197.787 84.7548 197.617 84.3731L186.548 60.1979L203.301 42.2573C203.597 41.918 203.513 41.7483 203.301 41.6211C200.81 40.8959 198.213 40.6088 195.624 40.7728C193.198 40.6528 190.768 40.8958 188.414 41.4938C188.138 41.5839 187.899 41.7628 187.735 42.0028L172.763 57.9924L175.605 42.0876C175.605 41.7483 175.223 41.5787 174.884 41.4938C172.536 40.9494 170.125 40.7211 167.716 40.8152C165.575 40.7654 163.437 40.9935 161.354 41.4938C161.015 41.4938 160.718 41.7483 160.676 42.0876L153.042 84.5004C153.042 84.8397 153.042 84.9669 153.381 85.0517C155.61 85.7 157.933 85.9723 160.252 85.8576C162.664 85.9798 165.08 85.7367 167.419 85.1366C167.674 85.1366 167.844 85.1366 167.886 84.67L171.491 64.6088L179.677 84.458Z" fill="white"/>
<path d="M294.276 41.4092C291.929 40.8587 289.516 40.6445 287.108 40.773C284.952 40.7026 282.797 40.9309 280.704 41.4516C280.513 41.5079 280.338 41.6098 280.195 41.7485L261.83 64.4817L262.254 62.7428L265.987 42.003C265.987 41.6637 265.605 41.494 265.266 41.4092C262.862 40.8516 260.394 40.6233 257.928 40.7306C255.773 40.6786 253.62 40.9067 251.524 41.4092C251.227 41.4092 250.93 41.6637 250.845 42.003L243.254 84.4157C243.254 84.755 243.254 84.8399 243.593 84.9671C245.812 85.5945 248.117 85.8665 250.421 85.7729C252.85 85.9044 255.284 85.6466 257.631 85.0095L258.013 84.755L276.505 62.2339L276.123 63.9304L272.434 84.3733C272.434 84.7126 272.434 84.7974 272.773 84.9247C275.002 85.5729 277.325 85.8453 279.644 85.7305C282.072 85.8576 284.506 85.6 286.854 84.9671C286.96 84.9394 287.058 84.8864 287.139 84.8125C287.221 84.7386 287.283 84.6461 287.32 84.543L294.997 42.1302C295.04 41.6637 294.615 41.5364 294.276 41.4092Z" fill="white"/>
<path d="M277.226 30C275.867 29.9995 274.513 30.1705 273.197 30.509C272.815 30.509 272.391 30.8483 272.348 31.1451L269.507 44.4628C269.507 44.4628 269.507 44.4628 269.507 44.7172C270.112 45.0146 270.785 45.1463 271.458 45.0989C272.09 45.2034 272.734 45.2034 273.366 45.0989C273.61 45.0358 273.821 44.8847 273.96 44.6748L281.807 31.951C281.853 31.9074 281.89 31.8548 281.915 31.7964C281.94 31.7381 281.953 31.6752 281.953 31.6117C281.953 31.5481 281.94 31.4853 281.915 31.4269C281.89 31.3686 281.853 31.316 281.807 31.2724C280.412 30.4669 278.836 30.0291 277.226 30Z" fill="white"/>
<path d="M156.985 30C155.64 29.9995 154.3 30.1705 152.999 30.509C152.617 30.509 152.193 30.8483 152.15 31.1451L149.309 44.4628C149.309 44.4628 149.309 44.4627 149.309 44.7172C149.967 45.0909 150.714 45.2812 151.472 45.2686C152.118 45.3754 152.777 45.3754 153.423 45.2686C153.66 45.193 153.868 45.0447 154.016 44.8445L161.778 32.1206C161.861 32.0273 161.908 31.9065 161.908 31.7813C161.908 31.6561 161.861 31.5353 161.778 31.442C160.325 30.57 158.678 30.0743 156.985 30Z" fill="white"/>
<path d="M148.885 57.0592C149.065 60.9341 148.449 64.8048 147.074 68.4322C145.7 72.0596 143.596 75.3667 140.893 78.1491C138.191 80.9315 134.946 83.1301 131.36 84.6091C127.774 86.0881 123.923 86.8161 120.044 86.7482C107.914 86.7482 100.322 80.5135 99.9828 69.3589C99.752 65.4791 100.331 61.5937 101.682 57.9494C103.033 54.305 105.127 50.9814 107.831 48.1896C110.535 45.3978 113.79 43.1987 117.389 41.7321C120.988 40.2654 124.853 39.5632 128.739 39.67C142.438 39.3307 148.545 47.4315 148.885 57.0592ZM114.955 67.7048C114.955 71.9461 116.821 75.6784 121.953 75.6784C129.248 75.6784 133.955 67.408 133.701 58.7133C133.701 54.2176 131.538 50.5701 126.448 50.5701C117.966 50.3156 114.827 60.834 115.082 67.7048H114.955Z" fill="white"/>
<path d="M111.482 195.856C168.373 256.675 141.972 342.891 60.7808 361.427C3.88972 300.608 30.2906 214.392 111.482 195.856Z" fill="black" fill-opacity="0.1"/>
<path d="M144.279 112.727C236.586 211.407 193.75 351.295 62.0154 381.369C-30.2916 282.689 12.5444 142.802 144.279 112.727Z" fill="black" fill-opacity="0.1"/>
<path d="M379.317 199.836C370.33 368.201 207.432 450.594 66.4848 358.065C75.4723 189.699 238.37 107.306 379.317 199.836Z" fill="black" fill-opacity="0.1"/>
<path d="M425.901 214.185C437.07 346.863 318.546 428.925 198.286 371.778C187.117 239.099 305.641 157.037 425.901 214.185Z" fill="black" fill-opacity="0.1"/>
<g filter="url(#filter0_d_2779_2025)">
<path d="M57 123C57 116.373 62.3726 111 69 111H245C251.627 111 257 116.373 257 123V360H57V123Z" fill="#2F2F2F"/>
</g>
<path d="M57 138H257V360H57V138Z" fill="black"/>
<rect x="168" y="123" width="4" height="34" rx="2" transform="rotate(90 168 123)" fill="#848484"/>
<rect x="179" y="123" width="4" height="4" rx="2" transform="rotate(90 179 123)" fill="#848484"/>
<path d="M271 158H104C90.7452 158 80 168.745 80 182V360H251V190.361C251 176.657 258.743 164.129 271 158Z" fill="#323232"/>
<g filter="url(#filter1_d_2779_2025)">
<path d="M104 158H271C284.255 158 295 168.745 295 182V336C295 342.627 289.627 348 283 348H136C129.373 348 124 342.627 124 336V190.361C124 176.657 116.257 164.129 104 158Z" fill="white"/>
</g>
<path fill-rule="evenodd" clip-rule="evenodd" d="M208.778 185H215H221.222C221.222 187.582 222.225 190.062 224.019 191.919L224.139 192.043C227.257 195.27 229 199.582 229 204.069V263C229 265.209 227.209 267 225 267H215H205C202.791 267 201 265.209 201 263V204.069C201 199.582 202.743 195.27 205.861 192.043L205.981 191.919C207.775 190.062 208.778 187.582 208.778 185Z" fill="#83CFC9"/>
<path fill-rule="evenodd" clip-rule="evenodd" d="M215 185H208.778C208.778 187.582 207.775 190.062 205.981 191.919L205.861 192.043C202.743 195.27 201 199.582 201 204.069V204.649C204.603 204.421 208.684 204.863 213 206.5C219.099 208.813 224.636 209.017 229 208.374V204.069C229 199.582 227.257 195.27 224.139 192.043L224.019 191.919C222.225 190.062 221.222 187.582 221.222 185H215Z" fill="#B8F7F2"/>
<path d="M208 180C208 178.895 208.895 178 210 178H220C221.105 178 222 178.895 222 180V185H208V180Z" fill="#39B4AA"/>
<path d="M173.544 203.32C174.422 196.836 179.957 192 186.5 192C193.043 192 198.578 196.836 199.456 203.32L202.568 226.31C202.855 228.427 202.855 230.573 202.568 232.69L199.456 255.68C198.578 262.164 193.043 267 186.5 267C179.957 267 174.422 262.164 173.544 255.68L170.432 232.69C170.145 230.573 170.145 228.427 170.432 226.31L173.544 203.32Z" fill="#F9C664"/>
<ellipse cx="186.5" cy="204" rx="6.5" ry="3" fill="#D9A43F"/>
<ellipse cx="186.5" cy="213" rx="9.5" ry="3" fill="#D9A43F"/>
<ellipse cx="186.5" cy="222" rx="9.5" ry="3" fill="#D9A43F"/>
<ellipse cx="186.5" cy="231" rx="9.5" ry="3" fill="#D9A43F"/>
<ellipse cx="186.5" cy="240" rx="9.5" ry="3" fill="#D9A43F"/>
<ellipse cx="186.5" cy="249" rx="9.5" ry="3" fill="#D9A43F"/>
<circle cx="254.5" cy="251.5" r="18.5" fill="#A8D56C"/>
<path fill-rule="evenodd" clip-rule="evenodd" d="M261.862 268.477C259.606 269.457 257.116 270 254.5 270C244.283 270 236 261.717 236 251.5C236 249.642 236.274 247.848 236.783 246.156C253.647 247.945 259.717 260.7 261.862 268.477Z" fill="#71A230"/>
<path d="M259 269.5C259 269.5 235.5 244.5 266.5 228C266.5 241.5 273 239.5 273 253C273 261.5 266.5 267.5 259 269.5Z" fill="#C5FB7D"/>
<rect x="147" y="223" width="107" height="7" rx="3.5" fill="#DF010C"/>
<path fill-rule="evenodd" clip-rule="evenodd" d="M152 230H249L241.619 268.748C241.26 270.635 239.611 272 237.69 272H163.31C161.389 272 159.74 270.635 159.381 268.748L152 230ZM193 235C193 233.895 193.895 233 195 233C196.105 233 197 233.895 197 235V245C197 246.105 196.105 247 195 247C193.895 247 193 246.105 193 245V235ZM175 233C173.895 233 173 233.895 173 235V245C173 246.105 173.895 247 175 247C176.105 247 177 246.105 177 245V235C177 233.895 176.105 233 175 233ZM213 235C213 233.895 213.895 233 215 233C216.105 233 217 233.895 217 235V245C217 246.105 216.105 247 215 247C213.895 247 213 246.105 213 245V235ZM185 233C183.895 233 183 233.895 183 235V245C183 246.105 183.895 247 185 247C186.105 247 187 246.105 187 245V235C187 233.895 186.105 233 185 233ZM203 235C203 233.895 203.895 233 205 233C206.105 233 207 233.895 207 235V245C207 246.105 206.105 247 205 247C203.895 247 203 246.105 203 245V235ZM225 233C223.895 233 223 233.895 223 235V245C223 246.105 223.895 247 225 247C226.105 247 227 246.105 227 245V235C227 233.895 226.105 233 225 233ZM193 255C193 253.895 193.895 253 195 253C196.105 253 197 253.895 197 255V265C197 266.105 196.105 267 195 267C193.895 267 193 266.105 193 265V255ZM175 253C173.895 253 173 253.895 173 255V265C173 266.105 173.895 267 175 267C176.105 267 177 266.105 177 265V255C177 253.895 176.105 253 175 253ZM213 255C213 253.895 213.895 253 215 253C216.105 253 217 253.895 217 255V265C217 266.105 216.105 267 215 267C213.895 267 213 266.105 213 265V255ZM185 253C183.895 253 183 253.895 183 255V265C183 266.105 183.895 267 185 267C186.105 267 187 266.105 187 265V255C187 253.895 186.105 253 185 253ZM203 255C203 253.895 203.895 253 205 253C206.105 253 207 253.895 207 255V265C207 266.105 206.105 267 205 267C203.895 267 203 266.105 203 265V255ZM225 253C223.895 253 223 253.895 223 255V265C223 266.105 223.895 267 225 267C226.105 267 227 266.105 227 265V255C227 253.895 226.105 253 225 253Z" fill="#DF010C"/>
<path fill-rule="evenodd" clip-rule="evenodd" d="M152 230H249L241.619 268.748C241.26 270.635 239.611 272 237.69 272H163.31C161.389 272 159.74 270.635 159.381 268.748L152 230ZM193 235C193 233.895 193.895 233 195 233C196.105 233 197 233.895 197 235V245C197 246.105 196.105 247 195 247C193.895 247 193 246.105 193 245V235ZM175 233C173.895 233 173 233.895 173 235V245C173 246.105 173.895 247 175 247C176.105 247 177 246.105 177 245V235C177 233.895 176.105 233 175 233ZM213 235C213 233.895 213.895 233 215 233C216.105 233 217 233.895 217 235V245C217 246.105 216.105 247 215 247C213.895 247 213 246.105 213 245V235ZM185 233C183.895 233 183 233.895 183 235V245C183 246.105 183.895 247 185 247C186.105 247 187 246.105 187 245V235C187 233.895 186.105 233 185 233ZM203 235C203 233.895 203.895 233 205 233C206.105 233 207 233.895 207 235V245C207 246.105 206.105 247 205 247C203.895 247 203 246.105 203 245V235ZM225 233C223.895 233 223 233.895 223 235V245C223 246.105 223.895 247 225 247C226.105 247 227 246.105 227 245V235C227 233.895 226.105 233 225 233ZM193 255C193 253.895 193.895 253 195 253C196.105 253 197 253.895 197 255V265C197 266.105 196.105 267 195 267C193.895 267 193 266.105 193 265V255ZM175 253C173.895 253 173 253.895 173 255V265C173 266.105 173.895 267 175 267C176.105 267 177 266.105 177 265V255C177 253.895 176.105 253 175 253ZM213 255C213 253.895 213.895 253 215 253C216.105 253 217 253.895 217 255V265C217 266.105 216.105 267 215 267C213.895 267 213 266.105 213 265V255ZM185 253C183.895 253 183 253.895 183 255V265C183 266.105 183.895 267 185 267C186.105 267 187 266.105 187 265V255C187 253.895 186.105 253 185 253ZM203 255C203 253.895 203.895 253 205 253C206.105 253 207 253.895 207 255V265C207 266.105 206.105 267 205 267C203.895 267 203 266.105 203 265V255ZM225 253C223.895 253 223 253.895 223 255V265C223 266.105 223.895 267 225 267C226.105 267 227 266.105 227 265V255C227 253.895 226.105 253 225 253Z" fill="url(#paint2_linear_2779_2025)" fill-opacity="0.2"/>
<rect x="200.421" y="220" width="64.3109" height="5.70998" rx="2" transform="rotate(36.8065 200.421 220)" fill="#282828"/>
<circle cx="201" cy="224" r="1" fill="#757575"/>
<path fill-rule="evenodd" clip-rule="evenodd" d="M183 254H161V257C162.105 257 163 257.895 163 259C163 260.105 162.105 261 161 261V262.171C162.165 262.583 163 263.694 163 265C163 266.306 162.165 267.417 161 267.829V272.085C161.583 272.291 162 272.847 162 273.5C162 274.153 161.583 274.709 161 274.915V280H183C190.18 280 196 274.18 196 267C196 259.82 190.18 254 183 254Z" fill="#E4B840"/>
<path fill-rule="evenodd" clip-rule="evenodd" d="M183 255H161V257C162.105 257 163 257.895 163 259C163 260.105 162.105 261 161 261V262.171C162.165 262.583 163 263.694 163 265C163 266.306 162.165 267.417 161 267.829V272.085C161.583 272.291 162 272.847 162 273.5C162 274.153 161.583 274.709 161 274.915V279H183C189.627 279 195 273.627 195 267C195 260.373 189.627 255 183 255Z" fill="#F9E467"/>
<circle cx="169" cy="261" r="1" fill="#E4B840"/>
<circle cx="185" cy="274" r="1" fill="#E4B840"/>
<circle cx="177.5" cy="261.5" r="1.5" fill="#E4B840"/>
<circle cx="183.5" cy="267.5" r="1.5" fill="#E4B840"/>
<circle cx="177.5" cy="272.5" r="1.5" fill="#E4B840"/>
<circle cx="171" cy="268" r="2" fill="#E4B840"/>
<circle cx="189" cy="263" r="2" fill="#E4B840"/>
<path d="M206 310C218.703 310 229 299.703 229 287C229 274.297 218.703 264 206 264C193.297 264 183 274.297 183 287C183 299.703 193.297 310 206 310Z" fill="#94C11B"/>
<path d="M195 288.013L203.133 295L219 279" stroke="white" stroke-width="4"/>
<rect x="185" y="319" width="43" height="3" rx="1.5" fill="#DCDCDC"/>
<rect x="174" y="326" width="64" height="3" rx="1.5" fill="#DCDCDC"/>
</g>
<defs>
<filter id="filter0_d_2779_2025" x="37" y="101" width="240" height="289" filterUnits="userSpaceOnUse" color-interpolation-filters="sRGB">
<feFlood flood-opacity="0" result="BackgroundImageFix"/>
<feColorMatrix in="SourceAlpha" type="matrix" values="0 0 0 0 0 0 0 0 0 0 0 0 0 0 0 0 0 0 127 0" result="hardAlpha"/>
<feOffset dy="10"/>
<feGaussianBlur stdDeviation="10"/>
<feComposite in2="hardAlpha" operator="out"/>
<feColorMatrix type="matrix" values="0 0 0 0 0.803922 0 0 0 0 0.0352941 0 0 0 0 0.0352941 0 0 0 1 0"/>
<feBlend mode="normal" in2="BackgroundImageFix" result="effect1_dropShadow_2779_2025"/>
<feBlend mode="normal" in="SourceGraphic" in2="effect1_dropShadow_2779_2025" result="shape"/>
</filter>
<filter id="filter1_d_2779_2025" x="64" y="128" width="271" height="270" filterUnits="userSpaceOnUse" color-interpolation-filters="sRGB">
<feFlood flood-opacity="0" result="BackgroundImageFix"/>
<feColorMatrix in="SourceAlpha" type="matrix" values="0 0 0 0 0 0 0 0 0 0 0 0 0 0 0 0 0 0 127 0" result="hardAlpha"/>
<feOffset dy="10"/>
<feGaussianBlur stdDeviation="20"/>
<feComposite in2="hardAlpha" operator="out"/>
<feColorMatrix type="matrix" values="0 0 0 0 0 0 0 0 0 0 0 0 0 0 0 0 0 0 0.5 0"/>
<feBlend mode="normal" in2="BackgroundImageFix" result="effect1_dropShadow_2779_2025"/>
<feBlend mode="normal" in="SourceGraphic" in2="effect1_dropShadow_2779_2025" result="shape"/>
</filter>
<linearGradient id="paint0_linear_2779_2025" x1="-55668.1" y1="-115865" x2="-55576.3" y2="-115528" gradientUnits="userSpaceOnUse">
<stop stop-color="#00A138"/>
<stop offset="0.33" stop-color="#41AF2B"/>
<stop offset="0.78" stop-color="#93C11A"/>
<stop offset="1" stop-color="#93C11A"/>
</linearGradient>
<linearGradient id="paint1_linear_2779_2025" x1="70.7986" y1="49.6036" x2="77.7585" y2="78.3063" gradientUnits="userSpaceOnUse">
<stop stop-color="#00A138"/>
<stop offset="0.33" stop-color="#41AF2B"/>
<stop offset="0.78" stop-color="#93C11A"/>
<stop offset="1" stop-color="#93C11A"/>
</linearGradient>
<linearGradient id="paint2_linear_2779_2025" x1="200.5" y1="230" x2="200.5" y2="238" gradientUnits="userSpaceOnUse">
<stop/>
<stop offset="1" stop-opacity="0"/>
</linearGradient>
<clipPath id="clip0_2779_2025">
<rect width="360" height="360" rx="8" fill="white"/>
</clipPath>
</defs>
</svg>
