<svg width="360" height="360" viewBox="0 0 360 360" fill="none" xmlns="http://www.w3.org/2000/svg">
<g clip-path="url(#clip0_2393_79899)">
<rect width="360" height="360" rx="8" fill="#E9FFE6"/>
<g clip-path="url(#clip1_2393_79899)">
<path d="M48.1691 95.9047C43.0117 95.9047 38.6587 94.1897 35.2047 90.712C31.7507 87.2343 30 82.9468 30 77.8493C30 72.7519 31.7507 68.4167 35.252 64.8437C38.8006 61.2707 43.1063 59.5081 48.2164 59.5081C53.3264 59.5081 57.6321 61.2707 61.1334 64.8437C64.6821 68.4167 66.4327 72.7042 66.4327 77.754C66.4327 82.8038 64.6821 87.0914 61.1334 90.6167C57.6321 94.1421 53.3264 95.9047 48.1691 95.9047ZM59.1462 77.754C59.1462 74.5145 58.1053 71.8467 55.9761 69.7029C53.8469 67.5592 51.2919 66.4634 48.2164 66.4634C45.1409 66.4634 42.5859 67.5592 40.4567 69.7029C38.3275 71.8467 37.2865 74.5622 37.2865 77.754C37.2865 80.9459 38.3275 83.6137 40.4094 85.7575C42.5385 87.9013 45.1409 88.9493 48.2164 88.9493C51.2919 88.9493 53.8942 87.9013 56.0234 85.7575C58.1526 83.6137 59.1935 80.9459 59.1462 77.754ZM75.6651 95.3331V81.4223C75.6651 77.5635 78.0309 74.848 81.5795 74.848C84.8443 74.848 87.0208 77.1347 87.0208 81.2794V95.3331H93.6922V79.4691C93.6922 75.9914 92.6986 73.3236 90.7587 71.4656C88.8188 69.6077 86.4057 68.6549 83.6141 68.6549C79.9708 68.6549 76.8953 70.4652 75.5232 72.9901V69.3695H68.9937V95.3331H75.6651ZM122.229 81.7558C122.229 82.6609 122.135 83.6613 121.993 84.7094H102.641C103.587 88.3777 106.095 90.2356 110.164 90.2356C112.955 90.2356 116.268 89.1399 118.491 87.6154L121.141 92.3318C117.876 94.7137 114.138 95.9047 109.88 95.9047C105.338 95.9047 101.884 94.5708 99.4706 91.9506C97.0575 89.3305 95.8747 86.091 95.8747 82.3274C95.8747 78.3733 97.1049 75.1339 99.6126 72.5613C102.12 69.9888 105.338 68.7025 109.312 68.7025C113.05 68.7025 116.173 69.8935 118.586 72.2278C120.999 74.5622 122.229 77.7064 122.229 81.7558ZM109.312 74.2763C105.953 74.2763 103.445 76.3248 102.641 79.7073H115.747C115.132 76.3248 112.719 74.2763 109.312 74.2763ZM135.247 95.9047C129.806 95.9047 124.885 93.5704 121.999 89.3305L126.02 84.4236C128.292 87.6154 131.698 89.3305 135.294 89.3305C138.18 89.3305 140.31 87.806 140.31 85.5669C140.31 84.1377 139.269 82.8991 137.139 81.8987C136.666 81.6605 135.531 81.2317 133.685 80.5171C131.887 79.8025 130.515 79.1356 129.569 78.6115C125.878 76.4678 124.033 73.5617 124.033 69.8459C124.033 66.8922 125.121 64.4626 127.345 62.5094C129.569 60.5561 132.455 59.5557 135.957 59.5557C140.499 59.5557 144.331 61.1278 147.454 64.3197L143.716 69.4647C141.776 67.3686 138.654 66.1776 136.051 66.1776C133.26 66.1776 131.556 67.5115 131.556 69.56C131.556 70.9416 132.503 72.0849 134.395 73.0377L137.849 74.5622C139.789 75.3721 141.209 75.9914 142.108 76.4201C146.082 78.3734 148.069 81.2794 148.069 85.1858C148.069 88.33 146.886 90.9026 144.521 92.9034C142.155 94.9043 139.079 95.9047 135.247 95.9047ZM149.211 82.3274C149.211 78.5163 150.488 75.2768 153.091 72.6566C155.693 69.9888 159.005 68.6549 163.027 68.6549C167.049 68.6549 170.361 69.9888 172.963 72.6566C175.565 75.2768 176.843 78.5163 176.843 82.3274C176.843 86.1862 175.565 89.4257 172.963 92.0459C170.361 94.6661 167.049 96 163.027 96C159.005 96 155.693 94.6661 153.091 92.0459C150.488 89.4257 149.211 86.1862 149.211 82.3274ZM157.917 87.6154C159.289 89.0446 160.992 89.7592 163.027 89.7592C165.061 89.7592 166.717 89.0446 168.09 87.6154C169.462 86.1386 170.171 84.3759 170.171 82.3274C170.171 80.2789 169.462 78.5163 168.09 77.0871C166.717 75.6579 165.061 74.9433 163.027 74.9433C160.992 74.9433 159.289 75.6579 157.917 77.0871C156.545 78.5163 155.882 80.2789 155.882 82.3274C155.882 84.3759 156.545 86.1386 157.917 87.6154ZM185.697 65.2725C187.258 63.7004 187.258 60.9373 185.697 59.4128C184.135 57.8407 181.391 57.8407 179.83 59.4128C178.268 60.9373 178.268 63.7004 179.83 65.2725C181.391 66.8446 184.135 66.8446 185.697 65.2725ZM186.075 69.3695H179.404V95.3331H186.075V69.3695ZM196.491 59.1269V95.3331H189.819V59.1269H196.491ZM208.733 26.955L210.262 25C212.148 25.931 222.11 27.9729 228.164 30.6294C231.184 31.9577 234.242 33.77 236.547 36.5879C238.853 39.4058 240.295 43.2415 240.295 47.8097C240.295 52.7255 238.138 56.2261 235.955 58.237C234.908 59.2053 233.847 59.8756 232.997 60.3225C233.958 65.0148 233.983 69.583 233.983 73.3319H227.67C227.67 64.6176 228.164 55.5061 218.498 47.8097L222.344 42.745C226.647 46.1711 229.409 50.0193 231.123 53.9668C231.307 53.8178 231.418 53.7558 231.616 53.5696C232.787 52.4772 233.983 50.9503 233.983 47.8097C233.983 44.5201 233.046 42.4098 231.616 40.6595C230.186 38.9092 228.164 37.4693 225.698 36.3893C221.518 34.5521 216.969 33.7328 213.073 32.3177C211.865 34.279 208.733 39.8775 208.733 49.2C208.733 55.2578 210.373 57.8522 211.791 59.1308C213.209 60.4094 214.885 60.6204 215.539 60.6204C216.661 60.6204 218.917 59.4287 221.753 58.237L224.12 64.0962C221.937 65.0148 219.311 66.9762 215.539 66.9762C213.813 66.9762 210.496 66.4672 207.55 63.7983C206.253 62.6238 205.344 61.6069 204.224 59.0629C203.105 56.519 202.421 53.2662 202.421 49.2C202.421 40.3947 204.525 32.9797 208.733 26.955Z" fill="#27AE60"/>
</g>
<rect y="150" width="60" height="60" fill="#D9B17D"/>
<rect y="210" width="60" height="60" fill="#84CC78"/>
<rect y="270" width="60" height="60" fill="#F7D69E"/>
<rect y="330" width="60" height="60" fill="#F7D69E"/>
<rect x="60" y="150" width="60" height="60" fill="#B88A59"/>
<rect x="60" y="210" width="60" height="60" fill="#58A556"/>
<rect x="60" y="270" width="60" height="60" fill="#F7D69E"/>
<rect x="60" y="330" width="60" height="60" fill="#F7D69E"/>
<rect x="120" y="150" width="60" height="60" fill="#F7D69E"/>
<rect x="120" y="210" width="60" height="60" fill="#58A556"/>
<rect x="120" y="270" width="60" height="60" fill="#58A556"/>
<rect x="120" y="330" width="60" height="60" fill="#158650"/>
<rect x="180" y="150" width="60" height="60" fill="#58A556"/>
<rect x="180" y="210" width="60" height="60" fill="#58A556"/>
<rect x="180" y="270" width="60" height="60" fill="#58A556"/>
<rect x="180" y="330" width="60" height="60" fill="#F7D69E"/>
<rect x="240" y="150" width="60" height="60" fill="#DAB07D"/>
<rect x="240" y="210" width="60" height="60" fill="#74BE51"/>
<rect x="240" y="270" width="60" height="60" fill="#158650"/>
<rect x="240" y="330" width="60" height="60" fill="#DAB07D"/>
<rect x="300" y="150" width="60" height="60" fill="#DAB07D"/>
<rect x="300" y="210" width="60" height="60" fill="#B88A59"/>
<rect x="300" y="270" width="60" height="60" fill="#58A556"/>
<rect x="300" y="330" width="60" height="60" fill="#F7D69E"/>
<circle cx="90" cy="180" r="30" fill="#58A556"/>
<circle cx="90" cy="180" r="25" fill="#74BE51"/>
<circle cx="90" cy="180" r="20" fill="#58A556"/>
<circle cx="90" cy="180" r="15" fill="#74BE51"/>
<circle cx="90" cy="180" r="10" fill="#58A556"/>
<circle cx="90" cy="180" r="5" fill="#74BE51"/>
<circle cx="270" cy="300" r="30" fill="#58A556"/>
<circle cx="270" cy="300" r="25" fill="#74BE51"/>
<circle cx="270" cy="300" r="20" fill="#58A556"/>
<circle cx="270" cy="300" r="15" fill="#74BE51"/>
<circle cx="270" cy="300" r="10" fill="#58A556"/>
<circle cx="270" cy="300" r="5" fill="#74BE51"/>
<circle cx="90" cy="240" r="30" fill="#158650"/>
<circle cx="90" cy="240" r="25" fill="#61B746"/>
<circle cx="90" cy="240" r="20" fill="#158650"/>
<circle cx="90" cy="240" r="15" fill="#61B746"/>
<circle cx="90" cy="240" r="10" fill="#158650"/>
<circle cx="90" cy="240" r="5" fill="#61B746"/>
<circle cx="330" cy="240" r="30" fill="#158650"/>
<circle cx="330" cy="240" r="25" fill="#61B746"/>
<circle cx="330" cy="240" r="20" fill="#158650"/>
<circle cx="330" cy="240" r="15" fill="#61B746"/>
<circle cx="330" cy="240" r="10" fill="#158650"/>
<circle cx="330" cy="240" r="5" fill="#61B746"/>
<circle cx="180" cy="270" r="60" fill="#158650"/>
<circle cx="180" cy="270" r="55" fill="#61B746"/>
<circle cx="180" cy="270" r="50" fill="#158650"/>
<circle cx="180" cy="270" r="45" fill="#61B746"/>
<circle cx="180" cy="270" r="40" fill="#158650"/>
<circle cx="180" cy="270" r="35" fill="#61B746"/>
<circle cx="180" cy="270" r="30" fill="#158650"/>
<circle cx="180" cy="270" r="25" fill="#61B746"/>
<circle cx="180" cy="270" r="20" fill="#158650"/>
<circle cx="180" cy="270" r="15" fill="#61B746"/>
<circle cx="180" cy="270" r="10" fill="#158650"/>
<circle cx="180" cy="270" r="5" fill="#61B746"/>
<g clip-path="url(#clip2_2393_79899)">
<circle cx="300" cy="150" r="60" fill="#158650"/>
<circle cx="300" cy="150" r="55" fill="#61B746"/>
<circle cx="300" cy="150" r="50" fill="#158650"/>
<circle cx="300" cy="150" r="45" fill="#61B746"/>
<circle cx="300" cy="150" r="40" fill="#158650"/>
<circle cx="300" cy="150" r="35" fill="#61B746"/>
<circle cx="300" cy="150" r="30" fill="#158650"/>
<circle cx="300" cy="150" r="25" fill="#61B746"/>
<circle cx="300" cy="150" r="20" fill="#158650"/>
<circle cx="300" cy="150" r="15" fill="#61B746"/>
<circle cx="300" cy="150" r="10" fill="#158650"/>
<circle cx="300" cy="150" r="5" fill="#61B746"/>
</g>
<circle cx="60" cy="330" r="60" fill="#DAB07D"/>
<circle cx="60" cy="330" r="55" fill="#B88A59"/>
<circle cx="60" cy="330" r="50" fill="#DAB07D"/>
<circle cx="60" cy="330" r="45" fill="#B88A59"/>
<circle cx="60" cy="330" r="40" fill="#DAB07D"/>
<circle cx="60" cy="330" r="35" fill="#B88A59"/>
<circle cx="60" cy="330" r="30" fill="#DAB07D"/>
<circle cx="60" cy="330" r="25" fill="#B88A59"/>
<circle cx="60" cy="330" r="20" fill="#DAB07D"/>
<circle cx="60" cy="330" r="15" fill="#B88A59"/>
<circle cx="60" cy="330" r="10" fill="#DAB07D"/>
<circle cx="60" cy="330" r="5" fill="#B88A59"/>
<circle cx="150" cy="180" r="30" fill="#DAB07D"/>
<circle cx="150" cy="180" r="25" fill="#B88A59"/>
<circle cx="150" cy="180" r="20" fill="#DAB07D"/>
<circle cx="150" cy="180" r="15" fill="#B88A59"/>
<circle cx="150" cy="180" r="10" fill="#DAB07D"/>
<circle cx="150" cy="180" r="5" fill="#B88A59"/>
<circle cx="330" cy="360" r="30" fill="#DAB07D"/>
<circle cx="330" cy="360" r="25" fill="#B88A59"/>
<circle cx="330" cy="360" r="20" fill="#DAB07D"/>
<circle cx="330" cy="360" r="15" fill="#B88A59"/>
<circle cx="330" cy="360" r="10" fill="#DAB07D"/>
<circle cx="330" cy="360" r="5" fill="#B88A59"/>
<circle cx="210" cy="180" r="30" fill="#74BE51"/>
<circle cx="330" cy="300" r="30" fill="#74BE51"/>
<circle cx="150" cy="360" r="30" fill="#74BE51"/>
<circle cx="30" cy="240" r="30" fill="#58A556"/>
<circle cx="270" cy="240" r="30" fill="#58A556"/>
<circle cx="210" cy="360" r="30" fill="#DAB07D"/>
<g filter="url(#filter0_d_2393_79899)">
<path d="M90 132C90 125.373 95.3726 120 102 120H258C264.627 120 270 125.373 270 132V360H90V132Z" fill="#1A3C32"/>
</g>
<path d="M98 136C98 131.582 101.582 128 106 128H254C258.418 128 262 131.582 262 136V360H98V136Z" fill="#E9FFE5"/>
<mask id="mask0_2393_79899" style="mask-type:alpha" maskUnits="userSpaceOnUse" x="98" y="128" width="164" height="232">
<path d="M98 136C98 131.582 101.582 128 106 128H254C258.418 128 262 131.582 262 136V360H98V136Z" fill="#C4C4C4"/>
</mask>
<g mask="url(#mask0_2393_79899)">
<rect x="60" y="150" width="60" height="60" fill="#B88A59"/>
<rect x="60" y="210" width="60" height="60" fill="#58A556"/>
<rect x="60" y="270" width="60" height="60" fill="#F7D69E"/>
<rect x="60" y="330" width="60" height="60" fill="#F7D69E"/>
<rect x="120" y="150" width="60" height="60" fill="#F7D69E"/>
<rect x="120" y="210" width="60" height="60" fill="#58A556"/>
<rect x="120" y="270" width="60" height="60" fill="#58A556"/>
<rect x="120" y="330" width="60" height="60" fill="#158650"/>
<rect x="180" y="150" width="60" height="60" fill="#58A556"/>
<rect x="180" y="210" width="60" height="60" fill="#58A556"/>
<rect x="180" y="270" width="60" height="60" fill="#58A556"/>
<rect x="180" y="330" width="60" height="60" fill="#F7D69E"/>
<rect x="240" y="150" width="60" height="60" fill="#DAB07D"/>
<rect x="240" y="210" width="60" height="60" fill="#74BE51"/>
<rect x="240" y="270" width="60" height="60" fill="#158650"/>
<rect x="240" y="330" width="60" height="60" fill="#DAB07D"/>
<circle cx="90" cy="180" r="30" fill="#58A556"/>
<circle cx="90" cy="180" r="25" fill="#74BE51"/>
<circle cx="90" cy="180" r="20" fill="#58A556"/>
<circle cx="90" cy="180" r="15" fill="#74BE51"/>
<circle cx="90" cy="180" r="10" fill="#58A556"/>
<circle cx="270" cy="300" r="30" fill="#58A556"/>
<circle cx="270" cy="300" r="25" fill="#74BE51"/>
<circle cx="270" cy="300" r="20" fill="#58A556"/>
<circle cx="270" cy="300" r="15" fill="#74BE51"/>
<circle cx="270" cy="300" r="10" fill="#58A556"/>
<circle cx="90" cy="240" r="30" fill="#158650"/>
<circle cx="90" cy="240" r="25" fill="#61B746"/>
<circle cx="90" cy="240" r="20" fill="#158650"/>
<circle cx="90" cy="240" r="15" fill="#61B746"/>
<circle cx="90" cy="240" r="10" fill="#158650"/>
<circle cx="180" cy="270" r="60" fill="#158650"/>
<circle cx="180" cy="270" r="55" fill="#61B746"/>
<circle cx="180" cy="270" r="50" fill="#158650"/>
<circle cx="180" cy="270" r="45" fill="#61B746"/>
<circle cx="180" cy="270" r="40" fill="#158650"/>
<circle cx="180" cy="270" r="35" fill="#61B746"/>
<circle cx="180" cy="270" r="30" fill="#158650"/>
<circle cx="180" cy="270" r="25" fill="#61B746"/>
<circle cx="180" cy="270" r="20" fill="#158650"/>
<circle cx="180" cy="270" r="15" fill="#61B746"/>
<circle cx="180" cy="270" r="10" fill="#158650"/>
<circle cx="180" cy="270" r="5" fill="#61B746"/>
<g clip-path="url(#clip3_2393_79899)">
<circle cx="300" cy="150" r="60" fill="#158650"/>
<circle cx="300" cy="150" r="55" fill="#61B746"/>
<circle cx="300" cy="150" r="50" fill="#158650"/>
<circle cx="300" cy="150" r="45" fill="#61B746"/>
<circle cx="300" cy="150" r="40" fill="#158650"/>
</g>
<circle cx="60" cy="330" r="60" fill="#DAB07D"/>
<circle cx="60" cy="330" r="55" fill="#B88A59"/>
<circle cx="60" cy="330" r="50" fill="#DAB07D"/>
<circle cx="60" cy="330" r="45" fill="#B88A59"/>
<circle cx="60" cy="330" r="40" fill="#DAB07D"/>
<circle cx="150" cy="180" r="30" fill="#DAB07D"/>
<circle cx="150" cy="180" r="25" fill="#B88A59"/>
<circle cx="150" cy="180" r="20" fill="#DAB07D"/>
<circle cx="150" cy="180" r="15" fill="#B88A59"/>
<circle cx="150" cy="180" r="10" fill="#DAB07D"/>
<circle cx="150" cy="180" r="5" fill="#B88A59"/>
<circle cx="210" cy="180" r="30" fill="#74BE51"/>
<circle cx="150" cy="360" r="30" fill="#74BE51"/>
<circle cx="270" cy="240" r="30" fill="#58A556"/>
<circle cx="210" cy="360" r="30" fill="#DAB07D"/>
</g>
<rect x="192" y="137" width="4" height="34" rx="2" transform="rotate(90 192 137)" fill="#B0E0A7"/>
<rect x="203" y="137" width="4" height="4" rx="2" transform="rotate(90 203 137)" fill="#B0E0A7"/>
<path d="M179.917 240.56C180.091 240.375 180.267 240.189 180.443 240C180.619 240.189 180.795 240.375 180.969 240.56C182.578 242.261 184.043 243.81 184.043 246.544C184.043 248.968 181.643 251.513 180.443 252.482C179.243 251.513 176.842 248.968 176.842 246.544C176.842 243.81 178.308 242.261 179.917 240.56Z" fill="white"/>
<path d="M170.781 249.988C170.791 249.716 170.801 249.442 170.809 249.164C171.079 249.226 171.347 249.286 171.613 249.345C174.067 249.888 176.302 250.382 178.199 252.837C179.882 255.013 179.749 258.766 179.472 260.37C177.85 260.234 174.184 259.417 172.502 257.241C170.605 254.787 170.689 252.499 170.781 249.988Z" fill="white"/>
<path d="M190.062 249.988C190.052 249.716 190.042 249.442 190.035 249.164C189.764 249.226 189.496 249.286 189.23 249.345C186.776 249.888 184.541 250.382 182.644 252.837C180.962 255.013 181.094 258.766 181.371 260.37C182.993 260.234 186.659 259.417 188.341 257.241C190.239 254.787 190.155 252.499 190.062 249.988Z" fill="white"/>
<path d="M170.781 260.31C170.791 260.038 170.801 259.763 170.809 259.486C171.079 259.548 171.347 259.607 171.613 259.666C174.067 260.209 176.302 260.704 178.199 263.158C179.882 265.334 179.749 269.087 179.472 270.692C177.85 270.556 174.184 269.739 172.502 267.563C170.605 265.109 170.689 262.821 170.781 260.31Z" fill="white"/>
<path d="M190.062 260.318C190.052 260.046 190.042 259.772 190.035 259.494C189.764 259.556 189.496 259.616 189.23 259.675C186.776 260.218 184.541 260.712 182.644 263.167C180.962 265.343 181.094 269.096 181.371 270.7C182.993 270.564 186.659 269.747 188.341 267.571C190.239 265.117 190.155 262.829 190.062 260.318Z" fill="white"/>
<path d="M170.781 270.632C170.791 270.36 170.801 270.086 170.809 269.808C171.079 269.87 171.347 269.93 171.613 269.989C174.067 270.532 176.302 271.026 178.199 273.481C179.882 275.657 179.749 279.41 179.472 281.014C177.85 280.878 174.184 280.061 172.502 277.885C170.605 275.431 170.689 273.143 170.781 270.632Z" fill="white"/>
<path d="M190.062 270.648C190.052 270.376 190.042 270.101 190.035 269.824C189.764 269.886 189.496 269.945 189.23 270.004C186.776 270.547 184.541 271.042 182.644 273.496C180.962 275.672 181.094 279.425 181.371 281.03C182.993 280.894 186.659 280.077 188.341 277.901C190.239 275.447 190.155 273.159 190.062 270.648Z" fill="white"/>
<rect x="179.002" y="250.322" width="2.88058" height="43.2086" fill="white"/>
<mask id="mask1_2393_79899" style="mask-type:alpha" maskUnits="userSpaceOnUse" x="150" y="240" width="60" height="60">
<circle cx="180" cy="270" r="30" fill="#158650"/>
</mask>
<g mask="url(#mask1_2393_79899)">
<path d="M193.885 298.732C193.885 296.186 192.469 295.743 189.948 293.943C187.427 292.142 184.008 291.13 180.443 291.13C176.877 291.13 173.458 292.142 170.937 293.943C168.416 295.743 167 296.186 167 298.732C167 298.732 170.385 301 180.443 301C190.5 301 193.885 298.732 193.885 298.732Z" fill="white"/>
</g>
<path d="M149.424 163.846C149.584 163.677 149.745 163.507 149.906 163.333C150.067 163.507 150.229 163.677 150.388 163.846C151.863 165.405 153.207 166.826 153.207 169.332C153.207 171.554 151.006 173.887 149.906 174.775C148.806 173.887 146.605 171.554 146.605 169.332C146.605 166.826 147.949 165.405 149.424 163.846Z" fill="white"/>
<path d="M141.049 173.079C141.058 172.83 141.068 172.578 141.075 172.324C141.323 172.381 141.569 172.436 141.812 172.49C144.061 172.987 146.11 173.441 147.85 175.691C149.392 177.685 149.27 181.126 149.016 182.596C147.529 182.471 144.169 181.723 142.627 179.728C140.888 177.479 140.965 175.381 141.049 173.079Z" fill="white"/>
<path d="M158.724 173.094C158.715 172.844 158.706 172.593 158.699 172.338C158.45 172.395 158.205 172.45 157.961 172.504C155.712 173.002 153.663 173.455 151.924 175.705C150.382 177.699 150.503 181.14 150.757 182.611C152.244 182.486 155.604 181.737 157.146 179.742C158.885 177.493 158.808 175.396 158.724 173.094Z" fill="white"/>
<rect x="148.583" y="170.667" width="2.75" height="23.8333" fill="white"/>
<mask id="mask2_2393_79899" style="mask-type:alpha" maskUnits="userSpaceOnUse" x="130" y="160" width="40" height="40">
<circle cx="150" cy="180" r="20" fill="#DAB07D"/>
</mask>
<g mask="url(#mask2_2393_79899)">
<path d="M162.228 198.838C162.228 196.503 160.93 196.098 158.619 194.447C156.308 192.796 153.174 191.869 149.906 191.869C146.638 191.869 143.503 192.796 141.192 194.447C138.882 196.098 137.583 196.503 137.583 198.838C137.583 198.838 140.687 200.916 149.906 200.916C159.125 200.916 162.228 198.838 162.228 198.838Z" fill="white"/>
</g>
<g filter="url(#filter1_d_2393_79899)">
<circle cx="225" cy="314" r="24" fill="#87F963"/>
</g>
<g filter="url(#filter2_d_2393_79899)">
<circle cx="173.5" cy="203.5" r="15.5" fill="#F1DE2D"/>
</g>
<line x1="173.5" y1="195" x2="173.5" y2="208" stroke="white" stroke-width="3"/>
<line x1="173.5" y1="210" x2="173.5" y2="213" stroke="white" stroke-width="3"/>
<path d="M214 314.941L221.308 321.619L236.66 307" stroke="white" stroke-width="5"/>
</g>
<defs>
<filter id="filter0_d_2393_79899" x="50" y="90" width="260" height="320" filterUnits="userSpaceOnUse" color-interpolation-filters="sRGB">
<feFlood flood-opacity="0" result="BackgroundImageFix"/>
<feColorMatrix in="SourceAlpha" type="matrix" values="0 0 0 0 0 0 0 0 0 0 0 0 0 0 0 0 0 0 127 0" result="hardAlpha"/>
<feOffset dy="10"/>
<feGaussianBlur stdDeviation="20"/>
<feComposite in2="hardAlpha" operator="out"/>
<feColorMatrix type="matrix" values="0 0 0 0 0.065347 0 0 0 0 0.154167 0 0 0 0 0.0507465 0 0 0 0.6 0"/>
<feBlend mode="normal" in2="BackgroundImageFix" result="effect1_dropShadow_2393_79899"/>
<feBlend mode="normal" in="SourceGraphic" in2="effect1_dropShadow_2393_79899" result="shape"/>
</filter>
<filter id="filter1_d_2393_79899" x="169" y="274" width="112" height="112" filterUnits="userSpaceOnUse" color-interpolation-filters="sRGB">
<feFlood flood-opacity="0" result="BackgroundImageFix"/>
<feColorMatrix in="SourceAlpha" type="matrix" values="0 0 0 0 0 0 0 0 0 0 0 0 0 0 0 0 0 0 127 0" result="hardAlpha"/>
<feOffset dy="16"/>
<feGaussianBlur stdDeviation="16"/>
<feComposite in2="hardAlpha" operator="out"/>
<feColorMatrix type="matrix" values="0 0 0 0 0.104774 0 0 0 0 0.295833 0 0 0 0 0.204531 0 0 0 0.5 0"/>
<feBlend mode="normal" in2="BackgroundImageFix" result="effect1_dropShadow_2393_79899"/>
<feBlend mode="normal" in="SourceGraphic" in2="effect1_dropShadow_2393_79899" result="shape"/>
</filter>
<filter id="filter2_d_2393_79899" x="138" y="178" width="71" height="71" filterUnits="userSpaceOnUse" color-interpolation-filters="sRGB">
<feFlood flood-opacity="0" result="BackgroundImageFix"/>
<feColorMatrix in="SourceAlpha" type="matrix" values="0 0 0 0 0 0 0 0 0 0 0 0 0 0 0 0 0 0 127 0" result="hardAlpha"/>
<feOffset dy="10"/>
<feGaussianBlur stdDeviation="10"/>
<feComposite in2="hardAlpha" operator="out"/>
<feColorMatrix type="matrix" values="0 0 0 0 0.104774 0 0 0 0 0.295833 0 0 0 0 0.204531 0 0 0 0.5 0"/>
<feBlend mode="normal" in2="BackgroundImageFix" result="effect1_dropShadow_2393_79899"/>
<feBlend mode="normal" in="SourceGraphic" in2="effect1_dropShadow_2393_79899" result="shape"/>
</filter>
<clipPath id="clip0_2393_79899">
<rect width="360" height="360" rx="8" fill="white"/>
</clipPath>
<clipPath id="clip1_2393_79899">
<rect width="210" height="71" fill="white" transform="translate(30 25)"/>
</clipPath>
<clipPath id="clip2_2393_79899">
<rect width="120" height="60" fill="white" transform="translate(240 150)"/>
</clipPath>
<clipPath id="clip3_2393_79899">
<rect width="120" height="60" fill="white" transform="translate(240 150)"/>
</clipPath>
</defs>
</svg>
