<svg width="360" height="360" viewBox="0 0 360 360" fill="none" xmlns="http://www.w3.org/2000/svg">
<g clip-path="url(#clip0_3903_1934)">
<rect width="360" height="360" rx="8" fill="#1477B4"/>
<g clip-path="url(#clip1_3903_1934)">
<path fill-rule="evenodd" clip-rule="evenodd" d="M211 74.5282C211 82.4729 206.82 86.4491 198.456 86.4491L193.094 86.4483V98.0981H183.882V62.9648H197.992C202.157 62.9648 205.37 63.9589 207.622 65.9547C209.874 67.9506 211 70.8084 211 74.5282ZM201.361 74.6904C201.361 73.1217 200.929 72.0032 200.055 71.3359C199.181 70.6601 197.779 70.3256 195.85 70.3256H193.094V79.0396H195.945C197.874 79.0396 199.26 78.7137 200.103 78.0541C200.945 77.4022 201.362 76.2753 201.362 74.6911V74.6904H201.361Z" fill="#E30016"/>
<path fill-rule="evenodd" clip-rule="evenodd" d="M68.3739 80.5548C68.3739 85.8464 66.5464 90.2397 62.8993 93.7363C59.2452 97.2321 54.6685 98.9807 49.1637 98.9807C43.659 98.9807 39.09 97.2321 35.4514 93.7363C31.8197 90.2389 30 85.8464 30 80.5548C30 75.264 31.8197 70.8692 35.4514 67.3734C39.0908 63.8768 43.659 62.1289 49.1637 62.1289C54.6685 62.1289 59.2452 63.8768 62.8993 67.3734C66.5464 70.8692 68.3739 75.264 68.3739 80.5548ZM58.9766 80.5548C58.9766 77.8631 58.0316 75.5884 56.143 73.7316C54.2459 71.8756 51.9269 70.9472 49.163 70.9472C46.4152 70.9472 44.104 71.8756 42.2224 73.7316C40.3408 75.5884 39.3973 77.8623 39.3973 80.5548C39.3973 83.2466 40.3408 85.5212 42.2224 87.3773C44.1032 89.2348 46.4152 90.1625 49.163 90.1625C51.9277 90.1625 54.2459 89.2348 56.143 87.3773C58.0308 85.5212 58.9766 83.2473 58.9766 80.5548ZM103.669 98.0523H94.6864V83.71H81.5568V98.0523H72.5737V63.0565H81.5568V76.5168H94.6864V63.0565H103.669V98.0523ZM142.014 98.0523H130.343L118.558 81.3983V98.0523H109.574V63.0565H118.558V78.5196L129.599 63.0565H140.777L127.364 79.5793L142.014 98.0516V98.0523ZM179.444 80.5548C179.444 85.8464 177.617 90.2397 173.97 93.7363C170.316 97.2321 165.739 98.9807 160.233 98.9807C154.729 98.9807 150.16 97.2321 146.521 93.7363C142.889 90.2389 141.07 85.8464 141.07 80.5548C141.07 75.264 142.889 70.8692 146.521 67.3734C150.16 63.8768 154.729 62.1289 160.233 62.1289C165.738 62.1289 170.315 63.8768 173.97 67.3734C177.617 70.8692 179.444 75.264 179.444 80.5548ZM170.047 80.5548C170.047 77.8631 169.103 75.5884 167.213 73.7316C165.316 71.8756 162.998 70.9472 160.234 70.9472C157.486 70.9472 155.175 71.8756 153.294 73.7316C151.413 75.5884 150.469 77.8623 150.469 80.5548C150.469 83.2466 151.413 85.5212 153.294 87.3773C155.175 89.2348 157.486 90.1625 160.234 90.1625C162.999 90.1625 165.317 89.2348 167.213 87.3773C169.103 85.5212 170.047 83.2473 170.047 80.5548Z" fill="white"/>
<path d="M171.877 100.371H31.569V102H171.877V100.371Z" fill="white"/>
<path d="M208.699 100.371H180.735V102H208.699V100.371Z" fill="white"/>
<path d="M180.701 52.7335L180.701 101.978L182.333 101.978L182.333 52.7335L180.701 52.7335Z" fill="white"/>
<path d="M181.517 56.6021C183.108 56.6021 184.398 55.315 184.398 53.7273C184.398 52.1396 183.108 50.8525 181.517 50.8525C179.926 50.8525 178.636 52.1396 178.636 53.7273C178.636 55.315 179.926 56.6021 181.517 56.6021Z" fill="white"/>
<path d="M175.471 32.9903L175.471 101.978L177.104 101.978L177.104 32.9903L175.471 32.9903Z" fill="white"/>
<path d="M176.288 38.0714C178.522 38.0714 180.332 36.2645 180.332 34.0357C180.332 31.8068 178.522 30 176.288 30C174.054 30 172.244 31.8068 172.244 34.0357C172.244 36.2645 174.054 38.0714 176.288 38.0714Z" fill="white"/>
<path d="M170.242 52.7336L170.242 101.996L171.875 101.996L171.875 52.7336L170.242 52.7336Z" fill="white"/>
<path d="M171.059 56.6021C172.65 56.6021 173.94 55.315 173.94 53.7273C173.94 52.1396 172.65 50.8525 171.059 50.8525C169.468 50.8525 168.178 52.1396 168.178 53.7273C168.178 55.315 169.468 56.6021 171.059 56.6021Z" fill="white"/>
</g>
<path fill-rule="evenodd" clip-rule="evenodd" d="M276.659 29.7339C284.432 28.1431 290.278 21.2737 290.278 13.0406C290.278 3.62932 282.639 -4 273.216 -4C263.793 -4 256.154 3.62932 256.154 13.0406C256.154 21.2731 261.999 28.1421 269.77 29.7336V299.922H276.659L276.659 29.7339ZM298.721 107.833C303.756 106.35 307.431 101.698 307.431 96.1886C307.431 89.4846 301.99 84.0499 295.277 84.0499C288.565 84.0499 283.123 89.4846 283.123 96.1886C283.123 101.698 286.797 106.349 291.832 107.833V299.924H298.721V107.833ZM247.709 107.833V300H254.598V107.834C259.633 106.351 263.308 101.699 263.308 96.1891C263.308 89.485 257.867 84.0503 251.154 84.0503C244.442 84.0503 239 89.485 239 96.1891C239 101.698 242.674 106.35 247.709 107.833Z" fill="white" fill-opacity="0.4" style="mix-blend-mode:soft-light"/>
<g filter="url(#filter0_d_3903_1934)">
<path d="M30 146C30 139.373 35.3726 134 42 134H318C324.627 134 330 139.373 330 146V301C330 317.016 317.016 330 301 330H42C35.3726 330 30 324.627 30 318V146Z" fill="#FDFDFD"/>
</g>
<path d="M30 146C30 139.373 35.3726 134 42 134H318C324.627 134 330 139.373 330 146V162H30V146Z" fill="#2CA7E3"/>
<circle cx="46.5" cy="148.5" r="3.5" fill="white"/>
<circle cx="56.5" cy="148.5" r="3.5" fill="white"/>
<circle cx="66.5" cy="148.5" r="3.5" fill="white"/>
<circle cx="81.5" cy="213.5" r="31.5" fill="#D8F2FF"/>
<path fill-rule="evenodd" clip-rule="evenodd" d="M74.9994 204.786C74.9994 203.251 75.6316 201.78 76.7569 200.695C77.8822 199.61 79.4085 199 81 199C82.5915 199 84.1178 199.61 85.2431 200.695C86.3684 201.78 87.0006 203.251 87.0006 204.786C87.0006 206.32 86.3684 207.792 85.2431 208.877C84.1178 209.962 82.5915 210.571 81 210.571C79.4085 210.571 77.8822 209.962 76.7569 208.877C75.6316 207.792 74.9994 206.32 74.9994 204.786ZM70.0002 222.921C70.0451 220.136 71.2238 217.481 73.2818 215.527C75.3398 213.574 78.112 212.479 81 212.479C83.888 212.479 86.6602 213.574 88.7182 215.527C90.7762 217.481 91.9549 220.136 91.9998 222.921C92.0033 223.108 91.95 223.292 91.8465 223.451C91.743 223.61 91.5938 223.736 91.4171 223.814C88.149 225.259 84.5953 226.005 81 226C77.2849 226 73.7552 225.218 70.5829 223.814C70.4062 223.736 70.257 223.61 70.1535 223.451C70.05 223.292 69.9967 223.108 70.0002 222.921Z" fill="#167AB7"/>
<rect x="126" y="194" width="65" height="8" rx="4" fill="#D8F2FF"/>
<rect x="217" y="182" width="90" height="63" rx="8" fill="#FFE0E3"/>
<rect x="217" y="263" width="90" height="20" rx="8" fill="#D8F2FF"/>
<rect x="217" y="290" width="90" height="20" rx="8" fill="#D8F2FF"/>
<rect x="50" y="263" width="102" height="14" rx="7" fill="#2CA7E3"/>
<rect x="126" y="209" width="44" height="8" rx="4" fill="#D8F2FF"/>
<rect x="50" y="287" width="127" height="8" rx="4" fill="#D8F2FF"/>
<rect x="126" y="224" width="57" height="8" rx="4" fill="#D8F2FF"/>
<path d="M228 214C228 211.791 229.791 210 232 210H238C240.209 210 242 211.791 242 214V237H228V214Z" fill="#FF9EA7"/>
<path d="M246 207C246 204.791 247.791 203 250 203H256C258.209 203 260 204.791 260 207V237H246V207Z" fill="#FF9EA7"/>
<path d="M264 217C264 214.791 265.791 213 268 213H274C276.209 213 278 214.791 278 217V237H264V217Z" fill="#FF9EA7"/>
<path d="M282 198C282 195.791 283.791 194 286 194H292C294.209 194 296 195.791 296 198V237H282V198Z" fill="#FF9EA7"/>
<rect x="50" y="302" width="102" height="8" rx="4" fill="#D8F2FF"/>
<circle cx="285" cy="286" r="54" fill="#E30016"/>
<path d="M285 255.884C279.044 255.884 273.221 257.651 268.269 260.96C263.316 264.269 259.456 268.972 257.177 274.475C254.898 279.978 254.301 286.033 255.463 291.875C256.625 297.717 259.494 303.083 263.705 307.295C267.917 311.506 273.283 314.375 279.125 315.537C284.967 316.699 291.022 316.102 296.525 313.823C302.028 311.543 306.731 307.684 310.04 302.731C313.349 297.779 315.115 291.956 315.115 286L285 286L285 255.884Z" fill="white"/>
<path d="M320.308 280.807C320.308 276.853 319.529 272.937 318.015 269.283C316.502 265.629 314.284 262.309 311.487 259.513C308.691 256.716 305.371 254.498 301.717 252.984C298.063 251.471 294.147 250.692 290.192 250.692L290.192 280.807L320.308 280.807Z" fill="#2CA7E3"/>
</g>
<defs>
<filter id="filter0_d_3903_1934" x="0" y="114" width="360" height="256" filterUnits="userSpaceOnUse" color-interpolation-filters="sRGB">
<feFlood flood-opacity="0" result="BackgroundImageFix"/>
<feColorMatrix in="SourceAlpha" type="matrix" values="0 0 0 0 0 0 0 0 0 0 0 0 0 0 0 0 0 0 127 0" result="hardAlpha"/>
<feOffset dy="10"/>
<feGaussianBlur stdDeviation="15"/>
<feComposite in2="hardAlpha" operator="out"/>
<feColorMatrix type="matrix" values="0 0 0 0 0.16522 0 0 0 0 0.662426 0 0 0 0 0.904655 0 0 0 1 0"/>
<feBlend mode="normal" in2="BackgroundImageFix" result="effect1_dropShadow_3903_1934"/>
<feBlend mode="normal" in="SourceGraphic" in2="effect1_dropShadow_3903_1934" result="shape"/>
</filter>
<clipPath id="clip0_3903_1934">
<rect width="360" height="360" rx="8" fill="white"/>
</clipPath>
<clipPath id="clip1_3903_1934">
<rect width="181" height="72" fill="white" transform="translate(30 30)"/>
</clipPath>
</defs>
</svg>
