<svg width="360" height="360" viewBox="0 0 360 360" fill="none" xmlns="http://www.w3.org/2000/svg">
<rect width="360" height="360" rx="8" fill="url(#paint0_linear_30417_26895)"/>
<rect x="30" y="123" width="300" height="189" rx="12" fill="white"/>
<path d="M30 165C30 162.791 31.7909 161 34 161H84C86.2091 161 88 162.791 88 165V175H30V165Z" fill="#6E6E88"/>
<path d="M90 165C90 162.791 91.7909 161 94 161H134C136.209 161 138 162.791 138 165V175H90V165Z" fill="#EFF1FB"/>
<rect x="69" y="136" width="48" height="4" rx="2" fill="#DFE2F5"/>
<rect x="69" y="143" width="98" height="6" rx="3" fill="#444460"/>
<rect x="278" y="143" width="42" height="6" rx="3" fill="#E05354"/>
<path d="M140 165C140 162.791 141.791 161 144 161H171C173.209 161 175 162.791 175 165V175H140V165Z" fill="#EFF1FB"/>
<path d="M177 165C177 162.791 178.791 161 181 161H235C237.209 161 239 162.791 239 165V175H177V165Z" fill="#EFF1FB"/>
<path d="M241 165C241 162.791 242.791 161 245 161H280C282.209 161 284 162.791 284 165V175H241V165Z" fill="#EFF1FB"/>
<rect x="30" y="175" width="300" height="21" fill="#6E6E88"/>
<rect x="30" y="196" width="300" height="75" fill="#EFF1FB"/>
<circle cx="50" cy="143" r="10" fill="#E05354"/>
<path d="M162.782 356.599C162.782 355.096 164.001 353.877 165.504 353.877H194.542C196.046 353.877 197.265 355.096 197.265 356.599V356.599H162.782V356.599Z" fill="#C9CDE7"/>
<path d="M197.265 356.598C197.265 358.101 196.046 359.32 194.542 359.32H165.504C164.001 359.32 162.782 358.101 162.782 356.598V356.598H197.265V356.598Z" fill="#7992F5"/>
<path d="M88.3719 233.188H262.6L226.303 248.614H133.744L88.3719 233.188Z" fill="#3CA5A9"/>
<rect x="179.116" y="233.188" width="3.62975" height="120.689" fill="#C9CDE7"/>
<rect x="177.301" y="233.188" width="1.81488" height="120.689" fill="#29C66A"/>
<path d="M175.486 186L262.6 233.187H88.3719L175.486 186Z" fill="#29C66A"/>
<path d="M175.486 186L262.6 233.187H217.682L175.486 186Z" fill="#C9CDE7"/>
<mask id="mask0_30417_26895" style="mask-type:alpha" maskUnits="userSpaceOnUse" x="88" y="186" width="175" height="48">
<path d="M175.486 186L262.6 233.187H88.3719L175.486 186Z" fill="#7993F0"/>
</mask>
<g mask="url(#mask0_30417_26895)">
<path fill-rule="evenodd" clip-rule="evenodd" d="M254.433 196.889H87.4645V200.518H254.433V196.889ZM87.4645 209.593H254.433V213.223H87.4645V209.593ZM87.4645 222.297H254.433V225.927H87.4645V222.297Z" fill="#C8CDF2"/>
</g>
<mask id="mask1_30417_26895" style="mask-type:alpha" maskUnits="userSpaceOnUse" x="175" y="186" width="88" height="48">
<path d="M175.486 186L262.6 233.187H217.682L175.486 186Z" fill="#C9CDE7"/>
</mask>
<g mask="url(#mask1_30417_26895)">
<path fill-rule="evenodd" clip-rule="evenodd" d="M254.433 196.889H87.4645V200.518H254.433V196.889ZM87.4645 209.593H254.433V213.223H87.4645V209.593ZM87.4645 222.297H254.433V225.927H87.4645V222.297Z" fill="#FFFFFD"/>
</g>
<g filter="url(#filter0_d_30417_26895)">
<path d="M71.8508 306.933C71.9575 306.018 72.7325 305.328 73.6534 305.328H74.5362C75.6219 305.328 76.4647 306.275 76.3389 307.353L70.4103 358.17C70.3036 359.085 69.5286 359.774 68.6077 359.774H67.7248C66.6392 359.774 65.7964 358.828 65.9222 357.749L71.8508 306.933Z" fill="#FEA16B"/>
</g>
<g filter="url(#filter1_d_30417_26895)">
<path d="M98.0489 322.232C98.795 321.602 99.8274 321.436 100.734 321.798V321.798C102.122 322.353 102.419 324.188 101.276 325.152L61.4904 358.721C60.7216 359.37 59.6578 359.542 58.7238 359.168L58.5109 359.083C57.2392 358.574 56.9677 356.894 58.0146 356.011L98.0489 322.232Z" fill="#FEA16B"/>
</g>
<g filter="url(#filter2_d_30417_26895)">
<path d="M48.806 276.819C48.066 275.717 46.6564 275.282 45.4238 275.775V275.775C44.1762 276.274 43.7061 277.796 44.4552 278.912L84.4224 338.438C85.1381 339.504 86.5014 339.924 87.6936 339.448L88.103 339.284C89.1756 338.855 89.5797 337.546 88.9357 336.587L48.806 276.819Z" fill="#FEA16B"/>
</g>
<rect x="70.2231" y="348.887" width="41.7421" height="2.72231" fill="#FEA16B"/>
<g filter="url(#filter3_d_30417_26895)">
<path d="M143.421 322.232C144.167 321.602 145.199 321.436 146.106 321.798V321.798C147.494 322.353 147.791 324.188 146.648 325.152L106.862 358.721C106.094 359.37 105.03 359.542 104.096 359.168L103.883 359.083C102.611 358.574 102.34 356.894 103.387 356.011L143.421 322.232Z" fill="#FEA16B"/>
</g>
<path d="M87.4644 278.559H49.3521C64.3248 325.292 84.7421 337.542 106.974 337.542C124.76 337.542 135.861 327.56 139.188 322.569H112.873C108.517 318.577 94.119 291.565 87.4644 278.559Z" fill="#29C66A"/>
<path d="M88.3719 278.559H50.2595C65.2322 325.292 85.6496 337.542 107.882 337.542C125.668 337.542 136.769 327.56 140.096 322.569H113.78C109.424 318.577 95.0265 291.565 88.3719 278.559Z" fill="#29C66A"/>
<mask id="mask2_30417_26895" style="mask-type:alpha" maskUnits="userSpaceOnUse" x="50" y="278" width="91" height="60">
<path d="M88.3719 278.559H50.2595C65.2322 325.292 85.6496 337.542 107.882 337.542C125.668 337.542 136.769 327.56 140.096 322.569H113.78C109.424 318.577 95.0265 291.565 88.3719 278.559Z" fill="#4B5CE7"/>
</mask>
<g mask="url(#mask2_30417_26895)">
<path d="M101.984 337.089C78.3901 335.274 60.2414 292.927 54.7968 274.93H60.2414C78.3901 319.848 87.4645 329.376 101.984 337.089Z" fill="#C2CBED"/>
<path d="M114.688 337.543C90.6405 336.635 71.1305 292.927 65.6859 274.93H71.1305C89.733 318.033 100.169 329.83 114.688 337.543Z" fill="#C2CBED"/>
<path d="M126.938 335.728C102.891 334.821 82.9273 292.927 77.4827 274.93H82.9273C101.53 318.033 112.419 328.015 126.938 335.728Z" fill="#C2CBED"/>
</g>
<g filter="url(#filter4_d_30417_26895)">
<path d="M117.223 306.933C117.329 306.018 118.104 305.328 119.025 305.328H119.908C120.994 305.328 121.837 306.275 121.711 307.353L115.782 358.17C115.676 359.085 114.901 359.774 113.98 359.774H113.097C112.011 359.774 111.168 358.828 111.294 357.749L117.223 306.933Z" fill="#FEA16B"/>
</g>
<g filter="url(#filter5_d_30417_26895)">
<path d="M94.178 276.819C93.4379 275.717 92.0284 275.282 90.7957 275.775V275.775C89.5481 276.274 89.0781 277.796 89.8271 278.912L129.794 338.438C130.51 339.504 131.873 339.924 133.066 339.448L133.475 339.284C134.548 338.855 134.952 337.546 134.308 336.587L94.178 276.819Z" fill="#FEA16B"/>
</g>
<g filter="url(#filter6_d_30417_26895)">
<path d="M148.263 313.043H120.132V316.219H137.827L147.927 357.934C148.124 358.749 148.853 359.322 149.691 359.322H150.97C152.138 359.322 153.002 358.236 152.739 357.098L143.272 316.219H148.263V313.043Z" fill="#FEA16B"/>
</g>
<g filter="url(#filter7_d_30417_26895)">
<path d="M288.649 306.933C288.542 306.018 287.768 305.328 286.847 305.328H285.964C284.878 305.328 284.035 306.275 284.161 307.353L290.09 358.17C290.196 359.085 290.971 359.774 291.892 359.774H292.775C293.861 359.774 294.704 358.828 294.578 357.749L288.649 306.933Z" fill="#FEA16B"/>
</g>
<g filter="url(#filter8_d_30417_26895)">
<path d="M262.451 322.232C261.705 321.602 260.673 321.436 259.766 321.798V321.798C258.378 322.353 258.081 324.188 259.224 325.152L299.01 358.721C299.778 359.37 300.842 359.542 301.776 359.168L301.989 359.083C303.261 358.574 303.532 356.894 302.485 356.011L262.451 322.232Z" fill="#FEA16B"/>
</g>
<g filter="url(#filter9_d_30417_26895)">
<path d="M311.694 276.819C312.434 275.717 313.844 275.282 315.076 275.775V275.775C316.324 276.274 316.794 277.796 316.045 278.912L276.078 338.438C275.362 339.504 273.999 339.924 272.806 339.448L272.397 339.284C271.324 338.855 270.92 337.546 271.564 336.587L311.694 276.819Z" fill="#FEA16B"/>
</g>
<rect width="41.7421" height="2.72231" transform="matrix(-1 0 0 1 290.277 348.887)" fill="#FEA16B"/>
<g filter="url(#filter10_d_30417_26895)">
<path d="M217.079 322.232C216.333 321.602 215.301 321.436 214.394 321.798V321.798C213.006 322.353 212.709 324.188 213.852 325.152L253.638 358.721C254.406 359.37 255.47 359.542 256.404 359.168L256.617 359.083C257.889 358.574 258.16 356.894 257.113 356.011L217.079 322.232Z" fill="#FEA16B"/>
</g>
<path d="M273.036 278.559H311.148C296.175 325.292 275.758 337.542 253.526 337.542C235.74 337.542 224.639 327.56 221.312 322.569H247.627C251.983 318.577 266.381 291.565 273.036 278.559Z" fill="#29C66A"/>
<path d="M272.128 278.559H310.24C295.268 325.292 274.85 337.542 252.618 337.542C234.832 337.542 223.731 327.56 220.404 322.569H246.72C251.076 318.577 265.474 291.565 272.128 278.559Z" fill="#29C66A"/>
<mask id="mask3_30417_26895" style="mask-type:alpha" maskUnits="userSpaceOnUse" x="220" y="278" width="91" height="60">
<path d="M272.128 278.559H310.24C295.268 325.292 274.85 337.542 252.618 337.542C234.832 337.542 223.731 327.56 220.404 322.569H246.72C251.076 318.577 265.474 291.565 272.128 278.559Z" fill="#4B5CE7"/>
</mask>
<g mask="url(#mask3_30417_26895)">
<path d="M258.516 337.089C282.11 335.274 300.259 292.927 305.703 274.93H300.259C282.11 319.848 273.035 329.376 258.516 337.089Z" fill="#C2CBED"/>
<path d="M245.812 337.543C269.859 336.635 289.369 292.927 294.814 274.93H289.369C270.767 318.033 260.331 329.83 245.812 337.543Z" fill="#C2CBED"/>
<path d="M233.562 335.728C257.609 334.821 277.573 292.927 283.017 274.93H277.573C258.97 318.033 248.081 328.015 233.562 335.728Z" fill="#C2CBED"/>
</g>
<g filter="url(#filter11_d_30417_26895)">
<path d="M243.277 306.933C243.171 306.018 242.396 305.328 241.475 305.328H240.592C239.506 305.328 238.663 306.275 238.789 307.353L244.718 358.17C244.824 359.085 245.599 359.774 246.52 359.774H247.403C248.489 359.774 249.332 358.828 249.206 357.749L243.277 306.933Z" fill="#FEA16B"/>
</g>
<g filter="url(#filter12_d_30417_26895)">
<path d="M266.322 276.819C267.062 275.717 268.472 275.282 269.704 275.775V275.775C270.952 276.274 271.422 277.796 270.673 278.912L230.706 338.438C229.99 339.504 228.627 339.924 227.434 339.448L227.025 339.284C225.952 338.855 225.548 337.546 226.192 336.587L266.322 276.819Z" fill="#FEA16B"/>
</g>
<g filter="url(#filter13_d_30417_26895)">
<path d="M212.237 313.043H242.5L240.368 316.219H222.673L212.573 357.934C212.376 358.749 211.647 359.322 210.809 359.322H209.529C208.362 359.322 207.498 358.236 207.761 357.098L217.228 316.219H212.237V313.043Z" fill="#FEA16B"/>
</g>
<g filter="url(#filter14_d_30417_26895)">
<mask id="path-53-outside-1_30417_26895" maskUnits="userSpaceOnUse" x="128" y="264" width="38" height="33" fill="black">
<rect fill="white" x="128" y="264" width="38" height="33"/>
<path fill-rule="evenodd" clip-rule="evenodd" d="M133.861 267C132.281 267 131 268.281 131 269.861V287.029C131 288.609 132.281 289.89 133.861 289.89L142.445 289.89L145.809 293.255C146.48 293.925 147.567 293.925 148.237 293.255L151.601 289.89H160.185C161.766 289.89 163.047 288.609 163.047 287.029V269.861C163.047 268.281 161.766 267 160.185 267H133.861Z"/>
</mask>
<path fill-rule="evenodd" clip-rule="evenodd" d="M133.861 267C132.281 267 131 268.281 131 269.861V287.029C131 288.609 132.281 289.89 133.861 289.89L142.445 289.89L145.809 293.255C146.48 293.925 147.567 293.925 148.237 293.255L151.601 289.89H160.185C161.766 289.89 163.047 288.609 163.047 287.029V269.861C163.047 268.281 161.766 267 160.185 267H133.861Z" fill="#FED02F"/>
<path d="M133.861 289.89L133.861 292.179L133.861 292.179L133.861 289.89ZM142.445 289.89L144.064 288.272L143.393 287.601L142.445 287.601L142.445 289.89ZM148.237 293.255L146.619 291.636L146.619 291.636L148.237 293.255ZM151.601 289.89V287.601H150.653L149.983 288.272L151.601 289.89ZM133.289 269.861C133.289 269.545 133.545 269.289 133.861 269.289V264.711C131.017 264.711 128.711 267.017 128.711 269.861H133.289ZM133.289 287.029V269.861H128.711V287.029H133.289ZM133.861 287.601C133.545 287.601 133.289 287.345 133.289 287.029H128.711C128.711 289.874 131.017 292.179 133.861 292.179V287.601ZM142.445 287.601L133.861 287.601L133.861 292.179L142.445 292.179L142.445 287.601ZM147.428 291.636L144.064 288.272L140.827 291.509L144.191 294.873L147.428 291.636ZM146.619 291.636C146.842 291.412 147.204 291.412 147.428 291.636L144.191 294.873C145.755 296.437 148.291 296.437 149.856 294.873L146.619 291.636ZM149.983 288.272L146.619 291.636L149.856 294.873L153.22 291.509L149.983 288.272ZM160.185 287.601H151.601V292.179H160.185V287.601ZM160.758 287.029C160.758 287.345 160.501 287.601 160.185 287.601V292.179C163.03 292.179 165.336 289.874 165.336 287.029H160.758ZM160.758 269.861V287.029H165.336V269.861H160.758ZM160.185 269.289C160.501 269.289 160.758 269.545 160.758 269.861H165.336C165.336 267.017 163.03 264.711 160.185 264.711V269.289ZM133.861 269.289H160.185V264.711H133.861V269.289Z" fill="white" mask="url(#path-53-outside-1_30417_26895)"/>
</g>
<rect x="137.867" y="273.867" width="18.3123" height="2.28904" rx="1.14452" fill="white"/>
<rect x="137.867" y="281.879" width="18.3123" height="2.28904" rx="1.14452" fill="white"/>
<g filter="url(#filter15_d_30417_26895)">
<mask id="path-57-outside-2_30417_26895" maskUnits="userSpaceOnUse" x="296" y="210" width="38" height="33" fill="black">
<rect fill="white" x="296" y="210" width="38" height="33"/>
<path fill-rule="evenodd" clip-rule="evenodd" d="M301.861 213C300.281 213 299 214.281 299 215.861V233.029C299 234.609 300.281 235.89 301.861 235.89L310.445 235.89L313.809 239.255C314.48 239.925 315.567 239.925 316.237 239.255L319.601 235.89H328.185C329.766 235.89 331.047 234.609 331.047 233.029V215.861C331.047 214.281 329.766 213 328.185 213H301.861Z"/>
</mask>
<path fill-rule="evenodd" clip-rule="evenodd" d="M301.861 213C300.281 213 299 214.281 299 215.861V233.029C299 234.609 300.281 235.89 301.861 235.89L310.445 235.89L313.809 239.255C314.48 239.925 315.567 239.925 316.237 239.255L319.601 235.89H328.185C329.766 235.89 331.047 234.609 331.047 233.029V215.861C331.047 214.281 329.766 213 328.185 213H301.861Z" fill="#FED02F"/>
<path d="M301.861 235.89L301.861 238.179L301.861 238.179L301.861 235.89ZM310.445 235.89L312.064 234.272L311.393 233.601L310.445 233.601L310.445 235.89ZM316.237 239.255L314.619 237.636L314.619 237.636L316.237 239.255ZM319.601 235.89V233.601H318.653L317.983 234.272L319.601 235.89ZM301.289 215.861C301.289 215.545 301.545 215.289 301.861 215.289V210.711C299.017 210.711 296.711 213.017 296.711 215.861H301.289ZM301.289 233.029V215.861H296.711V233.029H301.289ZM301.861 233.601C301.545 233.601 301.289 233.345 301.289 233.029H296.711C296.711 235.874 299.017 238.179 301.861 238.179V233.601ZM310.445 233.601L301.861 233.601L301.861 238.179L310.445 238.179L310.445 233.601ZM315.428 237.636L312.064 234.272L308.827 237.509L312.191 240.873L315.428 237.636ZM314.619 237.636C314.842 237.412 315.204 237.412 315.428 237.636L312.191 240.873C313.755 242.437 316.291 242.437 317.856 240.873L314.619 237.636ZM317.983 234.272L314.619 237.636L317.856 240.873L321.22 237.509L317.983 234.272ZM328.185 233.601H319.601V238.179H328.185V233.601ZM328.758 233.029C328.758 233.345 328.501 233.601 328.185 233.601V238.179C331.03 238.179 333.336 235.874 333.336 233.029H328.758ZM328.758 215.861V233.029H333.336V215.861H328.758ZM328.185 215.289C328.501 215.289 328.758 215.545 328.758 215.861H333.336C333.336 213.017 331.03 210.711 328.185 210.711V215.289ZM301.861 215.289H328.185V210.711H301.861V215.289Z" fill="white" mask="url(#path-57-outside-2_30417_26895)"/>
</g>
<rect x="305.867" y="219.867" width="18.3123" height="2.28904" rx="1.14452" fill="white"/>
<rect x="305.867" y="227.879" width="18.3123" height="2.28904" rx="1.14452" fill="white"/>
<g filter="url(#filter16_d_30417_26895)">
<mask id="path-61-outside-3_30417_26895" maskUnits="userSpaceOnUse" x="42" y="199" width="38" height="33" fill="black">
<rect fill="white" x="42" y="199" width="38" height="33"/>
<path fill-rule="evenodd" clip-rule="evenodd" d="M47.8613 202C46.281 202 45 203.281 45 204.861V222.029C45 223.609 46.281 224.89 47.8613 224.89L56.4452 224.89L59.8093 228.255C60.4798 228.925 61.5668 228.925 62.2372 228.255L65.6014 224.89H74.1853C75.7655 224.89 77.0466 223.609 77.0466 222.029V204.861C77.0466 203.281 75.7655 202 74.1853 202H47.8613Z"/>
</mask>
<path fill-rule="evenodd" clip-rule="evenodd" d="M47.8613 202C46.281 202 45 203.281 45 204.861V222.029C45 223.609 46.281 224.89 47.8613 224.89L56.4452 224.89L59.8093 228.255C60.4798 228.925 61.5668 228.925 62.2372 228.255L65.6014 224.89H74.1853C75.7655 224.89 77.0466 223.609 77.0466 222.029V204.861C77.0466 203.281 75.7655 202 74.1853 202H47.8613Z" fill="#E05354"/>
<path d="M47.8613 224.89L47.8613 227.179L47.8613 227.179L47.8613 224.89ZM56.4452 224.89L58.0638 223.272L57.3934 222.601L56.4452 222.601L56.4452 224.89ZM62.2372 228.255L60.6186 226.636L60.6186 226.636L62.2372 228.255ZM65.6014 224.89V222.601H64.6532L63.9828 223.272L65.6014 224.89ZM47.289 204.861C47.289 204.545 47.5453 204.289 47.8613 204.289V199.711C45.0168 199.711 42.711 202.017 42.711 204.861H47.289ZM47.289 222.029V204.861H42.711V222.029H47.289ZM47.8613 222.601C47.5452 222.601 47.289 222.345 47.289 222.029H42.711C42.711 224.874 45.0168 227.179 47.8613 227.179V222.601ZM56.4452 222.601L47.8613 222.601L47.8613 227.179L56.4452 227.179L56.4452 222.601ZM61.4279 226.636L58.0638 223.272L54.8266 226.509L58.1907 229.873L61.4279 226.636ZM60.6186 226.636C60.8421 226.412 61.2045 226.412 61.4279 226.636L58.1907 229.873C59.7551 231.437 62.2915 231.437 63.8558 229.873L60.6186 226.636ZM63.9828 223.272L60.6186 226.636L63.8558 229.873L67.22 226.509L63.9828 223.272ZM74.1853 222.601H65.6014V227.179H74.1853V222.601ZM74.7575 222.029C74.7575 222.345 74.5013 222.601 74.1853 222.601V227.179C77.0297 227.179 79.3356 224.874 79.3356 222.029H74.7575ZM74.7575 204.861V222.029H79.3356V204.861H74.7575ZM74.1853 204.289C74.5013 204.289 74.7575 204.545 74.7575 204.861H79.3356C79.3356 202.017 77.0297 199.711 74.1853 199.711V204.289ZM47.8613 204.289H74.1853V199.711H47.8613V204.289Z" fill="white" mask="url(#path-61-outside-3_30417_26895)"/>
</g>
<rect x="51.8672" y="208.867" width="18.3123" height="2.28904" rx="1.14452" fill="white"/>
<rect x="51.8672" y="216.879" width="18.3123" height="2.28904" rx="1.14452" fill="white"/>
<g filter="url(#filter17_d_30417_26895)">
<mask id="path-65-outside-4_30417_26895" maskUnits="userSpaceOnUse" x="278" y="230" width="38" height="33" fill="black">
<rect fill="white" x="278" y="230" width="38" height="33"/>
<path fill-rule="evenodd" clip-rule="evenodd" d="M283.861 233C282.281 233 281 234.281 281 235.861V253.029C281 254.609 282.281 255.89 283.861 255.89L292.445 255.89L295.809 259.255C296.48 259.925 297.567 259.925 298.237 259.255L301.601 255.89H310.185C311.766 255.89 313.047 254.609 313.047 253.029V235.861C313.047 234.281 311.766 233 310.185 233H283.861Z"/>
</mask>
<path fill-rule="evenodd" clip-rule="evenodd" d="M283.861 233C282.281 233 281 234.281 281 235.861V253.029C281 254.609 282.281 255.89 283.861 255.89L292.445 255.89L295.809 259.255C296.48 259.925 297.567 259.925 298.237 259.255L301.601 255.89H310.185C311.766 255.89 313.047 254.609 313.047 253.029V235.861C313.047 234.281 311.766 233 310.185 233H283.861Z" fill="#29C66A"/>
<path d="M283.861 255.89L283.861 258.179L283.861 258.179L283.861 255.89ZM292.445 255.89L294.064 254.272L293.393 253.601L292.445 253.601L292.445 255.89ZM298.237 259.255L296.619 257.636L296.619 257.636L298.237 259.255ZM301.601 255.89V253.601H300.653L299.983 254.272L301.601 255.89ZM283.289 235.861C283.289 235.545 283.545 235.289 283.861 235.289V230.711C281.017 230.711 278.711 233.017 278.711 235.861H283.289ZM283.289 253.029V235.861H278.711V253.029H283.289ZM283.861 253.601C283.545 253.601 283.289 253.345 283.289 253.029H278.711C278.711 255.874 281.017 258.179 283.861 258.179V253.601ZM292.445 253.601L283.861 253.601L283.861 258.179L292.445 258.179L292.445 253.601ZM297.428 257.636L294.064 254.272L290.827 257.509L294.191 260.873L297.428 257.636ZM296.619 257.636C296.842 257.412 297.204 257.412 297.428 257.636L294.191 260.873C295.755 262.437 298.291 262.437 299.856 260.873L296.619 257.636ZM299.983 254.272L296.619 257.636L299.856 260.873L303.22 257.509L299.983 254.272ZM310.185 253.601H301.601V258.179H310.185V253.601ZM310.758 253.029C310.758 253.345 310.501 253.601 310.185 253.601V258.179C313.03 258.179 315.336 255.874 315.336 253.029H310.758ZM310.758 235.861V253.029H315.336V235.861H310.758ZM310.185 235.289C310.501 235.289 310.758 235.545 310.758 235.861H315.336C315.336 233.017 313.03 230.711 310.185 230.711V235.289ZM283.861 235.289H310.185V230.711H283.861V235.289Z" fill="white" mask="url(#path-65-outside-4_30417_26895)"/>
</g>
<rect x="287.867" y="239.867" width="18.3123" height="2.28904" rx="1.14452" fill="white"/>
<rect x="287.867" y="247.879" width="18.3123" height="2.28904" rx="1.14452" fill="white"/>
<g filter="url(#filter18_d_30417_26895)">
<mask id="path-69-outside-5_30417_26895" maskUnits="userSpaceOnUse" x="205" y="154" width="38" height="33" fill="black">
<rect fill="white" x="205" y="154" width="38" height="33"/>
<path fill-rule="evenodd" clip-rule="evenodd" d="M210.861 157C209.281 157 208 158.281 208 159.861V177.029C208 178.609 209.281 179.89 210.861 179.89L219.445 179.89L222.809 183.255C223.48 183.925 224.567 183.925 225.237 183.255L228.601 179.89H237.185C238.766 179.89 240.047 178.609 240.047 177.029V159.861C240.047 158.281 238.766 157 237.185 157H210.861Z"/>
</mask>
<path fill-rule="evenodd" clip-rule="evenodd" d="M210.861 157C209.281 157 208 158.281 208 159.861V177.029C208 178.609 209.281 179.89 210.861 179.89L219.445 179.89L222.809 183.255C223.48 183.925 224.567 183.925 225.237 183.255L228.601 179.89H237.185C238.766 179.89 240.047 178.609 240.047 177.029V159.861C240.047 158.281 238.766 157 237.185 157H210.861Z" fill="#29C66A"/>
<path d="M210.861 179.89L210.861 182.179L210.861 182.179L210.861 179.89ZM219.445 179.89L221.064 178.272L220.393 177.601L219.445 177.601L219.445 179.89ZM225.237 183.255L223.619 181.636L223.619 181.636L225.237 183.255ZM228.601 179.89V177.601H227.653L226.983 178.272L228.601 179.89ZM210.289 159.861C210.289 159.545 210.545 159.289 210.861 159.289V154.711C208.017 154.711 205.711 157.017 205.711 159.861H210.289ZM210.289 177.029V159.861H205.711V177.029H210.289ZM210.861 177.601C210.545 177.601 210.289 177.345 210.289 177.029H205.711C205.711 179.874 208.017 182.179 210.861 182.179V177.601ZM219.445 177.601L210.861 177.601L210.861 182.179L219.445 182.179L219.445 177.601ZM224.428 181.636L221.064 178.272L217.827 181.509L221.191 184.873L224.428 181.636ZM223.619 181.636C223.842 181.412 224.204 181.412 224.428 181.636L221.191 184.873C222.755 186.437 225.291 186.437 226.856 184.873L223.619 181.636ZM226.983 178.272L223.619 181.636L226.856 184.873L230.22 181.509L226.983 178.272ZM237.185 177.601H228.601V182.179H237.185V177.601ZM237.758 177.029C237.758 177.345 237.501 177.601 237.185 177.601V182.179C240.03 182.179 242.336 179.874 242.336 177.029H237.758ZM237.758 159.861V177.029H242.336V159.861H237.758ZM237.185 159.289C237.501 159.289 237.758 159.545 237.758 159.861H242.336C242.336 157.017 240.03 154.711 237.185 154.711V159.289ZM210.861 159.289H237.185V154.711H210.861V159.289Z" fill="white" mask="url(#path-69-outside-5_30417_26895)"/>
</g>
<rect x="214.867" y="163.867" width="18.3123" height="2.28904" rx="1.14452" fill="white"/>
<rect x="214.867" y="171.879" width="18.3123" height="2.28904" rx="1.14452" fill="white"/>
<g clip-path="url(#clip0_30417_26895)">
<path d="M71.22 56.1499C70.8886 54.824 70.2859 53.5812 69.45 52.4999C68.6538 51.4964 67.6237 50.7032 66.45 50.1899C65.079 49.6208 63.6041 49.3449 62.12 49.3799C60.5825 49.3446 59.0552 49.6378 57.64 50.2399C56.4074 50.7854 55.3211 51.6146 54.47 52.6599C53.5867 53.7802 52.9434 55.0703 52.58 56.4499C52.1499 58.0608 51.9413 59.7227 51.96 61.3899C51.9379 63.0464 52.1227 64.6992 52.51 66.3099C52.8303 67.6464 53.4226 68.9025 54.25 69.9999C55.0394 71.0152 56.0709 71.8163 57.25 72.3299C58.6396 72.9084 60.1353 73.1878 61.64 73.1499C63.1708 73.1826 64.6911 72.8895 66.1 72.2899C67.3394 71.7465 68.4275 70.909 69.27 69.8499C70.1503 68.7128 70.793 67.4103 71.16 66.0199C71.596 64.3896 71.8079 62.7074 71.79 61.0199C71.8145 59.3786 71.6228 57.7412 71.22 56.1499ZM69.1 64.9799C68.8709 66.1076 68.4335 67.1827 67.81 68.1499C67.2062 69.0597 66.3891 69.808 65.43 70.3299C64.3084 70.9037 63.0592 71.1825 61.8 71.1399C60.5464 71.1837 59.3008 70.9229 58.17 70.3799C57.2245 69.8975 56.424 69.1728 55.85 68.2799C55.2382 67.3157 54.8173 66.2429 54.61 65.1199C54.3594 63.8352 54.2354 62.5289 54.24 61.2199C54.2348 59.9491 54.369 58.6815 54.64 57.4399C54.8743 56.323 55.3188 55.2608 55.95 54.3099C56.5585 53.4145 57.3752 52.6802 58.33 52.1699C59.4406 51.6062 60.6752 51.3311 61.92 51.3699C63.1638 51.3286 64.3991 51.5894 65.52 52.1299C66.4639 52.614 67.2666 53.334 67.85 54.2199C68.4625 55.175 68.8899 56.2368 69.11 57.3499C69.3794 58.6222 69.5135 59.9194 69.51 61.2199C69.5064 62.4842 69.369 63.7446 69.1 64.9799Z" fill="white"/>
<path d="M88.35 72.6795C88.308 72.7415 88.2489 72.7901 88.18 72.8195C88.0778 72.8636 87.9702 72.8939 87.86 72.9095C87.6936 72.9224 87.5264 72.9224 87.36 72.9095C87.1869 72.9227 87.0131 72.9227 86.84 72.9095C86.7263 72.8952 86.6152 72.8649 86.51 72.8195C86.4416 72.7892 86.3829 72.7408 86.34 72.6795C86.3057 72.6185 86.2884 72.5495 86.29 72.4795V62.8695C86.3075 62.05 86.2303 61.2313 86.06 60.4295C85.9307 59.8551 85.6968 59.3093 85.37 58.8195C85.0662 58.393 84.6606 58.0492 84.19 57.8195C83.6702 57.5533 83.094 57.4162 82.51 57.4195C81.6205 57.4446 80.7622 57.7529 80.06 58.2995C79.0969 59.036 78.239 59.9007 77.51 60.8695V72.4795C77.5131 72.552 77.4936 72.6237 77.4542 72.6846C77.4148 72.7455 77.3574 72.7926 77.29 72.8195C77.1879 72.8637 77.0802 72.894 76.97 72.9095C76.7969 72.9226 76.6231 72.9226 76.45 72.9095C76.2803 72.9228 76.1098 72.9228 75.94 72.9095C75.8267 72.8934 75.7158 72.8632 75.61 72.8195C75.539 72.7937 75.479 72.7443 75.44 72.6795C75.4247 72.6137 75.4247 72.5453 75.44 72.4795V56.2895C75.4243 56.2238 75.4243 56.1553 75.44 56.0895C75.4785 56.022 75.5383 55.9693 75.61 55.9395C75.7083 55.8942 75.8128 55.8638 75.92 55.8495C76.0832 55.8385 76.2469 55.8385 76.41 55.8495C76.5765 55.8386 76.7435 55.8386 76.91 55.8495C77.0145 55.8615 77.1161 55.892 77.21 55.9395C77.2732 55.9743 77.3253 56.0263 77.36 56.0895C77.3754 56.1553 77.3754 56.2237 77.36 56.2895V58.5795C78.1341 57.6678 79.0656 56.9023 80.11 56.3195C80.92 55.8749 81.8262 55.6347 82.75 55.6195C83.6663 55.594 84.5762 55.7787 85.41 56.1595C86.1032 56.4924 86.7041 56.9903 87.16 57.6095C87.6327 58.2453 87.9728 58.9697 88.16 59.7395C88.3706 60.7049 88.468 61.6916 88.45 62.6795V72.4895C88.4516 72.5595 88.4343 72.6285 88.4 72.6895L88.35 72.6795Z" fill="white"/>
<path d="M95 72.6807C94.9584 72.7431 94.8992 72.7919 94.83 72.8207C94.7279 72.8652 94.6203 72.8955 94.51 72.9107C94.3369 72.9239 94.1631 72.9239 93.99 72.9107C93.8203 72.924 93.6497 72.924 93.48 72.9107C93.3668 72.8942 93.2559 72.864 93.15 72.8207C93.0794 72.7942 93.0196 72.745 92.98 72.6807C92.9657 72.6148 92.9657 72.5466 92.98 72.4807V48.3607C92.965 48.2949 92.965 48.2265 92.98 48.1607C93.0196 48.0942 93.079 48.0417 93.15 48.0107C93.2633 47.9585 93.3854 47.928 93.51 47.9207C93.6798 47.9092 93.8502 47.9092 94.02 47.9207C94.1932 47.9094 94.3668 47.9094 94.54 47.9207C94.6512 47.931 94.7597 47.9615 94.86 48.0107C94.9293 48.0442 94.9882 48.0961 95.03 48.1607C95.0658 48.2211 95.0832 48.2906 95.08 48.3607V72.4807C95.0826 72.5508 95.0653 72.6201 95.03 72.6807H95Z" fill="white"/>
<path d="M102.14 51.9895C101.827 52.2311 101.433 52.3422 101.04 52.2995C100.658 52.3392 100.276 52.2319 99.97 51.9995C99.7359 51.6646 99.6328 51.2554 99.68 50.8495C99.6331 50.4391 99.74 50.0258 99.9801 49.6895C100.294 49.4499 100.687 49.339 101.08 49.3795C101.462 49.3389 101.845 49.4462 102.15 49.6795C102.385 50.0141 102.488 50.4236 102.44 50.8295C102.488 51.2401 102.381 51.6537 102.14 51.9895Z" fill="white"/>
<path d="M100.22 55.9398C100.325 55.8928 100.436 55.8624 100.55 55.8498C100.716 55.8394 100.883 55.8394 101.05 55.8498C101.223 55.8391 101.397 55.8391 101.57 55.8498C101.681 55.8618 101.789 55.8922 101.89 55.9398C101.959 55.9733 102.018 56.0252 102.06 56.0898C102.095 56.1504 102.113 56.2198 102.11 56.2898V72.4898C102.112 72.562 102.092 72.633 102.052 72.6937C102.013 72.7543 101.957 72.8017 101.89 72.8298C101.788 72.8735 101.68 72.9037 101.57 72.9198C101.397 72.9331 101.223 72.9331 101.05 72.9198C100.884 72.9327 100.716 72.9327 100.55 72.9198C100.437 72.9037 100.326 72.8735 100.22 72.8298C100.149 72.804 100.089 72.7546 100.05 72.6898C100.034 72.6241 100.034 72.5556 100.05 72.4898V56.2898C100.033 56.2242 100.033 56.1555 100.05 56.0898C100.089 56.0228 100.149 55.9702 100.22 55.9398Z" fill="white"/>
<path d="M120.03 72.6793C119.988 72.7409 119.929 72.7894 119.86 72.8193C119.758 72.8635 119.65 72.8938 119.54 72.9093C119.37 72.9225 119.2 72.9225 119.03 72.9093C118.857 72.9224 118.683 72.9224 118.51 72.9093C118.4 72.8933 118.292 72.8631 118.19 72.8193C118.121 72.7904 118.062 72.7417 118.02 72.6793C117.986 72.6183 117.968 72.5492 117.97 72.4793V62.8693C117.99 62.0497 117.912 61.2307 117.74 60.4293C117.609 59.8553 117.376 59.3097 117.05 58.8193C116.746 58.3931 116.34 58.0494 115.87 57.8193C115.347 57.5639 114.771 57.437 114.19 57.4493C113.301 57.4744 112.442 57.7826 111.74 58.3293C110.77 59.068 109.905 59.9361 109.17 60.9093V72.4793C109.172 72.5493 109.155 72.6185 109.12 72.6793C109.078 72.7413 109.019 72.7899 108.95 72.8193C108.848 72.8634 108.74 72.8937 108.63 72.9093C108.457 72.9227 108.283 72.9227 108.11 72.9093C107.94 72.9225 107.77 72.9225 107.6 72.9093C107.487 72.8928 107.376 72.8626 107.27 72.8193C107.199 72.7928 107.14 72.7435 107.1 72.6793C107.085 72.6135 107.085 72.5451 107.1 72.4793V56.2893C107.085 56.2235 107.085 56.1551 107.1 56.0893C107.14 56.0227 107.199 55.9703 107.27 55.9393C107.368 55.8945 107.473 55.8642 107.58 55.8493C107.743 55.8381 107.907 55.8381 108.07 55.8493C108.237 55.8383 108.404 55.8383 108.57 55.8493C108.675 55.8613 108.776 55.8918 108.87 55.9393C108.933 55.9745 108.985 56.0264 109.02 56.0893C109.035 56.1551 109.035 56.2235 109.02 56.2893V58.5793C109.783 57.6748 110.701 56.913 111.73 56.3293C112.54 55.8839 113.446 55.6436 114.37 55.6293C115.286 55.6037 116.196 55.7885 117.03 56.1693C117.723 56.5025 118.324 57.0004 118.78 57.6193C119.253 58.2549 119.593 58.9793 119.78 59.7493C119.991 60.7147 120.088 61.7013 120.07 62.6893V72.4993C120.073 72.5693 120.055 72.6387 120.02 72.6993L120.03 72.6793Z" fill="white"/>
<path d="M137.39 60.2207C137.156 59.3512 136.747 58.5382 136.19 57.8307C135.624 57.1315 134.906 56.5707 134.09 56.1907C133.122 55.7607 132.069 55.5523 131.01 55.5807C129.959 55.5659 128.917 55.7702 127.95 56.1807C127.044 56.5738 126.24 57.169 125.6 57.9207C124.918 58.733 124.407 59.6754 124.1 60.6907C123.736 61.8861 123.56 63.1311 123.58 64.3807C123.556 65.6586 123.725 66.9328 124.08 68.1607C124.373 69.1659 124.877 70.0968 125.56 70.8907C126.218 71.6296 127.045 72.199 127.97 72.5507C129.025 72.9437 130.145 73.1337 131.27 73.1107C131.981 73.1149 132.69 73.0546 133.39 72.9307C133.974 72.8306 134.552 72.697 135.12 72.5307C135.531 72.413 135.933 72.2625 136.32 72.0807C136.515 71.9999 136.7 71.8958 136.87 71.7707C136.923 71.7162 136.97 71.6558 137.01 71.5907C137.045 71.531 137.072 71.4672 137.09 71.4007C137.095 71.3308 137.095 71.2606 137.09 71.1907C137.095 71.1108 137.095 71.0306 137.09 70.9507C137.101 70.8009 137.101 70.6505 137.09 70.5007C137.078 70.4005 137.051 70.3028 137.01 70.2107C136.982 70.1408 136.933 70.0813 136.87 70.0407C136.81 70.0043 136.74 69.9869 136.67 69.9907C136.463 70.0204 136.263 70.0882 136.08 70.1907C135.8 70.3207 135.45 70.4707 135.02 70.6307C134.521 70.8117 134.009 70.9587 133.49 71.0707C132.833 71.2094 132.162 71.2765 131.49 71.2707C130.581 71.298 129.677 71.1416 128.83 70.8107C128.138 70.5231 127.531 70.0615 127.07 69.4707C126.59 68.817 126.25 68.0716 126.07 67.2807C125.867 66.3513 125.77 65.4019 125.78 64.4507H136.71C136.933 64.4772 137.158 64.4279 137.35 64.3107C137.472 64.2238 137.567 64.1049 137.625 63.9672C137.683 63.8296 137.702 63.6785 137.68 63.5307V63.1007C137.716 62.1319 137.619 61.1628 137.39 60.2207ZM125.86 62.4307C125.86 62.4307 126.02 61.2607 126.25 60.5907C126.472 59.9862 126.812 59.4321 127.25 58.9607C127.676 58.4727 128.201 58.0808 128.79 57.8107C129.453 57.5027 130.179 57.3554 130.91 57.3807C132.47 57.3807 133.66 57.6507 134.47 58.6107C135.245 59.7289 135.654 61.0602 135.64 62.4207L125.86 62.4307Z" fill="white"/>
<path d="M72.8701 81.4803C72.6506 81.0993 72.5694 80.6543 72.6401 80.2203C72.6678 80.0208 72.7362 79.829 72.8411 79.657C72.9461 79.4849 73.0853 79.3363 73.2501 79.2203L73.54 79.0303C73.73 78.9103 73.98 78.7203 74.29 78.4903L74.5301 78.3203L74.7801 78.1203L75.3201 77.6903L75.8701 77.2003L76.15 76.9403L76.42 76.6703L76.6901 76.4003L76.83 76.2703L76.9601 76.1303L77.4601 75.5903C77.6201 75.4103 77.76 75.2303 77.9 75.0603C78.04 74.8903 78.18 74.7403 78.29 74.5803C78.52 74.2703 78.7201 74.0203 78.8401 73.8403L79.04 73.5503C79.1687 73.4051 79.3297 73.2921 79.51 73.2203C79.6757 73.1199 79.859 73.052 80.0501 73.0203C80.4819 72.9534 80.9237 73.0382 81.3001 73.2603L87.51 76.9703C87.708 77.0921 87.8746 77.2587 87.9962 77.4567C88.1178 77.6548 88.1911 77.8787 88.21 78.1103C88.2564 78.3649 88.2564 78.6258 88.21 78.8803C88.1319 79.1515 88.0103 79.4081 87.85 79.6403L87.5501 80.0803C87.3601 80.3603 87.06 80.7403 86.71 81.2003C86.54 81.4303 86.3401 81.6703 86.1201 81.9203C85.9001 82.1703 85.69 82.4403 85.45 82.7203L84.7 83.5303L84.51 83.7403L84.31 83.9403L83.9 84.3403L83.49 84.7503L83.0701 85.1303L82.24 85.8703L81.43 86.5303L81.0501 86.8303L80.6901 87.1003C80.2301 87.4403 79.84 87.7303 79.56 87.9103L79.1201 88.2003C78.6706 88.5115 78.1226 88.6467 77.58 88.5803C77.3492 88.5551 77.1275 88.4758 76.9329 88.349C76.7384 88.2222 76.5764 88.0514 76.4601 87.8503L72.8701 81.4803Z" fill="white"/>
<g opacity="0.8">
<path d="M55.6099 83.5793C55.7381 83.1727 55.9986 82.8207 56.3499 82.5793C56.5091 82.466 56.6892 82.3855 56.8798 82.3426C57.0704 82.2996 57.2676 82.2951 57.4599 82.3293L57.8099 82.3993L58.1999 82.4793L58.7199 82.5593C59.6441 82.6941 60.5761 82.7676 61.5099 82.7793H63.6799L64.2899 82.7193L65.1999 82.5793C65.3177 82.5662 65.4346 82.5462 65.5499 82.5193C65.7373 82.4743 65.9326 82.4743 66.1199 82.5193C66.3099 82.571 66.4893 82.6556 66.6499 82.7693C66.9929 83.0128 67.2431 83.3653 67.3599 83.7693L69.1899 90.8493C69.2445 91.076 69.2458 91.3122 69.1937 91.5395C69.1417 91.7668 69.0377 91.9789 68.8899 92.1593C68.7325 92.3636 68.5352 92.5337 68.3099 92.6593C68.0655 92.8032 67.7983 92.9047 67.5199 92.9593H67.3799L66.9899 93.0293C66.6599 93.0293 66.1799 93.1593 65.6099 93.2293L64.6799 93.3293H63.6399L62.5099 93.4093H61.3899C59.9774 93.3963 58.5674 93.286 57.1699 93.0793L56.3899 92.9593L55.7899 92.8493L55.2699 92.7493C54.735 92.6498 54.2548 92.3582 53.9199 91.9293C53.7751 91.7495 53.6743 91.5383 53.6257 91.3125C53.5771 91.0868 53.582 90.8528 53.6399 90.6293L55.6099 83.5793Z" fill="white"/>
</g>
<g opacity="0.6">
<path d="M41.93 72.8608C42.312 72.6441 42.7572 72.5663 43.19 72.6408C43.3896 72.6685 43.5814 72.737 43.7534 72.8419C43.9254 72.9468 44.074 73.086 44.19 73.2508L44.38 73.5408C44.5 73.7308 44.69 73.9808 44.92 74.2908L45.09 74.5308L45.29 74.7808L45.72 75.3108L46.21 75.8608L46.46 76.1408L46.73 76.4108L47 76.6808L47.13 76.8208L47.27 76.9508L47.81 77.4508L48.34 77.8908C48.51 78.0308 48.66 78.1708 48.82 78.2808L49.56 78.8308L49.85 79.0308C50.0079 79.1391 50.138 79.2829 50.23 79.4508C50.3321 79.6192 50.4001 79.8061 50.43 80.0008C50.478 80.4275 50.3792 80.8578 50.15 81.2208L46.44 87.5208C46.3198 87.7189 46.1551 87.8861 45.9589 88.0094C45.7628 88.1326 45.5406 88.2085 45.31 88.2308C45.0451 88.2776 44.7737 88.2742 44.51 88.2208C44.2353 88.1439 43.9752 88.0222 43.74 87.8608L43.3 87.5608C43.02 87.3708 42.64 87.0708 42.18 86.7208C41.95 86.5508 41.71 86.3408 41.46 86.1308C41.21 85.9208 40.93 85.7008 40.67 85.4608L39.85 84.7108L39.64 84.5208L39.44 84.3108L39.04 83.9008L38.64 83.4908L38.26 83.0708L37.51 82.2208L36.85 81.4108L36.55 81.0408L36.28 80.6808C35.94 80.2208 35.65 79.8308 35.47 79.5508L35.18 79.1108C34.8671 78.6622 34.7317 78.1135 34.8 77.5708C34.8234 77.3406 34.9008 77.1192 35.0259 76.9246C35.151 76.73 35.3203 76.5677 35.52 76.4508L41.93 72.8608Z" fill="white"/>
</g>
<g opacity="0.4">
<path d="M39.83 55.6099C40.2363 55.7388 40.5881 55.9991 40.83 56.3499C40.9439 56.5088 41.0247 56.6889 41.0676 56.8796C41.1106 57.0702 41.1148 57.2676 41.08 57.4599L41.01 57.8099L40.93 58.1999L40.86 58.7199C40.7228 59.6438 40.6493 60.576 40.64 61.5099V63.6299L40.7 64.2399C40.7 64.6199 40.81 64.9299 40.83 65.1499C40.8433 65.2676 40.8634 65.3845 40.89 65.4999C40.9351 65.6873 40.9351 65.8826 40.89 66.0699C40.8373 66.2595 40.7527 66.4387 40.64 66.5999C40.396 66.9423 40.0437 67.1924 39.64 67.3099L32.64 69.2199C32.4134 69.2752 32.177 69.2769 31.9496 69.2248C31.7222 69.1728 31.51 69.0684 31.33 68.9199C31.1276 68.7606 30.9578 68.5637 30.83 68.3399C30.6756 68.0841 30.5673 67.8032 30.51 67.5099V67.3799C30.51 67.2499 30.51 67.1599 30.44 66.9899C30.44 66.6599 30.31 66.1799 30.24 65.6099C30.24 65.3199 30.18 65.0099 30.14 64.6799C30.14 64.5199 30.14 64.3499 30.09 64.1699V63.6399C30.09 63.2799 30.09 62.9099 30.04 62.5299C29.99 62.1499 30.04 61.7699 30.04 61.3799C30.0541 59.9674 30.1644 58.5575 30.37 57.1599L30.49 56.3799C30.49 56.1499 30.57 55.9499 30.61 55.7799L30.71 55.2599C30.808 54.7348 31.092 54.2626 31.51 53.9299C31.6895 53.7844 31.9007 53.6832 32.1266 53.6345C32.3524 53.5859 32.5866 53.5911 32.81 53.6499L39.83 55.6099Z" fill="white"/>
</g>
<g opacity="0.6">
<path d="M50.51 41.9299C50.746 42.3159 50.838 42.7727 50.77 43.2199C50.7423 43.4195 50.6739 43.6113 50.569 43.7833C50.464 43.9553 50.3248 44.104 50.16 44.2199L49.87 44.4099C49.68 44.5299 49.43 44.7199 49.12 44.9499L48.88 45.1299L48.63 45.3299L48.09 45.7599L47.51 46.2199L47.23 46.4699L46.96 46.7399L46.69 47.0099L46.55 47.1399L46.42 47.2799L45.92 47.8199C45.76 47.9999 45.62 48.1799 45.48 48.3499C45.34 48.5199 45.2 48.6699 45.09 48.8299C44.98 48.9899 44.66 49.3799 44.54 49.5699L44.34 49.8599C44.2324 50.0209 44.0886 50.1545 43.92 50.2499C43.7515 50.3518 43.5647 50.4198 43.37 50.4499C42.9382 50.516 42.4967 50.4313 42.12 50.2099L35.82 46.4899C35.6221 46.3682 35.4555 46.2016 35.3339 46.0035C35.2123 45.8055 35.139 45.5816 35.12 45.3499C35.0733 45.0954 35.0733 44.8345 35.12 44.5799C35.1983 44.3089 35.3199 44.0522 35.48 43.8199L35.78 43.3799C35.97 43.0999 36.27 42.7199 36.62 42.2599C36.79 42.0299 37 41.7899 37.21 41.5399C37.42 41.2899 37.64 41.0199 37.88 40.7499L38.63 39.9299L38.82 39.7199L39.02 39.5199L39.43 39.1199L39.84 38.7199L40.26 38.3399L41.09 37.5999L41.9 36.9399L42.28 36.6399L42.64 36.3699C43.11 36.0299 43.49 35.7399 43.77 35.5599L44.21 35.2699C44.6591 34.9579 45.2074 34.8226 45.75 34.8899C45.9802 34.9133 46.2016 34.9907 46.3962 35.1159C46.5909 35.241 46.7532 35.4103 46.87 35.6099L50.51 41.9299Z" fill="white"/>
</g>
<g opacity="0.8">
<path d="M67.81 39.8294C67.6819 40.236 67.4214 40.588 67.07 40.8294C66.9109 40.9427 66.7308 41.0232 66.5402 41.0661C66.3496 41.109 66.1524 41.1136 65.96 41.0794L65.62 41.0094L65.22 40.9294L64.7 40.8594C63.7761 40.7229 62.8439 40.6494 61.91 40.6394H59.74L59.12 40.6994L58.21 40.8294C58.0957 40.843 57.9821 40.863 57.87 40.8894C57.6827 40.9344 57.4874 40.9344 57.3 40.8894C57.1104 40.837 56.9311 40.7524 56.77 40.6394C56.4277 40.3953 56.1775 40.043 56.06 39.6394L54.23 32.5594C54.1846 32.3463 54.1861 32.1259 54.2344 31.9135C54.2828 31.7011 54.3768 31.5018 54.51 31.3294C54.6674 31.1251 54.8648 30.955 55.09 30.8294C55.3352 30.687 55.6021 30.5856 55.88 30.5294H56.01L56.4 30.4594C56.73 30.4594 57.21 30.3294 57.78 30.2594L58.71 30.1594H59.75L60.86 30.1094H62.01C63.4192 30.1249 64.8257 30.2352 66.22 30.4394L67 30.5594L67.59 30.6694L68.11 30.7694C68.649 30.8303 69.147 31.0864 69.51 31.4894C69.6556 31.6688 69.7568 31.88 69.8054 32.1059C69.8541 32.3318 69.8488 32.5659 69.79 32.7894L67.81 39.8294Z" fill="white"/>
</g>
<path d="M81.51 50.5507C81.1272 50.7651 80.6828 50.8427 80.25 50.7707C80.0504 50.743 79.8586 50.6745 79.6866 50.5696C79.5146 50.4647 79.366 50.3255 79.25 50.1607L79.06 49.8707C78.94 49.6807 78.75 49.4307 78.52 49.1207L78.34 48.8807L78.14 48.6307L77.71 48.0907L77.22 47.5407L76.98 47.2207L76.71 46.9507L76.44 46.6807L76.31 46.5407L76.17 46.4107L75.63 45.9107C75.45 45.7507 75.27 45.6107 75.11 45.4707C74.95 45.3307 74.79 45.1907 74.63 45.0807C74.32 44.8507 74.08 44.6507 73.89 44.5307L73.6 44.3307C73.4424 44.2222 73.3122 44.0783 73.22 43.9107C73.1186 43.7455 73.0506 43.562 73.02 43.3707C72.953 42.9388 73.0379 42.4971 73.26 42.1207L76.98 35.8207C77.1007 35.624 77.2658 35.4582 77.462 35.3367C77.6582 35.2151 77.8801 35.1412 78.11 35.1207C78.3646 35.0744 78.6254 35.0744 78.88 35.1207C79.1512 35.1987 79.4079 35.3202 79.64 35.4807L80.08 35.7807C80.36 35.9707 80.74 36.2707 81.2 36.6207C81.43 36.7907 81.67 37.0007 81.92 37.2107C82.17 37.4207 82.44 37.6407 82.71 37.8807L83.53 38.6307L83.74 38.8207L83.94 39.0207L84.34 39.4307L84.74 39.8407C84.87 39.9807 85 40.1207 85.12 40.2607L85.86 41.0907L86.51 41.8907L86.81 42.2707L87.08 42.6307C87.42 43.1007 87.71 43.4807 87.89 43.7607L88.18 44.2007C88.4911 44.6501 88.6263 45.1981 88.56 45.7407C88.5358 45.9706 88.4581 46.1917 88.333 46.3862C88.208 46.5807 88.0391 46.7432 87.84 46.8607L81.51 50.5507Z" fill="white"/>
<path d="M158.37 71.7105C157.543 72.3286 156.611 72.7926 155.62 73.0805C154.427 73.4585 153.182 73.6475 151.93 73.6405C149.21 73.6405 147.21 72.8472 145.93 71.2605C144.573 69.3633 143.906 67.0591 144.04 64.7305C144.04 61.7639 144.75 59.5372 146.17 58.0505C146.958 57.2787 147.899 56.6813 148.933 56.2971C149.966 55.9129 151.069 55.7505 152.17 55.8205C153.015 55.8197 153.856 55.9341 154.67 56.1605C155.452 56.3609 156.185 56.7219 156.82 57.2205C157.486 57.7861 158.007 58.5027 158.34 59.3105C158.751 60.3502 158.945 61.4631 158.91 62.5805C158.91 63.0883 158.883 63.5956 158.83 64.1005C158.777 64.6405 158.693 65.2039 158.58 65.7905H148.51C148.488 66.9548 148.874 68.0901 149.6 69.0005C150.03 69.3946 150.538 69.6942 151.091 69.8802C151.644 70.0662 152.229 70.1345 152.81 70.0805C154.289 70.0924 155.736 69.6452 156.95 68.8005L158.37 71.7105ZM152.11 59.3305C151.639 59.2861 151.165 59.3535 150.725 59.5273C150.285 59.7011 149.893 59.9763 149.58 60.3305C148.985 61.1299 148.638 62.0859 148.58 63.0805H154.82C154.964 62.1117 154.77 61.1229 154.27 60.2805C154.018 59.9539 153.689 59.6957 153.311 59.5297C152.934 59.3637 152.521 59.2952 152.11 59.3305Z" fill="white"/>
<path d="M165.12 64.5191L160.06 56.2891H165.29L167.51 59.8991L168.45 62.2591L169.45 59.8991L171.74 56.2891H176.51L171.42 64.3891L176.85 73.1591H171.76L169.16 69.1591L168.16 66.6591L167.08 69.1591L164.48 73.1591H159.69L165.12 64.5191Z" fill="white"/>
<path d="M179.02 56.2903H182.22L182.73 58.2903H182.86C183.378 57.4944 184.09 56.8439 184.93 56.4003C185.842 55.9698 186.842 55.7608 187.85 55.7903C188.745 55.7255 189.642 55.8729 190.469 56.2204C191.297 56.5679 192.03 57.1058 192.61 57.7903C193.663 59.1236 194.19 61.2769 194.19 64.2503C194.205 65.5678 194.033 66.8809 193.68 68.1503C193.392 69.2427 192.881 70.264 192.18 71.1503C191.528 71.9529 190.695 72.5902 189.75 73.0103C188.163 73.6406 186.43 73.8104 184.75 73.5003C184.282 73.3924 183.828 73.2279 183.4 73.0103V79.9303H179.02V56.2903ZM186.51 59.5303C185.787 59.4892 185.075 59.7172 184.51 60.1703C183.967 60.6963 183.576 61.3598 183.38 62.0903V69.0903C184.082 69.6648 184.975 69.9539 185.88 69.9003C186.426 69.9354 186.971 69.8318 187.466 69.5993C187.961 69.3667 188.389 69.0127 188.71 68.5703C189.448 67.2273 189.774 65.6973 189.65 64.1703C189.718 62.9778 189.462 61.7892 188.91 60.7303C188.658 60.3301 188.301 60.0068 187.878 59.7952C187.454 59.5837 186.982 59.492 186.51 59.5303Z" fill="white"/>
<path d="M206.51 60.4107C205.905 60.1813 205.266 60.0562 204.62 60.0407C203.901 60.0083 203.194 60.2276 202.62 60.6607C202.101 61.0636 201.729 61.6257 201.56 62.2607V73.1607H197.18V56.2907H200.59L201.1 58.5207H201.23C201.562 57.7515 202.098 57.0876 202.78 56.6007C203.456 56.1461 204.256 55.912 205.07 55.9307C205.752 55.9465 206.427 56.0714 207.07 56.3007L206.51 60.4107Z" fill="white"/>
<path d="M222.57 71.7105C221.743 72.3286 220.811 72.7926 219.82 73.0805C218.627 73.4585 217.382 73.6475 216.13 73.6405C213.41 73.6405 211.41 72.8472 210.13 71.2605C208.773 69.3633 208.106 67.0591 208.24 64.7305C208.24 61.7639 208.95 59.5372 210.37 58.0505C211.158 57.2787 212.099 56.6813 213.133 56.2971C214.166 55.9129 215.269 55.7505 216.37 55.8205C217.215 55.8197 218.056 55.9341 218.87 56.1605C219.652 56.3609 220.385 56.7219 221.02 57.2205C221.682 57.8036 222.193 58.5377 222.51 59.3605C222.921 60.4002 223.115 61.5131 223.08 62.6305C223.08 63.1383 223.053 63.6456 223 64.1505C222.947 64.6905 222.863 65.2539 222.75 65.8405H212.68C212.658 67.0048 213.044 68.1401 213.77 69.0505C214.2 69.4446 214.708 69.7442 215.261 69.9302C215.813 70.1162 216.399 70.1845 216.98 70.1305C218.459 70.1424 219.906 69.6952 221.12 68.8505L222.57 71.7105ZM216.31 59.3305C215.839 59.2861 215.365 59.3535 214.925 59.5273C214.485 59.7011 214.093 59.9763 213.78 60.3305C213.185 61.1299 212.837 62.0859 212.78 63.0805H219.02C219.164 62.1117 218.97 61.1229 218.47 60.2805C218.218 59.9539 217.889 59.6957 217.511 59.5297C217.134 59.3637 216.721 59.2952 216.31 59.3305Z" fill="white"/>
<path d="M233.19 68.4993C233.194 68.2857 233.144 68.0746 233.045 67.8856C232.945 67.6967 232.799 67.5363 232.62 67.4193C232.177 67.1181 231.701 66.8698 231.2 66.6793C230.64 66.4526 230.02 66.2227 229.34 65.9893C228.677 65.751 228.053 65.4139 227.49 64.9893C226.915 64.5599 226.432 64.0192 226.07 63.3993C225.659 62.6393 225.462 61.7823 225.5 60.9193C225.453 60.2147 225.561 59.5083 225.817 58.85C226.073 58.1918 226.47 57.5976 226.98 57.1093C228.195 56.1565 229.719 55.6864 231.26 55.7893C232.429 55.7747 233.595 55.9091 234.73 56.1893C235.576 56.3868 236.393 56.6927 237.16 57.0993L236.16 60.2693C235.64 60.0693 234.973 59.856 234.16 59.6293C233.383 59.4052 232.579 59.2908 231.77 59.2893C230.437 59.2893 229.77 59.796 229.77 60.8093C229.766 61.012 229.816 61.212 229.917 61.3881C230.017 61.5643 230.163 61.7098 230.34 61.8093C230.788 62.0883 231.264 62.3196 231.76 62.4993L233.62 63.1893C234.281 63.4403 234.906 63.7764 235.48 64.1893C236.056 64.598 236.539 65.1226 236.9 65.7293C237.309 66.4719 237.506 67.3124 237.47 68.1593C237.504 68.9051 237.374 69.6493 237.091 70.3401C236.808 71.0309 236.377 71.6517 235.83 72.1593C234.431 73.2392 232.682 73.7629 230.92 73.6293C229.784 73.6358 228.653 73.4809 227.56 73.1693C226.666 72.932 225.809 72.5755 225.01 72.1093L226.22 68.8393C226.878 69.191 227.567 69.479 228.28 69.6993C229.129 69.9793 230.016 70.1211 230.91 70.1193C231.458 70.1464 232.002 70.0181 232.48 69.7493C232.703 69.6281 232.888 69.4467 233.014 69.2258C233.139 69.0049 233.2 68.7532 233.19 68.4993Z" fill="white"/>
<path d="M247.43 68.4998C247.434 68.2862 247.384 68.075 247.285 67.8861C247.185 67.6972 247.039 67.5367 246.86 67.4198C246.417 67.1186 245.941 66.8703 245.44 66.6798C244.88 66.4531 244.26 66.2231 243.58 65.9898C242.916 65.7515 242.293 65.4144 241.73 64.9898C241.155 64.5604 240.672 64.0197 240.31 63.3998C239.899 62.6398 239.702 61.7828 239.74 60.9198C239.693 60.2152 239.801 59.5088 240.057 58.8505C240.313 58.1922 240.71 57.598 241.22 57.1098C242.442 56.1653 243.97 55.7059 245.51 55.8198C246.679 55.8052 247.845 55.9396 248.98 56.2198C249.826 56.4173 250.643 56.7231 251.41 57.1298L250.41 60.2998C249.89 60.0998 249.223 59.8865 248.41 59.6598C247.633 59.4357 246.829 59.3212 246.02 59.3198C244.687 59.3198 244.02 59.8265 244.02 60.8398C244.016 61.0425 244.066 61.2425 244.167 61.4186C244.267 61.5947 244.413 61.7403 244.59 61.8398C245.038 62.1188 245.514 62.3501 246.01 62.5298L247.87 63.2198C248.531 63.4707 249.156 63.8069 249.73 64.2198C250.306 64.6285 250.789 65.153 251.15 65.7598C251.559 66.5023 251.756 67.3429 251.72 68.1898C251.754 68.9356 251.624 69.6798 251.341 70.3706C251.058 71.0614 250.627 71.6822 250.08 72.1898C248.681 73.2697 246.932 73.7934 245.17 73.6598C244.068 73.6635 242.971 73.5154 241.91 73.2198C241.016 72.9825 240.159 72.626 239.36 72.1598L240.57 68.8898C241.228 69.2415 241.917 69.5295 242.63 69.7498C243.478 70.0298 244.366 70.1716 245.26 70.1698C245.808 70.1969 246.352 70.0686 246.83 69.7998C247.041 69.6603 247.209 69.4648 247.315 69.2351C247.421 69.0055 247.461 68.7508 247.43 68.4998Z" fill="white"/>
<path d="M104.109 88.043V80.4668H101.279V79.4531H108.088V80.4668H105.246V88.043H104.109ZM107.396 84.9316C107.396 83.7793 107.717 82.9258 108.357 82.3711C108.892 81.9102 109.545 81.6797 110.314 81.6797C111.17 81.6797 111.869 81.9609 112.412 82.5234C112.955 83.082 113.226 83.8555 113.226 84.8438C113.226 85.6445 113.105 86.2754 112.863 86.7363C112.625 87.1934 112.275 87.5488 111.814 87.8027C111.357 88.0566 110.857 88.1836 110.314 88.1836C109.443 88.1836 108.738 87.9043 108.199 87.3457C107.664 86.7871 107.396 85.9824 107.396 84.9316ZM108.48 84.9316C108.48 85.7285 108.654 86.3262 109.002 86.7246C109.349 87.1191 109.787 87.3164 110.314 87.3164C110.838 87.3164 111.273 87.1172 111.621 86.7188C111.969 86.3203 112.142 85.7129 112.142 84.8965C112.142 84.127 111.967 83.5449 111.615 83.1504C111.267 82.752 110.834 82.5527 110.314 82.5527C109.787 82.5527 109.349 82.75 109.002 83.1445C108.654 83.5391 108.48 84.1348 108.48 84.9316ZM118.547 88.043V87.1289C118.062 87.832 117.404 88.1836 116.572 88.1836C116.205 88.1836 115.861 88.1133 115.541 87.9727C115.224 87.832 114.988 87.6562 114.832 87.4453C114.679 87.2305 114.572 86.9688 114.51 86.6602C114.467 86.4531 114.445 86.125 114.445 85.6758V81.8203H115.5V85.2715C115.5 85.8223 115.521 86.1934 115.564 86.3848C115.631 86.6621 115.771 86.8809 115.986 87.041C116.201 87.1973 116.467 87.2754 116.783 87.2754C117.099 87.2754 117.396 87.1953 117.674 87.0352C117.951 86.8711 118.146 86.6504 118.26 86.373C118.377 86.0918 118.435 85.6855 118.435 85.1543V81.8203H119.49V88.043H118.547ZM121.136 88.043V81.8203H122.086V82.7637C122.328 82.3223 122.551 82.0312 122.754 81.8906C122.961 81.75 123.187 81.6797 123.433 81.6797C123.789 81.6797 124.15 81.793 124.517 82.0195L124.154 82.998C123.896 82.8457 123.638 82.7695 123.381 82.7695C123.15 82.7695 122.943 82.8398 122.76 82.9805C122.576 83.1172 122.445 83.3086 122.367 83.5547C122.25 83.9297 122.191 84.3398 122.191 84.7852V88.043H121.136ZM125.15 80.666V79.4531H126.205V80.666H125.15ZM125.15 88.043V81.8203H126.205V88.043H125.15ZM127.394 86.1855L128.437 86.0215C128.496 86.4395 128.658 86.7598 128.924 86.9824C129.193 87.2051 129.568 87.3164 130.049 87.3164C130.533 87.3164 130.892 87.2188 131.127 87.0234C131.361 86.8242 131.478 86.5918 131.478 86.3262C131.478 86.0879 131.375 85.9004 131.168 85.7637C131.023 85.6699 130.664 85.5508 130.09 85.4062C129.316 85.2109 128.779 85.043 128.478 84.9023C128.181 84.7578 127.955 84.5605 127.799 84.3105C127.646 84.0566 127.57 83.7773 127.57 83.4727C127.57 83.1953 127.633 82.9395 127.758 82.7051C127.886 82.4668 128.06 82.2695 128.279 82.1133C128.443 81.9922 128.666 81.8906 128.947 81.8086C129.232 81.7227 129.537 81.6797 129.861 81.6797C130.349 81.6797 130.777 81.75 131.144 81.8906C131.515 82.0312 131.789 82.2227 131.965 82.4648C132.14 82.7031 132.261 83.0234 132.328 83.4258L131.297 83.5664C131.25 83.2461 131.113 82.9961 130.886 82.8164C130.664 82.6367 130.347 82.5469 129.937 82.5469C129.453 82.5469 129.107 82.627 128.9 82.7871C128.693 82.9473 128.59 83.1348 128.59 83.3496C128.59 83.4863 128.633 83.6094 128.719 83.7188C128.804 83.832 128.939 83.9258 129.123 84C129.228 84.0391 129.539 84.1289 130.054 84.2695C130.801 84.4688 131.32 84.6328 131.613 84.7617C131.91 84.8867 132.142 85.0703 132.31 85.3125C132.478 85.5547 132.562 85.8555 132.562 86.2148C132.562 86.5664 132.459 86.8984 132.252 87.2109C132.049 87.5195 131.754 87.7598 131.367 87.9316C130.98 88.0996 130.543 88.1836 130.054 88.1836C129.246 88.1836 128.629 88.0156 128.203 87.6797C127.781 87.3438 127.511 86.8457 127.394 86.1855ZM133.816 88.043V81.8203H134.76V82.6934C134.955 82.3887 135.215 82.1445 135.539 81.9609C135.863 81.7734 136.232 81.6797 136.646 81.6797C137.107 81.6797 137.484 81.7754 137.777 81.9668C138.074 82.1582 138.283 82.4258 138.404 82.7695C138.896 82.043 139.537 81.6797 140.326 81.6797C140.943 81.6797 141.418 81.8516 141.75 82.1953C142.082 82.5352 142.248 83.0605 142.248 83.7715V88.043H141.199V84.123C141.199 83.7012 141.164 83.3984 141.094 83.2148C141.027 83.0273 140.904 82.877 140.724 82.7637C140.545 82.6504 140.334 82.5938 140.092 82.5938C139.654 82.5938 139.291 82.7402 139.002 83.0332C138.713 83.3223 138.568 83.7871 138.568 84.4277V88.043H137.513V84C137.513 83.5312 137.427 83.1797 137.256 82.9453C137.084 82.7109 136.802 82.5938 136.412 82.5938C136.115 82.5938 135.84 82.6719 135.586 82.8281C135.336 82.9844 135.154 83.2129 135.041 83.5137C134.927 83.8145 134.871 84.248 134.871 84.8145V88.043H133.816ZM147.48 88.043V79.4531H148.617V88.043H147.48ZM152.812 88.043V80.4668H149.982V79.4531H156.791V80.4668H153.949V88.043H152.812ZM160.523 86.1855L161.566 86.0215C161.625 86.4395 161.787 86.7598 162.052 86.9824C162.322 87.2051 162.697 87.3164 163.177 87.3164C163.662 87.3164 164.021 87.2188 164.256 87.0234C164.49 86.8242 164.607 86.5918 164.607 86.3262C164.607 86.0879 164.504 85.9004 164.297 85.7637C164.152 85.6699 163.793 85.5508 163.219 85.4062C162.445 85.2109 161.908 85.043 161.607 84.9023C161.31 84.7578 161.084 84.5605 160.927 84.3105C160.775 84.0566 160.699 83.7773 160.699 83.4727C160.699 83.1953 160.761 82.9395 160.886 82.7051C161.015 82.4668 161.189 82.2695 161.408 82.1133C161.572 81.9922 161.795 81.8906 162.076 81.8086C162.361 81.7227 162.666 81.6797 162.99 81.6797C163.478 81.6797 163.906 81.75 164.273 81.8906C164.644 82.0312 164.918 82.2227 165.094 82.4648C165.269 82.7031 165.39 83.0234 165.457 83.4258L164.426 83.5664C164.379 83.2461 164.242 82.9961 164.015 82.8164C163.793 82.6367 163.476 82.5469 163.066 82.5469C162.582 82.5469 162.236 82.627 162.029 82.7871C161.822 82.9473 161.719 83.1348 161.719 83.3496C161.719 83.4863 161.761 83.6094 161.847 83.7188C161.933 83.832 162.068 83.9258 162.252 84C162.357 84.0391 162.668 84.1289 163.183 84.2695C163.929 84.4688 164.449 84.6328 164.742 84.7617C165.039 84.8867 165.271 85.0703 165.439 85.3125C165.607 85.5547 165.691 85.8555 165.691 86.2148C165.691 86.5664 165.588 86.8984 165.381 87.2109C165.177 87.5195 164.883 87.7598 164.496 87.9316C164.109 88.0996 163.672 88.1836 163.183 88.1836C162.375 88.1836 161.758 88.0156 161.332 87.6797C160.91 87.3438 160.64 86.8457 160.523 86.1855ZM166.552 84.9316C166.552 83.7793 166.873 82.9258 167.513 82.3711C168.049 81.9102 168.701 81.6797 169.47 81.6797C170.326 81.6797 171.025 81.9609 171.568 82.5234C172.111 83.082 172.383 83.8555 172.383 84.8438C172.383 85.6445 172.261 86.2754 172.019 86.7363C171.781 87.1934 171.431 87.5488 170.97 87.8027C170.513 88.0566 170.013 88.1836 169.47 88.1836C168.599 88.1836 167.894 87.9043 167.355 87.3457C166.82 86.7871 166.552 85.9824 166.552 84.9316ZM167.636 84.9316C167.636 85.7285 167.81 86.3262 168.158 86.7246C168.506 87.1191 168.943 87.3164 169.47 87.3164C169.994 87.3164 170.429 87.1172 170.777 86.7188C171.125 86.3203 171.299 85.7129 171.299 84.8965C171.299 84.127 171.123 83.5449 170.771 83.1504C170.424 82.752 169.99 82.5527 169.47 82.5527C168.943 82.5527 168.506 82.75 168.158 83.1445C167.81 83.5391 167.636 84.1348 167.636 84.9316ZM173.601 88.043V79.4531H174.656V88.043H173.601ZM180.375 88.043V87.1289C179.89 87.832 179.232 88.1836 178.4 88.1836C178.033 88.1836 177.689 88.1133 177.369 87.9727C177.052 87.832 176.816 87.6562 176.66 87.4453C176.508 87.2305 176.4 86.9688 176.338 86.6602C176.295 86.4531 176.273 86.125 176.273 85.6758V81.8203H177.328V85.2715C177.328 85.8223 177.349 86.1934 177.392 86.3848C177.459 86.6621 177.599 86.8809 177.814 87.041C178.029 87.1973 178.295 87.2754 178.611 87.2754C178.927 87.2754 179.224 87.1953 179.502 87.0352C179.779 86.8711 179.974 86.6504 180.088 86.373C180.205 86.0918 180.263 85.6855 180.263 85.1543V81.8203H181.318V88.043H180.375ZM185.279 87.0996L185.431 88.0312C185.135 88.0938 184.869 88.125 184.635 88.125C184.252 88.125 183.955 88.0645 183.744 87.9434C183.533 87.8223 183.385 87.6641 183.299 87.4688C183.213 87.2695 183.17 86.8535 183.17 86.2207V82.6406H182.396V81.8203H183.17V80.2793L184.219 79.6465V81.8203H185.279V82.6406H184.219V86.2793C184.219 86.5801 184.236 86.7734 184.271 86.8594C184.31 86.9453 184.371 87.0137 184.453 87.0645C184.539 87.1152 184.66 87.1406 184.816 87.1406C184.933 87.1406 185.088 87.127 185.279 87.0996ZM186.322 80.666V79.4531H187.377V80.666H186.322ZM186.322 88.043V81.8203H187.377V88.043H186.322ZM188.595 84.9316C188.595 83.7793 188.916 82.9258 189.556 82.3711C190.092 81.9102 190.744 81.6797 191.513 81.6797C192.369 81.6797 193.068 81.9609 193.611 82.5234C194.154 83.082 194.426 83.8555 194.426 84.8438C194.426 85.6445 194.304 86.2754 194.062 86.7363C193.824 87.1934 193.474 87.5488 193.013 87.8027C192.556 88.0566 192.056 88.1836 191.513 88.1836C190.642 88.1836 189.937 87.9043 189.398 87.3457C188.863 86.7871 188.595 85.9824 188.595 84.9316ZM189.679 84.9316C189.679 85.7285 189.853 86.3262 190.201 86.7246C190.549 87.1191 190.986 87.3164 191.513 87.3164C192.037 87.3164 192.472 87.1172 192.82 86.7188C193.168 86.3203 193.342 85.7129 193.342 84.8965C193.342 84.127 193.166 83.5449 192.814 83.1504C192.467 82.752 192.033 82.5527 191.513 82.5527C190.986 82.5527 190.549 82.75 190.201 83.1445C189.853 83.5391 189.679 84.1348 189.679 84.9316ZM195.668 88.043V81.8203H196.617V82.7051C197.074 82.0215 197.734 81.6797 198.597 81.6797C198.972 81.6797 199.316 81.748 199.629 81.8848C199.945 82.0176 200.181 82.1934 200.338 82.4121C200.494 82.6309 200.603 82.8906 200.666 83.1914C200.705 83.3867 200.724 83.7285 200.724 84.2168V88.043H199.67V84.2578C199.67 83.8281 199.629 83.5078 199.547 83.2969C199.465 83.082 199.318 82.9121 199.107 82.7871C198.9 82.6582 198.656 82.5938 198.375 82.5938C197.926 82.5938 197.537 82.7363 197.209 83.0215C196.885 83.3066 196.722 83.8477 196.722 84.6445V88.043H195.668Z" fill="white"/>
</g>
<defs>
<filter id="filter0_d_30417_26895" x="64.5485" y="305.328" width="11.8028" height="54.4453" filterUnits="userSpaceOnUse" color-interpolation-filters="sRGB">
<feFlood flood-opacity="0" result="BackgroundImageFix"/>
<feColorMatrix in="SourceAlpha" type="matrix" values="0 0 0 0 0 0 0 0 0 0 0 0 0 0 0 0 0 0 127 0" result="hardAlpha"/>
<feOffset dx="-1.36116"/>
<feComposite in2="hardAlpha" operator="out"/>
<feColorMatrix type="matrix" values="0 0 0 0 0.760563 0 0 0 0 0.166345 0 0 0 0 0.123901 0 0 0 1 0"/>
<feBlend mode="normal" in2="BackgroundImageFix" result="effect1_dropShadow_30417_26895"/>
<feBlend mode="normal" in="SourceGraphic" in2="effect1_dropShadow_30417_26895" result="shape"/>
</filter>
<filter id="filter1_d_30417_26895" x="56.0085" y="321.609" width="45.9714" height="37.7539" filterUnits="userSpaceOnUse" color-interpolation-filters="sRGB">
<feFlood flood-opacity="0" result="BackgroundImageFix"/>
<feColorMatrix in="SourceAlpha" type="matrix" values="0 0 0 0 0 0 0 0 0 0 0 0 0 0 0 0 0 0 127 0" result="hardAlpha"/>
<feOffset dx="-1.36116"/>
<feComposite in2="hardAlpha" operator="out"/>
<feColorMatrix type="matrix" values="0 0 0 0 0.760563 0 0 0 0 0.166345 0 0 0 0 0.123901 0 0 0 1 0"/>
<feBlend mode="normal" in2="BackgroundImageFix" result="effect1_dropShadow_30417_26895"/>
<feBlend mode="normal" in="SourceGraphic" in2="effect1_dropShadow_30417_26895" result="shape"/>
</filter>
<filter id="filter2_d_30417_26895" x="42.7348" y="275.574" width="46.5097" height="64.0684" filterUnits="userSpaceOnUse" color-interpolation-filters="sRGB">
<feFlood flood-opacity="0" result="BackgroundImageFix"/>
<feColorMatrix in="SourceAlpha" type="matrix" values="0 0 0 0 0 0 0 0 0 0 0 0 0 0 0 0 0 0 127 0" result="hardAlpha"/>
<feOffset dx="-1.36116"/>
<feComposite in2="hardAlpha" operator="out"/>
<feColorMatrix type="matrix" values="0 0 0 0 0.760563 0 0 0 0 0.166345 0 0 0 0 0.123901 0 0 0 1 0"/>
<feBlend mode="normal" in2="BackgroundImageFix" result="effect1_dropShadow_30417_26895"/>
<feBlend mode="normal" in="SourceGraphic" in2="effect1_dropShadow_30417_26895" result="shape"/>
</filter>
<filter id="filter3_d_30417_26895" x="101.38" y="321.609" width="45.9714" height="37.7539" filterUnits="userSpaceOnUse" color-interpolation-filters="sRGB">
<feFlood flood-opacity="0" result="BackgroundImageFix"/>
<feColorMatrix in="SourceAlpha" type="matrix" values="0 0 0 0 0 0 0 0 0 0 0 0 0 0 0 0 0 0 127 0" result="hardAlpha"/>
<feOffset dx="-1.36116"/>
<feComposite in2="hardAlpha" operator="out"/>
<feColorMatrix type="matrix" values="0 0 0 0 0.760563 0 0 0 0 0.166345 0 0 0 0 0.123901 0 0 0 1 0"/>
<feBlend mode="normal" in2="BackgroundImageFix" result="effect1_dropShadow_30417_26895"/>
<feBlend mode="normal" in="SourceGraphic" in2="effect1_dropShadow_30417_26895" result="shape"/>
</filter>
<filter id="filter4_d_30417_26895" x="109.92" y="305.328" width="11.8028" height="54.4453" filterUnits="userSpaceOnUse" color-interpolation-filters="sRGB">
<feFlood flood-opacity="0" result="BackgroundImageFix"/>
<feColorMatrix in="SourceAlpha" type="matrix" values="0 0 0 0 0 0 0 0 0 0 0 0 0 0 0 0 0 0 127 0" result="hardAlpha"/>
<feOffset dx="-1.36116"/>
<feComposite in2="hardAlpha" operator="out"/>
<feColorMatrix type="matrix" values="0 0 0 0 0.760563 0 0 0 0 0.166345 0 0 0 0 0.123901 0 0 0 1 0"/>
<feBlend mode="normal" in2="BackgroundImageFix" result="effect1_dropShadow_30417_26895"/>
<feBlend mode="normal" in="SourceGraphic" in2="effect1_dropShadow_30417_26895" result="shape"/>
</filter>
<filter id="filter5_d_30417_26895" x="88.1067" y="275.574" width="46.5097" height="64.0684" filterUnits="userSpaceOnUse" color-interpolation-filters="sRGB">
<feFlood flood-opacity="0" result="BackgroundImageFix"/>
<feColorMatrix in="SourceAlpha" type="matrix" values="0 0 0 0 0 0 0 0 0 0 0 0 0 0 0 0 0 0 127 0" result="hardAlpha"/>
<feOffset dx="-1.36116"/>
<feComposite in2="hardAlpha" operator="out"/>
<feColorMatrix type="matrix" values="0 0 0 0 0.760563 0 0 0 0 0.166345 0 0 0 0 0.123901 0 0 0 1 0"/>
<feBlend mode="normal" in2="BackgroundImageFix" result="effect1_dropShadow_30417_26895"/>
<feBlend mode="normal" in="SourceGraphic" in2="effect1_dropShadow_30417_26895" result="shape"/>
</filter>
<filter id="filter6_d_30417_26895" x="118.771" y="313.043" width="34.0151" height="46.2793" filterUnits="userSpaceOnUse" color-interpolation-filters="sRGB">
<feFlood flood-opacity="0" result="BackgroundImageFix"/>
<feColorMatrix in="SourceAlpha" type="matrix" values="0 0 0 0 0 0 0 0 0 0 0 0 0 0 0 0 0 0 127 0" result="hardAlpha"/>
<feOffset dx="-1.36116"/>
<feComposite in2="hardAlpha" operator="out"/>
<feColorMatrix type="matrix" values="0 0 0 0 0.760563 0 0 0 0 0.166345 0 0 0 0 0.123901 0 0 0 1 0"/>
<feBlend mode="normal" in2="BackgroundImageFix" result="effect1_dropShadow_30417_26895"/>
<feBlend mode="normal" in="SourceGraphic" in2="effect1_dropShadow_30417_26895" result="shape"/>
</filter>
<filter id="filter7_d_30417_26895" x="282.788" y="305.328" width="11.8028" height="54.4453" filterUnits="userSpaceOnUse" color-interpolation-filters="sRGB">
<feFlood flood-opacity="0" result="BackgroundImageFix"/>
<feColorMatrix in="SourceAlpha" type="matrix" values="0 0 0 0 0 0 0 0 0 0 0 0 0 0 0 0 0 0 127 0" result="hardAlpha"/>
<feOffset dx="-1.36116"/>
<feComposite in2="hardAlpha" operator="out"/>
<feColorMatrix type="matrix" values="0 0 0 0 0.851367 0 0 0 0 0.238701 0 0 0 0 0.194939 0 0 0 1 0"/>
<feBlend mode="normal" in2="BackgroundImageFix" result="effect1_dropShadow_30417_26895"/>
<feBlend mode="normal" in="SourceGraphic" in2="effect1_dropShadow_30417_26895" result="shape"/>
</filter>
<filter id="filter8_d_30417_26895" x="257.159" y="321.609" width="45.9714" height="37.7539" filterUnits="userSpaceOnUse" color-interpolation-filters="sRGB">
<feFlood flood-opacity="0" result="BackgroundImageFix"/>
<feColorMatrix in="SourceAlpha" type="matrix" values="0 0 0 0 0 0 0 0 0 0 0 0 0 0 0 0 0 0 127 0" result="hardAlpha"/>
<feOffset dx="-1.36116"/>
<feComposite in2="hardAlpha" operator="out"/>
<feColorMatrix type="matrix" values="0 0 0 0 0.851367 0 0 0 0 0.238701 0 0 0 0 0.194939 0 0 0 1 0"/>
<feBlend mode="normal" in2="BackgroundImageFix" result="effect1_dropShadow_30417_26895"/>
<feBlend mode="normal" in="SourceGraphic" in2="effect1_dropShadow_30417_26895" result="shape"/>
</filter>
<filter id="filter9_d_30417_26895" x="269.894" y="275.574" width="46.5097" height="64.0684" filterUnits="userSpaceOnUse" color-interpolation-filters="sRGB">
<feFlood flood-opacity="0" result="BackgroundImageFix"/>
<feColorMatrix in="SourceAlpha" type="matrix" values="0 0 0 0 0 0 0 0 0 0 0 0 0 0 0 0 0 0 127 0" result="hardAlpha"/>
<feOffset dx="-1.36116"/>
<feComposite in2="hardAlpha" operator="out"/>
<feColorMatrix type="matrix" values="0 0 0 0 0.851367 0 0 0 0 0.238701 0 0 0 0 0.194939 0 0 0 1 0"/>
<feBlend mode="normal" in2="BackgroundImageFix" result="effect1_dropShadow_30417_26895"/>
<feBlend mode="normal" in="SourceGraphic" in2="effect1_dropShadow_30417_26895" result="shape"/>
</filter>
<filter id="filter10_d_30417_26895" x="211.787" y="321.609" width="45.9714" height="37.7539" filterUnits="userSpaceOnUse" color-interpolation-filters="sRGB">
<feFlood flood-opacity="0" result="BackgroundImageFix"/>
<feColorMatrix in="SourceAlpha" type="matrix" values="0 0 0 0 0 0 0 0 0 0 0 0 0 0 0 0 0 0 127 0" result="hardAlpha"/>
<feOffset dx="-1.36116"/>
<feComposite in2="hardAlpha" operator="out"/>
<feColorMatrix type="matrix" values="0 0 0 0 0.851367 0 0 0 0 0.238701 0 0 0 0 0.194939 0 0 0 1 0"/>
<feBlend mode="normal" in2="BackgroundImageFix" result="effect1_dropShadow_30417_26895"/>
<feBlend mode="normal" in="SourceGraphic" in2="effect1_dropShadow_30417_26895" result="shape"/>
</filter>
<filter id="filter11_d_30417_26895" x="237.416" y="305.328" width="11.8028" height="54.4453" filterUnits="userSpaceOnUse" color-interpolation-filters="sRGB">
<feFlood flood-opacity="0" result="BackgroundImageFix"/>
<feColorMatrix in="SourceAlpha" type="matrix" values="0 0 0 0 0 0 0 0 0 0 0 0 0 0 0 0 0 0 127 0" result="hardAlpha"/>
<feOffset dx="-1.36116"/>
<feComposite in2="hardAlpha" operator="out"/>
<feColorMatrix type="matrix" values="0 0 0 0 0.851367 0 0 0 0 0.238701 0 0 0 0 0.194939 0 0 0 1 0"/>
<feBlend mode="normal" in2="BackgroundImageFix" result="effect1_dropShadow_30417_26895"/>
<feBlend mode="normal" in="SourceGraphic" in2="effect1_dropShadow_30417_26895" result="shape"/>
</filter>
<filter id="filter12_d_30417_26895" x="224.522" y="275.574" width="46.5097" height="64.0684" filterUnits="userSpaceOnUse" color-interpolation-filters="sRGB">
<feFlood flood-opacity="0" result="BackgroundImageFix"/>
<feColorMatrix in="SourceAlpha" type="matrix" values="0 0 0 0 0 0 0 0 0 0 0 0 0 0 0 0 0 0 127 0" result="hardAlpha"/>
<feOffset dx="-1.36116"/>
<feComposite in2="hardAlpha" operator="out"/>
<feColorMatrix type="matrix" values="0 0 0 0 0.851367 0 0 0 0 0.238701 0 0 0 0 0.194939 0 0 0 1 0"/>
<feBlend mode="normal" in2="BackgroundImageFix" result="effect1_dropShadow_30417_26895"/>
<feBlend mode="normal" in="SourceGraphic" in2="effect1_dropShadow_30417_26895" result="shape"/>
</filter>
<filter id="filter13_d_30417_26895" x="206.353" y="313.043" width="36.1473" height="46.2793" filterUnits="userSpaceOnUse" color-interpolation-filters="sRGB">
<feFlood flood-opacity="0" result="BackgroundImageFix"/>
<feColorMatrix in="SourceAlpha" type="matrix" values="0 0 0 0 0 0 0 0 0 0 0 0 0 0 0 0 0 0 127 0" result="hardAlpha"/>
<feOffset dx="-1.36116"/>
<feComposite in2="hardAlpha" operator="out"/>
<feColorMatrix type="matrix" values="0 0 0 0 0.851367 0 0 0 0 0.238701 0 0 0 0 0.194939 0 0 0 1 0"/>
<feBlend mode="normal" in2="BackgroundImageFix" result="effect1_dropShadow_30417_26895"/>
<feBlend mode="normal" in="SourceGraphic" in2="effect1_dropShadow_30417_26895" result="shape"/>
</filter>
<filter id="filter14_d_30417_26895" x="118.211" y="256.211" width="57.6246" height="52.3359" filterUnits="userSpaceOnUse" color-interpolation-filters="sRGB">
<feFlood flood-opacity="0" result="BackgroundImageFix"/>
<feColorMatrix in="SourceAlpha" type="matrix" values="0 0 0 0 0 0 0 0 0 0 0 0 0 0 0 0 0 0 127 0" result="hardAlpha"/>
<feOffset dy="2"/>
<feGaussianBlur stdDeviation="5.25"/>
<feComposite in2="hardAlpha" operator="out"/>
<feColorMatrix type="matrix" values="0 0 0 0 0 0 0 0 0 0 0 0 0 0 0 0 0 0 0.15 0"/>
<feBlend mode="normal" in2="BackgroundImageFix" result="effect1_dropShadow_30417_26895"/>
<feBlend mode="normal" in="SourceGraphic" in2="effect1_dropShadow_30417_26895" result="shape"/>
</filter>
<filter id="filter15_d_30417_26895" x="286.211" y="202.211" width="57.6246" height="52.3359" filterUnits="userSpaceOnUse" color-interpolation-filters="sRGB">
<feFlood flood-opacity="0" result="BackgroundImageFix"/>
<feColorMatrix in="SourceAlpha" type="matrix" values="0 0 0 0 0 0 0 0 0 0 0 0 0 0 0 0 0 0 127 0" result="hardAlpha"/>
<feOffset dy="2"/>
<feGaussianBlur stdDeviation="5.25"/>
<feComposite in2="hardAlpha" operator="out"/>
<feColorMatrix type="matrix" values="0 0 0 0 0 0 0 0 0 0 0 0 0 0 0 0 0 0 0.15 0"/>
<feBlend mode="normal" in2="BackgroundImageFix" result="effect1_dropShadow_30417_26895"/>
<feBlend mode="normal" in="SourceGraphic" in2="effect1_dropShadow_30417_26895" result="shape"/>
</filter>
<filter id="filter16_d_30417_26895" x="32.2109" y="191.211" width="57.6246" height="52.3359" filterUnits="userSpaceOnUse" color-interpolation-filters="sRGB">
<feFlood flood-opacity="0" result="BackgroundImageFix"/>
<feColorMatrix in="SourceAlpha" type="matrix" values="0 0 0 0 0 0 0 0 0 0 0 0 0 0 0 0 0 0 127 0" result="hardAlpha"/>
<feOffset dy="2"/>
<feGaussianBlur stdDeviation="5.25"/>
<feComposite in2="hardAlpha" operator="out"/>
<feColorMatrix type="matrix" values="0 0 0 0 0 0 0 0 0 0 0 0 0 0 0 0 0 0 0.15 0"/>
<feBlend mode="normal" in2="BackgroundImageFix" result="effect1_dropShadow_30417_26895"/>
<feBlend mode="normal" in="SourceGraphic" in2="effect1_dropShadow_30417_26895" result="shape"/>
</filter>
<filter id="filter17_d_30417_26895" x="268.211" y="222.211" width="57.6246" height="52.3359" filterUnits="userSpaceOnUse" color-interpolation-filters="sRGB">
<feFlood flood-opacity="0" result="BackgroundImageFix"/>
<feColorMatrix in="SourceAlpha" type="matrix" values="0 0 0 0 0 0 0 0 0 0 0 0 0 0 0 0 0 0 127 0" result="hardAlpha"/>
<feOffset dy="2"/>
<feGaussianBlur stdDeviation="5.25"/>
<feComposite in2="hardAlpha" operator="out"/>
<feColorMatrix type="matrix" values="0 0 0 0 0 0 0 0 0 0 0 0 0 0 0 0 0 0 0.15 0"/>
<feBlend mode="normal" in2="BackgroundImageFix" result="effect1_dropShadow_30417_26895"/>
<feBlend mode="normal" in="SourceGraphic" in2="effect1_dropShadow_30417_26895" result="shape"/>
</filter>
<filter id="filter18_d_30417_26895" x="195.211" y="146.211" width="57.6246" height="52.3359" filterUnits="userSpaceOnUse" color-interpolation-filters="sRGB">
<feFlood flood-opacity="0" result="BackgroundImageFix"/>
<feColorMatrix in="SourceAlpha" type="matrix" values="0 0 0 0 0 0 0 0 0 0 0 0 0 0 0 0 0 0 127 0" result="hardAlpha"/>
<feOffset dy="2"/>
<feGaussianBlur stdDeviation="5.25"/>
<feComposite in2="hardAlpha" operator="out"/>
<feColorMatrix type="matrix" values="0 0 0 0 0 0 0 0 0 0 0 0 0 0 0 0 0 0 0.15 0"/>
<feBlend mode="normal" in2="BackgroundImageFix" result="effect1_dropShadow_30417_26895"/>
<feBlend mode="normal" in="SourceGraphic" in2="effect1_dropShadow_30417_26895" result="shape"/>
</filter>
<linearGradient id="paint0_linear_30417_26895" x1="2" y1="3" x2="392" y2="388" gradientUnits="userSpaceOnUse">
<stop offset="0.415133" stop-color="#3CA5A9"/>
<stop offset="1" stop-color="#3CA5A9"/>
</linearGradient>
<clipPath id="clip0_30417_26895">
<rect width="221.81" height="63.42" fill="white" transform="translate(30 30)"/>
</clipPath>
</defs>
</svg>
