<svg width="360" height="360" viewBox="0 0 360 360" fill="none" xmlns="http://www.w3.org/2000/svg">
<g clip-path="url(#clip0_2232_75294)">
<rect width="360" height="360" rx="8" fill="#293874"/>
<path d="M241.14 334.373L203.87 401H-52V133.544L-17.5295 103.155C5.71069 82.6668 40.7286 83.2421 63.2834 104.483L229.91 261.402C249.947 280.271 254.576 310.353 241.14 334.373Z" fill="#3C4E95"/>
<path d="M353.71 242.849L402 269.854L402 482L180.188 482L161.171 460.435C140.675 437.193 141.25 402.166 162.499 379.61L280.751 254.076C299.619 234.047 329.693 229.419 353.71 242.849Z" fill="#1C2858"/>
<path d="M36.7106 57.3219C36.7106 61.7776 38.0319 66.1332 40.5074 69.838C42.9828 73.5428 46.5013 76.4304 50.6179 78.1355C54.7344 79.8406 59.2642 80.2868 63.6343 79.4175C68.0044 78.5483 72.0186 76.4026 75.1692 73.2519C78.3199 70.1013 80.4656 66.0871 81.3348 61.717C82.2041 57.3469 81.758 52.8171 80.0528 48.7006C78.3477 44.584 75.4601 41.0655 71.7554 38.5901C68.0506 36.1146 63.6949 34.7933 59.2392 34.7933L59.2392 43.4213C61.9884 43.4213 64.676 44.2365 66.9619 45.7639C69.2479 47.2914 71.0295 49.4623 72.0816 52.0023C73.1337 54.5423 73.409 57.3373 72.8727 60.0337C72.3363 62.7302 71.0124 65.207 69.0684 67.1511C67.1243 69.0951 64.6475 70.419 61.951 70.9554C59.2546 71.4917 56.4596 71.2164 53.9196 70.1643C51.3796 69.1122 49.2087 67.3306 47.6812 65.0446C46.1538 62.7587 45.3386 60.0711 45.3386 57.3219L36.7106 57.3219Z" fill="white"/>
<path d="M103.623 80.3185C100.346 80.3185 97.8031 79.1404 95.9931 76.7844H95.6655C95.8839 78.9688 95.9931 80.2951 95.9931 80.7632V91.3656H90.493V53.9647H94.9399C95.0648 54.4484 95.3222 55.603 95.7123 57.4286H95.9931C97.7095 54.8072 100.284 53.4966 103.717 53.4966C106.947 53.4966 109.459 54.6668 111.253 57.0073C113.063 59.3478 113.968 62.6322 113.968 66.8607C113.968 71.0892 113.047 74.3893 111.206 76.7609C109.381 79.1326 106.853 80.3185 103.623 80.3185ZM102.289 57.9903C100.105 57.9903 98.5053 58.63 97.4911 59.9095C96.4924 61.1889 95.9931 63.233 95.9931 66.0415V66.8607C95.9931 70.0126 96.4924 72.2984 97.4911 73.7183C98.4897 75.1226 100.12 75.8248 102.383 75.8248C104.286 75.8248 105.753 75.0446 106.783 73.4843C107.813 71.924 108.327 69.7005 108.327 66.8139C108.327 63.9117 107.813 61.7195 106.783 60.2372C105.769 58.7392 104.271 57.9903 102.289 57.9903Z" fill="white"/>
<path d="M133.1 80.3185C129.074 80.3185 125.923 79.1482 123.645 76.8078C121.382 74.4517 120.251 71.214 120.251 67.0948C120.251 62.8663 121.304 59.5428 123.41 57.1243C125.517 54.7058 128.411 53.4966 132.094 53.4966C135.511 53.4966 138.21 54.5342 140.192 56.6094C142.173 58.6846 143.164 61.54 143.164 65.1756V68.148H125.915C125.993 70.6601 126.672 72.5949 127.951 73.9524C129.23 75.2942 131.033 75.9652 133.358 75.9652C134.887 75.9652 136.307 75.8248 137.617 75.5439C138.943 75.2474 140.363 74.7637 141.877 74.0928V78.5631C140.535 79.2029 139.178 79.6553 137.804 79.9206C136.431 80.1859 134.863 80.3185 133.1 80.3185ZM132.094 57.6626C130.346 57.6626 128.942 58.2165 127.881 59.3244C126.835 60.4322 126.211 62.0471 126.008 64.1692H137.758C137.726 62.0315 137.212 60.4166 136.213 59.3244C135.214 58.2165 133.841 57.6626 132.094 57.6626Z" fill="white"/>
<path d="M173.624 79.8504H168.101V63.9351C168.101 61.9379 167.695 60.4478 166.884 59.4648C166.088 58.4818 164.816 57.9903 163.069 57.9903C160.744 57.9903 159.043 58.6768 157.966 60.0499C156.89 61.423 156.351 63.7245 156.351 66.9543V79.8504H150.851V53.9647H155.158L155.93 57.3584H156.211C156.991 56.1257 158.099 55.1739 159.534 54.503C160.97 53.832 162.561 53.4966 164.309 53.4966C170.519 53.4966 173.624 56.6562 173.624 62.9755V79.8504Z" fill="white"/>
<path d="M205.335 80.3185C202.105 80.3185 199.585 79.1482 197.775 76.8078C195.965 74.4673 195.06 71.1828 195.06 66.9543C195.06 62.7103 195.973 59.4102 197.798 57.0541C199.64 54.6824 202.183 53.4966 205.428 53.4966C208.83 53.4966 211.42 54.7526 213.199 57.2647H213.48C213.214 55.408 213.082 53.9413 213.082 52.8646V43.4325H218.605V79.8504H214.299L213.339 76.4567H213.082C211.319 79.0312 208.736 80.3185 205.335 80.3185ZM206.809 75.8716C209.072 75.8716 210.718 75.2396 211.748 73.9758C212.778 72.6963 213.308 70.6289 213.339 67.7735V67.0011C213.339 63.7401 212.809 61.423 211.748 60.0499C210.687 58.6768 209.025 57.9903 206.763 57.9903C204.828 57.9903 203.338 58.7783 202.292 60.3542C201.247 61.9145 200.724 64.1458 200.724 67.048C200.724 69.9189 201.231 72.1112 202.245 73.6247C203.26 75.1226 204.781 75.8716 206.809 75.8716Z" fill="white"/>
<path d="M239.212 80.3185C235.186 80.3185 232.034 79.1482 229.756 76.8078C227.494 74.4517 226.363 71.214 226.363 67.0948C226.363 62.8663 227.416 59.5428 229.522 57.1243C231.629 54.7058 234.523 53.4966 238.205 53.4966C241.623 53.4966 244.322 54.5342 246.304 56.6094C248.285 58.6846 249.276 61.54 249.276 65.1756V68.148H232.027C232.105 70.6601 232.783 72.5949 234.063 73.9524C235.342 75.2942 237.144 75.9652 239.469 75.9652C240.998 75.9652 242.418 75.8248 243.729 75.5439C245.055 75.2474 246.475 74.7637 247.989 74.0928V78.5631C246.647 79.2029 245.289 79.6553 243.916 79.9206C242.543 80.1859 240.975 80.3185 239.212 80.3185ZM238.205 57.6626C236.458 57.6626 235.054 58.2165 233.993 59.3244C232.947 60.4322 232.323 62.0471 232.12 64.1692H243.869C243.838 62.0315 243.323 60.4166 242.325 59.3244C241.326 58.2165 239.953 57.6626 238.205 57.6626Z" fill="white"/>
<path d="M274.353 72.4779C274.353 75.0056 273.432 76.9482 271.591 78.3057C269.75 79.6475 267.113 80.3185 263.68 80.3185C260.232 80.3185 257.462 79.7958 255.371 78.7504V73.9992C258.414 75.4035 261.246 76.1056 263.867 76.1056C267.253 76.1056 268.946 75.0836 268.946 73.0396C268.946 72.3842 268.759 71.8381 268.385 71.4012C268.01 70.9644 267.394 70.5119 266.536 70.0438C265.677 69.5757 264.484 69.0452 262.955 68.4522C259.974 67.2976 257.954 66.143 256.893 64.9883C255.847 63.8337 255.325 62.3358 255.325 60.4946C255.325 58.2789 256.214 56.5626 257.993 55.3455C259.787 54.1129 262.221 53.4966 265.295 53.4966C268.338 53.4966 271.217 54.1129 273.932 55.3455L272.153 59.4882C269.36 58.3336 267.011 57.7562 265.108 57.7562C262.206 57.7562 260.755 58.5832 260.755 60.2372C260.755 61.0485 261.129 61.7351 261.878 62.2968C262.643 62.8585 264.297 63.6308 266.84 64.6139C268.977 65.4408 270.53 66.1976 271.497 66.8841C272.465 67.5707 273.183 68.3664 273.651 69.2714C274.119 70.1608 274.353 71.2296 274.353 72.4779Z" fill="white"/>
<path d="M287.072 66.182L290.185 62.2968L298.002 53.9647H304.345L293.93 65.0819L305 79.8504H298.54L290.232 68.4991L287.212 70.98V79.8504H281.759V43.4325H287.212V61.1967L286.931 66.182H287.072Z" fill="white"/>
<path d="M52.5285 30C49.57 30 46.6405 30.5827 43.9072 31.7149C41.1739 32.847 38.6904 34.5065 36.5985 36.5984C34.5065 38.6904 32.847 41.1739 31.7149 43.9072C30.5827 46.6405 30 49.57 30 52.5285L38.6279 52.5285C38.6279 50.7031 38.9875 48.8955 39.6861 47.209C40.3846 45.5225 41.4085 43.9901 42.6993 42.6993C43.9901 41.4085 45.5225 40.3846 47.209 39.6861C48.8955 38.9875 50.7031 38.6279 52.5285 38.6279L52.5285 30Z" fill="#E1354D"/>
<g filter="url(#filter0_di_2232_75294)">
<path d="M104 128C104 121.373 109.373 116 116 116H298C304.627 116 310 121.373 310 128V360H104V128Z" fill="#9DAFF3"/>
</g>
<rect x="114" y="126" width="186" height="244" rx="8" fill="#293874"/>
<rect x="124" y="151" width="166" height="149" rx="6" fill="white"/>
<rect x="124" y="310" width="166" height="149" rx="6" fill="white"/>
<circle cx="176" cy="179" r="8" fill="#DFA552"/>
<rect x="192" y="175" width="54" height="8" rx="4" fill="#E8EAEF"/>
<rect x="154" y="200" width="106" height="16" rx="8" fill="#D5D7DF"/>
<rect x="136" y="262" width="62" height="20" rx="3" stroke="#D5D7DF" stroke-width="2"/>
<rect x="207" y="261" width="64" height="22" rx="4" fill="#5FBD84"/>
<rect x="187" y="226" width="41" height="3" rx="1.5" fill="#979EB9"/>
<rect x="161" y="235" width="93" height="3" rx="1.5" fill="#979EB9"/>
<rect x="246" y="320" width="25" height="16" rx="8" fill="#FFC5CD"/>
<rect x="138" y="324" width="41" height="3" rx="1.5" fill="#D5D7DF"/>
<rect x="138" y="331" width="93" height="3" rx="1.5" fill="#D5D7DF"/>
<rect x="246" y="346" width="25" height="16" rx="8" fill="#CCEBD8"/>
<rect x="138" y="350" width="41" height="3" rx="1.5" fill="#D5D7DF"/>
<rect x="138" y="357" width="93" height="3" rx="1.5" fill="#D5D7DF"/>
<rect x="219" y="136" width="4" height="34" rx="2" transform="rotate(90 219 136)" fill="#5163AA"/>
<rect x="230" y="136" width="4" height="4" rx="2" transform="rotate(90 230 136)" fill="#5163AA"/>
<circle cx="98.5" cy="261.5" r="68.5" fill="#E1354D"/>
<rect x="97" y="193" width="14" height="14" fill="#F25D72"/>
<rect x="111" y="193" width="14" height="14" fill="#C3283E"/>
<rect x="125" y="193" width="14" height="14" fill="white"/>
<rect x="125" y="207" width="14" height="14" fill="#E1354D"/>
<rect x="139" y="193" width="14" height="14" fill="#FFC5CD"/>
<rect x="139" y="207" width="14" height="14" fill="#E1354D"/>
<rect x="139" y="221" width="14" height="14" fill="#C4283E"/>
<path d="M153 193H163C165.209 193 167 194.791 167 197V207H153V193Z" fill="#E1354D"/>
<rect x="153" y="207" width="14" height="14" fill="white"/>
<rect x="153" y="221" width="14" height="14" fill="#E1354D"/>
<rect x="153" y="235" width="14" height="14" fill="#F25D72"/>
<rect x="153" y="249" width="14" height="14" fill="#C3283E"/>
<path d="M144.785 261.5C144.785 286.611 124.032 307 98.3924 307C72.7526 307 52 286.611 52 261.5C52 236.389 72.7526 216 98.3924 216C124.032 216 144.785 236.389 144.785 261.5Z" fill="#E1354D"/>
<path d="M144.785 261.5C144.785 286.611 124.032 307 98.3924 307C72.7526 307 52 286.611 52 261.5C52 236.389 72.7526 216 98.3924 216C124.032 216 144.785 236.389 144.785 261.5Z" fill="url(#paint0_linear_2232_75294)" fill-opacity="0.2"/>
<path d="M144.785 261.5C144.785 286.611 124.032 307 98.3924 307C72.7526 307 52 286.611 52 261.5C52 236.389 72.7526 216 98.3924 216C124.032 216 144.785 236.389 144.785 261.5Z" stroke="#EA475E" stroke-width="2"/>
<path d="M85 241.701C85 241.314 85.3138 241 85.7009 241H103C108.523 241 113 245.477 113 251V251C113 256.523 108.523 261 103 261H85V241.701Z" stroke="white" stroke-width="8"/>
<path d="M85 281.306C85 281.689 85.3108 282 85.6942 282H105.5C111.299 282 116 277.299 116 271.5V271.5C116 265.701 111.299 261 105.5 261H85V281.306Z" stroke="white" stroke-width="8"/>
<rect x="90" y="231" width="6" height="9" rx="3" fill="white"/>
<rect x="90" y="283" width="6" height="9" rx="3" fill="white"/>
<rect x="99" y="231" width="6" height="9" rx="3" fill="white"/>
<rect x="99" y="283" width="6" height="9" rx="3" fill="white"/>
</g>
<defs>
<filter id="filter0_di_2232_75294" x="84" y="106" width="246" height="284" filterUnits="userSpaceOnUse" color-interpolation-filters="sRGB">
<feFlood flood-opacity="0" result="BackgroundImageFix"/>
<feColorMatrix in="SourceAlpha" type="matrix" values="0 0 0 0 0 0 0 0 0 0 0 0 0 0 0 0 0 0 127 0" result="hardAlpha"/>
<feOffset dy="10"/>
<feGaussianBlur stdDeviation="10"/>
<feComposite in2="hardAlpha" operator="out"/>
<feColorMatrix type="matrix" values="0 0 0 0 0.122431 0 0 0 0 0.169611 0 0 0 0 0.358333 0 0 0 1 0"/>
<feBlend mode="normal" in2="BackgroundImageFix" result="effect1_dropShadow_2232_75294"/>
<feBlend mode="normal" in="SourceGraphic" in2="effect1_dropShadow_2232_75294" result="shape"/>
<feColorMatrix in="SourceAlpha" type="matrix" values="0 0 0 0 0 0 0 0 0 0 0 0 0 0 0 0 0 0 127 0" result="hardAlpha"/>
<feOffset/>
<feGaussianBlur stdDeviation="10"/>
<feComposite in2="hardAlpha" operator="arithmetic" k2="-1" k3="1"/>
<feColorMatrix type="matrix" values="0 0 0 0 0.594635 0 0 0 0 0.670675 0 0 0 0 0.970833 0 0 0 1 0"/>
<feBlend mode="normal" in2="shape" result="effect2_innerShadow_2232_75294"/>
</filter>
<linearGradient id="paint0_linear_2232_75294" x1="135" y1="236" x2="61" y2="308" gradientUnits="userSpaceOnUse">
<stop/>
<stop offset="1" stop-opacity="0"/>
</linearGradient>
<clipPath id="clip0_2232_75294">
<rect width="360" height="360" rx="8" fill="white"/>
</clipPath>
</defs>
</svg>
