<svg width="360" height="360" viewBox="0 0 360 360" fill="none" xmlns="http://www.w3.org/2000/svg">
<g clip-path="url(#clip0_1807_21398)">
<rect width="360" height="360" rx="8" fill="#FCFCFC"/>
<path d="M36.0055 47.505C34.5672 43.5386 34.445 41.1057 36.9075 38.9776L44.049 33.361C45.7094 31.9345 47.5706 31.6319 49.7227 32.9727L62.395 43.239L60.5991 49.4806L47.0751 38.7365L36.0055 47.505Z" fill="#FFC814"/>
<path d="M252.18 75.2032L253.421 65.0393H244.21L243.714 69.0989C243.307 73.3034 243.683 75.2032 248.989 75.2032H252.18Z" fill="#FFC814"/>
<path d="M253.724 62.5586L256.81 37.2875C257.364 33.5281 256.851 32.1274 253.358 32.1274H248.23L244.514 62.5586H253.724Z" fill="#FFC814"/>
<path d="M57.0909 75.125C60.665 74.8611 61.5441 73.1782 62.4824 69.1087L49.839 68.9912L44.6059 51.9547L39.6558 56.0371L44.3564 71.867C45.3799 74.2248 46.8403 75.3889 48.9992 75.1857L57.0909 75.125Z" fill="#FFC814"/>
<path d="M61.6741 33.0379C58.611 31.1306 57.3091 31.9474 54.2408 34.7072L64.0707 42.7142L58.9961 59.7371L65.3208 59.8751L69.8881 43.9087C70.6938 41.5273 70.0458 39.821 68.1521 38.0896L61.6741 33.0379Z" fill="#EA2127"/>
<path fill-rule="evenodd" clip-rule="evenodd" d="M94.3092 74.3637C96.2236 74.6329 98.1669 74.843 100.139 74.9825C102.11 75.1327 104.189 75.2032 106.377 75.2032C109.032 75.2032 111.335 74.9431 113.263 74.4236C115.201 73.9026 116.814 73.1229 118.112 72.093C119.398 71.0745 120.417 69.7929 121.159 68.2632C121.901 66.7441 122.414 64.9741 122.687 62.9643C123.092 60.1545 122.842 57.9741 121.93 56.4042C121.03 54.8359 119.426 53.8052 117.134 53.3047L117.167 53.0658C118.71 52.5751 119.971 51.8751 120.959 50.9545C121.948 50.0353 122.718 48.9356 123.26 47.6562C123.803 46.3662 124.181 44.926 124.394 43.347C124.665 41.4867 124.651 39.8577 124.368 38.4569C124.077 37.057 123.471 35.8867 122.549 34.9471C121.617 34.0067 120.319 33.3075 118.657 32.838C116.995 32.3678 114.92 32.1274 112.44 32.1274C111.578 32.1274 110.829 32.1016 110.117 32.0771C108.788 32.0312 107.581 31.9897 105.994 32.1274C100.538 32.6018 100.137 34.6147 99.4778 37.9206C99.4352 38.1347 99.3914 38.3542 99.3452 38.579L94.3092 74.3637ZM109.709 40.2869C110.312 40.1671 110.906 40.1072 111.492 40.1072C112.177 40.0973 112.693 40.246 113.042 40.5365C113.391 40.8375 113.608 41.3062 113.679 41.9766C113.753 42.6364 113.719 43.5063 113.553 44.6067C113.344 46.1667 112.983 47.346 112.46 48.1454C111.927 48.9455 111.178 49.3451 110.191 49.3451H108.433L109.709 40.2869ZM107.303 57.3848H108.884C109.745 57.3742 110.407 57.5252 110.881 57.8353C111.355 58.144 111.656 58.6445 111.783 59.3339C111.922 60.0142 111.912 60.9242 111.741 62.0649C111.486 63.8751 111.038 65.1841 110.399 65.9842C109.759 66.7836 108.911 67.1848 107.859 67.1635C107.528 67.1635 107.197 67.1544 106.859 67.1233C106.511 67.1036 106.212 67.0733 105.943 67.0437L107.303 57.3848Z" fill="#EA2127"/>
<path d="M77.2177 39.176L76.2734 45.8749H81.5575L78.8632 65.0151C78.4374 67.8371 79.3002 69.2432 82.0056 69.2356H85.8596L89.1479 45.8749H94.3891L94.7979 42.968C95.0097 40.3682 93.5937 39.198 90.5513 39.176H77.2177Z" fill="#EA2127"/>
<path d="M124.076 70.3298L129.437 32.1335H140.344L138.4 45.9764L136.616 55.2674H136.856L147.654 32.1335H153.373C157.137 32.0091 157.72 34.0408 157.198 37.5522L151.914 75.2032H141.009L143.073 60.4965L144.795 51.207H144.556L133.637 75.2032H128.643C125.468 75.2032 123.581 73.465 124.076 70.3298Z" fill="#EA2127"/>
<path d="M161.584 32.1276L156.6 67.6377C155.794 72.2942 157.891 75.2034 162.408 75.2034H166.383L168.811 57.9113H174.443L172.017 75.2034H182.923L188.22 37.4583C188.61 34.5279 187.896 32.1276 183.246 32.1276H178.063L175.791 48.3116H170.159L172.43 32.1276H161.584Z" fill="#EA2127"/>
<path d="M190.811 41.7795L192.158 32.195H212.291C216.875 32.1275 217.648 34.2624 217.283 37.6008L216.696 41.7795H209.207L204.508 75.2033H199.198C194.246 75.2033 193.855 73.0146 194.432 69.7277L198.36 41.7795H190.811Z" fill="#EA2127"/>
<path fill-rule="evenodd" clip-rule="evenodd" d="M221.045 40.8107L221.044 40.8126C220.411 42.4049 219.825 43.8807 219.274 45.5451L211.396 69.3729C210.973 70.6501 210.197 75.2034 215.236 75.2034H220.444L222.732 66.6131H229.382L229.192 75.2034H239.858C239.97 73.9142 240.036 72.3807 240.066 70.6008C240.087 68.8223 240.07 66.7459 239.986 64.363C239.911 61.9794 239.78 59.2287 239.577 56.1299C239.385 53.022 239.122 49.4925 238.789 45.5451C238.733 44.8759 238.681 44.1926 238.627 43.4956L238.627 43.4912C238.482 41.6139 238.33 39.6377 238.081 37.5721C237.546 33.1317 237.202 32.1276 232.484 32.2513H228.518C224.879 32.1276 223.867 33.3054 222.544 36.9214C222.016 38.368 221.517 39.622 221.045 40.8107ZM225.028 57.5314L228.885 43.756L229.614 40.699H229.795L229.604 43.756L229.642 57.5314H225.028Z" fill="#EA2127"/>
<path d="M73.868 56.7557C74.5679 53.5363 73.3281 51.3855 69.8384 49.2165L66.3354 61.4167L48.8974 61.2567L51.1607 67.339L67.3167 67.6439C69.8222 67.3746 71.3544 66.3114 71.8321 64.1462L73.868 56.7557Z" fill="#EA2127"/>
<path d="M41.7039 67.4519C37.6506 67.9547 36.0354 67.9274 34.5594 64.5822L32.2169 56.591C31.6081 54.0679 32.308 52.2614 33.978 50.8894L47.0487 40.5291L51.9455 44.5857L38.0935 55.4481L41.7039 67.4519Z" fill="#EA2127"/>
<path d="M0 215.988C0 210.664 3.78953 206.094 9.02143 205.109L346.88 141.471C353.696 140.187 360 145.415 360 152.35V380.012C360 385.336 356.21 389.905 350.979 390.891L13.1198 454.529C6.30419 455.813 0 450.585 0 443.649V215.988Z" fill="#EA2127"/>
<path fill-rule="evenodd" clip-rule="evenodd" d="M31.2747 250.642C26.3948 247.624 24.3206 248.917 19.4324 253.283L35.0927 265.952L27.0083 292.886L37.0843 293.104L44.3605 267.842C45.6442 264.074 44.6118 261.374 41.5949 258.635L31.2747 250.642ZM50.7011 288.169C51.8161 283.075 49.841 279.672 44.2815 276.24L38.7007 295.543L10.9197 295.29L14.5254 304.914L40.264 305.396C44.2555 304.97 46.6966 303.288 47.4576 299.862L50.7011 288.169ZM-11.9226 300.552C-9.57114 305.845 -6.99787 305.888 -0.540497 305.092L-6.29232 286.1L15.7758 268.913L7.97454 262.495L-12.8488 278.887C-15.5094 281.058 -16.6244 283.916 -15.6545 287.908L-11.9226 300.552ZM-8.18164 260.04C-12.1047 263.407 -11.91 267.256 -9.61869 273.532L8.01666 259.658L29.5621 276.658L32.4233 266.782L12.2347 250.539C8.80602 248.417 5.841 248.896 3.19577 251.153L-8.18164 260.04ZM32.5625 307.714C31.0676 314.152 29.6671 316.815 23.9731 317.233L11.0819 317.329C7.64264 317.65 5.31598 315.808 3.6854 312.078L-3.80319 287.032L4.08299 280.572L12.4199 307.528L32.5625 307.714Z" fill="#FFC815" fill-opacity="0.3"/>
<path fill-rule="evenodd" clip-rule="evenodd" d="M385.087 191.574C377.44 186.844 374.189 188.869 366.528 195.713L391.071 215.567L378.401 257.776L394.192 258.119L405.595 218.529C407.607 212.624 405.989 208.393 401.261 204.1L385.087 191.574ZM415.532 250.384C417.279 242.401 414.184 237.068 405.471 231.69L396.725 261.941L353.188 261.545L358.838 276.626L399.175 277.382C405.43 276.714 409.256 274.078 410.449 268.709L415.532 250.384ZM317.39 269.79C321.075 278.085 325.108 278.153 335.228 276.906L326.214 247.142L360.798 220.207L348.572 210.149L315.938 235.838C311.769 239.24 310.022 243.719 311.541 249.976L317.39 269.79ZM323.253 206.301C317.105 211.578 317.41 217.611 321.001 227.446L348.638 205.703L382.403 232.344L386.887 216.868L355.248 191.412C349.875 188.087 345.228 188.837 341.083 192.374L323.253 206.301ZM387.105 281.014C384.763 291.105 382.568 295.277 373.644 295.932L353.442 296.082C348.052 296.586 344.406 293.7 341.85 287.853L330.114 248.602L342.473 238.479L355.539 280.722L387.105 281.014Z" fill="#FFC815" fill-opacity="0.3"/>
<g filter="url(#filter0_d_1807_21398)">
<path d="M32 104C32 100.686 34.6863 98 38 98H322C325.314 98 328 100.686 328 104V360H32V104Z" fill="white"/>
<path d="M32 104C32 100.686 34.6863 98 38 98H322C325.314 98 328 100.686 328 104V109.755H32V104Z" fill="#F5F4F4"/>
<rect x="42.6859" y="120.44" width="11.7545" height="11.7545" rx="5.87726" fill="#FFC814"/>
<rect x="305.56" y="120.44" width="11.7545" height="11.7545" rx="5.87726" fill="#EDEDED"/>
<rect x="288.462" y="120.44" width="11.7545" height="11.7545" rx="5.87726" fill="#EDEDED"/>
<rect x="271.365" y="120.44" width="11.7545" height="11.7545" rx="5.87726" fill="#EDEDED"/>
<rect x="57.1119" y="120.44" width="42.7437" height="11.7545" rx="5.87726" fill="#EA2127"/>
<rect x="43" y="319" width="106" height="8" rx="4" fill="#EDEDED"/>
<rect x="115.884" y="120.44" width="55.0325" height="11.7545" rx="5.87726" fill="#1AB21E"/>
<rect x="42.6859" y="142.881" width="274.628" height="102.051" rx="4.27437" fill="#FFC815" fill-opacity="0.2"/>
<mask id="mask0_1807_21398" style="mask-type:alpha" maskUnits="userSpaceOnUse" x="42" y="142" width="276" height="103">
<rect x="42.6859" y="142.881" width="274.628" height="102.051" rx="4.27437" fill="#FFC815"/>
</mask>
<g mask="url(#mask0_1807_21398)">
<path fill-rule="evenodd" clip-rule="evenodd" d="M287.067 173.194C286.289 172.094 285.263 171.123 284.225 170.206C282.489 168.721 279.647 168.953 276.708 170.813C276.139 170.56 275.351 170.35 274.862 169.895C273.754 168.848 272.631 168.946 271.272 169.677C270.358 170.166 269.292 170.45 268.36 170.793C266.909 169.016 265.408 167.635 263.776 166.296C261.439 164.366 259.24 164.168 256.315 165.516C254.751 166.235 252.977 166.563 251.288 167.067C251.196 166.589 251.145 166.427 251.128 166.28C250.862 163.498 250.462 160.935 247.781 159.012C246.552 158.129 244.944 157.695 244.056 156.705C242.799 155.274 241.37 155.595 239.85 155.995C238.278 156.412 236.715 156.953 235.194 157.531C229.585 159.62 223.984 161.731 218.375 163.819C217.785 164.055 217.209 164.337 216.612 164.549C214.734 165.189 212.838 165.86 210.945 166.453C210.472 166.601 209.855 166.567 209.381 166.436C208.367 166.146 207.402 165.738 206.03 165.23C209.471 163.593 212.621 161.946 215.91 160.56C220.751 158.51 225.691 156.682 230.561 154.723C233.072 153.708 235.527 152.609 238.022 151.547C239.496 150.908 241.141 148.236 240.484 146.971C239.193 144.511 236.852 142.937 234.19 141.717C234.056 141.658 233.838 141.701 233.659 141.681C231.09 141.497 228.517 141.391 225.956 142.245C222.317 143.437 218.643 144.513 215.095 145.904C210.951 147.508 206.92 149.38 202.874 151.207C200.314 152.339 197.824 153.602 195.285 154.803C193.27 155.74 191.247 156.653 189.093 157.607C187.996 155.491 186.968 153.683 185.128 152.511C183.039 151.187 180.84 149.975 178.584 148.856C177.657 148.386 176.604 148.615 175.512 149.185C171.009 151.485 166.491 153.738 161.925 155.931C154.971 159.252 148.044 162.566 141.734 166.928C138.936 168.87 136.003 170.652 133.335 172.731C130.038 175.287 126.939 178.109 123.731 180.764C122.655 181.659 121.416 182.403 120.306 183.283C117.503 185.481 114.692 187.655 111.937 189.914C109.343 192.046 106.757 194.201 104.253 196.432C100.687 199.604 97.1283 202.799 93.7182 206.1C89.4877 210.191 85.1902 214.251 81.2569 218.553C74.8705 225.526 70.4572 233.453 66.6066 241.609C64.5624 245.952 62.9324 250.419 61.276 254.895C60.7826 256.267 60.6242 257.787 60.6953 259.21C60.7628 260.254 60.5523 261.056 59.8733 261.928C57.934 264.489 55.9948 267.049 54.2232 269.684C51.554 273.691 49.0451 277.749 46.4429 281.786C45.5145 283.243 45.5775 284.365 47.0985 285.257C48.5189 286.105 50.1062 286.749 51.6862 287.369C55.3826 288.848 58.8288 288.147 61.7458 285.483C61.3939 286.202 61.0085 286.906 60.4338 287.467C59.4729 288.453 59.4209 289.483 60.1001 290.361C60.6761 291.093 61.5076 291.72 62.3483 292.192C63.795 293.032 65.3369 293.715 66.848 294.484C67.0564 294.596 67.272 294.731 67.504 294.734C68.633 294.837 69.7764 294.986 70.9218 294.956C71.6104 294.943 72.4541 294.78 72.9408 294.399C74.4247 293.148 75.8612 292.114 77.7454 291.219C81.0361 289.655 80.8415 289.31 82.5337 285.685C82.7024 285.303 82.9309 284.927 83.1666 284.574C85.1758 281.408 87.1779 278.219 89.2541 275.083C90.3422 273.398 91.5714 271.795 92.7002 270.148C94.5553 271.645 96.1876 272.985 97.8752 274.408C96.8904 276.239 95.8793 278.077 94.8945 279.908C93.5507 282.434 93.5895 282.65 96.0091 284.199C97.3842 285.087 98.7975 285.912 100.199 286.791C97.578 290.123 95.0903 293.236 92.6625 296.356C91.2211 298.203 91.8029 300.15 93.9528 301.023C94.8098 301.363 95.5716 301.86 96.3834 302.239C97.5973 302.797 98.8258 303.401 100.116 303.833C101.533 304.302 103.165 303.891 103.848 302.663C105.213 300.206 107.785 298.74 109.606 296.724C111.143 296.47 112.152 297.295 113.222 297.948C115.249 299.164 117.455 299.664 119.905 299.099C120.826 296.883 121.485 294.749 122.565 292.762C124.27 289.641 126.203 286.6 128.144 283.583C129.517 281.427 130.932 279.31 132.521 277.29C134.649 274.594 136.87 271.92 139.254 269.397C141.509 267.016 143.456 264.479 144.698 261.629C145.285 260.279 146.09 259.164 147.142 258.099C149.593 255.606 152.037 253.09 154.447 250.559C156.445 248.462 158.395 246.303 160.474 244.282C161.068 243.69 161.647 242.773 162.914 242.858C162.26 243.9 161.669 244.871 161.072 245.819C161.079 245.842 161.079 245.842 161.086 245.865C161.886 245.564 162.687 245.262 163.506 244.929C163.814 246.278 163 246.812 161.929 246.895C161.651 246.931 161.374 246.232 161.086 245.865C161.06 245.874 161.034 245.882 161.007 245.89C161.026 245.859 161.026 245.859 161.045 245.827C160.578 246.177 159.942 246.452 159.65 246.899C158.495 248.555 157.589 250.36 156.3 251.956C153.376 255.612 150.229 259.109 147.298 262.741C145.285 265.249 143.554 267.922 141.581 270.468C138.057 274.971 134.615 279.55 131.977 284.485C131.164 286.034 131.2 287.164 132.394 288.209C135.012 290.482 138.016 292.33 141.377 293.66C143.192 294.384 144.176 294.025 145.152 292.35C146.215 290.495 147.085 288.574 148.082 286.689C148.372 286.141 148.748 285.592 149.084 285.005C149.651 285.157 150.16 285.124 150.285 285.339C151.659 287.419 154.295 287.911 156.329 289.15C157.575 289.9 158.933 289.905 160.424 289.413C161.73 288.978 161.845 288.054 162.184 287.111C162.535 286.113 163.073 285.158 163.586 284.034C164.601 284.324 165.498 284.423 166.224 284.804C168.226 285.85 169.44 285.673 170.693 283.961C174.114 279.313 177.426 274.597 180.962 270.039C184.888 264.979 188.956 260.001 193.091 255.053C194.812 252.992 196.848 251.111 198.636 249.079C201.806 245.473 204.794 241.747 208.695 238.723C210.227 237.533 211.534 236.083 212.955 234.725C214.085 233.635 215.249 232.56 216.78 231.091C216.739 232.524 216.71 233.446 216.685 234.468C214.837 234.743 213.305 235.198 213.189 237.035C213.215 237.027 213.215 237.027 213.241 237.019C213.248 237.042 213.256 237.065 213.263 237.088C213.762 236.932 214.288 236.767 214.787 236.61C214.375 237.323 213.986 238.383 213.263 237.088C213.237 237.096 213.21 237.105 213.184 237.113C213.177 237.09 213.196 237.058 213.196 237.058C212.797 237.26 212.212 237.418 212.1 237.706C211.336 239.594 208.746 240.356 208.386 242.523C208.306 243.004 207.43 243.431 206.905 243.875C206.256 244.382 205.573 244.875 204.898 245.391C205.344 245.987 205.625 246.33 205.88 246.681C204.908 247.265 203.912 247.679 203.168 248.343C201.713 249.687 200.332 251.083 199.1 252.585C197.645 254.386 196.505 256.366 195.042 258.144C192.051 261.77 188.871 265.252 185.906 268.87C184.109 271.056 183.016 273.276 186.571 275.686C187.051 276.017 187.706 276.268 187.937 276.728C189.049 279.169 192.049 278.888 194.092 279.972C194.368 280.114 195.006 279.939 195.378 279.746C196.438 279.262 197.592 278.798 198.475 278.116C200.901 276.188 203.313 274.215 205.577 272.136C209.813 268.246 214 264.296 218.121 260.316C223.191 255.404 228.695 250.863 233.535 245.77C236.789 242.341 240.281 239.116 243.758 235.845C248.191 231.665 252.373 227.235 257.202 223.489C260.779 220.719 264.293 217.842 267.918 215.133C271.327 212.568 274.86 210.116 278.365 207.673C280.499 206.192 282.714 204.788 284.862 203.354C285.91 202.645 286.579 201.649 286.212 200.572C285.229 197.71 283.605 195.202 280.7 193.577C279.301 192.798 277.986 191.917 276.402 190.917C277.395 190.124 278.256 189.372 279.179 188.728C282.06 186.683 284.266 183.963 287.902 182.671C290.37 181.795 290.833 180.509 290.011 178.256C289.279 176.381 288.169 174.776 287.067 173.194ZM96.5749 265.382C96.448 265.346 96.3475 265.302 96.2134 265.242C96.5607 264.601 96.9415 263.974 97.2888 263.333C97.4564 263.407 97.5977 263.489 97.7653 263.564C97.351 264.175 96.963 264.779 96.5749 265.382ZM144.344 219.441C145.425 218.747 146.213 218.221 147.366 217.479C146.384 218.953 146.384 218.953 144.344 219.441ZM167.88 240.007C167.603 240.044 167.279 239.841 166.985 239.73C167.111 239.488 167.201 239.13 167.404 239.041C167.633 238.944 167.968 239.092 168.54 239.166C168.24 239.59 168.071 239.973 167.88 240.007ZM175.701 201.063C176.893 199.066 178.248 197.956 180.97 198.168C179.368 199.685 178.046 200.809 175.701 201.063ZM225.793 225.222C224.556 226.523 223.333 227.87 221.973 229.057C221.384 229.571 220.528 229.789 219.769 230.128C219.75 230.16 219.764 230.206 219.745 230.237C219.7 230.277 219.681 230.308 219.643 230.371C219.733 231.027 220.439 231.897 218.244 232.077C218.854 231.354 219.245 230.851 219.643 230.371C219.628 230.325 219.633 230.247 219.645 230.193C219.697 230.176 219.724 230.168 219.769 230.128C220.041 228.42 221.02 227.124 222.828 226.354C223.641 225.998 224.299 225.614 224.754 224.762C225.139 224.057 226.248 223.634 227.243 222.941C227.385 224.317 226.334 224.646 225.793 225.222Z" fill="#FFC815" fill-opacity="0.3"/>
</g>
<rect x="43" y="256" width="62.8899" height="52" rx="4.27437" fill="#EDEDED"/>
<rect x="113.37" y="256" width="62.8899" height="52" rx="4.27437" fill="#EDEDED"/>
<rect x="183.74" y="256" width="62.8899" height="52" rx="4.27437" fill="#EDEDED"/>
<rect x="254.11" y="256" width="62.8899" height="52" rx="4.27437" fill="#EDEDED"/>
<rect x="43" y="338" width="86.3466" height="52" rx="4.27437" fill="#F8F8F8"/>
<rect x="136.827" y="338" width="86.3466" height="52" rx="4.27437" fill="#F8F8F8"/>
<rect x="230.653" y="338" width="86.3466" height="52" rx="4.27437" fill="#F8F8F8"/>
<rect x="175.726" y="120.44" width="90.296" height="11.7545" rx="5.87726" fill="#EDEDED"/>
</g>
<rect x="111.304" y="169" width="136.179" height="54.8036" rx="6.64286" fill="#FFC815"/>
<rect opacity="0.2" x="111.304" y="169" width="136.179" height="54.8036" rx="6.64286" fill="url(#paint0_linear_1807_21398)"/>
<path fill-rule="evenodd" clip-rule="evenodd" d="M164 287.741H159.464C157.63 287.741 156.143 286.254 156.143 284.42C156.143 282.585 157.63 281.098 159.464 281.098H169.499C169.87 281.034 170.253 281 170.643 281H188.357C188.747 281 189.13 281.034 189.501 281.098H199.321C201.156 281.098 202.643 282.585 202.643 284.42C202.643 286.254 201.156 287.741 199.321 287.741H195V370.357C195 374.026 192.026 377 188.357 377H170.643C166.974 377 164 374.026 164 370.357V287.741Z" fill="#232323"/>
<path d="M163.616 287.741H186.036C186.953 287.741 187.696 288.485 187.696 289.402C187.696 290.319 186.953 291.062 186.036 291.062H163.616V287.741Z" fill="#4D4C4C"/>
<path d="M247.482 179.795H249.143C252.812 179.795 255.786 182.769 255.786 186.437V206.366C255.786 210.035 252.812 213.009 249.143 213.009H247.482V179.795Z" fill="#EA2127"/>
<path d="M247.482 179.795H249.143C252.812 179.795 255.786 182.769 255.786 186.437V206.366C255.786 210.035 252.812 213.009 249.143 213.009H247.482V179.795Z" fill="url(#paint1_linear_1807_21398)" fill-opacity="0.2"/>
<path d="M111.304 213.009L109.643 213.009C105.974 213.009 103 210.035 103 206.366L103 186.437C103 182.769 105.974 179.795 109.643 179.795L111.304 179.795L111.304 213.009Z" fill="#EA2127"/>
<path d="M111.304 213.009L109.643 213.009C105.974 213.009 103 210.035 103 206.366L103 186.437C103 182.769 105.974 179.795 109.643 179.795L111.304 179.795L111.304 213.009Z" fill="url(#paint2_linear_1807_21398)" fill-opacity="0.2"/>
<path d="M255.786 197.232H263.259C266.928 197.232 269.902 200.206 269.902 203.875V226.768C269.902 229.49 268.241 231.936 265.711 232.941L183.168 265.733C180.638 266.738 178.978 269.184 178.978 271.906V281.098" stroke="#EA2127" stroke-width="9.96428"/>
</g>
<defs>
<filter id="filter0_d_1807_21398" x="10" y="76" width="340" height="336" filterUnits="userSpaceOnUse" color-interpolation-filters="sRGB">
<feFlood flood-opacity="0" result="BackgroundImageFix"/>
<feColorMatrix in="SourceAlpha" type="matrix" values="0 0 0 0 0 0 0 0 0 0 0 0 0 0 0 0 0 0 127 0" result="hardAlpha"/>
<feOffset/>
<feGaussianBlur stdDeviation="11"/>
<feComposite in2="hardAlpha" operator="out"/>
<feColorMatrix type="matrix" values="0 0 0 0 0.6875 0 0 0 0 0.565481 0 0 0 0 0.166146 0 0 0 0.3 0"/>
<feBlend mode="normal" in2="BackgroundImageFix" result="effect1_dropShadow_1807_21398"/>
<feBlend mode="normal" in="SourceGraphic" in2="effect1_dropShadow_1807_21398" result="shape"/>
</filter>
<linearGradient id="paint0_linear_1807_21398" x1="179.393" y1="169" x2="179.393" y2="223.803" gradientUnits="userSpaceOnUse">
<stop stop-color="white" stop-opacity="0"/>
<stop offset="0.492424" stop-color="white"/>
<stop offset="1" stop-color="white" stop-opacity="0"/>
</linearGradient>
<linearGradient id="paint1_linear_1807_21398" x1="247.482" y1="196.402" x2="251.634" y2="196.402" gradientUnits="userSpaceOnUse">
<stop/>
<stop offset="1" stop-opacity="0"/>
</linearGradient>
<linearGradient id="paint2_linear_1807_21398" x1="111.304" y1="196.402" x2="107.152" y2="196.402" gradientUnits="userSpaceOnUse">
<stop/>
<stop offset="1" stop-opacity="0"/>
</linearGradient>
<clipPath id="clip0_1807_21398">
<rect width="360" height="360" rx="8" fill="white"/>
</clipPath>
</defs>
</svg>
