<svg width="360" height="360" viewBox="0 0 360 360" fill="none" xmlns="http://www.w3.org/2000/svg">
<g clip-path="url(#clip0_4536_22939)">
<rect width="360" height="360" rx="8" fill="#3189A8"/>
<path opacity="0.2" fill-rule="evenodd" clip-rule="evenodd" d="M348.712 111.282C363.763 126.324 363.763 150.713 348.712 165.755L165.646 348.718C150.595 363.761 126.193 363.761 111.142 348.718L11.2881 248.92C-3.76272 233.878 -3.76272 209.489 11.2881 194.447C26.339 179.404 50.7413 179.404 65.7921 194.447L138.394 267.008L294.208 111.282C309.259 96.2394 333.661 96.2394 348.712 111.282Z" fill="#97F6FF"/>
<path fill-rule="evenodd" clip-rule="evenodd" d="M63.2466 30L63.2529 30C68.8328 30.0053 74.3232 31.414 79.2157 34.0965C95.3187 42.9252 101.209 63.1284 92.3771 79.2239C83.7195 95.0008 64.1254 100.969 48.1904 92.8868L34.9872 95.0341C34.0057 95.1938 33.0073 94.8716 32.3042 94.1684C31.6011 93.4652 31.2791 92.4667 31.4389 91.4852L33.5872 78.2896C31.2356 73.6482 30.0045 68.5147 30 63.3019M63.2502 36.1843C67.792 36.1892 72.2609 37.3361 76.2425 39.5192L76.2426 39.5192C89.3504 46.7058 94.144 63.1489 86.9554 76.2488C79.7669 89.3486 63.3106 94.1432 50.2025 86.9571C49.5981 86.6257 48.9001 86.5058 48.2197 86.6165L38.2328 88.2407L39.8576 78.2613C39.9684 77.5805 39.8484 76.8821 39.5167 76.2774C37.3341 72.298 36.1882 67.8338 36.1843 63.2959L36.1843 63.2951C36.168 48.3412 48.2844 36.2024 63.2502 36.1843ZM63.2466 30C44.8676 30.0201 29.9803 44.9275 30 63.3011L63.2466 30Z" fill="white"/>
<path fill-rule="evenodd" clip-rule="evenodd" d="M78.077 54.0971C79.2846 55.3046 79.2846 57.2625 78.077 58.47L63.3893 73.1578C62.1817 74.3654 60.2239 74.3654 59.0163 73.1578L51.0048 65.1463C49.7972 63.9387 49.7972 61.9809 51.0048 60.7733C52.2124 59.5658 54.1702 59.5658 55.3778 60.7733L61.2028 66.5983L73.704 54.0971C74.9116 52.8895 76.8694 52.8895 78.077 54.0971Z" fill="white"/>
<path d="M141.414 63.2251C141.414 66.6174 140.778 69.5228 139.508 71.9415C138.247 74.3499 136.525 76.1947 134.342 77.4758C132.17 78.7569 129.705 79.3974 126.948 79.3974C124.191 79.3974 121.721 78.7569 119.538 77.4758C117.365 76.1845 115.644 74.3346 114.373 71.9261C113.112 69.5075 112.482 66.6071 112.482 63.2251C112.482 59.8328 113.112 56.9324 114.373 54.524C115.644 52.1053 117.365 50.2554 119.538 48.9744C121.721 47.6933 124.191 47.0527 126.948 47.0527C129.705 47.0527 132.17 47.6933 134.342 48.9744C136.525 50.2554 138.247 52.1053 139.508 54.524C140.778 56.9324 141.414 59.8328 141.414 63.2251ZM135.68 63.2251C135.68 60.8371 135.306 58.8233 134.557 57.1835C133.82 55.5335 132.795 54.2883 131.483 53.4479C130.171 52.5972 128.659 52.1719 126.948 52.1719C125.236 52.1719 123.725 52.5972 122.413 53.4479C121.101 54.2883 120.071 55.5335 119.323 57.1835C118.585 58.8233 118.216 60.8371 118.216 63.2251C118.216 65.613 118.585 67.632 119.323 69.282C120.071 70.9218 121.101 72.167 122.413 73.0176C123.725 73.858 125.236 74.2782 126.948 74.2782C128.659 74.2782 130.171 73.858 131.483 73.0176C132.795 72.167 133.82 70.9218 134.557 69.282C135.306 67.632 135.68 65.613 135.68 63.2251Z" fill="white"/>
<path d="M145.269 59.9199V55.3541H165.93V59.9199H158.289V78.967H152.909V59.9199H145.269Z" fill="white"/>
<path d="M170.361 78.967V55.3541H180.277C183.074 55.3541 185.283 55.9127 186.902 57.0298C188.532 58.1469 189.347 59.7047 189.347 61.7031C189.347 63.0252 188.885 64.1064 187.963 64.9468C187.051 65.777 185.806 66.3355 184.227 66.6225C185.468 66.725 186.554 67.0376 187.487 67.5602C188.429 68.0829 189.167 68.7696 189.7 69.6202C190.233 70.4708 190.5 71.4496 190.5 72.5564C190.5 73.858 190.156 74.9905 189.47 75.9539C188.793 76.907 187.804 77.65 186.503 78.1829C185.211 78.7056 183.643 78.967 181.799 78.967H170.361ZM175.572 74.5857H181.799C182.823 74.5857 183.628 74.3448 184.212 73.8631C184.796 73.3712 185.088 72.705 185.088 71.8647C185.088 70.891 184.796 70.1275 184.212 69.5741C183.628 69.0104 182.823 68.7286 181.799 68.7286H175.572V74.5857ZM175.572 65.1313H180.384C181.143 65.1313 181.793 65.0237 182.337 64.8085C182.88 64.583 183.295 64.2704 183.582 63.8707C183.869 63.4608 184.012 62.974 184.012 62.4103C184.012 61.6007 183.679 60.9652 183.013 60.5041C182.357 60.0429 181.445 59.8123 180.277 59.8123H175.572V65.1313Z" fill="white"/>
<path d="M205.546 79.4281C203.178 79.4281 201.134 78.9362 199.412 77.9523C197.701 76.9582 196.384 75.5542 195.461 73.7402C194.539 71.9159 194.078 69.7688 194.078 67.2989C194.078 64.87 194.539 62.7383 195.461 60.9038C196.394 59.059 197.695 57.6242 199.366 56.5993C201.036 55.5642 202.999 55.0467 205.254 55.0467C206.709 55.0467 208.082 55.2824 209.374 55.7538C210.675 56.215 211.823 56.9324 212.817 57.906C213.822 58.8796 214.611 60.1197 215.185 61.6263C215.759 63.1226 216.046 64.9058 216.046 66.9761V68.6825H196.691V64.9315H210.711C210.701 63.8656 210.47 62.9176 210.019 62.0875C209.568 61.2471 208.938 60.586 208.129 60.1044C207.329 59.6227 206.396 59.3818 205.331 59.3818C204.193 59.3818 203.194 59.6585 202.333 60.212C201.472 60.7551 200.801 61.4726 200.319 62.3642C199.848 63.2456 199.607 64.2141 199.597 65.2697V68.5441C199.597 69.9174 199.848 71.096 200.35 72.0799C200.852 73.0535 201.554 73.8017 202.456 74.3243C203.358 74.8368 204.413 75.093 205.623 75.093C206.432 75.093 207.165 74.9802 207.821 74.7548C208.477 74.5191 209.046 74.1757 209.527 73.7248C210.009 73.2738 210.373 72.7153 210.619 72.0491L215.815 72.6333C215.487 74.0066 214.862 75.2057 213.939 76.2306C213.027 77.2452 211.859 78.0343 210.434 78.598C209.01 79.1514 207.38 79.4281 205.546 79.4281Z" fill="white"/>
<path d="M218.786 59.9199V55.3541H239.447V59.9199H231.807V78.967H226.426V59.9199H218.786Z" fill="white"/>
<g filter="url(#filter0_d_4536_22939)">
<path d="M49 139C49 125.745 59.7452 115 73 115H287C300.255 115 311 125.745 311 139V360H49V139Z" fill="#0D3847"/>
</g>
<path d="M56 182C56 168.745 66.7452 158 80 158H281C294.255 158 305 168.745 305 182V360H56V182Z" fill="white"/>
<path d="M56 182C56 168.745 66.7452 158 80 158H281C294.255 158 305 168.745 305 182V360H56V182Z" fill="url(#paint0_linear_4536_22939)"/>
<path d="M288 127.438C294.05 127.438 299 132.388 299 138.438C299 144.533 294.05 149.438 288 149.438C281.904 149.438 277 144.533 277 138.438C277 132.388 281.904 127.438 288 127.438ZM291.667 140.638L289.513 138.438L291.667 136.283C292.125 135.871 292.125 135.183 291.667 134.771C291.254 134.313 290.567 134.313 290.154 134.771L288 136.925L285.8 134.771C285.388 134.313 284.7 134.313 284.288 134.771C283.829 135.183 283.829 135.871 284.288 136.283L286.442 138.438L284.288 140.638C283.829 141.05 283.829 141.738 284.288 142.15C284.7 142.608 285.388 142.608 285.8 142.15L288 139.996L290.154 142.15C290.567 142.608 291.254 142.608 291.667 142.15C292.125 141.738 292.125 141.05 291.667 140.638Z" fill="#19637D"/>
<rect x="138" y="135" width="54" height="6" rx="3" fill="white"/>
<rect x="196" y="135" width="18" height="6" rx="3" fill="white"/>
<circle cx="85" cy="189" r="15" fill="#A2D8EB"/>
<path d="M90 185C90 183.619 89.44 182.369 88.536 181.465C87.631 180.56 86.381 180 85 180C83.619 180 82.369 180.56 81.464 181.465C80.56 182.369 80 183.619 80 185C80 186.381 80.56 187.631 81.464 188.535C82.369 189.44 83.619 190 85 190C86.381 190 87.631 189.44 88.536 188.535C89.001 188.071 89.3698 187.52 89.621 186.914C89.8723 186.307 90.0011 185.657 90 185ZM79 195C79 196 81.25 197 85 197C88.518 197 91 196 91 195C91 193 88.646 191 85 191C81.25 191 79 193 79 195Z" fill="white"/>
<circle cx="74" cy="138" r="13.3846" fill="#19637D" stroke="#0D3847" stroke-width="2.76923"/>
<path d="M77.9999 134.801C77.9999 133.696 77.5519 132.696 76.8287 131.973C76.1047 131.249 75.1047 130.801 73.9999 130.801C72.8951 130.801 71.8952 131.249 71.1712 131.973C70.448 132.696 70 133.696 70 134.801C70 135.906 70.448 136.906 71.1712 137.629C71.8952 138.353 72.8951 138.801 73.9999 138.801C75.1047 138.801 76.1047 138.353 76.8287 137.629C77.2008 137.258 77.4958 136.817 77.6968 136.332C77.8978 135.846 78.0008 135.326 77.9999 134.801ZM69.2 142.801C69.2 143.601 71 144.401 73.9999 144.401C76.8143 144.401 78.7999 143.601 78.7999 142.801C78.7999 141.201 76.9167 139.601 73.9999 139.601C71 139.601 69.2 141.201 69.2 142.801Z" fill="#AFE4F6"/>
<circle cx="95" cy="138" r="13.3846" fill="#19637D" stroke="#0D3847" stroke-width="2.76923"/>
<path d="M98.9999 134.801C98.9999 133.696 98.5519 132.696 97.8287 131.973C97.1047 131.249 96.1047 130.801 94.9999 130.801C93.8952 130.801 92.8952 131.249 92.1712 131.973C91.448 132.696 91 133.696 91 134.801C91 135.906 91.448 136.906 92.1712 137.629C92.8952 138.353 93.8952 138.801 94.9999 138.801C96.1047 138.801 97.1047 138.353 97.8287 137.629C98.2008 137.258 98.4958 136.817 98.6968 136.332C98.8978 135.846 99.0008 135.326 98.9999 134.801ZM90.2 142.801C90.2 143.601 92 144.401 94.9999 144.401C97.8143 144.401 99.7999 143.601 99.7999 142.801C99.7999 141.201 97.9167 139.601 94.9999 139.601C92 139.601 90.2 141.201 90.2 142.801Z" fill="#AFE4F6"/>
<circle cx="116" cy="138" r="13.3846" fill="#19637D" stroke="#0D3847" stroke-width="2.76923"/>
<path d="M120 134.801C120 133.696 119.552 132.696 118.829 131.973C118.105 131.249 117.105 130.801 116 130.801C114.895 130.801 113.895 131.249 113.171 131.973C112.448 132.696 112 133.696 112 134.801C112 135.906 112.448 136.906 113.171 137.629C113.895 138.353 114.895 138.801 116 138.801C117.105 138.801 118.105 138.353 118.829 137.629C119.201 137.258 119.496 136.817 119.697 136.332C119.898 135.846 120.001 135.326 120 134.801ZM111.2 142.801C111.2 143.601 113 144.401 116 144.401C118.814 144.401 120.8 143.601 120.8 142.801C120.8 141.201 118.917 139.601 116 139.601C113 139.601 111.2 141.201 111.2 142.801Z" fill="#AFE4F6"/>
<circle cx="85" cy="331" r="15" fill="#A2D8EB"/>
<path d="M90 327C90 325.619 89.44 324.369 88.536 323.465C87.631 322.56 86.381 322 85 322C83.619 322 82.369 322.56 81.464 323.465C80.56 324.369 80 325.619 80 327C80 328.381 80.56 329.631 81.464 330.535C82.369 331.44 83.619 332 85 332C86.381 332 87.631 331.44 88.536 330.535C89.001 330.071 89.3698 329.52 89.621 328.914C89.8723 328.307 90.0011 327.657 90 327ZM79 337C79 338 81.25 339 85 339C88.518 339 91 338 91 337C91 335 88.646 333 85 333C81.25 333 79 335 79 337Z" fill="white"/>
<circle cx="275" cy="255" r="15" fill="#268AAE"/>
<path d="M280 251C280 249.619 279.44 248.369 278.536 247.465C277.631 246.56 276.381 246 275 246C273.619 246 272.369 246.56 271.464 247.465C270.56 248.369 270 249.619 270 251C270 252.381 270.56 253.631 271.464 254.535C272.369 255.44 273.619 256 275 256C276.381 256 277.631 255.44 278.536 254.535C279.001 254.071 279.37 253.52 279.621 252.914C279.872 252.307 280.001 251.657 280 251ZM269 261C269 262 271.25 263 275 263C278.518 263 281 262 281 261C281 259 278.646 257 275 257C271.25 257 269 259 269 261Z" fill="white"/>
<path d="M237 174H102.414C101.523 174 101.077 175.077 101.707 175.707L110.828 184.828C111.579 185.579 112 186.596 112 187.657V225C112 229.418 115.582 233 120 233H237C241.418 233 245 229.418 245 225V182C245 177.582 241.418 174 237 174Z" fill="#508A9E"/>
<path d="M237 316H102.414C101.523 316 101.077 317.077 101.707 317.707L110.828 326.828C111.579 327.579 112 328.596 112 329.657V367C112 371.418 115.582 375 120 375H237C241.418 375 245 371.418 245 367V324C245 319.582 241.418 316 237 316Z" fill="#508A9E"/>
<path d="M120 240H257.586C258.477 240 258.923 241.077 258.293 241.707L249.172 250.828C248.421 251.579 248 252.596 248 253.657V272C248 276.418 244.418 280 240 280H120C115.582 280 112 276.418 112 272V248C112 243.582 115.582 240 120 240Z" fill="#AFE4F6"/>
<rect x="193" y="180" width="46" height="6" rx="3" fill="#377185"/>
<rect x="192" y="322" width="46" height="6" rx="3" fill="#377185"/>
<rect x="127" y="246" width="46" height="6" rx="3" fill="#82D2ED"/>
<rect x="184" y="180" width="6" height="6" rx="3" fill="#377185"/>
<rect x="183" y="322" width="6" height="6" rx="3" fill="#377185"/>
<rect x="118" y="246" width="6" height="6" rx="3" fill="#82D2ED"/>
<rect x="122" y="194" width="99" height="11" rx="5.5" fill="#B6ECFF" fill-opacity="0.2"/>
<rect x="122" y="336" width="99" height="11" rx="5.5" fill="#B6ECFF" fill-opacity="0.2"/>
<rect x="122" y="211" width="65" height="11" rx="5.5" fill="#B6ECFF" fill-opacity="0.2"/>
<rect x="122" y="353" width="65" height="11" rx="5.5" fill="#B6ECFF" fill-opacity="0.2"/>
<rect x="122" y="260" width="99" height="11" rx="5.5" fill="white" fill-opacity="0.4"/>
<rect x="112" y="284" width="136" height="23" rx="8" fill="#AFE4F6"/>
<circle cx="281" cy="234" r="41" fill="#96F290"/>
<g filter="url(#filter1_d_4536_22939)">
<path d="M293.476 243.223C292.934 242.65 292.537 241.953 292.319 241.192C292.101 240.431 292.069 239.628 292.225 238.851H267.997C266.671 238.853 265.401 239.383 264.464 240.327C263.527 241.271 263.001 242.551 263 243.886V245.945C263 247.226 263.396 248.475 264.134 249.518C267.561 254.362 273.171 256.76 280.773 256.76C281.64 256.76 282.479 256.728 283.291 256.666C283.003 255.859 282.923 254.992 283.061 254.146C283.198 253.299 283.547 252.503 284.076 251.83L285.854 249.57C286.434 248.835 287.21 248.282 288.092 247.977C288.973 247.671 289.923 247.626 290.829 247.846L292.691 248.3C293.847 247.322 294.536 246.118 294.798 244.62L293.476 243.223ZM280.773 212C282.232 212 283.678 212.29 285.026 212.852C286.374 213.414 287.6 214.239 288.632 215.278C289.664 216.318 290.482 217.551 291.041 218.909C291.599 220.267 291.887 221.723 291.887 223.193C291.887 224.663 291.599 226.118 291.041 227.476C290.482 228.834 289.664 230.068 288.632 231.107C287.6 232.147 286.374 232.971 285.026 233.533C283.678 234.096 282.232 234.385 280.773 234.385C277.825 234.385 274.999 233.206 272.914 231.107C270.83 229.008 269.659 226.161 269.659 223.193C269.659 220.224 270.83 217.377 272.914 215.278C274.999 213.179 277.825 212 280.773 212ZM294.536 238.84L295.594 236.143C296.132 234.768 297.639 234.054 299.035 234.513L299.993 234.829C301.602 235.359 302.94 236.633 302.994 238.341C303.216 245.303 297.49 255.316 291.407 258.611C289.911 259.421 288.144 258.886 286.883 257.736L286.134 257.053C285.611 256.576 285.287 255.915 285.228 255.206C285.169 254.497 285.38 253.792 285.819 253.234L287.597 250.973C288.241 250.152 289.302 249.787 290.309 250.033L293.18 250.734C295.631 249.099 296.946 246.802 297.123 243.841L295.085 241.683C294.734 241.312 294.495 240.846 294.398 240.343C294.3 239.839 294.348 239.317 294.536 238.84Z" fill="#488B43"/>
</g>
<circle cx="235" cy="321" r="25" fill="#FF6A59"/>
<g filter="url(#filter2_d_4536_22939)">
<path d="M238.385 329.571C238.385 330.481 238.028 331.353 237.393 331.996C236.759 332.639 235.898 333 235 333C234.102 333 233.241 332.639 232.607 331.996C231.972 331.353 231.615 330.481 231.615 329.571H238.385ZM243.462 327.857H225.015C224.746 327.857 224.488 327.749 224.297 327.556C224.107 327.363 224 327.101 224 326.829C224 326.556 224.107 326.294 224.297 326.101C224.488 325.908 224.746 325.8 225.015 325.8H226.538V319.286C226.538 315.137 229.449 311.674 233.316 310.886C233.293 310.647 233.318 310.406 233.392 310.179C233.466 309.951 233.586 309.742 233.745 309.564C233.904 309.387 234.097 309.245 234.313 309.147C234.53 309.05 234.764 309 235 309C235.236 309 235.47 309.05 235.687 309.147C235.903 309.245 236.096 309.387 236.255 309.564C236.414 309.742 236.534 309.951 236.608 310.179C236.682 310.406 236.707 310.647 236.684 310.886C238.596 311.28 240.316 312.331 241.551 313.862C242.786 315.393 243.461 317.309 243.462 319.286V325.8H244.985C245.254 325.8 245.512 325.908 245.703 326.101C245.893 326.294 246 326.556 246 326.829C246 327.101 245.893 327.363 245.703 327.556C245.512 327.749 245.254 327.857 244.985 327.857H243.462Z" fill="#9A2C1F"/>
</g>
<rect x="122" y="290" width="55" height="11" rx="5.5" fill="white" fill-opacity="0.4"/>
<circle cx="63" cy="266" r="33" fill="#FFBA59"/>
<g filter="url(#filter3_d_4536_22939)">
<path d="M65.0509 249.207L78.6827 273.281C78.8906 273.648 79 274.065 79 274.488C79 274.912 78.8906 275.329 78.6827 275.696C78.4749 276.063 78.1759 276.368 77.8159 276.58C77.4559 276.792 77.0475 276.903 76.6318 276.903H49.3682C48.9525 276.903 48.5441 276.792 48.1841 276.58C47.8241 276.368 47.5251 276.063 47.3173 275.696C47.1094 275.329 47 274.912 47 274.488C47 274.065 47.1094 273.648 47.3173 273.281L60.9491 249.207C61.8601 247.598 64.1383 247.598 65.0509 249.207ZM63 268.287C62.5813 268.287 62.1797 268.457 61.8836 268.759C61.5875 269.061 61.4211 269.47 61.4211 269.897C61.4211 270.324 61.5875 270.734 61.8836 271.036C62.1797 271.337 62.5813 271.507 63 271.507C63.4187 271.507 63.8203 271.337 64.1164 271.036C64.4125 270.734 64.5788 270.324 64.5788 269.897C64.5788 269.47 64.4125 269.061 64.1164 268.759C63.8203 268.457 63.4187 268.287 63 268.287ZM63 257.018C62.6133 257.018 62.24 257.163 61.9511 257.425C61.6621 257.687 61.4774 258.048 61.4322 258.44L61.4211 258.628V265.068C61.4216 265.478 61.5757 265.873 61.8519 266.171C62.1282 266.469 62.5057 266.649 62.9075 266.673C63.3092 266.697 63.7048 266.564 64.0134 266.3C64.3219 266.037 64.5203 265.663 64.5678 265.256L64.5788 265.068V258.628C64.5788 258.201 64.4125 257.792 64.1164 257.49C63.8203 257.188 63.4187 257.018 63 257.018Z" fill="#AB701D"/>
</g>
</g>
<defs>
<filter id="filter0_d_4536_22939" x="17" y="83" width="326" height="309" filterUnits="userSpaceOnUse" color-interpolation-filters="sRGB">
<feFlood flood-opacity="0" result="BackgroundImageFix"/>
<feColorMatrix in="SourceAlpha" type="matrix" values="0 0 0 0 0 0 0 0 0 0 0 0 0 0 0 0 0 0 127 0" result="hardAlpha"/>
<feOffset/>
<feGaussianBlur stdDeviation="16"/>
<feComposite in2="hardAlpha" operator="out"/>
<feColorMatrix type="matrix" values="0 0 0 0 0.0946962 0 0 0 0 0.352302 0 0 0 0 0.44305 0 0 0 0.4 0"/>
<feBlend mode="normal" in2="BackgroundImageFix" result="effect1_dropShadow_4536_22939"/>
<feBlend mode="normal" in="SourceGraphic" in2="effect1_dropShadow_4536_22939" result="shape"/>
</filter>
<filter id="filter1_d_4536_22939" x="263" y="212" width="40" height="48" filterUnits="userSpaceOnUse" color-interpolation-filters="sRGB">
<feFlood flood-opacity="0" result="BackgroundImageFix"/>
<feColorMatrix in="SourceAlpha" type="matrix" values="0 0 0 0 0 0 0 0 0 0 0 0 0 0 0 0 0 0 127 0" result="hardAlpha"/>
<feOffset dy="1"/>
<feComposite in2="hardAlpha" operator="out"/>
<feColorMatrix type="matrix" values="0 0 0 0 1 0 0 0 0 1 0 0 0 0 1 0 0 0 0.2 0"/>
<feBlend mode="normal" in2="BackgroundImageFix" result="effect1_dropShadow_4536_22939"/>
<feBlend mode="normal" in="SourceGraphic" in2="effect1_dropShadow_4536_22939" result="shape"/>
</filter>
<filter id="filter2_d_4536_22939" x="224" y="309" width="22" height="25" filterUnits="userSpaceOnUse" color-interpolation-filters="sRGB">
<feFlood flood-opacity="0" result="BackgroundImageFix"/>
<feColorMatrix in="SourceAlpha" type="matrix" values="0 0 0 0 0 0 0 0 0 0 0 0 0 0 0 0 0 0 127 0" result="hardAlpha"/>
<feOffset dy="1"/>
<feComposite in2="hardAlpha" operator="out"/>
<feColorMatrix type="matrix" values="0 0 0 0 1 0 0 0 0 1 0 0 0 0 1 0 0 0 0.2 0"/>
<feBlend mode="normal" in2="BackgroundImageFix" result="effect1_dropShadow_4536_22939"/>
<feBlend mode="normal" in="SourceGraphic" in2="effect1_dropShadow_4536_22939" result="shape"/>
</filter>
<filter id="filter3_d_4536_22939" x="47" y="248" width="32" height="29.9023" filterUnits="userSpaceOnUse" color-interpolation-filters="sRGB">
<feFlood flood-opacity="0" result="BackgroundImageFix"/>
<feColorMatrix in="SourceAlpha" type="matrix" values="0 0 0 0 0 0 0 0 0 0 0 0 0 0 0 0 0 0 127 0" result="hardAlpha"/>
<feOffset dy="1"/>
<feComposite in2="hardAlpha" operator="out"/>
<feColorMatrix type="matrix" values="0 0 0 0 1 0 0 0 0 1 0 0 0 0 1 0 0 0 0.2 0"/>
<feBlend mode="normal" in2="BackgroundImageFix" result="effect1_dropShadow_4536_22939"/>
<feBlend mode="normal" in="SourceGraphic" in2="effect1_dropShadow_4536_22939" result="shape"/>
</filter>
<linearGradient id="paint0_linear_4536_22939" x1="180.5" y1="227.763" x2="180.5" y2="613.021" gradientUnits="userSpaceOnUse">
<stop stop-color="#82D2ED" stop-opacity="0"/>
<stop offset="1" stop-color="#82D2ED"/>
</linearGradient>
<clipPath id="clip0_4536_22939">
<rect width="360" height="360" rx="8" fill="white"/>
</clipPath>
</defs>
</svg>
