<svg width="360" height="360" viewBox="0 0 360 360" fill="none" xmlns="http://www.w3.org/2000/svg">
<g clip-path="url(#clip0_2627_75813)">
<rect width="360" height="360" rx="8" fill="#FECC31"/>
<path fill-rule="evenodd" clip-rule="evenodd" d="M39.0017 35.1921C45.0854 32.9622 51.37 31.1678 57.8246 30.4535C62.7955 29.9692 67.8253 29.774 72.7962 30.3699C74.4046 30.6172 76.3042 30.8925 77.3234 32.3245C77.8017 34.4778 77.8364 37.5579 75.5451 38.7043C74.7374 38.7078 73.9297 38.1607 73.1394 38.4186C72.4114 39.0457 72.1791 40.0353 71.8325 40.8924C70.5187 44.7774 69.6348 48.7913 68.7231 52.7878C66.8373 60.8086 65.7246 69.0036 65.2636 77.23C65.1111 79.6203 64.9065 82.3659 62.9896 84.0558C61.9184 84.9094 60.3759 85.7352 59.0205 85.0732C58.1955 84.7108 57.315 84.1638 57.1105 83.2091C56.2543 80.3659 56.2404 77.352 56.4311 74.4113C57.263 64.3661 59.8455 54.5857 62.0086 44.7704C62.4003 42.8366 63.0866 40.9307 62.9618 38.9238C61.2529 39.1956 59.5959 39.7879 57.8523 39.8227C55.6372 39.983 53.2489 40.0875 51.3423 41.3732C50.552 41.8819 50.2538 42.8366 50.181 43.7251C49.6992 48.408 49.2971 53.1153 48.2745 57.7215C47.0716 63.4567 45.7197 69.1639 44.1633 74.8154C43.7092 77.1081 42.6242 79.4112 40.6656 80.7701C39.5425 81.5819 38.0797 81.3206 36.8803 80.8467C36.5128 79.9025 36.1731 78.9269 36.1211 77.906C35.7606 72.7876 37.0605 67.7458 38.513 62.8887C39.0225 60.948 39.1023 58.9271 39.5772 56.9759C40.4438 52.3487 41.9586 47.847 42.5687 43.1711C39.3934 44.0701 36.2251 45.3627 32.8765 45.2756C31.5939 45.2443 30.0687 44.5056 30.0028 43.0492C29.9508 41.206 30.6164 39.2165 32.0758 38.0283C34.0828 36.4569 36.6688 36.0632 39.0017 35.1921ZM162.993 42.8192C163.784 42.3558 164.81 42.3001 165.624 42.7495C167.226 43.6032 168.522 44.9168 169.788 46.2025C170.692 45.7565 171.545 45.1258 172.554 44.9446C173.538 45.307 174.155 46.2687 174.758 47.084C177.4 51.2686 178.377 56.2964 178.561 61.1849C178.533 67.1152 176.804 73.1151 173.337 77.9478C171.344 80.5784 168.827 82.9722 165.68 84.1045C163.569 84.8815 161.166 84.9443 159.069 84.0871C154.986 82.5506 151.963 78.7178 151.103 74.4566C148.971 64.6483 152.188 54.1153 158.643 46.5892C159.936 45.1746 161.298 43.753 162.993 42.8192ZM163.125 53.8156C159.298 59.6135 157.478 66.7876 158.258 73.7144C158.49 75.6691 159.087 77.9687 161.083 78.8049C164.38 77.7213 166.179 74.4496 167.694 71.5541C170.443 65.704 172.013 58.7947 169.916 52.4846C169.507 51.394 168.817 49.8401 167.389 50.1083C165.468 50.5474 164.245 52.3209 163.125 53.8156ZM221.76 44.0178C222.1 43.199 222.779 42.0631 223.84 42.5405C225.462 43.2861 226.87 44.4673 228.097 45.76C229.019 46.6066 228.603 47.9551 228.343 49.0038C226.398 55.4289 224.453 61.8713 223.24 68.4845C228.818 61.603 234.621 54.8888 240.801 48.5474C242.507 46.9237 244.094 45.0979 246.153 43.9168C247.28 43.1816 248.49 44.2338 249.204 45.0735C250.015 46.1223 251.079 47.3871 250.712 48.8122C250.102 50.4707 248.656 51.5892 247.46 52.8122C246.705 53.5404 246.604 54.6519 246.285 55.6031C244.753 60.8086 243.921 66.1953 243.436 71.596C242.968 75.6691 242.975 79.7875 242.427 83.8537C242.347 84.5122 242.181 85.2091 241.709 85.7004C240.631 86.1742 239.46 85.5923 238.489 85.1185C236.659 84.1464 234.738 82.7596 234.232 80.6203C233.879 78.6203 234.215 76.582 234.596 74.6133C235.439 70.474 236.434 66.3695 237.338 62.2441C233.494 66.6239 229.92 71.2301 226.35 75.8294C224.644 78.0558 222.838 80.2091 221.354 82.5958C220.672 83.5819 219.84 84.9582 218.436 84.6899C216.682 84.3798 215.188 83.2265 213.898 82.0523C212.889 81.2091 213.333 79.7771 213.392 78.6481C214.636 70.3277 216.931 62.2162 218.98 54.0665C219.926 50.7251 220.419 47.2373 221.76 44.0178ZM257.863 42.6624C258.317 42.1816 258.993 42.5962 259.437 42.8784C260.754 43.7948 261.964 44.8924 262.959 46.1572C263.617 46.9133 263.146 47.9481 262.834 48.746C261.437 51.8296 260.165 55.0316 259.669 58.401C259.541 59.4149 259.583 61.157 260.997 61.0839C263.628 61.056 266.179 60.2581 268.678 59.4985C269.971 55.0316 271.223 50.5056 273.296 46.3279C273.739 45.6415 274.305 44.3523 275.317 44.7356C276.915 45.5648 278.409 46.6694 279.622 48.0143C280.586 49.2059 279.449 50.6623 279.057 51.8575C277.171 56.941 275.379 62.1013 274.481 67.4671C273.895 70.805 273.459 74.1674 273.025 77.5297C272.748 80.244 273.025 83.1185 271.885 85.6655C271.587 85.777 271.292 85.8885 271.001 86C269.448 85.0836 267.86 84.23 266.287 83.3589C265.198 82.784 264.418 81.5959 264.626 80.3311C265.146 75.2754 266.46 70.3451 267.541 65.3904C264.685 66.1849 261.853 67.1152 258.924 67.5821C257.198 67.8608 255.704 66.6657 254.625 65.4601C252.993 63.6065 251.54 61.2093 251.97 58.6274C252.559 54.5543 253.922 50.631 255.506 46.8471C256.192 45.408 256.75 43.8366 257.863 42.6624ZM98.6975 44.0492C104.216 43.0318 109.846 42.9272 115.427 42.4673C118.228 42.1433 121.216 43.4394 122.703 45.8854C123.108 46.5788 123.434 47.4673 123.091 48.2512C122.665 48.624 122.134 48.8505 121.583 48.962C119.118 49.4498 116.584 49.3244 114.116 49.7808C111.662 57.7494 109.617 65.8469 108.289 74.0837C107.617 77.6098 107.443 81.237 106.442 84.6899C104.601 84.7631 102.895 83.9268 101.356 83.007C100.552 82.4669 99.6022 81.7736 99.5295 80.7143C99.3943 78.3659 100.008 76.0663 100.386 73.7701C101.953 65.8469 103.859 57.9933 105.87 50.1745C103.499 50.2198 101.127 50.7808 98.7564 50.516C96.739 49.8679 96.2537 47.5126 95.8065 45.7077C96.4686 44.7251 97.5536 44.2094 98.6975 44.0492ZM126.311 43.6589C125.074 44.1676 123.448 44.746 123.126 46.2094C123.32 48.3523 124.197 50.5892 126.051 51.8122C123.985 60.9933 121.528 70.0768 119.167 79.1812C118.955 80.4251 118.546 82.0906 119.652 83.0279C120.872 83.7805 122.356 83.8781 123.698 84.3275C124.592 84.5366 125.819 85.0976 126.53 84.2021C127.247 83.2962 127.386 82.0871 127.632 80.9861C128.402 76.0977 128.873 71.1465 130.152 66.3556C131.296 67.8782 132.391 69.7284 134.319 70.3172C135.941 70.4357 137.348 69.3416 138.589 68.4218C142.021 65.589 144.909 62.0908 147.041 58.178C148.126 56.0456 149.256 53.5543 148.472 51.1327C147.127 46.9411 143.165 44.1816 139.096 43.0352C134.905 42.0074 130.395 42.2966 126.311 43.6589ZM133.456 51.1711C134.374 50.0909 135.958 50.2129 137.241 50.1223C138.863 50.0805 140.978 50.1502 141.824 51.8122C142.493 53.6588 141.259 55.4393 140.135 56.7982C137.608 59.6971 134.378 62.0455 130.741 63.3068C131.102 60.3696 131.743 57.4776 132.339 54.5822C132.641 53.4289 132.773 52.178 133.456 51.1711ZM185.563 44.2617C188.239 43.4847 190.995 43.0387 193.748 42.6415C198.119 42.091 202.896 42.4603 206.563 45.1467C209.662 47.2164 211.548 51.1954 210.674 54.9027C209.835 58.5264 206.979 61.2894 203.838 63.0455C206.681 64.8051 208.979 68.0768 208.376 71.5646C207.731 74.9235 205.783 77.906 203.464 80.3485C201.464 82.3554 199.069 84.3101 196.171 84.6725C193.429 85.0314 191.155 83.0627 189.435 81.1673C189.078 82.1952 188.853 83.3101 188.212 84.2091C187.733 84.8676 186.787 84.7875 186.163 84.4112C184.575 83.5192 183.13 82.3589 181.906 81.014C181.261 80.4042 181.39 79.4461 181.456 78.6516C181.747 76.9548 182.454 75.366 183.029 73.7562C185.827 66.7319 187.189 59.2302 188.049 51.746C185.466 51.1432 183.532 48.7634 183.237 46.1537C183.393 44.9934 184.6 44.5614 185.563 44.2617ZM194.507 49.293C194.978 50.0421 195.741 50.7529 195.692 51.7181C195.737 54.725 195.048 57.6762 194.611 60.6344C198.036 59.3452 201.395 57.3382 203.475 54.2337C204.483 52.8191 204.358 50.5683 202.76 49.6345C200.289 48.1118 197.183 48.7878 194.507 49.293ZM193.387 66.2894C192.628 70.0385 191.286 73.6308 190.316 77.3241C194.351 77.129 198.594 75.2579 200.615 71.5925C201.578 69.9409 201.502 67.3416 199.658 66.3521C197.71 65.38 195.408 65.7598 193.387 66.2894ZM82.4398 44.3035C79.9093 44.6206 77.2922 44.638 74.8691 45.53C74.0302 45.8575 72.9626 46.5474 73.2537 47.6171C73.6004 49.415 74.0094 51.84 76.1656 52.2233C75.2608 54.6658 74.1897 57.0386 73.2919 59.4846C72.1237 62.7807 71.2987 66.1883 70.5187 69.5925C69.8428 72.7841 69.1529 76.0489 69.4892 79.3276C69.7041 81.1534 70.6574 83.0593 72.4322 83.784C75.3475 85.1533 78.6545 84.7108 81.7362 84.3275C84.4955 83.8815 87.2825 83.4321 89.9205 82.4774C90.8321 82.1986 91.4249 81.2788 91.2758 80.3241C91.1476 79.2022 91.2204 77.8328 90.3295 77.0036C88.676 76.7074 87.1126 77.4739 85.5597 77.9095C83.095 78.6272 80.4952 78.8259 77.9439 78.683C76.6821 78.6272 76.7271 77.0872 76.8277 76.1673C77.2783 72.9304 78.0721 69.7353 79.1952 66.6692C82.0689 66.6065 84.953 66.6308 87.8198 66.4322C88.4784 66.3347 89.5911 66.2511 89.5703 65.3521C89.5946 64.1814 89.6605 62.9898 89.4941 61.8295C89.0296 61.3347 88.3917 61.0281 87.7192 60.9619C85.2373 60.5821 82.731 61.0595 80.2421 61.1152C81.0602 58.4288 82.0412 55.7947 83.095 53.1919C83.5838 52.1467 84.0067 50.7285 85.3066 50.4881C88.6968 49.7843 92.1251 50.8435 95.5361 50.5195C95.2311 48.955 94.3124 47.6275 93.4181 46.3523C92.6659 45.2129 91.5462 44.2443 90.1423 44.1119C87.5841 43.7913 85.0016 44.1885 82.4398 44.3035Z" fill="#EE1D23"/>
<g filter="url(#filter0_d_2627_75813)">
<path d="M30 130C30 123.373 35.3726 118 42 118H318C324.627 118 330 123.373 330 130V360H30V130Z" fill="white"/>
<path d="M30 130C30 123.373 35.3726 118 42 118H318C324.627 118 330 123.373 330 130V360H30V130Z" fill="url(#paint0_linear_2627_75813)" fill-opacity="0.2"/>
</g>
<path d="M30 130C30 123.373 35.3726 118 42 118H318C324.627 118 330 123.373 330 130V145H30V130Z" fill="#323333"/>
<rect x="30" y="145" width="300" height="40" fill="#FFD860"/>
<rect x="43" y="157" width="75" height="16" rx="8" fill="#EE1D23"/>
<rect x="43" y="213" width="190" height="16" rx="8" fill="#DDDDDD"/>
<rect x="43" y="235" width="122" height="16" rx="8" fill="#DDDDDD"/>
<path d="M43 310C43 303.373 48.3726 298 55 298H221C227.627 298 233 303.373 233 310V360H43V310Z" fill="#FFE8A4"/>
<path d="M253 225C253 218.925 257.925 214 264 214H305C311.075 214 316 218.925 316 225V370H253V225Z" stroke="#DDDDDD" stroke-width="2"/>
<rect x="124" y="157" width="33" height="16" rx="8" fill="#DFB42F"/>
<rect x="45" y="130" width="31" height="3" rx="1.5" fill="#5C5C5C"/>
<rect x="263" y="223" width="13" height="3" rx="1.5" fill="#DDDDDD"/>
<rect x="45" y="198" width="158" height="3" rx="1.5" fill="#E9E9E9"/>
<rect x="82" y="130" width="49" height="3" rx="1.5" fill="#5C5C5C"/>
<rect x="137" y="130" width="20" height="3" rx="1.5" fill="#5C5C5C"/>
<rect x="276" y="130" width="38" height="3" rx="1.5" fill="#FFD860"/>
<path d="M49.0489 265.927C49.3483 265.006 50.6517 265.006 50.9511 265.927L51.3471 267.146C51.481 267.558 51.8649 267.837 52.2981 267.837H53.5797C54.5484 267.837 54.9512 269.076 54.1675 269.646L53.1307 270.399C52.7802 270.654 52.6335 271.105 52.7674 271.517L53.1634 272.736C53.4628 273.657 52.4083 274.424 51.6246 273.854L50.5878 273.101C50.2373 272.846 49.7627 272.846 49.4122 273.101L48.3754 273.854C47.5917 274.424 46.5372 273.657 46.8366 272.736L47.2326 271.517C47.3665 271.105 47.2198 270.654 46.8693 270.399L45.8325 269.646C45.0488 269.076 45.4516 267.837 46.4203 267.837H47.7019C48.1351 267.837 48.519 267.558 48.6529 267.146L49.0489 265.927Z" fill="#FAC82F"/>
<path d="M64.0489 265.927C64.3483 265.006 65.6517 265.006 65.9511 265.927L66.3471 267.146C66.481 267.558 66.8649 267.837 67.2981 267.837H68.5797C69.5484 267.837 69.9512 269.076 69.1675 269.646L68.1307 270.399C67.7802 270.654 67.6335 271.105 67.7674 271.517L68.1634 272.736C68.4628 273.657 67.4083 274.424 66.6246 273.854L65.5878 273.101C65.2373 272.846 64.7627 272.846 64.4122 273.101L63.3754 273.854C62.5917 274.424 61.5372 273.657 61.8366 272.736L62.2326 271.517C62.3665 271.105 62.2198 270.654 61.8693 270.399L60.8325 269.646C60.0488 269.076 60.4516 267.837 61.4203 267.837H62.7019C63.1351 267.837 63.519 267.558 63.6529 267.146L64.0489 265.927Z" fill="#FAC82F"/>
<path d="M79.0489 265.927C79.3483 265.006 80.6517 265.006 80.9511 265.927L81.3471 267.146C81.481 267.558 81.8649 267.837 82.2981 267.837H83.5797C84.5484 267.837 84.9512 269.076 84.1675 269.646L83.1307 270.399C82.7802 270.654 82.6335 271.105 82.7674 271.517L83.1634 272.736C83.4628 273.657 82.4083 274.424 81.6246 273.854L80.5878 273.101C80.2373 272.846 79.7627 272.846 79.4122 273.101L78.3754 273.854C77.5917 274.424 76.5372 273.657 76.8366 272.736L77.2326 271.517C77.3665 271.105 77.2198 270.654 76.8693 270.399L75.8325 269.646C75.0488 269.076 75.4516 267.837 76.4203 267.837H77.7019C78.1351 267.837 78.519 267.558 78.6529 267.146L79.0489 265.927Z" fill="#FAC82F"/>
<path d="M94.0489 265.927C94.3483 265.006 95.6517 265.006 95.9511 265.927L96.3471 267.146C96.481 267.558 96.8649 267.837 97.2981 267.837H98.5797C99.5484 267.837 99.9512 269.076 99.1675 269.646L98.1307 270.399C97.7802 270.654 97.6335 271.105 97.7674 271.517L98.1634 272.736C98.4628 273.657 97.4083 274.424 96.6246 273.854L95.5878 273.101C95.2373 272.846 94.7627 272.846 94.4122 273.101L93.3754 273.854C92.5917 274.424 91.5372 273.657 91.8366 272.736L92.2326 271.517C92.3665 271.105 92.2198 270.654 91.8693 270.399L90.8325 269.646C90.0488 269.076 90.4516 267.837 91.4203 267.837H92.7019C93.1351 267.837 93.519 267.558 93.6529 267.146L94.0489 265.927Z" fill="#FAC82F"/>
<path d="M109.049 265.927C109.348 265.006 110.652 265.006 110.951 265.927L111.347 267.146C111.481 267.558 111.865 267.837 112.298 267.837H113.58C114.548 267.837 114.951 269.076 114.167 269.646L113.131 270.399C112.78 270.654 112.634 271.105 112.767 271.517L113.163 272.736C113.463 273.657 112.408 274.424 111.625 273.854L110.588 273.101C110.237 272.846 109.763 272.846 109.412 273.101L108.375 273.854C107.592 274.424 106.537 273.657 106.837 272.736L107.233 271.517C107.366 271.105 107.22 270.654 106.869 270.399L105.833 269.646C105.049 269.076 105.452 267.837 106.42 267.837H107.702C108.135 267.837 108.519 267.558 108.653 267.146L109.049 265.927Z" fill="#FAC82F"/>
<path d="M181.5 246L277 260.5V208.5C277 204.082 273.418 200.5 269 200.5H189.5C185.082 200.5 181.5 204.082 181.5 208.5V246Z" fill="#593D13"/>
<rect x="180" y="149" width="96" height="52" rx="8" fill="#8D5809"/>
<rect x="180" y="108" width="96" height="41" rx="8" fill="#C0842A"/>
<rect x="187" y="114" width="46" height="10" rx="5" fill="#E0A64F"/>
<rect x="187" y="155" width="46" height="10" rx="5" fill="#73490A"/>
<rect x="187" y="207" width="46" height="10" rx="5" fill="#73490A"/>
<rect x="187" y="134" width="31" height="3" rx="1.5" fill="#E0A64F"/>
<rect x="187" y="180" width="22" height="3" rx="1.5" fill="#73490A"/>
<rect x="187" y="232" width="22" height="3" rx="1.5" fill="#73490A"/>
<rect x="187" y="140" width="43" height="3" rx="1.5" fill="#E0A64F"/>
<rect x="187" y="186" width="31" height="3" rx="1.5" fill="#73490A"/>
<rect x="187" y="238" width="31" height="3" rx="1.5" fill="#73490A"/>
<rect x="187" y="192" width="16" height="3" rx="1.5" fill="#73490A"/>
<rect x="187" y="244" width="16" height="3" rx="1.5" fill="#73490A"/>
<path d="M289 267L305.352 185.428C306.101 181.69 309.383 179 313.196 179H362" stroke="#323333" stroke-width="16" stroke-linecap="round"/>
<path d="M168 304H302.61C311.662 304 319 296.662 319 287.61V287.61C319 279.446 312.991 272.527 304.908 271.383L168 252" stroke="#323333" stroke-width="16" stroke-linecap="round"/>
<circle cx="199" cy="337" r="14" stroke="#323333" stroke-width="16" stroke-linecap="round"/>
<ellipse cx="295.5" cy="337" rx="13.5" ry="14" stroke="#323333" stroke-width="16" stroke-linecap="round"/>
</g>
<defs>
<filter id="filter0_d_2627_75813" x="0" y="98" width="360" height="302" filterUnits="userSpaceOnUse" color-interpolation-filters="sRGB">
<feFlood flood-opacity="0" result="BackgroundImageFix"/>
<feColorMatrix in="SourceAlpha" type="matrix" values="0 0 0 0 0 0 0 0 0 0 0 0 0 0 0 0 0 0 127 0" result="hardAlpha"/>
<feOffset dy="10"/>
<feGaussianBlur stdDeviation="15"/>
<feComposite in2="hardAlpha" operator="out"/>
<feColorMatrix type="matrix" values="0 0 0 0 0.7625 0 0 0 0 0.591965 0 0 0 0 0.0667188 0 0 0 1 0"/>
<feBlend mode="normal" in2="BackgroundImageFix" result="effect1_dropShadow_2627_75813"/>
<feBlend mode="normal" in="SourceGraphic" in2="effect1_dropShadow_2627_75813" result="shape"/>
</filter>
<linearGradient id="paint0_linear_2627_75813" x1="180" y1="360" x2="180" y2="265.5" gradientUnits="userSpaceOnUse">
<stop stop-color="#FECC31"/>
<stop offset="1" stop-color="#FECC31" stop-opacity="0"/>
</linearGradient>
<clipPath id="clip0_2627_75813">
<rect width="360" height="360" rx="8" fill="white"/>
</clipPath>
</defs>
</svg>
