<svg width="360" height="360" viewBox="0 0 360 360" fill="none" xmlns="http://www.w3.org/2000/svg">
<g clip-path="url(#clip0_3938_377)">
<rect width="360" height="360" rx="8" fill="#1E2229"/>
<g clip-path="url(#clip1_3938_377)">
<path d="M110.954 82.5356V72.8597H114.154C115.216 72.8597 116.014 73.0768 116.547 73.511C117.085 73.9452 117.354 74.5877 117.354 75.4382C117.354 75.89 117.224 76.2912 116.964 76.641C116.704 76.9865 116.35 77.2546 115.902 77.4452C116.431 77.5912 116.848 77.8705 117.152 78.2826C117.462 78.69 117.616 79.1775 117.616 79.7445C117.616 80.613 117.332 81.2951 116.762 81.7912C116.193 82.2873 115.389 82.5356 114.349 82.5356H110.954ZM112.245 78.0099V81.4923H114.376C114.976 81.4923 115.449 81.3394 115.794 81.0336C116.144 80.7235 116.319 80.2982 116.319 79.7577C116.319 78.5927 115.678 78.0099 114.396 78.0099H112.245ZM112.245 76.9865H114.194C114.759 76.9865 115.209 76.8469 115.545 76.5678C115.886 76.2888 116.056 75.9099 116.056 75.4316C116.056 74.8998 115.9 74.5145 115.586 74.2752C115.272 74.0316 114.795 73.9098 114.154 73.9098H112.245V76.9865ZM122.853 76.4484C122.665 76.4173 122.461 76.4017 122.242 76.4017C121.426 76.4017 120.873 76.7452 120.581 77.4317V82.5356H119.337V75.3452H120.547L120.567 76.1756C120.975 75.5336 121.554 75.2122 122.302 75.2122C122.544 75.2122 122.728 75.2433 122.853 75.3052V76.4484ZM125.355 82.5356H124.111V75.3452H125.355V82.5356ZM124.01 73.4379C124.01 73.2386 124.07 73.0702 124.191 72.9328C124.317 72.7955 124.501 72.7266 124.742 72.7266C124.985 72.7266 125.168 72.7955 125.294 72.9328C125.419 73.0702 125.482 73.2386 125.482 73.4379C125.482 73.6371 125.419 73.8033 125.294 73.9363C125.168 74.069 124.985 74.1355 124.742 74.1355C124.501 74.1355 124.317 74.069 124.191 73.9363C124.07 73.8033 124.01 73.6371 124.01 73.4379ZM128.528 75.3452L128.568 76.2488C129.124 75.5577 129.85 75.2122 130.746 75.2122C132.283 75.2122 133.059 76.0694 133.072 77.7842V82.5356H131.829V77.7775C131.824 77.2589 131.703 76.8756 131.465 76.6278C131.232 76.3795 130.867 76.2554 130.37 76.2554C129.966 76.2554 129.612 76.362 129.308 76.5745C129.003 76.7873 128.765 77.0663 128.595 77.4118V82.5356H127.351V75.3452H128.528ZM134.652 78.8807C134.652 77.7597 134.915 76.869 135.439 76.2091C135.963 75.5445 136.658 75.2122 137.523 75.2122C138.41 75.2122 139.103 75.5223 139.6 76.1425L139.661 75.3452H140.797V82.3628C140.797 83.2931 140.517 84.0266 139.957 84.5624C139.401 85.0986 138.653 85.3667 137.711 85.3667C137.187 85.3667 136.674 85.2558 136.172 85.0344C135.67 84.813 135.287 84.5095 135.022 84.1239L135.668 83.3861C136.201 84.0375 136.853 84.3632 137.624 84.3632C138.229 84.3632 138.699 84.1947 139.036 83.8581C139.376 83.5215 139.547 83.0472 139.547 82.4359V81.818C139.049 82.385 138.37 82.6686 137.509 82.6686C136.658 82.6686 135.968 82.3297 135.439 81.6519C134.915 80.974 134.652 80.0503 134.652 78.8807ZM135.903 79.02C135.903 79.8309 136.071 80.469 136.407 80.934C136.743 81.3947 137.214 81.6251 137.819 81.6251C138.603 81.6251 139.179 81.2729 139.547 80.5686V77.2857C139.166 76.599 138.594 76.2554 137.832 76.2554C137.227 76.2554 136.754 76.4881 136.414 76.9534C136.073 77.4184 135.903 78.1075 135.903 79.02ZM144.031 82.5356H142.787V75.3452H144.031V82.5356ZM142.686 73.4379C142.686 73.2386 142.747 73.0702 142.868 72.9328C142.993 72.7955 143.177 72.7266 143.419 72.7266C143.661 72.7266 143.845 72.7955 143.97 72.9328C144.096 73.0702 144.159 73.2386 144.159 73.4379C144.159 73.6371 144.096 73.8033 143.97 73.9363C143.845 74.069 143.661 74.1355 143.419 74.1355C143.177 74.1355 142.993 74.069 142.868 73.9363C142.747 73.8033 142.686 73.6371 142.686 73.4379ZM147.204 75.3452L147.245 76.2488C147.8 75.5577 148.526 75.2122 149.423 75.2122C150.96 75.2122 151.736 76.0694 151.749 77.7842V82.5356H150.505V77.7775C150.501 77.2589 150.38 76.8756 150.142 76.6278C149.909 76.3795 149.544 76.2554 149.046 76.2554C148.643 76.2554 148.289 76.362 147.984 76.5745C147.679 76.7873 147.442 77.0663 147.271 77.4118V82.5356H146.028V75.3452H147.204ZM153.329 78.8807C153.329 77.7597 153.591 76.869 154.116 76.2091C154.64 75.5445 155.335 75.2122 156.2 75.2122C157.087 75.2122 157.78 75.5223 158.277 76.1425L158.337 75.3452H159.474V82.3628C159.474 83.2931 159.194 84.0266 158.633 84.5624C158.078 85.0986 157.329 85.3667 156.388 85.3667C155.863 85.3667 155.35 85.2558 154.848 85.0344C154.346 84.813 153.963 84.5095 153.699 84.1239L154.344 83.3861C154.877 84.0375 155.53 84.3632 156.3 84.3632C156.905 84.3632 157.376 84.1947 157.712 83.8581C158.053 83.5215 158.223 83.0472 158.223 82.4359V81.818C157.726 82.385 157.047 82.6686 156.186 82.6686C155.335 82.6686 154.644 82.3297 154.116 81.6519C153.591 80.974 153.329 80.0503 153.329 78.8807ZM154.579 79.02C154.579 79.8309 154.747 80.469 155.084 80.934C155.42 81.3947 155.89 81.6251 156.496 81.6251C157.28 81.6251 157.856 81.2729 158.223 80.5686V77.2857C157.842 76.599 157.271 76.2554 156.509 76.2554C155.904 76.2554 155.431 76.4881 155.09 76.9534C154.75 77.4184 154.579 78.1075 154.579 79.02ZM166.459 73.604V75.3452H167.817V76.2955H166.459V80.7546C166.459 81.0426 166.519 81.2597 166.641 81.406C166.761 81.5476 166.968 81.6184 167.259 81.6184C167.402 81.6184 167.599 81.592 167.851 81.5387V82.5356C167.523 82.6243 167.205 82.6686 166.896 82.6686C166.34 82.6686 165.921 82.5025 165.639 82.1702C165.356 81.8379 165.215 81.3659 165.215 80.7546V76.2955H163.891V75.3452H165.215V73.604H166.459ZM168.812 78.874C168.812 78.1694 168.951 77.5359 169.229 76.9733C169.511 76.4106 169.901 75.9764 170.399 75.6706C170.901 75.3651 171.472 75.2122 172.113 75.2122C173.103 75.2122 173.904 75.5511 174.513 76.2289C175.127 76.9068 175.434 77.8083 175.434 78.9336V79.02C175.434 79.72 175.298 80.3492 175.024 80.9075C174.755 81.4612 174.367 81.8931 173.861 82.2033C173.359 82.5134 172.781 82.6686 172.126 82.6686C171.14 82.6686 170.34 82.3297 169.726 81.6519C169.117 80.974 168.812 80.0768 168.812 78.9604V78.874ZM170.062 79.02C170.062 79.8176 170.249 80.4577 170.621 80.9406C170.997 81.4235 171.499 81.6651 172.126 81.6651C172.759 81.6651 173.26 81.4215 173.632 80.934C174.004 80.4422 174.191 79.7554 174.191 78.874C174.191 78.0853 174 77.4472 173.619 76.96C173.242 76.4682 172.74 76.2223 172.113 76.2223C171.499 76.2223 171.004 76.4639 170.627 76.9468C170.251 77.4297 170.062 78.1208 170.062 79.02ZM176.698 78.8807C176.698 77.7597 176.96 76.869 177.485 76.2091C178.009 75.5445 178.704 75.2122 179.569 75.2122C180.456 75.2122 181.149 75.5223 181.646 76.1425L181.707 75.3452H182.843V82.3628C182.843 83.2931 182.563 84.0266 182.002 84.5624C181.447 85.0986 180.698 85.3667 179.757 85.3667C179.233 85.3667 178.719 85.2558 178.218 85.0344C177.716 84.813 177.332 84.5095 177.068 84.1239L177.713 83.3861C178.247 84.0375 178.899 84.3632 179.67 84.3632C180.275 84.3632 180.746 84.1947 181.082 83.8581C181.422 83.5215 181.593 83.0472 181.593 82.4359V81.818C181.095 82.385 180.416 82.6686 179.556 82.6686C178.704 82.6686 178.014 82.3297 177.485 81.6519C176.96 80.974 176.698 80.0503 176.698 78.8807ZM177.949 79.02C177.949 79.8309 178.117 80.469 178.453 80.934C178.789 81.3947 179.26 81.6251 179.865 81.6251C180.649 81.6251 181.225 81.2729 181.593 80.5686V77.2857C181.212 76.599 180.64 76.2554 179.878 76.2554C179.273 76.2554 178.8 76.4881 178.46 76.9534C178.119 77.4184 177.949 78.1075 177.949 79.02ZM187.744 82.6686C186.758 82.6686 185.956 82.3496 185.337 81.7114C184.719 81.069 184.41 80.2118 184.41 79.1398V78.9138C184.41 78.2005 184.546 77.5647 184.819 77.0064C185.097 76.4437 185.483 76.0052 185.976 75.6908C186.473 75.3717 187.011 75.2122 187.589 75.2122C188.535 75.2122 189.27 75.52 189.795 76.1359C190.319 76.7519 190.581 77.6332 190.581 78.7807V79.2927H185.653C185.671 80.0013 185.879 80.5752 186.279 81.0138C186.682 81.448 187.193 81.6651 187.811 81.6651C188.25 81.6651 188.623 81.5764 188.927 81.3993C189.232 81.2219 189.499 80.9873 189.727 80.6947L190.487 81.2795C189.878 82.2056 188.963 82.6686 187.744 82.6686ZM187.589 76.2223C187.088 76.2223 186.666 76.404 186.325 76.7674C185.985 77.1262 185.774 77.6313 185.694 78.2826H189.338V78.1893C189.301 77.5647 189.131 77.0818 188.827 76.7406C188.522 76.3951 188.109 76.2223 187.589 76.2223ZM193.714 73.604V75.3452H195.072V76.2955H193.714V80.7546C193.714 81.0426 193.775 81.2597 193.896 81.406C194.017 81.5476 194.223 81.6184 194.514 81.6184C194.658 81.6184 194.855 81.592 195.106 81.5387V82.5356C194.779 82.6243 194.46 82.6686 194.151 82.6686C193.595 82.6686 193.176 82.5025 192.894 82.1702C192.612 81.8379 192.47 81.3659 192.47 80.7546V76.2955H191.146V75.3452H192.47V73.604H193.714ZM197.775 76.2157C198.326 75.5468 199.043 75.2122 199.926 75.2122C201.463 75.2122 202.239 76.0694 202.252 77.7842V82.5356H201.009V77.7775C201.004 77.2589 200.883 76.8756 200.645 76.6278C200.412 76.3795 200.047 76.2554 199.55 76.2554C199.146 76.2554 198.792 76.362 198.487 76.5745C198.183 76.7873 197.945 77.0663 197.775 77.4118V82.5356H196.531V72.3281H197.775V76.2157ZM207.133 82.6686C206.147 82.6686 205.345 82.3496 204.726 81.7114C204.108 81.069 203.799 80.2118 203.799 79.1398V78.9138C203.799 78.2005 203.935 77.5647 204.209 77.0064C204.487 76.4437 204.872 76.0052 205.365 75.6908C205.863 75.3717 206.4 75.2122 206.979 75.2122C207.924 75.2122 208.66 75.52 209.184 76.1359C209.708 76.7519 209.97 77.6332 209.97 78.7807V79.2927H205.042C205.06 80.0013 205.269 80.5752 205.668 81.0138C206.071 81.448 206.582 81.6651 207.201 81.6651C207.64 81.6651 208.012 81.5764 208.317 81.3993C208.621 81.2219 208.888 80.9873 209.117 80.6947L209.876 81.2795C209.267 82.2056 208.352 82.6686 207.133 82.6686ZM206.979 76.2223C206.477 76.2223 206.055 76.404 205.715 76.7674C205.374 77.1262 205.164 77.6313 205.083 78.2826H208.726V78.1893C208.691 77.5647 208.521 77.0818 208.216 76.7406C207.911 76.3951 207.499 76.2223 206.979 76.2223ZM214.932 76.4484C214.744 76.4173 214.54 76.4017 214.32 76.4017C213.504 76.4017 212.951 76.7452 212.66 77.4317V82.5356H211.416V75.3452H212.626L212.646 76.1756C213.054 75.5336 213.632 75.2122 214.381 75.2122C214.623 75.2122 214.807 75.2433 214.932 75.3052V76.4484Z" fill="white"/>
<path d="M121.871 40.8604C124.959 40.8604 128.237 41.8797 130.487 44.0708L127.882 48.2641C126.402 46.9932 124.185 45.9474 122.129 45.9474C117.532 45.9474 115.637 49.1578 115.637 52.4277C115.637 55.797 117.693 59.2589 122.129 59.2589C124.409 59.2589 126.663 58.0178 128.237 56.4623L131.129 60.5299C130.821 60.8443 130.49 61.1488 130.135 61.4433C128.156 63.085 125.441 64.3393 121.871 64.3393C114.478 64.3393 109.818 59.2887 109.818 52.5535C109.818 45.944 114.77 40.8604 121.871 40.8604Z" fill="white"/>
<path d="M143.655 40.8604C150.79 40.8604 155.676 45.944 155.676 52.4575C155.676 59.1299 150.79 64.3393 143.655 64.3393C136.52 64.3393 131.635 59.1299 131.635 52.4575C131.631 45.944 136.517 40.8604 143.655 40.8604ZM143.655 59.2556C147.288 59.2556 149.86 56.3332 149.86 52.4575C149.86 48.7407 147.288 45.944 143.655 45.944C140.022 45.944 137.451 48.7407 137.451 52.4575C137.451 56.3332 140.022 59.2556 143.655 59.2556Z" fill="white"/>
<path d="M158.753 41.2412H164.441L170.806 51.8521C171.707 53.3448 172.735 55.7277 172.735 55.7277H172.799C172.799 55.7277 172.541 53.2819 172.541 51.8521V41.2412H178.166V63.959H172.507L166.112 53.3779C165.211 51.8852 164.183 49.5022 164.183 49.5022H164.12C164.12 49.5022 164.378 51.9481 164.378 53.3779V63.959H158.753V41.2412Z" fill="white"/>
<path d="M188.596 46.0072H181.621V41.2412H201.196V46.0072H194.221V63.959H188.596V46.0072Z" fill="white"/>
<path d="M208.347 41.2412H214.261L222.072 63.959H216.286L214.873 59.193H207.705L206.322 63.959H200.536L208.347 41.2412ZM213.554 54.7448L212.268 50.3296C211.85 48.8998 211.338 46.4209 211.338 46.4209H211.274C211.274 46.4209 210.758 48.8998 210.343 50.3296L209.024 54.7448H213.554Z" fill="white"/>
<path d="M235.013 40.8604C238.1 40.8604 241.378 41.8797 243.628 44.0708L241.023 48.2641C239.544 46.9932 237.327 45.9474 235.271 45.9474C230.674 45.9474 228.779 49.1578 228.779 52.4277C228.779 55.797 230.835 59.2589 235.271 59.2589C237.551 59.2589 239.805 58.0178 241.378 56.4623L244.271 60.5299C242.246 62.5951 239.225 64.3426 235.013 64.3426C227.62 64.3426 222.959 59.292 222.959 52.5568C222.959 45.944 227.908 40.8604 235.013 40.8604Z" fill="white"/>
<path d="M253.79 46.0072H246.816V41.2412H266.39V46.0072H259.415V63.959H253.79V46.0072Z" fill="white"/>
<path fill-rule="evenodd" clip-rule="evenodd" d="M84.1361 50.1776C86.4029 49.5785 88.7333 50.9123 89.3393 53.153C89.9956 55.579 90.3271 58.0877 90.3237 60.6097C90.3237 76.5029 77.2453 89.4305 61.1669 89.4305C45.0918 89.4305 32.01 76.5029 32.01 60.6097C32.01 47.5364 40.9298 36.0783 53.7035 32.7421C55.9737 32.1463 58.3007 33.4868 58.9001 35.7307C59.4994 37.9747 58.1467 40.2749 55.8766 40.8674C46.8295 43.2272 40.5113 51.3459 40.5113 60.6097C40.5113 65.5743 42.316 70.1317 45.3061 73.6731C44.9679 72.6405 44.7804 71.5383 44.7804 70.3899C44.7804 64.492 49.6186 59.7128 55.5819 59.7128C61.5486 59.7128 66.3835 64.4953 66.3835 70.3899C66.3835 75.4636 62.7975 79.7033 57.9961 80.7889C59.0307 80.9478 60.0921 81.0305 61.1702 81.0305C72.5611 81.0305 81.8258 71.8726 81.8258 60.613C81.8258 58.8159 81.5914 57.0352 81.126 55.3208C80.52 53.0802 81.8693 50.7766 84.1361 50.1776ZM79.4152 41.6746C79.4152 45.5187 76.2628 48.6349 72.3738 48.6349C68.4848 48.6349 65.3324 45.5187 65.3324 41.6746C65.3324 37.8306 68.4848 34.7143 72.3738 34.7143C76.2628 34.7143 79.4152 37.8306 79.4152 41.6746Z" fill="#F58A1F"/>
</g>
<path d="M40.7679 253.768C-4.09529 251.135 -42.5988 285.369 -45.2321 330.232C-47.8653 375.095 -13.6312 413.599 31.232 416.232C76.0952 418.865 114.599 384.631 117.232 339.768C118.253 322.371 113.73 305.93 105.194 292.167" stroke="#E22338" stroke-width="12.411" stroke-linecap="round"/>
<path opacity="0.6" d="M39.4904 275.534C6.64829 273.607 -21.5382 298.668 -23.4659 331.51C-25.3936 364.352 -0.332486 392.539 32.5097 394.466C65.3518 396.394 93.5383 371.333 95.466 338.491C96.2135 325.755 92.9027 313.72 86.6536 303.644" stroke="url(#paint0_linear_3938_377)" stroke-width="9.28401" stroke-linecap="round"/>
<path opacity="0.4" d="M38.3186 295.498C16.5026 294.218 -2.22092 310.865 -3.50142 332.681C-4.78193 354.497 11.8654 373.221 33.6815 374.501C55.4976 375.782 74.221 359.134 75.5015 337.318C75.9981 328.859 73.7988 320.864 69.6477 314.171" stroke="url(#paint1_linear_3938_377)" stroke-width="6.18934" stroke-linecap="round"/>
<path opacity="0.2" d="M37.3518 311.971C24.6333 311.224 13.7176 320.93 12.9711 333.648C12.2246 346.367 21.9299 357.282 34.6484 358.029C47.367 358.775 58.2826 349.07 59.0291 336.352C59.3186 331.42 58.0365 326.759 55.6164 322.857" stroke="url(#paint2_linear_3938_377)" stroke-width="4.642" stroke-linecap="round"/>
<path d="M287.207 112.207C219.391 108.227 161.188 159.976 157.207 227.793C153.227 295.609 204.976 353.812 272.792 357.793C340.609 361.773 398.812 310.024 402.792 242.207C404.336 215.91 397.499 191.058 384.595 170.252" stroke="#F58A1F" stroke-width="18.7608" stroke-linecap="round"/>
<path opacity="0.6" d="M285.276 145.109C235.631 142.195 193.024 180.078 190.11 229.723C187.196 279.369 225.079 321.976 274.724 324.89C324.369 327.804 366.976 289.921 369.89 240.276C371.02 221.025 366.016 202.832 356.569 187.601" stroke="url(#paint3_linear_3938_377)" stroke-width="14.034" stroke-linecap="round"/>
<path opacity="0.4" d="M283.505 175.288C250.527 173.352 222.224 198.517 220.289 231.495C218.353 264.473 243.517 292.775 276.495 294.711C309.473 296.647 337.776 271.482 339.712 238.504C340.462 225.716 337.138 213.631 330.863 203.514" stroke="url(#paint4_linear_3938_377)" stroke-width="9.35597" stroke-linecap="round"/>
<path opacity="0.2" d="M282.043 200.189C262.818 199.06 246.317 213.731 245.189 232.957C244.06 252.183 258.731 268.683 277.957 269.811C297.183 270.94 313.683 256.269 314.811 237.043C315.249 229.588 313.311 222.543 309.653 216.644" stroke="url(#paint5_linear_3938_377)" stroke-width="7.01698" stroke-linecap="round"/>
<rect x="225" y="142.352" width="90" height="157.297" rx="9.72973" fill="white"/>
<rect x="240.405" y="150.46" width="58.3784" height="4.86486" rx="2.43243" fill="#FFCED3"/>
<rect x="231.486" y="162.622" width="76.2162" height="16.2162" rx="3.24324" fill="#E8EDF5"/>
<rect x="231.486" y="189.379" width="76.2162" height="16.2162" rx="3.24324" fill="#E8EDF5"/>
<rect x="231.486" y="216.136" width="76.2162" height="16.2162" rx="3.24324" fill="#E8EDF5"/>
<rect x="231.486" y="242.893" width="76.2162" height="16.2162" rx="3.24324" fill="#E8EDF5"/>
<rect x="231.486" y="276.946" width="76.2162" height="16.2162" rx="3.24324" fill="#E22338"/>
<rect x="231.486" y="185.324" width="25.1351" height="1.62162" rx="0.810811" fill="#BEC5D0"/>
<rect x="231.486" y="212.081" width="25.1351" height="1.62162" rx="0.810811" fill="#BEC5D0"/>
<rect x="231.486" y="238.838" width="25.1351" height="1.62162" rx="0.810811" fill="#BEC5D0"/>
<rect x="253.378" y="283.433" width="33.2432" height="3.24324" rx="1.62162" fill="white"/>
<rect x="44" y="142.352" width="90" height="157.297" rx="9.72973" fill="white"/>
<rect x="59.4054" y="150.46" width="58.3784" height="4.86486" rx="2.43243" fill="#D0DDFF"/>
<rect x="50.4865" y="189.379" width="76.2162" height="16.2162" rx="3.24324" fill="#E8EDF5"/>
<rect x="50.4865" y="216.136" width="76.2162" height="16.2162" rx="3.24324" fill="#E8EDF5"/>
<rect x="50.4865" y="242.893" width="76.2162" height="16.2162" rx="3.24324" fill="#E8EDF5"/>
<rect x="50.4865" y="276.136" width="76.2162" height="16.2162" rx="3.24324" fill="#E8EDF5"/>
<rect x="50.4865" y="260.729" width="4.86486" height="4.86486" rx="0.810811" fill="#E8EDF5"/>
<rect x="50.4865" y="276.946" width="76.2162" height="16.2162" rx="3.24324" fill="#5986FD"/>
<rect x="50.4865" y="185.324" width="25.1351" height="1.62162" rx="0.810811" fill="#BEC5D0"/>
<rect x="50.4865" y="162.622" width="76.2162" height="1.62162" rx="0.810811" fill="#BEC5D0"/>
<rect x="50.4865" y="165.865" width="50.2703" height="1.62162" rx="0.810811" fill="#BEC5D0"/>
<rect x="50.4865" y="169.108" width="70.5405" height="1.62162" rx="0.810811" fill="#BEC5D0"/>
<rect x="50.4865" y="172.352" width="61.6216" height="1.62162" rx="0.810811" fill="#BEC5D0"/>
<rect x="50.4865" y="175.595" width="73.7838" height="1.62162" rx="0.810811" fill="#BEC5D0"/>
<rect x="50.4865" y="212.081" width="25.1351" height="1.62162" rx="0.810811" fill="#BEC5D0"/>
<rect x="50.4865" y="238.838" width="25.1351" height="1.62162" rx="0.810811" fill="#BEC5D0"/>
<rect x="50.4865" y="272.081" width="25.1351" height="1.62162" rx="0.810811" fill="#BEC5D0"/>
<rect x="57.7838" y="262.352" width="41.3514" height="1.62162" rx="0.810811" fill="#BEC5D0"/>
<rect x="72.3784" y="283.433" width="33.2432" height="3.24324" rx="1.62162" fill="white"/>
<g filter="url(#filter0_d_3938_377)">
<rect x="124" y="124" width="111" height="194" rx="12" fill="white"/>
<rect x="143" y="134" width="72" height="6" rx="3" fill="#FFE3C2"/>
<rect x="132" y="157" width="94" height="20" rx="4" fill="#E8EDF5"/>
<rect x="132" y="179" width="94" height="20" rx="4" fill="#E8EDF5"/>
<rect x="132" y="201" width="94" height="20" rx="4" fill="#E8EDF5"/>
<rect x="132" y="223" width="94" height="20" rx="4" fill="#E8EDF5"/>
<rect x="132" y="263" width="6" height="6" rx="1" fill="#E8EDF5"/>
<rect x="132" y="271" width="6" height="6" rx="1" fill="#E8EDF5"/>
<rect x="132" y="290" width="94" height="20" rx="4" fill="#F58A1F"/>
<rect x="132" y="149" width="39" height="4" rx="2" fill="#BEC5D0"/>
<rect x="132" y="253" width="39" height="4" rx="2" fill="#BEC5D0"/>
<rect x="141" y="265" width="51" height="2" rx="1" fill="#BEC5D0"/>
<rect x="141" y="273" width="51" height="2" rx="1" fill="#BEC5D0"/>
<rect x="159" y="298" width="41" height="4" rx="2" fill="white"/>
</g>
<rect x="175" y="103" width="46.6667" height="46.6667" rx="23.3333" fill="#5986FD"/>
<path fill-rule="evenodd" clip-rule="evenodd" d="M189 114.334C189 112.861 190.194 111.667 191.667 111.667H205C206.473 111.667 207.667 112.861 207.667 114.334V138C207.667 139.473 206.473 140.667 205 140.667H191.667C190.194 140.667 189 139.473 189 138V114.334ZM195.667 114.567C195.667 114.146 196.008 113.804 196.43 113.804H200.237C200.658 113.804 201 114.146 201 114.567C201 114.988 200.658 115.33 200.237 115.33H196.43C196.008 115.33 195.667 114.988 195.667 114.567ZM198.097 137.92C197.675 137.92 197.333 138.261 197.333 138.683C197.333 139.104 197.675 139.446 198.097 139.446H198.904C199.325 139.446 199.667 139.104 199.667 138.683C199.667 138.261 199.325 137.92 198.904 137.92H198.097Z" fill="white"/>
<path fill-rule="evenodd" clip-rule="evenodd" d="M191 120C191 119.264 191.597 118.667 192.333 118.667H204.333C205.07 118.667 205.667 119.264 205.667 120V126.667C205.667 127.403 205.07 128 204.333 128H192.333C191.597 128 191 127.403 191 126.667V120ZM192.333 125.834C192.333 125.373 192.706 125 193.167 125H195.833C196.294 125 196.667 125.373 196.667 125.834C196.667 126.294 196.294 126.667 195.833 126.667H193.167C192.706 126.667 192.333 126.294 192.333 125.834ZM198.167 125C197.706 125 197.333 125.373 197.333 125.834C197.333 126.294 197.706 126.667 198.167 126.667H198.5C198.96 126.667 199.333 126.294 199.333 125.834C199.333 125.373 198.96 125 198.5 125H198.167Z" fill="#5986FD"/>
<rect x="193" y="131" width="10.6667" height="3.33333" rx="1.66667" fill="#5986FD"/>
<rect x="93.3333" y="288.333" width="46.6667" height="46.6667" rx="23.3333" fill="#E22338"/>
<path fill-rule="evenodd" clip-rule="evenodd" d="M127 313.328C125.529 314.179 123.821 314.666 122 314.666C117.162 314.666 113.127 311.23 112.2 306.666H104.667C103.194 306.666 102 307.86 102 309.333V320.666C102 322.139 103.194 323.333 104.667 323.333H124.333C125.806 323.333 127 322.139 127 320.666V313.328ZM104.833 319.666C104.373 319.666 104 320.039 104 320.499C104 320.96 104.373 321.333 104.833 321.333H108.5C108.96 321.333 109.333 320.96 109.333 320.499C109.333 320.039 108.96 319.666 108.5 319.666H104.833ZM110.333 320.499C110.333 320.039 110.706 319.666 111.167 319.666H111.833C112.294 319.666 112.667 320.039 112.667 320.499C112.667 320.96 112.294 321.333 111.833 321.333H111.167C110.706 321.333 110.333 320.96 110.333 320.499Z" fill="white"/>
<path fill-rule="evenodd" clip-rule="evenodd" d="M122 312.333C126.234 312.333 129.667 308.901 129.667 304.667C129.667 300.432 126.234 297 122 297C117.766 297 114.333 300.432 114.333 304.667C114.333 308.901 117.766 312.333 122 312.333ZM117.623 304.328C117.762 301.959 119.796 300.151 122.165 300.29C122.533 300.311 122.848 300.031 122.87 299.663C122.891 299.296 122.611 298.98 122.243 298.959C119.139 298.776 116.474 301.145 116.292 304.25C116.11 307.355 118.479 310.019 121.583 310.201C124.688 310.383 127.352 308.014 127.535 304.91C127.605 303.707 127.292 302.568 126.701 301.615C126.507 301.303 126.096 301.206 125.783 301.4C125.47 301.594 125.374 302.005 125.568 302.318C126.019 303.045 126.258 303.912 126.204 304.832C126.064 307.201 124.031 309.009 121.661 308.87C119.292 308.731 117.484 306.698 117.623 304.328ZM122.391 305H119.833C119.465 305 119.167 304.702 119.167 304.333C119.167 303.965 119.465 303.667 119.833 303.667H122.391L121.862 303.138C121.602 302.878 121.602 302.456 121.862 302.195C122.122 301.935 122.544 301.935 122.805 302.195L124.471 303.862L124.943 304.333L124.471 304.805L122.805 306.471C122.544 306.732 122.122 306.732 121.862 306.471C121.602 306.211 121.602 305.789 121.862 305.529L122.391 305Z" fill="white"/>
<g filter="url(#filter1_d_3938_377)">
<rect x="71.6667" y="235.333" width="26.6667" height="26.6667" rx="13.3333" fill="white"/>
<path fill-rule="evenodd" clip-rule="evenodd" d="M86.9964 245.808C84.4606 246.353 82.4887 248.416 82.0787 250.999C82.0525 251 82.0263 251 82.0001 251C79.2386 251 77.0001 248.761 77.0001 246C77.0001 243.239 79.2386 241 82.0001 241C84.6972 241 86.8956 243.136 86.9964 245.808Z" fill="#E22338"/>
<circle cx="88.3334" cy="252" r="5" fill="#E22338"/>
<path d="M88.3334 250V254" stroke="white" stroke-width="1.33333" stroke-linecap="round"/>
<path d="M86.3334 252H90.3334" stroke="white" stroke-width="1.33333" stroke-linecap="round"/>
<path d="M80.3334 246L83.6667 246" stroke="white" stroke-width="1.33333" stroke-linecap="round"/>
</g>
<g filter="url(#filter2_d_3938_377)">
<rect x="31" y="131" width="26.6667" height="26.6667" rx="13.3333" fill="white"/>
<path d="M37 142.667C37 142.298 37.2985 142 37.6667 142H40.3333C40.7015 142 41 142.298 41 142.667V148.667H37V142.667Z" fill="#5986FD"/>
<path d="M42.3333 140.667C42.3333 140.298 42.6318 140 43 140H45.6666C46.0348 140 46.3333 140.298 46.3333 140.667V148.667H42.3333V140.667Z" fill="#5986FD"/>
<path d="M47.6667 138.667C47.6667 138.298 47.9652 138 48.3334 138H51C51.3682 138 51.6667 138.298 51.6667 138.667V148.667H47.6667V138.667Z" fill="#5986FD"/>
<rect x="36" y="149.333" width="16.6667" height="1.33333" rx="0.666667" fill="#5986FD"/>
</g>
<g filter="url(#filter3_d_3938_377)">
<rect x="303.333" y="164.333" width="26.6667" height="26.6667" rx="13.3333" fill="white"/>
<path d="M313.75 179.667C312.808 179.667 312.003 179.349 311.335 178.715C310.667 178.081 310.333 177.305 310.333 176.389C310.333 175.604 310.577 174.904 311.063 174.29C311.55 173.675 312.187 173.283 312.974 173.111C313.232 172.185 313.75 171.435 314.527 170.861C315.303 170.287 316.183 170 317.167 170C318.378 170 319.406 170.41 320.25 171.231C321.094 172.052 321.516 173.051 321.515 174.229C322.23 174.31 322.822 174.609 323.294 175.128C323.765 175.647 324 176.254 324 176.948C324 177.703 323.728 178.345 323.184 178.874C322.641 179.403 321.981 179.667 321.205 179.667H313.75Z" fill="#F58A1F"/>
<circle cx="315.833" cy="182.499" r="1.83333" fill="#F58A1F"/>
<circle cx="312.167" cy="184.5" r="1.16667" fill="#F58A1F"/>
</g>
<rect x="217.333" y="201" width="46.6667" height="46.6667" rx="23.3333" fill="#F58A1F"/>
<path fill-rule="evenodd" clip-rule="evenodd" d="M248.667 221.834C248.667 223.583 244.488 225 239.333 225C234.179 225 230 223.583 230 221.834C230 220.085 234.179 218.667 239.333 218.667C244.488 218.667 248.667 220.085 248.667 221.834ZM230 223.334V223.5V226.334H230.013C230.004 226.389 230 226.444 230 226.5C230 228.249 234.179 229.667 239.333 229.667C240.072 229.667 240.79 229.638 241.479 229.583C242.818 227.812 244.942 226.667 247.333 226.667C247.776 226.667 248.209 226.706 248.63 226.781C248.654 226.689 248.667 226.595 248.667 226.5C248.667 226.444 248.662 226.389 248.654 226.334H248.667V223.502C248.663 225.25 244.486 226.667 239.333 226.667C234.179 226.667 230 225.249 230 223.5C230 223.444 230.004 223.389 230.013 223.334H230ZM240.272 235.985C240.577 237.074 241.128 238.062 241.862 238.883C241.057 238.959 240.21 239 239.333 239C234.179 239 230 237.583 230 235.834C230 235.778 230.004 235.722 230.013 235.667H230V232.834C230 234.583 234.179 236 239.333 236C239.65 236 239.963 235.995 240.272 235.985ZM240.51 231.309C240.181 232.142 240 233.05 240 234C240 234.109 240.002 234.218 240.007 234.326C239.785 234.331 239.56 234.334 239.333 234.334C234.179 234.334 230 232.916 230 231.167C230 231.111 230.004 231.056 230.013 231H230V228.167C230 229.916 234.179 231.334 239.333 231.334C239.732 231.334 240.124 231.325 240.51 231.309ZM230 228.167V228H230.013C230.004 228.056 230 228.111 230 228.167ZM230 232.834C230 232.778 230.004 232.722 230.013 232.667H230V232.834ZM248.654 223.334C248.662 223.388 248.667 223.443 248.667 223.498L248.667 223.334H248.654Z" fill="white"/>
<circle cx="247.333" cy="234" r="5" fill="white"/>
<path d="M245 234.172L246.548 235.666L250 232.333" stroke="#F58A1F" stroke-width="1.33333" stroke-linecap="round"/>
<path d="M235.667 216.333L235.667 210.333" stroke="white" stroke-width="1.33333" stroke-linecap="round"/>
<path d="M242.667 216.333L242.667 210.333" stroke="white" stroke-width="1.33333" stroke-linecap="round"/>
<path d="M234 211.667L235.667 210L237.333 211.667" stroke="white" stroke-width="1.33333" stroke-linecap="round"/>
<path d="M241 211.667L242.667 210L244.333 211.667" stroke="white" stroke-width="1.33333" stroke-linecap="round"/>
</g>
<defs>
<filter id="filter0_d_3938_377" x="94" y="94" width="171" height="254" filterUnits="userSpaceOnUse" color-interpolation-filters="sRGB">
<feFlood flood-opacity="0" result="BackgroundImageFix"/>
<feColorMatrix in="SourceAlpha" type="matrix" values="0 0 0 0 0 0 0 0 0 0 0 0 0 0 0 0 0 0 127 0" result="hardAlpha"/>
<feOffset/>
<feGaussianBlur stdDeviation="15"/>
<feComposite in2="hardAlpha" operator="out"/>
<feColorMatrix type="matrix" values="0 0 0 0 0.117647 0 0 0 0 0.133333 0 0 0 0 0.160784 0 0 0 0.2 0"/>
<feBlend mode="normal" in2="BackgroundImageFix" result="effect1_dropShadow_3938_377"/>
<feBlend mode="normal" in="SourceGraphic" in2="effect1_dropShadow_3938_377" result="shape"/>
</filter>
<filter id="filter1_d_3938_377" x="47.6667" y="211.333" width="74.6667" height="74.667" filterUnits="userSpaceOnUse" color-interpolation-filters="sRGB">
<feFlood flood-opacity="0" result="BackgroundImageFix"/>
<feColorMatrix in="SourceAlpha" type="matrix" values="0 0 0 0 0 0 0 0 0 0 0 0 0 0 0 0 0 0 127 0" result="hardAlpha"/>
<feOffset/>
<feGaussianBlur stdDeviation="12"/>
<feComposite in2="hardAlpha" operator="out"/>
<feColorMatrix type="matrix" values="0 0 0 0 0.886275 0 0 0 0 0.137255 0 0 0 0 0.219608 0 0 0 1 0"/>
<feBlend mode="normal" in2="BackgroundImageFix" result="effect1_dropShadow_3938_377"/>
<feBlend mode="normal" in="SourceGraphic" in2="effect1_dropShadow_3938_377" result="shape"/>
</filter>
<filter id="filter2_d_3938_377" x="7" y="107" width="74.6667" height="74.667" filterUnits="userSpaceOnUse" color-interpolation-filters="sRGB">
<feFlood flood-opacity="0" result="BackgroundImageFix"/>
<feColorMatrix in="SourceAlpha" type="matrix" values="0 0 0 0 0 0 0 0 0 0 0 0 0 0 0 0 0 0 127 0" result="hardAlpha"/>
<feOffset/>
<feGaussianBlur stdDeviation="12"/>
<feComposite in2="hardAlpha" operator="out"/>
<feColorMatrix type="matrix" values="0 0 0 0 0.34902 0 0 0 0 0.52549 0 0 0 0 0.992157 0 0 0 1 0"/>
<feBlend mode="normal" in2="BackgroundImageFix" result="effect1_dropShadow_3938_377"/>
<feBlend mode="normal" in="SourceGraphic" in2="effect1_dropShadow_3938_377" result="shape"/>
</filter>
<filter id="filter3_d_3938_377" x="279.333" y="140.333" width="74.6666" height="74.667" filterUnits="userSpaceOnUse" color-interpolation-filters="sRGB">
<feFlood flood-opacity="0" result="BackgroundImageFix"/>
<feColorMatrix in="SourceAlpha" type="matrix" values="0 0 0 0 0 0 0 0 0 0 0 0 0 0 0 0 0 0 127 0" result="hardAlpha"/>
<feOffset/>
<feGaussianBlur stdDeviation="12"/>
<feComposite in2="hardAlpha" operator="out"/>
<feColorMatrix type="matrix" values="0 0 0 0 0.960784 0 0 0 0 0.541176 0 0 0 0 0.121569 0 0 0 1 0"/>
<feBlend mode="normal" in2="BackgroundImageFix" result="effect1_dropShadow_3938_377"/>
<feBlend mode="normal" in="SourceGraphic" in2="effect1_dropShadow_3938_377" result="shape"/>
</filter>
<linearGradient id="paint0_linear_3938_377" x1="6.28439" y1="384.616" x2="72.8198" y2="287.908" gradientUnits="userSpaceOnUse">
<stop stop-color="#E22338"/>
<stop offset="1" stop-color="#E22338" stop-opacity="0"/>
</linearGradient>
<linearGradient id="paint1_linear_3938_377" x1="6.28437" y1="369.142" x2="71.2724" y2="305.702" gradientUnits="userSpaceOnUse">
<stop stop-color="#E22338"/>
<stop offset="1" stop-color="#E22338" stop-opacity="0"/>
</linearGradient>
<linearGradient id="paint2_linear_3938_377" x1="19.4367" y1="354.443" x2="50.3834" y2="318.08" gradientUnits="userSpaceOnUse">
<stop stop-color="#E22338"/>
<stop offset="1" stop-color="#E22338" stop-opacity="0"/>
</linearGradient>
<linearGradient id="paint3_linear_3938_377" x1="235.081" y1="310" x2="335.658" y2="163.813" gradientUnits="userSpaceOnUse">
<stop stop-color="#F58A1F"/>
<stop offset="1" stop-color="#F58A1F" stop-opacity="0"/>
</linearGradient>
<linearGradient id="paint4_linear_3938_377" x1="235.081" y1="286.61" x2="333.319" y2="190.712" gradientUnits="userSpaceOnUse">
<stop stop-color="#F58A1F"/>
<stop offset="1" stop-color="#F58A1F" stop-opacity="0"/>
</linearGradient>
<linearGradient id="paint5_linear_3938_377" x1="254.962" y1="264.391" x2="301.742" y2="209.424" gradientUnits="userSpaceOnUse">
<stop stop-color="#F58A1F"/>
<stop offset="1" stop-color="#F58A1F" stop-opacity="0"/>
</linearGradient>
<clipPath id="clip0_3938_377">
<rect width="360" height="360" rx="8" fill="white"/>
</clipPath>
<clipPath id="clip1_3938_377">
<rect width="235" height="58" fill="white" transform="translate(32 32)"/>
</clipPath>
</defs>
</svg>
