<svg width="360" height="360" viewBox="0 0 360 360" fill="none" xmlns="http://www.w3.org/2000/svg">
<g clip-path="url(#clip0_4254_23802)">
<rect width="360" height="360" rx="8" fill="#FFCF09"/>
<path fill-rule="evenodd" clip-rule="evenodd" d="M568.464 -35.8118L606.246 -52.2615L618 359.847H496.277L450.017 308.188L473.989 278.517L587.854 350.128L594.242 339.97L481.583 269.117L493.342 254.561L588.198 304.834L590.539 300.416L496.543 250.599L530.217 208.917L593.097 226.84L600.369 249.894L606.057 247.986L598.345 223.534L598.449 223.167L598.207 223.098L575.9 152.371L593.832 130.175L589.943 127.032L574.095 146.649L521.184 -21.1078L568.464 -35.8118ZM492.043 248.213L524.993 207.428L493.81 198.539L493.177 198.359L492.715 197.89L426.995 131.264L416.798 145.1L441.207 184.427L441.583 185.033V185.746V221.47L492.043 248.213ZM408.598 112.613L423.44 127.66L413.959 140.525L402.434 121.955L408.598 112.613ZM398.549 125.177L410.764 144.859L362.456 210.406L355.66 202.817L350.129 194.704L375.869 138.3L375.772 138.255L398.549 125.177ZM368.484 142.439L329.683 164.719L346.836 189.876L368.484 142.439ZM384.196 234.683L365.863 214.211L381.279 193.294L436.583 188.541V222.974V224.478L437.912 225.183L488.842 252.175L477.321 266.436L441.437 243.869L440.379 243.203L439.143 243.016L384.196 234.683ZM434.853 183.672L385.228 187.936L413.604 149.434L434.853 183.672ZM326.858 160.575L397.863 119.805L405.009 108.975L352.837 56.0836L290.198 84.5483L318.409 148.185L326.858 160.575ZM411.413 108.347L495.813 193.911L528.407 203.202L569.571 152.249L522.54 3.13528L482.996 51.4025L481.714 52.9671L479.916 52.0402L456.524 39.9794L411.413 108.347ZM452.055 37.6748L407.824 104.708L357.687 53.8799L427.056 22.3566L428.482 25.0236L428.849 25.7101L429.541 26.0669L452.055 37.6748ZM469.727 275.836L446.638 304.415L396.772 248.727L436.107 254.693L469.727 275.836ZM591.296 221.128L533.632 204.691L571.376 157.971L591.296 221.128ZM490.366 -98.8734L511.84 -30.7882L507.309 -28.8498L519.307 -0.807907L480.41 46.6692L432.524 21.9796L431.618 20.2838L486.063 -4.45747L481.099 -15.3824L425.949 9.67913L396.789 -44.8642L392.38 -42.5069L421.387 11.752L348.709 44.7786L297.293 -7.34644L293.733 -3.8352L343.86 46.9823L285.335 73.5775L224.596 -63.4317L213.626 -58.5683L216.677 -51.6866L216.62 -51.6914L206.373 67.6567L172.579 64.9023L182.136 -22.6359L177.165 -23.1786L167.593 64.496L134.797 61.823L146.872 -46.8724L141.903 -47.4245L137.378 -6.69778L67.5312 -17.5854L66.7611 -12.6451L136.826 -1.72354L129.811 61.4166L41.6064 54.2277L40.6316 66.188L128.485 73.3484L125.436 100.793L-25.7671 83.6963L-26.3288 88.6646L124.884 105.762L122.3 129.023L109.352 127.845L107.823 127.706L107.007 129.007L69.9957 188.045L-31 176.623V67.2154L38.6856 -73.9059L93.2587 -47.0669L123.484 -112L320.787 -17.6305L354.37 -95.5503L359.408 -49.6642L396.349 -53.9931L394.67 -66.1139L406.424 -68.7113V-85.161L490.366 -98.8734ZM75.5063 188.669L91.4529 163.232L118.197 165.952L115.175 193.155L75.5063 188.669ZM110.428 132.964L94.4147 158.507L118.749 160.983L121.748 133.994L110.428 132.964ZM126.728 134.447L123.724 161.488L157.118 164.885L160.219 137.494L126.728 134.447ZM165.199 137.947L162.093 165.391L195.758 168.816L198.838 141.008L165.199 137.947ZM123.172 166.458L156.556 169.854L153.429 197.481L120.143 193.717L123.172 166.458ZM161.531 170.36L158.397 198.043L192.099 201.855L195.208 173.785L161.531 170.36ZM190.778 213.782L157.047 209.967L155.348 224.983L189.109 228.851L190.778 213.782ZM118.818 205.644L152.079 209.405L150.38 224.414L117.156 220.607L118.818 205.644ZM203.818 141.461L258.877 146.471L255.803 174.923L200.733 169.322L203.818 141.461ZM197.067 202.417L200.182 174.291L255.266 179.894L252.159 208.648L197.067 202.417ZM195.747 214.344L250.87 220.578L249.232 235.74L194.077 229.42L195.747 214.344ZM188.559 233.821L154.786 229.951L151.894 255.499L185.738 259.299L188.559 233.821ZM116.604 225.577L149.818 229.382L146.925 254.941L113.755 251.217L116.604 225.577ZM113.203 256.187L146.363 259.91L135.051 359.847H101.687L113.203 256.187ZM140.083 359.847L151.331 260.467L185.187 264.268L174.603 359.847H140.083ZM193.527 234.39L190.706 259.856L245.956 266.059L248.695 240.711L193.527 234.39ZM190.156 264.826L245.419 271.03L235.823 359.847H179.633L190.156 264.826ZM257.127 209.21L260.24 180.4L330.741 187.571L345.969 209.905L346.192 210.232L346.456 210.527L373.607 240.847L372.14 243.079L352.877 221.569L351.353 219.866L349.082 219.61L257.127 209.21ZM263.857 146.924L260.777 175.429L327.059 182.171L308.188 154.495L307.881 154.045L307.66 153.547L306.442 150.799L263.857 146.924ZM62.9261 199.322L-31 188.699V359.847H6.45634L37.8677 244.826L38.4315 242.761L40.5583 243L108.787 250.66L111.636 225.007L55.1075 218.53L51.1673 218.079L53.2739 214.719L62.9261 199.322ZM42.1273 248.207L11.6394 359.847H37.5099L49.327 249.016L42.1273 248.207ZM54.2959 249.573L42.5383 359.847H96.656L108.234 255.629L54.2959 249.573ZM255.838 221.14L250.799 267.78L265.901 288.804L339.451 239.084L341.931 237.408L343.139 240.147L351.535 259.194L352.333 261.005L350.753 262.198L304.319 297.254C297.67 315.157 290.421 335.007 283.169 354.866L283.169 354.866L283.163 354.882L281.35 359.847H309.837C314.393 345.63 318.844 331.636 322.498 319.125L322.75 318.263L323.243 317.513L365.324 253.456L345.462 231.277L255.838 221.14ZM263.258 293.695L249.994 275.23L240.852 359.847H276.027C276.841 357.617 277.657 355.384 278.472 353.151L278.473 353.15L278.475 353.145C285.817 333.038 293.163 312.923 299.887 294.828L300.141 294.144L300.724 293.704L346.161 259.4L339.771 244.903L266.689 294.307L264.676 295.668L263.258 293.695ZM112.189 220.038L59.6168 214.014L68.4367 199.945L113.85 205.082L112.189 220.038ZM304.122 145.567L264.394 141.952L266.579 121.726L294.447 123.742L304.122 145.567ZM261.589 121.365L259.414 141.499L127.28 129.477L129.853 106.324L165.097 110.309L167.591 110.591L167.863 108.096L171.276 76.8359L205.346 79.6128L202.347 114.537L202.131 117.062L204.658 117.245L261.589 121.365ZM130.405 101.354L163.165 105.059L166.29 76.4296L133.471 73.7547L130.405 101.354ZM210.33 80.019L207.546 112.441L262.127 116.39L263.642 102.362L268.613 102.899L267.117 116.751L292.151 118.563L277.491 85.4928L210.33 80.019ZM211.356 68.0628L271.953 73.0017L220.833 -42.3108L211.356 68.0628ZM437.356 315.905L438.998 313.871L381.889 250.095L380.422 252.328L437.356 315.905ZM442.378 317.645L440.735 319.678L476.707 359.847H480.169L442.378 317.645ZM409.458 302.74L429.716 325.361L401.855 359.847H396.127L377.01 341.406L409.458 302.74ZM406.089 298.977L371.68 339.979L370.181 341.765L371.859 343.385L388.925 359.847H322.437C326.483 347.198 330.433 334.706 333.764 323.353L373.606 262.704L406.089 298.977ZM433.095 329.135L408.283 359.847H460.599L433.095 329.135ZM-27.0277 225.768L11.5933 237.023L14.3926 237.839L13.159 240.481L2.24442 263.857L1.43689 265.586L-0.444275 265.263L-30.6694 260.068L-29.8225 255.14L-1.47853 260.012L7.39495 241.007L-28.4266 230.568L-27.0277 225.768Z" fill="white" fill-opacity="0.3"/>
<g clip-path="url(#clip1_4254_23802)">
<path d="M30 46.1319C30 37.2225 37.2225 30 46.1319 30H119.868C128.778 30 136 37.2225 136 46.1319V119.868C136 128.778 128.778 136 119.868 136H46.1319C37.2225 136 30 128.778 30 119.868V46.1319Z" fill="#FF3000"/>
<path d="M109.842 117.781C105.11 117.781 101.85 115.188 101.85 107.153V105.425H107.108V107.154C107.108 111.426 108.265 112.595 109.842 112.595C111.419 112.595 112.524 111.426 112.524 109.442C112.524 106.95 112.156 105.578 108.475 102.984C104.163 99.9846 102.165 96.7808 102.165 92.6619C102.165 87.4244 105.004 84.2716 109.842 84.2716C113.207 84.2716 117.676 85.2888 117.676 93.8309V95.8146H112.418V93.8309C112.418 90.4753 111.314 89.3566 109.842 89.3566C108.265 89.3566 107.423 90.4753 107.423 92.4579C107.423 94.4915 107.896 96.1694 111.576 98.9159C116.152 102.323 117.781 105.018 117.781 109.441C117.781 113.865 115.678 117.781 109.842 117.781ZM91.9119 117.781C87.1802 117.781 83.9203 115.595 83.9203 107.153V105.425H89.1783V107.154C89.1783 111.426 90.3352 112.595 91.9119 112.595C93.4887 112.595 94.5938 111.426 94.5938 109.442C94.5938 106.95 94.2258 105.578 90.5449 102.984C86.2334 99.9846 84.2353 96.7808 84.2353 92.6619C84.2353 87.4244 87.0742 84.2716 91.9119 84.2716C95.2767 84.2716 99.7465 85.2888 99.7465 93.8309V95.8146H94.4889V93.8309C94.4889 90.4753 93.385 89.3566 91.9119 89.3566C90.3352 89.3566 89.4933 90.4753 89.4933 92.4579C89.4933 94.4915 89.9661 96.1694 93.6469 98.9159C98.2216 102.323 99.8513 105.018 99.8513 109.441C99.8513 113.865 97.7484 117.781 91.9119 117.781ZM109.842 81.7284C105.11 81.7284 101.85 79.1348 101.85 71.1004V69.3722H107.108V71.1011C107.108 75.3729 108.265 76.542 109.842 76.542C111.419 76.542 112.524 75.3729 112.524 73.3892C112.524 70.8974 112.156 69.5251 108.475 66.9313C104.163 63.9315 102.165 60.7277 102.165 56.609C102.165 51.3714 105.004 48.2188 109.842 48.2188C113.207 48.2188 117.676 49.2361 117.676 57.7781V59.7616H112.418V57.7781C112.418 54.4224 111.314 53.3035 109.842 53.3035C108.265 53.3035 107.423 54.4224 107.423 56.4049C107.423 58.4387 107.896 60.1165 111.576 62.863C116.152 66.2699 117.781 68.9652 117.781 73.3884C117.781 77.8117 115.678 81.7284 109.842 81.7284ZM91.9119 81.7284C87.1802 81.7284 83.9203 79.5417 83.9203 71.1004V69.3722H89.1783V71.1011C89.1783 75.3729 90.3352 76.542 91.9119 76.542C93.4887 76.542 94.5938 75.3729 94.5938 73.3892C94.5938 70.8974 94.2258 69.5251 90.5449 66.9313C86.2334 63.9315 84.2353 60.7277 84.2353 56.609C84.2353 51.3714 87.0742 48.2188 91.9119 48.2188C95.2767 48.2188 99.7465 49.2361 99.7465 57.7781V59.7616H94.4889V57.7781C94.4889 54.4224 93.385 53.3035 91.9119 53.3035C90.3352 53.3035 89.4933 54.4224 89.4933 56.4049C89.4933 58.4387 89.9661 60.1165 93.6469 62.863C98.2216 66.2699 99.8513 68.9652 99.8513 73.3884C99.8513 77.8117 97.7484 81.7284 91.9119 81.7284ZM53.4774 105.425H54.5293C56.8432 105.425 57.9991 104.306 57.9991 99.12V96.1705C57.9991 90.9841 56.8422 89.865 54.5293 89.865H53.4774V105.425ZM53.4774 117.272H48.2197V84.7793H54.5293C61.3649 84.7793 63.2578 88.5423 63.2578 95.6617V99.6276C63.2578 106.746 61.3649 110.51 54.5293 110.51H53.4774V117.272ZM54.5283 64.2874H53.4764V53.8122H54.5283C56.8942 53.8122 57.9981 54.5752 57.9981 58.134V59.9646C57.9991 63.5244 56.8952 64.2874 54.5283 64.2874ZM64.2557 81.2207L60.207 67.6944C62.1528 66.1181 63.2568 63.5244 63.2568 60.3215V57.7791C63.2568 51.8298 60.5229 48.7274 54.5283 48.7274H48.2188V81.2207H53.4764V69.3722H54.1604C54.4233 69.3722 54.7913 69.3722 55.3693 69.3211L58.5241 81.2196L64.2557 81.2207ZM70.2493 105.425L72.9311 89.865H73.3521L76.0328 105.425H70.2493ZM78.0316 117.272H83.2896L77.4528 84.7793H68.8305L62.9418 117.272H68.1994L69.4085 110.51H76.8747L78.0316 117.272ZM73.6671 81.7284C67.1995 81.7284 65.9906 76.9993 65.9906 71.2533V48.7274H71.4592V71.7114C71.4592 75.7288 72.1952 76.6434 73.6671 76.6434C75.139 76.6434 75.8749 75.7288 75.8749 71.7114V48.7274H81.3438V71.2541C81.3438 76.9993 80.1346 81.7284 73.6671 81.7284Z" fill="white"/>
</g>
<mask id="path-5-outside-1_4254_23802" maskUnits="userSpaceOnUse" x="202" y="162" width="74" height="86" fill="black">
<rect fill="white" x="202" y="162" width="74" height="86"/>
<path fill-rule="evenodd" clip-rule="evenodd" d="M244.916 230.454C259.763 227.679 271 214.652 271 199C271 181.327 256.673 167 239 167C221.327 167 207 181.327 207 199C207 214.652 218.237 227.679 233.084 230.454L239 239L244.916 230.454Z"/>
</mask>
<path fill-rule="evenodd" clip-rule="evenodd" d="M244.916 230.454C259.763 227.679 271 214.652 271 199C271 181.327 256.673 167 239 167C221.327 167 207 181.327 207 199C207 214.652 218.237 227.679 233.084 230.454L239 239L244.916 230.454Z" fill="#1DD189"/>
<path d="M244.916 230.454L243.998 225.539L241.976 225.917L240.805 227.608L244.916 230.454ZM233.084 230.454L237.195 227.608L236.024 225.917L234.002 225.539L233.084 230.454ZM239 239L234.889 241.846L239 247.784L243.111 241.846L239 239ZM266 199C266 212.201 256.522 223.198 243.998 225.539L245.835 235.369C263.004 232.16 276 217.103 276 199H266ZM239 172C253.912 172 266 184.088 266 199H276C276 178.565 259.435 162 239 162V172ZM212 199C212 184.088 224.088 172 239 172V162C218.565 162 202 178.565 202 199H212ZM234.002 225.539C221.478 223.198 212 212.201 212 199H202C202 217.103 214.996 232.16 232.165 235.369L234.002 225.539ZM243.111 236.154L237.195 227.608L228.973 233.3L234.889 241.846L243.111 236.154ZM240.805 227.608L234.889 236.154L243.111 241.846L249.027 233.3L240.805 227.608Z" fill="white" mask="url(#path-5-outside-1_4254_23802)"/>
<path d="M232.375 200.898L231.938 203.25C230.771 203.651 229.859 204.216 229.203 204.945C229.167 204.362 229.276 203.797 229.531 203.25C229.786 202.703 230.151 202.229 230.625 201.828C231.135 201.391 231.719 201.081 232.375 200.898ZM226.305 203.633C226.451 204.508 227.161 205.401 228.438 206.312C229.714 207.224 231.044 207.88 232.43 208.281C232.904 209.557 233.615 210.779 234.562 211.945C234.307 211.982 234.125 212 234.016 212C232.74 212 231.281 211.672 229.641 211.016C228.036 210.359 226.56 209.411 225.211 208.172C223.862 206.932 223.078 205.62 222.859 204.234L221.109 194.445C220.964 193.68 221.055 192.951 221.383 192.258C221.711 191.529 222.203 190.982 222.859 190.617C226.615 188.539 230.625 187.5 234.891 187.5C236.203 187.5 237.516 187.609 238.828 187.828C239.776 187.974 240.542 188.466 241.125 189.305C239.958 189.341 238.919 189.432 238.008 189.578C236.914 189.76 235.966 190.234 235.164 191C235.128 191 235.073 191 235 191C234.964 191 234.927 191 234.891 191C231.245 191 227.799 191.893 224.555 193.68C224.555 193.68 224.555 193.698 224.555 193.734C224.555 193.734 224.555 193.753 224.555 193.789L226.305 203.633ZM231.609 196.141C231.682 196.505 231.646 196.87 231.5 197.234C231.391 197.599 231.19 197.909 230.898 198.164C230.607 198.419 230.26 198.583 229.859 198.656C229.276 198.766 228.729 198.656 228.219 198.328C227.708 197.964 227.417 197.471 227.344 196.852C227.307 196.669 227.289 196.451 227.289 196.195C227.945 196.523 228.674 196.633 229.477 196.523C230.279 196.378 230.917 196.031 231.391 195.484C231.5 195.703 231.573 195.922 231.609 196.141ZM254.25 194.117C254.688 194.372 255.052 194.701 255.344 195.102C255.635 195.466 255.836 195.904 255.945 196.414C256.055 196.924 256.073 197.417 256 197.891L254.25 207.734C253.995 209.229 253.102 210.633 251.57 211.945C250.076 213.258 248.435 214.206 246.648 214.789C244.898 215.409 243.422 215.609 242.219 215.391C241.052 215.208 239.74 214.516 238.281 213.312C236.859 212.146 235.656 210.688 234.672 208.938C233.688 207.188 233.323 205.565 233.578 204.07L235.328 194.281C235.474 193.516 235.802 192.859 236.312 192.312C236.859 191.766 237.516 191.438 238.281 191.328C243.932 190.417 249.255 191.346 254.25 194.117ZM239.32 199.422C239.284 199.604 239.266 199.823 239.266 200.078C239.922 199.75 240.651 199.659 241.453 199.805C242.255 199.914 242.893 200.242 243.367 200.789C243.477 200.57 243.549 200.37 243.586 200.188C243.695 199.568 243.568 199.021 243.203 198.547C242.875 198.036 242.419 197.727 241.836 197.617C241.253 197.508 240.706 197.635 240.195 198C239.685 198.328 239.393 198.802 239.32 199.422ZM239.484 208.117C240.432 209.284 241.654 210.013 243.148 210.305C244.68 210.56 246.083 210.286 247.359 209.484C248.635 208.682 249.456 207.57 249.82 206.148C248.143 207.169 246.102 207.479 243.695 207.078C241.326 206.641 239.521 205.656 238.281 204.125C238.172 205.583 238.573 206.914 239.484 208.117ZM250.258 201.992C250.367 201.773 250.44 201.573 250.477 201.391C250.549 200.99 250.513 200.607 250.367 200.242C250.258 199.878 250.057 199.568 249.766 199.312C249.474 199.057 249.128 198.911 248.727 198.875C248.143 198.766 247.596 198.893 247.086 199.258C246.576 199.586 246.284 200.042 246.211 200.625C246.174 200.807 246.174 201.026 246.211 201.281C246.831 200.953 247.542 200.862 248.344 201.008C249.146 201.154 249.784 201.482 250.258 201.992Z" fill="white"/>
<mask id="path-8-outside-2_4254_23802" maskUnits="userSpaceOnUse" x="104" y="241" width="63" height="73" fill="black">
<rect fill="white" x="104" y="241" width="63" height="73"/>
<path fill-rule="evenodd" clip-rule="evenodd" d="M140.596 298.879C152.969 296.566 162.333 285.71 162.333 272.667C162.333 257.939 150.394 246 135.667 246C120.939 246 109 257.939 109 272.667C109 285.71 118.364 296.566 130.737 298.879L135.666 305.999L140.596 298.879Z"/>
</mask>
<path fill-rule="evenodd" clip-rule="evenodd" d="M140.596 298.879C152.969 296.566 162.333 285.71 162.333 272.667C162.333 257.939 150.394 246 135.667 246C120.939 246 109 257.939 109 272.667C109 285.71 118.364 296.566 130.737 298.879L135.666 305.999L140.596 298.879Z" fill="#FF8C05"/>
<path d="M140.596 298.879L139.831 294.783L138.146 295.098L137.171 296.507L140.596 298.879ZM130.737 298.879L134.162 296.507L133.187 295.098L131.502 294.783L130.737 298.879ZM135.666 305.999L132.241 308.371L135.666 313.319L139.092 308.371L135.666 305.999ZM158.167 272.667C158.167 283.667 150.268 292.832 139.831 294.783L141.362 302.974C155.67 300.3 166.5 287.753 166.5 272.667H158.167ZM135.667 250.167C148.093 250.167 158.167 260.24 158.167 272.667H166.5C166.5 255.638 152.695 241.833 135.667 241.833V250.167ZM113.167 272.667C113.167 260.24 123.24 250.167 135.667 250.167V241.833C118.638 241.833 104.833 255.638 104.833 272.667H113.167ZM131.502 294.783C121.065 292.832 113.167 283.667 113.167 272.667H104.833C104.833 287.752 115.663 300.3 129.971 302.974L131.502 294.783ZM139.092 303.628L134.162 296.507L127.311 301.25L132.241 308.371L139.092 303.628ZM137.171 296.507L132.241 303.628L139.092 308.371L144.022 301.25L137.171 296.507Z" fill="white" mask="url(#path-8-outside-2_4254_23802)"/>
<path d="M134.479 261.934C134.965 264.82 135.208 266.78 135.208 267.813C135.208 268.967 134.92 269.97 134.342 270.821C133.795 271.641 133.036 272.233 132.064 272.598L132.656 283.444C132.687 283.748 132.58 284.006 132.337 284.219C132.124 284.462 131.866 284.584 131.562 284.584H128.646C128.342 284.584 128.069 284.462 127.825 284.219C127.613 284.006 127.522 283.748 127.552 283.444L128.144 272.598C127.506 272.355 126.944 272.021 126.458 271.595C126.003 271.14 125.638 270.593 125.365 269.955C125.122 269.317 125 268.603 125 267.813C125 266.78 125.243 264.82 125.729 261.934C125.79 261.478 126.155 261.251 126.823 261.251C127.491 261.251 127.856 261.494 127.917 261.98V268.451C127.947 268.512 128.069 268.542 128.281 268.542C128.494 268.542 128.615 268.512 128.646 268.451C128.676 268.117 128.722 267.418 128.783 266.355C128.843 265.261 128.889 264.274 128.919 263.392C128.98 262.481 129.01 262.01 129.01 261.98C129.071 261.494 129.436 261.251 130.104 261.251C130.773 261.251 131.137 261.494 131.198 261.98C131.228 262.223 131.35 264.38 131.562 268.451C131.593 268.512 131.714 268.542 131.927 268.542C132.14 268.542 132.261 268.512 132.292 268.451V261.98C132.352 261.494 132.717 261.251 133.385 261.251C134.054 261.251 134.418 261.478 134.479 261.934ZM139.902 274.968C138.565 273.904 137.639 272.72 137.122 271.413C136.606 270.107 136.484 268.876 136.758 267.722C137.062 266.567 137.532 265.489 138.17 264.486C138.808 263.484 139.553 262.694 140.403 262.116C141.285 261.539 142.105 261.251 142.864 261.251C143.168 261.251 143.426 261.357 143.639 261.57C143.852 261.782 143.958 262.04 143.958 262.344V283.49C143.958 283.794 143.852 284.052 143.639 284.265C143.426 284.477 143.168 284.584 142.864 284.584H140.312C139.978 284.584 139.705 284.462 139.492 284.219C139.279 283.976 139.188 283.703 139.219 283.399L139.902 274.968Z" fill="white"/>
<mask id="path-11-outside-3_4254_23802" maskUnits="userSpaceOnUse" x="276" y="48" width="63" height="73" fill="black">
<rect fill="white" x="276" y="48" width="63" height="73"/>
<path fill-rule="evenodd" clip-rule="evenodd" d="M312.596 105.879C324.969 103.566 334.333 92.71 334.333 79.6667C334.333 64.9391 322.394 53 307.667 53C292.939 53 281 64.9391 281 79.6667C281 92.7099 290.364 103.566 302.737 105.879L307.666 112.999L312.596 105.879Z"/>
</mask>
<path fill-rule="evenodd" clip-rule="evenodd" d="M312.596 105.879C324.969 103.566 334.333 92.71 334.333 79.6667C334.333 64.9391 322.394 53 307.667 53C292.939 53 281 64.9391 281 79.6667C281 92.7099 290.364 103.566 302.737 105.879L307.666 112.999L312.596 105.879Z" fill="#73BE39"/>
<path d="M312.596 105.879L311.831 101.783L310.146 102.098L309.171 103.507L312.596 105.879ZM302.737 105.879L306.162 103.507L305.187 102.098L303.502 101.783L302.737 105.879ZM307.666 112.999L304.241 115.371L307.666 120.319L311.092 115.371L307.666 112.999ZM330.167 79.6667C330.167 90.6675 322.268 99.8322 311.831 101.783L313.362 109.974C327.67 107.3 338.5 94.7526 338.5 79.6667H330.167ZM307.667 57.1666C320.093 57.1666 330.167 67.2402 330.167 79.6667H338.5C338.5 62.6379 324.695 48.8334 307.667 48.8334V57.1666ZM285.167 79.6667C285.167 67.2402 295.24 57.1666 307.667 57.1666V48.8334C290.638 48.8334 276.833 62.6379 276.833 79.6667H285.167ZM303.502 101.783C293.065 99.832 285.167 90.6673 285.167 79.6667H276.833C276.833 94.7524 287.663 107.3 301.971 109.974L303.502 101.783ZM311.092 110.628L306.162 103.507L299.311 108.25L304.241 115.371L311.092 110.628ZM309.171 103.507L304.241 110.628L311.092 115.371L316.022 108.25L309.171 103.507Z" fill="white" mask="url(#path-11-outside-3_4254_23802)"/>
<path d="M315.938 86.4769C316.242 86.8111 316.303 87.1909 316.121 87.6162C315.938 88.0112 315.619 88.2087 315.164 88.2087H308.92V89.3024L310.287 91.5355C310.409 91.7785 310.394 92.0064 310.242 92.219C310.12 92.4621 309.923 92.5836 309.649 92.5836H305.275C305.001 92.5836 304.788 92.4621 304.636 92.219C304.515 92.0064 304.515 91.7785 304.636 91.5355L306.004 89.3024V88.2087H299.76C299.305 88.2087 298.986 88.0112 298.803 87.6162C298.621 87.1909 298.682 86.8111 298.986 86.4769L302.631 82.3754H301.219C300.763 82.3754 300.444 82.1779 300.262 81.783C300.079 81.388 300.125 81.0234 300.398 80.6892L303.998 76.5421H302.677C302.221 76.5421 301.902 76.3295 301.72 75.9041C301.538 75.5092 301.598 75.1446 301.902 74.8104L306.915 69.4784C307.006 69.3873 307.097 69.3265 307.189 69.2961C307.28 69.2657 307.371 69.2505 307.462 69.2505C307.553 69.2505 307.644 69.2657 307.735 69.2961C307.827 69.3265 307.918 69.3873 308.009 69.4784L313.022 74.8104C313.326 75.1446 313.386 75.5092 313.204 75.9041C313.022 76.3295 312.703 76.5421 312.247 76.5421H310.925L314.526 80.6892C314.799 81.0234 314.845 81.388 314.662 81.783C314.48 82.1779 314.161 82.3754 313.705 82.3754H312.293L315.938 86.4769Z" fill="white"/>
<mask id="path-14-outside-4_4254_23802" maskUnits="userSpaceOnUse" x="267.111" y="276" width="45" height="52" fill="black">
<rect fill="white" x="267.111" y="276" width="45" height="52"/>
<path fill-rule="evenodd" clip-rule="evenodd" d="M292.755 316.896C301.622 315.239 308.333 307.459 308.333 298.111C308.333 287.556 299.777 279 289.222 279C278.668 279 270.111 287.556 270.111 298.111C270.111 307.459 276.822 315.239 285.689 316.896L289.222 321.999L292.755 316.896Z"/>
</mask>
<path fill-rule="evenodd" clip-rule="evenodd" d="M292.755 316.896C301.622 315.239 308.333 307.459 308.333 298.111C308.333 287.556 299.777 279 289.222 279C278.668 279 270.111 287.556 270.111 298.111C270.111 307.459 276.822 315.239 285.689 316.896L289.222 321.999L292.755 316.896Z" fill="#9941C8"/>
<path d="M292.755 316.896L292.207 313.961L290.999 314.187L290.3 315.197L292.755 316.896ZM285.689 316.896L288.144 315.196L287.445 314.187L286.238 313.961L285.689 316.896ZM289.222 321.999L286.767 323.699L289.222 327.245L291.677 323.699L289.222 321.999ZM305.347 298.111C305.347 305.995 299.686 312.563 292.207 313.961L293.304 319.832C303.558 317.915 311.32 308.923 311.32 298.111H305.347ZM289.222 281.986C298.128 281.986 305.347 289.205 305.347 298.111H311.32C311.32 285.907 301.426 276.014 289.222 276.014V281.986ZM273.097 298.111C273.097 289.205 280.317 281.986 289.222 281.986V276.014C277.018 276.014 267.125 285.907 267.125 298.111H273.097ZM286.238 313.961C278.758 312.563 273.097 305.995 273.097 298.111H267.125C267.125 308.922 274.887 317.915 285.14 319.831L286.238 313.961ZM291.677 320.3L288.144 315.196L283.234 318.596L286.767 323.699L291.677 320.3ZM290.3 315.197L286.767 320.3L291.677 323.699L295.21 318.596L290.3 315.197Z" fill="white" mask="url(#path-14-outside-4_4254_23802)"/>
<path d="M292.969 294.538H296.104V303.422C296.104 304.14 295.843 304.75 295.32 305.251C294.819 305.773 294.21 306.035 293.491 306.035H284.085C283.366 306.035 282.746 305.773 282.223 305.251C281.723 304.75 281.472 304.14 281.472 303.422V294.538H284.608V293.493C284.608 292.339 285.01 291.359 285.816 290.554C286.643 289.726 287.634 289.313 288.788 289.313C289.942 289.313 290.922 289.726 291.727 290.554C292.555 291.359 292.969 292.339 292.969 293.493V294.538ZM286.698 293.493V294.538H290.878V293.493C290.878 292.927 290.671 292.437 290.258 292.023C289.844 291.61 289.354 291.403 288.788 291.403C288.222 291.403 287.732 291.61 287.318 292.023C286.905 292.437 286.698 292.927 286.698 293.493ZM291.368 297.184C291.521 297.336 291.706 297.412 291.923 297.412C292.141 297.412 292.326 297.336 292.479 297.184C292.631 297.031 292.707 296.846 292.707 296.628C292.707 296.411 292.631 296.226 292.479 296.073C292.326 295.921 292.141 295.845 291.923 295.845C291.706 295.845 291.521 295.921 291.368 296.073C291.216 296.226 291.14 296.411 291.14 296.628C291.14 296.846 291.216 297.031 291.368 297.184ZM285.097 297.184C285.25 297.336 285.435 297.412 285.653 297.412C285.87 297.412 286.055 297.336 286.208 297.184C286.36 297.031 286.437 296.846 286.437 296.628C286.437 296.411 286.36 296.226 286.208 296.073C286.055 295.921 285.87 295.845 285.653 295.845C285.435 295.845 285.25 295.921 285.097 296.073C284.945 296.226 284.869 296.411 284.869 296.628C284.869 296.846 284.945 297.031 285.097 297.184Z" fill="white"/>
<mask id="path-17-outside-5_4254_23802" maskUnits="userSpaceOnUse" x="42" y="169" width="45" height="52" fill="black">
<rect fill="white" x="42" y="169" width="45" height="52"/>
<path fill-rule="evenodd" clip-rule="evenodd" d="M67.6438 209.896C76.5108 208.239 83.2221 200.459 83.2221 191.111C83.2221 180.556 74.6658 172 64.1111 172C53.5563 172 45 180.556 45 191.111C45 200.459 51.711 208.239 60.5778 209.896L64.1108 214.999L67.6438 209.896Z"/>
</mask>
<path fill-rule="evenodd" clip-rule="evenodd" d="M67.6438 209.896C76.5108 208.239 83.2221 200.459 83.2221 191.111C83.2221 180.556 74.6658 172 64.1111 172C53.5563 172 45 180.556 45 191.111C45 200.459 51.711 208.239 60.5778 209.896L64.1108 214.999L67.6438 209.896Z" fill="#73BE39"/>
<path d="M67.6438 209.896L67.0952 206.961L65.8878 207.187L65.1887 208.197L67.6438 209.896ZM60.5778 209.896L63.0329 208.196L62.3338 207.187L61.1265 206.961L60.5778 209.896ZM64.1108 214.999L61.6557 216.699L64.1108 220.245L66.5659 216.699L64.1108 214.999ZM80.2361 191.111C80.2361 198.995 74.575 205.563 67.0952 206.961L68.1924 212.832C78.4466 210.915 86.2082 201.923 86.2082 191.111H80.2361ZM64.1111 174.986C73.0167 174.986 80.2361 182.205 80.2361 191.111H86.2082C86.2082 178.907 76.315 169.014 64.1111 169.014V174.986ZM47.9861 191.111C47.9861 182.205 55.2055 174.986 64.1111 174.986V169.014C51.9072 169.014 42.0139 178.907 42.0139 191.111H47.9861ZM61.1265 206.961C53.6469 205.563 47.9861 198.995 47.9861 191.111H42.0139C42.0139 201.922 49.7752 210.915 60.0291 212.831L61.1265 206.961ZM66.5659 213.3L63.0329 208.196L58.1227 211.596L61.6557 216.699L66.5659 213.3ZM65.1887 208.197L61.6557 213.3L66.5659 216.699L70.0989 211.596L65.1887 208.197Z" fill="white" mask="url(#path-17-outside-5_4254_23802)"/>
<path d="M69.739 194.658C69.9568 194.898 70.0003 195.17 69.8697 195.475C69.739 195.758 69.5104 195.899 69.1838 195.899H64.7094V196.683L65.6892 198.283C65.7763 198.458 65.7654 198.621 65.6565 198.773C65.5694 198.947 65.4279 199.035 65.2319 199.035H62.0966C61.9006 199.035 61.7482 198.947 61.6393 198.773C61.5522 198.621 61.5522 198.458 61.6393 198.283L62.6191 196.683V195.899H58.1447C57.8181 195.899 57.5895 195.758 57.4588 195.475C57.3282 195.17 57.3717 194.898 57.5895 194.658L60.2023 191.719H59.1898C58.8632 191.719 58.6346 191.577 58.5039 191.294C58.3733 191.011 58.406 190.75 58.6019 190.51L61.1821 187.538H60.2349C59.9083 187.538 59.6797 187.386 59.5491 187.081C59.4184 186.798 59.462 186.537 59.6797 186.297L63.2723 182.476C63.3376 182.411 63.403 182.367 63.4683 182.345C63.5336 182.323 63.5989 182.313 63.6643 182.313C63.7296 182.313 63.7949 182.323 63.8602 182.345C63.9255 182.367 63.9909 182.411 64.0562 182.476L67.6488 186.297C67.8665 186.537 67.9101 186.798 67.7794 187.081C67.6488 187.386 67.4202 187.538 67.0936 187.538H66.1464L68.7266 190.51C68.9225 190.75 68.9552 191.011 68.8246 191.294C68.6939 191.577 68.4653 191.719 68.1387 191.719H67.1262L69.739 194.658Z" fill="white"/>
<mask id="path-20-outside-6_4254_23802" maskUnits="userSpaceOnUse" x="151" y="87" width="32" height="37" fill="black">
<rect fill="white" x="151" y="87" width="32" height="37"/>
<path fill-rule="evenodd" clip-rule="evenodd" d="M169.534 115.999C175.618 114.862 180.222 109.524 180.222 103.111C180.222 95.87 174.352 90 167.111 90C159.87 90 154 95.87 154 103.111C154 109.524 158.604 114.862 164.687 115.999L167.111 119.499L169.534 115.999Z"/>
</mask>
<path fill-rule="evenodd" clip-rule="evenodd" d="M169.534 115.999C175.618 114.862 180.222 109.524 180.222 103.111C180.222 95.87 174.352 90 167.111 90C159.87 90 154 95.87 154 103.111C154 109.524 158.604 114.862 164.687 115.999L167.111 119.499L169.534 115.999Z" fill="#FF8C05"/>
<path d="M169.534 115.999L169.158 113.985L168.33 114.14L167.85 114.833L169.534 115.999ZM164.687 115.999L166.372 114.832L165.892 114.14L165.064 113.985L164.687 115.999ZM167.111 119.499L165.427 120.665L167.111 123.098L168.795 120.665L167.111 119.499ZM178.174 103.111C178.174 108.52 174.29 113.026 169.158 113.985L169.911 118.012C176.946 116.698 182.271 110.528 182.271 103.111H178.174ZM167.111 92.0486C173.221 92.0486 178.174 97.0014 178.174 103.111H182.271C182.271 94.7386 175.484 87.9514 167.111 87.9514V92.0486ZM156.049 103.111C156.049 97.0014 161.001 92.0486 167.111 92.0486V87.9514C158.739 87.9514 151.951 94.7386 151.951 103.111H156.049ZM165.064 113.985C159.932 113.026 156.049 108.52 156.049 103.111H151.951C151.951 110.528 157.276 116.697 164.311 118.012L165.064 113.985ZM168.795 118.333L166.372 114.832L163.003 117.165L165.427 120.665L168.795 118.333ZM167.85 114.833L165.427 118.333L168.795 120.665L171.219 117.165L167.85 114.833Z" fill="white" mask="url(#path-20-outside-6_4254_23802)"/>
<path d="M166.396 97.4924C166.635 98.9115 166.755 99.8749 166.755 100.383C166.755 100.95 166.613 101.443 166.329 101.862C166.06 102.265 165.687 102.556 165.209 102.735L165.5 108.068C165.515 108.218 165.463 108.345 165.343 108.449C165.239 108.569 165.112 108.628 164.962 108.628H163.528C163.379 108.628 163.245 108.569 163.125 108.449C163.02 108.345 162.976 108.218 162.991 108.068L163.282 102.735C162.968 102.616 162.692 102.452 162.453 102.243C162.229 102.018 162.05 101.75 161.915 101.436C161.796 101.122 161.736 100.771 161.736 100.383C161.736 99.8749 161.855 98.9115 162.094 97.4924C162.124 97.2683 162.303 97.1563 162.632 97.1563C162.961 97.1563 163.14 97.2758 163.17 97.5148V100.696C163.185 100.726 163.245 100.741 163.349 100.741C163.454 100.741 163.513 100.726 163.528 100.696C163.543 100.532 163.566 100.189 163.596 99.6658C163.625 99.128 163.648 98.6426 163.663 98.2094C163.693 97.7613 163.708 97.5297 163.708 97.5148C163.737 97.2758 163.917 97.1563 164.245 97.1563C164.574 97.1563 164.753 97.2758 164.783 97.5148C164.798 97.6343 164.858 98.6949 164.962 100.696C164.977 100.726 165.037 100.741 165.142 100.741C165.246 100.741 165.306 100.726 165.321 100.696V97.5148C165.351 97.2758 165.53 97.1563 165.859 97.1563C166.187 97.1563 166.366 97.2683 166.396 97.4924ZM169.063 103.901C168.405 103.378 167.95 102.795 167.696 102.153C167.442 101.511 167.382 100.906 167.517 100.338C167.666 99.7704 167.898 99.2401 168.211 98.7471C168.525 98.2542 168.891 97.8658 169.309 97.582C169.742 97.2982 170.146 97.1563 170.519 97.1563C170.669 97.1563 170.795 97.2086 170.9 97.3131C171.005 97.4177 171.057 97.5447 171.057 97.694V108.091C171.057 108.24 171.005 108.367 170.9 108.471C170.795 108.576 170.669 108.628 170.519 108.628H169.264C169.1 108.628 168.966 108.569 168.861 108.449C168.757 108.33 168.712 108.195 168.727 108.046L169.063 103.901Z" fill="white"/>
<mask id="path-23-outside-7_4254_23802" maskUnits="userSpaceOnUse" x="177" y="296" width="32" height="37" fill="black">
<rect fill="white" x="177" y="296" width="32" height="37"/>
<path fill-rule="evenodd" clip-rule="evenodd" d="M195.534 324.999C201.618 323.862 206.222 318.524 206.222 312.111C206.222 304.87 200.352 299 193.111 299C185.87 299 180 304.87 180 312.111C180 318.524 184.604 323.862 190.687 324.999L193.111 328.499L195.534 324.999Z"/>
</mask>
<path fill-rule="evenodd" clip-rule="evenodd" d="M195.534 324.999C201.618 323.862 206.222 318.524 206.222 312.111C206.222 304.87 200.352 299 193.111 299C185.87 299 180 304.87 180 312.111C180 318.524 184.604 323.862 190.687 324.999L193.111 328.499L195.534 324.999Z" fill="#FF3000"/>
<path d="M195.534 324.999L195.158 322.985L194.33 323.14L193.85 323.833L195.534 324.999ZM190.687 324.999L192.372 323.832L191.892 323.14L191.064 322.985L190.687 324.999ZM193.111 328.499L191.427 329.665L193.111 332.098L194.795 329.665L193.111 328.499ZM204.174 312.111C204.174 317.52 200.29 322.026 195.158 322.985L195.911 327.012C202.946 325.698 208.271 319.528 208.271 312.111H204.174ZM193.111 301.049C199.221 301.049 204.174 306.001 204.174 312.111H208.271C208.271 303.739 201.484 296.951 193.111 296.951V301.049ZM182.049 312.111C182.049 306.001 187.001 301.049 193.111 301.049V296.951C184.739 296.951 177.951 303.739 177.951 312.111H182.049ZM191.064 322.985C185.932 322.026 182.049 317.52 182.049 312.111H177.951C177.951 319.528 183.276 325.697 190.311 327.012L191.064 322.985ZM194.795 327.333L192.372 323.832L189.003 326.165L191.427 329.665L194.795 327.333ZM193.85 323.833L191.427 327.333L194.795 329.665L197.219 326.165L193.85 323.833Z" fill="white" mask="url(#path-23-outside-7_4254_23802)"/>
<path d="M199.642 310.817C199.343 310.817 199.089 310.921 198.88 311.13C198.671 311.34 198.566 311.594 198.566 311.892C198.566 312.191 198.671 312.445 198.88 312.654C199.089 312.863 199.343 312.968 199.642 312.968V315.119C199.642 315.418 199.537 315.672 199.328 315.881C199.119 316.09 198.865 316.194 198.566 316.194H187.811C187.513 316.194 187.259 316.09 187.05 315.881C186.84 315.672 186.736 315.418 186.736 315.119V312.968C187.035 312.968 187.289 312.863 187.498 312.654C187.707 312.445 187.811 312.191 187.811 311.892C187.811 311.594 187.707 311.34 187.498 311.13C187.289 310.921 187.035 310.817 186.736 310.817V308.666C186.736 308.367 186.84 308.113 187.05 307.904C187.259 307.695 187.513 307.59 187.811 307.59H198.566C198.865 307.59 199.119 307.695 199.328 307.904C199.537 308.113 199.642 308.367 199.642 308.666V310.817Z" fill="white"/>
<path d="M272.198 180.258L272.192 180.264L266.535 185.921L266.535 185.921C265.597 186.858 264.326 187.385 263 187.385C261.674 187.385 260.403 186.858 259.465 185.921L259.465 185.921L253.808 180.265L253.808 180.264C252.308 178.764 251.465 176.729 251.465 174.608C251.465 172.487 252.307 170.451 253.808 168.95L272.198 180.258ZM272.198 180.258C273.613 178.832 274.441 176.925 274.515 174.917C274.589 172.909 273.905 170.946 272.599 169.419C271.292 167.892 269.459 166.912 267.463 166.675C265.926 166.492 264.378 166.76 263.004 167.432C261.722 166.799 260.286 166.518 258.844 166.631C256.942 166.779 255.156 167.601 253.808 168.95L272.198 180.258Z" fill="#FF3000" stroke="white" stroke-width="4"/>
<circle cx="148" cy="212" r="6" fill="white" fill-opacity="0.6"/>
<circle cx="108" cy="227" r="6" fill="white" fill-opacity="0.6"/>
<circle cx="65" cy="282" r="6" fill="white" fill-opacity="0.6"/>
<circle cx="116" cy="332" r="6" fill="white" fill-opacity="0.6"/>
<circle cx="233" cy="297" r="6" fill="white" fill-opacity="0.6"/>
<circle cx="253" cy="332" r="6" fill="white" fill-opacity="0.6"/>
<circle cx="273" cy="235" r="6" fill="white" fill-opacity="0.6"/>
<circle cx="288" cy="135" r="6" fill="white" fill-opacity="0.6"/>
<circle cx="223" cy="55" r="6" fill="white" fill-opacity="0.6"/>
<circle cx="148" cy="155" r="6" fill="white" fill-opacity="0.6"/>
<circle cx="23" cy="155" r="6" fill="white" fill-opacity="0.6"/>
<circle cx="324" cy="197" r="6" fill="white" fill-opacity="0.6"/>
</g>
<defs>
<clipPath id="clip0_4254_23802">
<rect width="360" height="360" rx="8" fill="white"/>
</clipPath>
<clipPath id="clip1_4254_23802">
<rect width="106" height="106" fill="white" transform="translate(30 30)"/>
</clipPath>
</defs>
</svg>
