<svg width="360" height="360" viewBox="0 0 360 360" fill="none" xmlns="http://www.w3.org/2000/svg">
<g clip-path="url(#clip0_5026_51196)">
<rect width="360" height="360" rx="8" fill="#242729"/>
<path d="M142 142V141.25C141.586 141.25 141.25 141.586 141.25 142H142ZM344.75 -6.5C344.75 -6.91421 344.414 -7.25 344 -7.25C343.586 -7.25 343.25 -6.91421 343.25 -6.5H344H344.75ZM142.75 299.506C142.75 299.092 142.414 298.756 142 298.756C141.586 298.756 141.25 299.092 141.25 299.506H142H142.75ZM141.25 296.544C141.25 296.958 141.586 297.294 142 297.294C142.414 297.294 142.75 296.958 142.75 296.544H142H141.25ZM142.75 295.556C142.75 295.142 142.414 294.806 142 294.806C141.586 294.806 141.25 295.142 141.25 295.556H142H142.75ZM141.25 292.594C141.25 293.008 141.586 293.344 142 293.344C142.414 293.344 142.75 293.008 142.75 292.594H142H141.25ZM142.75 291.606C142.75 291.192 142.414 290.856 142 290.856C141.586 290.856 141.25 291.192 141.25 291.606H142H142.75ZM141.25 288.644C141.25 289.058 141.586 289.394 142 289.394C142.414 289.394 142.75 289.058 142.75 288.644H142H141.25ZM142.75 287.656C142.75 287.242 142.414 286.906 142 286.906C141.586 286.906 141.25 287.242 141.25 287.656H142H142.75ZM141.25 284.694C141.25 285.108 141.586 285.444 142 285.444C142.414 285.444 142.75 285.108 142.75 284.694H142H141.25ZM142.75 283.706C142.75 283.292 142.414 282.956 142 282.956C141.586 282.956 141.25 283.292 141.25 283.706H142H142.75ZM141.25 280.744C141.25 281.158 141.586 281.494 142 281.494C142.414 281.494 142.75 281.158 142.75 280.744H142H141.25ZM142.75 279.756C142.75 279.342 142.414 279.006 142 279.006C141.586 279.006 141.25 279.342 141.25 279.756H142H142.75ZM141.25 276.794C141.25 277.208 141.586 277.544 142 277.544C142.414 277.544 142.75 277.208 142.75 276.794H142H141.25ZM142.75 275.806C142.75 275.392 142.414 275.056 142 275.056C141.586 275.056 141.25 275.392 141.25 275.806H142H142.75ZM141.25 272.844C141.25 273.258 141.586 273.594 142 273.594C142.414 273.594 142.75 273.258 142.75 272.844H142H141.25ZM142.75 271.856C142.75 271.442 142.414 271.106 142 271.106C141.586 271.106 141.25 271.442 141.25 271.856H142H142.75ZM141.25 268.894C141.25 269.308 141.586 269.644 142 269.644C142.414 269.644 142.75 269.308 142.75 268.894H142H141.25ZM142.75 267.906C142.75 267.492 142.414 267.156 142 267.156C141.586 267.156 141.25 267.492 141.25 267.906H142H142.75ZM141.25 264.944C141.25 265.358 141.586 265.694 142 265.694C142.414 265.694 142.75 265.358 142.75 264.944H142H141.25ZM142.75 263.956C142.75 263.542 142.414 263.206 142 263.206C141.586 263.206 141.25 263.542 141.25 263.956H142H142.75ZM141.25 260.994C141.25 261.408 141.586 261.744 142 261.744C142.414 261.744 142.75 261.408 142.75 260.994H142H141.25ZM142.75 260.006C142.75 259.592 142.414 259.256 142 259.256C141.586 259.256 141.25 259.592 141.25 260.006H142H142.75ZM141.25 257.044C141.25 257.458 141.586 257.794 142 257.794C142.414 257.794 142.75 257.458 142.75 257.044H142H141.25ZM142.75 256.056C142.75 255.642 142.414 255.306 142 255.306C141.586 255.306 141.25 255.642 141.25 256.056H142H142.75ZM141.25 253.094C141.25 253.508 141.586 253.844 142 253.844C142.414 253.844 142.75 253.508 142.75 253.094H142H141.25ZM142.75 252.106C142.75 251.692 142.414 251.356 142 251.356C141.586 251.356 141.25 251.692 141.25 252.106H142H142.75ZM141.25 249.144C141.25 249.558 141.586 249.894 142 249.894C142.414 249.894 142.75 249.558 142.75 249.144H142H141.25ZM142.75 248.156C142.75 247.742 142.414 247.406 142 247.406C141.586 247.406 141.25 247.742 141.25 248.156H142H142.75ZM141.25 245.194C141.25 245.608 141.586 245.944 142 245.944C142.414 245.944 142.75 245.608 142.75 245.194H142H141.25ZM142.75 244.206C142.75 243.792 142.414 243.456 142 243.456C141.586 243.456 141.25 243.792 141.25 244.206H142H142.75ZM141.25 241.244C141.25 241.658 141.586 241.994 142 241.994C142.414 241.994 142.75 241.658 142.75 241.244H142H141.25ZM142.75 240.256C142.75 239.842 142.414 239.506 142 239.506C141.586 239.506 141.25 239.842 141.25 240.256H142H142.75ZM141.25 237.294C141.25 237.708 141.586 238.044 142 238.044C142.414 238.044 142.75 237.708 142.75 237.294H142H141.25ZM142.75 236.306C142.75 235.892 142.414 235.556 142 235.556C141.586 235.556 141.25 235.892 141.25 236.306H142H142.75ZM141.25 233.344C141.25 233.758 141.586 234.094 142 234.094C142.414 234.094 142.75 233.758 142.75 233.344H142H141.25ZM142.75 232.356C142.75 231.942 142.414 231.606 142 231.606C141.586 231.606 141.25 231.942 141.25 232.356H142H142.75ZM141.25 229.394C141.25 229.808 141.586 230.144 142 230.144C142.414 230.144 142.75 229.808 142.75 229.394H142H141.25ZM142.75 228.406C142.75 227.992 142.414 227.656 142 227.656C141.586 227.656 141.25 227.992 141.25 228.406H142H142.75ZM141.25 225.444C141.25 225.858 141.586 226.194 142 226.194C142.414 226.194 142.75 225.858 142.75 225.444H142H141.25ZM142.75 224.456C142.75 224.042 142.414 223.706 142 223.706C141.586 223.706 141.25 224.042 141.25 224.456H142H142.75ZM141.25 221.494C141.25 221.908 141.586 222.244 142 222.244C142.414 222.244 142.75 221.908 142.75 221.494H142H141.25ZM142.75 220.506C142.75 220.092 142.414 219.756 142 219.756C141.586 219.756 141.25 220.092 141.25 220.506H142H142.75ZM141.25 217.544C141.25 217.958 141.586 218.294 142 218.294C142.414 218.294 142.75 217.958 142.75 217.544H142H141.25ZM142.75 216.556C142.75 216.142 142.414 215.806 142 215.806C141.586 215.806 141.25 216.142 141.25 216.556H142H142.75ZM141.25 213.594C141.25 214.008 141.586 214.344 142 214.344C142.414 214.344 142.75 214.008 142.75 213.594H142H141.25ZM142.75 212.606C142.75 212.192 142.414 211.856 142 211.856C141.586 211.856 141.25 212.192 141.25 212.606H142H142.75ZM141.25 209.644C141.25 210.058 141.586 210.394 142 210.394C142.414 210.394 142.75 210.058 142.75 209.644H142H141.25ZM142.75 208.656C142.75 208.242 142.414 207.906 142 207.906C141.586 207.906 141.25 208.242 141.25 208.656H142H142.75ZM141.25 205.694C141.25 206.108 141.586 206.444 142 206.444C142.414 206.444 142.75 206.108 142.75 205.694H142H141.25ZM142.75 204.706C142.75 204.292 142.414 203.956 142 203.956C141.586 203.956 141.25 204.292 141.25 204.706H142H142.75ZM141.25 201.744C141.25 202.158 141.586 202.494 142 202.494C142.414 202.494 142.75 202.158 142.75 201.744H142H141.25ZM142.75 200.756C142.75 200.342 142.414 200.006 142 200.006C141.586 200.006 141.25 200.342 141.25 200.756H142H142.75ZM141.25 197.794C141.25 198.208 141.586 198.544 142 198.544C142.414 198.544 142.75 198.208 142.75 197.794H142H141.25ZM142.75 196.806C142.75 196.392 142.414 196.056 142 196.056C141.586 196.056 141.25 196.392 141.25 196.806H142H142.75ZM141.25 193.844C141.25 194.258 141.586 194.594 142 194.594C142.414 194.594 142.75 194.258 142.75 193.844H142H141.25ZM142.75 192.856C142.75 192.442 142.414 192.106 142 192.106C141.586 192.106 141.25 192.442 141.25 192.856H142H142.75ZM141.25 189.894C141.25 190.308 141.586 190.644 142 190.644C142.414 190.644 142.75 190.308 142.75 189.894H142H141.25ZM142.75 188.906C142.75 188.492 142.414 188.156 142 188.156C141.586 188.156 141.25 188.492 141.25 188.906H142H142.75ZM141.25 185.944C141.25 186.358 141.586 186.694 142 186.694C142.414 186.694 142.75 186.358 142.75 185.944H142H141.25ZM142.75 184.956C142.75 184.542 142.414 184.206 142 184.206C141.586 184.206 141.25 184.542 141.25 184.956H142H142.75ZM141.25 181.994C141.25 182.408 141.586 182.744 142 182.744C142.414 182.744 142.75 182.408 142.75 181.994H142H141.25ZM142.75 181.006C142.75 180.592 142.414 180.256 142 180.256C141.586 180.256 141.25 180.592 141.25 181.006H142H142.75ZM141.25 178.044C141.25 178.458 141.586 178.794 142 178.794C142.414 178.794 142.75 178.458 142.75 178.044H142H141.25ZM142.75 177.056C142.75 176.642 142.414 176.306 142 176.306C141.586 176.306 141.25 176.642 141.25 177.056H142H142.75ZM141.25 174.094C141.25 174.508 141.586 174.844 142 174.844C142.414 174.844 142.75 174.508 142.75 174.094H142H141.25ZM142.75 173.106C142.75 172.692 142.414 172.356 142 172.356C141.586 172.356 141.25 172.692 141.25 173.106H142H142.75ZM141.25 170.144C141.25 170.558 141.586 170.894 142 170.894C142.414 170.894 142.75 170.558 142.75 170.144H142H141.25ZM142.75 169.156C142.75 168.742 142.414 168.406 142 168.406C141.586 168.406 141.25 168.742 141.25 169.156H142H142.75ZM141.25 166.194C141.25 166.608 141.586 166.944 142 166.944C142.414 166.944 142.75 166.608 142.75 166.194H142H141.25ZM142.75 165.206C142.75 164.792 142.414 164.456 142 164.456C141.586 164.456 141.25 164.792 141.25 165.206H142H142.75ZM141.25 162.244C141.25 162.658 141.586 162.994 142 162.994C142.414 162.994 142.75 162.658 142.75 162.244H142H141.25ZM142.75 161.256C142.75 160.842 142.414 160.506 142 160.506C141.586 160.506 141.25 160.842 141.25 161.256H142H142.75ZM141.25 158.294C141.25 158.708 141.586 159.044 142 159.044C142.414 159.044 142.75 158.708 142.75 158.294H142H141.25ZM142.75 157.306C142.75 156.892 142.414 156.556 142 156.556C141.586 156.556 141.25 156.892 141.25 157.306H142H142.75ZM141.25 154.344C141.25 154.758 141.586 155.094 142 155.094C142.414 155.094 142.75 154.758 142.75 154.344H142H141.25ZM142.75 153.356C142.75 152.942 142.414 152.606 142 152.606C141.586 152.606 141.25 152.942 141.25 153.356H142H142.75ZM141.25 150.394C141.25 150.808 141.586 151.144 142 151.144C142.414 151.144 142.75 150.808 142.75 150.394H142H141.25ZM142.75 149.406C142.75 148.992 142.414 148.656 142 148.656C141.586 148.656 141.25 148.992 141.25 149.406H142H142.75ZM141.25 146.444C141.25 146.858 141.586 147.194 142 147.194C142.414 147.194 142.75 146.858 142.75 146.444H142H141.25ZM142.75 145.456C142.75 145.042 142.414 144.706 142 144.706C141.586 144.706 141.25 145.042 141.25 145.456H142H142.75ZM141.25 142.494C141.25 142.908 141.586 143.244 142 143.244C142.414 143.244 142.75 142.908 142.75 142.494H142H141.25ZM142.497 142.75C142.912 142.75 143.247 142.414 143.247 142C143.247 141.586 142.912 141.25 142.497 141.25V142V142.75ZM145.482 141.25C145.068 141.25 144.732 141.586 144.732 142C144.732 142.414 145.068 142.75 145.482 142.75V142V141.25ZM146.477 142.75C146.891 142.75 147.227 142.414 147.227 142C147.227 141.586 146.891 141.25 146.477 141.25V142V142.75ZM149.462 141.25C149.048 141.25 148.712 141.586 148.712 142C148.712 142.414 149.048 142.75 149.462 142.75V142V141.25ZM150.457 142.75C150.871 142.75 151.207 142.414 151.207 142C151.207 141.586 150.871 141.25 150.457 141.25V142V142.75ZM153.441 141.25C153.027 141.25 152.691 141.586 152.691 142C152.691 142.414 153.027 142.75 153.441 142.75V142V141.25ZM154.436 142.75C154.85 142.75 155.186 142.414 155.186 142C155.186 141.586 154.85 141.25 154.436 141.25V142V142.75ZM157.421 141.25C157.007 141.25 156.671 141.586 156.671 142C156.671 142.414 157.007 142.75 157.421 142.75V142V141.25ZM158.416 142.75C158.83 142.75 159.166 142.414 159.166 142C159.166 141.586 158.83 141.25 158.416 141.25V142V142.75ZM161.401 141.25C160.986 141.25 160.651 141.586 160.651 142C160.651 142.414 160.986 142.75 161.401 142.75V142V141.25ZM162.395 142.75C162.81 142.75 163.145 142.414 163.145 142C163.145 141.586 162.81 141.25 162.395 141.25V142V142.75ZM165.38 141.25C164.966 141.25 164.63 141.586 164.63 142C164.63 142.414 164.966 142.75 165.38 142.75V142V141.25ZM166.375 142.75C166.789 142.75 167.125 142.414 167.125 142C167.125 141.586 166.789 141.25 166.375 141.25V142V142.75ZM169.36 141.25C168.945 141.25 168.61 141.586 168.61 142C168.61 142.414 168.945 142.75 169.36 142.75V142V141.25ZM170.355 142.75C170.769 142.75 171.105 142.414 171.105 142C171.105 141.586 170.769 141.25 170.355 141.25V142V142.75ZM173.339 141.25C172.925 141.25 172.589 141.586 172.589 142C172.589 142.414 172.925 142.75 173.339 142.75V142V141.25ZM174.334 142.75C174.748 142.75 175.084 142.414 175.084 142C175.084 141.586 174.748 141.25 174.334 141.25V142V142.75ZM177.319 141.25C176.905 141.25 176.569 141.586 176.569 142C176.569 142.414 176.905 142.75 177.319 142.75V142V141.25ZM178.314 142.75C178.728 142.75 179.064 142.414 179.064 142C179.064 141.586 178.728 141.25 178.314 141.25V142V142.75ZM181.298 141.25C180.884 141.25 180.548 141.586 180.548 142C180.548 142.414 180.884 142.75 181.298 142.75V142V141.25ZM182.293 142.75C182.708 142.75 183.043 142.414 183.043 142C183.043 141.586 182.708 141.25 182.293 141.25V142V142.75ZM185.278 141.25C184.864 141.25 184.528 141.586 184.528 142C184.528 142.414 184.864 142.75 185.278 142.75V142V141.25ZM186.273 142.75C186.687 142.75 187.023 142.414 187.023 142C187.023 141.586 186.687 141.25 186.273 141.25V142V142.75ZM189.258 141.25C188.843 141.25 188.508 141.586 188.508 142C188.508 142.414 188.843 142.75 189.258 142.75V142V141.25ZM190.253 142.75C190.667 142.75 191.003 142.414 191.003 142C191.003 141.586 190.667 141.25 190.253 141.25V142V142.75ZM193.237 141.25C192.823 141.25 192.487 141.586 192.487 142C192.487 142.414 192.823 142.75 193.237 142.75V142V141.25ZM194.232 142.75C194.646 142.75 194.982 142.414 194.982 142C194.982 141.586 194.646 141.25 194.232 141.25V142V142.75ZM197.217 141.25C196.803 141.25 196.467 141.586 196.467 142C196.467 142.414 196.803 142.75 197.217 142.75V142V141.25ZM198.212 142.75C198.626 142.75 198.962 142.414 198.962 142C198.962 141.586 198.626 141.25 198.212 141.25V142V142.75ZM201.196 141.25C200.782 141.25 200.446 141.586 200.446 142C200.446 142.414 200.782 142.75 201.196 142.75V142V141.25ZM202.191 142.75C202.606 142.75 202.941 142.414 202.941 142C202.941 141.586 202.606 141.25 202.191 141.25V142V142.75ZM205.176 141.25C204.762 141.25 204.426 141.586 204.426 142C204.426 142.414 204.762 142.75 205.176 142.75V142V141.25ZM206.171 142.75C206.585 142.75 206.921 142.414 206.921 142C206.921 141.586 206.585 141.25 206.171 141.25V142V142.75ZM209.156 141.25C208.741 141.25 208.406 141.586 208.406 142C208.406 142.414 208.741 142.75 209.156 142.75V142V141.25ZM210.151 142.75C210.565 142.75 210.901 142.414 210.901 142C210.901 141.586 210.565 141.25 210.151 141.25V142V142.75ZM213.135 141.25C212.721 141.25 212.385 141.586 212.385 142C212.385 142.414 212.721 142.75 213.135 142.75V142V141.25ZM214.13 142.75C214.544 142.75 214.88 142.414 214.88 142C214.88 141.586 214.544 141.25 214.13 141.25V142V142.75ZM217.115 141.25C216.701 141.25 216.365 141.586 216.365 142C216.365 142.414 216.701 142.75 217.115 142.75V142V141.25ZM218.11 142.75C218.524 142.75 218.86 142.414 218.86 142C218.86 141.586 218.524 141.25 218.11 141.25V142V142.75ZM221.094 141.25C220.68 141.25 220.344 141.586 220.344 142C220.344 142.414 220.68 142.75 221.094 142.75V142V141.25ZM222.089 142.75C222.504 142.75 222.839 142.414 222.839 142C222.839 141.586 222.504 141.25 222.089 141.25V142V142.75ZM225.074 141.25C224.66 141.25 224.324 141.586 224.324 142C224.324 142.414 224.66 142.75 225.074 142.75V142V141.25ZM226.069 142.75C226.483 142.75 226.819 142.414 226.819 142C226.819 141.586 226.483 141.25 226.069 141.25V142V142.75ZM229.054 141.25C228.639 141.25 228.304 141.586 228.304 142C228.304 142.414 228.639 142.75 229.054 142.75V142V141.25ZM230.048 142.75C230.463 142.75 230.798 142.414 230.798 142C230.798 141.586 230.463 141.25 230.048 141.25V142V142.75ZM233.033 141.25C232.619 141.25 232.283 141.586 232.283 142C232.283 142.414 232.619 142.75 233.033 142.75V142V141.25ZM234.028 142.75C234.442 142.75 234.778 142.414 234.778 142C234.778 141.586 234.442 141.25 234.028 141.25V142V142.75ZM237.013 141.25C236.599 141.25 236.263 141.586 236.263 142C236.263 142.414 236.599 142.75 237.013 142.75V142V141.25ZM238.008 142.75C238.422 142.75 238.758 142.414 238.758 142C238.758 141.586 238.422 141.25 238.008 141.25V142V142.75ZM240.992 141.25C240.578 141.25 240.242 141.586 240.242 142C240.242 142.414 240.578 142.75 240.992 142.75V142V141.25ZM241.987 142.75C242.401 142.75 242.737 142.414 242.737 142C242.737 141.586 242.401 141.25 241.987 141.25V142V142.75ZM244.972 141.25C244.558 141.25 244.222 141.586 244.222 142C244.222 142.414 244.558 142.75 244.972 142.75V142V141.25ZM245.967 142.75C246.381 142.75 246.717 142.414 246.717 142C246.717 141.586 246.381 141.25 245.967 141.25V142V142.75ZM248.952 141.25C248.537 141.25 248.202 141.586 248.202 142C248.202 142.414 248.537 142.75 248.952 142.75V142V141.25ZM249.946 142.75C250.361 142.75 250.696 142.414 250.696 142C250.696 141.586 250.361 141.25 249.946 141.25V142V142.75ZM252.931 141.25C252.517 141.25 252.181 141.586 252.181 142C252.181 142.414 252.517 142.75 252.931 142.75V142V141.25ZM253.926 142.75C254.34 142.75 254.676 142.414 254.676 142C254.676 141.586 254.34 141.25 253.926 141.25V142V142.75ZM256.911 141.25C256.497 141.25 256.161 141.586 256.161 142C256.161 142.414 256.497 142.75 256.911 142.75V142V141.25ZM257.906 142.75C258.32 142.75 258.656 142.414 258.656 142C258.656 141.586 258.32 141.25 257.906 141.25V142V142.75ZM260.89 141.25C260.476 141.25 260.14 141.586 260.14 142C260.14 142.414 260.476 142.75 260.89 142.75V142V141.25ZM261.885 142.75C262.299 142.75 262.635 142.414 262.635 142C262.635 141.586 262.299 141.25 261.885 141.25V142V142.75ZM264.87 141.25C264.456 141.25 264.12 141.586 264.12 142C264.12 142.414 264.456 142.75 264.87 142.75V142V141.25ZM265.865 142.75C266.279 142.75 266.615 142.414 266.615 142C266.615 141.586 266.279 141.25 265.865 141.25V142V142.75ZM268.85 141.25C268.435 141.25 268.1 141.586 268.1 142C268.1 142.414 268.435 142.75 268.85 142.75V142V141.25ZM269.844 142.75C270.259 142.75 270.594 142.414 270.594 142C270.594 141.586 270.259 141.25 269.844 141.25V142V142.75ZM272.829 141.25C272.415 141.25 272.079 141.586 272.079 142C272.079 142.414 272.415 142.75 272.829 142.75V142V141.25ZM273.824 142.75C274.238 142.75 274.574 142.414 274.574 142C274.574 141.586 274.238 141.25 273.824 141.25V142V142.75ZM276.809 141.25C276.394 141.25 276.059 141.586 276.059 142C276.059 142.414 276.394 142.75 276.809 142.75V142V141.25ZM277.804 142.75C278.218 142.75 278.554 142.414 278.554 142C278.554 141.586 278.218 141.25 277.804 141.25V142V142.75ZM280.788 141.25C280.374 141.25 280.038 141.586 280.038 142C280.038 142.414 280.374 142.75 280.788 142.75V142V141.25ZM281.783 142.75C282.197 142.75 282.533 142.414 282.533 142C282.533 141.586 282.197 141.25 281.783 141.25V142V142.75ZM284.768 141.25C284.354 141.25 284.018 141.586 284.018 142C284.018 142.414 284.354 142.75 284.768 142.75V142V141.25ZM285.763 142.75C286.177 142.75 286.513 142.414 286.513 142C286.513 141.586 286.177 141.25 285.763 141.25V142V142.75ZM288.747 141.25C288.333 141.25 287.997 141.586 287.997 142C287.997 142.414 288.333 142.75 288.747 142.75V142V141.25ZM289.742 142.75C290.157 142.75 290.492 142.414 290.492 142C290.492 141.586 290.157 141.25 289.742 141.25V142V142.75ZM292.727 141.25C292.313 141.25 291.977 141.586 291.977 142C291.977 142.414 292.313 142.75 292.727 142.75V142V141.25ZM293.722 142.75C294.136 142.75 294.472 142.414 294.472 142C294.472 141.586 294.136 141.25 293.722 141.25V142V142.75ZM296.707 141.25C296.292 141.25 295.957 141.586 295.957 142C295.957 142.414 296.292 142.75 296.707 142.75V142V141.25ZM297.702 142.75C298.116 142.75 298.452 142.414 298.452 142C298.452 141.586 298.116 141.25 297.702 141.25V142V142.75ZM300.686 141.25C300.272 141.25 299.936 141.586 299.936 142C299.936 142.414 300.272 142.75 300.686 142.75V142V141.25ZM301.681 142.75C302.095 142.75 302.431 142.414 302.431 142C302.431 141.586 302.095 141.25 301.681 141.25V142V142.75ZM304.666 141.25C304.252 141.25 303.916 141.586 303.916 142C303.916 142.414 304.252 142.75 304.666 142.75V142V141.25ZM305.661 142.75C306.075 142.75 306.411 142.414 306.411 142C306.411 141.586 306.075 141.25 305.661 141.25V142V142.75ZM308.645 141.25C308.231 141.25 307.895 141.586 307.895 142C307.895 142.414 308.231 142.75 308.645 142.75V142V141.25ZM309.64 142.75C310.055 142.75 310.39 142.414 310.39 142C310.39 141.586 310.055 141.25 309.64 141.25V142V142.75ZM312.625 141.25C312.211 141.25 311.875 141.586 311.875 142C311.875 142.414 312.211 142.75 312.625 142.75V142V141.25ZM313.62 142.75C314.034 142.75 314.37 142.414 314.37 142C314.37 141.586 314.034 141.25 313.62 141.25V142V142.75ZM316.605 141.25C316.19 141.25 315.855 141.586 315.855 142C315.855 142.414 316.19 142.75 316.605 142.75V142V141.25ZM317.6 142.75C318.014 142.75 318.35 142.414 318.35 142C318.35 141.586 318.014 141.25 317.6 141.25V142V142.75ZM320.584 141.25C320.17 141.25 319.834 141.586 319.834 142C319.834 142.414 320.17 142.75 320.584 142.75V142V141.25ZM321.579 142.75C321.993 142.75 322.329 142.414 322.329 142C322.329 141.586 321.993 141.25 321.579 141.25V142V142.75ZM324.564 141.25C324.15 141.25 323.814 141.586 323.814 142C323.814 142.414 324.15 142.75 324.564 142.75V142V141.25ZM325.559 142.75C325.973 142.75 326.309 142.414 326.309 142C326.309 141.586 325.973 141.25 325.559 141.25V142V142.75ZM328.543 141.25C328.129 141.25 327.793 141.586 327.793 142C327.793 142.414 328.129 142.75 328.543 142.75V142V141.25ZM329.538 142.75C329.953 142.75 330.288 142.414 330.288 142C330.288 141.586 329.953 141.25 329.538 141.25V142V142.75ZM332.523 141.25C332.109 141.25 331.773 141.586 331.773 142C331.773 142.414 332.109 142.75 332.523 142.75V142V141.25ZM333.518 142.75C333.932 142.75 334.268 142.414 334.268 142C334.268 141.586 333.932 141.25 333.518 141.25V142V142.75ZM336.503 141.25C336.088 141.25 335.753 141.586 335.753 142C335.753 142.414 336.088 142.75 336.503 142.75V142V141.25ZM337.507 142.734C337.92 142.707 338.233 142.35 338.207 141.937C338.18 141.524 337.823 141.21 337.41 141.237L337.458 141.985L337.507 142.734ZM339.764 140.607C339.393 140.791 339.241 141.24 339.424 141.612C339.608 141.983 340.058 142.135 340.429 141.952L340.097 141.28L339.764 140.607ZM341.307 141.444C341.651 141.214 341.743 140.748 341.513 140.404C341.282 140.06 340.816 139.967 340.472 140.198L340.889 140.821L341.307 141.444ZM342.198 138.472C341.967 138.816 342.06 139.282 342.404 139.513C342.748 139.743 343.214 139.651 343.444 139.307L342.821 138.889L342.198 138.472ZM343.952 138.429C344.135 138.058 343.983 137.608 343.612 137.424C343.24 137.241 342.791 137.393 342.607 137.764L343.28 138.097L343.952 138.429ZM343.237 135.41C343.21 135.823 343.524 136.18 343.937 136.207C344.35 136.233 344.707 135.92 344.734 135.507L343.985 135.458L343.237 135.41ZM344.75 134.495C344.75 134.08 344.414 133.745 344 133.745C343.586 133.745 343.25 134.08 343.25 134.495H344H344.75ZM343.25 131.462C343.25 131.877 343.586 132.212 344 132.212C344.414 132.212 344.75 131.877 344.75 131.462H344H343.25ZM344.75 130.452C344.75 130.038 344.414 129.702 344 129.702C343.586 129.702 343.25 130.038 343.25 130.452H344H344.75ZM343.25 127.42C343.25 127.834 343.586 128.17 344 128.17C344.414 128.17 344.75 127.834 344.75 127.42H344H343.25ZM344.75 126.409C344.75 125.995 344.414 125.659 344 125.659C343.586 125.659 343.25 125.995 343.25 126.409H344H344.75ZM343.25 123.377C343.25 123.791 343.586 124.127 344 124.127C344.414 124.127 344.75 123.791 344.75 123.377H344H343.25ZM344.75 122.366C344.75 121.952 344.414 121.616 344 121.616C343.586 121.616 343.25 121.952 343.25 122.366H344H344.75ZM343.25 119.334C343.25 119.748 343.586 120.084 344 120.084C344.414 120.084 344.75 119.748 344.75 119.334H344H343.25ZM344.75 118.323C344.75 117.909 344.414 117.573 344 117.573C343.586 117.573 343.25 117.909 343.25 118.323H344H344.75ZM343.25 115.291C343.25 115.705 343.586 116.041 344 116.041C344.414 116.041 344.75 115.705 344.75 115.291H344H343.25ZM344.75 114.28C344.75 113.866 344.414 113.53 344 113.53C343.586 113.53 343.25 113.866 343.25 114.28H344H344.75ZM343.25 111.248C343.25 111.662 343.586 111.998 344 111.998C344.414 111.998 344.75 111.662 344.75 111.248H344H343.25ZM344.75 110.238C344.75 109.823 344.414 109.488 344 109.488C343.586 109.488 343.25 109.823 343.25 110.238H344H344.75ZM343.25 107.205C343.25 107.62 343.586 107.955 344 107.955C344.414 107.955 344.75 107.62 344.75 107.205H344H343.25ZM344.75 106.195C344.75 105.78 344.414 105.445 344 105.445C343.586 105.445 343.25 105.78 343.25 106.195H344H344.75ZM343.25 103.163C343.25 103.577 343.586 103.913 344 103.913C344.414 103.913 344.75 103.577 344.75 103.163H344H343.25ZM344.75 102.152C344.75 101.738 344.414 101.402 344 101.402C343.586 101.402 343.25 101.738 343.25 102.152H344H344.75ZM343.25 99.1197C343.25 99.5339 343.586 99.8697 344 99.8697C344.414 99.8697 344.75 99.5339 344.75 99.1197H344H343.25ZM344.75 98.1089C344.75 97.6947 344.414 97.3589 344 97.3589C343.586 97.3589 343.25 97.6947 343.25 98.1089H344H344.75ZM343.25 95.0768C343.25 95.491 343.586 95.8268 344 95.8268C344.414 95.8268 344.75 95.491 344.75 95.0768H344H343.25ZM344.75 94.0661C344.75 93.6519 344.414 93.3161 344 93.3161C343.586 93.3161 343.25 93.6519 343.25 94.0661H344H344.75ZM343.25 91.0339C343.25 91.4481 343.586 91.7839 344 91.7839C344.414 91.7839 344.75 91.4481 344.75 91.0339H344H343.25ZM344.75 90.0232C344.75 89.609 344.414 89.2732 344 89.2732C343.586 89.2732 343.25 89.609 343.25 90.0232H344H344.75ZM343.25 86.9911C343.25 87.4053 343.586 87.7411 344 87.7411C344.414 87.7411 344.75 87.4053 344.75 86.9911H344H343.25ZM344.75 85.9804C344.75 85.5661 344.414 85.2304 344 85.2304C343.586 85.2304 343.25 85.5661 343.25 85.9804H344H344.75ZM343.25 82.9482C343.25 83.3624 343.586 83.6982 344 83.6982C344.414 83.6982 344.75 83.3624 344.75 82.9482H344H343.25ZM344.75 81.9375C344.75 81.5233 344.414 81.1875 344 81.1875C343.586 81.1875 343.25 81.5233 343.25 81.9375H344H344.75ZM343.25 78.9054C343.25 79.3196 343.586 79.6554 344 79.6554C344.414 79.6554 344.75 79.3196 344.75 78.9054H344H343.25ZM344.75 77.8946C344.75 77.4804 344.414 77.1446 344 77.1446C343.586 77.1446 343.25 77.4804 343.25 77.8946H344H344.75ZM343.25 74.8625C343.25 75.2767 343.586 75.6125 344 75.6125C344.414 75.6125 344.75 75.2767 344.75 74.8625H344H343.25ZM344.75 73.8518C344.75 73.4376 344.414 73.1018 344 73.1018C343.586 73.1018 343.25 73.4376 343.25 73.8518H344H344.75ZM343.25 70.8196C343.25 71.2339 343.586 71.5696 344 71.5696C344.414 71.5696 344.75 71.2339 344.75 70.8196H344H343.25ZM344.75 69.8089C344.75 69.3947 344.414 69.0589 344 69.0589C343.586 69.0589 343.25 69.3947 343.25 69.8089H344H344.75ZM343.25 66.7768C343.25 67.191 343.586 67.5268 344 67.5268C344.414 67.5268 344.75 67.191 344.75 66.7768H344H343.25ZM344.75 65.7661C344.75 65.3519 344.414 65.0161 344 65.0161C343.586 65.0161 343.25 65.3519 343.25 65.7661H344H344.75ZM343.25 62.7339C343.25 63.1481 343.586 63.4839 344 63.4839C344.414 63.4839 344.75 63.1481 344.75 62.7339H344H343.25ZM344.75 61.7232C344.75 61.309 344.414 60.9732 344 60.9732C343.586 60.9732 343.25 61.309 343.25 61.7232H344H344.75ZM343.25 58.6911C343.25 59.1053 343.586 59.4411 344 59.4411C344.414 59.4411 344.75 59.1053 344.75 58.6911H344H343.25ZM344.75 57.6804C344.75 57.2662 344.414 56.9304 344 56.9304C343.586 56.9304 343.25 57.2662 343.25 57.6804H344H344.75ZM343.25 54.6482C343.25 55.0624 343.586 55.3982 344 55.3982C344.414 55.3982 344.75 55.0624 344.75 54.6482H344H343.25ZM344.75 53.6375C344.75 53.2233 344.414 52.8875 344 52.8875C343.586 52.8875 343.25 53.2233 343.25 53.6375H344H344.75ZM343.25 50.6054C343.25 51.0196 343.586 51.3554 344 51.3554C344.414 51.3554 344.75 51.0196 344.75 50.6054H344H343.25ZM344.75 49.5947C344.75 49.1804 344.414 48.8447 344 48.8447C343.586 48.8447 343.25 49.1804 343.25 49.5947H344H344.75ZM343.25 46.5625C343.25 46.9767 343.586 47.3125 344 47.3125C344.414 47.3125 344.75 46.9767 344.75 46.5625H344H343.25ZM344.75 45.5518C344.75 45.1376 344.414 44.8018 344 44.8018C343.586 44.8018 343.25 45.1376 343.25 45.5518H344H344.75ZM343.25 42.5197C343.25 42.9339 343.586 43.2697 344 43.2697C344.414 43.2697 344.75 42.9339 344.75 42.5197H344H343.25ZM344.75 41.5089C344.75 41.0947 344.414 40.7589 344 40.7589C343.586 40.7589 343.25 41.0947 343.25 41.5089H344H344.75ZM343.25 38.4768C343.25 38.891 343.586 39.2268 344 39.2268C344.414 39.2268 344.75 38.891 344.75 38.4768H344H343.25ZM344.75 37.4661C344.75 37.0519 344.414 36.7161 344 36.7161C343.586 36.7161 343.25 37.0519 343.25 37.4661H344H344.75ZM343.25 34.434C343.25 34.8482 343.586 35.184 344 35.184C344.414 35.184 344.75 34.8482 344.75 34.434H344H343.25ZM344.75 33.4232C344.75 33.009 344.414 32.6732 344 32.6732C343.586 32.6732 343.25 33.009 343.25 33.4232H344H344.75ZM343.25 30.3911C343.25 30.8053 343.586 31.1411 344 31.1411C344.414 31.1411 344.75 30.8053 344.75 30.3911H344H343.25ZM344.75 29.3804C344.75 28.9662 344.414 28.6304 344 28.6304C343.586 28.6304 343.25 28.9662 343.25 29.3804H344H344.75ZM343.25 26.3482C343.25 26.7625 343.586 27.0982 344 27.0982C344.414 27.0982 344.75 26.7625 344.75 26.3482H344H343.25ZM344.75 25.3375C344.75 24.9233 344.414 24.5875 344 24.5875C343.586 24.5875 343.25 24.9233 343.25 25.3375H344H344.75ZM343.25 22.3054C343.25 22.7196 343.586 23.0554 344 23.0554C344.414 23.0554 344.75 22.7196 344.75 22.3054H344H343.25ZM344.75 21.2947C344.75 20.8805 344.414 20.5447 344 20.5447C343.586 20.5447 343.25 20.8805 343.25 21.2947H344H344.75ZM343.25 18.2625C343.25 18.6767 343.586 19.0125 344 19.0125C344.414 19.0125 344.75 18.6767 344.75 18.2625H344H343.25ZM344.75 17.2518C344.75 16.8376 344.414 16.5018 344 16.5018C343.586 16.5018 343.25 16.8376 343.25 17.2518H344H344.75ZM343.25 14.2197C343.25 14.6339 343.586 14.9697 344 14.9697C344.414 14.9697 344.75 14.6339 344.75 14.2197H344H343.25ZM344.75 13.209C344.75 12.7948 344.414 12.459 344 12.459C343.586 12.459 343.25 12.7948 343.25 13.209H344H344.75ZM343.25 10.1768C343.25 10.591 343.586 10.9268 344 10.9268C344.414 10.9268 344.75 10.591 344.75 10.1768H344H343.25ZM344.75 9.16612C344.75 8.7519 344.414 8.41612 344 8.41612C343.586 8.41612 343.25 8.7519 343.25 9.16612H344H344.75ZM343.25 6.13397C343.25 6.54819 343.586 6.88397 344 6.88397C344.414 6.88397 344.75 6.54819 344.75 6.13397H344H343.25ZM344.75 5.12326C344.75 4.70905 344.414 4.37326 344 4.37326C343.586 4.37326 343.25 4.70905 343.25 5.12326H344H344.75ZM343.25 2.09111C343.25 2.50532 343.586 2.84111 344 2.84111C344.414 2.84111 344.75 2.50532 344.75 2.09111H344H343.25ZM344.75 1.0804C344.75 0.666182 344.414 0.330396 344 0.330396C343.586 0.330396 343.25 0.666182 343.25 1.0804H344H344.75ZM343.25 -1.95175C343.25 -1.53754 343.586 -1.20175 344 -1.20175C344.414 -1.20175 344.75 -1.53754 344.75 -1.95175H344H343.25ZM344.75 -2.96246C344.75 -3.37667 344.414 -3.71246 344 -3.71246C343.586 -3.71246 343.25 -3.37667 343.25 -2.96246H344H344.75ZM343.25 -5.99461C343.25 -5.5804 343.586 -5.24461 344 -5.24461C344.414 -5.24461 344.75 -5.5804 344.75 -5.99461H344H343.25ZM142 300H142.75V299.506H142H141.25V300H142ZM142 296.544H142.75V295.556H142H141.25V296.544H142ZM142 292.594H142.75V291.606H142H141.25V292.594H142ZM142 288.644H142.75V287.656H142H141.25V288.644H142ZM142 284.694H142.75V283.706H142H141.25V284.694H142ZM142 280.744H142.75V279.756H142H141.25V280.744H142ZM142 276.794H142.75V275.806H142H141.25V276.794H142ZM142 272.844H142.75V271.856H142H141.25V272.844H142ZM142 268.894H142.75V267.906H142H141.25V268.894H142ZM142 264.944H142.75V263.956H142H141.25V264.944H142ZM142 260.994H142.75V260.006H142H141.25V260.994H142ZM142 257.044H142.75V256.056H142H141.25V257.044H142ZM142 253.094H142.75V252.106H142H141.25V253.094H142ZM142 249.144H142.75V248.156H142H141.25V249.144H142ZM142 245.194H142.75V244.206H142H141.25V245.194H142ZM142 241.244H142.75V240.256H142H141.25V241.244H142ZM142 237.294H142.75V236.306H142H141.25V237.294H142ZM142 233.344H142.75V232.356H142H141.25V233.344H142ZM142 229.394H142.75V228.406H142H141.25V229.394H142ZM142 225.444H142.75V224.456H142H141.25V225.444H142ZM142 221.494H142.75V220.506H142H141.25V221.494H142ZM142 217.544H142.75V216.556H142H141.25V217.544H142ZM142 213.594H142.75V212.606H142H141.25V213.594H142ZM142 209.644H142.75V208.656H142H141.25V209.644H142ZM142 205.694H142.75V204.706H142H141.25V205.694H142ZM142 201.744H142.75V200.756H142H141.25V201.744H142ZM142 197.794H142.75V196.806H142H141.25V197.794H142ZM142 193.844H142.75V192.856H142H141.25V193.844H142ZM142 189.894H142.75V188.906H142H141.25V189.894H142ZM142 185.944H142.75V184.956H142H141.25V185.944H142ZM142 181.994H142.75V181.006H142H141.25V181.994H142ZM142 178.044H142.75V177.056H142H141.25V178.044H142ZM142 174.094H142.75V173.106H142H141.25V174.094H142ZM142 170.144H142.75V169.156H142H141.25V170.144H142ZM142 166.194H142.75V165.206H142H141.25V166.194H142ZM142 162.244H142.75V161.256H142H141.25V162.244H142ZM142 158.294H142.75V157.306H142H141.25V158.294H142ZM142 154.344H142.75V153.356H142H141.25V154.344H142ZM142 150.394H142.75V149.406H142H141.25V150.394H142ZM142 146.444H142.75V145.456H142H141.25V146.444H142ZM142 142.494H142.75V142H142H141.25V142.494H142ZM142 142V142.75H142.497V142V141.25H142V142ZM145.482 142V142.75H146.477V142V141.25H145.482V142ZM149.462 142V142.75H150.457V142V141.25H149.462V142ZM153.441 142V142.75H154.436V142V141.25H153.441V142ZM157.421 142V142.75H158.416V142V141.25H157.421V142ZM161.401 142V142.75H162.395V142V141.25H161.401V142ZM165.38 142V142.75H166.375V142V141.25H165.38V142ZM169.36 142V142.75H170.355V142V141.25H169.36V142ZM173.339 142V142.75H174.334V142V141.25H173.339V142ZM177.319 142V142.75H178.314V142V141.25H177.319V142ZM181.298 142V142.75H182.293V142V141.25H181.298V142ZM185.278 142V142.75H186.273V142V141.25H185.278V142ZM189.258 142V142.75H190.253V142V141.25H189.258V142ZM193.237 142V142.75H194.232V142V141.25H193.237V142ZM197.217 142V142.75H198.212V142V141.25H197.217V142ZM201.196 142V142.75H202.191V142V141.25H201.196V142ZM205.176 142V142.75H206.171V142V141.25H205.176V142ZM209.156 142V142.75H210.151V142V141.25H209.156V142ZM213.135 142V142.75H214.13V142V141.25H213.135V142ZM217.115 142V142.75H218.11V142V141.25H217.115V142ZM221.094 142V142.75H222.089V142V141.25H221.094V142ZM225.074 142V142.75H226.069V142V141.25H225.074V142ZM229.054 142V142.75H230.048V142V141.25H229.054V142ZM233.033 142V142.75H234.028V142V141.25H233.033V142ZM237.013 142V142.75H238.008V142V141.25H237.013V142ZM240.992 142V142.75H241.987V142V141.25H240.992V142ZM244.972 142V142.75H245.967V142V141.25H244.972V142ZM248.952 142V142.75H249.946V142V141.25H248.952V142ZM252.931 142V142.75H253.926V142V141.25H252.931V142ZM256.911 142V142.75H257.906V142V141.25H256.911V142ZM260.89 142V142.75H261.885V142V141.25H260.89V142ZM264.87 142V142.75H265.865V142V141.25H264.87V142ZM268.85 142V142.75H269.844V142V141.25H268.85V142ZM272.829 142V142.75H273.824V142V141.25H272.829V142ZM276.809 142V142.75H277.804V142V141.25H276.809V142ZM280.788 142V142.75H281.783V142V141.25H280.788V142ZM284.768 142V142.75H285.763V142V141.25H284.768V142ZM288.747 142V142.75H289.742V142V141.25H288.747V142ZM292.727 142V142.75H293.722V142V141.25H292.727V142ZM296.707 142V142.75H297.702V142V141.25H296.707V142ZM300.686 142V142.75H301.681V142V141.25H300.686V142ZM304.666 142V142.75H305.661V142V141.25H304.666V142ZM308.645 142V142.75H309.64V142V141.25H308.645V142ZM312.625 142V142.75H313.62V142V141.25H312.625V142ZM316.605 142V142.75H317.6V142V141.25H316.605V142ZM320.584 142V142.75H321.579V142V141.25H320.584V142ZM324.564 142V142.75H325.559V142V141.25H324.564V142ZM328.543 142V142.75H329.538V142V141.25H328.543V142ZM332.523 142V142.75H333.518V142V141.25H332.523V142ZM336.503 142V142.75H337V142V141.25H336.503V142ZM337 142V142.75C337.17 142.75 337.339 142.745 337.507 142.734L337.458 141.985L337.41 141.237C337.274 141.246 337.138 141.25 337 141.25V142ZM340.097 141.28L340.429 141.952C340.733 141.801 341.026 141.632 341.307 141.444L340.889 140.821L340.472 140.198C340.246 140.349 340.01 140.486 339.764 140.607L340.097 141.28ZM342.821 138.889L343.444 139.307C343.632 139.026 343.801 138.733 343.952 138.429L343.28 138.097L342.607 137.764C342.486 138.01 342.349 138.246 342.198 138.472L342.821 138.889ZM343.985 135.458L344.734 135.507C344.745 135.339 344.75 135.17 344.75 135H344H343.25C343.25 135.138 343.246 135.274 343.237 135.41L343.985 135.458ZM344 135H344.75V134.495H344H343.25V135H344ZM344 131.462H344.75V130.452H344H343.25V131.462H344ZM344 127.42H344.75V126.409H344H343.25V127.42H344ZM344 123.377H344.75V122.366H344H343.25V123.377H344ZM344 119.334H344.75V118.323H344H343.25V119.334H344ZM344 115.291H344.75V114.28H344H343.25V115.291H344ZM344 111.248H344.75V110.238H344H343.25V111.248H344ZM344 107.205H344.75V106.195H344H343.25V107.205H344ZM344 103.163H344.75V102.152H344H343.25V103.163H344ZM344 99.1197H344.75V98.1089H344H343.25V99.1197H344ZM344 95.0768H344.75V94.0661H344H343.25V95.0768H344ZM344 91.0339H344.75V90.0232H344H343.25V91.0339H344ZM344 86.9911H344.75V85.9804H344H343.25V86.9911H344ZM344 82.9482H344.75V81.9375H344H343.25V82.9482H344ZM344 78.9054H344.75V77.8946H344H343.25V78.9054H344ZM344 74.8625H344.75V73.8518H344H343.25V74.8625H344ZM344 70.8196H344.75V69.8089H344H343.25V70.8196H344ZM344 66.7768H344.75V65.7661H344H343.25V66.7768H344ZM344 62.7339H344.75V61.7232H344H343.25V62.7339H344ZM344 58.6911H344.75V57.6804H344H343.25V58.6911H344ZM344 54.6482H344.75V53.6375H344H343.25V54.6482H344ZM344 50.6054H344.75V49.5947H344H343.25V50.6054H344ZM344 46.5625H344.75V45.5518H344H343.25V46.5625H344ZM344 42.5197H344.75V41.5089H344H343.25V42.5197H344ZM344 38.4768H344.75V37.4661H344H343.25V38.4768H344ZM344 34.434H344.75V33.4232H344H343.25V34.434H344ZM344 30.3911H344.75V29.3804H344H343.25V30.3911H344ZM344 26.3482H344.75V25.3375H344H343.25V26.3482H344ZM344 22.3054H344.75V21.2947H344H343.25V22.3054H344ZM344 18.2625H344.75V17.2518H344H343.25V18.2625H344ZM344 14.2197H344.75V13.209H344H343.25V14.2197H344ZM344 10.1768H344.75V9.16612H344H343.25V10.1768H344ZM344 6.13397H344.75V5.12326H344H343.25V6.13397H344ZM344 2.09111H344.75V1.0804H344H343.25V2.09111H344ZM344 -1.95175H344.75V-2.96246H344H343.25V-1.95175H344ZM344 -5.99461H344.75V-6.5H344H343.25V-5.99461H344Z" fill="#717476"/>
<path d="M217.5 370.5V295H295V334C295 338.418 298.582 342 303 342H368" stroke="#717476" stroke-width="1.5" stroke-linecap="round" stroke-linejoin="round" stroke-dasharray="1 3"/>
<path d="M65 141V219.5H-17.5" stroke="#717476" stroke-width="1.5" stroke-linecap="round" stroke-linejoin="round" stroke-dasharray="1 3"/>
<path d="M143.5 295H25C20.5817 295 17 298.582 17 303V368" stroke="#717476" stroke-width="1.5" stroke-linecap="round" stroke-linejoin="round" stroke-dasharray="1 3"/>
<path d="M218 220H295.5H372" stroke="#717476" stroke-width="1.5" stroke-linecap="round" stroke-linejoin="round" stroke-dasharray="1 3"/>
<path d="M31.3906 36H35.5625L39.9688 46.75H40.1563L44.5625 36H48.7344V52H45.4531V41.5859H45.3203L41.1797 51.9219H38.9453L34.8047 41.5469H34.6719V52H31.3906V36ZM65.6015 52V36H76.3827V38.7891H68.9843V42.6016H75.828V45.3906H68.9843V49.2109H76.414V52H65.6015ZM92.285 52V49.2812L92.7381 49.2422C93.3215 49.1953 93.7928 48.974 94.1522 48.5781C94.5116 48.1771 94.7798 47.5391 94.9569 46.6641C95.1392 45.7839 95.2564 44.6016 95.3084 43.1172L95.5741 36H106.433V52H103.144V38.7109H98.7147L98.4647 44.2812C98.3814 46.0729 98.1678 47.5365 97.8241 48.6719C97.4855 49.8073 96.9439 50.6458 96.1991 51.1875C95.4595 51.7292 94.4465 52 93.16 52H92.285ZM132.982 52L127.842 45.1797H126.685V52H123.302V36H126.685V42.3906H127.365L132.677 36H136.888L130.646 43.4219L137.177 52H132.982ZM152.959 36H156.334V46.0625H156.466L163.381 36H166.341V52H162.959V41.9297H162.841L155.888 52H152.959V36ZM183.216 36H186.591V46.0625H186.724L193.638 36H196.599V52H193.216V41.9297H193.099L186.146 52H183.216V36ZM191.466 31.8125H193.787C193.782 32.7604 193.43 33.5234 192.732 34.1016C192.039 34.6797 191.102 34.9687 189.92 34.9687C188.732 34.9687 187.792 34.6797 187.099 34.1016C186.407 33.5234 186.06 32.7604 186.06 31.8125H188.365C188.36 32.1719 188.474 32.4948 188.709 32.7812C188.948 33.0677 189.352 33.2109 189.92 33.2109C190.472 33.2109 190.867 33.0703 191.107 32.7891C191.347 32.5078 191.466 32.1823 191.466 31.8125ZM32.0313 63H35.3359V76.2812H39.9297V63H43.2188V76.2812H47.7578V63H51.0469V79H32.0313V63ZM68.5448 79V63H74.8573C76.0709 63 77.1047 63.2318 77.9589 63.6953C78.8131 64.1536 79.4641 64.7917 79.912 65.6094C80.3652 66.4219 80.5917 67.3594 80.5917 68.4219C80.5917 69.4844 80.3626 70.4219 79.9042 71.2344C79.4459 72.0469 78.7818 72.6797 77.912 73.1328C77.0475 73.5859 76.0006 73.8125 74.7714 73.8125H70.748V71.1016H74.2245C74.8756 71.1016 75.412 70.9896 75.8339 70.7656C76.261 70.5365 76.5787 70.2214 76.787 69.8203C77.0006 69.4141 77.1073 68.9479 77.1073 68.4219C77.1073 67.8906 77.0006 67.4271 76.787 67.0312C76.5787 66.6302 76.261 66.3203 75.8339 66.1016C75.4068 65.8776 74.8652 65.7656 74.2089 65.7656H71.9277V79H68.5448ZM96.869 63H100.244V73.0625H100.377L107.291 63H110.252V79H106.869V68.9297H106.752L99.7987 79H96.869V63ZM133.455 64.7187H137.033C138.314 64.7187 139.45 64.9896 140.439 65.5312C141.434 66.0729 142.213 66.8359 142.775 67.8203C143.343 68.7995 143.627 69.9505 143.627 71.2734C143.627 72.5547 143.343 73.6719 142.775 74.625C142.213 75.5781 141.434 76.3203 140.439 76.8516C139.45 77.3776 138.314 77.6406 137.033 77.6406H133.455C132.168 77.6406 131.028 77.3802 130.033 76.8594C129.038 76.3333 128.257 75.5937 127.689 74.6406C127.127 73.6875 126.845 72.5625 126.845 71.2656C126.845 69.9427 127.129 68.7917 127.697 67.8125C128.27 66.8281 129.054 66.0677 130.049 65.5312C131.043 64.9896 132.179 64.7187 133.455 64.7187ZM133.455 67.5469C132.767 67.5469 132.161 67.6849 131.635 67.9609C131.114 68.2318 130.707 68.6432 130.416 69.1953C130.124 69.7474 129.978 70.4375 129.978 71.2656C129.978 72.0573 130.127 72.7161 130.424 73.2422C130.726 73.7682 131.137 74.1615 131.658 74.4219C132.179 74.6823 132.778 74.8125 133.455 74.8125H137.056C137.739 74.8125 138.335 74.6797 138.845 74.4141C139.361 74.1484 139.76 73.7526 140.041 73.2266C140.327 72.7005 140.47 72.0495 140.47 71.2734C140.47 70.4453 140.327 69.7552 140.041 69.2031C139.76 68.651 139.361 68.237 138.845 67.9609C138.335 67.6849 137.739 67.5469 137.056 67.5469H133.455ZM136.845 62.7188V79.6563H133.635V62.7188H136.845ZM158.859 65.7891V63H172V65.7891H167.101V79H163.758V65.7891H158.859Z" fill="white"/>
<g filter="url(#filter0_ii_5026_51196)">
<circle cx="141.479" cy="142.479" r="35.479" fill="#FFCA66"/>
</g>
<g filter="url(#filter1_ii_5026_51196)">
<circle cx="141.479" cy="142.479" r="25.0278" fill="#FFCA66"/>
</g>
<g filter="url(#filter2_ii_5026_51196)">
<circle cx="141.479" cy="218.479" r="35.479" fill="#FFCA66"/>
</g>
<g filter="url(#filter3_ii_5026_51196)">
<circle cx="141.479" cy="218.479" r="25.0278" fill="#FFCA66"/>
</g>
<g filter="url(#filter4_ii_5026_51196)">
<circle cx="294.479" cy="218.479" r="35.479" fill="#FFCA66"/>
</g>
<g filter="url(#filter5_ii_5026_51196)">
<circle cx="294.479" cy="218.479" r="25.0278" fill="#FFCA66"/>
</g>
<g filter="url(#filter6_ii_5026_51196)">
<circle cx="65.479" cy="294.479" r="35.479" fill="#FFCA66"/>
</g>
<g filter="url(#filter7_ii_5026_51196)">
<circle cx="65.479" cy="294.479" r="25.0278" fill="#FFCA66"/>
</g>
<g filter="url(#filter8_ii_5026_51196)">
<circle cx="218.479" cy="142.479" r="35.479" fill="#FFCA66"/>
</g>
<g filter="url(#filter9_ii_5026_51196)">
<circle cx="218.479" cy="142.479" r="25.0278" fill="#FFCA66"/>
</g>
<circle cx="65.479" cy="218.479" r="35.479" fill="#3B4145"/>
<path d="M62.6 206H67.4C68.0365 206 68.647 206.257 69.0971 206.714C69.5471 207.172 69.8 207.792 69.8 208.439V210.878H74.6C75.2365 210.878 75.847 211.135 76.2971 211.592C76.7471 212.05 77 212.67 77 213.317V220.061C75.6821 218.857 73.972 218.192 72.2 218.195C70.9365 218.196 69.6954 218.535 68.6013 219.177C67.5072 219.819 66.5985 220.743 65.9663 221.855C65.3342 222.967 65.0009 224.228 64.9998 225.512C64.9987 226.796 65.3298 228.058 65.96 229.171H55.4C54.7635 229.171 54.153 228.914 53.7029 228.456C53.2529 227.999 53 227.379 53 226.732V213.317C53 211.963 54.068 210.878 55.4 210.878H60.2V208.439C60.2 207.085 61.268 206 62.6 206ZM67.4 210.878V208.439H62.6V210.878H67.4ZM73.4 226.122V224.293H68.6V221.854H73.4V220.024L77 223.073L73.4 226.122ZM71 226.732H75.8V229.171H71V231L67.4 227.951L71 224.902V226.732Z" fill="white"/>
<circle cx="218.174" cy="294.479" r="35.479" fill="#3B4145"/>
<path d="M207.54 288H228.025L228.112 288.003C228.888 288.032 229.622 288.36 230.16 288.919C230.699 289.478 231 290.224 231 291V303C231 303.795 230.684 304.558 230.121 305.121C229.559 305.684 228.796 306 228 306H209C208.204 306 207.441 305.684 206.879 305.121C206.316 304.558 206 303.795 206 303V291L206.002 290.897L206.007 290.807C205.972 290.242 206.097 289.679 206.369 289.182C206.64 288.686 207.046 288.276 207.54 288ZM223 295C222.47 295 221.961 295.21 221.586 295.585C221.211 295.961 221 296.469 221 297C221 297.53 221.211 298.039 221.586 298.414C221.961 298.789 222.47 299 223 299C223.53 299 224.039 298.789 224.414 298.414C224.789 298.039 225 297.53 225 297C225 296.469 224.789 295.961 224.414 295.585C224.039 295.21 223.53 295 223 295ZM227.924 284.225C227.991 284.477 228.026 284.738 228.026 285L228.025 286.5H211.712L224.25 282.102C225.018 281.896 225.837 282.004 226.526 282.402C227.215 282.8 227.718 283.455 227.924 284.224" fill="white"/>
<circle cx="294.522" cy="142.479" r="35.479" fill="#3B4145"/>
<path d="M289.578 141.573V147.872H292.997V141.573H296.416V147.872H299.835V141.573H303.254V147.872H305.689C305.95 147.872 306.2 147.976 306.385 148.16C306.569 148.344 306.673 148.594 306.673 148.854V149.581H307.399C307.66 149.581 307.91 149.685 308.094 149.869C308.278 150.053 308.382 150.304 308.382 150.564V153H281.031V150.564C281.031 150.304 281.135 150.053 281.319 149.869C281.504 149.685 281.753 149.581 282.014 149.581H282.74V148.854C282.74 148.594 282.844 148.344 283.028 148.16C283.213 147.976 283.463 147.872 283.724 147.872H286.159V141.573H289.578ZM307.938 136.615C308.123 136.733 308.257 136.919 308.31 137.133C308.362 137.347 308.329 137.574 308.219 137.765C308.108 137.955 307.929 138.096 307.718 138.157C307.506 138.219 307.278 138.196 307.083 138.094L305.818 137.367V140.18H283.596V137.342L282.313 138.094C282.216 138.156 282.107 138.197 281.993 138.216C281.88 138.234 281.763 138.231 281.651 138.203C281.539 138.176 281.434 138.126 281.342 138.057C281.25 137.988 281.173 137.9 281.115 137.801C281.058 137.701 281.02 137.59 281.006 137.476C280.992 137.361 281.002 137.245 281.034 137.135C281.066 137.024 281.12 136.92 281.193 136.831C281.266 136.742 281.357 136.669 281.459 136.615L294.707 129L307.938 136.615ZM294.92 132.489C294.8 132.489 294.682 132.521 294.578 132.581L288.844 135.906H291.587L294.92 133.991L298.254 135.906H301.006L295.263 132.581C295.159 132.521 295.04 132.489 294.92 132.489Z" fill="white"/>
<path d="M65.48 177.96C85.0751 177.96 100.96 162.075 100.96 142.48C100.96 122.885 85.0751 107 65.48 107C45.8849 107 30 122.885 30 142.48C30 162.075 45.8849 177.96 65.48 177.96Z" fill="#E4FF6A"/>
<mask id="mask0_5026_51196" style="mask-type:luminance" maskUnits="userSpaceOnUse" x="30" y="107" width="71" height="71">
<path d="M65.48 177.96C85.0751 177.96 100.96 162.075 100.96 142.48C100.96 122.885 85.0751 107 65.48 107C45.8849 107 30 122.885 30 142.48C30 162.075 45.8849 177.96 65.48 177.96Z" fill="white"/>
</mask>
<g mask="url(#mask0_5026_51196)">
<path d="M92.2593 162.726C92.0842 160.721 91.8998 158.678 91.0769 156.818C90.254 154.959 88.6753 153.278 86.5858 152.78C86.3659 152.728 85.9485 152.622 85.381 152.476C84.5476 152.226 83.6944 152.022 82.8636 151.819C77.0124 150.283 66.6397 147.514 66.6397 147.514C66.6358 147.518 66.6318 147.523 66.6279 147.527C66.6134 147.523 66.6002 147.519 66.5857 147.514C66.3224 147.806 65.855 148.079 65.2322 148.335C64.6108 148.079 64.1433 147.806 63.8787 147.514C63.8655 147.518 63.851 147.522 63.8366 147.527C63.8326 147.523 63.8287 147.518 63.8247 147.514C63.8247 147.514 53.4508 150.283 47.6008 151.819C46.77 152.022 45.9181 152.225 45.0834 152.476C44.5159 152.622 44.0985 152.728 43.8786 152.78C41.7891 153.277 40.2104 154.958 39.3875 156.818C38.5646 158.679 38.3803 160.721 38.2052 162.726C37.7614 167.803 37.3177 172.882 36.874 177.959C39.6838 177.959 42.4948 177.959 45.3046 177.959C45.323 177.959 45.3401 177.959 45.3586 177.959C46.0827 177.959 46.8056 177.959 47.5297 177.959C47.7654 177.959 47.9998 177.959 48.2328 177.959C54.0656 177.959 59.1848 177.959 64.2065 177.959C64.8925 177.959 65.5759 177.959 66.2592 177.959C71.2809 177.959 76.4001 177.959 82.2329 177.959C82.4673 177.959 82.7016 177.959 82.936 177.959C83.6602 177.959 84.383 177.959 85.1072 177.959C85.1256 177.959 85.1427 177.959 85.1612 177.959C87.9709 177.959 90.782 177.959 93.5917 177.959C93.148 172.882 92.7043 167.803 92.2606 162.726H92.2593Z" fill="white"/>
<path d="M71.5049 148.81C71.4957 148.818 71.4865 148.825 71.4759 148.833C67.8301 151.641 62.6082 151.629 58.9756 148.807C59.1573 145.997 59.339 143.186 59.522 140.376C61.4272 139.664 63.3324 138.95 65.2376 138.238V138.232C67.1441 138.946 69.0507 139.658 70.9572 140.372C71.1402 143.184 71.3219 145.998 71.5036 148.81H71.5049Z" fill="#F1B57D"/>
<path d="M59.4795 141.039C62.621 144.554 66.8475 147.057 71.4808 148.432C71.307 145.745 71.1332 143.057 70.9581 140.37C69.0516 139.656 67.1451 138.944 65.2386 138.23C65.2386 138.232 65.2386 138.234 65.2386 138.236C63.3334 138.948 61.4281 139.662 59.5229 140.374C59.5085 140.595 59.494 140.816 59.4795 141.038V141.039Z" fill="#DF944D"/>
<path d="M47.42 177.959C47.84 174.221 47.5794 170.423 46.659 166.928C46.4826 166.253 46.2811 165.591 46.0547 164.943C46.0165 165.977 45.9796 167.011 45.9414 168.043C45.9269 168.43 45.9138 168.816 45.8993 169.201C45.8927 172.12 45.8874 175.039 45.8809 177.957C46.3944 177.957 46.9065 177.957 47.42 177.957V177.959Z" fill="#C0C0C0"/>
<path d="M83.0466 177.959C82.6265 174.221 82.8872 170.423 83.8076 166.928C83.984 166.253 84.1855 165.591 84.4119 164.943C84.4501 165.977 84.487 167.011 84.5252 168.043C84.5396 168.43 84.5528 168.816 84.5673 169.201C84.5739 172.12 84.5791 175.039 84.5857 177.957C84.0722 177.957 83.5601 177.957 83.0466 177.957V177.959Z" fill="#C0C0C0"/>
<path d="M65.2272 154.43C69.6235 154.43 73.4273 152.547 75.2549 149.807C70.7506 148.61 66.6413 147.514 66.6413 147.514C66.6373 147.518 66.6334 147.523 66.6294 147.527C66.6149 147.523 66.6018 147.519 66.5873 147.514C66.324 147.806 65.8566 148.079 65.2351 148.335C64.6136 148.079 64.1462 147.806 63.8816 147.514C63.8684 147.518 63.8539 147.522 63.8394 147.527C63.8355 147.523 63.8315 147.518 63.8276 147.514C63.8276 147.514 59.7117 148.612 55.2021 149.81C57.031 152.547 60.8335 154.429 65.2272 154.429V154.43Z" fill="#F1B57D"/>
<path d="M75.8313 122.122C75.6312 119.854 74.6015 117.553 72.7648 116.022C70.7227 114.32 67.8774 114.067 65.2651 114.031C63.1413 114.002 60.9623 114.292 59.0136 115.127C56.1486 116.354 54.8714 119.294 54.6212 122.121C54.404 124.578 54.8951 127.035 55.3836 129.456C55.3836 129.456 65.2138 130.071 65.2138 130.072C65.2177 130.072 65.2217 130.072 65.2256 130.072H65.2375C68.5146 129.867 71.7905 129.661 75.0676 129.457C75.5561 127.036 76.0485 124.579 75.83 122.122H75.8313Z" fill="#3D3535"/>
<path d="M73.6564 125.578C72.6689 122.622 70.6004 120.446 68.3186 119.962C68.0369 119.903 67.7511 119.87 67.4667 119.866C66.7083 119.854 63.7696 119.854 63.0112 119.866C62.7268 119.87 62.4411 119.903 62.1593 119.962C59.8788 120.446 57.8104 122.621 56.8216 125.578C55.9855 128.078 55.9157 130.974 56.1961 133.711C56.4345 136.036 56.79 136.989 57.8446 138.802C59.0112 140.808 60.5754 142.303 62.2383 143.357C62.9888 143.832 67.4891 143.832 68.2383 143.357C69.9013 142.302 71.4654 140.806 72.632 138.802C73.6866 136.989 74.0408 136.036 74.2805 133.711C74.5609 130.972 74.4911 128.078 73.655 125.578H73.6564Z" fill="#F1B57D"/>
<path d="M74.2911 138.548C74.2477 137.274 74.2029 136.001 74.1594 134.728C73.5288 135.937 72.3701 136.783 71.0232 137.019C70.4728 137.115 69.9224 137.211 69.3721 137.307C69.3681 137.307 69.3642 137.309 69.3602 137.31C68.7453 137.415 68.1147 137.226 67.6301 136.832C67.4261 136.666 67.2207 136.5 67.0166 136.333C65.9738 135.486 64.4807 135.488 63.4392 136.337C63.2378 136.501 63.035 136.666 62.8335 136.831C62.3503 137.224 61.7223 137.414 61.1087 137.309C61.1048 137.309 61.1008 137.307 61.0969 137.306C60.5478 137.21 59.9988 137.114 59.4497 137.018C58.1068 136.782 56.9507 135.935 56.3214 134.727C56.2779 135.998 56.2345 137.272 56.1897 138.544C56.1054 140.983 57.7078 143.162 60.062 143.809C60.6492 143.97 61.2351 144.131 61.8224 144.292C64.0501 144.904 66.4004 144.906 68.6282 144.295C69.2207 144.133 69.8145 143.971 70.407 143.808C72.7677 143.161 74.3727 140.983 74.2898 138.545L74.2911 138.548Z" fill="#3D3535"/>
<path d="M57.4062 121.677C62.5109 121.677 67.6169 121.677 72.7229 121.677C71.6011 120.555 70.4794 119.434 69.3576 118.312C66.6689 118.292 63.9816 118.274 61.293 118.254C59.9974 119.394 58.7018 120.536 57.4062 121.677Z" fill="#3D3535"/>
<path d="M56.4845 129.788C56.4503 129.291 56.2356 128.847 55.9091 128.605C55.6366 128.404 55.3508 128.239 55.0467 128.13C54.5424 127.948 53.9526 128.038 53.5839 128.53C53.1731 129.079 53.1454 129.963 53.2745 130.718C53.547 132.315 54.3871 133.668 55.364 134.639C55.5391 134.815 55.7603 134.9 55.9763 134.855C56.5187 134.743 56.5951 133.985 56.599 133.365C56.6056 132.171 56.5674 130.975 56.4858 129.786L56.4845 129.788Z" fill="#F1B57D"/>
<path d="M73.9834 129.788C74.0177 129.291 74.2323 128.847 74.5588 128.605C74.8314 128.404 75.1171 128.239 75.4212 128.13C75.9242 127.948 76.5154 128.038 76.884 128.53C77.2948 129.079 77.3225 129.963 77.1935 130.718C76.9209 132.315 76.0809 133.668 75.1039 134.639C74.9288 134.815 74.7076 134.9 74.4917 134.855C73.9492 134.743 73.8728 133.985 73.8689 133.365C73.8623 132.171 73.9005 130.975 73.9821 129.786L73.9834 129.788Z" fill="#F1B57D"/>
</g>
<path d="M218.48 253.96C238.075 253.96 253.96 238.075 253.96 218.48C253.96 198.885 238.075 183 218.48 183C198.885 183 183 198.885 183 218.48C183 238.075 198.885 253.96 218.48 253.96Z" fill="#FFEAC2"/>
<mask id="mask1_5026_51196" style="mask-type:luminance" maskUnits="userSpaceOnUse" x="183" y="183" width="71" height="71">
<path d="M218.48 253.96C238.075 253.96 253.96 238.075 253.96 218.48C253.96 198.885 238.075 183 218.48 183C198.885 183 183 198.885 183 218.48C183 238.075 198.885 253.96 218.48 253.96Z" fill="white"/>
</mask>
<g mask="url(#mask1_5026_51196)">
<path d="M244.333 253.96C227.185 253.96 210.037 253.96 192.889 253.96C193.335 248.777 193.781 243.593 194.226 238.41C194.403 236.364 194.589 234.278 195.414 232.379C196.241 230.481 197.827 228.764 199.928 228.258C201.817 227.801 217.107 223.355 218.61 222.918C220.115 223.355 235.404 227.803 237.293 228.258C239.393 228.765 240.978 230.482 241.805 232.379C242.632 234.278 242.818 236.362 242.993 238.41C243.439 243.592 243.886 248.776 244.332 253.96H244.333Z" fill="#87E387"/>
<path d="M201.972 253.961C202.383 250.111 202.128 246.201 201.228 242.599C201.055 241.906 200.858 241.224 200.637 240.555C200.6 241.62 200.563 242.684 200.526 243.748C200.512 244.147 200.498 244.544 200.485 244.942C200.48 247.948 200.473 250.955 200.467 253.961C200.968 253.961 201.471 253.961 201.973 253.961H201.972Z" fill="#5FB55F"/>
<path d="M235.038 253.961C234.627 250.111 234.883 246.201 235.782 242.599C235.955 241.906 236.152 241.224 236.373 240.555C236.41 241.62 236.447 242.684 236.484 243.748C236.498 244.147 236.512 244.544 236.525 244.942C236.53 247.948 236.537 250.955 236.543 253.961C236.042 253.961 235.54 253.961 235.038 253.961Z" fill="#5FB55F"/>
<path d="M210.529 225.26C210.529 234.827 210.529 244.393 210.529 253.959H226.647C226.647 244.388 226.647 234.817 226.647 225.245C222.822 224.142 219.294 223.115 218.61 222.916C217.924 223.116 214.371 224.15 210.527 225.258L210.529 225.26Z" fill="#FFEAC2"/>
<path d="M218.432 222.97C218.35 222.994 218.253 223.023 218.141 223.054C218.066 223.077 217.986 223.099 217.899 223.125C217.754 223.167 217.594 223.214 217.418 223.265C217.388 223.274 217.355 223.283 217.323 223.293C217.285 223.303 217.248 223.315 217.209 223.325C217.206 223.325 217.205 223.325 217.203 223.327C217.007 223.383 216.794 223.445 216.567 223.511C216.552 223.516 216.536 223.52 216.52 223.526C216.474 223.539 216.427 223.553 216.381 223.566C216.263 223.601 216.145 223.635 216.021 223.67C215.951 223.69 215.881 223.711 215.81 223.732C215.767 223.744 215.723 223.757 215.68 223.77C215.435 223.842 215.177 223.917 214.911 223.993C214.894 223.998 214.877 224.002 214.861 224.007C214.777 224.032 214.691 224.056 214.604 224.083C214.591 224.086 214.578 224.09 214.565 224.094C213.348 224.447 211.959 224.849 210.529 225.261C210.529 225.989 210.529 226.716 210.529 227.444C212.248 229.559 215.214 230.955 218.589 230.955C221.963 230.955 224.931 229.559 226.648 227.444C226.648 226.712 226.648 225.979 226.648 225.246C226.623 225.24 226.599 225.232 226.574 225.225C226.574 225.225 226.573 225.225 226.571 225.225C226.329 225.156 226.087 225.086 225.849 225.016C225.801 225.002 225.753 224.988 225.705 224.975C225.634 224.955 225.564 224.934 225.494 224.915C225.422 224.894 225.35 224.873 225.277 224.851C225.234 224.838 225.19 224.826 225.147 224.813C225.097 224.799 225.047 224.784 224.997 224.77C224.677 224.678 224.362 224.587 224.054 224.497C223.921 224.459 223.788 224.421 223.658 224.383C223.411 224.312 223.169 224.242 222.934 224.173C222.843 224.147 222.753 224.121 222.665 224.096C222.639 224.088 222.614 224.081 222.587 224.073C222.429 224.027 222.274 223.982 222.122 223.939C221.962 223.893 221.806 223.847 221.654 223.803C221.591 223.785 221.529 223.768 221.468 223.749C221.261 223.689 221.064 223.632 220.874 223.577C220.785 223.551 220.698 223.526 220.612 223.501C220.396 223.437 220.194 223.379 220.005 223.324C219.953 223.308 219.901 223.294 219.851 223.279C219.65 223.22 219.467 223.167 219.305 223.121C219.21 223.094 219.122 223.069 219.043 223.045C219.015 223.037 218.987 223.029 218.961 223.021C218.894 223.002 218.832 222.983 218.779 222.969C218.714 222.949 218.657 222.933 218.614 222.92C218.583 222.929 218.545 222.94 218.504 222.952C218.483 222.958 218.461 222.965 218.436 222.971L218.432 222.97Z" fill="#F1B57D"/>
<path d="M234.766 212C233.998 209.249 231.696 207.178 230.667 204.514C229.989 202.754 229.988 200.758 229.168 199.054C227.59 195.777 224.291 193.57 220.748 192.97C218.899 192.657 216.981 192.736 215.158 193.162C215.04 193.19 214.924 193.219 214.807 193.249C213.189 193.673 211.643 194.413 210.363 195.499C210.108 195.716 209.861 195.947 209.628 196.188C208.466 197.389 207.602 198.871 207.182 200.492C206.836 201.831 206.654 203.218 206.155 204.514C205.128 207.178 202.824 209.249 202.058 212C201.713 213.236 201.746 214.686 202.586 215.657C203.279 216.46 204.37 216.776 205.405 217.015C208.318 217.685 211.302 218.048 214.292 218.093C215.701 218.114 217.199 218.039 218.362 217.243C218.379 217.231 218.396 217.218 218.413 217.206C218.43 217.218 218.447 217.231 218.464 217.243C219.627 218.039 221.125 218.114 222.534 218.093C225.523 218.047 228.508 217.685 231.422 217.015C232.455 216.776 233.547 216.46 234.241 215.657C235.079 214.686 235.114 213.237 234.769 212H234.766Z" fill="#242729"/>
<path d="M224.124 224.379C223.908 220.87 223.692 217.363 223.476 213.854C221.804 213.196 220.132 212.537 218.46 211.879C218.46 211.88 218.46 211.883 218.46 211.884C216.789 212.543 215.118 213.201 213.447 213.858C213.231 217.365 213.015 220.873 212.799 224.379C212.742 225.329 213.243 226.182 213.971 226.911C216.441 229.385 220.502 229.387 222.964 226.903C223.684 226.177 224.182 225.325 224.124 224.379Z" fill="#F1B57D"/>
<path d="M223.995 222.284C223.822 219.474 223.648 216.663 223.476 213.852C221.804 213.194 220.132 212.535 218.459 211.877C218.459 211.878 218.459 211.881 218.459 211.882C216.789 212.541 215.118 213.198 213.447 213.856C213.401 214.605 213.355 215.354 213.309 216.102C213.309 216.102 216.723 221.658 223.995 222.283V222.284Z" fill="#DF944D"/>
<path d="M210.527 227.443C213.155 230.835 215.783 234.228 218.411 237.62C221.157 234.228 223.901 230.836 226.646 227.445C221.273 227.445 215.899 227.445 210.527 227.445V227.443Z" fill="#F1B57D"/>
<path d="M225.852 201.982C224.987 199.255 223.174 197.248 221.174 196.803C220.927 196.747 220.678 196.717 220.428 196.713C219.763 196.702 217.187 196.702 216.522 196.713C216.272 196.717 216.023 196.747 215.776 196.803C213.777 197.248 211.963 199.255 211.098 201.982C210.366 204.289 210.304 206.959 210.55 209.486C210.759 211.632 211.07 212.51 211.994 214.184C213.016 216.034 214.388 217.413 215.846 218.385C216.503 218.824 217.212 219.29 217.94 219.464C218.018 219.489 218.098 219.507 218.183 219.517C218.28 219.529 218.378 219.535 218.475 219.533C218.572 219.535 218.67 219.529 218.767 219.517C218.852 219.507 218.933 219.489 219.01 219.464C219.738 219.29 220.446 218.824 221.104 218.385C222.563 217.412 223.933 216.032 224.956 214.184C225.88 212.512 226.191 211.632 226.4 209.486C226.645 206.959 226.584 204.289 225.852 201.982Z" fill="#F1B57D"/>
<path d="M210.881 205.862C210.849 205.404 210.65 204.992 210.349 204.768C210.096 204.581 209.833 204.429 209.551 204.328C209.085 204.161 208.539 204.243 208.197 204.698C207.817 205.206 207.792 206.024 207.91 206.723C208.163 208.202 208.94 209.453 209.843 210.352C210.005 210.514 210.209 210.593 210.409 210.551C210.912 210.448 210.982 209.745 210.986 209.172C210.993 208.067 210.957 206.961 210.881 205.861V205.862Z" fill="#F1B57D"/>
<path d="M226.061 205.862C226.093 205.404 226.292 204.992 226.593 204.768C226.846 204.581 227.109 204.429 227.391 204.328C227.857 204.161 228.405 204.243 228.745 204.698C229.124 205.206 229.15 206.024 229.032 206.723C228.78 208.202 228.002 209.453 227.099 210.352C226.937 210.514 226.733 210.593 226.533 210.551C226.031 210.448 225.958 209.745 225.956 209.172C225.949 208.067 225.985 206.961 226.061 205.861V205.862Z" fill="#F1B57D"/>
<path d="M210.986 200.609C216.148 200.609 221.309 200.609 226.47 200.609C225.301 198.855 224.133 197.1 222.964 195.346C221.046 194.999 219.127 194.651 217.209 194.305C215.845 194.652 214.482 195 213.118 195.346C212.407 197.1 211.697 198.854 210.986 200.609Z" fill="#242729"/>
<path d="M213.169 196.658C212.945 197.617 212.824 198.598 212.811 199.581C212.808 199.828 213.19 199.828 213.192 199.581C213.206 198.631 213.321 197.687 213.537 196.76C213.594 196.52 213.224 196.419 213.169 196.658Z" fill="#4C4A4A"/>
<path d="M223.702 196.973C224.159 197.866 224.487 198.821 224.683 199.804C224.703 199.906 224.824 199.964 224.919 199.937C225.024 199.908 225.072 199.804 225.052 199.702C224.849 198.685 224.504 197.702 224.033 196.78C223.921 196.561 223.591 196.754 223.702 196.973Z" fill="#4C4A4A"/>
<path d="M216.922 196.876C216.883 197.631 216.845 198.387 216.805 199.142C216.792 199.388 217.175 199.386 217.188 199.142C217.228 198.386 217.266 197.631 217.305 196.876C217.319 196.629 216.935 196.631 216.922 196.876Z" fill="#4C4A4A"/>
<path d="M220.036 197.804C220.08 198.066 220.125 198.326 220.171 198.588C220.188 198.687 220.315 198.752 220.407 198.721C220.514 198.687 220.558 198.592 220.54 198.486C220.494 198.224 220.45 197.963 220.404 197.701C220.387 197.602 220.261 197.538 220.169 197.568C220.062 197.602 220.016 197.697 220.036 197.804Z" fill="#4C4A4A"/>
</g>
<path d="M142.48 329.96C162.075 329.96 177.96 314.075 177.96 294.48C177.96 274.885 162.075 259 142.48 259C122.885 259 107 274.885 107 294.48C107 314.075 122.885 329.96 142.48 329.96Z" fill="#D5F9D4"/>
<mask id="mask2_5026_51196" style="mask-type:luminance" maskUnits="userSpaceOnUse" x="107" y="259" width="71" height="71">
<path d="M142.48 329.96C162.075 329.96 177.96 314.075 177.96 294.48C177.96 274.885 162.075 259 142.48 259C122.885 259 107 274.885 107 294.48C107 314.075 122.885 329.96 142.48 329.96Z" fill="white"/>
</mask>
<g mask="url(#mask2_5026_51196)">
<path d="M168.611 329.958C151.462 329.958 134.314 329.958 117.166 329.958C117.612 324.774 118.059 319.592 118.504 314.408C118.68 312.36 118.866 310.276 119.691 308.378C120.518 306.479 122.105 304.763 124.205 304.256C126.094 303.8 141.385 299.353 142.887 298.916C144.392 299.353 159.681 303.801 161.57 304.256C163.67 304.763 165.256 306.48 166.083 308.378C166.909 310.276 167.095 312.36 167.27 314.408C167.716 319.59 168.163 324.774 168.609 329.958H168.611Z" fill="#C59844"/>
<path d="M126.249 329.85C126.66 326 126.404 322.089 125.505 318.489C125.333 317.795 125.135 317.113 124.914 316.445C124.877 317.51 124.84 318.574 124.803 319.638C124.789 320.037 124.776 320.435 124.763 320.832C124.757 323.838 124.751 326.846 124.744 329.852C125.246 329.852 125.747 329.852 126.25 329.852L126.249 329.85Z" fill="#997127"/>
<path d="M159.318 329.85C158.907 326 159.162 322.089 160.062 318.489C160.234 317.795 160.431 317.113 160.653 316.445C160.69 317.51 160.726 318.574 160.763 319.638C160.778 320.037 160.791 320.435 160.804 320.832C160.811 323.838 160.816 326.846 160.823 329.852C160.321 329.852 159.819 329.852 159.318 329.852V329.85Z" fill="#997127"/>
<path d="M155.059 286.027C155.002 285.732 154.942 285.44 154.882 285.152C154.52 283.419 154.157 281.686 153.793 279.952C153.088 276.574 152.32 273.06 150.17 270.362C149.376 269.362 148.302 268.579 147.109 268.072C145.739 267.487 144.215 267.266 142.784 267.505C142.09 267.619 141.414 267.839 140.791 268.181C140.585 268.113 140.377 268.063 140.166 268.027C139.233 267.872 138.283 268.091 137.47 268.574C136.676 269.045 135.965 269.649 135.398 270.363C133.248 273.062 132.481 276.575 131.775 279.954C131.413 281.686 131.049 283.42 130.687 285.153C130.628 285.443 130.566 285.735 130.511 286.029C130.341 286.92 130.209 287.829 130.236 288.719V288.728C130.221 290.005 130.432 291.244 131.078 292.339C132.431 294.637 135.391 295.58 138.042 295.301C139.716 295.125 139.637 295.021 139.945 294.655C140.898 294.518 141.846 294.308 142.785 294.07C143.724 294.308 144.672 294.518 145.625 294.655C145.933 295.021 145.854 295.125 147.527 295.301C150.179 295.58 153.138 294.637 154.491 292.339C155.138 291.244 155.348 290.005 155.334 288.728C155.335 288.724 155.335 288.723 155.334 288.719C155.36 287.829 155.229 286.921 155.059 286.029V286.027Z" fill="#3D3535"/>
<path d="M148.608 300.375C148.392 296.866 148.177 293.359 147.961 289.85C146.288 289.192 144.616 288.533 142.944 287.875V287.88C141.273 288.539 139.602 289.196 137.932 289.854C137.716 293.362 137.5 296.868 137.284 300.375C137.226 301.325 137.728 302.178 138.456 302.907C140.927 305.381 144.986 305.383 147.448 302.899C148.17 302.173 148.666 301.321 148.608 300.375Z" fill="#F1B57D"/>
<path d="M148.479 298.282C148.306 295.471 148.133 292.661 147.96 289.85C146.288 289.192 144.616 288.533 142.944 287.875V287.88C141.273 288.539 139.602 289.196 137.931 289.854C137.885 290.603 137.839 291.352 137.793 292.1C137.793 292.1 141.207 297.656 148.479 298.281V298.282Z" fill="#DF944D"/>
<path d="M152.376 301.663C148.032 300.412 143.659 299.14 142.889 298.916C142.125 299.139 137.812 300.393 133.5 301.635C135.029 303.931 138.682 305.547 142.947 305.547C147.195 305.547 150.835 303.943 152.376 301.663Z" fill="#F1B57D"/>
<path d="M152.058 276.245C151.881 274.152 150.979 272.028 149.369 270.615C147.579 269.044 145.083 268.81 142.792 268.777C140.929 268.751 139.02 269.018 137.31 269.788C134.798 270.921 133.677 273.634 133.459 276.245C133.268 278.513 133.698 280.781 134.128 283.015C134.128 283.015 142.748 283.583 142.748 283.584C142.752 283.584 142.754 283.584 142.758 283.584H142.769C145.642 283.395 148.516 283.206 151.389 283.017C151.818 280.782 152.249 278.514 152.058 276.247V276.245Z" fill="#3D3535"/>
<path d="M150.15 277.947C149.284 275.219 147.469 273.21 145.469 272.763C145.222 272.708 144.971 272.678 144.721 272.674C144.056 272.663 141.48 272.663 140.813 272.674C140.563 272.678 140.313 272.708 140.066 272.763C138.066 273.208 136.251 275.218 135.385 277.947C134.653 280.255 134.591 282.927 134.837 285.455C135.046 287.602 135.357 288.482 136.283 290.155C137.306 292.006 138.678 293.386 140.135 294.359C140.794 294.798 141.503 295.265 142.231 295.438C142.309 295.463 142.389 295.481 142.474 295.492C142.571 295.503 142.669 295.509 142.766 295.507C142.863 295.509 142.961 295.503 143.058 295.492C143.143 295.481 143.224 295.463 143.301 295.438C144.029 295.264 144.738 294.798 145.397 294.359C146.856 293.386 148.228 292.005 149.249 290.155C150.175 288.482 150.486 287.602 150.695 285.455C150.941 282.927 150.879 280.255 150.147 277.947H150.15Z" fill="#F1B57D"/>
<path d="M135.168 281.829C135.137 281.369 134.938 280.958 134.636 280.735C134.384 280.548 134.12 280.396 133.837 280.295C133.371 280.128 132.823 280.209 132.482 280.666C132.103 281.174 132.077 281.993 132.195 282.692C132.447 284.172 133.226 285.425 134.13 286.324C134.293 286.486 134.496 286.565 134.697 286.524C135.2 286.42 135.27 285.718 135.274 285.144C135.28 284.038 135.245 282.932 135.168 281.83V281.829Z" fill="#F1B57D"/>
<path d="M150.359 281.829C150.39 281.369 150.589 280.958 150.892 280.735C151.145 280.548 151.408 280.396 151.691 280.295C152.157 280.128 152.705 280.209 153.046 280.666C153.425 281.174 153.452 281.993 153.333 282.692C153.08 284.172 152.302 285.425 151.399 286.324C151.237 286.486 151.033 286.565 150.831 286.524C150.328 286.42 150.257 285.718 150.255 285.144C150.248 284.038 150.284 282.932 150.36 281.83L150.359 281.829Z" fill="#F1B57D"/>
<path d="M151.164 274.261C150.573 272.707 149.852 271.082 148.416 270.124C147.173 269.298 145.592 269.097 144.073 268.99C143.063 268.918 141.982 268.889 141.106 269.366C140.541 269.672 140.144 270.181 139.95 270.752C139.851 271.04 139.805 271.342 139.816 271.643C139.829 271.988 140.003 272.308 140.278 272.519C140.356 272.577 140.432 272.636 140.51 272.694C140.51 272.694 140.777 271.459 142.905 271.475C143.692 271.543 144.445 271.89 145.054 272.371C145.765 272.939 146.293 273.68 146.734 274.452C148.207 277.022 148.799 279.991 150.436 282.473C151.443 283.996 152.844 285.306 154.472 286.249C153.754 282.171 152.645 278.156 151.166 274.263L151.164 274.261Z" fill="#3D3535"/>
<path d="M141.021 271.594C141.886 270.919 143.005 270.602 144.096 270.71C145.14 270.814 146.135 271.339 146.833 272.119C147.635 273.013 148.011 274.231 148.451 275.326C148.941 276.543 149.429 277.761 149.919 278.977C150.36 280.074 150.768 281.292 151.728 282.053C151.947 282.227 152.259 281.919 152.038 281.744C151.115 281.012 150.733 279.835 150.308 278.78C149.797 277.508 149.285 276.237 148.774 274.967C148.317 273.832 147.91 272.611 147.048 271.709C146.315 270.943 145.317 270.434 144.267 270.294C142.996 270.124 141.714 270.501 140.709 271.285C140.487 271.459 140.8 271.767 141.019 271.595L141.021 271.594Z" fill="#282424"/>
<path d="M143.331 271.914C142.913 271.914 142.516 271.992 142.155 272.133L142.151 272.134C142.144 272.137 142.139 272.139 142.134 272.142C141.981 272.205 140.968 272.62 140.525 272.694C140.284 272.733 140.614 272.832 141.001 272.92C140.555 273.41 140.285 274.042 140.285 274.733C140.285 276.289 141.649 277.551 143.331 277.551C145.012 277.551 146.376 276.289 146.376 274.733C146.376 273.177 145.013 271.915 143.331 271.915V271.914Z" fill="#F1B57D"/>
</g>
<path d="M294.48 329.96C314.075 329.96 329.96 314.075 329.96 294.48C329.96 274.885 314.075 259 294.48 259C274.885 259 259 274.885 259 294.48C259 314.075 274.885 329.96 294.48 329.96Z" fill="#8FCDB6"/>
<path d="M294.48 329.96C314.075 329.96 329.96 314.075 329.96 294.48C329.96 274.885 314.075 259 294.48 259C274.885 259 259 274.885 259 294.48C259 314.075 274.885 329.96 294.48 329.96Z" fill="#FFF36C"/>
<mask id="mask3_5026_51196" style="mask-type:luminance" maskUnits="userSpaceOnUse" x="259" y="259" width="71" height="71">
<path d="M294.48 329.96C314.075 329.96 329.96 314.075 329.96 294.48C329.96 274.885 314.075 259 294.48 259C274.885 259 259 274.885 259 294.48C259 314.075 274.885 329.96 294.48 329.96Z" fill="white"/>
</mask>
<g mask="url(#mask3_5026_51196)">
<path d="M321.937 314.713C321.761 312.707 321.576 310.662 320.753 308.802C319.93 306.94 318.349 305.259 316.258 304.761C316.038 304.708 315.62 304.603 315.052 304.457C314.217 304.205 313.364 304.002 312.533 303.8C306.678 302.262 296.296 299.49 296.296 299.49C296.292 299.494 296.288 299.498 296.284 299.503C296.27 299.499 296.256 299.496 296.242 299.49C295.979 299.783 295.51 300.056 294.888 300.313C294.267 300.056 293.798 299.783 293.535 299.49C293.522 299.494 293.507 299.498 293.493 299.503C293.489 299.499 293.485 299.496 293.481 299.49C293.481 299.49 283.099 302.262 277.244 303.8C276.413 304.002 275.56 304.207 274.725 304.457C274.156 304.603 273.739 304.709 273.519 304.761C271.427 305.259 269.848 306.94 269.024 308.802C268.201 310.663 268.015 312.707 267.84 314.713C267.397 319.794 266.952 324.877 266.508 329.958C269.32 329.958 272.133 329.958 274.945 329.958C274.963 329.958 274.981 329.958 274.999 329.958C275.723 329.958 276.447 329.958 277.171 329.958C277.407 329.958 277.641 329.958 277.876 329.958C283.714 329.958 288.836 329.958 293.861 329.958C294.547 329.958 295.232 329.958 295.915 329.958C300.941 329.958 306.064 329.958 311.901 329.958C312.135 329.958 312.37 329.958 312.605 329.958C313.33 329.958 314.054 329.958 314.778 329.958C314.796 329.958 314.813 329.958 314.832 329.958C317.644 329.958 320.457 329.958 323.269 329.958C322.825 324.877 322.38 319.794 321.937 314.713Z" fill="#72E0C6"/>
<path d="M301.165 300.787C301.156 300.795 301.147 300.802 301.137 300.809C297.488 303.619 292.262 303.609 288.627 300.783C288.809 297.971 288.99 295.158 289.173 292.346C291.08 291.634 292.986 290.92 294.893 290.206C294.893 290.205 294.893 290.202 294.893 290.201C296.801 290.915 298.71 291.628 300.618 292.343C300.801 295.158 300.982 297.973 301.165 300.788V300.787Z" fill="#F1B57D"/>
<path d="M289.13 293.01C292.273 296.529 296.504 299.032 301.141 300.409C300.967 297.721 300.792 295.031 300.618 292.342C298.71 291.628 296.801 290.915 294.893 290.201V290.206C292.987 290.92 291.08 291.632 289.172 292.346C289.158 292.567 289.143 292.79 289.129 293.011L289.13 293.01Z" fill="#DF944D"/>
<path d="M277.063 329.957C277.483 326.217 277.222 322.417 276.302 318.917C276.125 318.243 275.922 317.581 275.697 316.932C275.659 317.967 275.622 319 275.584 320.034C275.57 320.421 275.556 320.808 275.542 321.194C275.537 324.115 275.53 327.036 275.523 329.957C276.037 329.957 276.55 329.957 277.063 329.957Z" fill="#50B69E"/>
<path d="M312.716 329.957C312.296 326.217 312.557 322.417 313.478 318.917C313.654 318.243 313.855 317.581 314.082 316.932C314.119 317.967 314.157 319 314.195 320.034C314.21 320.421 314.223 320.808 314.237 321.194C314.244 324.115 314.249 327.036 314.256 329.957C313.742 329.957 313.229 329.957 312.715 329.957H312.716Z" fill="#50B69E"/>
<path d="M304.837 301.764C301.521 302.028 298.204 302.293 294.887 302.559C291.556 302.298 288.224 302.038 284.893 301.777C284.893 301.777 286.635 313.134 294.774 313.404C294.774 313.408 294.771 313.411 294.77 313.411C294.81 313.411 294.848 313.408 294.887 313.407C294.927 313.407 294.965 313.41 295.005 313.411C295.005 313.411 295.002 313.408 295.001 313.404C303.14 313.134 304.837 301.764 304.837 301.764Z" fill="white"/>
<path d="M294.86 306.313C299.217 306.313 302.99 304.463 304.837 301.762C300.361 300.573 296.296 299.488 296.296 299.488C296.292 299.492 296.288 299.496 296.284 299.501C296.27 299.497 296.257 299.494 296.242 299.488C295.979 299.781 295.51 300.054 294.889 300.311C294.267 300.054 293.798 299.781 293.535 299.488C293.522 299.492 293.507 299.496 293.493 299.501C293.489 299.497 293.485 299.494 293.481 299.488C293.481 299.488 289.388 300.581 284.893 301.775C286.742 304.468 290.511 306.313 294.861 306.313H294.86Z" fill="#F1B57D"/>
<path d="M284.79 277.134C284.844 274.007 284.673 271.448 286.954 268.96C289.222 266.486 292.959 265.63 296.183 266.197C297.006 266.342 301.133 267.185 299.907 268.67C299.862 268.724 299.808 268.777 299.742 268.828C299.479 269.038 299.289 269.558 299.623 269.901C300.114 270.407 299.939 271.268 299.544 271.851C298.971 272.699 298.036 273.256 297.051 273.534C296.066 273.812 295.027 273.834 294.004 273.788C293.15 273.75 292.21 273.691 291.532 274.211C290.769 274.795 290.639 275.868 290.253 276.748C289.513 278.436 287.567 279.504 285.746 279.223C285.806 278.911 285.204 277.153 284.789 277.131L284.79 277.134Z" fill="#3D3535"/>
<path d="M304.925 275.906C304.736 273.646 303.76 271.352 302.022 269.826C300.088 268.129 297.394 267.877 294.92 267.842C292.908 267.813 290.845 268.101 289 268.933C286.287 270.156 285.078 273.086 284.841 275.906C284.636 278.355 285.1 280.804 285.564 283.218C285.564 283.218 294.873 283.831 294.873 283.833C294.877 283.833 294.88 283.833 294.883 283.833C294.883 283.833 294.895 283.833 294.894 283.833C297.997 283.629 301.099 283.424 304.202 283.219C304.666 280.806 305.131 278.357 304.925 275.908V275.906Z" fill="#3D3535"/>
<path d="M304.975 277.134C304.921 274.007 305.094 271.448 302.812 268.96C300.543 266.486 296.807 265.63 293.582 266.197C292.758 266.342 288.633 267.185 289.859 268.67C289.903 268.724 289.957 268.777 290.023 268.828C290.287 269.038 290.476 269.558 290.143 269.901C289.652 270.407 289.827 271.268 290.222 271.851C290.795 272.699 291.73 273.256 292.715 273.534C293.699 273.812 294.738 273.834 295.761 273.788C296.616 273.75 297.556 273.691 298.234 274.211C298.996 274.795 299.127 275.868 299.512 276.748C300.254 278.436 302.198 279.504 304.019 279.223C303.96 278.911 304.562 277.153 304.977 277.131L304.975 277.134Z" fill="#3D3535"/>
<path d="M302.865 277.745C301.93 274.798 299.971 272.629 297.81 272.148C297.543 272.089 297.273 272.056 297.003 272.052C296.284 272.04 293.502 272.04 292.783 272.052C292.513 272.056 292.243 272.089 291.976 272.148C289.815 272.63 287.858 274.798 286.921 277.745C286.13 280.238 286.064 283.122 286.33 285.852C286.557 288.17 286.892 289.12 287.89 290.927C288.995 292.926 290.476 294.417 292.051 295.467C292.762 295.941 297.023 295.941 297.734 295.467C299.309 294.417 300.79 292.925 301.894 290.927C302.892 289.121 303.23 288.17 303.455 285.852C303.721 283.122 303.655 280.238 302.864 277.745H302.865Z" fill="#F1B57D"/>
<path d="M286.687 281.934C286.652 281.438 286.438 280.994 286.111 280.752C285.839 280.55 285.553 280.386 285.249 280.276C284.745 280.095 284.155 280.184 283.786 280.677C283.375 281.226 283.348 282.109 283.477 282.865C283.749 284.462 284.589 285.814 285.566 286.786C285.741 286.961 285.962 287.047 286.178 287.002C286.721 286.89 286.797 286.131 286.801 285.511C286.808 284.317 286.77 283.122 286.688 281.933L286.687 281.934Z" fill="#F1B57D"/>
<path d="M303.09 281.934C303.124 281.438 303.339 280.994 303.665 280.752C303.938 280.55 304.222 280.386 304.528 280.276C305.031 280.095 305.623 280.184 305.99 280.677C306.401 281.226 306.429 282.109 306.3 282.865C306.027 284.462 305.187 285.814 304.21 286.786C304.035 286.961 303.815 287.047 303.598 287.002C303.056 286.89 302.979 286.131 302.975 285.511C302.969 284.317 303.007 283.122 303.089 281.933L303.09 281.934Z" fill="#F1B57D"/>
<path d="M286.246 277.778C286.246 277.778 291.825 275.428 294.479 271.338C294.566 271.338 287.735 270.947 287.735 270.947C287.239 273.224 286.742 275.502 286.246 277.778Z" fill="#3D3535"/>
<path d="M292.71 271.076C292.507 272.546 292.304 274.016 292.102 275.486C292.102 275.486 298.281 274.673 299.992 271.715C300.079 271.628 292.711 271.076 292.711 271.076H292.71Z" fill="#3D3535"/>
</g>
</g>
<defs>
<filter id="filter0_ii_5026_51196" x="106" y="107" width="70.959" height="70.959" filterUnits="userSpaceOnUse" color-interpolation-filters="sRGB">
<feFlood flood-opacity="0" result="BackgroundImageFix"/>
<feBlend mode="normal" in="SourceGraphic" in2="BackgroundImageFix" result="shape"/>
<feColorMatrix in="SourceAlpha" type="matrix" values="0 0 0 0 0 0 0 0 0 0 0 0 0 0 0 0 0 0 127 0" result="hardAlpha"/>
<feOffset dx="1" dy="1"/>
<feComposite in2="hardAlpha" operator="arithmetic" k2="-1" k3="1"/>
<feColorMatrix type="matrix" values="0 0 0 0 1 0 0 0 0 0.898039 0 0 0 0 0.529412 0 0 0 1 0"/>
<feBlend mode="normal" in2="shape" result="effect1_innerShadow_5026_51196"/>
<feColorMatrix in="SourceAlpha" type="matrix" values="0 0 0 0 0 0 0 0 0 0 0 0 0 0 0 0 0 0 127 0" result="hardAlpha"/>
<feOffset dx="-1" dy="-1"/>
<feComposite in2="hardAlpha" operator="arithmetic" k2="-1" k3="1"/>
<feColorMatrix type="matrix" values="0 0 0 0 0.929412 0 0 0 0 0.686275 0 0 0 0 0.219608 0 0 0 1 0"/>
<feBlend mode="normal" in2="effect1_innerShadow_5026_51196" result="effect2_innerShadow_5026_51196"/>
</filter>
<filter id="filter1_ii_5026_51196" x="116.451" y="117.451" width="50.0566" height="50.0566" filterUnits="userSpaceOnUse" color-interpolation-filters="sRGB">
<feFlood flood-opacity="0" result="BackgroundImageFix"/>
<feBlend mode="normal" in="SourceGraphic" in2="BackgroundImageFix" result="shape"/>
<feColorMatrix in="SourceAlpha" type="matrix" values="0 0 0 0 0 0 0 0 0 0 0 0 0 0 0 0 0 0 127 0" result="hardAlpha"/>
<feOffset dx="-1" dy="-1"/>
<feComposite in2="hardAlpha" operator="arithmetic" k2="-1" k3="1"/>
<feColorMatrix type="matrix" values="0 0 0 0 1 0 0 0 0 0.898259 0 0 0 0 0.530424 0 0 0 1 0"/>
<feBlend mode="normal" in2="shape" result="effect1_innerShadow_5026_51196"/>
<feColorMatrix in="SourceAlpha" type="matrix" values="0 0 0 0 0 0 0 0 0 0 0 0 0 0 0 0 0 0 127 0" result="hardAlpha"/>
<feOffset dx="1" dy="1"/>
<feComposite in2="hardAlpha" operator="arithmetic" k2="-1" k3="1"/>
<feColorMatrix type="matrix" values="0 0 0 0 0.93134 0 0 0 0 0.685067 0 0 0 0 0.220399 0 0 0 1 0"/>
<feBlend mode="normal" in2="effect1_innerShadow_5026_51196" result="effect2_innerShadow_5026_51196"/>
</filter>
<filter id="filter2_ii_5026_51196" x="106" y="183" width="70.959" height="70.959" filterUnits="userSpaceOnUse" color-interpolation-filters="sRGB">
<feFlood flood-opacity="0" result="BackgroundImageFix"/>
<feBlend mode="normal" in="SourceGraphic" in2="BackgroundImageFix" result="shape"/>
<feColorMatrix in="SourceAlpha" type="matrix" values="0 0 0 0 0 0 0 0 0 0 0 0 0 0 0 0 0 0 127 0" result="hardAlpha"/>
<feOffset dx="1" dy="1"/>
<feComposite in2="hardAlpha" operator="arithmetic" k2="-1" k3="1"/>
<feColorMatrix type="matrix" values="0 0 0 0 1 0 0 0 0 0.898039 0 0 0 0 0.529412 0 0 0 1 0"/>
<feBlend mode="normal" in2="shape" result="effect1_innerShadow_5026_51196"/>
<feColorMatrix in="SourceAlpha" type="matrix" values="0 0 0 0 0 0 0 0 0 0 0 0 0 0 0 0 0 0 127 0" result="hardAlpha"/>
<feOffset dx="-1" dy="-1"/>
<feComposite in2="hardAlpha" operator="arithmetic" k2="-1" k3="1"/>
<feColorMatrix type="matrix" values="0 0 0 0 0.929412 0 0 0 0 0.686275 0 0 0 0 0.219608 0 0 0 1 0"/>
<feBlend mode="normal" in2="effect1_innerShadow_5026_51196" result="effect2_innerShadow_5026_51196"/>
</filter>
<filter id="filter3_ii_5026_51196" x="116.451" y="193.451" width="50.0566" height="50.0566" filterUnits="userSpaceOnUse" color-interpolation-filters="sRGB">
<feFlood flood-opacity="0" result="BackgroundImageFix"/>
<feBlend mode="normal" in="SourceGraphic" in2="BackgroundImageFix" result="shape"/>
<feColorMatrix in="SourceAlpha" type="matrix" values="0 0 0 0 0 0 0 0 0 0 0 0 0 0 0 0 0 0 127 0" result="hardAlpha"/>
<feOffset dx="-1" dy="-1"/>
<feComposite in2="hardAlpha" operator="arithmetic" k2="-1" k3="1"/>
<feColorMatrix type="matrix" values="0 0 0 0 1 0 0 0 0 0.898259 0 0 0 0 0.530424 0 0 0 1 0"/>
<feBlend mode="normal" in2="shape" result="effect1_innerShadow_5026_51196"/>
<feColorMatrix in="SourceAlpha" type="matrix" values="0 0 0 0 0 0 0 0 0 0 0 0 0 0 0 0 0 0 127 0" result="hardAlpha"/>
<feOffset dx="1" dy="1"/>
<feComposite in2="hardAlpha" operator="arithmetic" k2="-1" k3="1"/>
<feColorMatrix type="matrix" values="0 0 0 0 0.93134 0 0 0 0 0.685067 0 0 0 0 0.220399 0 0 0 1 0"/>
<feBlend mode="normal" in2="effect1_innerShadow_5026_51196" result="effect2_innerShadow_5026_51196"/>
</filter>
<filter id="filter4_ii_5026_51196" x="259" y="183" width="70.959" height="70.959" filterUnits="userSpaceOnUse" color-interpolation-filters="sRGB">
<feFlood flood-opacity="0" result="BackgroundImageFix"/>
<feBlend mode="normal" in="SourceGraphic" in2="BackgroundImageFix" result="shape"/>
<feColorMatrix in="SourceAlpha" type="matrix" values="0 0 0 0 0 0 0 0 0 0 0 0 0 0 0 0 0 0 127 0" result="hardAlpha"/>
<feOffset dx="1" dy="1"/>
<feComposite in2="hardAlpha" operator="arithmetic" k2="-1" k3="1"/>
<feColorMatrix type="matrix" values="0 0 0 0 1 0 0 0 0 0.898039 0 0 0 0 0.529412 0 0 0 1 0"/>
<feBlend mode="normal" in2="shape" result="effect1_innerShadow_5026_51196"/>
<feColorMatrix in="SourceAlpha" type="matrix" values="0 0 0 0 0 0 0 0 0 0 0 0 0 0 0 0 0 0 127 0" result="hardAlpha"/>
<feOffset dx="-1" dy="-1"/>
<feComposite in2="hardAlpha" operator="arithmetic" k2="-1" k3="1"/>
<feColorMatrix type="matrix" values="0 0 0 0 0.929412 0 0 0 0 0.686275 0 0 0 0 0.219608 0 0 0 1 0"/>
<feBlend mode="normal" in2="effect1_innerShadow_5026_51196" result="effect2_innerShadow_5026_51196"/>
</filter>
<filter id="filter5_ii_5026_51196" x="269.451" y="193.451" width="50.0566" height="50.0566" filterUnits="userSpaceOnUse" color-interpolation-filters="sRGB">
<feFlood flood-opacity="0" result="BackgroundImageFix"/>
<feBlend mode="normal" in="SourceGraphic" in2="BackgroundImageFix" result="shape"/>
<feColorMatrix in="SourceAlpha" type="matrix" values="0 0 0 0 0 0 0 0 0 0 0 0 0 0 0 0 0 0 127 0" result="hardAlpha"/>
<feOffset dx="-1" dy="-1"/>
<feComposite in2="hardAlpha" operator="arithmetic" k2="-1" k3="1"/>
<feColorMatrix type="matrix" values="0 0 0 0 1 0 0 0 0 0.898259 0 0 0 0 0.530424 0 0 0 1 0"/>
<feBlend mode="normal" in2="shape" result="effect1_innerShadow_5026_51196"/>
<feColorMatrix in="SourceAlpha" type="matrix" values="0 0 0 0 0 0 0 0 0 0 0 0 0 0 0 0 0 0 127 0" result="hardAlpha"/>
<feOffset dx="1" dy="1"/>
<feComposite in2="hardAlpha" operator="arithmetic" k2="-1" k3="1"/>
<feColorMatrix type="matrix" values="0 0 0 0 0.93134 0 0 0 0 0.685067 0 0 0 0 0.220399 0 0 0 1 0"/>
<feBlend mode="normal" in2="effect1_innerShadow_5026_51196" result="effect2_innerShadow_5026_51196"/>
</filter>
<filter id="filter6_ii_5026_51196" x="30" y="259" width="70.958" height="70.959" filterUnits="userSpaceOnUse" color-interpolation-filters="sRGB">
<feFlood flood-opacity="0" result="BackgroundImageFix"/>
<feBlend mode="normal" in="SourceGraphic" in2="BackgroundImageFix" result="shape"/>
<feColorMatrix in="SourceAlpha" type="matrix" values="0 0 0 0 0 0 0 0 0 0 0 0 0 0 0 0 0 0 127 0" result="hardAlpha"/>
<feOffset dx="1" dy="1"/>
<feComposite in2="hardAlpha" operator="arithmetic" k2="-1" k3="1"/>
<feColorMatrix type="matrix" values="0 0 0 0 1 0 0 0 0 0.898039 0 0 0 0 0.529412 0 0 0 1 0"/>
<feBlend mode="normal" in2="shape" result="effect1_innerShadow_5026_51196"/>
<feColorMatrix in="SourceAlpha" type="matrix" values="0 0 0 0 0 0 0 0 0 0 0 0 0 0 0 0 0 0 127 0" result="hardAlpha"/>
<feOffset dx="-1" dy="-1"/>
<feComposite in2="hardAlpha" operator="arithmetic" k2="-1" k3="1"/>
<feColorMatrix type="matrix" values="0 0 0 0 0.929412 0 0 0 0 0.686275 0 0 0 0 0.219608 0 0 0 1 0"/>
<feBlend mode="normal" in2="effect1_innerShadow_5026_51196" result="effect2_innerShadow_5026_51196"/>
</filter>
<filter id="filter7_ii_5026_51196" x="40.4512" y="269.451" width="50.0557" height="50.0566" filterUnits="userSpaceOnUse" color-interpolation-filters="sRGB">
<feFlood flood-opacity="0" result="BackgroundImageFix"/>
<feBlend mode="normal" in="SourceGraphic" in2="BackgroundImageFix" result="shape"/>
<feColorMatrix in="SourceAlpha" type="matrix" values="0 0 0 0 0 0 0 0 0 0 0 0 0 0 0 0 0 0 127 0" result="hardAlpha"/>
<feOffset dx="-1" dy="-1"/>
<feComposite in2="hardAlpha" operator="arithmetic" k2="-1" k3="1"/>
<feColorMatrix type="matrix" values="0 0 0 0 1 0 0 0 0 0.898259 0 0 0 0 0.530424 0 0 0 1 0"/>
<feBlend mode="normal" in2="shape" result="effect1_innerShadow_5026_51196"/>
<feColorMatrix in="SourceAlpha" type="matrix" values="0 0 0 0 0 0 0 0 0 0 0 0 0 0 0 0 0 0 127 0" result="hardAlpha"/>
<feOffset dx="1" dy="1"/>
<feComposite in2="hardAlpha" operator="arithmetic" k2="-1" k3="1"/>
<feColorMatrix type="matrix" values="0 0 0 0 0.93134 0 0 0 0 0.685067 0 0 0 0 0.220399 0 0 0 1 0"/>
<feBlend mode="normal" in2="effect1_innerShadow_5026_51196" result="effect2_innerShadow_5026_51196"/>
</filter>
<filter id="filter8_ii_5026_51196" x="183" y="107" width="70.959" height="70.959" filterUnits="userSpaceOnUse" color-interpolation-filters="sRGB">
<feFlood flood-opacity="0" result="BackgroundImageFix"/>
<feBlend mode="normal" in="SourceGraphic" in2="BackgroundImageFix" result="shape"/>
<feColorMatrix in="SourceAlpha" type="matrix" values="0 0 0 0 0 0 0 0 0 0 0 0 0 0 0 0 0 0 127 0" result="hardAlpha"/>
<feOffset dx="1" dy="1"/>
<feComposite in2="hardAlpha" operator="arithmetic" k2="-1" k3="1"/>
<feColorMatrix type="matrix" values="0 0 0 0 1 0 0 0 0 0.898039 0 0 0 0 0.529412 0 0 0 1 0"/>
<feBlend mode="normal" in2="shape" result="effect1_innerShadow_5026_51196"/>
<feColorMatrix in="SourceAlpha" type="matrix" values="0 0 0 0 0 0 0 0 0 0 0 0 0 0 0 0 0 0 127 0" result="hardAlpha"/>
<feOffset dx="-1" dy="-1"/>
<feComposite in2="hardAlpha" operator="arithmetic" k2="-1" k3="1"/>
<feColorMatrix type="matrix" values="0 0 0 0 0.929412 0 0 0 0 0.686275 0 0 0 0 0.219608 0 0 0 1 0"/>
<feBlend mode="normal" in2="effect1_innerShadow_5026_51196" result="effect2_innerShadow_5026_51196"/>
</filter>
<filter id="filter9_ii_5026_51196" x="193.451" y="117.451" width="50.0566" height="50.0566" filterUnits="userSpaceOnUse" color-interpolation-filters="sRGB">
<feFlood flood-opacity="0" result="BackgroundImageFix"/>
<feBlend mode="normal" in="SourceGraphic" in2="BackgroundImageFix" result="shape"/>
<feColorMatrix in="SourceAlpha" type="matrix" values="0 0 0 0 0 0 0 0 0 0 0 0 0 0 0 0 0 0 127 0" result="hardAlpha"/>
<feOffset dx="-1" dy="-1"/>
<feComposite in2="hardAlpha" operator="arithmetic" k2="-1" k3="1"/>
<feColorMatrix type="matrix" values="0 0 0 0 1 0 0 0 0 0.898259 0 0 0 0 0.530424 0 0 0 1 0"/>
<feBlend mode="normal" in2="shape" result="effect1_innerShadow_5026_51196"/>
<feColorMatrix in="SourceAlpha" type="matrix" values="0 0 0 0 0 0 0 0 0 0 0 0 0 0 0 0 0 0 127 0" result="hardAlpha"/>
<feOffset dx="1" dy="1"/>
<feComposite in2="hardAlpha" operator="arithmetic" k2="-1" k3="1"/>
<feColorMatrix type="matrix" values="0 0 0 0 0.93134 0 0 0 0 0.685067 0 0 0 0 0.220399 0 0 0 1 0"/>
<feBlend mode="normal" in2="effect1_innerShadow_5026_51196" result="effect2_innerShadow_5026_51196"/>
</filter>
<clipPath id="clip0_5026_51196">
<rect width="360" height="360" rx="8" fill="white"/>
</clipPath>
</defs>
</svg>
