<svg width="360" height="360" viewBox="0 0 360 360" fill="none" xmlns="http://www.w3.org/2000/svg">
<g clip-path="url(#clip0_4793_22916)">
<rect width="360" height="360" rx="8" fill="#F6F6F6"/>
<g clip-path="url(#clip1_4793_22916)">
<path d="M122.728 30.5058C122.848 30.5055 122.967 30.5052 123.09 30.5049C123.483 30.504 123.876 30.5046 124.269 30.5052C124.543 30.5051 124.817 30.5049 125.091 30.5046C125.665 30.5044 126.239 30.5048 126.813 30.5056C127.547 30.5066 128.281 30.5061 129.016 30.505C129.582 30.5043 130.147 30.5046 130.713 30.505C130.984 30.5052 131.255 30.505 131.526 30.5046C131.905 30.5041 132.283 30.5048 132.662 30.5058C132.878 30.506 133.093 30.5061 133.315 30.5063C133.832 30.527 134.296 30.5922 134.798 30.711C134.798 30.8309 134.798 30.9507 134.798 31.0742C134.918 31.0742 135.038 31.0742 135.161 31.0742C135.531 31.8137 135.564 32.275 135.343 33.0723C135.007 33.6363 134.888 33.7691 134.253 33.9805C133.785 33.9933 133.322 33.9976 132.855 33.9919C132.727 33.9911 132.6 33.9903 132.468 33.9894C132.154 33.9873 131.84 33.984 131.525 33.9805C131.604 34.2584 131.604 34.2584 131.684 34.5418C131.974 35.704 132.101 36.8924 132.253 38.0789C132.283 38.3094 132.312 38.5399 132.344 38.7774C132.452 39.6059 132.559 40.4342 132.664 41.2629C132.712 41.6375 132.76 42.0121 132.81 42.3866C132.852 42.7185 132.852 42.7185 132.895 43.0571C132.965 43.6143 132.965 43.6143 133.162 44.1527C133.685 44.3765 133.685 44.3765 134.32 44.5614C136.965 45.4355 139.354 47.3184 141.161 49.4204C141.161 49.5402 141.161 49.6602 141.161 49.7837C141.282 49.7837 141.401 49.7837 141.525 49.7837C143.562 52.2755 145.19 55.781 145.162 59.0476C145.378 59.0467 145.595 59.0459 145.818 59.0451C147.859 59.0377 149.9 59.0323 151.941 59.0287C152.991 59.0268 154.04 59.0243 155.089 59.0201C156.102 59.0162 157.115 59.014 158.128 59.0131C158.514 59.0124 158.9 59.0111 159.286 59.0091C159.827 59.0065 160.369 59.0061 160.91 59.0063C161.07 59.005 161.23 59.0037 161.394 59.0023C162.187 59.005 162.803 59.0395 163.524 59.4109C163.524 59.5307 163.524 59.6506 163.524 59.7741C163.644 59.7741 163.764 59.7741 163.888 59.7741C163.928 60.031 163.966 60.2885 164.001 60.5461C164.033 60.7611 164.033 60.7611 164.065 60.9804C164.071 61.485 163.994 61.7224 163.706 62.1355C163.082 62.5411 162.528 62.554 161.794 62.574C161.567 62.581 161.34 62.5881 161.105 62.5953C160.75 62.6038 160.75 62.6038 160.388 62.6123C160.148 62.6194 159.909 62.6264 159.662 62.6336C159.071 62.6508 158.48 62.6663 157.888 62.6804C157.948 62.8603 158.008 63.0401 158.07 63.2254C158.244 64.9398 157.912 66.3829 156.831 67.7438C155.902 68.7375 154.867 69.1667 153.515 69.2566C151.774 69.2816 150.575 69.099 149.271 67.9013C148.2 66.7401 147.862 65.677 147.866 64.1109C147.866 63.9231 147.865 63.7353 147.864 63.5419C147.889 63.0438 147.889 63.0438 148.07 62.4988C147.11 62.4988 146.15 62.4988 145.162 62.4988C145.142 62.7161 145.124 62.9334 145.104 63.1573C144.903 64.9224 144.586 66.5784 143.706 68.1298C143.524 68.5001 143.342 68.871 143.161 69.2424C142.781 70.0014 142.411 70.7283 141.888 71.3994C141.768 71.3994 141.649 71.3994 141.525 71.3994C141.454 71.5557 141.454 71.5557 141.382 71.7151C141.142 72.1605 140.869 72.5061 140.537 72.8867C140.428 73.0128 140.319 73.139 140.208 73.2691C139.888 73.5792 139.888 73.5792 139.344 73.7608C139.344 73.8807 139.344 74.0005 139.344 74.1241C139.223 74.1241 139.103 74.1241 138.98 74.1241C138.98 74.244 138.98 74.3639 138.98 74.4874C138.637 74.7635 138.298 75.0132 137.934 75.2594C137.827 75.3324 137.719 75.4053 137.608 75.4806C133.584 78.1584 128.807 79.0176 124.071 78.1203C121.609 77.5568 118.914 76.5012 116.98 74.8507C116.98 74.7308 116.98 74.6109 116.98 74.4874C116.872 74.435 116.763 74.3825 116.651 74.3284C116.253 74.1241 116.253 74.1241 115.708 73.7608C115.708 73.6409 115.708 73.521 115.708 73.3975C115.588 73.3975 115.468 73.3975 115.344 73.3975C115.344 73.2776 115.344 73.1578 115.344 73.0342C115.224 73.0342 115.104 73.0342 114.98 73.0342C114.666 72.6894 114.666 72.6894 114.321 72.2395C114.149 72.0182 114.149 72.0182 113.973 71.7925C113.708 71.3994 113.708 71.3994 113.708 71.0362C113.588 71.0362 113.467 71.0362 113.344 71.0362C111.978 69.1029 111.196 66.954 110.617 64.6785C110.58 64.5645 110.545 64.4505 110.507 64.333C110.394 63.7316 110.435 63.1107 110.435 62.4988C109.415 62.4988 108.395 62.4988 107.344 62.4988C107.524 63.1282 107.524 63.1282 107.708 63.7703C107.751 65.1468 107.381 66.4402 106.617 67.5849C106.497 67.5849 106.377 67.5849 106.253 67.5849C106.253 67.7047 106.253 67.8247 106.253 67.9482C104.743 69.1798 103.267 69.38 101.345 69.2196C99.6596 68.7431 98.6377 67.7633 97.7312 66.3133C97.3225 65.2685 97.4573 63.9605 97.5265 62.8621C97.5868 62.7422 97.6463 62.6224 97.7081 62.4988C97.5533 62.5035 97.3985 62.5083 97.2385 62.5132C96.6609 62.5287 96.0833 62.5401 95.5058 62.5487C95.2557 62.5533 95.0064 62.5595 94.757 62.5673C94.3976 62.5784 94.0373 62.583 93.6778 62.5875C93.3533 62.5946 93.3533 62.5946 93.0229 62.6019C92.2637 62.4686 92.004 62.1818 91.5267 61.5906C91.3334 61.057 91.3334 61.057 91.3448 60.5007C91.7246 59.7699 92.0352 59.3518 92.7996 59.0476C93.1643 59.0029 93.1643 59.0029 93.5565 59.0039C93.7054 59.0034 93.855 59.0029 94.009 59.0023C94.2524 59.0044 94.2524 59.0044 94.501 59.0063C94.6729 59.0063 94.8449 59.0062 95.022 59.0061C95.5906 59.0064 96.1592 59.0093 96.7279 59.0121C97.1223 59.0128 97.5168 59.0133 97.9113 59.0136C98.9488 59.0151 99.9871 59.0186 101.025 59.0226C102.084 59.0264 103.143 59.028 104.202 59.0298C106.279 59.0337 108.357 59.0399 110.435 59.0476C110.433 58.8205 110.431 58.5934 110.428 58.3595C110.411 56.4831 111.182 54.7219 111.969 53.0533C112.037 52.91 112.104 52.7667 112.174 52.6191C112.609 51.727 113.088 50.9247 113.708 50.1469C113.828 50.1469 113.947 50.1469 114.072 50.1469C114.119 50.0112 114.166 49.8754 114.215 49.7354C115.311 47.2633 118.898 45.4177 121.302 44.455C121.707 44.3343 121.707 44.3343 122.434 44.3343C122.46 44.1497 122.484 43.9652 122.51 43.775C123.414 37.0209 123.414 37.0209 123.889 33.9805C123.716 33.9869 123.543 33.9932 123.365 33.9997C123.136 34.0046 122.908 34.0095 122.673 34.0146C122.335 34.0241 122.335 34.0241 121.989 34.0338C121.125 33.9626 120.674 33.675 120.071 33.0723C119.988 32.2301 119.954 31.8166 120.389 31.0856C121.098 30.4367 121.794 30.5064 122.728 30.5058ZM127.344 33.9805C126.986 35.4352 126.794 36.9009 126.605 38.3854C126.543 38.8708 126.48 39.3562 126.417 39.8414C126.389 40.0546 126.363 40.2677 126.334 40.4873C126.253 41.0647 126.253 41.0647 126.151 41.5045C126.043 42.1363 126.071 42.785 126.071 43.4261C127.211 43.4261 128.351 43.4261 129.525 43.4261C129.375 42.0761 129.212 40.7289 129.039 39.3819C128.991 39.0126 128.945 38.6432 128.898 38.2737C128.714 36.8368 128.504 35.4073 128.252 33.9805C127.952 33.9805 127.652 33.9805 127.344 33.9805ZM118.799 49.9653C118.678 50.0583 118.557 50.1512 118.432 50.247C118.182 50.445 117.943 50.6575 117.707 50.8736C117.707 50.9934 117.707 51.1133 117.707 51.2368C117.588 51.2368 117.468 51.2368 117.344 51.2368C117.344 51.3567 117.344 51.4766 117.344 51.6001C117.224 51.6001 117.104 51.6001 116.98 51.6001C116.7 51.9463 116.446 52.2886 116.197 52.656C116.123 52.7637 116.049 52.8714 115.974 52.9824C115.341 53.9325 114.829 54.8855 114.435 55.9596C114.363 56.1499 114.293 56.3403 114.219 56.5364C113.093 60.0481 113.454 63.8778 115.082 67.1534C115.286 67.542 115.494 67.9283 115.708 68.3114C115.851 68.572 115.851 68.572 115.996 68.838C116.124 69.0269 116.124 69.0269 116.253 69.2196C116.373 69.2196 116.493 69.2196 116.616 69.2196C116.658 69.317 116.699 69.4145 116.741 69.5148C117.063 70.096 117.442 70.5439 117.889 71.0362C118.01 71.0362 118.13 71.0362 118.253 71.0362C118.253 71.156 118.253 71.2759 118.253 71.3994C120.999 73.7685 124.668 75.2061 128.332 74.9982C130.484 74.7732 132.443 74.2337 134.434 73.3975C134.434 73.2776 134.434 73.1578 134.434 73.0342C134.597 72.9948 134.597 72.9948 134.764 72.9548C135.082 72.873 135.395 72.7747 135.707 72.6709C135.707 72.5511 135.707 72.4311 135.707 72.3076C135.835 72.2683 135.963 72.2289 136.096 72.1884C136.743 71.8849 137.183 71.4514 137.673 70.9453C137.764 70.8546 137.856 70.7641 137.95 70.6707C138.46 70.2117 138.46 70.2117 138.616 69.583C138.736 69.583 138.856 69.583 138.98 69.583C141.343 66.5073 142.33 62.658 141.838 58.8317C141.322 55.5909 139.656 52.1259 136.98 50.1469C136.86 50.1469 136.739 50.1469 136.616 50.1469C136.616 50.0271 136.616 49.9072 136.616 49.7837C133.798 47.2664 129.933 46.6649 126.29 46.8475C123.459 47.0577 120.989 48.2053 118.799 49.9653ZM101.345 63.0438C100.949 63.4387 100.818 63.6641 100.719 64.213C100.847 64.9627 101.264 65.3951 101.867 65.8365C102.425 66.0005 102.789 65.9303 103.344 65.7684C103.807 65.4181 104.024 65.1586 104.242 64.6218C104.258 63.9222 104.041 63.4709 103.708 62.8621C102.85 62.2458 102.197 62.5468 101.345 63.0438ZM151.524 63.2254C151.166 63.6924 151.159 63.9036 151.183 64.4969C151.37 65.1347 151.535 65.378 152.07 65.7684C152.607 65.959 152.959 66.0128 153.508 65.8422C153.873 65.6686 154.143 65.5053 154.434 65.2235C154.644 64.5961 154.644 64.5961 154.615 63.952C154.615 63.8209 154.615 63.6897 154.615 63.5546C154.307 62.9971 153.739 62.7359 153.161 62.4988C152.42 62.4988 152.106 62.7809 151.524 63.2254Z" fill="#E4002B"/>
<path d="M69.7089 94.649C70.2423 94.5828 70.2423 94.5828 70.8794 94.5925C71.194 94.5932 71.194 94.5932 71.515 94.594C72.0725 94.649 72.0725 94.649 72.6179 95.0126C72.8654 95.4632 73.0926 95.9101 73.3111 96.3749C73.7819 97.3668 74.2964 98.3112 74.8686 99.2489C75.3994 100.125 75.9058 101.014 76.4133 101.903C76.5211 102.09 76.6289 102.277 76.74 102.469C76.8417 102.647 76.9434 102.826 77.0482 103.01C77.1403 103.171 77.2324 103.331 77.3272 103.496C77.5269 103.913 77.5269 103.913 77.5269 104.458C77.6469 104.458 77.7668 104.458 77.8905 104.458C78.4359 105.479 78.4359 105.479 78.4359 106.093C78.5559 106.093 78.6759 106.093 78.7996 106.093C78.8955 106.291 78.8955 106.291 78.9935 106.493C79.5872 107.701 80.2246 108.866 80.9231 110.017C81.1631 110.452 81.1631 110.452 81.1631 110.815C81.6834 110.555 81.7818 110.139 82.0253 109.634C82.5801 108.534 83.2388 107.487 83.8662 106.427C84.4579 105.423 85.021 104.419 85.5266 103.368C85.6466 103.368 85.7666 103.368 85.8902 103.368C85.9041 103.246 85.9179 103.123 85.9321 102.997C86.1149 102.295 86.4729 101.738 86.8561 101.132C87.4312 100.2 87.9696 99.2741 88.4356 98.2822C88.5556 98.2822 88.6756 98.2822 88.7992 98.2822C88.8342 98.1223 88.8342 98.1223 88.8699 97.9602C89.0482 97.3111 89.3792 96.7497 89.697 96.1592C89.7952 95.9711 89.7952 95.9711 89.8955 95.78C90.3906 94.8528 90.3906 94.8528 90.7992 94.649C91.1398 94.6364 91.481 94.6334 91.8222 94.6379C92.0953 94.6401 92.0953 94.6401 92.3744 94.6423C92.5843 94.646 92.5843 94.646 92.7994 94.649C93.2408 95.5443 93.3092 96.4782 93.4238 97.4561C93.4581 97.7327 93.4581 97.7327 93.4931 98.0145C93.566 98.6034 93.6375 99.1916 93.7082 99.7805C93.7789 100.366 93.8503 100.952 93.9233 101.538C93.9679 101.903 94.0118 102.267 94.0557 102.631C94.1696 103.559 94.3229 104.461 94.5373 105.372C94.6392 105.828 94.701 106.282 94.7531 106.746C94.7836 107.013 94.7836 107.013 94.8156 107.285C94.8365 107.468 94.8573 107.652 94.8789 107.841C95.0791 109.522 95.3396 111.161 95.708 112.813C95.74 112.973 95.7713 113.132 95.804 113.297C95.9797 114.165 96.2409 114.918 96.6175 115.72C96.2536 116.083 96.2536 116.083 95.781 116.127C95.586 116.126 95.391 116.125 95.19 116.125C94.9794 116.125 94.768 116.124 94.5499 116.124C94.3289 116.122 94.1071 116.119 93.8786 116.117C93.5452 116.117 93.5452 116.117 93.205 116.116C91.5519 116.108 91.5519 116.108 91.3446 115.902C91.3407 115.538 91.3465 115.175 91.356 114.811C91.3696 112.552 90.9971 110.339 90.6502 108.11C90.4161 106.575 90.2421 105.033 90.0723 103.49C90.0511 103.298 90.0299 103.106 90.008 102.909C89.9804 102.654 89.9804 102.654 89.9522 102.393C89.8915 101.926 89.8067 101.468 89.7083 101.007C89.0791 102.147 88.4641 103.289 87.8902 104.458C87.7702 104.458 87.6502 104.458 87.5265 104.458C87.5035 104.565 87.4804 104.671 87.4567 104.781C87.2773 105.427 86.9175 105.981 86.5834 106.558C86.4332 106.821 86.2831 107.083 86.1332 107.347C86.0599 107.474 85.9868 107.602 85.9114 107.734C85.652 108.19 85.401 108.651 85.1516 109.113C84.6676 110.005 84.1646 110.886 83.6566 111.766C83.3547 112.289 83.062 112.813 82.7994 113.358C82.6794 113.358 82.5594 113.358 82.4358 113.358C82.4049 113.512 82.4049 113.512 82.3733 113.669C82.2389 114.138 82.0408 114.513 81.7995 114.936C81.7189 115.08 81.6382 115.223 81.5551 115.37C81.3449 115.72 81.3449 115.72 81.1631 115.902C80.4755 116.068 79.9841 116.026 79.345 115.72C78.7543 114.889 78.3497 113.993 77.9221 113.07C77.5752 112.358 77.165 111.685 76.7542 111.009C76.191 110.067 75.6645 109.124 75.1881 108.136C74.8808 107.528 74.5228 106.954 74.1676 106.373C73.7967 105.755 73.4556 105.122 73.113 104.487C72.4761 103.319 71.8177 102.164 71.1635 101.007C70.6825 103.583 70.3991 106.169 70.1345 108.775C70.0808 109.284 70.0216 109.792 69.9575 110.3C69.7223 112.175 69.6687 114.012 69.7089 115.902C69.2914 116.11 69.0575 116.104 68.5939 116.101C68.4475 116.1 68.301 116.099 68.1501 116.099C67.9204 116.097 67.9204 116.097 67.6863 116.094C67.5319 116.093 67.3774 116.093 67.2182 116.092C66.8364 116.09 66.4545 116.087 66.0727 116.083C65.9044 115.635 65.8298 115.313 66.0272 114.865C66.0905 114.753 66.1538 114.64 66.219 114.524C66.7261 113.593 66.8526 112.648 67.0045 111.61C67.0348 111.416 67.0651 111.222 67.0964 111.022C67.1821 110.469 67.2646 109.916 67.3454 109.362C67.3645 109.232 67.3838 109.1 67.4036 108.965C67.4777 108.455 67.5494 107.944 67.6195 107.433C67.7242 106.715 67.8472 106.001 67.9704 105.287C68.2222 103.817 68.4194 102.341 68.6073 100.862C68.75 99.7404 68.9105 98.6242 69.091 97.5081C69.1853 96.8612 69.2395 96.2135 69.2828 95.5614C69.3453 95.1941 69.3453 95.1941 69.7089 94.649Z" fill="#242424"/>
<path d="M43.346 88.2906C43.6409 88.5851 43.5515 88.9123 43.552 89.3183C43.5522 89.4886 43.5525 89.6596 43.5527 89.8351C43.552 90.015 43.5513 90.195 43.5506 90.3794C43.5513 90.5593 43.552 90.7385 43.5527 90.9237C43.5525 91.0947 43.5522 91.265 43.552 91.4412C43.5518 91.5989 43.5516 91.7565 43.5514 91.9194C43.5279 92.2867 43.5279 92.2867 43.346 92.4689C43.0431 92.4763 42.7399 92.4763 42.437 92.4689C42.3972 92.3744 42.3573 92.28 42.3163 92.1826C41.7643 90.9698 41.0085 90.1481 39.7297 89.6536C38.2795 89.3079 36.8808 89.5339 35.5281 90.1072C35.5281 90.2269 35.5281 90.3467 35.5281 90.4708C35.4081 90.4708 35.2881 90.4708 35.1645 90.4708C34.6302 91.9922 34.29 93.2757 34.9713 94.7956C35.0367 94.9242 35.1021 95.0528 35.1694 95.1852C35.3432 95.5503 35.4439 95.8894 35.5281 96.2835C35.6481 96.2835 35.7681 96.2835 35.8918 96.2835C36.1261 96.5482 36.1261 96.5482 36.369 96.8962C36.4501 97.01 36.5312 97.1237 36.6147 97.2412C36.8008 97.5543 36.8008 97.5543 36.8008 97.9179C36.8978 97.9551 36.9948 97.9922 37.0948 98.0309C37.7097 98.3863 38.1517 98.8734 38.6416 99.3828C39.2908 100.099 39.2908 100.099 40.0734 100.642C40.0734 100.762 40.0734 100.883 40.0734 101.006C40.1737 101.045 40.274 101.085 40.3774 101.125C40.9471 101.454 41.3159 101.88 41.7552 102.368C41.8386 102.459 41.922 102.55 42.008 102.643C42.6188 103.32 42.6188 103.32 42.6188 103.731C42.7388 103.731 42.8588 103.731 42.9824 103.731C44.5556 105.766 45.3277 107.895 45.1642 110.451C44.9394 111.633 44.4582 112.667 43.8914 113.721C43.7715 113.721 43.6515 113.721 43.5279 113.721C43.4828 113.828 43.4379 113.935 43.3915 114.045C43.1286 114.51 42.8573 114.754 42.437 115.084C42.3095 115.186 42.182 115.29 42.0506 115.395C40.516 116.346 39.1259 116.576 37.3349 116.559C37.1197 116.558 36.9045 116.557 36.6828 116.556C34.5125 116.505 32.3364 116.047 30.6192 114.629C30.4999 114.171 30.4999 114.171 30.5283 113.653C30.5377 113.463 30.547 113.274 30.5567 113.078C30.6624 112.015 30.808 110.96 30.9828 109.907C31.2828 109.907 31.5828 109.907 31.8919 109.907C32.0704 110.259 32.2482 110.61 32.426 110.962C32.5251 111.158 32.6242 111.355 32.7264 111.556C32.9828 112.086 32.9828 112.086 33.1646 112.631C33.2846 112.631 33.4045 112.631 33.5282 112.631C33.5282 112.751 33.5282 112.871 33.5282 112.994C33.6481 112.994 33.7682 112.994 33.8918 112.994C33.8918 113.115 33.8918 113.234 33.8918 113.358C34.053 113.41 34.2143 113.463 34.3804 113.517C34.9827 113.721 34.9827 113.721 35.3903 113.912C36.0257 114.13 36.5729 114.139 37.244 114.141C37.5923 114.146 37.5924 114.146 37.9477 114.15C38.6626 114.08 39.0907 113.891 39.7098 113.539C39.8898 113.48 40.0698 113.42 40.2552 113.358C40.2552 113.238 40.2552 113.118 40.2552 112.994C40.3752 112.994 40.4952 112.994 40.6189 112.994C41.2755 111.053 41.2575 109.755 40.4505 107.881C39.3264 105.622 37.1532 103.903 35.3314 102.217C34.716 101.643 34.1045 101.074 33.5282 100.461C33.5282 100.341 33.5282 100.222 33.5282 100.097C33.4082 100.097 33.2882 100.097 33.1646 100.097C31.5129 98.2934 30.8335 96.0537 30.8768 93.6579C30.9864 91.5461 31.8366 90.1355 33.3663 88.7182C36.2742 86.3543 40.1371 86.7574 43.346 88.2906Z" fill="#242424"/>
<path d="M127.741 49.7156C127.989 49.7152 127.989 49.7152 128.242 49.7148C129.673 49.7371 130.908 50.0047 132.253 50.5103C132.253 50.6301 132.253 50.7501 132.253 50.8736C132.376 50.8885 132.5 50.9035 132.628 50.9189C133.321 51.0958 133.824 51.4109 134.434 51.7818C134.434 51.9017 134.434 52.0215 134.434 52.145C134.543 52.1975 134.651 52.25 134.764 52.304C135.161 52.5084 135.161 52.5084 135.707 52.8717C135.707 52.9915 135.707 53.1114 135.707 53.2349C135.827 53.2349 135.947 53.2349 136.071 53.2349C136.353 53.5733 136.605 53.9065 136.854 54.2681C136.927 54.3738 137 54.4795 137.075 54.5885C137.995 55.9704 138.708 57.5554 138.798 59.2292C138.811 59.417 138.824 59.6048 138.838 59.7983C138.848 60.0076 138.856 60.2169 138.865 60.4326C138.874 60.6298 138.883 60.8269 138.893 61.03C138.76 61.8124 138.525 62.0241 137.888 62.4989C137.235 62.6332 136.592 62.621 135.928 62.6134C135.73 62.6148 135.533 62.6161 135.329 62.6174C134.676 62.6204 134.024 62.6169 133.371 62.6131C132.917 62.6132 132.464 62.6137 132.011 62.6144C130.939 62.615 129.866 62.611 128.795 62.6053C127.819 62.6006 126.842 62.6018 125.866 62.6046C124.809 62.6074 123.751 62.6062 122.695 62.6031C122.245 62.6022 121.795 62.6023 121.346 62.6034C120.718 62.6044 120.09 62.6007 119.463 62.5958C119.277 62.5969 119.09 62.5981 118.898 62.5993C117.639 62.5823 117.639 62.5823 117.052 62.1522C116.387 61.1565 116.528 60.051 116.688 58.8965C117.066 57.1268 117.937 54.9605 119.162 53.5982C119.282 53.5982 119.402 53.5982 119.525 53.5982C119.574 53.4905 119.622 53.3828 119.672 53.2718C120.329 52.0607 121.599 51.4198 122.787 50.8168C122.906 50.7555 123.025 50.6942 123.148 50.6311C124.637 49.9047 126.097 49.7131 127.741 49.7156ZM121.448 56.2761C120.914 57.0405 120.253 58.092 120.253 59.0476C125.172 59.0476 130.093 59.0476 135.161 59.0476C135.014 58.3113 134.878 57.8669 134.548 57.2197C134.471 57.0678 134.395 56.9158 134.316 56.7592C134.079 56.3381 133.842 55.9621 133.525 55.5963C133.405 55.5963 133.285 55.5963 133.161 55.5963C133.103 55.4368 133.103 55.4368 133.044 55.2742C132.71 54.7252 132.32 54.528 131.764 54.2113C131.579 54.104 131.395 53.9968 131.205 53.8863C127.698 52.1702 123.865 53.4057 121.448 56.2761Z" fill="#E4002B"/>
<path d="M181.523 87.3845C181.705 87.7474 181.705 87.7474 181.543 88.2872C181.421 88.6047 181.421 88.6047 181.296 88.9282C181.177 89.2457 181.177 89.2457 181.055 89.5699C180.796 90.109 180.796 90.109 180.251 90.4726C179.981 90.3827 179.981 90.3827 179.705 90.2905C177.917 90.0138 176.139 89.8934 174.33 89.8934C174.084 89.8934 174.084 89.8934 173.833 89.8926C172.797 89.9016 171.84 89.993 170.796 90.109C170.796 93.0462 170.796 95.9834 170.796 99.0098C173.078 99.0128 173.078 99.0128 175.353 98.9302C175.505 98.922 175.657 98.9139 175.813 98.9057C177.112 98.835 178.409 98.7473 179.705 98.6462C179.764 99.8768 179.579 100.762 179.16 101.916C178.58 101.89 178.001 101.864 177.421 101.836C177.258 101.829 177.096 101.822 176.928 101.815C176.768 101.807 176.608 101.8 176.443 101.792C176.297 101.785 176.152 101.778 176.002 101.771C175.647 101.744 175.294 101.699 174.943 101.647C174.11 101.534 173.283 101.49 172.444 101.45C172.285 101.443 172.126 101.435 171.963 101.426C171.573 101.408 171.185 101.389 170.796 101.371C170.653 108.395 170.653 108.395 171.274 115.381C171.296 115.553 171.319 115.725 171.342 115.903C171.02 116.225 170.551 116.108 170.115 116.109C169.902 116.109 169.691 116.109 169.473 116.109C169.25 116.109 169.026 116.108 168.796 116.107C168.573 116.108 168.351 116.109 168.121 116.109C167.908 116.109 167.696 116.109 167.478 116.109C167.283 116.108 167.087 116.108 166.884 116.108C166.433 116.084 166.433 116.084 166.251 115.903C166.263 115.539 166.288 115.175 166.319 114.813C166.336 114.614 166.352 114.415 166.369 114.211C166.401 113.87 166.435 113.529 166.478 113.189C166.617 112.088 166.642 111.003 166.641 109.894C166.642 109.7 166.642 109.505 166.643 109.305C166.645 108.665 166.645 108.024 166.645 107.384C166.646 106.935 166.646 106.486 166.647 106.037C166.648 105.095 166.648 104.155 166.648 103.213C166.648 102.016 166.651 100.82 166.654 99.6232C166.656 98.6945 166.657 97.7665 166.657 96.8378C166.657 96.3968 166.657 95.9566 166.659 95.5157C166.666 93.2656 166.634 91.0482 166.363 88.8115C166.319 88.4575 166.284 88.1028 166.251 87.7474C166.575 87.4247 167.049 87.5347 167.486 87.5288C167.825 87.5236 167.825 87.5236 168.171 87.5176C168.421 87.5146 168.671 87.5117 168.921 87.5087C169.177 87.505 169.434 87.5012 169.691 87.4968C170.233 87.4894 170.775 87.4819 171.316 87.4745C172.001 87.4656 172.684 87.4559 173.369 87.4462C176.087 87.4061 178.805 87.3689 181.523 87.3845Z" fill="#252525"/>
<path d="M111.06 94.4332C111.338 94.4295 111.338 94.4295 111.623 94.4258C113.568 94.4236 115.194 94.7671 116.798 95.9204C118.215 97.3563 118.79 98.694 118.832 100.7C118.813 102.264 118.454 103.453 117.707 104.821C117.587 104.821 117.467 104.821 117.343 104.821C117.296 104.928 117.249 105.035 117.2 105.145C116.316 106.765 114.488 107.336 112.821 107.828C112.38 107.92 111.979 107.929 111.528 107.926C111.358 107.926 111.189 107.926 111.014 107.925C110.837 107.923 110.662 107.922 110.48 107.92C110.302 107.92 110.122 107.919 109.938 107.917C109.498 107.916 109.057 107.913 108.617 107.909C108.634 108.71 108.653 109.512 108.675 110.313C108.681 110.585 108.687 110.857 108.693 111.128C108.701 111.522 108.712 111.915 108.723 112.308C108.732 112.662 108.732 112.662 108.74 113.023C108.785 113.559 108.855 113.971 108.996 114.48C109.151 115.13 109.176 115.457 108.981 116.083C108.23 116.088 107.48 116.092 106.731 116.094C106.41 116.097 106.41 116.097 106.082 116.099C105.878 116.099 105.674 116.1 105.465 116.101C105.182 116.102 105.182 116.102 104.894 116.104C104.435 116.083 104.435 116.083 104.071 115.901C104.13 115.669 104.19 115.437 104.25 115.197C104.455 114.274 104.487 113.396 104.482 112.453C104.483 112.28 104.483 112.107 104.484 111.928C104.485 111.36 104.484 110.792 104.483 110.224C104.484 109.827 104.484 109.429 104.484 109.032C104.485 108.202 104.484 107.371 104.482 106.54C104.48 105.477 104.481 104.415 104.484 103.353C104.485 102.532 104.484 101.713 104.484 100.893C104.484 100.501 104.484 100.109 104.484 99.7179C104.485 99.1699 104.484 98.6219 104.482 98.0738C104.483 97.9132 104.484 97.7526 104.484 97.5875C104.478 96.6075 104.324 95.7761 104.071 94.8303C104.359 94.5425 104.665 94.6087 105.066 94.5916C105.238 94.5834 105.412 94.576 105.59 94.5686C105.873 94.5574 105.873 94.5574 106.162 94.547C106.355 94.5396 106.549 94.5321 106.748 94.5239C108.186 94.4734 109.622 94.4429 111.06 94.4332ZM108.617 96.284C108.617 99.5209 108.617 102.758 108.617 106.093C111.303 106.238 111.303 106.238 113.343 105.003C114.647 103.379 114.705 101.457 114.534 99.4629C114.354 98.3066 113.905 97.3987 112.98 96.6469C111.846 96.0126 111.846 96.0126 108.617 96.284Z" fill="#242424"/>
<path d="M157.888 94.4678C158.125 95.1787 157.946 95.3831 157.626 96.0457C157.541 96.2264 157.454 96.4063 157.366 96.593C157.298 96.7305 157.23 96.8688 157.16 97.0109C156.948 96.9715 156.948 96.9715 156.73 96.9313C154.388 96.5558 152.076 96.6227 149.706 96.6472C149.706 98.9851 149.706 101.323 149.706 103.731C153.072 103.595 153.072 103.595 156.433 103.369C156.623 103.953 156.601 104.34 156.456 104.935C156.423 105.076 156.389 105.217 156.355 105.362C156.252 105.729 156.252 105.729 156.069 106.093C155.52 106.072 154.971 106.048 154.422 106.025C154.271 106.019 154.121 106.014 153.966 106.008C152.518 105.942 151.162 105.742 149.706 105.548C149.706 108.305 149.706 111.062 149.706 113.904C153.408 113.71 153.408 113.71 157.053 113.102C157.524 112.995 157.524 112.995 158.07 112.995C158.099 113.811 158.074 114.522 157.886 115.318C157.836 115.534 157.836 115.534 157.785 115.755C157.759 115.863 157.733 115.972 157.706 116.083C156.121 116.088 154.535 116.091 152.951 116.093C152.215 116.094 151.479 116.095 150.742 116.097C150.033 116.099 149.323 116.1 148.614 116.1C148.342 116.101 148.071 116.102 147.8 116.103C147.421 116.104 147.042 116.104 146.663 116.104C146.447 116.104 146.231 116.105 146.009 116.106C145.524 116.083 145.524 116.083 145.343 115.902C145.398 115.477 145.46 115.053 145.524 114.63C146.08 108.336 146.48 101.507 145.411 95.2523C145.388 95.1132 145.366 94.9742 145.343 94.8307C145.661 94.5131 146.106 94.6068 146.539 94.592C146.758 94.5838 146.978 94.5764 147.203 94.5689C147.447 94.5615 147.69 94.554 147.934 94.5474C148.056 94.5429 148.178 94.5392 148.303 94.5355C151.498 94.4358 154.692 94.4499 157.888 94.4678Z" fill="#252525"/>
<path d="M203.342 94.6497C204.111 94.6453 204.881 94.6423 205.652 94.6401C205.914 94.6386 206.176 94.6378 206.438 94.6363C206.814 94.6341 207.19 94.6326 207.567 94.6319C207.794 94.6311 208.02 94.6304 208.254 94.6289C208.796 94.6497 208.796 94.6497 209.16 94.8312C209.284 95.2543 209.404 95.6781 209.523 96.1027C209.702 96.4678 209.883 96.8314 210.068 97.1928C210.068 97.3125 210.068 97.4322 210.068 97.5557C210.188 97.5557 210.308 97.5557 210.432 97.5557C211.159 98.5387 211.159 98.5387 211.159 99.0094C211.279 99.0094 211.399 99.0094 211.523 99.0094C211.819 99.3856 212.093 99.7619 212.364 100.156C212.527 100.388 212.69 100.621 212.853 100.853C213.016 101.086 213.179 101.319 213.341 101.552C213.612 101.94 213.885 102.325 214.159 102.71C214.273 102.872 214.388 103.035 214.506 103.202C214.601 103.317 214.697 103.432 214.795 103.55C214.915 103.55 215.036 103.55 215.159 103.55C215.279 103.371 215.399 103.191 215.522 103.005C215.643 103.005 215.763 103.005 215.886 103.005C215.886 102.825 215.886 102.646 215.886 102.46C216.006 102.46 216.126 102.46 216.25 102.46C216.291 102.337 216.332 102.214 216.375 102.086C216.67 101.425 217.037 100.821 217.522 100.281C217.643 100.281 217.763 100.281 217.886 100.281C217.957 100.086 217.957 100.086 218.028 99.8868C218.263 99.341 218.546 98.8941 218.886 98.4078C218.997 98.2472 219.107 98.0866 219.221 97.9215C219.32 97.8011 219.42 97.6806 219.523 97.5557C219.643 97.5557 219.762 97.5557 219.886 97.5557C220.071 97.0939 220.256 96.6314 220.438 96.1681C220.531 95.9332 220.531 95.9332 220.625 95.6945C220.687 95.5361 220.749 95.3777 220.813 95.2149C220.977 94.8312 220.977 94.8312 221.159 94.6497C221.43 94.6341 221.701 94.6304 221.972 94.6319C222.135 94.6326 222.299 94.6334 222.467 94.6341C222.725 94.6363 222.725 94.6363 222.988 94.6386C223.247 94.6393 223.247 94.6393 223.511 94.6408C223.939 94.643 224.367 94.646 224.795 94.6497C224.795 95.3762 224.795 95.3762 224.483 95.7123C224.283 95.8722 224.283 95.8722 224.079 96.035C223.534 96.4544 223.534 96.4544 223.159 97.0114C223.039 97.0114 222.919 97.0114 222.795 97.0114C222.748 97.1407 222.702 97.2709 222.653 97.4047C222.418 97.9505 222.135 98.3982 221.795 98.8845C221.684 99.0443 221.574 99.205 221.46 99.37C221.36 99.4912 221.261 99.6117 221.159 99.7359C221.039 99.7359 220.919 99.7359 220.796 99.7359C220.749 99.866 220.702 99.9954 220.653 100.129C220.418 100.675 220.135 101.123 219.795 101.609C219.684 101.77 219.574 101.929 219.46 102.095C219.361 102.216 219.262 102.336 219.159 102.46C219.039 102.46 218.919 102.46 218.795 102.46C218.754 102.553 218.713 102.646 218.671 102.742C218.336 103.364 217.925 103.922 217.511 104.493C217.428 104.609 217.344 104.725 217.258 104.846C216.642 105.702 216.642 105.702 216.432 105.911C216.413 106.465 216.407 107.013 216.407 107.567C216.407 107.816 216.407 107.816 216.407 108.072C216.407 108.426 216.407 108.781 216.408 109.135C216.409 109.676 216.408 110.217 216.407 110.758C216.407 111.102 216.407 111.446 216.407 111.789C216.407 112.032 216.407 112.032 216.407 112.279C216.408 113.146 216.408 113.146 216.524 114.002C216.66 114.684 216.613 115.389 216.613 116.084C215.114 116.084 213.613 116.084 212.068 116.084C211.948 115.844 211.828 115.604 211.704 115.357C211.764 115.237 211.825 115.118 211.887 114.994C212.035 113.918 212.128 112.842 212.207 111.759C212.236 111.367 212.268 110.975 212.302 110.583C212.553 107.466 212.553 107.466 211.193 104.754C210.91 104.427 210.621 104.113 210.318 103.806C209.523 102.993 209.523 102.993 209.523 102.46C209.403 102.46 209.283 102.46 209.16 102.46C208.936 102.213 208.936 102.213 208.682 101.859C208.587 101.728 208.493 101.597 208.395 101.462C208.287 101.312 208.179 101.162 208.068 101.007C207.938 100.833 207.808 100.659 207.673 100.479C207.541 100.301 207.409 100.123 207.273 99.9404C207.148 99.7723 207.023 99.6035 206.894 99.431C206.614 99.0094 206.614 99.0094 206.614 98.6458C206.494 98.6458 206.374 98.6458 206.25 98.6458C206.048 98.3602 206.048 98.3602 205.83 97.9758C205.14 96.8344 204.171 96.0425 203.159 95.1948C203.219 95.0148 203.279 94.8349 203.342 94.6497Z" fill="#242424"/>
<path d="M126.327 94.6289C126.612 94.6304 126.612 94.6304 126.902 94.6319C127.106 94.6326 127.31 94.6334 127.521 94.6341C127.736 94.6356 127.952 94.6371 128.174 94.6386C128.39 94.6393 128.605 94.6401 128.828 94.6408C129.364 94.643 129.899 94.646 130.435 94.6497C130.58 95.2468 130.634 95.5056 130.435 96.1027C130.409 96.3444 130.391 96.5868 130.379 96.8292C130.369 97.0456 130.369 97.0456 130.357 97.2664C130.35 97.4218 130.343 97.5772 130.336 97.7379C130.325 97.9803 130.325 97.9803 130.313 98.2286C130.24 99.8824 130.212 101.535 130.195 103.19C130.192 103.502 130.188 103.814 130.184 104.128C130.174 104.936 130.165 105.745 130.157 106.553C130.147 107.384 130.137 108.214 130.127 109.045C130.107 110.664 130.089 112.285 130.071 113.904C130.794 113.851 131.517 113.796 132.24 113.741C132.442 113.726 132.645 113.711 132.854 113.696C134.243 113.588 135.582 113.4 136.942 113.102C137.514 112.998 138.036 112.976 138.617 112.996C138.53 113.783 138.422 114.546 138.245 115.319C138.213 115.463 138.18 115.607 138.146 115.755C138.122 115.864 138.096 115.972 138.071 116.084C136.486 116.088 134.901 116.091 133.315 116.093C132.58 116.094 131.844 116.096 131.108 116.098C130.398 116.099 129.688 116.101 128.978 116.101C128.707 116.102 128.436 116.102 128.165 116.103C127.786 116.105 127.407 116.105 127.028 116.105C126.813 116.105 126.597 116.105 126.374 116.106C125.89 116.084 125.89 116.084 125.708 115.902C125.747 115.513 125.788 115.123 125.836 114.734C126.175 111.763 126.1 108.73 126.095 105.746C126.094 105.071 126.095 104.397 126.097 103.722C126.127 99.5864 126.127 99.5864 125.781 95.4699C125.756 95.2595 125.733 95.0483 125.708 94.8312C125.89 94.6497 125.89 94.6497 126.327 94.6289Z" fill="#262626"/>
<path d="M190.694 94.6153C190.907 94.6131 191.12 94.6108 191.34 94.6086C191.543 94.6086 191.745 94.6079 191.955 94.6079C192.142 94.6071 192.33 94.6064 192.522 94.6056C192.979 94.6495 192.979 94.6495 193.342 95.0131C193.305 95.4154 193.305 95.4154 193.194 95.9099C192.721 98.0648 192.76 100.268 192.739 102.462C192.735 102.793 192.732 103.124 192.728 103.456C192.717 104.321 192.708 105.185 192.7 106.051C192.691 106.936 192.68 107.821 192.67 108.707C192.651 110.439 192.633 112.171 192.615 113.904C193.399 113.851 194.184 113.796 194.968 113.741C195.299 113.72 195.299 113.72 195.637 113.697C197.042 113.597 198.369 113.425 199.738 113.085C200.275 112.992 200.638 113.034 201.16 113.178C201.104 113.627 201.047 114.078 200.989 114.529C200.974 114.657 200.958 114.785 200.942 114.918C200.817 115.881 200.817 115.881 200.614 116.083C200.235 116.101 199.855 116.105 199.475 116.104C199.298 116.104 199.298 116.104 199.115 116.104C198.721 116.104 198.326 116.103 197.932 116.101C197.659 116.101 197.386 116.101 197.113 116.101C196.394 116.1 195.674 116.098 194.955 116.096C194.222 116.094 193.488 116.093 192.755 116.092C191.314 116.09 189.874 116.087 188.433 116.083C188.219 115.45 188.29 115.004 188.418 114.353C188.69 112.716 188.667 111.092 188.663 109.437C188.663 109.097 188.664 108.755 188.664 108.415C188.665 107.704 188.664 106.994 188.663 106.283C188.66 105.379 188.661 104.475 188.663 103.571C188.665 102.868 188.664 102.166 188.663 101.463C188.663 101.13 188.663 100.797 188.664 100.464C188.668 98.7028 188.617 97.0186 188.311 95.2793C188.291 95.1314 188.272 94.9834 188.251 94.8309C188.722 94.361 190.06 94.6161 190.694 94.6153Z" fill="#252525"/>
<path d="M54.5267 94.6262C54.7296 94.6255 54.9324 94.6255 55.1414 94.6255C55.4619 94.6262 55.4619 94.6262 55.7888 94.627C56.0017 94.627 56.2147 94.6262 56.434 94.6255C56.7386 94.6255 56.7386 94.6255 57.0494 94.6262C57.2368 94.6262 57.4241 94.6262 57.6172 94.6262C58.0728 94.65 58.0728 94.65 58.4364 94.8315C58.3783 95.1036 58.3783 95.1036 58.3191 95.3817C57.7156 98.5465 57.8154 101.748 57.8323 104.955C57.8348 105.582 57.8338 106.208 57.8329 106.835C57.8323 107.446 57.8335 108.059 57.8352 108.671C57.8359 108.96 57.8361 109.247 57.8358 109.536C57.8356 111.19 57.9225 112.785 58.177 114.421C58.2454 114.926 58.284 115.393 58.2546 115.903C58.0728 116.084 58.0728 116.084 57.6349 116.105C57.4455 116.104 57.256 116.103 57.0608 116.102C56.8563 116.101 56.6518 116.1 56.4411 116.1C56.2258 116.099 56.0106 116.097 55.7888 116.095C55.5728 116.094 55.3569 116.094 55.1343 116.093C54.5987 116.091 54.0631 116.088 53.5275 116.084C53.3137 115.45 53.3842 115.004 53.5131 114.354C53.7843 112.716 53.7618 111.092 53.7576 109.438C53.7579 109.097 53.7582 108.756 53.7586 108.415C53.7592 107.704 53.7584 106.994 53.7567 106.284C53.7547 105.379 53.7559 104.476 53.758 103.572C53.7594 102.869 53.7589 102.166 53.758 101.464C53.7577 101.13 53.758 100.797 53.7588 100.464C53.7624 98.7033 53.7114 97.0191 53.4058 95.2799C53.386 95.1319 53.3661 94.9839 53.3457 94.8315C53.6622 94.5154 54.0968 94.6262 54.5267 94.6262Z" fill="#252525"/>
</g>
<path d="M68 160C68 153.373 73.3726 148 80 148H272C278.627 148 284 153.373 284 160V360H68V160Z" fill="black"/>
<path d="M78 166C78 161.582 81.5817 158 86 158H266C270.418 158 274 161.582 274 166V360H78V166Z" fill="#1C2B30"/>
<rect x="88" y="168" width="23" height="6" rx="3" fill="#535F63"/>
<rect x="258" y="168" width="6" height="6" rx="3" fill="#535F63"/>
<rect x="248" y="168" width="6" height="6" rx="3" fill="#535F63"/>
<rect x="238" y="168" width="6" height="6" rx="3" fill="#535F63"/>
<rect x="59" y="194" width="91.3438" height="37" rx="4" fill="#D3EFFF"/>
<rect x="60" y="195" width="89.3438" height="35" rx="3" stroke="#4CA7DE" stroke-opacity="0.3" stroke-width="2"/>
<rect x="69.4062" y="203.25" width="18.5" height="18.5" rx="9.25" fill="#4CA7DE"/>
<rect x="69.7396" y="203.583" width="17.8333" height="17.8333" rx="8.91667" stroke="#4CA7DE" stroke-opacity="0.3" stroke-width="0.666667"/>
<mask id="mask0_4793_22916" style="mask-type:alpha" maskUnits="userSpaceOnUse" x="73" y="207" width="11" height="11">
<rect x="73.3232" y="207.166" width="10.6667" height="10.6667" fill="#D9D9D9"/>
</mask>
<g mask="url(#mask0_4793_22916)">
<path d="M77.5675 215.167L75.0342 212.633L75.6675 212L77.5675 213.9L81.6453 209.822L82.2786 210.456L77.5675 215.167Z" fill="white" stroke="white"/>
</g>
<rect x="97.1562" y="206.719" width="39.3125" height="3.46875" rx="1.73438" fill="#4CA7DE"/>
<rect x="97.6562" y="207.219" width="38.3125" height="2.46875" rx="1.23438" stroke="#4CA7DE" stroke-opacity="0.3"/>
<rect x="97.1562" y="214.812" width="20.8125" height="3.46875" rx="1.73438" fill="#4CA7DE"/>
<rect x="97.6562" y="215.312" width="19.8125" height="2.46875" rx="1.23438" stroke="#4CA7DE" stroke-opacity="0.3"/>
<g clip-path="url(#clip2_4793_22916)">
<path d="M159.5 322C123.313 333.625 92 331.5 67.5 326.5L284 192V257C253.844 277.043 195.687 310.375 159.5 322Z" fill="black" fill-opacity="0.36"/>
<path d="M397.986 283.022C397.986 283.022 256.643 249.404 239.147 241L176 284.149C176 284.149 338.951 287.208 370.186 289.881C401.42 292.553 406.364 287.208 409.028 284.149L397.986 282.99V283.022Z" fill="#DEE0E0"/>
<path d="M30.8461 222.671C30.4019 220.341 31.168 217.944 32.8816 216.304L36.637 212.709C38.0053 211.399 40.2301 211.669 41.2448 213.269L79.2812 273.225L46.8908 306.842L30.8461 222.671Z" fill="#E4002B"/>
<path d="M87.6596 295.766C71.3199 307.52 59.635 317.148 51.417 324.586C72.9892 329.416 106.278 326.003 124.994 316.793C145.956 306.489 211.09 264.049 247.268 237.709C283.447 211.336 296.03 201.805 302.515 195.3C308.999 188.796 313.558 181.164 313.558 181.164C319.721 168.155 323.702 158.914 325.692 152.377C284.699 156.949 226.627 195.365 200.432 214.395C171.477 235.422 132.249 263.695 87.6596 295.799V295.766Z" fill="#BCBDBD"/>
<path d="M321.936 137.564C313.172 135.278 308.999 134.505 308.999 134.505C308.999 134.505 307.105 127.26 286.528 128.387C265.951 129.546 257.958 133.346 239.307 144.809C220.656 156.272 187.11 185.704 155.49 210.144C123.87 234.584 23.6812 314.828 44.2583 322.492C46.4412 323.297 48.8488 324.006 51.449 324.553C59.6991 317.115 71.3519 307.487 87.6916 295.733C132.248 263.629 171.509 235.357 200.464 214.33C226.659 195.3 284.73 156.852 325.724 152.312C328.613 142.684 327.201 138.884 321.968 137.532L321.936 137.564Z" fill="white"/>
<path d="M323.718 138.147C327.482 139.905 328.259 143.864 325.724 152.312C284.73 156.853 226.659 195.301 200.464 214.331C171.508 235.358 132.248 263.63 87.6914 295.734C71.352 307.487 59.6993 317.115 51.4492 324.554C50.0857 324.267 48.7754 323.934 47.5225 323.567C204.477 191.327 292.203 142.124 323.718 138.147Z" fill="#E4002B"/>
<path d="M171.444 238.062C82.7481 248.398 -66.6523 265.561 -99.0106 268.234C-131.016 270.874 -137.532 271.84 -148.158 272.033L-153.102 281.597C-143.953 281.21 123.838 272.806 123.838 272.806C149.359 267.461 169.165 248.72 172.6 243.375C176.035 238.029 171.444 238.029 171.444 238.029V238.062Z" fill="#DEE0E0"/>
<path d="M132.697 252.262L123.87 240.734C99.4082 257.447 90.3556 268.652 94.914 279.858C113.758 271.615 125.924 260.216 132.665 252.294L132.697 252.262Z" fill="#F2F1EF"/>
<path d="M132.698 252.262C125.924 260.183 113.79 271.614 94.9463 279.825C95.492 281.178 96.2303 282.53 97.1934 283.883C105.957 296.505 145.474 268.942 145.474 268.942L132.73 252.262H132.698Z" fill="#AEB4B4"/>
<path d="M48.7847 300.725C-7.20029 303.011 -60.553 303.784 -60.553 303.784L-64.373 311.802C-64.373 311.802 38.9937 322.17 44.9646 316.02C54 300.725 48.7847 300.725 48.7847 300.725Z" fill="#DEE0E0"/>
<path d="M151.637 256.19C151.637 266.205 143.419 274.352 133.308 274.352C123.196 274.352 114.978 266.237 114.978 256.19C114.978 246.144 123.196 238.029 133.308 238.029C143.419 238.029 151.637 246.144 151.637 256.19Z" fill="#314349"/>
<path d="M149.744 252.778C149.744 260.893 143.099 267.494 134.881 267.494C126.663 267.494 120.018 260.893 120.018 252.778C120.018 244.664 126.663 238.062 134.881 238.062C143.099 238.062 149.744 244.664 149.744 252.778Z" fill="#19272B"/>
<path d="M145 255.5C145 261.29 140.082 266 134 266C127.918 266 123 261.29 123 255.5C123 249.71 127.918 245 134 245C140.082 245 145 249.71 145 255.5Z" fill="#111212"/>
<path d="M266.066 142.336C266.094 141.974 266.317 141.655 266.647 141.504L272.101 139.004C272.774 138.696 273.537 139.199 273.518 139.939L273.389 144.916C273.376 145.41 273.005 145.82 272.515 145.882L266.943 146.586C266.315 146.666 265.772 146.149 265.821 145.517L266.066 142.336Z" fill="#4CA7DE"/>
<path d="M276.195 137.35C275.758 137.476 275.461 137.881 275.473 138.336L275.6 143.403C275.62 144.186 276.491 144.643 277.147 144.215L283.232 140.242C283.59 140.008 283.76 139.571 283.654 139.156L282.964 136.469C282.824 135.922 282.26 135.6 281.718 135.756L276.195 137.35Z" fill="#4CA7DE"/>
<path d="M286.125 134.665C285.596 134.783 285.28 135.311 285.406 135.837L285.909 137.94C286.038 138.479 286.58 138.81 287.119 138.682C292.536 137.401 298.05 136.397 300.702 135.938C301.441 135.81 301.786 134.945 301.338 134.343L300.903 133.758C300.724 133.518 300.446 133.369 300.146 133.359C293.79 133.128 288.264 134.184 286.125 134.665Z" fill="#4CA7DE"/>
<path d="M147.541 232.798C147.541 233.217 147.188 233.571 146.77 233.571C146.353 233.571 146 233.217 146 232.798V228.773C146 228.354 146.353 228 146.77 228C147.188 228 147.541 228.354 147.541 228.773V232.798Z" fill="#D1E2EC"/>
<path d="M61.5408 302.405C61.5408 302.824 61.1878 303.178 60.7704 303.178C60.3531 303.178 60 302.824 60 302.405V298.38C60 297.962 60.3531 297.607 60.7704 297.607C61.1878 297.607 61.5408 297.962 61.5408 298.38V302.405Z" fill="#D1E2EC"/>
<path d="M151.541 229.847C151.541 230.265 151.188 230.62 150.77 230.62C150.353 230.62 150 230.265 150 229.847V225.822C150 225.403 150.353 225.049 150.77 225.049C151.188 225.049 151.541 225.403 151.541 225.822V229.847Z" fill="#D1E2EC"/>
<path d="M65.5408 299.454C65.5408 299.873 65.1877 300.227 64.7704 300.227C64.3531 300.227 64 299.873 64 299.454V295.429C64 295.01 64.3531 294.656 64.7704 294.656C65.1877 294.656 65.5408 295.01 65.5408 295.429V299.454Z" fill="#D1E2EC"/>
<path d="M155.541 226.798C155.541 227.216 155.188 227.571 154.77 227.571C154.353 227.571 154 227.216 154 226.798V222.773C154 222.354 154.353 222 154.77 222C155.188 222 155.541 222.354 155.541 222.773V226.798Z" fill="#D1E2EC"/>
<path d="M69.5408 296.405C69.5408 296.824 69.1878 297.178 68.7704 297.178C68.3531 297.178 68 296.824 68 296.405V292.38C68 291.962 68.3531 291.607 68.7704 291.607C69.1878 291.607 69.5408 291.962 69.5408 292.38V296.405Z" fill="#D1E2EC"/>
<path d="M159.541 223.798C159.541 224.217 159.188 224.571 158.77 224.571C158.353 224.571 158 224.217 158 223.798V219.773C158 219.354 158.353 219 158.77 219C159.188 219 159.541 219.354 159.541 219.773V223.798Z" fill="#D1E2EC"/>
<path d="M73.5409 293.405C73.5409 293.824 73.1878 294.178 72.7704 294.178C72.3531 294.178 72 293.824 72 293.405V289.38C72 288.962 72.3531 288.607 72.7704 288.607C73.1878 288.607 73.5409 288.962 73.5409 289.38V293.405Z" fill="#D1E2EC"/>
<path d="M163.541 220.798C163.541 221.217 163.188 221.571 162.77 221.571C162.353 221.571 162 221.217 162 220.798V216.773C162 216.354 162.353 216 162.77 216C163.188 216 163.541 216.354 163.541 216.773V220.798Z" fill="#D1E2EC"/>
<path d="M77.5409 290.405C77.5409 290.824 77.1878 291.178 76.7704 291.178C76.3531 291.178 76 290.824 76 290.405V286.38C76 285.962 76.3531 285.607 76.7704 285.607C77.1878 285.607 77.5409 285.962 77.5409 286.38V290.405Z" fill="#D1E2EC"/>
<path d="M167.541 218.19C167.541 218.609 167.188 218.963 166.77 218.963C166.353 218.963 166 218.609 166 218.19V214.165C166 213.747 166.353 213.393 166.77 213.393C167.188 213.393 167.541 213.747 167.541 214.165V218.19Z" fill="#D1E2EC"/>
<path d="M81.5409 287.798C81.5409 288.217 81.1878 288.571 80.7704 288.571C80.3531 288.571 80 288.217 80 287.798V283.773C80 283.354 80.3531 283 80.7704 283C81.1878 283 81.5409 283.354 81.5409 283.773V287.798Z" fill="#D1E2EC"/>
<path d="M179.541 209.458C179.541 209.877 179.188 210.231 178.77 210.231C178.353 210.231 178 209.877 178 209.458V205.433C178 205.014 178.353 204.66 178.77 204.66C179.188 204.66 179.541 205.014 179.541 205.433V209.458Z" fill="#D1E2EC"/>
<path d="M183.428 206.593C183.428 207.011 183.074 207.366 182.657 207.366C182.24 207.366 181.887 207.011 181.887 206.593V202.568C181.887 202.149 182.24 201.795 182.657 201.795C183.074 201.795 183.428 202.149 183.428 202.568V206.593Z" fill="#D1E2EC"/>
<path d="M187.428 203.019C187.428 203.437 187.074 203.791 186.657 203.791C186.24 203.791 185.887 203.437 185.887 203.019V198.994C185.887 198.575 186.24 198.221 186.657 198.221C187.074 198.221 187.428 198.575 187.428 198.994V203.019Z" fill="#D1E2EC"/>
<path d="M191.428 199.862C191.428 200.281 191.074 200.635 190.657 200.635C190.24 200.635 189.887 200.281 189.887 199.862V195.837C189.887 195.419 190.24 195.064 190.657 195.064C191.074 195.064 191.428 195.419 191.428 195.837V199.862Z" fill="#D1E2EC"/>
<path d="M195.428 196.708C195.428 197.127 195.074 197.481 194.657 197.481C194.24 197.481 193.887 197.127 193.887 196.708V192.683C193.887 192.264 194.24 191.91 194.657 191.91C195.074 191.91 195.428 192.264 195.428 192.683V196.708Z" fill="#D1E2EC"/>
<path d="M199.428 193.712C199.428 194.131 199.074 194.485 198.657 194.485C198.24 194.485 197.887 194.131 197.887 193.712V189.687C197.887 189.268 198.24 188.914 198.657 188.914C199.074 188.914 199.428 189.268 199.428 189.687V193.712Z" fill="#D1E2EC"/>
<path d="M203.428 190.396C203.428 190.814 203.074 191.168 202.657 191.168C202.24 191.168 201.887 190.814 201.887 190.396V186.37C201.887 185.952 202.24 185.598 202.657 185.598C203.074 185.598 203.428 185.952 203.428 186.37V190.396Z" fill="#D1E2EC"/>
<path d="M207.428 186.95C207.428 187.369 207.074 187.723 206.657 187.723C206.24 187.723 205.887 187.369 205.887 186.95V182.925C205.887 182.507 206.24 182.152 206.657 182.152C207.074 182.152 207.428 182.507 207.428 182.925V186.95Z" fill="#D1E2EC"/>
<path d="M211.428 183.827C211.428 184.246 211.074 184.6 210.657 184.6C210.24 184.6 209.887 184.246 209.887 183.827V179.802C209.887 179.384 210.24 179.029 210.657 179.029C211.074 179.029 211.428 179.384 211.428 179.802V183.827Z" fill="#D1E2EC"/>
<path d="M215.428 180.671C215.428 181.09 215.074 181.444 214.657 181.444C214.24 181.444 213.887 181.09 213.887 180.671V176.646C213.887 176.227 214.24 175.873 214.657 175.873C215.074 175.873 215.428 176.227 215.428 176.646V180.671Z" fill="#D1E2EC"/>
<path d="M219.428 177.806C219.428 178.224 219.074 178.579 218.657 178.579C218.24 178.579 217.887 178.224 217.887 177.806V173.781C217.887 173.362 218.24 173.008 218.657 173.008C219.074 173.008 219.428 173.362 219.428 173.781V177.806Z" fill="#D1E2EC"/>
<path d="M223.428 174.198C223.428 174.617 223.074 174.971 222.657 174.971C222.24 174.971 221.887 174.617 221.887 174.198V170.173C221.887 169.755 222.24 169.4 222.657 169.4C223.074 169.4 223.428 169.755 223.428 170.173V174.198Z" fill="#D1E2EC"/>
<path d="M227.428 170.915C227.428 171.334 227.074 171.688 226.657 171.688C226.24 171.688 225.887 171.334 225.887 170.915V166.89C225.887 166.471 226.24 166.117 226.657 166.117C227.074 166.117 227.428 166.471 227.428 166.89V170.915Z" fill="#D1E2EC"/>
<path d="M231.428 167.63C231.428 168.049 231.074 168.403 230.657 168.403C230.24 168.403 229.887 168.049 229.887 167.63V163.605C229.887 163.186 230.24 162.832 230.657 162.832C231.074 162.832 231.428 163.186 231.428 163.605V167.63Z" fill="#D1E2EC"/>
<path d="M235.428 164.798C235.428 165.217 235.074 165.571 234.657 165.571C234.24 165.571 233.887 165.217 233.887 164.798V160.773C233.887 160.354 234.24 160 234.657 160C235.074 160 235.428 160.354 235.428 160.773V164.798Z" fill="#D1E2EC"/>
<path d="M285.276 244.727C259.338 265.11 252.019 277.41 261.297 289.357C270.221 283.786 282.58 274.544 298.085 259.378L285.244 244.727H285.276Z" fill="#F2F1EF"/>
<path d="M261.297 289.324C261.361 289.421 261.425 289.486 261.489 289.582C271.056 301.593 308.679 271.421 308.679 271.421L298.117 259.346C282.612 274.512 270.221 283.754 261.329 289.324H261.297Z" fill="#AEB4B4"/>
<path d="M314.007 258.284C314.681 268.299 307.041 276.928 296.929 277.605C286.817 278.281 278.086 270.714 277.444 260.732C276.769 250.717 284.442 242.087 294.522 241.411C304.634 240.735 313.365 248.302 314.007 258.284Z" fill="#314349"/>
<path d="M311.888 254.999C312.433 263.113 306.238 270.133 298.052 270.68C289.866 271.228 282.804 265.11 282.258 256.995C281.712 248.88 287.908 241.861 296.094 241.313C304.28 240.766 311.342 246.884 311.888 254.999Z" fill="#19272B"/>
<path d="M307.975 257.254C308.38 263.319 303.79 268.565 297.725 268.975C291.661 269.384 286.429 264.811 286.025 258.746C285.62 252.681 290.21 247.435 296.275 247.025C302.339 246.616 307.571 251.189 307.975 257.254Z" fill="#111212"/>
</g>
<g filter="url(#filter0_d_4793_22916)">
<rect x="150" y="282" width="142" height="42" rx="21" fill="url(#paint0_linear_4793_22916)"/>
</g>
<g filter="url(#filter1_d_4793_22916)">
<path d="M188.387 310H185.32V295.345H188.387V301.398H188.895L193.963 295.345H197.427L191.495 302.291L197.904 310H194.095L188.895 303.744H188.387V310ZM199.823 313.585C199.245 313.585 198.666 313.514 198.32 313.453V311.249C198.523 311.29 198.869 311.351 199.316 311.351C200.199 311.351 200.687 311.097 200.951 310.355L201.073 310L197.234 299.113H200.484L202.779 307.623H202.87L205.166 299.113H208.294L204.566 310.193C203.713 312.762 202.251 313.585 199.823 313.585ZM209.523 310V299.113H219.516V310H216.551V301.347H212.488V310H209.523ZM221.649 310V299.113H224.564V305.907H224.666L228.962 299.113H231.866V310H228.952V303.114H228.84L224.554 310H221.649ZM242.825 299.113V301.357H239.585V310H236.62V301.357H233.38V299.113H242.825ZM244.338 310V299.113H247.304V302.261H249.416C251.986 302.261 253.631 303.764 253.631 306.12V306.141C253.631 308.497 251.986 310 249.416 310H244.338ZM248.878 304.495H247.304V307.766H248.878C249.945 307.766 250.615 307.126 250.615 306.141V306.12C250.615 305.125 249.945 304.495 248.878 304.495Z" fill="white"/>
</g>
<g filter="url(#filter2_d_4793_22916)">
<path fill-rule="evenodd" clip-rule="evenodd" d="M276.798 297.975C276.798 297.451 276.59 296.949 276.219 296.578C275.849 296.208 275.347 296 274.823 296C274.299 296 273.797 296.208 273.427 296.578C273.056 296.949 272.848 297.451 272.848 297.975V301.924C272.848 302.448 273.056 302.95 273.427 303.321C273.797 303.691 274.299 303.899 274.823 303.899C275.347 303.899 275.849 303.691 276.219 303.321C276.59 302.95 276.798 302.448 276.798 301.924V297.975ZM267.84 300.048C267.658 299.86 267.44 299.709 267.199 299.606C266.959 299.502 266.699 299.448 266.437 299.445C266.175 299.443 265.915 299.493 265.672 299.592C265.43 299.692 265.209 299.838 265.024 300.024C264.838 300.209 264.692 300.43 264.592 300.672C264.493 300.915 264.443 301.175 264.445 301.437C264.448 301.699 264.502 301.959 264.606 302.199C264.709 302.44 264.86 302.658 265.048 302.84L267.84 305.637C268.024 305.82 268.242 305.966 268.482 306.065C268.722 306.165 268.979 306.216 269.239 306.216C269.498 306.216 269.755 306.165 269.995 306.065C270.235 305.966 270.453 305.82 270.637 305.637C270.82 305.453 270.966 305.235 271.065 304.995C271.165 304.755 271.216 304.498 271.216 304.239C271.216 303.979 271.165 303.722 271.065 303.482C270.966 303.242 270.82 303.024 270.637 302.84L267.84 300.048ZM276.385 308.263C274.454 307.619 272.619 309.454 273.261 311.383L280.238 332.311C280.943 334.428 283.871 334.598 284.817 332.576L288.875 323.875L297.576 319.817C299.598 318.873 299.428 315.943 297.311 315.238L276.385 308.263ZM284.598 300.048C284.968 300.419 285.176 300.921 285.176 301.444C285.176 301.968 284.968 302.47 284.598 302.84L281.806 305.637C281.622 305.82 281.404 305.966 281.165 306.065C280.925 306.164 280.668 306.215 280.409 306.215C280.149 306.215 279.892 306.164 279.652 306.065C279.413 305.966 279.195 305.82 279.011 305.637C278.828 305.453 278.682 305.235 278.583 304.996C278.484 304.756 278.433 304.499 278.433 304.24C278.433 303.98 278.484 303.723 278.583 303.483C278.682 303.244 278.828 303.026 279.011 302.842L281.806 300.05C282.176 299.68 282.678 299.472 283.202 299.472C283.725 299.472 284.228 299.678 284.598 300.048ZM261 309.823C261 309.299 261.208 308.797 261.578 308.427C261.949 308.056 262.451 307.848 262.975 307.848H266.924C267.448 307.848 267.95 308.056 268.321 308.427C268.691 308.797 268.899 309.299 268.899 309.823C268.899 310.347 268.691 310.849 268.321 311.219C267.95 311.59 267.448 311.798 266.924 311.798H262.975C262.451 311.798 261.949 311.59 261.578 311.219C261.208 310.849 261 310.347 261 309.823ZM270.635 316.806C270.818 316.622 270.964 316.404 271.063 316.165C271.162 315.925 271.213 315.668 271.213 315.409C271.213 315.149 271.162 314.892 271.063 314.652C270.964 314.413 270.818 314.195 270.635 314.011C270.451 313.828 270.233 313.682 269.994 313.583C269.754 313.484 269.497 313.433 269.238 313.433C268.978 313.433 268.721 313.484 268.481 313.583C268.242 313.682 268.024 313.828 267.84 314.011L265.048 316.806C264.86 316.988 264.709 317.206 264.606 317.447C264.502 317.688 264.448 317.947 264.445 318.209C264.443 318.471 264.493 318.731 264.592 318.974C264.692 319.217 264.838 319.437 265.024 319.622C265.209 319.808 265.43 319.955 265.672 320.054C265.915 320.153 266.175 320.203 266.437 320.201C266.699 320.198 266.959 320.144 267.199 320.041C267.44 319.937 267.658 319.787 267.84 319.598L270.635 316.806Z" fill="white"/>
</g>
</g>
<defs>
<filter id="filter0_d_4793_22916" x="132.5" y="268.5" width="177" height="77" filterUnits="userSpaceOnUse" color-interpolation-filters="sRGB">
<feFlood flood-opacity="0" result="BackgroundImageFix"/>
<feColorMatrix in="SourceAlpha" type="matrix" values="0 0 0 0 0 0 0 0 0 0 0 0 0 0 0 0 0 0 127 0" result="hardAlpha"/>
<feOffset dy="4"/>
<feGaussianBlur stdDeviation="8.75"/>
<feComposite in2="hardAlpha" operator="out"/>
<feColorMatrix type="matrix" values="0 0 0 0 0.600135 0 0 0 0 0.101401 0 0 0 0 0.106339 0 0 0 0.6 0"/>
<feBlend mode="normal" in2="BackgroundImageFix" result="effect1_dropShadow_4793_22916"/>
<feBlend mode="normal" in="SourceGraphic" in2="effect1_dropShadow_4793_22916" result="shape"/>
</filter>
<filter id="filter1_d_4793_22916" x="184.32" y="294.344" width="69.3105" height="19.2422" filterUnits="userSpaceOnUse" color-interpolation-filters="sRGB">
<feFlood flood-opacity="0" result="BackgroundImageFix"/>
<feColorMatrix in="SourceAlpha" type="matrix" values="0 0 0 0 0 0 0 0 0 0 0 0 0 0 0 0 0 0 127 0" result="hardAlpha"/>
<feOffset dx="-1" dy="-1"/>
<feComposite in2="hardAlpha" operator="out"/>
<feColorMatrix type="matrix" values="0 0 0 0 0.968627 0 0 0 0 0.0313726 0 0 0 0 0.0313726 0 0 0 1 0"/>
<feBlend mode="normal" in2="BackgroundImageFix" result="effect1_dropShadow_4793_22916"/>
<feBlend mode="normal" in="SourceGraphic" in2="effect1_dropShadow_4793_22916" result="shape"/>
</filter>
<filter id="filter2_d_4793_22916" x="243.5" y="282.5" width="73" height="73" filterUnits="userSpaceOnUse" color-interpolation-filters="sRGB">
<feFlood flood-opacity="0" result="BackgroundImageFix"/>
<feColorMatrix in="SourceAlpha" type="matrix" values="0 0 0 0 0 0 0 0 0 0 0 0 0 0 0 0 0 0 127 0" result="hardAlpha"/>
<feOffset dy="4"/>
<feGaussianBlur stdDeviation="8.75"/>
<feComposite in2="hardAlpha" operator="out"/>
<feColorMatrix type="matrix" values="0 0 0 0 0.600135 0 0 0 0 0.101401 0 0 0 0 0.106339 0 0 0 0.6 0"/>
<feBlend mode="normal" in2="BackgroundImageFix" result="effect1_dropShadow_4793_22916"/>
<feBlend mode="normal" in="SourceGraphic" in2="effect1_dropShadow_4793_22916" result="shape"/>
</filter>
<linearGradient id="paint0_linear_4793_22916" x1="221" y1="282" x2="221" y2="324" gradientUnits="userSpaceOnUse">
<stop stop-color="#F98500"/>
<stop offset="1" stop-color="#E4002B"/>
</linearGradient>
<clipPath id="clip0_4793_22916">
<rect width="360" height="360" rx="8" fill="white"/>
</clipPath>
<clipPath id="clip1_4793_22916">
<rect width="195" height="87" fill="white" transform="translate(30 30)"/>
</clipPath>
<clipPath id="clip2_4793_22916">
<rect width="582" height="204" fill="white" transform="translate(-174 128)"/>
</clipPath>
</defs>
</svg>
