<svg width="360" height="360" viewBox="0 0 360 360" fill="none" xmlns="http://www.w3.org/2000/svg">
<g clip-path="url(#clip0_4581_24000)">
<rect width="360" height="360" rx="8" fill="#140B0C"/>
<g clip-path="url(#clip1_4581_24000)">
<path d="M75.3458 74.0071C78.3616 73.8985 80.2873 73.3196 80.2873 69.8097V52.0433V50.1617C80.2873 46.6518 78.3979 46.0729 75.3458 45.9643V42.7801H94.0945V45.9643H93.9855C91.0424 46.1091 89.3346 46.688 89.3346 50.1617V54.9742V57.2538H103.324V50.1255C103.324 46.6157 101.579 46.0367 98.5273 45.9282V42.7439H117.276V45.9282C114.26 46.0367 112.335 46.6157 112.335 50.1255V53.563V64.563V69.8097C112.335 73.3196 114.224 73.8985 117.276 74.0071V77.1913H98.5273V74.0071C101.543 73.8985 103.324 73.3196 103.324 69.8097V61.1979H89.3346V65.8295V69.8097C89.3346 73.3196 91.0787 73.8985 94.1308 74.0071V77.1913H75.3821V74.0071H75.3458ZM136.57 45.7472C135.589 45.7472 134.753 45.892 134.026 46.1814C133.3 46.4709 132.718 46.8328 132.173 47.2308C131.665 47.665 131.229 48.0992 130.865 48.5696C130.502 49.04 130.211 49.4742 130.029 49.9084C129.521 50.8492 129.085 52.1156 128.685 53.6716C128.285 55.2275 128.067 57.29 128.067 59.8229C128.067 62.3558 128.176 62.5367 128.431 64.165C128.685 65.7933 129.121 67.3492 129.739 68.7966C130.393 70.2439 131.265 71.5104 132.355 72.5235C133.445 73.5367 134.862 74.0433 136.57 74.0433C138.277 74.0433 139.767 73.5367 140.894 72.5235C142.02 71.5104 142.892 70.2801 143.546 68.7966C144.2 67.3492 144.636 65.7933 144.854 64.2012C145.108 62.6091 145.217 61.1979 145.217 60.04C145.217 58.8821 145.108 57.7604 144.89 56.1683C144.672 54.5762 144.236 52.9841 143.655 51.4281C143.037 49.8722 142.165 48.5334 141.003 47.4479C139.84 46.3262 138.35 45.7834 136.57 45.7834V45.7472ZM137.151 41.9117C139.84 41.9117 142.238 42.3097 144.273 43.0696C146.344 43.8657 148.088 44.8426 149.505 46.0729C150.159 46.6518 150.813 47.3393 151.54 48.1716C152.266 49.0038 152.884 49.9808 153.465 51.1025C154.047 52.2242 154.483 53.5268 154.846 54.938C155.209 56.3854 155.391 58.0137 155.391 59.8591C155.391 63.4413 154.773 66.3722 153.574 68.688C152.375 71.0038 150.849 72.813 148.96 74.1518C147.107 75.4907 145.036 76.4314 142.819 76.9742C141.62 77.2637 139.149 77.6617 136.606 77.6255C133.627 77.6255 130.538 77.1189 129.266 76.7209C127.014 75.9972 125.052 74.9479 123.344 73.4643C121.636 72.017 120.328 70.1716 119.347 67.9281C118.366 65.6847 117.894 63.0433 117.894 59.9676C117.894 56.892 118.402 53.961 119.492 51.6453C120.546 49.3656 121.963 47.4841 123.707 46.0729C125.488 44.6255 127.522 43.5762 129.848 42.8887C132.173 42.2012 134.608 41.8755 137.151 41.8755V41.9117ZM178.173 46.5795C176.465 46.5795 175.085 46.9775 174.031 47.7735C172.977 48.5696 172.141 49.5104 171.56 50.5959C171.051 51.5005 170.615 52.6946 170.216 54.1781C169.816 55.6617 169.598 57.688 169.598 60.2209C169.598 62.7538 169.671 62.5005 169.816 64.0203C169.961 65.5762 170.325 67.0959 170.87 68.5795C171.451 70.063 172.287 71.3295 173.413 72.3788C174.539 73.4282 176.102 73.9709 178.137 73.9709C180.171 73.9709 181.806 73.4282 183.005 72.3426C184.168 71.2571 185.04 69.9907 185.622 68.5433C186.203 67.0959 186.53 65.6124 186.639 64.0926C186.748 62.5729 186.821 61.415 186.821 60.5466C186.821 58.9545 186.712 57.29 186.494 55.6255C186.276 53.961 185.84 52.4413 185.222 51.1025C184.568 49.7637 183.696 48.6781 182.569 47.8097C181.443 46.9775 179.99 46.5433 178.246 46.5433L178.173 46.5795ZM196.195 24.4709C195.904 26.3887 195.396 28.017 194.669 29.3196C193.942 30.6222 193.07 31.6716 192.053 32.4676C191.035 33.2637 189.909 33.8788 188.674 34.313C187.438 34.7472 186.13 35.0367 184.822 35.2176L179.009 36.0499C177.446 36.267 175.848 36.6288 174.249 37.0992C172.65 37.5696 171.197 38.3295 169.925 39.3426C168.617 40.3558 167.527 41.7308 166.655 43.4676C165.783 45.2045 165.274 47.4841 165.092 50.3064H165.238C166.873 47.9183 168.908 46.0367 171.415 44.7341C173.922 43.4314 176.647 42.7439 179.59 42.7439C182.533 42.7439 184.895 43.1781 186.784 44.0104C188.71 44.8426 190.2 45.7834 191.326 46.7604C193.034 48.2078 194.415 50.0531 195.396 52.188C196.413 54.3591 196.922 57.0005 196.922 60.1124C196.922 63.2242 196.304 66.4808 195.105 68.7604C193.906 71.04 192.38 72.8492 190.527 74.188C188.674 75.5268 186.639 76.4676 184.386 76.9742C183.078 77.2637 180.68 77.6617 178.137 77.6255C174.939 77.6255 171.56 77.0828 169.889 76.3229C167.818 75.3821 166.219 74.4051 165.092 73.4282C163.857 72.3426 162.876 71.1485 162.113 69.8459C161.35 68.5433 160.769 67.2045 160.369 65.8295C159.969 64.4545 159.715 63.0433 159.57 61.6321C159.424 60.2209 159.352 58.8459 159.352 57.5433C159.352 55.517 159.461 53.4183 159.715 51.211C159.969 49.0038 160.369 46.8689 160.878 44.7703C161.423 42.6716 162.149 40.6814 163.058 38.7999C163.966 36.9183 165.056 35.29 166.328 33.915C167.418 32.7933 168.544 31.8525 169.707 31.0926C170.87 30.3328 172.069 29.7538 173.268 29.2834C174.467 28.8492 175.666 28.4874 176.829 28.2703C177.991 28.017 179.154 27.836 180.28 27.6913L186.094 26.9676C187.366 26.8229 188.601 26.6058 189.764 26.2439C190.926 25.9183 191.689 25.267 191.98 24.3262H196.086L196.195 24.4709ZM30.7268 74.9841C32.2892 75.7439 34.0333 76.2867 35.8137 76.8295C42.3176 78.8196 53.2543 77.6255 56.5244 76.54C58.1232 75.9972 59.6129 75.3097 61.0663 74.4413C62.5197 73.5729 63.9367 72.4512 65.2811 71.1124C66.7345 69.7012 67.8972 68.2538 68.8419 66.7341C69.7503 65.2143 70.5133 63.6584 71.0583 62.1387C71.6033 60.5827 72.003 59.063 72.221 57.5433C72.439 56.0235 72.5117 54.5762 72.5117 53.165C72.439 48.8229 71.5307 45.0959 69.8593 41.9841C68.1879 38.8722 66.0805 36.3393 63.6097 34.4216C61.357 32.6847 58.7045 31.3459 55.6161 30.3689C47.6951 27.9446 35.1233 29.6453 31.0902 37.3887C30.3998 38.438 30.0365 39.6321 30.0728 41.0071C30.1091 42.7439 30.7632 44.2275 32.0349 45.4216C33.3066 46.6157 34.8326 47.1946 36.5404 47.1584C38.3934 47.1222 39.9195 46.4709 41.1912 45.2407C42.4266 44.0104 43.0443 42.4906 43.0079 40.7538C43.0079 39.9216 42.7899 39.0893 42.4266 38.3295C42.0632 37.5696 41.5546 36.9183 40.9732 36.3393C40.5008 35.9051 39.9558 35.5071 39.3745 35.2176C43.0079 33.5531 46.9684 33.2275 50.6746 34.6387C52.564 35.3624 54.199 36.3393 55.5797 37.5696C56.2701 38.2209 56.9605 38.9808 57.6508 39.8854C58.3412 40.79 58.9589 41.8755 59.4676 43.142C60.0126 44.4084 60.4849 45.8558 60.8483 47.4841C61.2116 49.1124 61.4296 50.9939 61.466 53.0564C61.5386 55.7341 61.2843 58.3031 60.7029 60.7275C60.1579 63.1518 59.1769 65.3591 57.8688 67.2406C54.853 71.5828 50.1295 73.6814 44.861 73.6453C39.5925 73.6091 35.305 72.1617 32.5072 70.3887L30.7632 75.0203L30.7268 74.9841ZM204.734 67.5301C207.967 67.5301 210.583 70.0268 210.583 73.1387C210.583 76.2505 207.967 78.7472 204.734 78.7472C201.5 78.7472 198.884 76.2505 198.884 73.1387C198.884 70.0268 201.5 67.5301 204.734 67.5301Z" fill="white"/>
</g>
<rect x="30.2759" y="164" width="93.6923" height="120.33" rx="3.67421" fill="#D9D9D9"/>
<path d="M30.2759 167.674C30.2759 165.645 31.9209 164 33.9501 164H120.294C122.323 164 123.968 165.645 123.968 167.674V216.357H30.2759V167.674Z" fill="white"/>
<rect x="39.4614" y="225.543" width="45.9276" height="5.51131" rx="2.75566" fill="#5F5F5F"/>
<rect x="39.4614" y="234.729" width="55.1131" height="5.51131" rx="2.75566" fill="#5F5F5F"/>
<rect x="39.4614" y="245.752" width="65.2172" height="3.67421" rx="1.8371" fill="#AEAEAE"/>
<rect x="39.4614" y="253.1" width="45.9276" height="3.67421" rx="1.8371" fill="#AEAEAE"/>
<circle cx="44.9727" cy="269.634" r="5.51131" fill="white"/>
<rect x="-73" y="89" width="93.6923" height="120.33" rx="3.67421" fill="#D9D9D9"/>
<path d="M-73 92.6742C-73 90.645 -71.355 89 -69.3258 89H17.0181C19.0473 89 20.6923 90.645 20.6923 92.6742V141.357H-73V92.6742Z" fill="white"/>
<rect x="-63.8145" y="170.752" width="65.2172" height="3.67421" rx="1.8371" fill="#AEAEAE"/>
<rect x="133.154" y="125" width="93.6923" height="120.33" rx="3.67421" fill="#D9D9D9"/>
<path d="M133.154 128.674C133.154 126.645 134.799 125 136.828 125H223.172C225.201 125 226.846 126.645 226.846 128.674V177.357H133.154V128.674Z" fill="white"/>
<rect x="142.339" y="186.543" width="45.9276" height="5.51131" rx="2.75566" fill="#5F5F5F"/>
<rect x="142.339" y="195.729" width="55.1131" height="5.51131" rx="2.75566" fill="#5F5F5F"/>
<rect x="142.339" y="206.752" width="65.2172" height="3.67421" rx="1.8371" fill="#AEAEAE"/>
<rect x="142.339" y="214.1" width="45.9276" height="3.67421" rx="1.8371" fill="#AEAEAE"/>
<circle cx="147.851" cy="230.634" r="5.51131" fill="white"/>
<rect x="236.032" y="187.516" width="93.6923" height="120.33" rx="3.67421" fill="#D9D9D9"/>
<path d="M236.032 191.19C236.032 189.161 237.677 187.516 239.706 187.516H326.05C328.079 187.516 329.724 189.161 329.724 191.19V239.873H236.032V191.19Z" fill="white"/>
<rect x="245.217" y="249.059" width="45.9276" height="5.51131" rx="2.75566" fill="#5F5F5F"/>
<rect x="245.217" y="258.244" width="55.1131" height="5.51131" rx="2.75566" fill="#5F5F5F"/>
<rect x="245.217" y="269.268" width="65.2172" height="3.67421" rx="1.8371" fill="#AEAEAE"/>
<rect x="245.217" y="276.615" width="45.9276" height="3.67421" rx="1.8371" fill="#AEAEAE"/>
<circle cx="250.729" cy="293.15" r="5.51131" fill="white"/>
<rect x="337.032" y="124.516" width="93.6923" height="120.33" rx="3.67421" fill="#D9D9D9"/>
<path d="M337.032 128.19C337.032 126.161 338.677 124.516 340.706 124.516H427.05C429.079 124.516 430.724 126.161 430.724 128.19V176.873H337.032V128.19Z" fill="white"/>
<rect x="346.217" y="186.059" width="45.9276" height="5.51131" rx="2.75566" fill="#5F5F5F"/>
<rect x="346.217" y="195.244" width="55.1131" height="5.51131" rx="2.75566" fill="#5F5F5F"/>
<rect x="346.217" y="206.268" width="65.2172" height="3.67421" rx="1.8371" fill="#AEAEAE"/>
<rect x="346.217" y="213.615" width="45.9276" height="3.67421" rx="1.8371" fill="#AEAEAE"/>
<circle cx="351.729" cy="230.15" r="5.51131" fill="white"/>
<rect x="236.032" y="58" width="93.6923" height="120.33" rx="3.67421" fill="#D9D9D9"/>
<path d="M236.032 61.6742C236.032 59.645 237.677 58 239.706 58H326.05C328.079 58 329.724 59.645 329.724 61.6742V110.357H236.032V61.6742Z" fill="white"/>
<rect x="245.217" y="119.543" width="45.9276" height="5.51131" rx="2.75566" fill="#5F5F5F"/>
<rect x="245.217" y="128.729" width="55.1131" height="5.51131" rx="2.75566" fill="#5F5F5F"/>
<rect x="245.217" y="139.752" width="65.2172" height="3.67421" rx="1.8371" fill="#AEAEAE"/>
<rect x="245.217" y="147.1" width="45.9276" height="3.67421" rx="1.8371" fill="#AEAEAE"/>
<circle cx="250.729" cy="163.634" r="5.51131" fill="white"/>
<rect x="337.032" y="-5" width="93.6923" height="120.33" rx="3.67421" fill="#D9D9D9"/>
<path d="M337.032 -1.32579C337.032 -3.355 338.677 -5 340.706 -5H427.05C429.079 -5 430.724 -3.355 430.724 -1.32579V47.3575H337.032V-1.32579Z" fill="white"/>
<rect x="346.217" y="56.543" width="45.9276" height="5.51131" rx="2.75566" fill="#5F5F5F"/>
<rect x="346.217" y="65.7285" width="55.1131" height="5.51131" rx="2.75566" fill="#5F5F5F"/>
<rect x="346.217" y="76.752" width="65.2172" height="3.67421" rx="1.8371" fill="#AEAEAE"/>
<rect x="346.217" y="84.0996" width="45.9276" height="3.67421" rx="1.8371" fill="#AEAEAE"/>
<circle cx="351.729" cy="100.634" r="5.51131" fill="white"/>
<rect x="236.032" y="-71" width="93.6923" height="120.33" rx="3.67421" fill="#D9D9D9"/>
<rect x="245.217" y="-0.271484" width="55.1131" height="5.51131" rx="2.75566" fill="#5F5F5F"/>
<rect x="245.217" y="10.752" width="65.2172" height="3.67421" rx="1.8371" fill="#AEAEAE"/>
<rect x="245.217" y="18.0996" width="45.9276" height="3.67421" rx="1.8371" fill="#AEAEAE"/>
<circle cx="250.729" cy="34.6344" r="5.51131" fill="white"/>
<rect x="30.2759" y="293.516" width="93.6923" height="120.33" rx="3.67421" fill="#D9D9D9"/>
<path d="M30.2759 297.19C30.2759 295.161 31.9209 293.516 33.9501 293.516H120.294C122.323 293.516 123.968 295.161 123.968 297.19V345.873H30.2759V297.19Z" fill="white"/>
<rect x="39.4614" y="355.059" width="45.9276" height="5.51131" rx="2.75566" fill="#5F5F5F"/>
<rect x="-73" y="218.516" width="93.6923" height="120.33" rx="3.67421" fill="#D9D9D9"/>
<path d="M-73 222.19C-73 220.161 -71.355 218.516 -69.3258 218.516H17.0181C19.0473 218.516 20.6923 220.161 20.6923 222.19V270.873H-73V222.19Z" fill="white"/>
<rect x="-63.8145" y="300.268" width="65.2172" height="3.67421" rx="1.8371" fill="#AEAEAE"/>
<rect x="-73" y="348.516" width="93.6923" height="120.33" rx="3.67421" fill="#D9D9D9"/>
<path d="M-73 352.19C-73 350.161 -71.355 348.516 -69.3258 348.516H17.0181C19.0473 348.516 20.6923 350.161 20.6923 352.19V400.873H-73V352.19Z" fill="white"/>
<rect x="133.154" y="254.516" width="93.6923" height="120.33" rx="3.67421" fill="#D9D9D9"/>
<path d="M133.154 258.19C133.154 256.161 134.799 254.516 136.828 254.516H223.172C225.201 254.516 226.846 256.161 226.846 258.19V306.873H133.154V258.19Z" fill="white"/>
<rect x="142.339" y="316.059" width="45.9276" height="5.51131" rx="2.75566" fill="#5F5F5F"/>
<rect x="142.339" y="325.244" width="55.1131" height="5.51131" rx="2.75566" fill="#5F5F5F"/>
<rect x="142.339" y="336.268" width="65.2172" height="3.67421" rx="1.8371" fill="#AEAEAE"/>
<rect x="142.339" y="343.615" width="45.9276" height="3.67421" rx="1.8371" fill="#AEAEAE"/>
<circle cx="147.851" cy="360.15" r="5.51131" fill="white"/>
<rect x="236.032" y="317.031" width="93.6923" height="120.33" rx="3.67421" fill="#D9D9D9"/>
<path d="M236.032 320.705C236.032 318.676 237.677 317.031 239.706 317.031H326.05C328.079 317.031 329.724 318.676 329.724 320.705V369.389H236.032V320.705Z" fill="white"/>
<rect x="337.032" y="254.031" width="93.6923" height="120.33" rx="3.67421" fill="#D9D9D9"/>
<path d="M337.032 257.705C337.032 255.676 338.677 254.031 340.706 254.031H427.05C429.079 254.031 430.724 255.676 430.724 257.705V306.389H337.032V257.705Z" fill="white"/>
<rect x="346.217" y="315.574" width="45.9276" height="5.51131" rx="2.75566" fill="#5F5F5F"/>
<rect x="346.217" y="324.76" width="55.1131" height="5.51131" rx="2.75566" fill="#5F5F5F"/>
<rect x="346.217" y="335.783" width="65.2172" height="3.67421" rx="1.8371" fill="#AEAEAE"/>
<rect x="346.217" y="343.131" width="45.9276" height="3.67421" rx="1.8371" fill="#AEAEAE"/>
<circle cx="351.729" cy="359.666" r="5.51131" fill="white"/>
</g>
<defs>
<clipPath id="clip0_4581_24000">
<rect width="360" height="360" rx="8" fill="white"/>
</clipPath>
<clipPath id="clip1_4581_24000">
<rect width="180.583" height="55" fill="white" transform="translate(30 24)"/>
</clipPath>
</defs>
</svg>
