<svg width="360" height="360" viewBox="0 0 360 360" fill="none" xmlns="http://www.w3.org/2000/svg">
<g clip-path="url(#clip0_1946_129840)">
<rect width="360" height="360" rx="8" fill="#015AAB"/>
<circle cx="180" cy="240" r="138" stroke="white" stroke-opacity="0.2" stroke-width="4" style="mix-blend-mode:soft-light"/>
<circle cx="180" cy="240" r="121" stroke="white" stroke-opacity="0.5" stroke-width="8" style="mix-blend-mode:soft-light"/>
<path fill-rule="evenodd" clip-rule="evenodd" d="M30 49.3455L61.0243 56.9275L78.4639 48.9515L63.3888 68.1665L30 49.3455Z" fill="#ED1C24"/>
<path fill-rule="evenodd" clip-rule="evenodd" d="M182.198 53.0341L189.521 61.9244L202.891 51.3317L186.383 73.9673L182.198 53.0341Z" fill="#ED1C24"/>
<path fill-rule="evenodd" clip-rule="evenodd" d="M98.3825 68.9704C98.0529 69.8216 97.7233 70.5782 97.3794 71.2245C97.0785 71.7762 96.7202 72.3594 96.2903 72.9742C95.8604 73.5416 95.3589 74.0618 94.7857 74.5347C94.2125 75.0076 93.539 75.449 92.7795 75.8746C92.02 76.3002 91.1889 76.5997 90.3004 76.8046C89.412 77.0095 88.4232 77.1198 87.3198 77.1198C85.6718 77.1198 84.2962 76.8676 83.1784 76.3475C82.0607 75.8273 81.2296 75.1179 80.6994 74.2195C80.1692 73.321 79.8539 72.2964 79.7679 71.1457C79.7536 70.9408 79.7536 70.6728 79.7679 70.3576C79.7822 70.0581 79.7822 69.8846 79.7966 69.8374C79.8539 69.0807 79.9685 68.3399 80.1405 67.5833C80.3125 66.8424 80.5561 66.1173 80.8427 65.408C81.1436 64.6986 81.4875 63.9893 81.9031 63.28C82.7772 61.7825 84.0812 60.4899 85.8295 59.4023C87.5777 58.3147 89.7702 57.7787 92.4069 57.7787C94.4561 57.7787 96.0037 58.1728 97.0498 58.9609C98.0959 59.7333 98.7408 60.6949 98.9844 61.814C99.0704 62.2396 99.1277 62.6337 99.1563 62.9805C99.185 63.3273 99.185 63.7529 99.142 64.2415C99.1277 64.4937 99.099 64.7302 99.0703 64.9824C99.0274 65.2346 99.013 65.4395 98.9844 65.5971H92.9801C93.0661 64.4149 92.9658 63.5637 92.6792 63.0593C92.4069 62.5549 91.8767 62.3027 91.1029 62.3027C90.5584 62.3027 90.0282 62.413 89.498 62.6337C89.2543 62.7125 88.9964 62.8859 88.7385 63.1066C88.5235 63.2958 88.2799 63.5795 88.0076 63.9263C87.4488 64.6829 86.9902 65.739 86.6606 67.1104C86.4457 68.0088 86.3167 68.7497 86.2737 69.3645C86.2164 70.2314 86.3167 70.8935 86.5746 71.3821C86.9615 72.1703 87.6064 72.5644 88.5092 72.5644C89.4406 72.5644 90.1715 72.2649 90.7017 71.6659C91.0169 71.3191 91.2892 70.9565 91.5041 70.5624C91.7621 70.1211 92.0057 69.5852 92.2206 68.9704H98.3825ZM115.492 76.4893H109.259L112.598 62.9962H107.281L103.943 76.4893H97.709L102.166 58.4565H119.949L115.492 76.4893ZM139.438 67.4571C138.979 69.3014 138.306 70.8462 137.374 72.123C136.916 72.7693 136.429 73.3367 135.913 73.8254C135.397 74.314 134.838 74.7554 134.222 75.1652C133.061 75.8903 131.872 76.4105 130.654 76.6942C130.009 76.8519 129.421 76.9622 128.877 77.041C128.332 77.1198 127.759 77.1514 127.171 77.1514C125.925 77.1514 124.75 76.978 123.646 76.6154C122.557 76.2529 121.626 75.6854 120.881 74.913C120.135 74.1249 119.648 73.1003 119.433 71.8392C119.319 71.193 119.29 70.4994 119.347 69.7743C119.39 69.1122 119.519 68.3399 119.72 67.4414C120.164 65.6444 120.852 64.0839 121.769 62.7755C122.256 62.1293 122.743 61.5618 123.245 61.0889C123.747 60.6161 124.305 60.1589 124.922 59.7491C125.495 59.3865 126.082 59.087 126.684 58.8348C127.286 58.5826 127.888 58.3777 128.49 58.2359C129.693 57.9364 130.84 57.7945 131.972 57.7945C133.118 57.7945 134.207 57.9364 135.268 58.2359C136.328 58.5196 137.26 59.0398 138.062 59.7649C138.478 60.1589 138.807 60.6003 139.08 61.0889C139.352 61.5776 139.552 62.1451 139.71 62.8071C139.868 63.4534 139.911 64.21 139.853 65.077C139.782 65.7548 139.653 66.5587 139.438 67.4571ZM132.989 67.4571C133.176 66.7163 133.29 66.0543 133.333 65.471C133.405 64.4307 133.233 63.6425 132.832 63.1066C132.43 62.5707 131.757 62.3185 130.825 62.3185C129.665 62.3185 128.705 62.744 127.945 63.5952C127.186 64.4464 126.598 65.739 126.168 67.4414C125.982 68.1823 125.867 68.8601 125.824 69.4433C125.753 70.4994 125.91 71.2875 126.312 71.8077C126.713 72.3279 127.372 72.5959 128.289 72.5959C129.45 72.5959 130.424 72.1545 131.198 71.3033C131.972 70.4521 132.574 69.1595 132.989 67.4571ZM159.772 67.3153C159.07 70.1526 157.952 72.2806 156.433 73.715C154.9 75.1495 153.467 76.0637 152.105 76.4735C150.801 76.8361 149.741 77.0095 148.953 77.0095C147.935 77.0095 146.961 76.8046 146.058 76.3947C145.815 76.2844 145.585 76.1583 145.37 76.0164C145.155 75.8746 144.955 75.7012 144.769 75.5278L142.977 82.7472H136.729L142.82 58.1255H148.767L148.423 59.4023C150.128 58.157 151.934 57.5423 153.868 57.5423C156.462 57.5423 158.282 58.4565 159.328 60.285C160.03 61.5145 160.317 63.0277 160.202 64.7932C160.13 65.5341 159.987 66.3853 159.772 67.3153ZM153.352 67.2523C153.51 66.669 153.596 66.1331 153.624 65.6444C153.653 65.1558 153.639 64.7144 153.538 64.3046C153.409 63.5952 153.123 63.0908 152.693 62.7755C152.263 62.4603 151.747 62.3027 151.145 62.3027C150.687 62.3027 150.228 62.3972 149.784 62.5864C149.34 62.7756 148.91 63.0593 148.48 63.4534C148.05 63.8317 147.678 64.3519 147.362 64.9824C147.047 65.6129 146.775 66.3695 146.545 67.2523C146.474 67.5202 146.431 67.7882 146.388 68.0719C146.345 68.3556 146.302 68.6236 146.288 68.8758C146.23 69.6325 146.302 70.3103 146.502 70.8777C146.631 71.3191 146.889 71.6343 147.276 71.855C147.663 72.0757 148.136 72.186 148.724 72.186C149.841 72.186 150.787 71.7604 151.561 70.9092C152.406 69.9319 152.994 68.7024 153.352 67.2523ZM177.756 62.9962H172.182L168.843 76.4893H162.609L165.948 62.9962H160.388L161.506 58.4565H178.888L177.756 62.9962ZM217.493 75.843H211.145L211.102 74.645C210.686 74.9445 210.256 75.1968 209.841 75.4017C209.411 75.6066 208.938 75.7642 208.422 75.9061C207.161 76.2214 206.086 76.379 205.212 76.379C203.98 76.379 202.962 76.2371 202.189 75.9376C201.415 75.6539 200.87 75.2125 200.541 74.645C200.068 73.8096 199.867 72.9111 199.939 71.9496C199.953 71.6501 200.01 71.3191 200.082 70.9723C200.369 69.8216 200.827 68.8758 201.472 68.1192C202.117 67.3626 202.891 66.7636 203.808 66.3538C204.567 65.9597 205.427 65.6759 206.416 65.4868C206.874 65.3922 207.362 65.3134 207.892 65.2188C208.408 65.1243 208.967 65.0454 209.54 64.9824C210.113 64.9193 210.514 64.872 210.744 64.8248C211.388 64.7459 211.861 64.6671 212.162 64.6198C212.564 64.541 212.85 64.4307 213.008 64.3203C213.151 64.21 213.266 64.0208 213.337 63.7686L213.452 63.3588C213.481 63.2012 213.495 63.0908 213.495 63.0278C213.552 62.1135 212.965 61.6564 211.718 61.6564C211.174 61.6564 210.744 61.6879 210.414 61.7825C210.084 61.8613 209.812 62.0189 209.583 62.2554C209.354 62.4918 209.153 62.7756 208.981 63.0908C208.809 63.4218 208.651 63.8317 208.508 64.3518H202.49C202.704 63.5637 202.934 62.9017 203.192 62.3657C203.435 61.8298 203.736 61.3254 204.094 60.8367C204.467 60.3481 204.911 59.891 205.47 59.4654C206.015 59.0398 206.674 58.6457 207.419 58.2831C208.121 57.9679 208.924 57.7314 209.841 57.558C210.758 57.3846 211.761 57.3058 212.836 57.3058C213.997 57.3058 215.014 57.4004 215.859 57.5896C216.705 57.7787 217.407 58.0467 217.937 58.4092C218.983 59.1501 219.585 60.0171 219.728 61.0259C219.743 61.215 219.757 61.4199 219.771 61.6406C219.771 61.8455 219.771 62.082 219.757 62.3342C219.729 62.8544 219.628 63.4376 219.485 64.0681L217.522 71.7762C217.407 72.2491 217.321 72.6432 217.264 72.9584C217.206 73.2895 217.163 73.5574 217.149 73.7623C217.149 73.8569 217.149 73.9357 217.149 73.9672C217.149 74.1249 217.206 74.2668 217.292 74.3929C217.378 74.5032 217.536 74.6293 217.794 74.7554L217.493 75.843ZM212.248 68.2453L212.277 68.1034L211.79 68.2138C211.747 68.2295 211.474 68.2768 211.016 68.3714C210.543 68.466 210.142 68.5448 209.798 68.5921C209.454 68.6394 209.067 68.7182 208.637 68.8443C208.207 68.9546 207.806 69.0965 207.448 69.2541C207.204 69.3645 207.003 69.5221 206.875 69.727C206.731 69.9319 206.617 70.1999 206.545 70.5467C206.516 70.657 206.502 70.7359 206.502 70.7989C206.488 71.0827 206.574 71.3506 206.746 71.6344C206.889 71.792 207.075 71.9181 207.29 71.9969C207.519 72.0757 207.806 72.1072 208.179 72.1072C208.909 72.1072 209.669 71.8235 210.443 71.256C211.231 70.6885 211.833 69.6797 212.248 68.2453ZM239.017 68.2926C238.687 69.1438 238.343 69.9004 238.014 70.5467C237.727 71.0984 237.354 71.6816 236.924 72.2964C236.495 72.8638 235.993 73.384 235.42 73.8569C234.847 74.3298 234.173 74.7711 233.414 75.1967C232.654 75.6223 231.823 75.9218 230.935 76.1268C230.046 76.3317 229.057 76.442 227.954 76.442C226.306 76.442 224.93 76.1898 223.813 75.6697C222.695 75.1495 221.864 74.4401 221.333 73.5417C220.803 72.6432 220.488 71.6186 220.402 70.4679C220.388 70.2629 220.388 69.995 220.402 69.6797C220.416 69.3802 220.416 69.2069 220.431 69.1596C220.474 68.4029 220.603 67.6621 220.775 66.9055C220.947 66.1646 221.19 65.4395 221.491 64.7302C221.792 64.0208 222.136 63.3115 222.551 62.6022C223.426 61.1047 224.73 59.8121 226.478 58.7245C228.226 57.6369 230.419 57.1009 233.055 57.1009C235.105 57.1009 236.652 57.495 237.698 58.2831C238.73 59.0713 239.375 60.0171 239.633 61.1362C239.719 61.5618 239.776 61.9559 239.805 62.3027C239.833 62.6495 239.833 63.075 239.79 63.5637C239.776 63.8159 239.747 64.0523 239.719 64.3046C239.69 64.5568 239.661 64.7617 239.633 64.9193H233.629C233.715 63.7371 233.614 62.8859 233.328 62.3815C233.055 61.8771 232.525 61.6249 231.751 61.6249C231.207 61.6249 230.677 61.7352 230.146 61.9559C229.903 62.0347 229.645 62.2081 229.387 62.4288C229.172 62.6179 228.928 62.9017 228.642 63.2485C228.083 64.0051 227.624 65.0612 227.295 66.4326C227.08 67.331 226.951 68.0719 226.908 68.6866C226.85 69.5536 226.951 70.2156 227.209 70.7043C227.596 71.4924 228.24 71.8865 229.143 71.8865C230.075 71.8865 230.806 71.5871 231.336 70.9881C231.651 70.6413 231.923 70.2787 232.138 69.8846C232.396 69.4433 232.64 68.9074 232.855 68.2768H239.017V68.2926ZM257.631 62.3185H252.057L248.718 75.8115H242.484L245.823 62.3185H240.249L241.367 57.7787H258.749L257.631 62.3185ZM275.443 68.4029H262.432C262.417 68.4975 262.403 68.5763 262.403 68.6551C262.389 68.734 262.374 68.8285 262.374 68.9389C262.346 69.2541 262.374 69.5851 262.432 69.9162C262.475 70.2314 262.561 70.5152 262.69 70.7674C262.819 71.0196 262.991 71.2402 263.191 71.4452C263.392 71.6343 263.65 71.7919 263.965 71.8865C264.266 71.9811 264.61 72.0284 264.982 72.0284C265.699 72.0284 266.387 71.855 267.046 71.524C267.347 71.3664 267.619 71.1614 267.834 70.9092C268.063 70.6413 268.307 70.263 268.565 69.7586H274.884C274.469 70.594 274.096 71.256 273.752 71.7604C273.408 72.2649 273.022 72.7377 272.563 73.1791C272.162 73.6205 271.675 74.0303 271.087 74.4086C270.499 74.7869 269.826 75.1495 269.066 75.4647C267.576 76.0953 265.785 76.4105 263.693 76.4105C262.116 76.4105 260.784 76.1898 259.666 75.7485C259.093 75.512 258.606 75.2283 258.176 74.913C257.746 74.582 257.388 74.2195 257.087 73.7939C256.786 73.3683 256.556 72.8954 256.385 72.3909C256.213 71.8708 256.098 71.3033 256.041 70.6886C256.026 70.4837 256.012 70.2315 256.012 69.9635C256.012 69.6955 256.026 69.4117 256.041 69.128C256.084 68.4187 256.213 67.6463 256.399 66.8109C256.9 64.809 257.76 63.075 258.993 61.5933C260.225 60.1274 261.701 59.024 263.435 58.3147C264.266 57.9679 265.126 57.6999 266.043 57.5107C266.946 57.3216 267.877 57.227 268.837 57.227C270.485 57.227 271.832 57.495 272.907 58.0152C273.982 58.5511 274.784 59.2762 275.343 60.1904C275.587 60.6633 275.787 61.1678 275.916 61.6879C276.059 62.2081 276.131 62.7283 276.16 63.2642C276.188 63.8002 276.174 64.3046 276.145 64.7775C276.088 65.5341 275.974 66.3065 275.773 67.0788L275.443 68.4029ZM269.926 64.6198C269.969 64.3676 269.998 64.1469 270.012 63.9263C270.07 63.1696 269.926 62.6337 269.582 62.3027C269.081 61.814 268.45 61.5618 267.691 61.5618C267.06 61.5618 266.516 61.6406 266.043 61.814C265.57 61.9874 265.169 62.2554 264.81 62.6337C264.524 62.9647 264.266 63.28 264.051 63.5795C263.793 63.9263 263.592 64.2731 263.449 64.5883H269.926V64.6198ZM297.569 66.6375C296.867 69.4748 295.749 71.6028 294.23 73.0372C292.697 74.4717 291.264 75.3859 289.902 75.7957C288.598 76.1583 287.538 76.3317 286.75 76.3317C285.732 76.3317 284.758 76.1268 283.855 75.7169C283.611 75.6066 283.382 75.4805 283.167 75.3386C282.952 75.1967 282.752 75.0234 282.565 74.85L280.774 82.0694H274.526L280.616 57.4477H286.549L286.205 58.7245C287.91 57.4792 289.716 56.8644 291.65 56.8644C294.244 56.8644 296.064 57.7787 297.11 59.6072C297.812 60.8367 298.099 62.35 297.97 64.1154C297.913 64.872 297.784 65.7232 297.569 66.6375ZM291.135 66.5744C291.292 65.9912 291.378 65.4553 291.407 64.9666C291.436 64.478 291.421 64.0366 291.321 63.6268C291.192 62.9174 290.905 62.413 290.475 62.0977C290.046 61.7825 289.544 61.6249 288.942 61.6249C288.484 61.6249 288.025 61.7194 287.581 61.9086C287.137 62.0978 286.707 62.3815 286.262 62.7755C285.833 63.1539 285.46 63.674 285.145 64.3046C284.829 64.9351 284.557 65.6917 284.328 66.5744C284.256 66.8424 284.213 67.1104 284.17 67.3941C284.127 67.6779 284.084 67.9458 284.07 68.198C284.013 68.9546 284.084 69.6325 284.285 70.1999C284.414 70.6413 284.672 70.9565 285.059 71.1772C285.446 71.3979 285.919 71.5082 286.506 71.5082C287.624 71.5082 288.57 71.0826 289.343 70.2314C290.189 69.2541 290.776 68.0404 291.135 66.5744ZM60.9384 53.9483C57.9434 53.9483 55.5073 51.2686 55.5073 47.9742C55.5073 44.6797 57.9577 42 60.9384 42C63.9333 42 66.3837 44.6797 66.3837 47.9742C66.3694 51.2529 63.9333 53.9483 60.9384 53.9483ZM90.3291 86.4515L52.5697 77.9868L32.6367 86.9244L50.2912 64.4307L90.3291 86.4515ZM176.094 75.8115H184.319L180.636 57.6526L176.094 75.8115ZM188.174 75.8115H196.399L200.971 57.7787L188.174 75.8115Z" fill="white"/>
<rect x="46" y="319" width="268" height="41" fill="#0971CF"/>
<g filter="url(#filter0_d_1946_129840)">
<rect x="30" y="138" width="300" height="180" rx="12" fill="#3F95E3"/>
</g>
<rect x="46" y="154" width="268" height="148" rx="6" fill="white"/>
<path d="M85.7776 193.092V183.163H83.8052V196H86.1118L92.2629 186.071V196H94.2353V183.163H91.962L85.7776 193.092ZM101.232 183.163H99.2598V196H101.232V190.518H107.383V196H109.356V183.163H107.383V188.679H101.232V183.163ZM112.623 185.002H116.869V196H118.841V185.002H123.053V183.163H112.623V185.002ZM132.058 196.267C134.665 196.267 136.571 194.964 137.173 193.025L135.267 192.49C134.766 193.827 133.604 194.496 132.058 194.496C129.743 194.496 128.147 193 128.055 190.25H137.373V189.414C137.373 184.634 134.532 182.996 131.857 182.996C128.381 182.996 126.074 185.737 126.074 189.682C126.074 193.626 128.347 196.267 132.058 196.267ZM128.055 188.545C128.188 186.548 129.601 184.768 131.857 184.768C133.997 184.768 135.367 186.372 135.367 188.545H128.055ZM141.786 200.814H143.758V194.028H143.925C144.36 194.73 145.195 196.267 147.669 196.267C150.878 196.267 153.118 193.693 153.118 189.615C153.118 185.57 150.878 182.996 147.636 182.996C145.128 182.996 144.36 184.534 143.925 185.202H143.691V183.163H141.786V200.814ZM143.724 189.582C143.724 186.707 144.995 184.768 147.402 184.768C149.909 184.768 151.146 186.874 151.146 189.582C151.146 192.323 149.876 194.496 147.402 194.496C145.028 194.496 143.724 192.49 143.724 189.582ZM161.316 196.301C163.556 196.301 164.726 195.097 165.127 194.262H165.228V196H167.2V187.542C167.2 183.464 164.091 182.996 162.453 182.996C160.514 182.996 158.308 183.664 157.305 186.005L159.177 186.673C159.612 185.737 160.64 184.734 162.52 184.734C164.333 184.734 165.228 185.695 165.228 187.342V187.409C165.228 188.361 164.258 188.278 161.918 188.579C159.536 188.888 156.937 189.414 156.937 192.356C156.937 194.863 158.876 196.301 161.316 196.301ZM161.617 194.529C160.046 194.529 158.91 193.827 158.91 192.456C158.91 190.952 160.28 190.484 161.818 190.284C162.654 190.183 164.893 189.949 165.228 189.548V191.353C165.228 192.958 163.957 194.529 161.617 194.529ZM172.212 196H174.184V190.584H175.956L180.168 196H182.709L177.461 189.347L182.642 183.163H180.102L175.488 188.746H174.184V183.163H172.212V196ZM185.529 185.002H189.775V196H191.747V185.002H195.959V183.163H185.529V185.002ZM202.221 193.092V183.163H200.248V196H202.555L208.706 186.071V196H210.679V183.163H208.405L202.221 193.092ZM215.703 196H221.754C224.361 196 225.933 194.529 225.933 192.557C225.933 190.543 224.403 189.456 222.991 189.247C224.437 188.946 225.465 188.136 225.465 186.573C225.465 184.525 223.71 183.163 220.952 183.163H215.703V196ZM217.575 194.195V190.25H221.754C223.108 190.25 223.927 191.061 223.927 192.39C223.927 193.509 223.108 194.195 221.754 194.195H217.575ZM217.575 188.545V184.968H220.952C222.531 184.968 223.492 185.628 223.492 186.707C223.492 187.852 222.531 188.545 220.952 188.545H217.575ZM232.303 183.163H230.33V196H232.303V190.518H238.454V196H240.426V183.163H238.454V188.679H232.303V183.163ZM247.413 187.81V183.163H245.44V196H250.822C253.831 196 255.469 194.161 255.469 191.855C255.469 189.515 253.831 187.81 250.822 187.81H247.413ZM257.508 196H259.481V183.163H257.508V196ZM247.413 189.648H250.822C252.385 189.648 253.497 190.601 253.497 191.955C253.497 193.25 252.385 194.161 250.822 194.161H247.413V189.648ZM266.475 193.092V183.163H264.503V196H266.81L272.961 186.071V196H274.933V183.163H272.66L266.475 193.092ZM271.356 178.884C271.356 179.753 270.888 180.522 269.718 180.522C268.548 180.522 268.114 179.753 268.114 178.884H266.275C266.275 180.689 267.612 181.96 269.718 181.96C271.858 181.96 273.195 180.689 273.195 178.884H271.356Z" fill="#064A87"/>
<path d="M103.643 258.228H107.884L95.6202 241.781L107.483 228.887H103.242L91.494 241.609H89.9467V228.887H86.3936V258.228H89.9467V244.761H93.5571L103.643 258.228ZM115.3 228.887V258.228H118.739L134.727 235.191H135.014V258.228H138.567V228.887H135.129L119.082 251.982H118.796V228.887H115.3Z" fill="#064A87"/>
<path d="M241.966 238.056C240.877 232.039 236.063 228.486 230.16 228.486C222.653 228.486 217.209 234.274 217.209 243.558C217.209 252.842 222.653 258.63 230.16 258.63C236.063 258.63 240.877 255.077 241.966 249.059H238.413C237.553 253.128 234.057 255.306 230.16 255.306C224.831 255.306 220.647 251.18 220.647 243.558C220.647 235.936 224.831 231.809 230.16 231.809C234.057 231.809 237.553 233.987 238.413 238.056H241.966ZM267.781 258.228H272.022L259.758 241.781L271.621 228.887H267.38L255.632 241.609H254.085V228.887H250.531V258.228H254.085V244.761H257.695L267.781 258.228Z" fill="#064A87"/>
<path d="M157.647 262.759C152.451 257.518 149.241 250.305 149.241 242.343C149.241 226.328 162.224 213.345 178.239 213.345C194.254 213.345 207.237 226.328 207.237 242.343C207.237 250.305 204.028 257.518 198.832 262.759" stroke="#064A87" stroke-width="3.36207"/>
<path d="M163.494 257.052C159.879 253.308 157.647 248.155 157.647 242.466C157.647 231.025 166.678 221.75 177.819 221.75C188.96 221.75 197.991 231.025 197.991 242.466C197.991 245.908 197.174 249.153 195.729 252.009" stroke="#ED6400" stroke-width="3.36207"/>
<path d="M176.138 262.935H174.877V264.196H176.138V262.935ZM176.978 262.935V264.196H178.239V262.935H176.978ZM182.022 262.935H180.761V264.196H182.022V262.935ZM182.862 262.935V264.196H184.123V262.935H182.862ZM187.905 262.935H186.644V264.196H187.905V262.935ZM188.746 262.935V264.196H190.006V262.935H188.746ZM193.789 259.573H192.528V259.573L193.789 259.573ZM193.789 262.935H195.05H193.789ZM193.789 265.457L192.528 265.457V265.457H193.789ZM193.789 274.282H192.528V274.341L192.534 274.4L193.789 274.282ZM174.734 285.867L175.583 284.935L175.458 284.821L175.307 284.744L174.734 285.867ZM173.685 285.102L174.576 284.211H174.576L173.685 285.102ZM163.067 274.485L163.959 273.593L163.959 273.593L163.067 274.485ZM163.067 268.604L162.176 267.713L162.176 267.713L163.067 268.604ZM168.948 268.604L168.056 269.496L168.948 268.604ZM171.095 270.751L170.203 271.643L172.356 273.795V270.751H171.095ZM173.616 242.343C171.527 242.343 169.834 244.036 169.834 246.125H172.356C172.356 245.429 172.92 244.864 173.616 244.864V242.343ZM177.399 246.125C177.399 244.036 175.705 242.343 173.616 242.343V244.864C174.313 244.864 174.877 245.429 174.877 246.125H177.399ZM177.399 262.935V246.125H174.877V262.935H177.399ZM176.138 264.196H176.978V261.675H176.138V264.196ZM178.239 262.935V253.69H175.718V262.935H178.239ZM178.239 253.69C178.239 252.993 178.804 252.429 179.5 252.429V249.907C177.411 249.907 175.718 251.601 175.718 253.69H178.239ZM179.5 252.429C180.196 252.429 180.761 252.993 180.761 253.69H183.282C183.282 251.601 181.589 249.907 179.5 249.907V252.429ZM180.761 253.69V262.935H183.282V253.69H180.761ZM182.022 264.196H182.862V261.675H182.022V264.196ZM181.601 257.052V262.935H184.123V257.052H181.601ZM185.384 253.269C183.295 253.269 181.601 254.963 181.601 257.052H184.123C184.123 256.355 184.687 255.791 185.384 255.791V253.269ZM189.166 257.052C189.166 254.963 187.473 253.269 185.384 253.269V255.791C186.08 255.791 186.644 256.355 186.644 257.052H189.166ZM189.166 262.935V257.052H186.644V262.935H189.166ZM187.905 264.196H188.746V261.675H187.905V264.196ZM190.006 262.935V259.573H187.485V262.935H190.006ZM190.006 259.573C190.006 258.877 190.571 258.313 191.267 258.313V255.791C189.178 255.791 187.485 257.484 187.485 259.573H190.006ZM191.267 258.313C191.964 258.313 192.528 258.877 192.528 259.573H195.05C195.05 257.484 193.356 255.791 191.267 255.791V258.313ZM192.528 259.573L192.528 262.935H195.05L195.05 259.573L192.528 259.573ZM192.528 262.935L192.528 265.457L195.05 265.457L195.05 262.935L192.528 262.935ZM192.528 265.457L192.528 274.282H195.05L195.05 265.457H192.528ZM181.98 288.991C185.474 288.991 188.117 288.088 190.084 286.646C192.042 285.211 193.236 283.311 193.959 281.467C194.68 279.629 194.948 277.811 195.039 276.469C195.085 275.795 195.088 275.23 195.078 274.83C195.073 274.629 195.065 274.469 195.058 274.356C195.055 274.3 195.051 274.255 195.049 274.223C195.048 274.207 195.047 274.194 195.046 274.184C195.045 274.179 195.045 274.175 195.045 274.172C195.045 274.17 195.044 274.169 195.044 274.168C195.044 274.167 195.044 274.166 195.044 274.166C195.044 274.165 195.044 274.165 193.789 274.282C192.534 274.4 192.533 274.399 192.533 274.399C192.533 274.399 192.533 274.398 192.533 274.398C192.533 274.398 192.533 274.398 192.533 274.398C192.533 274.398 192.533 274.399 192.534 274.4C192.534 274.403 192.534 274.41 192.535 274.419C192.537 274.438 192.539 274.469 192.541 274.511C192.547 274.595 192.553 274.724 192.557 274.891C192.565 275.226 192.564 275.712 192.524 276.298C192.443 277.477 192.209 279.022 191.612 280.546C191.016 282.064 190.075 283.527 188.593 284.613C187.121 285.692 185.021 286.47 181.98 286.47V288.991ZM173.884 286.798C174.439 287.304 175.183 287.882 176.483 288.313C177.742 288.731 179.468 288.991 181.98 288.991V286.47C179.623 286.47 178.19 286.222 177.276 285.92C176.402 285.63 175.958 285.277 175.583 284.935L173.884 286.798ZM172.793 285.994C173.204 286.405 173.666 286.737 174.16 286.989L175.307 284.744C175.045 284.61 174.798 284.433 174.576 284.211L172.793 285.994ZM162.176 275.376L172.793 285.994L174.576 284.211L163.959 273.593L162.176 275.376ZM162.176 267.713C160.059 269.829 160.059 273.26 162.176 275.376L163.959 273.593C162.827 272.462 162.827 270.627 163.959 269.496L162.176 267.713ZM169.839 267.713C167.723 265.596 164.292 265.596 162.176 267.713L163.959 269.496C165.09 268.364 166.925 268.364 168.056 269.496L169.839 267.713ZM171.986 269.86L169.839 267.713L168.056 269.496L170.203 271.643L171.986 269.86ZM172.356 270.751V265.457H169.834V270.751H172.356ZM172.356 265.457V262.935H169.834V265.457H172.356ZM169.834 246.125V262.935H172.356V246.125H169.834Z" fill="#ED6300"/>
</g>
<defs>
<filter id="filter0_d_1946_129840" x="10" y="128" width="340" height="220" filterUnits="userSpaceOnUse" color-interpolation-filters="sRGB">
<feFlood flood-opacity="0" result="BackgroundImageFix"/>
<feColorMatrix in="SourceAlpha" type="matrix" values="0 0 0 0 0 0 0 0 0 0 0 0 0 0 0 0 0 0 127 0" result="hardAlpha"/>
<feOffset dy="10"/>
<feGaussianBlur stdDeviation="10"/>
<feComposite in2="hardAlpha" operator="out"/>
<feColorMatrix type="matrix" values="0 0 0 0 0.00713539 0 0 0 0 0.302248 0 0 0 0 0.570833 0 0 0 1 0"/>
<feBlend mode="normal" in2="BackgroundImageFix" result="effect1_dropShadow_1946_129840"/>
<feBlend mode="normal" in="SourceGraphic" in2="effect1_dropShadow_1946_129840" result="shape"/>
</filter>
<clipPath id="clip0_1946_129840">
<rect width="360" height="360" rx="8" fill="white"/>
</clipPath>
</defs>
</svg>
