<svg width="360" height="360" viewBox="0 0 360 360" fill="none" xmlns="http://www.w3.org/2000/svg">
<g clip-path="url(#clip0_3947_25)">
<rect width="360" height="360" rx="8" fill="#E40046"/>
<g filter="url(#filter0_d_3947_25)">
<path d="M39.375 111.25C39.375 105.037 44.4118 100 50.625 100H309.375C315.588 100 320.625 105.037 320.625 111.25V272.5C320.625 278.713 315.588 283.75 309.375 283.75H50.625C44.4118 283.75 39.375 278.713 39.375 272.5V111.25Z" fill="#FDFDFD"/>
</g>
<path d="M39.375 111.25C39.375 105.037 44.4118 100 50.625 100H309.375C315.588 100 320.625 105.037 320.625 111.25V126.25H39.375V111.25Z" fill="#DCE1EF"/>
<circle cx="54.8438" cy="113.594" r="3.28125" fill="white"/>
<circle cx="64.2188" cy="113.594" r="3.28125" fill="white"/>
<circle cx="73.5938" cy="113.594" r="3.28125" fill="white"/>
<path fill-rule="evenodd" clip-rule="evenodd" d="M276.402 204.158L250.719 178.272L259.28 169.603L284.846 195.489C286.097 196.756 286.723 198.201 286.723 199.823C286.723 201.446 286.097 202.891 284.846 204.158C283.673 205.345 282.266 205.939 280.624 205.939C278.982 205.939 277.575 205.345 276.402 204.158ZM207.327 204.158C206.154 202.891 205.567 201.426 205.567 199.764C205.567 198.102 206.154 196.637 207.327 195.371L237.467 164.972L224.214 151.554L223.98 151.792C223.354 152.425 222.514 152.742 221.458 152.742C220.403 152.742 219.484 152.306 218.702 151.436L217.53 150.367V159.154L217.061 159.748C216.279 160.539 215.282 160.935 214.07 160.935C212.858 160.935 211.861 160.539 211.079 159.748L200.173 148.704C199.391 147.913 199 146.904 199 145.677C199 144.45 199.391 143.44 200.173 142.649L200.642 142.174H209.555L207.913 140.392C207.444 139.205 207.327 137.978 207.561 136.711C207.796 135.445 208.265 134.416 208.968 133.624L221.517 121.156C223.003 119.652 224.644 118.623 226.443 118.069C228.241 117.515 230.195 117.238 232.306 117.238C234.417 117.238 236.392 117.633 238.229 118.425C240.066 119.217 241.728 120.325 243.213 121.75L230.078 134.93L231.837 136.593C232.932 137.78 233.557 138.908 233.714 139.977C233.87 141.046 233.714 142.055 233.245 143.005L232.893 143.361L245.793 156.542L260.687 141.461C260.14 140.59 259.69 139.462 259.339 138.077C258.987 136.692 258.811 135.286 258.811 133.862C258.811 129.349 260.453 125.411 263.736 122.047C267.02 118.682 270.929 117 275.464 117C276.871 117 278.122 117.178 279.217 117.534C280.311 117.891 281.25 118.385 282.032 119.019L272.063 129.231L279.921 137.186L290.006 126.974C290.71 127.845 291.218 128.894 291.531 130.121C291.844 131.348 292 132.674 292 134.099C292 138.69 290.358 142.649 287.074 145.973C283.791 149.298 279.921 150.961 275.464 150.961C274.135 150.961 272.982 150.862 272.004 150.664C271.027 150.466 270.148 150.209 269.366 149.892L215.888 204.276C214.637 205.464 213.19 206.038 211.549 205.998C209.907 205.958 208.499 205.345 207.327 204.158Z" fill="#C3C7D5"/>
<g filter="url(#filter1_d_3947_25)">
<path d="M145.795 138.858C143.685 136.748 140.824 135.562 137.84 135.562H65.625C61.4829 135.562 58.125 138.92 58.125 143.063V281.812C58.125 285.955 61.4829 289.312 65.625 289.312H294.375C298.517 289.312 301.875 285.955 301.875 281.812V173.062C301.875 168.92 298.517 165.562 294.375 165.562H183.373C176.411 165.562 169.734 162.797 164.812 157.874L145.795 138.858Z" fill="#D2E216"/>
</g>
<path d="M87 144L87 156L82.8 153L79 153L79 147L82.8 147L87 144ZM77 147L77 153L75 153L75 147L77 147ZM73 147L73 153L70 153L67 150L70 147L73 147Z" fill="#818B10"/>
<rect x="93" y="148" width="34" height="4" rx="2" fill="#818B10"/>
<rect x="71" y="179" width="218" height="18" rx="4" fill="#E0EF2D"/>
<rect x="71" y="179" width="218" height="15" rx="4" fill="#F3FE76"/>
<rect opacity="0.4" x="78" y="185" width="91" height="4" rx="2" fill="#D8C51C"/>
<rect opacity="0.4" x="277" y="184" width="6" height="6" rx="3" fill="#B9C80E"/>
<path fill-rule="evenodd" clip-rule="evenodd" d="M47.9157 31.7421C51.9324 29.4193 56.8742 29.4193 60.891 31.7421L72.2792 38.3275C76.3173 40.6625 78.8066 44.9899 78.8066 49.6744V62.7528C78.8066 67.4373 76.3173 71.7646 72.2792 74.0997L60.891 80.6851C56.8742 83.0079 51.9324 83.0079 47.9157 80.6851L36.5274 74.0997C32.4894 71.7646 30 67.4373 30 62.7528V49.6744C30 44.9899 32.4893 40.6625 36.5274 38.3275L47.9157 31.7421ZM64.1714 69.6741L56.0065 61.5003L58.7281 58.7632L66.8558 66.937C67.2535 67.337 67.4523 67.7931 67.4523 68.3056C67.4523 68.818 67.2535 69.2742 66.8558 69.6741C66.4829 70.0491 66.0355 70.2365 65.5136 70.2365C64.9916 70.2365 64.5442 70.0491 64.1714 69.6741ZM42.2118 69.6741C41.839 69.2742 41.6526 68.8117 41.6526 68.2868C41.6526 67.7619 41.839 67.2995 42.2118 66.8995L51.7935 57.3009L47.5805 53.0641L47.506 53.139C47.3071 53.339 47.0399 53.439 46.7044 53.439C46.3689 53.439 46.0768 53.3015 45.8283 53.0266L45.4554 52.6891V55.4637L45.3063 55.6512C45.0577 55.9011 44.7408 56.0261 44.3556 56.0261C43.9703 56.0261 43.6534 55.9011 43.4049 55.6512L39.9376 52.1642C39.689 51.9142 39.5647 51.5955 39.5647 51.2081C39.5647 50.8207 39.689 50.5019 39.9376 50.252L40.0867 50.102H42.9202L42.3982 49.5396C42.2491 49.1646 42.2118 48.7772 42.2864 48.3773C42.3609 47.9773 42.5101 47.6524 42.7338 47.4024L46.723 43.4655C47.1953 42.9906 47.7173 42.6656 48.2889 42.4906C48.8606 42.3156 49.482 42.2282 50.1531 42.2282C50.8242 42.2282 51.4517 42.3531 52.0358 42.6031C52.6199 42.8531 53.1481 43.203 53.6204 43.653L49.4447 47.8148L50.0039 48.3398C50.3519 48.7147 50.5507 49.0709 50.6005 49.4083C50.6502 49.7458 50.6005 50.0645 50.4513 50.3645L50.3395 50.4769L54.4406 54.6388L59.1755 49.877C59.0015 49.6021 58.8586 49.2459 58.7468 48.8084C58.6349 48.371 58.579 47.9273 58.579 47.4774C58.579 46.0526 59.1009 44.809 60.1449 43.7467C61.1888 42.6843 62.4315 42.1532 63.8731 42.1532C64.3205 42.1532 64.7182 42.2094 65.0662 42.3219C65.4142 42.4344 65.7124 42.5906 65.961 42.7906L62.7919 46.0151L65.2899 48.5272L68.4962 45.3027C68.7199 45.5777 68.8815 45.9089 68.9809 46.2963C69.0803 46.6838 69.13 47.1024 69.13 47.5524C69.13 49.0022 68.6081 50.252 67.5641 51.3018C66.5202 52.3517 65.2899 52.8766 63.8731 52.8766C63.4506 52.8766 63.084 52.8453 62.7733 52.7828C62.4626 52.7204 62.183 52.6391 61.9344 52.5391L44.9335 69.7116C44.5358 70.0866 44.076 70.2678 43.554 70.2553C43.032 70.2428 42.5846 70.0491 42.2118 69.6741Z" fill="white"/>
<path d="M100.692 68.4283C97.5093 68.4283 94.903 67.4172 92.8727 65.395C90.8619 63.3531 89.8564 60.7615 89.8564 57.6201C89.8564 54.4199 90.8716 51.8184 92.902 49.8158C94.9519 47.8132 97.5484 46.8119 100.692 46.8119C103.757 46.8119 106.255 47.7445 108.188 49.6097C109.555 50.9251 110.375 52.4467 110.648 54.1744H104.557C104.537 54.1548 104.479 54.0861 104.381 53.9683C104.303 53.8505 104.235 53.7425 104.176 53.6443C103.22 52.6823 102.058 52.2013 100.692 52.2013C99.2078 52.2013 98.0462 52.7314 97.2067 53.7916C96.3868 54.8322 95.9768 56.1083 95.9768 57.6201C95.9768 59.1319 96.3965 60.4179 97.236 61.4781C98.095 62.5187 99.2468 63.039 100.692 63.039C102.312 63.039 103.61 62.391 104.586 61.0952H110.648C110.609 61.2719 110.502 61.6744 110.326 62.3027C109.643 64.2857 108.413 65.8073 106.636 66.8675C104.86 67.9081 102.878 68.4283 100.692 68.4283Z" fill="white"/>
<path d="M117.771 68.0749V57.2078H112.207V52.4958H129.074V57.2078H123.51V68.0749H117.771Z" fill="white"/>
<path d="M137.273 65.984V73.641H131.592V52.4958H137.361V54.6162C137.478 54.3021 137.898 53.8603 138.62 53.2909C139.694 52.5645 140.865 52.2013 142.134 52.2013C144.321 52.2013 146.01 52.9964 147.2 54.5867C148.411 56.1574 149.016 58.0521 149.016 60.2706C149.016 62.5089 148.401 64.4231 147.171 66.0134C145.961 67.5841 144.282 68.3694 142.134 68.3694C141.158 68.3694 140.231 68.1731 139.352 67.7804C138.474 67.3681 137.781 66.7693 137.273 65.984ZM138.093 57.9441C137.566 58.5331 137.302 59.3086 137.302 60.2706C137.302 61.2327 137.566 62.018 138.093 62.6267C138.62 63.2157 139.352 63.5102 140.289 63.5102C141.207 63.5102 141.92 63.2058 142.427 62.5972C142.954 61.9886 143.218 61.213 143.218 60.2706C143.218 59.3086 142.964 58.5331 142.456 57.9441C141.949 57.3551 141.226 57.0606 140.289 57.0606C139.352 57.0606 138.62 57.3551 138.093 57.9441Z" fill="white"/>
<path d="M159.774 52.0835C162.273 52.0835 164.333 52.8394 165.953 54.3511C167.593 55.8433 168.413 57.8165 168.413 60.2706C168.413 62.7445 167.583 64.7372 165.924 66.249C164.284 67.7412 162.234 68.4872 159.774 68.4872C157.276 68.4872 155.196 67.7314 153.537 66.2196C151.897 64.6882 151.077 62.7052 151.077 60.2706C151.077 57.7772 151.907 55.7942 153.566 54.3217C155.245 52.8296 157.315 52.0835 159.774 52.0835ZM159.774 63.5102C160.672 63.5102 161.375 63.2058 161.883 62.5972C162.41 61.9689 162.674 61.1934 162.674 60.2706C162.674 59.3479 162.41 58.5822 161.883 57.9735C161.375 57.3649 160.672 57.0606 159.774 57.0606C158.876 57.0606 158.154 57.3649 157.607 57.9735C157.08 58.5822 156.817 59.3479 156.817 60.2706C156.817 61.1934 157.08 61.9689 157.607 62.5972C158.135 63.2058 158.857 63.5102 159.774 63.5102Z" fill="white"/>
<path d="M171.2 68.0749V52.4958H176.881V60.5062L182.503 52.4958H188.184V68.0749H182.503V60.0645L176.881 68.0749H171.2ZM179.721 47.1064C180.151 47.1064 180.453 46.9788 180.629 46.7235C180.805 46.4879 180.893 46.2033 180.893 45.8695V45.4277H185.256V45.9578C185.256 47.607 184.739 48.8734 183.704 49.7569C182.689 50.6208 181.361 51.0527 179.721 51.0527C178.062 51.0527 176.725 50.611 175.709 49.7275C174.694 48.8243 174.187 47.5678 174.187 45.9578V45.4277H178.55V45.8695C178.55 46.2033 178.638 46.4879 178.814 46.7235C178.95 46.9788 179.253 47.1064 179.721 47.1064Z" fill="white"/>
<path d="M207.048 68.0749V60.2412H198.175V68.0749H192.171V47.1653H198.175V54.999H207.048V47.1653H213.051V68.0749H207.048Z" fill="white"/>
<path d="M227.877 68.0749V65.984C226.842 67.5743 225.251 68.3694 223.104 68.3694C220.956 68.3694 219.287 67.5743 218.096 65.984C216.905 64.374 216.31 62.4696 216.31 60.2706C216.31 58.0324 216.915 56.128 218.125 54.5573C219.336 52.9866 221.005 52.2013 223.133 52.2013C224.968 52.2013 226.393 52.7805 227.408 53.9388C227.643 54.2333 227.769 54.4002 227.789 54.4395V52.4958H233.558V68.0749H227.877ZM227.086 62.5972C227.594 61.9689 227.848 61.1934 227.848 60.2706C227.848 59.3479 227.594 58.5822 227.086 57.9735C226.579 57.3649 225.876 57.0606 224.978 57.0606C224.08 57.0606 223.377 57.3747 222.869 58.003C222.362 58.6116 222.108 59.3675 222.108 60.2706C222.108 61.1934 222.362 61.9689 222.869 62.5972C223.377 63.2058 224.08 63.5102 224.978 63.5102C225.876 63.5102 226.579 63.2058 227.086 62.5972Z" fill="white"/>
<path d="M252.462 58.1797H246.869C246.498 57.414 245.776 57.0311 244.702 57.0311C243.843 57.0311 243.189 57.3551 242.74 58.003C242.31 58.6312 242.096 59.3871 242.096 60.2706C242.096 61.1738 242.32 61.9493 242.769 62.5972C243.218 63.2255 243.872 63.5396 244.731 63.5396C245.414 63.5396 245.941 63.3825 246.312 63.0684C246.508 62.931 246.644 62.8034 246.722 62.6856C246.859 62.5089 246.927 62.4107 246.927 62.3911H252.462C252.403 63.6476 251.964 64.7569 251.144 65.7189C250.324 66.681 249.299 67.4074 248.069 67.8982C247.152 68.2909 245.981 68.4872 244.555 68.4872C242.096 68.4872 240.104 67.7314 238.581 66.2196C237.078 64.6882 236.327 62.7052 236.327 60.2706C236.327 57.8361 237.088 55.8629 238.611 54.3511C240.134 52.8394 242.096 52.0835 244.497 52.0835C246.547 52.0835 248.343 52.6136 249.885 53.6738C251.427 54.734 252.286 56.236 252.462 58.1797Z" fill="white"/>
<path d="M259.586 68.0749V57.2078H254.022V52.4958H270.89V57.2078H265.326V68.0749H259.586Z" fill="white"/>
<path d="M279.089 65.984V73.641H273.408V52.4958H279.177V54.6162C279.294 54.3021 279.713 53.8603 280.436 53.2909C281.51 52.5645 282.681 52.2013 283.95 52.2013C286.136 52.2013 287.825 52.9964 289.016 54.5867C290.226 56.1574 290.832 58.0521 290.832 60.2706C290.832 62.5089 290.217 64.4231 288.987 66.0134C287.776 67.5841 286.097 68.3694 283.95 68.3694C282.974 68.3694 282.046 68.1731 281.168 67.7804C280.289 67.3681 279.596 66.7693 279.089 65.984ZM279.909 57.9441C279.382 58.5331 279.118 59.3086 279.118 60.2706C279.118 61.2327 279.382 62.018 279.909 62.6267C280.436 63.2157 281.168 63.5102 282.105 63.5102C283.023 63.5102 283.735 63.2058 284.243 62.5972C284.77 61.9886 285.033 61.213 285.033 60.2706C285.033 59.3086 284.78 58.5331 284.272 57.9441C283.764 57.3551 283.042 57.0606 282.105 57.0606C281.168 57.0606 280.436 57.3551 279.909 57.9441Z" fill="white"/>
<path d="M301.59 52.0835C304.089 52.0835 306.149 52.8394 307.769 54.3511C309.409 55.8433 310.229 57.8165 310.229 60.2706C310.229 62.7445 309.399 64.7372 307.74 66.249C306.1 67.7412 304.05 68.4872 301.59 68.4872C299.091 68.4872 297.012 67.7314 295.353 66.2196C293.713 64.6882 292.893 62.7052 292.893 60.2706C292.893 57.7772 293.722 55.7942 295.382 54.3217C297.061 52.8296 299.13 52.0835 301.59 52.0835ZM301.59 63.5102C302.488 63.5102 303.191 63.2058 303.698 62.5972C304.226 61.9689 304.489 61.1934 304.489 60.2706C304.489 59.3479 304.226 58.5822 303.698 57.9735C303.191 57.3649 302.488 57.0606 301.59 57.0606C300.692 57.0606 299.97 57.3649 299.423 57.9735C298.896 58.5822 298.632 59.3479 298.632 60.2706C298.632 61.1934 298.896 61.9689 299.423 62.5972C299.95 63.2058 300.672 63.5102 301.59 63.5102Z" fill="white"/>
<path d="M313.015 68.0749V52.4958H318.696V60.5062L324.319 52.4958H330V68.0749H324.319V60.0645L318.696 68.0749H313.015ZM321.537 47.1064C321.966 47.1064 322.269 46.9788 322.445 46.7235C322.62 46.4879 322.708 46.2033 322.708 45.8695V45.4277H327.072V45.9578C327.072 47.607 326.554 48.8734 325.52 49.7569C324.504 50.6208 323.177 51.0527 321.537 51.0527C319.878 51.0527 318.54 50.611 317.525 49.7275C316.51 48.8243 316.002 47.5678 316.002 45.9578V45.4277H320.366V45.8695C320.366 46.2033 320.453 46.4879 320.629 46.7235C320.766 46.9788 321.068 47.1064 321.537 47.1064Z" fill="white"/>
<g filter="url(#filter2_d_3947_25)">
<path d="M117.67 165.108C115.56 162.998 112.699 161.812 109.715 161.812H37.5C33.3579 161.812 30 165.17 30 169.313V308.062C30 312.205 33.3579 315.562 37.5 315.562H266.25C270.392 315.562 273.75 312.205 273.75 308.062V199.312C273.75 195.17 270.392 191.812 266.25 191.812H155.248C148.286 191.812 141.609 189.047 136.687 184.124L117.67 165.108Z" fill="#FFD600"/>
</g>
<rect x="68" y="176" width="14" height="4" rx="2" fill="#BB8315"/>
<path d="M40 173C40.6667 172.667 41.4833 172.417 42.45 172.25C43.4167 172.083 44.4 172 45.4 172C47.05 172 48.4127 172.183 49.488 172.55C50.5633 172.917 51.4007 173.4 52 174L57 174L62 177L62 177.5L56.85 177.5C56.7667 177.333 56.65 177.208 56.5 177.125C56.35 177.042 56.1833 177 56 177C55.7167 177 55.479 177.096 55.287 177.288C55.095 177.48 54.9993 177.717 55 178C55 178.283 55.096 178.521 55.288 178.713C55.48 178.905 55.7173 179.001 56 179C56.1833 179 56.35 178.958 56.5 178.875C56.65 178.792 56.7667 178.667 56.85 178.5L62 178.5L62 179L57 182L52 182C51.4 182.617 50.5623 183.104 49.487 183.463C48.4117 183.822 47.0493 184.001 45.4 184C44.4 184 43.4167 183.917 42.45 183.75C41.4833 183.583 40.6667 183.333 40 183C40.2167 182.3 40.6123 181.742 41.187 181.325C41.7617 180.908 42.416 180.708 43.15 180.725C43.5667 180.725 44.0167 180.771 44.5 180.863C44.9833 180.955 45.4667 181.001 45.95 181C46.9167 181 47.9333 180.737 49 180.212C50.0667 179.687 51.0667 178.949 52 178C51.0667 177.067 50.0667 176.333 49 175.8C47.9333 175.267 46.9167 175 45.95 175C45.4667 175 44.9833 175.05 44.5 175.15C44.0167 175.25 43.5667 175.308 43.15 175.325C42.4167 175.325 41.7583 175.113 41.175 174.688C40.5917 174.263 40.2 173.701 40 173Z" fill="#BB8315"/>
<rect x="40" y="209" width="218" height="18" rx="4" fill="#FFE45A"/>
<rect x="40" y="209" width="218" height="15" rx="4" fill="#FEF0A3"/>
<rect opacity="0.4" x="47" y="215" width="91" height="4" rx="2" fill="#BA8215"/>
<rect opacity="0.4" x="246" y="214" width="6" height="6" rx="3" fill="#D8C51C"/>
<rect x="40" y="233" width="50" height="71" rx="4" fill="#FFE869"/>
<rect opacity="0.4" x="46" y="279" width="36" height="4" rx="2" fill="#BA8215"/>
<rect opacity="0.4" x="46" y="287" width="29" height="2" rx="1" fill="#BA8215"/>
<rect opacity="0.4" x="46" y="291" width="24" height="2" rx="1" fill="#BA8215"/>
<rect opacity="0.4" x="46" y="295" width="32" height="2" rx="1" fill="#BA8215"/>
<circle opacity="0.4" cx="61" cy="254" r="15" fill="white"/>
<g filter="url(#filter3_d_3947_25)">
<path d="M173.67 179.295C171.56 177.185 168.699 176 165.715 176H93.5C89.3579 176 86 179.358 86 183.5V322.25C86 326.392 89.3579 329.75 93.5 329.75H322.25C326.392 329.75 329.75 326.392 329.75 322.25V213.5C329.75 209.358 326.392 206 322.25 206H211.248C204.286 206 197.609 203.234 192.687 198.312L173.67 179.295Z" fill="#FF8A00"/>
</g>
<path d="M103.75 196.125H108.25C108.45 196.125 108.625 196.05 108.775 195.9C108.925 195.75 109 195.575 109 195.375C109 195.175 108.925 195 108.775 194.85C108.625 194.7 108.45 194.625 108.25 194.625H103.75C103.55 194.625 103.375 194.7 103.225 194.85C103.075 195 103 195.175 103 195.375C103 195.575 103.075 195.75 103.225 195.9C103.375 196.05 103.55 196.125 103.75 196.125ZM103.75 193.625H108.25C108.45 193.625 108.625 193.55 108.775 193.4C108.925 193.25 109 193.075 109 192.875C109 192.675 108.925 192.5 108.775 192.35C108.625 192.2 108.45 192.125 108.25 192.125H103.75C103.55 192.125 103.375 192.2 103.225 192.35C103.075 192.5 103 192.675 103 192.875C103 193.075 103.075 193.25 103.225 193.4C103.375 193.55 103.55 193.625 103.75 193.625ZM114 197.125V191.125H115C115.55 191.125 116.021 191.321 116.413 191.713C116.805 192.105 117.001 192.576 117 193.125H119C119.283 193.125 119.521 193.221 119.713 193.413C119.905 193.605 120.001 193.842 120 194.125C120 194.408 119.904 194.646 119.712 194.838C119.52 195.03 119.283 195.126 119 195.125H117C117 195.675 116.804 196.146 116.413 196.538C116.022 196.93 115.551 197.126 115 197.125H114ZM109 201.625H103V199.125C101.9 199.125 100.958 198.733 100.175 197.95C99.3917 197.167 99 196.225 99 195.125V193.125C99 192.025 99.3917 191.083 100.175 190.3C100.958 189.517 101.9 189.125 103 189.125H111C111.55 189.125 112.021 189.321 112.413 189.713C112.805 190.105 113.001 190.576 113 191.125V197.125C113 197.675 112.804 198.146 112.413 198.538C112.022 198.93 111.551 199.126 111 199.125H109V201.625ZM102.5 207.125C102.083 207.125 101.729 206.979 101.438 206.688C101.147 206.397 101.001 206.042 101 205.625V204.125C101 203.708 101.146 203.354 101.438 203.063C101.73 202.772 102.084 202.626 102.5 202.625H109.5C109.917 202.625 110.271 202.771 110.563 203.063C110.855 203.355 111.001 203.709 111 204.125V205.625C111 206.042 110.854 206.396 110.563 206.688C110.272 206.98 109.917 207.126 109.5 207.125H102.5Z" fill="#BB6500"/>
<rect x="127" y="195.125" width="35" height="4" rx="2" fill="#BB6500"/>
<rect x="99" y="221.125" width="218" height="18" rx="4" fill="#FFAF52"/>
<rect x="99" y="221.125" width="218" height="15" rx="4" fill="white"/>
<rect opacity="0.4" x="106" y="227.125" width="91" height="4" rx="2" fill="#BB6500"/>
<rect opacity="0.4" x="305" y="226.125" width="6" height="6" rx="3" fill="#BB6500"/>
<rect x="99" y="245.125" width="50" height="71" rx="4" fill="#FFAB49"/>
<rect opacity="0.4" x="105" y="291.125" width="36" height="4" rx="2" fill="#BB6500"/>
<rect opacity="0.4" x="105" y="299.125" width="29" height="2" rx="1" fill="#BB6500"/>
<rect opacity="0.4" x="105" y="303.125" width="24" height="2" rx="1" fill="#BB6500"/>
<rect opacity="0.4" x="105" y="307.125" width="32" height="2" rx="1" fill="#BB6500"/>
<circle opacity="0.2" cx="120" cy="266.125" r="15" fill="white"/>
<rect x="155" y="245.125" width="50" height="71" rx="4" fill="#FFAB49"/>
<rect opacity="0.4" x="161" y="291.125" width="24" height="4" rx="2" fill="#BB6500"/>
<rect opacity="0.4" x="161" y="299.125" width="38" height="2" rx="1" fill="#BB6500"/>
<rect opacity="0.4" x="161" y="303.125" width="38" height="2" rx="1" fill="#BB6500"/>
<rect opacity="0.4" x="161" y="307.125" width="18" height="2" rx="1" fill="#BB6500"/>
<circle opacity="0.2" cx="176" cy="266.125" r="15" fill="white"/>
<rect x="211" y="245.125" width="50" height="71" rx="4" fill="#FFAB49"/>
<rect opacity="0.4" x="217" y="291.125" width="38" height="4" rx="2" fill="#BB6500"/>
<rect opacity="0.4" x="217" y="299.125" width="13" height="2" rx="1" fill="#BB6500"/>
<rect opacity="0.4" x="217" y="303.125" width="24" height="2" rx="1" fill="#BB6500"/>
<rect opacity="0.4" x="217" y="307.125" width="18" height="2" rx="1" fill="#BB6500"/>
<circle opacity="0.2" cx="232" cy="266.125" r="15" fill="white"/>
<rect x="267" y="245.125" width="50" height="71" rx="4" fill="#FFAB49"/>
<rect opacity="0.4" x="273" y="291.125" width="30" height="4" rx="2" fill="#BB6500"/>
<rect opacity="0.4" x="273" y="299.125" width="30" height="2" rx="1" fill="#BB6500"/>
<rect opacity="0.4" x="273" y="303.125" width="24" height="2" rx="1" fill="#BB6500"/>
<rect opacity="0.4" x="273" y="307.125" width="37" height="2" rx="1" fill="#BB6500"/>
<circle opacity="0.2" cx="288" cy="266.125" r="15" fill="white"/>
</g>
<defs>
<filter id="filter0_d_3947_25" x="11.25" y="81.25" width="337.5" height="240" filterUnits="userSpaceOnUse" color-interpolation-filters="sRGB">
<feFlood flood-opacity="0" result="BackgroundImageFix"/>
<feColorMatrix in="SourceAlpha" type="matrix" values="0 0 0 0 0 0 0 0 0 0 0 0 0 0 0 0 0 0 127 0" result="hardAlpha"/>
<feOffset dy="9.375"/>
<feGaussianBlur stdDeviation="14.0625"/>
<feComposite in2="hardAlpha" operator="out"/>
<feColorMatrix type="matrix" values="0 0 0 0 0.777441 0 0 0 0 0 0 0 0 0 0.238688 0 0 0 1 0"/>
<feBlend mode="normal" in2="BackgroundImageFix" result="effect1_dropShadow_3947_25"/>
<feBlend mode="normal" in="SourceGraphic" in2="effect1_dropShadow_3947_25" result="shape"/>
</filter>
<filter id="filter1_d_3947_25" x="30" y="116.812" width="300" height="210" filterUnits="userSpaceOnUse" color-interpolation-filters="sRGB">
<feFlood flood-opacity="0" result="BackgroundImageFix"/>
<feColorMatrix in="SourceAlpha" type="matrix" values="0 0 0 0 0 0 0 0 0 0 0 0 0 0 0 0 0 0 127 0" result="hardAlpha"/>
<feOffset dy="9.375"/>
<feGaussianBlur stdDeviation="14.0625"/>
<feComposite in2="hardAlpha" operator="out"/>
<feColorMatrix type="matrix" values="0 0 0 0 0.674149 0 0 0 0 0.721647 0 0 0 0 0.116046 0 0 0 0.4 0"/>
<feBlend mode="multiply" in2="BackgroundImageFix" result="effect1_dropShadow_3947_25"/>
<feBlend mode="normal" in="SourceGraphic" in2="effect1_dropShadow_3947_25" result="shape"/>
</filter>
<filter id="filter2_d_3947_25" x="1.875" y="143.062" width="300" height="210" filterUnits="userSpaceOnUse" color-interpolation-filters="sRGB">
<feFlood flood-opacity="0" result="BackgroundImageFix"/>
<feColorMatrix in="SourceAlpha" type="matrix" values="0 0 0 0 0 0 0 0 0 0 0 0 0 0 0 0 0 0 127 0" result="hardAlpha"/>
<feOffset dy="9.375"/>
<feGaussianBlur stdDeviation="14.0625"/>
<feComposite in2="hardAlpha" operator="out"/>
<feColorMatrix type="matrix" values="0 0 0 0 0.674149 0 0 0 0 0.721647 0 0 0 0 0.116046 0 0 0 0.4 0"/>
<feBlend mode="multiply" in2="BackgroundImageFix" result="effect1_dropShadow_3947_25"/>
<feBlend mode="normal" in="SourceGraphic" in2="effect1_dropShadow_3947_25" result="shape"/>
</filter>
<filter id="filter3_d_3947_25" x="57.875" y="157.25" width="300" height="210" filterUnits="userSpaceOnUse" color-interpolation-filters="sRGB">
<feFlood flood-opacity="0" result="BackgroundImageFix"/>
<feColorMatrix in="SourceAlpha" type="matrix" values="0 0 0 0 0 0 0 0 0 0 0 0 0 0 0 0 0 0 127 0" result="hardAlpha"/>
<feOffset dy="9.375"/>
<feGaussianBlur stdDeviation="14.0625"/>
<feComposite in2="hardAlpha" operator="out"/>
<feColorMatrix type="matrix" values="0 0 0 0 0.674149 0 0 0 0 0.721647 0 0 0 0 0.116046 0 0 0 0.4 0"/>
<feBlend mode="multiply" in2="BackgroundImageFix" result="effect1_dropShadow_3947_25"/>
<feBlend mode="normal" in="SourceGraphic" in2="effect1_dropShadow_3947_25" result="shape"/>
</filter>
<clipPath id="clip0_3947_25">
<rect width="360" height="360" rx="8" fill="white"/>
</clipPath>
</defs>
</svg>
