<svg width="360" height="360" viewBox="0 0 360 360" fill="none" xmlns="http://www.w3.org/2000/svg">
<rect width="360" height="360" rx="8" fill="#002239"/>
<path d="M44.8101 56.8331L51.7506 31.4209H59.6749L48.2531 69.0746H41.4218L30 31.4209H37.8696L44.8101 56.8331Z" fill="white"/>
<path d="M68.0145 69.0746H60.8554V43.6078H68.0145V69.0746ZM64.4076 39.0719C61.9484 39.0719 59.8717 37.1591 59.8717 34.7545C59.8717 32.3499 61.9484 30.4918 64.4076 30.4918C66.9215 30.4918 68.9436 32.3499 68.9436 34.7545C68.9436 37.1591 66.9215 39.0719 64.4076 39.0719Z" fill="white"/>
<path d="M90.9781 46.6682V30H98.1373V69.0746H90.9781V65.905C89.1747 68.4189 85.6225 69.5665 82.7807 69.5665C76.2227 69.5665 70.2658 64.4841 70.2658 56.2866C70.2658 48.0891 76.2227 43.0067 82.7807 43.0067C85.7318 43.0067 89.1747 44.0997 90.9781 46.6682ZM84.1469 62.8992C87.6445 62.8992 90.7595 60.1667 90.7595 56.2866C90.7595 52.3518 87.4806 49.7286 84.1469 49.7286C80.54 49.7286 77.5343 52.5157 77.5343 56.2866C77.5343 60.0028 80.54 62.8992 84.1469 62.8992Z" fill="white"/>
<path d="M127.198 55.904C127.198 56.6145 127.143 57.4889 127.088 58.6365H107.852C108.617 61.5876 111.021 63.2271 114.464 63.2271C117.033 63.2271 119.601 62.1888 121.132 60.3853L125.34 64.5934C122.935 67.8177 118.454 69.5665 113.973 69.5665C106.158 69.5665 100.419 64.2108 100.419 56.3412C100.419 48.0891 106.649 42.952 113.973 42.952C121.241 42.952 127.198 48.0891 127.198 55.904ZM107.852 53.9913H120.039C119.82 50.9855 117.306 49.1821 114.082 49.1821C111.185 49.1821 108.617 50.5483 107.852 53.9913Z" fill="white"/>
<path d="M141.46 69.5665C134.192 69.5665 127.743 64.3201 127.743 56.2866C127.743 48.1984 134.192 42.952 141.46 42.952C148.729 42.952 155.177 48.1984 155.177 56.2866C155.177 64.3201 148.729 69.5665 141.46 69.5665ZM141.46 62.8992C145.012 62.8992 147.909 60.2214 147.909 56.2866C147.909 52.2971 145.012 49.6193 141.46 49.6193C137.908 49.6193 135.011 52.2971 135.011 56.2866C135.011 60.2214 137.908 62.8992 141.46 62.8992Z" fill="white"/>
<path d="M169.805 69.5665C162.373 69.5665 155.815 64.3201 155.815 56.2319C155.815 48.1438 162.373 42.952 169.805 42.952C174.451 42.952 178.167 45.138 180.571 48.417L175.216 52.1878C174.068 50.603 171.937 49.6193 169.86 49.6193C165.816 49.6193 163.084 52.5157 163.084 56.2319C163.084 60.0028 165.816 62.8992 169.86 62.8992C171.937 62.8992 174.068 61.9155 175.216 60.3307L180.571 64.1015C178.167 67.4352 174.451 69.5665 169.805 69.5665Z" fill="white"/>
<path d="M200.972 46.6682V43.6078H208.131V69.0746H200.972V65.905C199.168 68.4189 195.616 69.5665 192.774 69.5665C186.216 69.5665 180.259 64.4841 180.259 56.2866C180.259 48.0891 186.216 43.0067 192.774 43.0067C195.725 43.0067 199.168 44.0997 200.972 46.6682ZM194.14 62.8992C197.638 62.8992 200.753 60.1667 200.753 56.2866C200.753 52.3518 197.474 49.7286 194.14 49.7286C190.534 49.7286 187.528 52.5157 187.528 56.2866C187.528 60.0028 190.534 62.8992 194.14 62.8992Z" fill="white"/>
<path d="M227.3 42.952C233.858 42.952 239.814 48.0891 239.814 56.2866C239.814 64.4841 233.858 69.5665 227.3 69.5665C224.403 69.5665 220.906 68.4735 219.102 65.905V81.5895H211.943V43.6078H219.102V46.6682C220.906 44.0997 224.403 42.952 227.3 42.952ZM225.933 62.8446C229.54 62.8446 232.491 60.0574 232.491 56.2866C232.491 52.5704 229.54 49.674 225.933 49.674C222.436 49.674 219.321 52.4064 219.321 56.2866C219.321 60.2214 222.6 62.8446 225.933 62.8446Z" fill="white"/>
<path d="M251.235 43.6078H256.645V49.1275H251.235V69.0746H244.075V49.1275H239.43V43.6078H244.075V34.2627H251.235V43.6078Z" fill="white"/>
<path d="M275.327 56.6691V43.6078H282.486V69.0746H275.327V64.9213C274.234 68.2549 270.19 69.6758 267.676 69.6758C261.009 69.6758 257.511 65.2492 257.566 57.5982V43.6078H264.725V56.8331C264.725 60.8225 267.13 62.626 269.589 62.626C272.157 62.626 275.327 61.2597 275.327 56.6691Z" fill="white"/>
<path d="M300.878 42.952C302.244 42.952 303.774 43.1706 304.922 43.7718L303.282 50.603C301.752 49.7833 300.495 49.674 299.621 49.674C295.959 49.674 293.445 53.0622 293.445 60.3307V69.0746H286.286V43.6078H293.391V49.0182C294.811 44.7555 297.708 42.952 300.878 42.952Z" fill="white"/>
<path d="M330 55.904C330 56.6145 329.945 57.4889 329.891 58.6365H310.654C311.419 61.5876 313.824 63.2271 317.267 63.2271C319.835 63.2271 322.404 62.1888 323.934 60.3853L328.142 64.5934C325.737 67.8177 321.256 69.5665 316.775 69.5665C308.96 69.5665 303.222 64.2108 303.222 56.3412C303.222 48.0891 309.452 42.952 316.775 42.952C324.043 42.952 330 48.0891 330 55.904ZM310.654 53.9913H322.841C322.622 50.9855 320.108 49.1821 316.884 49.1821C313.988 49.1821 311.419 50.5483 310.654 53.9913Z" fill="white"/>
<path d="M71 114H40C34.4772 114 30 118.477 30 124V155" stroke="#FFF9F2" stroke-opacity="0.4" stroke-width="4"/>
<path d="M289 312H320C325.523 312 330 307.523 330 302V271" stroke="#FFF9F2" stroke-opacity="0.4" stroke-width="4"/>
<path d="M289 114H320C325.523 114 330 118.477 330 124V155" stroke="#FFF9F2" stroke-opacity="0.4" stroke-width="4"/>
<path d="M71 312H40C34.4772 312 30 307.523 30 302V271" stroke="#FFF9F2" stroke-opacity="0.4" stroke-width="4"/>
<circle cx="48" cy="132" r="8" fill="#F00521"/>
<path d="M62.7441 136V127.545H66.1191C67.9238 127.545 69.0254 128.547 69.0254 130.182V130.193C69.0254 131.33 68.416 132.25 67.4316 132.607L69.2773 136H67.5547L65.8906 132.836H64.2559V136H62.7441ZM64.2559 131.641H65.9609C66.916 131.641 67.4785 131.113 67.4785 130.205V130.193C67.4785 129.309 66.8809 128.77 65.9316 128.77H64.2559V131.641ZM71.2441 136V127.545H76.7168V128.816H72.7559V131.096H76.5V132.32H72.7559V134.729H76.7168V136H71.2441ZM82.709 136.146C80.2773 136.146 78.7422 134.471 78.7422 131.77V131.764C78.7422 129.062 80.2832 127.398 82.709 127.398C84.6543 127.398 86.084 128.611 86.3066 130.334L86.3125 130.393H84.8301L84.8008 130.281C84.5547 129.314 83.8105 128.711 82.709 128.711C81.2324 128.711 80.2891 129.889 80.2891 131.764V131.77C80.2891 133.65 81.2383 134.834 82.709 134.834C83.7871 134.834 84.543 134.254 84.8184 133.211L84.8359 133.152H86.3184L86.3066 133.211C86.0898 134.945 84.6543 136.146 82.709 136.146Z" fill="#FFF9F2"/>
<path d="M68.0002 243L57.5391 246.348C56.237 246.764 54.8077 246.651 53.6844 245.872C48.6432 242.374 43.1982 235.687 40 229C34.5 217.5 34.0002 203 36.5002 197C39.0002 191 45.0002 190 50.0002 189C55.0002 188 66.5002 185 72.0002 183C77.5002 181 108 166.5 129 164C150 161.5 167 163 184 166.5C197.6 169.3 224 181 235.5 186.5C257.667 192.167 304.4 204.3 314 207.5C326 211.5 326.5 215 327.5 220C328.3 224 327.167 229 326.5 231C328.5 234 328 238.5 324.5 240.5C322.033 241.91 316.796 244.718 313.648 246.391C312.901 246.788 312.049 246.936 311.212 246.816L295 244.5L270.5 243L255.492 246.873C255.165 246.958 254.83 247 254.492 247H109.524C109.176 247 108.83 246.955 108.494 246.865L94.0002 243H68.0002Z" fill="#00A2FF"/>
<mask id="mask0_4348_22868" style="mask-type:alpha" maskUnits="userSpaceOnUse" x="35" y="162" width="293" height="85">
<path d="M68.0002 243L57.5391 246.348C56.237 246.764 54.8077 246.651 53.6844 245.872C48.6432 242.374 43.1982 235.687 40 229C34.5 217.5 34.0002 203 36.5002 197C39.0002 191 45.0002 190 50.0002 189C55.0002 188 66.5002 185 72.0002 183C77.5002 181 108 166.5 129 164C150 161.5 167 163 184 166.5C197.6 169.3 224 181 235.5 186.5C257.667 192.167 304.4 204.3 314 207.5C326 211.5 326.5 215 327.5 220C328.3 224 327.167 229 326.5 231C328.5 234 328 238.5 324.5 240.5C322.033 241.91 316.796 244.718 313.648 246.391C312.901 246.788 312.049 246.936 311.212 246.816L295 244.5L270.5 243L255.492 246.873C255.165 246.958 254.83 247 254.492 247H109.524C109.176 247 108.83 246.955 108.494 246.865L94.0002 243H68.0002Z" fill="#00A2FF"/>
</mask>
<g mask="url(#mask0_4348_22868)">
<path d="M145 166C131 166 111.167 172.667 103 176C112.5 184 120.5 184 130 184.5C137.6 184.9 198.5 189 228 191C217.167 185.5 198.1 176.2 188.5 173C176.5 169 162.5 166 145 166Z" fill="#003758"/>
<g opacity="0.2">
<path d="M125.5 170.5C132.833 189.5 147.7 221.7 150.5 226.5C154 232.5 157 234 162.5 234.5C168 235 212 234.5 217.5 234.5C223 234.5 225.5 233.5 227 226.5C228.5 219.5 229.625 212 231.5 202C232.514 196.594 233 194 228 191.5" stroke="#002841" stroke-width="2"/>
<path d="M125.5 170.5C132.833 189.5 147.7 221.7 150.5 226.5C154 232.5 157 234 162.5 234.5C168 235 212 234.5 217.5 234.5C223 234.5 225.5 233.5 227 226.5C228.5 219.5 229.625 212 231.5 202C232.514 196.594 233 194 228 191.5" stroke="url(#paint0_linear_4348_22868)" stroke-width="2"/>
</g>
<mask id="mask1_4348_22868" style="mask-type:alpha" maskUnits="userSpaceOnUse" x="103" y="166" width="125" height="25">
<path d="M145 166C131 166 111.167 172.667 103 176C112.5 184 120.5 184 130 184.5C137.6 184.9 198.5 189 228 191C217.167 185.5 198.1 176.2 188.5 173C176.5 169 162.5 166 145 166Z" fill="#003758"/>
</mask>
<g mask="url(#mask1_4348_22868)">
<path d="M104.5 179.5L97 176C98.6667 172.167 131.5 164 147.5 164C183.902 163.999 201 173.167 205 178L104.5 179.5Z" fill="#00A1FF" fill-opacity="0.2"/>
</g>
<path d="M313.5 209C310.5 208 306.5 209 303.5 209.5C301.5 209.857 302.5 212 306 213C309.5 214 316.5 215.5 319.5 215.5C322.5 215.5 325 215 322 213C319 211 316.5 210 313.5 209Z" fill="white"/>
<path d="M78 184.5C75.2 186.1 69.1667 187.5 66.5 188L268 201.5C260 198 248 196.5 237 195.5C228.2 194.7 127.333 187.833 78 184.5Z" fill="white" fill-opacity="0.4"/>
<path d="M48.5 199.5H33.5V210C43.9 208.8 47.8333 202.5 48.5 199.5Z" fill="#042132" fill-opacity="0.4"/>
<rect x="310" y="231" width="21" height="8" rx="4" fill="#003758"/>
<path d="M230 188.5L188.5 166C202.9 166 229.5 178 241 184L230 188.5Z" fill="white" fill-opacity="0.4"/>
<path d="M234 189.5L244.5 185.5L320.5 207L309.5 209.5L234 189.5Z" fill="white" fill-opacity="0.4"/>
<rect x="46" y="239" width="285" height="16" fill="#042132" fill-opacity="0.4"/>
<path d="M57 241.5C56.6 246.3 54.5 247.833 53.5 248H111.5C107.5 246 107 243 107 241.5V229C107 221.5 102 205 82 205C62 205 57 221.5 57 229C57 236.5 57.5 235.5 57 241.5Z" fill="#042132" fill-opacity="0.4"/>
<path d="M257.5 241.5C257.1 246.3 255 247.833 254 248H312C308 246 307.5 243 307.5 241.5V229C307.5 221.5 302.5 205 282.5 205C262.5 205 257.5 221.5 257.5 229C257.5 236.5 258 235.5 257.5 241.5Z" fill="#042132" fill-opacity="0.4"/>
<rect x="145" y="196" width="15" height="4" rx="2" stroke="#026EAD"/>
<path d="M213 185.5C217.4 185.5 221 187 223 188C225 189 226.5 190 229 191.5V193C227.833 192.833 225.1 193.2 223.5 194C221.5 195 216.5 196 213 196C209.5 196 208 193.5 208 191C208 188.5 207.5 185.5 213 185.5Z" fill="#4DBDFF"/>
</g>
<circle cx="82" cy="231" r="23" fill="#000E17"/>
<circle cx="82" cy="231" r="17" fill="white"/>
<circle cx="82" cy="231" r="5" fill="#708896"/>
<path d="M82 236L79 216L85 216L82 236Z" fill="#708896"/>
<path d="M82 226L79 246L85 246L82 226Z" fill="#708896"/>
<path d="M87 231L67 234L67 228L87 231Z" fill="#708896"/>
<path d="M77 231L97 234L97 228L77 231Z" fill="#708896"/>
<path d="M85.5354 234.535L69.272 222.515L73.5146 218.272L85.5354 234.535Z" fill="#708896"/>
<path d="M78.4641 227.464L90.4849 243.728L94.7276 239.485L78.4641 227.464Z" fill="#708896"/>
<path d="M85.5354 227.464L73.5146 243.728L69.2719 239.485L85.5354 227.464Z" fill="#708896"/>
<path d="M78.4646 234.535L94.728 222.515L90.4854 218.272L78.4646 234.535Z" fill="#708896"/>
<circle cx="82" cy="231" r="15.75" stroke="white" stroke-width="2.5"/>
<circle cx="283" cy="231" r="23" fill="#000E17"/>
<circle cx="283" cy="231" r="17" fill="white"/>
<circle cx="283" cy="231" r="5" fill="#708896"/>
<path d="M283 236L280 216L286 216L283 236Z" fill="#708896"/>
<path d="M283 226L280 246L286 246L283 226Z" fill="#708896"/>
<path d="M288 231L268 234L268 228L288 231Z" fill="#708896"/>
<path d="M278 231L298 234L298 228L278 231Z" fill="#708896"/>
<path d="M286.535 234.535L270.272 222.515L274.515 218.272L286.535 234.535Z" fill="#708896"/>
<path d="M279.464 227.464L291.485 243.728L295.728 239.485L279.464 227.464Z" fill="#708896"/>
<path d="M286.535 227.464L274.515 243.728L270.272 239.485L286.535 227.464Z" fill="#708896"/>
<path d="M279.465 234.535L295.728 222.515L291.485 218.272L279.465 234.535Z" fill="#708896"/>
<circle cx="283" cy="231" r="15.75" stroke="white" stroke-width="2.5"/>
<rect x="114" y="251" width="135" height="4" fill="#2485B7"/>
<rect x="109" y="247" width="12" height="4" fill="#0B405F"/>
<rect x="242" y="247" width="12" height="4" fill="#0B405F"/>
<rect x="167" y="151" width="24" height="207" fill="#268EC2"/>
<rect x="167" y="151" width="24" height="207" fill="url(#paint1_linear_4348_22868)"/>
<path d="M165 146H193L191 151H167L165 146Z" fill="#0B405F"/>
<path d="M88.0588 201.23C87.5339 200.874 86.834 200.94 86.3856 201.383C85.9372 201.826 85.8716 202.531 86.2325 203.051L92.3568 211.981L86.9105 213.753C86.3692 213.928 86.0028 214.431 86.0028 215C86.0028 215.569 86.3692 216.072 86.9105 216.247L92.5482 218.073L89.6556 223.575C89.3876 224.084 89.4806 224.707 89.8907 225.112C90.3008 225.516 90.9187 225.615 91.4273 225.347L96.9283 222.454L98.7546 228.092C98.9296 228.634 99.4327 229 100.001 229C100.57 229 101.073 228.634 101.248 228.092L103.075 222.454L108.576 225.347C109.084 225.615 109.707 225.522 110.112 225.112C110.517 224.702 110.615 224.084 110.347 223.575L107.455 218.073L113.092 216.247C113.634 216.072 114 215.569 114 215C114 214.431 113.634 213.928 113.092 213.753L107.269 211.866L108.674 208.016C108.849 207.535 108.729 206.999 108.368 206.638C108.007 206.277 107.471 206.157 106.99 206.332L103.14 207.737L101.248 201.908C101.073 201.366 100.57 201 100.001 201C99.4327 201 98.9296 201.366 98.7546 201.908L96.9884 207.355L88.0588 201.23Z" fill="#FFD725"/>
<path d="M244.544 180.172C244.15 179.906 243.625 179.955 243.289 180.287C242.953 180.619 242.904 181.148 243.174 181.538L247.768 188.236L243.683 189.565C243.277 189.696 243.002 190.073 243.002 190.5C243.002 190.927 243.277 191.304 243.683 191.435L247.911 192.805L245.742 196.931C245.541 197.313 245.61 197.78 245.918 198.084C246.226 198.387 246.689 198.461 247.07 198.26L251.196 196.09L252.566 200.319C252.697 200.725 253.075 201 253.501 201C253.928 201 254.305 200.725 254.436 200.319L255.806 196.09L259.932 198.26C260.313 198.461 260.781 198.391 261.084 198.084C261.388 197.776 261.461 197.313 261.26 196.931L259.091 192.805L263.319 191.435C263.725 191.304 264 190.927 264 190.5C264 190.073 263.725 189.696 263.319 189.565L258.951 188.15L260.005 185.262C260.137 184.901 260.046 184.499 259.776 184.229C259.505 183.958 259.103 183.868 258.742 183.999L255.855 185.053L254.436 180.681C254.305 180.275 253.928 180 253.501 180C253.075 180 252.697 180.275 252.566 180.681L251.241 184.766L244.544 180.172Z" fill="#FFD000"/>
<path d="M36.5966 194.013C36.2035 194.281 36.0555 194.787 36.2402 195.222C36.4249 195.657 36.8986 195.898 37.3606 195.79L45.2806 193.992L45.0086 198.279C44.9808 198.705 45.2301 199.1 45.6266 199.257C46.023 199.414 46.4751 199.298 46.7469 198.969L49.5803 195.545L52.6149 199.084C52.8953 199.411 53.3556 199.519 53.7512 199.345C54.1467 199.171 54.3864 198.768 54.3403 198.339L53.846 193.704L58.2817 193.991C58.7075 194.019 59.1022 193.77 59.2596 193.373C59.4169 192.977 59.3007 192.525 58.9717 192.253L55.5468 189.419L59.0858 186.385C59.4133 186.105 59.521 185.645 59.3471 185.249C59.1731 184.854 58.7696 184.614 58.3409 184.66L53.7054 185.154L53.9923 180.719C54.0201 180.293 53.7708 179.898 53.3743 179.741C52.9778 179.583 52.5257 179.7 52.2539 180.028L49.3272 183.566L47.0323 181.521C46.7453 181.266 46.3384 181.201 45.9869 181.353C45.6354 181.505 45.4033 181.845 45.3921 182.229L45.3065 185.301L40.7192 185.007C40.2933 184.979 39.8987 185.228 39.7413 185.625C39.584 186.021 39.7002 186.473 40.0291 186.745L43.3373 189.484L36.5966 194.013Z" fill="#FFB700"/>
<rect x="101" y="288" width="48" height="48" rx="24" fill="#8FA8B6"/>
<g clip-path="url(#clip0_4348_22868)">
<path d="M123.784 314.908C124.28 315.404 124.28 316.209 123.784 316.706L119.194 321.296C118.204 322.286 116.579 322.254 115.629 321.2C114.739 320.212 114.878 318.664 115.818 317.724L120.309 313.232C120.805 312.737 121.61 312.736 122.106 313.232L123.783 314.909L123.784 314.908ZM128.294 311.169C129.346 311.171 130.414 311.587 131.199 312.373C131.667 312.833 132.294 312.745 132.5 312.602C134.016 311.553 135.015 309.817 135.015 307.833C135.015 307.489 134.984 307.152 134.927 306.825C134.814 306.185 134.004 305.957 133.544 306.417L132.172 307.789C131.217 308.744 129.961 308.891 129.118 308.201C128.148 307.407 128.094 305.974 128.959 305.11L130.596 303.472C131.055 303.012 130.83 302.201 130.19 302.087C129.863 302.029 129.526 301.999 129.182 301.999C126.729 301.999 124.636 303.514 123.774 305.658C123.602 306.087 123.703 306.579 124.029 306.905L128.294 311.168V311.169ZM130.021 313.552C129.387 312.917 128.495 312.712 127.684 312.917L121.666 306.9V305.332C121.666 304.706 121.331 304.126 120.788 303.812L117.949 302.176C117.434 301.878 116.784 301.964 116.363 302.385L115.386 303.362C114.964 303.782 114.879 304.434 115.176 304.949L116.814 307.788C117.127 308.332 117.706 308.666 118.333 308.666H119.898L125.918 314.685C125.714 315.495 125.918 316.387 126.552 317.021L130.766 321.19C131.722 322.146 133.373 322.237 134.328 321.28C135.284 320.322 135.164 318.891 134.327 317.812L130.021 313.552Z" fill="white"/>
</g>
<rect x="156" y="288" width="48" height="48" rx="24" fill="#8FA8B6"/>
<path fill-rule="evenodd" clip-rule="evenodd" d="M180 324C186.628 324 192 318.628 192 312C192 305.372 186.628 300 180 300C173.372 300 168 305.372 168 312C168 318.628 173.372 324 180 324ZM187.145 312.9H183.486C183.322 313.533 182.989 314.11 182.522 314.568L184.351 317.736C185.115 317.157 185.756 316.43 186.236 315.6C186.716 314.769 187.025 313.852 187.145 312.9ZM182.794 318.638L180.964 315.47C180.333 315.646 179.667 315.646 179.036 315.47L177.206 318.638C178.091 319.01 179.041 319.201 180 319.2C180.99 319.2 181.934 319 182.794 318.638ZM175.649 317.737L177.478 314.569C177.01 314.111 176.677 313.534 176.513 312.9H172.855C172.975 313.852 173.284 314.769 173.764 315.6C174.244 316.43 174.885 317.158 175.649 317.737ZM187.145 311.099H183.486C183.322 310.466 182.989 309.889 182.522 309.431L184.351 306.263C185.115 306.842 185.756 307.568 186.236 308.399C186.716 309.229 187.025 310.147 187.145 311.099ZM182.794 305.36C181.909 304.989 180.959 304.799 180 304.8C179.01 304.8 178.066 305 177.206 305.362L179.036 308.53C179.667 308.354 180.333 308.354 180.964 308.53L182.794 305.36ZM177.478 309.432L175.649 306.264C174.885 306.843 174.244 307.57 173.764 308.4C173.284 309.231 172.975 310.148 172.855 311.1H176.514C176.68 310.458 177.018 309.884 177.478 309.432Z" fill="white"/>
<rect x="211" y="288" width="48" height="48" rx="24" fill="#8FA8B6"/>
<path d="M230.619 304.881H242.667C242.957 304.881 243.236 304.996 243.441 305.202C243.647 305.407 243.762 305.686 243.762 305.976V322.405C243.762 322.695 243.647 322.974 243.441 323.179C243.236 323.385 242.957 323.5 242.667 323.5H227.334C227.043 323.5 226.764 323.385 226.559 323.179C226.354 322.974 226.238 322.695 226.238 322.405V311.452L230.619 304.881ZM236.095 300.5H241.572C241.862 300.5 242.141 300.615 242.346 300.821C242.551 301.026 242.667 301.305 242.667 301.595V303.786H235V301.595C235 301.305 235.116 301.026 235.321 300.821C235.526 300.615 235.805 300.5 236.095 300.5ZM228.429 312.548V320.214H230.619V312.548H228.429Z" fill="white"/>
<defs>
<linearGradient id="paint0_linear_4348_22868" x1="132" y1="184.5" x2="127.5" y2="172" gradientUnits="userSpaceOnUse">
<stop stop-color="#003758" stop-opacity="0"/>
<stop offset="1" stop-color="#003758"/>
</linearGradient>
<linearGradient id="paint1_linear_4348_22868" x1="179" y1="151" x2="179" y2="311.352" gradientUnits="userSpaceOnUse">
<stop stop-color="#002239" stop-opacity="0"/>
<stop offset="1" stop-color="#002239"/>
</linearGradient>
<clipPath id="clip0_4348_22868">
<rect width="20" height="20" fill="white" transform="translate(115 302)"/>
</clipPath>
</defs>
</svg>
