<svg width="360" height="360" viewBox="0 0 360 360" fill="none" xmlns="http://www.w3.org/2000/svg">
<g clip-path="url(#clip0_4140_6993)">
<rect width="360" height="360" rx="8" fill="#F02823"/>
<g style="mix-blend-mode:overlay">
<path d="M-25.8633 360.225V325.646C-19.2317 325.646 -15.4422 326.593 -8.81065 332.278C-3.50539 336.825 3.50514 336.699 6.82093 336.541V360.225H-25.8633Z" fill="white"/>
<path d="M39.5054 360.225V325.646C32.8738 325.646 29.0843 326.593 22.4527 332.278C17.1475 336.825 10.137 336.699 6.82116 336.541V360.225H39.5054Z" fill="white"/>
<path d="M39.5054 360.225V325.646C46.1369 325.646 49.9264 326.593 56.558 332.278C61.8633 336.825 68.8738 336.699 72.1896 336.541V360.225H39.5054Z" fill="white"/>
<path d="M104.874 360.225V325.646C98.2421 325.646 94.4526 326.593 87.821 332.278C82.5158 336.825 75.5052 336.699 72.1894 336.541V360.225H104.874Z" fill="white"/>
<path d="M104.874 360.225V325.646C111.505 325.646 115.295 326.593 121.926 332.278C127.232 336.825 134.242 336.699 137.558 336.541V360.225H104.874Z" fill="white"/>
<path d="M170.242 360.225V325.646C163.61 325.646 159.821 326.593 153.189 332.278C147.884 336.825 140.874 336.699 137.558 336.541V360.225H170.242Z" fill="white"/>
<path d="M170.242 360.225V325.646C176.874 325.646 180.663 326.593 187.295 332.278C192.6 336.825 199.61 336.699 202.926 336.541V360.225H170.242Z" fill="white"/>
<path d="M235.61 360.225V325.646C228.979 325.646 225.189 326.593 218.558 332.278C213.253 336.825 206.242 336.699 202.926 336.541V360.225H235.61Z" fill="white"/>
<path d="M235.61 360.225V325.646C242.242 325.646 246.032 326.593 252.663 332.278C257.968 336.825 264.979 336.699 268.295 336.541V360.225H235.61Z" fill="white"/>
<path d="M300.979 360.225V325.646C294.347 325.646 290.558 326.593 283.926 332.278C278.621 336.825 271.611 336.699 268.295 336.541V360.225H300.979Z" fill="white"/>
<path d="M300.979 360.225V325.646C307.611 325.646 311.4 326.593 318.032 332.278C323.337 336.825 330.347 336.699 333.663 336.541V360.225H300.979Z" fill="white"/>
<path d="M366.347 360.225V325.646C359.716 325.646 355.926 326.593 349.295 332.278C343.99 336.825 336.979 336.699 333.663 336.541V360.225H366.347Z" fill="white"/>
</g>
<g style="mix-blend-mode:overlay">
<path d="M22.4526 360.225V325.646C15.8211 325.646 12.0316 326.593 5.40001 332.278C0.0947437 336.825 -6.91578 336.699 -10.2316 336.541V360.225H22.4526Z" fill="white"/>
<path d="M22.4526 360.225V325.646C29.0842 325.646 32.8737 326.593 39.5053 332.278C44.8105 336.825 51.8211 336.699 55.1368 336.541V360.225H22.4526Z" fill="white"/>
<path d="M87.821 360.225V325.646C81.1895 325.646 77.4 326.593 70.7684 332.278C65.4632 336.825 58.4526 336.699 55.1368 336.541V360.225H87.821Z" fill="white"/>
<path d="M87.821 360.225V325.646C94.4526 325.646 98.2421 326.593 104.874 332.278C110.179 336.825 117.189 336.699 120.505 336.541V360.225H87.821Z" fill="white"/>
<path d="M153.189 360.225V325.646C146.558 325.646 142.768 326.593 136.137 332.278C130.831 336.825 123.821 336.699 120.505 336.541V360.225H153.189Z" fill="white"/>
<path d="M153.189 360.225V325.646C159.821 325.646 163.61 326.593 170.242 332.278C175.547 336.825 182.558 336.699 185.874 336.541V360.225H153.189Z" fill="white"/>
<path d="M218.558 360.225V325.646C211.926 325.646 208.137 326.593 201.505 332.278C196.2 336.825 189.189 336.699 185.874 336.541V360.225H218.558Z" fill="white"/>
<path d="M218.558 360.225V325.646C225.189 325.646 228.979 326.593 235.61 332.278C240.916 336.825 247.926 336.699 251.242 336.541V360.225H218.558Z" fill="white"/>
<path d="M283.926 360.225V325.646C277.295 325.646 273.505 326.593 266.874 332.278C261.568 336.825 254.558 336.699 251.242 336.541V360.225H283.926Z" fill="white"/>
<path d="M283.926 360.225V325.646C290.558 325.646 294.347 326.593 300.979 332.278C306.284 336.825 313.295 336.699 316.61 336.541V360.225H283.926Z" fill="white"/>
<path d="M349.295 360.225V325.646C342.663 325.646 338.874 326.593 332.242 332.278C326.937 336.825 319.926 336.699 316.61 336.541V360.225H349.295Z" fill="white"/>
<path d="M349.295 360.225V325.646C355.926 325.646 359.716 326.593 366.347 332.278C371.653 336.825 378.663 336.699 381.979 336.541V360.225H349.295Z" fill="white"/>
</g>
<g clip-path="url(#clip1_4140_6993)">
<mask id="mask0_4140_6993" style="mask-type:luminance" maskUnits="userSpaceOnUse" x="13" y="28" width="253" height="31">
<path d="M265.5 28.5447H13.5V58.7493H265.5V28.5447Z" fill="white"/>
</mask>
<g mask="url(#mask0_4140_6993)">
<path d="M39.4176 29.4109C39.4176 29.4109 40.2107 30.6088 39.6204 31.8435C38.9564 33.2441 31.8544 48.0791 31.8544 48.0791C31.8544 48.0791 24.6971 33.1151 24.1068 31.8619C23.5165 30.6088 24.3282 29.4109 24.3282 29.4109H13.5L27.0951 57.9385H33.6623L47.2021 29.4109H39.4176Z" fill="white"/>
<path d="M126.191 44.8173L113.979 29.4109H103.76C103.76 29.4109 104.996 30.6088 104.996 31.8435V55.5059C104.996 56.7038 103.76 57.9385 103.76 57.9385H112.153C112.153 57.9385 110.898 56.7222 110.898 55.5244V39.1781L126.394 57.9385H131.928V31.8435C131.928 30.6088 133.164 29.4109 133.164 29.4109H124.936C124.936 29.4109 126.209 30.6088 126.209 31.8251V44.8173H126.191Z" fill="white"/>
<path d="M232.96 44.8173L220.749 29.4109H210.529C210.529 29.4109 211.765 30.6088 211.765 31.8435V55.5059C211.765 56.7038 210.529 57.9385 210.529 57.9385H218.922C218.922 57.9385 217.668 56.7222 217.668 55.5244V39.1781L233.181 57.9385H238.661V31.8435C238.661 30.6088 239.896 29.4109 239.896 29.4109H231.669C231.669 29.4109 232.942 30.6088 232.942 31.8251V44.8173H232.96Z" fill="white"/>
<path d="M258.675 53.5525H251.407V45.278H259.413C260.611 45.278 261.811 45.8308 261.811 45.8308V40.0442C261.811 40.0442 260.594 40.5971 259.413 40.5971H251.407V33.8522H259.56C262.142 33.8522 264.744 35.8241 264.744 35.8241L263.822 29.4109H241.74C241.74 29.4109 242.976 30.6088 242.976 31.8435V55.598C242.976 56.7591 241.759 57.9385 241.759 57.9385H264.559L265.5 51.5806C265.481 51.599 262.991 53.5709 258.675 53.5525Z" fill="white"/>
<path d="M207.393 55.4875V31.8435C207.393 30.6088 208.629 29.4109 208.629 29.4109H197.672C197.672 29.4109 198.908 30.6088 198.908 31.8251V55.5059C198.908 56.7038 197.691 57.9385 197.691 57.9385H208.629C208.611 57.9385 207.393 56.7038 207.393 55.4875Z" fill="white"/>
<path d="M100.679 55.4875V31.8435C100.679 30.6088 101.915 29.4109 101.915 29.4109H90.9575C90.9575 29.4109 92.1935 30.6088 92.1935 31.8251V55.5059C92.1935 56.7038 90.976 57.9385 90.976 57.9385H101.915C101.896 57.9385 100.679 56.7038 100.679 55.4875Z" fill="white"/>
<path d="M57.7536 55.4875V31.8435C57.7536 30.6088 58.9896 29.4109 58.9896 29.4109H48.0322C48.0322 29.4109 49.2682 30.6088 49.2682 31.8251V55.5059C49.2682 56.7038 48.0506 57.9385 48.0506 57.9385H58.9896C58.9896 57.9385 57.7536 56.7038 57.7536 55.4875Z" fill="white"/>
<path d="M174.853 29.4109C174.853 29.4109 176.07 30.6088 176.07 31.8435V55.5059C176.07 56.7222 174.853 57.9385 174.853 57.9385H195.956L196.768 51.1199C196.768 51.1199 193.152 53.5894 190.146 53.5894H184.593V31.8619C184.593 30.6272 185.829 29.4293 185.829 29.4293H174.853" fill="white"/>
<path d="M77.5468 41.4264L88.6148 29.4109H79.7973C79.7973 29.4109 80.1293 30.8852 79.3731 31.8803C77.676 34.0918 70.5556 41.3711 70.5556 41.3711V31.8251C70.5556 30.6088 71.773 29.4109 71.773 29.4109H60.8157C60.8157 29.4109 62.0332 30.6088 62.0332 31.8435V55.5059C62.0332 56.7038 60.8157 57.9385 60.8157 57.9385H71.773C71.773 57.9385 70.5556 56.7038 70.5556 55.598V51.7464V45.9046L79.8712 57.9385H90.3673L77.5468 41.4264Z" fill="white"/>
<path d="M162.586 43.6194H153.621C153.621 43.6194 154.82 44.5593 154.82 45.7386V55.0084C154.82 55.0084 154.027 55.2848 152.754 55.2848C146.279 55.2848 143.512 50.1063 143.512 43.6931C143.512 37.2983 146.334 32.6174 152.754 32.6174C156.702 32.6174 159.45 33.76 161.11 34.7736V29.7794C158.841 28.987 155.871 28.4894 152.773 28.5447C144.656 28.5447 134.492 32.1199 134.492 43.6563C134.492 55.2848 143.567 58.7493 152.735 58.7493C157.882 58.7493 162.568 56.3352 162.568 56.3352V43.6194H162.586Z" fill="white"/>
</g>
</g>
<rect x="13.5" y="104.625" width="333" height="195.158" rx="15.1579" fill="white"/>
<rect x="22.9263" y="114.099" width="311.684" height="176.211" rx="7.57895" fill="#F0F0F0"/>
<path d="M22.9263 121.678C22.9263 117.492 26.3195 114.099 30.5052 114.099H327.032C331.217 114.099 334.61 117.492 334.61 121.678V131.151H22.9263V121.678Z" fill="#DFDFDF"/>
<rect x="22.9263" y="131.151" width="311.684" height="22.7368" fill="#D71A15"/>
<path d="M22.9263 153.888H334.61V278.941C334.61 285.219 329.521 290.309 323.242 290.309H34.2947C28.0161 290.309 22.9263 285.219 22.9263 278.941V153.888Z" fill="#B7E2FC"/>
<rect x="33.3474" y="138.73" width="59.6842" height="7.57895" rx="3.78947" fill="white"/>
<path d="M137.305 299.7H219.995L229.5 360H127.8L137.305 299.7Z" fill="#E4E4E4"/>
<path d="M137.305 299.7H219.995L229.5 360H127.8L137.305 299.7Z" fill="url(#paint0_linear_4140_6993)" fill-opacity="0.2"/>
<circle cx="79.7684" cy="122.625" r="2.84211" fill="#FF6058"/>
<circle cx="89.242" cy="122.625" r="2.84211" fill="#FFBC2E"/>
<circle cx="98.7159" cy="122.625" r="2.84211" fill="#26CB40"/>
<rect x="28.6106" y="159.573" width="300.316" height="13.2632" fill="white"/>
<rect x="217.137" y="194.625" width="99.4737" height="8.52632" rx="4.26316" fill="#86C5EB"/>
<rect x="217.137" y="206.941" width="67.2632" height="8.52632" rx="4.26316" fill="#86C5EB"/>
<rect x="217.137" y="219.257" width="84.3158" height="8.52632" rx="4.26316" fill="#86C5EB"/>
<rect x="217.137" y="235.362" width="40.7368" height="4.73684" rx="2.36842" fill="#CFEDFF"/>
<rect x="217.137" y="243.888" width="84.3158" height="4.73684" rx="2.36842" fill="#CFEDFF"/>
<rect x="217.137" y="258.099" width="51.1579" height="11.3684" rx="5.68421" fill="#F02823"/>
<path d="M92.5579 261.415C99.5052 252.257 119.842 222.193 149.4 209.309C186.347 193.204 212.4 194.625 223.768 200.783C235.137 206.941 235.61 222.099 220.926 230.625C201.294 242.025 209.558 257.625 217.137 262.362C224.716 267.099 246.505 265.204 241.768 240.572" stroke="#F02823" stroke-width="1.42105" stroke-dasharray="1.89 1.89"/>
<circle cx="242.242" cy="240.573" r="5.21053" fill="#B7E2FC" stroke="#F02823" stroke-width="3.78947"/>
<circle cx="216.663" cy="262.362" r="5.21053" fill="#B7E2FC" stroke="#F02823" stroke-width="3.78947"/>
<circle cx="223.295" cy="201.73" r="5.21053" fill="#B7E2FC" stroke="#F02823" stroke-width="3.78947"/>
<circle cx="88.7683" cy="265.204" r="5.21053" fill="#B7E2FC" stroke="#F02823" stroke-width="3.78947"/>
<rect x="138.739" y="182.612" width="10.1876" height="18.1922" fill="#F2F2F2"/>
<rect x="118.363" y="205.898" width="14.5538" height="11.643" fill="#F2F2F2"/>
<rect x="138.739" y="182.612" width="10.1876" height="4.36613" fill="#D71A15"/>
<path fill-rule="evenodd" clip-rule="evenodd" d="M108.176 210.991H122.73V219.723H108.176V210.991ZM110.359 213.174H114.725V218.268H110.359V213.174ZM120.546 213.174H116.18V218.268H120.546V213.174Z" fill="#F2F2F2"/>
<rect x="110.359" y="219.723" width="10.1876" height="2.91076" fill="#F2F2F2"/>
<path d="M148.926 290.309V191.708L98.7158 231.73L118.363 290.309H148.926Z" fill="#F2F2F2"/>
<path fill-rule="evenodd" clip-rule="evenodd" d="M148.926 277.939V290.31H118.363L114.214 277.939H148.926Z" fill="#D71A15"/>
<path fill-rule="evenodd" clip-rule="evenodd" d="M101.918 241.279L148.926 205.171V200.805L100.754 237.807L101.918 241.279Z" fill="#2683B9"/>
<ellipse cx="134.736" cy="233.913" rx="1.81922" ry="2.54691" fill="#2683B9"/>
<ellipse cx="116.908" cy="243.738" rx="1.45538" ry="2.18307" fill="#2683B9"/>
<path d="M131.826 272.481L128.551 262.657L132.917 260.838L136.192 272.481H131.826Z" fill="#B7E2FC"/>
<rect width="10.1876" height="18.1922" transform="matrix(-1 0 0 1 159.114 182.612)" fill="white"/>
<rect width="14.5538" height="11.643" transform="matrix(-1 0 0 1 179.489 205.898)" fill="white"/>
<rect width="10.1876" height="4.36613" transform="matrix(-1 0 0 1 159.114 182.612)" fill="#F02823"/>
<path fill-rule="evenodd" clip-rule="evenodd" d="M189.677 210.991H175.123V219.723H189.677V210.991ZM187.494 213.174H183.128V218.267H187.494V213.174ZM177.306 213.174H181.672V218.267H177.306V213.174Z" fill="white"/>
<rect width="10.1876" height="2.91076" transform="matrix(-1 0 0 1 187.494 219.723)" fill="white"/>
<path d="M148.926 290.309V191.708L199.137 231.73L179.489 290.309H148.926Z" fill="white"/>
<path fill-rule="evenodd" clip-rule="evenodd" d="M148.926 277.939V290.31H179.489L183.638 277.939H148.926Z" fill="#F02823"/>
<path fill-rule="evenodd" clip-rule="evenodd" d="M195.935 241.279L148.926 205.171V200.805L197.099 237.807L195.935 241.279Z" fill="#2683B9"/>
<ellipse cx="1.81922" cy="2.54691" rx="1.81922" ry="2.54691" transform="matrix(-1 0 0 1 164.935 231.366)" fill="#2683B9"/>
<ellipse cx="1.45538" cy="2.18307" rx="1.45538" ry="2.18307" transform="matrix(-1 0 0 1 182.4 241.555)" fill="#2683B9"/>
<path d="M166.027 272.481L169.302 262.657L164.936 260.838L161.661 272.481H166.027Z" fill="#B7E2FC"/>
<rect x="230.4" y="262.836" width="25.5789" height="1.89474" rx="0.947368" fill="white"/>
</g>
<defs>
<linearGradient id="paint0_linear_4140_6993" x1="178.373" y1="318.819" x2="178.373" y2="299.7" gradientUnits="userSpaceOnUse">
<stop stop-opacity="0"/>
<stop offset="1"/>
</linearGradient>
<clipPath id="clip0_4140_6993">
<rect width="360" height="360" rx="8" fill="white"/>
</clipPath>
<clipPath id="clip1_4140_6993">
<rect width="252" height="30.2105" fill="white" transform="translate(13.5 28.5447)"/>
</clipPath>
</defs>
</svg>
