<svg width="360" height="360" viewBox="0 0 360 360" fill="none" xmlns="http://www.w3.org/2000/svg">
<rect width="360" height="360" rx="8" fill="#4EABE9"/>
<path d="M63.51 97.0899C63.51 102.031 59.5079 106.036 54.5706 106.036C49.6333 106.036 45.6313 102.031 45.6313 97.0899C45.6313 92.1487 49.6333 88.1435 54.5706 88.1435C59.5079 88.1456 63.51 92.1508 63.51 97.0899Z" fill="white"/>
<path d="M59.2004 62.3371L59.5901 62.2591C70.9222 59.9044 79.1455 49.7775 79.1455 38.1791V34.6313C79.1455 32.0785 77.0686 30 74.5178 30C71.9649 30 69.8901 32.0785 69.8901 34.6313V38.1791C69.8901 42.4247 68.1966 46.3709 65.1214 49.2947C62.2504 52.0267 58.5348 53.4981 54.5727 53.5066C50.6107 53.4981 46.8972 52.0267 44.0241 49.2947C40.9488 46.3709 39.2553 42.4247 39.2553 38.1791V34.6313C39.2553 32.0785 37.1785 30 34.6277 30C32.0748 30 30 32.0785 30 34.6313V38.1791C30 49.7775 38.2232 59.9065 49.5554 62.2591L49.9451 62.3371V73.2608L49.5554 73.3388C38.2232 75.6935 30 85.8204 30 97.4188V100.967C30 103.519 32.0769 105.598 34.6277 105.598C37.1806 105.598 39.2553 103.519 39.2553 100.967V97.4188C39.2553 93.1732 40.9488 89.227 44.0241 86.3032C46.8951 83.5712 50.6107 82.0998 54.5727 82.0913C58.5348 82.0998 62.2483 83.5712 65.1214 86.3032C68.1966 89.227 69.8901 93.1732 69.8901 97.4188V100.967C69.8901 103.519 71.967 105.598 74.5178 105.598C77.0707 105.598 79.1455 103.519 79.1455 100.967V97.4188C79.1455 85.8204 70.9222 75.6914 59.5901 73.3388L59.2004 73.2608V62.3371Z" fill="white"/>
<path d="M99.711 54.5729C99.0658 53.583 98.6182 52.3965 98.6182 51.3585C98.6182 49.5776 99.9589 47.4515 102.64 47.4515C104.328 47.4515 105.372 48.2928 106.465 50.0234L114.411 62.5837L122.407 50.0234C123.5 48.2928 124.542 47.4515 126.182 47.4515C128.813 47.4515 130.204 49.5776 130.204 51.3585C130.204 52.3965 129.756 53.6333 129.111 54.5729L118.532 70.5967V79.3504C118.532 82.0207 117.093 83.9502 114.459 83.9502C111.828 83.9502 110.485 82.0207 110.485 79.3504V70.695L99.711 54.5729ZM150.3 84.2452C140.019 84.2452 131.676 75.9372 131.676 65.6998C131.676 55.4623 140.019 47.1543 150.3 47.1543C160.581 47.1543 168.924 55.4623 168.924 65.6998C168.924 75.9372 160.581 84.2452 150.3 84.2452ZM150.3 76.5316C156.06 76.5316 160.879 71.5866 160.879 65.7019C160.879 59.8173 156.062 54.8723 150.3 54.8723C144.588 54.8723 139.721 59.8173 139.721 65.7019C139.721 71.5866 144.588 76.5316 150.3 76.5316ZM174.258 55.7114C171.675 55.7114 169.887 54.2779 169.887 51.706C169.887 49.134 171.675 47.7006 174.258 47.7006H197.549C200.082 47.7006 201.969 49.134 201.969 51.706C201.969 54.2779 200.082 55.7114 197.549 55.7114H189.902V79.3504C189.902 82.0207 188.561 83.9502 185.88 83.9502C183.198 83.9502 181.857 82.0207 181.857 79.3504V55.7114H174.258ZM222.826 52.2982L233.304 77.3707C233.8 78.5092 234 79.3483 234 80.1393C234 82.4643 232.262 83.948 230.076 83.948C228.389 83.948 226.998 83.0587 226.302 81.2778L224.266 76.0858H208.721L206.634 81.2778C205.938 83.0084 204.598 83.948 202.91 83.948C200.924 83.948 198.987 82.6129 198.987 80.1393C198.987 79.3483 199.186 78.507 199.682 77.3707L210.16 52.2982C211.352 49.4291 213.537 47.6984 216.467 47.6984C219.35 47.6984 221.635 49.4312 222.826 52.2982ZM221.288 68.7677L216.52 56.8499L211.703 68.7677H221.288Z" fill="white"/>
<rect y="324" width="360" height="36" fill="#3692D0"/>
<rect x="161" y="198" width="38" height="28" fill="#E7AB82"/>
<path fill-rule="evenodd" clip-rule="evenodd" d="M179.508 151.5H180.496H193.469H207.431L210.477 170.5C213.523 172 214.77 174.7 213.523 179C212.507 182.5 208.954 185 207.431 185C204.644 207.348 188.298 211.986 180.002 211.534C171.706 211.986 155.36 207.348 152.573 185C151.05 185 147.497 182.5 146.481 179C145.234 174.7 146.481 172 149.527 170.5L152.573 151.5H166.534H179.508Z" fill="#F2CAB0"/>
<rect x="174" y="190" width="14" height="7" rx="3.5" fill="#2A3944"/>
<path d="M185.5 194C193 193.5 208.2 187.7 209 168.5" stroke="#2A3944" stroke-width="3"/>
<path d="M149 170.5L152 172.5L156.635 157.331C157.149 155.649 158.701 154.5 160.46 154.5H199.377C201.212 154.5 202.812 155.749 203.257 157.53L207 172.5L210 171C211.5 168 216.307 154.5 211.5 142C204 122.5 188 124 171.5 124C155 124 163 124.5 160 123.5C157.6 122.7 153 120.5 151 119.5C148.6 123.1 148.667 129.333 149 132C147 133.5 144 138.941 144 147.5C144 156.5 146.5 162 149 170.5Z" fill="#2A3944"/>
<path d="M118 241L157.5 218.5L180.5 221.5V241H118Z" fill="#398FC8"/>
<path d="M243 241L203.5 218.5L180.5 221.5V241H243Z" fill="#398FC8"/>
<path d="M188.165 236L180.248 221.5L199.052 210L204 219L188.165 236Z" fill="white"/>
<path d="M171.835 236L179.752 221.5L160.948 210L156 219L171.835 236Z" fill="white"/>
<path d="M85 231C85 228.239 87.2386 226 90 226H270C272.761 226 275 228.239 275 231V331C275 333.761 272.761 336 270 336H90C87.2386 336 85 333.761 85 331V231Z" fill="#202224"/>
<path fill-rule="evenodd" clip-rule="evenodd" d="M90.1001 234H264C265.105 234 266 234.895 266 236V331.9C268.282 331.437 270 329.419 270 327V235C270 232.239 267.762 230 265 230H95.0001C92.5811 230 90.5634 231.718 90.1001 234Z" fill="#393D3D"/>
<rect x="156" y="295" width="48" height="23" rx="2" fill="#111315"/>
<path d="M139 360C139 357.239 141.239 355 144 355H216C218.761 355 221 357.239 221 360H139Z" fill="#202224"/>
<path fill-rule="evenodd" clip-rule="evenodd" d="M166.38 304.073C166.972 302.17 168.79 301 170.783 301H180H189.217C191.21 301 193.028 302.17 193.619 304.073C197.419 316.299 198.717 340.315 198.957 355.008C199.002 357.769 196.761 360 194 360H180H166C163.239 360 160.998 357.769 161.043 355.008C161.283 340.315 162.581 316.299 166.38 304.073Z" fill="#393D3D"/>
<mask id="mask0_4411_22470" style="mask-type:alpha" maskUnits="userSpaceOnUse" x="161" y="301" width="38" height="59">
<path fill-rule="evenodd" clip-rule="evenodd" d="M166.38 304.073C166.972 302.17 168.79 301 170.783 301H180H189.217C191.21 301 193.028 302.17 193.619 304.073C197.419 316.299 198.717 340.315 198.957 355.008C199.002 357.769 196.761 360 194 360H180H166C163.239 360 160.998 357.769 161.043 355.008C161.283 340.315 162.581 316.299 166.38 304.073Z" fill="#202224"/>
</mask>
<g mask="url(#mask0_4411_22470)">
<path d="M163.483 307.073C164.091 305.17 163.958 304 166.005 304H187.941C189.988 304 191.641 304.5 192.463 307.073C196.366 319.299 198.753 343.315 198.999 358.008C199.046 360.769 196.744 363 193.908 363H163.092C160.256 363 157.954 360.769 158.001 358.008C158.247 343.315 159.58 319.299 163.483 307.073Z" fill="#202224"/>
</g>
<rect x="30.5" y="284.5" width="112" height="28" rx="14" stroke="white"/>
<path d="M48.5 290L50.8832 295.22L56.584 295.873L52.3561 299.753L53.4962 305.377L48.5 302.555L43.5038 305.377L44.6439 299.753L40.416 295.873L46.1168 295.22L48.5 290Z" fill="#FFD000"/>
<path d="M67.5 290L69.8832 295.22L75.584 295.873L71.3561 299.753L72.4962 305.377L67.5 302.555L62.5038 305.377L63.6439 299.753L59.416 295.873L65.1168 295.22L67.5 290Z" fill="#FFD000"/>
<path d="M86.5 290L88.8832 295.22L94.584 295.873L90.3561 299.753L91.4962 305.377L86.5 302.555L81.5038 305.377L82.6439 299.753L78.416 295.873L84.1168 295.22L86.5 290Z" fill="#FFD000"/>
<path d="M105.5 290L107.883 295.22L113.584 295.873L109.356 299.753L110.496 305.377L105.5 302.555L100.504 305.377L101.644 299.753L97.416 295.873L103.117 295.22L105.5 290Z" fill="#FFD000"/>
<path d="M124.5 290L126.883 295.22L132.584 295.873L128.356 299.753L129.496 305.377L124.5 302.555L119.504 305.377L120.644 299.753L116.416 295.873L122.117 295.22L124.5 290Z" fill="#FFD000"/>
<rect x="30" y="198" width="87" height="67" rx="6" fill="#13669E"/>
<path d="M90.5 257L113.722 276.279C115.026 277.361 117 276.434 117 274.74V257H90.5Z" fill="#13669E"/>
<path d="M91.5784 238.104L92.9525 230.352C93.0331 229.897 93.0109 229.431 92.8875 228.986C92.7641 228.541 92.5424 228.128 92.238 227.775C91.9335 227.422 91.5537 227.138 91.125 226.943C90.6963 226.748 90.2291 226.647 89.7561 226.647H79.6584C79.4227 226.647 79.1899 226.597 78.976 226.5C78.7622 226.404 78.5724 226.263 78.42 226.088C78.2675 225.913 78.156 225.707 78.0932 225.486C78.0304 225.264 78.0178 225.032 78.0563 224.806L79.3485 217.12C79.5572 215.872 79.4975 214.596 79.1731 213.372C79.033 212.866 78.7646 212.403 78.3927 212.026C78.0207 211.648 77.5571 211.368 77.0448 211.211L76.7622 211.122C76.1231 210.923 75.4301 210.969 74.8249 211.251C74.1622 211.563 73.6789 212.131 73.4996 212.805L72.5718 216.29C72.277 217.399 71.8478 218.47 71.2933 219.48C70.4845 220.956 69.2332 222.14 67.9313 223.232L65.1267 225.588C64.7376 225.916 64.4337 226.329 64.2399 226.794C64.0462 227.258 63.968 227.76 64.0119 228.26L65.5944 246.106C65.6642 246.896 66.035 247.631 66.6336 248.166C67.2323 248.702 68.0152 249 68.8278 249H77.8867C84.6731 249 90.4636 244.391 91.5784 238.104Z" fill="#F2CAB0"/>
<path fill-rule="evenodd" clip-rule="evenodd" d="M58.4512 225.001C58.8418 224.985 59.2239 225.115 59.5177 225.365C59.8114 225.615 59.9941 225.965 60.0276 226.343L61.988 248.341C62.0212 248.669 61.9852 249 61.882 249.313C61.7789 249.627 61.6108 249.917 61.3881 250.166C61.1654 250.414 60.8927 250.616 60.5867 250.759C60.2807 250.902 59.9478 250.983 59.6083 250.998C59.2688 251.012 58.9299 250.959 58.6123 250.842C58.2946 250.725 58.0049 250.547 57.7608 250.318C57.5167 250.089 57.3234 249.814 57.1926 249.51C57.0618 249.206 56.9963 248.88 57.0002 248.551V226.468C57.0003 226.089 57.1513 225.726 57.4217 225.452C57.6921 225.179 58.0609 225.018 58.4512 225.001Z" fill="white"/>
<path d="M41.0027 147.934C41.0372 147.144 41.3736 146.398 41.942 145.852C42.5104 145.305 43.2668 145 44.0536 145H56.9464C57.7332 145 58.4896 145.305 59.058 145.852C59.6264 146.398 59.9628 147.144 59.9973 147.934L58.9957 148.493L50.5 153.089L42.0043 148.493L41.0027 147.934ZM41 149.492V156.932C41 157.746 41.3217 158.526 41.8944 159.101C42.467 159.677 43.2437 160 44.0536 160H56.9464C57.7563 160 58.533 159.677 59.1056 159.101C59.6783 158.526 60 157.746 60 156.932V149.492L59.6431 149.692L50.8216 154.464C50.7228 154.518 50.6123 154.546 50.5 154.546C50.3877 154.546 50.2772 154.518 50.1784 154.464L41.3488 149.687L41 149.492Z" fill="#8ED2FF"/>
<path d="M293.003 320.738C293.035 320.001 293.354 319.305 293.892 318.795C294.431 318.285 295.148 318 295.893 318H308.107C308.852 318 309.569 318.285 310.108 318.795C310.646 319.305 310.965 320.001 310.997 320.738L310.049 321.26L302 325.55L293.951 321.26L293.003 320.738ZM293 322.192V329.136C293 329.896 293.305 330.624 293.847 331.161C294.39 331.698 295.126 332 295.893 332H308.107C308.874 332 309.61 331.698 310.153 331.161C310.695 330.624 311 329.896 311 329.136V322.192L310.662 322.379L302.305 326.833C302.211 326.883 302.106 326.909 302 326.909C301.894 326.909 301.789 326.883 301.695 326.833L293.33 322.374L293 322.192Z" fill="#8ED2FF"/>
<path d="M313.504 84.6C312.024 84.6 310.606 84.01 309.56 82.9598C308.514 81.9096 307.926 80.4852 307.926 79C307.926 77.5148 308.514 76.0904 309.56 75.0402C310.606 73.99 312.024 73.4 313.504 73.4C314.983 73.4 316.401 73.99 317.447 75.0402C318.493 76.0904 319.081 77.5148 319.081 79C319.081 80.4852 318.493 81.9096 317.447 82.9598C316.401 84.01 314.983 84.6 313.504 84.6ZM325.343 80.552C325.407 80.04 325.455 79.528 325.455 79C325.455 78.472 325.407 77.944 325.343 77.4L328.705 74.792C329.008 74.552 329.088 74.12 328.897 73.768L325.71 68.232C325.518 67.88 325.088 67.736 324.738 67.88L320.77 69.48C319.941 68.856 319.081 68.312 318.077 67.912L317.487 63.672C317.455 63.4836 317.357 63.3127 317.211 63.1897C317.065 63.0667 316.881 62.9995 316.69 63H310.317C309.918 63 309.584 63.288 309.52 63.672L308.93 67.912C307.926 68.312 307.066 68.856 306.237 69.48L302.269 67.88C301.919 67.736 301.489 67.88 301.297 68.232L298.11 73.768C297.903 74.12 297.999 74.552 298.302 74.792L301.664 77.4C301.6 77.944 301.552 78.472 301.552 79C301.552 79.528 301.6 80.04 301.664 80.552L298.302 83.208C297.999 83.448 297.903 83.88 298.11 84.232L301.297 89.768C301.489 90.12 301.919 90.248 302.269 90.12L306.237 88.504C307.066 89.144 307.926 89.688 308.93 90.088L309.52 94.328C309.584 94.712 309.918 95 310.317 95H316.69C317.089 95 317.423 94.712 317.487 94.328L318.077 90.088C319.081 89.672 319.941 89.144 320.77 88.504L324.738 90.12C325.088 90.248 325.518 90.12 325.71 89.768L328.897 84.232C329.088 83.88 329.008 83.448 328.705 83.208L325.343 80.552Z" fill="#8ED2FF"/>
<path d="M102.503 171.9C101.215 171.9 99.9792 171.384 99.0683 170.465C98.1573 169.546 97.6455 168.3 97.6455 167C97.6455 165.7 98.1573 164.454 99.0683 163.535C99.9792 162.616 101.215 162.1 102.503 162.1C103.791 162.1 105.027 162.616 105.938 163.535C106.849 164.454 107.361 165.7 107.361 167C107.361 168.3 106.849 169.546 105.938 170.465C105.027 171.384 103.791 171.9 102.503 171.9ZM112.815 168.358C112.87 167.91 112.912 167.462 112.912 167C112.912 166.538 112.87 166.076 112.815 165.6L115.743 163.318C116.007 163.108 116.076 162.73 115.91 162.422L113.134 157.578C112.968 157.27 112.593 157.144 112.288 157.27L108.832 158.67C108.11 158.124 107.361 157.648 106.486 157.298L105.973 153.588C105.945 153.423 105.859 153.274 105.732 153.166C105.605 153.058 105.445 153 105.279 153H99.7273C99.3804 153 99.0889 153.252 99.0334 153.588L98.5199 157.298C97.6455 157.648 96.8961 158.124 96.1744 158.67L92.7186 157.27C92.4132 157.144 92.0385 157.27 91.872 157.578L89.0962 162.422C88.9158 162.73 88.9991 163.108 89.2628 163.318L92.1912 165.6C92.1357 166.076 92.094 166.538 92.094 167C92.094 167.462 92.1357 167.91 92.1912 168.358L89.2628 170.682C88.9991 170.892 88.9158 171.27 89.0962 171.578L91.872 176.422C92.0385 176.73 92.4132 176.842 92.7186 176.73L96.1744 175.316C96.8961 175.876 97.6455 176.352 98.5199 176.702L99.0334 180.412C99.0889 180.748 99.3804 181 99.7273 181H105.279C105.626 181 105.917 180.748 105.973 180.412L106.486 176.702C107.361 176.338 108.11 175.876 108.832 175.316L112.288 176.73C112.593 176.842 112.968 176.73 113.134 176.422L115.91 171.578C116.076 171.27 116.007 170.892 115.743 170.682L112.815 168.358Z" fill="#FAFAFA"/>
<rect x="234" y="105" width="80" height="80" rx="40" fill="#053251"/>
<rect x="238.5" y="109.5" width="71" height="71" rx="35.5" stroke="#4EABE9" stroke-opacity="0.18" stroke-width="9"/>
<path fill-rule="evenodd" clip-rule="evenodd" d="M289.001 144.682H285.738C285.738 138.065 280.928 133.263 274.301 133.263V130C282.682 130 289.001 136.312 289.001 144.682ZM279.211 144.684C279.211 141.253 277.747 139.789 274.316 139.789V136.526C279.578 136.526 282.474 139.422 282.474 144.684H279.211ZM278.75 148.246C279.174 148.233 279.586 148.385 279.899 148.67L286.53 154.7C286.844 154.986 287.034 155.383 287.061 155.807C287.087 156.23 286.947 156.648 286.67 156.97L283.636 160.512C283.353 160.794 282.977 160.963 282.578 160.987C282.524 160.99 282.322 161 281.993 161C279.738 161 271.551 160.522 265.015 153.987C257.522 146.492 257.989 136.83 258.014 136.422C258.036 136.023 258.205 135.646 258.487 135.363L262.027 132.327C262.35 132.05 262.767 131.911 263.191 131.937C263.614 131.964 264.011 132.154 264.297 132.469L270.325 139.098C270.611 139.411 270.763 139.823 270.75 140.247C270.737 140.67 270.559 141.072 270.255 141.367L266.243 145.273C266.418 146.206 267.007 148.101 268.951 150.047C270.896 151.987 272.786 152.576 273.725 152.755L277.63 148.74C277.925 148.436 278.327 148.259 278.75 148.246Z" fill="white"/>
<rect x="235" y="197" width="95" height="30" rx="6" fill="white"/>
<rect x="235" y="231" width="95" height="30" rx="6" fill="white"/>
<rect x="235" y="265" width="95" height="30" rx="6" fill="white"/>
<circle cx="251" cy="212" r="8" fill="#35AC33"/>
<circle cx="251" cy="246" r="8" fill="#35AC33"/>
<circle cx="251" cy="280" r="7" stroke="#B3CFE2" stroke-width="2"/>
<circle cx="268" cy="280" r="2" fill="#B3CFE2"/>
<circle cx="275" cy="280" r="2" fill="#B3CFE2"/>
<circle cx="282" cy="280" r="2" fill="#B3CFE2"/>
<rect x="266" y="241" width="49" height="3" rx="1.5" fill="#B3CFE2"/>
<rect x="266" y="207" width="34" height="3" rx="1.5" fill="#B3CFE2"/>
<rect x="266" y="248" width="34" height="3" rx="1.5" fill="#B3CFE2"/>
<rect x="266" y="214" width="54" height="3" rx="1.5" fill="#B3CFE2"/>
<path d="M247 211.966L249.644 214.5L255 209.5" stroke="white" stroke-width="2" stroke-linecap="round"/>
<path d="M247 245.966L249.644 248.5L255 243.5" stroke="white" stroke-width="2" stroke-linecap="round"/>
</svg>
