<svg width="360" height="360" viewBox="0 0 360 360" fill="none" xmlns="http://www.w3.org/2000/svg">
<g clip-path="url(#clip0_4628_23115)">
<rect width="360" height="360" rx="8" fill="#E5FFD8"/>
<path d="M73.4172 81.8721L113.157 38.0808C117.285 33.5326 124.231 32.961 129.046 36.7732V36.7732C133.583 40.365 134.804 46.7386 131.915 51.7524L97.4738 111.526C90.3565 123.878 72.5999 124.074 65.2124 111.881L35.2214 62.3829C32.2226 57.4335 33.3067 51.0336 37.7683 47.3479V47.3479C42.3292 43.5802 48.9885 43.8241 53.2615 47.9153L88.7275 81.8721" stroke="#E6201E" stroke-width="10.5115" stroke-linecap="round"/>
<path d="M152.953 87.4979C151.299 87.4979 150.267 86.3902 150.267 84.6299V78.0745H150.176L143.453 86.3902C142.892 87.1034 142.209 87.4979 141.223 87.4979C139.72 87.4979 138.597 86.375 138.597 84.8879C138.597 84.2354 138.734 83.598 139.265 82.9304L145.411 75.6921L139.417 68.8635C138.992 68.3779 138.855 67.8316 138.855 67.2853C138.855 65.9196 139.918 64.9333 141.359 64.9333C142.133 64.9333 142.71 65.1913 143.226 65.8286L150.16 74.1139H150.267V67.8013C150.267 66.041 151.299 64.9333 152.953 64.9333C154.607 64.9333 155.638 66.041 155.638 67.8013V74.1139H155.745L162.71 65.8286C163.241 65.1761 163.802 64.9333 164.561 64.9333C166.003 64.9333 167.065 65.9196 167.065 67.3005C167.065 67.8316 166.928 68.3172 166.503 68.8028L160.479 75.601L166.655 82.9152C167.201 83.5677 167.338 84.2202 167.338 84.8727C167.338 86.3598 166.185 87.4979 164.698 87.4979C163.696 87.4979 163.028 87.1034 162.467 86.3902L155.73 78.0745H155.638V84.6299C155.638 86.3902 154.607 87.4979 152.953 87.4979ZM172.809 87.4979C170.973 87.4979 169.926 86.4357 169.926 84.5389V67.8316C169.926 65.9803 170.958 64.9333 172.703 64.9333C174.463 64.9333 175.48 65.9803 175.48 67.8316V78.6966H175.632L183.629 66.6935C184.479 65.434 185.435 64.9333 186.998 64.9333C188.849 64.9333 189.896 66.0107 189.896 67.8923V84.5996C189.896 86.4509 188.879 87.4979 187.119 87.4979C185.359 87.4979 184.342 86.4509 184.342 84.5996V73.7497H184.19L176.193 85.7377C175.344 87.0123 174.388 87.4979 172.809 87.4979ZM195.367 87.1641C193.607 87.1641 192.575 86.1018 192.575 84.2505V68.1806C192.575 66.3293 193.607 65.2671 195.367 65.2671H202.757C207.067 65.2671 209.662 67.346 209.662 70.73C209.662 73.1883 207.811 75.1458 205.383 75.4796V75.601C208.342 75.7376 210.679 77.9379 210.679 80.8514C210.679 84.6906 207.719 87.1641 203.031 87.1641H195.367ZM198.144 74.1898H201.012C203.031 74.1898 204.245 73.2338 204.245 71.6556C204.245 70.123 203.152 69.2125 201.285 69.2125H198.144V74.1898ZM198.144 83.2187H201.452C203.744 83.2187 205.018 82.2171 205.018 80.3658C205.018 78.5752 203.713 77.5737 201.422 77.5737H198.144V83.2187ZM222.614 87.5434C215.968 87.5434 211.795 83.2035 211.795 76.2232C211.795 69.2429 215.983 64.8878 222.614 64.8878C229.246 64.8878 233.419 69.2429 233.419 76.2232C233.419 83.2035 229.246 87.5434 222.614 87.5434ZM222.614 83.0214C225.725 83.0214 227.758 80.381 227.758 76.2232C227.758 72.0502 225.725 69.4098 222.614 69.4098C219.503 69.4098 217.47 72.0502 217.47 76.2232C217.47 80.381 219.488 83.0214 222.614 83.0214ZM245.476 63.5676C243.002 63.5676 240.832 62.3688 240.18 60.6237C240.058 60.3809 240.013 60.0926 240.013 59.8194C240.013 58.9848 240.589 58.4386 241.454 58.4386C242.228 58.4386 242.714 58.7572 243.184 59.607C243.67 60.5782 244.353 61.0638 245.476 61.0638C246.583 61.0638 247.297 60.5782 247.767 59.607C248.253 58.7572 248.723 58.4386 249.497 58.4386C250.362 58.4386 250.939 58.9697 250.939 59.7739C250.939 60.0471 250.893 60.305 250.802 60.5782C250.21 62.3688 248.055 63.5676 245.476 63.5676ZM238.389 87.4979C236.553 87.4979 235.506 86.4357 235.506 84.5389V67.8316C235.506 65.9803 236.538 64.9333 238.283 64.9333C240.043 64.9333 241.06 65.9803 241.06 67.8316V78.6966H241.212L249.209 66.6935C250.058 65.434 251.014 64.9333 252.577 64.9333C254.429 64.9333 255.476 66.0107 255.476 67.8923V84.5996C255.476 86.4509 254.459 87.4979 252.699 87.4979C250.939 87.4979 249.922 86.4509 249.922 84.5996V73.7497H249.77L241.773 85.7377C240.923 87.0123 239.967 87.4979 238.389 87.4979ZM148.962 118.543C142.315 118.543 138.142 114.203 138.142 107.223C138.142 100.243 142.33 95.8878 148.962 95.8878C155.593 95.8878 159.766 100.243 159.766 107.223C159.766 114.203 155.593 118.543 148.962 118.543ZM148.962 114.021C152.072 114.021 154.106 111.381 154.106 107.223C154.106 103.05 152.072 100.41 148.962 100.41C145.851 100.41 143.817 103.05 143.817 107.223C143.817 111.381 145.836 114.021 148.962 114.021ZM174.008 119.044C172.43 119.044 171.444 118.164 171.307 116.601L171.292 116.343C165.116 116.131 160.988 112.838 160.988 107.193C160.988 101.578 165.146 98.2702 171.292 98.0577L171.307 97.8301C171.444 96.2671 172.43 95.387 174.008 95.387C175.602 95.387 176.588 96.2671 176.724 97.8301L176.74 98.0577C182.916 98.2702 187.043 101.563 187.043 107.208C187.043 112.823 182.885 116.131 176.74 116.343L176.724 116.601C176.588 118.164 175.602 119.044 174.008 119.044ZM171.368 112.003V102.382C168.485 102.549 166.573 104.325 166.573 107.193C166.573 110.076 168.485 111.851 171.368 112.003ZM176.664 112.003C179.532 111.851 181.459 110.076 181.459 107.208C181.459 104.325 179.532 102.534 176.664 102.382V112.003ZM191.756 118.498C189.92 118.498 188.873 117.436 188.873 115.539V98.8316C188.873 96.9803 189.905 95.9333 191.65 95.9333C193.41 95.9333 194.427 96.9803 194.427 98.8316V109.697H194.578L202.575 97.6935C203.425 96.434 204.381 95.9333 205.944 95.9333C207.795 95.9333 208.842 97.0107 208.842 98.8923V115.6C208.842 117.451 207.826 118.498 206.065 118.498C204.305 118.498 203.289 117.451 203.289 115.6V104.75H203.137L195.14 116.738C194.29 118.012 193.334 118.498 191.756 118.498ZM221.673 118.543C214.936 118.543 210.915 114.37 210.915 107.208C210.915 100.061 215.027 95.8878 221.491 95.8878C225.634 95.8878 228.76 97.5873 230.399 100.698C230.763 101.366 230.96 102.064 230.96 102.732C230.96 104.158 229.989 105.084 228.532 105.084C227.303 105.084 226.544 104.583 225.937 103.369C224.951 101.335 223.479 100.349 221.552 100.349C218.517 100.349 216.59 102.944 216.59 107.193C216.59 111.487 218.502 114.082 221.567 114.082C223.585 114.082 225.057 113.111 225.998 111.047C226.575 109.848 227.258 109.363 228.426 109.363C230.004 109.363 231.036 110.349 231.036 111.821C231.036 112.352 230.915 112.898 230.687 113.43C229.367 116.54 225.877 118.543 221.673 118.543Z" fill="#11A851"/>
<rect x="92" y="310" width="80" height="20" rx="4" fill="#0B7337"/>
<path d="M98 330H166L160 360H104L98 330Z" fill="#0B7337"/>
<path fill-rule="evenodd" clip-rule="evenodd" d="M166 330H98L98.8 334H165.2L166 330Z" fill="#064F25"/>
<path d="M132 270H134V310H132V270Z" fill="#11A851"/>
<path d="M121 287C125.8 291.4 130.333 297.167 132 299.5C105.333 302.463 96.0419 285.364 94.2826 274.479C94.078 273.213 95.2066 272.191 96.4574 272.473C107.627 274.995 115.402 281.868 121 287Z" fill="#11A851"/>
<path d="M143.5 287C138.7 291.4 134.167 297.167 132.5 299.5C159.167 302.463 168.458 285.364 170.217 274.479C170.422 273.213 169.293 272.191 168.043 272.473C156.873 274.995 149.098 281.868 143.5 287Z" fill="#11A851"/>
<rect x="189" y="310" width="80" height="20" rx="4" fill="#362F2F"/>
<path d="M195 330H263L257 360H201L195 330Z" fill="#362F2F"/>
<path fill-rule="evenodd" clip-rule="evenodd" d="M263 330H195L195.8 334H262.2L263 330Z" fill="#231818"/>
<rect x="286" y="310" width="80" height="20" rx="4" fill="#E6201E"/>
<path d="M292 330H360L354 360H298L292 330Z" fill="#E6201E"/>
<path fill-rule="evenodd" clip-rule="evenodd" d="M360 330H292L292.8 334H359.2L360 330Z" fill="#AF1A19"/>
<rect x="326" y="218" width="2" height="92" fill="#11A851"/>
<path d="M315 287C319.8 291.4 324.333 297.167 326 299.5C299.333 302.463 290.042 285.364 288.283 274.479C288.078 273.213 289.207 272.191 290.457 272.473C301.627 274.995 309.402 281.868 315 287Z" fill="#11A851"/>
<path d="M337.5 287C332.7 291.4 328.167 297.167 326.5 299.5C353.167 302.463 362.458 285.364 364.217 274.479C364.422 273.213 363.293 272.191 362.043 272.473C350.873 274.995 343.098 281.868 337.5 287Z" fill="#11A851"/>
<path d="M315 259C319.8 263.4 324.333 269.167 326 271.5C299.333 274.463 290.042 257.364 288.283 246.479C288.078 245.213 289.207 244.191 290.457 244.473C301.627 246.995 309.402 253.868 315 259Z" fill="#11A851"/>
<path d="M337.5 259C332.7 263.4 328.167 269.167 326.5 271.5C353.167 274.463 362.458 257.364 364.217 246.479C364.422 245.213 363.293 244.191 362.043 244.473C350.873 246.995 343.098 253.868 337.5 259Z" fill="#11A851"/>
<path d="M315 231C319.8 235.4 324.333 241.167 326 243.5C299.333 246.463 290.042 229.364 288.283 218.479C288.078 217.213 289.207 216.191 290.457 216.473C301.627 218.995 309.402 225.868 315 231Z" fill="#11A851"/>
<path d="M337.5 231C332.7 235.4 328.167 241.167 326.5 243.5C353.167 246.463 362.458 229.364 364.217 218.479C364.422 217.213 363.293 216.191 362.043 216.473C350.873 218.995 343.098 225.868 337.5 231Z" fill="#11A851"/>
<rect x="-5" y="310" width="80" height="20" rx="4" fill="#FFB728"/>
<path d="M1 330H69L63 360H7L1 330Z" fill="#FFB728"/>
<path fill-rule="evenodd" clip-rule="evenodd" d="M69 330H1L1.8 334H68.2L69 330Z" fill="#D19111"/>
<path d="M35 244H37V310H35V244Z" fill="#11A851"/>
<path d="M24 287C28.8 291.4 33.3333 297.167 35 299.5C8.33309 302.463 -0.9581 285.364 -2.71737 274.479C-2.92196 273.213 -1.79344 272.191 -0.542645 272.473C10.627 274.995 18.4017 281.868 24 287Z" fill="#11A851"/>
<path d="M46.5 287C41.7 291.4 37.1667 297.167 35.5 299.5C62.1669 302.463 71.4581 285.364 73.2174 274.479C73.422 273.213 72.2934 272.191 71.0426 272.473C59.873 274.995 52.0983 281.868 46.5 287Z" fill="#11A851"/>
<path d="M24 259C28.8 263.4 33.3333 269.167 35 271.5C8.33309 274.463 -0.9581 257.364 -2.71737 246.479C-2.92196 245.213 -1.79344 244.191 -0.542645 244.473C10.627 246.995 18.4017 253.868 24 259Z" fill="#11A851"/>
<path d="M46.5 259C41.7 263.4 37.1667 269.167 35.5 271.5C62.1669 274.463 71.4581 257.364 73.2174 246.479C73.422 245.213 72.2934 244.191 71.0426 244.473C59.873 246.995 52.0983 253.868 46.5 259Z" fill="#11A851"/>
<path d="M29.0436 181.84C28.4907 177.638 31.7615 173.908 36 173.908C40.2385 173.908 43.5093 177.638 42.9564 181.84L39 211.908H33L29.0436 181.84Z" fill="#E6201E"/>
<path d="M5.93164 218.865C1.72933 219.418 -2 216.147 -2 211.908C-2 207.67 1.72932 204.399 5.93163 204.952L36 208.908L36 214.908L5.93164 218.865Z" fill="#E6201E"/>
<path d="M42.9564 241.977C43.5093 246.179 40.2385 249.908 36 249.908C31.7615 249.908 28.4907 246.179 29.0436 241.977L33 211.908L39 211.908L42.9564 241.977Z" fill="#E6201E"/>
<path d="M66.0684 204.952C70.2707 204.399 74 207.67 74 211.908C74 216.147 70.2707 219.418 66.0684 218.865L36 214.908L36 208.908L66.0684 204.952Z" fill="#E6201E"/>
<path d="M14.9414 189.347C12.3614 185.984 13.3293 181.119 17 179C20.6707 176.881 25.3679 178.475 26.9902 182.391L38.5981 210.409L33.4019 213.409L14.9414 189.347Z" fill="#E6201E"/>
<path d="M13.438 232.968C10.0752 235.548 5.21009 234.58 3.09082 230.91C0.971552 227.239 2.56585 222.542 6.48163 220.919L34.4998 209.312L37.4998 214.508L13.438 232.968Z" fill="#E6201E"/>
<path d="M57.0586 234.471C59.6386 237.834 58.6707 242.699 55 244.818C51.3293 246.938 46.6321 245.343 45.0098 241.428L33.4019 213.409L38.5981 210.409L57.0586 234.471Z" fill="#E6201E"/>
<path d="M58.5615 190.85C61.9244 188.27 66.7894 189.238 68.9087 192.909C71.028 196.579 69.4337 201.277 65.5179 202.899L37.4997 214.507L34.4997 209.311L58.5615 190.85Z" fill="#E6201E"/>
<path d="M6.48164 202.9C2.56586 201.278 0.971552 196.58 3.09082 192.91C5.21009 189.239 10.0752 188.271 13.438 190.851L37.4998 209.312L34.4998 214.508L6.48164 202.9Z" fill="#E6201E"/>
<path d="M26.9902 241.428C25.3679 245.343 20.6707 246.938 17 244.818C13.3293 242.699 12.3614 237.834 14.9414 234.471L33.4019 210.409L38.5981 213.409L26.9902 241.428Z" fill="#E6201E"/>
<path d="M65.5179 220.918C69.4337 222.541 71.028 227.238 68.9087 230.909C66.7894 234.579 61.9244 235.547 58.5615 232.967L34.4997 214.507L37.4997 209.311L65.5179 220.918Z" fill="#E6201E"/>
<path d="M45.0098 182.391C46.6321 178.475 51.3293 176.881 55 179C58.6707 181.119 59.6386 185.984 57.0586 189.347L38.5981 213.409L33.4019 210.409L45.0098 182.391Z" fill="#E6201E"/>
<circle cx="36" cy="211.908" r="10" fill="#11A851"/>
<path d="M318.953 154.84C318.4 150.638 321.671 146.908 325.909 146.908C330.148 146.908 333.418 150.638 332.866 154.84L328.909 184.908H322.909L318.953 154.84Z" fill="#FFB728"/>
<path d="M295.841 191.865C291.639 192.418 287.909 189.147 287.909 184.908C287.909 180.67 291.638 177.399 295.841 177.952L325.909 181.908L325.909 187.908L295.841 191.865Z" fill="#FFB728"/>
<path d="M332.866 214.977C333.418 219.179 330.148 222.908 325.909 222.908C321.671 222.908 318.4 219.179 318.953 214.977L322.909 184.908L328.909 184.908L332.866 214.977Z" fill="#FFB728"/>
<path d="M355.978 177.952C360.18 177.399 363.909 180.67 363.909 184.908C363.909 189.147 360.18 192.418 355.978 191.865L325.909 187.908L325.909 181.908L355.978 177.952Z" fill="#FFB728"/>
<path d="M304.851 162.347C302.271 158.984 303.238 154.119 306.909 152C310.58 149.881 315.277 151.475 316.899 155.391L328.507 183.409L323.311 186.409L304.851 162.347Z" fill="#FFB728"/>
<path d="M303.347 205.968C299.984 208.548 295.119 207.58 293 203.91C290.881 200.239 292.475 195.542 296.391 193.919L324.409 182.312L327.409 187.508L303.347 205.968Z" fill="#FFB728"/>
<path d="M346.968 207.471C349.548 210.834 348.58 215.699 344.909 217.818C341.239 219.938 336.541 218.343 334.919 214.428L323.311 186.409L328.507 183.409L346.968 207.471Z" fill="#FFB728"/>
<path d="M348.471 163.85C351.834 161.27 356.699 162.238 358.818 165.909C360.937 169.579 359.343 174.277 355.427 175.899L327.409 187.507L324.409 182.311L348.471 163.85Z" fill="#FFB728"/>
<path d="M296.391 175.9C292.475 174.278 290.881 169.58 293 165.91C295.119 162.239 299.984 161.271 303.347 163.851L327.409 182.312L324.409 187.508L296.391 175.9Z" fill="#FFB728"/>
<path d="M316.899 214.428C315.277 218.343 310.58 219.938 306.909 217.818C303.239 215.699 302.271 210.834 304.851 207.471L323.311 183.409L328.507 186.409L316.899 214.428Z" fill="#FFB728"/>
<path d="M355.427 193.918C359.343 195.541 360.937 200.238 358.818 203.909C356.699 207.579 351.834 208.547 348.471 205.967L324.409 187.507L327.409 182.311L355.427 193.918Z" fill="#FFB728"/>
<path d="M334.919 155.391C336.541 151.475 341.238 149.881 344.909 152C348.58 154.119 349.548 158.984 346.968 162.347L328.507 186.409L323.311 183.409L334.919 155.391Z" fill="#FFB728"/>
<circle cx="325.909" cy="184.908" r="10" fill="#11A851"/>
<path d="M123.5 265.5C123.5 267.985 125.515 270 128 270C130.485 270 132.5 267.985 132.5 265.5H123.5ZM132.5 265.5V197.75H123.5V265.5H132.5ZM100 197.75V239H109V197.75H100ZM113.5 252.5H118.5V243.5H113.5V252.5ZM118.5 252.5C121.261 252.5 123.5 254.739 123.5 257.5H132.5C132.5 249.768 126.232 243.5 118.5 243.5V252.5ZM100 239C100 246.456 106.044 252.5 113.5 252.5V243.5C111.015 243.5 109 241.485 109 239H100ZM116.25 181.5C107.275 181.5 100 188.775 100 197.75H109C109 193.746 112.246 190.5 116.25 190.5V181.5ZM132.5 197.75C132.5 188.775 125.225 181.5 116.25 181.5V190.5C120.254 190.5 123.5 193.746 123.5 197.75H132.5Z" fill="#362F2F"/>
<path d="M143.5 265.5C143.5 267.985 141.485 270 139 270C136.515 270 134.5 267.985 134.5 265.5H143.5ZM134.5 265.5V197.75H143.5V265.5H134.5ZM167 197.75V239H158V197.75H167ZM153.5 252.5H148.5V243.5H153.5V252.5ZM148.5 252.5C145.739 252.5 143.5 254.739 143.5 257.5H134.5C134.5 249.768 140.768 243.5 148.5 243.5V252.5ZM167 239C167 246.456 160.956 252.5 153.5 252.5V243.5C155.985 243.5 158 241.485 158 239H167ZM150.75 181.5C159.725 181.5 167 188.775 167 197.75H158C158 193.746 154.754 190.5 150.75 190.5V181.5ZM134.5 197.75C134.5 188.775 141.775 181.5 150.75 181.5V190.5C146.746 190.5 143.5 193.746 143.5 197.75H134.5Z" fill="#362F2F"/>
<path d="M197 166C197 162.134 200.134 159 204 159C207.866 159 211 162.134 211 166V268H197V166Z" fill="#11A851"/>
<path d="M197 268H211L208 310H200L197 268Z" fill="#D1E4C7"/>
<path d="M211 229V178C214 178 216 182.5 216 187V229V244H212L214 229H211Z" fill="#0B7337"/>
<path d="M222 196.017L223 194.009L229 192L236 196.017V310H222V196.017Z" fill="#FFB728"/>
<path d="M231 180H227L229 173L231 180Z" fill="#FFB728"/>
<path d="M227 180H231L236 196C236 196 234 194.5 231.5 194.5C229 194.5 227 196 227 196C227 196 226.5 195 224.5 195C222.5 195 222 196 222 196L227 180Z" fill="#D1E4C7"/>
<path d="M243 166L244 164L250 162L257 166V310H243V166Z" fill="#E6201E"/>
<path d="M252 150H248L250 143L252 150Z" fill="#E6201E"/>
<path d="M248 150H252L257 166C257 166 255 164.5 252.5 164.5C250 164.5 248 166 248 166C248 166 247.5 165 245.5 165C243.5 165 243 166 243 166L248 150Z" fill="#D1E4C7"/>
</g>
<defs>
<clipPath id="clip0_4628_23115">
<rect width="360" height="360" rx="8" fill="white"/>
</clipPath>
</defs>
</svg>
