<svg width="360" height="360" viewBox="0 0 360 360" fill="none" xmlns="http://www.w3.org/2000/svg">
<g clip-path="url(#clip0_30730_104472)">
<rect width="360" height="360" rx="8" fill="#2563EB"/>
<path d="M339 -22C277 14 242.4 43.4 228 73C210 110 253.001 129 287.001 123C321.001 117 335 94 315 79C295 64 245.001 88 220.001 133C195.001 178 204 286 162 318C124.302 346.723 42.0005 348 34.0005 286C24.1858 209.936 167 163 269.001 276C317.328 329.539 326 359 387 366" stroke="#873A81" stroke-width="3" stroke-linecap="round" stroke-dasharray="4 6"/>
<g filter="url(#filter0_d_30730_104472)">
<mask id="path-3-inside-1_30730_104472" fill="white">
<path d="M205 131C211.627 131 217 136.373 217 143C217 136.373 222.373 131 229 131H318C324.627 131 330 136.373 330 143V278C330 284.627 324.627 290 318 290H229C222.373 290 217 284.627 217 278C217 284.627 211.627 290 205 290H-43C-49.6274 290 -55 284.627 -55 278V143C-55 136.373 -49.6274 131 -43 131H205Z"/>
</mask>
<path d="M205 131C211.627 131 217 136.373 217 143C217 136.373 222.373 131 229 131H318C324.627 131 330 136.373 330 143V278C330 284.627 324.627 290 318 290H229C222.373 290 217 284.627 217 278C217 284.627 211.627 290 205 290H-43C-49.6274 290 -55 284.627 -55 278V143C-55 136.373 -49.6274 131 -43 131H205Z" fill="#FFEFC5"/>
<path d="M330 143H331V143H330ZM330 278H331H330ZM205 290V291V291V290ZM-55 278H-56V278H-55ZM-55 143H-56V143H-55ZM-43 131V130V130V131ZM205 131V132C211.075 132 216 136.925 216 143H217H218C218 135.82 212.18 130 205 130V131ZM217 143H218C218 136.925 222.925 132 229 132V131V130C221.82 130 216 135.82 216 143H217ZM229 131V132H318V131V130H229V131ZM318 131V132C324.075 132 329 136.925 329 143H330H331C331 135.82 325.18 130 318 130V131ZM330 143H329V278H330H331V143H330ZM330 278H329C329 284.075 324.075 289 318 289V290V291C325.18 291 331 285.18 331 278H330ZM318 290V289H229V290V291H318V290ZM229 290V289C222.925 289 218 284.075 218 278H217H216C216 285.18 221.82 291 229 291V290ZM217 278H216C216 284.075 211.075 289 205 289V290V291C212.18 291 218 285.18 218 278H217ZM205 290V289H-43V290V291H205V290ZM-43 290V289C-49.0751 289 -54 284.075 -54 278H-55H-56C-56 285.18 -50.1797 291 -43 291V290ZM-55 278H-54V143H-55H-56V278H-55ZM-55 143H-54C-54 136.925 -49.0751 132 -43 132V131V130C-50.1797 130 -56 135.82 -56 143H-55ZM-43 131V132H205V131V130H-43V131Z" fill="#FEF08A" mask="url(#path-3-inside-1_30730_104472)"/>
</g>
<mask id="path-5-inside-2_30730_104472" fill="white">
<path d="M205 131C211.627 131 217 136.373 217 143L217.004 142.69C217.168 136.206 222.476 131 229 131H318C324.627 131 330 136.373 330 143V165H-55V143C-55 136.373 -49.6274 131 -43 131H205Z"/>
</mask>
<path d="M205 131C211.627 131 217 136.373 217 143L217.004 142.69C217.168 136.206 222.476 131 229 131H318C324.627 131 330 136.373 330 143V165H-55V143C-55 136.373 -49.6274 131 -43 131H205Z" fill="#FDE047"/>
<path d="M217 143H216L218 143.013L217 143ZM217.004 142.69L216.004 142.665L216.004 142.678L217.004 142.69ZM330 143H331V143H330ZM330 165V166H331V165H330ZM-55 165H-56V166H-55V165ZM-43 131V130V130V131ZM205 131V132C211.075 132 216 136.925 216 143H217H218C218 135.82 212.18 130 205 130V131ZM217 143L218 143.013L218.004 142.703L217.004 142.69L216.004 142.678L216 142.987L217 143ZM217.004 142.69L218.004 142.716C218.154 136.772 223.02 132 229 132V131V130C221.932 130 216.182 135.64 216.004 142.665L217.004 142.69ZM229 131V132H318V131V130H229V131ZM318 131V132C324.075 132 329 136.925 329 143H330H331C331 135.82 325.18 130 318 130V131ZM330 143H329V165H330H331V143H330ZM330 165V164H-55V165V166H330V165ZM-55 165H-54V143H-55H-56V165H-55ZM-55 143H-54C-54 136.925 -49.0751 132 -43 132V131V130C-50.1797 130 -56 135.82 -56 143H-55ZM-43 131V132H205V131V130H-43V131Z" fill="#FEF08A" mask="url(#path-5-inside-2_30730_104472)"/>
<mask id="path-7-inside-3_30730_104472" fill="white">
<path d="M205 290C211.627 290 217 284.627 217 278L217.004 278.31C217.168 284.794 222.476 290 229 290H318C324.627 290 330 284.627 330 278V256H-55V278C-55 284.627 -49.6274 290 -43 290H205Z"/>
</mask>
<path d="M205 290C211.627 290 217 284.627 217 278L217.004 278.31C217.168 284.794 222.476 290 229 290H318C324.627 290 330 284.627 330 278V256H-55V278C-55 284.627 -49.6274 290 -43 290H205Z" fill="#FDE047"/>
<path d="M217 278H216L218 277.987L217 278ZM217.004 278.31L216.004 278.335L216.004 278.322L217.004 278.31ZM330 278H331V278H330ZM330 256V255H331V256H330ZM-55 256H-56V255H-55V256ZM-43 290V291V291V290ZM205 290V289C211.075 289 216 284.075 216 278H217H218C218 285.18 212.18 291 205 291V290ZM217 278L218 277.987L218.004 278.297L217.004 278.31L216.004 278.322L216 278.013L217 278ZM217.004 278.31L218.004 278.284C218.154 284.228 223.02 289 229 289V290V291C221.932 291 216.182 285.36 216.004 278.335L217.004 278.31ZM229 290V289H318V290V291H229V290ZM318 290V289C324.075 289 329 284.075 329 278H330H331C331 285.18 325.18 291 318 291V290ZM330 278H329V256H330H331V278H330ZM330 256V257H-55V256V255H330V256ZM-55 256H-54V278H-55H-56V256H-55ZM-55 278H-54C-54 284.075 -49.0751 289 -43 289V290V291C-50.1797 291 -56 285.18 -56 278H-55ZM-43 290V289H205V290V291H-43V290Z" fill="#FEF08A" mask="url(#path-7-inside-3_30730_104472)"/>
<line x1="217" y1="143" x2="217" y2="279" stroke="#FEF08A" stroke-width="2" stroke-dasharray="4 3"/>
<path d="M125.494 177.833C125.921 177.845 126.271 177.995 126.569 178.293L153.849 205.572H154.057L170.173 205.527C171.594 205.555 173.925 206.236 177.219 207.644C178.851 208.341 180.044 208.989 180.823 209.585C181.626 210.199 181.875 210.669 181.879 210.986C181.883 211.297 181.648 211.764 180.849 212.381C180.074 212.979 178.879 213.633 177.24 214.338C173.931 215.76 171.601 216.414 170.192 216.387H170.181L154.054 216.432H153.848L153.702 216.578L126.569 243.711C126.277 244.003 125.927 244.148 125.485 244.148C125.044 244.148 124.693 244.003 124.401 243.711L121.526 240.836C121.234 240.544 121.089 240.193 121.089 239.752C121.089 239.311 121.234 238.96 121.526 238.668L121.572 238.622L121.605 238.565L134.004 217.183L134.44 216.43L133.57 216.432L108.01 216.477H107.803L107.657 216.623L102.626 221.654C102.606 221.674 102.595 221.677 102.592 221.678C102.586 221.679 102.564 221.684 102.516 221.675C102.413 221.654 102.28 221.59 102.12 221.43L100.683 219.992C100.522 219.832 100.458 219.699 100.438 219.596C100.428 219.548 100.433 219.526 100.435 219.521C100.436 219.517 100.438 219.506 100.458 219.486L100.526 219.418L100.564 219.328L104.023 211.197L104.106 211.002L104.023 210.806L100.564 202.675L100.526 202.586L100.458 202.518L100.435 202.483C100.433 202.478 100.428 202.456 100.438 202.407C100.458 202.304 100.523 202.172 100.683 202.012L102.12 200.574C102.28 200.414 102.413 200.35 102.516 200.329C102.564 200.319 102.586 200.325 102.592 200.326C102.595 200.327 102.606 200.33 102.626 200.35L107.894 205.617H108.102L133.572 205.572L134.438 205.57L134.004 204.821L121.605 183.438L121.572 183.382L121.526 183.336L121.424 183.224C121.2 182.955 121.089 182.638 121.089 182.252C121.089 181.811 121.234 181.46 121.526 181.168L124.401 178.293C124.731 177.963 125.088 177.822 125.494 177.833Z" fill="#E31B23" fill-opacity="0.5" stroke="#FEF08A"/>
<rect x="232.5" y="206.5" width="83" height="38" rx="7.5" fill="white" stroke="#FEF08A"/>
<path d="M242.998 214.5V236.929H242.5V214.5H242.998Z" fill="#595959" stroke="#FEF08A"/>
<path d="M247.083 214.5V236.929H245.587V214.5H247.083Z" fill="#595959" stroke="#FEF08A"/>
<path d="M250.669 214.5V236.889H249.173V214.5H250.669Z" fill="#595959" stroke="#FEF08A"/>
<path d="M253.633 214.5V236.889H253.384V214.5H253.633Z" fill="#595959" stroke="#FEF08A"/>
<path d="M257.718 214.5V236.889H256.471V214.5H257.718Z" fill="#595959" stroke="#FEF08A"/>
<path d="M261.805 214.5V236.889H259.559V214.5H261.805Z" fill="#595959" stroke="#FEF08A"/>
<mask id="path-18-inside-4_30730_104472" fill="white">
<path d="M264.641 214H263.893V237.388H264.641V214Z"/>
</mask>
<path d="M264.641 214H263.893V237.388H264.641V214Z" fill="#595959"/>
<path d="M263.893 214V213H262.893V214H263.893ZM264.641 214H265.641V213H264.641V214ZM264.641 237.388V238.388H265.641V237.388H264.641ZM263.893 237.388H262.893V238.388H263.893V237.388ZM263.893 214V215H264.641V214V213H263.893V214ZM264.641 214H263.641V237.388H264.641H265.641V214H264.641ZM264.641 237.388V236.388H263.893V237.388V238.388H264.641V237.388ZM263.893 237.388H264.893V214H263.893H262.893V237.388H263.893Z" fill="#FEF08A" mask="url(#path-18-inside-4_30730_104472)"/>
<path d="M268.103 214.5V236.889H267.604V214.5H268.103Z" fill="#595959" stroke="#FEF08A"/>
<path d="M272.188 214.5V236.889H270.691V214.5H272.188Z" fill="#595959" stroke="#FEF08A"/>
<path d="M276.024 214.5V236.889H274.028V214.5H276.024Z" fill="#595959" stroke="#FEF08A"/>
<path d="M278.861 214.5V236.889H278.363V214.5H278.861Z" fill="#595959" stroke="#FEF08A"/>
<path d="M282.821 214.5V236.889H281.575V214.5H282.821Z" fill="#595959" stroke="#FEF08A"/>
<path d="M285.91 214.5V236.889H285.661V214.5H285.91Z" fill="#595959" stroke="#FEF08A"/>
<path d="M289.995 214.5V236.889H288.748V214.5H289.995Z" fill="#595959" stroke="#FEF08A"/>
<path d="M292.926 214.5V236.889H291.66V214.5H292.926Z" fill="#595959" stroke="#FEF08A"/>
<mask id="path-28-inside-5_30730_104472" fill="white">
<path d="M296.673 214H295.701V237.388H296.673V214Z"/>
</mask>
<path d="M296.673 214H295.701V237.388H296.673V214Z" fill="#595959"/>
<path d="M295.701 214V213H294.701V214H295.701ZM296.673 214H297.673V213H296.673V214ZM296.673 237.388V238.388H297.673V237.388H296.673ZM295.701 237.388H294.701V238.388H295.701V237.388ZM295.701 214V215H296.673V214V213H295.701V214ZM296.673 214H295.673V237.388H296.673H297.673V214H296.673ZM296.673 237.388V236.388H295.701V237.388V238.388H296.673V237.388ZM295.701 237.388H296.701V214H295.701H294.701V237.388H295.701Z" fill="#FEF08A" mask="url(#path-28-inside-5_30730_104472)"/>
<mask id="path-30-inside-6_30730_104472" fill="white">
<path d="M298.525 214H297.985V237.428H298.525V214Z"/>
</mask>
<path d="M298.525 214H297.985V237.428H298.525V214Z" fill="#595959"/>
<path d="M297.985 214V213H296.985V214H297.985ZM298.525 214H299.525V213H298.525V214ZM298.525 237.428V238.428H299.525V237.428H298.525ZM297.985 237.428H296.985V238.428H297.985V237.428ZM297.985 214V215H298.525V214V213H297.985V214ZM298.525 214H297.525V237.428H298.525H299.525V214H298.525ZM298.525 237.428V236.428H297.985V237.428V238.428H298.525V237.428ZM297.985 237.428H298.985V214H297.985H296.985V237.428H297.985Z" fill="#FEF08A" mask="url(#path-30-inside-6_30730_104472)"/>
<path d="M300.783 214.5V236.929H299.86V214.5H300.783Z" fill="#595959" stroke="#FEF08A"/>
<mask id="path-33-inside-7_30730_104472" fill="white">
<path d="M302.875 214H301.903V237.428H302.875V214Z"/>
</mask>
<path d="M302.875 214H301.903V237.428H302.875V214Z" fill="#595959"/>
<path d="M301.903 214V213H300.903V214H301.903ZM302.875 214H303.875V213H302.875V214ZM302.875 237.428V238.428H303.875V237.428H302.875ZM301.903 237.428H300.903V238.428H301.903V237.428ZM301.903 214V215H302.875V214V213H301.903V214ZM302.875 214H301.875V237.428H302.875H303.875V214H302.875ZM302.875 237.428V236.428H301.903V237.428V238.428H302.875V237.428ZM301.903 237.428H302.903V214H301.903H300.903V237.428H301.903Z" fill="#FEF08A" mask="url(#path-33-inside-7_30730_104472)"/>
<path d="M306.188 214.5V236.889H304.192V214.5H306.188Z" fill="#595959" stroke="#FEF08A"/>
<mask id="path-36-inside-8_30730_104472" fill="white">
<path d="M295.114 214H294.451V237.388H295.114V214Z"/>
</mask>
<path d="M295.114 214H294.451V237.388H295.114V214Z" fill="#595959"/>
<path d="M294.451 214V213H293.451V214H294.451ZM295.114 214H296.114V213H295.114V214ZM295.114 237.388V238.388H296.114V237.388H295.114ZM294.451 237.388H293.451V238.388H294.451V237.388ZM294.451 214V215H295.114V214V213H294.451V214ZM295.114 214H294.114V237.388H295.114H296.114V214H295.114ZM295.114 237.388V236.388H294.451V237.388V238.388H295.114V237.388ZM294.451 237.388H295.451V214H294.451H293.451V237.388H294.451Z" fill="#FEF08A" mask="url(#path-36-inside-8_30730_104472)"/>
<path d="M266.052 214.5V236.889H265.554V214.5H266.052Z" fill="#595959" stroke="#FEF08A"/>
<mask id="path-39-inside-9_30730_104472" fill="white">
<path d="M244.742 214H244.05V237.428H244.742V214Z"/>
</mask>
<path d="M244.742 214H244.05V237.428H244.742V214Z" fill="#595959"/>
<path d="M244.05 214V213H243.05V214H244.05ZM244.742 214H245.742V213H244.742V214ZM244.742 237.428V238.428H245.742V237.428H244.742ZM244.05 237.428H243.05V238.428H244.05V237.428ZM244.05 214V215H244.742V214V213H244.05V214ZM244.742 214H243.742V237.428H244.742H245.742V214H244.742ZM244.742 237.428V236.428H244.05V237.428V238.428H244.742V237.428ZM244.05 237.428H245.05V214H244.05H243.05V237.428H244.05Z" fill="#FEF08A" mask="url(#path-39-inside-9_30730_104472)"/>
<rect x="232.5" y="179.5" width="55" height="15" rx="7.5" fill="#EEDCAE" stroke="#FEF08A"/>
<rect x="-32.5" y="179.5" width="82" height="15" rx="7.5" fill="#EEDCAE" stroke="#FEF08A"/>
<rect x="293.5" y="179.5" width="22" height="15" rx="7.5" fill="#EEDCAE" stroke="#FEF08A"/>
<rect x="-32.5" y="203.5" width="81" height="2" rx="1" fill="#D0BD89" stroke="#FEF08A"/>
<rect x="-32.5" y="210.5" width="71" height="2" rx="1" fill="#D0BD89" stroke="#FEF08A"/>
<rect x="-32.5" y="217.5" width="55" height="2" rx="1" fill="#D0BD89" stroke="#FEF08A"/>
<rect x="-32.5" y="224.5" width="123" height="2" rx="1" fill="#D0BD89" stroke="#FEF08A"/>
<rect x="-32.5" y="231.5" width="71" height="2" rx="1" fill="#D0BD89" stroke="#FEF08A"/>
<rect x="-32.5" y="238.5" width="93" height="2" rx="1" fill="#D0BD89" stroke="#FEF08A"/>
<g filter="url(#filter1_d_30730_104472)">
<rect x="148" y="228" width="159" height="102" rx="12" fill="#E7EFF4"/>
</g>
<mask id="mask0_30730_104472" style="mask-type:alpha" maskUnits="userSpaceOnUse" x="148" y="228" width="159" height="102">
<rect x="148" y="228" width="159" height="102" rx="12" fill="#E7EFF4"/>
</mask>
<g mask="url(#mask0_30730_104472)">
<path d="M220.154 268.669L148 330H306.5L235.783 268.742C231.306 264.863 224.668 264.832 220.154 268.669Z" fill="#D7DEE2"/>
<path d="M220.154 289.831L148 228.5H306.5L235.783 289.758C231.306 293.637 224.668 293.668 220.154 289.831Z" fill="#F5FBFF"/>
</g>
<g filter="url(#filter2_d_30730_104472)">
<circle cx="299" cy="236" r="16" fill="#E31B23"/>
</g>
<circle cx="299" cy="236" r="6" fill="white"/>
<path d="M50.8401 72.2737L90.7433 58.2909V51.9498L50.8401 37.4792V46.0965L77.3345 55.3642L50.8401 64.1441V72.2737V72.2737ZM40.3393 33.7396L30 30V38.9425L40.3393 42.5195V33.7396ZM40.3393 67.5586L30 70.973V79.5903L40.3393 76.0133V67.5586Z" fill="#E31B23"/>
<path d="M67.1554 98.1257V87.5573C67.1554 84.7933 66.5092 82.8422 65.3783 81.704C64.2475 80.5659 62.1473 80.0781 59.401 80.0781C56.8161 80.0781 54.716 80.5659 52.9389 81.5414C51.1618 82.517 50.1925 83.6551 50.1925 85.1184C50.1925 85.7688 50.3541 86.094 50.6772 86.4192C51.0003 86.7444 51.4849 86.907 52.2927 86.907H56.3315V83.0048C56.6546 83.0048 56.9777 82.8422 57.1392 82.8422C58.9163 82.6796 60.0472 83.0048 60.8549 83.6551C61.5011 84.3055 61.6627 85.281 61.6627 86.7444V87.7199C56.3315 88.8581 53.1004 89.9962 51.6465 91.1343C50.1925 92.2725 49.3848 93.7358 49.3848 95.6869C49.3848 97.3128 49.8694 98.6135 51.0003 99.7517C51.9696 100.727 53.4235 101.378 55.0391 101.378C56.1699 101.378 57.1392 101.215 58.4316 100.727C59.5625 100.402 60.6934 99.7517 61.9858 98.7761L62.4704 101.052H70.0633V98.7761L67.6401 98.6135L67.1554 98.1257ZM56.493 92.2725C57.4623 91.6221 59.0778 90.9717 61.6627 90.484V96.825C60.8549 97.1502 60.2087 97.4754 59.5625 97.638C57.7854 98.1257 56.6546 97.9632 55.8468 97.1502C55.3622 96.6624 55.0391 96.0121 55.0391 95.0365C55.2006 93.7358 55.6853 92.9228 56.493 92.2725Z" fill="white"/>
<path d="M85.0882 82.0278C84.442 81.7026 83.9573 81.3774 83.3111 81.0522C82.6649 80.727 82.0187 80.5644 81.3725 80.4018C80.7263 80.2392 80.0801 80.2392 79.5954 80.0767C79.1108 80.0767 78.6261 79.9141 78.1415 79.9141C77.1722 79.9141 76.2028 79.9141 75.072 80.0767C73.9411 80.2392 72.8103 80.4018 71.5179 80.8896H71.3563V86.7429H74.2642L74.7489 83.4911L75.2335 83.1659C75.5566 83.0033 75.8797 82.8407 76.3644 82.6781C76.849 82.5155 77.4953 82.5155 78.1415 82.5155C78.9492 82.5155 79.5954 82.6781 80.0801 82.8407C80.5647 83.0033 81.0494 83.3285 81.534 83.6537C81.8571 83.9788 82.1802 84.304 82.5034 84.7918C82.8265 85.2796 82.988 85.6048 83.1496 86.0925C83.3111 86.5803 83.4727 87.0681 83.4727 87.5558C83.4727 88.0436 83.6342 88.5314 83.6342 88.8566H75.8797V91.6206H83.6342C83.6342 92.9214 83.4727 94.2221 83.1496 95.0351C82.8265 95.848 82.5033 96.661 81.8571 97.1487C81.3725 97.6365 80.7263 97.9617 80.2416 98.2869C79.2723 98.6121 78.6261 98.6121 77.9799 98.6121C77.6568 98.6121 77.3337 98.6121 76.6875 98.4495C76.2028 98.4495 75.5566 98.1243 74.7489 97.7991L74.4258 97.4739L73.9411 93.8969H71.0332V100.401H71.1948C72.6487 100.726 73.9411 101.051 75.072 101.214C76.2028 101.376 77.1722 101.376 77.8184 101.376C79.2723 101.376 80.7263 101.214 82.1802 100.726C83.6342 100.238 84.7651 99.5876 85.8959 98.7746C87.0268 97.9617 87.8345 96.8236 88.4807 95.5228C89.127 94.2221 89.4501 92.5962 89.4501 90.8077C89.4501 88.5314 88.9654 86.7429 88.1576 85.4422C87.3499 83.9788 86.219 82.8407 85.0882 82.0278Z" fill="white"/>
<path d="M105.767 80.0781C104.798 80.0781 103.829 80.2407 102.698 80.7285C101.728 81.0537 100.759 81.704 99.4667 82.517V80.2407H97.3665L91.2275 82.1918V84.1429H93.9739V106.906L93.4893 107.393L91.2275 107.556V109.995H102.536V107.719L99.9513 107.556L99.4667 107.068V100.89C99.9513 100.89 100.436 101.052 100.921 101.052C101.405 101.052 102.051 101.052 102.536 101.052C105.929 101.052 108.514 100.077 110.614 98.1257C112.552 96.1746 113.522 93.4106 113.522 90.1588C113.522 87.3947 112.714 84.9559 111.26 83.1674C109.806 81.0537 108.029 80.0781 105.767 80.0781ZM107.544 90.6466C107.544 92.9228 107.06 94.8739 105.929 96.3372C104.959 97.638 103.505 98.4509 101.728 98.4509C101.244 98.4509 100.921 98.4509 100.436 98.4509C100.113 98.4509 99.6282 98.2883 99.3051 98.2883V84.9559C99.9513 84.7933 100.436 84.4681 100.921 84.4681C101.405 84.3055 101.89 84.3055 102.375 84.3055C103.99 84.3055 105.283 84.9559 106.09 86.094C107.221 86.907 107.544 88.5329 107.544 90.6466Z" fill="white"/>
<path d="M127.091 80.0781C123.86 80.0781 121.275 81.0537 119.337 83.0048C117.398 84.9559 116.429 87.5573 116.429 90.8091C116.429 93.8984 117.398 96.4998 119.337 98.4509C121.275 100.402 123.86 101.378 126.93 101.378C130.161 101.378 132.745 100.402 134.684 98.4509C136.623 96.4998 137.592 94.061 137.592 90.9717C137.592 87.7199 136.623 85.1185 134.846 83.1674C132.745 81.0537 130.161 80.0781 127.091 80.0781ZM130.161 96.6624C129.353 97.9632 128.222 98.6135 126.768 98.6135C125.314 98.6135 124.345 97.9632 123.537 96.4998C122.729 95.0365 122.245 93.0854 122.245 90.484C122.245 87.8825 122.729 85.9314 123.537 84.6307C124.345 83.33 125.476 82.6796 126.768 82.6796C128.222 82.6796 129.353 83.33 130.161 84.7933C130.968 86.2566 131.453 88.2077 131.453 90.8091C131.453 93.248 130.968 95.3617 130.161 96.6624Z" fill="white"/>
<path d="M158.755 97.9627L156.332 93.2475C156.17 92.9223 155.847 92.5972 155.686 92.272C155.363 91.9468 155.201 91.6216 154.717 91.2964C154.232 90.8087 153.424 90.3209 152.778 90.1583C153.101 89.9957 153.424 89.6705 153.747 89.3453C154.07 89.0202 154.232 88.5324 154.393 88.2072L155.524 85.4432C155.686 85.2806 155.686 84.9554 155.847 84.7928C155.847 84.6302 156.009 84.6302 156.009 84.4676L158.432 86.0935C159.24 85.9309 159.886 85.6057 160.371 85.118C160.694 84.6302 161.017 83.9798 161.017 83.3295C161.017 82.6791 160.855 82.0287 160.694 81.7036C160.371 81.3784 160.209 81.0532 159.725 80.728C159.402 80.5654 158.917 80.4028 158.594 80.4028C158.271 80.4028 157.948 80.2402 157.624 80.2402C157.14 80.2402 156.655 80.4028 156.17 80.5654C155.686 80.728 155.363 81.0532 154.878 81.3784C154.555 81.7036 154.232 82.1913 153.909 82.6791C153.586 83.1669 153.263 83.6546 153.101 84.305L151.809 87.2317C151.647 87.7194 151.324 88.2072 151.001 88.5324C150.678 88.8576 150.193 89.0202 149.547 89.0202H147.447V83.4921L147.931 83.0043L150.193 82.8417V80.5654H139.369V82.8417L141.631 83.0043L142.116 83.4921V97.9627L141.631 98.4505L139.369 98.613V100.889H150.193V98.613L148.093 98.4505L147.608 97.9627V91.6216H148.578C149.224 91.6216 149.708 91.7842 150.193 92.1094C150.678 92.4346 151.001 92.9223 151.162 93.2475L153.586 99.2634V100.727H161.825V98.4505H159.402L158.755 97.9627Z" fill="white"/>
<path d="M166.833 82.8422L169.58 83.0048L170.064 83.4926C170.064 84.7933 169.903 86.094 169.741 87.3948C169.58 88.6955 169.418 89.9962 169.095 91.2969C168.772 92.5977 168.61 93.7358 168.126 94.8739C167.803 95.8495 167.479 96.6625 166.995 97.4754L164.733 95.3617H164.572C163.925 95.3617 163.602 95.5243 163.118 95.8495C162.795 96.0121 162.471 96.3373 162.31 96.6625C162.148 96.9876 161.987 97.3128 161.987 97.638C161.987 97.9632 161.825 98.2884 161.825 98.451C161.825 99.2639 161.987 100.077 162.471 100.565C162.956 101.052 163.764 101.378 164.733 101.378C165.864 101.378 166.833 101.052 167.803 100.402C168.61 99.7517 169.418 98.9387 169.903 97.9632C170.549 96.9876 170.872 95.8495 171.357 94.5488C171.68 93.248 172.003 91.9473 172.165 90.6466C172.326 89.3458 172.488 88.0451 172.649 86.7444C172.811 85.6062 172.811 84.4681 172.811 83.4926H176.365V98.2884L175.88 98.7761H173.942V101.052H184.927V98.7761L182.665 98.6136L182.181 98.1258V83.6552L182.665 83.1674L184.927 83.0048V80.7285H166.833V82.8422Z" fill="white"/>
<path d="M199.628 82.8422L201.889 83.1674L202.212 83.6552L198.012 94.5488L193.812 83.6552L194.135 83.1674L196.235 82.8422V80.7285H185.411V82.8422L187.996 83.1674L195.104 101.215C194.62 102.353 194.135 103.329 193.65 104.142C193.166 104.955 192.681 105.442 192.196 105.93L188.642 103.491H188.481C187.834 103.816 187.188 104.304 186.865 104.792C186.542 105.28 186.219 105.93 186.219 106.581C186.219 107.393 186.542 108.206 187.35 108.857C187.996 109.507 188.965 109.832 189.935 109.832C191.389 109.832 192.842 109.182 194.135 107.719C195.427 106.418 196.72 104.467 197.689 102.191L205.443 83.1674L207.705 82.8422V80.7285H199.466V82.8422H199.628Z" fill="white"/>
<path d="M229.03 86.2562C228.384 84.9554 227.738 83.8173 226.769 83.0043C226.122 82.354 225.315 81.8662 224.184 81.3784C223.053 80.8907 221.76 80.5655 220.145 80.5655C218.529 80.5655 216.914 80.8907 215.46 81.7036C214.168 82.354 213.198 83.3295 212.39 84.4677C212.552 83.1669 212.714 82.0288 213.198 81.2158C213.683 80.2403 214.329 79.4273 214.975 78.9396C215.622 78.2892 216.429 77.964 217.237 77.6388C218.045 77.3137 219.014 77.1511 219.822 76.9885L223.053 76.5007C223.861 76.3381 224.507 76.1755 225.153 76.0129C225.799 75.6877 226.445 75.3626 227.092 74.8748C227.738 74.387 228.223 73.7366 228.546 72.9237C229.03 72.1107 229.192 71.1352 229.353 69.9971V69.6719H226.607V69.8345C226.445 70.3222 226.122 70.6474 225.476 70.81C225.153 70.9726 224.83 70.9726 224.507 70.9726C224.184 70.9726 223.861 71.1352 223.538 71.1352L220.306 71.4604C219.66 71.623 219.014 71.623 218.368 71.7856C217.722 71.9481 217.075 72.1107 216.429 72.4359C215.783 72.7611 215.137 73.0863 214.491 73.4115C213.844 73.8992 213.198 74.387 212.552 75.0374C211.906 75.8503 211.26 76.8259 210.775 77.964C210.29 79.1022 209.806 80.2403 209.483 81.541C209.159 82.8418 208.998 83.9799 208.836 85.2806C208.675 86.5814 208.675 87.7195 208.675 89.0202C208.675 89.8332 208.675 90.6461 208.836 91.4591C208.836 92.272 208.998 93.085 209.321 93.8979C209.483 94.7109 209.806 95.5239 210.29 96.3368C210.775 97.1498 211.26 97.8001 211.906 98.4505C212.552 99.1009 213.36 99.5886 214.652 100.239C215.783 100.727 217.237 101.052 219.176 101.052C220.307 101.052 221.599 100.889 222.891 100.564C224.184 100.239 225.315 99.7512 226.445 98.9383C226.93 98.6131 227.415 98.1253 227.899 97.475C228.384 96.9872 228.707 96.3368 229.03 95.6864C229.676 94.3857 230 92.5972 230 90.4835C230 89.0202 229.676 87.5569 229.03 86.2562ZM219.337 98.6131C218.206 98.6131 217.399 98.2879 216.914 97.8001C216.268 97.1498 215.783 96.4994 215.622 95.6864C215.298 94.8735 215.137 93.8979 215.137 93.085C215.137 92.272 214.975 91.4591 214.975 90.8087C214.975 89.3454 215.137 88.2073 215.298 87.3943C215.46 86.5813 215.783 85.931 216.106 85.2806C216.429 84.6303 216.914 84.1425 217.399 83.6547C217.883 83.1669 218.691 83.0043 219.499 83.0043C220.468 83.0043 221.114 83.1669 221.76 83.6547C222.407 84.1425 222.891 84.7928 223.214 85.4432C223.538 86.2562 223.861 87.0691 223.861 88.0447C224.022 89.0202 224.022 89.9958 224.022 90.8087C224.022 91.1339 224.022 91.2965 224.022 91.6217V92.7598C224.022 93.5728 223.861 94.3857 223.538 95.1987C223.214 96.0116 222.73 96.662 222.084 97.3124C221.276 98.4505 220.307 98.6131 219.337 98.6131Z" fill="white"/>
</g>
<defs>
<filter id="filter0_d_30730_104472" x="-75" y="121" width="425" height="199" filterUnits="userSpaceOnUse" color-interpolation-filters="sRGB">
<feFlood flood-opacity="0" result="BackgroundImageFix"/>
<feColorMatrix in="SourceAlpha" type="matrix" values="0 0 0 0 0 0 0 0 0 0 0 0 0 0 0 0 0 0 127 0" result="hardAlpha"/>
<feOffset dy="10"/>
<feGaussianBlur stdDeviation="10"/>
<feComposite in2="hardAlpha" operator="out"/>
<feColorMatrix type="matrix" values="0 0 0 0 0 0 0 0 0 0.227451 0 0 0 0 0.560784 0 0 0 1 0"/>
<feBlend mode="normal" in2="BackgroundImageFix" result="effect1_dropShadow_30730_104472"/>
<feBlend mode="normal" in="SourceGraphic" in2="effect1_dropShadow_30730_104472" result="shape"/>
</filter>
<filter id="filter1_d_30730_104472" x="128" y="218" width="199" height="142" filterUnits="userSpaceOnUse" color-interpolation-filters="sRGB">
<feFlood flood-opacity="0" result="BackgroundImageFix"/>
<feColorMatrix in="SourceAlpha" type="matrix" values="0 0 0 0 0 0 0 0 0 0 0 0 0 0 0 0 0 0 127 0" result="hardAlpha"/>
<feOffset dy="10"/>
<feGaussianBlur stdDeviation="10"/>
<feComposite in2="hardAlpha" operator="out"/>
<feColorMatrix type="matrix" values="0 0 0 0 0.00392157 0 0 0 0 0.12549 0 0 0 0 0.211765 0 0 0 0.2 0"/>
<feBlend mode="normal" in2="BackgroundImageFix" result="effect1_dropShadow_30730_104472"/>
<feBlend mode="normal" in="SourceGraphic" in2="effect1_dropShadow_30730_104472" result="shape"/>
</filter>
<filter id="filter2_d_30730_104472" x="263" y="210" width="72" height="72" filterUnits="userSpaceOnUse" color-interpolation-filters="sRGB">
<feFlood flood-opacity="0" result="BackgroundImageFix"/>
<feColorMatrix in="SourceAlpha" type="matrix" values="0 0 0 0 0 0 0 0 0 0 0 0 0 0 0 0 0 0 127 0" result="hardAlpha"/>
<feOffset dy="10"/>
<feGaussianBlur stdDeviation="10"/>
<feComposite in2="hardAlpha" operator="out"/>
<feColorMatrix type="matrix" values="0 0 0 0 0.00392157 0 0 0 0 0.12549 0 0 0 0 0.211765 0 0 0 0.2 0"/>
<feBlend mode="normal" in2="BackgroundImageFix" result="effect1_dropShadow_30730_104472"/>
<feBlend mode="normal" in="SourceGraphic" in2="effect1_dropShadow_30730_104472" result="shape"/>
</filter>
<clipPath id="clip0_30730_104472">
<rect width="360" height="360" rx="8" fill="white"/>
</clipPath>
</defs>
</svg>
