<svg width="360" height="360" viewBox="0 0 360 360" fill="none" xmlns="http://www.w3.org/2000/svg">
<g clip-path="url(#clip0_4661_24150)">
<rect width="360" height="360" rx="8" fill="#EEEEEE"/>
<path fill-rule="evenodd" clip-rule="evenodd" d="M165.251 35.9104C160.784 31.1104 154.519 30 149.872 30C143.703 30 138.695 32.3136 135.117 35.7376C133.325 37.4496 131.987 39.4208 130.912 41.2192C130.109 39.5936 128.768 37.28 127.335 35.9072C123.13 31.2864 117.853 30 113.296 30C100.416 30 97.4658 38.736 97.4658 38.736V59.0336C97.4658 55.8656 97.9138 52.1824 99.5234 49.184C101.133 46.1024 104.083 43.616 109.181 43.7024C114.099 43.7024 116.784 46.016 118.394 49.0976C119.824 52.0096 120.09 55.3504 120.09 58.4352V90.7232H134.49V58.4352C134.49 55.1808 134.669 52.0992 136.368 48.928C138.067 45.8432 141.2 43.616 146.115 43.616C150.858 43.616 153.629 45.5872 155.059 48.416C156.851 51.4112 157.203 55.3504 157.203 58.9472V90.6368H171.603V58.3488C171.514 46.272 170.528 41.5616 165.251 35.9104Z" fill="#333333"/>
<path fill-rule="evenodd" clip-rule="evenodd" d="M82.4096 31.8912V40.1472C79.952 35.8464 73.9456 30.7712 64.0288 30.0864C63.3024 30 62.576 30 61.7568 30C44.3744 30 30 42.64 30 61.4752C30 78.2432 41.7376 93.0336 61.7536 93.0336C62.5728 93.0336 63.3024 93.0336 64.0288 92.9504C71.7632 92.432 78.9504 89.0784 82.4096 82.8864V91.1424H97.968V31.8912H82.4096ZM82.4992 62.0768C82.398 64.9659 81.5526 67.7799 80.0448 70.2464C77.3152 75.3184 72.0352 79.2768 64.0288 79.2768C50.928 79.2768 45.5584 68.784 45.4688 61.7312V61.648C45.4688 52.88 51.9296 43.76 63.8464 43.76H64.0288C72.8544 43.8496 78.3136 48.4928 80.8608 53.824C82.1376 56.4032 82.6848 59.2384 82.4992 62.0768Z" fill="#ED1C24"/>
<path d="M65.9058 317.108C61.5144 339.992 65.9058 367.905 68.6504 379H299.868C354.211 325.95 327.314 282.261 315.786 256.256C304.259 230.251 323.471 206.847 332.803 179.281C342.135 151.716 343.964 106.54 293.829 90.8639C238.937 73.7006 220.273 105.737 164.283 128.311C112.135 149.337 81.944 135.073 46.2638 163.678C10.5836 192.284 11.5621 230.771 31.8724 249.495C52.1826 268.219 71.395 288.502 65.9058 317.108Z" fill="#ED1C24"/>
<path d="M151.159 392.162C105.172 286.489 163.203 203.854 184.006 174.806C214.267 124.223 272.831 128.515 275.432 172.302C278.17 218.377 295.688 226.891 320.324 269.461C340.033 303.517 340.215 363.782 337.843 389.658L151.159 392.162Z" fill="#BF0108"/>
<path d="M272 285C257.2 315.4 227.5 354 214.5 369.5H105C102.5 362 96.3996 343.1 91.9996 327.5C86.4996 308 79.9996 291.5 88.9996 274.5C96.1996 260.9 129.666 197.833 145.5 168L230.5 242.5L272 285Z" fill="#F9C7B4"/>
<path d="M230.5 242.5L272 285C260.808 307.989 226.526 354.5 226.526 354.5C226.526 354.5 226.526 345.5 218 342.5L158 325C155.5 317.5 164.9 290.1 160.5 274.5C155 255 140.5 265 149.5 248C156.7 234.4 129.666 197.833 145.5 168L230.5 242.5Z" fill="#F5A390"/>
<path d="M252.618 148.126L243 152.5L251.468 187L268.236 172.464C273.812 167.631 274.908 159.399 270.793 153.275C266.808 147.346 259.12 145.168 252.618 148.126Z" fill="#F9C7B4"/>
<rect x="133" y="112" width="124" height="224" rx="12" fill="#333333"/>
<rect x="177" y="321" width="36" height="5" rx="2.5" fill="#545454"/>
<rect x="182" y="122" width="26" height="5" rx="2.5" fill="#545454"/>
<path d="M246.792 221.03C242.791 214.568 244.786 206.087 251.248 202.085L256.776 198.662C261.533 195.717 267.778 197.185 270.724 201.943L274.545 208.115C277.491 212.872 276.023 219.117 271.265 222.062L265.737 225.485C259.275 229.486 250.794 227.492 246.792 221.03Z" fill="#F9C7B4"/>
<path d="M246.792 253.702C242.791 247.24 244.786 238.758 251.248 234.757L256.776 231.334C261.533 228.389 267.778 229.857 270.724 234.615L274.545 240.786C277.491 245.544 276.023 251.788 271.265 254.734L265.737 258.157C259.275 262.158 250.794 260.164 246.792 253.702Z" fill="#F9C7B4"/>
<path d="M246.792 286.374C242.791 279.912 244.786 271.43 251.248 267.429L256.776 264.006C261.533 261.06 267.778 262.529 270.724 267.286L274.545 273.458C277.491 278.216 276.023 284.46 271.265 287.406L265.737 290.829C259.275 294.83 250.794 292.835 246.792 286.374Z" fill="#F9C7B4"/>
<rect x="133" y="149" width="110" height="156" rx="10" fill="#1B1B1B"/>
<path d="M122 143H235.5C231.603 143 228.444 146.159 228.444 150.056V283C228.444 288.523 223.967 293 218.444 293H122C116.477 293 112 288.523 112 283V153C112 147.477 116.477 143 122 143Z" fill="white"/>
<path d="M228 150.5C228 146.358 231.358 143 235.5 143C239.642 143 243 146.358 243 150.5V294.412C243 300.259 238.259 305 232.412 305C229.975 305 228 303.025 228 300.588V150.5Z" fill="#1B1B1B"/>
<ellipse cx="156.666" cy="184.667" rx="4.83333" ry="5.16667" fill="#1B1B1B"/>
<ellipse cx="201.666" cy="184.667" rx="4.83333" ry="5.16667" fill="#1B1B1B"/>
<ellipse cx="155.666" cy="184.667" rx="4.83333" ry="5.16667" fill="#333333"/>
<ellipse cx="200.666" cy="184.667" rx="4.83333" ry="5.16667" fill="#333333"/>
<path d="M208.876 185.833H132.667C130.089 185.833 128 183.744 128 181.167V174.872C128 172.941 129.189 171.209 130.991 170.516L132.389 169.979C133.791 169.439 135.118 168.724 136.338 167.849L141.105 164.433C143.313 162.851 145.961 162 148.677 162H173.91C177.128 162 180.284 162.896 183.022 164.588L193.667 171.167H199.823C203.483 171.167 206.806 173.306 208.32 176.638L211.001 182.534C211.703 184.079 210.573 185.833 208.876 185.833Z" fill="#ED1C24"/>
<path d="M182.109 164.062C181.367 163.664 180.528 163.5 179.687 163.5L149.885 163.5C147.797 163.5 145.809 164.39 144.417 165.946L141.736 168.945C140.968 169.804 141.578 171.167 142.73 171.167H193.667L183.022 164.588C182.722 164.403 182.418 164.228 182.109 164.062Z" fill="#333333"/>
<path opacity="0.1" fill-rule="evenodd" clip-rule="evenodd" d="M162.205 162L176.167 171.167H188C189.556 171.778 192.9 173.8 193.833 177C194.503 179.296 195.327 182.987 195.924 185.833H208.876C210.573 185.833 211.703 184.079 211 182.534L208.32 176.638C206.806 173.306 203.483 171.167 199.823 171.167H193.667L183.022 164.588C180.284 162.896 177.128 162 173.91 162H162.205Z" fill="black"/>
<rect x="144.833" y="173.834" width="5.33333" height="1.66667" rx="0.833333" fill="white"/>
<rect x="160.5" y="173.834" width="5.33333" height="1.66667" rx="0.833333" fill="white"/>
<ellipse cx="140.333" cy="182.834" rx="5.83333" ry="7" fill="#1B1B1B"/>
<ellipse cx="139" cy="182.834" rx="5.83333" ry="7" fill="#333333"/>
<ellipse cx="139" cy="182.833" rx="3.83333" ry="4.66667" fill="#D9D9D9"/>
<ellipse cx="1.5" cy="1.66667" rx="1.5" ry="1.66667" transform="matrix(1 0 0 -1 137.5 184.5)" fill="white"/>
<path d="M196.833 180.666C196.833 180.39 197.057 180.166 197.333 180.166H208C208.276 180.166 208.5 180.39 208.5 180.666C208.5 180.942 208.276 181.166 208 181.166H197.333C197.057 181.166 196.833 180.942 196.833 180.666Z" fill="white"/>
<path fill-rule="evenodd" clip-rule="evenodd" d="M207.484 175.167C207.803 175.625 208.084 176.117 208.32 176.637L209.015 178.166H191.975C191.255 178.166 190.575 177.834 190.133 177.265L189.755 176.78C189.245 176.123 189.713 175.166 190.545 175.166H194.22C194.714 175.166 195.183 175.386 195.5 175.766L196.367 176.806C196.557 177.034 196.838 177.166 197.135 177.166H204.946C205.377 177.166 205.759 176.891 205.895 176.482L205.954 176.306C206.175 175.641 206.787 175.188 207.484 175.167Z" fill="white"/>
<ellipse cx="183" cy="182.834" rx="5.83333" ry="7" fill="#1B1B1B"/>
<ellipse cx="181.666" cy="182.834" rx="5.83333" ry="7" fill="#333333"/>
<ellipse cx="181.666" cy="182.833" rx="3.83333" ry="4.66667" fill="#D9D9D9"/>
<ellipse cx="1.5" cy="1.66667" rx="1.5" ry="1.66667" transform="matrix(1 0 0 -1 180.167 184.5)" fill="white"/>
<path d="M129 201C129 199.895 129.895 199 131 199H184C185.105 199 186 199.895 186 201C186 202.105 185.105 203 184 203H131C129.895 203 129 202.105 129 201Z" fill="#E0E0E0"/>
<path d="M129 208C129 206.895 129.895 206 131 206H200C201.105 206 202 206.895 202 208C202 209.105 201.105 210 200 210H131C129.895 210 129 209.105 129 208Z" fill="#E0E0E0"/>
<ellipse cx="156.666" cy="255.333" rx="4.83333" ry="5.16667" fill="#1B1B1B"/>
<ellipse cx="201.666" cy="255.333" rx="4.83333" ry="5.16667" fill="#1B1B1B"/>
<ellipse cx="155.666" cy="255.333" rx="4.83333" ry="5.16667" fill="#333333"/>
<ellipse cx="200.666" cy="255.333" rx="4.83333" ry="5.16667" fill="#333333"/>
<path d="M208 255.5H134.167C131.037 255.5 128.5 252.963 128.5 249.833V239.597C128.5 238.032 129.079 236.523 130.126 235.36L137.113 227.597C138.314 226.262 140.025 225.5 141.821 225.5H182.657C184.827 225.5 186.937 226.206 188.671 227.51L201.5 237.167L208.107 240.876C209.894 241.879 211 243.768 211 245.817V252.5C211 254.157 209.657 255.5 208 255.5Z" fill="#FFBB4E"/>
<rect x="167.5" y="239.5" width="5.33333" height="1.66667" rx="0.833333" fill="white"/>
<rect x="158.833" y="239.5" width="5.33333" height="1.66667" rx="0.833333" fill="white"/>
<path d="M134.833 240.666C134.833 240.39 135.057 240.166 135.333 240.166H147.666C147.942 240.166 148.166 240.39 148.166 240.666C148.166 240.942 147.942 241.166 147.666 241.166H135.333C135.057 241.166 134.833 240.942 134.833 240.666Z" fill="white"/>
<path d="M147.167 250.666C147.167 250.39 147.391 250.166 147.667 250.166H175C175.276 250.166 175.5 250.39 175.5 250.666C175.5 250.942 175.276 251.166 175 251.166H147.667C147.391 251.166 147.167 250.942 147.167 250.666Z" fill="white"/>
<ellipse cx="140.333" cy="253.5" rx="5.83333" ry="7" fill="#1B1B1B"/>
<ellipse cx="139" cy="253.5" rx="5.83333" ry="7" fill="#333333"/>
<ellipse cx="139" cy="253.501" rx="3.83333" ry="4.66667" fill="#D9D9D9"/>
<ellipse cx="1.5" cy="1.66667" rx="1.5" ry="1.66667" transform="matrix(1 0 0 -1 137.5 255.166)" fill="white"/>
<ellipse cx="183" cy="253.5" rx="5.83333" ry="7" fill="#1B1B1B"/>
<ellipse cx="181.666" cy="253.5" rx="5.83333" ry="7" fill="#333333"/>
<ellipse cx="181.666" cy="253.501" rx="3.83333" ry="4.66667" fill="#D9D9D9"/>
<ellipse cx="1.5" cy="1.66667" rx="1.5" ry="1.66667" transform="matrix(1 0 0 -1 180.167 255.166)" fill="white"/>
<path fill-rule="evenodd" clip-rule="evenodd" d="M202.094 237.501H136.297C135.513 237.501 135.034 236.639 135.448 235.973L138.544 230.985C139.76 229.026 141.902 227.834 144.208 227.834H189.1L201.5 237.167L202.094 237.501Z" fill="#333333"/>
<path opacity="0.1" fill-rule="evenodd" clip-rule="evenodd" d="M172.945 225.5L183.5 237.5H186.833C188.833 238.167 192.833 240.367 192.833 243.833V252C192.833 253.504 191.599 255.008 190.235 255.5H208C209.656 255.5 211 254.157 211 252.5V245.817C211 243.768 209.894 241.879 208.107 240.876L201.5 237.167L188.67 227.51C186.937 226.206 184.826 225.5 182.657 225.5H172.945Z" fill="black"/>
<path fill-rule="evenodd" clip-rule="evenodd" d="M207.437 240.5L208.107 240.876C209.185 241.481 210.015 242.409 210.504 243.5H190.308C189.588 243.5 188.908 243.168 188.466 242.599L188.088 242.114C187.578 241.457 188.046 240.5 188.878 240.5H192.553C193.047 240.5 193.516 240.72 193.833 241.1L194.7 242.14C194.89 242.368 195.171 242.5 195.468 242.5H203.279C203.71 242.5 204.092 242.225 204.228 241.816L204.287 241.64C204.514 240.959 205.15 240.5 205.868 240.5H207.437Z" fill="white"/>
<path d="M195.833 250.666C195.833 250.39 196.057 250.166 196.333 250.166H208.666C208.942 250.166 209.166 250.39 209.166 250.666C209.166 250.942 208.942 251.166 208.666 251.166H196.333C196.057 251.166 195.833 250.942 195.833 250.666Z" fill="white"/>
<path d="M129 271C129 269.895 129.895 269 131 269H192C193.105 269 194 269.895 194 271C194 272.105 193.105 273 192 273H131C129.895 273 129 272.105 129 271Z" fill="#E0E0E0"/>
<path d="M129 278C129 276.895 129.895 276 131 276H183C184.105 276 185 276.895 185 278C185 279.105 184.105 280 183 280H131C129.895 280 129 279.105 129 278Z" fill="#E0E0E0"/>
<circle cx="231.5" cy="248.5" r="32.5" fill="#00D87E"/>
<path d="M217 248.5L227.41 259L246 241" stroke="white" stroke-width="6" stroke-linecap="round"/>
</g>
<defs>
<clipPath id="clip0_4661_24150">
<rect width="360" height="360" rx="8" fill="white"/>
</clipPath>
</defs>
</svg>
