<svg width="145" height="65" viewBox="0 0 145 65" fill="none" xmlns="http://www.w3.org/2000/svg">
<g clip-path="url(#clip0_2360_87024)">
<path fill-rule="evenodd" clip-rule="evenodd" d="M136.19 6.03442C131.692 1.23442 125.383 0.124023 120.704 0.124023C114.492 0.124023 109.449 2.43762 105.847 5.86162C104.042 7.57362 102.695 9.54482 101.613 11.3432C100.804 9.71762 99.4539 7.40402 98.0103 6.03122C93.7763 1.41042 88.4629 0.124023 83.8744 0.124023C70.905 0.124023 67.9341 8.86002 67.9341 8.86002V29.1576C67.9341 25.9896 68.3852 22.3064 70.006 19.308C71.6268 16.2264 74.5977 13.74 79.7307 13.8264C84.6832 13.8264 87.3867 16.14 89.0074 19.2216C90.4478 22.1336 90.7152 25.4744 90.7152 28.5592V60.8472H105.215V28.5592C105.215 25.3048 105.396 22.2232 107.107 19.052C108.818 15.9672 111.972 13.74 116.922 13.74C121.697 13.74 124.487 15.7112 125.928 18.54C127.732 21.5352 128.087 25.4744 128.087 29.0712V60.7608H142.587V28.4728C142.496 16.396 141.507 11.6856 136.194 6.03442H136.19Z" fill="#333333"/>
<path fill-rule="evenodd" clip-rule="evenodd" d="M52.7736 2.01522V10.2712C50.2989 5.97042 44.2508 0.895223 34.2651 0.210423C33.5337 0.124023 32.8022 0.124023 31.9773 0.124023C14.4742 0.124023 0 12.764 0 31.5992C0 48.3672 11.8191 63.1576 31.9741 63.1576C32.799 63.1576 33.5337 63.1576 34.2651 63.0744C42.0532 62.556 49.2903 59.2024 52.7736 53.0104V61.2664H68.44V2.01522H52.7736ZM52.8638 32.2008C52.7619 35.0899 51.9106 37.9039 50.3923 40.3704C47.6438 45.4424 42.3271 49.4008 34.2651 49.4008C21.0733 49.4008 15.6664 38.908 15.5762 31.8552V31.772C15.5762 23.004 22.0819 13.884 34.0814 13.884H34.2651C43.152 13.9736 48.6491 18.6168 51.214 23.948C52.4997 26.5272 53.0507 29.3656 52.8638 32.204V32.2008Z" fill="#ED1C24"/>
</g>
<defs>
<clipPath id="clip0_2360_87024">
<rect width="145" height="64" fill="white" transform="translate(0 0.124023)"/>
</clipPath>
</defs>
</svg>
