<svg width="360" height="360" viewBox="0 0 360 360" fill="none" xmlns="http://www.w3.org/2000/svg">
<g clip-path="url(#clip0_2724_2176)">
<rect width="360" height="360" rx="8" fill="#FF742D"/>
<path d="M420 225.017H389.882L397.11 182H358.558L351.33 225.017H326.633L333.861 182H295.31L288.081 225.017H257.059L251.337 260.617H282.058L278.443 281.383H247.723L242 316.983H272.42L265.191 360H303.743L310.971 316.983H335.668L328.44 360H366.992L374.22 316.983H405.242L410.964 281.383H380.244L383.858 260.617H414.277L420 225.017ZM316.995 281.383L320.609 260.617H345.306L341.692 281.383H316.995Z" fill="#FF974B"/>
<path d="M119 225.017H88.8816L96.11 182H57.5584L50.3299 225.017H25.6328L32.8613 182H-5.69035L-12.9188 225.017H-43.9408L-49.6633 260.617H-18.9425L-22.5567 281.383H-53.2775L-59 316.983H-28.5804L-35.8088 360H2.74281L9.97124 316.983H34.6684L27.4399 360H65.9916L73.22 316.983H104.242L109.964 281.383H79.2437L82.8579 260.617H113.277L119 225.017ZM15.9949 281.383L19.6091 260.617H44.3063L40.6921 281.383H15.9949Z" fill="#FF974B"/>
<path d="M105.846 67.2192L93.7434 30.7808H82.3218L70.2192 67.2192H80.3833L81.9551 61.9616H94.1625L95.7343 67.2192H105.846ZM88.0326 41.5562L91.7525 53.9452H84.3651L88.0326 41.5562Z" fill="white"/>
<path d="M117.891 30.7808H108.513V67.2192H130.518V58.2137H117.891V30.7808Z" fill="white"/>
<path d="M150.018 46.3452V54.3616H158.925C157.562 57.537 154.733 59.1507 150.489 59.1507C147.189 59.1507 144.569 58.1616 142.735 56.2356C140.902 54.3096 140.011 51.9151 140.011 49.1041C140.011 46.189 140.954 43.7945 142.788 41.9205C144.621 40.0466 147.031 39.1096 149.913 39.1096C153.476 39.1096 156.462 40.6192 157.929 42.9096L165.893 38.3808C164.269 35.8301 162.068 33.8 159.186 32.2904C156.357 30.7808 153.214 30 149.808 30C144.412 30 139.854 31.8219 136.186 35.5178C132.519 39.2137 130.685 43.6904 130.685 49.0521C130.685 54.4137 132.519 58.8904 136.186 62.5342C139.906 66.1781 144.621 68 150.332 68C155.729 68 160.077 66.3342 163.43 63.0548C166.836 59.7233 168.512 55.4027 168.512 50.0411V46.3452H150.018Z" fill="white"/>
<path d="M204.313 62.5342C208.033 58.8384 209.919 54.3616 209.919 49C209.919 43.6384 208.033 39.1616 204.313 35.5178C200.593 31.8219 196.088 30 190.691 30C185.295 30 180.737 31.8219 177.017 35.5178C173.297 39.1616 171.463 43.6384 171.463 49C171.463 54.3616 173.297 58.8384 177.017 62.5342C180.737 66.1781 185.295 68 190.691 68C196.088 68 200.593 66.1781 204.313 62.5342ZM183.618 56.1315C181.732 54.2575 180.789 51.863 180.789 49C180.789 46.137 181.732 43.7425 183.618 41.9205C185.504 40.0466 187.862 39.1096 190.691 39.1096C193.52 39.1096 195.878 40.0466 197.764 41.9205C199.65 43.7425 200.593 46.137 200.593 49C200.593 51.863 199.65 54.2575 197.764 56.1315C195.878 57.9534 193.52 58.8904 190.691 58.8904C187.862 58.8904 185.504 57.9534 183.618 56.1315Z" fill="white"/>
<path d="M233.969 44.263H223.648V30.7808H214.27V67.2192H223.648V53.2164H233.969V67.2192H243.295V30.7808H233.969V44.263Z" fill="white"/>
<path d="M258.491 53.1123H271.118V44.5233H258.491V39.474H272.427V30.7808H249.113V67.2192H272.689V58.474H258.491V53.1123Z" fill="white"/>
<path d="M286.529 30.7808H277.151V67.2192H299.156V58.2137H286.529V30.7808Z" fill="white"/>
<path d="M302.58 30.7808V67.2192H311.958V56.2877H316.83C320.55 56.2877 323.641 55.0904 326.156 52.6959C328.671 50.3014 329.929 47.2301 329.929 43.5342C329.929 39.8384 328.671 36.7671 326.156 34.3726C323.641 31.9781 320.55 30.7808 316.83 30.7808H302.58ZM311.958 47.4384V39.6822H316.83C318.926 39.6822 320.55 41.2438 320.55 43.5342C320.55 45.8247 318.926 47.4384 316.83 47.4384H311.958Z" fill="white"/>
<path d="M66.6429 38.8554H60.4427L61.9307 30H53.9946L52.5065 38.8554H47.4224L48.9104 30H40.9743L39.4862 38.8554H33.1001L31.922 46.1839H38.2462L37.5022 50.4589H31.178L30 57.7875H36.2621L34.7741 66.6429H42.7103L44.1983 57.7875H49.2825L47.7944 66.6429H55.7306L57.2186 57.7875H63.6048L64.7828 50.4589H58.4587L59.2027 46.1839H65.4648L66.6429 38.8554ZM45.4384 50.4589L46.1824 46.1839H51.2665L50.5225 50.4589H45.4384Z" fill="white"/>
<g filter="url(#filter0_d_2724_2176)">
<path d="M80 106C80 99.3726 85.3726 94 92 94H268C274.627 94 280 99.3726 280 106V360H80V106Z" fill="white"/>
</g>
<path d="M80 120H280V360H80V120Z" fill="#CD0909"/>
<rect x="191" y="106" width="4" height="34" rx="2" transform="rotate(90 191 106)" fill="#FFCDB4"/>
<rect x="202" y="106" width="4" height="4" rx="2" transform="rotate(90 202 106)" fill="#FFCDB4"/>
<rect x="44" y="164" width="272" height="46" rx="8" fill="white"/>
<path d="M59 210H301V319C301 323.418 297.418 327 293 327H67C62.5817 327 59 323.418 59 319V210Z" fill="white"/>
<path d="M59 210H301V319C301 323.418 297.418 327 293 327H67C62.5817 327 59 323.418 59 319V210Z" fill="url(#paint0_linear_2724_2176)"/>
<path d="M214 164V155C214 148.373 208.627 143 202 143H145C138.373 143 133 148.373 133 155V164" stroke="#DADDE5" stroke-width="10"/>
<circle cx="174" cy="268" r="40" fill="#FF1717"/>
<path fill-rule="evenodd" clip-rule="evenodd" d="M183 288C183.552 288 184 287.552 184 287V278H193C193.552 278 194 277.552 194 277V259C194 258.448 193.552 258 193 258H184V249C184 248.448 183.552 248 183 248H165C164.448 248 164 248.448 164 249V258H155C154.448 258 154 258.448 154 259V277C154 277.552 154.448 278 155 278H164V287C164 287.552 164.448 288 165 288H183Z" fill="white"/>
<path d="M265 163C265 160.791 266.791 159 269 159C271.209 159 273 160.791 273 163H265ZM265 245V163H273V245H265Z" fill="#454545"/>
<circle cx="268" cy="245" r="19" fill="#DADDE5"/>
<circle cx="268" cy="245" r="11" fill="white" stroke="#454545" stroke-width="2"/>
<circle cx="268" cy="245" r="8" fill="#DADDE5"/>
<circle cx="2" cy="2" r="2" transform="matrix(-1 0 0 1 270 243)" fill="#454545"/>
<path d="M95 163C95 160.791 93.2091 159 91 159C88.7909 159 87 160.791 87 163L95 163ZM95 197L95 163L87 163L87 197H95Z" fill="#454545"/>
<path d="M50 227.5C48.3333 232.833 45 247.4 45 263C45 272.204 45 283.484 45 293.002C45 301.838 52.1634 309 61 309H69.5" stroke="#D8DBE4" stroke-width="4"/>
<path d="M131 227.5C132.667 232.833 136 247.4 136 263C136 272.204 136 283.484 136 293.002C136 301.838 128.837 309 120 309H111.5" stroke="#D8DBE4" stroke-width="4"/>
<path d="M46.3682 226.324C45.4424 228.33 46.318 230.706 48.3238 231.632C50.3296 232.558 52.7061 231.682 53.6318 229.676L46.3682 226.324ZM90.3204 193.058C79.9518 194.846 56.7318 203.869 46.3682 226.324L53.6318 229.676C62.4682 210.531 82.7149 202.487 91.6796 200.942L90.3204 193.058Z" fill="#454545"/>
<path d="M134.632 226.324C135.558 228.33 134.682 230.706 132.676 231.632C130.67 232.558 128.294 231.682 127.368 229.676L134.632 226.324ZM90.6796 193.058C101.048 194.846 124.268 203.869 134.632 226.324L127.368 229.676C118.532 210.531 98.2851 202.487 89.3204 200.942L90.6796 193.058Z" fill="#454545"/>
<path d="M63 305.778C63 304.764 63.7591 303.911 64.7663 303.792L73.299 302.788C76.8659 302.369 80 305.156 80 308.747V309.253C80 312.844 76.8659 315.631 73.299 315.212L64.7663 314.208C63.7591 314.089 63 313.236 63 312.222V305.778Z" fill="#454545"/>
<path d="M118 305.778C118 304.764 117.241 303.911 116.234 303.792L107.701 302.788C104.134 302.369 101 305.156 101 308.747V309.253C101 312.844 104.134 315.631 107.701 315.212L116.234 314.208C117.241 314.089 118 313.236 118 312.222V305.778Z" fill="#454545"/>
</g>
<defs>
<filter id="filter0_d_2724_2176" x="60" y="84" width="240" height="306" filterUnits="userSpaceOnUse" color-interpolation-filters="sRGB">
<feFlood flood-opacity="0" result="BackgroundImageFix"/>
<feColorMatrix in="SourceAlpha" type="matrix" values="0 0 0 0 0 0 0 0 0 0 0 0 0 0 0 0 0 0 127 0" result="hardAlpha"/>
<feOffset dy="10"/>
<feGaussianBlur stdDeviation="10"/>
<feComposite in2="hardAlpha" operator="out"/>
<feColorMatrix type="matrix" values="0 0 0 0 0.803922 0 0 0 0 0.0352941 0 0 0 0 0.0352941 0 0 0 1 0"/>
<feBlend mode="normal" in2="BackgroundImageFix" result="effect1_dropShadow_2724_2176"/>
<feBlend mode="normal" in="SourceGraphic" in2="effect1_dropShadow_2724_2176" result="shape"/>
</filter>
<linearGradient id="paint0_linear_2724_2176" x1="180" y1="210" x2="180" y2="234" gradientUnits="userSpaceOnUse">
<stop stop-color="#D4D7E1"/>
<stop offset="1" stop-color="#D4D7E1" stop-opacity="0"/>
</linearGradient>
<clipPath id="clip0_2724_2176">
<rect width="360" height="360" rx="8" fill="white"/>
</clipPath>
</defs>
</svg>
