<svg width="360" height="360" viewBox="0 0 360 360" fill="none" xmlns="http://www.w3.org/2000/svg">
<g clip-path="url(#clip0_4226_27048)">
<rect width="360" height="360" rx="8" fill="#2E3133"/>
<path d="M323.076 43.8829L321.063 42.4765L323.471 41.0219L324.521 43.0834L323.076 43.8829Z" fill="#1F2122"/>
<path d="M315.996 -1.54642L312.953 0.0430374L308.339 -2.95283L307.626 -5.62118L310.005 -6.83494L316.902 -4.36889L315.996 -1.54642Z" fill="#1F2122"/>
<path d="M336.667 3.25084L333.498 8.0577L336.156 11.015L335.511 14.9646L332.612 16.4288L326.148 12.2673L320.138 7.39302L316.882 6.00588L316.979 3.89625L320.196 -3.55009L328.672 -7.48035L330.3 -1.68128L333.315 -2.53862L333.594 -4.56155L336.994 -1.45971L336.667 3.25084Z" fill="#1F2122"/>
<path d="M318.838 50.2214L318.009 49.3641L318.684 48.1118L319.878 49.3063L318.838 50.2214Z" fill="#1F2122"/>
<path d="M353.735 21.1393L350.306 24.3664L343.38 24.8095L337.177 29.5008L335.858 25.0118L339.778 18.2783L340.635 8.3756L345.451 5.91917L345.239 10.1577L347.416 12.3348L350.691 9.26183L354.187 13.4618L353.735 21.1393Z" fill="#1F2122"/>
<path d="M482.737 34.2306L479.183 30.3293L478.46 27.2563L481.831 29.1444L484.422 33.5948L482.737 34.2306Z" fill="#1F2122"/>
<path d="M535.28 11.593L521.487 11.4485L519.656 7.75908L523.163 7.90359L523.644 4.89807H526.698L528.277 2.37423L534.095 2.81734L536.84 -0.0243988L539.19 4.80175L535.28 11.593Z" fill="#1F2122"/>
<path d="M514.946 19.4343L509.398 18.365L505.989 13.4811L501.423 14.5985L506.374 20.0893L511.951 21.5825L514.147 23.6536L512.018 25.8981L508.156 25.1467L504.968 30.0981L500.604 29.626L501.086 35.3866L495.836 35.7912L489.942 34.2306L488.892 30.4063L485.867 26.765L485.251 21.727L485.694 16.9682L491.858 16.4095L497.599 20.8889L500.007 18.2398L496.395 14.6852L496.8 11.5256L502.425 12.3926L506.249 9.83981L513.193 10.2637L515.091 13.2788L514.946 19.4343Z" fill="#1F2122"/>
<path d="M327.709 -13.3565V-9.94641L318.539 -6.05466L313.925 -9.97531V-12.557L317.836 -17.4602L316.911 -21.6987L320.514 -23.9239L324.01 -27.2184L327.882 -23.9817L330.223 -17.7203L331.465 -15.2831L327.709 -13.3565Z" fill="#1F2122"/>
<path d="M649.314 57.4847L655.729 60.1049L663.367 60.1434L669.291 71.7319L666.247 75.9127L661.932 77.5792L652.03 86.1044L651.481 86.5668L655.7 91.2774L651.808 94.6875L655.218 99.4847L655.459 104.475L655.478 104.773L660.429 108.944L659.697 116.506L655.594 120.831L647.994 121.564L638.969 129.53L642.35 135.628L633.95 141.215L633.71 141.369L632.332 147.842L632.284 148.074L645.287 173.457L644.016 177.772L636.118 178.87L633.719 182.81L627.439 184.091L617.239 180.807L616.728 180.643L613.164 184.997L618.568 198.551L614.783 211.17L614.629 211.661L620.793 215.717L623.808 225.774L619.473 227.681L619.791 233.316L617.932 238.046L608.869 238.614L608.262 245.203L593.852 250.347L593.371 250.53V266.945L589.99 270.654L589.431 271.261L597.301 276.376L593.13 283.938L601.23 288.918L602.743 292.473L598.591 296.653L601.616 304.649L589.508 310.573L590.154 314.166L585.742 315.717L581.157 314.792L565.755 321.449L561.883 318.405L550.479 322.393L544.95 318.347L544.758 318.212L535.068 317.884L531.456 321.285L527.256 317.644L524.299 320.119L519.242 316.257L512.317 318.867L506.297 322.557L496.568 305.593L488.863 289.168L488.738 289.024L484.056 285.98L477.275 288.87L474.829 281.973L463.03 277.532L462.827 277.503L456.846 278.437L456.451 278.514L447.541 296.499L442.292 302.26L437.611 297.857L434.403 303.233L426.698 303.522H426.447L421.275 307.25L416.767 302.741L417.711 289.718L422.874 278.389L415.89 276.414L413.203 270.818L415.428 262.177L415.553 261.657L410.256 258.853L410.564 250.636L406.576 243.335L406.181 242.602L402.434 245.068L399.179 244.837V241.601L403.06 239.279L399.805 234.646L399.843 234.617L396.694 230.908L392.263 233.692L388.468 230.879H379.857L380.31 227.026L385.665 220.928L387.485 216.439L387.688 215.929L383.787 213.386V208.887L380.695 205.708L382.149 199.138L378.682 196.643L383.594 191.538L383.816 191.307L381.764 167.128L375.985 158.728L378.113 157.697L385.549 152.014L390.683 152.591L392.484 144.432L394.69 141.311L395.297 137.14L405.199 129.732L400.672 124.627V117.537L392.484 106.652L391.377 101.18L388.901 98.0205L389.161 94.9957L394.189 92.6356L397.801 89.1003L400.624 91.4315L401.722 96.8067L402.521 96.8356L403.629 93.1751L408.002 87.7132L424.434 87.8769L423.557 90.8535L430.406 95.2173L447.638 88.3008L448.928 75.0842L457.819 78.321L466.102 75.6622L471.333 78.032L479.539 89.5338L474.347 92.9631L488.699 105.187L488.795 105.265L498.447 106.767V89.0232L511.18 91.1329L513.434 83.1856L520.668 85.2278L526.938 84.2453L524.935 79.737L526.794 77.3673L534.278 75.6526L529.404 70.3063L528.99 64.6999L525.022 66.5687L523.278 63.6017L528.614 58.7659L525.118 54.7778L543.082 46.1563L548.061 45.8769L542.899 50.2599L544.045 55.2113L548.418 51.493H551.818V59.9989L558.541 53.882L555.334 43.5939L560.862 39.0664L569.994 39.7118L565.987 43.4783L569.618 46.6765L572.084 44.1815L574.761 46.3393L577.93 42.4187L583.488 41.9081L589.576 44.7691L594.854 43.2375L597.532 34.4233L604.804 26.004L615.389 19.5403L622.662 20.2242L630.329 27.0829L640.982 21.438L641.088 21.3802L642.85 18.1724L658.358 29.1059V35.4155L646.183 48.815L645.875 49.1425L649.198 57.2054L649.314 57.4847Z" fill="#1F2122"/>
<path d="M394.093 136.206L393.862 136.379L393.284 140.724L391.097 143.797L389.489 151.012L385.087 150.52L377.362 156.454L373.818 158.179L380.271 167.513L382.246 190.806L376.457 196.826L380.464 199.726L379.038 206.132L382.274 209.436V214.137L385.848 216.458L384.374 220.158L378.99 226.284L378.845 226.448L378.152 232.314H387.938L392.195 235.455L396.385 232.835L397.84 234.54L395.856 236.62L390.587 237.661L384.837 240.059L385.154 246.032L386.513 249.413L383.777 255.077L383.604 255.424L386.599 259.932L387.139 265.779L383.026 273.255L375.099 277.84L378.094 282.628L375.012 286.596L376.958 292.704L383.247 294.573L383.931 297.597L379.597 301.923L379.423 302.096L379.067 306.45L382.438 307.317L383.594 310.583L380.473 313.511L379.115 317.798L373.846 314.869L370.793 308.598L370.475 307.934L362.914 311.209L363.001 311.613L362.192 316.671L349.42 329.752L349.198 329.984L349.747 335.995L347.493 336.881L342.099 325.889L337.813 331.159L324.232 331.698L318.558 341.514L318.347 341.89L324.453 350.906L323.49 355.001L317.586 355.8L313.916 362.408L312.77 378.1L307.607 377.609L303.089 379.594L302.666 379.786V384.054L312.394 392.261L311.643 395.507L294.652 396.914L294.103 396.962L292.928 401.576L289.065 402.53L289.479 405.969L285.058 408.628L284.721 408.82L284.548 411.739L281.725 412.365L275.975 416.825L263.193 415.255L255.623 410.236L258.06 405.401L262.837 403.705L263.145 403.609L264.879 399.987L264.918 396.615L269.705 394.226L269.348 389.853L267.441 384.439L266.468 379.324L262.49 373.515L264.494 369.44L260.217 366.878L254.64 367.495H249.506L246.896 360.251L249.005 359.326L252.425 356.147L246.597 345.493L247.406 341.948L247.484 341.919L247.801 335.542L254.159 330.985L254.38 330.841L255.584 326.66L249.054 324.724L245.249 321.15L244.7 316.719L251.673 311.016L251.914 310.824L252.309 305.978L246.935 305.342L241.733 295.276L241.56 294.939L223.452 292.299V288.398L226.062 285.325L223.586 277.127L228.942 276.501L235.838 273.736L236.127 273.611L237.832 269.498L229.934 265.23V257.013L239.075 246.09L239.21 245.916L239.788 238.874L245.885 230.966L244.681 224.184L244.632 223.895L237.861 219.127L239.566 210.072L234.943 204.099L236.349 191.673L236.378 191.393L230.695 184.438L232.872 178.302L232.958 178.052L230.888 173.428L237.89 171.655L240.76 164.806L241.3 163.525L239.499 153.853L231.427 151.956L224.79 143.729L226.014 139.115L236.339 134.77L236.676 134.636L237.957 129.829L233.459 120.831L234.442 115.745L239.951 114.878L235.087 105.168L235.077 105.014L239.518 104.764L246.491 116.998H255.478L252.405 110.245L246.588 104.918L246.963 92.7512L249.622 88.243L258.57 88.4164L274.617 90.892L274.704 90.9113L281.34 89.3508L277.198 82.2994L279.202 74.5737L283.719 70.8361L290.125 70.6531L298.447 64.4301L310.978 62.8022L310.785 57.3402L320.263 57.1765L321.188 60.1338L328.817 61.4632L332.014 58.6214L339.036 60.0278L335.309 54.8742L335.164 53.2366L343.929 52.6971L341.964 45.665L349.901 34.5582L354.659 32.9013L359.841 36.9664L356.653 41.282L366.073 42.3705L362.615 51.5893L368 50.7416L371.939 45.4627L382.862 45.7999L394.69 58.4769L390.818 71.337L382.159 86.0274L366.516 101.257L366.41 101.363L366.218 108.617L366.988 108.819L369.926 103.983L377.507 101.893L383.238 97.7893L387.572 95.7471L387.341 98.4443L389.932 101.7L391.04 107.153L399.15 117.99V125.137L403.041 129.53L394.093 136.206Z" fill="#1F2122"/>
<path d="M201.587 -55.4143L199.429 -57.0615L195.615 -56.7918L193.216 -58.545L192.619 -60.7799L197.474 -57.8321L200.075 -58.5835L202.531 -56.4932L201.587 -55.4143Z" fill="#1F2122"/>
<path d="M206.653 -48.8445L201.953 -50.3184L197.638 -49.384L198.418 -45.9835L197.917 -45.1069L195.48 -47.9872L192.841 -50.4725L193.062 -52.7266L196.829 -51.7152L198.967 -52.5725L202.386 -52.9964L204.785 -54.7207L206.817 -53.9982L209.283 -51.3202L206.653 -48.8445Z" fill="#1F2122"/>
<path d="M218.163 28.6435L210.708 32.4485L178.393 33.0747L174.241 37.5925L169.194 36.5618L166.853 38.5655L162.837 35.8971L162.085 40.1453L160.458 42.1971L157.597 39.2783L156.865 42.698L153.272 41.4169L153.041 44.6632L150.267 44.4609L149.14 47.6301L145.133 48.0058L139.421 44.5861L141.271 49.7879L138.814 53.0535L132.322 55.0957L126.553 60.8755L125.204 67.0407L123.499 82.2609L121.284 81.2398L117.605 80.4691L117.383 77.5311L113.742 77.0975L110.872 71.1058L114.763 67.4453L114.532 61.1068L110.352 57.1765L110.554 52.9572L114.648 50.0769L118.577 51.31L125.339 48.0155L125.551 44.6535L130.136 44.8558L130.993 40.4343L137.177 42.8329L141.646 38.8545L138.747 36.1283L140.519 34.1343L143.91 35.5215L154.235 32.5063L154.659 29.6742L158.608 29.4623L160.275 22.6228L163.54 25.8884L166.372 23.6728H171.641L177.959 19.7715L183.026 21.8522L188.034 19.1838L193.65 23.6536L207.308 24.7228L208.676 21.9485L215.967 20.1953L218.992 23.6054L218.163 28.6435Z" fill="#1F2122"/>
<path d="M225.782 -40.9262L220.774 -42.5349L217.48 -46.128L221.236 -48.6037L226.389 -44.2592L225.782 -40.9262Z" fill="#1F2122"/>
<path d="M274.318 76.0764L273.095 75.1998L272.565 73.8416L273.432 73.254L275.397 74.6122L274.318 76.0764Z" fill="#1F2122"/>
<path d="M230.232 -47.9679L227.796 -49.461L227.449 -51.0794L230.319 -52.4377L231.629 -49.9523L230.232 -47.9679Z" fill="#1F2122"/>
<path d="M247.753 73.2925L246.501 71.7705L246.809 70.3352L248.408 69.8728L249.015 72.0306L247.753 73.2925Z" fill="#1F2122"/>
<path d="M742.167 109.185L737.062 109.985L728.624 99.0994L726.573 104.879L722.691 105.053L715.582 114.618L714.369 122.864L717.971 133.682L719.108 152.119L723.702 156.242L727.699 151.59L731.581 154.325L727.565 159.258L721.968 161.252L720.447 171.482L714.754 177.503L711.181 174.603L715.785 168.399L708.965 168.611L702.502 173.977L693.939 176.539L695.442 185.565L691.088 186.548L687.563 189.264L682.872 192.174L679.722 187.001L679.51 186.635H671.988L666.863 190.18L664.783 186.249L667.99 180.758L666.363 173.119L652.579 168.794L652.223 168.679L646.405 172.33L633.874 147.891L635.078 142.207L644.324 136.081L640.857 129.819L648.669 122.941L656.336 122.19L661.171 117.113L662.018 108.347L656.971 104.109L656.721 99.1283L656.663 98.9452L653.793 94.909L657.8 91.3929L653.59 86.692L662.693 78.8411L667.239 77.0686L671.044 71.8572L668.318 66.5109L671.795 67.0118L675.378 72.9746L682.853 69.5934L689.557 71.6068L694.681 67.2911L702.04 66.8191L702.329 66.7999L707.684 61.5402L715.178 71.7801L715.351 72.0113L720.273 72.9843L723.567 81.0952L723.779 81.5962L729.847 81.0856L733.122 83.9466L734.134 88.9462L734.201 89.2737L739.807 92.2503L741.194 97.6737L742.514 105.573L742.167 109.185Z" fill="#1F2122"/>
<path d="M-183.599 208.608L-181.817 209.869L-181.779 210.592L-184.196 210.486L-185.795 213.058L-185.092 216.401L-192.355 223.327L-197.681 213.809L-197.874 205.881L-205.021 201.633L-204.645 197.52L-207.544 196.239L-208.036 193.927L-206.832 192.135L-204.375 189.264L-200.484 192.405L-198.298 191.249L-196.834 191.47L-195.919 194.399L-191.95 196.884L-186.72 197.944L-181.721 202.76V206.161L-183.599 208.608Z" fill="#1F2122"/>
<path d="M-29.4188 63.1297L-30.5072 62.0026L-30.3531 60.8177L-29.4862 59.71L-28.4363 60.4517L-27.974 62.2242L-29.4188 63.1297Z" fill="#1F2122"/>
<path d="M221.651 -33.3739L218.973 -32.0638L217.73 -33.0367L220.697 -36.678L222.392 -36.2734L221.651 -33.3739Z" fill="#1F2122"/>
<path d="M487.438 305.41L487.197 305.419L483.469 308.117L483.98 316.863L483.989 317.21L489.903 321.15L489.682 327.383L484.558 330.745L475.792 329.473L475.176 323.751L470.341 328.866L466.854 328.365L465.053 334.868L450.393 338.586L447.985 335.503L447.763 335.195H443.852L439.566 333.056L437.399 337.902L430.551 340.04L425.763 338.461L424.714 343.181L416.536 344.134L417.412 348.835L417.461 349.086L421.795 352.525L418.173 356.571L417.403 363.622L417.393 363.709L420.254 370.057L417.586 377.445L413.983 386.761L409.745 392.916L406.268 398.532L404.92 402.299L399.054 407.279L396.154 411.44L388.324 416.517L384.394 417.047L380.685 419.099L382.535 422.817H388.555L387.611 425.89L382.41 427.528L381.523 424.214L374.656 422.952L374.126 418.675L374.116 418.569L368.934 412.317H362.462L349.834 402.934L345.211 396.991L338.054 401.798L334.75 401.73L334.452 400.507L328.094 400.892L313.723 391.461L304.178 383.428V380.692L307.867 379.073L314.186 379.671L315.38 362.861L318.568 357.11L324.213 356.349L324.742 356.291L326.081 350.637L320.109 341.832L325.157 333.105L338.227 332.575L338.593 332.565L341.772 328.654L346.415 338.114L346.723 338.73L351.365 336.919L350.768 330.494L363.463 317.48L363.637 317.326L364.475 312.076L369.724 309.841L372.575 315.688L372.672 315.881L380.05 319.975L381.697 314.397L385.347 310.978L383.623 306.132L380.676 305.381L380.897 302.712L385.578 298.031L384.635 293.869L384.538 293.465L378.191 291.567L376.688 286.866L379.924 282.714L377.17 278.322L384.086 274.314L384.23 274.18L388.593 266.252L388.69 266.059L388.092 259.557L385.338 255.328L388.035 249.731L388.17 249.461L386.657 245.772L386.407 240.965L390.982 239.038L396.646 237.93L398.746 235.734L400.942 238.865L397.657 240.82V246.167L402.868 246.533L405.623 244.712L409.042 250.858L408.695 259.672L413.81 262.369L411.662 270.741L411.614 270.962L414.783 277.59L420.803 279.295L416.237 289.313L415.226 302.953L415.207 303.262L420.639 308.695L421.102 309.167L426.996 304.938L435.309 304.62L437.958 300.208L442.379 304.36L448.794 297.328L457.501 279.786L462.741 278.967L473.606 283.052L476.101 290.074L476.361 290.845L483.903 287.608L487.601 290.016L494.719 305.217L487.438 305.41Z" fill="#1F2122"/>
<path d="M243.39 315.89L243.091 316.131L243.804 321.815L248.177 325.918L253.735 327.614L253.041 329.984L246.318 334.81L246.01 340.946L240.105 343.325L232.294 340.098L222.912 341.312L222.614 341.341L219.175 345.175L205.969 345.127L201.645 348.517L200.335 346.918L200.913 337.94L200.951 337.208L186.667 336.833L184.105 332.382L176.967 332.556L175.725 328.221L171.044 322.451L146.906 311.594V301.239L143.814 298.166L147.127 294.361L146.761 291.394L153.311 287.858L154.091 284.024L157.433 281.973L162.615 282.57L166.777 270.066L171.872 266.435L177.362 267.928L185.366 272.946L185.549 273.062L197.869 273.245L206.759 279.381L217.171 273.746L221.949 276.963L224.386 285.017L221.93 287.897V293.523L240.539 296.229L245.933 306.672L250.681 307.23L250.441 310.12L243.39 315.89Z" fill="#1F2122"/>
<path d="M221.583 -25.6386L220.456 -27.1702L221.516 -28.4322L222.536 -26.8042L221.583 -25.6386Z" fill="#1F2122"/>
<path d="M250.566 355.877L248.197 358.093L242.61 360.568L241.521 365L243.66 369.893L239.576 374.912L240.741 378.601L245.789 380.268L244.17 384.834L240.539 389.178L241.849 394.111L240.886 397.723L242.071 400.767L237.11 405.429L234.134 406.836L230.204 408.156L227.613 405.372L220.013 405.16L220.264 400.17L223.423 398.282L223.664 398.128L225.109 392.723L222.431 389.93L226.023 385.942L221.111 382.647L219.589 378.63L214.87 373.852L214.166 368.602L210.545 369.045L210.728 346.572L219.878 346.61L223.404 342.699L232.072 341.572L239.797 344.761L240.096 344.876L245.692 342.632L244.999 345.695L250.566 355.877Z" fill="#1F2122"/>
<path d="M76.6783 252.399L75.6765 258.863L75.2913 262.803L78.0364 266.675L74.5785 272.291L64.147 271.974L63.6461 271.954L60.3712 278.476L60.3231 278.649L60.4868 283.89L58.3003 284.468L53.099 282.136L52.7715 281.992L49.1113 283.716L46.3855 280.412L46.241 280.229L39.2674 277.965L39.0458 277.888L31.7736 279.979L31.4269 278.283L27.8438 275.066L25.927 276.164L23.8176 275.673L13.0586 267.003L12.7696 266.752L10.246 267.35L8.30032 267.07L1.98169 264.46L-0.513 262.581L-1.41843 259.952L4.02368 253.902L10.8625 253.228L14.8019 247.361L17.7783 250.463L21.6215 248.132L22.6328 243.845L29.8857 243.518L32.3805 240.589L32.9199 235.734L36.1466 232.218L36.4837 231.852L33.8445 227.064L33.989 224.165L41.4731 220.967L50.7391 212.451L56.9037 204.793L58.2714 201.874L59.8415 199.341L61.2863 200.728L62.3073 205.043L62.3747 205.361L69.4061 209.253L73.3552 218.144L73.5286 223.308L69.9166 228.057L71.3999 235.58L72.2283 239.443L67.8938 244.365L69.3868 247.997L76.6783 252.399Z" fill="#1F2122"/>
<path d="M228.662 -31.2354L225.936 -33.5473L226.062 -35.5413L229.394 -38.1808L233.247 -36.678L234.239 -33.8652L228.662 -31.2354Z" fill="#1F2122"/>
<path d="M109.851 66.3567L109.495 61.5595L111.517 61.993V65.2297L109.851 66.3567Z" fill="#1F2122"/>
<path d="M756.297 -8.67485L757.058 -13.6937L763.714 -14.2138L766.709 -17.9129L791.126 -15.9959L792.85 -10.6592L779.154 -1.76797L785.203 1.44945L787.004 20.1568L781.254 21.7944L775.744 19.0779L767.48 41.3783L757.722 41.1471L748.765 43.6999L745.653 35.6756L731.523 36.4751L729.115 40.4921L720.08 42.4957L718.52 46.8884L713.511 47.3797L711.903 52.6779L705.854 54.4792L706.961 60.182L701.654 65.4127L694.055 65.8944L689.19 69.998L682.737 68.0618L675.994 71.1058L672.931 66.0003L672.758 65.6921L667.518 64.9599L664.532 59.1127L664.33 58.7081H656.114L650.508 56.4155L647.628 49.4219L659.697 36.138L659.88 35.9453V28.393L643.554 16.8816L647.137 10.3504L657.048 3.3568V-7.67302L666.256 -2.24L670.928 -4.80237L677.969 -5.53448L678.788 -13.029L671.034 -17.1326L666.227 -15.7455L661.161 -21.6505L668.539 -27.912L674.289 -29.4051L673.49 -33.3354L681.475 -45.5404L711.614 -60.9629L731.668 -73.4665L748.851 -69.0739L748.996 -69.0353L755.863 -71.9542L744.709 -76.183L748.784 -81.1922L749.718 -88.3881L765.283 -97L770.466 -90.6518L765.823 -87.5596L770.841 -84.111L766.911 -79.4872L776.996 -77.628L779.125 -73.2739L786.137 -74.4876L786.301 -69.3629L779.106 -70.3262L782.727 -66.3092L769.984 -57.2349L762.047 -57.9477L757.221 -54.1716L757.799 -47.6789L755.632 -42.978L751.645 -47.0721L748.784 -44.9143L743.602 -49.2299L741.906 -41.4656L746.203 -36.8611L751.779 -38.884L751.972 -34.1446L755.43 -36.1675L757.453 -35.4354L758.734 -23.1822L756.403 -18.6354L750.065 -16.6414V-9.07943L756.297 -8.67485Z" fill="#1F2122"/>
<path d="M495.547 53.6989L492.475 51.9072L491.377 49.4989L497.647 50.2696L497.907 53.0824L495.547 53.6989Z" fill="#1F2122"/>
<path d="M513.868 42.8233H511.546L510.391 37.8045L511.874 36.4077L514.436 38.4402L513.868 42.8233Z" fill="#1F2122"/>
<path d="M673.538 -74.1216L671.304 -63.6698L669.926 -62.3693L662.163 -71.0197V-75.6436L666.43 -81.6739L673.413 -82.194L676.091 -78.7936L673.538 -74.1216Z" fill="#1F2122"/>
<path d="M384.971 92.5489L383.931 91.3159L384.288 90.0154L385.819 87.7999L388.343 87.8961L389.219 90.1021L384.971 92.5489Z" fill="#1F2122"/>
<path d="M-236.248 305.573L-236.007 310.862L-241.218 310.64L-245.909 314.051L-250.166 309.629V305.236L-254.597 298.252L-246.766 295.7L-244.214 298.975L-244.011 299.216L-238.694 299.755L-238.174 299.803L-236.893 297.395L-233.32 303.734L-236.248 305.573Z" fill="#1F2122"/>
<path d="M234.644 -38.8262L232.746 -39.7221L234.355 -41.639L235.935 -40.2519L234.644 -38.8262Z" fill="#1F2122"/>
<path d="M523.943 46.7246L517.027 48.1118V42.4572L518.385 41.0315L520.774 37.66L524.02 38.3535L528.412 38.9219L530.54 43.4783L523.943 46.7246Z" fill="#1F2122"/>
<path d="M730.049 410.236L727.227 440.349L721.448 451.215L711.806 458.527L698.196 458.353L690.779 465L690.452 460.521L676.196 446.765L681.08 436.737L696.963 435.456L692.735 428.635L693.438 408.319L699.882 406.98L697.339 402.193L699.939 398.985L711.209 398.282L711.498 398.214L718.558 393.783L718.934 393.552L718.192 387.146L723.239 386.973L725.002 375.615L717.518 375.028L713.646 371.078L720.263 366.416L726.341 370.49L727.256 374.758L727.343 375.201L731.417 376.28L734.008 394.448L730.049 410.236Z" fill="#1F2122"/>
<path d="M772.951 356.754L770.764 357.688L764.908 358.073L765.929 363.901L765.438 370.192L759.167 362.707L758.204 356.214L751.365 353.18L748.177 344.52L742.667 340.59L737.977 333.365L731.35 323.395L725.917 316.863L722.296 307.914L711.151 302.231L705.151 289.38L705.112 289.294L699.198 285.123L699.997 281.664L702.868 282.348L705.093 279.613L701.529 274.594L695.422 270.557L696.077 267.619L698.996 266.406L703.706 272.031L714.282 278.967L721.978 292.559L738.921 306.903L761.691 321.352L752.338 321.824L746.193 325.042L748.957 332.642L753.725 344.115L761.257 349.192L767.672 351.851L773.625 351.889L777.141 358.806L772.951 356.754Z" fill="#1F2122"/>
<path d="M685.704 385.181L680.628 387.367L670.87 397.588L669.137 402.539L656.702 408.213L650.913 403.445L645.432 395.315L652.069 385.797L657.251 381.173L667.711 381.347L672.537 385.007L672.864 385.267L686.85 380.817L685.704 385.181Z" fill="#1F2122"/>
<path d="M620.687 17.4981L618.79 16.3132L619.56 14.2614L622.132 13.7701L622.893 16.2843L620.687 17.4981Z" fill="#1F2122"/>
<path d="M651.799 332.315L640.963 333.962L643.775 339.588L640.076 343.354L639.094 348.575L633.373 354.856L632.968 355.299L635.588 358.391L632.043 362.842L631.889 363.034V369.826L642.552 374.845L650.595 385.316L644.045 394.698L640.433 395.141L633.189 392.984L629.443 394.756L624.174 392.454L615.765 395.604L594.43 374.845L577.054 358.69L576.909 358.546L564.908 360.337L555.025 357.12L542.33 363.256L534.663 352.448L537.341 348.893L537.803 348.248L532.236 345.252L531.533 336.322L531.456 335.484L525.956 336.717L523.018 331.843L522.642 331.217L515.804 334.79L512.712 331.881L515.255 328.51L507.404 323.587L512.924 320.177L518.982 317.904L524.338 321.998L527.237 319.57L530.955 322.797L531.494 323.269L535.684 319.339L544.209 319.618L549.872 323.761L550.2 324.011L561.585 320.033L565.515 323.115L581.331 316.305L585.732 317.191L585.858 317.21L591.868 315.101L591.194 311.353L614.59 299.919L617.759 303.136L612.076 314.715L612.028 314.812L612.644 320.36L608.531 322.576L608.108 322.788L608.512 329.117H618.905L623.23 335.224L623.48 335.561L629.125 335.224L629.375 335.205L637.89 327.864L639.113 323H645.162L647.069 319.397L650.286 319.869L653.898 330.34L651.799 332.315Z" fill="#1F2122"/>
<path d="M541.02 363.998L532.361 369.652L526.842 379.17L534.374 379.912L537.591 387.974L532.679 392.598L532.583 392.685L529.539 410.564L529.52 410.67L532.274 417.047L525.638 421.382L522.883 428.481L503.003 425.476L498.418 429.444L495.172 426.564L483.517 427.113L475.214 434.377L473.567 439.366L468.568 439.53L451.876 448.932L427.497 446.832L424.28 441.139L421.4 441.023L422.768 436.236L427.68 433.828L428.537 433.384L422.98 427.682L427.969 423.896L426.158 418.781H435.029L440.914 414.167L446.463 414.87L456.432 402.462L462.519 402.019L462.914 402L464.966 398.86L470.254 396.827L470.408 396.721L474.694 391.75L474.839 391.577L475.388 385.585L470.899 382.772V378.621L480.078 372.032L483.324 365.106L491.425 362.418L491.974 362.245L491.435 355.164L491.406 354.895L485.992 350.28L485.732 350.126L480.367 349.24L475.773 336.293L473.124 333.952L475.436 330.87L484.615 332.199L484.914 332.247L490.876 328.356L491.174 328.153L491.435 320.803L491.444 320.428L485.482 316.449L485.029 308.791L487.726 306.835L495.432 306.624L505.391 323.982L505.507 324.117L513.116 328.885L510.718 332.045L515.534 336.563L522.065 333.162L525.185 338.364L530.078 337.276L530.753 345.743L530.791 346.119L535.607 348.71L532.814 352.428L541.02 363.998Z" fill="#1F2122"/>
<path d="M495.846 413.338L496.867 408.242L490.279 404.37L489.961 404.187V404.139L489.903 404.158L489.653 404.013V404.196L483.941 405.275L481.61 410.467L478.691 407.953L475.339 414.533L465.139 415.708L462.827 421.285L475.484 428.722L476.014 429.04L498.572 418.81L492.976 413.974L495.846 413.338Z" fill="#1F2122"/>
<path d="M360.612 24.8673L360.092 22.5458L360.265 22.0063L364.821 24.6361L364.966 25.7921L360.612 24.8673Z" fill="#1F2122"/>
<path d="M482.506 363.863L482.197 363.969L478.922 371.059L469.377 377.917V383.534L473.798 386.308L473.355 391.028L469.425 395.594L464.166 397.617L463.935 397.704L462.018 400.622L455.969 401.056L455.623 401.085L445.788 413.338L440.462 412.654L434.471 417.345H424.049L426.187 423.405L420.774 427.528L426.091 432.989L421.776 435.118L421.477 435.253L419.84 440.966L415.399 440.783L413.116 437.026L404.255 437.575L395.846 435.061L385.01 441.129L377.68 441.312L367.171 436.111L364.137 425.033L349.227 421.805L333.363 415.794L331.109 411.691L333.922 408.695L333.161 405.824L335.27 403.83L335.106 403.166L338.266 403.233L338.526 403.252L344.873 398.985L348.688 403.878L361.729 413.598L361.932 413.752H368.192L372.642 419.118L373.268 424.156L380.281 425.437L381.321 429.367L388.468 427.133L388.844 427.007L390.211 422.624L399.969 418.569L403.398 414.995L404.467 409.273L408.637 409.62L412.404 404.765L417.759 403.204L418.029 403.127L421.891 397.203L422.113 394.207L425.041 393.513L426.437 390.229L425.484 387.367L426.235 386.106L428.903 383.784L430.772 379.401L430.868 379.17L429.472 374.71L428.894 366.897L430.444 358.719V358.603L429.76 354.557L425.898 354.124L425.407 354.085L422.623 358.719L421.044 367.87L420.986 368.024L418.944 363.497L419.647 357.158L423.933 352.351L418.867 348.334L418.308 345.377L425.426 344.539L425.975 344.481L426.9 340.349L430.541 341.553L438.198 339.154L438.535 339.058L440.317 335.051L443.371 336.582L446.983 336.63L449.786 340.233L465.871 336.139L466.314 336.033L467.981 329.974L470.918 330.398L474.01 327.142L474.299 329.897L471.111 334.155L474.424 337.016L479.067 350.107L479.211 350.512L485.135 351.475L489.942 355.569L490.375 361.252L482.506 363.863Z" fill="#1F2122"/>
<path d="M489.826 413.203L495.894 418.424L476.1 427.402L464.706 420.698L466.218 417.028L475.937 415.91L476.341 415.862L479.173 410.323L482.159 412.895L485.029 406.528L489.614 405.67L495.172 408.945L494.526 412.163L489.826 413.203Z" fill="#1F2122"/>
<path d="M267.643 86.22L266.796 85.6324L267.287 84.0911L268.26 85.1122L267.643 86.22Z" fill="#1F2122"/>
<path d="M268.741 55.587L267.634 56.6948L266.593 55.3269L267.075 54.2288L268.809 54.354L268.741 55.587Z" fill="#1F2122"/>
<path d="M308.079 -25.5134L308.464 -28.4707L312.75 -28.567L314.099 -24.473L308.079 -25.5134Z" fill="#1F2122"/>
<path d="M331.475 405.381L332.246 408.31L329.279 411.479L331.995 416.43L331.003 420.023L326.967 420.197L326.775 424.012L323.76 424.898L323.163 433.481L327.834 438.74L325.128 445.011L321.294 448.104L317.268 449.423L314.513 447.015L308.898 446.283L295.191 444.867L290.539 442.68L289.576 437.112L276.438 434.425L274.896 432.238L265.967 432.787L242.032 441.235L241.242 436.12L245.538 433.317L239.576 423.356L239.027 417.692L248.061 417.153L248.543 417.114L251.047 410.939L254.399 411.18L262.538 416.575L276.11 418.28L276.447 418.318L282.342 413.695L286.002 412.895L286.204 409.639L291.097 406.691L290.731 403.599L294.199 402.742L295.326 398.301L312.327 396.885L312.895 396.846L313.733 393.205L327.439 402.202L327.661 402.347L333.267 402.01L333.604 403.387L331.475 405.381Z" fill="#1F2122"/>
<path d="M852.203 120.176L849.969 118.086L855.43 116.131L857 116.468L852.203 120.176Z" fill="#1F2122"/>
<path d="M143.091 124.001L145.817 128.548L143.669 132.141L140.5 131.601L138.699 134.135H135.607L131.61 137.631L126.601 136.524L122.719 140.743L112.519 141.514L65.8326 110.158L65.5147 109.956L60.6505 111.381L40.7507 109.378L37.9189 105.476L37.7262 105.207L32.1204 104.552L26.3315 96.3829L24.2703 86.0274L29.6161 81.4806L30.5504 76.192L41.868 69.2852L44.1605 61.4632L51.8565 69.3622L52.0491 77.454L49.3136 81.6154L43.2743 77.6563L35.8865 79.9778L37.6781 84.8329L35.9347 89.553L42.0125 95.0824L52.9641 89.0425L56.0561 91.7686L58.8205 89.1677L79.1826 93.8686L81.2824 97.4136L85.2797 92.8957L92.6386 94.5044L89.7682 99.7448L83.2281 100.313L87.3795 105.659L97.6569 104.764L104.236 109.368L117.374 109.542V112.894L113.001 116.631L117.316 119.839L119.29 117.046L122.007 117.556L127.439 114.531L127.622 108.53L128.499 104.927H135.164L144.421 114.31L147.859 120.263L143.091 124.001Z" fill="#1F2122"/>
<path d="M262.837 63.5343L261.238 62.5132L259.986 61.0971L261.749 59.6618L263.714 60.1916L264.985 62.3012L262.837 63.5343Z" fill="#1F2122"/>
<path d="M264.436 -5.35146L262.423 -7.24916L262.77 -8.93494L264.985 -9.86935L266.921 -7.46109L267.037 -5.30329L264.436 -5.35146Z" fill="#1F2122"/>
<path d="M262.606 84.6113L260.506 82.781L261.662 80.8352L263.357 81.2494L263.916 83.3783L262.606 84.6113Z" fill="#1F2122"/>
<path d="M-263.362 241.504L-266.974 245.473L-273.216 242.015L-283.108 230.311L-291.748 230.773L-293 224.3L-287.953 219.242L-288.454 209.022L-287.067 206.922L-273.823 215.428L-270.461 213.222L-267.032 215.88L-272.426 230.291L-263.362 241.504Z" fill="#1F2122"/>
<path d="M-239.022 285.335L-242.528 289.669L-243.308 283.851L-251.303 292.155L-255.791 290.151L-256.023 286.568L-250.802 286.067V282.714L-244.445 278.293L-249.087 275.567L-253.133 271.049L-252.699 267.995L-249.636 269.026L-246.458 273.775H-242.152L-241.902 277.773L-238.781 280.229L-239.022 285.335Z" fill="#1F2122"/>
<path d="M-221.944 272.494L-222.811 274.122L-223.1 278.216L-225.027 279.699L-227.02 276.414L-230.941 278.081L-231.21 280.46L-234.225 283.283L-231.702 285.392L-233.734 288.966L-232.434 290.806L-235.757 292.058L-239.06 298.281L-243.183 297.867L-246.207 294.004L-255.396 296.99L-257.39 293.84L-260.444 295.102L-261.667 293.513L-260.367 282.82L-259.789 276.202L-261.494 269.093L-261.301 264.498L-264.383 262.321L-265.221 259.971L-263.189 257.717L-263.564 251.532L-259.924 248.421L-254.587 256.85L-251.688 253.343L-244.811 253.006L-240.602 254.981L-239.677 246.668L-233.426 252.014L-230.96 256.599H-226.914L-223.004 261.146L-226.414 267.311L-221.944 272.494Z" fill="#1F2122"/>
<path d="M-240.419 277.069L-240.717 272.349H-245.61L-248.635 267.841L-253.961 266.049L-254.732 271.492L-250.243 276.501L-247.151 278.399L-251.861 281.674L-252.324 281.982L-252.314 284.776L-257.621 285.277L-257.255 291.095L-250.946 293.898L-244.406 287.126L-243.578 293.33L-237.519 285.845L-237.221 279.574L-240.419 277.069Z" fill="#1F2122"/>
<path d="M-196.853 333.24L-195.861 337.151L-196.593 345.464L-205.647 353.623L-208.122 367.128V376.328L-211.368 378.245L-214.133 377.436L-217.311 375.846L-218.766 378.178L-220.615 378.91L-225.017 373.775L-224.112 370.336L-223.726 362.755L-229.024 355.627L-229.38 350.589L-227.637 348.941L-220.066 349.568L-219.681 349.596L-217.822 347.631L-214.248 350.463L-209.846 342.449L-206.841 342.67L-202.825 341.139L-204.433 335.407L-208.806 334.636L-212.245 330.022L-209.047 328.163L-210.386 325.629L-207.419 323.433L-201.129 323.684L-199.078 322.181L-193.636 327.306L-192.49 330.147L-196.853 333.24Z" fill="#1F2122"/>
<path d="M-177.165 157.899L-178.879 159.489V161.656L-178.831 161.839L-178.041 163.053L-189.263 170.769L-197.681 170.47L-193.144 164.854V161.926L-197.508 161.146L-200.6 161.464L-201.678 156.705L-204.934 154.219L-208.681 154.383L-209.172 151.041L-201.784 145.136L-199.723 140.492L-196.834 141.07L-197.19 144.105L-193.164 147.708L-187.943 148.112L-187.394 148.488L-182.26 148.796L-183.243 150.395L-183.137 152.823L-181.653 155.568L-178.947 157.023L-177.386 155.876L-175.518 156.002L-175.383 156.907L-177.165 157.899Z" fill="#1F2122"/>
<path d="M-169.922 296.923L-167.331 301.325L-169.873 308.271L-169.883 308.463L-169.045 312.028L-172.792 311.633L-172.994 311.662L-175.036 312.5L-177.184 309.475L-180.064 312.721L-177.598 318.27L-180.343 320.408L-184.36 322.412L-180.43 327.604L-185.526 329.81L-191.045 329.704L-192.307 326.573L-198.24 320.948L-197.989 315.785L-199.328 310.438L-203.21 303.84L-202.199 298.175L-202.15 297.915L-205.917 291.856L-207.621 287.598L-211.407 286.577L-213.362 283.947L-216.281 284.448L-218.477 281.915L-216.627 279.911L-212.332 281.424L-210.771 278.977L-208.7 279.786V284.458L-204.761 286.173V290.363L-202.305 294.129L-196.439 293.542L-194.898 290.874H-187.404L-182.231 285.469L-182.578 281.876L-187.028 281.385L-187.182 279.381L-177.791 280.325L-176.731 277.609L-174.738 277.763L-173.688 282.416L-169.671 282.926L-167.812 287.512L-169.864 296.673L-169.922 296.923Z" fill="#1F2122"/>
<path d="M239.595 435.446L240.606 441.939L234.894 445.927L225.696 446.293L223.644 450.512L217.335 449.847L213.126 444.019L211.691 439.174L204.746 442.622L202.415 439.925L196.54 438.721L196.357 432.768L190.298 429.56L189.701 424.031L196.395 423.299L195.181 418.328L191.858 416.767L193.727 414.359L199.034 412.693L205.835 413.271L206.297 413.319L210.342 407.606L210.67 405.015L214.263 407.674L219.358 406.72L219.618 406.672L219.791 406.585L226.9 406.788L229.144 409.177L227.564 415.708L232.679 421.892L237.562 418.386L238.083 423.722L243.525 432.883L239.595 435.446Z" fill="#1F2122"/>
<path d="M-139.841 83.6287L-141.912 85.1893L-142.037 85.3338L-143.193 88.1659L-143.212 88.3008L-143.01 96.2384L-149.685 98.2613L-150.099 101.219L-152.42 101.421L-153.162 103.974L-156.87 107.461L-158.199 112.663L-160.347 115.784L-165.828 116.776L-167.533 115.928L-170.259 116.593L-169.141 114.724L-170.172 109.908L-174.709 108.838L-175.364 106.237L-172.07 102.413L-175.027 98.8971L-175.383 93.0306L-168.419 88.7728L-168.236 84.12L-163.661 83.5998L-159.721 77.4251L-153.143 77.7815L-149.646 73.2154L-143.925 69.054L-140.823 68.7168L-140.592 73.5141L-137.837 77.7911L-139.841 83.6287Z" fill="#1F2122"/>
<path d="M-22.0214 38.5847L-23.2639 46.3586L-26.5485 51.6664L-32.3662 53.4389L-39.4747 61.7522L-41.8634 65.8655L-39.3591 69.1214L-39.9081 71.5104L-39.4843 74.2076L-39.6866 74.2943L-42.3739 76.9916L-44.2714 76.6352L-48.5577 75.5659L-49.1163 78.7448L-54.1539 83.4746L-54.2503 83.6384L-55.5313 87.9732L-52.6321 92.6067L-57.6696 97.5388L-57.7659 97.7122L-58.8351 102.307H-61.5899L-63.8149 104.609L-66.3289 103.829V98.7815L-70.2973 98.8296L-68.9584 94.3214L-63.4104 88.4356L-60.0873 85.4205L-59.9139 85.2567L-59.1144 80.5269L-60.8289 77.5696L-66.0977 76.404L-74.1404 84.5631L-76.4136 88.6957L-76.4618 88.8787L-75.9898 94.4274L-76.4136 95.5159L-80.8443 90.0732L-83.8785 89.5434L-85.4677 84.592L-89.205 84.9292L-89.5325 87.7228L-89.9178 87.6361L-91.3529 85.2953L-94.4544 86.1526L-94.676 89.2833L-95.5814 89.1003L-96.5831 87.1159L-95.8222 85.2375L-92.6629 82.9544L-92.0272 78.8411L-92.0175 78.7737L-92.2487 74.5352L-90.1297 72.2136L-89.9948 67.8017L-92.711 64.2278L-99.0297 63.3898L-103.277 64.1604L-103.489 59.9315L-95.6199 59.6521L-77.0108 61.9737L-72.5319 60.2494L-71.193 50.6742L-69.4111 44.7884L-62.5723 45.8288L-60.1354 43.5361L-61.8114 40.5595L-59.0663 38.6233L-57.2362 35.4444L-55.8299 32.1499L-52.2179 32.3233L-46.9202 28.9421L-42.6918 29.1251L-34.8513 19.8485L-28.4363 27.8825L-29.6596 33.5852L-23.2639 36.6003L-22.0214 38.5847Z" fill="#1F2122"/>
<path d="M-79.3899 98.5021L-84.2926 98.3962L-88.1069 99.5714L-94.021 103.733L-97.633 110.775L-103.383 110.351L-103.509 110.341L-106.263 111.728L-106.629 108.492L-108.951 104.157L-108.142 100.294L-111.041 99.9182L-111.648 97.6255L-116.059 97.5099L-116.839 96.1998L-115.972 94.6393L-115.867 94.3599L-116.155 91.0847L-120.711 89.659L-121.848 91.0847L-123.312 90.9306L-125.643 88.9654L-129.043 89.3893L-130.806 86.4608L-130.921 86.2586L-133.965 84.9003L-137.539 86.5764L-138.386 84.0526L-136.277 77.926L-136.171 77.6081L-139.089 73.1769L-139.311 68.5627L-135.737 68.1774L-129.977 64.7288L-125.383 68.8806L-122.474 69.0443L-120.663 73.3985L-117.764 71.1251L-118.563 68.2833L-118.207 62.7444L-110.781 60.182L-105.011 59.9797L-104.472 70.682L-114.027 81.548L-114.412 82.0007L-112.254 84.5053H-106.475L-103.981 87.9829L-97.8931 87.8672L-96.6313 90.3333L-93.2697 91.0462L-93.0096 87.2411L-92.0753 86.981L-90.9099 88.8884L-88.2032 89.476L-87.818 86.2393L-86.5658 86.1237L-85.0728 90.7861L-81.7016 91.3833L-77.2227 96.8645L-79.3899 98.5021Z" fill="#1F2122"/>
<path d="M14.6189 6.01551L11.9894 7.58569L12.7792 13.3366L17.5278 20.5517L19.3868 26.3026L19.0016 42.2742L22.0164 53.2462L20.167 62.3109L13.5113 70.8168L4.76538 72.3581L-9.66345 64.1797L-10.5785 58.5058L-14.5469 52.7453L-15.2886 43.4398L-18.1108 37.7274L-17.1572 31.2926L-20.095 27.3815L-21.6458 36.3595L-22.1851 35.5022L-27.9355 32.8049L-26.8856 27.8536L-26.8085 27.5357L-33.8688 18.6829L-30.9792 15.2632L-21.3279 15.0898L-16.2325 7.3545L-16.4155 2.14303L-9.42267 -1.67164L-6.70642 -3.54044L7.37564 -2.31705L17.21 3.96367L19.6372 8.36597L17.4411 9.74348L14.6189 6.01551Z" fill="#1F2122"/>
<path d="M-157.573 289.544L-153.133 295.353L-157.872 299.466L-158.536 302.973L-154.337 303.907L-151.89 307.038L-154.828 322.585L-158.931 323.327L-157.621 329.117L-172.908 329.454L-178.648 327.489L-182.116 322.913L-179.611 321.661L-175.759 318.694L-178.301 312.972L-177.319 311.864L-175.605 314.291L-172.676 313.087L-167.099 313.665L-168.332 308.454L-165.664 301.19L-168.323 296.711L-166.281 287.598L-166.261 287.502L-166.271 287.3L-168.188 282.56L-165.703 281.086L-155.146 283.138L-152.651 287.319L-155.04 288.311L-157.573 289.544Z" fill="#1F2122"/>
<path d="M69.3964 318.607L51.8372 315.447L46.3758 312.692L42.8023 315.341L37.0038 311.941L26.7746 309.687L29.8087 304.62L21.7852 300.083L21.9875 297.068L31.9566 290.074L32.2552 289.862L32.3901 283.138L32.053 281.395L39.017 279.391L45.3067 281.443L48.2926 285.055L48.6683 285.518L52.7811 283.581L57.366 285.633L56.3932 290.064L58.9264 295.565L60.0726 299.582L64.9753 300.988L68.7607 304.215L68.8956 308.001L75.1468 313.155L75.4839 315.996L69.3964 318.607Z" fill="#1F2122"/>
<path d="M141.791 298.233L145.384 301.807V319.397L140.539 322.046L141.801 326.602L136.898 326.285L131.899 328.192L131.668 328.288L128.74 333.201L128.682 333.384L129.269 346.273L126.197 353.141L118.279 354.5L118.173 354.519L115.332 356.831L112.182 357.486L108.387 355.53L104.409 356.667V354.529L108.936 351.012L105.546 347.429L102.328 346.678L98.7164 346.514L98.3408 342.487L90.1824 340.705L89.5371 338.114L93.3224 334.01L92.1955 330.822L93.8426 329.097L93.6403 324.05L91.0493 323.337L91.9933 320.957L98.1674 315.524L98.3311 315.37L99.3136 311.093L102.617 307.664L107.616 308.598L109.302 306.123L110.179 302.51V302.308L108.763 298.696L108.637 298.387L104.553 296.923L104.168 295.603L105.863 293.677L106.027 293.513L106.605 288.003L112.548 282.589L115.303 285.171L112.635 288.725L116.767 289.457L123.76 294.149L129.106 293.407L133.864 295.912L139.046 296.152L139.287 296.162L145.336 292.261L145.547 293.918L141.791 298.233Z" fill="#1F2122"/>
<path d="M220.408 389.959L223.432 393.109L222.334 397.232L218.78 399.361L218.472 405.42L214.657 406.142L209.389 402.241L208.965 406.961L205.526 411.816L198.957 411.248L193.014 413.078L192.783 413.145L189.576 417.297L193.852 419.311L194.526 422.066L189.296 422.634L186.243 416.719L181.61 414.822L173.509 417.663L163.473 412.5L162.519 407.684L158.801 406.248L155.305 410.978L150.961 411.604L141.974 371.068L145.345 369.209L148.524 371.078L150.547 369.749L154.553 371.367L173.163 365.346L177.449 370.722L178.412 374.536L178.441 374.652L184.105 379.786L184.634 380.278L191.955 373.573L194.652 375.557L197.435 373.544L205.372 374.257L205.709 374.295L210.111 370.539L212.847 370.201L213.415 374.478L218.231 379.305L219.839 383.543L223.789 386.202L220.408 389.959Z" fill="#1F2122"/>
<path d="M209.013 369.537L205.189 372.802L197.272 372.099L196.973 372.07L194.652 373.746L191.849 371.666L184.634 378.274L179.828 373.92L178.884 370.182L173.712 363.651L154.621 369.826L150.373 368.111L148.476 369.363L145.759 367.764L145.374 367.543L141.396 369.729L133.594 357.592L137.986 353.267L127.882 353.055L130.772 346.61L130.801 346.456L130.223 333.644L132.737 329.425L137.042 327.739L143.814 328.163L142.311 322.74L146.906 320.216V313.184L170.003 323.52L174.309 328.808L175.802 334.02L183.209 333.827L185.742 338.239L199.343 338.605L198.803 347.092L198.784 347.362L201.404 350.569L206.509 346.562H209.206L209.013 369.537Z" fill="#1F2122"/>
<path d="M-90.8906 275.991L-90.9869 278.283L-93.7802 278.871L-98.0472 279.921L-103.749 280.268L-105.445 279.025L-107.997 279.227L-111.156 281.674L-117.042 280.595L-119.662 283.244L-121.732 287.117L-125.412 288.687L-127.213 285.595L-126.317 282.83L-125.913 279.102L-129.544 275.846L-129.756 267.388L-133.907 266.608L-135.352 264.652L-135.574 258.911L-139.128 260.346L-140.9 260.231L-140.765 257.909L-137.847 254.798V249.866L-144.454 243.855L-144.715 243.681L-148.221 242.988L-150.436 240.281L-150.773 236.302L-149.425 235.175L-149.078 229.8L-144.801 229.107L-137.067 225.379L-131.143 234.145L-126.943 234.549L-125.942 236.197V239.067L-117.157 243.884L-109.48 245.155L-109.374 249.365L-100.956 253.642L-98.4229 254.441L-98.2398 256.734L-97.0166 261.281L-93.7224 265.221L-94.1366 269.825L-94.1559 270.085L-91.1796 274.122L-90.8906 275.991Z" fill="#1F2122"/>
<path d="M30.7526 289.13L20.8027 296.123L20.5138 296.326L20.2055 300.863L27.7474 305.121L25.1757 309.446L15.4569 308.868L10.4772 303.84L6.92294 304.822L3.099 308.608L4.66904 313.79L7.75128 318.597L5.61298 320.466L1.44229 317.393L-2.39127 317.201L-6.08032 319.127L-6.62936 323.799L-13.6512 324.329L-15.4427 326.545L-16.1266 324.637L-13.3814 322.624L-12.4279 319.946L-14.2579 316.237L-21.6843 314.089L-21.2508 311.556L-20.8655 308.858L-16.6467 307.934L-16.1362 307.837L-15.5294 303.849L-11.9655 298.137L-6.22482 295.102L-3.29669 296.528L-0.590088 296.557L0.662109 292.376L3.52283 291.538L6.4606 289.39L2.63666 285.652L0.565765 286.577L-1.5629 287.608L-11.1564 284.641L-13.2177 283.071L-15.6642 277.888L-14.6432 275.085L-10.357 272.648L-8.29572 272.812L-6.55231 274.96L-6.44635 279.169V279.507L-3.59528 281.664L-0.705658 280.412L1.20151 280.585L2.51144 281.462L6.63397 285.229L9.32132 283.832L10.9588 280.749L8.48334 277.638L8.21362 275.875L10.4386 271.993L10.9684 268.66L12.3651 268.323L23.0277 276.925L26.187 277.696L27.6415 276.857L30.0206 278.996L30.8779 283.177L30.7526 289.13Z" fill="#1F2122"/>
<path d="M-17.9085 324.127L-16.483 328.134L-15.8954 328.519L-10.6941 339.212L-13.5452 343.065L-16.3385 345.04L-22.9653 343.017L-24.6606 339.829L-27.2708 339.01L-30.1027 340.609L-32.6552 339.809L-35.9108 336.399L-36.614 333.731L-35.8338 328.587L-39.388 326.554L-42.3354 323.78L-44.9264 326.41L-47.5367 325.947L-48.7022 324.069L-48.5096 321.256L-54.8089 318.665L-58.2957 318.443L-61.5706 320.495L-64.046 318.79L-64.99 314.234L-66.3866 311.411L-68.6213 310.785L-72.7438 313.135L-74.1597 310.477L-72.4837 306.614L-74.0249 300.266L-75.5949 295.102L-79.467 293.831L-80.5457 292.675L-79.5247 290.594L-79.2743 287.704L-83.7436 285.71L-85.7471 287.415L-87.9528 287.858L-90.0526 283.08L-89.86 279.256L-81.5956 278.611L-75.8453 273.919L-73.1387 273.544L-67.5136 271.887L-67.215 271.81L-65.1152 268.168L-57.1977 263.997L-56.9954 263.891L-55.801 261.753L-54.4236 257.485L-52.3431 259.682L-53.3063 263.593L-51.1776 268.024V277.83L-48.9815 280.73L-49.2031 288.128L-47.3441 290.093L-47.5078 292.752L-49.5883 293.513L-48.7118 300.401L-45.8703 298.618L-42.528 298.464L-42.7688 302.135L-45.7451 302.963L-45.9089 305.651L-44.0788 307.452L-47.1514 310.534L-45.0902 314.291L-37.2497 315.968L-33.2234 319.763L-33.0308 319.946L-27.685 320.437L-25.7297 316.131L-22.5608 315.341L-15.356 317.412L-14.0653 320.042L-14.6818 321.757L-17.9085 324.127Z" fill="#1F2122"/>
<path d="M77.5741 81.3072L70.4271 81.1338L67.4219 77.4058L68.7318 73.071L74.0969 71.2985L77.8919 75.1709L78.3446 78.9856L77.5741 81.3072Z" fill="#1F2122"/>
<path d="M-224.574 329.097L-226.423 334.617L-228.764 336.38L-231.634 337.276L-231.673 336.515L-239.224 333.143L-239.484 327.527L-233.339 325.678L-224.901 327.595L-224.352 327.729L-223.062 325.649L-220.663 327.469L-224.574 329.097Z" fill="#1F2122"/>
<path d="M-225.094 326.082L-233.281 324.213H-233.493L-239.947 326.159L-240.919 324.753L-241.102 319.04L-244.878 315.11L-240.736 312.095L-235.516 312.317L-227.858 318.8L-227.637 318.992H-223.707L-222.657 322.133L-225.094 326.082Z" fill="#1F2122"/>
<path d="M-179.891 249.355L-179.082 256.734L-181.143 260.616L-184.562 260.819L-186.826 258.69L-193.549 262.302L-190.669 266.367L-192.759 273.534L-188.743 278.823L-188.454 282.666L-183.984 283.157L-183.811 284.988L-188.078 289.438H-195.793L-197.402 292.203L-201.505 292.607L-203.239 289.958V285.267L-207.169 283.543V278.832L-211.397 277.175L-212.987 279.661L-217.08 278.216L-219.45 280.788L-221.578 278.331L-221.347 274.565L-220.143 272.311L-224.603 267.138L-221.193 260.973L-225.961 255.424L-226.192 255.164H-230.016L-231.567 252.293L-229.024 250.415L-223.755 253.43L-219.979 250.993L-230.286 245.251L-226.067 241.119L-216.261 242.323L-211.84 248.469L-205.348 246.176L-201.794 240.185L-198.799 239.838L-196.554 236.678L-190.525 236.852L-190.457 235.31L-186.575 237.246L-182.472 239.732L-178.87 237.372L-174.786 237.574L-173.861 245.656L-179.891 249.355Z" fill="#1F2122"/>
<path d="M-132.867 276.029L-138.714 277.455L-144.454 280.422L-145.389 284.988L-151.226 286.799L-154.154 281.876L-165.693 279.632L-165.992 279.564L-169.296 281.529L-172.416 281.134L-173.476 276.414L-177.772 276.087L-178.812 278.794L-187.577 277.898L-191.102 273.255L-189.012 266.107L-191.372 262.784L-187.086 260.481L-185.15 262.283L-180.17 261.994L-177.579 257.11L-177.521 257.004L-178.282 250.078L-172.243 246.379L-173.293 237.266L-168.043 234.26L-167.523 230.812L-162.389 231.457L-159.673 230.696L-157.506 234.761L-152.276 236.524L-151.929 240.599L-151.842 240.888L-149.097 244.279L-145.36 245.02L-139.378 250.473V254.268L-142.258 257.331L-142.509 261.56L-138.983 261.791L-137.018 261.05L-136.855 265.124L-134.813 267.899L-131.249 268.563L-131.076 275.518L-132.867 276.029Z" fill="#1F2122"/>
<path d="M-145.292 141.937L-149.656 147.814L-153.528 150.164L-159.933 150.761L-161.243 148.989L-164.412 148.526L-165.481 149.124L-166.945 144.394L-171.27 144.163L-173.957 146.503L-178.59 146.417L-181.124 147.428L-186.672 147.091L-186.547 145.347L-184.042 142.448L-185.025 139.125L-184.659 133.932L-181.316 127.478L-178.157 122.758L-171.915 119.386L-171.155 118.096L-170.74 118.153L-167.725 117.46L-166.541 118.048L-165.029 121.409L-160.145 130.031L-156.225 132.776L-148.712 134.067L-148.269 137.082L-148.192 137.265L-145.158 140.743L-145.292 141.937Z" fill="#1F2122"/>
<path d="M515.081 -11.6226L513.001 -12.056L513.714 -14.551L515.929 -13.7803L515.081 -11.6226Z" fill="#1F2122"/>
<path d="M-207.005 341.216L-210.742 340.946L-214.73 348.219L-217.976 345.628L-220.317 348.113L-227.203 347.545L-227.724 345.156L-228.928 342.092L-218.313 337.411L-220.683 329.04L-219.074 328.375L-215.163 328.587L-209.866 335.706L-209.683 335.946L-205.666 336.65L-204.645 340.291L-207.005 341.216Z" fill="#1F2122"/>
<path d="M783.026 193.551L765.592 175.046L764.648 164.922L758.926 158.68L761.123 155.925L759.803 151.869L763.964 147.602L760.313 136.764L757.674 126.178L756.547 109.667L753.166 104.292L756.239 89.8709L752.974 89.1485L753.166 84.12L749.477 83.9274L742.35 79.2843L741.271 74.2654L746.771 66.5205L736.166 69.9787L733.777 77.4636L743.303 88.1755L740.259 90.8439L735.569 88.3489L734.577 83.4457L734.519 83.2145L730.627 79.8237L730.387 79.6021L724.79 80.0741L721.544 72.1077L721.39 71.7416L716.256 70.7301L708.503 60.1338L707.597 55.4618L713.136 53.8049L714.686 48.709L719.666 48.2178L721.255 43.7095L729.789 41.8214L730.117 41.7444L732.448 37.8526L744.613 37.1687L747.821 45.4724L757.867 42.5825L768 42.8233L768.558 42.8425L776.601 21.1104L780.81 23.2008L781.09 23.3357L787.139 21.6114L789.71 48.2948L794.989 60.4902L785.79 60.6636L779.144 67.0985L778.961 83.5131L770.552 77.2613L774.521 92.1829L769.541 93.2232L768.741 101.248L781.735 125.677L786.31 126.091L787.071 121.968H792.687L795.942 129.193L796.251 128.885L802.184 132.507L805.921 130.58L812.298 136.264L808.541 138.469L805.709 134.732L802.8 136.562L812.317 152.447L821.304 154.923L822.334 159.113L817.846 163.689L817.653 172.147L828.239 183.677L825.214 186.018L824.627 195.064L830.907 200.969L832.949 208.964L834.393 225.928L783.026 193.551Z" fill="#1F2122"/>
<path d="M138.853 294.707L134.374 294.534L129.635 292.039L129.404 291.914L124.145 292.646L117.46 288.157L115.245 287.733L117.277 284.997L112.567 280.566L105.151 287.348L104.563 292.925L102.492 295.266L103.292 298.002L107.453 299.495L108.628 302.501L107.925 305.496L106.894 307.009L102.068 306.094L97.9844 310.351L97.8881 310.506L96.9345 314.638L90.77 320.071L89.5563 323.019L86.503 322.566L82.1396 315.601L76.9769 315.688L76.5916 312.432L70.3885 307.336L70.2633 303.57L65.8229 299.774L61.3152 298.445L60.3905 295.16L57.9825 289.91L58.8782 285.797L62.0472 284.959L61.8546 278.88L64.5997 273.419L74.9734 273.736L75.4454 273.756L79.4138 267.282L85.2123 266.223L85.5687 266.146L87.3698 262.928L91.319 264.537L95.1429 264.566L96.8382 263.333L99.5063 263.863L103.157 262.051L104.448 260.703L110.13 260.896L111.103 258.468L114.051 261.088L120.928 263.776L123.991 264.469L127.988 272.86L133.527 283.09L144.642 290.97L138.853 294.707Z" fill="#1F2122"/>
<path d="M214.397 -33.2198L212.577 -34.8189L213.897 -36.6299L215.823 -37.0826L217.065 -35.3872L214.397 -33.2198Z" fill="#1F2122"/>
<path d="M-55.8106 256.869L-57.1784 261.136L-58.132 262.851L-66.1362 267.061L-66.2903 267.205L-68.2553 270.606L-73.3891 272.128L-76.5099 272.571L-82.2121 277.224L-89.4362 277.753L-89.3687 276L-89.7058 273.679L-92.5858 269.69L-92.1524 264.778L-95.6007 260.713L-96.7276 256.58L-96.901 254.374L-94.753 253.497L-94.0403 249.644L-95.8222 248.806L-95.7644 248.055L-94.021 245.733L-89.3976 245.165L-86.6621 244.885L-83.6858 246.937L-78.9854 250.839L-75.4119 251.725L-72.7342 250.241L-68.5539 246.128L-67.9085 245.675L-64.9033 249.741L-64.6143 250.135L-62.4086 249.712L-60.6556 248.613L-59.2493 249.779L-55.3579 255.077L-55.8106 256.869Z" fill="#1F2122"/>
<path d="M731.388 374.787L728.662 374.055L727.719 369.652L720.697 364.942L720.254 364.634L712.057 370.413L711.383 370.885L716.603 376.203L716.805 376.405L723.259 376.916L721.92 385.585L716.507 385.778L717.316 392.839L710.901 396.866L699.497 397.578L699.15 397.598L695.846 401.682L695.547 402.029L697.657 405.988L693.207 406.903L690.298 399.081L692.195 393.35L687.168 385.614L688.998 378.63L673.172 383.649L668.453 380.066L668.26 379.931L656.971 379.738L656.663 379.728L651.625 384.217L643.631 373.804L633.411 368.949V363.506L637.514 358.372L634.933 355.338L640.452 349.288L640.539 349.124L641.492 344.019L645.596 339.848L643.207 335.07L652.309 333.692L652.54 333.644L655.642 330.735L651.596 319.012L651.452 318.578L646.202 317.827L644.218 321.564H637.89L636.513 327.103L628.759 333.818L624.261 334.087L619.714 327.681H609.947L609.687 323.597L614.263 321.14L613.588 315.062L619.348 303.31L619.57 302.876L614.917 298.137L602.983 303.984L600.344 296.99L604.515 292.79L602.55 288.176L602.473 287.964L595.124 283.446L599.265 275.923L591.685 270.991L594.7 267.687L594.892 267.485V251.513L609.244 246.379L609.687 246.224L610.275 239.963L618.539 239.452L619.021 239.414L621.294 233.605L621.323 233.461L621.043 228.558L625.628 226.554L622.113 214.84L616.391 211.074L620.109 198.705L620.167 198.483L614.879 185.238L617.258 182.329L627.237 185.546L627.439 185.556L634.374 184.14L634.711 184.072L637.071 180.18L645.201 179.053L646.751 173.832L652.444 170.268L665.033 174.208L666.382 180.527L663.251 185.883L663.058 186.22L666.314 192.337L672.479 188.06H678.624L681.6 192.964L678.923 194.62L680.743 197.289L680.31 198.907L674.444 197.867L655.218 215.591L655.064 215.726L656.403 223.991L653.378 231.64L655.642 240.185L653.022 250.444L650.758 271.694L641.714 292.945L641.29 299.64L648.639 300.747L648.793 300.776L656.788 296.162L660.834 307.211L665.698 301.354L670.061 306.575L673.606 291.933L683.132 287.28L695.567 289.361L701.202 291.519L698.813 295.989L701.828 299.379L710.169 302.664L710.516 302.799L712.876 308.078L716.083 322.817L719.705 326.997L730.637 347.901L733.064 354.394L731.388 374.787Z" fill="#1F2122"/>
<path d="M-229.843 340.907L-231.48 339.761L-231.538 338.759L-228.09 337.671L-225.306 335.609L-225.113 335.474L-223.322 330.147L-222.089 329.627L-220.105 336.621L-229.843 340.907Z" fill="#1F2122"/>
<path d="M397.936 81.8948L396.212 84.4475L392.456 81.6443L393.91 78.1957L396.414 78.5425L398.514 79.7755L397.936 81.8948Z" fill="#1F2122"/>
<path d="M299.497 39.9526L296.819 38.5655L296.636 37.082L297.811 36.138L299.67 38.1609L299.497 39.9526Z" fill="#1F2122"/>
<path d="M212.741 -41.8991L212.327 -43.5175L212.731 -44.1436L213.579 -42.4675L212.741 -41.8991Z" fill="#1F2122"/>
<path d="M199.949 -39.8377L198.601 -40.5987L198.986 -41.851L200.046 -41.5234L199.949 -39.8377Z" fill="#1F2122"/>
<path d="M9.00348 271.482L6.74957 275.422L6.64362 275.624L7.01926 278.11L9.17685 280.894L8.1655 282.791L6.8844 283.466L3.55173 280.422L1.85648 279.266L1.66385 279.189L-0.859772 278.967L-3.37372 279.988L-4.93411 278.813L-5.0401 274.468L-7.49625 271.434L-10.7133 271.174L-15.6642 273.996L-15.8954 274.131L-17.2054 277.696L-17.2921 277.956L-14.4987 283.88L-11.9366 285.884L-1.43768 289.159L1.14371 287.887L2.28992 287.386L4.19705 289.246L2.87747 290.228L-0.580444 291.23L-1.74591 295.131H-2.85358L-6.25369 293.484L-12.9769 297.029L-16.9549 303.31L-17.4943 306.652L-22.2333 307.693L-22.7438 311.286L-23.2158 314.022L-26.8374 314.927L-28.6482 318.906L-32.3373 318.568L-36.3828 314.754L-36.4695 314.667L-44.0595 313.039L-45.3117 310.775L-41.9886 307.442L-44.3485 305.101L-44.2907 304.051L-41.3144 303.223L-40.9002 296.962L-46.246 297.202L-46.4386 297.26L-47.4885 297.915L-47.9316 294.447L-46.0534 293.754L-45.774 289.583L-47.6619 287.608L-47.4404 280.287L-49.6557 277.378V268.592H-48.5962L-45.7451 262.601L-43.8187 262.678L-39.6384 265.105L-37.9335 262.87L-38.6463 258.757L-38.6848 258.516L-41.1217 256.224L-40.7365 253.652L-34.8802 254.297L-28.6964 252.467L-27.9547 248.074H-24.9014L-21.3568 245.068L-18.9006 244.991V250.126L-11.5706 250.424L-11.2527 254.249L-7.97784 255L-7.66 256.349L-7.19766 259.152L-5.5506 261.329L-2.77655 260.655L-1.823 263.429L1.17261 265.683L7.83795 268.448L9.42728 268.689L9.00348 271.482Z" fill="#1F2122"/>
<path d="M207.299 -38.9611L205.285 -42.1881L208.464 -43.739L209.649 -41.0611L207.299 -38.9611Z" fill="#1F2122"/>
<path d="M785.453 113.693L777.863 105.688L779.886 99.9953L782.274 100.352L786.513 102.153L785.453 113.693Z" fill="#1F2122"/>
<path d="M834.461 246.706L831.369 242.93L832.043 235.339L834.143 235.879L836.426 237.873L837.033 245.579L834.461 246.706Z" fill="#1F2122"/>
<path d="M842.561 282.233L840.712 279.738L841.964 277.474L843.236 277.638L844.738 280.277L842.561 282.233Z" fill="#1F2122"/>
<path d="M841.242 257.1L837.755 258.593L836.503 256.021L836.869 253.623L841.656 255.607L841.242 257.1Z" fill="#1F2122"/>
<path d="M845.249 293.629L843.669 294.149L842.456 292.241L843.602 289.987L845.673 290.43L845.249 293.629Z" fill="#1F2122"/>
<path d="M836.147 233.181L833.623 232.276L833.979 230.725L834.904 229.925L837.341 231.939L836.147 233.181Z" fill="#1F2122"/>
<path d="M843.621 304.639L842.089 300.718L843.997 298.821L846.559 299.524L848.09 303.541L843.621 304.639Z" fill="#1F2122"/>
<path d="M825.715 367.678L824.02 369.527L823.49 378.63L822.758 378.929L821.641 375.923L822.122 370.712L820.822 366.849L822.045 365.934L824.607 364.797L825.994 365.626L825.715 367.678Z" fill="#1F2122"/>
<path d="M827.719 237.719L825.436 236.331L825.07 234.674L827.603 233.143L828.836 235.05L827.719 237.719Z" fill="#1F2122"/>
<path d="M845.345 126.785L837.283 125.59L835.501 123.018L840.587 121.92L846.491 122.575L848.216 125.378L845.345 126.785Z" fill="#1F2122"/>
<path d="M833.989 371.704L833.247 370.115L833.305 368.053L834.355 367.09L835.549 368.66L836.06 371.011L833.989 371.704Z" fill="#1F2122"/>
<path d="M244.815 -44.3652L244.17 -46.3111L245.942 -47.39L246.694 -45.0491L244.815 -44.3652Z" fill="#1F2122"/>
<path d="M236.378 -52.2161L235.222 -53.189L234.538 -54.3643L235.463 -55.0578L237.63 -53.1216L236.378 -52.2161Z" fill="#1F2122"/>
<path d="M211.209 -54.7785L209.726 -56.7243L210.14 -57.6684L212.327 -55.8285L211.209 -54.7785Z" fill="#1F2122"/>
<path d="M271.429 79.4576L270.543 78.8989L270.591 77.7815L271.92 78.5907L271.429 79.4576Z" fill="#1F2122"/>
<path d="M279.664 -24.9257L277.054 -25.6868L276.929 -27.0257L277.266 -29.4436L278.614 -30.667L280.685 -29.1161L282.371 -25.5904L279.664 -24.9257Z" fill="#1F2122"/>
<path d="M-215.395 65.6535L-222.744 69.2563L-235.044 44.2393L-230.43 44.5379L-226.943 42.4476L-223.967 50.5586L-219.565 53.198L-217.928 47.0425L-214.72 51.7049L-215.395 65.6535Z" fill="#1F2122"/>
<path d="M833.758 343.547L831.061 347.169L830.81 351.128L830.049 355.973L829.626 359.085L829.077 358.834L828.104 352.708L827.863 344.973L831.109 341.813L833.141 340.146L832.92 337.69L834.894 337.777L835.655 340.744L833.758 343.547Z" fill="#1F2122"/>
<path d="M840.568 332.18H838.497L838.391 330.08L838.14 319.638L840.279 317.624L842.215 320.553L842.706 326.39L840.568 332.18Z" fill="#1F2122"/>
<path d="M243.448 -31.5725L237.851 -31.4473L237.225 -34.0386L237.765 -35.1367L241.666 -34.1927L244.103 -37.5065L245.692 -35.0404L243.448 -31.5725Z" fill="#1F2122"/>
<path d="M-103.547 186.779L-109.933 186.981L-110.116 187.03L-114.894 189.717L-121.79 178.803L-120.153 176.462L-118.631 172.436L-120.22 171.058L-122.195 168.669L-123.765 164.17L-122.696 161.088L-118.987 157.052L-117.697 155.934L-117.475 158.949L-113.526 162.908L-109.808 160.028L-108.642 161.126L-109.374 163.872L-111.619 166.694L-108.527 169.844L-105.011 171.328L-98.2302 179.497L-96.8914 183.003L-103.547 186.779Z" fill="#1F2122"/>
<path d="M-82.4047 152.014L-85.8241 154.258L-91.0062 154.47L-92.6533 156.897L-98.4325 160.202L-101.765 158.525L-108.498 159.229L-109.712 158.092L-113.401 160.953L-115.992 158.352L-116.271 154.441L-115.78 152.1L-109.663 149.509L-110.627 146.436L-109.134 138.73L-104.713 139.019L-98.8178 133.624L-91.2277 138.238L-88.2321 138.084L-85.1114 141.697L-86.9415 147.939L-82.4047 152.014Z" fill="#1F2122"/>
<path d="M-146.496 197.915L-149.444 200.429L-154.896 202.799L-156.504 205.467L-155.493 207.48L-155.04 210.149L-155.734 211.671L-158.373 212.817L-164.248 208.53L-164.874 204.754L-167.369 203.637V201.701L-168.766 199.244L-172.869 199.013L-174.959 196.345L-175.133 194.245L-171.453 194.418L-170.008 192.01L-163.381 186.953L-160.887 189.794L-157.4 190.122L-153.143 188.263L-150.85 188.484L-149.954 190.758L-147.094 192.896L-146.419 194.9L-146.496 197.915Z" fill="#1F2122"/>
<path d="M-117.254 199.196L-124.372 205.169L-126.337 205.246L-128.581 204.513L-132.54 200.381L-135.179 201.951L-136.45 202.308L-138.55 201.161L-141.025 196.884L-144.946 196.711L-144.888 194.755L-145.784 192.039L-148.673 189.891L-149.521 187.733L-149.28 186.326L-147.546 184.091L-143.915 180.412L-140.293 180.229L-139.07 179.169L-137.307 179.911L-133.801 179.082L-132.944 178.466L-129.149 180.893L-127.261 179.323L-123.129 179.487L-115.867 190.979L-113.603 196.759L-117.254 199.196Z" fill="#1F2122"/>
<path d="M-49.1452 222.094L-50.7923 219.512L-56.7642 217.749L-56.928 217.74L-64.9803 218.79L-67.0416 219.541L-66.6467 216.516L-68.159 208.81L-77.7717 205.891L-77.5502 199.148L-72.9364 198.965L-70.4128 197.058L-65.5197 199.947L-64.5373 204.041L-61.9463 206.016L-51.9097 207.721L-48.2013 211.594L-46.9877 214.368L-46.7758 220.023L-49.1452 222.094Z" fill="#1F2122"/>
<path d="M-39.9274 174.979L-40.12 175.171L-40.3223 181.693L-51.4473 181.5L-56.0033 185.864L-58.5847 183.388L-61.9366 181.972L-63.1888 178.649L-68.0723 178.524L-69.7001 179.554L-81.6149 179.458L-80.8443 170.75L-85.2655 168.467L-85.4774 164.874L-88.2225 162.552L-91.6034 163.612L-96.8721 160.982L-91.6419 157.986L-90.1489 155.867L-85.5352 155.684L-85.2269 155.607L-80.9888 152.823L-68.7947 153.41L-60.8578 157.938L-55.4639 167.272L-55.3194 167.417L-46.0148 172.532L-40.0333 171.125L-38.0202 173.014L-39.9274 174.979Z" fill="#1F2122"/>
<path d="M-90.226 218.298L-91.6997 220.62L-92.7207 221.785L-93.655 225.966L-94.3292 226.91L-102.574 224.223V224.464L-104.443 224.338L-106.475 220.215L-112.091 219.271L-113.314 220.263L-115.558 216.767L-116.03 211.083H-121.289L-123.177 206.084L-116.281 200.304L-112.775 197.963L-107.304 203.174L-106.562 210.101L-103.605 215.399L-100.031 215.958L-99.3379 214.33L-94.127 214.127L-93.4334 213.068L-92.6725 213.472L-92.345 215.707L-90.1586 216.882L-90.226 218.298Z" fill="#1F2122"/>
<path d="M-51.9867 195.073L-55.1749 196.393L-60.617 192.694L-65.0478 198.531L-70.5188 195.304L-73.5047 197.549L-79.0239 197.78L-79.3032 205.862L-84.9958 207.375L-85.5544 213.039L-89.4169 215.63L-90.9388 214.811L-91.2662 212.567L-93.9632 211.141L-95.0035 212.73L-100.388 212.933L-100.995 214.358L-102.613 214.108L-105.069 209.754L-105.811 202.78L-105.84 202.529L-112.023 196.634L-114.229 191.008L-109.596 188.397L-103.2 188.205L-95.6873 183.995L-92.817 183.456L-91.1121 181.163L-87.5964 180.903L-85.593 182.675L-82.2506 180.884L-69.4785 180.98L-69.2377 180.99L-67.6196 179.969L-64.2772 180.055L-63.1503 183.032L-59.519 184.535L-53.4989 190.285L-50.7346 193.676L-51.9867 195.073Z" fill="#1F2122"/>
<path d="M-83.1753 179.728L-85.3618 180.913L-87.0378 179.429L-91.5841 179.757L-91.9501 179.776L-93.7128 182.165L-95.4754 182.502L-96.8528 178.861L-103.971 170.249L-104.125 170.133L-107.564 168.717L-109.644 166.598L-108.016 164.556L-106.957 160.683L-107.121 160.529L-102.064 159.999L-91.7382 165.163L-88.5789 164.18L-86.9607 165.538L-86.7392 169.334L-82.4433 171.559L-83.1753 179.728Z" fill="#1F2122"/>
<path d="M-104.453 234.578L-102.854 237.487L-103.335 238.768L-108.98 243.787L-116.579 242.545L-124.41 238.239V235.927L-124.458 235.744L-126.009 233.201L-130.247 232.796L-135.699 224.714L-135.121 224.435L-133.503 222.392L-133.416 214.908L-132.559 210.187L-128.773 205.968L-126.635 206.662L-126.5 206.681L-124.603 206.604L-122.359 212.519H-117.446L-117.061 217.123L-113.68 222.46L-111.648 220.803L-107.525 221.497L-105.637 225.33L-105.445 225.706L-102.574 225.899V232.584L-104.453 234.578Z" fill="#1F2122"/>
<path d="M-68.6405 220.08L-73.3891 221.188L-76.3365 222.749L-76.847 226.313L-81.3548 226.852L-84.755 227.768L-85.3233 226.448L-90.1682 220.986L-88.7812 218.819L-88.6271 216.863L-84.1 213.819L-83.5798 208.492L-78.5616 207.153L-69.4785 209.908L-68.1782 216.507L-68.6405 220.08Z" fill="#1F2122"/>
<path d="M-174.535 200.68L-175.152 200.776L-176.211 199.562H-178.687L-180.931 201.479L-185.959 196.634L-191.295 195.584L-194.609 193.503L-195.639 190.208L-198.577 189.756L-200.301 190.661L-203.73 187.897L-202.94 181.211L-206.167 179.429L-206.003 176.395L-203.846 175.894L-202.324 173.014L-199.415 171.838L-189.417 172.195L-181.355 182.097V187.396L-180.141 188.898V191.258L-179.188 193.272L-176.674 194.023L-176.452 196.865L-174.131 199.803L-174.535 200.68Z" fill="#1F2122"/>
<path d="M-150.908 234.501L-151.727 235.185L-156.427 233.605L-158.893 228.962L-162.447 230.002L-168.824 229.203L-169.45 233.384L-174.295 236.168L-179.034 235.936L-179.303 235.917L-182.511 238.008L-185.814 236.013L-190.39 233.721L-190.12 227.315L-191.613 224.656L-183.715 217.142L-183.435 216.873L-184.196 213.308L-183.349 211.96L-180.151 212.095L-180.343 209.128L-181.499 208.309L-180.199 206.623V202.789L-178.109 200.997H-176.924L-175.778 202.327L-173.457 201.97L-172.773 200.458L-169.69 200.631L-168.891 201.97V204.542L-166.252 205.718L-165.664 209.311L-159.259 213.973L-159.625 219.406L-156.167 221.785L-154.202 223.529L-153.952 227.141L-150.59 229.53L-150.908 234.501Z" fill="#1F2122"/>
<path d="M-199.521 315.871L-199.762 320.871L-201.621 322.229L-207.631 321.998L-207.92 321.979L-211.811 324.859L-212.303 325.225L-211.022 327.633L-213.112 328.847L-214.345 327.2L-218.92 326.94L-222.291 324.387L-221.01 322.306L-222.58 317.557H-227.049L-234.466 311.286L-234.688 306.315L-231.326 304.206L-236.055 295.825L-234.659 293.195L-230.122 291.49L-231.962 288.889L-229.794 285.065L-232 283.225L-229.766 281.125L-229.515 279.054L-227.656 278.264L-225.46 281.876L-222.464 279.584L-216.897 286.009L-214.046 285.518L-212.332 287.829L-208.777 288.783L-207.332 292.386L-203.749 298.185L-204.751 303.859L-204.79 304.09L-200.783 310.891L-199.521 315.871Z" fill="#1F2122"/>
<path d="M244.276 230.609L238.372 238.277L238.304 238.364L237.736 245.377L229.096 255.684L224.887 251.725L222.459 251.542L218.038 245.492L217.807 245.155L211.527 245.338L205.777 240.281L205.314 239.876L198.485 244.606L190.857 243.922L183.267 239.558L178.797 232.632L166.738 227.691L158.165 220.341L157.944 220.148H148.591L148.765 214.657L146.241 211.546L145.865 203.078V202.837L141.271 197.404L141.069 197.144L126.524 196.412L124.646 194.794L124.453 188.966L118.019 184.275L105.507 183.379L102.415 177.252L107.491 170.528L107.867 160.288L111.999 160.231L118.713 155.009L131.899 154.46L135.472 150.54L140.77 148.873L144.315 143.729L142.273 137.41L147.561 128.548L145.037 124.338L148.639 121.515L155.729 132.208L157.597 139.78L160.179 143.662L167.788 137.092L165.553 134.029L164.657 131.014L166.594 125.927L161.065 120.552L161.219 118.327L167.335 116.583L172.084 108.588L167.99 103.521L171.795 100.101L179.732 98.3191L185.135 93.4159L191.897 85.2856L197.339 81.365L200.739 82.6462L200.787 82.7714L200.864 82.7618L206.47 89.7361L205.006 98.8489L197.397 105.659L198.736 111.632L197.464 115.938L185.944 141.677L185.896 141.774L187.033 148.69L180.338 161.271L170.504 167.214L164.436 169.459L152.117 164.122V169.921L170.34 180.489L175.792 174.998L183.44 172.368L192.195 164.007L192.764 153.536L197.599 149.153L206.403 150.337L208.907 157.408L202.877 167.34L205.285 175.846L214.821 173.755L209.668 171.019L208.329 168.515L213.733 162.379V153.757L205.767 144.818H196.52L195.991 136.957L205.237 123.298L205.045 109.272L208.666 104.166L212.49 103.136L216.42 99.8604L218.934 93.4641L220.225 92.915L219.531 101.556L214.417 107.432L214.812 114.137L227.757 124.983L227.314 118.048L220.764 111.362L222.219 106.661L228.451 111.998L230.444 105.265L233.556 105.091L233.594 105.476L237.726 113.78L233.141 114.503L231.918 120.803L231.87 121.034L236.349 129.973L235.376 133.605L224.723 138.094L223.134 144.047L230.377 153.025L230.541 153.227L238.169 155.019L239.72 163.361L236.753 170.461L228.807 172.474L231.34 178.119L229 184.708L234.808 191.808L233.373 204.504L237.957 210.419L236.195 219.743L243.236 224.704L244.276 230.609Z" fill="#1F2122"/>
<path d="M201.308 81.9237L200.19 79.2746L200.595 74.7567L205.815 75.1228L206.605 81.2783L201.308 81.9237Z" fill="#1F2122"/>
<path d="M220.533 89.5819L218.53 89.37L217.932 87.4145L219.445 86.9618L220.87 88.4549L220.533 89.5819Z" fill="#1F2122"/>
<path d="M-24.4196 158.853L-29.9387 162.244L-35.8335 162.013L-37.1628 165.134L-33.3773 168.486L-36.9797 171.973L-39.5611 169.546L-45.7834 171L-54.2693 166.328L-59.6632 156.994L-59.7981 156.859L-68.2454 152.052L-80.8923 151.387L-85.2267 147.496L-83.4351 141.369L-87.548 136.62L-90.8133 136.784L-98.1915 132.295L-99.0487 125.195L-105.232 125.234L-104.953 122.72L-106.09 119.175L-108.556 116.593L-106.369 113.414L-103.181 111.805L-96.7081 112.277L-92.8842 104.715L-87.4421 100.872L-84.119 99.8315L-82.0192 99.8796L-79.6883 102.182L-79.4764 102.384L-73.6201 102.635L-70.9905 100.275L-67.8505 100.236V104.86L-64.9127 105.775L-69.2182 110.399L-70.2296 117.527L-57.5731 130.994L-53.3446 134.742L-48.9138 137.391L-44.0978 142.592L-36.7871 142.804L-33.647 150.318L-30.6129 149.027L-27.444 150.02L-28.8118 153.439L-24.4196 155.501V158.853Z" fill="#1F2122"/>
<path d="M-106.495 122.777L-106.678 124.482L-112.206 119.849L-116.146 120.07L-120.23 116.93L-121 113.925L-121.068 113.664L-125.431 110.746L-127.656 112.354L-128.176 115.003L-135.545 114.406L-138.271 112.171L-146.564 110.081L-150.657 107.307L-152.603 105.467L-151.881 104.792L-151.775 104.629L-151.226 102.76L-148.75 102.548L-148.298 99.3498L-141.459 97.2691L-141.69 88.4838L-140.727 86.1237L-139.571 85.2567L-138.463 88.609L-133.956 86.4897L-132.01 87.3567L-129.862 90.9402L-126.144 90.4682L-123.967 92.3081L-121.154 92.5971L-120.153 91.3448L-117.591 92.1443L-117.417 94.1576L-118.573 96.2095L-116.974 98.9163L-112.842 99.032L-112.264 101.209L-109.952 101.508L-110.55 104.359L-108.122 108.819L-107.689 112.692L-110.473 116.747L-107.467 119.83L-106.495 122.777Z" fill="#1F2122"/>
<path d="M-29.8041 243.007L-29.8522 243.335L-33.1272 245.579L-31.2007 247.718L-29.467 247.958L-30.0545 251.378L-34.9572 252.852L-42.0272 252.062L-42.7399 256.734L-40.1104 259.21L-39.5421 262.514L-40.043 263.188L-43.2601 261.319L-43.4431 261.252L-46.7083 261.127L-49.5883 267.157H-49.9255L-51.7074 263.448L-50.7827 259.653L-50.6768 259.277L-53.9806 255.8L-53.7205 254.779L-58.0549 248.883L-60.5303 246.802L-62.948 248.353L-63.9305 248.536L-67.1091 244.25L-67.581 243.652L-67.6099 243.672L-69.989 240.907L-68.7947 239.607L-69.1992 235.233L-75.8646 234.809L-79.2262 230.311L-79.4381 230.022L-83.8688 229.829L-84.1867 229.107L-81.1237 228.278L-75.4889 227.594L-74.9303 223.645L-72.869 222.547L-67.7737 221.342L-64.701 220.196L-56.9857 219.194L-51.8037 220.716L-49.4824 224.348L-46.7469 221.959L-46.6602 230.86L-45.1865 235.281L-42.6244 239.202L-36.7873 240.3L-36.5176 240.339L-31.8654 237.959L-31.4608 238.239L-32.8189 240.512L-32.3181 242.728L-29.8041 243.007Z" fill="#1F2122"/>
<path d="M263.8 395.565L263.396 395.758V399.611L262.009 402.472L256.952 404.254L254.197 409.726L250.036 409.427L247.474 415.746L238.892 416.267L238.824 415.679L232.958 419.898L229.211 415.371L230.618 409.533L234.634 408.184L237.957 406.634L243.486 401.461L243.833 401.143L242.475 397.646L243.39 394.207V394.034L242.196 389.516L245.48 385.585L247.705 379.382L241.984 377.484L241.252 375.211L245.393 370.115L243.111 364.884L243.92 361.57L245.509 360.867L248.418 368.93H254.746L259.861 368.362L262.548 369.97L260.747 373.631L265.014 379.786L265.939 384.709L267.826 390.036L268.106 393.398L263.8 395.565Z" fill="#1F2122"/>
<path d="M-145.023 176.905V179.429L-148.741 183.196L-150.677 185.691L-150.937 187.039L-153.297 186.808L-153.489 186.837L-157.66 188.667L-160.107 188.436L-162.476 185.729L-161.725 180.18L-161.667 179.814L-165.115 176.857L-166.56 173.89L-166.387 168.592L-160.704 165.5L-159.567 165.827L-154 169.006L-152.314 167.099L-147.007 166.858L-145.841 169.131L-143.106 170.73L-142.682 174.699L-145.023 176.905Z" fill="#1F2122"/>
<path d="M229.741 103.155L227.169 102.249L227.959 100.814L231.302 99.0898L232.4 102.702L229.741 103.155Z" fill="#1F2122"/>
<path d="M-68.8236 244.529L-69.5074 245.011L-73.6203 249.076L-75.643 250.193L-78.1955 249.596L-82.7034 245.849L-86.2383 243.412L-89.5806 243.749L-94.8783 244.394L-97.1899 247.467L-97.2574 247.65L-97.4115 249.654L-95.7355 250.444L-96.1112 252.496L-97.739 253.151L-100.282 252.351L-107.882 248.498L-107.968 244.857L-102.093 239.626L-101.197 237.372L-102.622 234.79L-101.245 233.335L-101.043 233.133V226.236L-93.7128 228.635L-92.2776 226.602L-91.3626 222.489L-91.0929 222.18L-86.6814 227.132L-84.9091 231.216L-80.2664 231.419L-76.6929 236.197L-70.6055 236.582L-70.3647 239.125L-71.9732 240.878L-68.8236 244.529Z" fill="#1F2122"/>
<path d="M32.4864 118.394L32.1493 118.799L34.7692 122.594L33.2088 125.32L34.3165 129.684L30.7719 131.611L25.3202 128.326L25.1179 128.21L19.9166 128.413L19.0593 124.8L3.94662 113.848L1.36523 117.498L5.42035 123.789L4.37045 128.355L0.604309 131.89L2.45364 134.867L2.60776 136.591L-2.20825 136.784L-2.56464 136.803L-7.35178 142.727L-7.64072 146.966L-1.01385 149.557L1.53864 146.677L5.61298 145.396L8.07877 150.039L-3.15219 158.439L-3.38336 163.255L-6.72571 165.664L-11.8788 163.679L-14.8455 165.953L-15.1923 162.244L-15.2115 162.022L-18.9102 157.803L-22.8979 158.4V154.614L-26.9048 152.736L-25.4697 149.133L-30.4206 147.582L-30.6999 147.486L-32.8189 148.392L-35.5544 141.851L-35.7471 141.408L-43.3853 141.186L-47.8546 136.35L-52.3431 133.663L-56.4945 129.983L-68.6213 117.065L-67.7737 111.015L-63.025 105.92L-60.9156 103.742H-57.6022L-56.35 98.3191L-50.7249 92.809L-53.8939 87.771L-52.8632 84.2934L-47.7004 79.4288L-47.3344 77.348L-44.5893 78.032L-41.8345 78.5521L-39.2146 75.8838L-38.3574 81.3554L-32.3951 84.4475L-28.5808 79.6792L-32.241 75.5177L-30.1027 68.5049L-22.5704 67.6957L-23.2928 76.0187L-18.1012 87.4145L-13.9883 89.659L-8.98923 77.9067L-0.445587 76.7122L6.73029 79.0145L13.7135 77.9838L18.0383 85.6228L14.2626 86.3356L17.4122 91.8457L22.941 87.1448L24.8771 96.8549L31.2439 105.891L36.8497 106.546L39.3829 110.023L32.4864 118.394Z" fill="#1F2122"/>
<path d="M240.452 100.332L237.611 96.8549L239.778 93.8012L241.492 94.6393L242.118 99.6485L240.452 100.332Z" fill="#1F2122"/>
<path d="M-133.927 209.484L-134.004 209.648L-134.919 214.696L-135.025 221.93L-136.055 223.279L-145.206 227.71L-149.608 228.432L-152.478 226.4L-152.728 222.874L-155.213 220.668L-158.055 218.713L-157.747 214.118L-154.568 212.73L-153.566 210.524L-153.489 210.245L-154.019 207.114L-154.79 205.525L-153.817 203.916L-148.635 201.653L-144.994 198.56L-144.984 198.136L-141.95 198.281L-139.735 202.105L-139.59 202.25L-136.643 203.849L-134.591 203.28L-132.819 202.24L-130.026 205.14L-133.927 209.484Z" fill="#1F2122"/>
<path d="M-145.957 164.296L-146.92 165.423L-152.709 165.692L-153.046 165.702L-154.327 167.147L-158.845 164.565L-160.896 163.949L-167.148 167.349L-176.491 162.697L-177.358 161.358V160.096L-176.259 159.055L-173.726 157.649L-174.179 154.653L-177.858 154.403L-179.072 155.298L-180.517 154.528L-181.625 152.524L-181.702 150.752L-180.459 148.719L-178.359 147.852L-173.37 147.948L-170.711 145.636L-168.111 145.771L-166.396 151.291L-164.113 150.02L-162.12 150.308L-160.665 152.264L-153.114 151.561L-149.685 149.538L-149.261 152.148L-147.036 155.501L-144.329 156.955V162.09L-145.957 164.296Z" fill="#1F2122"/>
<path d="M131.388 101.604L127.815 101.96L124.713 97.1053L125.532 92.7127L130.175 91.6242L131.6 96.5948L131.388 101.604Z" fill="#1F2122"/>
<path d="M234.943 272.542L228.585 275.104L222.806 275.779L217.653 272.311L217.258 272.051L206.855 277.667L198.582 271.954L198.379 271.819L186.031 271.636L178.085 266.666L171.554 264.855L165.467 269.209L161.537 281L157.347 280.528L157.077 280.489L152.974 283.003L152.714 283.167L151.943 286.943L146 290.141L134.76 282.213L129.356 272.224L125.079 263.236L121.458 262.437L114.946 259.923L110.487 255.944L109.09 259.431L103.783 259.248L102.261 260.876L99.2847 262.36L96.7997 261.859L96.4625 261.791L94.6228 263.14H91.7043L86.686 261.088L84.5573 264.884L79.2886 265.847L76.8613 262.427L77.1888 259.036L78.2579 252.149L78.3254 251.696L70.6293 247.043L69.6372 244.635L73.6249 240.088L73.8657 239.828L72.9025 235.301L71.5348 228.394L74.9156 223.934L75.0601 223.741L74.8771 217.894L70.6197 208.261L63.7232 204.446L62.6733 200.015L60.6409 198.059L70.3885 182.358L79.5775 174.651L80.9742 169.912L89.1036 163.101L90.8278 165.635L96.8574 165.336L102.829 160.356L106.345 160.308L105.989 170.047L100.922 176.761L100.652 177.098L104.505 184.747L117.441 185.671L122.96 189.679L123.153 195.449L125.898 197.819L140.288 198.541L144.363 203.358L144.738 211.835L144.748 212.056L147.233 215.119L147.021 221.583H157.347L165.861 228.875L177.747 233.759L182.091 240.512L190.288 245.271L198.63 246.051L198.919 246.08L205.208 241.736L210.728 246.591L210.949 246.793L217.017 246.61L221.41 252.64L221.621 252.919L224.203 253.112L228.412 257.062V266.059L235.935 270.134L234.943 272.542Z" fill="#1F2122"/>
<path d="M140.616 137.227L142.658 143.517L139.788 147.679L134.702 149.278L134.528 149.374L131.176 153.064L118.385 153.593L118.135 153.603L111.44 158.805L102.251 158.94L96.2506 163.939L91.6368 164.17L89.4311 160.905L79.7991 168.977L79.6257 169.122L78.229 173.861L69.252 181.394L57.2022 200.747L50.9221 199.928L39.7586 191.307L35.4531 193.541L25.6091 192.53L18.5681 189.101L12.0761 182.203L11.8738 182.001L2.1936 181.134L-0.570801 187.559L-4.90521 189.419L-18.5539 184.477L-23.0424 189.216L-24.2946 188.272V181.047L-25.2867 178.745L-14.9803 167.898L-11.6188 165.326L-6.49451 167.301L-1.90002 163.997L-1.65924 159.152L9.51398 150.79L9.98593 150.424L6.38354 143.652L0.652466 145.444L-1.46658 147.833L-6.05145 146.041L-5.86844 143.247L-1.78445 138.2L4.25485 137.959L3.94662 134.52L2.51144 132.121L5.76709 129.077L7.03851 123.538L3.16644 117.537L4.31265 115.919L17.6916 125.609L18.7126 129.896L24.7037 129.655L30.3385 133.046L30.7334 133.287L36.0599 130.378L34.827 125.523L36.5319 122.537L34.0179 118.866L40.664 110.803L60.718 112.826L65.2547 111.526L111.855 142.833L112.086 142.987L123.452 142.12L127.15 138.113L132.053 139.202L136.204 135.57H139.518L141.223 133.171L142.879 133.46L140.616 137.227Z" fill="#1F2122"/>
<path d="M-105.281 137.545L-110.386 137.217L-112.168 146.426L-111.503 148.709L-116.242 150.723L-119.363 147.255L-126.914 147.342L-134.37 142.853L-134.167 139.722L-136.489 138.633L-137.693 139.751L-143.597 140.521L-143.568 140.3L-146.805 136.601L-147.344 132.834L-155.541 131.466L-158.922 129.154L-163.661 120.783L-164.874 118.067L-159.423 117.075L-156.822 113.298L-155.493 108.193L-153.682 106.478L-151.707 108.337L-147.286 111.362L-139.08 113.404L-136.171 115.803L-126.924 116.545L-126.269 113.154L-125.402 112.528L-122.416 114.522L-121.588 117.739L-116.888 121.352L-116.656 121.535L-112.755 121.313L-105.464 127.411L-105.387 126.669L-100.407 126.631L-99.7135 132.449L-105.281 137.545Z" fill="#1F2122"/>
<path d="M-10.6363 225.523L-13.6704 228.577L-15.7124 233.509L-18.6694 236.572L-22.3007 236.341L-22.4163 244.038L-25.4793 246.648H-28.523L-30.4109 246.379L-30.9118 245.83L-28.446 244.144L-28.0511 241.764L-31.0562 241.427L-31.2104 240.743L-29.4862 237.844L-31.7305 236.264L-36.7681 238.846L-41.6804 237.911L-43.7513 234.78L-44.3774 232.931L-41.9308 227.084L-36.6429 226.313L-36.1516 226.255L-33.5413 217.354L-31.4416 217.508L-27.8295 219.088L-23.1483 215.408L-22.7727 212.48L-22.6956 211.016L-17.5714 211.18L-13.7474 214.57L-10.8289 214.06L-8.87363 216.16L-7.26508 217.354L-10.6363 225.523Z" fill="#1F2122"/>
<path d="M-3.86499 204.225L-4.3273 204.417V208.675L-1.78445 210.775L-3.79755 213.337L-6.44635 216.141L-7.78522 215.158L-10.2414 212.499L-13.2658 213.029L-16.9453 209.773L-24.1501 209.532L-24.2946 212.374L-24.5835 214.667L-28.0511 217.412L-30.9889 216.121L-34.6779 215.832L-37.3556 224.974L-43.0289 225.793L-45.1094 230.763L-45.1383 230.667L-45.2443 220.63L-45.2346 220.62L-45.4754 214.127L-46.8721 210.881L-50.9465 206.594L-51.1198 206.402L-61.2142 204.735L-63.1695 203.242L-64.0268 199.658L-60.2703 194.697L-55.3579 198.04L-51.1295 196.287L-48.7793 193.715L-52.3046 189.409L-54.9341 186.875L-50.8212 182.945L-39.5999 183.138L-38.839 183.157L-38.6174 175.74L-36.4117 173.486L-31.2104 168.438L-35.3618 164.758L-34.8224 163.486L-29.5151 163.689L-23.3795 159.922L-19.5363 159.344L-16.6852 162.591L-16.2711 167.118L-27.0686 178.466L-25.8164 181.25V188.956L-22.869 191.181L-18.1108 186.172L-4.85709 190.969L-0.214417 188.975L5.34326 195.902L5.65149 200.458L-3.86499 204.225Z" fill="#1F2122"/>
<path d="M55.6416 203.993L49.6505 211.449L40.6734 219.734L32.5151 223.221L32.3128 227.267L32.3513 227.45L34.663 231.65L31.4555 235.137L30.9162 240.021L29.1246 242.121L21.9776 242.439L21.3997 242.458L20.2631 247.246L18.0381 248.604L14.5995 244.991L9.96643 251.879L3.24326 252.534L-2.69971 259.152L-4.93436 259.701L-5.73383 258.68L-6.15765 256.118L-6.69705 253.815L-9.81781 253.112L-10.1549 249.057L-17.3694 248.758V243.518L-20.885 243.624L-20.7983 237.873L-18.034 238.046L-14.4316 234.308L-12.4088 229.405L-9.38437 226.361L-5.68564 217.489L-3.54733 215.225L-3.51843 215.331L0.276581 210.563L-2.80566 208.03V205.361L7.24054 201.383L6.85529 195.603L6.83603 195.381L0.883392 187.983L3.17581 182.656L11.1415 183.369L17.5661 190.189L24.5493 193.628L24.5108 193.821L35.7611 195.015L39.585 193.031L50.1995 201.219L50.3825 201.296L56.5085 202.105L55.6416 203.993Z" fill="#1F2122"/>
<path d="M-163.285 180.363L-163.988 185.575L-171.116 191.018L-172.31 192.944L-175.816 192.78L-178.09 192.097L-178.61 191.037V188.417L-179.833 186.914V181.616L-187.953 171.646L-176.963 164.084L-167.909 168.592L-168.092 174.083L-166.406 177.657L-163.285 180.363Z" fill="#1F2122"/>
<path d="M-117.735 154.027L-120.095 156.069L-124.006 160.308L-125.287 163.939L-125.364 164.17L-123.582 169.295L-121.395 171.983L-120.394 172.85L-121.463 175.72L-123.081 178.052L-127.81 177.869L-129.284 179.092L-133.021 176.674L-134.418 177.753L-137.163 178.398L-139.359 177.464L-140.919 178.832L-143.501 178.957V177.493L-141.093 175.239L-141.661 169.892L-144.666 168.139L-145.649 166.222L-144.724 165.134L-142.807 162.533V156.108L-145.909 154.509L-147.787 151.715L-148.317 148.517L-143.886 142.544L-143.771 141.995L-136.98 141.109L-136.19 140.367L-135.747 140.579L-135.94 143.594L-127.358 148.786L-120.066 148.69L-117.263 151.802L-117.735 154.027Z" fill="#1F2122"/>
<path fill-rule="evenodd" clip-rule="evenodd" d="M44.1982 34.7561C45.0645 35.2903 46.0458 35.611 47.0609 35.6918C48.0759 35.7726 49.0957 35.6112 50.0359 35.2208C50.9761 34.8304 51.8097 34.2223 52.4678 33.4467C53.126 32.6711 53.5897 31.7504 53.8208 30.7605C58.2755 29.7465 62.9018 29.7465 67.3564 30.7605C67.5873 31.7511 68.0511 32.6726 68.7095 33.4487C69.368 34.2249 70.2022 34.8333 71.143 35.2238C72.0839 35.6143 73.1044 35.7755 74.12 35.6942C75.1357 35.6128 76.1174 35.2913 76.9838 34.7561C80.8729 37.2124 84.1526 40.5178 86.5759 44.4231C86.0325 45.2823 85.7018 46.2582 85.6111 47.2702C85.5204 48.2821 85.6722 49.3011 86.054 50.243C86.4359 51.1848 87.0368 52.0224 87.8071 52.6866C88.5774 53.3508 89.495 53.8226 90.4841 54.0628C91.4083 58.3047 91.4083 62.6953 90.4841 66.9372C89.4948 67.1774 88.5769 67.6491 87.8064 68.3134C87.0359 68.9777 86.4349 69.8155 86.053 70.7576C85.6712 71.6996 85.5194 72.7189 85.6103 73.7311C85.7012 74.7432 86.0322 75.7193 86.5759 76.5785C84.1517 80.4837 80.8708 83.7886 76.9806 86.2439C76.1143 85.7094 75.1329 85.3884 74.1176 85.3074C73.1023 85.2264 72.0823 85.3878 71.1419 85.7782C70.2015 86.1686 69.3677 86.7769 68.7095 87.5526C68.0512 88.3284 67.5874 89.2494 67.3564 90.2395C62.9018 91.2535 58.2755 91.2535 53.8208 90.2395C53.59 89.2489 53.1262 88.3274 52.4677 87.5513C51.8092 86.7751 50.9751 86.1667 50.0342 85.7762C49.0934 85.3857 48.0729 85.2245 47.0572 85.3058C46.0415 85.3872 45.0599 85.7087 44.1934 86.2439C40.305 83.7873 37.0258 80.482 34.603 76.5769C35.1463 75.7176 35.477 74.7416 35.5676 73.7295C35.6583 72.7174 35.5063 71.6984 35.1243 70.7565C34.7423 69.8147 34.1412 68.9771 33.3707 68.3129C32.6002 67.6488 31.6824 67.1772 30.6932 66.9372C29.7689 62.6953 29.7689 58.3047 30.6932 54.0628C31.6825 53.8226 32.6003 53.3509 33.3708 52.6866C34.1413 52.0223 34.7424 51.1845 35.1242 50.2424C35.5061 49.3004 35.6579 48.2811 35.5669 47.2689C35.476 46.2568 35.1451 45.2807 34.6014 44.4215C37.026 40.5161 40.3075 37.2112 44.1982 34.7561ZM60.5886 81.8455C72.4098 81.8455 81.9954 72.2892 81.9954 60.5C81.9954 48.7124 72.4098 39.1561 60.5886 39.1561C48.7675 39.1561 39.1851 48.7124 39.1851 60.5C39.1851 72.2876 48.7691 81.8455 60.5918 81.8455H60.5886ZM54.0138 77.585V66.5583H66.8563V77.699C73.9039 75.1466 78.9363 68.4092 78.9363 60.5C78.9363 50.3963 70.7227 42.2046 60.5886 42.2046C50.4562 42.2046 42.2409 50.3963 42.2409 60.5C42.2409 68.2937 47.1286 74.9476 54.0138 77.585ZM66.8563 57.0101C66.8563 56.1686 66.6901 55.3353 66.3673 54.5579C66.0445 53.7805 65.5714 53.0742 64.975 52.4793C64.3786 51.8845 63.6706 51.4128 62.8915 51.0912C62.1123 50.7696 61.2774 50.6044 60.4342 50.605C59.5912 50.6046 58.7564 50.77 57.9775 51.0917C57.1986 51.4134 56.4907 51.8851 55.8945 52.4799C55.2983 53.0747 54.8253 53.7809 54.5026 54.5583C54.1799 55.3356 54.0138 56.1687 54.0138 57.0101C54.0142 57.8512 54.1806 58.684 54.5035 59.461C54.8264 60.2379 55.2995 60.9438 55.8956 61.5382C56.4918 62.1327 57.1995 62.6042 57.9782 62.9257C58.757 63.2472 59.5915 63.4124 60.4342 63.412C61.2771 63.4126 62.1118 63.2475 62.8907 62.9261C63.6696 62.6047 64.3775 62.1333 64.9739 61.5388C65.5702 60.9443 66.0434 60.2384 66.3664 59.4614C66.6894 58.6843 66.8558 57.8514 66.8563 57.0101ZM162.482 43.1405C162.482 43.6614 162.379 44.1773 162.179 44.6586C161.98 45.1398 161.687 45.5771 161.317 45.9453C160.948 46.3135 160.51 46.6055 160.028 46.8046C159.545 47.0037 159.028 47.1059 158.506 47.1055C157.721 47.1049 156.953 46.8718 156.3 46.4357C155.647 45.9996 155.139 45.3802 154.839 44.6556C154.538 43.931 154.46 43.1339 154.614 42.365C154.767 41.596 155.146 40.8898 155.702 40.3356C156.257 39.7814 156.965 39.4041 157.736 39.2514C158.506 39.0986 159.305 39.1773 160.031 39.4775C160.756 39.7777 161.376 40.286 161.813 40.9379C162.249 41.5899 162.482 42.3564 162.482 43.1405ZM154.531 72.0982V49.0527H162.482V72.0982H154.531ZM176.661 64.5614C176.722 70.1895 181.037 72.8655 186.847 72.8655C193.18 72.8655 197.053 70.4383 197.053 64.9145C197.053 62.0844 195.863 60.1067 193.484 58.983C191.86 58.2173 190.044 57.9091 188.267 57.6073C187.911 57.5477 187.555 57.4862 187.2 57.4227L186.996 57.3761C186.042 57.1674 184.613 56.8544 184.613 55.6745C184.613 55.1464 184.807 54.7306 185.196 54.4256C186.076 53.7353 187.67 53.7995 188.516 54.5075C188.947 54.8687 189.163 55.4096 189.163 56.132H196.616C196.574 53.7867 195.662 51.9069 193.88 50.4911C192.114 49.0624 189.769 48.348 186.847 48.348C182.202 48.348 176.973 50.6403 176.973 55.9442C176.973 57.267 177.256 58.6042 177.975 59.7327C178.601 60.6397 179.527 61.3331 180.5 61.8356C181.993 62.5788 183.665 62.9063 185.301 63.168C186.652 63.3879 187.646 63.6448 188.286 63.9369C189.412 64.4137 189.616 65.8504 188.6 66.5808C187.602 67.2855 186.001 67.186 185.073 66.4139C184.571 65.9837 184.32 65.3656 184.32 64.5614H176.659H176.661ZM200.249 62.208C200.249 68.7126 205.345 72.8446 211.645 72.8446C217.947 72.8446 223 68.703 223 62.208V49.0752H215.047V62.1807C215.047 63.969 213.886 65.7252 211.645 65.7252C209.406 65.7252 208.2 63.9803 208.2 62.1807V49.0752H200.249V62.208ZM173.859 68.8699C173.859 69.3951 173.756 69.9152 173.554 70.4003C173.353 70.8855 173.058 71.3263 172.685 71.6975C172.313 72.0687 171.871 72.3631 171.385 72.5638C170.899 72.7644 170.378 72.8675 169.851 72.8671C169.325 72.8675 168.804 72.7644 168.318 72.5638C167.832 72.3631 167.39 72.0687 167.018 71.6975C166.645 71.3263 166.35 70.8855 166.149 70.4003C165.947 69.9152 165.844 69.3951 165.844 68.8699C165.844 68.3448 165.947 67.8247 166.149 67.3396C166.35 66.8544 166.645 66.4136 167.018 66.0424C167.39 65.6712 167.832 65.3768 168.318 65.1761C168.804 64.9754 169.325 64.8724 169.851 64.8728C170.378 64.8724 170.899 64.9754 171.385 65.1761C171.871 65.3768 172.313 65.6712 172.685 66.0424C173.058 66.4136 173.353 66.8544 173.554 67.3396C173.756 67.8247 173.859 68.3448 173.859 68.8699ZM145.104 49.0527V41.6957H142.241L132.86 51.8893V55.2443H137.154V62.7394C137.035 65.714 137.524 68.345 139.615 70.2007C141.614 71.973 143.415 72.111 147.44 72.111H150.823V65.1553H147.412C146.166 65.1393 145.08 63.9465 145.106 62.7313V55.2443H150.692V49.0543L145.104 49.0527ZM123.006 70.4447C120.976 72.0009 118.488 72.8446 115.928 72.8446C109.35 72.8446 104.02 67.3594 104.02 60.5915C104.02 53.8252 109.351 48.34 115.928 48.34C118.63 48.34 121.123 49.2662 123.122 50.8282L123.781 49.0624H129.915V72.0853H123.598L123.006 70.4447ZM122.39 60.5819C122.39 63.5035 120.072 65.8697 117.211 65.8697C114.352 65.8697 112.032 63.5019 112.032 60.5819C112.032 57.6603 114.352 55.2941 117.211 55.2941C120.072 55.2941 122.39 57.6619 122.39 60.5819Z" fill="white"/>
<path d="M30 155H322C326.418 155 330 158.582 330 163V275C330 279.418 326.418 283 322 283H38C33.5817 283 30 279.418 30 275V155Z" fill="#2377CC"/>
<path d="M30 133C30 128.582 33.5817 125 38 125H97C101.418 125 105 128.582 105 133V155H30V133Z" fill="#2377CC"/>
<path d="M108 138C108 133.582 111.582 130 116 130H175C179.418 130 183 133.582 183 138V155H108V138Z" fill="#37414A"/>
<path d="M186 138C186 133.582 189.582 130 194 130H253C257.418 130 261 133.582 261 138V155H186V138Z" fill="#37414A"/>
<rect x="44" y="138" width="47" height="7" rx="3.5" fill="white" fill-opacity="0.5"/>
<rect x="198" y="173" width="114" height="29" rx="4" fill="white"/>
<rect x="276" y="231" width="36" height="36" rx="18" fill="#00D200"/>
<rect x="48" y="173" width="114" height="29" rx="4" fill="white"/>
<path d="M172 183.5H185" stroke="white" stroke-width="2"/>
<path d="M182 179L186.5 183.5L182 188" stroke="white" stroke-width="2"/>
<path d="M186.5 193.5H173.5" stroke="white" stroke-width="2"/>
<path d="M176.5 189L172 193.5L176.5 198" stroke="white" stroke-width="2"/>
<rect x="55" y="180" width="37" height="3" rx="1.5" fill="#2E3133" fill-opacity="0.2"/>
<rect x="205" y="180" width="37" height="3" rx="1.5" fill="#2E3133" fill-opacity="0.2"/>
<rect x="55" y="189" width="68" height="7" rx="3.5" fill="#2E3133" fill-opacity="0.8"/>
<rect x="48" y="231" width="68" height="3" rx="1.5" fill="white" fill-opacity="0.4"/>
<rect x="48" y="241" width="43" height="3" rx="1.5" fill="white" fill-opacity="0.4"/>
<rect x="205" y="189" width="56" height="7" rx="3.5" fill="#2E3133" fill-opacity="0.8"/>
<path d="M292.987 242C292.05 242.001 291.126 242.221 290.29 242.643C289.453 243.065 288.728 243.678 288.171 244.432C287.614 245.185 287.243 246.059 287.085 246.983C286.928 247.906 286.989 248.854 287.265 249.749C287.54 250.645 288.022 251.463 288.671 252.138C289.32 252.814 290.119 253.328 291.003 253.638C291.887 253.949 292.831 254.048 293.761 253.928C294.69 253.807 295.578 253.471 296.353 252.945L300.055 256.643C300.158 256.753 300.282 256.841 300.42 256.903C300.558 256.964 300.706 256.997 300.857 257C301.008 257.002 301.158 256.975 301.297 256.918C301.437 256.862 301.564 256.778 301.671 256.671C301.778 256.564 301.862 256.437 301.918 256.298C301.975 256.158 302.002 256.008 302 255.857C301.997 255.707 301.964 255.558 301.903 255.42C301.841 255.282 301.753 255.158 301.643 255.056L297.944 251.354C298.556 250.454 298.91 249.404 298.97 248.317C299.03 247.23 298.792 246.147 298.282 245.185C297.772 244.223 297.01 243.418 296.077 242.857C295.144 242.296 294.076 242 292.987 242ZM289.243 247.989C289.243 246.996 289.638 246.044 290.34 245.342C291.042 244.64 291.994 244.246 292.987 244.246C293.98 244.246 294.932 244.64 295.634 245.342C296.336 246.044 296.731 246.996 296.731 247.989C296.731 248.982 296.336 249.934 295.634 250.635C294.932 251.337 293.98 251.732 292.987 251.732C291.994 251.732 291.042 251.337 290.34 250.635C289.638 249.934 289.243 248.982 289.243 247.989Z" fill="white"/>
<rect x="30" y="221" width="300" height="1" fill="white" fill-opacity="0.2"/>
<rect x="136" y="215" width="29" height="47" fill="#F5C76F"/>
<rect x="167" y="215" width="29" height="47" fill="#F5C76F"/>
<rect x="198" y="215" width="57" height="47" fill="#D3AB6B"/>
<rect x="165" y="215" width="2" height="47" fill="#CEA25B"/>
<rect x="196" y="215" width="2" height="47" fill="#CEA25B"/>
<rect x="147" y="215" width="7" height="6" fill="#7C5345"/>
<rect x="178" y="215" width="7" height="6" fill="#7C5345"/>
<rect x="209" y="215" width="7" height="6" fill="#7C5345"/>
<rect x="178" y="255" width="14" height="7" fill="#F9FEFD"/>
<rect x="235" y="255" width="17" height="7" fill="#F9FEFD"/>
<rect x="198" y="262" width="57" height="43" fill="#D3AB6B"/>
<rect x="165" y="262" width="2" height="43" fill="#CEA25B"/>
<rect x="196" y="262" width="2" height="43" fill="#CEA25B"/>
<rect x="168" y="262" width="29" height="43" fill="#F5C76F"/>
<rect x="178" y="262" width="7" height="6" fill="#7C5345"/>
<rect x="209" y="262" width="7" height="6" fill="#7C5345"/>
<rect x="178" y="298" width="14" height="7" fill="#F9FEFD"/>
<rect x="235" y="298" width="17" height="7" fill="#F9FEFD"/>
<rect x="49" y="262" width="29" height="43" fill="#F5C76F"/>
<rect x="80" y="262" width="29" height="43" fill="#F5C76F"/>
<rect x="111" y="262" width="57" height="43" fill="#D3AB6B"/>
<rect x="78" y="262" width="2" height="43" fill="#CEA25B"/>
<rect x="109" y="262" width="2" height="43" fill="#CEA25B"/>
<rect x="60" y="262" width="7" height="6" fill="#7C5345"/>
<rect x="91" y="262" width="7" height="6" fill="#7C5345"/>
<rect x="122" y="262" width="7" height="6" fill="#7C5345"/>
<rect x="91" y="298" width="14" height="7" fill="#F9FEFD"/>
<rect x="148" y="298" width="17" height="7" fill="#F9FEFD"/>
<rect x="49" y="262" width="206" height="2" fill="#7C5445" fill-opacity="0.3"/>
<path d="M168 305V262L193 305H168Z" fill="#7C5445" fill-opacity="0.6"/>
<rect x="48" y="305" width="122" height="4" fill="#B48850"/>
<rect x="48" y="319" width="122" height="4" fill="#B48850"/>
<rect x="170" y="305" width="41" height="4" fill="#8F572E"/>
<rect x="170" y="319" width="41" height="4" fill="#8F572E"/>
<rect x="211" y="305" width="46" height="4" fill="#B48850"/>
<rect x="211" y="319" width="46" height="4" fill="#B48850"/>
<rect x="51" y="313" width="16" height="6" fill="#B48850"/>
<rect x="101" y="313" width="16" height="6" fill="#B48850"/>
<rect x="237" y="313" width="16" height="6" fill="#B48850"/>
<rect x="187" y="313" width="16" height="6" fill="#8A562E"/>
<rect x="135" y="313" width="16" height="6" fill="#8A562E"/>
<rect x="151" y="313" width="16" height="6" fill="#B48850"/>
<rect x="51" y="309" width="16" height="4" fill="#8B4A2C"/>
<rect x="101" y="309" width="16" height="4" fill="#8B4A2C"/>
<rect x="237" y="309" width="16" height="4" fill="#8B4A2C"/>
<rect x="187" y="309" width="16" height="4" fill="#6A311B"/>
<rect x="135" y="309" width="16" height="4" fill="#6A311B"/>
<rect x="151" y="309" width="16" height="4" fill="#8B4A2C"/>
</g>
<defs>
<clipPath id="clip0_4226_27048">
<rect width="360" height="360" rx="8" fill="white"/>
</clipPath>
</defs>
</svg>
