<svg width="360" height="360" viewBox="0 0 360 360" fill="none" xmlns="http://www.w3.org/2000/svg">
<g clip-path="url(#clip0_2662_75854)">
<rect width="360" height="360" rx="8" fill="#F3F3F3"/>
<path d="M33.4571 30.3918H46.681L50.8361 54.0744L30 58.2236V33.849C30 31.9396 31.5478 30.3918 33.4571 30.3918Z" fill="#00AAFF"/>
<path d="M78.3995 82.2484H61.6291L52.5308 30.3918H78.3995C80.3088 30.3918 81.8566 31.9396 81.8566 33.849V78.7913C81.8566 80.7006 80.3088 82.2484 78.3995 82.2484Z" fill="#97CF26"/>
<path d="M30 64.0987V78.7915C30 80.7008 31.5478 82.2486 33.4571 82.2486H55.7793L51.8321 59.7512L30 64.0987Z" fill="#A169F7"/>
<path d="M109.191 68.6505H134.773L133.183 61.7362H110.712L109.191 68.6505ZM121.844 46.3867L129.519 64.3636L129.726 66.3688L136.294 81.096H145.49L121.844 30L98.1971 81.096H107.393L114.1 65.9539L114.238 64.1562L121.844 46.3867Z" fill="black"/>
<path d="M157.897 49.2907H150.498V81.096H157.897V49.2907ZM167.369 57.242L170.964 50.9501C170.273 50.0743 169.42 49.475 168.406 49.1524C167.392 48.7836 166.309 48.5992 165.156 48.5992C163.543 48.5992 161.976 49.1754 160.455 50.3278C158.98 51.4802 157.758 53.0474 156.79 55.0295C155.868 56.9654 155.407 59.201 155.407 61.7362L157.897 63.1882C157.897 61.6671 158.058 60.3534 158.381 59.2471C158.749 58.0948 159.325 57.1959 160.109 56.5506C160.893 55.9052 161.907 55.5826 163.151 55.5826C164.073 55.5826 164.834 55.7209 165.433 55.9974C166.032 56.274 166.678 56.6889 167.369 57.242Z" fill="black"/>
<path d="M183.487 49.2907H176.089V81.096H183.487V49.2907ZM192.96 57.242L196.555 50.9501C195.864 50.0743 195.011 49.475 193.997 49.1524C192.983 48.7836 191.899 48.5992 190.747 48.5992C189.134 48.5992 187.567 49.1754 186.045 50.3278C184.57 51.4802 183.349 53.0474 182.381 55.0295C181.459 56.9654 180.998 59.201 180.998 61.7362L183.487 63.1882C183.487 61.6671 183.649 60.3534 183.971 59.2471C184.34 58.0948 184.916 57.1959 185.7 56.5506C186.483 55.9052 187.497 55.5826 188.742 55.5826C189.664 55.5826 190.424 55.7209 191.024 55.9974C191.623 56.274 192.268 56.6889 192.96 57.242Z" fill="black"/>
<path d="M201.403 36.6376C201.403 37.8822 201.864 38.9654 202.786 39.8873C203.754 40.7631 204.86 41.201 206.105 41.201C207.442 41.201 208.548 40.7631 209.424 39.8873C210.345 38.9654 210.806 37.8822 210.806 36.6376C210.806 35.347 210.345 34.2638 209.424 33.388C208.548 32.5122 207.442 32.0743 206.105 32.0743C204.86 32.0743 203.754 32.5122 202.786 33.388C201.864 34.2638 201.403 35.347 201.403 36.6376ZM202.44 49.2907V81.096H209.769V49.2907H202.44Z" fill="black"/>
<path d="M215.206 49.2907L231.661 84L248.186 49.2907H239.958L231.661 69.8259L223.364 49.2907H215.206Z" fill="black"/>
<path d="M257.563 71.2087C257.563 70.1946 257.793 69.3419 258.254 68.6505C258.761 67.959 259.499 67.4289 260.467 67.0602C261.435 66.6453 262.702 66.4379 264.27 66.4379C266.067 66.4379 267.773 66.6684 269.386 67.1293C270.999 67.5903 272.52 68.3278 273.949 69.3419V65.5391C273.535 65.032 272.82 64.4789 271.806 63.8796C270.792 63.2343 269.501 62.6812 267.934 62.2202C266.413 61.7593 264.592 61.5288 262.472 61.5288C258.508 61.5288 255.442 62.4507 253.276 64.2945C251.109 66.0922 250.026 68.5352 250.026 71.6236C250.026 73.79 250.533 75.6338 251.547 77.1549C252.561 78.6761 253.921 79.8284 255.627 80.612C257.332 81.3957 259.176 81.7875 261.158 81.7875C263.002 81.7875 264.8 81.4648 266.551 80.8195C268.349 80.128 269.824 79.114 270.976 77.7772C272.175 76.3944 272.774 74.6889 272.774 72.6607L271.668 68.5122C271.668 70.0794 271.276 71.4622 270.492 72.6607C269.755 73.8131 268.764 74.6889 267.519 75.2881C266.321 75.8873 264.984 76.1869 263.509 76.1869C262.357 76.1869 261.319 76.0026 260.398 75.6338C259.522 75.265 258.83 74.7119 258.323 73.9744C257.816 73.1908 257.563 72.2689 257.563 71.2087ZM255.212 57.5877C255.673 57.265 256.364 56.8732 257.286 56.4123C258.254 55.9053 259.383 55.4904 260.674 55.1677C262.011 54.799 263.417 54.6146 264.892 54.6146C265.86 54.6146 266.759 54.7068 267.588 54.8912C268.418 55.0755 269.133 55.3752 269.732 55.79C270.331 56.2049 270.792 56.735 271.115 57.3803C271.483 58.0256 271.668 58.8553 271.668 59.8694V81.096H278.997V58.4174C278.997 56.2971 278.421 54.5224 277.268 53.0935C276.116 51.6184 274.526 50.4891 272.497 49.7055C270.515 48.9219 268.211 48.5301 265.583 48.5301C262.633 48.5301 260.006 48.9449 257.701 49.7747C255.442 50.6044 253.599 51.4571 252.17 52.3329L255.212 57.5877Z" fill="black"/>
<path d="M331 147C348.121 147 362 133.121 362 116C362 98.8792 348.121 85 331 85C313.879 85 300 98.8792 300 116C300 133.121 313.879 147 331 147Z" fill="#E1E1E1"/>
<path d="M365 319C379.359 319 391 307.359 391 293C391 278.641 379.359 267 365 267C350.641 267 339 278.641 339 293C339 307.359 350.641 319 365 319Z" fill="#E1E1E1"/>
<path d="M321.5 57C326.194 57 330 53.1944 330 48.5C330 43.8056 326.194 40 321.5 40C316.806 40 313 43.8056 313 48.5C313 53.1944 316.806 57 321.5 57Z" fill="#E1E1E1"/>
<path d="M31 314C52.5391 314 70 296.539 70 275C70 253.461 52.5391 236 31 236C9.4609 236 -8 253.461 -8 275C-8 296.539 9.4609 314 31 314Z" fill="#E1E1E1"/>
<g filter="url(#filter0_d_2662_75854)">
<path d="M30 125C30 118.373 35.3726 113 42 113H318C324.627 113 330 118.373 330 125V360H30V125Z" fill="#FDFDFD"/>
</g>
<path d="M30 125C30 118.373 35.3726 113 42 113H86C92.6274 113 98 118.373 98 125V360H30V125Z" fill="#323333"/>
<path d="M30 125C30 118.373 35.3726 113 42 113H318C324.627 113 330 118.373 330 125V141H30V125Z" fill="#00AAFF"/>
<circle cx="46.5" cy="127.5" r="3.5" fill="white"/>
<circle cx="56.5" cy="127.5" r="3.5" fill="white"/>
<circle cx="66.5" cy="127.5" r="3.5" fill="white"/>
<rect x="42" y="155" width="40" height="7" rx="3.5" fill="#525454"/>
<rect x="42" y="169" width="28" height="7" rx="3.5" fill="#525454"/>
<rect x="42" y="183" width="34" height="7" rx="3.5" fill="#525454"/>
<rect x="42" y="197" width="40" height="7" rx="3.5" fill="#525454"/>
<rect x="42" y="211" width="18" height="7" rx="3.5" fill="#525454"/>
<rect x="42" y="225" width="34" height="7" rx="3.5" fill="#525454"/>
<rect x="42" y="239" width="44" height="7" rx="3.5" fill="#525454"/>
<rect x="114" y="319" width="40" height="21" rx="10.5" fill="#DCDCDC"/>
<rect x="162" y="324" width="43" height="3" rx="1.5" fill="#DCDCDC"/>
<rect x="162" y="331" width="64" height="3" rx="1.5" fill="#DCDCDC"/>
<rect x="114" y="288" width="40" height="21" rx="10.5" fill="#DCDCDC"/>
<rect x="162" y="293" width="73" height="3" rx="1.5" fill="#DCDCDC"/>
<rect x="162" y="300" width="64" height="3" rx="1.5" fill="#DCDCDC"/>
<rect x="114" y="257" width="40" height="21" rx="10.5" fill="#DCDCDC"/>
<path d="M202 201C202 192.298 199.419 183.791 194.585 176.555C189.75 169.319 182.878 163.68 174.838 160.349C166.798 157.019 157.951 156.148 149.416 157.845C140.881 159.543 133.041 163.734 126.887 169.887L158 201H202Z" fill="#E0CCFF"/>
<path d="M116.62 215.956C120.145 225.71 127.002 233.904 135.981 239.094C144.96 244.284 155.483 246.136 165.694 244.322C175.905 242.508 185.148 237.146 191.79 229.182C198.433 221.218 202.048 211.163 202 200.792L158 201L116.62 215.956Z" fill="#A2E0FF"/>
<path d="M126.887 169.887C120.805 175.97 116.638 183.702 114.904 192.128C113.169 200.554 113.943 209.303 117.128 217.294L158 201L126.887 169.887Z" fill="#E8F9C6"/>
<path d="M253.31 291.31C280.061 264.559 280.061 221.188 253.31 194.437C226.56 167.686 183.188 167.686 156.437 194.437C129.686 221.188 129.686 264.559 156.437 291.31C183.188 318.061 226.56 318.061 253.31 291.31Z" fill="white" fill-opacity="0.5"/>
<path d="M247.654 200.094C271.28 223.72 271.28 262.027 247.654 285.653C224.027 309.28 185.72 309.28 162.094 285.653C138.467 262.027 138.467 223.72 162.094 200.094C185.72 176.467 224.027 176.467 247.654 200.094Z" stroke="#39225B" stroke-width="16"/>
<rect x="250.128" y="294.492" width="8" height="27" transform="rotate(-45 250.128 294.492)" fill="#39225B"/>
<rect x="258.614" y="312.877" width="22" height="95.1123" rx="11" transform="rotate(-45 258.614 312.877)" fill="#A169F7"/>
<rect x="258.614" y="312.877" width="22" height="95.1123" rx="11" transform="rotate(-45 258.614 312.877)" fill="url(#paint0_linear_2662_75854)" fill-opacity="0.3"/>
<path d="M205 281C225.987 281 243 263.987 243 243C243 222.013 225.987 205 205 205C184.013 205 167 222.013 167 243C167 263.987 184.013 281 205 281Z" fill="#97CF26"/>
<path d="M186 245.21L199.894 257L227 230" stroke="white" stroke-width="6"/>
</g>
<defs>
<filter id="filter0_d_2662_75854" x="0" y="93" width="360" height="307" filterUnits="userSpaceOnUse" color-interpolation-filters="sRGB">
<feFlood flood-opacity="0" result="BackgroundImageFix"/>
<feColorMatrix in="SourceAlpha" type="matrix" values="0 0 0 0 0 0 0 0 0 0 0 0 0 0 0 0 0 0 127 0" result="hardAlpha"/>
<feOffset dy="10"/>
<feGaussianBlur stdDeviation="15"/>
<feComposite in2="hardAlpha" operator="out"/>
<feColorMatrix type="matrix" values="0 0 0 0 0.7625 0 0 0 0 0.7625 0 0 0 0 0.7625 0 0 0 1 0"/>
<feBlend mode="normal" in2="BackgroundImageFix" result="effect1_dropShadow_2662_75854"/>
<feBlend mode="normal" in="SourceGraphic" in2="effect1_dropShadow_2662_75854" result="shape"/>
</filter>
<linearGradient id="paint0_linear_2662_75854" x1="261.628" y1="345.893" x2="277.913" y2="345.491" gradientUnits="userSpaceOnUse">
<stop/>
<stop offset="1" stop-opacity="0"/>
</linearGradient>
<clipPath id="clip0_2662_75854">
<rect width="360" height="360" rx="8" fill="white"/>
</clipPath>
</defs>
</svg>
