<svg width="760" height="560" viewBox="0 0 760 560" fill="none" xmlns="http://www.w3.org/2000/svg">
<g clip-path="url(#clip0_4163_1819)">
<rect width="760" height="560" rx="8" fill="#F3F3F3"/>
<path d="M633.5 224C656.42 224 675 205.42 675 182.5C675 159.58 656.42 141 633.5 141C610.58 141 592 159.58 592 182.5C592 205.42 610.58 224 633.5 224Z" fill="#E1E1E1"/>
<path d="M520.5 141C531.27 141 540 132.27 540 121.5C540 110.73 531.27 102 520.5 102C509.73 102 501 110.73 501 121.5C501 132.27 509.73 141 520.5 141Z" fill="#E1E1E1"/>
<path d="M616.5 521C627.27 521 636 512.27 636 501.5C636 490.73 627.27 482 616.5 482C605.73 482 597 490.73 597 501.5C597 512.27 605.73 521 616.5 521Z" fill="#E1E1E1"/>
<path d="M681.5 108C696.136 108 708 96.1355 708 81.5C708 66.8645 696.136 55 681.5 55C666.864 55 655 66.8645 655 81.5C655 96.1355 666.864 108 681.5 108Z" fill="#E1E1E1"/>
<path d="M585 51C603.778 51 619 35.7777 619 17C619 -1.77768 603.778 -17 585 -17C566.222 -17 551 -1.77768 551 17C551 35.7777 566.222 51 585 51Z" fill="#E1E1E1"/>
<path d="M477 584C495.778 584 511 568.778 511 550C511 531.222 495.778 516 477 516C458.222 516 443 531.222 443 550C443 568.778 458.222 584 477 584Z" fill="#E1E1E1"/>
<g filter="url(#filter0_d_4163_1819)">
<rect x="389" y="182" width="380" height="313" rx="15.1857" fill="#FDFDFD"/>
</g>
<path d="M389 197.186C389 188.799 395.799 182 404.186 182H461.814C470.201 182 477 188.799 477 197.186V495H404.186C395.799 495 389 488.201 389 479.814V197.186Z" fill="#323333"/>
<path d="M389 197.186C389 188.799 395.799 182 404.186 182H753.814C762.201 182 769 188.799 769 197.186V217H389V197.186Z" fill="#00AAFF"/>
<circle cx="409.88" cy="200.349" r="4.42916" fill="white"/>
<circle cx="422.535" cy="200.349" r="4.42916" fill="white"/>
<circle cx="435.19" cy="200.349" r="4.42916" fill="white"/>
<rect x="404.186" y="235.15" width="50.619" height="8.85833" rx="4.42916" fill="#525454"/>
<rect x="404.186" y="252.867" width="35.4333" height="8.85833" rx="4.42916" fill="#525454"/>
<rect x="404.186" y="270.583" width="43.0262" height="8.85833" rx="4.42916" fill="#525454"/>
<rect x="404.186" y="288.3" width="50.619" height="8.85833" rx="4.42916" fill="#525454"/>
<rect x="404.186" y="306.017" width="22.7786" height="8.85833" rx="4.42916" fill="#525454"/>
<rect x="404.186" y="323.733" width="43.0262" height="8.85833" rx="4.42916" fill="#525454"/>
<rect x="404.186" y="341.45" width="55.6809" height="8.85833" rx="4.42916" fill="#525454"/>
<rect x="495.3" y="442.688" width="50.619" height="26.575" rx="13.2875" fill="#DCDCDC"/>
<rect x="556.043" y="449.015" width="54.4154" height="3.79643" rx="1.89821" fill="#DCDCDC"/>
<rect x="556.043" y="457.874" width="80.9904" height="3.79643" rx="1.89821" fill="#DCDCDC"/>
<rect x="495.3" y="403.458" width="50.619" height="26.575" rx="13.2875" fill="#DCDCDC"/>
<rect x="556.043" y="409.786" width="92.3797" height="3.79643" rx="1.89821" fill="#DCDCDC"/>
<rect x="556.043" y="418.644" width="80.9904" height="3.79643" rx="1.89821" fill="#DCDCDC"/>
<rect x="495.3" y="364.229" width="50.619" height="26.575" rx="13.2875" fill="#DCDCDC"/>
<path d="M606.662 293.362C606.662 282.349 603.396 271.584 597.278 262.427C591.16 253.27 582.463 246.134 572.289 241.919C562.115 237.705 550.919 236.602 540.118 238.751C529.317 240.899 519.396 246.202 511.608 253.989L550.981 293.362H606.662Z" fill="#E0CCFF"/>
<path d="M498.615 312.289C503.077 324.631 511.754 335.001 523.116 341.569C534.479 348.137 547.796 350.48 560.718 348.185C573.64 345.89 585.336 339.104 593.741 329.025C602.147 318.947 606.723 306.223 606.661 293.099L550.981 293.362L498.615 312.289Z" fill="#A2E0FF"/>
<path d="M511.608 253.989C503.911 261.687 498.639 271.472 496.444 282.135C494.249 292.797 495.227 303.869 499.258 313.981L550.981 293.362L511.608 253.989Z" fill="#E8F9C6"/>
<path d="M687.887 412.887C721.739 379.034 721.739 324.148 687.887 290.295C654.034 256.443 599.148 256.443 565.296 290.295C531.443 324.148 531.443 379.034 565.296 412.887C599.148 446.739 654.034 446.739 687.887 412.887Z" fill="white" fill-opacity="0.5"/>
<path d="M680.728 297.454C710.627 327.353 710.627 375.829 680.728 405.728C650.829 435.627 602.353 435.627 572.454 405.728C542.555 375.829 542.555 327.353 572.454 297.454C602.353 267.555 650.829 267.555 680.728 297.454Z" stroke="#39225B" stroke-width="20.2476"/>
<rect x="683.86" y="416.913" width="10.1238" height="34.1678" transform="rotate(-45 683.86 416.913)" fill="#39225B"/>
<rect x="694.598" y="440.179" width="27.8405" height="120.362" rx="13.9202" transform="rotate(-45 694.598 440.179)" fill="#A169F7"/>
<rect x="694.598" y="440.179" width="27.8405" height="120.362" rx="13.9202" transform="rotate(-45 694.598 440.179)" fill="url(#paint0_linear_4163_1819)" fill-opacity="0.3"/>
<path d="M626.751 399.839C653.309 399.839 674.839 378.309 674.839 351.751C674.839 325.193 653.309 303.663 626.751 303.663C600.193 303.663 578.663 325.193 578.663 351.751C578.663 378.309 600.193 399.839 626.751 399.839Z" fill="#97CF26"/>
<path d="M602.707 354.548L620.29 369.468L654.592 335.3" stroke="white" stroke-width="7.59285"/>
<path d="M122.34 149.88C137.55 149.88 149.88 137.55 149.88 122.34C149.88 107.13 137.55 94.8 122.34 94.8C107.13 94.8 94.8 107.13 94.8 122.34C94.8 137.55 107.13 149.88 122.34 149.88Z" fill="#97CF26"/>
<path d="M70.62 135.12C77.6782 135.12 83.4 129.398 83.4 122.34C83.4 115.282 77.6782 109.56 70.62 109.56C63.5618 109.56 57.84 115.282 57.84 122.34C57.84 129.398 63.5618 135.12 70.62 135.12Z" fill="#A169F7"/>
<path d="M122.34 88.3199C132.115 88.3199 140.04 80.3954 140.04 70.6199C140.04 60.8445 132.115 52.9199 122.34 52.9199C112.565 52.9199 104.64 60.8445 104.64 70.6199C104.64 80.3954 112.565 88.3199 122.34 88.3199Z" fill="#FF6163"/>
<path d="M70.62 93.24C83.1127 93.24 93.24 83.1127 93.24 70.62C93.24 58.1273 83.1127 48 70.62 48C58.1273 48 48 58.1273 48 70.62C48 83.1127 58.1273 93.24 70.62 93.24Z" fill="#00AAFF"/>
<path d="M221.34 135H235.62L209.16 63H198.78L172.32 135H186.66L191.7 121.26H216.3L221.34 135L195.66 110.4L204 87.78L212.34 110.4H195.66L221.34 135Z" fill="black"/>
<path d="M271.02 85.8L257.88 121.56L244.74 85.8H231.3L249.36 135H266.34L284.4 85.8H271.02Z" fill="black"/>
<path d="M290.1 85.8H303.54V135H290.1V85.8Z" fill="black"/>
<path d="M296.82 80.2199C301.592 80.2199 305.46 76.3517 305.46 71.5799C305.46 66.8082 301.592 62.9399 296.82 62.9399C292.048 62.9399 288.18 66.8082 288.18 71.5799C288.18 76.3517 292.048 80.2199 296.82 80.2199Z" fill="black"/>
<path d="M350.88 96.66V85.8H334.8V72.24H321.36V85.8H310.74V96.66H321.36V117.84C321.36 128.76 326.82 136.02 340.74 136.02C346.14 136.02 350.82 134.04 350.82 134.04L349.2 123.42C349.2 123.42 346.56 124.2 343.32 124.2C339.36 124.2 334.74 122.46 334.74 117V96.66H350.88Z" fill="black"/>
<path d="M381.66 123.72C374.16 123.72 368.1 117.78 368.1 110.46C368.1 103.14 374.16 97.2 381.66 97.2C389.16 97.2 395.22 103.14 395.22 110.46C395.22 117.78 389.16 123.72 381.66 123.72ZM381.66 84.54C367.14 84.54 355.32 96.06 355.32 110.28C355.32 124.5 367.14 136.02 381.66 136.02C396.18 136.02 408 124.5 408 110.28C408 96.06 396.18 84.54 381.66 84.54Z" fill="black"/>
</g>
<defs>
<filter id="filter0_d_4163_1819" x="351.036" y="156.69" width="455.929" height="388.929" filterUnits="userSpaceOnUse" color-interpolation-filters="sRGB">
<feFlood flood-opacity="0" result="BackgroundImageFix"/>
<feColorMatrix in="SourceAlpha" type="matrix" values="0 0 0 0 0 0 0 0 0 0 0 0 0 0 0 0 0 0 127 0" result="hardAlpha"/>
<feOffset dy="12.6548"/>
<feGaussianBlur stdDeviation="18.9821"/>
<feComposite in2="hardAlpha" operator="out"/>
<feColorMatrix type="matrix" values="0 0 0 0 0.7625 0 0 0 0 0.7625 0 0 0 0 0.7625 0 0 0 1 0"/>
<feBlend mode="normal" in2="BackgroundImageFix" result="effect1_dropShadow_4163_1819"/>
<feBlend mode="normal" in="SourceGraphic" in2="effect1_dropShadow_4163_1819" result="shape"/>
</filter>
<linearGradient id="paint0_linear_4163_1819" x1="698.413" y1="481.96" x2="719.02" y2="481.451" gradientUnits="userSpaceOnUse">
<stop/>
<stop offset="1" stop-opacity="0"/>
</linearGradient>
<clipPath id="clip0_4163_1819">
<rect width="760" height="560" rx="8" fill="white"/>
</clipPath>
</defs>
</svg>
