<svg width="360" height="360" viewBox="0 0 360 360" fill="none" xmlns="http://www.w3.org/2000/svg">
<g clip-path="url(#clip0_4632_23309)">
<rect width="360" height="360" rx="8" fill="#2C383E"/>
<path d="M83.2801 55.7966L82.4801 55.1535C84.2401 54.0279 85.6801 52.5808 86.8001 50.812C87.7601 48.7217 88.2401 46.3098 88.0801 44.0587C87.1201 37.9486 81.8401 33.6072 75.7601 33.768H56.5601V77.8253H77.2001C81.3601 77.5037 85.2001 75.0918 87.2801 71.5543C88.0801 70.1072 88.5601 68.4993 88.5601 66.7305V63.8363C87.9201 60.4596 86.0001 57.5653 83.2801 55.7966ZM64.7201 41.0037H74.8001C77.5201 41.0037 79.6001 43.094 79.7601 45.8275C80.0801 48.7217 77.8401 51.4552 74.9601 51.7768H64.7201V41.0037ZM75.4401 70.5896H64.7201V59.3341H75.2801C78.0001 59.3341 80.4001 61.5852 80.5601 64.3187C80.7201 67.3737 78.6401 70.1072 75.4401 70.5896Z" fill="white" stroke="white" stroke-width="0.3685" stroke-miterlimit="10" stroke-linecap="round" stroke-linejoin="round"/>
<path d="M174.64 33.7695H182.8V77.8268H174.64V33.7695Z" fill="white" stroke="white" stroke-width="0.3685" stroke-miterlimit="10" stroke-linecap="round" stroke-linejoin="round"/>
<path d="M189.84 73.0027L193.36 75.5754C198.32 78.3088 204.08 79.2736 209.52 78.4696C212.56 77.9873 215.44 76.5401 217.68 74.4498C218.96 73.1635 220.08 71.5555 220.72 69.7868C221.84 66.571 221.84 63.1943 220.72 59.9784C220.08 58.0489 218.8 56.2802 217.36 54.9939C214.32 53.0643 210.64 51.9388 207.12 51.9388C205.52 51.9388 203.92 51.6172 202.32 51.1348C201.36 50.8132 200.56 50.1701 200.08 49.3661C199.28 47.919 198.96 46.311 199.28 44.7031C199.76 42.9344 201.2 41.4873 202.96 41.0049C205.04 40.3617 207.12 40.2009 209.36 40.5225C211.12 40.6833 212.88 41.4873 214.16 42.7736L215.44 44.0599L220.88 38.593L219.12 36.8243C217.2 35.2163 214.8 34.0908 212.4 33.4476C207.76 32.3221 202.8 32.8044 198.48 34.7339C195.44 36.0203 193.04 38.7538 192.08 41.9696C191.12 45.1855 191.12 48.7229 192.08 51.9388L193.04 53.5467C194.96 56.6018 198.16 58.3705 201.68 58.6921L207.6 59.1745C209.52 59.3353 211.28 60.1392 212.72 61.4256L212.88 61.5864C214.96 63.6767 214.8 66.8925 212.72 68.9828C211.6 70.1084 210.16 70.7516 208.72 70.9124C204.88 71.3947 201.04 70.9124 197.68 69.1436L195.12 67.3749L189.84 73.0027Z" fill="white" stroke="white" stroke-width="0.3685" stroke-miterlimit="10" stroke-linecap="round" stroke-linejoin="round"/>
<path d="M133.68 73.0027L137.2 75.5754C142.16 78.3088 147.92 79.2736 153.36 78.4696C156.4 77.9873 159.28 76.5401 161.52 74.4498C162.8 73.1635 163.92 71.5555 164.56 69.7868C165.68 66.571 165.68 63.1943 164.56 59.9784C163.92 58.0489 162.64 56.2802 161.2 54.9939C158.16 53.0643 154.48 51.9388 150.96 51.9388C149.36 51.9388 147.76 51.6172 146.16 51.1348C145.2 50.8132 144.4 50.1701 143.92 49.3661C143.12 47.919 142.8 46.311 143.12 44.7031C143.6 42.9344 145.04 41.4873 146.8 41.0049C148.88 40.3617 150.96 40.2009 153.2 40.5225C154.96 40.6833 156.72 41.4873 158 42.7736L159.28 44.0599L164.72 38.4322L162.8 36.8243C160.88 35.2163 158.48 34.0908 156.08 33.4476C151.44 32.3221 146.48 32.8044 142.16 34.7339C139.12 36.0203 136.72 38.7538 135.76 41.9696C134.8 45.1855 134.8 48.7229 135.76 51.9388L136.72 53.5467C138.64 56.6018 141.84 58.3705 145.36 58.6921L151.28 59.1745C153.2 59.3353 154.96 60.1392 156.4 61.4256L156.56 61.5864C158.64 63.6767 158.48 66.8925 156.4 68.9828C155.28 70.1084 153.84 70.7516 152.4 70.9124C148.56 71.3947 144.72 70.9124 141.36 69.1436L138.8 67.5357L133.68 73.0027Z" fill="white" stroke="white" stroke-width="0.3685" stroke-miterlimit="10" stroke-linecap="round" stroke-linejoin="round"/>
<path d="M30.3198 50.8125H44.3998V90.046H30.3198V50.8125Z" fill="white" stroke="white" stroke-width="0.3685" stroke-miterlimit="10" stroke-linecap="round" stroke-linejoin="round"/>
<path d="M30.3198 90.0469H83.4398V103.714H43.9198L30.3198 90.0469Z" fill="white" stroke="white" stroke-width="0.3685" stroke-miterlimit="10" stroke-linecap="round" stroke-linejoin="round"/>
<path d="M115.76 33.7695H109.2L92.8799 77.9876H101.36L104.4 69.6264H120.24L123.28 77.9876H131.76L115.76 33.7695ZM112.4 63.677H106.48L112.4 46.7938L118.32 63.677H112.4Z" fill="white" stroke="white" stroke-width="0.3685" stroke-miterlimit="10" stroke-linecap="round" stroke-linejoin="round"/>
<rect x="208" y="100" width="35.4783" height="35.4783" fill="#EA515A"/>
<rect x="246.087" y="100" width="69.913" height="35.4783" fill="#EA515A"/>
<path d="M234.205 113.836H233.264C233.011 113.094 232.604 112.299 232.041 111.451C231.487 110.603 230.973 110.147 230.5 110.082C230.239 110.049 229.917 110.021 229.534 109.996C229.151 109.972 228.821 109.959 228.544 109.959H227.969V123.569C227.969 123.863 228.022 124.124 228.128 124.352C228.234 124.572 228.442 124.747 228.752 124.878C228.939 124.951 229.229 125.029 229.62 125.11C230.019 125.184 230.358 125.237 230.635 125.269V126.223H220.962V125.269C221.199 125.245 221.529 125.212 221.953 125.171C222.385 125.122 222.678 125.065 222.833 125C223.151 124.87 223.363 124.694 223.469 124.474C223.575 124.254 223.628 123.993 223.628 123.692V109.959H223.053C222.776 109.959 222.446 109.972 222.063 109.996C221.68 110.021 221.358 110.049 221.097 110.082C220.624 110.147 220.106 110.603 219.544 111.451C218.989 112.299 218.586 113.094 218.333 113.836H217.392V108.871H234.205V113.836Z" fill="white"/>
<rect x="256.522" y="110.436" width="28.6957" height="2.6087" fill="white"/>
<rect x="276.87" y="123.479" width="28.6957" height="2.6087" fill="white"/>
<rect x="256.522" y="116.697" width="49.0435" height="2.6087" fill="white"/>
<rect x="289.913" y="110.436" width="15.6522" height="2.6087" fill="white"/>
<rect x="256.522" y="123.479" width="15.6522" height="2.6087" fill="white"/>
<rect x="57" y="131" width="68" height="68" fill="#161C1F"/>
<rect x="130" y="131" width="134" height="68" fill="#161C1F"/>
<path d="M107.227 157.516H105.422C104.938 156.094 104.156 154.57 103.078 152.945C102.016 151.32 101.031 150.445 100.125 150.32C99.625 150.258 99.0078 150.203 98.2734 150.156C97.5391 150.109 96.9062 150.086 96.375 150.086H95.2734V176.172C95.2734 176.734 95.375 177.234 95.5781 177.672C95.7812 178.094 96.1797 178.43 96.7734 178.68C97.1328 178.82 97.6875 178.969 98.4375 179.125C99.2031 179.266 99.8516 179.367 100.383 179.43V181.258H81.8438V179.43C82.2969 179.383 82.9297 179.32 83.7422 179.242C84.5703 179.148 85.1328 179.039 85.4297 178.914C86.0391 178.664 86.4453 178.328 86.6484 177.906C86.8516 177.484 86.9531 176.984 86.9531 176.406V150.086H85.8516C85.3203 150.086 84.6875 150.109 83.9531 150.156C83.2188 150.203 82.6016 150.258 82.1016 150.32C81.1953 150.445 80.2031 151.32 79.125 152.945C78.0625 154.57 77.2891 156.094 76.8047 157.516H75V148H107.227V157.516Z" fill="white"/>
<rect x="150" y="151" width="55" height="5" fill="white"/>
<rect x="189" y="176" width="55" height="5" fill="white"/>
<rect x="150" y="163" width="94" height="5" fill="white"/>
<rect x="214" y="151" width="30" height="5" fill="white"/>
<rect x="150" y="176" width="30" height="5" fill="white"/>
<path d="M30 310V198L69 190V310H30Z" fill="url(#paint0_linear_4632_23309)"/>
<path d="M121.5 310V206L69 190V310H121.5Z" fill="#EEF6F0"/>
<path d="M121.5 310V226H119L69 259V310H121.5Z" fill="url(#paint1_linear_4632_23309)"/>
<path d="M119 302V226L195 214.5V302H119Z" fill="url(#paint2_linear_4632_23309)"/>
<path d="M189 385V167.5L240 158V385H189Z" fill="url(#paint3_linear_4632_23309)"/>
<path d="M240 385H388V306L344.353 293V226.5L284.651 202.5V179L240 158V385Z" fill="url(#paint4_linear_4632_23309)"/>
<path d="M189 385L189 331.5L240 326L240 385H189Z" fill="#3B4A51"/>
<path d="M365.5 385L365.5 355L240 326V385H365.5Z" fill="url(#paint5_linear_4632_23309)"/>
<path d="M146 379V288L221 305.902V379H146Z" fill="#FFD7D7"/>
<path d="M146 379V288L-9.5 305.902V379H146Z" fill="#EA515A"/>
<rect x="170" y="238" width="45.3379" height="45.3379" fill="white"/>
<rect x="218.671" y="238" width="89.3423" height="45.3379" fill="white"/>
<path d="M203.488 255.68H202.285C201.962 254.732 201.441 253.717 200.722 252.633C200.014 251.55 199.357 250.966 198.753 250.883C198.42 250.841 198.008 250.805 197.519 250.774C197.029 250.742 196.607 250.727 196.253 250.727H195.518V268.119C195.518 268.494 195.586 268.827 195.722 269.119C195.857 269.4 196.123 269.624 196.519 269.791C196.758 269.885 197.128 269.984 197.628 270.088C198.139 270.182 198.571 270.249 198.925 270.291V271.51H186.564V270.291C186.867 270.26 187.288 270.218 187.83 270.166C188.382 270.104 188.757 270.031 188.955 269.947C189.362 269.781 189.632 269.557 189.768 269.275C189.903 268.994 189.971 268.661 189.971 268.275V250.727H189.237C188.882 250.727 188.46 250.742 187.971 250.774C187.481 250.805 187.07 250.841 186.736 250.883C186.132 250.966 185.471 251.55 184.752 252.633C184.043 253.717 183.528 254.732 183.205 255.68H182.001V249.336H203.488V255.68Z" fill="#4D5D5C"/>
<rect x="232.007" y="251.336" width="36.6703" height="3.33367" fill="#4D5D5C"/>
<rect x="258.009" y="268.002" width="36.6703" height="3.33367" fill="#4D5D5C"/>
<rect x="232.007" y="259.336" width="62.673" height="3.33367" fill="#4D5D5C"/>
<rect x="274.677" y="251.336" width="20.002" height="3.33367" fill="#4D5D5C"/>
<rect x="232.007" y="268.002" width="20.002" height="3.33367" fill="#4D5D5C"/>
</g>
<defs>
<linearGradient id="paint0_linear_4632_23309" x1="49.5" y1="190" x2="49.5" y2="310" gradientUnits="userSpaceOnUse">
<stop stop-color="#BFCDCD"/>
<stop offset="1" stop-color="#9BABA9"/>
</linearGradient>
<linearGradient id="paint1_linear_4632_23309" x1="122" y1="255" x2="61" y2="268" gradientUnits="userSpaceOnUse">
<stop stop-color="#4D5D64"/>
<stop offset="1" stop-color="#4D5D64" stop-opacity="0.6"/>
</linearGradient>
<linearGradient id="paint2_linear_4632_23309" x1="119" y1="267" x2="195" y2="266" gradientUnits="userSpaceOnUse">
<stop stop-color="#768487"/>
<stop offset="1" stop-color="#A6B5B4"/>
</linearGradient>
<linearGradient id="paint3_linear_4632_23309" x1="214.5" y1="158" x2="214.5" y2="385" gradientUnits="userSpaceOnUse">
<stop stop-color="#BFCDCD"/>
<stop offset="1" stop-color="#9BABA9"/>
</linearGradient>
<linearGradient id="paint4_linear_4632_23309" x1="327" y1="277" x2="240" y2="330" gradientUnits="userSpaceOnUse">
<stop stop-color="#EEF6F0"/>
<stop offset="1" stop-color="#D1DEDE"/>
</linearGradient>
<linearGradient id="paint5_linear_4632_23309" x1="302.75" y1="326" x2="302.75" y2="385" gradientUnits="userSpaceOnUse">
<stop stop-color="#5A6D76"/>
<stop offset="1" stop-color="#3B4A51"/>
</linearGradient>
<clipPath id="clip0_4632_23309">
<rect width="360" height="360" rx="8" fill="white"/>
</clipPath>
</defs>
</svg>
