<svg width="171" height="81" viewBox="0 0 171 81" fill="none" xmlns="http://www.w3.org/2000/svg">
<g clip-path="url(#clip0_2360_86962)">
<path d="M26.7385 57.4921C28.6946 58.4445 30.1963 59.798 31.2413 61.5532C32.2884 63.3081 32.8109 65.3645 32.8109 67.7224V68.1757C32.8109 70.5357 32.2804 72.598 31.2193 74.369C30.1581 76.138 28.6566 77.4997 26.7165 78.4519C24.7745 79.4043 22.4861 79.8816 19.8473 79.8816C16.6319 79.8816 13.9791 79.0489 11.8869 77.3858L11.7047 79.3365H5.56229V47.7607H12.1572V58.3765C14.2794 56.8332 16.8421 56.0626 19.8453 56.0626C22.4842 56.0626 24.7804 56.5397 26.7385 57.4921ZM25.9878 67.7224C25.9878 65.9395 25.3652 64.546 24.1218 63.5496C22.8785 62.5513 21.1348 62.0523 18.8903 62.0523C17.4648 62.0523 16.1534 62.2799 14.9562 62.733C13.7569 63.1862 12.8259 63.8073 12.1592 64.5938V71.3083C12.8559 72.0948 13.7969 72.7218 14.9802 73.1911C16.1634 73.6601 17.4668 73.8938 18.8923 73.8938C21.1367 73.8938 22.8804 73.3946 24.1239 72.3963C25.3671 71.3982 25.9897 69.9925 25.9897 68.1776V67.7224H25.9878Z" fill="#2070FD"/>
<path d="M62.5875 69.8976H42.298C42.5104 71.3193 43.2071 72.4094 44.3903 73.1641C45.5736 73.9208 47.1652 74.298 49.1674 74.298C50.9871 74.298 52.4727 74.0566 53.626 73.5713C54.7772 73.0881 55.4458 72.4233 55.628 71.5749H62.5434C62.209 74.2361 60.8836 76.2848 58.5633 77.7222C56.2428 79.1597 53.1116 79.8766 49.1693 79.8766C46.3784 79.8766 43.9538 79.4153 41.8916 78.493C39.8295 77.5705 38.2519 76.2467 37.1606 74.5237C36.0696 72.8008 35.523 70.7742 35.523 68.4441V67.5816C35.523 65.2218 36.0755 63.1732 37.1828 61.4342C38.2899 59.6953 39.8675 58.3656 41.9136 57.4412C43.9599 56.5187 46.3784 56.0576 49.1693 56.0576C53.4158 56.0576 56.7133 57.0637 59.0636 59.0742C61.4141 61.0869 62.5894 63.906 62.5894 67.5357V69.8976H62.5875ZM44.7547 62.5044C43.6014 63.1393 42.8446 64.0317 42.4802 65.1818H55.628C55.2636 64.0338 54.5209 63.1393 53.3997 62.5044C52.2766 61.8696 50.851 61.5521 49.1232 61.5521C47.3634 61.5521 45.9078 61.8696 44.7547 62.5044Z" fill="#2070FD"/>
<path d="M84.3176 56.6064V62.4125H79.2222C76.3711 62.4125 74.3692 63.1233 73.218 64.5448V79.3334H66.667V56.6064H72.8074L72.9896 58.693C74.8997 57.3012 77.266 56.6064 80.0871 56.6064H84.3176Z" fill="#2070FD"/>
<path d="M92.5006 78.4729C90.4225 77.5365 88.8307 76.2049 87.7236 74.4798C86.6163 72.7569 86.0639 70.7144 86.0639 68.3565V67.7674C86.0639 65.3794 86.6163 63.307 87.7236 61.552C88.8307 59.7992 90.4225 58.4455 92.5006 57.491C94.5788 56.5388 97.0115 56.0615 99.8023 56.0615C102.379 56.0615 104.693 56.4929 106.74 57.3533C108.786 58.2139 110.379 59.4097 111.517 60.9371C112.654 62.4645 113.222 64.2114 113.222 66.176V66.3577H106.445V66.176C106.445 64.9662 105.831 63.9758 104.603 63.2053C103.376 62.4346 101.774 62.0493 99.8042 62.0493C97.5599 62.0493 95.8461 62.5405 94.665 63.5228C93.4817 64.5051 92.891 65.9346 92.891 67.8093V68.3085C92.891 70.1234 93.4817 71.507 94.665 72.4592C95.8482 73.4116 97.5599 73.8889 99.8042 73.8889C101.806 73.8889 103.412 73.5194 104.627 72.7767C105.841 72.036 106.447 71.0457 106.447 69.8059V69.6243H113.224V69.8059C113.224 71.8024 112.67 73.5634 111.565 75.0908C110.458 76.6182 108.896 77.7982 106.88 78.6287C104.862 79.4592 102.505 79.8765 99.8064 79.8765C97.0115 79.8786 94.5788 79.4093 92.5006 78.4729Z" fill="#2070FD"/>
<path d="M142.771 56.6064V79.3334H136.631L136.449 77.1551C134.447 78.91 131.884 79.8165 128.761 79.8763C124.849 79.9062 121.87 78.9001 119.821 76.8595C117.773 74.8172 116.75 71.8003 116.75 67.8092V56.6064H123.347V67.8111C123.347 69.7778 123.886 71.2812 124.963 72.3254C126.04 73.3696 127.608 73.8907 129.672 73.8907C131.097 73.8907 132.387 73.5652 133.538 72.9144C134.691 72.2635 135.57 71.3791 136.177 70.261V56.6064H142.771Z" fill="#2070FD"/>
<path d="M159.426 62.4128V71.032C159.426 71.8486 159.66 72.4775 160.13 72.9147C160.601 73.3539 161.276 73.5716 162.154 73.5716H167.522V79.3337H161.29C158.681 79.3337 156.619 78.6309 155.103 77.2252C153.585 75.8198 152.829 73.9069 152.829 71.4871V62.4149H145.233V56.6069H151.329C151.966 56.6069 152.406 56.4871 152.649 56.2436C152.891 56.0019 153.013 55.5627 153.013 54.9278V50.5732H159.428V56.6069H168.89V62.4128H159.426Z" fill="#2070FD"/>
<path d="M28.6921 35.7695L24.0572 31.1476C23.4186 30.5106 22.5536 30.1533 21.6507 30.1533H13.3239C12.3349 30.1533 11.8384 31.3451 12.5391 32.0441L17.174 36.666C17.8126 37.303 18.6775 37.6603 19.5805 37.6603H27.9072C28.8963 37.6603 29.3928 36.4685 28.6921 35.7695Z" fill="#2070FD"/>
<path d="M76.5643 0.124023H65.7029C64.2071 0.124023 62.7737 0.717002 61.7145 1.77119L52.6851 10.7757C52.5971 10.8535 52.5109 10.9314 52.4267 11.0153L43.8499 19.5705L43.2793 20.1355C41.8697 21.5312 39.5933 21.5272 38.1879 20.1276L20.1188 2.1086C18.8435 0.836796 17.1157 0.124023 15.3138 0.124023H2.22201C0.245934 0.124023 -0.743107 2.50592 0.654362 3.89952L32.5179 35.6748C33.7932 36.9466 35.5209 37.6594 37.323 37.6594H50.4146C52.3908 37.6594 53.3799 35.2775 51.9823 33.8838L48.3685 30.28C47.5177 29.4116 46.6689 28.543 45.8179 27.6764C44.4104 26.2729 45.4075 23.8752 47.3955 23.8752H54.8353C56.331 23.8752 57.7644 23.2821 58.8215 22.228L67.8511 13.2235C67.9391 13.1456 68.0253 13.0677 68.1093 12.9839L77.8635 3.25663C79.0248 2.10062 78.204 0.124023 76.5643 0.124023Z" fill="#2070FD"/>
</g>
<defs>
<clipPath id="clip0_2360_86962">
<rect width="171" height="80" fill="white" transform="translate(0 0.124023)"/>
</clipPath>
</defs>
</svg>
