<svg width="360" height="360" viewBox="0 0 360 360" fill="none" xmlns="http://www.w3.org/2000/svg">
<g clip-path="url(#clip0_4140_6793)">
<rect width="360" height="360" rx="8" fill="#B7E2FC"/>
<rect y="239.25" width="375" height="75.75" fill="#80CBF7"/>
<rect opacity="0.4" x="14.25" y="267.75" width="39" height="2.25" rx="1.125" fill="white"/>
<rect opacity="0.4" x="306.75" y="256.5" width="23.25" height="2.25" rx="1.125" fill="white"/>
<g clip-path="url(#clip1_4140_6793)">
<path d="M63.8288 61.2171C66.1501 62.0088 67.9685 63.3423 69.2838 65.2175C70.5992 67.0509 71.257 69.3219 71.257 72.0305C71.257 75.8642 69.8642 78.8227 67.0786 80.9062C64.3317 82.9481 60.3082 83.969 55.0078 83.969H34V40.2153H53.8472C58.7994 40.2153 62.5907 41.2363 65.2216 43.2781C67.891 45.3199 69.2258 48.091 69.2258 51.5913C69.2258 53.7165 68.7422 55.6125 67.775 57.2793C66.8466 58.946 65.531 60.2586 63.8288 61.2171ZM43.3433 47.841V58.1544H52.6866C55.0078 58.1544 56.7682 57.7168 57.9675 56.8417C59.1669 55.9666 59.7666 54.6749 59.7666 52.9664C59.7666 51.2579 59.1669 49.987 57.9675 49.1536C56.7682 48.2785 55.0078 47.841 52.6866 47.841H43.3433ZM54.3114 76.3433C56.7875 76.3433 58.6445 75.9058 59.8826 75.0307C61.1594 74.1557 61.7976 72.8014 61.7976 70.9679C61.7976 67.3426 59.3022 65.5299 54.3114 65.5299H43.3433V76.3433H54.3114Z" fill="#09496F"/>
<path d="M172.133 83.969L164.298 71.7805H155.651V83.969H146.25V40.2153H163.834C167.432 40.2153 170.546 40.8612 173.177 42.153C175.847 43.4447 177.897 45.2783 179.329 47.6535C180.76 50.0286 181.476 52.8413 181.476 56.0917C181.476 59.342 180.741 62.1547 179.271 64.5299C177.839 66.8634 175.789 68.6552 173.119 69.9053L182.23 83.969H172.133ZM171.959 56.0917C171.959 53.6332 171.224 51.758 169.753 50.4663C168.283 49.1328 166.136 48.466 163.312 48.466H155.651V63.7173H163.312C166.136 63.7173 168.283 63.0505 169.753 61.7172C171.224 60.3837 171.959 58.5085 171.959 56.0917Z" fill="#09496F"/>
<path d="M220.32 74.5932H201.459L197.861 83.969H188.228L206.334 40.2153H215.619L233.784 83.969H223.918L220.32 74.5932ZM217.36 66.905L210.918 50.1537L204.477 66.905H217.36Z" fill="#09496F"/>
<path fill-rule="evenodd" clip-rule="evenodd" d="M114.906 45.2608H99.6019C94.5304 45.2608 90.4192 49.3712 90.4192 54.4415V69.7429C90.4192 74.8132 94.5304 78.9236 99.6019 78.9236H114.906C119.978 78.9236 124.089 74.8132 124.089 69.7429V54.4415C124.089 49.3712 119.978 45.2608 114.906 45.2608ZM99.6019 42.2004C92.84 42.2004 87.3584 47.6809 87.3584 54.4415V69.7429C87.3584 76.5035 92.84 81.984 99.6019 81.984H114.906C121.668 81.984 127.15 76.5035 127.15 69.7429V54.4415C127.15 47.6809 121.668 42.2004 114.906 42.2004H99.6019Z" fill="#09496F"/>
<path d="M114.099 64.9241L142.454 62.0922L114.099 59.2567L119.498 49.8511L110.089 55.2495L107.254 26.899L104.418 55.2495L93.4803 49.8511L100.409 59.2567L72.0542 62.0922L100.409 64.9241L93.4803 74.3333L104.418 68.9361L107.254 97.2853L110.089 68.9361L119.498 74.3333L114.099 64.9241Z" fill="#09496F"/>
</g>
<path fill-rule="evenodd" clip-rule="evenodd" d="M293.175 116.271C294.105 110.725 298.928 106.5 304.737 106.5C310.547 106.5 315.37 110.725 316.3 116.271H293.175Z" fill="white"/>
<path fill-rule="evenodd" clip-rule="evenodd" d="M334.176 116.271H316.425C317.139 112.014 320.841 108.771 325.3 108.771C329.76 108.771 333.462 112.014 334.176 116.271Z" fill="white"/>
<path fill-rule="evenodd" clip-rule="evenodd" d="M292.926 116.271H280.5C281 113.291 283.591 111.021 286.713 111.021C289.835 111.021 292.426 113.291 292.926 116.271Z" fill="white"/>
<path fill-rule="evenodd" clip-rule="evenodd" d="M359.877 221.299H359.644C359.683 221.3 359.722 221.3 359.761 221.3C359.8 221.3 359.838 221.3 359.877 221.299ZM377.536 200.27H341.985C343.415 191.746 350.829 185.25 359.761 185.25C368.692 185.25 376.106 191.746 377.536 200.27Z" fill="white"/>
<path fill-rule="evenodd" clip-rule="evenodd" d="M341.602 200.271H322.5C323.268 195.69 327.252 192.2 332.051 192.2C336.85 192.2 340.834 195.69 341.602 200.271Z" fill="white"/>
<path fill-rule="evenodd" clip-rule="evenodd" d="M5.87745 195.799H5.644C5.68288 195.8 5.72179 195.8 5.76072 195.8C5.79966 195.8 5.83857 195.8 5.87745 195.799ZM23.5363 174.77H-12.0149C-10.5845 166.246 -3.17047 159.75 5.76072 159.75C14.6919 159.75 22.106 166.246 23.5363 174.77Z" fill="white"/>
<path fill-rule="evenodd" clip-rule="evenodd" d="M51.0167 174.77H23.7275C24.8254 168.226 30.5164 163.24 37.3721 163.24C44.2278 163.24 49.9188 168.226 51.0167 174.77Z" fill="white"/>
<path fill-rule="evenodd" clip-rule="evenodd" d="M192.313 145.266H161.47C162.711 137.87 169.143 132.234 176.891 132.234C184.64 132.234 191.072 137.87 192.313 145.266Z" fill="white"/>
<path fill-rule="evenodd" clip-rule="evenodd" d="M160.821 145.266H144.313C144.977 141.307 148.42 138.291 152.567 138.291C156.714 138.291 160.157 141.307 160.821 145.266Z" fill="white"/>
<path fill-rule="evenodd" clip-rule="evenodd" d="M292.875 47.8573H264.924C266.048 41.1548 271.877 36.0476 278.899 36.0476C285.921 36.0476 291.751 41.1548 292.875 47.8573Z" fill="white"/>
<path fill-rule="evenodd" clip-rule="evenodd" d="M264.336 47.857H249.375C249.977 44.2694 253.097 41.5358 256.855 41.5358C260.614 41.5358 263.734 44.2694 264.336 47.857Z" fill="white"/>
<rect x="39.75" y="237.75" width="16.5" height="9" fill="#2683B9"/>
<path fill-rule="evenodd" clip-rule="evenodd" d="M36.75 223.5H351.75C341.125 232.75 318.45 256.05 312.75 275.25H57L36.9901 246.375H47.25L54 239.625H32.3125L27.375 232.5L36.75 223.5Z" fill="white"/>
<path fill-rule="evenodd" clip-rule="evenodd" d="M245.022 275.25H312.75C318.45 256.05 341.125 232.75 351.75 223.5H297.319L245.022 275.25Z" fill="#F5F5F5"/>
<rect x="315" y="236.25" width="9" height="5.25" rx="2.625" fill="#434343"/>
<rect x="66.75" y="266.25" width="9" height="3.75" rx="1.875" fill="#434343"/>
<rect x="78.75" y="266.25" width="9" height="3.75" rx="1.875" fill="#434343"/>
<rect x="90.75" y="266.25" width="9" height="3.75" rx="1.875" fill="#434343"/>
<rect x="45" y="226.5" width="5.25" height="5.25" rx="2.625" fill="#2683B9"/>
<rect x="53.25" y="226.5" width="5.25" height="5.25" rx="2.625" fill="#2683B9"/>
<rect x="61.5" y="226.5" width="5.25" height="5.25" rx="2.625" fill="#2683B9"/>
<rect x="69.75" y="226.5" width="5.25" height="5.25" rx="2.625" fill="#2683B9"/>
<rect x="78" y="226.5" width="5.25" height="5.25" rx="2.625" fill="#2683B9"/>
<rect x="86.25" y="226.5" width="5.25" height="5.25" rx="2.625" fill="#2683B9"/>
<rect x="94.5" y="226.5" width="5.25" height="5.25" rx="2.625" fill="#2683B9"/>
<rect x="102.75" y="226.5" width="5.25" height="5.25" rx="2.625" fill="#2683B9"/>
<rect x="111" y="226.5" width="5.25" height="5.25" rx="2.625" fill="#2683B9"/>
<rect x="119.25" y="226.5" width="5.25" height="5.25" rx="2.625" fill="#2683B9"/>
<rect x="127.5" y="226.5" width="5.25" height="5.25" rx="2.625" fill="#2683B9"/>
<rect x="135.75" y="226.5" width="5.25" height="5.25" rx="2.625" fill="#2683B9"/>
<rect x="144" y="226.5" width="5.25" height="5.25" rx="2.625" fill="#2683B9"/>
<rect x="152.25" y="226.5" width="5.25" height="5.25" rx="2.625" fill="#2683B9"/>
<rect x="160.5" y="226.5" width="5.25" height="5.25" rx="2.625" fill="#2683B9"/>
<rect x="168.75" y="226.5" width="5.25" height="5.25" rx="2.625" fill="#2683B9"/>
<rect x="177" y="226.5" width="5.25" height="5.25" rx="2.625" fill="#2683B9"/>
<rect x="185.25" y="226.5" width="5.25" height="5.25" rx="2.625" fill="#2683B9"/>
<rect x="193.5" y="226.5" width="5.25" height="5.25" rx="2.625" fill="#2683B9"/>
<rect x="201.75" y="226.5" width="5.25" height="5.25" rx="2.625" fill="#2683B9"/>
<rect x="210" y="226.5" width="5.25" height="5.25" rx="2.625" fill="#2683B9"/>
<rect x="218.25" y="226.5" width="5.25" height="5.25" rx="2.625" fill="#2683B9"/>
<rect x="226.5" y="226.5" width="5.25" height="5.25" rx="2.625" fill="#2683B9"/>
<rect x="234.75" y="226.5" width="5.25" height="5.25" rx="2.625" fill="#2683B9"/>
<rect x="243" y="226.5" width="5.25" height="5.25" rx="2.625" fill="#2683B9"/>
<rect x="251.25" y="226.5" width="5.25" height="5.25" rx="2.625" fill="#2683B9"/>
<rect x="259.5" y="226.5" width="5.25" height="5.25" rx="2.625" fill="#2683B9"/>
<rect x="267.75" y="226.5" width="5.25" height="5.25" rx="2.625" fill="#2683B9"/>
<rect x="276" y="226.5" width="5.25" height="5.25" rx="2.625" fill="#2683B9"/>
<path d="M39 249.75H49.125L52.125 253.5H42L39 249.75Z" fill="#EFEFEF"/>
<path d="M63 240H86.625L89.625 243.75H66L63 240Z" fill="#EFEFEF"/>
<path d="M93 240H211.875L214.875 243.75H96L93 240Z" fill="#EFEFEF"/>
<path d="M93 247.5H273.375L269.25 251.25H96L93 247.5Z" fill="#EFEFEF"/>
<path d="M93 255H150.375L153.375 258.75H96L93 255Z" fill="#EFEFEF"/>
<path d="M200.625 255H224.625L227.625 258.75H203.625L200.625 255Z" fill="#EFEFEF"/>
<path fill-rule="evenodd" clip-rule="evenodd" d="M45.75 223.5H308.25L300.75 215.25H292.125H51.1327L45.75 223.5Z" fill="#EBEAEA"/>
<rect x="121.5" y="216" width="14.25" height="3" fill="#EA6044"/>
<rect x="121.5" y="219" width="14.25" height="3" fill="white"/>
<rect x="138.75" y="216" width="14.25" height="3" fill="#EA6044"/>
<rect x="138.75" y="219" width="14.25" height="3" fill="white"/>
<rect x="156" y="216" width="14.25" height="3" fill="#EA6044"/>
<rect x="156" y="219" width="14.25" height="3" fill="white"/>
<rect x="173.25" y="216" width="14.25" height="3" fill="#EA6044"/>
<rect x="173.25" y="219" width="14.25" height="3" fill="white"/>
<rect x="190.5" y="216" width="14.25" height="3" fill="#EA6044"/>
<rect x="190.5" y="219" width="14.25" height="3" fill="white"/>
<rect x="223.5" y="216" width="14.25" height="3" fill="#EA6044"/>
<rect x="223.5" y="219" width="14.25" height="3" fill="white"/>
<rect x="240.75" y="216" width="14.25" height="3" fill="#EA6044"/>
<rect x="240.75" y="219" width="14.25" height="3" fill="white"/>
<rect x="258" y="216" width="14.25" height="3" fill="#EA6044"/>
<rect x="258" y="219" width="14.25" height="3" fill="white"/>
<path d="M65.625 215.25H82.125L78.375 220.5H61.875L65.625 215.25Z" fill="white"/>
<path d="M90.75 215.25H107.25L103.5 220.5H87L90.75 215.25Z" fill="white"/>
<path fill-rule="evenodd" clip-rule="evenodd" d="M51.1328 215.25L61.8982 198.75H278.583L292.125 215.25H51.1328Z" fill="white"/>
<mask id="mask0_4140_6793" style="mask-type:alpha" maskUnits="userSpaceOnUse" x="51" y="198" width="242" height="18">
<path fill-rule="evenodd" clip-rule="evenodd" d="M51.1328 215.25L61.8982 198.75H278.583L292.125 215.25H51.1328Z" fill="white"/>
</mask>
<g mask="url(#mask0_4140_6793)">
<rect x="47.2502" y="207.75" width="256.5" height="3" fill="#2683B9"/>
<rect x="47.2502" y="203.25" width="256.5" height="3" fill="#2683B9"/>
</g>
<rect x="265.5" y="186.75" width="0.75" height="12" fill="#434343"/>
<path d="M257.25 190.5L265.5 186.75V194.25L257.25 190.5Z" fill="#EA6044"/>
<path d="M17.625 314.625V287.25C12.375 287.25 9.375 288 4.125 292.5C-0.0750008 296.1 -5.625 296 -8.25 295.875V314.625H17.625Z" fill="#51AEE4"/>
<path d="M17.625 314.625V287.25C22.875 287.25 25.875 288 31.125 292.5C35.325 296.1 40.875 296 43.5 295.875V314.625H17.625Z" fill="#51AEE4"/>
<path d="M69.375 314.625V287.25C64.125 287.25 61.125 288 55.875 292.5C51.675 296.1 46.125 296 43.5 295.875V314.625H69.375Z" fill="#51AEE4"/>
<path d="M69.375 314.625V287.25C74.625 287.25 77.625 288 82.875 292.5C87.075 296.1 92.625 296 95.25 295.875V314.625H69.375Z" fill="#51AEE4"/>
<path d="M121.125 314.625V287.25C115.875 287.25 112.875 288 107.625 292.5C103.425 296.1 97.875 296 95.25 295.875V314.625H121.125Z" fill="#51AEE4"/>
<path d="M121.125 314.625V287.25C126.375 287.25 129.375 288 134.625 292.5C138.825 296.1 144.375 296 147 295.875V314.625H121.125Z" fill="#51AEE4"/>
<path d="M172.875 314.625V287.25C167.625 287.25 164.625 288 159.375 292.5C155.175 296.1 149.625 296 147 295.875V314.625H172.875Z" fill="#51AEE4"/>
<path d="M172.875 314.625V287.25C178.125 287.25 181.125 288 186.375 292.5C190.575 296.1 196.125 296 198.75 295.875V314.625H172.875Z" fill="#51AEE4"/>
<path d="M224.625 314.625V287.25C219.375 287.25 216.375 288 211.125 292.5C206.925 296.1 201.375 296 198.75 295.875V314.625H224.625Z" fill="#51AEE4"/>
<path d="M224.625 314.625V287.25C229.875 287.25 232.875 288 238.125 292.5C242.325 296.1 247.875 296 250.5 295.875V314.625H224.625Z" fill="#51AEE4"/>
<path d="M276.375 314.625V287.25C271.125 287.25 268.125 288 262.875 292.5C258.675 296.1 253.125 296 250.5 295.875V314.625H276.375Z" fill="#51AEE4"/>
<path d="M276.375 314.625V287.25C281.625 287.25 284.625 288 289.875 292.5C294.075 296.1 299.625 296 302.25 295.875V314.625H276.375Z" fill="#51AEE4"/>
<path d="M328.125 314.625V287.25C322.875 287.25 319.875 288 314.625 292.5C310.425 296.1 304.875 296 302.25 295.875V314.625H328.125Z" fill="#51AEE4"/>
<path d="M328.125 314.625V287.25C333.375 287.25 336.375 288 341.625 292.5C345.825 296.1 351.375 296 354 295.875V314.625H328.125Z" fill="#51AEE4"/>
<path d="M379.875 314.625V287.25C374.625 287.25 371.625 288 366.375 292.5C362.175 296.1 356.625 296 354 295.875V314.625H379.875Z" fill="#51AEE4"/>
<path d="M-8.625 333.375V306C-3.375 306 -0.375 306.75 4.875 311.25C9.075 314.85 14.625 314.75 17.25 314.625V333.375H-8.625Z" fill="#43A0D6"/>
<path d="M43.125 333.375V306C37.875 306 34.875 306.75 29.625 311.25C25.425 314.85 19.875 314.75 17.25 314.625V333.375H43.125Z" fill="#43A0D6"/>
<path d="M43.125 333.375V306C48.375 306 51.375 306.75 56.625 311.25C60.825 314.85 66.375 314.75 69 314.625V333.375H43.125Z" fill="#43A0D6"/>
<path d="M94.875 333.375V306C89.625 306 86.625 306.75 81.375 311.25C77.175 314.85 71.625 314.75 69 314.625V333.375H94.875Z" fill="#43A0D6"/>
<path d="M94.875 333.375V306C100.125 306 103.125 306.75 108.375 311.25C112.575 314.85 118.125 314.75 120.75 314.625V333.375H94.875Z" fill="#43A0D6"/>
<path d="M146.625 333.375V306C141.375 306 138.375 306.75 133.125 311.25C128.925 314.85 123.375 314.75 120.75 314.625V333.375H146.625Z" fill="#43A0D6"/>
<path d="M146.625 333.375V306C151.875 306 154.875 306.75 160.125 311.25C164.325 314.85 169.875 314.75 172.5 314.625V333.375H146.625Z" fill="#43A0D6"/>
<path d="M198.375 333.375V306C193.125 306 190.125 306.75 184.875 311.25C180.675 314.85 175.125 314.75 172.5 314.625V333.375H198.375Z" fill="#43A0D6"/>
<path d="M198.375 333.375V306C203.625 306 206.625 306.75 211.875 311.25C216.075 314.85 221.625 314.75 224.25 314.625V333.375H198.375Z" fill="#43A0D6"/>
<path d="M250.125 333.375V306C244.875 306 241.875 306.75 236.625 311.25C232.425 314.85 226.875 314.75 224.25 314.625V333.375H250.125Z" fill="#43A0D6"/>
<path d="M250.125 333.375V306C255.375 306 258.375 306.75 263.625 311.25C267.825 314.85 273.375 314.75 276 314.625V333.375H250.125Z" fill="#43A0D6"/>
<path d="M301.875 333.375V306C296.625 306 293.625 306.75 288.375 311.25C284.175 314.85 278.625 314.75 276 314.625V333.375H301.875Z" fill="#43A0D6"/>
<path d="M301.875 333.375V306C307.125 306 310.125 306.75 315.375 311.25C319.575 314.85 325.125 314.75 327.75 314.625V333.375H301.875Z" fill="#43A0D6"/>
<path d="M353.625 333.375V306C348.375 306 345.375 306.75 340.125 311.25C335.925 314.85 330.375 314.75 327.75 314.625V333.375H353.625Z" fill="#43A0D6"/>
<path d="M353.625 333.375V306C358.875 306 361.875 306.75 367.125 311.25C371.325 314.85 376.875 314.75 379.5 314.625V333.375H353.625Z" fill="#43A0D6"/>
<path d="M17.625 352.125V324.75C12.375 324.75 9.375 325.5 4.125 330C-0.0750008 333.6 -5.625 333.5 -8.25 333.375V352.125H17.625Z" fill="#2683B9"/>
<path d="M17.625 352.125V324.75C22.875 324.75 25.875 325.5 31.125 330C35.325 333.6 40.875 333.5 43.5 333.375V352.125H17.625Z" fill="#2683B9"/>
<path d="M69.375 352.125V324.75C64.125 324.75 61.125 325.5 55.875 330C51.675 333.6 46.125 333.5 43.5 333.375V352.125H69.375Z" fill="#2683B9"/>
<path d="M69.375 352.125V324.75C74.625 324.75 77.625 325.5 82.875 330C87.075 333.6 92.625 333.5 95.25 333.375V352.125H69.375Z" fill="#2683B9"/>
<path d="M121.125 352.125V324.75C115.875 324.75 112.875 325.5 107.625 330C103.425 333.6 97.875 333.5 95.25 333.375V352.125H121.125Z" fill="#2683B9"/>
<path d="M121.125 352.125V324.75C126.375 324.75 129.375 325.5 134.625 330C138.825 333.6 144.375 333.5 147 333.375V352.125H121.125Z" fill="#2683B9"/>
<path d="M172.875 352.125V324.75C167.625 324.75 164.625 325.5 159.375 330C155.175 333.6 149.625 333.5 147 333.375V352.125H172.875Z" fill="#2683B9"/>
<path d="M172.875 352.125V324.75C178.125 324.75 181.125 325.5 186.375 330C190.575 333.6 196.125 333.5 198.75 333.375V352.125H172.875Z" fill="#2683B9"/>
<path d="M224.625 352.125V324.75C219.375 324.75 216.375 325.5 211.125 330C206.925 333.6 201.375 333.5 198.75 333.375V352.125H224.625Z" fill="#2683B9"/>
<path d="M224.625 352.125V324.75C229.875 324.75 232.875 325.5 238.125 330C242.325 333.6 247.875 333.5 250.5 333.375V352.125H224.625Z" fill="#2683B9"/>
<path d="M276.375 352.125V324.75C271.125 324.75 268.125 325.5 262.875 330C258.675 333.6 253.125 333.5 250.5 333.375V352.125H276.375Z" fill="#2683B9"/>
<path d="M276.375 352.125V324.75C281.625 324.75 284.625 325.5 289.875 330C294.075 333.6 299.625 333.5 302.25 333.375V352.125H276.375Z" fill="#2683B9"/>
<path d="M328.125 352.125V324.75C322.875 324.75 319.875 325.5 314.625 330C310.425 333.6 304.875 333.5 302.25 333.375V352.125H328.125Z" fill="#2683B9"/>
<path d="M328.125 352.125V324.75C333.375 324.75 336.375 325.5 341.625 330C345.825 333.6 351.375 333.5 354 333.375V352.125H328.125Z" fill="#2683B9"/>
<path d="M379.875 352.125V324.75C374.625 324.75 371.625 325.5 366.375 330C362.175 333.6 356.625 333.5 354 333.375V352.125H379.875Z" fill="#2683B9"/>
<rect opacity="0.4" x="34.5" y="275.25" width="291" height="2.25" rx="1.125" fill="white"/>
<rect opacity="0.4" x="316.5" y="267.75" width="39" height="2.25" rx="1.125" fill="white"/>
<path d="M18.375 367.125V339.75C13.125 339.75 10.125 340.5 4.875 345C0.674999 348.6 -4.875 348.5 -7.5 348.375V367.125H18.375Z" fill="#2683B9"/>
<path d="M18.375 367.125V339.75C23.625 339.75 26.625 340.5 31.875 345C36.075 348.6 41.625 348.5 44.25 348.375V367.125H18.375Z" fill="#2683B9"/>
<path d="M70.125 367.125V339.75C64.875 339.75 61.875 340.5 56.625 345C52.425 348.6 46.875 348.5 44.25 348.375V367.125H70.125Z" fill="#2683B9"/>
<path d="M70.125 367.125V339.75C75.375 339.75 78.375 340.5 83.625 345C87.825 348.6 93.375 348.5 96 348.375V367.125H70.125Z" fill="#2683B9"/>
<path d="M121.875 367.125V339.75C116.625 339.75 113.625 340.5 108.375 345C104.175 348.6 98.625 348.5 96 348.375V367.125H121.875Z" fill="#2683B9"/>
<path d="M121.875 367.125V339.75C127.125 339.75 130.125 340.5 135.375 345C139.575 348.6 145.125 348.5 147.75 348.375V367.125H121.875Z" fill="#2683B9"/>
<path d="M173.625 367.125V339.75C168.375 339.75 165.375 340.5 160.125 345C155.925 348.6 150.375 348.5 147.75 348.375V367.125H173.625Z" fill="#2683B9"/>
<path d="M173.625 367.125V339.75C178.875 339.75 181.875 340.5 187.125 345C191.325 348.6 196.875 348.5 199.5 348.375V367.125H173.625Z" fill="#2683B9"/>
<path d="M225.375 367.125V339.75C220.125 339.75 217.125 340.5 211.875 345C207.675 348.6 202.125 348.5 199.5 348.375V367.125H225.375Z" fill="#2683B9"/>
<path d="M225.375 367.125V339.75C230.625 339.75 233.625 340.5 238.875 345C243.075 348.6 248.625 348.5 251.25 348.375V367.125H225.375Z" fill="#2683B9"/>
<path d="M277.125 367.125V339.75C271.875 339.75 268.875 340.5 263.625 345C259.425 348.6 253.875 348.5 251.25 348.375V367.125H277.125Z" fill="#2683B9"/>
<path d="M277.125 367.125V339.75C282.375 339.75 285.375 340.5 290.625 345C294.825 348.6 300.375 348.5 303 348.375V367.125H277.125Z" fill="#2683B9"/>
<path d="M328.875 367.125V339.75C323.625 339.75 320.625 340.5 315.375 345C311.175 348.6 305.625 348.5 303 348.375V367.125H328.875Z" fill="#2683B9"/>
<path d="M328.875 367.125V339.75C334.125 339.75 337.125 340.5 342.375 345C346.575 348.6 352.125 348.5 354.75 348.375V367.125H328.875Z" fill="#2683B9"/>
<path d="M380.625 367.125V339.75C375.375 339.75 372.375 340.5 367.125 345C362.925 348.6 357.375 348.5 354.75 348.375V367.125H380.625Z" fill="#2683B9"/>
</g>
<defs>
<clipPath id="clip0_4140_6793">
<rect width="360" height="360" rx="8" fill="white"/>
</clipPath>
<clipPath id="clip1_4140_6793">
<rect width="200" height="70.3863" fill="white" transform="translate(34 26.899)"/>
</clipPath>
</defs>
</svg>
