<svg width="360" height="360" viewBox="0 0 360 360" fill="none" xmlns="http://www.w3.org/2000/svg">
<g clip-path="url(#clip0_2286_82997)">
<rect width="360" height="360" rx="8" fill="#191928"/>
<g clip-path="url(#clip1_2286_82997)">
<path d="M87.929 71.8091C87.0032 68.7564 84.2258 66.5 80.9193 66.5C84.2258 66.5 87.0032 64.2436 87.929 61.1909C88.0613 60.5273 88.1935 59.8636 88.1935 59.2V44.6C88.1935 36.5036 81.7129 30 73.6451 30H72.8516H61.3451H40.9774C40.5806 30 40.3161 30 40.0516 30.1327C38.4645 30.5309 37.2742 31.9909 37.2742 33.7164V37.4327V51.6345C37.2742 51.9 37.4064 52.0327 37.6709 52.0327C45.4742 52.2982 51.8226 58.6691 51.8226 66.6327C51.8226 74.5964 45.6064 80.9673 37.6709 81.2327C37.4064 81.2327 37.2742 81.4982 37.2742 81.6309V95.8327V99.5491C37.2742 101.275 38.4645 102.735 40.0516 103.133C40.3161 103 40.5806 103 40.9774 103H61.4774H72.9838H73.6451C81.7129 103 88.1935 96.4964 88.1935 88.4V73.8C88.1935 73.0036 88.0613 72.34 87.929 71.8091Z" fill="#00C6FF"/>
<path d="M87.9291 71.8091C87.0033 68.7564 84.2259 66.5 80.9194 66.5C84.2259 66.5 87.0033 64.2436 87.9291 61.1909C88.0613 60.5273 88.1936 59.8636 88.1936 59.2V44.6C88.1936 36.5036 81.713 30 73.6452 30H72.8517H61.3452C73.1162 37.8309 80.9194 51.2364 80.9194 66.5C80.9194 81.7636 73.1162 95.1691 61.3452 103H72.8517H73.6452C81.713 103 88.1936 96.4964 88.1936 88.4V73.8C88.1936 73.0036 88.0613 72.34 87.9291 71.8091Z" fill="#00A0FF"/>
<path d="M61.3451 30H40.9774C40.5806 30 40.3161 30 40.0516 30.1327C38.4645 30.5309 37.2742 31.9909 37.2742 33.7164V37.4327C53.2774 37.4327 66.3709 50.5727 66.3709 66.6327C66.3709 82.6927 53.4097 95.8327 37.2742 95.8327V99.5491C37.2742 101.275 38.4645 102.735 40.0516 103.133C40.3161 103 40.5806 103 40.9774 103H61.4774C73.2484 95.1691 81.0516 81.7636 81.0516 66.5C80.9193 51.2364 73.1161 37.8309 61.3451 30Z" fill="#00B4FF"/>
<path d="M37.2742 37.2998V51.5016C37.2742 51.7671 37.4064 51.8998 37.6709 51.8998C45.4742 52.1653 51.8226 58.5362 51.8226 66.4998C51.8226 74.4634 45.6064 80.8344 37.6709 81.0998C37.4064 81.0998 37.2742 81.3653 37.2742 81.498V95.6998C53.2774 95.6998 66.3709 82.5598 66.3709 66.4998C66.3709 50.4398 53.4097 37.2998 37.2742 37.2998Z" fill="#00C8FF"/>
<path d="M37.5387 59.2002C36.4806 59.2002 35.4226 59.3329 34.4968 59.7311C34.2323 59.8638 34.1 60.1293 34.2323 60.3947C34.4968 60.7929 34.629 61.3238 34.4968 61.8547C34.3645 62.7838 33.571 63.5802 32.6452 63.7129C32.1161 63.8456 31.5871 63.7129 31.1903 63.4475C30.9258 63.3147 30.6613 63.4475 30.529 63.7129C30.1323 64.642 30 65.5711 30 66.7656C30.1323 70.482 33.1742 73.6675 36.8774 73.8002C41.2419 74.0656 44.6806 70.482 44.5484 66.102C44.4161 62.3856 41.2419 59.3329 37.5387 59.2002Z" fill="white"/>
<path d="M124.3 59.5985C124.3 62.5185 123.374 64.5094 121.126 65.8367V65.9694C123.771 66.8985 125.358 69.4203 125.358 73.1367C125.358 78.313 121.523 81.1003 116.1 81.1003H104.461C103.403 81.1003 103.006 80.7021 103.006 79.6403V53.2276C103.006 52.1658 103.403 51.7676 104.461 51.7676H115.836C121.126 51.9003 124.3 54.6876 124.3 59.5985ZM115.306 56.6785H108.297V63.8458H115.306C117.687 63.8458 119.01 62.6512 119.01 60.2621C119.01 57.873 117.687 56.6785 115.306 56.6785ZM115.968 68.6239H108.297V76.3221H115.968C118.481 76.3221 119.803 74.9949 119.803 72.6058C119.803 70.2167 118.481 68.6239 115.968 68.6239Z" fill="white"/>
<path d="M139.377 59.2002C140.303 59.2002 140.7 59.4656 140.7 60.5275V62.3856C140.7 63.3147 140.436 63.7129 139.377 63.7129H137.923C136.336 63.7129 135.145 63.8456 134.087 64.2438C133.69 64.3766 133.69 64.5093 133.69 64.7747V80.0384C133.69 80.9675 133.426 81.3656 132.5 81.3656H130.252C129.326 81.3656 128.929 81.1002 128.929 80.0384V62.7838C128.929 61.4566 129.194 60.9256 130.516 60.3947C131.971 59.8638 134.484 59.2002 138.187 59.2002H139.377Z" fill="white"/>
<path d="M149.297 54.2894V54.6876C149.297 56.5458 148.636 57.2094 146.784 57.2094H146.519C144.668 57.2094 144.006 56.5458 144.006 54.6876V54.2894C144.006 52.4312 144.668 51.7676 146.519 51.7676H146.784C148.636 51.7676 149.297 52.4312 149.297 54.2894ZM149.032 61.0585V79.773C149.032 80.7021 148.768 81.1003 147.71 81.1003H145.461C144.536 81.1003 144.271 80.8349 144.271 79.773V61.0585C144.271 60.1294 144.536 59.8639 145.461 59.8639H147.71C148.636 59.7312 149.032 59.9967 149.032 61.0585Z" fill="white"/>
<path d="M161.994 59.2002C165.3 59.2002 167.945 59.8638 169.4 60.5275C170.723 61.1911 170.855 61.4566 170.855 62.7838V81.7638C170.855 87.2057 168.342 90.6566 161.861 90.6566C157.497 90.6566 154.852 89.1966 153.397 86.6747C152.735 85.7457 153 85.082 153.926 84.6838L155.513 83.8875C156.439 83.3566 156.968 83.4893 157.629 84.4184C158.423 85.7457 159.613 86.542 161.861 86.542C164.771 86.542 166.226 85.082 166.226 82.162V80.1711C165.035 80.4366 163.316 80.9675 161.332 80.9675C155.513 80.9675 152.868 77.9147 152.868 72.7384V68.0929C152.735 62.2529 155.645 59.2002 161.994 59.2002ZM162.258 63.4475C158.952 63.4475 157.364 64.9075 157.364 67.8275V72.2075C157.364 74.7293 158.952 76.1893 161.861 76.1893C163.581 76.1893 165.035 75.9238 166.094 75.6584V64.5093C166.094 64.2438 165.961 64.1111 165.697 63.9784C164.903 63.7129 163.581 63.4475 162.258 63.4475Z" fill="white"/>
<path d="M179.716 51.9001V59.731C180.113 59.4656 182.229 59.2001 184.61 59.2001C190.429 59.2001 193.074 62.2528 193.074 67.4292V79.7728C193.074 80.7019 192.81 81.1001 191.752 81.1001H189.503C188.577 81.1001 188.181 80.8347 188.181 79.7728V67.5619C188.181 64.9074 186.594 63.5801 183.684 63.5801C181.7 63.5801 179.848 63.9783 179.452 64.2437V79.9056C179.452 80.8347 179.187 81.2328 178.261 81.2328H176.013C175.087 81.2328 174.69 80.9674 174.69 79.9056V52.0328C174.69 51.1037 174.955 50.7056 176.013 50.7056H178.261C179.319 50.7056 179.716 50.971 179.716 51.9001Z" fill="white"/>
<path d="M204.316 56.0144V59.7308H208.945C209.871 59.7308 210.268 59.9963 210.268 60.9254V62.7835C210.268 63.7126 210.003 64.1108 208.945 64.1108H204.316V72.4726C204.316 76.4545 205.506 77.2508 208.945 77.2508C209.871 77.2508 210.268 77.5163 210.268 78.5781V80.4363C210.268 81.3654 210.003 81.7635 208.945 81.7635C202.2 82.029 199.555 79.7726 199.555 72.7381V64.3763H196.645C195.719 64.3763 195.455 64.1108 195.455 63.049V61.1908C195.455 60.2617 195.719 59.9963 196.645 59.9963H199.423V56.2799C199.423 55.3508 199.687 55.0854 200.745 55.0854H202.994C203.919 54.8199 204.316 55.0854 204.316 56.0144Z" fill="white"/>
<path d="M222.171 59.2002C228.652 59.2002 231.561 62.9166 231.561 67.6947V70.2166C231.561 71.2784 231.165 71.942 229.71 71.942H217.41V73.402C217.41 76.0566 219.129 77.5166 222.039 77.5166C224.419 77.5166 226.006 76.7202 226.932 75.3929C227.594 74.4638 227.99 74.3311 229.048 74.862L230.503 75.6584C231.429 76.0566 231.561 76.8529 231.032 77.6493C229.577 80.0384 226.8 81.6311 222.171 81.6311C215.426 81.6311 212.781 77.9147 212.781 72.8711V67.9602C212.648 62.2529 215.955 59.2002 222.171 59.2002ZM222.171 63.182C219.129 63.182 217.41 64.642 217.41 67.4293V68.3584H226.8V67.4293C226.8 64.642 225.213 63.182 222.171 63.182Z" fill="white"/>
<path d="M253.252 61.0581V81.7636C253.252 87.2054 250.739 90.6563 244.258 90.6563C239.894 90.6563 237.248 89.1963 235.794 86.6745C235.265 85.7454 235.397 85.0818 236.323 84.6836L237.91 83.8872C238.835 83.3563 239.365 83.489 239.894 84.4181C240.687 85.7454 242.01 86.5417 244.126 86.5417C247.035 86.5417 248.49 85.0817 248.49 82.1617V80.1708C247.168 80.4363 245.581 80.7018 243.597 80.7018C237.777 80.7018 235 77.649 235 72.4727V61.0581C235 60.129 235.265 59.8636 236.323 59.8636H238.571C239.497 59.8636 239.761 60.129 239.761 61.0581V72.2072C239.761 74.9945 241.216 76.3218 244.258 76.3218C245.977 76.3218 247.432 76.0563 248.49 75.7908V61.0581C248.49 60.129 248.755 59.8636 249.813 59.8636H252.061C252.987 59.7308 253.252 59.9963 253.252 61.0581Z" fill="white"/>
<path d="M266.477 59.2002C272.958 59.2002 275.868 62.9166 275.868 67.6947V70.2166C275.868 71.2784 275.471 71.942 274.016 71.942H261.716V73.402C261.716 76.0566 263.435 77.5166 266.345 77.5166C268.726 77.5166 270.313 76.7202 271.239 75.3929C271.9 74.4638 272.297 74.3311 273.355 74.862L274.81 75.6584C275.735 76.0566 275.868 76.8529 275.339 77.6493C273.884 80.0384 271.106 81.6311 266.477 81.6311C259.732 81.6311 257.087 77.9147 257.087 72.8711V67.9602C256.955 62.2529 260.261 59.2002 266.477 59.2002ZM266.477 63.182C263.435 63.182 261.716 64.642 261.716 67.4293V68.3584H271.106V67.4293C271.239 64.642 269.652 63.182 266.477 63.182Z" fill="white"/>
</g>
<path fill-rule="evenodd" clip-rule="evenodd" d="M360 232H0V248C4.97056 248 9 252.029 9 257C9 261.971 4.97056 266 0 266V282H360V266C355.029 266 351 261.971 351 257C351 252.029 355.029 248 360 248V232ZM39 257C39 261.971 34.9706 266 30 266C25.0294 266 21 261.971 21 257C21 252.029 25.0294 248 30 248C34.9706 248 39 252.029 39 257ZM60 266C64.9706 266 69 261.971 69 257C69 252.029 64.9706 248 60 248C55.0294 248 51 252.029 51 257C51 261.971 55.0294 266 60 266ZM99 257C99 261.971 94.9706 266 90 266C85.0294 266 81 261.971 81 257C81 252.029 85.0294 248 90 248C94.9706 248 99 252.029 99 257ZM120 266C124.971 266 129 261.971 129 257C129 252.029 124.971 248 120 248C115.029 248 111 252.029 111 257C111 261.971 115.029 266 120 266ZM159 257C159 261.971 154.971 266 150 266C145.029 266 141 261.971 141 257C141 252.029 145.029 248 150 248C154.971 248 159 252.029 159 257ZM180 266C184.971 266 189 261.971 189 257C189 252.029 184.971 248 180 248C175.029 248 171 252.029 171 257C171 261.971 175.029 266 180 266ZM219 257C219 261.971 214.971 266 210 266C205.029 266 201 261.971 201 257C201 252.029 205.029 248 210 248C214.971 248 219 252.029 219 257ZM240 266C244.971 266 249 261.971 249 257C249 252.029 244.971 248 240 248C235.029 248 231 252.029 231 257C231 261.971 235.029 266 240 266ZM279 257C279 261.971 274.971 266 270 266C265.029 266 261 261.971 261 257C261 252.029 265.029 248 270 248C274.971 248 279 252.029 279 257ZM300 266C304.971 266 309 261.971 309 257C309 252.029 304.971 248 300 248C295.029 248 291 252.029 291 257C291 261.971 295.029 266 300 266ZM339 257C339 261.971 334.971 266 330 266C325.029 266 321 261.971 321 257C321 252.029 325.029 248 330 248C334.971 248 339 252.029 339 257Z" fill="#656580"/>
<rect y="285" width="360" height="3" fill="#9C9CBF"/>
<rect y="226" width="360" height="3" fill="#9C9CBF"/>
<rect x="-3.75" y="194" width="17" height="32" fill="#787898"/>
<path d="M21.25 184H4.48171L-3.75 194H13.3232L21.25 184Z" fill="#DADAED"/>
<rect x="42.25" y="194" width="30" height="32" fill="#DADAED"/>
<rect x="72.25" y="194" width="17" height="32" fill="#787898"/>
<path d="M35 184H56.8239L64.25 194H42.25L35 184Z" fill="#787898"/>
<path d="M97.25 184H80.4817L72.25 194H89.3232L97.25 184Z" fill="#DADAED"/>
<rect x="118.25" y="194" width="30" height="32" fill="#DADAED"/>
<rect x="148.25" y="194" width="17" height="32" fill="#787898"/>
<path d="M111 184H132.824L140.25 194H118.25L111 184Z" fill="#787898"/>
<path d="M173.25 184H156.482L148.25 194H165.323L173.25 184Z" fill="#DADAED"/>
<rect x="194.25" y="194" width="30" height="32" fill="#DADAED"/>
<rect x="224.25" y="194" width="17" height="32" fill="#787898"/>
<path d="M187 184H208.824L216.25 194H194.25L187 184Z" fill="#787898"/>
<path d="M249.25 184H232.482L224.25 194H241.323L249.25 184Z" fill="#DADAED"/>
<rect x="270.25" y="194" width="30" height="32" fill="#DADAED"/>
<rect x="300.25" y="194" width="17" height="32" fill="#787898"/>
<path d="M263 184H284.824L292.25 194H270.25L263 184Z" fill="#787898"/>
<path d="M325.25 184H308.482L300.25 194H317.323L325.25 184Z" fill="#DADAED"/>
<rect x="346.25" y="194" width="30" height="32" fill="#DADAED"/>
<path d="M339 184H360.824L368.25 194H346.25L339 184Z" fill="#787898"/>
<g filter="url(#filter0_d_2286_82997)">
<rect x="88" y="122" width="184" height="208" rx="12" fill="#10334D"/>
</g>
<mask id="mask0_2286_82997" style="mask-type:alpha" maskUnits="userSpaceOnUse" x="96" y="128" width="167" height="195">
<rect x="96" y="128" width="167" height="195" fill="#C4C4C4"/>
</mask>
<g mask="url(#mask0_2286_82997)">
<path fill-rule="evenodd" clip-rule="evenodd" d="M360 232H0V248C4.97056 248 9 252.029 9 257C9 261.971 4.97056 266 0 266V282H360V266C355.029 266 351 261.971 351 257C351 252.029 355.029 248 360 248V232ZM39 257C39 261.971 34.9706 266 30 266C25.0294 266 21 261.971 21 257C21 252.029 25.0294 248 30 248C34.9706 248 39 252.029 39 257ZM60 266C64.9706 266 69 261.971 69 257C69 252.029 64.9706 248 60 248C55.0294 248 51 252.029 51 257C51 261.971 55.0294 266 60 266ZM99 257C99 261.971 94.9706 266 90 266C85.0294 266 81 261.971 81 257C81 252.029 85.0294 248 90 248C94.9706 248 99 252.029 99 257ZM120 266C124.971 266 129 261.971 129 257C129 252.029 124.971 248 120 248C115.029 248 111 252.029 111 257C111 261.971 115.029 266 120 266ZM159 257C159 261.971 154.971 266 150 266C145.029 266 141 261.971 141 257C141 252.029 145.029 248 150 248C154.971 248 159 252.029 159 257ZM180 266C184.971 266 189 261.971 189 257C189 252.029 184.971 248 180 248C175.029 248 171 252.029 171 257C171 261.971 175.029 266 180 266ZM219 257C219 261.971 214.971 266 210 266C205.029 266 201 261.971 201 257C201 252.029 205.029 248 210 248C214.971 248 219 252.029 219 257ZM240 266C244.971 266 249 261.971 249 257C249 252.029 244.971 248 240 248C235.029 248 231 252.029 231 257C231 261.971 235.029 266 240 266ZM279 257C279 261.971 274.971 266 270 266C265.029 266 261 261.971 261 257C261 252.029 265.029 248 270 248C274.971 248 279 252.029 279 257ZM300 266C304.971 266 309 261.971 309 257C309 252.029 304.971 248 300 248C295.029 248 291 252.029 291 257C291 261.971 295.029 266 300 266ZM339 257C339 261.971 334.971 266 330 266C325.029 266 321 261.971 321 257C321 252.029 325.029 248 330 248C334.971 248 339 252.029 339 257Z" fill="#00A0FF"/>
<rect y="285" width="360" height="3" fill="#00C8FF"/>
<rect y="226" width="360" height="3" fill="#00C8FF"/>
<path d="M97.25 184H80.4817L72.25 194H89.3232L97.25 184Z" fill="#DADAED"/>
<rect x="118.25" y="194" width="30" height="32" fill="#F2F9FE"/>
<rect x="148.25" y="194" width="17" height="32" fill="#AEBECB"/>
<path d="M111 184H132.824L140.25 194H118.25L111 184Z" fill="#AEBECB"/>
<path d="M173.25 184H156.482L148.25 194H165.323L173.25 184Z" fill="#F2F9FE"/>
<rect x="194.25" y="194" width="30" height="32" fill="#F2F9FE"/>
<rect x="224.25" y="194" width="17" height="32" fill="#AEBECB"/>
<path d="M187 184H208.824L216.25 194H194.25L187 184Z" fill="#AEBECB"/>
<path d="M249.25 184H232.482L224.25 194H241.323L249.25 184Z" fill="#F2F9FE"/>
</g>
<rect x="267" y="127" width="198" height="174" rx="7" transform="rotate(90 267 127)" stroke="white" stroke-width="10"/>
<rect x="165" y="308" width="29" height="3" rx="1.5" fill="#235A84"/>
<circle cx="180" cy="145" r="4" fill="#235A84"/>
</g>
<defs>
<filter id="filter0_d_2286_82997" x="68" y="112" width="224" height="248" filterUnits="userSpaceOnUse" color-interpolation-filters="sRGB">
<feFlood flood-opacity="0" result="BackgroundImageFix"/>
<feColorMatrix in="SourceAlpha" type="matrix" values="0 0 0 0 0 0 0 0 0 0 0 0 0 0 0 0 0 0 127 0" result="hardAlpha"/>
<feOffset dy="10"/>
<feGaussianBlur stdDeviation="10"/>
<feComposite in2="hardAlpha" operator="out"/>
<feColorMatrix type="matrix" values="0 0 0 0 0.0980392 0 0 0 0 0.0980392 0 0 0 0 0.156863 0 0 0 1 0"/>
<feBlend mode="normal" in2="BackgroundImageFix" result="effect1_dropShadow_2286_82997"/>
<feBlend mode="normal" in="SourceGraphic" in2="effect1_dropShadow_2286_82997" result="shape"/>
</filter>
<clipPath id="clip0_2286_82997">
<rect width="360" height="360" rx="8" fill="white"/>
</clipPath>
<clipPath id="clip1_2286_82997">
<rect width="246" height="73" fill="white" transform="translate(30 30)"/>
</clipPath>
</defs>
</svg>
