<svg width="360" height="360" viewBox="0 0 360 360" fill="none" xmlns="http://www.w3.org/2000/svg">
<g clip-path="url(#clip0_5190_51219)">
<rect width="360" height="360" rx="8" fill="#203983"/>
<path d="M64.3096 58.8529L47.1186 69.7991L30 58.8529L38.3482 54.0167L47.1186 59.8494L55.9614 54.0167L64.3096 58.8529Z" fill="white"/>
<path d="M38.2343 51.9581L30 56.7615V40.2929H38.2343V51.9581Z" fill="white"/>
<path d="M64.3096 56.7615L56.0753 51.9581V40.2929H64.3096V56.7615Z" fill="white"/>
<path d="M64.3096 38.2343H30V30H64.3096V38.2343Z" fill="white"/>
<path d="M107.24 34.7724V56.9237H103.607V42.6158C103.607 42.0439 103.638 41.426 103.699 40.7622L97.0014 53.3391C96.6847 53.9416 96.1993 54.2429 95.5454 54.2429H94.963C94.3091 54.2429 93.8237 53.9416 93.507 53.3391L86.7327 40.7162C86.7633 41.0532 86.7888 41.3852 86.8093 41.712C86.8297 42.0388 86.8399 42.34 86.8399 42.6158V56.9237H83.2076V34.7724H86.3188C86.5028 34.7724 86.6611 34.7776 86.794 34.7878C86.9268 34.798 87.0443 34.8235 87.1465 34.8644C87.2589 34.9052 87.3559 34.9716 87.4377 35.0635C87.5296 35.1554 87.6165 35.278 87.6982 35.4312L94.3346 47.7323C94.5083 48.0591 94.6667 48.3962 94.8097 48.7434C94.963 49.0906 95.1111 49.4481 95.2542 49.8157C95.3972 49.4379 95.5454 49.0753 95.6987 48.7281C95.8519 48.3706 96.0154 48.0285 96.1891 47.7017L102.734 35.4312C102.815 35.278 102.902 35.1554 102.994 35.0635C103.086 34.9716 103.183 34.9052 103.285 34.8644C103.398 34.8235 103.52 34.798 103.653 34.7878C103.786 34.7776 103.944 34.7724 104.128 34.7724H107.24Z" fill="white"/>
<path d="M130.101 56.9237H125.947V37.9435H116.322V56.9237H112.184V34.7724H130.101V56.9237Z" fill="white"/>
<path d="M161.161 34.7724V56.9237H157.023V43.0447C157.023 42.5239 157.033 41.9775 157.054 41.4056C157.084 40.8337 157.146 40.226 157.238 39.5826C157.033 40.1545 156.808 40.6856 156.563 41.1758C156.328 41.6558 156.098 42.0796 155.873 42.4473L147.398 55.6523C147.306 55.8055 147.194 55.9587 147.061 56.1118C146.938 56.265 146.8 56.4029 146.647 56.5255C146.494 56.6378 146.325 56.7348 146.141 56.8165C145.957 56.888 145.768 56.9237 145.574 56.9237H142.478V34.7724H146.616V48.6515C146.616 49.1723 146.601 49.7238 146.57 50.3059C146.55 50.8778 146.494 51.4855 146.402 52.1289C146.606 51.557 146.826 51.0259 147.061 50.5357C147.306 50.0455 147.546 49.6166 147.781 49.2489L156.241 36.0439C156.333 35.8907 156.441 35.7375 156.563 35.5844C156.696 35.4312 156.839 35.2984 156.992 35.1861C157.146 35.0635 157.309 34.9665 157.483 34.895C157.667 34.8133 157.861 34.7724 158.065 34.7724H161.161Z" fill="white"/>
<path d="M184.78 34.7724V56.9237H180.641V47.2421H170.235V56.9237H166.096V34.7724H170.235V44.3009H180.641V34.7724H184.78Z" fill="white"/>
<path d="M204.934 51.7C205.159 51.7 205.358 51.7868 205.532 51.9604L207.157 53.7221C206.257 54.8353 205.149 55.688 203.831 56.2803C202.523 56.8727 200.949 57.1689 199.11 57.1689C197.465 57.1689 195.983 56.888 194.665 56.3263C193.358 55.7646 192.239 54.9833 191.309 53.9825C190.379 52.9817 189.664 51.7868 189.163 50.3978C188.673 49.0089 188.427 47.4923 188.427 45.8481C188.427 44.1834 188.693 42.6617 189.224 41.283C189.756 39.8941 190.502 38.6992 191.462 37.6984C192.433 36.6975 193.587 35.9214 194.926 35.3699C196.264 34.8082 197.746 34.5273 199.371 34.5273C200.985 34.5273 202.415 34.7929 203.662 35.3239C204.919 35.855 205.987 36.5495 206.865 37.4073L205.486 39.3222C205.404 39.4447 205.297 39.552 205.164 39.6439C205.041 39.7358 204.868 39.7818 204.643 39.7818C204.49 39.7818 204.331 39.7409 204.168 39.6592C204.004 39.5673 203.826 39.4601 203.631 39.3375C203.437 39.2048 203.212 39.0618 202.957 38.9086C202.702 38.7554 202.405 38.6175 202.068 38.495C201.731 38.3622 201.338 38.255 200.888 38.1733C200.449 38.0814 199.938 38.0354 199.355 38.0354C198.364 38.0354 197.455 38.2141 196.627 38.5716C195.81 38.9188 195.105 39.4294 194.512 40.1035C193.919 40.7673 193.46 41.5843 193.133 42.5545C192.806 43.5145 192.642 44.6124 192.642 45.8481C192.642 47.094 192.816 48.2021 193.163 49.1723C193.521 50.1425 194.001 50.9595 194.604 51.6234C195.207 52.2872 195.917 52.7978 196.734 53.1553C197.552 53.5025 198.431 53.6761 199.371 53.6761C199.933 53.6761 200.438 53.6455 200.888 53.5842C201.348 53.5229 201.767 53.4259 202.145 53.2931C202.533 53.1604 202.896 52.9919 203.233 52.7876C203.58 52.5731 203.923 52.3127 204.26 52.0063C204.362 51.9144 204.469 51.8429 204.582 51.7919C204.694 51.7306 204.812 51.7 204.934 51.7Z" fill="white"/>
<path d="M227.897 56.9237H223.744V37.9435H214.119V56.9237H209.981V34.7724H227.897V56.9237Z" fill="white"/>
<path d="M236.959 38.0507V44.1936H244.714V47.3647H236.959V53.6302H246.799V56.9237H232.821V34.7724H246.799V38.0507H236.959Z" fill="white"/>
<path d="M269.258 56.9237H265.518C265.13 56.9237 264.803 56.8216 264.537 56.6174C264.282 56.4131 264.042 56.1118 263.817 55.7135L259.096 48.2685C258.974 48.054 258.841 47.8804 258.698 47.7477C258.565 47.6047 258.417 47.4923 258.253 47.4106C258.1 47.3187 257.921 47.2574 257.717 47.2268C257.523 47.1962 257.298 47.1809 257.043 47.1809H254.575V56.9237H250.452V34.7724H254.575V44.0558H256.659C257.078 44.0558 257.441 43.9843 257.748 43.8413C258.054 43.6983 258.34 43.4328 258.606 43.0447L263.464 35.8754C263.669 35.5486 263.909 35.2831 264.185 35.0788C264.461 34.8746 264.793 34.7724 265.181 34.7724H268.706L262.683 43.6575C262.427 44.0456 262.131 44.3673 261.794 44.6226C261.457 44.8779 261.084 45.077 260.675 45.22C261.288 45.3936 261.804 45.6694 262.223 46.0472C262.652 46.4149 263.061 46.9255 263.449 47.5791L269.258 56.9237Z" fill="white"/>
<path d="M287.275 38.158H280.593V56.9237H276.47V38.158H269.788V34.7724H287.275V38.158Z" fill="white"/>
<path d="M310.562 45.8481C310.562 47.4719 310.292 48.9783 309.75 50.3672C309.219 51.7459 308.463 52.9408 307.482 53.9519C306.501 54.9629 305.321 55.7544 303.941 56.3263C302.562 56.888 301.029 57.1689 299.343 57.1689C297.668 57.1689 296.14 56.888 294.761 56.3263C293.381 55.7544 292.196 54.9629 291.205 53.9519C290.224 52.9408 289.463 51.7459 288.921 50.3672C288.38 48.9783 288.109 47.4719 288.109 45.8481C288.109 44.2243 288.38 42.723 288.921 41.3443C289.463 39.9554 290.224 38.7554 291.205 37.7443C292.196 36.7333 293.381 35.9469 294.761 35.3852C296.14 34.8133 297.668 34.5273 299.343 34.5273C300.467 34.5273 301.525 34.6601 302.516 34.9256C303.507 35.181 304.416 35.5486 305.244 36.0286C306.072 36.4984 306.812 37.0754 307.466 37.7597C308.131 38.4337 308.693 39.1894 309.152 40.0269C309.612 40.8643 309.96 41.7732 310.195 42.7537C310.44 43.7341 310.562 44.7656 310.562 45.8481ZM306.348 45.8481C306.348 44.6328 306.184 43.5451 305.857 42.5851C305.53 41.6149 305.065 40.7928 304.462 40.1188C303.86 39.4447 303.124 38.929 302.255 38.5716C301.397 38.2141 300.426 38.0354 299.343 38.0354C298.26 38.0354 297.285 38.2141 296.416 38.5716C295.558 38.929 294.822 39.4447 294.209 40.1188C293.606 40.7928 293.141 41.6149 292.814 42.5851C292.487 43.5451 292.324 44.6328 292.324 45.8481C292.324 47.0634 292.487 48.1562 292.814 49.1264C293.141 50.0864 293.606 50.9034 294.209 51.5774C294.822 52.2412 295.558 52.7519 296.416 53.1093C297.285 53.4668 298.26 53.6455 299.343 53.6455C300.426 53.6455 301.397 53.4668 302.255 53.1093C303.124 52.7519 303.86 52.2412 304.462 51.5774C305.065 50.9034 305.53 50.0864 305.857 49.1264C306.184 48.1562 306.348 47.0634 306.348 45.8481Z" fill="white"/>
<path d="M321.387 45.9094C322.143 45.9094 322.802 45.8175 323.364 45.6336C323.926 45.4396 324.391 45.169 324.758 44.8217C325.136 44.4643 325.417 44.0353 325.601 43.5349C325.785 43.0243 325.877 42.4575 325.877 41.8345C325.877 41.2422 325.785 40.706 325.601 40.226C325.417 39.746 325.141 39.3375 324.774 39.0005C324.406 38.6635 323.941 38.4082 323.379 38.2345C322.817 38.0507 322.153 37.9588 321.387 37.9588H318.306V45.9094H321.387ZM321.387 34.7724C322.868 34.7724 324.15 34.9461 325.233 35.2933C326.317 35.6405 327.211 36.1256 327.916 36.7486C328.621 37.3716 329.142 38.1171 329.479 38.9852C329.826 39.8533 330 40.803 330 41.8345C330 42.9068 329.821 43.8924 329.464 44.7911C329.106 45.6796 328.57 46.4455 327.854 47.0889C327.139 47.7323 326.24 48.2328 325.157 48.5902C324.084 48.9476 322.827 49.1264 321.387 49.1264H318.306V56.9237H314.183V34.7724H321.387Z" fill="white"/>
<rect x="30.5" y="94.5" width="299" height="312" rx="35.5" fill="#0B2470" stroke="#2F4FAD"/>
<rect x="42" y="105" width="276" height="313" rx="27" fill="#091A4D"/>
<rect x="151" y="116" width="58" height="7" rx="3.5" fill="#203983"/>
<rect x="62" y="143" width="236" height="54" rx="14" fill="#D9D9D9"/>
<rect x="62" y="143" width="236" height="54" rx="14" fill="url(#paint0_linear_5190_51219)"/>
<rect x="68" y="250" width="224" height="54" rx="14" fill="#D8DFF4"/>
<circle cx="283" cy="158" r="4.5" stroke="white"/>
<rect x="72" y="153" width="172" height="10" rx="5" fill="#D29CFF"/>
<rect x="62" y="221" width="172" height="10" rx="5" fill="white"/>
<rect x="72" y="173" width="79" height="4" rx="2" fill="#D29CFF"/>
<rect x="72" y="183" width="137" height="4" rx="2" fill="#D29CFF"/>
<rect x="62" y="243" width="236" height="54" rx="14" fill="white"/>
<rect x="62" y="310" width="236" height="35" rx="14" fill="url(#paint1_linear_5190_51219)"/>
<rect x="72" y="255" width="106" height="10" rx="5" fill="#D8DFF4"/>
<rect x="72" y="322" width="106" height="10" rx="5" fill="#606D93"/>
<circle cx="283" cy="260" r="4.5" stroke="#D8DFF4"/>
<circle cx="283" cy="327" r="4.5" stroke="#606D93"/>
<rect x="72" y="281" width="4" height="4" rx="2" fill="#FF3B30"/>
<rect x="79" y="281" width="79" height="4" rx="2" fill="#D8DFF4"/>
<path d="M215 290H229L234 374H210L215 290Z" fill="#091A4D"/>
<circle cx="222" cy="289" r="12" fill="#213A84"/>
<g filter="url(#filter0_d_5190_51219)">
<path d="M222 168C255.689 168 283 195.311 283 229C283 262.689 255.689 290 222 290C188.311 290 161 262.689 161 229C161 195.311 188.311 168 222 168ZM222 187C198.804 187 180 205.804 180 229C180 252.196 198.804 271 222 271C245.196 271 264 252.196 264 229C264 205.804 245.196 187 222 187Z" fill="url(#paint2_linear_5190_51219)"/>
</g>
<circle cx="222" cy="229" r="41.5" fill="white" fill-opacity="0.87" stroke="white"/>
<path d="M222 205C223.998 205 225.938 205.246 227.794 205.706C227.283 207.04 227 208.487 227 210C227 216.627 232.373 222 239 222C240.987 222 242.859 221.513 244.51 220.658C245.473 223.256 246 226.067 246 229C246 242.255 235.255 253 222 253C208.745 253 198 242.255 198 229C198 215.745 208.745 205 222 205Z" fill="#091A4D"/>
<circle cx="214" cy="238" r="5" fill="#2B6CD4"/>
</g>
<defs>
<filter id="filter0_d_5190_51219" x="127" y="134" width="190" height="190" filterUnits="userSpaceOnUse" color-interpolation-filters="sRGB">
<feFlood flood-opacity="0" result="BackgroundImageFix"/>
<feColorMatrix in="SourceAlpha" type="matrix" values="0 0 0 0 0 0 0 0 0 0 0 0 0 0 0 0 0 0 127 0" result="hardAlpha"/>
<feOffset/>
<feGaussianBlur stdDeviation="17"/>
<feComposite in2="hardAlpha" operator="out"/>
<feColorMatrix type="matrix" values="0 0 0 0 0.0352941 0 0 0 0 0.101961 0 0 0 0 0.301961 0 0 0 1 0"/>
<feBlend mode="normal" in2="BackgroundImageFix" result="effect1_dropShadow_5190_51219"/>
<feBlend mode="normal" in="SourceGraphic" in2="effect1_dropShadow_5190_51219" result="shape"/>
</filter>
<linearGradient id="paint0_linear_5190_51219" x1="298" y1="143" x2="121.002" y2="64.3011" gradientUnits="userSpaceOnUse">
<stop stop-color="#AB53F3"/>
<stop offset="1" stop-color="#6A56F3"/>
</linearGradient>
<linearGradient id="paint1_linear_5190_51219" x1="206.5" y1="310" x2="206.5" y2="362" gradientUnits="userSpaceOnUse">
<stop stop-color="#D8DFF4"/>
<stop offset="1" stop-color="#091A4D"/>
</linearGradient>
<linearGradient id="paint2_linear_5190_51219" x1="266.5" y1="269.656" x2="173.582" y2="188.779" gradientUnits="userSpaceOnUse">
<stop stop-color="#203983"/>
<stop offset="1" stop-color="#65BAFF"/>
</linearGradient>
<clipPath id="clip0_5190_51219">
<rect width="360" height="360" rx="8" fill="white"/>
</clipPath>
</defs>
</svg>
