<svg width="360" height="360" viewBox="0 0 360 360" fill="none" xmlns="http://www.w3.org/2000/svg">
<g clip-path="url(#clip0_30557_105561)">
<rect width="360" height="360" rx="8" fill="#213A83"/>
<path d="M159.064 48L154.391 41.7997H153.339V48H150.264V33.4545H153.339V39.2642H153.957L158.787 33.4545H162.615L156.94 40.2017L162.878 48H159.064ZM168.496 48.2131C167.393 48.2131 166.438 47.9787 165.634 47.5099C164.833 47.0365 164.215 46.3783 163.78 45.5355C163.344 44.688 163.126 43.7055 163.126 42.5881C163.126 41.4612 163.344 40.4763 163.78 39.6335C164.215 38.786 164.833 38.1278 165.634 37.6591C166.438 37.1856 167.393 36.9489 168.496 36.9489C169.599 36.9489 170.551 37.1856 171.351 37.6591C172.156 38.1278 172.776 38.786 173.212 39.6335C173.647 40.4763 173.865 41.4612 173.865 42.5881C173.865 43.7055 173.647 44.688 173.212 45.5355C172.776 46.3783 172.156 47.0365 171.351 47.5099C170.551 47.9787 169.599 48.2131 168.496 48.2131ZM168.51 45.8693C169.012 45.8693 169.431 45.7273 169.767 45.4432C170.103 45.1544 170.357 44.7614 170.527 44.2642C170.702 43.767 170.79 43.2012 170.79 42.5668C170.79 41.9323 170.702 41.3665 170.527 40.8693C170.357 40.3722 170.103 39.9792 169.767 39.6903C169.431 39.4015 169.012 39.2571 168.51 39.2571C168.003 39.2571 167.577 39.4015 167.232 39.6903C166.891 39.9792 166.633 40.3722 166.457 40.8693C166.287 41.3665 166.202 41.9323 166.202 42.5668C166.202 43.2012 166.287 43.767 166.457 44.2642C166.633 44.7614 166.891 45.1544 167.232 45.4432C167.577 45.7273 168.003 45.8693 168.51 45.8693ZM183.425 41.3381V43.7173H177.729V41.3381H183.425ZM178.723 37.0909V48H175.832V37.0909H178.723ZM185.321 37.0909V48H182.452V37.0909H185.321ZM186.573 39.4702V37.0909H196.459V39.4702H192.944V48H190.06V39.4702H186.573ZM198.293 52.0909V37.0909H201.276V38.9233H201.411C201.544 38.6297 201.736 38.3314 201.987 38.0284C202.242 37.7206 202.574 37.465 202.981 37.2614C203.393 37.053 203.904 36.9489 204.515 36.9489C205.31 36.9489 206.044 37.1572 206.717 37.5739C207.389 37.9858 207.926 38.6084 208.329 39.4418C208.731 40.2704 208.933 41.3097 208.933 42.5597C208.933 43.7765 208.736 44.804 208.343 45.642C207.955 46.4754 207.424 47.1075 206.752 47.5384C206.085 47.9645 205.336 48.1776 204.508 48.1776C203.921 48.1776 203.421 48.0805 203.009 47.8864C202.602 47.6922 202.268 47.4484 202.008 47.1548C201.747 46.8565 201.549 46.5559 201.411 46.2528H201.319V52.0909H198.293ZM201.255 42.5455C201.255 43.1941 201.345 43.7599 201.525 44.2429C201.705 44.7259 201.965 45.1023 202.306 45.3722C202.647 45.6373 203.061 45.7699 203.549 45.7699C204.041 45.7699 204.458 45.6349 204.799 45.3651C205.14 45.0904 205.398 44.7116 205.573 44.2287C205.753 43.741 205.843 43.1799 205.843 42.5455C205.843 41.9157 205.755 41.3617 205.58 40.8835C205.405 40.4053 205.147 40.0312 204.806 39.7614C204.465 39.4915 204.046 39.3565 203.549 39.3565C203.057 39.3565 202.64 39.4867 202.299 39.7472C201.963 40.0076 201.705 40.3769 201.525 40.8551C201.345 41.3333 201.255 41.8968 201.255 42.5455ZM215.879 48.2131C214.775 48.2131 213.821 47.9787 213.016 47.5099C212.216 47.0365 211.598 46.3783 211.163 45.5355C210.727 44.688 210.509 43.7055 210.509 42.5881C210.509 41.4612 210.727 40.4763 211.163 39.6335C211.598 38.786 212.216 38.1278 213.016 37.6591C213.821 37.1856 214.775 36.9489 215.879 36.9489C216.982 36.9489 217.933 37.1856 218.734 37.6591C219.539 38.1278 220.159 38.786 220.594 39.6335C221.03 40.4763 221.248 41.4612 221.248 42.5881C221.248 43.7055 221.03 44.688 220.594 45.5355C220.159 46.3783 219.539 47.0365 218.734 47.5099C217.933 47.9787 216.982 48.2131 215.879 48.2131ZM215.893 45.8693C216.395 45.8693 216.814 45.7273 217.15 45.4432C217.486 45.1544 217.739 44.7614 217.91 44.2642C218.085 43.767 218.173 43.2012 218.173 42.5668C218.173 41.9323 218.085 41.3665 217.91 40.8693C217.739 40.3722 217.486 39.9792 217.15 39.6903C216.814 39.4015 216.395 39.2571 215.893 39.2571C215.386 39.2571 214.96 39.4015 214.614 39.6903C214.273 39.9792 214.015 40.3722 213.84 40.8693C213.67 41.3665 213.585 41.9323 213.585 42.5668C213.585 43.2012 213.67 43.767 213.84 44.2642C214.015 44.7614 214.273 45.1544 214.614 45.4432C214.96 45.7273 215.386 45.8693 215.893 45.8693ZM222.576 48L222.562 45.5994H222.924C223.18 45.5994 223.4 45.5379 223.585 45.4148C223.774 45.2869 223.93 45.081 224.053 44.7969C224.176 44.5128 224.273 44.1364 224.344 43.6676C224.415 43.1941 224.463 42.6117 224.487 41.9205L224.664 37.0909H232.96V48H230.076V39.4702H227.384L227.214 42.8011C227.171 43.715 227.06 44.5009 226.88 45.1591C226.705 45.8172 226.461 46.357 226.148 46.7784C225.836 47.1951 225.46 47.5028 225.019 47.7017C224.579 47.9006 224.067 48 223.485 48H222.576ZM237.201 40.4432H240.461C241.905 40.4432 243.032 40.7888 243.842 41.4801C244.652 42.1667 245.056 43.0852 245.056 44.2358C245.056 44.9839 244.874 45.642 244.51 46.2102C244.145 46.7737 243.619 47.214 242.933 47.5312C242.246 47.8438 241.422 48 240.461 48H235.305V37.0909H238.196V45.6207H240.461C240.968 45.6207 241.385 45.4929 241.711 45.2372C242.038 44.9815 242.204 44.6548 242.208 44.2571C242.204 43.8357 242.038 43.4924 241.711 43.2273C241.385 42.9574 240.968 42.8224 240.461 42.8224H237.201V40.4432ZM248.831 48.1847C248.363 48.1847 247.96 48.0189 247.624 47.6875C247.292 47.3513 247.127 46.9489 247.127 46.4801C247.127 46.0161 247.292 45.6184 247.624 45.2869C247.96 44.9555 248.363 44.7898 248.831 44.7898C249.286 44.7898 249.684 44.9555 250.025 45.2869C250.365 45.6184 250.536 46.0161 250.536 46.4801C250.536 46.7926 250.455 47.0791 250.294 47.3395C250.138 47.5952 249.932 47.8011 249.676 47.9574C249.421 48.1089 249.139 48.1847 248.831 48.1847ZM162.629 55.4545V70H159.589V57.9545H153.709V70H150.669V55.4545H162.629ZM165.5 74.0909V59.0909H168.483V60.9233H168.618C168.751 60.6297 168.943 60.3314 169.194 60.0284C169.449 59.7206 169.781 59.465 170.188 59.2614C170.6 59.053 171.111 58.9489 171.722 58.9489C172.517 58.9489 173.251 59.1572 173.924 59.5739C174.596 59.9858 175.133 60.6084 175.536 61.4418C175.938 62.2704 176.14 63.3097 176.14 64.5597C176.14 65.7765 175.943 66.804 175.55 67.642C175.162 68.4754 174.632 69.1075 173.959 69.5384C173.292 69.9645 172.543 70.1776 171.715 70.1776C171.128 70.1776 170.628 70.0805 170.216 69.8864C169.809 69.6922 169.475 69.4484 169.215 69.1548C168.954 68.8565 168.756 68.5559 168.618 68.2528H168.526V74.0909H165.5ZM168.462 64.5455C168.462 65.1941 168.552 65.7599 168.732 66.2429C168.912 66.7259 169.172 67.1023 169.513 67.3722C169.854 67.6373 170.268 67.7699 170.756 67.7699C171.248 67.7699 171.665 67.6349 172.006 67.3651C172.347 67.0904 172.605 66.7116 172.78 66.2287C172.96 65.741 173.05 65.1799 173.05 64.5455C173.05 63.9157 172.962 63.3617 172.787 62.8835C172.612 62.4053 172.354 62.0312 172.013 61.7614C171.672 61.4915 171.253 61.3565 170.756 61.3565C170.264 61.3565 169.847 61.4867 169.506 61.7472C169.17 62.0076 168.912 62.3769 168.732 62.8551C168.552 63.3333 168.462 63.8968 168.462 64.5455ZM183.128 70.2131C182.006 70.2131 181.04 69.9858 180.23 69.5312C179.426 69.072 178.805 68.4233 178.37 67.5852C177.934 66.7424 177.716 65.7457 177.716 64.5952C177.716 63.473 177.934 62.4882 178.37 61.6406C178.805 60.7931 179.418 60.1326 180.209 59.6591C181.005 59.1856 181.937 58.9489 183.007 58.9489C183.727 58.9489 184.397 59.0649 185.017 59.2969C185.642 59.5241 186.187 59.8674 186.651 60.3267C187.12 60.786 187.484 61.3636 187.745 62.0597C188.005 62.7509 188.135 63.5606 188.135 64.4886V65.3196H178.924V63.4446H185.287C185.287 63.009 185.193 62.6231 185.003 62.2869C184.814 61.9508 184.551 61.688 184.215 61.4986C183.883 61.3045 183.498 61.2074 183.057 61.2074C182.598 61.2074 182.191 61.3139 181.836 61.527C181.485 61.7353 181.211 62.017 181.012 62.3722C180.813 62.7225 180.711 63.1132 180.706 63.544V65.3267C180.706 65.8665 180.806 66.3329 181.005 66.7259C181.208 67.1188 181.495 67.4219 181.864 67.6349C182.233 67.848 182.671 67.9545 183.178 67.9545C183.514 67.9545 183.822 67.9072 184.101 67.8125C184.381 67.7178 184.62 67.5758 184.819 67.3864C185.017 67.197 185.169 66.965 185.273 66.6903L188.071 66.875C187.929 67.5473 187.638 68.1345 187.198 68.6364C186.762 69.1335 186.199 69.5218 185.507 69.8011C184.821 70.0758 184.028 70.2131 183.128 70.2131ZM189.257 73.196V67.5994H190.096C190.337 67.4479 190.531 67.2064 190.678 66.875C190.829 66.5436 190.953 66.1529 191.047 65.7031C191.147 65.2533 191.222 64.768 191.275 64.2472C191.331 63.7216 191.381 63.1913 191.424 62.6562L191.708 59.0909H200.074V67.5994H201.765V73.196H198.881V70H192.212V73.196H189.257ZM193.107 67.5994H197.219V61.4205H194.279L194.165 62.6562C194.085 63.821 193.969 64.8106 193.817 65.625C193.666 66.4347 193.429 67.0928 193.107 67.5994ZM203.528 70V59.0909H213.066V70H210.175V61.4702H206.383V70H203.528ZM218.371 66.0085L222.299 59.0909H225.282V70H222.398V63.0611L218.485 70H215.481V59.0909H218.371V66.0085ZM232.636 70.2131C231.519 70.2131 230.558 69.9763 229.753 69.5028C228.953 69.0246 228.337 68.3617 227.906 67.5142C227.48 66.6667 227.267 65.6913 227.267 64.5881C227.267 63.4706 227.482 62.4905 227.913 61.6477C228.349 60.8002 228.967 60.1397 229.767 59.6662C230.567 59.188 231.519 58.9489 232.622 58.9489C233.574 58.9489 234.407 59.1217 235.122 59.4673C235.837 59.813 236.403 60.2983 236.82 60.9233C237.236 61.5483 237.466 62.2822 237.509 63.125H234.653C234.573 62.5805 234.36 62.1425 234.014 61.8111C233.673 61.4749 233.226 61.3068 232.672 61.3068C232.203 61.3068 231.794 61.4347 231.443 61.6903C231.098 61.9413 230.828 62.3082 230.634 62.7912C230.439 63.2741 230.342 63.8589 230.342 64.5455C230.342 65.2415 230.437 65.8333 230.626 66.321C230.821 66.8087 231.093 67.1804 231.443 67.4361C231.794 67.6918 232.203 67.8196 232.672 67.8196C233.018 67.8196 233.328 67.7486 233.602 67.6065C233.882 67.4645 234.111 67.2585 234.291 66.9886C234.476 66.714 234.597 66.3849 234.653 66.0014H237.509C237.461 66.8348 237.234 67.5687 236.827 68.2031C236.424 68.8329 235.868 69.3253 235.158 69.6804C234.447 70.0355 233.607 70.2131 232.636 70.2131ZM242.556 70.206C241.86 70.206 241.24 70.0852 240.696 69.8438C240.151 69.5975 239.72 69.2353 239.403 68.7571C239.091 68.2741 238.934 67.6728 238.934 66.9531C238.934 66.3471 239.046 65.8381 239.268 65.4261C239.491 65.0142 239.794 64.6828 240.177 64.4318C240.561 64.1809 240.996 63.9915 241.484 63.8636C241.976 63.7358 242.493 63.6458 243.032 63.5938C243.667 63.5275 244.178 63.4659 244.566 63.4091C244.955 63.3475 245.236 63.2576 245.412 63.1392C245.587 63.0208 245.674 62.8456 245.674 62.6136V62.571C245.674 62.1212 245.532 61.7732 245.248 61.527C244.969 61.2808 244.571 61.1577 244.055 61.1577C243.511 61.1577 243.077 61.2784 242.755 61.5199C242.433 61.7566 242.22 62.0549 242.116 62.4148L239.318 62.1875C239.46 61.5246 239.739 60.9517 240.156 60.4688C240.573 59.9811 241.11 59.607 241.768 59.3466C242.431 59.0814 243.198 58.9489 244.069 58.9489C244.675 58.9489 245.255 59.0199 245.809 59.1619C246.368 59.304 246.863 59.5241 247.294 59.8224C247.729 60.1207 248.073 60.5043 248.324 60.973C248.574 61.437 248.7 61.9934 248.7 62.642V70H245.831V68.4872H245.745C245.57 68.8281 245.336 69.1288 245.042 69.3892C244.749 69.6449 244.396 69.8461 243.984 69.9929C243.572 70.1349 243.096 70.206 242.556 70.206ZM243.423 68.1179C243.868 68.1179 244.261 68.0303 244.602 67.8551C244.943 67.6752 245.21 67.4337 245.404 67.1307C245.599 66.8277 245.696 66.4844 245.696 66.1009V64.9432C245.601 65.0047 245.471 65.0616 245.305 65.1136C245.144 65.161 244.962 65.206 244.758 65.2486C244.555 65.2865 244.351 65.322 244.147 65.3551C243.944 65.3835 243.759 65.4096 243.593 65.4332C243.238 65.4853 242.928 65.5682 242.663 65.6818C242.398 65.7955 242.192 65.9493 242.045 66.1435C241.898 66.3329 241.825 66.5696 241.825 66.8537C241.825 67.2656 241.974 67.5805 242.272 67.7983C242.575 68.0114 242.959 68.1179 243.423 68.1179ZM258.64 63.3381V65.7173H252.944V63.3381H258.64ZM253.938 59.0909V70H251.047V59.0909H253.938ZM260.536 59.0909V70H257.667V59.0909H260.536ZM265.774 66.0085L269.701 59.0909H272.684V70H269.801V63.0611L265.887 70H262.883V59.0909H265.774V66.0085ZM281.502 70V61.4631H279.456C278.902 61.4631 278.481 61.5909 278.192 61.8466C277.903 62.1023 277.761 62.4053 277.766 62.7557C277.761 63.1108 277.899 63.4115 278.178 63.6577C278.462 63.8991 278.879 64.0199 279.428 64.0199H282.51V66.0653H279.428C278.495 66.0653 277.688 65.9233 277.006 65.6392C276.324 65.3551 275.799 64.9598 275.429 64.4531C275.06 63.9418 274.878 63.3475 274.882 62.6705C274.878 61.9602 275.06 61.3376 275.429 60.8026C275.799 60.2628 276.327 59.8437 277.013 59.5455C277.704 59.2424 278.519 59.0909 279.456 59.0909H284.321V70H281.502ZM274.57 70L277.603 64.3182H280.493L277.468 70H274.57Z" fill="white"/>
<path d="M78 135C78 123.954 86.9543 115 98 115H262C273.046 115 282 123.954 282 135V360H78V135Z" fill="#0F235E"/>
<path d="M259 124C266.732 124 273 130.268 273 138V360H88V138C88 130.268 94.268 124 102 124H147V127C147 133.627 152.373 139 159 139H202C208.627 139 214 133.627 214 127V124H259Z" fill="#2AD5EF"/>
<g filter="url(#filter0_f_30557_105561)">
<path d="M249 523C250.105 523 251 522.105 251 521V363H293.5V356.611C293.5 352.655 292.154 348.817 289.683 345.728C285.775 340.843 279.859 338 273.604 338H127C127.165 338 127.33 338.003 127.495 338.007C116.683 338.275 108 347.123 108 358V521C108 522.105 108.895 523 110 523H249Z" fill="url(#paint0_linear_30557_105561)"/>
</g>
<path d="M108 156C108 154.895 108.895 154 110 154H249C250.105 154 251 154.895 251 156V319C251 330.046 242.046 339 231 339H128C116.954 339 108 330.046 108 319V156Z" fill="url(#paint1_linear_30557_105561)"/>
<path d="M149.5 314H293.5V320.388C293.5 324.345 292.154 328.183 289.682 331.272C285.775 336.157 279.859 339 273.604 339H127C139.426 339 149.5 328.926 149.5 316.5V314Z" fill="url(#paint2_linear_30557_105561)"/>
<rect x="122" y="168" width="73" height="20" rx="10" fill="#C9D7DF"/>
<rect x="149" y="199" width="69" height="5" rx="2.5" fill="#DFECF3"/>
<rect x="149" y="288" width="69" height="5" rx="2.5" fill="#DFECF3"/>
<rect x="149" y="221" width="58" height="5" rx="2.5" fill="#C9D7DF"/>
<rect x="149" y="221" width="58" height="5" rx="2.5" fill="#DFECF3"/>
<rect x="149" y="265" width="73" height="5" rx="2.5" fill="#DFECF3"/>
<rect x="149" y="243" width="46" height="5" rx="2.5" fill="#DFECF3"/>
<rect x="149" y="208" width="44" height="5" rx="2.5" fill="#DFECF3"/>
<rect x="149" y="297" width="44" height="5" rx="2.5" fill="#DFECF3"/>
<rect x="149" y="230" width="83" height="5" rx="2.5" fill="#C9D7DF"/>
<rect x="149" y="230" width="83" height="5" rx="2.5" fill="#DFECF3"/>
<rect x="149" y="274" width="58" height="5" rx="2.5" fill="#DFECF3"/>
<rect x="149" y="252" width="30" height="5" rx="2.5" fill="#DFECF3"/>
<g filter="url(#filter1_d_30557_105561)">
<path fill-rule="evenodd" clip-rule="evenodd" d="M279.987 177.481C279.201 177.164 278.355 177 277.5 177C276.645 177 275.799 177.164 275.013 177.481L234.651 193.795C232.38 194.712 230.445 196.237 229.085 198.181C227.725 200.125 227 202.402 227 204.73V245.544C227.001 252.885 229.06 260.096 232.97 266.445C236.88 272.794 242.501 278.057 249.264 281.699L274.369 295.217C275.323 295.73 276.402 296 277.5 296C278.598 296 279.677 295.73 280.631 295.217L305.736 281.699C312.501 278.056 318.123 272.792 322.033 266.44C325.943 260.088 328.001 252.875 328 245.532V204.73C328 202.402 327.275 200.125 325.915 198.181C324.555 196.237 322.62 194.712 320.349 193.795L279.987 177.481Z" fill="#41D581"/>
</g>
<g filter="url(#filter2_d_30557_105561)">
<path d="M277.5 190C277.894 190 278.282 190.066 278.646 190.191L278.8 190.249L311.969 203.546V203.547C313.49 204.157 314.766 205.161 315.652 206.418C316.537 207.673 317 209.128 317 210.604V243.862L316.995 244.388C316.9 249.812 315.322 255.136 312.396 259.851C309.375 264.718 305.021 268.769 299.762 271.579L279.131 282.598C278.642 282.859 278.079 283 277.5 283C276.993 283 276.499 282.892 276.056 282.689L275.869 282.598L255.238 271.579C249.98 268.77 245.626 264.72 242.605 259.854C239.585 254.99 238.001 249.476 238 243.872V210.604L238.006 210.327C238.06 208.947 238.518 207.594 239.348 206.418C240.234 205.161 241.51 204.157 243.031 203.547V203.546L276.2 190.249C276.607 190.086 277.05 190 277.5 190Z" stroke="#61F2A0" stroke-width="4" shape-rendering="crispEdges"/>
</g>
<path d="M260 236.5L273.5 249L296.5 223" stroke="white" stroke-width="8" stroke-linecap="round" stroke-linejoin="round"/>
<rect x="131" y="176" width="55" height="4" rx="2" fill="#DBE7ED"/>
<rect x="124" y="198" width="16" height="16" rx="2" stroke="#C9D7DF" stroke-width="2"/>
<rect x="124" y="287" width="16" height="16" rx="2" stroke="#C9D7DF" stroke-width="2"/>
<rect x="124" y="220" width="16" height="16" rx="2" stroke="#C9D7DF" stroke-width="2"/>
<rect x="124" y="242" width="16" height="16" rx="2" stroke="#C9D7DF" stroke-width="2"/>
<rect x="124" y="264" width="16" height="16" rx="2" fill="#E40404" stroke="#C4120E" stroke-width="2"/>
<g filter="url(#filter3_d_30557_105561)">
<path d="M77.2359 185.976C81.3645 179.341 91.6355 179.341 95.7641 185.976L150.536 273.991C154.682 280.652 149.529 289 141.272 289H31.7279C23.4707 289 18.3183 280.652 22.4639 273.991L77.2359 185.976Z" fill="#E40404"/>
</g>
<g filter="url(#filter4_d_30557_105561)">
<path d="M81.3389 199.742C83.6133 196.086 89.3867 196.086 91.6611 199.742L91.6641 199.747L136.221 270.943C138.326 274.335 135.853 279 131.057 279H41.9434C37.1468 279 34.6745 274.335 36.7793 270.943L81.3359 199.747L81.3389 199.742Z" stroke="#F52727" stroke-width="4" shape-rendering="crispEdges"/>
</g>
<path d="M85.824 252.488C85.056 252.488 84.3947 252.232 83.84 251.72C83.328 251.208 83.008 250.461 82.88 249.48L80.064 227.08C80.0213 226.867 80 226.568 80 226.184C80 224.605 80.5547 223.347 81.664 222.408C82.7733 221.469 84.16 221 85.824 221C87.6587 221 89.1307 221.555 90.24 222.664C91.392 223.773 91.84 225.267 91.584 227.144L88.704 249.48C88.6187 250.461 88.2987 251.208 87.744 251.72C87.232 252.232 86.592 252.488 85.824 252.488ZM85.824 266.824C84.2453 266.824 82.944 266.312 81.92 265.288C80.896 264.221 80.384 262.899 80.384 261.32C80.384 259.741 80.896 258.44 81.92 257.416C82.944 256.349 84.2453 255.816 85.824 255.816C87.4027 255.816 88.704 256.349 89.728 257.416C90.752 258.44 91.264 259.741 91.264 261.32C91.264 262.899 90.752 264.221 89.728 265.288C88.704 266.312 87.4027 266.824 85.824 266.824Z" fill="white"/>
<g clip-path="url(#clip1_30557_105561)">
<path d="M106.667 30H53.3333C40.4467 30 30 40.3689 30 53.1596C30 65.9503 40.4467 76.3193 53.3333 76.3193H106.667C119.553 76.3193 130 65.9503 130 53.1596C130 40.3689 119.553 30 106.667 30Z" fill="#E4E9F0"/>
<path d="M106.667 76.3193C119.553 76.3193 130 65.9503 130 53.1596C130 40.3689 119.553 30 106.667 30C93.7801 30 83.3334 40.3689 83.3334 53.1596C83.3334 65.9503 93.7801 76.3193 106.667 76.3193Z" fill="#2AD5EF"/>
<path d="M111.579 47.0662L110.006 48.0984C109.721 47.5517 109.374 47.11 108.966 46.775C108.432 46.3697 107.766 46.1662 106.966 46.1662C106.077 46.1662 105.357 46.4227 104.806 46.9338C104.254 47.4276 103.979 48.0811 103.979 48.8925C103.979 49.4921 104.201 50.0041 104.646 50.4276C105.001 50.7808 105.623 51.1514 106.512 51.5393L108.219 52.2804C109.481 52.8271 110.397 53.383 110.966 53.9479C111.819 54.7949 112.246 55.8627 112.246 57.1505C112.246 58.756 111.712 60.062 110.646 61.0678C109.579 62.0736 108.237 62.5765 106.619 62.5765C105.019 62.5765 103.73 62.1001 102.752 61.1472C101.952 60.3705 101.401 59.33 101.099 58.024L103.019 57.4946C103.144 58.3772 103.499 59.1265 104.086 59.7444C104.744 60.3978 105.597 60.7237 106.646 60.7237C107.783 60.7237 108.663 60.3887 109.286 59.7179C109.907 59.0298 110.219 58.2002 110.219 57.2299C110.219 56.383 109.926 55.6948 109.339 55.1654C109.001 54.8478 108.29 54.4417 107.206 53.9479L105.606 53.2068C104.521 52.713 103.731 52.2275 103.232 51.751C102.414 50.9744 102.006 50.0132 102.006 48.866C102.006 47.507 102.467 46.4136 103.392 45.5839C104.334 44.737 105.534 44.3135 106.992 44.3135C108.094 44.3135 109.046 44.5782 109.846 45.1075C110.574 45.5839 111.152 46.2366 111.579 47.0662ZM46.46 62.2589V44.6046H50.0866C52.8241 44.6046 55.0116 45.2928 56.6466 46.6691C58.6733 48.3457 59.6866 50.6038 59.6866 53.445C59.6866 56.1977 58.6466 58.4566 56.5666 60.2208C55.7133 60.9446 54.7975 61.4648 53.82 61.7825C52.8425 62.1001 51.5891 62.2589 50.06 62.2589H46.46ZM48.4333 46.4574V60.4061H50.1666C52.2825 60.4061 53.98 59.8768 55.26 58.818C56.86 57.4772 57.66 55.6857 57.66 53.445C57.66 51.3275 56.9758 49.6336 55.6066 48.3631C54.2375 47.0926 52.4241 46.4574 50.1666 46.4574H48.4333Z" fill="#303741"/>
<path d="M44.2833 88.172H45.7333C46.1717 88.172 46.555 88.2109 46.8833 88.2878C47.2108 88.3598 47.5167 88.5004 47.8 88.7097C48.1383 88.9636 48.4 89.2829 48.5833 89.6691C48.7717 90.0554 48.8667 90.4772 48.8667 90.9346C48.8667 91.8999 48.4942 92.641 47.75 93.1596C47.45 93.3689 47.1442 93.5095 46.8333 93.5815C46.5217 93.6534 46.15 93.689 45.7167 93.689H44.2833V88.172ZM45.3667 89.0984V92.7626H45.7C46.2667 92.7626 46.7192 92.641 47.0583 92.3987C47.275 92.244 47.4442 92.0372 47.5667 91.7783C47.6883 91.5136 47.75 91.2324 47.75 90.9346C47.7514 90.6488 47.6888 90.3663 47.5667 90.1075C47.4583 89.8536 47.2862 89.6314 47.0667 89.4623C46.7383 89.22 46.2833 89.0984 45.7 89.0984H45.3667ZM54.7325 93.689L54.2408 92.531H51.9992L51.5075 93.689H50.3325L52.7408 88.0562H53.5575L55.8992 93.689H54.7325ZM52.3408 91.6542H53.9242L53.1408 89.6691L52.3408 91.6542ZM60.3467 89.0984H59.0967V93.689H58.0133V89.0984H56.7633V88.172H60.3467V89.0984ZM65.5742 93.689L65.0825 92.531H62.8408L62.3492 93.689H61.1742L63.5825 88.0562H64.3992L66.7417 93.689H65.5742ZM63.1825 91.6542H64.7658L63.9825 89.6691L63.1825 91.6542ZM74.56 88.9413L74.0683 89.2638C73.9894 89.1055 73.8788 88.9648 73.7433 88.8503C73.5767 88.7237 73.3683 88.66 73.1183 88.66C72.84 88.66 72.6158 88.7403 72.4433 88.8999C72.2708 89.0546 72.185 89.258 72.185 89.512C72.185 89.6997 72.2542 89.8594 72.3933 89.9917C72.5042 90.1017 72.6992 90.2175 72.9767 90.3391L73.51 90.5707C73.9042 90.7419 74.19 90.9156 74.3683 91.0918C74.635 91.3565 74.7683 91.6898 74.7683 92.0926C74.7683 92.5947 74.6017 93.0025 74.2683 93.3168C73.935 93.6311 73.515 93.7882 73.01 93.7882C72.51 93.7882 72.1067 93.6394 71.8017 93.3416C71.5517 93.0992 71.3792 92.7733 71.285 92.3656L71.885 92.2001C71.9242 92.4756 72.035 92.7105 72.2183 92.9032C72.4233 93.1075 72.69 93.2092 73.0183 93.2092C73.3733 93.2092 73.6492 93.1042 73.8433 92.8949C74.0375 92.6799 74.135 92.421 74.135 92.1174C74.135 91.8528 74.0433 91.6377 73.86 91.4723C73.7542 91.373 73.5325 91.2465 73.1933 91.0918L72.6933 90.8602C72.3542 90.7055 72.1075 90.5542 71.9517 90.4053C71.8274 90.2903 71.729 90.1505 71.663 89.9951C71.5969 89.8398 71.5647 89.6723 71.5683 89.5037C71.5683 89.0794 71.7125 88.737 72.0017 88.4781C72.2958 88.2134 72.6708 88.081 73.1267 88.081C73.4708 88.081 73.7683 88.1637 74.0183 88.3292C74.2458 88.4781 74.4267 88.6824 74.56 88.9413ZM81.6233 92.9694C81.0675 93.5153 80.3842 93.7882 79.5733 93.7882C78.7617 93.7882 78.0758 93.5153 77.515 92.9694C76.9592 92.4235 76.6817 91.7452 76.6817 90.9346C76.6817 90.1183 76.9617 89.44 77.5233 88.8999C78.0842 88.354 78.7675 88.081 79.5733 88.081C80.3783 88.081 81.0617 88.354 81.6233 88.8999C82.1842 89.44 82.465 90.1183 82.465 90.9346C82.465 91.7452 82.1842 92.4235 81.6233 92.9694ZM81.1733 89.3217C80.9669 89.108 80.7183 88.9389 80.443 88.825C80.1676 88.7111 79.8716 88.655 79.5733 88.66C78.945 88.66 78.4117 88.8809 77.9733 89.3217C77.5342 89.7626 77.315 90.3002 77.315 90.9346C77.315 91.569 77.5342 92.1067 77.9733 92.5475C78.4117 92.9884 78.945 93.2092 79.5733 93.2092C80.2008 93.2092 80.7342 92.9884 81.1733 92.5475C81.6117 92.1067 81.8317 91.569 81.8317 90.9346C81.8317 90.3002 81.6117 89.7626 81.1733 89.3217ZM84.6808 88.172H85.2975V93.11H86.8308V93.689H84.6808V88.172ZM89.3675 88.172V91.555C89.3675 91.7642 89.37 91.9272 89.3758 92.043C89.3867 92.1588 89.4258 92.3019 89.4925 92.4731C89.565 92.6385 89.67 92.7791 89.8092 92.8949C90.0592 93.1042 90.365 93.2092 90.7258 93.2092C91.0867 93.2092 91.3925 93.1042 91.6425 92.8949C91.7817 92.7791 91.8842 92.6385 91.9508 92.4731C92.0139 92.3373 92.0534 92.1919 92.0675 92.043C92.0783 91.9272 92.0842 91.7642 92.0842 91.555V88.172H92.7008V91.7204C92.7008 92.2829 92.5842 92.7237 92.3508 93.0438C92.1783 93.2754 91.9508 93.4574 91.6675 93.5897C91.39 93.7221 91.0758 93.7882 90.7258 93.7882C90.3758 93.7882 90.0592 93.7221 89.7758 93.5897C89.5087 93.4661 89.2768 93.2785 89.1008 93.0438C88.8675 92.7237 88.7508 92.2829 88.7508 91.7204V88.172H89.3675ZM97.9383 88.751H96.5883V93.689H95.9717V88.751H94.6217V88.172H97.9383V88.751ZM99.8533 88.172H100.47V93.689H99.8533V88.172ZM107.628 92.9694C107.073 93.5153 106.39 93.7882 105.578 93.7882C104.767 93.7882 104.082 93.5153 103.52 92.9694C102.965 92.4235 102.687 91.7452 102.687 90.9346C102.687 90.1183 102.967 89.44 103.528 88.8999C104.09 88.354 104.773 88.081 105.578 88.081C106.384 88.081 107.067 88.354 107.628 88.8999C108.19 89.44 108.47 90.1183 108.47 90.9346C108.47 91.7452 108.19 92.4235 107.628 92.9694ZM107.178 89.3217C106.972 89.108 106.723 88.9389 106.448 88.825C106.173 88.7111 105.877 88.655 105.578 88.66C104.951 88.66 104.417 88.8809 103.978 89.3217C103.54 89.7626 103.32 90.3002 103.32 90.9346C103.32 91.569 103.54 92.1067 103.978 92.5475C104.417 92.9884 104.951 93.2092 105.578 93.2092C106.207 93.2092 106.74 92.9884 107.178 92.5475C107.617 92.1067 107.837 91.569 107.837 90.9346C107.837 90.3002 107.617 89.7626 107.178 89.3217ZM111.303 93.689H110.687V87.9404L115.02 92.4483V88.172H115.637V93.9371L111.303 89.4293V93.689Z" fill="white"/>
</g>
</g>
<defs>
<filter id="filter0_f_30557_105561" x="104" y="334" width="193.5" height="193" filterUnits="userSpaceOnUse" color-interpolation-filters="sRGB">
<feFlood flood-opacity="0" result="BackgroundImageFix"/>
<feBlend mode="normal" in="SourceGraphic" in2="BackgroundImageFix" result="shape"/>
<feGaussianBlur stdDeviation="2" result="effect1_foregroundBlur_30557_105561"/>
</filter>
<filter id="filter1_d_30557_105561" x="195" y="145" width="165" height="183" filterUnits="userSpaceOnUse" color-interpolation-filters="sRGB">
<feFlood flood-opacity="0" result="BackgroundImageFix"/>
<feColorMatrix in="SourceAlpha" type="matrix" values="0 0 0 0 0 0 0 0 0 0 0 0 0 0 0 0 0 0 127 0" result="hardAlpha"/>
<feOffset/>
<feGaussianBlur stdDeviation="16"/>
<feComposite in2="hardAlpha" operator="out"/>
<feColorMatrix type="matrix" values="0 0 0 0 0.254902 0 0 0 0 0.835294 0 0 0 0 0.505882 0 0 0 0.5 0"/>
<feBlend mode="normal" in2="BackgroundImageFix" result="effect1_dropShadow_30557_105561"/>
<feBlend mode="normal" in="SourceGraphic" in2="effect1_dropShadow_30557_105561" result="shape"/>
</filter>
<filter id="filter2_d_30557_105561" x="235" y="187" width="84" height="98" filterUnits="userSpaceOnUse" color-interpolation-filters="sRGB">
<feFlood flood-opacity="0" result="BackgroundImageFix"/>
<feColorMatrix in="SourceAlpha" type="matrix" values="0 0 0 0 0 0 0 0 0 0 0 0 0 0 0 0 0 0 127 0" result="hardAlpha"/>
<feOffset dx="-1" dy="-1"/>
<feComposite in2="hardAlpha" operator="out"/>
<feColorMatrix type="matrix" values="0 0 0 0 0 0 0 0 0 0 0 0 0 0 0 0 0 0 0.12 0"/>
<feBlend mode="normal" in2="BackgroundImageFix" result="effect1_dropShadow_30557_105561"/>
<feBlend mode="normal" in="SourceGraphic" in2="effect1_dropShadow_30557_105561" result="shape"/>
</filter>
<filter id="filter3_d_30557_105561" x="-11" y="149" width="195" height="172" filterUnits="userSpaceOnUse" color-interpolation-filters="sRGB">
<feFlood flood-opacity="0" result="BackgroundImageFix"/>
<feColorMatrix in="SourceAlpha" type="matrix" values="0 0 0 0 0 0 0 0 0 0 0 0 0 0 0 0 0 0 127 0" result="hardAlpha"/>
<feOffset/>
<feGaussianBlur stdDeviation="16"/>
<feComposite in2="hardAlpha" operator="out"/>
<feColorMatrix type="matrix" values="0 0 0 0 0.894118 0 0 0 0 0.0156863 0 0 0 0 0.0156863 0 0 0 0.4 0"/>
<feBlend mode="normal" in2="BackgroundImageFix" result="effect1_dropShadow_30557_105561"/>
<feBlend mode="normal" in="SourceGraphic" in2="effect1_dropShadow_30557_105561" result="shape"/>
</filter>
<filter id="filter4_d_30557_105561" x="33" y="194" width="106" height="87" filterUnits="userSpaceOnUse" color-interpolation-filters="sRGB">
<feFlood flood-opacity="0" result="BackgroundImageFix"/>
<feColorMatrix in="SourceAlpha" type="matrix" values="0 0 0 0 0 0 0 0 0 0 0 0 0 0 0 0 0 0 127 0" result="hardAlpha"/>
<feOffset dx="-1" dy="-1"/>
<feComposite in2="hardAlpha" operator="out"/>
<feColorMatrix type="matrix" values="0 0 0 0 0 0 0 0 0 0 0 0 0 0 0 0 0 0 0.12 0"/>
<feBlend mode="normal" in2="BackgroundImageFix" result="effect1_dropShadow_30557_105561"/>
<feBlend mode="normal" in="SourceGraphic" in2="effect1_dropShadow_30557_105561" result="shape"/>
</filter>
<linearGradient id="paint0_linear_30557_105561" x1="195.5" y1="328" x2="195.5" y2="366" gradientUnits="userSpaceOnUse">
<stop stop-color="#0F235E"/>
<stop offset="1" stop-color="#0F235E" stop-opacity="0"/>
</linearGradient>
<linearGradient id="paint1_linear_30557_105561" x1="180" y1="313" x2="179.5" y2="339" gradientUnits="userSpaceOnUse">
<stop offset="0.244362" stop-color="white"/>
<stop offset="1" stop-color="#B2D5E5"/>
</linearGradient>
<linearGradient id="paint2_linear_30557_105561" x1="205.5" y1="314" x2="205.5" y2="339" gradientUnits="userSpaceOnUse">
<stop stop-color="#E0EDF3"/>
<stop offset="0.875" stop-color="#87B1C6"/>
<stop offset="1" stop-color="#8EBBD1"/>
</linearGradient>
<clipPath id="clip0_30557_105561">
<rect width="360" height="360" rx="8" fill="white"/>
</clipPath>
<clipPath id="clip1_30557_105561">
<rect width="100" height="64.5161" fill="white" transform="translate(30 30)"/>
</clipPath>
</defs>
</svg>
