<svg width="360" height="360" viewBox="0 0 360 360" fill="none" xmlns="http://www.w3.org/2000/svg">
<g clip-path="url(#clip0_4194_24259)">
<rect width="360" height="360" rx="8" fill="#E0F3F1"/>
<g filter="url(#filter0_f_4194_24259)">
<circle cx="60" cy="60" r="60" fill="white" fill-opacity="0.8"/>
</g>
<g filter="url(#filter1_d_4194_24259)">
<rect x="62" y="143" width="236" height="195" rx="8" fill="#42A89B"/>
</g>
<rect x="46" y="134" width="268" height="195" rx="8" fill="#62B9AE"/>
<g filter="url(#filter2_d_4194_24259)">
<rect x="30" y="134" width="300" height="185" rx="8" fill="white"/>
</g>
<path d="M30 119C30 114.582 33.5817 111 38 111H322C326.418 111 330 114.582 330 119V137H30V119Z" fill="#28867A"/>
<circle cx="46" cy="147" r="4" fill="white"/>
<circle cx="57.4285" cy="147" r="4" fill="white"/>
<circle cx="68.8572" cy="147" r="4" fill="white"/>
<rect x="46" y="151" width="41" height="40" rx="4" fill="#FFECE0"/>
<rect x="100" y="151" width="41.82" height="41" rx="6.56" fill="#E0F3F1"/>
<rect x="99" y="203" width="131" height="93" rx="8" fill="#E0F3F1"/>
<rect x="109" y="256" width="92" height="5" rx="2.5" fill="#AFD5D1"/>
<rect x="109" y="267" width="77" height="5" rx="2.5" fill="#AFD5D1"/>
<rect x="110" y="278" width="49" height="5" rx="2.5" fill="#AFD5D1"/>
<path d="M112 214.5H217C218.381 214.5 219.5 215.619 219.5 217V241C219.5 242.381 218.381 243.5 217 243.5H112C110.619 243.5 109.5 242.381 109.5 241V217C109.5 215.619 110.619 214.5 112 214.5Z" fill="#AFD5D1" stroke="#AFD5D1" stroke-width="3"/>
<path d="M109 229.189H113.421L116.579 230.847L117.842 227.739L119.316 229.189L121.632 226.703L123.526 230.847L127.105 218L128.368 241L130.263 230.847L132.368 232.712L133.421 229.189L135.316 230.847L136.789 229.189H141" stroke="white" stroke-width="2"/>
<path d="M141 229.189H145.421L148.579 230.847L149.842 227.739L151.316 229.189L153.632 226.703L155.526 230.847L159.105 218L160.368 241L162.263 230.847L164.368 232.712L165.421 229.189L167.316 230.847L168.789 229.189H173" stroke="white" stroke-width="2"/>
<path d="M173 229.189H177.421L180.579 230.847L181.842 227.739L183.316 229.189L185.632 226.703L187.526 230.847L191.105 218L192.368 241L194.263 230.847L196.368 232.712L197.421 229.189L199.316 230.847L200.789 229.189H205" stroke="white" stroke-width="2"/>
<path d="M205 229.19H209.421L212.579 230.847L213.842 227.739L215.316 229.19L217.632 226.703" stroke="white" stroke-width="2"/>
<path d="M65.75 170C68.5117 170 70.75 167.762 70.75 165C70.75 162.238 68.5117 160 65.75 160C62.9883 160 60.75 162.238 60.75 165C60.75 167.762 62.9883 170 65.75 170ZM69.25 171.25H68.5977C67.7305 171.648 66.7656 171.875 65.75 171.875C64.7344 171.875 63.7734 171.648 62.9023 171.25H62.25C59.3516 171.25 57 173.602 57 176.5V178.125C57 179.16 57.8398 180 58.875 180H72.625C73.6602 180 74.5 179.16 74.5 178.125V176.5C74.5 173.602 72.1484 171.25 69.25 171.25Z" fill="#FF7522"/>
<mask id="path-22-inside-1_4194_24259" fill="white">
<path d="M121 155C118.244 155 115.534 155.712 113.134 157.067C110.733 158.422 108.724 160.375 107.3 162.735C105.876 165.095 105.086 167.783 105.007 170.538C104.927 173.293 105.561 176.023 106.846 178.461C108.131 180.899 110.025 182.964 112.343 184.456C114.661 185.947 117.325 186.814 120.077 186.973C122.829 187.132 125.575 186.578 128.049 185.363C130.524 184.149 132.642 182.316 134.2 180.042L121 171L121 155Z"/>
</mask>
<path d="M121 155C118.244 155 115.534 155.712 113.134 157.067C110.733 158.422 108.724 160.375 107.3 162.735C105.876 165.095 105.086 167.783 105.007 170.538C104.927 173.293 105.561 176.023 106.846 178.461C108.131 180.899 110.025 182.964 112.343 184.456C114.661 185.947 117.325 186.814 120.077 186.973C122.829 187.132 125.575 186.578 128.049 185.363C130.524 184.149 132.642 182.316 134.2 180.042L121 171L121 155Z" fill="#AFD5D1" stroke="#AFD5D1" stroke-width="6" mask="url(#path-22-inside-1_4194_24259)"/>
<circle cx="121" cy="171" r="14.5" transform="rotate(-90 121 171)" stroke="#AFD5D1" stroke-width="3"/>
<rect x="46" y="255" width="41" height="41" rx="8.63158" fill="#C80000"/>
<path fill-rule="evenodd" clip-rule="evenodd" d="M62.3691 265C61.8431 265 61.4167 265.426 61.4167 265.952V270.417H56.9524C56.4264 270.417 56 270.843 56 271.369V278.214C56 278.74 56.4264 279.167 56.9524 279.167H61.4167V284.048C61.4167 284.574 61.8431 285 62.3691 285H69.631C70.1569 285 70.5833 284.574 70.5833 284.048V279.167H75.0476C75.5736 279.167 76 278.74 76 278.214V271.369C76 270.843 75.5736 270.417 75.0476 270.417H70.5833V265.952C70.5833 265.426 70.1569 265 69.631 265H62.3691Z" fill="white"/>
<path fill-rule="evenodd" clip-rule="evenodd" d="M113.883 45.1152C117.647 45.1152 120.754 46.3101 123.323 48.8792C126.011 51.5678 127.206 54.7343 127.206 58.319C127.206 62.083 126.011 65.1898 123.323 67.7588C120.754 70.4474 117.468 71.8215 113.883 71.8215V68.3563C116.572 68.3563 118.842 67.4601 120.754 65.369C122.725 63.4571 123.741 61.1868 123.741 58.319C123.741 55.6305 122.725 53.2406 120.754 51.269C118.961 49.4767 116.572 48.4012 113.883 48.4012V45.1152ZM113.883 71.702C110.119 71.702 107.012 70.3279 104.324 67.8186C101.755 65.13 100.44 61.9635 100.44 58.2593C100.44 54.6745 101.755 51.508 104.324 48.9987C107.012 46.3101 110.179 45.1152 113.883 45.1152V48.4012C111.015 48.4012 108.805 49.4767 106.833 51.269C104.921 53.2406 103.965 55.6305 103.965 58.319C103.965 61.1868 104.861 63.5766 106.654 65.4885C108.446 67.4601 110.836 68.2965 113.823 68.2965V71.702H113.883Z" fill="#32BCAD"/>
<path fill-rule="evenodd" clip-rule="evenodd" d="M113.883 71.702C110.119 71.702 107.012 70.3279 104.324 67.8186C101.755 65.13 100.44 61.9635 100.44 58.2593C100.44 54.6745 101.755 51.508 104.324 48.9987C107.012 46.3101 110.179 45.1152 113.883 45.1152C117.647 45.1152 120.754 46.3101 123.323 48.8792C126.011 51.5678 127.206 54.7343 127.206 58.319C127.206 62.083 126.011 65.1898 123.323 67.7588C120.754 70.3876 117.468 71.702 113.883 71.702ZM113.883 68.2965C116.572 68.2965 118.842 67.4004 120.754 65.3093C122.725 63.3974 123.741 61.1271 123.741 58.2593C123.741 55.5707 122.725 53.1809 120.754 51.2093C118.961 49.4169 116.572 48.3415 113.883 48.3415C111.015 48.3415 108.805 49.4169 106.833 51.2093C104.921 53.1809 103.965 55.5707 103.965 58.2593C103.965 61.1271 104.861 63.5169 106.654 65.4287C108.506 67.4004 110.896 68.2965 113.883 68.2965Z" fill="#32BCAD"/>
<path fill-rule="evenodd" clip-rule="evenodd" d="M158.334 46.43H162.098V49.716C162.994 48.5211 164.189 47.6249 165.682 46.8482C167.176 46.1313 168.67 45.6533 170.044 45.6533C171.956 45.6533 173.927 46.2508 175.72 47.147C177.512 48.0431 178.886 49.2381 179.424 50.433C180.021 49.2381 181.216 48.0431 183.009 47.147C184.98 46.2508 186.892 45.6533 188.864 45.6533C191.851 45.6533 194.54 46.7287 196.631 48.5211C198.841 50.433 199.917 52.7033 199.917 55.3919V71.7024H196.153V56.1686C196.153 54.1969 195.436 52.5838 193.942 51.2097C192.448 49.8355 190.656 49.1186 188.565 49.1186C186.474 49.1186 184.681 49.8953 183.188 51.2097C181.694 52.5838 180.918 54.1969 180.918 56.1686V71.7024H177.333V56.1686C177.333 54.1969 176.556 52.5838 175.062 51.2097C173.569 49.8355 171.776 49.1186 169.685 49.1186C167.594 49.1186 165.802 49.8953 164.308 51.2097C162.815 52.5838 162.038 54.1969 162.038 56.1686V71.7024H158.274V46.43H158.334Z" fill="#8D9196"/>
<path fill-rule="evenodd" clip-rule="evenodd" d="M143.815 68.2964C145.608 68.2964 147.281 67.8781 148.894 66.8027C150.567 65.9065 151.762 64.7116 152.479 63.3375H156.243C155.466 65.6078 153.972 67.6392 151.582 69.1925C149.193 70.8654 146.624 71.7616 143.815 71.7616C140.231 71.7616 137.064 70.3875 134.376 67.8781C131.687 65.1896 130.492 62.0231 130.492 58.3188C130.492 54.7341 131.687 51.5676 134.376 49.0583C136.945 46.3697 140.231 45.1748 143.815 45.1748C146.504 45.1748 149.073 45.8918 151.463 47.2659C153.733 48.7595 155.346 50.7311 156.123 52.9417H152.06C151.343 51.7468 150.268 50.5519 148.595 49.835C147.101 48.9388 145.429 48.4608 143.815 48.4608C141.127 48.4608 138.857 49.5362 136.945 51.3286C134.973 53.3002 134.077 55.69 134.077 58.3786C134.077 61.2464 134.973 63.6362 136.765 65.5481C138.558 67.4002 140.948 68.2964 143.815 68.2964Z" fill="#8D9196"/>
<path fill-rule="evenodd" clip-rule="evenodd" d="M100.321 33.8242V60.5305H104.204V55.5119L108.147 50.4335L115.974 60.5305H121.291L111.015 47.0877L120.515 33.9437H115.675L104.682 48.4619V33.8242H100.321Z" fill="#8D9196"/>
<path fill-rule="evenodd" clip-rule="evenodd" d="M218.139 71.7024V68.2371C220.828 68.2371 223.217 67.341 225.189 65.2499C227.161 63.338 228.057 61.0677 228.057 58.1999C228.057 55.5113 227.161 53.1215 225.189 51.1499C223.217 49.3575 220.828 48.2821 218.139 48.2821V44.9961C221.903 44.9961 225.01 46.191 227.698 48.7601C230.267 51.4486 231.582 54.6151 231.582 58.1999C231.582 61.9639 230.208 65.0706 227.698 67.6397C225.01 70.388 221.843 71.7024 218.139 71.7024ZM218.139 71.7024C214.554 71.7024 211.388 70.3282 208.699 67.8189C206.011 65.1304 204.636 61.9639 204.636 58.2596C204.636 54.6749 206.011 51.5084 208.699 48.9991C211.268 46.3105 214.375 45.1156 218.139 45.1156V48.4016C215.45 48.4016 213.061 49.477 211.089 51.2694C209.297 53.241 208.221 55.6308 208.221 58.3194C208.221 61.1872 209.117 63.577 211.089 65.4888C212.881 67.4605 215.271 68.2969 218.139 68.2969V71.7024Z" fill="#32BCAD"/>
<path d="M232 45.2354H227.519V71.5832H232V45.2354Z" fill="#8D9196"/>
<path fill-rule="evenodd" clip-rule="evenodd" d="M30 60.8287L55.9894 30L86.9973 55.8699L60.9482 86.8181L30 60.8287Z" fill="#DCDDDE"/>
<path d="M65.2498 33.7646H49.4172V49.5972H65.2498V33.7646Z" fill="#00AEEF"/>
<path d="M87.2364 55.8691H71.4038V71.7017H87.2364V55.8691Z" fill="#FAA61A"/>
<path d="M65.2498 55.75H49.4172V71.7618H65.2498V55.75Z" fill="#CBDB2A"/>
<path d="M87.2364 33.7646H71.4038V49.5972H87.2364V33.7646Z" fill="#32BCAD"/>
<path d="M106.176 78.8283V81.0986C106.176 81.9351 106.176 82.4728 106.116 83.2495H106.176C106.474 82.5923 106.654 82.2338 107.012 81.5766L108.566 78.7686H109.641V84.1457H108.745V81.8753C108.745 80.9791 108.745 80.5609 108.805 79.6647C108.446 80.3817 108.267 80.7999 107.968 81.3376C107.49 82.1741 106.952 83.1897 106.415 84.1457H105.28V78.7686H106.176V78.8283Z" fill="#8D9196"/>
<path d="M115.377 78.8281V80.979H117.766V78.8281H118.663V84.2052H117.766V81.7557H115.377V84.2052H114.48V78.8281H115.377Z" fill="#8D9196"/>
<path d="M126.549 76.3789V78.7687C127.983 78.8882 129.058 79.9039 129.058 81.5768C129.058 83.3691 127.983 84.2653 126.549 84.3848V86.4759H125.713V84.3848C124.279 84.2653 123.203 83.3094 123.203 81.6365C123.203 79.8442 124.279 78.948 125.713 78.8285V76.4387H126.549V76.3789ZM125.713 79.4259C124.697 79.5454 124.1 80.4416 124.1 81.5768C124.1 82.6522 124.697 83.5484 125.713 83.6679V79.4259ZM126.549 83.6679C127.565 83.4886 128.162 82.6522 128.162 81.517C128.162 80.3819 127.565 79.5454 126.549 79.4259V83.6679Z" fill="#8D9196"/>
<path d="M138.199 81.5172C138.199 83.4888 136.885 84.3849 135.69 84.3849C134.316 84.3849 133.3 83.3095 133.3 81.6366C133.3 79.8443 134.435 78.7689 135.75 78.7689C137.244 78.7091 138.199 79.8443 138.199 81.5172ZM134.256 81.5769C134.256 82.7718 134.854 83.668 135.75 83.668C136.646 83.668 137.244 82.7718 137.244 81.5769C137.244 80.6807 136.825 79.5455 135.75 79.5455C134.674 79.4858 134.256 80.5612 134.256 81.5769Z" fill="#8D9196"/>
<path d="M142.8 80.6207C142.8 79.9037 142.8 79.366 142.74 78.888H143.517L143.577 79.7842C143.935 79.127 144.533 78.7686 145.369 78.7686C146.564 78.7686 147.52 79.844 147.52 81.5169C147.52 83.4287 146.385 84.3846 145.25 84.3846C144.592 84.3846 143.995 84.0859 143.696 83.5482V86.4757H142.8V80.6207ZM143.696 82.0546C143.696 82.1741 143.696 82.3533 143.756 82.4728C143.935 83.13 144.473 83.608 145.13 83.608C146.086 83.608 146.624 82.7715 146.624 81.5169C146.624 80.4414 146.086 79.5452 145.13 79.5452C144.533 79.5452 143.935 80.0232 143.756 80.7402C143.696 80.8596 143.696 80.9791 143.696 81.1584V82.0546Z" fill="#8D9196"/>
<path d="M152.18 78.8281H153.315L154.211 81.5167C154.331 81.9349 154.57 82.5921 154.689 83.0103C154.809 82.5921 155.108 81.7557 155.287 81.1582L156.063 78.8281H157.199L157.557 84.2052H156.661L156.541 81.6362C156.541 81.0387 156.482 80.3815 156.482 79.7243H156.422C156.302 80.2023 156.123 80.6205 155.884 81.4569L154.928 84.1455H154.271L153.375 81.4569C153.196 80.979 153.016 80.2023 152.897 79.6646H152.837C152.837 80.3218 152.777 81.0387 152.777 81.5764L152.658 84.1455H151.822L152.18 78.8281Z" fill="#8D9196"/>
<path d="M165.682 82.9519C165.682 83.4299 165.682 83.8481 165.742 84.2663H164.906L164.846 83.6091C164.547 84.0273 164.01 84.3858 163.293 84.3858C162.277 84.3858 161.739 83.6091 161.739 82.8324C161.739 81.518 162.815 80.8011 164.727 80.8011V80.6816C164.727 80.2633 164.607 79.4269 163.591 79.4269C163.113 79.4269 162.635 79.5464 162.277 79.8451L162.098 79.1879C162.516 78.8892 163.113 78.71 163.771 78.71C165.324 78.71 165.682 79.8451 165.682 80.9206V82.9519ZM164.786 81.518C163.771 81.518 162.695 81.6972 162.695 82.7129C162.695 83.3701 163.113 83.6689 163.532 83.6689C164.189 83.6689 164.607 83.2506 164.786 82.7727C164.846 82.6532 164.846 82.5337 164.846 82.4739V81.518H164.786Z" fill="#8D9196"/>
<path d="M171.478 78.8281V83.4285H173.808V78.8281H174.704V83.4883H175.242L175.182 85.9379H174.465L174.405 84.265H170.582V78.8879H171.478V78.8281Z" fill="#8D9196"/>
<path d="M180.559 78.8283V81.0986C180.559 81.9351 180.559 82.4728 180.499 83.2495C180.798 82.5923 180.977 82.2338 181.336 81.5766L182.889 78.7686H183.965V84.1457H183.068V81.8753C183.068 80.9791 183.068 80.5609 183.128 79.6647C182.77 80.3817 182.59 80.7999 182.292 81.3376C181.814 82.1741 181.276 83.1897 180.738 84.1457H179.663V78.7686H180.559V78.8283Z" fill="#8D9196"/>
<path d="M193.464 81.5172C193.464 83.4888 192.15 84.3849 190.955 84.3849C189.64 84.3849 188.565 83.3095 188.565 81.6366C188.565 79.8443 189.7 78.7689 191.074 78.7689C192.508 78.7091 193.464 79.8443 193.464 81.5172ZM189.521 81.5769C189.521 82.7718 190.118 83.668 191.015 83.668C191.911 83.668 192.508 82.7718 192.508 81.5769C192.508 80.6807 192.09 79.5455 191.015 79.5455C189.939 79.4858 189.521 80.5612 189.521 81.5769Z" fill="#8D9196"/>
<path d="M198.901 78.8281V80.979H201.291V78.8281H202.187V84.2052H201.291V81.7557H198.901V84.2052H198.005V78.8281H198.901Z" fill="#8D9196"/>
<path d="M208.042 78.8281V80.979H210.432V78.8281H211.328V84.2052H210.432V81.7557H208.042V84.2052H207.146V78.8281H208.042Z" fill="#8D9196"/>
<path d="M217.123 78.8281V80.6802C217.303 80.6205 217.601 80.6205 217.9 80.6205C218.976 80.6205 220.051 81.0985 220.051 82.4129C220.051 82.9506 219.872 83.3688 219.513 83.6675C218.976 84.1455 218.139 84.265 217.482 84.265C217.004 84.265 216.526 84.2052 216.108 84.2052V78.8281H217.123ZM217.123 83.548C217.303 83.6078 217.482 83.6078 217.781 83.6078C218.498 83.6078 219.215 83.309 219.215 82.4726C219.215 81.5764 218.498 81.3374 217.781 81.3374C217.542 81.3374 217.303 81.3374 217.123 81.3972V83.548ZM221.604 78.8281V84.2052H220.708V78.8281H221.604Z" fill="#8D9196"/>
<path d="M227.101 81.6972C227.101 83.0116 227.878 83.5494 228.834 83.5494C229.491 83.5494 229.909 83.4299 230.208 83.2506L230.387 83.9676C230.088 84.1468 229.491 84.3261 228.714 84.3261C227.161 84.3261 226.265 83.2506 226.265 81.5778C226.265 79.9646 227.161 78.71 228.595 78.71C230.208 78.71 230.686 80.2634 230.686 81.2193C230.686 81.3985 230.686 81.5778 230.686 81.6972H227.101ZM229.73 81.04C229.73 80.4426 229.491 79.4867 228.475 79.4867C227.519 79.4867 227.161 80.3828 227.101 81.04H229.73Z" fill="#8D9196"/>
<path d="M108.685 90V90.7767H107.132V95.3771H106.236V90.7767H104.682V90H108.685Z" fill="#8D9196"/>
<path d="M110.836 92.8691C110.836 94.1835 111.613 94.7212 112.569 94.7212C113.226 94.7212 113.644 94.6017 113.943 94.4225L114.122 95.1394C113.823 95.3187 113.226 95.4979 112.449 95.4979C110.896 95.4979 110 94.4225 110 92.7496C110 91.1365 110.896 89.8818 112.33 89.8818C114.002 89.8818 114.421 91.4352 114.421 92.3912C114.421 92.5704 114.421 92.7496 114.361 92.8691H110.836ZM113.525 92.1522C113.525 91.5547 113.286 90.5988 112.27 90.5988C111.314 90.5988 110.955 91.495 110.896 92.1522H113.525Z" fill="#8D9196"/>
<path d="M116.93 90L117.647 91.1352C117.826 91.4339 118.005 91.6729 118.185 92.0314C118.364 91.7326 118.543 91.4339 118.663 91.1352L119.379 90H120.395L118.663 92.6288L120.395 95.4369H119.379L118.663 94.2419C118.483 93.9432 118.304 93.6445 118.125 93.286C117.946 93.5847 117.766 93.8835 117.587 94.2419L116.87 95.4369H115.854L117.647 92.6886L115.974 90.0597H116.93V90Z" fill="#8D9196"/>
<path d="M123.143 90V92.1508H125.533V90H126.43V95.3771H125.533V92.9275H123.143V95.3771H122.247V90H123.143Z" fill="#8D9196"/>
<path d="M133.42 92.6301C133.42 94.6017 132.105 95.4979 130.911 95.4979C129.536 95.4979 128.521 94.4225 128.521 92.7496C128.521 90.9573 129.656 89.8818 130.97 89.8818C132.464 89.8818 133.42 91.017 133.42 92.6301ZM129.477 92.6899C129.477 93.8848 130.074 94.781 130.97 94.781C131.867 94.781 132.464 93.8848 132.464 92.6899C132.464 91.7937 132.046 90.6585 130.97 90.6585C129.955 90.5988 129.477 91.6742 129.477 92.6899Z" fill="#8D9196"/>
<path d="M139.394 90V95.3771H138.498V90.7767H136.766V92.1508C136.766 93.6445 136.646 94.6602 135.989 95.1381C135.75 95.3771 135.451 95.4966 134.973 95.4966L134.854 94.7199C135.033 94.6602 135.212 94.6004 135.332 94.4809C135.81 94.1224 135.869 93.3458 135.869 92.1508V90H139.394Z" fill="#8D9196"/>
<path d="M146.384 92.6301C146.384 94.6017 145.07 95.4979 143.875 95.4979C142.561 95.4979 141.485 94.4225 141.485 92.7496C141.485 90.9573 142.621 89.8818 143.995 89.8818C145.429 89.8818 146.384 91.017 146.384 92.6301ZM142.441 92.6899C142.441 93.8848 143.039 94.781 143.935 94.781C144.831 94.781 145.429 93.8848 145.429 92.6899C145.429 91.7937 145.01 90.6585 143.935 90.6585C142.919 90.5988 142.441 91.6742 142.441 92.6899Z" fill="#8D9196"/>
<path d="M151.582 90V90.7767H149.432V95.3771H148.535V90H151.582Z" fill="#8D9196"/>
<path d="M154.331 90.0012V92.2715C154.331 93.1079 154.331 93.6456 154.271 94.4223C154.57 93.7651 154.749 93.4067 155.107 92.7494L156.661 89.9414H157.736V95.3185H156.84V93.0482C156.84 92.152 156.84 91.7338 156.9 90.8376C156.541 91.5545 156.362 91.9728 156.063 92.5105C155.585 93.3469 155.048 94.3626 154.51 95.3185H153.435V89.9414H154.331V90.0012Z" fill="#8D9196"/>
<path d="M161.022 90.0012V92.2715C161.022 93.1079 161.022 93.6456 160.963 94.4223C161.261 93.7651 161.441 93.4067 161.799 92.7494L163.352 89.9414H164.428V95.3185H163.532V93.0482C163.532 92.152 163.532 91.7338 163.591 90.8376C163.233 91.5545 163.054 91.9728 162.755 92.5105C162.277 93.3469 161.739 94.3626 161.202 95.3185H160.126V89.9414H161.022V90.0012Z" fill="#8D9196"/>
<path d="M170.104 90.0609C170.462 90.0012 171.119 89.9414 171.717 89.9414C172.553 89.9414 173.927 90.1206 173.927 91.3156C173.927 91.9728 173.449 92.391 172.912 92.5105C173.629 92.63 174.166 93.0482 174.166 93.8249C174.166 95.2588 172.493 95.438 171.538 95.438C171 95.438 170.402 95.3783 170.104 95.3783V90.0609ZM170.94 94.7211C171.179 94.7211 171.358 94.7808 171.657 94.7808C172.254 94.7808 173.21 94.6613 173.21 93.8249C173.21 93.0482 172.493 92.8689 171.597 92.8689H170.94V94.7211ZM170.94 92.2715H171.597C172.254 92.2715 172.971 92.0325 172.971 91.435C172.971 90.8973 172.553 90.6584 171.657 90.6584C171.358 90.6584 171.179 90.6584 170.94 90.7181V92.2715Z" fill="#8D9196"/>
<path d="M179.543 90H180.679L181.575 92.6886C181.694 93.1068 181.933 93.764 182.053 94.1822C182.172 93.764 182.471 92.9275 182.65 92.3301L183.427 90H184.562L184.921 95.3771H184.024L183.905 92.808C183.905 92.2106 183.845 91.5534 183.845 90.8962H183.785C183.666 91.3741 183.487 91.7924 183.248 92.6288L182.292 95.3174H181.635L180.738 92.6288C180.559 92.1508 180.38 91.3742 180.26 90.8364H180.201C180.201 91.4936 180.141 92.2106 180.141 92.7483L180.021 95.3174H179.185L179.543 90Z" fill="#8D9196"/>
<path d="M187.609 92.8691C187.609 94.1835 188.386 94.7212 189.342 94.7212C189.999 94.7212 190.417 94.6017 190.716 94.4225L190.895 95.1394C190.596 95.3187 189.999 95.4979 189.222 95.4979C187.669 95.4979 186.773 94.4225 186.773 92.7496C186.773 91.1365 187.669 89.8818 189.103 89.8818C190.716 89.8818 191.194 91.4352 191.194 92.3912C191.194 92.5704 191.194 92.7496 191.194 92.8691H187.609ZM190.238 92.1522C190.238 91.5547 189.999 90.5988 188.983 90.5988C188.027 90.5988 187.669 91.495 187.609 92.1522H190.238Z" fill="#8D9196"/>
<path d="M197.168 90V94.6602H197.706L197.646 97.1097H196.929L196.87 95.4369H193.404L193.345 97.1097H192.628L192.568 94.7199H192.986C193.225 94.3614 193.345 94.003 193.464 93.6445C193.643 92.9873 193.763 92.2703 193.763 91.4936V90.1195H197.168V90ZM194.659 91.6131C194.659 92.3301 194.599 93.047 194.42 93.6445C194.301 94.003 194.181 94.3614 194.002 94.6602H196.332V90.7767H194.659V91.6131Z" fill="#8D9196"/>
<path d="M200.634 90.0012V92.2715C200.634 93.1079 200.634 93.6456 200.574 94.4223H200.634C200.932 93.7651 201.112 93.4067 201.47 92.7494L203.023 89.9414H204.099V95.3185H203.203V93.0482C203.203 92.152 203.203 91.7338 203.262 90.8376C202.904 91.5545 202.725 91.9728 202.426 92.5105C201.948 93.3469 201.41 94.3626 200.873 95.3185H199.797V89.9414H200.634V90.0012Z" fill="#8D9196"/>
<path d="M207.385 90V94.6004H209.715V90H210.611V94.6602H211.149L211.089 97.1097H210.372L210.312 95.4369H206.489V90.0597H207.385V90Z" fill="#8D9196"/>
<path d="M214.017 90.0012V92.2715C214.017 93.1079 214.017 93.6456 213.957 94.4223H214.017C214.315 93.7651 214.495 93.4067 214.853 92.7494L216.406 89.9414H217.482V95.3185H216.586V93.0482C216.586 92.152 216.586 91.7338 216.645 90.8376C216.287 91.5545 216.108 91.9728 215.809 92.5105C215.331 93.3469 214.793 94.3626 214.256 95.3185H213.18V89.9414H214.017V90.0012Z" fill="#8D9196"/>
<path d="M220.828 90V92.1508H223.218V90H224.114V95.3771H223.218V92.9275H220.828V95.3771H219.932V90H220.828Z" fill="#8D9196"/>
<path d="M227.101 92.8691C227.101 94.1835 227.878 94.7212 228.834 94.7212C229.491 94.7212 229.909 94.6017 230.208 94.4225L230.387 95.1394C230.088 95.3187 229.491 95.4979 228.714 95.4979C227.161 95.4979 226.265 94.4225 226.265 92.7496C226.265 91.1365 227.161 89.8818 228.595 89.8818C230.208 89.8818 230.686 91.4352 230.686 92.3912C230.686 92.5704 230.686 92.7496 230.686 92.8691H227.101ZM229.73 92.1522C229.73 91.5547 229.491 90.5988 228.475 90.5988C227.519 90.5988 227.161 91.495 227.101 92.1522H229.73Z" fill="#8D9196"/>
<rect x="46" y="203" width="41" height="41" rx="4" fill="#FFECE0"/>
<path d="M65.75 222C68.5117 222 70.75 219.762 70.75 217C70.75 214.238 68.5117 212 65.75 212C62.9883 212 60.75 214.238 60.75 217C60.75 219.762 62.9883 222 65.75 222ZM69.25 223.25H68.5977C67.7305 223.648 66.7656 223.875 65.75 223.875C64.7344 223.875 63.7734 223.648 62.9023 223.25H62.25C59.3516 223.25 57 225.602 57 228.5V230.125C57 231.16 57.8398 232 58.875 232H72.625C73.6602 232 74.5 231.16 74.5 230.125V228.5C74.5 225.602 72.1484 223.25 69.25 223.25Z" fill="#FF7522"/>
<rect x="241" y="150.999" width="76" height="66" rx="6.75556" fill="#FFECE0"/>
<path d="M299 198.378C299 196.512 300.512 195 302.378 195H307.622C309.488 195 311 196.512 311 198.378V211H299V198.378Z" fill="#FF7522"/>
<path d="M282 176.378C282 174.512 283.512 173 285.378 173H290.622C292.488 173 294 174.512 294 176.378V211H282V176.378Z" fill="#FF7522"/>
<path d="M247 187.378C247 185.512 248.512 184 250.378 184H255.622C257.488 184 259 185.512 259 187.378V211H247V187.378Z" fill="#FF7522"/>
<path d="M264 167.378C264 165.512 265.512 164 267.378 164H272.622C274.488 164 276 165.512 276 167.378V211H264V167.378Z" fill="#C80000"/>
<path d="M241 236.756C241 233.025 244.025 230 247.756 230H310.244C313.975 230 317 233.025 317 236.756V289.244C317 292.975 313.975 296 310.244 296H247.756C244.025 296 241 292.975 241 289.244V236.756Z" fill="#E0F3F1"/>
<path d="M299 260.378C299 258.512 300.512 257 302.378 257H307.622C309.488 257 311 258.512 311 260.378V290H299V260.378Z" fill="#AFD5D1"/>
<path d="M282 246.378C282 244.512 283.512 243 285.378 243H290.622C292.488 243 294 244.512 294 246.378V290H282V246.378Z" fill="#AFD5D1"/>
<path d="M247 267.378C247 265.512 248.512 264 250.378 264H255.622C257.488 264 259 265.512 259 267.378V290H247V267.378Z" fill="#AFD5D1"/>
<path d="M264 271.378C264 269.512 265.512 268 267.378 268H272.622C274.488 268 276 269.512 276 271.378V290H264V271.378Z" fill="#AFD5D1"/>
<rect x="157" y="151" width="70" height="41" rx="8" fill="#EEE8FF"/>
<rect x="167" y="162" width="48" height="5" rx="2.5" fill="#BFB1E5"/>
<rect x="167" y="175" width="30" height="5" rx="2.5" fill="#BFB1E5"/>
</g>
<defs>
<filter id="filter0_f_4194_24259" x="-64" y="-64" width="248" height="248" filterUnits="userSpaceOnUse" color-interpolation-filters="sRGB">
<feFlood flood-opacity="0" result="BackgroundImageFix"/>
<feBlend mode="normal" in="SourceGraphic" in2="BackgroundImageFix" result="shape"/>
<feGaussianBlur stdDeviation="32" result="effect1_foregroundBlur_4194_24259"/>
</filter>
<filter id="filter1_d_4194_24259" x="32" y="123" width="296" height="255" filterUnits="userSpaceOnUse" color-interpolation-filters="sRGB">
<feFlood flood-opacity="0" result="BackgroundImageFix"/>
<feColorMatrix in="SourceAlpha" type="matrix" values="0 0 0 0 0 0 0 0 0 0 0 0 0 0 0 0 0 0 127 0" result="hardAlpha"/>
<feOffset dy="10"/>
<feGaussianBlur stdDeviation="15"/>
<feComposite in2="hardAlpha" operator="out"/>
<feColorMatrix type="matrix" values="0 0 0 0 0.751238 0 0 0 0 0.919645 0 0 0 0 0.901918 0 0 0 1 0"/>
<feBlend mode="normal" in2="BackgroundImageFix" result="effect1_dropShadow_4194_24259"/>
<feBlend mode="normal" in="SourceGraphic" in2="effect1_dropShadow_4194_24259" result="shape"/>
</filter>
<filter id="filter2_d_4194_24259" x="0" y="114" width="360" height="245" filterUnits="userSpaceOnUse" color-interpolation-filters="sRGB">
<feFlood flood-opacity="0" result="BackgroundImageFix"/>
<feColorMatrix in="SourceAlpha" type="matrix" values="0 0 0 0 0 0 0 0 0 0 0 0 0 0 0 0 0 0 127 0" result="hardAlpha"/>
<feOffset dy="10"/>
<feGaussianBlur stdDeviation="15"/>
<feComposite in2="hardAlpha" operator="out"/>
<feColorMatrix type="matrix" values="0 0 0 0 0.751238 0 0 0 0 0.919645 0 0 0 0 0.901918 0 0 0 1 0"/>
<feBlend mode="normal" in2="BackgroundImageFix" result="effect1_dropShadow_4194_24259"/>
<feBlend mode="normal" in="SourceGraphic" in2="effect1_dropShadow_4194_24259" result="shape"/>
</filter>
<clipPath id="clip0_4194_24259">
<rect width="360" height="360" rx="8" fill="white"/>
</clipPath>
</defs>
</svg>
