<svg width="360" height="360" viewBox="0 0 360 360" fill="none" xmlns="http://www.w3.org/2000/svg">
<g clip-path="url(#clip0_4572_23390)">
<rect width="360" height="360" rx="8" fill="#EEECF9"/>
<path d="M280.422 105.061C280.801 105.034 281.181 105.016 281.561 105.007C281.941 104.998 282.322 104.998 282.702 105.007C283.082 105.016 283.462 105.034 283.841 105.061C284.22 105.089 284.598 105.125 284.976 105.17C285.353 105.216 285.73 105.27 286.105 105.333C286.48 105.397 286.853 105.469 287.224 105.55C287.596 105.631 287.965 105.721 288.332 105.82C288.699 105.919 289.064 106.026 289.426 106.143C289.788 106.259 290.147 106.384 290.503 106.517C290.859 106.651 291.212 106.793 291.561 106.943C291.911 107.093 292.256 107.252 292.598 107.419C292.94 107.586 293.277 107.76 293.611 107.943C293.944 108.126 294.273 108.317 294.597 108.516C294.921 108.715 295.24 108.921 295.555 109.135C295.869 109.349 296.178 109.57 296.482 109.799C296.786 110.028 297.084 110.264 297.377 110.507C302.683 114.91 305.53 120.376 306.196 127.215C308.397 126.445 310.599 125.696 312.951 125.61C316.876 125.466 320.518 126.789 323.395 129.467C327.001 132.823 327.998 136.185 328.151 140.969C328.909 140.905 329.674 140.833 330.435 140.823C334.277 140.772 337.699 142.451 340.419 145.099C343.388 147.99 344.964 151.489 344.999 155.649C345.032 159.505 343.626 163.481 340.889 166.241C338.969 168.177 336.111 169.832 333.444 170.425C330.059 171.178 326.488 170.978 323.039 170.97L312.35 170.915C302.749 170.837 293.148 170.811 283.547 170.835H247.765L238.137 170.857C235.906 170.865 233.573 171.013 231.367 170.659C229.152 170.304 227.052 169.231 225.282 167.877C221.963 165.336 219.65 161.805 219.124 157.616C218.62 153.614 219.657 149.581 222.171 146.411C225.556 142.142 229.859 140.871 235.048 140.266C235.018 137.696 235.401 135.201 236.55 132.878C238.205 129.529 241.398 126.966 244.924 125.801C249.213 124.383 252.985 125.574 256.842 127.547C257.648 122.324 259.455 117.875 262.909 113.805C267.426 108.483 273.553 105.635 280.422 105.061Z" fill="#FEFEFE"/>
<path d="M247.463 81.0361C254.344 80.4734 255.429 86.6662 259.256 87.2129C262.005 87.606 263.953 84.2012 265.878 82.7624C267.607 81.4694 269.58 80.9366 271.743 81.2561C273.33 81.4905 275.433 82.1254 276.38 83.4613C276.856 84.132 277.135 85.313 276.934 86.1121C276.187 89.0918 271.898 87.5577 269.97 87.7631C269.506 87.8128 269.139 88.0066 268.747 88.2416C268.7 88.2702 268.653 88.2999 268.606 88.3292C266.858 90.6703 265.213 93.0073 262.139 93.7519C258.474 94.6395 255.466 93.0359 252.882 90.6839C251.989 89.8701 251.066 88.9 250.004 88.2982C246.557 86.3444 246.212 89.8419 243.678 90.3681C242.867 90.5367 242.01 90.1903 241.346 89.755C240.693 89.3265 240.182 88.74 240.043 87.9685C239.841 86.8461 240.378 85.7244 241.051 84.8453C242.615 82.8019 244.885 81.4312 247.463 81.0361Z" fill="#FEFEFE"/>
<path d="M283.491 57.0615C283.615 57.0461 283.739 57.0286 283.864 57.0218C287.853 56.8024 290.221 58.9865 293.013 61.4365C301.166 68.5939 302.357 57.5721 310.067 57.0246C314.56 56.7058 316.126 59.5397 319.136 62.0992C321.539 64.1438 323.065 63.5165 325.849 63.3319C326.628 63.2804 327.25 63.4253 327.823 63.9806C328.569 64.7045 329.027 65.8112 328.999 66.8603C328.975 67.7488 328.589 68.4054 327.94 68.9825C326.874 69.9297 325.422 70.5111 324.033 70.7469C317.018 71.937 315.733 64.5996 310.679 64.4433C308.153 64.3653 306.403 66.3909 304.76 68.044C304.667 68.1396 304.572 68.2333 304.476 68.3249C304.379 68.4165 304.28 68.506 304.18 68.5936C304.08 68.6811 303.978 68.7666 303.874 68.8501C303.77 68.9336 303.665 69.0148 303.558 69.0938C303.451 69.173 303.343 69.2499 303.233 69.3246C303.123 69.399 303.011 69.4713 302.899 69.5414C302.786 69.6113 302.671 69.679 302.556 69.7443C302.44 69.8097 302.323 69.8727 302.205 69.9332C302.087 69.9938 301.968 70.0519 301.847 70.1075C301.727 70.1631 301.606 70.2162 301.483 70.2667C301.361 70.3173 301.237 70.3654 301.113 70.4109C300.988 70.4565 300.863 70.4994 300.737 70.5398C300.611 70.5803 300.484 70.6181 300.356 70.6532C300.228 70.6882 300.1 70.7208 299.971 70.7509C299.842 70.7807 299.712 70.8079 299.582 70.8324C299.452 70.857 299.322 70.8788 299.191 70.8979C299.06 70.9173 298.929 70.9337 298.797 70.9473C298.665 70.9611 298.534 70.9722 298.401 70.9806C298.269 70.9889 298.137 70.9947 298.005 70.9978C297.873 71.0006 297.741 71.0007 297.608 70.9981C297.476 70.9957 297.344 70.9905 297.212 70.9824C297.08 70.9745 296.948 70.9639 296.816 70.9505C296.684 70.9372 296.553 70.9211 296.422 70.9022C296.291 70.8834 296.161 70.8619 296.031 70.8378C295.9 70.8137 295.771 70.7869 295.642 70.7573C295.513 70.728 295.384 70.6959 295.257 70.661C295.129 70.6262 295.002 70.5888 294.875 70.5487C294.749 70.5089 294.624 70.4663 294.499 70.421C294.374 70.3759 294.251 70.3283 294.128 70.2782C294.006 70.2278 293.884 70.175 293.763 70.1197C293.642 70.0646 293.523 70.007 293.405 69.9468C293.287 69.8865 293.17 69.8239 293.054 69.759C290.005 68.0644 287.847 64.5853 283.988 64.7631C279.352 64.9768 277.522 70.4653 272.271 70.7183C268.128 70.918 266.09 68.225 263.336 65.7099C262.458 65.5299 261.57 65.3897 260.687 65.2365C259.919 64.5989 259.275 63.9119 259.073 62.8943C258.897 62.0072 259.03 61.0705 259.565 60.3319C260.162 59.51 261.1 59.1311 262.066 58.9762C265.773 58.3808 267.151 61.0766 269.716 62.9504C273.311 65.5775 275.591 61.0773 278.142 59.1934C279.798 57.9711 281.479 57.3628 283.491 57.0615Z" fill="#FEFEFE"/>
<path d="M73.921 149.068C74.1899 149.037 74.4633 149.032 74.7338 149.02C79.7639 148.806 84.4471 150.266 88.1785 153.807C91.7689 157.214 93.8194 161.581 94.0138 166.56C96.0513 164.758 98.3158 163.493 101.085 163.505C103.85 163.518 106.536 164.894 108.435 166.904C110.949 169.567 111.092 172.41 111.026 175.883C111.842 175.716 112.655 175.555 113.488 175.514C113.69 175.503 113.892 175.497 114.094 175.497C114.296 175.496 114.498 175.501 114.7 175.51C114.902 175.52 115.104 175.535 115.305 175.555C115.506 175.574 115.707 175.599 115.907 175.63C116.106 175.66 116.305 175.695 116.504 175.735C116.702 175.775 116.899 175.821 117.095 175.871C117.291 175.921 117.486 175.977 117.679 176.037C117.872 176.097 118.064 176.163 118.254 176.233C118.444 176.303 118.632 176.378 118.819 176.457C119.005 176.537 119.189 176.621 119.371 176.71C119.554 176.799 119.734 176.893 119.911 176.991C120.089 177.09 120.264 177.192 120.436 177.3C120.609 177.407 120.779 177.518 120.946 177.634C121.113 177.75 121.277 177.87 121.438 177.994C121.599 178.119 121.757 178.247 121.912 178.379C122.067 178.512 122.218 178.648 122.367 178.788C124.738 181.054 125.934 184.128 125.997 187.402C126.061 190.701 125.012 193.947 122.686 196.316C122.508 196.498 122.325 196.674 122.136 196.843C121.946 197.012 121.752 197.175 121.552 197.331C121.352 197.487 121.147 197.637 120.937 197.779C120.727 197.921 120.513 198.056 120.294 198.183C120.075 198.311 119.853 198.431 119.626 198.543C119.4 198.656 119.17 198.76 118.936 198.857C118.703 198.954 118.467 199.042 118.227 199.123C117.988 199.204 117.746 199.276 117.502 199.34C113.79 200.319 109.307 199.894 105.474 199.888L91.4191 199.898L63.1236 199.925C58.4764 199.898 53.1381 200.341 48.6043 199.339C44.8209 198.503 41.6183 195.995 39.5393 192.705C39.3977 192.479 39.2616 192.249 39.1309 192.015C39.0003 191.782 38.8754 191.545 38.756 191.306C38.6367 191.066 38.5232 190.824 38.4155 190.579C38.3078 190.333 38.2061 190.086 38.1102 189.836C38.0144 189.585 37.9245 189.333 37.8408 189.078C37.757 188.823 37.6794 188.567 37.6079 188.308C37.5364 188.05 37.4711 187.79 37.4121 187.528C37.353 187.266 37.3003 187.003 37.2538 186.739C37.2074 186.474 37.1673 186.209 37.1335 185.943C37.0998 185.676 37.0724 185.409 37.0514 185.141C37.0304 184.873 37.0159 184.605 37.0078 184.337C36.9996 184.068 36.9979 183.8 37.0026 183.531C37.0073 183.263 37.0184 182.995 37.0359 182.727C37.0535 182.459 37.0774 182.191 37.1078 181.925C37.1381 181.658 37.1748 181.392 37.2178 181.127C37.2609 180.862 37.3103 180.598 37.366 180.335C38.3572 175.858 41.2893 171.875 45.0996 169.459C49.1127 166.915 53.4619 166.68 57.9723 167.759C57.9738 163.757 58.9286 159.833 61.2709 156.566C64.33 152.3 68.865 149.865 73.921 149.068Z" fill="#FEFEFE"/>
<circle cx="284" cy="230" r="32" fill="#FEBD23"/>
<path d="M260 183C260 169.745 270.745 159 284 159H285C298.255 159 309 169.745 309 183V233H260V183Z" fill="#FEBD23"/>
<path d="M198.479 161.211C198.957 161.46 199.402 162.17 199.723 162.609L155.084 162.622C151.406 162.488 147.692 162.598 144.01 162.606C144.267 162.147 144.611 161.727 144.923 161.303L177.4 161.319C183.842 161.313 190.362 161.54 196.791 161.226L198.479 161.211Z" fill="#FEFEFE"/>
<path d="M169.217 139.094C169.421 135.771 168.799 121.015 169.563 119.439C169.6 119.361 169.641 119.286 169.686 119.213C169.731 119.139 169.78 119.069 169.832 119.001C169.884 118.932 169.94 118.867 169.999 118.805C170.058 118.742 170.12 118.683 170.185 118.627C170.25 118.571 170.318 118.519 170.389 118.47C170.46 118.421 170.532 118.376 170.608 118.335C170.683 118.293 170.76 118.256 170.839 118.223C170.919 118.189 170.999 118.16 171.081 118.135C171.181 118.105 171.283 118.079 171.385 118.059C171.488 118.038 171.591 118.023 171.695 118.014C171.799 118.004 171.904 117.999 172.008 118C172.113 118.001 172.217 118.007 172.321 118.019C172.425 118.03 172.528 118.047 172.63 118.069C172.732 118.091 172.833 118.118 172.932 118.151C173.032 118.183 173.129 118.221 173.225 118.263C173.321 118.305 173.414 118.352 173.505 118.404C174.256 118.83 174.548 119.372 174.788 120.173C174.575 121.506 174.709 123.02 174.709 124.373L174.709 132.329C174.708 134.282 174.43 137.248 174.724 139.057C174.083 139.059 173.411 139.02 172.776 139.102L169.217 139.094Z" fill="#682B6F"/>
<path d="M174.788 120.174C174.832 120.2 174.875 120.228 174.92 120.252C176.342 121.009 178.59 121.691 180.159 122.337C185.869 124.688 191.652 126.849 197.346 129.234C198.702 129.802 200.414 130.187 201.673 130.899C202.144 131.166 202.454 131.569 202.622 132.083C202.809 132.654 202.854 133.385 202.55 133.923C202.329 134.314 201.95 134.685 201.501 134.786C199.559 135.227 196.146 134.95 194.06 134.949C187.666 134.947 181.178 134.721 174.796 135.021C174.799 136.338 174.91 137.756 174.724 139.058C174.43 137.249 174.708 134.282 174.709 132.329L174.709 124.374C174.709 123.021 174.575 121.506 174.788 120.174Z" fill="#944C9C"/>
<path d="M154.465 150.695C155.942 150.894 157.51 150.808 159 150.802L166.393 150.781C173.915 150.781 181.46 150.924 188.979 150.772C191.073 152.58 192.904 155.011 194.772 157.071C195.952 158.373 197.543 159.735 198.479 161.21L196.791 161.225C194.868 161.119 192.916 161.186 190.989 161.19L180.792 161.206C168.894 161.219 156.987 161.338 145.091 161.185C146.66 159.241 148.447 157.442 150.095 155.561C151.675 154.148 153.004 152.262 154.465 150.695Z" fill="#FF2B60"/>
<path d="M199.723 162.609C201.65 164.278 203.358 166.438 205.09 168.324C206.403 169.754 207.985 171.221 209.128 172.776L135.397 172.745C135.534 172.212 143.057 163.779 144.056 162.716C147.715 162.699 151.435 162.831 155.084 162.623L199.723 162.609Z" fill="#FF2B60"/>
<path d="M135.397 172.744L209.128 172.775C209.7 173.094 210.094 173.655 210.499 174.158C212.643 176.015 214.422 178.269 216.293 180.39C217.534 181.796 218.919 183.173 220.033 184.674C209.455 184.459 198.836 184.648 188.255 184.654L128.322 184.648C127.311 184.539 126.251 184.591 125.234 184.581C126.473 182.976 127.876 181.452 129.185 179.9C130.806 177.979 132.387 175.981 134.098 174.142C134.439 173.611 134.883 173.112 135.397 172.744Z" fill="#FF2B60"/>
<path d="M135.397 172.744L209.129 172.775C209.7 173.094 210.094 173.655 210.499 174.158C201.572 174.025 192.623 174.15 183.694 174.144L134.099 174.142C134.439 173.611 134.883 173.112 135.397 172.744Z" fill="#FEFEFE"/>
<path d="M126.322 184.648L188.255 184.654C198.836 184.648 211.455 184.46 222.033 184.675C222.44 185.065 222.93 185.455 223.213 185.945L223.161 186.122C224.61 186.778 225.827 187.767 226.389 189.3C226.843 190.54 226.722 192.001 226.146 193.181C225.595 194.31 224.635 195.102 223.439 195.474C222.131 195.882 220.454 195.875 219.108 195.704C215.655 195.804 210.183 195.741 206.728 195.742L187.94 195.732L130.996 195.735C128.409 195.565 123.158 196.279 121.085 195.214C120.089 194.702 118.887 193.522 118.553 192.409C118.188 191.193 118.276 189.653 118.882 188.537C119.627 187.166 120.695 186.389 122.183 185.97L123.252 184.681C124.276 184.689 125.299 184.678 126.322 184.648Z" fill="#FF2B60"/>
<path d="M126.322 184.648L188.255 184.654C198.836 184.648 211.455 184.46 222.033 184.675C222.44 185.065 222.93 185.455 223.213 185.945L223.161 186.122C220.239 185.793 214.122 186.005 211.074 185.999L190.195 186.002L122.183 185.97L123.252 184.681C124.276 184.689 125.299 184.678 126.322 184.648Z" fill="#FEFEFE"/>
<path d="M119.941 132.755C120.247 130.135 121.062 127.844 122.778 125.805C122.909 125.647 123.045 125.493 123.184 125.342C123.323 125.191 123.466 125.044 123.613 124.9C123.759 124.757 123.909 124.617 124.063 124.481C124.217 124.344 124.374 124.212 124.534 124.084C124.694 123.956 124.858 123.832 125.024 123.712C125.191 123.592 125.36 123.476 125.532 123.364C125.705 123.253 125.88 123.146 126.058 123.043C126.235 122.94 126.415 122.842 126.598 122.748C126.781 122.655 126.965 122.566 127.153 122.481C127.34 122.397 127.529 122.317 127.72 122.242C127.911 122.167 128.104 122.097 128.299 122.032C128.493 121.967 128.689 121.906 128.887 121.851C129.084 121.796 129.283 121.745 129.484 121.7C129.684 121.654 129.885 121.614 130.087 121.579C130.289 121.543 130.492 121.513 130.696 121.488C130.9 121.463 131.104 121.443 131.309 121.428C134.536 121.19 137.927 122.305 140.361 124.44C143.66 127.334 144.334 129.888 144.623 134.066C145.718 133.463 146.801 132.869 148.013 132.533C150.934 131.725 154.008 132.402 156.59 133.89C159.69 135.677 161.672 138.355 162.603 141.793C162.873 141.554 163.129 141.299 163.402 141.065C164.863 139.809 167.217 140.248 168.97 140.407C168.969 140.214 168.963 140.018 168.973 139.824C168.991 139.498 168.955 139.323 169.217 139.094L172.776 139.102C173.665 139.141 175.066 138.845 175.741 139.424C175.893 139.744 175.878 140.041 175.881 140.386C177.209 140.142 178.444 139.928 179.637 140.721C182.267 142.471 185.213 146.951 187.75 149.263C186.944 149.267 186.113 149.234 185.311 149.301C186.149 149.344 186.988 149.36 187.827 149.348L188.875 150.672L165.243 150.682L158.086 150.677C156.915 150.676 155.62 150.567 154.465 150.696C153.004 152.263 151.676 154.149 150.096 155.563C146.908 155.384 143.682 155.482 140.488 155.485L124.027 155.486C121.069 155.477 116.628 155.768 113.838 155.088C111.133 154.429 108.572 152.498 107.141 150.119C105.533 147.444 104.898 144.222 105.672 141.174C106.424 138.214 108.503 135.344 111.139 133.782C113.834 132.185 116.953 131.98 119.941 132.755Z" fill="#FEFEFE"/>
<path d="M172.775 139.102C173.665 139.141 175.066 138.845 175.741 139.424C175.893 139.744 175.878 140.041 175.881 140.386C177.209 140.143 178.444 139.928 179.637 140.722C182.267 142.471 185.213 146.951 187.75 149.263C186.944 149.268 186.113 149.234 185.311 149.301L155.604 149.367C158.017 146.939 160.36 144.379 162.603 141.793C162.873 141.555 163.129 141.3 163.402 141.065C164.863 139.809 167.216 140.248 168.97 140.407C168.968 140.214 168.963 140.018 168.973 139.825C168.991 139.498 168.955 139.323 169.217 139.095L172.775 139.102Z" fill="#FF2B60"/>
<path d="M172.775 139.102C173.665 139.141 175.065 138.845 175.74 139.424C175.893 139.744 175.877 140.041 175.881 140.386C173.608 140.584 171.249 140.505 168.97 140.407C168.968 140.214 168.963 140.018 168.973 139.825C168.991 139.498 168.955 139.323 169.217 139.095L172.775 139.102Z" fill="#FEFEFE"/>
<path d="M64.0839 243.171L64.1311 221.939C64.1311 217.39 63.6979 211.281 64.7616 206.945C65.6812 203.198 67.7671 199.589 70.4827 196.857C74.3266 192.989 79.7935 190.543 85.2683 190.528C85.4437 190.527 85.6191 190.528 85.7945 190.532C85.97 190.535 86.1453 190.541 86.3205 190.549C86.4958 190.557 86.6709 190.567 86.846 190.579C87.0211 190.591 87.1959 190.606 87.3705 190.622C87.5452 190.639 87.7196 190.658 87.8937 190.679C88.0679 190.7 88.2418 190.723 88.4154 190.748C88.5891 190.773 88.7624 190.801 88.9353 190.831C89.1081 190.86 89.2807 190.892 89.4529 190.926C89.6249 190.96 89.7966 190.996 89.968 191.034C90.1392 191.072 90.3098 191.113 90.48 191.155C90.6503 191.198 90.8201 191.242 90.9892 191.289C91.1582 191.335 91.3267 191.384 91.4947 191.435C91.6627 191.486 91.8299 191.539 91.9963 191.594C92.1629 191.649 92.3289 191.706 92.4941 191.765C92.6592 191.825 92.8236 191.886 92.9871 191.949C93.1509 192.012 93.3137 192.078 93.4756 192.145C93.6376 192.212 93.7988 192.282 93.9592 192.353C94.1194 192.424 94.2787 192.497 94.4372 192.573C94.5957 192.648 94.7532 192.725 94.9097 192.805C95.0662 192.884 95.2217 192.965 95.3763 193.048C95.5308 193.131 95.6842 193.216 95.8366 193.303C95.989 193.39 96.1403 193.479 96.2905 193.57C96.4406 193.661 96.5896 193.753 96.7376 193.847C96.8854 193.942 97.0321 194.038 97.1776 194.136C97.323 194.234 97.4673 194.334 97.6102 194.436C97.7531 194.538 97.8948 194.641 98.0352 194.746C98.1756 194.851 98.3146 194.958 98.4523 195.067C98.5902 195.176 98.7266 195.286 98.8616 195.398C98.9966 195.51 99.1301 195.624 99.2622 195.739C99.3944 195.855 99.525 195.972 99.6543 196.09C99.7835 196.209 99.9113 196.329 100.038 196.451C100.164 196.573 100.289 196.696 100.412 196.821C108.345 204.787 106.98 213.297 106.944 223.483C104.781 223.38 102.57 223.482 100.402 223.491C98.3115 223.485 96.6937 223.726 95.1325 225.274C93.1957 227.194 91.6852 229.884 90.12 232.123C88.0216 235.237 85.6278 238.115 83.4602 241.171C83.4376 241.211 83.4153 241.25 83.3924 241.289C82.2935 243.144 80.7391 244.896 79.4385 246.627L71.1177 257.707C69.9458 259.275 68.4506 260.88 67.609 262.652C67.2259 263.458 67.0513 264.354 67.2546 265.234C67.4762 266.194 68.1255 266.976 68.9651 267.47C70.0358 268.1 71.3337 268.224 72.5222 267.885C74.5809 267.298 76.1481 265.019 77.2988 263.334C77.4274 264.619 77.3559 265.969 77.3581 267.261L77.3693 273.965C77.3815 282.121 77.3036 290.282 77.4119 298.437C72.4648 297.032 67.1179 293.056 63.575 289.391C57.6896 283.301 53.6373 274.268 53.8183 265.698C54.0138 256.444 57.4534 249.507 64.0839 243.171Z" fill="#FEBD23"/>
<path d="M83.4604 241.171C83.2173 239.793 83.3744 238.118 83.3777 236.717L83.4162 227.918C83.4718 220.994 83.2622 214.029 83.489 207.112C83.5098 206.478 83.5208 205.794 83.8194 205.221C84.2228 204.447 84.8767 203.892 85.7239 203.659C85.8285 203.631 85.9341 203.608 86.0408 203.59C86.1476 203.572 86.255 203.56 86.3631 203.552C86.471 203.545 86.5791 203.543 86.6874 203.547C86.7956 203.55 86.9034 203.559 87.0106 203.573C87.118 203.587 87.2244 203.606 87.3298 203.631C87.4352 203.655 87.5391 203.685 87.6417 203.72C87.7442 203.755 87.8447 203.795 87.9433 203.839C88.0418 203.884 88.1379 203.934 88.2316 203.988C88.8679 204.354 89.446 204.911 89.6829 205.62C90.3216 207.531 89.9793 224.559 89.9598 227.512C89.9529 228.566 89.7086 231.073 90.0488 231.982C90.0674 232.031 90.0963 232.076 90.1201 232.123C88.0217 235.236 85.628 238.114 83.4604 241.171Z" fill="#FF2B60"/>
<path d="M261.203 191.709L261.222 191.506C261.369 189.938 261.324 188.337 261.311 186.765C261.259 180.489 261.241 176.114 264.564 170.454C265.871 168.227 267.412 166.164 269.399 164.5C273.809 160.808 279.749 158.731 285.509 159.275C291.688 159.859 297.178 162.737 301.12 167.533C301.379 167.847 301.629 168.168 301.87 168.496C302.111 168.823 302.342 169.157 302.565 169.498C302.787 169.839 303 170.186 303.203 170.538C303.405 170.891 303.598 171.249 303.781 171.612C303.964 171.976 304.136 172.344 304.299 172.717C304.461 173.09 304.612 173.467 304.753 173.849C304.894 174.231 305.025 174.616 305.144 175.005C305.264 175.394 305.372 175.786 305.469 176.18C306.399 179.967 306.272 183.764 306.269 187.626L306.266 196.39C306.263 199.678 306.506 203.53 306.159 206.772L306.143 206.905C311.996 213.127 315.549 220.987 315.277 229.628C315.269 229.894 315.258 230.16 315.244 230.426C315.229 230.692 315.211 230.958 315.191 231.223C315.169 231.489 315.144 231.754 315.117 232.019C315.09 232.283 315.059 232.548 315.023 232.812C314.99 233.076 314.952 233.34 314.912 233.603C314.871 233.866 314.828 234.128 314.782 234.391C314.735 234.653 314.684 234.914 314.63 235.175C314.578 235.436 314.521 235.696 314.46 235.955C314.401 236.215 314.338 236.474 314.272 236.731C314.206 236.989 314.137 237.246 314.064 237.502C313.992 237.759 313.916 238.014 313.839 238.268C313.759 238.523 313.677 238.776 313.592 239.028C313.508 239.281 313.42 239.532 313.329 239.782C313.237 240.032 313.142 240.281 313.044 240.529C312.948 240.777 312.848 241.024 312.745 241.269C312.642 241.514 312.535 241.758 312.425 242.001C312.315 242.244 312.203 242.485 312.088 242.725C311.973 242.965 311.854 243.204 311.733 243.441C311.612 243.678 311.489 243.914 311.362 244.148C311.235 244.382 311.105 244.614 310.972 244.845C310.84 245.076 310.704 245.305 310.566 245.533C310.428 245.76 310.287 245.986 310.143 246.21C309.999 246.435 309.853 246.657 309.703 246.877C309.554 247.098 309.402 247.316 309.248 247.533C309.093 247.75 308.936 247.965 308.776 248.178C308.616 248.39 308.453 248.601 308.288 248.81C308.123 249.019 307.956 249.226 307.785 249.431C307.615 249.635 307.443 249.838 307.267 250.039C307.092 250.239 306.915 250.437 306.735 250.634C306.555 250.83 306.372 251.024 306.187 251.216C306.003 251.407 305.816 251.597 305.626 251.784C305.437 251.971 305.245 252.155 305.051 252.338C299.936 257.131 294.003 259.911 287.082 260.868L287.662 283.524C287.803 288.775 288.03 294.042 287.984 299.295C286.591 299.098 284.873 299.341 283.442 299.338C284.195 296.866 285.106 294.194 284.981 291.584C284.86 289.065 283.563 287.452 281.789 285.852C281.569 283.686 281.569 281.485 281.524 279.311C281.427 275.431 281.363 271.55 281.331 267.668C281.307 265.336 281.375 262.973 281.225 260.647C281.111 260.646 280.997 260.644 280.884 260.64C272.145 260.309 265.799 255.299 260.143 249.181C259.849 248.044 260.099 239.616 260.096 237.762L260.067 200.212C260.937 199.82 261.622 199.402 262.239 198.647C263.013 197.7 263.437 196.503 263.313 195.277C263.162 193.773 262.346 192.639 261.203 191.709Z" fill="#FEBD23"/>
<path d="M280.883 237.201L280.758 194.854L280.754 181.515C280.747 179.421 280.544 177.198 280.731 175.119C280.811 174.239 281.045 173.4 281.668 172.745C282.233 172.152 283.044 171.834 283.857 171.817C283.963 171.815 284.069 171.819 284.174 171.828C284.28 171.837 284.384 171.852 284.488 171.872C284.592 171.892 284.695 171.917 284.796 171.948C284.897 171.979 284.997 172.015 285.094 172.056C285.192 172.097 285.287 172.143 285.38 172.194C285.472 172.246 285.562 172.301 285.649 172.362C285.736 172.422 285.819 172.487 285.899 172.556C285.979 172.625 286.056 172.699 286.128 172.776C286.685 173.379 286.815 174.049 286.867 174.844C287.008 176.994 286.853 179.223 286.83 181.381L286.762 193.453L286.841 222.677C286.815 229.251 286.86 235.823 286.975 242.396C290.213 240.878 292.668 238.892 293.907 235.432C294.138 234.787 294.347 234.094 294.396 233.408C294.518 231.724 294.054 229.875 295.954 228.997C296.697 228.654 297.77 228.709 298.51 229.038C299.159 229.326 299.595 229.858 299.831 230.519C300.749 233.088 299.469 237.251 298.283 239.57C296.208 243.629 292.44 246.598 288.135 247.977C287.714 248.112 287.281 248.214 286.85 248.312C286.953 252.493 286.881 256.693 287.082 260.868C287.082 260.868 287.045 324.097 287.662 347C288.278 369.904 281.79 349.328 281.79 349.328C281.79 349.328 281.569 281.486 281.524 279.312C281.427 275.432 281.363 271.55 281.331 267.669C281.307 265.337 281.375 262.974 281.225 260.648C281.042 258.483 281.11 256.269 281.072 254.096C280.984 250.402 280.916 246.709 280.869 243.014C276.851 242.772 273.326 241.406 270.6 238.327C269.045 236.572 267.395 233.694 267.602 231.26C267.671 230.453 267.978 229.734 268.608 229.208C269.274 228.651 269.972 228.482 270.824 228.441C272.121 229.034 272.661 229.709 273.162 231.046C274.074 233.48 275.029 235.347 277.517 236.473C278.587 236.957 279.715 237.158 280.883 237.201Z" fill="#FF2B60"/>
<path d="M132.996 195.735L187.94 195.731L206.728 195.741C210.183 195.74 213.655 195.803 217.108 195.703C217.357 195.964 217.331 196.121 217.348 196.482C217.555 200.806 217.345 205.221 217.369 209.557C217.42 218.734 217.499 227.962 217.322 237.137C217.166 237.348 217.203 237.339 216.932 237.448C212.785 237.253 208.548 237.444 204.389 237.429C204.688 237.13 204.982 236.801 205.215 236.449C205.799 235.564 206.037 234.424 205.783 233.391C205.75 233.258 205.71 233.127 205.663 232.998C205.616 232.869 205.563 232.743 205.504 232.619C205.444 232.495 205.379 232.375 205.308 232.258C205.236 232.141 205.159 232.028 205.076 231.918C204.994 231.809 204.906 231.704 204.812 231.603C204.719 231.503 204.621 231.407 204.518 231.316C204.415 231.226 204.308 231.14 204.196 231.06C204.085 230.98 203.97 230.906 203.851 230.838C202.959 230.331 201.926 230.24 200.943 230.513C199.987 230.779 199.136 231.365 198.676 232.261C198.093 233.398 198.169 234.853 198.519 236.045C199.208 236.828 199.92 237.531 200.688 238.234L200.711 242.897C200.718 245.344 200.603 247.805 200.65 250.249C200.672 253.032 200.67 255.815 200.642 258.599C196.514 258.583 192.387 258.592 188.259 258.628L188.278 277.07C184.455 276.843 180.514 277.037 176.682 277.041L154.958 277.038L155.002 258.547C152.648 258.455 150.272 258.537 147.916 258.553C146.475 256.992 143.812 252.27 142.609 250.233C141.404 248.679 140.418 246.852 139.342 245.197L133.292 235.999C131.961 233.96 130.618 231.929 129.264 229.906C128.439 228.681 127.533 227.474 126.806 226.191C127.103 216.091 126.752 205.93 126.771 195.822C128.841 195.708 130.922 195.851 132.996 195.735Z" fill="#FEBD23"/>
<path d="M200.65 250.249C198.67 250.236 194.63 250.802 193.078 249.528C192.333 248.917 192.07 248.042 192.017 247.11C191.953 245.997 192.04 244.723 192.85 243.872C194.304 242.345 198.682 242.876 200.71 242.897C200.717 245.344 200.602 247.805 200.65 250.249Z" fill="#FEFEFE"/>
<path d="M154.923 236.676L154.902 229.85C154.887 223.673 155.356 219.415 159.996 214.769C163.124 211.638 167.169 209.735 171.624 209.742C176.094 209.75 180.456 211.436 183.622 214.617C187.894 218.912 188.298 222.652 188.281 228.399L188.27 237C178.833 241.441 164.948 236.649 154.923 236.676Z" fill="#682B6F"/>
<path d="M188.27 236.677L188.259 258.629L188.278 277.071C184.455 276.844 180.514 277.038 176.682 277.042L154.958 277.039L155.002 258.548C154.711 251.276 155.055 243.958 154.923 236.677C166.039 236.648 177.157 236.677 188.27 236.677Z" fill="#FF2B60"/>
<path d="M164.188 243.329C167.686 243.255 171.192 243.321 174.691 243.344C176.549 243.356 178.57 243.213 180.407 243.435C180.853 243.49 181.278 243.618 181.668 243.844C182.366 244.247 182.91 244.895 183.107 245.683C183.49 247.21 183.233 253.781 183.237 255.918L183.252 264.795C183.254 266.305 183.337 267.87 183.226 269.375C183.191 269.853 183.06 270.24 182.786 270.633C182.243 271.411 181.454 271.64 180.566 271.806C180.067 271.881 179.567 271.909 179.064 271.928C176.062 272.037 173.032 271.963 170.027 271.968C168.067 271.971 165.984 272.127 164.041 271.911C163.431 271.843 162.626 271.756 162.175 271.309C162.066 271.199 161.965 271.082 161.874 270.957C161.782 270.832 161.701 270.701 161.63 270.563C161.559 270.425 161.499 270.283 161.45 270.136C161.402 269.989 161.365 269.839 161.339 269.686C160.974 267.54 161.253 263.999 161.256 261.713L161.273 245.235C161.417 244.968 161.572 244.725 161.761 244.485C162.433 243.63 163.15 243.446 164.188 243.329Z" fill="#FEBD23"/>
<path d="M132.996 195.735L187.94 195.731L206.728 195.741C210.183 195.74 217.654 195.803 221.108 195.703C220 212.791 219.5 222 218.931 237.448C214.785 237.253 208.548 237.444 204.389 237.429C204.688 237.13 204.982 236.801 205.215 236.449C205.799 235.564 206.037 234.424 205.783 233.391C205.749 233.258 205.709 233.127 205.663 232.998C205.616 232.869 205.563 232.743 205.504 232.619C205.444 232.495 205.379 232.375 205.307 232.258C205.236 232.141 205.159 232.028 205.076 231.918C204.993 231.809 204.905 231.704 204.812 231.603C204.719 231.503 204.621 231.407 204.518 231.316C204.415 231.226 204.308 231.14 204.196 231.06C204.085 230.98 203.97 230.906 203.851 230.838C202.959 230.331 201.926 230.24 200.943 230.513C199.986 230.779 199.136 231.365 198.676 232.261C198.093 233.398 198.169 234.853 198.519 236.045C196.916 236.077 194.581 236.456 193.309 235.28C192.492 234.524 192.153 233.346 192.154 232.26C192.155 231.269 192.453 230.326 193.197 229.641C196.037 227.025 203.425 231.391 203.874 225.997C204.026 224.172 203.858 222.27 203.877 220.436C201.572 220.457 196.486 220.766 194.466 220.357C193.782 220.219 193.079 219.952 192.584 219.445C192.357 219.214 192.167 218.962 191.993 218.69C191.96 217.364 191.604 214.719 192.543 213.682C192.931 213.252 193.599 213.014 194.151 212.904C195.372 212.659 196.757 212.782 197.998 212.791L203.881 212.842C203.897 210.941 204.431 206.1 203.015 204.741C202.521 204.265 201.799 204.024 201.127 203.974C197.51 203.709 193.387 203.932 189.71 203.926C182.116 203.862 174.522 203.872 166.929 203.956L150.512 203.955C147.867 203.951 145.157 203.824 142.519 203.973C141.444 204.033 140.602 204.103 139.834 204.952C138.178 206.782 138.817 210.626 138.789 212.911C141.001 212.854 143.214 212.833 145.426 212.85C146.542 212.848 147.729 212.736 148.832 212.897C149.518 212.997 150.215 213.206 150.744 213.676C151.431 214.286 151.642 215.168 151.679 216.053C151.732 217.309 151.685 218.905 150.738 219.845C150.297 220.283 149.73 220.533 149.128 220.658C147.736 220.947 146.126 220.779 144.709 220.772L138.832 220.786L138.834 228.021L145.018 228.008C146.193 228.005 147.477 227.909 148.639 228.083C149.301 228.182 150.048 228.389 150.548 228.858C151.5 229.752 151.409 231.275 151.394 232.476C151.383 233.434 151.218 234.422 150.52 235.134C150.08 235.583 149.487 235.837 148.878 235.956C147.127 236.299 140.99 236.056 138.793 236.011L138.784 242.37C142.303 242.356 145.96 242.148 149.463 242.409C150.441 243.126 151.032 243.807 151.228 245.034C151.43 246.299 151.498 248.008 150.699 249.075C150.176 249.774 149.38 250.107 148.535 250.216C146.625 250.463 144.542 250.181 142.609 250.233C141.404 248.679 140.417 246.852 139.342 245.197L133.292 235.999C131.961 233.96 130.618 231.929 129.263 229.906C128.439 228.681 128.112 236.33 126.806 226.191C125.5 216.053 122.771 195.822 122.771 195.822C122.771 195.822 130.922 195.851 132.996 195.735Z" fill="#FEFEFE"/>
<path d="M106.944 223.483C112.826 223.384 118.707 223.336 124.589 223.34C125.596 224.155 125.933 225.323 126.806 226.192C127.533 227.474 128.439 228.682 129.264 229.907C130.618 231.93 131.961 233.961 133.292 236L139.342 245.198C140.418 246.853 141.404 248.68 142.609 250.234C143.812 252.271 146.475 256.992 147.916 258.554C150.272 258.537 152.648 258.456 155.002 258.548L154.958 277.039C145.941 277.328 136.892 276.816 127.876 277.078C126.809 277.28 126.147 277.664 125.539 278.585C124.62 279.978 124.495 282.447 124.892 284.053C125.157 285.127 125.848 286.16 126.834 286.694C127.137 286.858 127.445 286.972 127.777 287.062L127.803 331.386C127.813 336.566 127.722 341.756 127.783 346.934C129.45 346.963 131.117 346.971 132.784 346.96C136.874 347.171 141.017 346.946 145.113 346.913C146.978 346.897 149.102 346.693 150.92 347.124C152.201 347.427 153.306 348.048 154.179 349.043C154.802 349.753 155.14 350.508 155.42 351.399C155.57 352.978 155.482 354.516 155.369 356.094C154.416 357.764 153.434 359.162 151.465 359.716C148.835 360.457 145.642 360.125 142.92 360.123L133.405 360.11L124.491 360.094C122.677 360.091 120.835 360.149 119.027 360.001C115.362 360.124 111.656 360.01 107.986 360.011L88.8943 359.978C87.5462 360.107 86.1344 360.032 84.7782 360.028L77.6889 360.006C73.7818 359.997 69.7671 360.245 65.8711 360.024C65.2035 359.986 64.5387 359.892 63.8988 359.693C63.8015 359.663 63.705 359.63 63.6092 359.595C63.5135 359.559 63.4187 359.522 63.3249 359.482C63.231 359.442 63.1382 359.4 63.0464 359.356C62.9546 359.311 62.864 359.264 62.7745 359.215C62.6851 359.166 62.5968 359.115 62.5099 359.062C62.4229 359.009 62.3373 358.953 62.2531 358.896C62.1689 358.838 62.0861 358.779 62.0048 358.717C61.9236 358.656 61.8438 358.592 61.7657 358.527C61.6875 358.461 61.611 358.394 61.5362 358.324C61.4614 358.255 61.3883 358.184 61.317 358.111C61.2457 358.038 61.1762 357.964 61.1086 357.887C61.0409 357.811 60.9752 357.733 60.9114 357.653C60.8476 357.574 60.7858 357.493 60.7261 357.41C60.6663 357.327 60.6086 357.243 60.5529 357.158C60.4973 357.073 60.4438 356.986 60.3924 356.898C60.341 356.81 60.2919 356.72 60.2449 356.63C59.3214 354.863 59.2342 352.96 59.8503 351.086C60.1994 350.214 60.642 349.403 61.3135 348.734C61.9366 348.113 62.7482 347.607 63.6043 347.388C66.181 346.73 74.4352 347.087 77.3943 347.102C77.3148 330.88 77.3208 314.658 77.4123 298.438C77.304 290.282 77.3819 282.121 77.3697 273.965L77.3585 267.261C77.3563 265.969 77.4278 264.619 77.2992 263.334C76.1485 265.019 74.5813 267.299 72.5226 267.885C71.3341 268.224 70.0362 268.1 68.9655 267.47C68.1259 266.976 67.4766 266.194 67.255 265.234C67.0517 264.354 67.2264 263.458 67.6094 262.652C68.4511 260.881 69.9462 259.275 71.1181 257.707L79.4389 246.627C80.7395 244.896 82.2939 243.144 83.3928 241.289C83.4157 241.25 83.438 241.211 83.4606 241.172C85.6282 238.115 88.022 235.237 90.1204 232.124C91.6856 229.884 93.1961 227.194 95.1329 225.274C96.6941 223.726 98.3119 223.486 100.402 223.491C102.571 223.482 104.781 223.38 106.944 223.483Z" fill="#944C9C"/>
<path d="M92.1306 347.144L92.1045 349.567C91.0513 348.424 89.9592 347.778 88.5591 347.133C89.7362 347.061 90.9498 347.133 92.1306 347.144Z" fill="#FF2B60"/>
<path d="M119.438 260.023C120.449 261.468 121.562 262.908 122.45 264.428C121.44 264.474 120.42 264.454 119.408 264.461C119.414 262.985 119.388 261.499 119.438 260.023Z" fill="#FEFEFE"/>
<path d="M95.8301 342.662C97.7166 342.612 99.6103 342.642 101.498 342.64C101.52 343.547 101.771 346.331 101.394 346.986L101.276 347.061C99.476 346.946 97.6179 347.055 95.8096 347.039C95.8481 345.583 95.824 344.119 95.8301 342.662Z" fill="#FEFEFE"/>
<path d="M95.8198 270.781C97.7289 270.585 99.753 270.692 101.67 270.771L101.669 275.014C99.7256 275.094 97.7677 275.049 95.8226 275.05L95.8198 270.781Z" fill="#FEFEFE"/>
<path d="M122.45 264.428C123.442 265.447 124.152 266.711 125.11 267.765L125.106 270.739C123.203 270.791 121.3 270.805 119.397 270.78C119.352 268.678 119.402 266.564 119.408 264.461C120.42 264.454 121.44 264.474 122.45 264.428Z" fill="#FEFEFE"/>
<path d="M101.67 270.771L107.579 270.811C108.826 270.815 110.155 270.734 111.39 270.911C112.926 270.968 114.46 270.951 115.996 270.94C116.007 272.254 116.005 273.568 115.991 274.882C111.216 274.886 106.443 274.93 101.669 275.014L101.67 270.771Z" fill="#EEECF9"/>
<path d="M101.498 342.639C106.373 342.717 111.251 342.596 116.127 342.621L116.106 346.945C111.164 346.941 106.215 346.883 101.275 347.059L101.394 346.984C101.771 346.329 101.52 343.546 101.498 342.639Z" fill="#EEECF9"/>
<path d="M95.8634 310.893C97.7615 310.871 99.6596 310.872 101.558 310.895L101.607 323.339C100.599 323.337 99.5672 323.288 98.5629 323.363L95.8485 323.36C95.8053 319.206 95.8523 315.048 95.8634 310.893Z" fill="#FEFEFE"/>
<path d="M95.8366 326.86C97.7664 326.849 99.6959 326.858 101.625 326.886C101.632 328.385 101.921 338.412 101.484 339.222L101.237 339.321C99.4445 339.215 97.6036 339.296 95.8052 339.294L95.8366 326.86Z" fill="#FEFEFE"/>
<path d="M95.9063 294.617L101.627 294.649L101.636 307.377C99.7242 307.372 97.7304 307.26 95.8294 307.437C95.7731 303.169 95.905 298.887 95.9063 294.617Z" fill="#FEFEFE"/>
<path d="M101.625 326.887L116.084 326.889L116.111 339.268C111.157 339.281 106.189 339.214 101.237 339.321L101.484 339.223C101.921 338.413 101.632 328.386 101.625 326.887Z" fill="#EEECF9"/>
<path d="M101.558 310.895L116.088 310.902L116.099 323.418L105.219 323.455C103.022 323.461 100.751 323.548 98.563 323.363C99.5673 323.288 100.599 323.337 101.607 323.339L101.558 310.895Z" fill="#EEECF9"/>
<path d="M101.627 294.648C106.424 294.594 111.253 294.549 116.048 294.65L116.081 307.457C111.486 307.412 106.892 307.409 102.297 307.448C100.331 307.464 97.7181 307.743 95.8296 307.436C97.7306 307.259 99.7244 307.372 101.636 307.377L101.627 294.648Z" fill="#EEECF9"/>
<path d="M101.59 278.424C106.408 278.427 111.231 278.377 116.048 278.44C116.064 282.676 116.125 286.92 116.052 291.156C111.693 291.119 107.335 291.111 102.976 291.133C100.746 291.165 97.9958 291.537 95.8203 291.192L95.9051 278.435L101.59 278.424Z" fill="#EEECF9"/>
<path d="M95.9051 278.434L101.59 278.424L101.609 291.112C99.7093 291.113 97.7061 290.99 95.8203 291.192L95.9051 278.434Z" fill="#FEFEFE"/>
<path d="M101.275 347.06C106.215 346.884 111.164 346.942 116.106 346.946L116.128 348.684C114.832 350.377 113.912 351.921 114.188 354.154C114.431 356.132 115.667 357.736 117.213 358.909C117.777 359.338 118.402 359.671 119.027 360.001C115.362 360.123 111.655 360.01 107.986 360.01L88.894 359.977C90.5047 359.62 92.0338 358.891 93.2268 357.74C96.3087 354.766 95.7378 350.934 95.8093 347.039C97.6177 347.055 99.4758 346.946 101.275 347.06Z" fill="#FF2B60"/>
<path d="M147.916 258.553C150.272 258.537 152.648 258.455 155.002 258.547L154.958 277.038C145.941 277.327 136.892 276.815 127.876 277.077C127.49 275.619 127.766 271.02 127.777 269.266C128.924 269.514 130.207 269.648 131.287 269.08C132.026 268.691 132.493 268.016 132.752 267.238L132.805 266.984C133.021 266.777 133.08 266.78 133.37 266.748C134.093 266.668 134.839 266.765 135.57 266.707C137.881 266.525 140.277 266.233 142.591 266.227C142.882 266.226 143.054 266.158 143.263 266.368C143.727 266.018 148.103 265.722 148.95 265.77C149.483 265.758 150.002 265.687 150.461 265.397C150.779 265.197 150.991 264.911 151.068 264.541C151.391 262.975 148.789 259.908 147.916 258.553Z" fill="#FEFEFE"/>
<path d="M143.264 266.369C143.727 266.018 148.103 265.722 148.951 265.771C148.998 266.881 148.947 267.915 148.116 268.769C148.057 268.83 147.995 268.888 147.93 268.943C147.865 268.997 147.797 269.049 147.727 269.096C147.657 269.144 147.584 269.188 147.509 269.228C147.434 269.268 147.357 269.304 147.279 269.336C147.2 269.368 147.12 269.396 147.038 269.42C146.957 269.444 146.874 269.463 146.79 269.478C146.707 269.493 146.623 269.504 146.538 269.511C146.453 269.517 146.368 269.519 146.283 269.516C145.48 269.498 144.778 269.1 144.245 268.517C143.683 267.902 143.486 267.148 143.264 266.369Z" fill="#682B6F"/>
<path d="M125.111 267.766C125.98 268.565 126.695 268.834 127.777 269.267C127.766 271.021 127.49 275.619 127.876 277.078C126.809 277.28 126.147 277.664 125.539 278.585C124.619 279.978 124.495 282.447 124.892 284.053C125.157 285.127 125.848 286.16 126.834 286.694C127.137 286.858 127.445 286.972 127.777 287.062L127.803 331.386C127.813 336.566 127.722 341.756 127.783 346.934C125.383 346.558 121.907 346.813 119.407 346.818L119.391 342.632C120.417 342.648 121.382 342.754 122.305 342.207C122.741 341.95 123.176 341.513 123.237 340.986C123.282 340.593 123.084 340.224 122.814 339.955C121.942 339.089 120.55 339.25 119.434 339.262C119.334 335.149 119.402 331.006 119.427 326.891C120.51 326.918 121.598 327.05 122.51 326.326C122.856 326.051 123.128 325.647 123.124 325.19C123.122 324.786 122.91 324.421 122.625 324.148C121.746 323.306 120.56 323.349 119.435 323.36C119.319 319.204 119.403 315.027 119.401 310.869C120.448 310.87 121.437 310.955 122.341 310.322C122.7 310.069 123.044 309.671 123.08 309.215C123.114 308.792 122.893 308.422 122.589 308.148C121.699 307.347 120.537 307.453 119.43 307.47C119.338 303.21 119.38 298.935 119.411 294.673C120.445 294.682 121.464 294.769 122.352 294.13C122.733 293.856 123.025 293.451 123.043 292.968C123.058 292.579 122.861 292.215 122.599 291.94C121.724 291.023 120.597 291.083 119.434 291.072L119.477 278.505C120.63 278.502 121.783 278.588 122.729 277.795C123.093 277.491 123.363 277.068 123.356 276.58C123.352 276.202 123.129 275.85 122.858 275.6C121.875 274.693 120.634 274.878 119.412 274.952L119.397 270.781C121.3 270.805 123.203 270.792 125.106 270.74L125.111 267.766Z" fill="#EEECF9"/>
<path d="M77.2988 263.333C77.9146 262.114 78.9562 260.972 79.7811 259.881C81.0779 258.164 82.3552 256.433 83.613 254.688L91.7437 243.541C94.1795 240.144 96.5238 236.66 99.2146 233.457C103.596 239.556 108.211 245.499 112.613 251.589C113.7 253.092 114.938 254.522 115.964 256.062C115.979 261.017 115.9 265.988 115.996 270.94C114.46 270.951 112.925 270.968 111.39 270.911C110.155 270.734 108.826 270.816 107.579 270.812L101.669 270.772C99.7528 270.692 97.7287 270.586 95.8196 270.782C94.5766 270.866 93.328 270.834 92.0829 270.825L92.0664 275.111C91.1591 275.099 90.3948 275.045 89.6821 275.724C89.3614 276.029 89.1716 276.452 89.1987 276.9C89.2287 277.394 89.5121 277.816 89.8868 278.124C90.4395 278.578 90.9868 278.626 91.6724 278.668C91.7784 278.675 91.8842 278.685 91.9903 278.694L92.0114 291.116C91.17 291.092 90.496 291.033 89.8178 291.628C89.4968 291.909 89.2751 292.288 89.2543 292.719C89.2322 293.178 89.4159 293.583 89.73 293.91C90.3458 294.553 91.0515 294.596 91.8921 294.583L92.0692 294.579C92.1059 298.878 92.1109 303.176 92.0842 307.475C91.1702 307.464 90.3565 307.411 89.6539 308.106C89.3507 308.407 89.1716 308.788 89.1865 309.218C89.204 309.73 89.4814 310.135 89.8711 310.448C90.5313 310.978 91.2666 310.946 92.0629 310.934L92.0108 323.405C91.1938 323.387 90.4999 323.445 89.8744 324.029C89.5484 324.334 89.3284 324.727 89.3195 325.181C89.3106 325.623 89.504 326.009 89.8122 326.318C90.4549 326.963 91.2009 326.914 92.038 326.892C92.073 330.984 92.1943 335.109 92.0377 339.198C91.5178 339.202 90.9944 339.193 90.475 339.215C89.9262 339.613 89.2901 340.07 89.2061 340.802C89.1563 341.233 89.3347 341.635 89.623 341.948C89.9305 342.283 90.3291 342.5 90.7196 342.722L92.1375 342.663C92.1359 344.156 92.1547 345.652 92.1304 347.144C90.9495 347.133 89.7359 347.062 88.5588 347.133C87.2018 346.932 85.7033 347.055 84.327 347.068C82.016 347.092 79.705 347.103 77.394 347.101C77.3145 330.879 77.3205 314.657 77.412 298.437C77.3037 290.281 77.3815 282.12 77.3694 273.964L77.3582 267.26C77.3559 265.968 77.4275 264.618 77.2988 263.333Z" fill="#FEFEFE"/>
<path d="M88.6594 270.708C88.6617 268.125 88.6481 265.543 88.6185 262.96C88.5855 258.177 88.5221 254.067 92.0589 250.381C94.0888 248.265 97.1064 247.034 100.028 246.985C100.206 246.983 100.384 246.985 100.561 246.991C100.739 246.997 100.917 247.008 101.094 247.023C101.271 247.038 101.448 247.058 101.624 247.082C101.801 247.105 101.976 247.134 102.151 247.166C102.326 247.199 102.5 247.235 102.673 247.277C102.846 247.318 103.018 247.363 103.189 247.413C103.36 247.463 103.53 247.516 103.698 247.575C103.866 247.633 104.033 247.695 104.198 247.761C104.363 247.827 104.526 247.898 104.688 247.972C104.849 248.047 105.009 248.125 105.167 248.207C105.325 248.29 105.48 248.376 105.634 248.466C105.787 248.556 105.938 248.65 106.087 248.747C106.236 248.845 106.382 248.946 106.526 249.051C106.67 249.156 106.811 249.264 106.95 249.376C107.088 249.487 107.223 249.603 107.356 249.721C107.489 249.84 107.619 249.961 107.746 250.086C111.559 253.819 111.385 258.436 111.363 263.37C111.343 265.884 111.352 268.398 111.39 270.911C110.155 270.734 108.826 270.816 107.579 270.812L101.67 270.772C99.7531 270.692 97.7291 270.586 95.82 270.782C94.577 270.866 93.3283 270.834 92.0833 270.825C90.9539 270.725 89.7984 270.799 88.6594 270.708Z" fill="#FEBD23"/>
<path d="M100.053 249.17C101.566 249.102 103.202 249.495 104.453 250.353C106.096 251.482 107.18 253.538 107.487 255.485C107.783 257.361 107.242 259.287 106.113 260.801C104.774 262.599 102.909 263.378 100.76 263.705C99.0353 263.653 97.4655 263.291 96.0461 262.259C94.4498 261.098 93.2486 259.166 92.9777 257.202C92.9628 257.086 92.9508 256.97 92.9416 256.854C92.9327 256.738 92.9265 256.622 92.9231 256.505C92.9199 256.389 92.9196 256.272 92.9221 256.155C92.9246 256.039 92.9301 255.922 92.9386 255.806C92.9469 255.69 92.9581 255.574 92.9723 255.458C92.9865 255.343 93.0036 255.227 93.0236 255.112C93.0435 254.997 93.0664 254.883 93.0921 254.769C93.1176 254.656 93.1461 254.543 93.1776 254.431C93.2089 254.318 93.243 254.207 93.2799 254.096C93.3167 253.986 93.3563 253.876 93.3986 253.767C93.4411 253.659 93.4861 253.551 93.5338 253.445C93.5815 253.339 93.6319 253.233 93.6848 253.13C93.7379 253.026 93.7935 252.923 93.8515 252.822C93.9097 252.721 93.9704 252.622 94.0334 252.524C94.0965 252.426 94.162 252.329 94.2298 252.235C94.2978 252.14 94.3681 252.047 94.4407 251.956C95.8707 250.175 97.8344 249.382 100.053 249.17Z" fill="#FF2B60"/>
<path d="M198.519 236.044C198.169 234.852 198.093 233.398 198.676 232.26C199.136 231.364 199.986 230.778 200.943 230.512C201.926 230.239 202.959 230.331 203.851 230.837C203.97 230.906 204.085 230.98 204.196 231.06C204.308 231.14 204.415 231.225 204.518 231.316C204.621 231.406 204.719 231.502 204.812 231.602C204.905 231.703 204.993 231.808 205.076 231.917C205.159 232.027 205.236 232.14 205.307 232.257C205.379 232.374 205.444 232.495 205.504 232.618C205.563 232.742 205.616 232.868 205.663 232.997C205.709 233.126 205.749 233.257 205.783 233.39C206.037 234.423 205.799 235.563 205.215 236.448C204.982 236.801 204.688 237.129 204.389 237.428C208.548 237.444 212.785 237.252 216.931 237.447C226.913 237.34 236.895 237.32 246.877 237.386C246.758 236.154 246.722 234.957 247.225 233.794C247.711 232.67 248.621 231.758 249.785 231.352C251.076 230.902 252.4 231.124 253.603 231.708C254.746 232.639 255.562 233.773 255.713 235.276C255.837 236.502 255.413 237.7 254.639 238.647C254.022 239.401 253.337 239.82 252.467 240.212L252.496 277.762C252.499 279.616 252.249 288.043 252.543 289.181C258.199 295.298 264.545 300.308 273.284 300.639C273.397 300.644 273.511 300.646 273.625 300.647C273.775 302.973 273.707 305.336 273.731 307.668C273.763 311.549 273.827 315.43 273.924 319.311C273.969 321.485 273.969 323.686 274.189 325.852C275.963 327.451 277.26 329.065 277.381 331.584C277.506 334.194 276.595 336.866 275.842 339.338C277.272 339.341 278.991 339.098 280.384 339.294C282.556 340.09 284.252 341.152 285.271 343.348C285.89 344.684 285.998 346.125 285.993 347.576C288.512 347.558 294.7 347.245 296.81 347.688C296.948 347.717 297.085 347.75 297.22 347.789C297.356 347.827 297.49 347.87 297.623 347.918C297.756 347.966 297.887 348.019 298.016 348.076C298.144 348.133 298.271 348.195 298.396 348.262C298.52 348.328 298.642 348.399 298.762 348.474C298.881 348.549 298.998 348.628 299.111 348.712C299.225 348.795 299.336 348.883 299.443 348.974C299.551 349.065 299.655 349.16 299.756 349.259C300.318 349.816 300.684 350.508 300.994 351.228C301.484 351.077 306.26 351.03 311.793 351.026C321.755 351.021 329.824 359.173 329.824 369.135H30C30 359.152 38.1121 351.025 48.0958 351.026C53.5684 351.027 58.4754 351.04 59.8501 351.085C59.234 352.958 59.3213 354.862 60.2447 356.628C60.2917 356.719 60.3409 356.808 60.3922 356.896C60.4436 356.984 60.4971 357.071 60.5528 357.156C60.6084 357.242 60.6661 357.326 60.7259 357.409C60.7857 357.491 60.8475 357.572 60.9113 357.652C60.9751 357.731 61.0408 357.809 61.1084 357.886C61.1761 357.962 61.2455 358.037 61.3168 358.11C61.3882 358.182 61.4612 358.254 61.536 358.323C61.6109 358.392 61.6874 358.46 61.7655 358.525C61.8437 358.591 61.9234 358.654 62.0047 358.716C62.086 358.777 62.1687 358.837 62.2529 358.894C62.3372 358.952 62.4228 359.007 62.5097 359.061C62.5967 359.114 62.6849 359.165 62.7744 359.214C62.8638 359.263 62.9545 359.31 63.0462 359.354C63.138 359.398 63.2309 359.441 63.3247 359.48C63.4186 359.52 63.5134 359.558 63.6091 359.593C63.7048 359.628 63.8013 359.661 63.8986 359.692C64.5385 359.891 65.2034 359.984 65.8709 360.022C69.7669 360.244 73.7817 359.996 77.6887 360.004L84.7781 360.026C86.1343 360.03 87.5461 360.106 88.8941 359.977L107.986 360.009C111.655 360.009 115.362 360.123 119.027 360C120.835 360.148 122.677 360.089 124.491 360.093L133.405 360.109L142.92 360.121C145.642 360.124 148.835 360.456 151.465 359.715C153.434 359.16 154.416 357.763 155.369 356.092C155.482 354.514 155.57 352.976 155.42 351.398C155.14 350.507 154.802 349.751 154.179 349.041C153.306 348.046 152.201 347.426 150.92 347.122C149.102 346.692 146.978 346.896 145.113 346.911C141.017 346.944 136.874 347.17 132.784 346.959C131.117 346.97 129.45 346.961 127.783 346.933C127.722 341.755 127.813 336.564 127.803 331.384L127.777 287.06C127.445 286.97 127.137 286.856 126.834 286.692C125.848 286.158 125.157 285.125 124.892 284.052C124.495 282.445 124.619 279.977 125.539 278.583C126.147 277.663 126.809 277.278 127.876 277.076C136.892 276.814 145.941 277.326 154.958 277.037L176.682 277.04C180.514 277.037 184.455 276.842 188.278 277.069L188.259 258.627C192.386 258.592 196.514 258.582 200.642 258.598C200.669 255.815 200.672 253.032 200.65 250.248C200.603 247.804 200.718 245.343 200.71 242.896L200.688 238.233C199.919 237.53 199.208 236.827 198.519 236.044Z" fill="#FEFEFE"/>
<path d="M176.855 318.28C178.415 318.183 183.089 317.99 184.414 318.29C185.253 318.479 185.655 319.199 186.079 319.878C186.168 322.609 186.108 325.407 185.994 328.138C185.601 328.682 185.182 329.06 184.62 329.424C183.168 329.658 178.898 329.718 177.509 329.399C176.472 329.161 176.024 328.741 175.477 327.848C175.464 325.775 175.206 322.337 175.53 320.41C175.704 319.376 176.008 318.889 176.855 318.28Z" fill="#FEBD23"/>
<path d="M163.142 318.288C164.851 318.192 166.588 318.23 168.301 318.208C169.425 318.194 170.918 318.03 171.767 318.923C172.126 319.301 172.298 319.794 172.38 320.301C172.671 322.108 172.415 326.013 172.405 327.978C171.969 328.7 171.597 329.085 170.851 329.489C168.369 329.742 165.687 329.531 163.185 329.519C162.722 329.271 162.194 328.979 161.911 328.522C161.426 327.74 161.429 320.596 161.716 319.631C161.918 318.955 162.553 318.587 163.142 318.288Z" fill="#FEBD23"/>
<path d="M182.663 332.035C183.503 331.939 184.167 331.916 184.881 332.439C185.59 332.957 185.939 333.755 186.068 334.603C186.28 336.007 186.294 339.979 186.052 341.337C185.938 341.981 185.707 342.536 185.312 343.053C183.72 343.978 180.563 343.622 178.695 343.635C177.605 343.651 176.964 343.511 176.031 342.937C175.624 342.244 175.467 341.695 175.421 340.889C175.336 339.386 175.277 335.357 175.511 334.037C175.603 333.519 175.772 332.987 176.148 332.601C177.061 331.666 181.251 332.088 182.663 332.035Z" fill="#FEBD23"/>
<path d="M163.403 332.125C165.202 332.112 169.51 331.785 171.088 332.352C171.599 332.536 171.856 332.942 172.048 333.427C172.596 334.811 172.646 341.143 172.024 342.385C171.732 342.968 171.348 343.21 170.748 343.416C169.322 343.6 164.174 343.796 162.959 343.425C162.475 343.278 161.974 342.83 161.77 342.367C161.409 341.55 161.376 334.078 161.885 333.13C162.204 332.537 162.793 332.306 163.403 332.125Z" fill="#FEBD23"/>
<path d="M217.077 346.861L221.758 346.796C224.692 346.759 227.468 346.539 229.766 348.766C230.484 349.461 231.067 350.391 231.334 351.358C231.716 353.379 231.648 355.456 230.472 357.232C229.426 358.812 227.905 359.684 226.08 360.014C224.166 360.359 222.075 360.214 220.131 360.219L210.72 360.236L201.782 360.243C200.018 360.242 198.129 360.355 196.385 360.106C195.45 359.973 194.589 359.535 193.78 359.064C193.453 358.809 193.121 358.537 192.832 358.237C190.923 356.251 191.383 353.142 191.469 350.626C191.939 349.722 192.421 348.882 193.192 348.196C193.348 348.058 193.512 347.93 193.683 347.811C193.855 347.692 194.032 347.584 194.216 347.486C194.401 347.388 194.59 347.302 194.784 347.226C194.979 347.151 195.177 347.087 195.379 347.035C197.577 346.46 201.726 346.825 204.093 346.927C208.393 346.718 212.765 346.947 217.077 346.861Z" fill="#944C9C"/>
<path d="M139.844 287.055C146.244 287.401 153.344 287.176 159.785 287.17L200.64 287.064C201.549 288.688 202.733 290.216 203.543 291.877C203.366 296.466 203.252 346.176 203.53 346.749C203.717 346.813 203.902 346.874 204.093 346.928C201.726 346.826 197.577 346.461 195.379 347.036C195.177 347.088 194.978 347.152 194.784 347.227C194.59 347.303 194.4 347.39 194.216 347.487C194.032 347.585 193.854 347.693 193.683 347.812C193.512 347.931 193.348 348.059 193.192 348.198C192.421 348.883 191.939 349.723 191.469 350.628C191.351 343.687 191.456 336.717 191.499 329.775C191.527 325.308 192.059 319.911 190.978 315.607C190.152 312.313 188.277 309.235 185.847 306.876C182.375 303.508 177.75 301.856 172.933 301.979C168.13 302.101 163.692 304.29 160.406 307.75C158.067 310.214 156.556 313.251 155.853 316.566C155.183 319.727 155.484 323.278 155.489 326.502L155.531 342.575C155.531 345.493 155.638 348.488 155.42 351.399C155.14 350.508 154.801 349.752 154.179 349.042C153.306 348.047 152.201 347.427 150.92 347.123C149.102 346.693 146.978 346.897 145.113 346.912C141.017 346.946 136.874 347.171 132.784 346.96C131.117 346.971 129.45 346.962 127.783 346.934C127.721 341.756 127.812 336.566 127.803 331.386L127.777 287.061C131.762 287.114 135.865 287.249 139.844 287.055Z" fill="#EEECF9"/>
<path d="M127.777 287.061C131.762 287.114 135.865 287.249 139.844 287.055C140.147 287.357 140.116 287.695 140.115 288.112L140.177 346.925C137.724 346.924 135.232 346.828 132.784 346.96C131.117 346.971 129.45 346.962 127.783 346.934C127.721 341.756 127.812 336.566 127.803 331.386L127.777 287.061Z" fill="#FEFEFE"/>
<path d="M200.641 287.062L234.538 287.063C236.312 290.004 238.255 292.773 240.169 295.618L248.587 308.151L264.223 331.734C265.623 333.8 267.087 335.833 268.444 337.926C269.975 340.288 271.41 342.712 272.947 345.071C274.356 347.235 276.147 349.397 277.182 351.765C277.673 352.888 277.661 354.42 277.368 355.594C276.828 357.757 275.299 358.917 273.51 360.007C269.211 360.179 264.858 360.034 260.553 360.036C257.929 360.037 254.333 360.349 251.815 359.861C251.16 359.734 250.401 359.533 249.825 359.2C247.482 357.848 245.122 353.487 243.578 351.232L235.344 351.263C234.113 351.265 232.523 351.08 231.334 351.358C231.067 350.391 230.484 349.46 229.767 348.766C227.468 346.539 224.693 346.759 221.758 346.796L217.077 346.861C212.765 346.947 208.393 346.718 204.093 346.927C203.903 346.873 203.718 346.812 203.53 346.748C203.252 346.174 203.367 296.464 203.544 291.876C202.733 290.215 201.549 288.686 200.641 287.062Z" fill="#FF2B60"/>
<path d="M217.087 312.109C218.37 313.314 219.407 315.252 220.398 316.721L227.204 326.92L238.75 343.893C239.965 345.677 242.922 349.429 243.578 351.233L235.343 351.264C234.113 351.266 232.522 351.081 231.334 351.359C231.067 350.392 230.484 349.462 229.766 348.767C227.468 346.54 224.692 346.76 221.758 346.797L217.077 346.862L217.087 312.109Z" fill="#EEECF9"/>
<path d="M203.543 291.877C208.05 298.622 212.759 305.245 217.087 312.109L217.077 346.862C212.765 346.947 208.393 346.719 204.093 346.927C203.902 346.874 203.717 346.812 203.53 346.749C203.252 346.175 203.367 296.465 203.543 291.877Z" fill="#FEFEFE"/>
<path d="M198.519 236.044C198.169 234.852 198.093 233.398 198.676 232.26C199.136 231.364 199.986 230.778 200.943 230.512C201.926 230.239 202.959 230.331 203.851 230.837C203.97 230.906 204.085 230.98 204.196 231.06C204.308 231.14 204.415 231.225 204.518 231.316C204.621 231.406 204.719 231.502 204.812 231.602C204.905 231.703 204.993 231.808 205.076 231.917C205.159 232.027 205.236 232.14 205.307 232.257C205.379 232.374 205.444 232.495 205.504 232.618C205.563 232.742 205.616 232.868 205.663 232.997C205.709 233.126 205.749 233.257 205.783 233.39C206.037 234.423 205.799 235.563 205.215 236.448C204.982 236.801 204.688 237.129 204.389 237.428C208.548 237.444 212.785 237.252 216.932 237.447C226.913 237.34 236.895 237.32 246.877 237.386C246.758 236.154 246.722 234.957 247.225 233.794C247.711 232.67 248.621 231.758 249.786 231.352C251.076 230.902 252.4 231.124 253.603 231.708C254.747 232.639 255.562 233.773 255.713 235.276C255.837 236.502 255.413 237.7 254.639 238.647C254.022 239.401 253.337 239.82 252.467 240.212L252.496 277.762C252.499 279.616 252.25 288.043 252.543 289.181C258.199 295.298 264.545 300.308 273.284 300.639C273.397 300.644 273.511 300.646 273.625 300.647C273.775 302.973 273.707 305.336 273.731 307.668C273.763 311.549 273.827 315.43 273.924 319.311C273.969 321.485 273.969 323.686 274.189 325.852C275.963 327.451 277.26 329.065 277.381 331.584C277.506 334.194 276.595 336.866 275.842 339.338C277.273 339.341 278.991 339.098 280.384 339.294C282.556 340.09 284.253 341.152 285.271 343.348C285.89 344.684 285.998 346.125 285.993 347.576C288.512 347.559 294.7 347.245 296.81 347.688C296.948 347.717 297.085 347.75 297.22 347.789C297.356 347.827 297.491 347.87 297.623 347.918C297.756 347.966 297.887 348.019 298.016 348.076C298.144 348.133 298.271 348.195 298.396 348.262C298.52 348.328 298.642 348.399 298.762 348.474C298.881 348.549 298.998 348.628 299.111 348.712C299.225 348.795 299.336 348.883 299.443 348.974C299.551 349.065 299.655 349.16 299.756 349.259C300.318 349.816 300.684 350.508 300.994 351.229C301.598 353.047 301.65 354.76 300.789 356.523C300.092 357.949 298.861 359.116 297.332 359.596C294.855 360.373 289.178 360.012 286.302 360.012L273.51 360.007C275.299 358.917 276.828 357.757 277.368 355.594C277.661 354.42 277.672 352.888 277.181 351.765C276.147 349.397 274.356 347.235 272.946 345.071C271.41 342.712 269.975 340.288 268.444 337.926C267.086 335.833 265.623 333.8 264.223 331.734L248.587 308.151L240.169 295.618C238.255 292.773 236.311 290.004 234.538 287.063L200.641 287.063L159.785 287.169C153.345 287.175 146.245 287.4 139.845 287.054C135.866 287.248 131.762 287.113 127.777 287.06C127.445 286.97 127.137 286.856 126.834 286.692C125.848 286.158 125.157 285.125 124.892 284.052C124.495 282.445 124.619 279.977 125.539 278.583C126.147 277.663 126.809 277.278 127.876 277.076C136.892 276.814 145.941 277.326 154.958 277.037L176.682 277.04C180.514 277.037 184.455 276.842 188.278 277.069L188.259 258.627C192.387 258.592 196.514 258.582 200.642 258.598C200.669 255.815 200.672 253.032 200.65 250.248C200.603 247.804 200.718 245.343 200.711 242.896L200.688 238.233C199.919 237.53 199.208 236.827 198.519 236.044Z" fill="#944C9C"/>
<path d="M241.732 271.217C242.11 272.354 242.354 273.523 242.719 274.662C243.031 275.635 243.728 276.932 243.817 277.92C243.109 277.605 242.414 277.333 241.674 277.103C241.674 275.142 241.642 273.175 241.732 271.217Z" fill="#EEECF9"/>
<path d="M246.307 281.346C247.005 282.05 247.447 282.973 247.895 283.849C248.197 284.375 248.457 284.928 248.937 285.314C249.274 287.31 248.998 291.714 248.98 293.929L243.625 293.95C244.694 290.564 245.598 287.149 246.478 283.71C246.556 282.889 246.436 282.154 246.307 281.346Z" fill="#EEECF9"/>
<path d="M216.565 240.504L218.734 240.523L218.737 277.024L216.575 277.125C216.807 271.247 216.708 265.325 216.718 259.442C216.729 253.139 216.837 246.801 216.565 240.504Z" fill="#EEECF9"/>
<path d="M241.692 240.458C244.104 240.396 246.52 240.389 248.933 240.357C248.912 242.81 248.903 262.048 248.907 264.5C248.035 265.092 247.306 264.653 246.69 265.5C244.815 268.076 243.437 269.4 242.655 272.5C242.31 273.871 241.878 278.138 241.5 279.5C241.5 266.486 241.678 253.472 241.692 240.458Z" fill="#EEECF9"/>
<path d="M204.127 240.485L208.592 240.484L208.576 265.322C208.578 269.265 208.704 273.247 208.562 277.186C207.096 277.209 205.637 277.22 204.172 277.177C203.789 273.484 203.924 269.587 203.913 265.871C203.889 257.405 204.14 248.95 204.127 240.485Z" fill="#FEFEFE"/>
<path d="M211.667 240.473L218.565 240.504C217.5 253.999 217.042 265.298 216.575 277.125C215.008 277.168 213.44 277.138 211.872 277.123C211.746 274.225 211.784 271.304 211.766 268.401C211.709 259.106 211.953 249.761 211.667 240.473Z" fill="#FEFEFE"/>
<path d="M232.243 240.539C234.255 240.529 236.268 240.538 238.28 240.566L238.209 276.832C236.953 277.178 233.721 276.929 232.297 276.915L232.243 240.539Z" fill="#EEECF9"/>
<path d="M188.259 258.629C192.387 258.593 196.514 258.583 200.642 258.599C200.69 264.769 200.696 270.94 200.66 277.11C196.551 277.119 192.379 277.271 188.278 277.07L188.259 258.629Z" fill="#FEFEFE"/>
<path d="M222.159 240.486C224.411 240.461 226.663 240.451 228.915 240.457C228.997 244.632 228.911 248.818 228.904 252.995L228.867 277.044L222.151 277.065L222.159 240.486Z" fill="#EEECF9"/>
<path d="M252.543 289.182C258.199 295.299 264.545 300.309 273.283 300.64C273.397 300.645 273.511 300.647 273.625 300.647C273.775 302.973 273.707 305.337 273.73 307.669C273.762 311.55 273.827 315.431 273.924 319.312C273.969 321.486 273.969 323.687 274.189 325.852C271.619 324.251 267.989 324.846 265.06 324.846C265.93 322.19 267.103 318.971 267.149 316.174C267.178 314.394 266.564 312.564 265.282 311.3C262.834 308.886 257.999 309.636 254.774 309.604C255.97 305.915 257.83 301.45 256.213 297.635C256.171 297.532 256.125 297.429 256.077 297.328C256.029 297.226 255.979 297.126 255.926 297.027C255.873 296.928 255.817 296.831 255.759 296.734C255.701 296.638 255.641 296.543 255.579 296.45C255.516 296.357 255.451 296.266 255.384 296.176C255.317 296.086 255.247 295.998 255.176 295.911C255.104 295.825 255.031 295.74 254.955 295.657C254.879 295.574 254.801 295.494 254.721 295.415C254.642 295.336 254.56 295.259 254.476 295.184C254.393 295.109 254.307 295.037 254.22 294.966C254.133 294.895 254.044 294.827 253.953 294.761C253.862 294.695 253.77 294.631 253.676 294.57C253.582 294.508 253.487 294.449 253.39 294.392C253.293 294.335 253.195 294.281 253.096 294.229C252.996 294.178 252.895 294.128 252.793 294.081C252.691 294.034 252.588 293.99 252.484 293.949C252.482 292.373 252.41 290.75 252.543 289.182Z" fill="#EEECF9"/>
<g clip-path="url(#clip1_4572_23390)">
<path d="M51.0322 70.4074C50.6291 72.5523 48.6804 80.596 39.4075 79.3894C36.9213 79.0543 28.5219 77.6466 30.2017 64.7098C31.7472 52.5102 39.1387 52.1751 43.3048 52.7784C46.5302 53.1805 52.1746 54.8563 51.637 63.8384L45.2535 63.034C45.3879 59.0792 44.1783 58.0067 42.4313 57.7386C40.6842 57.4705 38.1308 57.9397 37.1228 65.112C36.6525 68.9327 36.5181 73.96 40.1466 74.4962C42.8344 74.8314 43.9096 72.2842 44.4471 69.603L51.0322 70.4074Z" fill="#3E3E3F"/>
<path d="M70.3169 54.9895C69.7122 54.9895 69.1074 55.0565 68.5027 55.1906C63.3286 55.9949 63.3958 60.687 64.2022 66.6528L65.7477 76.7743L59.0953 77.7128L55.4668 52.9115L62.0519 51.9061L62.5895 55.1235C63.1942 52.0401 65.2101 50.4984 68.637 49.9622L69.7122 49.8281L70.3169 54.9895Z" fill="#3E3E3F"/>
<path d="M71.8625 65.7155C71.9969 57.94 75.6927 52.3765 83.5545 52.5775C91.4163 52.7786 94.7089 58.5433 94.5073 66.3188C94.3057 74.1613 90.61 79.7249 82.8154 79.5238C75.0207 79.3227 71.661 73.5581 71.8625 65.7155ZM87.5862 66.1847C87.7878 58.9454 85.436 57.6719 83.3529 57.6719C81.2699 57.6719 78.918 58.7443 78.7165 65.9836C78.5149 73.357 80.8667 74.4965 82.8825 74.6305C84.8984 74.7646 87.3174 73.491 87.5862 66.1847Z" fill="#3E3E3F"/>
<path d="M97.9345 63.3025C98.808 55.594 102.974 50.3657 110.836 51.3041C118.698 52.2425 121.453 58.3423 120.445 65.9838C119.437 73.6252 115.271 78.9876 107.543 77.9822C99.8159 76.9767 96.9937 71.011 97.9345 63.3025ZM113.524 65.1794C114.397 58.0071 112.18 56.5325 110.164 56.2643C108.148 55.9962 105.662 56.9346 104.788 64.0399C103.848 71.3462 106.132 72.7538 108.148 73.0219C110.164 73.2901 112.65 72.4187 113.524 65.1794Z" fill="#3E3E3F"/>
<path d="M140.2 53.382L147.927 54.9237L138.117 63.0343L143.627 79.5908L136.034 78.0491L132.674 67.2572L130.658 69L129.113 76.7756L122.595 75.435L129.381 41.5176L135.967 42.7912L132.204 61.5597L140.2 53.382Z" fill="#3E3E3F"/>
<path d="M170.706 70.8082C169.43 78.4497 163.987 79.3881 160.291 79.5892C156.26 79.7903 149.137 79.0529 148.532 66.7193C148.062 58.1394 152.362 53.0451 159.418 52.643C163.853 52.4419 170.236 53.9836 170.908 66.049L170.975 67.4567L155.52 68.261C155.789 74.1597 158.477 74.763 160.358 74.6289C161.904 74.5619 163.449 74.0927 163.987 71.2774L170.706 70.8082ZM163.785 63.5019C163.382 58.4076 161.702 57.5362 159.485 57.6702C155.655 57.8713 155.319 62.0942 155.319 63.9711L163.785 63.5019Z" fill="#3E3E3F"/>
<path d="M191.067 20L171.177 36.6906L176.15 82.1372L203.364 85.1535L207.933 34.1434L191.067 20ZM200.206 78.1824L194.158 77.9143L194.091 73.6243L193.822 74.8309C192.68 77.1769 190.193 78.6516 187.573 78.4505C180.853 78.0483 178.367 71.8815 178.77 64.4412C179.173 58.0062 181.525 51.1021 189.051 51.5713C191.672 51.7054 192.881 52.5097 194.696 54.5877L195.233 43.3266L201.953 43.7288L200.206 78.1824Z" fill="#944C9C"/>
<path d="M190.529 56.7322C188.715 56.5981 186.094 57.8047 185.758 64.9099C185.624 68.0603 185.825 73.3557 189.656 73.5568C193.351 73.7579 194.292 69.1328 194.426 65.3791C194.762 58.2069 192.411 56.7322 190.529 56.7322Z" fill="#944C9C"/>
<path d="M195.233 43.3262L194.696 54.5873C192.881 52.5093 191.672 51.772 189.051 51.5709C181.592 51.1687 179.173 58.0729 178.77 64.4407C178.367 71.8811 180.853 78.0479 187.573 78.4501C190.193 78.6512 192.68 77.2436 193.822 74.8305L194.091 73.6239L194.158 77.9139L200.206 78.182L202.02 43.6613L195.233 43.3262ZM194.427 65.3792C194.225 69.1329 193.284 73.758 189.656 73.5569C185.826 73.3558 185.624 68.0604 185.759 64.91C186.162 57.8047 188.715 56.5982 190.529 56.7323C192.344 56.8663 194.763 58.2069 194.427 65.3792Z" fill="white"/>
<path d="M40.2809 102.716H38.8026L36.7196 95.2757H36.6524L34.5693 102.716H33.091L30.5376 94.4043H31.6799L33.763 101.778H33.8302L35.9804 94.4043H37.3915L39.5417 101.778H39.6089L41.692 94.4043H42.8343L40.2809 102.716Z" fill="#3E3E3F"/>
<path d="M49.9567 98.2907C49.9567 96.2798 49.4192 95.0732 47.7393 95.0732C46.5298 95.1403 45.4547 95.8776 44.9171 96.9501V102.715H43.9092V90.9844H44.9171V95.6095C45.6563 94.671 46.7314 94.1348 47.8737 94.2018C49.8224 94.2018 50.8975 95.3413 50.8975 97.5534V102.715H49.8895V98.2907H49.9567Z" fill="#3E3E3F"/>
<path d="M57.2138 102.045C58.1545 102.045 59.0281 101.777 59.9016 101.442V102.514C59.0281 102.849 58.0873 102.983 57.1466 102.983C54.2572 102.983 52.6445 101.107 52.6445 98.4924C52.6445 95.8783 54.3244 94.2695 56.609 94.2695C59.1625 94.2695 60.4392 95.9453 60.4392 98.4254V98.9617H53.7197C53.7197 100.906 55.4667 102.045 57.2138 102.045ZM53.7197 98.0232H59.4312C59.5656 96.5486 58.4905 95.275 57.0122 95.1409C56.8778 95.1409 56.7434 95.1409 56.609 95.1409C55.0636 95.0739 53.7197 96.3475 53.7197 98.0232Z" fill="#3E3E3F"/>
<path d="M63.2618 96.8173V102.716H62.2539V94.4042H63.2618V95.5437C63.9338 94.7394 64.8745 94.2702 65.8824 94.2031C66.2184 94.2031 66.5544 94.2031 66.8232 94.2702V95.2086C66.6216 95.1416 66.3528 95.1416 66.1512 95.1416C64.9417 95.0075 63.7322 95.6778 63.2618 96.8173Z" fill="#3E3E3F"/>
<path d="M71.9296 102.045C72.8704 102.045 73.7439 101.777 74.6174 101.442V102.514C73.7439 102.849 72.8032 102.983 71.8624 102.983C68.973 102.983 67.3604 101.107 67.3604 98.4924C67.3604 95.8783 69.0402 94.2695 71.3921 94.2695C73.9455 94.2695 75.155 95.9453 75.155 98.4254V98.9617H68.4355C68.4355 100.906 70.1826 102.045 71.9296 102.045ZM68.4355 98.0232H74.1471C74.2815 96.5486 73.1391 95.275 71.6608 95.1409C71.5936 95.1409 71.4593 95.1409 71.3921 95.1409C69.7794 95.0739 68.4355 96.3475 68.4355 98.0232Z" fill="#3E3E3F"/>
<path d="M81.606 90.9844H82.6139V92.459H81.606V90.9844ZM81.606 94.4029H82.6139V102.715H81.606V94.4029Z" fill="#3E3E3F"/>
<path d="M95.5153 97.4868C95.5153 96.3473 95.1793 95.1408 93.6338 95.1408C92.5587 95.2078 91.618 95.8111 91.2148 96.7495V102.782H90.2069V97.5538C90.2069 96.4143 89.8709 95.2078 88.3254 95.2078C87.1159 95.2078 86.1751 96.3473 85.9064 96.8165V102.849H84.8984V94.4034H85.9064V95.4759C86.5783 94.7386 87.5191 94.2694 88.527 94.2023C89.6021 94.1353 90.5428 94.7386 90.946 95.744C91.5508 94.8056 92.6259 94.2694 93.7682 94.2023C95.6497 94.2023 96.5904 95.3418 96.5904 97.0846V102.715H95.5825V97.4868H95.5153Z" fill="#3E3E3F"/>
<path d="M104.116 101.776C103.31 102.514 102.235 102.849 101.16 102.849C99.4126 102.849 98.2031 101.776 98.2031 100.235C98.2031 98.0225 100.622 97.4193 101.899 97.4193C102.638 97.4193 103.444 97.5533 104.116 97.7544V97.0841C104.116 95.6094 103.31 95.0062 101.63 95.0062C100.757 95.0062 99.883 95.3413 99.2111 95.8776V94.8721C100.017 94.4029 100.891 94.1348 101.832 94.1348C104.183 94.1348 105.124 95.2073 105.124 97.4863V102.648H104.116V101.776ZM102.235 98.2907C101.428 98.2907 99.3454 98.4917 99.3454 100.302C99.3454 101.441 100.421 101.977 101.361 101.977C102.436 101.91 103.444 101.508 104.183 100.704V98.6928C103.579 98.4917 102.907 98.3577 102.235 98.2907Z" fill="#3E3E3F"/>
<path d="M110.5 106C109.492 106 108.551 105.799 107.611 105.464V104.459C108.551 104.861 109.559 105.129 110.634 105.129C112.65 105.129 114.061 103.989 114.061 101.911V101.442C113.188 102.247 112.045 102.649 110.903 102.649C108.484 102.649 107.006 100.705 107.006 98.4929C106.939 96.2139 108.686 94.337 110.903 94.27C110.97 94.27 110.97 94.27 111.037 94.27C112.18 94.203 113.322 94.6722 114.061 95.4766V94.337H115.069V101.844C115.002 104.325 113.524 106 110.5 106ZM113.994 96.8172C113.457 95.7447 112.381 95.0744 111.172 95.0744C109.358 95.2755 108.014 97.0182 108.282 98.8281C108.484 100.37 109.694 101.509 111.172 101.71C112.314 101.643 113.322 101.107 113.994 100.236V96.8172Z" fill="#3E3E3F"/>
<path d="M117.219 90.9844H118.227V92.459H117.219V90.9844ZM117.219 94.4029H118.227V102.715H117.219V94.4029Z" fill="#3E3E3F"/>
<path d="M126.559 98.292C126.559 96.2811 126.022 95.0745 124.342 95.0745C123.132 95.1416 122.057 95.8789 121.52 96.9514V102.716H120.512V94.4042H121.52V95.5437H121.587C122.326 94.6723 123.401 94.2031 124.543 94.2031C126.492 94.2031 127.634 95.3426 127.634 97.5546V102.716H126.626V98.292H126.559Z" fill="#3E3E3F"/>
<path d="M135.16 101.776C134.287 102.514 133.279 102.849 132.204 102.849C130.457 102.849 129.247 101.776 129.247 100.235C129.247 98.0225 131.666 97.4193 132.943 97.4193C133.682 97.4193 134.488 97.5533 135.16 97.7544V97.0841C135.16 95.6094 134.354 95.0062 132.674 95.0062C131.8 95.0062 130.927 95.3413 130.255 95.8776V94.8721C131.061 94.4029 131.935 94.1348 132.876 94.1348C135.227 94.1348 136.168 95.2073 136.168 97.4863V102.648H135.16V101.776ZM133.279 98.2907C132.472 98.2907 130.322 98.4917 130.322 100.302C130.322 101.441 131.397 101.977 132.271 101.977C133.346 101.91 134.354 101.508 135.093 100.704V98.6928C134.555 98.4917 133.884 98.3577 133.279 98.2907Z" fill="#3E3E3F"/>
<path d="M138.924 100.37V95.2761H137.244V94.4047H138.924V92.3937L139.931 92.0586V94.4047H142.686V95.2761H139.931V100.236C139.931 101.309 140.267 102.046 141.611 102.046C141.947 102.046 142.35 101.979 142.686 101.912V102.783C142.216 102.918 141.813 102.985 141.343 102.985C139.73 102.918 138.924 101.979 138.924 100.37Z" fill="#3E3E3F"/>
<path d="M143.896 90.9844H144.904V92.459H143.896V90.9844ZM143.896 94.4029H144.904V102.715H143.896V94.4029Z" fill="#3E3E3F"/>
<path d="M151.086 102.917C148.667 102.917 146.718 100.906 146.785 98.4928C146.785 96.0797 148.801 94.1358 151.22 94.2029C153.639 94.2029 155.521 96.1467 155.521 98.5598C155.521 100.973 153.639 102.917 151.22 102.917C151.22 102.917 151.153 102.917 151.086 102.917ZM151.086 95.0743C149.204 95.0743 147.726 96.5489 147.726 98.4258C147.726 98.4928 147.726 98.4928 147.726 98.5598C147.793 100.437 149.339 101.844 151.22 101.777C153.102 101.71 154.513 100.169 154.446 98.2917C154.446 96.5489 152.9 95.0743 151.086 95.0743Z" fill="#3E3E3F"/>
<path d="M163.315 98.292C163.315 96.2811 162.778 95.0745 161.098 95.0745C159.888 95.1416 158.813 95.8789 158.276 96.9514V102.716H157.268V94.4042H158.276V95.5437C159.015 94.6723 160.09 94.2031 161.232 94.2031C163.181 94.2031 164.256 95.3426 164.256 97.5546V102.716H163.248L163.315 98.292Z" fill="#3E3E3F"/>
<path d="M175.209 102.917C174.066 102.984 172.924 102.515 172.05 101.711V105.799H171.042V94.4042H172.05V95.4767C172.924 94.6723 174.066 94.2031 175.276 94.2031C177.56 94.2031 179.375 96.08 179.375 98.359C179.375 98.426 179.375 98.426 179.375 98.4931C179.307 100.973 177.628 102.917 175.209 102.917ZM175.007 95.0745C173.865 95.1416 172.722 95.6778 171.983 96.5492V100.504C172.655 101.442 173.797 101.979 174.94 101.979C176.956 101.979 178.232 100.37 178.232 98.426C178.3 96.6833 176.956 95.2086 175.209 95.0745C175.209 95.0745 175.141 95.0745 175.007 95.0745Z" fill="#3E3E3F"/>
<path d="M182.197 90.9844H181.189V102.715H182.197V90.9844Z" fill="#3E3E3F"/>
<path d="M189.924 101.776C189.051 102.514 188.043 102.849 186.968 102.849C185.221 102.849 184.011 101.776 184.011 100.235C184.011 98.0225 186.43 97.4193 187.707 97.4193C188.446 97.4193 189.252 97.5533 189.924 97.7544V97.0841C189.924 95.6094 189.118 95.0062 187.438 95.0062C186.565 95.0062 185.691 95.3413 185.019 95.8776V94.8721C185.826 94.4029 186.699 94.1348 187.64 94.1348C189.992 94.1348 190.932 95.2073 190.932 97.4863V102.648H189.924V101.776ZM188.043 98.2907C187.237 98.2907 185.154 98.4917 185.154 100.302C185.154 101.441 186.229 101.977 187.102 101.977C188.177 101.91 189.185 101.508 189.924 100.704V98.6928C189.32 98.4917 188.648 98.3577 188.043 98.2907Z" fill="#3E3E3F"/>
<path d="M191.94 94.4043H193.15L195.838 101.308L198.526 94.4043H199.601L195.166 105.799H194.091L195.3 102.649L191.94 94.4043Z" fill="#3E3E3F"/>
<path d="M200.272 102.515V101.509C200.877 101.778 201.616 101.979 202.288 101.979C203.162 101.979 204.439 101.778 204.439 100.571C204.439 99.5656 203.296 99.2304 202.423 98.8282C201.28 98.292 200.272 97.6887 200.272 96.4151C200.272 95.1416 201.482 94.2031 203.229 94.2031C203.834 94.2031 204.506 94.3372 205.111 94.4712V95.4097C204.573 95.2086 203.968 95.0745 203.431 95.0745C202.49 95.0745 201.415 95.2756 201.415 96.3481C201.415 97.2195 202.02 97.4876 202.96 97.9568C204.17 98.5601 205.581 99.0963 205.581 100.437C205.581 102.113 204.17 102.917 202.624 102.917C201.818 102.917 201.079 102.783 200.272 102.515Z" fill="#3E3E3F"/>
</g>
<circle cx="284.5" cy="284.5" r="45.5" fill="#5B1B62"/>
<path d="M299.6 262L288.6 271.9V296.1L299.6 286.2V262ZM272.1 268.6C267.81 268.6 263.19 269.48 260 271.9V304.152C260 304.702 260.55 305.252 261.1 305.252C261.32 305.252 261.43 305.098 261.65 305.098C264.62 303.668 268.91 302.7 272.1 302.7C276.39 302.7 281.01 303.58 284.2 306C287.17 304.13 292.56 302.7 296.3 302.7C299.93 302.7 303.67 303.382 306.75 305.032C306.97 305.142 307.08 305.098 307.3 305.098C307.85 305.098 308.4 304.548 308.4 303.998V271.9C307.08 270.91 305.65 270.25 304 269.7V299.4C301.58 298.63 298.94 298.3 296.3 298.3C292.56 298.3 287.17 299.73 284.2 301.6V271.9C281.01 269.48 276.39 268.6 272.1 268.6Z" fill="white"/>
</g>
<defs>
<clipPath id="clip0_4572_23390">
<rect width="360" height="360" rx="8" fill="white"/>
</clipPath>
<clipPath id="clip1_4572_23390">
<rect width="178" height="86" fill="white" transform="translate(30 20)"/>
</clipPath>
</defs>
</svg>
