<svg width="360" height="360" viewBox="0 0 360 360" fill="none" xmlns="http://www.w3.org/2000/svg">
<g clip-path="url(#clip0_4657_23968)">
<rect width="360" height="360" rx="8" fill="#FFEAD6"/>
<rect x="321" y="285.883" width="64.5098" height="74.1176" fill="#C00000"/>
<path d="M364.922 295.491V279.02C364.922 273.714 360.62 269.412 355.314 269.412V269.412C350.008 269.412 345.706 273.714 345.706 279.02V295.491" stroke="#0E3F66" stroke-width="2"/>
<rect x="295" y="306" width="47" height="54" fill="#EA5921"/>
<rect x="342" y="306" width="4" height="54" fill="#A30303"/>
<path d="M327 313V301C327 297.134 323.866 294 320 294V294C316.134 294 313 297.134 313 301V313" stroke="#0E3F66" stroke-width="2"/>
<g clip-path="url(#clip1_4657_23968)">
<path d="M264.234 58.0924C261.673 58.0924 258.997 58.0924 256.372 58.0924C255.844 58.0632 255.32 57.9773 254.81 57.8363C254.218 57.7218 253.686 57.4023 253.306 56.9339C252.927 56.4654 252.725 55.8782 252.736 55.2755C252.733 53.4462 252.926 51.6218 253.312 49.8337C253.67 47.3881 254.093 44.9554 254.503 42.5226C254.583 42.0871 254.699 41.6589 254.848 41.2422C255.13 40.2717 255.725 39.4217 256.54 38.8242C257.355 38.2268 258.345 37.9155 259.355 37.9387C264.708 37.9387 270.06 37.9387 275.412 37.9387C276.054 37.9631 276.688 38.084 277.294 38.2972C277.836 38.464 278.307 38.8059 278.634 39.2693C278.961 39.7328 279.124 40.2915 279.099 40.858C279.018 42.3674 278.859 43.8717 278.626 45.3651C278.229 48.0668 277.781 50.7428 277.345 53.4317C277.243 54.0066 277.08 54.5689 276.859 55.109C276.536 55.9978 275.939 56.7609 275.154 57.288C274.369 57.8151 273.437 58.0788 272.492 58.0411C269.752 58.0411 267 58.0411 264.247 58.0411L264.234 58.0924ZM258.946 52.8171H271.34L272.902 42.9451H260.508L258.946 52.8171Z" fill="#EA5921"/>
<path d="M242.273 58.0655L243.976 47.3613L243.797 47.2077C243.694 47.3823 243.578 47.5492 243.451 47.707L236.87 54.9541C236.714 55.1351 236.547 55.3061 236.37 55.4663C236.194 55.6703 235.968 55.826 235.714 55.9185C235.461 56.011 235.188 56.0373 234.921 55.9951C234.655 55.9528 234.403 55.8432 234.191 55.6768C233.979 55.5103 233.812 55.2925 233.707 55.0438C232.273 52.6195 230.843 50.1867 229.418 47.7454L228.982 47.0284C228.829 47.9119 228.701 48.6289 228.586 49.3587C228.137 52.1372 227.702 54.9285 227.305 57.707C227.287 57.7922 227.248 57.8716 227.192 57.9385C227.137 58.0054 227.066 58.0578 226.985 58.0911C225.372 58.0911 223.758 58.0911 222.081 58.0911L225.295 37.8735C226.78 37.8735 228.253 37.8735 229.712 37.8735C230.09 38.0015 230.403 38.2728 230.583 38.6289C232.299 41.3562 233.989 44.1091 235.705 46.8491L236.755 48.5393C236.87 48.339 236.998 48.1465 237.139 47.9631C239.943 44.9157 242.76 41.8683 245.538 38.8082C245.821 38.4592 246.184 38.1846 246.597 38.0083C247.01 37.832 247.46 37.7593 247.907 37.7966C248.803 37.7966 249.699 37.7966 250.596 37.7966H251.223L250.506 42.3421L248.79 53.1744C248.56 54.6596 248.329 56.1321 248.086 57.6174C248.086 57.8735 248.086 58.1552 247.625 58.1423C245.961 58.1423 244.283 58.1423 242.619 58.1423C242.501 58.1288 242.385 58.1031 242.273 58.0655Z" fill="#EA5921"/>
<path d="M279.905 58.054C280.149 57.0937 280.341 56.1718 280.622 55.2628C280.724 54.9701 280.929 54.7245 281.198 54.5713C281.735 54.254 282.194 53.822 282.544 53.3062C282.894 52.7904 283.125 52.2037 283.222 51.588C284.067 47.9772 284.924 44.3665 285.782 40.7685C285.918 39.8649 286.388 39.0451 287.1 38.4714C287.811 37.8977 288.712 37.6116 289.624 37.6699C291.122 37.5675 292.62 37.5675 294.131 37.5547C296.589 37.5547 299.047 37.5547 301.506 37.5547C301.941 37.5547 302.376 37.5547 302.863 37.6443L299.624 58.054H294.22L296.781 42.1001H296.064C294.54 42.1001 293.017 42.1001 291.493 42.1001C291.393 42.0796 291.289 42.0812 291.189 42.1048C291.09 42.1284 290.996 42.1735 290.916 42.2369C290.835 42.3003 290.77 42.3805 290.724 42.4718C290.677 42.5632 290.651 42.6636 290.648 42.766C289.368 47.7211 288.164 52.6635 286.909 57.6059C286.909 57.7596 286.819 57.926 286.755 58.1053H279.905V58.054Z" fill="#EA5921"/>
<path d="M319.904 42.0615H318.624C317.267 42.0615 315.909 42.0615 314.552 42.0615C314.473 42.0468 314.392 42.0491 314.314 42.0684C314.236 42.0876 314.163 42.1232 314.1 42.173C314.037 42.2227 313.986 42.2853 313.949 42.3566C313.912 42.4279 313.891 42.5063 313.886 42.5865C312.606 47.5801 311.326 52.5737 310.045 57.5801C310.043 57.6597 310.023 57.7379 309.988 57.8092C309.952 57.8805 309.902 57.9433 309.84 57.9932C309.778 58.0431 309.706 58.079 309.628 58.0983C309.551 58.1176 309.47 58.1199 309.392 58.105C307.318 58.105 305.256 58.105 303.131 58.105C303.119 57.9559 303.119 57.806 303.131 57.6569C303.259 57.0807 303.425 56.5301 303.541 55.954C303.591 55.6114 303.722 55.2856 303.922 55.0031C304.123 54.7205 304.387 54.4892 304.693 54.3278C305.119 54.0559 305.481 53.6956 305.754 53.2714C306.028 52.8472 306.208 52.3691 306.281 51.8695C307.151 48.2203 308.009 44.5711 308.918 40.9476C309.031 39.9941 309.509 39.1214 310.252 38.5126C310.994 37.9038 311.943 37.6063 312.901 37.6825C314.962 37.5801 317.036 37.5929 319.111 37.5801C320.967 37.5801 322.811 37.5801 324.667 37.5801C325.077 37.5801 325.5 37.5801 325.948 37.6697L322.708 58.0794H317.331L319.904 42.0615Z" fill="#EA5921"/>
<path d="M264.234 58.0924C261.673 58.0924 258.997 58.0924 256.372 58.0924C255.844 58.0632 255.32 57.9773 254.81 57.8363C254.218 57.7218 253.686 57.4023 253.306 56.9339C252.927 56.4654 252.725 55.8782 252.736 55.2755C252.733 53.4462 252.926 51.6218 253.312 49.8337C253.67 47.3881 254.093 44.9554 254.503 42.5226C254.583 42.0871 254.699 41.6589 254.848 41.2422C255.13 40.2717 255.725 39.4217 256.54 38.8242C257.355 38.2268 258.345 37.9155 259.355 37.9387C264.708 37.9387 270.06 37.9387 275.412 37.9387C276.054 37.9631 276.688 38.084 277.294 38.2972C277.836 38.464 278.307 38.8059 278.634 39.2693C278.961 39.7328 279.124 40.2915 279.099 40.858C279.018 42.3674 278.859 43.8717 278.626 45.3651C278.229 48.0668 277.781 50.7428 277.345 53.4317C277.243 54.0066 277.08 54.5689 276.859 55.109C276.536 55.9978 275.939 56.7609 275.154 57.288C274.369 57.8151 273.437 58.0788 272.492 58.0411C269.752 58.0411 267 58.0411 264.247 58.0411L264.234 58.0924ZM258.946 52.8171H271.34L272.902 42.9451H260.508L258.946 52.8171Z" fill="#EA5921"/>
<path d="M242.273 58.0655L243.976 47.3613L243.797 47.2077C243.694 47.3823 243.578 47.5492 243.451 47.707L236.87 54.9541C236.714 55.1351 236.547 55.3061 236.37 55.4663C236.194 55.6703 235.968 55.826 235.714 55.9185C235.461 56.011 235.188 56.0373 234.921 55.9951C234.655 55.9528 234.403 55.8432 234.191 55.6768C233.979 55.5103 233.812 55.2925 233.707 55.0438C232.273 52.6195 230.843 50.1867 229.418 47.7454L228.982 47.0284C228.829 47.9119 228.701 48.6289 228.586 49.3587C228.137 52.1372 227.702 54.9285 227.305 57.707C227.287 57.7922 227.248 57.8716 227.192 57.9385C227.137 58.0054 227.066 58.0578 226.985 58.0911C225.372 58.0911 223.758 58.0911 222.081 58.0911L225.295 37.8735C226.78 37.8735 228.253 37.8735 229.712 37.8735C230.09 38.0015 230.403 38.2728 230.583 38.6289C232.299 41.3562 233.989 44.1091 235.705 46.8491L236.755 48.5393C236.87 48.339 236.998 48.1465 237.139 47.9631C239.943 44.9157 242.76 41.8683 245.538 38.8082C245.821 38.4592 246.184 38.1846 246.597 38.0083C247.01 37.832 247.46 37.7593 247.907 37.7966C248.803 37.7966 249.699 37.7966 250.596 37.7966H251.223L250.506 42.3421L248.79 53.1744C248.56 54.6596 248.329 56.1321 248.086 57.6174C248.086 57.8735 248.086 58.1552 247.625 58.1423C245.961 58.1423 244.283 58.1423 242.619 58.1423C242.501 58.1288 242.385 58.1031 242.273 58.0655Z" fill="#EA5921"/>
<path d="M279.905 58.054C280.149 57.0937 280.341 56.1718 280.622 55.2628C280.724 54.9701 280.929 54.7245 281.198 54.5713C281.735 54.254 282.194 53.822 282.544 53.3062C282.894 52.7904 283.125 52.2037 283.222 51.588C284.067 47.9772 284.924 44.3665 285.782 40.7685C285.918 39.8649 286.388 39.0451 287.1 38.4714C287.811 37.8977 288.712 37.6116 289.624 37.6699C291.122 37.5675 292.62 37.5675 294.131 37.5547C296.589 37.5547 299.047 37.5547 301.506 37.5547C301.941 37.5547 302.376 37.5547 302.863 37.6443L299.624 58.054H294.22L296.781 42.1001H296.064C294.54 42.1001 293.017 42.1001 291.493 42.1001C291.393 42.0796 291.289 42.0812 291.189 42.1048C291.09 42.1284 290.996 42.1735 290.916 42.2369C290.835 42.3003 290.77 42.3805 290.724 42.4718C290.677 42.5632 290.651 42.6636 290.648 42.766C289.368 47.7211 288.164 52.6635 286.909 57.6059C286.909 57.7596 286.819 57.926 286.755 58.1053H279.905V58.054Z" fill="#EA5921"/>
<path d="M319.904 42.0615H318.624C317.267 42.0615 315.909 42.0615 314.552 42.0615C314.473 42.0468 314.392 42.0491 314.314 42.0684C314.236 42.0876 314.163 42.1232 314.1 42.173C314.037 42.2227 313.986 42.2853 313.949 42.3566C313.912 42.4279 313.891 42.5063 313.886 42.5865C312.606 47.5801 311.326 52.5737 310.045 57.5801C310.043 57.6597 310.023 57.7379 309.988 57.8092C309.952 57.8805 309.902 57.9433 309.84 57.9932C309.778 58.0431 309.706 58.079 309.628 58.0983C309.551 58.1176 309.47 58.1199 309.392 58.105C307.318 58.105 305.256 58.105 303.131 58.105C303.119 57.9559 303.119 57.806 303.131 57.6569C303.259 57.0807 303.425 56.5301 303.541 55.954C303.591 55.6114 303.722 55.2856 303.922 55.0031C304.123 54.7205 304.387 54.4892 304.693 54.3278C305.119 54.0559 305.481 53.6956 305.754 53.2714C306.028 52.8472 306.208 52.3691 306.281 51.8695C307.151 48.2203 308.009 44.5711 308.918 40.9476C309.031 39.9941 309.509 39.1214 310.252 38.5126C310.994 37.9038 311.943 37.6063 312.901 37.6825C314.962 37.5801 317.036 37.5929 319.111 37.5801C320.967 37.5801 322.811 37.5801 324.667 37.5801C325.077 37.5801 325.5 37.5801 325.948 37.6697L322.708 58.0794H317.331L319.904 42.0615Z" fill="#EA5921"/>
<path d="M170.469 37.9009C169.687 39.3222 168.958 40.641 168.228 41.947C168.029 42.2467 167.748 42.4832 167.419 42.6284C167.09 42.7737 166.727 42.8216 166.371 42.7665C162.53 42.7665 158.689 42.7665 154.848 42.7665C154.75 42.74 154.647 42.7371 154.548 42.758C154.449 42.7789 154.356 42.8231 154.277 42.8868C154.199 42.9506 154.136 43.0321 154.095 43.1247C154.054 43.2173 154.035 43.3184 154.041 43.4195C154.041 43.9445 153.9 44.4566 153.81 45.1097H154.873C158.189 45.1097 161.506 45.1097 164.822 45.1097C165.554 45.1368 166.28 45.2485 166.986 45.4426C167.54 45.5711 168.03 45.8905 168.372 46.3447C168.714 46.7989 168.885 47.3589 168.855 47.9266C168.873 50.4562 168.467 52.9709 167.652 55.3657C167.484 55.8939 167.19 56.3731 166.795 56.7614C166.4 57.1498 165.916 57.4355 165.385 57.5937C164.559 57.8754 163.697 58.035 162.824 58.0674C157.344 58.0674 151.864 58.0674 146.384 58.0674C145.705 58.0674 145.693 58.0674 145.808 57.3248C146.346 53.9872 146.875 50.6496 147.396 47.312C147.882 44.2774 148.356 41.2428 148.83 38.2082C148.894 37.7729 149.188 37.8241 149.47 37.8241H170.404L170.469 37.9009ZM152.466 53.1634H152.978H161.723C161.812 53.1809 161.904 53.178 161.992 53.1548C162.08 53.1317 162.162 53.0889 162.231 53.0298C162.3 52.9706 162.354 52.8967 162.391 52.8134C162.427 52.7301 162.444 52.6396 162.44 52.5488C162.44 51.947 162.645 51.3581 162.735 50.7691C162.824 50.1801 162.735 50.0264 162.069 50.0264H157.447C156.166 50.0264 154.771 50.0264 153.439 50.0264C153.337 50.0318 153.237 50.0613 153.148 50.1124C153.059 50.1636 152.983 50.235 152.927 50.3209C152.76 51.2556 152.62 52.1775 152.466 53.1634Z" fill="#245D89"/>
<path d="M193.452 52.9199L192.902 56.5179C192.825 56.8555 192.769 57.1976 192.735 57.5422C192.747 57.6242 192.738 57.7077 192.709 57.7853C192.68 57.8629 192.632 57.9321 192.57 57.9867C192.508 58.0413 192.433 58.0796 192.352 58.0981C192.272 58.1166 192.188 58.1148 192.108 58.0928H171.839C171.928 57.4142 172.005 56.8124 172.108 56.2106C173.055 50.2353 174.003 44.2601 174.95 38.2848C175.014 37.8751 175.245 37.9007 175.526 37.9007H195.616C195.514 38.5793 195.437 39.1811 195.347 39.7957C195.219 40.6024 195.04 41.409 194.963 42.2285C194.963 42.715 194.694 42.7663 194.284 42.7663C192.838 42.7663 191.391 42.7663 189.944 42.7663C186.922 42.7663 183.9 42.7663 180.866 42.7663C180.779 42.7455 180.688 42.7458 180.601 42.7672C180.514 42.7886 180.433 42.8305 180.365 42.8893C180.298 42.9482 180.245 43.0223 180.212 43.1056C180.179 43.1888 180.166 43.2788 180.174 43.3681C180.174 43.7266 180.085 44.0979 180.008 44.4564C179.893 45.1222 179.905 45.1478 180.558 45.1606H188.382L187.614 50.0646H187.025C184.617 50.0646 182.223 50.0646 179.816 50.0646C179.304 50.0646 179.06 50.1542 179.022 50.7176C178.984 51.281 178.817 52.1517 178.689 52.9583H193.452V52.9199Z" fill="#245D89"/>
<path d="M120.75 58.0924C120.84 57.4522 120.916 56.812 121.019 56.159C121.821 51.3446 122.585 46.526 123.311 41.7032C123.49 40.5636 123.657 39.424 123.874 38.2973C123.903 38.2051 123.954 38.1217 124.024 38.0545C124.093 37.9874 124.178 37.9388 124.271 37.9131C125.948 37.9131 127.639 37.9131 129.393 37.9131L127.536 49.6545H127.651L128.087 49.2832C131.8 45.8133 135.526 42.369 139.214 38.8862C139.557 38.5319 139.973 38.2549 140.432 38.0738C140.891 37.8928 141.384 37.8118 141.877 37.8363C142.747 37.8363 143.631 37.8363 144.591 37.8363C144.489 38.5661 144.412 39.2064 144.31 39.8594C143.618 44.2128 142.927 48.5619 142.235 52.9067C141.979 54.4944 141.736 56.0822 141.454 57.6699C141.431 57.7549 141.387 57.8331 141.327 57.8977C141.267 57.9623 141.192 58.0115 141.109 58.0412C139.444 58.0412 137.767 58.0412 136.102 58.0412C136.038 58.0213 135.977 57.991 135.923 57.9515L137.767 46.2486C137.523 46.4279 137.408 46.5047 137.306 46.5943C133.464 50.2051 129.508 53.8286 125.59 57.4138C125.235 57.7415 124.788 57.9517 124.31 58.0156C123.221 58.1692 122.03 58.0924 120.75 58.0924Z" fill="#245D89"/>
<path d="M196.461 58.0545L197.012 54.5205L198.599 44.5077C198.932 42.4335 199.265 40.3592 199.585 38.2849C199.585 38.2224 199.599 38.1607 199.627 38.1045C199.654 38.0483 199.694 37.9992 199.744 37.9609C199.793 37.9226 199.851 37.8961 199.912 37.8834C199.973 37.8708 200.037 37.8724 200.097 37.888H203.337C207.831 37.888 212.3 37.888 216.807 37.888C217.535 37.9094 218.255 38.0389 218.945 38.2721C219.541 38.4507 220.052 38.8403 220.382 39.3682C220.712 39.896 220.838 40.526 220.737 41.1403C220.456 43.2401 220.136 45.34 219.739 47.4143C219.557 48.3516 219.058 49.1979 218.326 49.8111C217.594 50.4242 216.673 50.7669 215.718 50.7817C211.941 50.8714 208.164 50.8714 204.399 50.897C203.503 50.897 203.516 50.897 203.388 51.7933C203.081 53.7651 202.748 55.7241 202.44 57.6959C202.445 57.7548 202.436 57.8138 202.415 57.8688C202.393 57.9238 202.36 57.9733 202.317 58.0138C202.274 58.0543 202.223 58.0847 202.166 58.1028C202.11 58.1209 202.051 58.1263 201.992 58.1185H196.717C196.63 58.1055 196.544 58.0841 196.461 58.0545ZM204.31 45.9674H204.899H211.16C212.005 45.9674 212.837 45.9034 213.721 45.9034C213.802 45.9106 213.883 45.9007 213.96 45.8742C214.037 45.8477 214.107 45.8052 214.167 45.7496C214.226 45.6939 214.273 45.6264 214.304 45.5514C214.335 45.4764 214.35 45.3956 214.348 45.3144C214.348 44.9047 214.476 44.4821 214.553 44.034C214.796 42.7536 214.745 42.7536 213.465 42.7536H205.385H204.848L204.31 45.9674Z" fill="#245D89"/>
<path d="M118.791 58.0656C116.14 58.0656 113.669 58.0656 111.108 58.0656C110.866 58.0184 110.651 57.8811 110.506 57.6814C108.727 55.5688 106.96 53.4305 105.193 51.2794L104.719 50.7288C104.553 51.7147 104.399 52.5726 104.271 53.4305C104.04 54.8389 103.836 56.2474 103.592 57.6558C103.569 57.7395 103.525 57.8161 103.465 57.8787C103.404 57.9413 103.329 57.9879 103.247 58.0143C101.62 58.0143 99.9943 58.0143 98.2529 58.0143C98.3426 57.3229 98.4194 56.7339 98.5218 56.0553C98.8718 53.8274 99.2303 51.5995 99.5974 49.3716C99.9644 47.1437 100.319 44.9542 100.66 42.8031C100.903 41.3178 101.147 39.8197 101.352 38.3216C101.342 38.237 101.353 38.1513 101.383 38.0715C101.412 37.9916 101.46 37.9197 101.522 37.8614C101.584 37.8031 101.659 37.7599 101.74 37.7354C101.822 37.7108 101.908 37.7055 101.992 37.7198C103.541 37.7198 105.103 37.7198 106.755 37.7198L105.692 44.5188C105.961 44.3012 106.115 44.1859 106.243 44.0451C108.266 42.0732 110.289 40.1014 112.286 38.1168C112.414 37.9782 112.571 37.8696 112.746 37.7987C112.921 37.7279 113.109 37.6966 113.298 37.707C115.295 37.707 117.293 37.707 119.29 37.707H119.943C119.687 37.9759 119.533 38.168 119.354 38.3216L110.391 46.9644C109.777 47.5534 109.751 47.4254 110.302 48.0784L117.984 57.0412L118.791 58.0656Z" fill="#245D89"/>
<path d="M170.469 37.9009C169.687 39.3222 168.958 40.641 168.228 41.947C168.029 42.2467 167.748 42.4832 167.419 42.6284C167.09 42.7737 166.727 42.8216 166.371 42.7665C162.53 42.7665 158.689 42.7665 154.848 42.7665C154.75 42.74 154.647 42.7371 154.548 42.758C154.449 42.7789 154.356 42.8231 154.277 42.8868C154.199 42.9506 154.136 43.0321 154.095 43.1247C154.054 43.2173 154.035 43.3184 154.041 43.4195C154.041 43.9445 153.9 44.4566 153.81 45.1097H154.873C158.189 45.1097 161.506 45.1097 164.822 45.1097C165.554 45.1368 166.28 45.2485 166.986 45.4426C167.54 45.5711 168.03 45.8905 168.372 46.3447C168.714 46.7989 168.885 47.3589 168.855 47.9266C168.873 50.4562 168.467 52.9709 167.652 55.3657C167.484 55.8939 167.19 56.3731 166.795 56.7614C166.4 57.1498 165.916 57.4355 165.385 57.5937C164.559 57.8754 163.697 58.035 162.824 58.0674C157.344 58.0674 151.864 58.0674 146.384 58.0674C145.705 58.0674 145.693 58.0674 145.808 57.3248C146.346 53.9872 146.875 50.6496 147.396 47.312C147.882 44.2774 148.356 41.2428 148.83 38.2082C148.894 37.7729 149.188 37.8241 149.47 37.8241H170.404L170.469 37.9009ZM152.466 53.1634H152.978H161.723C161.812 53.1809 161.904 53.178 161.992 53.1548C162.08 53.1317 162.162 53.0889 162.231 53.0298C162.3 52.9706 162.354 52.8967 162.391 52.8134C162.427 52.7301 162.444 52.6396 162.44 52.5488C162.44 51.947 162.645 51.3581 162.735 50.7691C162.824 50.1801 162.735 50.0264 162.069 50.0264H157.447C156.166 50.0264 154.771 50.0264 153.439 50.0264C153.337 50.0318 153.237 50.0613 153.148 50.1124C153.059 50.1636 152.983 50.235 152.927 50.3209C152.76 51.2556 152.62 52.1775 152.466 53.1634Z" fill="#245D89"/>
<path d="M193.452 52.9199L192.902 56.5179C192.825 56.8555 192.769 57.1976 192.735 57.5422C192.747 57.6242 192.738 57.7077 192.709 57.7853C192.68 57.8629 192.632 57.9321 192.57 57.9867C192.508 58.0413 192.433 58.0796 192.352 58.0981C192.272 58.1166 192.188 58.1148 192.108 58.0928H171.839C171.928 57.4142 172.005 56.8124 172.108 56.2106C173.055 50.2353 174.003 44.2601 174.95 38.2848C175.014 37.8751 175.245 37.9007 175.526 37.9007H195.616C195.514 38.5793 195.437 39.1811 195.347 39.7957C195.219 40.6024 195.04 41.409 194.963 42.2285C194.963 42.715 194.694 42.7663 194.284 42.7663C192.838 42.7663 191.391 42.7663 189.944 42.7663C186.922 42.7663 183.9 42.7663 180.866 42.7663C180.779 42.7455 180.688 42.7458 180.601 42.7672C180.514 42.7886 180.433 42.8305 180.365 42.8893C180.298 42.9482 180.245 43.0223 180.212 43.1056C180.179 43.1888 180.166 43.2788 180.174 43.3681C180.174 43.7266 180.085 44.0979 180.008 44.4564C179.893 45.1222 179.905 45.1478 180.558 45.1606H188.382L187.614 50.0646H187.025C184.617 50.0646 182.223 50.0646 179.816 50.0646C179.304 50.0646 179.06 50.1542 179.022 50.7176C178.984 51.281 178.817 52.1517 178.689 52.9583H193.452V52.9199Z" fill="#245D89"/>
<path d="M120.75 58.0924C120.84 57.4522 120.916 56.812 121.019 56.159C121.821 51.3446 122.585 46.526 123.311 41.7032C123.49 40.5636 123.657 39.424 123.874 38.2973C123.903 38.2051 123.954 38.1217 124.024 38.0545C124.093 37.9874 124.178 37.9388 124.271 37.9131C125.948 37.9131 127.639 37.9131 129.393 37.9131L127.536 49.6545H127.651L128.087 49.2832C131.8 45.8133 135.526 42.369 139.214 38.8862C139.557 38.5319 139.973 38.2549 140.432 38.0738C140.891 37.8928 141.384 37.8118 141.877 37.8363C142.747 37.8363 143.631 37.8363 144.591 37.8363C144.489 38.5661 144.412 39.2064 144.31 39.8594C143.618 44.2128 142.927 48.5619 142.235 52.9067C141.979 54.4944 141.736 56.0822 141.454 57.6699C141.431 57.7549 141.387 57.8331 141.327 57.8977C141.267 57.9623 141.192 58.0115 141.109 58.0412C139.444 58.0412 137.767 58.0412 136.102 58.0412C136.038 58.0213 135.977 57.991 135.923 57.9515L137.767 46.2486C137.523 46.4279 137.408 46.5047 137.306 46.5943C133.464 50.2051 129.508 53.8286 125.59 57.4138C125.235 57.7415 124.788 57.9517 124.31 58.0156C123.221 58.1692 122.03 58.0924 120.75 58.0924Z" fill="#245D89"/>
<path d="M196.461 58.0545L197.012 54.5205L198.599 44.5077C198.932 42.4335 199.265 40.3592 199.585 38.2849C199.585 38.2224 199.599 38.1607 199.627 38.1045C199.654 38.0483 199.694 37.9992 199.744 37.9609C199.793 37.9226 199.851 37.8961 199.912 37.8834C199.973 37.8708 200.037 37.8724 200.097 37.888H203.337C207.831 37.888 212.3 37.888 216.807 37.888C217.535 37.9094 218.255 38.0389 218.945 38.2721C219.541 38.4507 220.052 38.8403 220.382 39.3682C220.712 39.896 220.838 40.526 220.737 41.1403C220.456 43.2401 220.136 45.34 219.739 47.4143C219.557 48.3516 219.058 49.1979 218.326 49.8111C217.594 50.4242 216.673 50.7669 215.718 50.7817C211.941 50.8714 208.164 50.8714 204.399 50.897C203.503 50.897 203.516 50.897 203.388 51.7933C203.081 53.7651 202.748 55.7241 202.44 57.6959C202.445 57.7548 202.436 57.8138 202.415 57.8688C202.393 57.9238 202.36 57.9733 202.317 58.0138C202.274 58.0543 202.223 58.0847 202.166 58.1028C202.11 58.1209 202.051 58.1263 201.992 58.1185H196.717C196.63 58.1055 196.544 58.0841 196.461 58.0545ZM204.31 45.9674H204.899H211.16C212.005 45.9674 212.837 45.9034 213.721 45.9034C213.802 45.9106 213.883 45.9007 213.96 45.8742C214.037 45.8477 214.107 45.8052 214.167 45.7496C214.226 45.6939 214.273 45.6264 214.304 45.5514C214.335 45.4764 214.35 45.3956 214.348 45.3144C214.348 44.9047 214.476 44.4821 214.553 44.034C214.796 42.7536 214.745 42.7536 213.465 42.7536H205.385H204.848L204.31 45.9674Z" fill="#245D89"/>
<path d="M118.791 58.0656C116.14 58.0656 113.669 58.0656 111.108 58.0656C110.866 58.0184 110.651 57.8811 110.506 57.6814C108.727 55.5688 106.96 53.4305 105.193 51.2794L104.719 50.7288C104.553 51.7147 104.399 52.5726 104.271 53.4305C104.04 54.8389 103.836 56.2474 103.592 57.6558C103.569 57.7395 103.525 57.8161 103.465 57.8787C103.404 57.9413 103.329 57.9879 103.247 58.0143C101.62 58.0143 99.9943 58.0143 98.2529 58.0143C98.3426 57.3229 98.4194 56.7339 98.5218 56.0553C98.8718 53.8274 99.2303 51.5995 99.5974 49.3716C99.9644 47.1437 100.319 44.9542 100.66 42.8031C100.903 41.3178 101.147 39.8197 101.352 38.3216C101.342 38.237 101.353 38.1513 101.383 38.0715C101.412 37.9916 101.46 37.9197 101.522 37.8614C101.584 37.8031 101.659 37.7599 101.74 37.7354C101.822 37.7108 101.908 37.7055 101.992 37.7198C103.541 37.7198 105.103 37.7198 106.755 37.7198L105.692 44.5188C105.961 44.3012 106.115 44.1859 106.243 44.0451C108.266 42.0732 110.289 40.1014 112.286 38.1168C112.414 37.9782 112.571 37.8696 112.746 37.7987C112.921 37.7279 113.109 37.6966 113.298 37.707C115.295 37.707 117.293 37.707 119.29 37.707H119.943C119.687 37.9759 119.533 38.168 119.354 38.3216L110.391 46.9644C109.777 47.5534 109.751 47.4254 110.302 48.0784L117.984 57.0412L118.791 58.0656Z" fill="#245D89"/>
<path d="M83.9514 59.7325C84.5402 59.3516 84.9895 58.79 85.2319 58.1319C85.3514 57.8165 85.3947 57.4773 85.3581 57.142C85.3215 56.8066 85.2061 56.4847 85.0213 56.2025C84.8365 55.9203 84.5875 55.6858 84.2948 55.5182C84.002 55.3506 83.6738 55.2547 83.3368 55.2382C82.6304 55.2148 81.9339 55.41 81.3426 55.7973C80.7514 56.1847 80.2941 56.7451 80.0334 57.4021C79.9138 57.7175 79.8706 58.0568 79.9072 58.3921C79.9438 58.7274 80.0592 59.0494 80.244 59.3316C80.4288 59.6138 80.6777 59.8482 80.9705 60.0158C81.2632 60.1834 81.5915 60.2794 81.9284 60.2958C82.6466 60.3379 83.3584 60.1397 83.9514 59.7325Z" fill="#245D89"/>
<path d="M65.9104 65.7618C66.4992 65.3809 66.9485 64.8193 67.1908 64.1612C67.3104 63.8458 67.3537 63.5066 67.3171 63.1713C67.2805 62.8359 67.1651 62.514 66.9803 62.2318C66.7955 61.9496 66.5465 61.7151 66.2538 61.5475C65.961 61.3799 65.6328 61.284 65.2958 61.2675C64.5894 61.2441 63.8929 61.4393 63.3016 61.8266C62.7103 62.2139 62.2531 62.7744 61.9924 63.4314C61.8728 63.7468 61.8295 64.0861 61.8661 64.4214C61.9027 64.7567 62.0182 65.0787 62.203 65.3609C62.3878 65.6431 62.6367 65.8775 62.9295 66.0451C63.2222 66.2127 63.5505 66.3087 63.8874 66.3251C64.6056 66.3672 65.3173 66.169 65.9104 65.7618Z" fill="#245D89"/>
<path d="M28.3688 50.2701L26 47.6581L37.8822 45.2765C38.2409 45.1222 38.6446 45.109 39.0126 45.2396C39.3805 45.3702 39.6856 45.6349 39.8668 45.9807L28.3688 50.2701Z" fill="#245D89"/>
<path d="M39.5977 50.4855L41.147 51.7659L44.8986 49.8325C45.1374 49.663 45.3108 49.4167 45.39 49.1348C45.4693 48.8529 45.4494 48.5523 45.3339 48.2832L39.5977 50.4855Z" fill="#245D89"/>
<path fill-rule="evenodd" clip-rule="evenodd" d="M39.8803 64.3413C40.0081 63.7657 40.1663 63.1973 40.354 62.6384C38.8362 62.7372 37.3136 62.7372 35.7958 62.6384C36.2439 61.1915 39.637 60.0775 39.637 60.0775L38.1133 58.8868C38.1133 58.8868 41.9545 58.0033 43.2349 60.0135C44.5153 62.0238 42.902 63.2914 39.8803 64.3413ZM45.0019 58.285C41.9161 53.253 33.2733 57.4783 33.2733 57.4783L36.1543 58.4002C33.5341 60.8405 30.5968 62.9164 27.4219 64.5718C29.765 65.0455 37.4091 65.2888 37.4091 65.2888C37.1645 66.5461 36.6001 67.7191 35.7701 68.6947C45.4244 66.2235 48.0877 63.2914 44.9891 58.285H45.0019Z" fill="#F06022"/>
<path d="M45.7705 55.2991L48.7411 54.582L50.8409 60.4719L48.088 61.8035L45.7705 55.2991Z" fill="#245D89"/>
<path d="M72.4658 49.1278C71.1854 45.5555 65.8973 44.1727 61.2366 45.8372C57.2355 47.4909 53.3807 49.4782 49.7129 51.7783L53.17 61.4582C57.4631 60.9754 61.6996 60.0792 65.8204 58.7821C71.0957 56.8871 73.7334 52.713 72.4658 49.1278ZM52.7987 53.1355C52.7987 53.1355 54.348 52.1624 56.1534 51.2149C56.1612 51.6689 56.1954 52.1221 56.2558 52.5721L53.0292 53.8526L52.7987 53.1355ZM53.6181 55.4275L56.6143 54.3263C56.7167 54.6848 56.832 55.0433 56.9728 55.389L53.9126 56.2853L53.6181 55.4275ZM54.7321 58.5517L54.4888 57.873L57.7411 56.8871C57.9505 57.2464 58.1814 57.5927 58.4325 57.9243C56.435 58.3724 54.7321 58.5517 54.7321 58.5517ZM69.7001 51.1253C68.1061 50.1864 66.3298 49.5991 64.4904 49.4025C62.6509 49.206 60.7907 49.4048 59.0343 49.9857C58.616 50.1223 58.1892 50.2759 57.7539 50.4467C59.6242 49.2791 61.5903 48.2725 63.6309 47.4377C66.1918 46.5414 68.9574 47.284 69.6489 49.1919C69.8824 49.8117 69.9049 50.4913 69.7129 51.1253H69.7001Z" fill="#245D89"/>
<path d="M50.2388 48.8344C51.4167 48.143 53.0813 47.1827 54.8866 46.2736L52.377 42.8037C51.6824 41.9095 50.9386 41.0546 50.1491 40.2429C49.3961 39.4446 48.5686 38.72 47.6779 38.079C46.8149 37.437 45.8434 36.9556 44.8098 36.6577C42.4667 36.0431 38.6254 36.6577 36.3335 36.773L33.2861 36.9907L37.3706 41.2928L38.8047 41.1904C40.1418 41.1237 41.4822 41.1665 42.8124 41.3184C43.5696 41.6052 44.2618 42.0405 44.8482 42.5988C46.0693 43.6127 47.1692 44.7641 48.1261 46.0303C48.2029 46.1968 49.048 47.3364 50.2388 48.8344Z" fill="#245D89"/>
<path d="M88.2789 46.5429L86.2815 34.6607C85.9998 32.8553 85.5389 30 85.5389 30L54.873 40.2433C54.873 40.2433 57.0369 42.5864 58.1765 43.9437L70.1611 39.6543L71.1214 42.1127L68.2533 43.2138C69.0407 43.397 69.8051 43.6676 70.5325 44.0205L71.6848 43.5851L72.2866 45.1344C73.3609 45.9741 74.181 47.0956 74.6554 48.3739C75.1376 49.85 75.2089 51.4296 74.8615 52.9432C74.5141 54.4568 73.7612 55.8473 72.6835 56.9654L80.5068 54.1869H80.5709C83.4518 53.0474 84.7578 52.484 85.6925 52.023C88.6503 50.5634 88.6503 48.8348 88.2789 46.5429ZM81.0574 35.7875L81.5056 38.233L78.0869 39.5134L77.4083 37.0679L81.0574 35.7875ZM71.6208 39.1421L75.9358 37.6825L76.576 40.1665L72.5683 41.5877L71.6208 39.1421ZM74.2713 45.9539L73.1445 43.0474L76.9217 41.6261L77.7028 44.6607L74.2713 45.9539ZM75.9358 50.2689L74.8346 47.4136L78.0741 46.1332L78.8423 49.2061L75.9358 50.2689ZM78.4198 41.0499L81.736 39.7695L82.3378 42.9065L79.2136 44.0845L78.4198 41.0499ZM80.3532 48.6044L79.585 45.6082L82.5939 44.4686L83.1573 47.5416L80.3532 48.6044Z" fill="#245D89"/>
</g>
<path d="M65 208C65 203.582 68.5817 200 73 200H295C299.418 200 303 203.582 303 208V360H65V208Z" fill="#245D89"/>
<path d="M73 212C73 209.791 74.7909 208 77 208H291C293.209 208 295 209.791 295 212V336C295 338.209 293.209 340 291 340H77C74.7909 340 73 338.209 73 336V212Z" fill="#92B8D5"/>
<path fill-rule="evenodd" clip-rule="evenodd" d="M163 348H55C55 354.627 60.3726 360 67 360H301C307.627 360 313 354.627 313 348H205C205 350.761 202.761 353 200 353H168C165.239 353 163 350.761 163 348Z" fill="#0E3F66"/>
<path d="M-3 312H75V364H-3V312Z" fill="#EA5921"/>
<rect x="29" y="312" width="14" height="52" fill="white"/>
<rect x="-3" y="312" width="78" height="5" fill="#470000" fill-opacity="0.3"/>
<path d="M37 297.5C37 292 42 277.654 52 281.5C58.5 284 54.8333 295 50 300.5" stroke="#C00000" stroke-width="6"/>
<path d="M35.5 297.5C35.5 292 30.5 277.654 20.5 281.5C14 284 17.6667 295 22.5 300.5" stroke="#C00000" stroke-width="6"/>
<rect x="-7" y="297" width="86" height="15" fill="#EA5921"/>
<rect x="29" y="297" width="14" height="15" fill="white"/>
<path d="M87 98C87 93.5817 90.5817 90 95 90H275C279.418 90 283 93.5817 283 98V340H87V98Z" fill="white"/>
<path d="M87 98C87 93.5817 90.5817 90 95 90H275C279.418 90 283 93.5817 283 98V109H87V98Z" fill="#245D89"/>
<circle cx="96" cy="100" r="2" fill="white"/>
<circle cx="103" cy="100" r="2" fill="white"/>
<circle cx="110" cy="100" r="2" fill="white"/>
<rect x="98" y="119" width="12" height="2" rx="1" fill="#D1E7F8"/>
<rect x="117" y="119" width="154" height="10" rx="4" fill="#D1E7F8"/>
<rect x="98" y="135" width="78" height="45" rx="4" fill="#D1E7F8"/>
<rect x="98" y="194" width="78" height="68" rx="4" fill="#245D89"/>
<rect x="191" y="194" width="78" height="68" rx="4" fill="#245D89"/>
<path d="M98 280C98 277.791 99.7909 276 102 276H172C174.209 276 176 277.791 176 280V340H98V280Z" fill="#245D89"/>
<path d="M98 280C98 277.791 99.7909 276 102 276H172C174.209 276 176 277.791 176 280V340H98V280Z" fill="url(#paint0_linear_4657_23968)"/>
<path d="M191 280C191 277.791 192.791 276 195 276H265C267.209 276 269 277.791 269 280V340H191V280Z" fill="#245D89"/>
<path d="M191 280C191 277.791 192.791 276 195 276H265C267.209 276 269 277.791 269 280V340H191V280Z" fill="url(#paint1_linear_4657_23968)"/>
<rect x="98" y="123" width="12" height="2" rx="1" fill="#D1E7F8"/>
<rect x="98" y="127" width="12" height="2" rx="1" fill="#D1E7F8"/>
<rect x="191" y="137" width="80" height="2" rx="1" fill="#D1E7F8"/>
<rect x="191" y="149" width="76" height="2" rx="1" fill="#D1E7F8"/>
<rect x="191" y="161" width="68" height="2" rx="1" fill="#D1E7F8"/>
<rect x="191" y="173" width="80" height="2" rx="1" fill="#D1E7F8"/>
<rect x="191" y="141" width="70" height="2" rx="1" fill="#D1E7F8"/>
<rect x="191" y="153" width="80" height="2" rx="1" fill="#D1E7F8"/>
<rect x="191" y="165" width="80" height="2" rx="1" fill="#D1E7F8"/>
<rect x="191" y="177" width="55" height="2" rx="1" fill="#D1E7F8"/>
<rect x="191" y="145" width="80" height="2" rx="1" fill="#D1E7F8"/>
<rect x="191" y="157" width="70" height="2" rx="1" fill="#D1E7F8"/>
<rect x="191" y="169" width="80" height="2" rx="1" fill="#D1E7F8"/>
<circle cx="290" cy="186" r="36" fill="#FF7039"/>
<path d="M282.167 191.059H298.667C299.675 191.059 300.5 191.879 300.5 192.882C300.5 193.885 299.675 194.706 298.667 194.706H280.333C279.325 194.706 278.5 193.885 278.5 192.882V174.647H274.833C273.825 174.647 273 173.826 273 172.824C273 171.821 273.825 171 274.833 171H280.333C281.342 171 282.167 171.821 282.167 172.824V176.471H306L298.667 189.235H282.167V191.059ZM281.25 196.529C282.772 196.529 284 197.751 284 199.265C284 200.778 282.772 202 281.25 202C279.728 202 278.5 200.778 278.5 199.265C278.5 197.751 279.728 196.529 281.25 196.529ZM297.75 196.529C299.272 196.529 300.5 197.751 300.5 199.265C300.5 200.778 299.272 202 297.75 202C296.228 202 295 200.778 295 199.265C295 197.751 296.228 196.529 297.75 196.529Z" fill="white"/>
<circle cx="77.5" cy="220.5" r="23.5" fill="#C00000"/>
<path fill-rule="evenodd" clip-rule="evenodd" d="M73.6923 220.385C72.713 220.385 71.7739 219.996 71.0815 219.303C70.389 218.611 70 217.672 70 216.692C70 215.713 70.389 214.774 71.0815 214.081C71.7739 213.389 72.713 213 73.6923 213C74.6716 213 75.6107 213.389 76.3032 214.081C76.9956 214.774 77.3846 215.713 77.3846 216.692C77.3846 217.672 76.9956 218.611 76.3032 219.303C75.6107 219.996 74.6716 220.385 73.6923 220.385ZM75.5385 216.692C75.5385 217.182 75.344 217.652 74.9977 217.998C74.6515 218.344 74.1819 218.538 73.6923 218.538C73.2027 218.538 72.7331 218.344 72.3869 217.998C72.0407 217.652 71.8462 217.182 71.8462 216.692C71.8462 216.203 72.0407 215.733 72.3869 215.387C72.7331 215.041 73.2027 214.846 73.6923 214.846C74.1819 214.846 74.6515 215.041 74.9977 215.387C75.344 215.733 75.5385 216.203 75.5385 216.692ZM82.3077 229C81.3284 229 80.3893 228.611 79.6968 227.919C79.0044 227.226 78.6154 226.287 78.6154 225.308C78.6154 224.328 79.0044 223.389 79.6968 222.697C80.3893 222.004 81.3284 221.615 82.3077 221.615C83.287 221.615 84.2261 222.004 84.9185 222.697C85.611 223.389 86 224.328 86 225.308C86 226.287 85.611 227.226 84.9185 227.919C84.2261 228.611 83.287 229 82.3077 229ZM84.1538 225.308C84.1538 225.797 83.9593 226.267 83.6131 226.613C83.2669 226.959 82.7973 227.154 82.3077 227.154C81.8181 227.154 81.3485 226.959 81.0023 226.613C80.656 226.267 80.4615 225.797 80.4615 225.308C80.4615 224.818 80.656 224.348 81.0023 224.002C81.3485 223.656 81.8181 223.462 82.3077 223.462C82.7973 223.462 83.2669 223.656 83.6131 224.002C83.9593 224.348 84.1538 224.818 84.1538 225.308ZM85.1138 215.191C85.2769 215.016 85.3657 214.784 85.3614 214.545C85.3572 214.306 85.2604 214.078 85.0912 213.909C84.9221 213.74 84.6939 213.643 84.4548 213.639C84.2157 213.634 83.9842 213.723 83.8092 213.886L70.8862 226.809C70.7955 226.894 70.7227 226.996 70.6723 227.109C70.6218 227.222 70.5947 227.344 70.5925 227.468C70.5903 227.592 70.6131 227.715 70.6595 227.83C70.706 227.945 70.7751 228.05 70.8627 228.137C70.9504 228.225 71.0548 228.294 71.1697 228.34C71.2847 228.387 71.4078 228.41 71.5317 228.407C71.6557 228.405 71.7779 228.378 71.8911 228.328C72.0044 228.277 72.1063 228.205 72.1908 228.114L85.1138 215.191Z" fill="white"/>
<path d="M149 240C150.062 240 151 240.938 151 242C151 243.125 150.062 244 149 244H125C123.875 244 123 243.125 123 242C123 240.938 123.875 240 125 240H149ZM154 212C155.625 212 157 213.375 157 215V235C157 236.688 155.625 238 154 238H120C118.312 238 117 236.688 117 235V215C117 213.375 118.312 212 120 212H154ZM153 234V216H121V234H153Z" fill="white"/>
<path d="M232.266 232.176C233.594 233.504 235.785 233.57 237.18 232.242C237.246 232.641 237.246 233.039 237.312 233.438C237.312 237.555 233.926 240.875 229.875 240.875C225.758 240.875 222.438 237.555 222.438 233.438C222.438 233.039 222.438 232.641 222.504 232.242C223.898 233.57 226.09 233.504 227.418 232.176C228.016 232.84 228.945 233.172 229.875 233.172C230.738 233.172 231.668 232.84 232.266 232.176ZM240.5 213.25C242.824 213.25 244.75 215.176 244.75 217.5V245.125C244.75 246.32 243.754 247.25 242.625 247.25H217.059C215.93 247.25 215 246.32 215 245.125V217.5C215 215.176 216.859 213.25 219.184 213.25H240.5ZM227.219 217.5C226.289 217.5 225.625 218.23 225.625 219.094C225.625 220.023 226.289 220.688 227.219 220.688C228.082 220.688 228.812 220.023 228.812 219.094C228.812 218.23 228.082 217.5 227.219 217.5ZM219.25 219.094C219.25 220.023 219.914 220.688 220.844 220.688C221.707 220.688 222.438 220.023 222.438 219.094C222.438 218.23 221.707 217.5 220.844 217.5C219.914 217.5 219.25 218.23 219.25 219.094ZM229.875 243C235.121 243 239.371 238.75 239.371 233.438C239.371 228.191 235.121 223.875 229.875 223.875C224.562 223.875 220.312 228.191 220.312 233.438C220.312 238.75 224.562 243 229.875 243Z" fill="white"/>
<path d="M124 315C124 312.812 125.75 311 128 311C130.188 311 132 312.812 132 315C132 317.25 130.188 319 128 319C125.75 319 124 317.25 124 315ZM133 297V310.125C131.812 309 129.562 308 127.938 308C124.062 308 120.938 311.188 120.938 315C120.938 318.875 124.062 322 127.938 322C129.562 322 131.812 321.062 133 319.938V323C133 323.938 133.438 325.312 134 326H120C118.312 326 117 324.688 117 323V297C117 295.375 118.312 294 120 294H134C133.438 294.75 133 296.125 133 297ZM128 304C129.625 304 131 302.688 131 301C131 299.375 129.625 298 128 298C126.312 298 125 299.375 125 301C125 302.688 126.312 304 128 304ZM154 294C155.625 294 157 295.375 157 297V323C157 324.688 155.625 326 154 326H138C136.312 326 135 324.688 135 323V297C135 295.375 136.312 294 138 294H154ZM146 298C144.312 298 143 299.375 143 301C143 302.688 144.312 304 146 304C147.625 304 149 302.688 149 301C149 299.375 147.625 298 146 298ZM146 322C149.812 322 153 318.875 153 315C153 311.188 149.812 308 146 308C142.125 308 139 311.188 139 315C139 318.875 142.125 322 146 322ZM146 311C148.188 311 150 312.812 150 315C150 317.25 148.188 319 146 319C143.75 319 142 317.25 142 315C142 312.812 143.75 311 146 311Z" fill="white"/>
<path d="M245.75 302C246.938 302 248 303.062 248 304.25V323.75C248 325 246.938 326 245.75 326H234.25C233 326 232 325 232 323.75V304.25C232 303.062 233 302 234.25 302H245.75ZM244 322V306H236V322H244ZM216 298V312H230V318H211.938C209.75 318 208 316.25 208 314V313C208 312.5 208.438 312 209 312H212V297C212 295.375 213.312 294.062 214.938 294H237C238.625 294.062 240 295.375 240 297V300H236V298H216Z" fill="white"/>
</g>
<defs>
<linearGradient id="paint0_linear_4657_23968" x1="137" y1="276" x2="137" y2="340" gradientUnits="userSpaceOnUse">
<stop stop-color="#0E3F66" stop-opacity="0"/>
<stop offset="1" stop-color="#0E3F66"/>
</linearGradient>
<linearGradient id="paint1_linear_4657_23968" x1="230" y1="276" x2="230" y2="340" gradientUnits="userSpaceOnUse">
<stop stop-color="#0E3F66" stop-opacity="0"/>
<stop offset="1" stop-color="#0E3F66"/>
</linearGradient>
<clipPath id="clip0_4657_23968">
<rect width="360" height="360" rx="8" fill="white"/>
</clipPath>
<clipPath id="clip1_4657_23968">
<rect width="300" height="38.758" fill="white" transform="translate(26 30)"/>
</clipPath>
</defs>
</svg>
