<svg width="360" height="360" viewBox="0 0 360 360" fill="none" xmlns="http://www.w3.org/2000/svg">
<g clip-path="url(#clip0_2661_75711)">
<rect width="360" height="360" rx="8" fill="#191919"/>
<path d="M47.4382 86.6665C56.0117 86.6665 62.9182 79.7065 62.9182 71.0665V46.2665C62.9182 37.6265 56.0117 30.6665 47.4382 30.6665H34.0222C32.6726 30.6665 31.6406 31.7065 31.6406 33.0665V84.2665C31.6406 85.6265 32.6726 86.6665 34.0222 86.6665H47.4382ZM53.0745 71.4665C53.0745 74.7465 50.5342 77.3065 47.2 77.3065H41.1668V40.0265H47.2C50.5342 40.0265 53.0745 42.6665 53.0745 45.9465V71.4665ZM101.15 60.6665H88.4489L94.0058 40.0265H95.5935L101.15 60.6665ZM102.897 32.8265C102.5 31.4665 101.547 30.6665 100.198 30.6665H89.4015C88.052 30.6665 87.0994 31.4665 86.7024 32.8265L78.6052 60.6665C78.3671 61.7065 78.2083 62.7465 78.2083 63.7865V84.2665C78.2083 85.6265 79.2403 86.6665 80.5898 86.6665H85.1941C86.5437 86.6665 87.5757 85.6265 87.5757 84.2665V70.0265H102.024V84.2665C102.024 85.6265 103.056 86.6665 104.405 86.6665H109.01C110.359 86.6665 111.391 85.6265 111.391 84.2665V63.7865C111.391 62.6665 111.232 61.6265 110.994 60.6665L102.897 32.8265ZM158.832 33.0665C158.832 31.7065 157.8 30.6665 156.451 30.6665H151.767C150.418 30.6665 149.386 31.7065 149.386 33.0665V72.2665C149.386 75.5465 146.29 78.4265 142.4 78.4265C138.51 78.4265 135.334 75.4665 135.334 72.1865V33.0665C135.334 31.7065 134.302 30.6665 132.953 30.6665H128.269C126.92 30.6665 125.888 31.7065 125.888 33.0665V71.7065C125.888 80.2665 132.953 87.4665 142.4 87.4665C151.846 87.4665 158.832 80.3465 158.832 71.7865V33.0665Z" fill="white"/>
<g filter="url(#filter0_d_2661_75711)">
<path d="M37 146H313C319.627 146 325 151.373 325 158V318C325 324.627 319.627 330 313 330H49C42.3726 330 37 324.627 37 318V146Z" fill="#454959"/>
</g>
<rect x="47" y="188" width="268" height="132" rx="8" fill="#232531"/>
<rect x="76" y="199" width="38" height="3" rx="1.5" fill="#949AB4"/>
<rect x="76" y="208" width="54" height="3" rx="1.5" fill="#949AB4"/>
<rect x="57" y="307" width="248" height="3" rx="1.5" fill="#61636F"/>
<rect x="57" y="307" width="119" height="3" rx="1.5" fill="#DF3132"/>
<path d="M34.8497 124.572C34.3804 120.179 37.5615 116.237 41.9547 115.767L312.666 86.8495C317.059 86.3802 321.001 89.5612 321.47 93.9545L323.081 109.031C323.55 113.424 320.369 117.366 315.976 117.836L37.31 147.603L34.8497 124.572Z" fill="#454959"/>
<path d="M71.4414 112.618L95.3265 110.066L85.7256 142.432L61.8406 144.983L71.4414 112.618Z" fill="#7A7F96"/>
<path d="M86.1568 146.105L62.1361 146L74.9842 177.219L99.0049 177.324L86.1568 146.105Z" fill="#7A7F96"/>
<path d="M130.157 146.105L106.136 146L118.984 177.219L143.005 177.324L130.157 146.105Z" fill="#7A7F96"/>
<path d="M174.157 146.105L150.136 146L162.984 177.219L187.005 177.324L174.157 146.105Z" fill="#7A7F96"/>
<path d="M218.157 146.105L194.136 146L206.984 177.219L231.005 177.324L218.157 146.105Z" fill="#7A7F96"/>
<path d="M262.157 146.105L238.136 146L250.984 177.219L275.005 177.324L262.157 146.105Z" fill="#7A7F96"/>
<path d="M306.157 146.105L282.136 146L294.984 177.219L319.005 177.324L306.157 146.105Z" fill="#7A7F96"/>
<path d="M115.338 107.929L139.223 105.377L129.622 137.743L105.737 140.294L115.338 107.929Z" fill="#7A7F96"/>
<path d="M159.235 103.239L183.12 100.688L173.519 133.053L149.634 135.605L159.235 103.239Z" fill="#7A7F96"/>
<path d="M203.132 98.5505L227.017 95.9991L217.416 128.364L193.531 130.916L203.132 98.5505Z" fill="#7A7F96"/>
<path d="M247.029 93.8616L270.914 91.3101L261.313 123.675L237.428 126.227L247.029 93.8616Z" fill="#7A7F96"/>
<path d="M290.926 89.1721L314.811 86.6207L305.21 118.986L281.325 121.537L290.926 89.1721Z" fill="#7A7F96"/>
<circle cx="47" cy="137" r="3" fill="#949AB4"/>
<circle cx="47" cy="157" r="3" fill="#949AB4"/>
<circle cx="63.5" cy="204.5" r="6.5" fill="#949AB4"/>
<circle cx="303" cy="200" r="2" fill="#61636F"/>
<circle cx="303" cy="207" r="2" fill="#61636F"/>
<circle cx="303" cy="214" r="2" fill="#61636F"/>
<circle cx="176" cy="308" r="4" fill="white"/>
<circle cx="180" cy="254" r="22" fill="#C8CEEB"/>
<path d="M189.5 253.634C190.167 254.019 190.167 254.981 189.5 255.366L176.75 262.727C176.083 263.112 175.25 262.631 175.25 261.861L175.25 247.139C175.25 246.369 176.083 245.888 176.75 246.273L189.5 253.634Z" fill="#232531"/>
<path fill-rule="evenodd" clip-rule="evenodd" d="M238 255C238 258.866 234.866 262 231 262V268C232.657 268 234 269.343 234 271C234 272.657 232.657 274 231 274V278C232.657 278 234 279.343 234 281C234 282.657 232.657 284 231 284V288C232.657 288 234 289.343 234 291C234 292.657 232.657 294 231 294V298C232.657 298 234 299.343 234 301C234 302.657 232.657 304 231 304V308C232.657 308 234 309.343 234 311C234 312.657 232.657 314 231 314V318C232.657 318 234 319.343 234 321C234 322.657 232.657 324 231 324V330C234.866 330 238 333.134 238 337H360V255H238Z" fill="#FEC349"/>
<rect opacity="0.4" x="248" y="315" width="59" height="6" rx="3" fill="white"/>
<rect opacity="0.4" x="315" y="315" width="24" height="6" rx="3" fill="white"/>
<rect x="295" y="271" width="74" height="12" rx="6" fill="#DEA735"/>
<rect x="295" y="287" width="43" height="12" rx="6" fill="#DEA735"/>
<rect x="248" y="269" width="40" height="31" fill="white"/>
<rect x="250" y="269" width="3" height="2" fill="#FEC349"/>
<rect x="283" y="269" width="3" height="2" fill="#FEC349"/>
<rect x="250" y="273" width="3" height="3" fill="#FEC349"/>
<rect x="283" y="273" width="3" height="3" fill="#FEC349"/>
<rect x="250" y="278" width="3" height="3" fill="#FEC349"/>
<rect x="283" y="278" width="3" height="3" fill="#FEC349"/>
<rect x="250" y="283" width="3" height="3" fill="#FEC349"/>
<rect x="283" y="283" width="3" height="3" fill="#FEC349"/>
<rect x="250" y="288" width="3" height="3" fill="#FEC349"/>
<rect x="283" y="288" width="3" height="3" fill="#FEC349"/>
<rect x="250" y="293" width="3" height="3" fill="#FEC349"/>
<rect x="283" y="293" width="3" height="3" fill="#FEC349"/>
<rect x="250" y="298" width="3" height="3" fill="#FEC349"/>
<rect x="283" y="298" width="3" height="3" fill="#FEC349"/>
<path d="M259.524 281.464C259.674 281.003 260.326 281.003 260.476 281.464L261.01 283.109C261.077 283.315 261.269 283.455 261.486 283.455H263.216C263.701 283.455 263.902 284.075 263.51 284.359L262.11 285.377C261.935 285.504 261.862 285.73 261.929 285.936L262.463 287.582C262.613 288.042 262.086 288.425 261.694 288.141L260.294 287.123C260.119 286.996 259.881 286.996 259.706 287.123L258.306 288.141C257.914 288.425 257.387 288.042 257.537 287.582L258.071 285.936C258.138 285.73 258.065 285.504 257.89 285.377L256.49 284.359C256.098 284.075 256.299 283.455 256.784 283.455H258.514C258.731 283.455 258.923 283.315 258.99 283.109L259.524 281.464Z" fill="#FEC349"/>
<path d="M267.524 281.464C267.674 281.003 268.326 281.003 268.476 281.464L269.01 283.109C269.077 283.315 269.269 283.455 269.486 283.455H271.216C271.701 283.455 271.902 284.075 271.51 284.359L270.11 285.377C269.935 285.504 269.862 285.73 269.929 285.936L270.463 287.582C270.613 288.042 270.086 288.425 269.694 288.141L268.294 287.123C268.119 286.996 267.881 286.996 267.706 287.123L266.306 288.141C265.914 288.425 265.387 288.042 265.537 287.582L266.071 285.936C266.138 285.73 266.065 285.504 265.89 285.377L264.49 284.359C264.098 284.075 264.299 283.455 264.784 283.455H266.514C266.731 283.455 266.923 283.315 266.99 283.109L267.524 281.464Z" fill="#FEC349"/>
<path d="M275.524 281.464C275.674 281.003 276.326 281.003 276.476 281.464L277.01 283.109C277.077 283.315 277.269 283.455 277.486 283.455H279.216C279.701 283.455 279.902 284.075 279.51 284.359L278.11 285.377C277.935 285.504 277.862 285.73 277.929 285.936L278.463 287.582C278.613 288.042 278.086 288.425 277.694 288.141L276.294 287.123C276.119 286.996 275.881 286.996 275.706 287.123L274.306 288.141C273.914 288.425 273.387 288.042 273.537 287.582L274.071 285.936C274.138 285.73 274.065 285.504 273.89 285.377L272.49 284.359C272.098 284.075 272.299 283.455 272.784 283.455H274.514C274.731 283.455 274.923 283.315 274.99 283.109L275.524 281.464Z" fill="#FEC349"/>
</g>
<defs>
<filter id="filter0_d_2661_75711" x="7" y="126" width="348" height="244" filterUnits="userSpaceOnUse" color-interpolation-filters="sRGB">
<feFlood flood-opacity="0" result="BackgroundImageFix"/>
<feColorMatrix in="SourceAlpha" type="matrix" values="0 0 0 0 0 0 0 0 0 0 0 0 0 0 0 0 0 0 127 0" result="hardAlpha"/>
<feOffset dy="10"/>
<feGaussianBlur stdDeviation="15"/>
<feComposite in2="hardAlpha" operator="out"/>
<feColorMatrix type="matrix" values="0 0 0 0 0 0 0 0 0 0 0 0 0 0 0 0 0 0 1 0"/>
<feBlend mode="normal" in2="BackgroundImageFix" result="effect1_dropShadow_2661_75711"/>
<feBlend mode="normal" in="SourceGraphic" in2="effect1_dropShadow_2661_75711" result="shape"/>
</filter>
<clipPath id="clip0_2661_75711">
<rect width="360" height="360" rx="8" fill="white"/>
</clipPath>
</defs>
</svg>
