<svg width="360" height="360" viewBox="0 0 360 360" fill="none" xmlns="http://www.w3.org/2000/svg">
<g clip-path="url(#clip0_4302_22634)">
<rect width="360" height="360" rx="8" fill="#C83201"/>
<path d="M-45.8383 29.2761C-33.5422 41.6521 -14.6126 46.4246 2.21367 41.9757C19.04 37.5268 28.8283 25.5552 38.2931 13.0983C47.4343 1.04585 55.9284 -12.7862 69.357 -20.5515C82.7857 -28.3169 76.3141 -24.1107 80.0353 -24.8387C83.7565 -25.5667 89.3382 -25.2431 91.037 -20.956C92.7359 -16.6689 88.9338 -11.5729 86.1833 -8.49907C83.4329 -5.42529 77.932 -0.733719 73.8063 3.14896C69.6806 7.03163 65.2314 11.0761 60.863 15.0396C56.4946 19.0032 53.906 21.6725 54.1487 26.2832C54.634 35.1001 67.4155 34.9383 73.4018 32.997C79.3881 31.0557 88.2057 24.9081 95.8099 21.2681C103.414 17.6281 103.819 18.1943 108.187 18.1943C112.555 18.1943 116.843 19.165 121.049 20.3783C129.139 22.6432 137.309 26.1214 145.884 26.2832C154.459 26.445 161.174 22.4006 165.542 15.525C169.91 8.64941 171.771 -0.571945 175.735 -8.2564C179.699 -15.9409 186.656 -23.0591 194.583 -27.6698C202.511 -32.2805 211.572 -34.7071 220.794 -34.3027C230.016 -33.8982 238.429 -29.6111 243.283 -22.4929C248.136 -15.3746 245.467 -6.23418 238.024 -1.21906C230.582 3.79606 230.016 3.14896 225.89 4.92851C221.764 6.70807 214.888 9.70096 209.387 12.1276C200.084 16.1721 189.002 19.5694 181.964 27.3348C176.301 33.6441 173.874 43.3508 179.375 50.5499C184.876 57.7491 190.62 57.4255 197.01 58.3153C203.401 59.2051 211.976 59.2859 218.529 62.6833C226.942 67.0513 230.339 76.8389 235.193 84.2807C240.289 92.046 246.518 99.0025 253.637 104.988C260.756 110.974 268.684 115.989 277.097 119.71C285.51 123.431 294.409 126.424 303.469 126.99C312.529 127.556 312.044 126.747 315.522 124.321C319.001 121.894 321.023 117.769 321.671 113.482C323.046 103.856 320.942 93.502 318.111 84.2807C315.037 74.3313 310.507 64.8673 306.058 55.4842C303.793 50.7117 301.447 45.9393 299.343 41.0859C297.24 36.2326 294.247 30.4895 293.923 24.8272C293.114 10.9952 310.022 5.17118 319.567 -0.976391C329.113 -7.12396 329.76 -8.33729 332.268 -13.9995C334.776 -19.6618 334.128 -21.9267 334.533 -25.9711C334.937 -30.0156 336.798 -35.0307 341.894 -35.6778C350.793 -36.8102 359.53 -28.8022 364.545 -22.412C370.289 -15.2129 373.686 -3.88839 366.972 3.87695C360.258 11.6423 352.654 10.0245 346.586 14.797C340.519 19.5694 340.115 29.0334 345.13 35.5855C350.146 42.1375 359.287 45.6157 367.457 49.3366C375.628 53.0575 375.142 53.1384 377.974 56.2931C380.805 59.4477 382.18 65.1909 382.18 70.206C382.18 75.2211 381.695 80.3171 382.585 85.3322C383.475 90.3474 385.416 93.6638 387.762 97.3847C391.322 103.209 399.007 112.026 393.91 119.063C389.218 125.534 378.864 122.056 373.12 119.144C367.376 116.232 358.316 109.437 349.175 109.114C340.034 108.79 334.614 115.261 334.128 123.593C333.643 132.167 337.931 141.146 334.937 149.558C332.106 157.485 324.745 162.824 321.994 170.832C319.486 177.869 321.913 185.311 327.333 190.245C332.753 195.18 340.843 198.092 348.447 198.334C358.478 198.658 368.266 194.532 377.731 191.863C387.6 189.113 397.955 187.738 407.582 192.187C417.208 196.636 422.224 203.754 422.547 213.218C422.871 222.277 417.532 230.043 408.795 232.712C400.058 235.381 390.755 233.683 382.261 231.256C371.907 228.263 361.148 224.219 350.227 225.432C345.211 225.998 340.762 227.778 336.313 230.043C331.944 232.308 327.576 234.977 322.641 235.624C313.257 236.676 305.653 228.829 302.417 220.74C299.181 212.652 299.262 199.386 297.806 188.789C296.593 179.972 293.842 170.508 286.885 164.442C279.928 158.375 273.133 157.728 266.176 160.235C259.219 162.743 259.947 163.633 258.167 166.707C255.66 171.075 255.983 176.252 254.204 180.781C251.615 187.252 244.172 189.679 238.186 191.863C232.2 194.047 225.728 196.312 222.088 201.732C216.992 209.335 220.794 218.233 226.78 224.057C232.766 229.881 244.577 235.22 254.365 237.808C259.624 239.183 264.963 239.992 270.383 240.397C275.803 240.801 280.656 240.882 283.65 245.573C286.643 250.265 286.562 253.177 287.613 256.979C288.665 260.781 290.202 264.744 292.71 268.061C297.564 274.451 305.006 278.738 313.015 279.789C321.59 280.922 329.275 277.767 336.232 273.076C343.189 268.384 349.822 262.075 357.993 259.567C367.538 256.655 377.084 260.781 383.798 267.656C390.513 274.532 394.638 285.613 397.308 295.644C399.897 305.431 404.508 318.293 398.44 327.676C396.014 331.397 391.969 334.147 387.358 333.5C383.475 332.934 380.482 330.022 378.216 327.029C373.12 320.153 371.098 311.579 365.192 305.35C359.934 299.85 351.278 295.401 344.483 301.063C338.092 306.483 340.196 315.704 338.578 322.984C336.96 330.264 334.29 330.426 331.782 334.066C329.275 337.706 328.547 341.023 329.517 344.824C331.459 352.509 340.034 357.281 347.233 358.656C356.698 360.517 366.729 357.281 376.113 360.436C385.497 363.591 389.137 373.135 389.38 382.195C389.623 391.255 386.711 400.8 381.938 408.727C379.43 412.852 376.437 416.573 372.958 419.809C369.48 423.044 365.111 427.008 360.258 427.331C350.227 428.059 343.189 415.845 339.791 408.08C336.393 400.314 333.805 390.203 329.679 381.71C325.553 373.216 319.244 366.098 311.154 362.215C303.065 358.414 294.975 359.384 287.856 364.642C284.378 367.15 280.98 370.466 276.612 371.356C271.839 372.327 267.228 369.9 263.83 366.826C256.873 360.679 251.858 351.538 249.35 342.721C246.842 333.904 247.166 329.051 247.489 322.094C247.732 316.351 248.298 310.527 247.327 304.784C246.357 299.041 243.121 293.622 238.672 289.577C234.222 285.533 226.375 280.679 218.609 279.951C210.439 279.223 201.864 280.922 194.26 283.915C186.656 286.908 181.478 289.496 178 295.078C174.521 300.659 173.793 306.321 172.984 312.064C170.962 325.815 171.286 339.728 169.91 353.56C169.182 361.083 166.432 367.878 161.578 373.702C155.754 380.739 148.068 386.078 140.303 390.85C131.97 395.946 122.344 402.822 112.151 402.822C103.738 402.822 94.3538 396.027 97.8323 386.725C101.311 377.423 111.827 374.187 119.674 370.062C127.359 366.017 133.831 360.193 134.882 351.134C135.934 342.074 132.537 335.198 126.146 330.588C119.755 325.977 111.585 325.734 104.061 327.271C95.729 328.889 87.8012 332.206 79.5499 334.147C71.2985 336.088 71.2176 335.765 66.9302 335.522C62.6427 335.279 57.1418 332.934 52.1263 332.934C43.3086 332.934 36.837 340.699 35.5427 348.869C34.2483 357.039 35.7045 359.789 37.3224 365.047C38.9403 370.304 42.4997 375.643 41.2054 380.901C39.911 386.159 35.8662 388.504 31.7406 389.96C26.4015 391.74 20.577 391.416 14.9952 391.255C3.18443 391.093 -8.54544 392.792 -20.3562 392.872C-38.5577 393.034 -61.5321 387.291 -65.496 366.503C-69.4598 345.714 -64.2825 350.001 -57.2446 345.391C-51.1774 341.508 -43.735 340.699 -36.6971 340.375C-23.4302 339.647 -6.52305 341.427 3.50801 330.75C13.5391 320.072 8.44263 323.227 10.2223 319.021C12.002 314.814 14.0244 310.689 17.0176 307.049C22.5185 300.416 29.9609 295.563 38.2122 293.055C46.8681 290.467 55.5239 290.71 64.0988 293.46C72.6738 296.21 82.1385 301.144 91.846 301.791C101.553 302.438 107.378 298.718 112.07 292.004C116.762 285.29 118.218 278.495 120.968 271.701C123.719 264.906 128.573 257.869 137.067 255.765C145.884 253.581 156.158 253.743 161.821 245.412C167.645 236.837 159.879 229.234 153.893 223.652C146.855 217.1 138.846 210.629 129.382 207.96C121.454 205.695 113.202 206.989 106.488 211.681C99.7738 216.372 96.6189 220.983 92.5741 226.403C85.5362 235.786 76.8803 250.265 63.0472 247.838C55.9284 246.625 50.1848 241.529 44.7648 237.08C39.3448 232.631 33.763 227.697 26.8868 225.837C8.11905 220.821 -0.132294 241.853 -11.4577 251.964C-22.7831 262.075 -29.0929 262.965 -38.3959 258.92C-46.2428 255.442 -51.9864 246.221 -47.3753 237.97C-42.7643 229.719 -34.7556 228.587 -27.6368 226.969C-19.6281 225.189 -11.7004 224.381 -4.25798 220.66C2.13277 217.424 8.36173 212.004 9.0089 204.401C9.65607 196.797 3.6698 190.003 -3.20633 186.605C-11.0532 182.804 -19.9517 182.399 -27.8795 178.759C-35.8073 175.119 -35.7264 173.906 -37.5061 169.538C-39.2858 165.17 -38.8004 160.397 -37.5061 156.029C-34.6747 146.646 -28.1222 138.395 -21.0034 131.843C-13.8846 125.291 -5.14783 119.71 4.47875 119.629C14.9143 119.629 21.2241 127.475 28.9092 133.219C36.5943 138.962 43.9558 142.116 52.4499 143.572C60.9439 145.028 69.1143 144.381 76.395 140.418C83.6756 136.454 82.7048 135.564 85.8597 133.057C89.0147 130.549 93.1404 127.88 96.7807 125.372C103.819 120.6 110.695 115.747 115.306 108.386C119.108 102.319 122.425 94.23 128.654 90.1047C134.882 85.9793 145.884 87.4353 150.01 93.9065C154.136 100.378 147.098 101.672 143.457 103.37C139.817 105.069 134.802 106.606 130.271 107.334C121.211 108.79 111.746 107.739 103.091 104.584C94.4347 101.429 86.5878 94.5536 79.7926 87.2736C72.9973 79.9936 65.9594 73.2798 56.1711 71.3384C46.3827 69.3971 47.3534 70.6104 43.3086 72.39C39.2639 74.1695 36.1898 78.6993 32.0641 81.4496C23.3274 87.1927 12.4874 80.8833 5.28771 75.5447C-1.912 70.206 -8.86902 63.9775 -17.9293 62.7642C-32.895 60.742 -48.7506 71.9855 -50.9347 87.0309C-51.3392 89.5385 -47.3753 90.6709 -47.0518 88.0825C-45.8383 79.8318 -40.3374 73.0371 -32.895 69.3162C-25.4526 65.5953 -16.1496 65.9189 -8.54545 70.4486C-0.941261 74.9784 6.90562 83.31 16.694 86.3838C26.4824 89.4576 25.9161 88.2442 30.2844 86.7074C34.6528 85.1705 37.8886 81.2069 41.6098 78.0522C49.7803 71.2575 61.5102 76.03 68.629 82.0158C75.7478 88.0016 82.2194 96.8994 90.7135 102.642C105.679 112.754 125.984 114.776 142.648 107.981C159.313 101.186 151.385 104.503 153.65 100.782C155.915 97.0611 154.945 93.502 152.518 90.59C147.583 84.4424 137.795 82.0967 130.352 84.6042C122.91 87.1118 119.512 93.2594 115.953 99.1643C112.394 105.069 111.746 106.768 109.077 110.003C106.407 113.239 102.848 115.989 99.3693 118.416C92.3314 123.431 85.2126 127.961 78.66 133.704C72.1075 139.447 63.0472 140.822 54.7149 139.69C46.3827 138.557 37.1606 134.513 30.1227 128.931C23.0847 123.35 16.2895 116.07 6.09666 115.342C-4.09618 114.614 -12.2666 119.225 -19.4664 124.806C-26.6661 130.387 -33.6231 137.991 -38.1532 146.403C-42.6834 154.816 -44.9485 163.714 -40.8228 172.045C-36.6971 180.377 -27.7986 183.289 -19.6281 185.392C-11.4577 187.495 -1.9929 189.113 2.77994 196.393C7.55278 203.673 2.53725 211.357 -4.09619 215.402C-10.7296 219.446 -19.3046 220.66 -27.3941 222.358C-34.8365 223.895 -43.0879 226.322 -48.5079 232.065C-53.9279 237.808 -54.8986 246.625 -50.5303 253.501C-46.1619 260.376 -36.9398 264.987 -28.1222 263.935C-18.5765 262.803 -10.2442 256.817 -4.17708 249.618C1.8901 242.419 5.85397 235.058 13.4582 230.932C28.1003 222.924 40.6391 240.316 51.56 247.191C57.3845 250.912 64.2606 252.934 71.1367 251.155C78.0129 249.375 82.1385 245.25 86.1833 240.639C90.2281 236.029 94.5156 229.557 98.8839 224.219C103.01 219.123 107.863 214.027 114.173 211.843C123.881 208.445 133.669 212.894 141.516 218.476C149.363 224.057 149.686 225.028 153.408 228.668C157.129 232.308 161.093 236.029 159.232 241.044C155.592 250.75 141.84 249.618 133.831 252.125C125.822 254.633 121.13 260.457 117.975 267.737C114.82 275.017 113.202 281.973 109.319 288.283C104.466 296.129 96.3762 298.718 87.4776 296.857C78.5791 294.997 68.9526 289.658 59.1642 287.717C50.9128 286.018 42.257 286.827 34.4101 289.739C26.4824 292.651 19.1209 297.585 13.7817 304.218C8.44263 310.851 8.84711 311.336 7.14831 315.381C5.4495 319.425 3.66979 324.359 0.353073 327.838C-4.66246 333.014 -11.9431 334.632 -18.8192 335.279C-25.6953 335.927 -33.9467 335.684 -41.47 336.493C-48.9933 337.302 -55.4649 338.677 -61.0467 342.964C-66.6285 347.251 -70.5115 355.583 -69.9452 363.51C-69.3789 371.437 -65.2533 380.011 -58.7007 385.512C-51.4201 391.578 -42.2789 394.652 -33.0568 395.946C-21.5696 397.483 -10.0825 396.189 1.40472 395.461C7.3101 395.056 13.1346 395.056 19.04 395.137C24.9453 395.218 29.7182 394.976 34.6528 392.872C38.4549 391.255 42.0952 388.424 44.0367 384.622C45.9782 380.82 45.7355 375.643 44.0367 371.194C40.6391 361.73 35.7045 349.678 43.3895 340.861C51.0746 332.044 51.6409 336.169 56.8182 337.383C61.9955 338.596 65.7976 339.567 70.5705 339.324C79.1454 338.919 87.3968 335.926 95.5672 333.419C103.738 330.911 111.423 328.647 119.189 331.235C127.359 333.904 131.97 342.236 131 350.648C130.029 359.061 120.483 365.047 112.394 368.929C104.304 372.812 95.6481 377.908 93.5448 386.967C91.4415 396.027 97.4278 402.66 105.275 405.329C113.122 407.999 124.528 404.278 132.779 399.667C147.907 391.255 165.218 381.143 171.771 364.157C174.036 358.333 174.36 352.023 174.683 345.876C175.007 339.728 175.33 331.154 175.897 323.793C176.463 316.432 177.11 309.88 178.971 303.166C179.699 300.74 180.508 298.232 182.045 296.129C183.582 294.026 186.575 292.004 189.083 290.548C196.282 286.342 204.776 283.915 213.109 283.51C221.441 283.106 220.875 283.591 224.596 284.805C228.317 286.018 231.876 288.526 234.87 291.114C239.561 295.158 242.878 300.174 243.687 306.402C244.496 312.226 243.687 318.131 243.525 324.036C243.04 340.375 248.298 357.443 260.594 368.848C263.83 371.841 267.794 374.43 272.243 375.077C276.531 375.724 280.576 374.43 284.216 372.165C287.856 369.9 291.092 366.503 295.137 364.804C299.262 363.024 303.793 363.267 307.918 364.804C316.655 368.12 323.288 376.452 327.01 384.784C330.893 393.358 333.158 402.66 337.122 411.153C340.924 419.242 347.233 428.464 356.456 430.648C365.92 432.832 374.819 424.419 380.401 417.705C391.402 404.601 398.359 383.651 390.351 367.392C386.144 358.818 377.893 355.097 368.671 354.612C359.287 354.127 349.579 356.391 340.924 351.457C337.607 349.597 334.209 346.604 333.481 342.721C332.672 338.03 336.313 334.632 338.901 331.316C341.49 327.999 342.784 324.198 343.27 319.83C343.674 315.785 343.431 311.579 344.726 307.696C346.02 303.814 349.499 301.225 353.705 302.115C357.912 303.005 361.714 306.483 364.383 309.88C369.561 316.513 371.421 325.087 377.246 331.478C383.07 337.868 391.16 339.243 397.793 334.066C404.427 328.889 406.368 316.918 404.589 307.534C400.948 288.606 395.043 264.825 375.466 256.493C355.889 248.162 358.316 253.905 350.388 258.273C342.703 262.479 336.393 268.708 328.628 272.671C320.862 276.635 311.963 276.554 304.278 272.267C300.638 270.245 297.402 267.333 295.056 263.773C292.71 260.214 291.82 256.089 290.768 251.964C289.717 247.838 288.584 244.279 285.996 241.286C283.407 238.293 278.472 236.595 273.942 236.19C262.617 235.301 251.858 233.359 241.503 228.425C233.818 224.785 221.522 217.1 224.353 206.828C226.133 200.114 233.818 197.687 239.642 195.503C245.467 193.319 252.667 190.892 256.63 185.23C261.565 178.274 258.41 166.868 268.198 163.633C276.288 160.964 284.378 165.17 288.746 172.045C293.114 178.921 294.57 191.135 295.299 200.923C296.027 210.71 297.24 221.388 303.55 229.638C308.889 236.595 316.979 240.882 325.796 238.86C334.614 236.837 334.856 235.22 339.144 233.036C343.431 230.852 348.932 228.991 354.433 228.91C365.516 228.91 375.871 233.602 386.468 236.029C394.8 237.889 404.022 238.698 412.112 235.543C420.12 232.469 425.621 225.594 426.754 217.1C429.343 197.768 411.06 184.421 393.182 184.826C374.172 185.23 355.08 200.033 336.313 190.812C317.545 181.59 323.774 181.105 325.796 173.097C327.819 165.089 335.585 159.265 338.739 151.499C342.218 143.087 338.901 134.432 338.578 125.777C338.254 117.122 339.144 117.283 342.703 114.614C346.263 111.945 351.036 112.592 354.999 113.805C363.413 116.394 370.046 122.541 378.459 125.049C386.872 127.556 393.587 126.99 397.955 120.438C402.323 113.886 398.117 105.15 394.072 98.7598C390.027 92.3696 389.137 91.3989 387.762 87.2736C386.387 83.1482 386.549 76.6771 386.63 71.4193C386.711 66.1615 386.387 61.6317 384.122 57.1828C381.857 52.7339 379.187 50.7117 375.871 48.6086C368.347 43.8362 359.044 42.3801 352.249 36.4752C345.454 30.5703 345.696 29.5997 345.696 25.0699C345.696 20.5401 348.69 17.7899 352.249 15.9294C359.287 12.2894 367.7 11.157 372.23 3.79607C376.76 -3.56483 375.547 -13.9186 370.936 -21.3604C366.325 -28.8022 358.64 -36.0822 350.065 -38.9942C341.894 -41.7445 333.319 -38.9134 331.459 -29.7729C329.598 -20.6324 330.974 -20.8751 329.356 -16.7498C327.738 -12.6244 326.362 -11.5728 324.178 -9.55062C314.956 -0.895493 300.719 2.17829 293.438 13.0174C286.157 23.8566 290.607 29.0335 293.762 36.8797C297.725 46.5864 302.498 55.8886 306.867 65.4335C311.316 75.0593 315.361 85.0087 317.221 95.5242C318.677 103.532 321.104 118.82 310.669 121.894C300.233 124.968 301.042 122.299 296.512 121.328C291.982 120.357 287.452 118.982 283.083 117.283C274.266 113.886 265.853 109.033 258.491 103.047C251.129 97.0611 244.658 90.1856 239.4 82.3393C234.141 74.4931 230.906 65.3526 223.14 60.014C216.992 55.8077 209.145 55.0797 201.945 54.2708C194.745 53.4619 187.222 53.1384 182.934 47.7188C176.139 39.1446 184.229 28.7908 191.671 24.3419C199.114 19.893 201.46 19.5694 206.394 17.3854C211.329 15.2014 217.396 12.613 222.897 10.1863C231.229 6.5463 241.179 3.31074 246.842 -4.29283C252.505 -11.8964 251.13 -19.5809 246.276 -26.052C235.193 -40.6929 214.646 -41.34 199.033 -34.7071C190.781 -31.2289 183.258 -25.6475 177.676 -18.6102C172.094 -11.5729 169.425 -3.40306 166.27 4.92851C163.115 13.0983 158.1 20.7828 148.635 21.6725C139.17 22.5623 131.728 18.7605 123.8 16.4148C115.872 14.069 107.135 12.4512 98.8839 15.3632C90.6326 18.2752 83.9991 23.6139 76.3141 27.2539C68.629 30.8939 68.7908 30.1659 64.9078 29.6806C61.0248 29.1952 59.8114 28.7908 58.8406 26.7686C57.8699 24.7463 59.9731 21.6725 61.4293 20.0548C65.3931 15.6868 70.166 11.885 74.5343 7.84053C78.9027 3.79607 83.2711 -0.0866051 87.5585 -4.13106C91.846 -8.17551 99.8547 -19.3382 92.8168 -26.2138C85.7789 -33.0893 77.2039 -29.1258 70.7323 -25.9711C56.8182 -19.3382 47.5961 -6.0724 38.6976 5.98008C29.7991 18.0325 20.0107 31.2175 5.44949 36.5561C-9.11171 41.8948 -30.3064 38.4975 -42.6025 26.1214C-54.8986 13.7454 -47.2944 27.173 -45.4338 28.9526L-45.8383 29.2761Z" fill="#CC461B"/>
<path d="M30 60.4246H32.5409C35.223 57.3354 35.6935 51.11 35.6935 47.225V30C42.281 30 48.8685 30 55.409 30V60.4246H58.7028V71.2839H52.5858V66.1351C47.0805 66.1351 41.6223 66.1351 36.117 66.1351V71.2839H30V60.4246ZM42.0458 35.7573V47.225C42.0458 51.2036 41.3399 56.9609 39.0343 60.4246C42.3281 60.4246 45.6218 60.4246 48.9626 60.4246V35.7573C46.657 35.7573 44.3514 35.7573 42.0458 35.7573Z" fill="white"/>
<path d="M72.0035 66.6032C64.7102 66.6032 61.2282 63.2799 61.2282 55.8375V49.1909C61.2282 41.9358 64.7102 38.4253 72.0035 38.4253C79.2968 38.4253 82.7788 41.7486 82.7788 49.1909V55.8375C82.7788 63.2799 79.2968 66.6032 72.0035 66.6032ZM72.0035 60.8927C75.3914 60.8927 76.2854 58.9268 76.2854 55.5099V49.5186C76.2854 46.1017 75.3914 44.1358 72.0035 44.1358C68.6157 44.1358 67.7216 46.1017 67.7216 49.5186V55.5099C67.7216 58.9268 68.6157 60.8927 72.0035 60.8927Z" fill="white"/>
<path d="M109.676 66.1351H102.617L94.9948 54.5737H93.1597V66.1351H86.8074V38.9402H93.1597V48.8165H94.1008C96.5005 48.8165 97.3475 46.7101 98.4297 44.6506C99.9825 41.655 101.394 38.0508 108.123 38.987L107.793 44.4166C105.158 43.9953 104.453 45.3527 103.417 47.5995C102.617 49.2845 101.723 50.876 100.406 51.9525L109.676 66.1351Z" fill="white"/>
<path d="M125.668 38.5189H132.397L124.162 65.8075H124.209L122.704 71.1435C120.915 77.3688 117.198 78.0241 111.881 75.9178L112.869 71.1903C114.516 71.5647 116.257 72.2668 116.916 69.8329L117.998 65.9479L109.67 38.5189H116.398L118.892 46.8038C119.833 50.5483 120.586 54.9014 121.057 58.4119C121.574 54.8546 122.28 50.5951 123.221 46.8038L125.668 38.5189Z" fill="white"/>
<path d="M149.701 57.6162H148.243L141.043 43.106L141.796 53.4036V66.1351H135.303V30.0936H141.561L148.948 46.0548L156.383 30.0936H162.641V66.1351H156.148V53.4036L156.901 43.106L149.701 57.6162Z" fill="white"/>
<path d="M181.685 57.663H188.037C188.037 63.4671 184.555 66.2287 177.262 66.2287C169.969 66.2287 166.487 62.9054 166.487 55.4631V49.1909C166.487 42.2635 169.969 38.4253 177.262 38.4253C184.555 38.4253 188.037 41.7486 188.037 49.1909V54.6674H172.98V55.3695C172.98 59.8161 174.721 60.6587 177.356 60.6587C180.415 60.6587 181.685 59.5821 181.685 57.663ZM177.45 43.9953C173.639 43.9953 172.98 46.0548 172.98 49.3781H181.779C181.779 45.9144 181.12 43.9953 177.45 43.9953Z" fill="white"/>
<path d="M187.776 60.4714H190.646C193.187 57.5694 193.329 53.1695 193.329 49.5654V38.8934H211.632V60.4714H214.832V71.1435H208.809V66.1351H193.705V71.1435H187.776V60.4714ZM196.999 60.4714H205.327V44.6038H199.587V49.5654C199.587 53.2631 199.163 57.2886 196.999 60.4714Z" fill="white"/>
<path d="M215.944 60.4714H218.814C221.355 57.5694 221.496 53.1695 221.496 49.5654V38.8934H239.8V60.4714H243V71.1435H236.977V66.1351H221.873V71.1435H215.944V60.4714ZM225.167 60.4714H233.495V44.6038H227.755V49.5654C227.755 53.2631 227.331 57.2886 225.167 60.4714Z" fill="white"/>
<path d="M186.812 159.704L185.812 127.535L186.812 160.535C186.812 160.286 186.812 160.036 186.812 159.704Z" fill="#F7D2D0"/>
<g filter="url(#filter0_d_4302_22634)">
<path d="M108.115 95.8058L190.972 116.232L182.746 149.601C181.931 152.905 178.636 154.829 175.331 154.014L174.364 153.776C172.785 151.163 170.342 149.279 167.36 148.544C161.235 147.034 154.986 150.879 152.792 157.35C152.693 157.753 152.573 158.236 152.474 158.639C150.706 165.813 154.514 172.907 161.043 174.517C167.571 176.126 167.164 174.658 169.676 173.14L170.643 173.378C173.947 174.193 175.952 177.508 175.157 180.732L166.931 214.101L133.562 205.875C130.741 205.179 128.007 206.557 126.727 208.978C126.527 209.441 126.347 209.825 126.228 210.308L125.989 211.275C127.325 213.486 127.978 216.041 127.664 218.699C127.565 219.102 127.546 219.525 127.427 220.009C125.838 226.457 118.743 230.265 111.569 228.497C104.396 226.728 99.9648 220.079 101.554 213.63C103.144 207.182 101.773 212.744 101.953 212.361C102.891 209.942 104.677 207.902 106.806 206.546L107.045 205.579C107.164 205.095 107.283 204.612 107.221 204.169C107.212 201.431 105.352 198.92 102.611 198.245L69.2428 190.019L89.6492 107.242C91.676 99.0206 100.015 93.98 108.256 95.9261L108.115 95.8058Z" fill="#932400"/>
<path d="M126.686 208.796C126.686 208.796 126.565 208.595 126.504 208.495L126.742 207.527C126.862 207.044 126.981 206.56 127.241 206.197C128.522 203.777 131.336 202.419 134.077 203.094L167.445 211.32L166.77 214.061L133.401 205.835C130.661 205.159 127.866 206.437 126.586 208.857L126.686 208.796Z" fill="#7C2306"/>
<path d="M175.332 154.014L174.364 153.775C172.785 151.163 170.343 149.278 167.361 148.543C161.316 147.053 155.067 150.899 152.813 157.269C152.932 156.785 153.031 156.382 153.15 155.898C153.27 155.415 153.369 155.012 153.468 154.609C155.642 148.219 161.911 144.293 168.036 145.803C174.162 147.313 173.522 148.523 175.02 151.115L175.987 151.354C179.292 152.169 182.608 150.164 183.402 146.94L182.727 149.681C181.912 152.985 178.616 154.909 175.312 154.094L175.332 154.014Z" fill="#7C2306"/>
<path d="M107.756 201.307C107.717 201.811 107.699 202.234 107.579 202.717L107.341 203.685C107.341 203.685 107.14 203.806 107.04 203.867C107.011 201.209 105.15 198.699 102.41 198.023L69.0412 189.797L69.7167 187.056L103.085 195.283C105.906 195.978 107.767 198.489 107.695 201.207L107.756 201.307Z" fill="#7C2306"/>
<path d="M101.831 212.16C101.126 218.142 105.474 224.087 112.084 225.717C118.693 227.346 125.286 224.183 127.462 218.478C127.363 218.881 127.344 219.304 127.225 219.788C125.635 226.236 118.541 230.044 111.367 228.276C104.194 226.507 99.7627 219.858 101.352 213.41C102.942 206.962 101.571 212.523 101.751 212.14L101.831 212.16Z" fill="#7C2306"/>
<path d="M110.13 122.037C111.252 117.614 115.744 114.94 120.167 116.062C124.59 117.184 127.263 121.676 126.141 126.099C125.019 130.522 120.528 133.195 116.105 132.073C111.682 130.951 109.008 126.46 110.13 122.037ZM120.018 158.628L122.019 159.136C124.221 159.695 126.479 158.351 127.038 156.149L129.465 146.583C130.034 144.341 129.336 141.97 127.593 140.441C126.844 139.783 126.031 139.129 125.126 138.495L120.018 158.628ZM113.231 146.255L121.433 136.258C119.679 135.366 117.738 134.618 115.597 134.075C110.533 132.79 105.815 133.084 102.016 133.952C100.912 134.207 99.8999 134.763 99.0927 135.559C98.2855 136.354 97.7145 137.358 97.443 138.458L94.0003 152.027L98.6835 153.216C98.4717 152.203 98.4905 151.122 98.7647 150.041C99.7447 146.178 103.684 143.833 107.547 144.813L113.231 146.255ZM106.008 155.074L110.354 149.786L106.531 148.816C104.87 148.395 103.189 149.395 102.767 151.056C102.346 152.718 103.347 154.399 105.008 154.82L106.008 155.074Z" fill="white"/>
<path d="M106.985 205.478L106.747 206.446C104.135 208.025 102.169 210.447 101.434 213.429C99.8446 219.877 104.336 226.628 111.51 228.396C118.683 230.164 125.778 226.356 127.388 219.827C128.997 213.299 127.529 213.706 125.93 211.175L126.168 210.207C126.983 206.903 130.278 204.979 133.503 205.774L166.871 214L158.645 247.369C157.83 250.673 159.854 253.908 163.078 254.703L164.046 254.942C166.658 253.363 169.716 252.749 172.698 253.484C179.146 255.073 183.035 262.188 181.267 269.362C179.498 276.535 172.829 281.047 166.3 279.437C159.772 277.828 160.815 276.717 159.316 274.125L158.349 273.886C155.045 273.071 151.81 275.095 151.015 278.319L142.789 311.688L60.012 291.282C51.7907 289.255 46.7501 280.916 48.6962 272.675L69.1027 189.898L102.471 198.124C105.776 198.939 107.699 202.234 106.905 205.458L106.985 205.478Z" fill="#EBB752"/>
<path d="M151.631 275.822C152.446 272.517 155.741 270.594 158.965 271.389L159.932 271.627C161.511 274.239 163.934 276.205 166.916 276.94C173.042 278.45 179.291 274.604 181.484 268.134C181.385 268.537 181.286 268.94 181.166 269.423C179.398 276.597 172.728 281.109 166.2 279.499C159.671 277.89 160.714 276.779 159.216 274.186L158.249 273.948C154.944 273.133 151.709 275.157 150.914 278.381L151.55 275.802L151.631 275.822Z" fill="#BB7D04"/>
<path d="M60.6274 288.784L143.404 309.19L142.768 311.77L59.9915 291.363C51.7703 289.336 46.7297 280.997 48.6758 272.756L49.3116 270.177C47.2849 278.398 52.3255 286.737 60.6274 288.784Z" fill="#BB7D04"/>
<path d="M214.739 113.288C217.434 114.817 219.281 117.347 220.11 120.185L220.972 120.71C223.899 122.332 227.616 121.32 229.269 118.316L245.986 88.2618L320.497 129.715C327.953 133.871 330.654 143.186 326.498 150.641L285.045 225.152L254.991 208.435C252.064 206.813 250.974 203.066 252.597 200.139L253.122 199.276C256.036 198.478 258.567 196.632 260.019 193.905C263.264 188.051 260.668 180.479 254.26 176.833C247.821 173.264 240.034 175.058 236.712 180.88C235.183 183.576 234.994 186.721 235.792 189.635L235.267 190.498C233.644 193.425 229.897 194.514 226.97 192.892L196.916 176.175L213.633 146.121C215.256 143.194 214.243 139.477 211.239 137.824L210.377 137.299C207.462 138.097 204.318 137.908 201.622 136.378C195.768 133.134 194.005 125.27 197.574 118.831C201.143 112.392 208.793 109.827 214.646 113.072L214.739 113.288Z" fill="#F4E2DC"/>
<path d="M253.091 199.353C253.276 199.338 253.492 199.246 253.631 199.123C253.026 201.743 254.148 204.519 256.536 205.925L286.435 222.58L284.937 225.199L254.883 208.481C251.956 206.859 250.866 203.112 252.489 200.185L253.014 199.322L253.091 199.353Z" fill="#CEA99C"/>
<path d="M238.411 178.431C241.655 172.577 249.519 170.815 255.958 174.384C262.397 177.953 264.962 185.602 261.718 191.456C261.362 192.118 260.961 192.672 260.451 193.273C263.11 187.542 260.437 180.386 254.275 177.018C248.575 173.835 241.699 174.921 237.963 179.325C238.086 179.016 238.179 178.785 238.303 178.477L238.411 178.431Z" fill="#CEA99C"/>
<path d="M197.667 119.046C198.053 118.307 198.485 117.675 198.995 117.075C195.827 123.407 197.667 130.854 203.367 134.037C206.062 135.567 209.207 135.756 212.121 134.958L212.984 135.483C215.911 137.105 217.001 140.853 215.378 143.779L198.661 173.833L228.715 190.551C231.056 191.849 233.924 191.39 235.838 189.743C235.838 189.743 235.807 189.82 235.853 189.928L235.328 190.79C233.706 193.717 229.958 194.807 227.031 193.185L196.977 176.467L213.695 146.413C215.317 143.486 214.304 139.77 211.3 138.117L210.438 137.592C207.523 138.39 204.379 138.201 201.683 136.671C195.829 133.426 194.067 125.562 197.636 119.123L197.667 119.046Z" fill="#CEA99C"/>
<path d="M143.404 309.19L142.769 311.769L225.545 332.175C233.767 334.202 242.106 329.161 244.152 320.859L244.788 318.28C242.761 326.502 234.422 331.542 226.181 329.596L143.404 309.19Z" fill="#461303"/>
<path d="M181.902 266.783C181.803 267.186 181.684 267.67 181.584 268.073C181.485 268.476 181.366 268.959 181.266 269.362C179.498 276.536 172.828 281.047 166.3 279.438C159.771 277.829 160.814 276.718 159.296 274.206L158.329 273.968C155.024 273.153 151.789 275.177 150.994 278.401L143.404 309.19L226.181 329.597C234.402 331.623 242.741 326.583 244.788 318.281L264.558 238.083L231.19 229.857C227.885 229.043 225.962 225.747 226.756 222.523L226.995 221.556C226.995 221.556 227.115 221.414 227.196 221.434C229.708 219.916 231.512 217.454 232.227 214.552C232.942 211.651 232.445 213.666 232.464 213.243C233.189 207.18 228.841 201.235 222.151 199.585C215.461 197.936 208.848 201.179 206.753 206.904C206.653 207.307 206.473 207.69 206.354 208.174C205.639 211.076 206.172 214.114 207.61 216.606C207.61 216.606 207.671 216.706 207.731 216.807L207.493 217.774C206.678 221.079 203.383 223.002 200.159 222.207L166.79 213.981L159.2 244.771C158.385 248.075 160.389 251.391 163.613 252.186L164.58 252.424C167.192 250.845 170.251 250.231 173.233 250.966C179.681 252.556 183.57 259.67 181.802 266.844L181.902 266.783Z" fill="#5E1903"/>
<path d="M159.28 244.791L158.644 247.37C157.829 250.674 159.853 253.909 163.077 254.704L164.045 254.943C166.657 253.364 169.695 252.83 172.677 253.565C178.803 255.076 182.529 261.466 181.483 268.134C181.583 267.731 181.682 267.328 181.801 266.844C183.57 259.671 179.761 252.576 173.233 250.966C166.704 249.357 167.112 250.825 164.58 252.424L163.613 252.186C160.308 251.371 158.385 248.075 159.199 244.771L159.28 244.791Z" fill="#461303"/>
</g>
<path d="M91.7614 235.379C88.8915 234.672 85.9451 236.454 85.2381 239.324L84.3785 242.813L87.8677 243.673L88.7274 240.183C88.9693 239.201 89.9196 238.626 90.9018 238.868L101.37 241.447C102.352 241.689 102.927 242.639 102.685 243.622L101.825 247.111L105.314 247.971L106.174 244.481C106.881 241.611 105.099 238.665 102.229 237.958L91.7614 235.379ZM76.97 242.838C75.5819 242.496 74.1148 242.72 72.8914 243.46C71.6681 244.199 70.7887 245.395 70.4467 246.783L65.289 267.719C64.947 269.107 65.1705 270.574 65.9102 271.797C66.65 273.021 67.8454 273.9 69.2335 274.242L104.127 282.838C107.016 283.55 109.938 281.783 110.65 278.894L115.808 257.958C116.15 256.57 115.926 255.103 115.186 253.879C114.447 252.656 113.251 251.776 111.863 251.435L76.97 242.838ZM93.1675 252.206C94.5642 252.55 95.8796 253.165 97.0383 254.016C98.1971 254.868 99.1766 255.94 99.9208 257.171C100.665 258.402 101.159 259.767 101.375 261.189C101.591 262.611 101.525 264.061 101.18 265.458C100.837 266.854 100.222 268.17 99.3701 269.328C98.5183 270.487 97.4463 271.467 96.2156 272.211C94.9849 272.955 93.6196 273.449 92.1977 273.665C90.7758 273.881 89.3253 273.815 87.929 273.47C86.5323 273.127 85.217 272.512 84.0582 271.66C82.8994 270.808 81.9199 269.736 81.1758 268.506C80.4316 267.275 79.9373 265.91 79.7212 264.488C79.5051 263.066 79.5714 261.615 79.9164 260.219C80.2595 258.822 80.8746 257.507 81.7264 256.348C82.5783 255.189 83.6502 254.21 84.8809 253.466C86.1116 252.722 87.477 252.227 88.8989 252.011C90.3208 251.795 91.7713 251.861 93.1675 252.206ZM90.093 257.175L89.2334 260.664L85.7441 259.804L84.8845 263.294L88.3738 264.153L87.5142 267.642L91.0035 268.502L91.8631 265.013L95.3524 265.872L96.212 262.383L92.7227 261.523L93.5823 258.034L90.093 257.175Z" fill="#5E1903"/>
<path d="M233.474 287.61L204.091 279.729L204.407 278.554L230.818 283.421L230.263 285.489L233.789 286.435L234.735 282.909C235.428 280.323 233.82 277.947 231.165 277.625L206.659 274.666C204.001 274.346 201.259 276.198 200.566 278.784L194.261 302.289C193.927 303.536 194.101 304.865 194.746 305.983C195.392 307.101 196.454 307.917 197.701 308.252L225.908 315.817C227.155 316.151 228.484 315.977 229.602 315.332C230.72 314.686 231.536 313.624 231.87 312.377L236.914 293.572C237.248 292.325 237.074 290.997 236.429 289.879C235.783 288.76 234.72 287.944 233.474 287.61ZM225.531 303.132C225.068 303.008 224.634 302.794 224.253 302.502C223.873 302.209 223.554 301.845 223.314 301.43C223.075 301.014 222.92 300.556 222.857 300.08C222.795 299.605 222.827 299.122 222.951 298.659C223.076 298.195 223.29 297.761 223.582 297.381C223.874 297.001 224.239 296.682 224.654 296.442C225.069 296.203 225.528 296.047 226.003 295.985C226.479 295.923 226.962 295.955 227.425 296.079C228.361 296.33 229.158 296.943 229.642 297.782C230.125 298.621 230.256 299.618 230.005 300.553C229.754 301.488 229.141 302.286 228.302 302.769C227.463 303.253 226.466 303.384 225.531 303.132Z" fill="#CC461B"/>
<path fill-rule="evenodd" clip-rule="evenodd" d="M283.101 132.035C285.62 131.402 288.283 131.689 290.61 132.846C292.936 134.002 294.773 135.952 295.788 138.343C298.516 138.105 301.233 138.901 303.4 140.574C305.567 142.247 307.025 144.675 307.484 147.373C307.944 150.072 307.371 152.845 305.879 155.141C304.388 157.437 302.087 159.087 299.435 159.765L285.343 163.307C283.942 163.659 282.458 163.44 281.218 162.698C279.979 161.957 279.084 160.753 278.732 159.352L275.188 145.262C274.484 142.459 274.922 139.491 276.405 137.011C277.889 134.531 280.298 132.74 283.101 132.035Z" fill="#C83201"/>
</g>
<defs>
<filter id="filter0_d_4302_22634" x="48.2583" y="88.2617" width="302.192" height="266.361" filterUnits="userSpaceOnUse" color-interpolation-filters="sRGB">
<feFlood flood-opacity="0" result="BackgroundImageFix"/>
<feColorMatrix in="SourceAlpha" type="matrix" values="0 0 0 0 0 0 0 0 0 0 0 0 0 0 0 0 0 0 127 0" result="hardAlpha"/>
<feOffset dx="22" dy="22"/>
<feComposite in2="hardAlpha" operator="out"/>
<feColorMatrix type="matrix" values="0 0 0 0 0 0 0 0 0 0 0 0 0 0 0 0 0 0 0.12 0"/>
<feBlend mode="normal" in2="BackgroundImageFix" result="effect1_dropShadow_4302_22634"/>
<feBlend mode="normal" in="SourceGraphic" in2="effect1_dropShadow_4302_22634" result="shape"/>
</filter>
<clipPath id="clip0_4302_22634">
<rect width="360" height="360" rx="8" fill="white"/>
</clipPath>
</defs>
</svg>
