<svg width="360" height="360" viewBox="0 0 360 360" fill="none" xmlns="http://www.w3.org/2000/svg">
<g clip-path="url(#clip0_3957_996)">
<rect width="360" height="360" rx="8" fill="#FD7723"/>
<path d="M126.303 29.7358C133.839 24.5137 144.052 23.5419 152.462 27.1613C158.595 29.7601 163.817 34.6363 166.572 40.7254C173.57 40.7401 180.567 40.7449 187.562 40.7206C187.908 40.7547 188.369 40.6183 188.583 40.9909C188.6 42.6569 188.532 44.3278 188.612 45.9962C186.289 46.118 183.958 46.0254 181.632 46.04C181.556 52.1194 181.661 58.1988 181.58 64.2782C179.819 64.2465 178.059 64.2709 176.3 64.2782C176.266 58.1964 176.319 52.1146 176.273 46.0327C173.725 46.0741 171.175 46.0498 168.628 46.0327C168.623 46.9875 168.913 47.8984 169.042 48.8362C169.578 53.4956 169.127 58.3182 167.327 62.6731C165.7 66.7821 163.082 70.5037 159.711 73.3705C154.959 77.4454 148.792 79.92 142.513 79.993C134.811 80.3097 127.071 77.0654 121.795 71.461C119.788 69.3298 118.078 66.8868 116.877 64.2149C112.588 64.1223 108.301 64.154 104.015 64.154C103.415 64.1272 102.76 64.3537 102.21 64.0346C102.271 58.9782 102.263 53.9194 102.212 48.8654C101.292 50.0686 100.252 51.1768 99.3017 52.3581C98.42 53.2983 97.7355 54.5697 96.4568 55.0203C95.5654 55.2907 94.7446 54.6866 94.1527 54.0899C92.8667 52.5895 91.6269 51.0453 90.3433 49.5474C90.1996 49.4768 89.9147 49.3355 89.7734 49.2649C89.693 54.2214 89.7734 59.1804 89.7198 64.1369C87.9515 64.2685 86.1759 64.1321 84.4052 64.1394C84.393 57.4194 84.3809 50.6994 84.4101 43.9819C84.4004 42.937 84.773 41.8069 85.6523 41.1834C86.5754 40.4186 88.0977 40.3893 88.9672 41.2491C90.3409 42.4889 91.5125 43.9308 92.8277 45.229C92.7132 45.3142 92.4843 45.4847 92.3698 45.57C92.6962 45.4019 92.9738 45.4506 93.1979 45.7112C94.0967 46.7439 95.127 47.6598 95.9161 48.7826C96.8124 48.047 97.4481 47.0581 98.2884 46.2641C99.2457 45.3581 100.018 44.2815 100.953 43.356C101.81 42.4864 102.556 41.4488 103.64 40.8424C104.994 40.1701 106.614 40.9836 107.244 42.2648C107.51 42.8688 107.59 43.5362 107.588 44.1938C107.595 49.087 107.585 53.9803 107.595 58.8735C110.045 58.8881 112.498 58.9173 114.948 58.8662C113.816 53.6563 114.008 48.1104 115.893 43.0953C117.842 37.7004 121.539 32.9411 126.303 29.7358ZM130.105 34.2052C125.758 36.9672 122.453 41.3173 120.984 46.2519C119.754 50.3487 119.761 54.7938 121.003 58.8857C123.636 58.893 126.272 58.9149 128.907 58.8735C128.89 57.2489 129.511 55.6609 130.573 54.4406C132.453 52.2534 135.832 51.6396 138.396 52.9159C140.559 54.0119 142.099 56.3623 141.977 58.8199C142.069 61.0705 140.774 63.2723 138.847 64.4024C137.256 65.401 135.225 65.5399 133.447 65.026C132.699 64.836 132.117 64.1905 131.313 64.1954C129.277 64.0663 127.234 64.2222 125.195 64.1442C124.62 64.1175 124.053 64.193 123.488 64.2685C125.59 67.3033 128.288 69.9776 131.601 71.6631C135.5 73.7821 140.084 74.6127 144.481 74.0281C149.062 73.4923 153.395 71.3513 156.742 68.1972C159.84 65.2305 162.022 61.3238 162.957 57.1393C163.486 54.7475 163.484 52.2753 163.291 49.8445C163.091 48.5488 162.921 47.2238 162.366 46.0206C159.774 46.0839 157.18 46.0327 154.589 46.0522C154.55 46.9632 154.464 47.8887 154.094 48.7339C153.01 51.5203 149.824 53.2837 146.887 52.6821C143.375 52.1803 140.766 48.4051 141.624 44.9416C142.181 41.5706 145.735 39.1642 149.077 39.7707C150.29 39.8413 151.24 40.8521 152.479 40.7352C154.925 40.7279 157.373 40.7474 159.818 40.7206C159.764 40.5988 159.66 40.3577 159.606 40.2359C155.787 34.5584 149.106 30.8781 142.24 30.8537C137.977 30.6857 133.7 31.9376 130.105 34.2052ZM227.142 40.6913C229.183 40.7328 231.224 40.6816 233.267 40.7157C231.041 44.0038 228.73 47.2384 226.474 50.507C226.216 50.9649 225.602 51.3522 225.734 51.9319C228.328 56.0506 231.027 60.1084 233.579 64.2514C231.446 64.2953 229.31 64.2222 227.176 64.2953C225.493 61.7963 223.988 59.1828 222.351 56.6546C220.794 59.1706 219.348 61.7524 217.789 64.266C215.604 64.2636 213.417 64.2636 211.235 64.2758C211.31 64.0955 211.466 63.7351 211.541 63.5548C213.792 60.1376 216.018 56.7058 218.252 53.2788C218.364 53.2959 218.588 53.3324 218.7 53.3494L218.305 53.2447C218.546 52.8185 218.805 52.402 219.09 52.0001C216.552 48.3076 214.031 44.603 211.512 40.8959C212.094 40.611 212.745 40.706 213.371 40.7035C214.844 40.7157 216.32 40.7035 217.794 40.7084C219.404 43.0004 220.848 45.4141 222.543 47.6451C224.019 45.2899 225.573 42.9857 227.142 40.6913ZM36.4862 42.3476C37.9281 41.1907 39.8255 40.7011 41.6546 40.7035C43.5204 40.7108 45.3885 40.7084 47.2566 40.7035C49.3732 40.6962 51.5483 41.4708 53.0072 43.0369C54.2518 44.4057 54.7901 46.2836 54.7341 48.1079C54.7536 53.5029 54.7926 58.8979 54.7146 64.2904C46.5284 64.2271 38.3397 64.2904 30.1559 64.2587L30.039 64.193C29.9611 62.4417 30.0244 60.6832 30.022 58.9295C31.3348 58.9271 32.6476 58.9149 33.9604 58.9393C34.0457 55.1689 33.9434 51.3985 34.0189 47.6281C34.0773 45.6382 34.8835 43.5922 36.4862 42.3476ZM40.4636 46.6733C39.4504 47.4625 39.4382 48.88 39.4358 50.0467C39.4942 53.0109 39.3335 55.9775 39.5478 58.9344C42.7921 58.9149 46.0364 58.9319 49.2807 58.9198C49.3148 55.8021 49.2685 52.6821 49.2977 49.5644C49.2953 48.6194 49.1759 47.5672 48.5281 46.8316C47.2859 45.7721 45.5907 46.0741 44.0903 46.0473C42.87 46.0547 41.4915 45.8598 40.4636 46.6733ZM61.0887 42.3671C62.477 41.2735 64.2648 40.7693 66.016 40.7474C68.2861 40.7255 70.5561 40.7425 72.8261 40.7352C74.95 40.7717 77.186 41.4318 78.6693 43.0223C79.9236 44.396 80.401 46.2836 80.4375 48.103C80.4716 50.943 80.4449 53.7854 80.4546 56.6254C80.4083 58.4619 80.0722 60.4396 78.7813 61.8401C78.1651 62.5026 76.5015 63.6279 75.6442 63.8666C74.7284 64.1077 73.7833 64.2685 72.8359 64.2636C70.561 64.2612 68.2861 64.2733 66.0136 64.2612C63.6778 64.2344 61.2154 63.2942 59.8344 61.3359C58.7675 59.8307 58.5678 57.9138 58.5751 56.1188C58.5897 53.2837 58.5386 50.4461 58.6092 47.611C58.6872 45.6382 59.4617 43.5727 61.0887 42.3671ZM64.5352 46.8657C64.1966 47.6354 63.9043 48.444 63.9384 49.2965C63.9531 51.7054 63.88 54.1167 63.9774 56.5207C64.0456 57.8359 65.1977 58.8613 66.4813 58.9417C68.3543 58.9807 70.2322 58.9393 72.1076 58.9636C72.9845 59.0026 73.871 58.6348 74.4531 57.9747C75.0621 57.3634 75.0109 56.4281 75.0791 55.6341C75.101 53.5272 75.0864 51.418 75.0962 49.3111C75.0645 48.4099 74.9427 47.365 74.1901 46.7561C73.6031 46.3055 72.8627 46.0133 72.1149 46.0449C70.3247 46.0547 68.5345 46.0498 66.7443 46.0473C65.9284 46.0254 65.2172 46.4833 64.5352 46.8657ZM191.937 42.9565C193.323 41.3758 195.503 40.7839 197.539 40.7084C201.419 40.7157 205.301 40.6913 209.184 40.7181C209.162 42.4913 209.291 44.2718 209.123 46.0376C205.584 45.9986 202.045 46.0303 198.506 46.0206C197.514 45.9913 196.489 46.364 195.909 47.2019C195.342 47.8449 195.505 48.7485 195.437 49.5352C195.887 49.5961 196.343 49.6375 196.803 49.6302C200.934 49.6131 205.065 49.6424 209.196 49.6156C209.098 51.4326 209.379 53.2569 209.142 55.0641C204.592 55.0349 200.043 55.0666 195.493 55.0495C195.456 55.846 195.374 56.7009 195.763 57.434C196.219 58.4862 197.432 58.9782 198.523 58.9393C202.074 58.9271 205.625 58.9393 209.176 58.932C209.284 60.7075 209.225 62.4783 209.181 64.2563C205.384 64.2806 201.587 64.2563 197.792 64.266C195.661 64.2441 193.374 63.6425 191.915 61.9984C190.558 60.6734 190.161 58.686 190.1 56.8592C190.088 53.8536 190.071 50.848 190.122 47.8424C190.164 46.0815 190.678 44.2425 191.937 42.9565ZM235.182 40.6938C236.86 40.7474 238.543 40.6548 240.219 40.7303C240.304 40.7742 240.472 40.8643 240.555 40.9081C240.489 43.5216 240.552 46.135 240.506 48.7485C243.799 49.0213 247.112 48.7728 250.41 48.8678C250.867 48.8971 251.323 48.8289 251.776 48.7412C251.715 46.0912 251.808 43.4388 251.725 40.7912C253.422 40.5939 255.142 40.7912 256.849 40.6694C256.896 40.818 256.983 41.1127 257.03 41.2613C257.027 48.5756 257.022 55.8898 257.03 63.2017C257.032 63.5767 256.927 63.9372 256.84 64.2977C255.144 64.2441 253.449 64.2685 251.756 64.266C251.752 60.8756 251.778 57.4827 251.739 54.0899C248.01 54.1508 244.281 54.1142 240.552 54.1094C240.482 57.4949 240.555 60.8853 240.518 64.2733C238.738 64.266 236.957 64.2514 235.179 64.2831C235.15 56.4208 235.14 48.5561 235.182 40.6938ZM261.17 40.7279C262.98 40.6816 264.795 40.7108 266.607 40.7157C266.653 45.7673 266.585 50.8188 266.638 55.8703C269.495 51.9855 272.145 47.952 274.949 44.0282C275.684 42.9224 276.517 41.8824 277.182 40.7279C279.097 40.6597 281.016 40.7669 282.93 40.6694C283.074 46.7902 282.952 52.9183 282.991 59.044C282.955 60.7952 283.069 62.5513 282.926 64.3001C281.216 64.2368 279.503 64.2587 277.794 64.2904C277.703 59.3192 277.828 54.3432 277.733 49.372C277.056 49.8494 276.744 50.6483 276.232 51.2694C273.234 55.6048 270.238 59.9403 267.228 64.2685C265.228 64.2782 263.228 64.2295 261.231 64.305C261.08 61.4236 261.202 58.5349 261.163 55.6487C261.165 50.6751 261.153 45.7015 261.17 40.7279ZM287.035 40.8643C288.798 40.6061 290.598 40.7693 292.376 40.7498C292.454 43.429 292.4 46.1107 292.395 48.7899C293.394 48.9068 294.434 48.9701 295.425 48.8264C296.551 47.8229 297.442 46.5954 298.46 45.4872C299.741 43.9551 301.156 42.5376 302.382 40.9568C302.815 40.5915 303.443 40.7717 303.97 40.7254C305.601 40.8034 307.253 40.5915 308.87 40.8813C305.743 44.3594 302.92 48.1128 299.771 51.569C300.645 53.1619 301.885 54.521 302.903 56.0238C304.871 58.7103 306.797 61.4285 308.829 64.0663C308.39 64.3269 307.871 64.2806 307.389 64.2806C305.752 64.249 304.118 64.2782 302.486 64.2538C300.85 62.1227 299.288 59.9354 297.673 57.7896C296.845 56.6108 295.881 55.5293 295.116 54.3066C294.222 53.9973 293.284 54.2311 292.376 54.2896C292.434 57.5388 292.42 60.7952 292.393 64.0444C292.325 64.1004 292.188 64.2076 292.12 64.2636C290.44 64.3001 288.759 64.2344 287.081 64.2806C287.017 56.4768 287.11 48.6681 287.035 40.8643ZM310.344 43.5289C311.788 41.5682 314.299 40.7401 316.657 40.7011C318.764 40.7011 320.873 40.6962 322.982 40.7084C324.965 40.7571 326.96 41.5317 328.331 42.993C329.544 44.2864 329.987 46.1229 329.977 47.8595C330.007 51.3449 329.982 54.8303 329.992 58.3182C329.948 60.3081 330.075 62.3029 329.921 64.2904C325.981 64.2319 322.04 64.2806 318.099 64.266C315.934 64.2733 313.62 64.4219 311.674 63.2942C310.044 62.527 308.929 60.973 308.41 59.2827C308.11 58.0088 308.164 56.6887 308.198 55.3905C308.181 53.3641 309.25 51.3522 310.945 50.2415C312.295 49.2405 314.014 48.8459 315.673 48.863C318.106 48.8995 320.537 48.6876 322.97 48.8337C323.581 48.88 324.198 48.8021 324.799 48.6706C324.692 48.0056 324.734 47.292 324.407 46.6879C323.988 46.0717 323.24 45.7112 322.502 45.7502C320.542 45.7453 318.581 45.7258 316.625 45.7599C315.98 45.7234 315.42 46.0425 314.903 46.381C314.713 46.8414 314.538 47.3041 314.38 47.7767C312.641 47.7523 310.904 47.7962 309.165 47.7669C309.065 46.2714 309.396 44.7224 310.344 43.5289ZM313.659 55.7656C313.568 56.6717 313.488 57.8505 314.341 58.4399C315.259 59.2169 316.521 58.9734 317.626 59.0781C320.021 59.1049 322.42 59.061 324.809 58.9393C324.731 57.3293 324.78 55.7193 324.768 54.1069C321.901 54.0923 319.034 54.0899 316.17 54.1069C315.139 54.141 313.895 54.655 313.659 55.7656ZM154.978 52.5457C156.393 52.5968 157.806 52.5554 159.221 52.5773C159.353 59.2072 155.178 65.6203 149.172 68.3604C148.952 68.4456 148.728 68.5236 148.504 68.5918C148.185 68.1631 147.774 68.6673 147.686 69.0058C145.801 69.6659 143.811 69.9825 141.816 69.9898C141.801 68.5309 141.799 67.0719 141.818 65.6105C148.18 65.7834 154.099 60.5249 154.766 54.2117C154.805 53.6515 154.854 53.0913 154.978 52.5457Z" fill="white"/>
<path d="M30 118C30 111.373 35.3726 106 42 106H318C324.627 106 330 111.373 330 118V369H30V118Z" fill="#FDFDFD"/>
<path d="M30 118C30 111.373 35.3726 106 42 106H318C324.627 106 330 111.373 330 118V134H30V118Z" fill="#E66515"/>
<circle cx="46.5" cy="120.5" r="3.5" fill="white"/>
<circle cx="56.5" cy="120.5" r="3.5" fill="white"/>
<circle cx="66.5" cy="120.5" r="3.5" fill="white"/>
<rect x="30" y="134" width="300" height="18" fill="#707586"/>
<rect x="42" y="162" width="45" height="16" rx="4" fill="#FD7723"/>
<rect x="42" y="259" width="63" height="9" rx="4.5" fill="#3C3F4A"/>
<rect x="42" y="188" width="179" height="61" rx="4" fill="#F96000"/>
<rect x="226" y="188" width="37" height="61" rx="4" fill="#FD7723"/>
<rect x="266" y="188" width="37" height="61" rx="4" fill="#FDFBCE"/>
<path d="M306 192C306 189.791 307.791 188 310 188H318V249H310C307.791 249 306 247.209 306 245V192Z" fill="#E2E6F2"/>
<rect x="92" y="162" width="45" height="16" rx="4" fill="#FDA623"/>
<rect x="260" y="162" width="16" height="16" rx="4" fill="#E2E6F2"/>
<rect x="42" y="278" width="43" height="43" rx="4" fill="#E2E6F2"/>
<rect x="42" y="325" width="43" height="43" rx="4" fill="#E2E6F2"/>
<rect x="89" y="278" width="43" height="43" rx="4" fill="#E2E6F2"/>
<rect x="89" y="325" width="43" height="43" rx="4" fill="#E2E6F2"/>
<rect x="136" y="278" width="43" height="43" rx="4" fill="#E2E6F2"/>
<rect x="136" y="325" width="43" height="43" rx="4" fill="#E2E6F2"/>
<rect x="183" y="278" width="43" height="43" rx="4" fill="#E2E6F2"/>
<rect x="183" y="325" width="43" height="43" rx="4" fill="#E2E6F2"/>
<rect x="230" y="278" width="43" height="43" rx="4" fill="#E2E6F2"/>
<rect x="230" y="325" width="43" height="43" rx="4" fill="#E2E6F2"/>
<rect x="277" y="278" width="43" height="43" rx="4" fill="#E2E6F2"/>
<rect x="277" y="325" width="43" height="43" rx="4" fill="#E2E6F2"/>
<rect x="281" y="162" width="16" height="16" rx="4" fill="#E2E6F2"/>
<rect x="302" y="162" width="16" height="16" rx="4" fill="#E2E6F2"/>
<rect x="142.5" y="162.5" width="112" height="15" rx="3.5" stroke="#FDA623"/>
<g filter="url(#filter0_d_3957_996)">
<path d="M188 188C188 169.222 203.222 154 222 154C240.778 154 256 169.222 256 188C256 206.778 240.778 222 222 222H194C190.686 222 188 219.314 188 216V188Z" fill="#FFCA0E"/>
</g>
<circle cx="222" cy="188" r="23.2632" fill="white"/>
<path fill-rule="evenodd" clip-rule="evenodd" d="M222 202.316C230.401 202.316 237.211 195.506 237.211 187.105C237.211 178.705 230.401 171.895 222 171.895C213.6 171.895 206.79 178.705 206.79 187.105C206.79 195.506 213.6 202.316 222 202.316ZM227.621 190.955C227.927 190.217 228.084 189.425 228.084 188.626H215.916C215.916 189.425 216.073 190.217 216.379 190.955C216.685 191.693 217.133 192.364 217.698 192.929C218.263 193.494 218.933 193.942 219.672 194.248C220.41 194.553 221.201 194.711 222 194.711C222.799 194.711 223.59 194.553 224.328 194.248C225.066 193.942 225.737 193.494 226.302 192.929C226.867 192.364 227.315 191.693 227.621 190.955Z" fill="#1C1D23"/>
<g filter="url(#filter1_d_3957_996)">
<path d="M207 359.5C207 343.76 194.24 331 178.5 331C162.76 331 150 343.76 150 359.5C150 375.24 162.76 388 178.5 388H201.971C204.748 388 207 385.748 207 382.971V359.5Z" fill="#FFCA0E"/>
</g>
<circle cx="19.5" cy="19.5" r="19.5" transform="matrix(-1 0 0 1 198 340)" fill="white"/>
<path fill-rule="evenodd" clip-rule="evenodd" d="M178.5 371.5C171.458 371.5 165.75 365.792 165.75 358.75C165.75 351.708 171.458 346 178.5 346C185.542 346 191.25 351.708 191.25 358.75C191.25 365.792 185.542 371.5 178.5 371.5ZM173.788 361.977C173.532 361.358 173.4 360.695 173.4 360.026H183.6C183.6 360.695 183.468 361.358 183.212 361.977C182.956 362.596 182.58 363.158 182.106 363.632C181.633 364.105 181.07 364.481 180.452 364.737C179.833 364.994 179.17 365.126 178.5 365.126C177.83 365.126 177.167 364.994 176.548 364.737C175.93 364.481 175.367 364.105 174.894 363.632C174.42 363.158 174.045 362.596 173.788 361.977Z" fill="#1C1D23"/>
<g filter="url(#filter2_d_3957_996)">
<path d="M61 266C61 248.327 75.3269 234 93 234C110.673 234 125 248.327 125 266C125 283.673 110.673 298 93 298H67C63.6863 298 61 295.314 61 292V266Z" fill="#FFCA0E"/>
</g>
<circle cx="93" cy="266" r="21.8947" fill="white"/>
<path fill-rule="evenodd" clip-rule="evenodd" d="M92.9999 279.474C100.906 279.474 107.316 273.065 107.316 265.159C107.316 257.252 100.906 250.843 92.9999 250.843C85.0935 250.843 78.6841 257.252 78.6841 265.159C78.6841 273.065 85.0935 279.474 92.9999 279.474ZM98.2903 268.782C98.578 268.087 98.7261 267.342 98.7261 266.59L87.2735 266.59C87.2735 267.342 87.4216 268.087 87.7094 268.782C87.9972 269.476 88.419 270.108 88.9507 270.639C89.4825 271.171 90.1137 271.593 90.8085 271.881C91.5032 272.169 92.2478 272.317 92.9998 272.317C93.7518 272.317 94.4964 272.169 95.1912 271.881C95.8859 271.593 96.5172 271.171 97.0489 270.639C97.5807 270.108 98.0025 269.476 98.2903 268.782Z" fill="#1C1D23"/>
<g filter="url(#filter3_d_3957_996)">
<path d="M146 180C146 200.987 128.987 218 108 218C87.0132 218 70 200.987 70 180C70 159.013 87.0132 142 108 142L140 142C143.314 142 146 144.686 146 148L146 180Z" fill="#DC0000"/>
</g>
<circle cx="108" cy="180" r="26" fill="white"/>
<path fill-rule="evenodd" clip-rule="evenodd" d="M108 197C117.389 197 125 189.389 125 180C125 170.611 117.389 163 108 163C98.6112 163 91 170.611 91 180C91 189.389 98.6112 197 108 197ZM101.718 185.898C101.376 186.723 101.2 187.607 101.2 188.5L114.8 188.5C114.8 187.607 114.624 186.723 114.282 185.898C113.941 185.073 113.44 184.323 112.808 183.692C112.177 183.06 111.427 182.559 110.602 182.218C109.777 181.876 108.893 181.7 108 181.7C107.107 181.7 106.223 181.876 105.398 182.218C104.573 182.559 103.823 183.06 103.192 183.692C102.56 184.323 102.059 185.073 101.718 185.898Z" fill="black"/>
<g filter="url(#filter4_d_3957_996)">
<path d="M287 280C287 302.644 268.644 321 246 321C223.356 321 205 302.644 205 280C205 257.356 223.356 239 246 239L281 239C284.314 239 287 241.686 287 245L287 280Z" fill="#DC0000"/>
</g>
<circle cx="246" cy="280" r="28.0526" fill="white"/>
<path fill-rule="evenodd" clip-rule="evenodd" d="M246 298.341C256.13 298.341 264.342 290.129 264.342 279.999C264.342 269.869 256.13 261.657 246 261.657C235.87 261.657 227.658 269.869 227.658 279.999C227.658 290.129 235.87 298.341 246 298.341ZM239.221 286.363C238.853 287.253 238.663 288.207 238.663 289.171H253.337C253.337 288.207 253.147 287.253 252.778 286.363C252.409 285.473 251.869 284.664 251.188 283.983C250.506 283.301 249.698 282.761 248.807 282.392C247.917 282.024 246.963 281.834 246 281.834C245.036 281.834 244.082 282.024 243.192 282.392C242.302 282.761 241.493 283.301 240.812 283.983C240.131 284.664 239.59 285.473 239.221 286.363Z" fill="black"/>
</g>
<defs>
<filter id="filter0_d_3957_996" x="185.1" y="154" width="81.8" height="82.9" filterUnits="userSpaceOnUse" color-interpolation-filters="sRGB">
<feFlood flood-opacity="0" result="BackgroundImageFix"/>
<feColorMatrix in="SourceAlpha" type="matrix" values="0 0 0 0 0 0 0 0 0 0 0 0 0 0 0 0 0 0 127 0" result="hardAlpha"/>
<feOffset dx="4" dy="8"/>
<feGaussianBlur stdDeviation="3.45"/>
<feComposite in2="hardAlpha" operator="out"/>
<feColorMatrix type="matrix" values="0 0 0 0 1 0 0 0 0 0.792157 0 0 0 0 0.054902 0 0 0 0.6 0"/>
<feBlend mode="multiply" in2="BackgroundImageFix" result="effect1_dropShadow_3957_996"/>
<feBlend mode="normal" in="SourceGraphic" in2="effect1_dropShadow_3957_996" result="shape"/>
</filter>
<filter id="filter1_d_3957_996" x="147.569" y="331" width="68.5676" height="69.4897" filterUnits="userSpaceOnUse" color-interpolation-filters="sRGB">
<feFlood flood-opacity="0" result="BackgroundImageFix"/>
<feColorMatrix in="SourceAlpha" type="matrix" values="0 0 0 0 0 0 0 0 0 0 0 0 0 0 0 0 0 0 127 0" result="hardAlpha"/>
<feOffset dx="3.35294" dy="6.70588"/>
<feGaussianBlur stdDeviation="2.89191"/>
<feComposite in2="hardAlpha" operator="out"/>
<feColorMatrix type="matrix" values="0 0 0 0 1 0 0 0 0 0.792157 0 0 0 0 0.054902 0 0 0 0.6 0"/>
<feBlend mode="multiply" in2="BackgroundImageFix" result="effect1_dropShadow_3957_996"/>
<feBlend mode="normal" in="SourceGraphic" in2="effect1_dropShadow_3957_996" result="shape"/>
</filter>
<filter id="filter2_d_3957_996" x="58.1" y="234" width="77.8" height="78.9" filterUnits="userSpaceOnUse" color-interpolation-filters="sRGB">
<feFlood flood-opacity="0" result="BackgroundImageFix"/>
<feColorMatrix in="SourceAlpha" type="matrix" values="0 0 0 0 0 0 0 0 0 0 0 0 0 0 0 0 0 0 127 0" result="hardAlpha"/>
<feOffset dx="4" dy="8"/>
<feGaussianBlur stdDeviation="3.45"/>
<feComposite in2="hardAlpha" operator="out"/>
<feColorMatrix type="matrix" values="0 0 0 0 1 0 0 0 0 0.792157 0 0 0 0 0.054902 0 0 0 0.6 0"/>
<feBlend mode="multiply" in2="BackgroundImageFix" result="effect1_dropShadow_3957_996"/>
<feBlend mode="normal" in="SourceGraphic" in2="effect1_dropShadow_3957_996" result="shape"/>
</filter>
<filter id="filter3_d_3957_996" x="67.1" y="142" width="89.8" height="90.9" filterUnits="userSpaceOnUse" color-interpolation-filters="sRGB">
<feFlood flood-opacity="0" result="BackgroundImageFix"/>
<feColorMatrix in="SourceAlpha" type="matrix" values="0 0 0 0 0 0 0 0 0 0 0 0 0 0 0 0 0 0 127 0" result="hardAlpha"/>
<feOffset dx="4" dy="8"/>
<feGaussianBlur stdDeviation="3.45"/>
<feComposite in2="hardAlpha" operator="out"/>
<feColorMatrix type="matrix" values="0 0 0 0 0.862745 0 0 0 0 0 0 0 0 0 0 0 0 0 0.4 0"/>
<feBlend mode="multiply" in2="BackgroundImageFix" result="effect1_dropShadow_3957_996"/>
<feBlend mode="normal" in="SourceGraphic" in2="effect1_dropShadow_3957_996" result="shape"/>
</filter>
<filter id="filter4_d_3957_996" x="202.1" y="239" width="95.8" height="96.9" filterUnits="userSpaceOnUse" color-interpolation-filters="sRGB">
<feFlood flood-opacity="0" result="BackgroundImageFix"/>
<feColorMatrix in="SourceAlpha" type="matrix" values="0 0 0 0 0 0 0 0 0 0 0 0 0 0 0 0 0 0 127 0" result="hardAlpha"/>
<feOffset dx="4" dy="8"/>
<feGaussianBlur stdDeviation="3.45"/>
<feComposite in2="hardAlpha" operator="out"/>
<feColorMatrix type="matrix" values="0 0 0 0 0.862745 0 0 0 0 0 0 0 0 0 0 0 0 0 0.4 0"/>
<feBlend mode="multiply" in2="BackgroundImageFix" result="effect1_dropShadow_3957_996"/>
<feBlend mode="normal" in="SourceGraphic" in2="effect1_dropShadow_3957_996" result="shape"/>
</filter>
<clipPath id="clip0_3957_996">
<rect width="360" height="360" rx="8" fill="white"/>
</clipPath>
</defs>
</svg>
