<svg width="360" height="360" viewBox="0 0 360 360" fill="none" xmlns="http://www.w3.org/2000/svg">
<g clip-path="url(#clip0_2571_79294)">
<rect width="360" height="360" rx="8" fill="#846AC8"/>
<g clip-path="url(#clip1_2571_79294)">
<path d="M30.4656 82.1053V30H56.9084L56.0756 38.1284H40.668V50.5642H51.6337L51.5643 59.3179H40.668V73.9768H57.4636L56.6308 82.1053H30.4656ZM70.4248 83.0084C68.7591 83.0084 67.2553 82.499 65.9136 81.48C64.5718 80.4148 63.5308 79.0021 62.7904 77.2421C62.05 75.4358 61.6799 73.4211 61.6799 71.1979C61.6799 66.1494 63.392 62.6063 66.8158 60.5684C70.286 58.4842 74.3115 57.3032 78.8921 57.0253C78.8921 54.5242 78.7302 52.6715 78.4063 51.4674C78.0823 50.2632 77.2958 49.6611 76.0466 49.6611C74.9824 49.6611 74.1726 50.0779 73.6174 50.9116C73.0622 51.7453 72.7152 52.8105 72.5764 54.1074L63.068 52.44C63.5308 48.8737 64.9882 46.3263 67.4405 44.7979C69.8927 43.2695 72.7615 42.5053 76.0466 42.5053C80.2571 42.5053 83.4034 43.6168 85.4855 45.84C87.6139 48.0632 88.6781 50.958 88.6781 54.5242V74.7411C88.6781 76.9178 89.0251 79.2337 89.7191 81.6884L80.2108 82.5221L79.1003 77.7284C78.2675 79.2105 77.0413 80.461 75.4219 81.48C73.8025 82.499 72.1369 83.0084 70.4248 83.0084ZM74.9361 76.0611C75.7226 76.0611 76.3705 75.8757 76.8794 75.5053C77.4346 75.1348 78.1056 74.5326 78.8921 73.699V62.8611C76.5787 62.8611 74.7279 63.4863 73.3398 64.7368C71.9517 65.9874 71.2577 67.9326 71.2577 70.5726C71.2577 72.3326 71.5584 73.699 72.1599 74.6716C72.8076 75.5978 73.7331 76.0611 74.9361 76.0611ZM109.017 83.0084C105.177 83.0084 102.077 82.1516 99.7169 80.4379C97.3572 78.678 95.8303 76.2464 95.1363 73.1432L102.701 70.6421C102.886 71.5222 103.233 72.3095 103.742 73.0042C104.807 74.5326 106.357 75.2968 108.392 75.2968C109.549 75.2968 110.66 75.0421 111.724 74.5326C112.788 74.0232 113.32 73.2357 113.32 72.1705C113.32 70.7347 112.325 69.6231 110.336 68.8358L102.146 65.5011C99.9715 64.5748 98.3058 63.1853 97.149 61.3326C95.9922 59.4799 95.4139 57.2106 95.4139 54.5242C95.4139 52.0232 96.0155 49.8695 97.2184 48.0632C98.4677 46.2568 100.087 44.8905 102.077 43.9642C104.112 42.9916 106.287 42.5053 108.601 42.5053C111.516 42.5053 114.199 43.3621 116.652 45.0758C119.104 46.7432 120.746 49.0358 121.579 51.9537L113.528 54.4547C113.343 53.6674 113.019 52.8799 112.557 52.0926C111.539 50.5178 110.243 49.7305 108.67 49.7305C107.513 49.7305 106.519 50.0084 105.686 50.5642C104.853 51.0736 104.436 51.8378 104.436 52.8568C104.436 54.061 105.57 55.1726 107.837 56.1916L114.778 59.04C117.23 60.198 119.15 61.6569 120.538 63.4168C121.926 65.1768 122.62 67.5389 122.62 70.5032C122.62 73.1895 121.973 75.4822 120.677 77.3811C119.381 79.2338 117.693 80.6463 115.61 81.619C113.528 82.5452 111.33 83.0084 109.017 83.0084ZM130.222 94.4716C129.111 94.4716 127.746 94.3326 126.127 94.0547V85.9263C127.839 86.0189 129.204 86.0653 130.222 86.0653C134.293 86.0653 136.329 84.1664 136.329 80.3684V78.4232L125.155 43.4779L135.704 42.9916L141.187 67.5158L146.393 43.2L155.207 43.1305L145.213 81.4105C143.825 86.4126 141.789 89.84 139.105 91.6926C136.468 93.5453 133.507 94.4716 130.222 94.4716ZM161.16 30H171.849C178.696 30 183.809 32.1768 187.187 36.5305C190.564 40.8842 192.253 47.461 192.253 56.2611C192.253 60.9389 191.606 65.2232 190.31 69.1137C189.061 73.0042 187.048 76.1536 184.272 78.5621C181.496 80.9242 177.956 82.1053 173.653 82.1053H161.16V30ZM172.751 73.9768C176.267 73.9768 178.696 72.4715 180.038 69.4611C181.426 66.4042 182.12 62.6526 182.12 58.2063V55.8442C182.12 52.6484 181.912 49.8231 181.496 47.3684C181.126 44.8674 180.223 42.7137 178.789 40.9074C177.401 39.0547 175.296 38.1284 172.473 38.1284H171.293V73.9768H172.751ZM212.316 83.0084C207.643 83.0084 204.034 81.1557 201.488 77.4505C198.99 73.7453 197.74 68.8127 197.74 62.6526C197.74 56.539 198.99 51.6527 201.488 47.9937C203.987 44.3347 207.596 42.5053 212.316 42.5053C216.988 42.5053 220.597 44.3347 223.143 47.9937C225.733 51.6527 227.029 56.539 227.029 62.6526C227.029 68.7663 225.733 73.699 223.143 77.4505C220.597 81.1557 216.988 83.0084 212.316 83.0084ZM212.316 75.7832C214.398 75.7832 215.739 74.5095 216.341 71.9621C216.943 69.4147 217.243 66.2884 217.243 62.5832C217.243 58.878 216.943 55.7516 216.341 53.2042C215.739 50.6568 214.398 49.3832 212.316 49.3832C210.233 49.3832 208.915 50.5873 208.359 52.9958C207.804 55.4043 207.527 58.3453 207.527 61.819C207.527 66.0799 207.804 69.4842 208.359 72.0316C208.915 74.5326 210.233 75.7832 212.316 75.7832ZM246.363 83.0084C243.403 83.0084 240.858 82.0822 238.729 80.2295C236.647 78.3768 235.075 75.9221 234.009 72.8653C232.946 69.8084 232.413 66.4968 232.413 62.9305C232.413 59.4105 232.923 56.099 233.94 52.9958C235.005 49.8926 236.602 47.3684 238.729 45.4232C240.858 43.4779 243.473 42.5053 246.572 42.5053C248.931 42.5053 251.038 43.1074 252.887 44.3116C254.786 45.4695 256.266 47.1137 257.329 49.2442C258.395 51.3748 258.972 53.8064 259.064 56.539L249.834 56.9558C249.834 56.7705 249.742 56.0295 249.556 54.7326C249.417 53.4357 249.07 52.3705 248.515 51.5368C248.007 50.7032 247.335 50.2863 246.502 50.2863C244.653 50.2863 243.473 51.5599 242.963 54.1074C242.454 56.6084 242.199 59.4337 242.199 62.5832C242.199 65.6864 242.454 68.5115 242.963 71.059C243.518 73.56 244.791 74.8105 246.78 74.8105C249.278 74.8105 250.574 72.3559 250.666 67.4463L258.856 68.3495C258.256 73.1663 257.052 76.8253 255.247 79.3263C253.443 81.781 250.482 83.0084 246.363 83.0084ZM277.503 83.0084C273.662 83.0084 270.563 82.1516 268.203 80.4379C265.843 78.678 264.316 76.2464 263.622 73.1432L271.187 70.6421C271.371 71.5222 271.718 72.3095 272.229 73.0042C273.292 74.5326 274.842 75.2968 276.879 75.2968C278.034 75.2968 279.145 75.0421 280.21 74.5326C281.274 74.0232 281.806 73.2357 281.806 72.1705C281.806 70.7347 280.81 69.6231 278.822 68.8358L270.632 65.5011C268.456 64.5748 266.791 63.1853 265.635 61.3326C264.478 59.4799 263.9 57.2106 263.9 54.5242C263.9 52.0232 264.5 49.8695 265.705 48.0632C266.954 46.2568 268.573 44.8905 270.563 43.9642C272.598 42.9916 274.772 42.5053 277.087 42.5053C280.002 42.5053 282.684 43.3621 285.138 45.0758C287.589 46.7432 289.232 49.0358 290.065 51.9537L282.014 54.4547C281.829 53.6674 281.504 52.8799 281.043 52.0926C280.024 50.5178 278.728 49.7305 277.156 49.7305C275.999 49.7305 275.005 50.0084 274.172 50.5642C273.339 51.0736 272.923 51.8378 272.923 52.8568C272.923 54.061 274.056 55.1726 276.323 56.1916L283.264 59.04C285.715 60.198 287.636 61.6569 289.024 63.4168C290.412 65.1768 291.106 67.5389 291.106 70.5032C291.106 73.1895 290.457 75.4822 289.163 77.3811C287.867 79.2338 286.179 80.6463 284.097 81.619C282.014 82.5452 279.816 83.0084 277.503 83.0084Z" fill="white"/>
</g>
<circle cx="272.5" cy="148.5" r="35.5" fill="#DFD3FF"/>
<g clip-path="url(#clip2_2571_79294)">
<g filter="url(#filter0_d_2571_79294)">
<path d="M124 158C124 151.373 129.373 146 136 146H318C324.627 146 330 151.373 330 158V390H124V158Z" fill="#362465"/>
</g>
<path d="M134 164C134 159.582 137.582 156 142 156H312C316.418 156 320 159.582 320 164V390H134V164Z" fill="#EBE6F8"/>
<rect x="243" y="166" width="4" height="38" rx="2" transform="rotate(90 243 166)" fill="#AD97E7"/>
<rect x="250" y="166" width="4" height="4" rx="2" transform="rotate(90 250 166)" fill="#AD97E7"/>
<rect x="194" y="185" width="83" height="16" rx="8" fill="#D8CFEF"/>
<rect x="174" y="212" width="126" height="6" rx="3" fill="#D8CFEF"/>
<rect x="174" y="222" width="100" height="3" rx="1.5" fill="#D8CFEF"/>
<rect x="174" y="229" width="112" height="3" rx="1.5" fill="#D8CFEF"/>
<rect x="174" y="236" width="112" height="3" rx="1.5" fill="#D8CFEF"/>
<rect x="174" y="243" width="86" height="3" rx="1.5" fill="#D8CFEF"/>
<rect x="174" y="250" width="126" height="3" rx="1.5" fill="#D8CFEF"/>
<rect x="174" y="263" width="78" height="6" rx="3" fill="#D8CFEF"/>
<rect x="174" y="273" width="126" height="3" rx="1.5" fill="#D8CFEF"/>
<rect x="174" y="280" width="97" height="3" rx="1.5" fill="#D8CFEF"/>
<rect x="174" y="287" width="86" height="3" rx="1.5" fill="#D8CFEF"/>
<rect x="174" y="294" width="112" height="3" rx="1.5" fill="#D8CFEF"/>
<rect x="174" y="301" width="97" height="3" rx="1.5" fill="#D8CFEF"/>
<rect x="174" y="314" width="107" height="6" rx="3" fill="#D8CFEF"/>
<rect x="174" y="324" width="116" height="3" rx="1.5" fill="#D8CFEF"/>
<rect x="174" y="331" width="126" height="3" rx="1.5" fill="#D8CFEF"/>
<rect x="174" y="338" width="126" height="3" rx="1.5" fill="#D8CFEF"/>
<rect x="174" y="345" width="87" height="3" rx="1.5" fill="#D8CFEF"/>
<rect x="174" y="352" width="107" height="3" rx="1.5" fill="#D8CFEF"/>
</g>
<g filter="url(#filter1_d_2571_79294)">
<rect x="30" y="146" width="207" height="226" fill="white"/>
<rect x="30" y="146" width="207" height="226" fill="url(#paint0_linear_2571_79294)"/>
</g>
<path fill-rule="evenodd" clip-rule="evenodd" d="M237.087 146H30C30 119.994 46.4661 113 59.9384 113H272.5C253.734 113 238.37 127.56 237.087 146ZM272.974 113.003C272.816 113.001 272.658 113 272.5 113H273C273 113 272.991 113.001 272.974 113.003Z" fill="white"/>
<rect x="60" y="156" width="147" height="24" rx="12" fill="#A3D88A"/>
<rect x="60" y="191" width="59" height="6" rx="3" fill="#CBCACD"/>
<rect x="127" y="191" width="24" height="6" rx="3" fill="#CBCACD"/>
<rect x="60" y="217" width="127" height="3" rx="1.5" fill="#CBCACD"/>
<rect x="60" y="226" width="92" height="3" rx="1.5" fill="#CBCACD"/>
<rect x="60" y="235" width="113" height="3" rx="1.5" fill="#CBCACD"/>
<rect x="60" y="244" width="127" height="3" rx="1.5" fill="#CBCACD"/>
<rect x="60" y="253" width="98" height="3" rx="1.5" fill="#CBCACD"/>
<rect x="60" y="262" width="74" height="3" rx="1.5" fill="#CBCACD"/>
<rect x="112" y="315" width="45" height="3" rx="1.5" fill="#8AD7DC"/>
<rect x="112" y="322" width="32" height="3" rx="1.5" fill="#8AD7DC"/>
<path d="M105 291.828C107.631 292.856 115.038 293.678 119.571 288.746C125.238 282.581 124.833 279.498 122.81 278.882C120.786 278.265 116.333 286.896 119.571 291.828C122.162 295.774 126.048 291.417 127.667 288.746C126.992 289.773 127.881 291.828 129.5 291.828C134 291.828 135.56 288.54 137.786 290.184C140.012 291.828 140.821 291.828 142.845 291.828C144.869 291.828 147.5 289.157 148.714 287.307C150.557 284.5 148.31 282.651 146.69 284.5C145.071 286.35 144.667 290.184 146.69 291.828C148.714 293.472 150.738 291.623 153.369 290.184C156 288.746 156.202 290.184 160.048 290.184C163.893 290.184 174.214 285.869 178.06 283.403C181.905 280.937 187 278 184.738 275.388C183.298 273.726 179.909 274.5 178.06 278.882C176.845 281.759 171.786 293.678 170.167 296.966C168.548 300.254 166.521 304.662 163.488 302.925C161 301.5 163.893 296.349 170.167 291.828C176.44 287.307 178.869 285.869 180.488 287.307C181.783 288.458 181.702 290.801 181.5 291.828C181.837 291.76 182.957 291.335 184.738 290.184C186.964 288.746 188.083 291.623 189.5 290.184C190.917 288.746 191.821 290.184 193.845 288.746C195.869 287.307 195.869 287.307 196.881 288.746C197.893 290.184 199.917 290.184 201.536 288.746C202.831 287.595 205.718 287.307 207 287.307" stroke="black" stroke-width="1.5"/>
<circle cx="81.5" cy="319.5" r="20" stroke="#8AD7DC" stroke-width="3"/>
<circle cx="81.5" cy="319.5" r="13.5" fill="#8AD7DC"/>
<path d="M205.966 288.549C205.867 287.519 207.024 286.851 207.867 287.451L236.772 308.04L209.344 323.876L205.966 288.549Z" fill="#E8BD9C"/>
<rect x="209.826" y="322.901" width="29.8613" height="3.61955" transform="rotate(-30 209.826 322.901)" fill="#E8BD9C"/>
<path d="M209.721 324.529C208.263 322.004 209.128 318.776 211.653 317.318C214.177 315.861 217.406 316.726 218.863 319.25L280.471 425.958L271.328 431.237L209.721 324.529Z" fill="#E9973E"/>
<path d="M218.863 319.25C217.406 316.725 218.271 313.497 220.795 312.039C223.32 310.582 226.548 311.447 228.006 313.972L289.614 420.679L280.471 425.958L218.863 319.25Z" fill="#F1B154"/>
<path d="M228.006 313.972C226.548 311.447 227.413 308.219 229.938 306.761C232.463 305.304 235.691 306.169 237.149 308.693L298.756 415.401L289.614 420.68L228.006 313.972Z" fill="#F2D95C"/>
<path fill-rule="evenodd" clip-rule="evenodd" d="M207.866 287.451C207.024 286.851 205.867 287.52 205.965 288.549L206.692 296.15L214.086 291.881L207.866 287.451Z" fill="#343432"/>
</g>
<defs>
<filter id="filter0_d_2571_79294" x="104" y="136" width="246" height="284" filterUnits="userSpaceOnUse" color-interpolation-filters="sRGB">
<feFlood flood-opacity="0" result="BackgroundImageFix"/>
<feColorMatrix in="SourceAlpha" type="matrix" values="0 0 0 0 0 0 0 0 0 0 0 0 0 0 0 0 0 0 127 0" result="hardAlpha"/>
<feOffset dy="10"/>
<feGaussianBlur stdDeviation="10"/>
<feComposite in2="hardAlpha" operator="out"/>
<feColorMatrix type="matrix" values="0 0 0 0 0.335111 0 0 0 0 0.244983 0 0 0 0 0.570833 0 0 0 1 0"/>
<feBlend mode="normal" in2="BackgroundImageFix" result="effect1_dropShadow_2571_79294"/>
<feBlend mode="normal" in="SourceGraphic" in2="effect1_dropShadow_2571_79294" result="shape"/>
</filter>
<filter id="filter1_d_2571_79294" x="0" y="126" width="267" height="286" filterUnits="userSpaceOnUse" color-interpolation-filters="sRGB">
<feFlood flood-opacity="0" result="BackgroundImageFix"/>
<feColorMatrix in="SourceAlpha" type="matrix" values="0 0 0 0 0 0 0 0 0 0 0 0 0 0 0 0 0 0 127 0" result="hardAlpha"/>
<feOffset dy="10"/>
<feGaussianBlur stdDeviation="15"/>
<feComposite in2="hardAlpha" operator="out"/>
<feColorMatrix type="matrix" values="0 0 0 0 0.317859 0 0 0 0 0.270521 0 0 0 0 0.441667 0 0 0 1 0"/>
<feBlend mode="normal" in2="BackgroundImageFix" result="effect1_dropShadow_2571_79294"/>
<feBlend mode="normal" in="SourceGraphic" in2="effect1_dropShadow_2571_79294" result="shape"/>
</filter>
<linearGradient id="paint0_linear_2571_79294" x1="99" y1="372" x2="99" y2="259" gradientUnits="userSpaceOnUse">
<stop stop-color="#F5F5F5"/>
<stop offset="1" stop-color="#F5F5F5" stop-opacity="0"/>
</linearGradient>
<clipPath id="clip0_2571_79294">
<rect width="360" height="360" rx="8" fill="white"/>
</clipPath>
<clipPath id="clip1_2571_79294">
<rect width="262" height="66" fill="white" transform="translate(30 30)"/>
</clipPath>
<clipPath id="clip2_2571_79294">
<rect width="206" height="244" fill="white" transform="translate(124 146)"/>
</clipPath>
</defs>
</svg>
