<svg width="360" height="360" viewBox="0 0 360 360" fill="none" xmlns="http://www.w3.org/2000/svg">
<g clip-path="url(#clip0_4665_24367)">
<rect width="360" height="360" rx="8" fill="#1A7FC3"/>
<path opacity="0.06" fill-rule="evenodd" clip-rule="evenodd" d="M300.116 56C305.763 65.8682 348.598 126.891 365.753 201.676C382.855 276.355 382.642 322.495 375.13 374.983C361.917 469.452 318.869 541.783 300.542 566C282.355 540.72 267.142 513.425 255.204 484.654C255.204 484.654 255.116 484.443 254.951 484.033L254.716 483.447C251.228 474.725 230.061 420.177 224.25 366.929C222.09 348.48 221.005 329.922 221 311.347C221.04 268.013 227.247 224.907 239.434 183.327C256.749 123.691 290.899 69.8155 300.116 56ZM300.436 363.462C295.108 371.356 277.154 410.029 277.367 455.049C277.6 487.134 285.278 518.726 299.796 547.33L300.009 547.544C315.633 517.818 323.374 484.574 322.492 450.995C321.56 420.562 314.034 390.695 300.436 363.462ZM300.009 96.1129L299.817 96.4097L299.362 97.1352C294.038 105.807 273.595 144.251 255.63 202.796C246.972 234.408 241.634 266.837 239.7 299.558C238.546 335.266 240.919 371.001 246.786 406.242L246.788 404.458C246.824 387.18 247.503 337.393 256.802 296.038C266.445 253.151 284.666 203.703 299.423 178.686C315.406 205.357 335.705 262.326 342.844 296.411C350.057 332.284 353.149 368.865 352.061 405.441C357.348 380.238 360.255 354.592 360.745 328.843H360.958C361.452 285.747 356.075 242.784 344.975 201.143C334.217 164.465 319.121 129.206 300.009 96.1129Z" fill="white"/>
<rect x="18.5" y="144.5" width="323" height="232" rx="11.5" stroke="white"/>
<path d="M18.5 156C18.5 149.649 23.6487 144.5 30 144.5H330C336.351 144.5 341.5 149.649 341.5 156V169.5H18.5V156Z" stroke="white"/>
<path fill-rule="evenodd" clip-rule="evenodd" d="M63.1927 53.587V78.5644C58.2487 78.5603 53.5053 80.5198 50.0056 84.012C49.161 84.8656 48.396 85.7942 47.7199 86.7866C42.3347 94.7439 43.8773 105.49 51.2835 111.612C58.6896 117.733 69.5345 117.224 76.3354 110.437C76.3354 110.437 76.3799 110.437 76.3799 110.393C76.3799 110.348 76.4307 110.393 76.4497 110.342C78.8769 107.997 79.8501 104.525 78.9953 101.26C78.1405 97.9946 75.5907 95.4448 72.3258 94.59C69.0608 93.7352 65.5886 94.7084 63.2435 97.1357L63.1927 97.1801V86.7675H87.4401V109.497C77.0737 120.561 60.5303 123.198 47.238 115.906C33.9457 108.614 27.2804 93.2446 31.0406 78.5572C34.8008 63.8699 48.0317 53.5944 63.1927 53.587ZM159.7 96.996L225.045 97.0214V119.878L156.493 119.878L156.493 119.904H125.929V119.897H91.4019V97.0404L132.176 97.0214L159.699 97.0207L159.7 96.996ZM132.176 101.282H125.929V115.504H132.474V113.008H129.249V109.282H131.998V106.894H129.249V103.783H132.176V101.282ZM100.995 101.282H97.6749V115.497H101.021V109.275H102.716V115.497H106.011V101.282H102.691V106.78H100.995V101.282ZM213.502 101.282H210.207V115.497H213.502C217.121 115.497 218.537 114.951 218.537 111.834V110.374C218.537 107.536 217.324 106.78 214.054 106.78H213.502V101.282ZM191.134 101.244H183.325V103.783H185.572V115.478H188.893V103.783H191.134V101.244ZM159.699 101.281L156.493 101.282V102.361C153.154 102.361 151.731 103.091 151.731 105.999V110.443C151.731 113.332 153.217 114.107 156.493 114.107L156.493 115.478L159.7 115.478V114.081C162.957 114.081 164.442 113.307 164.442 110.418V105.974C164.442 103.066 163.02 102.336 159.7 102.336L159.699 101.281ZM214.334 109.307C215.077 109.307 215.299 109.497 215.299 110.316V112.018C215.299 112.837 215.077 113.028 214.334 113.028H213.591V109.307H214.334ZM156.538 105.148V111.77H156.011C155.255 111.77 155.008 111.586 155.008 110.735V106.202C155.008 105.358 155.255 105.148 156.011 105.148H156.538ZM160.271 105.148C161.001 105.148 161.28 105.313 161.28 106.158V110.716C161.28 111.524 161.025 111.751 160.364 111.769L160.271 111.77H159.744V105.148H160.271ZM171.649 53.3838C176.137 53.3838 176.404 56.9774 176.404 59.3393V69.3899C176.404 71.7264 176.131 75.32 171.642 75.32H167.979V86.6405H161.579V53.3838H171.649ZM117.357 53.3838L120.71 86.6405H114.437L113.84 77.7518H110.818L110.221 86.6405H103.948L107.294 53.4155L117.357 53.3838ZM190.69 53.409C195.166 53.3838 195.452 56.9774 195.452 59.3393V80.6787C195.452 83.0152 195.178 86.6342 190.69 86.6342H185.401C180.956 86.6342 180.648 83.1257 180.639 80.7874L180.639 59.3393C180.639 57.0028 180.887 53.409 185.401 53.409H190.69ZM207.985 53.3838L212.15 76.7168L216.34 53.3838H224.677V86.6088H218.245V65.7709H218.035L214.715 86.6088H209.585L206.289 65.7709H206.061V86.6088H199.648V53.3838H207.985ZM157.363 53.3838V86.6088H150.95V57.5044H148.938V86.6088H142.506V53.3838H157.363ZM103.789 53.3838V57.5044H97.9733V86.6088H91.5606V53.3838H103.789ZM133.528 53.4092C138.017 53.4092 138.316 57.0028 138.316 59.3393V64.6535C138.316 68.2471 135.89 69.2566 133.941 69.1614V69.4852C138.177 69.3665 138.306 72.6728 138.309 73.8853L138.309 80.6279C138.309 82.9644 138.011 86.5834 133.522 86.5834H128.214C123.794 86.5834 123.456 83.0749 123.446 80.7366L123.446 74.9518H129.884V81.1993C129.857 81.4797 129.951 81.7584 130.143 81.9648C130.334 82.1712 130.606 82.2855 130.887 82.2787C131.162 82.2671 131.42 82.1469 131.606 81.9444C131.792 81.7419 131.89 81.4739 131.878 81.1993V73.4851C131.878 72.4566 131.694 71.3137 129.338 71.3137H126.729V67.6693H129.421C131.255 67.6693 131.897 67.2376 131.897 65.1995V58.5837C131.909 58.3092 131.811 58.0411 131.625 57.8386C131.439 57.6362 131.181 57.5159 130.906 57.5044C130.625 57.4976 130.353 57.6119 130.162 57.8182C129.97 58.0246 129.876 58.3033 129.903 58.5837V64.0059H123.452V59.3393C123.452 57.0028 123.732 53.4092 128.221 53.4092H133.528ZM75.2497 24C75.9227 25.1746 81.0274 32.438 83.0719 41.3395C85.1099 50.2283 85.0845 55.7203 84.1893 61.9678C82.6147 73.2121 77.4846 81.8215 75.3005 84.7041C73.1331 81.6951 71.3201 78.4461 69.8974 75.0216C69.8974 75.0216 69.887 74.9965 69.8673 74.9477L69.8393 74.878C69.4237 73.8399 66.9012 67.3471 66.2086 61.0091C65.9512 58.8132 65.8219 56.6042 65.8213 54.3933C65.8261 49.2354 66.5658 44.1046 68.0181 39.1554C70.0815 32.057 74.1513 25.6444 75.2497 24ZM75.2878 60.5964C74.6529 61.5361 72.5133 66.1392 72.5387 71.4979C72.5664 75.3169 73.4815 79.0771 75.2116 82.4819L75.237 82.5072C77.099 78.969 78.0215 75.0121 77.9164 71.0153C77.8052 67.3929 76.9084 63.838 75.2878 60.5964ZM188.055 57.5042C187.774 57.4996 187.504 57.6145 187.313 57.8204C187.121 58.0263 187.026 58.3038 187.052 58.5837V81.2247C187.026 81.5047 187.121 81.7822 187.313 81.988C187.504 82.1939 187.774 82.3088 188.055 82.3042C188.33 82.2942 188.591 82.1746 188.778 81.972C188.965 81.7693 189.064 81.5003 189.052 81.2247L189.064 81.2501V58.5837C189.076 58.306 188.976 58.0351 188.786 57.8321C188.596 57.629 188.333 57.5109 188.055 57.5042ZM112.506 57.5044H112.138L111.04 74.1073H113.605L112.506 57.5044ZM168.779 57.5044H167.979V71.6312H168.785C169.496 71.6312 169.979 71.0344 169.979 69.9868L169.972 70.0122V59.1551C169.972 58.1266 169.49 57.5044 168.779 57.5044ZM75.237 28.7745L75.214 28.8099L75.1599 28.8962C74.5254 29.9284 72.0891 34.5043 69.9482 41.4728C68.9165 45.2354 68.2802 49.0954 68.0498 52.9901C67.9123 57.2404 68.1951 61.4938 68.8943 65.6884L68.8945 65.4761C68.8988 63.4195 68.9797 57.4935 70.0879 52.5711C71.2371 47.4664 73.4085 41.5807 75.1672 38.603C77.0719 41.7776 79.491 48.5584 80.3417 52.6155C81.2013 56.8854 81.5698 61.2396 81.4401 65.5932C82.0702 62.5932 82.4167 59.5407 82.475 56.4758H82.5004C82.5593 51.3462 81.9185 46.2325 80.5957 41.276C79.3136 36.9104 77.5146 32.7135 75.237 28.7745Z" fill="white"/>
<path d="M0 266H34C37.3137 266 40 263.314 40 260V196C40 192.686 42.6863 190 46 190H316C319.314 190 322 192.686 322 196V260C322 263.314 324.686 266 328 266H361" stroke="#17DAE8" stroke-width="5"/>
<path d="M175.5 274H73.5C70.1863 274 67.5 276.686 67.5 280V320C67.5 323.314 70.1863 326 73.5 326H182.5C185.814 326 188.5 323.314 188.5 320V284C188.5 280.686 185.814 278 182.5 278H176" stroke="#BAD7E9" stroke-width="5"/>
<path d="M176 270H216.5C219.814 270 222.5 267.314 222.5 264V246C222.5 242.686 225.187 240 228.5 240H294C297.314 240 300 242.686 300 246V261C300 264.314 302.687 267 306 267H312" stroke="#D364FF" stroke-width="5"/>
<path d="M0 274H175.5" stroke="#4FD0FF" stroke-width="5"/>
<path d="M312 274H487" stroke="#4FD0FF" stroke-width="5"/>
<path d="M176 270H216.5C219.814 270 222.5 272.686 222.5 276V294C222.5 297.314 225.187 300 228.5 300H294C297.314 300 300 297.314 300 294L300 280C300 276.686 302.686 274 306 274H312" stroke="#4FD0FF" stroke-width="5"/>
<path d="M16 261C14.6193 261 13.5 262.119 13.5 263.5V276.5C13.5 277.881 14.6193 279 16 279H21C22.3807 279 23.5 277.881 23.5 276.5V263.5C23.5 262.119 22.3807 261 21 261H16Z" fill="white" stroke="#4FD0FF"/>
<rect x="16" y="271.5" width="5" height="5" rx="1" fill="#4FD0FF"/>
<rect x="16" y="263.5" width="5" height="5" rx="1" fill="#17DAE8"/>
<path d="M174 265C172.619 265 171.5 266.119 171.5 267.5V280.5C171.5 281.881 172.619 283 174 283H179C180.381 283 181.5 281.881 181.5 280.5V267.5C181.5 266.119 180.381 265 179 265H174Z" fill="white" stroke="#4FD0FF"/>
<rect x="174" y="275.5" width="5" height="5" rx="1" fill="#BAD7E9"/>
<rect x="174" y="267.5" width="5" height="5" rx="1" fill="#17DAE8"/>
<path d="M50 269C48.6193 269 47.5 270.119 47.5 271.5V276.5C47.5 277.881 48.6193 279 50 279H55C56.3807 279 57.5 277.881 57.5 276.5V271.5C57.5 270.119 56.3807 269 55 269H50Z" fill="white" stroke="#4FD0FF"/>
<rect x="50" y="271.5" width="5" height="5" rx="1" fill="#4FD0FF"/>
<path d="M85 269C83.6193 269 82.5 270.119 82.5 271.5V276.5C82.5 277.881 83.6193 279 85 279H90C91.3807 279 92.5 277.881 92.5 276.5V271.5C92.5 270.119 91.3807 269 90 269H85Z" fill="white" stroke="#4FD0FF"/>
<rect x="85" y="271.5" width="5" height="5" rx="1" fill="#4FD0FF"/>
<path d="M114 269C112.619 269 111.5 270.119 111.5 271.5V276.5C111.5 277.881 112.619 279 114 279H119C120.381 279 121.5 277.881 121.5 276.5V271.5C121.5 270.119 120.381 269 119 269H114Z" fill="white" stroke="#4FD0FF"/>
<rect x="114" y="271.5" width="5" height="5" rx="1" fill="#4FD0FF"/>
<path d="M114 321C112.619 321 111.5 322.119 111.5 323.5V328.5C111.5 329.881 112.619 331 114 331H119C120.381 331 121.5 329.881 121.5 328.5V323.5C121.5 322.119 120.381 321 119 321H114Z" fill="white" stroke="#BAD7E9"/>
<rect x="114" y="323.5" width="5" height="5" rx="1" fill="#BAD7E9"/>
<path d="M143 269C141.619 269 140.5 270.119 140.5 271.5V276.5C140.5 277.881 141.619 279 143 279H148C149.381 279 150.5 277.881 150.5 276.5V271.5C150.5 270.119 149.381 269 148 269H143Z" fill="white" stroke="#4FD0FF"/>
<rect x="143" y="271.5" width="5" height="5" rx="1" fill="#4FD0FF"/>
<path d="M260 295C258.619 295 257.5 296.119 257.5 297.5V302.5C257.5 303.881 258.619 305 260 305H265C266.381 305 267.5 303.881 267.5 302.5V297.5C267.5 296.119 266.381 295 265 295H260Z" fill="white" stroke="#4FD0FF"/>
<rect x="260" y="297.5" width="5" height="5" rx="1" fill="#4FD0FF"/>
<path d="M239 235C237.619 235 236.5 236.119 236.5 237.5V242.5C236.5 243.881 237.619 245 239 245H244C245.381 245 246.5 243.881 246.5 242.5V237.5C246.5 236.119 245.381 235 244 235H239Z" fill="white" stroke="#D364FF"/>
<rect x="239" y="237.5" width="5" height="5" rx="1" fill="#D364FF"/>
<path d="M279 235C277.619 235 276.5 236.119 276.5 237.5V242.5C276.5 243.881 277.619 245 279 245H284C285.381 245 286.5 243.881 286.5 242.5V237.5C286.5 236.119 285.381 235 284 235H279Z" fill="white" stroke="#D364FF"/>
<rect x="279" y="237.5" width="5" height="5" rx="1" fill="#D364FF"/>
<path d="M309 261C307.619 261 306.5 262.119 306.5 263.5V276.5C306.5 277.881 307.619 279 309 279H314C315.381 279 316.5 277.881 316.5 276.5V263.5C316.5 262.119 315.381 261 314 261H309Z" fill="white" stroke="#4FD0FF"/>
<rect x="309" y="271.5" width="5" height="5" rx="1" fill="#4FD0FF"/>
<rect x="309" y="263.5" width="5" height="5" rx="1" fill="#D364FF"/>
<path d="M339 261C337.619 261 336.5 262.119 336.5 263.5V276.5C336.5 277.881 337.619 279 339 279H344C345.381 279 346.5 277.881 346.5 276.5V263.5C346.5 262.119 345.381 261 344 261H339Z" fill="white" stroke="#4FD0FF"/>
<rect x="339" y="271.5" width="5" height="5" rx="1" fill="#4FD0FF"/>
<rect x="339" y="263.5" width="5" height="5" rx="1" fill="#17DAE8"/>
<circle cx="32" cy="157" r="2" fill="white"/>
<circle cx="42" cy="157" r="2" fill="white"/>
<circle cx="52" cy="157" r="2" fill="white"/>
<rect x="237" y="226" width="14" height="3" rx="1.5" fill="white"/>
<rect x="277" y="226" width="14" height="3" rx="1.5" fill="white"/>
<rect x="48" y="261" width="14" height="3" rx="1.5" fill="white"/>
<rect x="141" y="261" width="14" height="3" rx="1.5" fill="white"/>
<rect x="83" y="261" width="14" height="3" rx="1.5" fill="white"/>
<rect x="112" y="261" width="14" height="3" rx="1.5" fill="white"/>
<rect x="258" y="317" width="21" height="3" rx="1.5" fill="white"/>
<rect x="112" y="337" width="21" height="3" rx="1.5" fill="white"/>
<rect x="237" y="220" width="18" height="3" rx="1.5" fill="white"/>
<rect x="277" y="220" width="23" height="3" rx="1.5" fill="white"/>
<rect x="48" y="255" width="23" height="3" rx="1.5" fill="white"/>
<rect x="56" y="207" width="70" height="8" rx="4" fill="white"/>
<rect x="56" y="219" width="49" height="8" rx="4" fill="white"/>
<rect x="141" y="255" width="23" height="3" rx="1.5" fill="white"/>
<rect x="112" y="255" width="9" height="3" rx="1.5" fill="white"/>
<rect x="112" y="249" width="14" height="3" rx="1.5" fill="white"/>
<rect x="258" y="311" width="14" height="3" rx="1.5" fill="white"/>
<rect x="237" y="214" width="23" height="3" rx="1.5" fill="white"/>
</g>
<defs>
<clipPath id="clip0_4665_24367">
<rect width="360" height="360" rx="8" fill="white"/>
</clipPath>
</defs>
</svg>
