<svg width="360" height="360" viewBox="0 0 360 360" fill="none" xmlns="http://www.w3.org/2000/svg">
<g clip-path="url(#clip0_4891_22919)">
<rect width="360" height="360" rx="8" fill="#F1F2F6"/>
<path opacity="0.5" fill-rule="evenodd" clip-rule="evenodd" d="M260.116 0C265.763 9.86821 308.598 70.8911 325.753 145.676C342.855 220.355 342.642 266.495 335.13 318.983C321.917 413.452 278.869 485.783 260.542 510C242.355 484.72 227.142 457.425 215.204 428.654C215.204 428.654 215.116 428.443 214.951 428.033L214.716 427.447C211.228 418.725 190.061 364.177 184.25 310.929C182.09 292.48 181.005 273.922 181 255.347C181.04 212.013 187.247 168.907 199.434 127.327C216.749 67.6906 250.899 13.8155 260.116 0ZM260.436 307.462C255.108 315.356 237.154 354.029 237.367 399.049C237.6 431.134 245.278 462.726 259.796 491.33L260.009 491.544C275.633 461.818 283.374 428.574 282.492 394.995C281.56 364.562 274.034 334.695 260.436 307.462ZM260.009 40.1129L259.817 40.4097L259.362 41.1352C254.038 49.8072 233.595 88.251 215.63 146.796C206.972 178.408 201.634 210.837 199.7 243.558C198.546 279.266 200.919 315.001 206.786 350.242L206.788 348.458C206.824 331.18 207.503 281.393 216.802 240.038C226.445 197.151 244.666 147.703 259.423 122.686C275.406 149.357 295.705 206.326 302.844 240.411C310.057 276.284 313.149 312.865 312.061 349.441C317.348 324.238 320.255 298.592 320.745 272.843H320.958C321.452 229.747 316.075 186.784 304.975 145.143C294.217 108.465 279.121 73.2056 260.009 40.1129Z" fill="white"/>
<path fill-rule="evenodd" clip-rule="evenodd" d="M63.1927 53.587V78.5644C58.2487 78.5603 53.5053 80.5198 50.0056 84.012C49.161 84.8656 48.396 85.7942 47.7199 86.7866C42.3347 94.7439 43.8773 105.49 51.2835 111.612C58.6896 117.733 69.5345 117.224 76.3354 110.437C76.3354 110.437 76.3799 110.437 76.3799 110.393C76.3799 110.348 76.4307 110.393 76.4497 110.342C78.877 107.997 79.8501 104.525 78.9953 101.26C78.1405 97.9946 75.5907 95.4448 72.3258 94.59C69.0608 93.7352 65.5886 94.7084 63.2435 97.1357L63.1927 97.1801V86.7675H87.4401V109.497C77.0737 120.561 60.5303 123.198 47.238 115.906C33.9457 108.614 27.2804 93.2446 31.0406 78.5572C34.8008 63.8698 48.0317 53.5944 63.1927 53.587ZM159.7 96.996L225.045 97.0214V119.878L156.493 119.878L156.493 119.904H125.929V119.897H91.4019V97.0404L132.176 97.0214L159.699 97.0207L159.7 96.996ZM132.176 101.282H125.929V115.504H132.474V113.008H129.249V109.282H131.998V106.894H129.249V103.783H132.176V101.282ZM100.995 101.282H97.6749V115.497H101.021V109.275H102.716V115.497H106.011V101.282H102.691V106.78H100.995V101.282ZM213.502 101.282H210.207V115.497H213.502C217.121 115.497 218.537 114.951 218.537 111.834V110.374C218.537 107.536 217.324 106.78 214.054 106.78H213.502V101.282ZM191.134 101.244H183.325V103.783H185.572V115.478H188.893V103.783H191.134V101.244ZM159.699 101.281L156.493 101.282V102.361C153.154 102.361 151.731 103.091 151.731 105.999V110.443C151.731 113.332 153.217 114.107 156.493 114.107L156.493 115.478L159.7 115.478V114.081C162.957 114.081 164.442 113.307 164.442 110.418V105.974C164.442 103.066 163.02 102.336 159.7 102.336L159.699 101.281ZM214.334 109.307C215.077 109.307 215.299 109.497 215.299 110.316V112.018C215.299 112.837 215.077 113.028 214.334 113.028H213.591V109.307H214.334ZM156.538 105.148V111.77H156.011C155.255 111.77 155.008 111.586 155.008 110.735V106.202C155.008 105.358 155.255 105.148 156.011 105.148H156.538ZM160.271 105.148C161.001 105.148 161.28 105.313 161.28 106.158V110.716C161.28 111.524 161.025 111.751 160.364 111.769L160.271 111.77H159.744V105.148H160.271ZM171.649 53.3838C176.137 53.3838 176.404 56.9774 176.404 59.3393V69.3899C176.404 71.7264 176.131 75.32 171.642 75.32H167.979V86.6405H161.579V53.3838H171.649ZM117.357 53.3838L120.71 86.6405H114.437L113.84 77.7518H110.818L110.221 86.6405H103.948L107.294 53.4155L117.357 53.3838ZM190.69 53.409C195.166 53.3838 195.452 56.9774 195.452 59.3393V80.6787C195.452 83.0152 195.178 86.6342 190.69 86.6342H185.401C180.956 86.6342 180.648 83.1257 180.639 80.7874L180.639 59.3393C180.639 57.0028 180.887 53.409 185.401 53.409H190.69ZM207.985 53.3838L212.15 76.7168L216.34 53.3838H224.677V86.6088H218.245V65.7709H218.035L214.715 86.6088H209.585L206.289 65.7709H206.061V86.6088H199.648V53.3838H207.985ZM157.363 53.3838V86.6088H150.95V57.5044H148.938V86.6088H142.506V53.3838H157.363ZM103.789 53.3838V57.5044H97.9733V86.6088H91.5606V53.3838H103.789ZM133.528 53.4092C138.017 53.4092 138.316 57.0028 138.316 59.3393V64.6535C138.316 68.2471 135.89 69.2566 133.941 69.1614V69.4852C138.177 69.3665 138.306 72.6728 138.309 73.8853L138.309 80.6279C138.309 82.9644 138.011 86.5834 133.522 86.5834H128.214C123.794 86.5834 123.456 83.0749 123.446 80.7366L123.446 74.9518H129.884V81.1993C129.857 81.4797 129.951 81.7584 130.143 81.9648C130.334 82.1712 130.606 82.2855 130.887 82.2787C131.162 82.2671 131.42 82.1469 131.606 81.9444C131.792 81.7419 131.89 81.4739 131.878 81.1993V73.4851C131.878 72.4566 131.694 71.3137 129.338 71.3137H126.729V67.6693H129.421C131.255 67.6693 131.897 67.2376 131.897 65.1995V58.5837C131.909 58.3092 131.811 58.0411 131.625 57.8386C131.439 57.6362 131.181 57.5159 130.906 57.5044C130.625 57.4976 130.353 57.6119 130.162 57.8182C129.97 58.0246 129.876 58.3033 129.903 58.5837V64.0059H123.452V59.3393C123.452 57.0028 123.732 53.4092 128.221 53.4092H133.528ZM75.2497 24C75.9227 25.1746 81.0274 32.438 83.0719 41.3395C85.1099 50.2283 85.0845 55.7203 84.1893 61.9678C82.6147 73.2121 77.4846 81.8215 75.3005 84.7041C73.1331 81.6951 71.3201 78.4461 69.8974 75.0216C69.8974 75.0216 69.887 74.9965 69.8673 74.9477L69.8393 74.878C69.4237 73.8399 66.9012 67.3471 66.2086 61.0091C65.9512 58.8132 65.8219 56.6042 65.8213 54.3933C65.8261 49.2354 66.5658 44.1046 68.0181 39.1554C70.0815 32.0571 74.1513 25.6444 75.2497 24ZM75.2878 60.5964C74.6529 61.5361 72.5133 66.1392 72.5387 71.4979C72.5664 75.3169 73.4815 79.0771 75.2116 82.4819L75.237 82.5072C77.0989 78.969 78.0215 75.0121 77.9164 71.0153C77.8052 67.3929 76.9084 63.838 75.2878 60.5964ZM188.055 57.5042C187.774 57.4996 187.504 57.6145 187.313 57.8204C187.121 58.0263 187.026 58.3038 187.052 58.5837V81.2247C187.026 81.5047 187.121 81.7822 187.313 81.988C187.504 82.1939 187.774 82.3088 188.055 82.3042C188.33 82.2942 188.591 82.1746 188.778 81.972C188.965 81.7693 189.064 81.5003 189.052 81.2247L189.064 81.2501V58.5837C189.076 58.306 188.976 58.0351 188.786 57.8321C188.596 57.629 188.333 57.5109 188.055 57.5042ZM112.506 57.5044H112.138L111.04 74.1073H113.605L112.506 57.5044ZM168.779 57.5044H167.979V71.6312H168.785C169.496 71.6312 169.979 71.0344 169.979 69.9868L169.972 70.0122V59.1551C169.972 58.1266 169.49 57.5044 168.779 57.5044ZM75.237 28.7745L75.214 28.8099L75.1599 28.8962C74.5254 29.9284 72.0891 34.5043 69.9482 41.4728C68.9165 45.2354 68.2802 49.0954 68.0498 52.9901C67.9123 57.2404 68.1951 61.4938 68.8943 65.6884L68.8945 65.4761C68.8988 63.4195 68.9797 57.4935 70.0879 52.5711C71.2371 47.4664 73.4085 41.5807 75.1672 38.603C77.0719 41.7776 79.491 48.5584 80.3417 52.6155C81.2013 56.8854 81.5698 61.2396 81.4401 65.5932C82.0702 62.5932 82.4167 59.5407 82.475 56.4758H82.5004C82.5593 51.3462 81.9185 46.2325 80.5957 41.276C79.3136 36.9104 77.5146 32.7135 75.237 28.7745Z" fill="#3175BA"/>
<circle cx="268.5" cy="268.5" r="61.5" fill="url(#paint0_linear_4891_22919)"/>
<circle cx="268.5" cy="268.5" r="47" fill="url(#paint1_linear_4891_22919)" stroke="#F7D06A"/>
<circle cx="268.5" cy="268.5" r="40" stroke="url(#paint2_linear_4891_22919)" stroke-width="3"/>
<path d="M278.473 235.465C292.664 239.743 303 252.913 303 268.499C303 287.553 287.554 302.999 268.5 302.999C251.504 302.999 237.38 290.709 234.526 274.532C237.684 275.484 241.032 275.999 244.5 275.999C263.554 275.999 279 260.553 279 241.499C279 239.44 278.818 237.424 278.473 235.465Z" fill="url(#paint3_linear_4891_22919)"/>
<path d="M72 180.321L127.933 195H231.158L288 180.321L180.227 145L72 180.321Z" fill="#141631"/>
<g filter="url(#filter0_i_4891_22919)">
<path d="M128 194.868V240H232V194.868C224.702 189.245 204.175 178 180.456 178C156.737 178 135.602 189.245 128 194.868Z" fill="#2D3450"/>
</g>
<path d="M240 330H179L229.607 294L240 330Z" fill="url(#paint4_linear_4891_22919)"/>
<path d="M72 172.2L180 137V145.147L72 180.32V172.2Z" fill="#2D3450"/>
<path d="M288 172.353L180 137V145.147L288 180.5V172.353Z" fill="#4E5572"/>
<path d="M253 161L256 162.171V218H253V161Z" fill="#F5C361"/>
<path d="M252.916 218H256.084L260.176 241.308C260.606 243.757 258.722 246 256.237 246H252.763C250.278 246 248.394 243.757 248.824 241.308L252.916 218Z" fill="#FFCF72"/>
<mask id="mask0_4891_22919" style="mask-type:alpha" maskUnits="userSpaceOnUse" x="248" y="218" width="13" height="29">
<path d="M252.978 218.023H256.084L260.105 241.572C260.523 244.015 258.641 246.245 256.162 246.245H252.899C250.421 246.245 248.539 244.015 248.956 241.572L252.978 218.023Z" fill="#F3B155"/>
</mask>
<g mask="url(#mask0_4891_22919)">
<path d="M254.531 246.245L255.442 228.037L259.083 246.245H254.531Z" fill="#FFE5A1"/>
</g>
<circle cx="254.5" cy="217.5" r="5.5" fill="#FFDF8C"/>
<circle cx="179.5" cy="268.5" r="61.5" fill="url(#paint5_linear_4891_22919)"/>
<g filter="url(#filter1_d_4891_22919)">
<rect x="148" y="248" width="63" height="8" rx="4" fill="white"/>
</g>
<g filter="url(#filter2_d_4891_22919)">
<rect x="148" y="265" width="63" height="8" rx="4" fill="white"/>
</g>
<g filter="url(#filter3_d_4891_22919)">
<rect x="148" y="282" width="46" height="8" rx="4" fill="white"/>
</g>
<g filter="url(#filter4_i_4891_22919)">
<path d="M124.524 320.886C123.322 319.044 123.731 316.589 125.464 315.237C127.198 313.884 129.678 314.084 131.173 315.697L186.686 375.617C189.074 378.194 188.746 382.263 185.976 384.425L177.878 390.745C175.108 392.906 171.082 392.236 169.162 389.293L124.524 320.886Z" fill="#4E5572"/>
</g>
<g filter="url(#filter5_i_4891_22919)">
<path d="M137 319C137 323.971 132.971 328 128 328C123.029 328 119 323.971 119 319C119 314.029 123.029 310 128 310C132.971 310 137 314.029 137 319Z" fill="#F3B155"/>
</g>
<path d="M139 268.5C139 294.734 117.734 316 91.5 316C65.2665 316 44 294.734 44 268.5C44 242.266 65.2665 221 91.5 221C117.734 221 139 242.266 139 268.5Z" fill="url(#paint6_linear_4891_22919)"/>
<path d="M130 257C130 263.627 124.627 269 118 269C111.373 269 106 263.627 106 257C106 250.373 111.373 245 118 245C124.627 245 130 250.373 130 257Z" fill="url(#paint7_linear_4891_22919)"/>
<path d="M91.5 207C125.466 207 153 234.534 153 268.5C153 302.466 125.466 330 91.5 330C57.5345 330 30 302.466 30 268.5C30 234.534 57.5345 207 91.5 207ZM91.5 218C63.6096 218 41 240.61 41 268.5C41 296.39 63.6096 319 91.5 319C119.39 319 142 296.39 142 268.5C142 240.61 119.39 218 91.5 218Z" fill="url(#paint8_linear_4891_22919)"/>
<path d="M91.5 214.5C121.323 214.5 145.5 238.677 145.5 268.5C145.5 298.323 121.323 322.5 91.5 322.5C61.6766 322.5 37.5 298.323 37.5 268.5C37.5 238.677 61.6766 214.5 91.5 214.5Z" stroke="#141631"/>
</g>
<defs>
<filter id="filter0_i_4891_22919" x="128" y="178" width="104" height="62" filterUnits="userSpaceOnUse" color-interpolation-filters="sRGB">
<feFlood flood-opacity="0" result="BackgroundImageFix"/>
<feBlend mode="normal" in="SourceGraphic" in2="BackgroundImageFix" result="shape"/>
<feColorMatrix in="SourceAlpha" type="matrix" values="0 0 0 0 0 0 0 0 0 0 0 0 0 0 0 0 0 0 127 0" result="hardAlpha"/>
<feOffset dy="13"/>
<feComposite in2="hardAlpha" operator="arithmetic" k2="-1" k3="1"/>
<feColorMatrix type="matrix" values="0 0 0 0 0.141176 0 0 0 0 0.152941 0 0 0 0 0.27451 0 0 0 1 0"/>
<feBlend mode="normal" in2="shape" result="effect1_innerShadow_4891_22919"/>
</filter>
<filter id="filter1_d_4891_22919" x="148" y="247" width="63" height="9" filterUnits="userSpaceOnUse" color-interpolation-filters="sRGB">
<feFlood flood-opacity="0" result="BackgroundImageFix"/>
<feColorMatrix in="SourceAlpha" type="matrix" values="0 0 0 0 0 0 0 0 0 0 0 0 0 0 0 0 0 0 127 0" result="hardAlpha"/>
<feOffset dy="-1"/>
<feComposite in2="hardAlpha" operator="out"/>
<feColorMatrix type="matrix" values="0 0 0 0 0.227451 0 0 0 0 0.505882 0 0 0 0 0.776471 0 0 0 1 0"/>
<feBlend mode="normal" in2="BackgroundImageFix" result="effect1_dropShadow_4891_22919"/>
<feBlend mode="normal" in="SourceGraphic" in2="effect1_dropShadow_4891_22919" result="shape"/>
</filter>
<filter id="filter2_d_4891_22919" x="148" y="264" width="63" height="9" filterUnits="userSpaceOnUse" color-interpolation-filters="sRGB">
<feFlood flood-opacity="0" result="BackgroundImageFix"/>
<feColorMatrix in="SourceAlpha" type="matrix" values="0 0 0 0 0 0 0 0 0 0 0 0 0 0 0 0 0 0 127 0" result="hardAlpha"/>
<feOffset dy="-1"/>
<feComposite in2="hardAlpha" operator="out"/>
<feColorMatrix type="matrix" values="0 0 0 0 0.227451 0 0 0 0 0.505882 0 0 0 0 0.776471 0 0 0 1 0"/>
<feBlend mode="normal" in2="BackgroundImageFix" result="effect1_dropShadow_4891_22919"/>
<feBlend mode="normal" in="SourceGraphic" in2="effect1_dropShadow_4891_22919" result="shape"/>
</filter>
<filter id="filter3_d_4891_22919" x="148" y="281" width="46" height="9" filterUnits="userSpaceOnUse" color-interpolation-filters="sRGB">
<feFlood flood-opacity="0" result="BackgroundImageFix"/>
<feColorMatrix in="SourceAlpha" type="matrix" values="0 0 0 0 0 0 0 0 0 0 0 0 0 0 0 0 0 0 127 0" result="hardAlpha"/>
<feOffset dy="-1"/>
<feComposite in2="hardAlpha" operator="out"/>
<feColorMatrix type="matrix" values="0 0 0 0 0.227451 0 0 0 0 0.505882 0 0 0 0 0.776471 0 0 0 1 0"/>
<feBlend mode="normal" in2="BackgroundImageFix" result="effect1_dropShadow_4891_22919"/>
<feBlend mode="normal" in="SourceGraphic" in2="effect1_dropShadow_4891_22919" result="shape"/>
</filter>
<filter id="filter4_i_4891_22919" x="123.836" y="307.44" width="64.4492" height="84.5758" filterUnits="userSpaceOnUse" color-interpolation-filters="sRGB">
<feFlood flood-opacity="0" result="BackgroundImageFix"/>
<feBlend mode="normal" in="SourceGraphic" in2="BackgroundImageFix" result="shape"/>
<feColorMatrix in="SourceAlpha" type="matrix" values="0 0 0 0 0 0 0 0 0 0 0 0 0 0 0 0 0 0 127 0" result="hardAlpha"/>
<feOffset dy="-9"/>
<feGaussianBlur stdDeviation="3.45"/>
<feComposite in2="hardAlpha" operator="arithmetic" k2="-1" k3="1"/>
<feColorMatrix type="matrix" values="0 0 0 0 0.0784314 0 0 0 0 0.0862745 0 0 0 0 0.192157 0 0 0 1 0"/>
<feBlend mode="normal" in2="shape" result="effect1_innerShadow_4891_22919"/>
</filter>
<filter id="filter5_i_4891_22919" x="119" y="310" width="18" height="18" filterUnits="userSpaceOnUse" color-interpolation-filters="sRGB">
<feFlood flood-opacity="0" result="BackgroundImageFix"/>
<feBlend mode="normal" in="SourceGraphic" in2="BackgroundImageFix" result="shape"/>
<feColorMatrix in="SourceAlpha" type="matrix" values="0 0 0 0 0 0 0 0 0 0 0 0 0 0 0 0 0 0 127 0" result="hardAlpha"/>
<feOffset dx="-3" dy="-3"/>
<feComposite in2="hardAlpha" operator="arithmetic" k2="-1" k3="1"/>
<feColorMatrix type="matrix" values="0 0 0 0 1 0 0 0 0 0.866271 0 0 0 0 0.503794 0 0 0 1 0"/>
<feBlend mode="normal" in2="shape" result="effect1_innerShadow_4891_22919"/>
</filter>
<linearGradient id="paint0_linear_4891_22919" x1="268.5" y1="207" x2="268.5" y2="330" gradientUnits="userSpaceOnUse">
<stop stop-color="#F7D16A"/>
<stop offset="1" stop-color="#F3B155"/>
</linearGradient>
<linearGradient id="paint1_linear_4891_22919" x1="288" y1="311" x2="288" y2="221" gradientUnits="userSpaceOnUse">
<stop stop-color="#F7D16A"/>
<stop offset="1" stop-color="#F3B155"/>
</linearGradient>
<linearGradient id="paint2_linear_4891_22919" x1="333" y1="239.5" x2="251.5" y2="303.5" gradientUnits="userSpaceOnUse">
<stop stop-color="#F7D16A"/>
<stop offset="1" stop-color="#F3B155"/>
</linearGradient>
<linearGradient id="paint3_linear_4891_22919" x1="268.763" y1="235.465" x2="268.763" y2="302.999" gradientUnits="userSpaceOnUse">
<stop stop-color="#FFDF8C" stop-opacity="0.2"/>
<stop offset="1" stop-color="#FFDF8C" stop-opacity="0.8"/>
</linearGradient>
<linearGradient id="paint4_linear_4891_22919" x1="253.5" y1="330" x2="212.5" y2="294" gradientUnits="userSpaceOnUse">
<stop stop-color="#67BDFF"/>
<stop offset="1" stop-color="#3175BA"/>
</linearGradient>
<linearGradient id="paint5_linear_4891_22919" x1="179.5" y1="207" x2="179.5" y2="330" gradientUnits="userSpaceOnUse">
<stop stop-color="#67BDFF"/>
<stop offset="1" stop-color="#3175BA"/>
</linearGradient>
<linearGradient id="paint6_linear_4891_22919" x1="91.5" y1="221" x2="91.5" y2="316" gradientUnits="userSpaceOnUse">
<stop stop-color="white" stop-opacity="0.1"/>
<stop offset="1" stop-color="white" stop-opacity="0.8"/>
</linearGradient>
<linearGradient id="paint7_linear_4891_22919" x1="118" y1="245" x2="118" y2="269" gradientUnits="userSpaceOnUse">
<stop stop-color="white" stop-opacity="0.4"/>
<stop offset="1" stop-color="white" stop-opacity="0.8"/>
</linearGradient>
<linearGradient id="paint8_linear_4891_22919" x1="91.5" y1="207" x2="91.5" y2="330" gradientUnits="userSpaceOnUse">
<stop stop-color="#4E5572"/>
<stop offset="1" stop-color="#2E3051"/>
</linearGradient>
<clipPath id="clip0_4891_22919">
<rect width="360" height="360" rx="8" fill="white"/>
</clipPath>
</defs>
</svg>
