<svg width="360" height="360" viewBox="0 0 360 360" fill="none" xmlns="http://www.w3.org/2000/svg">
<g clip-path="url(#clip0_4110_5370)">
<rect width="360" height="360" rx="8" fill="#314B98"/>
<path fill-rule="evenodd" clip-rule="evenodd" d="M343.079 160.868L336.839 158.597L333.339 157.345C332.426 152.153 330.581 147.168 327.892 142.628L328.949 139.336L330.995 133.179L324.393 133.509L319.936 133.739C318.39 132.582 316.757 131.547 315.05 130.644L314.389 127.121L313.234 120.734L307.588 124.191L303.428 126.726C301.877 126.43 300.127 126.167 298.576 125.969V125.738L299.203 119.153L293.359 120.8H292.732C289.431 112.898 279.097 98.7735 259.982 106.741L260.675 104.7L262.722 98.5433L256.119 98.8722H255.327C254.468 97.9177 253.379 96.9625 251.266 94.8555L249.814 93.8351L248.988 93.5385L242.98 82.3446V82.5749L242.55 81.5217L237.764 86.0648L234.462 89.1928C231.454 88.7829 228.411 88.6837 225.383 88.8967L222.478 85.8674L217.955 81.1921L215.182 87.1515L213.267 91.1682C209.538 92.2878 205.914 93.7308 202.439 95.4811L197.717 93.5714L191.676 91.1682V97.7532V102.132C188.727 104.319 186.094 106.9 183.851 109.803L178.536 110.264L171.933 110.857L174.872 116.783L177.644 122.314C177.245 123.719 176.936 125.15 176.72 126.594V127.78L172.495 130.545L167.047 134.101L172.428 137.953L176.522 140.85C176.709 143.126 177.018 145.39 177.446 147.633L175.004 149.509L169.886 153.493L175.565 156.786L177.644 158.004C176.015 162.052 174.959 166.307 174.509 170.646C174.333 173.564 174.577 176.491 175.235 179.338C175.406 180.112 175.638 180.872 175.928 181.61C175.928 181.61 175.928 181.808 175.928 181.874C177.111 184.739 179.009 187.255 181.441 189.183C180.847 190.829 180.286 192.475 179.823 193.957L176.192 195.768L170.744 198.467L175.367 202.649L177.479 204.559C177.203 206.056 177.103 207.581 177.183 209.102L173.551 211.867L168.698 215.522L173.98 218.815L178.833 221.778C179.196 222.963 179.658 224.115 180.121 225.07L178.107 230.338L175.73 236.363H187.582C188.77 237.68 190.058 238.931 191.379 240.149V245.351V251.936L197.519 249.434L200.82 248.051C202.931 249.562 205.137 250.936 207.423 252.166L208.546 256.15L210.296 262.373L215.578 258.389L218.12 256.512C220.285 257.061 222.494 257.413 224.723 257.566L227.1 260.496L231.194 265.534L234.495 259.805L236.509 256.315H236.674C237.796 255.986 238.919 255.59 239.975 255.162H240.338L242.617 256.446L248.526 259.936L250.078 251.969L250.507 249.203L251.662 248.15L257.473 248.973L263.515 249.828L262.095 243.804L261.005 239.129C262.359 237.647 263.25 236.692 263.614 236.692C272.197 236.001 288.572 239.26 293.954 219.999L297.255 222.93L302.141 227.21L304.419 221.02L306.037 216.608C307.786 215.993 309.486 215.244 311.121 214.37L315.446 215.391L321.785 216.905L320.86 210.32L320.464 207.258L320.794 206.962C324.144 203.523 326.93 199.578 329.048 195.274L332.646 194.384L338.952 192.771L335.42 187.471L333.174 184.343C333.63 182.335 333.961 180.301 334.165 178.252C334.165 178.252 334.561 173.906 334.462 171.667V170.416L338.655 165.642L343.079 160.868ZM219.969 88.4356H219.671V88.2711L219.969 88.4356ZM215.776 118.857C224.312 115.026 233.686 113.429 243.013 114.215C244.135 114.215 245.224 114.478 246.314 114.676H246.941H247.173L248.427 114.939L249.649 115.269C254.907 116.555 259.525 119.687 262.656 124.092C267.014 130.677 265.429 139.138 259.354 146.546C260.538 144.436 261.139 142.051 261.099 139.634C261.058 137.217 260.377 134.854 259.124 132.784C253.247 123.697 236.212 121.722 221.025 128.372C205.839 135.023 198.345 147.83 204.221 156.95C206.757 160.495 210.481 163.017 214.72 164.062C205.839 163.173 198.444 159.716 194.713 153.921C187.681 142.859 196.991 127.055 215.743 118.824L215.776 118.857ZM284.907 166.202C285.964 180.096 279.626 193.035 270.712 195.142C264.109 196.722 257.704 191.619 254.601 182.993L254.073 190.269C254.55 191.142 254.949 192.057 255.261 193.002L261.038 197.381L254.667 202.978C251.366 208.114 242.385 208.147 234.066 202.813C225.152 197.051 220.2 187.207 223.006 180.886C223.502 179.782 224.235 178.799 225.153 178.009C226.072 177.218 227.154 176.638 228.322 176.31L234.462 171.14L239.282 176.968C239.915 177.478 240.629 177.879 241.395 178.154H241.56L242.98 178.911H244.267L245.555 179.8L253.973 180.261C253.709 179.338 253.478 178.384 253.28 177.396V177.198V176.837L252.983 174.993V175.453V175.091V174.729C252.999 174.598 252.999 174.465 252.983 174.334V174.17C252.653 161 258.826 149.246 267.278 147.238C275.73 145.229 283.818 152.406 284.875 166.169L284.907 166.202ZM228.453 149.74C236.377 146.283 245.291 147.304 248.262 152.045C248.968 153.155 249.324 154.451 249.285 155.765C249.032 157.712 248.322 159.572 247.216 161.197C246.109 162.821 244.636 164.163 242.914 165.115C241.868 165.832 240.764 166.46 239.612 166.992C231.656 170.285 222.775 169.429 219.804 164.688C216.832 159.947 220.497 153.164 228.42 149.674L228.453 149.74ZM276.654 232.346C274.154 232.421 271.7 231.655 269.688 230.173C270.107 228.54 269.983 226.816 269.334 225.261C268.685 223.704 267.546 222.401 266.089 221.547C266.089 222.041 266.089 222.535 266.089 222.996L265.099 230.437C264.835 231.194 264.571 231.951 264.241 232.708C262.898 235.637 260.857 238.194 258.297 240.157C255.736 242.119 252.733 243.428 249.55 243.968H249.582H249.087H248.79H248.361H247.965H247.536H247.206H246.71H246.281H245.588H242.98C232.757 243.573 222.855 240.296 214.422 234.519C193.458 221.547 181.87 198.501 188.506 183.586C188.569 183.415 188.647 183.25 188.737 183.092C188.15 183.833 187.391 184.421 186.525 184.804C185.007 185.495 180.583 182.565 178.206 178.219C177.975 177.758 177.744 177.33 177.546 176.869V176.704V176.211V176.046V175.783V175.355V175.19V175.026V173.807V173.577V173.247C177.636 171.368 178.142 169.532 179.026 167.87C179.911 166.208 181.153 164.762 182.663 163.634C184.578 162.251 186.195 167.815 188.671 167.716C196.627 160.407 200.688 165.511 200.887 172.49C200.887 174.894 198.213 172.721 197.222 174.795C197.067 175.322 197.067 175.881 197.222 176.408C201.782 173.92 206.958 172.778 212.144 173.116L213.828 177.067L218.978 173.939C222.541 174.667 226.016 175.77 229.345 177.231C219.441 174.927 210.692 177.594 207.39 184.969C202.669 195.603 210.956 212.065 225.911 221.712C240.867 231.358 256.846 230.568 261.6 219.934C263.362 215.367 263.362 210.31 261.6 205.743C264.34 210.45 266.155 215.635 266.948 221.02C269.589 218.782 273.188 217.102 270.877 212.493C276.555 211.044 280.781 213.118 282.333 219.078C281.741 218.479 281.029 218.012 280.244 217.706C279.459 217.399 278.619 217.261 277.777 217.3C276.769 217.426 275.818 217.838 275.038 218.486C274.258 219.134 273.68 219.992 273.373 220.957C273.066 221.922 273.043 222.955 273.306 223.934C273.57 224.912 274.108 225.794 274.859 226.477C275.609 227.159 276.54 227.613 277.541 227.784C278.542 227.955 279.572 227.837 280.507 227.442C281.443 227.049 282.246 226.396 282.82 225.561C283.396 224.726 283.719 223.745 283.752 222.732C285.469 222.732 288.705 222.14 288.705 222.304C288.29 225.165 286.823 227.771 284.59 229.614C282.358 231.458 279.517 232.408 276.621 232.281L276.654 232.346ZM289.035 211.44C281.64 213.184 274.607 210.09 269.226 203.669C271.09 204.92 273.191 205.779 275.399 206.192C277.607 206.605 279.877 206.565 282.068 206.073C295.274 203.109 304.617 184.87 303.065 165.379C301.514 145.888 289.662 132.455 276.654 135.451C273.066 136.337 269.782 138.167 267.146 140.752C269.276 137.274 272.029 134.216 275.268 131.731C274.766 131.82 274.258 131.874 273.749 131.895C273.023 131.895 271.702 132.159 271.867 131.632C273.221 127.845 269.259 123.829 262.458 122.281C274.871 119.153 268.665 112.701 267.74 110.461C266.816 108.223 271.207 108.387 273.254 108.354C276.357 108.319 279.347 109.512 281.568 111.673C283.79 113.833 285.063 116.784 285.106 119.878C285.176 121.454 284.92 123.029 284.352 124.502C283.783 125.975 282.916 127.315 281.805 128.438L282.96 128.142C297.717 124.652 311.088 140.488 312.838 163.502C314.588 186.516 303.759 207.917 289.002 211.374L289.035 211.44Z" fill="white" fill-opacity="0.1"/>
<path fill-rule="evenodd" clip-rule="evenodd" d="M380.219 171.763C379.908 137.134 366.146 103.974 341.827 79.2541C317.508 54.5345 284.525 40.1809 249.813 39.2109V24H242.979V39.3096C208.155 40.112 175.009 54.3928 150.555 79.131C126.1 103.869 112.254 137.124 111.946 171.861H96V178.446H112.012C113.403 212.436 127.714 244.623 152.038 268.471C176.363 292.32 208.878 306.042 242.979 306.85V325.122H249.813V306.817C283.806 305.867 316.17 292.081 340.36 268.244C364.55 244.408 378.761 212.3 380.12 178.413H396V171.828L380.219 171.763ZM355.888 178.347H373.418C372.08 210.476 358.585 240.907 335.649 263.51C312.715 286.114 282.044 299.211 249.813 300.166V280.807C247.568 280.807 245.224 280.807 242.979 280.807V300.002C210.631 299.225 179.792 286.204 156.719 263.58C133.647 240.956 120.071 210.425 118.747 178.183H137.565C137.565 176.339 137.565 174.133 137.763 171.598H118.648C118.997 138.662 132.156 107.148 155.35 83.6977C178.544 60.2482 209.961 46.6947 242.979 45.8944V61.5662C244.696 61.5662 247.073 61.4016 249.78 61.5662V49.9771V46.0591C282.708 47.0275 313.982 60.6718 337.044 84.131C360.107 107.591 373.166 139.043 373.484 171.895H355.558C355.723 173.508 355.888 175.779 355.888 178.249V178.347Z" fill="white" fill-opacity="0.1"/>
<path fill-rule="evenodd" clip-rule="evenodd" d="M188.935 166.335C187.745 166.335 186.582 166.69 185.596 167.354C184.609 168.018 183.844 168.961 183.398 170.061C182.952 171.162 182.846 172.37 183.093 173.531C183.34 174.692 183.929 175.753 184.785 176.578C185.641 177.403 186.724 177.954 187.895 178.161C189.067 178.369 190.275 178.222 191.362 177.741C192.45 177.259 193.369 176.465 194.001 175.459C194.634 174.453 194.95 173.283 194.911 172.096C194.898 171.327 194.733 170.567 194.426 169.861C194.118 169.155 193.675 168.516 193.12 167.981C192.565 167.446 191.91 167.025 191.192 166.743C190.474 166.46 189.707 166.321 188.935 166.335Z" fill="white" fill-opacity="0.1"/>
<path fill-rule="evenodd" clip-rule="evenodd" d="M274.773 127.122C276.016 127.346 277.298 127.18 278.442 126.648C279.587 126.115 280.537 125.242 281.163 124.148C281.79 123.054 282.06 121.793 281.938 120.539C281.816 119.286 281.307 118.1 280.481 117.147C279.656 116.194 278.554 115.519 277.328 115.216C276.102 114.913 274.812 114.997 273.636 115.455C272.46 115.913 271.454 116.725 270.76 117.776C270.064 118.828 269.713 120.068 269.754 121.327C269.663 122.756 270.138 124.164 271.076 125.248C272.015 126.331 273.342 127.004 274.773 127.122Z" fill="white" fill-opacity="0.1"/>
<path fill-rule="evenodd" clip-rule="evenodd" d="M90.7254 63.6386L89.1919 63.0803L88.3318 62.7728C88.1073 61.4966 87.6538 60.2713 86.993 59.1557L87.2526 58.3465L87.7557 56.8333L86.1329 56.9143L85.0375 56.9709C84.6577 56.6866 84.2561 56.4322 83.8367 56.2102L83.6743 55.3444L83.3903 53.7747L82.0028 54.6243L80.9804 55.2474C80.5992 55.1745 80.169 55.1098 79.7878 55.0612V55.0046L79.9419 53.3862L78.5057 53.7908H78.3515C77.5401 51.8487 75.0004 48.3773 70.3023 50.3356L70.4728 49.8339L70.9759 48.3207L69.3531 48.4016H69.1584C68.9473 48.167 68.6796 47.9322 68.1603 47.4144L67.8033 47.1636L67.6004 47.0907L66.1237 44.3395V44.3961L66.0182 44.1373L64.8417 45.2538L64.0303 46.0226C63.291 45.9219 62.5432 45.8975 61.7989 45.9499L61.0848 45.2053L59.9733 44.0563L59.2917 45.5209L58.8211 46.5081C57.9046 46.7833 57.014 47.138 56.1597 47.5681L54.9993 47.0988L53.5145 46.5081V48.1265V49.2027C52.7897 49.7402 52.1426 50.3745 51.5914 51.0881L50.2851 51.2014L48.6623 51.3471L49.3845 52.8036L50.066 54.163C49.9677 54.5084 49.8918 54.8599 49.8389 55.2149V55.5063L48.8003 56.186L47.4614 57.0599L48.784 58.0066L49.7901 58.7187C49.836 59.2781 49.9119 59.8344 50.0173 60.3856L49.4169 60.8469L48.1592 61.826L49.5548 62.6352L50.066 62.9346C49.6654 63.9295 49.406 64.9754 49.2953 66.0418C49.2521 66.7588 49.3121 67.4782 49.4737 68.1781C49.5159 68.3683 49.5729 68.5551 49.6442 68.7365C49.6442 68.7365 49.6442 68.785 49.6442 68.8012C49.9348 69.5054 50.4013 70.1237 50.9992 70.5976C50.8531 71.0021 50.7151 71.4068 50.6015 71.7709L49.709 72.216L48.3701 72.8794L49.5062 73.9072L50.0254 74.3765C49.9574 74.7446 49.9329 75.1194 49.9525 75.4931L49.0598 76.1728L47.8671 77.0711L49.1653 77.8803L50.3581 78.6085C50.4473 78.8999 50.5609 79.183 50.6745 79.4177L50.1796 80.7124L49.5954 82.1933H52.5084C52.8004 82.5168 53.1169 82.8243 53.4414 83.1238V84.4023V86.0207L54.9506 85.4057L55.762 85.0658C56.2809 85.4372 56.8228 85.775 57.3848 86.0773L57.6608 87.0564L58.0908 88.5858L59.389 87.6066L60.0139 87.1454C60.5459 87.2802 61.0889 87.3668 61.6367 87.4044L62.2209 88.1245L63.227 89.3626L64.0384 87.9546L64.5334 87.0969H64.5739C64.8498 87.016 65.1256 86.9189 65.3853 86.8136H65.4745L66.0345 87.1292L67.4868 87.9869L67.8682 86.0288L67.9737 85.349L68.2576 85.0901L69.6858 85.2924L71.1706 85.5027L70.8217 84.022L70.5539 82.873C70.8867 82.5087 71.1057 82.2741 71.195 82.2741C73.3046 82.1042 77.3292 82.9053 78.6517 78.1715L79.4631 78.8918L80.664 79.9437L81.2239 78.4224L81.6215 77.3381C82.0515 77.1868 82.4692 77.0029 82.8711 76.7878L83.934 77.0388L85.4919 77.411L85.2647 75.7925L85.1673 75.0401L85.2484 74.9672C86.0717 74.1219 86.7564 73.1524 87.277 72.0946L88.1614 71.876L89.7112 71.4796L88.843 70.1768L88.2912 69.4081C88.4032 68.9145 88.4844 68.4146 88.5346 67.9111C88.5346 67.9111 88.632 66.8429 88.6076 66.2927V65.9852L89.6381 64.8119L90.7254 63.6386ZM60.4682 45.8365H60.3951V45.7961L60.4682 45.8365ZM59.4378 53.3134C61.5355 52.3718 63.8395 51.9792 66.1318 52.1724C66.4076 52.1724 66.6754 52.2371 66.9432 52.2858H67.0973H67.1542L67.4625 52.3504L67.7628 52.4314C69.0552 52.7474 70.1901 53.5173 70.9596 54.6C72.0307 56.2183 71.6412 58.298 70.1482 60.1187C70.439 59.6 70.5868 59.0139 70.5768 58.4198C70.5668 57.8258 70.3994 57.2449 70.0914 56.7362C68.6472 54.5029 64.4603 54.0174 60.7278 55.6519C56.9954 57.2865 55.1536 60.4343 56.5978 62.6756C57.2212 63.5468 58.1363 64.1667 59.1781 64.4235C56.9954 64.205 55.1778 63.3553 54.2609 61.9312C52.5326 59.2123 54.8209 55.3283 59.4296 53.3053L59.4378 53.3134ZM76.4284 64.9495C76.6881 68.3642 75.1303 71.5444 72.9395 72.0623C71.3167 72.4506 69.7425 71.1963 68.9798 69.0764L68.85 70.8646C68.9675 71.0792 69.0653 71.304 69.1421 71.5362L70.562 72.6125L68.9961 73.988C68.1847 75.2504 65.9776 75.2585 63.9329 73.9476C61.7421 72.5315 60.525 70.1121 61.2147 68.5584C61.3366 68.287 61.5168 68.0456 61.7425 67.8512C61.9683 67.6569 62.234 67.5143 62.5211 67.4337L64.0303 66.1632L65.215 67.5955C65.3705 67.7208 65.5461 67.8193 65.7342 67.8869H65.7748L66.1237 68.073H66.4401L66.7565 68.2914L68.8256 68.4047C68.7607 68.1781 68.7039 67.9435 68.6553 67.7006V67.6521V67.5632L68.5823 67.11V67.2232V67.1343V67.0452C68.5862 67.013 68.5862 66.9804 68.5823 66.9482V66.9077C68.5011 63.6709 70.0184 60.7822 72.0956 60.2886C74.1728 59.795 76.1607 61.5589 76.4204 64.9414L76.4284 64.9495ZM62.5535 60.9036C64.5009 60.0538 66.6917 60.3048 67.422 61.47C67.5955 61.743 67.683 62.0613 67.6734 62.3843C67.6111 62.8628 67.4368 63.3201 67.1647 63.7193C66.8927 64.1185 66.5307 64.4483 66.1075 64.6824C65.8506 64.8586 65.5791 65.0129 65.2961 65.1437C63.3406 65.9529 61.1579 65.7425 60.4276 64.5773C59.6973 63.4121 60.5981 61.7452 62.5454 60.8873L62.5535 60.9036ZM74.4 81.2061C73.7854 81.2244 73.1825 81.0363 72.6879 80.6719C72.7909 80.2706 72.7605 79.8469 72.6009 79.4646C72.4414 79.0821 72.1615 78.7619 71.8034 78.5519C71.8034 78.6732 71.8034 78.7946 71.8034 78.9079L71.5601 80.7367C71.4951 80.9228 71.4303 81.1089 71.3492 81.295C71.019 82.0149 70.5175 82.6433 69.8882 83.1257C69.2589 83.608 68.5209 83.9297 67.7384 84.0625H67.7465H67.6248H67.5517H67.4462H67.3489H67.2434H67.1623H67.0406H66.9351H66.7647H66.1237C63.6111 83.9652 61.1776 83.1599 59.105 81.7401C53.9526 78.5519 51.1046 72.8876 52.7356 69.222C52.7511 69.18 52.7701 69.1394 52.7923 69.1006C52.648 69.2827 52.4614 69.4272 52.2487 69.5213C51.8754 69.6912 50.7881 68.9711 50.2039 67.903C50.1472 67.7897 50.0903 67.6845 50.0417 67.5713V67.5307V67.4094V67.3689V67.3042V67.199V67.1585V67.1181V66.8187V66.7621V66.6811C50.0639 66.2191 50.1882 65.7679 50.4055 65.3595C50.623 64.951 50.9282 64.5955 51.2994 64.3183C51.77 63.9784 52.1676 65.3459 52.7761 65.3217C54.7315 63.5253 55.7296 64.7796 55.7783 66.495C55.7783 67.0858 55.1211 66.5516 54.8776 67.0614C54.8395 67.1909 54.8395 67.3285 54.8776 67.458C55.9983 66.8464 57.2704 66.5657 58.5451 66.6487L58.959 67.6198L60.2248 66.851C61.1004 67.03 61.9545 67.3012 62.7726 67.6602C60.3384 67.0938 58.1881 67.7493 57.3767 69.5619C56.2164 72.1755 58.2531 76.2215 61.9287 78.5923C65.6044 80.9632 69.5317 80.769 70.7 78.1553C71.1332 77.033 71.1332 75.7902 70.7 74.6677C71.3736 75.8246 71.8196 77.0989 72.0145 78.4224C72.6636 77.8722 73.5481 77.4595 72.9801 76.3266C74.3756 75.9706 75.4142 76.4803 75.7956 77.945C75.6502 77.7979 75.4752 77.683 75.2824 77.6077C75.0895 77.5324 74.8828 77.4985 74.6759 77.508C74.4283 77.5391 74.1946 77.6402 74.0029 77.7996C73.811 77.9588 73.6691 78.1696 73.5936 78.4068C73.5182 78.6442 73.5124 78.8979 73.5771 79.1384C73.6419 79.3788 73.7743 79.5957 73.9588 79.7635C74.1432 79.9311 74.3719 80.0426 74.6181 80.0847C74.864 80.1268 75.117 80.0977 75.347 80.0008C75.5769 79.9041 75.7742 79.7436 75.9155 79.5385C76.0569 79.3332 76.1364 79.092 76.1445 78.8431C76.5664 78.8431 77.3617 78.6976 77.3617 78.738C77.2597 79.4412 76.8993 80.0815 76.3505 80.5346C75.8018 80.9878 75.1037 81.2213 74.3919 81.1899L74.4 81.2061ZM77.4428 76.0677C75.6253 76.4965 73.897 75.736 72.5743 74.158C73.0324 74.4655 73.5488 74.6765 74.0914 74.7781C74.6342 74.8796 75.192 74.8696 75.7307 74.7487C78.9762 74.0204 81.2726 69.5375 80.8912 64.7472C80.5098 59.9568 77.597 56.6553 74.4 57.3916C73.5181 57.6094 72.711 58.0593 72.0631 58.6944C72.5868 57.8397 73.2633 57.0882 74.0592 56.4773C73.9359 56.4992 73.8112 56.5127 73.6859 56.5177C73.5075 56.5177 73.1829 56.5826 73.2234 56.4531C73.5562 55.5224 72.5825 54.5352 70.9109 54.1549C73.9618 53.3862 72.4364 51.8002 72.2092 51.2499C71.982 50.6997 73.0612 50.7401 73.5642 50.732C74.3269 50.7234 75.0618 51.0167 75.6077 51.5477C76.1538 52.0786 76.4665 52.8038 76.4772 53.5642C76.4945 53.9517 76.4315 54.3386 76.2918 54.7006C76.1522 55.0627 75.9391 55.3921 75.6658 55.6681L75.9498 55.5953C79.5767 54.7375 82.8629 58.6298 83.293 64.286C83.7231 69.9422 81.0617 75.2019 77.4347 76.0515L77.4428 76.0677Z" fill="white"/>
<path fill-rule="evenodd" clip-rule="evenodd" d="M99.8537 66.3162C99.7773 57.8054 96.395 49.6555 90.4178 43.58C84.4408 37.5046 76.3346 33.9768 67.8033 33.7384V30H66.1236V33.7627C57.5647 33.9599 49.4184 37.4698 43.4081 43.5498C37.3977 49.6297 33.9948 57.803 33.9191 66.3405H30V67.9589H33.9353C34.2772 76.3126 37.7945 84.2234 43.7728 90.0847C49.7511 95.9461 57.7425 99.3185 66.1236 99.5171V104.008H67.8033V99.509C76.1579 99.2757 84.1121 95.8873 90.0573 90.0289C96.0027 84.1705 99.4953 76.2792 99.8294 67.9508H103.732V66.3324L99.8537 66.3162ZM93.8736 67.9346H98.1822C97.8533 75.8311 94.5365 83.31 88.8996 88.8654C83.2629 94.4207 75.7247 97.6398 67.8033 97.8745V93.1164C67.2516 93.1164 66.6755 93.1164 66.1236 93.1164V97.834C58.1734 97.6433 50.5938 94.443 44.9232 88.8826C39.2525 83.3222 35.9159 75.8183 35.5906 67.8942H40.2156C40.2156 67.441 40.2156 66.8989 40.2643 66.2758H35.5662C35.6522 58.1809 38.8862 50.4355 44.5866 44.6722C50.2871 38.9089 58.0086 35.5778 66.1236 35.3811V39.2328C66.5456 39.2328 67.1298 39.1923 67.7952 39.2328V36.3845V35.4216C75.8881 35.6596 83.5744 39.013 89.2425 44.7786C94.9106 50.5445 98.1202 58.2746 98.1984 66.3487H93.7925C93.8331 66.7451 93.8736 67.3034 93.8736 67.9103V67.9346Z" fill="white"/>
<path d="M123.214 35.4872H137.251L136.075 38.9586H127.32V61.1788H123.214V35.4872Z" fill="white"/>
<path d="M140.692 35.4872H154.331L153.155 38.9586H144.83V46.3627H153.163V49.8341H144.83V57.7074H154.486V61.1788H140.692V35.4872Z" fill="white"/>
<path d="M158.867 48.434C158.867 40.6334 164.222 35.2523 171.728 35.2523C179.233 35.2523 184.548 40.7143 184.548 48.434C184.548 56.3802 179.072 61.5671 171.728 61.5671C164.385 61.5671 158.867 56.3477 158.867 48.434ZM180.206 48.434C180.206 42.624 176.961 38.7237 171.728 38.7237C166.64 38.7237 163.24 42.4298 163.24 48.434C163.24 54.4381 166.64 58.0956 171.728 58.0956C176.815 58.0956 180.206 54.4381 180.206 48.434Z" fill="white"/>
<path d="M189.976 35.4872H194.081V46.3222H206.983V35.4872H211.089V61.1788H206.983V49.7935H194.081V61.1788H189.976V35.4872Z" fill="white"/>
<path d="M224.728 35.3738H227.901L238.141 61.1787H233.728L231.18 54.5919H221.605L219.17 61.1787H214.87L224.728 35.3738ZM229.889 51.2338L227.78 45.3915C227.074 43.2876 226.684 42.1547 226.408 41.2565H226.336C225.936 42.6581 225.466 44.0382 224.923 45.3915L222.814 51.2338H229.889Z" fill="white"/>
<path d="M251.545 58.3708C244.745 57.8611 240.714 54.5515 240.714 48.3126C240.714 42.0738 244.859 38.6429 251.545 38.1412V34.9044H255.651V38.1412C262.337 38.6833 266.403 42.2356 266.403 48.3126C266.403 54.5919 262.345 57.8611 255.651 58.3708V61.8827H251.545V58.3708ZM251.545 41.6449C247.326 42.001 244.9 44.1453 244.9 48.3126C244.9 52.4799 247.131 54.5109 251.545 54.8265V41.6449ZM262.215 48.3126C262.215 44.3395 260.025 42.0333 255.651 41.6854V54.8265C259.87 54.5109 262.215 52.6013 262.215 48.3126Z" fill="white"/>
<path d="M276.716 38.9586H269.25V35.4872H288.992L287.824 38.9586H280.822V61.1788H276.716V38.9586Z" fill="white"/>
<path d="M122.752 77.4679H131.896L131.036 79.9925H125.608V90.4634H122.743L122.752 77.4679Z" fill="white"/>
<path d="M133.99 77.9612C135.502 77.4303 137.093 77.1568 138.696 77.152C143.191 77.152 145.641 79.7333 145.641 83.9411C145.641 87.9869 142.915 90.7544 138.947 90.7544C138.234 90.7521 137.527 90.6319 136.854 90.3984V96.9932H133.99V77.9612ZM138.752 88.3511C141.349 88.3511 142.696 86.5952 142.696 83.9005C142.696 80.8984 141.073 79.5309 138.59 79.5309C138.002 79.5266 137.417 79.6084 136.854 79.7738V87.9384C137.446 88.22 138.096 88.3612 138.752 88.3511Z" fill="white"/>
<path d="M155.418 91.07C153.52 96.2892 151.426 96.977 149.138 96.977C148.2 96.9922 147.27 96.8046 146.412 96.4268L147.126 94.1448C147.714 94.4449 148.364 94.6056 149.025 94.6142C150.566 94.6142 151.808 93.5704 152.83 90.4388L146.988 77.4918H150.071L154.128 87.1131H154.185L157.431 77.4918H160.409L155.418 91.07Z" fill="white"/>
<path d="M162.356 77.4679H173.383V90.4634H170.519V79.9925H165.22V90.4634H162.356V77.4679Z" fill="white"/>
<path d="M176.848 77.4679H187.834V90.4634H184.97V79.9925H179.72V90.4634H176.856L176.848 77.4679Z" fill="white"/>
<path d="M198.667 89.1444C198.17 89.6505 197.578 90.054 196.926 90.3317C196.272 90.6095 195.571 90.7559 194.861 90.7628C194.305 90.7982 193.746 90.7169 193.223 90.5239C192.7 90.331 192.223 90.0308 191.823 89.6427C191.423 89.2546 191.109 88.7873 190.902 88.2708C190.694 87.7543 190.596 87.2001 190.617 86.644C190.587 85.908 190.777 85.1798 191.165 84.5527C191.553 83.9255 192.119 83.428 192.792 83.1241C193.841 82.6575 194.979 82.4229 196.127 82.4363L198.472 82.3553V81.7889C198.472 80.0895 197.4 79.3613 195.85 79.3613C194.629 79.3768 193.433 79.7087 192.378 80.3243L191.389 78.4308C192.881 77.5738 194.575 77.1271 196.297 77.1361C199.544 77.1361 201.336 78.625 201.336 81.7809V86.7816C201.274 88.0144 201.359 89.2502 201.588 90.4634H199.153L198.667 89.1444ZM196.516 84.3621C195.793 84.344 195.076 84.4965 194.423 84.8072C194.135 84.9655 193.898 85.2009 193.737 85.4869C193.576 85.7729 193.499 86.0981 193.514 86.4256C193.502 86.7013 193.548 86.9766 193.651 87.2327C193.755 87.4889 193.913 87.7196 194.113 87.9094C194.314 88.0992 194.554 88.2434 194.816 88.3323C195.079 88.4211 195.357 88.4525 195.633 88.4243C196.697 88.3726 197.707 87.9352 198.472 87.1942V84.2489L196.516 84.3621Z" fill="white"/>
<path d="M211.364 72.3536H214.261V87.9952H222.416V72.3536H225.305V87.9952H227.592V95.545H224.778V90.4551H211.364V72.3536Z" fill="white"/>
<path d="M230.165 77.4679H232.981V83.7876C232.981 84.8314 232.924 85.7377 232.867 86.5388H232.924C233.338 85.851 233.914 84.9204 234.684 83.82L239.123 77.4679H241.881V90.4634H239.066V84.1437C239.058 83.228 239.097 82.3124 239.18 81.4004H239.098C238.709 82.0559 238.133 83.0189 237.362 84.1194L232.924 90.4634H230.165V77.4679Z" fill="white"/>
<path d="M251.327 90.6899C246.945 90.3016 244.681 87.4533 244.681 83.9252C244.681 80.3971 246.945 77.5488 251.327 77.1685V71.5608H254.078V77.1685C258.459 77.5488 260.722 80.4053 260.722 83.9252C260.722 87.4452 258.459 90.3016 254.078 90.6899V96.9531H251.327V90.6899ZM251.327 79.5313C250.265 79.6823 249.294 80.2103 248.591 81.0181C247.888 81.8261 247.501 82.8596 247.501 83.9292C247.501 84.9988 247.888 86.0325 248.591 86.8403C249.294 87.6483 250.265 88.1761 251.327 88.3271V79.5313ZM257.891 83.9252C257.945 82.8399 257.576 81.7758 256.861 80.9565C256.144 80.1371 255.138 79.6262 254.053 79.5313V88.3271C255.14 88.2382 256.15 87.7323 256.87 86.9157C257.59 86.0992 257.965 85.0359 257.915 83.9495L257.891 83.9252Z" fill="white"/>
<path d="M263.473 77.9612C264.986 77.4303 266.575 77.1568 268.179 77.152C272.675 77.152 275.125 79.7333 275.125 83.9411C275.125 87.9869 272.398 90.7544 268.431 90.7544C267.718 90.7521 267.01 90.6319 266.337 90.3984V96.9932H263.473V77.9612ZM268.236 88.3511C270.825 88.3511 272.179 86.5952 272.179 83.9005C272.179 80.8984 270.556 79.5309 268.073 79.5309C267.487 79.5259 266.9 79.6077 266.337 79.7738V87.9384C266.93 88.22 267.58 88.3612 268.236 88.3511Z" fill="white"/>
<path d="M285.259 89.1443C284.763 89.6512 284.172 90.0552 283.519 90.3328C282.865 90.6106 282.163 90.7567 281.453 90.7627C280.897 90.798 280.339 90.7168 279.816 90.5238C279.292 90.3309 278.815 90.0306 278.415 89.6425C278.015 89.2545 277.701 88.7872 277.494 88.2707C277.286 87.7542 277.19 87.2 277.211 86.6439C277.182 85.9072 277.374 85.1788 277.763 84.5518C278.152 83.9247 278.719 83.4276 279.392 83.124C280.442 82.6575 281.579 82.4227 282.728 82.4362L285.064 82.3552V81.7888C285.064 80.0896 283.994 79.3612 282.452 79.3612C281.23 79.3745 280.032 79.7064 278.978 80.3242L277.981 78.4307C279.462 77.5805 281.141 77.1341 282.85 77.136C286.095 77.136 287.897 78.6249 287.897 81.7807V86.7815C287.834 88.014 287.915 89.2497 288.139 90.4633H285.706L285.259 89.1443ZM283.109 84.362C282.385 84.3447 281.669 84.4972 281.016 84.8071C280.727 84.9653 280.49 85.2008 280.33 85.4868C280.169 85.7728 280.091 86.0979 280.106 86.4255C280.094 86.702 280.141 86.978 280.245 87.2348C280.347 87.4915 280.506 87.7228 280.708 87.9127C280.911 88.1027 281.152 88.2467 281.415 88.3349C281.678 88.4232 281.956 88.4536 282.233 88.4242C283.297 88.3743 284.304 87.9364 285.064 87.1941V84.2488L283.109 84.362Z" fill="white"/>
<path fill-rule="evenodd" clip-rule="evenodd" d="M52.8411 64.9822C52.5486 64.9823 52.2628 65.0696 52.0204 65.2328C51.7779 65.3959 51.5898 65.6276 51.4802 65.8981C51.3707 66.1685 51.3446 66.4654 51.4053 66.7508C51.466 67.0362 51.6108 67.297 51.8212 67.4997C52.0314 67.7025 52.2976 67.838 52.5856 67.8888C52.8736 67.9398 53.1703 67.9038 53.4377 67.7855C53.705 67.6671 53.9309 67.4718 54.0863 67.2248C54.2417 66.9775 54.3195 66.6898 54.3098 66.3982C54.3066 66.209 54.266 66.0224 54.1905 65.8488C54.115 65.6753 54.006 65.5182 53.8696 65.3868C53.7332 65.2553 53.5722 65.1518 53.3957 65.0825C53.2192 65.013 53.0308 64.9789 52.8411 64.9822Z" fill="white"/>
<path fill-rule="evenodd" clip-rule="evenodd" d="M73.9378 55.3448C74.2433 55.3997 74.5583 55.359 74.8395 55.2282C75.1209 55.0972 75.3545 54.8826 75.5084 54.6137C75.6623 54.3448 75.7288 54.035 75.6988 53.7268C75.6687 53.4187 75.5436 53.1274 75.3408 52.8932C75.1379 52.6589 74.8671 52.4931 74.5659 52.4186C74.2645 52.3441 73.9474 52.3647 73.6584 52.4773C73.3693 52.5899 73.1222 52.7893 72.9514 53.0478C72.7806 53.3062 72.6942 53.6111 72.7044 53.9206C72.682 54.2718 72.7986 54.6177 73.0293 54.8841C73.2599 55.1503 73.5861 55.3157 73.9378 55.3448Z" fill="white"/>
<path d="M226 258.136L279 278.267" stroke="white" stroke-width="1.67075"/>
<rect x="276.253" y="272.253" width="61.8164" height="61.8164" rx="12.1129" fill="#314B98" fill-opacity="0.16"/>
<rect x="276.253" y="272.253" width="61.8164" height="61.8164" rx="12.1129" stroke="white" stroke-width="2.50612"/>
<path d="M320.036 295.895H313.688V291.146C313.688 289.401 312.264 287.981 310.513 287.981H304.164C302.414 287.981 300.99 289.401 300.99 291.146V299.061H294.641C292.89 299.061 291.467 300.48 291.467 302.226V316.471C291.467 316.891 291.634 317.294 291.932 317.591C292.229 317.888 292.633 318.054 293.054 318.054H321.624C322.045 318.054 322.448 317.888 322.746 317.591C323.044 317.294 323.211 316.891 323.211 316.471V299.061C323.211 297.315 321.787 295.895 320.036 295.895ZM294.641 302.226H300.99V314.889H294.641V302.226ZM304.164 300.643V291.146H310.513V314.889H304.164V300.643ZM320.036 314.889H313.688V299.061H320.036V314.889Z" fill="white"/>
<g clip-path="url(#clip1_4110_5370)">
<rect x="30" y="147" width="197.599" height="133.276" rx="12.3499" fill="#314B98"/>
<rect x="30" y="147" width="197.599" height="17.4957" fill="#314B98"/>
<rect opacity="0.2" x="30" y="164.496" width="31.904" height="115.78" fill="white"/>
<rect opacity="0.2" x="61.9041" y="164.496" width="41.1664" height="115.78" fill="url(#paint0_linear_4110_5370)"/>
<rect opacity="0.1" x="68.0789" y="170.156" width="28.8165" height="16.4666" rx="2.05832" fill="white"/>
<rect opacity="0.1" x="68.0789" y="190.225" width="28.8165" height="6.68954" rx="2.05832" fill="white"/>
<rect opacity="0.1" x="38.2334" y="170.156" width="15.952" height="2.5729" rx="1.28645" fill="white"/>
<rect opacity="0.1" x="38.2334" y="175.817" width="15.952" height="2.5729" rx="1.28645" fill="white"/>
<rect opacity="0.1" x="38.2334" y="181.477" width="15.952" height="2.5729" rx="1.28645" fill="white"/>
<rect opacity="0.1" x="38.2334" y="187.137" width="15.952" height="2.5729" rx="1.28645" fill="white"/>
<rect opacity="0.1" x="38.2334" y="192.798" width="15.952" height="2.5729" rx="1.28645" fill="white"/>
<rect opacity="0.1" x="38.2334" y="198.458" width="15.952" height="2.5729" rx="1.28645" fill="white"/>
<rect opacity="0.1" x="38.2334" y="204.118" width="15.952" height="2.5729" rx="1.28645" fill="white"/>
<rect opacity="0.1" x="38.2334" y="209.779" width="15.952" height="2.5729" rx="1.28645" fill="white"/>
<rect opacity="0.1" x="38.2334" y="215.439" width="15.952" height="2.5729" rx="1.28645" fill="white"/>
<rect opacity="0.1" x="38.2334" y="221.099" width="15.952" height="2.5729" rx="1.28645" fill="white"/>
<rect opacity="0.1" x="38.2334" y="226.76" width="15.952" height="2.5729" rx="1.28645" fill="white"/>
<rect opacity="0.1" x="38.2334" y="232.42" width="15.952" height="2.5729" rx="1.28645" fill="white"/>
<rect opacity="0.1" x="38.2334" y="238.081" width="15.952" height="2.5729" rx="1.28645" fill="white"/>
<rect opacity="0.1" x="38.2334" y="243.741" width="15.952" height="2.5729" rx="1.28645" fill="white"/>
<rect opacity="0.1" x="38.2334" y="249.401" width="15.952" height="2.5729" rx="1.28645" fill="white"/>
<rect opacity="0.1" x="115.42" y="226.245" width="97.7702" height="6.68954" rx="2.05832" fill="white"/>
<rect opacity="0.1" x="115.42" y="236.537" width="97.7702" height="43.7393" rx="2.05832" fill="white"/>
<rect opacity="0.1" x="68.0789" y="200.516" width="28.8165" height="16.4666" rx="2.05832" fill="white"/>
<rect opacity="0.1" x="68.0789" y="220.585" width="28.8165" height="11.3208" rx="2.05832" fill="white"/>
<rect opacity="0.2" x="103.07" y="164.496" width="124.528" height="115.78" fill="url(#paint1_linear_4110_5370)"/>
<rect x="115.42" y="196.915" width="15.4374" height="19.0395" fill="#F5222D"/>
<rect x="136.003" y="183.021" width="15.4374" height="32.9331" fill="#F5222D"/>
<rect x="156.587" y="210.808" width="15.4374" height="5.1458" fill="#F5222D"/>
<rect x="177.17" y="201.546" width="15.4374" height="14.4082" fill="#F5222D"/>
<rect x="197.753" y="194.342" width="15.4374" height="21.6124" fill="#F5222D"/>
<rect x="115.42" y="186.623" width="15.4374" height="10.2916" fill="white"/>
<rect x="136.003" y="176.846" width="15.4374" height="6.17496" fill="white"/>
<rect x="156.587" y="207.721" width="15.4374" height="3.08748" fill="white"/>
<rect x="177.17" y="193.827" width="15.4374" height="7.7187" fill="white"/>
<rect x="197.753" y="183.021" width="15.4374" height="11.3208" fill="white"/>
</g>
<rect x="31.6707" y="148.671" width="194.257" height="129.935" rx="10.6792" stroke="white" stroke-width="3.3415"/>
<mask id="path-68-inside-1_4110_5370" fill="white">
<path d="M17 281.772C17 280.794 17.7935 280 18.7724 280H234.439C235.418 280 236.211 280.794 236.211 281.772V281.772C236.211 289.604 229.863 295.952 222.032 295.952H31.1795C23.3484 295.952 17 289.604 17 281.772V281.772Z"/>
</mask>
<path d="M17 281.772C17 280.794 17.7935 280 18.7724 280H234.439C235.418 280 236.211 280.794 236.211 281.772V281.772C236.211 289.604 229.863 295.952 222.032 295.952H31.1795C23.3484 295.952 17 289.604 17 281.772V281.772Z" fill="white" fill-opacity="0.1"/>
<path d="M17 281.772C17 280.794 17.7935 280 18.7724 280H234.439C235.418 280 236.211 280.794 236.211 281.772V281.772C236.211 289.604 229.863 295.952 222.032 295.952H31.1795C23.3484 295.952 17 289.604 17 281.772V281.772Z" stroke="white" stroke-width="6.68299" mask="url(#path-68-inside-1_4110_5370)"/>
</g>
<defs>
<linearGradient id="paint0_linear_4110_5370" x1="82.4873" y1="234.479" x2="36.1751" y2="235.508" gradientUnits="userSpaceOnUse">
<stop stop-color="white"/>
<stop offset="1" stop-color="white" stop-opacity="0"/>
</linearGradient>
<linearGradient id="paint1_linear_4110_5370" x1="118.508" y1="234.479" x2="79.3996" y2="235.508" gradientUnits="userSpaceOnUse">
<stop stop-color="#314B98"/>
<stop offset="1" stop-color="white" stop-opacity="0"/>
</linearGradient>
<clipPath id="clip0_4110_5370">
<rect width="360" height="360" rx="8" fill="white"/>
</clipPath>
<clipPath id="clip1_4110_5370">
<rect x="30" y="147" width="197.599" height="133.276" rx="12.3499" fill="white"/>
</clipPath>
</defs>
</svg>
