<svg width="360" height="360" viewBox="0 0 360 360" fill="none" xmlns="http://www.w3.org/2000/svg">
<g clip-path="url(#clip0_2232_75455)">
<rect width="360" height="360" rx="8" fill="#FF9601"/>
<g filter="url(#filter0_f_2232_75455)">
<circle cx="77.5" cy="54.5" r="151.5" fill="#FFC501"/>
</g>
<path d="M42.744 54.692L38.136 61.172C37.992 61.388 37.824 61.58 37.632 61.748C37.464 61.916 37.14 62 36.66 62H31.188C30.972 62 30.78 61.928 30.612 61.784C30.468 61.616 30.396 61.424 30.396 61.208C30.396 61.16 30.396 61.112 30.396 61.064C30.42 60.992 30.456 60.908 30.504 60.812L38.82 49.184L30.864 37.988C30.792 37.844 30.756 37.712 30.756 37.592C30.756 37.376 30.828 37.196 30.972 37.052C31.14 36.884 31.332 36.8 31.548 36.8H36.984C37.464 36.8 37.812 36.92 38.028 37.16C38.244 37.4 38.4 37.58 38.496 37.7L42.852 43.784L47.064 37.7C47.16 37.58 47.316 37.4 47.532 37.16C47.748 36.92 48.096 36.8 48.576 36.8H54.084C54.3 36.8 54.48 36.884 54.624 37.052C54.792 37.196 54.876 37.376 54.876 37.592C54.876 37.712 54.84 37.844 54.768 37.988L46.776 49.328L55.02 60.812C55.068 60.908 55.092 60.992 55.092 61.064C55.116 61.112 55.128 61.16 55.128 61.208C55.128 61.424 55.044 61.616 54.876 61.784C54.732 61.928 54.552 62 54.336 62H48.864C48.384 62 48.048 61.916 47.856 61.748C47.688 61.58 47.532 61.388 47.388 61.172L42.744 54.692ZM70.6418 54.692C70.0658 55.772 69.4658 56.756 68.8418 57.644C68.2178 58.532 67.5338 59.3 66.7898 59.948C66.0458 60.596 65.2058 61.1 64.2698 61.46C63.3578 61.82 62.3258 62 61.1738 62H58.5458C58.2818 62 58.0538 61.904 57.8618 61.712C57.6698 61.52 57.5738 61.292 57.5738 61.028V57.212C57.5738 56.948 57.6698 56.72 57.8618 56.528C58.0538 56.336 58.2818 56.24 58.5458 56.24H61.1738C61.7258 56.24 62.2658 56 62.7938 55.52C63.3218 55.04 63.8978 54.224 64.5218 53.072L56.3498 38.06C56.2538 37.892 56.2058 37.736 56.2058 37.592C56.2058 37.376 56.2778 37.196 56.4218 37.052C56.5898 36.884 56.7818 36.8 56.9978 36.8H61.9658C62.4458 36.8 62.8058 36.92 63.0458 37.16C63.2858 37.4 63.4298 37.58 63.4778 37.7L67.9778 46.556L72.5498 37.7C72.5978 37.58 72.7418 37.4 72.9818 37.16C73.2218 36.92 73.5818 36.8 74.0618 36.8H78.9938C79.2098 36.8 79.3898 36.884 79.5338 37.052C79.7018 37.196 79.7858 37.376 79.7858 37.592C79.7858 37.736 79.7378 37.892 79.6418 38.06L70.6418 54.692ZM80.2462 65.96C79.9822 65.96 79.7542 65.864 79.5622 65.672C79.3702 65.48 79.2742 65.252 79.2742 64.988V57.212C79.2742 56.948 79.3702 56.72 79.5622 56.528C79.7542 56.336 79.9822 56.24 80.2462 56.24H80.4622C81.3502 56.24 81.9622 55.94 82.2982 55.34C82.6582 54.716 82.8382 53.768 82.8382 52.496V37.772C82.8382 37.508 82.9342 37.28 83.1262 37.088C83.3182 36.896 83.5462 36.8 83.8102 36.8H102.098C102.362 36.8 102.59 36.896 102.782 37.088C102.974 37.28 103.07 37.508 103.07 37.772V56.24H104.222C104.486 56.24 104.714 56.336 104.906 56.528C105.098 56.72 105.194 56.948 105.194 57.212V64.988C105.194 65.252 105.098 65.48 104.906 65.672C104.714 65.864 104.486 65.96 104.222 65.96H99.5062C99.2422 65.96 99.0142 65.864 98.8222 65.672C98.6302 65.48 98.5342 65.252 98.5342 64.988V62H85.9342V64.988C85.9342 65.252 85.8382 65.48 85.6462 65.672C85.4542 65.864 85.2262 65.96 84.9622 65.96H80.2462ZM96.4102 56.24V42.56H89.4982V52.892C89.4982 53.132 89.4862 53.408 89.4622 53.72C89.4622 54.032 89.4382 54.356 89.3902 54.692C89.3422 55.004 89.2702 55.304 89.1742 55.592C89.1022 55.856 88.9942 56.072 88.8502 56.24H96.4102ZM127.232 56.24C127.496 56.24 127.724 56.336 127.916 56.528C128.108 56.72 128.204 56.948 128.204 57.212V61.028C128.204 61.292 128.108 61.52 127.916 61.712C127.724 61.904 127.496 62 127.232 62H110.168C109.904 62 109.676 61.904 109.484 61.712C109.292 61.52 109.196 61.292 109.196 61.028V37.772C109.196 37.508 109.292 37.28 109.484 37.088C109.676 36.896 109.904 36.8 110.168 36.8H126.944C127.208 36.8 127.436 36.896 127.628 37.088C127.82 37.28 127.916 37.508 127.916 37.772V41.588C127.916 41.852 127.82 42.08 127.628 42.272C127.436 42.464 127.208 42.56 126.944 42.56H115.856V46.448H126.152C126.416 46.448 126.644 46.544 126.836 46.736C127.028 46.928 127.124 47.156 127.124 47.42V51.236C127.124 51.5 127.028 51.728 126.836 51.92C126.644 52.112 126.416 52.208 126.152 52.208H115.856V56.24H127.232ZM150.365 56.24C150.629 56.24 150.857 56.336 151.049 56.528C151.241 56.72 151.337 56.948 151.337 57.212V61.028C151.337 61.292 151.241 61.52 151.049 61.712C150.857 61.904 150.629 62 150.365 62H133.301C133.037 62 132.809 61.904 132.617 61.712C132.425 61.52 132.329 61.292 132.329 61.028V37.772C132.329 37.508 132.425 37.28 132.617 37.088C132.809 36.896 133.037 36.8 133.301 36.8H150.077C150.341 36.8 150.569 36.896 150.761 37.088C150.953 37.28 151.049 37.508 151.049 37.772V41.588C151.049 41.852 150.953 42.08 150.761 42.272C150.569 42.464 150.341 42.56 150.077 42.56H138.989V46.448H149.285C149.549 46.448 149.777 46.544 149.969 46.736C150.161 46.928 150.257 47.156 150.257 47.42V51.236C150.257 51.5 150.161 51.728 149.969 51.92C149.777 52.112 149.549 52.208 149.285 52.208H138.989V56.24H150.365ZM166.837 55.952C166.477 55.952 166.189 55.856 165.973 55.664C165.781 55.448 165.625 55.244 165.505 55.052L162.121 49.112V61.028C162.121 61.292 162.025 61.52 161.833 61.712C161.641 61.904 161.413 62 161.149 62H156.433C156.169 62 155.941 61.904 155.749 61.712C155.557 61.52 155.461 61.292 155.461 61.028V37.772C155.461 37.508 155.557 37.28 155.749 37.088C155.941 36.896 156.169 36.8 156.433 36.8H160.609C161.089 36.8 161.449 36.932 161.689 37.196C161.929 37.46 162.085 37.652 162.157 37.772L167.989 47.744L173.821 37.772C173.893 37.652 174.049 37.46 174.289 37.196C174.529 36.932 174.889 36.8 175.369 36.8H179.545C179.809 36.8 180.037 36.896 180.229 37.088C180.421 37.28 180.517 37.508 180.517 37.772V61.028C180.517 61.292 180.421 61.52 180.229 61.712C180.037 61.904 179.809 62 179.545 62H174.829C174.565 62 174.337 61.904 174.145 61.712C173.953 61.52 173.857 61.292 173.857 61.028V49.112L170.473 55.052C170.353 55.244 170.185 55.448 169.969 55.664C169.777 55.856 169.501 55.952 169.141 55.952H166.837ZM33.492 102C33.228 102 33 101.904 32.808 101.712C32.616 101.52 32.52 101.292 32.52 101.028V77.772C32.52 77.508 32.616 77.28 32.808 77.088C33 76.896 33.228 76.8 33.492 76.8H45.084C46.692 76.8 48.048 77.028 49.152 77.484C50.256 77.916 51.132 78.492 51.78 79.212C52.452 79.908 52.932 80.712 53.22 81.624C53.508 82.512 53.652 83.4 53.652 84.288C53.652 84.984 53.568 85.596 53.4 86.124C53.256 86.628 53.076 87.072 52.86 87.456C52.644 87.816 52.416 88.116 52.176 88.356C51.96 88.572 51.78 88.74 51.636 88.86C52.572 89.508 53.22 90.264 53.58 91.128C53.964 91.968 54.156 92.988 54.156 94.188C54.156 95.172 54.012 96.132 53.724 97.068C53.436 98.004 52.956 98.844 52.284 99.588C51.636 100.308 50.784 100.896 49.728 101.352C48.672 101.784 47.376 102 45.84 102H33.492ZM46.956 84.432C46.956 83.808 46.764 83.316 46.38 82.956C46.02 82.572 45.48 82.38 44.76 82.38H39.18V86.484H44.76C45.48 86.484 46.02 86.304 46.38 85.944C46.764 85.56 46.956 85.056 46.956 84.432ZM39.18 96.42H45.12C45.84 96.42 46.416 96.216 46.848 95.808C47.28 95.376 47.496 94.848 47.496 94.224C47.496 93.6 47.28 93.084 46.848 92.676C46.416 92.244 45.84 92.028 45.12 92.028H39.18V96.42ZM69.5249 95.952C69.1649 95.952 68.8769 95.856 68.6609 95.664C68.4689 95.448 68.3129 95.244 68.1929 95.052L64.8089 89.112V101.028C64.8089 101.292 64.7129 101.52 64.5209 101.712C64.3289 101.904 64.1009 102 63.8369 102H59.1209C58.8569 102 58.6289 101.904 58.4369 101.712C58.2449 101.52 58.1489 101.292 58.1489 101.028V77.772C58.1489 77.508 58.2449 77.28 58.4369 77.088C58.6289 76.896 58.8569 76.8 59.1209 76.8H63.2969C63.7769 76.8 64.1369 76.932 64.3769 77.196C64.6169 77.46 64.7729 77.652 64.8449 77.772L70.6769 87.744L76.5089 77.772C76.5809 77.652 76.7369 77.46 76.9769 77.196C77.2169 76.932 77.5769 76.8 78.0569 76.8H82.2329C82.4969 76.8 82.7249 76.896 82.9169 77.088C83.1089 77.28 83.2049 77.508 83.2049 77.772V101.028C83.2049 101.292 83.1089 101.52 82.9169 101.712C82.7249 101.904 82.4969 102 82.2329 102H77.5169C77.2529 102 77.0249 101.904 76.8329 101.712C76.6409 101.52 76.5449 101.292 76.5449 101.028V89.112L73.1609 95.052C73.0409 95.244 72.8729 95.448 72.6569 95.664C72.4649 95.856 72.1889 95.952 71.8289 95.952H69.5249ZM106.279 96.24C106.543 96.24 106.771 96.336 106.963 96.528C107.155 96.72 107.251 96.948 107.251 97.212V101.028C107.251 101.292 107.155 101.52 106.963 101.712C106.771 101.904 106.543 102 106.279 102H89.2147C88.9507 102 88.7227 101.904 88.5307 101.712C88.3387 101.52 88.2427 101.292 88.2427 101.028V77.772C88.2427 77.508 88.3387 77.28 88.5307 77.088C88.7227 76.896 88.9507 76.8 89.2147 76.8H105.991C106.255 76.8 106.483 76.896 106.675 77.088C106.867 77.28 106.963 77.508 106.963 77.772V81.588C106.963 81.852 106.867 82.08 106.675 82.272C106.483 82.464 106.255 82.56 105.991 82.56H94.9027V86.448H105.199C105.463 86.448 105.691 86.544 105.883 86.736C106.075 86.928 106.171 87.156 106.171 87.42V91.236C106.171 91.5 106.075 91.728 105.883 91.92C105.691 92.112 105.463 92.208 105.199 92.208H94.9027V96.24H106.279ZM116.925 86.376C116.901 86.688 116.877 87.12 116.853 87.672C116.853 88.224 116.853 88.8 116.853 89.4C116.853 89.976 116.853 90.552 116.853 91.128C116.877 91.68 116.901 92.112 116.925 92.424C116.973 92.976 117.081 93.504 117.249 94.008C117.417 94.512 117.681 94.956 118.041 95.34C118.401 95.724 118.857 96.036 119.409 96.276C119.961 96.492 120.645 96.6 121.461 96.6C122.277 96.6 122.949 96.504 123.477 96.312C124.005 96.12 124.437 95.892 124.773 95.628C125.109 95.34 125.361 95.028 125.529 94.692C125.721 94.356 125.865 94.044 125.961 93.756C126.081 93.372 126.213 93.108 126.357 92.964C126.501 92.796 126.777 92.712 127.185 92.712H131.901C132.117 92.712 132.297 92.796 132.441 92.964C132.609 93.108 132.693 93.288 132.693 93.504C132.669 94.728 132.369 95.88 131.793 96.96C131.217 98.04 130.425 98.976 129.417 99.768C128.409 100.56 127.221 101.196 125.853 101.676C124.509 102.132 123.045 102.36 121.461 102.36C119.733 102.36 118.185 102.108 116.817 101.604C115.473 101.076 114.321 100.368 113.361 99.48C112.401 98.592 111.657 97.56 111.129 96.384C110.625 95.184 110.337 93.924 110.265 92.604C110.217 91.62 110.193 90.564 110.193 89.436C110.193 88.308 110.217 87.228 110.265 86.196C110.313 84.876 110.601 83.628 111.129 82.452C111.657 81.252 112.389 80.208 113.325 79.32C114.285 78.432 115.449 77.736 116.817 77.232C118.185 76.704 119.733 76.44 121.461 76.44C123.045 76.44 124.509 76.68 125.853 77.16C127.221 77.616 128.409 78.24 129.417 79.032C130.425 79.824 131.217 80.76 131.793 81.84C132.369 82.92 132.669 84.072 132.693 85.296C132.693 85.512 132.609 85.704 132.441 85.872C132.297 86.016 132.117 86.088 131.901 86.088H127.185C126.777 86.088 126.501 86.016 126.357 85.872C126.213 85.704 126.081 85.428 125.961 85.044C125.865 84.756 125.721 84.444 125.529 84.108C125.361 83.772 125.109 83.472 124.773 83.208C124.437 82.92 124.005 82.68 123.477 82.488C122.949 82.296 122.277 82.2 121.461 82.2C120.645 82.2 119.961 82.32 119.409 82.56C118.857 82.776 118.401 83.076 118.041 83.46C117.681 83.844 117.417 84.288 117.249 84.792C117.081 85.296 116.973 85.824 116.925 86.376ZM154.911 76.8C155.175 76.8 155.403 76.896 155.595 77.088C155.787 77.28 155.883 77.508 155.883 77.772V81.588C155.883 81.852 155.787 82.08 155.595 82.272C155.403 82.464 155.175 82.56 154.911 82.56H148.575V101.028C148.575 101.292 148.479 101.52 148.287 101.712C148.095 101.904 147.867 102 147.603 102H142.887C142.623 102 142.395 101.904 142.203 101.712C142.011 101.52 141.915 101.292 141.915 101.028V82.56H135.579C135.315 82.56 135.087 82.464 134.895 82.272C134.703 82.08 134.607 81.852 134.607 81.588V77.772C134.607 77.508 134.703 77.28 134.895 77.088C135.087 76.896 135.315 76.8 135.579 76.8H154.911ZM177.154 96.24C177.418 96.24 177.646 96.336 177.838 96.528C178.03 96.72 178.126 96.948 178.126 97.212V101.028C178.126 101.292 178.03 101.52 177.838 101.712C177.646 101.904 177.418 102 177.154 102H160.09C159.826 102 159.598 101.904 159.406 101.712C159.214 101.52 159.118 101.292 159.118 101.028V77.772C159.118 77.508 159.214 77.28 159.406 77.088C159.598 76.896 159.826 76.8 160.09 76.8H176.866C177.13 76.8 177.358 76.896 177.55 77.088C177.742 77.28 177.838 77.508 177.838 77.772V81.588C177.838 81.852 177.742 82.08 177.55 82.272C177.358 82.464 177.13 82.56 176.866 82.56H165.778V86.448H176.074C176.338 86.448 176.566 86.544 176.758 86.736C176.95 86.928 177.046 87.156 177.046 87.42V91.236C177.046 91.5 176.95 91.728 176.758 91.92C176.566 92.112 176.338 92.208 176.074 92.208H165.778V96.24H177.154Z" fill="white"/>
<circle cx="181.239" cy="271" r="100" stroke="white" stroke-opacity="0.3" stroke-width="24" style="mix-blend-mode:overlay"/>
<path d="M281.239 271C281.239 257.868 278.652 244.864 273.627 232.732C268.601 220.599 261.235 209.575 251.949 200.289C242.664 191.003 231.64 183.638 219.507 178.612C207.375 173.587 194.371 171 181.239 171" stroke="#42C082" stroke-width="24" stroke-linecap="round" stroke-linejoin="round"/>
<path d="M156.673 399.676C186.709 405.413 216.306 400.401 241.495 387.335M309.926 295.582C303.661 328.38 285.673 355.968 261.13 374.834M154.867 142.652C123.318 149.151 95.1962 167.152 76.0609 192.878M64.726 211.074C59.1376 221.952 54.9906 233.802 52.5796 246.423C48.7464 266.49 49.7116 286.361 54.671 304.853M62.1752 325.63C75.1839 353.923 98.1038 377.271 127.385 390.447" stroke="white" stroke-opacity="0.8" stroke-width="12" stroke-linecap="round"/>
<path d="M312.236 274.135C313.074 240.791 301.088 209.209 280.134 185.066M265.568 170.712C248.971 156.733 228.664 146.691 205.833 142.329C196.393 140.526 186.997 139.785 177.767 140.021" stroke="#46DA91" stroke-width="12" stroke-linecap="round"/>
<path d="M241.161 119.12C241.135 119.164 241.111 119.208 241.087 119.252L249.562 96.6252C246.724 94.6393 245.824 90.7635 247.589 87.7078C249.452 84.4794 253.594 83.3697 256.822 85.2336C260.051 87.0976 261.16 91.2388 259.296 94.4673C258.941 95.0819 258.49 95.6333 257.964 96.1059L260.966 101.863C262.937 105.655 267.446 107.376 271.447 105.861L279.389 102.86C279.227 101.443 279.514 100.005 280.238 98.7526C282.102 95.5242 286.243 94.4145 289.471 96.2784C292.7 98.1424 293.809 102.284 291.945 105.512C291.222 106.765 290.123 107.73 288.813 108.301L290.183 116.682C290.873 120.902 294.614 123.947 298.888 123.757L305.375 123.478C305.521 122.786 305.773 122.12 306.127 121.505C307.991 118.277 312.133 117.167 315.361 119.031C318.589 120.895 319.699 125.036 317.835 128.265C316.071 131.32 312.264 132.479 309.126 131.014L293.768 149.667C293.794 149.624 293.82 149.581 293.846 149.538C297.175 143.771 285.665 133.107 272.573 125.548C259.48 117.989 244.49 113.354 241.161 119.12Z" fill="white" fill-opacity="0.6" style="mix-blend-mode:overlay"/>
<path d="M244.088 120.81C245.267 118.767 255.51 119.6 270.883 128.475C286.255 137.35 292.098 145.805 290.919 147.848C289.739 149.891 279.496 149.058 264.123 140.183C248.751 131.307 242.908 122.853 244.088 120.81Z" fill="white" fill-opacity="0.6" style="mix-blend-mode:overlay"/>
<g filter="url(#filter1_d_2232_75455)">
<path d="M146.595 257.987C146.607 257.999 146.611 258.015 146.624 258.028C149.429 260.788 153.29 262.417 157.782 262.747C160.17 262.92 163.19 264.475 167.018 267.503C167.393 267.8 167.847 267.949 168.296 267.949C168.824 267.949 169.357 267.747 169.757 267.342L176.344 260.75C177.083 260.008 177.153 258.836 176.505 258.011C172.19 252.545 171.712 249.765 171.733 248.148C171.774 244.477 170.235 240.814 167.393 237.984L166.861 237.534C166.861 237.534 166.857 237.534 166.857 237.53L148.294 221.801C147.424 221.062 146.12 221.174 145.386 222.04C144.648 222.906 144.759 224.21 145.625 224.948L162.48 239.229L156.812 244.897L139.71 227.795C138.906 226.99 137.598 226.99 136.794 227.795C135.989 228.599 135.989 229.907 136.794 230.711L153.896 247.814L148.105 253.606L133.564 238.149C132.784 237.32 131.477 237.282 130.647 238.062C129.818 238.842 129.781 240.149 130.561 240.979L146.554 257.958C146.566 257.97 146.582 257.974 146.595 257.987ZM227.672 230.014C227.668 226.656 226.525 223.826 224.281 221.599C223.538 220.86 222.363 220.798 221.542 221.45C221.15 221.764 214.282 228.578 133.877 309.097C131.46 311.519 131.456 315.454 133.869 317.863C135.041 319.035 136.596 319.678 138.25 319.678C139.896 319.678 141.447 319.035 142.614 317.871L168.87 291.611C178.984 281.496 183.365 280.093 185.778 279.92C190.312 279.594 194.222 277.907 197.093 275.036C210.231 261.893 227.701 242.93 227.672 230.014ZM227.189 309.44L198.838 281.087C198.161 280.407 197.11 280.287 196.297 280.79C194.016 282.193 191.396 283.158 188.501 283.653C187.742 283.781 187.119 284.326 186.884 285.06C186.649 285.794 186.847 286.599 187.391 287.143L218.436 318.189C219.603 319.356 221.158 320 222.812 320C224.467 320 226.018 319.356 227.189 318.189C228.361 317.022 229 315.466 229 313.816C229 312.166 228.356 310.611 227.189 309.44Z" fill="#CB7803"/>
</g>
</g>
<defs>
<filter id="filter0_f_2232_75455" x="-174" y="-197" width="503" height="503" filterUnits="userSpaceOnUse" color-interpolation-filters="sRGB">
<feFlood flood-opacity="0" result="BackgroundImageFix"/>
<feBlend mode="normal" in="SourceGraphic" in2="BackgroundImageFix" result="shape"/>
<feGaussianBlur stdDeviation="50" result="effect1_foregroundBlur_2232_75455"/>
</filter>
<filter id="filter1_d_2232_75455" x="100" y="191" width="159" height="159" filterUnits="userSpaceOnUse" color-interpolation-filters="sRGB">
<feFlood flood-opacity="0" result="BackgroundImageFix"/>
<feColorMatrix in="SourceAlpha" type="matrix" values="0 0 0 0 0 0 0 0 0 0 0 0 0 0 0 0 0 0 127 0" result="hardAlpha"/>
<feOffset/>
<feGaussianBlur stdDeviation="15"/>
<feComposite in2="hardAlpha" operator="out"/>
<feColorMatrix type="matrix" values="0 0 0 0 1 0 0 0 0 1 0 0 0 0 1 0 0 0 0.5 0"/>
<feBlend mode="overlay" in2="BackgroundImageFix" result="effect1_dropShadow_2232_75455"/>
<feBlend mode="normal" in="SourceGraphic" in2="effect1_dropShadow_2232_75455" result="shape"/>
</filter>
<clipPath id="clip0_2232_75455">
<rect width="360" height="360" rx="8" fill="white"/>
</clipPath>
</defs>
</svg>
