<svg width="360" height="360" viewBox="0 0 360 360" fill="none" xmlns="http://www.w3.org/2000/svg">
<g clip-path="url(#clip0_4159_4813)">
<rect width="360" height="360" fill="#F6CA03"/>
<path d="M68 155C68 146.163 75.1634 139 84 139H276C284.837 139 292 146.163 292 155V360H68V155Z" fill="black"/>
<path d="M78 157C78 152.582 81.5817 149 86 149H274C278.418 149 282 152.582 282 157V360H78V157Z" fill="#E9E9E9"/>
<path d="M204.045 32.8752C204.045 30.1953 201.85 28 199.065 28C196.279 28 194 30.1953 194 32.8752C194 35.5574 196.111 37.6686 199.065 37.6686C201.935 37.6686 204.045 35.5574 204.045 32.8752Z" fill="black"/>
<path d="M198.054 109.249C203.54 109.249 207.932 106.487 207.932 97.4672V96.655C207.932 85.444 204.892 80.0002 200.418 72.4426C196.111 65.2129 194.93 60.9884 194.93 53.5128V53.1874C194.93 50.262 195.691 48.2304 198.392 48.2304C200.924 48.2304 201.768 49.9367 201.768 52.1318V65.9431H207.677V51.8065C207.677 46.1192 204.469 42.543 198.56 42.543C191.554 42.543 188.768 47.6616 188.768 54.3249V55.1371C188.768 65.2129 191.639 70.7366 196.029 77.9686C200.333 85.1187 201.853 90.6424 201.853 97.1441C201.853 100.718 201.6 103.562 198.307 103.562C196.029 103.562 194.93 101.938 194.93 99.5807V84.8753H189.021V99.7422C189.021 105.837 192.23 109.249 198.054 109.249Z" fill="black"/>
<path d="M175.007 45.3879C175.007 42.708 172.812 40.5127 170.027 40.5127C167.24 40.5127 164.962 42.708 164.962 45.3879C164.962 48.0701 167.073 50.1812 170.027 50.1812C172.897 50.1812 175.007 48.0701 175.007 45.3879Z" fill="black"/>
<path d="M173.488 108.436H179.397V55.0566H173.826V76.9122L173.994 88.8557L165.976 55.0566H159.982V108.436H165.553V89.6679L165.215 74.717L173.488 108.436Z" fill="black"/>
<path d="M141.16 36.6133C143.946 36.6133 146.14 38.8063 146.14 41.4885C146.14 44.1707 144.029 46.2818 141.16 46.2818C138.205 46.2818 136.094 44.1707 136.094 41.4885C136.094 38.8063 138.373 36.6133 141.16 36.6133Z" fill="black"/>
<path d="M137.277 51.1562H144.282L151.879 108.435H145.717L144.2 96.412H136.686L134.998 108.435H129.004L137.277 51.1562ZM140.484 64.806L137.276 90.7245H143.523L140.484 64.806Z" fill="black"/>
<path d="M111.695 37.5891C111.695 34.9092 109.499 32.7139 106.715 32.7139C103.928 32.7139 101.65 34.9092 101.65 37.5891C101.65 40.2713 103.761 42.3824 106.715 42.3824C109.584 42.3824 111.695 40.2713 111.695 37.5891Z" fill="black"/>
<path d="M114.987 108.436H120.896V47.2559H112.371L108.993 73.336L107.811 83.414L106.63 92.921L105.533 83.414L104.351 73.5794L100.638 47.2559H91.9421V108.436H97.7661V88.2893L97.3453 61.3151L98.78 73.6636L103.422 108.436H109.246L113.973 73.6636L115.41 61.3151L114.987 88.2893V108.436Z" fill="black"/>
<path d="M71.6003 40.5127C74.3847 40.5127 76.5805 42.708 76.5805 45.3879C76.5805 48.0701 74.4697 50.1812 71.6003 50.1812C68.6457 50.1812 66.5352 48.0701 66.5352 45.3879C66.5352 42.708 68.8137 40.5127 71.6003 40.5127Z" fill="black"/>
<path d="M61.2158 55.0557H67.8007V99.6608C67.8007 101.856 68.8975 103.562 71.3462 103.562C74.0479 103.562 75.0594 101.774 75.0594 99.6608V55.0557H81.6445V99.2558C81.6445 105.837 76.7495 109.25 71.176 109.25C65.0992 109.25 61.2158 105.837 61.2158 100.15V55.0557Z" fill="black"/>
<path d="M45.684 33.6887C45.684 31.0065 43.4882 28.8135 40.7039 28.8135C37.9172 28.8135 35.6387 31.0065 35.6387 33.6887C35.6387 36.3709 37.7494 38.482 40.7039 38.482C43.5733 38.482 45.684 36.3709 45.684 33.6887Z" fill="black"/>
<path d="M44.4176 43.2764V72.2797H36.6508V43.2764H30.0681V108.438H36.6508V78.131H44.4176V108.438H51.0027V43.2764H44.4176Z" fill="black"/>
<g filter="url(#filter0_d_4159_4813)">
<rect x="30" y="175" width="300" height="158.293" rx="9.7561" fill="white"/>
<path fill-rule="evenodd" clip-rule="evenodd" d="M134.833 202.247H136.939V203.873H132.061V198.995H133.687V201.101L137.768 197.02L138.915 198.166L134.833 202.247ZM135.663 207.076C136.573 207.377 137.557 207.54 138.565 207.54C139.012 207.54 139.378 207.906 139.378 208.353V211.19C139.378 211.637 139.012 212.003 138.565 212.003C130.931 212.003 124.744 205.816 124.744 198.182C124.744 197.735 125.11 197.369 125.557 197.369H128.402C128.85 197.369 129.215 197.735 129.215 198.182C129.215 199.198 129.378 200.174 129.679 201.085C129.768 201.369 129.703 201.686 129.476 201.914L127.687 203.702C128.858 206.003 130.744 207.881 133.045 209.06L134.833 207.272C134.996 207.117 135.199 207.036 135.411 207.036C135.492 207.036 135.581 207.044 135.663 207.076ZM127.614 198.995H126.394C126.467 200.068 126.679 201.101 127.012 202.076L127.988 201.101C127.793 200.426 127.671 199.719 127.614 198.995ZM137.752 210.353L137.744 210.352V209.141C137.028 209.093 136.321 208.971 135.63 208.776L134.663 209.743C135.644 210.067 136.674 210.279 137.744 210.352V210.353H137.752Z" fill="#97A0AF"/>
<path d="M149.273 198.869V209.512H147.984V198.869H149.273ZM152.917 204.71V209.512H151.69V201.529H152.875V202.777H152.979C153.166 202.371 153.45 202.046 153.832 201.8C154.213 201.55 154.705 201.426 155.307 201.426C155.848 201.426 156.321 201.536 156.726 201.758C157.132 201.976 157.447 202.309 157.672 202.756C157.897 203.199 158.01 203.761 158.01 204.44V209.512H156.783V204.523C156.783 203.896 156.62 203.407 156.295 203.057C155.969 202.704 155.522 202.527 154.954 202.527C154.563 202.527 154.213 202.612 153.904 202.782C153.599 202.952 153.359 203.199 153.182 203.525C153.005 203.851 152.917 204.246 152.917 204.71ZM163.494 209.678C162.745 209.678 162.101 209.501 161.56 209.148C161.02 208.795 160.604 208.308 160.313 207.688C160.022 207.067 159.877 206.359 159.877 205.562C159.877 204.751 160.026 204.036 160.324 203.416C160.625 202.792 161.044 202.306 161.581 201.956C162.122 201.602 162.752 201.426 163.473 201.426C164.034 201.426 164.54 201.529 164.99 201.737C165.441 201.945 165.81 202.236 166.097 202.61C166.385 202.985 166.563 203.421 166.633 203.92H165.406C165.313 203.556 165.105 203.234 164.782 202.953C164.464 202.669 164.034 202.527 163.494 202.527C163.016 202.527 162.596 202.652 162.236 202.901C161.879 203.147 161.6 203.496 161.399 203.946C161.202 204.393 161.103 204.918 161.103 205.521C161.103 206.137 161.2 206.674 161.394 207.132C161.592 207.589 161.869 207.944 162.226 208.197C162.586 208.45 163.009 208.576 163.494 208.576C163.812 208.576 164.102 208.521 164.362 208.41C164.621 208.299 164.841 208.14 165.022 207.932C165.202 207.724 165.33 207.475 165.406 207.184H166.633C166.563 207.655 166.392 208.079 166.118 208.457C165.848 208.831 165.489 209.129 165.042 209.351C164.599 209.569 164.083 209.678 163.494 209.678ZM171.668 209.678C170.948 209.678 170.315 209.507 169.771 209.164C169.231 208.821 168.808 208.341 168.503 207.724C168.202 207.107 168.051 206.387 168.051 205.562C168.051 204.731 168.202 204.005 168.503 203.385C168.808 202.765 169.231 202.283 169.771 201.94C170.315 201.597 170.948 201.426 171.668 201.426C172.389 201.426 173.019 201.597 173.56 201.94C174.104 202.283 174.526 202.765 174.828 203.385C175.133 204.005 175.285 204.731 175.285 205.562C175.285 206.387 175.133 207.107 174.828 207.724C174.526 208.341 174.104 208.821 173.56 209.164C173.019 209.507 172.389 209.678 171.668 209.678ZM171.668 208.576C172.216 208.576 172.666 208.436 173.019 208.155C173.373 207.875 173.634 207.506 173.804 207.048C173.974 206.591 174.059 206.096 174.059 205.562C174.059 205.029 173.974 204.531 173.804 204.071C173.634 203.61 173.373 203.237 173.019 202.953C172.666 202.669 172.216 202.527 171.668 202.527C171.121 202.527 170.67 202.669 170.317 202.953C169.964 203.237 169.702 203.61 169.532 204.071C169.363 204.531 169.278 205.029 169.278 205.562C169.278 206.096 169.363 206.591 169.532 207.048C169.702 207.506 169.964 207.875 170.317 208.155C170.67 208.436 171.121 208.576 171.668 208.576ZM177.157 209.512V201.529H178.342V202.777H178.446C178.612 202.351 178.881 202.02 179.252 201.784C179.622 201.545 180.068 201.426 180.587 201.426C181.114 201.426 181.552 201.545 181.902 201.784C182.255 202.02 182.531 202.351 182.728 202.777H182.811C183.016 202.364 183.322 202.037 183.731 201.794C184.14 201.549 184.63 201.426 185.202 201.426C185.916 201.426 186.499 201.649 186.953 202.096C187.407 202.539 187.634 203.231 187.634 204.169V209.512H186.408V204.169C186.408 203.58 186.246 203.16 185.924 202.907C185.602 202.654 185.223 202.527 184.786 202.527C184.225 202.527 183.79 202.697 183.482 203.037C183.173 203.373 183.019 203.799 183.019 204.315V209.512H181.772V204.045C181.772 203.591 181.625 203.225 181.33 202.948C181.036 202.668 180.656 202.527 180.192 202.527C179.874 202.527 179.576 202.612 179.298 202.782C179.025 202.952 178.803 203.187 178.633 203.489C178.467 203.787 178.384 204.131 178.384 204.523V209.512H177.157ZM189.876 209.512V201.529H191.103V209.512H189.876ZM190.5 200.199C190.261 200.199 190.055 200.118 189.882 199.955C189.712 199.792 189.627 199.596 189.627 199.368C189.627 199.139 189.712 198.943 189.882 198.78C190.055 198.618 190.261 198.536 190.5 198.536C190.739 198.536 190.944 198.618 191.113 198.78C191.287 198.943 191.373 199.139 191.373 199.368C191.373 199.596 191.287 199.792 191.113 199.955C190.944 200.118 190.739 200.199 190.5 200.199ZM194.576 204.71V209.512H193.349V201.529H194.534V202.777H194.638C194.825 202.371 195.109 202.046 195.49 201.8C195.871 201.55 196.363 201.426 196.966 201.426C197.507 201.426 197.98 201.536 198.385 201.758C198.79 201.976 199.106 202.309 199.331 202.756C199.556 203.199 199.668 203.761 199.668 204.44V209.512H198.442V204.523C198.442 203.896 198.279 203.407 197.954 203.057C197.628 202.704 197.181 202.527 196.613 202.527C196.221 202.527 195.871 202.612 195.563 202.782C195.258 202.952 195.017 203.199 194.841 203.525C194.664 203.851 194.576 204.246 194.576 204.71ZM205.132 212.671C204.539 212.671 204.03 212.595 203.604 212.443C203.178 212.294 202.823 212.096 202.538 211.85C202.258 211.608 202.034 211.348 201.868 211.071L202.845 210.385C202.956 210.53 203.096 210.697 203.266 210.884C203.436 211.074 203.668 211.239 203.962 211.377C204.26 211.519 204.65 211.59 205.132 211.59C205.776 211.59 206.308 211.435 206.727 211.123C207.146 210.811 207.356 210.322 207.356 209.657V208.036H207.252C207.162 208.181 207.034 208.361 206.867 208.576C206.705 208.788 206.469 208.976 206.161 209.143C205.856 209.306 205.443 209.387 204.924 209.387C204.279 209.387 203.701 209.235 203.188 208.93C202.679 208.625 202.275 208.181 201.977 207.599C201.683 207.017 201.535 206.31 201.535 205.479C201.535 204.661 201.679 203.949 201.967 203.343C202.254 202.733 202.654 202.262 203.167 201.93C203.68 201.594 204.272 201.426 204.945 201.426C205.464 201.426 205.876 201.512 206.181 201.685C206.49 201.855 206.725 202.049 206.888 202.267C207.054 202.482 207.183 202.659 207.273 202.797H207.397V201.529H208.582V209.74C208.582 210.426 208.426 210.984 208.115 211.414C207.806 211.847 207.39 212.164 206.867 212.365C206.348 212.569 205.769 212.671 205.132 212.671ZM205.09 208.285C205.582 208.285 205.998 208.173 206.337 207.947C206.677 207.722 206.935 207.398 207.112 206.976C207.288 206.553 207.377 206.047 207.377 205.458C207.377 204.883 207.29 204.376 207.117 203.936C206.944 203.496 206.687 203.151 206.348 202.901C206.008 202.652 205.589 202.527 205.09 202.527C204.57 202.527 204.137 202.659 203.791 202.922C203.448 203.185 203.19 203.539 203.017 203.982C202.847 204.426 202.762 204.918 202.762 205.458C202.762 206.013 202.848 206.503 203.022 206.929C203.198 207.352 203.458 207.684 203.801 207.927C204.148 208.166 204.577 208.285 205.09 208.285ZM218.186 209.678C217.438 209.678 216.793 209.501 216.253 209.148C215.712 208.795 215.297 208.308 215.006 207.688C214.714 207.067 214.569 206.359 214.569 205.562C214.569 204.751 214.718 204.036 215.016 203.416C215.317 202.792 215.737 202.306 216.274 201.956C216.814 201.602 217.445 201.426 218.165 201.426C218.726 201.426 219.232 201.529 219.683 201.737C220.133 201.945 220.502 202.236 220.79 202.61C221.077 202.985 221.256 203.421 221.325 203.92H220.098C220.005 203.556 219.797 203.234 219.475 202.953C219.156 202.669 218.726 202.527 218.186 202.527C217.708 202.527 217.289 202.652 216.928 202.901C216.571 203.147 216.293 203.496 216.092 203.946C215.894 204.393 215.795 204.918 215.795 205.521C215.795 206.137 215.892 206.674 216.086 207.132C216.284 207.589 216.561 207.944 216.918 208.197C217.278 208.45 217.701 208.576 218.186 208.576C218.505 208.576 218.794 208.521 219.054 208.41C219.314 208.299 219.534 208.14 219.714 207.932C219.894 207.724 220.022 207.475 220.098 207.184H221.325C221.256 207.655 221.084 208.079 220.81 208.457C220.54 208.831 220.182 209.129 219.735 209.351C219.291 209.569 218.775 209.678 218.186 209.678ZM225.467 209.699C224.961 209.699 224.502 209.604 224.089 209.413C223.677 209.219 223.35 208.94 223.107 208.576C222.865 208.209 222.744 207.766 222.744 207.246C222.744 206.789 222.834 206.418 223.014 206.134C223.194 205.846 223.435 205.621 223.736 205.458C224.038 205.295 224.37 205.174 224.734 205.094C225.101 205.011 225.47 204.945 225.841 204.897C226.326 204.835 226.719 204.788 227.02 204.757C227.325 204.722 227.547 204.665 227.686 204.585C227.828 204.505 227.899 204.367 227.899 204.169V204.128C227.899 203.615 227.758 203.217 227.478 202.933C227.201 202.648 226.78 202.506 226.215 202.506C225.629 202.506 225.17 202.635 224.838 202.891C224.505 203.147 224.271 203.421 224.136 203.712L222.972 203.296C223.18 202.811 223.457 202.434 223.804 202.163C224.154 201.89 224.535 201.699 224.947 201.592C225.363 201.481 225.772 201.426 226.173 201.426C226.43 201.426 226.724 201.457 227.057 201.519C227.393 201.578 227.717 201.701 228.029 201.888C228.344 202.075 228.605 202.357 228.813 202.735C229.021 203.113 229.125 203.619 229.125 204.253V209.512H227.899V208.431H227.836C227.753 208.604 227.615 208.789 227.421 208.987C227.227 209.184 226.969 209.352 226.646 209.491C226.324 209.63 225.931 209.699 225.467 209.699ZM225.654 208.597C226.139 208.597 226.548 208.502 226.88 208.311C227.216 208.121 227.469 207.875 227.639 207.573C227.812 207.272 227.899 206.955 227.899 206.622V205.5C227.847 205.562 227.732 205.619 227.556 205.671C227.383 205.72 227.182 205.763 226.953 205.801C226.728 205.836 226.508 205.867 226.293 205.895C226.082 205.919 225.91 205.94 225.778 205.957C225.46 205.999 225.162 206.066 224.885 206.16C224.611 206.25 224.389 206.387 224.219 206.57C224.053 206.75 223.97 206.996 223.97 207.308C223.97 207.734 224.128 208.057 224.443 208.275C224.762 208.49 225.165 208.597 225.654 208.597ZM232.59 198.869V209.512H231.364V198.869H232.59ZM236.063 198.869V209.512H234.836V198.869H236.063Z" fill="#505F79"/>
<path d="M56.2507 245.565V233.301H59.3515V245.565H56.2507ZM51.6689 240.983V237.883H63.9333V240.983H51.6689ZM73.4774 248.51C72.184 248.51 71.0321 248.288 70.0216 247.843C69.0169 247.393 68.2229 246.775 67.6397 245.99C67.0623 245.199 66.7649 244.286 66.7476 243.253H70.5239C70.547 243.686 70.6885 244.067 70.9483 244.396C71.214 244.719 71.5662 244.971 72.005 245.15C72.4439 245.329 72.9376 245.418 73.4861 245.418C74.0577 245.418 74.563 245.317 75.0018 245.115C75.4407 244.913 75.7842 244.633 76.0325 244.275C76.2808 243.917 76.405 243.504 76.405 243.036C76.405 242.563 76.2722 242.144 76.0065 241.78C75.7467 241.411 75.3714 241.122 74.8806 240.914C74.3955 240.706 73.8181 240.602 73.1483 240.602H71.494V237.848H73.1483C73.7142 237.848 74.2137 237.75 74.6467 237.554C75.0856 237.357 75.4262 237.086 75.6688 236.739C75.9113 236.387 76.0325 235.977 76.0325 235.509C76.0325 235.065 75.9257 234.675 75.7121 234.34C75.5042 234 75.2097 233.734 74.8286 233.543C74.4533 233.353 74.0144 233.258 73.5121 233.258C73.004 233.258 72.5391 233.35 72.1176 233.535C71.6961 233.714 71.3583 233.971 71.1042 234.306C70.8502 234.64 70.7145 235.033 70.6972 235.483H67.1027C67.12 234.461 67.4116 233.561 67.9775 232.781C68.5434 232.002 69.3056 231.392 70.2641 230.954C71.2284 230.509 72.3168 230.287 73.5294 230.287C74.7535 230.287 75.8247 230.509 76.7428 230.954C77.6609 231.398 78.374 231.999 78.8821 232.755C79.396 233.506 79.6501 234.349 79.6443 235.284C79.6501 236.277 79.3411 237.106 78.7175 237.77C78.0997 238.434 77.2942 238.856 76.301 239.035V239.173C77.606 239.341 78.5992 239.794 79.2805 240.533C79.9676 241.266 80.3083 242.184 80.3026 243.287C80.3083 244.298 80.0167 245.196 79.4278 245.981C78.8446 246.766 78.0391 247.384 77.0113 247.835C75.9834 248.285 74.8055 248.51 73.4774 248.51ZM88.9892 248.51C87.7651 248.51 86.6738 248.285 85.7153 247.835C84.7625 247.384 84.0061 246.763 83.446 245.972C82.8859 245.181 82.5943 244.275 82.5712 243.253H86.209C86.2494 243.94 86.5381 244.497 87.0751 244.924C87.6121 245.352 88.2501 245.565 88.9892 245.565C89.5782 245.565 90.0979 245.435 90.5483 245.175C91.0044 244.91 91.3595 244.543 91.6136 244.076C91.8735 243.602 92.0034 243.059 92.0034 242.447C92.0034 241.824 91.8706 241.275 91.605 240.802C91.3451 240.328 90.9842 239.958 90.5223 239.693C90.0604 239.427 89.532 239.292 88.9373 239.286C88.4176 239.286 87.9123 239.393 87.4215 239.606C86.9365 239.82 86.5583 240.112 86.2869 240.481L82.9523 239.883L83.7925 230.529H94.6364V233.595H86.8845L86.4255 238.039H86.5294C86.8412 237.6 87.3118 237.236 87.9412 236.947C88.5706 236.659 89.2751 236.514 90.0546 236.514C91.1228 236.514 92.0756 236.765 92.9128 237.268C93.7501 237.77 94.4112 238.46 94.8962 239.338C95.3813 240.21 95.6209 241.214 95.6151 242.352C95.6209 243.547 95.3438 244.61 94.7837 245.539C94.2293 246.463 93.4527 247.191 92.4538 247.722C91.4606 248.247 90.3058 248.51 88.9892 248.51ZM105.46 230.529V248.268H101.71V234.089H101.606L97.5438 236.635V233.309L101.935 230.529H105.46ZM117.512 237.935V240.862H109.422V237.935H117.512ZM127.851 230.529V248.268H124.1V234.089H123.996L119.934 236.635V233.309L124.326 230.529H127.851ZM131.579 248.268V245.565L137.893 239.719C138.43 239.199 138.88 238.731 139.244 238.316C139.614 237.9 139.894 237.493 140.084 237.094C140.275 236.69 140.37 236.254 140.37 235.787C140.37 235.267 140.252 234.819 140.015 234.444C139.778 234.063 139.455 233.771 139.045 233.569C138.635 233.361 138.17 233.258 137.65 233.258C137.108 233.258 136.634 233.367 136.23 233.587C135.826 233.806 135.514 234.121 135.294 234.531C135.075 234.941 134.965 235.429 134.965 235.995H131.406C131.406 234.834 131.668 233.826 132.194 232.972C132.719 232.117 133.455 231.456 134.402 230.988C135.349 230.521 136.441 230.287 137.676 230.287C138.947 230.287 140.052 230.512 140.994 230.962C141.941 231.407 142.677 232.025 143.202 232.816C143.728 233.607 143.99 234.513 143.99 235.535C143.99 236.205 143.858 236.866 143.592 237.519C143.332 238.171 142.867 238.896 142.198 239.693C141.528 240.484 140.584 241.434 139.365 242.542L136.776 245.08V245.201H144.224V248.268H131.579ZM153.011 248.51C151.717 248.51 150.565 248.288 149.555 247.843C148.55 247.393 147.756 246.775 147.173 245.99C146.595 245.199 146.298 244.286 146.281 243.253H150.057C150.08 243.686 150.222 244.067 150.481 244.396C150.747 244.719 151.099 244.971 151.538 245.15C151.977 245.329 152.471 245.418 153.019 245.418C153.591 245.418 154.096 245.317 154.535 245.115C154.974 244.913 155.317 244.633 155.566 244.275C155.814 243.917 155.938 243.504 155.938 243.036C155.938 242.563 155.805 242.144 155.54 241.78C155.28 241.411 154.905 241.122 154.414 240.914C153.929 240.706 153.351 240.602 152.681 240.602H151.027V237.848H152.681C153.247 237.848 153.747 237.75 154.18 237.554C154.619 237.357 154.959 237.086 155.202 236.739C155.444 236.387 155.566 235.977 155.566 235.509C155.566 235.065 155.459 234.675 155.245 234.34C155.037 234 154.743 233.734 154.362 233.543C153.986 233.353 153.548 233.258 153.045 233.258C152.537 233.258 152.072 233.35 151.651 233.535C151.229 233.714 150.891 233.971 150.637 234.306C150.383 234.64 150.248 235.033 150.23 235.483H146.636C146.653 234.461 146.945 233.561 147.511 232.781C148.077 232.002 148.839 231.392 149.797 230.954C150.762 230.509 151.85 230.287 153.063 230.287C154.287 230.287 155.358 230.509 156.276 230.954C157.194 231.398 157.907 231.999 158.415 232.755C158.929 233.506 159.183 234.349 159.177 235.284C159.183 236.277 158.874 237.106 158.251 237.77C157.633 238.434 156.827 238.856 155.834 239.035V239.173C157.139 239.341 158.132 239.794 158.814 240.533C159.501 241.266 159.841 242.184 159.836 243.287C159.841 244.298 159.55 245.196 158.961 245.981C158.378 246.766 157.572 247.384 156.544 247.835C155.517 248.285 154.339 248.51 153.011 248.51ZM170.367 237.935V240.862H162.278V237.935H170.367ZM172.72 245.15V242.196L180.126 230.529H182.672V234.617H181.165L176.497 242.005V242.144H187.02V245.15H172.72ZM181.234 248.268V244.249L181.304 242.941V230.529H184.82V248.268H181.234ZM195.51 248.51C194.286 248.51 193.194 248.285 192.236 247.835C191.283 247.384 190.527 246.763 189.967 245.972C189.406 245.181 189.115 244.275 189.092 243.253H192.73C192.77 243.94 193.059 244.497 193.596 244.924C194.133 245.352 194.771 245.565 195.51 245.565C196.099 245.565 196.618 245.435 197.069 245.175C197.525 244.91 197.88 244.543 198.134 244.076C198.394 243.602 198.524 243.059 198.524 242.447C198.524 241.824 198.391 241.275 198.126 240.802C197.866 240.328 197.505 239.958 197.043 239.693C196.581 239.427 196.053 239.292 195.458 239.286C194.938 239.286 194.433 239.393 193.942 239.606C193.457 239.82 193.079 240.112 192.807 240.481L189.473 239.883L190.313 230.529H201.157V233.595H193.405L192.946 238.039H193.05C193.362 237.6 193.832 237.236 194.462 236.947C195.091 236.659 195.796 236.514 196.575 236.514C197.643 236.514 198.596 236.765 199.433 237.268C200.271 237.77 200.932 238.46 201.417 239.338C201.902 240.21 202.141 241.214 202.136 242.352C202.141 243.547 201.864 244.61 201.304 245.539C200.75 246.463 199.973 247.191 198.974 247.722C197.981 248.247 196.826 248.51 195.51 248.51ZM211.071 248.51C210.159 248.504 209.279 248.351 208.43 248.051C207.587 247.751 206.83 247.263 206.16 246.587C205.491 245.912 204.959 245.017 204.567 243.902C204.18 242.788 203.986 241.419 203.986 239.797C203.992 238.307 204.163 236.976 204.497 235.804C204.838 234.626 205.323 233.627 205.953 232.807C206.588 231.987 207.347 231.364 208.231 230.936C209.114 230.503 210.104 230.287 211.201 230.287C212.385 230.287 213.43 230.518 214.337 230.98C215.243 231.436 215.971 232.056 216.519 232.842C217.074 233.627 217.409 234.508 217.524 235.483H213.826C213.681 234.866 213.378 234.381 212.916 234.028C212.454 233.676 211.883 233.5 211.201 233.5C210.046 233.5 209.169 234.002 208.568 235.007C207.974 236.012 207.67 237.377 207.659 239.104H207.78C208.046 238.578 208.404 238.131 208.854 237.761C209.31 237.386 209.827 237.1 210.404 236.904C210.988 236.702 211.603 236.601 212.249 236.601C213.3 236.601 214.236 236.849 215.056 237.346C215.876 237.836 216.522 238.512 216.996 239.372C217.469 240.233 217.706 241.217 217.706 242.326C217.706 243.527 217.426 244.595 216.866 245.531C216.312 246.466 215.535 247.199 214.536 247.731C213.543 248.256 212.388 248.516 211.071 248.51ZM211.054 245.565C211.632 245.565 212.148 245.427 212.604 245.15C213.061 244.872 213.419 244.497 213.678 244.024C213.938 243.55 214.068 243.019 214.068 242.43C214.068 241.841 213.938 241.313 213.678 240.845C213.424 240.377 213.072 240.005 212.622 239.728C212.171 239.45 211.657 239.312 211.08 239.312C210.647 239.312 210.246 239.393 209.876 239.554C209.512 239.716 209.192 239.941 208.915 240.23C208.643 240.519 208.43 240.853 208.274 241.235C208.118 241.61 208.04 242.011 208.04 242.439C208.04 243.01 208.17 243.533 208.43 244.006C208.695 244.48 209.053 244.858 209.504 245.141C209.96 245.424 210.477 245.565 211.054 245.565ZM228.201 237.935V240.862H220.111V237.935H228.201ZM230.809 248.268L238.163 233.717V233.595H229.597V230.529H242.043V233.639L234.681 248.268H230.809ZM250.385 248.51C249.052 248.51 247.865 248.294 246.826 247.86C245.792 247.422 244.981 246.824 244.392 246.068C243.803 245.311 243.508 244.454 243.508 243.495C243.508 242.756 243.676 242.078 244.011 241.46C244.351 240.836 244.813 240.319 245.397 239.909C245.98 239.494 246.632 239.228 247.354 239.113V238.991C246.407 238.801 245.639 238.342 245.05 237.614C244.461 236.881 244.167 236.029 244.167 235.059C244.167 234.141 244.435 233.324 244.972 232.608C245.509 231.886 246.245 231.32 247.181 230.91C248.122 230.495 249.19 230.287 250.385 230.287C251.581 230.287 252.646 230.495 253.581 230.91C254.523 231.326 255.262 231.895 255.799 232.617C256.336 233.333 256.607 234.147 256.613 235.059C256.607 236.035 256.307 236.887 255.712 237.614C255.117 238.342 254.355 238.801 253.426 238.991V239.113C254.136 239.228 254.78 239.494 255.357 239.909C255.94 240.319 256.402 240.836 256.743 241.46C257.089 242.078 257.265 242.756 257.271 243.495C257.265 244.454 256.968 245.311 256.379 246.068C255.79 246.824 254.976 247.422 253.937 247.86C252.903 248.294 251.719 248.51 250.385 248.51ZM250.385 245.756C250.98 245.756 251.5 245.649 251.944 245.435C252.389 245.216 252.736 244.916 252.984 244.535C253.238 244.148 253.365 243.703 253.365 243.201C253.365 242.687 253.235 242.234 252.975 241.841C252.715 241.442 252.363 241.131 251.918 240.905C251.474 240.674 250.963 240.559 250.385 240.559C249.814 240.559 249.303 240.674 248.852 240.905C248.402 241.131 248.047 241.442 247.787 241.841C247.533 242.234 247.406 242.687 247.406 243.201C247.406 243.703 247.53 244.148 247.778 244.535C248.027 244.916 248.376 245.216 248.826 245.435C249.277 245.649 249.796 245.756 250.385 245.756ZM250.385 237.831C250.882 237.831 251.324 237.73 251.711 237.528C252.097 237.325 252.401 237.045 252.62 236.687C252.839 236.329 252.949 235.917 252.949 235.449C252.949 234.987 252.839 234.583 252.62 234.236C252.401 233.884 252.1 233.61 251.719 233.413C251.338 233.211 250.894 233.11 250.385 233.11C249.883 233.11 249.438 233.211 249.052 233.413C248.665 233.61 248.362 233.884 248.142 234.236C247.929 234.583 247.822 234.987 247.822 235.449C247.822 235.917 247.931 236.329 248.151 236.687C248.37 237.045 248.673 237.325 249.06 237.528C249.447 237.73 249.889 237.831 250.385 237.831ZM265.824 230.287C266.736 230.287 267.614 230.44 268.457 230.746C269.305 231.052 270.062 231.54 270.726 232.21C271.396 232.879 271.924 233.769 272.311 234.877C272.704 235.98 272.903 237.334 272.909 238.939C272.909 240.446 272.738 241.792 272.398 242.976C272.063 244.153 271.58 245.155 270.951 245.981C270.322 246.807 269.562 247.436 268.673 247.869C267.784 248.296 266.791 248.51 265.694 248.51C264.51 248.51 263.465 248.282 262.558 247.826C261.652 247.364 260.921 246.737 260.367 245.946C259.818 245.15 259.486 244.255 259.371 243.261H263.069C263.214 243.908 263.517 244.41 263.979 244.768C264.441 245.121 265.012 245.297 265.694 245.297C266.849 245.297 267.726 244.794 268.327 243.79C268.927 242.779 269.23 241.396 269.236 239.641H269.115C268.849 240.161 268.491 240.608 268.041 240.983C267.591 241.353 267.074 241.639 266.491 241.841C265.913 242.043 265.298 242.144 264.646 242.144C263.601 242.144 262.668 241.899 261.848 241.408C261.028 240.917 260.381 240.241 259.908 239.381C259.434 238.521 259.198 237.539 259.198 236.436C259.192 235.247 259.466 234.187 260.021 233.258C260.575 232.328 261.349 231.6 262.342 231.075C263.341 230.544 264.501 230.281 265.824 230.287ZM265.85 233.232C265.266 233.232 264.747 233.37 264.291 233.647C263.84 233.924 263.482 234.297 263.217 234.765C262.957 235.232 262.83 235.755 262.835 236.332C262.835 236.915 262.962 237.441 263.217 237.909C263.476 238.371 263.829 238.74 264.273 239.017C264.724 239.289 265.238 239.424 265.815 239.424C266.248 239.424 266.649 239.344 267.019 239.182C267.388 239.02 267.709 238.798 267.98 238.515C268.257 238.226 268.474 237.894 268.63 237.519C268.786 237.144 268.864 236.745 268.864 236.324C268.858 235.764 268.725 235.25 268.465 234.782C268.205 234.314 267.847 233.939 267.391 233.656C266.935 233.373 266.421 233.232 265.85 233.232Z" fill="black"/>
<path fill-rule="evenodd" clip-rule="evenodd" d="M297.683 230.325H287.927C287.033 230.325 286.301 231.057 286.301 231.951V243.333H287.927V231.951H297.683V230.325ZM300.122 233.577H291.179C290.285 233.577 289.553 234.309 289.553 235.203V246.585C289.553 247.48 290.285 248.211 291.179 248.211H300.122C301.016 248.211 301.748 247.48 301.748 246.585V235.203C301.748 234.309 301.016 233.577 300.122 233.577ZM291.179 246.585H300.122V235.203H291.179V246.585Z" fill="#97A0AF"/>
<path d="M80.5154 279.753V278.137H89.0069V279.753H85.7173V288.78H83.8049V279.753H80.5154ZM92.442 284.103V288.78H90.5607V278.137H92.4004V282.154H92.4939C92.681 281.704 92.9703 281.349 93.3618 281.089C93.7568 280.826 94.2591 280.694 94.8689 280.694C95.4232 280.694 95.9065 280.81 96.3188 281.042C96.7311 281.274 97.0498 281.614 97.275 282.061C97.5037 282.508 97.618 283.053 97.618 283.698V288.78H95.7367V283.989C95.7367 283.452 95.5982 283.034 95.321 282.736C95.0473 282.435 94.6627 282.284 94.1673 282.284C93.8347 282.284 93.5368 282.357 93.2735 282.503C93.0136 282.645 92.8092 282.851 92.6602 283.121C92.5147 283.391 92.442 283.719 92.442 284.103ZM103.069 288.936C102.269 288.936 101.578 288.77 100.996 288.437C100.417 288.101 99.9721 287.627 99.6603 287.013C99.3485 286.397 99.1926 285.671 99.1926 284.836C99.1926 284.015 99.3485 283.294 99.6603 282.674C99.9756 282.05 100.416 281.565 100.98 281.219C101.545 280.869 102.208 280.694 102.971 280.694C103.463 280.694 103.927 280.774 104.363 280.933C104.803 281.089 105.191 281.332 105.527 281.661C105.867 281.99 106.134 282.409 106.328 282.918C106.522 283.424 106.619 284.027 106.619 284.727V285.304H100.076V284.036H104.816C104.812 283.675 104.734 283.355 104.582 283.074C104.429 282.79 104.216 282.567 103.942 282.404C103.672 282.241 103.357 282.16 102.997 282.16C102.612 282.16 102.274 282.253 101.983 282.44C101.692 282.624 101.465 282.866 101.303 283.168C101.143 283.466 101.062 283.793 101.058 284.15V285.257C101.058 285.721 101.143 286.12 101.313 286.452C101.483 286.781 101.72 287.034 102.025 287.211C102.33 287.384 102.687 287.471 103.095 287.471C103.369 287.471 103.617 287.433 103.839 287.356C104.06 287.277 104.253 287.161 104.415 287.008C104.578 286.856 104.701 286.667 104.784 286.442L106.541 286.639C106.43 287.103 106.219 287.509 105.907 287.855C105.599 288.198 105.204 288.465 104.722 288.656C104.24 288.843 103.69 288.936 103.069 288.936ZM115.322 288.936C114.525 288.936 113.841 288.761 113.269 288.411C112.701 288.061 112.263 287.578 111.955 286.961C111.65 286.341 111.497 285.628 111.497 284.82C111.497 284.01 111.653 283.294 111.965 282.674C112.277 282.05 112.717 281.565 113.285 281.219C113.857 280.869 114.532 280.694 115.312 280.694C115.96 280.694 116.533 280.814 117.032 281.053C117.534 281.288 117.934 281.623 118.232 282.056C118.53 282.485 118.7 282.988 118.742 283.563H116.944C116.871 283.178 116.698 282.858 116.424 282.601C116.154 282.341 115.792 282.212 115.338 282.212C114.953 282.212 114.615 282.315 114.324 282.523C114.033 282.728 113.806 283.022 113.644 283.407C113.484 283.791 113.405 284.252 113.405 284.789C113.405 285.333 113.484 285.801 113.644 286.192C113.803 286.58 114.026 286.88 114.314 287.091C114.605 287.299 114.946 287.403 115.338 287.403C115.615 287.403 115.863 287.351 116.081 287.247C116.303 287.14 116.488 286.986 116.637 286.785C116.786 286.584 116.888 286.34 116.944 286.052H118.742C118.697 286.617 118.53 287.117 118.243 287.554C117.955 287.987 117.564 288.326 117.068 288.572C116.573 288.815 115.991 288.936 115.322 288.936ZM122.168 278.137V288.78H120.286V278.137H122.168ZM124.102 288.78V280.798H125.983V288.78H124.102ZM125.048 279.665C124.75 279.665 124.494 279.566 124.279 279.369C124.064 279.168 123.957 278.927 123.957 278.647C123.957 278.362 124.064 278.122 124.279 277.924C124.494 277.723 124.75 277.623 125.048 277.623C125.349 277.623 125.606 277.723 125.817 277.924C126.032 278.122 126.139 278.362 126.139 278.647C126.139 278.927 126.032 279.168 125.817 279.369C125.606 279.566 125.349 279.665 125.048 279.665ZM131.452 288.936C130.651 288.936 129.96 288.77 129.378 288.437C128.8 288.101 128.354 287.627 128.043 287.013C127.731 286.397 127.575 285.671 127.575 284.836C127.575 284.015 127.731 283.294 128.043 282.674C128.358 282.05 128.798 281.565 129.363 281.219C129.927 280.869 130.591 280.694 131.353 280.694C131.845 280.694 132.309 280.774 132.746 280.933C133.186 281.089 133.574 281.332 133.91 281.661C134.249 281.99 134.516 282.409 134.71 282.918C134.904 283.424 135.001 284.027 135.001 284.727V285.304H128.458V284.036H133.198C133.194 283.675 133.116 283.355 132.964 283.074C132.811 282.79 132.598 282.567 132.325 282.404C132.054 282.241 131.739 282.16 131.379 282.16C130.994 282.16 130.657 282.253 130.366 282.44C130.075 282.624 129.848 282.866 129.685 283.168C129.525 283.466 129.444 283.793 129.44 284.15V285.257C129.44 285.721 129.525 286.12 129.695 286.452C129.865 286.781 130.102 287.034 130.407 287.211C130.712 287.384 131.069 287.471 131.478 287.471C131.751 287.471 131.999 287.433 132.221 287.356C132.443 287.277 132.635 287.161 132.798 287.008C132.96 286.856 133.083 286.667 133.167 286.442L134.923 286.639C134.812 287.103 134.601 287.509 134.289 287.855C133.981 288.198 133.586 288.465 133.104 288.656C132.623 288.843 132.072 288.936 131.452 288.936ZM138.474 284.103V288.78H136.593V280.798H138.391V282.154H138.484C138.668 281.707 138.961 281.352 139.362 281.089C139.768 280.826 140.268 280.694 140.864 280.694C141.415 280.694 141.895 280.812 142.304 281.047C142.716 281.283 143.035 281.624 143.26 282.071C143.489 282.518 143.601 283.06 143.598 283.698V288.78H141.717V283.989C141.717 283.455 141.578 283.038 141.301 282.736C141.027 282.435 140.648 282.284 140.163 282.284C139.834 282.284 139.541 282.357 139.284 282.503C139.032 282.645 138.832 282.851 138.687 283.121C138.545 283.391 138.474 283.719 138.474 284.103ZM149.496 280.798V282.253H144.907V280.798H149.496ZM146.04 278.886H147.922V286.379C147.922 286.632 147.96 286.826 148.036 286.961C148.116 287.093 148.22 287.183 148.348 287.232C148.476 287.28 148.618 287.304 148.774 287.304C148.892 287.304 148.999 287.296 149.096 287.278C149.197 287.261 149.273 287.245 149.325 287.232L149.642 288.702C149.541 288.737 149.397 288.775 149.21 288.817C149.027 288.858 148.802 288.882 148.535 288.889C148.064 288.903 147.639 288.832 147.262 288.676C146.884 288.517 146.584 288.271 146.363 287.938C146.144 287.606 146.037 287.19 146.04 286.691V278.886ZM154.699 288.78V280.798H156.581V288.78H154.699ZM155.645 279.665C155.347 279.665 155.091 279.566 154.876 279.369C154.661 279.168 154.554 278.927 154.554 278.647C154.554 278.362 154.661 278.122 154.876 277.924C155.091 277.723 155.347 277.623 155.645 277.623C155.947 277.623 156.203 277.723 156.414 277.924C156.629 278.122 156.737 278.362 156.737 278.647C156.737 278.927 156.629 279.168 156.414 279.369C156.203 279.566 155.947 279.665 155.645 279.665ZM164.824 282.908L163.109 283.095C163.061 282.922 162.976 282.759 162.855 282.606C162.737 282.454 162.577 282.331 162.376 282.238C162.175 282.144 161.929 282.097 161.638 282.097C161.247 282.097 160.918 282.182 160.651 282.352C160.388 282.522 160.258 282.742 160.261 283.012C160.258 283.244 160.343 283.433 160.516 283.578C160.693 283.724 160.984 283.843 161.389 283.937L162.751 284.228C163.506 284.391 164.067 284.649 164.434 285.002C164.805 285.356 164.992 285.818 164.996 286.39C164.992 286.892 164.845 287.336 164.554 287.72C164.266 288.101 163.866 288.399 163.353 288.614C162.841 288.829 162.252 288.936 161.587 288.936C160.61 288.936 159.823 288.732 159.227 288.323C158.631 287.911 158.276 287.337 158.162 286.603L159.996 286.426C160.079 286.786 160.256 287.058 160.526 287.242C160.797 287.426 161.148 287.517 161.581 287.517C162.028 287.517 162.387 287.426 162.657 287.242C162.931 287.058 163.068 286.831 163.068 286.561C163.068 286.333 162.979 286.144 162.803 285.995C162.629 285.846 162.359 285.731 161.992 285.652L160.63 285.366C159.865 285.207 159.298 284.938 158.931 284.56C158.564 284.179 158.382 283.698 158.385 283.116C158.382 282.624 158.515 282.198 158.785 281.837C159.059 281.474 159.438 281.193 159.924 280.995C160.412 280.795 160.975 280.694 161.612 280.694C162.548 280.694 163.284 280.893 163.821 281.292C164.362 281.69 164.696 282.229 164.824 282.908ZM171.824 288.78L169.569 280.798H171.486L172.89 286.411H172.962L174.397 280.798H176.293L177.728 286.379H177.806L179.188 280.798H181.111L178.85 288.78H176.891L175.394 283.386H175.285L173.789 288.78H171.824ZM184.721 288.941C184.215 288.941 183.76 288.851 183.355 288.671C182.953 288.488 182.634 288.217 182.398 287.86C182.166 287.504 182.05 287.064 182.05 286.54C182.05 286.09 182.133 285.718 182.3 285.423C182.466 285.129 182.693 284.893 182.98 284.716C183.268 284.54 183.592 284.406 183.952 284.316C184.316 284.223 184.692 284.155 185.08 284.114C185.548 284.065 185.927 284.022 186.218 283.984C186.509 283.942 186.72 283.88 186.852 283.797C186.987 283.71 187.055 283.577 187.055 283.396V283.365C187.055 282.974 186.939 282.671 186.706 282.456C186.474 282.241 186.14 282.134 185.703 282.134C185.243 282.134 184.877 282.234 184.607 282.435C184.34 282.636 184.16 282.873 184.066 283.147L182.31 282.898C182.449 282.412 182.677 282.007 182.996 281.681C183.315 281.352 183.704 281.106 184.165 280.944C184.626 280.777 185.135 280.694 185.693 280.694C186.078 280.694 186.46 280.739 186.842 280.829C187.223 280.919 187.571 281.068 187.886 281.276C188.201 281.481 188.454 281.759 188.645 282.113C188.839 282.466 188.936 282.908 188.936 283.438V288.78H187.127V287.684H187.065C186.951 287.905 186.79 288.113 186.582 288.307C186.377 288.498 186.119 288.652 185.807 288.77C185.499 288.884 185.137 288.941 184.721 288.941ZM185.21 287.559C185.587 287.559 185.915 287.485 186.192 287.336C186.469 287.183 186.682 286.982 186.831 286.733C186.984 286.483 187.06 286.211 187.06 285.917V284.976C187.001 285.025 186.9 285.07 186.758 285.111C186.62 285.153 186.464 285.189 186.291 285.22C186.117 285.252 185.946 285.279 185.776 285.304C185.606 285.328 185.459 285.349 185.335 285.366C185.054 285.404 184.803 285.466 184.581 285.553C184.359 285.64 184.184 285.761 184.056 285.917C183.928 286.069 183.864 286.267 183.864 286.509C183.864 286.856 183.99 287.117 184.243 287.294C184.496 287.471 184.818 287.559 185.21 287.559ZM190.828 288.78V280.798H192.709V288.78H190.828ZM191.773 279.665C191.475 279.665 191.219 279.566 191.004 279.369C190.789 279.168 190.682 278.927 190.682 278.647C190.682 278.362 190.789 278.122 191.004 277.924C191.219 277.723 191.475 277.623 191.773 277.623C192.075 277.623 192.331 277.723 192.542 277.924C192.757 278.122 192.865 278.362 192.865 278.647C192.865 278.927 192.757 279.168 192.542 279.369C192.331 279.566 192.075 279.665 191.773 279.665ZM198.629 280.798V282.253H194.04V280.798H198.629ZM195.173 278.886H197.055V286.379C197.055 286.632 197.093 286.826 197.169 286.961C197.249 287.093 197.353 287.183 197.481 287.232C197.609 287.28 197.751 287.304 197.907 287.304C198.025 287.304 198.132 287.296 198.229 287.278C198.33 287.261 198.406 287.245 198.458 287.232L198.775 288.702C198.674 288.737 198.53 288.775 198.343 288.817C198.16 288.858 197.935 288.882 197.668 288.889C197.197 288.903 196.772 288.832 196.395 288.676C196.017 288.517 195.717 288.271 195.496 287.938C195.277 287.606 195.17 287.19 195.173 286.691V278.886ZM200.203 288.78V280.798H202.084V288.78H200.203ZM201.148 279.665C200.85 279.665 200.594 279.566 200.379 279.369C200.164 279.168 200.057 278.927 200.057 278.647C200.057 278.362 200.164 278.122 200.379 277.924C200.594 277.723 200.85 277.623 201.148 277.623C201.45 277.623 201.706 277.723 201.917 277.924C202.132 278.122 202.24 278.362 202.24 278.647C202.24 278.927 202.132 279.168 201.917 279.369C201.706 279.566 201.45 279.665 201.148 279.665ZM205.899 284.103V288.78H204.018V280.798H205.816V282.154H205.91C206.094 281.707 206.386 281.352 206.788 281.089C207.193 280.826 207.694 280.694 208.29 280.694C208.841 280.694 209.321 280.812 209.73 281.047C210.142 281.283 210.461 281.624 210.686 282.071C210.914 282.518 211.027 283.06 211.024 283.698V288.78H209.142V283.989C209.142 283.455 209.004 283.038 208.727 282.736C208.453 282.435 208.073 282.284 207.588 282.284C207.259 282.284 206.967 282.357 206.71 282.503C206.457 282.645 206.258 282.851 206.113 283.121C205.971 283.391 205.899 283.719 205.899 284.103ZM216.407 291.94C215.732 291.94 215.151 291.848 214.666 291.664C214.181 291.484 213.792 291.242 213.497 290.937C213.203 290.632 212.998 290.294 212.884 289.924L214.578 289.513C214.654 289.669 214.765 289.823 214.911 289.976C215.056 290.131 215.252 290.26 215.498 290.36C215.747 290.464 216.061 290.516 216.439 290.516C216.972 290.516 217.414 290.386 217.764 290.126C218.114 289.87 218.289 289.447 218.289 288.858V287.346H218.195C218.098 287.54 217.956 287.739 217.769 287.944C217.585 288.148 217.341 288.319 217.036 288.458C216.735 288.597 216.355 288.666 215.898 288.666C215.285 288.666 214.729 288.522 214.23 288.235C213.735 287.944 213.34 287.511 213.045 286.935C212.754 286.357 212.609 285.633 212.609 284.763C212.609 283.887 212.754 283.147 213.045 282.544C213.34 281.938 213.736 281.479 214.235 281.167C214.734 280.852 215.29 280.694 215.903 280.694C216.371 280.694 216.756 280.774 217.057 280.933C217.362 281.089 217.604 281.278 217.785 281.5C217.965 281.718 218.102 281.924 218.195 282.118H218.299V280.798H220.154V288.91C220.154 289.593 219.991 290.157 219.666 290.604C219.34 291.051 218.895 291.386 218.33 291.607C217.765 291.829 217.125 291.94 216.407 291.94ZM216.423 287.19C216.821 287.19 217.161 287.093 217.442 286.899C217.722 286.705 217.935 286.426 218.081 286.062C218.226 285.699 218.299 285.262 218.299 284.753C218.299 284.25 218.226 283.81 218.081 283.433C217.939 283.055 217.727 282.762 217.447 282.555C217.17 282.343 216.828 282.238 216.423 282.238C216.004 282.238 215.654 282.347 215.373 282.565C215.093 282.783 214.881 283.083 214.739 283.464C214.597 283.842 214.526 284.271 214.526 284.753C214.526 285.241 214.597 285.669 214.739 286.036C214.885 286.4 215.098 286.684 215.378 286.889C215.663 287.09 216.011 287.19 216.423 287.19ZM229.755 280.798V282.253H225.037V280.798H229.755ZM226.216 288.78V280.044C226.216 279.507 226.327 279.061 226.549 278.704C226.774 278.347 227.076 278.08 227.453 277.903C227.831 277.727 228.25 277.638 228.711 277.638C229.036 277.638 229.326 277.664 229.579 277.716C229.832 277.768 230.019 277.815 230.14 277.857L229.766 279.312C229.686 279.287 229.586 279.263 229.464 279.239C229.343 279.211 229.208 279.197 229.059 279.197C228.709 279.197 228.461 279.282 228.316 279.452C228.174 279.618 228.103 279.857 228.103 280.169V288.78H226.216ZM234.41 288.936C233.631 288.936 232.955 288.765 232.384 288.422C231.812 288.079 231.368 287.599 231.053 286.982C230.741 286.366 230.586 285.645 230.586 284.82C230.586 283.996 230.741 283.273 231.053 282.653C231.368 282.033 231.812 281.552 232.384 281.209C232.955 280.866 233.631 280.694 234.41 280.694C235.19 280.694 235.865 280.866 236.437 281.209C237.009 281.552 237.45 282.033 237.762 282.653C238.078 283.273 238.235 283.996 238.235 284.82C238.235 285.645 238.078 286.366 237.762 286.982C237.45 287.599 237.009 288.079 236.437 288.422C235.865 288.765 235.19 288.936 234.41 288.936ZM234.421 287.429C234.843 287.429 235.197 287.313 235.481 287.081C235.765 286.845 235.976 286.53 236.115 286.135C236.257 285.74 236.328 285.3 236.328 284.815C236.328 284.327 236.257 283.885 236.115 283.49C235.976 283.092 235.765 282.775 235.481 282.539C235.197 282.303 234.843 282.186 234.421 282.186C233.988 282.186 233.627 282.303 233.34 282.539C233.056 282.775 232.843 283.092 232.701 283.49C232.562 283.885 232.493 284.327 232.493 284.815C232.493 285.3 232.562 285.74 232.701 286.135C232.843 286.53 233.056 286.845 233.34 287.081C233.627 287.313 233.988 287.429 234.421 287.429ZM239.832 288.78V280.798H241.656V282.128H241.739C241.885 281.668 242.134 281.312 242.487 281.063C242.844 280.81 243.251 280.684 243.709 280.684C243.813 280.684 243.929 280.689 244.057 280.699C244.189 280.706 244.298 280.718 244.384 280.736V282.466C244.305 282.438 244.178 282.414 244.005 282.393C243.835 282.369 243.671 282.357 243.511 282.357C243.168 282.357 242.86 282.432 242.586 282.581C242.316 282.726 242.103 282.929 241.947 283.189C241.791 283.448 241.713 283.748 241.713 284.088V288.78H239.832ZM250.433 291.774C250.177 291.774 249.94 291.753 249.721 291.711C249.507 291.673 249.335 291.628 249.207 291.576L249.643 290.111C249.917 290.19 250.161 290.228 250.376 290.225C250.591 290.222 250.78 290.154 250.943 290.022C251.109 289.894 251.249 289.679 251.364 289.378L251.525 288.947L248.63 280.798H250.626L252.465 286.826H252.548L254.393 280.798H256.394L253.198 289.747C253.049 290.17 252.852 290.532 252.606 290.833C252.36 291.138 252.058 291.37 251.701 291.529C251.348 291.692 250.925 291.774 250.433 291.774ZM260.906 288.936C260.127 288.936 259.451 288.765 258.879 288.422C258.308 288.079 257.864 287.599 257.549 286.982C257.237 286.366 257.081 285.645 257.081 284.82C257.081 283.996 257.237 283.273 257.549 282.653C257.864 282.033 258.308 281.552 258.879 281.209C259.451 280.866 260.127 280.694 260.906 280.694C261.686 280.694 262.361 280.866 262.933 281.209C263.505 281.552 263.946 282.033 264.258 282.653C264.573 283.273 264.731 283.996 264.731 284.82C264.731 285.645 264.573 286.366 264.258 286.982C263.946 287.599 263.505 288.079 262.933 288.422C262.361 288.765 261.686 288.936 260.906 288.936ZM260.917 287.429C261.339 287.429 261.693 287.313 261.977 287.081C262.261 286.845 262.472 286.53 262.611 286.135C262.753 285.74 262.824 285.3 262.824 284.815C262.824 284.327 262.753 283.885 262.611 283.49C262.472 283.092 262.261 282.775 261.977 282.539C261.693 282.303 261.339 282.186 260.917 282.186C260.483 282.186 260.123 282.303 259.836 282.539C259.552 282.775 259.338 283.092 259.196 283.49C259.058 283.885 258.989 284.327 258.989 284.815C258.989 285.3 259.058 285.74 259.196 286.135C259.338 286.53 259.552 286.845 259.836 287.081C260.123 287.313 260.483 287.429 260.917 287.429ZM271.415 285.423V280.798H273.297V288.78H271.473V287.362H271.389C271.209 287.808 270.913 288.174 270.501 288.458C270.092 288.742 269.588 288.884 268.988 288.884C268.465 288.884 268.003 288.768 267.601 288.536C267.202 288.3 266.891 287.959 266.665 287.512C266.44 287.062 266.328 286.518 266.328 285.88V280.798H268.209V285.589C268.209 286.095 268.348 286.497 268.625 286.795C268.902 287.093 269.266 287.242 269.716 287.242C269.993 287.242 270.262 287.174 270.522 287.039C270.781 286.904 270.994 286.703 271.161 286.437C271.33 286.166 271.415 285.828 271.415 285.423ZM275.231 288.78V280.798H277.055V282.128H277.138C277.284 281.668 277.533 281.312 277.887 281.063C278.244 280.81 278.651 280.684 279.108 280.684C279.212 280.684 279.328 280.689 279.456 280.699C279.588 280.706 279.697 280.718 279.783 280.736V282.466C279.704 282.438 279.577 282.414 279.404 282.393C279.234 282.369 279.07 282.357 278.91 282.357C278.567 282.357 278.259 282.432 277.985 282.581C277.715 282.726 277.502 282.929 277.346 283.189C277.19 283.448 277.112 283.748 277.112 284.088V288.78H275.231ZM141.673 308.78V300.798H143.497V302.128H143.58C143.726 301.668 143.975 301.312 144.329 301.063C144.685 300.81 145.093 300.684 145.55 300.684C145.654 300.684 145.77 300.689 145.898 300.699C146.03 300.706 146.139 300.718 146.225 300.736V302.466C146.146 302.438 146.019 302.414 145.846 302.393C145.676 302.369 145.512 302.357 145.352 302.357C145.009 302.357 144.701 302.432 144.427 302.581C144.157 302.726 143.944 302.929 143.788 303.189C143.632 303.448 143.554 303.748 143.554 304.088V308.78H141.673ZM150.68 308.936C149.88 308.936 149.189 308.77 148.607 308.437C148.028 308.101 147.583 307.627 147.271 307.013C146.96 306.397 146.804 305.671 146.804 304.836C146.804 304.015 146.96 303.294 147.271 302.674C147.587 302.05 148.027 301.565 148.591 301.219C149.156 300.869 149.819 300.694 150.582 300.694C151.074 300.694 151.538 300.774 151.974 300.933C152.414 301.089 152.802 301.332 153.138 301.661C153.478 301.99 153.745 302.409 153.939 302.918C154.133 303.424 154.23 304.027 154.23 304.727V305.304H147.687V304.036H152.427C152.423 303.675 152.345 303.355 152.193 303.074C152.04 302.79 151.827 302.567 151.553 302.404C151.283 302.241 150.968 302.16 150.608 302.16C150.223 302.16 149.885 302.253 149.594 302.44C149.303 302.624 149.076 302.866 148.913 303.168C148.754 303.466 148.673 303.793 148.669 304.15V305.257C148.669 305.721 148.754 306.12 148.924 306.452C149.094 306.781 149.331 307.034 149.636 307.211C149.941 307.384 150.298 307.471 150.706 307.471C150.98 307.471 151.228 307.433 151.45 307.356C151.671 307.277 151.864 307.161 152.026 307.008C152.189 306.856 152.312 306.667 152.395 306.442L154.152 306.639C154.041 307.103 153.83 307.509 153.518 307.855C153.21 308.198 152.815 308.465 152.333 308.656C151.851 308.843 151.301 308.936 150.68 308.936ZM162.13 302.908L160.415 303.095C160.367 302.922 160.282 302.759 160.161 302.606C160.043 302.454 159.883 302.331 159.683 302.238C159.482 302.144 159.236 302.097 158.945 302.097C158.553 302.097 158.224 302.182 157.957 302.352C157.694 302.522 157.564 302.742 157.567 303.012C157.564 303.244 157.649 303.433 157.822 303.578C157.999 303.724 158.29 303.843 158.695 303.937L160.057 304.228C160.812 304.391 161.373 304.649 161.74 305.002C162.111 305.356 162.298 305.818 162.302 306.39C162.298 306.892 162.151 307.336 161.86 307.72C161.572 308.101 161.172 308.399 160.66 308.614C160.147 308.829 159.558 308.936 158.893 308.936C157.916 308.936 157.129 308.732 156.533 308.323C155.937 307.911 155.582 307.337 155.468 306.603L157.302 306.426C157.386 306.786 157.562 307.058 157.832 307.242C158.103 307.426 158.454 307.517 158.887 307.517C159.334 307.517 159.693 307.426 159.963 307.242C160.237 307.058 160.374 306.831 160.374 306.561C160.374 306.333 160.285 306.144 160.109 305.995C159.935 305.846 159.665 305.731 159.298 305.652L157.936 305.366C157.171 305.207 156.604 304.938 156.237 304.56C155.87 304.179 155.688 303.698 155.691 303.116C155.688 302.624 155.821 302.198 156.092 301.837C156.365 301.474 156.745 301.193 157.23 300.995C157.718 300.795 158.281 300.694 158.919 300.694C159.854 300.694 160.59 300.893 161.127 301.292C161.668 301.69 162.002 302.229 162.13 302.908ZM163.853 311.774V300.798H165.703V302.118H165.812C165.909 301.924 166.046 301.718 166.223 301.5C166.399 301.278 166.638 301.089 166.94 300.933C167.241 300.774 167.626 300.694 168.094 300.694C168.71 300.694 169.266 300.852 169.762 301.167C170.261 301.479 170.656 301.941 170.947 302.555C171.241 303.164 171.388 303.913 171.388 304.8C171.388 305.676 171.245 306.421 170.957 307.034C170.669 307.647 170.278 308.115 169.782 308.437C169.287 308.759 168.726 308.921 168.099 308.921C167.641 308.921 167.262 308.844 166.961 308.692C166.659 308.539 166.417 308.356 166.233 308.141C166.053 307.923 165.913 307.717 165.812 307.523H165.734V311.774H163.853ZM165.698 304.789C165.698 305.305 165.771 305.757 165.916 306.146C166.065 306.534 166.278 306.837 166.555 307.055C166.836 307.27 167.175 307.377 167.574 307.377C167.99 307.377 168.338 307.266 168.618 307.045C168.899 306.819 169.11 306.513 169.252 306.125C169.398 305.733 169.471 305.288 169.471 304.789C169.471 304.294 169.4 303.854 169.258 303.469C169.116 303.085 168.904 302.783 168.624 302.565C168.343 302.347 167.993 302.238 167.574 302.238C167.172 302.238 166.831 302.343 166.55 302.555C166.269 302.766 166.056 303.062 165.911 303.443C165.769 303.824 165.698 304.273 165.698 304.789ZM176.481 308.936C175.702 308.936 175.026 308.765 174.454 308.422C173.883 308.079 173.439 307.599 173.124 306.982C172.812 306.366 172.656 305.645 172.656 304.82C172.656 303.996 172.812 303.273 173.124 302.653C173.439 302.033 173.883 301.552 174.454 301.209C175.026 300.866 175.702 300.694 176.481 300.694C177.261 300.694 177.936 300.866 178.508 301.209C179.08 301.552 179.521 302.033 179.833 302.653C180.148 303.273 180.306 303.996 180.306 304.82C180.306 305.645 180.148 306.366 179.833 306.982C179.521 307.599 179.08 308.079 178.508 308.422C177.936 308.765 177.261 308.936 176.481 308.936ZM176.492 307.429C176.914 307.429 177.268 307.313 177.552 307.081C177.836 306.845 178.047 306.53 178.186 306.135C178.328 305.74 178.399 305.3 178.399 304.815C178.399 304.327 178.328 303.885 178.186 303.49C178.047 303.092 177.836 302.775 177.552 302.539C177.268 302.303 176.914 302.186 176.492 302.186C176.058 302.186 175.698 302.303 175.411 302.539C175.127 302.775 174.913 303.092 174.771 303.49C174.633 303.885 174.564 304.327 174.564 304.815C174.564 305.3 174.633 305.74 174.771 306.135C174.913 306.53 175.127 306.845 175.411 307.081C175.698 307.313 176.058 307.429 176.492 307.429ZM183.784 304.103V308.78H181.903V300.798H183.701V302.154H183.794C183.978 301.707 184.271 301.352 184.673 301.089C185.078 300.826 185.579 300.694 186.174 300.694C186.725 300.694 187.205 300.812 187.614 301.047C188.026 301.283 188.345 301.624 188.57 302.071C188.799 302.518 188.911 303.06 188.908 303.698V308.78H187.027V303.989C187.027 303.455 186.888 303.038 186.611 302.736C186.337 302.435 185.958 302.284 185.473 302.284C185.144 302.284 184.851 302.357 184.595 302.503C184.342 302.645 184.142 302.851 183.997 303.121C183.855 303.391 183.784 303.719 183.784 304.103ZM197.129 302.908L195.414 303.095C195.366 302.922 195.281 302.759 195.16 302.606C195.042 302.454 194.883 302.331 194.682 302.238C194.481 302.144 194.235 302.097 193.944 302.097C193.552 302.097 193.223 302.182 192.956 302.352C192.693 302.522 192.563 302.742 192.566 303.012C192.563 303.244 192.648 303.433 192.821 303.578C192.998 303.724 193.289 303.843 193.694 303.937L195.056 304.228C195.811 304.391 196.372 304.649 196.74 305.002C197.11 305.356 197.297 305.818 197.301 306.39C197.297 306.892 197.15 307.336 196.859 307.72C196.571 308.101 196.171 308.399 195.659 308.614C195.146 308.829 194.557 308.936 193.892 308.936C192.915 308.936 192.128 308.732 191.532 308.323C190.936 307.911 190.581 307.337 190.467 306.603L192.301 306.426C192.385 306.786 192.561 307.058 192.832 307.242C193.102 307.426 193.453 307.517 193.886 307.517C194.333 307.517 194.692 307.426 194.962 307.242C195.236 307.058 195.373 306.831 195.373 306.561C195.373 306.333 195.284 306.144 195.108 305.995C194.934 305.846 194.664 305.731 194.297 305.652L192.935 305.366C192.17 305.207 191.603 304.938 191.236 304.56C190.869 304.179 190.687 303.698 190.69 303.116C190.687 302.624 190.82 302.198 191.091 301.837C191.364 301.474 191.744 301.193 192.229 300.995C192.717 300.795 193.28 300.694 193.918 300.694C194.853 300.694 195.589 300.893 196.126 301.292C196.667 301.69 197.001 302.229 197.129 302.908ZM202.386 308.936C201.586 308.936 200.894 308.77 200.312 308.437C199.734 308.101 199.289 307.627 198.977 307.013C198.665 306.397 198.509 305.671 198.509 304.836C198.509 304.015 198.665 303.294 198.977 302.674C199.292 302.05 199.732 301.565 200.297 301.219C200.861 300.869 201.525 300.694 202.287 300.694C202.779 300.694 203.243 300.774 203.68 300.933C204.12 301.089 204.508 301.332 204.844 301.661C205.183 301.99 205.45 302.409 205.644 302.918C205.838 303.424 205.935 304.027 205.935 304.727V305.304H199.392V304.036H204.132C204.128 303.675 204.051 303.355 203.898 303.074C203.746 302.79 203.533 302.567 203.259 302.404C202.989 302.241 202.673 302.16 202.313 302.16C201.929 302.16 201.591 302.253 201.3 302.44C201.009 302.624 200.782 302.866 200.619 303.168C200.46 303.466 200.378 303.793 200.375 304.15V305.257C200.375 305.721 200.46 306.12 200.629 306.452C200.799 306.781 201.036 307.034 201.341 307.211C201.646 307.384 202.003 307.471 202.412 307.471C202.686 307.471 202.933 307.433 203.155 307.356C203.377 307.277 203.569 307.161 203.732 307.008C203.895 306.856 204.018 306.667 204.101 306.442L205.857 306.639C205.746 307.103 205.535 307.509 205.223 307.855C204.915 308.198 204.52 308.465 204.038 308.656C203.557 308.843 203.006 308.936 202.386 308.936ZM208.686 308.895C208.37 308.895 208.1 308.784 207.875 308.562C207.65 308.34 207.539 308.07 207.542 307.751C207.539 307.44 207.65 307.173 207.875 306.951C208.1 306.729 208.37 306.618 208.686 306.618C208.99 306.618 209.256 306.729 209.481 306.951C209.709 307.173 209.825 307.44 209.829 307.751C209.825 307.963 209.77 308.155 209.663 308.328C209.559 308.501 209.42 308.64 209.247 308.744C209.077 308.844 208.89 308.895 208.686 308.895ZM212.93 308.895C212.615 308.895 212.345 308.784 212.119 308.562C211.894 308.34 211.783 308.07 211.787 307.751C211.783 307.44 211.894 307.173 212.119 306.951C212.345 306.729 212.615 306.618 212.93 306.618C213.235 306.618 213.5 306.729 213.725 306.951C213.954 307.173 214.07 307.44 214.073 307.751C214.07 307.963 214.014 308.155 213.907 308.328C213.803 308.501 213.665 308.64 213.491 308.744C213.322 308.844 213.135 308.895 212.93 308.895ZM217.175 308.895C216.859 308.895 216.589 308.784 216.364 308.562C216.139 308.34 216.028 308.07 216.031 307.751C216.028 307.44 216.139 307.173 216.364 306.951C216.589 306.729 216.859 306.618 217.175 306.618C217.479 306.618 217.744 306.729 217.97 306.951C218.198 307.173 218.314 307.44 218.318 307.751C218.314 307.963 218.259 308.155 218.152 308.328C218.048 308.501 217.909 308.64 217.736 308.744C217.566 308.844 217.379 308.895 217.175 308.895Z" fill="black"/>
</g>
<rect x="11" y="252" width="48" height="48" rx="24" fill="#EB5757"/>
<rect x="7" y="248" width="56" height="56" rx="28" stroke="#EB5757" stroke-opacity="0.2" stroke-width="8"/>
<path fill-rule="evenodd" clip-rule="evenodd" d="M19.3867 276.32C23.4533 272.467 28.9467 270.094 35 270.094C41.0533 270.094 46.5467 272.467 50.6133 276.32C50.8533 276.56 51 276.894 51 277.267C51 277.64 50.8533 277.974 50.6133 278.214L47.3067 281.52C47.0667 281.76 46.7333 281.907 46.36 281.907C46 281.907 45.6667 281.76 45.4267 281.534C44.3733 280.547 43.1733 279.72 41.8667 279.067C41.4267 278.854 41.12 278.4 41.12 277.867V273.734C39.2 273.094 37.1333 272.76 35 272.76C32.8667 272.76 30.8 273.094 28.8667 273.72V277.854C28.8667 278.374 28.56 278.84 28.12 279.054C26.8133 279.707 25.6267 280.547 24.5733 281.52C24.3333 281.76 24 281.894 23.64 281.894C23.2667 281.894 22.9333 281.747 22.6933 281.507L19.3867 278.2C19.1467 277.974 19 277.64 19 277.267C19 276.894 19.1467 276.56 19.3867 276.32ZM26.2 274.787V277.054C25.3333 277.547 24.4933 278.107 23.7067 278.747L22.28 277.32C23.4933 276.32 24.8133 275.48 26.2 274.787ZM43.7867 274.787L43.8 274.794V277.067C44.6933 277.574 45.5333 278.134 46.3067 278.76L47.7333 277.334C46.5106 276.324 45.195 275.473 43.8 274.794V274.787H43.7867Z" fill="white"/>
<rect x="305" y="138" width="60" height="60" rx="30" fill="#6CC0B1"/>
<rect x="300" y="133" width="70" height="70" rx="35" stroke="#6CC0B1" stroke-opacity="0.4" stroke-width="10"/>
<path fill-rule="evenodd" clip-rule="evenodd" d="M321.667 153H327.5C328.417 153 329.167 153.75 329.167 154.667C329.167 156.75 329.5 158.75 330.117 160.617C330.3 161.2 330.167 161.85 329.7 162.317L326.033 165.983C328.433 170.7 332.3 174.55 337.017 176.967L340.683 173.3C341.017 172.983 341.433 172.817 341.867 172.817C342.033 172.817 342.217 172.833 342.383 172.9C344.25 173.517 346.267 173.85 348.333 173.85C349.25 173.85 350 174.6 350 175.517V181.333C350 182.25 349.25 183 348.333 183C332.683 183 320 170.317 320 154.667C320 153.75 320.75 153 321.667 153ZM325.9 156.333C326 157.817 326.25 159.267 326.65 160.65L324.65 162.65C323.967 160.65 323.533 158.533 323.383 156.333H325.9ZM342.333 176.367C343.75 176.767 345.2 177.017 346.667 177.117V179.6C344.467 179.45 342.35 179.017 340.333 178.35L342.333 176.367Z" fill="white"/>
<path d="M-13 204.8H27V164.8H-13V204.8Z" fill="black"/>
<path d="M356 324.8H396V284.8H356V324.8Z" fill="black"/>
<path d="M312 68.96H340V40.96H312V68.96Z" fill="black"/>
<path d="M242 92.4H262V72.4H242V92.4Z" fill="black"/>
<path d="M300 109.84H312V97.84H300V109.84Z" fill="black"/>
</g>
<defs>
<filter id="filter0_d_4159_4813" x="15.2118" y="174.589" width="329.576" height="187.869" filterUnits="userSpaceOnUse" color-interpolation-filters="sRGB">
<feFlood flood-opacity="0" result="BackgroundImageFix"/>
<feColorMatrix in="SourceAlpha" type="matrix" values="0 0 0 0 0 0 0 0 0 0 0 0 0 0 0 0 0 0 127 0" result="hardAlpha"/>
<feOffset dy="14.3774"/>
<feGaussianBlur stdDeviation="7.39409"/>
<feComposite in2="hardAlpha" operator="out"/>
<feColorMatrix type="matrix" values="0 0 0 0 0 0 0 0 0 0 0 0 0 0 0 0 0 0 0.08 0"/>
<feBlend mode="normal" in2="BackgroundImageFix" result="effect1_dropShadow_4159_4813"/>
<feBlend mode="normal" in="SourceGraphic" in2="effect1_dropShadow_4159_4813" result="shape"/>
</filter>
<clipPath id="clip0_4159_4813">
<rect width="360" height="360" fill="white"/>
</clipPath>
</defs>
</svg>
