<svg width="360" height="360" viewBox="0 0 360 360" fill="none" xmlns="http://www.w3.org/2000/svg">
<g clip-path="url(#clip0_4638_23633)">
<rect width="360" height="360" rx="8" fill="#E5F6FF"/>
<path d="M30 194C30 186.268 36.268 180 44 180H316C323.732 180 330 186.268 330 194V420H30V194Z" fill="#0098FF"/>
<path d="M70 229C70 225.686 72.6863 223 76 223H284C287.314 223 290 225.686 290 229C290 232.314 287.314 235 284 235H76C72.6863 235 70 232.314 70 229Z" fill="#47B5FF"/>
<path d="M70 227C70 223.686 72.6863 221 76 221H284C287.314 221 290 223.686 290 227C290 230.314 287.314 233 284 233H76C72.6863 233 70 230.314 70 227Z" fill="#005D9C"/>
<path d="M70 267C70 263.134 73.134 260 77 260H230C233.866 260 237 263.134 237 267C237 270.866 233.866 274 230 274H77C73.134 274 70 270.866 70 267Z" fill="#48B5FF"/>
<path d="M70 289C70 285.134 73.134 282 77 282H185C188.866 282 192 285.134 192 289C192 292.866 188.866 296 185 296H77C73.134 296 70 292.866 70 289Z" fill="#48B5FF"/>
<path d="M70 316C70 314.343 71.3431 313 73 313H103C104.657 313 106 314.343 106 316C106 317.657 104.657 319 103 319H73C71.3431 319 70 317.657 70 316Z" fill="#48B5FF"/>
<path d="M70 329C70 327.343 71.3431 326 73 326H121C122.657 326 124 327.343 124 329C124 330.657 122.657 332 121 332H73C71.3431 332 70 330.657 70 329Z" fill="#48B5FF"/>
<g clip-path="url(#clip1_4638_23633)">
<g opacity="0.6">
<g filter="url(#filter0_d_4638_23633)">
<circle cx="67" cy="137" r="20" fill="#FFBB00"/>
</g>
<circle cx="67.0002" cy="137.001" r="17.2414" fill="#FFE32C"/>
<g filter="url(#filter1_i_4638_23633)">
<circle cx="67" cy="136.999" r="16.5517" fill="#FFBB00"/>
</g>
<circle cx="67" cy="136.999" r="16.0345" stroke="#FFCD42" stroke-width="1.03448"/>
<circle cx="8.96552" cy="8.96552" r="8.44828" transform="matrix(-1 0 0 1 75.9653 128.035)" fill="#ECA100" stroke="#FFC628" stroke-width="1.03448"/>
<circle cx="66.9998" cy="137.001" r="3.62069" transform="rotate(180 66.9998 137.001)" fill="#ECA100" stroke="#FFC628" stroke-width="1.03448"/>
</g>
<g opacity="0.32">
<g filter="url(#filter2_d_4638_23633)">
<circle cx="165.497" cy="106.497" r="12.4971" fill="#FFBB00"/>
</g>
<circle cx="165.497" cy="106.498" r="10.7733" fill="#FFE32C"/>
<g filter="url(#filter3_i_4638_23633)">
<circle cx="165.497" cy="106.497" r="10.3424" fill="#FFBB00"/>
</g>
<circle cx="165.497" cy="106.497" r="10.0192" stroke="#FFCD42" stroke-width="0.646396"/>
<circle cx="5.60257" cy="5.60257" r="5.27937" transform="matrix(-1 0 0 1 171.099 100.895)" fill="#ECA100" stroke="#FFC628" stroke-width="0.646396"/>
<circle cx="165.497" cy="106.498" r="2.2624" transform="rotate(180 165.497 106.498)" fill="#ECA100" stroke="#FFC628" stroke-width="0.646396"/>
</g>
<g opacity="0.32">
<g filter="url(#filter4_d_4638_23633)">
<circle cx="304" cy="153" r="10" fill="#FFBB00"/>
</g>
<circle cx="304" cy="153.002" r="8.62069" fill="#FFE32C"/>
<g filter="url(#filter5_i_4638_23633)">
<circle cx="304" cy="153" r="8.27586" fill="#FFBB00"/>
</g>
<circle cx="304" cy="153" r="8.01724" stroke="#FFCD42" stroke-width="0.517238"/>
<circle cx="4.48311" cy="4.48311" r="4.22449" transform="matrix(-1 0 0 1 308.483 148.518)" fill="#ECA100" stroke="#FFC628" stroke-width="0.517238"/>
<circle cx="304" cy="153.001" r="1.81035" transform="rotate(180 304 153.001)" fill="#ECA100" stroke="#FFC628" stroke-width="0.517238"/>
</g>
<g filter="url(#filter6_d_4638_23633)">
<circle cx="237" cy="147" r="39" fill="#FFBB00"/>
</g>
<circle cx="237" cy="147.002" r="33.6207" fill="#FFE32C"/>
<g filter="url(#filter7_i_4638_23633)">
<circle cx="237" cy="147" r="32.2759" fill="#FFBB00"/>
</g>
<circle cx="237" cy="147" r="31.2673" stroke="#FFCD42" stroke-width="2.01721"/>
<circle cx="17.4828" cy="17.4828" r="16.4741" transform="matrix(-1 0 0 1 254.482 129.518)" fill="#ECA100" stroke="#FFC628" stroke-width="2.01721"/>
<circle cx="236.999" cy="146.999" r="7.06036" transform="rotate(180 236.999 146.999)" fill="#ECA100" stroke="#FFC628" stroke-width="2.01721"/>
<g filter="url(#filter8_d_4638_23633)">
<circle cx="144" cy="195" r="58" fill="#FFBB00"/>
</g>
<circle cx="144" cy="195" r="50" fill="#FFE32C"/>
<g filter="url(#filter9_i_4638_23633)">
<circle cx="144" cy="195" r="48" fill="#FFBB00"/>
</g>
<circle cx="144" cy="195" r="46.5" stroke="#FFCD42" stroke-width="3"/>
<circle cx="26" cy="26" r="24.5" transform="matrix(-1 0 0 1 170 169)" fill="#ECA100" stroke="#FFC628" stroke-width="3"/>
<circle cx="144" cy="195" r="10.5" transform="rotate(180 144 195)" fill="#ECA100" stroke="#FFC628" stroke-width="3"/>
</g>
<path d="M43.9161 59.9333V30.3333H49.7755V60.4C49.7755 72.3333 43.9161 76 36.1923 76C33.9951 76 31.3983 75.5333 30 74.9333L30.799 70.2C31.9975 70.6667 33.7287 71.0667 35.7262 71.0667C40.9198 71.0667 43.9161 68.7333 43.9161 59.9333Z" fill="black"/>
<path d="M81.8769 55.4667V67.5333C81.8769 70.3333 82.0101 73.0667 82.343 75.2667H77.0829L76.6168 71.2H76.417C74.6192 73.7333 71.1569 76 66.5625 76C60.0373 76 56.7081 71.4 56.7081 66.7333C56.7081 58.9333 63.6328 54.6667 76.0841 54.7333V54.0667C76.0841 51.4667 75.3517 46.6 68.7598 46.6667C65.6969 46.6667 62.5675 47.5333 60.3036 49.0667L58.9719 45.1333C61.6353 43.4667 65.5638 42.3333 69.6254 42.3333C79.4799 42.3333 81.8769 49.0667 81.8769 55.4667ZM76.2173 64.4V58.8C69.8252 58.6667 62.5675 59.8 62.5675 66.0667C62.5675 69.9333 65.0977 71.6667 68.0274 71.6667C72.2888 71.6667 75.0187 69 75.9509 66.2667C76.1507 65.6 76.2173 64.9333 76.2173 64.4Z" fill="black"/>
<path d="M87.6978 75.2667V71.8667L102.213 52.8667C103.678 51.0667 105.01 49.5333 106.475 47.8V47.6667H89.0295V43H113.533V46.6667L99.1503 65.4C97.7521 67.2 96.487 68.8667 95.0221 70.4667V70.6H113.799V75.2667H87.6978Z" fill="black"/>
<path d="M116.178 75.2667V71.8667L130.694 52.8667C132.158 51.0667 133.49 49.5333 134.955 47.8V47.6667H117.51V43H142.013V46.6667L127.631 65.4C126.232 67.2 124.967 68.8667 123.502 70.4667V70.6H142.279V75.2667H116.178Z" fill="black"/>
<path d="M147.855 75.2667V30.9333C150.984 30.4 155.379 30 161.571 30C167.83 30 172.291 31.2 175.287 33.6C178.217 35.8667 180.081 39.6 180.081 44C180.081 48.4 178.683 52.2 175.953 54.6667C172.491 57.8667 167.364 59.4 161.371 59.4C160.04 59.4 158.841 59.3333 157.909 59.1333V75.2667H147.855ZM157.909 38.0667V51.3333C158.774 51.5333 159.773 51.6 161.305 51.6C166.698 51.6 170.027 48.8667 170.027 44.3333C170.027 40.2 167.164 37.7333 162.037 37.7333C160.04 37.7333 158.641 37.8667 157.909 38.0667Z" fill="#0098FF"/>
<path d="M212.14 56V67.4C212.14 70.4667 212.273 73.4667 212.673 75.2667H203.551L202.952 72H202.752C200.621 74.6 197.292 76 193.43 76C186.838 76 182.91 71.2 182.91 66C182.91 57.5333 190.5 53.5333 202.019 53.5333V53.1333C202.019 51.3333 201.087 48.8667 196.093 48.8667C192.764 48.8667 189.235 50 187.104 51.3333L185.24 44.8C187.504 43.5333 191.965 41.8667 197.891 41.8667C208.744 41.8667 212.14 48.2667 212.14 56ZM202.352 63.4V59.8667C197.025 59.8667 192.897 61.1333 192.897 65C192.897 67.6 194.628 68.8667 196.892 68.8667C199.356 68.8667 201.487 67.2 202.152 65.1333C202.286 64.6 202.352 64 202.352 63.4Z" fill="#0098FF"/>
<path d="M215.776 42.6667H227.028L231.889 58.7333C232.422 60.6 233.088 63.0667 233.487 64.8H233.753C234.153 63 234.686 60.6 235.152 58.6667L239.213 42.6667H250L242.409 64.1333C237.749 77.1333 234.619 82.2667 230.957 85.5333C227.495 88.6 223.766 89.7333 221.236 90L219.038 81.4667C220.303 81.2 221.901 80.6 223.433 79.7333C224.964 78.9333 226.696 77.2667 227.628 75.6667C227.961 75.1333 228.16 74.6 228.16 74.2C228.16 73.8 228.094 73.3333 227.761 72.5333L215.776 42.6667Z" fill="#0098FF"/>
<path fill-rule="evenodd" clip-rule="evenodd" d="M326.221 261.291L127.988 284.226C125.156 284.553 123.127 287.114 123.454 289.945L128.1 330.105C128.428 332.936 130.989 334.966 133.82 334.638L332.054 311.704C334.885 311.376 336.915 308.815 336.588 305.984L331.941 265.824C331.614 262.993 329.053 260.963 326.221 261.291ZM127.395 279.099C121.732 279.754 117.672 284.876 118.327 290.539L122.974 330.698C123.629 336.361 128.751 340.42 134.413 339.765L332.647 316.83C338.31 316.175 342.369 311.053 341.714 305.391L337.068 265.231C336.413 259.568 331.291 255.509 325.628 256.164L127.395 279.099Z" fill="white"/>
<path d="M158.158 306.306C158.542 309.628 159.843 322.897 148.585 324.199C137.327 325.502 135.564 312.286 135.18 308.964C134.79 305.596 133.489 292.327 144.747 291.024C156.005 289.722 157.784 303.076 158.158 306.306ZM148.009 319.216C152.669 318.677 152.043 310.847 151.606 307.064C151.093 302.634 149.753 295.495 145.323 296.007C140.894 296.52 141.224 303.823 141.732 308.206C142.169 311.99 143.348 319.755 148.009 319.216Z" fill="white"/>
<path d="M166.72 294.327L169.693 320.027C169.741 320.442 169.707 320.961 168.877 321.057L164.447 321.569C163.617 321.665 163.466 321.168 163.418 320.753L159.975 290.993C159.879 290.162 160.375 290.011 160.791 289.963L179.801 287.764C180.631 287.668 180.782 288.164 180.83 288.58L184.273 318.34C184.369 319.171 183.873 319.322 183.457 319.37L179.028 319.882C178.197 319.978 178.046 319.482 177.998 319.066L175.025 293.366L166.72 294.327Z" fill="white"/>
<path d="M194.555 291.668L195.01 296.01C195.354 299.384 195.638 304.261 195.697 305.984C195.899 310.963 195.799 314.95 192.144 317.71C190.641 318.866 188.874 319.351 188.1 319.534L187.372 319.712C187.101 319.79 186.691 319.884 186.494 319.393L184.86 315.373C184.668 314.928 184.758 314.497 185.214 314.397L186.034 314.209C189.268 313.461 189.934 311.139 189.872 306.564C189.808 303.579 189.449 298.056 189.092 294.965L188.3 287.715C188.246 287.254 188.239 286.787 189.116 286.686L203.927 284.972C204.388 284.919 204.855 284.912 204.956 285.788L208.399 315.549C208.501 316.426 208.045 316.525 207.583 316.579L203.2 317.086C202.231 317.198 202.167 316.644 202.124 316.275L199.215 291.128L194.555 291.668Z" fill="white"/>
<path d="M217.077 283.451L222.383 282.837C222.845 282.784 222.969 283.05 223.161 283.495L235.648 312.21C235.715 312.389 235.823 312.516 235.85 312.747C235.909 313.255 235.407 313.36 235.176 313.386L230.054 313.979C229.501 314.043 229.357 314.013 228.973 313.122L226.078 305.882L218.142 306.8L217.115 314.494C217.016 315.254 216.996 315.49 216.397 315.559L211.46 316.13C210.491 316.242 210.6 315.575 210.661 315.287L216.373 284.234C216.463 283.802 216.477 283.52 217.077 283.451ZM224.444 301.863L221.634 294.146C221.151 292.799 220.647 291.267 219.909 288.126L219.771 288.142C219.869 289.393 219.928 291.117 219.466 294.396L218.354 302.568L224.444 301.863Z" fill="white"/>
<path d="M247.214 311.058L245.831 299.108C243.544 300.354 241.592 300.861 239.885 301.058C237.301 301.357 234.914 300.932 233.236 299.77C230.947 298.165 230.438 295.792 230.251 294.177L228.96 283.011C228.863 282.181 229.36 282.03 229.776 281.982L234.205 281.469C235.036 281.373 235.187 281.87 235.235 282.285L236.398 292.344C236.505 293.267 236.639 294.42 237.668 295.236C238.595 295.971 239.862 296.011 240.877 295.894C242.077 295.755 243.578 295.394 245.271 294.263L243.771 281.298C243.675 280.467 244.171 280.316 244.587 280.268L249.016 279.756C249.847 279.66 249.998 280.156 250.046 280.572L253.489 310.332C253.537 310.748 253.503 311.266 252.673 311.362L248.243 311.874C247.413 311.971 247.262 311.474 247.214 311.058Z" fill="white"/>
<path d="M263.718 295.916L264.759 304.914L274.357 303.803C274.772 303.755 275.29 303.789 275.386 304.619L275.749 307.757C275.845 308.587 275.349 308.738 274.933 308.787L259.984 310.516C259.153 310.612 259.002 310.115 258.954 309.7L255.511 279.939C255.415 279.109 255.912 278.958 256.327 278.91L271.969 277.1C272.153 277.079 272.389 277.098 272.549 277.267C272.709 277.435 272.689 277.671 272.665 277.861L272.142 281.429C272.123 281.665 272.038 282.142 271.345 282.222L262.256 283.274L263.142 290.933L270.894 290.036C271.724 289.94 271.875 290.437 271.923 290.852L272.286 293.99C272.382 294.82 271.885 294.971 271.47 295.019L263.718 295.916Z" fill="white"/>
<path d="M279.121 307.367L275.678 277.606C275.576 276.73 276.032 276.63 276.494 276.577L280.923 276.064C281.385 276.011 281.851 276.004 281.953 276.88L283.314 288.646L292.035 287.637L290.673 275.871C290.572 274.995 291.028 274.895 291.489 274.842L295.919 274.329C296.795 274.228 296.895 274.684 296.948 275.145L300.392 304.906C300.445 305.367 300.452 305.834 299.576 305.936L295.146 306.448C294.685 306.501 294.218 306.509 294.116 305.632L292.611 292.62L283.891 293.629L285.396 306.641C285.497 307.518 285.041 307.617 284.58 307.67L280.15 308.183C279.689 308.236 279.222 308.244 279.121 307.367Z" fill="white"/>
<path d="M325.188 286.981C325.573 290.303 326.874 303.572 315.616 304.875C304.357 306.177 302.595 292.961 302.21 289.639C301.821 286.271 300.519 273.002 311.778 271.7C323.036 270.397 324.815 283.751 325.188 286.981ZM315.039 299.891C319.699 299.352 319.074 291.522 318.636 287.739C318.124 283.309 316.784 276.17 312.354 276.683C307.925 277.195 308.255 284.498 308.762 288.881C309.2 292.665 310.379 300.431 315.039 299.891Z" fill="white"/>
</g>
<defs>
<filter id="filter0_d_4638_23633" x="47" y="117" width="40" height="41.3793" filterUnits="userSpaceOnUse" color-interpolation-filters="sRGB">
<feFlood flood-opacity="0" result="BackgroundImageFix"/>
<feColorMatrix in="SourceAlpha" type="matrix" values="0 0 0 0 0 0 0 0 0 0 0 0 0 0 0 0 0 0 127 0" result="hardAlpha"/>
<feOffset dy="1.3793"/>
<feComposite in2="hardAlpha" operator="out"/>
<feColorMatrix type="matrix" values="0 0 0 0 0.79554 0 0 0 0 0.583396 0 0 0 0 0 0 0 0 1 0"/>
<feBlend mode="normal" in2="BackgroundImageFix" result="effect1_dropShadow_4638_23633"/>
<feBlend mode="normal" in="SourceGraphic" in2="effect1_dropShadow_4638_23633" result="shape"/>
</filter>
<filter id="filter1_i_4638_23633" x="50.4482" y="114.585" width="33.1035" height="38.9655" filterUnits="userSpaceOnUse" color-interpolation-filters="sRGB">
<feFlood flood-opacity="0" result="BackgroundImageFix"/>
<feBlend mode="normal" in="SourceGraphic" in2="BackgroundImageFix" result="shape"/>
<feColorMatrix in="SourceAlpha" type="matrix" values="0 0 0 0 0 0 0 0 0 0 0 0 0 0 0 0 0 0 127 0" result="hardAlpha"/>
<feOffset dy="-7.24133"/>
<feGaussianBlur stdDeviation="2.93101"/>
<feComposite in2="hardAlpha" operator="arithmetic" k2="-1" k3="1"/>
<feColorMatrix type="matrix" values="0 0 0 0 1 0 0 0 0 0.890196 0 0 0 0 0.172549 0 0 0 1 0"/>
<feBlend mode="normal" in2="shape" result="effect1_innerShadow_4638_23633"/>
</filter>
<filter id="filter2_d_4638_23633" x="153" y="94" width="24.9941" height="25.856" filterUnits="userSpaceOnUse" color-interpolation-filters="sRGB">
<feFlood flood-opacity="0" result="BackgroundImageFix"/>
<feColorMatrix in="SourceAlpha" type="matrix" values="0 0 0 0 0 0 0 0 0 0 0 0 0 0 0 0 0 0 127 0" result="hardAlpha"/>
<feOffset dy="0.861861"/>
<feComposite in2="hardAlpha" operator="out"/>
<feColorMatrix type="matrix" values="0 0 0 0 0.79554 0 0 0 0 0.583396 0 0 0 0 0 0 0 0 1 0"/>
<feBlend mode="normal" in2="BackgroundImageFix" result="effect1_dropShadow_4638_23633"/>
<feBlend mode="normal" in="SourceGraphic" in2="effect1_dropShadow_4638_23633" result="shape"/>
</filter>
<filter id="filter3_i_4638_23633" x="155.155" y="92.4914" width="20.6846" height="24.3485" filterUnits="userSpaceOnUse" color-interpolation-filters="sRGB">
<feFlood flood-opacity="0" result="BackgroundImageFix"/>
<feBlend mode="normal" in="SourceGraphic" in2="BackgroundImageFix" result="shape"/>
<feColorMatrix in="SourceAlpha" type="matrix" values="0 0 0 0 0 0 0 0 0 0 0 0 0 0 0 0 0 0 127 0" result="hardAlpha"/>
<feOffset dy="-4.52477"/>
<feGaussianBlur stdDeviation="1.83145"/>
<feComposite in2="hardAlpha" operator="arithmetic" k2="-1" k3="1"/>
<feColorMatrix type="matrix" values="0 0 0 0 1 0 0 0 0 0.890196 0 0 0 0 0.172549 0 0 0 1 0"/>
<feBlend mode="normal" in2="shape" result="effect1_innerShadow_4638_23633"/>
</filter>
<filter id="filter4_d_4638_23633" x="294" y="143" width="20" height="20.6897" filterUnits="userSpaceOnUse" color-interpolation-filters="sRGB">
<feFlood flood-opacity="0" result="BackgroundImageFix"/>
<feColorMatrix in="SourceAlpha" type="matrix" values="0 0 0 0 0 0 0 0 0 0 0 0 0 0 0 0 0 0 127 0" result="hardAlpha"/>
<feOffset dy="0.68965"/>
<feComposite in2="hardAlpha" operator="out"/>
<feColorMatrix type="matrix" values="0 0 0 0 0.79554 0 0 0 0 0.583396 0 0 0 0 0 0 0 0 1 0"/>
<feBlend mode="normal" in2="BackgroundImageFix" result="effect1_dropShadow_4638_23633"/>
<feBlend mode="normal" in="SourceGraphic" in2="effect1_dropShadow_4638_23633" result="shape"/>
</filter>
<filter id="filter5_i_4638_23633" x="295.724" y="141.794" width="16.5518" height="19.4818" filterUnits="userSpaceOnUse" color-interpolation-filters="sRGB">
<feFlood flood-opacity="0" result="BackgroundImageFix"/>
<feBlend mode="normal" in="SourceGraphic" in2="BackgroundImageFix" result="shape"/>
<feColorMatrix in="SourceAlpha" type="matrix" values="0 0 0 0 0 0 0 0 0 0 0 0 0 0 0 0 0 0 127 0" result="hardAlpha"/>
<feOffset dy="-3.62066"/>
<feGaussianBlur stdDeviation="1.46551"/>
<feComposite in2="hardAlpha" operator="arithmetic" k2="-1" k3="1"/>
<feColorMatrix type="matrix" values="0 0 0 0 1 0 0 0 0 0.890196 0 0 0 0 0.172549 0 0 0 1 0"/>
<feBlend mode="normal" in2="shape" result="effect1_innerShadow_4638_23633"/>
</filter>
<filter id="filter6_d_4638_23633" x="198" y="108" width="78" height="80.6896" filterUnits="userSpaceOnUse" color-interpolation-filters="sRGB">
<feFlood flood-opacity="0" result="BackgroundImageFix"/>
<feColorMatrix in="SourceAlpha" type="matrix" values="0 0 0 0 0 0 0 0 0 0 0 0 0 0 0 0 0 0 127 0" result="hardAlpha"/>
<feOffset dy="2.68962"/>
<feComposite in2="hardAlpha" operator="out"/>
<feColorMatrix type="matrix" values="0 0 0 0 0.79554 0 0 0 0 0.583396 0 0 0 0 0 0 0 0 1 0"/>
<feBlend mode="normal" in2="BackgroundImageFix" result="effect1_dropShadow_4638_23633"/>
<feBlend mode="normal" in="SourceGraphic" in2="effect1_dropShadow_4638_23633" result="shape"/>
</filter>
<filter id="filter7_i_4638_23633" x="204.724" y="103.294" width="64.5518" height="75.9817" filterUnits="userSpaceOnUse" color-interpolation-filters="sRGB">
<feFlood flood-opacity="0" result="BackgroundImageFix"/>
<feBlend mode="normal" in="SourceGraphic" in2="BackgroundImageFix" result="shape"/>
<feColorMatrix in="SourceAlpha" type="matrix" values="0 0 0 0 0 0 0 0 0 0 0 0 0 0 0 0 0 0 127 0" result="hardAlpha"/>
<feOffset dy="-14.1205"/>
<feGaussianBlur stdDeviation="5.71544"/>
<feComposite in2="hardAlpha" operator="arithmetic" k2="-1" k3="1"/>
<feColorMatrix type="matrix" values="0 0 0 0 1 0 0 0 0 0.890196 0 0 0 0 0.172549 0 0 0 1 0"/>
<feBlend mode="normal" in2="shape" result="effect1_innerShadow_4638_23633"/>
</filter>
<filter id="filter8_d_4638_23633" x="86" y="137" width="116" height="120" filterUnits="userSpaceOnUse" color-interpolation-filters="sRGB">
<feFlood flood-opacity="0" result="BackgroundImageFix"/>
<feColorMatrix in="SourceAlpha" type="matrix" values="0 0 0 0 0 0 0 0 0 0 0 0 0 0 0 0 0 0 127 0" result="hardAlpha"/>
<feOffset dy="4"/>
<feComposite in2="hardAlpha" operator="out"/>
<feColorMatrix type="matrix" values="0 0 0 0 0.79554 0 0 0 0 0.583396 0 0 0 0 0 0 0 0 1 0"/>
<feBlend mode="normal" in2="BackgroundImageFix" result="effect1_dropShadow_4638_23633"/>
<feBlend mode="normal" in="SourceGraphic" in2="effect1_dropShadow_4638_23633" result="shape"/>
</filter>
<filter id="filter9_i_4638_23633" x="96" y="130" width="96" height="113" filterUnits="userSpaceOnUse" color-interpolation-filters="sRGB">
<feFlood flood-opacity="0" result="BackgroundImageFix"/>
<feBlend mode="normal" in="SourceGraphic" in2="BackgroundImageFix" result="shape"/>
<feColorMatrix in="SourceAlpha" type="matrix" values="0 0 0 0 0 0 0 0 0 0 0 0 0 0 0 0 0 0 127 0" result="hardAlpha"/>
<feOffset dy="-21"/>
<feGaussianBlur stdDeviation="8.5"/>
<feComposite in2="hardAlpha" operator="arithmetic" k2="-1" k3="1"/>
<feColorMatrix type="matrix" values="0 0 0 0 1 0 0 0 0 0.890196 0 0 0 0 0.172549 0 0 0 1 0"/>
<feBlend mode="normal" in2="shape" result="effect1_innerShadow_4638_23633"/>
</filter>
<clipPath id="clip0_4638_23633">
<rect width="360" height="360" rx="8" fill="white"/>
</clipPath>
<clipPath id="clip1_4638_23633">
<rect width="300" height="233" fill="white" transform="translate(30)"/>
</clipPath>
</defs>
</svg>
