<svg width="360" height="360" viewBox="0 0 360 360" fill="none" xmlns="http://www.w3.org/2000/svg">
<g clip-path="url(#clip0_2571_78270)">
<rect width="360" height="360" rx="8" fill="#F5F5F5"/>
<g clip-path="url(#clip1_2571_78270)">
<path fill-rule="evenodd" clip-rule="evenodd" d="M50.3756 32.6945C52.2102 30.8151 54.9621 29.9663 57.5917 30.0269C61.8724 29.9663 66.1532 30.0269 70.495 30.0269C62.912 37.6052 55.2679 45.1228 47.6849 52.7011C46.8288 53.4286 46.3395 54.7017 46.9511 55.7324C47.8684 57.0055 49.1526 58.0362 50.2533 59.1881C57.0413 65.9175 63.7682 72.5864 70.5562 79.3159C65.9697 79.3159 61.3221 79.3765 56.7356 79.3159C53.9837 79.3159 51.4764 77.9215 49.6418 75.9815C43.5876 69.9795 37.5335 63.9775 31.4793 57.9755C30.3174 56.8843 29.6447 55.0655 30.1951 53.4892C30.4397 52.5798 31.1124 51.8523 31.7239 51.246C37.9004 45.0622 44.138 38.8783 50.3756 32.6945ZM125.472 40.2121C127.245 40.2121 129.019 40.2121 130.792 40.2121C130.792 44.2741 130.792 48.336 130.792 52.4586C134.706 48.5179 138.559 44.5166 142.533 40.6365C142.9 40.3334 143.267 40.0909 143.757 40.2727C145.713 40.1515 147.67 40.2121 149.688 40.2727C147.426 42.6978 144.857 44.8197 142.533 47.1841C140.149 49.6698 137.458 51.9129 135.073 54.3986C140.149 59.9156 145.469 65.2507 150.606 70.7676C148.404 70.7676 146.142 70.8889 143.94 70.7676C143.206 70.7676 142.9 69.9795 142.411 69.5551C138.559 65.2507 134.645 61.0068 130.792 56.7024C130.731 61.3706 130.792 66.0388 130.792 70.7676C129.019 70.7676 127.245 70.7676 125.472 70.7676C125.472 60.5825 125.472 50.3973 125.472 40.2121ZM164.365 40.2121C166.139 40.2121 167.851 40.2121 169.624 40.2121C173.416 50.3973 177.391 60.5825 181.243 70.7676C179.348 70.7676 177.452 70.7676 175.495 70.7676C174.578 68.2213 173.66 65.6144 172.621 63.1287C168.891 63.1287 165.099 63.1287 161.369 63.1287C160.268 65.6144 159.412 68.2213 158.433 70.7676C156.538 70.7676 154.642 70.7676 152.746 70.7676C156.599 60.5825 160.513 50.3973 164.365 40.2121ZM162.836 58.5818C165.588 58.5818 168.401 58.5818 171.153 58.5818C169.747 54.7624 168.401 50.8823 166.995 47.0629C165.466 50.8217 164.182 54.7017 162.836 58.5818ZM184.362 40.2121C192.373 40.2121 200.384 40.2121 208.395 40.2121C208.395 50.3973 208.395 60.5825 208.395 70.7676C206.622 70.7676 204.849 70.7676 203.075 70.7676C203.075 62.0981 203.075 53.4286 203.075 44.7591C198.611 44.7591 194.147 44.7591 189.683 44.7591C189.683 53.4286 189.683 62.0981 189.683 70.7676C187.909 70.7676 186.136 70.7676 184.362 70.7676C184.362 60.5825 184.362 50.3973 184.362 40.2121ZM213.899 40.2121C215.673 40.2121 217.446 40.2121 219.22 40.2121C219.22 47.4266 219.158 54.7017 219.281 61.9162C221.482 58.9455 223.378 55.793 225.457 52.7617C228.209 48.5785 231.144 44.5166 233.774 40.2121C235.486 40.2121 237.137 40.2121 238.85 40.2121C238.85 50.3973 238.85 60.5825 238.85 70.7676C237.076 70.7676 235.303 70.7676 233.529 70.7676C233.468 63.4925 233.591 56.1568 233.468 48.8816C228.637 56.1568 223.745 63.4319 218.975 70.7676C217.263 70.7676 215.612 70.7676 213.899 70.8282C213.899 60.5825 213.899 50.3973 213.899 40.2121ZM242.519 40.2121C250.652 40.2121 258.786 40.2121 266.919 40.2121C266.919 41.7278 266.919 43.2434 266.919 44.7591C263.739 44.7591 260.62 44.7591 257.44 44.8197C257.318 53.4892 257.44 62.0981 257.379 70.7676C255.606 70.7676 253.832 70.7676 252.059 70.7676C252.059 62.0981 252.059 53.4286 252.059 44.7591C248.879 44.7591 245.699 44.7591 242.519 44.7591C242.458 43.2434 242.458 41.7278 242.519 40.2121ZM274.074 40.2121C270.221 50.3973 266.246 60.5218 262.455 70.7676C264.351 70.7676 266.246 70.7676 268.142 70.7676C269.121 68.2213 269.977 65.6144 271.077 63.1287C274.808 63.1287 278.599 63.1287 282.33 63.1287C283.369 65.675 284.287 68.2213 285.204 70.7676C287.1 70.7676 289.056 70.7676 290.952 70.7676C287.038 60.5825 283.125 50.4579 279.333 40.2121C277.56 40.2121 275.847 40.2121 274.074 40.2121ZM272.545 58.5818C273.891 54.7017 275.175 50.8823 276.704 47.0629C278.171 50.8823 279.455 54.7624 280.862 58.5818C278.11 58.5818 275.297 58.5818 272.545 58.5818ZM299.881 40.2121C306.546 40.2121 313.212 40.2121 319.878 40.2121C319.878 50.3973 319.878 60.5825 319.878 70.7676C318.043 70.7676 316.208 70.7676 314.374 70.7676C314.374 62.0981 314.374 53.4286 314.374 44.7591C311.316 44.7591 308.32 44.6984 305.262 44.8197C304.895 51.1854 305.996 57.7937 304.039 63.9775C303.305 66.2813 302.021 68.5245 299.881 69.8582C297.801 71.0707 295.294 71.1314 292.97 70.7676C292.909 69.1307 292.909 67.5544 292.909 65.9175C294.193 65.9175 295.661 66.4025 296.701 65.4325C299.208 63.4319 299.453 59.9762 299.758 57.0055C300.064 51.4279 299.819 45.7897 299.881 40.2121ZM191.15 79.3765C192.434 77.9215 195.064 77.6183 196.471 79.134C197.266 79.7403 197.449 80.7709 197.755 81.6803C196.471 81.9228 195.92 80.8922 195.309 80.104C194.758 79.2553 193.474 79.4371 192.74 79.9221C191.639 80.5284 191.884 81.9834 191.823 83.0141C191.823 84.166 191.639 85.4997 192.434 86.4091C193.168 87.2579 194.636 87.3185 195.431 86.591C195.859 86.1666 196.043 85.5604 196.348 85.0754C196.837 85.0754 197.327 85.0754 197.755 85.0147C197.327 86.2879 196.837 87.7429 195.431 88.2279C194.269 88.531 192.863 88.7129 191.884 87.8641C190.844 87.1366 190.355 85.8635 190.355 84.651C190.416 82.8322 190.049 80.8315 191.15 79.3765ZM210.108 78.164C211.27 78.0427 212.493 78.5277 213.288 79.3765C214.388 80.9528 214.022 83.0141 214.083 84.8328C214.083 86.6516 212.554 88.5916 210.597 88.4704C209.618 88.5916 208.701 88.2279 207.967 87.6216C206.805 86.591 206.867 84.9541 206.805 83.5597C206.805 82.1047 206.683 80.4072 207.784 79.3159C208.334 78.5884 209.19 78.164 210.108 78.164ZM209.741 79.5584C208.579 79.9828 208.212 81.3165 208.212 82.4078C208.273 83.8022 208.09 85.3785 209.007 86.5304C209.863 87.3185 211.27 87.1973 212.065 86.3485C213.165 84.8935 212.554 82.8322 212.554 81.1953C212.432 79.9221 210.903 79.1946 209.741 79.5584ZM229.126 80.0434C229.983 78.0427 232.734 77.5577 234.508 78.7096C235.425 79.3159 235.731 80.4678 236.22 81.4378C235.731 81.4378 235.242 81.4378 234.752 81.4378C234.386 80.7709 234.019 80.104 233.407 79.619C232.49 79.134 231.328 79.4978 230.655 80.2253C230.044 81.8622 230.166 83.681 230.349 85.3179C230.533 86.5304 232.001 87.3791 233.162 86.8941C234.08 86.6516 234.386 85.7422 234.752 84.9541C235.242 84.9541 235.731 84.9541 236.159 84.8935C235.731 86.2879 235.058 87.9854 233.407 88.2279C231.45 88.8948 229.188 87.5004 228.882 85.4997C228.698 83.7416 228.454 81.8015 229.126 80.0434ZM273.034 78.164C274.808 77.9215 276.642 79.0734 276.887 80.8921C277.009 82.8322 277.315 85.0147 276.459 86.8335C275.236 88.9554 271.75 89.016 270.405 87.0154C269.426 85.3178 269.916 83.1959 269.854 81.3772C269.793 79.619 271.383 78.2246 273.034 78.164ZM272.851 79.5584C271.811 79.6796 271.2 80.8922 271.322 81.8622C271.322 83.1959 271.139 84.5903 271.506 85.8635C272.056 87.3185 274.257 87.4398 275.114 86.1666C276.031 84.651 275.419 82.7716 275.48 81.1347C275.297 79.9828 273.952 79.2553 272.851 79.5584ZM125.288 78.2246C125.778 78.2246 126.267 78.2246 126.756 78.2246C127.734 80.4071 128.713 82.6503 129.752 84.8328C130.792 82.7109 131.771 80.4678 132.688 78.2852C133.177 78.2852 133.605 78.2246 134.094 78.2246C134.094 81.6197 134.094 85.0147 134.094 88.4098C133.605 88.4098 133.116 88.4098 132.627 88.4098C132.627 86.3485 132.627 84.2266 132.566 82.1653C131.771 83.7416 131.098 85.3178 130.425 86.9547C130.119 86.9547 129.447 86.9547 129.141 86.9547C128.407 85.3178 127.673 83.7416 126.878 82.1653C126.817 84.2872 126.756 86.3485 126.756 88.4704C126.267 88.4704 125.839 88.4098 125.349 88.4098C125.227 84.9541 125.288 81.6197 125.288 78.2246ZM135.562 78.2246C137.764 78.2246 139.965 78.2246 142.167 78.2246C142.167 78.5277 142.167 79.1946 142.167 79.4978C140.454 79.4978 138.803 79.4978 137.091 79.5584C137.03 80.5284 137.03 81.4984 137.03 82.4684C138.497 82.5291 139.965 82.5897 141.433 82.5897C141.433 82.8928 141.433 83.4991 141.433 83.8022C139.965 83.8022 138.559 83.8022 137.091 83.8628C137.03 84.8935 137.03 85.8635 137.03 86.8941C138.742 86.8941 140.454 86.8941 142.167 86.8941C142.167 87.3791 142.167 87.8641 142.167 88.3492C140.026 88.3492 137.947 88.4098 135.807 88.2885C135.745 88.2279 135.623 88.1673 135.562 88.1067C135.44 84.8329 135.562 81.559 135.562 78.2246ZM145.652 78.2246C147.548 78.2246 149.444 78.2246 151.34 78.2246C151.34 81.1347 151.34 84.0447 151.34 86.9547C151.645 86.9547 152.257 87.0154 152.563 87.076C152.563 88.2885 152.624 89.501 152.563 90.7136C152.073 90.7136 151.584 90.7742 151.156 90.8348C151.156 90.0467 151.156 89.2585 151.156 88.4704C149.077 88.4704 146.998 88.4704 144.918 88.4704C144.918 89.2585 144.918 90.0467 144.918 90.8348C144.429 90.8348 144.001 90.7742 143.512 90.7742C143.512 89.6223 143.451 88.4704 143.451 87.3185C144.062 86.9548 144.918 86.7123 145.102 85.9241C145.836 83.3778 145.591 80.7709 145.652 78.2246ZM147.12 79.4978C147.12 81.9834 146.998 84.5297 146.264 86.9547C147.487 86.9547 148.649 86.9547 149.872 86.9547C149.872 84.4691 149.872 81.9834 149.872 79.4978C149.199 79.4978 147.793 79.4978 147.12 79.4978ZM153.908 78.2246C154.397 78.2246 154.886 78.2246 155.376 78.2246C155.376 80.589 155.376 83.0141 155.437 85.3785C157.027 83.0141 158.556 80.6496 160.023 78.2246C160.513 78.2246 161.002 78.2246 161.43 78.2246C161.43 81.6197 161.491 85.0147 161.308 88.4098C160.941 88.4098 160.268 88.4098 159.962 88.4098C159.962 85.9847 159.962 83.4991 159.901 81.074C158.311 83.4991 156.782 85.9847 155.192 88.4098C154.886 88.4098 154.275 88.3492 153.969 88.3492C153.847 84.9541 153.908 81.6197 153.908 78.2246ZM162.897 78.2246C163.387 78.2246 163.876 78.2246 164.365 78.2246C164.365 81.1347 164.365 83.9841 164.426 86.8941C165.833 86.9548 167.239 86.9547 168.585 86.9547C168.585 84.0447 168.585 81.1347 168.585 78.2246C169.074 78.2246 169.563 78.2246 170.052 78.2246C170.052 81.1347 170.052 84.0447 170.052 86.9547C170.358 86.9547 170.97 87.0154 171.275 87.076C171.275 88.2885 171.337 89.501 171.275 90.7136C170.786 90.7136 170.297 90.7742 169.869 90.8348C169.869 90.0467 169.869 89.2585 169.869 88.4704C167.545 88.4704 165.282 88.4704 162.959 88.4098C162.836 84.9541 162.897 81.6197 162.897 78.2246ZM172.437 78.2246C172.927 78.2246 173.416 78.2246 173.905 78.2246C173.905 80.589 173.905 83.0141 173.966 85.3785C175.617 83.0747 177.085 80.6496 178.553 78.2246C179.042 78.2246 179.47 78.2246 179.959 78.164C179.959 81.559 180.02 84.9541 179.837 88.3492C179.47 88.3492 178.797 88.3492 178.492 88.3492C178.492 85.9241 178.492 83.4384 178.43 81.0134C176.84 83.4384 175.373 85.9241 173.722 88.3492C173.416 88.3492 172.804 88.2885 172.499 88.2885C172.376 84.9541 172.437 81.6197 172.437 78.2246ZM181.427 78.2246C181.916 78.2246 182.405 78.2246 182.895 78.2246C182.895 79.6796 182.895 81.1347 182.895 82.5897C184.301 82.5897 185.708 82.5897 187.114 82.5897C187.114 81.1347 187.114 79.6796 187.114 78.2246C187.603 78.2246 188.093 78.2246 188.582 78.2246C188.582 81.6197 188.582 85.0147 188.582 88.4098C188.093 88.4098 187.603 88.4098 187.114 88.4098C187.114 86.8941 187.114 85.3785 187.114 83.8628C185.708 83.8628 184.362 83.8628 182.956 83.9234C182.895 85.4391 182.895 86.8941 182.895 88.4098C182.405 88.4098 181.916 88.4098 181.427 88.4098C181.427 85.0147 181.427 81.6197 181.427 78.2246ZM199.406 78.2246C199.406 81.6197 199.345 84.9541 199.467 88.3492C199.956 88.3492 200.384 88.4098 200.874 88.4098C200.874 86.9548 200.874 85.4391 200.935 83.9841C202.158 85.136 203.197 86.4697 204.421 87.6216C205.093 88.4704 206.194 88.3491 207.172 88.4704C205.46 86.6516 203.809 84.7722 201.974 83.0747C203.564 81.4378 205.215 79.8615 206.805 78.2246C206.01 78.4065 204.971 78.1034 204.298 78.7702C203.136 79.8615 202.036 81.0134 200.874 82.1653C200.874 80.8922 200.812 79.619 200.812 78.2852C200.323 78.2246 199.834 78.2246 199.406 78.2246ZM215.183 78.2246C217.385 78.2246 219.586 78.2246 221.788 78.2246C221.788 78.5277 221.788 79.1946 221.788 79.4978C220.076 79.4978 218.425 79.4978 216.712 79.5584C216.651 80.589 216.651 81.559 216.651 82.5897C218.119 82.5897 219.586 82.5897 221.054 82.5897C221.054 82.8928 221.054 83.5597 221.054 83.8628C219.586 83.8628 218.18 83.8628 216.712 83.9234C216.651 84.9541 216.651 85.9241 216.651 86.9547C218.363 86.9547 220.076 86.9547 221.849 86.9547C221.849 87.4398 221.788 87.8641 221.788 88.3492C219.648 88.4098 217.446 88.4098 215.306 88.3492C215.122 85.0147 215.183 81.6197 215.183 78.2246ZM236.832 78.2246C239.217 78.2246 241.602 78.2246 243.987 78.2246C243.987 78.5277 243.987 79.134 243.987 79.4371C243.008 79.4978 242.03 79.5584 241.051 79.619C241.051 82.5291 241.051 85.4997 241.051 88.4098C240.562 88.4098 240.134 88.3492 239.645 88.3492C239.584 85.3785 239.584 82.4684 239.584 79.4978C238.911 79.4978 237.504 79.4978 236.832 79.4978C236.832 79.1946 236.832 78.5277 236.832 78.2246ZM245.271 78.2246C247.044 78.3459 248.879 77.9821 250.591 78.4065C252.854 79.1946 253.037 82.5897 251.142 83.8628C249.796 84.5903 248.206 84.2872 246.738 84.4691C246.738 85.8029 246.738 87.1366 246.738 88.4098C246.249 88.4098 245.821 88.3492 245.332 88.3492C245.21 84.9541 245.271 81.559 245.271 78.2246ZM246.738 79.4978C246.677 80.6497 246.677 81.8016 246.677 82.9534C247.717 82.8928 248.818 82.9534 249.857 82.7716C251.203 82.4078 251.264 80.2859 250.102 79.7403C249.062 79.3159 247.839 79.5584 246.738 79.4978ZM255.3 78.2246C254.016 81.6197 252.67 84.9541 251.57 88.4098C252.12 88.4098 252.609 88.4098 253.16 88.4098C253.404 87.7429 253.649 87.076 253.893 86.4091C255.239 86.4091 256.584 86.4091 257.93 86.3485C258.174 87.0154 258.419 87.6823 258.663 88.3492C259.214 88.3492 259.703 88.3492 260.314 88.3492C259.091 84.9541 257.807 81.559 256.584 78.2246C256.278 78.2246 255.667 78.2246 255.3 78.2246ZM255.973 80.7103C256.523 82.1047 257.012 83.4991 257.563 84.9541C256.523 84.9541 255.483 84.9541 254.383 84.9541C254.933 83.5597 255.361 82.1047 255.973 80.7103ZM261.476 78.164C261.904 78.2246 262.822 78.3459 263.25 78.4065C264.106 79.3765 264.595 80.6497 265.268 81.7409C265.941 80.589 266.491 79.3765 267.286 78.3459C267.714 78.2852 268.631 78.2246 269.059 78.164C268.081 79.8009 267.103 81.4984 266.063 83.1353C267.164 84.8935 268.264 86.6516 269.243 88.4704C268.815 88.4098 267.897 88.2885 267.469 88.2279C266.552 87.1366 266.002 85.7422 265.207 84.5297C264.412 85.8029 263.678 87.1366 262.944 88.4098C262.333 88.4098 261.843 88.4098 261.232 88.4098C262.088 86.591 263.494 85.0147 264.228 83.1353C263.556 81.3772 262.333 79.8615 261.476 78.164ZM278.416 78.2246C280.006 78.2246 281.596 78.164 283.186 78.2852C284.592 78.4671 285.51 79.8009 285.387 81.1347C285.387 81.8622 284.959 82.5291 284.592 83.1353C285.082 83.8628 285.448 84.651 285.571 85.4997C285.571 86.7122 284.653 88.046 283.369 88.2279C281.718 88.531 280.067 88.4098 278.416 88.4098C278.416 85.0147 278.416 81.6197 278.416 78.2246ZM279.945 79.4371C279.945 80.4678 279.945 81.4378 279.945 82.4684C281.045 82.4078 282.146 82.5291 283.247 82.2259C284.225 81.8015 283.736 80.589 283.675 79.8009C282.391 79.619 281.168 79.4978 279.945 79.4371ZM279.884 83.8022C279.884 84.8328 279.884 85.9241 279.884 86.9547C280.923 86.8941 282.024 86.8941 283.063 86.7729C284.164 86.5304 284.409 84.8328 283.492 84.2266C282.513 83.4991 281.107 83.9841 279.884 83.8022ZM290.096 78.2246C290.402 78.2246 291.013 78.2246 291.319 78.2246C292.603 81.6197 293.888 84.9541 295.049 88.3492C294.56 88.3492 294.01 88.3492 293.521 88.3492C293.215 87.561 292.909 86.7729 292.603 85.9847C291.319 85.9847 290.035 85.9847 288.812 85.9847C288.506 86.7729 288.2 87.561 287.895 88.3492C287.405 88.3492 286.855 88.3492 286.366 88.3492C287.589 85.0147 288.812 81.6197 290.096 78.2246ZM290.646 80.7103C290.157 82.044 289.668 83.3778 289.301 84.7116C290.218 84.7722 291.197 84.7722 292.114 84.7722C291.747 83.3778 291.197 82.044 290.646 80.7103ZM296.089 78.2246C296.578 78.2246 297.068 78.2246 297.557 78.2246C297.557 79.6796 297.557 81.074 297.618 82.5291C299.024 82.5897 300.37 82.5897 301.776 82.5897C301.776 81.1347 301.776 79.6796 301.776 78.2246C302.266 78.2246 302.755 78.2246 303.244 78.2246C303.244 81.6197 303.244 85.0147 303.244 88.4098C302.755 88.4098 302.327 88.3492 301.838 88.3492C301.776 86.8335 301.776 85.3785 301.776 83.8628C300.37 83.8628 299.024 83.8628 297.618 83.9234C297.557 85.4391 297.557 86.9547 297.557 88.4704C297.068 88.4704 296.639 88.4098 296.15 88.4098C296.028 84.9541 296.028 81.6197 296.089 78.2246ZM304.651 78.2246C305.14 78.2246 305.629 78.2246 306.118 78.2246C306.118 80.589 306.118 83.0141 306.179 85.3785C307.831 83.0747 309.237 80.6496 310.766 78.2246C311.255 78.2246 311.683 78.164 312.172 78.164C312.172 81.559 312.234 84.9541 312.05 88.3492C311.683 88.3492 311.01 88.3492 310.705 88.3492C310.705 85.9241 310.766 83.5597 310.644 81.1347C308.931 83.4385 307.525 85.9847 305.935 88.3492C305.629 88.3492 305.017 88.2885 304.712 88.2885C304.651 84.9541 304.651 81.6197 304.651 78.2246ZM313.457 78.2246C315.597 78.2246 317.737 78.2246 319.878 78.2246C319.878 78.5277 319.878 79.1946 319.878 79.4978C318.227 79.4978 316.575 79.4978 314.924 79.4978C314.924 80.5284 314.924 81.559 314.924 82.5897C316.331 82.5897 317.737 82.5897 319.144 82.5897C319.144 82.8928 319.144 83.5597 319.144 83.8628C317.737 83.8628 316.331 83.8628 314.924 83.8628C314.924 84.8935 314.924 85.9241 314.924 86.9547C316.575 86.9547 318.227 86.9547 319.878 86.9547C319.817 87.3791 320 87.8641 320 88.3492C317.798 88.4098 315.658 88.4098 313.457 88.4098C313.457 85.0147 313.457 81.6197 313.457 78.2246Z" fill="#B8181C"/>
<path fill-rule="evenodd" clip-rule="evenodd" d="M67.2539 49.3062C71.8404 49.3062 76.488 49.2456 81.0745 49.3062C82.6645 49.3062 84.2545 49.7306 85.661 50.5794C87.3733 51.61 88.6575 53.065 90.064 54.3988C95.5678 59.8552 101.072 65.3115 106.575 70.7678C107.798 71.8591 108.104 73.6173 107.798 75.1935C107.493 76.2242 106.637 76.9517 105.903 77.7398C99.8486 83.7418 93.7944 89.7438 87.7402 95.7457C86.8229 96.6551 85.7222 97.322 84.5603 97.8676C82.6034 98.6558 80.4018 98.5952 78.3226 98.5952C74.6534 98.5952 71.0454 98.5952 67.3762 98.5345C68.6604 97.0795 70.0058 95.8064 71.3512 94.412C77.5276 88.3494 83.643 82.2261 89.8194 76.1635C90.5533 75.436 91.3483 74.5873 91.1036 73.496C90.5533 72.1622 89.3302 71.2528 88.3517 70.2222C81.3191 63.3108 74.2865 56.3389 67.2539 49.3062Z" fill="#153D6E"/>
</g>
<g filter="url(#filter0_d_2571_78270)">
<path d="M30 138C30 131.373 35.3726 126 42 126H318C324.627 126 330 131.373 330 138V360H30V138Z" fill="white"/>
<path d="M30 138C30 131.373 35.3726 126 42 126H318C324.627 126 330 131.373 330 138V360H30V138Z" fill="url(#paint0_linear_2571_78270)"/>
</g>
<path d="M30 138C30 131.373 35.3726 126 42 126H318C324.627 126 330 131.373 330 138V164H30V138Z" fill="#193C6D"/>
<circle cx="58" cy="192" r="12" fill="#B8181C"/>
<circle cx="82" cy="192" r="12" fill="#193C6D"/>
<rect x="114" y="185" width="45" height="14" rx="7" fill="#E1E1E1"/>
<rect x="46" y="220" width="268" height="124" rx="12" fill="#F5F5F5"/>
<rect x="46" y="141" width="45" height="8" rx="4" fill="#2D568F"/>
<rect x="99" y="141" width="45" height="8" rx="4" fill="#2D568F"/>
<rect x="269" y="141" width="45" height="8" rx="4" fill="#2D568F"/>
<rect x="171" y="185" width="29" height="14" rx="7" fill="#E1E1E1"/>
<rect x="212" y="185" width="26" height="14" rx="7" fill="#E1E1E1"/>
<circle cx="180" cy="306" r="92" stroke="#C1C1C1" stroke-width="4"/>
<path d="M261 316L261 296L274 296C275.105 296 276 296.895 276 298L276 314C276 315.105 275.105 316 274 316L261 316Z" fill="#221E20"/>
<path d="M190 223H170V212C170 210.895 170.895 210 172 210H188C189.105 210 190 210.895 190 212V223Z" fill="#221E20"/>
<path d="M95 296L95 316L86 316C84.8954 316 84 315.105 84 314L84 298C84 296.895 84.8954 296 86 296L95 296Z" fill="#221E20"/>
<g filter="url(#filter1_i_2571_78270)">
<path d="M265 306C265 352.944 226.944 391 180 391C133.056 391 95 352.944 95 306C95 259.056 133.056 221 180 221C226.944 221 265 259.056 265 306ZM132.679 306C132.679 332.135 153.865 353.321 180 353.321C206.135 353.321 227.321 332.135 227.321 306C227.321 279.865 206.135 258.679 180 258.679C153.865 258.679 132.679 279.865 132.679 306Z" fill="#E02125"/>
</g>
<path d="M216.602 227.284C205.514 221.994 193.413 219.171 181.129 219.008C168.846 218.844 156.673 221.345 145.449 226.339L161.775 263.035C167.695 260.401 174.116 259.081 180.596 259.167C187.075 259.253 193.459 260.743 199.307 263.533L216.602 227.284Z" fill="white"/>
<path d="M216.602 227.284C205.514 221.994 193.413 219.171 181.129 219.008C168.846 218.844 156.673 221.345 145.449 226.339L161.775 263.035C167.695 260.401 174.116 259.081 180.596 259.167C187.075 259.253 193.459 260.743 199.307 263.533L216.602 227.284Z" fill="url(#paint1_linear_2571_78270)"/>
<path d="M101.284 269.398C95.9944 280.486 93.1707 292.587 93.0075 304.871C92.8443 317.154 95.3455 329.327 100.339 340.551L137.035 324.225C134.401 318.305 133.081 311.884 133.167 305.404C133.253 298.925 134.743 292.541 137.533 286.693L101.284 269.398Z" fill="white"/>
<path d="M101.284 269.398C95.9944 280.486 93.1707 292.587 93.0075 304.871C92.8443 317.154 95.3455 329.327 100.339 340.551L137.035 324.225C134.401 318.305 133.081 311.884 133.167 305.404C133.253 298.925 134.743 292.541 137.533 286.693L101.284 269.398Z" fill="url(#paint2_linear_2571_78270)"/>
<path d="M216.602 384.716C205.514 390.006 193.413 392.829 181.129 392.992C168.846 393.156 156.673 390.655 145.449 385.661L161.775 348.965C167.695 351.599 174.116 352.919 180.596 352.833C187.075 352.747 193.459 351.257 199.307 348.467L216.602 384.716Z" fill="white"/>
<path d="M216.602 384.716C205.514 390.006 193.413 392.829 181.129 392.992C168.846 393.156 156.673 390.655 145.449 385.661L161.775 348.965C167.695 351.599 174.116 352.919 180.596 352.833C187.075 352.747 193.459 351.257 199.307 348.467L216.602 384.716Z" fill="url(#paint3_linear_2571_78270)"/>
<path d="M258.716 269.398C264.006 280.486 266.829 292.587 266.992 304.871C267.156 317.154 264.655 329.327 259.661 340.551L222.965 324.225C225.599 318.305 226.919 311.884 226.833 305.404C226.747 298.925 225.257 292.541 222.467 286.693L258.716 269.398Z" fill="white"/>
<path d="M258.716 269.398C264.006 280.486 266.829 292.587 266.992 304.871C267.156 317.154 264.655 329.327 259.661 340.551L222.965 324.225C225.599 318.305 226.919 311.884 226.833 305.404C226.747 298.925 225.257 292.541 222.467 286.693L258.716 269.398Z" fill="url(#paint4_linear_2571_78270)"/>
</g>
<defs>
<filter id="filter0_d_2571_78270" x="0" y="106" width="360" height="294" filterUnits="userSpaceOnUse" color-interpolation-filters="sRGB">
<feFlood flood-opacity="0" result="BackgroundImageFix"/>
<feColorMatrix in="SourceAlpha" type="matrix" values="0 0 0 0 0 0 0 0 0 0 0 0 0 0 0 0 0 0 127 0" result="hardAlpha"/>
<feOffset dy="10"/>
<feGaussianBlur stdDeviation="15"/>
<feComposite in2="hardAlpha" operator="out"/>
<feColorMatrix type="matrix" values="0 0 0 0 0.845833 0 0 0 0 0.840505 0 0 0 0 0.796493 0 0 0 1 0"/>
<feBlend mode="normal" in2="BackgroundImageFix" result="effect1_dropShadow_2571_78270"/>
<feBlend mode="normal" in="SourceGraphic" in2="effect1_dropShadow_2571_78270" result="shape"/>
</filter>
<filter id="filter1_i_2571_78270" x="95" y="221" width="170" height="174" filterUnits="userSpaceOnUse" color-interpolation-filters="sRGB">
<feFlood flood-opacity="0" result="BackgroundImageFix"/>
<feBlend mode="normal" in="SourceGraphic" in2="BackgroundImageFix" result="shape"/>
<feColorMatrix in="SourceAlpha" type="matrix" values="0 0 0 0 0 0 0 0 0 0 0 0 0 0 0 0 0 0 127 0" result="hardAlpha"/>
<feOffset dy="4"/>
<feGaussianBlur stdDeviation="6"/>
<feComposite in2="hardAlpha" operator="arithmetic" k2="-1" k3="1"/>
<feColorMatrix type="matrix" values="0 0 0 0 1 0 0 0 0 0.458333 0 0 0 0 0.469677 0 0 0 1 0"/>
<feBlend mode="normal" in2="shape" result="effect1_innerShadow_2571_78270"/>
</filter>
<linearGradient id="paint0_linear_2571_78270" x1="130" y1="360" x2="130" y2="243" gradientUnits="userSpaceOnUse">
<stop stop-color="#F5F5F5"/>
<stop offset="1" stop-color="#F5F5F5" stop-opacity="0"/>
</linearGradient>
<linearGradient id="paint1_linear_2571_78270" x1="180" y1="261.5" x2="180" y2="227.5" gradientUnits="userSpaceOnUse">
<stop stop-color="#E1E1E1"/>
<stop offset="1" stop-color="#E1E1E1" stop-opacity="0"/>
</linearGradient>
<linearGradient id="paint2_linear_2571_78270" x1="135.5" y1="306" x2="101.5" y2="306" gradientUnits="userSpaceOnUse">
<stop stop-color="#E1E1E1"/>
<stop offset="1" stop-color="#E1E1E1" stop-opacity="0"/>
</linearGradient>
<linearGradient id="paint3_linear_2571_78270" x1="180" y1="350.5" x2="180" y2="384.5" gradientUnits="userSpaceOnUse">
<stop stop-color="#E1E1E1"/>
<stop offset="1" stop-color="#E1E1E1" stop-opacity="0"/>
</linearGradient>
<linearGradient id="paint4_linear_2571_78270" x1="224.5" y1="306" x2="253" y2="306" gradientUnits="userSpaceOnUse">
<stop stop-color="#E1E1E1"/>
<stop offset="1" stop-color="#E1E1E1" stop-opacity="0"/>
</linearGradient>
<clipPath id="clip0_2571_78270">
<rect width="360" height="360" rx="8" fill="white"/>
</clipPath>
<clipPath id="clip1_2571_78270">
<rect width="290" height="69" fill="white" transform="translate(30 30)"/>
</clipPath>
</defs>
</svg>
