<svg width="360" height="360" viewBox="0 0 360 360" fill="none" xmlns="http://www.w3.org/2000/svg">
<g clip-path="url(#clip0_4574_23499)">
<rect width="360" height="360" rx="8" fill="#EFEFEF"/>
<path d="M54.6143 61.4736V68.069H30V30H37.9673V61.4736H54.6143Z" fill="black"/>
<path d="M69.8894 62.7927C71.7009 62.7927 73.2223 62.2914 74.4534 61.2889C75.6846 60.2688 76.3002 58.9761 76.3002 57.4108V55.2738L70.206 55.6959C68.6055 55.8015 67.3831 56.162 66.5389 56.7776C65.6947 57.3932 65.2725 58.2374 65.2725 59.3102C65.2725 60.3831 65.6859 61.2361 66.5125 61.8693C67.3567 62.4849 68.4823 62.7927 69.8894 62.7927ZM67.3831 68.412C64.5514 68.412 62.2122 67.6029 60.3655 65.9849C58.5188 64.3668 57.5954 62.2738 57.5954 59.706C57.5954 57.0854 58.5716 55.0364 60.5238 53.559C62.4761 52.0816 65.3165 51.2286 69.0452 51L76.3002 50.5515V48.6256C76.3002 47.2361 75.8517 46.1721 74.9547 45.4334C74.0577 44.6771 72.809 44.299 71.2085 44.299C69.8366 44.299 68.6846 44.6331 67.7524 45.3015C66.8379 45.9522 66.2838 46.814 66.0904 47.8869H59.0464C59.152 45.108 60.3479 42.8568 62.6344 41.1331C64.9384 39.3919 67.9019 38.5213 71.525 38.5213C75.2537 38.5213 78.2436 39.4007 80.4949 41.1595C82.7461 42.9183 83.8718 45.2487 83.8718 48.1507V68.069H76.4321V63.5841H76.2738C75.4999 65.0791 74.2951 66.2575 72.6595 67.1193C71.0414 67.9811 69.2826 68.412 67.3831 68.412Z" fill="black"/>
<path d="M89.069 68.069V39.0226H96.5087V44.2198H96.667C98.373 40.4736 101.486 38.6005 106.006 38.6005C109.225 38.6005 111.749 39.559 113.578 41.4761C115.424 43.3932 116.348 46.049 116.348 49.4434V68.069H108.644V51.0527C108.644 49.1181 108.143 47.6319 107.141 46.5942C106.156 45.5389 104.757 45.0113 102.946 45.0113C101.099 45.0113 99.6041 45.6093 98.4609 46.8052C97.3353 48.0012 96.7725 49.5665 96.7725 51.5012V68.069H89.069Z" fill="black"/>
<path d="M123.524 32.559H131.227V39.0226H136.609V44.853H131.227V58.9673C131.227 61.1834 132.379 62.2914 134.683 62.2914C135.439 62.2914 136.081 62.2474 136.609 62.1595V67.858C135.554 68.069 134.314 68.1745 132.889 68.1745C129.53 68.1745 127.129 67.559 125.687 66.3278C124.245 65.0967 123.524 63.0653 123.524 60.2336V44.853H119.593V39.0226H123.524V32.559Z" fill="black"/>
<path d="M151.99 62.7927C153.801 62.7927 155.323 62.2914 156.554 61.2889C157.785 60.2688 158.401 58.9761 158.401 57.4108V55.2738L152.306 55.6959C150.706 55.8015 149.483 56.162 148.639 56.7776C147.795 57.3932 147.373 58.2374 147.373 59.3102C147.373 60.3831 147.786 61.2361 148.613 61.8693C149.457 62.4849 150.583 62.7927 151.99 62.7927ZM149.483 68.412C146.652 68.412 144.313 67.6029 142.466 65.9849C140.619 64.3668 139.696 62.2738 139.696 59.706C139.696 57.0854 140.672 55.0364 142.624 53.559C144.576 52.0816 147.417 51.2286 151.145 51L158.401 50.5515V48.6256C158.401 47.2361 157.952 46.1721 157.055 45.4334C156.158 44.6771 154.909 44.299 153.309 44.299C151.937 44.299 150.785 44.6331 149.853 45.3015C148.938 45.9522 148.384 46.814 148.191 47.8869H141.147C141.252 45.108 142.448 42.8568 144.735 41.1331C147.039 39.3919 150.002 38.5213 153.625 38.5213C157.354 38.5213 160.344 39.4007 162.595 41.1595C164.846 42.9183 165.972 45.2487 165.972 48.1507V68.069H158.532V63.5841H158.374C157.6 65.0791 156.395 66.2575 154.76 67.1193C153.142 67.9811 151.383 68.412 149.483 68.412Z" fill="black"/>
<path d="M171.723 30H187.605C191.527 30 194.702 31.196 197.129 33.5879C199.574 35.9799 200.796 39.1281 200.796 43.0326C200.796 46.9196 199.539 50.0678 197.024 52.4773C194.508 54.8693 191.237 56.0653 187.209 56.0653H179.691V68.069H171.723V30ZM179.691 36.3053V49.8392H185.468C187.755 49.8392 189.531 49.25 190.797 48.0716C192.064 46.8932 192.697 45.2223 192.697 43.059C192.697 40.8957 192.064 39.2337 190.797 38.0728C189.549 36.8945 187.781 36.3053 185.495 36.3053H179.691Z" fill="black"/>
<path d="M204.938 68.069V39.0226H212.378V44.2198H212.536C213.029 42.4434 213.873 41.0804 215.069 40.1306C216.265 39.1633 217.725 38.6796 219.448 38.6796C220.31 38.6796 221.031 38.7764 221.611 38.9698V45.8027C220.926 45.4862 220.002 45.3279 218.841 45.3279C216.889 45.3279 215.368 45.8995 214.277 47.0427C213.187 48.1859 212.642 49.7776 212.642 51.8178V68.069H204.938Z" fill="black"/>
<path d="M237.282 68.5703C232.868 68.5703 229.376 67.2336 226.809 64.5602C224.241 61.8869 222.957 58.211 222.957 53.5326C222.957 48.907 224.25 45.2487 226.835 42.5578C229.42 39.8668 232.903 38.5213 237.282 38.5213C241.679 38.5213 245.162 39.8668 247.729 42.5578C250.315 45.2311 251.608 48.8894 251.608 53.5326C251.608 58.2286 250.324 61.9133 247.756 64.5866C245.206 67.2424 241.714 68.5703 237.282 68.5703ZM232.481 60.26C233.642 61.8429 235.242 62.6344 237.282 62.6344C239.322 62.6344 240.914 61.8429 242.057 60.26C243.201 58.6595 243.772 56.417 243.772 53.5326C243.772 50.6834 243.192 48.4585 242.031 46.858C240.888 45.2399 239.305 44.4309 237.282 44.4309C235.242 44.4309 233.642 45.2399 232.481 46.858C231.338 48.4585 230.766 50.6834 230.766 53.5326C230.766 56.417 231.338 58.6595 232.481 60.26Z" fill="black"/>
<path d="M275.079 45.2927V51.3606H278.574C279.577 51.3606 280.355 51.0924 280.909 50.5559C281.472 50.0195 281.753 49.2764 281.753 48.3267C281.753 47.4033 281.463 46.669 280.883 46.1238C280.302 45.5698 279.52 45.2927 278.535 45.2927H275.079ZM275.079 54.2494V61.2142H271.095V42.1797H278.957C281.129 42.1797 282.818 42.7205 284.022 43.8022C285.236 44.875 285.843 46.3568 285.843 48.2475C285.843 49.4875 285.535 50.5955 284.919 51.5716C284.313 52.539 283.468 53.2337 282.387 53.6558L286.397 61.2142H281.885L278.337 54.2494H275.079Z" fill="black"/>
<circle cx="277.849" cy="52.3095" r="17.1356" stroke="black" stroke-width="4"/>
<path d="M63 115C63 106.163 70.1634 99 79 99H281C289.837 99 297 106.163 297 115V347H63V115Z" fill="white"/>
<path d="M63 111C63 104.373 68.3726 99 75 99H285C291.627 99 297 104.373 297 111V121H63V111Z" fill="#2F363C"/>
<circle cx="78" cy="110" r="3" fill="#FF5F57"/>
<circle cx="89" cy="110" r="3" fill="#FEBC2E"/>
<circle cx="100" cy="110" r="3" fill="#2BC841"/>
<rect x="83" y="141" width="81" height="12" rx="6" fill="#576067"/>
<rect x="83" y="161" width="126" height="12" rx="6" fill="#576067"/>
<rect x="83" y="185" width="126" height="8" rx="4" fill="#E5E5E5"/>
<rect x="83" y="199" width="107" height="8" rx="4" fill="#E5E5E5"/>
<rect x="83" y="213" width="79" height="8" rx="4" fill="#E5E5E5"/>
<rect x="83" y="227" width="136" height="8" rx="4" fill="#E5E5E5"/>
<rect x="83" y="241" width="107" height="8" rx="4" fill="#E5E5E5"/>
<rect x="83" y="255" width="107" height="8" rx="4" fill="#E5E5E5"/>
<rect x="83" y="269" width="107" height="8" rx="4" fill="#E5E5E5"/>
<path d="M63.0769 257.052L51.1265 240.184L63.0769 228.25L75.0109 240.184L63.0769 257.052Z" fill="#D63387"/>
<path d="M75.0109 240.184H51.1265V269.068H75.0109V240.184Z" fill="#D63387"/>
<path d="M33.8154 240.184L45.7494 228.25H63.0767L51.1263 240.184H33.8154Z" fill="black"/>
<path d="M51.1263 240.184H33.8154V269.068H51.1263V240.184Z" fill="#EBEBEB"/>
<path d="M59.3881 256.922H66.7485V246.348H59.3881V256.922Z" fill="#FF8C00"/>
<path d="M234.267 265.478L218.825 243.676L234.267 228.25L249.693 243.676L234.267 265.478Z" fill="#EBEBEB"/>
<path d="M249.693 243.676H218.825V295.297H249.693V243.676Z" fill="#EBEBEB"/>
<path d="M196.449 243.676L211.891 228.25H234.268L218.825 243.676H196.449Z" fill="#FEBC2E"/>
<path d="M218.825 243.676H196.449V295.297H218.825V243.676Z" fill="#FF8C00"/>
<path d="M229.514 265.314H239.021V251.659H229.514V265.314Z" fill="#D63387"/>
<path d="M281.643 254.774L295.462 241.512L282.2 228.25L268.381 241.512L281.643 254.774Z" fill="#FF8C00"/>
<path d="M295.478 241.512H268.381V308.231H295.478V241.512Z" fill="#FF8C00"/>
<path d="M314.15 241.512L300.888 228.25H282.2L295.462 241.512H314.15Z" fill="#D63387"/>
<path d="M314.15 241.512H295.462V308.231H314.15V241.512Z" fill="#EBEBEB"/>
<path d="M173.811 291.051L196.449 269.314L174.729 247.594L152.074 269.314L173.811 291.051Z" fill="#FF8C00"/>
<path d="M152.074 321.279H196.449V269.314H152.074V321.279Z" fill="#FF8C00"/>
<path d="M227.055 269.314L205.318 247.594H174.729L196.449 269.314H227.055Z" fill="#055F4F"/>
<path d="M196.449 321.28L227.055 343.541V269.314H196.449V321.28Z" fill="#D63387"/>
<path d="M208.891 290.15H214.596V280.233H208.891V290.15Z" fill="#EBEBEB"/>
<path d="M79.9777 284.839L99.0098 266.56L80.7482 248.299L61.6997 266.56L79.9777 284.839Z" fill="#7CA621"/>
<path d="M99.0098 266.561H61.6997V358.442H99.0098V266.561Z" fill="#7CA621"/>
<path d="M124.731 266.56L106.469 248.299H80.7485L99.0102 266.56H124.731Z" fill="#D63387"/>
<path d="M124.73 266.561H99.0098V358.442H124.73V266.561Z" fill="#EBEBEB"/>
<path d="M185.955 300.962L165.218 280.225L144.481 300.962L165.218 321.699L185.955 300.962Z" fill="#000905"/>
<path d="M185.957 300.951H144.483V342.573H185.957V300.951Z" fill="#000905"/>
<path d="M114.419 300.952L135.156 280.215H165.22L144.483 300.952H114.419Z" fill="#D63387"/>
<path d="M144.483 300.951H114.419V342.573H144.483V300.951Z" fill="#FEBC2E"/>
<path d="M125.55 311.361H120.107V320.82H125.55V311.361Z" fill="#055F4F"/>
<path d="M138.795 311.361H133.353V320.82H138.795V311.361Z" fill="#055F4F"/>
<path d="M148.254 358.41H94.8789V360.164H148.254V358.41Z" fill="#FEBC2E"/>
<path d="M148.254 356.656H94.8789V358.41H148.254V356.656Z" fill="#FF8C00"/>
<path d="M148.254 354.885H94.8789V356.639H148.254V354.885Z" fill="#FEBC2E"/>
<path d="M148.254 353.131H94.8789V354.885H148.254V353.131Z" fill="#FF8C00"/>
<path d="M148.254 351.377H94.8789V353.131H148.254V351.377Z" fill="#FEBC2E"/>
<path d="M148.254 349.623H94.8789V351.377H148.254V349.623Z" fill="#FF8C00"/>
<path d="M148.254 347.854H94.8789V349.608H148.254V347.854Z" fill="#FEBC2E"/>
<path d="M148.254 346.1H94.8789V347.854H148.254V346.1Z" fill="#FF8C00"/>
<path d="M148.254 344.344H94.8789V346.098H148.254V344.344Z" fill="#FEBC2E"/>
<path d="M148.254 342.574H94.8789V344.328H148.254V342.574Z" fill="#FF8C00"/>
<path d="M-9.21558 263.265L9.02967 245.758L-8.4779 228.25L-26.7231 245.758L-9.21558 263.265Z" fill="#D63387"/>
<path d="M9.02967 245.758H-26.7231V320.46H9.02967V245.758Z" fill="#D63387"/>
<path d="M33.6844 245.758L16.1768 228.25H-8.47803L9.02954 245.758H33.6844Z" fill="#7CA621"/>
<path d="M33.6846 245.758H9.02979V320.46H33.6846V245.758Z" fill="black"/>
<path d="M19.6788 301.437L41.436 279.68L19.6788 257.922L-2.07845 279.68L19.6788 301.437Z" fill="#FEBC2E"/>
<path d="M-2.06865 338.115H41.438L41.438 279.691H-2.06865L-2.06865 338.115Z" fill="#FEBC2E"/>
<path d="M72.9941 279.675L51.2408 257.922H19.6846L41.4379 279.675H72.9941Z" fill="#FF8C00"/>
<path d="M41.4384 323.361H72.9946V279.691H41.4384L41.4384 323.361Z" fill="#000905"/>
<path d="M61.306 300.527H67.0107V290.61H61.306V300.527Z" fill="#D63387"/>
<path d="M47.4213 300.527H53.126V290.61H47.4213V300.527Z" fill="#D63387"/>
<path d="M248.775 306.952L271.43 285.231L249.693 263.494L227.054 285.231L248.775 306.952Z" fill="#FEBC2E"/>
<path d="M227.038 337.18H271.414V285.214H227.038V337.18Z" fill="#FEBC2E"/>
<path d="M302.019 285.231L280.298 263.494H249.693L271.43 285.231H302.019Z" fill="black"/>
<path d="M271.43 337.196L302.019 359.441V285.23H271.43V337.196Z" fill="#055F4F"/>
<path d="M283.872 306.033H289.577V296.116H283.872V306.033Z" fill="#EBEBEB"/>
<path d="M302.017 367.787L332.619 337.186L302.017 306.584L271.416 337.186L302.017 367.787Z" fill="#FF8C00"/>
<path d="M271.43 398.605H332.625V337.181H271.43V398.605Z" fill="#FF8C00"/>
<path d="M377 337.197L346.394 306.592H302.019L332.624 337.197H377Z" fill="#055F4F"/>
<path d="M332.625 398.605H377V337.181H332.625V398.605Z" fill="#FEBC2E"/>
<path d="M341.017 366.508H349.05V352.541H341.017V366.508Z" fill="#D63387"/>
<path d="M201.662 373.048L176.286 337.197L201.662 311.805L227.054 337.197L201.662 373.048Z" fill="#000905"/>
<path d="M227.054 337.197H176.286V398.621H227.054V337.197Z" fill="#000905"/>
<path d="M139.467 337.197L164.843 311.805H201.662L176.286 337.197H139.467Z" fill="#055F4F"/>
<path d="M176.286 337.197H139.467V398.621H176.286V337.197Z" fill="#D63387"/>
<path d="M309.79 382.768L294.069 360.572L309.79 344.852L325.51 360.572L309.79 382.768Z" fill="#D63387"/>
<path d="M271.266 360.572L286.987 344.852H309.789L294.069 360.572H271.266Z" fill="#055F4F"/>
<path d="M-19.5597 350.836L-45.0342 314.838L-19.5597 289.363L5.93121 314.838L-19.5597 350.836Z" fill="black"/>
<path d="M5.93121 314.838H-45.0342V405.884H5.93121V314.838Z" fill="black"/>
<path d="M32.7662 371.721L59.6178 333.82L32.7662 306.969L5.93115 333.82L32.7662 371.721Z" fill="#7CA621"/>
<path d="M5.93108 408.145H59.6177L59.6177 333.803H5.93108L5.93108 408.145Z" fill="#7CA621"/>
<path d="M98.5506 333.82L71.6991 306.969H32.7661L59.6176 333.82H98.5506Z" fill="black"/>
<path d="M59.6178 408.145H98.5508L98.5508 333.803H59.6178L59.6178 408.145Z" fill="#055F4F"/>
<path d="M38.2579 360.967H49.5034V345H38.2579V360.967Z" fill="#FEBC2E"/>
<path d="M16.0289 360.967H27.2744L27.2744 345H16.0289V360.967Z" fill="#FEBC2E"/>
<path d="M323.756 284.707L346.394 262.971L324.674 241.25L302.019 262.971L323.756 284.707Z" fill="#7CA621"/>
<path d="M302.035 306.592H346.411V262.97H302.035V306.592Z" fill="#7CA621"/>
<path d="M377 262.971L355.263 241.25H324.674L346.394 262.971H377Z" fill="#FF8C00"/>
<path d="M346.395 306.592L377 337.198V262.971H346.395V306.592Z" fill="#D63387"/>
<path d="M351.444 283.789H357.148V273.871H351.444V283.789Z" fill="#EBEBEB"/>
<path d="M227.038 398.605H271.414V337.181H227.038V398.605Z" fill="#7CA621"/>
<path d="M262.362 315.799C269.353 308.808 269.353 297.473 262.362 290.483C255.371 283.492 244.037 283.492 237.046 290.483C230.055 297.473 230.055 308.808 237.046 315.799C244.037 322.789 255.371 322.789 262.362 315.799Z" fill="#7CA621"/>
<path d="M247.365 337.18H252.021V305.722H247.365V337.18Z" fill="black"/>
<path d="M227.038 353.279H271.414V345.952H227.038V353.279Z" fill="#D63387"/>
<path d="M111.878 384.949L98.3213 365.785L111.878 352.229L125.451 365.785L111.878 384.949Z" fill="#D63387"/>
<path d="M78.6499 365.785L92.2068 352.229H111.878L98.3213 365.785H78.6499Z" fill="black"/>
<path d="M-19.5597 415.292L-45.0342 379.309L-19.5597 353.818L5.93121 379.309L-19.5597 415.292Z" fill="#D63387"/>
<circle cx="275" cy="210" r="44.5" fill="white" fill-opacity="0.6" stroke="#2DC020" stroke-width="11"/>
<path d="M275 178C292.674 178 307 192.326 307 210C307 227.674 292.674 242 275 242C257.326 242 243 227.674 243 210C243 192.326 257.326 178 275 178ZM286.312 198.419L270.472 214.259L263.688 207.472C263.391 207.175 263.038 206.939 262.65 206.778C262.262 206.617 261.845 206.534 261.425 206.534C260.576 206.533 259.762 206.87 259.162 207.47C258.561 208.07 258.224 208.884 258.223 209.733C258.223 210.582 258.56 211.396 259.16 211.997L267.986 220.822C268.312 221.149 268.701 221.409 269.128 221.586C269.555 221.763 270.013 221.854 270.475 221.854C270.938 221.854 271.395 221.763 271.823 221.586C272.25 221.409 272.638 221.149 272.965 220.822L290.84 202.947C291.44 202.347 291.778 201.532 291.778 200.683C291.778 199.834 291.44 199.02 290.84 198.419C290.24 197.819 289.425 197.481 288.576 197.481C287.727 197.481 286.912 197.819 286.312 198.419Z" fill="#2DC020"/>
</g>
<defs>
<clipPath id="clip0_4574_23499">
<rect width="360" height="360" rx="8" fill="white"/>
</clipPath>
</defs>
</svg>
