<svg width="360" height="360" viewBox="0 0 360 360" fill="none" xmlns="http://www.w3.org/2000/svg">
<g clip-path="url(#clip0_2724_2025)">
<rect width="360" height="360" rx="8" fill="#DBFDFF"/>
<g clip-path="url(#clip1_2724_2025)">
<path d="M164.665 70.7404C164.288 70.7404 163.986 70.6654 163.685 70.5153C163.383 70.2902 163.157 69.9151 163.082 69.615C161.649 66.3138 160.216 62.9375 158.784 59.6363C157.351 56.335 155.843 52.9588 154.41 49.6575L152.676 45.7561H152.45V74.1167C152.45 74.4168 152.299 74.5668 151.998 74.5668H150.64C150.339 74.5668 150.188 74.4168 150.188 74.1167V43.0551C150.188 42.6799 150.263 42.3048 150.414 42.0047C150.565 41.7046 150.942 41.5545 151.545 41.5545H152.224C152.601 41.5545 152.978 41.6295 153.279 41.8546C153.581 42.1547 153.807 42.5299 153.958 42.9801C154.109 43.2802 154.335 43.8804 154.712 44.7057C155.089 45.531 155.541 46.5814 155.994 47.7068C156.446 48.8322 157.049 50.1077 157.577 51.4582C158.105 52.8087 158.708 54.0842 159.311 55.3597C159.915 56.6351 160.367 57.8356 160.819 58.961C161.272 60.0864 161.724 60.9868 162.026 61.737C162.554 62.8625 163.006 63.9879 163.534 65.1133C164.062 66.2387 164.514 67.3642 164.967 68.5646H165.193L168.133 61.9621L176.277 42.905C176.427 42.4549 176.654 42.0797 176.955 41.7796C177.257 41.5545 177.634 41.4795 177.935 41.4795H178.614C179.217 41.4795 179.67 41.6295 179.82 41.9297C179.971 42.2298 180.122 42.6049 180.047 42.9801V74.0416C180.047 74.3418 179.896 74.4918 179.594 74.4918H178.162C177.86 74.4918 177.709 74.3418 177.709 74.0416V45.531H177.558L175.598 50.1077L167.153 69.615C167.002 69.9901 166.776 70.2902 166.55 70.5153C166.248 70.7404 165.871 70.8154 165.57 70.7404H164.665Z" fill="#4B4E56"/>
<path d="M185.626 62.2621V60.4614C185.626 60.1613 185.777 60.0112 186.003 60.0112H196.71C196.936 60.0112 197.087 60.0863 197.162 60.3113V60.3864V62.2621C197.162 62.4872 197.087 62.6372 196.861 62.7122C196.785 62.7122 196.785 62.7122 196.71 62.7122H186.003C185.777 62.7122 185.626 62.5622 185.626 62.2621Z" fill="#4B4E56"/>
<path d="M223.326 74.5667H209.905C208.774 74.5667 207.643 74.4166 206.587 74.0415C205.758 73.7414 205.004 73.2162 204.401 72.5409C203.798 71.8657 203.421 71.0404 203.194 70.2151C202.968 69.2397 202.817 68.2643 202.817 67.364V42.0796C202.817 41.8545 202.968 41.6294 203.194 41.6294C203.194 41.6294 203.27 41.6294 203.345 41.6294H204.778C205.004 41.6294 205.23 41.7795 205.23 42.0045C205.23 42.0045 205.23 42.0796 205.23 42.1546V67.514C205.155 68.8646 205.532 70.14 206.361 71.1154C207.115 71.9407 208.397 72.3909 210.131 72.3909H223.326C223.628 72.3909 223.779 72.5409 223.779 72.841V74.1165C223.779 74.3416 223.628 74.5667 223.326 74.5667Z" fill="#4B4E56"/>
<path d="M230.037 74.5667H228.604C228.303 74.5667 228.152 74.4166 228.152 74.1165V42.0796C228.152 41.8545 228.303 41.6294 228.529 41.6294C228.604 41.6294 228.604 41.6294 228.68 41.6294H230.112C230.339 41.6294 230.565 41.7795 230.565 42.0045C230.565 42.0045 230.565 42.0796 230.565 42.1546V74.1915C230.489 74.4166 230.339 74.5667 230.037 74.5667Z" fill="#4B4E56"/>
<path d="M239.99 44.8558V74.1167C239.99 74.4168 239.839 74.5668 239.537 74.5668H238.105C237.803 74.5668 237.652 74.4168 237.652 74.1167V43.0551C237.652 42.6799 237.728 42.2298 237.954 41.9297C238.256 41.6295 238.708 41.4795 239.16 41.4795H239.839C240.216 41.4795 240.518 41.5545 240.819 41.7796C241.121 42.1547 241.347 42.4549 241.573 42.905L255.145 64.6631L259.217 71.3406H259.443V42.0047C259.443 41.7796 259.594 41.5545 259.82 41.5545C259.895 41.5545 259.896 41.5545 259.971 41.5545H261.404C261.63 41.5545 261.856 41.7046 261.856 41.9297C261.856 41.9297 261.856 42.0047 261.856 42.0797V73.0663C261.856 73.4414 261.781 73.8166 261.554 74.1167C261.404 74.4168 261.027 74.5668 260.423 74.5668H259.745C259.368 74.5668 259.066 74.4918 258.764 74.2667C258.463 73.8916 258.237 73.5915 258.01 73.1413L243.458 50.2578L240.216 44.9308L239.99 44.8558Z" fill="#4B4E56"/>
<path d="M288.548 74.5667H275.428C274.297 74.5667 273.091 74.4167 272.035 74.0415C271.206 73.7414 270.452 73.2162 269.848 72.541C269.245 71.8657 268.868 71.1154 268.642 70.2151C268.416 69.2397 268.265 68.2644 268.265 67.364V48.8321C268.265 47.8568 268.416 46.8814 268.642 45.906C268.868 45.0807 269.321 44.2554 269.848 43.5802C270.452 42.9049 271.206 42.3797 272.11 42.0796C273.166 41.7045 274.297 41.4794 275.503 41.5544H288.095C288.472 41.5544 288.623 41.7045 288.623 42.1546V43.205C288.623 43.5802 288.472 43.8053 288.095 43.8053H275.503C273.769 43.8053 272.563 44.1804 271.809 45.0057C270.979 45.9811 270.602 47.2565 270.678 48.532V55.9598H286.587C286.813 55.9598 287.04 56.1098 287.115 56.3349C287.115 56.41 287.115 56.41 287.115 56.485V57.5354C287.19 57.7605 286.964 57.9855 286.738 58.0606C286.663 58.0606 286.663 58.0606 286.587 58.0606H270.678V67.6642C270.602 68.8646 270.979 70.0651 271.733 71.0404C272.412 71.9408 273.694 72.3159 275.503 72.3159H288.548C288.925 72.3159 289.075 72.466 289.075 72.9161V73.9665C289 74.3416 288.849 74.5667 288.548 74.5667Z" fill="#4B4E56"/>
<path d="M153.204 89.4225C153.129 89.4225 153.053 89.4225 153.053 89.4225H152.375C152.299 89.4225 152.224 89.4225 152.224 89.4225C152.148 89.3475 152.148 89.2724 152.148 89.1974V84.3206H150.414C150.339 84.3206 150.263 84.3206 150.263 84.2456C150.263 84.1705 150.188 84.1705 150.188 84.0955V83.5703C150.188 83.4953 150.188 83.4202 150.263 83.4202C150.263 83.3452 150.339 83.3452 150.414 83.3452H155.164C155.24 83.3452 155.315 83.3452 155.391 83.4202C155.391 83.4953 155.466 83.5703 155.466 83.5703V84.0955C155.466 84.1705 155.466 84.2456 155.391 84.2456C155.315 84.3206 155.24 84.3206 155.164 84.3206H153.355V89.2724C153.204 89.3475 153.204 89.3475 153.204 89.4225Z" fill="#4B4E56"/>
<path d="M158.708 83.1948C159.085 83.1948 159.462 83.2698 159.839 83.3449C160.141 83.4199 160.442 83.645 160.669 83.8701C160.895 84.0952 161.046 84.3953 161.121 84.6954C161.196 85.0705 161.272 85.3706 161.272 85.7458C161.272 85.8958 161.272 86.0459 161.196 86.271C161.121 86.421 161.046 86.4961 160.97 86.5711C160.895 86.6461 160.744 86.7211 160.669 86.7211C160.518 86.7211 160.442 86.7962 160.292 86.7962H157.049C157.049 87.0963 157.125 87.3964 157.2 87.6965C157.276 87.9216 157.426 88.0716 157.577 88.2967C157.728 88.4468 157.954 88.5218 158.18 88.5968C158.407 88.6719 158.633 88.6719 158.859 88.6719C159.085 88.6719 159.387 88.6719 159.613 88.5968C159.839 88.5218 160.065 88.4468 160.216 88.3718C160.367 88.2967 160.442 88.3718 160.442 88.4468L160.744 88.972C160.819 89.122 160.744 89.1971 160.669 89.2721C160.367 89.4222 160.065 89.5722 159.688 89.6472C159.387 89.7223 159.01 89.7223 158.708 89.7223C157.954 89.7973 157.2 89.4972 156.597 88.972C156.069 88.2967 155.768 87.3964 155.843 86.5711C155.843 86.1209 155.918 85.6707 156.069 85.2206C156.22 84.8454 156.371 84.4703 156.672 84.2452C156.899 83.9451 157.2 83.72 157.502 83.645C157.954 83.2699 158.331 83.1948 158.708 83.1948ZM160.216 85.8208C160.216 85.5957 160.216 85.3706 160.141 85.1456C160.065 84.9205 159.99 84.7704 159.915 84.6204C159.764 84.4703 159.613 84.3202 159.462 84.2452C159.236 84.1702 158.934 84.0952 158.708 84.0952C158.482 84.0952 158.256 84.1702 158.03 84.2452C157.879 84.3202 157.653 84.4703 157.577 84.6204C157.426 84.7704 157.351 84.9955 157.276 85.1456C157.2 85.3706 157.125 85.5207 157.125 85.7458H160.216V85.8208Z" fill="#4B4E56"/>
<path d="M167.153 83.27C167.304 83.27 167.53 83.27 167.681 83.4201C167.756 83.5701 167.832 83.7202 167.832 83.8702V89.2723C167.832 89.3473 167.832 89.4223 167.756 89.4223C167.681 89.4223 167.606 89.4223 167.606 89.4223H166.927C166.852 89.4223 166.776 89.4223 166.776 89.4223C166.701 89.3473 166.701 89.3473 166.701 89.2723V84.3204H164.59L164.514 85.1457C164.439 85.971 164.363 86.5712 164.288 87.0964C164.213 87.5466 164.137 87.9968 163.986 88.3719C163.911 88.672 163.685 88.9721 163.459 89.1972C163.232 89.4223 162.931 89.5724 162.554 89.6474C162.478 89.6474 162.403 89.6474 162.327 89.6474C162.252 89.6474 162.252 89.6474 162.252 89.4973L162.101 88.9721C162.101 88.8971 162.026 88.8221 162.101 88.8221C162.177 88.7471 162.177 88.7471 162.252 88.7471C162.403 88.672 162.554 88.597 162.704 88.4469C162.855 88.2969 162.931 88.1468 163.006 87.9218C163.081 87.6216 163.157 87.2465 163.232 86.9464C163.308 86.4962 163.308 85.971 163.383 85.2207L163.459 84.0203C163.459 83.8702 163.534 83.6452 163.685 83.5701C163.836 83.4951 163.986 83.4201 164.137 83.4201L167.153 83.27Z" fill="#4B4E56"/>
<path d="M171.828 83.1948C172.205 83.1948 172.582 83.2698 172.959 83.3449C173.261 83.4199 173.562 83.645 173.788 83.8701C174.015 84.0952 174.165 84.3953 174.241 84.6954C174.316 85.0705 174.392 85.3706 174.392 85.7458C174.392 85.8958 174.392 86.0459 174.316 86.271C174.241 86.421 174.165 86.4961 174.09 86.5711C174.015 86.6461 173.864 86.7211 173.788 86.7211C173.638 86.7211 173.562 86.7962 173.411 86.7962H170.245C170.245 87.0963 170.32 87.3964 170.395 87.6965C170.471 87.9216 170.622 88.0716 170.772 88.2967C170.923 88.4468 171.149 88.5218 171.376 88.5968C171.602 88.6719 171.828 88.6719 172.054 88.6719C172.507 88.6719 173.034 88.5218 173.411 88.2967C173.562 88.2217 173.638 88.2967 173.638 88.3718L173.939 88.897C174.015 89.047 173.939 89.122 173.864 89.1971C173.562 89.3471 173.261 89.4972 172.884 89.5722C172.582 89.6472 172.205 89.6472 171.903 89.6472C171.149 89.7223 170.395 89.4221 169.792 88.897C169.264 88.2217 168.963 87.3214 169.038 86.4961C169.038 86.0459 169.114 85.5957 169.264 85.1456C169.415 84.7704 169.566 84.3953 169.868 84.1702C170.094 83.8701 170.395 83.72 170.772 83.57C171.074 83.2699 171.451 83.1948 171.828 83.1948ZM173.336 85.8208C173.336 85.5957 173.336 85.3706 173.261 85.1456C173.185 84.9205 173.11 84.7704 173.034 84.6204C172.884 84.4703 172.733 84.3202 172.582 84.2452C172.356 84.1702 172.054 84.0952 171.828 84.0952C171.602 84.0952 171.376 84.1702 171.149 84.2452C170.999 84.3202 170.772 84.4703 170.697 84.6204C170.471 84.9205 170.32 85.3706 170.245 85.7458H173.336V85.8208Z" fill="#4B4E56"/>
<path d="M176.804 85.2208V89.2723C176.804 89.3474 176.804 89.4224 176.729 89.4224C176.654 89.4224 176.654 89.4224 176.578 89.4224H175.9C175.824 89.4224 175.824 89.4224 175.749 89.4224C175.749 89.4224 175.673 89.3474 175.673 89.2723V83.7953C175.673 83.6452 175.749 83.5702 175.824 83.4952C175.9 83.3451 176.126 83.2701 176.277 83.2701H176.729C176.88 83.2701 176.955 83.2701 177.106 83.3451C177.181 83.4201 177.332 83.4952 177.332 83.6452L178.463 85.9711L179.142 87.4717H179.217L179.971 85.821L181.027 83.6452C181.102 83.4201 181.328 83.1951 181.63 83.2701H182.007C182.158 83.2701 182.309 83.3451 182.459 83.4201C182.535 83.4952 182.535 83.6452 182.535 83.7203V89.2723C182.535 89.3474 182.535 89.4224 182.459 89.4224C182.384 89.4224 182.384 89.4224 182.309 89.4224H181.555C181.479 89.4224 181.479 89.4224 181.404 89.4224C181.328 89.4224 181.328 89.3474 181.328 89.2723V85.1458H181.253L180.65 86.4963L179.745 88.297C179.67 88.447 179.594 88.522 179.519 88.5971C179.443 88.6721 179.293 88.6721 179.142 88.6721H178.84C178.689 88.6721 178.614 88.6721 178.463 88.5971C178.388 88.522 178.312 88.372 178.237 88.297L177.408 86.5713L176.804 85.2208Z" fill="#4B4E56"/>
<path d="M186.606 83.1948C186.983 83.1948 187.36 83.2698 187.737 83.3449C188.039 83.4199 188.341 83.645 188.567 83.8701C188.793 84.0952 188.944 84.3953 189.019 84.6954C189.095 85.0705 189.17 85.3706 189.17 85.7458C189.17 85.8958 189.17 86.0459 189.095 86.271C189.019 86.421 188.944 86.4961 188.868 86.5711C188.793 86.6461 188.642 86.7211 188.567 86.7211C188.416 86.7211 188.341 86.7962 188.19 86.7962H184.948C184.948 87.0963 185.023 87.3964 185.098 87.6965C185.249 88.1467 185.626 88.4468 186.003 88.5968C186.229 88.6719 186.456 88.6719 186.682 88.6719C186.908 88.6719 187.21 88.5968 187.436 88.5968C187.662 88.5218 187.888 88.4468 188.039 88.3718C188.19 88.2967 188.265 88.3718 188.265 88.4468L188.567 88.972C188.642 89.122 188.567 89.1971 188.491 89.2721C188.19 89.4222 187.888 89.5722 187.511 89.6472C187.21 89.7223 186.833 89.7223 186.531 89.7223C185.777 89.7973 185.023 89.4972 184.42 88.972C183.892 88.2967 183.59 87.3964 183.666 86.5711C183.666 86.1209 183.741 85.6707 183.892 85.2206C184.043 84.8454 184.194 84.4703 184.495 84.2452C184.721 83.9451 185.023 83.72 185.325 83.645C185.777 83.2699 186.154 83.1948 186.606 83.1948ZM188.039 85.8208C188.039 85.5957 188.039 85.3706 187.964 85.1456C187.888 84.9205 187.813 84.7704 187.737 84.6204C187.587 84.4703 187.436 84.3202 187.285 84.2452C187.059 84.1702 186.757 84.0952 186.531 84.0952C186.305 84.0952 186.079 84.1702 185.852 84.2452C185.702 84.3202 185.475 84.4703 185.4 84.6204C185.249 84.7704 185.174 84.9955 185.098 85.1456C185.023 85.3706 184.948 85.5207 184.948 85.7458H188.039V85.8208Z" fill="#4B4E56"/>
<path d="M190.527 88.5222C190.603 88.4471 190.678 88.2971 190.753 88.222C190.829 88.072 190.904 87.997 190.904 87.8469C190.98 87.6968 190.98 87.5468 191.055 87.3217C191.13 87.0966 191.13 86.9466 191.13 86.6465L191.507 83.9454C191.507 83.7954 191.583 83.5703 191.734 83.4953C191.884 83.4202 192.111 83.3452 192.337 83.3452H195.202C195.504 83.3452 195.654 83.4202 195.73 83.4953C195.805 83.6453 195.805 83.7954 195.805 83.9454V88.5222H196.182C196.333 88.5222 196.484 88.5972 196.484 88.6722C196.484 88.7472 196.559 88.8223 196.559 88.8973L196.408 91.0731C196.408 91.1481 196.408 91.1481 196.333 91.2232H196.258H195.504C195.428 91.2232 195.353 91.1481 195.353 91.0731L195.277 89.4225H190.98L190.904 91.1481C190.904 91.2232 190.829 91.2982 190.753 91.2982H189.999H189.924C189.924 91.2982 189.849 91.2232 189.849 91.1481L189.773 89.0473C189.773 88.9723 189.773 88.8223 189.849 88.7472C189.924 88.6722 189.999 88.5972 190.15 88.5972L190.527 88.5222ZM194.75 84.3206H192.638L192.412 85.8962C192.337 86.4214 192.261 86.7965 192.261 87.0966C192.261 87.3967 192.186 87.6218 192.111 87.8469C192.111 87.997 192.035 88.147 191.96 88.2971C191.884 88.3721 191.884 88.5222 191.809 88.5972H194.75V84.3206Z" fill="#4B4E56"/>
<path d="M197.766 83.4951C197.766 83.4201 197.766 83.345 197.841 83.345C197.916 83.345 197.916 83.345 197.992 83.345H198.746C198.821 83.345 198.821 83.345 198.897 83.345C198.897 83.345 198.972 83.4201 198.972 83.4951V87.7717H199.047L199.877 86.3462L201.611 83.6452C201.686 83.4951 201.762 83.4201 201.837 83.345C201.988 83.27 202.063 83.27 202.214 83.27H202.516C202.667 83.27 202.817 83.27 202.893 83.4201C202.968 83.4951 203.044 83.6452 203.044 83.7952V89.2723C203.044 89.3473 203.044 89.4223 202.968 89.4223C202.893 89.4223 202.893 89.4223 202.817 89.4223H202.063C201.988 89.4223 201.988 89.4223 201.913 89.4223C201.837 89.4223 201.837 89.3473 201.837 89.2723V84.9957H201.762L200.932 86.3462L199.198 89.0472C199.123 89.1972 199.047 89.2723 198.897 89.3473C198.821 89.4223 198.67 89.4223 198.52 89.4223H198.218C198.067 89.4223 197.916 89.4223 197.841 89.2723C197.766 89.1972 197.69 89.0472 197.69 88.8971V83.4951H197.766Z" fill="#4B4E56"/>
<path d="M209.83 88.522H210.207C210.357 88.522 210.508 88.597 210.508 88.672C210.508 88.7471 210.584 88.8221 210.584 88.8971L210.433 91.0729C210.433 91.148 210.433 91.148 210.357 91.223H210.282H209.528C209.453 91.223 209.377 91.148 209.377 91.0729L209.302 89.4223H205.23C205.079 89.4223 204.929 89.3473 204.778 89.2723C204.627 89.1222 204.627 88.9721 204.627 88.7471V83.4951C204.627 83.4201 204.627 83.345 204.702 83.345C204.778 83.345 204.853 83.27 204.929 83.27H205.607C205.683 83.27 205.758 83.27 205.833 83.345C205.833 83.345 205.909 83.4201 205.909 83.4951V88.522H208.774V83.4951C208.774 83.4201 208.774 83.345 208.849 83.345C208.925 83.345 209 83.27 209.076 83.27H209.754C209.83 83.27 209.905 83.27 209.905 83.345C209.98 83.345 209.98 83.4201 209.98 83.4951L209.83 88.522Z" fill="#4B4E56"/>
<path d="M211.715 83.4951C211.715 83.4201 211.715 83.345 211.79 83.345C211.865 83.345 211.865 83.345 211.941 83.345H212.695C212.77 83.345 212.77 83.345 212.846 83.345C212.846 83.345 212.921 83.4201 212.921 83.4951V87.7717H212.996L213.901 86.3462L215.635 83.6452C215.711 83.4951 215.786 83.4201 215.862 83.345C216.012 83.27 216.088 83.27 216.239 83.27H216.54C216.691 83.27 216.842 83.27 216.917 83.4201C216.993 83.4951 217.068 83.6452 217.068 83.7952V89.2723C217.068 89.3473 217.068 89.4223 216.993 89.4223C216.917 89.4223 216.917 89.4223 216.842 89.4223H216.088C216.012 89.4223 216.012 89.4223 215.937 89.4223C215.937 89.4223 215.862 89.3473 215.862 89.2723V84.9957H215.786L214.957 86.3462L213.223 89.0472C213.147 89.1972 213.072 89.2723 212.921 89.3473C212.846 89.4223 212.695 89.4223 212.544 89.4223H212.242C212.092 89.4223 211.941 89.4223 211.865 89.2723C211.79 89.1972 211.715 89.0472 211.715 88.8971V83.4951Z" fill="#4B4E56"/>
<path d="M219.707 89.4223C219.632 89.4223 219.556 89.4223 219.556 89.4223H218.878C218.802 89.4223 218.727 89.4223 218.727 89.4223C218.651 89.3473 218.651 89.2723 218.651 89.1972V83.4951C218.651 83.4201 218.651 83.345 218.727 83.345C218.802 83.345 218.878 83.27 218.878 83.27H219.556C219.632 83.27 219.707 83.27 219.707 83.345C219.707 83.345 219.782 83.4201 219.782 83.4951V85.5959H222.648V83.4951C222.648 83.4201 222.648 83.345 222.723 83.345C222.799 83.345 222.874 83.27 222.949 83.27H223.628C223.703 83.27 223.779 83.27 223.779 83.345C223.779 83.345 223.854 83.4201 223.854 83.4951V89.1972C223.854 89.2723 223.854 89.3473 223.779 89.4223C223.703 89.4223 223.628 89.4223 223.628 89.4223H222.949C222.874 89.4223 222.799 89.4223 222.723 89.4223C222.648 89.3473 222.648 89.2723 222.648 89.1972V86.6463H219.782V89.1972C219.782 89.2723 219.783 89.3473 219.707 89.4223Z" fill="#4B4E56"/>
<path d="M227.926 88.5972C228.152 88.5972 228.454 88.5972 228.68 88.5221C228.906 88.4471 229.132 88.3721 229.283 88.297C229.358 88.297 229.434 88.222 229.434 88.297L229.509 88.3721L229.811 88.9723C229.886 89.0473 229.886 89.1224 229.811 89.1974C229.811 89.1974 229.811 89.1974 229.735 89.1974C229.434 89.3474 229.057 89.4975 228.755 89.4975C228.454 89.5725 228.077 89.5725 227.7 89.5725C226.946 89.6476 226.267 89.3474 225.739 88.7472C225.211 88.072 224.985 87.2467 225.061 86.4213C225.061 85.9712 225.136 85.521 225.211 85.0708C225.362 84.6957 225.513 84.3206 225.739 84.0205C225.965 83.7203 226.267 83.4953 226.644 83.3452C227.021 83.1951 227.398 83.1201 227.775 83.1201C228.077 83.1201 228.378 83.1201 228.68 83.1951C228.981 83.2702 229.283 83.3452 229.509 83.4953C229.585 83.4953 229.66 83.6453 229.585 83.7203V83.7954L229.283 84.3956C229.283 84.4706 229.208 84.4706 229.208 84.4706C229.208 84.4706 229.132 84.4706 229.057 84.4706C228.831 84.3956 228.68 84.3206 228.454 84.2455C228.227 84.1705 228.001 84.1705 227.775 84.1705C227.549 84.1705 227.247 84.2455 227.021 84.3206C226.795 84.4706 226.644 84.6207 226.493 84.8458C226.342 85.0708 226.267 85.2959 226.192 85.596C226.116 85.8962 226.116 86.1963 226.116 86.4213C226.116 86.7215 226.116 86.9465 226.192 87.2467C226.267 87.4717 226.342 87.6968 226.418 87.9219C226.569 88.147 226.719 88.2971 226.946 88.3721C227.172 88.5221 227.473 88.5221 227.775 88.5221" fill="#4B4E56"/>
<path d="M232.148 89.4223C232.073 89.4223 232.073 89.4223 231.997 89.4223H231.243C231.168 89.4223 231.168 89.4223 231.093 89.4223C231.093 89.4223 231.017 89.3473 231.017 89.2723V83.4951C231.017 83.4201 231.017 83.345 231.093 83.345C231.168 83.345 231.168 83.345 231.243 83.345H231.997C232.073 83.345 232.073 83.345 232.148 83.345C232.148 83.345 232.224 83.4201 232.224 83.4951V85.6709H233.053C233.279 85.6709 233.505 85.5959 233.732 85.5209C233.958 85.3708 234.109 85.1457 234.184 84.8456L234.636 83.4201C234.636 83.345 234.636 83.27 234.712 83.27H234.787H235.541C235.617 83.27 235.692 83.27 235.692 83.345C235.692 83.4201 235.692 83.4201 235.692 83.4951L235.24 84.9957C235.164 85.2208 235.089 85.4458 234.938 85.6709C234.787 85.821 234.636 85.971 234.486 86.1211C234.712 86.1961 235.013 86.3462 235.164 86.5713C235.315 86.7963 235.39 87.0214 235.466 87.2465L236.069 89.2723C236.069 89.3473 236.069 89.3473 236.069 89.4223C236.069 89.4973 235.994 89.4973 235.918 89.4973H235.089H235.013C234.938 89.4973 234.938 89.4223 234.938 89.3473L234.41 87.4716C234.335 87.2465 234.184 87.0214 233.958 86.8714C233.732 86.7213 233.505 86.7213 233.279 86.7213H232.299V89.2723C232.224 89.3473 232.224 89.4223 232.148 89.4223Z" fill="#4B4E56"/>
<path d="M237.2 83.4951C237.2 83.4201 237.2 83.345 237.275 83.345C237.351 83.345 237.351 83.345 237.426 83.345H238.18C238.256 83.345 238.256 83.345 238.331 83.345C238.331 83.345 238.406 83.4201 238.406 83.4951V87.7717H238.482L239.387 86.3462L241.121 83.6452C241.196 83.4951 241.272 83.4201 241.347 83.345C241.498 83.27 241.573 83.27 241.724 83.27H242.026C242.176 83.27 242.327 83.27 242.403 83.4201C242.478 83.4951 242.553 83.6452 242.553 83.7952V89.2723C242.553 89.3473 242.553 89.4223 242.478 89.4223C242.403 89.4223 242.403 89.4223 242.327 89.4223H241.573C241.498 89.4223 241.498 89.4223 241.422 89.4223C241.422 89.4223 241.347 89.3473 241.347 89.2723V84.9957H241.272L240.442 86.3462L238.708 89.0472C238.633 89.1972 238.557 89.2723 238.406 89.3473C238.331 89.4223 238.18 89.4223 238.029 89.4223H237.728C237.577 89.4223 237.426 89.4223 237.351 89.2723C237.275 89.1972 237.2 89.0472 237.2 88.8971V83.4951Z" fill="#4B4E56"/>
<path d="M246.55 83.1948C246.927 83.1948 247.304 83.2698 247.681 83.3449C247.982 83.4199 248.284 83.645 248.51 83.8701C248.736 84.0952 248.887 84.3953 248.962 84.6954C249.038 85.0705 249.113 85.3706 249.113 85.7458C249.113 85.8958 249.113 86.0459 249.038 86.271C248.962 86.421 248.887 86.4961 248.812 86.5711C248.736 86.6461 248.585 86.7211 248.51 86.7211C248.359 86.7211 248.284 86.7962 248.133 86.7962H244.891C244.891 87.0963 244.966 87.3964 245.042 87.6965C245.192 88.1467 245.569 88.4468 246.022 88.5968C246.248 88.6719 246.474 88.6719 246.7 88.6719C246.927 88.6719 247.228 88.5968 247.454 88.5968C247.681 88.5218 247.907 88.4468 248.058 88.3718C248.208 88.2967 248.284 88.3718 248.284 88.4468L248.585 88.972C248.661 89.122 248.585 89.1971 248.51 89.2721C248.208 89.4222 247.907 89.5722 247.53 89.6472C247.228 89.7223 246.851 89.7223 246.55 89.7223C245.796 89.7973 245.042 89.4972 244.438 88.972C243.911 88.2967 243.609 87.3964 243.684 86.5711C243.684 86.1209 243.76 85.6707 243.911 85.2206C244.061 84.8454 244.212 84.4703 244.514 84.2452C244.74 83.9451 245.042 83.72 245.343 83.645C245.796 83.2699 246.173 83.1948 246.55 83.1948ZM248.058 85.8208C248.058 85.5957 248.058 85.3706 247.982 85.1456C247.907 84.9205 247.831 84.7704 247.756 84.6204C247.605 84.4703 247.454 84.3202 247.304 84.2452C247.077 84.1702 246.776 84.0952 246.55 84.0952C246.323 84.0952 246.097 84.1702 245.871 84.2452C245.72 84.3202 245.494 84.4703 245.419 84.6204C245.268 84.7704 245.192 84.9955 245.117 85.1456C245.042 85.3706 244.966 85.5207 244.966 85.7458H248.058V85.8208Z" fill="#4B4E56"/>
<path d="M256.352 90.3975C256.201 90.8477 255.975 91.2228 255.598 91.5229C255.296 91.748 254.844 91.8981 254.467 91.823H254.09C253.863 91.823 253.713 91.748 253.562 91.748C253.411 91.748 253.411 91.673 253.411 91.5229L253.562 90.9227C253.562 90.8477 253.562 90.7727 253.637 90.7727C253.713 90.7727 253.713 90.7727 253.788 90.7727L254.09 90.8477H254.391C254.617 90.8477 254.844 90.7727 255.07 90.6976C255.296 90.5476 255.371 90.3225 255.447 90.0974L255.748 89.2721H255.522C255.447 89.2721 255.296 89.2721 255.221 89.1971C255.145 89.122 255.07 89.047 254.994 88.8219L253.26 83.3449C253.26 83.2698 253.26 83.1948 253.336 83.1948H254.24C254.316 83.1948 254.316 83.1948 254.391 83.1948L254.467 83.2699L255.371 86.1209L255.975 88.2967H256.05L256.729 86.1209L257.709 83.2699C257.709 83.2699 257.709 83.1948 257.784 83.1948C257.784 83.1948 257.86 83.1948 257.935 83.1948H258.764C258.84 83.1948 258.915 83.2698 258.84 83.3449L256.352 90.3975Z" fill="#4B4E56"/>
<path d="M262.082 88.5972C262.308 88.5972 262.61 88.5972 262.836 88.5221C263.062 88.4471 263.289 88.3721 263.439 88.297C263.515 88.297 263.59 88.222 263.59 88.297L263.666 88.3721L263.967 88.9723C264.043 89.0473 264.043 89.1224 263.967 89.1974C263.967 89.1974 263.967 89.1974 263.892 89.1974C263.59 89.3474 263.289 89.4975 262.912 89.4975C262.61 89.5725 262.233 89.5725 261.856 89.5725C261.102 89.5725 260.423 89.2724 259.971 88.7472C259.443 88.072 259.217 87.2467 259.292 86.4213C259.292 85.9712 259.368 85.521 259.443 85.0708C259.594 84.6957 259.745 84.3206 259.971 84.0205C260.197 83.7203 260.499 83.4953 260.8 83.3452C261.177 83.1951 261.554 83.1201 261.931 83.1201C262.233 83.1201 262.534 83.1201 262.836 83.1951C263.138 83.2702 263.439 83.3452 263.666 83.4953C263.741 83.4953 263.816 83.6453 263.741 83.7203V83.7954L263.439 84.3956C263.439 84.4706 263.364 84.4706 263.364 84.4706C263.289 84.4706 263.213 84.4706 263.213 84.4706C262.987 84.3956 262.836 84.3206 262.61 84.2455C262.384 84.1705 262.158 84.1705 261.931 84.1705C261.705 84.1705 261.404 84.2455 261.177 84.3206C260.951 84.4706 260.8 84.6207 260.649 84.8458C260.499 85.0708 260.423 85.2959 260.348 85.596C260.273 85.8962 260.272 86.1963 260.272 86.4213C260.272 86.7215 260.273 86.9465 260.348 87.2467C260.423 87.4717 260.499 87.6968 260.574 87.9219C260.725 88.147 260.876 88.297 261.102 88.3721C261.554 88.5972 261.78 88.6722 262.082 88.5972Z" fill="#4B4E56"/>
<path d="M269.999 83.27C270.15 83.27 270.376 83.27 270.527 83.4201C270.602 83.5701 270.678 83.7202 270.678 83.8702V89.2723C270.678 89.3473 270.678 89.4223 270.602 89.4223C270.527 89.4223 270.451 89.4223 270.451 89.4223H269.773C269.697 89.4223 269.622 89.4223 269.622 89.4223C269.547 89.3473 269.547 89.3473 269.547 89.2723V84.3204H267.435L267.36 85.1457C267.285 85.971 267.209 86.5712 267.134 87.0964C267.058 87.5466 266.983 87.9968 266.832 88.3719C266.757 88.672 266.531 88.9721 266.304 89.1972C266.078 89.4223 265.777 89.5724 265.4 89.6474C265.324 89.6474 265.249 89.6474 265.173 89.6474C265.098 89.6474 265.098 89.6474 265.098 89.4973L264.947 88.9721C264.947 88.8971 264.947 88.8221 264.947 88.8221C265.023 88.7471 265.023 88.7471 265.098 88.7471C265.249 88.672 265.4 88.597 265.55 88.4469C265.701 88.2969 265.852 88.1468 265.852 87.9218C265.927 87.6216 266.003 87.2465 266.078 86.9464C266.154 86.4962 266.154 85.971 266.229 85.2207L266.304 84.0203C266.304 83.8702 266.38 83.6452 266.531 83.5701C266.681 83.4951 266.832 83.4201 266.983 83.4201L269.999 83.27Z" fill="#4B4E56"/>
<path d="M274.9 90.3975C274.749 90.8477 274.523 91.2228 274.146 91.5229C273.844 91.748 273.392 91.8981 273.015 91.823H272.638C272.487 91.823 272.261 91.748 272.11 91.748C271.96 91.748 271.96 91.673 271.96 91.5229L272.11 90.9227C272.11 90.8477 272.11 90.7727 272.186 90.7727C272.261 90.7727 272.261 90.7727 272.337 90.7727L272.638 90.8477H272.94C273.166 90.8477 273.392 90.7727 273.618 90.6976C273.845 90.5476 273.92 90.3225 273.995 90.0974L274.297 89.2721H274.071C273.92 89.2721 273.844 89.2721 273.769 89.1971C273.694 89.1971 273.618 89.047 273.543 88.8219L271.809 83.3449C271.809 83.2698 271.809 83.1948 271.884 83.1948H272.789C272.864 83.1948 272.864 83.1948 272.94 83.1948L273.015 83.2699L273.92 86.1209L274.523 88.2967H274.599L275.277 86.1209L276.257 83.2699C276.257 83.2699 276.257 83.1948 276.333 83.1948C276.408 83.1948 276.408 83.1948 276.484 83.1948H277.388C277.464 83.1948 277.539 83.2698 277.464 83.3449L274.9 90.3975Z" fill="#4B4E56"/>
<path d="M279.5 84.4705C279.349 84.6205 279.273 84.8456 279.349 85.0707V89.1972C279.349 89.2723 279.349 89.3473 279.273 89.4223C279.198 89.4223 279.123 89.4223 279.047 89.4223H278.369C278.293 89.4223 278.218 89.4223 278.218 89.4223C278.142 89.3473 278.142 89.2723 278.142 89.1972V85.2207C278.142 84.9957 278.142 84.6955 278.218 84.4705C278.293 84.2454 278.369 84.0203 278.519 83.8702C278.67 83.6452 278.896 83.4951 279.123 83.4201C279.424 83.27 279.726 83.27 280.103 83.27H282.516C282.591 83.27 282.666 83.27 282.666 83.345C282.666 83.4201 282.666 83.4951 282.666 83.4951V84.0203C282.666 84.0953 282.666 84.1704 282.666 84.1704C282.591 84.2454 282.516 84.2454 282.516 84.2454H280.103C279.877 84.2454 279.65 84.3204 279.5 84.4705Z" fill="#4B4E56"/>
<path d="M283.722 83.4951C283.722 83.4201 283.722 83.345 283.797 83.345C283.873 83.345 283.873 83.345 283.948 83.345H284.702C284.778 83.345 284.778 83.345 284.853 83.345C284.853 83.345 284.928 83.4201 284.928 83.4951V87.7717H285.004L285.909 86.3462L287.643 83.6452C287.718 83.4951 287.794 83.4201 287.869 83.345C288.02 83.27 288.095 83.27 288.246 83.27H288.548C288.698 83.27 288.849 83.27 288.925 83.4201C289 83.4951 289.075 83.6452 289.075 83.7952V89.2723C289.075 89.3473 289.075 89.4223 289 89.4223C288.925 89.4223 288.925 89.4223 288.849 89.4223H288.095C288.02 89.4223 288.02 89.4223 287.944 89.4223C287.944 89.4223 287.869 89.3473 287.869 89.2723V84.9957H287.794L286.964 86.3462L285.23 89.0472C285.155 89.1972 285.079 89.2723 284.928 89.3473C284.853 89.4223 284.702 89.4223 284.551 89.4223H284.25C284.099 89.4223 283.948 89.4223 283.873 89.2723C283.797 89.1972 283.722 89.0472 283.722 88.8971V83.4951Z" fill="#4B4E56"/>
<path d="M128.171 52.3582L127.87 51.833L127.643 51.4579C127.191 50.7826 126.814 50.0323 126.588 49.207C126.814 48.3817 127.191 47.6314 127.643 46.9562L128.096 46.2059C128.473 45.4556 128.925 44.7804 129.528 44.1801C130.358 43.9551 131.187 43.9551 132.017 44.0301H132.846C133.675 43.9551 134.505 44.0301 135.334 44.1801C135.937 44.7804 136.39 45.4556 136.691 46.2059L137.144 46.9562C137.596 47.6314 137.973 48.3817 138.199 49.207C137.973 50.0323 137.596 50.7826 137.144 51.4579L136.691 52.2081C136.314 52.9584 135.862 53.6337 135.334 54.2339C134.505 54.459 133.675 54.459 132.846 54.3839H131.79C130.961 54.3839 130.132 54.3839 129.302 54.534C129.001 53.8587 128.624 53.1085 128.171 52.3582ZM61.6681 30.9002C61.2911 31.5754 61.5173 32.4758 62.1959 32.8509L63.3269 33.5262C67.7755 36.0771 70.0376 37.3526 71.0178 39.0032C71.998 40.6538 71.998 43.2798 71.998 48.3817V51.0077C71.998 56.1096 71.998 58.6605 71.0178 60.3862C70.0376 62.1118 67.7755 63.3123 63.3269 65.8632L62.1959 66.5385C61.6681 66.8386 61.0649 67.1387 60.5371 67.4388C57.2949 69.2395 54.1281 71.0402 52.3939 73.6661C50.6597 71.0402 47.4929 69.2395 44.2507 67.4388L42.5918 66.5385L41.4608 65.8632C37.0122 63.3123 34.7502 62.0368 33.8454 60.3862C32.9406 58.7356 32.8652 56.1096 32.8652 51.0077V48.3817C32.8652 43.2798 32.8652 40.7289 33.8454 39.0032C34.8256 37.2776 37.0122 36.0771 41.5362 33.5262L42.6672 32.8509C43.3458 32.4758 43.5721 31.5754 43.195 30.9002C42.818 30.2249 41.9132 29.9998 41.2346 30.375L40.1036 31.0502C30.3016 36.6773 30 37.1275 30 48.3817V51.0077C30 62.2619 30.2262 62.7121 40.1036 68.3391L41.2346 69.0144L42.8934 69.9147C48.0961 72.8408 51.0367 74.6415 51.0367 78.618V84.3201C50.9613 90.0222 54.8067 95.0491 60.3863 96.4747C61.5173 96.7748 62.6483 96.9248 63.8547 96.9248C68.3033 96.9248 72.4504 94.5239 74.637 90.6225L85.7962 71.0402C86.1732 70.4399 86.7764 70.0648 87.5304 70.0648C88.209 70.0648 88.8876 70.4399 89.2646 71.0402L92.5822 76.7423C93.3362 78.0928 94.8442 78.9931 96.4276 78.9181C98.0111 78.9181 99.5191 78.0928 100.273 76.6673L108.19 62.7871C108.567 62.1869 109.17 61.8117 109.924 61.8117C110.603 61.8117 111.282 62.1869 111.583 62.7871L114.524 68.3391V68.4142C115.353 69.9147 117.012 70.8151 118.746 70.8151C120.48 70.8151 122.064 69.9147 122.969 68.4142L129.076 57.9103C129.378 57.3851 129.981 57.31 131.79 57.31H132.846C136.767 57.31 137.295 57.0099 139.18 53.6337L139.632 52.8834C141.592 49.5071 141.592 48.9819 139.632 45.5306L139.18 44.7804C138.199 43.1297 137.747 42.2294 136.767 41.7042C135.787 41.179 134.731 41.104 132.846 41.104H132.017C128.171 41.104 127.719 41.4041 125.758 44.7804L125.306 45.5306C123.346 48.9069 123.346 49.4321 125.306 52.8834L125.532 53.2585L125.834 53.7837C126.739 55.3593 126.965 55.8845 126.663 56.4847L120.556 66.9886C120.179 67.5889 119.576 67.964 118.822 67.964C118.143 67.964 117.464 67.5889 117.163 66.9886L114.222 61.5116V61.4366C113.393 59.936 111.734 59.0357 110 59.0357C108.265 59.0357 106.682 59.936 105.777 61.4366L97.7095 75.3168C97.4079 75.842 96.8801 76.1421 96.3522 76.067C95.8244 76.067 95.2966 75.7669 94.995 75.3168L91.6774 69.6146C90.848 68.1141 89.1892 67.2137 87.455 67.2137C85.7208 67.2137 84.1374 68.1141 83.2326 69.6146L72.0734 89.1969C69.3589 93.8487 63.4023 95.4243 58.7275 92.7233C55.7115 90.9976 53.8265 87.7714 53.8265 84.3201V78.618C53.8265 74.7165 56.9179 72.7658 61.9697 69.9147L63.6285 69.0144L64.7595 68.3391C74.5616 62.7121 74.8632 62.2619 74.8632 51.0077V48.3817C74.8632 37.1275 74.5616 36.6773 64.8349 31.0502L63.7039 30.375C63.4777 30.2249 63.2515 30.1499 62.9499 30.1499C62.4221 30.2249 61.9697 30.525 61.6681 30.9002Z" fill="url(#paint0_linear_2724_2025)"/>
</g>
<g filter="url(#filter0_d_2724_2025)">
<path d="M64 133C64 126.373 69.3726 121 76 121H360V316H76C69.3726 316 64 310.627 64 304V133Z" fill="#204A4D"/>
</g>
<path d="M244.44 295V279.496L240.96 280.288V278.752L244.68 277.144H246.864V295H244.44ZM250.014 295V293.056L256.35 286.888C256.958 286.312 257.446 285.776 257.814 285.28C258.182 284.784 258.446 284.288 258.606 283.792C258.782 283.28 258.87 282.728 258.87 282.136C258.87 281.608 258.766 281.144 258.558 280.744C258.366 280.328 258.022 280.008 257.526 279.784C257.03 279.56 256.326 279.448 255.414 279.448H250.566V277.576C251.302 277.48 252.118 277.392 253.014 277.312C253.926 277.216 254.894 277.168 255.918 277.168C257.278 277.168 258.342 277.36 259.11 277.744C259.894 278.112 260.446 278.648 260.766 279.352C261.102 280.04 261.27 280.856 261.27 281.8C261.27 282.616 261.158 283.368 260.934 284.056C260.726 284.728 260.398 285.384 259.95 286.024C259.502 286.648 258.926 287.304 258.222 287.992L253.254 292.792H261.894V295H250.014ZM269.089 295.072C268.193 295.072 267.409 294.92 266.737 294.616C266.065 294.296 265.545 293.816 265.177 293.176C264.809 292.536 264.625 291.728 264.625 290.752V281.608C264.625 280.632 264.809 279.816 265.177 279.16C265.545 278.504 266.065 278.008 266.737 277.672C267.425 277.336 268.209 277.168 269.089 277.168H272.617C273.609 277.168 274.417 277.352 275.041 277.72C275.681 278.088 276.153 278.6 276.457 279.256C276.777 279.912 276.937 280.696 276.937 281.608V290.752C276.937 292.208 276.545 293.296 275.761 294.016C274.993 294.72 273.937 295.072 272.593 295.072H269.089ZM269.593 292.888H272.017C272.897 292.888 273.529 292.672 273.913 292.24C274.313 291.808 274.513 291.2 274.513 290.416V281.824C274.513 280.96 274.305 280.328 273.889 279.928C273.473 279.528 272.881 279.328 272.113 279.328H269.521C268.753 279.328 268.145 279.544 267.697 279.976C267.249 280.408 267.025 281.024 267.025 281.824V290.416C267.025 291.248 267.249 291.872 267.697 292.288C268.161 292.688 268.793 292.888 269.593 292.888ZM279.105 296.728L285.849 276.52H288.249L281.505 296.728H279.105ZM294.919 295.072C294.295 295.072 293.711 295.016 293.167 294.904C292.639 294.776 292.175 294.576 291.775 294.304C291.375 294.016 291.063 293.64 290.839 293.176C290.615 292.712 290.503 292.136 290.503 291.448V288.952C290.503 288.408 290.607 287.936 290.815 287.536C291.039 287.12 291.311 286.784 291.631 286.528C291.967 286.272 292.319 286.104 292.687 286.024C292.191 285.8 291.807 285.528 291.535 285.208C291.279 284.872 291.103 284.512 291.007 284.128C290.911 283.728 290.863 283.32 290.863 282.904V280.864C290.863 279.984 291.039 279.272 291.391 278.728C291.743 278.184 292.223 277.792 292.831 277.552C293.439 277.312 294.103 277.192 294.823 277.192H298.159C298.911 277.192 299.567 277.312 300.127 277.552C300.687 277.792 301.127 278.184 301.447 278.728C301.767 279.272 301.927 279.984 301.927 280.864V282.904C301.927 283.16 301.895 283.44 301.831 283.744C301.767 284.032 301.663 284.32 301.519 284.608C301.391 284.88 301.215 285.12 300.991 285.328C300.767 285.536 300.503 285.68 300.199 285.76C300.727 285.872 301.135 286.096 301.423 286.432C301.727 286.752 301.943 287.128 302.071 287.56C302.199 287.976 302.263 288.4 302.263 288.832V291.448C302.263 292.36 302.087 293.08 301.735 293.608C301.383 294.12 300.895 294.496 300.271 294.736C299.663 294.96 298.959 295.072 298.159 295.072H294.919ZM295.303 293.008H297.655C298.439 293.008 298.999 292.848 299.335 292.528C299.687 292.192 299.863 291.704 299.863 291.064V289.048C299.863 288.328 299.687 287.808 299.335 287.488C298.983 287.168 298.399 287.008 297.583 287.008H295.303C295.063 287.008 294.799 287.048 294.511 287.128C294.239 287.192 293.983 287.304 293.743 287.464C293.503 287.624 293.303 287.84 293.143 288.112C292.999 288.368 292.927 288.68 292.927 289.048V291.064C292.927 291.768 293.143 292.272 293.575 292.576C294.023 292.864 294.599 293.008 295.303 293.008ZM295.303 284.944H297.559C298.071 284.944 298.471 284.848 298.759 284.656C299.047 284.448 299.255 284.192 299.383 283.888C299.511 283.568 299.575 283.248 299.575 282.928V281.416C299.575 280.584 299.407 280.016 299.071 279.712C298.751 279.408 298.279 279.256 297.655 279.256H295.303C294.567 279.256 294.031 279.416 293.695 279.736C293.375 280.056 293.215 280.616 293.215 281.416V282.928C293.215 283.552 293.383 284.048 293.719 284.416C294.055 284.768 294.583 284.944 295.303 284.944ZM310.175 295.072C309.279 295.072 308.495 294.92 307.823 294.616C307.151 294.296 306.631 293.816 306.263 293.176C305.895 292.536 305.711 291.728 305.711 290.752V281.608C305.711 280.632 305.895 279.816 306.263 279.16C306.631 278.504 307.151 278.008 307.823 277.672C308.511 277.336 309.295 277.168 310.175 277.168H313.703C314.695 277.168 315.503 277.352 316.127 277.72C316.767 278.088 317.239 278.6 317.543 279.256C317.863 279.912 318.023 280.696 318.023 281.608V290.752C318.023 292.208 317.631 293.296 316.847 294.016C316.079 294.72 315.023 295.072 313.679 295.072H310.175ZM310.679 292.888H313.103C313.983 292.888 314.615 292.672 314.999 292.24C315.399 291.808 315.599 291.2 315.599 290.416V281.824C315.599 280.96 315.391 280.328 314.975 279.928C314.559 279.528 313.967 279.328 313.199 279.328H310.607C309.839 279.328 309.231 279.544 308.783 279.976C308.335 280.408 308.111 281.024 308.111 281.824V290.416C308.111 291.248 308.335 291.872 308.783 292.288C309.247 292.688 309.879 292.888 310.679 292.888Z" fill="#05C7C1" fill-opacity="0.5"/>
<rect x="80" y="137" width="30" height="16" rx="8" fill="#397D82"/>
<rect x="80" y="161" width="73" height="3" rx="1.5" fill="#397D82"/>
<rect x="80" y="168" width="34" height="3" rx="1.5" fill="#397D82"/>
<path d="M126 233.5H201.727L209.894 253.545L222.515 214.197L228.455 233.5H246.273" stroke="#05C7C1" stroke-width="2.9697"/>
<path d="M246.273 233.5H265.576L273.742 253.545L286.364 214.197L292.303 233.5H310.121" stroke="#05C7C1" stroke-width="2.9697"/>
<path d="M310.121 233.5H329.424L337.591 253.545L350.212 214.197L356.152 233.5H373.97" stroke="#05C7C1" stroke-width="2.9697"/>
<path d="M313 137H310C307.791 137 306 138.791 306 141V144" stroke="#397D82" stroke-width="2"/>
<path d="M313 171H310C307.791 171 306 169.209 306 167V164" stroke="#397D82" stroke-width="2"/>
<path d="M333 137H336C338.209 137 340 138.791 340 141V144" stroke="#397D82" stroke-width="2"/>
<path d="M333 171H336C338.209 171 340 169.209 340 167V164" stroke="#397D82" stroke-width="2"/>
<path d="M330.637 149.869C330.404 149.308 330.069 148.799 329.649 148.371C329.229 147.942 328.734 147.601 328.191 147.367C327.627 147.123 327.023 146.999 326.413 147C325.557 147 324.721 147.244 323.996 147.706C323.822 147.816 323.657 147.937 323.501 148.069C323.345 147.937 323.18 147.816 323.006 147.706C322.28 147.244 321.445 147 320.589 147C319.973 147 319.375 147.123 318.811 147.367C318.266 147.602 317.775 147.941 317.353 148.371C316.932 148.798 316.597 149.307 316.365 149.869C316.123 150.453 316 151.074 316 151.712C316 152.315 316.118 152.942 316.352 153.581C316.549 154.115 316.83 154.668 317.189 155.227C317.759 156.112 318.542 157.034 319.514 157.97C321.126 159.52 322.721 160.591 322.789 160.634L323.2 160.909C323.383 161.03 323.617 161.03 323.8 160.909L324.211 160.634C324.279 160.589 325.873 159.52 327.486 157.97C328.458 157.034 329.241 156.112 329.811 155.227C330.17 154.668 330.453 154.115 330.648 153.581C330.882 152.942 331 152.315 331 151.712C331.002 151.074 330.878 150.453 330.637 149.869Z" fill="#397D82"/>
<g filter="url(#filter1_d_2724_2025)">
<rect x="30" y="187" width="118" height="143" rx="16" fill="white"/>
</g>
<rect x="49" y="207" width="80" height="77" rx="12" fill="#79848A"/>
<rect x="62" y="214" width="54" height="63" rx="4" fill="#EDF1F1"/>
<rect x="78" y="223" width="30" height="10" rx="5" fill="#C8D7D7"/>
<rect x="85" y="240" width="23" height="10" rx="5" fill="#C8D7D7"/>
<rect x="85" y="257" width="23" height="10" rx="5" fill="#C8D7D7"/>
<rect x="65" y="217" width="5" height="25" rx="2.5" fill="#FF6060"/>
<rect x="65" y="242" width="5" height="9" rx="2.5" fill="#FAE94F"/>
<rect x="65" y="251" width="5" height="23" rx="2.5" fill="#0AE68E"/>
<circle cx="89" cy="305" r="11" fill="#79848A"/>
<circle cx="89" cy="305" r="4" fill="#EDF1F1"/>
<circle cx="168" cy="252" r="43" fill="url(#paint1_linear_2724_2025)"/>
<path fill-rule="evenodd" clip-rule="evenodd" d="M164.261 252.372C164.261 248.779 162.736 245.542 160.298 243.274L165.797 237.965C169.56 241.611 171.898 246.718 171.898 252.372C171.898 257.884 169.675 262.877 166.076 266.503L160.762 261.015C162.928 258.779 164.261 255.731 164.261 252.372ZM178.603 252.371C178.603 244.909 175.549 238.16 170.622 233.306L176.117 228C182.37 234.229 186.24 242.848 186.24 252.371C186.24 261.927 182.344 270.572 176.054 276.806L170.741 271.32C175.597 266.474 178.603 259.774 178.603 252.371ZM151.838 247.534C149.166 247.534 147 249.7 147 252.372C147 255.044 149.166 257.21 151.838 257.21C154.51 257.21 156.676 255.044 156.676 252.372C156.676 249.7 154.51 247.534 151.838 247.534Z" fill="white"/>
</g>
<defs>
<filter id="filter0_d_2724_2025" x="44" y="111" width="336" height="235" filterUnits="userSpaceOnUse" color-interpolation-filters="sRGB">
<feFlood flood-opacity="0" result="BackgroundImageFix"/>
<feColorMatrix in="SourceAlpha" type="matrix" values="0 0 0 0 0 0 0 0 0 0 0 0 0 0 0 0 0 0 127 0" result="hardAlpha"/>
<feOffset dy="10"/>
<feGaussianBlur stdDeviation="10"/>
<feComposite in2="hardAlpha" operator="out"/>
<feColorMatrix type="matrix" values="0 0 0 0 0.321181 0 0 0 0 0.580256 0 0 0 0 0.616667 0 0 0 0.4 0"/>
<feBlend mode="normal" in2="BackgroundImageFix" result="effect1_dropShadow_2724_2025"/>
<feBlend mode="normal" in="SourceGraphic" in2="effect1_dropShadow_2724_2025" result="shape"/>
</filter>
<filter id="filter1_d_2724_2025" x="10" y="177" width="158" height="183" filterUnits="userSpaceOnUse" color-interpolation-filters="sRGB">
<feFlood flood-opacity="0" result="BackgroundImageFix"/>
<feColorMatrix in="SourceAlpha" type="matrix" values="0 0 0 0 0 0 0 0 0 0 0 0 0 0 0 0 0 0 127 0" result="hardAlpha"/>
<feOffset dy="10"/>
<feGaussianBlur stdDeviation="10"/>
<feComposite in2="hardAlpha" operator="out"/>
<feColorMatrix type="matrix" values="0 0 0 0 0.12549 0 0 0 0 0.290196 0 0 0 0 0.301961 0 0 0 0.4 0"/>
<feBlend mode="normal" in2="BackgroundImageFix" result="effect1_dropShadow_2724_2025"/>
<feBlend mode="normal" in="SourceGraphic" in2="effect1_dropShadow_2724_2025" result="shape"/>
</filter>
<linearGradient id="paint0_linear_2724_2025" x1="30" y1="63.5936" x2="141.002" y2="63.5936" gradientUnits="userSpaceOnUse">
<stop stop-color="#00AFE6"/>
<stop offset="1" stop-color="#09E78B"/>
</linearGradient>
<linearGradient id="paint1_linear_2724_2025" x1="135" y1="227" x2="199.452" y2="280.455" gradientUnits="userSpaceOnUse">
<stop stop-color="#01B5DE"/>
<stop offset="1" stop-color="#09E294"/>
</linearGradient>
<clipPath id="clip0_2724_2025">
<rect width="360" height="360" rx="8" fill="white"/>
</clipPath>
<clipPath id="clip1_2724_2025">
<rect width="259" height="67" fill="white" transform="translate(30 30)"/>
</clipPath>
</defs>
</svg>
