<svg width="360" height="360" viewBox="0 0 360 360" fill="none" xmlns="http://www.w3.org/2000/svg">
<rect width="360" height="360" rx="8" fill="#FF5900"/>
<g clip-path="url(#clip0_30730_104673)">
<g filter="url(#filter0_d_30730_104673)">
<path d="M30 119C30 113.477 34.4772 109 40 109H320C325.523 109 330 113.477 330 119V319C330 324.523 325.523 329 320 329H40C34.4772 329 30 324.523 30 319V119Z" fill="white"/>
<path d="M30 119C30 113.477 34.4772 109 40 109H320C325.523 109 330 113.477 330 119V319C330 324.523 325.523 329 320 329H40C34.4772 329 30 324.523 30 319V119Z" fill="url(#paint0_linear_30730_104673)"/>
</g>
<path d="M30 119C30 113.477 34.4772 109 40 109H320C325.523 109 330 113.477 330 119V131.691H30V119Z" fill="#252525"/>
<circle cx="45" cy="121" r="3" fill="#C0C0C0"/>
<circle cx="56" cy="121" r="3" fill="#C0C0C0"/>
<circle cx="67" cy="121" r="3" fill="#C0C0C0"/>
<g clip-path="url(#clip1_30730_104673)">
<path d="M230 232H330V322C330 327.523 325.523 332 320 332H230V232Z" fill="white"/>
<rect x="244.5" y="268.5" width="71" height="22" rx="3.5" stroke="#FF5900" stroke-width="3"/>
<rect x="261" y="277" width="38" height="4" rx="2" fill="#FF5900"/>
<rect x="253" y="299" width="54" height="3" rx="1.5" fill="#C7C7C7"/>
<rect x="258" y="307" width="44" height="3" rx="1.5" fill="#C7C7C7"/>
</g>
<g clip-path="url(#clip2_30730_104673)">
<rect x="30" y="132" width="100" height="100" fill="#EBEBEB"/>
<rect x="43" y="145" width="46" height="7" rx="3.5" fill="#252525"/>
<rect x="43" y="156" width="68" height="4" rx="2" fill="#C7C7C7"/>
<circle cx="113" cy="217" r="34.5" stroke="#FF5900" stroke-width="15"/>
<circle cx="113" cy="217" r="32" stroke="#FF5900" stroke-width="2"/>
<circle cx="58.5" cy="187.5" r="11.5" stroke="#9FA29F" stroke-width="8"/>
<circle cx="58.5" cy="187.5" r="10.5" stroke="#CBCBCB" stroke-width="2"/>
</g>
<g clip-path="url(#clip3_30730_104673)">
<rect x="130" y="132" width="100" height="100" fill="white"/>
<rect x="143" y="145" width="68" height="7" rx="3.5" fill="#252525"/>
<rect x="143" y="156" width="39" height="4" rx="2" fill="#C7C7C7"/>
<rect x="201" y="207" width="10" height="33" fill="#252525"/>
<rect x="200" y="191" width="12" height="16" fill="#D9D9D9"/>
<path d="M206 191V183C206 179.686 203.314 177 200 177H193" stroke="#EAEAEA" stroke-width="6"/>
<rect x="190" y="173" width="3" height="8" fill="#D9D9D9"/>
<rect x="184" y="172" width="6" height="10" fill="#ACACAC"/>
<rect x="181" y="222" width="10" height="33" fill="#FF5900"/>
<rect x="180" y="206" width="12" height="16" fill="#D9D9D9"/>
<path d="M186 206V198C186 194.686 183.314 192 180 192H173" stroke="#EAEAEA" stroke-width="6"/>
<rect x="170" y="188" width="3" height="8" fill="#D9D9D9"/>
<rect x="164" y="187" width="6" height="10" fill="#ACACAC"/>
</g>
<g clip-path="url(#clip4_30730_104673)">
<rect x="130" y="232" width="100" height="100" fill="#EAEAEA"/>
<rect x="143" y="245" width="39" height="7" rx="3.5" fill="#252525"/>
<rect x="143" y="256" width="68" height="4" rx="2" fill="#C7C7C7"/>
<g clip-path="url(#clip5_30730_104673)">
<rect x="165" y="273" width="49" height="59" fill="#252525"/>
<path d="M170 284V278.865L178 271.162V265" stroke="#464646" stroke-width="2"/>
<path d="M210 284V278.865L202 271.162V265" stroke="#464646" stroke-width="2"/>
<path d="M170 301V295.865L178 288.162V282" stroke="#464646" stroke-width="2"/>
<path d="M182 288V282.865L190 275.162V269" stroke="#464646" stroke-width="2"/>
<path d="M210 301V295.865L202 288.162V282" stroke="#464646" stroke-width="2"/>
<path d="M198 288V282.865L190 275.162V269" stroke="#464646" stroke-width="2"/>
<path d="M170 318V312.865L178 305.162V299" stroke="#464646" stroke-width="2"/>
<path d="M182 305V299.865L190 292.162V286" stroke="#464646" stroke-width="2"/>
<path d="M210 318V312.865L202 305.162V299" stroke="#464646" stroke-width="2"/>
<path d="M198 305V299.865L190 292.162V286" stroke="#464646" stroke-width="2"/>
<path d="M170 335V329.865L178 322.162V316" stroke="#464646" stroke-width="2"/>
<path d="M182 322V316.865L190 309.162V303" stroke="#464646" stroke-width="2"/>
<path d="M210 335V329.865L202 322.162V316" stroke="#464646" stroke-width="2"/>
<path d="M198 322V316.865L190 309.162V303" stroke="#464646" stroke-width="2"/>
<path d="M182 339V333.865L190 326.162V320" stroke="#464646" stroke-width="2"/>
<path d="M198 339V333.865L190 326.162V320" stroke="#464646" stroke-width="2"/>
</g>
</g>
<g clip-path="url(#clip6_30730_104673)">
<rect x="230" y="132" width="100" height="100" fill="#D9D9D9"/>
<rect x="243" y="145" width="54" height="7" rx="3.5" fill="#252525"/>
<rect x="243" y="156" width="39" height="4" rx="2" fill="#C7C7C7"/>
<path d="M254 170C255.657 170 257 171.343 257 173C257 174.657 255.657 176 254 176C252.343 176 251 174.657 251 173C251 171.343 252.343 170 254 170Z" stroke="#252525" stroke-width="2"/>
<circle cx="254" cy="195" r="3" stroke="#252525" stroke-width="2"/>
<circle cx="254" cy="217" r="3" stroke="#252525" stroke-width="2"/>
<circle cx="276" cy="173" r="3" stroke="#252525" stroke-width="2"/>
<circle cx="276" cy="195" r="3" stroke="#252525" stroke-width="2"/>
<circle cx="276" cy="217" r="3" stroke="#252525" stroke-width="2"/>
<circle cx="298" cy="173" r="3" stroke="#252525" stroke-width="2"/>
<circle cx="298" cy="195" r="3" stroke="#252525" stroke-width="2"/>
<circle cx="298" cy="217" r="3" stroke="#252525" stroke-width="2"/>
<circle cx="320" cy="173" r="3" stroke="#252525" stroke-width="2"/>
<circle cx="320" cy="195" r="3" stroke="#252525" stroke-width="2"/>
<circle cx="320" cy="217" r="3" stroke="#252525" stroke-width="2"/>
<path d="M271 173C271 175.761 273.239 178 276 178V190C273.239 190 271 192.239 271 195H259C259 192.239 256.761 190 254 190V178C256.761 178 259 175.761 259 173H271ZM265 179C262.239 179 260 181.239 260 184C260 186.761 262.239 189 265 189C267.761 189 270 186.761 270 184C270 181.239 267.761 179 265 179Z" fill="#252525"/>
<path d="M271 195C271 197.761 273.239 200 276 200V212C273.239 212 271 214.239 271 217H259C259 214.239 256.761 212 254 212V200C256.761 200 259 197.761 259 195H271ZM265 201C262.239 201 260 203.239 260 206C260 208.761 262.239 211 265 211C267.761 211 270 208.761 270 206C270 203.239 267.761 201 265 201Z" fill="#444444"/>
<path d="M271 217C271 219.761 273.239 222 276 222V234C273.239 234 271 236.239 271 239H259C259 236.239 256.761 234 254 234V222C256.761 222 259 219.761 259 217H271ZM265 223C262.239 223 260 225.239 260 228C260 230.761 262.239 233 265 233C267.761 233 270 230.761 270 228C270 225.239 267.761 223 265 223Z" fill="#252525"/>
<path d="M293 173C293 175.761 295.239 178 298 178V190C295.239 190 293 192.239 293 195H281C281 192.239 278.761 190 276 190V178C278.761 178 281 175.761 281 173H293ZM287 179C284.239 179 282 181.239 282 184C282 186.761 284.239 189 287 189C289.761 189 292 186.761 292 184C292 181.239 289.761 179 287 179Z" fill="#444444"/>
<path d="M293 195C293 197.761 295.239 200 298 200V212C295.239 212 293 214.239 293 217H281C281 214.239 278.761 212 276 212V200C278.761 200 281 197.761 281 195H293ZM287 201C284.239 201 282 203.239 282 206C282 208.761 284.239 211 287 211C289.761 211 292 208.761 292 206C292 203.239 289.761 201 287 201Z" fill="#252525"/>
<path d="M293 217C293 219.761 295.239 222 298 222V234C295.239 234 293 236.239 293 239H281C281 236.239 278.761 234 276 234V222C278.761 222 281 219.761 281 217H293ZM287 223C284.239 223 282 225.239 282 228C282 230.761 284.239 233 287 233C289.761 233 292 230.761 292 228C292 225.239 289.761 223 287 223Z" fill="#444444"/>
<path d="M315 173C315 175.761 317.239 178 320 178V190C317.239 190 315 192.239 315 195H303C303 192.239 300.761 190 298 190V178C300.761 178 303 175.761 303 173H315ZM309 179C306.239 179 304 181.239 304 184C304 186.761 306.239 189 309 189C311.761 189 314 186.761 314 184C314 181.239 311.761 179 309 179Z" fill="#252525"/>
<path d="M315 195C315 197.761 317.239 200 320 200V212C317.239 212 315 214.239 315 217H303C303 214.239 300.761 212 298 212V200C300.761 200 303 197.761 303 195H315ZM309 201C306.239 201 304 203.239 304 206C304 208.761 306.239 211 309 211C311.761 211 314 208.761 314 206C314 203.239 311.761 201 309 201Z" fill="#444444"/>
<path d="M315 217C315 219.761 317.239 222 320 222V234C317.239 234 315 236.239 315 239H303C303 236.239 300.761 234 298 234V222C300.761 222 303 219.761 303 217H315ZM309 223C306.239 223 304 225.239 304 228C304 230.761 306.239 233 309 233C311.761 233 314 230.761 314 228C314 225.239 311.761 223 309 223Z" fill="#252525"/>
<path d="M337 173C337 175.761 339.239 178 342 178V190C339.239 190 337 192.239 337 195H325C325 192.239 322.761 190 320 190V178C322.761 178 325 175.761 325 173H337ZM331 179C328.239 179 326 181.239 326 184C326 186.761 328.239 189 331 189C333.761 189 336 186.761 336 184C336 181.239 333.761 179 331 179Z" fill="#444444"/>
<path d="M337 195C337 197.761 339.239 200 342 200V212C339.239 212 337 214.239 337 217H325C325 214.239 322.761 212 320 212V200C322.761 200 325 197.761 325 195H337ZM331 201C328.239 201 326 203.239 326 206C326 208.761 328.239 211 331 211C333.761 211 336 208.761 336 206C336 203.239 333.761 201 331 201Z" fill="#252525"/>
<path d="M337 217C337 219.761 339.239 222 342 222V234C339.239 234 337 236.239 337 239H325C325 236.239 322.761 234 320 234V222C322.761 222 325 219.761 325 217H337ZM331 223C328.239 223 326 225.239 326 228C326 230.761 328.239 233 331 233C333.761 233 336 230.761 336 228C336 225.239 333.761 223 331 223Z" fill="#444444"/>
</g>
<g clip-path="url(#clip7_30730_104673)">
<path d="M30 232H130V332H40C34.4772 332 30 327.523 30 322V232Z" fill="#D9D9D9"/>
<rect x="43" y="245" width="61" height="7" rx="3.5" fill="#252525"/>
<rect x="43" y="256" width="27" height="4" rx="2" fill="#C7C7C7"/>
<path d="M101.542 300.058L115.449 292.029L122.327 303.942L108.42 311.971L122.327 320.001L115.449 331.915L101.542 323.885V339.944H87.7861V323.885L73.8779 331.915L67 320.001L80.9062 311.972L67 303.942L73.8779 292.029L87.7861 300.059V284H101.542V300.058Z" fill="#252525"/>
<circle cx="55" cy="284" r="8" stroke="#FF5900" stroke-width="8"/>
<circle cx="55" cy="284" r="5" stroke="#EEEEEE" stroke-width="2"/>
</g>
</g>
<g clip-path="url(#clip8_30730_104673)">
<path d="M96.8539 87.8652C84.347 63.3773 77.3265 46.8981 71.4955 36.739C65.6646 26.5799 59.9048 29.0092 55.4682 36.739C51.0315 44.4688 42.4093 63.5857 30 87.8652L63.7014 54.4067L96.8539 87.8652Z" fill="white"/>
<path d="M243.967 43.7619V37.7498C243.967 37.1839 244.322 36.6181 244.891 36.4766L245.104 36.4059L248.801 35.2742C249.085 35.2035 249.37 35.1327 249.654 35.062C250.436 34.9913 251.076 35.6279 251.076 36.4059V43.8326H258.398C259.109 43.8326 259.748 44.4692 259.748 45.1765V48.3594C259.748 49.0667 259.109 49.7033 258.398 49.7033H251.076C251.076 55.0788 251.076 60.525 251.076 65.9006C251.076 66.4664 251.147 67.103 251.289 67.7396C251.929 70.2151 253.422 70.8517 255.412 70.6395C255.838 70.5688 256.265 70.4981 256.692 70.4273C257.402 70.2859 258.184 70.4981 258.469 71.2761L259.464 74.1761C259.677 74.7419 259.535 75.3078 259.109 75.6614C258.966 75.8029 258.753 75.8736 258.611 75.9443C258.113 76.1565 257.616 76.298 257.047 76.4394C254.203 77.1468 251.289 76.9346 248.73 75.7321C248.445 75.5907 248.09 75.3785 247.806 75.237C247.521 75.0248 247.237 74.8126 246.953 74.6004C245.673 73.5395 244.962 72.2663 244.536 70.9225C244.109 69.6493 244.038 68.3054 244.038 67.1737C244.038 61.3738 244.038 55.5739 244.038 49.8447H238.564C237.853 49.8447 237.214 49.2081 237.214 48.5008V45.2472C237.214 44.5399 237.853 43.9034 238.564 43.9034H243.967V43.7619ZM111.46 74.8126V45.1058C111.46 44.3277 111.958 43.7619 112.811 43.7619C123.332 43.7619 134.777 43.7619 145.013 43.7619C149.705 43.7619 153.402 46.2375 155.037 50.552C155.676 52.3203 156.032 54.3008 156.032 56.4227V74.8126C156.032 75.52 155.463 76.1565 154.681 76.1565H150.416C149.705 76.1565 149.065 75.5907 149.065 74.8126V62.5055C149.065 60.9494 149.065 59.3934 149.065 57.8373C149.065 54.0886 148.141 52.1081 146.577 51.1886C144.942 50.1984 142.383 50.0569 139.397 50.1277C138.615 50.1277 137.762 50.1277 136.98 50.1277V74.8834C136.98 75.5907 136.412 76.2273 135.63 76.2273H131.293C130.582 76.2273 129.943 75.6614 129.943 74.8834V50.1277C126.175 50.1277 122.479 50.1277 118.711 50.1277V74.8834C118.711 75.5907 118.071 76.2273 117.36 76.2273H112.74C111.958 76.2273 111.46 75.5907 111.46 74.8126ZM313.988 52.2496C310.363 56.1398 310.007 62.7177 313.277 66.8908C313.561 67.3152 313.917 67.6688 314.272 68.0225C317.685 71.2054 322.945 71.1346 327.281 70.1444C327.992 70.003 328.703 70.3566 328.916 71.0639L329.912 74.0346C330.196 74.8126 329.769 75.5907 328.916 75.8736C323.94 77.1468 318.466 77.1467 313.633 75.1663C310.078 73.6809 307.235 71.2761 305.529 68.164C301.832 61.586 303.112 52.4618 308.941 47.5813C311.216 45.6716 313.988 44.3985 317.116 43.7619C321.097 42.9839 325.007 43.3375 328.916 44.3985C329.698 44.6107 330.125 45.4594 329.84 46.2375L328.845 49.0667C328.561 49.9155 327.85 50.1984 327.068 49.9862C322.661 48.996 317.4 48.6423 313.988 52.2496ZM195.414 58.7568C195.414 59.1104 195.414 59.5348 195.414 59.8885C195.414 60.3836 195.485 60.9494 195.059 61.3738C194.845 61.6567 194.419 61.8689 194.064 61.8689H173.093C173.164 64.7689 174.728 67.5274 177.5 69.0835C181.268 71.2054 186.742 70.4981 190.865 68.942C191.575 68.6591 192.429 69.0127 192.642 69.7908L193.637 72.62C193.85 73.2566 193.637 74.0346 192.926 74.3175C189.23 76.0858 184.68 77.0053 180.415 76.6516C175.083 76.2272 170.32 73.7517 167.832 69.1542C166.268 66.2542 165.629 62.9299 165.629 59.6763C165.7 52.9569 168.899 46.4497 175.439 44.1863C179.064 42.9131 183.329 42.9131 186.884 44.3277C189.087 45.1765 190.865 46.5911 192.215 48.3594C194.419 51.3301 195.201 55.0788 195.414 58.7568ZM173.164 56.2812H188.305C188.092 52.2496 184.893 49.0667 180.841 49.0667C176.505 49.1374 173.804 52.3203 173.164 56.2812ZM296.003 58.7568C296.003 59.1104 296.003 59.5348 296.003 59.8885C296.003 60.3836 296.074 60.9494 295.647 61.3738C295.434 61.6567 295.008 61.8689 294.652 61.8689H273.681C273.753 64.7689 275.316 67.5274 278.089 69.0835C281.856 71.2054 287.33 70.4981 291.453 68.942C292.164 68.6591 293.017 69.0127 293.23 69.7908L294.226 72.62C294.439 73.2566 294.226 74.0346 293.515 74.3175C289.818 76.0858 285.269 77.0053 281.003 76.6516C275.672 76.2272 270.909 73.7517 268.421 69.1542C266.857 66.325 266.217 62.9299 266.217 59.6763C266.288 52.9569 269.487 46.4497 276.027 44.1863C279.653 42.9131 283.918 42.9131 287.472 44.3277C289.676 45.1765 291.453 46.5911 292.804 48.3594C295.079 51.3301 295.861 55.0788 296.003 58.7568ZM273.752 56.2812H288.894C288.681 52.2496 285.482 49.0667 281.43 49.0667C277.094 49.1374 274.463 52.3203 273.752 56.2812ZM218.233 43.196C219.797 43.196 221.29 43.3375 222.712 43.6912C223.778 43.9741 224.702 44.257 225.626 44.7521C226.55 45.2472 227.332 45.8131 228.043 46.5204C229.536 48.0057 230.318 49.7033 230.745 51.4008C231.171 53.0983 231.171 54.8666 231.171 56.6349V74.8834C231.171 75.7321 230.46 76.2273 229.678 76.2273H226.124C225.342 76.2273 224.773 75.5907 224.773 74.8834V73.3273C223.28 74.5297 222.001 75.3078 220.579 75.8736C217.025 77.2882 212.475 77.076 208.992 75.52C208.636 75.3785 208.352 75.237 207.997 75.0248C205.011 73.3273 203.376 70.2859 203.376 66.8201C203.376 61.0202 207.499 57.6251 212.617 56.4934C214.537 56.069 217.167 55.7861 220.792 55.7861C221.574 55.7861 222.641 55.7861 223.636 55.8568C223.778 55.8568 223.92 55.8568 224.062 55.8568C224.062 55.5032 224.062 55.1495 224.062 54.7959C224.062 53.1691 223.707 51.7545 222.427 50.6228C220.792 49.2081 218.162 48.8545 216.03 49.1374C213.897 49.3496 211.693 50.0569 209.845 50.7642C209.561 50.9057 209.347 50.9057 208.992 50.9057C208.708 50.835 208.423 50.6935 208.21 50.4813C208.068 50.3398 207.997 50.1276 207.854 49.9155L207.001 47.3692C206.788 46.874 206.859 46.2375 207.286 45.8838C207.428 45.7423 207.641 45.6009 207.854 45.5302C211.196 44.0448 214.608 43.196 218.233 43.196ZM223.707 65.5469C223.991 64.8396 224.133 64.1323 224.133 63.425C224.133 62.7177 224.133 62.0104 224.133 61.3031C222.498 61.2323 220.792 61.1616 219.157 61.2323C216.669 61.3738 213.399 61.7275 211.764 63.8494C210.414 65.6177 210.556 68.2347 212.333 69.6493C213.541 70.6395 215.105 70.9225 216.669 70.781C217.949 70.6395 219.228 70.2151 220.366 69.5078C221.859 68.5883 223.138 67.1737 223.707 65.5469Z" fill="white"/>
</g>
<defs>
<filter id="filter0_d_30730_104673" x="0" y="89" width="360" height="280" filterUnits="userSpaceOnUse" color-interpolation-filters="sRGB">
<feFlood flood-opacity="0" result="BackgroundImageFix"/>
<feColorMatrix in="SourceAlpha" type="matrix" values="0 0 0 0 0 0 0 0 0 0 0 0 0 0 0 0 0 0 127 0" result="hardAlpha"/>
<feOffset dy="10"/>
<feGaussianBlur stdDeviation="15"/>
<feComposite in2="hardAlpha" operator="out"/>
<feColorMatrix type="matrix" values="0 0 0 0 1 0 0 0 0 0.34902 0 0 0 0 0 0 0 0 1 0"/>
<feBlend mode="normal" in2="BackgroundImageFix" result="effect1_dropShadow_30730_104673"/>
<feBlend mode="normal" in="SourceGraphic" in2="effect1_dropShadow_30730_104673" result="shape"/>
</filter>
<linearGradient id="paint0_linear_30730_104673" x1="130" y1="329" x2="130" y2="219" gradientUnits="userSpaceOnUse">
<stop stop-color="#F5F5F5"/>
<stop offset="1" stop-color="#F5F5F5" stop-opacity="0"/>
</linearGradient>
<clipPath id="clip0_30730_104673">
<rect x="30" y="109" width="300" height="220" rx="20" fill="white"/>
</clipPath>
<clipPath id="clip1_30730_104673">
<rect width="100" height="100" fill="white" transform="translate(230 232)"/>
</clipPath>
<clipPath id="clip2_30730_104673">
<rect width="100" height="100" fill="white" transform="translate(30 132)"/>
</clipPath>
<clipPath id="clip3_30730_104673">
<rect width="100" height="100" fill="white" transform="translate(130 132)"/>
</clipPath>
<clipPath id="clip4_30730_104673">
<rect width="100" height="100" fill="white" transform="translate(130 232)"/>
</clipPath>
<clipPath id="clip5_30730_104673">
<rect width="49" height="59" fill="white" transform="translate(165 273)"/>
</clipPath>
<clipPath id="clip6_30730_104673">
<rect width="100" height="100" fill="white" transform="translate(230 132)"/>
</clipPath>
<clipPath id="clip7_30730_104673">
<rect width="100" height="100" fill="white" transform="translate(30 232)"/>
</clipPath>
<clipPath id="clip8_30730_104673">
<rect width="300" height="56.1798" fill="white" transform="translate(30 30)"/>
</clipPath>
</defs>
</svg>
