<svg width="360" height="360" viewBox="0 0 360 360" fill="none" xmlns="http://www.w3.org/2000/svg">
<g clip-path="url(#clip0_2365_87195)">
<rect width="360" height="360" rx="8" fill="#E8F2F4"/>
<g clip-path="url(#clip1_2365_87195)">
<path fill-rule="evenodd" clip-rule="evenodd" d="M30 77.0587V41.6861H38.3704L47.6481 56.643L56.9259 41.6842H65.2963V77.0587H57.5815V53.9637L47.6481 69.0744H47.4444L37.6111 54.1156V77.0587H30ZM147.58 41.6861C158.85 41.6861 166.696 49.0589 166.959 58.7665L166.967 59.3724C166.967 69.3264 159.044 77.0587 147.578 77.0587H133.352L133.35 67.492L141.754 67.6143V70.3196H147.817C154.085 70.3196 158.361 66.1134 158.557 59.9209L158.563 59.3724C158.563 52.9371 154.233 48.4215 147.817 48.4215H141.756V51.5882C141.096 51.4647 140.427 51.3977 139.756 51.3881L133.35 51.2954V41.6861H147.58ZM82.1037 41.6861V77.0587H73.7V41.6861H82.1037ZM108.191 41.6861C112.641 41.6861 116.091 42.9461 118.391 45.2715C120.341 47.243 121.391 50.0225 121.391 53.3578V53.4597C121.391 59.1686 118.341 62.7577 113.891 64.4254L122.441 77.0587H113.441L105.941 65.7373H99.8889V77.0587H92.1889V41.6861H108.189H108.191ZM108.1 48.4215H100.593V58.5293H108.246C111.928 58.5293 114.037 56.5189 114.037 53.5505V53.4523C114.037 50.1355 111.78 48.4234 108.1 48.4234V48.4215ZM173.689 77.0587V41.6861H200.33V48.6068H181.407V55.7833H198.056V62.7077H181.407V70.1361H200.58V77.0587H173.689ZM220.943 77.0587C215.474 77.0587 209.956 75.1539 205.624 71.2942L210.317 65.6835C213.567 68.361 216.97 70.0583 221.096 70.0583C224.346 70.0583 226.306 68.7724 226.306 66.6619V66.5581C226.306 64.5514 225.069 63.5211 219.033 61.9776C211.761 60.1247 207.069 58.118 207.069 50.9638V50.8581C207.069 44.321 212.328 39.998 219.704 39.998C224.965 39.998 229.452 41.6453 233.113 44.5785L228.987 50.5487C225.791 48.3363 222.644 46.9985 219.602 46.9985C216.557 46.9985 214.959 48.3882 214.959 50.1373V50.2411C214.959 52.6092 216.506 53.38 222.746 54.9754C230.07 56.8802 234.196 59.5058 234.196 65.7854V65.8873C234.196 73.0415 228.73 77.0569 220.943 77.0569V77.0587ZM240.92 77.0587V41.6861H249.324V77.0587H240.92ZM274.593 77.0587C263.606 77.0587 256.046 69.2263 256.046 58.6312V58.5293C256.046 48.3437 263.857 39.9999 274.543 39.9999C280.893 39.9999 284.722 41.7417 288.402 44.9139L283.513 50.9026C280.791 48.5994 278.372 47.269 274.291 47.269C268.646 47.269 264.161 52.3349 264.161 58.4274V58.5293C264.161 65.0813 268.596 69.8934 274.846 69.8934C277.667 69.8934 280.187 69.1763 282.152 67.744V62.6243H274.341V55.8166H289.661V71.3776C286.031 74.4998 281.044 77.0587 274.593 77.0587ZM298.065 77.0587V41.6861H305.356L322.196 63.4655V41.6842H330V77.0587H323.274L305.87 54.5714V77.0587H298.065Z" fill="url(#paint0_linear_2365_87195)"/>
<path fill-rule="evenodd" clip-rule="evenodd" d="M129.515 61.5588C130.793 62.7391 132.454 63.4099 134.17 63.4303L147.593 63.5896C147.557 63.071 147.477 62.5564 147.352 62.0517L147.23 61.5885C146.043 57.9141 142.648 55.3848 138.843 55.3403L127.324 55.2051C127.129 56.363 127.227 57.5514 127.61 58.6615C127.992 59.7715 128.647 60.7677 129.515 61.5588Z" fill="#4981DB"/>
</g>
<path opacity="0.6" fill-rule="evenodd" clip-rule="evenodd" d="M145.047 342.686C158.473 355.074 175.928 362.114 193.965 362.328L335 364C334.628 358.556 333.782 353.155 332.47 347.859L331.186 342.997C318.713 304.432 283.046 277.886 243.059 277.42L122.028 276C119.975 288.153 121.007 300.626 125.029 312.276C129.051 323.927 135.934 334.383 145.047 342.686Z" fill="white"/>
<g filter="url(#filter0_d_2365_87195)">
<rect x="-13" y="125" width="262" height="174" rx="12" fill="#2A8084"/>
</g>
<circle cx="37" cy="170" r="20" fill="#B1EDAF"/>
<rect x="17" y="265" width="96" height="3" rx="1.5" fill="#3A9195"/>
<rect x="17" y="272" width="45" height="3" rx="1.5" fill="#3A9195"/>
<rect x="17" y="234" width="44" height="16" rx="8" fill="#4EB2B7"/>
<rect x="69" y="234" width="44" height="16" rx="8" fill="#4EB2B7"/>
<rect x="121" y="234" width="44" height="16" rx="8" fill="#4EB2B7"/>
<rect x="173" y="234" width="44" height="16" rx="8" fill="#4EB2B7"/>
<path d="M203.557 151.777C202.622 152.712 202.53 154.197 203.373 155.205C210.413 163.767 210.413 176.197 203.392 184.777C202.548 185.803 202.622 187.307 203.557 188.242C204.638 189.323 206.435 189.25 207.407 188.058C215.968 177.59 215.968 162.447 207.407 151.96C206.453 150.768 204.657 150.677 203.557 151.777ZM189.33 166.003L186.635 168.698C185.92 169.413 185.92 170.568 186.635 171.283L189.33 173.978C190.192 174.84 191.677 174.657 192.245 173.557C192.814 172.448 193.111 171.219 193.111 169.972C193.111 168.726 192.814 167.497 192.245 166.388C191.677 165.343 190.192 165.142 189.33 166.003ZM196.168 159.165C195.27 160.063 195.178 161.475 195.93 162.52C197.478 164.707 198.309 167.321 198.309 170C198.309 172.679 197.478 175.293 195.93 177.48C195.197 178.525 195.27 179.937 196.168 180.835L196.187 180.853C197.287 181.953 199.157 181.88 200.055 180.615C204.62 174.308 204.62 165.71 200.055 159.385C199.138 158.12 197.287 158.047 196.168 159.165Z" fill="#C7FDFF"/>
<path d="M249 168C263.772 168 278.262 172.039 290.903 179.681C303.545 187.323 313.856 198.276 320.721 211.355C327.586 224.435 330.744 239.142 329.852 253.887C328.961 268.632 324.055 282.852 315.664 295.009C307.274 307.167 295.719 316.798 282.249 322.861C268.779 328.925 253.908 331.19 239.243 329.41C224.579 327.631 210.681 321.876 199.052 312.767C187.423 303.658 178.507 291.543 173.267 277.732L189.86 271.437C193.951 282.222 200.914 291.683 209.995 298.796C219.076 305.909 229.93 310.403 241.381 311.793C252.832 313.182 264.446 311.414 274.964 306.679C285.483 301.944 294.506 294.423 301.059 284.929C307.611 275.435 311.442 264.331 312.138 252.816C312.834 241.302 310.368 229.817 305.007 219.603C299.646 209.389 291.594 200.836 281.723 194.868C271.851 188.901 260.535 185.747 249 185.747L249 168Z" fill="#87F5AB"/>
<path d="M249 168C263.772 168 278.262 172.039 290.903 179.681C303.545 187.323 313.856 198.276 320.721 211.355C327.586 224.435 330.744 239.142 329.852 253.887C328.961 268.632 324.055 282.852 315.664 295.009C307.274 307.167 295.719 316.798 282.249 322.861C268.779 328.925 253.908 331.19 239.243 329.41C224.579 327.631 210.681 321.876 199.052 312.767C187.423 303.658 178.507 291.543 173.267 277.732L189.86 271.437C193.951 282.222 200.914 291.683 209.995 298.796C219.076 305.909 229.93 310.403 241.381 311.793C252.832 313.182 264.446 311.414 274.964 306.679C285.483 301.944 294.506 294.423 301.059 284.929C307.611 275.435 311.442 264.331 312.138 252.816C312.834 241.302 310.368 229.817 305.007 219.603C299.646 209.389 291.594 200.836 281.723 194.868C271.851 188.901 260.535 185.747 249 185.747L249 168Z" fill="url(#paint1_linear_2365_87195)" fill-opacity="0.6"/>
<path d="M249 168C263.772 168 278.262 172.039 290.903 179.681C303.545 187.323 313.856 198.276 320.721 211.355C327.586 224.435 330.744 239.142 329.852 253.887C328.961 268.632 324.055 282.852 315.664 295.009C307.274 307.167 295.719 316.798 282.249 322.861C268.779 328.925 253.908 331.19 239.243 329.41C224.579 327.631 210.681 321.876 199.052 312.767C187.423 303.658 178.507 291.543 173.267 277.732L189.86 271.437C193.951 282.222 200.914 291.683 209.995 298.796C219.076 305.909 229.93 310.403 241.381 311.793C252.832 313.182 264.446 311.414 274.964 306.679C285.483 301.944 294.506 294.423 301.059 284.929C307.611 275.435 311.442 264.331 312.138 252.816C312.834 241.302 310.368 229.817 305.007 219.603C299.646 209.389 291.594 200.836 281.723 194.868C271.851 188.901 260.535 185.747 249 185.747L249 168Z" fill="url(#paint2_linear_2365_87195)"/>
<path d="M175.628 251.997L208.92 274.171L163.663 290.165L175.628 251.997Z" fill="#87F5AB"/>
<g filter="url(#filter1_d_2365_87195)">
<circle cx="249" cy="249" r="40" fill="white"/>
</g>
<path d="M229 243L248.833 261.5L290.5 221" stroke="#4CC273" stroke-width="14"/>
</g>
<defs>
<filter id="filter0_d_2365_87195" x="-33" y="115" width="302" height="214" filterUnits="userSpaceOnUse" color-interpolation-filters="sRGB">
<feFlood flood-opacity="0" result="BackgroundImageFix"/>
<feColorMatrix in="SourceAlpha" type="matrix" values="0 0 0 0 0 0 0 0 0 0 0 0 0 0 0 0 0 0 127 0" result="hardAlpha"/>
<feOffset dy="10"/>
<feGaussianBlur stdDeviation="10"/>
<feComposite in2="hardAlpha" operator="out"/>
<feColorMatrix type="matrix" values="0 0 0 0 0.743056 0 0 0 0 0.818287 0 0 0 0 0.833333 0 0 0 1 0"/>
<feBlend mode="normal" in2="BackgroundImageFix" result="effect1_dropShadow_2365_87195"/>
<feBlend mode="normal" in="SourceGraphic" in2="effect1_dropShadow_2365_87195" result="shape"/>
</filter>
<filter id="filter1_d_2365_87195" x="189" y="199" width="120" height="120" filterUnits="userSpaceOnUse" color-interpolation-filters="sRGB">
<feFlood flood-opacity="0" result="BackgroundImageFix"/>
<feColorMatrix in="SourceAlpha" type="matrix" values="0 0 0 0 0 0 0 0 0 0 0 0 0 0 0 0 0 0 127 0" result="hardAlpha"/>
<feOffset dy="10"/>
<feGaussianBlur stdDeviation="10"/>
<feComposite in2="hardAlpha" operator="out"/>
<feColorMatrix type="matrix" values="0 0 0 0 0 0 0 0 0 0 0 0 0 0 0 0 0 0 0.1 0"/>
<feBlend mode="normal" in2="BackgroundImageFix" result="effect1_dropShadow_2365_87195"/>
<feBlend mode="normal" in="SourceGraphic" in2="effect1_dropShadow_2365_87195" result="shape"/>
</filter>
<linearGradient id="paint0_linear_2365_87195" x1="30" y1="58.246" x2="325.571" y2="94.7092" gradientUnits="userSpaceOnUse">
<stop stop-color="#4F9D3D"/>
<stop offset="0.47131" stop-color="#45B689"/>
<stop offset="1" stop-color="#6095F0"/>
</linearGradient>
<linearGradient id="paint1_linear_2365_87195" x1="249" y1="181" x2="307" y2="180" gradientUnits="userSpaceOnUse">
<stop stop-color="#2C7A7D"/>
<stop offset="1" stop-color="#2C7A7D" stop-opacity="0"/>
</linearGradient>
<linearGradient id="paint2_linear_2365_87195" x1="227" y1="324" x2="296" y2="235" gradientUnits="userSpaceOnUse">
<stop stop-color="#87F5AB"/>
<stop offset="1" stop-color="#87F5AB" stop-opacity="0"/>
</linearGradient>
<clipPath id="clip0_2365_87195">
<rect width="360" height="360" rx="8" fill="white"/>
</clipPath>
<clipPath id="clip1_2365_87195">
<rect width="300" height="37.0588" fill="white" transform="translate(30 40)"/>
</clipPath>
</defs>
</svg>
