<svg width="360" height="360" viewBox="0 0 360 360" fill="none" xmlns="http://www.w3.org/2000/svg">
<rect width="360" height="360" rx="8" fill="#E31E24"/>
<g filter="url(#filter0_d_4251_22906)">
<path d="M57 100C57 94.4772 61.4772 90 67 90H293C298.523 90 303 94.4772 303 100V305C303 310.523 298.523 315 293 315H67C61.4772 315 57 310.523 57 305V100Z" fill="white"/>
<path d="M57 100C57 94.4772 61.4772 90 67 90H293C298.523 90 303 94.4772 303 100V305C303 310.523 298.523 315 293 315H67C61.4772 315 57 310.523 57 305V100Z" fill="url(#paint0_linear_4251_22906)"/>
</g>
<path d="M57 100C57 94.4772 61.4772 90 67 90H293C298.523 90 303 94.4772 303 100V111H57V100Z" fill="#2A1C1A"/>
<rect x="155" y="123" width="59" height="10" rx="5" fill="#E6A442"/>
<rect x="264" y="123" width="25" height="10" rx="5" fill="#4C4039"/>
<rect x="58" y="145" width="244" height="1" fill="#E8E8E8"/>
<rect x="140" y="152" width="25" height="6" rx="3" fill="#BFB4AD"/>
<rect x="172" y="152" width="42" height="6" rx="3" fill="#BFB4AD"/>
<rect x="221" y="152" width="31" height="6" rx="3" fill="#BFB4AD"/>
<rect x="259" y="152" width="18" height="6" rx="3" fill="#BFB4AD"/>
<rect x="69" y="166" width="149" height="58" rx="4" fill="#4C4039"/>
<rect x="69" y="232" width="65" height="34" rx="4" fill="#E2E2E2"/>
<rect x="136" y="232" width="65" height="34" rx="4" fill="#E2E2E2"/>
<rect x="203" y="232" width="65" height="34" rx="4" fill="#E2E2E2"/>
<rect x="69" y="268" width="65" height="34" rx="4" fill="#E2E2E2"/>
<rect x="136" y="268" width="65" height="34" rx="4" fill="#E2E2E2"/>
<rect x="203" y="268" width="65" height="34" rx="4" fill="#E2E2E2"/>
<rect x="77" y="240" width="42" height="6" rx="3" fill="#B6B6B6"/>
<rect x="144" y="274" width="21" height="6" rx="3" fill="#B6B6B6"/>
<rect x="211" y="274" width="21" height="6" rx="3" fill="#B6B6B6"/>
<rect x="77" y="274" width="31" height="6" rx="3" fill="#B6B6B6"/>
<rect x="144" y="240" width="40" height="6" rx="3" fill="#B6B6B6"/>
<rect x="77" y="283" width="17" height="6" rx="3" fill="#B6B6B6"/>
<rect x="144" y="249" width="32" height="6" rx="3" fill="#B6B6B6"/>
<g clip-path="url(#clip0_4251_22906)">
<path d="M172.733 101.5C172.733 140.833 140.831 172.733 101.5 172.733C62.1678 172.733 30.2673 140.833 30.2673 101.5C30.2673 62.168 62.1678 30.2676 101.5 30.2676C140.831 30.2676 172.733 62.168 172.733 101.5Z" fill="#FEFEFE"/>
<path d="M173 101.5C173 121.24 164.995 139.115 152.055 152.055C139.115 164.995 121.24 173 101.5 173C81.7602 173 63.8852 164.995 50.9452 152.055C38.0051 139.115 30 121.24 30 101.5C30 81.7602 38.0051 63.8852 50.9452 50.9452C63.8852 38.0051 81.7602 30 101.5 30C121.24 30 139.115 38.0051 152.055 50.9452C164.995 63.8852 173 81.7602 173 101.5ZM151.677 151.677C164.521 138.834 172.466 121.092 172.466 101.5C172.466 81.9075 164.521 64.1662 151.677 51.3228C138.834 38.4794 121.092 30.5338 101.5 30.5338C81.9075 30.5338 64.1662 38.4794 51.3228 51.3228C38.4794 64.1662 30.5338 81.9075 30.5338 101.5C30.5338 121.092 38.4794 138.834 51.3228 151.677C64.1662 164.521 81.9075 172.466 101.5 172.466C121.092 172.466 138.834 164.521 151.677 151.677Z" fill="#D9DADA"/>
<path d="M101.5 42.5771C134.032 42.5771 160.423 68.9677 160.423 101.5C160.423 134.033 134.032 160.423 101.5 160.423C68.9675 160.423 42.5769 134.033 42.5769 101.5C42.5769 68.9677 68.9675 42.5771 101.5 42.5771Z" fill="#F6A30A"/>
<path d="M44.4634 116.358C51.0538 141.701 74.09 160.423 101.5 160.423C128.91 160.423 151.946 141.701 158.536 116.358H44.4634Z" fill="#E31E24"/>
<path d="M101.5 40.3899C135.26 40.3899 162.61 67.7395 162.61 101.5C162.61 135.26 135.26 162.61 101.5 162.61C67.7396 162.61 40.3901 135.26 40.3901 101.5C40.3901 67.7395 67.7396 40.3899 101.5 40.3899ZM101.5 37.5742C84.4254 37.5742 68.3685 44.2242 56.2964 56.2963C44.2243 68.3683 37.5735 84.4252 37.5735 101.5C37.5735 118.575 44.2243 134.631 56.2964 146.704C68.3685 158.776 84.4254 165.426 101.5 165.426C118.575 165.426 134.632 158.776 146.704 146.704C158.776 134.631 165.426 118.575 165.426 101.5C165.426 84.4252 158.776 68.3683 146.704 56.2963C134.632 44.2242 118.575 37.5742 101.5 37.5742Z" fill="#2A1C1A"/>
<path d="M143.858 59.1416C132.565 47.8184 117.496 41.5879 101.5 41.5879C85.5035 41.5879 70.4353 47.8184 59.1419 59.1416C47.8186 70.4657 41.5881 85.5032 41.5881 101.5C41.5881 117.526 47.8186 132.564 59.1419 143.888C70.4353 155.211 85.5035 161.441 101.5 161.441C117.496 161.441 132.565 155.211 143.858 143.888C155.181 132.564 161.412 117.526 161.412 101.5C161.412 85.5032 155.181 70.4657 143.858 59.1416ZM101.5 43.0259C127.831 43.0259 150.118 60.4903 157.458 84.4549H45.5424C52.8816 60.4903 75.169 43.0259 101.5 43.0259ZM101.5 160.004C75.169 160.004 52.8518 142.509 45.5424 118.574H157.458C150.148 142.509 127.831 160.004 101.5 160.004Z" fill="#2A1C1A"/>
<path d="M65.6131 92.8428L72.8324 110.157H69.7163L64.0551 96.5877L61.7482 102.099L65.1034 110.157H61.9882L60.191 105.874L58.3931 110.157H55.248L58.633 102.099L56.3262 96.5877L50.6649 110.157H47.5489L54.7689 92.8428H57.8842L60.191 98.3848L62.4673 92.8428H65.6131ZM155.45 97.9057C155.45 102.938 149.699 102.938 149.699 102.938H146.824V110.157H143.918V100.092H146.674L143.918 95.7487V92.8428H149.699C149.699 92.8428 155.45 92.8428 155.45 97.9057ZM152.605 97.9057C152.605 95.7487 149.699 95.7487 149.699 95.7487H147.362L150.059 100.062C150.837 99.942 152.605 99.5829 152.605 97.9057ZM125.015 92.8428H127.921V105.425L136.549 92.8428H139.514V110.157H136.578V97.3961L127.981 110.157H125.015V92.8428ZM121.181 104.915C121.181 109.678 116.358 110.157 115.19 110.157H109.408V92.8428H120.162V95.6585H112.284V99.8229H115.19C119.323 99.8229 121.181 101.77 121.181 104.915ZM118.305 104.915C118.305 102.938 116.478 102.639 115.19 102.639H112.284V107.312H115.19C116.388 107.312 118.305 106.952 118.305 104.915ZM105.904 97.9057C105.904 102.938 100.152 102.938 100.152 102.938H97.276V110.157H94.3701V100.092H97.1262L94.3701 95.7487V92.8428H100.152C100.152 92.8428 105.904 92.8428 105.904 97.9057ZM103.027 97.9057C103.027 95.7487 100.152 95.7487 100.152 95.7487H97.8155L100.511 100.062C101.291 99.942 103.027 99.5829 103.027 97.9057ZM75.4379 92.8428H78.3736V105.425L87.0011 92.8428H89.9666V110.157H87.0309V97.3961L78.4042 110.157H75.4379V92.8428Z" fill="#FEFEFE"/>
<path d="M42.1276 90.0569H160.872V87.2412H43.056L42.1276 90.0569Z" fill="#FEFEFE"/>
<path d="M42.7267 115.759H160.273L161.202 112.973H41.7975L42.7267 115.759Z" fill="#FEFEFE"/>
<path d="M55.8471 73.2812H48.8074L47.9088 76.0672H56.9856L55.8471 73.2812Z" fill="#2A1C1A"/>
<path d="M53.8398 67.6797H52.7021L51.2036 70.4656H54.9783L53.8398 67.6797Z" fill="#2A1C1A"/>
<path d="M146.824 73.2812L145.685 76.0672H155.032L154.102 73.2812H146.824Z" fill="#2A1C1A"/>
<path d="M149.16 67.6191L148.022 70.4349H151.466L150.508 67.6191H149.16Z" fill="#2A1C1A"/>
<path d="M58.1539 78.8535H46.2912L45.4224 81.6692H59.2917L58.1539 78.8535Z" fill="#2A1C1A"/>
<path d="M144.846 78.8535L143.678 81.6692H157.818L156.888 78.8535H144.846Z" fill="#2A1C1A"/>
<path d="M88.0494 62.8274C87.6605 62.6777 87.4504 62.2582 87.5704 61.8387C87.6903 61.4192 88.1396 61.1792 88.5591 61.2992C89.3377 61.5391 89.7572 61.5391 90.3265 61.449C90.5358 61.3894 90.7758 61.329 91.0157 61.2992H91.1051C91.1051 61.2992 91.1051 61.2992 91.1349 61.2992C91.1349 61.2992 91.1655 61.2992 91.1953 61.2992C91.1953 61.2694 91.2251 61.2694 91.2549 61.2694C91.2549 61.2694 91.2549 61.2694 91.2847 61.2694C92.9023 61.1494 94.4007 61.7783 95.0891 62.8572L95.1495 59.5318C95.0593 59.5318 94.9394 59.4722 94.85 59.4118C94.7598 59.2919 94.7002 59.1421 94.7002 58.9924L94.7896 57.1058C94.7896 56.8361 94.9998 56.6259 95.2687 56.5961L95.3589 54.9189H110.067L110.127 56.5961C110.397 56.6259 110.607 56.8361 110.636 57.1058L110.697 58.9924C110.727 59.1421 110.666 59.2919 110.547 59.4118C110.487 59.4722 110.367 59.5318 110.247 59.5318L111.026 80.7105H111.206C111.505 80.7105 111.745 80.9504 111.745 81.2202L111.834 84.7549H93.5617L93.6817 81.2202C93.6817 80.9504 93.9208 80.7105 94.2203 80.7105H94.4007L94.4305 79.6621C94.2807 79.7821 94.0706 79.8723 93.8612 79.8723C93.8017 79.8723 93.7115 79.8723 93.6213 79.8417C93.2018 79.7225 92.9627 79.2732 93.0826 78.8239C93.2018 78.4938 93.3822 77.4157 92.9023 76.7868C92.7831 76.6065 92.5432 76.3971 92.2436 76.1274C91.6446 75.7981 90.6856 75.8577 90.3563 75.918C89.907 76.0074 89.4875 75.7079 89.4279 75.2884C89.3377 74.8391 89.6373 74.4204 90.0568 74.3302C90.0866 74.3302 90.0866 74.3302 90.0866 74.3302C88.8884 73.2521 87.6605 71.934 86.9713 70.3164C86.522 69.2375 85.3537 65.6133 88.0494 62.8274ZM105.304 57.0454C105.514 57.0752 105.664 57.2854 105.664 57.5551L105.724 59.4722C105.754 59.622 105.694 59.742 105.634 59.8611C105.574 59.9513 105.484 59.9811 105.394 60.0109L105.994 81.2499H106.113C106.323 81.2499 106.503 81.4899 106.532 81.7596L106.593 84.5455H109.528L109.438 81.2202C109.438 80.9206 109.259 80.7105 109.019 80.7105H108.899L108.3 59.7718C108.39 59.7718 108.479 59.7114 108.54 59.6518C108.629 59.5318 108.66 59.4119 108.66 59.2621L108.599 57.4649C108.599 57.1952 108.42 56.9858 108.24 56.9858L108.18 56.1171H105.275L105.304 57.0454ZM88.4689 69.6868C89.3079 71.6345 91.1953 73.1619 92.5729 74.3004C92.8129 74.5098 93.0222 74.6893 93.2324 74.8391C93.2324 74.8391 93.2324 74.8697 93.2622 74.8697C93.6817 75.2288 94.011 75.5283 94.2203 75.8279C94.3701 76.0074 94.4603 76.2176 94.5505 76.3971L94.9692 65.6431C94.9394 65.7027 94.8798 65.7631 94.85 65.7929C94.5199 66.1222 94.011 66.1222 93.6817 65.8227C93.3822 65.4934 93.3822 64.9837 93.6817 64.6842C93.6817 64.6544 94.0408 64.2953 93.7413 63.7558C93.4715 63.2461 92.5432 62.7968 91.345 62.887L91.1655 62.9466C90.9851 62.9772 90.8056 63.007 90.6558 63.0368C90.2661 63.1567 89.8772 63.3363 89.4875 63.6656C87.0913 65.7631 88.1098 68.7882 88.4689 69.6868Z" fill="#2A1C1A"/>
<path d="M70.7655 83.6157L68.2791 82.9265C68.3089 82.8669 68.3089 82.8073 68.3089 82.7469C68.3089 82.4772 68.0987 82.2679 67.8298 82.2381C67.9191 82.0279 67.9489 81.7888 67.9489 81.5488C67.9489 81.0995 67.7992 80.5907 67.56 80.201C67.7992 80.1712 68.0093 79.9312 68.0093 79.6913C68.0093 79.4819 67.8894 79.3322 67.7396 79.242C70.7349 78.7331 72.9821 76.4867 72.9821 73.7901C72.9821 72.6822 72.5924 70.4953 71.9032 68.1885H60.9696C60.2804 70.4953 59.8609 72.6822 59.8609 73.7901C59.8609 76.4867 62.138 78.7331 65.1034 79.242C64.9537 79.3322 64.8635 79.4819 64.8635 79.6913C64.8635 79.9312 65.0438 80.1712 65.3128 80.201C65.0438 80.5907 64.8941 81.0995 64.8941 81.5488C64.8941 81.7888 64.9537 82.0279 65.0133 82.2381C64.7443 82.2679 64.564 82.4772 64.564 82.7469C64.564 82.8073 64.564 82.8669 64.5946 82.9265L62.1082 83.6157C61.9584 83.6455 61.8384 83.7357 61.778 83.8855L61.3593 84.7543H71.5143L71.0948 83.8855C71.0344 83.7357 70.9152 83.6455 70.7655 83.6157ZM61.299 73.7007C61.299 72.7418 61.6283 70.8842 62.1975 68.9075H64.5342C63.9947 70.8842 63.6654 72.7418 63.6654 73.7007C63.6654 75.9472 65.403 77.8047 67.7694 78.2838H65.403C63.0663 77.8047 61.299 75.9472 61.299 73.7007Z" fill="#2A1C1A"/>
<path d="M84.2756 67.5598C84.9946 65.5823 85.4133 63.2457 85.4133 60.8495C85.4133 60.0709 85.324 59.322 85.204 58.6328H73.3115C73.1617 59.322 73.1013 60.0709 73.1013 60.8495C73.1013 62.8866 73.4016 64.8939 73.9403 66.6613C74.5096 68.8779 75.3784 72.1131 75.3188 75.7381C75.2584 79.3622 73.9105 84.7545 73.9105 84.7545H84.5751C84.5751 84.7545 83.2868 79.0924 83.1669 75.7075C83.1073 73.1615 83.3166 70.4054 84.2756 67.5598ZM78.6136 83.6457H75.9178C75.9178 83.6457 76.8164 78.7035 76.8462 75.3781C76.9058 72.023 76.3067 69.0575 75.9178 67.0204C75.5579 65.4028 75.3486 63.5758 75.3486 61.6885C75.3486 60.9694 75.4082 60.2802 75.4983 59.6216H77.9243C77.8946 60.0105 77.8946 60.4002 77.8946 60.8197C77.8946 62.8866 78.1047 64.8633 78.4638 66.6315C78.8535 68.8481 79.4228 72.0833 79.3922 75.6777C79.3624 78.3138 78.8535 81.909 78.6136 83.6457Z" fill="#2A1C1A"/>
<path d="M116.658 83.0168C116.807 82.7172 117.257 82.4773 117.856 82.2977C118.005 82.2382 118.336 81.9982 118.336 81.4587C118.336 81.1592 118.245 80.9499 118.125 80.8001C118.066 80.7099 117.796 80.5602 117.736 80.5304C117.436 80.3806 117.286 80.201 117.257 80.0215C115.699 79.7518 114.62 79.2123 114.62 78.5834C114.62 78.5834 114.831 75.9473 114.62 69.2973C114.411 62.6167 113.812 60.4902 113.812 60.4902H125.974C125.974 60.4902 125.614 60.6698 125.345 65.1031C125.465 64.9831 125.585 64.8938 125.764 64.8334C125.854 64.8334 127.651 64.3245 129.389 65.8221C131.216 67.3802 131.156 70.4656 130.048 72.4125C129.119 74.0004 128.011 75.0487 127.352 75.6775C127.232 75.7677 127.143 75.8571 127.052 75.9473C126.603 76.3966 126.633 76.8161 126.663 76.9054C126.903 77.2952 126.812 77.8048 126.424 78.044C126.274 78.1341 126.124 78.1639 125.974 78.1639C125.705 78.1639 125.465 78.0142 125.285 77.7742C125.195 77.6551 125.135 77.4747 125.105 77.3249C125.135 78.2541 125.165 78.5834 125.165 78.5834C125.165 79.2123 124.117 79.7518 122.529 80.0513C122.499 80.2308 122.29 80.441 121.93 80.5602C121.87 80.5908 121.63 80.7703 121.571 80.8597C121.481 81.04 121.39 81.2494 121.39 81.4893C121.39 81.8782 121.571 82.1182 121.75 82.2679C122.469 82.4177 122.978 82.6874 123.128 83.0168C124.566 83.1367 125.494 83.3461 125.494 83.586V84.7841H114.321V83.586C114.291 83.586 114.291 83.586 114.291 83.586C114.291 83.3461 115.219 83.1367 116.658 83.0168ZM125.076 76.2766C125.195 75.7677 125.465 75.2283 125.914 74.8088C126.004 74.7194 126.124 74.5994 126.243 74.4794C126.873 73.8804 127.831 72.9818 128.61 71.6033C129.509 70.0461 129.389 67.9486 128.311 67.05C127.292 66.1515 126.243 66.3914 126.184 66.4212C125.854 66.5114 125.494 66.3616 125.315 66.0621C125.255 67.05 125.195 68.129 125.165 69.3271C125.076 72.6517 125.076 74.8691 125.076 76.2766ZM122.708 78.1639C123.128 77.9546 123.368 77.6849 123.368 77.4151C123.368 77.4151 123.188 75.0785 123.368 69.1475C123.547 63.186 124.057 61.5088 124.057 61.5088H121.241C121.091 62.8865 120.762 64.3543 120.642 68.9978C120.462 75.3184 120.642 77.8048 120.642 77.8048C120.642 77.924 120.582 78.044 120.492 78.1639H122.708Z" fill="#2A1C1A"/>
<path d="M139.305 83.2574C139.305 83.2574 138.376 83.0778 138.405 82.1189C138.436 81.1599 138.736 80.771 138.855 80.6212C141.132 79.9618 142.809 77.8353 142.809 75.2885C142.809 74.1806 142.48 72.6524 141.91 71.2151V71.1547C141.701 70.4961 141.551 69.6571 141.551 68.7585C141.551 67.8897 141.671 67.0813 141.881 66.4219H132.744C132.954 67.0813 133.074 67.8897 133.074 68.7585C133.074 69.6571 132.954 70.4961 132.744 71.1547C132.145 72.6226 131.785 74.1508 131.785 75.2885C131.785 77.8055 133.463 79.932 135.739 80.6212C135.889 80.7412 136.189 81.1599 136.219 82.1189C136.249 83.0778 135.29 83.2574 135.29 83.2574H135.32L132.714 84.0956V84.7848H141.851V84.0956L139.274 83.2574H139.305ZM136.189 79.6921C134.242 78.7935 132.924 77.1759 132.924 75.3191C132.924 74.2708 133.343 72.8625 134.092 71.4848C134.332 70.885 134.512 70.1064 134.512 69.2674C134.512 68.459 134.362 67.74 134.122 67.1409H136.698C136.938 67.7697 137.087 68.5492 137.087 69.4171C137.087 70.3165 136.908 71.1249 136.669 71.7844C135.919 73.2522 135.5 74.7499 135.5 75.8884C135.5 77.386 136.249 78.7041 137.417 79.6921H136.189Z" fill="#2A1C1A"/>
<path d="M105.304 57.0451C105.514 57.0749 105.664 57.285 105.664 57.5547L105.724 59.4719C105.724 59.6216 105.694 59.7714 105.604 59.8608C105.544 59.951 105.484 60.0105 105.394 60.0105L105.963 81.2496H106.113C106.323 81.2496 106.503 81.4895 106.503 81.7891L106.593 84.575H109.528L109.438 81.2198C109.438 80.9501 109.259 80.7101 109.019 80.7101H108.899L108.3 59.8012C108.39 59.7714 108.479 59.7416 108.54 59.6514C108.629 59.5613 108.66 59.4115 108.66 59.2617L108.599 57.4646C108.599 57.1948 108.42 56.9855 108.21 56.9855L108.18 56.1465H105.275L105.304 57.0451Z" fill="#FEFEFE"/>
<path d="M61.299 73.7014C61.299 72.7425 61.6283 70.8849 62.1975 68.9082H64.5342C63.9947 70.8849 63.6654 72.7425 63.6654 73.7014C63.6654 75.9479 65.403 77.8054 67.7396 78.2845H65.403C63.0663 77.8054 61.299 75.9479 61.299 73.7014Z" fill="#FEFEFE"/>
<path d="M78.6136 83.6763H75.9178C75.9178 83.6763 76.7866 78.7035 76.8462 75.3781C76.9058 72.0528 76.3067 69.0575 75.9178 67.0204C75.5579 65.4028 75.3486 63.5758 75.3486 61.6885C75.3486 60.9694 75.4082 60.2802 75.4983 59.6514H77.9243C77.8946 60.0411 77.8946 60.43 77.8946 60.8197C77.8946 62.8866 78.1047 64.8633 78.4638 66.6315H78.434C78.8535 68.8481 79.4228 72.0833 79.3922 75.6777C79.3624 78.3436 78.8535 81.909 78.6136 83.6763Z" fill="#FEFEFE"/>
<path d="M122.708 78.1639C123.128 77.9546 123.338 77.6849 123.338 77.4151C123.338 77.4151 123.188 75.0785 123.338 69.1475C123.518 63.2158 124.057 61.5088 124.057 61.5088H121.241C121.061 62.8865 120.761 64.3543 120.612 68.9978C120.462 75.3184 120.612 77.8048 120.612 77.8048C120.612 77.924 120.582 78.0738 120.492 78.1639H122.708Z" fill="#FEFEFE"/>
<path d="M136.189 79.7224C134.242 78.7932 132.924 77.1756 132.924 75.3188C132.924 74.2705 133.343 72.8622 134.062 71.4846C134.332 70.8847 134.512 70.1061 134.512 69.2671C134.512 68.4587 134.362 67.7397 134.122 67.1406H136.698C136.938 67.7695 137.087 68.5489 137.087 69.4169C137.087 70.3163 136.908 71.1544 136.638 71.7841C135.919 73.2519 135.5 74.7496 135.5 75.8881C135.5 77.3857 136.249 78.7336 137.417 79.7224H136.189Z" fill="#FEFEFE"/>
<path d="M105.065 144.037H103.147C102.878 143.288 102.129 142.749 101.26 142.749C100.422 142.749 99.6722 143.288 99.3727 144.037H97.4862C97.2164 144.037 97.0063 144.247 97.0063 144.516C97.0063 144.786 97.2164 144.995 97.4862 144.995H99.2535C99.3131 145.625 99.6722 146.164 100.182 146.493V147.602C99.0434 148.021 98.235 149.129 98.235 150.418C98.235 151.706 99.0434 152.815 100.182 153.264V155.63C100.182 156.05 100.661 156.08 101.26 156.08C101.89 156.08 102.369 156.05 102.369 155.63V153.264C103.507 152.815 104.316 151.706 104.316 150.418C104.316 149.129 103.507 148.021 102.369 147.602V146.493C102.878 146.164 103.208 145.625 103.297 144.995H105.065C105.334 144.995 105.544 144.786 105.544 144.516C105.544 144.247 105.334 144.037 105.065 144.037ZM99.942 144.846C99.9726 144.067 100.601 143.468 101.38 143.468C101.59 143.468 101.8 143.528 101.979 143.588L101.919 143.858C101.859 143.858 101.8 143.858 101.74 143.858C101.051 143.858 100.481 144.276 100.272 144.906L99.942 144.846ZM99.4033 150.208L98.8936 150.118C98.9838 148.979 99.9122 148.081 101.08 148.081C101.41 148.081 101.709 148.141 101.979 148.261L101.89 148.65C101.8 148.65 101.709 148.65 101.62 148.65C100.601 148.65 99.7326 149.31 99.4033 150.208Z" fill="#2A1C1A"/>
<path d="M99.942 144.846C99.9726 144.098 100.601 143.469 101.38 143.469C101.59 143.469 101.8 143.528 101.979 143.619L101.919 143.858C101.859 143.858 101.8 143.858 101.74 143.858C101.051 143.858 100.481 144.308 100.272 144.907L99.942 144.846Z" fill="#FEFEFE"/>
<path d="M99.4033 150.238L98.8936 150.148C98.9838 148.98 99.9122 148.081 101.08 148.081C101.41 148.081 101.709 148.141 101.979 148.291L101.89 148.68C101.8 148.65 101.709 148.65 101.62 148.65C100.601 148.65 99.7326 149.31 99.4033 150.238Z" fill="#FEFEFE"/>
<path d="M134.811 121.331V124.117H156.529L157.458 121.331H134.811ZM134.811 126.933V129.719H153.893L154.821 126.933H134.811Z" fill="#2A1C1A"/>
<path d="M68.1889 121.331H45.5424L46.4708 124.117H68.1889V121.331ZM68.1889 126.933H48.1786L49.107 129.719H68.1889V126.933Z" fill="#2A1C1A"/>
<path d="M75.384 121.356H72.7462C72.6021 121.356 72.5038 121.454 72.5038 121.562V129.55C72.5038 129.645 72.6005 129.756 72.7462 129.756H74.0651C74.235 129.756 74.3195 129.646 74.3195 129.55V126.463H75.384C75.5901 126.463 78.277 126.439 78.277 123.922C78.277 121.405 75.7222 121.356 75.384 121.356ZM75.384 124.733H74.3195V123.087H75.384C75.5539 123.087 76.4613 123.135 76.4613 123.922C76.4613 124.709 75.5651 124.733 75.384 124.733ZM82.8778 129.588V129.576C82.9019 129.658 83.0106 129.719 83.1073 129.719H84.5719C84.7531 129.719 84.8465 129.578 84.7893 129.433L81.5823 121.211C81.5098 121.024 81.1845 121.025 81.1104 121.211C80.0589 123.869 78.9477 126.78 77.9034 129.433C77.847 129.577 77.9275 129.719 78.1337 129.719H79.5733C79.6949 129.719 79.8036 129.658 79.8278 129.576V129.588L80.1305 128.763H82.5509L82.8778 129.588ZM81.05 126.04C81.1756 125.678 81.2682 125.313 81.3528 124.866C81.4252 125.289 81.5098 125.644 81.6434 126.04L82.067 127.298H80.6144L81.05 126.04ZM88.4448 124.6H87.3916V123.039H90.7194C90.8652 123.039 90.9739 122.929 90.9739 122.833V121.562C90.9739 121.453 90.8644 121.356 90.7194 121.356H85.8183C85.6734 121.356 85.5767 121.453 85.5767 121.562V129.525C85.5767 129.622 85.6734 129.732 85.8183 129.732H88.4448C89.0253 129.732 91.4336 129.489 91.4336 127.141C91.4336 125.58 90.502 124.6 88.4448 124.6ZM88.4448 128.012H87.3916V126.282H88.4448C88.9408 126.282 89.6188 126.415 89.6188 127.141C89.6188 127.88 88.9046 128.012 88.4448 128.012ZM96.7591 121.235C93.9635 121.235 92.5834 123.39 92.5834 125.532C92.5834 127.673 93.9635 129.84 96.7591 129.84C99.5176 129.84 100.922 127.673 100.922 125.532C100.922 123.39 99.5176 121.235 96.7591 121.235ZM96.7591 128.133C95.222 128.133 94.4474 126.851 94.4474 125.556C94.4474 124.249 95.222 122.941 96.7591 122.941C98.2833 122.941 99.07 124.249 99.07 125.556C99.07 126.851 98.2833 128.133 96.7591 128.133ZM106.794 121.635C106.794 121.526 106.697 121.417 106.54 121.417H101.917C101.772 121.417 101.663 121.526 101.663 121.635V122.845C101.663 122.953 101.772 123.039 101.917 123.039H103.333V129.513C103.333 129.61 103.406 129.719 103.575 129.719H104.894C105.052 129.719 105.136 129.61 105.136 129.513V123.039H106.54C106.697 123.039 106.794 122.953 106.794 122.845V121.635ZM111.58 129.588V129.576C111.604 129.658 111.714 129.719 111.81 129.719H113.274C113.456 129.719 113.549 129.578 113.492 129.433L110.285 121.211C110.213 121.024 109.887 121.025 109.813 121.211C108.762 123.869 107.651 126.78 106.606 129.433C106.549 129.577 106.631 129.719 106.836 129.719H108.276C108.397 129.719 108.506 129.658 108.531 129.576V129.588L108.833 128.763H111.253L111.58 129.588ZM109.753 126.04C109.878 125.678 109.97 125.313 110.055 124.866C110.128 125.289 110.213 125.644 110.346 126.04L110.769 127.298H109.317L109.753 126.04ZM119.786 123.063C119.943 123.063 120.052 122.953 120.052 122.857V121.562C120.052 121.453 119.943 121.356 119.786 121.356H114.521C114.376 121.356 114.279 121.453 114.279 121.562V129.525C114.279 129.622 114.376 129.732 114.521 129.732H119.786C119.943 129.732 120.052 129.622 120.052 129.525V128.243C120.052 128.133 119.943 128.037 119.786 128.037H116.095V126.403H119.132C119.29 126.403 119.374 126.294 119.374 126.198V124.926C119.374 124.817 119.289 124.721 119.132 124.721H116.095V123.063H119.786ZM130.496 121.562C130.496 121.453 130.399 121.356 130.242 121.356H128.911C128.838 121.356 128.696 121.419 128.668 121.478L126.031 127.194L123.259 121.478C123.235 121.428 123.113 121.356 123.029 121.356H121.686C121.541 121.356 121.431 121.453 121.431 121.562V129.513C121.431 129.61 121.54 129.719 121.686 129.719H123.005C123.162 129.719 123.259 129.61 123.259 129.513V125.404L125.195 129.271C125.225 129.329 125.328 129.405 125.413 129.405H126.659C126.744 129.405 126.866 129.32 126.89 129.271L128.668 125.55V129.513C128.668 129.61 128.777 129.719 128.935 129.719H130.242C130.399 129.719 130.496 129.61 130.496 129.513V121.562Z" fill="#2A1C1A"/>
<path d="M76.4283 138.535C75.4113 138.535 74.5756 137.785 74.5756 136.55C74.5756 135.4 75.2688 134.489 76.4283 134.489C76.9412 134.489 77.4066 134.707 77.7673 135.059C77.8341 135.116 77.9477 135.116 78.0241 135.059L78.7464 134.336C78.8027 134.279 78.8028 134.156 78.7649 134.089C78.1763 133.519 77.3309 133.139 76.4283 133.139C74.4902 133.139 73.1214 134.584 73.1214 136.55C73.1214 138.593 74.6134 139.903 76.4283 139.903C77.3397 139.903 78.157 139.533 78.7464 138.963C78.8124 138.897 78.8124 138.764 78.7464 138.707L78.0241 137.975C77.9477 137.918 77.8341 137.918 77.7673 137.975C77.4066 138.327 76.9412 138.535 76.4283 138.535ZM86.869 138.593C86.869 138.507 86.7837 138.422 86.6605 138.422H84.6081L86.299 136.189C86.6219 135.733 86.7837 135.287 86.7837 134.878C86.7837 133.823 85.8336 133.073 84.8166 133.073C83.4583 133.073 82.8407 133.956 82.8407 135.059C82.8407 135.125 82.9172 135.22 83.0404 135.22H84.0284C84.1516 135.22 84.2281 135.125 84.2281 135.059C84.2281 134.641 84.5413 134.46 84.8166 134.46C85.0735 134.46 85.2732 134.659 85.2732 134.944C85.2732 135.096 85.216 135.277 85.0735 135.467L82.7747 138.65V139.647C82.7747 139.723 82.8601 139.808 82.9736 139.808H86.6605C86.7837 139.808 86.869 139.723 86.869 139.647V138.593ZM91.9046 137.947V135.021C91.9046 133.728 90.878 133.063 89.8619 133.063C88.8361 133.063 87.8192 133.728 87.8192 135.021V137.947C87.8192 139.248 88.8361 139.903 89.8619 139.903C90.878 139.903 91.9046 139.248 91.9046 137.947ZM90.4416 134.954V137.985C90.4416 138.393 90.1566 138.612 89.8619 138.612C89.5769 138.612 89.2822 138.393 89.2822 137.985V134.954C89.2822 134.546 89.5672 134.336 89.8619 134.336C90.1469 134.336 90.4416 134.546 90.4416 134.954ZM97.272 137.947V135.021C97.272 133.728 96.2462 133.063 95.2292 133.063C94.2034 133.063 93.1873 133.728 93.1873 135.021V137.947C93.1873 139.248 94.2034 139.903 95.2292 139.903C96.2462 139.903 97.272 139.248 97.272 137.947ZM95.809 134.954V137.985C95.809 138.393 95.5239 138.612 95.2292 138.612C94.9442 138.612 94.6503 138.393 94.6503 137.985V134.954C94.6503 134.546 94.9353 134.336 95.2292 134.336C95.5143 134.336 95.809 134.546 95.809 134.954ZM102.279 135.125C102.279 133.766 101.243 133.073 100.217 133.073C99.2012 133.073 98.1746 133.766 98.1746 135.125C98.1746 135.619 98.4314 136.132 98.7736 136.474C98.4411 136.816 98.1746 137.357 98.1746 137.842C98.1746 139.22 99.2012 139.903 100.217 139.903C101.243 139.903 102.279 139.22 102.279 137.842C102.279 137.348 102.032 136.845 101.642 136.484C102.042 136.151 102.279 135.629 102.279 135.125ZM99.5804 135.125C99.5804 134.65 99.8944 134.394 100.217 134.394C100.54 134.394 100.863 134.65 100.863 135.125C100.863 135.505 100.569 135.809 100.217 135.809C99.8663 135.809 99.5804 135.505 99.5804 135.125ZM99.6094 137.842C99.6094 137.472 99.8848 137.149 100.217 137.149C100.56 137.149 100.835 137.472 100.835 137.842C100.835 138.317 100.522 138.555 100.217 138.555C99.9138 138.555 99.6094 138.317 99.6094 137.842ZM107.904 134.555H110.525C110.64 134.555 110.715 134.469 110.715 134.394V133.396C110.715 133.311 110.64 133.234 110.525 133.234H106.678C106.564 133.234 106.478 133.311 106.478 133.396V139.638C106.478 139.713 106.564 139.8 106.678 139.8H107.714C107.827 139.8 107.904 139.713 107.904 139.638V134.555ZM114.753 133.139C112.558 133.139 111.475 134.831 111.475 136.512C111.475 138.194 112.558 139.895 114.753 139.895C116.919 139.895 118.021 138.194 118.021 136.512C118.021 134.831 116.919 133.139 114.753 133.139ZM114.753 138.555C113.547 138.555 112.938 137.547 112.938 136.531C112.938 135.505 113.547 134.479 114.753 134.479C115.951 134.479 116.568 135.505 116.568 136.531C116.568 137.547 115.951 138.555 114.753 138.555ZM123.076 139.808V140.597C123.076 140.673 123.152 140.758 123.275 140.758H124.225C124.349 140.758 124.415 140.673 124.415 140.597V138.725C124.415 138.64 124.349 138.555 124.225 138.555H123.77L121.679 133.187C121.622 133.044 121.385 133.044 121.318 133.187C121.014 133.994 120.672 134.849 120.359 135.657C119.979 136.635 119.617 137.585 119.247 138.555H118.801C118.677 138.555 118.592 138.64 118.592 138.725V140.597C118.592 140.673 118.677 140.758 118.801 140.758H119.75C119.865 140.758 119.95 140.673 119.95 140.597V139.808H123.076ZM121.499 136.445L121.86 137.424L122.268 138.555H120.739L121.499 136.445ZM128.329 139.696V139.687C128.349 139.752 128.434 139.8 128.51 139.8H129.66C129.802 139.8 129.879 139.687 129.831 139.574L127.313 133.121C127.246 132.978 127.009 132.978 126.943 133.121C126.126 135.211 125.242 137.49 124.425 139.574C124.378 139.687 124.444 139.8 124.605 139.8H125.736C125.831 139.8 125.916 139.752 125.936 139.687V139.696L126.173 139.048H128.073L128.329 139.696ZM126.895 136.911C126.99 136.626 127.066 136.341 127.133 135.989C127.189 136.322 127.266 136.597 127.361 136.911L127.693 137.899H126.553L126.895 136.911Z" fill="#2A1C1A"/>
</g>
<path d="M225 215H307V317C307 323.627 301.627 329 295 329H237C230.373 329 225 323.627 225 317V215Z" fill="white"/>
<rect x="225" y="215" width="82" height="102" fill="#EDA640"/>
<rect x="229" y="215" width="14" height="98" fill="#F1BA44"/>
<rect x="249" y="215" width="14" height="98" fill="#F3BB44"/>
<rect x="269" y="215" width="14" height="98" fill="#F4C345"/>
<rect x="289" y="215" width="14" height="98" fill="#F5C245"/>
<rect x="232" y="282" width="6" height="28" rx="3" fill="#F9E181"/>
<rect x="252" y="272" width="6" height="28" rx="3" fill="#F9E181"/>
<rect x="272" y="236" width="6" height="28" rx="3" fill="#F9E181"/>
<rect x="272" y="282" width="6" height="28" rx="3" fill="#F9E181"/>
<rect x="292" y="272" width="6" height="28" rx="3" fill="#F9E181"/>
<path fill-rule="evenodd" clip-rule="evenodd" d="M282 176C282 182.075 277.075 187 271 187C264.925 187 260 182.075 260 176C260 169.925 264.925 165 271 165C277.075 165 282 169.925 282 176ZM240 195C240 202.732 233.732 209 226 209C218.268 209 212 202.732 212 195C212 187.268 218.268 181 226 181C233.732 181 240 187.268 240 195ZM311.5 239C319.508 239 326 232.508 326 224.5C326 216.492 319.508 210 311.5 210C303.492 210 297 216.492 297 224.5C297 232.508 303.492 239 311.5 239ZM278 239C278 245.075 273.075 250 267 250C260.925 250 256 245.075 256 239C256 232.925 260.925 228 267 228C273.075 228 278 232.925 278 239ZM218 266C224.075 266 229 261.075 229 255C229 248.925 224.075 244 218 244C211.925 244 207 248.925 207 255C207 261.075 211.925 266 218 266Z" fill="#EFEFEF" fill-opacity="0.5"/>
<path fill-rule="evenodd" clip-rule="evenodd" d="M269.614 180.595C269.866 179.605 270 178.568 270 177.5C270 170.596 264.404 165 257.5 165C250.596 165 245 170.596 245 177.5C245 177.904 245.019 178.303 245.057 178.696C243.115 177.616 240.879 177 238.5 177C231.044 177 225 183.044 225 190.5C225 191.886 225.209 193.223 225.597 194.482C224.283 194.167 222.911 194 221.5 194C211.835 194 204 201.835 204 211.5C204 215.547 205.374 219.274 207.681 222.238C203.627 225.245 201 230.066 201 235.5C201 244.613 208.387 252 217.5 252C218.788 252 220.042 251.852 221.246 251.573C221.085 252.357 221 253.169 221 254C221 260.627 226.373 266 233 266C237.469 266 241.368 263.557 243.433 259.933C245.154 260.621 247.033 261 249 261C257.284 261 264 254.284 264 246C264 243.408 263.342 240.969 262.185 238.842C267.305 238.095 271.586 234.761 273.658 230.209C276.86 234.341 281.869 237 287.5 237C295.372 237 302.03 231.803 304.229 224.652C305.968 225.515 307.927 226 310 226C317.18 226 323 220.18 323 213C323 205.82 317.18 200 310 200C309.489 200 308.985 200.029 308.49 200.087C309.454 198.271 310 196.199 310 194C310 186.82 304.18 181 297 181C294.521 181 292.204 181.694 290.232 182.898C287.242 179.874 283.09 178 278.5 178C275.228 178 272.179 178.952 269.614 180.595Z" fill="#EFEFEF"/>
<path d="M316.694 244.5H303.5C302.395 244.5 301.5 245.395 301.5 246.5V252.5C301.5 253.605 302.395 254.5 303.5 254.5H306.172C306.702 254.5 307.211 254.711 307.586 255.086L314.414 261.914C314.789 262.289 315 262.798 315 263.328V283.092C315 283.669 314.751 284.218 314.317 284.598L307.566 290.505C307.201 290.824 306.733 291 306.249 291H303.5C302.395 291 301.5 291.895 301.5 293V302C301.5 303.105 302.395 304 303.5 304H316.672C317.202 304 317.711 303.789 318.086 303.414L329.914 291.586C330.289 291.211 330.5 290.702 330.5 290.172V257.851C330.5 257.307 330.278 256.787 329.886 256.41L318.081 245.058C317.708 244.7 317.211 244.5 316.694 244.5Z" fill="#EBA840"/>
<path d="M312.694 244.5H303.5C302.395 244.5 301.5 245.395 301.5 246.5V252.5C301.5 253.605 302.395 254.5 303.5 254.5H306.172C306.702 254.5 307.211 254.711 307.586 255.086L314.414 261.914C314.789 262.289 315 262.798 315 263.328V283.092C315 283.669 314.751 284.218 314.317 284.598L307.566 290.505C307.201 290.824 306.733 291 306.249 291H303.5C302.395 291 301.5 291.895 301.5 293V302C301.5 303.105 302.395 304 303.5 304H312.672C313.202 304 313.711 303.789 314.086 303.414L325.914 291.586C326.289 291.211 326.5 290.702 326.5 290.172V257.851C326.5 257.307 326.278 256.787 325.886 256.41L314.081 245.058C313.708 244.7 313.211 244.5 312.694 244.5Z" fill="#F5C245"/>
<rect x="318" y="260" width="6" height="28" rx="3" fill="#F9E181"/>
<circle cx="330" cy="130" r="6" fill="#D9D9D9"/>
<circle cx="334" cy="51" r="3" fill="#D9D9D9"/>
<circle cx="304" cy="71" r="2" fill="#D9D9D9"/>
<circle cx="273" cy="59" r="5" fill="#D9D9D9"/>
<g filter="url(#filter1_d_4251_22906)">
<mask id="path-77-outside-1_4251_22906" maskUnits="userSpaceOnUse" x="97.9767" y="205" width="38" height="33" fill="black">
<rect fill="white" x="97.9767" y="205" width="38" height="33"/>
<path fill-rule="evenodd" clip-rule="evenodd" d="M103.838 208C102.258 208 100.977 209.281 100.977 210.861V228.029C100.977 229.609 102.258 230.89 103.838 230.89L112.422 230.89L115.786 234.255C116.456 234.925 117.543 234.925 118.214 234.255L121.578 230.89H130.162C131.742 230.89 133.023 229.609 133.023 228.029V210.861C133.023 209.281 131.742 208 130.162 208H103.838Z"/>
</mask>
<path fill-rule="evenodd" clip-rule="evenodd" d="M103.838 208C102.258 208 100.977 209.281 100.977 210.861V228.029C100.977 229.609 102.258 230.89 103.838 230.89L112.422 230.89L115.786 234.255C116.456 234.925 117.543 234.925 118.214 234.255L121.578 230.89H130.162C131.742 230.89 133.023 229.609 133.023 228.029V210.861C133.023 209.281 131.742 208 130.162 208H103.838Z" fill="#FFD02F"/>
<path d="M103.838 230.89V233.179H103.838L103.838 230.89ZM112.422 230.89L114.04 229.272L113.37 228.601H112.422L112.422 230.89ZM118.214 234.255L116.595 232.636L118.214 234.255ZM121.578 230.89V228.601H120.63L119.959 229.272L121.578 230.89ZM103.266 210.861C103.266 210.545 103.522 210.289 103.838 210.289V205.711C100.994 205.711 98.6876 208.017 98.6876 210.861H103.266ZM103.266 228.029V210.861H98.6876V228.029H103.266ZM103.838 228.601C103.522 228.601 103.266 228.345 103.266 228.029H98.6876C98.6876 230.874 100.994 233.179 103.838 233.179V228.601ZM112.422 228.601L103.838 228.601L103.838 233.179L112.422 233.179L112.422 228.601ZM117.405 232.636L114.04 229.272L110.803 232.509L114.167 235.873L117.405 232.636ZM116.595 232.636C116.819 232.412 117.181 232.412 117.405 232.636L114.167 235.873C115.732 237.437 118.268 237.437 119.833 235.873L116.595 232.636ZM119.959 229.272L116.595 232.636L119.833 235.873L123.197 232.509L119.959 229.272ZM130.162 228.601H121.578V233.179H130.162V228.601ZM130.734 228.029C130.734 228.345 130.478 228.601 130.162 228.601V233.179C133.006 233.179 135.312 230.874 135.312 228.029H130.734ZM130.734 210.861V228.029H135.312V210.861H130.734ZM130.162 210.289C130.478 210.289 130.734 210.545 130.734 210.861H135.312C135.312 208.017 133.006 205.711 130.162 205.711V210.289ZM103.838 210.289H130.162V205.711H103.838V210.289Z" fill="white" mask="url(#path-77-outside-1_4251_22906)"/>
</g>
<rect x="107.844" y="214.867" width="18.3123" height="2.28904" rx="1.14452" fill="white"/>
<rect x="107.844" y="222.879" width="18.3123" height="2.28904" rx="1.14452" fill="white"/>
<g filter="url(#filter2_d_4251_22906)">
<mask id="path-81-outside-2_4251_22906" maskUnits="userSpaceOnUse" x="167.977" y="147" width="38" height="33" fill="black">
<rect fill="white" x="167.977" y="147" width="38" height="33"/>
<path fill-rule="evenodd" clip-rule="evenodd" d="M173.838 150C172.258 150 170.977 151.281 170.977 152.861V170.029C170.977 171.609 172.258 172.89 173.838 172.89L182.422 172.89L185.786 176.255C186.456 176.925 187.543 176.925 188.214 176.255L191.578 172.89H200.162C201.742 172.89 203.023 171.609 203.023 170.029V152.861C203.023 151.281 201.742 150 200.162 150H173.838Z"/>
</mask>
<path fill-rule="evenodd" clip-rule="evenodd" d="M173.838 150C172.258 150 170.977 151.281 170.977 152.861V170.029C170.977 171.609 172.258 172.89 173.838 172.89L182.422 172.89L185.786 176.255C186.456 176.925 187.543 176.925 188.214 176.255L191.578 172.89H200.162C201.742 172.89 203.023 171.609 203.023 170.029V152.861C203.023 151.281 201.742 150 200.162 150H173.838Z" fill="#FFD02F"/>
<path d="M173.838 172.89V175.179H173.838L173.838 172.89ZM182.422 172.89L184.04 171.272L183.37 170.601H182.422L182.422 172.89ZM188.214 176.255L186.595 174.636L188.214 176.255ZM191.578 172.89V170.601H190.63L189.959 171.272L191.578 172.89ZM173.266 152.861C173.266 152.545 173.522 152.289 173.838 152.289V147.711C170.994 147.711 168.688 150.017 168.688 152.861H173.266ZM173.266 170.029V152.861H168.688V170.029H173.266ZM173.838 170.601C173.522 170.601 173.266 170.345 173.266 170.029H168.688C168.688 172.874 170.994 175.179 173.838 175.179V170.601ZM182.422 170.601L173.838 170.601L173.838 175.179L182.422 175.179L182.422 170.601ZM187.405 174.636L184.04 171.272L180.803 174.509L184.167 177.873L187.405 174.636ZM186.595 174.636C186.819 174.412 187.181 174.412 187.405 174.636L184.167 177.873C185.732 179.437 188.268 179.437 189.833 177.873L186.595 174.636ZM189.959 171.272L186.595 174.636L189.833 177.873L193.197 174.509L189.959 171.272ZM200.162 170.601H191.578V175.179H200.162V170.601ZM200.734 170.029C200.734 170.345 200.478 170.601 200.162 170.601V175.179C203.006 175.179 205.312 172.874 205.312 170.029H200.734ZM200.734 152.861V170.029H205.312V152.861H200.734ZM200.162 152.289C200.478 152.289 200.734 152.545 200.734 152.861H205.312C205.312 150.017 203.006 147.711 200.162 147.711V152.289ZM173.838 152.289H200.162V147.711H173.838V152.289Z" fill="white" mask="url(#path-81-outside-2_4251_22906)"/>
</g>
<rect x="177.844" y="156.867" width="18.3123" height="2.28904" rx="1.14452" fill="white"/>
<rect x="177.844" y="164.879" width="18.3123" height="2.28904" rx="1.14452" fill="white"/>
<g filter="url(#filter3_d_4251_22906)">
<mask id="path-85-outside-3_4251_22906" maskUnits="userSpaceOnUse" x="175.977" y="258" width="38" height="33" fill="black">
<rect fill="white" x="175.977" y="258" width="38" height="33"/>
<path fill-rule="evenodd" clip-rule="evenodd" d="M181.838 261C180.258 261 178.977 262.281 178.977 263.861V281.029C178.977 282.609 180.258 283.89 181.838 283.89L190.422 283.89L193.786 287.255C194.456 287.925 195.543 287.925 196.214 287.255L199.578 283.89H208.162C209.742 283.89 211.023 282.609 211.023 281.029V263.861C211.023 262.281 209.742 261 208.162 261H181.838Z"/>
</mask>
<path fill-rule="evenodd" clip-rule="evenodd" d="M181.838 261C180.258 261 178.977 262.281 178.977 263.861V281.029C178.977 282.609 180.258 283.89 181.838 283.89L190.422 283.89L193.786 287.255C194.456 287.925 195.543 287.925 196.214 287.255L199.578 283.89H208.162C209.742 283.89 211.023 282.609 211.023 281.029V263.861C211.023 262.281 209.742 261 208.162 261H181.838Z" fill="#FFD02F"/>
<path d="M181.838 283.89V286.179H181.838L181.838 283.89ZM190.422 283.89L192.04 282.272L191.37 281.601H190.422L190.422 283.89ZM196.214 287.255L194.595 285.636L196.214 287.255ZM199.578 283.89V281.601H198.63L197.959 282.272L199.578 283.89ZM181.266 263.861C181.266 263.545 181.522 263.289 181.838 263.289V258.711C178.994 258.711 176.688 261.017 176.688 263.861H181.266ZM181.266 281.029V263.861H176.688V281.029H181.266ZM181.838 281.601C181.522 281.601 181.266 281.345 181.266 281.029H176.688C176.688 283.874 178.994 286.179 181.838 286.179V281.601ZM190.422 281.601L181.838 281.601L181.838 286.179L190.422 286.179L190.422 281.601ZM195.405 285.636L192.04 282.272L188.803 285.509L192.167 288.873L195.405 285.636ZM194.595 285.636C194.819 285.412 195.181 285.412 195.405 285.636L192.167 288.873C193.732 290.437 196.268 290.437 197.833 288.873L194.595 285.636ZM197.959 282.272L194.595 285.636L197.833 288.873L201.197 285.509L197.959 282.272ZM208.162 281.601H199.578V286.179H208.162V281.601ZM208.734 281.029C208.734 281.345 208.478 281.601 208.162 281.601V286.179C211.006 286.179 213.312 283.874 213.312 281.029H208.734ZM208.734 263.861V281.029H213.312V263.861H208.734ZM208.162 263.289C208.478 263.289 208.734 263.545 208.734 263.861H213.312C213.312 261.017 211.006 258.711 208.162 258.711V263.289ZM181.838 263.289H208.162V258.711H181.838V263.289Z" fill="white" mask="url(#path-85-outside-3_4251_22906)"/>
</g>
<rect x="185.844" y="267.867" width="18.3123" height="2.28904" rx="1.14452" fill="white"/>
<rect x="185.844" y="275.879" width="18.3123" height="2.28904" rx="1.14452" fill="white"/>
<defs>
<filter id="filter0_d_4251_22906" x="27" y="70" width="306" height="285" filterUnits="userSpaceOnUse" color-interpolation-filters="sRGB">
<feFlood flood-opacity="0" result="BackgroundImageFix"/>
<feColorMatrix in="SourceAlpha" type="matrix" values="0 0 0 0 0 0 0 0 0 0 0 0 0 0 0 0 0 0 127 0" result="hardAlpha"/>
<feOffset dy="10"/>
<feGaussianBlur stdDeviation="15"/>
<feComposite in2="hardAlpha" operator="out"/>
<feColorMatrix type="matrix" values="0 0 0 0 0.713802 0 0 0 0 0.100193 0 0 0 0 0.118881 0 0 0 1 0"/>
<feBlend mode="normal" in2="BackgroundImageFix" result="effect1_dropShadow_4251_22906"/>
<feBlend mode="normal" in="SourceGraphic" in2="effect1_dropShadow_4251_22906" result="shape"/>
</filter>
<filter id="filter1_d_4251_22906" x="88.1876" y="197.211" width="57.6246" height="52.3359" filterUnits="userSpaceOnUse" color-interpolation-filters="sRGB">
<feFlood flood-opacity="0" result="BackgroundImageFix"/>
<feColorMatrix in="SourceAlpha" type="matrix" values="0 0 0 0 0 0 0 0 0 0 0 0 0 0 0 0 0 0 127 0" result="hardAlpha"/>
<feOffset dy="2"/>
<feGaussianBlur stdDeviation="5.25"/>
<feComposite in2="hardAlpha" operator="out"/>
<feColorMatrix type="matrix" values="0 0 0 0 0 0 0 0 0 0 0 0 0 0 0 0 0 0 0.15 0"/>
<feBlend mode="normal" in2="BackgroundImageFix" result="effect1_dropShadow_4251_22906"/>
<feBlend mode="normal" in="SourceGraphic" in2="effect1_dropShadow_4251_22906" result="shape"/>
</filter>
<filter id="filter2_d_4251_22906" x="158.188" y="139.211" width="57.6246" height="52.3359" filterUnits="userSpaceOnUse" color-interpolation-filters="sRGB">
<feFlood flood-opacity="0" result="BackgroundImageFix"/>
<feColorMatrix in="SourceAlpha" type="matrix" values="0 0 0 0 0 0 0 0 0 0 0 0 0 0 0 0 0 0 127 0" result="hardAlpha"/>
<feOffset dy="2"/>
<feGaussianBlur stdDeviation="5.25"/>
<feComposite in2="hardAlpha" operator="out"/>
<feColorMatrix type="matrix" values="0 0 0 0 0 0 0 0 0 0 0 0 0 0 0 0 0 0 0.15 0"/>
<feBlend mode="normal" in2="BackgroundImageFix" result="effect1_dropShadow_4251_22906"/>
<feBlend mode="normal" in="SourceGraphic" in2="effect1_dropShadow_4251_22906" result="shape"/>
</filter>
<filter id="filter3_d_4251_22906" x="166.188" y="250.211" width="57.6246" height="52.3359" filterUnits="userSpaceOnUse" color-interpolation-filters="sRGB">
<feFlood flood-opacity="0" result="BackgroundImageFix"/>
<feColorMatrix in="SourceAlpha" type="matrix" values="0 0 0 0 0 0 0 0 0 0 0 0 0 0 0 0 0 0 127 0" result="hardAlpha"/>
<feOffset dy="2"/>
<feGaussianBlur stdDeviation="5.25"/>
<feComposite in2="hardAlpha" operator="out"/>
<feColorMatrix type="matrix" values="0 0 0 0 0 0 0 0 0 0 0 0 0 0 0 0 0 0 0.15 0"/>
<feBlend mode="normal" in2="BackgroundImageFix" result="effect1_dropShadow_4251_22906"/>
<feBlend mode="normal" in="SourceGraphic" in2="effect1_dropShadow_4251_22906" result="shape"/>
</filter>
<linearGradient id="paint0_linear_4251_22906" x1="139" y1="315" x2="139" y2="202.5" gradientUnits="userSpaceOnUse">
<stop stop-color="#F5F5F5"/>
<stop offset="1" stop-color="#F5F5F5" stop-opacity="0"/>
</linearGradient>
<clipPath id="clip0_4251_22906">
<rect width="143" height="143" fill="white" transform="translate(30 30)"/>
</clipPath>
</defs>
</svg>
