<svg width="360" height="360" viewBox="0 0 360 360" fill="none" xmlns="http://www.w3.org/2000/svg">
<g clip-path="url(#clip0_2384_77066)">
<rect width="360" height="360" rx="8" fill="#9940FF"/>
<g clip-path="url(#clip1_2384_77066)">
<path d="M244.858 33.8323C242.48 33.7301 240.107 34.1376 237.899 35.0276C235.691 35.9176 233.699 37.2695 232.056 38.9925C228.741 42.6947 227.008 47.5484 227.23 52.5129C227.129 54.8614 227.497 57.2065 228.311 59.4116C229.125 61.6168 230.37 63.6381 231.972 65.358C233.565 66.994 235.484 68.2779 237.604 69.1266C239.724 69.9754 241.998 70.3702 244.28 70.2856C246.614 70.3735 248.94 69.9655 251.105 69.0885C253.269 68.2114 255.224 66.8853 256.838 65.1977C260.154 61.5453 261.889 56.7291 261.664 51.8015C261.882 47.0161 260.211 42.3366 257.012 38.7712C255.452 37.13 253.559 35.8404 251.461 34.9884C249.363 34.1364 247.107 33.7415 244.844 33.83L244.858 33.8323ZM30 34.424V69.6104H37.1226V50.1529C37.1226 47.5363 37.0165 44.4937 36.8042 41.0249H37.0301C37.0301 41.0249 37.904 45.2954 46.4855 69.6104H52.9465C61.5031 44.7353 62.2777 41.0272 62.2777 41.0272H62.4742C62.2077 43.5283 62.1096 46.0444 62.1806 48.5586V69.6081H69.9852V34.424H58.6938L51.535 55.2318C50.9819 56.8994 50.5161 58.5947 50.1394 60.3107H49.9926C49.7252 58.6008 49.3073 56.9179 48.7438 55.2815L41.5737 34.424H30ZM129.491 34.424V69.6736H136.968V50.3043C136.968 47.7449 136.903 45.8441 136.772 44.6021H136.869C137.406 45.6105 137.996 46.5905 138.635 47.5378L153.124 69.6871H161.121V34.4262H153.634V53.9198C153.595 55.5356 153.663 57.1523 153.835 58.7593H153.732C153.191 57.8093 152.603 56.851 151.968 55.8845L138.023 34.4307L129.491 34.424ZM171.007 34.424V69.6736H192.093V63.2352H178.927V55.1776H190.429V48.7302H178.927V40.8872H191.287V34.424H171.007ZM196.763 34.424V40.8872H206.743V69.6736H214.687V40.8872H224.712V34.424H196.763ZM269.358 34.424V69.6736H277.283V56.1781H279.417C279.886 56.1745 280.35 56.2797 280.772 56.4852C281.219 56.7114 281.626 57.0106 281.975 57.3704C282.391 57.7988 282.769 58.2628 283.104 58.757C283.484 59.299 283.872 59.9133 284.281 60.602L289.748 69.6713H298.84L292.21 59.2426C291.86 58.7006 291.485 58.1495 291.067 57.585C290.66 57.0334 290.222 56.5056 289.755 56.0042C289.32 55.5331 288.845 55.1008 288.335 54.7124C287.877 54.3606 287.362 54.0901 286.812 53.913V53.8227C287.956 53.5009 289.049 53.0204 290.06 52.3954C291.001 51.815 291.84 51.0842 292.544 50.232C293.232 49.3917 293.771 48.44 294.138 47.4182C294.521 46.324 294.71 45.1717 294.698 44.0127C294.698 37.6217 290.433 34.4262 281.903 34.4262L269.358 34.424ZM330 34.424H321.613C315.852 47.6733 315.308 49.2722 315.095 50.4578H314.996C314.544 48.7867 314.285 47.8269 308.521 34.424H299.477L310.633 57.2846V69.6736H318.553V57.1378L330 34.424ZM277.283 40.3723H280.864C284.545 40.3723 286.386 41.9132 286.386 44.995C286.399 45.69 286.265 46.3801 285.993 47.0196C285.72 47.6591 285.316 48.2337 284.805 48.7054C284.254 49.2085 283.608 49.5978 282.906 49.8508C282.204 50.1039 281.458 50.2158 280.713 50.18H277.283V40.3723ZM244.406 40.6636H244.436H244.641C245.872 40.6166 247.095 40.8694 248.207 41.4C249.318 41.9307 250.284 42.7234 251.021 43.71C252.71 46.2221 253.527 49.22 253.345 52.2419C253.519 55.1778 252.671 58.0834 250.944 60.4643C250.145 61.4003 249.151 62.1504 248.032 62.662C246.913 63.1737 245.695 63.4346 244.464 63.4264C243.234 63.4182 242.02 63.1412 240.907 62.6147C239.795 62.0882 238.811 61.325 238.024 60.3785C236.273 57.9831 235.406 55.0554 235.57 52.0928C235.426 49.1291 236.291 46.2042 238.024 43.7959C238.773 42.8139 239.739 42.0192 240.847 41.4745C241.955 40.9297 243.174 40.6498 244.409 40.6568L244.406 40.6636ZM97.5228 44.1414C97.4542 44.1427 97.3861 44.1518 97.3196 44.1685C95.1096 44.7378 93.1833 46.0936 91.9017 47.9818C90.6201 49.87 90.0713 52.1609 90.3582 54.4249C90.6452 56.6888 91.7481 58.7703 93.4602 60.2792C95.1723 61.788 97.376 62.6204 99.658 62.6204C101.94 62.6204 104.144 61.788 105.856 60.2792C107.568 58.7703 108.671 56.6888 108.958 54.4249C109.245 52.1609 108.696 49.87 107.414 47.9818C106.133 46.0936 104.206 44.7378 101.996 44.1685C101.862 44.1339 101.722 44.1305 101.587 44.1587C101.451 44.1868 101.324 44.2457 101.215 44.3308C101.106 44.4159 101.018 44.525 100.958 44.6495C100.897 44.7741 100.866 44.9108 100.867 45.0492V45.6793C100.867 45.8794 100.934 46.0738 101.057 46.232C101.179 46.3902 101.351 46.5032 101.545 46.5532C103.162 47.0067 104.56 48.0302 105.481 49.4347C106.402 50.8391 106.783 52.5295 106.554 54.1933C106.326 55.8571 105.502 57.3817 104.236 58.4854C102.97 59.5891 101.348 60.1971 99.6682 60.1971C97.9887 60.1971 96.3661 59.5891 95.1002 58.4854C93.8343 57.3817 93.0108 55.8571 92.782 54.1933C92.5532 52.5295 92.9344 50.8391 93.8553 49.4347C94.7762 48.0302 96.1745 47.0067 97.7915 46.5532C97.9853 46.5032 98.157 46.3902 98.2796 46.232C98.4023 46.0738 98.4689 45.8794 98.469 45.6793V45.0492C98.4691 44.9279 98.4447 44.8078 98.3974 44.6961C98.35 44.5844 98.2806 44.4833 98.1934 44.399C98.1061 44.3147 98.0028 44.2489 97.8895 44.2054C97.7762 44.1619 97.6554 44.1417 97.5341 44.1459L97.5228 44.1414Z" fill="white"/>
<path fill-rule="evenodd" clip-rule="evenodd" d="M83.0652 54.0191C82.9385 50.9178 83.7109 47.8459 85.2896 45.1734C86.7055 42.727 88.7223 40.6824 91.1491 39.2333C93.576 37.7841 96.3325 36.9784 99.1578 36.8923C101.738 36.7787 104.307 37.2941 106.644 38.3941C106.873 38.4807 107.095 38.5842 107.308 38.7034C107.951 39.0409 108.572 39.418 109.169 39.8326C109.96 40.3727 110.696 40.99 111.366 41.6753C111.702 41.9908 112.018 42.3256 112.315 42.678C113.276 43.7623 114.077 44.9792 114.693 46.2913C115.658 48.2954 116.203 50.4756 116.296 52.6981V54.2292C116.159 57.8975 114.795 61.4138 112.423 64.2153L111.215 65.5116C111.127 65.5974 111.048 65.6448 110.951 65.7374C108.5 67.9767 105.439 69.4375 102.156 69.9344C98.8739 70.4314 95.5178 69.9421 92.5139 68.5287C89.0233 66.8455 86.2249 64.0033 84.5963 60.4869C83.6248 58.4637 83.1024 56.2542 83.0652 54.0101V54.0191ZM98.7965 30H100.504C102.823 30.0901 105.118 30.509 107.319 31.2443C107.475 31.2963 107.608 31.3346 107.739 31.3843C109.949 32.2032 112.029 33.3382 113.913 34.7537L115.591 36.1425L118.014 38.7328C120.281 41.5167 121.87 44.7892 122.655 48.2921C123.212 50.6927 123.372 53.168 123.13 55.6203C122.8 59.373 121.565 62.9896 119.53 66.1597L118.737 67.386C118.963 67.7179 125.797 74.4725 126.415 75.0958C127.732 76.4146 128.348 76.9024 128.348 78.8039C128.279 79.6114 127.927 80.3687 127.355 80.9425C126.782 81.5163 126.026 81.8697 125.218 81.9406C123.292 81.9406 122.807 81.3038 121.474 79.9737C120.849 79.3481 114.117 72.5484 113.796 72.3316C112.195 73.5289 110.45 74.5212 108.602 75.2854C107.598 75.6954 106.568 76.0387 105.519 76.313C104.392 76.6029 103.245 76.8052 102.087 76.9182C99.6019 77.1479 97.0967 77.0033 94.6548 76.4891C91.5963 75.8172 88.7011 74.5462 86.1365 72.7494C85.739 72.4694 85.3913 72.1871 84.9893 71.8754C84.0419 71.1108 83.1492 70.2807 82.3177 69.3913L80.9628 67.7586C79.4293 65.7577 78.2332 63.5196 77.4218 61.1328C76.4858 58.4715 76.0628 55.6569 76.1752 52.8381C76.2014 51.1415 76.4289 49.4541 76.8527 47.8111C77.5448 44.9958 78.7606 42.3359 80.4366 39.9703C81.6135 38.3194 82.9911 36.8212 84.5376 35.5102C88.5437 32.1343 93.5635 30.1948 98.7987 30H98.7965Z" fill="white"/>
</g>
<g clip-path="url(#clip2_2384_77066)">
<circle cx="46.5" cy="306.5" r="32.5" fill="white"/>
<path fill-rule="evenodd" clip-rule="evenodd" d="M74.2604 323.375C68.5503 332.714 58.2587 338.944 46.5 338.944C34.7413 338.944 24.4496 332.714 18.7396 323.375H32.4844V306.41L46.3984 320.3L60.3689 306.162V323.375H74.2604Z" fill="#4D4D4E"/>
<path fill-rule="evenodd" clip-rule="evenodd" d="M46.5 274.056C64.454 274.056 79 288.577 79 306.5C79 310.071 78.4245 313.495 77.3524 316.706H67.4896V289.411L46.3082 310.69L32.4844 296.654V296.609L25.3524 289.411V316.706H15.6476C14.5755 313.495 14 310.071 14 306.5C14 288.577 28.546 274.056 46.5 274.056Z" fill="#F58220"/>
</g>
<g clip-path="url(#clip3_2384_77066)">
<circle cx="17.5" cy="219.5" r="27.5" fill="#F7EFFF"/>
<path fill-rule="evenodd" clip-rule="evenodd" d="M14.2416 211.171C15.7622 211.171 17.0004 212.407 17.0004 213.926C17.0004 215.444 15.7622 216.68 14.2416 216.68C12.721 216.68 11.4828 215.444 11.4828 213.926C11.4828 212.407 12.721 211.171 14.2416 211.171Z" fill="#2E3192"/>
<path fill-rule="evenodd" clip-rule="evenodd" d="M20.6933 211.171C22.2139 211.171 23.4521 212.407 23.4521 213.926C23.4521 215.444 22.2139 216.68 20.6933 216.68C19.1727 216.68 17.9344 215.444 17.9344 213.926C17.9344 212.386 19.1727 211.171 20.6933 211.171Z" fill="#2E3192"/>
<path fill-rule="evenodd" clip-rule="evenodd" d="M23.9734 216.745C25.494 216.745 26.7322 217.981 26.7322 219.5C26.7322 221.018 25.494 222.254 23.9734 222.254C22.4528 222.254 21.2146 221.018 21.2146 219.5C21.2146 217.981 22.4528 216.745 23.9734 216.745Z" fill="#2E3192"/>
<path fill-rule="evenodd" clip-rule="evenodd" d="M20.7367 222.341C22.2573 222.341 23.4955 223.578 23.4955 225.096C23.4955 226.614 22.2573 227.851 20.7367 227.851C19.2161 227.851 17.9779 226.614 17.9779 225.096C17.9779 223.578 19.2161 222.341 20.7367 222.341Z" fill="#2E3192"/>
<path fill-rule="evenodd" clip-rule="evenodd" d="M14.2633 222.363C15.7839 222.363 17.0221 223.6 17.0221 225.118C17.0221 226.636 15.7839 227.873 14.2633 227.873C12.7427 227.873 11.5045 226.636 11.5045 225.118C11.5045 223.6 12.7427 222.363 14.2633 222.363Z" fill="#2E3192"/>
<path fill-rule="evenodd" clip-rule="evenodd" d="M11.0266 216.767C12.5472 216.767 13.7854 218.003 13.7854 219.522C13.7854 221.04 12.5472 222.276 11.0266 222.276C9.50597 222.276 8.26776 221.04 8.26776 219.522C8.26776 218.003 9.50597 216.767 11.0266 216.767Z" fill="#2E3192"/>
<path fill-rule="evenodd" clip-rule="evenodd" d="M7.89845 223.448C8.78909 223.448 9.52766 224.164 9.52766 225.075C9.52766 225.964 8.81081 226.701 7.89845 226.701C7.00781 226.701 6.26923 225.986 6.26923 225.075C6.29095 224.164 7.00781 223.448 7.89845 223.448Z" fill="#2E3192"/>
<path fill-rule="evenodd" clip-rule="evenodd" d="M7.87672 212.386C8.76736 212.386 9.50594 213.102 9.50594 214.013C9.50594 214.902 8.78908 215.639 7.87672 215.639C6.98608 215.639 6.2475 214.923 6.2475 214.013C6.2475 213.102 6.96435 212.386 7.87672 212.386Z" fill="#2E3192"/>
<path fill-rule="evenodd" clip-rule="evenodd" d="M17.4566 206.833C18.3472 206.833 19.0858 207.549 19.0858 208.46C19.0858 209.349 18.3689 210.087 17.4566 210.087C16.5659 210.087 15.8273 209.371 15.8273 208.46C15.8273 207.549 16.5659 206.833 17.4566 206.833Z" fill="#2E3192"/>
<path fill-rule="evenodd" clip-rule="evenodd" d="M27.0798 212.342C27.9705 212.342 28.7091 213.058 28.7091 213.969C28.7091 214.858 27.9922 215.596 27.0798 215.596C26.1892 215.596 25.4506 214.88 25.4506 213.969C25.4506 213.058 26.1892 212.342 27.0798 212.342Z" fill="#2E3192"/>
<path fill-rule="evenodd" clip-rule="evenodd" d="M27.1015 223.404C27.9922 223.404 28.7307 224.12 28.7307 225.031C28.7307 225.92 28.0139 226.658 27.1015 226.658C26.2109 226.658 25.4723 225.942 25.4723 225.031C25.4723 224.142 26.1891 223.404 27.1015 223.404Z" fill="#2E3192"/>
<path fill-rule="evenodd" clip-rule="evenodd" d="M17.3914 228.957C18.282 228.957 19.0206 229.673 19.0206 230.584C19.0206 231.473 18.3037 232.211 17.3914 232.211C16.5007 232.211 15.7621 231.495 15.7621 230.584C15.7621 229.673 16.5007 228.957 17.3914 228.957Z" fill="#2E3192"/>
<path fill-rule="evenodd" clip-rule="evenodd" d="M10.3314 230.583C11.0917 230.583 11.7 231.191 11.7 231.95C11.7 232.709 11.0917 233.316 10.3314 233.316C9.57113 233.316 8.96289 232.709 8.96289 231.95C8.96289 231.213 9.57113 230.583 10.3314 230.583Z" fill="#2E3192"/>
<path fill-rule="evenodd" clip-rule="evenodd" d="M3.09767 218.177C3.85797 218.177 4.46622 218.784 4.46622 219.543C4.46622 220.302 3.85797 220.91 3.09767 220.91C2.33737 220.91 1.72913 220.302 1.72913 219.543C1.72913 218.784 2.35909 218.177 3.09767 218.177Z" fill="#2E3192"/>
<path fill-rule="evenodd" clip-rule="evenodd" d="M10.2663 205.727C11.0266 205.727 11.6348 206.334 11.6348 207.093C11.6348 207.852 11.0266 208.46 10.2663 208.46C9.50595 208.46 8.89771 207.852 8.89771 207.093C8.89771 206.334 9.50595 205.727 10.2663 205.727Z" fill="#2E3192"/>
<path fill-rule="evenodd" clip-rule="evenodd" d="M24.6686 205.705C25.4289 205.705 26.0371 206.312 26.0371 207.072C26.0371 207.831 25.4289 208.438 24.6686 208.438C23.9083 208.438 23.3 207.831 23.3 207.072C23.3 206.334 23.9083 205.705 24.6686 205.705Z" fill="#2E3192"/>
<path fill-rule="evenodd" clip-rule="evenodd" d="M31.8589 218.112C32.6192 218.112 33.2274 218.719 33.2274 219.478C33.2274 220.237 32.6192 220.845 31.8589 220.845C31.0986 220.845 30.4904 220.237 30.4904 219.478C30.4904 218.719 31.1203 218.112 31.8589 218.112Z" fill="#2E3192"/>
<path fill-rule="evenodd" clip-rule="evenodd" d="M24.712 230.562C25.4723 230.562 26.0805 231.169 26.0805 231.928C26.0805 232.688 25.4723 233.295 24.712 233.295C23.9517 233.295 23.3434 232.688 23.3434 231.928C23.3434 231.169 23.9517 230.562 24.712 230.562Z" fill="#2E3192"/>
<path fill-rule="evenodd" clip-rule="evenodd" d="M27.2753 235.42C27.775 235.42 28.1877 235.833 28.1877 236.331C28.1877 236.83 27.775 237.242 27.2753 237.242C26.7757 237.242 26.363 236.83 26.363 236.331C26.363 235.833 26.7757 235.42 27.2753 235.42Z" fill="#2E3192"/>
<path fill-rule="evenodd" clip-rule="evenodd" d="M7.78983 235.464C8.28946 235.464 8.70219 235.876 8.70219 236.375C8.70219 236.874 8.28946 237.286 7.78983 237.286C7.2902 237.286 6.87747 236.874 6.87747 236.375C6.85574 235.876 7.26848 235.464 7.78983 235.464Z" fill="#2E3192"/>
<path fill-rule="evenodd" clip-rule="evenodd" d="M7.70295 201.757C8.20258 201.757 8.61531 202.169 8.61531 202.668C8.61531 203.167 8.20258 203.579 7.70295 203.579C7.20332 203.579 6.79059 203.167 6.79059 202.668C6.79059 202.169 7.20332 201.757 7.70295 201.757Z" fill="#2E3192"/>
<path fill-rule="evenodd" clip-rule="evenodd" d="M27.2102 201.714C27.7098 201.714 28.1225 202.126 28.1225 202.625C28.1225 203.124 27.7098 203.536 27.2102 203.536C26.7105 203.536 26.2978 203.124 26.2978 202.625C26.2978 202.126 26.7105 201.714 27.2102 201.714Z" fill="#2E3192"/>
<path fill-rule="evenodd" clip-rule="evenodd" d="M36.9855 218.545C37.4851 218.545 37.8978 218.958 37.8978 219.456C37.8978 219.955 37.4851 220.367 36.9855 220.367C36.4859 220.367 36.0731 219.955 36.0731 219.456C36.0731 218.958 36.4859 218.545 36.9855 218.545Z" fill="#2E3192"/>
<path fill-rule="evenodd" clip-rule="evenodd" d="M32.8147 209.522C33.4446 209.522 33.9442 210.021 33.9442 210.65C33.9442 211.279 33.4446 211.778 32.8147 211.778C32.1847 211.778 31.6851 211.279 31.6851 210.65C31.6851 210.021 32.1847 209.522 32.8147 209.522Z" fill="#2E3192"/>
<path fill-rule="evenodd" clip-rule="evenodd" d="M17.4783 200.716C18.1082 200.716 18.6079 201.215 18.6079 201.844C18.6079 202.473 18.1082 202.972 17.4783 202.972C16.8483 202.972 16.3487 202.473 16.3487 201.844C16.3487 201.215 16.8483 200.716 17.4783 200.716Z" fill="#2E3192"/>
<path fill-rule="evenodd" clip-rule="evenodd" d="M2.14186 209.566C2.77182 209.566 3.27145 210.065 3.27145 210.694C3.27145 211.323 2.77182 211.822 2.14186 211.822C1.51189 211.822 1.01227 211.323 1.01227 210.694C1.01227 210.065 1.51189 209.566 2.14186 209.566Z" fill="#2E3192"/>
<path fill-rule="evenodd" clip-rule="evenodd" d="M2.18532 227.243C2.81528 227.243 3.31491 227.742 3.31491 228.371C3.31491 229 2.81528 229.499 2.18532 229.499C1.55535 229.499 1.05573 229 1.05573 228.371C1.05573 227.742 1.57707 227.243 2.18532 227.243Z" fill="#2E3192"/>
<path fill-rule="evenodd" clip-rule="evenodd" d="M17.4131 236.05C18.0431 236.05 18.5427 236.549 18.5427 237.178C18.5427 237.807 18.0431 238.306 17.4131 238.306C16.7831 238.306 16.2835 237.807 16.2835 237.178C16.2835 236.57 16.7831 236.05 17.4131 236.05Z" fill="#2E3192"/>
<path fill-rule="evenodd" clip-rule="evenodd" d="M32.8364 227.2C33.4663 227.2 33.966 227.699 33.966 228.328C33.966 228.957 33.4663 229.456 32.8364 229.456C32.2064 229.456 31.7068 228.957 31.7068 228.328C31.7068 227.699 32.2064 227.2 32.8364 227.2Z" fill="#2E3192"/>
</g>
<g clip-path="url(#clip4_2384_77066)">
<circle cx="145.5" cy="127.5" r="27.5" fill="#E8D2FF"/>
<path d="M145.913 108L137.469 120.028L133 139.224L145.913 146.896L158.897 139.224L154.508 120.028L145.913 108ZM154.158 120.092L151.939 127.124L146.08 116.929V108.777L154.158 120.092ZM145.913 117.282L151.804 127.54L148.21 138.912H143.646L140.092 127.46L145.913 117.282ZM145.754 108.785V116.913L139.965 127.036L137.81 120.092L145.754 108.785ZM137.612 120.677L139.735 127.452L133.612 138.151L137.612 120.677ZM139.909 127.932L143.32 138.912H133.588L139.909 127.932ZM133.731 139.232H143.424L145.65 146.383L133.731 139.232ZM143.837 139.232H148.107L145.913 146.199L143.837 139.232ZM146.191 146.383L148.449 139.232L158.205 139.24L146.191 146.383ZM148.552 138.912L152.027 127.924L153.76 130.936L158.348 138.912H148.552ZM154.031 130.759L152.178 127.54L154.325 120.669L158.348 138.263L154.031 130.759Z" fill="black" stroke="black" stroke-width="0.5"/>
</g>
<g clip-path="url(#clip5_2384_77066)">
<circle cx="339.5" cy="146.5" r="27.5" fill="#F78F20"/>
<g clip-path="url(#clip6_2384_77066)">
<path fill-rule="evenodd" clip-rule="evenodd" d="M349.08 152.641C348.821 151.487 348.278 150.59 347.527 149.949C347.268 149.667 346.957 149.487 346.595 149.282C346.413 149.18 346.284 149.103 346.051 149.026C345.662 148.872 345.145 148.692 344.497 148.769C344.808 148.615 345.3 148.59 345.792 148.615C346.206 148.667 346.543 148.769 346.905 148.872C347.19 149.026 347.501 149.18 347.786 149.359C348.511 147.256 348.226 144.359 347.423 142.513C346.646 140.564 345.533 138.949 344.083 137.692C342.659 136.385 340.924 135.385 338.645 134.923C337.532 134.692 336.108 134.718 335.072 134.949C333.985 135.231 333.104 135.692 332.302 136.256C331.577 136.898 330.878 137.564 330.386 138.436C330.204 138.615 330.127 138.872 329.997 139.077C329.894 139.333 329.79 139.564 329.661 139.795C329.505 140.308 329.298 140.795 329.195 141.359C328.936 142.41 328.884 143.872 329.065 145C329.195 146.231 329.557 147.205 329.945 148.18C330.179 148.641 330.386 149.103 330.67 149.539C330.929 149.974 331.24 150.333 331.525 150.718C332.172 151.41 332.871 152.077 333.7 152.615C335.357 153.692 337.273 154.513 339.862 154.641C339.914 154.539 339.785 154.333 339.759 154.18C339.707 154.026 339.707 153.846 339.655 153.692C339.629 153.333 339.604 152.949 339.655 152.59C339.759 152.615 339.759 152.744 339.811 152.821C339.862 152.872 339.888 152.974 339.966 153.026C340.044 153.205 340.173 153.308 340.251 153.487C340.484 153.744 340.691 154.051 341.002 154.231C341.261 154.487 341.571 154.641 341.882 154.846C342.193 155 342.478 155.231 342.866 155.333C343.513 155.667 344.368 155.795 345.248 155.923C346.129 156.051 346.957 156.18 347.76 156.385C348.485 156.641 349.236 156.872 349.831 157.256C350.142 157.436 350.453 157.615 350.737 157.846C350.867 157.949 351.048 158.026 351.152 158.18C351.333 158.256 351.411 158.41 351.566 158.462C352.058 158.949 352.576 159.41 352.99 159.974C353.171 160.282 353.404 160.539 353.534 160.898C353.663 161.026 353.689 161.231 353.793 161.385C353.793 161.564 353.974 161.795 353.819 161.923C353.586 161.949 353.637 161.718 353.534 161.59C353.456 161.462 353.353 161.359 353.301 161.205C352.912 160.821 352.576 160.385 352.162 160.026C351.747 159.667 351.333 159.308 350.867 159.026C349.961 158.385 348.899 157.898 347.682 157.59C346.465 157.256 345.119 157.103 343.565 157.205C342.866 157.282 342.219 157.41 341.649 157.615C341.028 157.769 340.354 157.846 339.655 157.949C336.988 158.103 334.037 157.487 332.043 156.539C330.981 156.051 330.023 155.487 329.195 154.769C328.754 154.436 328.366 154.026 328.004 153.641C327.667 153.231 327.279 152.821 327.02 152.333C326.683 151.898 326.476 151.333 326.165 150.846C325.984 150.282 325.699 149.769 325.57 149.154C325.362 148.59 325.259 147.923 325.181 147.231C325.181 147.026 325.078 146.667 325.078 146.359C325.078 146.333 325.104 146.308 325.104 146.256C325.078 145.974 325.026 145.564 325.104 145.333C325.078 144.692 325.207 143.923 325.337 143.308C325.44 142.667 325.621 142.077 325.829 141.513C326.01 140.923 326.269 140.41 326.502 139.872C326.657 139.641 326.787 139.385 326.916 139.128C327.045 138.872 327.227 138.692 327.33 138.41C327.46 138.333 327.486 138.18 327.589 138.077C327.641 137.923 327.77 137.872 327.822 137.718C327.926 137.641 328.004 137.513 328.081 137.385C328.185 137.282 328.288 137.205 328.34 137.051C328.729 136.667 329.065 136.256 329.479 135.898C329.894 135.513 330.334 135.205 330.748 134.846C331.007 134.718 331.214 134.513 331.473 134.385C331.68 134.205 331.965 134.103 332.146 133.923C332.69 133.692 333.156 133.385 333.726 133.18C334.244 132.923 334.839 132.769 335.409 132.564C336.652 132.256 337.92 132.026 339.474 132.077C339.526 132.077 339.552 132.026 339.578 132.077C342.529 132.154 344.679 133.051 346.491 134.231C348.304 135.436 349.702 137.026 350.712 139.026C351.695 141 352.239 143.692 351.773 146.513C351.54 147.795 351.152 148.923 350.712 149.949C350.453 150.436 350.22 150.949 349.909 151.385C349.779 151.615 349.624 151.846 349.443 152.051C349.391 152.18 349.313 152.282 349.21 152.385C349.184 152.436 349.132 152.487 349.08 152.539C349.054 152.564 349.054 152.59 349.003 152.615C349.106 152.667 349.08 152.692 349.08 152.641Z" fill="white"/>
<path fill-rule="evenodd" clip-rule="evenodd" d="M348.278 153.487C347.889 153.333 347.837 152.872 347.656 152.513C347.63 152.385 347.604 152.18 347.656 152.051C347.682 152.051 347.682 152.026 347.734 152.026C347.837 151.974 347.915 152.051 348.071 152.103C348.252 152.308 348.381 152.59 348.459 152.897C348.459 153.154 348.485 153.436 348.278 153.487Z" fill="white"/>
<path fill-rule="evenodd" clip-rule="evenodd" d="M345.429 152.949C345.429 152.923 345.455 152.923 345.455 152.949C346.025 153.026 346.284 153.41 346.336 154C346.284 154.334 346.103 154.539 345.792 154.616C345.015 154.641 344.575 153.923 344.86 153.205C344.989 153.077 345.119 152.898 345.429 152.949Z" fill="white"/>
</g>
</g>
<g clip-path="url(#clip7_2384_77066)">
<circle cx="141" cy="283" r="46" fill="#3AB83A"/>
<g clip-path="url(#clip8_2384_77066)">
<path d="M122.244 280.215C129.071 276.612 136.185 272.836 141.693 269.917L160.983 280.212C153.999 269.887 148.181 261.299 141.693 251.793C135.197 261.279 128.018 271.749 122.244 280.215ZM122.99 283.059L141.715 293L160.199 283.131L141.731 273.182L122.99 283.059ZM141.689 296.192L122.246 286.006L141.605 314.207L160.976 285.944L141.689 296.192Z" fill="white"/>
<path d="M141.693 269.917L160.983 280.212C153.999 269.887 141.693 251.793 141.693 251.793L141.693 269.917ZM141.715 293L160.198 283.131L141.731 273.182L141.715 293ZM141.689 296.192L141.605 314.207L160.976 285.944L141.689 296.192Z" fill="#BEF7BE"/>
<path d="M122.99 283.059L141.715 281.535L160.198 283.131L141.731 273.182L122.99 283.059Z" fill="#BEF7BE"/>
<path d="M141.715 281.535L160.199 283.131L141.731 273.182L141.715 281.535H141.715Z" fill="#71C773"/>
</g>
</g>
<g clip-path="url(#clip9_2384_77066)">
<circle cx="306.5" cy="278.5" r="38.5" fill="#F3E8FF"/>
<g clip-path="url(#clip10_2384_77066)">
<path d="M316.451 300.825C316.364 300.825 316.277 300.825 316.189 300.825C313.747 300.737 311.828 298.543 311.915 296.086C312.787 279.413 299.702 271.953 299.528 271.866C297.347 270.637 296.562 267.917 297.783 265.723C299.004 263.529 301.709 262.739 303.889 263.88C304.674 264.319 322.034 274.235 320.9 296.525C320.813 298.982 318.806 300.825 316.451 300.825Z" fill="#F8BD00"/>
<path d="M301.185 295.472C301.098 295.472 301.185 295.472 301.185 295.472C298.743 295.472 296.823 293.717 296.823 291.259C296.911 281.606 286.966 276.166 286.879 276.078C284.785 274.937 284 272.304 285.134 270.198C286.268 268.092 288.885 267.302 290.979 268.443C291.589 268.794 305.547 276.429 305.46 291.259C305.46 293.804 303.54 295.472 301.185 295.472Z" fill="#478AF6"/>
<path d="M316.451 300.474C316.364 300.474 316.277 300.474 316.189 300.474C313.747 300.386 311.828 298.192 311.915 295.735C312.787 279.062 299.702 271.602 299.528 271.515C297.347 270.286 296.562 267.566 297.783 265.372C299.004 263.178 301.709 262.388 303.889 263.529C304.674 263.968 322.034 273.884 320.9 296.174C320.813 298.631 318.806 300.474 316.451 300.474Z" fill="#F8BD00"/>
<path d="M301.098 295.472C301.098 295.472 301.185 295.472 301.098 295.472C303.541 295.472 305.46 293.716 305.46 291.347C305.46 285.643 303.453 280.992 300.836 277.394C299.615 278.447 297.521 280.378 294.294 283.186C295.689 285.38 296.736 288.1 296.736 291.259C296.823 293.716 298.743 295.472 301.098 295.472Z" fill="#336ECC"/>
<path d="M301.185 295.911C300.313 295.911 299.44 295.647 298.655 295.121C296.736 293.717 296.213 290.996 297.609 289.066C303.017 281.255 297.696 269.76 297.609 269.584C296.562 267.39 297.434 264.845 299.615 263.704C301.796 262.651 304.326 263.529 305.46 265.723C305.809 266.337 313.223 281.957 304.762 294.068C303.889 295.296 302.494 295.911 301.185 295.911Z" fill="#D9413C"/>
<path d="M311.828 278.886C310.955 279.851 309.909 280.992 309.036 281.869C310.955 285.467 312.264 290.118 311.915 295.735C311.828 296.788 312.177 297.753 312.7 298.543H319.504C319.504 298.543 320.028 298.016 320.726 297.227C320.813 296.875 320.9 296.612 320.9 296.261C321.336 287.398 318.894 280.465 315.666 275.375C314.445 276.341 312.787 277.745 311.828 278.886Z" fill="#C69800"/>
<path d="M316.364 300.825C315.753 300.825 315.055 300.649 314.445 300.386C312.177 299.333 311.13 296.612 312.177 294.331C319.417 278.447 312.526 264.757 312.438 264.669C311.304 262.388 312.177 259.667 314.358 258.527C316.626 257.386 319.33 258.263 320.464 260.457C320.813 261.159 329.449 278.272 320.377 298.192C319.766 299.859 318.109 300.825 316.364 300.825Z" fill="#0AA25A"/>
</g>
</g>
<g filter="url(#filter0_d_2384_77066)">
<g filter="url(#filter1_i_2384_77066)">
<circle cx="101.574" cy="198.574" r="71.5742" fill="url(#paint0_linear_2384_77066)"/>
</g>
<g filter="url(#filter2_i_2384_77066)">
<circle cx="101.5" cy="198.5" r="55.5" fill="url(#paint1_linear_2384_77066)"/>
</g>
<g filter="url(#filter3_i_2384_77066)">
<circle cx="102" cy="199" r="53" fill="url(#paint2_linear_2384_77066)"/>
</g>
<circle cx="102" cy="199" r="51.8903" stroke="#DD7F0F" stroke-width="2.21935"/>
<path d="M128.848 189.955C130.055 181.865 123.913 177.515 115.515 174.614L118.239 163.653L111.587 161.991L108.935 172.662C107.186 172.225 105.39 171.813 103.605 171.404L106.277 160.663L99.6287 159L96.9024 169.956C95.4549 169.626 94.034 169.299 92.6548 168.955L92.6624 168.921L83.4889 166.623L81.7194 173.749C81.7194 173.749 86.6547 174.883 86.5505 174.954C89.2446 175.628 89.7315 177.416 89.65 178.834L86.5467 191.32C86.7324 191.367 86.973 191.436 87.2383 191.542C87.0166 191.487 86.7798 191.426 86.5354 191.367L82.1855 208.858C81.8558 209.679 81.0203 210.91 79.1371 210.443C79.2034 210.54 74.3022 209.233 74.3022 209.233L71 216.869L79.6562 219.034C81.2666 219.438 82.8448 219.862 84.3983 220.261L81.6455 231.347L88.2897 233.009L91.016 222.041C92.831 222.535 94.5929 222.992 96.317 223.421L93.6002 234.337L100.252 236L103.005 224.935C114.347 227.088 122.877 226.22 126.467 215.931C129.36 207.646 126.323 202.867 120.355 199.751C124.701 198.746 127.975 195.878 128.848 189.955ZM113.65 211.33C111.595 219.615 97.6867 215.136 93.1777 214.013L96.8304 199.327C101.339 200.456 115.799 202.69 113.65 211.33ZM115.708 189.836C113.832 197.372 102.256 193.543 98.5014 192.604L101.813 179.284C105.568 180.223 117.661 181.975 115.708 189.836Z" fill="white"/>
</g>
<g filter="url(#filter4_d_2384_77066)">
<g filter="url(#filter5_i_2384_77066)">
<circle cx="258.574" cy="198.574" r="71.5742" fill="url(#paint3_linear_2384_77066)"/>
</g>
<g filter="url(#filter6_i_2384_77066)">
<circle cx="258.5" cy="198.5" r="55.5" fill="url(#paint4_linear_2384_77066)"/>
</g>
<g filter="url(#filter7_i_2384_77066)">
<circle cx="259" cy="199" r="53" fill="url(#paint5_linear_2384_77066)"/>
</g>
<circle cx="259" cy="199" r="51.8903" stroke="#47BFEC" stroke-width="2.21935"/>
</g>
<g clip-path="url(#clip11_2384_77066)">
<path d="M281.33 183.087C282.144 177.901 281.33 174.364 278.495 171.156C275.389 167.649 269.764 166.135 262.571 166.135H241.702C240.239 166.135 238.987 167.199 238.746 168.638L230.06 223.422C229.894 224.501 230.724 225.475 231.825 225.475H244.718L243.828 231.081C243.677 232.026 244.416 232.88 245.381 232.88H256.238C257.52 232.88 258.621 231.951 258.817 230.692L258.922 230.137L260.973 217.247L261.109 216.527C261.305 215.268 262.406 214.339 263.687 214.339H265.316C275.841 214.339 284.075 210.082 286.487 197.806C287.498 192.665 286.97 188.378 284.316 185.365C283.502 184.466 282.506 183.702 281.33 183.087Z" fill="#009ADE"/>
<path d="M281.33 183.087C282.144 177.901 281.33 174.364 278.495 171.156C275.389 167.649 269.764 166.135 262.571 166.135H241.702C240.239 166.135 238.987 167.199 238.746 168.638L230.06 223.422C229.894 224.501 230.724 225.475 231.825 225.475H244.718L247.96 205.076L247.854 205.72C248.08 204.281 249.317 203.217 250.794 203.217H256.917C268.95 203.217 278.36 198.361 281.119 184.316C281.194 183.897 281.27 183.492 281.33 183.087Z" fill="#002169"/>
<path d="M251.428 183.162C251.564 182.293 252.121 181.588 252.875 181.229C253.222 181.064 253.599 180.974 254.006 180.974H270.368C272.313 180.974 274.107 181.094 275.766 181.363C276.233 181.438 276.701 181.528 277.138 181.618C277.591 181.723 278.013 181.828 278.435 181.948C278.646 182.008 278.857 182.068 279.053 182.143C279.868 182.413 280.621 182.727 281.315 183.087C282.129 177.901 281.315 174.364 278.48 171.156C275.389 167.649 269.764 166.135 262.571 166.135H241.702C240.239 166.135 238.987 167.199 238.746 168.638L230.06 223.422C229.894 224.501 230.724 225.475 231.825 225.475H244.718L247.96 205.076L251.428 183.162Z" fill="#002F87"/>
</g>
<g clip-path="url(#clip12_2384_77066)">
<circle cx="251.5" cy="313.5" r="32.5" fill="#0761AF"/>
<path fill-rule="evenodd" clip-rule="evenodd" d="M251.91 292C255.22 292 258.287 292.727 261.032 294.099C261.436 294.341 261.92 294.503 262.324 294.745L260.387 296.44L257.48 293.534L252.636 297.893L249.73 294.745L240.688 302.98L246.501 309.357L244.24 311.376L249.972 317.834L247.712 319.853L255.866 328.975L260.709 324.535L264.908 329.298C264.1 329.944 263.131 330.59 262.163 331.155C259.095 332.85 255.623 333.9 251.91 333.9C240.365 333.819 231 324.374 231 312.91C231 301.446 240.365 292 251.91 292Z" fill="white"/>
<path fill-rule="evenodd" clip-rule="evenodd" d="M248.034 311.618L253.04 307.097L257.48 312.102L252.555 316.542L248.034 311.618Z" fill="white"/>
<path fill-rule="evenodd" clip-rule="evenodd" d="M251.587 320.176L256.592 315.735L261.032 320.66L256.027 325.1L251.587 320.176Z" fill="white"/>
<path fill-rule="evenodd" clip-rule="evenodd" d="M244.482 303.141L249.488 298.62L253.928 303.626L249.003 308.066L244.482 303.141Z" fill="white"/>
<path fill-rule="evenodd" clip-rule="evenodd" d="M253.605 300.719L257.319 297.328L260.709 301.042L256.996 304.433L253.605 300.719Z" fill="white"/>
<path fill-rule="evenodd" clip-rule="evenodd" d="M260.225 316.058L263.939 312.748L267.329 316.462L263.616 319.772L260.225 316.058Z" fill="white"/>
<path fill-rule="evenodd" clip-rule="evenodd" d="M263.535 323.566L267.249 320.256L270.559 323.97L266.845 327.28L263.535 323.566Z" fill="white"/>
<path fill-rule="evenodd" clip-rule="evenodd" d="M264.988 306.37L267.491 304.11L269.751 306.613L267.249 308.792L264.988 306.37Z" fill="white"/>
<path fill-rule="evenodd" clip-rule="evenodd" d="M261.84 298.943L264.342 296.763L266.522 299.185L264.1 301.446L261.84 298.943Z" fill="white"/>
<path fill-rule="evenodd" clip-rule="evenodd" d="M268.218 313.717L270.639 311.457L272.9 313.959L270.397 316.22L268.218 313.717Z" fill="white"/>
<path fill-rule="evenodd" clip-rule="evenodd" d="M257.077 308.227L260.79 304.836L264.1 308.55L260.387 311.941L257.077 308.227Z" fill="white"/>
</g>
<g filter="url(#filter8_d_2384_77066)">
<circle cx="180" cy="199" r="31" fill="#380F67"/>
</g>
<circle cx="5" cy="5" r="5" transform="matrix(-1 0 0 1 185 194)" fill="#9740FB"/>
<path d="M164 199C164 194.757 165.686 190.687 168.686 187.686C171.687 184.686 175.757 183 180 183C184.243 183 188.313 184.686 191.314 187.686C193.102 189.474 194.423 191.642 195.199 194" stroke="white" stroke-width="4"/>
<path d="M196 199C196 203.243 194.314 207.313 191.314 210.314C188.313 213.314 184.243 215 180 215C175.757 215 171.687 213.314 168.686 210.314C166.898 208.526 165.577 206.358 164.801 204" stroke="white" stroke-width="4"/>
<path d="M163.011 201.287L170.486 204.512L162.391 209.404L163.011 201.287Z" fill="white"/>
<path d="M197.475 197.117L190 193.892L198.094 189L197.475 197.117Z" fill="white"/>
</g>
<defs>
<filter id="filter0_d_2384_77066" x="4" y="101" width="203.148" height="203.148" filterUnits="userSpaceOnUse" color-interpolation-filters="sRGB">
<feFlood flood-opacity="0" result="BackgroundImageFix"/>
<feColorMatrix in="SourceAlpha" type="matrix" values="0 0 0 0 0 0 0 0 0 0 0 0 0 0 0 0 0 0 127 0" result="hardAlpha"/>
<feOffset dx="4" dy="4"/>
<feGaussianBlur stdDeviation="15"/>
<feComposite in2="hardAlpha" operator="out"/>
<feColorMatrix type="matrix" values="0 0 0 0 0.0689619 0 0 0 0 0.0171875 0 0 0 0 0.125 0 0 0 0.5 0"/>
<feBlend mode="normal" in2="BackgroundImageFix" result="effect1_dropShadow_2384_77066"/>
<feBlend mode="normal" in="SourceGraphic" in2="effect1_dropShadow_2384_77066" result="shape"/>
</filter>
<filter id="filter1_i_2384_77066" x="30" y="127" width="143.148" height="143.148" filterUnits="userSpaceOnUse" color-interpolation-filters="sRGB">
<feFlood flood-opacity="0" result="BackgroundImageFix"/>
<feBlend mode="normal" in="SourceGraphic" in2="BackgroundImageFix" result="shape"/>
<feColorMatrix in="SourceAlpha" type="matrix" values="0 0 0 0 0 0 0 0 0 0 0 0 0 0 0 0 0 0 127 0" result="hardAlpha"/>
<feOffset/>
<feGaussianBlur stdDeviation="5.54839"/>
<feComposite in2="hardAlpha" operator="arithmetic" k2="-1" k3="1"/>
<feColorMatrix type="matrix" values="0 0 0 0 0.980392 0 0 0 0 0.662745 0 0 0 0 0.290196 0 0 0 1 0"/>
<feBlend mode="overlay" in2="shape" result="effect1_innerShadow_2384_77066"/>
</filter>
<filter id="filter2_i_2384_77066" x="46" y="143" width="111" height="111" filterUnits="userSpaceOnUse" color-interpolation-filters="sRGB">
<feFlood flood-opacity="0" result="BackgroundImageFix"/>
<feBlend mode="normal" in="SourceGraphic" in2="BackgroundImageFix" result="shape"/>
<feColorMatrix in="SourceAlpha" type="matrix" values="0 0 0 0 0 0 0 0 0 0 0 0 0 0 0 0 0 0 127 0" result="hardAlpha"/>
<feOffset/>
<feGaussianBlur stdDeviation="5.54839"/>
<feComposite in2="hardAlpha" operator="arithmetic" k2="-1" k3="1"/>
<feColorMatrix type="matrix" values="0 0 0 0 1 0 0 0 0 0.52 0 0 0 0 0.25 0 0 0 1 0"/>
<feBlend mode="overlay" in2="shape" result="effect1_innerShadow_2384_77066"/>
</filter>
<filter id="filter3_i_2384_77066" x="49" y="146" width="106" height="106" filterUnits="userSpaceOnUse" color-interpolation-filters="sRGB">
<feFlood flood-opacity="0" result="BackgroundImageFix"/>
<feBlend mode="normal" in="SourceGraphic" in2="BackgroundImageFix" result="shape"/>
<feColorMatrix in="SourceAlpha" type="matrix" values="0 0 0 0 0 0 0 0 0 0 0 0 0 0 0 0 0 0 127 0" result="hardAlpha"/>
<feOffset/>
<feGaussianBlur stdDeviation="5.54839"/>
<feComposite in2="hardAlpha" operator="arithmetic" k2="-1" k3="1"/>
<feColorMatrix type="matrix" values="0 0 0 0 0.980392 0 0 0 0 0.662745 0 0 0 0 0.290196 0 0 0 1 0"/>
<feBlend mode="overlay" in2="shape" result="effect1_innerShadow_2384_77066"/>
</filter>
<filter id="filter4_d_2384_77066" x="161" y="101" width="203.148" height="203.148" filterUnits="userSpaceOnUse" color-interpolation-filters="sRGB">
<feFlood flood-opacity="0" result="BackgroundImageFix"/>
<feColorMatrix in="SourceAlpha" type="matrix" values="0 0 0 0 0 0 0 0 0 0 0 0 0 0 0 0 0 0 127 0" result="hardAlpha"/>
<feOffset dx="4" dy="4"/>
<feGaussianBlur stdDeviation="15"/>
<feComposite in2="hardAlpha" operator="out"/>
<feColorMatrix type="matrix" values="0 0 0 0 0.0689619 0 0 0 0 0.0171875 0 0 0 0 0.125 0 0 0 0.5 0"/>
<feBlend mode="normal" in2="BackgroundImageFix" result="effect1_dropShadow_2384_77066"/>
<feBlend mode="normal" in="SourceGraphic" in2="effect1_dropShadow_2384_77066" result="shape"/>
</filter>
<filter id="filter5_i_2384_77066" x="187" y="127" width="143.148" height="143.148" filterUnits="userSpaceOnUse" color-interpolation-filters="sRGB">
<feFlood flood-opacity="0" result="BackgroundImageFix"/>
<feBlend mode="normal" in="SourceGraphic" in2="BackgroundImageFix" result="shape"/>
<feColorMatrix in="SourceAlpha" type="matrix" values="0 0 0 0 0 0 0 0 0 0 0 0 0 0 0 0 0 0 127 0" result="hardAlpha"/>
<feOffset/>
<feGaussianBlur stdDeviation="5.54839"/>
<feComposite in2="hardAlpha" operator="arithmetic" k2="-1" k3="1"/>
<feColorMatrix type="matrix" values="0 0 0 0 0.625 0 0 0 0 0.892265 0 0 0 0 1 0 0 0 1 0"/>
<feBlend mode="overlay" in2="shape" result="effect1_innerShadow_2384_77066"/>
</filter>
<filter id="filter6_i_2384_77066" x="203" y="143" width="111" height="111" filterUnits="userSpaceOnUse" color-interpolation-filters="sRGB">
<feFlood flood-opacity="0" result="BackgroundImageFix"/>
<feBlend mode="normal" in="SourceGraphic" in2="BackgroundImageFix" result="shape"/>
<feColorMatrix in="SourceAlpha" type="matrix" values="0 0 0 0 0 0 0 0 0 0 0 0 0 0 0 0 0 0 127 0" result="hardAlpha"/>
<feOffset/>
<feGaussianBlur stdDeviation="5.54839"/>
<feComposite in2="hardAlpha" operator="arithmetic" k2="-1" k3="1"/>
<feColorMatrix type="matrix" values="0 0 0 0 1 0 0 0 0 0.52 0 0 0 0 0.25 0 0 0 1 0"/>
<feBlend mode="overlay" in2="shape" result="effect1_innerShadow_2384_77066"/>
</filter>
<filter id="filter7_i_2384_77066" x="206" y="146" width="106" height="106" filterUnits="userSpaceOnUse" color-interpolation-filters="sRGB">
<feFlood flood-opacity="0" result="BackgroundImageFix"/>
<feBlend mode="normal" in="SourceGraphic" in2="BackgroundImageFix" result="shape"/>
<feColorMatrix in="SourceAlpha" type="matrix" values="0 0 0 0 0 0 0 0 0 0 0 0 0 0 0 0 0 0 127 0" result="hardAlpha"/>
<feOffset/>
<feGaussianBlur stdDeviation="5.54839"/>
<feComposite in2="hardAlpha" operator="arithmetic" k2="-1" k3="1"/>
<feColorMatrix type="matrix" values="0 0 0 0 0.980392 0 0 0 0 0.662745 0 0 0 0 0.290196 0 0 0 1 0"/>
<feBlend mode="overlay" in2="shape" result="effect1_innerShadow_2384_77066"/>
</filter>
<filter id="filter8_d_2384_77066" x="123" y="142" width="122" height="122" filterUnits="userSpaceOnUse" color-interpolation-filters="sRGB">
<feFlood flood-opacity="0" result="BackgroundImageFix"/>
<feColorMatrix in="SourceAlpha" type="matrix" values="0 0 0 0 0 0 0 0 0 0 0 0 0 0 0 0 0 0 127 0" result="hardAlpha"/>
<feOffset dx="4" dy="4"/>
<feGaussianBlur stdDeviation="15"/>
<feComposite in2="hardAlpha" operator="out"/>
<feColorMatrix type="matrix" values="0 0 0 0 0.0689619 0 0 0 0 0.0171875 0 0 0 0 0.125 0 0 0 0.5 0"/>
<feBlend mode="normal" in2="BackgroundImageFix" result="effect1_dropShadow_2384_77066"/>
<feBlend mode="normal" in="SourceGraphic" in2="effect1_dropShadow_2384_77066" result="shape"/>
</filter>
<linearGradient id="paint0_linear_2384_77066" x1="101.574" y1="127" x2="101.574" y2="270.148" gradientUnits="userSpaceOnUse">
<stop stop-color="#FAAA4A"/>
<stop offset="1" stop-color="#DE8214"/>
</linearGradient>
<linearGradient id="paint1_linear_2384_77066" x1="101.5" y1="143" x2="101.5" y2="254" gradientUnits="userSpaceOnUse">
<stop stop-color="#E18618"/>
<stop offset="1" stop-color="#FAAA4B"/>
</linearGradient>
<linearGradient id="paint2_linear_2384_77066" x1="102" y1="146" x2="102" y2="252" gradientUnits="userSpaceOnUse">
<stop stop-color="#FAAA4B"/>
<stop offset="1" stop-color="#E58B15"/>
</linearGradient>
<linearGradient id="paint3_linear_2384_77066" x1="258.574" y1="127" x2="258.574" y2="270.148" gradientUnits="userSpaceOnUse">
<stop stop-color="#9EE1FF"/>
<stop offset="1" stop-color="#2FBFFF"/>
</linearGradient>
<linearGradient id="paint4_linear_2384_77066" x1="258.5" y1="143" x2="258.5" y2="254" gradientUnits="userSpaceOnUse">
<stop stop-color="#32C4FF"/>
<stop offset="1" stop-color="#63F6FF"/>
</linearGradient>
<linearGradient id="paint5_linear_2384_77066" x1="259" y1="146" x2="259" y2="252" gradientUnits="userSpaceOnUse">
<stop stop-color="#A1E6FF"/>
<stop offset="1" stop-color="#35D6FF"/>
</linearGradient>
<clipPath id="clip0_2384_77066">
<rect width="360" height="360" rx="8" fill="white"/>
</clipPath>
<clipPath id="clip1_2384_77066">
<rect width="300" height="52" fill="white" transform="translate(30 30)"/>
</clipPath>
<clipPath id="clip2_2384_77066">
<rect width="65" height="65" fill="white" transform="translate(14 274)"/>
</clipPath>
<clipPath id="clip3_2384_77066">
<rect width="55" height="55" fill="white" transform="translate(-10 192)"/>
</clipPath>
<clipPath id="clip4_2384_77066">
<rect width="55" height="55" fill="white" transform="translate(118 100)"/>
</clipPath>
<clipPath id="clip5_2384_77066">
<rect width="55" height="55" fill="white" transform="translate(312 119)"/>
</clipPath>
<clipPath id="clip6_2384_77066">
<rect width="29" height="30" fill="white" transform="translate(325 132)"/>
</clipPath>
<clipPath id="clip7_2384_77066">
<rect width="92" height="92" fill="white" transform="translate(95 237)"/>
</clipPath>
<clipPath id="clip8_2384_77066">
<rect width="39.2533" height="62.56" fill="white" transform="matrix(1 0 0 -1 121.987 314.28)"/>
</clipPath>
<clipPath id="clip9_2384_77066">
<rect width="77" height="77" fill="white" transform="translate(268 240)"/>
</clipPath>
<clipPath id="clip10_2384_77066">
<rect width="41" height="43" fill="white" transform="translate(284 258)"/>
</clipPath>
<clipPath id="clip11_2384_77066">
<rect width="57" height="67" fill="white" transform="translate(230 166)"/>
</clipPath>
<clipPath id="clip12_2384_77066">
<rect width="65" height="65" fill="white" transform="translate(219 281)"/>
</clipPath>
</defs>
</svg>
