<svg width="360" height="360" viewBox="0 0 360 360" fill="none" xmlns="http://www.w3.org/2000/svg">
<g clip-path="url(#clip0_5047_51201)">
<rect width="360" height="360" rx="8" fill="#FFF6D7"/>
<circle cx="43.2094" cy="43.2094" r="43.2094" transform="matrix(-1 0 0 1 381.891 128.125)" fill="white"/>
<circle cx="61.1255" cy="61.1255" r="61.1255" transform="matrix(-1 0 0 1 202.73 92.293)" fill="white"/>
<circle cx="36.8861" cy="36.8861" r="36.8861" transform="matrix(-1 0 0 1 105.773 128.125)" fill="white"/>
<circle cx="73.7721" cy="73.7721" r="73.7721" transform="matrix(-1 0 0 1 322.873 67)" fill="white"/>
<circle cx="73.7721" cy="73.7721" r="73.7721" transform="matrix(-1 0 0 1 400.471 143.504)" fill="white"/>
<circle cx="61.2035" cy="61.2035" r="61.2035" transform="matrix(-1 0 0 1 158.936 191.594)" fill="white"/>
<path d="M34.3437 46.5075C32.784 42.2848 32.6515 39.6947 35.3219 37.4292L43.0665 31.4497C44.8671 29.931 46.8854 29.6088 49.2193 31.0363L62.9617 41.9659L61.0141 48.6107L46.3481 37.1724L34.3437 46.5075Z" fill="#FFC814"/>
<path d="M268.773 75.9952L270.119 65.1746H260.13L259.593 69.4965C259.151 73.9727 259.558 75.9952 265.312 75.9952H268.773Z" fill="#FFC814"/>
<path d="M270.448 62.5336L273.794 35.6298C274.394 31.6276 273.839 30.1364 270.05 30.1364H264.489L260.459 62.5336H270.448Z" fill="#FFC814"/>
<path d="M57.2097 75.912C61.0856 75.631 62.0389 73.8394 63.0565 69.507L49.3454 69.3818L43.6704 51.2446L38.3023 55.5908L43.3998 72.4434C44.5097 74.9536 46.0935 76.1929 48.4346 75.9766L57.2097 75.912Z" fill="#FFC814"/>
<path d="M62.1799 31.105C58.8582 29.0744 57.4463 29.944 54.1189 32.8821L64.7789 41.4064L59.2758 59.5291L66.1346 59.676L71.0875 42.6781C71.9613 40.1429 71.2586 38.3263 69.205 36.483L62.1799 31.105Z" fill="#EA2127"/>
<path fill-rule="evenodd" clip-rule="evenodd" d="M97.5708 75.1007C99.6469 75.3873 101.754 75.6109 103.893 75.7595C106.03 75.9194 108.285 75.9945 110.658 75.9945C113.537 75.9945 116.034 75.7175 118.125 75.1644C120.226 74.6098 121.976 73.7798 123.384 72.6833C124.778 71.599 125.884 70.2346 126.688 68.606C127.492 66.9889 128.049 65.1044 128.344 62.9648C128.785 59.9735 128.513 57.6522 127.524 55.9809C126.548 54.3112 124.809 53.214 122.323 52.6811L122.359 52.4268C124.032 51.9044 125.399 51.1592 126.472 50.1791C127.544 49.2005 128.378 48.0298 128.966 46.6677C129.555 45.2944 129.965 43.7611 130.196 42.0801C130.49 40.0996 130.474 38.3654 130.168 36.8741C129.853 35.3837 129.195 34.1379 128.195 33.1375C127.185 32.1363 125.777 31.3919 123.975 30.8922C122.172 30.3916 119.922 30.1356 117.232 30.1356C116.298 30.1356 115.486 30.1082 114.713 30.082C113.272 30.0333 111.964 29.989 110.242 30.1356C104.325 30.6407 103.89 32.7837 103.176 36.3031C103.13 36.531 103.082 36.7647 103.032 37.0041L97.5708 75.1007ZM114.271 38.8223C114.925 38.6948 115.569 38.631 116.204 38.631C116.948 38.6205 117.507 38.7787 117.886 39.088C118.264 39.4085 118.5 39.9075 118.577 40.6212C118.656 41.3236 118.619 42.2497 118.44 43.4212C118.213 45.082 117.822 46.3375 117.255 47.1885C116.677 48.0403 115.865 48.4658 114.794 48.4658H112.887L114.271 38.8223ZM111.662 57.0249H113.376C114.311 57.0136 115.029 57.1743 115.543 57.5045C116.057 57.8331 116.383 58.3659 116.52 59.0999C116.671 59.8241 116.66 60.793 116.475 62.0073C116.199 63.9345 115.713 65.3281 115.019 66.1798C114.325 67.0308 113.406 67.4579 112.265 67.4353C111.906 67.4353 111.547 67.4256 111.181 67.3925C110.803 67.3715 110.479 67.3393 110.187 67.3078L111.662 57.0249Z" fill="#EA2127"/>
<path d="M79.036 37.6397L78.012 44.7713H83.7424L80.8206 65.1482C80.3588 68.1525 81.2944 69.6493 84.2283 69.6413H88.4078L91.9737 44.7713H97.6575L98.1008 41.6766C98.3305 38.9089 96.7949 37.6631 93.4956 37.6397H79.036Z" fill="#EA2127"/>
<path d="M129.851 70.8062L135.665 30.1421H147.493L145.385 44.8793L143.45 54.7706H143.711L155.42 30.1421H161.622C165.704 30.0097 166.336 32.1727 165.77 35.9109L160.04 75.9945H148.214L150.452 60.3376L152.32 50.4479H152.061L140.22 75.9945H134.804C131.361 75.9945 129.314 74.1439 129.851 70.8062Z" fill="#EA2127"/>
<path d="M170.527 30.1358L165.122 67.9401C164.248 72.8975 166.521 75.9946 171.42 75.9946H175.731L178.364 57.5854H184.471L181.841 75.9946H193.667L199.412 35.8109C199.835 32.6912 199.061 30.1358 194.018 30.1358H188.397L185.934 47.3655H179.826L182.288 30.1358H170.527Z" fill="#EA2127"/>
<path d="M202.222 40.4114L203.682 30.2076H225.516C230.486 30.1357 231.325 32.4085 230.929 35.9626L230.293 40.4114H222.171L217.076 75.9945H211.317C205.946 75.9945 205.523 73.6644 206.148 70.1652L210.408 40.4114H202.222Z" fill="#EA2127"/>
<path fill-rule="evenodd" clip-rule="evenodd" d="M235.009 39.3799L235.008 39.382C234.321 41.0771 233.685 42.6482 233.088 44.4202L224.545 69.7875C224.087 71.1471 223.245 75.9947 228.709 75.9947H234.357L236.838 66.8494H244.05L243.844 75.9947H255.41C255.532 74.6221 255.603 72.9896 255.636 71.0946C255.659 69.2013 255.64 66.9907 255.549 64.4539C255.468 61.9163 255.325 58.9879 255.106 55.6889C254.897 52.3802 254.612 48.6226 254.252 44.4202C254.191 43.7077 254.134 42.9803 254.076 42.2383L254.075 42.2336C253.919 40.235 253.754 38.1312 253.484 35.9321C252.903 31.2049 252.53 30.1359 247.414 30.2675H243.113C239.166 30.1359 238.069 31.3897 236.635 35.2394C236.061 36.7794 235.521 38.1144 235.009 39.3799ZM239.329 57.181L243.51 42.5156L244.302 39.261H244.498L244.29 42.5156L244.331 57.181H239.329Z" fill="#EA2127"/>
<path d="M75.4035 56.3551C76.1625 52.9277 74.8181 50.6379 71.0337 48.3288L67.2349 61.3173L48.3243 61.1469L50.7787 67.6222L68.299 67.9467C71.016 67.6601 72.6777 66.5281 73.1957 64.223L75.4035 56.3551Z" fill="#EA2127"/>
<path d="M40.5233 67.7424C36.1278 68.2777 34.3761 68.2486 32.7755 64.6872L30.2352 56.1798C29.575 53.4936 30.334 51.5704 32.145 50.1098L46.3195 39.0801L51.6298 43.3988L36.608 54.9631L40.5233 67.7424Z" fill="#EA2127"/>
<path d="M46.3048 138.747L107.982 235.916H-60.8654L26.8576 129L46.3048 138.747Z" fill="#810600"/>
<path d="M109.111 253.947H-58.8274H-61.0001L26.8567 146.877L109.111 253.947Z" fill="#A1633A"/>
<path d="M121.494 270.324H-59.1665L26.8586 166.303L121.494 270.324Z" fill="#978D85"/>
<path d="M109.111 322.827H-50.1433V318.047L31.4294 226.072L109.111 322.827Z" fill="#4C1304"/>
<path d="M32.0391 226.339L-50.142 322.827L-57.6695 322.633L26.858 220.43L32.0391 226.339Z" fill="#7F260E"/>
<path d="M331.594 327.005L322.409 319.531L334.689 320.507L331.594 327.005Z" fill="#702108"/>
<path d="M238.476 226.927L331.594 327.004H111.377L24.9641 228.371L27.8655 221.812L238.476 226.927Z" fill="#7F260E"/>
<path d="M334.689 320.507H114.526L26.8565 220.43H241.585L334.689 320.507Z" fill="#733B16"/>
<path d="M334.691 320.507H321.535L228.765 220.51L241.587 220.43L334.691 320.507Z" fill="#D19653"/>
<path d="M27.7021 221.392L27.7002 221.393L47.25 243.708L52.2207 249.437H52.2676L68.6768 268.167L73.5938 273.864H73.667L89.5732 292.021H89.5039L94.752 297.938H94.7559L109.31 314.551H109.266L112.194 317.843L114.527 320.507H126.447L126.415 320.469L169.986 320.477L170.014 320.507H183.17L183.145 320.479L219.358 320.485L219.377 320.507H234.091L234.074 320.488L270.909 320.495L270.92 320.507H284.076L284.068 320.497L334.697 320.507L329.155 314.551H278.526L263.045 297.938H313.639L308.237 292.021H257.532L240.612 273.864H291.297L285.795 267.947H235.099L217.849 249.437H268.54L263.038 243.527H212.343L196.325 226.339H247.021L241.586 220.43H26.8574L27.7021 221.392ZM164.515 314.551H121.238L106.707 297.938H149.178L164.515 314.551ZM213.869 314.551H177.656L162.275 297.938H198.508L213.869 314.551ZM265.387 314.551H228.468L212.782 297.938H249.951L265.387 314.551ZM244.455 292.021H207.196L190.053 273.864H227.586L244.455 292.021ZM193.037 292.021H156.798L139.988 273.864H176.247L193.037 292.021ZM143.717 292.021H101.532L85.6504 273.864H126.954L143.717 292.021ZM222.088 267.947H184.467L166.989 249.437H204.89L222.088 267.947ZM170.776 267.947H134.51L117.373 249.437H153.66L170.776 267.947ZM121.492 267.947H80.4756L64.2852 249.437H104.403L121.492 267.947ZM199.4 243.527H161.41L145.182 226.339H183.431L199.4 243.527ZM148.195 243.527H111.902L95.9893 226.339H132.302L148.195 243.527ZM98.9482 243.527H59.1162L44.082 226.339H83.0801L98.9482 243.527Z" fill="#D58A58"/>
<path d="M334.697 267.411V269.236L114.527 269.19L26.8576 169.152H241.586L334.697 267.411Z" fill="#FCE9DC"/>
<path d="M334.697 266.38L114.527 266.34L26.8576 166.303H241.586L334.697 266.38Z" fill="#DCCCC1"/>
<path d="M114.527 269.19L26.8578 169.152V166.303L114.527 266.34V269.19Z" fill="#B3A69C"/>
<path d="M334.697 246.955V249.937L114.527 249.897L26.8576 149.859H241.586L334.697 246.955Z" fill="#DE9D72"/>
<path d="M334.697 246.954L114.527 246.914L26.8576 146.877H241.586L334.697 246.954Z" fill="#D58A58"/>
<path d="M114.527 249.896L26.8578 149.859V146.877L114.527 246.914V249.896Z" fill="#B37348"/>
<g filter="url(#filter0_d_5047_51201)">
<path d="M26.8565 129L114.533 229.091L124.313 230.575L131.914 229.091L141.374 230.822L147.25 229.091L156.589 230.949L161.924 229.091L170.922 230.642L177.099 229.091L186.499 230.762L192.148 229.091L201.581 230.515L207.049 229.091L216.97 230.702L221.596 229.091L231.677 230.454L236.35 229.091L245.897 230.635L251.539 229.091L261.132 230.515L266.841 229.091L276.301 230.454L281.89 229.084L290.888 229.986L295.996 229.084L305.161 230.388L311.365 229.084L319.902 229.926L326.059 229.084H334.689L241.585 129H26.8565Z" fill="#CB0006"/>
</g>
<mask id="mask0_5047_51201" style="mask-type:luminance" maskUnits="userSpaceOnUse" x="26" y="129" width="309" height="102">
<path d="M26.8565 129L114.533 229.091L124.313 230.575L131.914 229.091L141.374 230.822L147.25 229.091L156.589 230.949L161.924 229.091L170.922 230.642L177.099 229.091L186.499 230.762L192.148 229.091L201.581 230.515L207.049 229.091L216.97 230.702L221.596 229.091L231.677 230.454L236.35 229.091L245.897 230.635L251.539 229.091L261.132 230.515L266.841 229.091L276.301 230.454L281.89 229.084L290.888 229.986L295.996 229.084L305.161 230.388L311.365 229.084L319.902 229.926L326.059 229.084H334.689L241.585 129H26.8565Z" fill="white"/>
</mask>
<g mask="url(#mask0_5047_51201)">
<path opacity="0.28" d="M241.217 121.346L337.818 229.585L326.848 229.739L234.164 128.566L227.272 122.342L229.692 120.604L241.217 121.346Z" fill="#FF2228"/>
<path opacity="0.28" d="M320.236 230.267L317.328 236.973L311.365 229.091L221.977 129L228.763 129.308L320.236 230.267Z" fill="#FF2228"/>
<path opacity="0.28" d="M305.463 230.708L301.565 236.417L295.602 228.542L206.215 128.451L213 128.752L305.463 230.708Z" fill="#FF2228"/>
<path opacity="0.28" d="M291.068 230.581L287.846 236.973L281.89 229.091L192.495 129L199.281 129.308L291.068 230.581Z" fill="#FF2228"/>
<path opacity="0.28" d="M276.891 230.983L271.897 235.603L265.94 227.727L176.553 127.637L183.331 127.938L276.891 230.983Z" fill="#FF2228"/>
<path opacity="0.28" d="M261.133 230.483L255.156 234.126L249.2 226.251L159.812 126.16L166.598 126.461L261.133 230.483Z" fill="#FF2228"/>
<path opacity="0.28" d="M246.547 231.043L241.259 235.368L235.302 227.493L145.908 127.402L152.693 127.703L246.547 231.043Z" fill="#FF2228"/>
<path opacity="0.28" d="M232.428 231.258L225.682 234.126L219.719 226.251L130.331 126.16L137.117 126.461L232.428 231.258Z" fill="#FF2228"/>
<path opacity="0.28" d="M217.592 231.571L211.776 235.368L207.049 229.118L205.819 227.493L116.431 127.402L123.217 127.703L217.592 231.571Z" fill="#FF2228"/>
<path opacity="0.28" d="M200.399 229.023L202.705 231.563L197.33 235.802L191.374 227.92L101.986 127.836L108.771 128.137L200.399 229.023Z" fill="#FF2228"/>
<path opacity="0.28" d="M186.713 231.05L183.056 237.013L177.1 229.131L87.7119 129.047L94.4907 129.348L186.713 231.05Z" fill="#FF2228"/>
<path opacity="0.28" d="M172.266 231.718L167.352 236.418L161.396 228.543L72.0078 128.459L78.7933 128.76L172.266 231.718Z" fill="#FF2228"/>
<path opacity="0.28" d="M156.924 231.11L153.207 237.013L147.25 229.131L57.856 129.047L64.6414 129.348L156.924 231.11Z" fill="#FF2228"/>
<path opacity="0.28" d="M141.375 230.896L137.879 237.013L131.915 229.131L42.5278 129.047L49.3132 129.348L141.375 230.896Z" fill="#FF2228"/>
<path opacity="0.28" d="M124.654 230.855L122.201 237.54L114.386 229.658L25.8271 128.545L33.6421 128.612L124.654 230.855Z" fill="#FF2228"/>
<path d="M40.9356 136.614L44.6526 135.571L49.379 136.768L51.7991 135.625L56.0508 136.708L59.6475 135.498L64.9221 136.647L67.4692 135.685L71.4736 136.647L74.9164 135.464L79.5359 136.708L81.9894 135.745L86.1476 136.681L89.5905 135.558L94.6846 136.801L97.011 135.558L101.383 136.647L104.425 135.377L110.074 136.741L112.18 135.531L116.431 136.614L119.721 135.498L124.815 136.647L127.295 135.437L131.42 136.681L134.709 135.625L139.736 136.708L142.25 135.685L146.535 136.681L149.543 135.404L154.29 136.708L157.004 135.651L160.901 136.647L164.344 135.437L169.251 136.681L171.885 135.437L175.983 136.614L179.426 135.531L184.607 136.647L187.061 135.591L191.339 136.647L194.474 135.625L199.314 136.708L201.989 135.625L206.113 136.741L209.155 135.625L213.587 136.801L216.355 135.685L220.105 136.708L223.207 135.437L229.01 136.741L234.632 135.411L241.672 136.741L247.755 135.19L254.273 136.681L253.959 136.895H34.2371L27.5318 137.022L31.1017 134.916L40.9356 136.614Z" fill="#AE0A02"/>
<path d="M48.1083 144.591L51.8253 143.548L56.545 144.744L58.9651 143.601L63.2169 144.684L66.8135 143.474L72.0881 144.624L74.6352 143.661L78.6396 144.624L82.0825 143.441L86.7086 144.684L89.1554 143.722L93.3136 144.657L96.7632 143.534L101.851 144.778L104.177 143.534L108.549 144.624L111.591 143.354L117.24 144.718L119.352 143.508L123.604 144.591L126.893 143.474L131.981 144.624L134.461 143.414L138.592 144.657L141.882 143.601L146.909 144.684L149.422 143.661L153.701 144.657L156.709 143.381L161.456 144.684L164.177 143.628L168.067 144.624L171.51 143.414L176.417 144.657L179.051 143.414L183.149 144.591L186.592 143.508L191.773 144.624L194.227 143.568L198.512 144.624L201.64 143.601L206.487 144.684L209.155 143.601L213.279 144.718L216.321 143.601L220.76 144.778L223.521 143.661L227.271 144.684L230.38 143.414L236.183 144.718L241.798 143.387L248.838 144.718L254.921 143.167L261.439 144.657L261.125 144.871H41.4031L34.6978 144.998L38.2677 142.893L48.1083 144.591Z" fill="#AE0A02"/>
<path d="M48.2892 152.754L52.0061 151.711L56.7325 152.907L59.1526 151.757L63.4044 152.847L67.001 151.637L72.2756 152.78L74.8227 151.818L78.8271 152.78L82.27 151.604L86.8961 152.847L89.3429 151.884L93.5011 152.814L96.9507 151.697L102.038 152.941L104.365 151.697L108.737 152.78L111.778 151.51L117.427 152.874L119.54 151.664L123.785 152.754L127.074 151.637L132.168 152.78L134.648 151.57L138.773 152.814L142.062 151.757L147.09 152.847L149.603 151.818L153.888 152.814L156.897 151.544L161.643 152.847L164.364 151.791L168.255 152.78L171.698 151.57L176.605 152.814L179.239 151.57L183.337 152.754L186.78 151.664L191.961 152.78L194.414 151.731L198.699 152.78L201.828 151.757L206.668 152.847L209.342 151.757L213.467 152.874L216.509 151.757L220.948 152.941L223.709 151.818L227.459 152.847L230.561 151.57L236.364 152.874L241.986 151.544L249.025 152.874L255.109 151.323L261.627 152.814L261.313 153.028H41.5906L34.8853 153.155L38.4552 151.049L48.2892 152.754Z" fill="#AE0A02"/>
<path d="M62.1622 160.422L65.8792 159.379L70.6056 160.575L73.0256 159.425L77.2774 160.515L80.874 159.305L86.1487 160.448L88.6957 159.486L92.7001 160.448L96.143 159.272L100.762 160.515L103.216 159.546L107.374 160.482L110.817 159.365L115.904 160.602L118.238 159.365L122.61 160.448L125.651 159.178L131.3 160.542L133.406 159.332L137.658 160.422L140.947 159.305L146.041 160.448L148.521 159.238L152.646 160.482L155.935 159.425L160.963 160.515L163.476 159.486L167.761 160.482L170.77 159.212L175.516 160.515L178.23 159.459L182.128 160.448L185.571 159.238L190.471 160.482L193.112 159.238L197.21 160.422L200.653 159.332L205.834 160.448L208.287 159.392L212.566 160.448L215.701 159.425L220.541 160.515L223.208 159.425L227.34 160.542L230.382 159.425L234.814 160.602L237.575 159.486L241.332 160.515L244.434 159.238L250.237 160.542L255.852 159.212L262.898 160.542L268.982 158.991L275.5 160.482L275.186 160.696H55.4636L48.7584 160.823L52.3283 158.717L62.1622 160.422Z" fill="#AE0A02"/>
<path d="M68.6806 168.577L72.3976 167.534L77.1173 168.731L79.5374 167.581L83.7891 168.671L87.3924 167.461L92.6671 168.61L95.2141 167.648L99.2119 168.61L102.655 167.427L107.281 168.671L109.734 167.708L113.893 168.637L117.335 167.521L122.423 168.764L124.749 167.521L129.128 168.61L132.17 167.333L137.819 168.697L139.925 167.487L144.176 168.577L147.466 167.461L152.553 168.61L155.04 167.4L159.165 168.637L162.454 167.581L167.481 168.671L169.995 167.648L174.273 168.637L177.288 167.367L182.035 168.671L184.749 167.614L188.646 168.61L192.089 167.4L196.989 168.637L199.63 167.4L203.721 168.577L207.171 167.487L212.352 168.61L214.806 167.554L219.084 168.61L222.219 167.581L227.059 168.671L229.727 167.581L233.852 168.697L236.893 167.581L241.332 168.764L244.093 167.648L247.85 168.671L250.952 167.4L256.755 168.697L262.371 167.367L269.417 168.697L275.5 167.146L282.012 168.637L281.704 168.858H61.9754L55.2768 168.978L58.8467 166.879L68.6806 168.577Z" fill="#AE0A02"/>
<path d="M77.1493 176.772L80.8663 175.729L85.5927 176.926L88.0128 175.783L92.2646 176.866L95.8612 175.656L101.136 176.806L103.683 175.843L107.681 176.806L111.13 175.622L115.75 176.866L118.203 175.903L122.361 176.832L125.804 175.716L130.892 176.959L133.225 175.716L137.597 176.806L140.639 175.529L146.288 176.899L148.393 175.689L152.645 176.772L155.934 175.656L161.028 176.806L163.509 175.596L167.633 176.832L170.923 175.776L175.95 176.866L178.463 175.843L182.749 176.832L185.757 175.562L190.503 176.866L193.218 175.81L197.115 176.806L200.558 175.596L205.458 176.832L208.099 175.596L212.197 176.772L215.64 175.689L220.821 176.806L223.274 175.749L227.553 176.806L230.688 175.783L235.528 176.866L238.196 175.783L242.327 176.899L245.369 175.776L249.801 176.959L252.562 175.843L256.319 176.866L259.421 175.596L265.224 176.899L270.839 175.569L277.886 176.899L283.969 175.348L290.48 176.832L290.173 177.053H70.4441L63.7455 177.18L67.3154 175.074L77.1493 176.772Z" fill="#AE0A02"/>
<path d="M84.4103 184.929L88.1272 183.892L92.8537 185.089L95.2737 183.939L99.5255 185.022L103.122 183.812L108.397 184.962L110.944 183.999L114.948 184.962L118.391 183.785L123.011 185.022L125.464 184.066L129.622 184.995L133.065 183.879L138.159 185.116L140.486 183.879L144.858 184.962L147.9 183.692L153.548 185.056L155.654 183.846L159.906 184.929L163.195 183.812L168.289 184.962L170.77 183.752L174.894 184.995L178.183 183.939L183.211 185.022L185.724 183.999L190.01 184.995L193.018 183.718L197.764 185.022L200.479 183.973L204.376 184.962L207.819 183.752L212.719 184.995L215.36 183.752L219.458 184.929L222.901 183.846L228.082 184.962L230.535 183.906L234.814 184.962L237.949 183.939L242.789 185.022L245.456 183.939L249.588 185.056L252.63 183.939L257.062 185.116L259.83 183.999L263.58 185.022L266.682 183.752L272.485 185.056L278.107 183.725L285.146 185.056L291.23 183.505L297.748 184.995L297.434 185.209H77.7117L71.0065 185.336L74.5764 183.23L84.4103 184.929Z" fill="#AE0A02"/>
<path d="M91.4892 193.065L95.2062 192.022L99.9259 193.219L102.346 192.076L106.598 193.159L110.201 191.949L115.469 193.092L118.016 192.136L122.02 193.092L125.463 191.915L130.089 193.159L132.536 192.196L136.694 193.125L140.144 192.009L145.231 193.252L147.558 192.009L151.93 193.092L154.972 191.822L160.621 193.186L162.733 191.976L166.985 193.065L170.274 191.949L175.362 193.092L177.842 191.882L181.973 193.125L185.262 192.069L190.29 193.159L192.803 192.136L197.082 193.125L200.09 191.855L204.843 193.159L207.557 192.103L211.448 193.099L214.891 191.889L219.798 193.125L222.432 191.882L226.53 193.065L229.973 191.976L235.154 193.092L237.607 192.042L241.893 193.099L245.021 192.076L249.868 193.159L252.535 192.076L256.66 193.186L259.702 192.069L264.141 193.252L266.902 192.136L270.659 193.159L273.761 191.882L279.564 193.192L285.179 191.862L292.219 193.192L298.302 191.635L304.82 193.125L304.513 193.346H84.784L78.0787 193.466L81.6486 191.367L91.4892 193.065Z" fill="#AE0A02"/>
<path d="M99.211 201.247L102.928 200.204L107.654 201.401L110.074 200.257L114.326 201.34L117.923 200.13L123.197 201.28L125.745 200.318L129.749 201.28L133.192 200.097L137.818 201.34L140.265 200.378L144.423 201.307L147.873 200.191L152.96 201.434L155.286 200.191L159.659 201.28L162.7 200.003L168.349 201.374L170.462 200.157L174.714 201.247L178.003 200.13L183.09 201.28L185.57 200.07L189.695 201.307L192.984 200.251L198.011 201.34L200.525 200.318L204.81 201.307L207.819 200.037L212.565 201.34L215.279 200.284L219.177 201.28L222.62 200.07L227.527 201.307L230.161 200.07L234.259 201.247L237.701 200.157L242.882 201.28L245.336 200.224L249.614 201.28L252.75 200.257L257.59 201.34L260.264 200.257L264.389 201.374L267.43 200.251L271.869 201.434L274.63 200.318L278.381 201.34L281.483 200.07L287.285 201.374L292.908 200.044L299.947 201.374L306.031 199.823L312.549 201.307L312.235 201.528H92.5125L85.8072 201.648L89.3771 199.549L99.211 201.247Z" fill="#AE0A02"/>
<path d="M106.752 210.345L110.469 209.302L115.195 210.498L117.615 209.355L121.867 210.438L125.464 209.228L130.738 210.378L133.286 209.415L137.29 210.378L140.733 209.195L145.352 210.438L147.806 209.475L151.964 210.405L155.407 209.288L160.501 210.532L162.827 209.288L167.2 210.378L170.241 209.101L175.89 210.472L177.996 209.262L182.248 210.345L185.537 209.228L190.631 210.378L193.111 209.168L197.236 210.405L200.525 209.355L205.552 210.438L208.066 209.415L212.351 210.405L215.36 209.135L220.106 210.438L222.82 209.382L226.718 210.378L230.161 209.168L235.061 210.405L237.702 209.168L241.8 210.345L245.242 209.262L250.423 210.378L252.877 209.322L257.155 210.378L260.291 209.355L265.131 210.438L267.798 209.355L271.93 210.472L274.971 209.355L279.404 210.532L282.171 209.415L285.922 210.438L289.024 209.168L294.827 210.472L300.442 209.141L307.488 210.472L313.572 208.921L320.09 210.405L319.776 210.625H100.053L93.3482 210.752L96.9181 208.646L106.752 210.345Z" fill="#AE0A02"/>
<path d="M115.134 219.718L118.844 218.675L123.57 219.872L125.99 218.722L130.242 219.812L133.839 218.602L139.113 219.745L141.661 218.782L145.665 219.745L149.108 218.569L153.734 219.812L156.181 218.849L160.339 219.779L163.789 218.662L168.876 219.906L171.202 218.662L175.575 219.745L178.616 218.475L184.265 219.839L186.378 218.629L190.63 219.718L193.919 218.602L199.006 219.745L201.486 218.535L205.618 219.779L208.907 218.722L213.934 219.812L216.448 218.782L220.726 219.779L223.735 218.508L228.481 219.812L231.202 218.756L235.093 219.745L238.536 218.535L243.443 219.779L246.077 218.535L250.175 219.718L253.617 218.629L258.798 219.745L261.252 218.696L265.537 219.745L268.666 218.722L273.513 219.812L276.18 218.722L280.305 219.839L283.346 218.722L287.785 219.906L290.546 218.782L294.297 219.812L297.405 218.535L303.208 219.839L308.824 218.508L315.863 219.839L321.947 218.288L328.465 219.779L328.151 219.992H108.428L101.723 220.12L105.293 218.014L115.134 219.718Z" fill="#AE0A02"/>
</g>
<path d="M333.669 231.149L334.696 229.086L331.4 229.086L333.669 231.149Z" fill="#AE0A02"/>
<path d="M142 171C142 159.954 150.954 151 162 151H287C298.046 151 307 159.954 307 171V360H142V171Z" fill="#03131B"/>
<path d="M145 171C145 161.611 152.611 154 162 154H287C296.389 154 304 161.611 304 171V360H145V171Z" fill="#234A50"/>
<path d="M147 172C147 163.163 154.163 156 163 156H286C294.837 156 302 163.163 302 172V360H147V172Z" fill="#00272E"/>
<path d="M290 172V201H160V172H290Z" fill="#ACBE8A" stroke="#01131A" stroke-width="2"/>
<path d="M178.909 187.182L179.527 187.801V196.455C179.321 197.279 178.806 197.795 177.981 198.001L177.054 195.528V189.037L178.909 187.182ZM177.363 198.001H168.09C167.266 197.795 166.751 197.279 166.545 196.455L169.018 195.528H176.436L177.363 198.001ZM166.545 195.837V187.801L167.163 187.182L169.018 189.037V194.91L166.545 195.837ZM176.436 178.219H169.049L166.576 177.292C166.782 176.467 167.297 175.952 168.121 175.746H177.363L176.436 178.219ZM169.018 178.837V184.71L167.163 186.564L166.545 185.946V177.91L169.018 178.837ZM177.054 184.71V178.219L177.981 175.746C178.806 175.952 179.321 176.467 179.527 177.292V185.946L178.909 186.564L177.054 184.71Z" fill="#A3B480"/>
<path d="M196.339 187.182L196.957 187.801V196.455C196.751 197.279 196.236 197.795 195.412 198.001L194.484 195.528V189.037L196.339 187.182ZM194.793 198.001H185.521C184.696 197.795 184.181 197.279 183.975 196.455L186.448 195.528H193.866L194.793 198.001ZM183.975 195.837V187.801L184.593 187.182L186.448 189.037V194.91L183.975 195.837ZM193.866 178.219H186.479L184.006 177.292C184.212 176.467 184.727 175.952 185.552 175.746H194.793L193.866 178.219ZM186.448 178.837V184.71L184.593 186.564L183.975 185.946V177.91L186.448 178.837ZM194.484 184.71V178.219L195.412 175.746C196.236 175.952 196.751 176.467 196.957 177.292V185.946L196.339 186.564L194.484 184.71Z" fill="#A3B480"/>
<path d="M213.769 187.182L214.387 187.801V196.455C214.181 197.279 213.666 197.795 212.842 198.001L211.915 195.528V189.037L213.769 187.182ZM212.224 198.001H202.951C202.127 197.795 201.612 197.279 201.406 196.455L203.878 195.528H211.296L212.224 198.001ZM201.406 195.837V187.801L202.024 187.182L203.878 189.037V194.91L201.406 195.837ZM211.296 178.219H203.909L201.436 177.292C201.643 176.467 202.158 175.952 202.982 175.746H212.224L211.296 178.219ZM203.878 178.837V184.71L202.024 186.564L201.406 185.946V177.91L203.878 178.837ZM211.915 184.71V178.219L212.842 175.746C213.666 175.952 214.181 176.467 214.387 177.292V185.946L213.769 186.564L211.915 184.71Z" fill="#A3B480"/>
<path d="M231.2 187.182L231.818 187.801V196.455C231.612 197.279 231.096 197.795 230.272 198.001L229.345 195.528V189.037L231.2 187.182ZM229.654 198.001H220.381C219.557 197.795 219.042 197.279 218.836 196.455L221.309 195.528H228.727L229.654 198.001ZM218.836 195.837V187.801L219.454 187.182L221.309 189.037V194.91L218.836 195.837ZM228.727 178.219H221.339L218.867 177.292C219.073 176.467 219.588 175.952 220.412 175.746H229.654L228.727 178.219ZM221.309 178.837V184.71L219.454 186.564L218.836 185.946V177.91L221.309 178.837ZM229.345 184.71V178.219L230.272 175.746C231.096 175.952 231.612 176.467 231.818 177.292V185.946L231.2 186.564L229.345 184.71Z" fill="#A3B480"/>
<path d="M248.63 187.182L249.248 187.801V196.455C249.042 197.279 248.527 197.795 247.703 198.001L246.775 195.528V189.037L248.63 187.182ZM247.084 198.001H237.812C236.987 197.795 236.472 197.279 236.266 196.455L238.739 195.528H246.157L247.084 198.001ZM236.266 195.837V187.801L236.884 187.182L238.739 189.037V194.91L236.266 195.837ZM246.157 178.219H238.77L236.297 177.292C236.503 176.467 237.018 175.952 237.843 175.746H247.084L246.157 178.219ZM238.739 178.837V184.71L236.884 186.564L236.266 185.946V177.91L238.739 178.837ZM246.775 184.71V178.219L247.703 175.746C248.527 175.952 249.042 176.467 249.248 177.292V185.946L248.63 186.564L246.775 184.71Z" fill="#A3B480"/>
<path d="M266.06 187.182L266.678 187.801V196.455C266.472 197.279 265.957 197.795 265.133 198.001L264.206 195.528V189.037L266.06 187.182ZM264.515 198.001H255.242C254.418 197.795 253.903 197.279 253.696 196.455L256.169 195.528H263.587L264.515 198.001ZM253.696 195.837V187.801L254.315 187.182L256.169 189.037V194.91L253.696 195.837ZM263.587 178.219H256.2L253.727 177.292C253.933 176.467 254.449 175.952 255.273 175.746H264.515L263.587 178.219ZM256.169 178.837V184.71L254.315 186.564L253.696 185.946V177.91L256.169 178.837ZM264.206 184.71V178.219L265.133 175.746C265.957 175.952 266.472 176.467 266.678 177.292V185.946L266.06 186.564L264.206 184.71Z" fill="#A3B480"/>
<path d="M283.49 187.182L284.109 187.801V196.455C283.903 197.279 283.387 197.795 282.563 198.001L281.636 195.528V189.037L283.49 187.182ZM281.945 198.001H272.672C271.848 197.795 271.333 197.279 271.127 196.455L273.6 195.528H281.018L281.945 198.001ZM271.127 195.837V187.801L271.745 187.182L273.6 189.037V194.91L271.127 195.837ZM281.018 178.219H273.63L271.158 177.292C271.364 176.467 271.879 175.952 272.703 175.746H281.945L281.018 178.219ZM273.6 178.837V184.71L271.745 186.564L271.127 185.946V177.91L273.6 178.837ZM281.636 184.71V178.219L282.563 175.746C283.387 175.952 283.903 176.467 284.109 177.292V185.946L283.49 186.564L281.636 184.71Z" fill="#A3B480"/>
<path d="M213.399 187.182L214.018 187.801V196.455C213.812 197.279 213.296 197.795 212.472 198.001L211.545 195.528V189.037L213.399 187.182ZM211.545 184.71V178.219L212.472 175.746C213.296 175.952 213.812 176.467 214.018 177.292V185.946L213.399 186.564L211.545 184.71Z" fill="#202018"/>
<path d="M228.992 185.637L230.229 186.873L228.992 188.11H220.956L219.719 186.873L220.956 185.637H228.992ZM230.229 198.001H220.029C219.204 197.795 218.689 197.279 218.483 196.455L220.956 195.528H229.301L230.229 198.001ZM218.483 195.837V187.801L219.101 187.182L220.956 189.037V194.91L218.483 195.837ZM228.374 178.219H220.987L218.514 177.292C218.72 176.467 219.235 175.952 220.059 175.746H229.301L228.374 178.219ZM228.992 184.71V178.219L229.919 175.746C230.744 175.952 231.259 176.467 231.465 177.292V185.946L230.847 186.564L228.992 184.71Z" fill="#202018"/>
<path d="M246.422 185.637L247.659 186.873L246.422 188.11H238.386L237.15 186.873L238.386 185.637H246.422ZM248.277 187.182L248.895 187.801V196.455C248.689 197.279 248.174 197.795 247.35 198.001L246.422 195.528V189.037L248.277 187.182ZM246.732 198.001H237.459C236.635 197.795 236.119 197.279 235.913 196.455L238.386 195.528H245.804L246.732 198.001ZM245.804 178.219H238.417L235.944 177.292C236.15 176.467 236.665 175.952 237.49 175.746H246.732L245.804 178.219ZM246.422 184.71V178.219L247.35 175.746C248.174 175.952 248.689 176.467 248.895 177.292V185.946L248.277 186.564L246.422 184.71Z" fill="#202018"/>
<path d="M265.707 187.182L266.325 187.801V196.455C266.119 197.279 265.604 197.795 264.78 198.001L263.853 195.528V189.037L265.707 187.182ZM264.162 198.001H254.889C254.065 197.795 253.55 197.279 253.344 196.455L255.816 195.528H263.235L264.162 198.001ZM253.344 195.837V187.801L253.962 187.182L255.816 189.037V194.91L253.344 195.837ZM263.235 178.219H255.847L253.375 177.292C253.581 176.467 254.096 175.952 254.92 175.746H264.162L263.235 178.219ZM255.816 178.837V184.71L253.962 186.564L253.344 185.946V177.91L255.816 178.837ZM263.853 184.71V178.219L264.78 175.746C265.604 175.952 266.119 176.467 266.325 177.292V185.946L265.707 186.564L263.853 184.71Z" fill="#202018"/>
<path d="M283.138 187.182L283.756 187.801V196.455C283.55 197.279 283.035 197.795 282.21 198.001L281.283 195.528V189.037L283.138 187.182ZM281.592 198.001H272.319C271.495 197.795 270.98 197.279 270.774 196.455L273.247 195.528H280.665L281.592 198.001ZM270.774 195.837V187.801L271.392 187.182L273.247 189.037V194.91L270.774 195.837ZM280.665 178.219H273.278L270.805 177.292C271.011 176.467 271.526 175.952 272.35 175.746H281.592L280.665 178.219ZM273.247 178.837V184.71L271.392 186.564L270.774 185.946V177.91L273.247 178.837ZM281.283 184.71V178.219L282.21 175.746C283.035 175.952 283.55 176.467 283.756 177.292V185.946L283.138 186.564L281.283 184.71Z" fill="#202018"/>
<g filter="url(#filter1_ii_5047_51201)">
<g clip-path="url(#clip1_5047_51201)">
<rect x="159" y="220" width="27" height="27" rx="4" fill="#EA2127"/>
<path d="M172.441 236.766C172.578 237.078 172.422 237.449 172.109 237.586C172.031 237.625 171.953 237.625 171.875 237.625C171.621 237.625 171.387 237.488 171.289 237.254L170.801 236.062H166.68L166.191 237.254C166.055 237.566 165.703 237.723 165.371 237.586C165.059 237.449 164.902 237.078 165.039 236.766L168.164 229.266C168.262 229.031 168.496 228.875 168.75 228.875C168.984 228.875 169.219 229.031 169.316 229.266L172.441 236.766ZM167.207 234.812H170.273L168.75 231.141L167.207 234.812ZM176.777 237.625C175.625 237.625 174.551 237.176 173.73 236.355C172.91 235.496 172.48 234.383 172.5 233.25C172.5 232.137 172.91 231.023 173.73 230.164C174.551 229.344 175.625 228.875 176.777 228.875C177.93 228.875 179.004 229.344 179.805 230.164C180.059 230.418 180.039 230.809 179.805 231.062C179.551 231.297 179.16 231.297 178.906 231.043C178.34 230.457 177.578 230.125 176.777 230.125C175.957 230.125 175.195 230.457 174.629 231.043C173.438 232.273 173.438 234.246 174.629 235.477C175.195 236.062 175.957 236.375 176.777 236.375C177.578 236.375 178.34 236.062 178.906 235.477C179.16 235.223 179.551 235.223 179.805 235.457C180.039 235.711 180.059 236.102 179.805 236.355C179.004 237.176 177.93 237.625 176.777 237.625Z" fill="white"/>
</g>
<rect x="159.5" y="220.5" width="26" height="26" rx="3.5" stroke="#01131A"/>
</g>
<g filter="url(#filter2_ii_5047_51201)">
<g clip-path="url(#clip2_5047_51201)">
<rect x="159" y="255" width="27" height="27" rx="4" fill="#82878A"/>
<path d="M175.527 264.832L171.152 272.332C171.035 272.527 170.82 272.625 170.605 272.625C170.508 272.625 170.391 272.605 170.293 272.547C170 272.371 169.902 272 170.078 271.688L173.906 265.125H170C169.648 265.125 169.375 264.852 169.375 264.5C169.375 264.168 169.648 263.875 170 263.875H174.98C175.215 263.875 175.43 264.012 175.527 264.207C175.645 264.383 175.645 264.637 175.527 264.832Z" fill="white"/>
</g>
<rect x="159.5" y="255.5" width="26" height="26" rx="3.5" stroke="#01131A"/>
</g>
<g filter="url(#filter3_ii_5047_51201)">
<g clip-path="url(#clip3_5047_51201)">
<rect x="159" y="290" width="27" height="27" rx="4" fill="#82878A"/>
<path d="M176.25 304.5C176.25 304.852 175.957 305.125 175.625 305.125H175V307C175 307.352 174.707 307.625 174.355 307.625C174.023 307.625 173.73 307.352 173.73 307V305.125H169.355C169.141 305.125 168.945 305.027 168.828 304.832C168.711 304.656 168.711 304.422 168.809 304.227L171.309 299.227C171.465 298.914 171.836 298.797 172.148 298.953C172.461 299.109 172.578 299.48 172.422 299.793L170.371 303.875H173.73V301.375C173.73 301.043 174.023 300.75 174.355 300.75C174.707 300.75 175 301.043 175 301.375V303.875H175.625C175.957 303.875 176.25 304.168 176.25 304.5Z" fill="white"/>
</g>
<rect x="159.5" y="290.5" width="26" height="26" rx="3.5" stroke="#01131A"/>
</g>
<g filter="url(#filter4_ii_5047_51201)">
<g clip-path="url(#clip4_5047_51201)">
<rect x="159" y="325" width="27" height="27" rx="4" fill="#82878A"/>
<path d="M175 342.02C175 342.352 174.707 342.625 174.375 342.625H170.625C170.273 342.625 170 342.352 170 342.02C170 341.668 170.273 341.395 170.625 341.395H171.875V335.672L170.957 336.277C170.684 336.473 170.293 336.395 170.098 336.102C169.902 335.828 169.98 335.438 170.273 335.242L172.148 333.992C172.344 333.855 172.578 333.855 172.793 333.953C172.988 334.07 173.125 334.285 173.125 334.52V341.395H174.375C174.707 341.395 175 341.668 175 342.02Z" fill="white"/>
</g>
<rect x="159.5" y="325.5" width="26" height="26" rx="3.5" stroke="#01131A"/>
</g>
<g filter="url(#filter5_ii_5047_51201)">
<g clip-path="url(#clip5_5047_51201)">
<rect x="194" y="220" width="27" height="27" rx="4" fill="#EA2127"/>
<path d="M208.027 237.625C206.875 237.625 205.801 237.176 204.98 236.355C204.16 235.496 203.73 234.383 203.75 233.25C203.75 232.137 204.16 231.023 204.98 230.164C205.801 229.344 206.875 228.875 208.027 228.875C209.18 228.875 210.254 229.344 211.055 230.164C211.309 230.418 211.289 230.809 211.055 231.062C210.801 231.297 210.41 231.297 210.156 231.043C209.59 230.457 208.828 230.125 208.027 230.125C207.207 230.125 206.445 230.457 205.879 231.043C204.688 232.273 204.688 234.246 205.879 235.477C206.445 236.062 207.207 236.375 208.027 236.375C208.828 236.375 209.59 236.062 210.156 235.477C210.41 235.223 210.801 235.223 211.055 235.457C211.289 235.711 211.309 236.102 211.055 236.355C210.254 237.176 209.18 237.625 208.027 237.625Z" fill="white"/>
</g>
<rect x="194.5" y="220.5" width="26" height="26" rx="3.5" stroke="#01131A"/>
</g>
<g filter="url(#filter6_ii_5047_51201)">
<g clip-path="url(#clip6_5047_51201)">
<path d="M194 259C194 256.791 195.791 255 198 255H217C219.209 255 221 256.791 221 259V278C221 280.209 219.209 282 217 282H198C195.791 282 194 280.209 194 278V259Z" fill="#82878A"/>
<path d="M209.59 268.133C210.215 268.582 210.625 269.305 210.625 270.125C210.625 271.512 209.492 272.625 208.125 272.625H206.875C205.488 272.625 204.375 271.512 204.375 270.125C204.375 269.305 204.766 268.582 205.391 268.133C204.941 267.684 204.688 267.059 204.688 266.375C204.688 265.008 205.801 263.875 207.188 263.875H207.812C209.18 263.875 210.312 265.008 210.312 266.375C210.312 267.059 210.039 267.684 209.59 268.133ZM207.188 265.125C206.484 265.125 205.938 265.691 205.938 266.375C205.938 267.078 206.484 267.625 207.188 267.625H207.812C208.496 267.625 209.062 267.078 209.062 266.375C209.062 265.691 208.496 265.125 207.812 265.125H207.188ZM208.125 271.375C208.809 271.375 209.375 270.828 209.375 270.125C209.375 269.441 208.809 268.875 208.125 268.875H206.875C206.172 268.875 205.625 269.441 205.625 270.125C205.625 270.828 206.172 271.375 206.875 271.375H208.125Z" fill="white"/>
</g>
<path d="M198 255.5H217C218.933 255.5 220.5 257.067 220.5 259V278C220.5 279.933 218.933 281.5 217 281.5H198C196.067 281.5 194.5 279.933 194.5 278V259C194.5 257.067 196.067 255.5 198 255.5Z" stroke="#01131A"/>
</g>
<g filter="url(#filter7_ii_5047_51201)">
<g clip-path="url(#clip7_5047_51201)">
<path d="M194 294C194 291.791 195.791 290 198 290H217C219.209 290 221 291.791 221 294V313C221 315.209 219.209 317 217 317H198C195.791 317 194 315.209 194 313V294Z" fill="#82878A"/>
<path d="M210.625 304.969C210.625 306.434 209.414 307.625 207.949 307.625H206.406C205.488 307.625 204.688 307.059 204.395 306.18C204.297 305.848 204.473 305.496 204.785 305.398C205.117 305.281 205.469 305.457 205.586 305.789C205.703 306.141 206.035 306.375 206.406 306.375H207.949C208.73 306.375 209.375 305.75 209.375 304.969C209.375 304.188 208.73 303.543 207.949 303.543H205C204.805 303.543 204.629 303.465 204.512 303.328C204.395 303.172 204.336 302.996 204.375 302.801L205 299.402C205.059 299.109 205.312 298.875 205.625 298.875H209.375C209.707 298.875 210 299.168 210 299.5C210 299.852 209.707 300.125 209.375 300.125H206.133L205.742 302.293H207.949C209.414 302.293 210.625 303.484 210.625 304.969Z" fill="white"/>
</g>
<path d="M198 290.5H217C218.933 290.5 220.5 292.067 220.5 294V313C220.5 314.933 218.933 316.5 217 316.5H198C196.067 316.5 194.5 314.933 194.5 313V294C194.5 292.067 196.067 290.5 198 290.5Z" stroke="#01131A"/>
</g>
<g filter="url(#filter8_ii_5047_51201)">
<g clip-path="url(#clip8_5047_51201)">
<path d="M194 329C194 326.791 195.791 325 198 325H217C219.209 325 221 326.791 221 329V348C221 350.209 219.209 352 217 352H198C195.791 352 194 350.209 194 348V329Z" fill="#82878A"/>
<path d="M210.625 342C210.625 342.352 210.332 342.625 210 342.625H205C204.727 342.625 204.492 342.469 204.414 342.234C204.316 342 204.375 341.727 204.57 341.551L208.516 337.996C208.809 337.703 208.984 337.273 208.984 336.824C208.984 336.375 208.809 335.945 208.496 335.633C207.812 334.969 206.699 334.969 206.016 335.633L205.43 336.199C205.176 336.453 204.785 336.434 204.531 336.199C204.297 335.945 204.316 335.555 204.551 335.301L205.156 334.734C206.309 333.602 208.203 333.602 209.355 334.734C209.922 335.301 210.234 336.043 210.234 336.824C210.234 337.605 209.922 338.348 209.355 338.914L206.621 341.375H210C210.332 341.375 210.625 341.668 210.625 342Z" fill="white"/>
</g>
<path d="M198 325.5H217C218.933 325.5 220.5 327.067 220.5 329V348C220.5 349.933 218.933 351.5 217 351.5H198C196.067 351.5 194.5 349.933 194.5 348V329C194.5 327.067 196.067 325.5 198 325.5Z" stroke="#01131A"/>
</g>
<g filter="url(#filter9_ii_5047_51201)">
<g clip-path="url(#clip9_5047_51201)">
<rect x="229" y="220" width="27" height="27" rx="4" fill="#474C52"/>
<path d="M246.656 237.031C246.93 237.277 246.93 237.688 246.656 237.934C246.41 238.207 246 238.207 245.754 237.934L242.5 234.68L239.219 237.934C238.973 238.207 238.562 238.207 238.316 237.934C238.043 237.688 238.043 237.277 238.316 237.031L241.57 233.75L238.316 230.496C238.043 230.25 238.043 229.84 238.316 229.594C238.562 229.32 238.973 229.32 239.219 229.594L242.5 232.848L245.754 229.594C246 229.32 246.41 229.32 246.656 229.594C246.93 229.84 246.93 230.25 246.656 230.496L243.402 233.75L246.656 237.031Z" fill="white"/>
</g>
<rect x="229.5" y="220.5" width="26" height="26" rx="3.5" stroke="#01131A"/>
</g>
<g filter="url(#filter10_ii_5047_51201)">
<g clip-path="url(#clip10_5047_51201)">
<path d="M229 259C229 256.791 230.791 255 233 255H252C254.209 255 256 256.791 256 259V278C256 280.209 254.209 282 252 282H233C230.791 282 229 280.209 229 278V259Z" fill="#82878A"/>
<path d="M239.453 267.742C239.219 266.785 239.453 265.789 240.078 265.027C240.664 264.305 241.543 263.875 242.48 263.875C242.52 263.875 242.539 263.875 242.578 263.895C244.258 263.934 245.625 265.379 245.625 267.117C245.625 267.996 245.312 268.855 244.746 269.539L242.344 272.41C242.129 272.684 241.738 272.703 241.465 272.488C241.191 272.273 241.172 271.883 241.387 271.609L242.617 270.125C242.324 270.145 242.012 270.125 241.719 270.047C240.605 269.773 239.707 268.875 239.453 267.742ZM242.48 265.145C241.445 265.145 240.605 265.965 240.605 267.02C240.605 268.055 241.445 268.895 242.48 268.895C243.535 268.895 244.355 268.055 244.355 267.02C244.355 265.965 243.535 265.145 242.48 265.145Z" fill="white"/>
</g>
<path d="M233 255.5H252C253.933 255.5 255.5 257.067 255.5 259V278C255.5 279.933 253.933 281.5 252 281.5H233C231.067 281.5 229.5 279.933 229.5 278V259C229.5 257.067 231.067 255.5 233 255.5Z" stroke="#01131A"/>
</g>
<g filter="url(#filter11_ii_5047_51201)">
<g clip-path="url(#clip11_5047_51201)">
<path d="M229 294C229 291.791 230.791 290 233 290H252C254.209 290 256 291.791 256 294V313C256 315.209 254.209 317 252 317H233C230.791 317 229 315.209 229 313V294Z" fill="#82878A"/>
<path d="M245.527 303.777C245.762 304.734 245.527 305.73 244.902 306.492C244.316 307.215 243.438 307.625 242.5 307.625C242.461 307.625 242.441 307.625 242.402 307.625C240.723 307.586 239.375 306.141 239.375 304.402C239.375 303.523 239.668 302.664 240.234 301.98L242.637 299.109C242.852 298.836 243.242 298.816 243.516 299.031C243.789 299.246 243.809 299.637 243.594 299.91L242.363 301.395C242.656 301.375 242.969 301.395 243.262 301.473C244.375 301.746 245.273 302.645 245.527 303.777ZM242.5 306.375C243.535 306.375 244.375 305.555 244.375 304.5C244.375 303.465 243.535 302.625 242.5 302.625C241.445 302.625 240.625 303.465 240.625 304.5C240.625 305.555 241.445 306.375 242.5 306.375Z" fill="white"/>
</g>
<path d="M233 290.5H252C253.933 290.5 255.5 292.067 255.5 294V313C255.5 314.933 253.933 316.5 252 316.5H233C231.067 316.5 229.5 314.933 229.5 313V294C229.5 292.067 231.067 290.5 233 290.5Z" stroke="#01131A"/>
</g>
<g filter="url(#filter12_ii_5047_51201)">
<g clip-path="url(#clip12_5047_51201)">
<path d="M229 329C229 326.791 230.791 325 233 325H252C254.209 325 256 326.791 256 329V348C256 350.209 254.209 352 252 352H233C230.791 352 229 350.209 229 348V329Z" fill="#82878A"/>
<path d="M245.625 339.969C245.625 341.434 244.414 342.625 242.949 342.625H241.406C240.488 342.625 239.688 342.059 239.395 341.18C239.297 340.848 239.473 340.496 239.785 340.398C240.117 340.281 240.469 340.457 240.586 340.789C240.703 341.141 241.035 341.375 241.406 341.375H242.949C243.73 341.375 244.375 340.75 244.375 339.969C244.375 339.188 243.73 338.543 242.949 338.543H241.25C240.996 338.543 240.762 338.387 240.664 338.152C240.566 337.918 240.625 337.645 240.801 337.469L243.164 335.125H240C239.648 335.125 239.375 334.852 239.375 334.5C239.375 334.168 239.648 333.875 240 333.875H244.688C244.922 333.875 245.156 334.031 245.254 334.266C245.352 334.5 245.293 334.773 245.117 334.949L242.754 337.293H242.949C244.414 337.293 245.625 338.484 245.625 339.969Z" fill="white"/>
</g>
<path d="M233 325.5H252C253.933 325.5 255.5 327.067 255.5 329V348C255.5 349.933 253.933 351.5 252 351.5H233C231.067 351.5 229.5 349.933 229.5 348V329C229.5 327.067 231.067 325.5 233 325.5Z" stroke="#01131A"/>
</g>
<g filter="url(#filter13_ii_5047_51201)">
<g clip-path="url(#clip13_5047_51201)">
<rect x="264" y="220" width="27" height="27" rx="4" fill="#474C52"/>
<path d="M282.188 232.938C282.492 232.938 282.75 233.195 282.75 233.5C282.75 233.828 282.492 234.062 282.188 234.062H272.812C272.484 234.062 272.25 233.828 272.25 233.5C272.25 233.195 272.484 232.938 272.812 232.938H282.188ZM277.5 230.875C276.867 230.875 276.375 230.383 276.375 229.75C276.375 229.141 276.867 228.625 277.5 228.625C278.109 228.625 278.625 229.141 278.625 229.75C278.625 230.383 278.109 230.875 277.5 230.875ZM277.5 236.125C278.109 236.125 278.625 236.641 278.625 237.25C278.625 237.883 278.109 238.375 277.5 238.375C276.867 238.375 276.375 237.883 276.375 237.25C276.375 236.641 276.867 236.125 277.5 236.125Z" fill="white"/>
</g>
<rect x="264.5" y="220.5" width="26" height="26" rx="3.5" stroke="#01131A"/>
</g>
<g filter="url(#filter14_ii_5047_51201)">
<g clip-path="url(#clip14_5047_51201)">
<rect x="264" y="255" width="27" height="27" rx="4" fill="#474C52"/>
<path d="M278.232 267.852H282.411V269.343H278.232V273.669H276.72V269.343H272.541V267.852H276.72V263.505H278.232V267.852Z" fill="white"/>
</g>
<rect x="264.5" y="255.5" width="26" height="26" rx="3.5" stroke="#01131A"/>
</g>
<g filter="url(#filter15_ii_5047_51201)">
<g clip-path="url(#clip15_5047_51201)">
<rect x="264" y="290" width="27" height="27" rx="4" fill="#474C52"/>
<path d="M283.188 303.75C283.188 304.133 282.887 304.406 282.531 304.406H272.469C272.086 304.406 271.812 304.133 271.812 303.75C271.812 303.395 272.086 303.094 272.469 303.094H282.531C282.887 303.094 283.188 303.395 283.188 303.75Z" fill="white"/>
</g>
<rect x="264.5" y="290.5" width="26" height="26" rx="3.5" stroke="#01131A"/>
</g>
<g filter="url(#filter16_ii_5047_51201)">
<g clip-path="url(#clip16_5047_51201)">
<rect x="264" y="325" width="27" height="45" rx="4" fill="#EB651C"/>
<path d="M272.897 349.68V348.26H282.057V349.68H272.897ZM272.897 353.66V352.24H282.057V353.66H272.897Z" fill="white"/>
</g>
<rect x="264.5" y="325.5" width="26" height="44" rx="3.5" stroke="#01131A"/>
</g>
</g>
<defs>
<filter id="filter0_d_5047_51201" x="25.8261" y="129" width="308.863" height="104.012" filterUnits="userSpaceOnUse" color-interpolation-filters="sRGB">
<feFlood flood-opacity="0" result="BackgroundImageFix"/>
<feColorMatrix in="SourceAlpha" type="matrix" values="0 0 0 0 0 0 0 0 0 0 0 0 0 0 0 0 0 0 127 0" result="hardAlpha"/>
<feOffset dx="-1.03128" dy="2.06255"/>
<feComposite in2="hardAlpha" operator="out"/>
<feColorMatrix type="matrix" values="0 0 0 0 0.682353 0 0 0 0 0.0392157 0 0 0 0 0.00784314 0 0 0 1 0"/>
<feBlend mode="normal" in2="BackgroundImageFix" result="effect1_dropShadow_5047_51201"/>
<feBlend mode="normal" in="SourceGraphic" in2="effect1_dropShadow_5047_51201" result="shape"/>
</filter>
<filter id="filter1_ii_5047_51201" x="159" y="220" width="27" height="27" filterUnits="userSpaceOnUse" color-interpolation-filters="sRGB">
<feFlood flood-opacity="0" result="BackgroundImageFix"/>
<feBlend mode="normal" in="SourceGraphic" in2="BackgroundImageFix" result="shape"/>
<feColorMatrix in="SourceAlpha" type="matrix" values="0 0 0 0 0 0 0 0 0 0 0 0 0 0 0 0 0 0 127 0" result="hardAlpha"/>
<feOffset dy="2"/>
<feComposite in2="hardAlpha" operator="arithmetic" k2="-1" k3="1"/>
<feColorMatrix type="matrix" values="0 0 0 0 0.992157 0 0 0 0 0.254902 0 0 0 0 0.278431 0 0 0 1 0"/>
<feBlend mode="normal" in2="shape" result="effect1_innerShadow_5047_51201"/>
<feColorMatrix in="SourceAlpha" type="matrix" values="0 0 0 0 0 0 0 0 0 0 0 0 0 0 0 0 0 0 127 0" result="hardAlpha"/>
<feOffset dy="-2"/>
<feComposite in2="hardAlpha" operator="arithmetic" k2="-1" k3="1"/>
<feColorMatrix type="matrix" values="0 0 0 0 0.584314 0 0 0 0 0.0235294 0 0 0 0 0.054902 0 0 0 1 0"/>
<feBlend mode="normal" in2="effect1_innerShadow_5047_51201" result="effect2_innerShadow_5047_51201"/>
</filter>
<filter id="filter2_ii_5047_51201" x="159" y="255" width="27" height="27" filterUnits="userSpaceOnUse" color-interpolation-filters="sRGB">
<feFlood flood-opacity="0" result="BackgroundImageFix"/>
<feBlend mode="normal" in="SourceGraphic" in2="BackgroundImageFix" result="shape"/>
<feColorMatrix in="SourceAlpha" type="matrix" values="0 0 0 0 0 0 0 0 0 0 0 0 0 0 0 0 0 0 127 0" result="hardAlpha"/>
<feOffset dy="2"/>
<feComposite in2="hardAlpha" operator="arithmetic" k2="-1" k3="1"/>
<feColorMatrix type="matrix" values="0 0 0 0 0.603922 0 0 0 0 0.639216 0 0 0 0 0.670588 0 0 0 1 0"/>
<feBlend mode="normal" in2="shape" result="effect1_innerShadow_5047_51201"/>
<feColorMatrix in="SourceAlpha" type="matrix" values="0 0 0 0 0 0 0 0 0 0 0 0 0 0 0 0 0 0 127 0" result="hardAlpha"/>
<feOffset dy="-2"/>
<feComposite in2="hardAlpha" operator="arithmetic" k2="-1" k3="1"/>
<feColorMatrix type="matrix" values="0 0 0 0 0.239216 0 0 0 0 0.243137 0 0 0 0 0.254902 0 0 0 1 0"/>
<feBlend mode="normal" in2="effect1_innerShadow_5047_51201" result="effect2_innerShadow_5047_51201"/>
</filter>
<filter id="filter3_ii_5047_51201" x="159" y="290" width="27" height="27" filterUnits="userSpaceOnUse" color-interpolation-filters="sRGB">
<feFlood flood-opacity="0" result="BackgroundImageFix"/>
<feBlend mode="normal" in="SourceGraphic" in2="BackgroundImageFix" result="shape"/>
<feColorMatrix in="SourceAlpha" type="matrix" values="0 0 0 0 0 0 0 0 0 0 0 0 0 0 0 0 0 0 127 0" result="hardAlpha"/>
<feOffset dy="2"/>
<feComposite in2="hardAlpha" operator="arithmetic" k2="-1" k3="1"/>
<feColorMatrix type="matrix" values="0 0 0 0 0.603922 0 0 0 0 0.639216 0 0 0 0 0.670588 0 0 0 1 0"/>
<feBlend mode="normal" in2="shape" result="effect1_innerShadow_5047_51201"/>
<feColorMatrix in="SourceAlpha" type="matrix" values="0 0 0 0 0 0 0 0 0 0 0 0 0 0 0 0 0 0 127 0" result="hardAlpha"/>
<feOffset dy="-2"/>
<feComposite in2="hardAlpha" operator="arithmetic" k2="-1" k3="1"/>
<feColorMatrix type="matrix" values="0 0 0 0 0.239216 0 0 0 0 0.243137 0 0 0 0 0.254902 0 0 0 1 0"/>
<feBlend mode="normal" in2="effect1_innerShadow_5047_51201" result="effect2_innerShadow_5047_51201"/>
</filter>
<filter id="filter4_ii_5047_51201" x="159" y="325" width="27" height="27" filterUnits="userSpaceOnUse" color-interpolation-filters="sRGB">
<feFlood flood-opacity="0" result="BackgroundImageFix"/>
<feBlend mode="normal" in="SourceGraphic" in2="BackgroundImageFix" result="shape"/>
<feColorMatrix in="SourceAlpha" type="matrix" values="0 0 0 0 0 0 0 0 0 0 0 0 0 0 0 0 0 0 127 0" result="hardAlpha"/>
<feOffset dy="2"/>
<feComposite in2="hardAlpha" operator="arithmetic" k2="-1" k3="1"/>
<feColorMatrix type="matrix" values="0 0 0 0 0.603922 0 0 0 0 0.639216 0 0 0 0 0.670588 0 0 0 1 0"/>
<feBlend mode="normal" in2="shape" result="effect1_innerShadow_5047_51201"/>
<feColorMatrix in="SourceAlpha" type="matrix" values="0 0 0 0 0 0 0 0 0 0 0 0 0 0 0 0 0 0 127 0" result="hardAlpha"/>
<feOffset dy="-2"/>
<feComposite in2="hardAlpha" operator="arithmetic" k2="-1" k3="1"/>
<feColorMatrix type="matrix" values="0 0 0 0 0.239216 0 0 0 0 0.243137 0 0 0 0 0.254902 0 0 0 1 0"/>
<feBlend mode="normal" in2="effect1_innerShadow_5047_51201" result="effect2_innerShadow_5047_51201"/>
</filter>
<filter id="filter5_ii_5047_51201" x="194" y="220" width="27" height="27" filterUnits="userSpaceOnUse" color-interpolation-filters="sRGB">
<feFlood flood-opacity="0" result="BackgroundImageFix"/>
<feBlend mode="normal" in="SourceGraphic" in2="BackgroundImageFix" result="shape"/>
<feColorMatrix in="SourceAlpha" type="matrix" values="0 0 0 0 0 0 0 0 0 0 0 0 0 0 0 0 0 0 127 0" result="hardAlpha"/>
<feOffset dy="2"/>
<feComposite in2="hardAlpha" operator="arithmetic" k2="-1" k3="1"/>
<feColorMatrix type="matrix" values="0 0 0 0 0.992157 0 0 0 0 0.254902 0 0 0 0 0.278431 0 0 0 1 0"/>
<feBlend mode="normal" in2="shape" result="effect1_innerShadow_5047_51201"/>
<feColorMatrix in="SourceAlpha" type="matrix" values="0 0 0 0 0 0 0 0 0 0 0 0 0 0 0 0 0 0 127 0" result="hardAlpha"/>
<feOffset dy="-2"/>
<feComposite in2="hardAlpha" operator="arithmetic" k2="-1" k3="1"/>
<feColorMatrix type="matrix" values="0 0 0 0 0.584314 0 0 0 0 0.0235294 0 0 0 0 0.054902 0 0 0 1 0"/>
<feBlend mode="normal" in2="effect1_innerShadow_5047_51201" result="effect2_innerShadow_5047_51201"/>
</filter>
<filter id="filter6_ii_5047_51201" x="194" y="255" width="27" height="27" filterUnits="userSpaceOnUse" color-interpolation-filters="sRGB">
<feFlood flood-opacity="0" result="BackgroundImageFix"/>
<feBlend mode="normal" in="SourceGraphic" in2="BackgroundImageFix" result="shape"/>
<feColorMatrix in="SourceAlpha" type="matrix" values="0 0 0 0 0 0 0 0 0 0 0 0 0 0 0 0 0 0 127 0" result="hardAlpha"/>
<feOffset dy="2"/>
<feComposite in2="hardAlpha" operator="arithmetic" k2="-1" k3="1"/>
<feColorMatrix type="matrix" values="0 0 0 0 0.603922 0 0 0 0 0.639216 0 0 0 0 0.670588 0 0 0 1 0"/>
<feBlend mode="normal" in2="shape" result="effect1_innerShadow_5047_51201"/>
<feColorMatrix in="SourceAlpha" type="matrix" values="0 0 0 0 0 0 0 0 0 0 0 0 0 0 0 0 0 0 127 0" result="hardAlpha"/>
<feOffset dy="-2"/>
<feComposite in2="hardAlpha" operator="arithmetic" k2="-1" k3="1"/>
<feColorMatrix type="matrix" values="0 0 0 0 0.239216 0 0 0 0 0.243137 0 0 0 0 0.254902 0 0 0 1 0"/>
<feBlend mode="normal" in2="effect1_innerShadow_5047_51201" result="effect2_innerShadow_5047_51201"/>
</filter>
<filter id="filter7_ii_5047_51201" x="194" y="290" width="27" height="27" filterUnits="userSpaceOnUse" color-interpolation-filters="sRGB">
<feFlood flood-opacity="0" result="BackgroundImageFix"/>
<feBlend mode="normal" in="SourceGraphic" in2="BackgroundImageFix" result="shape"/>
<feColorMatrix in="SourceAlpha" type="matrix" values="0 0 0 0 0 0 0 0 0 0 0 0 0 0 0 0 0 0 127 0" result="hardAlpha"/>
<feOffset dy="2"/>
<feComposite in2="hardAlpha" operator="arithmetic" k2="-1" k3="1"/>
<feColorMatrix type="matrix" values="0 0 0 0 0.603922 0 0 0 0 0.639216 0 0 0 0 0.670588 0 0 0 1 0"/>
<feBlend mode="normal" in2="shape" result="effect1_innerShadow_5047_51201"/>
<feColorMatrix in="SourceAlpha" type="matrix" values="0 0 0 0 0 0 0 0 0 0 0 0 0 0 0 0 0 0 127 0" result="hardAlpha"/>
<feOffset dy="-2"/>
<feComposite in2="hardAlpha" operator="arithmetic" k2="-1" k3="1"/>
<feColorMatrix type="matrix" values="0 0 0 0 0.239216 0 0 0 0 0.243137 0 0 0 0 0.254902 0 0 0 1 0"/>
<feBlend mode="normal" in2="effect1_innerShadow_5047_51201" result="effect2_innerShadow_5047_51201"/>
</filter>
<filter id="filter8_ii_5047_51201" x="194" y="325" width="27" height="27" filterUnits="userSpaceOnUse" color-interpolation-filters="sRGB">
<feFlood flood-opacity="0" result="BackgroundImageFix"/>
<feBlend mode="normal" in="SourceGraphic" in2="BackgroundImageFix" result="shape"/>
<feColorMatrix in="SourceAlpha" type="matrix" values="0 0 0 0 0 0 0 0 0 0 0 0 0 0 0 0 0 0 127 0" result="hardAlpha"/>
<feOffset dy="2"/>
<feComposite in2="hardAlpha" operator="arithmetic" k2="-1" k3="1"/>
<feColorMatrix type="matrix" values="0 0 0 0 0.603922 0 0 0 0 0.639216 0 0 0 0 0.670588 0 0 0 1 0"/>
<feBlend mode="normal" in2="shape" result="effect1_innerShadow_5047_51201"/>
<feColorMatrix in="SourceAlpha" type="matrix" values="0 0 0 0 0 0 0 0 0 0 0 0 0 0 0 0 0 0 127 0" result="hardAlpha"/>
<feOffset dy="-2"/>
<feComposite in2="hardAlpha" operator="arithmetic" k2="-1" k3="1"/>
<feColorMatrix type="matrix" values="0 0 0 0 0.239216 0 0 0 0 0.243137 0 0 0 0 0.254902 0 0 0 1 0"/>
<feBlend mode="normal" in2="effect1_innerShadow_5047_51201" result="effect2_innerShadow_5047_51201"/>
</filter>
<filter id="filter9_ii_5047_51201" x="229" y="220" width="27" height="27" filterUnits="userSpaceOnUse" color-interpolation-filters="sRGB">
<feFlood flood-opacity="0" result="BackgroundImageFix"/>
<feBlend mode="normal" in="SourceGraphic" in2="BackgroundImageFix" result="shape"/>
<feColorMatrix in="SourceAlpha" type="matrix" values="0 0 0 0 0 0 0 0 0 0 0 0 0 0 0 0 0 0 127 0" result="hardAlpha"/>
<feOffset dy="2"/>
<feComposite in2="hardAlpha" operator="arithmetic" k2="-1" k3="1"/>
<feColorMatrix type="matrix" values="0 0 0 0 0.4 0 0 0 0 0.443137 0 0 0 0 0.47451 0 0 0 1 0"/>
<feBlend mode="normal" in2="shape" result="effect1_innerShadow_5047_51201"/>
<feColorMatrix in="SourceAlpha" type="matrix" values="0 0 0 0 0 0 0 0 0 0 0 0 0 0 0 0 0 0 127 0" result="hardAlpha"/>
<feOffset dy="-2"/>
<feComposite in2="hardAlpha" operator="arithmetic" k2="-1" k3="1"/>
<feColorMatrix type="matrix" values="0 0 0 0 0.133333 0 0 0 0 0.152941 0 0 0 0 0.160784 0 0 0 1 0"/>
<feBlend mode="normal" in2="effect1_innerShadow_5047_51201" result="effect2_innerShadow_5047_51201"/>
</filter>
<filter id="filter10_ii_5047_51201" x="229" y="255" width="27" height="27" filterUnits="userSpaceOnUse" color-interpolation-filters="sRGB">
<feFlood flood-opacity="0" result="BackgroundImageFix"/>
<feBlend mode="normal" in="SourceGraphic" in2="BackgroundImageFix" result="shape"/>
<feColorMatrix in="SourceAlpha" type="matrix" values="0 0 0 0 0 0 0 0 0 0 0 0 0 0 0 0 0 0 127 0" result="hardAlpha"/>
<feOffset dy="2"/>
<feComposite in2="hardAlpha" operator="arithmetic" k2="-1" k3="1"/>
<feColorMatrix type="matrix" values="0 0 0 0 0.603922 0 0 0 0 0.639216 0 0 0 0 0.670588 0 0 0 1 0"/>
<feBlend mode="normal" in2="shape" result="effect1_innerShadow_5047_51201"/>
<feColorMatrix in="SourceAlpha" type="matrix" values="0 0 0 0 0 0 0 0 0 0 0 0 0 0 0 0 0 0 127 0" result="hardAlpha"/>
<feOffset dy="-2"/>
<feComposite in2="hardAlpha" operator="arithmetic" k2="-1" k3="1"/>
<feColorMatrix type="matrix" values="0 0 0 0 0.239216 0 0 0 0 0.243137 0 0 0 0 0.254902 0 0 0 1 0"/>
<feBlend mode="normal" in2="effect1_innerShadow_5047_51201" result="effect2_innerShadow_5047_51201"/>
</filter>
<filter id="filter11_ii_5047_51201" x="229" y="290" width="27" height="27" filterUnits="userSpaceOnUse" color-interpolation-filters="sRGB">
<feFlood flood-opacity="0" result="BackgroundImageFix"/>
<feBlend mode="normal" in="SourceGraphic" in2="BackgroundImageFix" result="shape"/>
<feColorMatrix in="SourceAlpha" type="matrix" values="0 0 0 0 0 0 0 0 0 0 0 0 0 0 0 0 0 0 127 0" result="hardAlpha"/>
<feOffset dy="2"/>
<feComposite in2="hardAlpha" operator="arithmetic" k2="-1" k3="1"/>
<feColorMatrix type="matrix" values="0 0 0 0 0.603922 0 0 0 0 0.639216 0 0 0 0 0.670588 0 0 0 1 0"/>
<feBlend mode="normal" in2="shape" result="effect1_innerShadow_5047_51201"/>
<feColorMatrix in="SourceAlpha" type="matrix" values="0 0 0 0 0 0 0 0 0 0 0 0 0 0 0 0 0 0 127 0" result="hardAlpha"/>
<feOffset dy="-2"/>
<feComposite in2="hardAlpha" operator="arithmetic" k2="-1" k3="1"/>
<feColorMatrix type="matrix" values="0 0 0 0 0.239216 0 0 0 0 0.243137 0 0 0 0 0.254902 0 0 0 1 0"/>
<feBlend mode="normal" in2="effect1_innerShadow_5047_51201" result="effect2_innerShadow_5047_51201"/>
</filter>
<filter id="filter12_ii_5047_51201" x="229" y="325" width="27" height="27" filterUnits="userSpaceOnUse" color-interpolation-filters="sRGB">
<feFlood flood-opacity="0" result="BackgroundImageFix"/>
<feBlend mode="normal" in="SourceGraphic" in2="BackgroundImageFix" result="shape"/>
<feColorMatrix in="SourceAlpha" type="matrix" values="0 0 0 0 0 0 0 0 0 0 0 0 0 0 0 0 0 0 127 0" result="hardAlpha"/>
<feOffset dy="2"/>
<feComposite in2="hardAlpha" operator="arithmetic" k2="-1" k3="1"/>
<feColorMatrix type="matrix" values="0 0 0 0 0.603922 0 0 0 0 0.639216 0 0 0 0 0.670588 0 0 0 1 0"/>
<feBlend mode="normal" in2="shape" result="effect1_innerShadow_5047_51201"/>
<feColorMatrix in="SourceAlpha" type="matrix" values="0 0 0 0 0 0 0 0 0 0 0 0 0 0 0 0 0 0 127 0" result="hardAlpha"/>
<feOffset dy="-2"/>
<feComposite in2="hardAlpha" operator="arithmetic" k2="-1" k3="1"/>
<feColorMatrix type="matrix" values="0 0 0 0 0.239216 0 0 0 0 0.243137 0 0 0 0 0.254902 0 0 0 1 0"/>
<feBlend mode="normal" in2="effect1_innerShadow_5047_51201" result="effect2_innerShadow_5047_51201"/>
</filter>
<filter id="filter13_ii_5047_51201" x="264" y="220" width="27" height="27" filterUnits="userSpaceOnUse" color-interpolation-filters="sRGB">
<feFlood flood-opacity="0" result="BackgroundImageFix"/>
<feBlend mode="normal" in="SourceGraphic" in2="BackgroundImageFix" result="shape"/>
<feColorMatrix in="SourceAlpha" type="matrix" values="0 0 0 0 0 0 0 0 0 0 0 0 0 0 0 0 0 0 127 0" result="hardAlpha"/>
<feOffset dy="2"/>
<feComposite in2="hardAlpha" operator="arithmetic" k2="-1" k3="1"/>
<feColorMatrix type="matrix" values="0 0 0 0 0.4 0 0 0 0 0.443137 0 0 0 0 0.47451 0 0 0 1 0"/>
<feBlend mode="normal" in2="shape" result="effect1_innerShadow_5047_51201"/>
<feColorMatrix in="SourceAlpha" type="matrix" values="0 0 0 0 0 0 0 0 0 0 0 0 0 0 0 0 0 0 127 0" result="hardAlpha"/>
<feOffset dy="-2"/>
<feComposite in2="hardAlpha" operator="arithmetic" k2="-1" k3="1"/>
<feColorMatrix type="matrix" values="0 0 0 0 0.133333 0 0 0 0 0.152941 0 0 0 0 0.160784 0 0 0 1 0"/>
<feBlend mode="normal" in2="effect1_innerShadow_5047_51201" result="effect2_innerShadow_5047_51201"/>
</filter>
<filter id="filter14_ii_5047_51201" x="264" y="255" width="27" height="27" filterUnits="userSpaceOnUse" color-interpolation-filters="sRGB">
<feFlood flood-opacity="0" result="BackgroundImageFix"/>
<feBlend mode="normal" in="SourceGraphic" in2="BackgroundImageFix" result="shape"/>
<feColorMatrix in="SourceAlpha" type="matrix" values="0 0 0 0 0 0 0 0 0 0 0 0 0 0 0 0 0 0 127 0" result="hardAlpha"/>
<feOffset dy="2"/>
<feComposite in2="hardAlpha" operator="arithmetic" k2="-1" k3="1"/>
<feColorMatrix type="matrix" values="0 0 0 0 0.4 0 0 0 0 0.443137 0 0 0 0 0.47451 0 0 0 1 0"/>
<feBlend mode="normal" in2="shape" result="effect1_innerShadow_5047_51201"/>
<feColorMatrix in="SourceAlpha" type="matrix" values="0 0 0 0 0 0 0 0 0 0 0 0 0 0 0 0 0 0 127 0" result="hardAlpha"/>
<feOffset dy="-2"/>
<feComposite in2="hardAlpha" operator="arithmetic" k2="-1" k3="1"/>
<feColorMatrix type="matrix" values="0 0 0 0 0.133333 0 0 0 0 0.152941 0 0 0 0 0.160784 0 0 0 1 0"/>
<feBlend mode="normal" in2="effect1_innerShadow_5047_51201" result="effect2_innerShadow_5047_51201"/>
</filter>
<filter id="filter15_ii_5047_51201" x="264" y="290" width="27" height="27" filterUnits="userSpaceOnUse" color-interpolation-filters="sRGB">
<feFlood flood-opacity="0" result="BackgroundImageFix"/>
<feBlend mode="normal" in="SourceGraphic" in2="BackgroundImageFix" result="shape"/>
<feColorMatrix in="SourceAlpha" type="matrix" values="0 0 0 0 0 0 0 0 0 0 0 0 0 0 0 0 0 0 127 0" result="hardAlpha"/>
<feOffset dy="2"/>
<feComposite in2="hardAlpha" operator="arithmetic" k2="-1" k3="1"/>
<feColorMatrix type="matrix" values="0 0 0 0 0.4 0 0 0 0 0.443137 0 0 0 0 0.47451 0 0 0 1 0"/>
<feBlend mode="normal" in2="shape" result="effect1_innerShadow_5047_51201"/>
<feColorMatrix in="SourceAlpha" type="matrix" values="0 0 0 0 0 0 0 0 0 0 0 0 0 0 0 0 0 0 127 0" result="hardAlpha"/>
<feOffset dy="-2"/>
<feComposite in2="hardAlpha" operator="arithmetic" k2="-1" k3="1"/>
<feColorMatrix type="matrix" values="0 0 0 0 0.133333 0 0 0 0 0.152941 0 0 0 0 0.160784 0 0 0 1 0"/>
<feBlend mode="normal" in2="effect1_innerShadow_5047_51201" result="effect2_innerShadow_5047_51201"/>
</filter>
<filter id="filter16_ii_5047_51201" x="264" y="325" width="27" height="45" filterUnits="userSpaceOnUse" color-interpolation-filters="sRGB">
<feFlood flood-opacity="0" result="BackgroundImageFix"/>
<feBlend mode="normal" in="SourceGraphic" in2="BackgroundImageFix" result="shape"/>
<feColorMatrix in="SourceAlpha" type="matrix" values="0 0 0 0 0 0 0 0 0 0 0 0 0 0 0 0 0 0 127 0" result="hardAlpha"/>
<feOffset dy="2"/>
<feComposite in2="hardAlpha" operator="arithmetic" k2="-1" k3="1"/>
<feColorMatrix type="matrix" values="0 0 0 0 0.984314 0 0 0 0 0.576471 0 0 0 0 0.317647 0 0 0 1 0"/>
<feBlend mode="normal" in2="shape" result="effect1_innerShadow_5047_51201"/>
<feColorMatrix in="SourceAlpha" type="matrix" values="0 0 0 0 0 0 0 0 0 0 0 0 0 0 0 0 0 0 127 0" result="hardAlpha"/>
<feOffset dy="-2"/>
<feComposite in2="hardAlpha" operator="arithmetic" k2="-1" k3="1"/>
<feColorMatrix type="matrix" values="0 0 0 0 0.133333 0 0 0 0 0.152941 0 0 0 0 0.160784 0 0 0 1 0"/>
<feBlend mode="normal" in2="effect1_innerShadow_5047_51201" result="effect2_innerShadow_5047_51201"/>
</filter>
<clipPath id="clip0_5047_51201">
<rect width="360" height="360" rx="8" fill="white"/>
</clipPath>
<clipPath id="clip1_5047_51201">
<rect x="159" y="220" width="27" height="27" rx="4" fill="white"/>
</clipPath>
<clipPath id="clip2_5047_51201">
<rect x="159" y="255" width="27" height="27" rx="4" fill="white"/>
</clipPath>
<clipPath id="clip3_5047_51201">
<rect x="159" y="290" width="27" height="27" rx="4" fill="white"/>
</clipPath>
<clipPath id="clip4_5047_51201">
<rect x="159" y="325" width="27" height="27" rx="4" fill="white"/>
</clipPath>
<clipPath id="clip5_5047_51201">
<rect x="194" y="220" width="27" height="27" rx="4" fill="white"/>
</clipPath>
<clipPath id="clip6_5047_51201">
<path d="M194 259C194 256.791 195.791 255 198 255H217C219.209 255 221 256.791 221 259V278C221 280.209 219.209 282 217 282H198C195.791 282 194 280.209 194 278V259Z" fill="white"/>
</clipPath>
<clipPath id="clip7_5047_51201">
<path d="M194 294C194 291.791 195.791 290 198 290H217C219.209 290 221 291.791 221 294V313C221 315.209 219.209 317 217 317H198C195.791 317 194 315.209 194 313V294Z" fill="white"/>
</clipPath>
<clipPath id="clip8_5047_51201">
<path d="M194 329C194 326.791 195.791 325 198 325H217C219.209 325 221 326.791 221 329V348C221 350.209 219.209 352 217 352H198C195.791 352 194 350.209 194 348V329Z" fill="white"/>
</clipPath>
<clipPath id="clip9_5047_51201">
<rect x="229" y="220" width="27" height="27" rx="4" fill="white"/>
</clipPath>
<clipPath id="clip10_5047_51201">
<path d="M229 259C229 256.791 230.791 255 233 255H252C254.209 255 256 256.791 256 259V278C256 280.209 254.209 282 252 282H233C230.791 282 229 280.209 229 278V259Z" fill="white"/>
</clipPath>
<clipPath id="clip11_5047_51201">
<path d="M229 294C229 291.791 230.791 290 233 290H252C254.209 290 256 291.791 256 294V313C256 315.209 254.209 317 252 317H233C230.791 317 229 315.209 229 313V294Z" fill="white"/>
</clipPath>
<clipPath id="clip12_5047_51201">
<path d="M229 329C229 326.791 230.791 325 233 325H252C254.209 325 256 326.791 256 329V348C256 350.209 254.209 352 252 352H233C230.791 352 229 350.209 229 348V329Z" fill="white"/>
</clipPath>
<clipPath id="clip13_5047_51201">
<rect x="264" y="220" width="27" height="27" rx="4" fill="white"/>
</clipPath>
<clipPath id="clip14_5047_51201">
<rect x="264" y="255" width="27" height="27" rx="4" fill="white"/>
</clipPath>
<clipPath id="clip15_5047_51201">
<rect x="264" y="290" width="27" height="27" rx="4" fill="white"/>
</clipPath>
<clipPath id="clip16_5047_51201">
<rect x="264" y="325" width="27" height="45" rx="4" fill="white"/>
</clipPath>
</defs>
</svg>
