<svg width="360" height="360" viewBox="0 0 360 360" fill="none" xmlns="http://www.w3.org/2000/svg">
<g clip-path="url(#clip0_5047_51312)">
<rect width="360" height="360" rx="8" fill="#F2F2F2"/>
<path d="M155.715 156.499C145.764 129.511 144.918 112.957 161.957 98.4774L211.372 60.2605C222.861 50.554 235.739 48.4951 250.631 57.6185L338.315 127.473L325.889 169.942L232.311 96.8365L155.715 156.499Z" fill="white" fill-opacity="0.44"/>
<path d="M301.614 344.432C326.345 342.637 332.427 331.186 338.92 303.496L251.435 302.696L215.226 186.776L180.974 214.554L213.499 322.264C220.581 338.307 230.686 346.228 245.624 344.845L301.614 344.432Z" fill="white" fill-opacity="0.44"/>
<path d="M333.327 58.0622C312.132 45.0842 303.124 50.6419 281.893 69.4201L349.91 123.902L314.797 239.729L358.56 240.668L390.163 132.029C395.738 115.826 391.254 104.216 378.151 92.4348L333.327 58.0622Z" fill="white" fill-opacity="0.44"/>
<path d="M417.702 219.443C422.544 197.538 413.966 182.903 389.82 168.145L365.581 251.158L244.92 250.069L260.58 291.455L372.371 293.529C389.707 291.697 400.309 284.462 403.615 269.73L417.702 219.443Z" fill="white" fill-opacity="0.44"/>
<path d="M195.145 292.223C167.099 295.644 155.922 295.459 145.709 272.697L129.501 218.323C125.288 201.155 130.131 188.863 141.686 179.528L232.128 109.034L266.011 136.636L170.163 210.546L195.145 292.223Z" fill="white" fill-opacity="0.44"/>
<path d="M34.3437 46.5075C32.784 42.2848 32.6515 39.6947 35.3219 37.4292L43.0665 31.4497C44.8671 29.931 46.8854 29.6088 49.2193 31.0363L62.9617 41.9659L61.0141 48.6107L46.3481 37.1724L34.3437 46.5075Z" fill="#FFC814"/>
<path d="M268.773 75.9952L270.119 65.1746H260.13L259.593 69.4965C259.151 73.9727 259.558 75.9952 265.312 75.9952H268.773Z" fill="#FFC814"/>
<path d="M270.448 62.5336L273.794 35.6298C274.394 31.6276 273.839 30.1364 270.05 30.1364H264.489L260.459 62.5336H270.448Z" fill="#FFC814"/>
<path d="M57.2097 75.912C61.0856 75.631 62.0389 73.8394 63.0565 69.507L49.3454 69.3818L43.6704 51.2446L38.3023 55.5908L43.3998 72.4434C44.5097 74.9536 46.0935 76.1929 48.4346 75.9766L57.2097 75.912Z" fill="#FFC814"/>
<path d="M62.1799 31.105C58.8582 29.0744 57.4463 29.944 54.1189 32.8821L64.7789 41.4064L59.2758 59.5291L66.1346 59.676L71.0875 42.6781C71.9613 40.1429 71.2586 38.3263 69.205 36.483L62.1799 31.105Z" fill="#EA2127"/>
<path fill-rule="evenodd" clip-rule="evenodd" d="M97.5708 75.1007C99.6469 75.3873 101.754 75.6109 103.893 75.7595C106.03 75.9194 108.285 75.9945 110.658 75.9945C113.537 75.9945 116.034 75.7175 118.125 75.1644C120.226 74.6098 121.976 73.7798 123.384 72.6833C124.778 71.599 125.884 70.2346 126.688 68.606C127.492 66.9889 128.049 65.1044 128.344 62.9648C128.785 59.9735 128.513 57.6522 127.524 55.9809C126.548 54.3112 124.809 53.214 122.323 52.6811L122.359 52.4268C124.032 51.9044 125.399 51.1592 126.472 50.1791C127.544 49.2005 128.378 48.0298 128.966 46.6677C129.555 45.2944 129.965 43.7611 130.196 42.0801C130.49 40.0996 130.474 38.3654 130.168 36.8741C129.853 35.3837 129.195 34.1379 128.195 33.1375C127.185 32.1363 125.777 31.3919 123.975 30.8922C122.172 30.3916 119.922 30.1356 117.232 30.1356C116.298 30.1356 115.486 30.1082 114.713 30.082C113.272 30.0333 111.964 29.989 110.242 30.1356C104.325 30.6407 103.89 32.7837 103.176 36.3031C103.13 36.531 103.082 36.7647 103.032 37.0041L97.5708 75.1007ZM114.271 38.8223C114.925 38.6948 115.569 38.631 116.204 38.631C116.948 38.6205 117.507 38.7787 117.886 39.088C118.264 39.4085 118.5 39.9075 118.577 40.6212C118.656 41.3236 118.619 42.2497 118.44 43.4212C118.213 45.082 117.822 46.3375 117.255 47.1885C116.677 48.0403 115.865 48.4658 114.794 48.4658H112.887L114.271 38.8223ZM111.662 57.0249H113.376C114.311 57.0136 115.029 57.1743 115.543 57.5045C116.057 57.8331 116.383 58.3659 116.52 59.0999C116.671 59.8241 116.66 60.793 116.475 62.0073C116.199 63.9345 115.713 65.3281 115.019 66.1798C114.325 67.0308 113.406 67.4579 112.265 67.4353C111.906 67.4353 111.547 67.4256 111.181 67.3925C110.803 67.3715 110.479 67.3393 110.187 67.3078L111.662 57.0249Z" fill="#EA2127"/>
<path d="M79.036 37.6397L78.012 44.7713H83.7424L80.8206 65.1482C80.3588 68.1525 81.2944 69.6493 84.2283 69.6413H88.4078L91.9737 44.7713H97.6575L98.1008 41.6766C98.3305 38.9089 96.7949 37.6631 93.4956 37.6397H79.036Z" fill="#EA2127"/>
<path d="M129.851 70.8062L135.665 30.1421H147.493L145.385 44.8793L143.45 54.7706H143.711L155.42 30.1421H161.622C165.704 30.0097 166.336 32.1727 165.77 35.9109L160.04 75.9945H148.214L150.452 60.3376L152.32 50.4479H152.061L140.22 75.9945H134.804C131.361 75.9945 129.314 74.1439 129.851 70.8062Z" fill="#EA2127"/>
<path d="M170.527 30.1358L165.122 67.9401C164.248 72.8975 166.521 75.9946 171.42 75.9946H175.731L178.364 57.5854H184.471L181.841 75.9946H193.667L199.412 35.8109C199.835 32.6912 199.061 30.1358 194.018 30.1358H188.397L185.934 47.3655H179.826L182.288 30.1358H170.527Z" fill="#EA2127"/>
<path d="M202.222 40.4114L203.682 30.2076H225.516C230.486 30.1357 231.325 32.4085 230.929 35.9626L230.293 40.4114H222.171L217.076 75.9945H211.317C205.946 75.9945 205.523 73.6644 206.148 70.1652L210.408 40.4114H202.222Z" fill="#EA2127"/>
<path fill-rule="evenodd" clip-rule="evenodd" d="M235.009 39.3799L235.008 39.382C234.321 41.0771 233.685 42.6482 233.088 44.4202L224.545 69.7875C224.087 71.1471 223.245 75.9947 228.709 75.9947H234.357L236.838 66.8494H244.05L243.844 75.9947H255.41C255.532 74.6221 255.603 72.9896 255.636 71.0946C255.659 69.2013 255.64 66.9907 255.549 64.4539C255.468 61.9163 255.325 58.9879 255.106 55.6889C254.897 52.3802 254.612 48.6226 254.252 44.4202C254.191 43.7077 254.134 42.9803 254.076 42.2383L254.075 42.2336C253.919 40.235 253.754 38.1312 253.484 35.9321C252.903 31.2049 252.53 30.1359 247.414 30.2675H243.113C239.166 30.1359 238.069 31.3897 236.635 35.2394C236.061 36.7794 235.521 38.1144 235.009 39.3799ZM239.329 57.181L243.51 42.5156L244.302 39.261H244.498L244.29 42.5156L244.331 57.181H239.329Z" fill="#EA2127"/>
<path d="M75.4035 56.3551C76.1625 52.9277 74.8181 50.6379 71.0337 48.3288L67.2349 61.3173L48.3243 61.1469L50.7787 67.6222L68.299 67.9467C71.016 67.6601 72.6777 66.5281 73.1957 64.223L75.4035 56.3551Z" fill="#EA2127"/>
<path d="M40.5233 67.7424C36.1278 68.2777 34.3761 68.2486 32.7755 64.6872L30.2352 56.1798C29.575 53.4936 30.334 51.5704 32.145 50.1098L46.3195 39.0801L51.6298 43.3988L36.608 54.9631L40.5233 67.7424Z" fill="#EA2127"/>
<g filter="url(#filter0_d_5047_51312)">
<rect x="47" y="162" width="266" height="170" rx="16" fill="white"/>
</g>
<g filter="url(#filter1_d_5047_51312)">
<rect x="38" y="146" width="284" height="170" rx="16" fill="white"/>
</g>
<g filter="url(#filter2_d_5047_51312)">
<rect x="38" y="113" width="284" height="170" rx="16" fill="white"/>
</g>
<g filter="url(#filter3_d_5047_51312)">
<rect x="30" y="130" width="300" height="170" rx="16" fill="white"/>
</g>
<circle cx="93" cy="193" r="43" fill="#3A3A3A"/>
<mask id="mask0_5047_51312" style="mask-type:alpha" maskUnits="userSpaceOnUse" x="50" y="150" width="86" height="86">
<circle cx="93" cy="193" r="43" fill="#FFC814"/>
</mask>
<g mask="url(#mask0_5047_51312)">
<path d="M84.7305 211.041C84.832 211.17 85.7362 211.62 85.9679 211.729C91.8865 214.514 92.1355 215.142 98.1036 212.641C98.8185 212.338 99.6197 211.707 100.354 211.53C100.342 211.816 100.311 212.228 100.354 212.497C101.828 212.886 104.794 214.138 106.282 214.807C107.922 215.48 109.576 216.144 111.198 216.856C112.317 217.367 113.687 217.896 114.842 218.337C116.704 219.152 119.115 219.768 120.702 221.081C121.075 221.63 121.696 222.058 122.149 222.541C125.864 226.497 125.25 230.638 125.248 235.567L125.247 247.601H112.625H104.911L88.5615 247.601C85.903 247.601 83.0638 247.655 80.422 247.601C79.7028 247.559 78.5968 247.597 77.8372 247.597L72.7288 247.601H60.4799C60.4338 246.51 60.4782 245.139 60.4788 244.017V231.9C60.4777 229.453 60.3812 227.727 61.3998 225.45C63.738 220.222 69.0365 218.539 74.0189 216.583C75.6802 215.884 77.3398 215.14 79.0151 214.481C80.6193 213.825 83.1909 212.668 84.7305 212.167C84.7783 211.838 84.7443 211.384 84.7305 211.041Z" fill="#24B179"/>
<path d="M111.199 216.854C112.318 217.365 113.688 217.893 114.843 218.334C116.704 219.15 119.116 219.766 120.703 221.078C121.076 221.627 121.697 222.055 122.15 222.538C125.865 226.494 125.25 230.635 125.249 235.564L125.248 247.598H112.626H104.912C104.852 246.188 104.91 244.332 104.912 242.887V237.686V234.588H106.283H111.199V216.854Z" fill="#24B179"/>
<path d="M104.912 234.586H106.283H111.199H112.626C112.651 235.615 112.622 236.653 112.626 237.684V242.885V247.596H104.912C104.852 246.187 104.91 244.33 104.912 242.885V237.684V234.586Z" fill="#E0DDDB"/>
<path d="M74.0189 216.582V234.589H79.0151H80.422C80.4265 235.594 80.4513 236.689 80.422 237.687V242.888V247.599C79.7028 247.557 78.5968 247.595 77.8372 247.596L72.7288 247.599H60.4799C60.4338 246.509 60.4782 245.138 60.4788 244.016V231.898C60.4777 229.452 60.3812 227.725 61.3998 225.448C63.738 220.221 69.0366 218.538 74.0189 216.582Z" fill="#24B179"/>
<path d="M74.0195 234.587H79.0156H80.4225C80.4271 235.592 80.4518 236.688 80.4225 237.685V242.886V247.598C79.7033 247.555 78.5973 247.594 77.8378 247.594L72.7293 247.598C72.7112 246.036 72.7269 244.45 72.7293 242.886V237.685V234.587C73.1839 234.571 73.5641 234.574 74.0195 234.587Z" fill="#E0DDDB"/>
<path d="M79.0157 214.475C79.0806 215.429 79.0118 217.037 79.012 218.056L79.0141 231.722C79.0149 232.43 79.0697 233.98 79.0157 234.584H74.0195V216.577C75.6808 215.877 77.3404 215.134 79.0157 214.475Z" fill="#198359"/>
<path d="M84.732 211.041C84.8336 211.17 85.7377 211.62 85.9695 211.729C91.8881 214.513 92.1371 215.142 98.1052 212.641C98.8201 212.338 99.6213 211.707 100.355 211.53C100.344 211.816 100.312 212.228 100.355 212.497C101.32 222.621 85.8177 223.316 84.697 213.977C84.6367 213.474 84.7106 212.687 84.732 212.167C84.7798 211.838 84.7458 211.384 84.732 211.041Z" fill="#F1B57D"/>
<path d="M106.284 214.803C107.924 215.476 109.578 216.139 111.2 216.852V234.586H106.284C106.246 233.996 106.278 233.031 106.28 232.418L106.284 214.803Z" fill="#198359"/>
<path d="M86.5115 169.183C86.8744 167.947 87.3646 166.296 88.9082 166.304C91.2344 166.315 94.0659 166.174 96.3125 166.383C97.8242 166.525 97.8939 168.689 98.3684 169.183C99.2316 169.423 100.417 169.674 101.078 170.283C106.925 172.702 110.061 181.745 110.07 187.529C112.379 188.282 112.55 190.919 110.542 191.963C109.967 192.261 107.333 192.126 106.558 192.128C106.537 192.495 106.543 192.756 106.558 193.125C110.908 193.399 110.506 199.447 106.558 199.49C106.231 200.09 106.13 200.836 105.9 201.454C104.892 204.155 103.286 206.603 100.956 208.336C100.797 208.454 100.467 208.699 100.353 208.856C100.366 209.747 100.359 210.633 100.353 211.524C99.6194 211.701 98.8182 212.332 98.1033 212.635C92.1352 215.136 91.8862 214.507 85.9676 211.723C85.7358 211.614 84.8317 211.164 84.7301 211.035C84.7347 210.476 84.7369 209.926 84.7301 209.367C84.6848 208.882 84.6191 208.958 84.2742 208.66C81.3759 206.16 79.6349 203.477 79.0819 199.578C79.0774 199.546 79.037 199.512 79.0148 199.49C74.5314 199.204 74.3247 193.255 78.8832 193.125C79.0092 192.888 78.9305 192.38 78.8832 192.128C77.8513 192.127 75.1551 192.325 74.3263 191.885C72.3104 190.814 73.1459 188.107 75.365 187.529C75.4562 187.392 75.358 186.709 75.3577 186.454C75.3499 179.52 78.4043 174.139 83.9543 170.283C85.0436 169.759 85.1851 169.501 86.5115 169.183Z" fill="#FFC814"/>
<path d="M78.8866 192.132C81.131 192.077 83.6138 192.131 85.8746 192.131L99.8296 192.132C101.945 192.132 104.502 192.208 106.561 192.132C106.54 192.498 106.546 192.76 106.561 193.128C110.912 193.403 110.509 199.451 106.561 199.494C106.234 200.093 106.133 200.84 105.903 201.457C104.895 204.159 103.29 206.606 100.959 208.34C100.801 208.458 100.471 208.703 100.357 208.859C100.369 209.75 100.362 210.637 100.357 211.527C99.6228 211.704 98.8217 212.335 98.1068 212.638C92.1387 215.139 91.8897 214.511 85.971 211.726C85.7393 211.617 84.8351 211.167 84.7336 211.038C84.7381 210.479 84.7404 209.929 84.7336 209.37C84.6883 208.885 84.6226 208.961 84.2776 208.664C81.3793 206.163 79.6384 203.48 79.0854 199.582C79.0808 199.55 79.0405 199.515 79.0182 199.494C74.5349 199.207 74.3281 193.258 78.8866 193.128C79.0127 192.891 78.934 192.383 78.8866 192.132Z" fill="#F1B57D"/>
<path d="M84.7305 209.37C84.7855 208.702 85.8486 209.733 86.2863 209.962C90.0265 211.914 94.1892 212.117 97.9856 210.214C98.5024 209.954 100.006 208.955 100.354 208.859C100.366 209.75 100.359 210.637 100.354 211.528C99.6197 211.704 98.8185 212.335 98.1036 212.639C92.1355 215.14 91.8865 214.511 85.9679 211.726C85.7362 211.617 84.832 211.168 84.7305 211.039C84.735 210.48 84.7373 209.93 84.7305 209.37Z" fill="#DF944D"/>
<path d="M79.0182 199.492C74.5349 199.206 74.3281 193.257 78.8866 193.127C78.9632 193.234 78.9183 195.197 78.8778 195.422C78.7917 195.899 79.0539 199.41 79.0182 199.492Z" fill="#F1B57D"/>
<path d="M106.559 193.127C110.909 193.401 110.507 199.45 106.559 199.492V193.127Z" fill="#F1B57D"/>
<path d="M110.07 187.533C112.379 188.286 112.55 190.922 110.542 191.966C109.967 192.265 107.333 192.13 106.558 192.132C104.498 192.208 101.942 192.133 99.8262 192.133L85.8712 192.132C83.6103 192.132 81.1275 192.078 78.8832 192.132C77.8513 192.131 75.1551 192.328 74.3263 191.888C72.3104 190.818 73.1459 188.111 75.365 187.533L105.845 187.533C107.12 187.533 108.82 187.584 110.07 187.533Z" fill="#FFA114"/>
<path d="M98.3694 169.186C99.2326 169.425 100.418 169.677 101.079 170.286C99.9106 173.547 99.4544 180.209 99.4583 183.569H96.7434C96.6391 179.446 97.2962 175.207 98.0265 171.148C98.1157 170.653 98.3779 169.644 98.3694 169.186Z" fill="#FFA114"/>
<path d="M86.5142 169.186C87.4853 172.591 88.3915 180.014 88.2426 183.569H85.5584C85.5596 179.813 85.026 173.97 83.957 170.286C85.0464 169.761 85.1878 169.504 86.5142 169.186Z" fill="#FFA114"/>
</g>
<circle cx="123" cy="221" r="9" fill="white"/>
<path fill-rule="evenodd" clip-rule="evenodd" d="M121.986 207.183C122.556 206.97 123.179 206.942 123.766 207.104L124.014 207.183L134.125 210.975C134.638 211.167 135.085 211.501 135.415 211.938C135.746 212.375 135.945 212.896 135.99 213.442L136 213.68V221.427C136 223.767 135.368 226.065 134.171 228.076C132.974 230.087 131.256 231.738 129.198 232.854L128.814 233.055L123.969 235.477C123.702 235.61 123.411 235.687 123.113 235.702C122.816 235.718 122.518 235.671 122.239 235.567L122.031 235.477L117.186 233.055C115.093 232.008 113.32 230.415 112.057 228.445C110.793 226.475 110.085 224.2 110.007 221.86L110 221.427V213.68C110 213.133 110.155 212.597 110.448 212.135C110.741 211.672 111.159 211.303 111.654 211.069L111.875 210.975L121.986 207.183ZM127.959 216.477L121.317 223.118L118.763 220.565C118.492 220.294 118.125 220.142 117.742 220.142C117.359 220.142 116.991 220.294 116.72 220.565C116.449 220.836 116.297 221.204 116.297 221.587C116.298 221.97 116.45 222.338 116.721 222.608L120.193 226.081C120.341 226.228 120.516 226.346 120.709 226.425C120.902 226.505 121.109 226.546 121.317 226.546C121.526 226.546 121.733 226.505 121.925 226.425C122.118 226.346 122.293 226.228 122.441 226.081L130.001 218.519C130.139 218.386 130.249 218.227 130.325 218.05C130.401 217.874 130.44 217.685 130.442 217.493C130.444 217.301 130.407 217.111 130.335 216.933C130.262 216.756 130.155 216.594 130.019 216.459C129.884 216.323 129.722 216.216 129.545 216.143C129.367 216.071 129.177 216.034 128.985 216.036C128.793 216.037 128.604 216.077 128.428 216.153C128.251 216.229 128.092 216.339 127.959 216.477Z" fill="#FFAE00"/>
<rect x="155" y="158" width="123" height="10" rx="5" fill="#BBBBBB"/>
<rect x="155" y="174" width="84" height="10" rx="5" fill="#BBBBBB"/>
<rect x="155" y="194" width="105" height="6" rx="3" fill="#E8E8E8"/>
<rect x="155" y="213" width="84" height="22" rx="11" fill="#FFF0C1"/>
<path d="M168.584 219.243C168.755 218.919 169.245 218.919 169.416 219.243L170.607 221.5C170.675 221.628 170.805 221.717 170.955 221.738L173.603 222.107C173.983 222.16 174.134 222.6 173.86 222.854L171.949 224.617C171.84 224.718 171.79 224.862 171.816 225.003L172.261 227.488C172.325 227.845 171.928 228.117 171.587 227.949L169.215 226.782C169.08 226.716 168.92 226.716 168.785 226.782L166.413 227.949C166.072 228.117 165.675 227.845 165.739 227.488L166.184 225.003C166.21 224.862 166.16 224.718 166.051 224.617L164.14 222.854C163.866 222.6 164.017 222.16 164.397 222.107L167.045 221.738C167.195 221.717 167.325 221.628 167.393 221.5L168.584 219.243Z" fill="#FFC814"/>
<path d="M182.584 219.243C182.755 218.919 183.245 218.919 183.416 219.243L184.607 221.5C184.675 221.628 184.805 221.717 184.955 221.738L187.603 222.107C187.983 222.16 188.134 222.6 187.86 222.854L185.949 224.617C185.84 224.718 185.79 224.862 185.816 225.003L186.261 227.488C186.325 227.845 185.928 228.117 185.587 227.949L183.215 226.782C183.08 226.716 182.92 226.716 182.785 226.782L180.413 227.949C180.072 228.117 179.675 227.845 179.739 227.488L180.184 225.003C180.21 224.862 180.16 224.718 180.051 224.617L178.14 222.854C177.866 222.6 178.017 222.16 178.397 222.107L181.045 221.738C181.195 221.717 181.325 221.628 181.393 221.5L182.584 219.243Z" fill="#FFC814"/>
<path d="M196.584 219.243C196.755 218.919 197.245 218.919 197.416 219.243L198.607 221.5C198.675 221.628 198.805 221.717 198.955 221.738L201.603 222.107C201.983 222.16 202.134 222.6 201.86 222.854L199.949 224.617C199.84 224.718 199.79 224.862 199.816 225.003L200.261 227.488C200.325 227.845 199.928 228.117 199.587 227.949L197.215 226.782C197.08 226.716 196.92 226.716 196.785 226.782L194.413 227.949C194.072 228.117 193.675 227.845 193.739 227.488L194.184 225.003C194.21 224.862 194.16 224.718 194.051 224.617L192.14 222.854C191.866 222.6 192.017 222.16 192.397 222.107L195.045 221.738C195.195 221.717 195.325 221.628 195.393 221.5L196.584 219.243Z" fill="#FFC814"/>
<path d="M210.584 219.243C210.755 218.919 211.245 218.919 211.416 219.243L212.607 221.5C212.675 221.628 212.805 221.717 212.955 221.738L215.603 222.107C215.983 222.16 216.134 222.6 215.86 222.854L213.949 224.617C213.84 224.718 213.79 224.862 213.816 225.003L214.261 227.488C214.325 227.845 213.928 228.117 213.587 227.949L211.215 226.782C211.08 226.716 210.92 226.716 210.785 226.782L208.413 227.949C208.072 228.117 207.675 227.845 207.739 227.488L208.184 225.003C208.21 224.862 208.16 224.718 208.051 224.617L206.14 222.854C205.866 222.6 206.017 222.16 206.397 222.107L209.045 221.738C209.195 221.717 209.325 221.628 209.393 221.5L210.584 219.243Z" fill="#FFC814"/>
<path d="M224.584 219.243C224.755 218.919 225.245 218.919 225.416 219.243L226.607 221.5C226.675 221.628 226.805 221.717 226.955 221.738L229.603 222.107C229.983 222.16 230.134 222.6 229.86 222.854L227.949 224.617C227.84 224.718 227.79 224.862 227.816 225.003L228.261 227.488C228.325 227.845 227.928 228.117 227.587 227.949L225.215 226.782C225.08 226.716 224.92 226.716 224.785 226.782L222.413 227.949C222.072 228.117 221.675 227.845 221.739 227.488L222.184 225.003C222.21 224.862 222.16 224.718 222.051 224.617L220.14 222.854C219.866 222.6 220.017 222.16 220.397 222.107L223.045 221.738C223.195 221.717 223.325 221.628 223.393 221.5L224.584 219.243Z" fill="#FFC814"/>
<rect x="155" y="256" width="133" height="4" rx="2" fill="#E8E8E8"/>
<rect x="155" y="266" width="105" height="4" rx="2" fill="#E8E8E8"/>
<rect x="155" y="276" width="145" height="4" rx="2" fill="#E8E8E8"/>
<g filter="url(#filter4_d_5047_51312)">
<rect x="50" y="254" width="86" height="28" rx="14" fill="#44DE48"/>
<rect x="63" y="265" width="60" height="6" rx="3" fill="#6FF472"/>
</g>
</g>
<defs>
<filter id="filter0_d_5047_51312" x="17" y="132" width="326" height="230" filterUnits="userSpaceOnUse" color-interpolation-filters="sRGB">
<feFlood flood-opacity="0" result="BackgroundImageFix"/>
<feColorMatrix in="SourceAlpha" type="matrix" values="0 0 0 0 0 0 0 0 0 0 0 0 0 0 0 0 0 0 127 0" result="hardAlpha"/>
<feOffset/>
<feGaussianBlur stdDeviation="15"/>
<feComposite in2="hardAlpha" operator="out"/>
<feColorMatrix type="matrix" values="0 0 0 0 0.893261 0 0 0 0 0.905509 0 0 0 0 0.907959 0 0 0 1 0"/>
<feBlend mode="normal" in2="BackgroundImageFix" result="effect1_dropShadow_5047_51312"/>
<feBlend mode="normal" in="SourceGraphic" in2="effect1_dropShadow_5047_51312" result="shape"/>
</filter>
<filter id="filter1_d_5047_51312" x="8" y="116" width="344" height="230" filterUnits="userSpaceOnUse" color-interpolation-filters="sRGB">
<feFlood flood-opacity="0" result="BackgroundImageFix"/>
<feColorMatrix in="SourceAlpha" type="matrix" values="0 0 0 0 0 0 0 0 0 0 0 0 0 0 0 0 0 0 127 0" result="hardAlpha"/>
<feOffset/>
<feGaussianBlur stdDeviation="15"/>
<feComposite in2="hardAlpha" operator="out"/>
<feColorMatrix type="matrix" values="0 0 0 0 0.893261 0 0 0 0 0.905509 0 0 0 0 0.907959 0 0 0 1 0"/>
<feBlend mode="normal" in2="BackgroundImageFix" result="effect1_dropShadow_5047_51312"/>
<feBlend mode="normal" in="SourceGraphic" in2="effect1_dropShadow_5047_51312" result="shape"/>
</filter>
<filter id="filter2_d_5047_51312" x="8" y="83" width="344" height="230" filterUnits="userSpaceOnUse" color-interpolation-filters="sRGB">
<feFlood flood-opacity="0" result="BackgroundImageFix"/>
<feColorMatrix in="SourceAlpha" type="matrix" values="0 0 0 0 0 0 0 0 0 0 0 0 0 0 0 0 0 0 127 0" result="hardAlpha"/>
<feOffset/>
<feGaussianBlur stdDeviation="15"/>
<feComposite in2="hardAlpha" operator="out"/>
<feColorMatrix type="matrix" values="0 0 0 0 0.893261 0 0 0 0 0.905509 0 0 0 0 0.907959 0 0 0 1 0"/>
<feBlend mode="normal" in2="BackgroundImageFix" result="effect1_dropShadow_5047_51312"/>
<feBlend mode="normal" in="SourceGraphic" in2="effect1_dropShadow_5047_51312" result="shape"/>
</filter>
<filter id="filter3_d_5047_51312" x="0" y="100" width="360" height="230" filterUnits="userSpaceOnUse" color-interpolation-filters="sRGB">
<feFlood flood-opacity="0" result="BackgroundImageFix"/>
<feColorMatrix in="SourceAlpha" type="matrix" values="0 0 0 0 0 0 0 0 0 0 0 0 0 0 0 0 0 0 127 0" result="hardAlpha"/>
<feOffset/>
<feGaussianBlur stdDeviation="15"/>
<feComposite in2="hardAlpha" operator="out"/>
<feColorMatrix type="matrix" values="0 0 0 0 0.893261 0 0 0 0 0.905509 0 0 0 0 0.907959 0 0 0 1 0"/>
<feBlend mode="normal" in2="BackgroundImageFix" result="effect1_dropShadow_5047_51312"/>
<feBlend mode="normal" in="SourceGraphic" in2="effect1_dropShadow_5047_51312" result="shape"/>
</filter>
<filter id="filter4_d_5047_51312" x="46" y="254" width="94" height="36" filterUnits="userSpaceOnUse" color-interpolation-filters="sRGB">
<feFlood flood-opacity="0" result="BackgroundImageFix"/>
<feColorMatrix in="SourceAlpha" type="matrix" values="0 0 0 0 0 0 0 0 0 0 0 0 0 0 0 0 0 0 127 0" result="hardAlpha"/>
<feOffset dy="4"/>
<feGaussianBlur stdDeviation="2"/>
<feComposite in2="hardAlpha" operator="out"/>
<feColorMatrix type="matrix" values="0 0 0 0 0.266667 0 0 0 0 0.870588 0 0 0 0 0.282353 0 0 0 0.24 0"/>
<feBlend mode="normal" in2="BackgroundImageFix" result="effect1_dropShadow_5047_51312"/>
<feBlend mode="normal" in="SourceGraphic" in2="effect1_dropShadow_5047_51312" result="shape"/>
</filter>
<clipPath id="clip0_5047_51312">
<rect width="360" height="360" rx="8" fill="white"/>
</clipPath>
</defs>
</svg>
