<svg width="360" height="360" viewBox="0 0 360 360" fill="none" xmlns="http://www.w3.org/2000/svg">
<g clip-path="url(#clip0_4412_22566)">
<rect width="360" height="360" rx="8" fill="#F1F2F6"/>
<rect x="336" y="71" width="298" height="180" rx="5" stroke="#1B2739" stroke-width="2"/>
<rect x="302" y="78" width="298" height="180" rx="5" fill="#F1F2F6" stroke="#1B2739" stroke-width="2"/>
<rect x="269" y="88" width="298" height="180" rx="5" fill="#F1F2F6" stroke="#1B2739" stroke-width="2"/>
<rect x="232" y="98" width="298" height="180" rx="5" fill="#F1F2F6" stroke="#1B2739" stroke-width="2"/>
<rect x="197" y="112" width="298" height="180" rx="5" fill="#F1F2F6" stroke="#1B2739" stroke-width="2"/>
<g clip-path="url(#clip1_4412_22566)">
<path d="M94.1212 75.4772C94.3615 75.0942 94.7456 74.7592 95.1299 74.4719C95.6582 74.1367 96.2826 73.9932 96.859 73.9932C98.2519 73.9932 98.9723 74.7592 99.2125 75.0463C99.8369 75.908 99.8849 77.0569 99.8849 77.9664V85.2429C99.8849 85.913 99.7889 86.8705 99.0685 87.5886C98.492 88.163 97.7716 88.4023 96.955 88.4023C96.1385 88.4023 95.6102 88.163 95.0819 87.8757C94.6976 87.6365 94.4094 87.3492 94.1693 87.062V93.9554H91.3354V74.2326H94.1693V75.4772H94.1212ZM94.1212 83.8067C94.1212 84.2376 94.1693 84.7642 94.5535 85.195C94.7456 85.3865 95.0819 85.6259 95.6102 85.6259C96.0424 85.6259 96.3306 85.4823 96.6189 85.195C96.955 84.812 97.003 84.3812 97.003 84.0462V78.3973C97.003 77.9186 97.003 77.5356 96.6189 77.1527C96.3787 76.8655 96.0424 76.7219 95.6102 76.7219C95.0819 76.7219 94.7456 76.9612 94.5535 77.1527C94.1212 77.5835 94.1212 78.1102 94.1212 78.5409V83.8067Z" fill="black"/>
<path d="M105.216 74.2334L107.522 82.9458H107.618L109.395 74.2334H112.229L108.386 90.1265C108.194 90.9404 107.954 92.2808 107.09 93.0945C106.225 93.9084 105.12 93.9563 104.256 93.9563H103.487L103.439 91.3234H103.968C104.352 91.3234 104.88 91.2754 105.312 90.7488C105.408 90.6053 105.601 90.318 105.841 89.4085L106.273 87.5894L102.19 74.2334H105.216Z" fill="black"/>
<path d="M113.861 78.158C113.861 76.674 114.438 75.7166 114.918 75.19C115.639 74.424 116.791 73.9932 118.184 73.9932C119.529 73.9932 120.49 74.5197 121.114 75.0463C121.642 75.5729 122.315 76.4346 122.315 77.9664V78.3495C122.315 79.1155 122.123 79.7377 121.835 80.1686C121.642 80.4557 121.306 80.8387 120.73 81.0782C121.306 81.3174 121.642 81.6526 121.883 81.9876C122.363 82.6579 122.411 83.4716 122.411 83.9982V84.3812C122.411 85.4343 121.979 86.5354 121.306 87.2056C120.586 87.9716 119.337 88.4023 118.04 88.4023C117.031 88.4023 115.783 88.0195 115.062 87.3492C114.39 86.7747 113.861 85.7216 113.861 84.5727V84.0462H116.599V84.3333C116.599 84.6684 116.695 85.0036 116.887 85.195C117.224 85.578 117.704 85.6737 118.04 85.6737C118.713 85.6737 119.097 85.4343 119.241 85.195C119.481 84.9077 119.577 84.429 119.577 83.9982V83.7589C119.577 83.1844 119.337 82.8493 119.145 82.7057C118.857 82.4663 118.424 82.3227 118.088 82.3227H117.079V79.8813H117.992C118.52 79.8813 118.905 79.6899 119.145 79.4504C119.337 79.2112 119.481 78.876 119.481 78.3973V78.2537C119.481 77.8707 119.337 77.4877 119.145 77.2006C118.857 76.8176 118.424 76.7219 118.088 76.7219C117.56 76.7219 117.176 76.9133 116.935 77.1527C116.647 77.4877 116.551 77.8707 116.551 78.2059V78.3973H113.813V78.158H113.861Z" fill="black"/>
<path d="M125.773 78.7325C125.773 77.6315 125.869 76.0994 127.166 74.9984C127.935 74.3283 128.991 73.9932 130.048 73.9932C131.105 73.9932 132.161 74.3283 132.93 74.9984C134.227 76.0994 134.323 77.6315 134.323 78.7325V83.711C134.323 84.812 134.227 86.3439 132.93 87.4449C132.161 88.1152 131.105 88.4503 130.048 88.4503C128.991 88.4503 127.935 88.1152 127.166 87.4449C125.869 86.3439 125.773 84.812 125.773 83.711V78.7325ZM131.489 78.5409C131.489 77.8707 131.297 77.392 131.057 77.1527C130.817 76.9133 130.48 76.7697 130.048 76.7697C129.616 76.7697 129.232 76.9612 129.039 77.1527C128.799 77.4399 128.607 77.9186 128.607 78.5409V83.8546C128.607 84.5249 128.799 85.0036 129.039 85.2429C129.28 85.4823 129.616 85.6259 130.048 85.6259C130.48 85.6259 130.817 85.4343 131.057 85.2429C131.297 84.9556 131.489 84.4769 131.489 83.8546V78.5409Z" fill="black"/>
<path d="M142.68 74.2334C143.881 74.2334 144.841 74.6643 145.466 75.2387C146.09 75.9088 146.378 76.9141 146.378 77.6801V78.3503C146.378 78.9247 146.282 79.7385 145.706 80.4087C145.562 80.6003 145.177 80.9353 144.601 81.1268C144.937 81.2225 145.466 81.4618 145.898 82.0364C146.378 82.7065 146.474 83.4245 146.474 84.047V84.7171C146.474 86.0097 145.85 86.8713 145.322 87.35C144.409 88.1638 143.304 88.2595 142.248 88.2595H137.925V74.2334H142.68ZM140.807 79.9778H142.055C142.488 79.9778 142.824 79.93 143.208 79.5471C143.496 79.1641 143.544 78.7811 143.544 78.3981V78.111C143.544 77.4885 143.256 77.2014 143.208 77.1057C142.92 76.7705 142.44 76.7227 142.055 76.7227H140.807V79.9778ZM140.807 85.6745H142.103C142.488 85.6745 142.968 85.6267 143.304 85.1958C143.592 84.9085 143.592 84.5257 143.592 84.1905V83.664C143.592 83.3288 143.544 82.9458 143.256 82.6108C142.92 82.2278 142.44 82.18 142.055 82.18H140.759V85.6745H140.807Z" fill="black"/>
<path d="M155.648 86.8226C155.456 87.1576 155.072 87.5884 154.688 87.8757C154.159 88.3066 153.631 88.4023 153.055 88.4023C152.478 88.4023 151.614 88.3066 150.893 87.6842C150.029 86.8704 149.885 85.5779 149.885 84.4769C149.885 83.4716 149.933 81.9397 150.749 80.9823C151.662 79.8812 153.247 79.7854 154.111 79.7854C154.304 79.7854 154.832 79.7854 155.744 79.8812V78.3972C155.744 78.0143 155.696 77.5834 155.36 77.2004C155.072 76.9132 154.64 76.7696 154.207 76.7696C153.823 76.7696 153.391 76.9132 153.055 77.2962C152.863 77.5356 152.719 77.8227 152.67 78.2057H149.981C149.933 76.9612 150.509 75.8122 151.133 75.1899C151.854 74.4717 153.007 74.041 154.304 74.041C155.552 74.041 156.609 74.4717 157.329 75.1899C158.338 76.1952 158.482 77.5356 158.482 78.493V88.2587H155.648V86.8226ZM155.696 82.1312C155.36 82.0833 155.024 82.0354 154.688 82.0354C154.255 82.0354 153.535 82.0833 153.103 82.6099C152.719 83.0407 152.67 83.6152 152.67 84.0939C152.67 84.4769 152.719 84.9077 152.959 85.2427C153.247 85.6736 153.631 85.913 154.111 85.913C154.976 85.913 155.696 85.3386 155.696 84.0939V82.1312Z" fill="black"/>
<path d="M167.848 88.2109V82.4663H166.6L164.678 88.2109H161.604L163.91 82.0354C163.526 81.844 163.093 81.5089 162.805 81.1259C162.421 80.5993 162.181 79.6897 162.181 78.9239V77.727C162.181 76.4346 162.805 75.5729 163.334 75.0941C164.246 74.2803 165.351 74.1846 166.408 74.1846H170.73V88.163H167.848V88.2109ZM167.848 76.4824H166.552C166.167 76.4824 165.831 76.5303 165.447 76.9133C165.063 77.2963 165.015 77.6313 165.015 78.11V78.7324C165.015 79.0196 165.063 79.4504 165.351 79.7856C165.687 80.1684 166.119 80.2164 166.552 80.2164H167.848V76.4824Z" fill="black"/>
<path d="M177.118 111.189V105.445H175.87L173.948 111.189H170.874L173.18 105.014C172.795 104.822 172.363 104.487 172.075 104.104C171.691 103.578 171.45 102.668 171.45 101.902V100.706C171.45 99.4129 172.075 98.5512 172.603 98.0727C173.516 97.2588 174.62 97.1631 175.677 97.1631H180V111.141H177.118V111.189ZM177.118 99.4608H175.821C175.437 99.4608 175.101 99.5087 174.717 99.8917C174.333 100.275 174.284 100.61 174.284 101.089V101.711C174.284 101.998 174.333 102.429 174.62 102.764C174.957 103.147 175.437 103.195 175.821 103.195H177.118V99.4608Z" fill="black"/>
<path d="M85.5233 102.86C86.0996 102.86 86.4359 102.764 86.724 102.19C86.9642 101.759 87.0122 101.232 87.1083 100.849L87.3005 99.8439C87.3965 99.3174 87.5406 98.5514 87.9729 98.0248C88.5492 97.2109 89.5099 97.1152 90.4225 97.1152H91.0949V99.5088H90.7106C90.3743 99.5088 90.1342 99.6524 89.9902 99.7961C89.894 99.9397 89.75 100.179 89.7019 100.754L89.5579 101.807C89.4618 102.477 89.4618 102.956 89.2696 103.386C89.0776 103.769 88.8855 103.961 88.6933 104.104L91.2389 111.285H88.357L86.3398 105.301H84.7548V111.285H81.9209V97.3068H84.7548V102.956H85.5233V102.86Z" fill="black"/>
<path d="M93.7852 101.711C93.7852 100.61 93.8813 99.078 95.178 97.977C95.9466 97.3067 97.0033 96.9717 98.0599 96.9717C99.1166 96.9717 100.173 97.3067 100.942 97.977C102.239 99.078 102.335 100.61 102.335 101.711V106.689C102.335 107.791 102.239 109.322 100.942 110.423C100.173 111.094 99.1166 111.429 98.0599 111.429C97.0033 111.429 95.9466 111.094 95.178 110.423C93.8813 109.322 93.7852 107.791 93.7852 106.689V101.711ZM99.5009 101.567C99.5009 100.897 99.3087 100.418 99.0686 100.179C98.8284 99.9397 98.4922 99.796 98.0599 99.796C97.6276 99.796 97.2914 99.9875 97.0513 100.179C96.8112 100.466 96.619 100.945 96.619 101.567V106.881C96.619 107.551 96.8112 108.03 97.0513 108.269C97.2914 108.509 97.6276 108.652 98.0599 108.652C98.4922 108.652 98.8764 108.461 99.0686 108.269C99.3087 107.982 99.5009 107.503 99.5009 106.881V101.567Z" fill="black"/>
<path d="M111.604 105.014H111.652L114.63 97.2109H117.224V111.189H114.582V103.243L112.18 109.179H110.98L108.626 103.243V111.189H105.984V97.2109H108.578L111.604 105.014Z" fill="black"/>
<path d="M121.162 97.2109H129.52V111.189H126.686V99.7481H123.948V111.189H121.114V97.2109H121.162Z" fill="black"/>
<path d="M139.029 109.801H138.981C138.789 110.088 138.405 110.567 138.021 110.854C137.493 111.285 136.964 111.381 136.388 111.381C135.811 111.381 134.947 111.285 134.226 110.663C133.362 109.849 133.218 108.556 133.218 107.455C133.218 106.45 133.266 104.918 134.082 103.961C134.995 102.86 136.58 102.764 137.444 102.764C137.637 102.764 138.165 102.764 139.078 102.86V101.376C139.078 100.993 139.029 100.562 138.693 100.179C138.405 99.8918 137.973 99.7481 137.541 99.7481C137.156 99.7481 136.724 99.8918 136.388 100.275C136.196 100.514 136.052 100.801 136.004 101.184H133.314C133.266 99.8917 133.842 98.8385 134.467 98.1684C135.187 97.4504 136.34 97.0195 137.637 97.0195C138.933 97.0195 139.942 97.4504 140.663 98.1684C141.671 99.1737 141.815 100.514 141.815 101.472V111.237H139.029V109.801ZM139.029 105.11C138.693 105.062 138.357 105.014 138.021 105.014C137.589 105.014 136.868 105.062 136.436 105.588C136.052 106.019 136.004 106.594 136.004 107.072C136.004 107.455 136.052 107.838 136.292 108.221C136.58 108.652 136.964 108.892 137.444 108.892C138.309 108.892 139.029 108.317 139.029 107.072V105.11Z" fill="black"/>
<path d="M145.754 97.2109H148.588V102.86H151.469V97.2109H154.303V111.189H151.469V105.397H148.588V111.189H145.754V97.2109Z" fill="black"/>
<path d="M161.028 97.2109V105.014L164.486 98.9342V97.2109H167.32V111.189H164.486V103.386L161.028 109.466V111.189H158.194V97.2109H161.028Z" fill="black"/>
<path d="M85.9077 74.2334C84.899 74.2334 83.7463 74.3291 82.8337 75.095C81.8251 75.9567 81.729 77.1535 81.729 78.1588C81.729 77.2014 81.729 88.2117 81.729 88.2117H84.5629V78.6375C84.5629 78.2067 84.6589 77.8715 84.9951 77.4885C85.4274 77.0577 85.8597 77.0098 86.34 77.0098H88.7896V74.2334H85.9077Z" fill="black"/>
<path d="M37.4448 74.2329H30C31.8732 94.961 49.3564 111.237 70.634 111.237C71.8829 111.237 74.3324 111.237 74.3324 111.237V103.817C74.3324 103.817 71.8829 103.817 70.634 103.817C53.439 103.817 39.318 90.8441 37.4448 74.2329ZM66.9356 37.42V30C47.3391 31.7712 31.7771 47.2814 30 66.8129H37.4448C39.1739 51.3984 51.4697 39.1434 66.9356 37.42ZM74.3804 30V37.42C89.8463 39.1434 102.142 51.3504 103.871 66.8129H111.316C109.539 47.2814 93.9289 31.7712 74.3804 30Z" fill="#930D40"/>
<path d="M66.7436 44.792L61.5083 50.0578C64.8704 53.4087 66.9357 58.0523 66.9357 63.1266V96.397H74.3806V63.1266C74.3324 55.9939 71.4506 49.4833 66.7436 44.792Z" fill="#930D40"/>
</g>
<rect x="31" y="138" width="298" height="180" rx="5" fill="#F1F2F6" stroke="#1B2739" stroke-width="2"/>
<line x1="180" y1="143.5" x2="320" y2="143.5" stroke="#1B2739"/>
<line x1="116" y1="210.5" x2="256" y2="210.5" stroke="#1B2739"/>
<path d="M268 228.5L310.5 228.5" stroke="#1B2739"/>
<path d="M273 250.5L315.5 250.5" stroke="#1B2739"/>
<line x1="323.5" y1="149" x2="323.5" y2="244" stroke="#1B2739"/>
<path d="M256.5 232V264" stroke="#1B2739"/>
<path d="M256.5 210V227.5" stroke="#1B2739"/>
<path d="M323.5 255V314" stroke="#1B2739"/>
<line x1="48.5" y1="197" x2="48.5" y2="292" stroke="#1B2739"/>
<path d="M40.5 179V196.5" stroke="#1B2739"/>
<path d="M57 184V196.5" stroke="#1B2739"/>
<path d="M57 179V182" stroke="#1B2739"/>
<path d="M255 158V170.5" stroke="#1B2739"/>
<path d="M323.5 143V147" stroke="#1B2739"/>
<path d="M64 159C64 153.833 60.7341 149.428 56.1538 147.738M52 171C46.6608 171 42.1361 167.513 40.5788 162.692M40 159C40 152.373 45.3726 147 52 147" stroke="#1B2739"/>
<line x1="57" y1="163.5" x2="88" y2="163.5" stroke="#1B2739"/>
<path d="M57 168H76" stroke="#1B2739"/>
<path d="M52.0001 166.847V160.496C52.0001 158.287 51.5934 156.097 50.8003 154.035L49.6924 151.154" stroke="#1B2739"/>
<path d="M97.7695 152.115H122" stroke="#1B2739"/>
<path d="M126 152.115H139.5" stroke="#1B2739"/>
<path d="M144 152.115H166.5" stroke="#1B2739"/>
<path d="M279 162H301.5" stroke="#1B2739"/>
<path d="M66 188H100" stroke="#1B2739"/>
<path d="M110 188H132.5" stroke="#1B2739"/>
<path d="M142 188H164.5" stroke="#1B2739"/>
<path d="M279 188H301.5" stroke="#1B2739"/>
<path d="M174 188H216" stroke="#1B2739"/>
<path d="M226 188H268" stroke="#1B2739"/>
<path d="M279 167H310.5" stroke="#1B2739"/>
<rect x="98" y="158" width="94" height="12" rx="2" stroke="#1B2739"/>
<path d="M125 160H189C189.552 160 190 160.448 190 161V164" stroke="#1B2739"/>
<rect x="237" y="158" width="12" height="12" rx="6" stroke="#1B2739"/>
<rect x="36" y="203" width="8" height="8" rx="4" stroke="#1B2739"/>
<rect x="36" y="214" width="8" height="8" rx="4" stroke="#1B2739"/>
<rect x="36" y="225" width="8" height="8" rx="4" stroke="#1B2739"/>
<rect x="36" y="236" width="8" height="8" rx="4" stroke="#1B2739"/>
<rect x="36" y="247" width="8" height="8" rx="4" stroke="#1B2739"/>
<rect x="36" y="258" width="8" height="8" rx="4" stroke="#1B2739"/>
<rect x="261" y="158" width="12" height="12" rx="6" stroke="#1B2739"/>
<line x1="32" y1="179.5" x2="320" y2="179.5" stroke="#1B2739"/>
<line x1="32" y1="196.5" x2="320" y2="196.5" stroke="#1B2739"/>
<rect x="59" y="206.2" width="202" height="73" stroke="#1B2739"/>
<rect x="268" y="206" width="48" height="73" stroke="#1B2739"/>
<path d="M98 165.293L103.647 159.647" stroke="#1B2739"/>
<path d="M98.5 169L106 161.5" stroke="#1B2739"/>
<path d="M102 170L107.647 164.354" stroke="#1B2739"/>
<path d="M106 170L110 166" stroke="#1B2739"/>
<path d="M40.5 186.5L44 183" stroke="#1B2739"/>
<path d="M40.5 191L45.5 186" stroke="#1B2739"/>
<path d="M40.5 195.5L50.5 185.5" stroke="#1B2739"/>
<path d="M44 196.5L51 189.5" stroke="#1B2739"/>
<path d="M48.5 196.5L57 188" stroke="#1B2739"/>
<path d="M53.5 196.5L57 193" stroke="#1B2739"/>
<path d="M110 170L115.647 164.354" stroke="#1B2739"/>
<path d="M114 170L119.647 164.354" stroke="#1B2739"/>
<path d="M118 170L122.5 165.5" stroke="#1B2739"/>
<path d="M122 170L127.647 164.354" stroke="#1B2739"/>
<path d="M126 170L130.5 165.5" stroke="#1B2739"/>
<path d="M130 170L137.5 162.5" stroke="#1B2739"/>
<path d="M134 170L139.647 164.354" stroke="#1B2739"/>
<path d="M138 170L142.5 165.5" stroke="#1B2739"/>
<path d="M142 170L147.647 164.354" stroke="#1B2739"/>
<path d="M146 170L150 166" stroke="#1B2739"/>
<path d="M150 170L155.647 164.354" stroke="#1B2739"/>
<path d="M154 170L159.647 164.354" stroke="#1B2739"/>
<path d="M158 170L163.647 164.354" stroke="#1B2739"/>
<path d="M162 170L170 161.5" stroke="#1B2739"/>
<path d="M166 170L170 165.5" stroke="#1B2739"/>
<path d="M170 170L175.647 164.354" stroke="#1B2739"/>
<path d="M174 170L179.647 164.354" stroke="#1B2739"/>
<path d="M178 170L184.5 163.5" stroke="#1B2739"/>
<path d="M182 170L188.5 163.5" stroke="#1B2739"/>
<path d="M186 170L189.5 166.5" stroke="#1B2739"/>
<path d="M237 164L240.5 160.5" stroke="#1B2739"/>
<path d="M262 167L266.5 162.5" stroke="#1B2739"/>
<path d="M238 167L244.5 160.5" stroke="#1B2739"/>
<path d="M264 169L270.5 162.5" stroke="#1B2739"/>
<path d="M267 170L270 167" stroke="#1B2739"/>
<path d="M240 169L243.5 165.5" stroke="#1B2739"/>
<path d="M245.1 163.5L248.1 160.5" stroke="#1B2739"/>
<path d="M59.0002 213L65.6464 206.354" stroke="#1B2739"/>
<path d="M62 215L70.6464 206.354" stroke="#1B2739"/>
<path d="M62 220L75.6465 206.353" stroke="#1B2739"/>
<path d="M69 218L80.6468 206.354" stroke="#1B2739"/>
<path d="M62.0002 230L85.6464 206.354" stroke="#1B2739"/>
<path d="M68.5 228.5L90.6467 206.353" stroke="#1B2739"/>
<path d="M63.0002 239L95.6467 206.353" stroke="#1B2739"/>
<path d="M80 227L100.647 206.353" stroke="#1B2739"/>
<path d="M73.5002 238.5L105.647 206.353" stroke="#1B2739"/>
<path d="M71.5002 245.5L110.647 206.354" stroke="#1B2739"/>
<path d="M85.0002 237L115.646 206.354" stroke="#1B2739"/>
<path d="M101.5 225.5L120.647 206.353" stroke="#1B2739"/>
<path d="M102 230L125.647 206.354" stroke="#1B2739"/>
<path d="M114 223L130.646 206.354" stroke="#1B2739"/>
<path d="M93.5 248.5L135.646 206.354" stroke="#1B2739"/>
<path d="M94.5 252.5L140.647 206.353" stroke="#1B2739"/>
<path d="M112 240L145.646 206.354" stroke="#1B2739"/>
<path d="M113 244L150.646 206.354" stroke="#1B2739"/>
<path d="M141 221L155.647 206.354" stroke="#1B2739"/>
<path d="M138 229L160.647 206.353" stroke="#1B2739"/>
<path d="M131 241L165.647 206.354" stroke="#1B2739"/>
<path d="M139.5 237.5L170.646 206.354" stroke="#1B2739"/>
<path d="M136 246L175.647 206.353" stroke="#1B2739"/>
<path d="M143.5 243.5L180.647 206.353" stroke="#1B2739"/>
<path d="M162 230L185.647 206.353" stroke="#1B2739"/>
<path d="M158.5 238.5L190.646 206.354" stroke="#1B2739"/>
<path d="M174.5 227.5L195.646 206.354" stroke="#1B2739"/>
<path d="M171.5 235.5L200.647 206.354" stroke="#1B2739"/>
<path d="M183.5 228.5L205.647 206.353" stroke="#1B2739"/>
<path d="M194 223L210.646 206.354" stroke="#1B2739"/>
<path d="M195.5 226.5L215.647 206.353" stroke="#1B2739"/>
<path d="M205.5 221.5L220.647 206.353" stroke="#1B2739"/>
<path d="M201.5 230.5L225.646 206.354" stroke="#1B2739"/>
<path d="M216.5 220.5L230.646 206.354" stroke="#1B2739"/>
<path d="M207 235L235.646 206.354" stroke="#1B2739"/>
<path d="M217.5 229.5L240.646 206.354" stroke="#1B2739"/>
<path d="M233 219L245.646 206.354" stroke="#1B2739"/>
<path d="M234 223L250.647 206.354" stroke="#1B2739"/>
<path d="M233 229L255.647 206.353" stroke="#1B2739"/>
<path d="M227.5 239.5L260.646 206.354" stroke="#1B2739"/>
<path d="M244 228.5L261.147 211.354" stroke="#1B2739"/>
<path d="M304 243L282.5 232L299 223L288.5 217" stroke="#160E0F" stroke-width="3"/>
<path d="M277.5 243L299 232L282.5 223L293 217" stroke="#160E0F" stroke-width="3"/>
<path d="M211 243L189.5 232L206 223L195.5 217" stroke="#160E0F" stroke-width="3"/>
<path d="M184.5 243L206 232L189.5 223L200 217" stroke="#160E0F" stroke-width="3"/>
<rect x="147" y="309" width="197" height="7" rx="2" fill="#160E0F"/>
<path d="M147 311C147 309.895 147.895 309 149 309H342C343.105 309 344 309.895 344 311H147Z" fill="#393B43"/>
<rect x="147" y="321" width="52" height="12" rx="6" fill="#160E0F"/>
<rect x="170" y="316" width="6" height="8" fill="#160E0F"/>
<circle cx="161" cy="330" r="7.5" fill="#160E0F" stroke="#393B43" stroke-width="5"/>
<circle cx="185" cy="330" r="7.5" fill="#160E0F" stroke="#393B43" stroke-width="5"/>
<rect x="284" y="321" width="52" height="12" rx="6" fill="#160E0F"/>
<rect x="307" y="316" width="6" height="8" fill="#160E0F"/>
<circle cx="298" cy="330" r="7.5" fill="#160E0F" stroke="#393B43" stroke-width="5"/>
<circle cx="322" cy="330" r="7.5" fill="#160E0F" stroke="#393B43" stroke-width="5"/>
<path d="M207.008 331.45L201 316H285L278.992 331.45C278.394 332.987 276.913 334 275.264 334H210.736C209.087 334 207.606 332.987 207.008 331.45Z" fill="#393B43"/>
<mask id="mask0_4412_22566" style="mask-type:alpha" maskUnits="userSpaceOnUse" x="201" y="316" width="84" height="18">
<path d="M207.008 331.45L201 316H285L278.992 331.45C278.394 332.987 276.913 334 275.264 334H210.736C209.087 334 207.606 332.987 207.008 331.45Z" fill="#160E0F"/>
</mask>
<g mask="url(#mask0_4412_22566)">
<path d="M207.008 329.45L201 314H285L278.992 329.45C278.394 330.987 276.913 332 275.264 332H210.736C209.087 332 207.606 330.987 207.008 329.45Z" fill="#160E0F"/>
</g>
<path d="M201 316H285L284.625 317H201.344L201 316Z" fill="black"/>
<path d="M148 245C148 242.791 149.791 241 152 241H336C338.209 241 340 242.791 340 245V309H148V245Z" fill="#871F40"/>
<rect x="150" y="297" width="188" height="6" rx="3" fill="#160E0F"/>
<path fill-rule="evenodd" clip-rule="evenodd" d="M159 250C157.895 250 157 250.895 157 252V266C157 267.105 157.895 268 159 268H170C171.105 268 172 267.105 172 266V252C172 250.895 171.105 250 170 250H159ZM296 250C294.895 250 294 250.895 294 252V266C294 267.105 294.895 268 296 268H307C308.105 268 309 267.105 309 266V252C309 250.895 308.105 250 307 250H296ZM176 252C176 250.895 176.895 250 178 250H189C190.105 250 191 250.895 191 252V266C191 267.105 190.105 268 189 268H178C176.895 268 176 267.105 176 266V252ZM207 250C206.448 250 206 250.448 206 251V252C206 252.552 206.448 253 207 253H236C236.552 253 237 252.552 237 252V251C237 250.448 236.552 250 236 250H207ZM206 256C206 255.448 206.448 255 207 255H236C236.552 255 237 255.448 237 256V257C237 257.552 236.552 258 236 258H207C206.448 258 206 257.552 206 257V256ZM207 260C206.448 260 206 260.448 206 261V262C206 262.552 206.448 263 207 263H236C236.552 263 237 262.552 237 262V261C237 260.448 236.552 260 236 260H207ZM206 266C206 265.448 206.448 265 207 265H236C236.552 265 237 265.448 237 266V267C237 267.552 236.552 268 236 268H207C206.448 268 206 267.552 206 267V266ZM315 250C313.895 250 313 250.895 313 252V266C313 267.105 313.895 268 315 268H326C327.105 268 328 267.105 328 266V252C328 250.895 327.105 250 326 250H315Z" fill="#AB385D"/>
<path fill-rule="evenodd" clip-rule="evenodd" d="M160 250C158.895 250 158 250.895 158 252V266C158 267.105 158.895 268 160 268H171C172.105 268 173 267.105 173 266V252C173 250.895 172.105 250 171 250H160ZM297 250C295.895 250 295 250.895 295 252V266C295 267.105 295.895 268 297 268H308C309.105 268 310 267.105 310 266V252C310 250.895 309.105 250 308 250H297ZM177 252C177 250.895 177.895 250 179 250H190C191.105 250 192 250.895 192 252V266C192 267.105 191.105 268 190 268H179C177.895 268 177 267.105 177 266V252ZM208 250C207.448 250 207 250.448 207 251V252C207 252.552 207.448 253 208 253H237C237.552 253 238 252.552 238 252V251C238 250.448 237.552 250 237 250H208ZM207 256C207 255.448 207.448 255 208 255H237C237.552 255 238 255.448 238 256V257C238 257.552 237.552 258 237 258H208C207.448 258 207 257.552 207 257V256ZM208 260C207.448 260 207 260.448 207 261V262C207 262.552 207.448 263 208 263H237C237.552 263 238 262.552 238 262V261C238 260.448 237.552 260 237 260H208ZM207 266C207 265.448 207.448 265 208 265H237C237.552 265 238 265.448 238 266V267C238 267.552 237.552 268 237 268H208C207.448 268 207 267.552 207 267V266ZM316 250C314.895 250 314 250.895 314 252V266C314 267.105 314.895 268 316 268H327C328.105 268 329 267.105 329 266V252C329 250.895 328.105 250 327 250H316Z" fill="#160E0F"/>
<path d="M158 237C158 235.895 158.895 235 160 235H180C181.105 235 182 235.895 182 237V241H158V237Z" fill="#160E0F"/>
<path d="M305 237C305 235.895 305.895 235 307 235H327C328.105 235 329 235.895 329 237V241H305V237Z" fill="#160E0F"/>
<path d="M213 237C213 235.895 213.895 235 215 235H273C274.105 235 275 235.895 275 237V241H213V237Z" fill="#160E0F"/>
<rect x="-58" y="309" width="197" height="7" rx="2" fill="#160E0F"/>
<path d="M-58 311C-58 309.895 -57.1046 309 -56 309H137C138.105 309 139 309.895 139 311H-58Z" fill="#393B43"/>
<rect x="79" y="321" width="52" height="12" rx="6" fill="#160E0F"/>
<rect x="102" y="316" width="6" height="8" fill="#160E0F"/>
<circle cx="93" cy="330" r="7.5" fill="#160E0F" stroke="#393B43" stroke-width="5"/>
<circle cx="117" cy="330" r="7.5" fill="#160E0F" stroke="#393B43" stroke-width="5"/>
<path d="M2.00825 331.45L-4 316H80L73.9918 331.45C73.3938 332.987 71.9134 334 70.2637 334H5.73627C4.08661 334 2.60616 332.987 2.00825 331.45Z" fill="#393B43"/>
<mask id="mask1_4412_22566" style="mask-type:alpha" maskUnits="userSpaceOnUse" x="-4" y="316" width="84" height="18">
<path d="M2.00825 331.45L-4 316H80L73.9918 331.45C73.3938 332.987 71.9134 334 70.2637 334H5.73627C4.08661 334 2.60616 332.987 2.00825 331.45Z" fill="#160E0F"/>
</mask>
<g mask="url(#mask1_4412_22566)">
<path d="M2.00825 329.45L-4 314H80L73.9918 329.45C73.3938 330.987 71.9134 332 70.2637 332H5.73627C4.08661 332 2.60616 330.987 2.00825 329.45Z" fill="#160E0F"/>
</g>
<path d="M-4 316H80L79.625 317H-3.65625L-4 316Z" fill="black"/>
<rect x="138" y="314" width="10" height="2" fill="#160E0F"/>
<path d="M-10 245C-10 242.791 -8.20914 241 -6 241H126C128.209 241 130 242.791 130 245V309H-10V245Z" fill="#393B43"/>
<path d="M-10 308C-10 308.552 -9.55228 309 -9 309H129C129.552 309 130 308.552 130 308H-10Z" fill="#28282B"/>
<path d="M-10 245C-10 242.791 -8.20914 241 -6 241H126C128.209 241 130 242.791 130 245V249H-10V245Z" fill="#160E0F"/>
<path fill-rule="evenodd" clip-rule="evenodd" d="M1 249H-2V301H1V249ZM9 249H6V301H9V249ZM14 249H17V301H14V249ZM25 249H22V301H25V249ZM30 249H33V301H30V249ZM41 249H38V301H41V249ZM46 249H49V301H46V249ZM57 249H54V301H57V249ZM62 249H65V301H62V249ZM73 249H70V301H73V249ZM78 249H81V301H78V249ZM89 249H86V301H89V249ZM94 249H97V301H94V249ZM105 249H102V301H105V249ZM110 249H113V301H110V249ZM121 249H118V301H121V249Z" fill="#4A4D5A"/>
<path fill-rule="evenodd" clip-rule="evenodd" d="M2 249H-1V301H2V249ZM10 249H7V301H10V249ZM15 249H18V301H15V249ZM26 249H23V301H26V249ZM31 249H34V301H31V249ZM42 249H39V301H42V249ZM47 249H50V301H47V249ZM58 249H55V301H58V249ZM63 249H66V301H63V249ZM74 249H71V301H74V249ZM79 249H82V301H79V249ZM90 249H87V301H90V249ZM95 249H98V301H95V249ZM106 249H103V301H106V249ZM111 249H114V301H111V249ZM122 249H119V301H122V249Z" fill="#26282F"/>
</g>
<defs>
<clipPath id="clip0_4412_22566">
<rect width="360" height="360" rx="8" fill="white"/>
</clipPath>
<clipPath id="clip1_4412_22566">
<rect width="150" height="81.4286" fill="white" transform="translate(30 30)"/>
</clipPath>
</defs>
</svg>
