<svg width="360" height="360" viewBox="0 0 360 360" fill="none" xmlns="http://www.w3.org/2000/svg">
<g clip-path="url(#clip0_2135_75628)">
<rect width="360" height="360" rx="8" fill="#FFD100"/>
<path fill-rule="evenodd" clip-rule="evenodd" d="M55.3264 31.5005H31.5559V42.6359H42.0527V90.909H31.5559V102.064H66.1187V90.909H55.3264V31.5005ZM73.6023 33.4749C70.3922 32.4482 66.4928 31.8362 61.7466 31.8164V45.1236H62.6525C70.1362 45.1236 73.7993 48.2036 73.7993 54.4229C73.7993 63.1495 65.9217 64.038 62.5541 64.038L61.7466 64.0182V77.3254H62.9283C80.5149 77.3254 88.5303 65.4398 88.5303 54.4229C88.5303 48.9539 86.8169 37.7593 73.6023 33.4749ZM103.911 70.8298C105.073 70.9482 106.649 70.9482 107.456 70.9482C113.994 70.9482 117.48 66.7231 117.48 62.0439C117.48 57.5423 114.94 53.2382 106.885 53.2382C104.955 53.2382 100.622 53.3172 99.1059 53.3172V77.3649H103.911V70.8298ZM103.911 57.8188C105.191 57.7793 106.373 57.7398 107.358 57.7398C110.627 57.7398 112.399 59.1613 112.399 62.0044C112.399 65.0647 110.154 66.4467 107.318 66.4467C106.215 66.4467 105.034 66.3677 103.911 66.2493V57.8188ZM187.807 84.3541C186.015 84.3541 181.958 84.4134 180.52 84.4134V106.112H185.03V100.504C186.133 100.623 187.59 100.623 188.359 100.623C194.483 100.623 197.575 96.8123 197.575 92.449C197.575 88.2239 195.37 84.3541 187.807 84.3541ZM188.221 96.3977C187.197 96.3977 186.094 96.3188 185.03 96.2003V88.6385C186.232 88.599 187.334 88.5595 188.26 88.5595C191.332 88.5595 192.809 89.7244 192.809 92.4095C192.809 95.2723 190.899 96.3977 188.221 96.3977ZM128.312 77.7993C130.774 77.7993 133.275 77.0885 135.028 75.588L133.747 72.429C132.723 73.2385 130.931 74.0282 128.785 74.0282C126.008 74.0282 123.9 72.587 123.507 69.9216H136.209C136.406 69.2503 136.485 68.579 136.485 67.4734C136.485 62.5375 132.684 59.2798 128.154 59.2798C122.364 59.2798 118.839 63.4062 118.839 68.5395C118.839 74.1072 122.64 77.7993 128.312 77.7993ZM127.957 63.0508C130.537 63.0508 132.034 64.729 131.995 66.9008H123.349C123.822 64.5711 125.259 63.0508 127.957 63.0508ZM146.332 66.1111L146.45 64.2354H151.117V77.3649H155.608V59.7141H142.275L141.999 65.2029C141.605 72.0341 139.537 73.4754 138.001 73.3175L138.395 77.7203C143.141 77.7203 145.485 75.7262 146.332 66.1111ZM175.282 70.6521C175.282 67.5129 173.529 64.5513 167.542 64.5513H165.12V59.7141H160.61V77.3649H167.188C173.175 77.3649 175.282 74.0282 175.282 70.6521ZM165.12 73.4359V68.1447H167.148C169.571 68.1447 170.516 69.2108 170.516 70.81C170.516 72.429 169.531 73.4359 167.109 73.4359H165.12ZM193.853 75.588L192.573 72.429C191.549 73.2385 189.757 74.0282 187.61 74.0282C184.833 74.0282 182.706 72.587 182.313 69.9216H195.035C195.232 69.2503 195.311 68.579 195.311 67.4734C195.311 62.5375 191.51 59.2798 186.98 59.2798C181.19 59.2798 177.665 63.4062 177.665 68.5395C177.665 74.1072 181.466 77.7993 187.138 77.7993C189.599 77.7993 192.1 77.0885 193.853 75.588ZM186.783 63.0508C189.363 63.0508 190.84 64.729 190.801 66.9008H182.155C182.628 64.5711 184.085 63.0508 186.783 63.0508ZM212.326 59.7141H212.011V56.8908H207.501V59.7141H207.225C201.1 59.7141 197.733 64.0182 197.733 68.5395C197.733 73.0608 201.14 77.3649 207.265 77.3649H207.501V80.1882H212.011V77.3649H212.326C218.687 77.3649 221.779 73.0608 221.779 68.5395C221.779 64.0182 218.372 59.7141 212.326 59.7141ZM207.501 73.7518H207.383C204.153 73.7518 202.538 70.8495 202.538 68.5395C202.538 66.2295 203.877 63.3667 207.186 63.3667H207.501V73.7518ZM212.168 73.7518H212.011V63.3667H212.326C215.497 63.3667 216.974 66.2295 216.974 68.5395C216.974 70.8495 215.398 73.7518 212.168 73.7518ZM115.334 84.4134H110.824V97.8588H103.596V84.4134H99.1059V102.064H114.034V106.112H118.268V97.8588H115.334V84.4134ZM129.454 83.979C123.664 83.979 120.139 88.1054 120.139 93.2388C120.139 98.8064 123.92 102.499 129.612 102.499C132.073 102.499 134.575 101.788 136.327 100.287L135.047 97.1283C134.023 97.9377 132.231 98.7275 130.065 98.7275C127.288 98.7275 125.181 97.2664 124.787 94.6011H137.509C137.706 93.9495 137.785 93.2782 137.785 92.1726C137.785 87.2367 133.984 83.979 129.454 83.979ZM124.629 91.6C125.102 89.2703 126.559 87.75 129.257 87.75C131.837 87.75 133.314 89.4282 133.275 91.6H124.629ZM153.619 91.0867H145.918V84.4134H141.408V102.064H145.918V95.3118H153.619V102.064H158.109V84.4134H153.619V91.0867ZM161.279 88.9347H167.069V102.064H171.56V88.9347H177.31V84.4134H161.279V88.9347Z" fill="#1A1919"/>
<g filter="url(#filter0_d_2135_75628)">
<path d="M128 190C128 185.582 131.582 182 136 182H352C356.418 182 360 185.582 360 190V360H128V190Z" fill="#FAFAFA"/>
</g>
<path d="M128 190C128 185.582 131.582 182 136 182H352C356.418 182 360 185.582 360 190V202H128V190Z" fill="#3E3E3E"/>
<circle cx="141" cy="192" r="3" fill="white"/>
<circle cx="151" cy="192" r="3" fill="white"/>
<circle cx="161" cy="192" r="3" fill="white"/>
<rect x="128" y="202" width="232" height="26" fill="#FFEC98"/>
<rect x="138" y="210" width="212" height="10" rx="5" fill="white"/>
<rect x="139" y="239" width="100" height="53" rx="7" fill="#FFEC98" stroke="#FFD100" stroke-width="2"/>
<rect x="139" y="301" width="100" height="22" rx="7" stroke="#FFD100" stroke-width="2"/>
<rect x="138" y="334" width="73" height="3" rx="1.5" fill="#AFAFAF"/>
<rect x="138" y="341" width="34" height="3" rx="1.5" fill="#AFAFAF"/>
<rect x="248.5" y="238.5" width="101" height="54" rx="7.5" stroke="#FFD100" stroke-dasharray="4 4"/>
<rect x="248.5" y="300.5" width="101" height="23" rx="7.5" stroke="#FFD100" stroke-dasharray="4 4"/>
<path d="M42 357C42 352.582 45.5817 349 50 349H120C124.418 349 128 352.582 128 357V360H42V357Z" fill="#292929"/>
<path d="M67 176H73L69 349H63L67 176Z" fill="#292929"/>
<path d="M103 176H97L101 349H107L103 176Z" fill="#292929"/>
<rect width="4" height="47.0104" transform="matrix(-0.707107 -0.707107 -0.707107 0.707107 103.07 318.828)" fill="#292929"/>
<rect width="4" height="47.0104" transform="matrix(-0.707107 -0.707107 -0.707107 0.707107 103.07 284.828)" fill="#292929"/>
<rect width="4" height="47.0104" transform="matrix(-0.707107 -0.707107 -0.707107 0.707107 103.07 250.828)" fill="#292929"/>
<rect width="4" height="47.0104" transform="matrix(-0.707107 -0.707107 -0.707107 0.707107 103.07 216.828)" fill="#292929"/>
<rect width="4" height="47.0104" transform="matrix(-0.707107 -0.707107 -0.707107 0.707107 103.07 182.828)" fill="#292929"/>
<rect x="67" y="318.828" width="4" height="47.0104" transform="rotate(-45 67 318.828)" fill="#292929"/>
<rect x="67" y="284.828" width="4" height="47.0104" transform="rotate(-45 67 284.828)" fill="#292929"/>
<rect x="67" y="250.828" width="4" height="47.0104" transform="rotate(-45 67 250.828)" fill="#292929"/>
<rect x="67" y="216.828" width="4" height="47.0104" transform="rotate(-45 67 216.828)" fill="#292929"/>
<rect x="67" y="182.828" width="4" height="47.0104" transform="rotate(-45 67 182.828)" fill="#292929"/>
<path d="M198.265 176.5H35C32.7909 176.5 31 174.709 31 172.5V159C31 156.791 32.7909 155 35 155H189.788C191.165 155 192.444 155.707 193.176 156.873L201.653 170.373C203.325 173.037 201.411 176.5 198.265 176.5Z" fill="#292929"/>
<path d="M74 124H93L96 155H71L74 124Z" fill="#292929"/>
<rect x="74.0952" y="124" width="6" height="50.7351" transform="rotate(52.2124 74.0952 124)" fill="#292929"/>
<path d="M93 124L90.9999 129.529L176.327 165.472L178.656 159.942L93 124Z" fill="#292929"/>
<rect x="180" y="176" width="3" height="59" fill="#292929"/>
<circle cx="181.5" cy="239.5" r="6.5" fill="#FFD100"/>
</g>
<defs>
<filter id="filter0_d_2135_75628" x="98" y="162" width="292" height="238" filterUnits="userSpaceOnUse" color-interpolation-filters="sRGB">
<feFlood flood-opacity="0" result="BackgroundImageFix"/>
<feColorMatrix in="SourceAlpha" type="matrix" values="0 0 0 0 0 0 0 0 0 0 0 0 0 0 0 0 0 0 127 0" result="hardAlpha"/>
<feOffset dy="10"/>
<feGaussianBlur stdDeviation="15"/>
<feComposite in2="hardAlpha" operator="out"/>
<feColorMatrix type="matrix" values="0 0 0 0 0.858333 0 0 0 0 0.706722 0 0 0 0 0.0178819 0 0 0 1 0"/>
<feBlend mode="normal" in2="BackgroundImageFix" result="effect1_dropShadow_2135_75628"/>
<feBlend mode="normal" in="SourceGraphic" in2="effect1_dropShadow_2135_75628" result="shape"/>
</filter>
<clipPath id="clip0_2135_75628">
<rect width="360" height="360" rx="8" fill="white"/>
</clipPath>
</defs>
</svg>
