<svg width="360" height="360" viewBox="0 0 360 360" fill="none" xmlns="http://www.w3.org/2000/svg">
<g clip-path="url(#clip0_2130_75262)">
<rect width="360" height="360" rx="8" fill="#EFF5F9"/>
<path d="M144 486C251.143 486 338 399.143 338 292C338 184.857 251.143 98 144 98C36.8568 98 -50 184.857 -50 292C-50 399.143 36.8568 486 144 486Z" fill="#DDE7EE"/>
<path opacity="0.4" d="M144 394C202.542 394 250 346.542 250 288C250 229.458 202.542 182 144 182C85.4578 182 38 229.458 38 288C38 346.542 85.4578 394 144 394Z" fill="white"/>
<path d="M59.5 89C75.7924 89 89 75.7924 89 59.5C89 43.2076 75.7924 30 59.5 30C43.2076 30 30 43.2076 30 59.5C30 75.7924 43.2076 89 59.5 89Z" fill="#EF3340"/>
<path d="M70.4324 57.9382H49.4353C48.2206 57.9382 47.1794 56.897 47.1794 55.6823V47.8735C47.1794 46.6588 48.2206 45.6176 49.4353 45.6176H71.9941C72.8618 45.6176 73.5559 44.9235 73.5559 44.0559V42.4941H48.7412C46.1383 42.4941 44.0559 44.5765 44.0559 47.1794V56.55C44.0559 59.1529 46.1383 61.2353 48.7412 61.2353H69.7383C70.953 61.2353 71.9941 62.2765 71.9941 63.4912V71.3C71.9941 72.5147 70.953 73.5559 69.7383 73.5559H47.1794C46.3118 73.5559 45.6177 74.25 45.6177 75.1176V76.6794H70.4324C73.0353 76.6794 75.1177 74.597 75.1177 71.9941V62.6235C75.1177 60.0206 73.0353 57.9382 70.4324 57.9382Z" fill="white"/>
<path d="M67.3089 70.4324H48.7412C47.8736 70.4324 47.1794 69.7382 47.1794 68.8706V65.7471C47.1794 64.8794 47.8736 64.1853 48.7412 64.1853H67.3089C68.1765 64.1853 68.8706 64.8794 68.8706 65.7471V68.8706C68.8706 69.7382 68.1765 70.4324 67.3089 70.4324Z" fill="white"/>
<path d="M70.4329 54.8147H51.8652C50.9976 54.8147 50.3035 54.1206 50.3035 53.2529V50.1294C50.3035 49.2618 50.9976 48.5676 51.8652 48.5676H70.4329C71.3005 48.5676 71.9946 49.2618 71.9946 50.1294V53.2529C71.9946 54.1206 71.3005 54.8147 70.4329 54.8147Z" fill="white"/>
<path d="M120.582 52.7324C117.979 51.6912 116.07 51.5177 114.509 51.5177C113.467 51.5177 112.253 51.5177 111.385 52.3853C110.691 52.9059 110.517 53.6 110.517 54.2941C110.517 54.8147 110.517 55.5088 111.385 56.2029C111.906 56.7235 113.467 57.0706 113.988 57.2441L116.417 57.9382C117.806 58.2853 119.541 58.8059 120.756 60.1941C121.797 61.4088 121.97 62.7971 121.97 64.0118C121.97 66.7882 120.756 68.35 119.714 69.2176C118.673 69.9118 117.112 70.7794 113.641 70.7794C111.038 70.7794 108.609 70.2588 106.179 69.0441L107.22 66.2677C109.476 67.3088 111.906 68.0029 113.988 68.0029C115.029 68.0029 116.244 67.8294 117.112 67.1353C117.459 66.7882 118.326 66.0941 118.326 64.5324C118.326 63.6647 118.153 62.7971 117.285 62.1029C116.591 61.5824 115.376 61.0618 114.682 60.8882L112.253 60.1941C110.691 59.6735 109.129 59.1529 108.262 58.2853C107.22 57.2441 106.873 56.0294 106.873 54.8147C106.873 52.5588 107.914 50.9971 108.782 50.3029C110.517 48.9147 112.947 48.7412 114.509 48.7412C116.938 48.7412 119.02 49.0882 121.103 49.9559L120.582 52.7324Z" fill="#33333B"/>
<path d="M129.779 60.8883C129.779 61.7559 129.953 64.5324 131.514 66.0941C132.729 67.4824 134.117 67.6559 135.506 67.6559C136.72 67.6559 138.976 67.4824 142.1 65.9206L143.141 68.6971C140.538 69.9118 137.935 70.4324 135.332 70.4324C133.597 70.4324 130.82 70.2588 128.738 68.35C126.309 66.0941 126.135 62.45 126.135 59.5C126.135 57.2441 126.309 53.0794 128.738 50.65C130.82 48.5677 134.117 48.3941 135.679 48.3941C137.241 48.3941 140.191 48.5677 141.926 50.4765C143.835 52.5588 144.182 56.203 144.182 58.8059L129.779 60.8883ZM140.191 56.7236C140.191 55.3353 139.844 53.7736 139.15 52.9059C138.109 51.5177 136.547 51.3441 135.506 51.3441C134.638 51.3441 132.556 51.3441 131.167 52.9059C130.126 53.9471 129.606 56.55 129.606 58.1118L140.191 56.7236Z" fill="#33333B"/>
<path d="M152.859 48.9147V51.8647C153.727 50.9971 154.594 50.3029 155.635 49.7824C157.024 49.0882 158.412 48.7412 160.147 48.7412L160.668 52.0382C159.28 52.0382 157.371 52.2118 155.982 52.9059C154.941 53.4265 153.9 54.2941 153.032 55.6824V70.2588H149.215V49.2618L152.859 48.9147Z" fill="#33333B"/>
<path d="M179.409 49.2618H182.879L174.897 70.2588H171.426L163.444 49.2618L167.435 48.9147L173.509 65.7471L179.409 49.2618Z" fill="#33333B"/>
<path d="M188.606 60.8883C188.606 61.7559 188.779 64.5324 190.341 66.0941C191.556 67.4824 192.944 67.6559 194.332 67.6559C195.547 67.6559 197.803 67.4824 200.926 65.9206L201.967 68.6971C199.364 69.9118 196.761 70.4324 194.158 70.4324C192.423 70.4324 189.647 70.2588 187.564 68.35C185.135 66.0941 184.961 62.45 184.961 59.5C184.961 57.2441 185.135 53.0794 187.564 50.65C189.647 48.5677 192.944 48.3941 194.506 48.3941C196.067 48.3941 199.017 48.5677 200.753 50.4765C202.661 52.5588 203.008 56.203 203.008 58.8059L188.606 60.8883ZM199.191 56.7236C199.191 55.3353 198.844 53.7736 198.15 52.9059C197.108 51.5177 195.547 51.3441 194.506 51.3441C193.638 51.3441 191.556 51.3441 190.167 52.9059C189.126 53.9471 188.606 56.55 188.606 58.1118L199.191 56.7236Z" fill="#33333B"/>
<path d="M211.685 48.9147V51.8647C212.553 50.9971 213.42 50.3029 214.462 49.7824C215.85 49.0882 217.238 48.7412 218.973 48.7412L219.494 52.0382C218.106 52.0382 216.197 52.2118 214.809 52.9059C213.768 53.4265 212.726 54.2941 211.859 55.6824V70.2588H208.215V49.2618L211.685 48.9147Z" fill="#33333B"/>
<path d="M236.673 52.7324C234.07 51.6912 232.161 51.5177 230.6 51.5177C229.558 51.5177 228.344 51.5177 227.476 52.3853C226.782 52.9059 226.608 53.6 226.608 54.2941C226.608 54.8147 226.608 55.5088 227.476 56.2029C227.997 56.7235 229.558 57.0706 230.079 57.2441L232.508 57.9382C233.897 58.2853 235.632 58.8059 236.847 60.1941C237.888 61.4088 238.061 62.7971 238.061 64.0118C238.061 66.7882 236.847 68.35 235.806 69.2176C234.764 69.9118 233.203 70.7794 229.732 70.7794C227.129 70.7794 224.7 70.2588 222.27 69.0441L223.311 66.2677C225.567 67.3088 227.997 68.0029 230.079 68.0029C231.12 68.0029 232.335 67.8294 233.203 67.1353C233.55 66.7882 234.417 66.0941 234.417 64.5324C234.417 63.6647 234.244 62.7971 233.376 62.1029C232.682 61.5824 231.467 61.0618 230.773 60.8882L228.344 60.1941C226.782 59.6735 225.22 59.1529 224.353 58.2853C223.311 57.2441 222.964 56.0294 222.964 54.8147C222.964 52.5588 224.006 50.9971 224.873 50.3029C226.608 48.9147 229.038 48.7412 230.6 48.7412C233.029 48.7412 235.111 49.0882 237.194 49.9559L236.673 52.7324Z" fill="#33333B"/>
<path d="M244.135 65.053C245.697 65.053 246.911 66.2677 246.911 67.8294C246.911 69.3912 245.697 70.6059 244.135 70.6059C242.573 70.6059 241.359 69.3912 241.359 67.8294C241.359 66.2677 242.573 65.053 244.135 65.053Z" fill="#33333B"/>
<path d="M265.132 52.7324C263.397 51.8647 261.661 51.5177 259.753 51.5177C257.497 51.5177 256.108 52.3853 255.414 53.0794C254.026 54.4677 253.679 57.0706 253.679 59.6735C253.679 62.45 254.026 64.8794 255.414 66.2677C256.629 67.6559 258.017 67.8294 259.405 67.8294C260.447 67.8294 262.355 67.6559 265.132 66.0941L266.173 68.8706C263.744 70.0853 261.488 70.6059 259.232 70.6059C257.497 70.6059 254.72 70.4324 252.638 68.5235C250.208 66.2677 250.035 62.6235 250.035 59.6735C250.035 56.7235 250.208 53.0794 252.638 50.8235C254.2 49.4353 256.803 48.7412 259.753 48.7412C262.008 48.7412 263.917 49.0882 265.653 49.9559L265.132 52.7324Z" fill="#33333B"/>
<path d="M271.206 50.65C273.288 48.7412 276.412 48.5677 278.321 48.5677C280.229 48.5677 283.353 48.5677 285.435 50.65C287.865 52.9059 288.038 56.7236 288.038 59.6736C288.038 62.6236 287.865 66.4412 285.435 68.6971C283.353 70.6059 280.229 70.7795 278.321 70.7795C276.412 70.7795 273.288 70.7794 271.206 68.6971C268.776 66.4412 268.603 62.6236 268.603 59.6736C268.603 56.7236 268.95 52.9059 271.206 50.65ZM273.982 66.2677C275.197 67.6559 276.932 67.8295 278.321 67.8295C279.709 67.8295 281.444 67.6559 282.659 66.2677C284.047 64.5324 284.221 60.7147 284.221 59.6736C284.221 58.6324 284.221 54.8147 282.659 53.0795C281.444 51.6912 279.709 51.5177 278.321 51.5177C276.932 51.5177 275.197 51.6912 273.982 53.0795C272.594 54.8147 272.421 58.6324 272.421 59.6736C272.421 60.7147 272.594 64.5324 273.982 66.2677Z" fill="#33333B"/>
<path d="M295.5 48.9147V51.6912C297.582 49.2618 300.185 48.9147 301.92 48.9147C303.309 48.9147 305.912 49.0882 307.126 51.8647C307.994 50.65 309.729 48.9147 313.72 48.9147C316.497 48.9147 318.059 49.7824 318.753 50.65C320.315 52.2118 320.488 54.6412 320.488 56.8971V70.4324H316.844V56.8971C316.844 54.8147 316.67 53.7735 316.15 53.0794C315.629 52.2118 314.588 51.6912 313.373 51.6912C311.638 51.6912 309.209 52.9059 307.994 55.5088V70.2588H304.35V56.7235C304.35 55.3353 304.176 53.9471 303.656 52.9059C303.135 52.0382 302.267 51.5177 300.879 51.5177C298.97 51.5177 296.715 52.9059 295.5 55.3353V70.0853H291.856V49.2618L295.5 48.9147Z" fill="#33333B"/>
<rect x="166.088" y="144" width="86.2508" height="216.187" rx="4.48056" fill="#202020"/>
<rect x="100" y="144" width="86.2508" height="216.187" rx="4.48056" fill="#484848"/>
<rect x="106.721" y="159.682" width="72.8091" height="176.982" rx="2.24028" fill="#313130"/>
<rect opacity="0.6" x="106.721" y="150.721" width="16.8021" height="3.36042" rx="1.68021" fill="black"/>
<rect opacity="0.6" x="106.721" y="350.106" width="16.8021" height="3.36042" rx="1.68021" fill="black"/>
<rect opacity="0.2" x="100" y="340.025" width="86.2508" height="1.12014" fill="black"/>
<rect opacity="0.3" x="172.809" y="150.721" width="6.72084" height="3.36042" rx="1.68021" fill="black"/>
<rect opacity="0.3" x="172.809" y="350.106" width="6.72084" height="3.36042" rx="1.68021" fill="black"/>
<rect x="111.201" y="164.163" width="63.848" height="15.682" rx="2.24028" fill="#1D1D1D"/>
<path d="M115.682 168.643H139.018L143.685 175.364H115.682V168.643Z" fill="#64DAE1"/>
<rect x="128.003" y="168.643" width="1.12014" height="6.72084" fill="#1D1D1D"/>
<rect x="152.646" y="168.643" width="1.12014" height="6.72084" fill="#FAAD14"/>
<rect x="154.887" y="168.643" width="1.12014" height="6.72084" fill="#484848"/>
<rect x="157.127" y="168.643" width="1.12014" height="6.72084" fill="#484848"/>
<rect x="159.367" y="168.643" width="1.12014" height="6.72084" fill="#484848"/>
<rect x="161.608" y="168.643" width="1.12014" height="6.72084" fill="#484848"/>
<rect x="163.848" y="168.643" width="1.12014" height="6.72084" fill="#484848"/>
<circle cx="147.606" cy="170.323" r="1.68021" fill="#939393"/>
<circle cx="168.329" cy="169.763" r="1.12014" fill="#FF6069"/>
<circle cx="168.329" cy="174.244" r="1.12014" fill="#59FF9C"/>
<rect x="111.201" y="182.085" width="63.848" height="15.682" rx="2.24028" fill="#1D1D1D"/>
<path d="M115.682 186.565H139.018L143.685 193.286H115.682V186.565Z" fill="#64DAE1"/>
<rect x="128.003" y="186.565" width="1.12014" height="6.72084" fill="#1D1D1D"/>
<rect x="152.646" y="186.565" width="1.12014" height="6.72084" fill="#FAAD14"/>
<rect x="154.887" y="186.565" width="1.12014" height="6.72084" fill="#484848"/>
<rect x="157.127" y="186.565" width="1.12014" height="6.72084" fill="#484848"/>
<rect x="159.367" y="186.565" width="1.12014" height="6.72084" fill="#484848"/>
<rect x="161.608" y="186.565" width="1.12014" height="6.72084" fill="#484848"/>
<rect x="163.848" y="186.565" width="1.12014" height="6.72084" fill="#484848"/>
<circle cx="147.606" cy="188.246" r="1.68021" fill="#939393"/>
<circle cx="168.329" cy="187.685" r="1.12014" fill="#FF6069"/>
<circle cx="168.329" cy="192.166" r="1.12014" fill="#59FF9C"/>
<rect x="111.201" y="200.007" width="63.848" height="15.682" rx="2.24028" fill="#1D1D1D"/>
<path d="M115.682 204.488H139.018L143.685 211.208H115.682V204.488Z" fill="#64DAE1"/>
<rect x="128.003" y="204.488" width="1.12014" height="6.72084" fill="#1D1D1D"/>
<rect x="152.646" y="204.488" width="1.12014" height="6.72084" fill="#FAAD14"/>
<rect x="154.887" y="204.488" width="1.12014" height="6.72084" fill="#484848"/>
<rect x="157.127" y="204.488" width="1.12014" height="6.72084" fill="#484848"/>
<rect x="159.367" y="204.488" width="1.12014" height="6.72084" fill="#484848"/>
<rect x="161.608" y="204.488" width="1.12014" height="6.72084" fill="#484848"/>
<rect x="163.848" y="204.488" width="1.12014" height="6.72084" fill="#484848"/>
<circle cx="147.606" cy="206.168" r="1.68021" fill="#939393"/>
<circle cx="168.329" cy="205.608" r="1.12014" fill="#FF6069"/>
<circle cx="168.329" cy="210.088" r="1.12014" fill="#59FF9C"/>
<rect x="111.201" y="217.929" width="63.848" height="15.682" rx="2.24028" fill="#1D1D1D"/>
<path d="M115.682 222.41H139.018L143.685 229.131H115.682V222.41Z" fill="#64DAE1"/>
<rect x="128.003" y="222.41" width="1.12014" height="6.72084" fill="#1D1D1D"/>
<rect x="152.646" y="222.41" width="1.12014" height="6.72084" fill="#FAAD14"/>
<rect x="154.887" y="222.41" width="1.12014" height="6.72084" fill="#484848"/>
<rect x="157.127" y="222.41" width="1.12014" height="6.72084" fill="#484848"/>
<rect x="159.367" y="222.41" width="1.12014" height="6.72084" fill="#484848"/>
<rect x="161.608" y="222.41" width="1.12014" height="6.72084" fill="#484848"/>
<rect x="163.848" y="222.41" width="1.12014" height="6.72084" fill="#484848"/>
<circle cx="147.606" cy="224.09" r="1.68021" fill="#939393"/>
<circle cx="168.329" cy="223.53" r="1.12014" fill="#FF6069"/>
<circle cx="168.329" cy="228.011" r="1.12014" fill="#59FF9C"/>
<rect x="111.201" y="235.852" width="63.848" height="15.682" rx="2.24028" fill="#1D1D1D"/>
<path d="M115.682 240.332H139.018L143.685 247.053H115.682V240.332Z" fill="#64DAE1"/>
<rect x="128.003" y="240.332" width="1.12014" height="6.72084" fill="#1D1D1D"/>
<rect x="152.646" y="240.332" width="1.12014" height="6.72084" fill="#FAAD14"/>
<rect x="154.887" y="240.332" width="1.12014" height="6.72084" fill="#484848"/>
<rect x="157.127" y="240.332" width="1.12014" height="6.72084" fill="#484848"/>
<rect x="159.367" y="240.332" width="1.12014" height="6.72084" fill="#484848"/>
<rect x="161.608" y="240.332" width="1.12014" height="6.72084" fill="#484848"/>
<rect x="163.848" y="240.332" width="1.12014" height="6.72084" fill="#484848"/>
<circle cx="147.606" cy="242.012" r="1.68021" fill="#939393"/>
<circle cx="168.329" cy="241.452" r="1.12014" fill="#FF6069"/>
<circle cx="168.329" cy="245.933" r="1.12014" fill="#59FF9C"/>
<rect x="111.201" y="262.735" width="63.848" height="15.682" rx="2.24028" fill="#1D1D1D"/>
<path d="M115.682 267.215H139.018L143.685 273.936H115.682V267.215Z" fill="#64DAE1"/>
<rect x="128.003" y="267.215" width="1.12014" height="6.72084" fill="#1D1D1D"/>
<rect x="152.646" y="267.215" width="1.12014" height="6.72084" fill="#FAAD14"/>
<rect x="154.887" y="267.215" width="1.12014" height="6.72084" fill="#484848"/>
<rect x="157.127" y="267.215" width="1.12014" height="6.72084" fill="#484848"/>
<rect x="159.367" y="267.215" width="1.12014" height="6.72084" fill="#484848"/>
<rect x="161.608" y="267.215" width="1.12014" height="6.72084" fill="#484848"/>
<rect x="163.848" y="267.215" width="1.12014" height="6.72084" fill="#484848"/>
<circle cx="147.606" cy="268.896" r="1.68021" fill="#939393"/>
<circle cx="168.329" cy="268.336" r="1.12014" fill="#FF6069"/>
<circle cx="168.329" cy="272.816" r="1.12014" fill="#59FF9C"/>
<rect x="111.201" y="280.657" width="63.848" height="15.682" rx="2.24028" fill="#1D1D1D"/>
<path d="M115.682 285.138H139.018L143.685 291.859H115.682V285.138Z" fill="#64DAE1"/>
<rect x="128.003" y="285.138" width="1.12014" height="6.72084" fill="#1D1D1D"/>
<rect x="152.646" y="285.138" width="1.12014" height="6.72084" fill="#FAAD14"/>
<rect x="154.887" y="285.138" width="1.12014" height="6.72084" fill="#484848"/>
<rect x="157.127" y="285.138" width="1.12014" height="6.72084" fill="#484848"/>
<rect x="159.367" y="285.138" width="1.12014" height="6.72084" fill="#484848"/>
<rect x="161.608" y="285.138" width="1.12014" height="6.72084" fill="#484848"/>
<rect x="163.848" y="285.138" width="1.12014" height="6.72084" fill="#484848"/>
<circle cx="147.606" cy="286.818" r="1.68021" fill="#939393"/>
<circle cx="168.329" cy="286.258" r="1.12014" fill="#FF6069"/>
<circle cx="168.329" cy="290.738" r="1.12014" fill="#59FF9C"/>
<rect x="111.201" y="298.579" width="63.848" height="15.682" rx="2.24028" fill="#1D1D1D"/>
<path d="M115.682 303.06H139.018L143.685 309.781H115.682V303.06Z" fill="#64DAE1"/>
<rect x="128.003" y="303.06" width="1.12014" height="6.72084" fill="#1D1D1D"/>
<rect x="152.646" y="303.06" width="1.12014" height="6.72084" fill="#FAAD14"/>
<rect x="154.887" y="303.06" width="1.12014" height="6.72084" fill="#484848"/>
<rect x="157.127" y="303.06" width="1.12014" height="6.72084" fill="#484848"/>
<rect x="159.367" y="303.06" width="1.12014" height="6.72084" fill="#484848"/>
<rect x="161.608" y="303.06" width="1.12014" height="6.72084" fill="#484848"/>
<rect x="163.848" y="303.06" width="1.12014" height="6.72084" fill="#484848"/>
<circle cx="147.606" cy="304.74" r="1.68021" fill="#939393"/>
<circle cx="168.329" cy="304.18" r="1.12014" fill="#FF6069"/>
<circle cx="168.329" cy="308.661" r="1.12014" fill="#59FF9C"/>
<rect x="111.201" y="316.502" width="63.848" height="15.682" rx="2.24028" fill="#1D1D1D"/>
<path d="M115.682 320.982H139.018L143.685 327.703H115.682V320.982Z" fill="#64DAE1"/>
<rect x="128.003" y="320.982" width="1.12014" height="6.72084" fill="#1D1D1D"/>
<rect x="152.646" y="320.982" width="1.12014" height="6.72084" fill="#FAAD14"/>
<rect x="154.887" y="320.982" width="1.12014" height="6.72084" fill="#484848"/>
<rect x="157.127" y="320.982" width="1.12014" height="6.72084" fill="#484848"/>
<rect x="159.367" y="320.982" width="1.12014" height="6.72084" fill="#484848"/>
<rect x="161.608" y="320.982" width="1.12014" height="6.72084" fill="#484848"/>
<rect x="163.848" y="320.982" width="1.12014" height="6.72084" fill="#484848"/>
<circle cx="147.606" cy="322.662" r="1.68021" fill="#939393"/>
<circle cx="168.329" cy="322.102" r="1.12014" fill="#FF6069"/>
<circle cx="168.329" cy="326.583" r="1.12014" fill="#59FF9C"/>
<rect x="263.54" y="144" width="86.2508" height="216.187" rx="4.48056" fill="#202020"/>
<rect x="197.452" y="144" width="86.2508" height="216.187" rx="4.48056" fill="#484848"/>
<rect x="204.173" y="159.682" width="72.8091" height="176.982" rx="2.24028" fill="#313130"/>
<rect opacity="0.6" x="204.173" y="150.721" width="16.8021" height="3.36042" rx="1.68021" fill="black"/>
<rect opacity="0.6" x="204.173" y="350.106" width="16.8021" height="3.36042" rx="1.68021" fill="black"/>
<rect opacity="0.2" x="197.452" y="340.025" width="86.2508" height="1.12014" fill="black"/>
<rect opacity="0.3" x="270.261" y="150.721" width="6.72084" height="3.36042" rx="1.68021" fill="black"/>
<rect opacity="0.3" x="270.261" y="350.106" width="6.72084" height="3.36042" rx="1.68021" fill="black"/>
<rect x="208.654" y="164.163" width="63.848" height="15.682" rx="2.24028" fill="#1D1D1D"/>
<path d="M213.134 168.643H236.47L241.138 175.364H213.134V168.643Z" fill="#64DAE1"/>
<rect x="225.456" y="168.643" width="1.12014" height="6.72084" fill="#1D1D1D"/>
<rect x="250.099" y="168.643" width="1.12014" height="6.72084" fill="#FAAD14"/>
<rect x="252.339" y="168.643" width="1.12014" height="6.72084" fill="#484848"/>
<rect x="254.579" y="168.643" width="1.12014" height="6.72084" fill="#484848"/>
<rect x="256.82" y="168.643" width="1.12014" height="6.72084" fill="#484848"/>
<rect x="259.06" y="168.643" width="1.12014" height="6.72084" fill="#484848"/>
<rect x="261.3" y="168.643" width="1.12014" height="6.72084" fill="#484848"/>
<circle cx="245.058" cy="170.323" r="1.68021" fill="#939393"/>
<circle cx="265.781" cy="169.763" r="1.12014" fill="#FF6069"/>
<circle cx="265.781" cy="174.244" r="1.12014" fill="#59FF9C"/>
<rect x="208.654" y="182.085" width="63.848" height="15.682" rx="2.24028" fill="#1D1D1D"/>
<path d="M213.134 186.565H236.47L241.138 193.286H213.134V186.565Z" fill="#64DAE1"/>
<rect x="225.456" y="186.565" width="1.12014" height="6.72084" fill="#1D1D1D"/>
<rect x="250.099" y="186.565" width="1.12014" height="6.72084" fill="#FAAD14"/>
<rect x="252.339" y="186.565" width="1.12014" height="6.72084" fill="#484848"/>
<rect x="254.579" y="186.565" width="1.12014" height="6.72084" fill="#484848"/>
<rect x="256.82" y="186.565" width="1.12014" height="6.72084" fill="#484848"/>
<rect x="259.06" y="186.565" width="1.12014" height="6.72084" fill="#484848"/>
<rect x="261.3" y="186.565" width="1.12014" height="6.72084" fill="#484848"/>
<circle cx="245.058" cy="188.246" r="1.68021" fill="#939393"/>
<circle cx="265.781" cy="187.685" r="1.12014" fill="#FF6069"/>
<circle cx="265.781" cy="192.166" r="1.12014" fill="#59FF9C"/>
<rect x="208.654" y="200.007" width="63.848" height="15.682" rx="2.24028" fill="#1D1D1D"/>
<path d="M213.134 204.488H236.47L241.138 211.208H213.134V204.488Z" fill="#64DAE1"/>
<rect x="225.456" y="204.488" width="1.12014" height="6.72084" fill="#1D1D1D"/>
<rect x="250.099" y="204.488" width="1.12014" height="6.72084" fill="#FAAD14"/>
<rect x="252.339" y="204.488" width="1.12014" height="6.72084" fill="#484848"/>
<rect x="254.579" y="204.488" width="1.12014" height="6.72084" fill="#484848"/>
<rect x="256.82" y="204.488" width="1.12014" height="6.72084" fill="#484848"/>
<rect x="259.06" y="204.488" width="1.12014" height="6.72084" fill="#484848"/>
<rect x="261.3" y="204.488" width="1.12014" height="6.72084" fill="#484848"/>
<circle cx="245.058" cy="206.168" r="1.68021" fill="#939393"/>
<circle cx="265.781" cy="205.608" r="1.12014" fill="#FF6069"/>
<circle cx="265.781" cy="210.088" r="1.12014" fill="#59FF9C"/>
<rect x="208.654" y="217.929" width="63.848" height="15.682" rx="2.24028" fill="#1D1D1D"/>
<path d="M213.134 222.41H236.47L241.138 229.131H213.134V222.41Z" fill="#64DAE1"/>
<rect x="225.456" y="222.41" width="1.12014" height="6.72084" fill="#1D1D1D"/>
<rect x="250.099" y="222.41" width="1.12014" height="6.72084" fill="#FAAD14"/>
<rect x="252.339" y="222.41" width="1.12014" height="6.72084" fill="#484848"/>
<rect x="254.579" y="222.41" width="1.12014" height="6.72084" fill="#484848"/>
<rect x="256.82" y="222.41" width="1.12014" height="6.72084" fill="#484848"/>
<rect x="259.06" y="222.41" width="1.12014" height="6.72084" fill="#484848"/>
<rect x="261.3" y="222.41" width="1.12014" height="6.72084" fill="#484848"/>
<circle cx="245.058" cy="224.09" r="1.68021" fill="#939393"/>
<circle cx="265.781" cy="223.53" r="1.12014" fill="#FF6069"/>
<circle cx="265.781" cy="228.011" r="1.12014" fill="#59FF9C"/>
<rect x="208.654" y="235.852" width="63.848" height="15.682" rx="2.24028" fill="#1D1D1D"/>
<path d="M213.134 240.332H236.47L241.138 247.053H213.134V240.332Z" fill="#64DAE1"/>
<rect x="225.456" y="240.332" width="1.12014" height="6.72084" fill="#1D1D1D"/>
<rect x="250.099" y="240.332" width="1.12014" height="6.72084" fill="#FAAD14"/>
<rect x="252.339" y="240.332" width="1.12014" height="6.72084" fill="#484848"/>
<rect x="254.579" y="240.332" width="1.12014" height="6.72084" fill="#484848"/>
<rect x="256.82" y="240.332" width="1.12014" height="6.72084" fill="#484848"/>
<rect x="259.06" y="240.332" width="1.12014" height="6.72084" fill="#484848"/>
<rect x="261.3" y="240.332" width="1.12014" height="6.72084" fill="#484848"/>
<circle cx="245.058" cy="242.012" r="1.68021" fill="#939393"/>
<circle cx="265.781" cy="241.452" r="1.12014" fill="#FF6069"/>
<circle cx="265.781" cy="245.933" r="1.12014" fill="#59FF9C"/>
<rect x="208.654" y="262.735" width="63.848" height="15.682" rx="2.24028" fill="#1D1D1D"/>
<path d="M213.134 267.215H236.47L241.138 273.936H213.134V267.215Z" fill="#64DAE1"/>
<rect x="225.456" y="267.215" width="1.12014" height="6.72084" fill="#1D1D1D"/>
<rect x="250.099" y="267.215" width="1.12014" height="6.72084" fill="#FAAD14"/>
<rect x="252.339" y="267.215" width="1.12014" height="6.72084" fill="#484848"/>
<rect x="254.579" y="267.215" width="1.12014" height="6.72084" fill="#484848"/>
<rect x="256.82" y="267.215" width="1.12014" height="6.72084" fill="#484848"/>
<rect x="259.06" y="267.215" width="1.12014" height="6.72084" fill="#484848"/>
<rect x="261.3" y="267.215" width="1.12014" height="6.72084" fill="#484848"/>
<circle cx="245.058" cy="268.896" r="1.68021" fill="#939393"/>
<circle cx="265.781" cy="268.336" r="1.12014" fill="#FF6069"/>
<circle cx="265.781" cy="272.816" r="1.12014" fill="#59FF9C"/>
<rect x="208.654" y="280.657" width="63.848" height="15.682" rx="2.24028" fill="#1D1D1D"/>
<path d="M213.134 285.138H236.47L241.138 291.859H213.134V285.138Z" fill="#64DAE1"/>
<rect x="225.456" y="285.138" width="1.12014" height="6.72084" fill="#1D1D1D"/>
<rect x="250.099" y="285.138" width="1.12014" height="6.72084" fill="#FAAD14"/>
<rect x="252.339" y="285.138" width="1.12014" height="6.72084" fill="#484848"/>
<rect x="254.579" y="285.138" width="1.12014" height="6.72084" fill="#484848"/>
<rect x="256.82" y="285.138" width="1.12014" height="6.72084" fill="#484848"/>
<rect x="259.06" y="285.138" width="1.12014" height="6.72084" fill="#484848"/>
<rect x="261.3" y="285.138" width="1.12014" height="6.72084" fill="#484848"/>
<circle cx="245.058" cy="286.818" r="1.68021" fill="#939393"/>
<circle cx="265.781" cy="286.258" r="1.12014" fill="#FF6069"/>
<circle cx="265.781" cy="290.738" r="1.12014" fill="#59FF9C"/>
<rect x="208.654" y="298.579" width="63.848" height="15.682" rx="2.24028" fill="#1D1D1D"/>
<path d="M213.134 303.06H236.47L241.138 309.781H213.134V303.06Z" fill="#64DAE1"/>
<rect x="225.456" y="303.06" width="1.12014" height="6.72084" fill="#1D1D1D"/>
<rect x="250.099" y="303.06" width="1.12014" height="6.72084" fill="#FAAD14"/>
<rect x="252.339" y="303.06" width="1.12014" height="6.72084" fill="#484848"/>
<rect x="254.579" y="303.06" width="1.12014" height="6.72084" fill="#484848"/>
<rect x="256.82" y="303.06" width="1.12014" height="6.72084" fill="#484848"/>
<rect x="259.06" y="303.06" width="1.12014" height="6.72084" fill="#484848"/>
<rect x="261.3" y="303.06" width="1.12014" height="6.72084" fill="#484848"/>
<circle cx="245.058" cy="304.74" r="1.68021" fill="#939393"/>
<circle cx="265.781" cy="304.18" r="1.12014" fill="#FF6069"/>
<circle cx="265.781" cy="308.661" r="1.12014" fill="#59FF9C"/>
<rect x="208.654" y="316.502" width="63.848" height="15.682" rx="2.24028" fill="#1D1D1D"/>
<path d="M213.134 320.982H236.47L241.138 327.703H213.134V320.982Z" fill="#64DAE1"/>
<rect x="225.456" y="320.982" width="1.12014" height="6.72084" fill="#1D1D1D"/>
<rect x="250.099" y="320.982" width="1.12014" height="6.72084" fill="#FAAD14"/>
<rect x="252.339" y="320.982" width="1.12014" height="6.72084" fill="#484848"/>
<rect x="254.579" y="320.982" width="1.12014" height="6.72084" fill="#484848"/>
<rect x="256.82" y="320.982" width="1.12014" height="6.72084" fill="#484848"/>
<rect x="259.06" y="320.982" width="1.12014" height="6.72084" fill="#484848"/>
<rect x="261.3" y="320.982" width="1.12014" height="6.72084" fill="#484848"/>
<circle cx="245.058" cy="322.662" r="1.68021" fill="#939393"/>
<circle cx="265.781" cy="322.102" r="1.12014" fill="#FF6069"/>
<circle cx="265.781" cy="326.583" r="1.12014" fill="#59FF9C"/>
<rect x="294.904" y="144" width="86.2508" height="216.187" rx="4.48056" fill="#484848"/>
<rect x="301.625" y="159.682" width="72.8091" height="176.982" rx="2.24028" fill="#313130"/>
<rect opacity="0.6" x="301.625" y="150.721" width="16.8021" height="3.36042" rx="1.68021" fill="black"/>
<rect opacity="0.6" x="301.625" y="350.106" width="16.8021" height="3.36042" rx="1.68021" fill="black"/>
<rect opacity="0.2" x="294.904" y="340.025" width="86.2508" height="1.12014" fill="black"/>
<rect x="306.106" y="164.163" width="63.848" height="15.682" rx="2.24028" fill="#1D1D1D"/>
<path d="M310.586 168.643H333.923L338.59 175.364H310.586V168.643Z" fill="#64DAE1"/>
<rect x="322.908" y="168.643" width="1.12014" height="6.72084" fill="#1D1D1D"/>
<rect x="347.551" y="168.643" width="1.12014" height="6.72084" fill="#FAAD14"/>
<rect x="349.791" y="168.643" width="1.12014" height="6.72084" fill="#484848"/>
<rect x="352.032" y="168.643" width="1.12014" height="6.72084" fill="#484848"/>
<rect x="354.272" y="168.643" width="1.12014" height="6.72084" fill="#484848"/>
<rect x="356.512" y="168.643" width="1.12014" height="6.72084" fill="#484848"/>
<rect x="358.752" y="168.643" width="1.12014" height="6.72084" fill="#484848"/>
<circle cx="342.51" cy="170.323" r="1.68021" fill="#939393"/>
<rect x="306.106" y="182.085" width="63.848" height="15.682" rx="2.24028" fill="#1D1D1D"/>
<path d="M310.586 186.565H333.923L338.59 193.286H310.586V186.565Z" fill="#64DAE1"/>
<rect x="322.908" y="186.565" width="1.12014" height="6.72084" fill="#1D1D1D"/>
<rect x="347.551" y="186.565" width="1.12014" height="6.72084" fill="#FAAD14"/>
<rect x="349.791" y="186.565" width="1.12014" height="6.72084" fill="#484848"/>
<rect x="352.032" y="186.565" width="1.12014" height="6.72084" fill="#484848"/>
<rect x="354.272" y="186.565" width="1.12014" height="6.72084" fill="#484848"/>
<rect x="356.512" y="186.565" width="1.12014" height="6.72084" fill="#484848"/>
<rect x="358.752" y="186.565" width="1.12014" height="6.72084" fill="#484848"/>
<circle cx="342.51" cy="188.246" r="1.68021" fill="#939393"/>
<rect x="306.106" y="200.007" width="63.848" height="15.682" rx="2.24028" fill="#1D1D1D"/>
<path d="M310.586 204.488H333.923L338.59 211.208H310.586V204.488Z" fill="#64DAE1"/>
<rect x="322.908" y="204.488" width="1.12014" height="6.72084" fill="#1D1D1D"/>
<rect x="347.551" y="204.488" width="1.12014" height="6.72084" fill="#FAAD14"/>
<rect x="349.791" y="204.488" width="1.12014" height="6.72084" fill="#484848"/>
<rect x="352.032" y="204.488" width="1.12014" height="6.72084" fill="#484848"/>
<rect x="354.272" y="204.488" width="1.12014" height="6.72084" fill="#484848"/>
<rect x="356.512" y="204.488" width="1.12014" height="6.72084" fill="#484848"/>
<rect x="358.752" y="204.488" width="1.12014" height="6.72084" fill="#484848"/>
<circle cx="342.51" cy="206.168" r="1.68021" fill="#939393"/>
<rect x="306.106" y="217.929" width="63.848" height="15.682" rx="2.24028" fill="#1D1D1D"/>
<path d="M310.586 222.41H333.923L338.59 229.131H310.586V222.41Z" fill="#64DAE1"/>
<rect x="322.908" y="222.41" width="1.12014" height="6.72084" fill="#1D1D1D"/>
<rect x="347.551" y="222.41" width="1.12014" height="6.72084" fill="#FAAD14"/>
<rect x="349.791" y="222.41" width="1.12014" height="6.72084" fill="#484848"/>
<rect x="352.032" y="222.41" width="1.12014" height="6.72084" fill="#484848"/>
<rect x="354.272" y="222.41" width="1.12014" height="6.72084" fill="#484848"/>
<rect x="356.512" y="222.41" width="1.12014" height="6.72084" fill="#484848"/>
<rect x="358.752" y="222.41" width="1.12014" height="6.72084" fill="#484848"/>
<circle cx="342.51" cy="224.09" r="1.68021" fill="#939393"/>
<rect x="306.106" y="235.852" width="63.848" height="15.682" rx="2.24028" fill="#1D1D1D"/>
<path d="M310.586 240.332H333.923L338.59 247.053H310.586V240.332Z" fill="#64DAE1"/>
<rect x="322.908" y="240.332" width="1.12014" height="6.72084" fill="#1D1D1D"/>
<rect x="347.551" y="240.332" width="1.12014" height="6.72084" fill="#FAAD14"/>
<rect x="349.791" y="240.332" width="1.12014" height="6.72084" fill="#484848"/>
<rect x="352.032" y="240.332" width="1.12014" height="6.72084" fill="#484848"/>
<rect x="354.272" y="240.332" width="1.12014" height="6.72084" fill="#484848"/>
<rect x="356.512" y="240.332" width="1.12014" height="6.72084" fill="#484848"/>
<rect x="358.752" y="240.332" width="1.12014" height="6.72084" fill="#484848"/>
<circle cx="342.51" cy="242.012" r="1.68021" fill="#939393"/>
<rect x="306.106" y="262.735" width="63.848" height="15.682" rx="2.24028" fill="#1D1D1D"/>
<path d="M310.586 267.215H333.923L338.59 273.936H310.586V267.215Z" fill="#64DAE1"/>
<rect x="322.908" y="267.215" width="1.12014" height="6.72084" fill="#1D1D1D"/>
<rect x="347.551" y="267.215" width="1.12014" height="6.72084" fill="#FAAD14"/>
<rect x="349.791" y="267.215" width="1.12014" height="6.72084" fill="#484848"/>
<rect x="352.032" y="267.215" width="1.12014" height="6.72084" fill="#484848"/>
<rect x="354.272" y="267.215" width="1.12014" height="6.72084" fill="#484848"/>
<rect x="356.512" y="267.215" width="1.12014" height="6.72084" fill="#484848"/>
<rect x="358.752" y="267.215" width="1.12014" height="6.72084" fill="#484848"/>
<circle cx="342.51" cy="268.896" r="1.68021" fill="#939393"/>
<rect x="306.106" y="280.657" width="63.848" height="15.682" rx="2.24028" fill="#1D1D1D"/>
<path d="M310.586 285.138H333.923L338.59 291.859H310.586V285.138Z" fill="#64DAE1"/>
<rect x="322.908" y="285.138" width="1.12014" height="6.72084" fill="#1D1D1D"/>
<rect x="347.551" y="285.138" width="1.12014" height="6.72084" fill="#FAAD14"/>
<rect x="349.791" y="285.138" width="1.12014" height="6.72084" fill="#484848"/>
<rect x="352.032" y="285.138" width="1.12014" height="6.72084" fill="#484848"/>
<rect x="354.272" y="285.138" width="1.12014" height="6.72084" fill="#484848"/>
<rect x="356.512" y="285.138" width="1.12014" height="6.72084" fill="#484848"/>
<rect x="358.752" y="285.138" width="1.12014" height="6.72084" fill="#484848"/>
<circle cx="342.51" cy="286.818" r="1.68021" fill="#939393"/>
<rect x="306.106" y="298.579" width="63.848" height="15.682" rx="2.24028" fill="#1D1D1D"/>
<path d="M310.586 303.06H333.923L338.59 309.781H310.586V303.06Z" fill="#64DAE1"/>
<rect x="322.908" y="303.06" width="1.12014" height="6.72084" fill="#1D1D1D"/>
<rect x="347.551" y="303.06" width="1.12014" height="6.72084" fill="#FAAD14"/>
<rect x="349.791" y="303.06" width="1.12014" height="6.72084" fill="#484848"/>
<rect x="352.032" y="303.06" width="1.12014" height="6.72084" fill="#484848"/>
<rect x="354.272" y="303.06" width="1.12014" height="6.72084" fill="#484848"/>
<rect x="356.512" y="303.06" width="1.12014" height="6.72084" fill="#484848"/>
<rect x="358.752" y="303.06" width="1.12014" height="6.72084" fill="#484848"/>
<circle cx="342.51" cy="304.74" r="1.68021" fill="#939393"/>
<rect x="306.106" y="316.502" width="63.848" height="15.682" rx="2.24028" fill="#1D1D1D"/>
<path d="M310.586 320.982H333.923L338.59 327.703H310.586V320.982Z" fill="#64DAE1"/>
<rect x="322.908" y="320.982" width="1.12014" height="6.72084" fill="#1D1D1D"/>
<rect x="347.551" y="320.982" width="1.12014" height="6.72084" fill="#FAAD14"/>
<rect x="349.791" y="320.982" width="1.12014" height="6.72084" fill="#484848"/>
<rect x="352.032" y="320.982" width="1.12014" height="6.72084" fill="#484848"/>
<rect x="354.272" y="320.982" width="1.12014" height="6.72084" fill="#484848"/>
<rect x="356.512" y="320.982" width="1.12014" height="6.72084" fill="#484848"/>
<rect x="358.752" y="320.982" width="1.12014" height="6.72084" fill="#484848"/>
<circle cx="342.51" cy="322.662" r="1.68021" fill="#939393"/>
</g>
<defs>
<clipPath id="clip0_2130_75262">
<rect width="360" height="360" rx="8" fill="white"/>
</clipPath>
</defs>
</svg>
