<svg width="360" height="360" viewBox="0 0 360 360" fill="none" xmlns="http://www.w3.org/2000/svg">
<g clip-path="url(#clip0_4345_28653)">
<rect width="360" height="360" rx="8" fill="#EFF2ED"/>
<path d="M30 75.7812V30H57.75L57.4062 36.7188H38.4688V48.5312H56.4688V55.25H38.4688V69.0312H58.0938L57.8125 75.7812H30Z" fill="#00233A"/>
<path d="M71.7212 76.4375C68.5337 76.4375 65.9504 75.5625 63.9712 73.8125C62.0129 72.0417 61.0337 69.5 61.0337 66.1875C61.0337 62.625 62.2004 59.9896 64.5337 58.2812C66.8671 56.5521 70.3879 55.4583 75.0962 55C75.7421 54.9167 76.44 54.8333 77.19 54.75C77.94 54.6667 78.7837 54.5833 79.7212 54.5C80.6587 54.4167 81.3983 54.3438 81.94 54.2812V52.4688C81.94 50.3854 81.4608 48.875 80.5025 47.9375C79.5442 46.9792 78.0858 46.5 76.1275 46.5C73.3358 46.5 69.8879 47.2812 65.7837 48.8438C65.7629 48.7812 65.4192 47.8333 64.7525 46C64.0858 44.1667 63.7421 43.2292 63.7212 43.1875C67.7629 41.4583 72.1379 40.5938 76.8462 40.5938C81.4712 40.5938 84.8358 41.6042 86.94 43.625C89.0442 45.625 90.0962 48.875 90.0962 53.375V75.7812H84.0337C84.0129 75.6979 83.7837 75 83.3462 73.6875C82.9087 72.375 82.69 71.6771 82.69 71.5938C80.9817 73.2604 79.3046 74.4896 77.6587 75.2812C76.0337 76.0521 74.0546 76.4375 71.7212 76.4375ZM73.94 70.625C75.8358 70.625 77.4817 70.1771 78.8775 69.2812C80.2942 68.3646 81.3046 67.2604 81.9087 65.9688V59.3438C81.8462 59.3438 81.2942 59.3854 80.2525 59.4688C79.2317 59.5521 78.6796 59.5938 78.5962 59.5938C75.2837 59.8854 72.8567 60.5104 71.315 61.4688C69.7733 62.4271 69.0025 63.9688 69.0025 66.0938C69.0025 67.5521 69.4296 68.6771 70.2837 69.4688C71.1379 70.2396 72.3567 70.625 73.94 70.625Z" fill="#00233A"/>
<path d="M106.755 76.4062C101.692 76.4062 97.6404 75.5417 94.5987 73.8125L95.4425 67.6562C96.8175 68.4062 98.5675 69.0833 100.692 69.6875C102.817 70.2708 104.755 70.5625 106.505 70.5625C108.317 70.5625 109.724 70.2292 110.724 69.5625C111.745 68.875 112.265 67.875 112.286 66.5625C112.286 65.375 111.807 64.4375 110.849 63.75C109.911 63.0625 108.109 62.2083 105.442 61.1875C104.526 60.8542 103.932 60.6354 103.661 60.5312C100.495 59.3021 98.2133 57.9375 96.8175 56.4375C95.4217 54.9167 94.7237 52.8646 94.7237 50.2812C94.7237 47.1562 95.8487 44.7604 98.0987 43.0938C100.37 41.4271 103.526 40.5938 107.567 40.5938C111.942 40.5938 115.786 41.4167 119.099 43.0625L117.067 48.7188C113.797 47.1979 110.682 46.4375 107.724 46.4375C106.078 46.4375 104.786 46.7188 103.849 47.2812C102.932 47.8229 102.474 48.6562 102.474 49.7812C102.474 50.8438 102.922 51.6771 103.817 52.2812C104.713 52.8646 106.463 53.6354 109.067 54.5938C109.151 54.6146 109.422 54.7083 109.88 54.875C110.338 55.0417 110.692 55.1771 110.942 55.2812C114.088 56.4271 116.401 57.8021 117.88 59.4062C119.359 60.9896 120.099 63.0625 120.099 65.625C120.078 69.0625 118.911 71.7188 116.599 73.5938C114.286 75.4688 111.005 76.4062 106.755 76.4062Z" fill="#00233A"/>
<path d="M125.851 90.25C124.518 90.25 123.101 90.1667 121.601 90L121.195 83.6562C122.153 83.7604 123.372 83.8125 124.851 83.8125C126.747 83.8125 128.268 83.4375 129.414 82.6875C130.56 81.9375 131.507 80.6042 132.257 78.6875C132.341 78.4792 132.757 77.3021 133.507 75.1562L119.695 41.4375H128.445L137.476 66.3438C138.143 63.8646 139.632 59.2604 141.945 52.5312C144.278 45.8021 145.56 42.1042 145.789 41.4375H154.539C145.018 66.6042 140.216 79.2917 140.132 79.5C138.653 83.3542 136.789 86.1042 134.539 87.75C132.289 89.4167 129.393 90.25 125.851 90.25Z" fill="#00233A"/>
<path d="M157.135 75.7812V30H171.416C177.479 30 182 30.8854 184.979 32.6562C187.958 34.4271 189.448 37.375 189.448 41.5C189.448 42.1667 189.406 42.8229 189.323 43.4688C189.239 44.1146 189.052 44.8542 188.76 45.6875C188.468 46.5 188.083 47.2396 187.604 47.9062C187.125 48.5729 186.458 49.2292 185.604 49.875C184.75 50.5 183.75 50.9896 182.604 51.3438C185.437 52.0312 187.604 53.3542 189.104 55.3125C190.604 57.25 191.354 59.6458 191.354 62.5C191.354 66.8125 189.823 70.1042 186.76 72.375C183.718 74.6458 179.5 75.7812 174.104 75.7812H157.135ZM165.604 69.6562H172.948C179.448 69.6562 182.698 67.1146 182.698 62.0312C182.698 59.4688 181.885 57.625 180.26 56.5C178.635 55.375 176.125 54.8125 172.729 54.8125H165.604V69.6562ZM165.604 48.9062H172.854C178.458 48.9062 181.26 46.7708 181.26 42.5C181.26 40.1042 180.448 38.4583 178.823 37.5625C177.218 36.6667 174.656 36.2188 171.135 36.2188H165.604V48.9062Z" fill="#F00521"/>
<path d="M220.262 73.0938C217.533 75.3229 213.94 76.4375 209.481 76.4375C205.023 76.4375 201.429 75.3229 198.7 73.0938C195.992 70.8646 194.637 67.5938 194.637 63.2812V41.4375H202.856V62.9688C202.856 65.5312 203.387 67.3854 204.45 68.5312C205.533 69.6771 207.242 70.25 209.575 70.25C211.867 70.25 213.533 69.6875 214.575 68.5625C215.637 67.4167 216.169 65.5521 216.169 62.9688V41.4375H224.356V63.2812C224.356 67.5729 222.992 70.8438 220.262 73.0938Z" fill="#F00521"/>
<path d="M231.109 90.25C229.775 90.25 228.359 90.1667 226.859 90L226.452 83.6562C227.411 83.7604 228.63 83.8125 230.109 83.8125C232.005 83.8125 233.525 83.4375 234.671 82.6875C235.817 81.9375 236.765 80.6042 237.515 78.6875C237.598 78.4792 238.015 77.3021 238.765 75.1562L224.952 41.4375H233.702L242.734 66.3438C243.4 63.8646 244.89 59.2604 247.202 52.5312C249.536 45.8021 250.817 42.1042 251.046 41.4375H259.796C250.275 66.6042 245.473 79.2917 245.39 79.5C243.911 83.3542 242.046 86.1042 239.796 87.75C237.546 89.4167 234.65 90.25 231.109 90.25Z" fill="#F00521"/>
<path d="M72 119C72 112.373 77.3726 107 84 107H276C282.627 107 288 112.373 288 119V360H72V119Z" fill="#D5DAD2"/>
<path d="M72 119C72 112.373 77.3726 107 84 107H276C282.627 107 288 112.373 288 119V360H72V119Z" fill="url(#paint0_linear_4345_28653)"/>
<path d="M82 125C82 120.582 85.5817 117 90 117H270C274.418 117 278 120.582 278 125V360H82V125Z" fill="white"/>
<path d="M82 125C82 120.582 85.5817 117 90 117H270C274.418 117 278 120.582 278 125V360H82V125Z" fill="url(#paint1_linear_4345_28653)"/>
<rect x="92" y="127" width="23" height="6" rx="3" fill="#00233A"/>
<rect x="262" y="127" width="6" height="6" rx="3" fill="#00233A"/>
<rect x="252" y="127" width="6" height="6" rx="3" fill="#00233A"/>
<rect x="242" y="127" width="6" height="6" rx="3" fill="#00233A"/>
<rect x="29" y="148" width="79" height="32" rx="4" fill="#D4EDDA"/>
<rect x="29.5" y="148.5" width="78" height="31" rx="3.5" stroke="#D4EDDA" stroke-opacity="0.3"/>
<rect x="38" y="156" width="16" height="16" rx="8" fill="#78A582"/>
<mask id="mask0_4345_28653" style="mask-type:alpha" maskUnits="userSpaceOnUse" x="40" y="158" width="12" height="12">
<rect x="40.6665" y="158.667" width="10.6667" height="10.6667" fill="#D9D9D9"/>
</mask>
<g mask="url(#mask0_4345_28653)">
<path d="M44.9113 166.667L42.3779 164.133L43.0113 163.5L44.9113 165.4L48.989 161.322L49.6224 161.956L44.9113 166.667Z" fill="white"/>
</g>
<rect x="62" y="159" width="34" height="3" rx="1.5" fill="#78A582"/>
<rect x="62" y="166" width="18" height="3" rx="1.5" fill="#78A582"/>
<rect x="260" y="235" width="79" height="32" rx="4" fill="#FAECE7"/>
<rect x="260.5" y="235.5" width="78" height="31" rx="3.5" stroke="#F47171" stroke-opacity="0.3"/>
<rect x="269" y="243" width="16" height="16" rx="8" fill="#F47171"/>
<mask id="mask1_4345_28653" style="mask-type:alpha" maskUnits="userSpaceOnUse" x="271" y="245" width="12" height="12">
<rect x="271.667" y="245.667" width="10.6667" height="10.6667" fill="#D9D9D9"/>
</mask>
<g mask="url(#mask1_4345_28653)">
<path d="M275.911 253.667L273.378 251.133L274.011 250.5L275.911 252.4L279.989 248.322L280.622 248.956L275.911 253.667Z" fill="white"/>
</g>
<rect x="293" y="246" width="34" height="3" rx="1.5" fill="#F47171"/>
<rect x="293" y="253" width="18" height="3" rx="1.5" fill="#F47171"/>
<rect x="63.1558" y="271.541" width="32.088" height="51.103" rx="10.696" fill="#1C2B30"/>
<rect width="32.088" height="51.103" rx="10.696" transform="matrix(-1 0 0 1 296.091 271.541)" fill="#1C2B30"/>
<path d="M85.7364 197.263L73.8519 193.697L70.2866 200.234L82.1711 205.582L85.7364 197.263Z" fill="#B70016"/>
<path d="M179.624 304.817V142H130.271C103.513 142 95.1885 168.051 91.0262 179.892C86.8639 191.733 74.9717 208.311 66.647 224.888C58.3224 241.466 61.2953 252.123 61.2953 276.398C61.2953 300.672 79.7283 304.817 96.9722 304.817H179.624Z" fill="#F00521"/>
<path d="M74.4458 225.785C76.0305 222.219 78.6058 218.06 80.9824 212.712C104.276 226.498 121.984 248.563 127.926 257.873C117.428 254.704 94.293 247.533 85.7362 244.206C71.475 238.66 72.0689 231.133 74.4458 225.785Z" fill="white"/>
<path d="M179.624 208.553V142H130.898C118.419 142 116.042 147.348 107.723 157.45C101.068 165.531 90.2925 191.717 85.7368 203.799C112.477 206.77 148.724 208.553 179.624 208.553Z" fill="#1C2B30"/>
<path d="M57.8079 202.61C53.0541 200.827 46.5176 195.479 48.3003 190.725C50.083 185.972 57.8079 183.595 64.9388 183.595C72.0697 183.595 78.0114 184.189 76.2287 195.479C74.4461 206.769 62.5616 204.392 57.8079 202.61Z" fill="#F00521"/>
<path d="M82.0167 235.886C77.2629 233.034 76.4706 229.152 76.6687 227.567C75.8764 230.34 75.5991 236.362 80.8282 238.263C86.0574 240.165 107.172 247.375 117.076 250.742C107.37 246.979 86.7704 238.739 82.0167 235.886Z" fill="#EAEAEA"/>
<mask id="mask2_4345_28653" style="mask-type:alpha" maskUnits="userSpaceOnUse" x="60" y="142" width="120" height="163">
<path d="M179.624 304.817V142H130.271C103.513 142 95.1886 168.051 91.0263 179.892C86.864 191.733 74.9717 208.311 66.6471 224.888C58.3225 241.466 61.2954 252.123 61.2954 276.398C61.2954 300.672 79.7284 304.817 96.9722 304.817H179.624Z" fill="#F00521"/>
</mask>
<g mask="url(#mask2_4345_28653)">
<path d="M180.811 291.742V304.815H104.899C87.2058 304.815 77.2247 305.762 76.2285 304.815C85.7361 295.308 95.335 291.742 106.094 291.742H180.811Z" fill="#B70016"/>
<path d="M57.8076 254.902C61.3729 249.554 73.9704 244.8 81.5765 242.423" stroke="#B70016" stroke-width="1.18844"/>
<path d="M180.217 267.974C171.502 267.974 152.289 267.974 145.158 267.974C136.245 267.974 130.303 261.438 125.549 254.307C120.795 247.176 99.9973 221.625 74.4458 209.74" stroke="#B70016" stroke-width="1.18844"/>
<path d="M145.294 275.105H179.623V284.613H123.766C126.093 283.226 130.352 280.097 132.679 278.671C135.589 276.888 138.312 275.105 145.294 275.105Z" fill="#B70016"/>
<path d="M81.5767 264.409C85.3797 267.261 99.7995 275.501 106.534 279.264C101.78 282.236 94.6496 287.584 89.8958 289.961C83.9536 292.932 79.1998 294.12 74.4461 294.12C70.4599 294.12 66.7212 289.366 66.7212 285.207C66.7212 281.047 66.7212 272.728 70.2865 266.192C73.8518 259.655 76.823 260.844 81.5767 264.409Z" fill="#B70016"/>
</g>
<path d="M273.511 197.263L285.395 193.697L288.96 200.234L277.076 205.582L273.511 197.263Z" fill="#B70016"/>
<path d="M179.623 304.817V142H228.976C255.734 142 264.059 168.051 268.221 179.892C272.383 191.733 284.275 208.311 292.6 224.888C300.925 241.466 297.952 252.123 297.952 276.398C297.952 300.672 279.519 304.817 262.275 304.817H179.623Z" fill="#F00521"/>
<path d="M284.801 225.785C283.217 222.219 280.641 218.06 278.265 212.712C254.971 226.498 237.263 248.563 231.321 257.873C241.819 254.704 264.954 247.533 273.511 244.206C287.772 238.66 287.178 231.133 284.801 225.785Z" fill="white"/>
<path d="M179.623 208.553V142H228.349C240.828 142 243.205 147.348 251.524 157.45C258.179 165.531 268.955 191.717 273.51 203.799C246.77 206.77 210.523 208.553 179.623 208.553Z" fill="#1C2B30"/>
<path d="M301.439 202.61C306.193 200.827 312.729 195.479 310.947 190.725C309.164 185.972 301.439 183.595 294.308 183.595C287.177 183.595 281.236 184.189 283.018 195.479C284.801 206.769 296.685 204.392 301.439 202.61Z" fill="#F00521"/>
<path d="M277.23 235.886C281.984 233.034 282.776 229.152 282.578 227.567C283.371 230.34 283.648 236.362 278.419 238.263C273.19 240.165 252.075 247.375 242.171 250.742C251.877 246.979 272.477 238.739 277.23 235.886Z" fill="#EAEAEA"/>
<mask id="mask3_4345_28653" style="mask-type:alpha" maskUnits="userSpaceOnUse" x="179" y="142" width="120" height="163">
<path d="M179.623 304.817V142H228.976C255.734 142 264.058 168.051 268.221 179.892C272.383 191.733 284.275 208.311 292.6 224.888C300.925 241.466 297.952 252.123 297.952 276.398C297.952 300.672 279.519 304.817 262.275 304.817H179.623Z" fill="#F00521"/>
</mask>
<g mask="url(#mask3_4345_28653)">
<path d="M178.436 291.742V304.815H254.348C272.041 304.815 282.022 305.762 283.019 304.815C273.511 295.308 263.912 291.742 253.153 291.742H178.436Z" fill="#B70016"/>
<path d="M301.439 254.902C297.874 249.554 285.277 244.8 277.671 242.423" stroke="#B70016" stroke-width="1.18844"/>
<path d="M179.03 267.974C187.745 267.974 206.958 267.974 214.089 267.974C223.002 267.974 228.944 261.438 233.698 254.307C238.452 247.176 259.25 221.625 284.801 209.74" stroke="#B70016" stroke-width="1.18844"/>
<path d="M213.953 275.105H179.624V284.613H235.481C233.154 283.226 228.895 280.097 226.568 278.671C223.658 276.888 220.935 275.105 213.953 275.105Z" fill="#B70016"/>
<path d="M277.67 264.409C273.867 267.261 259.448 275.501 252.713 279.264C257.467 282.236 264.597 287.584 269.351 289.961C275.293 292.932 280.047 294.12 284.801 294.12C288.787 294.12 292.526 289.366 292.526 285.207C292.526 281.047 292.526 272.728 288.961 266.192C285.395 259.655 282.424 260.844 277.67 264.409Z" fill="#B70016"/>
</g>
<path d="M129.115 142H214.088C170.354 151.508 113.467 184.586 91.6787 199.639C108.911 156.261 119.013 144.377 129.115 142Z" fill="#314349"/>
<g filter="url(#filter0_d_4345_28653)">
<rect x="102" y="282" width="156" height="42" rx="21" fill="url(#paint2_linear_4345_28653)"/>
</g>
<g filter="url(#filter1_d_4345_28653)">
<path d="M146.755 309H144.13V296.458H146.755V301.638H147.189L151.526 296.458H154.49L149.414 302.403L154.899 309H151.639L147.189 303.646H146.755V309ZM158.171 309.113C157.632 309.113 157.154 309.017 157.085 308.983V306.853C157.258 306.888 157.554 306.931 157.85 306.931C158.614 306.931 159.179 306.697 159.623 306.01L155.459 296.458H158.241L160.978 303.429H161.083L163.69 296.458H166.454L162.612 305.41C161.517 307.957 160.405 309.113 158.171 309.113ZM179.226 309H176.601V298.622H170.996V309H168.371V296.458H179.226V309ZM181.995 309V296.458H184.611V304.689H184.637L190.33 296.458H192.624V309H190.008V300.726H189.982L184.272 309H181.995ZM198.374 309V298.622H194.741V296.458H204.623V298.622H200.999V309H198.374ZM206.74 309V296.458H209.364V300.665H211.798C214.44 300.665 216.274 302.342 216.274 304.819V304.837C216.274 307.331 214.51 309 211.928 309H206.74ZM211.224 302.733H209.364V306.905H211.233C212.728 306.905 213.597 306.175 213.597 304.837V304.819C213.597 303.472 212.719 302.733 211.224 302.733Z" fill="white"/>
</g>
<g filter="url(#filter2_d_4345_28653)">
<path fill-rule="evenodd" clip-rule="evenodd" d="M239.045 305.131C239.045 304.566 238.821 304.024 238.421 303.624C238.021 303.224 237.479 303 236.914 303C236.349 303 235.807 303.224 235.408 303.624C235.008 304.024 234.784 304.566 234.784 305.131V309.392C234.784 309.957 235.008 310.499 235.408 310.898C235.807 311.298 236.349 311.523 236.914 311.523C237.479 311.523 238.021 311.298 238.421 310.898C238.821 310.499 239.045 309.957 239.045 309.392V305.131ZM229.38 307.368C229.184 307.164 228.949 307.002 228.689 306.89C228.429 306.779 228.149 306.72 227.866 306.717C227.584 306.715 227.303 306.769 227.041 306.876C226.779 306.983 226.541 307.141 226.341 307.341C226.141 307.541 225.983 307.779 225.876 308.041C225.769 308.303 225.715 308.584 225.717 308.866C225.72 309.149 225.779 309.429 225.89 309.689C226.002 309.949 226.164 310.184 226.368 310.38L229.38 313.397C229.579 313.596 229.814 313.753 230.073 313.86C230.331 313.967 230.609 314.022 230.889 314.022C231.169 314.022 231.447 313.967 231.705 313.86C231.964 313.753 232.199 313.596 232.397 313.397C232.596 313.199 232.753 312.964 232.86 312.705C232.967 312.447 233.022 312.169 233.022 311.889C233.022 311.609 232.967 311.331 232.86 311.073C232.753 310.814 232.596 310.579 232.397 310.38L229.38 307.368ZM238.6 316.231C236.516 315.537 234.537 317.516 235.229 319.598L242.757 342.178C243.517 344.462 246.677 344.645 247.697 342.463L252.076 333.076L261.463 328.697C263.645 327.679 263.462 324.517 261.178 323.757L238.6 316.231ZM247.461 307.368C247.86 307.767 248.085 308.309 248.085 308.874C248.085 309.439 247.86 309.981 247.461 310.38L244.448 313.397C244.25 313.595 244.015 313.752 243.757 313.86C243.498 313.967 243.221 314.022 242.941 314.022C242.661 314.022 242.384 313.967 242.125 313.86C241.866 313.752 241.631 313.595 241.433 313.397C241.235 313.2 241.078 312.964 240.971 312.706C240.864 312.447 240.809 312.17 240.809 311.89C240.809 311.61 240.864 311.333 240.971 311.074C241.078 310.816 241.235 310.581 241.433 310.383L244.448 307.37C244.848 306.97 245.39 306.746 245.955 306.746C246.52 306.746 247.061 306.968 247.461 307.368ZM222 317.914C222 317.349 222.224 316.807 222.624 316.408C223.024 316.008 223.566 315.784 224.131 315.784H228.392C228.957 315.784 229.499 316.008 229.898 316.408C230.298 316.807 230.523 317.349 230.523 317.914C230.523 318.479 230.298 319.021 229.898 319.421C229.499 319.821 228.957 320.045 228.392 320.045H224.131C223.566 320.045 223.024 319.821 222.624 319.421C222.224 319.021 222 318.479 222 317.914ZM232.395 325.448C232.593 325.25 232.75 325.015 232.857 324.757C232.965 324.498 233.02 324.221 233.02 323.941C233.02 323.661 232.965 323.384 232.857 323.125C232.75 322.866 232.593 322.631 232.395 322.433C232.197 322.235 231.962 322.078 231.704 321.971C231.445 321.864 231.168 321.809 230.888 321.809C230.608 321.809 230.331 321.864 230.072 321.971C229.813 322.078 229.578 322.235 229.38 322.433L226.368 325.448C226.164 325.645 226.002 325.88 225.89 326.14C225.779 326.4 225.72 326.679 225.717 326.962C225.715 327.245 225.769 327.526 225.876 327.788C225.983 328.049 226.141 328.287 226.341 328.487C226.541 328.687 226.779 328.846 227.041 328.953C227.303 329.06 227.584 329.114 227.866 329.111C228.149 329.109 228.429 329.05 228.689 328.938C228.949 328.827 229.184 328.664 229.38 328.461L232.395 325.448Z" fill="white"/>
</g>
</g>
<defs>
<filter id="filter0_d_4345_28653" x="84.5" y="268.5" width="191" height="77" filterUnits="userSpaceOnUse" color-interpolation-filters="sRGB">
<feFlood flood-opacity="0" result="BackgroundImageFix"/>
<feColorMatrix in="SourceAlpha" type="matrix" values="0 0 0 0 0 0 0 0 0 0 0 0 0 0 0 0 0 0 127 0" result="hardAlpha"/>
<feOffset dy="4"/>
<feGaussianBlur stdDeviation="8.75"/>
<feComposite in2="hardAlpha" operator="out"/>
<feColorMatrix type="matrix" values="0 0 0 0 0.972549 0 0 0 0 0.682353 0 0 0 0 0.00784314 0 0 0 1 0"/>
<feBlend mode="normal" in2="BackgroundImageFix" result="effect1_dropShadow_4345_28653"/>
<feBlend mode="normal" in="SourceGraphic" in2="effect1_dropShadow_4345_28653" result="shape"/>
</filter>
<filter id="filter1_d_4345_28653" x="143.13" y="295.458" width="73.144" height="13.6553" filterUnits="userSpaceOnUse" color-interpolation-filters="sRGB">
<feFlood flood-opacity="0" result="BackgroundImageFix"/>
<feColorMatrix in="SourceAlpha" type="matrix" values="0 0 0 0 0 0 0 0 0 0 0 0 0 0 0 0 0 0 127 0" result="hardAlpha"/>
<feOffset dx="-1" dy="-1"/>
<feComposite in2="hardAlpha" operator="out"/>
<feColorMatrix type="matrix" values="0 0 0 0 0.968627 0 0 0 0 0.552941 0 0 0 0 0.0313726 0 0 0 1 0"/>
<feBlend mode="normal" in2="BackgroundImageFix" result="effect1_dropShadow_4345_28653"/>
<feBlend mode="normal" in="SourceGraphic" in2="effect1_dropShadow_4345_28653" result="shape"/>
</filter>
<filter id="filter2_d_4345_28653" x="204" y="289" width="77" height="77" filterUnits="userSpaceOnUse" color-interpolation-filters="sRGB">
<feFlood flood-opacity="0" result="BackgroundImageFix"/>
<feColorMatrix in="SourceAlpha" type="matrix" values="0 0 0 0 0 0 0 0 0 0 0 0 0 0 0 0 0 0 127 0" result="hardAlpha"/>
<feOffset dy="4"/>
<feGaussianBlur stdDeviation="9"/>
<feComposite in2="hardAlpha" operator="out"/>
<feColorMatrix type="matrix" values="0 0 0 0 0.702057 0 0 0 0 0.77054 0 0 0 0 0.660967 0 0 0 1 0"/>
<feBlend mode="normal" in2="BackgroundImageFix" result="effect1_dropShadow_4345_28653"/>
<feBlend mode="normal" in="SourceGraphic" in2="effect1_dropShadow_4345_28653" result="shape"/>
</filter>
<linearGradient id="paint0_linear_4345_28653" x1="180" y1="296" x2="180" y2="360" gradientUnits="userSpaceOnUse">
<stop stop-color="#EFF2ED" stop-opacity="0"/>
<stop offset="1" stop-color="#EFF2ED"/>
</linearGradient>
<linearGradient id="paint1_linear_4345_28653" x1="180" y1="298.53" x2="180" y2="360" gradientUnits="userSpaceOnUse">
<stop stop-color="#EFF2ED" stop-opacity="0"/>
<stop offset="1" stop-color="#EFF2ED"/>
</linearGradient>
<linearGradient id="paint2_linear_4345_28653" x1="180" y1="282" x2="180" y2="324" gradientUnits="userSpaceOnUse">
<stop stop-color="#F9B600"/>
<stop offset="1" stop-color="#F5690F"/>
</linearGradient>
<clipPath id="clip0_4345_28653">
<rect width="360" height="360" rx="8" fill="white"/>
</clipPath>
</defs>
</svg>
