<svg width="360" height="360" viewBox="0 0 360 360" fill="none" xmlns="http://www.w3.org/2000/svg">
<g clip-path="url(#clip0_4534_22897)">
<rect width="360" height="360" rx="8" fill="#252834"/>
<path d="M371.718 162.476C333.994 224.232 287.412 272.519 242.616 300.676C197.791 328.851 154.903 336.789 124.433 318.176C93.9628 299.563 81.447 257.781 86.0527 205.037C90.6554 152.327 112.353 88.8388 150.077 27.0834C187.802 -34.6721 234.384 -82.9594 279.18 -111.116C324.005 -139.292 366.893 -147.229 397.363 -128.616C427.833 -110.003 440.349 -68.2212 435.743 -15.4773C431.14 37.2323 409.443 100.721 371.718 162.476Z" stroke="#00CBFF"/>
<path d="M371.718 162.476C333.994 224.232 287.412 272.519 242.616 300.676C197.791 328.851 154.903 336.789 124.433 318.176C93.9628 299.563 81.447 257.781 86.0527 205.037C90.6554 152.327 112.353 88.8388 150.077 27.0834C187.802 -34.6721 234.384 -82.9594 279.18 -111.116C324.005 -139.292 366.893 -147.229 397.363 -128.616C427.833 -110.003 440.349 -68.2212 435.743 -15.4773C431.14 37.2323 409.443 100.721 371.718 162.476Z" stroke="url(#paint0_linear_4534_22897)"/>
<path d="M279.813 213.062C258.338 247.276 232.02 273.907 206.852 289.315C181.655 304.74 157.76 308.836 140.99 298.31C124.221 287.784 117.521 264.485 120.458 235.087C123.391 205.724 135.932 170.446 157.407 136.231C178.883 102.017 205.201 75.3861 230.368 59.9789C255.566 44.5538 279.461 40.4578 296.23 50.9835C312.999 61.5091 319.699 84.8085 316.763 114.206C313.829 143.569 301.289 178.847 279.813 213.062Z" stroke="#00CBFF"/>
<path d="M279.813 213.062C258.338 247.276 232.02 273.907 206.852 289.315C181.655 304.74 157.76 308.836 140.99 298.31C124.221 287.784 117.521 264.485 120.458 235.087C123.391 205.724 135.932 170.446 157.407 136.231C178.883 102.017 205.201 75.3861 230.368 59.9789C255.566 44.5538 279.461 40.4578 296.23 50.9835C312.999 61.5091 319.699 84.8085 316.763 114.206C313.829 143.569 301.289 178.847 279.813 213.062Z" stroke="url(#paint1_linear_4534_22897)"/>
<path d="M250.096 226.07C226.303 243.843 201.203 255.128 179.874 259.022C158.511 262.923 141.098 259.39 132.429 247.784C123.76 236.178 125.313 218.479 135.115 199.1C144.901 179.753 162.844 158.887 186.637 141.114C210.43 123.342 235.529 112.057 256.858 108.162C278.221 104.262 295.634 107.795 304.303 119.4C312.972 131.006 311.419 148.706 301.618 168.084C291.831 187.432 273.889 208.298 250.096 226.07Z" stroke="#00CBFF"/>
<path d="M338.96 217.032C276.98 254.386 213.363 275.704 160.627 279.992C107.856 284.282 66.1501 271.517 47.7193 240.937C29.2886 210.356 37.4825 167.516 65.925 122.86C94.349 78.2335 142.914 31.9404 204.894 -5.41422C266.873 -42.7689 330.49 -64.087 383.226 -68.3746C435.997 -72.6651 477.703 -59.9 496.134 -29.3193C514.565 1.26139 506.371 44.101 477.928 88.7569C449.504 133.384 400.94 179.677 338.96 217.032Z" stroke="#00CBFF"/>
<path d="M338.96 217.032C276.98 254.386 213.363 275.704 160.627 279.992C107.856 284.282 66.1501 271.517 47.7193 240.937C29.2886 210.356 37.4825 167.516 65.925 122.86C94.349 78.2335 142.914 31.9404 204.894 -5.41422C266.873 -42.7689 330.49 -64.087 383.226 -68.3746C435.997 -72.6651 477.703 -59.9 496.134 -29.3193C514.565 1.26139 506.371 44.101 477.928 88.7569C449.504 133.384 400.94 179.677 338.96 217.032Z" stroke="url(#paint2_linear_4534_22897)"/>
<circle cx="97" cy="150" r="30" fill="#00CBFF"/>
<circle cx="302.5" cy="170.5" r="21.5" fill="#00CBFF"/>
<path d="M299 170.5L301.646 173.146C301.842 173.342 302.158 173.342 302.354 173.146L307.5 168" stroke="#252834" stroke-width="2" stroke-linecap="round"/>
<circle cx="111" cy="307" r="13" fill="#00CBFF"/>
<path d="M111 300V302.333M111 311.667V314M118 307H115.667M106.333 307H104M115.95 302.051L114.299 303.701M107.7 310.299L106.05 311.949M115.95 311.95L114.299 310.299M107.7 303.701L106.05 302.051" stroke="#252834" stroke-width="2" stroke-linecap="round" stroke-linejoin="round"/>
<circle cx="190.5" cy="225.5" r="41.5" fill="#00CBFF"/>
<path fill-rule="evenodd" clip-rule="evenodd" d="M117.842 69.8478C112.212 69.8478 109.068 67.2421 108.458 63.5197H104.094C104.797 70.1805 109.865 74.1285 117.842 74.1285C125.159 74.1285 130.277 70.5923 130.277 64.4052C130.277 58.6355 127.087 56.4001 121.081 55.8888L115.074 55.3774C110.522 55.0052 108.223 53.9806 108.223 51.0967C108.223 47.6525 111.085 45.5601 116.809 45.5601C123.145 45.5601 125.72 48.444 126.288 51.7471H130.513C129.855 45.4661 125.303 41.2793 116.809 41.2793C109.444 41.2793 104.094 44.7686 104.094 51.1437C104.094 57.0055 107.8 59.0998 113.666 59.5191L119.672 59.9364C124.084 60.2635 126.148 61.3333 126.148 64.3582C126.148 68.1727 122.817 69.8478 117.842 69.8478ZM132.495 61.3803C132.495 70.22 137.47 74.1285 143.851 74.1285C150.233 74.1285 155.207 70.22 155.207 61.3803C155.207 52.5856 150.796 49.4686 143.851 49.4686C136.906 49.4686 132.495 52.5856 132.495 61.3803ZM143.851 53.6083C148.871 53.6083 151.218 56.1163 151.218 61.3803C151.218 66.8699 148.496 69.9888 143.851 69.9888C139.206 69.9888 136.484 66.8699 136.484 61.3803C136.484 56.1219 138.831 53.6083 143.851 53.6083ZM157.926 73.6638V41.7433H161.907V73.6638H157.926ZM182.071 73.6642H186.052L186.064 58.4475C186.064 52.2604 182.027 49.4686 175.693 49.4686C169.124 49.4686 165.51 52.9109 165.088 57.4717H169.359C169.782 55.0052 171.846 53.6083 175.741 53.6083C179.917 53.6083 182.075 55.2383 182.075 57.8891C182.075 59.0528 181.512 59.4721 180.105 59.4721H173.723C167.482 59.4721 165.323 62.0307 165.323 66.2194C165.323 71.1976 168.792 74.1285 174.423 74.1285C175.848 74.2577 177.284 74.0511 178.613 73.5254C179.942 72.9996 181.127 72.1698 182.071 71.1036V73.6642ZM182.071 61.9837V64.9165H182.064C182.064 68.2648 179.248 70.1749 174.751 70.1674C171.28 70.1674 169.308 68.7781 169.308 66.2194C169.308 63.9389 170.997 63.2866 174.141 63.2866H178.928C180.334 63.2866 181.461 63.0553 182.071 61.9837ZM203.743 54.0746H199.989C199.166 53.9864 198.334 54.0821 197.553 54.3551C196.773 54.6279 196.064 55.0708 195.478 55.6513C194.893 56.2317 194.447 56.9348 194.172 57.709C193.897 58.4832 193.801 59.3085 193.89 60.1244V73.6604H189.909V49.9329H193.89V52.7247C195.064 50.8635 197.174 49.9329 200.412 49.9329H203.743V54.0746ZM225.422 69.8478C219.792 69.8478 216.647 67.2421 216.038 63.5197H211.674C212.377 70.1805 217.445 74.1285 225.422 74.1285C232.739 74.1285 237.859 70.5923 237.859 64.4052C237.859 58.6355 234.666 56.4001 228.66 55.8888L222.653 55.3774C218.103 55.0052 215.803 53.9806 215.803 51.0967C215.803 47.6525 218.666 45.5601 224.39 45.5601C230.724 45.5601 233.3 48.444 233.869 51.7471H238.092C237.436 45.4661 232.882 41.2793 224.39 41.2793C217.022 41.2793 211.674 44.7686 211.674 51.1437C211.674 57.0055 215.38 59.0998 221.247 59.5191L227.252 59.9364C231.664 60.2635 233.728 61.3333 233.728 64.3582C233.728 68.1727 230.395 69.8478 225.422 69.8478ZM249.774 69.5231H255.029V73.6591H249.498C245.177 73.6591 243.348 71.8449 243.348 67.5641V54.0751H239.97V49.9391H243.348V45.4271H247.33V49.9391H255.025V54.0751H247.33V67.1505C247.334 68.9177 247.945 69.5231 249.774 69.5231ZM273.577 73.6642H277.558L277.57 58.4475C277.57 52.2604 273.535 49.4686 267.2 49.4686C260.631 49.4686 257.018 52.9109 256.596 57.4717H260.866C261.289 55.0052 263.353 53.6083 267.247 53.6083C271.424 53.6083 273.58 55.2383 273.58 57.8891C273.58 59.0528 273.018 59.4721 271.612 59.4721H265.229C258.988 59.4721 256.83 62.0307 256.83 66.2194C256.83 71.1976 260.298 74.1285 265.929 74.1285C267.354 74.2579 268.79 74.0513 270.119 73.5256C271.448 72.9998 272.633 72.17 273.577 71.1036V73.6642ZM273.577 61.9837V64.9165H273.565C273.565 68.2648 270.751 70.1749 266.258 70.1674C262.785 70.1674 260.813 68.7781 260.813 66.2194C260.813 63.9389 262.503 63.2866 265.649 63.2866H270.433C271.843 63.2866 272.969 63.0553 273.577 61.9837ZM287.037 49.9326H295.014V54.0686H287.037V73.6582H283.056V54.0742H279.581V49.9382H283.056V47.8383C283.056 43.5575 284.885 41.7433 289.201 41.7433H295.02V45.8793H289.481C287.652 45.8793 287.043 46.4828 287.043 48.2519L287.037 49.9326ZM311.994 49.9326H304.018L304.025 48.2519C304.025 46.4828 304.634 45.8793 306.465 45.8793H312.002V41.7433H306.183C301.867 41.7433 300.036 43.5575 300.036 47.8383V49.9382H296.563V54.0742H300.036V73.6582H304.018V54.0686H311.994V49.9326Z" fill="white"/>
<path fill-rule="evenodd" clip-rule="evenodd" d="M68.6678 41.3281L63.2108 57.9834L67.5165 59.3706L72.9736 42.7154L68.6678 41.3281ZM49.2943 42.8534L53.6 41.4661L59.0712 58.164L54.7654 59.5515L49.2943 42.8534ZM37.1846 51.7461L34.5235 55.3781L48.6436 65.5511L51.3047 61.9191L37.1846 51.7461ZM47.2904 69.6149H30V74.1044H47.2904V69.6149ZM75.1978 69.6149L93.089 69.5831L93.0971 74.0726L75.2057 74.1044L75.1978 69.6149Z" fill="#00CBFF"/>
<path d="M40 106L40.9312 108.227C42.2709 111.43 44.8466 113.958 48.0749 115.237L50 116L47.9209 116.847C44.7068 118.156 42.1565 120.707 40.847 123.921L40 126L39.153 123.921C37.8435 120.707 35.2932 118.156 32.0791 116.847L30 116L32.0791 115.153C35.2932 113.844 37.8435 111.293 39.153 108.079L40 106Z" fill="#3B4053"/>
<path d="M308 295L309.49 298.563C311.633 303.689 315.755 307.733 320.92 309.78L324 311L320.673 312.355C315.531 314.45 311.45 318.531 309.355 323.673L308 327L306.645 323.673C304.55 318.531 300.469 314.45 295.327 312.355L292 311L295.327 309.645C300.469 307.55 304.55 303.469 306.645 298.327L308 295Z" fill="#3B4053"/>
<path d="M240 150L240.745 151.781C241.817 154.344 243.877 156.366 246.46 157.39L248 158L246.337 158.678C243.765 159.725 241.725 161.765 240.678 164.337L240 166L239.322 164.337C238.275 161.765 236.235 159.725 233.663 158.678L232 158L233.663 157.322C236.235 156.275 238.275 154.235 239.322 151.663L240 150Z" fill="#3B4053"/>
<circle cx="250" cy="295" r="12" fill="#5D6585"/>
<path d="M250 289C250.796 289 251.559 289.316 252.121 289.879C252.684 290.441 253 291.204 253 292C253 292.796 252.684 293.559 252.121 294.121C251.559 294.684 250.796 295 250 295C249.204 295 248.441 294.684 247.879 294.121C247.316 293.559 247 292.796 247 292C247 291.204 247.316 290.441 247.879 289.879C248.441 289.316 249.204 289 250 289ZM250 301C250 301 256 301 256 299.5C256 297.7 253.075 295.75 250 295.75C246.925 295.75 244 297.7 244 299.5C244 301 250 301 250 301Z" fill="white"/>
<circle cx="169" cy="118" r="12" fill="#5D6585"/>
<path d="M169 112C169.796 112 170.559 112.316 171.121 112.879C171.684 113.441 172 114.204 172 115C172 115.796 171.684 116.559 171.121 117.121C170.559 117.684 169.796 118 169 118C168.204 118 167.441 117.684 166.879 117.121C166.316 116.559 166 115.796 166 115C166 114.204 166.316 113.441 166.879 112.879C167.441 112.316 168.204 112 169 112ZM169 124C169 124 175 124 175 122.5C175 120.7 172.075 118.75 169 118.75C165.925 118.75 163 120.7 163 122.5C163 124 169 124 169 124Z" fill="white"/>
<circle cx="45" cy="235" r="12" fill="#5D6585"/>
<path d="M45 229C45.7956 229 46.5587 229.316 47.1213 229.879C47.6839 230.441 48 231.204 48 232C48 232.796 47.6839 233.559 47.1213 234.121C46.5587 234.684 45.7956 235 45 235C44.2044 235 43.4413 234.684 42.8787 234.121C42.3161 233.559 42 232.796 42 232C42 231.204 42.3161 230.441 42.8787 229.879C43.4413 229.316 44.2044 229 45 229ZM45 241C45 241 51 241 51 239.5C51 237.7 48.075 235.75 45 235.75C41.925 235.75 39 237.7 39 239.5C39 241 45 241 45 241Z" fill="white"/>
<path d="M187 217V210.937C187 210.343 187.264 209.78 187.72 209.4L192.444 205.464C192.803 205.164 193.256 205 193.724 205H209C210.105 205 211 205.895 211 207V235.5C211 236.605 210.105 237.5 209 237.5H189C187.895 237.5 187 236.605 187 235.5V234" stroke="#252834" stroke-width="2" stroke-linecap="round"/>
<path d="M181.5 213.5H177.18C176.739 213.5 176.31 213.646 175.961 213.915L170.781 217.9C170.288 218.278 170 218.864 170 219.485V244C170 245.105 170.895 246 172 246H192C193.105 246 194 245.105 194 244V241.5" stroke="#252834" stroke-width="2" stroke-linecap="round"/>
<path d="M180 221H183" stroke="#252834" stroke-width="2" stroke-linecap="round"/>
<path d="M194 225H197" stroke="#252834" stroke-width="2" stroke-linecap="round"/>
<path d="M187 221H199" stroke="#252834" stroke-width="2" stroke-linecap="round"/>
<path d="M178 225H190" stroke="#252834" stroke-width="2" stroke-linecap="round"/>
<path d="M182 229H196" stroke="#252834" stroke-width="2" stroke-linecap="round"/>
<circle cx="94" cy="157" r="11" stroke="#252834" stroke-width="2" stroke-linecap="round"/>
<circle cx="94" cy="157" r="7" stroke="#252834" stroke-width="2" stroke-linecap="round"/>
<path d="M97 145.5C97 141.358 100.358 138 104.5 138C108.642 138 112 141.358 112 145.5C112 148.378 110.379 150.877 108 152.135" stroke="#252834" stroke-width="2" stroke-linecap="round"/>
<line x1="89" y1="142" x2="89" y2="137" stroke="#252834" stroke-width="2" stroke-linecap="round"/>
<path d="M93 142L93 131.5" stroke="#252834" stroke-width="2" stroke-linecap="round"/>
<path fill-rule="evenodd" clip-rule="evenodd" d="M303.233 160.089C303.096 160.03 302.948 160 302.799 160C302.65 160 302.503 160.03 302.366 160.089L295.333 163.105C294.937 163.275 294.6 163.556 294.363 163.916C294.126 164.275 294 164.696 294 165.127V172.672C294 174.029 294.359 175.362 295.04 176.536C295.722 177.71 296.701 178.683 297.879 179.356L302.254 181.855C302.42 181.95 302.608 182 302.799 182C302.991 182 303.179 181.95 303.345 181.855L307.719 179.356C308.898 178.683 309.878 177.709 310.559 176.535C311.24 175.361 311.599 174.027 311.599 172.67V165.127C311.599 164.696 311.472 164.275 311.235 163.916C310.998 163.556 310.661 163.275 310.266 163.105L303.233 160.089Z" stroke="#252834" stroke-width="2" stroke-linecap="round"/>
</g>
<defs>
<linearGradient id="paint0_linear_4534_22897" x1="146" y1="330" x2="261" y2="34" gradientUnits="userSpaceOnUse">
<stop stop-color="#252834" stop-opacity="0"/>
<stop offset="1" stop-color="#252834"/>
</linearGradient>
<linearGradient id="paint1_linear_4534_22897" x1="152.83" y1="305.242" x2="275.939" y2="84.9658" gradientUnits="userSpaceOnUse">
<stop stop-color="#252834" stop-opacity="0"/>
<stop offset="1" stop-color="#252834"/>
</linearGradient>
<linearGradient id="paint2_linear_4534_22897" x1="241" y1="264" x2="307" y2="50" gradientUnits="userSpaceOnUse">
<stop stop-color="#252834" stop-opacity="0"/>
<stop offset="1" stop-color="#252834"/>
</linearGradient>
<clipPath id="clip0_4534_22897">
<rect width="360" height="360" rx="8" fill="white"/>
</clipPath>
</defs>
</svg>
