<svg width="360" height="360" viewBox="0 0 360 360" fill="none" xmlns="http://www.w3.org/2000/svg">
<g clip-path="url(#clip0_32204_119274)">
<rect width="360" height="360" rx="8" fill="#6366F1"/>
<path d="M305.495 57.1869C291.504 43.1957 274.028 33.2037 254.896 28.2565C235.764 23.3093 215.679 23.5887 196.743 29.0655C177.807 34.5424 160.716 45.0152 147.258 59.3883C133.801 73.7613 124.472 91.5061 120.247 110.766L174.032 122.815C176.145 113.185 180.809 104.313 187.538 97.1263C194.267 89.9398 202.812 84.7034 212.28 81.965C221.748 79.2266 231.791 79.0869 241.357 81.5605C250.923 84.0341 259.661 89.0301 266.656 96.0257L305.495 57.1869Z" fill="#06B6D4" stroke="white" stroke-width="1.32349"/>
<path d="M119.49 114.53C114.387 142.417 120.256 171.25 135.872 195.018C151.488 218.785 175.646 235.653 203.309 242.104L215.563 188.484C201.732 185.258 189.653 176.825 181.845 164.941C174.037 153.057 171.103 138.641 173.654 124.697L119.49 114.53Z" fill="#10B981" stroke="white" stroke-width="1.32349"/>
<path d="M207.071 242.911C229.265 247.278 252.233 244.716 272.855 235.575C293.478 226.434 310.758 211.155 322.35 191.812L275.084 163.338C269.288 173.009 260.648 180.648 250.337 185.219C240.025 189.79 228.542 191.07 217.444 188.887L207.071 242.911Z" fill="#F43F5E" stroke="white" stroke-width="1.32349"/>
<path d="M324.262 188.487C337.397 164.718 341.242 136.885 335.055 110.354L281.435 122.608C284.529 135.874 282.606 149.791 276.039 161.675L324.262 188.487Z" fill="#D946EF" stroke="white" stroke-width="1.32349"/>
<path d="M334.119 106.622C329.41 89.1965 320.501 73.1725 308.173 59.9571L267.996 97.4101C274.16 104.018 278.614 112.03 280.969 120.743L334.119 106.622Z" fill="#F97316" stroke="white" stroke-width="1.32349"/>
<g clip-path="url(#clip1_32204_119274)">
<path d="M59.6785 89.3069C76.0421 89.3069 89.3075 76.0415 89.3075 59.6778C89.3075 43.3142 76.0421 30.0488 59.6785 30.0488C43.3148 30.0488 30.0494 43.3142 30.0494 59.6778C30.0494 76.0415 43.3148 89.3069 59.6785 89.3069Z" fill="white" stroke="#6366F1" stroke-width="0.0989283"/>
<path d="M59.4092 40.582L78.2615 59.4343L59.4092 78.2867L40.5569 59.4343L59.4092 40.582Z" fill="#6366F1" stroke="white" stroke-width="0.0494641"/>
<path d="M118.729 50.8993C118.518 49.1194 117.663 47.7376 116.164 46.754C114.665 45.7703 112.827 45.2785 110.649 45.2785C109.056 45.2785 107.662 45.5361 106.468 46.0513C105.285 46.5666 104.36 47.275 103.693 48.1767C103.037 49.0784 102.709 50.1031 102.709 51.2507C102.709 52.2109 102.937 53.0366 103.394 53.7275C103.862 54.4065 104.46 54.9746 105.186 55.4312C105.912 55.8762 106.673 56.2452 107.469 56.5378C108.266 56.819 108.997 57.0473 109.665 57.223L113.318 58.2065C114.255 58.4525 115.297 58.792 116.445 59.2253C117.604 59.6586 118.711 60.25 119.765 60.9995C120.831 61.7373 121.709 62.6858 122.4 63.8451C123.091 65.0043 123.436 66.4271 123.436 68.1134C123.436 70.0574 122.927 71.8139 121.908 73.3831C120.901 74.9523 119.425 76.1994 117.481 77.1246C115.549 78.0496 113.201 78.5122 110.438 78.5122C107.862 78.5122 105.631 78.0965 103.745 77.2651C101.872 76.4337 100.396 75.2742 99.3188 73.7872C98.2532 72.2999 97.6501 70.5726 97.5096 68.6053H102.006C102.123 69.9638 102.58 71.0878 103.376 71.9778C104.184 72.856 105.203 73.5119 106.433 73.9452C107.674 74.3667 109.009 74.5776 110.438 74.5776C112.101 74.5776 113.594 74.3081 114.917 73.7695C116.24 73.2191 117.288 72.458 118.061 71.4861C118.834 70.5023 119.22 69.3548 119.22 68.0432C119.22 66.8487 118.887 65.8768 118.219 65.1274C117.552 64.3779 116.673 63.7689 115.584 63.3006C114.495 62.832 113.318 62.4223 112.054 62.0709L107.627 60.8062C104.817 59.9983 102.592 58.8448 100.952 57.3459C99.3129 55.8469 98.4932 53.8856 98.4932 51.4614C98.4932 49.4473 99.0377 47.6908 100.127 46.1919C101.228 44.6812 102.703 43.5102 104.553 42.6788C106.415 41.8356 108.494 41.4141 110.789 41.4141C113.108 41.4141 115.169 41.8298 116.972 42.6612C118.775 43.4809 120.204 44.6051 121.258 46.0338C122.324 47.4624 122.886 49.0843 122.944 50.8993H118.729ZM128.631 45.7703V41.9059H155.611V45.7703H144.299V77.8798H139.943V45.7703H128.631ZM191.19 59.8929C191.19 63.687 190.505 66.9659 189.135 69.7295C187.765 72.4932 185.885 74.6243 183.497 76.1232C181.108 77.6222 178.379 78.3717 175.311 78.3717C172.243 78.3717 169.514 77.6222 167.126 76.1232C164.737 74.6243 162.857 72.4932 161.487 69.7295C160.117 66.9659 159.432 63.687 159.432 59.8929C159.432 56.0988 160.117 52.8199 161.487 50.0562C162.857 47.2926 164.737 45.1613 167.126 43.6624C169.514 42.1635 172.243 41.4141 175.311 41.4141C178.379 41.4141 181.108 42.1635 183.497 43.6624C185.885 45.1613 187.765 47.2926 189.135 50.0562C190.505 52.8199 191.19 56.0988 191.19 59.8929ZM186.974 59.8929C186.974 56.778 186.453 54.1489 185.411 52.0059C184.381 49.8629 182.981 48.2411 181.213 47.1404C179.456 46.0396 177.489 45.4892 175.311 45.4892C173.133 45.4892 171.16 46.0396 169.392 47.1404C167.635 48.2411 166.236 49.8629 165.193 52.0059C164.163 54.1489 163.648 56.778 163.648 59.8929C163.648 63.0077 164.163 65.6366 165.193 67.7796C166.236 69.9226 167.635 71.5446 169.392 72.6453C171.16 73.746 173.133 74.2964 175.311 74.2964C177.489 74.2964 179.456 73.746 181.213 72.6453C182.981 71.5446 184.381 69.9226 185.411 67.7796C186.453 65.6366 186.974 63.0077 186.974 59.8929ZM198.515 77.8798V41.9059H210.67C213.481 41.9059 215.788 42.386 217.591 43.3463C219.394 44.2948 220.729 45.6005 221.596 47.2633C222.462 48.9262 222.896 50.8174 222.896 52.937C222.896 55.0565 222.462 56.9361 221.596 58.5755C220.729 60.215 219.4 61.503 217.609 62.4399C215.817 63.3649 213.528 63.8275 210.74 63.8275H200.904V59.8929H210.6C212.521 59.8929 214.066 59.6117 215.237 59.0498C216.42 58.4877 217.275 57.6913 217.802 56.6609C218.34 55.6186 218.61 54.3772 218.61 52.937C218.61 51.4966 218.34 50.2377 217.802 49.1604C217.263 48.0831 216.402 47.2516 215.22 46.6661C214.037 46.0689 212.474 45.7703 210.53 45.7703H202.871V77.8798H198.515ZM215.448 61.7197L224.301 77.8798H219.242L210.53 61.7197H215.448ZM230.154 41.9059H235.353L247.579 71.767H248L260.226 41.9059H265.426V77.8798H261.352V50.5481H261L249.757 77.8798H245.824L234.582 50.5481H234.23V77.8798H230.154V41.9059Z" fill="white"/>
</g>
<path d="M213 265.646C213 263.632 214.632 262 216.646 262H234.354C236.368 262 238 263.632 238 265.646V338H213V265.646Z" fill="#10B981"/>
<path d="M259.167 265.562C259.167 263.548 260.799 261.916 262.813 261.916H280.521C282.534 261.916 284.167 263.548 284.167 265.562V338.18H259.167V265.562Z" fill="#10B981"/>
<path d="M305 280.347C305 278.333 306.632 276.701 308.646 276.701H326.354C328.368 276.701 330 278.333 330 280.347V338.179H305V280.347Z" fill="#F59E0B"/>
<path d="M121.667 237.55C121.667 235.537 123.299 233.904 125.312 233.904H143.021C145.034 233.904 146.667 235.537 146.667 237.55V338.184H121.667V237.55Z" fill="#2B93FB"/>
<path d="M167 257.646C167 255.632 168.632 254 170.646 254H189.354C191.368 254 193 255.632 193 257.646V338H167V257.646Z" fill="#2B93FB"/>
<path d="M30 201.968C30 199.955 31.6323 198.322 33.6458 198.322H51.3542C53.3677 198.322 55 199.955 55 201.968V338.001H30V201.968Z" fill="#F43F5E"/>
<path d="M75.8334 225.872C75.8334 223.859 77.4657 222.227 79.4792 222.227H97.1875C99.2011 222.227 100.833 223.859 100.833 225.872V338.179H75.8334V225.872Z" fill="#2B93FB"/>
</g>
<defs>
<clipPath id="clip0_32204_119274">
<rect width="360" height="360" rx="8" fill="white"/>
</clipPath>
<clipPath id="clip1_32204_119274">
<rect width="240" height="59.9505" fill="white" transform="translate(30 30)"/>
</clipPath>
</defs>
</svg>
