<svg width="360" height="360" viewBox="0 0 360 360" fill="none" xmlns="http://www.w3.org/2000/svg">
<g clip-path="url(#clip0_5242_51211)">
<rect width="360" height="360" rx="8" fill="#E0E7FF"/>
<rect x="180" y="42" width="313.955" height="313.955" rx="36" transform="rotate(45 180 42)" fill="url(#paint0_linear_5242_51211)"/>
<rect x="392" y="222" width="313.955" height="313.955" rx="36" transform="rotate(-135 392 222)" fill="url(#paint1_linear_5242_51211)"/>
<g clip-path="url(#clip1_5242_51211)">
<path d="M56.2162 82.4308C70.6708 82.4308 82.3885 70.7034 82.3885 56.2369C82.3885 41.7704 70.6708 30.043 56.2162 30.043C41.7617 30.043 30.0439 41.7704 30.0439 56.2369C30.0439 70.7034 41.7617 82.4308 56.2162 82.4308Z" fill="#6366F1" stroke="#6366F1" stroke-width="0.5"/>
<path d="M55.978 39.3555L72.631 56.0221L55.978 72.6887L39.3252 56.0221L55.978 39.3555Z" fill="white" stroke="white" stroke-width="0.25"/>
<path d="M108.377 48.4773C108.191 46.9038 107.436 45.6822 106.112 44.8126C104.787 43.943 103.163 43.5082 101.24 43.5082C99.8328 43.5082 98.6017 43.7359 97.5468 44.1914C96.502 44.6469 95.6847 45.2733 95.0952 46.0704C94.5158 46.8676 94.2262 47.7735 94.2262 48.788C94.2262 49.6369 94.4279 50.3668 94.8313 50.9776C95.2452 51.5779 95.7726 52.0801 96.4141 52.4838C97.0553 52.8772 97.7276 53.2034 98.4311 53.4621C99.1346 53.7107 99.7811 53.9126 100.371 54.0679L103.598 54.9374C104.425 55.1548 105.346 55.455 106.36 55.838C107.384 56.2211 108.361 56.7439 109.292 57.4065C110.234 58.0588 111.01 58.8973 111.62 59.9222C112.23 60.947 112.535 62.2049 112.535 63.6957C112.535 65.4143 112.085 66.9672 111.185 68.3544C110.296 69.7417 108.992 70.8442 107.275 71.6621C105.569 72.4799 103.494 72.8888 101.053 72.8888C98.7777 72.8888 96.8071 72.5213 95.1417 71.7863C93.4866 71.0513 92.1833 70.0263 91.2317 68.7116C90.2903 67.3968 89.7576 65.8697 89.6335 64.1305H93.6056C93.7091 65.3315 94.1125 66.3252 94.8159 67.112C95.5295 67.8885 96.4294 68.4683 97.5156 68.8514C98.6122 69.224 99.7914 69.4104 101.053 69.4104C102.522 69.4104 103.841 69.1722 105.01 68.6961C106.179 68.2094 107.105 67.5365 107.787 66.6773C108.47 65.8076 108.811 64.7931 108.811 63.6336C108.811 62.5776 108.517 61.7184 107.927 61.0558C107.337 60.3932 106.562 59.8548 105.6 59.4408C104.637 59.0266 103.598 58.6644 102.481 58.3537L98.5708 57.2356C96.0881 56.5214 94.1228 55.5017 92.6746 54.1765C91.2264 52.8513 90.5023 51.1174 90.5023 48.9743C90.5023 47.1937 90.9833 45.6408 91.9455 44.3157C92.9177 42.9802 94.221 41.9449 95.8555 41.2099C97.5001 40.4645 99.3363 40.0918 101.364 40.0918C103.412 40.0918 105.232 40.4593 106.825 41.1944C108.418 41.919 109.68 42.9129 110.611 44.1759C111.553 45.4389 112.049 46.8728 112.101 48.4773H108.377ZM117.124 43.943V40.5266H140.957V43.943H130.964V72.3298H127.116V43.943H117.124ZM172.385 56.4282C172.385 59.7824 171.78 62.6812 170.569 65.1244C169.359 67.5677 167.699 69.4517 165.589 70.7769C163.478 72.102 161.068 72.7646 158.358 72.7646C155.648 72.7646 153.238 72.102 151.128 70.7769C149.017 69.4517 147.357 67.5677 146.147 65.1244C144.937 62.6812 144.332 59.7824 144.332 56.4282C144.332 53.074 144.937 50.1753 146.147 47.732C147.357 45.2888 149.017 43.4046 151.128 42.0795C153.238 40.7544 155.648 40.0918 158.358 40.0918C161.068 40.0918 163.478 40.7544 165.589 42.0795C167.699 43.4046 169.359 45.2888 170.569 47.732C171.78 50.1753 172.385 53.074 172.385 56.4282ZM168.661 56.4282C168.661 53.6745 168.2 51.3502 167.28 49.4557C166.37 47.5611 165.134 46.1274 163.572 45.1542C162.02 44.1811 160.282 43.6945 158.358 43.6945C156.434 43.6945 154.691 44.1811 153.129 45.1542C151.578 46.1274 150.341 47.5611 149.421 49.4557C148.511 51.3502 148.055 53.6745 148.055 56.4282C148.055 59.1819 148.511 61.5061 149.421 63.4006C150.341 65.2951 151.578 66.7291 153.129 67.7022C154.691 68.6752 156.434 69.1619 158.358 69.1619C160.282 69.1619 162.02 68.6752 163.572 67.7022C165.134 66.7291 166.37 65.2951 167.28 63.4006C168.2 61.5061 168.661 59.1819 168.661 56.4282ZM178.855 72.3298V40.5266H189.592C192.075 40.5266 194.112 40.9511 195.705 41.8C197.298 42.6385 198.478 43.7929 199.243 45.2629C200.008 46.733 200.391 48.4049 200.391 50.2788C200.391 52.1525 200.008 53.8142 199.243 55.2636C198.478 56.713 197.304 57.8517 195.721 58.6799C194.138 59.4977 192.116 59.9066 189.654 59.9066H180.965V56.4282H189.53C191.226 56.4282 192.592 56.1797 193.626 55.6829C194.671 55.186 195.426 54.4819 195.892 53.5709C196.367 52.6495 196.605 51.552 196.605 50.2788C196.605 49.0054 196.367 47.8924 195.892 46.94C195.416 45.9876 194.656 45.2526 193.611 44.7349C192.566 44.207 191.185 43.943 189.468 43.943H182.703V72.3298H178.855ZM193.812 58.0432L201.632 72.3298H197.164L189.468 58.0432H193.812ZM206.802 40.5266H211.395L222.195 66.9257H222.567L233.366 40.5266H237.959V72.3298H234.361V48.1669H234.05L224.119 72.3298H220.645L210.714 48.1669H210.403V72.3298H206.802V40.5266Z" fill="black"/>
</g>
<g filter="url(#filter0_d_5242_51211)">
<rect x="30" y="121" width="300" height="194" rx="20" fill="url(#paint2_linear_5242_51211)"/>
<rect x="33.5" y="124.5" width="293" height="187" rx="16.5" stroke="white" stroke-width="7"/>
</g>
<g filter="url(#filter1_d_5242_51211)">
<rect x="50" y="206" width="32" height="32" rx="6" fill="white" shape-rendering="crispEdges"/>
<path d="M58.7368 217.158C58.7368 216.917 58.8325 216.686 59.0027 216.516C59.173 216.346 59.4039 216.25 59.6447 216.25H68.7237C68.9644 216.25 69.1954 216.346 69.3656 216.516C69.5359 216.686 69.6316 216.917 69.6316 217.158C69.6316 217.399 69.5359 217.63 69.3656 217.8C69.1954 217.97 68.9644 218.066 68.7237 218.066H59.6447C59.4039 218.066 59.173 217.97 59.0027 217.8C58.8325 217.63 58.7368 217.399 58.7368 217.158ZM58.7368 226.842C58.7368 226.601 58.8325 226.37 59.0027 226.2C59.173 226.03 59.4039 225.934 59.6447 225.934H67.5131C67.7539 225.934 67.9848 226.03 68.1551 226.2C68.3254 226.37 68.421 226.601 68.421 226.842C68.421 227.083 68.3254 227.314 68.1551 227.484C67.9848 227.654 67.7539 227.75 67.5131 227.75H59.6447C59.4039 227.75 59.173 227.654 59.0027 227.484C58.8325 227.314 58.7368 227.083 58.7368 226.842ZM59.6447 221.092C59.4039 221.092 59.173 221.188 59.0027 221.358C58.8325 221.528 58.7368 221.759 58.7368 222C58.7368 222.241 58.8325 222.472 59.0027 222.642C59.173 222.812 59.4039 222.908 59.6447 222.908H72.3552C72.596 222.908 72.827 222.812 72.9972 222.642C73.1675 222.472 73.2631 222.241 73.2631 222C73.2631 221.759 73.1675 221.528 72.9972 221.358C72.827 221.188 72.596 221.092 72.3552 221.092H59.6447Z" fill="#9AA7F0"/>
</g>
<g filter="url(#filter2_d_5242_51211)">
<rect x="142" y="206" width="32" height="32" rx="6" fill="white" shape-rendering="crispEdges"/>
<path d="M160.736 214.064C161.256 214.264 161.523 214.869 161.334 215.417L156.546 229.305C156.356 229.853 155.783 230.135 155.264 229.936C154.744 229.736 154.477 229.131 154.666 228.583L159.454 214.695C159.644 214.147 160.217 213.865 160.736 214.064ZM150.414 222.256L153.95 225.99C154.34 226.402 154.34 227.07 153.95 227.482C153.86 227.579 153.75 227.657 153.629 227.71C153.507 227.763 153.376 227.791 153.243 227.791C153.11 227.791 152.979 227.763 152.857 227.71C152.735 227.657 152.626 227.579 152.536 227.482L148.293 223.003C148.105 222.8 148.001 222.533 148.001 222.256C148.001 221.98 148.105 221.713 148.293 221.51L152.536 217.03C152.626 216.932 152.735 216.855 152.857 216.801C152.979 216.748 153.11 216.721 153.243 216.721C153.376 216.721 153.507 216.748 153.629 216.801C153.75 216.855 153.86 216.932 153.95 217.03C154.138 217.233 154.242 217.5 154.242 217.777C154.242 218.054 154.138 218.321 153.95 218.524L150.414 222.256ZM165.586 222.256L162.05 218.524C161.862 218.321 161.758 218.054 161.758 217.777C161.758 217.501 161.862 217.234 162.05 217.031C162.14 216.933 162.249 216.856 162.371 216.802C162.493 216.749 162.624 216.722 162.757 216.722C162.89 216.722 163.021 216.749 163.143 216.802C163.264 216.856 163.374 216.933 163.464 217.031L167.707 221.51C168.097 221.922 168.097 222.59 167.707 223.003L163.464 227.481C163.374 227.578 163.264 227.656 163.143 227.709C163.021 227.762 162.89 227.79 162.757 227.79C162.624 227.79 162.493 227.762 162.371 227.709C162.249 227.656 162.14 227.578 162.05 227.481C161.862 227.278 161.758 227.011 161.758 226.735C161.758 226.458 161.862 226.192 162.05 225.989L165.586 222.256Z" fill="#9AA7F0"/>
</g>
<g filter="url(#filter3_d_5242_51211)">
<rect x="142" y="147" width="32" height="32" rx="6" fill="white" shape-rendering="crispEdges"/>
<path d="M166 156V158H150V156H166ZM160 160V162H150V160H160ZM166 160V162H162V160H166ZM156 164V166H150V164H156ZM166 164V166H158V164H166ZM162 168V170H150V168H162Z" fill="#9AA7F0"/>
</g>
<g filter="url(#filter4_d_5242_51211)">
<rect x="180" y="206" width="32" height="32" rx="6" fill="white" shape-rendering="crispEdges"/>
<path d="M188 216.556C188 216.143 188.169 215.747 188.469 215.456C188.769 215.164 189.176 215 189.6 215H194.016C194.256 215 194.493 215.052 194.709 215.153C194.925 215.254 195.115 215.401 195.265 215.583L196.385 216.944H202.4C202.824 216.944 203.231 217.108 203.531 217.4C203.831 217.692 204 218.087 204 218.5V227.444C204 227.857 203.831 228.253 203.531 228.544C203.231 228.836 202.824 229 202.4 229H189.6C189.176 229 188.769 228.836 188.469 228.544C188.169 228.253 188 227.857 188 227.444V216.556Z" fill="#9AA7F0"/>
</g>
<g filter="url(#filter5_d_5242_51211)">
<rect x="278" y="231" width="32" height="32" rx="6" fill="white" shape-rendering="crispEdges"/>
<path d="M296.984 245.578C297.365 245.475 297.765 245.657 297.937 246.01L298.518 247.185C298.84 247.228 299.156 247.316 299.453 247.438L300.546 246.71C300.875 246.491 301.309 246.535 301.587 246.813L302.187 247.413C302.465 247.691 302.509 248.128 302.29 248.453L301.562 249.544C301.621 249.691 301.675 249.844 301.718 250.003C301.762 250.163 301.79 250.319 301.812 250.478L302.99 251.06C303.343 251.235 303.525 251.635 303.421 252.013L303.203 252.832C303.1 253.21 302.746 253.466 302.353 253.441L301.04 253.357C300.843 253.61 300.615 253.844 300.356 254.044L300.44 255.353C300.465 255.747 300.209 256.103 299.831 256.203L299.012 256.422C298.631 256.525 298.234 256.344 298.059 255.991L297.478 254.816C297.156 254.772 296.84 254.685 296.543 254.563L295.45 255.291C295.121 255.51 294.687 255.466 294.409 255.188L293.809 254.588C293.531 254.31 293.487 253.875 293.706 253.547L294.434 252.453C294.375 252.307 294.321 252.153 294.278 251.994C294.234 251.835 294.206 251.675 294.184 251.519L293.006 250.938C292.653 250.763 292.475 250.363 292.575 249.985L292.793 249.166C292.896 248.788 293.25 248.532 293.643 248.557L294.953 248.641C295.15 248.388 295.378 248.153 295.637 247.953L295.553 246.647C295.528 246.253 295.784 245.897 296.162 245.797L296.981 245.578H296.984ZM298 249.625C297.24 249.625 296.625 250.241 296.628 251.003C296.628 251.763 297.243 252.375 298.003 252.375C298.762 252.375 299.378 251.76 299.378 251C299.375 250.238 298.759 249.625 298 249.625ZM291.015 237.578L291.834 237.797C292.212 237.9 292.468 238.257 292.443 238.647L292.359 239.953C292.618 240.153 292.846 240.385 293.043 240.641L294.356 240.557C294.746 240.532 295.103 240.788 295.206 241.166L295.425 241.985C295.525 242.363 295.346 242.763 294.993 242.938L293.815 243.519C293.793 243.678 293.762 243.838 293.721 243.994C293.681 244.15 293.625 244.307 293.565 244.453L294.293 245.547C294.512 245.875 294.468 246.31 294.19 246.588L293.59 247.188C293.312 247.466 292.878 247.51 292.55 247.291L291.456 246.563C291.159 246.685 290.843 246.772 290.521 246.816L289.94 247.991C289.765 248.344 289.365 248.522 288.987 248.422L288.168 248.203C287.787 248.1 287.534 247.744 287.559 247.353L287.643 246.044C287.384 245.844 287.156 245.613 286.959 245.357L285.646 245.441C285.256 245.466 284.9 245.21 284.796 244.832L284.578 244.013C284.478 243.635 284.656 243.235 285.009 243.06L286.187 242.478C286.209 242.319 286.24 242.163 286.281 242.003C286.325 241.844 286.375 241.691 286.437 241.544L285.709 240.453C285.49 240.125 285.534 239.691 285.812 239.413L286.412 238.813C286.69 238.535 287.125 238.491 287.453 238.71L288.546 239.438C288.843 239.316 289.159 239.228 289.481 239.185L290.062 238.01C290.237 237.657 290.634 237.478 291.015 237.578ZM290 241.625C289.24 241.625 288.625 242.241 288.625 243C288.625 243.76 289.24 244.375 290 244.375C290.759 244.375 291.375 243.76 291.375 243C291.375 242.241 290.759 241.625 290 241.625Z" fill="#9AA7F0"/>
</g>
<g filter="url(#filter6_d_5242_51211)">
<rect x="278" y="171" width="32" height="32" rx="6" fill="white" shape-rendering="crispEdges"/>
<path fill-rule="evenodd" clip-rule="evenodd" d="M289.478 179.937L299.57 186.147C299.715 186.237 299.836 186.362 299.919 186.511C300.003 186.66 300.046 186.828 300.046 186.999C300.046 187.17 300.003 187.338 299.919 187.487C299.836 187.637 299.715 187.762 299.57 187.851L289.478 194.061C289.326 194.155 289.153 194.206 288.975 194.209C288.797 194.213 288.621 194.169 288.466 194.082C288.311 193.996 288.181 193.869 288.091 193.715C288.001 193.562 287.954 193.387 287.954 193.209V180.789C287.954 180.611 288.001 180.437 288.091 180.283C288.181 180.13 288.311 180.003 288.466 179.916C288.621 179.829 288.797 179.786 288.975 179.789C289.153 179.793 289.326 179.844 289.478 179.937Z" fill="#9AA7F0"/>
</g>
<path d="M155.333 179C155.333 180.473 156.527 181.667 158 181.667C159.473 181.667 160.667 180.473 160.667 179C160.667 177.527 159.473 176.333 158 176.333C156.527 176.333 155.333 177.527 155.333 179ZM158 206.5H158.5V179H158H157.5V206.5H158Z" fill="#9AA7F0"/>
<path d="M276.333 247C276.333 248.473 277.527 249.667 279 249.667C280.473 249.667 281.667 248.473 281.667 247C281.667 245.527 280.473 244.333 279 244.333C277.527 244.333 276.333 245.527 276.333 247ZM212 221V221.5H254V221V220.5H212V221ZM260 227H259.5V241H260H260.5V227H260ZM266 247V247.5H279V247V246.5H266V247ZM260 241H259.5C259.5 244.59 262.41 247.5 266 247.5V247V246.5C262.962 246.5 260.5 244.038 260.5 241H260ZM254 221V221.5C257.038 221.5 259.5 223.962 259.5 227H260H260.5C260.5 223.41 257.59 220.5 254 220.5V221Z" fill="#9AA7F0"/>
<path d="M276.333 186C276.333 184.527 277.527 183.333 279 183.333C280.473 183.333 281.667 184.527 281.667 186C281.667 187.473 280.473 188.667 279 188.667C277.527 188.667 276.333 187.473 276.333 186ZM212 221V220.5H254V221V221.5H212V221ZM260 215H259.5V192H260H260.5V215H260ZM266 186V185.5H279V186V186.5H266V186ZM260 192H259.5C259.5 188.41 262.41 185.5 266 185.5V186V186.5C262.962 186.5 260.5 188.962 260.5 192H260ZM254 221V220.5C257.038 220.5 259.5 218.038 259.5 215H260H260.5C260.5 218.59 257.59 221.5 254 221.5V221Z" fill="#9AA7F0"/>
<path d="M181 219.333C179.527 219.333 178.333 220.527 178.333 222C178.333 223.473 179.527 224.667 181 224.667C182.473 224.667 183.667 223.473 183.667 222C183.667 220.527 182.473 219.333 181 219.333ZM173 222L173 222.5L181 222.5L181 222L181 221.5L173 221.5L173 222Z" fill="#9AA7F0"/>
<path d="M143 219.333C141.527 219.333 140.333 220.527 140.333 222C140.333 223.473 141.527 224.667 143 224.667C144.473 224.667 145.667 223.473 145.667 222C145.667 220.527 144.473 219.333 143 219.333ZM90.5 222L90.5 222.5L143 222.5V222V221.5L90.5 221.5L90.5 222Z" fill="#9AA7F0"/>
<path d="M305 149C305 159.285 301.95 169.338 296.236 177.89C290.523 186.441 282.401 193.106 272.9 197.042C263.398 200.977 252.942 202.007 242.855 200.001C232.768 197.994 223.503 193.042 216.23 185.77C208.958 178.497 204.006 169.232 201.999 159.145C199.993 149.058 201.023 138.602 204.958 129.1C208.894 119.599 215.559 111.477 224.11 105.764C232.662 100.05 242.715 97 253 97V118.475C246.963 118.475 241.061 120.266 236.041 123.62C231.022 126.974 227.109 131.741 224.799 137.319C222.489 142.896 221.884 149.034 223.062 154.955C224.24 160.876 227.147 166.315 231.416 170.584C235.685 174.853 241.124 177.76 247.045 178.938C252.966 180.116 259.104 179.511 264.681 177.201C270.259 174.891 275.026 170.978 278.38 165.959C281.734 160.939 283.525 155.037 283.525 149H305Z" fill="#48DF7C"/>
<path d="M259 91C265.829 91 272.591 92.345 278.9 94.9583C285.208 97.5715 290.941 101.402 295.77 106.23C300.598 111.059 304.428 116.792 307.042 123.1C309.655 129.409 311 136.171 311 143L289.525 143C289.525 138.991 288.735 135.022 287.201 131.319C285.667 127.615 283.419 124.25 280.584 121.416C277.75 118.581 274.385 116.333 270.681 114.799C266.978 113.265 263.009 112.475 259 112.475L259 91Z" fill="#6378F1"/>
<path d="M256.36 152.412H250.617C250.277 152.412 250.002 152.687 250.002 153.027V161.945C250.002 162.285 250.277 162.56 250.617 162.56H256.36C256.7 162.56 256.975 162.285 256.975 161.945V153.027C256.975 152.687 256.7 152.412 256.36 152.412ZM265.316 134H259.572C259.233 134 258.957 134.275 258.957 134.615V161.944C258.957 162.284 259.233 162.56 259.572 162.56H265.316C265.656 162.56 265.931 162.284 265.931 161.944V134.615C265.931 134.275 265.656 134 265.316 134ZM247.359 142.303H241.615C241.275 142.303 241 142.578 241 142.918V161.944C241 162.284 241.275 162.56 241.615 162.56H247.359C247.699 162.56 247.974 162.284 247.974 161.944V142.918C247.974 142.578 247.699 142.303 247.359 142.303Z" fill="#B6C5F9"/>
<circle cx="52.5" cy="140.5" r="3.5" fill="#CED6F1"/>
<circle cx="64.5" cy="140.5" r="3.5" fill="#CED6F1"/>
<circle cx="76.5" cy="140.5" r="3.5" fill="#CED6F1"/>
<rect x="248" y="271" width="62" height="24" rx="8" fill="#6378F1"/>
<rect x="274" y="281" width="27" height="4" rx="2" fill="#E2E9FF"/>
<rect x="259" y="281" width="11" height="4" rx="2" fill="#E2E9FF"/>
<path d="M197.677 269.643C190.611 272.587 184.919 268.416 182.956 265.963L161.61 299.821C211.662 316.751 221.967 302.766 230.064 282.892C238.16 263.018 246.993 240.201 246.993 231.368C246.993 222.535 249.202 223.271 253.618 219.591C258.034 215.911 255.826 210.758 253.618 206.342C251.409 201.926 257.298 197.509 258.77 192.357C260.242 187.204 254.354 190.885 249.202 197.509C244.049 204.134 226.384 233.576 216.079 249.769C205.774 265.963 206.51 265.963 197.677 269.643Z" fill="#FFC38A"/>
<path d="M144.68 173.956C142.325 171.012 139.773 163.406 138.792 159.971L96.8368 161.443L88.7401 202.662L87.268 228.424H129.959V215.911L138.792 205.606C141.982 199.718 148.655 187.205 149.833 184.261C151.305 180.58 147.625 177.636 144.68 173.956Z" fill="#FFC38A"/>
<path d="M150.57 199.718C148.803 197.363 147.38 192.848 146.889 190.885C143.209 198.982 135.848 195.302 132.904 192.357C129.96 189.413 127.752 183.525 127.752 179.844C127.752 176.164 127.752 172.484 131.432 168.804C135.112 165.123 140.265 161.443 142.473 156.291C144.681 151.138 146.153 138.625 139.529 135.681C132.904 132.737 125.544 133.473 115.975 140.097C106.406 146.722 97.5733 150.402 88.0045 156.291C78.4358 162.179 82.1161 181.317 83.5882 187.941C85.0603 194.566 89.4767 209.287 96.1012 209.287C102.726 209.287 105.67 207.815 109.35 204.135C113.031 200.454 111.558 198.982 110.822 197.51C110.086 196.038 106.406 194.566 105.67 188.677C104.934 182.789 110.822 178.372 115.975 180.581C121.127 182.789 121.863 189.413 123.335 194.566C124.513 198.688 128.733 210.023 130.696 215.175C134.376 216.157 142.915 217.236 147.625 213.703C153.514 209.287 152.778 202.662 150.57 199.718Z" fill="#353535"/>
<path d="M131.022 220.66C149.276 229.492 175.922 253.782 186.963 264.823L167.825 303.098L153.84 297.21C154.429 310.753 160.465 347.507 163.409 364.191H59.6245C59.8698 362.474 60.2133 354.328 59.6245 335.485C58.8884 311.931 52.9999 301.626 52.9999 258.199C52.9999 223.457 76.5538 206.92 88.3308 202.994C91.275 229.492 118.018 225.812 131.022 220.66Z" fill="#455AD4"/>
<mask id="mask0_5242_51211" style="mask-type:alpha" maskUnits="userSpaceOnUse" x="53" y="202" width="134" height="163">
<path d="M131.022 220.66C149.276 229.492 175.922 253.782 186.963 264.823L167.825 303.098L153.84 297.21C154.429 310.753 160.465 347.507 163.409 364.191H59.6245C59.8698 362.474 60.2133 354.328 59.6245 335.485C58.8884 311.931 52.9999 301.626 52.9999 258.199C52.9999 223.457 76.5538 206.92 88.3308 202.994C91.275 229.492 118.018 225.812 131.022 220.66Z" fill="#D9D9D9"/>
</mask>
<g mask="url(#mask0_5242_51211)">
<path d="M114.093 273.655C127.047 283.077 147.951 294.756 156.784 299.417L165.617 322.971L114.093 273.655Z" fill="#293A9B"/>
<path d="M72.1372 208.146C87.4472 229.933 114.829 226.514 126.606 222.589C94.219 219.645 94.955 200.786 99.3714 191.217L72.1372 208.146Z" fill="#293A9B"/>
</g>
</g>
<defs>
<filter id="filter0_d_5242_51211" x="-5.2" y="97.8" width="370.4" height="264.4" filterUnits="userSpaceOnUse" color-interpolation-filters="sRGB">
<feFlood flood-opacity="0" result="BackgroundImageFix"/>
<feColorMatrix in="SourceAlpha" type="matrix" values="0 0 0 0 0 0 0 0 0 0 0 0 0 0 0 0 0 0 127 0" result="hardAlpha"/>
<feOffset dy="12"/>
<feGaussianBlur stdDeviation="17.6"/>
<feComposite in2="hardAlpha" operator="out"/>
<feColorMatrix type="matrix" values="0 0 0 0 0.556863 0 0 0 0 0.462745 0 0 0 0 0.984314 0 0 0 0.5 0"/>
<feBlend mode="normal" in2="BackgroundImageFix" result="effect1_dropShadow_5242_51211"/>
<feBlend mode="normal" in="SourceGraphic" in2="effect1_dropShadow_5242_51211" result="shape"/>
</filter>
<filter id="filter1_d_5242_51211" x="14.8" y="182.8" width="102.4" height="102.4" filterUnits="userSpaceOnUse" color-interpolation-filters="sRGB">
<feFlood flood-opacity="0" result="BackgroundImageFix"/>
<feColorMatrix in="SourceAlpha" type="matrix" values="0 0 0 0 0 0 0 0 0 0 0 0 0 0 0 0 0 0 127 0" result="hardAlpha"/>
<feOffset dy="12"/>
<feGaussianBlur stdDeviation="17.6"/>
<feComposite in2="hardAlpha" operator="out"/>
<feColorMatrix type="matrix" values="0 0 0 0 0.671606 0 0 0 0 0.719724 0 0 0 0 0.952299 0 0 0 1 0"/>
<feBlend mode="normal" in2="BackgroundImageFix" result="effect1_dropShadow_5242_51211"/>
<feBlend mode="normal" in="SourceGraphic" in2="effect1_dropShadow_5242_51211" result="shape"/>
</filter>
<filter id="filter2_d_5242_51211" x="106.8" y="182.8" width="102.4" height="102.4" filterUnits="userSpaceOnUse" color-interpolation-filters="sRGB">
<feFlood flood-opacity="0" result="BackgroundImageFix"/>
<feColorMatrix in="SourceAlpha" type="matrix" values="0 0 0 0 0 0 0 0 0 0 0 0 0 0 0 0 0 0 127 0" result="hardAlpha"/>
<feOffset dy="12"/>
<feGaussianBlur stdDeviation="17.6"/>
<feComposite in2="hardAlpha" operator="out"/>
<feColorMatrix type="matrix" values="0 0 0 0 0.671606 0 0 0 0 0.719724 0 0 0 0 0.952299 0 0 0 1 0"/>
<feBlend mode="normal" in2="BackgroundImageFix" result="effect1_dropShadow_5242_51211"/>
<feBlend mode="normal" in="SourceGraphic" in2="effect1_dropShadow_5242_51211" result="shape"/>
</filter>
<filter id="filter3_d_5242_51211" x="106.8" y="123.8" width="102.4" height="102.4" filterUnits="userSpaceOnUse" color-interpolation-filters="sRGB">
<feFlood flood-opacity="0" result="BackgroundImageFix"/>
<feColorMatrix in="SourceAlpha" type="matrix" values="0 0 0 0 0 0 0 0 0 0 0 0 0 0 0 0 0 0 127 0" result="hardAlpha"/>
<feOffset dy="12"/>
<feGaussianBlur stdDeviation="17.6"/>
<feComposite in2="hardAlpha" operator="out"/>
<feColorMatrix type="matrix" values="0 0 0 0 0.671606 0 0 0 0 0.719724 0 0 0 0 0.952299 0 0 0 1 0"/>
<feBlend mode="normal" in2="BackgroundImageFix" result="effect1_dropShadow_5242_51211"/>
<feBlend mode="normal" in="SourceGraphic" in2="effect1_dropShadow_5242_51211" result="shape"/>
</filter>
<filter id="filter4_d_5242_51211" x="144.8" y="182.8" width="102.4" height="102.4" filterUnits="userSpaceOnUse" color-interpolation-filters="sRGB">
<feFlood flood-opacity="0" result="BackgroundImageFix"/>
<feColorMatrix in="SourceAlpha" type="matrix" values="0 0 0 0 0 0 0 0 0 0 0 0 0 0 0 0 0 0 127 0" result="hardAlpha"/>
<feOffset dy="12"/>
<feGaussianBlur stdDeviation="17.6"/>
<feComposite in2="hardAlpha" operator="out"/>
<feColorMatrix type="matrix" values="0 0 0 0 0.671606 0 0 0 0 0.719724 0 0 0 0 0.952299 0 0 0 1 0"/>
<feBlend mode="normal" in2="BackgroundImageFix" result="effect1_dropShadow_5242_51211"/>
<feBlend mode="normal" in="SourceGraphic" in2="effect1_dropShadow_5242_51211" result="shape"/>
</filter>
<filter id="filter5_d_5242_51211" x="242.8" y="207.8" width="102.4" height="102.4" filterUnits="userSpaceOnUse" color-interpolation-filters="sRGB">
<feFlood flood-opacity="0" result="BackgroundImageFix"/>
<feColorMatrix in="SourceAlpha" type="matrix" values="0 0 0 0 0 0 0 0 0 0 0 0 0 0 0 0 0 0 127 0" result="hardAlpha"/>
<feOffset dy="12"/>
<feGaussianBlur stdDeviation="17.6"/>
<feComposite in2="hardAlpha" operator="out"/>
<feColorMatrix type="matrix" values="0 0 0 0 0.671606 0 0 0 0 0.719724 0 0 0 0 0.952299 0 0 0 1 0"/>
<feBlend mode="normal" in2="BackgroundImageFix" result="effect1_dropShadow_5242_51211"/>
<feBlend mode="normal" in="SourceGraphic" in2="effect1_dropShadow_5242_51211" result="shape"/>
</filter>
<filter id="filter6_d_5242_51211" x="242.8" y="147.8" width="102.4" height="102.4" filterUnits="userSpaceOnUse" color-interpolation-filters="sRGB">
<feFlood flood-opacity="0" result="BackgroundImageFix"/>
<feColorMatrix in="SourceAlpha" type="matrix" values="0 0 0 0 0 0 0 0 0 0 0 0 0 0 0 0 0 0 127 0" result="hardAlpha"/>
<feOffset dy="12"/>
<feGaussianBlur stdDeviation="17.6"/>
<feComposite in2="hardAlpha" operator="out"/>
<feColorMatrix type="matrix" values="0 0 0 0 0.671606 0 0 0 0 0.719724 0 0 0 0 0.952299 0 0 0 1 0"/>
<feBlend mode="normal" in2="BackgroundImageFix" result="effect1_dropShadow_5242_51211"/>
<feBlend mode="normal" in="SourceGraphic" in2="effect1_dropShadow_5242_51211" result="shape"/>
</filter>
<linearGradient id="paint0_linear_5242_51211" x1="141.478" y1="3.47786" x2="370.919" y2="232.919" gradientUnits="userSpaceOnUse">
<stop stop-color="white"/>
<stop offset="1" stop-color="white" stop-opacity="0"/>
</linearGradient>
<linearGradient id="paint1_linear_5242_51211" x1="353.478" y1="183.478" x2="582.919" y2="412.919" gradientUnits="userSpaceOnUse">
<stop stop-color="white"/>
<stop offset="1" stop-color="white" stop-opacity="0"/>
</linearGradient>
<linearGradient id="paint2_linear_5242_51211" x1="180" y1="121" x2="180" y2="315" gradientUnits="userSpaceOnUse">
<stop stop-color="white"/>
<stop offset="1" stop-color="#E0E7FF"/>
</linearGradient>
<clipPath id="clip0_5242_51211">
<rect width="360" height="360" rx="8" fill="white"/>
</clipPath>
<clipPath id="clip1_5242_51211">
<rect width="212" height="53" fill="white" transform="translate(30 30)"/>
</clipPath>
</defs>
</svg>
