<svg width="360" height="360" viewBox="0 0 360 360" fill="none" xmlns="http://www.w3.org/2000/svg">
<g clip-path="url(#clip0_4322_36646)">
<rect width="360" height="360" rx="8" fill="#1B2432"/>
<rect x="63" y="211" width="107" height="106" fill="#00BDB5"/>
<rect x="63" y="217" width="107" height="94" fill="#00A19A"/>
<mask id="path-4-inside-1_4322_36646" fill="white">
<path d="M63 211H96C104.837 211 112 218.163 112 227V301C112 309.837 104.837 317 96 317H63V211Z"/>
</mask>
<path d="M63 211H96C104.837 211 112 218.163 112 227V301C112 309.837 104.837 317 96 317H63V211Z" fill="#00A19A"/>
<path d="M63 206H96C107.598 206 117 215.402 117 227H107C107 220.925 102.075 216 96 216H63V206ZM117 301C117 312.598 107.598 322 96 322H63V312H96C102.075 312 107 307.075 107 301H117ZM63 317V211V317ZM96 206C107.598 206 117 215.402 117 227V301C117 312.598 107.598 322 96 322V312C102.075 312 107 307.075 107 301V227C107 220.925 102.075 216 96 216V206Z" fill="#00BDB5" mask="url(#path-4-inside-1_4322_36646)"/>
<path d="M117 328V331C117 339.284 110.284 346 102 346H57C50.3726 346 45 351.373 45 358V358C45 364.627 50.3726 370 57 370H109C113.418 370 117 373.582 117 378V378" stroke="#52637D" stroke-width="5"/>
<rect x="109" y="317" width="16" height="12" fill="#344053"/>
<path d="M20 286V378" stroke="#52637D" stroke-width="5"/>
<rect x="12" y="275" width="16" height="12" fill="#344053"/>
<rect x="-37" y="155" width="118" height="120" rx="24" fill="#00050D"/>
<rect x="-25" y="167" width="94" height="96" rx="14" fill="#1B2432"/>
<rect x="-16" y="176" width="76" height="65" rx="9" fill="#A9D7FF"/>
<rect x="-15.5" y="176.5" width="75" height="64" rx="8.5" stroke="white" stroke-opacity="0.4"/>
<path d="M30 246C30 245.448 29.5523 245 29 245H19C15.134 245 12 248.134 12 252V252C12 255.866 15.134 259 19 259H29C29.5523 259 30 258.552 30 258V246Z" fill="#E0E7F2"/>
<path d="M31 246C31 245.448 31.4477 245 32 245H42C45.866 245 49 248.134 49 252V252C49 255.866 45.866 259 42 259H32C31.4477 259 31 258.552 31 258V246Z" fill="#E0E7F2"/>
<rect x="-9" y="245" width="14" height="14" rx="7" fill="#E0E7F2"/>
<path d="M33.6737 189L34.0737 189.4V195C33.9404 195.533 33.6071 195.867 33.0737 196L32.4737 194.4V190.2L33.6737 189ZM32.4737 187.4V183.2L33.0737 181.6C33.6071 181.733 33.9404 182.067 34.0737 182.6V188.2L33.6737 188.6L32.4737 187.4ZM42.4431 188L43.2431 188.8L42.4431 189.6H37.2431L36.4431 188.8L37.2431 188H42.4431ZM43.2431 196H36.6431C36.1098 195.867 35.7765 195.533 35.6431 195L37.2431 194.4H42.6431L43.2431 196ZM35.6431 194.6V189.4L36.0431 189L37.2431 190.2V194L35.6431 194.6ZM42.0431 183.2H37.2631L35.6631 182.6C35.7965 182.067 36.1298 181.733 36.6631 181.6H42.6431L42.0431 183.2ZM42.4431 187.4V183.2L43.0431 181.6C43.5765 181.733 43.9098 182.067 44.0431 182.6V188.2L43.6431 188.6L42.4431 187.4ZM53.6016 189L54.0016 189.4V195C53.8682 195.533 53.5349 195.867 53.0016 196L52.4016 194.4V190.2L53.6016 189ZM52.6016 196H46.6016C46.0682 195.867 45.7349 195.533 45.6016 195L47.2016 194.4H52.0016L52.6016 196ZM45.6016 194.6V189.4L46.0016 189L47.2016 190.2V194L45.6016 194.6ZM52.0016 183.2H47.2216L45.6216 182.6C45.7549 182.067 46.0882 181.733 46.6216 181.6H52.6016L52.0016 183.2ZM47.2016 183.6V187.4L46.0016 188.6L45.6016 188.2V183L47.2016 183.6ZM52.4016 187.4V183.2L53.0016 181.6C53.5349 181.733 53.8682 182.067 54.0016 182.6V188.2L53.6016 188.6L52.4016 187.4Z" fill="black"/>
<path d="M42.4431 207L43.2431 207.8L42.4431 208.6H37.2431L36.4431 207.8L37.2431 207H42.4431ZM43.6431 208L44.0431 208.4V214C43.9098 214.533 43.5765 214.867 43.0431 215L42.4431 213.4V209.2L43.6431 208ZM42.6431 215H36.6431C36.1098 214.867 35.7765 214.533 35.6431 214L37.2431 213.4H42.0431L42.6431 215ZM35.6431 213.6V208.4L36.0431 208L37.2431 209.2V213L35.6431 213.6ZM42.0431 202.2H37.2631L35.6631 201.6C35.7965 201.067 36.1298 200.733 36.6631 200.6H42.6431L42.0431 202.2ZM37.2431 202.6V206.4L36.0431 207.6L35.6431 207.2V202L37.2431 202.6ZM42.4431 206.4V202.2L43.0431 200.6C43.5765 200.733 43.9098 201.067 44.0431 201.6V207.2L43.6431 207.6L42.4431 206.4ZM53.6016 208L54.0016 208.4V214C53.8682 214.533 53.5349 214.867 53.0016 215L52.4016 213.4V209.2L53.6016 208ZM52.6016 215H46.6016C46.0682 214.867 45.7349 214.533 45.6016 214L47.2016 213.4H52.0016L52.6016 215ZM45.6016 213.6V208.4L46.0016 208L47.2016 209.2V213L45.6016 213.6ZM52.0016 202.2H47.2216L45.6216 201.6C45.7549 201.067 46.0882 200.733 46.6216 200.6H52.6016L52.0016 202.2ZM47.2016 202.6V206.4L46.0016 207.6L45.6016 207.2V202L47.2016 202.6ZM52.4016 206.4V202.2L53.0016 200.6C53.5349 200.733 53.8682 201.067 54.0016 201.6V207.2L53.6016 207.6L52.4016 206.4Z" fill="black"/>
<path d="M42.4431 225L43.2431 225.8L42.4431 226.6H37.2431L36.4431 225.8L37.2431 225H42.4431ZM43.6431 226L44.0431 226.4V232C43.9098 232.533 43.5765 232.867 43.0431 233L42.4431 231.4V227.2L43.6431 226ZM42.6431 233H36.6431C36.1098 232.867 35.7765 232.533 35.6431 232L37.2431 231.4H42.0431L42.6431 233ZM35.6431 231.6V226.4L36.0431 226L37.2431 227.2V231L35.6431 231.6ZM42.6431 220.2H37.2631L35.6631 219.6C35.7965 219.067 36.1298 218.733 36.6631 218.6H43.2431L42.6431 220.2ZM37.2431 220.6V224.4L36.0431 225.6L35.6431 225.2V220L37.2431 220.6ZM53.6016 226L54.0016 226.4V232C53.8682 232.533 53.5349 232.867 53.0016 233L52.4016 231.4V227.2L53.6016 226ZM52.6016 233H46.6016C46.0682 232.867 45.7349 232.533 45.6016 232L47.2016 231.4H52.0016L52.6016 233ZM45.6016 231.6V226.4L46.0016 226L47.2016 227.2V231L45.6016 231.6ZM52.0016 220.2H47.2216L45.6216 219.6C45.7549 219.067 46.0882 218.733 46.6216 218.6H52.6016L52.0016 220.2ZM47.2016 220.6V224.4L46.0016 225.6L45.6016 225.2V220L47.2016 220.6ZM52.4016 224.4V220.2L53.0016 218.6C53.5349 218.733 53.8682 219.067 54.0016 219.6V225.2L53.6016 225.6L52.4016 224.4Z" fill="black"/>
<path d="M21.2997 222.94C21.3582 222.979 21.4281 223 21.4998 223C21.5714 223 21.6414 222.979 21.6998 222.94L21.5 222.676L21.7003 222.94L21.704 222.938L21.7137 222.931L21.7506 222.906C21.9599 222.762 22.1654 222.613 22.3672 222.459C22.8764 222.073 23.3627 221.66 23.8238 221.224C24.3537 220.718 24.8923 220.128 25.3003 219.502C25.7065 218.879 26 218.194 26 217.507C26 216.692 25.73 216.055 25.2523 215.623C24.7769 215.193 24.1354 215 23.4615 215C22.6654 215 21.9625 215.361 21.5 215.916C21.0375 215.36 20.3342 215 19.5385 215C18.1169 215 17 216.141 17 217.507C17 218.194 17.294 218.878 17.6997 219.501C18.1077 220.127 18.6463 220.718 19.1762 221.223C19.8199 221.833 20.5131 222.396 21.2494 222.906L21.2863 222.931L21.296 222.938L21.2997 222.94Z" fill="black"/>
<path d="M-5 229.5H2.5L6 219.5L9 234L13 224.5L14.5 229.5H27.5" stroke="black" stroke-width="2"/>
<path d="M19 252L24 249L24 255L19 252Z" fill="#97A8C2"/>
<path d="M42 252L37 249L37 255L42 252Z" fill="#97A8C2"/>
<path d="M136.044 30.0693C136.15 30.0239 136.265 30.0003 136.381 30C138.965 30.0063 141.521 30.5307 143.902 31.5426C146.283 32.5546 148.44 34.0338 150.248 35.8943C153.936 39.6886 156.001 44.7889 156 50.1004C156 50.3395 155.908 50.5692 155.741 50.74C155.66 50.8235 155.563 50.8898 155.456 50.9351C155.349 50.9804 155.234 51.0037 155.118 51.0037C155.002 51.0037 154.887 50.9804 154.78 50.9351C154.673 50.8898 154.576 50.8235 154.494 50.74C154.33 50.57 154.237 50.3401 154.237 50.1018C154.239 45.267 152.36 40.6243 149.002 37.1707C147.357 35.4776 145.393 34.1315 143.227 33.2107C141.06 32.2899 138.733 31.8128 136.381 31.8073C136.147 31.8073 135.923 31.7111 135.759 31.5425C135.593 31.3721 135.5 31.1427 135.5 30.9036C135.5 30.6646 135.593 30.4352 135.759 30.2648C135.84 30.1812 135.937 30.1148 136.044 30.0693Z" fill="white"/>
<path d="M136.381 33.8389C136.265 33.8393 136.15 33.8628 136.044 33.9083C135.937 33.9537 135.84 34.0202 135.759 34.1037C135.593 34.2741 135.5 34.5036 135.5 34.7426C135.5 34.9816 135.593 35.211 135.759 35.3815C135.923 35.5515 136.147 35.6462 136.381 35.6462C138.239 35.6512 140.077 36.0285 141.789 36.7562C143.501 37.4839 145.052 38.5475 146.352 39.8851C149.004 42.6135 150.489 46.281 150.489 50.1004C150.489 50.3401 150.583 50.57 150.747 50.74C150.829 50.8235 150.926 50.8898 151.033 50.9351C151.14 50.9804 151.255 51.0037 151.371 51.0037C151.487 51.0037 151.602 50.9804 151.709 50.9351C151.816 50.8898 151.913 50.8235 151.994 50.74C152.161 50.5693 152.253 50.3395 152.253 50.1004C152.253 45.8036 150.581 41.6779 147.597 38.6087C146.135 37.104 144.39 35.9074 142.465 35.0885C140.539 34.2697 138.471 33.8449 136.381 33.8389Z" fill="white"/>
<path d="M136.381 37.6793C136.265 37.6796 136.15 37.7031 136.044 37.7486C135.937 37.7941 135.84 37.8605 135.759 37.944C135.593 38.1144 135.5 38.3439 135.5 38.5829C135.5 38.8219 135.593 39.0514 135.759 39.2218C135.923 39.3904 136.147 39.4865 136.381 39.4865C137.746 39.4888 139.097 39.7649 140.355 40.2986C141.613 40.8323 142.754 41.6131 143.709 42.5953C145.66 44.5995 146.752 47.2947 146.751 50.1018C146.751 50.3415 146.843 50.57 147.008 50.74C147.09 50.8235 147.187 50.8898 147.294 50.9351C147.401 50.9804 147.516 51.0037 147.632 51.0037C147.748 51.0037 147.863 50.9804 147.97 50.9351C148.077 50.8898 148.174 50.8235 148.256 50.74C148.421 50.5696 148.514 50.3404 148.514 50.1018C148.515 46.8177 147.238 43.6642 144.957 41.3189C143.838 40.1687 142.504 39.2543 141.031 38.6292C139.559 38.004 137.978 37.6807 136.38 37.6779L136.381 37.6793Z" fill="white"/>
<path d="M77.0391 43.1262H36.7671C35.8861 43.1034 35.0097 43.2613 34.1912 43.5902C33.3689 43.9209 32.6212 44.4152 31.9927 45.0436C31.3604 45.6763 30.8594 46.4294 30.5187 47.2591C30.1763 48.0918 30 48.9844 30 49.8858C30 50.7872 30.1763 51.6797 30.5187 52.5124C30.8588 53.3425 31.3599 54.0957 31.9927 54.728C32.6211 55.3565 33.3688 55.8508 34.1912 56.1813C35.0111 56.5116 35.8877 56.6691 36.7671 56.6468H50.3077V85.3127C50.3077 86.2003 50.4778 87.0809 50.8096 87.9003C51.1415 88.7224 51.6268 89.4665 52.2407 90.095C52.8532 90.722 53.5819 91.2209 54.3811 91.5609C55.1807 91.9003 56.0396 92.0752 56.9073 92.0752C57.7749 92.0752 58.6338 91.9003 59.4334 91.5609C60.2365 91.2197 60.9644 90.7214 61.5752 90.095C62.8134 88.8157 63.507 87.0997 63.5082 85.3127V56.6468H77.0391C77.9202 56.6691 78.7966 56.5108 79.6151 56.1813C80.4373 55.8506 81.185 55.3563 81.8135 54.728C82.4458 54.0953 82.9469 53.3422 83.2875 52.5124C83.6299 51.6797 83.8061 50.7872 83.8061 49.8858C83.8061 48.9844 83.6299 48.0918 83.2875 47.2591C82.9468 46.4294 82.4458 45.6763 81.8135 45.0436C81.185 44.4152 80.4373 43.9209 79.6151 43.5902C78.7965 43.2613 77.9201 43.1034 77.0391 43.1262Z" fill="white"/>
<path d="M107.534 44.6411C106.356 43.6565 104.871 43.1199 103.341 43.125C101.809 43.1326 100.329 43.6814 99.1579 44.6759L83.2197 58.1923L69.7648 46.8999C69.1008 46.3351 68.3315 45.9096 67.5022 45.6483C66.6728 45.3871 65.8001 45.2952 64.9351 45.3782C64.0687 45.4639 63.2278 45.7222 62.4614 46.1382C61.6949 46.5542 61.0182 47.1195 60.4704 47.8014C59.3522 49.1916 58.8191 50.9679 58.9854 52.7495C59.1467 54.5282 59.996 56.1715 61.3498 57.3242L78.26 71.5234C79.6499 72.6982 81.4056 73.3429 83.2197 73.3446C85.0338 73.3429 86.7895 72.6982 88.1794 71.5234L96.7631 64.2733V85.122C96.7631 88.7268 99.4178 91.8718 102.927 92.1018C103.829 92.1628 104.733 92.0337 105.582 91.7227C106.435 91.4105 107.215 90.9238 107.873 90.2931C108.534 89.658 109.06 88.8937 109.417 88.0468C109.777 87.1968 109.964 86.2827 109.964 85.3575V50.0309C109.976 49.005 109.765 47.9889 109.344 47.0545C108.926 46.1243 108.308 45.2995 107.534 44.6397V44.6411Z" fill="#00A19A"/>
<path d="M40.4726 103.365H30.5698C30.5183 103.364 30.4671 103.374 30.4193 103.393C30.3716 103.413 30.3282 103.442 30.2919 103.479C30.2549 103.516 30.2256 103.561 30.2057 103.609C30.1857 103.658 30.1756 103.71 30.1758 103.763C30.1758 103.871 30.2173 103.972 30.2919 104.049C30.3282 104.086 30.3714 104.116 30.4191 104.136C30.4668 104.157 30.5181 104.167 30.5698 104.167H35.0774V114.261C35.0769 114.318 35.0875 114.374 35.1087 114.427C35.1298 114.48 35.161 114.528 35.2005 114.568C35.2395 114.608 35.2861 114.641 35.3376 114.663C35.3892 114.685 35.4445 114.696 35.5005 114.696C35.6155 114.696 35.726 114.651 35.8088 114.571C35.8932 114.489 35.9436 114.379 35.9499 114.261V104.167H40.4712C40.5777 104.167 40.6773 104.126 40.7519 104.049C40.826 103.973 40.8675 103.87 40.8675 103.764C40.8675 103.657 40.826 103.555 40.7519 103.479C40.7154 103.442 40.6719 103.412 40.6239 103.393C40.5759 103.373 40.5245 103.363 40.4726 103.363V103.365ZM47.5561 110.088C47.5573 110.013 47.5362 109.938 47.4953 109.875C47.4544 109.812 47.3956 109.762 47.3266 109.733C47.2811 109.714 47.2321 109.704 47.1828 109.705H42.9435V106.843H49.5997C49.649 106.843 49.6978 106.834 49.7432 106.815C49.7887 106.795 49.8297 106.767 49.8638 106.731C49.899 106.696 49.9267 106.654 49.9455 106.607C49.9643 106.561 49.9736 106.511 49.973 106.461C49.973 106.386 49.9511 106.312 49.9101 106.249C49.869 106.186 49.8107 106.137 49.7421 106.107C49.697 106.088 49.6485 106.079 49.5997 106.079H42.5204C42.4645 106.079 42.4092 106.09 42.3577 106.112C42.3062 106.134 42.2595 106.166 42.2203 106.206C42.1406 106.288 42.0959 106.398 42.0959 106.512V114.261C42.0956 114.318 42.1064 114.375 42.1278 114.427C42.1492 114.48 42.1806 114.528 42.2203 114.568C42.2594 114.608 42.306 114.641 42.3575 114.663C42.409 114.685 42.4644 114.696 42.5204 114.696H49.9896C50.0642 114.697 50.1373 114.675 50.1991 114.633C50.2609 114.591 50.3085 114.531 50.3353 114.461C50.3731 114.367 50.3726 114.262 50.3339 114.168C50.2961 114.076 50.2235 114.002 50.132 113.963C50.0869 113.944 50.0385 113.935 49.9896 113.935H42.9379V110.462H47.1773C47.2754 110.462 47.3708 110.424 47.44 110.354C47.5112 110.284 47.5538 110.188 47.5561 110.088ZM52.9182 106.496V114.261C52.9179 114.318 52.9287 114.375 52.9501 114.427C52.9714 114.48 53.0029 114.528 53.0426 114.568C53.0816 114.608 53.1283 114.641 53.1798 114.663C53.2313 114.685 53.2867 114.696 53.3426 114.696H60.0874C60.1366 114.697 60.1854 114.687 60.2308 114.668C60.2762 114.649 60.3173 114.62 60.3515 114.585C60.3862 114.549 60.4137 114.507 60.4322 114.46C60.4507 114.414 60.4599 114.364 60.4593 114.314C60.4592 114.24 60.4374 114.167 60.3966 114.104C60.3558 114.042 60.2978 113.993 60.2298 113.963C60.1846 113.944 60.1362 113.935 60.0874 113.935H53.7699V106.494C53.7697 106.38 53.7251 106.27 53.6454 106.188C53.6063 106.147 53.5595 106.115 53.5079 106.093C53.4562 106.071 53.4008 106.06 53.3447 106.06C53.2887 106.06 53.2332 106.071 53.1816 106.093C53.1299 106.115 53.0831 106.147 53.044 106.188C52.964 106.269 52.9193 106.38 52.9195 106.494L52.9182 106.496ZM68.0779 110.088C68.0789 109.987 68.0401 109.889 67.97 109.816C67.9355 109.781 67.8942 109.752 67.8486 109.733C67.803 109.714 67.754 109.704 67.7046 109.705H63.4653V106.843H70.1201C70.1696 106.844 70.2187 106.834 70.2644 106.815C70.3101 106.796 70.3513 106.767 70.3856 106.731C70.4205 106.696 70.448 106.653 70.4665 106.607C70.4851 106.561 70.4942 106.511 70.4934 106.461C70.4935 106.36 70.4543 106.263 70.3842 106.191C70.3499 106.155 70.309 106.128 70.2639 106.108C70.2188 106.089 70.1704 106.079 70.1215 106.079H63.0422C62.9863 106.079 62.931 106.09 62.8795 106.112C62.828 106.134 62.7813 106.166 62.7421 106.206C62.6624 106.288 62.6177 106.398 62.6177 106.512V114.261C62.6174 114.318 62.6282 114.375 62.6496 114.427C62.6709 114.48 62.7024 114.528 62.7421 114.568C62.781 114.608 62.8274 114.64 62.8787 114.662C62.9299 114.684 62.985 114.696 63.0408 114.696H70.51C70.6096 114.696 70.7036 114.654 70.7741 114.585C70.8447 114.513 70.8845 114.416 70.8847 114.314C70.8839 114.214 70.8442 114.118 70.7741 114.047C70.7398 114.012 70.6989 113.984 70.6538 113.965C70.6087 113.945 70.5603 113.936 70.5114 113.935H63.4597V110.462H67.7004C67.7986 110.462 67.893 110.423 67.9631 110.354C68.0344 110.284 68.0756 110.188 68.0779 110.088ZM85.1236 114.261V103.958C85.1232 103.801 85.0616 103.651 84.9522 103.539C84.8917 103.477 84.8182 103.43 84.7372 103.4C84.6562 103.371 84.5697 103.36 84.4841 103.369C84.3984 103.378 84.3157 103.405 84.2422 103.451C84.1686 103.496 84.106 103.557 84.0589 103.629L79.3495 110.887L74.6857 103.629C74.6331 103.548 74.5613 103.482 74.4769 103.436C74.3924 103.389 74.2979 103.365 74.2018 103.365C74.0864 103.364 73.9736 103.399 73.8781 103.465C73.7826 103.53 73.709 103.623 73.6667 103.731C73.6376 103.803 73.6226 103.88 73.6225 103.958V114.261C73.6222 114.318 73.633 114.375 73.6544 114.427C73.6757 114.48 73.7072 114.528 73.7469 114.568C73.786 114.608 73.8326 114.64 73.884 114.661C73.9354 114.683 73.9905 114.694 74.0462 114.694C74.102 114.694 74.1571 114.683 74.2085 114.661C74.2599 114.64 74.3065 114.608 74.3456 114.568C74.4253 114.486 74.47 114.376 74.47 114.261V104.758L78.8448 111.442C78.902 111.528 78.9791 111.599 79.0694 111.648C79.1598 111.698 79.2606 111.724 79.3634 111.725C79.4665 111.726 79.5681 111.7 79.6589 111.65C79.7497 111.601 79.8268 111.53 79.8832 111.442L84.258 104.758V114.261C84.2578 114.318 84.2686 114.375 84.29 114.427C84.3113 114.48 84.3428 114.528 84.3825 114.568C84.4214 114.608 84.4678 114.64 84.519 114.662C84.5703 114.684 84.6254 114.696 84.6811 114.696C84.7385 114.699 84.7957 114.689 84.8492 114.668C84.9028 114.647 84.9515 114.616 84.9923 114.575C85.0338 114.534 85.0668 114.485 85.0891 114.432C85.1115 114.378 85.1227 114.32 85.1222 114.261H85.1236ZM94.3378 110.088C94.3388 109.987 94.3 109.889 94.23 109.816C94.1956 109.781 94.1545 109.753 94.1091 109.734C94.0638 109.714 94.015 109.705 93.9659 109.705H89.7266V106.843H96.3856C96.435 106.844 96.4842 106.834 96.5298 106.815C96.5755 106.796 96.6168 106.767 96.651 106.731C96.6858 106.696 96.7133 106.653 96.7318 106.607C96.7503 106.561 96.7595 106.511 96.7589 106.461C96.759 106.36 96.7198 106.263 96.6497 106.191C96.6153 106.155 96.5745 106.128 96.5294 106.108C96.4843 106.089 96.4359 106.079 96.3869 106.079H89.3076C89.2515 106.079 89.1959 106.09 89.1442 106.112C89.0924 106.134 89.0455 106.166 89.0062 106.206C88.9264 106.288 88.8818 106.398 88.8817 106.512V114.261C88.8817 114.377 88.9274 114.487 89.0062 114.568C89.0452 114.608 89.0919 114.641 89.1434 114.663C89.1949 114.685 89.2503 114.696 89.3062 114.696H96.7727C96.8473 114.697 96.9204 114.675 96.9822 114.633C97.044 114.591 97.0916 114.531 97.1184 114.461C97.1366 114.414 97.1456 114.364 97.1447 114.314C97.1448 114.239 97.1229 114.166 97.0818 114.104C97.0408 114.041 96.9823 113.992 96.9137 113.963C96.8686 113.944 96.8202 113.935 96.7713 113.935H89.7224V110.462H93.9617C94.0599 110.462 94.1543 110.423 94.2244 110.354C94.2952 110.284 94.3359 110.188 94.3378 110.088ZM108.065 110.418C108.065 107.813 106.204 106.074 103.44 106.074H100.159C100.103 106.074 100.048 106.085 99.9961 106.107C99.9445 106.129 99.8979 106.161 99.8589 106.202C99.7792 106.284 99.7346 106.394 99.7344 106.508V114.261C99.7344 114.377 99.78 114.487 99.8589 114.568C99.8979 114.608 99.9445 114.641 99.9961 114.663C100.048 114.685 100.103 114.696 100.159 114.696H103.44C106.292 114.696 108.065 113.066 108.065 110.418ZM100.574 106.822H103.461C105.644 106.822 107.17 108.289 107.17 110.396C107.17 112.589 105.75 113.953 103.461 113.953H100.574V106.822ZM120.277 114.261V103.838C120.276 103.717 120.229 103.601 120.144 103.515C120.103 103.473 120.054 103.439 119.999 103.416C119.945 103.393 119.886 103.381 119.828 103.381C119.768 103.378 119.709 103.388 119.654 103.409C119.598 103.431 119.548 103.464 119.507 103.507C119.464 103.55 119.431 103.602 119.41 103.659C119.388 103.716 119.379 103.776 119.382 103.837V108.09H111.991V103.837C111.99 103.716 111.942 103.6 111.858 103.514C111.816 103.472 111.767 103.438 111.712 103.416C111.657 103.393 111.599 103.381 111.54 103.381C111.481 103.378 111.421 103.388 111.366 103.409C111.311 103.431 111.261 103.464 111.219 103.507C111.176 103.55 111.143 103.602 111.122 103.659C111.101 103.716 111.091 103.776 111.095 103.837V114.261C111.095 114.35 111.121 114.436 111.17 114.509C111.22 114.581 111.29 114.638 111.371 114.67C111.426 114.691 111.483 114.699 111.541 114.696C111.657 114.697 111.768 114.652 111.851 114.571C111.934 114.489 111.984 114.379 111.989 114.261V108.876H119.404V114.261C119.405 114.35 119.431 114.436 119.48 114.509C119.53 114.581 119.6 114.638 119.681 114.67C119.76 114.698 119.846 114.703 119.928 114.684C120.011 114.666 120.086 114.624 120.146 114.564C120.225 114.483 120.271 114.375 120.277 114.261ZM127.582 115C130.596 115 131.774 114.183 131.774 112.077V106.517C131.774 106.402 131.729 106.292 131.65 106.21C131.61 106.17 131.564 106.138 131.512 106.116C131.461 106.094 131.405 106.083 131.349 106.083C131.294 106.083 131.238 106.094 131.187 106.116C131.135 106.138 131.089 106.17 131.049 106.21C130.97 106.292 130.925 106.402 130.925 106.517V111.703C130.925 113.875 129.853 114.239 127.607 114.239C125.36 114.239 124.288 113.863 124.288 111.703V106.518C124.288 106.403 124.243 106.293 124.164 106.212C124.125 106.171 124.078 106.139 124.026 106.118C123.975 106.096 123.919 106.085 123.864 106.085C123.808 106.085 123.752 106.096 123.701 106.118C123.649 106.139 123.603 106.171 123.564 106.212C123.484 106.293 123.439 106.403 123.439 106.518V112.09C123.435 113.827 124.139 115 127.582 115ZM139.968 106.082H135.148C135.092 106.082 135.036 106.094 134.985 106.116C134.933 106.138 134.887 106.17 134.848 106.21C134.768 106.292 134.723 106.402 134.723 106.517V114.261C134.723 114.377 134.769 114.487 134.848 114.568C134.887 114.608 134.933 114.641 134.985 114.663C135.036 114.685 135.092 114.696 135.148 114.696H140.236C142.061 114.696 143.109 113.793 143.109 112.216C143.109 111.752 142.979 111.298 142.736 110.906C142.494 110.516 142.147 110.204 141.735 110.006L141.337 109.77L141.727 109.522C141.97 109.369 142.166 109.152 142.295 108.895C142.425 108.637 142.481 108.348 142.459 108.061C142.469 107.22 142.21 106.082 139.968 106.082ZM142.227 112.164C142.227 113.297 141.545 113.976 140.401 113.976H135.568V110.353H140.392C141.54 110.353 142.223 111.026 142.223 112.142L142.227 112.164ZM139.946 109.596H135.563V106.865H139.921C141.29 106.865 141.574 107.608 141.574 108.229C141.574 108.849 141.291 109.575 139.943 109.575L139.947 109.598L139.946 109.596Z" fill="white"/>
<path d="M136.518 43.126C134.766 43.126 133.089 43.838 131.85 45.1061C130.609 46.3833 129.915 48.1006 129.917 49.8884V59.6606H105.632C103.881 59.6606 102.203 60.3726 100.964 61.642C99.7228 62.9189 99.0287 64.6356 99.0308 66.4229C99.0308 68.2177 99.7263 69.9372 100.964 71.2052C101.572 71.8312 102.299 72.3287 103.1 72.6687C103.901 73.0087 104.762 73.1843 105.632 73.1853H129.921V85.3264C129.921 86.214 130.093 87.0933 130.423 87.914C130.754 88.7322 131.24 89.4773 131.854 90.1073C132.467 90.7357 133.195 91.2332 133.996 91.5732C134.795 91.9125 135.654 92.0872 136.522 92.0872C137.389 92.0872 138.248 91.9125 139.047 91.5732C139.85 91.232 140.578 90.7338 141.189 90.1073C141.801 89.4802 142.288 88.7348 142.62 87.914C142.952 87.0933 143.122 86.214 143.122 85.3264V49.8884C143.122 49.0007 142.951 48.1214 142.618 47.2993C142.288 46.4807 141.802 45.7351 141.187 45.1047C140.576 44.478 139.848 43.9798 139.044 43.6388C138.244 43.2996 137.385 43.1253 136.517 43.126H136.518Z" fill="#FFDE00"/>
<path d="M315 156V287C315 294.18 309.18 300 302 300H277" stroke="#9AA3AF" stroke-width="2" stroke-dasharray="5 3"/>
<path d="M120 187L81 187" stroke="#9AA3AF" stroke-width="2" stroke-dasharray="5 3"/>
<rect x="120" y="137" width="168" height="258" rx="24" fill="#00050D"/>
<path fill-rule="evenodd" clip-rule="evenodd" d="M188 145C186.895 145 186 145.895 186 147C186 148.105 186.895 149 188 149C189.105 149 190 148.105 190 147C190 145.895 189.105 145 188 145ZM194 145C192.895 145 192 145.895 192 147C192 148.105 192.895 149 194 149H220C221.105 149 222 148.105 222 147C222 145.895 221.105 145 220 145H194Z" fill="#344053"/>
<path d="M145 141C133.402 141 124 150.402 124 162V378C124 389.598 133.402 399 145 399H263C274.598 399 284 389.598 284 378V162C284 150.402 274.598 141 263 141H253C251.895 141 251 141.895 251 143V143C251 149.627 245.627 155 239 155H169C162.373 155 157 149.627 157 143V143C157 141.895 156.105 141 155 141H145Z" fill="#E0E7F2"/>
<rect x="124" y="278" width="160" height="53" fill="white"/>
<mask id="mask0_4322_36646" style="mask-type:alpha" maskUnits="userSpaceOnUse" x="124" y="141" width="160" height="258">
<path d="M145 141C133.402 141 124 150.402 124 162V378C124 389.598 133.402 399 145 399H263C274.598 399 284 389.598 284 378V162C284 150.402 274.598 141 263 141H253C251.895 141 251 141.895 251 143V143C251 149.627 245.627 155 239 155H169C162.373 155 157 149.627 157 143V143C157 141.895 156.105 141 155 141H145Z" fill="#1D73BE"/>
</mask>
<g mask="url(#mask0_4322_36646)">
<rect x="124" y="141" width="160" height="84" fill="#1D73BE"/>
</g>
<circle cx="157" cy="189" r="20" fill="#1B2432"/>
<path d="M157 189C154.781 189 153 187.219 153 185C153 182.812 154.781 181 157 181C159.188 181 161 182.812 161 185C161 187.219 159.188 189 157 189ZM158.562 190.5C161.562 190.5 164 192.938 164 195.938C164 196.531 163.5 197 162.906 197H151.062C150.469 197 150 196.531 150 195.938C150 192.938 152.406 190.5 155.406 190.5H158.562Z" fill="white"/>
<rect opacity="0.6" x="186" y="177" width="68" height="5" rx="2.5" fill="#1B2432"/>
<rect opacity="0.6" x="186" y="186" width="48" height="5" rx="2.5" fill="#1B2432"/>
<rect opacity="0.6" x="186" y="199" width="29" height="3" rx="1.5" fill="white"/>
<path d="M220.856 246.364V258H218.395V248.699H218.327L215.662 250.369V248.188L218.543 246.364H220.856ZM223.301 258V256.227L227.443 252.392C227.796 252.051 228.091 251.744 228.33 251.472C228.572 251.199 228.756 250.932 228.881 250.67C229.006 250.405 229.068 250.119 229.068 249.812C229.068 249.472 228.991 249.178 228.835 248.932C228.68 248.682 228.468 248.491 228.199 248.358C227.93 248.222 227.625 248.153 227.284 248.153C226.928 248.153 226.618 248.225 226.352 248.369C226.087 248.513 225.883 248.72 225.739 248.989C225.595 249.258 225.523 249.578 225.523 249.949H223.188C223.188 249.187 223.36 248.527 223.705 247.966C224.049 247.405 224.532 246.972 225.154 246.665C225.775 246.358 226.491 246.205 227.301 246.205C228.135 246.205 228.86 246.352 229.477 246.648C230.099 246.939 230.582 247.345 230.926 247.864C231.271 248.383 231.443 248.977 231.443 249.648C231.443 250.087 231.356 250.521 231.182 250.949C231.012 251.377 230.707 251.852 230.267 252.375C229.828 252.894 229.209 253.517 228.409 254.244L226.71 255.909V255.989H231.597V258H223.301ZM237.622 258.256C236.645 258.252 235.804 258.011 235.099 257.534C234.398 257.057 233.859 256.366 233.48 255.46C233.105 254.555 232.919 253.466 232.923 252.193C232.923 250.924 233.111 249.843 233.486 248.949C233.864 248.055 234.404 247.375 235.105 246.909C235.809 246.439 236.648 246.205 237.622 246.205C238.595 246.205 239.433 246.439 240.133 246.909C240.838 247.379 241.38 248.061 241.758 248.955C242.137 249.845 242.325 250.924 242.321 252.193C242.321 253.47 242.131 254.561 241.753 255.466C241.378 256.371 240.84 257.062 240.139 257.54C239.438 258.017 238.599 258.256 237.622 258.256ZM237.622 256.216C238.289 256.216 238.821 255.881 239.219 255.21C239.616 254.54 239.813 253.534 239.809 252.193C239.809 251.311 239.719 250.576 239.537 249.989C239.359 249.402 239.105 248.96 238.775 248.665C238.45 248.369 238.065 248.222 237.622 248.222C236.959 248.222 236.429 248.553 236.031 249.216C235.633 249.879 235.433 250.871 235.429 252.193C235.429 253.087 235.518 253.833 235.696 254.432C235.878 255.027 236.133 255.473 236.463 255.773C236.792 256.068 237.179 256.216 237.622 256.216ZM248.846 245.818L245.096 259.75H243.011L246.761 245.818H248.846ZM254.01 258.159C253.135 258.159 252.357 258.017 251.675 257.733C250.997 257.445 250.465 257.053 250.079 256.557C249.692 256.061 249.499 255.498 249.499 254.869C249.499 254.384 249.609 253.939 249.829 253.534C250.052 253.125 250.355 252.786 250.738 252.517C251.12 252.244 251.548 252.07 252.022 251.994V251.915C251.4 251.79 250.897 251.489 250.51 251.011C250.124 250.53 249.931 249.972 249.931 249.335C249.931 248.733 250.107 248.197 250.459 247.727C250.811 247.254 251.294 246.883 251.908 246.614C252.525 246.341 253.226 246.205 254.01 246.205C254.794 246.205 255.493 246.341 256.107 246.614C256.724 246.886 257.209 247.259 257.561 247.733C257.914 248.203 258.092 248.737 258.096 249.335C258.092 249.975 257.895 250.534 257.505 251.011C257.115 251.489 256.615 251.79 256.005 251.915V251.994C256.471 252.07 256.893 252.244 257.272 252.517C257.654 252.786 257.957 253.125 258.181 253.534C258.408 253.939 258.524 254.384 258.527 254.869C258.524 255.498 258.329 256.061 257.942 256.557C257.556 257.053 257.022 257.445 256.34 257.733C255.662 258.017 254.885 258.159 254.01 258.159ZM254.01 256.352C254.4 256.352 254.741 256.282 255.033 256.142C255.325 255.998 255.552 255.801 255.715 255.551C255.882 255.297 255.965 255.006 255.965 254.676C255.965 254.339 255.88 254.042 255.709 253.784C255.539 253.523 255.308 253.318 255.016 253.17C254.724 253.019 254.389 252.943 254.01 252.943C253.635 252.943 253.3 253.019 253.005 253.17C252.709 253.318 252.476 253.523 252.306 253.784C252.139 254.042 252.056 254.339 252.056 254.676C252.056 255.006 252.137 255.297 252.3 255.551C252.463 255.801 252.692 255.998 252.988 256.142C253.283 256.282 253.624 256.352 254.01 256.352ZM254.01 251.153C254.336 251.153 254.626 251.087 254.88 250.955C255.133 250.822 255.332 250.638 255.476 250.403C255.62 250.169 255.692 249.898 255.692 249.591C255.692 249.288 255.62 249.023 255.476 248.795C255.332 248.564 255.135 248.384 254.885 248.256C254.635 248.123 254.344 248.057 254.01 248.057C253.681 248.057 253.389 248.123 253.135 248.256C252.882 248.384 252.683 248.564 252.539 248.795C252.399 249.023 252.329 249.288 252.329 249.591C252.329 249.898 252.4 250.169 252.544 250.403C252.688 250.638 252.887 250.822 253.141 250.955C253.395 251.087 253.685 251.153 254.01 251.153ZM264.49 258.256C263.513 258.252 262.672 258.011 261.967 257.534C261.267 257.057 260.727 256.366 260.348 255.46C259.973 254.555 259.787 253.466 259.791 252.193C259.791 250.924 259.979 249.843 260.354 248.949C260.732 248.055 261.272 247.375 261.973 246.909C262.678 246.439 263.517 246.205 264.49 246.205C265.464 246.205 266.301 246.439 267.001 246.909C267.706 247.379 268.248 248.061 268.626 248.955C269.005 249.845 269.193 250.924 269.189 252.193C269.189 253.47 269 254.561 268.621 255.466C268.246 256.371 267.708 257.062 267.007 257.54C266.306 258.017 265.467 258.256 264.49 258.256ZM264.49 256.216C265.157 256.216 265.689 255.881 266.087 255.21C266.484 254.54 266.681 253.534 266.678 252.193C266.678 251.311 266.587 250.576 266.405 249.989C266.227 249.402 265.973 248.96 265.643 248.665C265.318 248.369 264.933 248.222 264.49 248.222C263.827 248.222 263.297 248.553 262.899 249.216C262.501 249.879 262.301 250.871 262.297 252.193C262.297 253.087 262.386 253.833 262.564 254.432C262.746 255.027 263.001 255.473 263.331 255.773C263.661 256.068 264.047 256.216 264.49 256.216Z" fill="#636B78"/>
<path d="M250.786 310.159C249.983 310.159 249.267 310.011 248.639 309.716C248.014 309.42 247.517 309.013 247.15 308.494C246.783 307.975 246.591 307.381 246.576 306.71H248.962C248.989 307.161 249.178 307.527 249.531 307.807C249.883 308.087 250.301 308.227 250.786 308.227C251.173 308.227 251.514 308.142 251.809 307.972C252.108 307.797 252.341 307.557 252.508 307.25C252.678 306.939 252.764 306.583 252.764 306.182C252.764 305.773 252.676 305.413 252.502 305.102C252.332 304.792 252.095 304.549 251.792 304.375C251.489 304.201 251.142 304.112 250.752 304.108C250.411 304.108 250.08 304.178 249.758 304.318C249.44 304.458 249.192 304.65 249.014 304.892L246.826 304.5L247.377 298.364H254.491V300.375H249.406L249.104 303.29H249.173C249.377 303.002 249.686 302.763 250.099 302.574C250.512 302.384 250.974 302.29 251.485 302.29C252.186 302.29 252.811 302.455 253.36 302.784C253.909 303.114 254.343 303.566 254.661 304.142C254.979 304.714 255.137 305.373 255.133 306.119C255.137 306.903 254.955 307.6 254.587 308.21C254.224 308.816 253.714 309.294 253.059 309.642C252.408 309.987 251.65 310.159 250.786 310.159ZM257.591 310.148C257.216 310.148 256.894 310.015 256.625 309.75C256.36 309.481 256.228 309.159 256.228 308.784C256.228 308.413 256.36 308.095 256.625 307.83C256.894 307.564 257.216 307.432 257.591 307.432C257.955 307.432 258.273 307.564 258.546 307.83C258.819 308.095 258.955 308.413 258.955 308.784C258.955 309.034 258.891 309.263 258.762 309.472C258.637 309.676 258.472 309.841 258.267 309.966C258.063 310.087 257.838 310.148 257.591 310.148ZM264.591 298.205C265.189 298.205 265.765 298.305 266.318 298.506C266.875 298.706 267.371 299.027 267.807 299.466C268.246 299.905 268.593 300.489 268.847 301.216C269.104 301.939 269.235 302.828 269.239 303.881C269.239 304.869 269.127 305.752 268.903 306.528C268.684 307.301 268.367 307.958 267.955 308.5C267.542 309.042 267.044 309.455 266.46 309.739C265.877 310.019 265.225 310.159 264.506 310.159C263.729 310.159 263.044 310.009 262.449 309.71C261.854 309.407 261.375 308.996 261.011 308.477C260.652 307.955 260.434 307.367 260.358 306.716H262.784C262.879 307.14 263.078 307.47 263.381 307.705C263.684 307.936 264.059 308.051 264.506 308.051C265.263 308.051 265.839 307.722 266.233 307.062C266.627 306.4 266.826 305.492 266.83 304.341H266.75C266.576 304.682 266.341 304.975 266.045 305.222C265.75 305.464 265.411 305.652 265.028 305.784C264.65 305.917 264.246 305.983 263.818 305.983C263.133 305.983 262.521 305.822 261.983 305.5C261.445 305.178 261.021 304.735 260.71 304.17C260.4 303.606 260.244 302.962 260.244 302.239C260.241 301.458 260.42 300.763 260.784 300.153C261.148 299.544 261.655 299.066 262.307 298.722C262.962 298.373 263.723 298.201 264.591 298.205ZM264.608 300.136C264.225 300.136 263.884 300.227 263.585 300.409C263.29 300.591 263.055 300.835 262.881 301.142C262.71 301.449 262.627 301.792 262.631 302.17C262.631 302.553 262.714 302.898 262.881 303.205C263.051 303.508 263.282 303.75 263.574 303.932C263.869 304.11 264.206 304.199 264.585 304.199C264.869 304.199 265.133 304.146 265.375 304.04C265.617 303.934 265.828 303.788 266.006 303.602C266.187 303.413 266.33 303.195 266.432 302.949C266.534 302.703 266.585 302.441 266.585 302.165C266.581 301.797 266.494 301.46 266.324 301.153C266.153 300.847 265.919 300.6 265.619 300.415C265.32 300.229 264.983 300.136 264.608 300.136Z" fill="#636B78"/>
<path d="M242.556 361.159C241.707 361.159 240.951 361.013 240.289 360.722C239.629 360.426 239.109 360.021 238.726 359.506C238.347 358.987 238.152 358.388 238.141 357.71H240.618C240.633 357.994 240.726 358.244 240.896 358.46C241.071 358.672 241.302 358.837 241.59 358.955C241.878 359.072 242.201 359.131 242.561 359.131C242.936 359.131 243.268 359.064 243.556 358.932C243.843 358.799 244.069 358.616 244.232 358.381C244.395 358.146 244.476 357.875 244.476 357.568C244.476 357.258 244.389 356.983 244.215 356.744C244.044 356.502 243.798 356.312 243.476 356.176C243.158 356.04 242.779 355.972 242.34 355.972H241.254V354.165H242.34C242.711 354.165 243.039 354.1 243.323 353.972C243.61 353.843 243.834 353.665 243.993 353.438C244.152 353.206 244.232 352.938 244.232 352.631C244.232 352.339 244.162 352.083 244.021 351.864C243.885 351.64 243.692 351.466 243.442 351.341C243.196 351.216 242.908 351.153 242.578 351.153C242.245 351.153 241.94 351.214 241.664 351.335C241.387 351.453 241.165 351.621 240.999 351.841C240.832 352.061 240.743 352.318 240.732 352.614H238.374C238.385 351.943 238.576 351.352 238.948 350.841C239.319 350.33 239.819 349.93 240.448 349.642C241.08 349.35 241.794 349.205 242.59 349.205C243.393 349.205 244.095 349.35 244.698 349.642C245.3 349.934 245.768 350.328 246.101 350.824C246.438 351.316 246.605 351.869 246.601 352.483C246.605 353.134 246.402 353.678 245.993 354.114C245.588 354.549 245.059 354.826 244.408 354.943V355.034C245.264 355.144 245.915 355.441 246.362 355.926C246.813 356.407 247.037 357.009 247.033 357.733C247.037 358.396 246.845 358.985 246.459 359.5C246.076 360.015 245.548 360.42 244.874 360.716C244.2 361.011 243.427 361.159 242.556 361.159ZM248.942 361L253.765 351.455V351.375H248.146V349.364H256.311V351.403L251.481 361H248.942ZM257.114 361.148C256.739 361.148 256.417 361.015 256.149 360.75C255.883 360.481 255.751 360.159 255.751 359.784C255.751 359.413 255.883 359.095 256.149 358.83C256.417 358.564 256.739 358.432 257.114 358.432C257.478 358.432 257.796 358.564 258.069 358.83C258.342 359.095 258.478 359.413 258.478 359.784C258.478 360.034 258.414 360.263 258.285 360.472C258.16 360.676 257.995 360.841 257.791 360.966C257.586 361.087 257.361 361.148 257.114 361.148ZM261.56 361.148C261.185 361.148 260.863 361.015 260.594 360.75C260.329 360.481 260.196 360.159 260.196 359.784C260.196 359.413 260.329 359.095 260.594 358.83C260.863 358.564 261.185 358.432 261.56 358.432C261.924 358.432 262.242 358.564 262.515 358.83C262.787 359.095 262.924 359.413 262.924 359.784C262.924 360.034 262.859 360.263 262.731 360.472C262.606 360.676 262.441 360.841 262.236 360.966C262.032 361.087 261.806 361.148 261.56 361.148ZM268.178 349.364V361H265.717V351.699H265.649L262.984 353.369V351.188L265.865 349.364H268.178Z" fill="#636B78"/>
<circle cx="152" cy="252" r="15" fill="#B7BDC8"/>
<path d="M151.688 258.903C151.779 258.966 151.888 259 152 259C152.111 259 152.22 258.966 152.311 258.903L152 258.473L152.312 258.903L152.317 258.899L152.332 258.888L152.39 258.848C152.715 258.613 153.035 258.371 153.349 258.122C154.141 257.493 154.898 256.823 155.615 256.113C156.439 255.292 157.277 254.333 157.912 253.315C158.543 252.303 159 251.19 159 250.074C159 248.75 158.58 247.715 157.837 247.012C157.097 246.313 156.099 246.001 155.051 246.001C153.813 246.001 152.719 246.586 152 247.488C151.281 246.585 150.186 246 148.949 246C146.737 246 145 247.854 145 250.074C145 251.189 145.457 252.302 146.088 253.314C146.723 254.332 147.561 255.291 148.385 256.113C149.387 257.104 150.465 258.019 151.61 258.848L151.668 258.888L151.683 258.899L151.688 258.903Z" fill="white"/>
<circle cx="152" cy="304" r="15" fill="#B7BDC8"/>
<circle cx="152" cy="356" r="15" fill="#B7BDC8"/>
<path d="M153.211 297.722C152.677 296.759 151.323 296.759 150.789 297.722L147.674 303.337C147.263 304.079 147 304.937 147 305.873C147 306.623 147.16 307.363 147.469 308.042C147.778 308.721 148.229 309.322 148.789 309.803C149.35 310.284 150.006 310.634 150.713 310.827C151.419 311.02 152.158 311.052 152.878 310.921C154.711 310.6 156.22 309.192 156.769 307.389C157.221 305.907 156.967 304.545 156.37 303.424L156.369 303.42L153.211 297.722Z" fill="white"/>
<path d="M152 365C150.617 365 149.438 364.512 148.463 363.537C147.488 362.562 147.001 361.383 147 360C147 359.2 147.175 358.454 147.525 357.762C147.875 357.07 148.367 356.483 149 356V350C149 349.167 149.292 348.458 149.875 347.875C150.458 347.292 151.167 347 152 347C152.833 347 153.542 347.292 154.125 347.875C154.708 348.458 155 349.167 155 350V356C155.633 356.483 156.125 357.071 156.475 357.763C156.825 358.455 157 359.201 157 360C157 361.383 156.512 362.563 155.537 363.538C154.562 364.513 153.383 365.001 152 365ZM151 354H153V350C153 349.717 152.904 349.479 152.712 349.288C152.52 349.097 152.283 349.001 152 349C151.717 348.999 151.48 349.095 151.288 349.288C151.096 349.481 151 349.718 151 350V354Z" fill="white"/>
<g filter="url(#filter0_d_4322_36646)">
<rect x="245" y="43" width="84" height="112" rx="8" fill="#00050D"/>
<rect x="256" y="54" width="62" height="61" rx="1" fill="#00A19A"/>
<rect x="256.5" y="54.5" width="61" height="60" rx="0.5" stroke="white" stroke-opacity="0.2"/>
<rect x="256" y="117" width="30" height="16" rx="1" fill="#E0E7F2"/>
<rect x="288" y="117" width="30" height="16" rx="1" fill="#E0E7F2"/>
<path d="M267 144C267 139.582 270.582 136 275 136H299C303.418 136 307 139.582 307 144V155H267V144Z" fill="#1B2432"/>
<path d="M279 139H295V188C295 189.105 294.105 190 293 190H281C279.895 190 279 189.105 279 188V139Z" fill="#E0E7F2"/>
<rect x="279" y="139" width="16" height="3" fill="#B5BDCA"/>
<rect x="284" y="179" width="6" height="11" fill="#DB3833"/>
<path d="M265.727 59.4644C265.406 58.8452 264.594 58.8452 264.273 59.4644L262.404 63.0737C262.158 63.5507 262 64.1021 262 64.7043C262 65.186 262.096 65.6618 262.281 66.0983C262.467 66.5348 262.737 66.9213 263.074 67.2306C263.41 67.54 263.804 67.7646 264.228 67.8887C264.651 68.0128 265.095 68.0334 265.527 67.949C266.627 67.7432 267.532 66.8377 267.862 65.6787C268.133 64.7262 267.98 63.8504 267.622 63.1295L267.621 63.1271L265.727 59.4644Z" fill="black"/>
<path d="M263.155 108L266.76 104.28H275.405L278.8 108H263.155ZM279.92 106.484L276.14 102.936V94.4616L279.92 91.0856V106.484ZM266.165 92.3258C265.348 91.6827 264.52 91.0512 263.68 90.4311L266.165 88.6053H275.72L278.17 90.4311L275.72 92.3258H266.165ZM263.12 73H278.765L275.3 76.7205H266.725L263.12 73ZM262 89.8799V74.4813L265.78 77.8228V86.3661L262 89.8799Z" fill="black"/>
<path d="M284.253 102.902H288.663V107.311H284.253V102.902Z" fill="black"/>
<path d="M310 106.484L306.22 102.936V94.4616L310 91.0856V106.484ZM296.245 92.3258C295.428 91.6827 294.6 91.0512 293.76 90.4311L296.245 88.6053H305.8L308.25 90.4311L305.8 92.3258H296.245ZM293.2 73H308.845L305.38 76.7205H296.805L293.2 73ZM292.08 89.8799V74.4813L295.86 77.8228V86.3661L292.08 89.8799ZM309.895 74.4813V89.8799L306.115 86.5384V78.0295L309.895 74.4813Z" fill="black"/>
<path d="M266 125L273 121L273 129L266 125Z" fill="#97A8C2"/>
<path d="M307 125L300 121L300 129L307 125Z" fill="#97A8C2"/>
</g>
<circle cx="286" cy="300" r="6" fill="#FFDE00"/>
<circle cx="286" cy="300" r="8" stroke="#FFDE00" stroke-opacity="0.4" stroke-width="4"/>
<circle cx="124" cy="187" r="6" fill="#FFDE00"/>
<circle cx="124" cy="187" r="8" stroke="#FFDE00" stroke-opacity="0.4" stroke-width="4"/>
</g>
<defs>
<filter id="filter0_d_4322_36646" x="245" y="43" width="84" height="151" filterUnits="userSpaceOnUse" color-interpolation-filters="sRGB">
<feFlood flood-opacity="0" result="BackgroundImageFix"/>
<feColorMatrix in="SourceAlpha" type="matrix" values="0 0 0 0 0 0 0 0 0 0 0 0 0 0 0 0 0 0 127 0" result="hardAlpha"/>
<feOffset dy="4"/>
<feComposite in2="hardAlpha" operator="out"/>
<feColorMatrix type="matrix" values="0 0 0 0 0 0 0 0 0 0 0 0 0 0 0 0 0 0 0.25 0"/>
<feBlend mode="normal" in2="BackgroundImageFix" result="effect1_dropShadow_4322_36646"/>
<feBlend mode="normal" in="SourceGraphic" in2="effect1_dropShadow_4322_36646" result="shape"/>
</filter>
<clipPath id="clip0_4322_36646">
<rect width="360" height="360" rx="8" fill="white"/>
</clipPath>
</defs>
</svg>
