<svg width="360" height="360" viewBox="0 0 360 360" fill="none" xmlns="http://www.w3.org/2000/svg">
<g clip-path="url(#clip0_4288_22555)">
<rect width="360" height="360" rx="8" fill="#E6F4F3"/>
<path d="M136.044 30.0693C136.15 30.0239 136.265 30.0003 136.381 30C138.965 30.0063 141.521 30.5307 143.902 31.5426C146.283 32.5546 148.44 34.0338 150.248 35.8943C153.936 39.6886 156.001 44.7889 156 50.1004C156 50.3395 155.908 50.5692 155.741 50.74C155.66 50.8235 155.563 50.8898 155.456 50.9351C155.349 50.9804 155.234 51.0037 155.118 51.0037C155.002 51.0037 154.887 50.9804 154.78 50.9351C154.673 50.8898 154.576 50.8235 154.494 50.74C154.33 50.57 154.237 50.3401 154.237 50.1018C154.239 45.267 152.36 40.6243 149.002 37.1707C147.357 35.4776 145.393 34.1315 143.227 33.2107C141.06 32.2899 138.733 31.8128 136.381 31.8073C136.147 31.8073 135.923 31.7111 135.759 31.5425C135.593 31.3721 135.5 31.1427 135.5 30.9036C135.5 30.6646 135.593 30.4352 135.759 30.2648C135.84 30.1812 135.937 30.1148 136.044 30.0693Z" fill="#1D73BE"/>
<path d="M136.381 33.8389C136.265 33.8393 136.15 33.8628 136.044 33.9083C135.937 33.9537 135.84 34.0202 135.759 34.1037C135.593 34.2741 135.5 34.5036 135.5 34.7426C135.5 34.9816 135.593 35.211 135.759 35.3815C135.923 35.5515 136.147 35.6462 136.381 35.6462C138.239 35.6512 140.077 36.0285 141.789 36.7562C143.501 37.4839 145.052 38.5475 146.352 39.8851C149.004 42.6135 150.489 46.281 150.489 50.1004C150.489 50.3401 150.583 50.57 150.747 50.74C150.829 50.8235 150.926 50.8898 151.033 50.9351C151.14 50.9804 151.255 51.0037 151.371 51.0037C151.487 51.0037 151.602 50.9804 151.709 50.9351C151.816 50.8898 151.913 50.8235 151.994 50.74C152.161 50.5693 152.253 50.3395 152.253 50.1004C152.253 45.8036 150.581 41.6779 147.597 38.6087C146.135 37.104 144.39 35.9074 142.465 35.0885C140.539 34.2697 138.471 33.8449 136.381 33.8389Z" fill="#1D73BE"/>
<path d="M136.381 37.6793C136.265 37.6796 136.15 37.7031 136.044 37.7486C135.937 37.7941 135.84 37.8605 135.759 37.944C135.593 38.1144 135.5 38.3439 135.5 38.5829C135.5 38.8219 135.593 39.0514 135.759 39.2218C135.923 39.3904 136.147 39.4865 136.381 39.4865C137.746 39.4888 139.097 39.7649 140.355 40.2986C141.613 40.8323 142.754 41.6131 143.709 42.5953C145.66 44.5995 146.752 47.2947 146.751 50.1018C146.751 50.3415 146.843 50.57 147.008 50.74C147.09 50.8235 147.187 50.8898 147.294 50.9351C147.401 50.9804 147.516 51.0037 147.632 51.0037C147.748 51.0037 147.863 50.9804 147.97 50.9351C148.077 50.8898 148.174 50.8235 148.256 50.74C148.421 50.5696 148.514 50.3404 148.514 50.1018C148.515 46.8177 147.238 43.6642 144.957 41.3189C143.838 40.1687 142.504 39.2543 141.031 38.6292C139.559 38.004 137.978 37.6807 136.38 37.6779L136.381 37.6793Z" fill="#1D73BE"/>
<path d="M77.0391 43.1262H36.7671C35.8861 43.1034 35.0097 43.2613 34.1912 43.5902C33.3689 43.9209 32.6212 44.4152 31.9927 45.0436C31.3604 45.6763 30.8594 46.4294 30.5187 47.2591C30.1763 48.0918 30 48.9844 30 49.8858C30 50.7872 30.1763 51.6797 30.5187 52.5124C30.8588 53.3425 31.3599 54.0957 31.9927 54.728C32.6211 55.3565 33.3688 55.8508 34.1912 56.1813C35.0111 56.5116 35.8877 56.6691 36.7671 56.6468H50.3077V85.3127C50.3077 86.2003 50.4778 87.0809 50.8096 87.9003C51.1415 88.7224 51.6268 89.4665 52.2407 90.095C52.8532 90.722 53.5819 91.2209 54.3811 91.5609C55.1807 91.9003 56.0396 92.0752 56.9073 92.0752C57.7749 92.0752 58.6338 91.9003 59.4334 91.5609C60.2365 91.2197 60.9644 90.7214 61.5752 90.095C62.8134 88.8157 63.507 87.0997 63.5082 85.3127V56.6468H77.0391C77.9202 56.6691 78.7966 56.5108 79.6151 56.1813C80.4373 55.8506 81.185 55.3563 81.8135 54.728C82.4458 54.0953 82.9469 53.3422 83.2875 52.5124C83.6299 51.6797 83.8061 50.7872 83.8061 49.8858C83.8061 48.9844 83.6299 48.0918 83.2875 47.2591C82.9468 46.4294 82.4458 45.6763 81.8135 45.0436C81.185 44.4152 80.4373 43.9209 79.6151 43.5902C78.7965 43.2613 77.9201 43.1034 77.0391 43.1262Z" fill="#1D73BE"/>
<path d="M107.534 44.6411C106.356 43.6565 104.871 43.1199 103.341 43.125C101.809 43.1326 100.329 43.6814 99.1579 44.6759L83.2197 58.1923L69.7648 46.8999C69.1007 46.3351 68.3315 45.9096 67.5022 45.6483C66.6728 45.3871 65.8001 45.2952 64.9351 45.3782C64.0687 45.4639 63.2278 45.7222 62.4614 46.1382C61.6949 46.5542 61.0182 47.1195 60.4704 47.8014C59.3522 49.1916 58.8191 50.9679 58.9854 52.7495C59.1467 54.5282 59.996 56.1715 61.3498 57.3242L78.26 71.5234C79.6499 72.6982 81.4056 73.3429 83.2197 73.3446C85.0338 73.3429 86.7895 72.6982 88.1794 71.5234L96.7631 64.2733V85.122C96.7631 88.7268 99.4178 91.8718 102.927 92.1018C103.829 92.1628 104.733 92.0337 105.582 91.7227C106.435 91.4105 107.215 90.9238 107.873 90.2931C108.534 89.658 109.06 88.8937 109.417 88.0468C109.777 87.1968 109.964 86.2827 109.964 85.3575V50.0309C109.976 49.005 109.765 47.9889 109.344 47.0545C108.926 46.1243 108.308 45.2995 107.534 44.6397V44.6411Z" fill="#00A19A"/>
<path d="M40.4726 103.365H30.5698C30.5183 103.364 30.4671 103.374 30.4193 103.393C30.3716 103.413 30.3282 103.442 30.2919 103.479C30.2549 103.516 30.2256 103.561 30.2057 103.609C30.1857 103.658 30.1756 103.71 30.1758 103.763C30.1758 103.871 30.2173 103.972 30.2919 104.049C30.3282 104.086 30.3714 104.116 30.4191 104.136C30.4668 104.157 30.5181 104.167 30.5698 104.167H35.0774V114.261C35.0769 114.318 35.0875 114.374 35.1087 114.427C35.1298 114.48 35.161 114.528 35.2005 114.568C35.2395 114.608 35.2861 114.641 35.3376 114.663C35.3892 114.685 35.4445 114.696 35.5005 114.696C35.6155 114.696 35.726 114.651 35.8088 114.571C35.8932 114.489 35.9436 114.379 35.9499 114.261V104.167H40.4712C40.5777 104.167 40.6773 104.126 40.7519 104.049C40.826 103.973 40.8675 103.87 40.8675 103.764C40.8675 103.657 40.826 103.555 40.7519 103.479C40.7154 103.442 40.6719 103.412 40.6239 103.393C40.5759 103.373 40.5245 103.363 40.4726 103.363V103.365ZM47.5561 110.088C47.5573 110.013 47.5362 109.938 47.4953 109.875C47.4544 109.812 47.3956 109.762 47.3266 109.733C47.2811 109.714 47.2321 109.704 47.1828 109.705H42.9435V106.843H49.5997C49.649 106.843 49.6978 106.834 49.7432 106.815C49.7887 106.795 49.8297 106.767 49.8638 106.731C49.899 106.696 49.9267 106.654 49.9455 106.607C49.9643 106.561 49.9736 106.511 49.973 106.461C49.973 106.386 49.9511 106.312 49.9101 106.249C49.869 106.186 49.8107 106.137 49.7421 106.107C49.697 106.088 49.6486 106.079 49.5997 106.079H42.5204C42.4645 106.079 42.4092 106.09 42.3577 106.112C42.3062 106.134 42.2595 106.166 42.2203 106.206C42.1406 106.288 42.0959 106.398 42.0959 106.512V114.261C42.0956 114.318 42.1064 114.375 42.1278 114.427C42.1492 114.48 42.1806 114.528 42.2203 114.568C42.2594 114.608 42.306 114.641 42.3575 114.663C42.409 114.685 42.4644 114.696 42.5204 114.696H49.9896C50.0642 114.697 50.1373 114.675 50.1991 114.633C50.2609 114.591 50.3085 114.531 50.3353 114.461C50.3731 114.367 50.3726 114.262 50.3339 114.168C50.2961 114.076 50.2235 114.002 50.132 113.963C50.0869 113.944 50.0385 113.935 49.9896 113.935H42.9379V110.462H47.1773C47.2754 110.462 47.3708 110.424 47.44 110.354C47.5112 110.284 47.5538 110.188 47.5561 110.088ZM52.9182 106.496V114.261C52.9179 114.318 52.9287 114.375 52.9501 114.427C52.9714 114.48 53.0029 114.528 53.0426 114.568C53.0816 114.608 53.1283 114.641 53.1798 114.663C53.2313 114.685 53.2867 114.696 53.3426 114.696H60.0874C60.1366 114.697 60.1854 114.687 60.2308 114.668C60.2762 114.649 60.3173 114.62 60.3515 114.585C60.3862 114.549 60.4137 114.507 60.4322 114.46C60.4507 114.414 60.4599 114.364 60.4593 114.314C60.4592 114.24 60.4374 114.167 60.3966 114.104C60.3558 114.042 60.2978 113.993 60.2298 113.963C60.1846 113.944 60.1362 113.935 60.0874 113.935H53.7699V106.494C53.7697 106.38 53.7251 106.27 53.6454 106.188C53.6063 106.147 53.5595 106.115 53.5079 106.093C53.4562 106.071 53.4008 106.06 53.3447 106.06C53.2887 106.06 53.2332 106.071 53.1816 106.093C53.1299 106.115 53.0831 106.147 53.044 106.188C52.964 106.269 52.9193 106.38 52.9195 106.494L52.9182 106.496ZM68.0779 110.088C68.0789 109.987 68.0401 109.889 67.97 109.816C67.9355 109.781 67.8942 109.752 67.8486 109.733C67.803 109.714 67.754 109.704 67.7046 109.705H63.4653V106.843H70.1201C70.1696 106.844 70.2187 106.834 70.2644 106.815C70.3101 106.796 70.3513 106.767 70.3856 106.731C70.4205 106.696 70.448 106.653 70.4665 106.607C70.4851 106.561 70.4942 106.511 70.4934 106.461C70.4935 106.36 70.4543 106.263 70.3842 106.191C70.3499 106.155 70.309 106.128 70.2639 106.108C70.2188 106.089 70.1704 106.079 70.1215 106.079H63.0422C62.9863 106.079 62.931 106.09 62.8795 106.112C62.828 106.134 62.7813 106.166 62.7421 106.206C62.6624 106.288 62.6177 106.398 62.6177 106.512V114.261C62.6174 114.318 62.6282 114.375 62.6496 114.427C62.6709 114.48 62.7024 114.528 62.7421 114.568C62.781 114.608 62.8274 114.64 62.8787 114.662C62.9299 114.684 62.985 114.696 63.0408 114.696H70.51C70.6096 114.696 70.7036 114.654 70.7741 114.585C70.8447 114.513 70.8845 114.416 70.8847 114.314C70.8839 114.214 70.8442 114.118 70.7741 114.047C70.7398 114.012 70.6989 113.984 70.6538 113.965C70.6087 113.945 70.5603 113.936 70.5114 113.935H63.4597V110.462H67.7004C67.7986 110.462 67.893 110.423 67.9631 110.354C68.0344 110.284 68.0756 110.188 68.0779 110.088ZM85.1236 114.261V103.958C85.1232 103.801 85.0616 103.651 84.9522 103.539C84.8917 103.477 84.8182 103.43 84.7372 103.4C84.6562 103.371 84.5697 103.36 84.4841 103.369C84.3984 103.378 84.3157 103.405 84.2422 103.451C84.1686 103.496 84.106 103.557 84.0589 103.629L79.3495 110.887L74.6857 103.629C74.6331 103.548 74.5613 103.482 74.4769 103.436C74.3924 103.389 74.2979 103.365 74.2018 103.365C74.0864 103.364 73.9736 103.399 73.8781 103.465C73.7826 103.53 73.709 103.623 73.6667 103.731C73.6376 103.803 73.6226 103.88 73.6225 103.958V114.261C73.6222 114.318 73.633 114.375 73.6544 114.427C73.6757 114.48 73.7072 114.528 73.7469 114.568C73.786 114.608 73.8326 114.64 73.884 114.661C73.9354 114.683 73.9905 114.694 74.0462 114.694C74.102 114.694 74.1571 114.683 74.2085 114.661C74.2599 114.64 74.3065 114.608 74.3456 114.568C74.4253 114.486 74.47 114.376 74.47 114.261V104.758L78.8448 111.442C78.902 111.528 78.9791 111.599 79.0694 111.648C79.1598 111.698 79.2606 111.724 79.3634 111.725C79.4665 111.726 79.5681 111.7 79.6589 111.65C79.7497 111.601 79.8268 111.53 79.8832 111.442L84.258 104.758V114.261C84.2578 114.318 84.2686 114.375 84.29 114.427C84.3113 114.48 84.3428 114.528 84.3825 114.568C84.4214 114.608 84.4678 114.64 84.519 114.662C84.5703 114.684 84.6254 114.696 84.6811 114.696C84.7385 114.699 84.7957 114.689 84.8492 114.668C84.9028 114.647 84.9515 114.616 84.9923 114.575C85.0338 114.534 85.0668 114.485 85.0891 114.432C85.1115 114.378 85.1227 114.32 85.1222 114.261H85.1236ZM94.3378 110.088C94.3388 109.987 94.3 109.889 94.23 109.816C94.1956 109.781 94.1545 109.753 94.1091 109.734C94.0638 109.714 94.015 109.705 93.9659 109.705H89.7266V106.843H96.3856C96.435 106.844 96.4842 106.834 96.5298 106.815C96.5755 106.796 96.6168 106.767 96.651 106.731C96.6858 106.696 96.7133 106.653 96.7318 106.607C96.7503 106.561 96.7595 106.511 96.7589 106.461C96.759 106.36 96.7198 106.263 96.6497 106.191C96.6153 106.155 96.5744 106.128 96.5294 106.108C96.4843 106.089 96.4359 106.079 96.3869 106.079H89.3076C89.2515 106.079 89.1959 106.09 89.1442 106.112C89.0924 106.134 89.0455 106.166 89.0062 106.206C88.9264 106.288 88.8818 106.398 88.8817 106.512V114.261C88.8817 114.377 88.9274 114.487 89.0062 114.568C89.0452 114.608 89.0919 114.641 89.1434 114.663C89.1949 114.685 89.2503 114.696 89.3062 114.696H96.7727C96.8473 114.697 96.9204 114.675 96.9822 114.633C97.044 114.591 97.0916 114.531 97.1184 114.461C97.1366 114.414 97.1456 114.364 97.1447 114.314C97.1448 114.239 97.1229 114.166 97.0818 114.104C97.0408 114.041 96.9823 113.992 96.9137 113.963C96.8686 113.944 96.8202 113.935 96.7713 113.935H89.7224V110.462H93.9617C94.0599 110.462 94.1543 110.423 94.2244 110.354C94.2952 110.284 94.3359 110.188 94.3378 110.088ZM108.065 110.418C108.065 107.813 106.204 106.074 103.44 106.074H100.159C100.103 106.074 100.048 106.085 99.9961 106.107C99.9445 106.129 99.8979 106.161 99.8589 106.202C99.7793 106.284 99.7346 106.394 99.7344 106.508V114.261C99.7344 114.377 99.7801 114.487 99.8589 114.568C99.8979 114.608 99.9445 114.641 99.9961 114.663C100.048 114.685 100.103 114.696 100.159 114.696H103.44C106.292 114.696 108.065 113.066 108.065 110.418ZM100.574 106.822H103.461C105.644 106.822 107.17 108.289 107.17 110.396C107.17 112.589 105.75 113.953 103.461 113.953H100.574V106.822ZM120.277 114.261V103.838C120.276 103.717 120.229 103.601 120.144 103.515C120.103 103.473 120.054 103.439 119.999 103.416C119.945 103.393 119.886 103.381 119.828 103.381C119.768 103.378 119.709 103.388 119.654 103.409C119.598 103.431 119.548 103.464 119.507 103.507C119.464 103.55 119.431 103.602 119.41 103.659C119.388 103.716 119.379 103.776 119.382 103.837V108.09H111.991V103.837C111.99 103.716 111.942 103.6 111.858 103.514C111.816 103.472 111.767 103.438 111.712 103.416C111.657 103.393 111.599 103.381 111.54 103.381C111.481 103.378 111.421 103.388 111.366 103.409C111.311 103.431 111.261 103.464 111.219 103.507C111.176 103.55 111.143 103.602 111.122 103.659C111.101 103.716 111.091 103.776 111.095 103.837V114.261C111.095 114.35 111.121 114.436 111.17 114.509C111.22 114.581 111.29 114.638 111.371 114.67C111.426 114.691 111.483 114.699 111.541 114.696C111.657 114.697 111.768 114.652 111.851 114.571C111.934 114.489 111.984 114.379 111.989 114.261V108.876H119.404V114.261C119.405 114.35 119.431 114.436 119.48 114.509C119.53 114.581 119.6 114.638 119.681 114.67C119.76 114.698 119.846 114.703 119.928 114.684C120.011 114.666 120.086 114.624 120.146 114.564C120.225 114.483 120.271 114.375 120.277 114.261ZM127.582 115C130.596 115 131.774 114.183 131.774 112.077V106.517C131.774 106.402 131.729 106.292 131.65 106.21C131.61 106.17 131.564 106.138 131.512 106.116C131.461 106.094 131.405 106.083 131.349 106.083C131.294 106.083 131.238 106.094 131.187 106.116C131.135 106.138 131.089 106.17 131.049 106.21C130.97 106.292 130.925 106.402 130.925 106.517V111.703C130.925 113.875 129.853 114.239 127.607 114.239C125.36 114.239 124.288 113.863 124.288 111.703V106.518C124.288 106.403 124.243 106.293 124.164 106.212C124.125 106.171 124.078 106.139 124.026 106.118C123.975 106.096 123.919 106.085 123.864 106.085C123.808 106.085 123.752 106.096 123.701 106.118C123.649 106.139 123.603 106.171 123.564 106.212C123.484 106.293 123.439 106.403 123.439 106.518V112.09C123.435 113.827 124.139 115 127.582 115ZM139.968 106.082H135.148C135.092 106.082 135.036 106.094 134.985 106.116C134.933 106.138 134.887 106.17 134.848 106.21C134.768 106.292 134.723 106.402 134.723 106.517V114.261C134.723 114.377 134.769 114.487 134.848 114.568C134.887 114.608 134.933 114.641 134.985 114.663C135.036 114.685 135.092 114.696 135.148 114.696H140.236C142.061 114.696 143.109 113.793 143.109 112.216C143.109 111.752 142.979 111.298 142.736 110.906C142.494 110.516 142.147 110.204 141.735 110.006L141.337 109.77L141.727 109.522C141.97 109.369 142.166 109.152 142.295 108.895C142.425 108.637 142.481 108.348 142.459 108.061C142.469 107.22 142.21 106.082 139.968 106.082ZM142.227 112.164C142.227 113.297 141.545 113.976 140.401 113.976H135.568V110.353H140.392C141.54 110.353 142.223 111.026 142.223 112.142L142.227 112.164ZM139.946 109.596H135.562V106.865H139.921C141.29 106.865 141.574 107.608 141.574 108.229C141.574 108.849 141.291 109.575 139.943 109.575L139.947 109.598L139.946 109.596Z" fill="#1D73BE"/>
<path d="M136.518 43.126C134.766 43.126 133.089 43.838 131.85 45.1061C130.609 46.3833 129.915 48.1006 129.917 49.8884V59.6606H105.632C103.881 59.6606 102.203 60.3726 100.964 61.642C99.7228 62.9189 99.0287 64.6356 99.0308 66.4229C99.0308 68.2177 99.7263 69.9372 100.964 71.2052C101.572 71.8312 102.299 72.3287 103.1 72.6687C103.901 73.0087 104.762 73.1843 105.632 73.1853H129.921V85.3264C129.921 86.214 130.093 87.0933 130.423 87.914C130.754 88.7322 131.24 89.4773 131.854 90.1073C132.467 90.7357 133.195 91.2332 133.996 91.5732C134.795 91.9125 135.654 92.0872 136.522 92.0872C137.389 92.0872 138.248 91.9125 139.047 91.5732C139.85 91.232 140.578 90.7338 141.189 90.1073C141.801 89.4802 142.288 88.7347 142.62 87.914C142.952 87.0933 143.122 86.214 143.122 85.3264V49.8884C143.122 49.0007 142.951 48.1214 142.618 47.2993C142.288 46.4807 141.802 45.7351 141.187 45.1047C140.576 44.478 139.848 43.9798 139.044 43.6388C138.244 43.2996 137.385 43.1253 136.517 43.126H136.518Z" fill="#FFDE00"/>
<path d="M55 158C55 147.507 63.5066 139 74 139H258C268.493 139 277 147.507 277 158V387H55V158Z" fill="#C9E5E3" stroke="white" stroke-width="10"/>
<path d="M131 144H202V146C202 152.627 196.627 158 190 158H143C136.373 158 131 152.627 131 146V144Z" fill="white"/>
<path d="M80 235C80 228.373 85.3726 223 92 223H240C246.627 223 252 228.373 252 235V286C252 292.627 246.627 298 240 298H92C85.3726 298 80 292.627 80 286V235Z" fill="white" fill-opacity="0.6"/>
<path d="M80.5 235C80.5 228.649 85.6487 223.5 92 223.5H240C246.351 223.5 251.5 228.649 251.5 235V286C251.5 292.351 246.351 297.5 240 297.5H92C85.6487 297.5 80.5 292.351 80.5 286V235Z" stroke="white" stroke-opacity="0.8"/>
<path d="M80 318C80 311.373 85.3726 306 92 306H240C246.627 306 252 311.373 252 318V369C252 375.627 246.627 381 240 381H92C85.3726 381 80 375.627 80 369V318Z" fill="white" fill-opacity="0.6"/>
<path d="M80.5 318C80.5 311.649 85.6487 306.5 92 306.5H240C246.351 306.5 251.5 311.649 251.5 318V369C251.5 375.351 246.351 380.5 240 380.5H92C85.6487 380.5 80.5 375.351 80.5 369V318Z" stroke="white" stroke-opacity="0.8"/>
<circle cx="102" cy="186" r="22" fill="white"/>
<rect opacity="0.6" x="133" y="176" width="84" height="8" rx="4" fill="white"/>
<rect x="133" y="241" width="84" height="8" rx="4" fill="white"/>
<rect x="133" y="324" width="84" height="8" rx="4" fill="white"/>
<rect x="133" y="253" width="34" height="8" rx="4" fill="white"/>
<rect x="133" y="336" width="34" height="8" rx="4" fill="white"/>
<rect opacity="0.6" x="91" y="283" width="35" height="4" rx="2" fill="white"/>
<rect opacity="0.6" x="133" y="283" width="54" height="4" rx="2" fill="white"/>
<rect opacity="0.6" x="194" y="283" width="23" height="4" rx="2" fill="white"/>
<rect opacity="0.6" x="133" y="188" width="49" height="8" rx="4" fill="white"/>
<path d="M101.5 185C98.1719 185 95.5 182.328 95.5 179C95.5 175.719 98.1719 173 101.5 173C104.781 173 107.5 175.719 107.5 179C107.5 182.328 104.781 185 101.5 185ZM103.844 187.25C108.344 187.25 112 190.906 112 195.406C112 196.297 111.25 197 110.359 197H92.5938C91.7031 197 91 196.297 91 195.406C91 190.906 94.6094 187.25 99.1094 187.25H103.844Z" fill="#00A19A"/>
<rect x="90" y="233" width="36" height="36" rx="18" fill="white"/>
<path d="M99.6667 248.5V246C99.6667 245.541 99.8299 245.149 100.156 244.823C100.483 244.496 100.875 244.333 101.333 244.333H114.667C115.125 244.333 115.517 244.496 115.844 244.823C116.17 245.149 116.333 245.541 116.333 246V250.583H114.667V246H101.333V248.5H99.6667ZM103.833 255.166C103.681 255.166 103.535 255.128 103.396 255.052C103.257 254.975 103.153 254.861 103.083 254.708L101.646 251.833H99.6667V250.166H102.167C102.32 250.166 102.465 250.205 102.604 250.281C102.743 250.357 102.847 250.472 102.917 250.625L103.833 252.458L106.417 247.291C106.486 247.152 106.59 247.048 106.729 246.979C106.868 246.909 107.014 246.875 107.167 246.875C107.32 246.875 107.465 246.909 107.604 246.979C107.743 247.048 107.847 247.152 107.917 247.291L109.313 250.083C109.063 250.236 108.823 250.396 108.594 250.562C108.365 250.729 108.153 250.916 107.958 251.125L107.167 249.541L104.583 254.708C104.514 254.861 104.41 254.975 104.271 255.052C104.132 255.128 103.986 255.166 103.833 255.166ZM106.896 257.666H101.333C100.875 257.666 100.483 257.503 100.156 257.177C99.8299 256.85 99.6667 256.458 99.6667 256V253.5H101.333V256H106.396C106.438 256.291 106.5 256.576 106.583 256.854C106.667 257.132 106.771 257.402 106.896 257.666ZM112.167 259.333C111.014 259.333 110.031 258.927 109.219 258.114C108.406 257.302 108 256.319 108 255.166C108 254.014 108.406 253.031 109.219 252.218C110.031 251.406 111.014 251 112.167 251C113.32 251 114.302 251.406 115.115 252.218C115.927 253.031 116.333 254.014 116.333 255.166C116.333 256.319 115.927 257.302 115.115 258.114C114.302 258.927 113.32 259.333 112.167 259.333ZM112.333 255.583L114.229 253.687L113.646 253.104L111.75 255L112.333 255.583Z" fill="#00A19A"/>
<rect x="256" y="120" width="48" height="48" rx="24" fill="#D13535"/>
<path d="M281.475 154.001C281.008 154.001 280.57 153.901 280.162 153.701C279.754 153.501 279.408 153.217 279.125 152.851L273.675 145.926L274.15 145.426C274.483 145.076 274.883 144.867 275.35 144.801C275.816 144.734 276.25 144.826 276.65 145.076L278.5 146.201V136.001C278.5 135.717 278.595 135.48 278.787 135.288C278.979 135.096 279.216 135.001 279.5 135.001C279.783 135.001 280.025 135.096 280.225 135.288C280.425 135.48 280.525 135.717 280.525 136.001V149.801L278.1 148.301L280.7 151.626C280.8 151.759 280.916 151.855 281.05 151.913C281.183 151.971 281.325 152.001 281.475 152.001H287C287.55 152.001 288.02 151.805 288.412 151.413C288.804 151.021 289 150.551 289 150.001V143.001C289 142.717 289.095 142.48 289.287 142.288C289.479 142.096 289.716 142.001 290 142.001C290.283 142.001 290.52 142.096 290.712 142.288C290.904 142.48 291 142.717 291 143.001V150.001C291 151.101 290.608 152.042 289.825 152.826C289.041 153.609 288.1 154.001 287 154.001H281.475ZM282 145.001V140.001C282 139.717 282.095 139.48 282.287 139.288C282.479 139.096 282.716 139.001 283 139.001C283.283 139.001 283.52 139.096 283.712 139.288C283.904 139.48 284 139.717 284 140.001V145.001H282ZM285.5 145.001V141.001C285.5 140.717 285.595 140.48 285.787 140.288C285.979 140.096 286.216 140.001 286.5 140.001C286.783 140.001 287.02 140.096 287.212 140.288C287.404 140.48 287.5 140.717 287.5 141.001V145.001H285.5ZM272.5 142.001C271.533 142.001 270.708 141.667 270.025 141.001C269.341 140.334 269 139.517 269 138.551C269 137.851 269.208 137.221 269.625 136.663C270.041 136.105 270.475 135.559 270.925 135.026L272.5 133.226L274.075 135.051C274.525 135.584 274.958 136.126 275.375 136.676C275.791 137.226 276 137.851 276 138.551C276 139.517 275.658 140.334 274.975 141.001C274.291 141.667 273.466 142.001 272.5 142.001ZM272.5 140.001C272.916 140.001 273.27 139.859 273.562 139.576C273.854 139.292 274 138.951 274 138.551C274 138.101 273.845 137.713 273.537 137.388C273.229 137.063 272.925 136.734 272.625 136.401L272.5 136.276L272.375 136.401C272.075 136.734 271.77 137.063 271.462 137.388C271.154 137.713 271 138.101 271 138.551C271 138.951 271.145 139.292 271.437 139.576C271.729 139.859 272.083 140.001 272.5 140.001Z" fill="white"/>
<rect x="209" y="61" width="36" height="36" rx="18" fill="#D38600"/>
<path d="M223.25 71.5C223.972 71.5 224.66 71.6528 225.312 71.9583C225.965 72.2639 226.528 72.6944 227 73.25C227.472 72.6944 228.035 72.2639 228.687 71.9583C229.34 71.6528 230.028 71.5 230.75 71.5C232.055 71.5 233.146 71.9375 234.021 72.8125C234.896 73.6875 235.333 74.7778 235.333 76.0833C235.333 76.1528 235.33 76.2222 235.323 76.2917C235.316 76.3611 235.312 76.4306 235.312 76.5H233.646C233.66 76.4306 233.667 76.3611 233.667 76.2917V76.0833C233.667 75.25 233.389 74.5556 232.833 74C232.278 73.4444 231.583 73.1667 230.75 73.1667C230.097 73.1667 229.493 73.3507 228.937 73.7188C228.382 74.0868 228 74.5556 227.792 75.125H226.208C226 74.5556 225.618 74.0868 225.062 73.7188C224.507 73.3507 223.903 73.1667 223.25 73.1667C222.417 73.1667 221.722 73.4444 221.167 74C220.611 74.5556 220.333 75.25 220.333 76.0833V76.2917C220.333 76.3611 220.34 76.4306 220.354 76.5H218.687C218.687 76.4306 218.684 76.3611 218.677 76.2917C218.67 76.2222 218.667 76.1528 218.667 76.0833C218.667 74.7778 219.104 73.6875 219.979 72.8125C220.854 71.9375 221.944 71.5 223.25 71.5ZM221.417 81.5H223.75C224.194 81.9306 224.68 82.3958 225.208 82.8958C225.736 83.3958 226.333 83.9444 227 84.5417C227.667 83.9444 228.264 83.3958 228.792 82.8958C229.319 82.3958 229.805 81.9306 230.25 81.5H232.604C232.076 82.0833 231.451 82.7153 230.729 83.3958C230.007 84.0764 229.167 84.8472 228.208 85.7083L227 86.7917L225.792 85.7083C224.833 84.8472 223.996 84.0764 223.281 83.3958C222.566 82.7153 221.944 82.0833 221.417 81.5ZM226.208 82.3333C226.389 82.3333 226.545 82.2812 226.677 82.1771C226.809 82.0729 226.903 81.9375 226.958 81.7708L228.083 78.375L228.812 79.4583C228.882 79.5694 228.979 79.6597 229.104 79.7292C229.229 79.7986 229.361 79.8333 229.5 79.8333H236.167V78.1667H229.979L228.542 76.0417C228.458 75.9167 228.351 75.8229 228.219 75.7604C228.087 75.6979 227.944 75.6667 227.792 75.6667C227.611 75.6667 227.455 75.7188 227.323 75.8229C227.191 75.9271 227.097 76.0625 227.042 76.2292L225.917 79.6042L225.208 78.5417C225.139 78.4306 225.042 78.3403 224.917 78.2708C224.792 78.2014 224.66 78.1667 224.521 78.1667H217.833V79.8333H224.021L225.458 81.9583C225.542 82.0833 225.649 82.1771 225.781 82.2396C225.913 82.3021 226.055 82.3333 226.208 82.3333Z" fill="white"/>
<rect x="292" y="37" width="32" height="32" rx="16" fill="#1AB132"/>
<path d="M308 58.333C307.811 58.333 307.653 58.2691 307.525 58.1413C307.397 58.0136 307.333 57.8552 307.333 57.6663V54.9997C307.333 54.8108 307.397 54.6525 307.525 54.5247C307.653 54.3969 307.811 54.333 308 54.333H309.667C309.855 54.333 310.014 54.3969 310.142 54.5247C310.269 54.6525 310.333 54.8108 310.333 54.9997V57.6663C310.333 57.8552 310.269 58.0136 310.142 58.1413C310.014 58.2691 309.855 58.333 309.667 58.333H308ZM308.333 57.333H309.333V55.333H308.333V57.333ZM311.333 59.6663V57.833C311.333 57.6441 311.397 57.4858 311.525 57.358C311.653 57.2302 311.811 57.1663 312 57.1663H313.333V56.6663H311.333V55.6663H313.667C313.855 55.6663 314.014 55.7302 314.142 55.858C314.269 55.9858 314.333 56.1441 314.333 56.333V57.4997C314.333 57.6886 314.269 57.8469 314.142 57.9747C314.014 58.1025 313.855 58.1663 313.667 58.1663H312.333V58.6663H314.333V59.6663H311.333ZM306 59.633C304.633 59.4775 303.514 58.8913 302.642 57.8747C301.769 56.858 301.333 55.633 301.333 54.1997C301.333 53.0886 301.775 51.8802 302.658 50.5747C303.542 49.2691 304.878 47.8552 306.667 46.333C308.133 47.5775 309.297 48.7552 310.158 49.8663C311.019 50.9775 311.578 52.0219 311.833 52.9997H310.45C310.205 52.2997 309.767 51.5386 309.133 50.7163C308.5 49.8941 307.678 49.0219 306.667 48.0997C305.344 49.3108 304.347 50.4275 303.675 51.4497C303.003 52.4719 302.667 53.3886 302.667 54.1997C302.667 55.2663 302.975 56.1747 303.592 56.9247C304.208 57.6747 305.011 58.1275 306 58.283V59.633Z" fill="white"/>
<rect x="30" y="275" width="36" height="36" rx="18" fill="#BA4CAD"/>
<path d="M47.9999 301.334C46.8471 301.334 45.8645 300.927 45.052 300.115C44.2395 299.302 43.8333 298.32 43.8333 297.167C43.8333 296.5 43.9791 295.879 44.2708 295.302C44.5624 294.726 44.9721 294.236 45.4999 293.834V287.167C45.4999 286.473 45.743 285.882 46.2291 285.396C46.7152 284.91 47.3055 284.667 47.9999 284.667C48.6944 284.667 49.2846 284.91 49.7708 285.396C50.2569 285.882 50.4999 286.473 50.4999 287.167V293.834C51.0277 294.236 51.4374 294.726 51.7291 295.302C52.0208 295.879 52.1666 296.5 52.1666 297.167C52.1666 298.32 51.7603 299.302 50.9478 300.115C50.1353 300.927 49.1527 301.334 47.9999 301.334ZM47.1666 292.167H48.8333V287.167C48.8333 286.931 48.7534 286.733 48.5937 286.573C48.4339 286.414 48.236 286.334 47.9999 286.334C47.7638 286.334 47.5659 286.414 47.4062 286.573C47.2464 286.733 47.1666 286.931 47.1666 287.167V292.167Z" fill="white"/>
<rect x="90" y="316" width="36" height="36" rx="18" fill="white"/>
<path d="M108 334C108.694 334 109.285 333.757 109.771 333.271C110.257 332.785 110.5 332.194 110.5 331.5C110.5 330.806 110.257 330.215 109.771 329.729C109.285 329.243 108.694 329 108 329C107.306 329 106.715 329.243 106.229 329.729C105.743 330.215 105.5 330.806 105.5 331.5C105.5 332.194 105.743 332.785 106.229 333.271C106.715 333.757 107.306 334 108 334ZM106.75 331.917C106.639 331.917 106.542 331.875 106.458 331.792C106.375 331.708 106.333 331.611 106.333 331.5C106.333 331.389 106.375 331.292 106.458 331.208C106.542 331.125 106.639 331.083 106.75 331.083C106.861 331.083 106.958 331.125 107.042 331.208C107.125 331.292 107.167 331.389 107.167 331.5C107.167 331.611 107.125 331.708 107.042 331.792C106.958 331.875 106.861 331.917 106.75 331.917ZM108 331.917C107.889 331.917 107.792 331.875 107.708 331.792C107.625 331.708 107.583 331.611 107.583 331.5C107.583 331.389 107.625 331.292 107.708 331.208C107.792 331.125 107.889 331.083 108 331.083C108.111 331.083 108.208 331.125 108.292 331.208C108.375 331.292 108.417 331.389 108.417 331.5C108.417 331.611 108.375 331.708 108.292 331.792C108.208 331.875 108.111 331.917 108 331.917ZM109.25 331.917C109.139 331.917 109.042 331.875 108.958 331.792C108.875 331.708 108.833 331.611 108.833 331.5C108.833 331.389 108.875 331.292 108.958 331.208C109.042 331.125 109.139 331.083 109.25 331.083C109.361 331.083 109.458 331.125 109.542 331.208C109.625 331.292 109.667 331.389 109.667 331.5C109.667 331.611 109.625 331.708 109.542 331.792C109.458 331.875 109.361 331.917 109.25 331.917ZM102.167 341.5C101.708 341.5 101.316 341.337 100.99 341.01C100.663 340.684 100.5 340.292 100.5 339.833V328.167C100.5 327.708 100.663 327.316 100.99 326.99C101.316 326.663 101.708 326.5 102.167 326.5H113.833C114.292 326.5 114.684 326.663 115.01 326.99C115.337 327.316 115.5 327.708 115.5 328.167V339.833C115.5 340.292 115.337 340.684 115.01 341.01C114.684 341.337 114.292 341.5 113.833 341.5H102.167ZM102.167 339.833H113.833V328.167H102.167V339.833Z" fill="#00A19A"/>
<rect x="152" y="248" width="178" height="68" rx="24" fill="#007671"/>
<circle cx="186" cy="282" r="22" fill="#00A19A"/>
<circle cx="186" cy="282" r="21.5" stroke="white" stroke-opacity="0.1"/>
<path d="M185.5 281C182.172 281 179.5 278.328 179.5 275C179.5 271.719 182.172 269 185.5 269C188.781 269 191.5 271.719 191.5 275C191.5 278.328 188.781 281 185.5 281ZM190 283.578C193.422 284.516 196 287.656 196 291.406C196 292.297 195.25 293 194.359 293H176.594C175.703 293 175 292.297 175 291.406C175 287.656 177.531 284.516 181 283.578V286.391C179.922 286.719 179.125 287.703 179.125 288.875C179.125 290.328 180.297 291.5 181.75 291.5C183.203 291.5 184.375 290.328 184.375 288.875C184.375 287.703 183.578 286.719 182.5 286.391V283.297C182.688 283.297 182.875 283.25 183.109 283.25H187.844C188.078 283.25 188.266 283.297 188.5 283.297V286.016C187.188 286.344 186.25 287.609 186.25 289.016V290.375C186.25 290.609 186.344 290.797 186.484 290.938L186.953 291.406C187.094 291.547 187.328 291.547 187.469 291.406L187.984 290.891C188.172 290.75 188.172 290.516 187.984 290.328L187.75 290.094V288.875C187.75 287.984 188.547 287.281 189.484 287.422C190.234 287.516 190.75 288.219 190.75 288.969V290.094L190.469 290.328C190.328 290.516 190.328 290.75 190.469 290.891L190.984 291.406C191.125 291.547 191.406 291.547 191.547 291.406L192.016 290.938C192.156 290.797 192.25 290.609 192.25 290.375V288.875C192.25 287.516 191.266 286.344 190 286.016V283.578ZM180.625 288.875C180.625 288.266 181.141 287.75 181.75 287.75C182.359 287.75 182.875 288.266 182.875 288.875C182.875 289.531 182.359 290 181.75 290C181.141 290 180.625 289.531 180.625 288.875Z" fill="white"/>
<rect opacity="0.2" x="222" y="292" width="8" height="8" rx="4" fill="white"/>
<rect opacity="0.2" x="235" y="292" width="8" height="8" rx="4" fill="white"/>
<rect opacity="0.2" x="248" y="292" width="8" height="8" rx="4" fill="white"/>
<rect opacity="0.6" x="222" y="264" width="84" height="8" rx="4" fill="white"/>
<rect opacity="0.6" x="222" y="276" width="49" height="8" rx="4" fill="white"/>
<path d="M239.772 248H208C221 248 226.5 219.755 213.529 213C229.5 218 239.772 231 239.772 248Z" fill="#007671"/>
<path d="M333 195C334.625 195 336 196.375 336 198V216C336 217.688 334.625 219 333 219H307C305.312 219 304 217.688 304 216V194C304 192.375 305.312 191 307 191H317L321 195H333ZM326 208.188V205.875C326 205.438 325.562 205 325.125 205H322V201.875C322 201.438 321.562 201 321.125 201H318.812C318.375 201 318 201.438 318 201.875V205H314.812C314.375 205 314 205.438 314 205.875V208.188C314 208.625 314.375 209 314.812 209H318V212.188C318 212.625 318.375 213 318.812 213H321.125C321.562 213 322 212.625 322 212.188V209H325.125C325.562 209 326 208.625 326 208.188Z" fill="#C9E5E3"/>
<path d="M3.69531 219C8.17969 219 11.7891 222.227 12.4453 226.383C12.5 226.656 12.2812 226.875 12.0078 226.875H-4.5625C-4.83594 226.875 -5.05469 226.656 -5 226.383C-4.34375 222.227 -0.734375 219 3.69531 219ZM12.0078 228.625C12.2812 228.625 12.5 228.898 12.4453 229.172C11.7891 233.328 8.17969 236.5 3.69531 236.5C-0.734375 236.5 -4.34375 233.328 -5 229.172C-5.05469 228.898 -4.83594 228.625 -4.5625 228.625H12.0078ZM14.7969 212.109L26.3906 223.703C26.5547 223.867 26.5547 224.195 26.3359 224.359C22.8906 226.82 18.1328 226.547 15.0156 223.484C11.9531 220.367 11.6797 215.609 14.1406 212.164C14.3047 211.945 14.6328 211.945 14.7969 212.109ZM27.4297 211.07C30.4922 214.188 30.7656 218.945 28.3047 222.391C28.1406 222.609 27.8125 222.609 27.6484 222.445L16.0547 210.852C15.8906 210.688 15.8906 210.359 16.1094 210.195C19.5547 207.734 24.3125 208.008 27.4297 211.07Z" fill="#C9E5E3"/>
<path d="M281.75 80C282.969 80 284 81.0312 284 82.25V98.75C284 100.016 282.969 101 281.75 101H268.25C266.984 101 266 100.016 266 98.75V82.25C266 81.0312 266.984 80 268.25 80H270.734C271.391 78.2656 273.031 77 275 77C276.922 77 278.562 78.2656 279.219 80H281.75ZM270.5 95.375C271.109 95.375 271.625 94.9062 271.625 94.25C271.625 93.6406 271.109 93.125 270.5 93.125C269.844 93.125 269.375 93.6406 269.375 94.25C269.375 94.9062 269.844 95.375 270.5 95.375ZM270.5 90.875C271.109 90.875 271.625 90.4062 271.625 89.75C271.625 89.1406 271.109 88.625 270.5 88.625C269.844 88.625 269.375 89.1406 269.375 89.75C269.375 90.4062 269.844 90.875 270.5 90.875ZM275 80C274.156 80 273.5 80.7031 273.5 81.5C273.5 82.3438 274.156 83 275 83C275.797 83 276.5 82.3438 276.5 81.5C276.5 80.7031 275.797 80 275 80ZM280.25 95C280.625 95 281 94.6719 281 94.25C281 93.875 280.625 93.5 280.25 93.5H274.25C273.828 93.5 273.5 93.875 273.5 94.25C273.5 94.6719 273.828 95 274.25 95H280.25ZM280.25 90.5C280.625 90.5 281 90.1719 281 89.75C281 89.375 280.625 89 280.25 89H274.25C273.828 89 273.5 89.375 273.5 89.75C273.5 90.1719 273.828 90.5 274.25 90.5H280.25Z" fill="#C9E5E3"/>
<path d="M210.668 31.7695C211.1 32.168 211.1 32.8652 210.668 33.2637C210.469 33.4629 210.203 33.5625 209.938 33.5625C209.639 33.5625 209.373 33.4629 209.174 33.2637L208.941 33.0312L199.777 42.1289C199.113 42.793 198.25 43.125 197.354 43.125C196.391 43.125 195.461 42.7266 194.764 41.9629C193.568 40.5684 193.801 38.4766 195.062 37.1816L204.094 28.1836L203.861 27.9512C203.43 27.5527 203.43 26.8555 203.861 26.457C204.061 26.2578 204.326 26.125 204.625 26.125C204.891 26.125 205.156 26.2578 205.355 26.457L210.668 31.7695ZM204.293 34.625L207.414 31.5371L205.588 29.6777L200.641 34.625H204.293Z" fill="#C9E5E3"/>
</g>
<defs>
<clipPath id="clip0_4288_22555">
<rect width="360" height="360" rx="8" fill="white"/>
</clipPath>
</defs>
</svg>
