<svg width="360" height="360" viewBox="0 0 360 360" fill="none" xmlns="http://www.w3.org/2000/svg">
<rect width="360" height="360" rx="8" fill="#002239"/>
<path d="M71 114H40C34.4772 114 30 118.477 30 124V155" stroke="#FFF9F2" stroke-opacity="0.4" stroke-width="4"/>
<path d="M289 312H320C325.523 312 330 307.523 330 302V271" stroke="#FFF9F2" stroke-opacity="0.4" stroke-width="4"/>
<path d="M289 114H320C325.523 114 330 118.477 330 124V155" stroke="#FFF9F2" stroke-opacity="0.4" stroke-width="4"/>
<path d="M71 312H40C34.4772 312 30 307.523 30 302V271" stroke="#FFF9F2" stroke-opacity="0.4" stroke-width="4"/>
<circle cx="48" cy="132" r="8" fill="#F00521"/>
<path d="M62.7441 136V127.545H66.1191C67.9238 127.545 69.0254 128.547 69.0254 130.182V130.193C69.0254 131.33 68.416 132.25 67.4316 132.607L69.2773 136H67.5547L65.8906 132.836H64.2559V136H62.7441ZM64.2559 131.641H65.9609C66.916 131.641 67.4785 131.113 67.4785 130.205V130.193C67.4785 129.309 66.8809 128.77 65.9316 128.77H64.2559V131.641ZM71.2441 136V127.545H76.7168V128.816H72.7559V131.096H76.5V132.32H72.7559V134.729H76.7168V136H71.2441ZM82.709 136.146C80.2773 136.146 78.7422 134.471 78.7422 131.77V131.764C78.7422 129.062 80.2832 127.398 82.709 127.398C84.6543 127.398 86.084 128.611 86.3066 130.334L86.3125 130.393H84.8301L84.8008 130.281C84.5547 129.314 83.8105 128.711 82.709 128.711C81.2324 128.711 80.2891 129.889 80.2891 131.764V131.77C80.2891 133.65 81.2383 134.834 82.709 134.834C83.7871 134.834 84.543 134.254 84.8184 133.211L84.8359 133.152H86.3184L86.3066 133.211C86.0898 134.945 84.6543 136.146 82.709 136.146Z" fill="#FFF9F2"/>
<path d="M68.0002 243L57.5391 246.348C56.237 246.764 54.8077 246.651 53.6844 245.872C48.6432 242.374 43.1982 235.687 40 229C34.5 217.5 34.0002 203 36.5002 197C39.0002 191 45.0002 190 50.0002 189C55.0002 188 66.5002 185 72.0002 183C77.5002 181 108 166.5 129 164C150 161.5 167 163 184 166.5C197.6 169.3 224 181 235.5 186.5C257.667 192.167 304.4 204.3 314 207.5C326 211.5 326.5 215 327.5 220C328.3 224 327.167 229 326.5 231C328.5 234 328 238.5 324.5 240.5C322.033 241.91 316.796 244.718 313.648 246.391C312.901 246.788 312.049 246.936 311.212 246.816L295 244.5L270.5 243L255.492 246.873C255.165 246.958 254.83 247 254.492 247H109.524C109.176 247 108.83 246.955 108.494 246.865L94.0002 243H68.0002Z" fill="#00A2FF"/>
<mask id="mask0_30510_48300" style="mask-type:alpha" maskUnits="userSpaceOnUse" x="35" y="162" width="293" height="85">
<path d="M68.0002 243L57.5391 246.348C56.237 246.764 54.8077 246.651 53.6844 245.872C48.6432 242.374 43.1982 235.687 40 229C34.5 217.5 34.0002 203 36.5002 197C39.0002 191 45.0002 190 50.0002 189C55.0002 188 66.5002 185 72.0002 183C77.5002 181 108 166.5 129 164C150 161.5 167 163 184 166.5C197.6 169.3 224 181 235.5 186.5C257.667 192.167 304.4 204.3 314 207.5C326 211.5 326.5 215 327.5 220C328.3 224 327.167 229 326.5 231C328.5 234 328 238.5 324.5 240.5C322.033 241.91 316.796 244.718 313.648 246.391C312.901 246.788 312.049 246.936 311.212 246.816L295 244.5L270.5 243L255.492 246.873C255.165 246.958 254.83 247 254.492 247H109.524C109.176 247 108.83 246.955 108.494 246.865L94.0002 243H68.0002Z" fill="#00A2FF"/>
</mask>
<g mask="url(#mask0_30510_48300)">
<path d="M145 166C131 166 111.167 172.667 103 176C112.5 184 120.5 184 130 184.5C137.6 184.9 198.5 189 228 191C217.167 185.5 198.1 176.2 188.5 173C176.5 169 162.5 166 145 166Z" fill="#003758"/>
<g opacity="0.2">
<path d="M125.5 170.5C132.833 189.5 147.7 221.7 150.5 226.5C154 232.5 157 234 162.5 234.5C168 235 212 234.5 217.5 234.5C223 234.5 225.5 233.5 227 226.5C228.5 219.5 229.625 212 231.5 202C232.514 196.594 233 194 228 191.5" stroke="#002841" stroke-width="2"/>
<path d="M125.5 170.5C132.833 189.5 147.7 221.7 150.5 226.5C154 232.5 157 234 162.5 234.5C168 235 212 234.5 217.5 234.5C223 234.5 225.5 233.5 227 226.5C228.5 219.5 229.625 212 231.5 202C232.514 196.594 233 194 228 191.5" stroke="url(#paint0_linear_30510_48300)" stroke-width="2"/>
</g>
<mask id="mask1_30510_48300" style="mask-type:alpha" maskUnits="userSpaceOnUse" x="103" y="166" width="125" height="25">
<path d="M145 166C131 166 111.167 172.667 103 176C112.5 184 120.5 184 130 184.5C137.6 184.9 198.5 189 228 191C217.167 185.5 198.1 176.2 188.5 173C176.5 169 162.5 166 145 166Z" fill="#003758"/>
</mask>
<g mask="url(#mask1_30510_48300)">
<path d="M104.5 179.5L97 176C98.6667 172.167 131.5 164 147.5 164C183.902 163.999 201 173.167 205 178L104.5 179.5Z" fill="#00A1FF" fill-opacity="0.2"/>
</g>
<path d="M313.5 209C310.5 208 306.5 209 303.5 209.5C301.5 209.857 302.5 212 306 213C309.5 214 316.5 215.5 319.5 215.5C322.5 215.5 325 215 322 213C319 211 316.5 210 313.5 209Z" fill="white"/>
<path d="M78 184.5C75.2 186.1 69.1667 187.5 66.5 188L268 201.5C260 198 248 196.5 237 195.5C228.2 194.7 127.333 187.833 78 184.5Z" fill="white" fill-opacity="0.4"/>
<path d="M48.5 199.5H33.5V210C43.9 208.8 47.8333 202.5 48.5 199.5Z" fill="#042132" fill-opacity="0.4"/>
<rect x="310" y="231" width="21" height="8" rx="4" fill="#003758"/>
<path d="M230 188.5L188.5 166C202.9 166 229.5 178 241 184L230 188.5Z" fill="white" fill-opacity="0.4"/>
<path d="M234 189.5L244.5 185.5L320.5 207L309.5 209.5L234 189.5Z" fill="white" fill-opacity="0.4"/>
<rect x="46" y="239" width="285" height="16" fill="#042132" fill-opacity="0.4"/>
<path d="M57 241.5C56.6 246.3 54.5 247.833 53.5 248H111.5C107.5 246 107 243 107 241.5V229C107 221.5 102 205 82 205C62 205 57 221.5 57 229C57 236.5 57.5 235.5 57 241.5Z" fill="#042132" fill-opacity="0.4"/>
<path d="M257.5 241.5C257.1 246.3 255 247.833 254 248H312C308 246 307.5 243 307.5 241.5V229C307.5 221.5 302.5 205 282.5 205C262.5 205 257.5 221.5 257.5 229C257.5 236.5 258 235.5 257.5 241.5Z" fill="#042132" fill-opacity="0.4"/>
<rect x="145" y="196" width="15" height="4" rx="2" stroke="#026EAD"/>
<path d="M213 185.5C217.4 185.5 221 187 223 188C225 189 226.5 190 229 191.5V193C227.833 192.833 225.1 193.2 223.5 194C221.5 195 216.5 196 213 196C209.5 196 208 193.5 208 191C208 188.5 207.5 185.5 213 185.5Z" fill="#4DBDFF"/>
</g>
<circle cx="82" cy="231" r="23" fill="#000E17"/>
<circle cx="82" cy="231" r="17" fill="white"/>
<circle cx="82" cy="231.001" r="5" fill="#708896"/>
<path d="M82 236.001L79 216.001L85 216.001L82 236.001Z" fill="#708896"/>
<path d="M82 226.001L79 246.001L85 246.001L82 226.001Z" fill="#708896"/>
<path d="M87 231.001L67 234.001L67 228.001L87 231.001Z" fill="#708896"/>
<path d="M77 231.001L97 234.001L97 228.001L77 231.001Z" fill="#708896"/>
<path d="M85.5349 234.536L69.2715 222.516L73.5141 218.273L85.5349 234.536Z" fill="#708896"/>
<path d="M78.4636 227.465L90.4845 243.729L94.7271 239.486L78.4636 227.465Z" fill="#708896"/>
<path d="M85.5354 227.465L73.5146 243.729L69.2719 239.486L85.5354 227.465Z" fill="#708896"/>
<path d="M78.4641 234.535L94.7276 222.515L90.4849 218.272L78.4641 234.535Z" fill="#708896"/>
<circle cx="82" cy="231" r="15.75" stroke="white" stroke-width="2.5"/>
<circle cx="283" cy="231" r="23" fill="#000E17"/>
<circle cx="283" cy="231" r="17" fill="white"/>
<circle cx="283" cy="231.001" r="5" fill="#708896"/>
<path d="M283 236.001L280 216.001L286 216.001L283 236.001Z" fill="#708896"/>
<path d="M283 226.001L280 246.001L286 246.001L283 226.001Z" fill="#708896"/>
<path d="M288 231.001L268 234.001L268 228.001L288 231.001Z" fill="#708896"/>
<path d="M278 231.001L298 234.001L298 228.001L278 231.001Z" fill="#708896"/>
<path d="M286.535 234.536L270.271 222.516L274.514 218.273L286.535 234.536Z" fill="#708896"/>
<path d="M279.464 227.465L291.484 243.729L295.727 239.486L279.464 227.465Z" fill="#708896"/>
<path d="M286.535 227.465L274.515 243.729L270.272 239.486L286.535 227.465Z" fill="#708896"/>
<path d="M279.464 234.535L295.728 222.515L291.485 218.272L279.464 234.535Z" fill="#708896"/>
<circle cx="283" cy="231" r="15.75" stroke="white" stroke-width="2.5"/>
<rect x="114" y="251" width="135" height="4" fill="#2485B7"/>
<rect x="109" y="247" width="12" height="4" fill="#0B405F"/>
<rect x="242" y="247" width="12" height="4" fill="#0B405F"/>
<rect x="167" y="151" width="24" height="207" fill="#268EC2"/>
<rect x="167" y="151" width="24" height="207" fill="url(#paint1_linear_30510_48300)"/>
<path d="M165 146H193L191 151H167L165 146Z" fill="#0B405F"/>
<path d="M88.0588 201.23C87.5339 200.874 86.834 200.94 86.3856 201.383C85.9372 201.826 85.8716 202.531 86.2325 203.051L92.3568 211.981L86.9105 213.753C86.3692 213.928 86.0028 214.431 86.0028 215C86.0028 215.569 86.3692 216.072 86.9105 216.247L92.5482 218.073L89.6556 223.575C89.3876 224.084 89.4806 224.707 89.8907 225.112C90.3008 225.516 90.9187 225.615 91.4273 225.347L96.9283 222.454L98.7546 228.092C98.9296 228.634 99.4327 229 100.001 229C100.57 229 101.073 228.634 101.248 228.092L103.075 222.454L108.576 225.347C109.084 225.615 109.707 225.522 110.112 225.112C110.517 224.702 110.615 224.084 110.347 223.575L107.455 218.073L113.092 216.247C113.634 216.072 114 215.569 114 215C114 214.431 113.634 213.928 113.092 213.753L107.269 211.866L108.674 208.016C108.849 207.535 108.729 206.999 108.368 206.638C108.007 206.277 107.471 206.157 106.99 206.332L103.14 207.737L101.248 201.908C101.073 201.366 100.57 201 100.001 201C99.4327 201 98.9296 201.366 98.7546 201.908L96.9884 207.355L88.0588 201.23Z" fill="#FFD725"/>
<path d="M244.544 180.172C244.15 179.906 243.625 179.955 243.289 180.287C242.953 180.619 242.904 181.148 243.174 181.538L247.768 188.236L243.683 189.565C243.277 189.696 243.002 190.073 243.002 190.5C243.002 190.927 243.277 191.304 243.683 191.435L247.911 192.805L245.742 196.931C245.541 197.313 245.61 197.78 245.918 198.084C246.226 198.387 246.689 198.461 247.07 198.26L251.196 196.09L252.566 200.319C252.697 200.725 253.075 201 253.501 201C253.928 201 254.305 200.725 254.436 200.319L255.806 196.09L259.932 198.26C260.313 198.461 260.781 198.391 261.084 198.084C261.388 197.776 261.461 197.313 261.26 196.931L259.091 192.805L263.319 191.435C263.725 191.304 264 190.927 264 190.5C264 190.073 263.725 189.696 263.319 189.565L258.951 188.15L260.005 185.262C260.137 184.901 260.046 184.499 259.776 184.229C259.505 183.958 259.103 183.868 258.742 183.999L255.855 185.053L254.436 180.681C254.305 180.275 253.928 180 253.501 180C253.075 180 252.697 180.275 252.566 180.681L251.241 184.766L244.544 180.172Z" fill="#FFD000"/>
<path d="M36.5966 194.013C36.2035 194.281 36.0555 194.787 36.2402 195.222C36.4249 195.657 36.8986 195.898 37.3606 195.79L45.2806 193.992L45.0086 198.279C44.9808 198.705 45.2301 199.1 45.6266 199.257C46.023 199.414 46.4751 199.298 46.7469 198.969L49.5803 195.545L52.6149 199.084C52.8953 199.411 53.3556 199.519 53.7512 199.345C54.1467 199.171 54.3864 198.768 54.3403 198.339L53.846 193.704L58.2817 193.991C58.7075 194.019 59.1022 193.77 59.2596 193.373C59.4169 192.977 59.3007 192.525 58.9717 192.253L55.5468 189.419L59.0858 186.385C59.4133 186.105 59.521 185.645 59.3471 185.249C59.1731 184.854 58.7696 184.614 58.3409 184.66L53.7054 185.154L53.9923 180.719C54.0201 180.293 53.7708 179.898 53.3743 179.741C52.9778 179.583 52.5257 179.7 52.2539 180.028L49.3272 183.566L47.0323 181.521C46.7453 181.266 46.3384 181.201 45.9869 181.353C45.6354 181.505 45.4033 181.845 45.3921 182.229L45.3065 185.301L40.7192 185.007C40.2933 184.979 39.8987 185.228 39.7413 185.625C39.584 186.021 39.7002 186.473 40.0291 186.745L43.3373 189.484L36.5966 194.013Z" fill="#FFB700"/>
<rect x="101" y="288" width="48" height="48" rx="24" fill="#8FA8B6"/>
<g clip-path="url(#clip0_30510_48300)">
<path d="M123.784 314.908C124.28 315.404 124.28 316.209 123.784 316.706L119.194 321.296C118.204 322.286 116.579 322.254 115.629 321.2C114.739 320.212 114.878 318.664 115.818 317.724L120.309 313.232C120.805 312.737 121.61 312.736 122.106 313.232L123.783 314.909L123.784 314.908ZM128.294 311.169C129.346 311.171 130.414 311.587 131.199 312.373C131.667 312.833 132.294 312.745 132.5 312.602C134.016 311.553 135.015 309.817 135.015 307.833C135.015 307.489 134.984 307.152 134.927 306.825C134.814 306.185 134.004 305.957 133.544 306.417L132.172 307.789C131.217 308.744 129.961 308.891 129.118 308.201C128.148 307.407 128.094 305.974 128.959 305.11L130.596 303.472C131.055 303.012 130.83 302.201 130.19 302.087C129.863 302.029 129.526 301.999 129.182 301.999C126.729 301.999 124.636 303.514 123.774 305.658C123.602 306.087 123.703 306.579 124.029 306.905L128.294 311.168V311.169ZM130.021 313.552C129.387 312.917 128.495 312.712 127.684 312.917L121.666 306.9V305.332C121.666 304.706 121.331 304.126 120.788 303.812L117.949 302.176C117.434 301.878 116.784 301.964 116.363 302.385L115.386 303.362C114.964 303.782 114.879 304.434 115.176 304.949L116.814 307.788C117.127 308.332 117.706 308.666 118.333 308.666H119.898L125.918 314.685C125.714 315.495 125.918 316.387 126.552 317.021L130.766 321.19C131.722 322.146 133.373 322.237 134.328 321.28C135.284 320.322 135.164 318.891 134.327 317.812L130.021 313.552Z" fill="white"/>
</g>
<rect x="156" y="288" width="48" height="48" rx="24" fill="#8FA8B6"/>
<path fill-rule="evenodd" clip-rule="evenodd" d="M180 324C186.628 324 192 318.628 192 312C192 305.372 186.628 300 180 300C173.372 300 168 305.372 168 312C168 318.628 173.372 324 180 324ZM187.145 312.9H183.486C183.322 313.533 182.989 314.11 182.522 314.568L184.351 317.736C185.115 317.157 185.756 316.43 186.236 315.6C186.716 314.769 187.025 313.852 187.145 312.9ZM182.794 318.638L180.964 315.47C180.333 315.646 179.667 315.646 179.036 315.47L177.206 318.638C178.091 319.01 179.041 319.201 180 319.2C180.99 319.2 181.934 319 182.794 318.638ZM175.649 317.737L177.478 314.569C177.01 314.111 176.677 313.534 176.513 312.9H172.855C172.975 313.852 173.284 314.769 173.764 315.6C174.244 316.43 174.885 317.158 175.649 317.737ZM187.145 311.099H183.486C183.322 310.466 182.989 309.889 182.522 309.431L184.351 306.263C185.115 306.842 185.756 307.568 186.236 308.399C186.716 309.229 187.025 310.147 187.145 311.099ZM182.794 305.36C181.909 304.989 180.959 304.799 180 304.8C179.01 304.8 178.066 305 177.206 305.362L179.036 308.53C179.667 308.354 180.333 308.354 180.964 308.53L182.794 305.36ZM177.478 309.432L175.649 306.264C174.885 306.843 174.244 307.57 173.764 308.4C173.284 309.231 172.975 310.148 172.855 311.1H176.514C176.68 310.458 177.018 309.884 177.478 309.432Z" fill="white"/>
<rect x="211" y="288" width="48" height="48" rx="24" fill="#8FA8B6"/>
<path d="M230.619 304.881H242.667C242.957 304.881 243.236 304.996 243.441 305.202C243.647 305.407 243.762 305.686 243.762 305.976V322.405C243.762 322.695 243.647 322.974 243.441 323.179C243.236 323.385 242.957 323.5 242.667 323.5H227.334C227.043 323.5 226.764 323.385 226.559 323.179C226.354 322.974 226.238 322.695 226.238 322.405V311.452L230.619 304.881ZM236.095 300.5H241.572C241.862 300.5 242.141 300.615 242.346 300.821C242.551 301.026 242.667 301.305 242.667 301.595V303.786H235V301.595C235 301.305 235.116 301.026 235.321 300.821C235.526 300.615 235.805 300.5 236.095 300.5ZM228.429 312.548V320.214H230.619V312.548H228.429Z" fill="white"/>
<path d="M40.142 32.3636L51.4986 66.7102H51.946L63.2812 32.3636H71.9744L56.5909 76H46.8324L31.4702 32.3636H40.142ZM84.4002 76.6605C82.3263 76.6605 80.4585 76.2912 78.7965 75.5526C77.1488 74.7997 75.842 73.6918 74.8761 72.2287C73.9244 70.7656 73.4485 68.9616 73.4485 66.8168C73.4485 64.9702 73.7894 63.4432 74.4712 62.2358C75.1531 61.0284 76.0835 60.0625 77.2624 59.3381C78.4414 58.6136 79.7695 58.0668 81.2468 57.6974C82.7383 57.3139 84.2795 57.0369 85.8704 56.8665C87.788 56.6676 89.3434 56.4901 90.5366 56.3338C91.7298 56.1634 92.5962 55.9077 93.136 55.5668C93.69 55.2116 93.967 54.6648 93.967 53.9261V53.7983C93.967 52.1932 93.4911 50.9503 92.5394 50.0696C91.5877 49.1889 90.217 48.7486 88.4272 48.7486C86.538 48.7486 85.0394 49.1605 83.9315 49.9844C82.8377 50.8082 82.0991 51.7812 81.7156 52.9034L74.5138 51.8807C75.082 49.892 76.0195 48.2301 77.3263 46.8949C78.6332 45.5455 80.2312 44.5369 82.1204 43.8693C84.0096 43.1875 86.0977 42.8466 88.3846 42.8466C89.9613 42.8466 91.5309 43.0312 93.0934 43.4006C94.6559 43.7699 96.0835 44.3807 97.3761 45.233C98.6687 46.071 99.7056 47.2145 100.487 48.6634C101.282 50.1122 101.68 51.9233 101.68 54.0966V76H94.2653V71.5043H94.0096C93.5408 72.4134 92.8803 73.2656 92.0281 74.0611C91.19 74.8423 90.1317 75.4744 88.8533 75.9574C87.5891 76.4261 86.1048 76.6605 84.4002 76.6605ZM86.4031 70.9929C87.9513 70.9929 89.2937 70.6875 90.43 70.0767C91.5664 69.4517 92.44 68.6278 93.0508 67.6051C93.6758 66.5824 93.9883 65.4673 93.9883 64.2599V60.4034C93.7468 60.6023 93.3349 60.7869 92.7525 60.9574C92.1843 61.1278 91.5451 61.277 90.8349 61.4048C90.1246 61.5327 89.4215 61.6463 88.7255 61.7457C88.0295 61.8452 87.4258 61.9304 86.9144 62.0014C85.7638 62.1577 84.734 62.4134 83.8249 62.7685C82.9158 63.1236 82.1985 63.6207 81.6729 64.2599C81.1474 64.8849 80.8846 65.6946 80.8846 66.6889C80.8846 68.1094 81.4031 69.1818 82.44 69.9062C83.4769 70.6307 84.7979 70.9929 86.4031 70.9929ZM118.149 32.3636V76H110.436V32.3636H118.149ZM141.569 76.6392C138.288 76.6392 135.454 75.9574 133.067 74.5938C130.695 73.2159 128.87 71.2699 127.592 68.7557C126.313 66.2273 125.674 63.2514 125.674 59.8281C125.674 56.4616 126.313 53.5071 127.592 50.9645C128.884 48.4077 130.688 46.419 133.004 44.9986C135.319 43.5639 138.039 42.8466 141.164 42.8466C143.181 42.8466 145.085 43.1733 146.874 43.8267C148.678 44.4659 150.269 45.4602 151.647 46.8097C153.039 48.1591 154.133 49.8778 154.928 51.9659C155.724 54.0398 156.121 56.5114 156.121 59.3807V61.7457H129.296V56.5469H148.728C148.714 55.0696 148.394 53.7557 147.769 52.6051C147.144 51.4403 146.271 50.5241 145.148 49.8565C144.04 49.1889 142.748 48.8551 141.271 48.8551C139.694 48.8551 138.309 49.2386 137.116 50.0057C135.923 50.7585 134.992 51.7528 134.325 52.9886C133.671 54.2102 133.337 55.5526 133.323 57.0156V61.554C133.323 63.4574 133.671 65.0909 134.367 66.4545C135.063 67.804 136.036 68.8409 137.286 69.5653C138.536 70.2756 139.999 70.6307 141.675 70.6307C142.798 70.6307 143.813 70.4744 144.722 70.1619C145.631 69.8352 146.42 69.3594 147.087 68.7344C147.755 68.1094 148.259 67.3352 148.6 66.4119L155.802 67.2216C155.347 69.125 154.481 70.7869 153.202 72.2074C151.938 73.6136 150.319 74.7074 148.344 75.4886C146.37 76.2557 144.112 76.6392 141.569 76.6392ZM163.647 76V43.2727H171.125V48.7273H171.466C172.063 46.8381 173.086 45.3821 174.534 44.3594C175.998 43.3224 177.667 42.804 179.542 42.804C179.968 42.804 180.444 42.8253 180.969 42.8679C181.509 42.8963 181.956 42.946 182.311 43.017V50.1122C181.985 49.9986 181.466 49.8991 180.756 49.8139C180.06 49.7145 179.385 49.6648 178.732 49.6648C177.326 49.6648 176.061 49.9702 174.939 50.581C173.831 51.1776 172.958 52.0085 172.319 53.0739C171.679 54.1392 171.36 55.3679 171.36 56.7599V76H163.647ZM191.978 76H183.54L198.903 32.3636H208.661L224.045 76H215.607L203.952 41.3125H203.612L191.978 76ZM192.255 58.8906H215.266V65.2401H192.255V58.8906ZM238.697 32.3636V76H230.792V32.3636H238.697Z" fill="#FFF9F2"/>
<defs>
<linearGradient id="paint0_linear_30510_48300" x1="132" y1="184.5" x2="127.5" y2="172" gradientUnits="userSpaceOnUse">
<stop stop-color="#003758" stop-opacity="0"/>
<stop offset="1" stop-color="#003758"/>
</linearGradient>
<linearGradient id="paint1_linear_30510_48300" x1="179" y1="151" x2="179" y2="311.352" gradientUnits="userSpaceOnUse">
<stop stop-color="#002239" stop-opacity="0"/>
<stop offset="1" stop-color="#002239"/>
</linearGradient>
<clipPath id="clip0_30510_48300">
<rect width="20" height="20" fill="white" transform="translate(115 302)"/>
</clipPath>
</defs>
</svg>
