<svg width="360" height="360" viewBox="0 0 360 360" fill="none" xmlns="http://www.w3.org/2000/svg">
<g clip-path="url(#clip0_3914_494)">
<rect width="360" height="360" rx="8" fill="#EBF5FF"/>
<g filter="url(#filter0_f_3914_494)">
<circle cx="261" cy="190" r="85" fill="white"/>
</g>
<g filter="url(#filter1_ii_3914_494)">
<path d="M254.071 126.148C255.654 124.447 258.346 124.447 259.929 126.148L266.013 132.688C267.187 133.95 269.038 134.318 270.605 133.601L278.73 129.887C280.842 128.922 283.33 129.952 284.141 132.129L287.26 140.5C287.861 142.115 289.43 143.163 291.152 143.101L300.08 142.779C302.401 142.695 304.305 144.599 304.221 146.92L303.899 155.848C303.837 157.57 304.885 159.139 306.5 159.74L314.871 162.859C317.048 163.67 318.078 166.158 317.113 168.27L313.399 176.395C312.682 177.962 313.05 179.813 314.312 180.987L320.852 187.071C322.553 188.654 322.553 191.346 320.852 192.929L314.312 199.013C313.05 200.187 312.682 202.038 313.399 203.605L317.113 211.73C318.078 213.842 317.048 216.33 314.871 217.141L306.5 220.26C304.885 220.861 303.837 222.43 303.899 224.152L304.221 233.08C304.305 235.401 302.401 237.305 300.08 237.221L291.152 236.899C289.43 236.837 287.861 237.885 287.26 239.5L284.141 247.871C283.33 250.048 280.842 251.078 278.73 250.113L270.605 246.399C269.038 245.682 267.187 246.05 266.013 247.312L259.929 253.852C258.346 255.553 255.654 255.553 254.071 253.852L247.987 247.312C246.813 246.05 244.962 245.682 243.395 246.399L235.27 250.113C233.158 251.078 230.67 250.048 229.859 247.871L226.74 239.5C226.139 237.885 224.57 236.837 222.848 236.899L213.92 237.221C211.599 237.305 209.695 235.401 209.779 233.08L210.101 224.152C210.163 222.43 209.115 220.861 207.5 220.26L199.129 217.141C196.952 216.33 195.922 213.842 196.887 211.73L200.601 203.605C201.318 202.038 200.95 200.187 199.688 199.013L193.148 192.929C191.447 191.346 191.447 188.654 193.148 187.071L199.688 180.987C200.95 179.813 201.318 177.962 200.601 176.395L196.887 168.27C195.922 166.158 196.952 163.67 199.129 162.859L207.5 159.74C209.115 159.139 210.163 157.57 210.101 155.848L209.779 146.92C209.695 144.599 211.599 142.695 213.92 142.779L222.848 143.101C224.57 143.163 226.139 142.115 226.74 140.5L229.859 132.129C230.67 129.952 233.158 128.922 235.27 129.887L243.395 133.601C244.962 134.318 246.813 133.95 247.987 132.688L254.071 126.148Z" fill="url(#paint0_linear_3914_494)"/>
</g>
<g filter="url(#filter2_d_3914_494)">
<path d="M236.059 217.531L270.158 161.404H277.406L243.348 217.531H236.059ZM226.545 174.716C226.545 172.769 226.902 170.947 227.616 169.25C228.33 167.525 229.305 166.036 230.54 164.785C231.776 163.505 233.217 162.503 234.864 161.78C236.539 161.029 238.324 160.653 240.218 160.653C242.112 160.653 243.897 161.029 245.572 161.78C247.247 162.503 248.702 163.505 249.937 164.785C251.173 166.036 252.147 167.525 252.861 169.25C253.602 170.947 253.973 172.769 253.973 174.716C253.973 176.664 253.602 178.5 252.861 180.224C252.147 181.921 251.173 183.41 249.937 184.69C248.702 185.969 247.247 186.985 245.572 187.736C243.897 188.459 242.112 188.821 240.218 188.821C238.324 188.821 236.539 188.459 234.864 187.736C233.217 186.985 231.776 185.969 230.54 184.69C229.305 183.41 228.33 181.921 227.616 180.224C226.902 178.5 226.545 176.664 226.545 174.716ZM232.764 174.716C232.764 175.857 232.956 176.928 233.341 177.929C233.725 178.931 234.247 179.807 234.905 180.558C235.592 181.309 236.388 181.908 237.294 182.353C238.2 182.77 239.175 182.979 240.218 182.979C241.261 182.979 242.236 182.77 243.142 182.353C244.075 181.908 244.885 181.309 245.572 180.558C246.258 179.807 246.794 178.931 247.178 177.929C247.59 176.928 247.796 175.857 247.796 174.716C247.796 173.603 247.59 172.546 247.178 171.545C246.794 170.515 246.258 169.625 245.572 168.874C244.885 168.123 244.075 167.525 243.142 167.08C242.236 166.635 241.261 166.412 240.218 166.412C239.175 166.412 238.2 166.635 237.294 167.08C236.388 167.525 235.592 168.123 234.905 168.874C234.247 169.625 233.725 170.515 233.341 171.545C232.956 172.546 232.764 173.603 232.764 174.716ZM260.15 204.177C260.15 202.23 260.494 200.394 261.18 198.669C261.894 196.944 262.868 195.442 264.104 194.162C265.339 192.855 266.781 191.839 268.428 191.116C270.103 190.365 271.887 189.989 273.782 189.989C275.676 189.989 277.447 190.365 279.094 191.116C280.769 191.839 282.224 192.855 283.46 194.162C284.695 195.442 285.67 196.944 286.384 198.669C287.098 200.394 287.455 202.23 287.455 204.177C287.455 206.125 287.098 207.961 286.384 209.686C285.67 211.383 284.695 212.871 283.46 214.151C282.224 215.402 280.769 216.404 279.094 217.155C277.447 217.878 275.676 218.24 273.782 218.24C271.887 218.24 270.103 217.878 268.428 217.155C266.781 216.404 265.339 215.402 264.104 214.151C262.868 212.871 261.894 211.383 261.18 209.686C260.494 207.961 260.15 206.125 260.15 204.177ZM266.328 204.177C266.328 205.29 266.52 206.347 266.904 207.349C267.289 208.35 267.81 209.227 268.469 209.978C269.156 210.729 269.952 211.327 270.858 211.772C271.764 212.189 272.739 212.398 273.782 212.398C274.825 212.398 275.8 212.189 276.706 211.772C277.639 211.327 278.449 210.729 279.136 209.978C279.822 209.227 280.357 208.35 280.742 207.349C281.154 206.347 281.359 205.29 281.359 204.177C281.359 203.037 281.154 201.966 280.742 200.964C280.357 199.935 279.822 199.045 279.136 198.293C278.449 197.542 277.639 196.944 276.706 196.499C275.8 196.054 274.825 195.831 273.782 195.831C272.739 195.831 271.764 196.054 270.858 196.499C269.952 196.944 269.156 197.542 268.469 198.293C267.81 199.045 267.289 199.935 266.904 200.964C266.52 201.966 266.328 203.037 266.328 204.177Z" fill="white"/>
</g>
<path d="M214.594 196.909C214.832 197.021 215.045 197.178 215.222 197.372C215.399 197.567 215.536 197.794 215.625 198.041C215.714 198.288 215.754 198.55 215.741 198.813C215.729 199.075 215.665 199.332 215.553 199.57L211.791 207.57C211.565 208.05 211.158 208.421 210.659 208.601C210.16 208.781 209.61 208.755 209.13 208.529C208.65 208.303 208.279 207.896 208.099 207.397C207.919 206.898 207.945 206.348 208.171 205.868L211.933 197.868C212.159 197.388 212.566 197.017 213.065 196.837C213.564 196.657 214.114 196.683 214.594 196.909Z" fill="#87BF33"/>
<path d="M217.55 209.329L203.125 202.544C193.115 197.837 181.211 202.141 176.512 212.132C171.805 222.142 176.109 234.046 186.1 238.745L200.508 245.521C210.517 250.228 222.421 245.924 227.12 235.933C231.837 225.95 227.542 214.028 217.55 209.329Z" fill="#F8CC2F"/>
<path d="M207.006 210.271L196.58 205.368C190.915 202.704 188.489 195.971 191.154 190.306L201.579 195.209C207.245 197.873 209.67 204.606 207.006 210.271ZM234.576 210.727L224.15 205.824C218.485 203.159 211.752 205.585 209.088 211.25L219.513 216.153C225.179 218.818 231.912 216.392 234.576 210.727Z" fill="#669A17"/>
<path d="M187.488 206.419L197.932 211.331C199.492 212.067 201.199 212.435 202.924 212.408C204.649 212.381 206.344 211.96 207.88 211.176C208.257 212.86 209.015 214.436 210.095 215.782C211.176 217.128 212.55 218.209 214.113 218.941L224.539 223.844C227.195 218.197 224.759 211.437 219.112 208.781L202.55 200.993C196.885 198.328 190.152 200.754 187.488 206.419Z" fill="#87BF32"/>
<g filter="url(#filter3_i_3914_494)">
<path d="M114.309 221.842C101.211 206.326 80.7027 204.28 61.5729 185.865C50.0261 174.782 29.6898 196.777 35.2047 207.349C42.6154 221.331 59.6771 248.101 75.0155 259.866C107.933 284.931 140.85 253.216 114.309 221.842Z" fill="#7A2D77"/>
</g>
<path d="M52.3106 190.328C58.7013 190.994 64.5875 185.993 64.5875 185.993C64.5875 185.993 60.2149 179.991 53.656 179.324C47.2653 178.657 41.7154 180.491 41.3791 183.492C41.0427 186.66 45.9198 189.661 52.3106 190.328ZM31.9612 196.996C31.1203 203.665 35.3247 209.5 35.3247 209.5C35.3247 209.5 40.7064 204.665 41.5472 197.997C42.3881 191.328 40.8745 185.826 38.1837 185.493C35.4929 185.326 32.8021 190.494 31.9612 196.996Z" fill="#669A17"/>
<path d="M38.4138 193.792C42.7033 199.799 51.9686 199.799 51.9686 199.799C51.9686 199.799 54.0275 190.016 49.738 183.837C45.4485 177.829 39.2717 175.083 36.1832 177.829C32.9232 180.576 33.9527 187.613 38.4138 193.792Z" fill="#87BF33"/>
<path d="M36.8001 179.899C34.668 177.06 31.4366 169.306 35.5675 161" stroke="#87BF32" stroke-width="4.85" stroke-linecap="round"/>
<g filter="url(#filter4_i_3914_494)">
<path d="M137.25 145C140.151 144.999 142.946 146.093 145.073 148.062C147.201 150.031 148.504 152.729 148.721 155.617L148.75 156.477V185.833C148.75 193.391 150.941 200.777 155.041 207.095L156.018 208.53L156.305 208.943C162.21 217.216 165.567 227.029 165.965 237.178L166 239.209V274.784C166 279.175 164.319 283.401 161.301 286.596C158.282 289.791 154.154 291.714 149.762 291.971L148.75 292H114.25C109.85 292 105.616 290.322 102.415 287.31C99.2137 284.297 97.2869 280.178 97.0288 275.794L97 274.784V239.204C97.0019 229.047 99.9712 219.111 105.545 210.613L106.694 208.938L106.982 208.542C111.711 201.91 114.251 193.973 114.25 185.833V156.477C114.249 153.582 115.345 150.793 117.318 148.67C119.29 146.546 121.994 145.246 124.888 145.029L125.75 145H137.25Z" fill="white"/>
</g>
<g filter="url(#filter5_d_3914_494)">
<rect x="112" y="160" width="39" height="7.5" rx="2.25" fill="#F5F5F5"/>
</g>
<path d="M114.25 151C114.25 147.686 116.936 145 120.25 145H142.75C146.064 145 148.75 147.686 148.75 151V160H114.25V151Z" fill="#E74A43"/>
<rect x="114.25" y="170.5" width="29.25" height="17.25" fill="url(#paint1_linear_3914_494)"/>
<rect x="143.5" y="170.5" width="5.25" height="17.25" fill="url(#paint2_linear_3914_494)" style="mix-blend-mode:multiply"/>
<g filter="url(#filter6_i_3914_494)">
<path d="M129.74 250.448C129.01 255.881 126.764 260.992 123.266 265.186C120.664 268.216 117.458 270.656 113.857 272.348C110.256 274.037 106.342 274.942 102.371 274.997C98.4009 275.055 94.4629 274.268 90.8157 272.682C87.1685 271.095 83.894 268.751 81.2064 265.798C77.6485 261.728 75.2902 256.735 74.3986 251.379C73.5069 246.027 74.1183 240.528 76.1623 235.506C77.7093 231.527 80.1883 227.988 83.387 225.186C84.685 224.017 85.7145 222.577 86.4043 220.962C87.0936 219.35 87.427 217.606 87.3802 215.851V211.869C87.3861 208.682 88.4465 205.583 90.3926 203.07C92.3391 200.557 95.0602 198.773 98.1247 198C98.1247 198 99.5 197.6 101.5 197.6C103.5 197.6 105.5 198 105.5 198C108.491 198.894 111.306 200.791 113.172 203.315C115.038 205.839 116.044 208.906 116.042 212.056V215.295C116.002 217.079 116.351 218.855 117.063 220.489C117.776 222.127 118.835 223.585 120.166 224.761C123.273 227.413 125.743 230.743 127.391 234.498C129.656 239.48 130.47 245.012 129.74 250.448Z" fill="#CDDC51"/>
</g>
<path d="M101 201C101.857 198.2 105.457 192.28 113 191" stroke="#5F3400" stroke-width="4" stroke-linecap="round"/>
<path fill-rule="evenodd" clip-rule="evenodd" d="M80.3697 175.436L80.3697 175.436L91.5792 174.189C97.7701 173.5 104.407 177.725 106.404 183.626C107.403 186.576 107.052 189.386 105.678 191.545L80.3697 175.436Z" fill="#87BF32"/>
<path fill-rule="evenodd" clip-rule="evenodd" d="M80.3697 175.436L80.3697 175.436L83.9853 186.119C85.9822 192.02 92.6196 196.245 98.8105 195.556C101.906 195.212 104.304 193.704 105.678 191.545L80.3697 175.436Z" fill="#669A17"/>
<path d="M106.033 30.5586H52.5642V51.2723H106.033V30.5586Z" fill="url(#paint3_linear_3914_494)"/>
<path d="M30.521 90.5951V51.3222L52.5604 30.5586V90.5951H30.521Z" fill="url(#paint4_linear_3914_494)"/>
<path d="M128.123 90.5951V51.3222L106.033 30.5586V90.5951H128.123Z" fill="url(#paint5_linear_3914_494)"/>
<path d="M144.71 61.0742H173.544V90.557H165.252V68.7558H153.002V90.557H144.71V61.0742Z" fill="black"/>
<path d="M201.815 61.0735H210.107V90.5565H201.815V86.2998C200.723 87.8827 199.253 89.1231 197.555 89.9909C195.857 90.8557 193.973 91.3078 192.053 91.2713C183.91 91.2713 177.842 84.9464 177.842 75.8315C177.842 66.7166 183.797 60.2422 192.242 60.2422C196.05 60.2422 199.818 61.8982 201.815 64.911V61.0702V61.0735ZM201.552 75.8714C201.552 74.8539 201.363 73.8363 200.987 72.8952C200.611 71.9542 200.044 71.0862 199.329 70.3712C198.613 69.6563 197.745 69.0544 196.802 68.6754C195.86 68.2596 194.842 68.0734 193.824 68.0734C191.786 68.1499 189.866 69.0145 188.471 70.4444C187.076 71.9142 186.284 73.8696 186.284 75.9047C186.284 77.9398 187.076 79.8951 188.507 81.3283C189.939 82.7982 191.863 83.6262 193.897 83.6628C195.93 83.6262 197.891 82.7982 199.326 81.3283C200.757 79.8585 201.549 77.9032 201.549 75.8681L201.552 75.8714Z" fill="black"/>
<path d="M234.946 90.5943L228.388 79.8631H223.828V90.5943H215.798V61.1113H223.828V72.8234H228.125L234.909 61.1513H244.029L235.209 75.6865L245.085 90.5974H234.946V90.5943Z" fill="black"/>
<path d="M275.352 78.5077H253.15C254.016 81.9728 256.845 84.0046 260.726 84.0046C262.197 84.0046 263.629 83.702 264.987 83.1001C266.345 82.4982 267.514 81.6302 268.492 80.5396L273.279 85.3979C270.489 89.1255 265.363 91.3467 260.2 91.3467C251.08 91.3467 244.445 84.9457 244.445 75.9073C244.445 66.3435 251.719 60.3545 260.127 60.3545C268.536 60.3545 275.506 66.3435 275.506 75.3786C275.542 76.17 275.469 77.2241 275.356 78.5044L275.352 78.5077ZM267.211 73.1605C266.948 69.6955 264.118 67.4741 260.387 67.4741C256.958 67.4741 254.056 69.1701 253.187 73.1605H267.207H267.211Z" fill="black"/>
<path d="M304 61.0742V68.7924H294.839V90.5935H286.511V68.7924H277.35V61.0742H304Z" fill="black"/>
<path d="M144.71 40.4109C144.71 35.4229 148.725 31.2861 153.718 31.2861C156.833 31.2861 159.56 32.8523 161.181 35.22L158.042 37.4048C157.113 35.965 155.752 35.0904 153.898 35.0904C150.912 35.0904 148.778 37.4813 148.778 40.4109C148.778 43.3406 150.839 45.8114 153.874 45.8114C155.755 45.8114 157.116 44.9368 158.045 43.5002L161.185 45.6849C159.563 48.0493 156.833 49.6189 153.721 49.6189C148.728 49.6189 144.714 45.4522 144.714 40.4109H144.71Z" fill="#2CA0FF"/>
<path d="M167.852 45.7878H175.418V49.3094H163.811V31.5918H175.188V35.1134H167.855V38.7646H174.29V42.3927H167.855V45.7845L167.852 45.7878Z" fill="#2CA0FF"/>
<path d="M186.023 31.5918C190.141 31.5918 191.995 34.5248 191.995 37.4578C191.995 40.3907 190.141 43.2938 186.023 43.2938H182.754V49.3128H178.714V31.5951H186.023V31.5918ZM185.844 39.7689C187.362 39.7689 187.93 38.5851 187.93 37.4578C187.93 36.3304 187.365 35.1167 185.87 35.1167H182.754V39.7722H185.84L185.844 39.7689Z" fill="#2CA0FF"/>
<path d="M208.106 44.2183C208.106 46.6325 206.538 49.3094 202.367 49.3094H194.671V31.5918H201.852C205.093 31.5918 207.181 33.5472 207.181 36.1709C207.181 37.4045 206.715 39.2535 204.684 39.8454C207.024 40.1779 208.109 42.1831 208.109 44.2183H208.106ZM201.569 35.1134H198.712V38.5086H201.542C202.494 38.5086 203.14 37.89 203.14 36.8127C203.14 35.9114 202.677 35.1134 201.569 35.1134ZM201.878 45.7845C203.319 45.7845 204.039 44.8101 204.039 43.8059C204.039 42.8782 203.396 41.824 201.878 41.824H198.712V45.7845H201.878Z" fill="#2CA0FF"/>
<path d="M220.902 31.5918H224.584V49.3094H220.539V39.1271L214.751 49.3094H211.169V31.5918H215.214V41.6444L220.902 31.5918Z" fill="#2CA0FF"/>
<path d="M227.619 40.4109C227.619 35.4229 231.633 31.2861 236.626 31.2861C239.742 31.2861 242.468 32.8523 244.089 35.22L240.946 37.4048C240.021 35.965 238.657 35.0904 236.806 35.0904C233.82 35.0904 231.683 37.4813 231.683 40.4109C231.683 43.3406 233.743 45.8114 236.78 45.8114C238.657 45.8114 240.021 44.9368 240.95 43.5002L244.092 45.6849C242.468 48.0493 239.742 49.6189 236.629 49.6189C231.637 49.6189 227.622 45.4522 227.622 40.4109H227.619Z" fill="#2CA0FF"/>
<rect x="36" y="232.199" width="288" height="36" rx="8" fill="#5FAF2D"/>
<path d="M45 268.199H314L304 366.199H55L45 268.199Z" fill="#5FAF2D"/>
<path d="M45 268.199H314L304 366.199H55L45 268.199Z" fill="url(#paint6_linear_3914_494)" fill-opacity="0.2" style="mix-blend-mode:multiply"/>
<circle cx="180" cy="250.413" r="14" fill="#376B0F"/>
<path d="M165.094 133.965C164.728 132.349 163.121 131.336 161.506 131.702L144.926 135.459C143.31 135.825 142.297 137.432 142.663 139.047L167.266 247.63C168.669 253.824 174.829 257.708 181.023 256.304C187.217 254.901 191.101 248.741 189.697 242.547L165.094 133.965Z" fill="#2D2D2D"/>
<rect x="168" y="351" width="24" height="87" rx="12" fill="#428B10"/>
<path d="M214.351 362.293C214.715 355.954 219.962 351 226.311 351C233.198 351 238.667 356.792 238.272 363.668L234.649 426.707C234.285 433.046 229.038 438 222.689 438C215.802 438 210.333 432.208 210.728 425.332L214.351 362.293Z" fill="#428B10"/>
<path d="M145.649 362.293C145.285 355.954 140.038 351 133.689 351C126.802 351 121.333 356.792 121.728 363.668L125.351 426.707C125.715 433.046 130.962 438 137.311 438C144.198 438 149.667 432.208 149.272 425.332L145.649 362.293Z" fill="#428B10"/>
<path d="M260.786 361.56C261.478 355.542 266.572 351 272.63 351C279.753 351 285.287 357.206 284.473 364.283L277.214 427.44C276.522 433.458 271.428 438 265.37 438C258.247 438 252.713 431.794 253.527 424.717L260.786 361.56Z" fill="#428B10"/>
<path d="M99.2138 361.56C98.5221 355.542 93.4277 351 87.3703 351C80.2469 351 74.7133 357.206 75.5268 364.283L82.7862 427.44C83.4779 433.458 88.5723 438 94.6297 438C101.753 438 107.287 431.794 106.473 424.717L99.2138 361.56Z" fill="#428B10"/>
<path d="M232.008 253.293C232.831 250.236 237.169 250.236 237.992 253.293L240.013 260.801C240.3 261.867 241.133 262.7 242.199 262.987L249.707 265.008C252.764 265.831 252.764 270.169 249.707 270.992L242.199 273.013C241.133 273.3 240.3 274.133 240.013 275.199L237.992 282.707C237.169 285.764 232.831 285.764 232.008 282.707L229.987 275.199C229.7 274.133 228.867 273.3 227.801 273.013L220.293 270.992C217.236 270.169 217.236 265.831 220.293 265.008L227.801 262.987C228.867 262.7 229.7 261.867 229.987 260.801L232.008 253.293Z" fill="#FFA746"/>
<path d="M177.456 315.518H188.465C188.496 315.917 188.496 316.377 188.496 316.745C188.496 323.615 183.527 327.141 178.221 327.141C171.843 327.141 167.303 322.541 167.303 316.132C167.303 309.906 171.843 305.121 178.221 305.121C182.209 305.121 185.858 307.206 187.637 311.071L185.122 311.868C183.742 309.261 181.135 307.727 178.221 307.727C173.56 307.727 170.217 311.163 170.217 316.131C170.217 321.099 173.559 324.534 178.221 324.534C182.116 324.534 185.49 322.326 185.889 318.124H177.455V315.518H177.456Z" fill="white"/>
<path d="M191.87 310.918H194.446V312.758C194.875 311.44 196.225 310.643 198.096 310.643C198.617 310.643 199.323 310.704 199.568 310.796V313.28C199.169 313.127 198.647 313.065 198.126 313.065C195.734 313.065 194.446 314.354 194.446 316.592V326.866H191.87V310.918Z" fill="white"/>
<path d="M209.444 310.642C214.412 310.642 217.908 314.107 217.908 318.861C217.908 323.676 214.443 327.141 209.413 327.141C204.506 327.141 200.979 323.676 200.979 318.861C200.979 314.107 204.414 310.642 209.444 310.642ZM209.413 324.719C212.848 324.719 215.209 322.326 215.209 318.861C215.209 315.426 212.725 313.064 209.413 313.064C206.1 313.064 203.677 315.395 203.677 318.861C203.677 322.296 206.039 324.719 209.413 324.719Z" fill="white"/>
<path d="M232.936 324.319C232.108 326.037 230.084 327.141 227.753 327.141C223.428 327.141 221.19 324.963 221.19 320.057V310.917H223.766V319.688C223.766 322.418 224.686 324.718 228.274 324.718C231.064 324.718 232.935 322.97 232.935 319.995V310.917H235.511V326.865H232.935V324.319H232.936Z" fill="white"/>
<path d="M242.688 324.443V332.999H240.112V310.918H242.688V313.77C243.762 311.899 245.786 310.642 248.731 310.642C253.085 310.642 256.428 313.739 256.428 318.769C256.428 323.737 253.177 327.141 248.516 327.141C245.633 327.141 243.823 326.129 242.688 324.443ZM253.729 318.83C253.729 315.273 251.429 313.065 248.209 313.065C244.835 313.065 242.688 315.181 242.688 318.647V319.23C242.688 322.941 245.204 324.719 248.301 324.719C251.552 324.719 253.729 322.419 253.729 318.83Z" fill="white"/>
<path d="M141.722 326.866L137.274 319.474L132.919 326.866H127.705L134.404 315.733L127.576 305.396H133.024L137.397 312.298L141.569 305.396H146.783L140.066 316.07L146.967 326.866H141.722Z" fill="white"/>
<path d="M163.915 319.567C163.915 324.291 160.357 327.235 155.695 327.235C151.585 327.235 148.125 324.966 147.789 320.028H152.236C152.542 322.174 154.261 323.095 156.131 323.095C158.462 323.095 159.468 321.531 159.468 319.507C159.468 317.39 157.904 316.072 155.726 316.072C153.917 316.072 152.72 316.931 152.168 317.85H147.918L149.387 305.398H163.368L162.901 309.57H152.9L152.502 313.69C152.502 313.69 153.553 312.453 156.737 312.453C160.572 312.451 163.915 315.026 163.915 319.567Z" fill="white"/>
<path d="M148.315 302.724C145.945 293.489 138.43 287 122.832 287H104L106.557 304.286C108.48 319.883 114.445 324.901 125.002 326.749C125.051 326.757 125.385 326.804 125.39 326.413C125.391 326.272 125.302 326.151 125.18 326.098C118.044 323.094 117.23 313.241 115.705 303.354L114.526 295.475H125.276C135.188 295.475 142.84 295.319 147.685 302.97C147.756 303.078 147.869 303.157 148.002 303.157C148.189 303.157 148.328 303.005 148.328 302.818C148.328 302.784 148.324 302.753 148.315 302.724Z" fill="white"/>
</g>
<defs>
<filter id="filter0_f_3914_494" x="96" y="25" width="330" height="330" filterUnits="userSpaceOnUse" color-interpolation-filters="sRGB">
<feFlood flood-opacity="0" result="BackgroundImageFix"/>
<feBlend mode="normal" in="SourceGraphic" in2="BackgroundImageFix" result="shape"/>
<feGaussianBlur stdDeviation="40" result="effect1_foregroundBlur_3914_494"/>
</filter>
<filter id="filter1_ii_3914_494" x="191.872" y="123.072" width="130.255" height="133.856" filterUnits="userSpaceOnUse" color-interpolation-filters="sRGB">
<feFlood flood-opacity="0" result="BackgroundImageFix"/>
<feBlend mode="normal" in="SourceGraphic" in2="BackgroundImageFix" result="shape"/>
<feColorMatrix in="SourceAlpha" type="matrix" values="0 0 0 0 0 0 0 0 0 0 0 0 0 0 0 0 0 0 127 0" result="hardAlpha"/>
<feOffset dy="2"/>
<feGaussianBlur stdDeviation="0.9"/>
<feComposite in2="hardAlpha" operator="arithmetic" k2="-1" k3="1"/>
<feColorMatrix type="matrix" values="0 0 0 0 0.736637 0 0 0 0 0.87765 0 0 0 0 1 0 0 0 1 0"/>
<feBlend mode="soft-light" in2="shape" result="effect1_innerShadow_3914_494"/>
<feColorMatrix in="SourceAlpha" type="matrix" values="0 0 0 0 0 0 0 0 0 0 0 0 0 0 0 0 0 0 127 0" result="hardAlpha"/>
<feOffset dy="-4"/>
<feGaussianBlur stdDeviation="0.9"/>
<feComposite in2="hardAlpha" operator="arithmetic" k2="-1" k3="1"/>
<feColorMatrix type="matrix" values="0 0 0 0 0.0268037 0 0 0 0 0.189308 0 0 0 0 0.370654 0 0 0 0.2 0"/>
<feBlend mode="multiply" in2="effect1_innerShadow_3914_494" result="effect2_innerShadow_3914_494"/>
</filter>
<filter id="filter2_d_3914_494" x="226.545" y="160.653" width="64.9091" height="61.5869" filterUnits="userSpaceOnUse" color-interpolation-filters="sRGB">
<feFlood flood-opacity="0" result="BackgroundImageFix"/>
<feColorMatrix in="SourceAlpha" type="matrix" values="0 0 0 0 0 0 0 0 0 0 0 0 0 0 0 0 0 0 127 0" result="hardAlpha"/>
<feOffset dx="2" dy="2"/>
<feGaussianBlur stdDeviation="1"/>
<feComposite in2="hardAlpha" operator="out"/>
<feColorMatrix type="matrix" values="0 0 0 0 0.223529 0 0 0 0 0.505882 0 0 0 0 0.858824 0 0 0 0.4 0"/>
<feBlend mode="normal" in2="BackgroundImageFix" result="effect1_dropShadow_3914_494"/>
<feBlend mode="normal" in="SourceGraphic" in2="effect1_dropShadow_3914_494" result="shape"/>
</filter>
<filter id="filter3_i_3914_494" x="34.275" y="182.824" width="89.725" height="86.0879" filterUnits="userSpaceOnUse" color-interpolation-filters="sRGB">
<feFlood flood-opacity="0" result="BackgroundImageFix"/>
<feBlend mode="normal" in="SourceGraphic" in2="BackgroundImageFix" result="shape"/>
<feColorMatrix in="SourceAlpha" type="matrix" values="0 0 0 0 0 0 0 0 0 0 0 0 0 0 0 0 0 0 127 0" result="hardAlpha"/>
<feOffset dx="-6.36563" dy="3.6375"/>
<feComposite in2="hardAlpha" operator="arithmetic" k2="-1" k3="1"/>
<feColorMatrix type="matrix" values="0 0 0 0 0 0 0 0 0 0 0 0 0 0 0 0 0 0 0.08 0"/>
<feBlend mode="normal" in2="shape" result="effect1_innerShadow_3914_494"/>
</filter>
<filter id="filter4_i_3914_494" x="97" y="145" width="69" height="147" filterUnits="userSpaceOnUse" color-interpolation-filters="sRGB">
<feFlood flood-opacity="0" result="BackgroundImageFix"/>
<feBlend mode="normal" in="SourceGraphic" in2="BackgroundImageFix" result="shape"/>
<feColorMatrix in="SourceAlpha" type="matrix" values="0 0 0 0 0 0 0 0 0 0 0 0 0 0 0 0 0 0 127 0" result="hardAlpha"/>
<feOffset dx="-5.25" dy="3"/>
<feComposite in2="hardAlpha" operator="arithmetic" k2="-1" k3="1"/>
<feColorMatrix type="matrix" values="0 0 0 0 0 0 0 0 0 0 0 0 0 0 0 0 0 0 0.08 0"/>
<feBlend mode="normal" in2="shape" result="effect1_innerShadow_3914_494"/>
</filter>
<filter id="filter5_d_3914_494" x="112" y="160" width="39" height="10.5" filterUnits="userSpaceOnUse" color-interpolation-filters="sRGB">
<feFlood flood-opacity="0" result="BackgroundImageFix"/>
<feColorMatrix in="SourceAlpha" type="matrix" values="0 0 0 0 0 0 0 0 0 0 0 0 0 0 0 0 0 0 127 0" result="hardAlpha"/>
<feOffset dy="3"/>
<feComposite in2="hardAlpha" operator="out"/>
<feColorMatrix type="matrix" values="0 0 0 0 0.825081 0 0 0 0 0.825081 0 0 0 0 0.825081 0 0 0 1 0"/>
<feBlend mode="normal" in2="BackgroundImageFix" result="effect1_dropShadow_3914_494"/>
<feBlend mode="normal" in="SourceGraphic" in2="effect1_dropShadow_3914_494" result="shape"/>
</filter>
<filter id="filter6_i_3914_494" x="74" y="197.6" width="56" height="77.4004" filterUnits="userSpaceOnUse" color-interpolation-filters="sRGB">
<feFlood flood-opacity="0" result="BackgroundImageFix"/>
<feBlend mode="normal" in="SourceGraphic" in2="BackgroundImageFix" result="shape"/>
<feColorMatrix in="SourceAlpha" type="matrix" values="0 0 0 0 0 0 0 0 0 0 0 0 0 0 0 0 0 0 127 0" result="hardAlpha"/>
<feOffset dx="-5.25" dy="3"/>
<feComposite in2="hardAlpha" operator="arithmetic" k2="-1" k3="1"/>
<feColorMatrix type="matrix" values="0 0 0 0 0 0 0 0 0 0 0 0 0 0 0 0 0 0 0.08 0"/>
<feBlend mode="normal" in2="shape" result="effect1_innerShadow_3914_494"/>
</filter>
<linearGradient id="paint0_linear_3914_494" x1="257" y1="123" x2="257" y2="257" gradientUnits="userSpaceOnUse">
<stop stop-color="#ADEBFF"/>
<stop offset="0.392724" stop-color="#7DC0F0"/>
<stop offset="1" stop-color="#266FD5"/>
</linearGradient>
<linearGradient id="paint1_linear_3914_494" x1="128.875" y1="179.125" x2="128.875" y2="170.5" gradientUnits="userSpaceOnUse">
<stop stop-color="white"/>
<stop offset="1" stop-color="#E0E0E0"/>
</linearGradient>
<linearGradient id="paint2_linear_3914_494" x1="146.125" y1="179.125" x2="146.125" y2="170.5" gradientUnits="userSpaceOnUse">
<stop stop-color="white"/>
<stop offset="1" stop-color="#E0E0E0"/>
</linearGradient>
<linearGradient id="paint3_linear_3914_494" x1="57.9201" y1="34.3295" x2="98.8426" y2="46.9625" gradientUnits="userSpaceOnUse">
<stop stop-color="#00F0FF"/>
<stop offset="1" stop-color="#0184FF"/>
</linearGradient>
<linearGradient id="paint4_linear_3914_494" x1="41.5424" y1="85.0848" x2="41.5424" y2="35.5633" gradientUnits="userSpaceOnUse">
<stop stop-color="#0184FF"/>
<stop offset="1" stop-color="#2FAAF4"/>
</linearGradient>
<linearGradient id="paint5_linear_3914_494" x1="117.078" y1="89.6504" x2="117.078" y2="34.16" gradientUnits="userSpaceOnUse">
<stop offset="0.17" stop-color="#0184FF"/>
<stop offset="0.91" stop-color="#04BBE4"/>
</linearGradient>
<linearGradient id="paint6_linear_3914_494" x1="157" y1="294.199" x2="157" y2="268.199" gradientUnits="userSpaceOnUse">
<stop stop-color="#830400" stop-opacity="0"/>
<stop offset="1" stop-color="#3F0200"/>
</linearGradient>
<clipPath id="clip0_3914_494">
<rect width="360" height="360" rx="8" fill="white"/>
</clipPath>
</defs>
</svg>
