<svg width="360" height="360" viewBox="0 0 360 360" fill="none" xmlns="http://www.w3.org/2000/svg">
<g clip-path="url(#clip0_4455_24483)">
<rect width="360" height="360" rx="8" fill="#EBEEF2"/>
<g clip-path="url(#clip1_4455_24483)">
<path d="M52.633 30.0103C52.633 30.0103 52.5345 30.0035 52.3528 30.0008L52.0956 30C51.9242 30.0029 51.7139 30.0074 51.4726 30.0221C51.2358 30.0501 50.9648 30.0825 50.6689 30.1355C50.3714 30.1826 50.0568 30.2577 49.725 30.3578C49.5568 30.405 49.387 30.458 49.2126 30.5139C49.0428 30.5802 48.8699 30.6494 48.6939 30.7245C48.5163 30.7996 48.3388 30.8806 48.1581 30.966C47.9852 31.0617 47.8108 31.1604 47.6348 31.2635L47.5899 31.2907C47.4295 31.388 47.2654 31.4875 47.113 31.6007C46.9447 31.7214 46.7781 31.8495 46.613 31.9865C45.2968 33.0717 44.5445 34.4338 44.1567 35.4646C44.0633 35.7282 43.9807 35.9638 43.9215 36.1773C43.8623 36.3953 43.8218 36.5838 43.7891 36.7384C43.7268 37.0506 43.7081 37.2302 43.7081 37.2302C43.7081 37.2302 43.8919 37.1669 44.1972 37.0329L44.2556 37.0065C44.3953 36.9432 44.5561 36.8704 44.7361 36.784C44.9433 36.6898 45.1769 36.5749 45.4199 36.4498C46.4121 35.9447 47.6534 35.2305 48.8014 34.2866C49.9462 33.3338 50.8355 32.2884 51.521 31.4549C51.6702 31.2774 51.8063 31.1011 51.9291 30.942L51.9788 30.8776C52.1174 30.7083 52.2374 30.5581 52.334 30.43C52.5287 30.1723 52.633 30.0103 52.633 30.0103Z" fill="#232A33"/>
<path d="M85.2437 30.6609C85.4727 30.6712 85.7314 30.6992 86.0163 30.736C86.0553 30.7421 86.095 30.7479 86.1355 30.7539C86.2419 30.7695 86.3523 30.7857 86.4617 30.8082C86.6144 30.8391 86.7686 30.8774 86.9306 30.9216C87.0927 30.9613 87.2592 31.0084 87.4292 31.057C87.5972 31.11 87.7655 31.1778 87.9369 31.247C88.1081 31.3133 88.2843 31.3854 88.4617 31.4664C88.6346 31.5503 88.8043 31.6416 88.9773 31.7388C89.1502 31.836 89.3231 31.9391 89.4929 32.0525C89.6594 32.1659 89.8247 32.291 89.9865 32.4162C91.2966 33.4558 92.0692 34.7826 92.4741 35.7972C92.5752 36.0578 92.6562 36.292 92.7249 36.5055C92.7839 36.716 92.8306 36.903 92.8635 37.0606C92.9334 37.3699 92.9569 37.5466 92.9569 37.5466C92.9569 37.5466 92.7731 37.4891 92.4724 37.3699C92.3229 37.3109 92.1406 37.2329 91.9368 37.1416L91.8048 37.0845C91.6355 37.0114 91.4497 36.9312 91.2591 36.8383C90.2778 36.367 89.0489 35.7118 87.9151 34.8076C86.7827 33.9049 85.9041 32.8992 85.2299 32.0908C85.0631 31.8982 84.9149 31.7086 84.7836 31.5405L84.7797 31.5356C84.6411 31.3692 84.5243 31.2249 84.4262 31.0997C84.236 30.8494 84.1317 30.6933 84.1317 30.6933C84.1317 30.6933 84.3155 30.6712 84.6441 30.6609L84.7089 30.6597C84.861 30.6567 85.0399 30.6532 85.2437 30.6609Z" fill="#232A33"/>
<path d="M42.0883 33.8499C41.8126 33.1564 41.473 32.7617 41.473 32.7617C41.473 32.7617 41.3235 32.9252 41.0883 33.2094L41.0305 33.2809C40.9283 33.4069 40.8097 33.5533 40.6911 33.7233C40.5478 33.9206 40.3937 34.1474 40.2363 34.3918C39.6195 35.3784 39.0074 36.7037 38.942 37.9613C38.8641 39.2174 39.2909 40.1407 39.7239 40.7488C40.1553 41.354 40.5837 41.6515 40.5837 41.6515C40.5837 41.6515 40.5897 41.6531 40.6015 41.6568C40.6969 41.687 41.1687 41.8363 41.8453 41.8782C42.6054 41.9283 43.6271 41.862 44.6863 41.4203C45.7408 40.9682 46.6784 40.2614 47.3591 39.6738C47.5335 39.5266 47.6877 39.3867 47.8232 39.2586C47.8766 39.2087 47.928 39.1616 47.9768 39.1169C48.0519 39.048 48.121 38.9847 48.1815 38.9258C48.3762 38.7344 48.4852 38.6151 48.4852 38.6151C48.4852 38.6151 48.0506 38.3235 47.3341 38.1115C46.9775 38.0098 46.5398 37.923 46.0554 37.9171C45.5757 37.9141 45.0289 37.9789 44.4651 38.1836C43.3234 38.5782 42.3297 39.4515 41.6412 40.2202C41.3048 40.6089 41.0291 40.9594 40.8562 41.2259C40.7096 41.4456 40.6181 41.5947 40.5917 41.6382C40.6182 41.5942 40.7075 41.4429 40.8282 41.2097C40.8671 41.1309 40.9112 41.0438 40.9592 40.9492C41.0842 40.7027 41.235 40.4052 41.3858 40.07C41.8095 39.1393 42.2783 37.9289 42.4372 36.7317C42.5104 36.1309 42.5026 35.589 42.4232 35.1031C42.3515 34.6201 42.2316 34.2004 42.0883 33.8499Z" fill="#232A33"/>
<path d="M95.1236 33.1816C95.1236 33.1816 95.2699 33.3421 95.4989 33.6205C95.611 33.7589 95.7481 33.9282 95.8914 34.1226C96.0283 34.3199 96.181 34.5423 96.3322 34.7838C96.935 35.7542 97.5346 37.0559 97.5922 38.3046C97.6577 39.543 97.2246 40.4575 96.7917 41.0598C96.3571 41.6621 95.9241 41.9565 95.9241 41.9565C95.9241 41.9565 95.4272 42.1377 94.6687 42.1907C93.9118 42.2481 92.8931 42.1878 91.8464 41.7592C90.7996 41.3234 89.8808 40.6372 89.211 40.0658C89.0427 39.923 88.8901 39.7875 88.7576 39.6623C88.7067 39.6152 88.6579 39.571 88.6118 39.5293C88.5361 39.4607 88.4662 39.3973 88.4073 39.3399C88.2173 39.1514 88.1113 39.035 88.1113 39.035L88.1619 39.0031C88.2951 38.9219 88.6854 38.7016 89.2562 38.5285C89.6127 38.421 90.0443 38.3297 90.5271 38.3208C91.0007 38.312 91.5442 38.3709 92.0986 38.5653C93.2264 38.9482 94.2092 39.8008 94.8852 40.5518C95.2185 40.9317 95.4895 41.2792 95.6577 41.5369C95.8044 41.7553 95.8916 41.9012 95.9166 41.9437L95.8946 41.9062C95.8562 41.8397 95.7829 41.7092 95.6874 41.5236C95.6518 41.4513 95.6115 41.3719 95.568 41.286C95.4436 41.0411 95.2925 40.7427 95.1438 40.4016C94.7263 39.49 94.273 38.2958 94.125 37.1148C94.058 36.5228 94.0736 35.9898 94.1561 35.5068C94.2325 35.0253 94.3587 34.6115 94.5005 34.2684C94.7272 33.7147 94.9899 33.3514 95.0858 33.2282L95.1236 33.1816Z" fill="#232A33"/>
<path d="M35.1649 41.8675C34.9795 41.7069 34.858 41.6289 34.858 41.6289C34.858 41.6289 34.7474 41.8365 34.5995 42.1988C34.4515 42.5595 34.2506 43.0676 34.0855 43.6728C33.7428 44.8729 33.5092 46.4397 33.8238 47.8004C33.9702 48.4792 34.2475 49.0402 34.5434 49.4879C34.8487 49.9429 35.2007 50.2904 35.52 50.554C36.1679 51.0797 36.7162 51.2771 36.7162 51.2771C36.7162 51.2771 37.305 51.3241 38.1336 51.171C38.5495 51.09 39.0198 50.9649 39.5105 50.7602C40.012 50.5599 40.5136 50.2757 41.0151 49.9017C42.001 49.1345 42.7736 48.1155 43.3265 47.285C43.5991 46.8682 43.8218 46.5016 43.9698 46.2365C44.1131 45.97 44.2003 45.8095 44.2003 45.8095C44.2003 45.8095 44.0601 45.7653 43.8156 45.7182C43.5726 45.6711 43.2237 45.618 42.8094 45.6151C42.3967 45.6092 41.9091 45.6504 41.3889 45.7785C40.8656 45.9125 40.322 46.1452 39.7753 46.5119C38.6912 47.2599 37.8891 48.4571 37.4015 49.4599C37.2785 49.7117 37.1757 49.9518 37.0838 50.1682C36.9981 50.3876 36.9327 50.582 36.8782 50.7455C36.7992 50.98 36.7504 51.1507 36.729 51.2291L36.7433 51.1716C36.7661 51.08 36.8014 50.9316 36.8424 50.7381C36.8766 50.5702 36.914 50.3685 36.9514 50.1373C36.9981 49.9061 37.0417 49.6484 37.0776 49.3701C37.2396 48.2657 37.3782 46.8506 37.1632 45.537C37.0604 44.8847 36.8611 44.3089 36.6321 43.82C36.4016 43.3282 36.129 42.9233 35.8673 42.5978C35.6026 42.2709 35.3502 42.025 35.1649 41.8675Z" fill="#232A33"/>
<path d="M101.735 41.8535C101.735 41.8535 101.846 42.0611 101.989 42.416C102.136 42.7724 102.336 43.2775 102.498 43.8724C102.833 45.0607 103.059 46.6084 102.742 47.9558C102.592 48.6258 102.316 49.1839 102.016 49.6256C101.709 50.0762 101.357 50.4193 101.036 50.6844C100.388 51.2027 99.8366 51.3957 99.8366 51.3957C99.8366 51.3957 99.2494 51.4486 98.4222 51.2984C98.0079 51.2233 97.5375 51.0952 97.0486 50.8979C96.547 50.7035 96.0485 50.4252 95.5487 50.0556C94.5689 49.3061 93.7995 48.3003 93.2558 47.486C92.9894 47.0781 92.7653 46.7173 92.6188 46.4552C92.477 46.1916 92.396 46.0341 92.396 46.0341C92.396 46.0341 92.5331 45.9914 92.7777 45.9413C93.0208 45.8942 93.3664 45.8426 93.7807 45.8368C94.1936 45.8279 94.6778 45.8647 95.1981 45.9914C95.7184 46.1165 96.2588 46.3448 96.8055 46.7085C97.8787 47.4389 98.6777 48.614 99.1607 49.6094C99.282 49.8553 99.385 50.0924 99.4737 50.3059C99.5515 50.5002 99.6114 50.6786 99.6626 50.8311L99.6778 50.8758C99.7699 51.1548 99.8208 51.3375 99.8334 51.384L99.8243 51.3492C99.8044 51.2731 99.7628 51.1058 99.7151 50.867C99.6808 50.7035 99.6449 50.5003 99.6061 50.2706C99.5624 50.0453 99.5204 49.792 99.4831 49.5196C99.3242 48.4255 99.1948 47.031 99.4161 45.7307C99.5204 45.0858 99.7213 44.5144 99.9565 44.0299C100.185 43.544 100.46 43.139 100.724 42.8166C100.989 42.4911 101.24 42.2496 101.425 42.0921C101.612 41.933 101.735 41.8535 101.735 41.8535Z" fill="#232A33"/>
<path d="M30.88 51.7754C30.88 51.7754 31.489 51.9876 32.2258 52.5486C32.5918 52.8254 33.0061 53.1949 33.3955 53.6589C33.7787 54.1167 34.1634 54.6792 34.4702 55.3479C35.101 56.6864 35.4048 58.2209 35.6415 59.4267C35.6752 59.603 35.7009 59.7743 35.7251 59.9357C35.7423 60.0506 35.7589 60.1611 35.777 60.2647C35.8238 60.518 35.858 60.7432 35.883 60.9317C35.9123 61.1447 35.93 61.3094 35.9397 61.4117L35.9463 61.4761C35.9408 61.3885 35.9301 61.1961 35.9234 60.926C35.9203 60.7402 35.9203 60.5121 35.9266 60.2587C35.9339 60.0212 35.9662 59.7519 36 59.4711L36.006 59.4209C36.1462 58.2179 36.6166 56.732 37.5277 55.6614C37.9919 55.1255 38.4934 54.7426 39.0121 54.4732C39.5214 54.1977 40.0152 54.0344 40.4638 53.9372C40.9807 53.8237 41.4156 53.7934 41.6882 53.7881H41.8802C41.9546 53.7896 41.9949 53.7928 41.9949 53.7928C41.9949 53.7928 41.9559 53.9843 41.8718 54.292C41.8558 54.3502 41.8396 54.4131 41.8223 54.4803C41.7941 54.5897 41.763 54.7104 41.7254 54.8398C41.6855 54.9763 41.6389 55.1228 41.5899 55.2765C41.5644 55.3569 41.5382 55.4392 41.512 55.523C41.1802 56.5096 40.7052 57.7289 39.9279 58.7729C39.5541 59.2988 39.1056 59.7316 38.6632 60.0924C38.2318 60.4517 37.7847 60.7375 37.3844 60.9509C36.981 61.1658 36.6244 61.3117 36.3642 61.4015C36.1088 61.4957 35.9499 61.5296 35.9499 61.5296C35.9499 61.5296 35.791 61.5237 35.52 61.4765C35.2537 61.4324 34.8768 61.3426 34.4453 61.1763C34.0139 61.004 33.5248 60.7537 33.0357 60.3737C32.556 59.9849 32.0949 59.4711 31.6869 58.7789C30.8987 57.3961 30.6433 55.601 30.6526 54.1977C30.6464 53.8474 30.6667 53.5233 30.6869 53.2288C30.7118 52.9373 30.7352 52.6737 30.7632 52.4558C30.8271 52.0287 30.88 51.7754 30.88 51.7754Z" fill="#232A33"/>
<path d="M95.0082 61.6631C94.731 61.5718 94.5596 61.5352 94.5596 61.5352C94.5596 61.5352 94.5331 61.7249 94.5176 62.0491L94.5131 62.0945C94.4984 62.2469 94.4811 62.4258 94.4741 62.6278C94.4636 62.7472 94.4619 62.8768 94.46 63.0139C94.4585 63.1255 94.4568 63.2417 94.4506 63.3611C94.4412 64.4271 94.4585 65.7937 94.8681 67.1219C95.2714 68.4472 95.9895 69.4809 96.6623 70.1981C96.9911 70.5529 97.2948 70.8224 97.5238 71.0007C97.7526 71.1832 97.8976 71.2702 97.8976 71.2702C97.8976 71.2702 98.0658 71.3216 98.3601 71.3702C98.6546 71.4143 99.0798 71.4615 99.5875 71.4395C100.586 71.3864 101.981 71.086 103.307 69.9522C104.631 68.8257 105.6 67.0748 106.114 65.6022C106.218 65.325 106.295 65.0561 106.366 64.8045C106.389 64.7234 106.412 64.6441 106.434 64.5671C106.517 64.2505 106.59 63.9663 106.64 63.7276C106.708 63.3688 106.744 63.1184 106.758 63.0156L106.765 62.9634C106.765 62.9634 106.589 62.9694 106.293 63.0195C105.997 63.0754 105.581 63.1726 105.1 63.3464C104.626 63.5244 104.055 63.7718 103.488 64.1253C103.203 64.3006 102.914 64.5023 102.629 64.7335C102.334 64.9616 102.038 65.2194 101.751 65.5079C100.624 66.6488 99.7521 68.0651 99.0574 69.1935L99.019 69.2556C98.9365 69.3999 98.8554 69.5413 98.7791 69.6724C98.6998 69.8048 98.6249 69.93 98.5565 70.0522C98.4162 70.2953 98.2993 70.5117 98.2044 70.6915L98.1274 70.8375L97.9586 71.1563L97.9046 71.257L97.9176 71.2308C97.9306 71.2045 97.9496 71.1655 97.9739 71.1141L97.9912 71.0781C98.039 70.9798 98.1044 70.8452 98.1639 70.678L98.1805 70.6331C98.2483 70.4492 98.3262 70.2381 98.4053 69.9948L98.5362 69.5812C98.5742 69.4502 98.6047 69.3123 98.6367 69.1671L98.6467 69.1216C98.9582 67.8612 99.0331 66.1884 98.4957 64.8085C98.3571 64.461 98.195 64.1503 98.0174 63.875C97.8259 63.5937 97.6172 63.3464 97.4054 63.1327C96.9738 62.6939 96.5299 62.3804 96.0955 62.1418C95.6686 61.9077 95.284 61.7603 95.0082 61.6631Z" fill="#232A33"/>
<path d="M42.2051 61.5723C42.2051 61.5723 42.2347 61.7697 42.2503 62.0981L42.2614 62.2233C42.2737 62.3583 42.2876 62.5109 42.297 62.6811C42.3051 62.7977 42.3069 62.9225 42.3087 63.0536C42.3104 63.1724 42.3121 63.2967 42.3188 63.4249C42.3328 64.5028 42.3188 65.8899 41.9154 67.2283C41.5151 68.564 40.8017 69.6095 40.1288 70.3311C39.8033 70.6844 39.4965 70.9555 39.2706 71.1365C39.0432 71.3178 38.8968 71.406 38.8968 71.406C38.8968 71.406 38.7302 71.4561 38.4358 71.5003C38.1399 71.5474 37.7162 71.5901 37.2037 71.5679C36.2054 71.512 34.8067 71.2058 33.4749 70.0586C32.1479 68.9174 31.1744 67.1533 30.6573 65.6675C30.5413 65.3617 30.4584 65.0629 30.3821 64.7879C30.3661 64.7305 30.3505 64.6742 30.3349 64.619C30.2492 64.2981 30.176 64.0138 30.1262 63.7752C30.0374 63.2952 30 63.0007 30 63.0007C30 63.0007 30.176 63.008 30.4735 63.0611C30.7694 63.1169 31.1869 63.2172 31.6666 63.391C32.1401 63.569 32.7117 63.8223 33.2802 64.1801C33.5668 64.3584 33.855 64.5646 34.14 64.7972C34.4375 65.0254 34.7335 65.2862 35.02 65.5807C36.1422 66.7219 37.0134 68.138 37.7127 69.2748L37.7691 69.3664C37.843 69.5036 37.9168 69.6317 37.9883 69.756L38.009 69.7921C38.0419 69.8488 38.0746 69.904 38.1067 69.9586C38.1505 70.0328 38.1936 70.1057 38.2349 70.1778C38.3735 70.4209 38.4919 70.6388 38.5884 70.8228C38.7412 71.1131 38.8453 71.309 38.8821 71.3783L38.8746 71.3628C38.8617 71.3361 38.8431 71.2977 38.8205 71.2485C38.8117 71.2297 38.8019 71.2092 38.7914 71.1873C38.7454 71.0915 38.6843 70.964 38.6274 70.8036C38.5557 70.6124 38.4716 70.381 38.3828 70.1175C38.3564 70.0302 38.3281 69.9422 38.2985 69.8507C38.2828 69.8019 38.2667 69.7522 38.2504 69.7008C38.221 69.5938 38.1956 69.482 38.1696 69.3673C38.1599 69.3242 38.15 69.2807 38.1398 69.237C37.8205 67.9589 37.7411 66.2726 38.2785 64.881C38.414 64.5277 38.5744 64.217 38.7535 63.9358C38.942 63.653 39.1491 63.4057 39.3641 63.1892C39.7924 62.7474 40.2363 62.4278 40.6709 62.1894C41.0977 61.9523 41.4824 61.8006 41.7596 61.7064C42.0369 61.6106 42.2051 61.5723 42.2051 61.5723Z" fill="#232A33"/>
<path d="M92.3446 68.9129C92.0924 68.7319 91.932 68.6406 91.932 68.6406C91.932 68.6406 91.8339 68.8261 91.6998 69.1515C91.6674 69.2428 91.6237 69.3411 91.5763 69.4479C91.5371 69.536 91.4955 69.6298 91.4554 69.7303C91.4055 69.8492 91.3578 69.9789 91.3079 70.1149C91.2657 70.2297 91.2217 70.3493 91.1733 70.471C90.7887 71.5607 90.3291 72.958 90.2686 74.4321C90.2483 75.1771 90.3121 75.8606 90.4492 76.4907C90.594 77.124 90.7778 77.6775 90.9833 78.1503C91.1859 78.6215 91.4023 79.003 91.5706 79.2606C91.7341 79.5242 91.8525 79.664 91.8525 79.664C91.8525 79.664 92.0052 79.7715 92.2839 79.9159C92.566 80.0617 92.9786 80.2413 93.5097 80.3886C94.0347 80.533 94.6872 80.6477 95.4178 80.6198C96.1513 80.5948 96.9972 80.4534 97.8787 80.0779C99.6637 79.3416 101.293 77.8351 102.348 76.4774C102.57 76.2005 102.759 75.9264 102.933 75.674L102.984 75.5996L103.047 75.5085L103.112 75.4115C103.287 75.1503 103.444 74.9161 103.558 74.7074C103.753 74.3617 103.881 74.1146 103.933 74.0127L103.96 73.9608C103.96 73.9608 103.777 73.9107 103.453 73.8711C103.129 73.8299 102.667 73.8018 102.109 73.8269C101.83 73.8416 101.528 73.8741 101.207 73.9212C100.882 73.9668 100.538 74.0331 100.181 74.1244C99.8258 74.2127 99.455 74.3319 99.0797 74.4807C98.695 74.6191 98.2992 74.7944 97.9052 74.9991C97.7318 75.0874 97.5687 75.1831 97.4021 75.281L97.3181 75.3305C97.1203 75.4409 96.9271 75.5601 96.7403 75.6823C96.4628 75.8621 96.1965 76.0516 95.9325 76.2393L95.8315 76.3111C95.7703 76.3546 95.7093 76.3977 95.6483 76.4408C95.4724 76.5687 95.3009 76.7028 95.1359 76.8323L95.0116 76.9346L94.8898 77.0327C94.8073 77.0975 94.7263 77.1607 94.6437 77.224C94.3196 77.4773 94.0207 77.7336 93.7464 77.975C93.3805 78.2705 93.0649 78.5556 92.7948 78.8C92.6408 78.9392 92.5014 79.0653 92.3758 79.1723C92.2922 79.2478 92.2175 79.3162 92.1527 79.3764L91.9885 79.5314L91.9156 79.6016L91.8881 79.628C91.9561 79.5583 92.1186 79.3894 92.3416 79.1414C92.6468 78.813 93.0176 78.3049 93.4149 77.7159C93.6002 77.411 93.787 77.0798 93.9646 76.7338C93.9863 76.6888 94.0085 76.6442 94.0307 76.5996C94.0531 76.5551 94.0752 76.5107 94.097 76.4657L94.1194 76.413C94.1497 76.3412 94.181 76.2674 94.2121 76.1917C94.2885 76.0047 94.3586 75.8164 94.4241 75.6249C94.5659 75.2464 94.6608 74.8445 94.7263 74.4438C94.7606 74.2436 94.787 74.0434 94.8056 73.8431C94.8229 73.6472 94.8167 73.4412 94.8103 73.2437C94.79 72.8433 94.7371 72.475 94.6499 72.1319C94.5533 71.7858 94.4288 71.4679 94.2885 71.1762C94.1437 70.8877 93.9863 70.6271 93.8198 70.3855C93.6484 70.1484 93.4645 69.932 93.2886 69.7465C92.9366 69.3739 92.5954 69.0957 92.3446 68.9129Z" fill="#232A33"/>
<path d="M44.9651 68.7305C44.9651 68.7305 45.0617 68.919 45.1972 69.2459C45.2286 69.3297 45.2687 69.4203 45.3121 69.5184C45.3548 69.6148 45.4009 69.7188 45.4449 69.8305C45.5037 69.9664 45.559 70.1171 45.6174 70.276C45.6532 70.3737 45.6902 70.4745 45.7299 70.5771C46.1209 71.6712 46.585 73.0832 46.6535 74.5663C46.68 75.3143 46.6177 75.9975 46.4807 76.6306C46.3389 77.2669 46.1567 77.822 45.9526 78.2947C45.7486 78.766 45.5368 79.1502 45.3701 79.408C45.205 79.6686 45.0882 79.8115 45.0882 79.8115C45.0882 79.8115 44.9356 79.9159 44.6536 80.0633C44.3717 80.2074 43.959 80.3887 43.4278 80.533C42.8998 80.6772 42.2441 80.7891 41.512 80.7582C40.7768 80.7303 39.9295 80.5889 39.0433 80.2074C37.2521 79.4639 35.6166 77.9471 34.5575 76.5807C34.3135 76.2792 34.1102 75.9813 33.9235 75.7075L33.855 75.6073L33.7993 75.5244C33.6193 75.2563 33.4586 75.0173 33.3441 74.8047C33.0778 74.3379 32.936 74.0494 32.936 74.0494C32.936 74.0494 33.1183 74.0023 33.4438 73.9609C33.7662 73.9242 34.2304 73.8918 34.7895 73.9242C35.0683 73.939 35.3674 73.9684 35.6929 74.0155C36.0185 74.0641 36.3643 74.1302 36.7209 74.2217C37.0776 74.313 37.4483 74.4322 37.8237 74.5823C38.21 74.7266 38.6056 74.8989 39.0043 75.1081C39.1338 75.1744 39.258 75.2463 39.3829 75.3186C39.4519 75.3585 39.5212 75.3988 39.5915 75.438C39.7909 75.5557 39.9825 75.6721 40.1725 75.7973C40.4846 76.0029 40.7848 76.2178 41.0848 76.4325L41.2675 76.563C41.4288 76.682 41.5851 76.8036 41.7373 76.9221L41.783 76.9575L41.8061 76.9769L41.81 76.9801L41.8121 76.982C41.8837 77.0417 41.9563 77.1025 42.0276 77.1607C42.0729 77.1938 42.1166 77.2279 42.1596 77.2614C42.1994 77.2925 42.2387 77.3232 42.2783 77.3522C42.6023 77.6115 42.9029 77.8661 43.1817 78.1107C43.5502 78.4064 43.8668 78.6945 44.1383 78.9415C44.2925 79.0818 44.4322 79.2089 44.5586 79.3165C44.8544 79.5795 45.038 79.7611 45.0793 79.8025L45.0531 79.7761C44.9842 79.7061 44.8183 79.5353 44.5929 79.2856C44.2829 78.9587 43.9122 78.4433 43.5104 77.8529C43.3235 77.5437 43.135 77.2079 42.9575 76.8605C42.9349 76.8161 42.9131 76.7724 42.8912 76.7287C42.8695 76.6848 42.8476 76.6411 42.8251 76.5969C42.8055 76.5528 42.7867 76.508 42.7678 76.463C42.7474 76.4146 42.7269 76.3658 42.7051 76.317C42.6319 76.1299 42.5587 75.9414 42.4902 75.7472C42.35 75.3657 42.2519 74.9608 42.1849 74.5603C42.1475 74.3571 42.1226 74.1554 42.1055 73.9552C42.0863 73.7652 42.0908 73.5724 42.0954 73.3809L42.0961 73.3498C42.1148 72.9493 42.1693 72.5798 42.2519 72.2352C42.35 71.8876 42.473 71.5665 42.6148 71.275C42.7565 70.985 42.9138 70.7185 43.0789 70.4828C43.2487 70.2442 43.4341 70.0293 43.6069 69.8438C43.9605 69.4653 44.3 69.1885 44.5524 69.0043C44.8032 68.8217 44.9651 68.7305 44.9651 68.7305Z" fill="#232A33"/>
<path d="M87.5303 74.9865C87.3356 74.7229 87.2017 74.5801 87.2017 74.5801C87.2017 74.5801 87.0396 74.7362 86.7967 75.0174C86.7355 75.0946 86.6635 75.1746 86.5854 75.2614C86.5148 75.34 86.4391 75.4243 86.3622 75.5166C86.2796 75.6138 86.1939 75.7168 86.1082 75.8243L86.0794 75.862C86.0449 75.9075 86.0112 75.9512 85.9758 75.9951C85.941 76.038 85.9052 76.0802 85.8685 76.1233L85.831 76.1674C85.0819 77.1231 84.169 78.3674 83.5726 79.8003C83.4308 80.1668 83.3046 80.5114 83.2097 80.8692C83.1161 81.2256 83.0491 81.5806 82.993 81.909C82.8841 82.579 82.8591 83.2121 82.8747 83.7643C82.8873 84.3062 82.9463 84.7612 83.0041 85.0836C83.0632 85.4033 83.1208 85.5873 83.1208 85.5873C83.1208 85.5873 83.23 85.7508 83.4511 86.0012C83.6754 86.2515 84.0149 86.5871 84.4914 86.9287C84.9618 87.2616 85.5662 87.593 86.3325 87.8344C86.7189 87.9595 87.1332 88.045 87.5881 88.0979C88.0444 88.145 88.5489 88.1732 89.0786 88.1288C89.6036 88.0819 90.1501 87.9919 90.6938 87.8625C91.2265 87.7211 91.7606 87.5429 92.2871 87.3397C92.798 87.1262 93.2949 86.8846 93.7715 86.6402C94.2418 86.3869 94.6749 86.1116 95.0814 85.8479L95.1737 85.7877L95.2266 85.7536L95.2289 85.7521C95.2803 85.7188 95.3311 85.686 95.3805 85.6536C95.4754 85.5843 95.5658 85.5182 95.6577 85.4504C95.804 85.3421 95.9422 85.2367 96.0752 85.135L96.164 85.0674C96.4832 84.8171 96.7668 84.5919 96.98 84.3872C97.0781 84.2989 97.1666 84.2177 97.2448 84.1447L97.4493 83.9522C97.5933 83.8144 97.67 83.7364 97.67 83.7364C97.67 83.7364 97.5003 83.6317 97.1794 83.4918C96.8587 83.3504 96.3945 83.1782 95.8104 83.0368C95.5191 82.9677 95.1982 82.9059 94.8508 82.8557C94.4988 82.8056 94.1235 82.7645 93.7233 82.7513C93.3245 82.7306 92.907 82.7393 92.4647 82.7702C92.0161 82.7924 91.5519 82.8483 91.0723 82.9368C90.1004 83.1001 89.147 83.3814 88.2312 83.6701C88.042 83.7364 87.8518 83.8004 87.6633 83.8641C87.4077 83.9503 87.1548 84.0356 86.9119 84.1236C86.824 84.1571 86.7364 84.1897 86.6494 84.2224C86.53 84.2669 86.4114 84.3111 86.2952 84.3563C86.1404 84.4092 85.9894 84.4637 85.8427 84.5168L85.708 84.5655C85.3962 84.6902 85.0998 84.8039 84.8277 84.9083C84.5582 85.0118 84.31 85.1069 84.0963 85.1939L83.8545 85.2958C83.7176 85.3551 83.5957 85.4001 83.4927 85.438C83.4242 85.4632 83.3643 85.4851 83.314 85.5063L83.24 85.5376L83.1707 85.5666L83.2306 85.5402L83.3125 85.5035C83.3485 85.4858 83.3899 85.4672 83.4355 85.4468C83.5455 85.3975 83.6809 85.3372 83.8296 85.2487L83.9225 85.196C84.342 84.9595 84.9056 84.6418 85.476 84.1927C85.6316 84.0735 85.7905 83.9513 85.9493 83.8202C86.0773 83.7115 86.2031 83.5918 86.3276 83.4733L86.4136 83.3918C86.7219 83.0973 87.0304 82.7864 87.3015 82.4286C87.8559 81.7484 88.3028 80.959 88.5568 80.1477C88.6783 79.737 88.7515 79.3423 88.7811 78.9697C88.8075 78.5912 88.7873 78.226 88.7436 77.8859C88.6986 77.5472 88.6252 77.2306 88.535 76.9391C88.4414 76.6416 88.3295 76.3691 88.2109 76.1248C87.9774 75.6358 87.7235 75.2501 87.5303 74.9865Z" fill="#232A33"/>
<path d="M49.8153 74.6504C49.8153 74.6504 49.9773 74.808 50.2218 75.0922C50.2904 75.1777 50.3724 75.269 50.4618 75.3684C50.5247 75.4383 50.5913 75.5123 50.6595 75.5914L50.7724 75.7287C50.8185 75.785 50.8666 75.8434 50.915 75.9021C50.9439 75.9426 50.9743 75.9803 51.0052 76.0187L51.0337 76.0541L51.0474 76.0714C51.0764 76.1081 51.1067 76.1447 51.1366 76.181L51.1907 76.2467C51.9461 77.2024 52.8635 78.4526 53.4631 79.8898C53.6111 80.2578 53.7388 80.6024 53.8307 80.9617C53.9288 81.3195 53.9942 81.6731 54.0535 82.003C54.164 82.6729 54.1904 83.309 54.1734 83.8583C54.1625 84.4001 54.1064 84.8597 54.0456 85.1776C53.9881 85.4972 53.9305 85.6813 53.9305 85.6813C53.9305 85.6813 53.8245 85.8448 53.6002 86.0952C53.3776 86.3455 53.0349 86.6841 52.5581 87.0257C52.0877 87.3541 51.4819 87.684 50.7156 87.9254C50.3278 88.0535 49.9103 88.1375 49.454 88.1891C48.9991 88.2375 48.4914 88.2627 47.9618 88.2171C47.4322 88.1699 46.8855 88.0787 46.3404 87.9475C45.8046 87.8062 45.2703 87.6281 44.7439 87.4262C44.2299 87.2082 43.733 86.9698 43.2548 86.7225C42.7845 86.4677 42.3515 86.1922 41.9403 85.9256C41.8738 85.8843 41.8088 85.8408 41.7446 85.7979C41.7111 85.7755 41.6774 85.7531 41.6443 85.7314C41.5915 85.6928 41.5391 85.654 41.4875 85.6156C41.4463 85.5849 41.4056 85.5546 41.3655 85.5252C41.1864 85.3942 41.0151 85.2646 40.8562 85.1424C40.5369 84.8891 40.255 84.6637 40.0369 84.462C39.5961 84.0615 39.3469 83.8082 39.3469 83.8082C39.3469 83.8082 39.5182 83.7037 39.8391 83.5609C40.1553 83.4225 40.6241 83.2532 41.2082 83.1118C41.4995 83.0395 41.8203 82.9777 42.1692 82.9305C42.5197 82.8776 42.8982 82.8423 43.2954 82.826C43.6988 82.8083 44.1146 82.8171 44.5585 82.848C45.0055 82.8732 45.4728 82.9248 45.9541 83.0145C46.9276 83.1839 47.8824 83.4636 48.8013 83.7551C48.9768 83.8163 49.1533 83.876 49.3283 83.9353L49.3315 83.9364C49.6027 84.028 49.871 84.1189 50.1268 84.2116C50.3387 84.2927 50.5427 84.3692 50.7452 84.4443C50.9492 84.5151 51.147 84.5872 51.3354 84.6565C51.6493 84.7823 51.9468 84.8961 52.2201 85.0008L52.2233 85.0019C52.6012 85.1467 52.9334 85.2738 53.1967 85.3898C53.3243 85.4467 53.4411 85.4906 53.5413 85.5284C53.6172 85.5572 53.6836 85.5821 53.7373 85.6062C53.7996 85.6312 53.8478 85.6499 53.8806 85.6625L53.9177 85.6761C53.8927 85.6655 53.8316 85.6393 53.7403 85.5972L53.6748 85.5685C53.5565 85.5166 53.3978 85.4469 53.2185 85.3426L53.1522 85.3053C52.7276 85.0674 52.1532 84.7452 51.5676 84.2809L51.5363 84.2569C51.3904 84.1453 51.2407 84.0306 51.091 83.9084C50.9321 83.7728 50.7794 83.6314 50.6237 83.4813C50.3153 83.1839 50.0038 82.8732 49.7343 82.5169C49.1752 81.8307 48.725 81.0398 48.4696 80.2284C48.3465 79.8162 48.2733 79.42 48.2422 79.0445C48.2141 78.669 48.2344 78.2995 48.2764 77.9607C48.3216 77.622 48.3933 77.3054 48.4836 77.0139C48.577 76.7194 48.6907 76.4439 48.8044 76.1995C49.0396 75.7076 49.2935 75.3219 49.4867 75.0583C49.5701 74.9466 49.6424 74.8557 49.6977 74.7884L49.7842 74.6858C49.8044 74.6625 49.8153 74.6504 49.8153 74.6504Z" fill="#232A33"/>
<path d="M56.0767 78.5996L56.1251 78.6229C56.2042 78.6617 56.3759 78.7491 56.6094 78.8868C56.6783 78.928 56.7535 78.9687 56.8337 79.0124C56.9459 79.0732 57.0689 79.1399 57.1966 79.2197C57.3073 79.283 57.4239 79.3521 57.544 79.4302C57.5747 79.4483 57.6058 79.4662 57.6374 79.4845L57.6707 79.5037C57.7547 79.5521 57.841 79.602 57.9287 79.6555C58.9769 80.3108 60.2883 81.1693 61.4458 82.3444C61.7339 82.6315 61.997 82.9526 62.2386 83.253C62.483 83.5533 62.7043 83.864 62.902 84.1749C62.9736 84.2832 63.0399 84.3945 63.1052 84.5041L63.1071 84.5075L63.1463 84.5734L63.1856 84.6386C63.2758 84.7888 63.3583 84.9361 63.4378 85.0805C63.5967 85.3749 63.7338 85.6592 63.8521 85.9315C64.0858 86.4676 64.243 86.9403 64.3366 87.2789C64.4285 87.6205 64.4596 87.8222 64.4596 87.8222C64.4596 87.8222 64.4315 88.0284 64.3302 88.3613C64.2291 88.6954 64.053 89.1594 63.7447 89.6806C63.5905 89.9427 63.402 90.2197 63.17 90.5009C63.0561 90.6423 62.9269 90.7837 62.7915 90.9263C62.6529 91.0589 62.5032 91.1988 62.3414 91.3315C62.0158 91.5978 61.6405 91.8571 61.2012 92.1015C60.7634 92.343 60.2713 92.5343 59.7122 92.7096C59.1484 92.8923 58.5579 92.9894 57.9427 93.0674C57.3259 93.1514 56.7013 93.1559 56.0752 93.1397C55.4445 93.1337 54.8323 93.0617 54.2327 92.9732C53.6313 92.8981 53.0676 92.7672 52.5334 92.6345C52.2701 92.5727 52.0116 92.5064 51.767 92.4343C51.5256 92.3593 51.295 92.2842 51.0801 92.2089L51.0077 92.184C50.6024 92.0441 50.2405 91.9189 49.9493 91.7952C49.3309 91.5257 48.968 91.3475 48.968 91.3475C48.968 91.3475 49.102 91.1841 49.3761 90.9397C49.6487 90.6922 50.0614 90.3653 50.6035 90.0312C51.1408 89.7013 51.8293 89.339 52.6283 89.0371C53.4211 88.7485 54.3557 88.4613 55.3976 88.3007C55.9241 88.2037 56.4567 88.1389 56.9817 88.1005C57.5159 88.0402 58.044 88.0035 58.5579 87.9873C59.0797 87.9444 59.5827 87.9312 60.0672 87.9252C60.5579 87.8973 61.0221 87.8841 61.4567 87.8841C61.9074 87.8636 62.3249 87.8568 62.697 87.8508C63.0436 87.8451 63.3508 87.8402 63.6091 87.8252C63.7419 87.8227 63.8615 87.8212 63.966 87.8203L64.3306 87.8205C64.1903 87.8152 63.9411 87.8007 63.6091 87.7721C63.0796 87.7457 62.3397 87.6175 61.5142 87.4233C61.1046 87.3054 60.6747 87.167 60.2387 87.0124C59.8056 86.8341 59.3725 86.6281 58.952 86.4027C58.5362 86.1584 58.1342 85.8888 57.7636 85.6031C57.396 85.2924 57.0642 84.9568 56.7776 84.6092C56.2123 83.8729 55.8835 83.1468 55.7279 82.4225C55.569 81.7111 55.5564 81.0618 55.6157 80.4861C55.6765 79.9146 55.7933 79.4449 55.8929 79.1165C55.9942 78.7866 56.0767 78.5996 56.0767 78.5996Z" fill="#232A33"/>
<path d="M68.2757 88.8848C68.2757 88.8848 69.0419 89.0511 70.017 89.5622C70.9889 90.0716 72.179 90.9124 73.087 92.207C73.9811 93.5071 74.5043 95.0106 74.8191 96.1915C74.8999 96.4832 74.9654 96.76 75.0184 97.0073C75.0389 97.1035 75.06 97.1945 75.0799 97.2809C75.1114 97.4167 75.1402 97.5411 75.16 97.6553C75.2302 98.0161 75.2536 98.2356 75.2536 98.2356C75.2536 98.2356 74.4732 98.2545 73.4173 97.9778C72.8923 97.8349 72.2865 97.6155 71.6913 97.2694C71.1088 96.919 70.4968 96.4405 69.9906 95.7851C68.95 94.482 68.4954 92.7326 68.3224 91.3323C68.303 91.1512 68.2868 90.976 68.2738 90.8081L68.2617 90.99L68.2273 91.3323C68.0591 92.7326 67.6043 94.482 66.5639 95.7851C66.0562 96.4405 65.4455 96.919 64.8631 97.2694C64.2665 97.6155 63.6622 97.8349 63.1372 97.9778C62.0781 98.2545 61.2993 98.2356 61.2993 98.2356C61.2993 98.2356 61.3228 98.0161 61.3927 97.6553C61.4157 97.5355 61.4456 97.405 61.4784 97.2617C61.497 97.1811 61.5164 97.0965 61.536 97.0073C61.5874 96.76 61.6514 96.4832 61.7339 96.1915C62.0501 95.0106 62.5702 93.5071 63.4675 92.207C64.374 90.9124 65.5655 90.0716 66.5359 89.5622C67.5109 89.0511 68.2757 88.8848 68.2757 88.8848Z" fill="#232A33"/>
<path d="M73.2458 85.9315C73.0121 86.4676 72.855 86.9403 72.7613 87.2789C72.6711 87.6205 72.64 87.8222 72.64 87.8222C72.64 87.8222 72.6679 88.0284 72.7707 88.3613C72.8705 88.6954 73.0435 89.1594 73.3518 89.6806C73.5075 89.9427 73.696 90.2197 73.9282 90.5009C74.0433 90.6423 74.171 90.7837 74.3064 90.9263C74.4468 91.0589 74.5947 91.1988 74.7583 91.3315C75.0822 91.5978 75.4592 91.8571 75.8968 92.1015C76.333 92.343 76.8252 92.5343 77.3858 92.7096C77.9481 92.8923 78.54 92.9894 79.1552 93.0674C79.7721 93.1514 80.3982 93.1559 81.0244 93.1397C81.6552 93.1337 82.2674 93.0617 82.8638 92.9732C83.4666 92.8981 84.0336 92.7672 84.5648 92.6345C84.8294 92.5727 85.0881 92.5064 85.3326 92.4343C85.5725 92.3593 85.8013 92.2842 86.0195 92.2089L86.1331 92.1697C86.5206 92.0353 86.869 91.9147 87.1503 91.7952C87.7671 91.5257 88.1284 91.3475 88.1284 91.3475C88.1284 91.3475 87.9976 91.1841 87.7219 90.9397C87.4509 90.6922 87.0381 90.3653 86.496 90.0312C85.9572 89.7013 85.2704 89.339 84.4712 89.0371C83.6784 88.7485 82.7423 88.4613 81.7019 88.3007C81.1739 88.2037 80.6427 88.1389 80.1163 88.1005C79.5836 88.0402 79.0556 88.0035 78.54 87.9873C78.0214 87.9444 77.5135 87.9312 77.0307 87.9252C76.5416 87.8973 76.0759 87.8841 75.643 87.8841C75.1922 87.8636 74.7756 87.8568 74.4048 87.8508H74.4026C74.0567 87.8451 73.7503 87.8402 73.4936 87.8252C73.3595 87.8227 73.2392 87.8212 73.1341 87.8203L72.7688 87.8205L72.6978 87.821C72.8121 87.8176 73.0906 87.8065 73.4889 87.7721C74.0199 87.7457 74.7598 87.6175 75.5852 87.4233C75.9934 87.3054 76.4264 87.167 76.861 87.0124C77.2909 86.8341 77.7255 86.6281 78.1475 86.4027C78.5635 86.1584 78.9637 85.8888 79.336 85.6031C79.7019 85.2924 80.0352 84.9568 80.3218 84.6092C80.8858 83.8729 81.2144 83.1468 81.3718 82.4225C81.5306 81.7111 81.543 81.0618 81.4822 80.4861C81.4232 79.9146 81.3063 79.4449 81.205 79.1165C81.1052 78.7866 81.0227 78.5996 81.0227 78.5996C81.0227 78.5996 80.8157 78.6939 80.4886 78.8868C80.4178 78.9291 80.3404 78.9711 80.2576 79.0161C80.1472 79.0762 80.0271 79.1414 79.8998 79.2197C79.7906 79.283 79.6755 79.3521 79.5557 79.4302L79.513 79.4545C79.4006 79.5187 79.287 79.5837 79.1708 79.6555C78.1225 80.3108 76.8096 81.1693 75.6524 82.3444C75.3703 82.6255 75.115 82.9389 74.8751 83.2339L74.8596 83.253C74.6165 83.5533 74.3954 83.864 74.1975 84.1749C74.0979 84.328 74.0028 84.487 73.9141 84.6386C73.8237 84.7888 73.7397 84.9361 73.6601 85.0805C73.5013 85.3749 73.3674 85.6592 73.2458 85.9315Z" fill="#232A33"/>
<path d="M105.894 52.531C105.833 52.1068 105.78 51.8535 105.78 51.8535C105.78 51.8535 105.171 52.0672 104.435 52.6222C104.067 52.8975 103.651 53.2613 103.262 53.7238C102.88 54.1759 102.492 54.7309 102.184 55.3922C101.552 56.7174 101.246 58.2282 101.011 59.418C100.976 59.6076 100.948 59.7878 100.921 59.9579C100.906 60.0573 100.891 60.1533 100.876 60.2456C100.829 60.493 100.796 60.7154 100.77 60.8979C100.74 61.1092 100.723 61.2723 100.713 61.3734L100.707 61.4372C100.713 61.3506 100.725 61.161 100.729 60.8951C100.732 60.7094 100.732 60.4872 100.728 60.2339C100.717 59.985 100.684 59.7068 100.647 59.4093C100.503 58.2282 100.036 56.7645 99.1279 55.7073C98.6654 55.1785 98.1638 54.803 97.6467 54.5364C97.1388 54.2671 96.6452 54.1066 96.195 54.0123C95.3071 53.8208 94.667 53.8724 94.667 53.8724C94.667 53.8724 94.7028 54.0594 94.787 54.3614C94.7986 54.4053 94.8105 54.452 94.8231 54.5008C94.854 54.6219 94.8885 54.7576 94.9318 54.9032C94.9892 55.103 95.0613 55.3237 95.1365 55.5544L95.1438 55.5762C95.4724 56.5511 95.9475 57.7452 96.7247 58.7702C97.0968 59.2899 97.5455 59.7185 97.9909 60.0733C98.4223 60.4266 98.8677 60.7066 99.2697 60.9156C99.6716 61.1292 100.03 61.2734 100.288 61.3634C100.461 61.4242 100.587 61.4602 100.653 61.4775L100.703 61.4898C100.703 61.4898 100.865 61.4826 101.131 61.4369C101.402 61.3928 101.777 61.3073 102.209 61.141C102.64 60.9759 103.126 60.7256 103.617 60.3486C104.096 59.9703 104.558 59.4622 104.964 58.779C105.754 57.4123 106.011 55.6395 106.005 54.2539C106.011 53.9063 105.991 53.5809 105.969 53.2922C105.947 53.0007 105.924 52.7429 105.894 52.531Z" fill="#232A33"/>
<path fill-rule="evenodd" clip-rule="evenodd" d="M68.6942 39.8965C69.3302 39.8965 69.8456 40.3738 69.8456 40.9627V46.707H79.6611L79.8879 46.1706C80.0609 45.7621 80.4863 45.4933 80.9601 45.4933C81.4339 45.4933 81.8593 45.7621 82.0322 46.1706L82.2591 46.707H82.7125C83.3483 46.707 83.8639 47.1844 83.8639 47.7732C83.8639 48.2254 83.5599 48.6118 83.1306 48.7668L87.4836 59.0554C87.5361 59.1793 87.5631 59.3113 87.5631 59.4444C87.5631 61.3417 86.3952 62.6141 85.0416 63.3604C83.7243 64.0869 82.1491 64.3759 80.9601 64.3759C79.7711 64.3759 78.1959 64.0869 76.8786 63.3604C75.5247 62.6141 74.3571 61.3417 74.3571 59.4444C74.3571 59.3113 74.3841 59.1793 74.4364 59.0554L78.7589 48.8394H69.8456V68.2431H72.7829C73.4188 68.2431 73.9344 68.7203 73.9344 69.3093C73.9344 69.898 73.4188 70.3755 72.7829 70.3755H64.6056C63.9697 70.3755 63.4541 69.898 63.4541 69.3093C63.4541 68.7203 63.9697 68.2431 64.6056 68.2431H67.5427V48.8394H58.6297L62.9519 59.0554C63.0044 59.1793 63.0313 59.3113 63.0313 59.4444C63.0313 61.3417 61.8636 62.6141 60.51 63.3604C59.1926 64.0869 57.6174 64.3759 56.4284 64.3759C55.2394 64.3759 53.6643 64.0869 52.3469 63.3604C50.9931 62.6141 49.8254 61.3417 49.8254 59.4444C49.8254 59.3113 49.8524 59.1793 49.9048 59.0554L54.2579 48.7668C53.8287 48.6118 53.5246 48.2254 53.5246 47.7732C53.5246 47.1844 54.0402 46.707 54.6761 46.707H55.1294L55.3563 46.1706C55.529 45.7621 55.9546 45.4933 56.4284 45.4933C56.9023 45.4933 57.3277 45.7621 57.5006 46.1706L57.7275 46.707H67.5427V40.9627C67.5427 40.3738 68.0583 39.8965 68.6942 39.8965ZM56.4284 49.4825L60.6676 59.5017C59.8191 58.8625 58.229 58.4319 56.4071 58.4319C54.6285 58.4319 53.0706 58.8422 52.2085 59.4565L56.4284 49.4825ZM85.1843 59.4663L80.9601 49.4825L76.7255 59.4913C77.5771 58.8578 79.16 58.4319 80.9718 58.4319C82.7598 58.4319 84.3247 58.8467 85.1843 59.4663Z" fill="#232A33"/>
<path d="M135.807 52.1761H140.413V63.2302H144.52C144.674 61.2088 145.058 59.4816 145.672 58.0486C146.286 56.5901 147.079 55.4002 148.051 54.4791C149.024 53.5323 150.15 52.8414 151.429 52.4064C152.734 51.9714 154.116 51.7539 155.574 51.7539C157.212 51.7539 158.722 52.0098 160.103 52.5216C161.485 53.0077 162.675 53.7882 163.673 54.8629C164.696 55.9376 165.49 57.3193 166.053 59.0082C166.616 60.6714 166.897 62.6801 166.897 65.0342V65.8018C166.897 68.2583 166.616 70.3566 166.053 72.0966C165.49 73.811 164.696 75.2183 163.673 76.3186C162.675 77.3933 161.485 78.1865 160.103 78.6983C158.722 79.2101 157.212 79.466 155.574 79.466C154.065 79.466 152.657 79.2357 151.352 78.7751C150.073 78.3145 148.934 77.598 147.936 76.6257C146.964 75.6533 146.171 74.3995 145.556 72.8642C144.968 71.3033 144.623 69.4226 144.52 67.222H140.413V79.0438H135.807V52.1761ZM155.574 75.3974C156.495 75.3974 157.34 75.2311 158.108 74.8985C158.901 74.5658 159.592 74.0285 160.18 73.2864C160.769 72.5188 161.229 71.5208 161.562 70.2926C161.895 69.0643 162.061 67.5674 162.061 65.8018V65.0342C162.061 63.3454 161.895 61.9252 161.562 60.7738C161.229 59.5967 160.769 58.6499 160.18 57.9335C159.592 57.1914 158.901 56.6541 158.108 56.3214C157.34 55.9888 156.495 55.8224 155.574 55.8224C154.653 55.8224 153.796 55.9888 153.003 56.3214C152.235 56.6541 151.557 57.1914 150.968 57.9335C150.38 58.6499 149.919 59.5967 149.587 60.7738C149.254 61.9252 149.088 63.3454 149.088 65.0342V65.8018C149.088 67.5674 149.254 69.0643 149.587 70.2926C149.919 71.5208 150.38 72.5188 150.968 73.2864C151.557 74.0285 152.235 74.5658 153.003 74.8985C153.796 75.2311 154.653 75.3974 155.574 75.3974ZM180.142 79.466C178.76 79.466 177.481 79.2613 176.304 78.8518C175.152 78.4168 174.142 77.7643 173.272 76.8943C172.427 76.0243 171.762 74.9368 171.276 73.6318C170.789 72.3268 170.546 70.8043 170.546 69.0643V68.2967C170.546 66.659 170.802 65.2133 171.314 63.9595C171.826 62.7057 172.517 61.6566 173.387 60.8121C174.282 59.9677 175.306 59.3408 176.457 58.9314C177.634 58.4964 178.863 58.2789 180.142 58.2789C181.473 58.2789 182.65 58.458 183.673 58.8163C184.722 59.1745 185.605 59.6735 186.322 60.3132C187.064 60.9273 187.652 61.6566 188.087 62.501C188.522 63.3454 188.816 64.2538 188.97 65.2261H184.671C184.415 64.2793 183.955 63.4989 183.289 62.8848C182.624 62.2707 181.575 61.9636 180.142 61.9636C179.426 61.9636 178.747 62.0916 178.108 62.3474C177.468 62.5777 176.905 62.9488 176.419 63.4605C175.933 63.9723 175.549 64.6376 175.267 65.4564C174.986 66.2496 174.845 67.1964 174.845 68.2967V69.0643C174.845 70.267 174.986 71.3033 175.267 72.1733C175.549 73.0177 175.933 73.7086 176.419 74.246C176.905 74.7833 177.468 75.1799 178.108 75.4358C178.747 75.6661 179.426 75.7813 180.142 75.7813C182.522 75.7813 184.031 74.6938 184.671 72.5188H188.97C188.765 73.5935 188.407 74.5658 187.895 75.4358C187.409 76.2802 186.782 77.0095 186.014 77.6236C185.247 78.2121 184.364 78.6727 183.366 79.0054C182.368 79.3124 181.293 79.466 180.142 79.466ZM197.786 62.3091H191.069V58.7011H208.725V62.3091H202.008V79.0438H197.786V62.3091ZM207.912 66.3008H219.811V70.2926H207.912V66.3008ZM223.836 58.7011H228.059V73.0945L237.846 58.7011H241.876V79.0438H237.654V64.6504L227.867 79.0438H223.836V58.7011ZM247.263 58.7011H251.485V66.8766H261.081V58.7011H265.303V79.0438H261.081V70.4845H251.485V79.0438H247.263V58.7011ZM280.285 79.466C276.754 79.466 274.08 78.5704 272.263 76.7792C270.446 74.988 269.538 72.4164 269.538 69.0643V68.2967C269.538 65.0982 270.446 62.6289 272.263 60.8889C274.08 59.1489 276.754 58.2789 280.285 58.2789V52.1761H284.507V58.2789C288.013 58.2789 290.674 59.1489 292.491 60.8889C294.333 62.6289 295.254 65.0982 295.254 68.2967V69.0643C295.254 72.4164 294.333 74.988 292.491 76.7792C290.674 78.5704 288.013 79.466 284.507 79.466V86.7202H280.285V79.466ZM290.955 68.2967C290.955 66.1729 290.431 64.5864 289.382 63.5373C288.358 62.4882 286.708 61.9636 284.43 61.9636V75.7813C286.708 75.7813 288.358 75.2311 289.382 74.1308C290.431 73.0049 290.955 71.3161 290.955 69.0643V68.2967ZM273.837 69.0643C273.837 71.3161 274.361 73.0049 275.41 74.1308C276.459 75.2311 278.11 75.7813 280.362 75.7813V61.9636C278.084 61.9636 276.421 62.4882 275.372 63.5373C274.348 64.5864 273.837 66.1601 273.837 68.2583V69.0643ZM308.304 79.466C306.897 79.466 305.579 79.2485 304.351 78.8135C303.148 78.3529 302.099 77.6876 301.203 76.8176C300.308 75.9476 299.604 74.8729 299.092 73.5935C298.581 72.2885 298.325 70.7788 298.325 69.0643V68.2967C298.325 66.6846 298.581 65.2645 299.092 64.0363C299.604 62.7824 300.308 61.7333 301.203 60.8889C302.099 60.0189 303.148 59.3664 304.351 58.9314C305.579 58.4964 306.897 58.2789 308.304 58.2789C309.711 58.2789 311.016 58.4964 312.219 58.9314C313.447 59.3664 314.509 60.0189 315.405 60.8889C316.3 61.7333 317.004 62.7824 317.516 64.0363C318.028 65.2645 318.283 66.6846 318.283 68.2967V69.0643C318.283 70.7788 318.028 72.2885 317.516 73.5935C317.004 74.8729 316.3 75.9476 315.405 76.8176C314.509 77.6876 313.447 78.3529 312.219 78.8135C311.016 79.2485 309.711 79.466 308.304 79.466ZM308.304 75.7813C309.046 75.7813 309.75 75.6533 310.415 75.3974C311.106 75.1416 311.707 74.7449 312.219 74.2076C312.756 73.6702 313.179 72.9793 313.486 72.1349C313.818 71.2905 313.985 70.267 313.985 69.0643V68.2967C313.985 67.1964 313.818 66.2496 313.486 65.4564C313.179 64.6632 312.756 64.0107 312.219 63.4989C311.707 62.9871 311.106 62.6033 310.415 62.3474C309.75 62.0916 309.046 61.9636 308.304 61.9636C307.562 61.9636 306.846 62.0916 306.155 62.3474C305.489 62.6033 304.888 62.9871 304.351 63.4989C303.839 64.0107 303.417 64.6632 303.084 65.4564C302.777 66.2496 302.623 67.1964 302.623 68.2967V69.0643C302.623 70.267 302.777 71.2905 303.084 72.1349C303.417 72.9793 303.839 73.6702 304.351 74.2076C304.888 74.7449 305.489 75.1416 306.155 75.3974C306.846 75.6533 307.562 75.7813 308.304 75.7813Z" fill="#232A33"/>
</g>
<rect x="137" y="106" width="146" height="86" fill="white" fill-opacity="0.6" stroke="white" stroke-width="2"/>
<path d="M62 266H168V328H62V266Z" fill="white" fill-opacity="0.6" stroke="white" stroke-width="2"/>
<path opacity="0.6" d="M319 237H400V284H319V237Z" fill="white" fill-opacity="0.6" stroke="white" stroke-width="2"/>
<rect x="30" y="138" width="300" height="168" fill="white"/>
<rect x="48" y="156" width="70" height="4" fill="#EBEEF2"/>
<rect x="71" y="261" width="164" height="4" fill="#C8CED7"/>
<rect x="71" y="269" width="144" height="4" fill="#C8CED7"/>
<rect x="71" y="277" width="149" height="4" fill="#C8CED7"/>
<rect x="71" y="285" width="59" height="4" fill="#C8CED7"/>
<rect x="48" y="165" width="164" height="11" fill="#232A33"/>
<rect x="267" y="165" width="47" height="11" fill="#EBEEF2"/>
<rect x="71" y="192" width="164" height="57" fill="#EBEEF2"/>
<path d="M286 122L293.5 126.33V117.67L286 122ZM290.4 122.75H292.6V121.25H290.4V122.75ZM295.9 122.75H298.1V121.25H295.9V122.75ZM301.4 122.75H303.6V121.25H301.4V122.75ZM306.9 122.75H308V121.25H306.9V122.75ZM308 122.75C308.352 122.75 308.689 122.806 309.005 122.908L309.468 121.481C309.005 121.331 308.511 121.25 308 121.25V122.75ZM311.092 124.995C311.194 125.311 311.25 125.648 311.25 126H312.75C312.75 125.489 312.669 124.995 312.519 124.532L311.092 124.995ZM311.25 126V127.2H312.75V126H311.25ZM311.25 130.8V133.2H312.75V130.8H311.25ZM311.25 136.8V138H312.75V136.8H311.25Z" fill="#232A33"/>
<path d="M61 319L53.5 314.67V323.33L61 319ZM56.9 318.25H54.85V319.75H56.9V318.25ZM51.775 318.25H49.725V319.75H51.775V318.25ZM46.65 318.25H44.6V319.75H46.65V318.25ZM41.525 318.25H39.475V319.75H41.525V318.25ZM36.4 318.25H34.35V319.75H36.4V318.25ZM31.275 318.25H29.225V319.75H31.275V318.25ZM26.15 318.25H24.1V319.75H26.15V318.25ZM21.025 318.25H20V319.75H21.025V318.25ZM20 318.25C19.6481 318.25 19.3106 318.194 18.9951 318.092L18.5319 319.519C18.9951 319.669 19.4888 319.75 20 319.75V318.25ZM16.9081 316.005C16.8057 315.689 16.75 315.352 16.75 315H15.25C15.25 315.511 15.331 316.005 15.4814 316.468L16.9081 316.005ZM16.75 315V314.021H15.25V315H16.75ZM16.75 311.084V309.126H15.25V311.084H16.75ZM16.75 306.189V304.232H15.25V306.189H16.75ZM16.75 301.295V299.337H15.25V301.295H16.75ZM16.75 296.4V294.442H15.25V296.4H16.75ZM16.75 291.505V289.547H15.25V291.505H16.75ZM16.75 286.611V284.653H15.25V286.611H16.75ZM16.75 281.716V279.758H15.25V281.716H16.75ZM16.75 276.821V274.863H15.25V276.821H16.75ZM16.75 271.926V269.968H15.25V271.926H16.75ZM16.75 267.032V265.074H15.25V267.032H16.75ZM16.75 262.137V260.179H15.25V262.137H16.75ZM16.75 257.242V255.284H15.25V257.242H16.75ZM16.75 252.347V250.389H15.25V252.347H16.75ZM16.75 247.453V245.495H15.25V247.453H16.75ZM16.75 242.558V240.6H15.25V242.558H16.75ZM16.75 237.663V235.705H15.25V237.663H16.75ZM16.75 232.768V230.811H15.25V232.768H16.75ZM16.75 227.874V225.916H15.25V227.874H16.75ZM16.75 222.979V222H15.25V222.979H16.75ZM16.75 222C16.75 221.648 16.8057 221.311 16.9081 220.995L15.4814 220.532C15.331 220.995 15.25 221.489 15.25 222H16.75ZM18.9951 218.908C19.3106 218.806 19.6481 218.75 20 218.75V217.25C19.4888 217.25 18.9951 217.331 18.5319 217.481L18.9951 218.908ZM20 218.75H21V217.25H20V218.75ZM24 218.75H26V217.25H24V218.75ZM29 218.75H30V217.25H29V218.75Z" fill="#232A33"/>
<circle cx="54" cy="198" r="6" fill="#EBEEF2"/>
<circle cx="89" cy="210" r="8" fill="white"/>
<circle cx="54" cy="217" r="6" fill="#EBEEF2"/>
<circle cx="54" cy="236" r="6" fill="#EBEEF2"/>
<circle cx="54" cy="255" r="6" fill="#EBEEF2"/>
<rect x="81" y="225" width="121" height="6" fill="#232A33"/>
<rect x="81" y="234" width="70" height="6" fill="#232A33"/>
<path d="M188 214C188 209.582 191.582 206 196 206H278V329.5H196C191.582 329.5 188 325.918 188 321.5V214Z" fill="#47526F"/>
<path d="M200 206H288V318H200V206Z" fill="#282D3A"/>
<rect x="209" y="215" width="70" height="94" rx="3" stroke="#47526F" stroke-width="2"/>
<path d="M191 323C191 320.239 193.239 318 196 318H288V328H196C193.239 328 191 325.761 191 323Z" fill="white"/>
<path d="M288 318H196C193.239 318 191 320.239 191 323V323C191 325.761 193.239 328 196 328H288" stroke="#100F18" stroke-width="3"/>
<rect x="228" y="232" width="33" height="6" rx="3" fill="#F7D773"/>
<rect x="223" y="244" width="43" height="4" rx="2" fill="#7984A2"/>
<rect x="231" y="251" width="27" height="4" rx="2" fill="#7984A2"/>
<g filter="url(#filter0_d_4455_24483)">
<rect x="286.192" y="232.193" width="44.552" height="12.5302" rx="2" transform="rotate(45 286.192 232.193)" fill="#F5C557"/>
<rect x="243.86" y="274.525" width="44.552" height="12.5302" rx="2" transform="rotate(45 243.86 274.525)" fill="#F5C557"/>
<path fill-rule="evenodd" clip-rule="evenodd" d="M306.866 270.585L279.301 243.02L279.119 244.661C278.918 246.466 278.109 248.149 276.825 249.434L252.244 274.015C250.959 275.299 249.276 276.109 247.47 276.309L245.829 276.491L273.394 304.057L273.577 302.416C273.777 300.61 274.586 298.927 275.871 297.642L281.27 292.243L290.746 298.273C291.537 298.776 292.571 298.662 293.234 298L300.81 290.424C301.472 289.761 301.586 288.727 301.083 287.936L295.053 278.46L300.452 273.061C301.736 271.777 303.42 270.968 305.225 270.767L306.866 270.585Z" fill="url(#paint0_linear_4455_24483)"/>
<rect x="299.975" y="291.26" width="11.138" height="8.35349" transform="rotate(45 299.975 291.26)" fill="#E29234"/>
<rect x="344.276" y="335.562" width="11.138" height="8.35349" transform="rotate(45 344.276 335.562)" fill="#E29234"/>
<rect x="310.804" y="296.186" width="51.5132" height="16.707" rx="2" transform="rotate(45 310.804 296.186)" fill="url(#paint1_linear_4455_24483)"/>
<circle cx="355.105" cy="352.299" r="12.5302" transform="rotate(45 355.105 352.299)" fill="url(#paint2_radial_4455_24483)"/>
</g>
</g>
<defs>
<filter id="filter0_d_4455_24483" x="187.828" y="201.021" width="227.807" height="227.807" filterUnits="userSpaceOnUse" color-interpolation-filters="sRGB">
<feFlood flood-opacity="0" result="BackgroundImageFix"/>
<feColorMatrix in="SourceAlpha" type="matrix" values="0 0 0 0 0 0 0 0 0 0 0 0 0 0 0 0 0 0 127 0" result="hardAlpha"/>
<feOffset dy="16"/>
<feGaussianBlur stdDeviation="24"/>
<feComposite in2="hardAlpha" operator="out"/>
<feColorMatrix type="matrix" values="0 0 0 0 0.187988 0 0 0 0 0.114161 0 0 0 0 0.027415 0 0 0 0.24 0"/>
<feBlend mode="normal" in2="BackgroundImageFix" result="effect1_dropShadow_4455_24483"/>
<feBlend mode="normal" in="SourceGraphic" in2="effect1_dropShadow_4455_24483" result="shape"/>
</filter>
<linearGradient id="paint0_linear_4455_24483" x1="263.55" y1="261.724" x2="296.529" y2="294.704" gradientUnits="userSpaceOnUse">
<stop stop-color="#F3BD55"/>
<stop offset="0.25" stop-color="#F5C557"/>
<stop offset="1" stop-color="#F19E3B"/>
</linearGradient>
<linearGradient id="paint1_linear_4455_24483" x1="339.345" y1="296.186" x2="339.345" y2="312.893" gradientUnits="userSpaceOnUse">
<stop stop-color="#F3BD55"/>
<stop offset="0.25" stop-color="#F5C557"/>
<stop offset="1" stop-color="#F19E3B"/>
</linearGradient>
<radialGradient id="paint2_radial_4455_24483" cx="0" cy="0" r="1" gradientUnits="userSpaceOnUse" gradientTransform="translate(362.066 361.348) rotate(-116.565) scale(23.3487 24.7424)">
<stop stop-color="#F3BD55"/>
<stop offset="0.331413" stop-color="#F5C557"/>
<stop offset="1" stop-color="#F19E3B"/>
</radialGradient>
<clipPath id="clip0_4455_24483">
<rect width="360" height="360" rx="8" fill="white"/>
</clipPath>
<clipPath id="clip1_4455_24483">
<rect width="290" height="68.2353" fill="white" transform="translate(30 30)"/>
</clipPath>
</defs>
</svg>
