<svg width="716" height="600" viewBox="0 0 716 600" fill="none" xmlns="http://www.w3.org/2000/svg">
<g clip-path="url(#clip0_3090_840)" filter="url(#filter0_b_3090_840)">
<rect width="716" height="600" fill="#323232"/>
<path d="M87 74V106C87 132.51 108.49 154 135 154H381C407.51 154 429 175.49 429 202V266C429 292.51 407.51 314 381 314H119.5C101.551 314 87 328.551 87 346.5V346.5C87 364.449 101.551 379 119.5 379H381C407.51 379 429 400.49 429 427V464C429 490.51 450.49 512 477 512H555C581.51 512 603 490.51 603 464V202C603 175.49 624.49 154 651 154H722" stroke="#626262" stroke-width="2" stroke-dasharray="8 4"/>
<g opacity="0.4" filter="url(#filter1_d_3090_840)">
<circle cx="87" cy="74" r="20" fill="#AB001F"/>
</g>
<circle cx="87" cy="74" r="10" fill="#AB001F"/>
<g filter="url(#filter2_d_3090_840)">
<circle cx="153" cy="153" r="16" fill="#6E6E6E"/>
<circle cx="153" cy="153" r="15.5" stroke="white" stroke-opacity="0.2"/>
</g>
<path d="M154.961 147.091V158H152.654V149.28H152.591L150.092 150.846V148.801L152.793 147.091H154.961Z" fill="white"/>
<g filter="url(#filter3_d_3090_840)">
<circle cx="153" cy="245" r="40" fill="#AB001F"/>
<circle cx="153" cy="245" r="39" stroke="white" stroke-opacity="0.2" stroke-width="2"/>
</g>
<g filter="url(#filter4_d_3090_840)">
<circle cx="153" cy="245" r="47" stroke="white" stroke-opacity="0.2" stroke-width="2" shape-rendering="crispEdges"/>
</g>
<path d="M153 171.667C151.527 171.667 150.333 170.473 150.333 169C150.333 167.527 151.527 166.333 153 166.333C154.473 166.333 155.667 167.527 155.667 169C155.667 170.473 154.473 171.667 153 171.667ZM153 207.667C151.527 207.667 150.333 206.473 150.333 205C150.333 203.527 151.527 202.333 153 202.333C154.473 202.333 155.667 203.527 155.667 205C155.667 206.473 154.473 207.667 153 207.667ZM153.5 169L153.5 205L152.5 205L152.5 169L153.5 169Z" fill="white"/>
<path d="M168 231C169.625 231 171 232.375 171 234V235H135V234C135 232.375 136.312 231 138 231H168ZM135 256V237H171V256C171 257.688 169.625 259 168 259H138C136.312 259 135 257.688 135 256ZM158 241C157.438 241 157 241.5 157 242C157 242.562 157.438 243 158 243H166C166.5 243 167 242.562 167 242C167 241.5 166.5 241 166 241H158ZM158 245C157.438 245 157 245.5 157 246C157 246.562 157.438 247 158 247H166C166.5 247 167 246.562 167 246C167 245.5 166.5 245 166 245H158ZM158 249C157.438 249 157 249.5 157 250C157 250.562 157.438 251 158 251H166C166.5 251 167 250.562 167 250C167 249.5 166.5 249 166 249H158ZM146 241C143.75 241 142 242.812 142 245C142 247.25 143.75 249 146 249C148.188 249 150 247.25 150 245C150 242.812 148.188 241 146 241ZM142 251C140.312 251 139 252.375 139 254C139 254.562 139.438 255 140 255H152C152.5 255 153 254.562 153 254C153 252.375 151.625 251 150 251H142Z" fill="white"/>
<g filter="url(#filter5_d_3090_840)">
<circle cx="153" cy="379" r="16" fill="#6E6E6E"/>
<circle cx="153" cy="379" r="15.5" stroke="white" stroke-opacity="0.2"/>
</g>
<path d="M152.973 384.149C152.177 384.149 151.469 384.012 150.847 383.739C150.229 383.462 149.741 383.082 149.383 382.599C149.027 382.113 148.845 381.551 148.834 380.916H151.156C151.17 381.182 151.258 381.417 151.417 381.619C151.581 381.818 151.797 381.972 152.067 382.082C152.337 382.192 152.641 382.248 152.978 382.248C153.33 382.248 153.64 382.185 153.91 382.061C154.18 381.937 154.391 381.765 154.544 381.544C154.697 381.324 154.773 381.07 154.773 380.783C154.773 380.491 154.691 380.234 154.528 380.01C154.368 379.783 154.137 379.605 153.836 379.478C153.537 379.35 153.182 379.286 152.77 379.286H151.753V377.592H152.77C153.118 377.592 153.425 377.532 153.692 377.411C153.962 377.29 154.171 377.123 154.32 376.91C154.47 376.694 154.544 376.441 154.544 376.154C154.544 375.88 154.478 375.641 154.347 375.435C154.219 375.225 154.038 375.062 153.804 374.945C153.573 374.827 153.303 374.769 152.994 374.769C152.682 374.769 152.396 374.826 152.136 374.939C151.877 375.049 151.669 375.207 151.513 375.413C151.357 375.619 151.273 375.861 151.263 376.138H149.052C149.063 375.509 149.242 374.955 149.59 374.476C149.938 373.996 150.407 373.622 150.996 373.352C151.59 373.078 152.259 372.942 153.005 372.942C153.758 372.942 154.416 373.078 154.981 373.352C155.545 373.625 155.984 373.995 156.297 374.46C156.613 374.922 156.769 375.44 156.765 376.015C156.769 376.626 156.579 377.136 156.195 377.544C155.815 377.952 155.32 378.212 154.709 378.322V378.407C155.512 378.51 156.123 378.789 156.542 379.243C156.964 379.694 157.174 380.259 157.17 380.937C157.174 381.559 156.994 382.111 156.632 382.594C156.273 383.077 155.778 383.457 155.146 383.734C154.514 384.011 153.789 384.149 152.973 384.149Z" fill="white"/>
<g filter="url(#filter6_d_3090_840)">
<circle cx="153" cy="471" r="40" fill="#9A9A9A"/>
<circle cx="153" cy="471" r="39" stroke="white" stroke-opacity="0.1" stroke-width="2"/>
</g>
<g filter="url(#filter7_d_3090_840)">
<circle cx="153" cy="471" r="47" stroke="white" stroke-opacity="0.1" stroke-width="2" shape-rendering="crispEdges"/>
</g>
<path d="M153 397.667C151.527 397.667 150.333 396.473 150.333 395C150.333 393.527 151.527 392.333 153 392.333C154.473 392.333 155.667 393.527 155.667 395C155.667 396.473 154.473 397.667 153 397.667ZM153 433.667C151.527 433.667 150.333 432.473 150.333 431C150.333 429.527 151.527 428.333 153 428.333C154.473 428.333 155.667 429.527 155.667 431C155.667 432.473 154.473 433.667 153 433.667ZM153.5 395L153.5 431L152.5 431L152.5 395L153.5 395Z" fill="white"/>
<path d="M153.625 468.562C153.875 468.688 154.062 469.062 153.938 469.312C153.5 470.688 152.75 471.938 151.812 473C151.688 473.125 151.5 473.188 151.375 473.188C151.25 473.188 151.125 473.188 151 473.125L149.188 472.062C148.438 472.688 147.562 473.188 146.625 473.562V475.688C146.625 475.938 146.375 476.25 146.062 476.312C145.375 476.438 144.688 476.562 144 476.562C143.25 476.562 142.562 476.438 141.875 476.312C141.562 476.25 141.312 475.938 141.312 475.688V473.562C140.375 473.188 139.5 472.688 138.75 472.062L136.938 473.125C136.812 473.188 136.688 473.188 136.562 473.188C136.438 473.188 136.25 473.125 136.125 473C135.188 471.938 134.438 470.688 134 469.312C133.875 469.062 134.062 468.688 134.312 468.562L136.125 467.5C136 467.062 136 466.562 136 466C136 465.5 136 465 136.125 464.5L134.312 463.5C134.062 463.312 133.875 463 134 462.688C134.438 461.312 135.188 460.125 136.125 459.062C136.25 458.875 136.438 458.812 136.562 458.812C136.688 458.812 136.812 458.875 136.938 458.938L138.75 460C139.5 459.375 140.375 458.812 141.312 458.5V456.375C141.312 456.062 141.562 455.812 141.875 455.75C142.562 455.562 143.25 455.5 144 455.5C144.688 455.5 145.375 455.562 146.062 455.75C146.375 455.812 146.625 456.062 146.625 456.375V458.5C147.562 458.812 148.438 459.375 149.188 460L151 458.938C151.125 458.875 151.25 458.812 151.375 458.812C151.5 458.812 151.688 458.875 151.812 459.062C152.75 460.125 153.5 461.312 153.938 462.688C154.062 463 153.875 463.312 153.625 463.5L151.812 464.5C151.938 465 152 465.5 152 466C152 466.562 151.938 467.062 151.812 467.5L153.625 468.562ZM144 469C145.625 469 147 467.688 147 466C147 464.375 145.625 463 144 463C142.312 463 141 464.375 141 466C141 467.688 142.312 469 144 469ZM173.25 474.938C173.375 475.625 173.5 476.312 173.5 477C173.5 477.75 173.375 478.438 173.25 479.125C173.188 479.438 172.875 479.688 172.625 479.688H170.438C170.125 480.625 169.625 481.5 169 482.25L170.062 484.062C170.125 484.188 170.125 484.312 170.125 484.438C170.125 484.562 170.062 484.75 169.938 484.875C168.875 485.812 167.625 486.562 166.25 487C166 487.125 165.625 486.938 165.5 486.688L164.438 484.875C163.938 485 163.438 485 162.938 485C162.438 485 161.938 485 161.438 484.875L160.438 486.688C160.25 486.938 159.938 487.125 159.625 487C158.25 486.562 157 485.812 156 484.875C155.812 484.75 155.75 484.562 155.75 484.438C155.75 484.312 155.812 484.188 155.875 484.062L156.938 482.25C156.25 481.5 155.75 480.625 155.438 479.688H153.312C153 479.688 152.75 479.438 152.688 479.125C152.5 478.438 152.438 477.75 152.438 477C152.438 476.312 152.5 475.625 152.688 474.938C152.75 474.625 153 474.375 153.312 474.375H155.438C155.75 473.438 156.25 472.562 156.938 471.812L155.875 470C155.812 469.875 155.75 469.75 155.75 469.625C155.75 469.5 155.812 469.312 156 469.188C157 468.25 158.25 467.5 159.625 467.062C159.938 466.938 160.25 467.125 160.438 467.375L161.438 469.188C161.938 469.062 162.438 469 162.938 469C163.438 469 163.938 469.062 164.438 469.188L165.5 467.375C165.625 467.125 166 466.938 166.25 467.062C167.625 467.5 168.875 468.25 169.938 469.188C170.062 469.312 170.125 469.5 170.125 469.625C170.125 469.75 170.125 469.875 170.062 470L169 471.812C169.625 472.562 170.125 473.438 170.438 474.375H172.625C172.875 474.375 173.188 474.625 173.25 474.938ZM162.938 480C164.625 480 165.938 478.688 165.938 477C165.938 475.375 164.625 474 162.938 474C161.312 474 159.938 475.375 159.938 477C159.938 478.688 161.312 480 162.938 480Z" fill="white"/>
<g filter="url(#filter8_d_3090_840)">
<circle cx="318" cy="153" r="16" fill="#6E6E6E"/>
<circle cx="318" cy="153" r="15.5" stroke="white" stroke-opacity="0.2"/>
</g>
<path d="M314.16 158V156.338L318.043 152.743C318.374 152.423 318.651 152.135 318.874 151.88C319.102 151.624 319.274 151.374 319.391 151.129C319.508 150.88 319.567 150.612 319.567 150.324C319.567 150.005 319.494 149.729 319.348 149.499C319.203 149.264 319.004 149.085 318.752 148.961C318.5 148.833 318.214 148.769 317.894 148.769C317.56 148.769 317.269 148.836 317.021 148.971C316.772 149.106 316.58 149.3 316.445 149.552C316.31 149.804 316.243 150.104 316.243 150.452H314.054C314.054 149.738 314.215 149.119 314.538 148.593C314.861 148.067 315.314 147.661 315.897 147.373C316.479 147.086 317.15 146.942 317.91 146.942C318.691 146.942 319.371 147.08 319.95 147.357C320.533 147.631 320.985 148.011 321.309 148.497C321.632 148.984 321.793 149.541 321.793 150.17C321.793 150.582 321.712 150.988 321.548 151.39C321.388 151.791 321.103 152.237 320.691 152.727C320.279 153.213 319.698 153.797 318.949 154.479L317.356 156.04V156.114H321.937V158H314.16Z" fill="white"/>
<g filter="url(#filter9_d_3090_840)">
<circle cx="318" cy="245" r="40" fill="#525252"/>
<circle cx="318" cy="245" r="39" stroke="white" stroke-opacity="0.1" stroke-width="2"/>
</g>
<g filter="url(#filter10_d_3090_840)">
<circle cx="318" cy="245" r="47" stroke="white" stroke-opacity="0.1" stroke-width="2" shape-rendering="crispEdges"/>
</g>
<path d="M318 171.667C316.527 171.667 315.333 170.473 315.333 169C315.333 167.527 316.527 166.333 318 166.333C319.473 166.333 320.667 167.527 320.667 169C320.667 170.473 319.473 171.667 318 171.667ZM318 207.667C316.527 207.667 315.333 206.473 315.333 205C315.333 203.527 316.527 202.333 318 202.333C319.473 202.333 320.667 203.527 320.667 205C320.667 206.473 319.473 207.667 318 207.667ZM318.5 169L318.5 205L317.5 205L317.5 169L318.5 169Z" fill="white"/>
<path d="M325 240C325 246.125 319.125 251 312 251C309.562 251 307.375 250.5 305.438 249.5C303.875 250.312 301.875 251 299.438 251C299.25 251 299.062 250.938 299 250.75C298.938 250.562 298.938 250.375 299.125 250.25C299.125 250.188 300.562 248.688 301.562 246.625C299.938 244.75 299 242.5 299 240C299 233.938 304.812 229 312 229C319.125 229 325 233.938 325 240ZM336.438 256.75C337.438 258.75 338.812 260.188 338.812 260.25C339 260.375 339 260.562 338.938 260.75C338.875 260.938 338.688 261 338.5 261C336.25 261 334.312 260.438 332.75 259.688C331.062 260.5 329.062 261 327 261C321.312 261 316.625 257.5 315.312 252.688C322 251.375 327 246.188 327 240C327 239.688 326.938 239.375 326.938 239.062C326.938 239.062 326.938 239 327 239C333.625 239 339 243.938 339 250C339 252.562 338 254.875 336.438 256.75Z" fill="white"/>
<g filter="url(#filter11_d_3090_840)">
<circle cx="318" cy="379" r="16" fill="#6E6E6E"/>
<circle cx="318" cy="379" r="15.5" stroke="white" stroke-opacity="0.2"/>
</g>
<path d="M313.136 382.082V380.266L317.69 373.091H319.256V375.605H318.33L315.459 380.149V380.234H321.93V382.082H313.136ZM318.372 384V381.528L318.415 380.724V373.091H320.578V384H318.372Z" fill="white"/>
<g filter="url(#filter12_d_3090_840)">
<circle cx="318" cy="471" r="40" fill="#D8D8D8"/>
<circle cx="318" cy="471" r="39" stroke="white" stroke-opacity="0.1" stroke-width="2"/>
</g>
<g filter="url(#filter13_d_3090_840)">
<circle cx="318" cy="471" r="47" stroke="white" stroke-opacity="0.1" stroke-width="2" shape-rendering="crispEdges"/>
</g>
<path d="M318 397.667C316.527 397.667 315.333 396.473 315.333 395C315.333 393.527 316.527 392.333 318 392.333C319.473 392.333 320.667 393.527 320.667 395C320.667 396.473 319.473 397.667 318 397.667ZM318 433.667C316.527 433.667 315.333 432.473 315.333 431C315.333 429.527 316.527 428.333 318 428.333C319.473 428.333 320.667 429.527 320.667 431C320.667 432.473 319.473 433.667 318 433.667ZM318.5 395L318.5 431L317.5 431L317.5 395L318.5 395Z" fill="white"/>
<path d="M331 461C332.625 461 334 462.375 334 464V482C334 483.688 332.625 485 331 485H305C303.312 485 302 483.688 302 482V460C302 458.375 303.312 457 305 457H315L319 461H331ZM323 474.5C323.812 474.5 324.5 473.875 324.5 473C324.5 472.188 323.812 471.562 323 471.562H319.5V468C319.5 467.188 318.812 466.5 318 466.5C317.125 466.5 316.5 467.188 316.5 468V471.562H313C312.125 471.562 311.5 472.188 311.5 473C311.5 473.875 312.125 474.5 313 474.5H316.5V478.062C316.5 478.875 317.125 479.5 318 479.5C318.812 479.5 319.5 478.875 319.5 478.062V474.5H323Z" fill="#323232"/>
<g filter="url(#filter14_d_3090_840)">
<circle cx="511" cy="511" r="16" transform="rotate(-180 511 511)" fill="#6E6E6E"/>
<circle cx="511" cy="511" r="15.5" transform="rotate(-180 511 511)" stroke="white" stroke-opacity="0.2"/>
</g>
<path d="M511.035 517.149C510.282 517.149 509.611 517.011 509.021 516.734C508.435 516.457 507.97 516.075 507.626 515.588C507.281 515.102 507.102 514.544 507.088 513.916H509.325C509.35 514.338 509.527 514.681 509.857 514.944C510.188 515.207 510.58 515.338 511.035 515.338C511.397 515.338 511.716 515.258 511.993 515.098C512.274 514.935 512.492 514.71 512.649 514.422C512.808 514.131 512.888 513.797 512.888 513.42C512.888 513.037 512.807 512.7 512.643 512.408C512.483 512.117 512.262 511.89 511.977 511.727C511.693 511.563 511.368 511.48 511.003 511.476C510.683 511.476 510.372 511.542 510.07 511.673C509.772 511.805 509.54 511.984 509.373 512.211L507.322 511.844L507.839 506.091H514.508V507.977H509.74L509.458 510.709H509.522C509.714 510.439 510.003 510.216 510.39 510.038C510.777 509.86 511.21 509.772 511.69 509.772C512.347 509.772 512.933 509.926 513.448 510.235C513.963 510.544 514.369 510.968 514.667 511.508C514.966 512.044 515.113 512.662 515.11 513.362C515.113 514.097 514.943 514.75 514.598 515.322C514.257 515.89 513.78 516.338 513.165 516.664C512.555 516.988 511.844 517.149 511.035 517.149Z" fill="white"/>
<g filter="url(#filter15_d_3090_840)">
<circle cx="511" cy="419" r="40" transform="rotate(-180 511 419)" fill="#AB001F"/>
<circle cx="511" cy="419" r="39" transform="rotate(-180 511 419)" stroke="white" stroke-opacity="0.2" stroke-width="2"/>
</g>
<g filter="url(#filter16_d_3090_840)">
<path d="M464 419C464 393.043 485.043 372 511 372C536.957 372 558 393.043 558 419C558 444.957 536.957 466 511 466C485.043 466 464 444.957 464 419Z" stroke="white" stroke-opacity="0.2" stroke-width="2" shape-rendering="crispEdges"/>
</g>
<path d="M511 492.333C512.473 492.333 513.667 493.527 513.667 495C513.667 496.473 512.473 497.667 511 497.667C509.527 497.667 508.333 496.473 508.333 495C508.333 493.527 509.527 492.333 511 492.333ZM511 456.333C512.473 456.333 513.667 457.527 513.667 459C513.667 460.473 512.473 461.667 511 461.667C509.527 461.667 508.333 460.473 508.333 459C508.333 457.527 509.527 456.333 511 456.333ZM510.5 495L510.5 459L511.5 459L511.5 495L510.5 495Z" fill="white"/>
<path d="M505 419C500.562 419 497 415.438 497 411C497 406.625 500.562 403 505 403C509.375 403 513 406.625 513 411C513 415.438 509.375 419 505 419ZM508.125 422C514.125 422 519 426.875 519 432.875C519 434.062 518 435 516.812 435H493.125C491.938 435 491 434.062 491 432.875C491 426.875 495.812 422 501.812 422H508.125ZM520.938 423C526.5 423 531 427.5 531 433C531 434.125 530.062 435 529 435H520.375C520.75 434.375 521 433.688 521 432.875C521 428.938 519.188 425.375 516.375 423H520.938ZM518 419C516 419 514.25 418.25 513 416.938C514.25 415.312 515 413.25 515 411C515 409.375 514.5 407.812 513.812 406.438C514.938 405.562 516.375 405 518 405C521.812 405 525 408.188 525 412C525 415.875 521.812 419 518 419Z" fill="white"/>
<g filter="url(#filter17_d_3090_840)">
<circle cx="603" cy="245" r="16" transform="rotate(90 603 245)" fill="#6E6E6E"/>
<circle cx="603" cy="245" r="15.5" transform="rotate(90 603 245)" stroke="white" stroke-opacity="0.2"/>
</g>
<path d="M603.12 250.149C602.559 250.146 602.017 250.051 601.495 249.867C600.977 249.682 600.512 249.382 600.1 248.967C599.688 248.551 599.361 248.001 599.119 247.315C598.882 246.63 598.763 245.788 598.763 244.79C598.766 243.874 598.871 243.056 599.077 242.335C599.286 241.61 599.585 240.996 599.972 240.492C600.362 239.988 600.829 239.604 601.373 239.341C601.916 239.075 602.525 238.942 603.2 238.942C603.928 238.942 604.57 239.084 605.128 239.368C605.686 239.648 606.133 240.03 606.47 240.513C606.811 240.996 607.017 241.538 607.088 242.138H604.814C604.725 241.758 604.539 241.46 604.254 241.243C603.97 241.026 603.619 240.918 603.2 240.918C602.49 240.918 601.95 241.227 601.58 241.845C601.215 242.463 601.028 243.303 601.021 244.364H601.096C601.259 244.041 601.479 243.766 601.756 243.539C602.037 243.308 602.355 243.132 602.71 243.011C603.068 242.887 603.447 242.825 603.844 242.825C604.491 242.825 605.066 242.978 605.57 243.283C606.074 243.585 606.472 244 606.763 244.529C607.055 245.059 607.2 245.664 607.2 246.346C607.2 247.085 607.028 247.741 606.683 248.317C606.343 248.892 605.865 249.343 605.251 249.67C604.64 249.993 603.93 250.153 603.12 250.149ZM603.109 248.338C603.464 248.338 603.782 248.253 604.063 248.082C604.343 247.912 604.563 247.681 604.723 247.39C604.883 247.099 604.963 246.772 604.963 246.41C604.963 246.048 604.883 245.723 604.723 245.435C604.567 245.147 604.35 244.918 604.073 244.748C603.796 244.577 603.48 244.492 603.125 244.492C602.859 244.492 602.612 244.542 602.385 244.641C602.161 244.741 601.964 244.879 601.794 245.057C601.627 245.234 601.495 245.44 601.399 245.675C601.303 245.906 601.256 246.152 601.256 246.415C601.256 246.767 601.335 247.088 601.495 247.379C601.659 247.67 601.879 247.903 602.156 248.077C602.436 248.251 602.754 248.338 603.109 248.338Z" fill="white"/>
<g filter="url(#filter18_d_3090_840)">
<circle cx="511" cy="245" r="40" transform="rotate(90 511 245)" fill="#9A9A9A"/>
<circle cx="511" cy="245" r="39" transform="rotate(90 511 245)" stroke="white" stroke-opacity="0.1" stroke-width="2"/>
</g>
<path d="M509.812 241.188C508.188 241.688 506.938 243.25 506.938 245.062C506.938 247.25 508.75 249.062 511 249.062C512.75 249.062 514.312 247.812 514.812 246.188L518.5 242.438C518.812 243.25 518.938 244.125 518.938 245.062C518.938 249.438 515.375 253.062 511 253.062C506.562 253.062 503 249.438 503 245.062C503 240.625 506.562 237.062 511 237.062C511.875 237.062 512.75 237.188 513.562 237.5L509.812 241.188ZM524.062 242.125L525.375 240.875C525.75 242.188 526 243.562 526 245.062C526 253.312 519.25 260 511 260C502.688 260 496 253.312 496 245.062C496 236.75 502.688 230.062 511 230.062C512.438 230.062 513.812 230.25 515.125 230.625L513.875 231.938C513.25 232.5 512.938 233.375 513 234.25C512.312 234.125 511.688 234.062 511 234.062C504.875 234.062 500 238.938 500 245.062C500 251.125 504.875 256 511 256C517.062 256 521.938 251.125 521.938 245.062C521.938 244.312 521.875 243.688 521.75 243C521.812 243 521.875 243.062 522 243.062C522.75 243.062 523.5 242.75 524.062 242.125ZM526.938 235.75C527.062 236.125 526.938 236.5 526.688 236.75L522.688 240.75C522.5 240.938 522.25 241.062 522 241.062C521.875 241.062 521.812 241 521.75 241L517.875 240.25L512.5 245.562C512.25 245.875 511.875 246.062 511.5 246.062C511.062 246.062 510.688 245.875 510.438 245.562C509.812 245 509.812 244.062 510.438 243.5L515.75 238.125L515 234.25C514.938 233.875 515 233.562 515.25 233.312L519.25 229.312C519.5 229.062 519.875 228.938 520.25 229.062C520.625 229.188 520.875 229.5 520.938 229.812L522 234.062L526.188 235.062C526.5 235.125 526.812 235.375 526.938 235.75Z" fill="white"/>
<g filter="url(#filter19_d_3090_840)">
<circle cx="511" cy="245" r="47" transform="rotate(90 511 245)" stroke="white" stroke-opacity="0.1" stroke-width="2" shape-rendering="crispEdges"/>
</g>
<path d="M584.333 245C584.333 243.527 585.527 242.333 587 242.333C588.473 242.333 589.667 243.527 589.667 245C589.667 246.473 588.473 247.667 587 247.667C585.527 247.667 584.333 246.473 584.333 245ZM548.333 245C548.333 243.527 549.527 242.333 551 242.333C552.473 242.333 553.667 243.527 553.667 245C553.667 246.473 552.473 247.667 551 247.667C549.527 247.667 548.333 246.473 548.333 245ZM587 245.5L551 245.5L551 244.5L587 244.5V245.5Z" fill="white"/>
<path fill-rule="evenodd" clip-rule="evenodd" d="M555.381 78.16C557.808 76.7591 560.624 75.9576 563.627 75.9576H564.52C573.643 75.9576 581.038 83.353 581.038 92.4758C581.038 93.8616 580.868 95.2076 580.546 96.4938H581.931C591.301 96.4938 598.896 104.089 598.896 113.459C598.896 122.828 591.301 130.423 581.931 130.423H497.623L497.554 130.423H496.661L496.592 130.423H494.429C490.249 130.423 486.422 128.911 483.465 126.404C477.152 122.155 473 114.943 473 106.762C473 93.6942 483.594 83.1007 496.661 83.1007H497.554C499.752 83.1007 501.881 83.4005 503.9 83.9614C506.395 71.7508 517.197 62.5645 530.144 62.5645H531.037C541.836 62.5645 551.142 68.9547 555.381 78.16Z" fill="white" fill-opacity="0.16"/>
<path fill-rule="evenodd" clip-rule="evenodd" d="M609.76 62.0922C612.071 57.3037 616.972 54 622.645 54H623.122C631.019 54 637.421 60.4018 637.421 68.2988C637.421 68.8231 637.392 69.3408 637.337 69.8505C642.244 70.6124 646 74.8556 646 79.9761C646 85.6356 641.412 90.2235 635.752 90.2235H601.435C595.776 90.2235 591.188 85.6356 591.188 79.9761C591.188 75.7177 593.785 72.0659 597.483 70.5188C597.418 70.1061 597.384 69.683 597.384 69.2521C597.384 64.7771 601.012 61.1494 605.487 61.1494H605.963C607.335 61.1494 608.628 61.4904 609.76 62.0922Z" fill="white" fill-opacity="0.08"/>
<path d="M619 498.291L623.077 494.214C627.061 490.23 633.521 490.23 637.505 494.214V494.214C641.489 498.198 647.948 498.198 651.932 494.214V494.214C655.916 490.23 662.375 490.23 666.359 494.214V494.214C670.343 498.198 676.802 498.198 680.786 494.214V494.214C684.77 490.23 691.23 490.23 695.214 494.214V494.214C699.198 498.198 705.657 498.198 709.641 494.214V494.214C713.625 490.23 720.084 490.23 724.068 494.214V494.214C728.052 498.198 734.511 498.198 738.495 494.214V494.214C742.479 490.23 748.939 490.23 752.923 494.214L757 498.291" stroke="white" stroke-opacity="0.1" stroke-width="2"/>
<path d="M619 510.836L623.077 506.759C627.061 502.775 633.521 502.775 637.505 506.759V506.759C641.489 510.743 647.948 510.743 651.932 506.759V506.759C655.916 502.775 662.375 502.775 666.359 506.759V506.759C670.343 510.743 676.802 510.743 680.786 506.759V506.759C684.77 502.775 691.23 502.775 695.214 506.759V506.759C699.198 510.743 705.657 510.743 709.641 506.759V506.759C713.625 502.775 720.084 502.775 724.068 506.759V506.759C728.052 510.743 734.511 510.743 738.495 506.759V506.759C742.479 502.775 748.939 502.775 752.923 506.759L757 510.836" stroke="white" stroke-opacity="0.1" stroke-width="2"/>
<path d="M619 524.009L623.077 519.932C627.061 515.948 633.521 515.948 637.505 519.932V519.932C641.489 523.916 647.948 523.916 651.932 519.932V519.932C655.916 515.948 662.375 515.948 666.359 519.932V519.932C670.343 523.916 676.802 523.916 680.786 519.932V519.932C684.77 515.948 691.23 515.948 695.214 519.932V519.932C699.198 523.916 705.657 523.916 709.641 519.932V519.932C713.625 515.948 720.084 515.948 724.068 519.932V519.932C728.052 523.916 734.511 523.916 738.495 519.932V519.932C742.479 515.948 748.939 515.948 752.923 519.932L757 524.009" stroke="white" stroke-opacity="0.1" stroke-width="2"/>
<path d="M-51 256.291L-46.9227 252.214C-42.9388 248.23 -36.4794 248.23 -32.4955 252.214V252.214C-28.5115 256.198 -22.0522 256.198 -18.0682 252.214V252.214C-14.0842 248.23 -7.62489 248.23 -3.64091 252.214V252.214C0.343074 256.198 6.80238 256.198 10.7864 252.214V252.214C14.7703 248.23 21.2297 248.23 25.2136 252.214V252.214C29.1976 256.198 35.6569 256.198 39.6409 252.214V252.214C43.6249 248.23 50.0842 248.23 54.0682 252.214V252.214C58.0522 256.198 64.5115 256.198 68.4955 252.214V252.214C72.4794 248.23 78.9387 248.23 82.9227 252.214L87 256.291" stroke="white" stroke-opacity="0.1" stroke-width="2"/>
<path d="M-51 268.836L-46.9227 264.759C-42.9388 260.775 -36.4794 260.775 -32.4955 264.759V264.759C-28.5115 268.743 -22.0522 268.743 -18.0682 264.759V264.759C-14.0842 260.775 -7.62489 260.775 -3.64091 264.759V264.759C0.343074 268.743 6.80238 268.743 10.7864 264.759V264.759C14.7703 260.775 21.2297 260.775 25.2136 264.759V264.759C29.1976 268.743 35.6569 268.743 39.6409 264.759V264.759C43.6249 260.775 50.0842 260.775 54.0682 264.759V264.759C58.0522 268.743 64.5115 268.743 68.4955 264.759V264.759C72.4794 260.775 78.9387 260.775 82.9227 264.759L87 268.836" stroke="white" stroke-opacity="0.1" stroke-width="2"/>
<path d="M-51 282.009L-46.9227 277.932C-42.9388 273.948 -36.4794 273.948 -32.4955 277.932V277.932C-28.5115 281.916 -22.0522 281.916 -18.0682 277.932V277.932C-14.0842 273.948 -7.62489 273.948 -3.64091 277.932V277.932C0.343074 281.916 6.80238 281.916 10.7864 277.932V277.932C14.7703 273.948 21.2297 273.948 25.2136 277.932V277.932C29.1976 281.916 35.6569 281.916 39.6409 277.932V277.932C43.6249 273.948 50.0842 273.948 54.0682 277.932V277.932C58.0522 281.916 64.5115 281.916 68.4955 277.932V277.932C72.4794 273.948 78.9387 273.948 82.9227 277.932L87 282.009" stroke="white" stroke-opacity="0.1" stroke-width="2"/>
<path d="M464 323.291L468.077 319.214C472.061 315.23 478.521 315.23 482.505 319.214V319.214C486.489 323.198 492.948 323.198 496.932 319.214V319.214C500.916 315.23 507.375 315.23 511.359 319.214V319.214C515.343 323.198 521.802 323.198 525.786 319.214V319.214C529.77 315.23 536.23 315.23 540.214 319.214L547.427 326.427" stroke="white" stroke-opacity="0.1" stroke-width="2"/>
<path d="M464 335.836L468.077 331.759C472.061 327.775 478.521 327.775 482.505 331.759V331.759C486.489 335.743 492.948 335.743 496.932 331.759V331.759C500.916 327.775 507.375 327.775 511.359 331.759V331.759C515.343 335.743 521.802 335.743 525.786 331.759V331.759C529.77 327.775 536.23 327.775 540.214 331.759L547.427 338.973" stroke="white" stroke-opacity="0.1" stroke-width="2"/>
<path d="M464 349.009L468.077 344.932C472.061 340.948 478.521 340.948 482.505 344.932V344.932C486.489 348.916 492.948 348.916 496.932 344.932V344.932C500.916 340.948 507.375 340.948 511.359 344.932V344.932C515.343 348.916 521.802 348.916 525.786 344.932V344.932C529.77 340.948 536.23 340.948 540.214 344.932L547.427 352.146" stroke="white" stroke-opacity="0.1" stroke-width="2"/>
<path fill-rule="evenodd" clip-rule="evenodd" d="M658.278 411.961C658.615 409.685 660.568 408 662.869 408C665.144 408 667.084 409.649 667.449 411.895L669.251 422.95C669.845 426.595 667.242 429.924 663.668 430.321V437.483H662.011V430.292C658.586 429.79 656.112 426.581 656.636 423.041L658.278 411.961ZM641.487 418.862C644.517 418.862 646.974 421.319 646.974 424.349V435.161C646.974 437.918 644.942 440.199 642.294 440.589V451.138H640.68V440.589C638.032 440.199 636 437.918 636 435.161V424.349C636 421.319 638.457 418.862 641.487 418.862ZM655.552 460.404C655.552 457.343 658.033 454.862 661.094 454.862C664.155 454.862 666.636 457.343 666.636 460.404C666.636 463.188 664.584 465.493 661.909 465.887V471H660.279V465.887C657.604 465.493 655.552 463.188 655.552 460.404Z" fill="white" fill-opacity="0.08"/>
<path fill-rule="evenodd" clip-rule="evenodd" d="M217.431 507C214.354 507 211.741 509.254 211.29 512.299L209.094 527.12C208.392 531.855 211.703 536.147 216.284 536.819V546.438H218.5V536.858C223.281 536.327 226.763 531.873 225.969 526.998L223.559 512.21C223.069 509.206 220.474 507 217.431 507ZM230.905 523.339C230.905 519.245 234.224 515.925 238.319 515.925C242.413 515.925 245.732 519.245 245.732 523.339C245.732 527.063 242.986 530.146 239.409 530.673V537.512H237.228V530.673C233.651 530.146 230.905 527.063 230.905 523.339Z" fill="white" fill-opacity="0.08"/>
<g filter="url(#filter20_d_3090_840)">
<rect x="182" y="84" width="247" height="32" rx="8" fill="#FEE0BC"/>
<path d="M194.392 108.807V104.278H195.17C195.432 104.07 195.676 103.777 195.903 103.398C196.131 103.019 196.324 102.5 196.483 101.841C196.642 101.182 196.752 100.33 196.812 99.2841L197.119 94.3636H204.557V104.278H205.852V108.795H203.83V106H196.415V108.807H194.392ZM197.625 104.278H202.534V96.1307H199.017L198.835 99.2841C198.786 100.076 198.706 100.784 198.597 101.409C198.487 102.034 198.348 102.585 198.182 103.062C198.015 103.536 197.83 103.941 197.625 104.278ZM211.286 106.17C210.433 106.17 209.695 105.983 209.07 105.608C208.445 105.233 207.96 104.708 207.615 104.034C207.274 103.36 207.104 102.572 207.104 101.67C207.104 100.769 207.274 99.9792 207.615 99.3011C207.96 98.6231 208.445 98.0966 209.07 97.7216C209.695 97.3466 210.433 97.1591 211.286 97.1591C212.138 97.1591 212.876 97.3466 213.501 97.7216C214.126 98.0966 214.609 98.6231 214.95 99.3011C215.295 99.9792 215.467 100.769 215.467 101.67C215.467 102.572 215.295 103.36 214.95 104.034C214.609 104.708 214.126 105.233 213.501 105.608C212.876 105.983 212.138 106.17 211.286 106.17ZM211.297 104.523C211.759 104.523 212.145 104.396 212.456 104.142C212.767 103.884 212.998 103.54 213.149 103.108C213.304 102.676 213.382 102.195 213.382 101.665C213.382 101.131 213.304 100.648 213.149 100.216C212.998 99.7803 212.767 99.4337 212.456 99.1761C212.145 98.9186 211.759 98.7898 211.297 98.7898C210.823 98.7898 210.429 98.9186 210.115 99.1761C209.804 99.4337 209.571 99.7803 209.416 100.216C209.265 100.648 209.189 101.131 209.189 101.665C209.189 102.195 209.265 102.676 209.416 103.108C209.571 103.54 209.804 103.884 210.115 104.142C210.429 104.396 210.823 104.523 211.297 104.523ZM217.213 106V97.2727H224.582V106H222.599V98.9602H219.179V106H217.213ZM230.504 106.17C229.652 106.17 228.913 105.983 228.288 105.608C227.663 105.233 227.179 104.708 226.834 104.034C226.493 103.36 226.322 102.572 226.322 101.67C226.322 100.769 226.493 99.9792 226.834 99.3011C227.179 98.6231 227.663 98.0966 228.288 97.7216C228.913 97.3466 229.652 97.1591 230.504 97.1591C231.357 97.1591 232.095 97.3466 232.72 97.7216C233.345 98.0966 233.828 98.6231 234.169 99.3011C234.514 99.9792 234.686 100.769 234.686 101.67C234.686 102.572 234.514 103.36 234.169 104.034C233.828 104.708 233.345 105.233 232.72 105.608C232.095 105.983 231.357 106.17 230.504 106.17ZM230.516 104.523C230.978 104.523 231.364 104.396 231.675 104.142C231.985 103.884 232.216 103.54 232.368 103.108C232.523 102.676 232.601 102.195 232.601 101.665C232.601 101.131 232.523 100.648 232.368 100.216C232.216 99.7803 231.985 99.4337 231.675 99.1761C231.364 98.9186 230.978 98.7898 230.516 98.7898C230.042 98.7898 229.648 98.9186 229.334 99.1761C229.023 99.4337 228.79 99.7803 228.635 100.216C228.483 100.648 228.408 101.131 228.408 101.665C228.408 102.195 228.483 102.676 228.635 103.108C228.79 103.54 229.023 103.884 229.334 104.142C229.648 104.396 230.042 104.523 230.516 104.523ZM235.83 106L235.818 104.307H236.119C236.347 104.307 236.538 104.256 236.693 104.153C236.848 104.051 236.977 103.881 237.08 103.642C237.182 103.4 237.261 103.074 237.318 102.665C237.375 102.256 237.415 101.746 237.438 101.136L237.591 97.2727H243.955V106H241.966V98.9602H239.46L239.324 101.773C239.29 102.5 239.208 103.131 239.08 103.665C238.955 104.195 238.777 104.633 238.545 104.977C238.318 105.322 238.032 105.58 237.688 105.75C237.343 105.917 236.936 106 236.466 106H235.83ZM252.02 100.784V102.472H247.372V100.784H252.02ZM248.009 97.2727V106H246.026V97.2727H248.009ZM253.366 97.2727V106H251.389V97.2727H253.366ZM257.43 103.216L260.925 97.2727H263.038V106H261.05V100.051L257.567 106H255.447V97.2727H257.43V103.216ZM264.173 98.9602V97.2727H271.81V98.9602H268.986V106H266.997V98.9602H264.173ZM276.952 106.17C276.077 106.17 275.321 105.989 274.685 105.625C274.052 105.258 273.565 104.739 273.224 104.068C272.884 103.394 272.713 102.6 272.713 101.688C272.713 100.79 272.884 100.002 273.224 99.3239C273.569 98.642 274.05 98.1117 274.668 97.733C275.285 97.3504 276.01 97.1591 276.844 97.1591C277.382 97.1591 277.889 97.2462 278.366 97.4205C278.848 97.5909 279.272 97.8561 279.639 98.2159C280.01 98.5758 280.302 99.0341 280.514 99.5909C280.726 100.144 280.832 100.803 280.832 101.568V102.199H273.679V100.812H278.861C278.857 100.419 278.772 100.068 278.605 99.7614C278.438 99.4508 278.205 99.2064 277.906 99.0284C277.611 98.8504 277.266 98.7614 276.872 98.7614C276.452 98.7614 276.082 98.8636 275.764 99.0682C275.446 99.2689 275.198 99.5341 275.02 99.8636C274.846 100.189 274.757 100.547 274.753 100.938V102.148C274.753 102.655 274.846 103.091 275.031 103.455C275.217 103.814 275.476 104.091 275.81 104.284C276.143 104.473 276.533 104.568 276.98 104.568C277.279 104.568 277.55 104.527 277.793 104.443C278.035 104.356 278.245 104.229 278.423 104.062C278.601 103.896 278.736 103.689 278.827 103.443L280.747 103.659C280.626 104.167 280.395 104.61 280.054 104.989C279.717 105.364 279.285 105.655 278.759 105.864C278.232 106.068 277.63 106.17 276.952 106.17ZM281.97 106L281.959 104.307H282.26C282.487 104.307 282.679 104.256 282.834 104.153C282.989 104.051 283.118 103.881 283.22 103.642C283.322 103.4 283.402 103.074 283.459 102.665C283.516 102.256 283.555 101.746 283.578 101.136L283.732 97.2727H290.095V106H288.107V98.9602H285.601L285.464 101.773C285.43 102.5 285.349 103.131 285.22 103.665C285.095 104.195 284.917 104.633 284.686 104.977C284.459 105.322 284.173 105.58 283.828 105.75C283.483 105.917 283.076 106 282.607 106H281.97ZM293.558 100.114H296.132C297.246 100.114 298.107 100.384 298.717 100.926C299.327 101.468 299.634 102.178 299.638 103.057C299.634 103.629 299.494 104.136 299.217 104.58C298.945 105.023 298.547 105.371 298.024 105.625C297.505 105.875 296.875 106 296.132 106H292.166V97.2727H294.149V104.312H296.132C296.579 104.312 296.946 104.199 297.234 103.972C297.522 103.741 297.666 103.445 297.666 103.085C297.666 102.706 297.522 102.398 297.234 102.159C296.946 101.92 296.579 101.801 296.132 101.801H293.558V100.114ZM307.395 100.784V102.472H302.747V100.784H307.395ZM303.384 97.2727V106H301.401V97.2727H303.384ZM308.741 97.2727V106H306.764V97.2727H308.741ZM312.214 100.114H314.788C315.902 100.114 316.764 100.384 317.374 100.926C317.983 101.468 318.29 102.178 318.294 103.057C318.29 103.629 318.15 104.136 317.874 104.58C317.601 105.023 317.203 105.371 316.68 105.625C316.161 105.875 315.531 106 314.788 106H310.822V97.2727H312.805V104.312H314.788C315.235 104.312 315.603 104.199 315.891 103.972C316.179 103.741 316.322 103.445 316.322 103.085C316.322 102.706 316.179 102.398 315.891 102.159C315.603 101.92 315.235 101.801 314.788 101.801H312.214V100.114ZM319.379 106V97.2727H321.436V106H319.379ZM325.54 103.216L329.034 97.2727H331.148V106H329.159V100.051L325.676 106H323.557V97.2727H325.54V103.216ZM328.472 94.2727H330.011C330.011 94.9356 329.771 95.4735 329.29 95.8864C328.813 96.2955 328.165 96.5 327.347 96.5C326.536 96.5 325.89 96.2955 325.409 95.8864C324.932 95.4735 324.695 94.9356 324.699 94.2727H326.227C326.227 94.5455 326.311 94.7898 326.477 95.0057C326.648 95.2178 326.938 95.3239 327.347 95.3239C327.748 95.3239 328.034 95.2178 328.205 95.0057C328.379 94.7936 328.468 94.5492 328.472 94.2727ZM339.74 106.176C339.187 106.176 338.689 106.078 338.246 105.881C337.806 105.68 337.458 105.384 337.2 104.994C336.946 104.604 336.82 104.123 336.82 103.551C336.82 103.059 336.911 102.652 337.092 102.33C337.274 102.008 337.522 101.75 337.837 101.557C338.151 101.364 338.505 101.218 338.899 101.119C339.297 101.017 339.708 100.943 340.132 100.898C340.643 100.845 341.058 100.797 341.376 100.756C341.695 100.71 341.926 100.642 342.07 100.551C342.217 100.456 342.291 100.311 342.291 100.114V100.08C342.291 99.6515 342.164 99.3201 341.911 99.0852C341.657 98.8504 341.291 98.733 340.814 98.733C340.31 98.733 339.911 98.8428 339.615 99.0625C339.323 99.2822 339.126 99.5417 339.024 99.8409L337.104 99.5682C337.255 99.0379 337.505 98.5947 337.854 98.2386C338.202 97.8788 338.628 97.6098 339.132 97.4318C339.636 97.25 340.193 97.1591 340.803 97.1591C341.223 97.1591 341.642 97.2083 342.058 97.3068C342.475 97.4053 342.856 97.5682 343.2 97.7955C343.545 98.0189 343.821 98.3239 344.03 98.7102C344.242 99.0966 344.348 99.5795 344.348 100.159V106H342.371V104.801H342.303C342.178 105.044 342.001 105.271 341.774 105.483C341.551 105.691 341.268 105.86 340.928 105.989C340.59 106.114 340.195 106.176 339.74 106.176ZM340.274 104.665C340.687 104.665 341.045 104.583 341.348 104.42C341.651 104.254 341.884 104.034 342.047 103.761C342.214 103.489 342.297 103.191 342.297 102.869V101.841C342.232 101.894 342.123 101.943 341.967 101.989C341.816 102.034 341.645 102.074 341.456 102.108C341.267 102.142 341.079 102.172 340.893 102.199C340.708 102.225 340.547 102.248 340.411 102.267C340.104 102.309 339.829 102.377 339.587 102.472C339.344 102.566 339.153 102.699 339.013 102.869C338.873 103.036 338.803 103.252 338.803 103.517C338.803 103.896 338.941 104.182 339.217 104.375C339.494 104.568 339.846 104.665 340.274 104.665ZM346.416 109.273V97.2727H348.439V98.7159H348.558C348.664 98.5038 348.814 98.2784 349.007 98.0398C349.2 97.7973 349.462 97.5909 349.791 97.4205C350.121 97.2462 350.541 97.1591 351.053 97.1591C351.727 97.1591 352.335 97.3314 352.876 97.6761C353.422 98.017 353.854 98.5227 354.172 99.1932C354.494 99.8598 354.655 100.678 354.655 101.648C354.655 102.606 354.498 103.42 354.183 104.091C353.869 104.761 353.441 105.273 352.899 105.625C352.357 105.977 351.744 106.153 351.058 106.153C350.558 106.153 350.143 106.07 349.814 105.903C349.484 105.737 349.219 105.536 349.018 105.301C348.821 105.062 348.668 104.837 348.558 104.625H348.473V109.273H346.416ZM348.433 101.636C348.433 102.201 348.513 102.695 348.672 103.119C348.835 103.544 349.068 103.875 349.371 104.114C349.678 104.348 350.049 104.466 350.484 104.466C350.939 104.466 351.32 104.345 351.626 104.102C351.933 103.856 352.164 103.521 352.32 103.097C352.479 102.669 352.558 102.182 352.558 101.636C352.558 101.095 352.481 100.614 352.325 100.193C352.17 99.7727 351.939 99.4432 351.632 99.2045C351.325 98.9659 350.943 98.8466 350.484 98.8466C350.045 98.8466 349.672 98.9621 349.365 99.1932C349.058 99.4242 348.825 99.7481 348.666 100.165C348.511 100.581 348.433 101.072 348.433 101.636ZM355.455 98.9602V97.2727H363.091V98.9602H360.267V106H358.278V98.9602H355.455ZM368.233 106.17C367.358 106.17 366.602 105.989 365.966 105.625C365.333 105.258 364.847 104.739 364.506 104.068C364.165 103.394 363.994 102.6 363.994 101.688C363.994 100.79 364.165 100.002 364.506 99.3239C364.85 98.642 365.331 98.1117 365.949 97.733C366.566 97.3504 367.292 97.1591 368.125 97.1591C368.663 97.1591 369.17 97.2462 369.648 97.4205C370.129 97.5909 370.553 97.8561 370.92 98.2159C371.292 98.5758 371.583 99.0341 371.795 99.5909C372.008 100.144 372.114 100.803 372.114 101.568V102.199H364.96V100.812H370.142C370.138 100.419 370.053 100.068 369.886 99.7614C369.72 99.4508 369.487 99.2064 369.188 99.0284C368.892 98.8504 368.547 98.7614 368.153 98.7614C367.733 98.7614 367.364 98.8636 367.045 99.0682C366.727 99.2689 366.479 99.5341 366.301 99.8636C366.127 100.189 366.038 100.547 366.034 100.938V102.148C366.034 102.655 366.127 103.091 366.312 103.455C366.498 103.814 366.758 104.091 367.091 104.284C367.424 104.473 367.814 104.568 368.261 104.568C368.561 104.568 368.831 104.527 369.074 104.443C369.316 104.356 369.527 104.229 369.705 104.062C369.883 103.896 370.017 103.689 370.108 103.443L372.028 103.659C371.907 104.167 371.676 104.61 371.335 104.989C370.998 105.364 370.566 105.655 370.04 105.864C369.513 106.068 368.911 106.17 368.233 106.17ZM377.814 108.966V94.3636H379.876V108.966H377.814ZM377.814 106.17C377.174 106.17 376.589 106.062 376.058 105.847C375.528 105.631 375.07 105.324 374.683 104.926C374.301 104.528 374.003 104.055 373.791 103.506C373.583 102.953 373.479 102.341 373.479 101.67C373.479 101 373.583 100.388 373.791 99.8352C374.003 99.2822 374.301 98.8068 374.683 98.4091C375.07 98.0076 375.528 97.6989 376.058 97.483C376.589 97.267 377.174 97.1591 377.814 97.1591H378.251V106.17H377.814ZM377.814 104.511H378.07V98.8182H377.814C377.45 98.8182 377.128 98.8939 376.848 99.0455C376.571 99.1932 376.339 99.3996 376.149 99.6648C375.964 99.9261 375.821 100.229 375.723 100.574C375.628 100.915 375.581 101.28 375.581 101.67C375.581 102.189 375.666 102.665 375.837 103.097C376.007 103.525 376.257 103.867 376.587 104.125C376.92 104.383 377.329 104.511 377.814 104.511ZM379.876 106.17H379.439V97.1591H379.876C380.517 97.1591 381.102 97.267 381.632 97.483C382.162 97.6989 382.619 98.0076 383.001 98.4091C383.388 98.8068 383.685 99.2822 383.893 99.8352C384.106 100.388 384.212 101 384.212 101.67C384.212 102.341 384.106 102.953 383.893 103.506C383.685 104.055 383.388 104.528 383.001 104.926C382.619 105.324 382.162 105.631 381.632 105.847C381.102 106.062 380.517 106.17 379.876 106.17ZM379.876 104.511C380.244 104.511 380.566 104.437 380.842 104.29C381.119 104.142 381.35 103.937 381.536 103.676C381.725 103.415 381.867 103.114 381.962 102.773C382.056 102.428 382.104 102.061 382.104 101.67C382.104 101.152 382.02 100.676 381.854 100.244C381.687 99.8125 381.437 99.4678 381.104 99.2102C380.774 98.9489 380.365 98.8182 379.876 98.8182H379.621V104.511H379.876ZM388.459 106.176C387.906 106.176 387.408 106.078 386.964 105.881C386.525 105.68 386.177 105.384 385.919 104.994C385.665 104.604 385.538 104.123 385.538 103.551C385.538 103.059 385.629 102.652 385.811 102.33C385.993 102.008 386.241 101.75 386.555 101.557C386.87 101.364 387.224 101.218 387.618 101.119C388.016 101.017 388.427 100.943 388.851 100.898C389.362 100.845 389.777 100.797 390.095 100.756C390.413 100.71 390.644 100.642 390.788 100.551C390.936 100.456 391.01 100.311 391.01 100.114V100.08C391.01 99.6515 390.883 99.3201 390.629 99.0852C390.375 98.8504 390.01 98.733 389.533 98.733C389.029 98.733 388.629 98.8428 388.334 99.0625C388.042 99.2822 387.845 99.5417 387.743 99.8409L385.822 99.5682C385.974 99.0379 386.224 98.5947 386.572 98.2386C386.921 97.8788 387.347 97.6098 387.851 97.4318C388.355 97.25 388.911 97.1591 389.521 97.1591C389.942 97.1591 390.36 97.2083 390.777 97.3068C391.194 97.4053 391.574 97.5682 391.919 97.7955C392.264 98.0189 392.54 98.3239 392.749 98.7102C392.961 99.0966 393.067 99.5795 393.067 100.159V106H391.089V104.801H391.021C390.896 105.044 390.72 105.271 390.493 105.483C390.269 105.691 389.987 105.86 389.646 105.989C389.309 106.114 388.913 106.176 388.459 106.176ZM388.993 104.665C389.406 104.665 389.764 104.583 390.067 104.42C390.37 104.254 390.603 104.034 390.766 103.761C390.932 103.489 391.016 103.191 391.016 102.869V101.841C390.951 101.894 390.841 101.943 390.686 101.989C390.535 102.034 390.364 102.074 390.175 102.108C389.985 102.142 389.798 102.172 389.612 102.199C389.427 102.225 389.266 102.248 389.129 102.267C388.822 102.309 388.548 102.377 388.305 102.472C388.063 102.566 387.872 102.699 387.732 102.869C387.591 103.036 387.521 103.252 387.521 103.517C387.521 103.896 387.66 104.182 387.936 104.375C388.213 104.568 388.565 104.665 388.993 104.665ZM395.135 106V97.2727H397.192V100.795H397.942L400.567 97.2727H403.044L399.811 101.557L403.078 106H400.589L398.197 102.71H397.192V106H395.135ZM403.767 98.9602V97.2727H411.403V98.9602H408.58V106H406.591V98.9602H403.767ZM415.558 94.3636L415.371 102.58H413.541L413.359 94.3636H415.558ZM414.456 106.125C414.111 106.125 413.816 106.004 413.57 105.761C413.327 105.519 413.206 105.223 413.206 104.875C413.206 104.534 413.327 104.242 413.57 104C413.816 103.758 414.111 103.636 414.456 103.636C414.793 103.636 415.085 103.758 415.331 104C415.581 104.242 415.706 104.534 415.706 104.875C415.706 105.106 415.647 105.316 415.53 105.506C415.416 105.695 415.265 105.847 415.075 105.96C414.89 106.07 414.683 106.125 414.456 106.125Z" fill="#313741"/>
</g>
<path d="M318 123.5L312 116L324 116L318 123.5Z" fill="#FEE0BC"/>
</g>
<defs>
<filter id="filter0_b_3090_840" x="-80" y="-80" width="876" height="760" filterUnits="userSpaceOnUse" color-interpolation-filters="sRGB">
<feFlood flood-opacity="0" result="BackgroundImageFix"/>
<feGaussianBlur in="BackgroundImageFix" stdDeviation="40"/>
<feComposite in2="SourceAlpha" operator="in" result="effect1_backgroundBlur_3090_840"/>
<feBlend mode="normal" in="SourceGraphic" in2="effect1_backgroundBlur_3090_840" result="shape"/>
</filter>
<filter id="filter1_d_3090_840" x="47" y="38" width="80" height="80" filterUnits="userSpaceOnUse" color-interpolation-filters="sRGB">
<feFlood flood-opacity="0" result="BackgroundImageFix"/>
<feColorMatrix in="SourceAlpha" type="matrix" values="0 0 0 0 0 0 0 0 0 0 0 0 0 0 0 0 0 0 127 0" result="hardAlpha"/>
<feOffset dy="4"/>
<feGaussianBlur stdDeviation="10"/>
<feComposite in2="hardAlpha" operator="out"/>
<feColorMatrix type="matrix" values="0 0 0 0 0.670588 0 0 0 0 0 0 0 0 0 0.121569 0 0 0 1 0"/>
<feBlend mode="normal" in2="BackgroundImageFix" result="effect1_dropShadow_3090_840"/>
<feBlend mode="normal" in="SourceGraphic" in2="effect1_dropShadow_3090_840" result="shape"/>
</filter>
<filter id="filter2_d_3090_840" x="124.2" y="126.76" width="57.6" height="57.6" filterUnits="userSpaceOnUse" color-interpolation-filters="sRGB">
<feFlood flood-opacity="0" result="BackgroundImageFix"/>
<feColorMatrix in="SourceAlpha" type="matrix" values="0 0 0 0 0 0 0 0 0 0 0 0 0 0 0 0 0 0 127 0" result="hardAlpha"/>
<feOffset dy="2.56"/>
<feGaussianBlur stdDeviation="6.4"/>
<feComposite in2="hardAlpha" operator="out"/>
<feColorMatrix type="matrix" values="0 0 0 0 0.410026 0 0 0 0 0.410026 0 0 0 0 0.410026 0 0 0 0.8 0"/>
<feBlend mode="normal" in2="BackgroundImageFix" result="effect1_dropShadow_3090_840"/>
<feBlend mode="normal" in="SourceGraphic" in2="effect1_dropShadow_3090_840" result="shape"/>
</filter>
<filter id="filter3_d_3090_840" x="97" y="192.2" width="112" height="112" filterUnits="userSpaceOnUse" color-interpolation-filters="sRGB">
<feFlood flood-opacity="0" result="BackgroundImageFix"/>
<feColorMatrix in="SourceAlpha" type="matrix" values="0 0 0 0 0 0 0 0 0 0 0 0 0 0 0 0 0 0 127 0" result="hardAlpha"/>
<feOffset dy="3.2"/>
<feGaussianBlur stdDeviation="8"/>
<feComposite in2="hardAlpha" operator="out"/>
<feColorMatrix type="matrix" values="0 0 0 0 0.670588 0 0 0 0 0 0 0 0 0 0.121569 0 0 0 1 0"/>
<feBlend mode="normal" in2="BackgroundImageFix" result="effect1_dropShadow_3090_840"/>
<feBlend mode="normal" in="SourceGraphic" in2="effect1_dropShadow_3090_840" result="shape"/>
</filter>
<filter id="filter4_d_3090_840" x="89" y="184.2" width="128" height="128" filterUnits="userSpaceOnUse" color-interpolation-filters="sRGB">
<feFlood flood-opacity="0" result="BackgroundImageFix"/>
<feColorMatrix in="SourceAlpha" type="matrix" values="0 0 0 0 0 0 0 0 0 0 0 0 0 0 0 0 0 0 127 0" result="hardAlpha"/>
<feOffset dy="3.2"/>
<feGaussianBlur stdDeviation="8"/>
<feComposite in2="hardAlpha" operator="out"/>
<feColorMatrix type="matrix" values="0 0 0 0 0.670588 0 0 0 0 0 0 0 0 0 0.121569 0 0 0 1 0"/>
<feBlend mode="normal" in2="BackgroundImageFix" result="effect1_dropShadow_3090_840"/>
<feBlend mode="normal" in="SourceGraphic" in2="effect1_dropShadow_3090_840" result="shape"/>
</filter>
<filter id="filter5_d_3090_840" x="124.2" y="352.76" width="57.6" height="57.6" filterUnits="userSpaceOnUse" color-interpolation-filters="sRGB">
<feFlood flood-opacity="0" result="BackgroundImageFix"/>
<feColorMatrix in="SourceAlpha" type="matrix" values="0 0 0 0 0 0 0 0 0 0 0 0 0 0 0 0 0 0 127 0" result="hardAlpha"/>
<feOffset dy="2.56"/>
<feGaussianBlur stdDeviation="6.4"/>
<feComposite in2="hardAlpha" operator="out"/>
<feColorMatrix type="matrix" values="0 0 0 0 0.410026 0 0 0 0 0.410026 0 0 0 0 0.410026 0 0 0 0.8 0"/>
<feBlend mode="normal" in2="BackgroundImageFix" result="effect1_dropShadow_3090_840"/>
<feBlend mode="normal" in="SourceGraphic" in2="effect1_dropShadow_3090_840" result="shape"/>
</filter>
<filter id="filter6_d_3090_840" x="97" y="418.2" width="112" height="112" filterUnits="userSpaceOnUse" color-interpolation-filters="sRGB">
<feFlood flood-opacity="0" result="BackgroundImageFix"/>
<feColorMatrix in="SourceAlpha" type="matrix" values="0 0 0 0 0 0 0 0 0 0 0 0 0 0 0 0 0 0 127 0" result="hardAlpha"/>
<feOffset dy="3.2"/>
<feGaussianBlur stdDeviation="8"/>
<feComposite in2="hardAlpha" operator="out"/>
<feColorMatrix type="matrix" values="0 0 0 0 0.410026 0 0 0 0 0.410026 0 0 0 0 0.410026 0 0 0 0.8 0"/>
<feBlend mode="normal" in2="BackgroundImageFix" result="effect1_dropShadow_3090_840"/>
<feBlend mode="normal" in="SourceGraphic" in2="effect1_dropShadow_3090_840" result="shape"/>
</filter>
<filter id="filter7_d_3090_840" x="89" y="410.2" width="128" height="128" filterUnits="userSpaceOnUse" color-interpolation-filters="sRGB">
<feFlood flood-opacity="0" result="BackgroundImageFix"/>
<feColorMatrix in="SourceAlpha" type="matrix" values="0 0 0 0 0 0 0 0 0 0 0 0 0 0 0 0 0 0 127 0" result="hardAlpha"/>
<feOffset dy="3.2"/>
<feGaussianBlur stdDeviation="8"/>
<feComposite in2="hardAlpha" operator="out"/>
<feColorMatrix type="matrix" values="0 0 0 0 0.410026 0 0 0 0 0.410026 0 0 0 0 0.410026 0 0 0 0.8 0"/>
<feBlend mode="normal" in2="BackgroundImageFix" result="effect1_dropShadow_3090_840"/>
<feBlend mode="normal" in="SourceGraphic" in2="effect1_dropShadow_3090_840" result="shape"/>
</filter>
<filter id="filter8_d_3090_840" x="289.2" y="126.76" width="57.6" height="57.6" filterUnits="userSpaceOnUse" color-interpolation-filters="sRGB">
<feFlood flood-opacity="0" result="BackgroundImageFix"/>
<feColorMatrix in="SourceAlpha" type="matrix" values="0 0 0 0 0 0 0 0 0 0 0 0 0 0 0 0 0 0 127 0" result="hardAlpha"/>
<feOffset dy="2.56"/>
<feGaussianBlur stdDeviation="6.4"/>
<feComposite in2="hardAlpha" operator="out"/>
<feColorMatrix type="matrix" values="0 0 0 0 0.410026 0 0 0 0 0.410026 0 0 0 0 0.410026 0 0 0 0.8 0"/>
<feBlend mode="normal" in2="BackgroundImageFix" result="effect1_dropShadow_3090_840"/>
<feBlend mode="normal" in="SourceGraphic" in2="effect1_dropShadow_3090_840" result="shape"/>
</filter>
<filter id="filter9_d_3090_840" x="262" y="192.2" width="112" height="112" filterUnits="userSpaceOnUse" color-interpolation-filters="sRGB">
<feFlood flood-opacity="0" result="BackgroundImageFix"/>
<feColorMatrix in="SourceAlpha" type="matrix" values="0 0 0 0 0 0 0 0 0 0 0 0 0 0 0 0 0 0 127 0" result="hardAlpha"/>
<feOffset dy="3.2"/>
<feGaussianBlur stdDeviation="8"/>
<feComposite in2="hardAlpha" operator="out"/>
<feColorMatrix type="matrix" values="0 0 0 0 0.410026 0 0 0 0 0.410026 0 0 0 0 0.410026 0 0 0 0.8 0"/>
<feBlend mode="normal" in2="BackgroundImageFix" result="effect1_dropShadow_3090_840"/>
<feBlend mode="normal" in="SourceGraphic" in2="effect1_dropShadow_3090_840" result="shape"/>
</filter>
<filter id="filter10_d_3090_840" x="254" y="184.2" width="128" height="128" filterUnits="userSpaceOnUse" color-interpolation-filters="sRGB">
<feFlood flood-opacity="0" result="BackgroundImageFix"/>
<feColorMatrix in="SourceAlpha" type="matrix" values="0 0 0 0 0 0 0 0 0 0 0 0 0 0 0 0 0 0 127 0" result="hardAlpha"/>
<feOffset dy="3.2"/>
<feGaussianBlur stdDeviation="8"/>
<feComposite in2="hardAlpha" operator="out"/>
<feColorMatrix type="matrix" values="0 0 0 0 0.410026 0 0 0 0 0.410026 0 0 0 0 0.410026 0 0 0 0.8 0"/>
<feBlend mode="normal" in2="BackgroundImageFix" result="effect1_dropShadow_3090_840"/>
<feBlend mode="normal" in="SourceGraphic" in2="effect1_dropShadow_3090_840" result="shape"/>
</filter>
<filter id="filter11_d_3090_840" x="289.2" y="352.76" width="57.6" height="57.6" filterUnits="userSpaceOnUse" color-interpolation-filters="sRGB">
<feFlood flood-opacity="0" result="BackgroundImageFix"/>
<feColorMatrix in="SourceAlpha" type="matrix" values="0 0 0 0 0 0 0 0 0 0 0 0 0 0 0 0 0 0 127 0" result="hardAlpha"/>
<feOffset dy="2.56"/>
<feGaussianBlur stdDeviation="6.4"/>
<feComposite in2="hardAlpha" operator="out"/>
<feColorMatrix type="matrix" values="0 0 0 0 0.410026 0 0 0 0 0.410026 0 0 0 0 0.410026 0 0 0 0.8 0"/>
<feBlend mode="normal" in2="BackgroundImageFix" result="effect1_dropShadow_3090_840"/>
<feBlend mode="normal" in="SourceGraphic" in2="effect1_dropShadow_3090_840" result="shape"/>
</filter>
<filter id="filter12_d_3090_840" x="262" y="418.2" width="112" height="112" filterUnits="userSpaceOnUse" color-interpolation-filters="sRGB">
<feFlood flood-opacity="0" result="BackgroundImageFix"/>
<feColorMatrix in="SourceAlpha" type="matrix" values="0 0 0 0 0 0 0 0 0 0 0 0 0 0 0 0 0 0 127 0" result="hardAlpha"/>
<feOffset dy="3.2"/>
<feGaussianBlur stdDeviation="8"/>
<feComposite in2="hardAlpha" operator="out"/>
<feColorMatrix type="matrix" values="0 0 0 0 0.410026 0 0 0 0 0.410026 0 0 0 0 0.410026 0 0 0 0.8 0"/>
<feBlend mode="normal" in2="BackgroundImageFix" result="effect1_dropShadow_3090_840"/>
<feBlend mode="normal" in="SourceGraphic" in2="effect1_dropShadow_3090_840" result="shape"/>
</filter>
<filter id="filter13_d_3090_840" x="254" y="410.2" width="128" height="128" filterUnits="userSpaceOnUse" color-interpolation-filters="sRGB">
<feFlood flood-opacity="0" result="BackgroundImageFix"/>
<feColorMatrix in="SourceAlpha" type="matrix" values="0 0 0 0 0 0 0 0 0 0 0 0 0 0 0 0 0 0 127 0" result="hardAlpha"/>
<feOffset dy="3.2"/>
<feGaussianBlur stdDeviation="8"/>
<feComposite in2="hardAlpha" operator="out"/>
<feColorMatrix type="matrix" values="0 0 0 0 0.410026 0 0 0 0 0.410026 0 0 0 0 0.410026 0 0 0 0.8 0"/>
<feBlend mode="normal" in2="BackgroundImageFix" result="effect1_dropShadow_3090_840"/>
<feBlend mode="normal" in="SourceGraphic" in2="effect1_dropShadow_3090_840" result="shape"/>
</filter>
<filter id="filter14_d_3090_840" x="482.2" y="484.76" width="57.6" height="57.6" filterUnits="userSpaceOnUse" color-interpolation-filters="sRGB">
<feFlood flood-opacity="0" result="BackgroundImageFix"/>
<feColorMatrix in="SourceAlpha" type="matrix" values="0 0 0 0 0 0 0 0 0 0 0 0 0 0 0 0 0 0 127 0" result="hardAlpha"/>
<feOffset dy="2.56"/>
<feGaussianBlur stdDeviation="6.4"/>
<feComposite in2="hardAlpha" operator="out"/>
<feColorMatrix type="matrix" values="0 0 0 0 0.410026 0 0 0 0 0.410026 0 0 0 0 0.410026 0 0 0 0.8 0"/>
<feBlend mode="normal" in2="BackgroundImageFix" result="effect1_dropShadow_3090_840"/>
<feBlend mode="normal" in="SourceGraphic" in2="effect1_dropShadow_3090_840" result="shape"/>
</filter>
<filter id="filter15_d_3090_840" x="455" y="366.2" width="112" height="112" filterUnits="userSpaceOnUse" color-interpolation-filters="sRGB">
<feFlood flood-opacity="0" result="BackgroundImageFix"/>
<feColorMatrix in="SourceAlpha" type="matrix" values="0 0 0 0 0 0 0 0 0 0 0 0 0 0 0 0 0 0 127 0" result="hardAlpha"/>
<feOffset dy="3.2"/>
<feGaussianBlur stdDeviation="8"/>
<feComposite in2="hardAlpha" operator="out"/>
<feColorMatrix type="matrix" values="0 0 0 0 0.670588 0 0 0 0 0 0 0 0 0 0.121569 0 0 0 1 0"/>
<feBlend mode="normal" in2="BackgroundImageFix" result="effect1_dropShadow_3090_840"/>
<feBlend mode="normal" in="SourceGraphic" in2="effect1_dropShadow_3090_840" result="shape"/>
</filter>
<filter id="filter16_d_3090_840" x="447" y="358.2" width="128" height="128" filterUnits="userSpaceOnUse" color-interpolation-filters="sRGB">
<feFlood flood-opacity="0" result="BackgroundImageFix"/>
<feColorMatrix in="SourceAlpha" type="matrix" values="0 0 0 0 0 0 0 0 0 0 0 0 0 0 0 0 0 0 127 0" result="hardAlpha"/>
<feOffset dy="3.2"/>
<feGaussianBlur stdDeviation="8"/>
<feComposite in2="hardAlpha" operator="out"/>
<feColorMatrix type="matrix" values="0 0 0 0 0.670588 0 0 0 0 0 0 0 0 0 0.121569 0 0 0 1 0"/>
<feBlend mode="normal" in2="BackgroundImageFix" result="effect1_dropShadow_3090_840"/>
<feBlend mode="normal" in="SourceGraphic" in2="effect1_dropShadow_3090_840" result="shape"/>
</filter>
<filter id="filter17_d_3090_840" x="574.2" y="218.76" width="57.6" height="57.6" filterUnits="userSpaceOnUse" color-interpolation-filters="sRGB">
<feFlood flood-opacity="0" result="BackgroundImageFix"/>
<feColorMatrix in="SourceAlpha" type="matrix" values="0 0 0 0 0 0 0 0 0 0 0 0 0 0 0 0 0 0 127 0" result="hardAlpha"/>
<feOffset dy="2.56"/>
<feGaussianBlur stdDeviation="6.4"/>
<feComposite in2="hardAlpha" operator="out"/>
<feColorMatrix type="matrix" values="0 0 0 0 0.410026 0 0 0 0 0.410026 0 0 0 0 0.410026 0 0 0 0.8 0"/>
<feBlend mode="normal" in2="BackgroundImageFix" result="effect1_dropShadow_3090_840"/>
<feBlend mode="normal" in="SourceGraphic" in2="effect1_dropShadow_3090_840" result="shape"/>
</filter>
<filter id="filter18_d_3090_840" x="455" y="192.2" width="112" height="112" filterUnits="userSpaceOnUse" color-interpolation-filters="sRGB">
<feFlood flood-opacity="0" result="BackgroundImageFix"/>
<feColorMatrix in="SourceAlpha" type="matrix" values="0 0 0 0 0 0 0 0 0 0 0 0 0 0 0 0 0 0 127 0" result="hardAlpha"/>
<feOffset dy="3.2"/>
<feGaussianBlur stdDeviation="8"/>
<feComposite in2="hardAlpha" operator="out"/>
<feColorMatrix type="matrix" values="0 0 0 0 0.410026 0 0 0 0 0.410026 0 0 0 0 0.410026 0 0 0 0.8 0"/>
<feBlend mode="normal" in2="BackgroundImageFix" result="effect1_dropShadow_3090_840"/>
<feBlend mode="normal" in="SourceGraphic" in2="effect1_dropShadow_3090_840" result="shape"/>
</filter>
<filter id="filter19_d_3090_840" x="447" y="184.2" width="128" height="128" filterUnits="userSpaceOnUse" color-interpolation-filters="sRGB">
<feFlood flood-opacity="0" result="BackgroundImageFix"/>
<feColorMatrix in="SourceAlpha" type="matrix" values="0 0 0 0 0 0 0 0 0 0 0 0 0 0 0 0 0 0 127 0" result="hardAlpha"/>
<feOffset dy="3.2"/>
<feGaussianBlur stdDeviation="8"/>
<feComposite in2="hardAlpha" operator="out"/>
<feColorMatrix type="matrix" values="0 0 0 0 0.410026 0 0 0 0 0.410026 0 0 0 0 0.410026 0 0 0 0.8 0"/>
<feBlend mode="normal" in2="BackgroundImageFix" result="effect1_dropShadow_3090_840"/>
<feBlend mode="normal" in="SourceGraphic" in2="effect1_dropShadow_3090_840" result="shape"/>
</filter>
<filter id="filter20_d_3090_840" x="158" y="60" width="295" height="87.5" filterUnits="userSpaceOnUse" color-interpolation-filters="sRGB">
<feFlood flood-opacity="0" result="BackgroundImageFix"/>
<feColorMatrix in="SourceAlpha" type="matrix" values="0 0 0 0 0 0 0 0 0 0 0 0 0 0 0 0 0 0 127 0" result="hardAlpha"/>
<feOffset/>
<feGaussianBlur stdDeviation="12"/>
<feComposite in2="hardAlpha" operator="out"/>
<feColorMatrix type="matrix" values="0 0 0 0 0.192157 0 0 0 0 0.215686 0 0 0 0 0.254902 0 0 0 0.24 0"/>
<feBlend mode="normal" in2="BackgroundImageFix" result="effect1_dropShadow_3090_840"/>
<feBlend mode="normal" in="SourceGraphic" in2="effect1_dropShadow_3090_840" result="shape"/>
</filter>
<clipPath id="clip0_3090_840">
<rect width="716" height="600" fill="white"/>
</clipPath>
</defs>
</svg>
