<svg width="576" height="576" viewBox="0 0 576 576" fill="none" xmlns="http://www.w3.org/2000/svg">
<g clip-path="url(#clip0_3470_2176)" filter="url(#filter0_b_3470_2176)">
<rect width="576" height="576" fill="#323232"/>
<path d="M69.9888 106.19V131.933C69.9888 153.259 87.2771 170.547 108.603 170.547H306.503C327.829 170.547 345.117 187.836 345.117 209.162V260.648C345.117 281.974 327.829 299.263 306.503 299.263H96.134C81.6944 299.263 69.9888 310.968 69.9888 325.408V325.408C69.9888 339.847 81.6944 351.553 96.134 351.553H306.503C327.829 351.553 345.117 368.841 345.117 390.168V419.933C345.117 441.259 362.406 458.547 383.732 458.547H446.48C467.807 458.547 485.095 441.259 485.095 419.933V209.162C485.095 187.836 502.383 170.547 523.709 170.547H580.827" stroke="#626262" stroke-width="1.60894" stroke-dasharray="6.44 3.22"/>
<g opacity="0.4" filter="url(#filter1_d_3470_2176)">
<circle cx="69.9888" cy="106.19" r="16.0894" fill="#AB001F"/>
</g>
<circle cx="69.9885" cy="106.19" r="8.04469" fill="#AB001F"/>
<g filter="url(#filter2_d_3470_2176)">
<circle cx="123.084" cy="169.743" r="12.8715" fill="#6E6E6E"/>
<circle cx="123.084" cy="169.743" r="12.4693" stroke="white" stroke-opacity="0.2" stroke-width="0.804469"/>
</g>
<path d="M124.444 165.727V174.503H122.588V167.488H122.537L120.527 168.748V167.102L122.7 165.727H124.444Z" fill="white"/>
<g filter="url(#filter3_d_3470_2176)">
<circle cx="123.084" cy="243.754" r="32.1788" fill="#AB001F"/>
<circle cx="123.084" cy="243.754" r="31.3743" stroke="white" stroke-opacity="0.2" stroke-width="1.60894"/>
</g>
<g filter="url(#filter4_d_3470_2176)">
<circle cx="123.084" cy="243.754" r="37.8101" stroke="white" stroke-opacity="0.2" stroke-width="1.60894" shape-rendering="crispEdges"/>
</g>
<path d="M123.084 184.76C121.899 184.76 120.939 183.799 120.939 182.615C120.939 181.43 121.899 180.469 123.084 180.469C124.269 180.469 125.229 181.43 125.229 182.615C125.229 183.799 124.269 184.76 123.084 184.76ZM123.084 213.721C121.899 213.721 120.939 212.76 120.939 211.575C120.939 210.391 121.899 209.43 123.084 209.43C124.269 209.43 125.229 210.391 125.229 211.575C125.229 212.76 124.269 213.721 123.084 213.721ZM123.486 182.615L123.486 211.575L122.682 211.575L122.682 182.615L123.486 182.615Z" fill="white"/>
<path d="M135.151 232.967C136.458 232.967 137.564 234.073 137.564 235.38V236.184H108.604V235.38C108.604 234.073 109.659 232.967 111.017 232.967H135.151ZM108.604 253.078V237.793H137.564V253.078C137.564 254.436 136.458 255.492 135.151 255.492H111.017C109.659 255.492 108.604 254.436 108.604 253.078ZM127.106 241.011C126.654 241.011 126.302 241.414 126.302 241.816C126.302 242.268 126.654 242.62 127.106 242.62H133.542C133.944 242.62 134.347 242.268 134.347 241.816C134.347 241.414 133.944 241.011 133.542 241.011H127.106ZM127.106 244.229C126.654 244.229 126.302 244.631 126.302 245.034C126.302 245.486 126.654 245.838 127.106 245.838H133.542C133.944 245.838 134.347 245.486 134.347 245.034C134.347 244.631 133.944 244.229 133.542 244.229H127.106ZM127.106 247.447C126.654 247.447 126.302 247.849 126.302 248.252C126.302 248.704 126.654 249.056 127.106 249.056H133.542C133.944 249.056 134.347 248.704 134.347 248.252C134.347 247.849 133.944 247.447 133.542 247.447H127.106ZM117.453 241.011C115.643 241.011 114.235 242.469 114.235 244.229C114.235 246.039 115.643 247.447 117.453 247.447C119.212 247.447 120.671 246.039 120.671 244.229C120.671 242.469 119.212 241.011 117.453 241.011ZM114.235 249.056C112.877 249.056 111.821 250.162 111.821 251.469C111.821 251.922 112.173 252.274 112.626 252.274H122.279C122.682 252.274 123.084 251.922 123.084 251.469C123.084 250.162 121.978 249.056 120.671 249.056H114.235Z" fill="white"/>
<g filter="url(#filter5_d_3470_2176)">
<circle cx="123.084" cy="351.553" r="12.8715" fill="#6E6E6E"/>
<circle cx="123.084" cy="351.553" r="12.4693" stroke="white" stroke-opacity="0.2" stroke-width="0.804469"/>
</g>
<path d="M123.04 356.433C122.4 356.433 121.83 356.323 121.33 356.103C120.833 355.88 120.44 355.575 120.151 355.186C119.866 354.795 119.719 354.343 119.71 353.832H121.578C121.59 354.046 121.66 354.235 121.788 354.398C121.92 354.557 122.094 354.682 122.311 354.77C122.528 354.859 122.772 354.903 123.044 354.903C123.327 354.903 123.577 354.853 123.794 354.753C124.011 354.653 124.181 354.515 124.304 354.338C124.427 354.16 124.488 353.956 124.488 353.725C124.488 353.49 124.422 353.283 124.291 353.103C124.162 352.921 123.977 352.778 123.734 352.675C123.494 352.572 123.208 352.521 122.877 352.521H122.058V351.158H122.877C123.157 351.158 123.404 351.109 123.618 351.012C123.835 350.915 124.004 350.781 124.124 350.609C124.244 350.435 124.304 350.232 124.304 350.001C124.304 349.781 124.251 349.588 124.145 349.422C124.042 349.254 123.897 349.122 123.708 349.028C123.522 348.934 123.305 348.887 123.057 348.887C122.805 348.887 122.575 348.932 122.367 349.024C122.158 349.112 121.991 349.24 121.865 349.405C121.74 349.571 121.673 349.765 121.664 349.988H119.886C119.894 349.482 120.039 349.037 120.318 348.651C120.598 348.265 120.976 347.964 121.45 347.747C121.927 347.527 122.465 347.417 123.065 347.417C123.671 347.417 124.201 347.527 124.655 347.747C125.109 347.967 125.462 348.264 125.714 348.638C125.968 349.01 126.093 349.427 126.091 349.89C126.093 350.381 125.941 350.791 125.632 351.119C125.326 351.448 124.928 351.656 124.437 351.745V351.814C125.082 351.896 125.574 352.121 125.911 352.486C126.251 352.849 126.419 353.303 126.416 353.849C126.419 354.349 126.275 354.793 125.983 355.182C125.695 355.57 125.296 355.876 124.788 356.099C124.279 356.322 123.697 356.433 123.04 356.433Z" fill="white"/>
<g filter="url(#filter6_d_3470_2176)">
<circle cx="123.084" cy="425.564" r="32.1788" fill="#9A9A9A"/>
<circle cx="123.084" cy="425.564" r="31.3743" stroke="white" stroke-opacity="0.1" stroke-width="1.60894"/>
</g>
<g filter="url(#filter7_d_3470_2176)">
<circle cx="123.084" cy="425.564" r="37.8101" stroke="white" stroke-opacity="0.1" stroke-width="1.60894" shape-rendering="crispEdges"/>
</g>
<path d="M123.084 366.57C121.899 366.57 120.939 365.609 120.939 364.425C120.939 363.24 121.899 362.279 123.084 362.279C124.269 362.279 125.229 363.24 125.229 364.425C125.229 365.609 124.269 366.57 123.084 366.57ZM123.084 395.531C121.899 395.531 120.939 394.57 120.939 393.385C120.939 392.201 121.899 391.24 123.084 391.24C124.269 391.24 125.229 392.201 125.229 393.385C125.229 394.57 124.269 395.531 123.084 395.531ZM123.486 364.425L123.486 393.385L122.682 393.385L122.682 364.425L123.486 364.425Z" fill="white"/>
<path d="M123.587 424.078C123.788 424.179 123.938 424.481 123.838 424.682C123.486 425.788 122.883 426.793 122.128 427.648C122.028 427.749 121.877 427.799 121.776 427.799C121.676 427.799 121.575 427.799 121.475 427.749L120.017 426.894C119.413 427.397 118.709 427.799 117.955 428.101V429.81C117.955 430.011 117.754 430.263 117.503 430.313C116.95 430.414 116.397 430.514 115.844 430.514C115.24 430.514 114.687 430.414 114.134 430.313C113.883 430.263 113.682 430.011 113.682 429.81V428.101C112.927 427.799 112.223 427.397 111.62 426.894L110.162 427.749C110.061 427.799 109.961 427.799 109.86 427.799C109.76 427.799 109.609 427.749 109.508 427.648C108.754 426.793 108.151 425.788 107.799 424.682C107.698 424.481 107.849 424.179 108.05 424.078L109.508 423.224C109.408 422.872 109.408 422.469 109.408 422.017C109.408 421.615 109.408 421.212 109.508 420.81L108.05 420.006C107.849 419.855 107.698 419.603 107.799 419.352C108.151 418.246 108.754 417.291 109.508 416.436C109.609 416.285 109.76 416.235 109.86 416.235C109.961 416.235 110.061 416.285 110.162 416.335L111.62 417.19C112.223 416.687 112.927 416.235 113.682 415.983V414.274C113.682 414.022 113.883 413.821 114.134 413.771C114.687 413.62 115.24 413.57 115.844 413.57C116.397 413.57 116.95 413.62 117.503 413.771C117.754 413.821 117.955 414.022 117.955 414.274V415.983C118.709 416.235 119.413 416.687 120.017 417.19L121.475 416.335C121.575 416.285 121.676 416.235 121.776 416.235C121.877 416.235 122.028 416.285 122.128 416.436C122.883 417.291 123.486 418.246 123.838 419.352C123.938 419.603 123.788 419.855 123.587 420.006L122.128 420.81C122.229 421.212 122.279 421.615 122.279 422.017C122.279 422.469 122.229 422.872 122.128 423.224L123.587 424.078ZM115.844 424.43C117.151 424.43 118.257 423.374 118.257 422.017C118.257 420.71 117.151 419.603 115.844 419.603C114.486 419.603 113.43 420.71 113.43 422.017C113.43 423.374 114.486 424.43 115.844 424.43ZM139.374 429.207C139.475 429.76 139.575 430.313 139.575 430.866C139.575 431.469 139.475 432.022 139.374 432.576C139.324 432.827 139.073 433.028 138.871 433.028H137.112C136.86 433.782 136.458 434.486 135.955 435.09L136.81 436.548C136.86 436.648 136.86 436.749 136.86 436.849C136.86 436.95 136.81 437.101 136.709 437.201C135.855 437.955 134.849 438.559 133.743 438.911C133.542 439.011 133.24 438.86 133.14 438.659L132.285 437.201C131.883 437.302 131.48 437.302 131.078 437.302C130.676 437.302 130.274 437.302 129.871 437.201L129.067 438.659C128.916 438.86 128.665 439.011 128.413 438.911C127.307 438.559 126.302 437.955 125.497 437.201C125.346 437.101 125.296 436.95 125.296 436.849C125.296 436.749 125.346 436.648 125.397 436.548L126.251 435.09C125.698 434.486 125.296 433.782 125.045 433.028H123.335C123.084 433.028 122.883 432.827 122.832 432.576C122.682 432.022 122.631 431.469 122.631 430.866C122.631 430.313 122.682 429.76 122.832 429.207C122.883 428.955 123.084 428.754 123.335 428.754H125.045C125.296 428 125.698 427.296 126.251 426.693L125.397 425.235C125.346 425.134 125.296 425.034 125.296 424.933C125.296 424.833 125.346 424.682 125.497 424.581C126.302 423.827 127.307 423.224 128.413 422.872C128.665 422.771 128.916 422.922 129.067 423.123L129.871 424.581C130.274 424.481 130.676 424.43 131.078 424.43C131.48 424.43 131.883 424.481 132.285 424.581L133.14 423.123C133.24 422.922 133.542 422.771 133.743 422.872C134.849 423.224 135.855 423.827 136.709 424.581C136.81 424.682 136.86 424.833 136.86 424.933C136.86 425.034 136.86 425.134 136.81 425.235L135.955 426.693C136.458 427.296 136.86 428 137.112 428.754H138.871C139.073 428.754 139.324 428.955 139.374 429.207ZM131.078 433.279C132.436 433.279 133.492 432.224 133.492 430.866C133.492 429.559 132.436 428.453 131.078 428.453C129.771 428.453 128.665 429.559 128.665 430.866C128.665 432.224 129.771 433.279 131.078 433.279Z" fill="white"/>
<g filter="url(#filter8_d_3470_2176)">
<circle cx="255.821" cy="169.743" r="12.8715" fill="#6E6E6E"/>
<circle cx="255.821" cy="169.743" r="12.4693" stroke="white" stroke-opacity="0.2" stroke-width="0.804469"/>
</g>
<path d="M252.71 174.503V173.166L255.834 170.273C256.099 170.016 256.322 169.785 256.502 169.579C256.685 169.374 256.824 169.172 256.918 168.975C257.012 168.775 257.059 168.559 257.059 168.328C257.059 168.071 257.001 167.849 256.884 167.664C256.766 167.475 256.606 167.331 256.404 167.231C256.201 167.128 255.971 167.077 255.714 167.077C255.445 167.077 255.211 167.131 255.011 167.24C254.811 167.348 254.657 167.504 254.548 167.707C254.44 167.909 254.385 168.151 254.385 168.431H252.624C252.624 167.857 252.754 167.358 253.014 166.935C253.274 166.513 253.638 166.185 254.107 165.954C254.575 165.723 255.115 165.607 255.727 165.607C256.355 165.607 256.902 165.718 257.368 165.941C257.836 166.161 258.2 166.467 258.46 166.858C258.72 167.25 258.85 167.698 258.85 168.204C258.85 168.535 258.785 168.862 258.653 169.185C258.525 169.508 258.295 169.866 257.963 170.261C257.632 170.652 257.165 171.122 256.562 171.67L255.281 172.926V172.986H258.966V174.503H252.71Z" fill="white"/>
<g filter="url(#filter9_d_3470_2176)">
<circle cx="255.821" cy="243.754" r="32.1788" fill="#525252"/>
<circle cx="255.821" cy="243.754" r="31.3743" stroke="white" stroke-opacity="0.1" stroke-width="1.60894"/>
</g>
<g filter="url(#filter10_d_3470_2176)">
<circle cx="255.821" cy="243.754" r="37.8101" stroke="white" stroke-opacity="0.1" stroke-width="1.60894" shape-rendering="crispEdges"/>
</g>
<path d="M255.821 184.76C254.636 184.76 253.676 183.799 253.676 182.615C253.676 181.43 254.636 180.469 255.821 180.469C257.006 180.469 257.967 181.43 257.967 182.615C257.967 183.799 257.006 184.76 255.821 184.76ZM255.821 213.721C254.636 213.721 253.676 212.76 253.676 211.575C253.676 210.391 254.636 209.43 255.821 209.43C257.006 209.43 257.967 210.391 257.967 211.575C257.967 212.76 257.006 213.721 255.821 213.721ZM256.224 182.615L256.224 211.575L255.419 211.575L255.419 182.615L256.224 182.615Z" fill="white"/>
<path d="M261.452 240.207C261.452 245.134 256.726 249.056 250.994 249.056C249.033 249.056 247.274 248.654 245.715 247.849C244.458 248.503 242.849 249.056 240.888 249.056C240.737 249.056 240.586 249.006 240.536 248.855C240.486 248.704 240.486 248.553 240.637 248.453C240.637 248.402 241.793 247.196 242.598 245.536C241.29 244.028 240.536 242.218 240.536 240.207C240.536 235.33 245.212 231.358 250.994 231.358C256.726 231.358 261.452 235.33 261.452 240.207ZM270.653 253.682C271.458 255.291 272.564 256.447 272.564 256.497C272.715 256.598 272.715 256.749 272.665 256.9C272.614 257.05 272.464 257.101 272.313 257.101C270.503 257.101 268.944 256.648 267.687 256.045C266.329 256.698 264.72 257.101 263.061 257.101C258.486 257.101 254.715 254.285 253.659 250.414C259.039 249.358 263.061 245.184 263.061 240.207C263.061 239.955 263.011 239.704 263.011 239.453C263.011 239.453 263.011 239.402 263.061 239.402C268.391 239.402 272.715 243.374 272.715 248.252C272.715 250.313 271.91 252.173 270.653 253.682Z" fill="white"/>
<g filter="url(#filter11_d_3470_2176)">
<circle cx="255.821" cy="351.553" r="12.8715" fill="#6E6E6E"/>
<circle cx="255.821" cy="351.553" r="12.4693" stroke="white" stroke-opacity="0.2" stroke-width="0.804469"/>
</g>
<path d="M251.984 354.77V353.309L255.648 347.537H256.908V349.56H256.162L253.852 353.215V353.283H259.059V354.77H251.984ZM256.196 356.313V354.325L256.231 353.678V347.537H257.97V356.313H256.196Z" fill="white"/>
<g filter="url(#filter12_d_3470_2176)">
<circle cx="255.821" cy="425.564" r="32.1788" fill="#D8D8D8"/>
<circle cx="255.821" cy="425.564" r="31.3743" stroke="white" stroke-opacity="0.1" stroke-width="1.60894"/>
</g>
<g filter="url(#filter13_d_3470_2176)">
<circle cx="255.821" cy="425.564" r="37.8101" stroke="white" stroke-opacity="0.1" stroke-width="1.60894" shape-rendering="crispEdges"/>
</g>
<path d="M255.821 366.57C254.636 366.57 253.676 365.609 253.676 364.425C253.676 363.24 254.636 362.279 255.821 362.279C257.006 362.279 257.967 363.24 257.967 364.425C257.967 365.609 257.006 366.57 255.821 366.57ZM255.821 395.531C254.636 395.531 253.676 394.57 253.676 393.385C253.676 392.201 254.636 391.24 255.821 391.24C257.006 391.24 257.967 392.201 257.967 393.385C257.967 394.57 257.006 395.531 255.821 395.531ZM256.224 364.425L256.224 393.385L255.419 393.385L255.419 364.425L256.224 364.425Z" fill="white"/>
<path d="M266.279 417.995C267.587 417.995 268.693 419.101 268.693 420.408V434.888C268.693 436.246 267.587 437.302 266.279 437.302H245.363C244.006 437.302 242.95 436.246 242.95 434.888V417.19C242.95 415.883 244.006 414.777 245.363 414.777H253.408L256.626 417.995H266.279ZM259.844 428.855C260.497 428.855 261.05 428.352 261.05 427.648C261.05 426.995 260.497 426.492 259.844 426.492H257.028V423.626C257.028 422.972 256.475 422.419 255.821 422.419C255.117 422.419 254.615 422.972 254.615 423.626V426.492H251.799C251.095 426.492 250.592 426.995 250.592 427.648C250.592 428.352 251.095 428.855 251.799 428.855H254.615V431.721C254.615 432.374 255.117 432.877 255.821 432.877C256.475 432.877 257.028 432.374 257.028 431.721V428.855H259.844Z" fill="#323232"/>
<g filter="url(#filter14_d_3470_2176)">
<circle cx="411.084" cy="457.743" r="12.8715" transform="rotate(-180 411.084 457.743)" fill="#6E6E6E"/>
<circle cx="411.084" cy="457.743" r="12.4693" transform="rotate(-180 411.084 457.743)" stroke="white" stroke-opacity="0.2" stroke-width="0.804469"/>
</g>
<path d="M411.089 463.427C410.484 463.427 409.944 463.316 409.47 463.093C408.998 462.87 408.624 462.563 408.347 462.172C408.07 461.78 407.925 461.332 407.914 460.826H409.714C409.734 461.166 409.877 461.442 410.142 461.653C410.408 461.864 410.724 461.97 411.089 461.97C411.381 461.97 411.638 461.906 411.861 461.777C412.086 461.646 412.262 461.465 412.388 461.233C412.516 460.999 412.581 460.73 412.581 460.427C412.581 460.119 412.515 459.848 412.383 459.613C412.255 459.379 412.076 459.196 411.848 459.065C411.619 458.933 411.358 458.866 411.064 458.863C410.807 458.863 410.557 458.916 410.314 459.022C410.074 459.128 409.887 459.272 409.752 459.455L408.103 459.159L408.518 454.531H413.883V456.048H410.048L409.821 458.246H409.872C410.027 458.029 410.259 457.849 410.571 457.706C410.882 457.564 411.231 457.492 411.616 457.492C412.145 457.492 412.616 457.616 413.031 457.865C413.445 458.114 413.772 458.455 414.012 458.889C414.252 459.32 414.37 459.818 414.368 460.38C414.37 460.972 414.233 461.497 413.956 461.957C413.682 462.414 413.298 462.774 412.803 463.037C412.312 463.297 411.741 463.427 411.089 463.427Z" fill="white"/>
<g filter="url(#filter15_d_3470_2176)">
<circle cx="411.084" cy="383.732" r="32.1788" transform="rotate(-180 411.084 383.732)" fill="#AB001F"/>
<circle cx="411.084" cy="383.732" r="31.3743" transform="rotate(-180 411.084 383.732)" stroke="white" stroke-opacity="0.2" stroke-width="1.60894"/>
</g>
<g filter="url(#filter16_d_3470_2176)">
<path d="M373.274 383.732C373.274 362.85 390.202 345.922 411.084 345.922C431.966 345.922 448.894 362.85 448.894 383.732C448.894 404.614 431.966 421.542 411.084 421.542C390.202 421.542 373.274 404.614 373.274 383.732Z" stroke="white" stroke-opacity="0.2" stroke-width="1.60894" shape-rendering="crispEdges"/>
</g>
<path d="M411.083 442.726C412.268 442.726 413.229 443.687 413.229 444.872C413.229 446.056 412.268 447.017 411.083 447.017C409.899 447.017 408.938 446.056 408.938 444.872C408.938 443.687 409.899 442.726 411.083 442.726ZM411.083 413.765C412.268 413.765 413.229 414.726 413.229 415.911C413.229 417.095 412.268 418.056 411.083 418.056C409.899 418.056 408.938 417.095 408.938 415.911C408.938 414.726 409.899 413.765 411.083 413.765ZM410.681 444.872L410.681 415.911L411.486 415.911L411.486 444.872L410.681 444.872Z" fill="white"/>
<path d="M406.257 384.207C402.687 384.207 399.821 381.341 399.821 377.771C399.821 374.251 402.687 371.335 406.257 371.335C409.776 371.335 412.692 374.251 412.692 377.771C412.692 381.341 409.776 384.207 406.257 384.207ZM408.771 386.62C413.597 386.62 417.519 390.542 417.519 395.369C417.519 396.324 416.715 397.078 415.76 397.078H396.704C395.748 397.078 394.994 396.324 394.994 395.369C394.994 390.542 398.866 386.62 403.692 386.62H408.771ZM419.078 387.425C423.553 387.425 427.173 391.045 427.173 395.469C427.173 396.374 426.419 397.078 425.564 397.078H418.625C418.927 396.575 419.128 396.022 419.128 395.369C419.128 392.201 417.67 389.335 415.408 387.425H419.078ZM416.715 384.207C415.106 384.207 413.698 383.603 412.692 382.548C413.698 381.24 414.301 379.581 414.301 377.771C414.301 376.464 413.899 375.207 413.346 374.101C414.251 373.397 415.408 372.944 416.715 372.944C419.782 372.944 422.346 375.508 422.346 378.575C422.346 381.693 419.782 384.207 416.715 384.207Z" fill="white"/>
<g filter="url(#filter17_d_3470_2176)">
<circle cx="485.095" cy="243.754" r="12.8715" transform="rotate(90 485.095 243.754)" fill="#6E6E6E"/>
<circle cx="485.095" cy="243.754" r="12.4693" transform="rotate(90 485.095 243.754)" stroke="white" stroke-opacity="0.2" stroke-width="0.804469"/>
</g>
<path d="M485.169 248.634C484.717 248.631 484.282 248.555 483.862 248.407C483.445 248.258 483.07 248.017 482.739 247.683C482.408 247.348 482.145 246.906 481.951 246.354C481.759 245.803 481.663 245.126 481.663 244.323C481.666 243.586 481.751 242.927 481.916 242.348C482.085 241.765 482.325 241.271 482.636 240.865C482.95 240.459 483.326 240.151 483.763 239.939C484.2 239.725 484.69 239.618 485.233 239.618C485.819 239.618 486.336 239.732 486.784 239.961C487.233 240.186 487.593 240.494 487.864 240.882C488.138 241.271 488.304 241.706 488.361 242.189H486.531C486.46 241.883 486.31 241.643 486.081 241.469C485.853 241.295 485.57 241.208 485.233 241.208C484.662 241.208 484.227 241.456 483.93 241.953C483.636 242.45 483.486 243.126 483.48 243.98H483.54C483.672 243.72 483.849 243.499 484.072 243.316C484.297 243.13 484.553 242.989 484.839 242.892C485.127 242.792 485.432 242.742 485.751 242.742C486.271 242.742 486.734 242.865 487.14 243.11C487.546 243.353 487.865 243.687 488.1 244.113C488.334 244.539 488.451 245.026 488.451 245.574C488.451 246.168 488.313 246.697 488.035 247.16C487.761 247.623 487.377 247.985 486.883 248.248C486.391 248.508 485.82 248.637 485.169 248.634ZM485.16 247.177C485.446 247.177 485.701 247.108 485.927 246.971C486.153 246.834 486.33 246.648 486.459 246.414C486.587 246.18 486.651 245.917 486.651 245.626C486.651 245.334 486.587 245.073 486.459 244.842C486.333 244.61 486.159 244.426 485.936 244.289C485.713 244.152 485.459 244.083 485.173 244.083C484.959 244.083 484.76 244.123 484.577 244.203C484.397 244.283 484.239 244.394 484.102 244.537C483.967 244.68 483.862 244.846 483.785 245.034C483.707 245.22 483.669 245.419 483.669 245.63C483.669 245.913 483.733 246.171 483.862 246.406C483.993 246.64 484.17 246.827 484.393 246.967C484.619 247.107 484.874 247.177 485.16 247.177Z" fill="white"/>
<g filter="url(#filter18_d_3470_2176)">
<circle cx="411.083" cy="243.754" r="32.1788" transform="rotate(90 411.083 243.754)" fill="#9A9A9A"/>
<circle cx="411.083" cy="243.754" r="31.3743" transform="rotate(90 411.083 243.754)" stroke="white" stroke-opacity="0.1" stroke-width="1.60894"/>
</g>
<path d="M410.128 241.162C408.821 241.564 407.815 242.821 407.815 244.279C407.815 246.039 409.273 247.497 411.083 247.497C412.491 247.497 413.748 246.492 414.15 245.184L417.117 242.167C417.368 242.821 417.469 243.525 417.469 244.279C417.469 247.799 414.603 250.715 411.083 250.715C407.514 250.715 404.648 247.799 404.648 244.279C404.648 240.709 407.514 237.843 411.083 237.843C411.787 237.843 412.491 237.944 413.145 238.195L410.128 241.162ZM421.592 241.916L422.648 240.911C422.949 241.966 423.15 243.073 423.15 244.279C423.15 250.916 417.72 256.296 411.083 256.296C404.396 256.296 399.016 250.916 399.016 244.279C399.016 237.592 404.396 232.212 411.083 232.212C412.24 232.212 413.346 232.363 414.402 232.665L413.396 233.721C412.893 234.173 412.642 234.877 412.692 235.581C412.139 235.48 411.636 235.43 411.083 235.43C406.156 235.43 402.234 239.352 402.234 244.279C402.234 249.156 406.156 253.078 411.083 253.078C415.961 253.078 419.882 249.156 419.882 244.279C419.882 243.676 419.832 243.173 419.731 242.62C419.782 242.62 419.832 242.67 419.933 242.67C420.536 242.67 421.139 242.419 421.592 241.916ZM423.905 236.788C424.005 237.089 423.905 237.391 423.704 237.592L420.486 240.81C420.335 240.961 420.134 241.061 419.933 241.061C419.832 241.061 419.782 241.011 419.731 241.011L416.614 240.408L412.29 244.681C412.089 244.933 411.787 245.084 411.486 245.084C411.134 245.084 410.832 244.933 410.631 244.681C410.128 244.229 410.128 243.475 410.631 243.022L414.905 238.698L414.301 235.581C414.251 235.279 414.301 235.028 414.502 234.827L417.72 231.609C417.921 231.408 418.223 231.307 418.525 231.408C418.826 231.508 419.028 231.76 419.078 232.011L419.933 235.43L423.301 236.235C423.553 236.285 423.804 236.486 423.905 236.788Z" fill="white"/>
<g filter="url(#filter19_d_3470_2176)">
<circle cx="411.084" cy="243.754" r="37.8101" transform="rotate(90 411.084 243.754)" stroke="white" stroke-opacity="0.1" stroke-width="1.60894" shape-rendering="crispEdges"/>
</g>
<path d="M470.078 243.754C470.078 242.569 471.038 241.609 472.223 241.609C473.408 241.609 474.368 242.569 474.368 243.754C474.368 244.939 473.408 245.899 472.223 245.899C471.038 245.899 470.078 244.939 470.078 243.754ZM441.117 243.754C441.117 242.569 442.077 241.609 443.262 241.609C444.447 241.609 445.407 242.569 445.407 243.754C445.407 244.939 444.447 245.899 443.262 245.899C442.077 245.899 441.117 244.939 441.117 243.754ZM472.223 244.156H443.262V243.352H472.223V244.156Z" fill="white"/>
<path fill-rule="evenodd" clip-rule="evenodd" d="M446.787 109.537C448.739 108.41 451.005 107.765 453.421 107.765H454.139C461.478 107.765 467.428 113.714 467.428 121.053C467.428 122.168 467.29 123.251 467.032 124.286H468.146C475.683 124.286 481.794 130.396 481.794 137.933C481.794 145.471 475.683 151.581 468.146 151.581H400.317L400.267 151.581H399.549L399.499 151.581H397.753C394.39 151.581 391.311 150.364 388.933 148.348C383.855 144.929 380.514 139.128 380.514 132.546C380.514 122.033 389.036 113.511 399.549 113.511H400.267C402.036 113.511 403.748 113.752 405.372 114.204C407.379 104.381 416.069 96.9905 426.485 96.9905H427.203C435.891 96.9905 443.377 102.131 446.787 109.537Z" fill="white" fill-opacity="0.16"/>
<path fill-rule="evenodd" clip-rule="evenodd" d="M490.533 96.6105C492.392 92.7584 496.335 90.1006 500.899 90.1006H501.283C507.635 90.1006 512.786 95.2506 512.786 101.603C512.786 102.025 512.763 102.442 512.719 102.852C516.666 103.465 519.687 106.878 519.687 110.998C519.687 115.55 515.996 119.241 511.444 119.241H483.837C479.284 119.241 475.593 115.55 475.593 110.998C475.593 107.572 477.682 104.634 480.657 103.389C480.604 103.057 480.577 102.717 480.577 102.37C480.577 98.7704 483.496 95.8521 487.096 95.8521H487.479C488.583 95.8521 489.622 96.1264 490.533 96.6105Z" fill="white" fill-opacity="0.08"/>
<path d="M497.966 447.519L501.246 444.239C504.451 441.034 509.648 441.034 512.853 444.239V444.239C516.058 447.444 521.254 447.444 524.459 444.239V444.239C527.664 441.034 532.86 441.034 536.065 444.239V444.239C539.27 447.444 544.467 447.444 547.672 444.239V444.239C550.877 441.034 556.073 441.034 559.278 444.239V444.239C562.483 447.444 567.679 447.444 570.884 444.239V444.239C574.089 441.034 579.285 441.034 582.49 444.239V444.239C585.695 447.444 590.892 447.444 594.097 444.239V444.239C597.302 441.034 602.498 441.034 605.703 444.239L608.983 447.519" stroke="white" stroke-opacity="0.1" stroke-width="1.60894"/>
<path d="M497.966 457.612L501.246 454.331C504.451 451.126 509.648 451.126 512.853 454.331V454.331C516.058 457.536 521.254 457.536 524.459 454.331V454.331C527.664 451.126 532.86 451.126 536.065 454.331V454.331C539.27 457.536 544.467 457.536 547.672 454.331V454.331C550.877 451.126 556.073 451.126 559.278 454.331V454.331C562.483 457.536 567.679 457.536 570.884 454.331V454.331C574.089 451.126 579.285 451.126 582.49 454.331V454.331C585.695 457.536 590.892 457.536 594.097 454.331V454.331C597.302 451.126 602.498 451.126 605.703 454.331L608.983 457.612" stroke="white" stroke-opacity="0.1" stroke-width="1.60894"/>
<path d="M497.966 468.208L501.246 464.928C504.451 461.723 509.648 461.723 512.853 464.928V464.928C516.058 468.133 521.254 468.133 524.459 464.928V464.928C527.664 461.723 532.86 461.723 536.065 464.928V464.928C539.27 468.133 544.467 468.133 547.672 464.928V464.928C550.877 461.723 556.073 461.723 559.278 464.928V464.928C562.483 468.133 567.679 468.133 570.884 464.928V464.928C574.089 461.723 579.285 461.723 582.49 464.928V464.928C585.695 468.133 590.892 468.133 594.097 464.928V464.928C597.302 461.723 602.498 461.723 605.703 464.928L608.983 468.208" stroke="white" stroke-opacity="0.1" stroke-width="1.60894"/>
<path d="M-41.0278 252.837L-37.7478 249.557C-34.5428 246.352 -29.3465 246.352 -26.1415 249.557V249.557C-22.9365 252.762 -17.7402 252.762 -14.5352 249.557V249.557C-11.3302 246.352 -6.13389 246.352 -2.9289 249.557V249.557C0.276092 252.762 5.47241 252.762 8.6774 249.557V249.557C11.8824 246.352 17.0787 246.352 20.2837 249.557V249.557C23.4887 252.762 28.685 252.762 31.89 249.557V249.557C35.095 246.352 40.2913 246.352 43.4963 249.557V249.557C46.7013 252.762 51.8976 252.762 55.1026 249.557V249.557C58.3076 246.352 63.5039 246.352 66.7089 249.557L69.9889 252.837" stroke="white" stroke-opacity="0.1" stroke-width="1.60894"/>
<path d="M-41.0278 262.93L-37.7478 259.65C-34.5428 256.445 -29.3465 256.445 -26.1415 259.65V259.65C-22.9365 262.855 -17.7402 262.855 -14.5352 259.65V259.65C-11.3302 256.445 -6.13389 256.445 -2.9289 259.65V259.65C0.276092 262.855 5.47241 262.855 8.6774 259.65V259.65C11.8824 256.445 17.0787 256.445 20.2837 259.65V259.65C23.4887 262.855 28.685 262.855 31.89 259.65V259.65C35.095 256.445 40.2913 256.445 43.4963 259.65V259.65C46.7013 262.855 51.8976 262.855 55.1026 259.65V259.65C58.3076 256.445 63.5039 256.445 66.7089 259.65L69.9889 262.93" stroke="white" stroke-opacity="0.1" stroke-width="1.60894"/>
<path d="M-41.0278 273.527L-37.7478 270.247C-34.5428 267.042 -29.3465 267.042 -26.1415 270.247V270.247C-22.9365 273.452 -17.7402 273.452 -14.5352 270.247V270.247C-11.3302 267.042 -6.13389 267.042 -2.9289 270.247V270.247C0.276092 273.452 5.47241 273.452 8.6774 270.247V270.247C11.8824 267.042 17.0787 267.042 20.2837 270.247V270.247C23.4887 273.452 28.685 273.452 31.89 270.247V270.247C35.095 267.042 40.2913 267.042 43.4963 270.247V270.247C46.7013 273.452 51.8976 273.452 55.1026 270.247V270.247C58.3076 267.042 63.5039 267.042 66.7089 270.247L69.9889 273.527" stroke="white" stroke-opacity="0.1" stroke-width="1.60894"/>
<path d="M373.274 306.737L376.554 303.457C379.759 300.252 384.955 300.252 388.16 303.457V303.457C391.365 306.662 396.562 306.662 399.767 303.457V303.457C402.972 300.252 408.168 300.252 411.373 303.457V303.457C414.578 306.662 419.774 306.662 422.979 303.457V303.457C426.184 300.252 431.38 300.252 434.585 303.457L440.389 309.26" stroke="white" stroke-opacity="0.1" stroke-width="1.60894"/>
<path d="M373.274 316.829L376.554 313.549C379.759 310.344 384.955 310.344 388.16 313.549V313.549C391.365 316.754 396.562 316.754 399.767 313.549V313.549C402.972 310.344 408.168 310.344 411.373 313.549V313.549C414.578 316.754 419.774 316.754 422.979 313.549V313.549C426.184 310.344 431.38 310.344 434.585 313.549L440.389 319.352" stroke="white" stroke-opacity="0.1" stroke-width="1.60894"/>
<path d="M373.274 327.426L376.554 324.146C379.759 320.941 384.955 320.941 388.16 324.146V324.146C391.365 327.351 396.562 327.351 399.767 324.146V324.146C402.972 320.941 408.168 320.941 411.373 324.146V324.146C414.578 327.351 419.774 327.351 422.979 324.146V324.146C426.184 320.941 431.38 320.941 434.585 324.146L440.389 329.949" stroke="white" stroke-opacity="0.1" stroke-width="1.60894"/>
<path fill-rule="evenodd" clip-rule="evenodd" d="M529.564 378.069C529.835 376.239 531.407 374.883 533.258 374.883C535.088 374.883 536.648 376.21 536.943 378.016L538.392 386.91C538.87 389.842 536.776 392.52 533.9 392.839V398.601H532.568V392.816C529.813 392.412 527.822 389.831 528.244 386.983L529.564 378.069ZM516.057 383.621C518.494 383.621 520.471 385.597 520.471 388.035V396.733C520.471 398.951 518.836 400.786 516.705 401.1V409.586H515.407V401.1C513.277 400.786 511.643 398.951 511.643 396.733V388.035C511.643 385.597 513.619 383.621 516.057 383.621ZM527.371 417.041C527.371 414.578 529.368 412.582 531.83 412.582C534.292 412.582 536.289 414.578 536.289 417.041C536.289 419.28 534.637 421.134 532.486 421.451V425.564H531.174V421.451C529.023 421.134 527.371 419.28 527.371 417.041Z" fill="white" fill-opacity="0.08"/>
<path fill-rule="evenodd" clip-rule="evenodd" d="M174.917 454.525C172.441 454.525 170.339 456.339 169.976 458.788L168.21 470.711C167.646 474.52 170.309 477.973 173.994 478.514V486.252H175.777V478.545C179.623 478.118 182.424 474.535 181.785 470.613L179.846 458.716C179.452 456.3 177.365 454.525 174.917 454.525ZM185.756 467.669C185.756 464.376 188.426 461.705 191.72 461.705C195.014 461.705 197.684 464.376 197.684 467.669C197.684 470.665 195.475 473.145 192.597 473.569V479.071H190.842V473.569C187.965 473.145 185.756 470.665 185.756 467.669Z" fill="white" fill-opacity="0.08"/>
<g filter="url(#filter20_d_3470_2176)">
<rect x="166.766" y="113.779" width="177.307" height="26.6536" rx="6.43575" fill="#FEE0BC"/>
<path d="M177.112 130.606V123.585H181.678V124.652H178.384V126.558H181.442V127.624H178.384V129.54H181.706V130.606H177.112ZM185.218 130.709C184.692 130.709 184.241 130.594 183.864 130.363C183.489 130.132 183.2 129.813 182.996 129.406C182.795 128.997 182.695 128.526 182.695 127.994C182.695 127.459 182.797 126.987 183.003 126.578C183.209 126.167 183.499 125.847 183.874 125.618C184.251 125.387 184.697 125.272 185.211 125.272C185.638 125.272 186.017 125.351 186.346 125.509C186.677 125.664 186.941 125.885 187.138 126.17C187.334 126.454 187.446 126.785 187.473 127.164H186.287C186.239 126.911 186.125 126.699 185.945 126.53C185.766 126.359 185.527 126.273 185.228 126.273C184.974 126.273 184.752 126.342 184.56 126.479C184.368 126.614 184.218 126.808 184.11 127.062C184.005 127.315 183.953 127.619 183.953 127.973C183.953 128.332 184.005 128.641 184.11 128.899C184.216 129.155 184.363 129.353 184.553 129.492C184.745 129.629 184.97 129.698 185.228 129.698C185.411 129.698 185.574 129.663 185.718 129.595C185.865 129.524 185.987 129.422 186.085 129.29C186.183 129.157 186.251 128.996 186.287 128.806H187.473C187.444 129.179 187.334 129.509 187.144 129.797C186.955 130.083 186.696 130.307 186.37 130.469C186.043 130.629 185.659 130.709 185.218 130.709ZM188.11 126.359V125.341H192.718V126.359H191.014V130.606H189.814V126.359H188.11ZM194.546 127.055H196.099C196.771 127.055 197.29 127.218 197.658 127.545C198.026 127.872 198.212 128.3 198.214 128.83C198.212 129.176 198.127 129.482 197.96 129.749C197.796 130.017 197.556 130.227 197.24 130.38C196.927 130.531 196.547 130.606 196.099 130.606H193.706V125.341H194.902V129.588H196.099C196.368 129.588 196.59 129.519 196.764 129.382C196.937 129.243 197.024 129.065 197.024 128.848C197.024 128.619 196.937 128.433 196.764 128.289C196.59 128.145 196.368 128.073 196.099 128.073H194.546V127.055ZM201.206 132.135V129.585H201.624C201.736 129.498 201.83 129.38 201.905 129.232C201.98 129.081 202.042 128.904 202.09 128.7C202.14 128.494 202.182 128.265 202.214 128.011C202.246 127.755 202.274 127.48 202.299 127.185L202.45 125.341H206.255V129.585H207.071V132.135H205.871V130.606H202.426V132.135H201.206ZM202.899 129.585H205.069V126.342H203.527L203.444 127.185C203.399 127.743 203.338 128.22 203.263 128.618C203.187 129.016 203.066 129.338 202.899 129.585ZM210.295 130.709C209.78 130.709 209.335 130.596 208.958 130.37C208.58 130.143 208.288 129.827 208.08 129.42C207.874 129.013 207.771 128.538 207.771 127.994C207.771 127.45 207.874 126.974 208.08 126.564C208.288 126.155 208.58 125.838 208.958 125.611C209.335 125.385 209.78 125.272 210.295 125.272C210.809 125.272 211.254 125.385 211.632 125.611C212.009 125.838 212.3 126.155 212.506 126.564C212.714 126.974 212.818 127.45 212.818 127.994C212.818 128.538 212.714 129.013 212.506 129.42C212.3 129.827 212.009 130.143 211.632 130.37C211.254 130.596 210.809 130.709 210.295 130.709ZM210.301 129.715C210.58 129.715 210.813 129.638 211.001 129.485C211.188 129.33 211.328 129.122 211.419 128.861C211.513 128.601 211.56 128.31 211.56 127.991C211.56 127.668 211.513 127.377 211.419 127.116C211.328 126.854 211.188 126.644 211.001 126.489C210.813 126.334 210.58 126.256 210.301 126.256C210.016 126.256 209.778 126.334 209.588 126.489C209.401 126.644 209.26 126.854 209.167 127.116C209.075 127.377 209.03 127.668 209.03 127.991C209.03 128.31 209.075 128.601 209.167 128.861C209.26 129.122 209.401 129.33 209.588 129.485C209.778 129.638 210.016 129.715 210.301 129.715ZM213.871 130.606V125.341H218.317V130.606H217.121V126.359H215.057V130.606H213.871ZM221.89 130.709C221.376 130.709 220.93 130.596 220.553 130.37C220.176 130.143 219.884 129.827 219.676 129.42C219.47 129.013 219.367 128.538 219.367 127.994C219.367 127.45 219.47 126.974 219.676 126.564C219.884 126.155 220.176 125.838 220.553 125.611C220.93 125.385 221.376 125.272 221.89 125.272C222.404 125.272 222.85 125.385 223.227 125.611C223.604 125.838 223.896 126.155 224.101 126.564C224.309 126.974 224.413 127.45 224.413 127.994C224.413 128.538 224.309 129.013 224.101 129.42C223.896 129.827 223.604 130.143 223.227 130.37C222.85 130.596 222.404 130.709 221.89 130.709ZM221.897 129.715C222.176 129.715 222.409 129.638 222.596 129.485C222.784 129.33 222.923 129.122 223.015 128.861C223.108 128.601 223.155 128.31 223.155 127.991C223.155 127.668 223.108 127.377 223.015 127.116C222.923 126.854 222.784 126.644 222.596 126.489C222.409 126.334 222.176 126.256 221.897 126.256C221.611 126.256 221.374 126.334 221.184 126.489C220.997 126.644 220.856 126.854 220.762 127.116C220.671 127.377 220.625 127.668 220.625 127.991C220.625 128.31 220.671 128.601 220.762 128.861C220.856 129.122 220.997 129.33 221.184 129.485C221.374 129.638 221.611 129.715 221.897 129.715ZM225.103 130.606L225.096 129.585H225.278C225.415 129.585 225.531 129.554 225.624 129.492C225.718 129.43 225.796 129.328 225.857 129.184C225.919 129.037 225.967 128.841 226.001 128.594C226.036 128.347 226.06 128.04 226.073 127.672L226.166 125.341H230.005V130.606H228.806V126.359H227.294L227.212 128.056C227.191 128.494 227.142 128.875 227.064 129.197C226.989 129.517 226.881 129.781 226.742 129.989C226.605 130.197 226.432 130.353 226.224 130.455C226.016 130.556 225.771 130.606 225.487 130.606H225.103ZM234.872 127.459V128.477H232.068V127.459H234.872ZM232.451 125.341V130.606H231.255V125.341H232.451ZM235.684 125.341V130.606H234.491V125.341H235.684ZM238.136 128.926L240.244 125.341H241.52V130.606H240.32V127.017L238.218 130.606H236.94V125.341H238.136V128.926ZM242.205 126.359V125.341H246.812V126.359H245.108V130.606H243.908V126.359H242.205ZM249.914 130.709C249.386 130.709 248.931 130.599 248.547 130.38C248.165 130.158 247.871 129.845 247.666 129.441C247.46 129.034 247.357 128.555 247.357 128.004C247.357 127.463 247.46 126.987 247.666 126.578C247.873 126.167 248.164 125.847 248.536 125.618C248.909 125.387 249.346 125.272 249.849 125.272C250.174 125.272 250.48 125.325 250.768 125.43C251.058 125.533 251.314 125.693 251.536 125.91C251.76 126.127 251.936 126.403 252.064 126.739C252.192 127.073 252.256 127.471 252.256 127.932V128.313H247.94V127.476H251.066C251.064 127.239 251.013 127.027 250.912 126.842C250.811 126.655 250.671 126.507 250.49 126.4C250.312 126.292 250.104 126.239 249.866 126.239C249.613 126.239 249.39 126.3 249.198 126.424C249.006 126.545 248.856 126.705 248.749 126.904C248.644 127.1 248.59 127.316 248.588 127.552V128.282C248.588 128.588 248.644 128.851 248.756 129.07C248.868 129.288 249.024 129.454 249.225 129.571C249.426 129.685 249.662 129.742 249.932 129.742C250.112 129.742 250.275 129.717 250.422 129.667C250.568 129.614 250.695 129.538 250.802 129.437C250.91 129.337 250.991 129.212 251.046 129.064L252.204 129.194C252.131 129.5 251.992 129.767 251.786 129.996C251.583 130.222 251.322 130.398 251.005 130.524C250.687 130.647 250.323 130.709 249.914 130.709ZM252.942 130.606L252.935 129.585H253.117C253.254 129.585 253.37 129.554 253.463 129.492C253.557 129.43 253.635 129.328 253.696 129.184C253.758 129.037 253.806 128.841 253.84 128.594C253.875 128.347 253.899 128.04 253.912 127.672L254.005 125.341H257.845V130.606H256.645V126.359H255.133L255.051 128.056C255.03 128.494 254.981 128.875 254.903 129.197C254.828 129.517 254.72 129.781 254.581 129.989C254.444 130.197 254.271 130.353 254.063 130.455C253.855 130.556 253.61 130.606 253.326 130.606H252.942ZM259.934 127.055H261.487C262.159 127.055 262.679 127.218 263.047 127.545C263.415 127.872 263.6 128.3 263.602 128.83C263.6 129.176 263.515 129.482 263.348 129.749C263.184 130.017 262.944 130.227 262.628 130.38C262.315 130.531 261.935 130.606 261.487 130.606H259.094V125.341H260.29V129.588H261.487C261.757 129.588 261.978 129.519 262.152 129.382C262.326 129.243 262.413 129.065 262.413 128.848C262.413 128.619 262.326 128.433 262.152 128.289C261.978 128.145 261.757 128.073 261.487 128.073H259.934V127.055ZM268.282 127.459V128.477H265.478V127.459H268.282ZM265.862 125.341V130.606H264.666V125.341H265.862ZM269.095 125.341V130.606H267.902V125.341H269.095ZM271.19 127.055H272.743C273.415 127.055 273.935 127.218 274.303 127.545C274.671 127.872 274.856 128.3 274.858 128.83C274.856 129.176 274.772 129.482 274.605 129.749C274.44 130.017 274.2 130.227 273.885 130.38C273.572 130.531 273.191 130.606 272.743 130.606H270.35V125.341H271.547V129.588H272.743C273.013 129.588 273.235 129.519 273.408 129.382C273.582 129.243 273.669 129.065 273.669 128.848C273.669 128.619 273.582 128.433 273.408 128.289C273.235 128.145 273.013 128.073 272.743 128.073H271.19V127.055ZM275.513 130.606V125.341H276.754V130.606H275.513ZM279.23 128.926L281.338 125.341H282.614V130.606H281.414V127.017L279.312 130.606H278.034V125.341H279.23V128.926ZM280.999 123.531H281.928C281.928 123.93 281.783 124.255 281.493 124.504C281.205 124.751 280.814 124.874 280.32 124.874C279.831 124.874 279.441 124.751 279.151 124.504C278.863 124.255 278.72 123.93 278.723 123.531H279.645C279.645 123.695 279.695 123.842 279.796 123.973C279.899 124.101 280.073 124.165 280.32 124.165C280.562 124.165 280.735 124.101 280.838 123.973C280.943 123.845 280.997 123.697 280.999 123.531ZM287.798 130.712C287.464 130.712 287.164 130.653 286.896 130.534C286.631 130.413 286.421 130.235 286.265 129.999C286.112 129.764 286.036 129.474 286.036 129.129C286.036 128.832 286.091 128.586 286.2 128.392C286.31 128.197 286.46 128.042 286.649 127.925C286.839 127.809 287.053 127.721 287.29 127.661C287.53 127.6 287.778 127.555 288.034 127.528C288.343 127.496 288.593 127.467 288.785 127.442C288.977 127.415 289.117 127.373 289.203 127.319C289.293 127.261 289.337 127.173 289.337 127.055V127.034C289.337 126.776 289.261 126.576 289.107 126.434C288.954 126.292 288.734 126.222 288.446 126.222C288.142 126.222 287.901 126.288 287.722 126.42C287.546 126.553 287.428 126.71 287.366 126.89L286.207 126.726C286.299 126.406 286.449 126.138 286.66 125.923C286.87 125.706 287.127 125.544 287.431 125.437C287.735 125.327 288.071 125.272 288.439 125.272C288.693 125.272 288.945 125.302 289.197 125.361C289.448 125.421 289.678 125.519 289.886 125.656C290.094 125.791 290.26 125.975 290.386 126.208C290.514 126.441 290.578 126.732 290.578 127.082V130.606H289.385V129.883H289.344C289.269 130.029 289.162 130.166 289.025 130.294C288.89 130.42 288.72 130.522 288.514 130.599C288.311 130.675 288.072 130.712 287.798 130.712ZM288.12 129.801C288.369 129.801 288.585 129.751 288.768 129.653C288.951 129.553 289.091 129.42 289.19 129.256C289.29 129.091 289.341 128.912 289.341 128.717V128.097C289.302 128.129 289.235 128.159 289.142 128.186C289.05 128.213 288.947 128.237 288.833 128.258C288.719 128.278 288.606 128.297 288.494 128.313C288.382 128.329 288.285 128.342 288.202 128.354C288.017 128.379 287.852 128.42 287.705 128.477C287.559 128.534 287.444 128.614 287.359 128.717C287.274 128.818 287.232 128.948 287.232 129.108C287.232 129.337 287.316 129.509 287.482 129.626C287.649 129.742 287.862 129.801 288.12 129.801ZM291.826 132.581V125.341H293.046V126.211H293.118C293.182 126.083 293.273 125.947 293.389 125.803C293.506 125.657 293.663 125.533 293.862 125.43C294.061 125.325 294.315 125.272 294.623 125.272C295.03 125.272 295.397 125.376 295.724 125.584C296.053 125.79 296.313 126.095 296.505 126.499C296.7 126.902 296.797 127.395 296.797 127.98C296.797 128.558 296.702 129.05 296.512 129.454C296.322 129.859 296.064 130.167 295.737 130.38C295.411 130.592 295.04 130.699 294.627 130.699C294.325 130.699 294.075 130.648 293.876 130.548C293.677 130.447 293.517 130.326 293.396 130.185C293.277 130.041 293.185 129.905 293.118 129.777H293.067V132.581H291.826ZM293.043 127.973C293.043 128.314 293.091 128.612 293.187 128.868C293.285 129.124 293.426 129.324 293.609 129.468C293.794 129.61 294.018 129.681 294.28 129.681C294.555 129.681 294.784 129.607 294.97 129.461C295.155 129.313 295.294 129.11 295.388 128.854C295.484 128.596 295.532 128.302 295.532 127.973C295.532 127.647 295.485 127.356 295.391 127.103C295.297 126.849 295.158 126.65 294.973 126.506C294.788 126.362 294.557 126.29 294.28 126.29C294.015 126.29 293.79 126.36 293.605 126.499C293.42 126.639 293.279 126.834 293.183 127.086C293.09 127.337 293.043 127.633 293.043 127.973ZM297.279 126.359V125.341H301.887V126.359H300.183V130.606H298.983V126.359H297.279ZM304.989 130.709C304.461 130.709 304.005 130.599 303.621 130.38C303.24 130.158 302.946 129.845 302.74 129.441C302.535 129.034 302.432 128.555 302.432 128.004C302.432 127.463 302.535 126.987 302.74 126.578C302.948 126.167 303.238 125.847 303.611 125.618C303.984 125.387 304.421 125.272 304.924 125.272C305.249 125.272 305.555 125.325 305.843 125.43C306.133 125.533 306.389 125.693 306.611 125.91C306.835 126.127 307.011 126.403 307.139 126.739C307.267 127.073 307.331 127.471 307.331 127.932V128.313H303.014V127.476H306.141C306.139 127.239 306.087 127.027 305.987 126.842C305.886 126.655 305.746 126.507 305.565 126.4C305.387 126.292 305.179 126.239 304.941 126.239C304.687 126.239 304.465 126.3 304.273 126.424C304.081 126.545 303.931 126.705 303.824 126.904C303.718 127.1 303.665 127.316 303.662 127.552V128.282C303.662 128.588 303.718 128.851 303.83 129.07C303.942 129.288 304.099 129.454 304.3 129.571C304.501 129.685 304.737 129.742 305.006 129.742C305.187 129.742 305.35 129.717 305.496 129.667C305.643 129.614 305.77 129.538 305.877 129.437C305.984 129.337 306.066 129.212 306.12 129.064L307.279 129.194C307.206 129.5 307.067 129.767 306.861 129.996C306.657 130.222 306.397 130.398 306.079 130.524C305.762 130.647 305.398 130.709 304.989 130.709ZM310.77 132.396V123.585H312.014V132.396H310.77ZM310.77 130.709C310.384 130.709 310.03 130.644 309.711 130.514C309.391 130.383 309.114 130.198 308.881 129.958C308.65 129.718 308.471 129.433 308.343 129.101C308.217 128.768 308.154 128.398 308.154 127.994C308.154 127.589 308.217 127.22 308.343 126.887C308.471 126.553 308.65 126.266 308.881 126.026C309.114 125.784 309.391 125.598 309.711 125.467C310.03 125.337 310.384 125.272 310.77 125.272H311.034V130.709H310.77ZM310.77 129.708H310.924V126.273H310.77C310.55 126.273 310.356 126.319 310.187 126.41C310.02 126.499 309.88 126.624 309.765 126.784C309.653 126.942 309.568 127.124 309.508 127.332C309.451 127.538 309.423 127.759 309.423 127.994C309.423 128.307 309.474 128.594 309.577 128.854C309.68 129.113 309.83 129.32 310.029 129.475C310.23 129.63 310.477 129.708 310.77 129.708ZM312.014 130.709H311.75V125.272H312.014C312.4 125.272 312.754 125.337 313.074 125.467C313.393 125.598 313.669 125.784 313.9 126.026C314.133 126.266 314.312 126.553 314.438 126.887C314.566 127.22 314.63 127.589 314.63 127.994C314.63 128.398 314.566 128.768 314.438 129.101C314.312 129.433 314.133 129.718 313.9 129.958C313.669 130.198 313.393 130.383 313.074 130.514C312.754 130.644 312.4 130.709 312.014 130.709ZM312.014 129.708C312.236 129.708 312.43 129.663 312.597 129.574C312.764 129.485 312.903 129.362 313.015 129.204C313.129 129.046 313.215 128.865 313.272 128.659C313.329 128.451 313.358 128.229 313.358 127.994C313.358 127.681 313.308 127.394 313.207 127.133C313.107 126.873 312.956 126.665 312.755 126.51C312.556 126.352 312.309 126.273 312.014 126.273H311.86V129.708H312.014ZM317.192 130.712C316.859 130.712 316.558 130.653 316.291 130.534C316.026 130.413 315.815 130.235 315.66 129.999C315.507 129.764 315.43 129.474 315.43 129.129C315.43 128.832 315.485 128.586 315.595 128.392C315.705 128.197 315.854 128.042 316.044 127.925C316.234 127.809 316.447 127.721 316.685 127.661C316.925 127.6 317.173 127.555 317.429 127.528C317.737 127.496 317.988 127.467 318.18 127.442C318.372 127.415 318.511 127.373 318.598 127.319C318.687 127.261 318.732 127.173 318.732 127.055V127.034C318.732 126.776 318.655 126.576 318.502 126.434C318.349 126.292 318.128 126.222 317.84 126.222C317.536 126.222 317.295 126.288 317.117 126.42C316.941 126.553 316.822 126.71 316.76 126.89L315.602 126.726C315.693 126.406 315.844 126.138 316.054 125.923C316.265 125.706 316.522 125.544 316.826 125.437C317.13 125.327 317.466 125.272 317.833 125.272C318.087 125.272 318.34 125.302 318.591 125.361C318.842 125.421 319.072 125.519 319.28 125.656C319.488 125.791 319.655 125.975 319.781 126.208C319.909 126.441 319.973 126.732 319.973 127.082V130.606H318.78V129.883H318.739C318.663 130.029 318.557 130.166 318.42 130.294C318.285 130.42 318.115 130.522 317.909 130.599C317.705 130.675 317.467 130.712 317.192 130.712ZM317.515 129.801C317.764 129.801 317.98 129.751 318.163 129.653C318.345 129.553 318.486 129.42 318.584 129.256C318.685 129.091 318.735 128.912 318.735 128.717V128.097C318.696 128.129 318.63 128.159 318.536 128.186C318.445 128.213 318.342 128.237 318.228 128.258C318.113 128.278 318 128.297 317.888 128.313C317.776 128.329 317.679 128.342 317.597 128.354C317.412 128.379 317.246 128.42 317.1 128.477C316.954 128.534 316.838 128.614 316.754 128.717C316.669 128.818 316.627 128.948 316.627 129.108C316.627 129.337 316.71 129.509 316.877 129.626C317.044 129.742 317.256 129.801 317.515 129.801ZM321.22 130.606V125.341H322.461V127.466H322.914L324.498 125.341H325.992L324.042 127.925L326.013 130.606H324.511L323.068 128.621H322.461V130.606H321.22ZM326.429 126.359V125.341H331.036V126.359H329.332V130.606H328.132V126.359H326.429ZM333.543 123.585L333.43 128.542H332.326L332.216 123.585H333.543ZM332.878 130.682C332.67 130.682 332.492 130.608 332.343 130.462C332.197 130.316 332.124 130.138 332.124 129.927C332.124 129.722 332.197 129.546 332.343 129.399C332.492 129.253 332.67 129.18 332.878 129.18C333.081 129.18 333.257 129.253 333.406 129.399C333.557 129.546 333.632 129.722 333.632 129.927C333.632 130.067 333.597 130.194 333.526 130.308C333.457 130.422 333.366 130.514 333.252 130.582C333.14 130.648 333.015 130.682 332.878 130.682Z" fill="#313741"/>
<path d="M255.419 146.466L250.592 140.433L260.246 140.433L255.419 146.466Z" fill="#FEE0BC"/>
</g>
</g>
<defs>
<filter id="filter0_b_3470_2176" x="-64.3575" y="-64.3575" width="704.715" height="704.715" filterUnits="userSpaceOnUse" color-interpolation-filters="sRGB">
<feFlood flood-opacity="0" result="BackgroundImageFix"/>
<feGaussianBlur in="BackgroundImageFix" stdDeviation="32.1788"/>
<feComposite in2="SourceAlpha" operator="in" result="effect1_backgroundBlur_3470_2176"/>
<feBlend mode="normal" in="SourceGraphic" in2="effect1_backgroundBlur_3470_2176" result="shape"/>
</filter>
<filter id="filter1_d_3470_2176" x="37.81" y="77.2291" width="64.3575" height="64.3575" filterUnits="userSpaceOnUse" color-interpolation-filters="sRGB">
<feFlood flood-opacity="0" result="BackgroundImageFix"/>
<feColorMatrix in="SourceAlpha" type="matrix" values="0 0 0 0 0 0 0 0 0 0 0 0 0 0 0 0 0 0 127 0" result="hardAlpha"/>
<feOffset dy="3.21788"/>
<feGaussianBlur stdDeviation="8.04469"/>
<feComposite in2="hardAlpha" operator="out"/>
<feColorMatrix type="matrix" values="0 0 0 0 0.670588 0 0 0 0 0 0 0 0 0 0.121569 0 0 0 1 0"/>
<feBlend mode="normal" in2="BackgroundImageFix" result="effect1_dropShadow_3470_2176"/>
<feBlend mode="normal" in="SourceGraphic" in2="effect1_dropShadow_3470_2176" result="shape"/>
</filter>
<filter id="filter2_d_3470_2176" x="99.9152" y="148.634" width="46.3376" height="46.3373" filterUnits="userSpaceOnUse" color-interpolation-filters="sRGB">
<feFlood flood-opacity="0" result="BackgroundImageFix"/>
<feColorMatrix in="SourceAlpha" type="matrix" values="0 0 0 0 0 0 0 0 0 0 0 0 0 0 0 0 0 0 127 0" result="hardAlpha"/>
<feOffset dy="2.05944"/>
<feGaussianBlur stdDeviation="5.1486"/>
<feComposite in2="hardAlpha" operator="out"/>
<feColorMatrix type="matrix" values="0 0 0 0 0.410026 0 0 0 0 0.410026 0 0 0 0 0.410026 0 0 0 0.8 0"/>
<feBlend mode="normal" in2="BackgroundImageFix" result="effect1_dropShadow_3470_2176"/>
<feBlend mode="normal" in="SourceGraphic" in2="effect1_dropShadow_3470_2176" result="shape"/>
</filter>
<filter id="filter3_d_3470_2176" x="78.0333" y="201.278" width="90.1004" height="90.1007" filterUnits="userSpaceOnUse" color-interpolation-filters="sRGB">
<feFlood flood-opacity="0" result="BackgroundImageFix"/>
<feColorMatrix in="SourceAlpha" type="matrix" values="0 0 0 0 0 0 0 0 0 0 0 0 0 0 0 0 0 0 127 0" result="hardAlpha"/>
<feOffset dy="2.5743"/>
<feGaussianBlur stdDeviation="6.43575"/>
<feComposite in2="hardAlpha" operator="out"/>
<feColorMatrix type="matrix" values="0 0 0 0 0.670588 0 0 0 0 0 0 0 0 0 0.121569 0 0 0 1 0"/>
<feBlend mode="normal" in2="BackgroundImageFix" result="effect1_dropShadow_3470_2176"/>
<feBlend mode="normal" in="SourceGraphic" in2="effect1_dropShadow_3470_2176" result="shape"/>
</filter>
<filter id="filter4_d_3470_2176" x="71.5977" y="194.842" width="102.972" height="102.972" filterUnits="userSpaceOnUse" color-interpolation-filters="sRGB">
<feFlood flood-opacity="0" result="BackgroundImageFix"/>
<feColorMatrix in="SourceAlpha" type="matrix" values="0 0 0 0 0 0 0 0 0 0 0 0 0 0 0 0 0 0 127 0" result="hardAlpha"/>
<feOffset dy="2.5743"/>
<feGaussianBlur stdDeviation="6.43575"/>
<feComposite in2="hardAlpha" operator="out"/>
<feColorMatrix type="matrix" values="0 0 0 0 0.670588 0 0 0 0 0 0 0 0 0 0.121569 0 0 0 1 0"/>
<feBlend mode="normal" in2="BackgroundImageFix" result="effect1_dropShadow_3470_2176"/>
<feBlend mode="normal" in="SourceGraphic" in2="effect1_dropShadow_3470_2176" result="shape"/>
</filter>
<filter id="filter5_d_3470_2176" x="99.9152" y="330.444" width="46.3376" height="46.3373" filterUnits="userSpaceOnUse" color-interpolation-filters="sRGB">
<feFlood flood-opacity="0" result="BackgroundImageFix"/>
<feColorMatrix in="SourceAlpha" type="matrix" values="0 0 0 0 0 0 0 0 0 0 0 0 0 0 0 0 0 0 127 0" result="hardAlpha"/>
<feOffset dy="2.05944"/>
<feGaussianBlur stdDeviation="5.1486"/>
<feComposite in2="hardAlpha" operator="out"/>
<feColorMatrix type="matrix" values="0 0 0 0 0.410026 0 0 0 0 0.410026 0 0 0 0 0.410026 0 0 0 0.8 0"/>
<feBlend mode="normal" in2="BackgroundImageFix" result="effect1_dropShadow_3470_2176"/>
<feBlend mode="normal" in="SourceGraphic" in2="effect1_dropShadow_3470_2176" result="shape"/>
</filter>
<filter id="filter6_d_3470_2176" x="78.0333" y="383.088" width="90.1004" height="90.1007" filterUnits="userSpaceOnUse" color-interpolation-filters="sRGB">
<feFlood flood-opacity="0" result="BackgroundImageFix"/>
<feColorMatrix in="SourceAlpha" type="matrix" values="0 0 0 0 0 0 0 0 0 0 0 0 0 0 0 0 0 0 127 0" result="hardAlpha"/>
<feOffset dy="2.5743"/>
<feGaussianBlur stdDeviation="6.43575"/>
<feComposite in2="hardAlpha" operator="out"/>
<feColorMatrix type="matrix" values="0 0 0 0 0.410026 0 0 0 0 0.410026 0 0 0 0 0.410026 0 0 0 0.8 0"/>
<feBlend mode="normal" in2="BackgroundImageFix" result="effect1_dropShadow_3470_2176"/>
<feBlend mode="normal" in="SourceGraphic" in2="effect1_dropShadow_3470_2176" result="shape"/>
</filter>
<filter id="filter7_d_3470_2176" x="71.5977" y="376.653" width="102.972" height="102.972" filterUnits="userSpaceOnUse" color-interpolation-filters="sRGB">
<feFlood flood-opacity="0" result="BackgroundImageFix"/>
<feColorMatrix in="SourceAlpha" type="matrix" values="0 0 0 0 0 0 0 0 0 0 0 0 0 0 0 0 0 0 127 0" result="hardAlpha"/>
<feOffset dy="2.5743"/>
<feGaussianBlur stdDeviation="6.43575"/>
<feComposite in2="hardAlpha" operator="out"/>
<feColorMatrix type="matrix" values="0 0 0 0 0.410026 0 0 0 0 0.410026 0 0 0 0 0.410026 0 0 0 0.8 0"/>
<feBlend mode="normal" in2="BackgroundImageFix" result="effect1_dropShadow_3470_2176"/>
<feBlend mode="normal" in="SourceGraphic" in2="effect1_dropShadow_3470_2176" result="shape"/>
</filter>
<filter id="filter8_d_3470_2176" x="232.652" y="148.634" width="46.3376" height="46.3373" filterUnits="userSpaceOnUse" color-interpolation-filters="sRGB">
<feFlood flood-opacity="0" result="BackgroundImageFix"/>
<feColorMatrix in="SourceAlpha" type="matrix" values="0 0 0 0 0 0 0 0 0 0 0 0 0 0 0 0 0 0 127 0" result="hardAlpha"/>
<feOffset dy="2.05944"/>
<feGaussianBlur stdDeviation="5.1486"/>
<feComposite in2="hardAlpha" operator="out"/>
<feColorMatrix type="matrix" values="0 0 0 0 0.410026 0 0 0 0 0.410026 0 0 0 0 0.410026 0 0 0 0.8 0"/>
<feBlend mode="normal" in2="BackgroundImageFix" result="effect1_dropShadow_3470_2176"/>
<feBlend mode="normal" in="SourceGraphic" in2="effect1_dropShadow_3470_2176" result="shape"/>
</filter>
<filter id="filter9_d_3470_2176" x="210.771" y="201.278" width="90.1004" height="90.1007" filterUnits="userSpaceOnUse" color-interpolation-filters="sRGB">
<feFlood flood-opacity="0" result="BackgroundImageFix"/>
<feColorMatrix in="SourceAlpha" type="matrix" values="0 0 0 0 0 0 0 0 0 0 0 0 0 0 0 0 0 0 127 0" result="hardAlpha"/>
<feOffset dy="2.5743"/>
<feGaussianBlur stdDeviation="6.43575"/>
<feComposite in2="hardAlpha" operator="out"/>
<feColorMatrix type="matrix" values="0 0 0 0 0.410026 0 0 0 0 0.410026 0 0 0 0 0.410026 0 0 0 0.8 0"/>
<feBlend mode="normal" in2="BackgroundImageFix" result="effect1_dropShadow_3470_2176"/>
<feBlend mode="normal" in="SourceGraphic" in2="effect1_dropShadow_3470_2176" result="shape"/>
</filter>
<filter id="filter10_d_3470_2176" x="204.335" y="194.842" width="102.972" height="102.972" filterUnits="userSpaceOnUse" color-interpolation-filters="sRGB">
<feFlood flood-opacity="0" result="BackgroundImageFix"/>
<feColorMatrix in="SourceAlpha" type="matrix" values="0 0 0 0 0 0 0 0 0 0 0 0 0 0 0 0 0 0 127 0" result="hardAlpha"/>
<feOffset dy="2.5743"/>
<feGaussianBlur stdDeviation="6.43575"/>
<feComposite in2="hardAlpha" operator="out"/>
<feColorMatrix type="matrix" values="0 0 0 0 0.410026 0 0 0 0 0.410026 0 0 0 0 0.410026 0 0 0 0.8 0"/>
<feBlend mode="normal" in2="BackgroundImageFix" result="effect1_dropShadow_3470_2176"/>
<feBlend mode="normal" in="SourceGraphic" in2="effect1_dropShadow_3470_2176" result="shape"/>
</filter>
<filter id="filter11_d_3470_2176" x="232.652" y="330.444" width="46.3376" height="46.3373" filterUnits="userSpaceOnUse" color-interpolation-filters="sRGB">
<feFlood flood-opacity="0" result="BackgroundImageFix"/>
<feColorMatrix in="SourceAlpha" type="matrix" values="0 0 0 0 0 0 0 0 0 0 0 0 0 0 0 0 0 0 127 0" result="hardAlpha"/>
<feOffset dy="2.05944"/>
<feGaussianBlur stdDeviation="5.1486"/>
<feComposite in2="hardAlpha" operator="out"/>
<feColorMatrix type="matrix" values="0 0 0 0 0.410026 0 0 0 0 0.410026 0 0 0 0 0.410026 0 0 0 0.8 0"/>
<feBlend mode="normal" in2="BackgroundImageFix" result="effect1_dropShadow_3470_2176"/>
<feBlend mode="normal" in="SourceGraphic" in2="effect1_dropShadow_3470_2176" result="shape"/>
</filter>
<filter id="filter12_d_3470_2176" x="210.771" y="383.088" width="90.1004" height="90.1007" filterUnits="userSpaceOnUse" color-interpolation-filters="sRGB">
<feFlood flood-opacity="0" result="BackgroundImageFix"/>
<feColorMatrix in="SourceAlpha" type="matrix" values="0 0 0 0 0 0 0 0 0 0 0 0 0 0 0 0 0 0 127 0" result="hardAlpha"/>
<feOffset dy="2.5743"/>
<feGaussianBlur stdDeviation="6.43575"/>
<feComposite in2="hardAlpha" operator="out"/>
<feColorMatrix type="matrix" values="0 0 0 0 0.410026 0 0 0 0 0.410026 0 0 0 0 0.410026 0 0 0 0.8 0"/>
<feBlend mode="normal" in2="BackgroundImageFix" result="effect1_dropShadow_3470_2176"/>
<feBlend mode="normal" in="SourceGraphic" in2="effect1_dropShadow_3470_2176" result="shape"/>
</filter>
<filter id="filter13_d_3470_2176" x="204.335" y="376.653" width="102.972" height="102.972" filterUnits="userSpaceOnUse" color-interpolation-filters="sRGB">
<feFlood flood-opacity="0" result="BackgroundImageFix"/>
<feColorMatrix in="SourceAlpha" type="matrix" values="0 0 0 0 0 0 0 0 0 0 0 0 0 0 0 0 0 0 127 0" result="hardAlpha"/>
<feOffset dy="2.5743"/>
<feGaussianBlur stdDeviation="6.43575"/>
<feComposite in2="hardAlpha" operator="out"/>
<feColorMatrix type="matrix" values="0 0 0 0 0.410026 0 0 0 0 0.410026 0 0 0 0 0.410026 0 0 0 0.8 0"/>
<feBlend mode="normal" in2="BackgroundImageFix" result="effect1_dropShadow_3470_2176"/>
<feBlend mode="normal" in="SourceGraphic" in2="effect1_dropShadow_3470_2176" result="shape"/>
</filter>
<filter id="filter14_d_3470_2176" x="387.915" y="436.634" width="46.3376" height="46.3373" filterUnits="userSpaceOnUse" color-interpolation-filters="sRGB">
<feFlood flood-opacity="0" result="BackgroundImageFix"/>
<feColorMatrix in="SourceAlpha" type="matrix" values="0 0 0 0 0 0 0 0 0 0 0 0 0 0 0 0 0 0 127 0" result="hardAlpha"/>
<feOffset dy="2.05944"/>
<feGaussianBlur stdDeviation="5.1486"/>
<feComposite in2="hardAlpha" operator="out"/>
<feColorMatrix type="matrix" values="0 0 0 0 0.410026 0 0 0 0 0.410026 0 0 0 0 0.410026 0 0 0 0.8 0"/>
<feBlend mode="normal" in2="BackgroundImageFix" result="effect1_dropShadow_3470_2176"/>
<feBlend mode="normal" in="SourceGraphic" in2="effect1_dropShadow_3470_2176" result="shape"/>
</filter>
<filter id="filter15_d_3470_2176" x="366.034" y="341.256" width="90.1004" height="90.1007" filterUnits="userSpaceOnUse" color-interpolation-filters="sRGB">
<feFlood flood-opacity="0" result="BackgroundImageFix"/>
<feColorMatrix in="SourceAlpha" type="matrix" values="0 0 0 0 0 0 0 0 0 0 0 0 0 0 0 0 0 0 127 0" result="hardAlpha"/>
<feOffset dy="2.5743"/>
<feGaussianBlur stdDeviation="6.43575"/>
<feComposite in2="hardAlpha" operator="out"/>
<feColorMatrix type="matrix" values="0 0 0 0 0.670588 0 0 0 0 0 0 0 0 0 0.121569 0 0 0 1 0"/>
<feBlend mode="normal" in2="BackgroundImageFix" result="effect1_dropShadow_3470_2176"/>
<feBlend mode="normal" in="SourceGraphic" in2="effect1_dropShadow_3470_2176" result="shape"/>
</filter>
<filter id="filter16_d_3470_2176" x="359.598" y="334.82" width="102.972" height="102.972" filterUnits="userSpaceOnUse" color-interpolation-filters="sRGB">
<feFlood flood-opacity="0" result="BackgroundImageFix"/>
<feColorMatrix in="SourceAlpha" type="matrix" values="0 0 0 0 0 0 0 0 0 0 0 0 0 0 0 0 0 0 127 0" result="hardAlpha"/>
<feOffset dy="2.5743"/>
<feGaussianBlur stdDeviation="6.43575"/>
<feComposite in2="hardAlpha" operator="out"/>
<feColorMatrix type="matrix" values="0 0 0 0 0.670588 0 0 0 0 0 0 0 0 0 0.121569 0 0 0 1 0"/>
<feBlend mode="normal" in2="BackgroundImageFix" result="effect1_dropShadow_3470_2176"/>
<feBlend mode="normal" in="SourceGraphic" in2="effect1_dropShadow_3470_2176" result="shape"/>
</filter>
<filter id="filter17_d_3470_2176" x="461.926" y="222.645" width="46.3376" height="46.3373" filterUnits="userSpaceOnUse" color-interpolation-filters="sRGB">
<feFlood flood-opacity="0" result="BackgroundImageFix"/>
<feColorMatrix in="SourceAlpha" type="matrix" values="0 0 0 0 0 0 0 0 0 0 0 0 0 0 0 0 0 0 127 0" result="hardAlpha"/>
<feOffset dy="2.05944"/>
<feGaussianBlur stdDeviation="5.1486"/>
<feComposite in2="hardAlpha" operator="out"/>
<feColorMatrix type="matrix" values="0 0 0 0 0.410026 0 0 0 0 0.410026 0 0 0 0 0.410026 0 0 0 0.8 0"/>
<feBlend mode="normal" in2="BackgroundImageFix" result="effect1_dropShadow_3470_2176"/>
<feBlend mode="normal" in="SourceGraphic" in2="effect1_dropShadow_3470_2176" result="shape"/>
</filter>
<filter id="filter18_d_3470_2176" x="366.033" y="201.278" width="90.1004" height="90.1007" filterUnits="userSpaceOnUse" color-interpolation-filters="sRGB">
<feFlood flood-opacity="0" result="BackgroundImageFix"/>
<feColorMatrix in="SourceAlpha" type="matrix" values="0 0 0 0 0 0 0 0 0 0 0 0 0 0 0 0 0 0 127 0" result="hardAlpha"/>
<feOffset dy="2.5743"/>
<feGaussianBlur stdDeviation="6.43575"/>
<feComposite in2="hardAlpha" operator="out"/>
<feColorMatrix type="matrix" values="0 0 0 0 0.410026 0 0 0 0 0.410026 0 0 0 0 0.410026 0 0 0 0.8 0"/>
<feBlend mode="normal" in2="BackgroundImageFix" result="effect1_dropShadow_3470_2176"/>
<feBlend mode="normal" in="SourceGraphic" in2="effect1_dropShadow_3470_2176" result="shape"/>
</filter>
<filter id="filter19_d_3470_2176" x="359.598" y="194.842" width="102.972" height="102.972" filterUnits="userSpaceOnUse" color-interpolation-filters="sRGB">
<feFlood flood-opacity="0" result="BackgroundImageFix"/>
<feColorMatrix in="SourceAlpha" type="matrix" values="0 0 0 0 0 0 0 0 0 0 0 0 0 0 0 0 0 0 127 0" result="hardAlpha"/>
<feOffset dy="2.5743"/>
<feGaussianBlur stdDeviation="6.43575"/>
<feComposite in2="hardAlpha" operator="out"/>
<feColorMatrix type="matrix" values="0 0 0 0 0.410026 0 0 0 0 0.410026 0 0 0 0 0.410026 0 0 0 0.8 0"/>
<feBlend mode="normal" in2="BackgroundImageFix" result="effect1_dropShadow_3470_2176"/>
<feBlend mode="normal" in="SourceGraphic" in2="effect1_dropShadow_3470_2176" result="shape"/>
</filter>
<filter id="filter20_d_3470_2176" x="147.458" y="94.472" width="215.922" height="71.3018" filterUnits="userSpaceOnUse" color-interpolation-filters="sRGB">
<feFlood flood-opacity="0" result="BackgroundImageFix"/>
<feColorMatrix in="SourceAlpha" type="matrix" values="0 0 0 0 0 0 0 0 0 0 0 0 0 0 0 0 0 0 127 0" result="hardAlpha"/>
<feOffset/>
<feGaussianBlur stdDeviation="9.65363"/>
<feComposite in2="hardAlpha" operator="out"/>
<feColorMatrix type="matrix" values="0 0 0 0 0.192157 0 0 0 0 0.215686 0 0 0 0 0.254902 0 0 0 0.24 0"/>
<feBlend mode="normal" in2="BackgroundImageFix" result="effect1_dropShadow_3470_2176"/>
<feBlend mode="normal" in="SourceGraphic" in2="effect1_dropShadow_3470_2176" result="shape"/>
</filter>
<clipPath id="clip0_3470_2176">
<rect width="576" height="576" fill="white"/>
</clipPath>
</defs>
</svg>
