<svg width="451" height="422" viewBox="0 0 451 422" fill="none" xmlns="http://www.w3.org/2000/svg">
<g clip-path="url(#clip0_1340_13585)">
<path opacity="0.1" fill-rule="evenodd" clip-rule="evenodd" d="M243.145 387.766C195.666 393.017 146.31 431.451 106.216 404.99C51.063 368.589 -10.134 303.818 4.8399 230.487C19.8136 157.157 106.012 141.633 166.523 109.655C212.768 85.2151 261.288 53.5682 308.181 70.177C352.115 85.7377 365.499 143.634 388.745 188.362C410.668 230.546 454.556 271.682 437.546 319.096C420.519 366.556 362.306 366.278 319.488 381.403C293.848 390.46 269.581 384.843 243.145 387.766Z" fill="#56B9F2"/>
<path d="M207.473 41.3432L206.188 34.606C206.095 34.1212 205.627 33.8031 205.143 33.8955C204.658 33.9879 204.34 34.4558 204.433 34.9405L205.718 41.6778C206.422 45.371 209.41 48.1993 213.135 48.6994C216.099 49.0972 218.475 51.3469 219.035 54.2843L220.32 61.0216C220.413 61.5064 220.881 61.8245 221.365 61.7321C221.85 61.6397 222.168 61.1718 222.075 60.687L220.79 53.9497C220.086 50.2566 217.098 47.4282 213.373 46.9281C210.409 46.5304 208.033 44.2807 207.473 41.3432Z" fill="#0071B3"/>
<path d="M72.1408 148.277L67.5499 143.181C67.2195 142.814 66.6546 142.785 66.288 143.115C65.9214 143.445 65.892 144.01 66.2224 144.377L70.8133 149.472C73.3298 152.266 77.3511 153.136 80.7963 151.632C83.5366 150.437 86.735 151.129 88.7367 153.35L93.3276 158.446C93.6579 158.813 94.2229 158.842 94.5895 158.512C94.9561 158.182 94.9854 157.617 94.6551 157.25L90.0642 152.155C87.5477 149.361 83.5264 148.491 80.0812 149.995C77.3409 151.19 74.1424 150.498 72.1408 148.277Z" fill="#0071B3"/>
<path d="M147.061 300.606L150.751 294.825C151.016 294.409 150.894 293.856 150.479 293.591C150.063 293.325 149.51 293.447 149.245 293.863L145.555 299.645C143.532 302.814 143.764 306.922 146.13 309.843C148.012 312.166 148.196 315.433 146.587 317.954L142.897 323.736C142.632 324.152 142.754 324.704 143.17 324.97C143.586 325.235 144.138 325.113 144.404 324.697L148.093 318.915C150.116 315.746 149.884 311.638 147.518 308.718C145.636 306.395 145.452 303.127 147.061 300.606Z" fill="#0071B3"/>
<path d="M272.469 182.969C249.996 181.308 220.312 189.939 216.762 219.574C213.05 250.553 216.642 267.129 233.237 272.433C246.513 276.676 274.934 259.888 285.737 252.563M246.622 229.256L246.682 239.247C246.704 242.793 250.065 245.376 253.491 244.46C261.424 242.339 272.874 239.163 279.892 236.473M294.899 192.058C300.214 196.754 308.866 205.322 315.151 221.414C322.254 239.606 323.79 260.784 306.546 264.265C289.301 267.746 283.246 249.63 278.634 228.227C273.576 204.75 270.82 186.88 272.196 177.469C273.695 167.212 281.124 171.111 283.258 174.889C284.46 177.017 285.036 178.418 286.087 182.573C288.165 182.047 291.794 182.587 294.899 192.058Z" stroke="#0071B3" stroke-width="3.65921"/>
<path d="M304.587 230.801C304.877 231.769 305.897 232.319 306.865 232.029C307.833 231.74 308.383 230.72 308.093 229.752L304.587 230.801ZM300.464 282.162L300.951 283.926L300.464 282.162ZM312.027 272.825L310.275 273.354L310.301 273.439L310.334 273.52L312.027 272.825ZM315.899 332.65C315.862 333.66 316.65 334.509 317.66 334.546C318.67 334.583 319.519 333.795 319.556 332.785L315.899 332.65ZM231.22 344.438C231.331 345.443 232.235 346.167 233.24 346.056C234.244 345.945 234.968 345.041 234.857 344.036L231.22 344.438ZM280.441 309.998C280.193 309.019 279.198 308.426 278.219 308.674C277.239 308.922 276.646 309.917 276.894 310.896L280.441 309.998ZM279.619 337.153C279.619 338.163 280.438 338.983 281.449 338.983C282.459 338.983 283.279 338.163 283.279 337.153L279.619 337.153ZM293.145 192.584L304.587 230.801L308.093 229.752L296.65 191.534L293.145 192.584ZM227.456 270.648C227.456 270.65 227.456 270.653 227.456 270.656C227.455 270.658 227.455 270.661 227.455 270.663C227.455 270.666 227.455 270.669 227.454 270.672C227.454 270.674 227.454 270.677 227.454 270.68C227.454 270.682 227.453 270.685 227.453 270.688C227.453 270.69 227.453 270.693 227.453 270.696C227.452 270.699 227.452 270.701 227.452 270.704C227.452 270.707 227.452 270.71 227.451 270.712C227.451 270.715 227.451 270.718 227.451 270.721C227.451 270.723 227.45 270.726 227.45 270.729C227.45 270.732 227.45 270.735 227.45 270.737C227.449 270.74 227.449 270.743 227.449 270.746C227.449 270.749 227.449 270.752 227.448 270.754C227.448 270.757 227.448 270.76 227.448 270.763C227.447 270.766 227.447 270.769 227.447 270.772C227.447 270.774 227.447 270.777 227.446 270.78C227.446 270.783 227.446 270.786 227.446 270.789C227.446 270.792 227.445 270.795 227.445 270.798C227.445 270.8 227.445 270.803 227.444 270.806C227.444 270.809 227.444 270.812 227.444 270.815C227.444 270.818 227.443 270.821 227.443 270.824C227.443 270.827 227.443 270.83 227.443 270.833C227.442 270.836 227.442 270.839 227.442 270.842C227.442 270.845 227.441 270.848 227.441 270.851C227.441 270.854 227.441 270.857 227.441 270.86C227.44 270.863 227.44 270.866 227.44 270.869C227.44 270.872 227.439 270.875 227.439 270.878C227.439 270.881 227.439 270.884 227.439 270.887C227.438 270.89 227.438 270.893 227.438 270.896C227.438 270.899 227.437 270.902 227.437 270.905C227.437 270.909 227.437 270.912 227.436 270.915C227.436 270.918 227.436 270.921 227.436 270.924C227.436 270.927 227.435 270.93 227.435 270.933C227.435 270.937 227.435 270.94 227.434 270.943C227.434 270.946 227.434 270.949 227.434 270.952C227.433 270.955 227.433 270.959 227.433 270.962C227.433 270.965 227.433 270.968 227.432 270.971C227.432 270.975 227.432 270.978 227.432 270.981C227.431 270.984 227.431 270.987 227.431 270.991C227.431 270.994 227.43 270.997 227.43 271C227.43 271.003 227.43 271.007 227.429 271.01C227.429 271.013 227.429 271.016 227.429 271.02C227.428 271.023 227.428 271.026 227.428 271.029C227.428 271.033 227.427 271.036 227.427 271.039C227.427 271.043 227.427 271.046 227.427 271.049C227.426 271.052 227.426 271.056 227.426 271.059C227.426 271.062 227.425 271.066 227.425 271.069C227.425 271.072 227.425 271.076 227.424 271.079C227.424 271.082 227.424 271.086 227.424 271.089C227.423 271.092 227.423 271.096 227.423 271.099C227.423 271.102 227.422 271.106 227.422 271.109C227.422 271.113 227.422 271.116 227.421 271.119C227.421 271.123 227.421 271.126 227.421 271.129C227.42 271.133 227.42 271.136 227.42 271.14C227.42 271.143 227.419 271.147 227.419 271.15C227.419 271.153 227.419 271.157 227.418 271.16C227.418 271.164 227.418 271.167 227.418 271.171C227.417 271.174 227.417 271.178 227.417 271.181C227.417 271.184 227.416 271.188 227.416 271.191C227.416 271.195 227.415 271.198 227.415 271.202C227.415 271.205 227.415 271.209 227.414 271.212C227.414 271.216 227.414 271.219 227.414 271.223C227.413 271.226 227.413 271.23 227.413 271.234C227.413 271.237 227.412 271.241 227.412 271.244C227.412 271.248 227.412 271.251 227.411 271.255C227.411 271.258 227.411 271.262 227.411 271.266C227.41 271.269 227.41 271.273 227.41 271.276C227.409 271.28 227.409 271.283 227.409 271.287C227.409 271.291 227.408 271.294 227.408 271.298C227.408 271.301 227.408 271.305 227.407 271.309C227.407 271.312 227.407 271.316 227.407 271.32C227.406 271.323 227.406 271.327 227.406 271.331C227.405 271.334 227.405 271.338 227.405 271.341C227.405 271.345 227.404 271.349 227.404 271.352C227.404 271.356 227.404 271.36 227.403 271.364C227.403 271.367 227.403 271.371 227.402 271.375C227.402 271.378 227.402 271.382 227.402 271.386C227.401 271.389 227.401 271.393 227.401 271.397C227.401 271.401 227.4 271.404 227.4 271.408C227.4 271.412 227.399 271.416 227.399 271.419C227.399 271.423 227.399 271.427 227.398 271.431C227.398 271.434 227.398 271.438 227.397 271.442C227.397 271.446 227.397 271.449 227.397 271.453C227.396 271.457 227.396 271.461 227.396 271.465C227.396 271.468 227.395 271.472 227.395 271.476C227.395 271.48 227.394 271.484 227.394 271.487C227.394 271.491 227.394 271.495 227.393 271.499C227.393 271.503 227.393 271.507 227.392 271.51C227.392 271.514 227.392 271.518 227.392 271.522C227.391 271.526 227.391 271.53 227.391 271.534C227.39 271.537 227.39 271.541 227.39 271.545C227.39 271.549 227.389 271.553 227.389 271.557C227.389 271.561 227.388 271.565 227.388 271.569C227.388 271.572 227.388 271.576 227.387 271.58C227.387 271.584 227.387 271.588 227.386 271.592C227.386 271.596 227.386 271.6 227.385 271.604C227.385 271.608 227.385 271.612 227.385 271.616C227.384 271.62 227.384 271.624 227.384 271.628C227.383 271.631 227.383 271.635 227.383 271.639C227.383 271.643 227.382 271.647 227.382 271.651C227.382 271.655 227.381 271.659 227.381 271.663C227.381 271.667 227.381 271.671 227.38 271.675C227.38 271.679 227.38 271.683 227.379 271.687C227.379 271.691 227.379 271.695 227.378 271.699C227.378 271.704 227.378 271.708 227.378 271.712C227.377 271.716 227.377 271.72 227.377 271.724C227.376 271.728 227.376 271.732 227.376 271.736C227.375 271.74 227.375 271.744 227.375 271.748C227.375 271.752 227.374 271.756 227.374 271.76C227.374 271.764 227.373 271.769 227.373 271.773C227.373 271.777 227.372 271.781 227.372 271.785C227.372 271.789 227.371 271.793 227.371 271.797C227.371 271.801 227.371 271.806 227.37 271.81C227.37 271.814 227.37 271.818 227.369 271.822C227.369 271.826 227.369 271.83 227.368 271.835C227.368 271.839 227.368 271.843 227.368 271.847C227.367 271.851 227.367 271.855 227.367 271.859C227.366 271.864 227.366 271.868 227.366 271.872C227.365 271.876 227.365 271.88 227.365 271.885C227.364 271.889 227.364 271.893 227.364 271.897C227.363 271.901 227.363 271.906 227.363 271.91C227.363 271.914 227.362 271.918 227.362 271.922C227.362 271.927 227.361 271.931 227.361 271.935C227.361 271.939 227.36 271.944 227.36 271.948C227.36 271.952 227.359 271.956 227.359 271.961C227.359 271.965 227.358 271.969 227.358 271.973C227.358 271.978 227.358 271.982 227.357 271.986C227.357 271.991 227.357 271.995 227.356 271.999C227.356 272.003 227.356 272.008 227.355 272.012C227.355 272.016 227.355 272.021 227.354 272.025C227.354 272.029 227.354 272.034 227.353 272.038C227.353 272.042 227.353 272.047 227.352 272.051C227.352 272.055 227.352 272.06 227.351 272.064C227.351 272.068 227.351 272.073 227.351 272.077C227.35 272.081 227.35 272.086 227.35 272.09C227.349 272.094 227.349 272.099 227.349 272.103C227.348 272.107 227.348 272.112 227.348 272.116C227.347 272.121 227.347 272.125 227.347 272.129C227.346 272.134 227.346 272.138 227.346 272.143C227.345 272.147 227.345 272.151 227.345 272.156C227.344 272.16 227.344 272.165 227.344 272.169C227.343 272.173 227.343 272.178 227.343 272.182C227.342 272.187 227.342 272.191 227.342 272.196C227.341 272.2 227.341 272.204 227.341 272.209C227.34 272.213 227.34 272.218 227.34 272.222C227.339 272.227 227.339 272.231 227.339 272.236C227.338 272.24 227.338 272.245 227.338 272.249C227.337 272.254 227.337 272.258 227.337 272.263C227.336 272.267 227.336 272.272 227.336 272.276C227.335 272.281 227.335 272.285 227.335 272.29C227.334 272.294 227.334 272.299 227.334 272.303C227.333 272.308 227.333 272.312 227.333 272.317C227.332 272.321 227.332 272.326 227.332 272.33C227.331 272.335 227.331 272.339 227.331 272.344C227.33 272.348 227.33 272.353 227.33 272.357C227.329 272.362 227.329 272.367 227.329 272.371C227.328 272.376 227.328 272.38 227.328 272.385C227.327 272.389 227.327 272.394 227.327 272.399C227.326 272.403 227.326 272.408 227.326 272.412C227.325 272.417 227.325 272.422 227.325 272.426C227.324 272.431 227.324 272.435 227.324 272.44C227.323 272.445 227.323 272.449 227.323 272.454C227.322 272.458 227.322 272.463 227.322 272.468C227.321 272.472 227.321 272.477 227.321 272.482C227.32 272.486 227.32 272.491 227.32 272.495C227.319 272.5 227.319 272.505 227.319 272.509C227.318 272.514 227.318 272.519 227.317 272.523C227.317 272.528 227.317 272.533 227.316 272.537C227.316 272.542 227.316 272.547 227.315 272.551C227.315 272.556 227.315 272.561 227.314 272.565C227.314 272.57 227.314 272.575 227.313 272.58C227.313 272.584 227.313 272.589 227.312 272.594C227.312 272.598 227.312 272.603 227.311 272.608C227.311 272.612 227.311 272.617 227.31 272.622C227.31 272.627 227.31 272.631 227.309 272.636C227.309 272.641 227.308 272.646 227.308 272.65C227.308 272.655 227.307 272.66 227.307 272.664C227.307 272.669 227.306 272.674 227.306 272.679C227.306 272.683 227.305 272.688 227.305 272.693C227.305 272.698 227.304 272.703 227.304 272.707C227.304 272.712 227.303 272.717 227.303 272.722C227.302 272.726 227.302 272.731 227.302 272.736C227.301 272.741 227.301 272.746 227.301 272.75C227.3 272.755 227.3 272.76 227.3 272.765C227.299 272.77 227.299 272.774 227.299 272.779C227.298 272.784 227.298 272.789 227.298 272.794C227.297 272.798 227.297 272.803 227.296 272.808C227.296 272.813 227.296 272.818 227.295 272.823C227.295 272.827 227.295 272.832 227.294 272.837C227.294 272.842 227.294 272.847 227.293 272.852C227.293 272.857 227.292 272.861 227.292 272.866C227.292 272.871 227.291 272.876 227.291 272.881C227.291 272.886 227.29 272.891 227.29 272.895C227.29 272.9 227.289 272.905 227.289 272.91C227.289 272.915 227.288 272.92 227.288 272.925C227.287 272.93 227.287 272.935 227.287 272.939C227.286 272.944 227.286 272.949 227.286 272.954C227.285 272.959 227.285 272.964 227.285 272.969C227.284 272.974 227.284 272.979 227.283 272.984C227.283 272.989 227.283 272.993 227.282 272.998C227.282 273.003 227.282 273.008 227.281 273.013C227.281 273.018 227.281 273.023 227.28 273.028C227.28 273.033 227.279 273.038 227.279 273.043C227.279 273.048 227.278 273.053 227.278 273.058C227.278 273.063 227.277 273.068 227.277 273.073C227.277 273.078 227.276 273.082 227.276 273.087C227.275 273.092 227.275 273.097 227.275 273.102C227.274 273.107 227.274 273.112 227.274 273.117C227.273 273.122 227.273 273.127 227.272 273.132C227.272 273.137 227.272 273.142 227.271 273.147C227.271 273.152 227.271 273.157 227.27 273.162C227.27 273.167 227.269 273.172 227.269 273.177C227.269 273.182 227.268 273.187 227.268 273.192C227.268 273.197 227.267 273.202 227.267 273.207C227.267 273.212 227.266 273.218 227.266 273.223C227.265 273.228 227.265 273.233 227.265 273.238C227.264 273.243 227.264 273.248 227.264 273.253C227.263 273.258 227.263 273.263 227.262 273.268C227.262 273.273 227.262 273.278 227.261 273.283C227.261 273.288 227.261 273.293 227.26 273.298C227.26 273.303 227.259 273.308 227.259 273.314C227.259 273.319 227.258 273.324 227.258 273.329C227.258 273.334 227.257 273.339 227.257 273.344C227.256 273.349 227.256 273.354 227.256 273.359C227.255 273.364 227.255 273.369 227.255 273.375C227.254 273.38 227.254 273.385 227.253 273.39C227.253 273.395 227.253 273.4 227.252 273.405C227.252 273.41 227.252 273.415 227.251 273.421C227.251 273.426 227.25 273.431 227.25 273.436C227.25 273.441 227.249 273.446 227.249 273.451C227.248 273.456 227.248 273.462 227.248 273.467C227.247 273.472 227.247 273.477 227.247 273.482C227.246 273.487 227.246 273.492 227.245 273.498C227.245 273.503 227.245 273.508 227.244 273.513C227.244 273.518 227.244 273.523 227.243 273.529C227.243 273.534 227.242 273.539 227.242 273.544C227.242 273.549 227.241 273.554 227.241 273.56C227.24 273.565 227.24 273.57 227.24 273.575C227.239 273.58 227.239 273.585 227.239 273.591C227.238 273.596 227.238 273.601 227.237 273.606C227.237 273.611 227.237 273.617 227.236 273.622C227.236 273.627 227.235 273.632 227.235 273.637C227.235 273.643 227.234 273.648 227.234 273.653C227.234 273.658 227.233 273.663 227.233 273.669C227.232 273.674 227.232 273.679 227.232 273.684C227.231 273.69 227.231 273.695 227.23 273.7C227.23 273.705 227.23 273.71 227.229 273.716C227.229 273.721 227.229 273.726 227.228 273.731C227.228 273.737 227.227 273.742 227.227 273.747C227.227 273.752 227.226 273.758 227.226 273.763C227.225 273.768 227.225 273.773 227.225 273.779C227.224 273.784 227.224 273.789 227.223 273.794C227.223 273.8 227.223 273.805 227.222 273.81C227.222 273.815 227.222 273.821 227.221 273.826C227.221 273.831 227.22 273.836 227.22 273.842C227.22 273.847 227.219 273.852 227.219 273.858C227.218 273.863 227.218 273.868 227.218 273.873C227.217 273.879 227.217 273.884 227.216 273.889C227.216 273.895 227.216 273.9 227.215 273.905C227.215 273.91 227.215 273.916 227.214 273.921C227.214 273.926 227.213 273.932 227.213 273.937C227.213 273.942 227.212 273.948 227.212 273.953C227.211 273.958 227.211 273.963 227.211 273.969C227.21 273.974 227.21 273.979 227.209 273.985C227.209 273.99 227.209 273.995 227.208 274.001C227.208 274.006 227.207 274.011 227.207 274.017C227.207 274.022 227.206 274.027 227.206 274.033C227.205 274.038 227.205 274.043 227.205 274.049C227.204 274.054 227.204 274.059 227.203 274.065C227.203 274.07 227.203 274.075 227.202 274.081C227.202 274.086 227.202 274.091 227.201 274.097C227.201 274.102 227.2 274.108 227.2 274.113C227.2 274.118 227.199 274.124 227.199 274.129C227.198 274.134 227.198 274.14 227.198 274.145C227.197 274.15 227.197 274.156 227.196 274.161C227.196 274.167 227.196 274.172 227.195 274.177C227.195 274.183 227.194 274.188 227.194 274.193C227.194 274.199 227.193 274.204 227.193 274.21C227.192 274.215 227.192 274.22 227.192 274.226C227.191 274.231 227.191 274.236 227.19 274.242C227.19 274.247 227.19 274.253 227.189 274.258C227.189 274.263 227.188 274.269 227.188 274.274C227.188 274.28 227.187 274.285 227.187 274.29C227.186 274.296 227.186 274.301 227.186 274.307C227.185 274.312 227.185 274.317 227.184 274.323C227.184 274.328 227.184 274.334 227.183 274.339C227.183 274.345 227.182 274.35 227.182 274.355C227.182 274.361 227.181 274.366 227.181 274.372C227.18 274.377 227.18 274.382 227.18 274.388C227.179 274.393 227.179 274.399 227.178 274.404C227.178 274.41 227.178 274.415 227.177 274.421C227.177 274.426 227.176 274.431 227.176 274.437C227.176 274.442 227.175 274.448 227.175 274.453C227.174 274.459 227.174 274.464 227.174 274.469C227.173 274.475 227.173 274.48 227.172 274.486C227.172 274.491 227.172 274.497 227.171 274.502C227.171 274.508 227.17 274.513 227.17 274.519C227.17 274.524 227.169 274.529 227.169 274.535C227.168 274.54 227.168 274.546 227.168 274.551C227.167 274.557 227.167 274.562 227.166 274.568C227.166 274.573 227.165 274.579 227.165 274.584C227.165 274.59 227.164 274.595 227.164 274.601C227.163 274.606 227.163 274.611 227.163 274.617C227.162 274.622 227.162 274.628 227.161 274.633C227.161 274.639 227.161 274.644 227.16 274.65C227.16 274.655 227.159 274.661 227.159 274.666C227.159 274.672 227.158 274.677 227.158 274.683C227.157 274.688 227.157 274.694 227.157 274.699C227.156 274.705 227.156 274.71 227.155 274.716C227.155 274.721 227.155 274.727 227.154 274.732C227.154 274.738 227.153 274.743 227.153 274.749C227.153 274.754 227.152 274.76 227.152 274.765C227.151 274.771 227.151 274.776 227.15 274.782C227.15 274.787 227.15 274.793 227.149 274.798C227.149 274.804 227.148 274.809 227.148 274.815C227.148 274.82 227.147 274.826 227.147 274.831C227.146 274.837 227.146 274.842 227.146 274.848C227.145 274.853 227.145 274.859 227.144 274.864C227.144 274.87 227.144 274.876 227.143 274.881C227.143 274.887 227.142 274.892 227.142 274.898C227.141 274.903 227.141 274.909 227.141 274.914C227.14 274.92 227.14 274.925 227.139 274.931C227.139 274.936 227.139 274.942 227.138 274.947C227.138 274.953 227.137 274.958 227.137 274.964C227.137 274.97 227.136 274.975 227.136 274.981C227.135 274.986 227.135 274.992 227.135 274.997C227.134 275.003 227.134 275.008 227.133 275.014C227.133 275.019 227.132 275.025 227.132 275.031C227.132 275.036 227.131 275.042 227.131 275.047C227.13 275.053 227.13 275.058 227.13 275.064C227.129 275.069 227.129 275.075 227.128 275.08C227.128 275.086 227.128 275.092 227.127 275.097C227.127 275.103 227.126 275.108 227.126 275.114C227.126 275.119 227.125 275.125 227.125 275.13C227.124 275.136 227.124 275.142 227.123 275.147C227.123 275.153 227.123 275.158 227.122 275.164C227.122 275.169 227.121 275.175 227.121 275.181C227.121 275.186 227.12 275.192 227.12 275.197C227.119 275.203 227.119 275.208 227.119 275.214C227.118 275.219 227.118 275.225 227.117 275.231C227.117 275.236 227.116 275.242 227.116 275.247C227.116 275.253 227.115 275.259 227.115 275.264C227.114 275.27 227.114 275.275 227.114 275.281C227.113 275.286 227.113 275.292 227.112 275.298C227.112 275.303 227.112 275.309 227.111 275.314C227.111 275.32 227.11 275.325 227.11 275.331C227.109 275.337 227.109 275.342 227.109 275.348C227.108 275.353 227.108 275.359 227.107 275.364C227.107 275.37 227.107 275.376 227.106 275.381C227.106 275.387 227.105 275.392 227.105 275.398C227.104 275.404 227.104 275.409 227.104 275.415C227.103 275.42 227.103 275.426 227.102 275.432C227.102 275.437 227.102 275.443 227.101 275.448C227.101 275.454 227.1 275.459 227.1 275.465C227.1 275.471 227.099 275.476 227.099 275.482C227.098 275.487 227.098 275.493 227.097 275.499C227.097 275.504 227.097 275.51 227.096 275.515C227.096 275.521 227.095 275.527 227.095 275.532C227.095 275.538 227.094 275.543 227.094 275.549C227.093 275.555 227.093 275.56 227.092 275.566C227.092 275.571 227.092 275.577 227.091 275.583C227.091 275.588 227.09 275.594 227.09 275.599C227.09 275.605 227.089 275.611 227.089 275.616C227.088 275.622 227.088 275.627 227.088 275.633C227.087 275.639 227.087 275.644 227.086 275.65C227.086 275.655 227.085 275.661 227.085 275.667C227.085 275.672 227.084 275.678 227.084 275.683C227.083 275.689 227.083 275.695 227.083 275.7C227.082 275.706 227.082 275.711 227.081 275.717C227.081 275.723 227.08 275.728 227.08 275.734C227.08 275.739 227.079 275.745 227.079 275.751C227.078 275.756 227.078 275.762 227.078 275.767C227.077 275.773 227.077 275.779 227.076 275.784C227.076 275.79 227.075 275.796 227.075 275.801C227.075 275.807 227.074 275.812 227.074 275.818C227.073 275.824 227.073 275.829 227.073 275.835C227.072 275.84 227.072 275.846 227.071 275.852C227.071 275.857 227.071 275.863 227.07 275.868C227.07 275.874 227.069 275.88 227.069 275.885C227.068 275.891 227.068 275.896 227.068 275.902C227.067 275.908 227.067 275.913 227.066 275.919C227.066 275.925 227.066 275.93 227.065 275.936C227.065 275.941 227.064 275.947 227.064 275.953C227.063 275.958 227.063 275.964 227.063 275.969C227.062 275.975 227.062 275.981 227.061 275.986C227.061 275.992 227.061 275.997 227.06 276.003C227.06 276.009 227.059 276.014 227.059 276.02C227.058 276.025 227.058 276.031 227.058 276.037C227.057 276.042 227.057 276.048 227.056 276.054C227.056 276.059 227.056 276.065 227.055 276.07C227.055 276.076 227.054 276.082 227.054 276.087C227.054 276.093 227.053 276.098 227.053 276.104C227.052 276.11 227.052 276.115 227.051 276.121C227.051 276.126 227.051 276.132 227.05 276.138C227.05 276.143 227.049 276.149 227.049 276.154C227.049 276.16 227.048 276.166 227.048 276.171C227.047 276.177 227.047 276.183 227.046 276.188C227.046 276.194 227.046 276.199 227.045 276.205C227.045 276.211 227.044 276.216 227.044 276.222C227.044 276.227 227.043 276.233 227.043 276.239C227.042 276.244 227.042 276.25 227.041 276.255C227.041 276.261 227.041 276.267 227.04 276.272C227.04 276.278 227.039 276.283 227.039 276.289C227.039 276.295 227.038 276.3 227.038 276.306C227.037 276.311 227.037 276.317 227.037 276.323C227.036 276.328 227.036 276.334 227.035 276.339C227.035 276.345 227.034 276.351 227.034 276.356C227.034 276.362 227.033 276.367 227.033 276.373C227.032 276.379 227.032 276.384 227.032 276.39C227.031 276.395 227.031 276.401 227.03 276.407C227.03 276.412 227.029 276.418 227.029 276.423C227.029 276.429 227.028 276.435 227.028 276.44C227.027 276.446 227.027 276.451 227.027 276.457C227.026 276.463 227.026 276.468 227.025 276.474C227.025 276.479 227.025 276.485 227.024 276.49C227.024 276.496 227.023 276.502 227.023 276.507C227.022 276.513 227.022 276.518 227.022 276.524C227.021 276.53 227.021 276.535 227.02 276.541C227.02 276.546 227.02 276.552 227.019 276.558C227.019 276.563 227.018 276.569 227.018 276.574C227.017 276.58 227.017 276.585 227.017 276.591C227.016 276.597 227.016 276.602 227.015 276.608C227.015 276.613 227.015 276.619 227.014 276.625C227.014 276.63 227.013 276.636 227.013 276.641C227.013 276.647 227.012 276.652 227.012 276.658C227.011 276.664 227.011 276.669 227.01 276.675C227.01 276.68 227.01 276.686 227.009 276.691C227.009 276.697 227.008 276.703 227.008 276.708C227.008 276.714 227.007 276.719 227.007 276.725C227.006 276.73 227.006 276.736 227.006 276.742C227.005 276.747 227.005 276.753 227.004 276.758C227.004 276.764 227.003 276.769 227.003 276.775C227.003 276.78 227.002 276.786 227.002 276.792C227.001 276.797 227.001 276.803 227.001 276.808C227 276.814 227 276.819 226.999 276.825C226.999 276.831 226.999 276.836 226.998 276.842C226.998 276.847 226.997 276.853 226.997 276.858C226.996 276.864 226.996 276.869 226.996 276.875C226.995 276.881 226.995 276.886 226.994 276.892C226.994 276.897 226.994 276.903 226.993 276.908C226.993 276.914 226.992 276.919 226.992 276.925C226.992 276.93 226.991 276.936 226.991 276.942C226.99 276.947 226.99 276.953 226.99 276.958C226.989 276.964 226.989 276.969 226.988 276.975C226.988 276.98 226.987 276.986 226.987 276.991C226.987 276.997 226.986 277.002 226.986 277.008C226.985 277.013 226.985 277.019 226.985 277.025C226.984 277.03 226.984 277.036 226.983 277.041C226.983 277.047 226.983 277.052 226.982 277.058C226.982 277.063 226.981 277.069 226.981 277.074C226.981 277.08 226.98 277.085 226.98 277.091C226.979 277.096 226.979 277.102 226.978 277.107C226.978 277.113 226.978 277.118 226.977 277.124C226.977 277.129 226.976 277.135 226.976 277.14C226.976 277.146 226.975 277.152 226.975 277.157C226.974 277.163 226.974 277.168 226.974 277.174C226.973 277.179 226.973 277.185 226.972 277.19C226.972 277.196 226.972 277.201 226.971 277.207C226.971 277.212 226.97 277.218 226.97 277.223C226.97 277.229 226.969 277.234 226.969 277.24C226.968 277.245 226.968 277.251 226.967 277.256C226.967 277.261 226.967 277.267 226.966 277.272C226.966 277.278 226.965 277.283 226.965 277.289C226.965 277.294 226.964 277.3 226.964 277.305C226.963 277.311 226.963 277.316 226.963 277.322C226.962 277.327 226.962 277.333 226.961 277.338C226.961 277.344 226.961 277.349 226.96 277.355C226.96 277.36 226.959 277.366 226.959 277.371C226.959 277.377 226.958 277.382 226.958 277.387C226.957 277.393 226.957 277.398 226.957 277.404C226.956 277.409 226.956 277.415 226.955 277.42C226.955 277.426 226.955 277.431 226.954 277.437C226.954 277.442 226.953 277.447 226.953 277.453C226.953 277.458 226.952 277.464 226.952 277.469C226.951 277.475 226.951 277.48 226.951 277.486C226.95 277.491 226.95 277.496 226.949 277.502C226.949 277.507 226.948 277.513 226.948 277.518C226.948 277.524 226.947 277.529 226.947 277.535C226.946 277.54 226.946 277.545 226.946 277.551C226.945 277.556 226.945 277.562 226.944 277.567C226.944 277.573 226.944 277.578 226.943 277.583C226.943 277.589 226.942 277.594 226.942 277.6C226.942 277.605 226.941 277.61 226.941 277.616C226.94 277.621 226.94 277.627 226.94 277.632C226.939 277.638 226.939 277.643 226.938 277.648C226.938 277.654 226.938 277.659 226.937 277.665C226.937 277.67 226.936 277.675 226.936 277.681C226.936 277.686 226.935 277.692 226.935 277.697C226.934 277.702 226.934 277.708 226.934 277.713C226.933 277.718 226.933 277.724 226.932 277.729C226.932 277.735 226.932 277.74 226.931 277.745C226.931 277.751 226.931 277.756 226.93 277.762C226.93 277.767 226.929 277.772 226.929 277.778C226.929 277.783 226.928 277.788 226.928 277.794C226.927 277.799 226.927 277.804 226.927 277.81C226.926 277.815 226.926 277.821 226.925 277.826C226.925 277.831 226.925 277.837 226.924 277.842C226.924 277.847 226.923 277.853 226.923 277.858C226.923 277.863 226.922 277.869 226.922 277.874C226.921 277.879 226.921 277.885 226.921 277.89C226.92 277.895 226.92 277.901 226.919 277.906C226.919 277.911 226.919 277.917 226.918 277.922C226.918 277.927 226.917 277.933 226.917 277.938C226.917 277.943 226.916 277.949 226.916 277.954C226.915 277.959 226.915 277.965 226.915 277.97C226.914 277.975 226.914 277.981 226.914 277.986C226.913 277.991 226.913 277.997 226.912 278.002C226.912 278.007 226.912 278.012 226.911 278.018C226.911 278.023 226.91 278.028 226.91 278.034C226.91 278.039 226.909 278.044 226.909 278.05C226.908 278.055 226.908 278.06 226.908 278.065C226.907 278.071 226.907 278.076 226.906 278.081L230.556 278.351C230.556 278.346 230.556 278.341 230.557 278.335C230.557 278.33 230.558 278.325 230.558 278.319C230.558 278.314 230.559 278.309 230.559 278.304C230.56 278.298 230.56 278.293 230.56 278.288C230.561 278.282 230.561 278.277 230.562 278.272C230.562 278.266 230.562 278.261 230.563 278.256C230.563 278.25 230.564 278.245 230.564 278.24C230.564 278.235 230.565 278.229 230.565 278.224C230.566 278.219 230.566 278.213 230.566 278.208C230.567 278.203 230.567 278.197 230.567 278.192C230.568 278.187 230.568 278.181 230.569 278.176C230.569 278.171 230.569 278.165 230.57 278.16C230.57 278.155 230.571 278.149 230.571 278.144C230.571 278.139 230.572 278.133 230.572 278.128C230.573 278.123 230.573 278.117 230.573 278.112C230.574 278.106 230.574 278.101 230.575 278.096C230.575 278.09 230.575 278.085 230.576 278.08C230.576 278.074 230.577 278.069 230.577 278.064C230.577 278.058 230.578 278.053 230.578 278.048C230.579 278.042 230.579 278.037 230.579 278.031C230.58 278.026 230.58 278.021 230.581 278.015C230.581 278.01 230.581 278.004 230.582 277.999C230.582 277.994 230.583 277.988 230.583 277.983C230.583 277.978 230.584 277.972 230.584 277.967C230.585 277.961 230.585 277.956 230.585 277.951C230.586 277.945 230.586 277.94 230.587 277.934C230.587 277.929 230.587 277.924 230.588 277.918C230.588 277.913 230.589 277.907 230.589 277.902C230.589 277.897 230.59 277.891 230.59 277.886C230.591 277.88 230.591 277.875 230.591 277.87C230.592 277.864 230.592 277.859 230.593 277.853C230.593 277.848 230.593 277.842 230.594 277.837C230.594 277.832 230.595 277.826 230.595 277.821C230.595 277.815 230.596 277.81 230.596 277.804C230.597 277.799 230.597 277.794 230.597 277.788C230.598 277.783 230.598 277.777 230.599 277.772C230.599 277.766 230.599 277.761 230.6 277.755C230.6 277.75 230.601 277.745 230.601 277.739C230.601 277.734 230.602 277.728 230.602 277.723C230.603 277.717 230.603 277.712 230.603 277.706C230.604 277.701 230.604 277.696 230.605 277.69C230.605 277.685 230.605 277.679 230.606 277.674C230.606 277.668 230.607 277.663 230.607 277.657C230.607 277.652 230.608 277.646 230.608 277.641C230.609 277.635 230.609 277.63 230.609 277.625C230.61 277.619 230.61 277.614 230.611 277.608C230.611 277.603 230.611 277.597 230.612 277.592C230.612 277.586 230.613 277.581 230.613 277.575C230.613 277.57 230.614 277.564 230.614 277.559C230.615 277.553 230.615 277.548 230.616 277.542C230.616 277.537 230.616 277.531 230.617 277.526C230.617 277.52 230.618 277.515 230.618 277.509C230.618 277.504 230.619 277.498 230.619 277.493C230.62 277.487 230.62 277.482 230.62 277.476C230.621 277.471 230.621 277.465 230.622 277.46C230.622 277.454 230.622 277.449 230.623 277.443C230.623 277.438 230.624 277.432 230.624 277.427C230.624 277.421 230.625 277.416 230.625 277.41C230.626 277.405 230.626 277.399 230.626 277.394C230.627 277.388 230.627 277.383 230.628 277.377C230.628 277.372 230.629 277.366 230.629 277.361C230.629 277.355 230.63 277.35 230.63 277.344C230.631 277.339 230.631 277.333 230.631 277.328C230.632 277.322 230.632 277.317 230.633 277.311C230.633 277.305 230.633 277.3 230.634 277.294C230.634 277.289 230.635 277.283 230.635 277.278C230.635 277.272 230.636 277.267 230.636 277.261C230.637 277.256 230.637 277.25 230.638 277.245C230.638 277.239 230.638 277.234 230.639 277.228C230.639 277.222 230.64 277.217 230.64 277.211C230.64 277.206 230.641 277.2 230.641 277.195C230.642 277.189 230.642 277.184 230.642 277.178C230.643 277.173 230.643 277.167 230.644 277.161C230.644 277.156 230.645 277.15 230.645 277.145C230.645 277.139 230.646 277.134 230.646 277.128C230.647 277.123 230.647 277.117 230.647 277.112C230.648 277.106 230.648 277.1 230.649 277.095C230.649 277.089 230.649 277.084 230.65 277.078C230.65 277.073 230.651 277.067 230.651 277.062C230.651 277.056 230.652 277.05 230.652 277.045C230.653 277.039 230.653 277.034 230.654 277.028C230.654 277.023 230.654 277.017 230.655 277.011C230.655 277.006 230.656 277 230.656 276.995C230.656 276.989 230.657 276.984 230.657 276.978C230.658 276.972 230.658 276.967 230.658 276.961C230.659 276.956 230.659 276.95 230.66 276.945C230.66 276.939 230.661 276.933 230.661 276.928C230.661 276.922 230.662 276.917 230.662 276.911C230.663 276.906 230.663 276.9 230.663 276.894C230.664 276.889 230.664 276.883 230.665 276.878C230.665 276.872 230.665 276.866 230.666 276.861C230.666 276.855 230.667 276.85 230.667 276.844C230.668 276.839 230.668 276.833 230.668 276.827C230.669 276.822 230.669 276.816 230.67 276.811C230.67 276.805 230.67 276.799 230.671 276.794C230.671 276.788 230.672 276.783 230.672 276.777C230.673 276.772 230.673 276.766 230.673 276.76C230.674 276.755 230.674 276.749 230.675 276.744C230.675 276.738 230.675 276.732 230.676 276.727C230.676 276.721 230.677 276.716 230.677 276.71C230.677 276.704 230.678 276.699 230.678 276.693C230.679 276.688 230.679 276.682 230.68 276.676C230.68 276.671 230.68 276.665 230.681 276.66C230.681 276.654 230.682 276.648 230.682 276.643C230.682 276.637 230.683 276.632 230.683 276.626C230.684 276.62 230.684 276.615 230.685 276.609C230.685 276.604 230.685 276.598 230.686 276.592C230.686 276.587 230.687 276.581 230.687 276.576C230.687 276.57 230.688 276.564 230.688 276.559C230.689 276.553 230.689 276.548 230.689 276.542C230.69 276.536 230.69 276.531 230.691 276.525C230.691 276.52 230.692 276.514 230.692 276.508C230.692 276.503 230.693 276.497 230.693 276.492C230.694 276.486 230.694 276.48 230.694 276.475C230.695 276.469 230.695 276.464 230.696 276.458C230.696 276.452 230.697 276.447 230.697 276.441C230.697 276.436 230.698 276.43 230.698 276.424C230.699 276.419 230.699 276.413 230.699 276.408C230.7 276.402 230.7 276.396 230.701 276.391C230.701 276.385 230.702 276.379 230.702 276.374C230.702 276.368 230.703 276.363 230.703 276.357C230.704 276.351 230.704 276.346 230.704 276.34C230.705 276.335 230.705 276.329 230.706 276.323C230.706 276.318 230.706 276.312 230.707 276.307C230.707 276.301 230.708 276.295 230.708 276.29C230.709 276.284 230.709 276.279 230.709 276.273C230.71 276.267 230.71 276.262 230.711 276.256C230.711 276.25 230.711 276.245 230.712 276.239C230.712 276.234 230.713 276.228 230.713 276.222C230.714 276.217 230.714 276.211 230.714 276.206C230.715 276.2 230.715 276.194 230.716 276.189C230.716 276.183 230.716 276.178 230.717 276.172C230.717 276.166 230.718 276.161 230.718 276.155C230.719 276.15 230.719 276.144 230.719 276.138C230.72 276.133 230.72 276.127 230.721 276.121C230.721 276.116 230.721 276.11 230.722 276.105C230.722 276.099 230.723 276.093 230.723 276.088C230.723 276.082 230.724 276.077 230.724 276.071C230.725 276.065 230.725 276.06 230.726 276.054C230.726 276.049 230.726 276.043 230.727 276.037C230.727 276.032 230.728 276.026 230.728 276.021C230.728 276.015 230.729 276.009 230.729 276.004C230.73 275.998 230.73 275.993 230.731 275.987C230.731 275.981 230.731 275.976 230.732 275.97C230.732 275.964 230.733 275.959 230.733 275.953C230.733 275.948 230.734 275.942 230.734 275.936C230.735 275.931 230.735 275.925 230.736 275.92C230.736 275.914 230.736 275.908 230.737 275.903C230.737 275.897 230.738 275.892 230.738 275.886C230.738 275.88 230.739 275.875 230.739 275.869C230.74 275.864 230.74 275.858 230.74 275.852C230.741 275.847 230.741 275.841 230.742 275.836C230.742 275.83 230.743 275.824 230.743 275.819C230.743 275.813 230.744 275.808 230.744 275.802C230.745 275.796 230.745 275.791 230.745 275.785C230.746 275.78 230.746 275.774 230.747 275.769C230.747 275.763 230.748 275.757 230.748 275.752C230.748 275.746 230.749 275.741 230.749 275.735C230.75 275.729 230.75 275.724 230.75 275.718C230.751 275.713 230.751 275.707 230.752 275.701C230.752 275.696 230.752 275.69 230.753 275.685C230.753 275.679 230.754 275.673 230.754 275.668C230.755 275.662 230.755 275.657 230.755 275.651C230.756 275.646 230.756 275.64 230.757 275.634C230.757 275.629 230.757 275.623 230.758 275.618C230.758 275.612 230.759 275.606 230.759 275.601C230.76 275.595 230.76 275.59 230.76 275.584C230.761 275.579 230.761 275.573 230.762 275.567C230.762 275.562 230.762 275.556 230.763 275.551C230.763 275.545 230.764 275.54 230.764 275.534C230.764 275.528 230.765 275.523 230.765 275.517C230.766 275.512 230.766 275.506 230.767 275.501C230.767 275.495 230.767 275.489 230.768 275.484C230.768 275.478 230.769 275.473 230.769 275.467C230.769 275.462 230.77 275.456 230.77 275.45C230.771 275.445 230.771 275.439 230.771 275.434C230.772 275.428 230.772 275.423 230.773 275.417C230.773 275.411 230.774 275.406 230.774 275.4C230.774 275.395 230.775 275.389 230.775 275.384C230.776 275.378 230.776 275.373 230.776 275.367C230.777 275.361 230.777 275.356 230.778 275.35C230.778 275.345 230.778 275.339 230.779 275.334C230.779 275.328 230.78 275.323 230.78 275.317C230.78 275.311 230.781 275.306 230.781 275.3C230.782 275.295 230.782 275.289 230.783 275.284C230.783 275.278 230.783 275.273 230.784 275.267C230.784 275.262 230.785 275.256 230.785 275.251C230.785 275.245 230.786 275.239 230.786 275.234C230.787 275.228 230.787 275.223 230.787 275.217C230.788 275.212 230.788 275.206 230.789 275.201C230.789 275.195 230.79 275.19 230.79 275.184C230.79 275.179 230.791 275.173 230.791 275.168C230.792 275.162 230.792 275.156 230.792 275.151C230.793 275.145 230.793 275.14 230.794 275.134C230.794 275.129 230.794 275.123 230.795 275.118C230.795 275.112 230.796 275.107 230.796 275.101C230.796 275.096 230.797 275.09 230.797 275.085C230.798 275.079 230.798 275.074 230.798 275.068C230.799 275.063 230.799 275.057 230.8 275.052C230.8 275.046 230.801 275.041 230.801 275.035C230.801 275.03 230.802 275.024 230.802 275.019C230.803 275.013 230.803 275.008 230.803 275.002C230.804 274.997 230.804 274.991 230.805 274.986C230.805 274.98 230.805 274.975 230.806 274.969C230.806 274.964 230.807 274.958 230.807 274.953C230.807 274.947 230.808 274.942 230.808 274.936C230.809 274.931 230.809 274.925 230.809 274.92C230.81 274.914 230.81 274.909 230.811 274.903C230.811 274.898 230.811 274.892 230.812 274.887C230.812 274.881 230.813 274.876 230.813 274.87C230.814 274.865 230.814 274.859 230.814 274.854C230.815 274.849 230.815 274.843 230.816 274.838C230.816 274.832 230.816 274.827 230.817 274.821C230.817 274.816 230.818 274.81 230.818 274.805C230.818 274.799 230.819 274.794 230.819 274.788C230.82 274.783 230.82 274.778 230.82 274.772C230.821 274.767 230.821 274.761 230.822 274.756C230.822 274.75 230.822 274.745 230.823 274.739C230.823 274.734 230.824 274.728 230.824 274.723C230.824 274.718 230.825 274.712 230.825 274.707C230.826 274.701 230.826 274.696 230.826 274.69C230.827 274.685 230.827 274.68 230.828 274.674C230.828 274.669 230.828 274.663 230.829 274.658C230.829 274.652 230.83 274.647 230.83 274.642C230.83 274.636 230.831 274.631 230.831 274.625C230.832 274.62 230.832 274.614 230.832 274.609C230.833 274.604 230.833 274.598 230.834 274.593C230.834 274.587 230.834 274.582 230.835 274.577C230.835 274.571 230.836 274.566 230.836 274.56C230.836 274.555 230.837 274.55 230.837 274.544C230.838 274.539 230.838 274.533 230.838 274.528C230.839 274.523 230.839 274.517 230.84 274.512C230.84 274.506 230.84 274.501 230.841 274.496C230.841 274.49 230.842 274.485 230.842 274.479C230.842 274.474 230.843 274.469 230.843 274.463C230.844 274.458 230.844 274.453 230.844 274.447C230.845 274.442 230.845 274.436 230.846 274.431C230.846 274.426 230.846 274.42 230.847 274.415C230.847 274.41 230.848 274.404 230.848 274.399C230.848 274.393 230.849 274.388 230.849 274.383C230.85 274.377 230.85 274.372 230.85 274.367C230.851 274.361 230.851 274.356 230.852 274.351C230.852 274.345 230.852 274.34 230.853 274.335C230.853 274.329 230.854 274.324 230.854 274.319C230.854 274.313 230.855 274.308 230.855 274.303C230.856 274.297 230.856 274.292 230.856 274.287C230.857 274.281 230.857 274.276 230.857 274.271C230.858 274.265 230.858 274.26 230.859 274.255C230.859 274.249 230.859 274.244 230.86 274.239C230.86 274.233 230.861 274.228 230.861 274.223C230.861 274.217 230.862 274.212 230.862 274.207C230.863 274.202 230.863 274.196 230.863 274.191C230.864 274.186 230.864 274.18 230.865 274.175C230.865 274.17 230.865 274.164 230.866 274.159C230.866 274.154 230.867 274.149 230.867 274.143C230.867 274.138 230.868 274.133 230.868 274.127C230.868 274.122 230.869 274.117 230.869 274.112C230.87 274.106 230.87 274.101 230.87 274.096C230.871 274.091 230.871 274.085 230.872 274.08C230.872 274.075 230.872 274.069 230.873 274.064C230.873 274.059 230.874 274.054 230.874 274.048C230.874 274.043 230.875 274.038 230.875 274.033C230.875 274.027 230.876 274.022 230.876 274.017C230.877 274.012 230.877 274.006 230.877 274.001C230.878 273.996 230.878 273.991 230.879 273.986C230.879 273.98 230.879 273.975 230.88 273.97C230.88 273.965 230.88 273.959 230.881 273.954C230.881 273.949 230.882 273.944 230.882 273.939C230.882 273.933 230.883 273.928 230.883 273.923C230.884 273.918 230.884 273.912 230.884 273.907C230.885 273.902 230.885 273.897 230.886 273.892C230.886 273.886 230.886 273.881 230.887 273.876C230.887 273.871 230.887 273.866 230.888 273.861C230.888 273.855 230.889 273.85 230.889 273.845C230.889 273.84 230.89 273.835 230.89 273.829C230.89 273.824 230.891 273.819 230.891 273.814C230.892 273.809 230.892 273.804 230.892 273.798C230.893 273.793 230.893 273.788 230.894 273.783C230.894 273.778 230.894 273.773 230.895 273.767C230.895 273.762 230.895 273.757 230.896 273.752C230.896 273.747 230.897 273.742 230.897 273.737C230.897 273.731 230.898 273.726 230.898 273.721C230.898 273.716 230.899 273.711 230.899 273.706C230.9 273.701 230.9 273.696 230.9 273.69C230.901 273.685 230.901 273.68 230.902 273.675C230.902 273.67 230.902 273.665 230.903 273.66C230.903 273.655 230.903 273.65 230.904 273.644C230.904 273.639 230.905 273.634 230.905 273.629C230.905 273.624 230.906 273.619 230.906 273.614C230.906 273.609 230.907 273.604 230.907 273.599C230.908 273.594 230.908 273.588 230.908 273.583C230.909 273.578 230.909 273.573 230.909 273.568C230.91 273.563 230.91 273.558 230.911 273.553C230.911 273.548 230.911 273.543 230.912 273.538C230.912 273.533 230.912 273.528 230.913 273.523C230.913 273.518 230.914 273.513 230.914 273.508C230.914 273.503 230.915 273.497 230.915 273.492C230.915 273.487 230.916 273.482 230.916 273.477C230.917 273.472 230.917 273.467 230.917 273.462C230.918 273.457 230.918 273.452 230.918 273.447C230.919 273.442 230.919 273.437 230.919 273.432C230.92 273.427 230.92 273.422 230.921 273.417C230.921 273.412 230.921 273.407 230.922 273.402C230.922 273.397 230.922 273.392 230.923 273.387C230.923 273.382 230.924 273.377 230.924 273.372C230.924 273.367 230.925 273.362 230.925 273.357C230.925 273.352 230.926 273.347 230.926 273.342C230.926 273.337 230.927 273.333 230.927 273.328C230.928 273.323 230.928 273.318 230.928 273.313C230.929 273.308 230.929 273.303 230.929 273.298C230.93 273.293 230.93 273.288 230.931 273.283C230.931 273.278 230.931 273.273 230.932 273.268C230.932 273.263 230.932 273.258 230.933 273.253C230.933 273.249 230.933 273.244 230.934 273.239C230.934 273.234 230.935 273.229 230.935 273.224C230.935 273.219 230.936 273.214 230.936 273.209C230.936 273.204 230.937 273.2 230.937 273.195C230.937 273.19 230.938 273.185 230.938 273.18C230.938 273.175 230.939 273.17 230.939 273.165C230.94 273.16 230.94 273.156 230.94 273.151C230.941 273.146 230.941 273.141 230.941 273.136C230.942 273.131 230.942 273.126 230.942 273.122C230.943 273.117 230.943 273.112 230.944 273.107C230.944 273.102 230.944 273.097 230.945 273.092C230.945 273.088 230.945 273.083 230.946 273.078C230.946 273.073 230.946 273.068 230.947 273.064C230.947 273.059 230.947 273.054 230.948 273.049C230.948 273.044 230.949 273.039 230.949 273.035C230.949 273.03 230.95 273.025 230.95 273.02C230.95 273.015 230.951 273.011 230.951 273.006C230.951 273.001 230.952 272.996 230.952 272.992C230.952 272.987 230.953 272.982 230.953 272.977C230.953 272.972 230.954 272.968 230.954 272.963C230.955 272.958 230.955 272.953 230.955 272.949C230.956 272.944 230.956 272.939 230.956 272.934C230.957 272.93 230.957 272.925 230.957 272.92C230.958 272.915 230.958 272.911 230.958 272.906C230.959 272.901 230.959 272.896 230.959 272.892C230.96 272.887 230.96 272.882 230.96 272.878C230.961 272.873 230.961 272.868 230.962 272.863C230.962 272.859 230.962 272.854 230.963 272.849C230.963 272.845 230.963 272.84 230.964 272.835C230.964 272.831 230.964 272.826 230.965 272.821C230.965 272.817 230.965 272.812 230.966 272.807C230.966 272.803 230.966 272.798 230.967 272.793C230.967 272.789 230.967 272.784 230.968 272.779C230.968 272.775 230.968 272.77 230.969 272.765C230.969 272.761 230.969 272.756 230.97 272.751C230.97 272.747 230.971 272.742 230.971 272.738C230.971 272.733 230.972 272.728 230.972 272.724C230.972 272.719 230.973 272.714 230.973 272.71C230.973 272.705 230.974 272.701 230.974 272.696C230.974 272.691 230.975 272.687 230.975 272.682C230.975 272.678 230.976 272.673 230.976 272.668C230.976 272.664 230.977 272.659 230.977 272.655C230.977 272.65 230.978 272.646 230.978 272.641C230.978 272.636 230.979 272.632 230.979 272.627C230.979 272.623 230.98 272.618 230.98 272.614C230.98 272.609 230.981 272.605 230.981 272.6C230.981 272.596 230.982 272.591 230.982 272.587C230.982 272.582 230.983 272.577 230.983 272.573C230.983 272.568 230.984 272.564 230.984 272.559C230.984 272.555 230.985 272.55 230.985 272.546C230.985 272.541 230.986 272.537 230.986 272.532C230.986 272.528 230.987 272.523 230.987 272.519C230.987 272.515 230.988 272.51 230.988 272.506C230.988 272.501 230.989 272.497 230.989 272.492C230.989 272.488 230.99 272.483 230.99 272.479C230.99 272.474 230.991 272.47 230.991 272.465C230.991 272.461 230.992 272.457 230.992 272.452C230.992 272.448 230.993 272.443 230.993 272.439C230.993 272.434 230.994 272.43 230.994 272.426C230.994 272.421 230.995 272.417 230.995 272.412C230.995 272.408 230.996 272.404 230.996 272.399C230.996 272.395 230.997 272.39 230.997 272.386C230.997 272.382 230.997 272.377 230.998 272.373C230.998 272.369 230.998 272.364 230.999 272.36C230.999 272.355 230.999 272.351 231 272.347C231 272.342 231 272.338 231.001 272.334C231.001 272.329 231.001 272.325 231.002 272.321C231.002 272.316 231.002 272.312 231.003 272.308C231.003 272.303 231.003 272.299 231.004 272.295C231.004 272.291 231.004 272.286 231.005 272.282C231.005 272.278 231.005 272.273 231.006 272.269C231.006 272.265 231.006 272.26 231.006 272.256C231.007 272.252 231.007 272.248 231.007 272.243C231.008 272.239 231.008 272.235 231.008 272.231C231.009 272.226 231.009 272.222 231.009 272.218C231.01 272.214 231.01 272.209 231.01 272.205C231.011 272.201 231.011 272.197 231.011 272.192C231.011 272.188 231.012 272.184 231.012 272.18C231.012 272.175 231.013 272.171 231.013 272.167C231.013 272.163 231.014 272.159 231.014 272.154C231.014 272.15 231.015 272.146 231.015 272.142C231.015 272.138 231.016 272.134 231.016 272.129C231.016 272.125 231.016 272.121 231.017 272.117C231.017 272.113 231.017 272.109 231.018 272.104C231.018 272.1 231.018 272.096 231.019 272.092C231.019 272.088 231.019 272.084 231.02 272.08C231.02 272.075 231.02 272.071 231.02 272.067C231.021 272.063 231.021 272.059 231.021 272.055C231.022 272.051 231.022 272.047 231.022 272.043C231.023 272.038 231.023 272.034 231.023 272.03C231.023 272.026 231.024 272.022 231.024 272.018C231.024 272.014 231.025 272.01 231.025 272.006C231.025 272.002 231.026 271.998 231.026 271.994C231.026 271.99 231.026 271.986 231.027 271.981C231.027 271.977 231.027 271.973 231.028 271.969C231.028 271.965 231.028 271.961 231.029 271.957C231.029 271.953 231.029 271.949 231.029 271.945C231.03 271.941 231.03 271.937 231.03 271.933C231.031 271.929 231.031 271.925 231.031 271.921C231.032 271.917 231.032 271.913 231.032 271.909C231.032 271.905 231.033 271.901 231.033 271.897C231.033 271.893 231.034 271.889 231.034 271.886C231.034 271.882 231.034 271.878 231.035 271.874C231.035 271.87 231.035 271.866 231.036 271.862C231.036 271.858 231.036 271.854 231.036 271.85C231.037 271.846 231.037 271.842 231.037 271.838C231.038 271.835 231.038 271.831 231.038 271.827C231.039 271.823 231.039 271.819 231.039 271.815C231.039 271.811 231.04 271.807 231.04 271.803C231.04 271.8 231.041 271.796 231.041 271.792C231.041 271.788 231.041 271.784 231.042 271.78C231.042 271.776 231.042 271.773 231.042 271.769C231.043 271.765 231.043 271.761 231.043 271.757C231.044 271.753 231.044 271.75 231.044 271.746C231.044 271.742 231.045 271.738 231.045 271.734C231.045 271.731 231.046 271.727 231.046 271.723C231.046 271.719 231.046 271.716 231.047 271.712C231.047 271.708 231.047 271.704 231.048 271.7C231.048 271.697 231.048 271.693 231.048 271.689C231.049 271.685 231.049 271.682 231.049 271.678C231.049 271.674 231.05 271.67 231.05 271.667C231.05 271.663 231.051 271.659 231.051 271.656C231.051 271.652 231.051 271.648 231.052 271.644C231.052 271.641 231.052 271.637 231.053 271.633C231.053 271.63 231.053 271.626 231.053 271.622C231.054 271.619 231.054 271.615 231.054 271.611C231.054 271.608 231.055 271.604 231.055 271.6C231.055 271.597 231.055 271.593 231.056 271.589C231.056 271.586 231.056 271.582 231.057 271.579C231.057 271.575 231.057 271.571 231.057 271.568C231.058 271.564 231.058 271.561 231.058 271.557C231.058 271.553 231.059 271.55 231.059 271.546C231.059 271.543 231.059 271.539 231.06 271.535C231.06 271.532 231.06 271.528 231.061 271.525C231.061 271.521 231.061 271.518 231.061 271.514C231.062 271.51 231.062 271.507 231.062 271.503C231.062 271.5 231.063 271.496 231.063 271.493C231.063 271.489 231.063 271.486 231.064 271.482C231.064 271.479 231.064 271.475 231.064 271.472C231.065 271.468 231.065 271.465 231.065 271.461C231.065 271.458 231.066 271.454 231.066 271.451C231.066 271.447 231.067 271.444 231.067 271.44C231.067 271.437 231.067 271.434 231.068 271.43C231.068 271.427 231.068 271.423 231.068 271.42C231.069 271.416 231.069 271.413 231.069 271.41C231.069 271.406 231.07 271.403 231.07 271.399C231.07 271.396 231.07 271.393 231.071 271.389C231.071 271.386 231.071 271.382 231.071 271.379C231.072 271.376 231.072 271.372 231.072 271.369C231.072 271.366 231.073 271.362 231.073 271.359C231.073 271.355 231.073 271.352 231.074 271.349C231.074 271.345 231.074 271.342 231.074 271.339C231.075 271.335 231.075 271.332 231.075 271.329C231.075 271.326 231.076 271.322 231.076 271.319C231.076 271.316 231.076 271.312 231.076 271.309C231.077 271.306 231.077 271.303 231.077 271.299C231.077 271.296 231.078 271.293 231.078 271.289C231.078 271.286 231.078 271.283 231.079 271.28C231.079 271.277 231.079 271.273 231.079 271.27C231.08 271.267 231.08 271.264 231.08 271.26C231.08 271.257 231.081 271.254 231.081 271.251C231.081 271.248 231.081 271.244 231.082 271.241C231.082 271.238 231.082 271.235 231.082 271.232C231.082 271.229 231.083 271.225 231.083 271.222C231.083 271.219 231.083 271.216 231.084 271.213C231.084 271.21 231.084 271.206 231.084 271.203C231.085 271.2 231.085 271.197 231.085 271.194C231.085 271.191 231.085 271.188 231.086 271.185C231.086 271.182 231.086 271.178 231.086 271.175C231.087 271.172 231.087 271.169 231.087 271.166C231.087 271.163 231.088 271.16 231.088 271.157C231.088 271.154 231.088 271.151 231.088 271.148C231.089 271.145 231.089 271.142 231.089 271.139C231.089 271.136 231.09 271.133 231.09 271.13C231.09 271.127 231.09 271.124 231.09 271.121C231.091 271.118 231.091 271.115 231.091 271.112C231.091 271.109 231.092 271.106 231.092 271.103C231.092 271.1 231.092 271.097 231.092 271.094C231.093 271.091 231.093 271.088 231.093 271.085C231.093 271.082 231.094 271.079 231.094 271.076C231.094 271.073 231.094 271.07 231.094 271.067C231.095 271.064 231.095 271.062 231.095 271.059C231.095 271.056 231.095 271.053 231.096 271.05C231.096 271.047 231.096 271.044 231.096 271.041C231.097 271.039 231.097 271.036 231.097 271.033C231.097 271.03 231.097 271.027 231.098 271.024C231.098 271.021 231.098 271.019 231.098 271.016C231.098 271.013 231.099 271.01 231.099 271.007C231.099 271.005 231.099 271.002 231.099 270.999C231.1 270.996 231.1 270.993 231.1 270.991C231.1 270.988 231.1 270.985 231.101 270.982C231.101 270.98 231.101 270.977 231.101 270.974C231.101 270.971 231.102 270.969 231.102 270.966C231.102 270.963 231.102 270.96 231.102 270.958C231.103 270.955 231.103 270.952 231.103 270.949C231.103 270.947 231.103 270.944 231.104 270.941C231.104 270.939 231.104 270.936 231.104 270.933C231.104 270.931 231.105 270.928 231.105 270.925C231.105 270.923 231.105 270.92 231.105 270.917L227.456 270.648ZM226.906 278.081C226.765 279.993 227.004 281.95 228.397 283.566C229.734 285.116 231.862 286.026 234.679 286.592L235.399 283.004C232.86 282.494 231.709 281.803 231.168 281.176C230.684 280.615 230.447 279.818 230.556 278.351L226.906 278.081ZM234.679 286.592C236.184 286.894 239.923 287.189 244.813 287.394C249.767 287.602 256.056 287.724 262.762 287.649C276.108 287.502 291.34 286.578 300.951 283.926L299.978 280.399C290.872 282.911 276.069 283.843 262.721 283.99C256.08 284.064 249.857 283.944 244.966 283.738C240.011 283.53 236.572 283.24 235.399 283.004L234.679 286.592ZM300.951 283.926C305.796 282.589 309.448 281.231 311.659 279.509C312.805 278.617 313.693 277.53 314.075 276.179C314.46 274.818 314.26 273.446 313.719 272.13L310.334 273.52C310.657 274.306 310.657 274.818 310.554 275.183C310.448 275.559 310.157 276.041 309.411 276.622C307.837 277.848 304.844 279.056 299.978 280.399L300.951 283.926ZM313.778 272.296L311.049 263.261L307.546 264.319L310.275 273.354L313.778 272.296ZM319.556 332.785C319.785 326.557 319.293 316.636 317.785 306.49C316.281 296.381 313.738 285.828 309.757 278.463L306.538 280.203C310.209 286.994 312.679 297.034 314.165 307.029C315.646 316.987 316.119 326.68 315.899 332.65L319.556 332.785ZM234.857 344.036C234.32 339.181 233.473 328.396 233.185 316.76C232.895 305.08 233.176 292.732 234.831 284.655L231.246 283.92C229.499 292.443 229.237 305.16 229.526 316.85C229.817 328.584 230.671 339.474 231.22 344.438L234.857 344.036ZM276.894 310.896C278.946 319.003 279.619 327.377 279.619 337.153L283.279 337.153C283.279 327.216 282.596 318.51 280.441 309.998L276.894 310.896Z" fill="#0071B3"/>
<path d="M440.834 206.148C441.851 203.936 444.753 203.395 446.504 205.092L448.434 206.961C448.789 207.305 449.355 207.297 449.699 206.943C450.043 206.588 450.034 206.023 449.679 205.679L447.75 203.81C445.112 201.254 440.74 202.069 439.208 205.401L439.128 205.575C438.114 207.78 435.179 208.243 433.53 206.458C431.015 203.735 426.538 204.441 424.992 207.805C423.978 210.01 421.043 210.473 419.394 208.688C416.879 205.965 412.403 206.671 410.856 210.035C409.842 212.24 406.907 212.703 405.258 210.918C402.743 208.195 398.267 208.901 396.72 212.265C395.706 214.47 392.771 214.933 391.122 213.148C388.607 210.425 384.131 211.131 382.584 214.494L382.504 214.668C381.487 216.881 378.584 217.421 376.833 215.725L374.904 213.856C374.549 213.512 373.983 213.52 373.639 213.874C373.295 214.228 373.304 214.794 373.659 215.138L375.588 217.007C378.226 219.562 382.598 218.748 384.13 215.416L384.21 215.242C385.224 213.036 388.159 212.574 389.808 214.359C392.323 217.082 396.799 216.375 398.346 213.012C399.36 210.807 402.295 210.344 403.944 212.129C406.459 214.852 410.935 214.146 412.482 210.782C413.496 208.577 416.431 208.114 418.08 209.899C420.595 212.622 425.071 211.916 426.618 208.552C427.632 206.347 430.567 205.884 432.216 207.669C434.731 210.392 439.207 209.686 440.754 206.322L440.834 206.148Z" fill="#0071B3"/>
<path d="M127.985 251.191C128.281 248.774 130.882 247.376 133.066 248.46L135.472 249.654C135.915 249.874 136.452 249.694 136.672 249.252C136.892 248.81 136.711 248.274 136.269 248.054L133.862 246.86C130.573 245.227 126.655 247.333 126.208 250.973L126.185 251.163C125.89 253.572 123.234 254.905 121.121 253.706C117.897 251.877 113.847 253.91 113.396 257.585C113.101 259.994 110.446 261.327 108.332 260.128C105.108 258.299 101.058 260.332 100.608 264.007C100.312 266.416 97.6568 267.749 95.5432 266.55C92.3194 264.721 88.2695 266.754 87.8187 270.429C87.5231 272.838 84.868 274.171 82.7544 272.972C79.5305 271.142 75.4807 273.176 75.0299 276.851L75.0066 277.041C74.7101 279.457 72.1093 280.855 69.9254 279.771L67.5189 278.577C67.0764 278.357 66.5394 278.537 66.3195 278.979C66.0996 279.421 66.2801 279.957 66.7226 280.177L69.129 281.371C72.4186 283.004 76.3362 280.899 76.7828 277.258L76.8061 277.068C77.1017 274.659 79.7568 273.326 81.8704 274.525C85.0943 276.354 89.1441 274.321 89.5949 270.646C89.8905 268.237 92.5456 266.904 94.6592 268.103C97.8831 269.933 101.933 267.899 102.384 264.224C102.679 261.815 105.334 260.482 107.448 261.681C110.672 263.511 114.722 261.477 115.173 257.802C115.468 255.393 118.123 254.06 120.237 255.259C123.461 257.089 127.511 255.055 127.961 251.381L127.985 251.191Z" fill="#56B9F2"/>
<path d="M272.488 9.78147C270.835 7.99397 271.448 5.10581 273.686 4.13884L276.152 3.07335C276.606 2.87741 276.815 2.35113 276.62 1.89788C276.425 1.44462 275.899 1.23601 275.445 1.43195L272.979 2.49744C269.608 3.95396 268.684 8.30437 271.175 10.9969L271.305 11.1374C272.953 12.9193 272.255 15.8073 269.975 16.6461C266.496 17.9254 265.432 22.3305 267.946 25.0483C269.594 26.8301 268.896 29.7182 266.616 30.5569C263.137 31.8362 262.073 36.2414 264.587 38.9592C266.235 40.741 265.538 43.6291 263.257 44.4678C259.778 45.7471 258.714 50.1522 261.228 52.8701C262.876 54.6519 262.179 57.54 259.898 58.3787C256.419 59.658 255.355 64.0631 257.869 66.7809L257.999 66.9215C259.652 68.709 259.039 71.5972 256.801 72.5641L254.335 73.6296C253.881 73.8256 253.672 74.3518 253.867 74.8051C254.062 75.2584 254.588 75.467 255.042 75.271L257.508 74.2055C260.879 72.749 261.803 68.3986 259.312 65.7061L259.182 65.5655C257.534 63.7837 258.232 60.8956 260.513 60.0569C263.992 58.7776 265.055 54.3725 262.541 51.6547C260.893 49.8728 261.591 46.9848 263.871 46.146C267.35 44.8667 268.414 40.4616 265.9 37.7438C264.252 35.962 264.95 33.0739 267.23 32.2352C270.709 30.9559 271.773 26.5507 269.259 23.8329C267.611 22.0511 268.308 19.163 270.589 18.3243C274.068 17.045 275.132 12.6399 272.618 9.92205L272.488 9.78147Z" fill="#0071B3"/>
<path d="M315.775 222.141L303.986 225.346L296.099 194.186C304.929 199.732 312.896 215.134 315.775 222.141Z" fill="#0071B3"/>
<path d="M246.424 237.928C234.631 243.035 220.904 243.062 215.514 242.437C214.412 232.842 215.16 210.475 226.972 197.759C238.784 185.043 261.627 182.429 271.572 182.711C271.933 192.522 277.233 222.54 279.838 236.322C273.572 238.35 259.39 242.692 252.782 243.834C246.175 244.976 245.79 240.372 246.424 237.928Z" fill="#0071B3"/>
<path d="M228.5 280C227.7 278 228.833 273.833 229.5 272C242 276 255.5 269 262 266C267.2 263.6 280.167 255.667 286 252C287.667 254.333 292.2 259.9 297 263.5C301.8 267.1 307.333 265.333 309.5 264L312 272C312.167 273.333 312.2 276.3 311 277.5C309.5 279 300 283 287 284.5C274 286 245.5 285 237 285C228.5 285 229.5 282.5 228.5 280Z" fill="#0071B3"/>
<circle cx="411.927" cy="285.961" r="6.77632" fill="#56B9F2"/>
<circle cx="115.16" cy="69.6058" r="6.77632" transform="rotate(20.64 115.16 69.6058)" fill="#56B9F2"/>
<circle cx="311.755" cy="111.947" r="8.80921" fill="#56B9F2"/>
<circle cx="149.681" cy="145.693" r="8.80921" fill="#56B9F2"/>
<circle cx="130.709" cy="194.482" r="4.74342" fill="#56B9F2"/>
<circle cx="199.149" cy="166.7" r="18.9737" stroke="#56B9F2" stroke-width="3.65921"/>
<path d="M130.03 193.804C121.22 187.705 114.385 175.507 118.51 161.955C122.635 148.402 135.451 142.981 149.681 145.014C163.911 147.047 165.598 157.377 180.175 163.718M352.293 123.33C312.99 96.2246 289.304 120.434 279.109 128.751C275.7 131.532 272.866 133.576 269.622 136.205M218.41 165.343C226.683 163.506 234.11 160.502 241.161 156.647" stroke="#56B9F2" stroke-width="3.65921" stroke-linecap="round"/>
<circle cx="374.657" cy="136.204" r="25.0724" stroke="#56B9F2" stroke-width="3.65921"/>
<path d="M362.754 136.144L370.82 145.206C374.951 138.177 378.161 133.91 385.793 127.335" stroke="#56B9F2" stroke-width="3.65921" stroke-linecap="round"/>
<path d="M195.115 162.546C194.929 160.961 195.451 157.687 199.03 157.265C203.939 156.685 205.616 161.2 203.939 163.312C202.261 165.425 199.17 167.581 199.03 169.411" stroke="#56B9F2" stroke-width="3.65921" stroke-linecap="round"/>
<path d="M199.148 174.832L199.148 176.188" stroke="#56B9F2" stroke-width="3.65921" stroke-linecap="round"/>
<circle cx="158.761" cy="84.5813" r="4.06579" transform="rotate(20.64 158.761 84.5813)" stroke="#0071B3" stroke-width="2.03289"/>
<circle cx="369.916" cy="258.857" r="4.06579" stroke="#0071B3" stroke-width="2.03289"/>
<path d="M179.851 245.092C179.641 244.603 179.338 244.159 178.959 243.787C178.579 243.413 178.132 243.116 177.641 242.912C177.132 242.7 176.586 242.591 176.034 242.592C175.261 242.592 174.506 242.805 173.851 243.207C173.694 243.303 173.545 243.409 173.404 243.524C173.262 243.409 173.113 243.303 172.956 243.207C172.301 242.805 171.546 242.592 170.773 242.592C170.216 242.592 169.676 242.699 169.166 242.912C168.674 243.117 168.23 243.412 167.849 243.787C167.469 244.159 167.166 244.602 166.956 245.092C166.738 245.601 166.626 246.141 166.626 246.698C166.626 247.223 166.733 247.77 166.945 248.326C167.122 248.791 167.376 249.273 167.701 249.76C168.216 250.531 168.923 251.335 169.802 252.149C171.257 253.5 172.699 254.433 172.76 254.471L173.132 254.71C173.297 254.816 173.509 254.816 173.673 254.71L174.045 254.471C174.106 254.431 175.546 253.5 177.004 252.149C177.882 251.335 178.59 250.531 179.104 249.76C179.429 249.273 179.685 248.791 179.861 248.326C180.072 247.77 180.179 247.223 180.179 246.698C180.181 246.141 180.069 245.601 179.851 245.092V245.092Z" stroke="#0071B3" stroke-width="2.03289"/>
<path d="M326.316 58.5884C326.169 58.2623 325.957 57.9668 325.691 57.7184C325.426 57.4693 325.113 57.2714 324.769 57.1353C324.413 56.9937 324.03 56.9212 323.645 56.922C323.103 56.922 322.575 57.0639 322.116 57.3318C322.006 57.3959 321.902 57.4663 321.803 57.543C321.704 57.4663 321.6 57.3959 321.49 57.3318C321.031 57.0639 320.503 56.922 319.961 56.922C319.572 56.922 319.194 56.9935 318.837 57.1353C318.492 57.2719 318.181 57.4684 317.914 57.7184C317.649 57.9665 317.436 58.2621 317.29 58.5884C317.137 58.9278 317.059 59.2882 317.059 59.6591C317.059 60.009 317.134 60.3735 317.282 60.7444C317.406 61.0544 317.584 61.3759 317.811 61.7006C318.171 62.2144 318.667 62.7502 319.282 63.2934C320.301 64.1939 321.31 64.8159 321.353 64.8411L321.613 65.0008C321.728 65.0712 321.876 65.0712 321.992 65.0008L322.252 64.8411C322.295 64.8148 323.303 64.1939 324.323 63.2934C324.938 62.7502 325.433 62.2144 325.794 61.7006C326.021 61.3759 326.2 61.0544 326.323 60.7444C326.471 60.3735 326.546 60.009 326.546 59.6591C326.547 59.2882 326.469 58.9278 326.316 58.5884V58.5884Z" stroke="#56B9F2" stroke-width="2.03289"/>
<path fill-rule="evenodd" clip-rule="evenodd" d="M261.91 168.067C256.87 169.477 251.736 168.758 247.466 166.448C242.995 164.029 239.471 159.867 237.992 154.581C236.546 149.413 237.328 144.15 239.762 139.817L239.804 139.743C241.323 136.811 244.297 133.361 248.213 130.263C255.32 124.643 262.837 122.311 265.002 125.055C266.066 126.403 265.641 128.725 264.091 131.405C268.707 133.324 272.548 137.005 274.571 141.859C276.835 142.048 278.761 143.4 279.332 145.441C280.014 147.88 278.532 150.482 275.947 151.656C275.048 159.235 269.706 165.886 261.91 168.067ZM274.528 148.526L272.768 149.325L272.54 151.248C271.798 157.493 267.396 162.963 260.984 164.757C257.138 165.833 253.225 165.403 249.874 163.819C251.53 161.814 252.957 159.632 254.129 157.318C253.35 156.951 252.596 156.41 251.935 155.707C249.73 153.363 249.388 150.099 251.17 148.419C252.649 147.024 255.126 147.157 257.186 148.582C257.844 145.396 258.064 142.09 257.796 138.749C259.455 137.286 260.899 135.778 262.079 134.307C266.188 135.794 269.639 138.944 271.405 143.18L272.209 145.109L274.289 145.283C275.443 145.38 275.923 145.993 276.027 146.365C276.145 146.787 275.965 147.874 274.528 148.526Z" fill="#0071B3"/>
</g>
<defs>
<clipPath id="clip0_1340_13585">
<rect width="451" height="422" fill="white"/>
</clipPath>
</defs>
</svg>
