<svg width="451" height="422" viewBox="0 0 451 422" fill="none" xmlns="http://www.w3.org/2000/svg">
<g clip-path="url(#clip0_1377_10126)">
<path opacity="0.1" fill-rule="evenodd" clip-rule="evenodd" d="M323.912 14.155C265.722 2.94103 230.068 75.8851 175.988 100.197C133.522 119.289 77.3886 103.046 47.2309 138.541C12.3692 179.572 -1.36571 238.942 14.3829 290.404C30.3008 342.419 76.4001 379.938 127.107 399.55C173.202 417.378 222.742 405.462 269.382 389.03C314.481 373.141 354.132 348.315 382.294 309.644C416.797 262.267 453.701 209.003 442.345 151.528C430.156 89.838 385.623 26.0476 323.912 14.155Z" fill="#56B9F2"/>
<mask id="mask0_1377_10126" style="mask-type:alpha" maskUnits="userSpaceOnUse" x="239" y="78" width="146" height="164">
<path d="M252.199 242V212C283.199 194 302.199 154.5 303.699 148.5C305.199 142.5 300.699 140 294.699 143.5C289.899 146.3 284.532 152.833 282.199 156H261.199H239.199V78H384.699V242H252.199Z" fill="#D9D9D9"/>
</mask>
<g mask="url(#mask0_1377_10126)">
<rect x="260.199" y="87" width="91" height="26" rx="8" stroke="#56B9F2" stroke-width="3.65921" stroke-linecap="round"/>
<rect x="247.199" y="122" width="117" height="32" rx="8" fill="#0071B3" stroke="#0071B3" stroke-width="3.65921" stroke-linecap="round"/>
<line x1="268.199" y1="135" x2="311.199" y2="135" stroke="white" stroke-opacity="0.9" stroke-width="2" stroke-linecap="round"/>
<line x1="268.199" y1="141" x2="289.199" y2="141" stroke="white" stroke-opacity="0.9" stroke-width="2" stroke-linecap="round"/>
<rect x="260.199" y="163" width="91" height="26" rx="8" stroke="#56B9F2" stroke-width="3.65921" stroke-linecap="round"/>
<rect x="260.199" y="201" width="91" height="26" rx="8" stroke="#56B9F2" stroke-width="3.65921" stroke-linecap="round"/>
<circle cx="332.699" cy="138.5" r="9.5" stroke="white" stroke-opacity="0.9" stroke-width="2"/>
<path d="M328.636 138.356L331.621 141.709C333.15 139.108 334.338 137.529 337.162 135.096" stroke="white" stroke-opacity="0.9" stroke-width="2" stroke-linecap="round"/>
</g>
<path d="M223 287C226 297.831 231.266 325.323 229.723 343" stroke="#0071B3" stroke-width="3.65921" stroke-linecap="round"/>
<path d="M133.204 344.286C130.093 334.868 130.084 304.859 136.133 285.736" stroke="#0071B3" stroke-width="3.65921" stroke-linecap="round"/>
<path d="M175.816 317.045C175.107 322.538 174.284 335.85 176.915 343.155" stroke="#0071B3" stroke-width="3.65921" stroke-linecap="round"/>
<path d="M188.549 185.854C165.998 182.696 149.388 188.673 136.117 207.842C124.206 225.05 127.925 260.73 131.529 279.002C132.199 282.397 134.894 284.992 138.294 285.634C177.815 293.097 209.294 289.502 224.04 285.82C226.732 285.148 228.407 282.571 228.167 279.806L224.066 232.65C224.066 232.65 262.321 217.991 296.229 163.865C302.234 154.28 308.069 142.338 300.176 140.185C293.974 138.494 287.397 148.83 283.263 153.716L276.497 153.716C276.497 153.716 267.622 165.333 252.819 177.96C233.65 194.311 216.737 189.8 188.549 185.854Z" stroke="#0071B3" stroke-width="3.65921"/>
<path d="M253 215.415C253 201.386 243.897 189.96 239.345 186C234.983 187.886 221.594 191.091 202.933 188.828C179.606 186 165.951 183.172 146.607 195.051C127.263 206.93 127.263 253.88 128.401 265.759C129.539 277.638 129.539 281.032 138.642 286.123C147.745 291.214 194.399 290.529 214.881 288.385C225.691 287.254 229.104 283.294 229.104 277.638C229.104 273.112 227.208 246.338 226.26 233.516C236.273 228.538 248.259 219.374 253 215.415Z" fill="#0071B3"/>
<path fill-rule="evenodd" clip-rule="evenodd" d="M183.11 172.723C177.897 173.185 172.982 171.537 169.208 168.483C165.256 165.286 162.555 160.548 162.07 155.08C161.596 149.735 163.33 144.704 166.516 140.892L166.571 140.827C168.602 138.222 172.159 135.376 176.576 133.049C184.593 128.827 192.41 127.913 194.035 131.007C194.834 132.527 193.99 134.732 191.975 137.082C196.162 139.815 199.263 144.138 200.362 149.28C202.553 149.881 204.198 151.563 204.385 153.675C204.608 156.198 202.674 158.484 199.918 159.164C197.645 166.449 191.173 172.008 183.11 172.723ZM199.097 155.827L197.22 156.29L196.643 158.138C194.77 164.141 189.438 168.712 182.807 169.3C178.828 169.653 175.061 168.512 172.057 166.34C174.053 164.673 175.855 162.79 177.432 160.73C176.733 160.226 176.091 159.556 175.57 158.744C173.833 156.035 174.094 152.764 176.154 151.439C177.864 150.339 180.274 150.924 182.038 152.702C183.27 149.692 184.092 146.481 184.44 143.148C186.34 142.014 188.036 140.796 189.465 139.566C193.233 141.781 196.047 145.511 197.006 149.999L197.443 152.043L199.456 152.595C200.573 152.901 200.933 153.593 200.967 153.978C201.005 154.414 200.629 155.449 199.097 155.827Z" fill="#0071B3"/>
<path d="M405.659 64.4255L412.049 61.9336C412.508 61.7544 412.736 61.2363 412.557 60.7766C412.377 60.317 411.859 60.0897 411.4 60.269L405.01 62.7608C401.507 64.1268 399.271 67.5804 399.458 71.3346C399.607 74.3207 397.829 77.0677 395.043 78.1541L388.653 80.646C388.193 80.8253 387.966 81.3433 388.145 81.803C388.324 82.2627 388.842 82.49 389.302 82.3107L395.692 79.8188C399.195 78.4529 401.431 74.9993 401.243 71.245C401.094 68.259 402.872 65.512 405.659 64.4255Z" fill="#56B9F2"/>
<path d="M68.4873 262.563L61.6498 263.103C61.1578 263.141 60.7905 263.572 60.8293 264.063C60.8681 264.555 61.2984 264.923 61.7904 264.884L68.6278 264.344C72.3758 264.048 75.5142 261.387 76.4189 257.739C77.1386 254.837 79.6348 252.721 82.616 252.486L89.4534 251.946C89.9454 251.907 90.3128 251.477 90.274 250.985C90.2352 250.493 89.8049 250.126 89.3129 250.164L82.4755 250.704C78.7274 251 75.5891 253.661 74.6843 257.309C73.9646 260.211 71.4684 262.327 68.4873 262.563Z" fill="#0071B3"/>
<path d="M153.368 109.24L154.5 116.005C154.582 116.492 155.042 116.82 155.529 116.739C156.015 116.658 156.344 116.197 156.262 115.71L155.13 108.946C154.51 105.238 151.586 102.342 147.873 101.758C144.92 101.293 142.594 98.9906 142.101 96.0412L140.969 89.2765C140.887 88.7898 140.427 88.4612 139.94 88.5426C139.453 88.624 139.125 89.0846 139.206 89.5713L140.339 96.336C140.959 100.044 143.882 102.939 147.596 103.524C150.549 103.988 152.874 106.291 153.368 109.24Z" fill="#56B9F2"/>
<path d="M53.0036 109.874C50.694 110.645 48.3143 108.897 48.3544 106.459L48.3986 103.773C48.4067 103.279 48.0133 102.872 47.5199 102.863C47.0264 102.854 46.6198 103.248 46.6117 103.742L46.5675 106.428C46.5071 110.1 50.0916 112.732 53.5706 111.571L53.7522 111.51C56.0545 110.742 58.3995 112.566 58.2249 114.99C57.9587 118.687 61.5354 121.47 65.0471 120.298C67.3494 119.529 69.6943 121.354 69.5198 123.778C69.2536 127.475 72.8303 130.258 76.342 129.086C78.6442 128.317 80.9892 130.141 80.8146 132.565C80.5484 136.262 84.1251 139.045 87.6368 137.873C89.9391 137.105 92.2841 138.929 92.1095 141.353C91.8433 145.05 95.42 147.833 98.9316 146.661L99.1133 146.6C101.423 145.829 103.803 147.577 103.763 150.014L103.718 152.701C103.71 153.195 104.104 153.602 104.597 153.611C105.091 153.619 105.497 153.226 105.505 152.732L105.549 150.046C105.61 146.374 102.025 143.741 98.5463 144.903L98.3647 144.963C96.0624 145.732 93.7174 143.907 93.892 141.483C94.1582 137.786 90.5815 135.004 87.0698 136.176C84.7675 136.944 82.4226 135.12 82.5971 132.696C82.8634 128.999 79.2867 126.216 75.775 127.388C73.4727 128.157 71.1277 126.332 71.3023 123.908C71.5685 120.211 67.9918 117.429 64.4801 118.601C62.1778 119.369 59.8329 117.545 60.0074 115.121C60.2737 111.424 56.6969 108.641 53.1853 109.813L53.0036 109.874Z" fill="#0071B3"/>
<path d="M375.4 337.623C377.752 336.994 380.021 338.884 379.832 341.315L379.624 343.993C379.585 344.486 379.953 344.916 380.445 344.955C380.937 344.994 381.367 344.626 381.405 344.134L381.613 341.455C381.898 337.794 378.481 334.947 374.937 335.894L374.752 335.943C372.408 336.57 370.178 334.605 370.501 332.197C370.992 328.523 367.592 325.527 364.016 326.482C361.671 327.109 359.441 325.144 359.764 322.736C360.255 319.062 356.855 316.066 353.279 317.021C350.934 317.647 348.704 315.683 349.027 313.275C349.518 309.601 346.118 306.605 342.542 307.56C340.197 308.186 337.967 306.222 338.29 303.813C338.781 300.139 335.381 297.143 331.805 298.099L331.62 298.148C329.267 298.777 326.999 296.887 327.188 294.456L327.396 291.778C327.434 291.285 327.066 290.854 326.574 290.816C326.082 290.777 325.652 291.145 325.614 291.637L325.406 294.316C325.121 297.977 328.538 300.824 332.082 299.877L332.267 299.828C334.612 299.201 336.841 301.166 336.519 303.574C336.027 307.248 339.427 310.244 343.004 309.289C345.349 308.662 347.578 310.627 347.256 313.035C346.764 316.709 350.164 319.705 353.741 318.75C356.086 318.123 358.315 320.088 357.993 322.496C357.501 326.17 360.901 329.166 364.478 328.211C366.823 327.585 369.052 329.549 368.73 331.957C368.238 335.631 371.638 338.627 375.215 337.672L375.4 337.623Z" fill="#56B9F2"/>
<path d="M203.312 44.6953C201.724 42.8493 202.441 39.9851 204.713 39.0996L207.216 38.1237C207.676 37.9443 207.904 37.4259 207.725 36.9659C207.547 36.5059 207.029 36.2785 206.568 36.4579L204.065 37.4337C200.644 38.7676 199.564 43.0819 201.955 45.8625L202.08 46.0077C203.663 47.8478 202.862 50.7088 200.552 51.4647C197.029 52.6176 195.807 56.9815 198.222 59.7883C199.804 61.6284 199.003 64.4894 196.694 65.2453C193.171 66.3982 191.949 70.7621 194.363 73.5689C195.946 75.409 195.145 78.27 192.835 79.0259C189.312 80.1789 188.09 84.5427 190.504 87.3495C192.087 89.1896 191.286 92.0507 188.976 92.8065C185.453 93.9595 184.231 98.3233 186.646 101.13L186.77 101.275C188.358 103.121 187.641 105.985 185.37 106.871L182.867 107.847C182.406 108.026 182.178 108.545 182.357 109.005C182.536 109.465 183.054 109.692 183.514 109.513L186.017 108.537C189.438 107.203 190.518 102.889 188.127 100.108L188.002 99.9629C186.419 98.1227 187.22 95.2617 189.53 94.5058C193.053 93.3529 194.275 88.989 191.861 86.1823C190.278 84.3421 191.079 81.4811 193.389 80.7252C196.912 79.5723 198.133 75.2084 195.719 72.4017C194.137 70.5615 194.938 67.7005 197.247 66.9446C200.77 65.7917 201.992 61.4278 199.578 58.6211C197.995 56.7809 198.796 53.9199 201.106 53.164C204.629 52.0111 205.851 47.6472 203.437 44.8405L203.312 44.6953Z" fill="#0071B3"/>
<circle cx="384.776" cy="230.776" r="6.77632" fill="#56B9F2"/>
<circle cx="95.73" cy="298.73" r="6.77632" transform="rotate(20.64 95.73 298.73)" fill="#56B9F2"/>
<circle cx="296.238" cy="325.238" r="4.06579" transform="rotate(20.64 296.238 325.238)" stroke="#0071B3" stroke-width="2.03289"/>
<path d="M299.257 260.666C299.11 260.34 298.898 260.045 298.632 259.796C298.367 259.547 298.054 259.349 297.71 259.213C297.354 259.072 296.971 258.999 296.586 259C296.044 259 295.516 259.142 295.057 259.41C294.947 259.474 294.843 259.544 294.744 259.621C294.645 259.544 294.541 259.474 294.431 259.41C293.972 259.142 293.444 259 292.902 259C292.513 259 292.135 259.071 291.778 259.213C291.433 259.35 291.122 259.546 290.855 259.796C290.59 260.045 290.377 260.34 290.231 260.666C290.078 261.006 290 261.366 290 261.737C290 262.087 290.075 262.452 290.223 262.822C290.347 263.132 290.525 263.454 290.752 263.779C291.112 264.292 291.608 264.828 292.223 265.371C293.242 266.272 294.251 266.894 294.294 266.919L294.554 267.079C294.669 267.149 294.818 267.149 294.933 267.079L295.193 266.919C295.236 266.893 296.244 266.272 297.264 265.371C297.879 264.828 298.374 264.292 298.735 263.779C298.962 263.454 299.141 263.132 299.264 262.822C299.412 262.452 299.487 262.087 299.487 261.737C299.488 261.366 299.41 261.006 299.257 260.666V260.666Z" stroke="#56B9F2" stroke-width="2.03289"/>
<path d="M89.6129 203.869C89.3646 203.308 89.0067 202.799 88.5591 202.371C88.1111 201.942 87.583 201.601 87.0033 201.367C86.4023 201.123 85.7577 200.999 85.1068 201C84.1938 201 83.3029 201.244 82.5288 201.706C82.3435 201.816 82.1676 201.937 82.0009 202.069C81.8342 201.937 81.6583 201.816 81.4731 201.706C80.6989 201.244 79.8081 201 78.895 201C78.2375 201 77.6004 201.123 76.9985 201.367C76.4169 201.602 75.8928 201.941 75.4428 202.371C74.9946 202.798 74.6365 203.307 74.3889 203.869C74.1315 204.453 74 205.074 74 205.712C74 206.315 74.1259 206.942 74.376 207.581C74.5853 208.115 74.8853 208.668 75.2687 209.227C75.8761 210.112 76.7114 211.034 77.7486 211.97C79.4673 213.52 81.1693 214.591 81.2416 214.634L81.6805 214.909C81.875 215.03 82.125 215.03 82.3195 214.909L82.7584 214.634C82.8306 214.589 84.5308 213.52 86.2514 211.97C87.2886 211.034 88.1238 210.112 88.7313 209.227C89.1147 208.668 89.4166 208.115 89.624 207.581C89.874 206.942 90 206.315 90 205.712C90.0018 205.074 89.8703 204.453 89.6129 203.869Z" stroke="#56B9F2" stroke-width="2.03289"/>
<circle cx="86.0658" cy="88.0658" r="4.06579" stroke="#0071B3" stroke-width="2.03289"/>
<circle cx="416.066" cy="190.066" r="4.06579" fill="#0071B3" stroke="#0071B3" stroke-width="2.03289"/>
</g>
<defs>
<clipPath id="clip0_1377_10126">
<rect width="451" height="422" fill="white"/>
</clipPath>
</defs>
</svg>
