<svg width="451" height="422" viewBox="0 0 451 422" fill="none" xmlns="http://www.w3.org/2000/svg">
<path opacity="0.1" fill-rule="evenodd" clip-rule="evenodd" d="M225.21 7.70808C281.485 -0.379297 318.963 62.6314 358.134 103.801C395.786 143.373 443.187 182.006 442.999 236.604C442.813 291.109 400.414 335.199 357.227 368.501C319.685 397.451 272.431 400.163 225.21 404.544C170.245 409.644 109.533 429.628 66.1643 395.506C20.4024 359.502 -1.31514 293.315 11.7597 236.604C23.5266 185.567 89.9836 175.522 125.718 137.202C164.314 95.8128 169.167 15.7621 225.21 7.70808Z" fill="#56B9F2"/>
<path fill-rule="evenodd" clip-rule="evenodd" d="M185.112 157.142C182.172 162.963 184.199 169.91 189.64 172.659C190.816 173.253 192.056 173.602 193.305 173.726C191.372 175.448 189.724 177.555 188.486 180.005C185.549 185.819 185.539 192.345 187.905 197.909C189.803 202.376 193.232 206.223 197.907 208.584C207.879 213.622 219.931 210.086 225.651 200.735C227.059 201.143 228.437 200.774 228.947 199.765C229.473 198.724 228.902 197.344 227.66 196.453C230.811 187.195 227.186 176.86 218.817 171.611C218.259 171.261 217.68 170.934 217.08 170.631C216.816 170.497 216.549 170.369 216.282 170.248C215.013 169.67 213.714 169.228 212.403 168.914C209.57 168.238 206.677 168.165 203.896 168.64C204.234 168.155 204.542 167.641 204.817 167.097C207.757 161.276 205.73 154.329 200.289 151.58C194.847 148.832 188.053 151.322 185.112 157.142ZM191.335 197.815C194.311 197.6 197.243 197.039 200.073 196.152C199.879 195.484 199.769 194.763 199.757 194.01C199.703 190.487 201.837 187.6 204.524 187.562C206.684 187.531 208.545 189.352 209.219 191.899C214.319 188.651 218.707 184.156 221.874 178.581C225.49 183.291 226.657 189.614 224.675 195.436L224.023 197.353L222.96 199.09C218.089 207.054 207.821 210.065 199.327 205.774C195.747 203.965 193.024 201.134 191.335 197.815Z" fill="#0071B3"/>
<path d="M268 250C260.126 239.862 239.981 218.48 204.821 221.245C193.191 222.159 184.945 224.682 179 227.832" stroke="#0071B3" stroke-width="3.65921" stroke-linecap="round"/>
<path d="M165.299 318C171.306 312.307 169.182 296.289 168.745 287.074C168.199 275.554 164.377 262.389 164.377 256.903C164.377 248.127 168.576 243.398 171.306 240.106C174.037 236.815 178.405 232.427 178.951 229.136C179.498 225.844 175.298 224.539 173.114 228.379C170.93 232.219 166.561 233.865 164.377 231.122C162.192 228.379 164.377 225.088 168.745 224.539C174.752 223.785 174.752 220.699 172.568 219.054C170.384 217.408 161.1 219.602 157.824 220.699C158.37 216.86 159.523 212.471 162.192 206.437C164.862 200.403 163.285 197.112 160.008 198.209C156.732 199.306 148.445 210.277 140.895 240.106C135.394 261.84 135.264 300.995 143.456 318" stroke="#0071B3" stroke-width="3.65921" stroke-linecap="round"/>
<path d="M335.773 255.501L310.467 318H213L235.276 254.027C236.116 251.616 238.389 250 240.942 250H332.065C334.902 250 336.837 252.872 335.773 255.501Z" stroke="#0071B3" stroke-width="3.65921" stroke-linecap="round"/>
<path d="M65 318H355" stroke="#0071B3" stroke-width="3.65921" stroke-linecap="round"/>
<rect x="59" y="115" width="28" height="28" rx="3" stroke="#0071B3" stroke-width="3.65921" stroke-linecap="round"/>
<rect x="276" y="178" width="28" height="28" rx="3" stroke="#0071B3" stroke-width="3.65921" stroke-linecap="round"/>
<rect x="318" y="192" width="28" height="29" rx="3" stroke="#0071B3" stroke-width="3.65921" stroke-linecap="round"/>
<path d="M246.373 264.927C246.818 263.766 247.932 263 249.174 263H271.638C273.742 263 275.192 265.109 274.439 267.073L265.627 290.073C265.182 291.234 264.068 292 262.826 292H240.362C238.258 292 236.808 289.891 237.561 287.927L246.373 264.927Z" stroke="#0071B3" stroke-width="3.65921" stroke-linecap="round"/>
<path d="M284.105 275.95C284.543 274.777 285.663 274 286.915 274H308.677C310.77 274 312.22 276.089 311.487 278.05L302.895 301.05C302.457 302.223 301.337 303 300.085 303H278.323C276.23 303 274.78 300.911 275.513 298.95L284.105 275.95Z" stroke="#0071B3" stroke-width="3.65921" stroke-linecap="round"/>
<rect x="100" y="115" width="29" height="28" rx="3" stroke="#0071B3" stroke-width="3.65921" stroke-linecap="round"/>
<rect x="69" y="156" width="28" height="29" rx="3" stroke="#0071B3" stroke-width="3.65921" stroke-linecap="round"/>
<path d="M215.996 221C239.453 221 260.439 240.363 268 250.045H246.977C239.01 250.045 235.912 252.603 235.359 253.881L215.996 309.232C210.832 309.049 198.403 308.793 189.994 309.232C181.585 309.67 179.113 315.26 178.929 318H164.545C174.503 299.915 166.205 271.418 164.545 262.65C162.885 253.881 165.098 241.825 170.077 240.181C174.061 238.866 177.638 231.595 178.929 228.124C181.511 225.75 192.539 221 215.996 221Z" fill="#0071B3"/>
<path d="M213.831 318H179V318C179 313.582 182.582 310 187 310H216" stroke="#0071B3" stroke-width="3.65921" stroke-linecap="round"/>
<path d="M263.613 130.869C263.365 130.308 263.007 129.799 262.559 129.371C262.111 128.942 261.583 128.601 261.003 128.367C260.402 128.123 259.758 127.999 259.107 128C258.194 128 257.303 128.244 256.529 128.706C256.344 128.816 256.168 128.937 256.001 129.069C255.834 128.937 255.658 128.816 255.473 128.706C254.699 128.244 253.808 128 252.895 128C252.238 128 251.6 128.123 250.998 128.367C250.417 128.602 249.893 128.941 249.443 129.371C248.995 129.798 248.637 130.307 248.389 130.869C248.131 131.453 248 132.074 248 132.712C248 133.315 248.126 133.942 248.376 134.581C248.585 135.115 248.885 135.668 249.269 136.227C249.876 137.112 250.711 138.034 251.749 138.97C253.467 140.52 255.169 141.591 255.242 141.634L255.681 141.909C255.875 142.03 256.125 142.03 256.319 141.909L256.758 141.634C256.831 141.589 258.531 140.52 260.251 138.97C261.289 138.034 262.124 137.112 262.731 136.227C263.115 135.668 263.417 135.115 263.624 134.581C263.874 133.942 264 133.315 264 132.712C264.002 132.074 263.87 131.453 263.613 130.869Z" stroke="#56B9F2" stroke-width="2.03289"/>
<circle cx="141.066" cy="174.066" r="4.06579" stroke="#0071B3" stroke-width="2.03289"/>
<path d="M168.169 117.494C170.603 117.435 172.365 119.804 171.611 122.123L170.78 124.677C170.627 125.147 170.883 125.652 171.353 125.805C171.822 125.959 172.326 125.702 172.479 125.232L173.31 122.677C174.446 119.185 171.792 115.616 168.126 115.705L167.934 115.709C165.508 115.768 163.802 113.335 164.68 111.069C166.021 107.613 163.419 103.903 159.718 103.992C157.291 104.051 155.585 101.618 156.464 99.3527C157.804 95.8967 155.202 92.1864 151.501 92.2757C149.075 92.3342 147.369 89.9017 148.247 87.6359C149.587 84.1799 146.985 80.4696 143.284 80.5589C140.858 80.6175 139.152 78.185 140.031 75.9192C141.371 72.4632 138.769 68.7529 135.068 68.8422L134.876 68.8468C132.442 68.9056 130.681 66.5361 131.435 64.2176L132.266 61.6629C132.419 61.1931 132.162 60.688 131.693 60.5348C131.224 60.3816 130.72 60.6383 130.567 61.1081L129.736 63.6629C128.6 67.1552 131.253 70.7243 134.92 70.6358L135.111 70.6312C137.538 70.5726 139.244 73.0051 138.365 75.2709C137.025 78.7269 139.627 82.4372 143.328 82.3479C145.754 82.2893 147.46 84.7219 146.582 86.9877C145.242 90.4436 147.843 94.154 151.545 94.0646C153.971 94.0061 155.677 96.4386 154.798 98.7044C153.458 102.16 156.06 105.871 159.761 105.781C162.188 105.723 163.893 108.155 163.015 110.421C161.675 113.877 164.277 117.587 167.978 117.498L168.169 117.494Z" fill="#56B9F2"/>
<path d="M107.66 226.665L113.623 230.054C114.052 230.298 114.597 230.148 114.841 229.719C115.085 229.29 114.935 228.745 114.506 228.501L108.543 225.112C105.274 223.254 101.184 223.696 98.3878 226.208C96.164 228.207 92.9104 228.558 90.3106 227.08L84.3477 223.691C83.9186 223.448 83.3731 223.598 83.1293 224.027C82.8855 224.455 83.0356 225.001 83.4647 225.245L89.4276 228.634C92.6963 230.491 96.7868 230.05 99.5826 227.537C101.806 225.539 105.06 225.188 107.66 226.665Z" fill="#0071B3"/>
<circle cx="61.7763" cy="277.776" r="6.77632" fill="#56B9F2"/>
<path d="M372.343 107.257C371.842 104.874 373.851 102.711 376.268 103.031L378.932 103.383C379.422 103.448 379.872 103.104 379.937 102.614C380.002 102.125 379.658 101.676 379.168 101.611L376.505 101.259C372.864 100.778 369.837 104.036 370.592 107.626L370.631 107.813C371.13 110.188 369.049 112.308 366.661 111.857C363.019 111.168 359.844 114.402 360.605 118.025C361.104 120.4 359.023 122.52 356.635 122.068C352.993 121.38 349.818 124.613 350.579 128.236C351.079 130.612 348.997 132.732 346.609 132.28C342.967 131.591 339.792 134.825 340.554 138.448C341.053 140.823 338.971 142.943 336.583 142.492C332.941 141.803 329.766 145.036 330.528 148.659L330.567 148.847C331.068 151.23 329.059 153.393 326.642 153.073L323.978 152.721C323.488 152.656 323.039 153.001 322.973 153.49C322.908 153.979 323.252 154.428 323.742 154.493L326.405 154.845C330.046 155.326 333.073 152.068 332.318 148.478L332.279 148.291C331.78 145.916 333.861 143.796 336.249 144.247C339.891 144.936 343.066 141.702 342.305 138.079C341.806 135.704 343.887 133.584 346.275 134.036C349.917 134.725 353.092 131.491 352.331 127.868C351.831 125.493 353.913 123.372 356.301 123.824C359.943 124.513 363.118 121.279 362.356 117.656C361.857 115.281 363.939 113.161 366.327 113.612C369.969 114.301 373.144 111.068 372.382 107.445L372.343 107.257Z" fill="#0071B3"/>
<circle cx="217.73" cy="70.73" r="6.77632" transform="rotate(20.64 217.73 70.73)" fill="#56B9F2"/>
<path d="M104.125 352.647C103.827 350.23 106.012 348.244 108.393 348.767L111.017 349.343C111.5 349.449 111.977 349.144 112.083 348.662C112.19 348.18 111.885 347.703 111.402 347.597L108.778 347.022C105.191 346.235 101.9 349.226 102.349 352.866L102.372 353.056C102.669 355.465 100.416 357.402 98.0745 356.75C94.5035 355.756 91.067 358.711 91.5198 362.385C91.8166 364.794 89.5635 366.731 87.2224 366.079C83.6514 365.085 80.2148 368.039 80.6676 371.714C80.9644 374.123 78.7114 376.059 76.3702 375.408C72.7992 374.414 69.3626 377.368 69.8154 381.042C70.1122 383.451 67.8592 385.388 65.518 384.736C61.947 383.743 58.5104 386.697 58.9632 390.371L58.9866 390.561C59.2844 392.978 57.0996 394.964 54.7182 394.441L52.0941 393.865C51.6116 393.759 51.1342 394.064 51.0279 394.546C50.9215 395.028 51.2265 395.505 51.7091 395.611L54.3332 396.186C57.9203 396.973 61.2112 393.982 60.7626 390.342L60.7392 390.152C60.4424 387.743 62.6954 385.806 65.0366 386.458C68.6076 387.452 72.0442 384.497 71.5914 380.823C71.2946 378.414 73.5476 376.477 75.8888 377.129C79.4598 378.123 82.8963 375.169 82.4436 371.494C82.1467 369.085 84.3998 367.149 86.741 367.8C90.312 368.794 93.7485 365.84 93.2958 362.166C92.9989 359.757 95.252 357.82 97.5932 358.472C101.164 359.465 104.601 356.511 104.148 352.837L104.125 352.647Z" fill="#56B9F2"/>
<circle cx="158.066" cy="362.066" r="4.06579" fill="#0071B3" stroke="#0071B3" stroke-width="2.03289"/>
<path d="M390.257 264.666C390.11 264.34 389.898 264.045 389.632 263.796C389.367 263.547 389.054 263.349 388.71 263.213C388.354 263.072 387.971 262.999 387.586 263C387.044 263 386.516 263.142 386.057 263.41C385.947 263.474 385.843 263.544 385.744 263.621C385.645 263.544 385.541 263.474 385.431 263.41C384.972 263.142 384.444 263 383.902 263C383.513 263 383.135 263.071 382.778 263.213C382.433 263.35 382.122 263.546 381.855 263.796C381.59 264.045 381.377 264.34 381.231 264.666C381.078 265.006 381 265.366 381 265.737C381 266.087 381.075 266.452 381.223 266.822C381.347 267.132 381.525 267.454 381.752 267.779C382.112 268.292 382.608 268.828 383.223 269.371C384.242 270.272 385.251 270.894 385.294 270.919L385.554 271.079C385.669 271.149 385.818 271.149 385.933 271.079L386.193 270.919C386.236 270.893 387.244 270.272 388.264 269.371C388.879 268.828 389.374 268.292 389.735 267.779C389.962 267.454 390.141 267.132 390.264 266.822C390.412 266.452 390.487 266.087 390.487 265.737C390.488 265.366 390.41 265.006 390.257 264.666V264.666Z" stroke="#56B9F2" stroke-width="2.03289"/>
<path d="M338.955 382.344L342.177 388.399C342.409 388.835 342.95 389 343.385 388.769C343.821 388.537 343.986 387.996 343.754 387.56L340.533 381.505C338.766 378.186 335.075 376.369 331.369 376.994C328.42 377.491 325.484 376.046 324.08 373.406L320.858 367.351C320.626 366.915 320.085 366.75 319.65 366.982C319.214 367.214 319.049 367.755 319.281 368.19L322.502 374.245C324.268 377.564 327.96 379.381 331.666 378.756C334.614 378.259 337.55 379.704 338.955 382.344Z" fill="#56B9F2"/>
<circle cx="271.238" cy="346.238" r="4.06579" transform="rotate(20.64 271.238 346.238)" stroke="#0071B3" stroke-width="2.03289"/>
<path d="M346.967 172.473L340.319 170.788C339.84 170.667 339.354 170.956 339.233 171.435C339.112 171.913 339.401 172.399 339.879 172.52L346.528 174.205C350.173 175.129 353.999 173.617 356.028 170.453C357.641 167.936 360.685 166.733 363.584 167.468L370.232 169.153C370.711 169.274 371.197 168.985 371.318 168.507C371.439 168.028 371.15 167.542 370.672 167.421L364.023 165.736C360.379 164.813 356.552 166.324 354.523 169.488C352.91 172.005 349.866 173.208 346.967 172.473Z" fill="#56B9F2"/>
</svg>
