<svg width="451" height="422" viewBox="0 0 451 422" fill="none" xmlns="http://www.w3.org/2000/svg">
<path opacity="0.1" fill-rule="evenodd" clip-rule="evenodd" d="M219.494 64.316C272.405 64.8035 330.67 35.976 372.126 68.8739C415.368 103.189 419.469 166.386 417.661 221.575C415.923 274.673 403.684 331.122 362.442 364.588C323.674 396.046 269.383 384.033 219.494 382.379C172.231 380.812 123.111 384.371 85.7161 355.413C43.8388 322.985 15.7969 274.407 11.8366 221.575C7.58691 164.881 18.7142 100.349 64.0247 66.0352C106.982 33.5034 165.619 63.8196 219.494 64.316Z" fill="#56B9F2"/>
<path d="M291.386 55.7022L295.568 50.2662C295.869 49.875 295.796 49.314 295.405 49.0131C295.014 48.7123 294.453 48.7854 294.152 49.1766L289.97 54.6127C287.677 57.5925 287.548 61.7048 289.649 64.8216C291.321 67.3008 291.218 70.5717 289.394 72.9418L285.212 78.3779C284.911 78.769 284.984 79.33 285.375 79.6309C285.766 79.9318 286.327 79.8586 286.628 79.4675L290.81 74.0314C293.103 71.0516 293.232 66.9393 291.131 63.8224C289.46 61.3433 289.563 58.0724 291.386 55.7022Z" fill="#56B9F2"/>
<path d="M409.167 257.657L404.576 252.562C404.246 252.195 403.681 252.165 403.314 252.496C402.948 252.826 402.918 253.391 403.249 253.758L407.84 258.853C410.356 261.646 414.377 262.516 417.823 261.013C420.563 259.817 423.761 260.509 425.763 262.731L430.354 267.827C430.684 268.194 431.249 268.223 431.616 267.893C431.982 267.563 432.012 266.998 431.681 266.631L427.091 261.535C424.574 258.742 420.553 257.872 417.108 259.375C414.367 260.571 411.169 259.879 409.167 257.657Z" fill="#0071B3"/>
<path d="M101.657 131.444L106.362 136.435C106.7 136.794 107.266 136.81 107.625 136.472C107.984 136.134 108 135.568 107.662 135.209L102.957 130.218C100.378 127.483 96.3381 126.704 92.9277 128.284C90.2152 129.542 87.0019 128.922 84.9505 126.746L80.2457 121.756C79.9072 121.396 79.3417 121.38 78.9826 121.718C78.6236 122.057 78.607 122.622 78.9455 122.981L83.6504 127.972C86.2294 130.707 90.2693 131.486 93.6796 129.906C96.3922 128.648 99.6055 129.268 101.657 131.444Z" fill="#0071B3"/>
<path d="M82.0237 264.802C81.876 267.232 79.3658 268.787 77.1195 267.839L74.6444 266.794C74.1892 266.602 73.6642 266.815 73.4718 267.269C73.2795 267.724 73.4925 268.248 73.9476 268.44L76.4228 269.485C79.8063 270.912 83.5874 268.571 83.8099 264.91L83.8215 264.719C83.9688 262.296 86.5371 260.803 88.7203 261.87C92.0503 263.498 95.9678 261.22 96.1924 257.525C96.3397 255.102 98.908 253.608 101.091 254.676C104.421 256.304 108.339 254.026 108.563 250.331C108.711 247.908 111.279 246.414 113.462 247.482C116.792 249.11 120.71 246.832 120.934 243.136C121.081 240.714 123.65 239.22 125.833 240.288C129.163 241.916 133.08 239.638 133.305 235.942L133.317 235.751C133.464 233.321 135.975 231.766 138.221 232.714L140.696 233.759C141.151 233.951 141.676 233.738 141.868 233.283C142.061 232.829 141.848 232.305 141.393 232.113L138.918 231.068C135.534 229.641 131.753 231.982 131.53 235.643L131.519 235.834C131.372 238.257 128.803 239.75 126.62 238.683C123.29 237.055 119.373 239.333 119.148 243.028C119.001 245.451 116.432 246.944 114.249 245.877C110.919 244.249 107.002 246.527 106.777 250.222C106.63 252.645 104.061 254.139 101.878 253.071C98.5483 251.443 94.6308 253.721 94.4062 257.417C94.2589 259.839 91.6906 261.333 89.5074 260.265C86.1774 258.637 82.2599 260.915 82.0353 264.611L82.0237 264.802Z" fill="#0071B3"/>
<path d="M353.423 307.498C355.858 307.472 357.588 309.864 356.804 312.172L355.939 314.716C355.78 315.184 356.03 315.692 356.497 315.851C356.964 316.011 357.472 315.761 357.631 315.293L358.495 312.749C359.677 309.272 357.07 305.669 353.403 305.709L353.211 305.711C350.784 305.738 349.11 303.283 350.019 301.029C351.404 297.591 348.851 293.847 345.149 293.888C342.722 293.915 341.048 291.46 341.956 289.206C343.341 285.768 340.788 282.024 337.086 282.065C334.659 282.091 332.985 279.637 333.893 277.383C335.279 273.945 332.726 270.2 329.024 270.241C326.597 270.268 324.923 267.814 325.831 265.559C327.216 262.121 324.663 258.377 320.961 258.418L320.77 258.42C318.335 258.447 316.604 256.055 317.389 253.746L318.253 251.203C318.412 250.735 318.162 250.227 317.695 250.067C317.228 249.908 316.721 250.158 316.562 250.626L315.697 253.169C314.516 256.647 317.122 260.25 320.79 260.21L320.981 260.207C323.408 260.181 325.082 262.635 324.174 264.889C322.789 268.328 325.342 272.072 329.044 272.031C331.471 272.004 333.145 274.459 332.236 276.713C330.851 280.151 333.404 283.895 337.106 283.854C339.533 283.827 341.207 286.282 340.299 288.536C338.914 291.974 341.467 295.718 345.169 295.677C347.596 295.65 349.27 298.105 348.362 300.359C346.976 303.797 349.529 307.541 353.231 307.501L353.423 307.498Z" fill="#56B9F2"/>
<path d="M417.526 160.77C418.417 158.504 421.284 157.801 423.128 159.396L425.16 161.153C425.534 161.476 426.099 161.436 426.422 161.063C426.745 160.69 426.704 160.126 426.331 159.803L424.299 158.045C421.521 155.643 417.202 156.703 415.86 160.116L415.79 160.294C414.902 162.553 411.998 163.181 410.251 161.492C407.586 158.915 403.157 159.873 401.803 163.319C400.915 165.577 398.011 166.205 396.264 164.516C393.599 161.939 389.17 162.897 387.815 166.343C386.927 168.602 384.023 169.229 382.276 167.54C379.612 164.964 375.182 165.921 373.828 169.367C372.94 171.626 370.036 172.253 368.289 170.564C365.624 167.988 361.195 168.945 359.84 172.391L359.77 172.569C358.88 174.835 356.012 175.539 354.168 173.944L352.136 172.186C351.763 171.863 351.198 171.903 350.874 172.276C350.551 172.649 350.592 173.213 350.966 173.537L352.997 175.294C355.775 177.697 360.094 176.637 361.436 173.223L361.506 173.045C362.394 170.786 365.298 170.158 367.045 171.848C369.71 174.424 374.139 173.466 375.493 170.021C376.381 167.762 379.285 167.134 381.032 168.823C383.697 171.4 388.127 170.442 389.481 166.997C390.369 164.738 393.273 164.11 395.02 165.799C397.685 168.376 402.114 167.418 403.468 163.973C404.356 161.714 407.26 161.086 409.007 162.775C411.672 165.352 416.101 164.394 417.456 160.949L417.526 160.77Z" fill="#0071B3"/>
<circle cx="84.7763" cy="210.776" r="6.77632" fill="#56B9F2"/>
<circle cx="345.73" cy="114.73" r="6.77632" transform="rotate(20.64 345.73 114.73)" fill="#56B9F2"/>
<circle cx="210.238" cy="38.238" r="4.06579" transform="rotate(20.64 210.238 38.238)" stroke="#0071B3" stroke-width="2.03289"/>
<path d="M136.225 281.5C136.014 281.01 135.711 280.567 135.332 280.195C134.953 279.821 134.505 279.524 134.014 279.32C133.505 279.107 132.959 278.999 132.408 279C131.635 279 130.88 279.213 130.224 279.615C130.067 279.711 129.918 279.816 129.777 279.931C129.636 279.816 129.487 279.711 129.33 279.615C128.674 279.213 127.92 279 127.146 279C126.589 279 126.05 279.107 125.54 279.32C125.047 279.525 124.603 279.82 124.222 280.195C123.842 280.567 123.539 281.01 123.329 281.5C123.111 282.009 123 282.549 123 283.106C123 283.63 123.107 284.177 123.318 284.734C123.496 285.199 123.75 285.681 124.075 286.168C124.589 286.939 125.297 287.742 126.175 288.557C127.631 289.908 129.073 290.841 129.134 290.879L129.506 291.118C129.67 291.224 129.882 291.224 130.047 291.118L130.419 290.879C130.48 290.839 131.92 289.908 133.377 288.557C134.256 287.742 134.963 286.939 135.478 286.168C135.803 285.681 136.058 285.199 136.234 284.734C136.446 284.177 136.553 283.63 136.553 283.106C136.554 282.549 136.443 282.009 136.225 281.5V281.5Z" stroke="#0071B3" stroke-width="2.03289"/>
<path d="M294.257 300.666C294.11 300.34 293.898 300.045 293.632 299.796C293.367 299.547 293.054 299.349 292.71 299.213C292.354 299.072 291.971 298.999 291.586 299C291.044 299 290.516 299.142 290.057 299.41C289.947 299.474 289.843 299.544 289.744 299.621C289.645 299.544 289.541 299.474 289.431 299.41C288.972 299.142 288.444 299 287.902 299C287.513 299 287.135 299.071 286.778 299.213C286.433 299.35 286.122 299.546 285.855 299.796C285.59 300.045 285.377 300.34 285.231 300.666C285.078 301.006 285 301.366 285 301.737C285 302.087 285.075 302.452 285.223 302.822C285.347 303.132 285.525 303.454 285.752 303.779C286.112 304.292 286.608 304.828 287.223 305.371C288.242 306.272 289.251 306.894 289.294 306.919L289.554 307.079C289.669 307.149 289.818 307.149 289.933 307.079L290.193 306.919C290.236 306.893 291.244 306.272 292.264 305.371C292.879 304.828 293.374 304.292 293.735 303.779C293.962 303.454 294.141 303.132 294.264 302.822C294.412 302.452 294.487 302.087 294.487 301.737C294.488 301.366 294.41 301.006 294.257 300.666V300.666Z" stroke="#56B9F2" stroke-width="2.03289"/>
<path d="M388.613 230.869C388.365 230.308 388.007 229.799 387.559 229.371C387.111 228.942 386.583 228.601 386.003 228.367C385.402 228.123 384.758 227.999 384.107 228C383.194 228 382.303 228.244 381.529 228.706C381.344 228.816 381.168 228.937 381.001 229.069C380.834 228.937 380.658 228.816 380.473 228.706C379.699 228.244 378.808 228 377.895 228C377.238 228 376.6 228.123 375.998 228.367C375.417 228.602 374.893 228.941 374.443 229.371C373.995 229.798 373.637 230.307 373.389 230.869C373.131 231.453 373 232.074 373 232.712C373 233.315 373.126 233.942 373.376 234.581C373.585 235.115 373.885 235.668 374.269 236.227C374.876 237.112 375.711 238.034 376.749 238.97C378.467 240.52 380.169 241.591 380.242 241.634L380.681 241.909C380.875 242.03 381.125 242.03 381.319 241.909L381.758 241.634C381.831 241.589 383.531 240.52 385.251 238.97C386.289 238.034 387.124 237.112 387.731 236.227C388.115 235.668 388.417 235.115 388.624 234.581C388.874 233.942 389 233.315 389 232.712C389.002 232.074 388.87 231.453 388.613 230.869Z" stroke="#56B9F2" stroke-width="2.03289"/>
<mask id="mask0_1358_10151" style="mask-type:alpha" maskUnits="userSpaceOnUse" x="130" y="86" width="193" height="145">
<path fill-rule="evenodd" clip-rule="evenodd" d="M251.5 231L250 222.5C255.333 218.167 267.8 206.6 275 195C284 180.5 286.5 172.5 287 168C287.5 163.5 287 162.5 284 162C281 161.5 278.5 163.5 275 168C274.691 168.397 274.29 168.922 273.807 169.552C268.817 176.071 255.206 193.853 247 197.5C239.8 200.7 216.333 196.167 205.5 193.5C198.333 192.167 182.5 191.6 176.5 200C170.5 208.4 166 222.167 164.5 228H130V86H322.5V231H251.5ZM189.5 152.5C190.167 150.667 193.5 147 201.5 147C211.5 147 219.5 151.5 219.5 167C219.5 182.5 201 185.5 197.5 184.5C197.262 184.432 196.978 184.362 196.657 184.282C192.242 183.19 180.704 180.336 183.5 157.5C180 158.167 172.7 157.6 171.5 150C170 140.5 175 138 178.5 139C181.3 139.8 184 142.667 185 144V152.5H189.5Z" fill="#0078D2"/>
</mask>
<g mask="url(#mask0_1358_10151)">
<rect x="142" y="99" width="170" height="121" rx="11" stroke="#56B9F2" stroke-width="3.65921" stroke-linecap="round"/>
<line x1="143.83" y1="138.17" x2="310.17" y2="138.17" stroke="#56B9F2" stroke-width="3.65921" stroke-linecap="round"/>
<line x1="195.83" y1="114.17" x2="258.17" y2="114.17" stroke="#56B9F2" stroke-width="3.65921" stroke-linecap="round"/>
<line x1="209.83" y1="123.17" x2="244.17" y2="123.17" stroke="#56B9F2" stroke-width="3.65921" stroke-linecap="round"/>
<line x1="143.83" y1="165.17" x2="310.17" y2="165.17" stroke="#56B9F2" stroke-width="3.65921" stroke-linecap="round"/>
<line x1="143.83" y1="192.17" x2="310.17" y2="192.17" stroke="#56B9F2" stroke-width="3.65921" stroke-linecap="round"/>
<line x1="184.83" y1="138.83" x2="184.83" y2="218.17" stroke="#56B9F2" stroke-width="3.65921" stroke-linecap="round"/>
<line x1="226.83" y1="138.83" x2="226.83" y2="218.17" stroke="#56B9F2" stroke-width="3.65921" stroke-linecap="round"/>
<line x1="268.83" y1="138.83" x2="268.83" y2="218.17" stroke="#56B9F2" stroke-width="3.65921" stroke-linecap="round"/>
</g>
<path fill-rule="evenodd" clip-rule="evenodd" d="M167.544 147.426C167.544 153.736 172.326 158.851 178.225 158.851C179.5 158.851 180.722 158.612 181.856 158.174C180.938 160.505 180.434 163.043 180.434 165.7C180.434 172.002 183.272 177.643 187.743 181.417C191.332 184.446 195.972 186.273 201.039 186.273C211.85 186.273 220.717 177.96 221.577 167.388C222.971 167.126 224 166.206 224 165.112C224 163.983 222.905 163.04 221.444 162.813C220.126 153.443 212.485 146.097 202.967 145.216C202.332 145.157 201.689 145.127 201.039 145.127C200.753 145.127 200.467 145.133 200.183 145.144C198.835 145.2 197.52 145.384 196.251 145.685C193.508 146.337 190.979 147.536 188.783 149.16C188.864 148.594 188.906 148.015 188.906 147.426C188.906 141.115 184.124 136 178.225 136C172.326 136 167.544 141.115 167.544 147.426ZM190.665 179.839C193.141 178.355 195.429 176.591 197.486 174.59C197.027 174.097 196.617 173.523 196.279 172.878C194.694 169.859 195.278 166.434 197.582 165.229C199.434 164.259 201.836 165.021 203.529 166.926C206.517 161.896 208.345 156.099 208.648 149.902C213.826 152.392 217.593 157.344 218.422 163.237L218.695 165.178L218.535 167.141C217.803 176.145 210.248 183.226 201.039 183.226C197.158 183.226 193.571 181.968 190.665 179.839Z" fill="#0071B3"/>
<path d="M166 217C162.4 228.6 163.833 256.167 164 268.5C164 276.5 167.5 278.5 174 278.5C192.071 278.5 215 276 233 270C233.667 270 239 268 238 262C237.079 256.476 232.833 238.167 231.5 230C231.5 230 267.5 223.5 286 172.5C290.094 161.213 281.909 158.5 276.5 165.5C268 176.5 260.5 187.075 246 196.5C240.631 199.99 235.5 200 228 198C220.5 196 211.228 192.977 199.5 192C181.5 190.5 170.5 202.5 166 217Z" stroke="#0071B3" stroke-width="3.65921" stroke-linecap="round"/>
<path d="M173 336C167.667 326.833 164 302 167.5 278" stroke="#0071B3" stroke-width="3.65921" stroke-linecap="round"/>
<path d="M233 270C237.167 279.667 245.7 304.9 246.5 332.5" stroke="#0071B3" stroke-width="3.65921" stroke-linecap="round"/>
<path d="M203.889 310.818C203.283 318.795 203.839 325.91 208.479 334.39" stroke="#0071B3" stroke-width="3.65921" stroke-linecap="round"/>
<path d="M264.5 209.5C261.3 198.7 254.5 193 251.5 191.5C249.333 194.667 242.6 200.6 233 199C221 197 215 191.5 194.5 191.5C174 191.5 164 217.5 164 227.5C164 237.5 163.5 255.5 164 266C164.5 276.5 169 278.5 175 278.5C181 278.5 214.5 274.5 227 272C239.5 269.5 238.5 266.5 237.5 259C236.7 253 234.167 237.167 233 230C245.8 226.4 259.333 214.833 264.5 209.5Z" fill="#0071B3"/>
<circle cx="247.066" cy="152.066" r="4.06579" stroke="#0071B3" stroke-width="2.03289"/>
<circle cx="290.066" cy="152.066" r="4.06579" fill="#0071B3" stroke="#0071B3" stroke-width="2.03289"/>
</svg>
