<svg width="300" height="71" viewBox="0 0 300 71" fill="none" xmlns="http://www.w3.org/2000/svg">
<path d="M22.1172 49.4248C23.2514 50.9302 24.7637 52.2474 26.276 53.3764C30.0567 56.199 34.7826 57.8925 39.8866 57.8925C44.9905 57.8925 49.7164 56.199 53.4971 53.3764C55.0094 52.2474 56.3327 50.9302 57.6559 49.4248C56.5217 47.9194 55.0094 46.6022 53.4971 45.4732C49.7164 42.6506 44.9905 40.957 39.8866 40.957C34.7826 40.957 30.0567 42.6506 26.276 45.4732C24.5747 46.6022 23.2514 47.9194 22.1172 49.4248Z" fill="#26A9E0"/>
<path d="M39.8866 35.124C44.5846 35.124 48.3932 31.3328 48.3932 26.6562C48.3932 21.9796 44.5846 18.1885 39.8866 18.1885C35.1885 18.1885 31.3799 21.9796 31.3799 26.6562C31.3799 31.3328 35.1885 35.124 39.8866 35.124Z" fill="#26A9E0"/>
<path d="M39.6975 1.25293C33.0813 1.25293 26.6541 3.13465 20.983 6.70992L24.1966 11.4142C28.7335 8.40347 34.2155 6.89809 39.6975 6.89809C55.3875 6.89809 68.242 19.6938 68.242 35.3121C68.242 50.9303 55.3875 63.726 39.6975 63.726C24.0076 63.726 11.3421 50.7422 11.3421 35.1239C11.3421 33.4303 11.3421 31.7368 11.7202 30.2314L16.2571 32.4895V14.6131L1.89035 25.1508L6.42721 27.4088C5.8601 30.0432 5.67107 32.4895 5.67107 35.1239C5.67107 53.9411 20.983 69.183 39.8866 69.183C58.7902 69.183 74.1021 53.9411 74.1021 35.1239C74.1021 16.3067 58.6011 1.25293 39.6975 1.25293Z" fill="#26A9E0"/>
<path d="M123.251 32.8657C117.013 32.8657 112.098 37.9464 112.098 43.9679C112.098 50.1775 117.202 55.07 123.251 55.07C129.301 55.07 134.405 49.9894 134.405 43.9679C134.594 37.9464 129.49 32.8657 123.251 32.8657ZM128.922 44.5324C128.922 44.7206 128.922 44.9087 128.733 45.2851C128.544 45.8496 128.355 46.2259 128.166 46.6023C128.166 46.6023 128.166 46.6023 128.166 46.7905C127.977 46.9786 127.977 47.1668 127.788 47.355C126.843 48.6722 125.142 49.613 123.44 49.613C120.416 49.613 117.769 47.1668 117.769 43.9679C117.769 40.9571 120.227 38.3227 123.44 38.3227C125.331 38.3227 126.843 39.2636 127.788 40.5808C127.977 40.7689 128.166 40.9571 128.166 41.1453C128.166 41.1453 128.166 41.1453 128.166 41.3335C128.355 41.7098 128.544 42.2743 128.733 42.6507C128.733 42.8388 128.922 43.027 128.922 43.4034C128.922 43.5915 128.922 43.7797 128.922 43.9679C128.922 44.156 128.922 44.3442 128.922 44.5324Z" fill="#231F20"/>
<path d="M87.9017 30.0432C87.9017 25.1507 91.8714 20.8228 98.2987 20.8228C102.457 20.8228 105.86 22.14 107.75 24.398L104.537 28.726C102.836 27.2206 101.323 26.2797 98.6767 26.2797C95.8412 26.2797 93.9508 27.7851 93.9508 29.855C93.9508 36.6292 109.074 34.5593 109.074 45.6615C109.074 51.3066 104.159 55.0701 97.9206 55.0701C93.5728 55.0701 88.6578 53.1883 86.9565 49.8013L90.3592 45.8496C92.2495 48.2959 95.4631 49.6131 97.9206 49.6131C100.756 49.6131 102.836 48.2959 102.836 45.6615C103.025 39.2636 87.9017 40.9572 87.9017 30.0432Z" fill="#231F20"/>
<path d="M139.13 27.5972H144.612V54.5058H139.13V27.5972Z" fill="#231F20"/>
<path d="M173.535 33.2421H179.017V35.312C179.962 33.9948 181.285 32.8657 183.932 32.8657C185.633 32.8657 186.578 33.2421 187.335 33.6184L185.444 38.6991C184.31 38.1345 183.743 37.9464 182.609 37.9464C180.718 37.9464 179.773 39.0754 179.017 40.2044V54.6937H173.535V33.2421Z" fill="#231F20"/>
<path d="M204.537 30.0432C204.537 25.1507 208.507 20.8228 214.934 20.8228C219.093 20.8228 222.495 22.14 224.386 24.398L221.172 28.726C219.471 27.2206 217.958 26.2797 215.312 26.2797C212.476 26.2797 210.586 27.7851 210.586 29.855C210.586 36.6292 225.709 34.5593 225.709 45.6615C225.709 51.3066 220.794 55.0701 214.556 55.0701C210.208 55.0701 205.293 53.1883 203.592 49.8013L206.994 45.8496C208.885 48.2959 212.098 49.6131 214.556 49.6131C217.391 49.6131 219.471 48.2959 219.471 45.6615C219.471 39.2636 204.537 40.9572 204.537 30.0432Z" fill="#231F20"/>
<path d="M230.057 27.4087H235.539V33.242H242.344V38.3227H235.539V46.0377C235.539 48.2958 236.295 49.8012 238.185 49.8012C239.698 49.8012 240.643 49.0485 241.399 48.484L243.1 52.6237C241.777 53.7528 239.509 54.6936 236.862 54.6936C231.947 54.6936 230.246 51.4947 230.246 46.0377V27.4087H230.057Z" fill="#231F20"/>
<path d="M248.582 34.7476C250.473 33.6186 253.308 32.6777 256.144 32.6777C262.382 32.6777 264.65 35.8767 264.65 41.5218V54.6939H259.924V52.2476C258.79 53.9412 256.522 55.0702 253.686 55.0702C249.716 55.0702 247.07 52.624 247.07 48.4842C247.07 43.7799 250.473 41.5218 254.82 41.5218C256.711 41.5218 258.601 42.0863 259.735 42.839C259.924 39.2638 258.979 37.382 255.766 37.382C253.308 37.382 251.796 38.1347 250.095 38.8874L248.582 34.7476ZM259.546 48.296V46.0379C258.601 45.2853 257.278 44.9089 255.766 44.9089C253.875 44.9089 252.363 45.8498 252.363 47.5433C252.363 49.2369 253.686 49.9896 255.388 49.9896C257.656 50.3659 258.79 49.2369 259.546 48.296Z" fill="#231F20"/>
<path d="M151.229 34.7476C153.119 33.6186 155.955 32.6777 158.79 32.6777C165.028 32.6777 167.297 35.8767 167.297 41.5218V54.6939H162.571V52.2476C161.437 53.9412 159.168 55.0702 156.333 55.0702C152.363 55.0702 149.716 52.624 149.716 48.4842C149.716 43.7799 153.119 41.5218 157.467 41.5218C159.357 41.5218 161.248 42.0863 162.382 42.839C162.571 39.2638 161.626 37.382 158.412 37.382C155.955 37.382 154.442 38.1347 152.741 38.8874L151.229 34.7476ZM162.193 48.296V46.0379C161.248 45.2853 159.924 44.9089 158.412 44.9089C156.522 44.9089 155.009 45.8498 155.009 47.5433C155.009 49.2369 156.333 49.9896 158.034 49.9896C160.302 50.3659 161.626 49.2369 162.193 48.296Z" fill="#231F20"/>
<path d="M275.047 54.5058V43.5918H280.907V38.5111H275.047V36.8176C275.047 33.8068 276.37 32.6778 278.261 32.6778C279.584 32.6778 280.718 33.0542 281.474 33.8068L283.365 29.6671C282.231 28.538 279.962 27.5972 277.316 27.5972C272.59 27.5972 269.754 30.6079 269.754 36.4413V54.6939H275.047V54.5058Z" fill="#231F20"/>
<path d="M290.548 54.5058V43.5918H296.408V38.5111H290.548V36.8176C290.548 33.8068 291.871 32.6778 293.762 32.6778C295.085 32.6778 296.219 33.0542 296.975 33.8068L298.866 29.6671C297.732 28.538 295.463 27.5972 292.817 27.5972C288.091 27.5972 285.255 30.6079 285.255 36.4413V54.6939H290.548V54.5058Z" fill="#231F20"/>
</svg>
