<svg width="276" height="54" viewBox="0 0 276 54" fill="none" xmlns="http://www.w3.org/2000/svg">
<g clip-path="url(#clip0_30767_157935)">
<rect width="276" height="54" fill="white"/>
<path d="M98.1051 9V34.1016C98.0876 37.5645 96.5476 39.3926 93.7476 39.3926C91.1051 39.3926 89.3901 37.7402 89.3376 34.875H81.7951C81.7601 42.0645 86.8701 45.4922 93.3626 45.4922C100.625 45.4922 105.578 41.0801 105.595 34.1016V9H98.1051Z" fill="#21253F"/>
<path d="M121.73 45.5273C128.38 45.5273 132.86 42.2754 133.91 37.2656L127.015 36.8086C126.263 38.8652 124.338 39.9375 121.853 39.9375C118.125 39.9375 115.763 37.459 115.763 33.4336V33.416H134.068V31.3594C134.068 22.1836 128.538 17.6484 121.433 17.6484C113.523 17.6484 108.395 23.291 108.395 31.623C108.395 40.1836 113.453 45.5273 121.73 45.5273ZM115.763 28.7754C115.92 25.6992 118.248 23.2383 121.555 23.2383C124.793 23.2383 127.033 25.5586 127.05 28.7754H115.763Z" fill="#21253F"/>
<path d="M150.99 18H145.933V11.5313H138.478V18H134.803V23.625H138.478V37.6875C138.443 42.9785 142.03 45.5977 147.438 45.3691C149.363 45.2988 150.728 44.9121 151.48 44.666L150.308 39.0938C149.94 39.1641 149.153 39.3398 148.453 39.3398C146.965 39.3398 145.933 38.7773 145.933 36.7031V23.625H150.99V18Z" fill="#21253F"/>
<path d="M154.324 45H177.266V38.7246H161.901V9H154.324V45Z" fill="#21253F"/>
<path d="M192.154 45.5273C198.804 45.5273 203.284 42.2754 204.334 37.2656L197.439 36.8086C196.687 38.8652 194.762 39.9375 192.277 39.9375C188.549 39.9375 186.187 37.459 186.187 33.4336V33.416H204.492V31.3594C204.492 22.1836 198.962 17.6484 191.857 17.6484C183.947 17.6484 178.819 23.291 178.819 31.623C178.819 40.1836 183.877 45.5273 192.154 45.5273ZM186.187 28.7754C186.344 25.6992 188.672 23.2383 191.979 23.2383C195.217 23.2383 197.457 25.5586 197.474 28.7754H186.187Z" fill="#21253F"/>
<path d="M214.782 45.5098C218.754 45.5098 221.327 43.7695 222.639 41.2559H222.849V45H229.919V26.7891C229.919 20.3555 224.494 17.6484 218.509 17.6484C212.069 17.6484 207.834 20.7422 206.802 25.6641L213.697 26.2266C214.204 24.4336 215.797 23.1152 218.474 23.1152C221.012 23.1152 222.464 24.3984 222.464 26.6133V26.7188C222.464 28.459 220.627 28.6875 215.954 29.1445C210.634 29.6367 205.857 31.4297 205.857 37.459C205.857 42.8027 209.654 45.5098 214.782 45.5098ZM216.917 40.3418C214.624 40.3418 212.979 39.2695 212.979 37.2129C212.979 35.1035 214.712 34.0664 217.337 33.6973C218.964 33.4688 221.624 33.082 222.517 32.4844V35.3496C222.517 38.1797 220.189 40.3418 216.917 40.3418Z" fill="#21253F"/>
<path d="M233.463 45H240.918V29.7246C240.918 26.4023 243.333 24.1172 246.623 24.1172C247.656 24.1172 249.073 24.293 249.773 24.5215V17.877C249.108 17.7188 248.181 17.6133 247.428 17.6133C244.418 17.6133 241.951 19.3711 240.971 22.7109H240.691V18H233.463V45Z" fill="#21253F"/>
<path d="M258.843 29.3906C258.86 25.9102 260.925 23.8711 263.935 23.8711C266.928 23.8711 268.73 25.8398 268.713 29.1445V45H276.168V27.8086C276.168 21.5156 272.493 17.6484 266.893 17.6484C262.903 17.6484 260.015 19.6172 258.808 22.7637H258.493V18H251.388V45H258.843V29.3906Z" fill="#21253F"/>
<path d="M28.5191 0.107422H15.3381V14.1947C15.3381 16.4041 14.1559 18.4456 12.2368 19.5504L0 26.5942L6.59046 37.9752L22.3162 28.9232C26.1545 26.7138 28.5191 22.6306 28.5191 18.2118V0.107422Z" fill="#4760F3"/>
<path d="M56.1299 37.8677L62.7203 26.4869L50.4838 19.4432C48.5646 18.3385 47.3824 16.297 47.3824 14.0876L47.3823 8.68302e-05L34.2012 0L34.2012 18.1041C34.2012 22.5229 36.5656 26.6061 40.404 28.8155L56.1299 37.8677Z" fill="#24AEFC"/>
<path d="M9.57983 42.6194L16.1703 54.0002L28.4069 46.9566C30.326 45.8519 32.6905 45.8519 34.6096 46.9566L46.8465 54.0003L53.4371 42.6193L37.7114 33.5672C33.8731 31.3578 29.1441 31.3578 25.3057 33.5672L9.57983 42.6194Z" fill="#9347F3"/>
</g>
<defs>
<clipPath id="clip0_30767_157935">
<rect width="276" height="54" fill="white"/>
</clipPath>
</defs>
</svg>
