<svg width="300" height="56" viewBox="0 0 300 56" fill="none" xmlns="http://www.w3.org/2000/svg">
<path d="M96.3033 4.73579C103.839 -0.486255 114.052 -1.45808 122.462 2.1613C128.595 4.76014 133.817 9.63632 136.572 15.7254C143.57 15.7401 150.567 15.7449 157.562 15.7206C157.908 15.7547 158.369 15.6183 158.583 15.9909C158.6 17.6569 158.532 19.3278 158.612 20.9962C156.289 21.118 153.958 21.0254 151.632 21.04C151.556 27.1194 151.661 33.1988 151.58 39.2782C149.819 39.2465 148.059 39.2709 146.3 39.2782C146.266 33.1964 146.319 27.1146 146.273 21.0327C143.725 21.0741 141.175 21.0498 138.628 21.0327C138.623 21.9875 138.913 22.8984 139.042 23.8362C139.578 28.4956 139.127 33.3182 137.327 37.6731C135.7 41.7821 133.082 45.5037 129.711 48.3705C124.959 52.4454 118.792 54.92 112.513 54.993C104.811 55.3097 97.0705 52.0654 91.7949 46.461C89.7879 44.3298 88.0781 41.8868 86.8773 39.2149C82.5882 39.1223 78.3014 39.154 74.0147 39.154C73.4155 39.1272 72.7603 39.3537 72.2098 39.0346C72.2707 33.9782 72.2634 28.9194 72.2123 23.8654C71.2916 25.0686 70.2516 26.1768 69.3017 27.3581C68.42 28.2983 67.7355 29.5697 66.4568 30.0203C65.5654 30.2907 64.7446 29.6866 64.1527 29.0899C62.8667 27.5895 61.6269 26.0453 60.3433 24.5474C60.1996 24.4768 59.9147 24.3355 59.7734 24.2649C59.693 29.2214 59.7734 34.1804 59.7198 39.1369C57.9515 39.2685 56.1759 39.1321 54.4052 39.1394C54.393 32.4194 54.3809 25.6994 54.4101 18.9819C54.4004 17.937 54.773 16.8069 55.6523 16.1834C56.5754 15.4186 58.0977 15.3893 58.9672 16.2491C60.3409 17.4889 61.5125 18.9308 62.8277 20.229C62.7132 20.3142 62.4843 20.4847 62.3698 20.57C62.6962 20.4019 62.9738 20.4506 63.1979 20.7112C64.0967 21.7439 65.127 22.6598 65.9161 23.7826C66.8124 23.047 67.4481 22.0581 68.2884 21.2641C69.2457 20.3581 70.0178 19.2815 70.953 18.356C71.8104 17.4864 72.5557 16.4488 73.6396 15.8424C74.9938 15.1701 76.6135 15.9836 77.2443 17.2648C77.5098 17.8688 77.5902 18.5362 77.5878 19.1938C77.5951 24.087 77.5853 28.9803 77.5951 33.8735C80.0453 33.8881 82.498 33.9173 84.9483 33.8662C83.8157 28.6563 84.0081 23.1104 85.8933 18.0953C87.8419 12.7004 91.5392 7.9411 96.3033 4.73579ZM100.105 9.20521C95.7577 11.9672 92.4526 16.3173 90.9839 21.2519C89.7539 25.3487 89.7612 29.7938 91.0033 33.8857C93.6363 33.893 96.2717 33.9149 98.907 33.8735C98.89 32.2489 99.5111 30.6609 100.573 29.4406C102.453 27.2534 105.832 26.6396 108.396 27.9159C110.559 29.0119 112.099 31.3623 111.977 33.8199C112.069 36.0705 110.774 38.2723 108.847 39.4024C107.256 40.401 105.225 40.5399 103.447 40.026C102.699 39.836 102.117 39.1905 101.313 39.1954C99.2773 39.0663 97.2337 39.2222 95.1951 39.1442C94.6203 39.1175 94.0528 39.193 93.4877 39.2685C95.5897 42.3033 98.2884 44.9776 101.601 46.6631C105.5 48.7821 110.084 49.6127 114.481 49.0281C119.062 48.4923 123.395 46.3513 126.742 43.1972C129.84 40.2305 132.022 36.3238 132.957 32.1393C133.486 29.7475 133.484 27.2753 133.291 24.8445C133.091 23.5488 132.921 22.2238 132.366 21.0206C129.774 21.0839 127.18 21.0327 124.589 21.0522C124.55 21.9632 124.464 22.8887 124.094 23.7339C123.01 26.5203 119.824 28.2837 116.887 27.6821C113.375 27.1803 110.766 23.4051 111.624 19.9416C112.181 16.5706 115.735 14.1642 119.077 14.7707C120.29 14.8413 121.24 15.8521 122.479 15.7352C124.925 15.7279 127.373 15.7474 129.818 15.7206C129.764 15.5988 129.66 15.3577 129.606 15.2359C125.787 9.55838 119.106 5.87811 112.24 5.85375C107.977 5.68569 103.7 6.93762 100.105 9.20521ZM197.142 15.6913C199.183 15.7328 201.224 15.6816 203.267 15.7157C201.041 19.0038 198.73 22.2384 196.474 25.507C196.216 25.9649 195.602 26.3522 195.734 26.9319C198.328 31.0506 201.027 35.1084 203.579 39.2514C201.446 39.2953 199.31 39.2222 197.176 39.2953C195.493 36.7963 193.988 34.1828 192.351 31.6546C190.794 34.1706 189.348 36.7524 187.789 39.266C185.604 39.2636 183.417 39.2636 181.235 39.2758C181.31 39.0955 181.466 38.7351 181.541 38.5548C183.792 35.1376 186.018 31.7058 188.252 28.2788C188.364 28.2959 188.588 28.3324 188.7 28.3494L188.305 28.2447C188.546 27.8185 188.805 27.402 189.09 27.0001C186.552 23.3076 184.031 19.603 181.512 15.8959C182.094 15.611 182.745 15.706 183.371 15.7035C184.844 15.7157 186.32 15.7035 187.794 15.7084C189.404 18.0004 190.848 20.4141 192.543 22.6451C194.019 20.2899 195.573 17.9857 197.142 15.6913ZM6.48619 17.3476C7.9281 16.1907 9.82547 15.7011 11.6546 15.7035C13.5204 15.7108 15.3885 15.7084 17.2566 15.7035C19.3732 15.6962 21.5483 16.4708 23.0072 18.0369C24.2518 19.4057 24.7901 21.2836 24.7341 23.1079C24.7536 28.5029 24.7926 33.8979 24.7146 39.2904C16.5284 39.2271 8.33972 39.2904 0.15593 39.2587L0.0390182 39.193C-0.0389227 37.4417 0.0244044 35.6832 0.0219687 33.9295C1.33479 33.9271 2.6476 33.9149 3.96042 33.9393C4.04567 30.1689 3.94337 26.3985 4.01887 22.6281C4.07733 20.6382 4.88353 18.5922 6.48619 17.3476ZM10.4636 21.6733C9.45038 22.4625 9.4382 23.88 9.43577 25.0467C9.49422 28.0109 9.33347 30.9775 9.54781 33.9344C12.7921 33.9149 16.0364 33.9319 19.2807 33.9198C19.3148 30.8021 19.2685 27.6821 19.2977 24.5644C19.2953 23.6194 19.1759 22.5672 18.5281 21.8316C17.2859 20.7721 15.5907 21.0741 14.0903 21.0473C12.87 21.0547 11.4915 20.8598 10.4636 21.6733ZM31.0887 17.3671C32.477 16.2735 34.2648 15.7693 36.016 15.7474C38.2861 15.7255 40.5561 15.7425 42.8261 15.7352C44.95 15.7717 47.186 16.4318 48.6693 18.0223C49.9236 19.396 50.401 21.2836 50.4375 23.103C50.4716 25.943 50.4449 28.7854 50.4546 31.6254C50.4083 33.4619 50.0722 35.4396 48.7813 36.8401C48.1651 37.5026 46.5015 38.6279 45.6442 38.8666C44.7284 39.1077 43.7833 39.2685 42.8359 39.2636C40.561 39.2612 38.2861 39.2733 36.0136 39.2612C33.6778 39.2344 31.2154 38.2942 29.8344 36.3359C28.7675 34.8307 28.5678 32.9138 28.5751 31.1188C28.5897 28.2837 28.5386 25.4461 28.6092 22.611C28.6872 20.6382 29.4617 18.5727 31.0887 17.3671ZM34.5352 21.8657C34.1966 22.6354 33.9043 23.444 33.9384 24.2965C33.9531 26.7054 33.88 29.1167 33.9774 31.5207C34.0456 32.8359 35.1977 33.8613 36.4813 33.9417C38.3543 33.9807 40.2322 33.9393 42.1076 33.9636C42.9845 34.0026 43.871 33.6348 44.4531 32.9747C45.0621 32.3634 45.0109 31.4281 45.0791 30.6341C45.101 28.5272 45.0864 26.418 45.0962 24.3111C45.0645 23.4099 44.9427 22.365 44.1901 21.7561C43.6031 21.3055 42.8627 21.0133 42.1149 21.0449C40.3247 21.0547 38.5345 21.0498 36.7443 21.0473C35.9284 21.0254 35.2172 21.4833 34.5352 21.8657ZM161.937 17.9565C163.323 16.3758 165.503 15.7839 167.539 15.7084C171.419 15.7157 175.301 15.6913 179.184 15.7181C179.162 17.4913 179.291 19.2718 179.123 21.0376C175.584 20.9986 172.045 21.0303 168.506 21.0206C167.514 20.9913 166.489 21.364 165.909 22.2019C165.342 22.8449 165.505 23.7485 165.437 24.5352C165.887 24.5961 166.343 24.6375 166.803 24.6302C170.934 24.6131 175.065 24.6424 179.196 24.6156C179.098 26.4326 179.379 28.2569 179.142 30.0641C174.592 30.0349 170.043 30.0666 165.493 30.0495C165.456 30.846 165.374 31.7009 165.763 32.434C166.219 33.4862 167.432 33.9782 168.523 33.9393C172.074 33.9271 175.625 33.9393 179.176 33.932C179.284 35.7075 179.225 37.4783 179.181 39.2563C175.384 39.2806 171.587 39.2563 167.792 39.266C165.661 39.2441 163.374 38.6425 161.915 36.9984C160.558 35.6734 160.161 33.686 160.1 31.8592C160.088 28.8536 160.071 25.848 160.122 22.8424C160.164 21.0815 160.678 19.2425 161.937 17.9565ZM205.182 15.6938C206.86 15.7474 208.543 15.6548 210.219 15.7303C210.304 15.7742 210.472 15.8643 210.555 15.9081C210.489 18.5216 210.552 21.135 210.506 23.7485C213.799 24.0213 217.112 23.7728 220.41 23.8678C220.867 23.8971 221.323 23.8289 221.776 23.7412C221.715 21.0912 221.808 18.4388 221.725 15.7912C223.422 15.5939 225.142 15.7912 226.849 15.6694C226.896 15.818 226.983 16.1127 227.03 16.2613C227.027 23.5756 227.022 30.8898 227.03 38.2017C227.032 38.5767 226.927 38.9372 226.84 39.2977C225.144 39.2441 223.449 39.2685 221.756 39.266C221.752 35.8756 221.778 32.4827 221.739 29.0899C218.01 29.1508 214.281 29.1142 210.552 29.1094C210.482 32.4949 210.555 35.8853 210.518 39.2733C208.738 39.266 206.957 39.2514 205.179 39.2831C205.15 31.4208 205.14 23.5561 205.182 15.6938ZM231.17 15.7279C232.98 15.6816 234.795 15.7108 236.607 15.7157C236.653 20.7673 236.585 25.8188 236.638 30.8703C239.495 26.9855 242.145 22.952 244.949 19.0282C245.684 17.9224 246.517 16.8824 247.182 15.7279C249.097 15.6597 251.016 15.7669 252.93 15.6694C253.074 21.7902 252.952 27.9183 252.991 34.044C252.955 35.7952 253.069 37.5513 252.926 39.3001C251.216 39.2368 249.503 39.2587 247.794 39.2904C247.703 34.3192 247.828 29.3432 247.733 24.372C247.056 24.8494 246.744 25.6483 246.232 26.2694C243.234 30.6048 240.238 34.9403 237.228 39.2685C235.228 39.2782 233.228 39.2295 231.231 39.305C231.08 36.4236 231.202 33.5349 231.163 30.6487C231.165 25.6751 231.153 20.7015 231.17 15.7279ZM257.035 15.8643C258.798 15.6061 260.598 15.7693 262.376 15.7498C262.454 18.429 262.4 21.1107 262.395 23.7899C263.394 23.9068 264.434 23.9701 265.425 23.8264C266.551 22.8229 267.442 21.5954 268.46 20.4872C269.741 18.9551 271.156 17.5376 272.382 15.9568C272.815 15.5915 273.443 15.7717 273.97 15.7254C275.601 15.8034 277.253 15.5915 278.87 15.8813C275.743 19.3594 272.92 23.1128 269.771 26.569C270.645 28.1619 271.885 29.521 272.903 31.0238C274.871 33.7103 276.797 36.4285 278.829 39.0663C278.39 39.3269 277.871 39.2806 277.389 39.2806C275.752 39.249 274.118 39.2782 272.486 39.2538C270.85 37.1227 269.288 34.9354 267.673 32.7896C266.845 31.6108 265.881 30.5293 265.116 29.3066C264.222 28.9973 263.284 29.2311 262.376 29.2896C262.434 32.5388 262.42 35.7952 262.393 39.0444C262.325 39.1004 262.188 39.2076 262.12 39.2636C260.44 39.3001 258.759 39.2344 257.081 39.2806C257.017 31.4768 257.11 23.6681 257.035 15.8643ZM280.344 18.5289C281.788 16.5682 284.299 15.7401 286.657 15.7011C288.764 15.7011 290.873 15.6962 292.982 15.7084C294.965 15.7571 296.96 16.5317 298.331 17.993C299.544 19.2864 299.987 21.1229 299.977 22.8595C300.007 26.3449 299.982 29.8303 299.992 33.3182C299.948 35.3081 300.075 37.3029 299.921 39.2904C295.981 39.2319 292.04 39.2806 288.099 39.266C285.934 39.2733 283.62 39.4219 281.674 38.2942C280.044 37.527 278.929 35.973 278.41 34.2827C278.11 33.0088 278.164 31.6887 278.198 30.3905C278.181 28.3641 279.25 26.3522 280.945 25.2415C282.295 24.2405 284.014 23.8459 285.673 23.863C288.106 23.8995 290.537 23.6876 292.97 23.8337C293.581 23.88 294.198 23.8021 294.799 23.6706C294.692 23.0056 294.734 22.292 294.407 21.6879C293.988 21.0717 293.24 20.7112 292.502 20.7502C290.542 20.7453 288.581 20.7258 286.625 20.7599C285.98 20.7234 285.42 21.0425 284.903 21.381C284.713 21.8414 284.538 22.3041 284.38 22.7767C282.641 22.7523 280.904 22.7962 279.165 22.7669C279.065 21.2714 279.396 19.7224 280.344 18.5289ZM283.659 30.7656C283.568 31.6717 283.488 32.8505 284.341 33.4399C285.259 34.2169 286.521 33.9734 287.626 34.0781C290.021 34.1049 292.42 34.061 294.809 33.9393C294.731 32.3293 294.78 30.7193 294.768 29.1069C291.901 29.0923 289.034 29.0899 286.17 29.1069C285.139 29.141 283.895 29.655 283.659 30.7656ZM124.978 27.5457C126.393 27.5968 127.806 27.5554 129.221 27.5773C129.353 34.2072 125.178 40.6203 119.172 43.3604C118.952 43.4456 118.728 43.5236 118.504 43.5918C118.185 43.1631 117.774 43.6673 117.686 44.0058C115.801 44.6659 113.811 44.9825 111.816 44.9898C111.801 43.5309 111.799 42.0719 111.818 40.6105C118.18 40.7834 124.099 35.5249 124.766 29.2117C124.805 28.6515 124.854 28.0913 124.978 27.5457Z" fill="white"/>
</svg>
