<svg width="365" height="99" viewBox="0 0 365 99" fill="none" xmlns="http://www.w3.org/2000/svg">
<path d="M43.0936 0L0 25.9776L34.8517 45.8429L59.5878 29.4145V8.78789L43.0936 0Z" fill="#E3E7EC"/>
<path d="M0 73.7243L34.8517 53.0977V45.8433L0 25.978V73.7243Z" fill="#C3C7CC"/>
<path d="M0 73.7238L34.8517 98.9347V53.0972L0 73.7238Z" fill="#E3E7EC"/>
<path d="M46.4655 98.9347L85.8167 76.0186L46.4655 53.0972V98.9347Z" fill="#2465FF"/>
<path d="M85.8166 29.0337L46.4708 53.0972L85.8166 76.0186V29.0337Z" fill="#56B4FF"/>
<path d="M70.8257 21.0127L85.8166 29.0339L70.8257 38.2024V21.0127Z" fill="#2465FF"/>
<path d="M131.181 15.1305H126.142V28.2454H124.088V15.1305H119.07V13.27H131.181V15.1305Z" fill="white"/>
<path d="M144.61 26.3848V28.2454H133.95V13.27H144.319V15.1305H136.046V19.7309H143.414V21.5485H136.046V26.3848H144.61Z" fill="white"/>
<path d="M160.12 13.27V28.2454H158.061V15.1305H151.555L151.407 19.5164C151.338 21.5861 151.174 23.2589 150.915 24.5458C150.655 25.8272 150.248 26.7977 149.687 27.4465C149.126 28.0952 148.374 28.4223 147.421 28.4223C146.987 28.4223 146.548 28.3633 146.098 28.2507L146.246 26.3473C146.468 26.4063 146.696 26.4331 146.918 26.4331C147.522 26.4331 148.003 26.1865 148.369 25.6932C148.734 25.1999 149.004 24.4653 149.189 23.4788C149.369 22.4922 149.491 21.2 149.544 19.5862L149.777 13.2754H160.12V13.27Z" fill="white"/>
<path d="M175.566 26.3848V28.2454H164.905V13.27H175.275V15.1305H167.007V19.7309H174.37V21.5485H167.007V26.3848H175.566Z" fill="white"/>
<path d="M192.69 28.2454L192.669 17.3342L187.36 26.4277H186.397L181.087 17.3986V28.2454H179.07V13.27H180.791L186.921 23.7951L192.966 13.27H194.686L194.707 28.2454H192.69Z" fill="white"/>
<path d="M210.153 26.3848V28.2454H199.492V13.27H209.857V15.1305H201.589V19.7309H208.957V21.5485H201.589V26.3848H210.153Z" fill="white"/>
<path d="M227.653 26.3848V31.5214H225.705V28.2507H213.615L213.594 31.5214H211.641L211.662 26.3848H212.377C213.298 26.3259 213.949 25.5806 214.33 24.149C214.706 22.7174 214.939 20.696 215.023 18.0849L215.166 13.27H225.494V26.3848H227.653ZM216.373 23.5163C216.114 24.8996 215.701 25.854 215.124 26.3848H223.413V15.1305H216.971L216.865 18.2725C216.797 20.3851 216.632 22.133 216.373 23.5163Z" fill="white"/>
<path d="M230.739 13.27H232.82V24.8192L241.506 13.27H243.438V28.2454H241.379V16.7123L232.671 28.2454H230.739V13.27Z" fill="white"/>
<path d="M262.828 26.3848V31.6447H260.875V28.2454H248.223V13.27H250.298V26.3848H258.487V13.27H260.562V26.3848H262.828Z" fill="white"/>
<path d="M265.829 13.27H267.904V24.8192L276.596 13.27H278.528V28.2454H276.469V16.7123L267.761 28.2454H265.829V13.27Z" fill="white"/>
<path d="M295.943 13.27V28.2454H293.847V21.57H285.41V28.2454H283.308V13.27H285.41V19.7095H293.847V13.27H295.943Z" fill="white"/>
<path d="M303.322 27.4203C302.142 26.7555 301.216 25.844 300.543 24.6805C299.871 23.517 299.538 22.2087 299.538 20.7557C299.538 19.3027 299.871 17.989 300.543 16.8309C301.216 15.6674 302.147 14.7559 303.338 14.091C304.529 13.4315 305.853 13.0991 307.324 13.0991C308.473 13.0991 309.521 13.2975 310.474 13.6889C311.427 14.0803 312.237 14.6594 312.909 15.4315L311.543 16.7773C310.442 15.5923 309.061 15.0025 307.409 15.0025C306.319 15.0025 305.334 15.2545 304.45 15.7532C303.566 16.2518 302.878 16.9435 302.38 17.8175C301.883 18.6968 301.634 19.678 301.634 20.7611C301.634 21.8441 301.883 22.8253 302.38 23.6993C302.878 24.5786 303.566 25.2649 304.45 25.7636C305.334 26.2622 306.319 26.5142 307.409 26.5142C309.045 26.5142 310.426 25.919 311.543 24.718L312.909 26.0638C312.237 26.8359 311.421 27.4203 310.463 27.8171C309.505 28.2139 308.452 28.4123 307.303 28.4123C305.832 28.4176 304.503 28.0852 303.322 27.4203Z" fill="white"/>
<path d="M321.129 21.6558H318.065V28.2454H316.005V13.27H318.065V19.7738H321.172L325.788 13.27H328.032L322.786 20.5245L328.281 28.2454H325.894L321.129 21.6558Z" fill="white"/>
<path d="M330.657 13.27H332.732V24.8192L341.424 13.27H343.351V28.2454H341.297V16.7123L332.589 28.2454H330.657V13.27Z" fill="white"/>
<path d="M358.803 26.3848V28.2454H348.136V13.27H358.506V15.1305H350.238V19.7309H357.601V21.5485H350.238V26.3848H358.803Z" fill="white"/>
<path d="M121.087 40.7764H123.162V52.3256L131.853 40.7764H133.78V55.7464H131.726V44.2186L123.019 55.7464H121.087V40.7764Z" fill="white"/>
<path d="M151.201 40.7764V55.7464H149.105V49.0764H140.667V55.7464H138.565V40.7764H140.667V47.2105H149.105V40.7764H151.201Z" fill="white"/>
<path d="M170.151 52.9046C168.791 54.0306 166.88 54.6365 164.402 54.7223V56.304H162.449V54.7223C159.972 54.6204 158.05 54.0091 156.69 52.8832C155.324 51.7572 154.641 50.2077 154.641 48.2399C154.641 46.2561 155.324 44.7012 156.69 43.5752C158.05 42.4492 159.972 41.8326 162.449 41.7361V40.2188H164.402V41.7361C166.864 41.838 168.78 42.4492 170.14 43.5859C171.501 44.7172 172.184 46.2721 172.184 48.2399C172.189 50.2238 171.511 51.7787 170.151 52.9046ZM158.177 51.65C159.178 52.4703 160.602 52.9368 162.449 53.0494V43.4251C160.575 43.5377 159.146 44.0041 158.161 44.8138C157.172 45.6287 156.679 46.7654 156.679 48.2345C156.679 49.6929 157.177 50.8296 158.177 51.65ZM168.695 51.65C169.68 50.8296 170.172 49.6876 170.172 48.2185C170.172 46.7815 169.669 45.6448 168.674 44.8298C167.674 44.0095 166.25 43.543 164.402 43.4304V53.0548C166.276 52.9422 167.705 52.4703 168.695 51.65Z" fill="white"/>
<path d="M178.234 54.9257C177.043 54.2608 176.111 53.3493 175.434 52.1751C174.751 51.0063 174.412 49.7034 174.412 48.2611C174.412 46.8187 174.751 45.5158 175.434 44.347C176.111 43.1781 177.043 42.2613 178.234 41.5964C179.425 40.9369 180.759 40.5991 182.241 40.5991C183.707 40.5991 185.036 40.9315 186.227 41.5964C187.418 42.2613 188.345 43.1728 189.017 44.3363C189.689 45.4998 190.023 46.808 190.023 48.2611C190.023 49.7141 189.684 51.0223 189.017 52.1858C188.345 53.3493 187.418 54.2608 186.227 54.9257C185.036 55.5906 183.707 55.923 182.241 55.923C180.754 55.9176 179.42 55.5906 178.234 54.9257ZM185.147 53.2636C186.01 52.7649 186.688 52.0786 187.185 51.1993C187.678 50.32 187.926 49.3441 187.926 48.2611C187.926 47.178 187.678 46.1968 187.185 45.3175C186.688 44.4435 186.01 43.7518 185.147 43.2532C184.284 42.7545 183.321 42.5025 182.241 42.5025C181.161 42.5025 180.187 42.7545 179.314 43.2532C178.441 43.7518 177.752 44.4435 177.255 45.3175C176.763 46.1968 176.514 47.178 176.514 48.2611C176.514 49.3441 176.763 50.3253 177.255 51.1993C177.752 52.0786 178.435 52.7649 179.314 53.2636C180.187 53.7622 181.167 54.0142 182.241 54.0142C183.316 54.0142 184.284 53.7676 185.147 53.2636Z" fill="white"/>
<path d="M203.859 42.165C204.95 43.0926 205.495 44.3687 205.495 45.9933C205.495 47.6179 204.944 48.894 203.859 49.8216C202.769 50.7492 201.271 51.2103 199.371 51.2103H195.739V55.7463H193.643V40.771H199.376C201.266 40.7764 202.764 41.2375 203.859 42.165ZM202.345 48.4865C203.044 47.9075 203.393 47.0764 203.393 45.9933C203.393 44.9103 203.044 44.0792 202.345 43.5001C201.647 42.9211 200.63 42.6315 199.302 42.6315H195.734V49.3498H199.302C200.63 49.3498 201.647 49.0602 202.345 48.4865Z" fill="white"/>
<path d="M222.238 55.7463L222.222 44.8352L216.908 53.9287H215.944L210.635 44.8995V55.7463H208.618V40.771H210.344L216.468 51.2961L222.513 40.771H224.234L224.255 55.7463H222.238Z" fill="white"/>
<path d="M238.589 52.0039H230.782L229.167 55.7464H227.007L233.661 40.7764H235.742L242.411 55.7464H240.209L238.589 52.0039ZM237.854 50.2935L234.683 42.9532L231.512 50.2935H237.854Z" fill="white"/>
<path d="M259.763 53.8858V59.1511H257.81V55.7464H245.159V40.7764H247.234V53.8858H255.423V40.7764H257.498V53.8858H259.763Z" fill="white"/>
<path d="M262.765 40.7764H264.845V52.3256L273.531 40.7764H275.463V55.7464H273.404V44.2186L264.697 55.7464H262.765V40.7764Z" fill="white"/>
<path d="M282.848 54.9257C281.657 54.2608 280.725 53.3493 280.047 52.1751C279.364 51.0063 279.026 49.7034 279.026 48.2611C279.026 46.8187 279.364 45.5158 280.047 44.347C280.725 43.1781 281.662 42.2613 282.848 41.5964C284.039 40.9369 285.373 40.5991 286.855 40.5991C288.326 40.5991 289.655 40.9315 290.841 41.5964C292.032 42.2613 292.958 43.1728 293.63 44.3363C294.303 45.4998 294.636 46.808 294.636 48.2611C294.636 49.7141 294.303 51.0223 293.63 52.1858C292.958 53.3493 292.032 54.2608 290.841 54.9257C289.65 55.5906 288.321 55.923 286.855 55.923C285.373 55.9176 284.039 55.5906 282.848 54.9257ZM289.766 53.2636C290.629 52.7649 291.301 52.0786 291.799 51.1993C292.296 50.32 292.545 49.3441 292.545 48.2611C292.545 47.178 292.296 46.1968 291.799 45.3175C291.301 44.4435 290.624 43.7518 289.766 43.2532C288.903 42.7545 287.935 42.5025 286.86 42.5025C285.78 42.5025 284.806 42.7545 283.933 43.2532C283.059 43.7518 282.371 44.4435 281.874 45.3175C281.376 46.1968 281.127 47.178 281.127 48.2611C281.127 49.3441 281.376 50.3253 281.874 51.1993C282.371 52.0786 283.054 52.7649 283.933 53.2636C284.806 53.7622 285.785 54.0142 286.86 54.0142C287.935 54.0142 288.903 53.7676 289.766 53.2636Z" fill="white"/>
<path d="M310.887 40.7764V55.7464H308.791V49.0764H300.353V55.7464H298.251V40.7764H300.353V47.2105H308.791V40.7764H310.887Z" fill="white"/>
<path d="M328.307 40.7764V55.7464H326.211V49.0764H317.768V55.7464H315.672V40.7764H317.768V47.2105H326.211V40.7764H328.307Z" fill="white"/>
<path d="M343.552 47.1885C344.484 47.9874 344.95 49.1616 344.95 50.7165C344.95 52.3572 344.447 53.6065 343.452 54.459C342.451 55.3169 341.022 55.7405 339.159 55.7405H333.093V40.7651H335.173V45.9821H339.54C341.281 45.9928 342.626 46.395 343.552 47.1885ZM341.874 53.2097C342.525 52.6467 342.848 51.8318 342.848 50.7594C342.848 48.7059 341.588 47.6818 339.069 47.6818H335.168V54.0569H339.069C340.292 54.0569 341.223 53.7781 341.874 53.2097ZM347.279 40.7759H349.354V55.7512H347.279V40.7759Z" fill="white"/>
<path d="M364.8 53.8858V55.7464H354.139V40.7764H364.509V42.6369H356.241V47.2319H363.604V49.0549H356.241V53.8858H364.8Z" fill="white"/>
<path d="M123.675 82.4257C122.495 81.7609 121.568 80.8494 120.896 79.6859C120.224 78.5224 119.89 77.2141 119.89 75.7611C119.89 74.308 120.224 72.9944 120.896 71.8363C121.568 70.6728 122.495 69.7613 123.686 69.0964C124.877 68.4369 126.205 68.0991 127.672 68.0991C128.82 68.0991 129.868 68.2975 130.821 68.6889C131.774 69.0803 132.584 69.6594 133.256 70.4315L131.89 71.7773C130.784 70.5923 129.408 70.0025 127.756 70.0025C126.666 70.0025 125.676 70.2545 124.797 70.7532C123.913 71.2518 123.225 71.9435 122.728 72.8175C122.23 73.6968 121.981 74.678 121.981 75.7611C121.981 76.8441 122.23 77.8253 122.728 78.6993C123.225 79.5786 123.913 80.2649 124.797 80.7636C125.676 81.2622 126.666 81.5142 127.756 81.5142C129.392 81.5142 130.768 80.9191 131.89 79.718L133.256 81.0638C132.584 81.8359 131.769 82.4203 130.811 82.8171C129.847 83.2139 128.799 83.4123 127.65 83.4123C126.184 83.423 124.861 83.0906 123.675 82.4257Z" fill="white"/>
<path d="M136.363 68.2769H138.438V79.826L147.13 68.2769H149.062V83.2522H147.003V71.7191L138.295 83.2522H136.363V68.2769Z" fill="white"/>
<path d="M156.436 82.4257C155.255 81.7609 154.329 80.8494 153.657 79.6859C152.985 78.5224 152.651 77.2141 152.651 75.7611C152.651 74.308 152.985 72.9944 153.657 71.8363C154.329 70.6728 155.255 69.7613 156.446 69.0964C157.637 68.4369 158.966 68.0991 160.432 68.0991C161.581 68.0991 162.629 68.2975 163.582 68.6889C164.535 69.0803 165.345 69.6594 166.017 70.4315L164.651 71.7773C163.545 70.5923 162.169 70.0025 160.517 70.0025C159.427 70.0025 158.437 70.2545 157.558 70.7532C156.679 71.2518 155.986 71.9435 155.488 72.8175C154.991 73.6968 154.747 74.678 154.747 75.7611C154.747 76.8441 154.996 77.8253 155.488 78.6993C155.986 79.5786 156.674 80.2649 157.558 80.7636C158.442 81.2622 159.427 81.5142 160.517 81.5142C162.153 81.5142 163.529 80.9191 164.651 79.718L166.017 81.0638C165.345 81.8359 164.53 82.4203 163.571 82.8171C162.613 83.2139 161.56 83.4123 160.411 83.4123C158.945 83.423 157.622 83.0906 156.436 82.4257Z" fill="white"/>
<path d="M179.049 70.1374H174.015V83.2522H171.956V70.1374H166.938V68.2769H179.049V70.1374Z" fill="white"/>
<path d="M192.484 81.3917V83.2522H181.818V68.2769H192.187V70.1374H183.919V74.7377H191.282V76.5554H183.919V81.3917H192.484Z" fill="white"/>
<path d="M209.608 83.2522L209.587 72.3411L204.278 81.4345H203.309L198 72.4054V83.2522H195.983V68.2769H197.708L203.833 78.8019L209.878 68.2769H211.598L211.62 83.2522H209.608Z" fill="white"/>
<path d="M226.865 74.6949C227.796 75.4938 228.262 76.668 228.262 78.2229C228.262 79.8636 227.759 81.1129 226.764 81.9654C225.764 82.8232 224.334 83.2468 222.471 83.2468H216.405V68.2715H218.485V73.4885H222.852C224.599 73.4992 225.938 73.896 226.865 74.6949ZM225.192 80.7161C225.843 80.1531 226.166 79.3381 226.166 78.2658C226.166 76.2122 224.906 75.1828 222.392 75.1828H218.49V81.5579H222.392C223.604 81.5632 224.541 81.2791 225.192 80.7161ZM230.591 68.2769H232.666V83.2522H230.591V68.2769Z" fill="white"/>
</svg>
