<svg xmlns="http://www.w3.org/2000/svg" xmlns:xlink="http://www.w3.org/1999/xlink" width="175" height="47" viewBox="0 0 175 47"><defs><path id="ve3ka" d="M152.54 156.64l16.16-16.16c1-1.01 2.36-1.57 3.8-1.57 1.43 0 2.78.56 3.78 1.57l16.17 16.16a5.33 5.33 0 0 1 1.56 3.8c0 1.43-.56 2.78-1.56 3.78l-16.17 16.17c-1 1-2.35 1.56-3.79 1.56a5.33 5.33 0 0 1-3.8-1.56l-16.15-16.17a5.33 5.33 0 0 1 0-7.59zm24.52 24.52L193.22 165a6.45 6.45 0 0 0 0-9.14l-16.16-16.16a6.44 6.44 0 0 0-9.14 0l-16.16 16.16a6.46 6.46 0 0 0 0 9.14l16.16 16.16a6.44 6.44 0 0 0 9.14 0z"/><path id="ve3kb" d="M168.34 173h11.7l9.27-9.27a4.68 4.68 0 0 0 0-6.6l-9.28-9.27h-11.69l10.88 10.88a2.4 2.4 0 0 1 0 3.38z"/><path id="ve3kc" d="M176.82 160.43a4.33 4.33 0 0 0-8.65 0 4.33 4.33 0 0 0 8.65 0"/><path id="ve3kd" d="M167.34 172.25l6.58-6.57h-16.15l4.06 4.2 2.28 2.37c1.02 1.06 2.29.95 3.23 0"/><path id="ve3ke" d="M164.1 148.61l-2.27 2.36-4.06 4.21h16.15l-6.57-6.57c-.95-.94-2.22-1.06-3.24 0"/><path id="ve3kf" d="M230.02 168.43h.45v3.62h-.45zm-1.51 3.1c.18-.12.27-.31.27-.59a.68.68 0 0 0-.28-.58.88.88 0 0 0-.3-.14 1.37 1.37 0 0 0-.36-.05c-.15 0-.3 0-.44.02-.15.02-.29.04-.4.09v1.37l.3.04c.16.02.32.03.49.03.3 0 .53-.06.72-.18zm-1.97-3.1h.45v1.45a3.45 3.45 0 0 1 1.4-.05c.16.04.31.1.44.2s.23.21.3.36c.08.15.12.34.12.55 0 .21-.04.4-.11.55-.08.15-.18.27-.31.36-.13.1-.29.17-.47.21a2.5 2.5 0 0 1-.57.06 5.07 5.07 0 0 1-1.25-.16zm-3.41 3.11a9.43 9.43 0 0 0-.32-.7 37.38 37.38 0 0 0-.86-1.77 27.78 27.78 0 0 0-.2 2.98h-.43a45.28 45.28 0 0 1 .27-3.62h.47a7.88 7.88 0 0 1 .55 1.04 33.1 33.1 0 0 1 .73 1.56l.38-.81a29.29 29.29 0 0 1 .9-1.8h.47a40.21 40.21 0 0 1 .26 3.63h-.43l-.07-1.45c-.03-.48-.07-1-.13-1.53a10.23 10.23 0 0 0-.4.8 29.9 29.9 0 0 0-.46.97l-.19.41c-.05.13-.1.22-.12.3zm-3.28-1.6c0-.37-.1-.67-.26-.88a.86.86 0 0 0-.72-.31c-.16 0-.3.03-.44.1-.12.06-.24.15-.33.26-.1.11-.17.24-.23.38-.05.15-.08.3-.09.46zm-2.43-.54c.1-.23.2-.43.36-.59.14-.16.31-.28.5-.35.19-.08.38-.12.58-.12.45 0 .8.15 1.06.44.27.29.4.73.4 1.33a1.38 1.38 0 0 1-.01.22h-2.54c.01.44.12.78.33 1.02.2.24.53.36.98.36a1.97 1.97 0 0 0 .9-.19l.08.4a2.33 2.33 0 0 1-1 .21c-.32 0-.59-.05-.81-.15a1.45 1.45 0 0 1-.87-.99 2.75 2.75 0 0 1 .04-1.59zm-.7-.97v.38h-1.19v3.24h-.45v-3.24h-1.19v-.38zm-4.97 3.56a1.4 1.4 0 0 1-.53-.38 1.7 1.7 0 0 1-.33-.6 2.46 2.46 0 0 1-.11-.76c0-.29.04-.55.12-.78.07-.23.18-.43.33-.6.14-.17.32-.3.52-.39.2-.1.44-.14.7-.14.2 0 .38.02.55.05.17.04.3.08.4.13l-.13.39a1.51 1.51 0 0 0-.78-.15c-.4 0-.7.13-.92.39-.2.25-.3.62-.3 1.1 0 .21.02.4.06.59.05.18.13.33.23.46s.24.23.4.3c.17.07.37.11.61.11a1.59 1.59 0 0 0 .79-.18l.1.39a2.35 2.35 0 0 1-1.7.07zm-2.47-2.98a23.17 23.17 0 0 0-2.04 3.04h-.43v-3.62h.45v2.9a16.25 16.25 0 0 1 .94-1.5 19.87 19.87 0 0 1 1.1-1.4h.42v3.62h-.45zm-5.63 2.97c-.27-.1-.5-.27-.7-.49-.2-.21-.35-.48-.47-.8a3.17 3.17 0 0 1-.17-1.07c0-.4.06-.77.19-1.09.12-.31.28-.57.49-.79.2-.21.44-.38.71-.49.27-.1.56-.16.85-.16a3.28 3.28 0 0 1 1.18.23c.08.03.14.06.18.1l-.16.4a1.92 1.92 0 0 0-1.11-.3c-.3 0-.57.05-.8.15-.22.1-.41.25-.56.44-.16.18-.27.4-.35.66a3.06 3.06 0 0 0 0 1.73c.08.26.19.48.34.66.15.18.33.32.55.42.22.1.46.14.74.14.31 0 .57-.03.78-.08.2-.06.36-.12.47-.18l.13.4a3.1 3.1 0 0 1-.89.26c-.15.02-.33.03-.53.03-.31 0-.6-.06-.87-.17z"/><path id="ve3kg" d="M270.97 168.82a3.75 3.75 0 0 0-1.14-.03c-.12.02-.23.06-.33.12a.71.71 0 0 0-.23.24.67.67 0 0 0-.09.35c0 .14.03.25.08.34.05.1.12.17.22.22.09.05.2.1.33.11.14.03.29.04.45.04h.71zm-1.35 2.1a8.83 8.83 0 0 0-.63 1.12h-.47a13.37 13.37 0 0 1 .92-1.57.93.93 0 0 1-.66-.6 1.05 1.05 0 0 1-.07-.37 1.02 1.02 0 0 1 .43-.88c.14-.09.3-.16.48-.2a2.43 2.43 0 0 1 .9-.06 6.7 6.7 0 0 1 .9.15v3.53h-.45v-1.45h-.65a11.45 11.45 0 0 1-.47-.02l-.23.35zm-2.43-1.91c-.14.16-.3.37-.5.63a21.88 21.88 0 0 0-1.1 1.66l-.44.74h-.43v-3.62h.45v2.9a16.25 16.25 0 0 1 .95-1.5 20.98 20.98 0 0 1 1.09-1.4h.43v3.62h-.45zm-3.74 3.03h-.46v-1.68h-1.96v1.68h-.46v-3.62h.46v1.55h1.96v-1.55h.46zm-4.43-2.1c-.01-.37-.1-.67-.27-.88a.86.86 0 0 0-.71-.31c-.17 0-.31.03-.44.1a1.2 1.2 0 0 0-.56.64c-.05.14-.09.3-.1.45zm-2.44-.54c.1-.23.22-.43.36-.6a1.53 1.53 0 0 1 1.09-.47c.44.01.8.15 1.06.44.27.3.4.74.4 1.34a2.07 2.07 0 0 1-.02.22h-2.54c.02.44.13.78.33 1.02s.53.36.98.36a1.97 1.97 0 0 0 .9-.2l.09.4a2.34 2.34 0 0 1-1 .21c-.32 0-.6-.05-.82-.14a1.45 1.45 0 0 1-.86-1 2.8 2.8 0 0 1 .03-1.58zm-2.97-.6v.16a19.46 19.46 0 0 1-.04.96 5.58 5.58 0 0 1-.18 1c-.05.15-.12.3-.2.43a1.7 1.7 0 0 1-.27.37 1.37 1.37 0 0 1-.83.39l-.06-.38c.24-.05.42-.15.57-.29.14-.14.26-.34.35-.6.1-.25.15-.55.18-.88.02-.33.04-.7.04-1.1v-.44h2.22v3.62h-.45v-3.23zm-4.51 1.51v1.34a3.36 3.36 0 0 0 1.19.04c.14-.02.27-.05.38-.1a.7.7 0 0 0 .26-.22c.06-.1.1-.22.1-.37a.64.64 0 0 0-.09-.33.58.58 0 0 0-.22-.2c-.1-.06-.2-.1-.34-.12a2.38 2.38 0 0 0-.41-.04zm0-.37h.82c.28 0 .51-.05.68-.14.18-.1.26-.25.26-.47a.53.53 0 0 0-.09-.33.56.56 0 0 0-.24-.17c-.1-.04-.2-.07-.33-.08a3.98 3.98 0 0 0-1.1.05zm1.19-1.57c.17.02.34.06.49.12a.85.85 0 0 1 .55.84c0 .17-.06.33-.16.47a.9.9 0 0 1-.42.3c.26.07.45.18.57.34.11.15.17.34.17.57 0 .24-.05.43-.14.58a.95.95 0 0 1-.4.34 1.7 1.7 0 0 1-.54.15 5.52 5.52 0 0 1-1.28-.02 5 5 0 0 1-.49-.1v-3.46a3.6 3.6 0 0 1 1.17-.15c.14 0 .3 0 .48.02zm-3.67 3.33l.34-.05v-1.27a2.14 2.14 0 0 0-.7-.11c-.12 0-.24 0-.36.02a1 1 0 0 0-.34.1.69.69 0 0 0-.25.23c-.06.09-.1.21-.1.37 0 .13.03.25.07.34.04.1.1.17.19.22.08.06.18.1.3.12a5.29 5.29 0 0 0 .85.02zm.1-3.26a1.04 1.04 0 0 1 .62.7c.05.17.07.35.07.54v2.28l-.2.04a9.02 9.02 0 0 1-.7.1 5.7 5.7 0 0 1-.44.02c-.19 0-.36-.02-.52-.06a1.2 1.2 0 0 1-.42-.2.94.94 0 0 1-.28-.35 1.2 1.2 0 0 1-.1-.52c0-.2.03-.37.1-.5a.97.97 0 0 1 .32-.35c.14-.1.3-.16.49-.2a2.78 2.78 0 0 1 1.3.04v-.23l-.03-.36a.8.8 0 0 0-.12-.32.67.67 0 0 0-.27-.24.98.98 0 0 0-.45-.08 2.35 2.35 0 0 0-.88.14l-.07-.4a3.18 3.18 0 0 1 .97-.15c.24 0 .44.03.6.1zm-5.4 2.95a1.44 1.44 0 0 0 .37.21 1.75 1.75 0 0 0 .58.11c.23 0 .42-.04.57-.11a.99.99 0 0 0 .36-.32c.1-.13.17-.29.2-.47.05-.18.07-.37.07-.57 0-.47-.12-.84-.36-1.1a1.23 1.23 0 0 0-.94-.37 3.76 3.76 0 0 0-.86.1zm0 1.95h-.46v-4.79a4.2 4.2 0 0 1 1.32-.2c.26 0 .5.05.72.13a1.57 1.57 0 0 1 .92.97c.1.24.13.5.13.8 0 .27-.03.52-.1.75-.08.23-.18.43-.32.6-.14.16-.31.3-.52.39-.2.09-.43.14-.7.14a1.7 1.7 0 0 1-1-.3zm-1.73-1.3h-.46v-3.23h-1.88v3.23h-.46v-3.62h2.8zm-5.64-.81a17.04 17.04 0 0 1-1-2.8h.48a9.96 9.96 0 0 0 .46 1.52 17.53 17.53 0 0 0 .73 1.7 21.44 21.44 0 0 0 .9-3.23h.45a30.8 30.8 0 0 1-.51 1.98c-.2.64-.4 1.23-.63 1.75-.09.21-.18.4-.27.55-.1.15-.2.27-.31.37-.12.1-.25.17-.4.22a1.84 1.84 0 0 1-.86.03 1 1 0 0 1-.18-.07l.1-.37a.97.97 0 0 0 .43.1c.12 0 .24-.02.34-.05.1-.03.2-.07.29-.14.08-.07.16-.16.23-.26l.2-.41a18 18 0 0 1-.45-.89z"/><path id="ve3kh" d="M317.05 171.71a4.9 4.9 0 0 1-.83-.07v-1.37a5.12 5.12 0 0 1 .88-.1c.14 0 .27.01.39.04s.22.08.3.14a.69.69 0 0 1 .29.59c0 .28-.1.48-.28.6a1.4 1.4 0 0 1-.75.17zm-1.28.25l.23.06a4.12 4.12 0 0 0 .67.08l.38.02c.21 0 .4-.02.6-.06.18-.05.34-.11.47-.21.13-.1.24-.22.31-.37.08-.15.12-.33.12-.54 0-.22-.04-.4-.12-.55a1.01 1.01 0 0 0-.3-.36c-.14-.1-.3-.16-.46-.2a2.33 2.33 0 0 0-.56-.07 3.44 3.44 0 0 0-.89.11v-1.45h-.45zm-3.6-3.54v.39h1.18v3.23h.45v-3.23h1.2v-.39zm-1.4 3.7a2.35 2.35 0 0 0 .95-.2l-.1-.4c-.06.04-.15.07-.29.12-.13.04-.3.07-.49.07-.24 0-.44-.04-.6-.11a1.07 1.07 0 0 1-.64-.76 2.34 2.34 0 0 1-.07-.6c0-.47.1-.84.31-1.1.21-.26.52-.39.92-.39.2 0 .35.02.47.04.11.03.22.07.31.12l.12-.4a1.4 1.4 0 0 0-.4-.12 2.98 2.98 0 0 0-.55-.05c-.25 0-.48.04-.69.14-.2.09-.38.22-.52.38-.15.17-.26.37-.34.6-.07.24-.11.5-.11.78s.04.54.11.77c.08.23.18.43.33.6.14.16.32.29.53.38.22.08.47.13.74.13zm-3.04-1.88c0 .45-.1.8-.32 1.07-.2.27-.5.4-.85.4-.36 0-.65-.13-.86-.4a1.7 1.7 0 0 1-.31-1.07c0-.46.1-.82.31-1.09.21-.26.5-.4.86-.4s.64.14.85.4c.21.27.32.63.32 1.09zm.48 0c0-.29-.04-.55-.12-.78-.08-.23-.2-.43-.35-.6a1.53 1.53 0 0 0-1.18-.52 1.58 1.58 0 0 0-1.19.52 1.8 1.8 0 0 0-.34.6c-.08.23-.13.5-.13.78s.05.54.13.77a1.56 1.56 0 0 0 1.53 1.11 1.57 1.57 0 0 0 1.53-1.1c.08-.24.12-.5.12-.78zm-4.36-1.82h-.46v1.55h-1.96v-1.55h-.46v3.62h.46v-1.68h1.96v1.68h.46zm-4.67 3.7a2.35 2.35 0 0 0 .96-.2l-.1-.4c-.06.04-.16.07-.29.12-.13.04-.3.07-.5.07-.23 0-.43-.04-.6-.11a1.07 1.07 0 0 1-.63-.76 2.39 2.39 0 0 1-.07-.6c0-.47.1-.84.3-1.1.22-.26.52-.39.92-.39.2 0 .35.02.47.04.12.03.22.07.32.12l.11-.4a1.4 1.4 0 0 0-.39-.12 2.98 2.98 0 0 0-.55-.05c-.26 0-.49.04-.7.14-.2.09-.37.22-.52.38-.14.17-.25.37-.33.6-.08.24-.12.5-.12.78s.04.54.12.77c.07.23.18.43.32.6.14.16.32.29.54.38.21.08.46.13.74.13zm-4-.4c-.13 0-.26-.02-.38-.05a.82.82 0 0 1-.3-.12.55.55 0 0 1-.18-.22.78.78 0 0 1-.07-.35c0-.15.03-.27.1-.37a.7.7 0 0 1 .25-.22 1 1 0 0 1 .34-.1 2.53 2.53 0 0 1 1.05.09v1.27l-.34.04c-.13.02-.28.02-.46.02zm-.03-3.38c-.24 0-.43.02-.6.05-.17.03-.29.07-.37.1l.06.4.3-.09c.12-.04.32-.06.59-.06a1 1 0 0 1 .45.1c.11.05.2.13.26.22.07.1.1.2.13.32l.02.37v.23a3.07 3.07 0 0 0-.7-.1c-.2 0-.41.01-.6.05-.18.05-.35.11-.48.2-.14.1-.24.21-.32.35-.07.14-.1.3-.1.5 0 .21.03.38.1.53.06.14.16.26.27.35.12.09.26.15.42.2.17.04.34.06.53.06a5.7 5.7 0 0 0 1.34-.16v-2.28c0-.2-.02-.37-.07-.54a1.04 1.04 0 0 0-.63-.7 1.6 1.6 0 0 0-.6-.1zm-2.38.08h-2.79v3.62h.46v-3.23h1.88v3.23h.45zm-4.33 1.82c0 .45-.1.8-.31 1.07s-.5.4-.86.4-.64-.13-.85-.4a1.7 1.7 0 0 1-.32-1.07c0-.46.1-.82.32-1.09.2-.26.5-.4.85-.4.36 0 .65.14.86.4.2.27.31.63.31 1.09zm.48 0c0-.29-.04-.55-.12-.78-.08-.23-.2-.43-.34-.6a1.55 1.55 0 0 0-1.19-.52 1.58 1.58 0 0 0-1.53 1.12c-.08.23-.12.5-.12.78s.04.54.12.77c.08.24.2.43.35.6a1.53 1.53 0 0 0 1.18.52 1.57 1.57 0 0 0 1.53-1.12c.08-.23.12-.49.12-.77zm-5.65 1.47a2.95 2.95 0 0 1-.96-.16.83.83 0 0 1-.1-.05l-.12.42a2.8 2.8 0 0 0 1.18.2c.5 0 .88-.08 1.13-.26.26-.18.39-.45.39-.8a.9.9 0 0 0-.2-.62 1.12 1.12 0 0 0-.55-.33c.16-.05.3-.14.42-.27a.7.7 0 0 0 .19-.5c0-.33-.12-.58-.36-.74a1.82 1.82 0 0 0-1.05-.25 2.65 2.65 0 0 0-1.05.2l.1.4.32-.12a2.23 2.23 0 0 1 .98-.05c.11.01.21.04.3.09a.6.6 0 0 1 .21.19c.06.08.08.18.08.3s-.03.22-.1.3a.66.66 0 0 1-.23.18c-.1.04-.2.07-.3.08-.12.02-.21.02-.3.02h-.47v.39h.5c.1 0 .22 0 .33.02.12.02.24.05.34.1a.62.62 0 0 1 .37.6c0 .22-.1.39-.28.5-.19.1-.45.16-.77.16zm-4.47-1.77c.01-.16.04-.3.1-.45a1.19 1.19 0 0 1 .56-.65c.13-.06.27-.1.43-.1.31 0 .55.11.72.32.17.21.26.5.26.88zm-.5.29c0 .28.04.53.1.76a1.45 1.45 0 0 0 .87 1c.22.08.5.13.81.13a2.34 2.34 0 0 0 1-.21l-.08-.4c-.06.04-.17.08-.31.13-.15.04-.35.07-.6.07-.44 0-.77-.12-.97-.36a1.6 1.6 0 0 1-.33-1.02h2.54a1.48 1.48 0 0 0 .01-.22c0-.6-.13-1.05-.4-1.34a1.36 1.36 0 0 0-1.05-.43c-.2 0-.4.04-.59.11-.19.08-.35.2-.5.36-.15.16-.27.35-.36.59-.09.24-.14.51-.14.83zm-3.6-.75c.03-.07.1-.15.17-.22a1.61 1.61 0 0 1 .59-.34c.11-.03.23-.05.34-.05.24 0 .44.04.6.12.15.08.27.18.36.31.08.13.14.28.17.45a2.77 2.77 0 0 1-.01 1.07c-.04.18-.1.33-.2.46-.1.14-.2.24-.35.32a1.1 1.1 0 0 1-.52.11 1 1 0 0 1-.59-.15 1.1 1.1 0 0 1-.35-.42 1.85 1.85 0 0 1-.18-.58 4.74 4.74 0 0 1-.04-.67v-.23-.18zm.02-.51c.03-.3.08-.56.16-.77.08-.22.18-.4.32-.54s.31-.26.52-.34c.2-.08.44-.14.72-.17a10.68 10.68 0 0 0 .8-.13l-.05-.41-.12.03-.16.03-.24.04-.35.04c-.46.06-.83.18-1.11.36a1.9 1.9 0 0 0-.64.69c-.15.28-.24.59-.29.94a8.44 8.44 0 0 0 0 1.93c.04.27.12.52.24.73a1.38 1.38 0 0 0 1.33.73c.31 0 .57-.06.78-.17.2-.12.37-.27.5-.44.12-.18.2-.38.26-.6a2.76 2.76 0 0 0-.02-1.38 1.57 1.57 0 0 0-.28-.58c-.13-.16-.3-.29-.49-.37a1.74 1.74 0 0 0-1.62.16c-.1.06-.18.14-.26.22z"/><path id="ve3ki" d="M323.42 170.24c0 .45-.1.8-.3 1.07-.2.27-.48.4-.83.4a.99.99 0 0 1-.83-.4c-.2-.26-.3-.62-.3-1.07 0-.23.02-.43.07-.62.05-.18.13-.34.23-.47a1.02 1.02 0 0 1 .83-.4c.17 0 .33.04.47.1.14.08.26.18.36.3.1.13.17.29.22.47.06.19.08.4.08.62zm.49 0c0-.29-.04-.55-.12-.78-.08-.23-.2-.43-.34-.6a1.52 1.52 0 0 0-1.16-.52c-.22 0-.42.04-.6.12-.2.07-.36.18-.5.33a1.7 1.7 0 0 0-.34.51c-.09.2-.15.43-.17.68h-.8v-1.56h-.46v3.62h.45v-1.68h.8c.01.27.06.51.14.73.09.21.2.4.35.55a1.53 1.53 0 0 0 1.13.49 1.52 1.52 0 0 0 1.16-.52c.15-.16.26-.36.34-.6.08-.23.12-.49.12-.77z"/><path id="ve3kj" d="M207.16 158.3c-1.53 0-2.81-.6-3.98-1.44l-.41 2.52c1.09.73 2.7 1.3 4.46 1.3 4.37 0 7.06-3.07 7.06-7.66 0-4.58-2.58-7.57-6.85-7.57a8.1 8.1 0 0 0-4.46 1.22l.4 2.47a6.47 6.47 0 0 1 3.87-1.3c2.26 0 3.8 1.43 4.16 3.95l-6.78-.07.36 2.4 6.46-.03c-.3 2.67-1.81 4.2-4.29 4.2"/><path id="ve3kk" d="M225.4 160.44v-10.31h-7.18l-.52 4.12c-.36 2.92-.85 3.88-2.6 4.28l.34 2.14c2.97-.4 4.2-1.88 4.7-6.1l.25-2.4h2.43v8.26z"/><path id="ve3kl" d="M230.02 154.18c.2-1.67 1.04-2.5 2.07-2.5 1.24 0 1.88.9 2.05 2.5zm2.13-4.27c-2.69 0-4.69 2.03-4.69 5.38 0 3.7 2.15 5.35 5.03 5.35 1.67 0 3.01-.49 4.12-1.26l-.3-2a6 6 0 0 1-3.54 1.28c-1.58 0-2.67-.86-2.8-2.88h6.64l.02-.62c0-2.92-1.38-5.25-4.48-5.25z"/><path id="ve3km" d="M238.7 150.13v10.3h2.56v-4.86l3.73 5.01 2.78-.38-4.06-5.18 3.86-4.89h-2.94l-3.37 4.5v-4.5z"/><path id="ve3kn" d="M254.2 160.43v-8.17h3.4l-.33-2.13h-8.85v2.13h3.24v8.17z"/><path id="ve3ko" d="M261.78 153.62c.68-.87 1.4-1.45 2.33-1.45 1.15 0 1.98.98 1.98 2.97 0 2.26-1 3.35-2.32 3.35-.88 0-1.37-.15-1.99-.45zm6.9 1.37c0-3.46-1.74-5.08-3.9-5.08-1.42 0-2.42.79-3.15 1.62l-.23-1.4h-2.18v14.27l2.56-.39v-3.88c.62.23 1.4.4 2.39.4 2.37 0 4.5-1.7 4.5-5.54z"/><path id="ve3kp" d="M275.05 152c1.54 0 2.39 1.39 2.39 3.29 0 1.92-.8 3.26-2.39 3.26-1.5 0-2.32-1.39-2.32-3.26 0-1.92.8-3.29 2.32-3.29zm.02-2.09c-2.8 0-4.84 2.03-4.84 5.38s2.03 5.35 4.82 5.35c2.82 0 4.89-2 4.89-5.35 0-3.35-2.05-5.38-4.87-5.38z"/><path id="ve3kq" d="M282 150.13v10.3h2.56v-4.24h3.88v4.24H291v-10.3h-2.56v3.97h-3.88v-3.97z"/><path id="ve3kr" d="M293.61 150.13v10.3h2.45l4.25-6.72v6.72h2.47v-10.3h-2.56l-4.14 6.55v-6.55z"/><path id="ve3ks" d="M305.38 150.13v10.3h2.56v-4.86l3.73 5.01 2.78-.38-4.06-5.18 3.87-4.89h-2.95l-3.37 4.5v-4.5z"/><path id="ve3kt" d="M321.38 157.59c-.7.7-1.54 1.11-2.41 1.11-.8 0-1.26-.45-1.26-1.2 0-.98.7-1.85 3.67-2.21zm-3.29 3.05c1.54 0 2.6-.68 3.44-1.56l.21 1.35h2.2v-7.06c0-2.48-1.32-3.46-4-3.46-1.63 0-2.9.36-4.09.83l.32 2.05c1.11-.5 2.24-.83 3.44-.83 1.13 0 1.77.42 1.77 1.53v.3c-4.16.4-6.21 1.5-6.21 4 0 1.78 1.17 2.85 2.92 2.85z"/></defs><g><g transform="translate(-149 -137)"><use fill="#fff" xlink:href="#ve3ka"/></g><g transform="translate(-149 -137)"><use fill="#fff" xlink:href="#ve3kb"/></g><g transform="translate(-149 -137)"><use fill="#fff" xlink:href="#ve3kc"/></g><g transform="translate(-149 -137)"><use fill="#fff" xlink:href="#ve3kd"/></g><g transform="translate(-149 -137)"><use fill="#fff" xlink:href="#ve3ke"/></g><g transform="translate(-149 -137)"><use fill="#fff" xlink:href="#ve3kf"/></g><g transform="translate(-149 -137)"><use fill="#fff" xlink:href="#ve3kg"/></g><g transform="translate(-149 -137)"><use fill="#fff" xlink:href="#ve3kh"/></g><g transform="translate(-149 -137)"><use fill="#fff" xlink:href="#ve3ki"/></g><g transform="translate(-149 -137)"><use fill="#fff" xlink:href="#ve3kj"/></g><g transform="translate(-149 -137)"><use fill="#fff" xlink:href="#ve3kk"/></g><g transform="translate(-149 -137)"><use fill="#fff" xlink:href="#ve3kl"/></g><g transform="translate(-149 -137)"><use fill="#fff" xlink:href="#ve3km"/></g><g transform="translate(-149 -137)"><use fill="#fff" xlink:href="#ve3kn"/></g><g transform="translate(-149 -137)"><use fill="#fff" xlink:href="#ve3ko"/></g><g transform="translate(-149 -137)"><use fill="#fff" xlink:href="#ve3kp"/></g><g transform="translate(-149 -137)"><use fill="#fff" xlink:href="#ve3kq"/></g><g transform="translate(-149 -137)"><use fill="#fff" xlink:href="#ve3kr"/></g><g transform="translate(-149 -137)"><use fill="#fff" xlink:href="#ve3ks"/></g><g transform="translate(-149 -137)"><use fill="#fff" xlink:href="#ve3kt"/></g></g></svg>
