<svg width="250" height="59" viewBox="0 0 250 59" fill="none" xmlns="http://www.w3.org/2000/svg">
<g clip-path="url(#clip0_2360_86944)">
<path d="M87.6925 46.8108V35.1066C87.6925 33.5412 87.6925 31.7505 87.8569 30.3631L76.7515 46.8108H69.7079V18.1606H77.2093V29.865C77.2093 31.4541 77.2093 33.2565 77.045 34.6085L88.0447 18.1606H95.0883V46.8108H87.6925Z" fill="#106E53"/>
<path d="M126.608 18.1606V46.8108H119.107V35.8774H108.577V46.8108H101.075V18.1606H108.577V29.1298H119.107V18.1606H126.608Z" fill="#106E53"/>
<path d="M146.6 40.2646C148.338 40.2646 149.805 39.7666 149.805 37.5609C149.805 35.3552 148.338 34.8572 146.6 34.8572H139.991V40.2646H146.6ZM146.741 28.2994C152.494 28.2994 157.564 30.3983 157.564 37.5609C157.564 44.7234 152.494 46.8105 146.741 46.8105H132.49V18.1484H155.111V24.9079H139.991V28.2994H146.741Z" fill="#106E53"/>
<path d="M169.715 36.162H177.005L174.093 27.8611C173.745 26.9227 173.502 25.9483 173.366 24.9558C173.221 25.9477 172.974 26.9217 172.627 27.8611L169.715 36.162ZM158.163 46.8347L169.303 18.1846H177.416L188.556 46.8347H180.855L179.235 42.3284H167.497L165.877 46.8347H158.163Z" fill="#106E53"/>
<path d="M216.79 18.1606V46.8108H209.288V35.8774H198.758V46.8108H191.256V18.1606H198.758V29.1298H209.288V18.1606H216.79Z" fill="#106E53"/>
<path d="M222.683 46.8108V18.1606H230.172V29.1298H233.741L241.29 18.1606H249.588L239.576 32.2368L250 46.8108H241.689L233.706 35.8774H230.172V46.8108H222.683Z" fill="#106E53"/>
<path d="M40.9232 29.1298C40.9232 26.6906 40.207 24.306 38.8655 22.278C37.5239 20.2498 35.6172 18.669 33.3864 17.7357C31.1555 16.8022 28.7006 16.558 26.3325 17.0339C23.9642 17.5096 21.7887 18.6843 20.0812 20.409C18.3738 22.1339 17.211 24.3314 16.7399 26.7237C16.2689 29.116 16.5107 31.5957 17.4348 33.8493C18.3588 36.1028 19.9236 38.029 21.9314 39.3842C23.939 40.7392 26.2995 41.4626 28.7142 41.4626C31.9523 41.4626 35.0576 40.1632 37.3473 37.8504C39.6367 35.5376 40.9232 32.4005 40.9232 29.1298Z" fill="#106E53"/>
<path d="M8.48743 8.54335L14.3571 14.4726C18.188 10.6432 23.3599 8.49521 28.7494 8.49521C34.139 8.49521 39.3108 10.6432 43.1418 14.4726L49.0114 8.54335C43.6329 3.15129 36.3624 0.125488 28.7846 0.125488C21.207 0.125488 13.9364 3.15129 8.55785 8.54335" fill="#B91C6B"/>
<path d="M28.7143 49.7992C26.0242 49.804 23.3598 49.2728 20.8732 48.2361C18.3866 47.1995 16.1268 45.6777 14.223 43.7579C12.3193 41.8381 10.8089 39.558 9.77841 37.048C8.74793 34.5379 8.2175 31.8472 8.2175 29.1299H0C0 36.8227 3.02524 44.2006 8.41023 49.6402C13.7952 55.0798 21.0988 58.1358 28.7143 58.1358C36.3299 58.1358 43.6334 55.0798 49.0184 49.6402C54.4034 44.2006 57.4287 36.8227 57.4287 29.1299H49.2111C49.2096 31.8467 48.678 34.5367 47.6471 37.0461C46.616 39.5554 45.1056 41.8349 43.2021 43.7544C41.2988 45.6739 39.0395 47.1958 36.5537 48.2329C34.0677 49.2702 31.404 49.8025 28.7143 49.7992Z" fill="#106E53"/>
</g>
<defs>
<clipPath id="clip0_2360_86944">
<rect width="250" height="58" fill="white" transform="translate(0 0.124023)"/>
</clipPath>
</defs>
</svg>
