<svg width="716" height="716" viewBox="0 0 716 716" fill="none" xmlns="http://www.w3.org/2000/svg">
<g filter="url(#filter0_b_2875_2194)">
<rect width="716" height="716" fill="#323232"/>
<rect x="62.5" y="119.5" width="231" height="436" rx="28.9954" fill="#323232" stroke="white"/>
<rect x="62.5" y="119.5" width="231" height="476" rx="28.9954" fill="#323232" stroke="white"/>
<path d="M128.635 130.5C130.575 130.5 132.148 132.073 132.148 134.013C132.148 143.408 139.902 149.836 149.344 149.836L207.968 149.836C217.411 149.836 225.165 143.408 225.165 134.013C225.165 132.073 226.738 130.5 228.678 130.5H261.109C272.931 130.5 282.5 139.921 282.5 151.525L282.5 563.475C282.5 575.079 272.931 584.5 261.109 584.5H94.8912C83.0692 584.5 73.5 575.079 73.5 563.475L73.5 151.525C73.5 139.921 83.0691 130.5 94.8911 130.5H128.635Z" stroke="white"/>
<path d="M89.5986 177.496H103.22M89.5986 172.307H103.22M89.5986 167.118H103.22" stroke="white" stroke-width="1.5567" stroke-linecap="round" stroke-linejoin="round"/>
<rect x="115.834" y="163.982" width="121.739" height="16" rx="8" fill="#4C4C4C"/>
<g clip-path="url(#clip0_2875_2194)">
<path fill-rule="evenodd" clip-rule="evenodd" d="M255.703 163.334C254.53 163.334 253.375 163.615 252.333 164.152C251.292 164.689 250.393 165.468 249.714 166.423C249.034 167.378 248.593 168.482 248.426 169.642C248.26 170.803 248.374 171.986 248.758 173.093C249.142 174.201 249.785 175.201 250.634 176.009C251.483 176.817 252.513 177.411 253.638 177.74C254.763 178.07 255.95 178.125 257.101 177.902C258.252 177.679 259.333 177.184 260.253 176.459L263.412 179.617C263.575 179.775 263.793 179.862 264.02 179.86C264.247 179.858 264.464 179.767 264.624 179.607C264.784 179.446 264.875 179.229 264.877 179.003C264.879 178.776 264.792 178.558 264.635 178.394L261.476 175.236C262.331 174.152 262.863 172.849 263.011 171.477C263.16 170.105 262.919 168.719 262.317 167.477C261.715 166.235 260.775 165.188 259.605 164.455C258.435 163.723 257.083 163.334 255.703 163.334ZM250.081 170.685C250.081 169.194 250.673 167.765 251.728 166.71C252.782 165.656 254.212 165.064 255.703 165.064C257.193 165.064 258.623 165.656 259.677 166.71C260.732 167.765 261.324 169.194 261.324 170.685C261.324 172.176 260.732 173.606 259.677 174.66C258.623 175.714 257.193 176.307 255.703 176.307C254.212 176.307 252.782 175.714 251.728 174.66C250.673 173.606 250.081 172.176 250.081 170.685Z" fill="white"/>
</g>
<rect x="87" y="203" width="229" height="133" rx="15.5061" fill="#242424"/>
<rect x="87" y="198" width="229" height="133" rx="15.5061" fill="#AB001F"/>
<circle cx="126.419" cy="236.982" r="21.8484" fill="#323232"/>
<path d="M131.882 233.704C131.882 232.196 131.27 230.83 130.282 229.843C129.294 228.854 127.928 228.242 126.42 228.242C124.911 228.242 123.545 228.854 122.557 229.843C121.569 230.83 120.957 232.196 120.957 233.704C120.957 235.213 121.569 236.578 122.557 237.566C123.545 238.555 124.911 239.166 126.42 239.166C127.928 239.166 129.294 238.555 130.282 237.566C130.79 237.06 131.193 236.458 131.468 235.795C131.742 235.132 131.883 234.422 131.882 233.704ZM119.865 244.629C119.865 245.721 122.323 246.813 126.42 246.813C130.263 246.813 132.974 245.721 132.974 244.629C132.974 242.444 130.402 240.259 126.42 240.259C122.323 240.259 119.865 242.444 119.865 244.629Z" fill="white"/>
<rect x="161" y="227" width="81" height="6" rx="3" fill="white" fill-opacity="0.7" style="mix-blend-mode:soft-light"/>
<rect x="161" y="241" width="44" height="6" rx="3" fill="white" fill-opacity="0.7" style="mix-blend-mode:soft-light"/>
<path d="M90.4036 381.727C90.4036 380.822 91.1372 380.089 92.0422 380.089H281.577V383.366H92.0422C91.1372 383.366 90.4036 382.632 90.4036 381.727Z" fill="white" fill-opacity="0.2"/>
<rect x="90.4036" y="380.089" width="53.5287" height="3.27726" rx="1.63863" fill="white" fill-opacity="0.3"/>
<rect x="90.4036" y="364.795" width="53.5287" height="8.73937" rx="4.36969" fill="white"/>
<rect x="150.487" y="364.795" width="40.4196" height="8.73937" rx="4.36969" fill="white" fill-opacity="0.2"/>
<rect x="197.461" y="364.795" width="60.0832" height="8.73937" rx="4.36969" fill="white" fill-opacity="0.2"/>
<path d="M264.099 369.165C264.099 366.751 266.055 364.795 268.468 364.795H281.577V373.534H268.468C266.055 373.534 264.099 371.578 264.099 369.165Z" fill="white" fill-opacity="0.2"/>
<rect x="103.513" y="480.591" width="150.754" height="6.55453" rx="3.27726" fill="white" fill-opacity="0.7" style="mix-blend-mode:soft-light"/>
<rect x="103.513" y="494.793" width="78.6543" height="6.55453" rx="3.27726" fill="white" fill-opacity="0.7" style="mix-blend-mode:soft-light"/>
<rect x="90.5" y="401.5" width="176" height="114" rx="8.23937" stroke="white"/>
<rect x="103.513" y="413.954" width="54.6211" height="54.6211" rx="8.73937" fill="#4C4C4C"/>
<rect x="166.874" y="445.634" width="76.4695" height="6.55453" rx="3.27726" fill="white"/>
<rect x="166.874" y="416.139" width="30.5878" height="12.0166" rx="6.00832" fill="#AB001F"/>
<rect x="166.874" y="459.835" width="40.4196" height="6.55453" rx="3.27726" fill="white"/>
<mask id="mask0_2875_2194" style="mask-type:alpha" maskUnits="userSpaceOnUse" x="89" y="512" width="178" height="72">
<rect x="89" y="512" width="178" height="71.8" fill="#D9D9D9"/>
</mask>
<g mask="url(#mask0_2875_2194)">
<rect x="90.5" y="524.5" width="176" height="114" rx="8.23937" stroke="white"/>
<rect x="103.513" y="536.954" width="54.6211" height="54.6211" rx="8.73937" fill="#4C4C4C"/>
<rect x="166.874" y="568.634" width="76.4695" height="6.55453" rx="3.27726" fill="white"/>
<rect x="166.874" y="539.139" width="30.5878" height="12.0166" rx="6.00832" fill="#AB001F"/>
</g>
<rect x="476.5" y="414.5" width="176" height="181" rx="8.23937" fill="#E8E8E8" stroke="white"/>
<rect x="488" y="426" width="152" height="78" rx="6" fill="white"/>
<rect x="488" y="548" width="53" height="7" rx="3.5" fill="#ACACAC" fill-opacity="0.7"/>
<rect x="488" y="562" width="113" height="7" rx="3.5" fill="#ACACAC" fill-opacity="0.7"/>
<rect x="488" y="576" width="113" height="7" rx="3.5" fill="#ACACAC" fill-opacity="0.7"/>
<rect x="488" y="516" width="131" height="7" rx="3.5" fill="#4E4E4E"/>
<rect x="488" y="530" width="65" height="7" rx="3.5" fill="#4E4E4E"/>
<rect x="498" y="436" width="36" height="14" rx="7" fill="#AB001F"/>
<g filter="url(#filter1_d_2875_2194)">
<rect x="412" y="261" width="102" height="36" rx="18" fill="#E3E3E3"/>
<rect x="430" y="276" width="66" height="6" rx="3" fill="white" style="mix-blend-mode:soft-light"/>
</g>
<rect x="385.5" y="117.5" width="267" height="199" rx="28.9954" stroke="#626262" stroke-dasharray="2.18 4.37"/>
<path d="M182.614 300.614C182.4 300.827 182.4 301.173 182.614 301.386L186.09 304.862C186.303 305.076 186.649 305.076 186.862 304.862C187.076 304.649 187.076 304.303 186.862 304.09L183.772 301L186.862 297.91C187.076 297.697 187.076 297.351 186.862 297.138C186.649 296.924 186.303 296.924 186.09 297.138L182.614 300.614ZM412.913 280C412.913 278.391 411.609 277.087 410 277.087C408.391 277.087 407.087 278.391 407.087 280C407.087 281.609 408.391 282.913 410 282.913C411.609 282.913 412.913 281.609 412.913 280ZM357 280L357 280.546L357 280ZM341 301L341 301.546L341 301ZM341 300.454L183 300.454L183 301.546L341 301.546L341 300.454ZM349.546 293L349.546 288L348.454 288L348.454 293L349.546 293ZM357 280.546L410 280.546L410 279.454L357 279.454L357 280.546ZM349.546 288C349.546 283.883 352.883 280.546 357 280.546L357 279.454C352.28 279.454 348.454 283.28 348.454 288L349.546 288ZM341 301.546C345.72 301.546 349.546 297.72 349.546 293L348.454 293C348.454 297.117 345.117 300.454 341 300.454L341 301.546Z" fill="white"/>
<circle cx="534.38" cy="278.731" r="2.73105" fill="#D9D9D9"/>
<circle cx="545.304" cy="278.731" r="2.73105" fill="#D9D9D9" fill-opacity="0.2"/>
<circle cx="556.228" cy="278.731" r="2.73105" fill="#D9D9D9" fill-opacity="0.2"/>
<circle cx="567.152" cy="278.731" r="2.73105" fill="#D9D9D9" fill-opacity="0.2"/>
<circle cx="578.076" cy="278.731" r="2.73105" fill="#D9D9D9" fill-opacity="0.2"/>
<path d="M554.087 297C554.087 298.609 555.391 299.913 557 299.913C558.609 299.913 559.913 298.609 559.913 297C559.913 295.391 558.609 294.087 557 294.087C555.391 294.087 554.087 295.391 554.087 297ZM183.614 346.614C183.4 346.827 183.4 347.173 183.614 347.386L187.09 350.862C187.303 351.076 187.649 351.076 187.862 350.862C188.076 350.649 188.076 350.303 187.862 350.09L184.772 347L187.862 343.91C188.076 343.697 188.076 343.351 187.862 343.138C187.649 342.924 187.303 342.924 187.09 343.138L183.614 346.614ZM556.454 297V339H557.546V297H556.454ZM549 346.454H184V347.546H549V346.454ZM556.454 339C556.454 343.117 553.117 346.454 549 346.454V347.546C553.72 347.546 557.546 343.72 557.546 339H556.454Z" fill="white"/>
<path d="M470.087 428C470.087 429.609 471.391 430.913 473 430.913C474.609 430.913 475.913 429.609 475.913 428C475.913 426.391 474.609 425.087 473 425.087C471.391 425.087 470.087 426.391 470.087 428ZM247.614 427.614C247.4 427.827 247.4 428.173 247.614 428.386L251.09 431.862C251.303 432.076 251.649 432.076 251.862 431.862C252.076 431.649 252.076 431.303 251.862 431.09L248.772 428L251.862 424.91C252.076 424.697 252.076 424.351 251.862 424.138C251.649 423.924 251.303 423.924 251.09 424.138L247.614 427.614ZM473 427.454H248V428.546H473V427.454Z" fill="white"/>
<path d="M487.087 196C487.087 197.609 488.391 198.913 490 198.913C491.609 198.913 492.913 197.609 492.913 196C492.913 194.391 491.609 193.087 490 193.087C488.391 193.087 487.087 194.391 487.087 196ZM294.614 232.614C294.4 232.827 294.4 233.173 294.614 233.386L298.09 236.862C298.303 237.076 298.649 237.076 298.862 236.862C299.076 236.649 299.076 236.303 298.862 236.09L295.772 233L298.862 229.91C299.076 229.697 299.076 229.351 298.862 229.138C298.649 228.924 298.303 228.924 298.09 229.138L294.614 232.614ZM489.454 196V224.261H490.546V196H489.454ZM481.261 232.454H295V233.546H481.261V232.454ZM489.454 224.261C489.454 228.786 485.786 232.454 481.261 232.454V233.546C486.389 233.546 490.546 229.389 490.546 224.261H489.454Z" fill="white"/>
<circle cx="435.607" cy="167.251" r="24.0333" fill="#D9D9D9"/>
<g filter="url(#filter2_d_2875_2194)">
<circle cx="490.229" cy="167.251" r="24.0333" fill="#AB001F"/>
<circle cx="490.229" cy="167.251" r="23.0333" stroke="white" stroke-opacity="0.2" stroke-width="2"/>
</g>
<path d="M481.49 166.796L487.631 172.713L498.969 161.789" stroke="white" stroke-width="3.27726" stroke-linecap="round"/>
<circle cx="544.85" cy="167.251" r="24.0333" fill="#95001B"/>
<circle cx="599.471" cy="167.251" r="24.0333" fill="#6B0013"/>
<path d="M265 516H308C312.418 516 316 512.418 316 508V481" stroke="#626262" stroke-dasharray="2.18 4.37"/>
<path d="M265 525H308C312.418 525 316 528.582 316 533V560" stroke="#626262" stroke-dasharray="2.18 4.37"/>
<path d="M325.354 480.646C325.158 480.451 324.842 480.451 324.646 480.646L321.464 483.828C321.269 484.024 321.269 484.34 321.464 484.536C321.66 484.731 321.976 484.731 322.172 484.536L325 481.707L327.828 484.536C328.024 484.731 328.34 484.731 328.536 484.536C328.731 484.34 328.731 484.024 328.536 483.828L325.354 480.646ZM324.646 560.354C324.842 560.549 325.158 560.549 325.354 560.354L328.536 557.172C328.731 556.976 328.731 556.66 328.536 556.464C328.34 556.269 328.024 556.269 327.828 556.464L325 559.293L322.172 556.464C321.976 556.269 321.66 556.269 321.464 556.464C321.269 556.66 321.269 556.976 321.464 557.172L324.646 560.354ZM324.5 481V560H325.5V481H324.5Z" fill="white"/>
<g filter="url(#filter3_d_2875_2194)">
<circle cx="377" cy="427" r="24" fill="#6E6E6E"/>
<circle cx="377" cy="427" r="23.4" stroke="white" stroke-opacity="0.1" stroke-width="1.2"/>
</g>
<path d="M377 439C370.372 439 365 433.628 365 427C365 420.372 370.372 415 377 415C383.628 415 389 420.372 389 427C389 433.628 383.628 439 377 439ZM382.784 433.091C384.233 431.718 385.145 429.874 385.358 427.89C385.57 425.905 385.07 423.91 383.945 422.261C382.82 420.613 381.145 419.418 379.22 418.892C377.295 418.366 375.245 418.542 373.438 419.39L374.608 421.496C375.522 421.099 376.519 420.935 377.511 421.02C378.503 421.105 379.458 421.435 380.291 421.981C381.123 422.527 381.807 423.272 382.28 424.148C382.753 425.024 383 426.004 383 427H379.4L382.784 433.091ZM380.562 434.61L379.392 432.504C378.478 432.901 377.481 433.065 376.489 432.98C375.497 432.895 374.542 432.565 373.709 432.019C372.877 431.473 372.193 430.728 371.72 429.852C371.247 428.976 371 427.996 371 427H374.6L371.216 420.909C369.767 422.282 368.855 424.126 368.642 426.11C368.43 428.095 368.93 430.09 370.055 431.739C371.18 433.387 372.855 434.582 374.78 435.108C376.705 435.634 378.755 435.458 380.562 434.61Z" fill="white"/>
<g filter="url(#filter4_d_2875_2194)">
<path d="M258 235L264 242.5H252L258 235Z" fill="#FEE0BC"/>
<rect x="229" y="242.5" width="58" height="32" rx="4" fill="#FEE0BC"/>
<path d="M249.936 261.179L249.821 264.562H248.287V262.5H247.673V261.179H249.936ZM241.861 262.5V253.773H243.378V261.188H247.298V253.773H248.828V262.5H241.861ZM251.156 262.5V255.955H253.904C254.68 255.955 255.292 256.109 255.741 256.419C256.193 256.729 256.419 257.161 256.419 257.714C256.419 258.081 256.291 258.381 256.035 258.614C255.782 258.844 255.437 258.999 255 259.078C255.343 259.107 255.645 259.193 255.903 259.338C256.164 259.483 256.369 259.673 256.517 259.909C256.664 260.145 256.738 260.416 256.738 260.723C256.738 261.084 256.643 261.398 256.453 261.665C256.265 261.929 255.991 262.135 255.63 262.283C255.272 262.428 254.838 262.5 254.326 262.5H251.156ZM252.6 261.286H254.326C254.61 261.286 254.833 261.219 254.995 261.085C255.157 260.949 255.238 260.764 255.238 260.531C255.238 260.261 255.157 260.05 254.995 259.896C254.833 259.74 254.61 259.662 254.326 259.662H252.6V261.286ZM252.6 258.665H253.934C254.145 258.665 254.325 258.635 254.475 258.575C254.626 258.513 254.741 258.426 254.821 258.315C254.9 258.202 254.94 258.067 254.94 257.911C254.94 257.686 254.848 257.51 254.663 257.382C254.481 257.254 254.228 257.19 253.904 257.19H252.6V258.665ZM260.909 262.628C260.253 262.628 259.686 262.491 259.209 262.219C258.734 261.943 258.369 261.554 258.114 261.051C257.858 260.545 257.73 259.95 257.73 259.266C257.73 258.592 257.858 258.001 258.114 257.493C258.372 256.982 258.733 256.584 259.196 256.3C259.659 256.013 260.203 255.869 260.828 255.869C261.232 255.869 261.612 255.935 261.97 256.065C262.331 256.193 262.649 256.392 262.925 256.662C263.203 256.932 263.422 257.276 263.581 257.693C263.74 258.108 263.82 258.602 263.82 259.176V259.649H258.455V258.609H262.341C262.338 258.314 262.274 258.051 262.149 257.821C262.024 257.588 261.849 257.405 261.625 257.271C261.403 257.138 261.145 257.071 260.849 257.071C260.534 257.071 260.257 257.148 260.018 257.301C259.78 257.452 259.594 257.651 259.46 257.898C259.33 258.142 259.263 258.411 259.26 258.703V259.611C259.26 259.991 259.33 260.318 259.469 260.591C259.608 260.861 259.803 261.068 260.053 261.213C260.303 261.355 260.595 261.426 260.93 261.426C261.155 261.426 261.358 261.395 261.54 261.332C261.722 261.267 261.879 261.172 262.013 261.047C262.146 260.922 262.247 260.767 262.315 260.582L263.756 260.744C263.665 261.125 263.491 261.457 263.236 261.741C262.983 262.023 262.659 262.241 262.264 262.398C261.869 262.551 261.418 262.628 260.909 262.628ZM264.579 257.22V255.955H270.306V257.22H268.189V262.5H266.697V257.22H264.579ZM273.423 253.773L273.282 259.935H271.91L271.773 253.773H273.423ZM272.596 262.594C272.337 262.594 272.116 262.503 271.931 262.321C271.749 262.139 271.658 261.918 271.658 261.656C271.658 261.401 271.749 261.182 271.931 261C272.116 260.818 272.337 260.727 272.596 260.727C272.849 260.727 273.067 260.818 273.252 261C273.44 261.182 273.533 261.401 273.533 261.656C273.533 261.83 273.489 261.987 273.401 262.129C273.316 262.271 273.202 262.385 273.06 262.47C272.921 262.553 272.766 262.594 272.596 262.594Z" fill="#313741"/>
</g>
<g filter="url(#filter5_d_2875_2194)">
<rect x="50" y="285" width="108" height="32" rx="4" fill="#FEE0BC"/>
<path d="M70.331 299.217H68.7372C68.6918 298.956 68.608 298.724 68.4858 298.523C68.3636 298.318 68.2116 298.145 68.0298 298.003C67.848 297.861 67.6406 297.754 67.4077 297.683C67.1776 297.609 66.929 297.572 66.6619 297.572C66.1875 297.572 65.767 297.692 65.4006 297.93C65.0341 298.166 64.7472 298.513 64.5398 298.97C64.3324 299.425 64.2287 299.98 64.2287 300.636C64.2287 301.304 64.3324 301.866 64.5398 302.324C64.75 302.778 65.0369 303.122 65.4006 303.355C65.767 303.585 66.1861 303.7 66.6577 303.7C66.919 303.7 67.1634 303.666 67.3906 303.598C67.6207 303.527 67.8267 303.423 68.0085 303.287C68.1932 303.151 68.348 302.983 68.473 302.784C68.6009 302.585 68.6889 302.358 68.7372 302.102L70.331 302.111C70.2713 302.526 70.142 302.915 69.9432 303.278C69.7472 303.642 69.4901 303.963 69.1719 304.241C68.8537 304.517 68.4815 304.733 68.0554 304.889C67.6293 305.043 67.1563 305.119 66.6364 305.119C65.8693 305.119 65.1847 304.942 64.5824 304.587C63.9801 304.232 63.5057 303.719 63.1591 303.048C62.8125 302.378 62.6392 301.574 62.6392 300.636C62.6392 299.696 62.8139 298.892 63.1634 298.224C63.5128 297.554 63.9886 297.041 64.5909 296.686C65.1932 296.331 65.875 296.153 66.6364 296.153C67.1222 296.153 67.5739 296.222 67.9915 296.358C68.4091 296.494 68.7813 296.695 69.108 296.959C69.4347 297.22 69.7031 297.541 69.9134 297.922C70.1264 298.3 70.2656 298.732 70.331 299.217ZM71.3952 297.598V296.273H78.3583V297.598H75.6609V305H74.0927V297.598H71.3952ZM79.7667 305H78.0792L81.1516 296.273H83.1033L86.18 305H84.4925L82.1616 298.062H82.0934L79.7667 305ZM79.8221 301.578H84.4244V302.848H79.8221V301.578ZM92.1214 305.132C91.7067 305.132 91.3331 305.058 91.0007 304.911C90.6712 304.76 90.4098 304.538 90.2166 304.246C90.0263 303.953 89.9311 303.592 89.9311 303.163C89.9311 302.794 89.9993 302.489 90.1357 302.247C90.272 302.006 90.4581 301.812 90.6939 301.668C90.9297 301.523 91.1953 301.413 91.4908 301.339C91.7891 301.263 92.0973 301.207 92.4155 301.173C92.799 301.134 93.1101 301.098 93.3487 301.067C93.5874 301.033 93.7607 300.982 93.8686 300.913C93.9794 300.842 94.0348 300.733 94.0348 300.585V300.56C94.0348 300.239 93.9396 299.99 93.7493 299.814C93.5589 299.638 93.2848 299.55 92.9268 299.55C92.549 299.55 92.2493 299.632 92.0277 299.797C91.8089 299.962 91.6612 300.156 91.5845 300.381L90.1442 300.176C90.2578 299.778 90.4453 299.446 90.7067 299.179C90.968 298.909 91.2876 298.707 91.6655 298.574C92.0433 298.438 92.4609 298.369 92.9183 298.369C93.2337 298.369 93.5476 298.406 93.8601 298.48C94.1726 298.554 94.4581 298.676 94.7166 298.847C94.9751 299.014 95.1825 299.243 95.3388 299.533C95.4979 299.822 95.5774 300.185 95.5774 300.619V305H94.0945V304.101H94.0433C93.9496 304.283 93.8175 304.453 93.647 304.612C93.4794 304.768 93.2678 304.895 93.0121 304.991C92.7592 305.085 92.4624 305.132 92.1214 305.132ZM92.522 303.999C92.8317 303.999 93.1001 303.937 93.3274 303.815C93.5547 303.69 93.7294 303.526 93.8516 303.321C93.9766 303.116 94.0391 302.893 94.0391 302.652V301.881C93.9908 301.92 93.9084 301.957 93.7919 301.991C93.6783 302.026 93.5504 302.055 93.4084 302.081C93.2663 302.107 93.1257 302.129 92.9865 302.149C92.8473 302.169 92.7266 302.186 92.6243 302.2C92.3942 302.232 92.1882 302.283 92.0064 302.354C91.8246 302.425 91.6811 302.524 91.576 302.652C91.4709 302.777 91.4183 302.939 91.4183 303.138C91.4183 303.422 91.522 303.636 91.7294 303.781C91.9368 303.926 92.201 303.999 92.522 303.999ZM97.1286 305V298.455H98.6712V301.097H99.2337L101.202 298.455H103.06L100.636 301.668L103.086 305H101.219L99.4254 302.533H98.6712V305H97.1286ZM103.603 299.72V298.455H109.33V299.72H107.212V305H105.721V299.72H103.603ZM112.045 302.912L114.666 298.455H116.251V305H114.76V300.538L112.148 305H110.558V298.455H112.045V302.912ZM117.836 305V298.455H120.584C121.36 298.455 121.972 298.609 122.421 298.919C122.873 299.229 123.098 299.661 123.098 300.214C123.098 300.581 122.971 300.881 122.715 301.114C122.462 301.344 122.117 301.499 121.679 301.578C122.023 301.607 122.324 301.693 122.583 301.838C122.844 301.983 123.049 302.173 123.196 302.409C123.344 302.645 123.418 302.916 123.418 303.223C123.418 303.584 123.323 303.898 123.132 304.165C122.945 304.429 122.671 304.635 122.31 304.783C121.952 304.928 121.517 305 121.006 305H117.836ZM119.28 303.786H121.006C121.29 303.786 121.513 303.719 121.675 303.585C121.837 303.449 121.918 303.264 121.918 303.031C121.918 302.761 121.837 302.55 121.675 302.396C121.513 302.24 121.29 302.162 121.006 302.162H119.28V303.786ZM119.28 301.165H120.614C120.824 301.165 121.005 301.135 121.155 301.075C121.306 301.013 121.421 300.926 121.5 300.815C121.58 300.702 121.62 300.567 121.62 300.411C121.62 300.186 121.527 300.01 121.343 299.882C121.161 299.754 120.908 299.69 120.584 299.69H119.28V301.165ZM129.187 301.088V302.354H125.701V301.088H129.187ZM126.178 298.455V305H124.691V298.455H126.178ZM130.197 298.455V305H128.714V298.455H130.197ZM134.655 305.128C133.999 305.128 133.432 304.991 132.955 304.719C132.48 304.443 132.115 304.054 131.86 303.551C131.604 303.045 131.476 302.45 131.476 301.766C131.476 301.092 131.604 300.501 131.86 299.993C132.118 299.482 132.479 299.084 132.942 298.8C133.405 298.513 133.949 298.369 134.574 298.369C134.978 298.369 135.358 298.435 135.716 298.565C136.077 298.693 136.395 298.892 136.671 299.162C136.949 299.432 137.168 299.776 137.327 300.193C137.486 300.608 137.566 301.102 137.566 301.676V302.149H132.201V301.109H136.087C136.084 300.814 136.02 300.551 135.895 300.321C135.77 300.088 135.596 299.905 135.371 299.771C135.15 299.638 134.891 299.571 134.596 299.571C134.28 299.571 134.003 299.648 133.765 299.801C133.526 299.952 133.34 300.151 133.206 300.398C133.076 300.642 133.009 300.911 133.006 301.203V302.111C133.006 302.491 133.076 302.818 133.215 303.091C133.354 303.361 133.549 303.568 133.799 303.713C134.049 303.855 134.341 303.926 134.676 303.926C134.901 303.926 135.104 303.895 135.286 303.832C135.468 303.767 135.625 303.672 135.759 303.547C135.892 303.422 135.993 303.267 136.061 303.082L137.502 303.244C137.411 303.625 137.238 303.957 136.982 304.241C136.729 304.523 136.405 304.741 136.01 304.898C135.615 305.051 135.164 305.128 134.655 305.128ZM141.768 305.128C141.112 305.128 140.545 304.991 140.068 304.719C139.594 304.443 139.229 304.054 138.973 303.551C138.717 303.045 138.589 302.45 138.589 301.766C138.589 301.092 138.717 300.501 138.973 299.993C139.232 299.482 139.592 299.084 140.055 298.8C140.518 298.513 141.062 298.369 141.688 298.369C142.091 298.369 142.472 298.435 142.83 298.565C143.19 298.693 143.509 298.892 143.784 299.162C144.063 299.432 144.281 299.776 144.44 300.193C144.599 300.608 144.679 301.102 144.679 301.676V302.149H139.314V301.109H143.2C143.197 300.814 143.134 300.551 143.009 300.321C142.884 300.088 142.709 299.905 142.484 299.771C142.263 299.638 142.004 299.571 141.709 299.571C141.393 299.571 141.116 299.648 140.878 299.801C140.639 299.952 140.453 300.151 140.32 300.398C140.189 300.642 140.122 300.911 140.119 301.203V302.111C140.119 302.491 140.189 302.818 140.328 303.091C140.467 303.361 140.662 303.568 140.912 303.713C141.162 303.855 141.455 303.926 141.79 303.926C142.014 303.926 142.217 303.895 142.399 303.832C142.581 303.767 142.739 303.672 142.872 303.547C143.006 303.422 143.107 303.267 143.175 303.082L144.615 303.244C144.524 303.625 144.351 303.957 144.095 304.241C143.842 304.523 143.518 304.741 143.124 304.898C142.729 305.051 142.277 305.128 141.768 305.128Z" fill="#313741"/>
<path d="M165.5 301L158 307L158 295L165.5 301Z" fill="#FEE0BC"/>
</g>
<g filter="url(#filter6_d_2875_2194)">
<rect x="361" y="564" width="99" height="32" rx="4" fill="#FEE0BC"/>
<path d="M379.089 584L376.217 580.186H375.442V584H373.861V575.273H375.442V578.861H375.838L378.94 575.273H380.888L377.44 579.253L381.037 584H379.089ZM384.417 584.128C383.778 584.128 383.224 583.987 382.755 583.706C382.287 583.425 381.923 583.031 381.664 582.526C381.409 582.02 381.281 581.429 381.281 580.753C381.281 580.077 381.409 579.484 381.664 578.976C381.923 578.467 382.287 578.072 382.755 577.791C383.224 577.51 383.778 577.369 384.417 577.369C385.056 577.369 385.61 577.51 386.079 577.791C386.548 578.072 386.91 578.467 387.166 578.976C387.424 579.484 387.554 580.077 387.554 580.753C387.554 581.429 387.424 582.02 387.166 582.526C386.91 583.031 386.548 583.425 386.079 583.706C385.61 583.987 385.056 584.128 384.417 584.128ZM384.426 582.892C384.772 582.892 385.062 582.797 385.295 582.607C385.528 582.413 385.701 582.155 385.815 581.831C385.931 581.507 385.99 581.146 385.99 580.749C385.99 580.348 385.931 579.986 385.815 579.662C385.701 579.335 385.528 579.075 385.295 578.882C385.062 578.689 384.772 578.592 384.426 578.592C384.071 578.592 383.775 578.689 383.539 578.882C383.306 579.075 383.132 579.335 383.015 579.662C382.902 579.986 382.845 580.348 382.845 580.749C382.845 581.146 382.902 581.507 383.015 581.831C383.132 582.155 383.306 582.413 383.539 582.607C383.775 582.797 384.071 582.892 384.426 582.892ZM392.63 582.206L394.573 577.455H395.817L393.171 584H392.093L389.506 577.455H390.738L392.63 582.206ZM390.35 577.455V584H388.863V577.455H390.35ZM394.974 584V577.455H396.448V584H394.974ZM398.004 584V577.455H403.531V584H402.043V578.72H399.478V584H398.004ZM407.972 584.128C407.333 584.128 406.779 583.987 406.31 583.706C405.841 583.425 405.478 583.031 405.219 582.526C404.963 582.02 404.836 581.429 404.836 580.753C404.836 580.077 404.963 579.484 405.219 578.976C405.478 578.467 405.841 578.072 406.31 577.791C406.779 577.51 407.333 577.369 407.972 577.369C408.611 577.369 409.165 577.51 409.634 577.791C410.103 578.072 410.465 578.467 410.721 578.976C410.979 579.484 411.108 580.077 411.108 580.753C411.108 581.429 410.979 582.02 410.721 582.526C410.465 583.031 410.103 583.425 409.634 583.706C409.165 583.987 408.611 584.128 407.972 584.128ZM407.98 582.892C408.327 582.892 408.617 582.797 408.85 582.607C409.083 582.413 409.256 582.155 409.37 581.831C409.486 581.507 409.544 581.146 409.544 580.749C409.544 580.348 409.486 579.986 409.37 579.662C409.256 579.335 409.083 579.075 408.85 578.882C408.617 578.689 408.327 578.592 407.98 578.592C407.625 578.592 407.33 578.689 407.094 578.882C406.861 579.075 406.686 579.335 406.57 579.662C406.456 579.986 406.4 580.348 406.4 580.749C406.4 581.146 406.456 581.507 406.57 581.831C406.686 582.155 406.861 582.413 407.094 582.607C407.33 582.797 407.625 582.892 407.98 582.892ZM412.055 582.206H413.585C413.599 582.45 413.709 582.639 413.913 582.773C414.118 582.906 414.384 582.973 414.71 582.973C415.043 582.973 415.322 582.901 415.55 582.756C415.78 582.608 415.895 582.385 415.895 582.087C415.895 581.911 415.851 581.756 415.763 581.622C415.675 581.486 415.551 581.381 415.392 581.307C415.233 581.233 415.045 581.196 414.83 581.196H413.828V580.101H414.83C415.151 580.101 415.393 580.027 415.558 579.879C415.726 579.732 415.81 579.545 415.81 579.321C415.81 579.08 415.722 578.884 415.545 578.733C415.372 578.582 415.132 578.507 414.825 578.507C414.518 578.507 414.263 578.577 414.058 578.716C413.857 578.855 413.751 579.034 413.743 579.253H412.222C412.227 578.872 412.341 578.541 412.562 578.26C412.787 577.979 413.088 577.76 413.466 577.604C413.847 577.447 414.276 577.369 414.753 577.369C415.264 577.369 415.706 577.446 416.078 577.599C416.45 577.753 416.737 577.967 416.939 578.243C417.141 578.516 417.241 578.837 417.241 579.206C417.241 579.561 417.131 579.855 416.909 580.088C416.688 580.318 416.389 580.483 416.014 580.582V580.651C416.273 580.665 416.506 580.739 416.713 580.872C416.92 581.003 417.085 581.18 417.207 581.405C417.33 581.629 417.391 581.889 417.391 582.185C417.391 582.585 417.276 582.932 417.045 583.224C416.815 583.514 416.499 583.737 416.095 583.893C415.695 584.05 415.236 584.128 414.719 584.128C414.216 584.128 413.766 584.053 413.368 583.902C412.973 583.749 412.659 583.528 412.426 583.241C412.193 582.955 412.07 582.609 412.055 582.206ZM420.092 581.912L422.713 577.455H424.298V584H422.807V579.538L420.195 584H418.605V577.455H420.092V581.912ZM431.409 577.455V582.849H432.411V586.105H430.902V584H425.882V577.455H427.37V582.734H429.935V577.455H431.409ZM435.163 581.912L437.783 577.455H439.369V584H437.877V579.538L435.265 584H433.675V577.455H435.163V581.912ZM444.822 584V578.707H443.424C443.069 578.707 442.797 578.79 442.606 578.955C442.416 579.119 442.322 579.324 442.325 579.568C442.322 579.812 442.412 580.014 442.593 580.173C442.775 580.332 443.035 580.412 443.373 580.412H445.308V581.537H443.373C442.85 581.537 442.399 581.455 442.018 581.29C441.637 581.125 441.345 580.892 441.14 580.591C440.936 580.29 440.833 579.937 440.833 579.534C440.833 579.114 440.937 578.749 441.145 578.439C441.355 578.126 441.653 577.885 442.039 577.714C442.429 577.541 442.89 577.455 443.424 577.455H446.267V584H444.822ZM440.595 584L442.423 580.642H443.944L442.112 584H440.595Z" fill="#313741"/>
<path d="M467.5 580L460 586L460 574L467.5 580Z" fill="#FEE0BC"/>
</g>
<g filter="url(#filter7_d_2875_2194)">
<rect x="604" y="364" width="49" height="32" rx="8" fill="#FEE0BC"/>
<path d="M620.159 376.244H621.923C622.605 376.244 623.21 376.391 623.739 376.683C624.267 376.976 624.682 377.388 624.983 377.919C625.284 378.447 625.435 379.067 625.435 379.777C625.435 380.47 625.284 381.077 624.983 381.597C624.682 382.116 624.267 382.521 623.739 382.811C623.21 383.098 622.605 383.241 621.923 383.241H620.159C619.474 383.241 618.866 383.099 618.335 382.815C617.807 382.528 617.392 382.125 617.091 381.605C616.79 381.085 616.639 380.477 616.639 379.781C616.639 379.071 616.791 378.452 617.095 377.923C617.399 377.392 617.815 376.98 618.344 376.688C618.875 376.392 619.48 376.244 620.159 376.244ZM620.159 377.582C619.744 377.582 619.385 377.668 619.081 377.838C618.78 378.006 618.547 378.253 618.382 378.58C618.217 378.906 618.135 379.307 618.135 379.781C618.135 380.236 618.217 380.621 618.382 380.936C618.55 381.251 618.786 381.491 619.089 381.656C619.393 381.821 619.75 381.903 620.159 381.903H621.928C622.339 381.903 622.695 381.821 622.993 381.656C623.294 381.489 623.526 381.247 623.688 380.932C623.852 380.614 623.935 380.229 623.935 379.777C623.935 379.308 623.852 378.911 623.688 378.584C623.526 378.257 623.294 378.009 622.993 377.838C622.695 377.668 622.339 377.582 621.928 377.582H620.159ZM621.804 375.119V384.358H620.283V375.119H621.804ZM629.726 384.128C629.087 384.128 628.533 383.987 628.064 383.706C627.595 383.425 627.232 383.031 626.973 382.526C626.717 382.02 626.589 381.429 626.589 380.753C626.589 380.077 626.717 379.484 626.973 378.976C627.232 378.467 627.595 378.072 628.064 377.791C628.533 377.51 629.087 377.369 629.726 377.369C630.365 377.369 630.919 377.51 631.388 377.791C631.857 378.072 632.219 378.467 632.474 378.976C632.733 379.484 632.862 380.077 632.862 380.753C632.862 381.429 632.733 382.02 632.474 382.526C632.219 383.031 631.857 383.425 631.388 383.706C630.919 383.987 630.365 384.128 629.726 384.128ZM629.734 382.892C630.081 382.892 630.371 382.797 630.604 382.607C630.837 382.413 631.01 382.155 631.124 381.831C631.24 381.507 631.298 381.146 631.298 380.749C631.298 380.348 631.24 379.986 631.124 379.662C631.01 379.335 630.837 379.075 630.604 378.882C630.371 378.689 630.081 378.592 629.734 378.592C629.379 378.592 629.084 378.689 628.848 378.882C628.615 379.075 628.44 379.335 628.324 379.662C628.21 379.986 628.153 380.348 628.153 380.749C628.153 381.146 628.21 381.507 628.324 381.831C628.44 382.155 628.615 382.413 628.848 382.607C629.084 382.797 629.379 382.892 629.734 382.892ZM638.667 380.088V381.354H635.181V380.088H638.667ZM635.659 377.455V384H634.172V377.455H635.659ZM639.677 377.455V384H638.194V377.455H639.677Z" fill="#313741"/>
<path d="M628.5 403.5L622.5 396L634.5 396L628.5 403.5Z" fill="#FEE0BC"/>
</g>
<path d="M342.866 521.602V515.705H344.205V521.602H342.866ZM340.587 519.322V517.984H346.484V519.322H340.587ZM351.169 521.381V520.124L354.872 514.273H355.92V516.062H355.281L352.788 520.013V520.081H357.957V521.381H351.169ZM355.332 523V520.997L355.349 520.435V514.273H356.841V523H355.332ZM362.312 525.455V516.455H363.829V517.537H363.919C363.998 517.378 364.11 517.209 364.255 517.03C364.4 516.848 364.596 516.693 364.843 516.565C365.091 516.435 365.406 516.369 365.789 516.369C366.295 516.369 366.751 516.499 367.157 516.757C367.566 517.013 367.89 517.392 368.129 517.895C368.37 518.395 368.491 519.009 368.491 519.736C368.491 520.455 368.373 521.065 368.137 521.568C367.902 522.071 367.581 522.455 367.174 522.719C366.768 522.983 366.308 523.115 365.794 523.115C365.419 523.115 365.108 523.053 364.86 522.928C364.613 522.803 364.414 522.652 364.264 522.476C364.116 522.297 364.001 522.128 363.919 521.969H363.855V525.455H362.312ZM363.825 519.727C363.825 520.151 363.885 520.521 364.004 520.839C364.126 521.158 364.301 521.406 364.528 521.585C364.758 521.761 365.037 521.849 365.363 521.849C365.704 521.849 365.99 521.759 366.22 521.577C366.45 521.392 366.623 521.141 366.74 520.822C366.859 520.501 366.919 520.136 366.919 519.727C366.919 519.321 366.86 518.96 366.744 518.645C366.627 518.33 366.454 518.082 366.224 517.903C365.994 517.724 365.707 517.635 365.363 517.635C365.034 517.635 364.754 517.722 364.524 517.895C364.294 518.068 364.119 518.311 364 518.624C363.883 518.936 363.825 519.304 363.825 519.727ZM370.827 516.455L372.148 518.871L373.491 516.455H375.123L373.15 519.727L375.157 523H373.533L372.148 520.643L370.776 523H369.14L371.134 519.727L369.191 516.455H370.827Z" fill="white"/>
</g>
<defs>
<filter id="filter0_b_2875_2194" x="-80" y="-80" width="876" height="876" filterUnits="userSpaceOnUse" color-interpolation-filters="sRGB">
<feFlood flood-opacity="0" result="BackgroundImageFix"/>
<feGaussianBlur in="BackgroundImageFix" stdDeviation="40"/>
<feComposite in2="SourceAlpha" operator="in" result="effect1_backgroundBlur_2875_2194"/>
<feBlend mode="normal" in="SourceGraphic" in2="effect1_backgroundBlur_2875_2194" result="shape"/>
</filter>
<filter id="filter1_d_2875_2194" x="412" y="261" width="102" height="40.3697" filterUnits="userSpaceOnUse" color-interpolation-filters="sRGB">
<feFlood flood-opacity="0" result="BackgroundImageFix"/>
<feColorMatrix in="SourceAlpha" type="matrix" values="0 0 0 0 0 0 0 0 0 0 0 0 0 0 0 0 0 0 127 0" result="hardAlpha"/>
<feOffset dy="4.36969"/>
<feComposite in2="hardAlpha" operator="out"/>
<feColorMatrix type="matrix" values="0 0 0 0 0.162435 0 0 0 0 0.162435 0 0 0 0 0.162435 0 0 0 1 0"/>
<feBlend mode="normal" in2="BackgroundImageFix" result="effect1_dropShadow_2875_2194"/>
<feBlend mode="normal" in="SourceGraphic" in2="effect1_dropShadow_2875_2194" result="shape"/>
</filter>
<filter id="filter2_d_2875_2194" x="450.195" y="130.418" width="80.0667" height="80.0665" filterUnits="userSpaceOnUse" color-interpolation-filters="sRGB">
<feFlood flood-opacity="0" result="BackgroundImageFix"/>
<feColorMatrix in="SourceAlpha" type="matrix" values="0 0 0 0 0 0 0 0 0 0 0 0 0 0 0 0 0 0 127 0" result="hardAlpha"/>
<feOffset dy="3.2"/>
<feGaussianBlur stdDeviation="8"/>
<feComposite in2="hardAlpha" operator="out"/>
<feColorMatrix type="matrix" values="0 0 0 0 0.670588 0 0 0 0 0 0 0 0 0 0.121569 0 0 0 1 0"/>
<feBlend mode="normal" in2="BackgroundImageFix" result="effect1_dropShadow_2875_2194"/>
<feBlend mode="normal" in="SourceGraphic" in2="effect1_dropShadow_2875_2194" result="shape"/>
</filter>
<filter id="filter3_d_2875_2194" x="333.8" y="387.64" width="86.4" height="86.4" filterUnits="userSpaceOnUse" color-interpolation-filters="sRGB">
<feFlood flood-opacity="0" result="BackgroundImageFix"/>
<feColorMatrix in="SourceAlpha" type="matrix" values="0 0 0 0 0 0 0 0 0 0 0 0 0 0 0 0 0 0 127 0" result="hardAlpha"/>
<feOffset dy="3.84"/>
<feGaussianBlur stdDeviation="9.6"/>
<feComposite in2="hardAlpha" operator="out"/>
<feColorMatrix type="matrix" values="0 0 0 0 0.410026 0 0 0 0 0.410026 0 0 0 0 0.410026 0 0 0 0.8 0"/>
<feBlend mode="normal" in2="BackgroundImageFix" result="effect1_dropShadow_2875_2194"/>
<feBlend mode="normal" in="SourceGraphic" in2="effect1_dropShadow_2875_2194" result="shape"/>
</filter>
<filter id="filter4_d_2875_2194" x="205" y="211" width="106" height="87.5" filterUnits="userSpaceOnUse" color-interpolation-filters="sRGB">
<feFlood flood-opacity="0" result="BackgroundImageFix"/>
<feColorMatrix in="SourceAlpha" type="matrix" values="0 0 0 0 0 0 0 0 0 0 0 0 0 0 0 0 0 0 127 0" result="hardAlpha"/>
<feOffset/>
<feGaussianBlur stdDeviation="12"/>
<feComposite in2="hardAlpha" operator="out"/>
<feColorMatrix type="matrix" values="0 0 0 0 0.192157 0 0 0 0 0.215686 0 0 0 0 0.254902 0 0 0 0.24 0"/>
<feBlend mode="normal" in2="BackgroundImageFix" result="effect1_dropShadow_2875_2194"/>
<feBlend mode="normal" in="SourceGraphic" in2="effect1_dropShadow_2875_2194" result="shape"/>
</filter>
<filter id="filter5_d_2875_2194" x="26" y="261" width="163.5" height="80" filterUnits="userSpaceOnUse" color-interpolation-filters="sRGB">
<feFlood flood-opacity="0" result="BackgroundImageFix"/>
<feColorMatrix in="SourceAlpha" type="matrix" values="0 0 0 0 0 0 0 0 0 0 0 0 0 0 0 0 0 0 127 0" result="hardAlpha"/>
<feOffset/>
<feGaussianBlur stdDeviation="12"/>
<feComposite in2="hardAlpha" operator="out"/>
<feColorMatrix type="matrix" values="0 0 0 0 0.192157 0 0 0 0 0.215686 0 0 0 0 0.254902 0 0 0 0.24 0"/>
<feBlend mode="normal" in2="BackgroundImageFix" result="effect1_dropShadow_2875_2194"/>
<feBlend mode="normal" in="SourceGraphic" in2="effect1_dropShadow_2875_2194" result="shape"/>
</filter>
<filter id="filter6_d_2875_2194" x="337" y="540" width="154.5" height="80" filterUnits="userSpaceOnUse" color-interpolation-filters="sRGB">
<feFlood flood-opacity="0" result="BackgroundImageFix"/>
<feColorMatrix in="SourceAlpha" type="matrix" values="0 0 0 0 0 0 0 0 0 0 0 0 0 0 0 0 0 0 127 0" result="hardAlpha"/>
<feOffset/>
<feGaussianBlur stdDeviation="12"/>
<feComposite in2="hardAlpha" operator="out"/>
<feColorMatrix type="matrix" values="0 0 0 0 0.192157 0 0 0 0 0.215686 0 0 0 0 0.254902 0 0 0 0.24 0"/>
<feBlend mode="normal" in2="BackgroundImageFix" result="effect1_dropShadow_2875_2194"/>
<feBlend mode="normal" in="SourceGraphic" in2="effect1_dropShadow_2875_2194" result="shape"/>
</filter>
<filter id="filter7_d_2875_2194" x="580" y="340" width="97" height="87.5" filterUnits="userSpaceOnUse" color-interpolation-filters="sRGB">
<feFlood flood-opacity="0" result="BackgroundImageFix"/>
<feColorMatrix in="SourceAlpha" type="matrix" values="0 0 0 0 0 0 0 0 0 0 0 0 0 0 0 0 0 0 127 0" result="hardAlpha"/>
<feOffset/>
<feGaussianBlur stdDeviation="12"/>
<feComposite in2="hardAlpha" operator="out"/>
<feColorMatrix type="matrix" values="0 0 0 0 0.192157 0 0 0 0 0.215686 0 0 0 0 0.254902 0 0 0 0.24 0"/>
<feBlend mode="normal" in2="BackgroundImageFix" result="effect1_dropShadow_2875_2194"/>
<feBlend mode="normal" in="SourceGraphic" in2="effect1_dropShadow_2875_2194" result="shape"/>
</filter>
<clipPath id="clip0_2875_2194">
<rect width="20.756" height="20.756" fill="white" transform="translate(246.619 161.604)"/>
</clipPath>
</defs>
</svg>
