<svg width="716" height="716" viewBox="0 0 716 716" fill="none" xmlns="http://www.w3.org/2000/svg">
<g clip-path="url(#clip0_4497_8142)" filter="url(#filter0_b_4497_8142)">
<rect width="716" height="716" fill="#323232"/>
<rect x="370" y="606.999" width="270" height="254" rx="16" fill="#EEEEEE"/>
<rect x="370.6" y="607.599" width="268.8" height="252.8" rx="15.4" stroke="#323232" stroke-opacity="0.1" stroke-width="1.2"/>
<rect x="394" y="630.999" width="222" height="103" rx="14.4" fill="white"/>
<g opacity="0.4" filter="url(#filter1_d_4497_8142)">
<circle cx="430.4" cy="666.8" r="20" fill="#AB001F"/>
</g>
<circle cx="430.399" cy="666.8" r="10" fill="#AB001F"/>
<rect x="465" y="672" width="83" height="6" rx="3" fill="#ACACAC" fill-opacity="0.7"/>
<rect x="465" y="684" width="69" height="6" rx="3" fill="#ACACAC" fill-opacity="0.7"/>
<rect x="465" y="650" width="56" height="10" rx="5" fill="#4E4E4E"/>
<rect x="76" y="133" width="270" height="254" rx="16" fill="#EEEEEE"/>
<rect x="76.6" y="133.6" width="268.8" height="252.8" rx="15.4" stroke="#323232" stroke-opacity="0.1" stroke-width="1.2"/>
<rect x="100" y="157.2" width="222" height="103" rx="14.4" fill="white"/>
<circle cx="132" cy="228" r="16" fill="#D9D9D9"/>
<g filter="url(#filter2_d_4497_8142)">
<circle cx="168.363" cy="228" r="16" fill="#AB001F"/>
<circle cx="168.363" cy="228" r="15.3343" stroke="white" stroke-opacity="0.2" stroke-width="1.33149"/>
</g>
<path d="M162.545 227.698L166.633 231.637L174.181 224.364" stroke="white" stroke-width="2.18182" stroke-linecap="round"/>
<circle cx="204.728" cy="228" r="16" fill="#95001B"/>
<circle cx="241.091" cy="228" r="16" fill="#6B0013"/>
<rect x="100" y="338.662" width="94" height="24" rx="12" fill="#AB001F"/>
<rect x="100" y="277" width="172" height="14" rx="7" fill="#323232" fill-opacity="0.6"/>
<rect x="100" y="301" width="120" height="10" rx="5" fill="#323232" fill-opacity="0.2"/>
<rect x="100" y="315.4" width="76.8" height="10" rx="5" fill="#323232" fill-opacity="0.2"/>
<rect x="370" y="329" width="270" height="254" rx="16" fill="#EEEEEE"/>
<rect x="370.6" y="329.6" width="268.8" height="252.8" rx="15.4" stroke="#323232" stroke-opacity="0.1" stroke-width="1.2"/>
<rect x="394" y="353" width="222" height="103" rx="14.4" fill="white"/>
<rect x="411" y="402" width="94" height="40" rx="9.6" fill="#FEE0BC"/>
<path d="M433.268 416.527V418.118H428.43V427H426.533V416.527H433.268ZM435.759 424.494L438.904 419.145H440.806V427H439.017V421.646L435.882 427H433.975V419.145H435.759V424.494ZM442.707 427V419.145H449.34V427H447.555V420.664H444.477V427H442.707ZM454.669 427.153C453.902 427.153 453.238 426.985 452.675 426.647C452.113 426.31 451.676 425.837 451.366 425.231C451.059 424.624 450.906 423.915 450.906 423.103C450.906 422.292 451.059 421.581 451.366 420.971C451.676 420.361 452.113 419.887 452.675 419.549C453.238 419.212 453.902 419.043 454.669 419.043C455.437 419.043 456.101 419.212 456.664 419.549C457.226 419.887 457.661 420.361 457.968 420.971C458.278 421.581 458.433 422.292 458.433 423.103C458.433 423.915 458.278 424.624 457.968 425.231C457.661 425.837 457.226 426.31 456.664 426.647C456.101 426.985 455.437 427.153 454.669 427.153ZM454.68 425.67C455.096 425.67 455.443 425.556 455.723 425.328C456.002 425.096 456.21 424.786 456.347 424.397C456.487 424.009 456.556 423.576 456.556 423.098C456.556 422.618 456.487 422.183 456.347 421.794C456.21 421.402 456.002 421.09 455.723 420.859C455.443 420.627 455.096 420.511 454.68 420.511C454.254 420.511 453.899 420.627 453.616 420.859C453.337 421.09 453.127 421.402 452.987 421.794C452.851 422.183 452.783 422.618 452.783 423.098C452.783 423.576 452.851 424.009 452.987 424.397C453.127 424.786 453.337 425.096 453.616 425.328C453.899 425.556 454.254 425.67 454.68 425.67ZM459.139 420.664V419.145H466.012V420.664H463.47V427H461.68V420.664H459.139ZM470.639 427.153C469.852 427.153 469.172 426.99 468.599 426.662C468.03 426.332 467.592 425.865 467.285 425.261C466.978 424.655 466.825 423.94 466.825 423.119C466.825 422.311 466.978 421.602 467.285 420.991C467.595 420.378 468.028 419.901 468.584 419.56C469.139 419.215 469.792 419.043 470.542 419.043C471.026 419.043 471.483 419.122 471.913 419.278C472.346 419.432 472.727 419.67 473.058 419.994C473.392 420.318 473.655 420.731 473.846 421.232C474.037 421.73 474.132 422.323 474.132 423.011V423.579H467.694V422.331H472.358C472.354 421.977 472.277 421.661 472.127 421.385C471.977 421.106 471.768 420.886 471.498 420.726C471.233 420.565 470.922 420.485 470.568 420.485C470.189 420.485 469.857 420.577 469.571 420.761C469.284 420.942 469.061 421.181 468.901 421.477C468.744 421.77 468.664 422.093 468.66 422.444V423.533C468.66 423.99 468.744 424.382 468.911 424.709C469.078 425.033 469.312 425.282 469.612 425.456C469.912 425.626 470.263 425.711 470.665 425.711C470.934 425.711 471.178 425.674 471.396 425.599C471.614 425.52 471.804 425.406 471.964 425.256C472.124 425.106 472.245 424.92 472.327 424.699L474.055 424.893C473.946 425.35 473.738 425.749 473.431 426.09C473.128 426.427 472.739 426.69 472.265 426.877C471.792 427.061 471.25 427.153 470.639 427.153ZM475.263 424.847H477.099C477.116 425.14 477.247 425.367 477.493 425.527C477.738 425.687 478.057 425.768 478.449 425.768C478.848 425.768 479.184 425.681 479.457 425.507C479.733 425.33 479.871 425.062 479.871 424.704C479.871 424.493 479.818 424.307 479.712 424.147C479.607 423.983 479.458 423.857 479.267 423.768C479.076 423.68 478.851 423.635 478.592 423.635H477.391V422.321H478.592C478.978 422.321 479.269 422.232 479.467 422.055C479.668 421.878 479.768 421.655 479.768 421.385C479.768 421.095 479.663 420.86 479.451 420.68C479.243 420.499 478.955 420.409 478.587 420.409C478.219 420.409 477.912 420.492 477.667 420.659C477.425 420.826 477.299 421.041 477.288 421.303H475.463C475.47 420.847 475.606 420.449 475.872 420.112C476.141 419.774 476.503 419.512 476.956 419.324C477.413 419.137 477.928 419.043 478.5 419.043C479.114 419.043 479.644 419.135 480.091 419.319C480.537 419.503 480.882 419.761 481.124 420.091C481.366 420.419 481.487 420.804 481.487 421.247C481.487 421.673 481.354 422.026 481.088 422.306C480.822 422.582 480.464 422.78 480.014 422.899V422.981C480.324 422.998 480.604 423.086 480.853 423.247C481.101 423.403 481.299 423.616 481.446 423.886C481.592 424.155 481.666 424.467 481.666 424.822C481.666 425.302 481.528 425.718 481.251 426.069C480.975 426.417 480.595 426.685 480.111 426.872C479.63 427.06 479.08 427.153 478.459 427.153C477.856 427.153 477.316 427.063 476.838 426.882C476.364 426.698 475.988 426.434 475.708 426.09C475.429 425.745 475.28 425.331 475.263 424.847ZM485.383 427.159C484.886 427.159 484.437 427.07 484.038 426.893C483.643 426.712 483.329 426.446 483.097 426.095C482.869 425.744 482.755 425.311 482.755 424.796C482.755 424.353 482.837 423.986 483 423.697C483.164 423.407 483.387 423.175 483.67 423.001C483.953 422.827 484.272 422.696 484.626 422.607C484.984 422.515 485.354 422.449 485.736 422.408C486.196 422.36 486.57 422.318 486.856 422.28C487.142 422.239 487.35 422.178 487.48 422.096C487.613 422.011 487.679 421.88 487.679 421.702V421.672C487.679 421.286 487.565 420.988 487.337 420.777C487.108 420.565 486.779 420.46 486.35 420.46C485.896 420.46 485.537 420.559 485.271 420.756C485.008 420.954 484.831 421.187 484.739 421.457L483.011 421.211C483.147 420.734 483.372 420.335 483.686 420.015C483.999 419.691 484.383 419.449 484.836 419.289C485.289 419.125 485.791 419.043 486.339 419.043C486.718 419.043 487.095 419.087 487.47 419.176C487.845 419.265 488.187 419.411 488.497 419.616C488.808 419.817 489.057 420.091 489.244 420.439C489.435 420.787 489.53 421.222 489.53 421.743V427H487.751V425.921H487.689C487.577 426.139 487.418 426.344 487.214 426.535C487.013 426.722 486.759 426.874 486.452 426.99C486.149 427.102 485.792 427.159 485.383 427.159ZM485.864 425.798C486.236 425.798 486.558 425.725 486.83 425.578C487.103 425.428 487.313 425.231 487.459 424.985C487.609 424.74 487.684 424.472 487.684 424.182V423.257C487.626 423.305 487.528 423.349 487.388 423.39C487.251 423.431 487.098 423.466 486.928 423.497C486.757 423.528 486.588 423.555 486.421 423.579C486.254 423.603 486.109 423.623 485.987 423.64C485.711 423.678 485.463 423.739 485.245 423.824C485.027 423.91 484.855 424.029 484.729 424.182C484.603 424.332 484.539 424.527 484.539 424.765C484.539 425.106 484.664 425.364 484.913 425.537C485.162 425.711 485.479 425.798 485.864 425.798Z" fill="#313741"/>
<rect x="394" y="534.662" width="94" height="24" rx="12" fill="#AB001F"/>
<rect x="394" y="473" width="172" height="14" rx="7" fill="#323232" fill-opacity="0.6"/>
<rect x="394" y="497" width="120" height="10" rx="5" fill="#323232" fill-opacity="0.2"/>
<rect x="394" y="511.4" width="76.8" height="10" rx="5" fill="#323232" fill-opacity="0.2"/>
<rect x="76" y="-144.862" width="270" height="254" rx="16" fill="#EEEEEE"/>
<rect x="76.6" y="-144.262" width="268.8" height="252.8" rx="15.4" stroke="#323232" stroke-opacity="0.1" stroke-width="1.2"/>
<rect x="100" y="60.6621" width="94" height="24" rx="12" fill="#AB001F"/>
<rect x="100" y="-1" width="172" height="14" rx="7" fill="#323232" fill-opacity="0.6"/>
<rect x="100" y="23" width="120" height="10" rx="5" fill="#323232" fill-opacity="0.2"/>
<rect x="100" y="37.4004" width="76.8" height="10" rx="5" fill="#323232" fill-opacity="0.2"/>
<rect x="371" y="52" width="268" height="252" rx="15" stroke="#EEEEEE" stroke-opacity="0.2" stroke-width="2"/>
<rect x="394" y="75" width="222" height="103" rx="14.4" fill="#EEEEEE"/>
<g filter="url(#filter3_d_4497_8142)">
<path d="M440.333 138.199L436.148 132.968L444.518 132.968L440.333 138.199Z" fill="#545454"/>
<circle cx="440.333" cy="115.533" r="18.1333" fill="#545454"/>
<path d="M444.983 113.07C444.983 111.824 444.462 110.696 443.622 109.88C442.78 109.063 441.618 108.558 440.333 108.558C439.049 108.558 437.887 109.063 437.045 109.88C436.205 110.696 435.684 111.824 435.684 113.07C435.684 114.317 436.205 115.445 437.045 116.261C437.887 117.078 439.049 117.583 440.333 117.583C441.618 117.583 442.78 117.078 443.622 116.261C444.054 115.843 444.397 115.345 444.631 114.798C444.864 114.25 444.984 113.663 444.983 113.07ZM434.754 122.096C434.754 122.999 436.846 123.901 440.333 123.901C443.605 123.901 445.913 122.999 445.913 122.096C445.913 120.291 443.724 118.486 440.333 118.486C436.846 118.486 434.754 120.291 434.754 122.096Z" fill="white"/>
</g>
<g filter="url(#filter4_d_4497_8142)">
<path d="M560.199 159.8L554.66 152.877L565.737 152.877L560.199 159.8Z" fill="#545454"/>
<circle cx="560.199" cy="129.8" r="24" fill="#545454"/>
<path d="M566.353 126.542C566.353 124.892 565.664 123.399 564.551 122.319C563.437 121.238 561.899 120.569 560.199 120.569C558.499 120.569 556.961 121.238 555.847 122.319C554.734 123.399 554.045 124.892 554.045 126.542C554.045 128.192 554.734 129.685 555.847 130.765C556.961 131.846 558.499 132.515 560.199 132.515C561.899 132.515 563.437 131.846 564.551 130.765C565.123 130.211 565.577 129.553 565.887 128.828C566.196 128.104 566.354 127.327 566.353 126.542ZM552.814 138.488C552.814 139.682 555.584 140.877 560.199 140.877C564.529 140.877 567.584 139.682 567.584 138.488C567.584 136.099 564.686 133.71 560.199 133.71C555.584 133.71 552.814 136.099 552.814 138.488Z" fill="white"/>
</g>
<rect x="394" y="256.662" width="94" height="24" rx="12" fill="#AB001F"/>
<rect x="394" y="195" width="172" height="14" rx="7" fill="white" fill-opacity="0.6"/>
<rect x="394" y="219" width="120" height="10" rx="5" fill="white" fill-opacity="0.2"/>
<rect x="394" y="233.4" width="76.8" height="10" rx="5" fill="white" fill-opacity="0.2"/>
<rect x="77" y="412" width="268" height="252" rx="15" stroke="#EEEEEE" stroke-opacity="0.2" stroke-width="2"/>
<rect x="100" y="435.8" width="222" height="103" rx="14.4" fill="#EEEEEE"/>
<circle cx="211" cy="486.8" r="34.2" fill="white" fill-opacity="0.8"/>
<circle cx="210.999" cy="486.799" r="27.4721" fill="white" fill-opacity="0.8"/>
<circle cx="210.999" cy="486.799" r="26.3508" stroke="black" stroke-opacity="0.1" stroke-width="2.24262"/>
<g filter="url(#filter5_d_4497_8142)">
<circle cx="211" cy="486.799" r="13.4557" fill="#6E6E6E"/>
<circle cx="211" cy="486.799" r="13.1193" stroke="white" stroke-opacity="0.1" stroke-width="0.672787"/>
</g>
<path d="M210.999 493.527C207.284 493.527 204.271 490.515 204.271 486.799C204.271 483.083 207.284 480.071 210.999 480.071C214.715 480.071 217.727 483.083 217.727 486.799C217.727 490.515 214.715 493.527 210.999 493.527ZM214.242 490.214C215.054 489.444 215.566 488.411 215.685 487.298C215.804 486.186 215.524 485.067 214.893 484.142C214.263 483.218 213.323 482.548 212.244 482.253C211.165 481.958 210.016 482.057 209.003 482.532L209.658 483.713C210.17 483.491 210.73 483.399 211.286 483.447C211.842 483.494 212.378 483.679 212.844 483.985C213.311 484.292 213.694 484.709 213.96 485.2C214.225 485.691 214.363 486.241 214.363 486.799H212.345L214.242 490.214ZM212.996 491.066L212.34 489.885C211.828 490.108 211.269 490.199 210.713 490.152C210.157 490.104 209.621 489.919 209.154 489.613C208.688 489.307 208.304 488.889 208.039 488.398C207.774 487.907 207.635 487.357 207.635 486.799H209.654L207.757 483.384C206.944 484.154 206.433 485.188 206.314 486.3C206.194 487.413 206.475 488.532 207.106 489.456C207.736 490.38 208.675 491.05 209.755 491.345C210.834 491.64 211.983 491.541 212.996 491.066Z" fill="white"/>
<rect x="100" y="616.662" width="94" height="24" rx="12" fill="#AB001F"/>
<rect x="100" y="555" width="172" height="14" rx="7" fill="white" fill-opacity="0.6"/>
<rect x="100" y="579" width="120" height="10" rx="5" fill="white" fill-opacity="0.2"/>
<rect x="100" y="593.4" width="76.8" height="10" rx="5" fill="white" fill-opacity="0.2"/>
</g>
<defs>
<filter id="filter0_b_4497_8142" x="-80" y="-80" width="876" height="876" filterUnits="userSpaceOnUse" color-interpolation-filters="sRGB">
<feFlood flood-opacity="0" result="BackgroundImageFix"/>
<feGaussianBlur in="BackgroundImageFix" stdDeviation="40"/>
<feComposite in2="SourceAlpha" operator="in" result="effect1_backgroundBlur_4497_8142"/>
<feBlend mode="normal" in="SourceGraphic" in2="effect1_backgroundBlur_4497_8142" result="shape"/>
</filter>
<filter id="filter1_d_4497_8142" x="390.4" y="630.8" width="80" height="80" filterUnits="userSpaceOnUse" color-interpolation-filters="sRGB">
<feFlood flood-opacity="0" result="BackgroundImageFix"/>
<feColorMatrix in="SourceAlpha" type="matrix" values="0 0 0 0 0 0 0 0 0 0 0 0 0 0 0 0 0 0 127 0" result="hardAlpha"/>
<feOffset dy="4"/>
<feGaussianBlur stdDeviation="10"/>
<feComposite in2="hardAlpha" operator="out"/>
<feColorMatrix type="matrix" values="0 0 0 0 0.670588 0 0 0 0 0 0 0 0 0 0.121569 0 0 0 1 0"/>
<feBlend mode="normal" in2="BackgroundImageFix" result="effect1_dropShadow_4497_8142"/>
<feBlend mode="normal" in="SourceGraphic" in2="effect1_dropShadow_4497_8142" result="shape"/>
</filter>
<filter id="filter2_d_4497_8142" x="141.711" y="203.478" width="53.3038" height="53.3038" filterUnits="userSpaceOnUse" color-interpolation-filters="sRGB">
<feFlood flood-opacity="0" result="BackgroundImageFix"/>
<feColorMatrix in="SourceAlpha" type="matrix" values="0 0 0 0 0 0 0 0 0 0 0 0 0 0 0 0 0 0 127 0" result="hardAlpha"/>
<feOffset dy="2.13038"/>
<feGaussianBlur stdDeviation="5.32595"/>
<feComposite in2="hardAlpha" operator="out"/>
<feColorMatrix type="matrix" values="0 0 0 0 0.670588 0 0 0 0 0 0 0 0 0 0.121569 0 0 0 0.6 0"/>
<feBlend mode="normal" in2="BackgroundImageFix" result="effect1_dropShadow_4497_8142"/>
<feBlend mode="normal" in="SourceGraphic" in2="effect1_dropShadow_4497_8142" result="shape"/>
</filter>
<filter id="filter3_d_4497_8142" x="408.808" y="86.6868" width="63.0481" height="67.5813" filterUnits="userSpaceOnUse" color-interpolation-filters="sRGB">
<feFlood flood-opacity="0" result="BackgroundImageFix"/>
<feColorMatrix in="SourceAlpha" type="matrix" values="0 0 0 0 0 0 0 0 0 0 0 0 0 0 0 0 0 0 127 0" result="hardAlpha"/>
<feOffset dy="2.67815"/>
<feGaussianBlur stdDeviation="6.69538"/>
<feComposite in2="hardAlpha" operator="out"/>
<feColorMatrix type="matrix" values="0 0 0 0 0.0492188 0 0 0 0 0.0492188 0 0 0 0 0.0492188 0 0 0 0.2 0"/>
<feBlend mode="normal" in2="BackgroundImageFix" result="effect1_dropShadow_4497_8142"/>
<feBlend mode="normal" in="SourceGraphic" in2="effect1_dropShadow_4497_8142" result="shape"/>
</filter>
<filter id="filter4_d_4497_8142" x="518.476" y="91.6213" width="83.4462" height="89.4462" filterUnits="userSpaceOnUse" color-interpolation-filters="sRGB">
<feFlood flood-opacity="0" result="BackgroundImageFix"/>
<feColorMatrix in="SourceAlpha" type="matrix" values="0 0 0 0 0 0 0 0 0 0 0 0 0 0 0 0 0 0 127 0" result="hardAlpha"/>
<feOffset dy="3.54462"/>
<feGaussianBlur stdDeviation="8.86154"/>
<feComposite in2="hardAlpha" operator="out"/>
<feColorMatrix type="matrix" values="0 0 0 0 0.0492188 0 0 0 0 0.0492188 0 0 0 0 0.0492188 0 0 0 0.2 0"/>
<feBlend mode="normal" in2="BackgroundImageFix" result="effect1_dropShadow_4497_8142"/>
<feBlend mode="normal" in="SourceGraphic" in2="effect1_dropShadow_4497_8142" result="shape"/>
</filter>
<filter id="filter5_d_4497_8142" x="186.779" y="464.732" width="48.4403" height="48.4403" filterUnits="userSpaceOnUse" color-interpolation-filters="sRGB">
<feFlood flood-opacity="0" result="BackgroundImageFix"/>
<feColorMatrix in="SourceAlpha" type="matrix" values="0 0 0 0 0 0 0 0 0 0 0 0 0 0 0 0 0 0 127 0" result="hardAlpha"/>
<feOffset dy="2.15292"/>
<feGaussianBlur stdDeviation="5.3823"/>
<feComposite in2="hardAlpha" operator="out"/>
<feColorMatrix type="matrix" values="0 0 0 0 0.410026 0 0 0 0 0.410026 0 0 0 0 0.410026 0 0 0 0.4 0"/>
<feBlend mode="normal" in2="BackgroundImageFix" result="effect1_dropShadow_4497_8142"/>
<feBlend mode="normal" in="SourceGraphic" in2="effect1_dropShadow_4497_8142" result="shape"/>
</filter>
<clipPath id="clip0_4497_8142">
<rect width="716" height="716" fill="white"/>
</clipPath>
</defs>
</svg>
