<svg width="716" height="716" viewBox="0 0 716 716" fill="none" xmlns="http://www.w3.org/2000/svg">
<g filter="url(#filter0_b_4497_8530)">
<rect width="716" height="716" fill="#323232"/>
<rect x="63.5" y="63.5" width="589" height="589" rx="22.5" stroke="#EEEEEE" stroke-opacity="0.2" stroke-width="3" stroke-dasharray="8 8"/>
<path d="M122 649L118.914 645.914C119.297 644.93 119.5 643.867 119.5 642.75C119.5 637.914 115.586 634 110.75 634C105.914 634 102 637.914 102 642.75C102 647.586 105.914 651.5 110.75 651.5C111.867 651.5 112.93 651.289 113.914 650.914L117 654L113.914 657.086C112.93 656.703 111.867 656.5 110.75 656.5C105.914 656.5 102 660.414 102 665.25C102 670.086 105.914 674 110.75 674C115.586 674 119.5 670.086 119.5 665.25C119.5 664.133 119.289 663.07 118.914 662.086L141 640C141.555 639.445 141.555 638.555 141 638C138.789 635.789 135.211 635.789 133 638L122 649ZM123.766 660.766L133 670C135.211 672.211 138.789 672.211 141 670C141.555 669.445 141.555 668.555 141 668L128.766 655.766L123.766 660.766ZM107 642.75C107 642.258 107.097 641.77 107.285 641.315C107.474 640.86 107.75 640.447 108.098 640.098C108.447 639.75 108.86 639.474 109.315 639.285C109.77 639.097 110.258 639 110.75 639C111.242 639 111.73 639.097 112.185 639.285C112.64 639.474 113.053 639.75 113.402 640.098C113.75 640.447 114.026 640.86 114.215 641.315C114.403 641.77 114.5 642.258 114.5 642.75C114.5 643.242 114.403 643.73 114.215 644.185C114.026 644.64 113.75 645.053 113.402 645.402C113.053 645.75 112.64 646.026 112.185 646.215C111.73 646.403 111.242 646.5 110.75 646.5C110.258 646.5 109.77 646.403 109.315 646.215C108.86 646.026 108.447 645.75 108.098 645.402C107.75 645.053 107.474 644.64 107.285 644.185C107.097 643.73 107 643.242 107 642.75ZM110.75 661.5C111.242 661.5 111.73 661.597 112.185 661.785C112.64 661.974 113.053 662.25 113.402 662.598C113.75 662.947 114.026 663.36 114.215 663.815C114.403 664.27 114.5 664.758 114.5 665.25C114.5 665.742 114.403 666.23 114.215 666.685C114.026 667.14 113.75 667.553 113.402 667.902C113.053 668.25 112.64 668.526 112.185 668.715C111.73 668.903 111.242 669 110.75 669C110.258 669 109.77 668.903 109.315 668.715C108.86 668.526 108.447 668.25 108.098 667.902C107.75 667.553 107.474 667.14 107.285 666.685C107.097 666.23 107 665.742 107 665.25C107 664.758 107.097 664.27 107.285 663.815C107.474 663.36 107.75 662.947 108.098 662.598C108.447 662.25 108.86 661.974 109.315 661.785C109.77 661.597 110.258 661.5 110.75 661.5Z" fill="#D8D8D8"/>
<path d="M102 118C102 109.163 109.163 102 118 102H324C332.837 102 340 109.163 340 118V324C340 332.837 332.837 340 324 340H118C109.163 340 102 332.837 102 324V118Z" fill="#AB001F"/>
<path d="M103 118C103 109.716 109.716 103 118 103H324C332.284 103 339 109.716 339 118V324C339 332.284 332.284 339 324 339H118C109.716 339 103 332.284 103 324V118Z" stroke="white" stroke-opacity="0.2" stroke-width="2"/>
<rect x="126" y="246" width="172" height="14" rx="7" fill="white" fill-opacity="0.6"/>
<rect x="126" y="267" width="114" height="14" rx="7" fill="white" fill-opacity="0.6"/>
<rect x="126" y="291" width="120" height="10" rx="5" fill="white" fill-opacity="0.2"/>
<rect x="126" y="305.4" width="76.8" height="10" rx="5" fill="white" fill-opacity="0.2"/>
<rect x="102" y="376" width="238" height="238" rx="16" fill="#D8D8D8"/>
<rect x="103" y="377" width="236" height="236" rx="15" stroke="white" stroke-opacity="0.1" stroke-width="2"/>
<rect x="376" y="102" width="238" height="238" rx="16" fill="#9A9A9A"/>
<rect x="377" y="103" width="236" height="236" rx="15" stroke="white" stroke-opacity="0.1" stroke-width="2"/>
<rect x="376" y="376" width="238" height="238" rx="16" fill="#525252"/>
<rect x="377" y="377" width="236" height="236" rx="15" stroke="white" stroke-opacity="0.1" stroke-width="2"/>
<rect x="127" y="127" width="137" height="94" rx="7" stroke="white" stroke-opacity="0.32" stroke-width="2"/>
<rect x="401" y="428" width="98" height="66" rx="7" stroke="white" stroke-width="2"/>
<path d="M128 144L263 144" stroke="white" stroke-opacity="0.32" stroke-width="2"/>
<path d="M136 208L255 208" stroke="white" stroke-width="2"/>
<circle cx="242" cy="136" r="2" fill="white"/>
<circle cx="248" cy="136" r="2" fill="white"/>
<circle cx="138" cy="412" r="4" fill="white"/>
<circle cx="138" cy="474" r="4" fill="white"/>
<circle cx="196" cy="474" r="4" fill="white"/>
<circle cx="254" cy="136" r="2" fill="white"/>
<rect x="137" y="154" width="117" height="41" rx="3" stroke="white" stroke-width="2"/>
<path d="M253.5 155.5L138 193.5" stroke="white" stroke-width="2"/>
<path d="M138 155.5L253.5 193.5" stroke="white" stroke-width="2"/>
<rect x="127" y="401" width="62" height="36" rx="3" stroke="white" stroke-width="2"/>
<rect x="127" y="463" width="50" height="29" rx="3" stroke="white" stroke-width="2"/>
<rect x="185" y="463" width="50" height="29" rx="3" stroke="white" stroke-width="2"/>
<rect x="400" y="521" width="119" height="14" rx="7" fill="white" fill-opacity="0.6"/>
<rect x="400" y="247" width="129" height="14" rx="7" fill="white" fill-opacity="0.6"/>
<rect x="126" y="521" width="124" height="14" rx="7" fill="#323232" fill-opacity="0.6"/>
<rect x="400" y="542" width="153" height="14" rx="7" fill="white" fill-opacity="0.6"/>
<rect x="400" y="268" width="158" height="14" rx="7" fill="white" fill-opacity="0.6"/>
<rect x="126" y="542" width="90" height="14" rx="7" fill="#323232" fill-opacity="0.6"/>
<rect x="400" y="566" width="153" height="10" rx="5" fill="white" fill-opacity="0.2"/>
<rect x="400" y="292" width="70" height="10" rx="5" fill="white" fill-opacity="0.2"/>
<rect x="126" y="566" width="180" height="10" rx="5" fill="#323232" fill-opacity="0.2"/>
<rect x="400" y="580" width="100" height="10" rx="5" fill="white" fill-opacity="0.2"/>
<rect x="400" y="306" width="100" height="10" rx="5" fill="white" fill-opacity="0.2"/>
<rect x="126" y="580" width="149" height="10" rx="5" fill="#323232" fill-opacity="0.2"/>
<circle cx="300" cy="142" r="16" fill="#323232"/>
<path d="M294 140.883L298.375 146L306 138" stroke="white" stroke-width="2"/>
<circle cx="300" cy="416" r="16" fill="#323232"/>
<path d="M294 414.883L298.375 420L306 412" stroke="white" stroke-width="2"/>
<circle cx="574" cy="142" r="16" fill="#323232"/>
<path d="M568 140.883L572.375 146L580 138" stroke="white" stroke-width="2"/>
<circle cx="574" cy="416" r="16" fill="#323232"/>
<path d="M568 414.883L572.375 420L580 412" stroke="white" stroke-width="2"/>
<path fill-rule="evenodd" clip-rule="evenodd" d="M438 126H408C403.582 126 400 129.582 400 134V164.5H402V134C402 130.686 404.686 128 408 128H438V126ZM458 128V126H488C492.418 126 496 129.582 496 134V164.5H494V134C494 130.686 491.314 128 488 128H458ZM458 220H488C491.314 220 494 217.314 494 214V184.5H496V214C496 218.418 492.418 222 488 222H458V220ZM402 184.5V214C402 217.314 404.686 220 408 220H438V222H408C403.582 222 400 218.418 400 214V184.5H402Z" fill="white" fill-opacity="0.32"/>
<path fill-rule="evenodd" clip-rule="evenodd" d="M447.293 140.293C447.683 139.902 448.317 139.902 448.707 140.293L455.071 146.657C455.462 147.047 455.462 147.681 455.071 148.071C454.681 148.462 454.047 148.462 453.657 148.071L449 143.414L449 167.071C448.673 167.024 448.34 167 448 167C447.66 167 447.327 167.024 447 167.071L447 143.414L442.343 148.071C441.953 148.462 441.319 148.462 440.929 148.071C440.538 147.681 440.538 147.047 440.929 146.657L447.293 140.293ZM441.071 173H417.414L422.071 168.343C422.462 167.953 422.462 167.319 422.071 166.929C421.681 166.538 421.047 166.538 420.657 166.929L414.293 173.293C413.902 173.683 413.902 174.317 414.293 174.707L420.657 181.071C421.047 181.462 421.681 181.462 422.071 181.071C422.462 180.681 422.462 180.047 422.071 179.657L417.414 175H441.071C441.024 174.673 441 174.34 441 174C441 173.66 441.024 173.327 441.071 173ZM447 180.929L447 204.586L442.343 199.929C441.953 199.538 441.319 199.538 440.929 199.929C440.538 200.319 440.538 200.953 440.929 201.343L447.293 207.707C447.683 208.098 448.317 208.098 448.707 207.707L455.071 201.343C455.462 200.953 455.462 200.319 455.071 199.929C454.681 199.538 454.047 199.538 453.657 199.929L449 204.586L449 180.929C448.673 180.976 448.34 181 448 181C447.66 181 447.327 180.976 447 180.929ZM454.929 175H478.586L473.929 179.657C473.538 180.047 473.538 180.681 473.929 181.071C474.319 181.462 474.953 181.462 475.343 181.071L481.707 174.707C482.098 174.317 482.098 173.683 481.707 173.293L475.343 166.929C474.953 166.538 474.319 166.538 473.929 166.929C473.538 167.319 473.538 167.953 473.929 168.343L478.586 173H454.929C454.976 173.327 455 173.66 455 174C455 174.34 454.976 174.673 454.929 175Z" fill="white"/>
<circle cx="448" cy="174" r="3" fill="white"/>
<path d="M152 438V464" stroke="white" stroke-opacity="0.4" stroke-width="2"/>
<path d="M163 437.5V446C163 448.209 164.791 450 167 450H206C208.209 450 210 451.791 210 454V464" stroke="white" stroke-opacity="0.4" stroke-width="2"/>
<path fill-rule="evenodd" clip-rule="evenodd" d="M515 459V460H518C519.085 460 520.119 459.784 521.062 459.393L520.679 458.469L520.296 457.546C519.592 457.838 518.817 458 518 458H515V459ZM525 410.75H526V408C526 406.915 525.784 405.881 525.393 404.938L524.469 405.321L523.546 405.704C523.838 406.408 524 407.183 524 408V410.75H525ZM446 400H449V401V402H446C445.183 402 444.408 402.162 443.704 402.454L443.321 401.531L442.938 400.607C443.881 400.216 444.915 400 446 400ZM439 421.75H438V416.25H439H440V421.75H439ZM439 410.75H438V408C438 406.915 438.216 405.881 438.607 404.938L439.531 405.321L440.454 405.704C440.162 406.408 440 407.183 440 408V410.75H439ZM455 401V400H461V401V402H455V401ZM467 401V400H473V401V402H467V401ZM479 401V400H485V401V402H479V401ZM491 401V400H497V401V402H491V401ZM503 401V400H509V401V402H503V401ZM515 401V400H518C519.085 400 520.119 400.216 521.062 400.607L520.679 401.531L520.296 402.454C519.592 402.162 518.817 402 518 402H515V401ZM525 416.25H526V421.75H525H524V416.25H525ZM525 427.25H526V432.75H525H524V427.25H525ZM525 438.25H526V443.75H525H524V438.25H525ZM525 449.25H526V452C526 453.085 525.784 454.119 525.393 455.062L524.469 454.679L523.546 454.296C523.838 453.592 524 452.817 524 452V449.25H525ZM509 459V460H503V459V458H509V459Z" fill="white" fill-opacity="0.32"/>
<path d="M401.243 477L419.416 458.828C420.978 457.266 423.51 457.266 425.072 458.828L459.744 493.5" stroke="white" stroke-width="2"/>
<path d="M444.5 478.5L476.672 446.328C478.234 444.766 480.766 444.766 482.328 446.328L499 463" stroke="white" stroke-width="2"/>
<circle cx="445" cy="451" r="9" stroke="white" stroke-width="2"/>
</g>
<defs>
<filter id="filter0_b_4497_8530" x="-80" y="-80" width="876" height="876" filterUnits="userSpaceOnUse" color-interpolation-filters="sRGB">
<feFlood flood-opacity="0" result="BackgroundImageFix"/>
<feGaussianBlur in="BackgroundImageFix" stdDeviation="40"/>
<feComposite in2="SourceAlpha" operator="in" result="effect1_backgroundBlur_4497_8530"/>
<feBlend mode="normal" in="SourceGraphic" in2="effect1_backgroundBlur_4497_8530" result="shape"/>
</filter>
</defs>
</svg>
