<svg xmlns="http://www.w3.org/2000/svg" width="120" height="78" fill="none"><rect width="120" height="56" fill="#E4E9F0" rx="28"/><circle cx="92" cy="28" r="28" fill="#2AD5EF"/><path fill="#303741" d="m97.895 20.632-1.888 1.248c-.342-.661-.758-1.195-1.248-1.6-.64-.49-1.44-.736-2.4-.736-1.067 0-1.93.31-2.592.928-.662.597-.992 1.387-.992 2.368 0 .725.266 1.344.8 1.856.426.427 1.173.875 2.24 1.344l2.048.896c1.514.661 2.613 1.333 3.296 2.016 1.024 1.024 1.536 2.315 1.536 3.872 0 1.941-.64 3.52-1.92 4.736-1.28 1.216-2.89 1.824-4.832 1.824-1.92 0-3.467-.576-4.64-1.728-.96-.939-1.622-2.197-1.984-3.776l2.304-.64c.15 1.067.576 1.973 1.28 2.72.79.79 1.813 1.184 3.072 1.184 1.365 0 2.421-.405 3.168-1.216.746-.832 1.12-1.835 1.12-3.008 0-1.024-.352-1.856-1.056-2.496-.406-.384-1.259-.875-2.56-1.472l-1.92-.896c-1.302-.597-2.25-1.184-2.848-1.76-.982-.939-1.472-2.101-1.472-3.488 0-1.643.554-2.965 1.664-3.968 1.13-1.024 2.57-1.536 4.32-1.536 1.322 0 2.464.32 3.424.96.874.576 1.568 1.365 2.08 2.368ZM19.752 39V17.656h4.352c3.285 0 5.91.832 7.872 2.496 2.432 2.027 3.648 4.757 3.648 8.192 0 3.328-1.248 6.059-3.744 8.192-1.024.875-2.123 1.504-3.296 1.888-1.173.384-2.677.576-4.512.576h-4.32Zm2.368-19.104V36.76h2.08c2.539 0 4.576-.64 6.112-1.92 1.92-1.621 2.88-3.787 2.88-6.496 0-2.56-.821-4.608-2.464-6.144-1.643-1.536-3.819-2.304-6.528-2.304h-2.08Z"/><path fill="#fff" d="M17.14 70.33h1.74c.526 0 .986.047 1.38.14.393.087.76.257 1.1.51.406.307.72.693.94 1.16.226.467.34.977.34 1.53 0 1.167-.447 2.063-1.34 2.69-.36.253-.727.423-1.1.51-.374.087-.82.13-1.34.13h-1.72v-6.67Zm1.3 1.12v4.43h.4c.68 0 1.223-.147 1.63-.44.26-.187.463-.437.61-.75.146-.32.22-.66.22-1.02a2.33 2.33 0 0 0-.22-1 1.95 1.95 0 0 0-.6-.78c-.394-.293-.94-.44-1.64-.44h-.4ZM29.679 77l-.59-1.4h-2.69l-.59 1.4h-1.41l2.89-6.81h.98l2.81 6.81h-1.4Zm-2.87-2.46h1.9l-.94-2.4-.96 2.4Zm9.607-3.09h-1.5V77h-1.3v-5.55h-1.5v-1.12h4.3v1.12ZM42.689 77l-.59-1.4h-2.69l-.59 1.4h-1.41l2.89-6.81h.98L44.09 77h-1.4Zm-2.87-2.46h1.9l-.94-2.4-.96 2.4Zm13.653-3.28-.59.39a1.573 1.573 0 0 0-.39-.5c-.2-.153-.45-.23-.75-.23-.334 0-.603.097-.81.29-.207.187-.31.433-.31.74 0 .227.083.42.25.58.133.133.367.273.7.42l.64.28c.473.207.816.417 1.03.63.32.32.48.723.48 1.21 0 .607-.2 1.1-.6 1.48-.4.38-.904.57-1.51.57-.6 0-1.084-.18-1.45-.54-.3-.293-.507-.687-.62-1.18l.72-.2c.047.333.18.617.4.85.246.247.566.37.96.37.426 0 .757-.127.99-.38.233-.26.35-.573.35-.94 0-.32-.11-.58-.33-.78-.127-.12-.393-.273-.8-.46l-.6-.28c-.407-.187-.703-.37-.89-.55a1.448 1.448 0 0 1-.46-1.09c0-.513.173-.927.52-1.24.353-.32.803-.48 1.35-.48.413 0 .77.1 1.07.3.273.18.49.427.65.74Zm8.476 4.87c-.667.66-1.487.99-2.46.99-.974 0-1.797-.33-2.47-.99-.667-.66-1-1.48-1-2.46 0-.987.336-1.807 1.01-2.46.673-.66 1.493-.99 2.46-.99.966 0 1.786.33 2.46.99.673.653 1.01 1.473 1.01 2.46 0 .98-.337 1.8-1.01 2.46Zm-.54-4.41a2.598 2.598 0 0 0-1.92-.8c-.754 0-1.394.267-1.92.8-.527.533-.79 1.183-.79 1.95 0 .767.263 1.417.79 1.95.526.533 1.166.8 1.92.8.753 0 1.393-.267 1.92-.8.526-.533.79-1.183.79-1.95 0-.767-.264-1.417-.79-1.95Zm4.209-1.39h.74v5.97h1.84v.7h-2.58v-6.67Zm5.624 0v4.09c0 .253.003.45.01.59.013.14.06.313.14.52.087.2.213.37.38.51.3.253.667.38 1.1.38.433 0 .8-.127 1.1-.38.167-.14.29-.31.37-.51a1.6 1.6 0 0 0 .14-.52c.013-.14.02-.337.02-.59v-4.09h.74v4.29c0 .68-.14 1.213-.42 1.6-.207.28-.48.5-.82.66-.333.16-.71.24-1.13.24-.42 0-.8-.08-1.14-.24a2.135 2.135 0 0 1-.81-.66c-.28-.387-.42-.92-.42-1.6v-4.29h.74Zm10.285.7h-1.62V77h-.74v-5.97h-1.62v-.7h3.98v.7Zm2.298-.7h.74V77h-.74v-6.67Zm9.33 5.8c-.666.66-1.486.99-2.46.99-.973 0-1.796-.33-2.47-.99-.666-.66-1-1.48-1-2.46 0-.987.337-1.807 1.01-2.46.674-.66 1.494-.99 2.46-.99.967 0 1.787.33 2.46.99.674.653 1.01 1.473 1.01 2.46 0 .98-.336 1.8-1.01 2.46Zm-.54-4.41a2.598 2.598 0 0 0-1.92-.8c-.753 0-1.393.267-1.92.8-.526.533-.79 1.183-.79 1.95 0 .767.264 1.417.79 1.95.527.533 1.167.8 1.92.8.754 0 1.394-.267 1.92-.8.527-.533.79-1.183.79-1.95 0-.767-.263-1.417-.79-1.95Zm4.95 5.28h-.74v-6.95l5.2 5.45v-5.17h.74v6.97l-5.2-5.45V77Z"/></svg>