<svg width="48" height="55" viewBox="0 0 48 55" fill="none" xmlns="http://www.w3.org/2000/svg">
<path d="M4.8 0C3.52696 0 2.30606 0.505713 1.40589 1.40589C0.505712 2.30606 0 3.52696 0 4.8V49.6C0 50.0243 0.168571 50.4313 0.468629 50.7314C0.768688 51.0314 1.17565 51.2 1.6 51.2H16.7808C16.2628 49.9997 15.997 48.7057 16 47.3984C16 44.0192 18.2688 41.0944 21.424 40.2464C20.5862 39.3028 19.9611 38.1901 19.5911 36.9838C19.2211 35.7774 19.1149 34.5056 19.2797 33.2545C19.4444 32.0035 19.8763 30.8025 20.546 29.7331C21.2157 28.6636 22.1075 27.7507 23.1611 27.0562C24.2146 26.3617 25.4052 25.9019 26.652 25.708C27.8989 25.5141 29.1728 25.5906 30.3875 25.9324C31.6022 26.2741 32.7292 26.8731 33.6921 27.6886C34.6549 28.5042 35.4311 29.5173 35.968 30.6592C36.6752 30.0205 37.5017 29.5278 38.4 29.2096V24C38.4 22.727 37.8943 21.5061 36.9941 20.6059C36.0939 19.7057 34.873 19.2 33.6 19.2H28.8V4.8C28.8 3.52696 28.2943 2.30606 27.3941 1.40589C26.4939 0.505713 25.273 0 24 0H4.8ZM11.2 12C11.2 12.6365 10.9471 13.247 10.4971 13.6971C10.047 14.1471 9.43652 14.4 8.8 14.4C8.16348 14.4 7.55303 14.1471 7.10294 13.6971C6.65286 13.247 6.4 12.6365 6.4 12C6.4 11.3635 6.65286 10.753 7.10294 10.3029C7.55303 9.85286 8.16348 9.6 8.8 9.6C9.43652 9.6 10.047 9.85286 10.4971 10.3029C10.9471 10.753 11.2 11.3635 11.2 12ZM8.8 19.2C9.43652 19.2 10.047 19.4529 10.4971 19.9029C10.9471 20.353 11.2 20.9635 11.2 21.6C11.2 22.2365 10.9471 22.847 10.4971 23.2971C10.047 23.7471 9.43652 24 8.8 24C8.16348 24 7.55303 23.7471 7.10294 23.2971C6.65286 22.847 6.4 22.2365 6.4 21.6C6.4 20.9635 6.65286 20.353 7.10294 19.9029C7.55303 19.4529 8.16348 19.2 8.8 19.2ZM11.2 31.2C11.2 31.8365 10.9471 32.447 10.4971 32.8971C10.047 33.3471 9.43652 33.6 8.8 33.6C8.16348 33.6 7.55303 33.3471 7.10294 32.8971C6.65286 32.447 6.4 31.8365 6.4 31.2C6.4 30.5635 6.65286 29.953 7.10294 29.5029C7.55303 29.0529 8.16348 28.8 8.8 28.8C9.43652 28.8 10.047 29.0529 10.4971 29.5029C10.9471 29.953 11.2 30.5635 11.2 31.2ZM18.4 9.6C19.0365 9.6 19.647 9.85286 20.0971 10.3029C20.5471 10.753 20.8 11.3635 20.8 12C20.8 12.6365 20.5471 13.247 20.0971 13.6971C19.647 14.1471 19.0365 14.4 18.4 14.4C17.7635 14.4 17.153 14.1471 16.7029 13.6971C16.2529 13.247 16 12.6365 16 12C16 11.3635 16.2529 10.753 16.7029 10.3029C17.153 9.85286 17.7635 9.6 18.4 9.6ZM20.8 21.6C20.8 22.2365 20.5471 22.847 20.0971 23.2971C19.647 23.7471 19.0365 24 18.4 24C17.7635 24 17.153 23.7471 16.7029 23.2971C16.2529 22.847 16 22.2365 16 21.6C16 20.9635 16.2529 20.353 16.7029 19.9029C17.153 19.4529 17.7635 19.2 18.4 19.2C19.0365 19.2 19.647 19.4529 20.0971 19.9029C20.5471 20.353 20.8 20.9635 20.8 21.6ZM33.6 34.4C33.6 35.1354 33.4552 35.8636 33.1737 36.543C32.8923 37.2225 32.4798 37.8398 31.9598 38.3598C31.4398 38.8798 30.8225 39.2923 30.143 39.5737C29.4636 39.8552 28.7354 40 28 40C27.2646 40 26.5364 39.8552 25.857 39.5737C25.1775 39.2923 24.5602 38.8798 24.0402 38.3598C23.5202 37.8398 23.1077 37.2225 22.8263 36.543C22.5448 35.8636 22.4 35.1354 22.4 34.4C22.4 32.9148 22.99 31.4904 24.0402 30.4402C25.0904 29.39 26.5148 28.8 28 28.8C29.4852 28.8 30.9096 29.39 31.9598 30.4402C33.01 31.4904 33.6 32.9148 33.6 34.4ZM38.4 47.4016C38.4 50.8896 35.6576 54.4 28.8 54.4C21.9424 54.4 19.2 50.8992 19.2 47.3984C19.2 45.0816 21.0432 43.2 23.3152 43.2H34.2848C36.5568 43.2 38.4 45.0816 38.4 47.4016ZM39.9264 52.8H40C45.7152 52.8 48 49.7888 48 46.8C48 44.8128 46.464 43.2 44.5728 43.2H40.3072C41.1264 44.4 41.6 45.8528 41.6 47.4016C41.6 49.264 41.0688 51.1552 39.9264 52.8ZM44.8 36C44.8 37.0609 44.3786 38.0783 43.6284 38.8284C42.8783 39.5786 41.8609 40 40.8 40C39.7391 40 38.7217 39.5786 37.9716 38.8284C37.2214 38.0783 36.8 37.0609 36.8 36C36.8 34.9391 37.2214 33.9217 37.9716 33.1716C38.7217 32.4214 39.7391 32 40.8 32C41.8609 32 42.8783 32.4214 43.6284 33.1716C44.3786 33.9217 44.8 34.9391 44.8 36Z" fill="#52616B"/>
</svg>
