<svg width="52" height="51" viewBox="0 0 52 51" fill="none" xmlns="http://www.w3.org/2000/svg">
<path d="M39.2 42.8H50M50 42.8L44 36.8M50 42.8L44 48.8M26 2L20 8L26 14" stroke="#52616B" stroke-width="3" stroke-linecap="round" stroke-linejoin="round"/>
<path d="M22.4 8C27.1739 8 31.7523 9.89642 35.1279 13.2721C38.5036 16.6477 40.4 21.2261 40.4 26C40.4 30.7739 38.5036 35.3523 35.1279 38.7279C31.7523 42.1036 27.1739 44 22.4 44H2" stroke="#52616B" stroke-width="3" stroke-linecap="round" stroke-linejoin="round"/>
<path d="M13.4144 10.3984C10.6732 11.9769 8.39652 14.25 6.81392 16.9888C5.23131 19.7276 4.39869 22.8353 4.4 25.9984C4.4 30.0496 5.7392 33.7888 8 36.7984" stroke="#52616B" stroke-width="3" stroke-linecap="round" stroke-linejoin="round"/>
</svg>
