<svg width="48" height="48" viewBox="0 0 48 48" fill="none" xmlns="http://www.w3.org/2000/svg">
<g clip-path="url(#clip0_391_409)">
<path d="M24 0C37.2531 0 48 10.7469 48 24C48 37.2531 37.2531 48 24 48C10.7469 48 0 37.2626 0 24C0 10.7374 10.7469 0 24 0ZM20.829 7.335C17.8699 7.34456 15.1903 12.1059 12.8867 21.4748C11.2579 21.4554 9.76388 21.4266 8.36625 21.4072H8.15438C7.98075 21.3975 7.80731 21.4072 7.63369 21.4266C6.84338 21.5709 6.27469 22.2651 6.27469 23.0651C6.27469 23.8845 6.882 24.588 7.69162 24.7132L7.71075 24.7326H12.135C11.7308 26.5608 11.3741 28.3991 11.0651 30.2458L10.9301 31.0266V31.065C10.9303 31.2498 10.9773 31.4315 11.0666 31.5933C11.1559 31.7551 11.2846 31.8917 11.4409 31.9903C11.9518 32.3181 12.6362 32.1639 12.9639 31.653L12.9928 31.6819L15.1614 24.7326H25.6097C26.4096 27.759 27.2385 30.8722 28.3374 33.8025C28.9252 35.3736 30.294 39.0362 32.5881 39.0555H32.6169C36.1639 39.0555 37.5519 33.3204 38.4675 29.523C38.67 28.7036 38.8337 27.9999 38.9976 27.4794L39.0651 27.2676L39.0748 27.2362C39.1498 26.9653 38.9968 26.676 38.7278 26.5832C38.4482 26.4868 38.1302 26.6314 38.0338 26.9205L37.9566 27.1324C37.6579 27.9711 37.3783 28.7518 37.1278 29.4555L37.1085 29.5133C35.5663 33.8603 34.8724 35.8459 33.4941 35.8459H33.4072C31.6434 35.8459 29.9951 28.6941 29.3685 26.0047C29.2626 25.5422 29.1662 25.1085 29.0698 24.7326H40.4434C40.6459 24.7326 40.8482 24.6844 41.0314 24.588L41.0402 24.5807C41.0528 24.5726 41.066 24.5654 41.0796 24.5591L41.1373 24.5205L41.1662 24.5012C41.1952 24.4819 41.2241 24.4626 41.253 24.4337L41.2956 24.3984C41.5044 24.2167 41.6524 23.9632 41.7156 23.7011C41.8603 23.0168 41.4073 22.3421 40.7229 22.2073H40.665C40.5975 22.1976 40.5397 22.188 40.4723 22.188L40.2988 22.1687C36.2796 21.8796 32.1444 21.7637 28.2602 21.6868L28.2506 21.6578C26.3711 14.5734 24.0094 7.335 20.829 7.335ZM20.7036 10.5253C20.8674 10.5253 21.0217 10.6217 21.1566 10.7953C21.4843 11.3156 22.0626 12.4819 22.9206 15.0651C23.5084 16.8386 24.1446 19.0457 24.8192 21.6096C22.2555 21.5711 19.6723 21.5421 17.1662 21.5132L15.894 21.5036C17.3302 15.894 19.0748 11.6434 20.3565 10.641C20.4626 10.5735 20.5783 10.5253 20.7036 10.5253Z" fill="#10069F"/>
</g>
<defs>
<clipPath id="clip0_391_409">
<rect width="48" height="48" fill="white"/>
</clipPath>
</defs>
</svg>
