<svg width="40" height="48" viewBox="0 0 40 48" fill="none" xmlns="http://www.w3.org/2000/svg">
<path d="M32.6463 25.5014C32.5863 19.4238 37.602 16.508 37.827 16.364C35.0072 12.2392 30.6155 11.6723 29.0496 11.6093C25.3118 11.2313 21.757 13.8111 19.8581 13.8111C17.9653 13.8111 15.0375 11.6663 11.9387 11.7233C7.86491 11.7833 4.10915 14.0931 2.00928 17.7409C-2.22345 25.0844 0.92635 35.9677 5.05109 41.9223C7.06696 44.8382 9.46981 48.1139 12.6256 47.997C15.6644 47.877 16.8133 46.0291 20.4881 46.0291C24.1629 46.0291 25.1948 47.997 28.4106 47.934C31.6804 47.874 33.7533 44.9611 35.7541 42.0363C38.07 38.6525 39.0209 35.3798 39.0779 35.2118C39.0059 35.1788 32.7003 32.7639 32.6373 25.5044L32.6463 25.5014ZM26.6047 7.66451C28.2786 5.63364 29.4095 2.81382 29.1006 0C26.6887 0.0989937 23.7639 1.6079 22.033 3.63577C20.4791 5.43566 19.1202 8.30647 19.4832 11.0633C22.177 11.2733 24.9278 9.69538 26.6017 7.66751L26.6047 7.66451Z" fill="#B3B3B3"/>
</svg>
