<svg width="48" height="48" viewBox="0 0 48 48" fill="none" xmlns="http://www.w3.org/2000/svg">
<g clip-path="url(#clip0_364_195)">
<path d="M40.5 17.64C39.66 17.64 39 16.98 39 16.14V4.5C39 3.66 38.34 3 37.5 3H10.5C9.66 3 9 3.66 9 4.5V10.5C9 11.34 8.34 12 7.5 12C6.66 12 6 11.34 6 10.5V4.5C6 2.01 8.01 0 10.5 0H37.5C39.99 0 42 2.01 42 4.5V16.14C42 16.98 41.34 17.64 40.5 17.64Z" fill="#52616B"/>
<path d="M43.5 48H4.5C2.01 48 0 45.99 0 43.5V13.5C0 11.01 2.01 9 4.5 9H18.75C19.23 9 19.68 9.21 19.95 9.6L24 15H43.5C45.99 15 48 17.01 48 19.5V43.5C48 45.99 45.99 48 43.5 48ZM4.5 12C3.66 12 3 12.66 3 13.5V43.5C3 44.34 3.66 45 4.5 45H43.5C44.34 45 45 44.34 45 43.5V19.5C45 18.66 44.34 18 43.5 18H23.25C23.0163 18.0049 22.7849 17.9528 22.5759 17.8483C22.3668 17.7438 22.1863 17.5899 22.05 17.4L18 12H4.5Z" fill="#52616B"/>
<path d="M16.5 39H10.5C9.66 39 9 38.34 9 37.5C9 36.66 9.66 36 10.5 36H16.5C17.34 36 18 36.66 18 37.5C18 38.34 17.34 39 16.5 39Z" fill="#52616B"/>
</g>
<defs>
<clipPath id="clip0_364_195">
<rect width="48" height="48" fill="white"/>
</clipPath>
</defs>
</svg>
