<svg width="48" height="48" viewBox="0 0 48 48" fill="none" xmlns="http://www.w3.org/2000/svg">
<g clip-path="url(#clip0_369_37)">
<path d="M5.53846 0C2.48123 0 0 2.48123 0 5.53846V42.4615C0 45.5188 2.48123 48 5.53846 48H42.4615C45.5188 48 48 45.5188 48 42.4615V11.0769C48 8.01969 45.5188 5.53846 42.4615 5.53846H24.3452C24.098 5.48721 23.8429 5.48721 23.5957 5.53846H20.3077C20.3077 2.48123 17.8265 0 14.7692 0H5.53846ZM5.53846 9.23077H22.1538V11.0769C22.1538 11.5666 22.3484 12.0361 22.6946 12.3824C23.0408 12.7286 23.5104 12.9231 24 12.9231C24.4896 12.9231 24.9592 12.7286 25.3054 12.3824C25.6516 12.0361 25.8462 11.5666 25.8462 11.0769V9.23077H42.4615C42.9512 9.23077 43.4207 9.42527 43.767 9.7715C44.1132 10.1177 44.3077 10.5873 44.3077 11.0769V42.4615C44.3077 42.9512 44.1132 43.4207 43.767 43.767C43.4207 44.1132 42.9512 44.3077 42.4615 44.3077H5.53846C5.04883 44.3077 4.57925 44.1132 4.23303 43.767C3.88681 43.4207 3.69231 42.9512 3.69231 42.4615V11.0769C3.69231 10.5873 3.88681 10.1177 4.23303 9.7715C4.57925 9.42527 5.04883 9.23077 5.53846 9.23077ZM23.8265 14.712C23.7484 14.7261 23.6713 14.7452 23.5957 14.7692C23.1789 14.8626 22.8074 15.0977 22.5445 15.4343C22.2816 15.771 22.1435 16.1884 22.1538 16.6154V20.3077C22.1538 20.7973 22.3484 21.2669 22.6946 21.6131C23.0408 21.9593 23.5104 22.1538 24 22.1538C24.4896 22.1538 24.9592 21.9593 25.3054 21.6131C25.6516 21.2669 25.8462 20.7973 25.8462 20.3077V16.6154C25.8555 16.3529 25.8087 16.0914 25.7088 15.8484C25.609 15.6054 25.4585 15.3865 25.2673 15.2063C25.0762 15.0262 24.8487 14.8889 24.6003 14.8036C24.3518 14.7184 24.088 14.6871 23.8265 14.712ZM22.1538 24C21.1366 24 20.3077 24.8289 20.3077 25.8462V27.6923C20.3077 28.32 20.6363 28.8591 21.1163 29.1932C19.8665 32.0142 18.7495 35.5034 18.7495 37.0948C18.7495 38.4873 19.3027 39.8228 20.2874 40.8074C21.272 41.7921 22.6075 42.3452 24 42.3452C25.3925 42.3452 26.728 41.7921 27.7126 40.8074C28.6973 39.8228 29.2505 38.4873 29.2505 37.0948C29.2505 35.5015 28.1335 32.0142 26.8855 29.1932C27.1318 29.0274 27.334 28.8041 27.4745 28.5425C27.6151 28.281 27.6899 27.9892 27.6923 27.6923V25.8462C27.6923 24.8289 26.8634 24 25.8462 24H22.1538ZM24 34.0966C25.6412 34.0966 27 35.4535 27 37.0966C27 38.7397 25.6431 40.0375 24 40.0375C22.3569 40.0375 21 38.7379 21 37.0966C21 35.4517 22.3588 34.0966 24 34.0966Z" fill="#52616B"/>
</g>
<defs>
<clipPath id="clip0_369_37">
<rect width="48" height="48" fill="white"/>
</clipPath>
</defs>
</svg>
