<svg width="36" height="38" viewBox="0 0 36 40" fill="none" xmlns="http://www.w3.org/2000/svg">
<path d="M2 10H34M14 18V30M22 18V30M4 10L6 34C6 35.0609 6.42143 36.0783 7.17157 36.8284C7.92172 37.5786 8.93913 38 10 38H26C27.0609 38 28.0783 37.5786 28.8284 36.8284C29.5786 36.0783 30 35.0609 30 34L32 10M12 10V4C12 3.46957 12.2107 2.96086 12.5858 2.58579C12.9609 2.21071 13.4696 2 14 2H22C22.5304 2 23.0391 2.21071 23.4142 2.58579C23.7893 2.96086 24 3.46957 24 4V10" stroke="#95001B" stroke-width="4" stroke-linecap="round" stroke-linejoin="round"/>
</svg>
