<svg width="48" height="48" viewBox="0 0 48 48" fill="none" xmlns="http://www.w3.org/2000/svg">
<g clip-path="url(#clip0_391_16)">
<path d="M41.7187 0.810547H6.28125C3.25956 0.810547 0.809998 3.26011 0.809998 6.2818V41.7155C0.809998 44.7372 3.25956 47.1868 6.28125 47.1868H41.7187C44.7404 47.1868 47.19 44.7372 47.19 41.7155V6.2818C47.19 3.26011 44.7404 0.810547 41.7187 0.810547Z" fill="url(#paint0_linear_391_16)"/>
<path d="M19.7363 22.6049C19.7363 22.6049 23.6738 22.3124 23.6738 17.6962C23.6738 13.0799 20.4525 10.8262 16.3725 10.8262H2.94751V36.6262H16.3725C16.3725 36.6262 24.5663 36.8849 24.5663 29.0099C24.5663 29.0099 24.9263 22.6049 19.7363 22.6049ZM8.86126 15.4124H16.3613C16.3613 15.4124 18.1875 15.4124 18.1875 18.0974C18.1875 20.7824 17.115 21.1724 15.8963 21.1724H8.86501L8.86126 15.4124ZM16.0238 32.0399H8.86501V25.1474H16.365C16.365 25.1474 19.0838 25.1099 19.0838 28.6912C19.0913 31.6724 17.1038 32.0099 16.0275 32.0399H16.0238ZM35.4975 17.3924C25.575 17.3924 25.5863 27.3037 25.5863 27.3037C25.5863 27.3037 24.9038 37.1662 35.4975 37.1662C35.4975 37.1662 44.325 37.6687 44.325 30.3074H39.7875C39.7875 30.3074 39.9375 33.0824 35.6625 33.0824C35.6625 33.0824 31.1213 33.3862 31.1213 28.5824H44.49C44.49 28.5824 45.9413 17.3924 35.4975 17.3924ZM39.5325 25.1474H31.0575C31.0575 25.1474 31.6125 21.1724 35.5988 21.1724C39.585 21.1724 39.5325 25.1474 39.5325 25.1474ZM29.9475 12.3487H40.59V15.5249H29.9475V12.3487Z" fill="white"/>
</g>
<defs>
<linearGradient id="paint0_linear_391_16" x1="24" y1="0.810547" x2="24" y2="47.1905" gradientUnits="userSpaceOnUse">
<stop stop-color="#005CFF"/>
<stop offset="1" stop-color="#0047AD"/>
</linearGradient>
<clipPath id="clip0_391_16">
<rect width="48" height="48" fill="white"/>
</clipPath>
</defs>
</svg>
