<svg width="48" height="48" viewBox="0 0 48 48" fill="none" xmlns="http://www.w3.org/2000/svg">
<path d="M20.8 44.2031C21.7 44.5594 22.6667 43.8187 22.6667 42.75V7.36875C22.6667 6.975 22.5333 6.58125 22.25 6.3375C20.6167 4.875 16.8667 3 12 3C7.79167 3 3.85833 4.24687 1.50833 5.25937C0.566667 5.67187 0 6.72188 0 7.85625V42.5719C0 43.6875 1.06667 44.4656 2.00833 44.1188C4.63333 43.1344 8.79167 42 12 42C14.825 42 18.5833 43.3125 20.8 44.2031ZM27.2 44.2031C29.4167 43.3125 33.175 42 36 42C39.2083 42 43.3667 43.1344 45.9917 44.1188C46.9333 44.475 48 43.6875 48 42.5719V7.85625C48 6.72188 47.4333 5.67188 46.4917 5.26875C44.1417 4.24688 40.2083 3 36 3C31.1333 3 27.3833 4.875 25.75 6.3375C25.475 6.58125 25.3333 6.975 25.3333 7.36875V42.75C25.3333 43.8187 26.3083 44.5594 27.2 44.2031Z" fill="#52616B"/>
</svg>
