<svg width="41" height="48" viewBox="0 0 41 48" fill="none" xmlns="http://www.w3.org/2000/svg">
<path d="M8.78571 0C3.93527 0 0 4.03125 0 9V39C0 43.9688 3.93527 48 8.78571 48H35.1429H38.0714C39.6913 48 41 46.6594 41 45C41 43.3406 39.6913 42 38.0714 42V36C39.6913 36 41 34.6594 41 33V3C41 1.34062 39.6913 0 38.0714 0H35.1429H8.78571ZM8.78571 36H32.2143V42H8.78571C7.16585 42 5.85714 40.6594 5.85714 39C5.85714 37.3406 7.16585 36 8.78571 36ZM11.7143 13.5C11.7143 12.675 12.3732 12 13.1786 12H30.75C31.5554 12 32.2143 12.675 32.2143 13.5C32.2143 14.325 31.5554 15 30.75 15H13.1786C12.3732 15 11.7143 14.325 11.7143 13.5ZM13.1786 18H30.75C31.5554 18 32.2143 18.675 32.2143 19.5C32.2143 20.325 31.5554 21 30.75 21H13.1786C12.3732 21 11.7143 20.325 11.7143 19.5C11.7143 18.675 12.3732 18 13.1786 18Z" fill="#52616B"/>
</svg>
