<svg width="48" height="48" viewBox="0 0 48 48" fill="none" xmlns="http://www.w3.org/2000/svg">
<g clip-path="url(#clip0_395_39)">
<path d="M0 7.5C0 7.10218 0.158035 6.72065 0.43934 6.43934C0.720644 6.15804 1.10218 6 1.5 6H16.494C19.626 6 22.384 7.6 23.996 10.028C24.8164 8.78862 25.9312 7.77196 27.2407 7.06901C28.5503 6.36607 30.0137 5.99878 31.5 6H46.5C46.8978 6 47.2794 6.15804 47.5607 6.43934C47.842 6.72065 48 7.10218 48 7.5V37.626C47.9995 37.8237 47.96 38.0193 47.8838 38.2017C47.8076 38.3841 47.6962 38.5497 47.556 38.689C47.4157 38.8284 47.2494 38.9387 47.0665 39.0136C46.8836 39.0886 46.6877 39.1268 46.49 39.126L31.126 39.022C30.3312 39.0164 29.5432 39.1687 28.8078 39.4701C28.0724 39.7716 27.4042 40.2162 26.842 40.778L25.062 42.56C24.9227 42.6994 24.7573 42.81 24.5752 42.8854C24.3932 42.9609 24.1981 42.9997 24.001 42.9997C23.8039 42.9997 23.6088 42.9609 23.4268 42.8854C23.2447 42.81 23.0793 42.6994 22.94 42.56L21.136 40.758C20.5792 40.2005 19.918 39.7582 19.1901 39.4565C18.4622 39.1549 17.6819 38.9997 16.894 39H1.5C1.10218 39 0.720644 38.842 0.43934 38.5607C0.158035 38.2794 0 37.8978 0 37.5L0 7.5ZM25.5 37.964C27.1064 36.6935 29.0979 36.0085 31.146 36.022L45 36.116V9H31.5C29.9087 9 28.3826 9.63214 27.2574 10.7574C26.1321 11.8826 25.5 13.4087 25.5 15V37.964ZM22.494 14.994C22.4924 13.4037 21.8596 11.8792 20.7345 10.7552C19.6095 9.63132 18.0843 9 16.494 9H3V36H16.894C18.93 36 20.906 36.692 22.5 37.96L22.494 14.994Z" fill="#52616B"/>
</g>
<defs>
<clipPath id="clip0_395_39">
<rect width="48" height="48" fill="white"/>
</clipPath>
</defs>
</svg>
