<svg width="48" height="48" viewBox="0 0 48 48" fill="none" xmlns="http://www.w3.org/2000/svg">
<path fill-rule="evenodd" clip-rule="evenodd" d="M21.888 2.5H26.112C29.788 2.5 32.7 2.5 34.978 2.806C37.322 3.122 39.22 3.786 40.718 5.282C40.983 5.56635 41.1272 5.94244 41.1203 6.33105C41.1135 6.71965 40.9561 7.09042 40.6812 7.36524C40.4064 7.64007 40.0356 7.79749 39.647 7.80435C39.2584 7.81121 38.8823 7.66696 38.598 7.402C37.75 6.558 36.59 6.05 34.578 5.78C32.524 5.504 29.814 5.5 26 5.5H22C18.186 5.5 15.478 5.504 13.42 5.78C11.41 6.05 10.25 6.558 9.404 7.404C8.558 8.25 8.05 9.41 7.78 11.422C7.504 13.478 7.5 16.186 7.5 20V28C7.5 31.814 7.504 34.524 7.78 36.58C8.05 38.59 8.558 39.75 9.404 40.596C10.25 41.442 11.41 41.95 13.422 42.22C15.478 42.496 18.186 42.5 22 42.5H26C29.814 42.5 32.524 42.496 34.58 42.22C36.59 41.95 37.75 41.442 38.596 40.596C39.988 39.204 40.41 37.042 40.482 31.978C40.4878 31.5802 40.6515 31.201 40.9369 30.9238C41.2223 30.6466 41.6062 30.4942 42.004 30.5C42.4018 30.5058 42.781 30.6695 43.0582 30.9549C43.3354 31.2403 43.4878 31.6242 43.482 32.022C43.412 36.876 43.098 40.338 40.718 42.718C39.22 44.214 37.322 44.878 34.978 45.194C32.698 45.5 29.788 45.5 26.112 45.5H21.888C18.212 45.5 15.3 45.5 13.022 45.194C10.678 44.878 8.78 44.214 7.282 42.718C5.786 41.22 5.122 39.322 4.806 36.978C4.5 34.698 4.5 31.788 4.5 28.112V19.888C4.5 16.212 4.5 13.3 4.806 11.022C5.122 8.678 5.786 6.78 7.282 5.282C8.78 3.786 10.678 3.122 13.022 2.806C15.302 2.5 18.212 2.5 21.888 2.5ZM36.228 14.092C36.728 13.5686 37.3275 13.1505 37.9913 12.8621C38.6552 12.5736 39.37 12.4208 40.0937 12.4125C40.8175 12.4043 41.5356 12.5407 42.2058 12.8139C42.8761 13.087 43.485 13.4914 43.9968 14.0032C44.5086 14.515 44.913 15.1239 45.1861 15.7942C45.4593 16.4644 45.5957 17.1825 45.5875 17.9063C45.5792 18.63 45.4264 19.3448 45.1379 20.0087C44.8495 20.6725 44.4314 21.272 43.908 21.772L34.4 31.286C34.0044 31.7027 33.5836 32.0948 33.14 32.46C32.68 32.82 32.18 33.128 31.652 33.38C31.204 33.594 30.732 33.75 30.04 33.98L25.872 35.37C25.4207 35.521 24.9362 35.5432 24.473 35.4341C24.0097 35.3251 23.586 35.089 23.2495 34.7525C22.913 34.416 22.6769 33.9923 22.5679 33.529C22.4588 33.0658 22.481 32.5813 22.632 32.13L23.994 28.05L24.022 27.964C24.254 27.27 24.41 26.8 24.624 26.352C24.8758 25.8241 25.1843 25.3252 25.544 24.864C25.85 24.472 26.2 24.122 26.718 23.604L26.78 23.542L36.228 14.092ZM41.788 16.212C41.5622 15.9861 41.294 15.8069 40.9989 15.6846C40.7038 15.5623 40.3875 15.4994 40.068 15.4994C39.7486 15.4994 39.4322 15.5623 39.1371 15.6846C38.842 15.8069 38.5738 15.9861 38.348 16.212L37.984 16.576C38.004 16.642 38.026 16.716 38.052 16.79C38.24 17.33 38.598 18.05 39.274 18.726C39.8723 19.328 40.6113 19.7714 41.424 20.016L41.788 19.652C42.0139 19.4262 42.1931 19.158 42.3154 18.8629C42.4377 18.5678 42.5006 18.2514 42.5006 17.932C42.5006 17.6125 42.4377 17.2962 42.3154 17.0011C42.1931 16.706 42.0139 16.4378 41.788 16.212ZM39.132 22.308C38.4021 21.9241 37.7345 21.4319 37.152 20.848C36.5681 20.2655 36.0759 19.5979 35.692 18.868L28.9 25.66C28.298 26.262 28.086 26.478 27.908 26.706C27.682 26.996 27.488 27.31 27.33 27.64C27.206 27.902 27.108 28.188 26.838 28.996L26.038 31.396L26.604 31.962L29.004 31.162C29.812 30.892 30.098 30.794 30.36 30.67C30.69 30.51 31.004 30.318 31.294 30.092C31.522 29.914 31.738 29.702 32.34 29.1L39.132 22.308ZM14.5 18C14.5 17.6022 14.658 17.2206 14.9393 16.9393C15.2206 16.658 15.6022 16.5 16 16.5H29C29.3978 16.5 29.7794 16.658 30.0607 16.9393C30.342 17.2206 30.5 17.6022 30.5 18C30.5 18.3978 30.342 18.7794 30.0607 19.0607C29.7794 19.342 29.3978 19.5 29 19.5H16C15.6022 19.5 15.2206 19.342 14.9393 19.0607C14.658 18.7794 14.5 18.3978 14.5 18ZM14.5 26C14.5 25.6022 14.658 25.2206 14.9393 24.9393C15.2206 24.658 15.6022 24.5 16 24.5H21C21.3978 24.5 21.7794 24.658 22.0607 24.9393C22.342 25.2206 22.5 25.6022 22.5 26C22.5 26.3978 22.342 26.7794 22.0607 27.0607C21.7794 27.342 21.3978 27.5 21 27.5H16C15.6022 27.5 15.2206 27.342 14.9393 27.0607C14.658 26.7794 14.5 26.3978 14.5 26ZM14.5 34C14.5 33.6022 14.658 33.2206 14.9393 32.9393C15.2206 32.658 15.6022 32.5 16 32.5H19C19.3978 32.5 19.7794 32.658 20.0607 32.9393C20.342 33.2206 20.5 33.6022 20.5 34C20.5 34.3978 20.342 34.7794 20.0607 35.0607C19.7794 35.342 19.3978 35.5 19 35.5H16C15.6022 35.5 15.2206 35.342 14.9393 35.0607C14.658 34.7794 14.5 34.3978 14.5 34Z" fill="#52616B"/>
</svg>
