<svg width="48" height="43" viewBox="0 0 48 43" fill="none" xmlns="http://www.w3.org/2000/svg">
<path d="M46.3973 2.22243e-06H1.6C0.714667 2.22243e-06 0 0.712002 0 1.6V8H48V1.6C48 1.38966 47.9585 1.18139 47.878 0.987092C47.7974 0.792797 47.6793 0.616296 47.5304 0.467687C47.3816 0.319079 47.2049 0.201279 47.0104 0.121029C46.816 0.040778 46.6077 -0.000348343 46.3973 2.22243e-06ZM2.66667 38.9333C2.66667 40.9867 4.344 42.6667 6.39733 42.6667H41.5973C43.6507 42.6667 45.3307 40.984 45.3307 38.9333V10.6667H2.66667V38.9333ZM16 16H32V21.3333H16V16Z" fill="#52616B"/>
</svg>
