<svg width="48" height="48" viewBox="0 0 48 48" fill="none" xmlns="http://www.w3.org/2000/svg">
<g clip-path="url(#clip0_369_58)">
<path d="M48 42.666C48 44.0805 47.4381 45.4371 46.4379 46.4373C45.4377 47.4374 44.0812 47.9994 42.6667 47.9994H5.33333C3.91885 47.9994 2.56229 47.4374 1.5621 46.4373C0.561903 45.4371 0 44.0805 0 42.666V11.9993C0 10.5849 0.561903 9.22831 1.5621 8.22811C2.56229 7.22792 3.91885 6.66602 5.33333 6.66602H42.6667C44.0812 6.66602 45.4377 7.22792 46.4379 8.22811C47.4381 9.22831 48 10.5849 48 11.9993V42.666Z" fill="#E0E7EC"/>
<path d="M31.5427 25.494H23.8267C22.2 25.494 21.596 24.4393 21.596 23.414C21.596 22.3593 22.168 21.334 23.8267 21.334H34.7387C36.2773 21.334 36.9093 22.7207 36.9093 23.5047C36.9093 24.1073 36.5773 24.7407 36.216 25.494L28.74 40.6873C27.896 42.3753 27.564 42.9767 26.208 42.9767C24.5493 42.9767 23.7053 41.7113 23.7053 40.8367C23.7053 40.4753 23.796 40.2047 24.0067 39.782L31.5427 25.494ZM14.5187 25.334H13.852C12.4053 25.334 11.8013 24.3593 11.8013 23.334C11.8013 22.278 12.5547 21.334 13.852 21.334H16.5387C17.8347 21.334 18.5587 22.2687 18.5587 23.474V40.6273C18.5587 42.134 17.8147 42.978 16.5187 42.978C15.2227 42.978 14.5187 42.134 14.5187 40.6273V25.334Z" fill="#66757F"/>
<path d="M45.3333 0H40.964C41.1933 0.393333 41.3333 0.845333 41.3333 1.33333C41.3333 2.04058 41.0524 2.71885 40.5523 3.21895C40.0522 3.71905 39.3739 4 38.6667 4C37.9594 4 37.2811 3.71905 36.7811 3.21895C36.281 2.71885 36 2.04058 36 1.33333C36 0.845333 36.14 0.393333 36.3693 0H11.6307C11.86 0.393333 12 0.845333 12 1.33333C12 2.04058 11.719 2.71885 11.219 3.21895C10.7189 3.71905 10.0406 4 9.33333 4C8.62609 4 7.94781 3.71905 7.44772 3.21895C6.94762 2.71885 6.66667 2.04058 6.66667 1.33333C6.66667 0.845333 6.80667 0.393333 7.036 0H2.66667C1.95942 0 1.28115 0.280952 0.781049 0.781049C0.280952 1.28115 0 1.95942 0 2.66667L0 17.3333H48V2.66667C48 1.95942 47.7191 1.28115 47.219 0.781049C46.7189 0.280952 46.0406 0 45.3333 0Z" fill="#DD2F45"/>
<path d="M17.576 6.13961C17.576 5.47294 18.0027 5.09961 18.576 5.09961C19.148 5.09961 19.5747 5.47294 19.5747 6.13961V12.8289H21.9467C22.6267 12.8289 22.92 13.3356 22.9067 13.7889C22.8926 14.0316 22.7843 14.2591 22.6051 14.4232C22.4258 14.5873 22.1896 14.675 21.9467 14.6676H18.616C17.9627 14.6676 17.576 14.2423 17.576 13.5756V6.13961ZM8.36267 6.13961C8.36267 5.47294 8.78934 5.09961 9.36267 5.09961C9.93601 5.09961 10.3627 5.47294 10.3627 6.13961V10.7903C10.3627 12.0169 11.148 12.9889 12.4147 12.9889C13.6267 12.9889 14.4533 11.9636 14.4533 10.7903V6.13961C14.4533 5.47294 14.8787 5.09961 15.452 5.09961C16.0253 5.09961 16.452 5.47294 16.452 6.13961V10.8969C16.452 13.1356 14.612 14.8289 12.4147 14.8289C10.1893 14.8289 8.36267 13.1623 8.36267 10.8969V6.13961ZM7.32001 12.0023C7.32001 14.2409 5.89467 14.8276 4.68134 14.8276C3.76267 14.8276 2.22934 14.4676 2.22934 13.3076C2.22934 12.9489 2.53601 12.4956 2.97601 12.4956C3.50934 12.4956 3.97601 12.9889 4.57467 12.9889C5.32134 12.9889 5.32134 12.2956 5.32134 11.8689V6.13961C5.32134 5.47294 5.74801 5.09961 6.32001 5.09961C6.89467 5.09961 7.32001 5.47294 7.32001 6.13961V12.0023Z" fill="#F5F8FA"/>
<path d="M42.6667 13.3333C42.6667 13.687 42.8071 14.0261 43.0572 14.2761C43.3072 14.5262 43.6464 14.6667 44 14.6667C44.3536 14.6667 44.6928 14.5262 44.9428 14.2761C45.1929 14.0261 45.3333 13.687 45.3333 13.3333C45.3333 12.9797 45.1929 12.6406 44.9428 12.3905C44.6928 12.1405 44.3536 12 44 12C43.6464 12 43.3072 12.1405 43.0572 12.3905C42.8071 12.6406 42.6667 12.9797 42.6667 13.3333ZM42.6667 9.33333C42.6667 9.68696 42.8071 10.0261 43.0572 10.2761C43.3072 10.5262 43.6464 10.6667 44 10.6667C44.3536 10.6667 44.6928 10.5262 44.9428 10.2761C45.1929 10.0261 45.3333 9.68696 45.3333 9.33333C45.3333 8.97971 45.1929 8.64057 44.9428 8.39052C44.6928 8.14048 44.3536 8 44 8C43.6464 8 43.3072 8.14048 43.0572 8.39052C42.8071 8.64057 42.6667 8.97971 42.6667 9.33333ZM38.6667 13.3333C38.6667 13.687 38.8071 14.0261 39.0572 14.2761C39.3072 14.5262 39.6464 14.6667 40 14.6667C40.3536 14.6667 40.6928 14.5262 40.9428 14.2761C41.1929 14.0261 41.3333 13.687 41.3333 13.3333C41.3333 12.9797 41.1929 12.6406 40.9428 12.3905C40.6928 12.1405 40.3536 12 40 12C39.6464 12 39.3072 12.1405 39.0572 12.3905C38.8071 12.6406 38.6667 12.9797 38.6667 13.3333ZM38.6667 9.33333C38.6667 9.68696 38.8071 10.0261 39.0572 10.2761C39.3072 10.5262 39.6464 10.6667 40 10.6667C40.3536 10.6667 40.6928 10.5262 40.9428 10.2761C41.1929 10.0261 41.3333 9.68696 41.3333 9.33333C41.3333 8.97971 41.1929 8.64057 40.9428 8.39052C40.6928 8.14048 40.3536 8 40 8C39.6464 8 39.3072 8.14048 39.0572 8.39052C38.8071 8.64057 38.6667 8.97971 38.6667 9.33333ZM34.6667 13.3333C34.6667 13.687 34.8071 14.0261 35.0572 14.2761C35.3072 14.5262 35.6464 14.6667 36 14.6667C36.3536 14.6667 36.6928 14.5262 36.9428 14.2761C37.1929 14.0261 37.3333 13.687 37.3333 13.3333C37.3333 12.9797 37.1929 12.6406 36.9428 12.3905C36.6928 12.1405 36.3536 12 36 12C35.6464 12 35.3072 12.1405 35.0572 12.3905C34.8071 12.6406 34.6667 12.9797 34.6667 13.3333ZM34.6667 9.33333C34.6667 9.68696 34.8071 10.0261 35.0572 10.2761C35.3072 10.5262 35.6464 10.6667 36 10.6667C36.3536 10.6667 36.6928 10.5262 36.9428 10.2761C37.1929 10.0261 37.3333 9.68696 37.3333 9.33333C37.3333 8.97971 37.1929 8.64057 36.9428 8.39052C36.6928 8.14048 36.3536 8 36 8C35.6464 8 35.3072 8.14048 35.0572 8.39052C34.8071 8.64057 34.6667 8.97971 34.6667 9.33333ZM30.6667 9.33333C30.6667 9.68696 30.8071 10.0261 31.0572 10.2761C31.3072 10.5262 31.6464 10.6667 32 10.6667C32.3536 10.6667 32.6928 10.5262 32.9428 10.2761C33.1929 10.0261 33.3333 9.68696 33.3333 9.33333C33.3333 8.97971 33.1929 8.64057 32.9428 8.39052C32.6928 8.14048 32.3536 8 32 8C31.6464 8 31.3072 8.14048 31.0572 8.39052C30.8071 8.64057 30.6667 8.97971 30.6667 9.33333ZM30.6667 13.3333C30.6667 13.687 30.8071 14.0261 31.0572 14.2761C31.3072 14.5262 31.6464 14.6667 32 14.6667C32.3536 14.6667 32.6928 14.5262 32.9428 14.2761C33.1929 14.0261 33.3333 13.687 33.3333 13.3333C33.3333 12.9797 33.1929 12.6406 32.9428 12.3905C32.6928 12.1405 32.3536 12 32 12C31.6464 12 31.3072 12.1405 31.0572 12.3905C30.8071 12.6406 30.6667 12.9797 30.6667 13.3333Z" fill="#F4ABBA"/>
</g>
<defs>
<clipPath id="clip0_369_58">
<rect width="48" height="48" fill="white"/>
</clipPath>
</defs>
</svg>
