<svg width="48" height="41" viewBox="0 0 48 41" fill="none" xmlns="http://www.w3.org/2000/svg">
<path d="M19.2 0H43.2C45.8475 0 48 2.29824 48 5.125V23.0625C48 25.8893 45.8475 28.1875 43.2 28.1875H19.2C16.5525 28.1875 14.4 25.8893 14.4 23.0625V5.125C14.4 2.29824 16.5525 0 19.2 0ZM35.7 8.54434C35.3625 8.00781 34.8 7.6875 34.2 7.6875C33.6 7.6875 33.0375 8.00781 32.7 8.54434L28.5 15.2709L27.2025 13.5332C26.8575 13.0768 26.34 12.8125 25.8 12.8125C25.26 12.8125 24.735 13.0768 24.3975 13.5332L19.5975 19.9395C19.1625 20.516 19.08 21.3088 19.38 21.9734C19.68 22.6381 20.31 23.0625 21 23.0625H27H30.6H41.4C42.0675 23.0625 42.675 22.6701 42.99 22.0455C43.305 21.4209 43.2675 20.6602 42.9 20.0756L35.7 8.54434ZM25.2 7.6875C25.2 7.00788 24.9471 6.3561 24.4971 5.87554C24.047 5.39498 23.4365 5.125 22.8 5.125C22.1635 5.125 21.553 5.39498 21.1029 5.87554C20.6529 6.3561 20.4 7.00788 20.4 7.6875C20.4 8.36712 20.6529 9.0189 21.1029 9.49946C21.553 9.98002 22.1635 10.25 22.8 10.25C23.4365 10.25 24.047 9.98002 24.4971 9.49946C24.9471 9.0189 25.2 8.36712 25.2 7.6875ZM4.8 10.25H12V30.75V33.3125C12 34.7299 13.0725 35.875 14.4 35.875H24C25.3275 35.875 26.4 34.7299 26.4 33.3125V30.75H38.4V35.875C38.4 38.7018 36.2475 41 33.6 41H4.8C2.1525 41 0 38.7018 0 35.875V15.375C0 12.5482 2.1525 10.25 4.8 10.25ZM5.4 15.375C4.74 15.375 4.2 15.9516 4.2 16.6562V17.9375C4.2 18.6422 4.74 19.2188 5.4 19.2188H6.6C7.26 19.2188 7.8 18.6422 7.8 17.9375V16.6562C7.8 15.9516 7.26 15.375 6.6 15.375H5.4ZM5.4 23.7031C4.74 23.7031 4.2 24.2797 4.2 24.9844V26.2656C4.2 26.9703 4.74 27.5469 5.4 27.5469H6.6C7.26 27.5469 7.8 26.9703 7.8 26.2656V24.9844C7.8 24.2797 7.26 23.7031 6.6 23.7031H5.4ZM5.4 32.0312C4.74 32.0312 4.2 32.6078 4.2 33.3125V34.5938C4.2 35.2984 4.74 35.875 5.4 35.875H6.6C7.26 35.875 7.8 35.2984 7.8 34.5938V33.3125C7.8 32.6078 7.26 32.0312 6.6 32.0312H5.4ZM30.6 33.3125V34.5938C30.6 35.2984 31.14 35.875 31.8 35.875H33C33.66 35.875 34.2 35.2984 34.2 34.5938V33.3125C34.2 32.6078 33.66 32.0312 33 32.0312H31.8C31.14 32.0312 30.6 32.6078 30.6 33.3125Z" fill="#52616B"/>
</svg>
