<svg width="48" height="48" viewBox="0 0 48 48" fill="none" xmlns="http://www.w3.org/2000/svg">
<path d="M43.5 24C43.5 18.8283 41.4455 13.8684 37.7886 10.2114C34.1316 6.55446 29.1717 4.5 24 4.5C18.8283 4.5 13.8684 6.55446 10.2114 10.2114C6.55446 13.8684 4.5 18.8283 4.5 24C4.5 29.1717 6.55446 34.1316 10.2114 37.7886C13.8684 41.4455 18.8283 43.5 24 43.5C29.1717 43.5 34.1316 41.4455 37.7886 37.7886C41.4455 34.1316 43.5 29.1717 43.5 24ZM0 24C0 17.6348 2.52856 11.5303 7.02944 7.02944C11.5303 2.52856 17.6348 0 24 0C30.3652 0 36.4697 2.52856 40.9706 7.02944C45.4714 11.5303 48 17.6348 48 24C48 30.3652 45.4714 36.4697 40.9706 40.9706C36.4697 45.4714 30.3652 48 24 48C17.6348 48 11.5303 45.4714 7.02944 40.9706C2.52856 36.4697 0 30.3652 0 24ZM28.7531 30.4781L15.225 35.6813C13.4062 36.3844 11.6156 34.5938 12.3187 32.775L17.5219 19.2469C17.8312 18.45 18.45 17.8312 19.2469 17.5219L32.775 12.3187C34.5938 11.6156 36.3844 13.4062 35.6813 15.225L30.4781 28.7531C30.1781 29.55 29.55 30.1688 28.7531 30.4781ZM27 24C27 23.2044 26.6839 22.4413 26.1213 21.8787C25.5587 21.3161 24.7956 21 24 21C23.2044 21 22.4413 21.3161 21.8787 21.8787C21.3161 22.4413 21 23.2044 21 24C21 24.7956 21.3161 25.5587 21.8787 26.1213C22.4413 26.6839 23.2044 27 24 27C24.7956 27 25.5587 26.6839 26.1213 26.1213C26.6839 25.5587 27 24.7956 27 24Z" fill="#52616B"/>
</svg>
