<svg width="48" height="42" viewBox="0 0 48 42" fill="none" xmlns="http://www.w3.org/2000/svg">
<path d="M24 0C23.1004 -1.3405e-08 22.2096 0.177188 21.3785 0.521447C20.5474 0.865706 19.7922 1.37029 19.1561 2.0064C18.52 2.64251 18.0154 3.39768 17.6712 4.22879C17.3269 5.05991 17.1497 5.95069 17.1497 6.85029C17.1497 7.74988 17.3269 8.64066 17.6712 9.47178C18.0154 10.3029 18.52 11.0581 19.1561 11.6942C19.7922 12.3303 20.5474 12.8349 21.3785 13.1791C22.2096 13.5234 23.1004 13.7006 24 13.7006C25.8168 13.7006 27.5592 12.9788 28.8439 11.6942C30.1286 10.4095 30.8503 8.66709 30.8503 6.85029C30.8503 5.03348 30.1286 3.29108 28.8439 2.0064C27.5592 0.721724 25.8168 0 24 0ZM39.4286 3.42171C38.0646 3.42171 36.7565 3.96355 35.792 4.92802C34.8275 5.89249 34.2857 7.2006 34.2857 8.56457C34.2857 9.92854 34.8275 11.2366 35.792 12.2011C36.7565 13.1656 38.0646 13.7074 39.4286 13.7074C40.7925 13.7074 42.1006 13.1656 43.0651 12.2011C44.0296 11.2366 44.5714 9.92854 44.5714 8.56457C44.5714 7.2006 44.0296 5.89249 43.0651 4.92802C42.1006 3.96355 40.7925 3.42171 39.4286 3.42171ZM8.57143 3.42171C7.20746 3.42171 5.89935 3.96355 4.93488 4.92802C3.97041 5.89249 3.42857 7.2006 3.42857 8.56457C3.42857 9.92854 3.97041 11.2366 4.93488 12.2011C5.89935 13.1656 7.20746 13.7074 8.57143 13.7074C9.9354 13.7074 11.2435 13.1656 12.208 12.2011C13.1725 11.2366 13.7143 9.92854 13.7143 8.56457C13.7143 7.2006 13.1725 5.89249 12.208 4.92802C11.2435 3.96355 9.9354 3.42171 8.57143 3.42171ZM13.7143 20.5406C13.7206 19.6354 14.0846 18.7695 14.7269 18.1317C15.3692 17.4939 16.2377 17.136 17.1429 17.136H30.8571C31.7665 17.136 32.6385 17.4972 33.2815 18.1402C33.9245 18.7832 34.2857 19.6553 34.2857 20.5646V30.8503C34.2855 31.9293 34.1166 33.0017 33.7851 34.0286C33.026 36.3556 31.4621 38.3357 29.3743 39.6134C27.2866 40.8911 24.8117 41.3826 22.3942 40.9998C19.9766 40.617 17.7747 39.3848 16.1838 37.5246C14.593 35.6644 13.7174 33.298 13.7143 30.8503V20.5406ZM10.2857 20.5646C10.2857 19.3131 10.6183 18.144 11.2046 17.136H3.42857C2.51926 17.136 1.64719 17.4972 1.00421 18.1402C0.361224 18.7832 4.7456e-07 19.6553 4.7456e-07 20.5646V29.136C-0.00046645 30.5393 0.343632 31.9213 1.00208 33.1606C1.66052 34.3999 2.61318 35.4585 3.77637 36.2436C4.93957 37.0286 6.27773 37.5161 7.67334 37.6631C9.06894 37.8101 10.4793 37.6123 11.7806 37.0869C10.7938 35.1551 10.2813 33.0161 10.2857 30.8469V20.5646ZM37.7143 20.5646V30.8503C37.7143 33.096 37.176 35.2149 36.2194 37.0869C37.5207 37.6123 38.9311 37.8101 40.3267 37.6631C41.7223 37.5161 43.0604 37.0286 44.2236 36.2436C45.3868 35.4585 46.3395 34.3999 46.9979 33.1606C47.6564 31.9213 48.0005 30.5393 48 29.136V20.5646C48 19.6553 47.6388 18.7832 46.9958 18.1402C46.3528 17.4972 45.4807 17.136 44.5714 17.136H36.7954C37.3783 18.144 37.7143 19.3131 37.7143 20.5646Z" fill="#52616B"/>
</svg>
