<svg width="50" height="48" viewBox="0 0 50 48" fill="none" xmlns="http://www.w3.org/2000/svg">
<g clip-path="url(#clip0_395_67)">
<path d="M1.81122 36.5541C1.29609 37.3945 0.717168 38.3697 0.225656 39.1467C0.0141762 39.5041 -0.0486582 39.9302 0.0506552 40.3335C0.149969 40.7367 0.403504 41.0849 0.756778 41.3032L11.0637 47.646C11.2428 47.7566 11.4422 47.8305 11.6501 47.8632C11.858 47.896 12.0704 47.887 12.2748 47.8368C12.4793 47.7866 12.6717 47.6962 12.8408 47.5709C13.01 47.4456 13.1525 47.2879 13.26 47.1069C13.6723 46.417 14.2034 45.5212 14.7821 44.5617C18.8653 37.8226 22.9722 38.6472 30.3773 42.1832L40.597 47.0433C40.7885 47.1345 40.9965 47.1863 41.2084 47.1956C41.4204 47.205 41.6321 47.1717 41.8309 47.0978C42.0298 47.0239 42.2118 46.9108 42.3662 46.7653C42.5205 46.6197 42.6441 46.4447 42.7297 46.2505L47.6374 35.1508C47.804 34.7698 47.8143 34.3385 47.666 33.95C47.5177 33.5614 47.2227 33.2467 46.8446 33.0736C44.6881 32.0587 40.3989 30.0371 36.5377 28.1738C22.6471 21.4267 10.8417 21.8628 1.81122 36.5541Z" fill="url(#paint0_linear_395_67)"/>
<path d="M48.0268 11.3623C48.5421 10.5219 49.1209 9.5467 49.6126 8.76973C49.8241 8.4123 49.8869 7.98618 49.7875 7.58294C49.6882 7.1797 49.4346 6.83152 49.0813 6.61324L38.7743 0.270412C38.5939 0.148905 38.3904 0.0658253 38.1765 0.0263399C37.9625 -0.0131454 37.7428 -0.00819166 37.5308 0.0408931C37.3189 0.0899779 37.1193 0.182144 36.9445 0.311658C36.7698 0.441172 36.6235 0.605265 36.5148 0.793729C36.1025 1.48349 35.5714 2.37949 34.9925 3.3387C30.9094 10.0778 26.8024 9.25344 19.3974 5.71724L9.20947 0.880949C9.01789 0.78978 8.80997 0.737982 8.59801 0.728621C8.38606 0.71926 8.17438 0.752527 7.97552 0.826451C7.77665 0.900375 7.59464 1.01345 7.44027 1.15899C7.28589 1.30453 7.16229 1.47956 7.07678 1.67373L2.16888 12.7736C2.00229 13.1546 1.99203 13.5859 2.14032 13.9744C2.2886 14.3629 2.58357 14.6776 2.96166 14.8507C5.11815 15.8657 9.40751 17.8874 13.2686 19.7506C27.1907 26.4897 38.9962 26.0378 48.0266 11.3623H48.0268Z" fill="url(#paint1_linear_395_67)"/>
</g>
<defs>
<linearGradient id="paint0_linear_395_67" x1="4735.49" y1="2718.37" x2="3581.26" y2="70.4542" gradientUnits="userSpaceOnUse">
<stop offset="0.18" stop-color="#0052CC"/>
<stop offset="1" stop-color="#2684FF"/>
</linearGradient>
<linearGradient id="paint1_linear_395_67" x1="46.2966" y1="-301.178" x2="1202.35" y2="2348.01" gradientUnits="userSpaceOnUse">
<stop offset="0.18" stop-color="#0052CC"/>
<stop offset="1" stop-color="#2684FF"/>
</linearGradient>
<clipPath id="clip0_395_67">
<rect width="49.96" height="48" fill="white"/>
</clipPath>
</defs>
</svg>
