<svg width="48" height="48" viewBox="0 0 48 48" fill="none" xmlns="http://www.w3.org/2000/svg">
<path d="M23.964 0C26.5776 0 28.6944 2.1552 28.6944 4.8144L28.6728 5.2056C30.756 6.0504 32.7696 7.452 34.5552 9.3096C36.624 11.4528 37.8336 14.2944 38.2056 17.94V31.0872L41.064 36.1224C42.024 37.7208 42.3312 39.06 41.5824 40.2192C40.896 41.2776 39.6696 41.6472 38.0064 41.6184H31.5984C30.8496 45.264 27.6768 48 23.88 48C20.0784 48 16.908 45.264 16.1616 41.6208H9.0672L8.93279 41.6136C7.42799 41.484 6.30719 40.7568 6.05519 39.3576C5.88479 38.4048 6.11039 37.3824 6.69839 36.1632L9.63839 30.9312L9.6456 17.796C9.9024 14.892 10.9896 12.1872 12.8808 9.7056C14.4816 7.6056 16.7688 6.06 19.2504 5.1696C19.2406 5.05146 19.2358 4.93295 19.236 4.8144C19.236 2.1552 21.3528 0 23.964 0ZM28.3272 41.6208H19.4328C20.0928 43.4688 21.8328 44.7888 23.88 44.7888C25.9248 44.7888 27.6672 43.4688 28.3272 41.6208ZM24.1968 7.4976C20.9472 7.4976 17.3736 9.0456 15.372 11.6736C13.8408 13.68 12.9864 15.8064 12.792 17.9376V31.3536C12.792 31.6344 12.72 31.9104 12.5832 32.1528L9.48479 37.6632C9.36472 37.902 9.26826 38.152 9.19679 38.4096H38.0304C38.3208 38.4144 38.5416 38.4024 38.6928 38.3976C38.5923 38.1793 38.4793 37.9669 38.3544 37.7616L35.2656 32.3208C35.1268 32.0756 35.054 31.7986 35.0544 31.5168L35.0616 18.1104C34.7712 15.3216 33.8472 13.1568 32.304 11.5536C29.808 8.9616 26.8752 7.4976 24.1968 7.4976ZM23.964 3.2088C23.6139 3.21122 23.2744 3.32959 22.9987 3.5454C22.7229 3.76121 22.5265 4.0623 22.44 4.4016C23.0304 4.3272 23.616 4.2888 24.1968 4.2888C24.6216 4.2888 25.0512 4.3128 25.4808 4.3656C25.388 4.03417 25.1897 3.74199 24.9161 3.53327C24.6424 3.32455 24.3082 3.21065 23.964 3.2088Z" fill="#52616B"/>
</svg>
