<svg width="48" height="48" viewBox="0 0 48 48" fill="none" xmlns="http://www.w3.org/2000/svg">
<path d="M4 10.8563C3.18333 10.0313 2.66666 8.83125 2.66666 7.5C2.66666 5.01562 4.45833 3 6.66666 3C7.85 3 8.91666 3.58125 9.65 4.5H38.35C39.0833 3.58125 40.15 3 41.3333 3C43.5417 3 45.3333 5.01562 45.3333 7.5C45.3333 8.83125 44.8167 10.0313 44 10.8563V37.1438C44.8167 37.9688 45.3333 39.1688 45.3333 40.5C45.3333 42.9844 43.5417 45 41.3333 45C40.15 45 39.0833 44.4188 38.35 43.5H9.65C8.91666 44.4188 7.85 45 6.66666 45C4.45833 45 2.66666 42.9844 2.66666 40.5C2.66666 39.1688 3.18333 37.9688 4 37.1438V10.8563ZM10.4417 9C10.0417 10.275 9.14166 11.2875 8 11.7469V36.2531C9.13333 36.7031 10.0333 37.7156 10.4417 39H37.5583C37.9583 37.725 38.8583 36.7125 40 36.2531V11.7469C38.8667 11.2969 37.9667 10.2844 37.5583 9H10.4417ZM10.6667 15C10.6667 13.3406 11.8583 12 13.3333 12H24C25.475 12 26.6667 13.3406 26.6667 15V24C26.6667 25.6594 25.475 27 24 27H13.3333C11.8583 27 10.6667 25.6594 10.6667 24V15ZM21.3333 30H24C26.9417 30 29.3333 27.3094 29.3333 24V21H34.6667C36.1417 21 37.3333 22.3406 37.3333 24V33C37.3333 34.6594 36.1417 36 34.6667 36H24C22.525 36 21.3333 34.6594 21.3333 33V30Z" fill="#52616B"/>
</svg>
