<svg width="48" height="48" viewBox="0 0 48 48" fill="none" xmlns="http://www.w3.org/2000/svg">
<path d="M7.2118 1.72515C8.82471 1.14976 10.5678 1.044 12.2385 1.42018C13.9091 1.79635 15.4387 2.63901 16.6493 3.85018C17.8599 5.06136 18.7019 6.59128 19.0773 8.2621C19.4527 9.93291 19.3462 11.676 18.7701 13.2886L46.8 41.3185L41.3155 46.8004L13.2856 18.7731C11.6727 19.3485 9.92957 19.4543 8.25893 19.0781C6.58828 18.7019 5.05873 17.8593 3.8481 16.6481C2.63747 15.4369 1.7955 13.907 1.42007 12.2362C1.04464 10.5654 1.15117 8.82231 1.72729 7.20966L7.50644 12.9914C7.86407 13.3617 8.29186 13.657 8.76486 13.8602C9.23786 14.0634 9.74658 14.1703 10.2614 14.1748C10.7761 14.1793 11.2866 14.0812 11.7631 13.8863C12.2395 13.6913 12.6724 13.4035 13.0364 13.0394C13.4004 12.6754 13.6883 12.2426 13.8832 11.7661C14.0782 11.2897 14.1763 10.7792 14.1718 10.2644C14.1673 9.74961 14.0604 9.24089 13.8572 8.76789C13.654 8.2949 13.3586 7.8671 12.9884 7.50947L7.20921 1.72257L7.2118 1.72515ZM34.0063 6.59453L42.2304 2.02497L45.885 5.67958L41.3155 13.9038L36.7459 14.8187L31.2666 20.3006L27.6094 16.646L33.0913 11.1641L34.0063 6.59453ZM15.7306 26.6975L21.2125 32.182L8.4188 44.9757C7.7133 45.6746 6.76652 46.0761 5.77368 46.0975C4.78085 46.1188 3.81767 45.7584 3.08279 45.0905C2.34791 44.4225 1.89735 43.4981 1.82404 42.5077C1.75072 41.5173 2.06024 40.5366 2.68876 39.7678L2.93947 39.4912L15.7332 26.6975H15.7306Z" fill="#52616B"/>
</svg>
