<svg width="45" height="48" viewBox="0 0 45 48" fill="none" xmlns="http://www.w3.org/2000/svg">
<path d="M42.7998 10.7451L23.9377 0.424536C23.4337 0.146068 22.8673 0 22.2916 0C21.7158 0 21.1494 0.146068 20.6454 0.424536L1.78332 10.7494C1.24466 11.0441 0.795001 11.4781 0.481308 12.0059C0.167616 12.5338 0.00139377 13.1361 0 13.7502V34.2498C0.00139377 34.8639 0.167616 35.4662 0.481308 35.9941C0.795001 36.5219 1.24466 36.9559 1.78332 37.2506L20.6454 47.5755C21.1494 47.8539 21.7158 48 22.2916 48C22.8673 48 23.4337 47.8539 23.9377 47.5755L42.7998 37.2506C43.3385 36.9559 43.7881 36.5219 44.1018 35.9941C44.4155 35.4662 44.5817 34.8639 44.5831 34.2498V13.7523C44.5829 13.1372 44.4172 12.5335 44.1034 12.0044C43.7897 11.4753 43.3394 11.0404 42.7998 10.7451ZM22.2916 3.42532L39.5118 12.8564L22.2916 22.2874L5.07133 12.8564L22.2916 3.42532ZM3.42947 15.8572L20.5768 25.241V43.6294L3.42947 34.252V15.8572ZM24.0063 43.6294V25.2496L41.1536 15.8572V34.2434L24.0063 43.6294Z" fill="#52616B"/>
</svg>
