<svg width="44" height="48" viewBox="0 0 44 48" fill="none" xmlns="http://www.w3.org/2000/svg">
<path fill-rule="evenodd" clip-rule="evenodd" d="M38.2392 4.92389C37.7627 4.44741 37.1971 4.06946 36.5746 3.81159C35.952 3.55372 35.2848 3.421 34.611 3.421C33.9371 3.421 33.2699 3.55372 32.6474 3.81159C32.0248 4.06946 31.4592 4.44741 30.9827 4.92389L6.03421 29.8724C4.43052 31.4764 3.5297 33.6517 3.52992 35.9199C3.53013 38.1881 4.43136 40.3632 6.03535 41.9669C7.63934 43.5706 9.81469 44.4714 12.0829 44.4712C14.351 44.471 16.5262 43.5698 18.1299 41.9658L35.6737 24.422C35.9979 24.1199 36.4267 23.9554 36.8698 23.9633C37.3129 23.9711 37.7357 24.1506 38.0491 24.4639C38.3624 24.7773 38.5419 25.2001 38.5498 25.6432C38.5576 26.0863 38.3931 26.5151 38.091 26.8393L20.5472 44.3831C19.4408 45.5185 18.12 46.4228 16.6613 47.0437C15.2027 47.6645 13.6352 47.9895 12.05 47.9997C10.4647 48.01 8.89321 47.7053 7.42664 47.1034C5.96007 46.5015 4.62765 45.6143 3.50668 44.4933C2.38571 43.3724 1.49852 42.0399 0.896596 40.5734C0.294672 39.1068 -0.0100031 37.5353 0.000250454 35.95C0.010504 34.3648 0.335482 32.7973 0.956327 31.3387C1.57717 29.88 2.48152 28.5592 3.6169 27.4528L28.5631 2.50429C30.1671 0.900607 32.3425 -0.000213799 34.6106 3.80617e-08C36.8788 0.000213875 39.054 0.901445 40.6577 2.50543C42.2613 4.10942 43.1622 6.28478 43.162 8.55294C43.1617 10.8211 42.2605 12.9963 40.6565 14.6L15.724 39.5325L15.7057 39.5508L15.6898 39.5667L15.6852 39.5713L15.6784 39.5758C14.7032 40.4861 13.4118 40.9807 12.078 40.9549C10.7442 40.9291 9.47297 40.3849 8.53369 39.4376C7.59441 38.4903 7.06099 37.2144 7.0465 35.8805C7.03201 34.5466 7.5376 33.2594 8.45608 32.292L26.2667 14.4814C26.5891 14.1697 27.0211 13.9971 27.4695 14.0008C27.918 14.0045 28.347 14.1841 28.6643 14.5011C28.9816 14.8181 29.1616 15.247 29.1658 15.6954C29.1699 16.1439 28.9977 16.576 28.6863 16.8987L10.8757 34.7093C10.5527 35.028 10.3696 35.462 10.3666 35.9158C10.3636 36.3695 10.541 36.8059 10.8597 37.1289C11.1785 37.4519 11.6124 37.635 12.0662 37.638C12.52 37.641 12.9563 37.4636 13.2793 37.1448L38.2392 12.1781C38.7157 11.7016 39.0936 11.136 39.3515 10.5135C39.6094 9.89092 39.7421 9.22369 39.7421 8.54986C39.7421 7.87603 39.6094 7.2088 39.3515 6.58626C39.0936 5.96372 38.7157 5.40035 38.2392 4.92389Z" fill="#52616B"/>
</svg>
