<svg width="48" height="48" viewBox="0 0 48 48" fill="none" xmlns="http://www.w3.org/2000/svg">
<g clip-path="url(#clip0_395_28)">
<path d="M24 1.59375C36.375 1.59375 46.3875 11.6063 46.3875 23.9625C46.3875 36.3188 36.375 46.35 24 46.35C11.625 46.35 1.6125 36.3375 1.6125 23.9813C1.6125 11.625 11.625 1.59375 24 1.59375Z" fill="#E74D89"/>
<path d="M24 47.9437C10.7625 47.9437 0 37.2 0 23.9813C0 10.7438 10.7625 0 24 0C37.2375 0 48 10.7438 48 23.9625C48 37.1813 37.2375 47.9437 24 47.9437ZM44.2312 27.2438C43.5375 27.0188 37.8937 25.35 31.4625 26.3625C34.1437 33.7125 35.2313 39.7125 35.4375 40.95C40.05 37.8562 43.3312 32.9438 44.2312 27.2438ZM32.0062 42.8438C31.7062 41.0438 30.5062 34.7812 27.6375 27.3187C27.6 27.3375 27.5437 27.3562 27.5062 27.3562C15.9375 31.3875 11.7938 39.3938 11.4188 40.1438C14.8875 42.8438 19.2563 44.4563 24 44.4563C26.8312 44.475 29.55 43.8937 32.0062 42.8438ZM8.775 37.6875C9.24375 36.9 14.8687 27.6 25.4437 24.1687C25.7062 24.075 25.9875 24 26.25 23.925C25.7437 22.7625 25.1813 21.6 24.5813 20.4562C14.3438 23.5125 4.40625 23.3813 3.50625 23.3625C3.50625 23.5688 3.4875 23.775 3.4875 23.9813C3.50625 29.25 5.49375 34.05 8.775 37.6875ZM3.9375 19.8C4.85625 19.8188 13.2937 19.8563 22.8937 17.3063C19.5 11.2688 15.825 6.20625 15.3 5.475C9.54375 8.175 5.26875 13.4625 3.9375 19.8ZM19.2 4.0875C19.7625 4.8375 23.4937 9.9 26.85 16.0687C34.1437 13.3312 37.2188 9.20625 37.5938 8.68125C33.975 5.475 29.2125 3.525 24 3.525C22.35 3.525 20.7375 3.73125 19.2 4.0875ZM39.8625 11.0438C39.4313 11.625 36 16.0312 28.425 19.125C28.8938 20.1 29.3625 21.0938 29.7937 22.0875C29.9437 22.4438 30.0938 22.8 30.2438 23.1375C37.0688 22.275 43.8375 23.6625 44.5125 23.7938C44.4562 18.975 42.7313 14.5312 39.8625 11.0438Z" fill="#B2215A"/>
</g>
<defs>
<clipPath id="clip0_395_28">
<rect width="48" height="48" fill="white"/>
</clipPath>
</defs>
</svg>
