<svg width="48" height="48" viewBox="0 0 48 48" fill="none" xmlns="http://www.w3.org/2000/svg">
<path d="M23.079 3.198C23.3685 3.06749 23.6824 3 24 3C24.3176 3 24.6315 3.06749 24.921 3.198L46.671 12.948C47.0664 13.1258 47.402 13.4141 47.6374 13.7781C47.8728 14.1422 47.9981 14.5665 47.9981 15C47.9981 15.4335 47.8728 15.8578 47.6374 16.2219C47.402 16.5859 47.0664 16.8742 46.671 17.052L39 20.493V28.875C39 31.947 36.57 34.122 34.02 35.394C31.341 36.735 27.795 37.5 24 37.5C23.166 37.5 22.35 37.464 21.552 37.392C20.9625 37.333 20.4201 37.0438 20.0425 36.5873C19.6649 36.1308 19.4826 35.5438 19.5351 34.9537C19.5877 34.3636 19.8708 33.818 20.3231 33.4354C20.7754 33.0528 21.3604 32.864 21.951 32.91C22.611 32.97 23.301 33 24 33C27.246 33 30.075 32.337 32.01 31.371C34.08 30.336 34.5 29.325 34.5 28.875V22.509L24.921 26.802C24.6315 26.9325 24.3176 27 24 27C23.6824 27 23.3685 26.9325 23.079 26.802L12 21.84V26.829C12.888 27.144 13.725 27.654 14.436 28.365C15.75 29.679 16.5 31.542 16.5 33.753V42.753C16.5 43.3497 16.2629 43.922 15.841 44.344C15.419 44.766 14.8467 45.003 14.25 45.003H5.25C4.65326 45.003 4.08097 44.766 3.65901 44.344C3.23706 43.922 3 43.3497 3 42.753V33.753C3 31.542 3.75 29.679 5.064 28.365C5.775 27.654 6.612 27.144 7.5 26.829V19.818L1.329 17.052C0.933622 16.8742 0.598036 16.5859 0.362607 16.2219C0.127177 15.8578 0.00193024 15.4335 0.00193024 15C0.00193024 14.5665 0.127177 14.1422 0.362607 13.7781C0.598036 13.4141 0.933622 13.1258 1.329 12.948L23.079 3.198ZM7.749 15L24 22.284L40.248 15L24 7.716L7.749 15ZM7.5 33.75V40.5H12V33.75C12 32.586 11.625 31.917 11.25 31.545C11.053 31.3489 10.8189 31.194 10.5613 31.0894C10.3038 30.9849 10.028 30.9327 9.75 30.936C9.18915 30.9327 8.64982 31.1517 8.25 31.545C7.875 31.917 7.5 32.586 7.5 33.75Z" fill="#52616B"/>
</svg>
