<svg width="48" height="48" viewBox="0 0 48 48" fill="none" xmlns="http://www.w3.org/2000/svg">
<path d="M40.1406 9.87342C40.1406 9.87342 42.7973 7.7681 46.2303 5.53228C48.3522 4.1498 45.866 2.80708 45.5849 1.02189C45.3657 -0.373841 43.7045 -0.415642 40.3679 1.36853C35.1702 4.14776 25.2132 9.47988 25.2132 9.47988C25.6485 8.33801 25.6363 7.96792 25.6576 7.41024C25.6901 6.54874 25.4943 4.8288 25.0163 3.22203C24.378 1.07287 20.2742 3.71038 20.2742 3.71038C20.2742 3.71038 18.6252 4.76457 16.4911 6.13991C12.633 8.5358 7.55804 11.785 5.96281 13.089C3.58518 15.0332 2.78857 16.7032 2.44355 17.6147C2.30452 17.9348 2.1858 18.2621 2.09041 18.5965C2.03561 18.7882 1.98386 18.991 1.93312 19.2011C1.33237 21.7162 1.34658 26.4122 1.47241 26.2837C2.96312 24.7595 4.40411 23.8246 4.59286 23.7043C4.48529 23.8246 4.0875 24.3018 2.7348 25.9738C1.66826 27.0728 1.35977 29.0466 1.35977 29.0466C1.36382 29.0436 1.36687 29.0395 1.37093 29.0364C0.911238 31.6689 0.912251 40.5958 1.19132 42.8612C1.57287 45.9555 2.22639 46.9913 3.03314 46.9974C3.34467 47.1493 3.84902 46.9832 4.67099 46.0748C4.67505 46.0707 4.67911 46.0656 4.68317 46.0615C5.0079 45.7597 5.32857 45.3998 5.6807 45.0603C9.91842 40.972 15.109 37.2416 15.109 37.2416C15.109 37.2416 14.7346 39.7975 15.11 42.8908C15.3586 44.94 16.6961 47.8396 17.8855 47.9568C18.0833 48.017 18.2772 48.018 18.4202 47.9364C18.4618 47.913 18.5319 47.862 18.6191 47.7957C18.7937 47.7029 18.9713 47.5704 19.1499 47.391C19.1996 47.342 19.2564 47.286 19.3183 47.2268C19.8754 46.7578 20.6578 46.0768 21.6137 45.2316C25.135 42.3035 30.2546 38.7413 32.0203 37.8441C33.6856 36.9979 34.7521 36.6034 36.0429 35.4758C39.1877 32.7281 38.8447 28.2606 38.6803 25.8147C38.5575 23.9826 38.383 21.9456 38.383 21.9456L40.3608 20.5733C40.6571 20.346 40.993 20.0911 41.3745 19.8005C42.2452 19.1389 44.9527 16.6237 45.1911 16.3046C46.0334 15.177 46.4819 13.7109 46.5946 12.358C46.7752 10.1813 46.6098 7.33989 46.5763 6.75673C46.5621 6.51714 46.3419 6.45597 44.631 7.32052C43.0307 8.12595 40.1406 9.87342 40.1406 9.87342Z" fill="#FFA535"/>
</svg>
