<svg width="48" height="48" viewBox="0 0 48 48" fill="none" xmlns="http://www.w3.org/2000/svg">
<path d="M29.3715 23.0246L12.768 20.0996V41.7131C12.7682 41.9479 12.8146 42.1804 12.9047 42.3972C12.9947 42.6141 13.1266 42.8111 13.2928 42.977C13.4589 43.1429 13.6561 43.2744 13.8732 43.3641C14.0902 43.4538 14.3227 43.4998 14.5575 43.4996H43.2075C43.4426 43.5002 43.6754 43.4544 43.8928 43.3649C44.1101 43.2754 44.3077 43.144 44.4742 42.978C44.6407 42.8121 44.7728 42.615 44.863 42.3979C44.9533 42.1809 44.9998 41.9482 45 41.7131V33.7496L29.3715 23.0246Z" fill="#185C37"/>
<path d="M29.3715 4.5H14.5575C14.3227 4.4998 14.0902 4.54586 13.8732 4.63553C13.6561 4.7252 13.4589 4.85674 13.2928 5.02263C13.1266 5.18852 12.9947 5.38552 12.9047 5.60238C12.8146 5.81923 12.7682 6.0517 12.768 6.2865V14.25L29.3715 24L38.163 26.925L45 24V14.25L29.3715 4.5Z" fill="#21A366"/>
<path d="M12.768 14.25H29.3715V24H12.768V14.25Z" fill="#107C41"/>
<path opacity="0.1" d="M24.651 12.3008H12.768V36.6758H24.651C25.1245 36.6734 25.578 36.4846 25.9132 36.1502C26.2485 35.8158 26.4385 35.3628 26.442 34.8893V14.0873C26.4385 13.6138 26.2485 13.1608 25.9132 12.8264C25.578 12.492 25.1245 12.3031 24.651 12.3008Z" fill="black"/>
<path opacity="0.2" d="M23.6745 13.2754H12.768V37.6504H23.6745C24.148 37.648 24.6015 37.4592 24.9367 37.1248C25.272 36.7904 25.462 36.3374 25.4655 35.8639V15.0619C25.462 14.5884 25.272 14.1354 24.9367 13.801C24.6015 13.4666 24.148 13.2777 23.6745 13.2754Z" fill="black"/>
<path opacity="0.2" d="M23.6745 13.2754H12.768V35.7004H23.6745C24.148 35.698 24.6015 35.5092 24.9367 35.1748C25.272 34.8404 25.462 34.3874 25.4655 33.9139V15.0619C25.462 14.5884 25.272 14.1354 24.9367 13.801C24.6015 13.4666 24.148 13.2777 23.6745 13.2754Z" fill="black"/>
<path opacity="0.2" d="M22.698 13.2754H12.768V35.7004H22.698C23.1715 35.698 23.625 35.5092 23.9602 35.1748C24.2955 34.8404 24.4855 34.3874 24.489 33.9139V15.0619C24.4855 14.5884 24.2955 14.1354 23.9602 13.801C23.625 13.4666 23.1715 13.2777 22.698 13.2754Z" fill="black"/>
<path d="M4.791 13.2754H22.698C23.1723 13.275 23.6274 13.4629 23.9633 13.7979C24.2991 14.1329 24.4882 14.5875 24.489 15.0619V32.9389C24.4882 33.4132 24.2991 33.8679 23.9633 34.2029C23.6274 34.5378 23.1723 34.7258 22.698 34.7254H4.791C4.55607 34.7258 4.32337 34.6799 4.10619 34.5903C3.88901 34.5007 3.69161 34.3692 3.52528 34.2033C3.35895 34.0374 3.22695 33.8403 3.13682 33.6234C3.04669 33.4064 3.0002 33.1738 3 32.9389V15.0619C3.0002 14.827 3.04669 14.5944 3.13682 14.3774C3.22695 14.1605 3.35895 13.9634 3.52528 13.7975C3.69161 13.6316 3.88901 13.5001 4.10619 13.4105C4.32337 13.3209 4.55607 13.275 4.791 13.2754Z" fill="url(#paint0_linear_391_352)"/>
<path d="M8.55 29.8104L12.3165 23.9844L8.8665 18.1914H11.637L13.5195 21.9009C13.6935 22.2519 13.8195 22.5129 13.8765 22.6869H13.902C14.025 22.4049 14.1555 22.1334 14.292 21.8679L16.305 18.1974H18.855L15.3165 23.9574L18.945 29.8149H16.2315L14.0565 25.7484C13.9555 25.5736 13.8697 25.3904 13.8 25.2009H13.764C13.7006 25.3855 13.616 25.5622 13.512 25.7274L11.2725 29.8104H8.55Z" fill="white"/>
<path d="M43.209 4.5H29.3715V14.25H45V6.2865C44.9998 6.05157 44.9533 5.81898 44.8632 5.60203C44.7731 5.38508 44.6411 5.18802 44.4747 5.0221C44.3084 4.85619 44.111 4.72469 43.8938 4.6351C43.6766 4.54552 43.4439 4.49961 43.209 4.5Z" fill="#33C481"/>
<path d="M29.3715 24H45V33.75H29.3715V24Z" fill="#107C41"/>
<defs>
<linearGradient id="paint0_linear_391_352" x1="6.741" y1="11.8714" x2="20.748" y2="36.1294" gradientUnits="userSpaceOnUse">
<stop stop-color="#18884F"/>
<stop offset="0.5" stop-color="#117E43"/>
<stop offset="1" stop-color="#0B6631"/>
</linearGradient>
</defs>
</svg>
