<svg width="48" height="40" viewBox="0 0 48 40" fill="none" xmlns="http://www.w3.org/2000/svg">
<path d="M23.9979 0C17.2646 0 11.8729 3.23438 7.94792 7.08398C4.04792 10.8984 1.43958 15.4688 0.20625 18.6064C-0.06875 19.3008 -0.06875 20.0742 0.20625 20.7686C1.43958 23.9062 4.04792 28.4766 7.94792 32.291C11.8729 36.1406 17.2646 39.375 23.9979 39.375C30.7313 39.375 36.1229 36.1406 40.0479 32.291C43.9479 28.4678 46.5562 23.9062 47.7979 20.7686C48.0729 20.0742 48.0729 19.3008 47.7979 18.6064C46.5562 15.4688 43.9479 10.8984 40.0479 7.08398C36.1229 3.23438 30.7313 0 23.9979 0ZM11.9979 19.6875C11.9979 16.3309 13.2622 13.1117 15.5126 10.7382C17.7631 8.36467 20.8153 7.03125 23.9979 7.03125C27.1805 7.03125 30.2328 8.36467 32.4832 10.7382C34.7336 13.1117 35.9979 16.3309 35.9979 19.6875C35.9979 23.0441 34.7336 26.2633 32.4832 28.6368C30.2328 31.0103 27.1805 32.3438 23.9979 32.3438C20.8153 32.3438 17.7631 31.0103 15.5126 28.6368C13.2622 26.2633 11.9979 23.0441 11.9979 19.6875ZM23.9979 14.0625C23.9979 17.165 21.6063 19.6875 18.6646 19.6875C18.0729 19.6875 17.5063 19.582 16.9729 19.3975C16.5146 19.2393 15.9813 19.5381 15.9979 20.0479C16.0229 20.6543 16.1063 21.2607 16.2646 21.8672C17.4062 26.3672 21.7979 29.0391 26.0646 27.835C30.3313 26.6309 32.8646 21.999 31.7229 17.499C30.7979 13.8516 27.7396 11.3994 24.3396 11.25C23.8563 11.2324 23.5729 11.7861 23.7229 12.2783C23.8979 12.8408 23.9979 13.4385 23.9979 14.0625Z" fill="#52616B"/>
</svg>
