<svg width="48" height="48" viewBox="0 0 48 48" fill="none" xmlns="http://www.w3.org/2000/svg">
<path d="M0 9C0 5.69063 2.69063 3 6 3H18.3844C20.175 3 21.8906 3.7125 23.1562 4.97812L27.1781 9H42C45.3094 9 48 11.6906 48 15V39C48 42.3094 45.3094 45 42 45H6C2.69063 45 0 42.3094 0 39V9ZM6 7.5C5.175 7.5 4.5 8.175 4.5 9V39C4.5 39.825 5.175 40.5 6 40.5H42C42.825 40.5 43.5 39.825 43.5 39V15C43.5 14.175 42.825 13.5 42 13.5H26.8688C25.875 13.5 24.9187 13.1063 24.2156 12.4031L19.9781 8.15625C19.5563 7.73438 18.9844 7.5 18.3844 7.5H6Z" fill="#52616B"/>
</svg>
