<svg width="48" height="48" viewBox="0 0 48 48" fill="none" xmlns="http://www.w3.org/2000/svg">
<g clip-path="url(#clip0_72_884)">
<path d="M15 0C12.7781 0 10.8375 1.20937 9.80625 3H4.5C2.01562 3 0 5.01562 0 7.5V37.5C0 39.9844 2.01562 42 4.5 42H18V16.5C18 12.3562 21.3563 9 25.5 9H30V7.5C30 5.01562 27.9844 3 25.5 3H20.1937C19.1625 1.20937 17.2219 0 15 0ZM25.5 12C23.0156 12 21 14.0156 21 16.5V42V43.5C21 45.9844 23.0156 48 25.5 48H43.5C45.9844 48 48 45.9844 48 43.5V24H39C37.3406 24 36 22.6594 36 21V12H30H25.5ZM15 3.75C15.5967 3.75 16.169 3.98705 16.591 4.40901C17.0129 4.83097 17.25 5.40326 17.25 6C17.25 6.59674 17.0129 7.16903 16.591 7.59099C16.169 8.01295 15.5967 8.25 15 8.25C14.4033 8.25 13.831 8.01295 13.409 7.59099C12.9871 7.16903 12.75 6.59674 12.75 6C12.75 5.40326 12.9871 4.83097 13.409 4.40901C13.831 3.98705 14.4033 3.75 15 3.75ZM39 12V21H48L39 12Z" fill="#52556B"/>
</g>
<defs>
<clipPath id="clip0_72_884">
<rect width="48" height="48" fill="white"/>
</clipPath>
</defs>
</svg>
