<svg width="48" height="48" viewBox="0 0 48 48" fill="none" xmlns="http://www.w3.org/2000/svg">
<path fill-rule="evenodd" clip-rule="evenodd" d="M24.558 3.53636C23.5311 3.36222 22.129 3.34882 19.6018 3.34882C15.322 3.34882 12.279 3.35329 9.97503 3.66138C7.71569 3.96277 6.41858 4.53207 5.47421 5.47421C4.52984 6.41858 3.96277 7.71346 3.66138 9.9594C3.35329 12.2545 3.34882 15.2773 3.34882 19.537V28.4672C3.34882 32.7225 3.35329 35.7453 3.66138 38.0404C3.96277 40.2863 4.52984 41.5812 5.47421 42.5278C6.41858 43.47 7.71346 44.037 9.9594 44.3384C12.2545 44.6487 15.2773 44.651 19.5348 44.651H28.465C32.7225 44.651 35.7476 44.6465 38.0426 44.3384C40.2863 44.037 41.5812 43.47 42.5256 42.5256C43.47 41.5812 44.037 40.2863 44.3384 38.0404C44.6465 35.7476 44.651 32.7225 44.651 28.465V27.4894C44.651 24.0602 44.6286 22.4349 44.2625 21.2092H37.2746C34.7452 21.2092 32.68 21.2092 31.0458 20.9904C29.3424 20.7605 27.8644 20.2648 26.6834 19.0838C25.5024 17.9028 25.0068 16.4271 24.7768 14.7192C24.558 13.0894 24.558 11.0221 24.558 8.49038V3.53636ZM27.9069 5.26881V8.37206C27.9069 11.0511 27.9113 12.8907 28.0966 14.2727C28.2752 15.6077 28.5967 16.2619 29.0522 16.7151C29.5054 17.1705 30.1595 17.492 31.4946 17.6706C32.8765 17.8559 34.7161 17.8604 37.3952 17.8604H41.9049C41.0482 17.0446 40.1774 16.2437 39.2929 15.4582L30.4542 7.5036C29.6204 6.74142 28.7711 5.99634 27.9069 5.26881ZM19.9255 0C23.0176 0 25.0157 1.3307e-07 26.8531 0.703253C28.6905 1.40874 30.1684 2.73934 32.4568 4.79998L32.6957 5.0143L41.5321 12.9689L41.8112 13.2189C44.4545 15.5966 46.1646 17.1348 47.0822 19.1977C48.002 21.2606 48.002 23.5601 47.9998 27.1143V28.59C47.9998 32.6934 47.9998 35.944 47.6582 38.4869C47.3055 41.1035 46.5643 43.2221 44.8943 44.8943C43.2221 46.5643 41.1035 47.3055 38.4869 47.6582C35.9418 47.9998 32.6934 47.9998 28.59 47.9998H19.4098C15.3064 47.9998 12.0558 47.9998 9.51289 47.6582C6.89634 47.3055 4.77765 46.5643 3.10548 44.8943C1.43553 43.2221 0.694323 41.1035 0.34158 38.4869C0 35.9418 0 32.6934 0 28.59V19.4098C0 15.3064 0 12.0558 0.34158 9.51289C0.694323 6.89634 1.43553 4.77765 3.10548 3.10548C4.77989 1.4333 6.90304 0.694323 9.53075 0.34158C12.0848 0 15.351 0 19.4768 0H19.9255Z" fill="#52616B"/>
<path fill-rule="evenodd" clip-rule="evenodd" d="M6.69765 22.8836C6.69765 21.5513 7.22688 20.2737 8.16892 19.3316C9.11096 18.3896 10.3886 17.8604 11.7209 17.8604H18.4185C19.3882 17.8604 20.3372 18.1411 21.1509 18.6685C21.9645 19.196 22.6081 19.9477 23.004 20.8329C23.3999 21.7181 23.5311 22.699 23.3817 23.6571C23.2324 24.6152 22.809 25.5096 22.1625 26.2324C22.9069 27.0637 23.3533 28.1191 23.4313 29.2322C23.5093 30.3453 23.2145 31.4527 22.5934 32.3796C21.9722 33.3066 21.0602 34.0003 20.001 34.3515C18.9419 34.7026 17.796 34.691 16.7441 34.3187V36.2789C16.7441 37.0931 16.5462 37.8952 16.1674 38.616C15.7886 39.3368 15.2402 39.9546 14.5695 40.4164C13.8989 40.8782 13.126 41.17 12.3175 41.2667C11.509 41.3634 10.6891 41.2621 9.92846 40.9716C9.16781 40.681 8.48918 40.2099 7.95104 39.5988C7.4129 38.9877 7.03138 38.255 6.83935 37.4637C6.64731 36.6724 6.65052 35.8463 6.84868 35.0565C7.04685 34.2667 7.43404 33.537 7.9769 32.9301C7.15166 32.01 6.696 30.8172 6.69765 29.5812C6.69765 28.2953 7.18211 27.121 7.9769 26.2324C7.15166 25.3124 6.696 24.1195 6.69765 22.8836ZM11.7209 27.9068C11.2768 27.9068 10.8509 28.0832 10.5369 28.3972C10.2229 28.7113 10.0465 29.1372 10.0465 29.5812C10.0465 30.0253 10.2229 30.4512 10.5369 30.7652C10.8509 31.0792 11.2768 31.2556 11.7209 31.2556H13.3953V27.9068H11.7209ZM13.3953 24.558H11.7209C11.2768 24.558 10.8509 24.3816 10.5369 24.0676C10.2229 23.7536 10.0465 23.3277 10.0465 22.8836C10.0465 22.4395 10.2229 22.0136 10.5369 21.6996C10.8509 21.3856 11.2768 21.2092 11.7209 21.2092H13.3953V24.558ZM18.4185 24.558C18.8626 24.558 19.2885 24.3816 19.6025 24.0676C19.9165 23.7536 20.0929 23.3277 20.0929 22.8836C20.0929 22.4395 19.9165 22.0136 19.6025 21.6996C19.2885 21.3856 18.8626 21.2092 18.4185 21.2092H16.7441V24.558H18.4185ZM18.4185 27.9068C17.9745 27.9068 17.5486 28.0832 17.2345 28.3972C16.9205 28.7113 16.7441 29.1372 16.7441 29.5812C16.7441 30.0253 16.9205 30.4512 17.2345 30.7652C17.5486 31.0792 17.9745 31.2556 18.4185 31.2556C18.8626 31.2556 19.2885 31.0792 19.6025 30.7652C19.9165 30.4512 20.0929 30.0253 20.0929 29.5812C20.0929 29.1372 19.9165 28.7113 19.6025 28.3972C19.2885 28.0832 18.8626 27.9068 18.4185 27.9068ZM13.3953 34.6045H11.7209C11.3897 34.6045 11.066 34.7027 10.7906 34.8867C10.5153 35.0706 10.3007 35.3322 10.1739 35.6381C10.0472 35.9441 10.014 36.2807 10.0786 36.6055C10.1433 36.9303 10.3027 37.2287 10.5369 37.4629C10.7711 37.697 11.0694 37.8565 11.3942 37.9211C11.719 37.9857 12.0557 37.9526 12.3617 37.8258C12.6676 37.6991 12.9291 37.4845 13.1131 37.2091C13.2971 36.9338 13.3953 36.61 13.3953 36.2789V34.6045Z" fill="#52616B"/>
</svg>
