<svg width="52" height="48" viewBox="0 0 52 48" fill="none" xmlns="http://www.w3.org/2000/svg">
<path fill-rule="evenodd" clip-rule="evenodd" d="M39.0168 19.912C39.0168 18.1944 38.1841 16.6713 36.9003 15.7245C36.7623 13.6977 36.2371 11.7772 35.3982 10.0364C40.1696 10.7945 43.8168 14.9273 43.8168 19.912C43.8168 25.4349 39.3397 29.912 33.8168 29.912C32.6811 29.912 31.5895 29.7227 30.5721 29.3739C32.1635 28.203 33.5246 26.7373 34.5748 25.0572C37.0874 24.6903 39.0168 22.5265 39.0168 19.912Z" fill="#52616B"/>
<path fill-rule="evenodd" clip-rule="evenodd" d="M46.8793 48H51.7164C50.8222 39.5302 44.0538 32.8121 35.5611 31.9954C38.9633 34.3261 41.7649 37.4695 43.6859 41.146C45.3581 43.0273 46.5006 45.3899 46.8793 48Z" fill="#52616B"/>
<path fill-rule="evenodd" clip-rule="evenodd" d="M21.3368 24C25.3132 24 28.5368 20.7765 28.5368 16.8C28.5368 12.8236 25.3132 9.60005 21.3368 9.60005C17.3603 9.60005 14.1368 12.8236 14.1368 16.8C14.1368 20.7765 17.3603 24 21.3368 24ZM21.3368 28.8C27.9642 28.8 33.3368 23.4275 33.3368 16.8C33.3368 10.1726 27.9642 4.80005 21.3368 4.80005C14.7093 4.80005 9.33676 10.1726 9.33676 16.8C9.33676 23.4275 14.7093 28.8 21.3368 28.8Z" fill="#52616B"/>
<path fill-rule="evenodd" clip-rule="evenodd" d="M37.4411 48C35.3757 41.0605 28.9472 36 21.3368 36C13.7263 36 7.29779 41.0605 5.23247 48H0.272003C2.4547 38.3809 11.0571 31.2 21.3368 31.2C31.6164 31.2 40.2188 38.3809 42.4015 48H37.4411Z" fill="#52616B"/>
</svg>
