<svg width="48" height="44" viewBox="0 0 48 44" fill="none" xmlns="http://www.w3.org/2000/svg">
<path d="M18.2857 0C23.3143 0 27.4286 4.11428 27.4286 9.14286C27.4286 14.1714 23.3143 18.2857 18.2857 18.2857C13.2571 18.2857 9.14286 14.1714 9.14286 9.14286C9.14286 4.11428 13.2571 0 18.2857 0ZM34.2857 38.8571L38.4 42.9029C39.5429 44.0457 41.1429 43.1314 41.1429 41.7829V32L47.5429 24.2286C47.7975 23.889 47.9526 23.4852 47.9908 23.0624C48.0289 22.6396 47.9485 22.2146 47.7587 21.8349C47.5689 21.4553 47.277 21.136 46.916 20.9128C46.5549 20.6896 46.1388 20.5714 45.7143 20.5714H29.7143C27.8857 20.5714 26.7429 22.8571 27.8857 24.2286L34.2857 32V38.8571ZM29.7143 33.6L24.4571 27.2C23.5429 26.0571 23.0857 24.6857 23.0857 23.3143C21.4857 22.8571 19.8857 22.8571 18.2857 22.8571C8.22857 22.8571 0 26.9714 0 32V36.5714H29.7143V33.6Z" fill="#52616B"/>
</svg>
