<svg width="48" height="48" viewBox="0 0 48 48" fill="none" xmlns="http://www.w3.org/2000/svg">
<path fill-rule="evenodd" clip-rule="evenodd" d="M18 10.5C18 9.30653 18.4741 8.16193 19.318 7.31802C20.1619 6.47411 21.3065 6 22.5 6H25.5C26.6935 6 27.8381 6.47411 28.682 7.31802C29.5259 8.16193 30 9.30653 30 10.5V13.5C30 14.6935 29.5259 15.8381 28.682 16.682C27.8381 17.5259 26.6935 18 25.5 18V21H42C42.3978 21 42.7794 21.158 43.0607 21.4393C43.342 21.7206 43.5 22.1022 43.5 22.5V25.5C43.5 25.8978 43.342 26.2794 43.0607 26.5607C42.7794 26.842 42.3978 27 42 27C41.6022 27 41.2206 26.842 40.9393 26.5607C40.658 26.2794 40.5 25.8978 40.5 25.5V24H25.5V25.5C25.5 25.8978 25.342 26.2794 25.0607 26.5607C24.7794 26.842 24.3978 27 24 27C23.6022 27 23.2206 26.842 22.9393 26.5607C22.658 26.2794 22.5 25.8978 22.5 25.5V24H7.5V25.5C7.5 25.8978 7.34196 26.2794 7.06066 26.5607C6.77936 26.842 6.39782 27 6 27C5.60218 27 5.22064 26.842 4.93934 26.5607C4.65804 26.2794 4.5 25.8978 4.5 25.5V22.5C4.5 22.1022 4.65804 21.7206 4.93934 21.4393C5.22064 21.158 5.60218 21 6 21H22.5V18C21.3065 18 20.1619 17.5259 19.318 16.682C18.4741 15.8381 18 14.6935 18 13.5V10.5ZM25.5 15C25.8978 15 26.2794 14.842 26.5607 14.5607C26.842 14.2794 27 13.8978 27 13.5V10.5C27 10.1022 26.842 9.72064 26.5607 9.43934C26.2794 9.15804 25.8978 9 25.5 9H22.5C22.1022 9 21.7206 9.15804 21.4393 9.43934C21.158 9.72064 21 10.1022 21 10.5V13.5C21 13.8978 21.158 14.2794 21.4393 14.5607C21.7206 14.842 22.1022 15 22.5 15H25.5ZM0 34.5C0 33.3065 0.474106 32.1619 1.31802 31.318C2.16193 30.4741 3.30653 30 4.5 30H7.5C8.69347 30 9.83807 30.4741 10.682 31.318C11.5259 32.1619 12 33.3065 12 34.5V37.5C12 38.6935 11.5259 39.8381 10.682 40.682C9.83807 41.5259 8.69347 42 7.5 42H4.5C3.30653 42 2.16193 41.5259 1.31802 40.682C0.474106 39.8381 0 38.6935 0 37.5L0 34.5ZM4.5 33C4.10218 33 3.72064 33.158 3.43934 33.4393C3.15804 33.7206 3 34.1022 3 34.5V37.5C3 37.8978 3.15804 38.2794 3.43934 38.5607C3.72064 38.842 4.10218 39 4.5 39H7.5C7.89782 39 8.27936 38.842 8.56066 38.5607C8.84196 38.2794 9 37.8978 9 37.5V34.5C9 34.1022 8.84196 33.7206 8.56066 33.4393C8.27936 33.158 7.89782 33 7.5 33H4.5ZM18 34.5C18 33.3065 18.4741 32.1619 19.318 31.318C20.1619 30.4741 21.3065 30 22.5 30H25.5C26.6935 30 27.8381 30.4741 28.682 31.318C29.5259 32.1619 30 33.3065 30 34.5V37.5C30 38.6935 29.5259 39.8381 28.682 40.682C27.8381 41.5259 26.6935 42 25.5 42H22.5C21.3065 42 20.1619 41.5259 19.318 40.682C18.4741 39.8381 18 38.6935 18 37.5V34.5ZM22.5 33C22.1022 33 21.7206 33.158 21.4393 33.4393C21.158 33.7206 21 34.1022 21 34.5V37.5C21 37.8978 21.158 38.2794 21.4393 38.5607C21.7206 38.842 22.1022 39 22.5 39H25.5C25.8978 39 26.2794 38.842 26.5607 38.5607C26.842 38.2794 27 37.8978 27 37.5V34.5C27 34.1022 26.842 33.7206 26.5607 33.4393C26.2794 33.158 25.8978 33 25.5 33H22.5ZM36 34.5C36 33.3065 36.4741 32.1619 37.318 31.318C38.1619 30.4741 39.3065 30 40.5 30H43.5C44.6935 30 45.8381 30.4741 46.682 31.318C47.5259 32.1619 48 33.3065 48 34.5V37.5C48 38.6935 47.5259 39.8381 46.682 40.682C45.8381 41.5259 44.6935 42 43.5 42H40.5C39.3065 42 38.1619 41.5259 37.318 40.682C36.4741 39.8381 36 38.6935 36 37.5V34.5ZM40.5 33C40.1022 33 39.7206 33.158 39.4393 33.4393C39.158 33.7206 39 34.1022 39 34.5V37.5C39 37.8978 39.158 38.2794 39.4393 38.5607C39.7206 38.842 40.1022 39 40.5 39H43.5C43.8978 39 44.2794 38.842 44.5607 38.5607C44.842 38.2794 45 37.8978 45 37.5V34.5C45 34.1022 44.842 33.7206 44.5607 33.4393C44.2794 33.158 43.8978 33 43.5 33H40.5Z" fill="#52616B"/>
</svg>
