<svg width="48" height="48" viewBox="0 0 48 48" fill="none" xmlns="http://www.w3.org/2000/svg">
<g clip-path="url(#clip0_395_72)">
<path d="M24 0.585938C26.2031 0.585938 28.3281 0.867188 30.375 1.42969C32.4219 1.99219 34.3281 2.80469 36.0938 3.86719C37.8594 4.92969 39.4766 6.17969 40.9453 7.61719C42.4141 9.05469 43.6719 10.6719 44.7188 12.4688C45.7656 14.2656 46.5703 16.1797 47.1328 18.2109C47.6953 20.2422 47.9844 22.3672 48 24.5859C48 27.1641 47.6094 29.6484 46.8281 32.0391C46.0469 34.4297 44.9297 36.625 43.4766 38.625C42.0234 40.625 40.2969 42.375 38.2969 43.875C36.2969 45.375 34.0625 46.5391 31.5938 47.3672C31.5469 47.3828 31.4766 47.3906 31.3828 47.3906C31.2891 47.3906 31.2188 47.3984 31.1719 47.4141C30.7969 47.4141 30.5 47.3047 30.2812 47.0859C30.0625 46.8672 29.9531 46.5781 29.9531 46.2188V42.9375C29.9531 41.8594 29.9609 40.7578 29.9766 39.6328C29.9766 38.8359 29.8594 38.0312 29.625 37.2188C29.3906 36.4062 28.9688 35.7266 28.3594 35.1797C30.1719 34.9766 31.7578 34.6094 33.1172 34.0781C34.4766 33.5469 35.6172 32.7969 36.5391 31.8281C37.4609 30.8594 38.1484 29.6875 38.6016 28.3125C39.0547 26.9375 39.2891 25.2812 39.3047 23.3438C39.3047 22.125 39.1016 20.9766 38.6953 19.8984C38.2891 18.8203 37.6719 17.8203 36.8438 16.8984C37.0156 16.4609 37.1406 16.0078 37.2188 15.5391C37.2969 15.0703 37.3359 14.6016 37.3359 14.1328C37.3359 13.5234 37.2734 12.9219 37.1484 12.3281C37.0234 11.7344 36.8438 11.1406 36.6094 10.5469C36.5312 10.5156 36.4453 10.5 36.3516 10.5C36.2578 10.5 36.1719 10.5 36.0938 10.5C35.5938 10.5 35.0703 10.5781 34.5234 10.7344C33.9766 10.8906 33.4375 11.0938 32.9062 11.3438C32.375 11.5938 31.8516 11.8672 31.3359 12.1641C30.8203 12.4609 30.375 12.7422 30 13.0078C28.0469 12.4609 26.0469 12.1875 24 12.1875C21.9531 12.1875 19.9531 12.4609 18 13.0078C17.6094 12.7422 17.1641 12.4609 16.6641 12.1641C16.1641 11.8672 15.6484 11.6016 15.1172 11.3672C14.5859 11.1328 14.0391 10.9297 13.4766 10.7578C12.9141 10.5859 12.3906 10.5 11.9062 10.5H11.6484C11.5547 10.5 11.4688 10.5156 11.3906 10.5469C11.1719 11.125 11 11.7109 10.875 12.3047C10.75 12.8984 10.6797 13.5078 10.6641 14.1328C10.6641 14.6016 10.7031 15.0703 10.7812 15.5391C10.8594 16.0078 10.9844 16.4609 11.1562 16.8984C10.3281 17.8047 9.71094 18.7969 9.30469 19.875C8.89844 20.9531 8.69531 22.1094 8.69531 23.3438C8.69531 25.25 8.92188 26.8984 9.375 28.2891C9.82812 29.6797 10.5156 30.8516 11.4375 31.8047C12.3594 32.7578 13.5 33.5156 14.8594 34.0781C16.2188 34.6406 17.8047 35.0156 19.6172 35.2031C19.1641 35.6094 18.8203 36.0938 18.5859 36.6562C18.3516 37.2188 18.1875 37.8047 18.0938 38.4141C17.6719 38.6172 17.2266 38.7734 16.7578 38.8828C16.2891 38.9922 15.8203 39.0469 15.3516 39.0469C14.3516 39.0469 13.5234 38.8125 12.8672 38.3438C12.2109 37.875 11.625 37.2344 11.1094 36.4219C10.9219 36.125 10.6953 35.8281 10.4297 35.5312C10.1641 35.2344 9.875 34.9688 9.5625 34.7344C9.25 34.5 8.91406 34.3125 8.55469 34.1719C8.19531 34.0312 7.82031 33.9531 7.42969 33.9375H7.14844C7.02344 33.9375 6.90625 33.9609 6.79688 34.0078C6.6875 34.0547 6.57812 34.1016 6.46875 34.1484C6.35938 34.1953 6.3125 34.2734 6.32812 34.3828C6.32812 34.5703 6.4375 34.75 6.65625 34.9219C6.875 35.0938 7.05469 35.2344 7.19531 35.3438L7.26562 35.3906C7.60938 35.6562 7.90625 35.9062 8.15625 36.1406C8.40625 36.375 8.64062 36.6328 8.85938 36.9141C9.07812 37.1953 9.25781 37.4922 9.39844 37.8047C9.53906 38.1172 9.71875 38.4844 9.9375 38.9062C10.4688 40.125 11.2109 41.0078 12.1641 41.5547C13.1172 42.1016 14.2656 42.3828 15.6094 42.3984C16.0156 42.3984 16.4219 42.375 16.8281 42.3281C17.2344 42.2812 17.6406 42.2109 18.0469 42.1172V46.1953C18.0469 46.5703 17.9375 46.8672 17.7188 47.0859C17.5 47.3047 17.1953 47.4141 16.8047 47.4141H16.6172C16.5391 47.4141 16.4688 47.3984 16.4062 47.3672C13.9531 46.5703 11.7188 45.4219 9.70312 43.9219C7.6875 42.4219 5.96094 40.6641 4.52344 38.6484C3.08594 36.6328 1.97656 34.4297 1.19531 32.0391C0.414063 29.6484 0.015625 27.1641 0 24.5859C0 22.3828 0.28125 20.2578 0.84375 18.2109C1.40625 16.1641 2.21875 14.2578 3.28125 12.4922C4.34375 10.7266 5.59375 9.10938 7.03125 7.64062C8.46875 6.17188 10.0859 4.91406 11.8828 3.86719C13.6797 2.82031 15.5938 2.01562 17.625 1.45312C19.6562 0.890625 21.7812 0.601562 24 0.585938Z" fill="black"/>
</g>
<defs>
<clipPath id="clip0_395_72">
<rect width="48" height="48" fill="white"/>
</clipPath>
</defs>
</svg>
