<svg width="48" height="48" viewBox="0 0 48 48" fill="none" xmlns="http://www.w3.org/2000/svg">
<path d="M43.2 7.2H21.312L19.2 0H4.8C3.52696 0 2.30606 0.505713 1.40589 1.40589C0.505713 2.30606 0 3.52696 0 4.8V36C0 37.273 0.505713 38.4939 1.40589 39.3941C2.30606 40.2943 3.52696 40.8 4.8 40.8H21.6L24 48H43.2C44.473 48 45.6939 47.4943 46.5941 46.5941C47.4943 45.6939 48 44.473 48 43.2V12C48 10.727 47.4943 9.50606 46.5941 8.60589C45.6939 7.70571 44.473 7.2 43.2 7.2ZM12.408 30.216C9.80464 30.216 7.3079 29.1818 5.46704 27.341C3.62618 25.5001 2.592 23.0034 2.592 20.4C2.592 17.7966 3.62618 15.2999 5.46704 13.459C7.3079 11.6182 9.80464 10.584 12.408 10.584C14.904 10.584 17.184 11.472 18.984 13.2L19.2 13.296L16.2 16.128L16.056 16.008C15.36 15.36 14.184 14.592 12.408 14.592C9.264 14.592 6.696 17.208 6.696 20.4C6.696 23.592 9.264 26.208 12.408 26.208C15.696 26.208 17.112 24.12 17.496 22.704H12.192V18.984H21.672L21.696 19.2C21.792 19.656 21.816 20.112 21.816 20.616C21.816 26.256 18 30.216 12.408 30.216ZM26.88 26.112C27.672 27.6 28.656 28.944 29.736 30.192L28.44 31.464L26.88 26.112ZM28.728 24.288H26.4L25.608 21.792H35.184C35.184 21.792 34.368 24.936 31.44 28.368C30.192 26.88 29.304 25.416 28.728 24.288ZM45.6 43.2C45.6 43.8365 45.3471 44.447 44.8971 44.8971C44.447 45.3471 43.8365 45.6 43.2 45.6H26.4L31.2 40.8L29.256 34.152L31.464 31.944L37.896 38.4L39.6 36.648L33.144 30.216C35.304 27.744 36.984 24.816 37.752 21.792H40.8V19.296H32.064V16.8H29.568V19.296H24.864L22.032 9.6H43.2C43.8365 9.6 44.447 9.85286 44.8971 10.3029C45.3471 10.753 45.6 11.3635 45.6 12V43.2Z" fill="#52616B"/>
</svg>
