<svg width="48" height="48" viewBox="0 0 48 48" fill="none" xmlns="http://www.w3.org/2000/svg">
<path d="M22.636 25.09H15.82V21.272H22.64V25.092L22.636 25.09ZM29.456 0V12H41.456L29.456 0ZM32.182 21.272H25.362V25.092H32.182V21.272ZM32.182 27.818H25.362V31.638H32.182V27.818ZM41.454 13V44.728C41.454 46.536 39.99 48 38.182 48H9.81799C9.3883 48 8.96283 47.9154 8.56585 47.7509C8.16887 47.5865 7.80817 47.3455 7.50434 47.0417C6.89072 46.428 6.54599 45.5958 6.54599 44.728V3.272C6.54599 1.464 8.00999 0 9.81799 0H28.454V13H41.454ZM34.908 18.546H13.09V34.364H34.91V18.544L34.908 18.546ZM22.636 27.818H15.82V31.638H22.64V27.818H22.636Z" fill="#0FA958"/>
</svg>
