<svg width="35" height="48" viewBox="0 0 35 48" fill="none" xmlns="http://www.w3.org/2000/svg">
<path d="M16.09 25.09H9.274V21.272H16.094V25.092L16.09 25.09ZM22.91 0V12H34.91L22.91 0ZM25.636 21.272H18.816V25.092H25.636V21.272ZM25.636 27.818H18.816V31.638H25.636V27.818ZM34.908 13V44.728C34.908 46.536 33.444 48 31.636 48H3.272C2.84231 48 2.41684 47.9154 2.01986 47.7509C1.62288 47.5865 1.26218 47.3455 0.958347 47.0417C0.344728 46.428 0 45.5958 0 44.728V3.272C0 1.464 1.464 0 3.272 0H21.908V13H34.908ZM28.362 18.546H6.544V34.364H28.364V18.544L28.362 18.546ZM16.09 27.818H9.274V31.638H16.094V27.818H16.09Z" fill="#0FA958"/>
</svg>
