<svg width="46" height="38" viewBox="0 0 46 38" fill="none" xmlns="http://www.w3.org/2000/svg">
<path d="M27.6 5.42857V24.4286H4.6V5.42857H27.6ZM4.6 0C2.06281 0 0 2.43438 0 5.42857V24.4286C0 27.4228 2.06281 29.8571 4.6 29.8571H13.0309L12.2619 32.5714H6.9C5.62781 32.5714 4.6 33.7844 4.6 35.2857C4.6 36.7871 5.62781 38 6.9 38H25.3C26.5722 38 27.6 36.7871 27.6 35.2857C27.6 33.7844 26.5722 32.5714 25.3 32.5714H19.9309L19.1619 29.8571H27.6C30.1372 29.8571 32.2 27.4228 32.2 24.4286V5.42857C32.2 2.43438 30.1372 0 27.6 0H4.6ZM37.95 0C36.0453 0 34.5 1.82366 34.5 4.07143V33.9286C34.5 36.1763 36.0453 38 37.95 38H42.55C44.4547 38 46 36.1763 46 33.9286V4.07143C46 1.82366 44.4547 0 42.55 0H37.95ZM39.1 5.42857H41.4C42.0325 5.42857 42.55 6.03929 42.55 6.78571C42.55 7.53214 42.0325 8.14286 41.4 8.14286H39.1C38.4675 8.14286 37.95 7.53214 37.95 6.78571C37.95 6.03929 38.4675 5.42857 39.1 5.42857ZM37.95 12.2143C37.95 11.4679 38.4675 10.8571 39.1 10.8571H41.4C42.0325 10.8571 42.55 11.4679 42.55 12.2143C42.55 12.9607 42.0325 13.5714 41.4 13.5714H39.1C38.4675 13.5714 37.95 12.9607 37.95 12.2143ZM40.25 25.7857C40.86 25.7857 41.445 26.0717 41.8763 26.5807C42.3077 27.0897 42.55 27.7801 42.55 28.5C42.55 29.2199 42.3077 29.9103 41.8763 30.4193C41.445 30.9283 40.86 31.2143 40.25 31.2143C39.64 31.2143 39.055 30.9283 38.6237 30.4193C38.1923 29.9103 37.95 29.2199 37.95 28.5C37.95 27.7801 38.1923 27.0897 38.6237 26.5807C39.055 26.0717 39.64 25.7857 40.25 25.7857Z" fill="#52616B"/>
</svg>
