<svg width="48" height="42" viewBox="0 0 48 42" fill="none" xmlns="http://www.w3.org/2000/svg">
<path d="M24 0C10.7362 0 2.49172e-10 10.734 2.49172e-10 24V28.5C-7.17918e-06 29.0571 0.155132 29.6033 0.448033 30.0772C0.740934 30.5511 1.16002 30.9342 1.65834 31.1833L3.00675 31.8575C3.19528 37.4909 7.82072 42 13.5 42H15.75C16.9927 42 18 40.9927 18 39.75V23.25C18 22.0073 16.9927 21 15.75 21H13.5C10.5617 21 7.90584 22.2074 6 24.1525V24C6 14.0748 14.0748 6 24 6C33.9252 6 42 14.0748 42 24V24.1525C40.0942 22.2074 37.4383 21 34.5 21H32.25C31.0073 21 30 22.0073 30 23.25V39.75C30 40.9927 31.0073 42 32.25 42H34.5C40.1793 42 44.8047 37.4908 44.9933 31.8575L46.3416 31.1833C46.8399 30.9342 47.259 30.5512 47.5519 30.0772C47.8448 29.6033 48 29.0571 48 28.5V24C48 10.7363 37.266 0 24 0Z" fill="#52616B"/>
</svg>
