<svg width="48" height="48" viewBox="0 0 48 48" fill="none" xmlns="http://www.w3.org/2000/svg">
<path d="M21.3333 40H26.6667V34.6667H21.3333V40ZM24 8C21.171 8 18.4579 9.12381 16.4575 11.1242C14.4571 13.1246 13.3333 15.8377 13.3333 18.6667H18.6667C18.6667 17.2522 19.2286 15.8956 20.2288 14.8954C21.229 13.8952 22.5855 13.3333 24 13.3333C25.4145 13.3333 26.771 13.8952 27.7712 14.8954C28.7714 15.8956 29.3333 17.2522 29.3333 18.6667C29.3333 24 21.3333 23.3333 21.3333 32H26.6667C26.6667 26 34.6667 25.3333 34.6667 18.6667C34.6667 15.8377 33.5429 13.1246 31.5425 11.1242C29.5421 9.12381 26.829 8 24 8ZM5.33333 0H42.6667C44.0812 0 45.4377 0.561903 46.4379 1.5621C47.4381 2.56229 48 3.91885 48 5.33333V42.6667C48 44.0812 47.4381 45.4377 46.4379 46.4379C45.4377 47.4381 44.0812 48 42.6667 48H5.33333C3.91885 48 2.56229 47.4381 1.5621 46.4379C0.561903 45.4377 0 44.0812 0 42.6667V5.33333C0 3.91885 0.561903 2.56229 1.5621 1.5621C2.56229 0.561903 3.91885 0 5.33333 0Z" fill="#52616B"/>
</svg>
