<svg width="48" height="27" viewBox="0 0 48 27" fill="none" xmlns="http://www.w3.org/2000/svg">
<path d="M34.9078 17.4563H25.4356C24.4062 20.368 22.3805 22.8221 19.7166 24.3848C17.0527 25.9475 13.9222 26.5181 10.8783 25.9959C7.83436 25.4736 5.07307 23.8921 3.08243 21.5308C1.0918 19.1696 0 16.1806 0 13.0922C0 10.0038 1.0918 7.01486 3.08243 4.6536C5.07307 2.29234 7.83436 0.710826 10.8783 0.188573C13.9222 -0.33368 17.0527 0.236958 19.7166 1.79963C22.3805 3.3623 24.4062 5.81639 25.4356 8.72815H48V17.4563H43.6359V26.1844H34.9078V17.4563ZM13.0875 17.4563C14.2449 17.4563 15.3549 16.9965 16.1734 16.1781C16.9918 15.3596 17.4516 14.2496 17.4516 13.0922C17.4516 11.9348 16.9918 10.8248 16.1734 10.0064C15.3549 9.18793 14.2449 8.72815 13.0875 8.72815C11.9301 8.72815 10.8201 9.18793 10.0016 10.0064C9.18323 10.8248 8.72344 11.9348 8.72344 13.0922C8.72344 14.2496 9.18323 15.3596 10.0016 16.1781C10.8201 16.9965 11.9301 17.4563 13.0875 17.4563Z" fill="#52616B"/>
</svg>
