<svg width="48" height="42" viewBox="0 0 48 42" fill="none" xmlns="http://www.w3.org/2000/svg">
<path d="M41.3028 36.7314L38.08 33.5086C39.7821 31.8125 41.1312 29.7959 42.0492 27.5754C42.9673 25.3548 43.4361 22.9743 43.4286 20.5714C43.4286 15.4971 41.3943 10.9257 38.08 7.63428L41.3028 4.41143C43.4286 6.53109 45.1146 9.04991 46.2639 11.8232C47.4132 14.5964 48.0032 17.5694 48 20.5714C48 26.88 45.44 32.5943 41.3028 36.7314ZM34.8343 30.2628L31.6114 27.04C32.4612 26.191 33.1349 25.1826 33.5938 24.0725C34.0528 22.9624 34.2879 21.7726 34.2857 20.5714C34.2857 18.0343 33.2571 15.7486 31.6114 14.1029L34.8343 10.88C36.1102 12.1508 37.1224 13.6611 37.8127 15.3243C38.5031 16.9875 38.858 18.7707 38.8571 20.5714C38.8571 24.3428 37.3257 27.7714 34.8343 30.2628ZM4.57143 0H22.8571C24.0696 0 25.2323 0.481631 26.0896 1.33894C26.9469 2.19625 27.4286 3.35901 27.4286 4.57143V36.5714C27.4286 37.7838 26.9469 38.9466 26.0896 39.8039C25.2323 40.6612 24.0696 41.1428 22.8571 41.1428H4.57143C3.35901 41.1428 2.19625 40.6612 1.33894 39.8039C0.481631 38.9466 0 37.7838 0 36.5714V4.57143C0 3.35901 0.481631 2.19625 1.33894 1.33894C2.19625 0.481631 3.35901 0 4.57143 0ZM13.7143 4.57143C12.5019 4.57143 11.3391 5.05306 10.4818 5.91037C9.62449 6.76768 9.14285 7.93044 9.14285 9.14285C9.14285 10.3553 9.62449 11.518 10.4818 12.3753C11.3391 13.2326 12.5019 13.7143 13.7143 13.7143C14.9267 13.7143 16.0895 13.2326 16.9468 12.3753C17.8041 11.518 18.2857 10.3553 18.2857 9.14285C18.2857 7.93044 17.8041 6.76768 16.9468 5.91037C16.0895 5.05306 14.9267 4.57143 13.7143 4.57143ZM13.7143 18.2857C11.2894 18.2857 8.96392 19.249 7.24931 20.9636C5.53469 22.6782 4.57143 25.0037 4.57143 27.4286C4.57143 29.8534 5.53469 32.1789 7.24931 33.8935C8.96392 35.6082 11.2894 36.5714 13.7143 36.5714C16.1391 36.5714 18.4646 35.6082 20.1793 33.8935C21.8939 32.1789 22.8571 29.8534 22.8571 27.4286C22.8571 25.0037 21.8939 22.6782 20.1793 20.9636C18.4646 19.249 16.1391 18.2857 13.7143 18.2857ZM13.7143 22.8571C14.9267 22.8571 16.0895 23.3388 16.9468 24.1961C17.8041 25.0534 18.2857 26.2161 18.2857 27.4286C18.2857 28.641 17.8041 29.8037 16.9468 30.6611C16.0895 31.5184 14.9267 32 13.7143 32C12.5019 32 11.3391 31.5184 10.4818 30.6611C9.62449 29.8037 9.14285 28.641 9.14285 27.4286C9.14285 26.2161 9.62449 25.0534 10.4818 24.1961C11.3391 23.3388 12.5019 22.8571 13.7143 22.8571Z" fill="#52616B"/>
</svg>
