<svg width="48" height="48" viewBox="0 0 48 48" fill="none" xmlns="http://www.w3.org/2000/svg">
<path d="M32 3.42857C32 1.53214 33.1917 0 34.6667 0H45.3333C46.8083 0 48 1.53214 48 3.42857C48 5.325 46.8083 6.85714 45.3333 6.85714H37.3333V17.1429C37.3333 19.0393 36.1417 20.5714 34.6667 20.5714H26.6667V30.8571C26.6667 32.7536 25.475 34.2857 24 34.2857H16V44.5714C16 46.4679 14.8083 48 13.3333 48H2.66667C1.19167 48 0 46.4679 0 44.5714C0 42.675 1.19167 41.1429 2.66667 41.1429H10.6667V30.8571C10.6667 28.9607 11.8583 27.4286 13.3333 27.4286H21.3333V17.1429C21.3333 15.2464 22.525 13.7143 24 13.7143H32V3.42857Z" fill="#52616B"/>
</svg>
