<svg width="48" height="48" viewBox="0 0 48 48" fill="none" xmlns="http://www.w3.org/2000/svg">
<path fill-rule="evenodd" clip-rule="evenodd" d="M1.5 17.998C1.89782 17.998 2.27936 18.1561 2.56066 18.4374C2.84196 18.7187 3 19.1002 3 19.498V44.998H45V19.498C45 19.1002 45.158 18.7187 45.4393 18.4374C45.7206 18.1561 46.1022 17.998 46.5 17.998C46.8978 17.998 47.2794 18.1561 47.5607 18.4374C47.842 18.7187 48 19.1002 48 19.498V46.498C48 46.8959 47.842 47.2774 47.5607 47.5587C47.2794 47.84 46.8978 47.998 46.5 47.998H1.5C1.10218 47.998 0.720645 47.84 0.43934 47.5587C0.158036 47.2774 0 46.8959 0 46.498V19.498C0 19.1002 0.158036 18.7187 0.43934 18.4374C0.720645 18.1561 1.10218 17.998 1.5 17.998Z" fill="#52616B"/>
<path fill-rule="evenodd" clip-rule="evenodd" d="M3 10.5C3 10.1022 3.15804 9.72064 3.43934 9.43934C3.72064 9.15804 4.10218 9 4.5 9H43.5C43.8978 9 44.2794 9.15804 44.5607 9.43934C44.842 9.72064 45 10.1022 45 10.5V24.51C44.9999 24.757 44.9387 25.0002 44.822 25.2179C44.7053 25.4356 44.5367 25.6211 44.331 25.758L24.831 38.748C24.5848 38.9118 24.2957 38.9992 24 38.9992C23.7043 38.9992 23.4152 38.9118 23.169 38.748L3.669 25.758C3.46335 25.6211 3.29468 25.4356 3.17797 25.2179C3.06126 25.0002 3.00013 24.757 3 24.51V10.5ZM6 12V23.706L24 35.697L42 23.706V12H6Z" fill="#52616B"/>
<path fill-rule="evenodd" clip-rule="evenodd" d="M23.169 0.251225C23.4152 0.087403 23.7043 0 24 0C24.2957 0 24.5848 0.087403 24.831 0.251225L38.331 9.25122L36.669 11.7472L24 3.30222L11.331 11.7472L9.669 9.25122L23.169 0.251225ZM44.562 15.4372L47.562 18.4372L45.438 20.5612L42.438 17.5612L44.562 15.4372ZM5.562 17.5612L2.562 20.5612L0.438004 18.4372L3.438 15.4372L5.562 17.5612ZM14.25 17.9992C14.25 17.8003 14.329 17.6095 14.4697 17.4689C14.6103 17.3282 14.8011 17.2492 15 17.2492H33C33.1989 17.2492 33.3897 17.3282 33.5303 17.4689C33.671 17.6095 33.75 17.8003 33.75 17.9992C33.75 18.1981 33.671 18.3889 33.5303 18.5296C33.3897 18.6702 33.1989 18.7492 33 18.7492H15C14.8011 18.7492 14.6103 18.6702 14.4697 18.5296C14.329 18.3889 14.25 18.1981 14.25 17.9992ZM15.75 23.9992C15.75 23.8003 15.829 23.6095 15.9697 23.4689C16.1103 23.3282 16.3011 23.2492 16.5 23.2492H31.5C31.6989 23.2492 31.8897 23.3282 32.0303 23.4689C32.171 23.6095 32.25 23.8003 32.25 23.9992C32.25 24.1981 32.171 24.3889 32.0303 24.5296C31.8897 24.6702 31.6989 24.7492 31.5 24.7492H16.5C16.3011 24.7492 16.1103 24.6702 15.9697 24.5296C15.829 24.3889 15.75 24.1981 15.75 23.9992Z" fill="#52616B"/>
</svg>
