<svg width="48" height="43" viewBox="0 0 48 43" fill="none" xmlns="http://www.w3.org/2000/svg">
<g clip-path="url(#clip0_80_1287)">
<path d="M23.1375 11.3631C23.67 10.834 23.88 10.0025 23.6025 9.26348C23.43 8.81836 23.2425 8.38164 23.0325 7.96172L22.8 7.5082C22.575 7.08828 22.3275 6.67676 22.065 6.28203C21.6375 5.64375 20.8875 5.43379 20.2125 5.68574L18.0975 6.4668C17.295 5.72773 16.3725 5.12305 15.3825 4.71152L14.925 2.27598C14.7825 1.49492 14.2425 0.873438 13.5375 0.781055C13.0425 0.705469 12.54 0.671875 12.03 0.671875H11.9775C11.4675 0.671875 10.965 0.705469 10.47 0.772656C9.76501 0.865039 9.22501 1.49492 9.08251 2.26758L8.62501 4.71152C7.62751 5.13145 6.71251 5.72773 5.91001 6.4668L3.78751 5.69414C3.11251 5.44219 2.36251 5.65215 1.93501 6.29043C1.67251 6.68516 1.42501 7.09668 1.19251 7.5166L0.967513 7.96172C0.757513 8.38164 0.570013 8.81836 0.397513 9.27188C0.120013 10.0025 0.330013 10.834 0.862513 11.3715L2.52751 13.0344C2.44501 13.5971 2.40001 14.185 2.40001 14.7812C2.40001 15.3775 2.44501 15.9654 2.52751 16.5365L0.862513 18.1994C0.330013 18.7285 0.120013 19.56 0.397513 20.299C0.570013 20.7441 0.757513 21.1809 0.967513 21.6092L1.19251 22.0459C1.41751 22.4742 1.66501 22.8773 1.93501 23.2721C2.36251 23.9104 3.11251 24.1203 3.78751 23.8684L5.90251 23.0873C6.70501 23.8264 7.62751 24.4311 8.61751 24.8426L9.07501 27.2865C9.21751 28.0676 9.75751 28.6891 10.4625 28.7814C10.965 28.8486 11.475 28.8822 11.9925 28.8822C12.51 28.8822 13.02 28.8486 13.5225 28.7814C14.2275 28.6891 14.7675 28.0592 14.91 27.2865L15.3675 24.8426C16.365 24.4227 17.28 23.8264 18.0825 23.0873L20.1975 23.8684C20.8725 24.1203 21.6225 23.9104 22.05 23.2721C22.3125 22.8773 22.56 22.4742 22.785 22.0459L23.0175 21.5924C23.2275 21.1725 23.415 20.7357 23.5875 20.2906C23.865 19.56 23.655 18.7285 23.1225 18.191L21.4575 16.5281C21.54 15.957 21.585 15.3691 21.585 14.7729C21.585 14.1766 21.54 13.5887 21.4575 13.0176L23.1225 11.3547L23.1375 11.3631ZM8.40001 14.7812C8.40001 13.7121 8.7793 12.6867 9.45443 11.9307C10.1296 11.1747 11.0452 10.75 12 10.75C12.9548 10.75 13.8705 11.1747 14.5456 11.9307C15.2207 12.6867 15.6 13.7121 15.6 14.7812C15.6 15.8504 15.2207 16.8758 14.5456 17.6318C13.8705 18.3878 12.9548 18.8125 12 18.8125C11.0452 18.8125 10.1296 18.3878 9.45443 17.6318C8.7793 16.8758 8.40001 15.8504 8.40001 14.7812ZM37.8525 42.0342C38.325 42.6305 39.0675 42.8656 39.7275 42.5549C40.125 42.3617 40.515 42.1518 40.89 41.9166L41.295 41.6562C41.67 41.4043 42.0375 41.1271 42.39 40.8332C42.96 40.3545 43.1475 39.5146 42.9225 38.7588L42.225 36.3904C42.885 35.4918 43.425 34.4588 43.7925 33.3502L45.975 32.8379C46.6725 32.6783 47.2275 32.0736 47.31 31.2842C47.37 30.7215 47.4 30.1504 47.4 29.5709C47.4 28.9914 47.37 28.4203 47.31 27.8576C47.2275 27.0682 46.665 26.4635 45.975 26.3039L43.7925 25.7832C43.4175 24.6662 42.885 23.6416 42.225 22.743L42.9225 20.3746C43.1475 19.6187 42.96 18.7789 42.39 18.3002C42.0375 18.0063 41.67 17.7291 41.295 17.4688L40.8975 17.2168C40.5225 16.9816 40.1325 16.7717 39.7275 16.5785C39.075 16.2678 38.3325 16.5029 37.8525 17.0992L36.3675 18.9637C35.8575 18.8713 35.3325 18.8209 34.8 18.8209C34.2675 18.8209 33.7425 18.8713 33.2325 18.9637L31.7475 17.0992C31.275 16.5029 30.5325 16.2678 29.8725 16.5785C29.475 16.7717 29.085 16.9816 28.7025 17.2168L28.3125 17.4688C27.93 17.7207 27.57 17.9979 27.2175 18.3002C26.6475 18.7789 26.46 19.6187 26.685 20.3746L27.3825 22.743C26.7225 23.6416 26.1825 24.6746 25.815 25.7832L23.6325 26.2871C22.935 26.4467 22.38 27.0514 22.2975 27.8408C22.2375 28.4035 22.2075 28.9746 22.2075 29.5541C22.2075 30.1336 22.2375 30.7047 22.2975 31.2674C22.38 32.0568 22.9425 32.6615 23.6325 32.8211L25.815 33.3334C26.19 34.4504 26.7225 35.475 27.3825 36.3736L26.685 38.742C26.46 39.4979 26.6475 40.3377 27.2175 40.8164C27.57 41.1104 27.93 41.3875 28.3125 41.6395L28.7175 41.8998C29.0925 42.135 29.4825 42.3449 29.88 42.5381C30.5325 42.8488 31.275 42.6137 31.755 42.0174L33.24 40.1529C33.75 40.2453 34.275 40.2957 34.8075 40.2957C35.34 40.2957 35.865 40.2453 36.375 40.1529L37.86 42.0174L37.8525 42.0342ZM34.8 25.5312C35.2728 25.5312 35.7409 25.6355 36.1777 25.8381C36.6144 26.0407 37.0113 26.3376 37.3456 26.712C37.6799 27.0863 37.9451 27.5307 38.126 28.0198C38.3069 28.5089 38.4 29.0331 38.4 29.5625C38.4 30.0919 38.3069 30.6161 38.126 31.1052C37.9451 31.5943 37.6799 32.0387 37.3456 32.413C37.0113 32.7874 36.6144 33.0843 36.1777 33.2869C35.7409 33.4895 35.2728 33.5938 34.8 33.5938C34.3273 33.5938 33.8591 33.4895 33.4224 33.2869C32.9856 33.0843 32.5887 32.7874 32.2544 32.413C31.9201 32.0387 31.655 31.5943 31.474 31.1052C31.2931 30.6161 31.2 30.0919 31.2 29.5625C31.2 29.0331 31.2931 28.5089 31.474 28.0198C31.655 27.5307 31.9201 27.0863 32.2544 26.712C32.5887 26.3376 32.9856 26.0407 33.4224 25.8381C33.8591 25.6355 34.3273 25.5312 34.8 25.5312Z" fill="#52616B"/>
</g>
<defs>
<clipPath id="clip0_80_1287">
<rect width="48" height="43" fill="white"/>
</clipPath>
</defs>
</svg>
