<svg width="48" height="48" viewBox="0 0 48 48" fill="none" xmlns="http://www.w3.org/2000/svg">
<g clip-path="url(#clip0_394_21)">
<path d="M48 42.0007H42.6797C43.4297 42.8289 44 43.7507 44.3906 44.7664C44.7812 45.782 44.9844 46.8601 45 48.0007H42C42 47.1726 41.8438 46.3992 41.5312 45.6804C41.2188 44.9617 40.7891 44.321 40.2422 43.7585C39.6953 43.196 39.0625 42.7664 38.3438 42.4695C37.625 42.1726 36.8438 42.0164 36 42.0007C35.1719 42.0007 34.3984 42.157 33.6797 42.4695C32.9609 42.782 32.3203 43.2117 31.7578 43.7585C31.1953 44.3054 30.7656 44.9382 30.4688 45.657C30.1719 46.3757 30.0156 47.157 30 48.0007H27C27 47.1726 26.8438 46.3992 26.5312 45.6804C26.2188 44.9617 25.7891 44.321 25.2422 43.7585C24.6953 43.196 24.0625 42.7664 23.3438 42.4695C22.625 42.1726 21.8438 42.0164 21 42.0007C20.1719 42.0007 19.3984 42.157 18.6797 42.4695C17.9609 42.782 17.3203 43.2117 16.7578 43.7585C16.1953 44.3054 15.7656 44.9382 15.4688 45.657C15.1719 46.3757 15.0156 47.157 15 48.0007H12C12 47.1882 12.1094 46.3914 12.3281 45.6101C12.5469 44.8289 12.8516 44.1023 13.2422 43.4304C13.6328 42.7585 14.125 42.1335 14.7188 41.5554C15.3125 40.9773 15.9609 40.5007 16.6641 40.1257C16.1328 39.5789 15.7266 38.946 15.4453 38.2273C15.1641 37.5085 15.0156 36.7664 15 36.0007C15 34.9226 15.2656 33.9304 15.7969 33.0242C16.3281 32.1179 17.0625 31.3914 18 30.8445V24.0007C18 23.532 18.1016 23.0867 18.3047 22.6648C18.5078 22.2429 18.8047 21.8914 19.1953 21.6101C18.3359 20.4695 17.2812 19.5867 16.0312 18.9617C14.7812 18.3367 13.4375 18.0164 12 18.0007C10.75 18.0007 9.58594 18.2351 8.50781 18.7039C7.42969 19.1726 6.47656 19.8132 5.64844 20.6257C4.82031 21.4382 4.17188 22.3992 3.70312 23.5085C3.23438 24.6179 3 25.782 3 27.0007H0C0 25.8601 0.15625 24.7585 0.46875 23.696C0.78125 22.6335 1.22656 21.6257 1.80469 20.6726C2.38281 19.7195 3.09375 18.8757 3.9375 18.1414C4.78125 17.407 5.70312 16.7742 6.70312 16.2429C5.53125 15.3992 4.625 14.3445 3.98438 13.0789C3.34375 11.8132 3.01562 10.4539 3 9.00073C3 7.76636 3.23438 6.60229 3.70312 5.50854C4.17188 4.41479 4.8125 3.46167 5.625 2.64917C6.4375 1.83667 7.39062 1.18823 8.48438 0.703857C9.57812 0.219482 10.75 -0.0148926 12 0.000732422C13.2344 0.000732422 14.3984 0.235107 15.4922 0.703857C16.5859 1.17261 17.5391 1.81323 18.3516 2.62573C19.1641 3.43823 19.8125 4.39917 20.2969 5.50854C20.7812 6.61792 21.0156 7.78198 21 9.00073C21 10.4539 20.6797 11.8132 20.0391 13.0789C19.3984 14.3445 18.4844 15.407 17.2969 16.2664C18.3594 16.7976 19.3203 17.4617 20.1797 18.2585C21.0391 19.0554 21.7734 19.9695 22.3828 21.0007H30.75C31.2344 21.0007 31.6562 20.9304 32.0156 20.7898C32.375 20.6492 32.7109 20.4617 33.0234 20.2273C33.3359 19.9929 33.6562 19.7507 33.9844 19.5007C34.3125 19.2507 34.6719 19.0085 35.0625 18.7742C35.4531 18.5398 35.9062 18.3601 36.4219 18.2351C36.9375 18.1101 37.5469 18.032 38.25 18.0007H45C45.4219 18.0007 45.8125 18.0789 46.1719 18.2351C46.5312 18.3914 46.8438 18.6023 47.1094 18.8679C47.375 19.1335 47.5938 19.4539 47.7656 19.8289C47.9375 20.2039 48.0156 20.5945 48 21.0007V42.0007ZM12 15.0007C12.8281 15.0007 13.6016 14.8445 14.3203 14.532C15.0391 14.2195 15.6797 13.7898 16.2422 13.2429C16.8047 12.696 17.2344 12.0632 17.5312 11.3445C17.8281 10.6257 17.9844 9.84448 18 9.00073C18 8.17261 17.8438 7.39917 17.5312 6.68042C17.2188 5.96167 16.7891 5.32104 16.2422 4.75854C15.6953 4.19604 15.0625 3.76636 14.3438 3.46948C13.625 3.17261 12.8438 3.01636 12 3.00073C11.1719 3.00073 10.3984 3.15698 9.67969 3.46948C8.96094 3.78198 8.32031 4.21167 7.75781 4.75854C7.19531 5.30542 6.76562 5.93823 6.46875 6.65698C6.17188 7.37573 6.01562 8.15698 6 9.00073C6 9.82886 6.15625 10.6023 6.46875 11.321C6.78125 12.0398 7.21094 12.6804 7.75781 13.2429C8.30469 13.8054 8.9375 14.2351 9.65625 14.532C10.375 14.8289 11.1562 14.9851 12 15.0007ZM21 39.0007C21.4219 39.0007 21.8125 38.9226 22.1719 38.7664C22.5312 38.6101 22.8438 38.3992 23.1094 38.1335C23.375 37.8679 23.5938 37.5476 23.7656 37.1726C23.9375 36.7976 24.0156 36.407 24 36.0007C24 35.5789 23.9219 35.1882 23.7656 34.8289C23.6094 34.4695 23.3984 34.157 23.1328 33.8914C22.8672 33.6257 22.5469 33.407 22.1719 33.2351C21.7969 33.0632 21.4062 32.9851 21 33.0007C20.5781 33.0007 20.1875 33.0789 19.8281 33.2351C19.4688 33.3914 19.1562 33.6023 18.8906 33.8679C18.625 34.1335 18.4062 34.4539 18.2344 34.8289C18.0625 35.2039 17.9844 35.5945 18 36.0007C18 36.4226 18.0781 36.8132 18.2344 37.1726C18.3906 37.532 18.6016 37.8445 18.8672 38.1101C19.1328 38.3757 19.4531 38.5945 19.8281 38.7664C20.2031 38.9382 20.5938 39.0164 21 39.0007ZM36 39.0007C36.4219 39.0007 36.8125 38.9226 37.1719 38.7664C37.5312 38.6101 37.8438 38.3992 38.1094 38.1335C38.375 37.8679 38.5938 37.5476 38.7656 37.1726C38.9375 36.7976 39.0156 36.407 39 36.0007C39 35.5789 38.9219 35.1882 38.7656 34.8289C38.6094 34.4695 38.3984 34.157 38.1328 33.8914C37.8672 33.6257 37.5469 33.407 37.1719 33.2351C36.7969 33.0632 36.4062 32.9851 36 33.0007C35.5781 33.0007 35.1875 33.0789 34.8281 33.2351C34.4688 33.3914 34.1562 33.6023 33.8906 33.8679C33.625 34.1335 33.4062 34.4539 33.2344 34.8289C33.0625 35.2039 32.9844 35.5945 33 36.0007C33 36.4226 33.0781 36.8132 33.2344 37.1726C33.3906 37.532 33.6016 37.8445 33.8672 38.1101C34.1328 38.3757 34.4531 38.5945 34.8281 38.7664C35.2031 38.9382 35.5938 39.0164 36 39.0007ZM45 27.0007H38.25C37.5469 27.0007 36.9375 26.9304 36.4219 26.7898C35.9062 26.6492 35.4531 26.4617 35.0625 26.2273C34.6719 25.9929 34.3203 25.7507 34.0078 25.5007C33.6953 25.2507 33.375 25.0085 33.0469 24.7742C32.7188 24.5398 32.375 24.3601 32.0156 24.2351C31.6562 24.1101 31.2344 24.032 30.75 24.0007H21V30.0007C21.8281 30.0007 22.6016 30.157 23.3203 30.4695C24.0391 30.782 24.6797 31.2117 25.2422 31.7585C25.8047 32.3054 26.2344 32.9382 26.5312 33.657C26.8281 34.3757 26.9844 35.157 27 36.0007C27 36.7664 26.8594 37.5085 26.5781 38.2273C26.2969 38.946 25.8828 39.5789 25.3359 40.1257C26.6328 40.8445 27.6875 41.8132 28.5 43.032C29.3125 41.8132 30.3672 40.8445 31.6641 40.1257C31.1328 39.5789 30.7266 38.946 30.4453 38.2273C30.1641 37.5085 30.0156 36.7664 30 36.0007C30 35.1726 30.1562 34.3992 30.4688 33.6804C30.7812 32.9617 31.2109 32.321 31.7578 31.7585C32.3047 31.196 32.9375 30.7664 33.6562 30.4695C34.375 30.1726 35.1562 30.0164 36 30.0007C36.8281 30.0007 37.6016 30.157 38.3203 30.4695C39.0391 30.782 39.6797 31.2117 40.2422 31.7585C40.8047 32.3054 41.2344 32.9382 41.5312 33.657C41.8281 34.3757 41.9844 35.157 42 36.0007C42 36.532 41.9297 37.0476 41.7891 37.5476C41.6484 38.0476 41.4375 38.532 41.1562 39.0007H45V27.0007ZM45 21.0007H38.25C37.8906 21.0007 37.5703 21.0398 37.2891 21.1179C37.0078 21.196 36.7422 21.2976 36.4922 21.4226C36.2422 21.5476 36 21.7039 35.7656 21.8914C35.5312 22.0789 35.2812 22.282 35.0156 22.5007C35.2656 22.7195 35.5078 22.9148 35.7422 23.0867C35.9766 23.2585 36.2266 23.4148 36.4922 23.5554C36.7578 23.696 37.0234 23.8054 37.2891 23.8835C37.5547 23.9617 37.875 24.0007 38.25 24.0007H45V21.0007Z" fill="#52616B"/>
</g>
<defs>
<clipPath id="clip0_394_21">
<rect width="48" height="48" fill="white"/>
</clipPath>
</defs>
</svg>
