<svg width="48" height="48" viewBox="0 0 48 48" fill="none" xmlns="http://www.w3.org/2000/svg">
<path d="M22 34V14H8V34H22ZM22 6C23.0609 6 24.0783 6.42143 24.8284 7.17157C25.5786 7.92172 26 8.93913 26 10V38C26 39.0609 25.5786 40.0783 24.8284 40.8284C24.0783 41.5786 23.0609 42 22 42H8C6.93913 42 5.92172 41.5786 5.17157 40.8284C4.42143 40.0783 4 39.0609 4 38V10C4 8.93913 4.42143 7.92172 5.17157 7.17157C5.92172 6.42143 6.93913 6 8 6H22ZM33 6H43C43.7957 6 44.5587 6.31607 45.1213 6.87868C45.6839 7.44129 46 8.20435 46 9V15C46 15.7956 45.6839 16.5587 45.1213 17.1213C44.5587 17.6839 43.7957 18 43 18H36L30 24V9C30 8.20435 30.3161 7.44129 30.8787 6.87868C31.4413 6.31607 32.2044 6 33 6Z" fill="#52616B"/>
</svg>
