<svg width="36" height="48" viewBox="0 0 36 48" fill="none" xmlns="http://www.w3.org/2000/svg">
<path d="M18 0C13.0312 0 9 4.03125 9 9V24C9 28.9688 13.0312 33 18 33C22.9688 33 27 28.9688 27 24V9C27 4.03125 22.9688 0 18 0ZM6 20.25C6 19.0031 4.99688 18 3.75 18C2.50312 18 1.5 19.0031 1.5 20.25V24C1.5 32.3531 7.70625 39.2531 15.75 40.35V43.5H11.25C10.0031 43.5 9 44.5031 9 45.75C9 46.9969 10.0031 48 11.25 48H18H24.75C25.9969 48 27 46.9969 27 45.75C27 44.5031 25.9969 43.5 24.75 43.5H20.25V40.35C28.2938 39.2531 34.5 32.3531 34.5 24V20.25C34.5 19.0031 33.4969 18 32.25 18C31.0031 18 30 19.0031 30 20.25V24C30 30.6281 24.6281 36 18 36C11.3719 36 6 30.6281 6 24V20.25Z" fill="#52616B"/>
</svg>
