<svg width="40" height="48" viewBox="0 0 40 48" fill="none" xmlns="http://www.w3.org/2000/svg">
<path d="M1.66666 6C1.66666 2.69063 4.65625 0 8.33333 0H31.6667C35.3438 0 38.3333 2.69063 38.3333 6V42C38.3333 45.3094 35.3438 48 31.6667 48H8.33333C4.65625 48 1.66666 45.3094 1.66666 42V6ZM23.3333 42C23.3333 41.2043 22.9821 40.4413 22.357 39.8787C21.7319 39.3161 20.8841 39 20 39C19.1159 39 18.2681 39.3161 17.643 39.8787C17.0179 40.4413 16.6667 41.2043 16.6667 42C16.6667 42.7957 17.0179 43.5587 17.643 44.1213C18.2681 44.6839 19.1159 45 20 45C20.8841 45 21.7319 44.6839 22.357 44.1213C22.9821 43.5587 23.3333 42.7957 23.3333 42ZM31.6667 6H8.33333V36H31.6667V6Z" fill="#52616B"/>
</svg>
