<svg width="48" height="48" viewBox="0 0 48 48" fill="none" xmlns="http://www.w3.org/2000/svg">
<path d="M25.8 21C24.6 20.7 23.4 20.1 22.5 19.2C21.6 18.9 21.3 18 21.3 17.4C21.3 16.8 21.6 15.9 22.2 15.6C23.1 15 24 14.4 24.9 14.7C26.7 14.7 28.2 15.6 29.1 16.8L31.8 13.2C30.9 12.3 30 11.7 29.1 11.1C28.2 10.5 27 10.2 25.8 10.2V6H22.2V10.2C20.7 10.5 19.2 11.4 18 12.6C16.8 14.1 15.9 15.9 16.2 17.7C16.2 19.5 16.8 21.3 18 22.5C19.5 24 21.6 24.9 23.4 25.8C24.3 26.1 25.5 26.7 26.4 27.3C27 27.9 27.3 28.8 27.3 29.7C27.3 30.6 27 31.5 26.4 32.4C25.5 33.3 24.3 33.6 23.4 33.6C22.2 33.6 20.7 33.3 19.8 32.4C18.9 31.8 18 30.9 17.4 30L14.4 33.3C15.3 34.5 16.2 35.4 17.4 36.3C18.9 37.2 20.7 38.1 22.5 38.1V42H25.8V37.5C27.6 37.2 29.1 36.3 30.3 35.1C31.8 33.6 32.7 31.2 32.7 29.1C32.7 27.3 32.1 25.2 30.6 24C29.1 22.5 27.6 21.6 25.8 21ZM24 0C10.8 0 0 10.8 0 24C0 37.2 10.8 48 24 48C37.2 48 48 37.2 48 24C48 10.8 37.2 0 24 0ZM24 44.7C12.6 44.7 3.3 35.4 3.3 24C3.3 12.6 12.6 3.3 24 3.3C35.4 3.3 44.7 12.6 44.7 24C44.7 35.4 35.4 44.7 24 44.7Z" fill="#52616B"/>
</svg>
