<svg width="48" height="48" viewBox="0 0 48 48" fill="none" xmlns="http://www.w3.org/2000/svg">
<path fill-rule="evenodd" clip-rule="evenodd" d="M22 34H8C6.4087 34 4.88258 33.3679 3.75736 32.2426C2.63214 31.1174 2 29.5913 2 28V12C2 10.4087 2.63214 8.88258 3.75736 7.75736C4.88258 6.63214 6.4087 6 8 6H40C41.5913 6 43.1174 6.63214 44.2426 7.75736C45.3679 8.88258 46 10.4087 46 12V28C46 29.5913 45.3679 31.1174 44.2426 32.2426C43.1174 33.3679 41.5913 34 40 34H26V38H32C32.5304 38 33.0391 38.2107 33.4142 38.5858C33.7893 38.9609 34 39.4696 34 40C34 40.5304 33.7893 41.0391 33.4142 41.4142C33.0391 41.7893 32.5304 42 32 42H16C15.4696 42 14.9609 41.7893 14.5858 41.4142C14.2107 41.0391 14 40.5304 14 40C14 39.4696 14.2107 38.9609 14.5858 38.5858C14.9609 38.2107 15.4696 38 16 38H22V34ZM8 10H40C40.5304 10 41.0391 10.2107 41.4142 10.5858C41.7893 10.9609 42 11.4696 42 12V28C42 28.5304 41.7893 29.0391 41.4142 29.4142C41.0391 29.7893 40.5304 30 40 30H8C7.46957 30 6.96086 29.7893 6.58579 29.4142C6.21071 29.0391 6 28.5304 6 28V12C6 11.4696 6.21071 10.9609 6.58579 10.5858C6.96086 10.2107 7.46957 10 8 10Z" fill="#52616B"/>
</svg>
