<svg width="48" height="48" viewBox="0 0 48 48" fill="none" xmlns="http://www.w3.org/2000/svg">
<path d="M46.5 4.5C46.5 3 45 1.5 43.5 1.5H4.5C3 1.5 1.5 3 1.5 4.5V33H46.5V4.5Z" fill="#212528"/>
<path d="M1.5 33V36C1.5 37.5 3 39 4.5 39H43.5C45 39 46.5 37.5 46.5 36V33H1.5Z" fill="#DDDDDD"/>
<path d="M18 40.5C18 43.5 15 43.5 12 43.5H36C33 43.5 30 43.5 30 40.5V39H18V40.5Z" fill="#BFBEBE"/>
<path d="M4.5 4.5H43.5V30H4.5V4.5Z" fill="#3E4347"/>
<path d="M24 36.6748C24.4142 36.6748 24.75 36.339 24.75 35.9248C24.75 35.5106 24.4142 35.1748 24 35.1748C23.5858 35.1748 23.25 35.5106 23.25 35.9248C23.25 36.339 23.5858 36.6748 24 36.6748Z" fill="#94989B"/>
<path d="M12 43.5H36V46.5H12V43.5Z" fill="#94989B"/>
</svg>
