<svg width="48" height="48" viewBox="0 0 48 48" fill="none" xmlns="http://www.w3.org/2000/svg">
<path d="M43.209 4.5H14.5575C14.3227 4.49981 14.0902 4.54586 13.8732 4.63553C13.6561 4.72521 13.4589 4.85674 13.2928 5.02263C13.1266 5.18853 12.9947 5.38552 12.9047 5.60238C12.8146 5.81923 12.7682 6.0517 12.768 6.2865V14.25L29.3715 19.125L45 14.25V6.2865C44.9998 6.05157 44.9533 5.81898 44.8632 5.60203C44.7731 5.38508 44.6411 5.18802 44.4747 5.0221C44.3084 4.85619 44.111 4.72469 43.8938 4.6351C43.6766 4.54552 43.4439 4.49961 43.209 4.5Z" fill="#41A5EE"/>
<path d="M45 14.25H12.768V24L29.3715 26.925L45 24V14.25Z" fill="#2B7CD3"/>
<path d="M12.768 24V33.75L28.395 35.7L45 33.75V24H12.768Z" fill="#185ABD"/>
<path d="M14.5575 43.5H43.2075C43.4426 43.5006 43.6754 43.4548 43.8928 43.3653C44.1101 43.2758 44.3077 43.1444 44.4742 42.9784C44.6407 42.8125 44.7728 42.6154 44.863 42.3983C44.9533 42.1813 44.9998 41.9486 45 41.7135V33.75H12.768V41.7135C12.7682 41.9483 12.8146 42.1808 12.9047 42.3976C12.9947 42.6145 13.1266 42.8115 13.2928 42.9774C13.4589 43.1433 13.6561 43.2748 13.8732 43.3645C14.0902 43.4541 14.3227 43.5002 14.5575 43.5Z" fill="#103F91"/>
<path opacity="0.1" d="M24.651 12.2998H12.768V36.6748H24.651C25.1245 36.6725 25.578 36.4836 25.9132 36.1492C26.2485 35.8148 26.4385 35.3618 26.442 34.8883V14.0863C26.4385 13.6128 26.2485 13.1598 25.9132 12.8254C25.578 12.491 25.1245 12.3022 24.651 12.2998Z" fill="black"/>
<path opacity="0.2" d="M23.6745 13.2754H12.768V37.6504H23.6745C24.148 37.648 24.6015 37.4592 24.9367 37.1248C25.272 36.7904 25.462 36.3374 25.4655 35.8639V15.0619C25.462 14.5884 25.272 14.1354 24.9367 13.801C24.6015 13.4666 24.148 13.2777 23.6745 13.2754Z" fill="black"/>
<path opacity="0.2" d="M23.6745 13.2754H12.768V35.7004H23.6745C24.148 35.698 24.6015 35.5092 24.9367 35.1748C25.272 34.8404 25.462 34.3874 25.4655 33.9139V15.0619C25.462 14.5884 25.272 14.1354 24.9367 13.801C24.6015 13.4666 24.148 13.2777 23.6745 13.2754Z" fill="black"/>
<path opacity="0.2" d="M22.698 13.2754H12.768V35.7004H22.698C23.1715 35.698 23.625 35.5092 23.9602 35.1748C24.2955 34.8404 24.4855 34.3874 24.489 33.9139V15.0619C24.4855 14.5884 24.2955 14.1354 23.9602 13.801C23.625 13.4666 23.1715 13.2777 22.698 13.2754Z" fill="black"/>
<path d="M4.791 13.2754H22.698C23.1723 13.275 23.6274 13.4629 23.9633 13.7979C24.2991 14.1329 24.4882 14.5875 24.489 15.0619V32.9389C24.4882 33.4132 24.2991 33.8679 23.9633 34.2029C23.6274 34.5378 23.1723 34.7258 22.698 34.7254H4.791C4.55607 34.7258 4.32337 34.6799 4.10619 34.5903C3.88901 34.5007 3.69161 34.3692 3.52528 34.2033C3.35895 34.0374 3.22695 33.8403 3.13682 33.6234C3.04669 33.4064 3.0002 33.1738 3 32.9389V15.0619C3.0002 14.827 3.04669 14.5944 3.13682 14.3774C3.22695 14.1605 3.35895 13.9634 3.52528 13.7975C3.69161 13.6316 3.88901 13.5001 4.10619 13.4105C4.32337 13.3209 4.55607 13.275 4.791 13.2754Z" fill="url(#paint0_linear_364_217)"/>
<path d="M10.35 26.9817C10.3845 27.2577 10.4085 27.4977 10.419 27.7032H10.461C10.476 27.5082 10.509 27.2727 10.5585 26.9982C10.608 26.7237 10.6515 26.4912 10.692 26.3007L12.5745 18.1902H15.0105L16.9605 26.1792C17.0741 26.6734 17.1553 27.1744 17.2035 27.6792H17.2365C17.2723 27.1878 17.34 26.6993 17.439 26.2167L18.9975 18.1797H21.213L18.477 29.8017H15.8865L14.031 22.1127C13.977 21.8907 13.916 21.6017 13.848 21.2457C13.78 20.8897 13.738 20.6297 13.722 20.4657H13.6905C13.6695 20.6547 13.6275 20.9352 13.5645 21.3072C13.5015 21.6807 13.452 21.9552 13.4145 22.1352L11.67 29.8062H9.036L6.285 18.1902H8.535L10.2315 26.3172C10.2821 26.5366 10.3217 26.7583 10.35 26.9817Z" fill="white"/>
<defs>
<linearGradient id="paint0_linear_364_217" x1="6.741" y1="11.8714" x2="20.748" y2="36.1294" gradientUnits="userSpaceOnUse">
<stop stop-color="#2368C4"/>
<stop offset="0.5" stop-color="#1A5DBE"/>
<stop offset="1" stop-color="#1146AC"/>
</linearGradient>
</defs>
</svg>
