<svg width="48" height="48" viewBox="0 0 48 48" fill="none" xmlns="http://www.w3.org/2000/svg">
<path d="M15.75 7.5C14.5031 7.5 13.5 8.50313 13.5 9.75V38.25C13.5 39.0375 13.3687 39.7969 13.1156 40.5H41.25C42.4969 40.5 43.5 39.4969 43.5 38.25V9.75C43.5 8.50313 42.4969 7.5 41.25 7.5H15.75ZM6.75 45C3.01875 45 0 41.9813 0 38.25V10.5C0 9.25313 1.00312 8.25 2.25 8.25C3.49688 8.25 4.5 9.25313 4.5 10.5V38.25C4.5 39.4969 5.50313 40.5 6.75 40.5C7.99687 40.5 9 39.4969 9 38.25V9.75C9 6.01875 12.0188 3 15.75 3H41.25C44.9813 3 48 6.01875 48 9.75V38.25C48 41.9813 44.9813 45 41.25 45H6.75ZM16.5 12.75C16.5 11.5031 17.5031 10.5 18.75 10.5H27.75C28.9969 10.5 30 11.5031 30 12.75V20.25C30 21.4969 28.9969 22.5 27.75 22.5H18.75C17.5031 22.5 16.5 21.4969 16.5 20.25V12.75ZM35.25 10.5H38.25C39.4969 10.5 40.5 11.5031 40.5 12.75C40.5 13.9969 39.4969 15 38.25 15H35.25C34.0031 15 33 13.9969 33 12.75C33 11.5031 34.0031 10.5 35.25 10.5ZM35.25 18H38.25C39.4969 18 40.5 19.0031 40.5 20.25C40.5 21.4969 39.4969 22.5 38.25 22.5H35.25C34.0031 22.5 33 21.4969 33 20.25C33 19.0031 34.0031 18 35.25 18ZM18.75 25.5H38.25C39.4969 25.5 40.5 26.5031 40.5 27.75C40.5 28.9969 39.4969 30 38.25 30H18.75C17.5031 30 16.5 28.9969 16.5 27.75C16.5 26.5031 17.5031 25.5 18.75 25.5ZM18.75 33H38.25C39.4969 33 40.5 34.0031 40.5 35.25C40.5 36.4969 39.4969 37.5 38.25 37.5H18.75C17.5031 37.5 16.5 36.4969 16.5 35.25C16.5 34.0031 17.5031 33 18.75 33Z" fill="#52616B"/>
</svg>
