<svg width="34" height="48" viewBox="0 0 34 48" fill="none" xmlns="http://www.w3.org/2000/svg">
<path d="M16.9922 0C14.3855 0 12.378 2.17488 12.378 4.7754C12.378 7.28016 12.3604 9.47168 12.3604 9.47168H7.7256C7.63836 9.47168 7.55396 9.48132 7.47072 9.49512H6.18164V13.998H27.8027V9.49512H26.5136C26.4304 9.48132 26.346 9.47168 26.2588 9.47168H21.624C21.624 9.47168 21.6768 7.48784 21.6768 4.79004C21.6768 2.28524 19.5989 0 16.9922 0ZM0 4.5674V48H33.9844V4.5674H23.2178V7.71388H30.8731V44.8477H3.11428V7.71388H10.7666V4.5674H0ZM16.9922 4.62596C17.8462 4.62596 18.5362 5.31316 18.5362 6.16404C18.5362 7.01648 17.8462 7.70504 16.9922 7.70504C16.1382 7.70504 15.4482 7.01644 15.4482 6.16404C15.4482 5.3132 16.1382 4.62596 16.9922 4.62596ZM6.18164 17.0508V18.5918H7.7256V17.0508H6.18164ZM10.8164 17.0801V18.6211H27.8027V17.0801H10.8164ZM6.18164 22.8633V24.4043H7.7256V22.8633H6.18164ZM10.8164 22.8926V24.4365H27.8027V22.8926H10.8164ZM6.18164 28.6758V30.2168H7.7256V28.6758H6.18164ZM10.8164 28.708V30.249H27.8027V28.708H10.8164ZM6.18164 34.4912V36.0322H7.7256V34.4912H6.18164ZM10.8164 34.5234V36.0644H27.8027V34.5234H10.8164ZM6.18164 40.3037V41.8447H7.7256V40.3037H6.18164ZM10.8164 40.3359V41.8769H27.8027V40.3359H10.8164Z" fill="#52616B"/>
</svg>
