<svg width="47" height="48" viewBox="0 0 47 48" fill="none" xmlns="http://www.w3.org/2000/svg">
<path d="M7.94022 8.41586C9.43413 9.62838 9.99179 9.53629 12.7954 9.34955L39.2253 7.76355C39.7881 7.76355 39.32 7.20078 39.1332 7.10869L34.7436 3.93669C33.902 3.28439 32.7815 2.53488 30.6353 2.72162L5.04194 4.589C4.1108 4.68109 3.92406 5.14921 4.29498 5.52269L7.94022 8.41586ZM9.52622 14.5757V42.3818C9.52622 43.8783 10.2732 44.4359 11.9564 44.3438L41.0006 42.6632C42.6812 42.5711 42.868 41.5427 42.868 40.3302V12.7083C42.868 11.4958 42.4024 10.8409 41.3741 10.9355L11.0201 12.7083C9.8997 12.8004 9.52622 13.3606 9.52622 14.5757ZM38.2021 16.067C38.3863 16.9061 38.2021 17.7477 37.3579 17.8423L35.9587 18.1211V38.6496C34.7436 39.3044 33.6231 39.6779 32.6895 39.6779C31.1956 39.6779 30.8221 39.2098 29.7016 37.8105L20.5463 23.4393V37.345L23.4446 37.9973C23.4446 37.9973 23.4446 39.6779 21.1066 39.6779L14.6628 40.0514C14.4761 39.6779 14.6628 38.7468 15.3177 38.5575L16.9983 38.0919V19.7071L14.6628 19.5204C14.4761 18.6788 14.9442 17.4663 16.2514 17.3716L23.1632 16.9086L32.6895 31.464V18.5893L30.2593 18.3104C30.0751 17.2821 30.8221 16.5377 31.7558 16.4431L38.2021 16.0696V16.067ZM2.89317 2.06931L29.5123 0.109836C32.779 -0.171551 33.6206 0.0177452 35.6773 1.50909L44.1726 7.48217C45.5744 8.50795 46.0425 8.78678 46.0425 9.90721V42.6632C46.0425 44.7173 45.2956 45.9298 42.6812 46.1166L11.7671 47.9839C9.80505 48.076 8.87135 47.7972 7.84301 46.49L1.586 38.3708C0.465567 36.8768 0 35.759 0 34.4492V5.33595C0 3.65531 0.744396 2.25605 2.89317 2.06931Z" fill="black"/>
</svg>
