<svg width="48" height="48" viewBox="0 0 48 48" fill="none" xmlns="http://www.w3.org/2000/svg">
<path d="M43.2 48H4.79999C4.16347 48 3.55302 47.7471 3.10294 47.2971C2.65285 46.847 2.39999 46.2365 2.39999 45.6V2.4C2.39999 1.76348 2.65285 1.15303 3.10294 0.702944C3.55302 0.252856 4.16347 0 4.79999 0H43.2C43.8365 0 44.447 0.252856 44.897 0.702944C45.3471 1.15303 45.6 1.76348 45.6 2.4V45.6C45.6 46.2365 45.3471 46.847 44.897 47.2971C44.447 47.7471 43.8365 48 43.2 48ZM40.8 43.2V4.8H7.19999V43.2H40.8ZM14.4 12H33.6V16.8H14.4V12ZM14.4 21.6H33.6V26.4H14.4V21.6ZM14.4 31.2H33.6V36H14.4V31.2Z" fill="#52616B"/>
</svg>
