<svg width="48" height="48" viewBox="0 0 48 48" fill="none" xmlns="http://www.w3.org/2000/svg">
<path d="M24 48C20.72 48 17.62 47.3696 14.7 46.1088C11.78 44.848 9.2296 43.128 7.0488 40.9488C4.8696 38.7696 3.1496 36.22 1.8888 33.3C0.628003 30.38 -0.00159696 27.28 3.04183e-06 24C3.04183e-06 20.68 0.650403 17.56 1.9512 14.64C3.252 11.72 5.012 9.18 7.2312 7.02C9.4504 4.86 12.04 3.1504 15 1.8912C17.96 0.632 21.12 0.0016 24.48 0C27.68 0 30.7 0.5504 33.54 1.6512C36.38 2.752 38.8704 4.272 41.0112 6.2112C43.1504 8.1504 44.8504 10.4504 46.1112 13.1112C47.372 15.772 48.0016 18.6416 48 21.72C48 26.32 46.6 29.8504 43.8 32.3112C41 34.772 37.6 36.0016 33.6 36H29.16C28.8 36 28.5496 36.1 28.4088 36.3C28.268 36.5 28.1984 36.72 28.2 36.96C28.2 37.44 28.5 38.1304 29.1 39.0312C29.7 39.932 30 40.9616 30 42.12C30 44.12 29.4496 45.6 28.3488 46.56C27.248 47.52 25.7984 48 24 48ZM10.8 26.4C11.84 26.4 12.7 26.06 13.38 25.38C14.06 24.7 14.4 23.84 14.4 22.8C14.4 21.76 14.06 20.9 13.38 20.22C12.7 19.54 11.84 19.2 10.8 19.2C9.76 19.2 8.9 19.54 8.22 20.22C7.54 20.9 7.2 21.76 7.2 22.8C7.2 23.84 7.54 24.7 8.22 25.38C8.9 26.06 9.76 26.4 10.8 26.4ZM18 16.8C19.04 16.8 19.9 16.46 20.58 15.78C21.26 15.1 21.6 14.24 21.6 13.2C21.6 12.16 21.26 11.3 20.58 10.62C19.9 9.94 19.04 9.6 18 9.6C16.96 9.6 16.1 9.94 15.42 10.62C14.74 11.3 14.4 12.16 14.4 13.2C14.4 14.24 14.74 15.1 15.42 15.78C16.1 16.46 16.96 16.8 18 16.8ZM30 16.8C31.04 16.8 31.9 16.46 32.58 15.78C33.26 15.1 33.6 14.24 33.6 13.2C33.6 12.16 33.26 11.3 32.58 10.62C31.9 9.94 31.04 9.6 30 9.6C28.96 9.6 28.1 9.94 27.42 10.62C26.74 11.3 26.4 12.16 26.4 13.2C26.4 14.24 26.74 15.1 27.42 15.78C28.1 16.46 28.96 16.8 30 16.8ZM37.2 26.4C38.24 26.4 39.1 26.06 39.78 25.38C40.46 24.7 40.8 23.84 40.8 22.8C40.8 21.76 40.46 20.9 39.78 20.22C39.1 19.54 38.24 19.2 37.2 19.2C36.16 19.2 35.3 19.54 34.62 20.22C33.94 20.9 33.6 21.76 33.6 22.8C33.6 23.84 33.94 24.7 34.62 25.38C35.3 26.06 36.16 26.4 37.2 26.4Z" fill="#52616B"/>
</svg>
