<svg width="48" height="48" viewBox="0 0 48 48" fill="none" xmlns="http://www.w3.org/2000/svg">
<path d="M47.1879 8.19873L39.8036 0.814454C39.5463 0.5563 39.2406 0.351469 38.904 0.211707C38.5675 0.0719441 38.2066 0 37.8421 0C37.4777 0 37.1168 0.0719441 36.7802 0.211707C36.4436 0.351469 36.1379 0.5563 35.8807 0.814454L13.7278 22.9673C13.2104 23.4878 12.9207 24.1925 12.9225 24.9264V32.3107C12.9225 33.0451 13.2142 33.7495 13.7335 34.2688C14.2528 34.7881 14.9572 35.0798 15.6916 35.0798H23.0759C23.4396 35.0801 23.7999 35.0087 24.136 34.8697C24.4722 34.7308 24.7777 34.5269 25.035 34.2699L47.1879 12.117C47.4453 11.8598 47.6496 11.5544 47.7889 11.2183C47.9283 10.8821 48 10.5218 48 10.1579C48 9.79397 47.9283 9.43364 47.7889 9.09747C47.6496 8.76131 47.4453 8.45591 47.1879 8.19873ZM37.8444 6.6965L41.3058 10.1579L38.7675 12.6962L35.3061 9.23484L37.8444 6.6965ZM21.9221 29.5416H18.4607V26.0802L31.3832 13.1577L34.8446 16.6191L21.9221 29.5416ZM46.1518 25.981V43.3871C46.1518 44.6112 45.6655 45.785 44.8 46.6506C43.9345 47.5161 42.7606 48.0023 41.5366 48.0023H4.61518C3.39115 48.0023 2.21727 47.5161 1.35175 46.6506C0.48624 45.785 0 44.6112 0 43.3871V6.46574C0 5.24172 0.48624 4.06783 1.35175 3.20231C2.21727 2.3368 3.39115 1.85056 4.61518 1.85056H22.0213C22.7557 1.85056 23.4601 2.14231 23.9794 2.66161C24.4987 3.18092 24.7904 3.88525 24.7904 4.61967C24.7904 5.35408 24.4987 6.05841 23.9794 6.57772C23.4601 7.09703 22.7557 7.38877 22.0213 7.38877H5.53821V42.4641H40.6135V25.981C40.6135 25.2466 40.9053 24.5423 41.4246 24.023C41.9439 23.5036 42.6482 23.2119 43.3826 23.2119C44.1171 23.2119 44.8214 23.5036 45.3407 24.023C45.86 24.5423 46.1518 25.2466 46.1518 25.981Z" fill="#52616B"/>
</svg>
