<svg width="48" height="40" viewBox="0 0 48 40" fill="none" xmlns="http://www.w3.org/2000/svg">
<path fill-rule="evenodd" clip-rule="evenodd" d="M10.1818 14.5455C11.7249 14.5455 13.2048 13.9325 14.2959 12.8413C15.387 11.7502 16 10.2704 16 8.72727C16 7.1842 15.387 5.70432 14.2959 4.6132C13.2048 3.52208 11.7249 2.90909 10.1818 2.90909C8.63874 2.90909 7.15886 3.52208 6.06774 4.6132C4.97662 5.70432 4.36364 7.1842 4.36364 8.72727C4.36364 10.2704 4.97662 11.7502 6.06774 12.8413C7.15886 13.9325 8.63874 14.5455 10.1818 14.5455ZM10.1818 17.4545C11.3279 17.4545 12.4628 17.2288 13.5216 16.7902C14.5804 16.3516 15.5425 15.7088 16.3529 14.8984C17.1633 14.088 17.8062 13.1259 18.2448 12.0671C18.6834 11.0082 18.9091 9.87335 18.9091 8.72727C18.9091 7.58119 18.6834 6.44633 18.2448 5.38749C17.8062 4.32865 17.1633 3.36656 16.3529 2.55616C15.5425 1.74576 14.5804 1.10291 13.5216 0.664325C12.4628 0.225738 11.3279 -1.70779e-08 10.1818 0C7.8672 3.44905e-08 5.64738 0.919478 4.0107 2.55616C2.37402 4.19284 1.45454 6.41266 1.45454 8.72727C1.45454 11.0419 2.37402 13.2617 4.0107 14.8984C5.64738 16.5351 7.8672 17.4545 10.1818 17.4545Z" fill="#52616B"/>
<path fill-rule="evenodd" clip-rule="evenodd" d="M6.848 14.2434C6.98346 14.3785 7.09093 14.539 7.16425 14.7158C7.23758 14.8925 7.27533 15.0819 7.27533 15.2732C7.27533 15.4646 7.23758 15.654 7.16425 15.8307C7.09093 16.0074 6.98346 16.1679 6.848 16.3031L5.86473 17.2834C3.97247 19.1762 2.90934 21.743 2.90909 24.4194V29.8187C2.90909 30.2045 2.75584 30.5744 2.48306 30.8472C2.21028 31.12 1.84031 31.2732 1.45455 31.2732C1.06878 31.2732 0.698807 31.12 0.426026 30.8472C0.153246 30.5744 0 30.2045 0 29.8187V24.4194C0.00041239 20.9715 1.37014 17.6649 3.808 15.2267L4.78836 14.2434C4.92348 14.108 5.08399 14.0005 5.2607 13.9272C5.43742 13.8538 5.62686 13.8161 5.81818 13.8161C6.00951 13.8161 6.19895 13.8538 6.37566 13.9272C6.55237 14.0005 6.71289 14.108 6.848 14.2434ZM41.152 13.3707C41.0165 13.5058 40.9091 13.6663 40.8357 13.843C40.7624 14.0197 40.7247 14.2092 40.7247 14.4005C40.7247 14.5918 40.7624 14.7813 40.8357 14.958C40.9091 15.1347 41.0165 15.2952 41.152 15.4303L42.1353 16.4107C43.0724 17.3478 43.8157 18.4603 44.3228 19.6847C44.8299 20.9091 45.0909 22.2214 45.0909 23.5467V29.8187C45.0909 30.2045 45.2442 30.5744 45.5169 30.8472C45.7897 31.12 46.1597 31.2732 46.5455 31.2732C46.9312 31.2732 47.3012 31.12 47.574 30.8472C47.8468 30.5744 48 30.2045 48 29.8187V23.5467C47.9996 20.0988 46.6299 16.7922 44.192 14.354L43.2116 13.3707C43.0765 13.2352 42.916 13.1278 42.7393 13.0544C42.5626 12.9811 42.3731 12.9434 42.1818 12.9434C41.9905 12.9434 41.8011 12.9811 41.6243 13.0544C41.4476 13.1278 41.2871 13.2352 41.152 13.3707Z" fill="#52616B"/>
<path fill-rule="evenodd" clip-rule="evenodd" d="M36.3636 14.5455C34.8206 14.5455 33.3407 13.9325 32.2496 12.8413C31.1584 11.7502 30.5455 10.2704 30.5455 8.72727C30.5455 7.18419 31.1584 5.70432 32.2496 4.6132C33.3407 3.52208 34.8206 2.90909 36.3636 2.90909C37.9067 2.90909 39.3866 3.52208 40.4777 4.6132C41.5688 5.70432 42.1818 7.18419 42.1818 8.72727C42.1818 10.2704 41.5688 11.7502 40.4777 12.8413C39.3866 13.9325 37.9067 14.5455 36.3636 14.5455ZM36.3636 17.4545C35.2176 17.4545 34.0827 17.2288 33.0239 16.7902C31.965 16.3516 31.0029 15.7088 30.1925 14.8984C29.3821 14.088 28.7393 13.1259 28.3007 12.0671C27.8621 11.0082 27.6364 9.87335 27.6364 8.72727C27.6364 7.58119 27.8621 6.44633 28.3007 5.38749C28.7393 4.32865 29.3821 3.36656 30.1925 2.55616C31.0029 1.74576 31.965 1.10291 33.0239 0.664325C34.0827 0.225738 35.2176 -1.70779e-08 36.3636 0C38.6783 3.44905e-08 40.8981 0.919478 42.5348 2.55616C44.1714 4.19284 45.0909 6.41266 45.0909 8.72727C45.0909 11.0419 44.1714 13.2617 42.5348 14.8984C40.8981 16.5351 38.6783 17.4545 36.3636 17.4545ZM23.2727 26.9091C21.3439 26.9091 19.494 27.6753 18.1301 29.0392C16.7662 30.4031 16 32.253 16 34.1818V37.9636C16 38.3494 15.8468 38.7194 15.574 38.9922C15.3012 39.2649 14.9312 39.4182 14.5455 39.4182C14.1597 39.4182 13.7897 39.2649 13.5169 38.9922C13.2442 38.7194 13.0909 38.3494 13.0909 37.9636V34.1818C13.0909 31.4814 14.1636 28.8916 16.0731 26.9822C17.9826 25.0727 20.5723 24 23.2727 24C25.9731 24 28.5629 25.0727 30.4724 26.9822C32.3818 28.8916 33.4545 31.4814 33.4545 34.1818V37.9636C33.4545 38.3494 33.3013 38.7194 33.0285 38.9922C32.7557 39.2649 32.3858 39.4182 32 39.4182C31.6142 39.4182 31.2443 39.2649 30.9715 38.9922C30.6987 38.7194 30.5455 38.3494 30.5455 37.9636V34.1818C30.5455 33.2267 30.3573 32.281 29.9919 31.3987C29.6264 30.5163 29.0907 29.7146 28.4153 29.0392C27.74 28.3639 26.9383 27.8282 26.0559 27.4627C25.1735 27.0972 24.2278 26.9091 23.2727 26.9091Z" fill="#52616B"/>
<path fill-rule="evenodd" clip-rule="evenodd" d="M23.2727 22.5455C24.8158 22.5455 26.2957 21.9325 27.3868 20.8413C28.4779 19.7502 29.0909 18.2704 29.0909 16.7273C29.0909 15.1842 28.4779 13.7043 27.3868 12.6132C26.2957 11.5221 24.8158 10.9091 23.2727 10.9091C21.7297 10.9091 20.2498 11.5221 19.1587 12.6132C18.0675 13.7043 17.4545 15.1842 17.4545 16.7273C17.4545 18.2704 18.0675 19.7502 19.1587 20.8413C20.2498 21.9325 21.7297 22.5455 23.2727 22.5455ZM23.2727 25.4545C25.5873 25.4545 27.8072 24.5351 29.4438 22.8984C31.0805 21.2617 32 19.0419 32 16.7273C32 14.4127 31.0805 12.1928 29.4438 10.5562C27.8072 8.91948 25.5873 8 23.2727 8C20.9581 8 18.7383 8.91948 17.1016 10.5562C15.4649 12.1928 14.5455 14.4127 14.5455 16.7273C14.5455 19.0419 15.4649 21.2617 17.1016 22.8984C18.7383 24.5351 20.9581 25.4545 23.2727 25.4545Z" fill="#52616B"/>
</svg>
