<svg width="48" height="42" viewBox="0 0 48 42" fill="none" xmlns="http://www.w3.org/2000/svg">
<path d="M33.6518 29.5198C35.7794 28.3372 35.5037 23.7804 33.038 19.3345C31.9803 17.4202 30.6798 15.8701 29.3793 14.7863C27.8243 15.9404 25.9406 16.5663 24.0041 16.5723C22.0646 16.568 20.1776 15.9421 18.6201 14.7863C17.3197 15.8701 16.0227 17.422 14.9615 19.3345C12.4941 23.7786 12.2218 28.3372 14.3546 29.5198C15.3048 30.0607 16.307 29.655 17.3405 28.6597C17.147 29.732 17.0501 30.8195 17.0509 31.9091C17.0509 37.0035 19.0276 41.1199 21.4604 41.1199C22.9273 41.1199 23.6538 39.62 24.0023 37.326C24.3491 39.6044 25.0774 41.1199 26.5339 41.1199C28.9562 41.1199 30.9486 37.0018 30.9486 31.9091C30.9486 30.7647 30.8411 29.6723 30.6573 28.6614C31.6976 29.6585 32.6964 30.0712 33.6501 29.5232L33.6518 29.5198ZM24.0006 14.8384C24.9844 14.853 25.9613 14.6719 26.8744 14.3055C27.7875 13.9391 28.6187 13.3948 29.3194 12.7041C30.0202 12.0135 30.5766 11.1904 30.9563 10.2827C31.336 9.37503 31.5313 8.40089 31.531 7.41699C31.5306 6.43309 31.3346 5.45909 30.9543 4.55167C30.574 3.64424 30.017 2.82152 29.3157 2.13139C28.6145 1.44125 27.783 0.897478 26.8696 0.531721C25.9562 0.165964 24.9792 -0.0144748 23.9954 0.000906799C22.0475 0.031363 20.1897 0.826725 18.8232 2.21525C17.4567 3.60377 16.6911 5.47404 16.6918 7.42219C16.6925 9.37035 17.4594 11.2401 18.8268 12.6276C20.1943 14.0152 22.0527 14.8093 24.0006 14.8384ZM38.9022 19.5443C40.4867 19.498 41.9908 18.836 43.0952 17.6989C44.1996 16.5617 44.8173 15.039 44.8173 13.4538C44.8173 11.8686 44.1996 10.3459 43.0952 9.20871C41.9908 8.07157 40.4867 7.40959 38.9022 7.36328C37.2864 7.36351 35.7369 8.00559 34.5946 9.14827C33.4522 10.291 32.8106 11.8406 32.8108 13.4564C32.8111 15.0722 33.4531 16.6217 34.5958 17.764C35.7385 18.9064 37.2882 19.548 38.9039 19.5478L38.9022 19.5443ZM46.3235 23.2376C45.4531 21.6632 44.3884 20.3905 43.3203 19.501C42.0427 20.4476 40.4958 20.961 38.9057 20.9662C37.5948 20.9662 36.3741 20.6072 35.306 20.0125C36.166 21.9077 36.6983 23.8272 36.7972 25.5438C36.9602 28.1725 36.1383 30.1214 34.4945 31.0318C34.1422 31.2253 33.7592 31.3567 33.3622 31.4202C33.2634 32.0999 33.1958 32.8073 33.1958 33.5529C33.1958 37.737 34.817 41.1164 36.8163 41.1164C38.0196 41.1164 38.6196 39.8853 38.9039 38.0023C39.1866 39.8749 39.7848 41.1164 40.9847 41.1164C42.9701 41.1164 44.6087 37.7352 44.6087 33.5564C44.6087 32.6149 44.5168 31.7184 44.3659 30.8861C45.219 31.7063 46.0409 32.0444 46.8246 31.5936C48.5707 30.6225 48.3453 26.8807 46.3218 23.2359L46.3235 23.2376ZM9.09899 19.5443C10.3033 19.5436 11.4803 19.1859 12.4813 18.5163C13.4823 17.8468 14.2622 16.8955 14.7226 15.7827C15.183 14.6699 15.3031 13.4456 15.0677 12.2645C14.8324 11.0835 14.2521 9.99871 13.4003 9.1474C12.5485 8.2961 11.4635 7.71646 10.2823 7.48177C9.1011 7.24708 7.87685 7.36788 6.76432 7.82889C5.65178 8.28991 4.70091 9.07043 4.03193 10.0718C3.36294 11.0732 3.00588 12.2504 3.00588 13.4547C3.00634 15.0705 3.64844 16.6201 4.79102 17.7626C5.9336 18.9052 7.48314 19.5473 9.09899 19.5478V19.5443ZM13.4946 31.0266C10.7341 29.492 10.481 24.9161 12.7039 20.009C11.6051 20.6328 10.3642 20.963 9.10073 20.9679C7.44307 20.9679 5.92412 20.413 4.67914 19.501C3.61276 20.3887 2.54985 21.6615 1.67593 23.2342C-0.347592 26.8824 -0.569538 30.6243 1.17829 31.5918C1.95857 32.0392 2.7822 31.7045 3.6301 30.8878C3.47436 31.7682 3.39603 32.6606 3.39602 33.5547C3.39602 37.737 5.01726 41.1147 7.01651 41.1147C8.21988 41.1147 8.81983 39.8836 9.1042 38.0023C9.3903 39.8749 9.98851 41.1164 11.1849 41.1164C13.1738 41.1164 14.8089 37.7352 14.8089 33.5564C14.8089 32.8056 14.7395 32.0964 14.6407 31.4167C14.2394 31.3534 13.8522 31.2208 13.4963 31.0248L13.4946 31.0266Z" fill="#52616B"/>
</svg>
