<svg width="48" height="45" viewBox="0 0 48 45" fill="none" xmlns="http://www.w3.org/2000/svg">
<path d="M5.4 7.73438C5.4 6.42901 5.8425 5.17711 6.63015 4.25408C7.4178 3.33105 8.48609 2.8125 9.6 2.8125C10.7139 2.8125 11.7822 3.33105 12.5698 4.25408C13.3575 5.17711 13.8 6.42901 13.8 7.73438C13.8 9.03974 13.3575 10.2916 12.5698 11.2147C11.7822 12.1377 10.7139 12.6562 9.6 12.6562C8.48609 12.6562 7.4178 12.1377 6.63015 11.2147C5.8425 10.2916 5.4 9.03974 5.4 7.73438ZM4.8 21.5947C4.05 22.5791 3.6 23.8887 3.6 25.3125C3.6 26.7363 4.05 28.0459 4.8 29.0303V21.5947ZM15.63 17.2617C13.4025 19.5732 12 22.957 12 26.7188C12 29.7334 12.9 32.502 14.4 34.6729V36.5625C14.4 38.1182 13.3275 39.375 12 39.375H7.2C5.8725 39.375 4.8 38.1182 4.8 36.5625V34.207C1.965 32.625 0 29.2412 0 25.3125C0 19.8721 3.7575 15.4688 8.4 15.4688H10.8C12.6 15.4688 14.265 16.1279 15.63 17.2529V17.2617ZM33.6 36.5625V34.6729C35.1 32.502 36 29.7334 36 26.7188C36 22.957 34.5975 19.5732 32.37 17.2529C33.735 16.1279 35.4 15.4688 37.2 15.4688H39.6C44.2425 15.4688 48 19.8721 48 25.3125C48 29.2412 46.035 32.625 43.2 34.207V36.5625C43.2 38.1182 42.1275 39.375 40.8 39.375H36C34.6725 39.375 33.6 38.1182 33.6 36.5625ZM34.2 7.73438C34.2 6.42901 34.6425 5.17711 35.4302 4.25408C36.2178 3.33105 37.2861 2.8125 38.4 2.8125C39.5139 2.8125 40.5822 3.33105 41.3699 4.25408C42.1575 5.17711 42.6 6.42901 42.6 7.73438C42.6 9.03974 42.1575 10.2916 41.3699 11.2147C40.5822 12.1377 39.5139 12.6562 38.4 12.6562C37.2861 12.6562 36.2178 12.1377 35.4302 11.2147C34.6425 10.2916 34.2 9.03974 34.2 7.73438ZM43.2 21.5947V29.0391C43.95 28.0459 44.4 26.7451 44.4 25.3213C44.4 23.8975 43.95 22.5879 43.2 21.6035V21.5947ZM24 2.8125C25.273 2.8125 26.4939 3.40513 27.3941 4.46002C28.2943 5.51492 28.8 6.94566 28.8 8.4375C28.8 9.92934 28.2943 11.3601 27.3941 12.415C26.4939 13.4699 25.273 14.0625 24 14.0625C22.727 14.0625 21.5061 13.4699 20.6059 12.415C19.7057 11.3601 19.2 9.92934 19.2 8.4375C19.2 6.94566 19.7057 5.51492 20.6059 4.46002C21.5061 3.40513 22.727 2.8125 24 2.8125ZM18 26.7188C18 28.1426 18.45 29.4434 19.2 30.4365V23.001C18.45 23.9941 18 25.2949 18 26.7188ZM28.8 23.001V30.4453C29.55 29.4521 30 28.1514 30 26.7275C30 25.3037 29.55 23.9941 28.8 23.0098V23.001ZM33.6 26.7188C33.6 30.6475 31.635 34.0313 28.8 35.6133V39.375C28.8 40.9307 27.7275 42.1875 26.4 42.1875H21.6C20.2725 42.1875 19.2 40.9307 19.2 39.375V35.6133C16.365 34.0313 14.4 30.6475 14.4 26.7188C14.4 21.2783 18.1575 16.875 22.8 16.875H25.2C29.8425 16.875 33.6 21.2783 33.6 26.7188Z" fill="#52556B"/>
</svg>
