<svg width="33" height="48" viewBox="0 0 33 48" fill="none" xmlns="http://www.w3.org/2000/svg">
<g clip-path="url(#clip0_72_882)">
<path d="M11.5501 4.5C11.5501 3.30653 12.0717 2.16193 13 1.31802C13.9283 0.474106 15.1873 0 16.5001 0C17.813 0 19.072 0.474106 20.0003 1.31802C20.9286 2.16193 21.4501 3.30653 21.4501 4.5C21.4501 5.69347 20.9286 6.83807 20.0003 7.68198C19.072 8.52589 17.813 9 16.5001 9C15.1873 9 13.9283 8.52589 13 7.68198C12.0717 6.83807 11.5501 5.69347 11.5501 4.5ZM15.6751 33V45C15.6751 46.6594 14.2005 48 12.3751 48C10.5498 48 9.07514 46.6594 9.07514 45V24.0844L6.12576 28.5469C5.18733 29.9625 3.15576 30.4219 1.59857 29.5687C0.0413872 28.7156 -0.463925 26.8687 0.474512 25.4531L6.4867 16.3594C8.28108 13.65 11.4986 11.9906 14.9739 11.9906H18.0367C21.512 11.9906 24.7295 13.65 26.5239 16.3594L32.5361 25.4531C33.4745 26.8687 32.9692 28.7156 31.412 29.5687C29.8548 30.4219 27.8233 29.9625 26.8848 28.5469L23.9251 24.0844V45C23.9251 46.6594 22.4505 48 20.6251 48C18.7998 48 17.3251 46.6594 17.3251 45V33H15.6751Z" fill="#52556B"/>
</g>
<defs>
<clipPath id="clip0_72_882">
<rect width="33" height="48" fill="white"/>
</clipPath>
</defs>
</svg>
