<svg width="30" height="48" viewBox="0 0 30 48" fill="none" xmlns="http://www.w3.org/2000/svg">
<path d="M3.438 0.438002C3.57756 0.298797 3.74318 0.188463 3.92541 0.113308C4.10763 0.0381525 4.30289 -0.000349649 4.5 2.39248e-06H25.5C25.8978 2.39248e-06 26.2794 0.158038 26.5607 0.439342C26.842 0.720647 27 1.10218 27 1.5C27 3.54 25.974 5.022 25.062 5.937C24.684 6.312 24.312 6.609 24 6.831V20.124L24.234 20.268C24.843 20.649 25.662 21.21 26.487 21.933C28.08 23.325 30 25.581 30 28.5C30 28.8978 29.842 29.2794 29.5607 29.5607C29.2794 29.842 28.8978 30 28.5 30H16.5V43.5C16.5 44.328 15.828 48 15 48C14.172 48 13.5 44.328 13.5 43.5V30H1.5C1.10218 30 0.720645 29.842 0.43934 29.5607C0.158036 29.2794 0 28.8978 0 28.5C0 25.581 1.92 23.325 3.51 21.933C4.2861 21.2591 5.11922 20.6538 6 20.124V6.831C5.62169 6.56314 5.26645 6.2641 4.938 5.937C4.026 5.022 3 3.537 3 1.5C2.99965 1.30289 3.03815 1.10764 3.11331 0.925411C3.18846 0.743185 3.29879 0.57756 3.438 0.438002Z" fill="#52616B"/>
</svg>
