<svg width="48" height="48" viewBox="0 0 48 48" fill="none" xmlns="http://www.w3.org/2000/svg">
<g clip-path="url(#clip0_394_23)">
<path d="M0 24.0004C0 33.828 5.90963 42.2707 14.3661 45.9827C14.2986 44.3068 14.3541 42.2949 14.7838 40.4715C15.2452 38.5232 17.8719 27.3938 17.8719 27.3938C17.8719 27.3938 17.1052 25.8613 17.1052 23.5965C17.1052 20.0398 19.1666 17.3835 21.7339 17.3835C23.9169 17.3835 24.9716 19.0232 24.9716 20.9867C24.9716 23.1812 23.5719 26.4637 22.8521 29.5041C22.2508 32.0499 24.1286 34.1265 26.6402 34.1265C31.1874 34.1265 34.2501 28.2861 34.2501 21.3662C34.2501 16.1061 30.7073 12.1689 24.2634 12.1689C16.9832 12.1689 12.4478 17.5982 12.4478 23.6627C12.4478 25.7537 13.0642 27.2282 14.0299 28.3701C14.4739 28.8945 14.5356 29.1054 14.3749 29.7077C14.2598 30.1492 13.9954 31.2124 13.8859 31.6337C13.7261 32.2416 13.2336 32.4589 12.6842 32.2344C9.33094 30.8655 7.76925 27.1933 7.76925 23.0653C7.76925 16.2476 13.5191 8.07263 24.9221 8.07263C34.0853 8.07263 40.1162 14.7034 40.1162 21.8211C40.1162 31.236 34.8819 38.2697 27.1663 38.2697C24.5752 38.2697 22.1379 36.8691 21.303 35.2781C21.303 35.2781 19.9097 40.8079 19.6146 41.8757C19.1057 43.7261 18.1097 45.5756 17.199 47.0171C19.4073 47.6701 21.6981 48.0015 24.0009 48.0013C37.2542 48.0013 48.0002 37.2559 48.0002 24.0004C48.0002 10.7454 37.2542 0 24.0009 0C10.7464 0 0 10.7454 0 24.0004Z" fill="#CB1F27"/>
</g>
<defs>
<clipPath id="clip0_394_23">
<rect width="48" height="48" fill="white"/>
</clipPath>
</defs>
</svg>
