<svg width="48" height="48" viewBox="0 0 48 48" fill="none" xmlns="http://www.w3.org/2000/svg">
<path d="M9.6 11.9992H1.872C0.984 11.9992 0.0959998 12.7672 0.216 14.0152L3.96 37.9912C3.96 37.9912 8.4 20.3272 9.264 16.0792C9.528 14.8072 10.728 14.3992 11.616 14.3992H24C24 14.3992 22.32 9.40722 22.152 8.85522C21.864 7.79922 21.336 7.19922 20.28 7.19922H12.336C11.472 7.19922 10.656 7.75122 10.416 8.73522C10.2 9.69522 9.6 11.9992 9.6 11.9992ZM21.312 11.9992H11.712C11.712 11.9992 12.72 9.59922 13.8 9.59922H18.912C20.064 9.59922 21.312 11.9992 21.312 11.9992ZM6.408 38.9992C5.664 40.1272 4.584 40.7992 3.384 40.7992H41.136C42.432 40.7992 43.344 40.0552 43.608 38.8072C44.664 33.5512 47.64 18.5512 47.64 18.5512C47.808 17.3512 46.92 16.7992 46.152 16.7992H38.4V13.2712C38.4 12.8872 37.776 11.9992 36.816 11.9992H27.792C26.544 11.9992 25.704 13.3912 25.704 13.3912L24 16.7992H13.416C12.648 16.7992 11.904 17.2552 11.76 17.9992C11.76 17.9992 7.944 34.0792 7.632 35.5912C7.464 36.4792 7.104 37.9672 6.408 38.9992ZM36.912 16.7992H26.4C26.4 16.7992 27.792 14.3992 29.112 14.3992H34.608C36.312 14.3992 36.912 16.7992 36.912 16.7992Z" fill="#52616B"/>
</svg>
