<svg width="38" height="48" viewBox="0 0 38 48" fill="none" xmlns="http://www.w3.org/2000/svg">
<path d="M38 6C38 2.69063 35.1599 0 31.6667 0H6.33333C2.8401 0 0 2.69063 0 6V42C0 45.3094 2.8401 48 6.33333 48H31.6667C35.1599 48 38 45.3094 38 42V6ZM12.6667 18C12.6667 16.4087 13.3339 14.8826 14.5217 13.7574C15.7094 12.6321 17.3203 12 19 12C20.6797 12 22.2906 12.6321 23.4783 13.7574C24.6661 14.8826 25.3333 16.4087 25.3333 18C25.3333 19.5913 24.6661 21.1174 23.4783 22.2426C22.2906 23.3679 20.6797 24 19 24C17.3203 24 15.7094 23.3679 14.5217 22.2426C13.3339 21.1174 12.6667 19.5913 12.6667 18ZM7.91667 33.4313C7.91667 29.8781 10.9547 27 14.7052 27H23.3047C27.0552 27 30.0932 29.8781 30.0932 33.4313C30.0932 34.8469 28.876 36 27.3818 36H10.6281C9.13385 36 7.91667 34.8469 7.91667 33.4313Z" fill="#52616B"/>
</svg>
