<svg width="48" height="48" viewBox="0 0 48 48" fill="none" xmlns="http://www.w3.org/2000/svg">
<path d="M24 24.6667C27.3067 24.6667 30 21.9733 30 18.6667C30 15.36 27.3067 12.6667 24 12.6667C20.6933 12.6667 18 15.36 18 18.6667C18 21.9733 20.6933 24.6667 24 24.6667ZM36 35.3333C36 31.3333 28 29.3333 24 29.3333C20 29.3333 12 31.3333 12 35.3333V37.3333H36V35.3333ZM42.6667 0H5.33333C2.4 0 0 2.4 0 5.33333V42.6667C0 45.6 2.4 48 5.33333 48H42.6667C45.6 48 48 45.6 48 42.6667V5.33333C48 2.4 45.6 0 42.6667 0ZM40 42.6667H8C6.53333 42.6667 5.33333 41.4667 5.33333 40V8C5.33333 6.53333 6.53333 5.33333 8 5.33333H40C41.4667 5.33333 42.6667 6.53333 42.6667 8V40C42.6667 41.4667 41.4667 42.6667 40 42.6667Z" fill="#52616B"/>
</svg>
