<svg width="48" height="48" viewBox="0 0 48 48" fill="none" xmlns="http://www.w3.org/2000/svg">
<g clip-path="url(#clip0_72_880)">
<path d="M12 0C8.69063 0 6 2.69063 6 6V15H12V6H33.2531L36 8.74688V15H42V8.74688C42 7.15313 41.3719 5.625 40.2469 4.5L37.5 1.75313C36.375 0.628125 34.8469 0 33.2531 0H12ZM36 33V36V42H12V36V34.5V33H36ZM42 36H45C46.6594 36 48 34.6594 48 33V24C48 20.6906 45.3094 18 42 18H6C2.69063 18 0 20.6906 0 24V33C0 34.6594 1.34062 36 3 36H6V42C6 45.3094 8.69063 48 12 48H36C39.3094 48 42 45.3094 42 42V36ZM40.5 23.25C41.0967 23.25 41.669 23.4871 42.091 23.909C42.5129 24.331 42.75 24.9033 42.75 25.5C42.75 26.0967 42.5129 26.669 42.091 27.091C41.669 27.5129 41.0967 27.75 40.5 27.75C39.9033 27.75 39.331 27.5129 38.909 27.091C38.4871 26.669 38.25 26.0967 38.25 25.5C38.25 24.9033 38.4871 24.331 38.909 23.909C39.331 23.4871 39.9033 23.25 40.5 23.25Z" fill="#52556B"/>
</g>
<defs>
<clipPath id="clip0_72_880">
<rect width="48" height="48" fill="white"/>
</clipPath>
</defs>
</svg>
