<svg width="49" height="49" viewBox="0 0 49 49" fill="none" xmlns="http://www.w3.org/2000/svg">
<path d="M0.451495 12.4233L22.2873 47.0373C22.5061 47.3813 22.8088 47.664 23.1669 47.859C23.525 48.054 23.9268 48.1548 24.3345 48.152C24.7422 48.1491 25.1425 48.0427 25.4979 47.8427C25.8532 47.6428 26.1519 47.3558 26.3659 47.0088L47.7162 12.0933C48.4517 10.9124 48.0556 9.16369 46.5159 8.57461L24.8643 0.328106C24.5992 0.162003 24.2873 0.164181 23.9994 0.166191C23.7115 0.168202 23.3996 0.17038 23.1369 0.340168L1.60249 8.88823C0.0711714 9.49876 -0.300474 11.2529 0.451495 12.4233ZM26.6583 37.3374L26.544 20.9747L39.8952 15.6509L26.6583 37.3374ZM24.0341 5.13258L39.0459 10.8582L24.1155 16.7928L9.10364 11.0672L24.0341 5.13258ZM21.7456 21.0082L21.8599 37.3709L8.32141 15.8714L21.7456 21.0082Z" fill="#52616B"/>
</svg>
