<svg width="48" height="48" viewBox="0 0 48 48" fill="none" xmlns="http://www.w3.org/2000/svg">
<path d="M15.6643 22.7902C17.5291 23.6107 18.9837 24.8415 20.028 26.4825C21.0723 28.1235 21.5944 30.0629 21.5944 32.3007C21.5944 35.5082 20.5874 38.1189 18.5734 40.1329C16.5594 42.0723 13.986 43.042 10.8531 43.042C7.72028 43.042 5.10956 42.035 3.02098 40.021C1.00699 38.007 0 35.4336 0 32.3007C0 30.8089 0.18648 29.317 0.55944 27.8252C0.932401 26.3333 1.75291 24.0956 3.02098 21.1119L9.51049 5H20.5874L15.6643 22.7902ZM42.0699 22.7902C43.9347 23.6107 45.3893 24.8415 46.4336 26.4825C47.4779 28.1235 48 30.0629 48 32.3007C48 35.5082 46.993 38.1189 44.979 40.1329C42.965 42.0723 40.3916 43.042 37.2587 43.042C34.1259 43.042 31.5152 42.035 29.4266 40.021C27.4126 38.007 26.4056 35.4336 26.4056 32.3007C26.4056 30.8089 26.5921 29.317 26.965 27.8252C27.338 26.3333 28.1585 24.0956 29.4266 21.1119L35.9161 5H46.993L42.0699 22.7902Z" fill="#D6DADD"/>
</svg>
