<svg width="48" height="48" viewBox="0 0 48 48" fill="none" xmlns="http://www.w3.org/2000/svg">
<path d="M40.1116 47.9581L32.838 35.3291C32.838 30.7198 29.9871 27.7624 26.5235 27.7624C24.1256 27.7624 22.0474 29.0946 20.9817 31.0662C21.8609 30.56 22.9 30.2935 23.9924 30.2935C27.456 30.2935 30.2802 33.1177 30.2802 36.5814C30.2802 40.0717 27.4827 42.9225 23.9924 42.9225H32.7847V47.9581H10.1112C9.47173 47.9581 8.80564 47.7183 8.32606 47.2121C7.85293 46.7385 7.58717 46.0964 7.58717 45.427C7.58717 44.7575 7.85293 44.1155 8.32606 43.6419L9.65823 42.3097C8.75236 41.9101 8.00634 41.2973 7.26033 40.6578C6.67417 41.99 5.342 42.9225 3.79668 42.9225C2.78974 42.9225 1.82404 42.5225 1.11202 41.8105C0.400007 41.0985 0 40.1328 0 39.1258C0 38.1189 0.400007 37.1532 1.11202 36.4412C1.82404 35.7291 2.78974 35.3291 3.79668 35.3291L5.04892 35.5423V30.2935C5.04541 28.6341 5.36967 26.9903 6.00309 25.4565C6.63651 23.9227 7.56662 22.5291 8.74003 21.3557C9.91344 20.1823 11.307 19.2522 12.8408 18.6187C14.3746 17.9853 16.0184 17.6611 17.6779 17.6646H17.7312C23.3796 17.6912 27.7757 19.9026 27.7757 16.4123C27.7757 13.9345 28.3086 12.9487 29.2145 11.5632C27.2695 10.6574 25.0581 10.0978 22.7401 10.0978C21.328 10.0978 20.209 8.97883 20.209 7.56673C20.209 6.42106 20.955 5.4619 21.9941 5.14218L20.209 5.0356C18.8236 5.0356 17.6779 3.91658 17.6779 2.53112C17.6779 1.11902 18.8236 0 20.209 0H22.7401C28.3353 0 33.2376 3.06399 35.8753 7.59337L36.6213 7.56673C38.513 7.56673 40.2715 8.17952 41.7102 9.19197L42.9092 10.2044C48.6908 15.3999 47.9714 18.9168 47.9714 18.9435C47.9714 22.3538 45.1472 25.1514 41.7102 25.1514L40.4047 25.0182V25.2313C40.4047 28.1887 39.1258 30.8264 37.1276 32.6915L45.9465 47.9581H40.1116ZM40.4047 12.629C38.9926 12.629 37.8736 13.748 37.8736 15.1335C37.8736 16.5456 38.9926 17.6646 40.4047 17.6646C41.7902 17.6646 42.9358 16.5456 42.9358 15.1335C42.9358 13.748 41.7902 12.629 40.4047 12.629Z" fill="#52616B"/>
</svg>
