<svg width="48" height="43" viewBox="0 0 48 43" fill="none" xmlns="http://www.w3.org/2000/svg">
<g clip-path="url(#clip0_364_114)">
<path d="M39.4656 13.842C38.9547 13.6667 38.4396 13.5043 37.9206 13.355C38.0077 12.9988 38.088 12.6468 38.1593 12.3011C39.3289 6.62341 38.5642 2.04934 35.9526 0.543342C33.4485 -0.900408 29.3533 0.60503 25.2174 4.20447C24.8098 4.55984 24.4113 4.92546 24.0221 5.30097C23.7616 5.05127 23.4965 4.80641 23.2269 4.56653C18.8923 0.717905 14.5476 -0.904158 11.9387 0.606155C9.43688 2.0544 8.69606 6.35434 9.74906 11.7352C9.85382 12.2681 9.97211 12.7983 10.1038 13.3252C9.48881 13.5 8.89537 13.686 8.32744 13.884C3.24544 15.6558 0 18.4325 0 21.3127C0 24.2874 3.48413 27.2711 8.77725 29.0803C9.20637 29.2264 9.63907 29.3617 10.0749 29.4862C9.93338 30.0537 9.8077 30.6251 9.69806 31.1996C8.69419 36.4871 9.47812 40.6854 11.9732 42.1245C14.5502 43.6106 18.8754 42.0832 23.0869 38.4017C23.4284 38.1024 23.7624 37.7946 24.0885 37.4786C24.5099 37.8852 24.9426 38.28 25.386 38.6625C29.4656 42.1728 33.4946 43.5903 35.9873 42.1473C38.5618 40.6569 39.3986 36.1468 38.3122 30.6596C38.2267 30.2297 38.1307 29.802 38.0244 29.3767C38.3282 29.2867 38.6263 29.1941 38.9169 29.0977C44.4197 27.2747 48 24.3272 48 21.3127C48 18.422 44.6497 15.6266 39.4656 13.842ZM38.2721 27.1515C38.0096 27.2383 37.7404 27.3221 37.4659 27.4037C36.8584 25.4805 36.0386 23.4356 35.0353 21.3227C35.9927 19.2602 36.7809 17.2413 37.3714 15.3307C37.8624 15.4728 38.3389 15.6227 38.7982 15.7807C43.2401 17.31 45.9495 19.5707 45.9495 21.3127C45.9495 23.1682 43.0234 25.577 38.2721 27.1515ZM36.3008 31.0578C36.7811 33.4841 36.8496 35.6778 36.5314 37.3929C36.2456 38.934 35.6707 39.9613 34.9597 40.3728C33.4472 41.2485 30.2122 40.1103 26.7234 37.1081C26.311 36.7525 25.9085 36.3855 25.5165 36.0075C26.8691 34.5283 28.2208 32.8087 29.5401 30.8988C31.8606 30.693 34.0528 30.3562 36.0409 29.8967C36.1366 30.2816 36.2233 30.6688 36.3008 31.0578ZM16.3643 40.2215C14.8864 40.7433 13.7092 40.7583 12.9977 40.3481C11.4836 39.4749 10.8542 36.1038 11.7127 31.5821C11.8148 31.0478 11.9317 30.5164 12.0632 29.9885C14.0293 30.4235 16.2056 30.7363 18.5316 30.9249C19.8598 32.7937 21.2505 34.5114 22.6521 36.0155C22.3542 36.3037 22.0493 36.5846 21.7376 36.8578C19.8752 38.4857 18.009 39.6407 16.3643 40.2215ZM9.44062 27.14C7.10006 26.34 5.16713 25.3003 3.84225 24.1657C2.65163 23.1463 2.05069 22.134 2.05069 21.3127C2.05069 19.5648 4.65637 17.3355 9.00244 15.8203C9.52987 15.6365 10.0819 15.4631 10.6547 15.3003C11.2554 17.2541 12.0433 19.2969 12.9941 21.3626C12.0309 23.4588 11.2318 25.5343 10.6252 27.5111C10.2274 27.3971 9.8324 27.2734 9.44062 27.14ZM11.7615 11.3413C10.8594 6.73122 11.4585 3.25365 12.9662 2.38084C14.5719 1.45122 18.1228 2.77665 21.8655 6.09991C22.1096 6.3171 22.3497 6.5387 22.5857 6.76459C21.1911 8.26216 19.8131 9.96709 18.4967 11.8248C16.2392 12.0341 14.0782 12.3701 12.0915 12.8203C11.9691 12.3302 11.8591 11.8369 11.7615 11.3413ZM32.4666 16.454C31.9973 15.6435 31.5106 14.8431 31.0069 14.0535C32.5384 14.2472 34.0057 14.5042 35.3837 14.8185C34.9701 16.1445 34.4544 17.5307 33.8475 18.9519C33.4039 18.1102 32.9435 17.2774 32.4666 16.454ZM24.0231 8.23009C24.9688 9.25478 25.9161 10.3987 26.8478 11.64C24.9578 11.5507 23.0646 11.5503 21.1746 11.6388C22.1072 10.409 23.0625 9.26659 24.0231 8.23009ZM15.5254 16.4681C15.0544 17.2848 14.6026 18.1124 14.1703 18.9502C13.5733 17.534 13.0624 16.1415 12.6452 14.7967C14.0147 14.4903 15.4751 14.2398 16.9969 14.0497C16.4875 14.8442 15.9969 15.6506 15.5254 16.4681ZM17.0406 28.7216C15.4684 28.5461 13.986 28.3085 12.6169 28.0104C13.0406 26.6417 13.5628 25.2195 14.1727 23.7729C14.6068 24.6113 15.0605 25.4394 15.5334 26.2565C16.0198 27.0965 16.5234 27.9193 17.0406 28.7216ZM24.0797 34.5397C23.1077 33.4912 22.1383 32.3312 21.1916 31.0835C22.1108 31.1195 23.0477 31.1379 24 31.1379C24.9784 31.1379 25.9455 31.116 26.8974 31.0736C25.9628 32.3437 25.0191 33.5055 24.0797 34.5397ZM33.8668 23.699C34.5084 25.1615 35.0492 26.5762 35.4786 27.9215C34.0869 28.2392 32.5843 28.4949 31.0011 28.6848C31.5084 27.8806 31.9997 27.0663 32.4746 26.2425C32.9575 25.4051 33.4217 24.5571 33.8668 23.699ZM30.6984 25.218C29.9713 26.481 29.2034 27.7201 28.3958 28.9333C26.9328 29.0369 25.4666 29.0884 24 29.0876C22.5062 29.0876 21.0532 29.0411 19.6541 28.9503C18.8254 27.74 18.0428 26.4987 17.3079 25.2292C16.5765 23.9664 15.8935 22.6763 15.2601 21.3617C15.8919 20.0467 16.573 18.756 17.3019 17.4922L17.3018 17.4924C18.0304 16.2283 18.8067 14.9924 19.6292 13.7872C21.0566 13.6792 22.5204 13.623 23.9998 13.623C25.4859 13.623 26.9518 13.6798 28.3789 13.7885C29.193 14.9919 29.9644 16.2236 30.6917 17.4813C31.423 18.7423 32.1131 20.0267 32.7609 21.3326C32.1198 22.6518 31.4318 23.9477 30.6984 25.218ZM34.9284 2.31972C36.5357 3.24672 37.1608 6.9849 36.1509 11.8871C36.0864 12.1998 36.0141 12.5184 35.9353 12.8415C33.9437 12.3817 31.7812 12.0399 29.5172 11.8275C28.1983 9.94928 26.8316 8.24172 25.4597 6.76347C25.8192 6.41688 26.1874 6.07927 26.5637 5.75097C30.1074 2.66716 33.4194 1.44953 34.9284 2.31972ZM24 17.0265C26.3672 17.0265 28.2863 18.9455 28.2863 21.3127C28.2863 23.6799 26.3672 25.599 24 25.599C21.6328 25.599 19.7137 23.6799 19.7137 21.3127C19.7137 18.9455 21.6328 17.0265 24 17.0265Z" fill="#00D8FF"/>
</g>
<defs>
<clipPath id="clip0_364_114">
<rect width="48" height="42.75" fill="white"/>
</clipPath>
</defs>
</svg>
