<svg width="48" height="48" viewBox="0 0 48 48" fill="none" xmlns="http://www.w3.org/2000/svg">
<path d="M44.7788 3.58696C44.7616 3.50405 44.7212 3.42773 44.6623 3.36696C44.6033 3.30619 44.5283 3.26348 44.4459 3.24384C38.955 1.90134 26.2678 6.6854 19.3941 13.5563C18.1681 14.7724 17.0504 16.093 16.0538 17.5032C13.9341 17.3157 11.8144 17.4723 10.0078 18.2598C4.91063 20.5032 3.42656 26.357 3.01312 28.8751C2.98967 29.0129 2.99852 29.1543 3.03897 29.2881C3.07941 29.422 3.15036 29.5446 3.24622 29.6463C3.34208 29.7481 3.46025 29.8263 3.59142 29.8746C3.7226 29.923 3.86321 29.9403 4.00219 29.9251L12.1875 29.0223C12.1933 29.6394 12.2306 30.2558 12.2991 30.8691C12.3403 31.2951 12.5293 31.6931 12.8334 31.9941L16.0031 35.1563C16.3044 35.4601 16.7023 35.6491 17.1281 35.6907C17.738 35.7589 18.351 35.7962 18.9647 35.8023L18.0666 43.9773C18.0516 44.1162 18.069 44.2567 18.1174 44.3878C18.1659 44.5189 18.244 44.637 18.3457 44.7328C18.4474 44.8286 18.57 44.8996 18.7037 44.9401C18.8375 44.9806 18.9788 44.9896 19.1166 44.9663C21.63 44.5632 27.4941 43.0791 29.7244 37.982C30.5119 36.1754 30.6731 34.066 30.4912 31.9566C31.9048 30.9599 33.2289 29.8419 34.4484 28.6154C41.3438 21.7548 46.1006 9.35071 44.7788 3.58696ZM27.5691 20.431C26.9394 19.8018 26.5106 19 26.3367 18.127C26.1628 17.254 26.2518 16.349 26.5923 15.5266C26.9328 14.7042 27.5095 14.0012 28.2496 13.5066C28.9897 13.012 29.8599 12.748 30.75 12.748C31.6401 12.748 32.5103 13.012 33.2504 13.5066C33.9905 14.0012 34.5672 14.7042 34.9077 15.5266C35.2482 16.349 35.3372 17.254 35.1633 18.127C34.9894 19 34.5606 19.8018 33.9309 20.431C33.5134 20.8491 33.0176 21.1808 32.4718 21.4071C31.926 21.6335 31.3409 21.7499 30.75 21.7499C30.1591 21.7499 29.574 21.6335 29.0282 21.4071C28.4824 21.1808 27.9866 20.8491 27.5691 20.431Z" fill="#52616B"/>
<path d="M15.7875 37.4466C15.2737 37.9613 14.4497 38.1619 13.4578 38.3334C11.2294 38.7131 9.26156 36.7875 9.66187 34.5347C9.81469 33.6806 10.2666 32.4834 10.5478 32.2022C10.6093 32.1419 10.6502 32.0638 10.6648 31.9789C10.6793 31.8941 10.6667 31.8068 10.6289 31.7294C10.591 31.6521 10.5297 31.5887 10.4537 31.5482C10.3777 31.5077 10.2909 31.4921 10.2056 31.5038C8.95946 31.6562 7.80013 32.2212 6.91219 33.1088C4.70813 35.3147 4.5 43.5 4.5 43.5C4.5 43.5 12.69 43.2919 14.8941 41.0859C15.7844 40.1987 16.3501 39.0376 16.5 37.7897C16.5347 37.3978 16.0575 37.1644 15.7875 37.4466Z" fill="#52616B"/>
</svg>
