<svg width="50" height="40" viewBox="0 0 50 40" fill="none" xmlns="http://www.w3.org/2000/svg">
<path d="M22.3333 38.3333H6.33333C4.91885 38.3333 3.56229 37.7714 2.5621 36.7712C1.5619 35.771 1 34.4145 1 33V6.33333C1 4.91885 1.5619 3.56229 2.5621 2.5621C3.56229 1.5619 4.91885 1 6.33333 1H43.6667C45.0812 1 46.4377 1.5619 47.4379 2.5621C48.4381 3.56229 49 4.91885 49 6.33333V17" stroke="#52616B" stroke-width="2" stroke-linecap="round" stroke-linejoin="round"/>
<path d="M11.6667 11.666L22.3333 22.3327M22.3333 22.3327H14.3333M22.3333 22.3327V14.3327M30.3333 27.666C30.3333 26.9588 30.6143 26.2805 31.1144 25.7804C31.6145 25.2803 32.2928 24.9993 33 24.9993H46.3333C47.0406 24.9993 47.7189 25.2803 48.219 25.7804C48.7191 26.2805 49 26.9588 49 27.666V35.666C49 36.3733 48.7191 37.0515 48.219 37.5516C47.7189 38.0517 47.0406 38.3327 46.3333 38.3327H33C32.2928 38.3327 31.6145 38.0517 31.1144 37.5516C30.6143 37.0515 30.3333 36.3733 30.3333 35.666V27.666Z" stroke="#52616B" stroke-width="2" stroke-linecap="round" stroke-linejoin="round"/>
</svg>
