<svg width="48" height="48" viewBox="0 0 48 48" fill="none" xmlns="http://www.w3.org/2000/svg">
<path d="M25.2 9.60156C26.7913 9.60156 28.3174 10.2337 29.4426 11.3589C30.5679 12.4841 31.2 14.0103 31.2 15.6016V32.4016C31.2003 33.7847 30.7227 35.1255 29.848 36.197C28.9733 37.2685 27.7552 38.0049 26.4 38.2816V30.0016C26.4 27.7737 25.515 25.6372 23.9397 24.0619C22.3644 22.4866 20.2278 21.6016 18 21.6016H8.39999C7.11119 21.6016 5.89199 21.8896 4.79999 22.4104V15.6016C4.79999 14.0103 5.43214 12.4841 6.55735 11.3589C7.68257 10.2337 9.2087 9.60156 10.8 9.60156H25.2ZM33.6 28.9984V19.0336L40.248 13.4824C40.5106 13.2636 40.8302 13.1241 41.1692 13.0803C41.5081 13.0365 41.8526 13.0901 42.1623 13.2348C42.4719 13.3796 42.734 13.6095 42.9177 13.8977C43.1015 14.186 43.1994 14.5205 43.2 14.8624V33.2656C43.1994 33.609 43.1006 33.9451 42.9153 34.2342C42.7299 34.5233 42.4657 34.7533 42.1538 34.8972C41.8419 35.041 41.4954 35.0926 41.1552 35.0459C40.8149 34.9992 40.4952 34.8561 40.2336 34.6336L33.6 28.9984ZM2.39999 30.0016C2.39999 28.4103 3.03213 26.8841 4.15735 25.7589C5.28257 24.6337 6.8087 24.0016 8.39999 24.0016H18C19.5913 24.0016 21.1174 24.6337 22.2426 25.7589C23.3679 26.8841 24 28.4103 24 30.0016V39.6016C24 41.1929 23.3679 42.719 22.2426 43.8442C21.1174 44.9694 19.5913 45.6016 18 45.6016H8.39999C6.8087 45.6016 5.28257 44.9694 4.15735 43.8442C3.03213 42.719 2.39999 41.1929 2.39999 39.6016V30.0016ZM12.048 30.0832C11.8924 29.9763 11.7115 29.9119 11.5234 29.8963C11.3352 29.8807 11.1463 29.9145 10.9752 29.9944C10.8347 30.0555 10.7075 30.1436 10.6008 30.2536C10.3772 30.4827 10.2523 30.7902 10.2528 31.1104V38.4904C10.2512 38.6495 10.2811 38.8073 10.3409 38.9548C10.4006 39.1022 10.4889 39.2364 10.6008 39.3496C10.7111 39.4587 10.8394 39.548 10.98 39.6136C11.2235 39.7251 11.4998 39.7422 11.7552 39.6616C11.8659 39.6252 11.9709 39.5735 12.0672 39.508L17.5776 35.7472C17.7452 35.6366 17.8802 35.4833 17.9688 35.3032C18.06 35.1216 18.1069 34.9211 18.1056 34.7179C18.1044 34.5147 18.055 34.3148 17.9616 34.1344C17.8671 33.9564 17.7282 33.806 17.5584 33.6976L12.048 30.0832Z" fill="#52616B"/>
</svg>
