<svg width="48" height="48" viewBox="0 0 48 48" fill="none" xmlns="http://www.w3.org/2000/svg">
<path d="M38.4 35.0544L35.1864 31.9656C34.4233 31.1358 33.476 30.4969 32.4209 30.1001C31.3657 29.7033 30.2321 29.5599 29.1113 29.6813C27.9906 29.8027 26.914 30.1856 25.9683 30.7991C25.0226 31.4127 24.2341 32.2397 23.6664 33.2136L14.256 48H4.8C3.52696 48 2.30606 47.4943 1.40589 46.5941C0.505713 45.6939 0 44.473 0 43.2V19.2C0 17.927 0.505713 16.7061 1.40589 15.8059C2.30606 14.9057 3.52696 14.4 4.8 14.4H33.6C34.873 14.4 36.0939 14.9057 36.9941 15.8059C37.8943 16.7061 38.4 17.927 38.4 19.2V35.0544ZM38.4 41.6592V43.2C38.4 44.473 37.8943 45.6939 36.9941 46.5941C36.0939 47.4943 34.873 48 33.6 48H20.4288L27.8136 35.6304C28.0027 35.3056 28.2654 35.0298 28.5806 34.8252C28.8957 34.6205 29.2546 34.4927 29.6282 34.4521C30.0018 34.4115 30.3797 34.4591 30.7315 34.5913C31.0833 34.7234 31.3991 34.9363 31.6536 35.2128L38.4 41.6592ZM14.4 36C16.3096 36 18.1409 35.2414 19.4912 33.8912C20.8414 32.5409 21.6 30.7096 21.6 28.8C21.6 26.8904 20.8414 25.0591 19.4912 23.7088C18.1409 22.3586 16.3096 21.6 14.4 21.6C12.4904 21.6 10.6591 22.3586 9.30883 23.7088C7.95857 25.0591 7.2 26.8904 7.2 28.8C7.2 30.7096 7.95857 32.5409 9.30883 33.8912C10.6591 35.2414 12.4904 36 14.4 36ZM9.6 12V4.8C9.6 3.52696 10.1057 2.30606 11.0059 1.40589C11.9061 0.505713 13.127 0 14.4 0L43.2 0C44.473 0 45.6939 0.505713 46.5941 1.40589C47.4943 2.30606 48 3.52696 48 4.8V21.024L44.7864 17.5656C43.6043 16.279 41.9947 15.466 40.2576 15.2784C39.3792 13.3368 37.536 12 35.4 12H30.792C30.2962 10.5947 29.3766 9.37784 28.1602 8.5171C26.9437 7.65635 25.4902 7.19412 24 7.19412C22.5098 7.19412 21.0563 7.65635 19.8398 8.5171C18.6234 9.37784 17.7038 10.5947 17.208 12H9.6ZM40.8 33.6V20.4288C40.9665 20.5375 41.1189 20.6665 41.2536 20.8128L48 27.9864V28.8C48 30.073 47.4943 31.2939 46.5941 32.1941C45.6939 33.0943 44.473 33.6 43.2 33.6H40.8Z" fill="#52616B"/>
</svg>
