<svg width="48" height="48" viewBox="0 0 48 48" fill="none" xmlns="http://www.w3.org/2000/svg">
<path d="M45 15H3C1.34316 15 0 13.6568 0 12V6C0 4.34316 1.34316 3 3 3H45C46.6568 3 48 4.34316 48 6V12C48 13.6568 46.6568 15 45 15ZM40.5 6.75C39.2573 6.75 38.25 7.75734 38.25 9C38.25 10.2427 39.2573 11.25 40.5 11.25C41.7427 11.25 42.75 10.2427 42.75 9C42.75 7.75734 41.7427 6.75 40.5 6.75ZM34.5 6.75C33.2573 6.75 32.25 7.75734 32.25 9C32.25 10.2427 33.2573 11.25 34.5 11.25C35.7427 11.25 36.75 10.2427 36.75 9C36.75 7.75734 35.7427 6.75 34.5 6.75ZM45 30H3C1.34316 30 0 28.6568 0 27V21C0 19.3432 1.34316 18 3 18H45C46.6568 18 48 19.3432 48 21V27C48 28.6568 46.6568 30 45 30ZM40.5 21.75C39.2573 21.75 38.25 22.7573 38.25 24C38.25 25.2427 39.2573 26.25 40.5 26.25C41.7427 26.25 42.75 25.2427 42.75 24C42.75 22.7573 41.7427 21.75 40.5 21.75ZM34.5 21.75C33.2573 21.75 32.25 22.7573 32.25 24C32.25 25.2427 33.2573 26.25 34.5 26.25C35.7427 26.25 36.75 25.2427 36.75 24C36.75 22.7573 35.7427 21.75 34.5 21.75ZM45 45H3C1.34316 45 0 43.6568 0 42V36C0 34.3432 1.34316 33 3 33H45C46.6568 33 48 34.3432 48 36V42C48 43.6568 46.6568 45 45 45ZM40.5 36.75C39.2573 36.75 38.25 37.7573 38.25 39C38.25 40.2427 39.2573 41.25 40.5 41.25C41.7427 41.25 42.75 40.2427 42.75 39C42.75 37.7573 41.7427 36.75 40.5 36.75ZM34.5 36.75C33.2573 36.75 32.25 37.7573 32.25 39C32.25 40.2427 33.2573 41.25 34.5 41.25C35.7427 41.25 36.75 40.2427 36.75 39C36.75 37.7573 35.7427 36.75 34.5 36.75Z" fill="#52616B"/>
</svg>
