<svg width="48" height="45" viewBox="0 0 48 45" fill="none" xmlns="http://www.w3.org/2000/svg">
<path d="M24.9431 18.0027L39 23.023V43.5027C39 43.9005 38.842 44.282 38.5607 44.5633C38.2794 44.8446 37.8978 45.0027 37.5 45.0027H31.5C31.1022 45.0027 30.7206 44.8446 30.4393 44.5633C30.158 44.282 30 43.9005 30 43.5027V33.0027H15V43.5027C15 43.9005 14.842 44.282 14.5607 44.5633C14.2794 44.8446 13.8978 45.0027 13.5 45.0027H7.5C7.10218 45.0027 6.72064 44.8446 6.43934 44.5633C6.15804 44.282 6 43.9005 6 43.5027V23.4486C2.51625 22.2064 0 18.9083 0 15.0027C0 14.207 0.31607 13.444 0.878679 12.8814C1.44129 12.3188 2.20435 12.0027 3 12.0027C3.79565 12.0027 4.55871 12.3188 5.12132 12.8814C5.68393 13.444 6 14.207 6 15.0027C6.00149 15.7979 6.31804 16.5601 6.88032 17.1224C7.44261 17.6846 8.20481 18.0012 9 18.0027H24.9431ZM48 7.50268V10.5027C48 12.094 47.3679 13.6201 46.2426 14.7453C45.1174 15.8705 43.5913 16.5027 42 16.5027H39V19.8383L27 15.553V1.50268C27 0.166742 28.6144 -0.502633 29.5603 0.442367L32.1178 3.00268H37.1456C38.1684 3.00268 39.3722 3.74518 39.8288 4.66112L40.5 6.00268H46.5C46.8978 6.00268 47.2794 6.16072 47.5607 6.44202C47.842 6.72332 48 7.10485 48 7.50268ZM37.5 7.50268C37.5 7.20601 37.412 6.916 37.2472 6.66932C37.0824 6.42265 36.8481 6.23039 36.574 6.11686C36.2999 6.00333 35.9983 5.97362 35.7074 6.0315C35.4164 6.08938 35.1491 6.23224 34.9393 6.44202C34.7296 6.6518 34.5867 6.91907 34.5288 7.21004C34.4709 7.50102 34.5007 7.80262 34.6142 8.0767C34.7277 8.35079 34.92 8.58506 35.1666 8.74988C35.4133 8.91471 35.7033 9.00268 36 9.00268C36.3978 9.00268 36.7794 8.84464 37.0607 8.56334C37.342 8.28203 37.5 7.9005 37.5 7.50268Z" fill="#52616B"/>
</svg>
