<svg width="48" height="41" viewBox="0 0 48 41" fill="none" xmlns="http://www.w3.org/2000/svg">
<path d="M8.30769 0.000358157C8.66675 0.000543142 9.01796 0.105428 9.31832 0.30217C9.61868 0.498911 9.85515 0.778969 9.99877 1.10805L16.4603 15.8773C16.5662 16.1007 16.6261 16.3431 16.6364 16.5901C16.6468 16.8371 16.6075 17.0836 16.5208 17.3152C16.4341 17.5467 16.3018 17.7584 16.1318 17.9378C15.9617 18.1172 15.7573 18.2607 15.5307 18.3596C15.3042 18.4585 15.0601 18.511 14.8129 18.5138C14.5657 18.5166 14.3204 18.4697 14.0917 18.3759C13.8629 18.2822 13.6554 18.1434 13.4813 17.9679C13.3072 17.7924 13.1701 17.5837 13.0782 17.3542L11.9465 14.7696H4.67077L3.53908 17.3542C3.33364 17.7878 2.96747 18.1244 2.51813 18.2927C2.0688 18.4609 1.5716 18.4477 1.13189 18.2556C0.692177 18.0636 0.344494 17.708 0.162502 17.264C-0.0194894 16.8201 -0.0214903 16.3227 0.156923 15.8773L6.61846 1.10805C6.76196 0.779256 6.99814 0.499394 7.29814 0.302674C7.59814 0.105955 7.94895 0.000901883 8.30769 0.000358157ZM10.3311 11.0773L8.30769 6.45267L6.28431 11.0773H10.3311ZM1.84615 25.8465C1.35652 25.8465 0.886947 26.041 0.540726 26.3872C0.194505 26.7335 0 27.203 0 27.6927C0 28.1823 0.194505 28.6519 0.540726 28.9981C0.886947 29.3443 1.35652 29.5388 1.84615 29.5388H46.1538C46.6435 29.5388 47.1131 29.3443 47.4593 28.9981C47.8055 28.6519 48 28.1823 48 27.6927C48 27.203 47.8055 26.7335 47.4593 26.3872C47.1131 26.041 46.6435 25.8465 46.1538 25.8465H1.84615ZM1.84615 36.9234C1.35652 36.9234 0.886947 37.1179 0.540726 37.4642C0.194505 37.8104 0 38.28 0 38.7696C0 39.2592 0.194505 39.7288 0.540726 40.075C0.886947 40.4212 1.35652 40.6157 1.84615 40.6157H46.1538C46.6435 40.6157 47.1131 40.4212 47.4593 40.075C47.8055 39.7288 48 39.2592 48 38.7696C48 38.28 47.8055 37.8104 47.4593 37.4642C47.1131 37.1179 46.6435 36.9234 46.1538 36.9234H1.84615ZM18.4615 1.84651C18.4615 1.35688 18.656 0.887306 19.0023 0.541085C19.3485 0.194863 19.8181 0.000358157 20.3077 0.000358157H24.9231C25.9372 0.000175682 26.9319 0.278431 27.7987 0.804785C28.6655 1.33114 29.3712 2.08538 29.8387 2.98527C30.3063 3.88516 30.5178 4.89616 30.4502 5.90801C30.3826 6.91987 30.0385 7.89374 29.4554 8.72344C30.313 9.46062 30.9243 10.4427 31.2073 11.5376C31.4903 12.6325 31.4313 13.7877 31.0383 14.8481C30.6453 15.9085 29.9371 16.8232 29.0089 17.4692C28.0807 18.1153 26.977 18.4617 25.8462 18.4619H20.3077C19.8181 18.4619 19.3485 18.2674 19.0023 17.9212C18.656 17.5749 18.4615 17.1054 18.4615 16.6157V1.84651ZM22.1538 11.0773V14.7696H25.8462C26.3358 14.7696 26.8054 14.5751 27.1516 14.2289C27.4978 13.8826 27.6923 13.4131 27.6923 12.9234C27.6923 12.4338 27.4978 11.9642 27.1516 11.618C26.8054 11.2718 26.3358 11.0773 25.8462 11.0773H22.1538ZM22.1538 7.38497H24.9231C25.4127 7.38497 25.8823 7.19047 26.2285 6.84425C26.5747 6.49803 26.7692 6.02845 26.7692 5.53882C26.7692 5.04919 26.5747 4.57961 26.2285 4.23339C25.8823 3.88717 25.4127 3.69267 24.9231 3.69267H22.1538V7.38497ZM36.9231 9.23113C36.9231 7.06005 37.4658 5.66805 38.1231 4.8539C38.4137 4.4825 38.787 4.1841 39.2132 3.98249C39.6395 3.78089 40.107 3.68164 40.5785 3.69267C41.7969 3.69267 42.8492 4.28344 43.5397 5.86744C43.6358 6.0909 43.7752 6.29315 43.9497 6.46259C44.1243 6.63202 44.3306 6.76529 44.5568 6.85473C44.783 6.94417 45.0247 6.98802 45.2679 6.98376C45.5111 6.9795 45.7511 6.92722 45.9741 6.82991C46.197 6.73261 46.3985 6.5922 46.567 6.41676C46.7355 6.24132 46.8677 6.03431 46.956 5.80762C47.0442 5.58093 47.0868 5.33904 47.0813 5.09584C47.0757 4.85265 47.0222 4.61295 46.9237 4.39051C45.7052 1.59913 43.4105 0.000358157 40.5766 0.000358157C39.5551 -0.0101878 38.5447 0.212288 37.6221 0.650873C36.6995 1.08946 35.889 1.73261 35.2523 2.53143C33.9194 4.18005 33.2308 6.48036 33.2308 9.23113C33.2308 11.9819 33.9194 14.2822 35.2523 15.9308C35.8891 16.73 36.6999 17.3734 37.6228 17.812C38.5458 18.2506 39.5566 18.4729 40.5785 18.4619C43.4123 18.4619 45.7071 16.8631 46.9255 14.0717C47.024 13.8493 47.0776 13.6096 47.0831 13.3664C47.0886 13.1232 47.0461 12.8813 46.9578 12.6546C46.8696 12.4279 46.7374 12.2209 46.5689 12.0455C46.4004 11.8701 46.1988 11.7297 45.9759 11.6323C45.7529 11.535 45.513 11.4828 45.2697 11.4785C45.0265 11.4742 44.7849 11.5181 44.5586 11.6075C44.3324 11.697 44.1261 11.8302 43.9516 11.9997C43.777 12.1691 43.6377 12.3714 43.5415 12.5948C42.8492 14.1807 41.7969 14.7696 40.5785 14.7696C40.1073 14.7803 39.6402 14.6809 39.2143 14.4793C38.7883 14.2777 38.4153 13.9795 38.1249 13.6084C37.4677 12.7961 36.9231 11.4022 36.9231 9.23113Z" fill="#52616B"/>
</svg>
