<svg width="48" height="56" viewBox="0 0 48 56" fill="none" xmlns="http://www.w3.org/2000/svg">
<path fill-rule="evenodd" clip-rule="evenodd" d="M24 0C24.5304 0 25.0391 0.210714 25.4142 0.585786C25.7893 0.960859 26 1.46957 26 2V8C26 8.53043 25.7893 9.03914 25.4142 9.41421C25.0391 9.78929 24.5304 10 24 10C23.4696 10 22.9609 9.78929 22.5858 9.41421C22.2107 9.03914 22 8.53043 22 8V2C22 1.46957 22.2107 0.960859 22.5858 0.585786C22.9609 0.210714 23.4696 0 24 0ZM7.02933 7.02933C7.40434 6.6548 7.91266 6.44443 8.44267 6.44443C8.97267 6.44443 9.481 6.6548 9.856 7.02933L14.1013 11.272C14.4655 11.6494 14.6668 12.1547 14.662 12.6791C14.6572 13.2035 14.4467 13.705 14.0757 14.0756C13.7047 14.4463 13.2029 14.6564 12.6785 14.6607C12.1541 14.665 11.649 14.4632 11.272 14.0987L7.02933 9.85867C6.84348 9.67293 6.69605 9.4524 6.59546 9.20966C6.49487 8.96693 6.44309 8.70675 6.44309 8.444C6.44309 8.18125 6.49487 7.92107 6.59546 7.67834C6.69605 7.4356 6.84348 7.21507 7.02933 7.02933ZM40.9707 7.02933C41.3452 7.40433 41.5556 7.91266 41.5556 8.44267C41.5556 8.97267 41.3452 9.481 40.9707 9.856L36.728 14.1013C36.3506 14.4655 35.8453 14.6668 35.3209 14.662C34.7965 14.6572 34.295 14.4466 33.9244 14.0757C33.5537 13.7047 33.3436 13.2029 33.3393 12.6785C33.335 12.1541 33.5368 11.649 33.9013 11.272L38.1413 7.02933C38.3271 6.84348 38.5476 6.69605 38.7903 6.59546C39.0331 6.49487 39.2933 6.44309 39.556 6.44309C39.8188 6.44309 40.0789 6.49487 40.3217 6.59546C40.5644 6.69605 40.7849 6.84348 40.9707 7.02933ZM22.7947 19.0187C23.2001 18.91 23.6294 18.9316 24.0219 19.0804C24.4143 19.2293 24.75 19.4978 24.9813 19.848L38.9227 40.96C39.1408 41.2902 39.2561 41.6778 39.2539 42.0736C39.2517 42.4694 39.1321 42.8556 38.9102 43.1834C38.6884 43.5112 38.3742 43.7658 38.0076 43.915C37.641 44.0641 37.2383 44.1011 36.8507 44.0213L31.2587 42.8747L34.0453 53.2747C34.1825 53.7874 34.1104 54.3337 33.8449 54.7933C33.5793 55.2528 33.1421 55.5881 32.6293 55.7253C32.1166 55.8625 31.5703 55.7904 31.1107 55.5249C30.6511 55.2593 30.3159 54.8221 30.1787 54.3093L27.3947 43.912L23.1253 47.6987C22.8295 47.9618 22.4621 48.1311 22.0699 48.1853C21.6777 48.2395 21.2782 48.176 20.9221 48.0029C20.566 47.8299 20.2693 47.555 20.0695 47.2132C19.8698 46.8713 19.776 46.4779 19.8 46.0827L21.3173 20.8293C21.3421 20.4103 21.4981 20.0096 21.7633 19.6842C22.0284 19.3587 22.3893 19.125 22.7947 19.016V19.0187ZM0 24C0 23.4696 0.210713 22.9609 0.585786 22.5858C0.960859 22.2107 1.46957 22 2 22H8C8.53043 22 9.03914 22.2107 9.41421 22.5858C9.78929 22.9609 10 23.4696 10 24C10 24.5304 9.78929 25.0391 9.41421 25.4142C9.03914 25.7893 8.53043 26 8 26H2C1.46957 26 0.960859 25.7893 0.585786 25.4142C0.210713 25.0391 0 24.5304 0 24ZM38 24C38 23.4696 38.2107 22.9609 38.5858 22.5858C38.9609 22.2107 39.4696 22 40 22H46C46.5304 22 47.0391 22.2107 47.4142 22.5858C47.7893 22.9609 48 23.4696 48 24C48 24.5304 47.7893 25.0391 47.4142 25.4142C47.0391 25.7893 46.5304 26 46 26H40C39.4696 26 38.9609 25.7893 38.5858 25.4142C38.2107 25.0391 38 24.5304 38 24ZM14.1013 33.8987C14.2872 34.0844 14.4346 34.3049 14.5352 34.5477C14.6358 34.7904 14.6876 35.0506 14.6876 35.3133C14.6876 35.5761 14.6358 35.8363 14.5352 36.079C14.4346 36.3217 14.2872 36.5423 14.1013 36.728L9.85867 40.9707C9.67426 41.1618 9.45365 41.3142 9.20969 41.4192C8.96573 41.5241 8.70332 41.5794 8.43776 41.5818C8.1722 41.5843 7.90882 41.5338 7.66298 41.4333C7.41714 41.3329 7.19377 41.1845 7.0059 40.9968C6.81802 40.8091 6.66941 40.5859 6.56874 40.3401C6.46806 40.0944 6.41733 39.831 6.41951 39.5655C6.42169 39.2999 6.47674 39.0375 6.58144 38.7934C6.68614 38.5493 6.8384 38.3286 7.02933 38.144L11.272 33.8987C11.647 33.5241 12.1553 33.3138 12.6853 33.3138C13.2153 33.3138 13.7237 33.5241 14.0987 33.8987H14.1013Z" fill="#52616B"/>
</svg>
