<svg width="48" height="48" viewBox="0 0 48 48" fill="none" xmlns="http://www.w3.org/2000/svg">
<g clip-path="url(#clip0_364_118)">
<path d="M24 22.6668C25.9678 22.6694 27.8922 22.0883 29.5297 20.9969C31.1672 19.9056 32.4441 18.3531 33.199 16.5358C33.9539 14.7185 34.1528 12.7181 33.7705 10.7878C33.3882 8.85745 32.4419 7.08387 31.0514 5.69147C29.6609 4.29907 27.8886 3.35042 25.9587 2.96554C24.0289 2.58067 22.0283 2.77686 20.21 3.52931C18.3917 4.28176 16.8375 5.55664 15.7439 7.19265C14.6504 8.82865 14.0667 10.7523 14.0667 12.7201C14.0667 15.3558 15.1128 17.8838 16.9753 19.7487C18.8377 21.6137 21.3643 22.6632 24 22.6668ZM24 5.42677C25.441 5.42413 26.8503 5.84919 28.0496 6.64811C29.2488 7.44703 30.184 8.58388 30.7366 9.91467C31.2893 11.2455 31.4346 12.7103 31.1541 14.1237C30.8736 15.5372 30.18 16.8356 29.1611 17.8545C28.1421 18.8734 26.8437 19.567 25.4303 19.8475C24.0169 20.128 22.552 19.9827 21.2212 19.43C19.8904 18.8774 18.7536 17.9422 17.9547 16.743C17.1558 15.5438 16.7307 14.1344 16.7333 12.6934C16.7369 10.7673 17.5036 8.92102 18.8656 7.55902C20.2276 6.19702 22.0738 5.43029 24 5.42677Z" fill="#52616B"/>
<path d="M7.99999 42.52V34.36C10.0585 32.1996 12.5441 30.4911 15.2986 29.3434C18.0532 28.1957 21.0165 27.6337 24 27.6933C28.0835 27.6383 32.1027 28.7135 35.6133 30.8L37.4133 28.7867C33.3997 26.2586 28.7432 24.9395 24 24.9867C20.5296 24.8982 17.0824 25.5765 13.9043 26.9732C10.7261 28.3698 7.89516 30.4504 5.61333 33.0667C5.43546 33.2958 5.33716 33.5766 5.33333 33.8667V42.52C5.31539 43.2463 5.58592 43.9501 6.0857 44.4773C6.58548 45.0046 7.2738 45.3124 7.99999 45.3333H24.52L21.9867 42.6667L7.99999 42.52Z" fill="#52616B"/>
<path d="M40 42.5198V42.6664H35.8L33.4 45.3331H40C40.7168 45.3122 41.397 45.0118 41.8953 44.4961C42.3936 43.9804 42.6704 43.2902 42.6667 42.5731V34.9331L40 37.9064V42.5198Z" fill="#52616B"/>
<path d="M46.3467 24.8267C46.083 24.592 45.737 24.4714 45.3846 24.4914C45.0322 24.5114 44.7021 24.6703 44.4667 24.9333L28.9733 42.2667L22.04 34.8133C21.9262 34.6803 21.7873 34.5709 21.6312 34.4915C21.4751 34.4121 21.3049 34.3642 21.1304 34.3506C20.9558 34.337 20.7802 34.3579 20.6137 34.4121C20.4472 34.4664 20.2931 34.5528 20.16 34.6667C20.0296 34.7853 19.9241 34.9285 19.8494 35.0881C19.7748 35.2478 19.7325 35.4206 19.7251 35.5967C19.7177 35.7727 19.7452 35.9485 19.8061 36.1139C19.867 36.2792 19.9601 36.4308 20.08 36.56L29 46.16L46.4533 26.6667C46.6759 26.4052 46.789 26.068 46.7691 25.7253C46.7492 25.3825 46.5979 25.0606 46.3467 24.8267Z" fill="#52616B"/>
</g>
<defs>
<clipPath id="clip0_364_118">
<rect width="48" height="48" fill="white"/>
</clipPath>
</defs>
</svg>
