<svg width="48" height="48" viewBox="0 0 48 48" fill="none" xmlns="http://www.w3.org/2000/svg">
<path d="M41.2886 0H6.71141C4.93296 0.00495887 3.22876 0.713644 1.9712 1.9712C0.713644 3.22876 0.00495887 4.93296 0 6.71141V41.2886C0.00495887 43.067 0.713644 44.7712 1.9712 46.0288C3.22876 47.2864 4.93296 47.995 6.71141 48H41.2886C43.0655 47.9901 44.7669 47.2799 46.0234 46.0234C47.2799 44.7669 47.9901 43.0655 48 41.2886V6.71141C47.9901 4.93448 47.2799 3.23313 46.0234 1.97663C44.7669 0.72013 43.0655 0.00986816 41.2886 0ZM15.1678 45.3154H6.71141C5.64342 45.3154 4.61918 44.8912 3.864 44.136C3.10882 43.3808 2.68456 42.3566 2.68456 41.2886V32.9396H15.1678V45.3154ZM15.1678 30.255H2.68456V17.745H15.1678V30.255ZM15.1678 15.0604H2.68456V6.71141C2.68456 5.64342 3.10882 4.61918 3.864 3.864C4.61918 3.10882 5.64342 2.68456 6.71141 2.68456H15.1678V15.0604ZM45.3154 41.2886C45.3077 42.3542 44.881 43.3739 44.1275 44.1275C43.3739 44.881 42.3542 45.3077 41.2886 45.3154H17.8523V32.9396H45.3154V41.2886ZM45.3154 30.255H17.8523V17.745H45.3154V30.255ZM45.3154 15.0604H17.8523V2.68456H41.2886C42.3542 2.69229 43.3739 3.11903 44.1275 3.87254C44.881 4.62605 45.3077 5.64581 45.3154 6.71141V15.0604Z" fill="#52616B"/>
</svg>
