<svg width="48" height="48" viewBox="0 0 48 48" fill="none" xmlns="http://www.w3.org/2000/svg">
<g clip-path="url(#clip0_395_178)">
<path d="M40.8 26.4V33.6L33.6 26.4H19.2C17.927 26.4 16.7061 25.8943 15.8059 24.9941C14.9057 24.0939 14.4 22.873 14.4 21.6V4.8C14.4 2.16 16.56 0 19.2 0H43.2C44.473 0 45.6939 0.505713 46.5941 1.40589C47.4943 2.30606 48 3.52696 48 4.8V21.6C48 22.873 47.4943 24.0939 46.5941 24.9941C45.6939 25.8943 44.473 26.4 43.2 26.4H40.8ZM33.6 31.2V36C33.6 37.273 33.0943 38.4939 32.1941 39.3941C31.2939 40.2943 30.073 40.8 28.8 40.8H14.4L7.2 48V40.8H4.8C3.52696 40.8 2.30606 40.2943 1.40589 39.3941C0.505713 38.4939 0 37.273 0 36V19.2C0 16.56 2.16 14.4 4.8 14.4H9.6V21.6C9.6 24.1461 10.6114 26.5879 12.4118 28.3882C14.2121 30.1886 16.6539 31.2 19.2 31.2H33.6Z" fill="#52616B"/>
</g>
<defs>
<clipPath id="clip0_395_178">
<rect width="48" height="48" fill="white"/>
</clipPath>
</defs>
</svg>
