<svg width="48" height="48" viewBox="0 0 48 48" fill="none" xmlns="http://www.w3.org/2000/svg">
<g clip-path="url(#clip0_137_22)">
<path d="M0 5.25C0 2.352 2.352 0 5.25 0H42.75C45.648 0 48 2.352 48 5.25V42.75C48 44.1424 47.4469 45.4777 46.4623 46.4623C45.4777 47.4469 44.1424 48 42.75 48H5.25C3.85761 48 2.52226 47.4469 1.53769 46.4623C0.553123 45.4777 0 44.1424 0 42.75L0 5.25ZM5.25 4.5C5.05109 4.5 4.86032 4.57902 4.71967 4.71967C4.57902 4.86032 4.5 5.05109 4.5 5.25V42.75C4.5 43.164 4.836 43.5 5.25 43.5H42.75C42.9489 43.5 43.1397 43.421 43.2803 43.2803C43.421 43.1397 43.5 42.9489 43.5 42.75V5.25C43.5 5.05109 43.421 4.86032 43.2803 4.71967C43.1397 4.57902 42.9489 4.5 42.75 4.5H5.25ZM11.25 12C11.25 11.4033 11.4871 10.831 11.909 10.409C12.331 9.98705 12.9033 9.75 13.5 9.75H34.5C35.0967 9.75 35.669 9.98705 36.091 10.409C36.5129 10.831 36.75 11.4033 36.75 12C36.75 12.5967 36.5129 13.169 36.091 13.591C35.669 14.0129 35.0967 14.25 34.5 14.25H26.25V36C26.25 36.5967 26.0129 37.169 25.591 37.591C25.169 38.0129 24.5967 38.25 24 38.25C23.4033 38.25 22.831 38.0129 22.409 37.591C21.9871 37.169 21.75 36.5967 21.75 36V14.25H13.5C12.9033 14.25 12.331 14.0129 11.909 13.591C11.4871 13.169 11.25 12.5967 11.25 12Z" fill="#52616B"/>
</g>
<defs>
<clipPath id="clip0_137_22">
<rect width="48" height="48" fill="white"/>
</clipPath>
</defs>
</svg>
