<svg width="32" height="32" viewBox="0 0 32 32" fill="none" xmlns="http://www.w3.org/2000/svg">
<rect width="32" height="32" rx="16" fill="url(#paint0_linear_58_1212)"/>
<path fill-rule="evenodd" clip-rule="evenodd" d="M7.24285 15.7991C11.9072 13.7669 15.0175 12.4272 16.5737 11.7799C21.0171 9.93173 21.9404 9.61069 22.5421 9.60009C22.6745 9.59776 22.9704 9.63056 23.1621 9.78611C23.324 9.91745 23.3685 10.0949 23.3899 10.2194C23.4112 10.3439 23.4377 10.6276 23.4166 10.8493C23.1758 13.3793 22.1339 19.5188 21.6039 22.3525C21.3796 23.5515 20.938 23.9535 20.5104 23.9928C19.5813 24.0783 18.8757 23.3788 17.9758 22.7889C16.5676 21.8658 15.7721 21.2911 14.4051 20.3904C12.8254 19.3494 13.8495 18.7772 14.7498 17.8422C14.9854 17.5975 19.0792 13.8738 19.1585 13.536C19.1684 13.4937 19.1776 13.3363 19.084 13.2531C18.9905 13.17 18.8524 13.1984 18.7527 13.221C18.6115 13.2531 16.3619 14.74 12.0038 17.6818C11.3653 18.1203 10.7869 18.3339 10.2687 18.3227C9.69743 18.3104 8.59851 17.9997 7.78158 17.7341C6.77957 17.4084 5.9832 17.2362 6.05255 16.6831C6.08867 16.3949 6.48544 16.1003 7.24285 15.7991Z" fill="white"/>
<defs>
<linearGradient id="paint0_linear_58_1212" x1="16" y1="0" x2="16" y2="31.7627" gradientUnits="userSpaceOnUse">
<stop stop-color="#2AABEE"/>
<stop offset="1" stop-color="#229ED9"/>
</linearGradient>
</defs>
</svg>
