<svg width="48" height="48" viewBox="0 0 48 48" fill="none" xmlns="http://www.w3.org/2000/svg">
<path d="M7.2118 1.72589C8.82471 1.15049 10.5678 1.04473 12.2385 1.42091C13.9091 1.79709 15.4387 2.63975 16.6493 3.85092C17.8599 5.06209 18.7019 6.59202 19.0773 8.26283C19.4527 9.93364 19.3462 11.6767 18.7701 13.2894L46.8 41.3193L41.3155 46.8012L13.2856 18.7739C11.6727 19.3493 9.92957 19.455 8.25893 19.0788C6.58828 18.7027 5.05873 17.86 3.8481 16.6488C2.63747 15.4377 1.7955 13.9077 1.42007 12.2369C1.04464 10.5661 1.15117 8.82304 1.72729 7.21039L7.50644 12.9921C7.86407 13.3624 8.29186 13.6578 8.76486 13.8609C9.23786 14.0641 9.74658 14.1711 10.2614 14.1755C10.7761 14.18 11.2866 14.0819 11.7631 13.887C12.2395 13.6921 12.6724 13.4042 13.0364 13.0402C13.4004 12.6762 13.6883 12.2433 13.8832 11.7668C14.0782 11.2904 14.1763 10.7799 14.1718 10.2651C14.1673 9.75035 14.0604 9.24162 13.8572 8.76863C13.654 8.29563 13.3586 7.86783 12.9884 7.5102L7.20921 1.7233L7.2118 1.72589ZM34.0063 6.59526L42.2304 2.0257L45.885 5.68031L41.3155 13.9045L36.7459 14.8194L31.2666 20.3014L27.6094 16.6467L33.0913 11.1648L34.0063 6.59526ZM15.7306 26.6982L21.2125 32.1827L8.4188 44.9765C7.7133 45.6753 6.76652 46.0769 5.77368 46.0982C4.78085 46.1196 3.81767 45.7591 3.08279 45.0912C2.34791 44.4233 1.89735 43.4988 1.82404 42.5084C1.75072 41.5181 2.06024 40.5374 2.68876 39.7685L2.93947 39.4919L15.7332 26.6982H15.7306Z" fill="#52616B"/>
</svg>
