<svg width="48" height="48" viewBox="0 0 48 48" fill="none" xmlns="http://www.w3.org/2000/svg">
<path d="M13.335 15.2735C13.1213 17.5535 12.9713 21.5885 14.3175 23.306C14.3175 23.306 13.6838 18.8735 19.365 13.3122C21.6525 11.0735 22.1813 8.02847 21.3825 5.74472C20.9288 4.45097 20.1 3.38222 19.38 2.63597C18.96 2.19722 19.2825 1.47347 19.8938 1.49972C23.5913 1.66472 29.5837 2.69222 32.13 9.08222C33.2475 11.8872 33.33 14.786 32.7975 17.7335C32.46 19.616 31.26 23.801 33.9975 24.3147C35.9513 24.6822 36.8962 23.1297 37.32 22.0122C37.4962 21.5472 38.1075 21.431 38.4375 21.8022C41.7375 25.556 42.0188 29.9772 41.3363 33.7835C40.0163 41.141 32.565 46.496 25.1625 46.496C15.915 46.496 8.55375 41.2047 6.645 31.6272C5.87625 27.761 6.26625 20.111 12.2288 14.711C12.6713 14.306 13.395 14.666 13.335 15.2735Z" fill="url(#paint0_radial_364_228)"/>
<path d="M28.5412 29.0329C25.1325 24.6454 26.6587 19.6392 27.495 17.6442C27.6075 17.3817 27.3075 17.1342 27.0712 17.2954C25.605 18.2929 22.6012 20.6404 21.2025 23.9442C19.3087 28.4104 19.4437 30.5967 20.565 33.2667C21.24 34.8754 20.4562 35.2167 20.0625 35.2767C19.68 35.3367 19.3275 35.0817 19.0462 34.8154C18.2371 34.0386 17.6606 33.0517 17.3812 31.9654C17.3212 31.7329 17.0175 31.6692 16.8787 31.8604C15.8287 33.3117 15.285 35.6404 15.2587 37.2867C15.1762 42.3754 19.38 46.5004 24.465 46.5004C30.8737 46.5004 35.5425 39.4129 31.86 33.4879C30.7912 31.7629 29.7862 30.6342 28.5412 29.0329Z" fill="url(#paint1_radial_364_228)"/>
<defs>
<radialGradient id="paint0_radial_364_228" cx="0" cy="0" r="1" gradientUnits="userSpaceOnUse" gradientTransform="translate(23.3309 46.6126) rotate(-179.751) scale(26.4704 43.4326)">
<stop offset="0.314" stop-color="#FF9800"/>
<stop offset="0.662" stop-color="#FF6D00"/>
<stop offset="0.972" stop-color="#F44336"/>
</radialGradient>
<radialGradient id="paint1_radial_364_228" cx="0" cy="0" r="1" gradientUnits="userSpaceOnUse" gradientTransform="translate(24.8175 20.2723) rotate(90.5787) scale(27.6961 20.8434)">
<stop offset="0.214" stop-color="#FFF176"/>
<stop offset="0.328" stop-color="#FFF27D"/>
<stop offset="0.487" stop-color="#FFF48F"/>
<stop offset="0.672" stop-color="#FFF7AD"/>
<stop offset="0.793" stop-color="#FFF9C4"/>
<stop offset="0.822" stop-color="#FFF8BD" stop-opacity="0.804"/>
<stop offset="0.863" stop-color="#FFF6AB" stop-opacity="0.529"/>
<stop offset="0.91" stop-color="#FFF38D" stop-opacity="0.209"/>
<stop offset="0.941" stop-color="#FFF176" stop-opacity="0"/>
</radialGradient>
</defs>
</svg>
