<svg width="48" height="48" viewBox="0 0 48 48" fill="none" xmlns="http://www.w3.org/2000/svg">
<path d="M13.6471 37.4833C13.7157 40.0349 13.9722 40.6784 17.1646 40.9077V42.8513H5.78006V40.9077C8.97244 40.6784 9.32306 40.0349 9.39169 37.4833L9.38962 21.6105C4.06987 21.4305 3.19275 22.5574 2.38744 26.2204H0C0.46275 24.1227 0.921 22.1207 0.921 19.246H22.1156C22.1156 22.1208 22.3471 24.1227 22.8098 26.2204H20.4703C19.665 22.5574 18.9667 21.4305 13.647 21.6104V37.4832M35.9169 37.0001C35.995 39.0445 36.9684 40.3353 40.6047 40.5189V42.8513H26.4697V40.5189C30.1058 40.3352 30.9919 39.0444 31.07 37L31.0676 8.28591C24.2243 8.12298 22.3431 8.90138 21.7607 13.5369H18.9847C19.5792 11.1474 19.4872 8.42373 19.4872 5.14941H47.1082C47.1082 8.42382 47.4054 11.1475 48 13.5368H44.9944C43.9597 9.36451 41.9764 8.08088 35.917 8.28582V37" fill="#52616B"/>
</svg>
