<svg width="48" height="48" viewBox="0 0 48 48" fill="none" xmlns="http://www.w3.org/2000/svg">
<path d="M24 36C27.3 36 30 38.7 30 42C30 45.3 27.3 48 24 48C20.7 48 18 45.3 18 42C18 38.7 20.7 36 24 36ZM24 18C27.3 18 30 20.7 30 24C30 27.3 27.3 30 24 30C20.7 30 18 27.3 18 24C18 20.7 20.7 18 24 18ZM24 0C27.3 0 30 2.7 30 6C30 9.3 27.3 12 24 12C20.7 12 18 9.3 18 6C18 2.7 20.7 0 24 0ZM6 36C9.3 36 12 38.7 12 42C12 45.3 9.3 48 6 48C2.7 48 0 45.3 0 42C0 38.7 2.7 36 6 36ZM6 18C9.3 18 12 20.7 12 24C12 27.3 9.3 30 6 30C2.7 30 0 27.3 0 24C0 20.7 2.7 18 6 18ZM6 0C9.3 0 12 2.7 12 6C12 9.3 9.3 12 6 12C2.7 12 0 9.3 0 6C0 2.7 2.7 0 6 0ZM42 36C45.3 36 48 38.7 48 42C48 45.3 45.3 48 42 48C38.7 48 36 45.3 36 42C36 38.7 38.7 36 42 36ZM42 18C45.3 18 48 20.7 48 24C48 27.3 45.3 30 42 30C38.7 30 36 27.3 36 24C36 20.7 38.7 18 42 18ZM42 0C45.3 0 48 2.7 48 6C48 9.3 45.3 12 42 12C38.7 12 36 9.3 36 6C36 2.7 38.7 0 42 0Z" fill="#52616B"/>
</svg>
