<svg width="48" height="48" viewBox="0 0 48 48" fill="none" xmlns="http://www.w3.org/2000/svg">
<path fill-rule="evenodd" clip-rule="evenodd" d="M23.9928 24C27.9692 24 31.1928 20.7765 31.1928 16.8C31.1928 12.8236 27.9692 9.60005 23.9928 9.60005C20.0163 9.60005 16.7928 12.8236 16.7928 16.8C16.7928 20.7765 20.0163 24 23.9928 24ZM23.9928 28.8C30.6202 28.8 35.9927 23.4275 35.9927 16.8C35.9927 10.1726 30.6202 4.80005 23.9928 4.80005C17.3653 4.80005 11.9928 10.1726 11.9928 16.8C11.9928 23.4275 17.3653 28.8 23.9928 28.8Z" fill="#52616B"/>
<path fill-rule="evenodd" clip-rule="evenodd" d="M40.097 48C38.0317 41.0605 31.6032 36 23.9928 36C16.3823 36 9.95378 41.0605 7.88846 48H2.92799C5.11069 38.3809 13.7131 31.2 23.9928 31.2C34.2724 31.2 42.8748 38.3809 45.0575 48H40.097Z" fill="#52616B"/>
</svg>
