<svg width="48" height="46" viewBox="0 0 48 46" fill="none" xmlns="http://www.w3.org/2000/svg">
<path d="M47.5767 25.1323L44.8887 27.8202L39.3784 22.31L42.0664 19.622C42.3427 19.3511 42.7143 19.1994 43.1012 19.1994C43.4882 19.1994 43.8597 19.3511 44.1361 19.622L47.5767 23.0626C48.1411 23.627 48.1411 24.5678 47.5767 25.1323ZM21.5036 40.1579L37.7925 23.869L43.3028 29.3793L27.0407 45.6951H21.5036V40.1579ZM21.5036 26.8795C9.62285 26.8795 0 31.6909 0 37.6312V43.0071H16.1277V37.9269L26.8795 27.1751C25.1054 26.9601 23.3045 26.8795 21.5036 26.8795ZM21.5036 0C18.652 0 15.9173 1.13277 13.9009 3.14912C11.8846 5.16548 10.7518 7.90023 10.7518 10.7518C10.7518 13.6033 11.8846 16.3381 13.9009 18.3544C15.9173 20.3708 18.652 21.5036 21.5036 21.5036C24.3551 21.5036 27.0899 20.3708 29.1062 18.3544C31.1226 16.3381 32.2554 13.6033 32.2554 10.7518C32.2554 7.90023 31.1226 5.16548 29.1062 3.14912C27.0899 1.13277 24.3551 0 21.5036 0Z" fill="#52616B"/>
</svg>
