<svg width="52" height="52" viewBox="0 0 52 52" fill="none" xmlns="http://www.w3.org/2000/svg">
<path d="M18 10H18.8987C19.5493 10 19.8773 10 20.184 10.0747C20.456 10.1387 20.7173 10.248 20.9573 10.3947C21.224 10.5573 21.456 10.7893 21.9173 11.248L30.0853 19.416C30.544 19.8773 30.7733 20.1093 30.9387 20.376C31.0853 20.616 31.1947 20.8773 31.2587 21.1493C31.3333 21.4533 31.3333 21.776 31.3333 22.4133V42M18 10H6.26667C4.77333 10 4.02667 10 3.456 10.2907C2.95426 10.5463 2.54633 10.9543 2.29067 11.456C2 12.0267 2 12.7733 2 14.2667V45.7333C2 47.2267 2 47.9733 2.29067 48.544C2.54633 49.0457 2.95426 49.4537 3.456 49.7093C4.02667 50 4.77067 50 6.26133 50H27.0693C28.56 50 29.3093 50 29.8773 49.7093C30.3792 49.4538 30.7872 49.0459 31.0427 48.544C31.3333 47.9733 31.3333 47.2267 31.3333 45.7333V42M18 10V19.0667C18 20.56 18 21.3067 18.2907 21.8773C18.5463 22.3791 18.9543 22.787 19.456 23.0427C20.0267 23.3333 20.7707 23.3333 22.2613 23.3333H31.3333M31.3333 42H45.7387C47.2267 42 47.9733 42 48.5467 41.7093C49.0466 41.4531 49.4527 41.0452 49.7067 40.544C50 39.9733 50 39.2267 50 37.7333V14.4133C50 13.776 50 13.4533 49.9253 13.1493C49.8613 12.8773 49.752 12.616 49.6053 12.376C49.44 12.1093 49.2107 11.8773 48.752 11.416L40.584 3.248C40.1227 2.78933 39.8907 2.55733 39.624 2.39467C39.384 2.248 39.1227 2.13867 38.8507 2.07467C38.544 2 38.216 2 37.5653 2H36.6667M20.6667 10V6.26667C20.6667 4.77333 20.6667 4.02667 20.9573 3.456C21.213 2.95426 21.6209 2.54633 22.1227 2.29067C22.6933 2 23.44 2 24.9333 2H36.6667M36.6667 2V11.0667C36.6667 12.56 36.6667 13.3067 36.9573 13.8773C37.213 14.3791 37.6209 14.787 38.1227 15.0427C38.6933 15.3333 39.4373 15.3333 40.928 15.3333H50" stroke="#52616B" stroke-width="4" stroke-linecap="round" stroke-linejoin="round"/>
</svg>
