<svg width="48" height="36" viewBox="0 0 48 36" fill="none" xmlns="http://www.w3.org/2000/svg">
<path d="M32.4 7.5C32.4 5.51088 31.6098 3.60322 30.2033 2.1967C28.7968 0.790176 26.8891 0 24.9 0H7.5C5.51088 0 3.60322 0.790176 2.1967 2.1967C0.790176 3.60322 0 5.51088 0 7.5V28.5C0 30.4891 0.790176 32.3968 2.1967 33.8033C3.60322 35.2098 5.51088 36 7.5 36H24.9C26.8891 36 28.7968 35.2098 30.2033 33.8033C31.6098 32.3968 32.4 30.4891 32.4 28.5V7.5ZM34.8 24.6384L43.1532 31.1616C45.1236 32.7 48 31.296 48 28.7976V7.2036C48 4.704 45.1236 3.3012 43.1532 4.8396L34.8 11.3616V24.6384Z" fill="#52616B"/>
</svg>
