<svg width="48" height="48" viewBox="0 0 48 48" fill="none" xmlns="http://www.w3.org/2000/svg">
<g clip-path="url(#clip0_364_207)">
<path fill-rule="evenodd" clip-rule="evenodd" d="M21 8C20.4982 7.99991 20.0047 8.1281 19.5663 8.37238C19.128 8.61666 18.7594 8.96894 18.4955 9.39575C18.2316 9.82256 18.0812 10.3097 18.0585 10.811C18.0358 11.3123 18.1417 11.8111 18.366 12.26L18.692 12.91C18.8552 13.2357 18.9323 13.5977 18.916 13.9616C18.8997 14.3255 18.7905 14.6791 18.5988 14.9889C18.4071 15.2986 18.1394 15.5542 17.821 15.7312C17.5026 15.9082 17.1443 16.0007 16.78 16H10C9.46957 16 8.96086 16.2107 8.58579 16.5858C8.21071 16.9609 8 17.4696 8 18V20.388C11.64 20.17 15 23.05 15 27C15 30.95 11.64 33.83 8 33.612V38C8 38.5304 8.21071 39.0391 8.58579 39.4142C8.96086 39.7893 9.46957 40 10 40H14.388C14.17 36.36 17.05 33 21 33C24.95 33 27.83 36.36 27.612 40H30C30.5304 40 31.0391 39.7893 31.4142 39.4142C31.7893 39.0391 32 38.5304 32 38V31.22C32 29.632 33.67 28.6 35.09 29.308L35.738 29.634C36.1868 29.8581 36.6855 29.9637 37.1867 29.941C37.6878 29.9182 38.1748 29.7677 38.6015 29.5038C39.0282 29.24 39.3803 28.8714 39.6246 28.4332C39.8688 27.995 39.997 27.5017 39.997 27C39.997 26.4983 39.8688 26.005 39.6246 25.5668C39.3803 25.1286 39.0282 24.76 38.6015 24.4962C38.1748 24.2323 37.6878 24.0818 37.1867 24.059C36.6855 24.0363 36.1868 24.1419 35.738 24.366L35.09 24.692C34.7643 24.8552 34.4023 24.9323 34.0384 24.916C33.6745 24.8997 33.3209 24.7905 33.0111 24.5988C32.7014 24.4071 32.4458 24.1394 32.2688 23.821C32.0918 23.5026 31.9993 23.1443 32 22.78V18C32 17.4696 31.7893 16.9609 31.4142 16.5858C31.0391 16.2107 30.5304 16 30 16H25.22C23.632 16 22.6 14.33 23.308 12.91L23.634 12.26C23.8583 11.8111 23.9642 11.3123 23.9415 10.811C23.9188 10.3097 23.7684 9.82256 23.5045 9.39575C23.2406 8.96894 22.872 8.61666 22.4337 8.37238C21.9953 8.1281 21.5018 7.99991 21 8ZM14.128 12C13.496 7.966 16.588 4 21 4C25.41 4 28.504 7.966 27.872 12H30C31.5913 12 33.1174 12.6321 34.2426 13.7574C35.3679 14.8826 36 16.4087 36 18V20.128C40.034 19.496 44 22.588 44 27C44 31.41 40.034 34.504 36 33.872V38C36 39.5913 35.3679 41.1174 34.2426 42.2426C33.1174 43.3679 31.5913 44 30 44H25.186C24.8344 44.0004 24.4883 43.9135 24.1786 43.747C23.869 43.5805 23.6056 43.3397 23.412 43.0462C23.2185 42.7527 23.1009 42.4158 23.0698 42.0656C23.0388 41.7154 23.0952 41.363 23.234 41.04L23.404 40.646C23.5748 40.2481 23.6441 39.814 23.6057 39.3827C23.5674 38.9514 23.4226 38.5364 23.1843 38.1748C22.946 37.8133 22.6217 37.5165 22.2405 37.3112C21.8592 37.1059 21.433 36.9984 21 36.9984C20.567 36.9984 20.1408 37.1059 19.7595 37.3112C19.3783 37.5165 19.054 37.8133 18.8157 38.1748C18.5774 38.5364 18.4326 38.9514 18.3943 39.3827C18.3559 39.814 18.4252 40.2481 18.596 40.646L18.766 41.042C19.366 42.442 18.338 44 16.814 44H10C8.4087 44 6.88258 43.3679 5.75736 42.2426C4.63214 41.1174 4 39.5913 4 38V31.186C4 29.662 5.558 28.634 6.96 29.234L7.354 29.404C7.75192 29.5748 8.18599 29.6441 8.6173 29.6057C9.0486 29.5674 9.46364 29.4226 9.82519 29.1843C10.1867 28.946 10.4835 28.6217 10.6888 28.2405C10.8941 27.8592 11.0016 27.433 11.0016 27C11.0016 26.567 10.8941 26.1408 10.6888 25.7595C10.4835 25.3783 10.1867 25.054 9.82519 24.8157C9.46364 24.5774 9.0486 24.4326 8.6173 24.3943C8.18599 24.3559 7.75192 24.4252 7.354 24.596L6.958 24.766C5.558 25.366 4 24.338 4 22.814V18C4 16.4087 4.63214 14.8826 5.75736 13.7574C6.88258 12.6321 8.4087 12 10 12H14.128Z" fill="#52616B"/>
</g>
<defs>
<clipPath id="clip0_364_207">
<rect width="48" height="48" fill="white"/>
</clipPath>
</defs>
</svg>
