<svg width="32" height="32" viewBox="0 0 32 32" fill="none" xmlns="http://www.w3.org/2000/svg">
<rect width="32" height="32" rx="16" fill="url(#paint0_linear_58_1213)"/>
<path d="M16.5 7C21.1946 7 25 10.8054 25 15.5C25 20.1945 21.1946 24 16.5 24C14.9979 24.0024 13.5222 23.6049 12.2245 22.8482L8.00341 24L9.15261 19.7772C8.39534 18.4791 7.9975 17.0028 8.00001 15.5C8.00001 10.8054 11.8055 7 16.5 7ZM13.6032 11.505L13.4332 11.5118C13.3232 11.5185 13.2156 11.5474 13.117 11.5968C13.0248 11.649 12.9406 11.7143 12.8671 11.7906C12.7651 11.8866 12.7073 11.9699 12.6453 12.0507C12.3309 12.4595 12.1616 12.9613 12.1642 13.477C12.1659 13.8935 12.2747 14.2989 12.4447 14.678C12.7923 15.4447 13.3644 16.2565 14.1192 17.0087C14.3011 17.1898 14.4796 17.3717 14.6717 17.5408C15.6095 18.3666 16.7272 18.9621 17.9357 19.2799L18.4185 19.3539C18.5757 19.3624 18.733 19.3505 18.8911 19.3428C19.1386 19.3301 19.3803 19.263 19.5991 19.1465C19.7104 19.0892 19.819 19.0268 19.9247 18.9595C19.9247 18.9595 19.9612 18.9357 20.0309 18.883C20.1457 18.798 20.2162 18.7376 20.3114 18.6382C20.382 18.5651 20.4432 18.4792 20.4899 18.3815C20.5562 18.2429 20.6225 17.9786 20.6497 17.7584C20.6701 17.5901 20.6642 17.4983 20.6616 17.4414C20.6582 17.3504 20.5826 17.2561 20.5001 17.2161L20.0054 16.9943C20.0054 16.9943 19.2659 16.6721 18.8137 16.4664C18.7664 16.4458 18.7157 16.434 18.6641 16.4316C18.6059 16.4256 18.5472 16.4322 18.4918 16.4508C18.4363 16.4694 18.3856 16.4997 18.3428 16.5395C18.3386 16.5378 18.2816 16.5863 17.6671 17.3309C17.6318 17.3783 17.5832 17.4141 17.5275 17.4338C17.4718 17.4535 17.4115 17.4561 17.3543 17.4414C17.2989 17.4265 17.2446 17.4078 17.1919 17.3853C17.0865 17.3411 17.05 17.3241 16.9777 17.2935C16.4899 17.0806 16.0382 16.793 15.639 16.4409C15.5319 16.3474 15.4324 16.2454 15.3304 16.1468C14.996 15.8266 14.7046 15.4643 14.4634 15.069L14.4133 14.9883C14.3772 14.934 14.3481 14.8755 14.3266 14.814C14.2943 14.6891 14.3784 14.5888 14.3784 14.5888C14.3784 14.5888 14.585 14.3627 14.681 14.2403C14.7745 14.1213 14.8536 14.0057 14.9046 13.9232C15.0049 13.7617 15.0363 13.596 14.9836 13.4676C14.7456 12.8862 14.4991 12.3074 14.2458 11.7328C14.1957 11.6189 14.0469 11.5373 13.9118 11.5211C13.8659 11.516 13.82 11.5109 13.7741 11.5075C13.6599 11.5019 13.5455 11.503 13.4315 11.5109L13.6024 11.5041L13.6032 11.505Z" fill="white"/>
<defs>
<linearGradient id="paint0_linear_58_1213" x1="1600" y1="3200" x2="1600" y2="0" gradientUnits="userSpaceOnUse">
<stop stop-color="#1FAF38"/>
<stop offset="1" stop-color="#60D669"/>
</linearGradient>
</defs>
</svg>
