<svg width="48" height="48" viewBox="0 0 48 48" fill="none" xmlns="http://www.w3.org/2000/svg">
<g clip-path="url(#clip0_395_100)">
<path d="M36.75 0H11.25C5.0368 0 0 5.0368 0 11.25V36.75C0 42.9632 5.0368 48 11.25 48H36.75C42.9632 48 48 42.9632 48 36.75V11.25C48 5.0368 42.9632 0 36.75 0Z" fill="#4353FF"/>
<path d="M31.7072 19.3942C31.7072 19.3942 29.1169 27.5096 28.9254 28.1987C28.8489 27.5224 26.9604 12.9375 26.9604 12.9375C22.5454 12.9375 20.1975 16.0764 18.9469 19.3942C18.9469 19.3942 15.7952 27.5351 15.54 28.2114C15.5272 27.5734 15.0551 19.4708 15.0551 19.4708C14.787 15.4001 11.0738 12.9375 8.0625 12.9375L11.6865 35.0254C16.3056 35.0126 18.7939 31.8864 20.0953 28.5561C20.0953 28.5561 22.8643 21.372 22.9792 21.0531C23.0048 21.3592 24.9697 35.0254 24.9697 35.0254C29.6017 35.0254 32.1028 32.1034 33.4425 28.9005L39.9375 12.9375C35.3565 12.9375 32.9449 16.0637 31.7072 19.3942Z" fill="white"/>
</g>
<defs>
<clipPath id="clip0_395_100">
<rect width="48" height="48" fill="white"/>
</clipPath>
</defs>
</svg>
