<svg width="46" height="48" viewBox="0 0 46 48" fill="none" xmlns="http://www.w3.org/2000/svg">
<path fill-rule="evenodd" clip-rule="evenodd" d="M17.9922 0C18.7802 0 19.5604 0.155195 20.2883 0.456723C21.0163 0.758251 21.6777 1.20021 22.2349 1.75736C22.792 2.31451 23.234 2.97595 23.5355 3.7039C23.837 4.43185 23.9922 5.21207 23.9922 6V17.052L37.053 18.504C39.4008 18.765 41.5698 19.8825 43.1453 21.6426C44.7207 23.4027 45.5919 25.6818 45.5922 28.044V28.8C45.5922 33.8922 43.5694 38.7758 39.9687 42.3765C36.368 45.9771 31.4844 48 26.3922 48H24.7746C21.2092 47.9999 17.7142 47.007 14.6813 45.1325C11.6484 43.2581 9.19728 40.5761 7.60264 37.3872L0.781839 23.7456C-0.0821614 22.0176 0.558639 19.7064 2.57464 18.8784C5.07544 17.8536 7.45624 17.6616 9.90424 18.9072C10.617 19.2672 11.3082 19.74 11.9922 20.3088V6C11.9922 4.4087 12.6244 2.88258 13.7496 1.75736C14.8748 0.632141 16.4009 0 17.9922 0ZM17.9922 4.8C17.674 4.8 17.3688 4.92643 17.1437 5.15147C16.9187 5.37652 16.7922 5.68174 16.7922 6V26.4C16.7925 26.8975 16.6381 27.3827 16.3505 27.7886C16.0629 28.1945 15.6563 28.501 15.1869 28.6657C14.7176 28.8305 14.2086 28.8452 13.7304 28.7081C13.2522 28.5709 12.8285 28.2885 12.5178 27.9L11.721 26.9232L10.9962 26.0736C9.60424 24.4968 8.59144 23.6256 7.73224 23.1864C7.11924 22.8564 6.40833 22.7568 5.72824 22.9056L11.8962 35.2416C13.0923 37.633 14.9306 39.6441 17.2052 41.0498C19.4798 42.4554 22.1008 43.1999 24.7746 43.2H26.3922C30.2114 43.2 33.8741 41.6829 36.5746 38.9823C39.2751 36.2818 40.7922 32.6191 40.7922 28.8V28.044C40.7923 26.8623 40.3565 25.7222 39.5683 24.8418C38.78 23.9614 37.6947 23.4028 36.5202 23.2728L23.4618 21.8232C22.2873 21.6932 21.2021 21.1346 20.4138 20.2542C19.6256 19.3739 19.1898 18.2337 19.1898 17.052V6C19.1898 5.68174 19.0634 5.37652 18.8384 5.15147C18.6133 4.92643 18.3081 4.8 17.9898 4.8H17.9922ZM9.25624 4.3152C9.41768 4.58646 9.52402 4.8869 9.56917 5.19932C9.61433 5.51174 9.59741 5.83 9.51938 6.13587C9.44135 6.44174 9.30375 6.72921 9.11445 6.98182C8.92516 7.23444 8.68789 7.44722 8.41624 7.608C7.26842 8.28679 6.20363 9.09706 5.24344 10.0224C5.02744 10.2336 4.81144 10.4496 4.61224 10.6776L4.32184 11.028C3.94521 11.5383 3.38189 11.8788 2.755 11.975C2.1281 12.0712 1.4886 11.9154 0.976239 11.5416C0.466933 11.1623 0.126793 10.5984 0.0289542 9.97092C-0.0688849 9.3435 0.0833902 8.70273 0.453038 8.1864C0.88768 7.61219 1.36934 7.07514 1.89304 6.5808C3.12473 5.39494 4.48986 4.35599 5.96104 3.4848C6.23177 3.32343 6.53164 3.21696 6.84351 3.17148C7.15539 3.126 7.47318 3.14239 7.77872 3.21972C8.08426 3.29706 8.37158 3.43381 8.62427 3.62219C8.87696 3.81056 9.09007 4.04686 9.25144 4.3176L9.25624 4.3152ZM26.5914 3.3552C26.8458 2.77192 27.3215 2.31355 27.9137 2.08087C28.506 1.84819 29.1665 1.86025 29.7498 2.1144C31.9636 3.07055 34.0127 4.36969 35.8218 5.964C36.5802 6.636 37.3314 7.3632 37.9314 8.1864C38.3063 8.70073 38.4615 9.34289 38.3629 9.97164C38.2644 10.6004 37.9201 11.1642 37.4058 11.5392C36.4218 12.2592 35.0754 12.0912 34.2522 11.2464L33.6666 10.5624L33.3306 10.2096L32.8938 9.7848C31.4015 8.42008 29.6915 7.31444 27.8346 6.5136C27.2515 6.25964 26.7931 5.78461 26.56 5.19285C26.3269 4.6011 26.3382 3.93862 26.5914 3.3552Z" fill="#52616B"/>
</svg>
