<svg width="48" height="34" viewBox="0 0 48 34" fill="none" xmlns="http://www.w3.org/2000/svg">
<g clip-path="url(#clip0_395_81)">
<path d="M46.9399 5.26406C46.6646 4.2466 46.1275 3.31902 45.3822 2.57368C44.6369 1.82833 43.7094 1.29124 42.6919 1.01587C38.967 0 23.9757 0 23.9757 0C23.9757 0 8.98354 0.0307499 5.25866 1.04662C4.24119 1.32201 3.31362 1.85913 2.56831 2.60451C1.82299 3.34988 1.28595 4.27751 1.01066 5.295C-0.116026 11.9134 -0.553089 21.9982 1.0416 28.3519C1.31692 29.3693 1.85397 30.2969 2.59928 31.0423C3.34459 31.7876 4.27215 32.3247 5.2896 32.6001C9.01447 33.6159 24.0062 33.6159 24.0062 33.6159C24.0062 33.6159 38.9978 33.6159 42.7225 32.6001C43.74 32.3247 44.6676 31.7876 45.4129 31.0423C46.1582 30.297 46.6953 29.3694 46.9707 28.3519C48.159 21.7241 48.5252 11.6454 46.9399 5.26406Z" fill="#FF0000"/>
<path d="M19.2039 24.0122L31.6404 16.8088L19.2039 9.60547V24.0122Z" fill="white"/>
</g>
<defs>
<clipPath id="clip0_395_81">
<rect width="48" height="33.75" fill="white"/>
</clipPath>
</defs>
</svg>
