<svg width="48" height="11" viewBox="0 0 48 11" fill="none" xmlns="http://www.w3.org/2000/svg">
<g clip-path="url(#clip0_395_48)">
<path d="M10.0761 10.7532H1.53356C0.974081 10.7532 0.428197 10.453 0.168895 9.94806C-0.131186 9.3613 -0.0221591 8.66533 0.44179 8.21497L6.39167 2.26528H2.12031C0.946707 2.26528 0.00512103 1.31001 0.00512103 0.149994H7.87904C8.43852 0.149994 8.98431 0.450263 9.24361 0.955179C9.54388 1.54194 9.43467 2.23791 8.97072 2.68817L3.02093 8.63805H7.94729C9.1208 8.63805 10.0761 9.59332 10.0761 10.7532ZM43.8913 0C42.6633 0 41.5715 0.532197 40.8073 1.37826C40.0431 0.532197 38.9514 0 37.7233 0C35.458 0 33.6021 1.93773 33.6021 4.20301V10.7532C34.7757 10.7532 35.7172 9.79797 35.7172 8.63805V4.18942C35.7172 3.09765 36.5633 2.16975 37.655 2.12888C38.8013 2.08791 39.7429 3.00213 39.7429 4.13477V8.63805C39.7429 9.81166 40.6982 10.7532 41.8581 10.7532V4.17573C41.8581 3.08406 42.7041 2.15607 43.7958 2.11519C44.9421 2.07423 45.8837 2.98853 45.8837 4.12117V8.62436C45.8837 9.79806 46.839 10.7396 47.9989 10.7396V4.18951C48.0125 1.93773 46.1566 0 43.8913 0ZM20.7747 5.45846C20.7747 8.47427 18.332 10.9169 15.3162 10.9169C12.3004 10.9169 9.85774 8.47427 9.85774 5.45846C9.85774 2.44265 12.3004 0 15.3162 0C18.332 0 20.7747 2.44265 20.7747 5.45846ZM18.6595 5.45846C18.6595 3.61626 17.1584 2.11519 15.3162 2.11519C13.474 2.11519 11.9728 3.61626 11.9728 5.45846C11.9728 7.30076 13.474 8.80182 15.3162 8.80182C17.1584 8.80182 18.6595 7.30076 18.6595 5.45846ZM32.5376 5.45846C32.5376 8.47427 30.095 10.9169 27.0792 10.9169C24.0634 10.9169 21.6207 8.47427 21.6207 5.45846C21.6207 2.44265 24.0634 0 27.0792 0C30.095 0 32.5377 2.44265 32.5377 5.45846H32.5376ZM30.4225 5.45846C30.4225 3.61626 28.9215 2.11519 27.0792 2.11519C25.2371 2.11519 23.7359 3.61626 23.7359 5.45846C23.7359 7.30076 25.237 8.80182 27.0792 8.80182C28.9215 8.80182 30.4225 7.30076 30.4225 5.45846Z" fill="#0B5CFF"/>
</g>
<defs>
<clipPath id="clip0_395_48">
<rect width="48" height="10.9683" fill="white"/>
</clipPath>
</defs>
</svg>
