<svg width="299" height="160" viewBox="0 0 299 160" fill="none" xmlns="http://www.w3.org/2000/svg">
<path d="M141.589 33.6792C141.75 33.6787 141.91 33.6783 142.075 33.6779C142.603 33.6768 143.131 33.6775 143.659 33.6783C144.027 33.6782 144.395 33.6779 144.763 33.6776C145.535 33.6773 146.306 33.6778 147.077 33.6789C148.063 33.6803 149.05 33.6795 150.037 33.6781C150.797 33.6772 151.557 33.6775 152.317 33.6781C152.681 33.6783 153.045 33.6781 153.409 33.6775C153.918 33.6769 154.427 33.6778 154.936 33.6792C155.226 33.6794 155.515 33.6796 155.813 33.6798C156.508 33.7077 157.131 33.7954 157.806 33.9551C157.806 34.1163 157.806 34.2775 157.806 34.4436C157.967 34.4436 158.128 34.4436 158.294 34.4436C158.791 35.4381 158.835 36.0584 158.538 37.1307C158.087 37.8892 157.926 38.0678 157.073 38.3521C156.444 38.3693 155.823 38.375 155.195 38.3674C155.023 38.3663 154.852 38.3652 154.675 38.364C154.253 38.3612 153.831 38.3568 153.408 38.3521C153.514 38.7257 153.514 38.7257 153.622 39.1069C154.012 40.6699 154.182 42.268 154.386 43.8637C154.426 44.1737 154.466 44.4837 154.508 44.8031C154.653 45.9172 154.797 47.0312 154.939 48.1456C155.003 48.6494 155.068 49.1531 155.134 49.6568C155.191 50.1031 155.191 50.1031 155.249 50.5585C155.343 51.3078 155.343 51.3078 155.607 52.0319C156.31 52.3329 156.31 52.3329 157.164 52.5815C160.717 53.757 163.927 56.2892 166.355 59.116C166.355 59.2772 166.355 59.4385 166.355 59.6046C166.517 59.6046 166.678 59.6046 166.844 59.6046C169.581 62.9557 171.768 67.6699 171.73 72.0629C172.021 72.0618 172.312 72.0607 172.612 72.0596C175.354 72.0497 178.097 72.0424 180.839 72.0376C182.249 72.035 183.659 72.0316 185.069 72.026C186.43 72.0207 187.79 72.0178 189.151 72.0165C189.67 72.0156 190.189 72.0139 190.708 72.0112C191.435 72.0077 192.162 72.0072 192.889 72.0074C193.104 72.0057 193.319 72.0039 193.54 72.0021C194.605 72.0057 195.433 72.0521 196.402 72.5515C196.402 72.7127 196.402 72.8739 196.402 73.04C196.563 73.04 196.724 73.04 196.891 73.04C196.945 73.3855 196.995 73.7318 197.043 74.0782C197.086 74.3673 197.086 74.3673 197.129 74.6622C197.136 75.3409 197.033 75.6601 196.646 76.2157C195.808 76.7611 195.063 76.7785 194.077 76.8054C193.772 76.8148 193.467 76.8243 193.152 76.834C192.675 76.8454 192.675 76.8454 192.188 76.8569C191.866 76.8664 191.544 76.8758 191.213 76.8855C190.418 76.9086 189.624 76.9295 188.829 76.9485C188.91 77.1904 188.99 77.4322 189.074 77.6814C189.308 79.9869 188.862 81.9277 187.409 83.7579C186.161 85.0942 184.77 85.6714 182.954 85.7923C180.615 85.8259 179.003 85.5804 177.252 83.9697C175.813 82.408 175.358 80.9784 175.363 78.8722C175.363 78.6197 175.362 78.3671 175.361 78.107C175.394 77.4371 175.394 77.4371 175.638 76.7042C174.348 76.7042 173.058 76.7042 171.73 76.7042C171.704 76.9965 171.679 77.2887 171.653 77.5898C171.383 79.9635 170.957 82.1906 169.775 84.277C169.53 84.775 169.285 85.2738 169.042 85.7732C168.531 86.794 168.034 87.7715 167.332 88.674C167.171 88.674 167.01 88.674 166.844 88.674C166.749 88.8842 166.749 88.8842 166.652 89.0986C166.33 89.6975 165.962 90.1623 165.516 90.6741C165.37 90.8438 165.224 91.0135 165.074 91.1884C164.645 91.6054 164.645 91.6054 163.913 91.8497C163.913 92.0109 163.913 92.1721 163.913 92.3382C163.751 92.3382 163.59 92.3382 163.424 92.3382C163.424 92.4995 163.424 92.6607 163.424 92.8268C162.964 93.1981 162.508 93.5339 162.019 93.865C161.875 93.9632 161.73 94.0613 161.581 94.1625C156.175 97.7637 149.756 98.9192 143.393 97.7124C140.085 96.9546 136.464 95.5351 133.866 93.3154C133.866 93.1541 133.866 92.9929 133.866 92.8268C133.72 92.7563 133.574 92.6857 133.423 92.613C132.889 92.3382 132.889 92.3382 132.156 91.8497C132.156 91.6884 132.156 91.5272 132.156 91.3611C131.995 91.3611 131.834 91.3611 131.667 91.3611C131.667 91.1999 131.667 91.0387 131.667 90.8725C131.506 90.8725 131.345 90.8725 131.179 90.8725C130.757 90.4088 130.757 90.4088 130.293 89.8038C130.062 89.5062 130.062 89.5062 129.826 89.2027C129.469 88.674 129.469 88.674 129.469 88.1855C129.308 88.1855 129.146 88.1855 128.98 88.1855C127.145 85.5856 126.094 82.6957 125.316 79.6356C125.267 79.4823 125.219 79.3289 125.168 79.1709C125.016 78.3622 125.072 77.5271 125.072 76.7042C123.701 76.7042 122.331 76.7042 120.919 76.7042C121.161 77.5507 121.161 77.5507 121.408 78.4142C121.466 80.2654 120.968 82.0048 119.942 83.5441C119.781 83.5441 119.62 83.5441 119.453 83.5441C119.453 83.7053 119.453 83.8666 119.453 84.0327C117.424 85.689 115.441 85.9582 112.858 85.7426C110.594 85.1017 109.221 83.7841 108.003 81.8341C107.454 80.429 107.635 78.67 107.728 77.1928C107.809 77.0316 107.889 76.8704 107.972 76.7042C107.764 76.7106 107.556 76.717 107.341 76.7236C106.565 76.7445 105.789 76.7598 105.013 76.7713C104.677 76.7775 104.342 76.7858 104.007 76.7964C103.524 76.8113 103.04 76.8175 102.557 76.8235C102.121 76.8331 102.121 76.8331 101.677 76.8429C100.657 76.6636 100.308 76.2779 99.6667 75.4828C99.4071 74.7653 99.4071 74.7653 99.4224 74.0172C99.9326 73.0344 100.35 72.472 101.377 72.0629C101.867 72.0028 101.867 72.0028 102.394 72.0042C102.594 72.0035 102.795 72.0028 103.002 72.0021C103.329 72.0048 103.329 72.0048 103.663 72.0074C103.894 72.0074 104.125 72.0073 104.363 72.0072C105.127 72.0076 105.891 72.0114 106.655 72.0152C107.185 72.0161 107.715 72.0168 108.245 72.0173C109.639 72.0192 111.034 72.024 112.428 72.0294C113.851 72.0344 115.274 72.0366 116.697 72.039C119.488 72.0443 122.28 72.0526 125.072 72.0629C125.069 71.7576 125.066 71.4522 125.063 71.1376C125.04 68.6141 126.076 66.2457 127.133 64.0016C127.224 63.809 127.314 63.6163 127.408 63.4178C127.993 62.218 128.636 61.139 129.469 60.0931C129.63 60.0931 129.791 60.0931 129.958 60.0931C130.021 59.9105 130.085 59.7279 130.15 59.5397C131.623 56.2151 136.442 53.7331 139.673 52.4384C140.217 52.2761 140.217 52.2761 141.194 52.2761C141.228 52.0279 141.261 51.7797 141.295 51.524C142.51 42.4408 142.51 42.4408 143.149 38.3521C142.916 38.3606 142.683 38.3691 142.444 38.3779C142.137 38.3845 141.831 38.3911 141.515 38.3979C141.06 38.4107 141.06 38.4107 140.596 38.4237C139.435 38.3279 138.829 37.9412 138.019 37.1307C137.907 35.998 137.861 35.4419 138.446 34.4589C139.398 33.5862 140.333 33.68 141.589 33.6792ZM147.79 38.3521C147.31 40.3084 147.051 42.2794 146.798 44.2759C146.714 44.9287 146.629 45.5814 146.545 46.234C146.508 46.5206 146.472 46.8073 146.434 47.1026C146.324 47.8791 146.324 47.8791 146.188 48.4705C146.042 49.3202 146.08 50.1926 146.08 51.0547C147.612 51.0547 149.143 51.0547 150.721 51.0547C150.52 49.2392 150.301 47.4275 150.068 45.616C150.004 45.1193 149.941 44.6225 149.878 44.1256C149.631 42.1933 149.349 40.2708 149.011 38.3521C148.608 38.3521 148.205 38.3521 147.79 38.3521ZM136.309 59.8489C136.147 59.9739 135.984 60.0989 135.817 60.2277C135.481 60.4939 135.159 60.7797 134.843 61.0703C134.843 61.2315 134.843 61.3927 134.843 61.5588C134.682 61.5588 134.521 61.5588 134.355 61.5588C134.355 61.72 134.355 61.8813 134.355 62.0474C134.193 62.0474 134.032 62.0474 133.866 62.0474C133.489 62.5129 133.148 62.9733 132.813 63.4673C132.714 63.6122 132.615 63.757 132.514 63.9063C131.663 65.184 130.976 66.4656 130.446 67.9101C130.35 68.1661 130.255 68.4221 130.156 68.6859C128.643 73.4084 129.128 78.5587 131.316 82.9639C131.59 83.4865 131.869 84.006 132.156 84.5212C132.348 84.8717 132.348 84.8717 132.544 85.2293C132.715 85.4834 132.715 85.4834 132.889 85.7426C133.05 85.7426 133.211 85.7426 133.377 85.7426C133.433 85.8736 133.488 86.0046 133.545 86.1396C133.977 86.9212 134.486 87.5235 135.087 88.1855C135.249 88.1855 135.41 88.1855 135.576 88.1855C135.576 88.3467 135.576 88.5079 135.576 88.674C139.266 91.86 144.195 93.7933 149.118 93.5138C152.009 93.2112 154.641 92.4856 157.317 91.3611C157.317 91.1999 157.317 91.0387 157.317 90.8725C157.536 90.8196 157.536 90.8196 157.76 90.7657C158.187 90.6558 158.608 90.5235 159.027 90.384C159.027 90.2228 159.027 90.0615 159.027 89.8954C159.199 89.8425 159.371 89.7896 159.549 89.7351C160.419 89.3269 161.01 88.7439 161.668 88.0633C161.791 87.9414 161.914 87.8196 162.04 87.694C162.726 87.0767 162.726 87.0767 162.935 86.2312C163.097 86.2312 163.258 86.2312 163.424 86.2312C166.6 82.095 167.925 76.9183 167.264 71.7726C166.571 67.4143 164.333 62.7545 160.737 60.0931C160.576 60.0931 160.414 60.0931 160.248 60.0931C160.248 59.9319 160.248 59.7707 160.248 59.6046C156.462 56.2193 151.269 55.4103 146.375 55.656C142.571 55.9386 139.252 57.4819 136.309 59.8489ZM112.858 77.4371C112.327 77.9682 112.151 78.2714 112.018 79.0096C112.19 80.0178 112.75 80.5992 113.56 81.1929C114.31 81.4134 114.799 81.319 115.545 81.1013C116.167 80.6302 116.458 80.2812 116.751 79.5593C116.773 78.6184 116.481 78.0115 116.033 77.1928C114.88 76.364 114.003 76.7688 112.858 77.4371ZM180.279 77.6814C179.798 78.3094 179.788 78.5935 179.821 79.3913C180.072 80.2491 180.293 80.5762 181.012 81.1013C181.733 81.3576 182.207 81.43 182.944 81.2005C183.435 80.967 183.797 80.7474 184.188 80.3685C184.471 79.5247 184.471 79.5247 184.432 78.6585C184.432 78.4822 184.432 78.3058 184.432 78.1241C184.018 77.3743 183.255 77.0231 182.478 76.7042C181.482 76.7042 181.06 77.0836 180.279 77.6814Z" fill="#E4002B"/>
<path d="M70.3529 119.942C71.0695 119.853 71.0695 119.853 71.9255 119.866C72.3482 119.867 72.3482 119.867 72.7795 119.868C73.5286 119.942 73.5286 119.942 74.2614 120.431C74.5939 121.037 74.8991 121.638 75.1927 122.263C75.8253 123.597 76.5166 124.867 77.2853 126.128C77.9985 127.306 78.679 128.502 79.3608 129.698C79.5056 129.949 79.6505 130.2 79.7997 130.458C79.9364 130.698 80.073 130.938 80.2138 131.186C80.3376 131.402 80.4613 131.618 80.5887 131.84C80.857 132.4 80.857 132.4 80.857 133.133C81.0182 133.133 81.1794 133.133 81.3456 133.133C82.0784 134.507 82.0784 134.507 82.0784 135.332C82.2396 135.332 82.4008 135.332 82.567 135.332C82.6959 135.598 82.6959 135.598 82.8275 135.87C83.6252 137.495 84.4817 139.061 85.4201 140.609C85.7426 141.194 85.7426 141.194 85.7426 141.683C86.4417 141.333 86.5739 140.774 86.901 140.094C87.6464 138.615 88.5315 137.207 89.3744 135.782C90.1694 134.431 90.926 133.081 91.6054 131.667C91.7666 131.667 91.9278 131.667 92.0939 131.667C92.1125 131.503 92.1311 131.338 92.1502 131.168C92.3958 130.225 92.8768 129.476 93.3917 128.66C94.1643 127.407 94.8877 126.162 95.5139 124.828C95.6751 124.828 95.8363 124.828 96.0024 124.828C96.0494 124.613 96.0494 124.613 96.0974 124.395C96.3369 123.522 96.7817 122.767 97.2086 121.973C97.3406 121.72 97.3406 121.72 97.4753 121.463C98.1406 120.216 98.1406 120.216 98.6895 119.942C99.1472 119.925 99.6056 119.921 100.064 119.927C100.431 119.93 100.431 119.93 100.806 119.933C101.088 119.938 101.088 119.938 101.377 119.942C101.97 121.146 102.062 122.402 102.216 123.717C102.262 124.089 102.262 124.089 102.309 124.468C102.407 125.26 102.503 126.051 102.598 126.843C102.693 127.631 102.789 128.419 102.887 129.207C102.947 129.697 103.006 130.187 103.065 130.676C103.218 131.925 103.424 133.138 103.712 134.363C103.849 134.976 103.932 135.587 104.002 136.211C104.043 136.57 104.043 136.57 104.086 136.935C104.114 137.182 104.142 137.429 104.171 137.683C104.44 139.943 104.79 142.148 105.285 144.37C105.328 144.585 105.37 144.799 105.414 145.02C105.65 146.187 106.001 147.2 106.507 148.279C106.018 148.767 106.018 148.767 105.383 148.826C105.121 148.825 104.859 148.824 104.589 148.823C104.306 148.823 104.022 148.822 103.729 148.822C103.432 148.819 103.134 148.816 102.827 148.813C102.379 148.813 102.379 148.813 101.922 148.812C99.7009 148.801 99.7009 148.801 99.4223 148.523C99.4171 148.034 99.4249 147.546 99.4376 147.057C99.456 144.018 98.9554 141.042 98.4894 138.045C98.1748 135.98 97.941 133.907 97.7129 131.831C97.6844 131.573 97.6559 131.315 97.6265 131.05C97.5894 130.707 97.5894 130.707 97.5515 130.357C97.47 129.728 97.356 129.113 97.2238 128.492C96.3785 130.025 95.5521 131.561 94.781 133.133C94.6198 133.133 94.4586 133.133 94.2924 133.133C94.2615 133.277 94.2305 133.42 94.1986 133.568C93.9575 134.437 93.4741 135.182 93.0252 135.958C92.8234 136.311 92.6218 136.664 92.4203 137.018C92.3219 137.19 92.2236 137.362 92.1223 137.539C91.7738 138.152 91.4366 138.772 91.1015 139.393C90.4512 140.593 89.7754 141.778 89.0928 142.961C88.6872 143.665 88.2939 144.37 87.9411 145.103C87.7799 145.103 87.6187 145.103 87.4526 145.103C87.411 145.309 87.411 145.309 87.3686 145.52C87.188 146.151 86.9218 146.655 86.5976 147.225C86.4893 147.418 86.3809 147.61 86.2693 147.808C85.9869 148.279 85.9869 148.279 85.7426 148.523C84.8187 148.747 84.1585 148.691 83.2998 148.279C82.5062 147.161 81.9625 145.957 81.388 144.715C80.9219 143.757 80.3708 142.853 79.8188 141.943C79.0621 140.677 78.3547 139.409 77.7147 138.08C77.3017 137.262 76.8207 136.49 76.3435 135.709C75.8452 134.877 75.3869 134.026 74.9265 133.172C74.0708 131.602 73.1862 130.049 72.3072 128.492C71.661 131.956 71.2802 135.434 70.9247 138.939C70.8525 139.624 70.773 140.307 70.6869 140.99C70.3709 143.512 70.2988 145.982 70.3529 148.523C69.7919 148.803 69.4776 148.795 68.8548 148.791C68.658 148.79 68.4612 148.789 68.2584 148.789C67.9499 148.786 67.9499 148.786 67.6353 148.782C67.4278 148.781 67.2202 148.78 67.0064 148.779C66.4934 148.776 65.9803 148.772 65.4673 148.767C65.2411 148.164 65.1409 147.732 65.4061 147.129C65.4912 146.978 65.5762 146.826 65.6639 146.67C66.3452 145.419 66.5152 144.148 66.7192 142.752C66.76 142.491 66.8007 142.23 66.8427 141.961C66.9579 141.217 67.0687 140.473 67.1773 139.729C67.203 139.553 67.2288 139.376 67.2554 139.195C67.355 138.508 67.4513 137.821 67.5456 137.134C67.6862 136.169 67.8515 135.209 68.017 134.248C68.3553 132.271 68.6203 130.287 68.8727 128.298C69.0645 126.789 69.2801 125.288 69.5227 123.787C69.6493 122.917 69.7221 122.046 69.7804 121.169C69.8643 120.675 69.8643 120.675 70.3529 119.942Z" fill="#242424"/>
<path d="M34.9322 111.392C35.3284 111.788 35.2082 112.228 35.2089 112.774C35.2092 113.003 35.2096 113.233 35.2099 113.469C35.2089 113.711 35.208 113.953 35.207 114.201C35.208 114.443 35.2089 114.684 35.2099 114.933C35.2096 115.163 35.2092 115.392 35.2089 115.629C35.2086 115.841 35.2084 116.053 35.2081 116.272C35.1765 116.766 35.1765 116.766 34.9322 117.011C34.5252 117.021 34.1178 117.021 33.7108 117.011C33.6573 116.884 33.6037 116.757 33.5486 116.626C32.807 114.995 31.7915 113.89 30.0733 113.225C28.1248 112.76 26.2456 113.064 24.4281 113.835C24.4281 113.996 24.4281 114.157 24.4281 114.324C24.2669 114.324 24.1057 114.324 23.9395 114.324C23.2217 116.37 22.7646 118.096 23.68 120.14C23.7679 120.313 23.8557 120.486 23.9462 120.664C24.1797 121.155 24.315 121.611 24.4281 122.141C24.5893 122.141 24.7506 122.141 24.9167 122.141C25.2316 122.497 25.2316 122.497 25.5579 122.965C25.6669 123.118 25.7758 123.271 25.8881 123.429C26.1381 123.85 26.1381 123.85 26.1381 124.339C26.2684 124.389 26.3988 124.439 26.5331 124.491C27.3593 124.969 27.9532 125.624 28.6114 126.309C29.4836 127.272 29.4836 127.272 30.5351 128.003C30.5351 128.164 30.5351 128.326 30.5351 128.492C30.6699 128.545 30.8047 128.598 30.9435 128.652C31.709 129.094 32.2045 129.668 32.7947 130.324C32.9068 130.446 33.0189 130.568 33.1344 130.693C33.9551 131.604 33.9551 131.604 33.9551 132.156C34.1163 132.156 34.2775 132.156 34.4436 132.156C36.5573 134.894 37.5947 137.757 37.375 141.194C37.073 142.784 36.4265 144.174 35.665 145.592C35.5038 145.592 35.3426 145.592 35.1765 145.592C35.116 145.735 35.0556 145.879 34.9933 146.027C34.6401 146.653 34.2755 146.98 33.7108 147.424C33.5395 147.562 33.3682 147.701 33.1917 147.843C31.1298 149.121 29.262 149.431 26.8557 149.408C26.5665 149.407 26.2774 149.406 25.9795 149.404C23.0635 149.335 20.1398 148.719 17.8325 146.813C17.6722 146.196 17.6722 146.196 17.7104 145.5C17.723 145.245 17.7356 144.99 17.7486 144.727C17.8906 143.297 18.0862 141.879 18.3211 140.462C18.7241 140.462 19.1272 140.462 19.5425 140.462C19.7823 140.935 20.0213 141.408 20.2601 141.881C20.3933 142.145 20.5265 142.409 20.6637 142.68C21.0082 143.393 21.0082 143.393 21.2525 144.126C21.4137 144.126 21.5749 144.126 21.741 144.126C21.741 144.287 21.741 144.448 21.741 144.614C21.9022 144.614 22.0635 144.614 22.2296 144.614C22.2296 144.776 22.2296 144.937 22.2296 145.103C22.4462 145.173 22.6629 145.244 22.8861 145.317C23.6953 145.592 23.6953 145.592 24.243 145.848C25.0966 146.142 25.8319 146.154 26.7335 146.156C27.2016 146.163 27.2016 146.163 27.6791 146.169C28.6396 146.074 29.2148 145.82 30.0466 145.347C30.2884 145.267 30.5303 145.186 30.7794 145.103C30.7794 144.942 30.7794 144.78 30.7794 144.614C30.9406 144.614 31.1019 144.614 31.268 144.614C32.1502 142.004 32.1261 140.258 31.0418 137.737C29.5314 134.7 26.6115 132.388 24.1638 130.12C23.3369 129.349 22.5153 128.583 21.741 127.759C21.741 127.598 21.741 127.437 21.741 127.27C21.5798 127.27 21.4186 127.27 21.2525 127.27C19.0333 124.844 18.1205 121.832 18.1787 118.61C18.3259 115.77 19.4683 113.873 21.5235 111.967C25.4306 108.788 30.6207 109.33 34.9322 111.392Z" fill="#242424"/>
<path d="M148.325 59.513C148.658 59.5125 148.658 59.5125 148.998 59.512C150.92 59.5419 152.58 59.9018 154.386 60.5817C154.386 60.7429 154.386 60.9042 154.386 61.0703C154.552 61.0904 154.718 61.1106 154.89 61.1313C155.821 61.3691 156.497 61.7929 157.317 62.2917C157.317 62.4529 157.317 62.6141 157.317 62.7802C157.463 62.8508 157.609 62.9213 157.76 62.994C158.294 63.2688 158.294 63.2688 159.027 63.7574C159.027 63.9186 159.027 64.0798 159.027 64.2459C159.188 64.2459 159.35 64.2459 159.516 64.2459C159.895 64.7009 160.234 65.1491 160.569 65.6353C160.667 65.7775 160.765 65.9197 160.866 66.0662C162.102 67.9246 163.059 70.0562 163.18 72.3072C163.198 72.5597 163.216 72.8123 163.234 73.0725C163.247 73.354 163.259 73.6355 163.271 73.9256C163.283 74.1907 163.295 74.4558 163.308 74.729C163.129 75.7811 162.813 76.0658 161.958 76.7043C161.081 76.8849 160.217 76.8686 159.324 76.8584C159.058 76.8602 158.793 76.8619 158.519 76.8637C157.642 76.8678 156.766 76.8631 155.889 76.8579C155.279 76.8581 154.67 76.8587 154.061 76.8597C152.621 76.8605 151.18 76.8551 149.74 76.8475C148.429 76.8411 147.117 76.8427 145.805 76.8465C144.385 76.8503 142.964 76.8487 141.544 76.8445C140.94 76.8433 140.336 76.8434 139.732 76.8449C138.888 76.8462 138.045 76.8413 137.202 76.8346C136.952 76.8362 136.701 76.8378 136.443 76.8394C134.752 76.8165 134.752 76.8165 133.963 76.2381C133.069 74.899 133.259 73.4123 133.473 71.8597C133.981 69.4798 135.152 66.5665 136.798 64.7345C136.959 64.7345 137.12 64.7345 137.286 64.7345C137.351 64.5896 137.416 64.4448 137.483 64.2955C138.366 62.6668 140.072 61.8049 141.668 60.9939C141.828 60.9115 141.988 60.8291 142.153 60.7442C144.154 59.7673 146.115 59.5097 148.325 59.513ZM139.869 68.3357C139.152 69.3637 138.263 70.7779 138.263 72.0629C144.873 72.0629 151.484 72.0629 158.294 72.0629C158.096 71.0728 157.914 70.4751 157.47 69.6048C157.367 69.4005 157.264 69.1961 157.159 68.9855C156.84 68.4191 156.521 67.9135 156.096 67.4216C155.934 67.4216 155.773 67.4216 155.607 67.4216C155.529 67.2071 155.529 67.2071 155.45 66.9884C155 66.2501 154.477 65.9849 153.729 65.5589C153.481 65.4147 153.234 65.2705 152.978 65.1219C148.266 62.814 143.116 64.4755 139.869 68.3357Z" fill="#E4002B"/>
<path d="M220.586 110.171C220.83 110.659 220.83 110.659 220.612 111.385C220.448 111.812 220.448 111.812 220.28 112.247C220.12 112.674 220.12 112.674 219.956 113.11C219.609 113.835 219.609 113.835 218.876 114.324C218.513 114.203 218.513 114.203 218.143 114.079C215.741 113.707 213.352 113.545 210.921 113.545C210.591 113.545 210.591 113.545 210.253 113.544C208.861 113.556 207.576 113.679 206.173 113.835C206.173 117.785 206.173 121.735 206.173 125.805C209.239 125.809 209.239 125.809 212.295 125.698C212.5 125.687 212.704 125.676 212.914 125.665C214.659 125.57 216.401 125.452 218.143 125.316C218.222 126.971 217.973 128.162 217.41 129.713C216.631 129.679 215.853 129.643 215.074 129.606C214.855 129.597 214.637 129.587 214.411 129.577C214.197 129.567 213.982 129.557 213.76 129.546C213.564 129.537 213.369 129.528 213.167 129.519C212.691 129.482 212.216 129.422 211.744 129.351C210.625 129.199 209.514 129.14 208.387 129.087C208.173 129.077 207.96 129.066 207.74 129.055C207.217 129.03 206.695 129.005 206.173 128.98C205.98 138.427 205.98 138.427 206.815 147.822C206.845 148.053 206.875 148.284 206.906 148.523C206.473 148.956 205.843 148.799 205.257 148.8C204.972 148.8 204.688 148.8 204.395 148.801C204.095 148.8 203.795 148.799 203.486 148.798C203.186 148.799 202.887 148.8 202.578 148.801C202.293 148.8 202.008 148.8 201.715 148.8C201.452 148.799 201.189 148.799 200.917 148.799C200.31 148.767 200.31 148.767 200.066 148.523C200.082 148.034 200.116 147.545 200.158 147.057C200.18 146.79 200.202 146.523 200.225 146.248C200.268 145.789 200.313 145.331 200.371 144.873C200.558 143.393 200.591 141.934 200.59 140.443C200.591 140.181 200.592 139.919 200.593 139.65C200.595 138.789 200.595 137.928 200.596 137.067C200.597 136.463 200.597 135.859 200.598 135.255C200.6 133.989 200.6 132.724 200.6 131.458C200.6 129.848 200.603 128.239 200.608 126.63C200.61 125.381 200.611 124.133 200.611 122.884C200.611 122.291 200.612 121.699 200.614 121.106C200.623 118.08 200.581 115.098 200.216 112.09C200.158 111.614 200.111 111.137 200.066 110.659C200.501 110.225 201.138 110.373 201.726 110.365C202.181 110.358 202.181 110.358 202.646 110.35C202.982 110.346 203.317 110.342 203.653 110.338C203.998 110.333 204.343 110.328 204.688 110.322C205.416 110.312 206.144 110.302 206.871 110.292C207.791 110.28 208.71 110.267 209.63 110.254C213.282 110.2 216.933 110.15 220.586 110.171Z" fill="#252525"/>
<path d="M125.912 119.652C126.286 119.647 126.286 119.647 126.668 119.642C129.282 119.639 131.466 120.101 133.622 121.652C135.525 123.583 136.298 125.382 136.355 128.08C136.329 130.183 135.846 131.782 134.843 133.622C134.682 133.622 134.521 133.622 134.354 133.622C134.291 133.766 134.227 133.91 134.161 134.058C132.974 136.236 130.518 137.004 128.278 137.665C127.686 137.79 127.147 137.802 126.541 137.798C126.313 137.798 126.085 137.797 125.85 137.796C125.613 137.794 125.377 137.792 125.133 137.79C124.893 137.789 124.652 137.788 124.405 137.786C123.813 137.784 123.221 137.78 122.629 137.775C122.652 138.852 122.678 139.93 122.707 141.007C122.716 141.373 122.724 141.739 122.732 142.104C122.743 142.633 122.757 143.162 122.772 143.691C122.784 144.167 122.784 144.167 122.795 144.652C122.855 145.373 122.949 145.927 123.139 146.611C123.347 147.485 123.38 147.926 123.118 148.767C122.11 148.774 121.102 148.779 120.095 148.782C119.664 148.786 119.664 148.786 119.224 148.789C118.95 148.789 118.676 148.79 118.394 148.791C118.014 148.793 118.014 148.793 117.627 148.795C117.011 148.767 117.011 148.767 116.522 148.523C116.601 148.21 116.681 147.898 116.762 147.576C117.037 146.334 117.08 145.153 117.074 143.886C117.075 143.653 117.075 143.42 117.076 143.18C117.078 142.416 117.077 141.652 117.075 140.888C117.076 140.354 117.076 139.819 117.077 139.285C117.078 138.168 117.077 137.051 117.074 135.933C117.071 134.504 117.073 133.076 117.076 131.647C117.078 130.544 117.077 129.442 117.076 128.339C117.076 127.812 117.076 127.285 117.077 126.759C117.078 126.022 117.076 125.285 117.074 124.548C117.075 124.332 117.076 124.116 117.077 123.894C117.068 122.576 116.862 121.458 116.522 120.186C116.909 119.799 117.32 119.888 117.858 119.865C118.09 119.854 118.323 119.844 118.563 119.834C118.943 119.819 118.943 119.819 119.331 119.805C119.591 119.795 119.851 119.785 120.119 119.774C122.05 119.706 123.98 119.665 125.912 119.652ZM122.629 122.141C122.629 126.494 122.629 130.847 122.629 135.332C126.239 135.527 126.239 135.527 128.98 133.866C130.731 131.683 130.809 129.098 130.579 126.416C130.338 124.861 129.735 123.64 128.492 122.629C126.968 121.776 126.968 121.776 122.629 122.141Z" fill="#242424"/>
<path d="M188.829 119.698C189.148 120.654 188.908 120.929 188.478 121.82C188.363 122.063 188.247 122.305 188.128 122.556C188.037 122.741 187.946 122.927 187.852 123.118C187.566 123.065 187.566 123.065 187.274 123.011C184.127 122.506 181.021 122.596 177.837 122.629C177.837 125.773 177.837 128.917 177.837 132.156C182.359 131.972 182.359 131.972 186.875 131.668C187.13 132.454 187.101 132.975 186.906 133.774C186.861 133.964 186.816 134.154 186.77 134.349C186.631 134.843 186.631 134.843 186.386 135.332C185.648 135.303 184.911 135.272 184.173 135.24C183.97 135.233 183.768 135.225 183.56 135.217C181.615 135.129 179.792 134.86 177.837 134.599C177.837 138.307 177.837 142.015 177.837 145.836C182.811 145.576 182.811 145.576 187.708 144.758C188.341 144.614 188.341 144.614 189.074 144.614C189.113 145.711 189.079 146.668 188.827 147.738C188.76 148.029 188.76 148.029 188.691 148.325C188.656 148.471 188.621 148.617 188.585 148.767C186.455 148.773 184.325 148.777 182.196 148.78C181.207 148.781 180.218 148.783 179.229 148.786C178.276 148.788 177.322 148.79 176.369 148.79C176.004 148.791 175.64 148.792 175.275 148.793C174.766 148.795 174.257 148.795 173.748 148.795C173.458 148.795 173.168 148.796 172.869 148.797C172.218 148.767 172.218 148.767 171.974 148.523C172.048 147.952 172.131 147.382 172.218 146.813C172.964 138.349 173.502 129.164 172.065 120.753C172.035 120.566 172.005 120.379 171.974 120.186C172.401 119.759 172.999 119.885 173.581 119.865C173.876 119.854 174.171 119.844 174.474 119.834C174.801 119.824 175.128 119.814 175.455 119.805C175.619 119.799 175.783 119.794 175.952 119.789C180.244 119.655 184.536 119.674 188.829 119.698Z" fill="#252525"/>
<path d="M249.9 119.942C250.934 119.936 251.969 119.932 253.004 119.929C253.356 119.927 253.708 119.926 254.06 119.924C254.566 119.921 255.071 119.919 255.577 119.918C255.882 119.917 256.186 119.916 256.5 119.914C257.228 119.942 257.228 119.942 257.717 120.186C257.884 120.755 258.046 121.325 258.205 121.896C258.446 122.387 258.689 122.876 258.938 123.362C258.938 123.523 258.938 123.684 258.938 123.85C259.099 123.85 259.26 123.85 259.427 123.85C260.404 125.172 260.404 125.172 260.404 125.805C260.565 125.805 260.726 125.805 260.892 125.805C261.29 126.311 261.658 126.817 262.022 127.347C262.241 127.659 262.461 127.972 262.68 128.285C262.899 128.598 263.117 128.911 263.335 129.225C263.699 129.746 264.066 130.264 264.434 130.782C264.588 131 264.742 131.219 264.9 131.444C265.028 131.598 265.157 131.753 265.289 131.912C265.45 131.912 265.612 131.912 265.778 131.912C265.939 131.67 266.1 131.428 266.266 131.179C266.428 131.179 266.589 131.179 266.755 131.179C266.755 130.937 266.755 130.695 266.755 130.446C266.916 130.446 267.077 130.446 267.244 130.446C267.299 130.28 267.354 130.114 267.411 129.942C267.808 129.054 268.301 128.241 268.953 127.515C269.115 127.515 269.276 127.515 269.442 127.515C269.537 127.253 269.537 127.253 269.633 126.985C269.949 126.251 270.328 125.65 270.786 124.996C270.934 124.78 271.083 124.564 271.236 124.342C271.369 124.18 271.503 124.018 271.641 123.85C271.802 123.85 271.963 123.85 272.129 123.85C272.378 123.229 272.626 122.607 272.871 121.984C272.995 121.668 272.995 121.668 273.122 121.347C273.205 121.134 273.288 120.921 273.374 120.702C273.595 120.186 273.595 120.186 273.839 119.942C274.203 119.921 274.567 119.916 274.932 119.918C275.151 119.919 275.371 119.92 275.597 119.921C275.944 119.924 275.944 119.924 276.297 119.927C276.645 119.928 276.645 119.928 277 119.93C277.575 119.933 278.15 119.937 278.725 119.942C278.725 120.919 278.725 120.919 278.306 121.371C278.037 121.586 278.037 121.586 277.763 121.805C277.031 122.369 277.031 122.369 276.526 123.118C276.365 123.118 276.204 123.118 276.038 123.118C275.975 123.292 275.912 123.467 275.847 123.647C275.531 124.381 275.151 124.983 274.694 125.637C274.545 125.852 274.397 126.068 274.244 126.29C274.11 126.453 273.977 126.615 273.839 126.782C273.678 126.782 273.517 126.782 273.351 126.782C273.288 126.957 273.225 127.131 273.16 127.311C272.844 128.045 272.464 128.647 272.007 129.301C271.858 129.517 271.71 129.732 271.557 129.955C271.423 130.117 271.29 130.279 271.152 130.446C270.991 130.446 270.83 130.446 270.663 130.446C270.608 130.571 270.553 130.696 270.496 130.825C270.047 131.661 269.494 132.411 268.938 133.179C268.826 133.336 268.714 133.492 268.598 133.654C267.77 134.805 267.77 134.805 267.488 135.087C267.463 135.831 267.454 136.569 267.455 137.313C267.455 137.649 267.455 137.649 267.455 137.993C267.454 138.469 267.455 138.946 267.456 139.422C267.457 140.15 267.456 140.877 267.454 141.605C267.455 142.067 267.455 142.53 267.455 142.992C267.455 143.318 267.455 143.318 267.454 143.651C267.456 144.816 267.456 144.816 267.612 145.968C267.795 146.884 267.732 147.833 267.732 148.767C265.717 148.767 263.701 148.767 261.625 148.767C261.464 148.445 261.303 148.122 261.136 147.79C261.217 147.629 261.298 147.468 261.381 147.301C261.58 145.855 261.706 144.407 261.812 142.951C261.851 142.424 261.893 141.897 261.939 141.37C262.277 137.178 262.277 137.178 260.449 133.53C260.069 133.091 259.68 132.669 259.273 132.255C258.205 131.162 258.205 131.162 258.205 130.446C258.044 130.446 257.883 130.446 257.717 130.446C257.417 130.113 257.417 130.113 257.075 129.637C256.948 129.461 256.821 129.285 256.69 129.103C256.545 128.902 256.4 128.7 256.251 128.492C256.076 128.257 255.901 128.023 255.72 127.781C255.543 127.542 255.365 127.303 255.182 127.057C255.014 126.831 254.846 126.604 254.673 126.372C254.297 125.805 254.297 125.805 254.297 125.316C254.135 125.316 253.974 125.316 253.808 125.316C253.536 124.932 253.536 124.932 253.243 124.415C252.317 122.88 251.015 121.815 249.655 120.675C249.736 120.433 249.816 120.191 249.9 119.942Z" fill="#242424"/>
<path d="M146.424 119.914C146.806 119.916 146.806 119.916 147.196 119.918C147.47 119.919 147.745 119.92 148.028 119.921C148.317 119.923 148.607 119.925 148.905 119.927C149.195 119.928 149.485 119.929 149.784 119.93C150.504 119.933 151.223 119.937 151.943 119.942C152.138 120.745 152.211 121.093 151.943 121.896C151.908 122.221 151.884 122.547 151.868 122.873C151.854 123.164 151.854 123.164 151.838 123.461C151.829 123.67 151.82 123.879 151.81 124.095C151.795 124.421 151.795 124.421 151.779 124.755C151.681 126.979 151.644 129.202 151.621 131.427C151.616 131.847 151.611 132.267 151.606 132.688C151.593 133.775 151.58 134.863 151.569 135.95C151.556 137.067 151.543 138.184 151.529 139.301C151.503 141.479 151.478 143.658 151.454 145.836C152.426 145.764 153.397 145.691 154.368 145.616C154.64 145.596 154.912 145.576 155.193 145.556C157.06 145.411 158.858 145.158 160.686 144.757C161.455 144.617 162.156 144.588 162.936 144.614C162.82 145.673 162.674 146.699 162.437 147.738C162.393 147.932 162.349 148.126 162.304 148.325C162.271 148.471 162.237 148.617 162.203 148.767C160.073 148.773 157.943 148.777 155.813 148.78C154.825 148.781 153.836 148.783 152.847 148.786C151.893 148.788 150.94 148.79 149.986 148.79C149.622 148.791 149.257 148.792 148.893 148.793C148.384 148.795 147.875 148.795 147.366 148.795C147.076 148.795 146.786 148.796 146.487 148.797C145.836 148.767 145.836 148.767 145.592 148.523C145.645 147.999 145.7 147.475 145.764 146.952C146.22 142.957 146.119 138.877 146.112 134.864C146.111 133.957 146.112 133.05 146.114 132.143C146.155 126.581 146.155 126.581 145.69 121.045C145.657 120.762 145.625 120.478 145.592 120.186C145.836 119.942 145.836 119.942 146.424 119.914Z" fill="#262626"/>
<path d="M232.907 119.896C233.193 119.893 233.479 119.89 233.774 119.887C234.047 119.887 234.319 119.886 234.601 119.886C234.852 119.885 235.104 119.884 235.363 119.883C235.976 119.942 235.976 119.942 236.464 120.431C236.414 120.972 236.414 120.972 236.266 121.637C235.63 124.535 235.682 127.498 235.654 130.449C235.649 130.894 235.644 131.339 235.639 131.785C235.625 132.948 235.613 134.111 235.601 135.275C235.589 136.465 235.575 137.656 235.562 138.847C235.536 141.176 235.511 143.506 235.487 145.836C236.541 145.765 237.595 145.691 238.649 145.617C239.094 145.588 239.094 145.588 239.548 145.557C241.436 145.423 243.219 145.192 245.058 144.734C245.78 144.609 246.267 144.666 246.968 144.859C246.893 145.464 246.817 146.07 246.739 146.676C246.718 146.848 246.697 147.021 246.675 147.199C246.507 148.495 246.507 148.495 246.235 148.767C245.726 148.79 245.215 148.796 244.705 148.795C244.466 148.795 244.466 148.795 244.221 148.795C243.691 148.795 243.161 148.793 242.631 148.791C242.265 148.791 241.898 148.79 241.531 148.79C240.565 148.789 239.598 148.787 238.632 148.784C237.646 148.781 236.66 148.78 235.675 148.779C233.739 148.776 231.804 148.772 229.869 148.767C229.581 147.915 229.676 147.315 229.849 146.44C230.214 144.238 230.183 142.054 230.178 139.829C230.178 139.371 230.179 138.912 230.179 138.454C230.18 137.498 230.179 136.543 230.177 135.587C230.174 134.371 230.175 133.156 230.178 131.94C230.18 130.995 230.179 130.05 230.178 129.105C230.178 128.657 230.178 128.209 230.179 127.761C230.184 125.393 230.116 123.128 229.705 120.789C229.678 120.59 229.652 120.391 229.624 120.186C230.257 119.554 232.055 119.897 232.907 119.896Z" fill="#252525"/>
<path d="M49.9545 119.91C50.2271 119.909 50.4996 119.909 50.7804 119.909C51.211 119.91 51.211 119.91 51.6502 119.911C51.9363 119.911 52.2224 119.91 52.5171 119.909C52.9264 119.909 52.9264 119.909 53.3439 119.91C53.5957 119.91 53.8474 119.91 54.1068 119.91C54.719 119.942 54.719 119.942 55.2075 120.186C55.1295 120.552 55.1295 120.552 55.0499 120.926C54.239 125.182 54.3731 129.487 54.3959 133.8C54.3992 134.643 54.3979 135.485 54.3966 136.328C54.3958 137.151 54.3974 137.975 54.3998 138.798C54.4007 139.186 54.401 139.573 54.4006 139.961C54.4003 142.186 54.5171 144.33 54.859 146.53C54.9509 147.21 55.0028 147.838 54.9633 148.523C54.719 148.767 54.719 148.767 54.1306 148.795C53.8761 148.794 53.6215 148.792 53.3592 148.791C53.0845 148.79 52.8097 148.789 52.5267 148.789C52.2374 148.787 51.9482 148.785 51.6502 148.782C51.36 148.781 51.0699 148.78 50.7709 148.779C50.0512 148.776 49.3316 148.772 48.612 148.767C48.3247 147.915 48.4194 147.315 48.5926 146.44C48.957 144.238 48.9268 142.054 48.9211 139.829C48.9215 139.371 48.9219 138.912 48.9225 138.454C48.9233 137.498 48.9222 136.543 48.9199 135.587C48.9172 134.371 48.9188 133.156 48.9217 131.94C48.9235 130.995 48.9229 130.05 48.9216 129.105C48.9213 128.657 48.9217 128.209 48.9228 127.761C48.9276 125.393 48.859 123.128 48.4484 120.789C48.4218 120.59 48.3951 120.391 48.3677 120.186C48.7929 119.761 49.3768 119.91 49.9545 119.91Z" fill="#252525"/>
</svg>
