<svg width="371" height="65" viewBox="0 0 371 65" fill="none" xmlns="http://www.w3.org/2000/svg">
<path d="M42.1724 0.00256625C42.3326 0.00213819 42.4928 0.00171013 42.6579 0.0012691C43.186 0.000196406 43.7141 0.00090517 44.2422 0.0017313C44.6103 0.00156668 44.9784 0.00132954 45.3465 0.00102309C46.1176 0.00066318 46.8886 0.00118569 47.6597 0.00232769C48.6465 0.00371818 49.6332 0.00291866 50.62 0.00145501C51.3801 0.00057081 52.1402 0.000853949 52.9003 0.00148622C53.264 0.00164883 53.6278 0.00145044 53.9916 0.000880515C54.5008 0.000257862 55.0099 0.00120926 55.5191 0.00256625C55.8086 0.00276059 56.098 0.00295494 56.3962 0.00315518C57.0906 0.0310941 57.7138 0.118756 58.3885 0.278456C58.3885 0.439681 58.3885 0.600907 58.3885 0.767018C58.5498 0.767018 58.711 0.767018 58.8771 0.767018C59.3743 1.76146 59.418 2.38183 59.1214 3.45411C58.6704 4.21261 58.5086 4.39123 57.6557 4.67551C57.0273 4.69269 56.4059 4.69841 55.7778 4.69078C55.6063 4.68968 55.4349 4.68858 55.2582 4.68744C54.836 4.68457 54.4137 4.68019 53.9915 4.67551C54.0973 5.04914 54.0973 5.04914 54.2052 5.43031C54.5954 6.99328 54.7655 8.59135 54.9686 10.1871C55.0089 10.4971 55.0492 10.8071 55.0908 11.1265C55.2356 12.2406 55.3804 13.3546 55.5222 14.469C55.5864 14.9728 55.6515 15.4765 55.7167 15.9802C55.7739 16.4265 55.7739 16.4265 55.8322 16.8819C55.9258 17.6312 55.9258 17.6312 56.19 18.3553C56.8927 18.6563 56.8927 18.6563 57.7473 18.9049C61.3005 20.0804 64.5103 22.6126 66.9384 25.4394C66.9384 25.6006 66.9384 25.7619 66.9384 25.928C67.0996 25.928 67.2608 25.928 67.4269 25.928C70.1645 29.2791 72.3513 33.9933 72.3126 38.3863C72.6036 38.3852 72.8947 38.3841 73.1946 38.383C75.9371 38.3731 78.6796 38.3658 81.4222 38.361C82.8321 38.3584 84.2421 38.355 85.6521 38.3494C87.0126 38.3441 88.3732 38.3412 89.7337 38.3399C90.253 38.339 90.7722 38.3373 91.2914 38.3346C92.0183 38.3311 92.7452 38.3306 93.4722 38.3308C93.687 38.3291 93.9019 38.3273 94.1233 38.3255C95.1882 38.3291 96.0156 38.3755 96.9849 38.8749C96.9849 39.0361 96.9849 39.1973 96.9849 39.3634C97.1462 39.3634 97.3074 39.3634 97.4735 39.3634C97.5281 39.7089 97.5781 40.0551 97.6262 40.4016C97.6687 40.6907 97.6687 40.6907 97.7121 40.9856C97.7188 41.6643 97.6162 41.9835 97.2292 42.5391C96.3911 43.0845 95.6458 43.1019 94.6605 43.1288C94.355 43.1382 94.0496 43.1477 93.7349 43.1574C93.2578 43.1687 93.2578 43.1687 92.7711 43.1803C92.4493 43.1898 92.1275 43.1992 91.7959 43.2089C91.0014 43.232 90.2069 43.2529 89.4122 43.2719C89.4928 43.5138 89.5735 43.7556 89.6565 44.0048C89.8905 46.3103 89.4448 48.2511 87.9924 50.0813C86.7443 51.4176 85.3526 51.9948 83.5371 52.1157C81.1976 52.1493 79.5856 51.9038 77.8346 50.2931C76.3955 48.7314 75.941 47.3018 75.9462 45.1956C75.9456 44.9431 75.945 44.6905 75.9443 44.4303C75.9768 43.7605 75.9768 43.7605 76.2211 43.0276C74.9313 43.0276 73.6415 43.0276 72.3126 43.0276C72.2874 43.3199 72.2622 43.6121 72.2362 43.9132C71.9662 46.2869 71.5398 48.514 70.3583 50.6004C70.1126 51.0984 69.8684 51.5972 69.6255 52.0966C69.1137 53.1174 68.6175 54.0949 67.9155 54.9974C67.7543 54.9974 67.5931 54.9974 67.4269 54.9974C67.332 55.2076 67.332 55.2076 67.2351 55.422C66.9135 56.0209 66.5452 56.4857 66.0987 56.9975C65.9529 57.1672 65.8071 57.3369 65.6569 57.5118C65.2284 57.9288 65.2284 57.9288 64.4956 58.1731C64.4956 58.3343 64.4956 58.4955 64.4956 58.6616C64.3343 58.6616 64.1731 58.6616 64.007 58.6616C64.007 58.8229 64.007 58.9841 64.007 59.1502C63.5465 59.5215 63.0909 59.8573 62.6024 60.1884C62.4578 60.2866 62.3132 60.3847 62.1642 60.4859C56.758 64.0871 50.3393 65.2426 43.976 64.0358C40.6683 63.278 37.0467 61.8585 34.449 59.6388C34.449 59.4775 34.449 59.3163 34.449 59.1502C34.3029 59.0797 34.1568 59.0091 34.0062 58.9364C33.4719 58.6616 33.4719 58.6616 32.739 58.1731C32.739 58.0118 32.739 57.8506 32.739 57.6845C32.5778 57.6845 32.4166 57.6845 32.2505 57.6845C32.2505 57.5233 32.2505 57.3621 32.2505 57.1959C32.0893 57.1959 31.928 57.1959 31.7619 57.1959C31.3401 56.7322 31.3401 56.7322 30.8764 56.1272C30.6449 55.8296 30.6449 55.8296 30.4088 55.526C30.0519 54.9974 30.0519 54.9974 30.0519 54.5088C29.8907 54.5088 29.7295 54.5088 29.5634 54.5088C27.7282 51.909 26.6772 49.0191 25.8992 45.959C25.8504 45.8057 25.8016 45.6523 25.7513 45.4943C25.5992 44.6856 25.6549 43.8505 25.6549 43.0276C24.2845 43.0276 22.9141 43.0276 21.5021 43.0276C21.7439 43.8741 21.7439 43.8741 21.9907 44.7376C22.0493 46.5888 21.5512 48.3282 20.525 49.8675C20.3638 49.8675 20.2025 49.8675 20.0364 49.8675C20.0364 50.0287 20.0364 50.19 20.0364 50.3561C18.0074 52.0124 16.0244 52.2816 13.4408 52.066C11.1769 51.4251 9.80447 50.1075 8.58575 48.1575C8.0366 46.7524 8.21805 44.9934 8.31093 43.5162C8.39155 43.355 8.47216 43.1937 8.55522 43.0276C8.34701 43.034 8.13881 43.0404 7.92429 43.047C7.14809 43.0679 6.37203 43.0832 5.59563 43.0947C5.26034 43.1009 4.92507 43.1092 4.58988 43.1198C4.10673 43.1347 3.62334 43.1409 3.14 43.1469C2.70441 43.1565 2.70441 43.1565 2.26003 43.1663C1.23973 42.987 0.890794 42.6013 0.24966 41.8062C-0.009889 41.0887 -0.00988899 41.0887 0.00537857 40.3405C0.515649 39.3578 0.933224 38.7953 1.95963 38.3863C2.44992 38.3262 2.44992 38.3262 2.97669 38.3275C3.17741 38.3269 3.37813 38.3262 3.58493 38.3255C3.91202 38.3281 3.91202 38.3281 4.24571 38.3308C4.47696 38.3308 4.70822 38.3307 4.94648 38.3306C5.71047 38.331 6.47441 38.3348 7.23839 38.3386C7.76824 38.3395 8.2981 38.3402 8.82796 38.3407C10.2223 38.3425 11.6166 38.3473 13.0109 38.3528C14.4339 38.3577 15.8568 38.36 17.2797 38.3624C20.0714 38.3677 22.8632 38.376 25.6549 38.3863C25.6521 38.081 25.6493 37.7756 25.6464 37.461C25.6231 34.9375 26.6594 32.5691 27.716 30.325C27.8067 30.1324 27.8973 29.9397 27.9908 29.7412C28.5763 28.5414 29.2189 27.4624 30.0519 26.4165C30.2132 26.4165 30.3744 26.4165 30.5405 26.4165C30.6041 26.2339 30.6677 26.0513 30.7333 25.8631C32.2056 22.5385 37.0248 20.0565 40.2564 18.7618C40.8003 18.5995 40.8003 18.5995 41.7774 18.5995C41.8106 18.3513 41.8438 18.1031 41.8779 17.8474C43.0927 8.76416 43.0927 8.76416 43.7317 4.67551C43.499 4.68402 43.2663 4.69252 43.0265 4.70128C42.7201 4.70789 42.4137 4.7145 42.0981 4.72132C41.6432 4.73407 41.6432 4.73407 41.1791 4.74708C40.0182 4.65129 39.4123 4.26462 38.6018 3.45411C38.4904 2.32141 38.4436 1.76533 39.0293 0.782286C39.9813 -0.0903985 40.9156 0.00341073 42.1724 0.00256625ZM48.373 4.67551C47.8926 6.63182 47.6342 8.60284 47.3806 10.5993C47.2969 11.2521 47.2124 11.9048 47.1278 12.5574C47.0912 12.844 47.0547 13.1307 47.017 13.426C46.9073 14.2025 46.9073 14.2025 46.7714 14.7939C46.6253 15.6436 46.6631 16.5159 46.6631 17.3781C48.1947 17.3781 49.7263 17.3781 51.3044 17.3781C51.1027 15.5626 50.8841 13.7509 50.6511 11.9394C50.5873 11.4427 50.5243 10.9458 50.4613 10.449C50.2142 8.51673 49.9322 6.59419 49.5944 4.67551C49.1914 4.67551 48.7883 4.67551 48.373 4.67551ZM36.8918 26.1722C36.7296 26.2973 36.5675 26.4223 36.4004 26.5511C36.0635 26.8173 35.7423 27.1031 35.4261 27.3937C35.4261 27.5549 35.4261 27.7161 35.4261 27.8822C35.2649 27.8822 35.1037 27.8822 34.9376 27.8822C34.9376 28.0434 34.9376 28.2047 34.9376 28.3708C34.7763 28.3708 34.6151 28.3708 34.449 28.3708C34.0723 28.8363 33.7314 29.2967 33.3955 29.7907C33.2969 29.9356 33.1983 30.0804 33.0967 30.2297C32.2461 31.5074 31.5593 32.789 31.0291 34.2335C30.9333 34.4895 30.8376 34.7455 30.739 35.0093C29.2261 39.7318 29.7106 44.8821 31.8993 49.2873C32.1728 49.8099 32.4521 50.3294 32.739 50.8446C32.9313 51.1951 32.9313 51.1951 33.1274 51.5527C33.2979 51.8068 33.2979 51.8068 33.4719 52.066C33.6331 52.066 33.7943 52.066 33.9604 52.066C34.0159 52.197 34.0713 52.328 34.1284 52.463C34.5603 53.2446 35.0687 53.8469 35.6704 54.5088C35.8316 54.5088 35.9929 54.5088 36.159 54.5088C36.159 54.6701 36.159 54.8313 36.159 54.9974C39.8493 58.1834 44.7776 60.1167 49.7013 59.8372C52.5915 59.5346 55.2243 58.809 57.9 57.6845C57.9 57.5233 57.9 57.3621 57.9 57.1959C58.1192 57.143 58.1192 57.143 58.3427 57.0891C58.77 56.9792 59.1914 56.8469 59.61 56.7074C59.61 56.5462 59.61 56.3849 59.61 56.2188C59.7822 56.1659 59.9544 56.113 60.1319 56.0585C61.0017 55.6503 61.5926 55.0673 62.2512 54.3867C62.3739 54.2648 62.4965 54.143 62.6229 54.0174C63.3094 53.4001 63.3094 53.4001 63.5184 52.5546C63.6797 52.5546 63.8409 52.5546 64.007 52.5546C67.1832 48.4184 68.5081 43.2417 67.8468 38.096C67.1542 33.7377 64.9164 29.0779 61.3199 26.4165C61.1587 26.4165 60.9975 26.4165 60.8314 26.4165C60.8314 26.2553 60.8314 26.0941 60.8314 25.928C57.0448 22.5427 51.852 21.7337 46.9583 21.9794C43.1538 22.262 39.8347 23.8053 36.8918 26.1722ZM13.4408 43.7605C12.9097 44.2916 12.7336 44.5948 12.6011 45.333C12.7732 46.3412 13.3335 46.9225 14.1431 47.5163C14.8927 47.7368 15.3816 47.6424 16.1279 47.4247C16.7504 46.9536 17.0414 46.6046 17.3341 45.8827C17.3559 44.9417 17.0644 44.3349 16.6165 43.5162C15.4634 42.6874 14.5865 43.0922 13.4408 43.7605ZM80.8624 44.0048C80.3809 44.6328 80.3711 44.9169 80.4044 45.7147C80.6545 46.5725 80.8757 46.8996 81.5952 47.4247C82.316 47.681 82.7899 47.7534 83.5266 47.5239C84.0177 47.2904 84.3801 47.0708 84.7709 46.6919C85.0543 45.8481 85.0543 45.8481 85.0152 44.9819C85.0152 44.8055 85.0152 44.6292 85.0152 44.4475C84.6015 43.6977 83.8376 43.3465 83.0609 43.0276C82.0654 43.0276 81.6428 43.407 80.8624 44.0048Z" fill="#E4002B"/>
<path d="M48.907 25.8364C49.2404 25.8359 49.2404 25.8359 49.5804 25.8354C51.5027 25.8653 53.1623 26.2253 54.9683 26.9051C54.9683 27.0664 54.9683 27.2276 54.9683 27.3937C55.1345 27.4138 55.3008 27.434 55.4721 27.4548C56.4033 27.6925 57.079 28.1163 57.8996 28.6151C57.8996 28.7763 57.8996 28.9376 57.8996 29.1037C58.0457 29.1742 58.1919 29.2447 58.3424 29.3174C58.8768 29.5922 58.8768 29.5922 59.6096 30.0808C59.6096 30.242 59.6096 30.4032 59.6096 30.5693C59.7708 30.5693 59.9321 30.5693 60.0982 30.5693C60.4772 31.0243 60.8164 31.4726 61.1516 31.9587C61.2497 32.1009 61.3478 32.2431 61.4489 32.3896C62.6848 34.248 63.6418 36.3797 63.7624 38.6306C63.7803 38.8832 63.7983 39.1357 63.8168 39.3959C63.829 39.6774 63.8413 39.9589 63.854 40.249C63.8659 40.5141 63.8779 40.7793 63.8902 41.0524C63.7118 42.1045 63.3957 42.3892 62.541 43.0277C61.6634 43.2084 60.7997 43.1921 59.9063 43.1818C59.6408 43.1836 59.3754 43.1853 59.1019 43.1871C58.2249 43.1913 57.3482 43.1865 56.4712 43.1813C55.8618 43.1815 55.2525 43.1821 54.6432 43.1831C53.203 43.1839 51.763 43.1785 50.3228 43.1709C49.0111 43.1645 47.6995 43.1661 46.3878 43.1699C44.9672 43.1738 43.5467 43.1721 42.1262 43.1679C41.5223 43.1667 40.9183 43.1668 40.3143 43.1683C39.471 43.1697 38.6279 43.1647 37.7846 43.158C37.5342 43.1596 37.2838 43.1612 37.0258 43.1628C35.3347 43.1399 35.3347 43.1399 34.5455 42.5615C33.6515 41.2224 33.8414 39.7357 34.0555 38.1831C34.5634 35.8032 35.7349 32.89 37.38 31.0579C37.5412 31.0579 37.7025 31.0579 37.8686 31.0579C37.9335 30.9131 37.9983 30.7682 38.0652 30.619C38.9489 28.9902 40.6549 28.1283 42.2504 27.3174C42.4105 27.2349 42.5707 27.1525 42.7357 27.0676C44.7363 26.0907 46.6971 25.8331 48.907 25.8364ZM40.4517 34.6591C39.7349 35.6871 38.8457 37.1013 38.8457 38.3863C45.456 38.3863 52.0662 38.3863 58.8768 38.3863C58.6787 37.3962 58.4962 36.7986 58.0523 35.9283C57.9497 35.7239 57.847 35.5195 57.7412 35.309C57.4226 34.7426 57.1032 34.237 56.6782 33.745C56.517 33.745 56.3558 33.745 56.1897 33.745C56.1117 33.5306 56.1117 33.5306 56.0322 33.3118C55.5828 32.5735 55.0595 32.3083 54.3118 31.8824C54.0639 31.7381 53.8161 31.5939 53.5608 31.4453C48.8483 29.1374 43.6988 30.799 40.4517 34.6591Z" fill="#E4002B"/>
<path d="M161.664 25.2279C162.381 25.1392 162.381 25.1392 163.236 25.1516C163.659 25.153 163.659 25.153 164.091 25.1544C164.84 25.2279 164.84 25.2279 165.572 25.7165C165.905 26.3233 166.21 26.9235 166.504 27.5486C167.136 28.8829 167.828 30.1526 168.596 31.4138C169.31 32.5915 169.99 33.7878 170.672 34.9839C170.817 35.2347 170.962 35.4855 171.111 35.7439C171.247 35.984 171.384 36.2241 171.525 36.4715C171.649 36.6875 171.772 36.9035 171.9 37.1261C172.168 37.6863 172.168 37.6863 172.168 38.4191C172.329 38.4191 172.49 38.4191 172.657 38.4191C173.389 39.7932 173.389 39.7932 173.389 40.6176C173.551 40.6176 173.712 40.6176 173.878 40.6176C174.007 40.884 174.007 40.884 174.138 41.1558C174.936 42.7805 175.793 44.3467 176.731 45.8945C177.054 46.4804 177.054 46.4804 177.054 46.9689C177.753 46.6194 177.885 46.0599 178.212 45.3802C178.957 43.9011 179.842 42.4929 180.685 41.068C181.48 39.7169 182.237 38.3665 182.916 36.9534C183.078 36.9534 183.239 36.9534 183.405 36.9534C183.424 36.7887 183.442 36.624 183.461 36.4544C183.707 35.5106 184.188 34.7617 184.703 33.9457C185.475 32.693 186.199 31.4475 186.825 30.1135C186.986 30.1135 187.147 30.1135 187.313 30.1135C187.36 29.8992 187.36 29.8992 187.408 29.6805C187.648 28.8077 188.093 28.0526 188.52 27.2585C188.652 27.006 188.652 27.006 188.786 26.7485C189.452 25.5024 189.452 25.5024 190.001 25.2279C190.458 25.2107 190.917 25.2073 191.375 25.2127C191.742 25.216 191.742 25.216 192.117 25.2193C192.399 25.2236 192.399 25.2236 192.688 25.2279C193.281 26.4318 193.373 27.6878 193.527 29.0028C193.573 29.3747 193.573 29.3747 193.62 29.754C193.718 30.5455 193.814 31.3371 193.909 32.1289C194.005 32.9171 194.1 33.7052 194.198 34.4932C194.258 34.9828 194.317 35.4725 194.376 35.9623C194.529 37.2112 194.735 38.4238 195.023 39.6488C195.16 40.2618 195.243 40.8732 195.313 41.4974C195.354 41.8557 195.354 41.8557 195.397 42.2211C195.425 42.4679 195.453 42.7146 195.482 42.9688C195.751 45.2287 196.101 47.4336 196.596 49.656C196.639 49.8705 196.681 50.0849 196.725 50.3059C196.961 51.4726 197.313 52.4856 197.818 53.5645C197.329 54.0531 197.329 54.0531 196.694 54.1124C196.432 54.1114 196.17 54.1104 195.901 54.1094C195.617 54.1089 195.333 54.1084 195.04 54.108C194.743 54.105 194.445 54.102 194.138 54.0989C193.69 54.0987 193.69 54.0987 193.233 54.0984C191.012 54.0873 191.012 54.0873 190.733 53.8088C190.728 53.3202 190.736 52.8315 190.749 52.3431C190.767 49.3035 190.266 46.3279 189.8 43.3313C189.486 41.2662 189.252 39.1928 189.024 37.1166C188.995 36.859 188.967 36.6014 188.938 36.336C188.9 35.9931 188.9 35.9931 188.863 35.6433C188.781 35.0135 188.667 34.3987 188.535 33.7778C187.689 35.3107 186.863 36.8474 186.092 38.4191C185.931 38.4191 185.77 38.4191 185.603 38.4191C185.573 38.5627 185.542 38.7062 185.51 38.8542C185.269 39.7229 184.785 40.4681 184.336 41.2436C184.134 41.5969 183.933 41.9503 183.731 42.3037C183.633 42.4756 183.535 42.6475 183.433 42.8246C183.085 43.4383 182.748 44.0577 182.413 44.6788C181.762 45.8793 181.086 47.0644 180.404 48.2468C179.998 48.9513 179.605 49.6563 179.252 50.3889C179.091 50.3889 178.93 50.3889 178.764 50.3889C178.722 50.5953 178.722 50.5953 178.68 50.8059C178.499 51.437 178.233 51.9409 177.909 52.5111C177.8 52.7035 177.692 52.8959 177.58 53.0941C177.298 53.5645 177.298 53.5645 177.054 53.8088C176.13 54.0325 175.47 53.9768 174.611 53.5645C173.817 52.4465 173.274 51.2425 172.699 50.0013C172.233 49.043 171.682 48.1391 171.13 47.2285C170.373 45.9631 169.666 44.6951 169.026 43.3658C168.613 42.5483 168.132 41.7758 167.655 40.9945C167.156 40.1627 166.698 39.3115 166.238 38.4582C165.382 36.8884 164.497 35.3346 163.618 33.7778C162.972 37.2423 162.591 40.7204 162.236 44.2253C162.164 44.9101 162.084 45.593 161.998 46.2762C161.682 48.7984 161.61 51.2675 161.664 53.8088C161.103 54.0893 160.789 54.0813 160.166 54.0769C159.969 54.0762 159.772 54.0754 159.569 54.0746C159.261 54.0715 159.261 54.0715 158.946 54.0684C158.739 54.0673 158.531 54.0661 158.317 54.065C157.804 54.0621 157.291 54.0577 156.778 54.0531C156.552 53.4498 156.452 53.0184 156.717 52.4153C156.802 52.2636 156.887 52.112 156.975 51.9557C157.656 50.7049 157.826 49.4342 158.03 48.0377C158.071 47.7767 158.112 47.5158 158.154 47.247C158.269 46.5034 158.38 45.7593 158.488 45.0147C158.514 44.8385 158.54 44.6623 158.566 44.4808C158.666 43.7943 158.762 43.1074 158.857 42.4202C158.997 41.4549 159.162 40.4949 159.328 39.5336C159.666 37.5567 159.931 35.5734 160.184 33.5839C160.376 32.0751 160.591 30.574 160.834 29.0725C160.96 28.2027 161.033 27.3319 161.091 26.4551C161.175 25.9608 161.175 25.9608 161.664 25.2279Z" fill="#242424"/>
<path d="M126.243 16.6781C126.639 17.0743 126.519 17.5136 126.519 18.0598C126.52 18.2894 126.52 18.5189 126.52 18.7554C126.519 18.997 126.519 19.2385 126.518 19.4873C126.519 19.7289 126.519 19.9704 126.52 20.2192C126.52 20.4488 126.52 20.6783 126.519 20.9149C126.519 21.1269 126.519 21.339 126.519 21.5575C126.487 22.0523 126.487 22.0523 126.243 22.2966C125.836 22.3065 125.428 22.307 125.021 22.2966C124.968 22.1697 124.914 22.0428 124.859 21.912C124.118 20.2812 123.102 19.1764 121.384 18.5112C119.435 18.0457 117.556 18.3499 115.739 19.1209C115.739 19.2821 115.739 19.4434 115.739 19.6095C115.577 19.6095 115.416 19.6095 115.25 19.6095C114.532 21.6563 114.075 23.3819 114.991 25.4264C115.078 25.5993 115.166 25.7722 115.257 25.9503C115.49 26.4406 115.626 26.8968 115.739 27.4265C115.9 27.4265 116.061 27.4265 116.227 27.4265C116.542 27.7834 116.542 27.7834 116.868 28.2509C116.977 28.404 117.086 28.557 117.199 28.7147C117.449 29.1364 117.449 29.1364 117.449 29.625C117.579 29.6751 117.709 29.7251 117.844 29.7767C118.67 30.2548 119.264 30.9098 119.922 31.5945C120.794 32.5575 120.794 32.5575 121.846 33.2892C121.846 33.4504 121.846 33.6117 121.846 33.7778C121.98 33.8307 122.115 33.8836 122.254 33.9381C123.02 34.3799 123.515 34.9541 124.105 35.6099C124.217 35.7318 124.329 35.8536 124.445 35.9792C125.266 36.8902 125.266 36.8902 125.266 37.442C125.427 37.442 125.588 37.442 125.754 37.442C127.868 40.1804 128.905 43.0433 128.686 46.4804C128.384 48.0702 127.737 49.4595 126.976 50.8775C126.814 50.8775 126.653 50.8775 126.487 50.8775C126.427 51.021 126.366 51.1646 126.304 51.3126C125.951 51.9394 125.586 52.2658 125.021 52.7096C124.85 52.8481 124.679 52.9867 124.502 53.1294C122.44 54.4069 120.573 54.7169 118.166 54.6943C117.877 54.693 117.588 54.6917 117.29 54.6903C114.374 54.6212 111.45 54.0048 109.143 52.0989C108.983 51.4824 108.983 51.4824 109.021 50.7858C109.034 50.5308 109.046 50.2757 109.059 50.0129C109.201 48.583 109.397 47.165 109.632 45.7476C110.035 45.7476 110.438 45.7476 110.853 45.7476C111.093 46.2205 111.332 46.6939 111.571 47.1674C111.704 47.431 111.837 47.6946 111.974 47.9661C112.319 48.6789 112.319 48.6789 112.563 49.4118C112.724 49.4118 112.885 49.4118 113.052 49.4118C113.052 49.573 113.052 49.7342 113.052 49.9003C113.213 49.9003 113.374 49.9003 113.54 49.9003C113.54 50.0616 113.54 50.2228 113.54 50.3889C113.757 50.4594 113.973 50.53 114.197 50.6026C115.006 50.8775 115.006 50.8775 115.554 51.1341C116.407 51.4279 117.142 51.4396 118.044 51.4424C118.512 51.4485 118.512 51.4485 118.99 51.4548C119.95 51.3602 120.525 51.1059 121.357 50.6332C121.599 50.5526 121.841 50.4719 122.09 50.3889C122.09 50.2277 122.09 50.0664 122.09 49.9003C122.251 49.9003 122.412 49.9003 122.579 49.9003C123.461 47.2904 123.437 45.544 122.352 43.0232C120.842 39.986 117.922 37.6741 115.474 35.4057C114.647 34.6349 113.826 33.869 113.052 33.0449C113.052 32.8837 113.052 32.7225 113.052 32.5564C112.89 32.5564 112.729 32.5564 112.563 32.5564C110.344 30.1304 109.431 27.1182 109.489 23.8963C109.636 21.0561 110.779 19.1593 112.834 17.2525C116.741 14.074 121.931 14.6158 126.243 16.6781Z" fill="#242424"/>
<path d="M311.897 15.4566C312.141 15.9452 312.141 15.9452 311.923 16.6704C311.759 17.0974 311.759 17.0974 311.591 17.533C311.431 17.96 311.431 17.96 311.267 18.3956C310.919 19.1208 310.919 19.1208 310.187 19.6094C309.824 19.4885 309.824 19.4885 309.454 19.3651C307.051 18.9932 304.663 18.8309 302.232 18.8307C301.901 18.8305 301.901 18.8305 301.564 18.8302C300.172 18.8416 298.887 18.965 297.484 19.1208C297.484 23.0708 297.484 27.0209 297.484 31.0906C300.55 31.0951 300.55 31.0951 303.606 30.9837C303.81 30.9729 304.015 30.962 304.225 30.9509C305.969 30.8558 307.712 30.7376 309.454 30.602C309.533 32.2572 309.284 33.4474 308.721 34.9991C307.942 34.9648 307.164 34.9287 306.385 34.8922C306.166 34.8826 305.948 34.873 305.722 34.8631C305.507 34.8529 305.292 34.8426 305.071 34.8321C304.875 34.8231 304.68 34.8142 304.478 34.805C304.002 34.7678 303.527 34.7081 303.055 34.6364C301.936 34.4849 300.825 34.4254 299.698 34.3731C299.484 34.3626 299.27 34.352 299.05 34.3411C298.528 34.3155 298.006 34.2908 297.484 34.2662C297.291 43.7129 297.291 43.7129 298.126 53.1074C298.156 53.3388 298.186 53.5703 298.217 53.8087C297.783 54.2422 297.154 54.0848 296.568 54.0854C296.283 54.0858 295.999 54.0861 295.705 54.0864C295.406 54.0855 295.106 54.0845 294.797 54.0835C294.497 54.0845 294.197 54.0854 293.888 54.0864C293.604 54.0861 293.319 54.0858 293.026 54.0854C292.763 54.0852 292.499 54.0849 292.228 54.0846C291.621 54.053 291.621 54.053 291.377 53.8087C291.393 53.3195 291.427 52.8308 291.469 52.343C291.491 52.076 291.513 51.809 291.535 51.5339C291.579 51.0752 291.623 50.6164 291.682 50.1593C291.869 48.6788 291.902 47.2196 291.901 45.7285C291.902 45.4668 291.903 45.2051 291.903 44.9355C291.906 44.0748 291.906 43.214 291.907 42.3533C291.907 41.7492 291.908 41.1452 291.909 40.5412C291.91 39.2753 291.911 38.0094 291.911 36.7435C291.911 35.1341 291.914 33.5248 291.918 31.9154C291.921 30.6669 291.922 29.4184 291.921 28.1699C291.922 27.5773 291.923 26.9848 291.925 26.3922C291.933 23.3654 291.892 20.3837 291.526 17.3757C291.469 16.8998 291.422 16.4225 291.377 15.9452C291.811 15.5108 292.448 15.6591 293.037 15.6507C293.492 15.6434 293.492 15.6434 293.957 15.636C294.293 15.6318 294.628 15.6277 294.964 15.6236C295.309 15.6186 295.654 15.6134 295.999 15.6082C296.727 15.5974 297.454 15.5875 298.182 15.5781C299.102 15.5662 300.021 15.5531 300.941 15.5395C304.593 15.4855 308.244 15.4362 311.897 15.4566Z" fill="#252525"/>
<path d="M217.222 24.9378C217.596 24.9331 217.596 24.9331 217.978 24.9282C220.592 24.925 222.776 25.3874 224.932 26.9379C226.835 28.8693 227.608 30.6678 227.665 33.3655C227.639 35.4689 227.157 37.0681 226.153 38.9077C225.992 38.9077 225.831 38.9077 225.665 38.9077C225.601 39.0516 225.537 39.1955 225.471 39.3437C224.284 41.5215 221.828 42.29 219.589 42.9512C218.996 43.0758 218.457 43.088 217.851 43.0843C217.623 43.0835 217.395 43.0827 217.16 43.0819C216.923 43.0799 216.687 43.0778 216.443 43.0757C216.203 43.0746 215.962 43.0735 215.715 43.0724C215.123 43.0695 214.531 43.0655 213.939 43.0604C213.962 44.138 213.988 45.2154 214.017 46.2929C214.026 46.6586 214.034 47.0244 214.042 47.3902C214.053 47.9191 214.068 48.4478 214.082 48.9766C214.094 49.4525 214.094 49.4525 214.105 49.938C214.165 50.6589 214.259 51.2132 214.449 51.897C214.658 52.7713 214.69 53.212 214.428 54.0531C213.42 54.0602 212.412 54.0645 211.405 54.0684C210.974 54.0714 210.974 54.0714 210.534 54.0746C210.26 54.0753 209.986 54.0761 209.704 54.0769C209.324 54.0789 209.324 54.0789 208.937 54.0808C208.321 54.0531 208.321 54.0531 207.832 53.8088C207.911 53.4963 207.991 53.1839 208.072 52.862C208.347 51.6204 208.39 50.4393 208.384 49.1717C208.385 48.9386 208.386 48.7056 208.386 48.4655C208.389 47.7016 208.387 46.9379 208.385 46.1741C208.386 45.6397 208.386 45.1053 208.387 44.5709C208.388 43.4537 208.387 42.3365 208.384 41.2193C208.382 39.7904 208.383 38.3615 208.386 36.9326C208.388 35.83 208.387 34.7275 208.386 33.625C208.386 33.0982 208.386 32.5714 208.387 32.0446C208.388 31.3075 208.387 30.5705 208.384 29.8334C208.385 29.6178 208.386 29.4021 208.387 29.1799C208.378 27.8616 208.172 26.7443 207.832 25.4722C208.219 25.0849 208.63 25.1741 209.168 25.1506C209.4 25.1403 209.633 25.13 209.873 25.1194C210.253 25.1051 210.253 25.1051 210.641 25.0905C210.901 25.0805 211.162 25.0705 211.43 25.0602C213.36 24.992 215.29 24.9508 217.222 24.9378ZM213.939 27.4265C213.939 31.7795 213.939 36.1326 213.939 40.6176C217.549 40.8124 217.549 40.8124 220.29 39.1519C222.041 36.9687 222.119 34.3843 221.889 31.7023C221.648 30.1471 221.045 28.9255 219.802 27.915C218.278 27.0623 218.278 27.0623 213.939 27.4265Z" fill="#242424"/>
<path d="M280.141 24.9837C280.459 25.9402 280.219 26.2146 279.789 27.1059C279.674 27.3487 279.558 27.5914 279.439 27.8416C279.348 28.0271 279.257 28.2125 279.163 28.4036C278.877 28.3507 278.877 28.3507 278.585 28.2967C275.438 27.7922 272.332 27.8821 269.148 27.9151C269.148 31.059 269.148 34.2029 269.148 37.442C273.671 37.2582 273.671 37.2582 278.186 36.9535C278.441 37.7399 278.412 38.2612 278.217 39.0604C278.172 39.2499 278.127 39.4395 278.081 39.6348C277.942 40.1291 277.942 40.1291 277.698 40.6177C276.96 40.5892 276.222 40.5583 275.484 40.5261C275.282 40.5185 275.079 40.511 274.871 40.5032C272.926 40.4151 271.104 40.1456 269.148 39.8848C269.148 43.593 269.148 47.3012 269.148 51.1218C274.122 50.8623 274.122 50.8623 279.019 50.0435C279.652 49.9004 279.652 49.9004 280.385 49.9004C280.425 50.9968 280.391 51.9536 280.139 53.0235C280.071 53.3145 280.071 53.3145 280.002 53.6114C279.967 53.7572 279.932 53.9029 279.896 54.0531C277.767 54.0588 275.637 54.0631 273.507 54.0658C272.518 54.0671 271.529 54.0688 270.541 54.0716C269.587 54.0742 268.634 54.0757 267.68 54.0763C267.315 54.0768 266.951 54.0776 266.586 54.079C266.077 54.0807 265.569 54.081 265.06 54.0809C264.769 54.0814 264.479 54.0819 264.18 54.0825C263.529 54.0531 263.529 54.0531 263.285 53.8089C263.359 53.2378 263.442 52.668 263.529 52.0989C264.275 43.6351 264.813 34.4498 263.376 26.0391C263.346 25.852 263.316 25.665 263.285 25.4723C263.712 25.0453 264.31 25.1708 264.892 25.1507C265.187 25.1404 265.482 25.1302 265.786 25.1196C266.112 25.1098 266.439 25.1001 266.766 25.0906C266.93 25.0854 267.094 25.0802 267.263 25.0749C271.555 24.9414 275.848 24.9602 280.141 24.9837Z" fill="#252525"/>
<path d="M341.209 25.2279C342.244 25.2219 343.279 25.2175 344.313 25.2145C344.665 25.2133 345.018 25.2116 345.37 25.2095C345.875 25.2065 346.381 25.2052 346.887 25.2041C347.191 25.2028 347.496 25.2015 347.809 25.2002C348.538 25.2279 348.538 25.2279 349.026 25.4722C349.193 26.0409 349.356 26.6111 349.515 27.1822C349.755 27.6726 349.999 28.1616 350.248 28.6479C350.248 28.8091 350.248 28.9703 350.248 29.1364C350.409 29.1364 350.57 29.1364 350.736 29.1364C351.713 30.4584 351.713 30.4584 351.713 31.0907C351.874 31.0907 352.036 31.0907 352.202 31.0907C352.599 31.5968 352.968 32.1031 353.332 32.6327C353.551 32.9454 353.77 33.2581 353.99 33.5707C354.208 33.884 354.426 34.1973 354.645 34.5106C355.009 35.0315 355.375 35.5502 355.744 36.0679C355.898 36.2864 356.051 36.505 356.21 36.7301C356.338 36.8844 356.466 37.0387 356.599 37.1977C356.76 37.1977 356.921 37.1977 357.087 37.1977C357.249 36.9559 357.41 36.714 357.576 36.4649C357.737 36.4649 357.898 36.4649 358.065 36.4649C358.065 36.223 358.065 35.9812 358.065 35.732C358.226 35.732 358.387 35.732 358.553 35.732C358.609 35.5657 358.664 35.3995 358.721 35.2282C359.118 34.3399 359.61 33.5266 360.263 32.8006C360.424 32.8006 360.585 32.8006 360.752 32.8006C360.846 32.5385 360.846 32.5385 360.942 32.271C361.258 31.5373 361.638 30.9355 362.095 30.2815C362.244 30.0658 362.392 29.8501 362.546 29.6278C362.679 29.4657 362.813 29.3035 362.95 29.1364C363.111 29.1364 363.273 29.1364 363.439 29.1364C363.688 28.5151 363.936 27.8933 364.18 27.27C364.304 26.9544 364.304 26.9544 364.431 26.6325C364.515 26.4197 364.598 26.2068 364.684 25.9875C364.904 25.4722 364.904 25.4722 365.149 25.2279C365.512 25.2067 365.877 25.2018 366.241 25.2041C366.461 25.2049 366.681 25.2056 366.907 25.2065C367.253 25.2095 367.253 25.2095 367.607 25.2127C367.955 25.2143 367.955 25.2143 368.31 25.216C368.884 25.2189 369.459 25.2229 370.034 25.2279C370.034 26.2051 370.034 26.2051 369.615 26.6574C369.347 26.8718 369.347 26.8718 369.072 27.0906C368.341 27.6552 368.341 27.6552 367.836 28.4036C367.675 28.4036 367.513 28.4036 367.347 28.4036C367.284 28.5783 367.221 28.7531 367.156 28.9332C366.841 29.6669 366.461 30.2687 366.004 30.9227C365.855 31.1384 365.706 31.3541 365.553 31.5764C365.42 31.7385 365.286 31.9007 365.149 32.0678C364.987 32.0678 364.826 32.0678 364.66 32.0678C364.597 32.2426 364.534 32.4173 364.469 32.5974C364.154 33.3311 363.774 33.9329 363.317 34.5869C363.168 34.8026 363.019 35.0183 362.866 35.2406C362.733 35.4028 362.599 35.5649 362.462 35.732C362.3 35.732 362.139 35.732 361.973 35.732C361.918 35.857 361.863 35.982 361.806 36.1108C361.357 36.9471 360.804 37.6966 360.248 38.4649C360.136 38.6216 360.023 38.7782 359.908 38.9396C359.079 40.0913 359.079 40.0913 358.797 40.3734C358.773 41.117 358.763 41.8549 358.765 42.5986C358.765 42.9353 358.765 42.9353 358.764 43.2789C358.764 43.7553 358.764 44.2317 358.766 44.7081C358.767 45.4357 358.766 46.1632 358.764 46.8907C358.764 47.3532 358.764 47.8157 358.765 48.2781C358.764 48.6042 358.764 48.6042 358.763 48.9368C358.766 50.1022 358.766 50.1022 358.922 51.2536C359.105 52.1695 359.042 53.1191 359.042 54.0531C357.026 54.0531 355.011 54.0531 352.935 54.0531C352.773 53.7306 352.612 53.4082 352.446 53.076C352.527 52.9147 352.607 52.7535 352.69 52.5874C352.89 51.1412 353.016 49.6926 353.122 48.2367C353.16 47.7097 353.203 47.1828 353.248 46.6563C353.587 42.4642 353.587 42.4642 351.759 38.8161C351.378 38.3774 350.99 37.9547 350.583 37.5405C349.515 36.4484 349.515 36.4484 349.515 35.732C349.353 35.732 349.192 35.732 349.026 35.732C348.726 35.399 348.726 35.399 348.385 34.9228C348.258 34.7468 348.13 34.5708 347.999 34.3894C347.855 34.1876 347.71 33.9857 347.56 33.7778C347.385 33.5432 347.21 33.3086 347.03 33.0669C346.852 32.8279 346.675 32.5889 346.492 32.3426C346.324 32.1165 346.155 31.8904 345.982 31.6575C345.606 31.0907 345.606 31.0907 345.606 30.6021C345.445 30.6021 345.284 30.6021 345.118 30.6021C344.846 30.2176 344.846 30.2176 344.553 29.7013C343.627 28.1656 342.325 27.1013 340.965 25.9608C341.045 25.7189 341.126 25.4771 341.209 25.2279Z" fill="#242424"/>
<path d="M237.735 25.2002C238.117 25.2021 238.117 25.2021 238.506 25.2041C238.781 25.2049 239.056 25.2056 239.339 25.2065C239.628 25.2085 239.917 25.2106 240.215 25.2127C240.506 25.2138 240.796 25.2149 241.095 25.216C241.814 25.2189 242.534 25.2229 243.254 25.2279C243.449 26.0309 243.522 26.3785 243.254 27.1822C243.219 27.5069 243.195 27.833 243.179 28.1592C243.164 28.4503 243.164 28.4503 243.149 28.7473C243.14 28.9563 243.131 29.1652 243.121 29.3805C243.106 29.7074 243.106 29.7074 243.09 30.0409C242.991 32.2645 242.955 34.4875 242.932 36.713C242.927 37.1332 242.922 37.5534 242.917 37.9736C242.903 39.061 242.891 40.1485 242.879 41.2359C242.867 42.353 242.853 43.4701 242.84 44.5872C242.814 46.7654 242.789 48.9435 242.765 51.1217C243.736 51.0504 244.707 50.9765 245.678 50.9022C245.951 50.8823 246.223 50.8623 246.504 50.8417C248.371 50.6972 250.169 50.4435 251.997 50.0434C252.766 49.903 253.467 49.8743 254.246 49.9003C254.131 50.959 253.985 51.9848 253.748 53.0235C253.704 53.2175 253.66 53.4115 253.615 53.6113C253.581 53.7571 253.548 53.9029 253.513 54.0531C251.384 54.0587 249.254 54.0631 247.124 54.0657C246.135 54.067 245.147 54.0688 244.158 54.0715C243.204 54.0742 242.251 54.0756 241.297 54.0763C240.933 54.0767 240.568 54.0776 240.204 54.0789C239.695 54.0807 239.186 54.0809 238.677 54.0808C238.387 54.0814 238.096 54.0819 237.797 54.0825C237.147 54.0531 237.147 54.0531 236.902 53.8088C236.956 53.2848 237.011 52.7609 237.075 52.2381C237.53 48.2434 237.43 44.1631 237.423 40.1501C237.421 39.2429 237.423 38.3358 237.424 37.4286C237.466 31.867 237.466 31.867 237.001 26.3314C236.968 26.0478 236.936 25.7643 236.902 25.4722C237.147 25.2279 237.147 25.2279 237.735 25.2002Z" fill="#262626"/>
<path d="M324.218 25.182C324.504 25.179 324.79 25.176 325.085 25.1729C325.358 25.1725 325.631 25.172 325.912 25.1715C326.164 25.1705 326.415 25.1695 326.675 25.1685C327.287 25.2278 327.287 25.2278 327.775 25.7164C327.725 26.2574 327.725 26.2574 327.577 26.9225C326.941 29.8209 326.994 32.7833 326.965 35.7348C326.96 36.18 326.955 36.6253 326.95 37.0705C326.937 38.2339 326.924 39.3973 326.913 40.5607C326.9 41.7513 326.887 42.9418 326.873 44.1324C326.847 46.4621 326.822 48.7918 326.798 51.1216C327.853 51.0509 328.907 50.9772 329.961 50.9031C330.405 50.8733 330.405 50.8733 330.859 50.8429C332.747 50.7083 334.531 50.478 336.369 50.0195C337.091 49.8945 337.578 49.9516 338.28 50.1445C338.204 50.7503 338.128 51.3558 338.05 51.9613C338.029 52.134 338.008 52.3067 337.986 52.4847C337.819 53.781 337.819 53.781 337.547 54.053C337.037 54.076 336.527 54.0817 336.017 54.0807C335.777 54.0808 335.777 54.0808 335.533 54.0808C335.003 54.0806 334.473 54.0787 333.943 54.0768C333.576 54.0764 333.209 54.076 332.843 54.0758C331.876 54.0748 330.909 54.0724 329.943 54.0697C328.957 54.0672 327.971 54.0661 326.986 54.0649C325.05 54.0623 323.115 54.0581 321.18 54.053C320.893 53.2004 320.987 52.6007 321.161 51.726C321.525 49.5239 321.495 47.3403 321.489 45.1148C321.489 44.6565 321.49 44.1982 321.49 43.7399C321.491 42.7842 321.49 41.8285 321.488 40.8728C321.485 39.6571 321.487 38.4415 321.49 37.2257C321.491 36.2807 321.491 35.3357 321.489 34.3907C321.489 33.9429 321.49 33.495 321.491 33.0472C321.495 30.6785 321.427 28.4135 321.016 26.0747C320.99 25.8758 320.963 25.677 320.936 25.4721C321.568 24.8395 323.367 25.1825 324.218 25.182Z" fill="#252525"/>
<path d="M141.265 25.1955C141.537 25.1952 141.81 25.1949 142.09 25.1945C142.521 25.196 142.521 25.196 142.96 25.1974C143.246 25.1965 143.532 25.1955 143.827 25.1945C144.236 25.195 144.236 25.195 144.654 25.1955C144.906 25.1958 145.157 25.196 145.417 25.1963C146.029 25.2279 146.029 25.2279 146.518 25.4722C146.44 25.8384 146.44 25.8384 146.36 26.2119C145.549 30.4684 145.683 34.7725 145.706 39.0859C145.709 39.9285 145.708 40.771 145.707 41.6135C145.706 42.437 145.707 43.2605 145.71 44.0839C145.711 44.4716 145.711 44.8592 145.711 45.2469C145.71 47.472 145.827 49.6155 146.169 51.8159C146.261 52.496 146.313 53.1243 146.273 53.8088C146.029 54.0531 146.029 54.0531 145.441 54.0808C145.186 54.0796 144.932 54.0783 144.669 54.077C144.395 54.0762 144.12 54.0754 143.837 54.0746C143.547 54.0725 143.258 54.0705 142.96 54.0684C142.67 54.0673 142.38 54.0662 142.081 54.065C141.361 54.0621 140.642 54.0581 139.922 54.0531C139.635 53.2006 139.729 52.6008 139.903 51.7262C140.267 49.524 140.237 47.3404 140.231 45.1149C140.232 44.6566 140.232 44.1983 140.233 43.7401C140.233 42.7844 140.232 41.8287 140.23 40.873C140.227 39.6572 140.229 38.4416 140.232 37.2259C140.234 36.2809 140.233 35.3359 140.232 34.3909C140.231 33.943 140.232 33.4952 140.233 33.0473C140.238 30.6787 140.169 28.4136 139.758 26.0748C139.732 25.876 139.705 25.6771 139.678 25.4722C140.103 25.047 140.687 25.1961 141.265 25.1955Z" fill="#252525"/>
</svg>
