<svg width="716" height="600" viewBox="0 0 716 600" fill="none" xmlns="http://www.w3.org/2000/svg">
<g filter="url(#filter0_b_3090_1205)">
<rect width="716" height="600" fill="#323232"/>
<rect x="127" y="368" width="52" height="5" fill="white" fill-opacity="0.2"/>
<rect x="265" y="368" width="52" height="5" fill="white" fill-opacity="0.2"/>
<rect x="127" y="379" width="65" height="5" fill="white" fill-opacity="0.2"/>
<rect x="265" y="379" width="27" height="5" fill="white" fill-opacity="0.2"/>
<rect x="127" y="351" width="65" height="8" fill="#929292"/>
<rect x="265" y="351" width="71" height="8" fill="#929292"/>
<path d="M358.5 62.5L630 62.5C642.979 62.5 653.5 73.0213 653.5 86V514C653.5 526.979 642.979 537.5 630 537.5H358.5L358.5 62.5Z" fill="#E8E8E8" stroke="white"/>
<g clip-path="url(#clip0_3090_1205)">
<path d="M358 118H628.5C629.328 118 630 118.672 630 119.5C630 120.328 629.328 121 628.5 121H358V118Z" fill="white" fill-opacity="0.8"/>
<path d="M358 118H628.5C629.328 118 630 118.672 630 119.5C630 120.328 629.328 121 628.5 121H358V118Z" fill="white" fill-opacity="0.8"/>
<rect x="138" y="91" width="122" height="12" fill="white"/>
<rect x="138" y="116" width="65" height="5" fill="white" fill-opacity="0.2"/>
<rect x="214.306" y="116" width="46" height="5" fill="white" fill-opacity="0.2"/>
<rect x="272" y="116" width="70" height="5" fill="white" fill-opacity="0.2"/>
<path d="M358 96H404.5C406.985 96 409 98.0147 409 100.5C409 102.985 406.985 105 404.5 105H358V96Z" fill="#323232" fill-opacity="0.2"/>
<rect x="421.082" y="96" width="44" height="9" rx="4.5" fill="#323232" fill-opacity="0.2"/>
<rect x="476.775" y="96" width="60" height="9" rx="4.5" fill="#323232" fill-opacity="0.2"/>
<rect x="566" y="89" width="16" height="16" rx="8" fill="#323232" fill-opacity="0.16"/>
<rect x="590" y="89" width="16" height="16" rx="8" fill="#323232" fill-opacity="0.16"/>
<rect x="614" y="89" width="16" height="16" rx="8" fill="#323232" fill-opacity="0.16"/>
</g>
<rect x="102" y="460" width="90" height="5" fill="white" fill-opacity="0.2"/>
<rect x="102" y="472" width="46" height="5" fill="white" fill-opacity="0.2"/>
<rect x="102" y="484" width="65" height="5" fill="white" fill-opacity="0.2"/>
<rect x="102" y="496" width="80" height="5" fill="white" fill-opacity="0.2"/>
<rect x="102" y="508" width="65" height="5" fill="white" fill-opacity="0.2"/>
<rect x="102" y="520" width="80" height="5" fill="white" fill-opacity="0.2"/>
<rect x="240" y="460" width="65" height="5" fill="white" fill-opacity="0.2"/>
<rect x="240" y="472" width="90" height="5" fill="white" fill-opacity="0.2"/>
<rect x="240" y="484" width="90" height="5" fill="white" fill-opacity="0.2"/>
<rect x="240" y="496" width="65" height="5" fill="white" fill-opacity="0.2"/>
<rect x="240" y="508" width="42" height="5" fill="white" fill-opacity="0.2"/>
<rect x="240" y="520" width="65" height="5" fill="white" fill-opacity="0.2"/>
<path d="M106.432 99.3333C105.013 99.3333 98.9213 99.4736 95 105.421V99.3333C95 95.5834 91.9723 92.5333 88.25 92.5333C87.0076 92.5333 86 93.5484 86 94.8C86 96.0516 87.0076 97.0667 88.25 97.0667C89.4903 97.0667 90.5 98.0838 90.5 99.3333V117.467C90.5 119.967 92.518 122 95 122H107.375C107.997 122 108.5 121.493 108.5 120.867V119.733C108.5 118.482 107.492 117.467 106.25 117.467H104L113 110.667V120.867C113 121.493 113.503 122 114.125 122H116.375C116.997 122 117.5 121.493 117.5 120.867V106.265C116.776 106.454 116.031 106.587 115.25 106.587C110.904 106.587 107.268 103.466 106.432 99.3333ZM117.5 92.5333H113L108.5 88V97.52C108.5 101.276 111.522 104.32 115.25 104.32C118.978 104.32 122 101.276 122 97.52V88L117.5 92.5333ZM112.438 98.2C111.816 98.2 111.312 97.6928 111.312 97.0667C111.312 96.4405 111.816 95.9333 112.438 95.9333C113.059 95.9333 113.562 96.4405 113.562 97.0667C113.562 97.6928 113.059 98.2 112.438 98.2ZM118.062 98.2C117.441 98.2 116.938 97.6928 116.938 97.0667C116.938 96.4405 117.441 95.9333 118.062 95.9333C118.684 95.9333 119.188 96.4405 119.188 97.0667C119.188 97.6928 118.684 98.2 118.062 98.2Z" fill="#FAB5A6"/>
<g opacity="0.4" filter="url(#filter1_d_3090_1205)">
<circle cx="393" cy="363" r="16" fill="#AB001F"/>
</g>
<circle cx="393" cy="363" r="8" fill="#AB001F"/>
<g opacity="0.4" filter="url(#filter2_d_3090_1205)">
<circle cx="521" cy="363" r="16" fill="#AB001F"/>
</g>
<circle cx="521" cy="363" r="8" fill="#AB001F"/>
<mask id="path-37-inside-1_3090_1205" fill="white">
<path d="M86 145L358 145V324H86L86 145Z"/>
</mask>
<path d="M86 145V144H85V145H86ZM86 324H85V325H86V324ZM86 146L358 146V144L86 144V146ZM358 323H86V325H358V323ZM87 324L87 145H85L85 324H87Z" fill="white" fill-opacity="0.2" mask="url(#path-37-inside-1_3090_1205)"/>
<rect x="86.5" y="444.5" width="121" height="93" stroke="white" stroke-opacity="0.2"/>
<rect x="224.5" y="444.5" width="121" height="93" stroke="white" stroke-opacity="0.2"/>
<path d="M377 452C377 447.582 380.582 444 385 444H469C473.418 444 477 447.582 477 452V538H377V452Z" fill="white"/>
<path d="M377.5 452C377.5 447.858 380.858 444.5 385 444.5H469C473.142 444.5 476.5 447.858 476.5 452V537.5H377.5V452Z" stroke="white" stroke-opacity="0.2"/>
<path d="M358 145H461C469.837 145 477 152.163 477 161V308C477 316.837 469.837 324 461 324H358V145Z" fill="#B7B7B7"/>
<rect x="493.5" y="145.5" width="136" height="181" rx="15.5" fill="white" stroke="white"/>
<rect x="505" y="157" width="113" height="70.512" rx="6" fill="#E8E8E8"/>
<rect x="505" y="260" width="101" height="7" rx="3.5" fill="#ACACAC" fill-opacity="0.7"/>
<rect x="505" y="272" width="77" height="7" rx="3.5" fill="#ACACAC" fill-opacity="0.7"/>
<rect x="505" y="240" width="113" height="11" rx="5.5" fill="#4E4E4E"/>
<g filter="url(#filter3_d_3090_1205)">
<rect x="505" y="296" width="67" height="20" rx="10" fill="#AB001F"/>
<rect x="505.5" y="296.5" width="66" height="19" rx="9.5" stroke="white" stroke-opacity="0.2"/>
</g>
<path d="M90.3551 408.864L87.5426 419.312H86.1918L89.0043 408.864H90.3551ZM94.902 408.864L92.0895 419.312H90.7386L93.5511 408.864H94.902ZM99.4489 408.864L96.6364 419.312H95.2855L98.098 408.864H99.4489ZM103.996 408.864L101.183 419.312H99.8324L102.645 408.864H103.996ZM108.543 408.864L105.73 419.312H104.379L107.192 408.864H108.543ZM113.089 408.864L110.277 419.312H108.926L111.739 408.864H113.089ZM117.636 408.864L114.824 419.312H113.473L116.286 408.864H117.636ZM122.183 408.864L119.371 419.312H118.02L120.832 408.864H122.183ZM126.73 408.864L123.918 419.312H122.567L125.379 408.864H126.73ZM131.277 408.864L128.464 419.312H127.114L129.926 408.864H131.277ZM135.824 408.864L133.011 419.312H131.661L134.473 408.864H135.824ZM140.371 408.864L137.558 419.312H136.207L139.02 408.864H140.371ZM144.918 408.864L142.105 419.312H140.754L143.567 408.864H144.918ZM149.464 408.864L146.652 419.312H145.301L148.114 408.864H149.464ZM154.011 408.864L151.199 419.312H149.848L152.661 408.864H154.011ZM158.558 408.864L155.746 419.312H154.395L157.207 408.864H158.558ZM163.105 408.864L160.293 419.312H158.942L161.754 408.864H163.105ZM167.652 408.864L164.839 419.312H163.489L166.301 408.864H167.652ZM172.199 408.864L169.386 419.312H168.036L170.848 408.864H172.199ZM176.746 408.864L173.933 419.312H172.582L175.395 408.864H176.746ZM181.293 408.864L178.48 419.312H177.129L179.942 408.864H181.293ZM185.839 408.864L183.027 419.312H181.676L184.489 408.864H185.839ZM190.386 408.864L187.574 419.312H186.223L189.036 408.864H190.386ZM194.933 408.864L192.121 419.312H190.77L193.582 408.864H194.933ZM199.48 408.864L196.668 419.312H195.317L198.129 408.864H199.48ZM204.027 408.864L201.214 419.312H199.864L202.676 408.864H204.027ZM208.574 408.864L205.761 419.312H204.411L207.223 408.864H208.574ZM213.121 408.864L210.308 419.312H208.957L211.77 408.864H213.121ZM217.668 408.864L214.855 419.312H213.504L216.317 408.864H217.668ZM222.214 408.864L219.402 419.312H218.051L220.864 408.864H222.214ZM226.761 408.864L223.949 419.312H222.598L225.411 408.864H226.761ZM231.308 408.864L228.496 419.312H227.145L229.957 408.864H231.308ZM235.855 408.864L233.043 419.312H231.692L234.504 408.864H235.855ZM240.402 408.864L237.589 419.312H236.239L239.051 408.864H240.402ZM244.949 408.864L242.136 419.312H240.786L243.598 408.864H244.949ZM249.496 408.864L246.683 419.312H245.332L248.145 408.864H249.496ZM254.043 408.864L251.23 419.312H249.879L252.692 408.864H254.043ZM258.589 408.864L255.777 419.312H254.426L257.239 408.864H258.589ZM263.136 408.864L260.324 419.312H258.973L261.786 408.864H263.136ZM267.683 408.864L264.871 419.312H263.52L266.332 408.864H267.683ZM272.23 408.864L269.418 419.312H268.067L270.879 408.864H272.23ZM276.777 408.864L273.964 419.312H272.614L275.426 408.864H276.777ZM281.324 408.864L278.511 419.312H277.161L279.973 408.864H281.324ZM285.871 408.864L283.058 419.312H281.707L284.52 408.864H285.871ZM290.418 408.864L287.605 419.312H286.254L289.067 408.864H290.418ZM294.964 408.864L292.152 419.312H290.801L293.614 408.864H294.964ZM299.511 408.864L296.699 419.312H295.348L298.161 408.864H299.511ZM304.058 408.864L301.246 419.312H299.895L302.707 408.864H304.058ZM308.605 408.864L305.793 419.312H304.442L307.254 408.864H308.605ZM313.152 408.864L310.339 419.312H308.989L311.801 408.864H313.152ZM317.699 408.864L314.886 419.312H313.536L316.348 408.864H317.699ZM322.246 408.864L319.433 419.312H318.082L320.895 408.864H322.246ZM326.793 408.864L323.98 419.312H322.629L325.442 408.864H326.793ZM331.339 408.864L328.527 419.312H327.176L329.989 408.864H331.339ZM335.886 408.864L333.074 419.312H331.723L334.536 408.864H335.886ZM340.433 408.864L337.621 419.312H336.27L339.082 408.864H340.433ZM344.98 408.864L342.168 419.312H340.817L343.629 408.864H344.98ZM349.527 408.864L346.714 419.312H345.364L348.176 408.864H349.527ZM354.074 408.864L351.261 419.312H349.911L352.723 408.864H354.074Z" fill="#5B5B5B"/>
<rect x="62.5" y="62.5" width="591" height="475" rx="23.5" stroke="white"/>
<path d="M86 366.286C86 369.923 87.4223 373.411 89.9541 375.983C92.4858 378.555 95.9196 380 99.5 380C99.5 372.381 93.455 366.286 86 366.286ZM99.5 354.857C100.495 354.857 101.448 355.259 102.152 355.973C102.855 356.687 103.25 357.656 103.25 358.667C103.25 359.677 102.855 360.646 102.152 361.36C101.448 362.075 100.495 362.476 99.5 362.476C98.5054 362.476 97.5516 362.075 96.8483 361.36C96.1451 360.646 95.75 359.677 95.75 358.667C95.75 357.656 96.1451 356.687 96.8483 355.973C97.5516 355.259 98.5054 354.857 99.5 354.857ZM89.9 362.095C89.9 363.106 90.2951 364.075 90.9983 364.789C91.7016 365.503 92.6554 365.905 93.65 365.905C94.445 365.905 95.18 365.646 95.75 365.234V365.524C95.75 366.534 96.1451 367.503 96.8483 368.218C97.5516 368.932 98.5054 369.333 99.5 369.333C100.495 369.333 101.448 368.932 102.152 368.218C102.855 367.503 103.25 366.534 103.25 365.524V365.234C103.82 365.646 104.555 365.905 105.35 365.905C106.345 365.905 107.298 365.503 108.002 364.789C108.705 364.075 109.1 363.106 109.1 362.095C109.1 360.571 108.215 359.276 106.955 358.667C108.215 358.057 109.1 356.747 109.1 355.238C109.1 354.228 108.705 353.259 108.002 352.544C107.298 351.83 106.345 351.429 105.35 351.429C104.555 351.429 103.82 351.672 103.25 352.099V351.81C103.25 350.799 102.855 349.83 102.152 349.116C101.448 348.401 100.495 348 99.5 348C98.5054 348 97.5516 348.401 96.8483 349.116C96.1451 349.83 95.75 350.799 95.75 351.81V352.099C95.18 351.672 94.445 351.429 93.65 351.429C92.6554 351.429 91.7016 351.83 90.9983 352.544C90.2951 353.259 89.9 354.228 89.9 355.238C89.9 356.747 90.785 358.057 92.045 358.667C90.785 359.276 89.9 360.571 89.9 362.095ZM99.5 380C103.08 380 106.514 378.555 109.046 375.983C111.578 373.411 113 369.923 113 366.286C105.5 366.286 99.5 372.381 99.5 380Z" fill="#5B5B5B"/>
<path d="M228 366.5C228 370.08 229.432 373.514 231.982 376.046C234.531 378.578 237.988 380 241.594 380C241.594 376.42 240.162 372.986 237.612 370.454C235.063 367.922 231.605 366.5 228 366.5ZM241.594 380C245.199 380 248.657 378.578 251.206 376.046C253.755 373.514 255.188 370.08 255.188 366.5C251.582 366.5 248.125 367.922 245.575 370.454C243.026 372.986 241.594 376.42 241.594 380ZM250.656 351.5V359C250.656 361.387 249.701 363.676 248.002 365.364C246.302 367.052 243.997 368 241.594 368C239.19 368 236.885 367.052 235.186 365.364C233.486 363.676 232.531 361.387 232.531 359V351.5C233.649 351.5 234.752 351.68 235.794 352.085C236.624 352.43 237.365 352.94 237.984 353.585L241.594 350L245.204 353.585C245.823 352.94 246.563 352.43 247.394 352.085C248.435 351.689 249.541 351.491 250.656 351.5Z" fill="#5B5B5B"/>
<path d="M432.354 230.646C432.158 230.451 431.842 230.451 431.646 230.646L428.464 233.828C428.269 234.024 428.269 234.34 428.464 234.536C428.66 234.731 428.976 234.731 429.172 234.536L432 231.707L434.828 234.536C435.024 234.731 435.34 234.731 435.536 234.536C435.731 234.34 435.731 234.024 435.536 233.828L432.354 230.646ZM432.5 285L432.5 231L431.5 231L431.5 285L432.5 285Z" fill="white"/>
<path d="M444.354 230.646C444.158 230.451 443.842 230.451 443.646 230.646L440.464 233.828C440.269 234.024 440.269 234.34 440.464 234.536C440.66 234.731 440.976 234.731 441.172 234.536L444 231.707L446.828 234.536C447.024 234.731 447.34 234.731 447.536 234.536C447.731 234.34 447.731 234.024 447.536 233.828L444.354 230.646ZM444.5 285L444.5 231L443.5 231L443.5 285L444.5 285Z" fill="white"/>
<g filter="url(#filter4_d_3090_1205)">
<circle cx="439" cy="288" r="24" fill="#6E6E6E"/>
<circle cx="439" cy="288" r="23.4" stroke="white" stroke-opacity="0.29" stroke-width="1.2"/>
</g>
<path d="M437.8 278.8V277.2C437.8 276.882 437.926 276.577 438.151 276.351C438.377 276.126 438.682 276 439 276C439.318 276 439.623 276.126 439.849 276.351C440.074 276.577 440.2 276.882 440.2 277.2V278.8C440.2 279.118 440.074 279.423 439.849 279.649C439.623 279.874 439.318 280 439 280C438.682 280 438.377 279.874 438.151 279.649C437.926 279.423 437.8 279.118 437.8 278.8ZM445.8 288C445.8 289.345 445.401 290.66 444.654 291.778C443.907 292.896 442.845 293.768 441.602 294.282C440.36 294.797 438.992 294.932 437.673 294.669C436.354 294.407 435.143 293.759 434.192 292.808C433.241 291.857 432.593 290.646 432.331 289.327C432.068 288.008 432.203 286.64 432.718 285.398C433.232 284.155 434.104 283.093 435.222 282.346C436.34 281.599 437.655 281.2 439 281.2C440.803 281.202 442.531 281.919 443.806 283.194C445.081 284.469 445.798 286.197 445.8 288ZM443.4 288C443.4 287.13 443.142 286.279 442.658 285.555C442.175 284.832 441.488 284.268 440.684 283.935C439.88 283.602 438.995 283.515 438.142 283.685C437.288 283.854 436.504 284.273 435.889 284.889C435.273 285.504 434.854 286.288 434.685 287.142C434.515 287.995 434.602 288.88 434.935 289.684C435.268 290.488 435.832 291.175 436.555 291.658C437.279 292.142 438.13 292.4 439 292.4C440.167 292.399 441.285 291.935 442.11 291.11C442.935 290.285 443.399 289.167 443.4 288ZM431.351 282.049C431.463 282.161 431.595 282.249 431.741 282.31C431.887 282.37 432.043 282.401 432.201 282.401C432.359 282.401 432.515 282.37 432.661 282.31C432.807 282.249 432.939 282.161 433.051 282.049C433.163 281.937 433.251 281.805 433.312 281.659C433.372 281.513 433.403 281.357 433.403 281.199C433.403 281.041 433.372 280.885 433.312 280.739C433.251 280.593 433.163 280.461 433.051 280.349L431.851 279.149C431.626 278.924 431.32 278.797 431.001 278.797C430.682 278.797 430.376 278.924 430.151 279.149C429.926 279.374 429.799 279.68 429.799 279.999C429.799 280.318 429.926 280.624 430.151 280.849L431.351 282.049ZM431.351 293.949L430.151 295.149C430.039 295.261 429.951 295.393 429.89 295.539C429.83 295.685 429.799 295.841 429.799 295.999C429.799 296.157 429.83 296.313 429.89 296.459C429.951 296.605 430.039 296.737 430.151 296.849C430.376 297.074 430.682 297.201 431.001 297.201C431.159 297.201 431.315 297.17 431.461 297.11C431.607 297.049 431.739 296.961 431.851 296.849L433.051 295.649C433.276 295.424 433.403 295.118 433.403 294.799C433.403 294.48 433.276 294.174 433.051 293.949C432.826 293.724 432.52 293.597 432.201 293.597C431.882 293.597 431.576 293.724 431.351 293.949ZM445.8 282.4C445.958 282.4 446.114 282.369 446.259 282.309C446.405 282.249 446.537 282.16 446.649 282.049L447.849 280.849C447.961 280.737 448.049 280.605 448.11 280.459C448.17 280.313 448.201 280.157 448.201 279.999C448.201 279.841 448.17 279.685 448.11 279.539C448.049 279.393 447.961 279.261 447.849 279.149C447.737 279.037 447.605 278.949 447.459 278.888C447.313 278.828 447.157 278.797 446.999 278.797C446.841 278.797 446.685 278.828 446.539 278.888C446.393 278.949 446.261 279.037 446.149 279.149L444.949 280.349C444.78 280.517 444.665 280.731 444.618 280.965C444.572 281.198 444.595 281.44 444.687 281.66C444.778 281.88 444.932 282.068 445.131 282.199C445.329 282.331 445.562 282.401 445.8 282.4ZM446.649 293.951C446.424 293.726 446.118 293.599 445.799 293.599C445.48 293.599 445.174 293.726 444.949 293.951C444.724 294.176 444.597 294.482 444.597 294.801C444.597 295.12 444.724 295.426 444.949 295.651L446.149 296.851C446.374 297.076 446.68 297.203 446.999 297.203C447.318 297.203 447.624 297.076 447.849 296.851C448.074 296.626 448.201 296.32 448.201 296.001C448.201 295.682 448.074 295.376 447.849 295.151L446.649 293.951ZM431 288C431 287.682 430.874 287.377 430.649 287.151C430.423 286.926 430.118 286.8 429.8 286.8H428.2C427.882 286.8 427.577 286.926 427.351 287.151C427.126 287.377 427 287.682 427 288C427 288.318 427.126 288.623 427.351 288.849C427.577 289.074 427.882 289.2 428.2 289.2H429.8C430.118 289.2 430.423 289.074 430.649 288.849C430.874 288.623 431 288.318 431 288ZM439 296C438.682 296 438.377 296.126 438.151 296.351C437.926 296.577 437.8 296.882 437.8 297.2V298.8C437.8 299.118 437.926 299.423 438.151 299.649C438.377 299.874 438.682 300 439 300C439.318 300 439.623 299.874 439.849 299.649C440.074 299.423 440.2 299.118 440.2 298.8V297.2C440.2 296.882 440.074 296.577 439.849 296.351C439.623 296.126 439.318 296 439 296ZM449.8 286.8H448.2C447.882 286.8 447.577 286.926 447.351 287.151C447.126 287.377 447 287.682 447 288C447 288.318 447.126 288.623 447.351 288.849C447.577 289.074 447.882 289.2 448.2 289.2H449.8C450.118 289.2 450.423 289.074 450.649 288.849C450.874 288.623 451 288.318 451 288C451 287.682 450.874 287.377 450.649 287.151C450.423 286.926 450.118 286.8 449.8 286.8Z" fill="white"/>
<path d="M445.646 135.646C445.451 135.842 445.451 136.158 445.646 136.354L448.828 139.536C449.024 139.731 449.34 139.731 449.536 139.536C449.731 139.34 449.731 139.024 449.536 138.828L446.707 136L449.536 133.172C449.731 132.976 449.731 132.66 449.536 132.464C449.34 132.269 449.024 132.269 448.828 132.464L445.646 135.646ZM485.146 175.854C485.342 176.049 485.658 176.049 485.854 175.854L489.036 172.672C489.231 172.476 489.231 172.16 489.036 171.964C488.84 171.769 488.524 171.769 488.328 171.964L485.5 174.793L482.672 171.964C482.476 171.769 482.16 171.769 481.964 171.964C481.769 172.16 481.769 172.476 481.964 172.672L485.146 175.854ZM446 136.5H461.5V135.5H446V136.5ZM485 160V175.5H486V160H485ZM461.5 136.5C474.479 136.5 485 147.021 485 160H486C486 146.469 475.031 135.5 461.5 135.5V136.5Z" fill="#323232"/>
<g filter="url(#filter5_d_3090_1205)">
<rect x="453" y="92" width="65" height="32" rx="8" fill="#FEE0BC"/>
<path d="M470.767 102.364V114H468.659V104.415H468.591L465.869 106.153V104.222L468.761 102.364H470.767ZM477.983 114.159C477.426 114.155 476.883 114.059 476.352 113.869C475.822 113.676 475.345 113.364 474.92 112.932C474.496 112.496 474.159 111.919 473.909 111.199C473.659 110.475 473.536 109.58 473.54 108.511C473.54 107.515 473.646 106.627 473.858 105.847C474.07 105.066 474.375 104.407 474.773 103.869C475.17 103.328 475.65 102.915 476.21 102.631C476.775 102.347 477.405 102.205 478.102 102.205C478.833 102.205 479.481 102.348 480.045 102.636C480.614 102.924 481.072 103.318 481.42 103.818C481.769 104.314 481.985 104.875 482.068 105.5H479.994C479.888 105.053 479.67 104.697 479.341 104.432C479.015 104.163 478.602 104.028 478.102 104.028C477.295 104.028 476.674 104.379 476.239 105.08C475.807 105.78 475.589 106.742 475.585 107.966H475.665C475.85 107.633 476.091 107.347 476.386 107.108C476.682 106.869 477.015 106.686 477.386 106.557C477.761 106.424 478.157 106.358 478.574 106.358C479.256 106.358 479.867 106.521 480.409 106.847C480.955 107.172 481.386 107.621 481.705 108.193C482.023 108.761 482.18 109.413 482.176 110.148C482.18 110.913 482.006 111.6 481.653 112.21C481.301 112.816 480.811 113.294 480.182 113.642C479.553 113.991 478.82 114.163 477.983 114.159ZM477.972 112.455C478.384 112.455 478.754 112.354 479.08 112.153C479.405 111.953 479.663 111.682 479.852 111.341C480.042 111 480.134 110.617 480.131 110.193C480.134 109.777 480.044 109.4 479.858 109.062C479.676 108.725 479.424 108.458 479.102 108.261C478.78 108.064 478.413 107.966 478 107.966C477.693 107.966 477.407 108.025 477.142 108.142C476.877 108.259 476.646 108.422 476.449 108.631C476.252 108.835 476.097 109.074 475.983 109.347C475.873 109.616 475.816 109.903 475.812 110.21C475.816 110.616 475.911 110.989 476.097 111.33C476.282 111.67 476.538 111.943 476.864 112.148C477.189 112.352 477.559 112.455 477.972 112.455ZM488.088 117.273V105.273H490.111V106.716H490.23C490.336 106.504 490.486 106.278 490.679 106.04C490.872 105.797 491.134 105.591 491.463 105.42C491.793 105.246 492.213 105.159 492.724 105.159C493.399 105.159 494.007 105.331 494.548 105.676C495.094 106.017 495.526 106.523 495.844 107.193C496.166 107.86 496.327 108.678 496.327 109.648C496.327 110.606 496.17 111.42 495.855 112.091C495.541 112.761 495.113 113.273 494.571 113.625C494.029 113.977 493.416 114.153 492.73 114.153C492.23 114.153 491.815 114.07 491.486 113.903C491.156 113.737 490.891 113.536 490.69 113.301C490.493 113.062 490.34 112.837 490.23 112.625H490.145V117.273H488.088ZM490.105 109.636C490.105 110.201 490.185 110.695 490.344 111.119C490.507 111.544 490.74 111.875 491.043 112.114C491.349 112.348 491.721 112.466 492.156 112.466C492.611 112.466 492.991 112.345 493.298 112.102C493.605 111.856 493.836 111.521 493.991 111.097C494.151 110.669 494.23 110.182 494.23 109.636C494.23 109.095 494.152 108.614 493.997 108.193C493.842 107.773 493.611 107.443 493.304 107.205C492.997 106.966 492.615 106.847 492.156 106.847C491.717 106.847 491.344 106.962 491.037 107.193C490.73 107.424 490.497 107.748 490.338 108.165C490.183 108.581 490.105 109.072 490.105 109.636ZM499.442 105.273L501.203 108.494L502.993 105.273H505.169L502.538 109.636L505.214 114H503.05L501.203 110.858L499.374 114H497.192L499.851 109.636L497.26 105.273H499.442Z" fill="#313741"/>
<path d="M485.5 131.5L479.5 124L491.5 124L485.5 131.5Z" fill="#FEE0BC"/>
</g>
<rect x="421" y="368" width="45" height="5" rx="2.5" fill="#ACACAC" fill-opacity="0.7"/>
<rect x="549" y="368" width="69" height="5" rx="2.5" fill="#ACACAC" fill-opacity="0.7"/>
<rect x="421" y="379" width="56" height="5" rx="2.5" fill="#ACACAC" fill-opacity="0.7"/>
<rect x="549" y="379" width="57" height="5" rx="2.5" fill="#ACACAC" fill-opacity="0.7"/>
<rect x="421" y="351" width="56" height="8" rx="4" fill="#4E4E4E"/>
<rect x="549" y="351" width="46" height="8" rx="4" fill="#4E4E4E"/>
<path d="M358 409H628.5C629.328 409 630 409.672 630 410.5C630 411.328 629.328 412 628.5 412H358V409Z" fill="white" fill-opacity="0.8"/>
<rect x="391" y="506" width="59" height="7" rx="3.5" fill="#ACACAC" fill-opacity="0.7"/>
<rect x="391" y="518" width="45" height="7" rx="3.5" fill="#ACACAC" fill-opacity="0.7"/>
<rect x="391" y="489" width="66" height="11" rx="5.5" fill="#4E4E4E"/>
<circle cx="403" cy="468" r="12" fill="#E6E6E6"/>
<g filter="url(#filter6_d_3090_1205)">
<circle cx="418" cy="468" r="12" fill="#AB001F"/>
<circle cx="418" cy="468" r="11.5007" stroke="white" stroke-opacity="0.2" stroke-width="0.998616"/>
</g>
<path d="M417.28 472.507V463.145H418.868V472.507H417.28ZM413.393 468.62V467.031H422.755V468.62H413.393Z" fill="white"/>
<path d="M445.646 434.646C445.451 434.842 445.451 435.158 445.646 435.354L448.828 438.536C449.024 438.731 449.34 438.731 449.536 438.536C449.731 438.34 449.731 438.024 449.536 437.828L446.707 435L449.536 432.172C449.731 431.976 449.731 431.66 449.536 431.464C449.34 431.269 449.024 431.269 448.828 431.464L445.646 434.646ZM485.146 474.854C485.342 475.049 485.658 475.049 485.854 474.854L489.036 471.672C489.231 471.476 489.231 471.16 489.036 470.964C488.84 470.769 488.524 470.769 488.328 470.964L485.5 473.793L482.672 470.964C482.476 470.769 482.16 470.769 481.964 470.964C481.769 471.16 481.769 471.476 481.964 471.672L485.146 474.854ZM446 435.5H469.5V434.5H446V435.5ZM485 451V474.5H486V451H485ZM469.5 435.5C478.06 435.5 485 442.44 485 451H486C486 441.887 478.613 434.5 469.5 434.5V435.5Z" fill="#323232"/>
<g filter="url(#filter7_d_3090_1205)">
<rect x="457" y="391" width="57" height="32" rx="8" fill="#FEE0BC"/>
<path d="M474.17 413.159C473.326 413.159 472.576 413.017 471.92 412.733C471.269 412.449 470.758 412.061 470.386 411.568C470.019 411.072 469.837 410.509 469.841 409.881C469.837 409.392 469.943 408.943 470.159 408.534C470.375 408.125 470.667 407.784 471.034 407.511C471.405 407.235 471.818 407.059 472.273 406.983V406.903C471.674 406.771 471.189 406.466 470.818 405.989C470.451 405.508 470.269 404.953 470.273 404.324C470.269 403.725 470.436 403.191 470.773 402.722C471.11 402.252 471.572 401.883 472.159 401.614C472.746 401.341 473.417 401.205 474.17 401.205C474.917 401.205 475.581 401.341 476.165 401.614C476.752 401.883 477.214 402.252 477.551 402.722C477.892 403.191 478.062 403.725 478.062 404.324C478.062 404.953 477.875 405.508 477.5 405.989C477.129 406.466 476.65 406.771 476.062 406.903V406.983C476.517 407.059 476.926 407.235 477.29 407.511C477.657 407.784 477.949 408.125 478.165 408.534C478.384 408.943 478.494 409.392 478.494 409.881C478.494 410.509 478.309 411.072 477.938 411.568C477.566 412.061 477.055 412.449 476.403 412.733C475.756 413.017 475.011 413.159 474.17 413.159ZM474.17 411.534C474.606 411.534 474.985 411.46 475.307 411.312C475.629 411.161 475.879 410.949 476.057 410.676C476.235 410.403 476.326 410.089 476.33 409.733C476.326 409.362 476.229 409.034 476.04 408.75C475.854 408.462 475.598 408.237 475.273 408.074C474.951 407.911 474.583 407.83 474.17 407.83C473.754 407.83 473.383 407.911 473.057 408.074C472.731 408.237 472.473 408.462 472.284 408.75C472.098 409.034 472.008 409.362 472.011 409.733C472.008 410.089 472.095 410.403 472.273 410.676C472.451 410.945 472.701 411.155 473.023 411.307C473.348 411.458 473.731 411.534 474.17 411.534ZM474.17 406.233C474.527 406.233 474.841 406.161 475.114 406.017C475.39 405.873 475.608 405.672 475.767 405.415C475.926 405.157 476.008 404.86 476.011 404.523C476.008 404.189 475.928 403.898 475.773 403.648C475.617 403.394 475.402 403.199 475.125 403.062C474.848 402.922 474.53 402.852 474.17 402.852C473.803 402.852 473.479 402.922 473.199 403.062C472.922 403.199 472.706 403.394 472.551 403.648C472.4 403.898 472.326 404.189 472.33 404.523C472.326 404.86 472.402 405.157 472.557 405.415C472.716 405.669 472.934 405.869 473.21 406.017C473.491 406.161 473.811 406.233 474.17 406.233ZM484.354 416.273V404.273H486.376V405.716H486.496C486.602 405.504 486.751 405.278 486.945 405.04C487.138 404.797 487.399 404.591 487.729 404.42C488.058 404.246 488.479 404.159 488.99 404.159C489.664 404.159 490.272 404.331 490.814 404.676C491.359 405.017 491.791 405.523 492.109 406.193C492.431 406.86 492.592 407.678 492.592 408.648C492.592 409.606 492.435 410.42 492.121 411.091C491.806 411.761 491.378 412.273 490.837 412.625C490.295 412.977 489.681 413.153 488.996 413.153C488.496 413.153 488.081 413.07 487.751 412.903C487.422 412.737 487.157 412.536 486.956 412.301C486.759 412.062 486.606 411.837 486.496 411.625H486.411V416.273H484.354ZM486.371 408.636C486.371 409.201 486.45 409.695 486.609 410.119C486.772 410.544 487.005 410.875 487.308 411.114C487.615 411.348 487.986 411.466 488.422 411.466C488.876 411.466 489.257 411.345 489.564 411.102C489.871 410.856 490.102 410.521 490.257 410.097C490.416 409.669 490.496 409.182 490.496 408.636C490.496 408.095 490.418 407.614 490.263 407.193C490.107 406.773 489.876 406.443 489.57 406.205C489.263 405.966 488.88 405.847 488.422 405.847C487.982 405.847 487.609 405.962 487.303 406.193C486.996 406.424 486.763 406.748 486.604 407.165C486.448 407.581 486.371 408.072 486.371 408.636ZM495.707 404.273L497.469 407.494L499.259 404.273H501.435L498.804 408.636L501.48 413H499.315L497.469 409.858L495.639 413H493.457L496.116 408.636L493.526 404.273H495.707Z" fill="#313741"/>
<path d="M485.5 430.5L479.5 423L491.5 423L485.5 430.5Z" fill="#FEE0BC"/>
</g>
<rect x="505" y="448" width="113" height="6" rx="3" fill="#323232" fill-opacity="0.16"/>
<rect x="505" y="461" width="66" height="6" rx="3" fill="#323232" fill-opacity="0.16"/>
<rect x="505" y="474" width="85" height="6" rx="3" fill="#323232" fill-opacity="0.16"/>
<rect x="505" y="487" width="101" height="6" rx="3" fill="#323232" fill-opacity="0.16"/>
<rect x="505" y="500" width="85" height="6" rx="3" fill="#323232" fill-opacity="0.16"/>
<rect x="505" y="513" width="85" height="6" rx="3" fill="#323232" fill-opacity="0.16"/>
<path d="M358 0L358 600" stroke="#626262" stroke-width="2" stroke-dasharray="16 8"/>
</g>
<defs>
<filter id="filter0_b_3090_1205" x="-80" y="-80" width="876" height="760" filterUnits="userSpaceOnUse" color-interpolation-filters="sRGB">
<feFlood flood-opacity="0" result="BackgroundImageFix"/>
<feGaussianBlur in="BackgroundImageFix" stdDeviation="40"/>
<feComposite in2="SourceAlpha" operator="in" result="effect1_backgroundBlur_3090_1205"/>
<feBlend mode="normal" in="SourceGraphic" in2="effect1_backgroundBlur_3090_1205" result="shape"/>
</filter>
<filter id="filter1_d_3090_1205" x="361" y="334.2" width="64" height="64" filterUnits="userSpaceOnUse" color-interpolation-filters="sRGB">
<feFlood flood-opacity="0" result="BackgroundImageFix"/>
<feColorMatrix in="SourceAlpha" type="matrix" values="0 0 0 0 0 0 0 0 0 0 0 0 0 0 0 0 0 0 127 0" result="hardAlpha"/>
<feOffset dy="3.2"/>
<feGaussianBlur stdDeviation="8"/>
<feComposite in2="hardAlpha" operator="out"/>
<feColorMatrix type="matrix" values="0 0 0 0 0.670588 0 0 0 0 0 0 0 0 0 0.121569 0 0 0 1 0"/>
<feBlend mode="normal" in2="BackgroundImageFix" result="effect1_dropShadow_3090_1205"/>
<feBlend mode="normal" in="SourceGraphic" in2="effect1_dropShadow_3090_1205" result="shape"/>
</filter>
<filter id="filter2_d_3090_1205" x="489" y="334.2" width="64" height="64" filterUnits="userSpaceOnUse" color-interpolation-filters="sRGB">
<feFlood flood-opacity="0" result="BackgroundImageFix"/>
<feColorMatrix in="SourceAlpha" type="matrix" values="0 0 0 0 0 0 0 0 0 0 0 0 0 0 0 0 0 0 127 0" result="hardAlpha"/>
<feOffset dy="3.2"/>
<feGaussianBlur stdDeviation="8"/>
<feComposite in2="hardAlpha" operator="out"/>
<feColorMatrix type="matrix" values="0 0 0 0 0.670588 0 0 0 0 0 0 0 0 0 0.121569 0 0 0 1 0"/>
<feBlend mode="normal" in2="BackgroundImageFix" result="effect1_dropShadow_3090_1205"/>
<feBlend mode="normal" in="SourceGraphic" in2="effect1_dropShadow_3090_1205" result="shape"/>
</filter>
<filter id="filter3_d_3090_1205" x="490.9" y="285.1" width="95.2" height="48.2" filterUnits="userSpaceOnUse" color-interpolation-filters="sRGB">
<feFlood flood-opacity="0" result="BackgroundImageFix"/>
<feColorMatrix in="SourceAlpha" type="matrix" values="0 0 0 0 0 0 0 0 0 0 0 0 0 0 0 0 0 0 127 0" result="hardAlpha"/>
<feOffset dy="3.2"/>
<feGaussianBlur stdDeviation="7.05"/>
<feComposite in2="hardAlpha" operator="out"/>
<feColorMatrix type="matrix" values="0 0 0 0 0.670588 0 0 0 0 0 0 0 0 0 0.121569 0 0 0 0.2 0"/>
<feBlend mode="normal" in2="BackgroundImageFix" result="effect1_dropShadow_3090_1205"/>
<feBlend mode="normal" in="SourceGraphic" in2="effect1_dropShadow_3090_1205" result="shape"/>
</filter>
<filter id="filter4_d_3090_1205" x="395.8" y="248.64" width="86.4" height="86.4" filterUnits="userSpaceOnUse" color-interpolation-filters="sRGB">
<feFlood flood-opacity="0" result="BackgroundImageFix"/>
<feColorMatrix in="SourceAlpha" type="matrix" values="0 0 0 0 0 0 0 0 0 0 0 0 0 0 0 0 0 0 127 0" result="hardAlpha"/>
<feOffset dy="3.84"/>
<feGaussianBlur stdDeviation="9.6"/>
<feComposite in2="hardAlpha" operator="out"/>
<feColorMatrix type="matrix" values="0 0 0 0 0.410026 0 0 0 0 0.410026 0 0 0 0 0.410026 0 0 0 0.4 0"/>
<feBlend mode="normal" in2="BackgroundImageFix" result="effect1_dropShadow_3090_1205"/>
<feBlend mode="normal" in="SourceGraphic" in2="effect1_dropShadow_3090_1205" result="shape"/>
</filter>
<filter id="filter5_d_3090_1205" x="429" y="68" width="113" height="87.5" filterUnits="userSpaceOnUse" color-interpolation-filters="sRGB">
<feFlood flood-opacity="0" result="BackgroundImageFix"/>
<feColorMatrix in="SourceAlpha" type="matrix" values="0 0 0 0 0 0 0 0 0 0 0 0 0 0 0 0 0 0 127 0" result="hardAlpha"/>
<feOffset/>
<feGaussianBlur stdDeviation="12"/>
<feComposite in2="hardAlpha" operator="out"/>
<feColorMatrix type="matrix" values="0 0 0 0 0.192157 0 0 0 0 0.215686 0 0 0 0 0.254902 0 0 0 0.24 0"/>
<feBlend mode="normal" in2="BackgroundImageFix" result="effect1_dropShadow_3090_1205"/>
<feBlend mode="normal" in="SourceGraphic" in2="effect1_dropShadow_3090_1205" result="shape"/>
</filter>
<filter id="filter6_d_3090_1205" x="398.011" y="449.609" width="39.9778" height="39.9778" filterUnits="userSpaceOnUse" color-interpolation-filters="sRGB">
<feFlood flood-opacity="0" result="BackgroundImageFix"/>
<feColorMatrix in="SourceAlpha" type="matrix" values="0 0 0 0 0 0 0 0 0 0 0 0 0 0 0 0 0 0 127 0" result="hardAlpha"/>
<feOffset dy="1.59778"/>
<feGaussianBlur stdDeviation="3.99446"/>
<feComposite in2="hardAlpha" operator="out"/>
<feColorMatrix type="matrix" values="0 0 0 0 0.670588 0 0 0 0 0 0 0 0 0 0.121569 0 0 0 1 0"/>
<feBlend mode="normal" in2="BackgroundImageFix" result="effect1_dropShadow_3090_1205"/>
<feBlend mode="normal" in="SourceGraphic" in2="effect1_dropShadow_3090_1205" result="shape"/>
</filter>
<filter id="filter7_d_3090_1205" x="433" y="367" width="105" height="87.5" filterUnits="userSpaceOnUse" color-interpolation-filters="sRGB">
<feFlood flood-opacity="0" result="BackgroundImageFix"/>
<feColorMatrix in="SourceAlpha" type="matrix" values="0 0 0 0 0 0 0 0 0 0 0 0 0 0 0 0 0 0 127 0" result="hardAlpha"/>
<feOffset/>
<feGaussianBlur stdDeviation="12"/>
<feComposite in2="hardAlpha" operator="out"/>
<feColorMatrix type="matrix" values="0 0 0 0 0.192157 0 0 0 0 0.215686 0 0 0 0 0.254902 0 0 0 0.24 0"/>
<feBlend mode="normal" in2="BackgroundImageFix" result="effect1_dropShadow_3090_1205"/>
<feBlend mode="normal" in="SourceGraphic" in2="effect1_dropShadow_3090_1205" result="shape"/>
</filter>
<clipPath id="clip0_3090_1205">
<rect width="492" height="31" fill="white" transform="translate(138 89)"/>
</clipPath>
</defs>
</svg>
