<svg width="300" height="51" viewBox="0 0 300 51" fill="none" xmlns="http://www.w3.org/2000/svg">
<path opacity="0.9" d="M67.822 18.0766C65.4942 16.0346 63.1256 15.4219 59.9811 15.4219C56.3058 15.4219 51.4869 17.0556 51.4869 21.7114C51.4869 26.2855 56.0199 27.6741 59.8178 27.9599C62.6764 28.1233 63.8199 28.6951 63.8199 30.0837C63.8199 31.5539 62.0639 32.5341 60.1853 32.4932C57.9393 32.4524 54.6722 31.268 53.2429 29.6752L50.7927 33.2284C53.733 36.2914 56.9183 36.8223 60.1037 36.8223C65.8618 36.8223 68.7612 33.7593 68.7612 30.2062C68.7612 24.8561 63.9424 23.9984 60.1445 23.7534C57.5717 23.59 56.3874 22.8549 56.3874 21.548C56.3874 20.282 57.6942 19.5468 60.0628 19.5468C61.9822 19.5468 63.6157 19.9961 65.045 21.3438L67.822 18.0766ZM91.9256 27.8374C92.7 19.5468 88.4953 15.3811 81.7555 15.3811C75.2215 15.3811 71.056 19.7919 71.056 25.9179C71.056 32.3707 75.1822 36.659 82.1246 36.659C85.1874 36.659 88.6586 35.5971 90.7806 33.3917L87.5969 30.247C86.4518 31.4314 84.0424 32.1257 82.2047 32.1257C78.6927 32.1257 76.5283 30.3287 76.2016 27.8374H91.9256ZM76.2832 23.7125C77.0183 21.0988 79.2251 19.7919 81.9204 19.7919C84.779 19.7919 86.8209 21.0988 87.1476 23.7125H76.2832ZM111.569 18.7709C110.425 16.7697 107.852 15.5036 105.157 15.5036C99.2764 15.4628 94.6618 19.0976 94.6618 26.0404C94.6618 33.1058 99.0722 36.7815 105.035 36.7406C107.281 36.6998 110.425 35.5563 111.569 33.1875L111.814 36.128H116.51V15.9937H111.732L111.569 18.7709ZM105.606 19.9552C113.447 19.9552 113.447 32.1665 105.606 32.1665C102.298 32.1665 99.644 29.8794 99.644 26.0404C99.644 22.2015 102.298 19.9552 105.606 19.9552ZM123.179 10.8478V16.0346H119.422V20.3228H123.179V29.0218C123.179 34.0452 126.038 36.5364 130.407 36.3731C131.824 36.3524 133.224 36.0613 134.532 35.5154L133.143 31.268C132.408 31.6356 131.51 31.8806 130.734 31.8806C129.182 31.8806 128.12 30.9413 128.12 29.0218V20.3228H133.715V16.0346H128.161V10.3169L123.179 10.8478ZM155.827 36.128V25.3462C155.827 22.6915 157.502 20.3636 160.197 20.3636C162.892 20.3636 163.995 22.6099 163.995 25.2645V36.128H168.977V25.2645C168.977 19.2201 166.159 15.7078 160.442 15.7078C157.828 15.7078 155.501 16.5246 153.704 19.3835C152.56 16.6063 150.151 15.6261 147.741 15.6261C145.822 15.6261 143.494 16.3613 142.432 18.4033L142.065 15.9529H137.45V36.128H142.432V25.3462C142.432 22.6915 144.025 20.282 146.72 20.282C149.457 20.282 150.845 22.6915 150.845 25.3462V36.128H155.827ZM189.049 18.7709C187.905 16.7697 185.332 15.5036 182.637 15.5036C176.757 15.4628 172.142 19.0976 172.142 26.0404C172.142 33.1058 176.552 36.7815 182.515 36.7406C184.761 36.6998 187.905 35.5563 189.049 33.1875L189.294 36.128H193.99V15.9937H189.212L189.049 18.7709ZM183.086 19.9552C190.927 19.9552 190.927 32.1665 183.086 32.1665C179.779 32.1665 177.124 29.8794 177.124 26.0404C177.124 22.2015 179.779 19.9552 183.086 19.9552ZM209.358 31.7989C205.968 31.7989 203.64 29.226 203.64 26.0813C203.64 22.9366 205.764 20.3636 209.358 20.3636C212.951 20.3636 215.075 22.9366 215.075 26.0813C215.075 29.226 212.747 31.7989 209.358 31.7989ZM203.191 44.5412V33.7593C204.62 35.9647 207.765 36.6181 209.888 36.6181C216.341 36.6181 220.057 31.9623 220.057 26.0813C220.057 20.1594 215.932 15.5445 209.725 15.5445C207.438 15.5445 204.743 16.5246 203.191 18.7709L202.864 15.9937H198.209V44.5412H203.191ZM223.61 33.5551C223.61 37.4349 229.491 37.4349 229.491 33.5551C229.491 29.6752 223.61 29.6752 223.61 33.5551ZM246.047 31.7989C242.658 31.7989 240.33 29.226 240.33 26.0813C240.33 22.9366 242.453 20.3636 246.047 20.3636C249.641 20.3636 251.764 22.9366 251.764 26.0813C251.764 29.226 249.437 31.7989 246.047 31.7989ZM239.881 44.5412V33.7593C241.31 35.9647 244.454 36.6181 246.578 36.6181C253.03 36.6181 256.747 31.9623 256.747 26.0813C256.747 20.1594 252.622 15.5445 246.415 15.5445C244.128 15.5445 241.432 16.5246 239.881 18.7709L239.554 15.9937H234.898V44.5412H239.881ZM260.422 15.9937V36.128H265.404V25.5095C265.404 21.793 267.814 20.4045 270.427 20.4045C272.061 20.4045 273 20.8537 274.021 21.7114L276.267 17.3823C275.164 16.2796 273.163 15.4628 271.081 15.4628C269.039 15.4628 266.956 15.8303 265.404 18.3216L265.037 15.9937H260.422ZM287.604 15.5853C281.193 15.5853 277.191 20.3228 277.191 26.0813C277.191 31.8806 281.111 36.5773 287.645 36.5773C294.179 36.5773 298.14 31.8806 298.14 26.0813C298.14 20.3228 294.016 15.5853 287.604 15.5853ZM287.645 20.1186C290.994 20.1186 293.117 23.0591 293.117 26.0813C293.117 29.1443 291.28 32.0032 287.645 32.0032C284.01 32.0032 282.173 29.1443 282.173 26.0813C282.173 23.0591 284.051 20.1186 287.645 20.1186Z" fill="black"/>
<path fill-rule="evenodd" clip-rule="evenodd" d="M27.4869 21.9905H34.555L36.1256 4.71191H11.7801C9.48896 4.71191 7.29167 5.62213 5.67159 7.24231C4.05151 8.8625 3.14136 11.0599 3.14136 13.3512C3.14136 15.6425 4.05151 17.84 5.67159 19.4601C7.29167 21.0803 9.48896 21.9905 11.7801 21.9905H27.4869ZM4.71204 45.5523H27.4869C28.6214 45.5523 29.7447 45.3289 30.7928 44.8947C31.8409 44.4605 32.7932 43.8242 33.5954 43.0219C34.3976 42.2197 35.0339 41.2673 35.4681 40.2191C35.9022 39.171 36.1256 38.0475 36.1256 36.913C36.1256 35.7785 35.9022 34.655 35.4681 33.6069C35.0339 32.5587 34.3976 31.6063 33.5954 30.8041C32.7932 30.0018 31.8409 29.3655 30.7928 28.9313C29.7447 28.4971 28.6214 28.2737 27.4869 28.2737H4.71204L3.14136 45.5523H4.71204Z" fill="#FFAD00"/>
</svg>
