<svg width="299" height="49" viewBox="0 0 299 49" fill="none" xmlns="http://www.w3.org/2000/svg">
<g clip-path="url(#clip0_2360_86973)">
<path d="M198.061 0.124023L204.042 25.0043L223.649 0.124023H232.134L208.44 30.2055H196.654L189.535 0.124023H198.061ZM253.134 0.124023C257.164 0.124023 259.847 0.861484 261.185 2.33534C262.523 3.80868 262.715 6.27944 261.763 9.74656L261.192 11.8274C260.23 15.3242 258.766 17.7727 256.795 19.174C254.823 20.5751 251.823 21.2762 247.795 21.2762H234.081L231.629 30.2055H224.212L232.477 0.124023H253.134ZM253.992 11.047L254.158 10.4403C254.474 9.28411 254.428 8.47519 254.01 8.01246C253.595 7.55091 252.702 7.31979 251.329 7.31979H237.916L236.058 14.0809H249.642C250.93 14.0809 251.897 13.857 252.549 13.4092C253.201 12.962 253.682 12.1741 253.992 11.047ZM275.892 0.124023H289.479C293.335 0.124023 296.018 0.818485 297.522 2.20569C299.027 3.59143 299.382 5.73069 298.59 8.62009H290.617C290.879 7.66637 290.809 7.00942 290.409 6.64817C290.007 6.28692 289.044 6.10611 287.53 6.10611H275.028C273.857 6.10611 272.904 6.30139 272.181 6.69089C271.461 7.08119 270.949 7.82562 270.648 8.92365C270.345 10.022 270.475 10.7437 271.038 11.0904C271.45 11.3504 272.287 11.4816 273.545 11.4816L287.116 12.0004C290.974 12.0004 293.462 12.5057 294.585 13.5173C296.008 14.789 296.203 17.3029 295.172 21.06C294.274 24.3241 292.859 26.6652 290.927 28.0817C288.994 29.4975 286.1 30.2055 282.242 30.2055H266.899C263.069 30.2055 260.564 29.5265 259.38 28.1681C258.195 26.8107 258.014 24.643 258.83 21.6664H266.374C266.168 22.4175 266.339 23.0248 266.881 23.4864C267.426 23.9491 268.242 24.1812 269.327 24.1812H281.713C283.427 24.1812 284.722 23.9631 285.597 23.5303C286.476 23.0963 287.072 22.3029 287.389 21.1462C287.707 19.9898 287.606 19.1673 287.084 18.6758C286.468 18.0977 285.171 17.809 283.17 17.809L271.45 17.3318C267.003 17.3318 264.176 16.8553 262.979 15.9014C261.583 14.7747 261.372 12.4191 262.356 8.83664C263.229 5.65814 264.696 3.41219 266.758 2.09742C268.82 0.782642 271.865 0.124023 275.892 0.124023Z" fill="#0CA1D8"/>
<path d="M189.188 0.124023L187.511 6.23564H174.481L167.896 30.2055H160.524L167.108 6.23564H154.081L155.761 0.124023H189.188Z" fill="black"/>
<path d="M104.201 0.124023H92.501L68.2511 30.2055H76.9075L82.6686 22.9673H101.441L103.224 30.2055H111.881L104.201 0.124023ZM87.5384 16.9413L96.74 5.75952H97.0822L99.8819 16.9413H87.5384Z" fill="black"/>
<path d="M130.261 0.124023H143.846C147.704 0.124023 150.385 0.818485 151.89 2.20569C153.394 3.59143 153.749 5.73069 152.955 8.62009H144.983C145.246 7.66637 145.176 7.00942 144.775 6.64817C144.375 6.28692 143.41 6.10611 141.896 6.10611H129.395C128.224 6.10611 127.27 6.30139 126.549 6.69089C125.827 7.08119 125.315 7.82562 125.013 8.92365C124.712 10.022 124.842 10.7437 125.405 11.0904C125.818 11.3504 126.654 11.4816 127.911 11.4816L141.483 12.0004C145.34 12.0004 147.831 12.5057 148.952 13.5173C150.374 14.789 150.57 17.3029 149.537 21.06C148.64 24.3241 147.226 26.6652 145.294 28.0817C143.362 29.4975 140.467 30.2055 136.61 30.2055H121.267C117.438 30.2055 114.931 29.5265 113.748 28.1681C112.563 26.8107 112.38 24.643 113.198 21.6664H120.742C120.535 22.4175 120.705 23.0248 121.248 23.4864C121.793 23.9491 122.608 24.1812 123.694 24.1812H136.079C137.794 24.1812 139.088 23.9631 139.966 23.5303C140.842 23.0963 141.439 22.3029 141.756 21.1462C142.074 19.9898 141.971 19.1673 141.449 18.6758C140.837 18.0977 139.537 17.809 137.537 17.809L125.818 17.3318C121.367 17.3318 118.542 16.8553 117.347 15.9014C115.949 14.7747 115.738 12.4191 116.723 8.83664C117.597 5.65814 119.063 3.41219 121.125 2.09742C123.186 0.782642 126.231 0.124023 130.261 0.124023Z" fill="black"/>
<path d="M45.1814 0.124023H76.8545L75.2105 6.10581H50.9957L49.4716 11.6538H72.915L71.2598 17.6796H47.8154L44.3741 30.2053L37.0843 30.2057L45.1814 0.124023Z" fill="black"/>
<path d="M0 0.124023L2.8405 4.26835H39.1239L40.2396 0.124023H0Z" fill="black"/>
<path d="M20.9988 30.2057H32.5227L33.6417 26.0479H18.149L20.9988 30.2057Z" fill="black"/>
<path d="M8.82935 12.9663H36.7826L37.9452 8.64746H5.84238L8.82935 12.9663Z" fill="black"/>
<path d="M14.9216 21.6165H34.6444L35.8069 17.2979H11.8624L14.9216 21.6165Z" fill="black"/>
<path d="M145.735 47.9018H144.52V43.5479H139.659V47.9018H138.444V38.5928H139.659V42.476H144.52V38.5928H145.735V47.9018Z" fill="black"/>
<path d="M156.077 43.1693C156.077 45.9016 154.59 48.1242 151.668 48.1242C148.721 48.1242 147.26 45.8495 147.26 43.1431C147.26 40.2405 148.98 38.3711 151.655 38.3711C154.513 38.3711 156.077 40.3976 156.077 43.1693ZM148.475 43.2347C148.475 45.5618 149.73 47.0653 151.681 47.0653C153.608 47.0653 154.862 45.5486 154.862 43.2347C154.862 40.9337 153.608 39.443 151.655 39.443C149.484 39.443 148.475 41.2475 148.475 43.2347Z" fill="black"/>
<path d="M162.941 41.3259C162.799 39.9792 162.011 39.4303 160.653 39.4303C159.334 39.4303 158.572 39.9926 158.572 40.973C158.572 42.0189 159.645 42.241 161.067 42.5416C162.566 42.8556 164.48 43.3263 164.48 45.2871C164.48 47.353 162.657 48.1111 160.899 48.1111C158.701 48.1111 157.085 47.0784 157.085 44.8298H158.261C158.313 46.5161 159.528 47.1047 161.002 47.1047C162.075 47.1047 163.29 46.7254 163.29 45.4048C163.29 44.2021 162.127 43.9669 160.614 43.6139C159.128 43.2737 157.408 43.0255 157.408 41.0643C157.408 39.1555 159.089 38.4102 160.744 38.4102C162.696 38.4102 164.04 39.3256 164.118 41.3259H162.941Z" fill="black"/>
<path d="M172.365 39.6649H169.275V47.9014H168.06V39.6649H164.971V38.5928H172.365V39.6649Z" fill="black"/>
<path d="M174.666 38.5928H173.451V47.9018H174.666V38.5928Z" fill="black"/>
<path d="M178.027 38.5928L182.888 46.1495V38.5928H184.064V47.9016H182.694L177.859 40.4362V47.9016H176.696V38.5928H178.027Z" fill="black"/>
<path d="M194.07 47.9024H193.294L192.984 46.7387C192.208 47.7059 191.29 48.1244 190.011 48.1244C187.399 48.1244 185.628 46.1896 185.628 43.3264C185.628 40.5937 187.231 38.3975 190.101 38.3975C191.95 38.3975 193.785 39.4432 193.953 41.4566H192.764C192.583 40.2407 191.523 39.4304 190.101 39.4304C188.097 39.4304 186.843 40.9205 186.843 43.287C186.843 45.6142 188.097 47.1049 190.088 47.1049C192.027 47.1049 192.932 45.7711 192.984 43.9802H190.036V42.9734H194.07V47.9024Z" fill="black"/>
<path d="M203.287 44.0971V47.9018H202.084V44.0971L198.504 38.5928H199.964L202.718 43.025L205.446 38.5928H206.842L203.287 44.0971Z" fill="black"/>
<path d="M216.163 43.1693C216.163 45.9016 214.676 48.1242 211.754 48.1242C208.807 48.1242 207.346 45.8495 207.346 43.1431C207.346 40.2405 209.065 38.3711 211.741 38.3711C214.598 38.3711 216.163 40.3976 216.163 43.1693ZM208.561 43.2347C208.561 45.5618 209.815 47.0653 211.767 47.0653C213.694 47.0653 214.947 45.5486 214.947 43.2347C214.947 40.9337 213.694 39.443 211.741 39.443C209.57 39.443 208.561 41.2475 208.561 43.2347Z" fill="black"/>
<path d="M218.851 38.5928V44.4629C218.851 46.2542 219.562 47.0779 221.333 47.0779C223.195 47.0779 223.815 46.1757 223.815 44.4629V38.5928H225.043V44.1361C225.043 46.7511 224.126 48.0975 221.333 48.0975C218.67 48.0975 217.623 46.8426 217.623 44.2667V38.5928H218.851Z" fill="black"/>
<path d="M231.067 38.5928C232.8 38.5928 234.157 39.1682 234.157 41.1684C234.157 42.2535 233.524 43.1559 232.58 43.4302C233.872 43.705 233.924 44.594 233.976 45.7183C234.015 46.4633 234.015 47.4047 234.506 47.9018H233.11C232.813 47.4311 232.826 46.3849 232.8 45.8489C232.722 44.28 232.321 43.8747 230.654 43.8747H228.236V47.9018H227.021V38.5928H231.067ZM228.236 42.8945H230.524C231.714 42.8945 232.942 42.7768 232.942 41.2469C232.942 39.861 231.933 39.6389 230.848 39.6389H228.236V42.8945Z" fill="black"/>
<path d="M244.809 41.3259C244.667 39.9792 243.878 39.4303 242.521 39.4303C241.202 39.4303 240.44 39.9926 240.44 40.973C240.44 42.0189 241.513 42.241 242.935 42.5416C244.434 42.8556 246.348 43.3263 246.348 45.2871C246.348 47.353 244.525 48.1111 242.767 48.1111C240.569 48.1111 238.953 47.0784 238.953 44.8298H240.129C240.181 46.5161 241.396 47.1047 242.87 47.1047C243.943 47.1047 245.158 46.7254 245.158 45.4048C245.158 44.2021 243.995 43.9669 242.482 43.6139C240.996 43.2737 239.276 43.0255 239.276 41.0643C239.276 39.1555 240.957 38.4102 242.612 38.4102C244.564 38.4102 245.908 39.3256 245.986 41.3259H244.809Z" fill="black"/>
<path d="M249.011 38.5928V44.4629C249.011 46.2542 249.722 47.0779 251.493 47.0779C253.354 47.0779 253.975 46.1757 253.975 44.4629V38.5928H255.203V44.1361C255.203 46.7511 254.285 48.0975 251.493 48.0975C248.83 48.0975 247.782 46.8426 247.782 44.2667V38.5928H249.011Z" fill="black"/>
<path d="M260.994 48.1237C258.37 48.1237 256.728 46.2411 256.728 43.2604C256.728 40.5932 258.253 38.3838 261.085 38.3838C262.894 38.3838 264.717 39.4034 264.898 41.3907H263.683C263.412 40.1747 262.429 39.4425 261.059 39.4425C258.874 39.4425 257.956 41.2862 257.956 43.2474C257.956 45.6137 259.133 47.0648 261.046 47.0648C262.61 47.0648 263.567 46.1234 263.761 44.3845H264.976C264.769 46.751 263.269 48.1237 260.994 48.1237Z" fill="black"/>
<path d="M270.328 48.1237C267.703 48.1237 266.062 46.2411 266.062 43.2604C266.062 40.5932 267.587 38.3838 270.418 38.3838C272.228 38.3838 274.051 39.4034 274.232 41.3907H273.017C272.745 40.1747 271.763 39.4425 270.392 39.4425C268.207 39.4425 267.29 41.2862 267.29 43.2474C267.29 45.6137 268.466 47.0648 270.379 47.0648C271.943 47.0648 272.9 46.1234 273.094 44.3845H274.309C274.102 46.751 272.603 48.1237 270.328 48.1237Z" fill="black"/>
<path d="M282.221 39.6649H277.062V42.5805H281.884V43.6133H277.062V46.8295H282.285V47.9014H275.847V38.5928H282.221V39.6649Z" fill="black"/>
<path d="M289.085 41.3259C288.943 39.9792 288.154 39.4303 286.797 39.4303C285.478 39.4303 284.715 39.9926 284.715 40.973C284.715 42.0189 285.788 42.241 287.21 42.5416C288.71 42.8556 290.623 43.3263 290.623 45.2871C290.623 47.353 288.801 48.1111 287.042 48.1111C284.845 48.1111 283.229 47.0784 283.229 44.8298H284.405C284.457 46.5161 285.672 47.1047 287.145 47.1047C288.219 47.1047 289.434 46.7254 289.434 45.4048C289.434 44.2021 288.27 43.9669 286.758 43.6139C285.271 43.2737 283.552 43.0255 283.552 41.0643C283.552 39.1555 285.233 38.4102 286.887 38.4102C288.839 38.4102 290.184 39.3256 290.261 41.3259H289.085Z" fill="black"/>
<path d="M297.462 41.3259C297.319 39.9792 296.531 39.4303 295.173 39.4303C293.855 39.4303 293.092 39.9926 293.092 40.973C293.092 42.0189 294.165 42.241 295.587 42.5416C297.087 42.8556 299 43.3263 299 45.2871C299 47.353 297.177 48.1111 295.419 48.1111C293.221 48.1111 291.606 47.0784 291.606 44.8298H292.782C292.834 46.5161 294.049 47.1047 295.523 47.1047C296.596 47.1047 297.811 46.7254 297.811 45.4048C297.811 44.2021 296.647 43.9669 295.135 43.6139C293.648 43.2737 291.929 43.0255 291.929 41.0643C291.929 39.1555 293.609 38.4102 295.264 38.4102C297.216 38.4102 298.56 39.3256 298.638 41.3259H297.462Z" fill="black"/>
</g>
<defs>
<clipPath id="clip0_2360_86973">
<rect width="299" height="48" fill="white" transform="translate(0 0.124023)"/>
</clipPath>
</defs>
</svg>
