<svg width="299" height="48" viewBox="0 0 299 48" fill="none" xmlns="http://www.w3.org/2000/svg">
<path d="M113.891 0.043457C112.24 0.043457 111.273 0.840295 110.874 2.43397L105.296 23.664C104.841 25.5423 104.5 27.2498 104.101 29.0711H103.247C102.906 27.2498 102.564 25.5423 102.109 23.7209L96.4743 2.43397C96.0759 0.840295 95.1652 0.043457 93.5715 0.043457H86.2293C84.4079 0.043457 83.4972 1.01105 83.4403 2.83239L81.9605 39.3162H88.9044L90.0996 5.79207H91.1241L97.9542 31.917C98.3526 33.4537 99.3771 34.3075 101.028 34.3075H106.435C108.085 34.3075 109.053 33.4537 109.451 31.917L116.225 5.79207H117.249L118.615 39.3162H125.559L124.022 2.83239C123.908 1.01105 122.998 0.043457 121.176 0.043457H113.891Z" fill="black"/>
<path d="M150.633 28.2743C155.755 28.2743 158.089 25.3146 158.032 20.3059C158.032 13.9881 154.446 10.63 145.396 10.63C135.891 10.63 131.907 14.2727 131.907 25.3146C131.907 35.9012 135.72 39.9992 145.852 39.9992C149.38 39.9992 154.332 39.5439 157.349 38.1209L156.723 33.6814C153.365 34.0798 149.38 34.3644 146.705 34.3644C141.924 34.3644 139.761 33.3399 139.249 28.2743H150.633ZM139.078 23.4363C139.306 17.5739 140.843 16.0941 145.681 16.0941C149.893 16.0941 151.202 17.2324 151.202 20.1921C151.202 21.6719 150.917 23.4363 148.697 23.4363H139.078Z" fill="black"/>
<path d="M193.537 34.0229H189.325V11.4269H176.86C171.908 11.4269 169.404 13.7035 169.063 18.2C168.55 23.6071 167.583 28.9004 165.42 34.0229H161.948V47.4553H166.444L166.957 39.3162H188.528L189.04 47.4553H193.537V34.0229ZM182.837 34.0229H171.51C173.559 29.9818 174.584 25.4284 175.21 19.4522C175.38 17.4601 176.348 16.4925 178.34 16.4925H182.837V34.0229Z" fill="black"/>
<path d="M234.536 33.7952H229.527V0.043457H214.672C209.322 0.043457 206.02 3.17389 205.736 8.06876C205.11 16.8909 203.914 25.6561 200.443 33.7952H196.401V47.9107H201.353L201.979 39.3162H228.958L229.584 47.9107H234.536V33.7952ZM222.413 33.7952H207.216C210.46 27.079 211.712 19.9075 212.566 9.20709C212.737 6.47508 213.647 5.56441 216.265 5.56441H222.413V33.7952Z" fill="black"/>
<path d="M252.567 10.63C242.55 10.63 238.793 14.6711 238.793 25.3715C238.793 36.0719 242.55 40.0561 252.567 40.0561C262.641 40.0561 266.341 36.0719 266.341 25.3715C266.341 14.6711 262.641 10.63 252.567 10.63ZM252.567 16.151C257.633 16.151 259.169 18.1431 259.169 25.3715C259.169 32.5431 257.633 34.5352 252.567 34.5352C247.501 34.5352 246.021 32.5431 246.021 25.3715C246.021 18.1431 247.501 16.151 252.567 16.151Z" fill="black"/>
<path d="M287.86 24.6885C293.893 23.8917 294.69 21.0458 297.991 11.4269H290.99C288.429 19.3383 287.291 22.298 282.453 22.298H279.607C279.835 21.2166 279.948 20.0782 279.948 19.0537V11.4269H273.062V39.3162H279.948V29.811C279.948 29.0711 279.835 28.2174 279.664 27.3636H282.794C287.518 27.4205 288.372 29.7541 291.673 39.3162H298.902C295.202 28.3312 294.178 25.5992 287.86 24.8593V24.6885Z" fill="black"/>
<circle cx="7.11462" cy="19.1581" r="7.11462" fill="#649600"/>
<circle cx="30.83" cy="19.1581" r="7.11462" fill="#649600"/>
<ellipse cx="55.1384" cy="19.1581" rx="7.70751" ry="7.11462" fill="#649600"/>
</svg>
