<svg width="300" height="80" viewBox="0 0 300 80" fill="none" xmlns="http://www.w3.org/2000/svg">
<path fill-rule="evenodd" clip-rule="evenodd" d="M18.9362 1.0293H0V78.2166H9.32079V40.4445L26.2276 78.2166H37.4141L20.6301 43.3237C30.982 42.7513 36.8249 36.4283 36.8249 23.6661V20.5792C36.8249 7.8253 30.2128 1.0293 18.9362 1.0293ZM9.32079 34.7853V10.4972L18.0033 10.464C24.8035 10.464 27.5204 13.4513 27.5204 21.575V22.6453C27.5204 31.2836 24.8035 34.7853 18.0033 34.7853H9.32079Z" fill="#F7464E"/>
<path d="M49.1 1.0293V54.443C49.1 65.7613 51.5549 69.7775 58.3307 69.7775C65.1065 69.7775 67.5779 65.7613 67.5779 54.443V1.0293H76.9232V54.443C76.9232 71.2132 70.9003 79.2456 58.3144 79.2456C45.7284 79.2456 39.7629 71.2132 39.7629 54.443V1.0293H49.1Z" fill="#F7464E"/>
<path d="M97.3818 0C107.349 0 113.609 6.68813 113.609 20.5789V25.3169H104.289V20.8942C104.289 12.9614 102.595 9.46794 97.3818 9.46794C92.4718 9.46794 90.6551 12.7871 90.6551 18.9359C90.6551 25.0848 92.7173 28.6113 97.2836 32.005L103.257 37.9713C109.509 42.8091 114.632 48.6757 114.632 58.6582C114.632 72.4491 107.816 79.2452 97.4473 79.2452C87.0791 79.2452 80.2623 71.9349 80.2623 58.6582V52.8992H89.5832V57.9361C89.5832 65.2467 91.7353 69.7774 97.4228 69.7774C103.11 69.7774 105.262 66.0681 105.262 59.8945C105.262 53.5135 103.298 49.3975 98.5357 45.788L91.9891 40.1288C85.6469 35.2912 81.3508 29.2171 81.3508 18.9276C81.3344 5.45174 87.6847 0 97.3818 0Z" fill="#F7464E"/>
<path d="M133.904 0C143.879 0 150.131 6.68813 150.131 20.5789V25.3169H140.811V20.8942C140.811 12.9614 139.125 9.46794 133.904 9.46794C128.994 9.46794 127.185 12.7871 127.185 18.9359C127.185 25.0848 129.248 28.6113 133.814 32.005L139.788 37.9713C146.032 42.8091 151.948 48.6757 151.948 58.6582C151.948 72.4491 142.251 79.2452 133.994 79.2452C123.65 79.2452 116.809 71.9349 116.809 58.6582V52.8992H126.13V57.9361C126.13 65.2467 128.29 69.7774 133.969 69.7774C139.649 69.7774 141.817 66.0681 141.817 59.8945C141.817 53.5135 139.845 49.3975 135.091 45.788L128.544 40.1288C122.21 35.2912 117.906 29.2171 117.906 18.9276C117.84 5.45174 124.207 0 133.904 0Z" fill="#F7464E"/>
<path d="M245.449 0C255.426 0 261.678 6.68813 261.678 20.5789V25.3169H252.356V20.8942C252.356 12.9614 250.671 9.46794 245.449 9.46794C240.539 9.46794 238.732 12.7871 238.732 18.9359C238.732 25.0848 240.794 28.6113 245.351 32.005L251.335 37.9713C257.578 42.8091 262.684 48.6757 262.684 58.6582C262.684 72.4491 255.876 79.2452 245.499 79.2452C235.123 79.2452 228.314 71.9349 228.314 58.6582V52.8992H237.635V57.9361C237.635 65.2467 239.795 69.7774 245.475 69.7774C251.153 69.7774 253.323 66.0681 253.323 59.8945C253.323 53.5135 251.35 49.3975 246.595 45.788L240.05 40.1288C233.715 35.2912 229.41 29.2171 229.41 18.9276C229.41 5.45174 235.754 0 245.449 0Z" fill="#262626"/>
<path d="M281.979 0C291.948 0 298.208 6.68813 298.208 20.5789V25.3169H288.871V20.8942C288.871 12.9614 287.177 9.46794 281.964 9.46794C277.054 9.46794 275.236 12.7871 275.236 18.9359C275.236 25.0848 277.298 28.6113 281.866 32.005L287.847 37.9713C294.091 42.8091 300 48.6757 300 58.6582C300 72.4491 290.302 79.2452 282.054 79.2452C271.71 79.2452 264.869 71.9349 264.869 58.6582V52.8992H274.189V57.9361C274.189 65.2467 276.343 69.7774 282.03 69.7774C287.716 69.7774 289.868 66.0681 289.868 59.8945C289.868 53.5135 287.904 49.3975 283.151 45.788L276.605 40.1288C270.27 35.2912 265.966 29.2171 265.966 18.9276C265.958 5.45174 272.284 0 281.979 0Z" fill="#262626"/>
<path fill-rule="evenodd" clip-rule="evenodd" d="M174.812 1.0293H156.163V78.2166H165.483V48.7838H174.812C186.089 48.7838 192.537 41.1663 192.537 27.1678V21.6082C192.537 8.13233 186.089 1.0293 174.812 1.0293ZM165.483 39.316V10.4972H173.879C180.59 10.4972 183.217 13.8911 183.217 22.6453V26.1388C183.217 35.5071 180.59 39.316 173.879 39.316H165.483Z" fill="#262626"/>
<path fill-rule="evenodd" clip-rule="evenodd" d="M214.951 1.0293H200.966L186.882 78.2H196.293L199.935 59.2642H215.99L219.623 78.2H229.035L214.951 1.0293ZM207.93 9.26085L214.877 49.8127L201.792 49.7879L207.93 9.26085Z" fill="#262626"/>
</svg>
