<svg width="609" height="448" viewBox="0 0 609 448" fill="none" xmlns="http://www.w3.org/2000/svg">
<g clip-path="url(#clip0_30215_28960)">
<rect x="0.600098" width="608" height="448" rx="6.4" fill="#D4E2E8"/>
<circle cx="445.75" cy="211.075" r="160" fill="white" fill-opacity="0.3"/>
<circle cx="562.009" cy="91.073" r="33.1392" fill="#8298A2"/>
<circle cx="571.058" cy="311.528" r="20.1942" fill="white"/>
<circle cx="298.393" cy="145.265" r="10.356" fill="white"/>
<circle cx="360.439" cy="340.684" r="43.4413" fill="#8298A2"/>
<g filter="url(#filter0_di_30215_28960)">
<path fill-rule="evenodd" clip-rule="evenodd" d="M521.821 211.074C521.821 253.041 487.801 287.061 445.834 287.061C431.557 287.061 418.2 283.124 406.789 276.276L372.515 286.02C370.937 286.469 369.488 284.991 369.968 283.422L380.323 249.598C373.666 238.302 369.847 225.134 369.847 211.074C369.847 169.108 403.868 135.087 445.834 135.087C487.801 135.087 521.821 169.108 521.821 211.074ZM413.973 221.667C420.077 221.667 425.026 216.718 425.026 210.614C425.026 204.51 420.077 199.561 413.973 199.561C407.869 199.561 402.92 204.51 402.92 210.614C402.92 216.718 407.869 221.667 413.973 221.667ZM456.342 210.172C456.342 216.032 451.394 220.783 445.289 220.783C439.185 220.783 434.237 216.032 434.237 210.172C434.237 204.312 439.185 199.561 445.289 199.561C451.394 199.561 456.342 204.312 456.342 210.172ZM476.605 221.667C482.71 221.667 487.658 216.718 487.658 210.614C487.658 204.51 482.71 199.561 476.605 199.561C470.501 199.561 465.553 204.51 465.553 210.614C465.553 216.718 470.501 221.667 476.605 221.667Z" fill="url(#paint0_linear_30215_28960)"/>
</g>
<path d="M445.75 311.01C500.942 311.01 545.685 266.268 545.685 211.075C545.685 155.882 500.942 111.14 445.75 111.14C390.557 111.14 345.814 155.882 345.814 211.075" stroke="#223548" stroke-width="8.38342"/>
<rect x="435.912" y="297.547" width="43.4951" height="20.712" rx="10.356" fill="#223548"/>
<path d="M567.433 184.667C567.433 170.94 556.305 159.813 542.579 159.813H537.401C532.825 159.813 529.116 163.522 529.116 168.097V248.874C529.116 253.45 532.825 257.159 537.401 257.159H542.579C556.305 257.159 567.433 246.031 567.433 232.305V184.667Z" fill="#223548"/>
<path d="M567.433 184.667C567.433 170.94 556.305 159.813 542.579 159.813H537.401C532.825 159.813 529.116 163.522 529.116 168.097V248.874C529.116 253.45 532.825 257.159 537.401 257.159H542.579C556.305 257.159 567.433 246.031 567.433 232.305V184.667Z" fill="url(#paint1_linear_30215_28960)"/>
<path d="M324.067 184.667C324.067 170.94 335.195 159.813 348.921 159.813H354.099C358.675 159.813 362.384 163.522 362.384 168.097V248.874C362.384 253.45 358.675 257.159 354.099 257.159H348.921C335.195 257.159 324.067 246.031 324.067 232.305V184.667Z" fill="#223548"/>
<path d="M324.067 184.667C324.067 170.94 335.195 159.813 348.921 159.813H354.099C358.675 159.813 362.384 163.522 362.384 168.097V248.874C362.384 253.45 358.675 257.159 354.099 257.159H348.921C335.195 257.159 324.067 246.031 324.067 232.305V184.667Z" fill="url(#paint2_linear_30215_28960)"/>
<path d="M574.682 192.952C574.682 188.948 571.437 185.703 567.433 185.703V185.703V232.304V232.304C571.437 232.304 574.682 229.059 574.682 225.055V192.952Z" fill="#223548"/>
<path d="M574.682 192.952C574.682 188.948 571.437 185.703 567.433 185.703V185.703V232.304V232.304C571.437 232.304 574.682 229.059 574.682 225.055V192.952Z" fill="url(#paint3_linear_30215_28960)" fill-opacity="0.2"/>
<path d="M316.818 192.952C316.818 188.948 320.063 185.703 324.067 185.703V185.703V232.304V232.304C320.063 232.304 316.818 229.059 316.818 225.055V192.952Z" fill="#223548"/>
<path d="M316.818 192.952C316.818 188.948 320.063 185.703 324.067 185.703V185.703V232.304V232.304C320.063 232.304 316.818 229.059 316.818 225.055V192.952Z" fill="url(#paint4_linear_30215_28960)" fill-opacity="0.2"/>
<rect x="341.005" y="326.584" width="38.8686" height="28.1988" rx="2.9992" stroke="white" stroke-width="2.28639"/>
<rect x="361.582" y="344.113" width="12.9562" height="5.3349" rx="2.66745" stroke="white" stroke-width="2.28639"/>
<circle cx="558.593" cy="93.754" r="13.3373" stroke="white" stroke-width="2.28639"/>
<circle cx="558.593" cy="93.754" r="8.76448" stroke="white" stroke-width="2.28639"/>
<path d="M562.009 81.3583C562.819 77.5969 566.179 74.7769 570.201 74.7769C574.828 74.7769 578.578 78.5092 578.578 83.1133C578.578 87.2695 575.522 90.7153 571.523 91.3464" stroke="white" stroke-width="2.28639"/>
<path d="M381.02 46.2563L368.739 60.0194V46.2563H359.825V80.9352H368.739V66.3336L381.911 80.9352H393.399L377.207 62.7818L392.211 46.2563H381.02Z" fill="#EF2F24"/>
<path d="M344.078 59.1806H331.797V46.2562H322.884V80.935H331.797V67.2707H344.078V80.935H352.992V46.2562H344.078V59.1806Z" fill="#EF2F24"/>
<path d="M85.4866 65.051C85.2885 71.5132 84.4467 72.7958 80.7822 72.7958V80.9352H82.1193C91.2309 80.9352 93.4097 76.2488 93.7564 65.8403L94.103 54.2971H102.62V80.9352H111.534V46.2563H86.1303L85.4866 65.051Z" fill="#EF2F24"/>
<path d="M133.075 73.3384H127.331V64.5084H133.075C136.145 64.5084 138.027 65.8403 138.027 68.7507C138.027 71.9078 136.244 73.3384 133.075 73.3384ZM133.768 56.8129H127.331V46.2563H118.417V80.9352H133.867C143.573 80.9352 147.039 74.6703 147.039 68.7507C147.039 61.1046 142.236 56.8129 133.768 56.8129Z" fill="#EF2F24"/>
<path d="M176.058 73.3876V53.7544C181.01 54.445 184.08 58.1447 184.08 63.571C184.13 68.9973 181.01 72.697 176.058 73.3876ZM167.144 73.3876C162.192 72.697 159.122 68.9973 159.122 63.571C159.122 58.1447 162.192 54.445 167.144 53.7544V73.3876ZM176.058 45.467V32.5919H167.144V45.467C156.943 46.3056 150.06 53.5571 150.06 63.571C150.06 73.6836 156.943 80.8857 167.144 81.7737V94.8461H176.058V81.7737C186.259 80.9844 193.142 73.6836 193.142 63.571C193.142 53.4584 186.259 46.2563 176.058 45.467Z" fill="#EF2F24"/>
<path d="M217.655 68.0107C217.655 72.0064 214.832 74.2756 211.118 74.2756C207.899 74.2756 205.374 73.0917 205.374 69.6386C205.374 66.2348 208.147 65.6922 210.573 65.6922H217.704V68.0107H217.655ZM226.568 70.2799V58.638C226.568 50.1533 221.121 44.7764 211.96 44.7764C202.502 44.7764 197.5 50.4493 197.054 56.3689H206.067C206.364 55.0863 207.751 52.8665 211.96 52.8665C215.426 52.8665 217.655 54.445 217.655 58.638H208.791C200.867 58.638 196.163 62.7817 196.163 69.6879C196.163 76.89 201.313 81.823 208.741 81.823C214.188 81.823 217.209 79.2579 218.496 77.334C219.685 79.6525 222.26 80.9844 225.677 80.9844H228.747V72.993C227.162 72.9437 226.568 72.2037 226.568 70.2799Z" fill="#EF2F24"/>
<path d="M264.302 72.2037H254.794V59.6246H264.302C269.254 59.6246 272.027 61.8938 272.027 65.8895C272.027 70.0332 269.254 72.2037 264.302 72.2037ZM264.698 51.1892H254.745V41.3726H277.821V32.5426H245.386V80.9351H264.698C275.395 80.9351 281.535 75.6568 281.535 65.8895C281.535 56.7142 275.444 51.1892 264.698 51.1892Z" fill="#EF2F24"/>
<path d="M306.741 68.0107C306.741 72.0064 303.918 74.2756 300.204 74.2756C296.985 74.2756 294.46 73.0917 294.46 69.6386C294.46 66.2348 297.233 65.6922 299.659 65.6922H306.79V68.0107H306.741ZM315.654 70.2799V58.638C315.654 50.1533 310.207 44.7764 301.046 44.7764C291.588 44.7764 286.586 50.4493 286.14 56.3689H295.153C295.45 55.0863 296.837 52.8665 301.046 52.8665C304.512 52.8665 306.741 54.445 306.741 58.638H297.877C289.953 58.638 285.249 62.7817 285.249 69.6879C285.249 76.89 290.399 81.823 297.827 81.823C303.274 81.823 306.295 79.2579 307.582 77.334C308.771 79.6525 311.346 80.9844 314.763 80.9844H317.833V72.993C316.248 72.9437 315.654 72.2037 315.654 70.2799Z" fill="#EF2F24"/>
<path d="M80.2375 105.6H32.5996V95.734H80.2375V105.6Z" fill="#EF2F24"/>
<path d="M49.6342 62.6338L56.3194 42.8525H56.5669L62.8559 62.6338H49.6342ZM65.0843 39.2021C63.7473 35.1571 62.1627 32 56.8145 32C51.4664 32 49.7828 35.1571 48.3467 39.2021L33.5898 80.9351H43.3452L46.7621 71.0198H65.5795L68.7488 80.9351H79.1479L65.0843 39.2021Z" fill="#EF2F24"/>
</g>
<defs>
<filter id="filter0_di_30215_28960" x="266.287" y="31.5272" width="359.094" height="359.094" filterUnits="userSpaceOnUse" color-interpolation-filters="sRGB">
<feFlood flood-opacity="0" result="BackgroundImageFix"/>
<feColorMatrix in="SourceAlpha" type="matrix" values="0 0 0 0 0 0 0 0 0 0 0 0 0 0 0 0 0 0 127 0" result="hardAlpha"/>
<feOffset/>
<feGaussianBlur stdDeviation="51.7799"/>
<feComposite in2="hardAlpha" operator="out"/>
<feColorMatrix type="matrix" values="0 0 0 0 1 0 0 0 0 1 0 0 0 0 1 0 0 0 1 0"/>
<feBlend mode="normal" in2="BackgroundImageFix" result="effect1_dropShadow_30215_28960"/>
<feBlend mode="normal" in="SourceGraphic" in2="effect1_dropShadow_30215_28960" result="shape"/>
<feColorMatrix in="SourceAlpha" type="matrix" values="0 0 0 0 0 0 0 0 0 0 0 0 0 0 0 0 0 0 127 0" result="hardAlpha"/>
<feOffset/>
<feGaussianBlur stdDeviation="5.7459"/>
<feComposite in2="hardAlpha" operator="arithmetic" k2="-1" k3="1"/>
<feColorMatrix type="matrix" values="0 0 0 0 1 0 0 0 0 0.818719 0 0 0 0 0.808333 0 0 0 1 0"/>
<feBlend mode="overlay" in2="shape" result="effect2_innerShadow_30215_28960"/>
</filter>
<linearGradient id="paint0_linear_30215_28960" x1="445.834" y1="135.087" x2="445.834" y2="287.061" gradientUnits="userSpaceOnUse">
<stop stop-color="#EF2F24"/>
<stop offset="1" stop-color="#C1180F"/>
</linearGradient>
<linearGradient id="paint1_linear_30215_28960" x1="548.275" y1="159.813" x2="548.275" y2="257.159" gradientUnits="userSpaceOnUse">
<stop stop-color="#44607C"/>
<stop offset="1" stop-color="#44607C" stop-opacity="0"/>
</linearGradient>
<linearGradient id="paint2_linear_30215_28960" x1="343.225" y1="159.813" x2="343.225" y2="257.159" gradientUnits="userSpaceOnUse">
<stop stop-color="#44607C"/>
<stop offset="1" stop-color="#44607C" stop-opacity="0"/>
</linearGradient>
<linearGradient id="paint3_linear_30215_28960" x1="571.058" y1="185.703" x2="571.058" y2="232.304" gradientUnits="userSpaceOnUse">
<stop/>
<stop offset="1" stop-opacity="0"/>
</linearGradient>
<linearGradient id="paint4_linear_30215_28960" x1="320.442" y1="185.703" x2="320.442" y2="232.304" gradientUnits="userSpaceOnUse">
<stop/>
<stop offset="1" stop-opacity="0"/>
</linearGradient>
<clipPath id="clip0_30215_28960">
<rect x="0.600098" width="608" height="448" rx="6.4" fill="white"/>
</clipPath>
</defs>
</svg>
