<svg width="608" height="448" viewBox="0 0 608 448" fill="none" xmlns="http://www.w3.org/2000/svg">
<g clip-path="url(#clip0_30215_28871)">
<rect width="608" height="448" rx="6.4" fill="#F3F3F3"/>
<path d="M516.8 159.2C535.136 159.2 550 144.336 550 126C550 107.664 535.136 92.8 516.8 92.8C498.464 92.8 483.6 107.664 483.6 126C483.6 144.336 498.464 159.2 516.8 159.2Z" fill="#E1E1E1"/>
<path d="M426.4 92.8C435.015 92.8 442 85.8156 442 77.2C442 68.5843 435.015 61.6 426.4 61.6C417.784 61.6 410.8 68.5843 410.8 77.2C410.8 85.8156 417.784 92.8 426.4 92.8Z" fill="#E1E1E1"/>
<path d="M503.2 396.8C511.816 396.8 518.8 389.816 518.8 381.2C518.8 372.584 511.816 365.6 503.2 365.6C494.584 365.6 487.6 372.584 487.6 381.2C487.6 389.816 494.584 396.8 503.2 396.8Z" fill="#E1E1E1"/>
<path d="M555.2 66.4C566.908 66.4 576.4 56.9084 576.4 45.2C576.4 33.4916 566.908 24 555.2 24C543.492 24 534 33.4916 534 45.2C534 56.9084 543.492 66.4 555.2 66.4Z" fill="#E1E1E1"/>
<path d="M478 20.8C493.022 20.8 505.2 8.62217 505.2 -6.39997C505.2 -21.4221 493.022 -33.6 478 -33.6C462.978 -33.6 450.8 -21.4221 450.8 -6.39997C450.8 8.62217 462.978 20.8 478 20.8Z" fill="#E1E1E1"/>
<path d="M391.6 447.2C406.622 447.2 418.8 435.022 418.8 420C418.8 404.978 406.622 392.8 391.6 392.8C376.578 392.8 364.4 404.978 364.4 420C364.4 435.022 376.578 447.2 391.6 447.2Z" fill="#E1E1E1"/>
<g filter="url(#filter0_d_30215_28871)">
<rect x="321.2" y="125.6" width="304" height="250.4" rx="12.1486" fill="#FDFDFD"/>
</g>
<path d="M321.2 137.749C321.2 131.039 326.639 125.6 333.349 125.6H379.452C386.161 125.6 391.6 131.039 391.6 137.749V376H333.349C326.639 376 321.2 370.561 321.2 363.851V137.749Z" fill="#323333"/>
<path d="M321.2 137.749C321.2 131.039 326.639 125.6 333.349 125.6H613.052C619.761 125.6 625.2 131.039 625.2 137.749V153.6H321.2V137.749Z" fill="#00AAFF"/>
<circle cx="337.904" cy="140.279" r="3.54333" fill="white"/>
<circle cx="348.028" cy="140.279" r="3.54333" fill="white"/>
<circle cx="358.152" cy="140.279" r="3.54333" fill="white"/>
<rect x="333.349" y="168.12" width="40.4952" height="7.08666" rx="3.54333" fill="#525454"/>
<rect x="333.349" y="182.293" width="28.3466" height="7.08666" rx="3.54333" fill="#525454"/>
<rect x="333.349" y="196.467" width="34.4209" height="7.08666" rx="3.54333" fill="#525454"/>
<rect x="333.349" y="210.64" width="40.4952" height="7.08666" rx="3.54333" fill="#525454"/>
<rect x="333.349" y="224.813" width="18.2228" height="7.08666" rx="3.54333" fill="#525454"/>
<rect x="333.349" y="238.987" width="34.4209" height="7.08666" rx="3.54333" fill="#525454"/>
<rect x="333.349" y="253.16" width="44.5447" height="7.08666" rx="3.54333" fill="#525454"/>
<rect x="406.24" y="334.15" width="40.4952" height="21.26" rx="10.63" fill="#DCDCDC"/>
<rect x="454.834" y="339.212" width="43.5323" height="3.03714" rx="1.51857" fill="#DCDCDC"/>
<rect x="454.834" y="346.299" width="64.7923" height="3.03714" rx="1.51857" fill="#DCDCDC"/>
<rect x="406.24" y="302.767" width="40.4952" height="21.26" rx="10.63" fill="#DCDCDC"/>
<rect x="454.834" y="307.828" width="73.9038" height="3.03714" rx="1.51857" fill="#DCDCDC"/>
<rect x="454.834" y="314.915" width="64.7923" height="3.03714" rx="1.51857" fill="#DCDCDC"/>
<rect x="406.24" y="271.383" width="40.4952" height="21.26" rx="10.63" fill="#DCDCDC"/>
<path d="M495.329 214.69C495.329 205.879 492.717 197.267 487.822 189.942C482.927 182.616 475.97 176.907 467.831 173.536C459.692 170.164 450.735 169.282 442.094 171.001C433.453 172.719 425.516 176.962 419.287 183.192L450.784 214.69H495.329Z" fill="#E0CCFF"/>
<path d="M408.892 229.831C412.461 239.705 419.403 248.001 428.493 253.255C437.583 258.509 448.237 260.384 458.574 258.548C468.912 256.712 478.268 251.283 484.993 243.22C491.718 235.157 495.378 224.978 495.329 214.479L450.784 214.69L408.892 229.831Z" fill="#A2E0FF"/>
<path d="M419.287 183.192C413.129 189.35 408.911 197.178 407.155 205.708C405.399 214.238 406.182 223.095 409.407 231.185L450.784 214.69L419.287 183.192Z" fill="#E8F9C6"/>
<path d="M560.31 310.309C587.392 283.227 587.392 239.318 560.31 212.236C533.228 185.154 489.319 185.154 462.237 212.236C435.155 239.318 435.155 283.227 462.237 310.309C489.319 337.391 533.228 337.391 560.31 310.309Z" fill="white" fill-opacity="0.5"/>
<path d="M554.583 217.963C578.502 241.882 578.502 280.663 554.583 304.582C530.663 328.502 491.883 328.502 467.964 304.582C444.044 280.663 444.044 241.882 467.964 217.963C491.883 194.044 530.663 194.044 554.583 217.963Z" stroke="#39225B" stroke-width="16.1981"/>
<rect x="557.088" y="313.531" width="8.09904" height="27.3343" transform="rotate(-45 557.088 313.531)" fill="#39225B"/>
<rect x="565.679" y="332.143" width="22.2724" height="96.2898" rx="11.1362" transform="rotate(-45 565.679 332.143)" fill="#A169F7"/>
<rect x="565.679" y="332.143" width="22.2724" height="96.2898" rx="11.1362" transform="rotate(-45 565.679 332.143)" fill="url(#paint0_linear_30215_28871)" fill-opacity="0.3"/>
<path d="M511.401 299.871C532.648 299.871 549.872 282.647 549.872 261.401C549.872 240.154 532.648 222.93 511.401 222.93C490.154 222.93 472.931 240.154 472.931 261.401C472.931 282.647 490.154 299.871 511.401 299.871Z" fill="#97CF26"/>
<path d="M492.166 263.638L506.232 275.574L533.674 248.24" stroke="white" stroke-width="6.07428"/>
<path d="M91.4719 113.504C103.64 113.504 113.504 103.64 113.504 91.4719C113.504 79.304 103.64 69.4399 91.4719 69.4399C79.304 69.4399 69.4399 79.304 69.4399 91.4719C69.4399 103.64 79.304 113.504 91.4719 113.504Z" fill="#97CF26"/>
<path d="M50.0961 101.696C55.7426 101.696 60.3201 97.1186 60.3201 91.472C60.3201 85.8255 55.7426 81.248 50.0961 81.248C44.4495 81.248 39.8721 85.8255 39.8721 91.472C39.8721 97.1186 44.4495 101.696 50.0961 101.696Z" fill="#A169F7"/>
<path d="M91.472 64.256C99.2924 64.256 105.632 57.9164 105.632 50.096C105.632 42.2757 99.2924 35.936 91.472 35.936C83.6517 35.936 77.312 42.2757 77.312 50.096C77.312 57.9164 83.6517 64.256 91.472 64.256Z" fill="#FF6163"/>
<path d="M50.096 68.192C60.0901 68.192 68.192 60.0901 68.192 50.096C68.192 40.1018 60.0901 32 50.096 32C40.1019 32 32 40.1018 32 50.096C32 60.0901 40.1019 68.192 50.096 68.192Z" fill="#00AAFF"/>
<path d="M170.672 101.6H182.096L160.928 44H152.624L131.456 101.6H142.928L146.96 90.608H166.64L170.672 101.6L150.128 81.92L156.8 63.824L163.472 81.92H150.128L170.672 101.6Z" fill="black"/>
<path d="M210.416 62.24L199.904 90.848L189.392 62.24H178.64L193.088 101.6H206.672L221.12 62.24H210.416Z" fill="black"/>
<path d="M225.68 62.24H236.432V101.6H225.68V62.24Z" fill="black"/>
<path d="M231.056 57.776C234.873 57.776 237.968 54.6814 237.968 50.864C237.968 47.0466 234.873 43.952 231.056 43.952C227.239 43.952 224.144 47.0466 224.144 50.864C224.144 54.6814 227.239 57.776 231.056 57.776Z" fill="black"/>
<path d="M274.304 70.928V62.24H261.44V51.392H250.688V62.24H242.192V70.928H250.688V87.872C250.688 96.608 255.056 102.416 266.192 102.416C270.512 102.416 274.256 100.832 274.256 100.832L272.96 92.336C272.96 92.336 270.848 92.96 268.256 92.96C265.088 92.96 261.392 91.568 261.392 87.2V70.928H274.304Z" fill="black"/>
<path d="M298.928 92.5759C292.928 92.5759 288.08 87.8239 288.08 81.9679C288.08 76.1119 292.928 71.3599 298.928 71.3599C304.928 71.3599 309.776 76.1119 309.776 81.9679C309.776 87.8239 304.928 92.5759 298.928 92.5759ZM298.928 61.2319C287.312 61.2319 277.856 70.4479 277.856 81.8239C277.856 93.1999 287.312 102.416 298.928 102.416C310.544 102.416 320 93.1999 320 81.8239C320 70.4479 310.544 61.2319 298.928 61.2319Z" fill="black"/>
</g>
<defs>
<filter id="filter0_d_30215_28871" x="290.829" y="105.352" width="364.743" height="311.143" filterUnits="userSpaceOnUse" color-interpolation-filters="sRGB">
<feFlood flood-opacity="0" result="BackgroundImageFix"/>
<feColorMatrix in="SourceAlpha" type="matrix" values="0 0 0 0 0 0 0 0 0 0 0 0 0 0 0 0 0 0 127 0" result="hardAlpha"/>
<feOffset dy="10.1238"/>
<feGaussianBlur stdDeviation="15.1857"/>
<feComposite in2="hardAlpha" operator="out"/>
<feColorMatrix type="matrix" values="0 0 0 0 0.7625 0 0 0 0 0.7625 0 0 0 0 0.7625 0 0 0 1 0"/>
<feBlend mode="normal" in2="BackgroundImageFix" result="effect1_dropShadow_30215_28871"/>
<feBlend mode="normal" in="SourceGraphic" in2="effect1_dropShadow_30215_28871" result="shape"/>
</filter>
<linearGradient id="paint0_linear_30215_28871" x1="568.731" y1="365.568" x2="585.217" y2="365.161" gradientUnits="userSpaceOnUse">
<stop/>
<stop offset="1" stop-opacity="0"/>
</linearGradient>
<clipPath id="clip0_30215_28871">
<rect width="608" height="448" rx="6.4" fill="white"/>
</clipPath>
</defs>
</svg>
