<svg width="609" height="448" viewBox="0 0 609 448" fill="none" xmlns="http://www.w3.org/2000/svg">
<g clip-path="url(#clip0_30215_29343)">
<rect x="0.399902" width="608" height="448" rx="6.4" fill="#1890FF"/>
<path d="M32.3999 84.207V40.5391H41.3696V58.2758H42.6199L49.4151 40.5391H58.3304L50.1218 61.0792L58.7653 84.207H49.5782L42.6199 64.6912H41.3696V84.207H32.3999Z" fill="white"/>
<path d="M74.8898 84.8C71.6644 84.8 69.1094 84.2249 67.2248 83.0748C65.3403 81.9247 63.9813 80.2894 63.1477 78.1689C62.3504 76.0125 61.9518 73.4428 61.9518 70.4597V54.1786C61.9518 51.1955 62.3504 48.6437 63.1477 46.5232C63.9813 44.4027 65.3403 42.7854 67.2248 41.6712C69.1094 40.5571 71.6644 40 74.8898 40C78.1515 40 80.7246 40.5751 82.6092 41.7252C84.5299 42.8393 85.889 44.4566 86.6863 46.5771C87.5198 48.6617 87.9366 51.1955 87.9366 54.1786V70.4597C87.9366 73.4428 87.5198 76.0125 86.6863 78.1689C85.889 80.2894 84.5299 81.9247 82.6092 83.0748C80.7246 84.2249 78.1515 84.8 74.8898 84.8ZM74.8898 78.3846C76.0495 78.3846 76.9012 78.133 77.4448 77.6298C77.9884 77.0907 78.3508 76.3899 78.532 75.5273C78.7132 74.6288 78.8039 73.6764 78.8039 72.67V52.0221C78.8039 51.0158 78.7132 50.0813 78.532 49.2188C78.3508 48.3562 77.9884 47.6733 77.4448 47.1702C76.9012 46.631 76.0495 46.3615 74.8898 46.3615C73.8026 46.3615 72.9872 46.631 72.4436 47.1702C71.8999 47.6733 71.5375 48.3562 71.3563 49.2188C71.1751 50.0813 71.0845 51.0158 71.0845 52.0221V72.67C71.0845 73.6764 71.157 74.6288 71.302 75.5273C71.4832 76.3899 71.8456 77.0907 72.3892 77.6298C72.9328 78.133 73.7663 78.3846 74.8898 78.3846Z" fill="white"/>
<path d="M94.0344 84.207V40.5391H103.004V58.4915H110.778V40.5391H119.747V84.207H110.778V64.8529H103.004V84.207H94.0344Z" fill="white"/>
<path d="M130.653 84.207V47.1702H123.858V40.5391H146.363V47.1702H139.677V84.207H130.653Z" fill="white"/>
<path d="M150.358 84.207V40.5391H164.329C166.974 40.5391 169.131 41.0423 170.798 42.0486C172.465 43.019 173.697 44.4387 174.494 46.3076C175.328 48.1765 175.744 50.4408 175.744 53.1004C175.744 56.2272 175.201 58.6712 174.114 60.4323C173.063 62.1933 171.613 63.4513 169.765 64.206C167.916 64.9248 165.796 65.2842 163.404 65.2842H159.327V84.207H150.358ZM159.327 59.0306H162.48C163.785 59.0306 164.782 58.8329 165.47 58.4375C166.195 58.0063 166.684 57.3414 166.938 56.4428C167.192 55.5443 167.318 54.3942 167.318 52.9925C167.318 51.6627 167.21 50.5486 166.992 49.6501C166.811 48.7515 166.376 48.0507 165.688 47.5475C164.999 47.0444 163.912 46.7928 162.426 46.7928H159.327V59.0306Z" fill="white"/>
<path d="M192.638 84.8C189.412 84.8 186.857 84.2249 184.973 83.0748C183.088 81.9247 181.729 80.2894 180.896 78.1689C180.098 76.0125 179.7 73.4428 179.7 70.4597V54.1786C179.7 51.1955 180.098 48.6437 180.896 46.5232C181.729 44.4027 183.088 42.7854 184.973 41.6712C186.857 40.5571 189.412 40 192.638 40C195.899 40 198.473 40.5751 200.357 41.7252C202.278 42.8393 203.637 44.4566 204.434 46.5771C205.268 48.6617 205.685 51.1955 205.685 54.1786V70.4597C205.685 73.4428 205.268 76.0125 204.434 78.1689C203.637 80.2894 202.278 81.9247 200.357 83.0748C198.473 84.2249 195.899 84.8 192.638 84.8ZM192.638 78.3846C193.797 78.3846 194.649 78.133 195.193 77.6298C195.736 77.0907 196.099 76.3899 196.28 75.5273C196.461 74.6288 196.552 73.6764 196.552 72.67V52.0221C196.552 51.0158 196.461 50.0813 196.28 49.2188C196.099 48.3562 195.736 47.6733 195.193 47.1702C194.649 46.631 193.797 46.3615 192.638 46.3615C191.551 46.3615 190.735 46.631 190.192 47.1702C189.648 47.6733 189.285 48.3562 189.104 49.2188C188.923 50.0813 188.832 51.0158 188.832 52.0221V72.67C188.832 73.6764 188.905 74.6288 189.05 75.5273C189.231 76.3899 189.594 77.0907 190.137 77.6298C190.681 78.133 191.514 78.3846 192.638 78.3846Z" fill="white"/>
<path d="M208.684 84.207V77.8994C209.807 77.8994 210.731 77.8275 211.456 77.6838C212.217 77.504 212.815 77.1267 213.25 76.5516C213.721 75.9406 214.102 75.0241 214.392 73.8022C214.682 72.5442 214.917 70.873 215.098 68.7884C215.316 66.7039 215.533 64.0623 215.751 60.8635L217.219 40.5391H239.67V84.207H230.755V47.3319H225.264L224.34 62.2652C224.122 65.7155 223.869 68.7166 223.579 71.2683C223.325 73.7842 222.908 75.9047 222.329 77.6298C221.785 79.355 220.969 80.7387 219.882 81.781C218.831 82.7873 217.4 83.4882 215.588 83.8835C213.776 84.2429 211.474 84.3507 208.684 84.207Z" fill="white"/>
<path d="M246.555 84.207V40.5391H255.524V58.9227H257.59C260.453 58.9227 262.863 59.354 264.82 60.2166C266.777 61.0792 268.263 62.4449 269.278 64.3138C270.293 66.1468 270.8 68.5548 270.8 71.5379C270.8 74.1256 270.456 76.2461 269.767 77.8994C269.115 79.5167 268.154 80.7926 266.886 81.7271C265.654 82.6615 264.186 83.3085 262.483 83.6679C260.815 84.0273 258.967 84.207 256.938 84.207H246.555ZM255.524 78.3307H256.992C258.333 78.3307 259.402 78.0971 260.199 77.6298C261.033 77.1626 261.631 76.4258 261.993 75.4195C262.356 74.3772 262.519 73.0294 262.483 71.3762C262.446 69.4713 262.048 67.9618 261.287 66.8477C260.562 65.6976 259.094 65.1225 256.883 65.1225H255.524V78.3307Z" fill="white"/>
<path fill-rule="evenodd" clip-rule="evenodd" d="M594.536 136.066L619.654 123.097L623.176 269.552L599.082 272.783L580.592 203.263L615.336 198.604L615.04 196.391L580.013 201.087L565.562 146.752L594.536 136.066ZM567.698 180.659L573.368 201.978L514.013 209.937L511.777 186.064L567.698 180.659ZM509.554 186.279L511.799 210.234L488.93 213.3L486.646 188.493L509.554 186.279ZM511.152 179.395L565.953 174.098L551.331 119.123L506.286 127.45L511.152 179.395ZM506.076 125.218L550.756 116.959L542.614 86.3489L503.151 93.9937L506.076 125.218ZM500.949 94.4203L508.93 179.61L486.032 181.823L479.605 112.016L486.808 110.128V97.1596L500.949 94.4203ZM512.007 212.459L488.073 215.668L486.92 215.823L486.813 214.664L484.423 188.708L460.708 191L462.804 219.941L462.883 221.04L461.786 221.134L423.337 224.434L424.939 242.017L513.877 232.42L512.007 212.459ZM402.498 223.981L420.91 222.401L419.832 210.567L422.056 210.365L423.135 222.21L460.497 219.004L458.485 191.215L413.108 195.6L402.498 223.981ZM422.719 242.256L421.113 224.625L401.633 226.296L394.529 245.298L422.719 242.256ZM393.655 247.638L422.922 244.48L425.123 268.641L378.869 274.221L392.589 250.359L392.727 250.121L392.823 249.863L393.655 247.638ZM377.48 276.637L425.326 270.866L427.596 295.783L365.797 304.071L364.403 304.258L363.56 305.385L350.467 322.901L348.455 319.27L367.241 294.392L367.367 294.225L367.471 294.044L377.48 276.637ZM465.252 266.05L427.543 270.598L429.811 295.486L467.528 290.427L465.252 266.05ZM465.044 263.826L427.341 268.374L425.142 244.24L462.835 240.173L465.044 263.826ZM467.469 265.782L469.743 290.13L493.24 286.979L490.946 262.95L467.469 265.782ZM470.366 296.805L493.877 293.651L495.218 307.7L471.682 310.898L470.366 296.805ZM496.091 293.354L497.432 307.399L520.607 304.251L519.294 290.242L496.091 293.354ZM471.89 313.123L495.43 309.925L497.514 331.76L473.924 334.9L471.89 313.123ZM497.644 309.624L499.729 331.465L522.867 328.384L520.815 306.475L497.644 309.624ZM474.132 337.125L497.726 333.984L508.609 448H484.486L474.132 337.125ZM499.941 333.689L510.852 448H573.265L562.242 325.394L525.291 330.314L535.923 443.801L533.7 444.009L523.076 330.609L499.941 333.689ZM564.457 325.1L575.507 448H627.468L623.338 276.288L600.818 279.308L609.173 310.722L615.94 308.384L616.669 310.494L609.748 312.886L614.869 332.141L617.756 331.552L618.202 333.74L615.444 334.302L621.97 358.838L615.746 361.314L608.916 335.633L598.108 337.835L597.189 338.023L596.846 337.151L589.59 318.721L589.163 317.637L590.264 317.257L602.87 312.901L594.173 280.2L554.701 285.494L562.032 299.361L562.779 300.774L561.196 300.989L523.029 306.175L525.082 328.089L570.945 321.983L571.952 321.849L572.18 322.839L599.531 441.606L597.355 442.107L570.233 324.331L564.457 325.1ZM493.164 262.683L495.454 286.682L518.669 283.568L516.449 259.874L493.164 262.683ZM516.241 257.65L492.952 260.46L490.728 237.164L514.085 234.644L516.241 257.65ZM465.055 239.934L488.508 237.403L490.734 260.727L467.262 263.558L465.055 239.934ZM468.152 297.102L430.419 302.162L431.71 316.329L469.468 311.199L468.152 297.102ZM469.676 313.424L431.913 318.555L433.887 340.23L471.709 335.195L469.676 313.424ZM471.917 337.42L434.09 342.456L443.706 448H482.243L471.917 337.42ZM520.884 283.271L518.667 259.607L537.302 257.359L549.007 279.499L520.884 283.271ZM518.458 257.383L536.185 255.245L524.689 233.499L516.306 234.404L518.458 257.383ZM368.083 310.523L428.204 302.459L431.711 340.941L431.71 340.941L421.207 358.281L371.965 318.806L370.759 317.839L370.22 319.288L364.638 334.305L364.373 335.018L364.94 335.525L395.969 363.306L418.762 436.048L420.893 435.38L398.008 362.345L397.916 362.052L397.687 361.847L366.996 334.369L371.774 321.515L420.804 360.82L421.797 361.616L422.457 360.527L432.052 344.687L441.464 448H251.249L303.614 378.653L306.082 382.276L262.531 440.534L267.896 444.544L310.068 388.13L345.226 439.755L347.071 438.498L333.608 418.729L350.338 399.59L350.917 398.928L350.409 398.21L327.127 365.31L349.628 335.21L376.494 383.707L390.341 439.927L396.845 438.325L382.891 381.672L382.784 381.24L382.569 380.85L354.026 329.326L368.083 310.523ZM603.445 315.064L592.094 318.987L598.58 335.461L608.341 333.471L603.445 315.064ZM325.721 367.19L311.482 386.239L332.309 416.822L348.078 398.782L325.721 367.19ZM551.365 279.183L526.309 231.787L525.955 231.117L525.203 231.198L516.097 232.181L514.222 212.162L573.947 204.154L592.437 273.674L551.365 279.183ZM552.343 285.81L521.509 289.945L522.821 303.95L559.312 298.992L552.343 285.81ZM483.809 182.038L478.281 121.986L455.936 125.091L460.224 184.317L483.809 182.038ZM242.856 448L299.634 372.808L282.619 347.823L206.933 404.27L202.929 398.901L278.845 342.281L269.985 329.272L206.641 369.085L205.453 367.194L268.728 327.425L245.516 293.341L200.823 308.449L200.108 306.333L244.211 291.425L203.45 231.571L205.295 230.315L246.407 290.683L268.464 283.227L325.137 215.094L294.52 160.069L278.634 169.782L277.733 170.333L277.133 169.464L249.782 129.875L249.456 129.402L249.651 128.862L255.182 113.529L242.328 106.033L196 217.292V448H242.856ZM296.426 158.903L326.667 213.254L361.482 171.399L313.929 145.773L312.559 148.811L312.418 149.125L312.124 149.305L296.426 158.903ZM326.301 217.186L315.552 230.108L322.697 241.605L331.029 225.685L326.301 217.186ZM269.979 284.898L314.048 231.917L321.496 243.901L304.971 275.475L304.844 275.718V275.993V304.726L270.619 326.236L247.712 292.599L269.478 285.241L269.777 285.14L269.979 284.898ZM343.133 278.716L307.685 275.103L322.864 246.102L343.133 278.716ZM355.572 298.73L344.622 281.112L307.076 277.286V305.343V305.96L306.554 306.288L271.877 328.083L280.636 340.945L304.516 323.135L305.149 322.664L305.926 322.524L342.583 315.932L355.572 298.73ZM357.014 296.821L324.065 243.806L332.75 227.212L348.703 238.074L348.456 238.17L365.863 283.404L361.769 290.523L357.014 296.821ZM367.296 280.911L379.765 259.225L351.56 240.02L367.296 280.911ZM380.881 257.284L333.041 224.709L327.831 215.346L363.488 172.479L406.03 195.405L386.645 247.259L380.881 257.284ZM365.852 166.145L316.689 139.651L335.878 97.0852L395.273 130.774L365.852 166.145ZM314.718 138.589L333.928 95.979L298.704 76L281.222 120.538L314.718 138.589ZM310.666 147.58L311.959 144.711L278.756 126.819L278.61 127.193L257.143 114.673L251.946 129.079L278.37 167.326L310.666 147.58ZM307.495 380.385L305.035 376.772L344.038 325.119L346.069 328.784L307.495 380.385ZM284.41 346.486L301.055 370.927L336.637 323.807L307.888 328.976L284.41 346.486ZM367.858 167.225L408.398 189.072L424.082 147.115L397.247 131.893L367.858 167.225ZM451.389 93.1992L458.001 184.532L415.718 188.619L451.389 93.1992Z" fill="#40A3FF"/>
<path fill-rule="evenodd" clip-rule="evenodd" d="M594.536 136.066L619.654 123.097L623.176 269.552L599.082 272.783L580.592 203.263L615.336 198.604L615.04 196.391L580.013 201.087L565.562 146.752L594.536 136.066ZM567.698 180.659L573.368 201.978L514.013 209.937L511.777 186.064L567.698 180.659ZM509.554 186.279L511.799 210.234L488.93 213.3L486.646 188.493L509.554 186.279ZM511.152 179.395L565.953 174.098L551.331 119.123L506.286 127.45L511.152 179.395ZM506.076 125.218L550.756 116.959L542.614 86.3489L503.151 93.9937L506.076 125.218ZM500.949 94.4203L508.93 179.61L486.032 181.823L479.605 112.016L486.808 110.128V97.1596L500.949 94.4203ZM512.007 212.459L488.073 215.668L486.92 215.823L486.813 214.664L484.423 188.708L460.708 191L462.804 219.941L462.883 221.04L461.786 221.134L423.337 224.434L424.939 242.017L513.877 232.42L512.007 212.459ZM402.498 223.981L420.91 222.401L419.832 210.567L422.056 210.365L423.135 222.21L460.497 219.004L458.485 191.215L413.108 195.6L402.498 223.981ZM422.719 242.256L421.113 224.625L401.633 226.296L394.529 245.298L422.719 242.256ZM393.655 247.638L422.922 244.48L425.123 268.641L378.869 274.221L392.589 250.359L392.727 250.121L392.823 249.863L393.655 247.638ZM377.48 276.637L425.326 270.866L427.596 295.783L365.797 304.071L364.403 304.258L363.56 305.385L350.467 322.901L348.455 319.27L367.241 294.392L367.367 294.225L367.471 294.044L377.48 276.637ZM465.252 266.05L427.543 270.598L429.811 295.486L467.528 290.427L465.252 266.05ZM465.044 263.826L427.341 268.374L425.142 244.24L462.835 240.173L465.044 263.826ZM467.469 265.782L469.743 290.13L493.24 286.979L490.946 262.95L467.469 265.782ZM470.366 296.805L493.877 293.651L495.218 307.7L471.682 310.898L470.366 296.805ZM496.091 293.354L497.432 307.399L520.607 304.251L519.294 290.242L496.091 293.354ZM471.89 313.123L495.43 309.925L497.514 331.76L473.924 334.9L471.89 313.123ZM497.644 309.624L499.729 331.465L522.867 328.384L520.815 306.475L497.644 309.624ZM474.132 337.125L497.726 333.984L508.609 448H484.486L474.132 337.125ZM499.941 333.689L510.852 448H573.265L562.242 325.394L525.291 330.314L535.923 443.801L533.7 444.009L523.076 330.609L499.941 333.689ZM564.457 325.1L575.507 448H627.468L623.338 276.288L600.818 279.308L609.173 310.722L615.94 308.384L616.669 310.494L609.748 312.886L614.869 332.141L617.756 331.552L618.202 333.74L615.444 334.302L621.97 358.838L615.746 361.314L608.916 335.633L598.108 337.835L597.189 338.023L596.846 337.151L589.59 318.721L589.163 317.637L590.264 317.257L602.87 312.901L594.173 280.2L554.701 285.494L562.032 299.361L562.779 300.774L561.196 300.989L523.029 306.175L525.082 328.089L570.945 321.983L571.952 321.849L572.18 322.839L599.531 441.606L597.355 442.107L570.233 324.331L564.457 325.1ZM493.164 262.683L495.454 286.682L518.669 283.568L516.449 259.874L493.164 262.683ZM516.241 257.65L492.952 260.46L490.728 237.164L514.085 234.644L516.241 257.65ZM465.055 239.934L488.508 237.403L490.734 260.727L467.262 263.558L465.055 239.934ZM468.152 297.102L430.419 302.162L431.71 316.329L469.468 311.199L468.152 297.102ZM469.676 313.424L431.913 318.555L433.887 340.23L471.709 335.195L469.676 313.424ZM471.917 337.42L434.09 342.456L443.706 448H482.243L471.917 337.42ZM520.884 283.271L518.667 259.607L537.302 257.359L549.007 279.499L520.884 283.271ZM518.458 257.383L536.185 255.245L524.689 233.499L516.306 234.404L518.458 257.383ZM368.083 310.523L428.204 302.459L431.711 340.941L431.71 340.941L421.207 358.281L371.965 318.806L370.759 317.839L370.22 319.288L364.638 334.305L364.373 335.018L364.94 335.525L395.969 363.306L418.762 436.048L420.893 435.38L398.008 362.345L397.916 362.052L397.687 361.847L366.996 334.369L371.774 321.515L420.804 360.82L421.797 361.616L422.457 360.527L432.052 344.687L441.464 448H251.249L303.614 378.653L306.082 382.276L262.531 440.534L267.896 444.544L310.068 388.13L345.226 439.755L347.071 438.498L333.608 418.729L350.338 399.59L350.917 398.928L350.409 398.21L327.127 365.31L349.628 335.21L376.494 383.707L390.341 439.927L396.845 438.325L382.891 381.672L382.784 381.24L382.569 380.85L354.026 329.326L368.083 310.523ZM603.445 315.064L592.094 318.987L598.58 335.461L608.341 333.471L603.445 315.064ZM325.721 367.19L311.482 386.239L332.309 416.822L348.078 398.782L325.721 367.19ZM551.365 279.183L526.309 231.787L525.955 231.117L525.203 231.198L516.097 232.181L514.222 212.162L573.947 204.154L592.437 273.674L551.365 279.183ZM552.343 285.81L521.509 289.945L522.821 303.95L559.312 298.992L552.343 285.81ZM483.809 182.038L478.281 121.986L455.936 125.091L460.224 184.317L483.809 182.038ZM242.856 448L299.634 372.808L282.619 347.823L206.933 404.27L202.929 398.901L278.845 342.281L269.985 329.272L206.641 369.085L205.453 367.194L268.728 327.425L245.516 293.341L200.823 308.449L200.108 306.333L244.211 291.425L203.45 231.571L205.295 230.315L246.407 290.683L268.464 283.227L325.137 215.094L294.52 160.069L278.634 169.782L277.733 170.333L277.133 169.464L249.782 129.875L249.456 129.402L249.651 128.862L255.182 113.529L242.328 106.033L196 217.292V448H242.856ZM296.426 158.903L326.667 213.254L361.482 171.399L313.929 145.773L312.559 148.811L312.418 149.125L312.124 149.305L296.426 158.903ZM326.301 217.186L315.552 230.108L322.697 241.605L331.029 225.685L326.301 217.186ZM269.979 284.898L314.048 231.917L321.496 243.901L304.971 275.475L304.844 275.718V275.993V304.726L270.619 326.236L247.712 292.599L269.478 285.241L269.777 285.14L269.979 284.898ZM343.133 278.716L307.685 275.103L322.864 246.102L343.133 278.716ZM355.572 298.73L344.622 281.112L307.076 277.286V305.343V305.96L306.554 306.288L271.877 328.083L280.636 340.945L304.516 323.135L305.149 322.664L305.926 322.524L342.583 315.932L355.572 298.73ZM357.014 296.821L324.065 243.806L332.75 227.212L348.703 238.074L348.456 238.17L365.863 283.404L361.769 290.523L357.014 296.821ZM367.296 280.911L379.765 259.225L351.56 240.02L367.296 280.911ZM380.881 257.284L333.041 224.709L327.831 215.346L363.488 172.479L406.03 195.405L386.645 247.259L380.881 257.284ZM365.852 166.145L316.689 139.651L335.878 97.0852L395.273 130.774L365.852 166.145ZM314.718 138.589L333.928 95.979L298.704 76L281.222 120.538L314.718 138.589ZM310.666 147.58L311.959 144.711L278.756 126.819L278.61 127.193L257.143 114.673L251.946 129.079L278.37 167.326L310.666 147.58ZM307.495 380.385L305.035 376.772L344.038 325.119L346.069 328.784L307.495 380.385ZM284.41 346.486L301.055 370.927L336.637 323.807L307.888 328.976L284.41 346.486ZM367.858 167.225L408.398 189.072L424.082 147.115L397.247 131.893L367.858 167.225ZM451.389 93.1992L458.001 184.532L415.718 188.619L451.389 93.1992Z" fill="url(#paint0_linear_30215_29343)"/>
<g filter="url(#filter0_d_30215_29343)">
<path d="M307.2 121.396C307.2 113.998 313.198 108 320.596 108H564.204C571.603 108 577.6 113.998 577.6 121.396V448H307.2V121.396Z" fill="white"/>
</g>
<path fill-rule="evenodd" clip-rule="evenodd" d="M276.812 215.751C278.034 216.91 279.011 218.291 279.689 219.815C280.391 221.396 280.748 223.075 280.748 224.803C280.748 227.286 280.139 229.752 278.937 232.13C277.975 234.045 276.632 235.913 274.939 237.683C272.048 240.711 269.015 242.562 268.155 243.058C267.906 243.202 267.629 243.272 267.348 243.272C267.064 243.272 266.786 243.198 266.541 243.058C265.681 242.562 262.649 240.711 259.757 237.683C258.064 235.91 256.721 234.045 255.76 232.13C254.564 229.749 253.956 227.279 253.956 224.8C253.956 223.071 254.312 221.393 255.014 219.812C255.693 218.288 256.671 216.907 257.892 215.748C259.123 214.578 260.553 213.658 262.148 213.015C263.797 212.351 265.548 212.014 267.352 212.014C269.156 212.014 270.906 212.351 272.555 213.019C274.141 213.655 275.586 214.582 276.812 215.751ZM272.981 222.238C272.03 220.127 269.867 218.653 267.352 218.653C264.84 218.653 262.679 220.123 261.726 222.23C261.392 222.969 261.206 223.787 261.206 224.648C261.206 227.958 263.958 230.642 267.352 230.642C270.746 230.642 273.498 227.958 273.498 224.648C273.498 223.79 273.313 222.975 272.981 222.238Z" fill="#8CD6FF"/>
<path fill-rule="evenodd" clip-rule="evenodd" d="M624.832 335.381C626.054 336.539 627.032 337.92 627.71 339.445C628.412 341.025 628.768 342.704 628.768 344.432C628.768 346.916 628.16 349.381 626.957 351.759C625.996 353.674 624.652 355.542 622.96 357.313C620.068 360.34 617.036 362.191 616.175 362.687C615.927 362.831 615.65 362.901 615.369 362.901C615.085 362.901 614.806 362.827 614.562 362.687C613.701 362.191 610.669 360.34 607.777 357.313C606.085 355.539 604.742 353.674 603.78 351.759C602.585 349.378 601.976 346.909 601.976 344.429C601.976 342.701 602.333 341.022 603.035 339.441C603.714 337.917 604.691 336.536 605.912 335.377C607.144 334.207 608.573 333.287 610.169 332.644C611.818 331.981 613.568 331.643 615.372 331.643C617.176 331.643 618.927 331.981 620.576 332.648C622.161 333.284 623.607 334.212 624.832 335.381ZM621 341.863C620.048 339.754 617.886 338.282 615.372 338.282C612.858 338.282 610.696 339.755 609.744 341.864C609.411 342.602 609.226 343.418 609.226 344.277C609.226 347.587 611.978 350.271 615.372 350.271C618.767 350.271 621.518 347.587 621.518 344.277C621.518 343.418 621.333 342.602 621 341.863Z" fill="#8CD6FF"/>
<path fill-rule="evenodd" clip-rule="evenodd" d="M611.436 196.954C612.658 198.112 613.636 199.493 614.314 201.018C615.016 202.598 615.372 204.277 615.372 206.006C615.372 208.489 614.764 210.955 613.561 213.333C612.6 215.247 611.256 217.116 609.564 218.886C606.672 221.914 603.64 223.765 602.779 224.26C602.531 224.404 602.254 224.474 601.973 224.474C601.689 224.475 601.41 224.401 601.166 224.26C600.305 223.765 597.273 221.914 594.381 218.886C592.689 217.112 591.346 215.247 590.384 213.333C589.189 210.951 588.58 208.482 588.58 206.002C588.58 204.274 588.937 202.595 589.639 201.014C590.318 199.49 591.295 198.109 592.516 196.95C593.748 195.781 595.177 194.86 596.773 194.218C598.422 193.554 600.172 193.217 601.976 193.217C603.78 193.217 605.531 193.554 607.18 194.221C608.765 194.857 610.211 195.785 611.436 196.954ZM607.605 203.44C606.654 201.329 604.492 199.855 601.976 199.855C599.464 199.855 597.303 201.326 596.35 203.433C596.016 204.172 595.831 204.99 595.831 205.85C595.831 209.161 598.582 211.845 601.976 211.845C605.371 211.845 608.122 209.161 608.122 205.85C608.122 204.993 607.938 204.177 607.605 203.44Z" fill="#8CD6FF"/>
<mask id="mask0_30215_29343" style="mask-type:alpha" maskUnits="userSpaceOnUse" x="307" y="108" width="271" height="340">
<path d="M307.261 121.77C307.261 114.371 313.258 108.374 320.657 108.374H564.021C571.419 108.374 577.417 114.371 577.417 121.77V448H307.261V121.77Z" fill="white"/>
</mask>
<g mask="url(#mask0_30215_29343)">
<path fill-rule="evenodd" clip-rule="evenodd" d="M598.536 130.44L623.654 117.237L627.177 266.393L603.081 269.683L584.57 198.831L619.339 194.085L619.037 191.873L584.002 196.655L569.546 141.324L598.536 130.44ZM571.682 175.778L577.373 197.56L518.015 205.663L515.771 181.28L571.682 175.778ZM513.549 181.498L515.801 205.965L492.931 209.087L490.64 183.753L513.549 181.498ZM515.157 174.61L569.968 169.217L555.326 113.172L510.284 121.649L515.157 174.61ZM510.078 119.416L554.761 111.007L546.614 79.8257L507.151 87.6084L510.078 119.416ZM504.949 88.0427L512.935 174.828L490.037 177.081L483.605 105.956L490.808 104.034V90.8315L504.949 88.0427ZM516.005 208.191L492.076 211.457L490.918 211.615L490.813 210.452L488.418 183.971L464.704 186.305L466.804 215.831L466.882 216.927L465.788 217.022L427.335 220.381L428.941 238.321L517.879 228.552L516.005 208.191ZM406.483 219.962L424.912 218.352L423.832 206.281L426.056 206.082L427.136 218.158L464.499 214.894L462.481 186.523L417.123 190.986L406.483 219.962ZM426.721 238.565L425.111 220.576L405.632 222.277L398.514 241.664L426.721 238.565ZM397.654 244.004L426.92 240.789L429.125 265.426L382.839 271.11L396.602 246.742L396.736 246.505L396.83 246.25L397.654 244.004ZM381.474 273.527L429.324 267.651L431.601 293.097L369.79 301.536L368.383 301.728L367.543 302.873L354.469 320.678L352.435 316.94L371.258 291.563L371.382 291.396L371.484 291.214L381.474 273.527ZM469.25 262.748L431.541 267.379L433.816 292.794L471.534 287.644L469.25 262.748ZM469.046 260.524L431.342 265.154L429.14 240.546L466.834 236.405L469.046 260.524ZM471.467 262.476L473.748 287.342L497.246 284.134L494.945 259.593L471.467 262.476ZM474.361 294.019L497.871 290.808L499.22 305.189L475.684 308.445L474.361 294.019ZM500.086 290.506L501.434 304.883L524.609 301.678L523.289 287.338L500.086 290.506ZM475.888 310.671L499.428 307.415L501.516 329.683L477.925 332.88L475.888 310.671ZM501.642 307.108L503.73 329.383L526.87 326.246L524.813 303.903L501.642 307.108ZM478.13 335.106L501.725 331.908L512.609 448H488.486L478.13 335.106ZM503.939 331.607L514.852 448H577.265L566.24 323.163L529.289 328.172L539.923 443.729L537.7 443.933L527.074 328.472L503.939 331.607ZM568.455 322.863L579.507 448H631.468L627.337 273.131L604.786 276.21L613.162 308.269L619.934 305.887L620.675 307.993L613.728 310.437L618.858 330.073L621.752 329.473L622.206 331.659L619.423 332.236L625.955 357.237L619.746 359.75L612.911 333.587L602.112 335.828L601.185 336.02L600.844 335.138L593.587 316.376L593.172 315.302L594.258 314.92L606.874 310.481L598.157 277.115L558.668 282.507L566.036 296.697L566.765 298.1L565.198 298.317L527.027 303.597L529.084 325.946L574.943 319.731L575.956 319.594L576.181 320.591L603.532 441.5L601.354 441.993L574.229 322.081L568.455 322.863ZM497.162 259.321L499.46 283.831L522.675 280.662L520.448 256.461L497.162 259.321ZM520.243 254.237L496.953 257.097L494.726 233.341L518.084 230.775L520.243 254.237ZM469.053 236.161L492.506 233.585L494.736 257.369L471.263 260.252L469.053 236.161ZM472.146 294.321L434.414 299.473L435.711 313.974L473.47 308.751L472.146 294.321ZM473.674 310.977L435.911 316.201L437.889 338.307L475.711 333.18L473.674 310.977ZM475.915 335.406L438.088 340.533L447.706 448H486.243L475.915 335.406ZM524.889 280.359L522.665 256.189L541.297 253.901L553.041 276.515L524.889 280.359ZM522.46 253.965L540.199 251.786L528.684 229.611L520.304 230.532L522.46 253.965ZM372.102 307.981L432.199 299.775L435.711 339.019L435.706 339.028L425.205 356.677L375.972 316.498L374.756 315.505L374.218 316.98L368.636 332.267L368.379 332.971L368.933 333.475L399.965 361.76C404.408 376.199 409.257 392.229 414.107 408.263L414.108 408.266L414.109 408.267L414.11 408.272L414.112 408.28C418.214 421.839 422.316 435.401 426.173 448H404.407C401.973 438.267 399.169 427.71 396.373 417.185L396.372 417.183L396.372 417.183L396.372 417.182L396.372 417.182L396.372 417.181L396.372 417.181L396.371 417.181L396.371 417.18L396.371 417.18L396.371 417.18L396.365 417.155C392.98 404.415 389.608 391.722 386.894 380.504L386.791 380.077L386.581 379.691L358.006 327.178L372.102 307.981ZM426.461 358.932L436.051 342.815L445.464 448H428.508C424.593 435.216 420.419 421.418 416.245 407.617L416.244 407.616L416.244 407.616L416.243 407.611C411.361 391.473 406.478 375.331 402.009 360.812L401.92 360.521L401.694 360.315L370.99 332.33L375.777 319.22L424.796 359.226L425.799 360.044L426.461 358.932ZM607.441 312.649L596.085 316.644L602.585 333.45L612.346 331.424L607.441 312.649ZM555.39 276.195L530.313 227.903L529.961 227.225L529.2 227.308L520.099 228.308L518.22 207.888L577.942 199.736L596.452 270.588L555.39 276.195ZM556.319 282.828L525.503 287.036L526.823 301.371L563.326 296.322L556.319 282.828ZM487.815 177.3L482.281 116.106L459.936 119.267L464.229 179.621L487.815 177.3ZM389.891 418.875C392.539 428.84 395.178 438.776 397.501 448H357.588L337.625 418.168L354.345 398.696L354.907 398.041L354.414 397.332L331.11 363.806L353.626 333.142L380.487 382.507C383.203 393.698 386.55 406.297 389.885 418.851L389.891 418.875ZM329.713 365.709L315.485 385.084L336.336 416.242L352.088 397.897L329.713 365.709ZM255.222 448H354.901L314.08 386.999L271.913 444.423L266.514 440.459L310.117 381.078L307.625 377.352L255.222 448ZM350.089 326.642L311.523 379.163L309.037 375.448L348.036 322.87L350.089 326.642ZM340.719 321.492L305.081 369.538L288.402 344.613L311.907 326.767L340.719 321.492ZM206.906 398.081L282.889 340.389L273.999 327.105L210.649 367.639L209.445 365.759L272.757 325.249L249.524 290.53L204.829 305.911L204.102 303.799L248.24 288.611L207.445 227.649L209.3 226.407L250.423 287.859L272.457 280.277L329.144 210.897L298.517 154.86L282.641 164.742L281.73 165.309L281.128 164.421L253.777 124.118L253.46 123.65L253.649 123.118L259.184 107.498L246.328 99.8649L200 213.131V448H246.883L303.669 371.442L286.621 345.966L210.956 403.416L206.906 398.081ZM300.415 153.678L330.668 209.031L365.519 166.377L317.945 140.277L316.562 143.4L316.423 143.714L316.132 143.895L300.415 153.678ZM330.3 213.012L319.544 226.175L326.697 237.892L335.034 221.674L330.3 213.012ZM273.985 281.935L318.047 228.008L325.501 240.218L308.967 272.38L308.844 272.62V272.89V302.159L274.638 324.045L251.708 289.778L273.484 282.285L273.784 282.181L273.985 281.935ZM347.153 275.684L311.671 272.003L326.864 242.45L347.153 275.684ZM359.588 296.053L348.616 278.081L311.076 274.186V302.77V303.381L310.562 303.71L275.88 325.901L284.671 339.037L308.493 320.949L309.129 320.466L309.915 320.322L346.563 313.613L359.588 296.053ZM361.022 294.119L328.06 240.124L336.753 223.215L352.708 234.275L352.453 234.371L369.871 280.45L365.754 287.739L361.022 294.119ZM371.301 277.918L383.784 255.817L355.548 236.243L371.301 277.918ZM384.887 253.864L337.047 220.702L331.824 211.146L367.51 167.469L410.053 190.808L390.636 243.685L384.887 253.864ZM369.83 161.102L320.667 134.131L339.875 90.754L399.281 125.056L369.83 161.102ZM318.702 133.053L337.931 89.6312L302.704 69.2902L285.205 114.676L318.702 133.053ZM314.66 142.181L315.981 139.199L282.773 120.982L282.61 121.406L261.141 108.66L255.942 123.331L282.372 162.279L314.66 142.181ZM371.82 162.194L412.388 184.449L428.089 141.691L401.239 126.188L371.82 162.194ZM455.387 86.7818L462.006 179.84L419.687 184.004L455.387 86.7818Z" fill="#EFEFEF"/>
</g>
<path d="M312.782 121.396C312.782 117.08 316.281 113.582 320.596 113.582H564.204C568.52 113.582 572.018 117.08 572.018 121.396V463.218H312.782V121.396Z" stroke="white" stroke-width="11.1635"/>
<rect x="454.618" y="130.701" width="4.46539" height="37.9558" rx="2.23269" transform="rotate(90 454.618 130.701)" fill="#8F8F8F"/>
<rect x="466.898" y="130.701" width="4.46539" height="4.46539" rx="2.23269" transform="rotate(90 466.898 130.701)" fill="#8F8F8F"/>
<path fill-rule="evenodd" clip-rule="evenodd" d="M383.694 275.873C385.73 277.818 387.359 280.135 388.489 282.695C389.66 285.348 390.254 288.166 390.254 291.067C390.254 295.236 389.24 299.375 387.235 303.366C385.633 306.579 383.394 309.716 380.573 312.688C375.753 317.77 370.7 320.877 369.265 321.708C368.851 321.95 368.389 322.068 367.921 322.068C367.448 322.069 366.984 321.945 366.577 321.708C365.142 320.877 360.089 317.77 355.269 312.688C352.448 309.71 350.21 306.579 348.607 303.366C346.614 299.369 345.6 295.224 345.6 291.061C345.6 288.16 346.194 285.342 347.365 282.689C348.496 280.13 350.125 277.813 352.16 275.867C354.213 273.904 356.596 272.359 359.254 271.28C362.003 270.166 364.92 269.6 367.927 269.6C370.934 269.6 373.851 270.166 376.6 271.286C379.242 272.354 381.651 273.911 383.694 275.873ZM377.307 286.756C375.72 283.215 372.118 280.743 367.927 280.743C363.736 280.743 360.134 283.215 358.547 286.756C357.992 287.995 357.684 289.365 357.684 290.806C357.684 296.363 362.27 300.868 367.927 300.868C373.584 300.868 378.17 296.363 378.17 290.806C378.17 289.365 377.862 287.995 377.307 286.756Z" fill="#FAAD14"/>
<path fill-rule="evenodd" clip-rule="evenodd" d="M537.366 177.473C539.403 179.418 541.032 181.735 542.162 184.295C543.332 186.948 543.926 189.766 543.926 192.667C543.926 196.836 542.912 200.975 540.907 204.966C539.305 208.18 537.066 211.316 534.245 214.288C529.426 219.37 524.372 222.477 522.938 223.309C522.524 223.55 522.062 223.668 521.593 223.668C521.121 223.669 520.656 223.545 520.249 223.309C518.815 222.477 513.761 219.37 508.941 214.288C506.121 211.31 503.882 208.18 502.279 204.966C500.287 200.969 499.272 196.824 499.272 192.661C499.272 189.76 499.867 186.942 501.037 184.289C502.168 181.73 503.797 179.413 505.832 177.467C507.885 175.504 510.268 173.959 512.927 172.88C515.676 171.766 518.592 171.2 521.599 171.2C524.606 171.2 527.523 171.766 530.272 172.886C532.915 173.954 535.323 175.511 537.366 177.473ZM530.979 188.355C529.392 184.815 525.79 182.343 521.599 182.343C517.408 182.343 513.805 184.816 512.219 188.357C511.664 189.596 511.356 190.965 511.356 192.406C511.356 197.963 515.942 202.468 521.599 202.468C527.256 202.468 531.842 197.963 531.842 192.406C531.842 190.965 531.534 189.594 530.979 188.355Z" fill="#FAAD14"/>
<path d="M488.145 229.84C486.055 225.102 483.041 220.812 479.273 217.212C475.494 213.58 471.038 210.697 466.149 208.721C461.064 206.648 455.667 205.6 450.105 205.6C444.542 205.6 439.146 206.648 434.06 208.71C429.141 210.708 424.733 213.567 420.936 217.201C417.171 220.803 414.157 225.092 412.064 229.829C409.899 234.74 408.8 239.957 408.8 245.326C408.8 253.031 410.676 260.704 414.363 268.103C417.327 274.051 421.469 279.847 426.687 285.358C435.604 294.766 444.953 300.518 447.606 302.056C448.36 302.494 449.219 302.724 450.094 302.722C450.96 302.722 451.815 302.504 452.581 302.056C455.234 300.518 464.584 294.766 473.5 285.358C478.718 279.858 482.86 274.051 485.824 268.103C489.533 260.715 491.409 253.053 491.409 245.337C491.409 239.968 490.31 234.751 488.145 229.84ZM450.105 226.991C439.312 226.991 430.563 235.591 430.563 246.199C430.563 256.808 439.312 265.408 450.105 265.408C460.897 265.408 469.647 256.808 469.647 246.199C469.647 235.591 460.897 226.991 450.105 226.991ZM458.899 254.843C457.745 255.98 456.374 256.882 454.865 257.496C453.356 258.11 451.738 258.425 450.105 258.423C446.785 258.423 443.665 257.146 441.311 254.843C440.154 253.709 439.237 252.362 438.612 250.879C437.987 249.395 437.666 247.805 437.669 246.199C437.669 242.936 438.968 239.869 441.311 237.556C443.665 235.242 446.785 233.976 450.105 233.976C453.425 233.976 456.545 235.242 458.899 237.556C461.252 239.869 462.54 242.936 462.54 246.199C462.54 249.463 461.252 252.529 458.899 254.843Z" fill="#EA7306"/>
<path d="M449.601 230.078C449.935 229.05 451.39 229.05 451.724 230.078L455.801 242.624C455.95 243.084 456.379 243.395 456.862 243.395H470.054C471.135 243.395 471.585 244.779 470.71 245.415L460.038 253.168C459.647 253.453 459.483 253.956 459.632 254.416L463.709 266.962C464.043 267.99 462.866 268.846 461.991 268.21L451.319 260.456C450.927 260.172 450.398 260.172 450.006 260.456L439.334 268.21C438.46 268.846 437.282 267.99 437.617 266.962L441.693 254.416C441.842 253.956 441.679 253.453 441.287 253.168L430.615 245.415C429.741 244.779 430.19 243.395 431.272 243.395H444.463C444.946 243.395 445.375 243.084 445.525 242.624L449.601 230.078Z" fill="white"/>
<g filter="url(#filter1_d_30215_29343)">
<rect x="335.169" y="367.2" width="214.339" height="58.05" rx="13.3962" fill="white"/>
</g>
<rect x="346.333" y="378.364" width="126.147" height="17.8615" rx="8.93077" fill="#E3E3E3"/>
<rect x="502.621" y="378.364" width="35.7231" height="35.7231" rx="17.8615" fill="#1184EE"/>
<rect x="346.333" y="402.923" width="108.286" height="3.34904" rx="1.67452" fill="#CBCBCB"/>
<rect x="346.333" y="410.738" width="50.2356" height="3.34904" rx="1.67452" fill="#CBCBCB"/>
</g>
<defs>
<filter id="filter0_d_30215_29343" x="265.6" y="77.5635" width="353.6" height="423.2" filterUnits="userSpaceOnUse" color-interpolation-filters="sRGB">
<feFlood flood-opacity="0" result="BackgroundImageFix"/>
<feColorMatrix in="SourceAlpha" type="matrix" values="0 0 0 0 0 0 0 0 0 0 0 0 0 0 0 0 0 0 127 0" result="hardAlpha"/>
<feOffset dy="11.1635"/>
<feGaussianBlur stdDeviation="20.8"/>
<feComposite in2="hardAlpha" operator="out"/>
<feColorMatrix type="matrix" values="0 0 0 0 0.0286806 0 0 0 0 0.269527 0 0 0 0 0.491667 0 0 0 0.8 0"/>
<feBlend mode="normal" in2="BackgroundImageFix" result="effect1_dropShadow_30215_29343"/>
<feBlend mode="normal" in="SourceGraphic" in2="effect1_dropShadow_30215_29343" result="shape"/>
</filter>
<filter id="filter1_d_30215_29343" x="312.843" y="344.873" width="258.992" height="102.704" filterUnits="userSpaceOnUse" color-interpolation-filters="sRGB">
<feFlood flood-opacity="0" result="BackgroundImageFix"/>
<feColorMatrix in="SourceAlpha" type="matrix" values="0 0 0 0 0 0 0 0 0 0 0 0 0 0 0 0 0 0 127 0" result="hardAlpha"/>
<feOffset/>
<feGaussianBlur stdDeviation="11.1635"/>
<feComposite in2="hardAlpha" operator="out"/>
<feColorMatrix type="matrix" values="0 0 0 0 0 0 0 0 0 0 0 0 0 0 0 0 0 0 0.25 0"/>
<feBlend mode="normal" in2="BackgroundImageFix" result="effect1_dropShadow_30215_29343"/>
<feBlend mode="normal" in="SourceGraphic" in2="effect1_dropShadow_30215_29343" result="shape"/>
</filter>
<linearGradient id="paint0_linear_30215_29343" x1="196" y1="284.8" x2="302.4" y2="284.8" gradientUnits="userSpaceOnUse">
<stop stop-color="#1890FF"/>
<stop offset="1" stop-color="#1890FF" stop-opacity="0"/>
</linearGradient>
<clipPath id="clip0_30215_29343">
<rect x="0.399902" width="608" height="448" rx="6.4" fill="white"/>
</clipPath>
</defs>
</svg>
