<svg width="609" height="448" viewBox="0 0 609 448" fill="none" xmlns="http://www.w3.org/2000/svg">
<g clip-path="url(#clip0_30215_29051)">
<rect x="0.799805" width="608" height="448" rx="6.4" fill="#011E35"/>
<g clip-path="url(#clip1_30215_29051)">
<path d="M173.205 70.5187C173.154 70.6123 173.113 70.711 173.083 70.8132C172.342 70.8132 170.372 70.7116 168.403 70.8132C168.327 70.7554 168.241 70.7107 168.149 70.6812C167.115 67.8384 165.778 65.1154 164.16 62.5592C163.583 63.0477 162.957 63.4764 162.293 63.8384C161.974 63.9839 161.666 64.1501 161.369 64.3358C161.407 66.4165 161.553 68.4938 161.805 70.5594C161.737 70.621 161.679 70.6929 161.633 70.7726C161.257 70.7726 160.344 70.6913 159.603 70.6913C158.862 70.6913 158.151 70.7421 157.806 70.7624C157.762 70.6961 157.711 70.6348 157.654 70.5797C157.654 70.5797 157.907 66.1024 157.907 61.7266C157.907 57.3509 157.654 52.8533 157.654 52.8533C157.71 52.7976 157.761 52.7364 157.806 52.6706C158.131 52.6706 158.902 52.7417 159.633 52.7417C160.364 52.7417 161.135 52.7417 161.47 52.6706C161.515 52.7364 161.566 52.7976 161.623 52.8533C161.623 52.8533 161.389 56.3052 161.369 60.9754C162.306 60.3693 163.142 59.6189 163.846 58.752C165.367 57.003 166.542 54.9805 167.307 52.7924C167.396 52.7565 167.476 52.701 167.54 52.63C168.873 52.7675 170.217 52.7675 171.55 52.63C171.578 52.6973 171.612 52.7619 171.651 52.8229C170.371 55.6271 168.636 58.2 166.515 60.4373C167.398 61.95 170.048 66.0821 173.205 70.5187ZM244.95 52.9955L244.798 52.8127C244.473 52.8127 243.701 52.8838 242.991 52.8838C242.28 52.8838 241.488 52.833 241.164 52.8127L241.022 52.9955C241.022 52.9955 241.214 56.4676 241.265 60.3154C240.25 60.3154 239.073 60.3764 237.753 60.3764C236.433 60.3764 235.246 60.3764 234.261 60.3154C234.261 56.0412 234.505 52.9955 234.505 52.9955C234.448 52.9397 234.397 52.8785 234.352 52.8127C234.028 52.8127 233.256 52.8838 232.535 52.8838C231.815 52.8838 231.043 52.833 230.719 52.8127C230.674 52.8785 230.623 52.9397 230.566 52.9955C230.566 52.9955 230.739 57.3814 230.739 61.7876C230.739 66.1938 230.485 70.5797 230.485 70.5797C230.556 70.6336 230.618 70.6988 230.668 70.7726C231.003 70.7726 231.754 70.7015 232.454 70.7015C233.155 70.7015 234.089 70.7522 234.484 70.7726L234.647 70.5594C234.36 68.1501 234.211 65.7265 234.2 63.3003H241.194C241.194 67.1075 240.961 70.5797 240.961 70.5797C241.031 70.6311 241.09 70.6968 241.133 70.7726C241.478 70.7726 242.219 70.7015 242.93 70.7015C243.64 70.7015 244.554 70.7522 244.96 70.7726C245.008 70.6967 245.062 70.6254 245.122 70.5594C244.784 67.6481 244.632 64.7182 244.666 61.7876C244.655 56.7621 244.95 52.9955 244.95 52.9955V52.9955ZM180.209 55.757V60.3764C180.209 63.879 179.995 69.5136 179.955 70.6C180.029 70.6493 180.097 70.7073 180.158 70.7726C180.503 70.7726 181.234 70.7015 181.924 70.7015C182.614 70.7015 183.406 70.7522 183.741 70.7726C183.783 70.6988 183.834 70.6306 183.893 70.5695C183.843 69.402 183.639 63.8384 183.639 60.417V55.7976C186.786 55.7976 188.116 55.8889 188.522 55.9194L188.654 55.7671C188.593 55.3001 188.441 53.8686 188.42 52.8533C188.372 52.8093 188.331 52.7579 188.299 52.701C187.72 52.701 185.121 52.8939 181.894 52.8939C178.666 52.8939 176.24 52.7518 175.549 52.7112C175.496 52.7761 175.434 52.8341 175.367 52.8838C175.367 53.899 175.194 55.2899 175.133 55.7671C175.194 55.8073 175.245 55.8591 175.285 55.9194C175.773 55.8483 177.113 55.7773 180.209 55.757ZM298.028 50.1629C300.316 49.9192 302.623 49.9192 304.91 50.1629C304.946 50.1084 304.987 50.0574 305.032 50.0106C305.163 49.0281 305.356 48.0548 305.611 47.0968L305.499 46.9547C305.204 46.9547 304.179 47.0765 301.439 47.0765C298.698 47.0765 297.703 46.9852 297.378 46.9547L297.267 47.0968C297.521 48.0548 297.714 49.0281 297.845 50.0106C297.912 50.0541 297.973 50.1052 298.028 50.1629V50.1629ZM264.307 52.9955L264.155 52.8127C263.83 52.8127 263.059 52.8838 262.348 52.8838C261.638 52.8838 260.846 52.833 260.521 52.8127L260.379 52.9955C260.379 52.9955 260.572 56.4676 260.612 60.3154C259.597 60.3154 258.43 60.3764 257.11 60.3764C255.791 60.3764 254.593 60.3764 253.619 60.3154C253.619 56.0412 253.862 52.9955 253.862 52.9955C253.806 52.9397 253.755 52.8785 253.71 52.8127C253.375 52.8127 252.614 52.8838 251.893 52.8838C251.172 52.8838 250.401 52.833 250.076 52.8127C250.031 52.8785 249.98 52.9397 249.924 52.9955C249.924 52.9955 250.177 57.4118 250.177 61.7876C250.177 66.1633 249.924 70.5797 249.924 70.5797C249.995 70.6336 250.056 70.6988 250.106 70.7726C250.441 70.7726 251.193 70.7015 251.893 70.7015C252.593 70.7015 253.527 70.7522 253.923 70.7726L254.085 70.5797C253.799 68.1704 253.65 65.7468 253.639 63.3206H260.633C260.633 67.1278 260.399 70.6 260.399 70.6C260.467 70.6542 260.525 70.7194 260.572 70.7929C260.917 70.7929 261.658 70.7218 262.368 70.7218C263.079 70.7218 263.993 70.7726 264.399 70.7929C264.446 70.717 264.501 70.6457 264.561 70.5797C264.223 67.6684 264.07 64.7385 264.104 61.8079C264.064 56.7621 264.307 52.9955 264.307 52.9955V52.9955ZM194.836 93.7477C194.993 94.692 195.2 95.6273 195.455 96.5498C195.392 96.6103 195.338 96.6785 195.293 96.7529C194.277 96.7529 189.669 96.6209 185.071 96.6209C180.472 96.6209 175.935 96.7326 174.839 96.7529C174.797 96.6763 174.742 96.6076 174.676 96.5498C174.936 95.6278 175.147 94.6924 175.306 93.7477C175.401 93.6911 175.487 93.619 175.56 93.5345H177.346C180.32 87.839 182.797 82.1332 183.436 80.5291C183.244 80.052 183.112 79.6966 183.02 79.5139C183.088 79.4203 183.143 79.3178 183.183 79.2093C184.246 78.9087 185.291 78.5425 186.309 78.1128C186.414 78.1644 186.528 78.1954 186.644 78.2042C186.969 79.2195 188.055 82.184 189.364 85.6968C190.268 88.0826 191.628 91.2807 192.653 93.5548H194.521C194.614 93.6363 194.721 93.7015 194.836 93.7477V93.7477ZM185.071 93.7477H188.37C187.771 91.9304 186.949 89.5243 186.147 87.4329C185.741 86.4176 185.375 85.4531 185.03 84.58C183.365 88.0725 181.833 91.4634 180.818 93.7173C182.3 93.697 183.842 93.7173 185.061 93.7173L185.071 93.7477ZM115.376 78.4174C113.742 78.549 112.102 78.5897 110.463 78.5392H107.367C106.646 78.5392 105.865 78.5392 105.55 78.4682C105.505 78.534 105.454 78.5952 105.398 78.6509C105.398 78.6509 105.652 83.0673 105.652 87.4532C105.652 91.8391 105.398 96.2351 105.398 96.2351C105.466 96.2917 105.528 96.3565 105.58 96.428C105.915 96.428 106.667 96.3569 107.367 96.3569C108.067 96.3569 109.001 96.3569 109.397 96.4382C109.445 96.3597 109.5 96.285 109.56 96.2148C109.221 93.3069 109.069 90.3805 109.103 87.4532C109.103 85.0673 109.103 82.9657 109.164 81.4124C112.006 81.4124 114.503 81.5545 115.153 81.5952C115.207 81.5305 115.272 81.4756 115.345 81.4327C115.345 80.4175 115.498 79.0672 115.559 78.5697C115.489 78.5297 115.428 78.4782 115.376 78.4174V78.4174ZM146.254 67.7573C146.254 66.3765 146.173 64.7115 146.163 63.0566C148.315 63.0566 149.746 63.1886 150.223 63.2191C150.266 63.1642 150.318 63.1162 150.376 63.0769C150.315 62.6099 150.162 61.1886 150.152 60.1733C150.077 60.1343 150.008 60.0828 149.949 60.021C149.442 60.0819 148.041 60.2139 146.173 60.285V55.8382C150.132 55.8382 151.979 55.9194 152.487 55.96C152.534 55.8897 152.592 55.8279 152.659 55.7773C152.599 55.2798 152.456 53.899 152.436 52.9142C152.366 52.8712 152.304 52.8163 152.253 52.7518C151.594 52.7518 149.036 52.9346 146.163 52.9346H144.925C144.234 52.9346 143.341 52.8635 142.894 52.833C142.812 52.9144 142.716 52.9798 142.61 53.0259C142.61 54.0412 142.854 58.3966 142.854 61.7977C142.854 65.1988 142.661 69.5238 142.61 70.5695C142.69 70.6276 142.759 70.6999 142.813 70.7827L144.255 70.6913C145.371 70.6304 146.396 70.6913 146.396 70.6913C150.558 70.6913 152.406 70.7726 152.873 70.803L153.015 70.6609C153.015 69.3106 153.309 67.6151 153.309 67.6151C153.248 67.5639 153.196 67.502 153.157 67.4324C152.467 67.3816 149.239 67.7471 146.254 67.7573V67.7573ZM204.956 59.087C204.956 64.0617 201.241 65.5338 198.378 65.5338C197.585 65.537 196.795 65.445 196.023 65.2597C196.084 67.7166 196.145 69.9299 196.165 70.5898C196.106 70.6433 196.055 70.7048 196.013 70.7726C195.688 70.7726 194.917 70.7015 194.196 70.7015C193.476 70.7015 192.724 70.7522 192.389 70.7726C192.343 70.7018 192.289 70.637 192.227 70.5797C192.278 69.5644 192.471 65.2191 192.471 61.7876C192.471 58.356 192.268 54.1122 192.227 53.1985C192.277 53.1348 192.321 53.0669 192.359 52.9955C192.532 52.9955 192.826 52.9447 193.181 52.9244C194.549 52.7579 195.925 52.6664 197.302 52.6503C202.134 52.6503 204.956 55.3509 204.956 59.087ZM201.231 59.1987C201.058 55.3712 197.861 55.2392 195.881 55.625C195.881 56.7316 195.881 58.2849 195.962 60.0921C195.962 60.8129 195.962 61.615 196.013 62.4373C199.566 63.615 201.302 61.818 201.231 59.1987ZM288.283 52.9955C288.227 52.9397 288.176 52.8785 288.131 52.8127C287.796 52.8127 287.035 52.8838 286.314 52.8838C285.593 52.8838 284.812 52.833 284.497 52.8127C284.452 52.8785 284.401 52.9397 284.345 52.9955C284.345 52.9955 284.599 57.4118 284.599 61.7876C284.599 66.1633 284.345 70.5797 284.345 70.5797C284.416 70.6336 284.477 70.6988 284.527 70.7726C284.862 70.7726 285.614 70.7015 286.314 70.7015C287.014 70.7015 287.948 70.7522 288.344 70.7726L288.507 70.5594C288.169 67.6481 288.016 64.7182 288.05 61.7876C288.029 56.7621 288.283 52.9955 288.283 52.9955V52.9955ZM281.848 64.4881C281.848 68.2446 279.026 70.9248 274.194 70.9248C272.803 70.9248 271.281 70.7827 270.316 70.6812C269.768 70.6812 269.301 70.6 269.027 70.5695C268.993 70.4992 268.948 70.4342 268.895 70.3766C268.895 69.4629 269.149 65.2191 269.149 61.7774C269.149 58.3357 268.946 53.9701 268.895 52.9853C268.96 52.9306 269.015 52.8654 269.058 52.7924C269.393 52.7924 270.154 52.8736 270.865 52.8736C271.575 52.8736 272.357 52.8736 272.682 52.7924C272.723 52.8633 272.775 52.9282 272.834 52.9853C272.834 53.6452 272.753 55.8889 272.692 58.3865H272.773C273.587 58.1697 274.427 58.0638 275.27 58.0717C278.133 58.0413 281.848 59.5134 281.848 64.4881V64.4881ZM272.631 61.2089C272.631 61.2089 272.631 62.6505 272.58 63.4729C272.58 65.2699 272.519 66.8232 272.499 67.9298C272.59 67.9147 272.682 67.9147 272.773 67.9298C274.803 68.3055 277.95 68.1837 278.112 64.3562C278.234 61.7571 276.417 59.8992 272.631 61.2089V61.2089ZM226.8 61.4119C226.874 63.2612 226.396 65.0906 225.429 66.668C224.461 68.2455 223.046 69.4998 221.365 70.2718C219.683 71.0439 217.81 71.2988 215.983 71.0043C214.156 70.7098 212.458 69.8792 211.104 68.6178C209.75 67.3564 208.801 65.7211 208.378 63.9194C207.955 62.1177 208.076 60.2309 208.727 58.4984C209.378 56.7659 210.528 55.2658 212.033 54.1884C213.537 53.111 215.328 52.505 217.177 52.4472C218.4 52.4052 219.619 52.6046 220.764 53.034C221.91 53.4634 222.959 54.1145 223.853 54.9499C224.747 55.7853 225.467 56.7887 225.973 57.9027C226.478 59.0168 226.76 60.2196 226.8 61.4424V61.4119ZM222.862 60.549C222.733 59.8114 222.46 59.1065 222.059 58.4745C221.657 57.8425 221.135 57.2959 220.523 56.8659C219.91 56.4359 219.218 56.131 218.487 55.9686C217.757 55.8062 217.001 55.7895 216.264 55.9194C214.793 56.2871 213.526 57.2206 212.739 58.5171C211.952 59.8136 211.709 61.3683 212.062 62.8434C212.182 63.587 212.449 64.2993 212.847 64.9389C213.245 65.5784 213.766 66.1325 214.38 66.5689C214.994 67.0053 215.688 67.3153 216.423 67.481C217.157 67.6467 217.918 67.6646 218.659 67.5339C219.394 67.3522 220.086 67.0272 220.696 66.5776C221.305 66.1279 221.819 65.5625 222.21 64.9136C222.6 64.2647 222.859 63.5452 222.971 62.7963C223.083 62.0473 223.046 61.2836 222.862 60.549V60.549ZM173.641 87.2298C173.717 89.0819 173.24 90.9146 172.272 92.4953C171.304 94.0759 169.888 95.3332 168.204 96.1073C166.521 96.8815 164.645 97.1376 162.815 96.8431C160.985 96.5486 159.284 95.7169 157.928 94.4536C156.572 93.1902 155.622 91.5522 155.198 89.7476C154.775 87.943 154.897 86.0533 155.55 84.3185C156.203 82.5836 157.356 81.0819 158.864 80.0041C160.372 78.9263 162.166 78.321 164.018 78.2651C166.482 78.1801 168.879 79.0763 170.683 80.757C172.487 82.4377 173.551 84.7656 173.641 87.2298ZM169.692 86.3668C169.565 85.6284 169.293 84.9224 168.892 84.2892C168.491 83.6561 167.969 83.1084 167.356 82.6773C166.743 82.2463 166.051 81.9405 165.32 81.7775C164.589 81.6144 163.832 81.5973 163.094 81.7271C161.624 82.0993 160.36 83.0357 159.575 84.3336C158.791 85.6315 158.549 87.1863 158.902 88.6613C159.028 89.4004 159.3 90.1072 159.7 90.741C160.101 91.3748 160.623 91.9231 161.236 92.3543C161.849 92.7855 162.542 93.0912 163.273 93.2537C164.005 93.4162 164.762 93.4322 165.5 93.301C166.972 92.9313 168.238 91.9953 169.023 90.6967C169.808 89.3981 170.049 87.842 169.692 86.3668V86.3668ZM135.424 87.2298C135.499 89.0819 135.023 90.9146 134.055 92.4953C133.087 94.0759 131.671 95.3332 129.987 96.1073C128.303 96.8815 126.427 97.1376 124.597 96.8431C122.768 96.5486 121.067 95.7169 119.711 94.4536C118.354 93.1902 117.404 91.5522 116.981 89.7476C116.558 87.943 116.68 86.0533 117.333 84.3185C117.985 82.5836 119.139 81.0819 120.646 80.0041C122.154 78.9263 123.948 78.321 125.801 78.2651C127.021 78.2217 128.238 78.4191 129.382 78.8462C130.526 79.2732 131.575 79.9214 132.469 80.7539C133.362 81.5864 134.083 82.5867 134.59 83.6979C135.097 84.809 135.38 86.0092 135.424 87.2298V87.2298ZM131.485 86.3668C131.22 84.8804 130.377 83.5596 129.14 82.6937C127.904 81.8279 126.374 81.4876 124.887 81.7474C123.415 82.1174 122.148 83.0529 121.362 84.351C120.575 85.6492 120.332 87.2053 120.685 88.6816C120.811 89.4207 121.082 90.1275 121.483 90.7613C121.883 91.3951 122.405 91.9434 123.018 92.3746C123.632 92.8058 124.324 93.1115 125.056 93.274C125.788 93.4365 126.545 93.4526 127.283 93.3213C128.759 92.9516 130.029 92.013 130.817 90.7102C131.604 89.4074 131.844 87.8461 131.485 86.3668V86.3668ZM110.96 70.935C112.176 70.9961 113.391 70.8016 114.527 70.3641C115.664 69.9265 116.695 69.2556 117.556 68.3946C118.417 67.5336 119.088 66.5017 119.525 65.3655C119.963 64.2292 120.157 63.0138 120.096 61.7977C120.096 60.5831 119.854 59.3807 119.384 58.2607C118.915 57.1407 118.226 56.1257 117.359 55.2749C116.493 54.4241 115.465 53.7547 114.337 53.3058C113.208 52.8569 112.002 52.6375 110.788 52.6604C109.066 52.6548 107.374 53.1068 105.885 53.9701V57.1479C105.967 57.1677 106.045 57.1984 106.118 57.2392C106.93 56.5318 107.891 56.018 108.93 55.7367C109.705 55.5439 110.512 55.5102 111.3 55.6375C112.089 55.7649 112.844 56.0506 113.519 56.4775C114.195 56.9043 114.776 57.4636 115.23 58.1214C115.683 58.7793 115.999 59.5222 116.158 60.3053C113.346 60.3053 110.27 60.0819 109.61 60.0109C109.551 60.0695 109.483 60.1175 109.407 60.153C109.407 61.1683 109.245 62.5592 109.194 63.016C109.246 63.0582 109.294 63.1059 109.336 63.1582C109.925 63.1582 112.99 62.9754 116.279 62.9653C116.195 64.054 115.791 65.0938 115.12 65.955C114.448 66.8161 113.538 67.4606 112.503 67.808C110.802 68.2873 108.981 68.0833 107.428 67.2395C106.795 66.8167 106.206 66.3302 105.672 65.7877L105.438 65.8587V67.5948C105.438 68.3969 105.377 69.27 105.377 69.27C107.027 70.3767 108.974 70.9572 110.96 70.935V70.935ZM309.346 60.3053C309.346 56.9854 309.407 53.8483 309.417 53.0259C309.348 52.9658 309.287 52.8977 309.234 52.8229C308.94 52.8229 308.311 52.8939 307.631 52.8939C306.95 52.8939 306.27 52.8939 306.006 52.8229H305.824C305.387 53.5031 302.718 57.6758 301.022 60.0515C300.007 61.483 298.302 63.8282 296.962 65.6354V63.1988C296.962 59.7063 297.175 54.0615 297.216 52.9752C297.14 52.9326 297.071 52.8777 297.013 52.8127C296.658 52.8127 295.927 52.8838 295.247 52.8838C294.567 52.8838 293.754 52.833 293.43 52.8127C293.388 52.8865 293.336 52.9547 293.277 53.0158C293.277 54.1833 293.531 59.7469 293.531 63.1683C293.531 66.5897 293.47 69.6355 293.46 70.4578C293.529 70.5179 293.59 70.5861 293.643 70.6609C293.937 70.6609 294.567 70.5898 295.247 70.5898C295.927 70.5898 296.587 70.6406 296.861 70.6609L296.962 70.6H297.053C297.449 69.9908 299.479 67.5542 302.697 62.681C303.834 60.9652 305.083 59.2596 305.905 58.1834V60.3154C305.905 63.8181 305.692 69.4527 305.651 70.5492C305.727 70.5918 305.796 70.6467 305.854 70.7116C306.209 70.7116 306.93 70.6406 307.62 70.6406C308.311 70.6406 309.113 70.6913 309.437 70.7116C309.479 70.6379 309.531 70.5696 309.59 70.5086C309.559 69.3309 309.346 63.7673 309.346 60.3053V60.3053ZM139.494 70.4578C138.855 69.3106 136.175 63.7267 134.683 60.0413C133.272 56.5692 132.104 53.5945 131.759 52.63C131.641 52.621 131.524 52.5936 131.414 52.5488C130.408 53.0031 129.374 53.3931 128.318 53.7163C128.287 53.828 128.239 53.9342 128.176 54.031C128.237 54.163 128.318 54.3762 128.43 54.63C126.389 60.1045 123.978 65.4334 121.213 70.5797L121.375 70.7319C122.76 70.6283 124.151 70.6283 125.537 70.7319C125.537 70.7319 127.059 66.0618 129.973 58.2443L131.444 61.7368C133.089 65.6658 134.794 70.7319 134.794 70.7319C134.794 70.7319 135.809 70.6304 136.936 70.6304C137.697 70.6304 138.966 70.6304 139.352 70.7116C139.389 70.6278 139.436 70.5492 139.494 70.4781V70.4578ZM152.01 84.7932C152.01 89.7679 148.285 91.2401 145.422 91.2401C144.629 91.2484 143.837 91.1563 143.067 90.9659C143.128 93.433 143.189 95.6463 143.209 96.296C143.15 96.3532 143.099 96.4181 143.057 96.4889C142.732 96.4889 141.961 96.4077 141.24 96.4077C140.519 96.4077 139.768 96.4077 139.433 96.4788C139.387 96.4108 139.333 96.3494 139.271 96.296C139.271 95.2808 139.524 90.9253 139.524 87.5039C139.524 84.0825 139.311 79.8185 139.271 78.9047C139.317 78.8423 139.354 78.774 139.382 78.7017L140.205 78.6306C141.572 78.4641 142.948 78.3726 144.326 78.3565C149.178 78.3362 152.01 81.0165 152.01 84.7932ZM148.274 84.9049C148.102 81.0774 144.904 80.9454 142.925 81.3312C142.925 82.4378 142.925 83.9912 143.006 85.7983V88.1537C146.61 89.3009 148.386 87.5039 148.274 84.8846V84.9049Z" fill="white"/>
<path d="M88.4359 87.382C88.4359 82.1738 75.981 77.9503 60.6128 77.9503C45.2446 77.9503 32.7998 82.1738 32.7998 87.382C32.939 94.6691 35.931 101.611 41.1327 106.715C46.3345 111.819 53.3307 114.679 60.6179 114.679C67.905 114.679 74.9012 111.819 80.103 106.715C85.3047 101.611 88.2967 94.6691 88.4359 87.382V87.382Z" fill="#FD403E"/>
<path d="M85.3296 87.382C85.3296 91.3212 74.2653 94.4888 60.6126 94.4888C46.9599 94.4888 35.9058 91.3009 35.9058 87.382C35.9058 83.4632 46.97 80.2753 60.6126 80.2753C74.2552 80.2753 85.3296 83.4733 85.3296 87.382Z" fill="#BBFF00"/>
<path d="M88.4359 59.8179C88.2967 52.5309 85.3047 45.5892 80.103 40.485C74.9012 35.3808 67.905 32.5214 60.6179 32.5214C53.3307 32.5214 46.3345 35.3808 41.1327 40.485C35.931 45.5892 32.939 52.5309 32.7998 59.8179C32.7998 65.0262 45.2547 69.2496 60.6128 69.2496C75.9708 69.2496 88.4359 65.0262 88.4359 59.8179Z" fill="#FD403E"/>
</g>
<g filter="url(#filter0_f_30215_29051)">
<circle cx="525.38" cy="330.762" r="256.22" fill="#0F5893"/>
</g>
<g filter="url(#filter1_d_30215_29051)">
<path d="M358.4 180.295C358.4 170.854 366.054 163.2 375.495 163.2H610.554C619.995 163.2 627.649 170.854 627.649 180.295V496.556H358.4V180.295Z" fill="white" fill-opacity="0.1" shape-rendering="crispEdges"/>
</g>
<g filter="url(#filter2_d_30215_29051)">
<path d="M334.4 220.295C334.4 210.854 342.054 203.2 351.495 203.2H358.4V536.8H334.4V220.295Z" fill="white" fill-opacity="0.05" shape-rendering="crispEdges"/>
</g>
<g filter="url(#filter3_d_30215_29051)">
<path d="M390.4 132.295C390.4 122.854 398.054 115.2 407.495 115.2H642.554C651.995 115.2 659.649 122.854 659.649 132.295V448.556H390.4V132.295Z" fill="#FD403E"/>
</g>
<path d="M390.4 172.184C390.4 162.742 398.054 155.089 407.495 155.089H642.554C651.995 155.089 659.649 162.742 659.649 172.184V448.556H390.4V172.184Z" fill="#FAFAFA"/>
<rect x="408.919" y="133.72" width="22.7936" height="4.2738" rx="2.1369" fill="white"/>
<rect x="445.959" y="133.72" width="99.7219" height="4.2738" rx="2.1369" fill="white"/>
<rect x="390.4" y="180.731" width="267.825" height="1.4246" fill="#E9E9E9"/>
<rect x="390.4" y="410.092" width="267.825" height="1.4246" fill="#E9E9E9"/>
<rect x="434.562" y="202.1" width="56.984" height="9.97219" rx="4.9861" fill="#CCCCCC"/>
<rect x="404.646" y="425.763" width="94.0235" height="9.97219" rx="4.9861" fill="#CCCCCC"/>
<circle cx="415.33" cy="207.086" r="9.97219" stroke="#C4C4C4" stroke-width="1.4246"/>
<g filter="url(#filter4_d_30215_29051)">
<rect x="404.646" y="232.017" width="34.1904" height="34.1904" rx="5.6984" fill="white"/>
</g>
<path d="M404.646 254.811H438.836V260.509C438.836 263.656 436.285 266.207 433.138 266.207H410.344C407.197 266.207 404.646 263.656 404.646 260.509V254.811Z" fill="#B8FC03"/>
<circle cx="421.741" cy="260.509" r="2.8492" fill="#98CC0C"/>
<g filter="url(#filter5_d_30215_29051)">
<rect x="405.358" y="232.73" width="32.7658" height="32.7658" rx="4.9861" stroke="#FD403E" stroke-width="1.4246" shape-rendering="crispEdges"/>
</g>
<rect x="416.755" y="239.852" width="9.97219" height="9.97219" rx="0.712299" stroke="#98CC0C" stroke-width="1.4246"/>
<path fill-rule="evenodd" clip-rule="evenodd" d="M421.741 247.688C422.528 247.688 423.166 247.05 423.166 246.263C423.166 246.263 423.166 246.263 423.166 246.263H426.015C426.802 246.263 427.44 246.901 427.44 247.688V249.112C427.44 249.899 426.802 250.537 426.015 250.537H417.468C416.681 250.537 416.043 249.899 416.043 249.112V247.688C416.043 246.901 416.681 246.263 417.468 246.263H420.316C420.316 246.263 420.316 246.263 420.316 246.263C420.316 247.05 420.954 247.688 421.741 247.688Z" fill="#98CC0C"/>
<g filter="url(#filter6_d_30215_29051)">
<rect x="404.646" y="273.33" width="34.1904" height="34.1904" rx="5.6984" fill="white"/>
</g>
<path d="M404.646 296.124H438.836V301.822C438.836 304.969 436.285 307.521 433.138 307.521H410.344C407.197 307.521 404.646 304.969 404.646 301.822V296.124Z" fill="#B8FC03"/>
<circle cx="421.741" cy="301.823" r="2.8492" fill="#98CC0C"/>
<rect x="416.755" y="281.166" width="9.97219" height="9.97219" rx="0.712299" stroke="#98CC0C" stroke-width="1.4246"/>
<path fill-rule="evenodd" clip-rule="evenodd" d="M421.741 289.001C422.528 289.001 423.166 288.363 423.166 287.576C423.166 287.576 423.166 287.576 423.166 287.576H426.015C426.802 287.576 427.44 288.214 427.44 289.001V290.426C427.44 291.212 426.802 291.85 426.015 291.85H417.468C416.681 291.85 416.043 291.212 416.043 290.426V289.001C416.043 288.214 416.681 287.576 417.468 287.576H420.316C420.316 287.576 420.316 287.576 420.316 287.576C420.316 288.363 420.954 289.001 421.741 289.001Z" fill="#98CC0C"/>
<g filter="url(#filter7_d_30215_29051)">
<rect x="404.646" y="314.644" width="34.1904" height="34.1904" rx="5.6984" fill="white"/>
</g>
<path d="M404.646 337.438H438.836V343.136C438.836 346.283 436.285 348.834 433.138 348.834H410.344C407.197 348.834 404.646 346.283 404.646 343.136V337.438Z" fill="#B8FC03"/>
<circle cx="421.741" cy="343.136" r="2.8492" fill="#98CC0C"/>
<rect x="416.755" y="322.479" width="9.97219" height="9.97219" rx="0.712299" stroke="#98CC0C" stroke-width="1.4246"/>
<path fill-rule="evenodd" clip-rule="evenodd" d="M421.741 330.314C422.528 330.314 423.166 329.677 423.166 328.89C423.166 328.89 423.166 328.89 423.166 328.89H426.015C426.802 328.89 427.44 329.528 427.44 330.314V331.739C427.44 332.526 426.802 333.164 426.015 333.164H417.468C416.681 333.164 416.043 332.526 416.043 331.739V330.314C416.043 329.528 416.681 328.89 417.468 328.89H420.317C420.317 328.89 420.317 328.89 420.317 328.89C420.317 329.677 420.955 330.314 421.741 330.314Z" fill="#98CC0C"/>
<g filter="url(#filter8_d_30215_29051)">
<rect x="404.646" y="355.957" width="34.1904" height="34.1904" rx="5.6984" fill="white"/>
</g>
<path d="M404.646 378.751H438.836V384.449C438.836 387.597 436.285 390.148 433.138 390.148H410.344C407.197 390.148 404.646 387.597 404.646 384.449V378.751Z" fill="#B8FC03"/>
<circle cx="421.741" cy="384.449" r="2.8492" fill="#98CC0C"/>
<rect x="416.755" y="363.793" width="9.97219" height="9.97219" rx="0.712299" stroke="#98CC0C" stroke-width="1.4246"/>
<path fill-rule="evenodd" clip-rule="evenodd" d="M421.741 371.628C422.528 371.628 423.166 370.99 423.166 370.204C423.166 370.204 423.166 370.204 423.166 370.203H426.015C426.802 370.203 427.44 370.841 427.44 371.628V373.053C427.44 373.839 426.802 374.477 426.015 374.477H417.468C416.681 374.477 416.043 373.839 416.043 373.053V371.628C416.043 370.841 416.681 370.203 417.468 370.203H420.317C420.317 370.204 420.317 370.204 420.317 370.204C420.317 370.99 420.955 371.628 421.741 371.628Z" fill="#98CC0C"/>
<g filter="url(#filter9_d_30215_29051)">
<rect x="569.899" y="232.017" width="34.1904" height="34.1904" rx="5.6984" fill="white"/>
</g>
<path d="M569.899 254.811H604.09V260.509C604.09 263.656 601.539 266.207 598.391 266.207H575.598C572.451 266.207 569.899 263.656 569.899 260.509V254.811Z" fill="#B8FC03"/>
<circle cx="586.995" cy="260.509" r="2.8492" fill="#98CC0C"/>
<g filter="url(#filter10_d_30215_29051)">
<rect x="570.612" y="232.73" width="32.7658" height="32.7658" rx="4.9861" stroke="#FD403E" stroke-width="1.4246" shape-rendering="crispEdges"/>
</g>
<rect x="582.008" y="239.852" width="9.97219" height="9.97219" rx="0.712299" stroke="#98CC0C" stroke-width="1.4246"/>
<path fill-rule="evenodd" clip-rule="evenodd" d="M586.996 247.688C587.782 247.688 588.42 247.05 588.42 246.263C588.42 246.263 588.42 246.263 588.42 246.263H591.269C592.056 246.263 592.694 246.901 592.694 247.688V249.112C592.694 249.899 592.056 250.537 591.269 250.537H582.721C581.935 250.537 581.297 249.899 581.297 249.112V247.688C581.297 246.901 581.935 246.263 582.721 246.263H585.571C585.571 246.263 585.571 246.263 585.571 246.263C585.571 247.05 586.209 247.688 586.996 247.688Z" fill="#98CC0C"/>
<g filter="url(#filter11_d_30215_29051)">
<rect x="569.899" y="273.33" width="34.1904" height="34.1904" rx="5.6984" fill="white"/>
</g>
<path d="M569.899 296.124H604.09V301.822C604.09 304.969 601.539 307.521 598.391 307.521H575.598C572.451 307.521 569.899 304.969 569.899 301.822V296.124Z" fill="#011E35"/>
<circle cx="586.995" cy="301.822" r="2.8492" fill="#4F7089"/>
<rect x="582.009" y="281.166" width="9.97219" height="9.97219" rx="0.712299" stroke="#98CC0C" stroke-width="1.4246"/>
<path fill-rule="evenodd" clip-rule="evenodd" d="M585.57 287.576H582.721C581.935 287.576 581.297 288.214 581.297 289.001V290.426C581.297 291.212 581.935 291.85 582.721 291.85H591.269C592.056 291.85 592.694 291.212 592.694 290.426V289.001C592.694 288.214 592.056 287.576 591.269 287.576H588.419C588.419 288.363 587.782 289.001 586.995 289.001C586.208 289.001 585.57 288.363 585.57 287.576Z" fill="#98CC0C"/>
<g filter="url(#filter12_d_30215_29051)">
<rect x="569.899" y="314.644" width="34.1904" height="34.1904" rx="5.6984" fill="white"/>
</g>
<path d="M569.899 337.438H604.09V343.136C604.09 346.283 601.539 348.834 598.391 348.834H575.598C572.451 348.834 569.899 346.283 569.899 343.136V337.438Z" fill="#B8FC03"/>
<circle cx="586.995" cy="343.136" r="2.8492" fill="#98CC0C"/>
<rect x="582.009" y="322.479" width="9.97219" height="9.97219" rx="0.712299" stroke="#98CC0C" stroke-width="1.4246"/>
<path fill-rule="evenodd" clip-rule="evenodd" d="M586.995 330.315C587.782 330.315 588.42 329.677 588.42 328.89C588.42 328.89 588.42 328.89 588.42 328.89H591.269C592.056 328.89 592.694 329.528 592.694 330.314V331.739C592.694 332.526 592.056 333.164 591.269 333.164H582.721C581.935 333.164 581.297 332.526 581.297 331.739V330.314C581.297 329.528 581.935 328.89 582.721 328.89H585.571C585.571 328.89 585.571 328.89 585.571 328.89C585.571 329.677 586.208 330.315 586.995 330.315Z" fill="#98CC0C"/>
<g filter="url(#filter13_d_30215_29051)">
<rect x="569.899" y="355.957" width="34.1904" height="34.1904" rx="5.6984" fill="white"/>
</g>
<path d="M569.899 378.751H604.09V384.449C604.09 387.597 601.539 390.148 598.391 390.148H575.598C572.451 390.148 569.899 387.597 569.899 384.449V378.751Z" fill="#B8FC03"/>
<circle cx="586.995" cy="384.449" r="2.8492" fill="#98CC0C"/>
<rect x="582.008" y="363.793" width="9.97219" height="9.97219" rx="0.712299" stroke="#98CC0C" stroke-width="1.4246"/>
<path fill-rule="evenodd" clip-rule="evenodd" d="M586.994 371.628C587.781 371.628 588.419 370.99 588.419 370.203C588.419 370.203 588.419 370.203 588.419 370.203H591.268C592.055 370.203 592.693 370.841 592.693 371.628V373.053C592.693 373.839 592.055 374.477 591.268 374.477H582.72C581.934 374.477 581.296 373.839 581.296 373.053V371.628C581.296 370.841 581.934 370.203 582.72 370.203H585.57C585.57 370.203 585.57 370.203 585.57 370.203C585.57 370.99 586.207 371.628 586.994 371.628Z" fill="#98CC0C"/>
<g filter="url(#filter14_d_30215_29051)">
<rect x="487.272" y="232.017" width="34.1904" height="34.1904" rx="5.6984" fill="white"/>
</g>
<path d="M487.272 254.811H521.463V260.509C521.463 263.656 518.912 266.207 515.764 266.207H492.971C489.824 266.207 487.272 263.656 487.272 260.509V254.811Z" fill="#B8FC03"/>
<circle cx="504.368" cy="260.509" r="2.8492" fill="#98CC0C"/>
<g filter="url(#filter15_d_30215_29051)">
<rect x="487.985" y="232.729" width="32.7658" height="32.7658" rx="4.9861" stroke="#FD403E" stroke-width="1.4246" shape-rendering="crispEdges"/>
</g>
<rect x="499.382" y="239.852" width="9.97219" height="9.97219" rx="0.712299" stroke="#98CC0C" stroke-width="1.4246"/>
<path fill-rule="evenodd" clip-rule="evenodd" d="M504.368 247.688C505.155 247.688 505.792 247.05 505.792 246.263C505.792 246.263 505.792 246.263 505.792 246.263H508.642C509.428 246.263 510.066 246.901 510.066 247.688V249.112C510.066 249.899 509.428 250.537 508.642 250.537H500.094C499.307 250.537 498.669 249.899 498.669 249.112V247.688C498.669 246.901 499.307 246.263 500.094 246.263H502.943C502.943 246.263 502.943 246.263 502.943 246.263C502.943 247.05 503.581 247.688 504.368 247.688Z" fill="#98CC0C"/>
<g filter="url(#filter16_d_30215_29051)">
<rect x="487.272" y="273.33" width="34.1904" height="34.1904" rx="5.6984" fill="white"/>
</g>
<path d="M487.272 296.124H521.463V301.822C521.463 304.969 518.912 307.521 515.764 307.521H492.971C489.824 307.521 487.272 304.969 487.272 301.822V296.124Z" fill="#B8FC03"/>
<circle cx="504.368" cy="301.822" r="2.8492" fill="#98CC0C"/>
<g filter="url(#filter17_d_30215_29051)">
<rect x="487.985" y="274.042" width="32.7658" height="32.7658" rx="4.9861" stroke="#FD403E" stroke-width="1.4246" shape-rendering="crispEdges"/>
</g>
<rect x="499.382" y="281.166" width="9.97219" height="9.97219" rx="0.712299" stroke="#98CC0C" stroke-width="1.4246"/>
<path fill-rule="evenodd" clip-rule="evenodd" d="M502.943 287.576H500.094C499.307 287.576 498.669 288.214 498.669 289.001V290.426C498.669 291.212 499.307 291.85 500.094 291.85H508.642C509.428 291.85 510.066 291.212 510.066 290.426V289.001C510.066 288.214 509.428 287.576 508.642 287.576H505.792C505.792 288.363 505.155 289.001 504.368 289.001C503.581 289.001 502.943 288.363 502.943 287.576Z" fill="#98CC0C"/>
<g filter="url(#filter18_d_30215_29051)">
<rect x="487.272" y="314.644" width="34.1904" height="34.1904" rx="5.6984" fill="white"/>
</g>
<path d="M487.272 337.438H521.463V343.136C521.463 346.283 518.912 348.834 515.764 348.834H492.971C489.824 348.834 487.272 346.283 487.272 343.136V337.438Z" fill="#011E35"/>
<circle cx="504.368" cy="343.136" r="2.8492" fill="#4F7089"/>
<rect x="499.382" y="322.479" width="9.97219" height="9.97219" rx="0.712299" stroke="#98CC0C" stroke-width="1.4246"/>
<path fill-rule="evenodd" clip-rule="evenodd" d="M504.368 330.315C505.155 330.315 505.792 329.677 505.792 328.89C505.792 328.89 505.792 328.89 505.792 328.89H508.642C509.428 328.89 510.066 329.528 510.066 330.314V331.739C510.066 332.526 509.428 333.164 508.642 333.164H500.094C499.307 333.164 498.669 332.526 498.669 331.739V330.314C498.669 329.528 499.307 328.89 500.094 328.89H502.943C502.943 328.89 502.943 328.89 502.943 328.89C502.943 329.677 503.581 330.315 504.368 330.315Z" fill="#98CC0C"/>
<g filter="url(#filter19_d_30215_29051)">
<rect x="487.272" y="355.957" width="34.1904" height="34.1904" rx="5.6984" fill="white"/>
</g>
<path d="M487.272 378.751H521.463V384.449C521.463 387.596 518.912 390.148 515.764 390.148H492.971C489.824 390.148 487.272 387.596 487.272 384.449V378.751Z" fill="#B8FC03"/>
<circle cx="504.368" cy="384.449" r="2.8492" fill="#98CC0C"/>
<g filter="url(#filter20_d_30215_29051)">
<rect x="487.985" y="356.669" width="32.7658" height="32.7658" rx="4.9861" stroke="#FD403E" stroke-width="1.4246" shape-rendering="crispEdges"/>
</g>
<rect x="499.382" y="363.793" width="9.97219" height="9.97219" rx="0.712299" stroke="#98CC0C" stroke-width="1.4246"/>
<path fill-rule="evenodd" clip-rule="evenodd" d="M504.368 371.628C505.155 371.628 505.792 370.99 505.792 370.203C505.792 370.203 505.792 370.203 505.792 370.203H508.642C509.428 370.203 510.066 370.841 510.066 371.628V373.053C510.066 373.839 509.428 374.477 508.642 374.477H500.094C499.307 374.477 498.669 373.839 498.669 373.053V371.628C498.669 370.841 499.307 370.203 500.094 370.203H502.943C502.943 370.203 502.943 370.203 502.943 370.203C502.943 370.99 503.581 371.628 504.368 371.628Z" fill="#98CC0C"/>
<g filter="url(#filter21_d_30215_29051)">
<rect x="445.959" y="232.017" width="34.1904" height="34.1904" rx="5.6984" fill="white"/>
</g>
<path d="M445.959 254.811H480.15V260.509C480.15 263.656 477.599 266.207 474.451 266.207H451.658C448.511 266.207 445.959 263.656 445.959 260.509V254.811Z" fill="#B8FC03"/>
<circle cx="463.055" cy="260.509" r="2.8492" fill="#98CC0C"/>
<rect x="458.068" y="239.852" width="9.97219" height="9.97219" rx="0.712299" stroke="#011E35" stroke-width="1.4246"/>
<path fill-rule="evenodd" clip-rule="evenodd" d="M463.054 247.688C463.841 247.688 464.479 247.05 464.479 246.263C464.479 246.263 464.479 246.263 464.479 246.263H467.328C468.115 246.263 468.753 246.901 468.753 247.688V249.112C468.753 249.899 468.115 250.537 467.328 250.537H458.781C457.994 250.537 457.356 249.899 457.356 249.112V247.688C457.356 246.901 457.994 246.263 458.781 246.263H461.63C461.63 246.263 461.63 246.263 461.63 246.263C461.63 247.05 462.267 247.688 463.054 247.688Z" fill="#011E35"/>
<path d="M463.055 244.838L460.206 241.989L465.904 241.989L463.055 244.838Z" fill="#011E35"/>
<g filter="url(#filter22_d_30215_29051)">
<rect x="445.959" y="273.33" width="34.1904" height="34.1904" rx="5.6984" fill="white"/>
</g>
<path d="M445.959 296.124H480.15V301.822C480.15 304.969 477.599 307.521 474.451 307.521H451.658C448.511 307.521 445.959 304.969 445.959 301.822V296.124Z" fill="#011E35"/>
<circle cx="463.055" cy="301.822" r="2.8492" fill="#4F7089"/>
<rect x="458.068" y="281.166" width="9.97219" height="9.97219" rx="0.712299" stroke="#011E35" stroke-width="1.4246"/>
<path fill-rule="evenodd" clip-rule="evenodd" d="M463.054 289.001C463.84 289.001 464.478 288.363 464.478 287.576C464.478 287.576 464.478 287.576 464.478 287.576H467.328C468.114 287.576 468.752 288.214 468.752 289.001V290.425C468.752 291.212 468.114 291.85 467.328 291.85H458.78C457.993 291.85 457.355 291.212 457.355 290.425V289.001C457.355 288.214 457.993 287.576 458.78 287.576H461.629C461.629 287.576 461.629 287.576 461.629 287.576C461.629 288.363 462.267 289.001 463.054 289.001Z" fill="#011E35"/>
<path d="M463.055 286.152L460.206 283.302L465.904 283.302L463.055 286.152Z" fill="#011E35"/>
<g filter="url(#filter23_d_30215_29051)">
<rect x="445.959" y="314.644" width="34.1904" height="34.1904" rx="5.6984" fill="white"/>
</g>
<path d="M445.959 337.437H480.15V343.136C480.15 346.283 477.599 348.834 474.451 348.834H451.658C448.511 348.834 445.959 346.283 445.959 343.136V337.437Z" fill="#B8FC03"/>
<circle cx="463.055" cy="343.136" r="2.8492" fill="#98CC0C"/>
<rect x="458.069" y="322.479" width="9.97219" height="9.97219" rx="0.712299" stroke="#011E35" stroke-width="1.4246"/>
<path fill-rule="evenodd" clip-rule="evenodd" d="M463.054 330.314C463.841 330.314 464.479 329.677 464.479 328.89C464.479 328.89 464.479 328.89 464.479 328.89H467.329C468.115 328.89 468.753 329.528 468.753 330.314V331.739C468.753 332.526 468.115 333.164 467.329 333.164H458.781C457.994 333.164 457.356 332.526 457.356 331.739V330.314C457.356 329.528 457.994 328.89 458.781 328.89H461.63C461.63 328.89 461.63 328.89 461.63 328.89C461.63 329.677 462.268 330.314 463.054 330.314Z" fill="#011E35"/>
<path d="M463.055 327.465L460.206 324.616L465.904 324.616L463.055 327.465Z" fill="#011E35"/>
<g filter="url(#filter24_d_30215_29051)">
<rect x="445.959" y="355.957" width="34.1904" height="34.1904" rx="5.6984" fill="white"/>
</g>
<path d="M445.959 378.751H480.15V384.449C480.15 387.596 477.599 390.148 474.451 390.148H451.658C448.511 390.148 445.959 387.596 445.959 384.449V378.751Z" fill="#B8FC03"/>
<circle cx="463.055" cy="384.449" r="2.8492" fill="#98CC0C"/>
<rect x="458.069" y="363.792" width="9.97219" height="9.97219" rx="0.712299" stroke="#011E35" stroke-width="1.4246"/>
<path fill-rule="evenodd" clip-rule="evenodd" d="M463.054 371.628C463.841 371.628 464.479 370.99 464.479 370.203C464.479 370.203 464.479 370.203 464.479 370.203H467.329C468.115 370.203 468.753 370.841 468.753 371.628V373.052C468.753 373.839 468.115 374.477 467.329 374.477H458.781C457.994 374.477 457.356 373.839 457.356 373.052V371.628C457.356 370.841 457.994 370.203 458.781 370.203H461.63C461.63 370.203 461.63 370.203 461.63 370.203C461.63 370.99 462.268 371.628 463.054 371.628Z" fill="#011E35"/>
<path d="M463.055 368.778L460.206 365.929L465.904 365.929L463.055 368.778Z" fill="#011E35"/>
<g filter="url(#filter25_d_30215_29051)">
<rect x="611.212" y="232.017" width="34.1904" height="34.1904" rx="5.6984" fill="white"/>
</g>
<g filter="url(#filter26_d_30215_29051)">
<rect x="611.212" y="273.33" width="34.1904" height="34.1904" rx="5.6984" fill="white"/>
</g>
<g filter="url(#filter27_d_30215_29051)">
<rect x="611.212" y="314.644" width="34.1904" height="34.1904" rx="5.6984" fill="white"/>
</g>
<g filter="url(#filter28_d_30215_29051)">
<rect x="611.212" y="355.957" width="34.1904" height="34.1904" rx="5.6984" fill="white"/>
</g>
<g filter="url(#filter29_d_30215_29051)">
<rect x="528.586" y="232.017" width="34.1904" height="34.1904" rx="5.6984" fill="white"/>
</g>
<path d="M528.586 254.811H562.776V260.509C562.776 263.656 560.225 266.207 557.078 266.207H534.284C531.137 266.207 528.586 263.656 528.586 260.509V254.811Z" fill="#B8FC03"/>
<circle cx="545.681" cy="260.509" r="2.8492" fill="#98CC0C"/>
<rect x="540.695" y="239.852" width="9.97219" height="9.97219" rx="0.712299" stroke="#98CC0C" stroke-width="1.4246"/>
<path fill-rule="evenodd" clip-rule="evenodd" d="M545.682 247.688C546.468 247.688 547.106 247.05 547.106 246.263C547.106 246.263 547.106 246.263 547.106 246.263H549.955C550.742 246.263 551.38 246.901 551.38 247.687V249.112C551.38 249.899 550.742 250.537 549.955 250.537H541.408C540.621 250.537 539.983 249.899 539.983 249.112V247.687C539.983 246.901 540.621 246.263 541.408 246.263H544.257C544.257 246.263 544.257 246.263 544.257 246.263C544.257 247.05 544.895 247.688 545.682 247.688Z" fill="#98CC0C"/>
<path d="M545.681 244.838L542.832 241.989L548.53 241.989L545.681 244.838Z" fill="#98CC0C"/>
<g filter="url(#filter30_d_30215_29051)">
<rect x="528.586" y="273.33" width="34.1904" height="34.1904" rx="5.6984" fill="white"/>
</g>
<path d="M528.586 296.124H562.776V301.822C562.776 304.969 560.225 307.521 557.078 307.521H534.284C531.137 307.521 528.586 304.969 528.586 301.822V296.124Z" fill="#B8FC03"/>
<circle cx="545.681" cy="301.822" r="2.8492" fill="#98CC0C"/>
<rect x="540.695" y="281.166" width="9.97219" height="9.97219" rx="0.712299" stroke="#98CC0C" stroke-width="1.4246"/>
<path fill-rule="evenodd" clip-rule="evenodd" d="M545.681 289.001C546.468 289.001 547.106 288.363 547.106 287.576C547.106 287.576 547.106 287.576 547.106 287.576H549.955C550.742 287.576 551.38 288.214 551.38 289.001V290.425C551.38 291.212 550.742 291.85 549.955 291.85H541.408C540.621 291.85 539.983 291.212 539.983 290.425V289.001C539.983 288.214 540.621 287.576 541.408 287.576H544.256C544.256 287.576 544.256 287.576 544.256 287.576C544.256 288.363 544.894 289.001 545.681 289.001Z" fill="#98CC0C"/>
<path d="M545.681 286.152L542.832 283.302L548.53 283.302L545.681 286.152Z" fill="#98CC0C"/>
<g filter="url(#filter31_d_30215_29051)">
<rect x="528.586" y="314.644" width="34.1904" height="34.1904" rx="5.6984" fill="white"/>
</g>
<path d="M528.586 337.437H562.776V343.136C562.776 346.283 560.225 348.834 557.078 348.834H534.284C531.137 348.834 528.586 346.283 528.586 343.136V337.437Z" fill="#B8FC03"/>
<circle cx="545.681" cy="343.136" r="2.8492" fill="#98CC0C"/>
<rect x="540.695" y="322.479" width="9.97219" height="9.97219" rx="0.712299" stroke="#98CC0C" stroke-width="1.4246"/>
<path fill-rule="evenodd" clip-rule="evenodd" d="M545.682 330.314C546.469 330.314 547.106 329.677 547.106 328.89C547.106 328.89 547.106 328.89 547.106 328.89H549.955C550.742 328.89 551.38 329.528 551.38 330.314V331.739C551.38 332.526 550.742 333.164 549.955 333.164H541.408C540.621 333.164 539.983 332.526 539.983 331.739V330.314C539.983 329.528 540.621 328.89 541.408 328.89H544.257C544.257 328.89 544.257 328.89 544.257 328.89C544.257 329.677 544.895 330.314 545.682 330.314Z" fill="#98CC0C"/>
<path d="M545.681 327.465L542.832 324.616L548.53 324.616L545.681 327.465Z" fill="#98CC0C"/>
<g filter="url(#filter32_d_30215_29051)">
<rect x="528.586" y="355.957" width="34.1904" height="34.1904" rx="5.6984" fill="white"/>
</g>
<path d="M528.586 378.751H562.776V384.449C562.776 387.596 560.225 390.148 557.078 390.148H534.284C531.137 390.148 528.586 387.596 528.586 384.449V378.751Z" fill="#B8FC03"/>
<circle cx="545.681" cy="384.449" r="2.8492" fill="#98CC0C"/>
<rect x="540.695" y="363.792" width="9.97219" height="9.97219" rx="0.712299" stroke="#98CC0C" stroke-width="1.4246"/>
<path fill-rule="evenodd" clip-rule="evenodd" d="M545.682 371.628C546.469 371.628 547.106 370.99 547.106 370.203C547.106 370.203 547.106 370.203 547.106 370.203H549.955C550.742 370.203 551.38 370.841 551.38 371.628V373.052C551.38 373.839 550.742 374.477 549.955 374.477H541.408C540.621 374.477 539.983 373.839 539.983 373.052V371.628C539.983 370.841 540.621 370.203 541.408 370.203H544.257C544.257 370.203 544.257 370.203 544.257 370.203C544.257 370.99 544.895 371.628 545.682 371.628Z" fill="#98CC0C"/>
<path d="M545.681 368.778L542.832 365.929L548.53 365.929L545.681 368.778Z" fill="#98CC0C"/>
<g filter="url(#filter33_d_30215_29051)">
<circle opacity="0.4" cx="391.323" cy="310.524" r="94.2764" fill="#86C6FE"/>
<circle cx="391.324" cy="310.523" r="68.0885" fill="#0F4C7F"/>
<circle cx="391.324" cy="310.523" r="68.0885" fill="url(#paint0_linear_30215_29051)" fill-opacity="0.4"/>
<mask id="mask0_30215_29051" style="mask-type:alpha" maskUnits="userSpaceOnUse" x="323" y="242" width="137" height="137">
<circle cx="391.323" cy="310.524" r="68.0885" fill="white"/>
</mask>
<g mask="url(#mask0_30215_29051)">
<path d="M365.633 337.928C377.536 333.591 381.342 329.931 381.342 322.093C381.342 317.39 377.441 314.342 376.112 310.311C374.782 306.28 374.013 301.507 373.374 298.035C372.735 294.564 372.48 293.221 372.133 289.522C371.708 284.905 374.798 272.988 391.323 272.988C407.843 272.988 410.943 284.905 410.509 289.522C410.161 293.221 409.905 294.564 409.267 298.035C408.63 301.507 407.868 306.279 406.539 310.311C405.211 314.342 401.305 317.39 401.305 322.093C401.305 329.931 405.11 333.591 417.013 337.928C428.96 342.274 436.715 346.559 436.715 349.587V396.195H345.931V349.587C345.931 346.564 353.691 342.279 365.633 337.928Z" fill="#3878AD"/>
</g>
<path fill-rule="evenodd" clip-rule="evenodd" d="M369.5 287.357H413.146C413.146 275.156 403.375 265.265 391.323 265.265C379.27 265.265 369.5 275.156 369.5 287.357Z" fill="#B8FC03"/>
<path d="M386.085 265.131C386.085 264.167 386.867 263.385 387.831 263.385H394.815C395.779 263.385 396.561 264.167 396.561 265.131V279.098H386.085V265.131Z" fill="#B8FC03"/>
<path d="M396.561 279.971H397.434V279.098V265.131C397.434 263.685 396.261 262.512 394.815 262.512H387.831C386.385 262.512 385.213 263.685 385.213 265.131V279.098V279.971H386.085H396.561Z" stroke="#0F4C7F" stroke-width="1.74586"/>
<rect x="366.008" y="286.954" width="48.8841" height="3.49172" rx="1.74586" fill="#B8FC03"/>
<rect x="384.34" y="275.606" width="13.9669" height="5.23758" fill="#B8FC03"/>
</g>
</g>
<defs>
<filter id="filter0_f_30215_29051" x="94.4635" y="-100.154" width="861.832" height="861.832" filterUnits="userSpaceOnUse" color-interpolation-filters="sRGB">
<feFlood flood-opacity="0" result="BackgroundImageFix"/>
<feBlend mode="normal" in="SourceGraphic" in2="BackgroundImageFix" result="shape"/>
<feGaussianBlur stdDeviation="87.3478" result="effect1_foregroundBlur_30215_29051"/>
</filter>
<filter id="filter1_d_30215_29051" x="315.662" y="134.708" width="354.725" height="418.832" filterUnits="userSpaceOnUse" color-interpolation-filters="sRGB">
<feFlood flood-opacity="0" result="BackgroundImageFix"/>
<feColorMatrix in="SourceAlpha" type="matrix" values="0 0 0 0 0 0 0 0 0 0 0 0 0 0 0 0 0 0 127 0" result="hardAlpha"/>
<feOffset dy="14.246"/>
<feGaussianBlur stdDeviation="21.369"/>
<feComposite in2="hardAlpha" operator="out"/>
<feColorMatrix type="matrix" values="0 0 0 0 0.3125 0 0 0 0 0.283677 0 0 0 0 0.0455729 0 0 0 0.3 0"/>
<feBlend mode="normal" in2="BackgroundImageFix" result="effect1_dropShadow_30215_29051"/>
<feBlend mode="normal" in="SourceGraphic" in2="effect1_dropShadow_30215_29051" result="shape"/>
</filter>
<filter id="filter2_d_30215_29051" x="291.662" y="174.708" width="109.476" height="419.076" filterUnits="userSpaceOnUse" color-interpolation-filters="sRGB">
<feFlood flood-opacity="0" result="BackgroundImageFix"/>
<feColorMatrix in="SourceAlpha" type="matrix" values="0 0 0 0 0 0 0 0 0 0 0 0 0 0 0 0 0 0 127 0" result="hardAlpha"/>
<feOffset dy="14.246"/>
<feGaussianBlur stdDeviation="21.369"/>
<feComposite in2="hardAlpha" operator="out"/>
<feColorMatrix type="matrix" values="0 0 0 0 0.3125 0 0 0 0 0.283677 0 0 0 0 0.0455729 0 0 0 0.3 0"/>
<feBlend mode="normal" in2="BackgroundImageFix" result="effect1_dropShadow_30215_29051"/>
<feBlend mode="normal" in="SourceGraphic" in2="effect1_dropShadow_30215_29051" result="shape"/>
</filter>
<filter id="filter3_d_30215_29051" x="347.662" y="86.708" width="354.725" height="418.832" filterUnits="userSpaceOnUse" color-interpolation-filters="sRGB">
<feFlood flood-opacity="0" result="BackgroundImageFix"/>
<feColorMatrix in="SourceAlpha" type="matrix" values="0 0 0 0 0 0 0 0 0 0 0 0 0 0 0 0 0 0 127 0" result="hardAlpha"/>
<feOffset dy="14.246"/>
<feGaussianBlur stdDeviation="21.369"/>
<feComposite in2="hardAlpha" operator="out"/>
<feColorMatrix type="matrix" values="0 0 0 0 0.3125 0 0 0 0 0.283677 0 0 0 0 0.0455729 0 0 0 0.3 0"/>
<feBlend mode="normal" in2="BackgroundImageFix" result="effect1_dropShadow_30215_29051"/>
<feBlend mode="normal" in="SourceGraphic" in2="effect1_dropShadow_30215_29051" result="shape"/>
</filter>
<filter id="filter4_d_30215_29051" x="398.948" y="226.319" width="45.5872" height="45.5872" filterUnits="userSpaceOnUse" color-interpolation-filters="sRGB">
<feFlood flood-opacity="0" result="BackgroundImageFix"/>
<feColorMatrix in="SourceAlpha" type="matrix" values="0 0 0 0 0 0 0 0 0 0 0 0 0 0 0 0 0 0 127 0" result="hardAlpha"/>
<feOffset/>
<feGaussianBlur stdDeviation="2.8492"/>
<feComposite in2="hardAlpha" operator="out"/>
<feColorMatrix type="matrix" values="0 0 0 0 0 0 0 0 0 0 0 0 0 0 0 0 0 0 0.15 0"/>
<feBlend mode="normal" in2="BackgroundImageFix" result="effect1_dropShadow_30215_29051"/>
<feBlend mode="normal" in="SourceGraphic" in2="effect1_dropShadow_30215_29051" result="shape"/>
</filter>
<filter id="filter5_d_30215_29051" x="398.948" y="226.319" width="45.5872" height="45.5872" filterUnits="userSpaceOnUse" color-interpolation-filters="sRGB">
<feFlood flood-opacity="0" result="BackgroundImageFix"/>
<feColorMatrix in="SourceAlpha" type="matrix" values="0 0 0 0 0 0 0 0 0 0 0 0 0 0 0 0 0 0 127 0" result="hardAlpha"/>
<feOffset/>
<feGaussianBlur stdDeviation="2.8492"/>
<feComposite in2="hardAlpha" operator="out"/>
<feColorMatrix type="matrix" values="0 0 0 0 0 0 0 0 0 0 0 0 0 0 0 0 0 0 0.15 0"/>
<feBlend mode="normal" in2="BackgroundImageFix" result="effect1_dropShadow_30215_29051"/>
<feBlend mode="normal" in="SourceGraphic" in2="effect1_dropShadow_30215_29051" result="shape"/>
</filter>
<filter id="filter6_d_30215_29051" x="398.948" y="267.632" width="45.5872" height="45.5872" filterUnits="userSpaceOnUse" color-interpolation-filters="sRGB">
<feFlood flood-opacity="0" result="BackgroundImageFix"/>
<feColorMatrix in="SourceAlpha" type="matrix" values="0 0 0 0 0 0 0 0 0 0 0 0 0 0 0 0 0 0 127 0" result="hardAlpha"/>
<feOffset/>
<feGaussianBlur stdDeviation="2.8492"/>
<feComposite in2="hardAlpha" operator="out"/>
<feColorMatrix type="matrix" values="0 0 0 0 0 0 0 0 0 0 0 0 0 0 0 0 0 0 0.15 0"/>
<feBlend mode="normal" in2="BackgroundImageFix" result="effect1_dropShadow_30215_29051"/>
<feBlend mode="normal" in="SourceGraphic" in2="effect1_dropShadow_30215_29051" result="shape"/>
</filter>
<filter id="filter7_d_30215_29051" x="398.948" y="308.945" width="45.5872" height="45.5872" filterUnits="userSpaceOnUse" color-interpolation-filters="sRGB">
<feFlood flood-opacity="0" result="BackgroundImageFix"/>
<feColorMatrix in="SourceAlpha" type="matrix" values="0 0 0 0 0 0 0 0 0 0 0 0 0 0 0 0 0 0 127 0" result="hardAlpha"/>
<feOffset/>
<feGaussianBlur stdDeviation="2.8492"/>
<feComposite in2="hardAlpha" operator="out"/>
<feColorMatrix type="matrix" values="0 0 0 0 0 0 0 0 0 0 0 0 0 0 0 0 0 0 0.15 0"/>
<feBlend mode="normal" in2="BackgroundImageFix" result="effect1_dropShadow_30215_29051"/>
<feBlend mode="normal" in="SourceGraphic" in2="effect1_dropShadow_30215_29051" result="shape"/>
</filter>
<filter id="filter8_d_30215_29051" x="398.948" y="350.259" width="45.5872" height="45.5872" filterUnits="userSpaceOnUse" color-interpolation-filters="sRGB">
<feFlood flood-opacity="0" result="BackgroundImageFix"/>
<feColorMatrix in="SourceAlpha" type="matrix" values="0 0 0 0 0 0 0 0 0 0 0 0 0 0 0 0 0 0 127 0" result="hardAlpha"/>
<feOffset/>
<feGaussianBlur stdDeviation="2.8492"/>
<feComposite in2="hardAlpha" operator="out"/>
<feColorMatrix type="matrix" values="0 0 0 0 0 0 0 0 0 0 0 0 0 0 0 0 0 0 0.15 0"/>
<feBlend mode="normal" in2="BackgroundImageFix" result="effect1_dropShadow_30215_29051"/>
<feBlend mode="normal" in="SourceGraphic" in2="effect1_dropShadow_30215_29051" result="shape"/>
</filter>
<filter id="filter9_d_30215_29051" x="564.201" y="226.319" width="45.5872" height="45.5872" filterUnits="userSpaceOnUse" color-interpolation-filters="sRGB">
<feFlood flood-opacity="0" result="BackgroundImageFix"/>
<feColorMatrix in="SourceAlpha" type="matrix" values="0 0 0 0 0 0 0 0 0 0 0 0 0 0 0 0 0 0 127 0" result="hardAlpha"/>
<feOffset/>
<feGaussianBlur stdDeviation="2.8492"/>
<feComposite in2="hardAlpha" operator="out"/>
<feColorMatrix type="matrix" values="0 0 0 0 0 0 0 0 0 0 0 0 0 0 0 0 0 0 0.15 0"/>
<feBlend mode="normal" in2="BackgroundImageFix" result="effect1_dropShadow_30215_29051"/>
<feBlend mode="normal" in="SourceGraphic" in2="effect1_dropShadow_30215_29051" result="shape"/>
</filter>
<filter id="filter10_d_30215_29051" x="564.201" y="226.319" width="45.5872" height="45.5872" filterUnits="userSpaceOnUse" color-interpolation-filters="sRGB">
<feFlood flood-opacity="0" result="BackgroundImageFix"/>
<feColorMatrix in="SourceAlpha" type="matrix" values="0 0 0 0 0 0 0 0 0 0 0 0 0 0 0 0 0 0 127 0" result="hardAlpha"/>
<feOffset/>
<feGaussianBlur stdDeviation="2.8492"/>
<feComposite in2="hardAlpha" operator="out"/>
<feColorMatrix type="matrix" values="0 0 0 0 0 0 0 0 0 0 0 0 0 0 0 0 0 0 0.15 0"/>
<feBlend mode="normal" in2="BackgroundImageFix" result="effect1_dropShadow_30215_29051"/>
<feBlend mode="normal" in="SourceGraphic" in2="effect1_dropShadow_30215_29051" result="shape"/>
</filter>
<filter id="filter11_d_30215_29051" x="564.201" y="267.632" width="45.5872" height="45.5872" filterUnits="userSpaceOnUse" color-interpolation-filters="sRGB">
<feFlood flood-opacity="0" result="BackgroundImageFix"/>
<feColorMatrix in="SourceAlpha" type="matrix" values="0 0 0 0 0 0 0 0 0 0 0 0 0 0 0 0 0 0 127 0" result="hardAlpha"/>
<feOffset/>
<feGaussianBlur stdDeviation="2.8492"/>
<feComposite in2="hardAlpha" operator="out"/>
<feColorMatrix type="matrix" values="0 0 0 0 0 0 0 0 0 0 0 0 0 0 0 0 0 0 0.15 0"/>
<feBlend mode="normal" in2="BackgroundImageFix" result="effect1_dropShadow_30215_29051"/>
<feBlend mode="normal" in="SourceGraphic" in2="effect1_dropShadow_30215_29051" result="shape"/>
</filter>
<filter id="filter12_d_30215_29051" x="564.201" y="308.945" width="45.5872" height="45.5872" filterUnits="userSpaceOnUse" color-interpolation-filters="sRGB">
<feFlood flood-opacity="0" result="BackgroundImageFix"/>
<feColorMatrix in="SourceAlpha" type="matrix" values="0 0 0 0 0 0 0 0 0 0 0 0 0 0 0 0 0 0 127 0" result="hardAlpha"/>
<feOffset/>
<feGaussianBlur stdDeviation="2.8492"/>
<feComposite in2="hardAlpha" operator="out"/>
<feColorMatrix type="matrix" values="0 0 0 0 0 0 0 0 0 0 0 0 0 0 0 0 0 0 0.15 0"/>
<feBlend mode="normal" in2="BackgroundImageFix" result="effect1_dropShadow_30215_29051"/>
<feBlend mode="normal" in="SourceGraphic" in2="effect1_dropShadow_30215_29051" result="shape"/>
</filter>
<filter id="filter13_d_30215_29051" x="564.201" y="350.259" width="45.5872" height="45.5872" filterUnits="userSpaceOnUse" color-interpolation-filters="sRGB">
<feFlood flood-opacity="0" result="BackgroundImageFix"/>
<feColorMatrix in="SourceAlpha" type="matrix" values="0 0 0 0 0 0 0 0 0 0 0 0 0 0 0 0 0 0 127 0" result="hardAlpha"/>
<feOffset/>
<feGaussianBlur stdDeviation="2.8492"/>
<feComposite in2="hardAlpha" operator="out"/>
<feColorMatrix type="matrix" values="0 0 0 0 0 0 0 0 0 0 0 0 0 0 0 0 0 0 0.15 0"/>
<feBlend mode="normal" in2="BackgroundImageFix" result="effect1_dropShadow_30215_29051"/>
<feBlend mode="normal" in="SourceGraphic" in2="effect1_dropShadow_30215_29051" result="shape"/>
</filter>
<filter id="filter14_d_30215_29051" x="481.574" y="226.319" width="45.5872" height="45.5872" filterUnits="userSpaceOnUse" color-interpolation-filters="sRGB">
<feFlood flood-opacity="0" result="BackgroundImageFix"/>
<feColorMatrix in="SourceAlpha" type="matrix" values="0 0 0 0 0 0 0 0 0 0 0 0 0 0 0 0 0 0 127 0" result="hardAlpha"/>
<feOffset/>
<feGaussianBlur stdDeviation="2.8492"/>
<feComposite in2="hardAlpha" operator="out"/>
<feColorMatrix type="matrix" values="0 0 0 0 0 0 0 0 0 0 0 0 0 0 0 0 0 0 0.15 0"/>
<feBlend mode="normal" in2="BackgroundImageFix" result="effect1_dropShadow_30215_29051"/>
<feBlend mode="normal" in="SourceGraphic" in2="effect1_dropShadow_30215_29051" result="shape"/>
</filter>
<filter id="filter15_d_30215_29051" x="481.574" y="226.319" width="45.5872" height="45.5872" filterUnits="userSpaceOnUse" color-interpolation-filters="sRGB">
<feFlood flood-opacity="0" result="BackgroundImageFix"/>
<feColorMatrix in="SourceAlpha" type="matrix" values="0 0 0 0 0 0 0 0 0 0 0 0 0 0 0 0 0 0 127 0" result="hardAlpha"/>
<feOffset/>
<feGaussianBlur stdDeviation="2.8492"/>
<feComposite in2="hardAlpha" operator="out"/>
<feColorMatrix type="matrix" values="0 0 0 0 0 0 0 0 0 0 0 0 0 0 0 0 0 0 0.15 0"/>
<feBlend mode="normal" in2="BackgroundImageFix" result="effect1_dropShadow_30215_29051"/>
<feBlend mode="normal" in="SourceGraphic" in2="effect1_dropShadow_30215_29051" result="shape"/>
</filter>
<filter id="filter16_d_30215_29051" x="481.574" y="267.632" width="45.5872" height="45.5872" filterUnits="userSpaceOnUse" color-interpolation-filters="sRGB">
<feFlood flood-opacity="0" result="BackgroundImageFix"/>
<feColorMatrix in="SourceAlpha" type="matrix" values="0 0 0 0 0 0 0 0 0 0 0 0 0 0 0 0 0 0 127 0" result="hardAlpha"/>
<feOffset/>
<feGaussianBlur stdDeviation="2.8492"/>
<feComposite in2="hardAlpha" operator="out"/>
<feColorMatrix type="matrix" values="0 0 0 0 0 0 0 0 0 0 0 0 0 0 0 0 0 0 0.15 0"/>
<feBlend mode="normal" in2="BackgroundImageFix" result="effect1_dropShadow_30215_29051"/>
<feBlend mode="normal" in="SourceGraphic" in2="effect1_dropShadow_30215_29051" result="shape"/>
</filter>
<filter id="filter17_d_30215_29051" x="481.574" y="267.632" width="45.5872" height="45.5872" filterUnits="userSpaceOnUse" color-interpolation-filters="sRGB">
<feFlood flood-opacity="0" result="BackgroundImageFix"/>
<feColorMatrix in="SourceAlpha" type="matrix" values="0 0 0 0 0 0 0 0 0 0 0 0 0 0 0 0 0 0 127 0" result="hardAlpha"/>
<feOffset/>
<feGaussianBlur stdDeviation="2.8492"/>
<feComposite in2="hardAlpha" operator="out"/>
<feColorMatrix type="matrix" values="0 0 0 0 0 0 0 0 0 0 0 0 0 0 0 0 0 0 0.15 0"/>
<feBlend mode="normal" in2="BackgroundImageFix" result="effect1_dropShadow_30215_29051"/>
<feBlend mode="normal" in="SourceGraphic" in2="effect1_dropShadow_30215_29051" result="shape"/>
</filter>
<filter id="filter18_d_30215_29051" x="481.574" y="308.945" width="45.5872" height="45.5872" filterUnits="userSpaceOnUse" color-interpolation-filters="sRGB">
<feFlood flood-opacity="0" result="BackgroundImageFix"/>
<feColorMatrix in="SourceAlpha" type="matrix" values="0 0 0 0 0 0 0 0 0 0 0 0 0 0 0 0 0 0 127 0" result="hardAlpha"/>
<feOffset/>
<feGaussianBlur stdDeviation="2.8492"/>
<feComposite in2="hardAlpha" operator="out"/>
<feColorMatrix type="matrix" values="0 0 0 0 0 0 0 0 0 0 0 0 0 0 0 0 0 0 0.15 0"/>
<feBlend mode="normal" in2="BackgroundImageFix" result="effect1_dropShadow_30215_29051"/>
<feBlend mode="normal" in="SourceGraphic" in2="effect1_dropShadow_30215_29051" result="shape"/>
</filter>
<filter id="filter19_d_30215_29051" x="481.574" y="350.259" width="45.5872" height="45.5872" filterUnits="userSpaceOnUse" color-interpolation-filters="sRGB">
<feFlood flood-opacity="0" result="BackgroundImageFix"/>
<feColorMatrix in="SourceAlpha" type="matrix" values="0 0 0 0 0 0 0 0 0 0 0 0 0 0 0 0 0 0 127 0" result="hardAlpha"/>
<feOffset/>
<feGaussianBlur stdDeviation="2.8492"/>
<feComposite in2="hardAlpha" operator="out"/>
<feColorMatrix type="matrix" values="0 0 0 0 0 0 0 0 0 0 0 0 0 0 0 0 0 0 0.15 0"/>
<feBlend mode="normal" in2="BackgroundImageFix" result="effect1_dropShadow_30215_29051"/>
<feBlend mode="normal" in="SourceGraphic" in2="effect1_dropShadow_30215_29051" result="shape"/>
</filter>
<filter id="filter20_d_30215_29051" x="481.574" y="350.259" width="45.5872" height="45.5872" filterUnits="userSpaceOnUse" color-interpolation-filters="sRGB">
<feFlood flood-opacity="0" result="BackgroundImageFix"/>
<feColorMatrix in="SourceAlpha" type="matrix" values="0 0 0 0 0 0 0 0 0 0 0 0 0 0 0 0 0 0 127 0" result="hardAlpha"/>
<feOffset/>
<feGaussianBlur stdDeviation="2.8492"/>
<feComposite in2="hardAlpha" operator="out"/>
<feColorMatrix type="matrix" values="0 0 0 0 0 0 0 0 0 0 0 0 0 0 0 0 0 0 0.15 0"/>
<feBlend mode="normal" in2="BackgroundImageFix" result="effect1_dropShadow_30215_29051"/>
<feBlend mode="normal" in="SourceGraphic" in2="effect1_dropShadow_30215_29051" result="shape"/>
</filter>
<filter id="filter21_d_30215_29051" x="440.261" y="226.319" width="45.5872" height="45.5872" filterUnits="userSpaceOnUse" color-interpolation-filters="sRGB">
<feFlood flood-opacity="0" result="BackgroundImageFix"/>
<feColorMatrix in="SourceAlpha" type="matrix" values="0 0 0 0 0 0 0 0 0 0 0 0 0 0 0 0 0 0 127 0" result="hardAlpha"/>
<feOffset/>
<feGaussianBlur stdDeviation="2.8492"/>
<feComposite in2="hardAlpha" operator="out"/>
<feColorMatrix type="matrix" values="0 0 0 0 0 0 0 0 0 0 0 0 0 0 0 0 0 0 0.15 0"/>
<feBlend mode="normal" in2="BackgroundImageFix" result="effect1_dropShadow_30215_29051"/>
<feBlend mode="normal" in="SourceGraphic" in2="effect1_dropShadow_30215_29051" result="shape"/>
</filter>
<filter id="filter22_d_30215_29051" x="440.261" y="267.632" width="45.5872" height="45.5872" filterUnits="userSpaceOnUse" color-interpolation-filters="sRGB">
<feFlood flood-opacity="0" result="BackgroundImageFix"/>
<feColorMatrix in="SourceAlpha" type="matrix" values="0 0 0 0 0 0 0 0 0 0 0 0 0 0 0 0 0 0 127 0" result="hardAlpha"/>
<feOffset/>
<feGaussianBlur stdDeviation="2.8492"/>
<feComposite in2="hardAlpha" operator="out"/>
<feColorMatrix type="matrix" values="0 0 0 0 0 0 0 0 0 0 0 0 0 0 0 0 0 0 0.15 0"/>
<feBlend mode="normal" in2="BackgroundImageFix" result="effect1_dropShadow_30215_29051"/>
<feBlend mode="normal" in="SourceGraphic" in2="effect1_dropShadow_30215_29051" result="shape"/>
</filter>
<filter id="filter23_d_30215_29051" x="440.261" y="308.945" width="45.5872" height="45.5872" filterUnits="userSpaceOnUse" color-interpolation-filters="sRGB">
<feFlood flood-opacity="0" result="BackgroundImageFix"/>
<feColorMatrix in="SourceAlpha" type="matrix" values="0 0 0 0 0 0 0 0 0 0 0 0 0 0 0 0 0 0 127 0" result="hardAlpha"/>
<feOffset/>
<feGaussianBlur stdDeviation="2.8492"/>
<feComposite in2="hardAlpha" operator="out"/>
<feColorMatrix type="matrix" values="0 0 0 0 0 0 0 0 0 0 0 0 0 0 0 0 0 0 0.15 0"/>
<feBlend mode="normal" in2="BackgroundImageFix" result="effect1_dropShadow_30215_29051"/>
<feBlend mode="normal" in="SourceGraphic" in2="effect1_dropShadow_30215_29051" result="shape"/>
</filter>
<filter id="filter24_d_30215_29051" x="440.261" y="350.259" width="45.5872" height="45.5872" filterUnits="userSpaceOnUse" color-interpolation-filters="sRGB">
<feFlood flood-opacity="0" result="BackgroundImageFix"/>
<feColorMatrix in="SourceAlpha" type="matrix" values="0 0 0 0 0 0 0 0 0 0 0 0 0 0 0 0 0 0 127 0" result="hardAlpha"/>
<feOffset/>
<feGaussianBlur stdDeviation="2.8492"/>
<feComposite in2="hardAlpha" operator="out"/>
<feColorMatrix type="matrix" values="0 0 0 0 0 0 0 0 0 0 0 0 0 0 0 0 0 0 0.15 0"/>
<feBlend mode="normal" in2="BackgroundImageFix" result="effect1_dropShadow_30215_29051"/>
<feBlend mode="normal" in="SourceGraphic" in2="effect1_dropShadow_30215_29051" result="shape"/>
</filter>
<filter id="filter25_d_30215_29051" x="605.514" y="226.319" width="45.5872" height="45.5872" filterUnits="userSpaceOnUse" color-interpolation-filters="sRGB">
<feFlood flood-opacity="0" result="BackgroundImageFix"/>
<feColorMatrix in="SourceAlpha" type="matrix" values="0 0 0 0 0 0 0 0 0 0 0 0 0 0 0 0 0 0 127 0" result="hardAlpha"/>
<feOffset/>
<feGaussianBlur stdDeviation="2.8492"/>
<feComposite in2="hardAlpha" operator="out"/>
<feColorMatrix type="matrix" values="0 0 0 0 0 0 0 0 0 0 0 0 0 0 0 0 0 0 0.15 0"/>
<feBlend mode="normal" in2="BackgroundImageFix" result="effect1_dropShadow_30215_29051"/>
<feBlend mode="normal" in="SourceGraphic" in2="effect1_dropShadow_30215_29051" result="shape"/>
</filter>
<filter id="filter26_d_30215_29051" x="605.514" y="267.632" width="45.5872" height="45.5872" filterUnits="userSpaceOnUse" color-interpolation-filters="sRGB">
<feFlood flood-opacity="0" result="BackgroundImageFix"/>
<feColorMatrix in="SourceAlpha" type="matrix" values="0 0 0 0 0 0 0 0 0 0 0 0 0 0 0 0 0 0 127 0" result="hardAlpha"/>
<feOffset/>
<feGaussianBlur stdDeviation="2.8492"/>
<feComposite in2="hardAlpha" operator="out"/>
<feColorMatrix type="matrix" values="0 0 0 0 0 0 0 0 0 0 0 0 0 0 0 0 0 0 0.15 0"/>
<feBlend mode="normal" in2="BackgroundImageFix" result="effect1_dropShadow_30215_29051"/>
<feBlend mode="normal" in="SourceGraphic" in2="effect1_dropShadow_30215_29051" result="shape"/>
</filter>
<filter id="filter27_d_30215_29051" x="605.514" y="308.945" width="45.5872" height="45.5872" filterUnits="userSpaceOnUse" color-interpolation-filters="sRGB">
<feFlood flood-opacity="0" result="BackgroundImageFix"/>
<feColorMatrix in="SourceAlpha" type="matrix" values="0 0 0 0 0 0 0 0 0 0 0 0 0 0 0 0 0 0 127 0" result="hardAlpha"/>
<feOffset/>
<feGaussianBlur stdDeviation="2.8492"/>
<feComposite in2="hardAlpha" operator="out"/>
<feColorMatrix type="matrix" values="0 0 0 0 0 0 0 0 0 0 0 0 0 0 0 0 0 0 0.15 0"/>
<feBlend mode="normal" in2="BackgroundImageFix" result="effect1_dropShadow_30215_29051"/>
<feBlend mode="normal" in="SourceGraphic" in2="effect1_dropShadow_30215_29051" result="shape"/>
</filter>
<filter id="filter28_d_30215_29051" x="605.514" y="350.259" width="45.5872" height="45.5872" filterUnits="userSpaceOnUse" color-interpolation-filters="sRGB">
<feFlood flood-opacity="0" result="BackgroundImageFix"/>
<feColorMatrix in="SourceAlpha" type="matrix" values="0 0 0 0 0 0 0 0 0 0 0 0 0 0 0 0 0 0 127 0" result="hardAlpha"/>
<feOffset/>
<feGaussianBlur stdDeviation="2.8492"/>
<feComposite in2="hardAlpha" operator="out"/>
<feColorMatrix type="matrix" values="0 0 0 0 0 0 0 0 0 0 0 0 0 0 0 0 0 0 0.15 0"/>
<feBlend mode="normal" in2="BackgroundImageFix" result="effect1_dropShadow_30215_29051"/>
<feBlend mode="normal" in="SourceGraphic" in2="effect1_dropShadow_30215_29051" result="shape"/>
</filter>
<filter id="filter29_d_30215_29051" x="522.888" y="226.319" width="45.5872" height="45.5872" filterUnits="userSpaceOnUse" color-interpolation-filters="sRGB">
<feFlood flood-opacity="0" result="BackgroundImageFix"/>
<feColorMatrix in="SourceAlpha" type="matrix" values="0 0 0 0 0 0 0 0 0 0 0 0 0 0 0 0 0 0 127 0" result="hardAlpha"/>
<feOffset/>
<feGaussianBlur stdDeviation="2.8492"/>
<feComposite in2="hardAlpha" operator="out"/>
<feColorMatrix type="matrix" values="0 0 0 0 0 0 0 0 0 0 0 0 0 0 0 0 0 0 0.15 0"/>
<feBlend mode="normal" in2="BackgroundImageFix" result="effect1_dropShadow_30215_29051"/>
<feBlend mode="normal" in="SourceGraphic" in2="effect1_dropShadow_30215_29051" result="shape"/>
</filter>
<filter id="filter30_d_30215_29051" x="522.888" y="267.632" width="45.5872" height="45.5872" filterUnits="userSpaceOnUse" color-interpolation-filters="sRGB">
<feFlood flood-opacity="0" result="BackgroundImageFix"/>
<feColorMatrix in="SourceAlpha" type="matrix" values="0 0 0 0 0 0 0 0 0 0 0 0 0 0 0 0 0 0 127 0" result="hardAlpha"/>
<feOffset/>
<feGaussianBlur stdDeviation="2.8492"/>
<feComposite in2="hardAlpha" operator="out"/>
<feColorMatrix type="matrix" values="0 0 0 0 0 0 0 0 0 0 0 0 0 0 0 0 0 0 0.15 0"/>
<feBlend mode="normal" in2="BackgroundImageFix" result="effect1_dropShadow_30215_29051"/>
<feBlend mode="normal" in="SourceGraphic" in2="effect1_dropShadow_30215_29051" result="shape"/>
</filter>
<filter id="filter31_d_30215_29051" x="522.888" y="308.945" width="45.5872" height="45.5872" filterUnits="userSpaceOnUse" color-interpolation-filters="sRGB">
<feFlood flood-opacity="0" result="BackgroundImageFix"/>
<feColorMatrix in="SourceAlpha" type="matrix" values="0 0 0 0 0 0 0 0 0 0 0 0 0 0 0 0 0 0 127 0" result="hardAlpha"/>
<feOffset/>
<feGaussianBlur stdDeviation="2.8492"/>
<feComposite in2="hardAlpha" operator="out"/>
<feColorMatrix type="matrix" values="0 0 0 0 0 0 0 0 0 0 0 0 0 0 0 0 0 0 0.15 0"/>
<feBlend mode="normal" in2="BackgroundImageFix" result="effect1_dropShadow_30215_29051"/>
<feBlend mode="normal" in="SourceGraphic" in2="effect1_dropShadow_30215_29051" result="shape"/>
</filter>
<filter id="filter32_d_30215_29051" x="522.888" y="350.259" width="45.5872" height="45.5872" filterUnits="userSpaceOnUse" color-interpolation-filters="sRGB">
<feFlood flood-opacity="0" result="BackgroundImageFix"/>
<feColorMatrix in="SourceAlpha" type="matrix" values="0 0 0 0 0 0 0 0 0 0 0 0 0 0 0 0 0 0 127 0" result="hardAlpha"/>
<feOffset/>
<feGaussianBlur stdDeviation="2.8492"/>
<feComposite in2="hardAlpha" operator="out"/>
<feColorMatrix type="matrix" values="0 0 0 0 0 0 0 0 0 0 0 0 0 0 0 0 0 0 0.15 0"/>
<feBlend mode="normal" in2="BackgroundImageFix" result="effect1_dropShadow_30215_29051"/>
<feBlend mode="normal" in="SourceGraphic" in2="effect1_dropShadow_30215_29051" result="shape"/>
</filter>
<filter id="filter33_d_30215_29051" x="262.13" y="181.33" width="258.387" height="258.387" filterUnits="userSpaceOnUse" color-interpolation-filters="sRGB">
<feFlood flood-opacity="0" result="BackgroundImageFix"/>
<feColorMatrix in="SourceAlpha" type="matrix" values="0 0 0 0 0 0 0 0 0 0 0 0 0 0 0 0 0 0 127 0" result="hardAlpha"/>
<feOffset/>
<feGaussianBlur stdDeviation="17.4586"/>
<feComposite in2="hardAlpha" operator="out"/>
<feColorMatrix type="matrix" values="0 0 0 0 0.142066 0 0 0 0 0.176699 0 0 0 0 0.204167 0 0 0 0.2 0"/>
<feBlend mode="normal" in2="BackgroundImageFix" result="effect1_dropShadow_30215_29051"/>
<feBlend mode="normal" in="SourceGraphic" in2="effect1_dropShadow_30215_29051" result="shape"/>
</filter>
<linearGradient id="paint0_linear_30215_29051" x1="391.324" y1="242.435" x2="391.324" y2="363.772" gradientUnits="userSpaceOnUse">
<stop stop-color="#011E35" stop-opacity="0"/>
<stop offset="1" stop-color="#011E35"/>
</linearGradient>
<clipPath id="clip0_30215_29051">
<rect x="0.799805" width="608" height="448" rx="6.4" fill="white"/>
</clipPath>
<clipPath id="clip1_30215_29051">
<rect width="276.8" height="83.2" fill="white" transform="translate(32.7998 32)"/>
</clipPath>
</defs>
</svg>
