<svg width="608" height="448" viewBox="0 0 608 448" fill="none" xmlns="http://www.w3.org/2000/svg">
<g clip-path="url(#clip0_30215_28395)">
<rect width="608" height="448" rx="6.4" fill="#EEF2FA"/>
<g clip-path="url(#clip1_30215_28395)">
<path d="M88.5194 63.2919V71.9999L99.0392 61.4635C98.5759 55.2 95.7661 49.3431 91.1727 45.0662C86.5794 40.7893 80.5417 38.4082 74.2693 38.3999L65.5532 38.3999V48.9979H74.2693C78.0581 48.9986 81.6915 50.506 84.3706 53.1886C87.0496 55.8712 88.555 59.5094 88.5558 63.3031" fill="#FBBC06"/>
<path d="M74.2693 94.9936H65.5559L76.0757 105.527C82.3384 105.069 88.1962 102.256 92.4732 97.6523C96.7502 93.0487 99.1297 86.9956 99.1342 80.708V72H88.5529V80.708C88.5533 82.5871 88.1839 84.4478 87.466 86.1839C86.748 87.92 85.6955 89.4974 84.3685 90.8261C83.0416 92.1548 81.4662 93.2087 79.7324 93.9276C77.9986 94.6465 76.1403 95.0164 74.2637 95.016" fill="#4B7DDE"/>
<path d="M42.598 80.708V72L32.0726 82.5392C32.5369 88.806 35.3501 94.6654 39.9481 98.9423C44.5462 103.219 50.589 105.597 56.8648 105.6H65.5558V95.002H56.8592C53.0709 95.0005 49.4383 93.4928 46.7598 90.8103C44.0814 88.1278 42.5763 84.4901 42.5756 80.6968" fill="#86E0F5"/>
<path d="M56.8594 48.9223H65.556L55.0306 38.3999C48.7724 38.8648 42.9211 41.6813 38.6499 46.2848C34.3787 50.8883 32.0033 56.9383 32 63.2219V71.9299H42.5841V63.2135C42.5841 59.4193 44.0892 55.7804 46.7683 53.0972C49.4475 50.414 53.0813 48.9062 56.8706 48.9055" fill="#E62F34"/>
<path d="M144.535 88.562H171.52V98.2724H133.714V47.8164H170.782V57.5632H144.533V67.66H165.019V77.3732H144.533L144.535 88.562ZM215.761 98.2724H181.57V47.8164H192.392V88.562H215.761V98.2724ZM251.009 69.8076L268.435 47.8164H277.993V98.2724H267.205V64.636L251.006 85.2888L234.843 64.776V98.2724H224.021V47.8164H233.752L251.009 69.8076ZM316.857 77.0204L310.741 60.4472L304.592 77.0232L316.857 77.0204ZM320.441 86.3808H301.007L296.687 98.2724H285.16L304.981 47.8164H316.471L336.288 98.2724H324.762L320.441 86.3808Z" fill="#062543"/>
</g>
<path d="M521.304 17.6367V-16.2842L480.283 24.77C482.092 49.1816 493.057 72.0061 510.977 88.6663C528.897 105.326 552.448 114.59 576.907 114.6H610.778V73.3172H576.885C562.121 73.3115 547.963 67.4383 537.524 56.989C527.085 46.5396 521.22 32.3693 521.217 17.5931" fill="white"/>
<path d="M313.989 430.36H358.343L304.661 376.72C272.743 379.09 242.9 393.448 221.116 416.915C199.332 440.382 187.217 471.223 187.2 503.254V547.645H241.181V503.212C241.181 483.87 248.858 465.32 262.522 451.642C276.186 437.964 294.72 430.278 314.046 430.274" fill="white"/>
<g opacity="0.6">
<rect x="396.8" y="132" width="181.379" height="70.2844" rx="12.7283" fill="white"/>
<path d="M596.741 200.694C596.741 200.694 578.179 190.087 578.179 174.176L571.815 198.042C571.815 198.042 585.073 205.467 596.741 200.694Z" fill="white"/>
</g>
<g opacity="0.6">
<rect x="435.2" y="357.6" width="133.647" height="67.8844" rx="12.7283" fill="white"/>
<path d="M587.41 423.893C587.41 423.893 568.848 413.286 568.848 397.376L562.483 421.242C562.483 421.242 575.742 428.666 587.41 423.893Z" fill="white"/>
</g>
<g opacity="0.6">
<rect width="187.743" height="99.6873" rx="12.7283" transform="matrix(-1 0 0 1 474.4 188.8)" fill="white"/>
<path d="M268.095 286.896C268.095 286.896 286.657 276.289 286.657 260.379L293.021 284.245C293.021 284.245 279.763 291.669 268.095 286.896Z" fill="white"/>
</g>
<rect x="311.2" y="168" width="235.474" height="96.8734" rx="12.7283" fill="#D3DCEE"/>
<path d="M565.236 263.282C565.236 263.282 546.674 252.676 546.674 236.765L540.31 260.631C540.31 260.631 553.569 268.056 565.236 263.282Z" fill="#D3DCEE"/>
<rect x="346.4" y="187.2" width="107.2" height="17.6" rx="8.8" fill="#EEF2FA"/>
<rect x="346.4" y="216.8" width="66.4" height="3.2" rx="1.6" fill="#A7B2C8"/>
<rect x="346.4" y="242.4" width="86.4" height="3.2" rx="1.6" fill="#A7B2C8"/>
<rect x="346.4" y="225.6" width="132.8" height="3.2" rx="1.6" fill="#A7B2C8"/>
<rect x="346.4" y="233.6" width="163.2" height="3.2" rx="1.6" fill="#A7B2C8"/>
<rect width="236.274" height="96.8734" rx="12.7283" transform="matrix(-1 0 0 1 544.8 299.2)" fill="#FFC0C2"/>
<path d="M289.964 394.483C289.964 394.483 308.526 383.876 308.526 367.965L314.89 391.831C314.89 391.831 301.631 399.256 289.964 394.483Z" fill="#FFC0C2"/>
<rect x="346.4" y="319.2" width="80" height="16.8" rx="8.4" fill="#FFE3E4"/>
<rect x="346.4" y="348.8" width="121.6" height="3.2" rx="1.6" fill="#EAA1A3"/>
<rect x="346.4" y="366.4" width="100.8" height="3.2" rx="1.6" fill="#EAA1A3"/>
<rect x="346.4" y="375.2" width="144.8" height="3.2" rx="1.6" fill="#EAA1A3"/>
<rect x="346.4" y="357.6" width="76.8" height="3.2" rx="1.6" fill="#EAA1A3"/>
<g filter="url(#filter0_d_30215_28395)">
<ellipse cx="312.783" cy="178.381" rx="44.0188" ry="44.0095" fill="#F3F7FF"/>
<ellipse cx="312.783" cy="178.381" rx="44.0188" ry="44.0095" fill="url(#paint0_linear_30215_28395)" fill-opacity="0.2"/>
<mask id="mask0_30215_28395" style="mask-type:alpha" maskUnits="userSpaceOnUse" x="268" y="134" width="89" height="89">
<ellipse cx="312.783" cy="178.381" rx="44.0188" ry="44.0095" fill="white"/>
</mask>
<g mask="url(#mask0_30215_28395)">
<path d="M296.174 195.207C303.87 192.405 306.33 190.039 306.33 184.973C306.33 181.933 303.809 179.962 302.949 177.357C302.089 174.751 301.592 171.667 301.179 169.423C300.766 167.179 300.601 166.311 300.377 163.92C300.102 160.936 302.1 153.233 312.783 153.233C323.463 153.233 325.467 160.936 325.186 163.92C324.962 166.311 324.796 167.179 324.384 169.423C323.972 171.667 323.479 174.751 322.62 177.357C321.761 179.963 319.236 181.933 319.236 184.973C319.236 190.039 321.696 192.404 329.392 195.207C337.115 198.016 342.129 200.787 342.129 202.744V232.869H283.437V202.744C283.437 200.79 288.454 198.02 296.174 195.207Z" fill="#A7B2C8"/>
</g>
</g>
<ellipse cx="49.8526" cy="49.8421" rx="49.8526" ry="49.8421" transform="matrix(-1 0 0 1 586.972 253.789)" fill="#E62F34"/>
<ellipse cx="49.8526" cy="49.8421" rx="49.8526" ry="49.8421" transform="matrix(-1 0 0 1 586.972 253.789)" fill="url(#paint1_linear_30215_28395)" fill-opacity="0.4"/>
<g clip-path="url(#clip2_30215_28395)">
<rect x="509.6" y="272.8" width="57.6" height="38.4" rx="16.0357" fill="#FBBC06"/>
<rect x="519.2" y="282.4" width="38.4" height="19.2" rx="9.6" fill="white"/>
<circle cx="529.695" cy="292.028" r="2.12139" fill="#E62F34"/>
<circle cx="538.181" cy="292.028" r="2.12139" fill="#E62F34"/>
<circle cx="546.666" cy="292.028" r="2.12139" fill="#E62F34"/>
<path d="M512.193 282.482C509.521 282.482 506.958 283.487 505.068 285.278C503.179 287.068 502.117 289.496 502.117 292.028C502.117 294.56 503.179 296.988 505.068 298.778C506.958 300.568 509.521 301.574 512.193 301.574L512.193 292.028L512.193 282.482Z" fill="#FBBC06"/>
<path d="M564.168 282.482C566.84 282.482 569.403 283.487 571.293 285.278C573.183 287.068 574.244 289.496 574.244 292.028C574.244 294.56 573.183 296.988 571.293 298.778C569.403 300.568 566.84 301.574 564.168 301.574L564.168 292.028L564.168 282.482Z" fill="#FBBC06"/>
<rect x="568" y="253.6" width="3.2" height="34.4" fill="#FBBC06"/>
<circle cx="569.471" cy="254.373" r="4.77312" fill="#CD1B20"/>
<path d="M532 317.6C532 314.066 534.865 311.2 538.4 311.2H540C543.535 311.2 546.4 314.066 546.4 317.6V317.6H532V317.6Z" fill="#FBBC06"/>
<mask id="mask1_30215_28395" style="mask-type:alpha" maskUnits="userSpaceOnUse" x="487" y="253" width="100" height="101">
<circle cx="49.8526" cy="49.8526" r="49.8526" transform="matrix(-1 0 0 1 586.972 253.843)" fill="#4C7EDE"/>
<circle cx="49.8526" cy="49.8526" r="49.8526" transform="matrix(-1 0 0 1 586.972 253.843)" fill="url(#paint2_linear_30215_28395)" fill-opacity="0.4"/>
</mask>
<g mask="url(#mask1_30215_28395)">
<path d="M520 324.822C520 319.508 524.308 315.2 529.622 315.2H548.779C554.092 315.2 558.4 319.508 558.4 324.822V356H520V324.822Z" fill="#FBBC06"/>
</g>
<path d="M503.612 314.988C505.054 318.799 510.843 326.298 522.462 325.804" stroke="#FFE59A" stroke-width="4.24278" stroke-linecap="round"/>
<circle cx="502.117" cy="312.181" r="5.30347" fill="#FBBC06"/>
</g>
</g>
<defs>
<filter id="filter0_d_30215_28395" x="226.336" y="91.9438" width="172.893" height="172.875" filterUnits="userSpaceOnUse" color-interpolation-filters="sRGB">
<feFlood flood-opacity="0" result="BackgroundImageFix"/>
<feColorMatrix in="SourceAlpha" type="matrix" values="0 0 0 0 0 0 0 0 0 0 0 0 0 0 0 0 0 0 127 0" result="hardAlpha"/>
<feOffset/>
<feGaussianBlur stdDeviation="21.2139"/>
<feComposite in2="hardAlpha" operator="out"/>
<feColorMatrix type="matrix" values="0 0 0 0 0.729444 0 0 0 0 0.775185 0 0 0 0 0.866667 0 0 0 1 0"/>
<feBlend mode="normal" in2="BackgroundImageFix" result="effect1_dropShadow_30215_28395"/>
<feBlend mode="normal" in="SourceGraphic" in2="effect1_dropShadow_30215_28395" result="shape"/>
</filter>
<linearGradient id="paint0_linear_30215_28395" x1="312.783" y1="102.685" x2="312.783" y2="192.464" gradientUnits="userSpaceOnUse">
<stop stop-color="white"/>
<stop offset="1" stop-color="white" stop-opacity="0"/>
</linearGradient>
<linearGradient id="paint1_linear_30215_28395" x1="49.8526" y1="0" x2="49.8526" y2="99.6842" gradientUnits="userSpaceOnUse">
<stop stop-color="#FBBC06"/>
<stop offset="1" stop-color="#FBBC06" stop-opacity="0"/>
</linearGradient>
<linearGradient id="paint2_linear_30215_28395" x1="49.8526" y1="0" x2="49.8526" y2="99.7052" gradientUnits="userSpaceOnUse">
<stop stop-color="#86E0F5"/>
<stop offset="1" stop-color="#86E0F5" stop-opacity="0"/>
</linearGradient>
<clipPath id="clip0_30215_28395">
<rect width="608" height="448" rx="6.4" fill="white"/>
</clipPath>
<clipPath id="clip1_30215_28395">
<rect width="304.8" height="67.2" fill="white" transform="translate(32 38.3999)"/>
</clipPath>
<clipPath id="clip2_30215_28395">
<rect width="77.4307" height="106.069" fill="white" transform="translate(496.813 249.6)"/>
</clipPath>
</defs>
</svg>
