<svg width="588" height="588" viewBox="0 0 588 588" fill="none" xmlns="http://www.w3.org/2000/svg">
<g clip-path="url(#clip0_30215_26827)">
<path d="M205.683 432.437C148.755 493.296 175.173 579.569 256.418 598.117C313.347 537.258 286.928 450.985 205.683 432.437Z" fill="black" fill-opacity="0.1"/>
<path d="M154.071 336.041C61.7029 434.786 104.567 574.766 236.389 604.861C328.758 506.115 285.893 366.135 154.071 336.041Z" fill="black" fill-opacity="0.1"/>
<path d="M558.071 367.901C549.078 536.378 386.072 618.826 245.031 526.235C254.025 357.757 417.031 275.31 558.071 367.901Z" fill="black" fill-opacity="0.1"/>
<path d="M608.681 433.716C619.857 566.482 501.255 648.598 380.915 591.413C369.739 458.647 488.341 376.53 608.681 433.716Z" fill="black" fill-opacity="0.1"/>
<g filter="url(#filter0_d_30215_26827)">
<path d="M227.002 333.108C227.002 326.477 232.379 321.1 239.01 321.1H415.127C421.759 321.1 427.135 326.477 427.135 333.108V570.266H227.002V333.108Z" fill="#2F2F2F"/>
</g>
<path d="M227.002 348.119H427.135V570.266H227.002V348.119Z" fill="black"/>
<path d="M441.145 368.132H274.034C260.771 368.132 250.018 378.884 250.018 392.148V570.266H421.132V400.514C421.132 386.801 428.88 374.264 441.145 368.132V368.132Z" fill="#323232"/>
<g filter="url(#filter1_d_30215_26827)">
<path d="M274.034 368.132H441.145C454.409 368.132 465.161 378.884 465.161 392.148V546.25C465.161 552.882 459.785 558.258 453.153 558.258H306.055C299.424 558.258 294.047 552.882 294.047 546.25V400.514C294.047 386.801 286.3 374.264 274.034 368.132V368.132Z" fill="white"/>
</g>
<path fill-rule="evenodd" clip-rule="evenodd" d="M378.881 395.15H385.107H391.334C391.334 397.733 392.337 400.215 394.132 402.073L394.252 402.197C397.373 405.426 399.117 409.741 399.117 414.232V473.201C399.117 475.412 397.325 477.204 395.114 477.204H385.107H375.101C372.89 477.204 371.098 475.412 371.098 473.201V414.232C371.098 409.741 372.842 405.426 375.962 402.197L376.083 402.073C377.878 400.215 378.881 397.733 378.881 395.15Z" fill="#83CFC9"/>
<path fill-rule="evenodd" clip-rule="evenodd" d="M385.107 395.15H378.881C378.881 397.733 377.878 400.215 376.083 402.073L375.962 402.197C372.842 405.426 371.098 409.741 371.098 414.232V414.812C374.704 414.584 378.787 415.026 383.106 416.664C389.209 418.979 394.75 419.182 399.117 418.54V414.232C399.117 409.741 397.373 405.426 394.252 402.197L394.132 402.073C392.337 400.215 391.334 397.733 391.334 395.15H385.107Z" fill="#B8F7F2"/>
<path d="M378.103 390.146C378.103 389.041 378.999 388.145 380.104 388.145H390.111C391.216 388.145 392.112 389.041 392.112 390.146V395.15H378.103V390.146Z" fill="#39B4AA"/>
<path d="M343.624 413.482C344.503 406.994 350.042 402.154 356.589 402.154V402.154C363.136 402.154 368.674 406.994 369.553 413.482L372.667 436.487C372.954 438.605 372.954 440.753 372.667 442.871L369.553 465.877C368.674 472.364 363.136 477.204 356.589 477.204V477.204C350.042 477.204 344.503 472.364 343.624 465.877L340.51 442.871C340.223 440.753 340.223 438.605 340.51 436.487L343.624 413.482Z" fill="#F9C664"/>
<ellipse cx="356.589" cy="414.162" rx="6.50431" ry="3.00199" fill="#D9A43F"/>
<ellipse cx="356.589" cy="423.168" rx="9.5063" ry="3.00199" fill="#D9A43F"/>
<ellipse cx="356.589" cy="432.174" rx="9.5063" ry="3.00199" fill="#D9A43F"/>
<ellipse cx="356.589" cy="441.18" rx="9.5063" ry="3.00199" fill="#D9A43F"/>
<ellipse cx="356.589" cy="450.186" rx="9.5063" ry="3.00199" fill="#D9A43F"/>
<ellipse cx="356.589" cy="459.192" rx="9.5063" ry="3.00199" fill="#D9A43F"/>
<circle cx="424.634" cy="461.694" r="18.5123" fill="#A8D56C"/>
<path fill-rule="evenodd" clip-rule="evenodd" d="M432.001 478.682C429.743 479.663 427.252 480.206 424.634 480.206C414.41 480.206 406.122 471.918 406.122 461.694C406.122 459.835 406.396 458.039 406.906 456.347C423.781 458.136 429.854 470.9 432.001 478.682Z" fill="#71A230"/>
<path d="M429.137 479.706C429.137 479.706 405.621 454.689 436.642 438.178C436.642 451.687 443.146 449.686 443.146 463.195C443.146 471.7 436.642 477.704 429.137 479.706Z" fill="#C5FB7D"/>
<rect x="317.062" y="433.175" width="107.071" height="7.00465" rx="3.50232" fill="#DF010C"/>
<path fill-rule="evenodd" clip-rule="evenodd" d="M322.066 440.179H419.13L411.745 478.954C411.385 480.841 409.735 482.207 407.813 482.207H333.383C331.462 482.207 329.811 480.841 329.451 478.954L322.066 440.179ZM363.093 445.182C363.093 444.077 363.989 443.181 365.095 443.181C366.2 443.181 367.096 444.077 367.096 445.182V455.189C367.096 456.294 366.2 457.19 365.095 457.19C363.989 457.19 363.093 456.294 363.093 455.189V445.182ZM345.081 443.181C343.976 443.181 343.08 444.077 343.08 445.182V455.189C343.08 456.294 343.976 457.19 345.081 457.19C346.187 457.19 347.083 456.294 347.083 455.189V445.182C347.083 444.077 346.187 443.181 345.081 443.181ZM383.106 445.182C383.106 444.077 384.002 443.181 385.108 443.181C386.213 443.181 387.109 444.077 387.109 445.182V455.189C387.109 456.294 386.213 457.19 385.108 457.19C384.002 457.19 383.106 456.294 383.106 455.189V445.182ZM355.088 443.181C353.983 443.181 353.087 444.077 353.087 445.182V455.189C353.087 456.294 353.983 457.19 355.088 457.19C356.193 457.19 357.089 456.294 357.089 455.189V445.182C357.089 444.077 356.193 443.181 355.088 443.181ZM373.1 445.182C373.1 444.077 373.996 443.181 375.101 443.181C376.207 443.181 377.103 444.077 377.103 445.182V455.189C377.103 456.294 376.207 457.19 375.101 457.19C373.996 457.19 373.1 456.294 373.1 455.189V445.182ZM395.114 443.181C394.009 443.181 393.113 444.077 393.113 445.182V455.189C393.113 456.294 394.009 457.19 395.114 457.19C396.22 457.19 397.116 456.294 397.116 455.189V445.182C397.116 444.077 396.22 443.181 395.114 443.181ZM363.093 465.196C363.093 464.091 363.989 463.195 365.095 463.195C366.2 463.195 367.096 464.091 367.096 465.196V475.203C367.096 476.308 366.2 477.204 365.095 477.204C363.989 477.204 363.093 476.308 363.093 475.203V465.196ZM345.081 463.195C343.976 463.195 343.08 464.091 343.08 465.196V475.203C343.08 476.308 343.976 477.204 345.081 477.204C346.187 477.204 347.083 476.308 347.083 475.203V465.196C347.083 464.091 346.187 463.195 345.081 463.195ZM383.106 465.196C383.106 464.091 384.002 463.195 385.108 463.195C386.213 463.195 387.109 464.091 387.109 465.196V475.203C387.109 476.308 386.213 477.204 385.108 477.204C384.002 477.204 383.106 476.308 383.106 475.203V465.196ZM355.088 463.195C353.983 463.195 353.087 464.091 353.087 465.196V475.203C353.087 476.308 353.983 477.204 355.088 477.204C356.193 477.204 357.089 476.308 357.089 475.203V465.196C357.089 464.091 356.193 463.195 355.088 463.195ZM373.1 465.196C373.1 464.091 373.996 463.195 375.101 463.195C376.207 463.195 377.103 464.091 377.103 465.196V475.203C377.103 476.308 376.207 477.204 375.101 477.204C373.996 477.204 373.1 476.308 373.1 475.203V465.196ZM395.114 463.195C394.009 463.195 393.113 464.091 393.113 465.196V475.203C393.113 476.308 394.009 477.204 395.114 477.204C396.22 477.204 397.116 476.308 397.116 475.203V465.196C397.116 464.091 396.22 463.195 395.114 463.195Z" fill="#DF010C"/>
<path fill-rule="evenodd" clip-rule="evenodd" d="M322.066 440.179H419.13L411.745 478.954C411.385 480.841 409.735 482.207 407.813 482.207H333.383C331.462 482.207 329.811 480.841 329.451 478.954L322.066 440.179ZM363.093 445.182C363.093 444.077 363.989 443.181 365.095 443.181C366.2 443.181 367.096 444.077 367.096 445.182V455.189C367.096 456.294 366.2 457.19 365.095 457.19C363.989 457.19 363.093 456.294 363.093 455.189V445.182ZM345.081 443.181C343.976 443.181 343.08 444.077 343.08 445.182V455.189C343.08 456.294 343.976 457.19 345.081 457.19C346.187 457.19 347.083 456.294 347.083 455.189V445.182C347.083 444.077 346.187 443.181 345.081 443.181ZM383.106 445.182C383.106 444.077 384.002 443.181 385.108 443.181C386.213 443.181 387.109 444.077 387.109 445.182V455.189C387.109 456.294 386.213 457.19 385.108 457.19C384.002 457.19 383.106 456.294 383.106 455.189V445.182ZM355.088 443.181C353.983 443.181 353.087 444.077 353.087 445.182V455.189C353.087 456.294 353.983 457.19 355.088 457.19C356.193 457.19 357.089 456.294 357.089 455.189V445.182C357.089 444.077 356.193 443.181 355.088 443.181ZM373.1 445.182C373.1 444.077 373.996 443.181 375.101 443.181C376.207 443.181 377.103 444.077 377.103 445.182V455.189C377.103 456.294 376.207 457.19 375.101 457.19C373.996 457.19 373.1 456.294 373.1 455.189V445.182ZM395.114 443.181C394.009 443.181 393.113 444.077 393.113 445.182V455.189C393.113 456.294 394.009 457.19 395.114 457.19C396.22 457.19 397.116 456.294 397.116 455.189V445.182C397.116 444.077 396.22 443.181 395.114 443.181ZM363.093 465.196C363.093 464.091 363.989 463.195 365.095 463.195C366.2 463.195 367.096 464.091 367.096 465.196V475.203C367.096 476.308 366.2 477.204 365.095 477.204C363.989 477.204 363.093 476.308 363.093 475.203V465.196ZM345.081 463.195C343.976 463.195 343.08 464.091 343.08 465.196V475.203C343.08 476.308 343.976 477.204 345.081 477.204C346.187 477.204 347.083 476.308 347.083 475.203V465.196C347.083 464.091 346.187 463.195 345.081 463.195ZM383.106 465.196C383.106 464.091 384.002 463.195 385.108 463.195C386.213 463.195 387.109 464.091 387.109 465.196V475.203C387.109 476.308 386.213 477.204 385.108 477.204C384.002 477.204 383.106 476.308 383.106 475.203V465.196ZM355.088 463.195C353.983 463.195 353.087 464.091 353.087 465.196V475.203C353.087 476.308 353.983 477.204 355.088 477.204C356.193 477.204 357.089 476.308 357.089 475.203V465.196C357.089 464.091 356.193 463.195 355.088 463.195ZM373.1 465.196C373.1 464.091 373.996 463.195 375.101 463.195C376.207 463.195 377.103 464.091 377.103 465.196V475.203C377.103 476.308 376.207 477.204 375.101 477.204C373.996 477.204 373.1 476.308 373.1 475.203V465.196ZM395.114 463.195C394.009 463.195 393.113 464.091 393.113 465.196V475.203C393.113 476.308 394.009 477.204 395.114 477.204C396.22 477.204 397.116 476.308 397.116 475.203V465.196C397.116 464.091 396.22 463.195 395.114 463.195Z" fill="url(#paint0_linear_30215_26827)" fill-opacity="0.2"/>
<rect x="370.519" y="430.173" width="64.3536" height="5.71377" rx="2.00133" transform="rotate(36.8065 370.519 430.173)" fill="#282828"/>
<circle cx="371.098" cy="434.175" r="1.00066" fill="#757575"/>
<path fill-rule="evenodd" clip-rule="evenodd" d="M353.086 464.195H331.072V467.197C332.177 467.197 333.073 468.093 333.073 469.199C333.073 470.304 332.177 471.2 331.072 471.2V472.372C332.238 472.784 333.073 473.896 333.073 475.203C333.073 476.51 332.238 477.622 331.072 478.034V482.293C331.655 482.499 332.072 483.055 332.072 483.708C332.072 484.362 331.655 484.918 331.072 485.124V490.213H353.086C360.271 490.213 366.095 484.389 366.095 477.204C366.095 470.02 360.271 464.195 353.086 464.195Z" fill="#E4B840"/>
<path fill-rule="evenodd" clip-rule="evenodd" d="M353.086 465.196H331.072V467.197C332.177 467.197 333.073 468.093 333.073 469.199C333.073 470.304 332.177 471.2 331.072 471.2V472.371C332.238 472.784 333.073 473.896 333.073 475.203C333.073 476.51 332.238 477.622 331.072 478.034V482.293C331.655 482.499 332.072 483.055 332.072 483.708C332.072 484.362 331.655 484.918 331.072 485.124V489.212H353.086C359.718 489.212 365.094 483.836 365.094 477.204C365.094 470.572 359.718 465.196 353.086 465.196Z" fill="#F9E467"/>
<circle cx="339.077" cy="471.2" r="1.00066" fill="#E4B840"/>
<circle cx="355.088" cy="484.209" r="1.00066" fill="#E4B840"/>
<circle cx="347.583" cy="471.7" r="1.501" fill="#E4B840"/>
<circle cx="353.587" cy="477.704" r="1.501" fill="#E4B840"/>
<circle cx="347.583" cy="482.708" r="1.501" fill="#E4B840"/>
<circle cx="341.078" cy="478.205" r="2.00133" fill="#E4B840"/>
<circle cx="359.09" cy="473.201" r="2.00133" fill="#E4B840"/>
</g>
<defs>
<filter id="filter0_d_30215_26827" x="206.989" y="311.094" width="240.159" height="289.192" filterUnits="userSpaceOnUse" color-interpolation-filters="sRGB">
<feFlood flood-opacity="0" result="BackgroundImageFix"/>
<feColorMatrix in="SourceAlpha" type="matrix" values="0 0 0 0 0 0 0 0 0 0 0 0 0 0 0 0 0 0 127 0" result="hardAlpha"/>
<feOffset dy="10.0066"/>
<feGaussianBlur stdDeviation="10.0066"/>
<feComposite in2="hardAlpha" operator="out"/>
<feColorMatrix type="matrix" values="0 0 0 0 0.803922 0 0 0 0 0.0352941 0 0 0 0 0.0352941 0 0 0 1 0"/>
<feBlend mode="normal" in2="BackgroundImageFix" result="effect1_dropShadow_30215_26827"/>
<feBlend mode="normal" in="SourceGraphic" in2="effect1_dropShadow_30215_26827" result="shape"/>
</filter>
<filter id="filter1_d_30215_26827" x="234.008" y="338.112" width="271.18" height="270.179" filterUnits="userSpaceOnUse" color-interpolation-filters="sRGB">
<feFlood flood-opacity="0" result="BackgroundImageFix"/>
<feColorMatrix in="SourceAlpha" type="matrix" values="0 0 0 0 0 0 0 0 0 0 0 0 0 0 0 0 0 0 127 0" result="hardAlpha"/>
<feOffset dy="10.0066"/>
<feGaussianBlur stdDeviation="20.0133"/>
<feComposite in2="hardAlpha" operator="out"/>
<feColorMatrix type="matrix" values="0 0 0 0 0 0 0 0 0 0 0 0 0 0 0 0 0 0 0.5 0"/>
<feBlend mode="normal" in2="BackgroundImageFix" result="effect1_dropShadow_30215_26827"/>
<feBlend mode="normal" in="SourceGraphic" in2="effect1_dropShadow_30215_26827" result="shape"/>
</filter>
<linearGradient id="paint0_linear_30215_26827" x1="370.598" y1="440.179" x2="370.598" y2="448.185" gradientUnits="userSpaceOnUse">
<stop/>
<stop offset="1" stop-opacity="0"/>
</linearGradient>
<clipPath id="clip0_30215_26827">
<rect width="588" height="588" fill="white"/>
</clipPath>
</defs>
</svg>
