<svg width="608" height="448" viewBox="0 0 608 448" fill="none" xmlns="http://www.w3.org/2000/svg">
<g clip-path="url(#clip0_30215_27549)">
<rect width="608" height="448" rx="6.4" fill="#1E2229"/>
<path d="M149.051 108.054V93.4923H153.796C155.37 93.4923 156.553 93.8191 157.344 94.4726C158.141 95.1261 158.54 96.0929 158.54 97.373C158.54 98.0529 158.347 98.6565 157.962 99.183C157.577 99.703 157.052 100.106 156.387 100.393C157.171 100.613 157.789 101.033 158.241 101.654C158.7 102.267 158.929 103 158.929 103.854C158.929 105.161 158.507 106.187 157.663 106.934C156.819 107.68 155.627 108.054 154.085 108.054H149.051ZM150.965 101.243V106.484H154.125C155.015 106.484 155.716 106.254 156.228 105.794C156.746 105.327 157.005 104.687 157.005 103.874C157.005 102.12 156.055 101.243 154.155 101.243H150.965ZM150.965 99.703H153.855C154.693 99.703 155.36 99.4928 155.859 99.0729C156.364 98.6531 156.616 98.0827 156.616 97.363C156.616 96.5626 156.384 95.9828 155.919 95.6227C155.454 95.2561 154.746 95.0728 153.796 95.0728H150.965V99.703ZM166.693 98.8931C166.414 98.8463 166.112 98.8229 165.786 98.8229C164.577 98.8229 163.756 99.3399 163.325 100.373V108.054H161.481V97.233H163.274L163.304 98.4827C163.909 97.5164 164.766 97.0328 165.876 97.0328C166.235 97.0328 166.507 97.0796 166.693 97.1727V98.8931ZM170.401 108.054H168.557V97.233H170.401V108.054ZM168.408 94.3625C168.408 94.0626 168.498 93.8091 168.677 93.6024C168.863 93.3957 169.135 93.2921 169.494 93.2921C169.853 93.2921 170.125 93.3957 170.311 93.6024C170.498 93.8091 170.59 94.0626 170.59 94.3625C170.59 94.6623 170.498 94.9124 170.311 95.1126C170.125 95.3123 169.853 95.4125 169.494 95.4125C169.135 95.4125 168.863 95.3123 168.677 95.1126C168.498 94.9124 168.408 94.6623 168.408 94.3625ZM175.106 97.233L175.165 98.5928C175.989 97.5528 177.066 97.0328 178.395 97.0328C180.674 97.0328 181.823 98.3228 181.843 100.903V108.054H180V100.893C179.993 100.113 179.813 99.5362 179.461 99.1631C179.115 98.7895 178.574 98.6028 177.837 98.6028C177.239 98.6028 176.713 98.7631 176.262 99.0829C175.81 99.4032 175.458 99.8231 175.205 100.343V108.054H173.361V97.233H175.106ZM184.186 102.554C184.186 100.867 184.574 99.5262 185.352 98.533C186.129 97.5328 187.159 97.0328 188.442 97.0328C189.757 97.0328 190.784 97.4995 191.521 98.4329L191.611 97.233H193.295V107.794C193.295 109.194 192.88 110.298 192.05 111.104C191.226 111.911 190.116 112.315 188.721 112.315C187.943 112.315 187.182 112.148 186.438 111.815C185.694 111.481 185.126 111.025 184.734 110.444L185.691 109.334C186.481 110.314 187.448 110.805 188.591 110.805C189.488 110.805 190.186 110.551 190.684 110.044C191.189 109.538 191.441 108.824 191.441 107.904V106.974C190.704 107.827 189.698 108.254 188.421 108.254C187.159 108.254 186.136 107.744 185.352 106.724C184.574 105.704 184.186 104.314 184.186 102.554ZM186.04 102.763C186.04 103.984 186.289 104.944 186.787 105.644C187.285 106.337 187.983 106.684 188.88 106.684C190.043 106.684 190.897 106.154 191.441 105.094V100.153C190.877 99.1198 190.03 98.6028 188.9 98.6028C188.003 98.6028 187.302 98.9529 186.797 99.6532C186.292 100.353 186.04 101.39 186.04 102.763ZM198.09 108.054H196.246V97.233H198.09V108.054ZM196.096 94.3625C196.096 94.0626 196.186 93.8091 196.365 93.6024C196.551 93.3957 196.824 93.2921 197.183 93.2921C197.542 93.2921 197.814 93.3957 198 93.6024C198.186 93.8091 198.279 94.0626 198.279 94.3625C198.279 94.6623 198.186 94.9124 198 95.1126C197.814 95.3123 197.542 95.4125 197.183 95.4125C196.824 95.4125 196.551 95.3123 196.365 95.1126C196.186 94.9124 196.096 94.6623 196.096 94.3625ZM202.794 97.233L202.854 98.5928C203.678 97.5528 204.754 97.0328 206.083 97.0328C208.363 97.0328 209.512 98.3228 209.532 100.903V108.054H207.688V100.893C207.682 100.113 207.502 99.5362 207.15 99.1631C206.804 98.7895 206.263 98.6028 205.525 98.6028C204.927 98.6028 204.402 98.7631 203.951 99.0829C203.498 99.4032 203.146 99.8231 202.894 100.343V108.054H201.05V97.233H202.794ZM211.874 102.554C211.874 100.867 212.263 99.5262 213.041 98.533C213.818 97.5328 214.848 97.0328 216.13 97.0328C217.446 97.0328 218.473 97.4995 219.21 98.4329L219.3 97.233H220.984V107.794C220.984 109.194 220.569 110.298 219.738 111.104C218.914 111.911 217.805 112.315 216.409 112.315C215.632 112.315 214.871 112.148 214.127 111.815C213.383 111.481 212.815 111.025 212.423 110.444L213.379 109.334C214.17 110.314 215.137 110.805 216.28 110.805C217.177 110.805 217.875 110.551 218.373 110.044C218.878 109.538 219.13 108.824 219.13 107.904V106.974C218.393 107.827 217.386 108.254 216.11 108.254C214.848 108.254 213.824 107.744 213.041 106.724C212.263 105.704 211.874 104.314 211.874 102.554ZM213.728 102.763C213.728 103.984 213.977 104.944 214.476 105.644C214.974 106.337 215.672 106.684 216.569 106.684C217.732 106.684 218.585 106.154 219.13 105.094V100.153C218.565 99.1198 217.718 98.6028 216.589 98.6028C215.692 98.6028 214.99 98.9529 214.486 99.6532C213.981 100.353 213.728 101.39 213.728 102.763ZM231.34 94.6125V97.233H233.354V98.663H231.34V105.374C231.34 105.807 231.43 106.134 231.609 106.354C231.788 106.567 232.094 106.674 232.526 106.674C232.739 106.674 233.031 106.634 233.403 106.554V108.054C232.918 108.188 232.446 108.254 231.988 108.254C231.164 108.254 230.543 108.004 230.124 107.504C229.706 107.004 229.496 106.294 229.496 105.374V98.663H227.533V97.233H229.496V94.6125H231.34ZM234.828 102.544C234.828 101.483 235.034 100.53 235.446 99.6831C235.865 98.8364 236.443 98.1829 237.181 97.7226C237.925 97.2629 238.772 97.0328 239.722 97.0328C241.191 97.0328 242.377 97.5428 243.281 98.5629C244.191 99.583 244.646 100.94 244.646 102.633V102.763C244.646 103.817 244.444 104.764 244.038 105.604C243.639 106.437 243.065 107.087 242.314 107.554C241.569 108.021 240.713 108.254 239.742 108.254C238.28 108.254 237.094 107.744 236.184 106.724C235.281 105.704 234.828 104.354 234.828 102.674V102.544ZM236.682 102.763C236.682 103.964 236.958 104.927 237.51 105.654C238.068 106.38 238.812 106.744 239.742 106.744C240.679 106.744 241.424 106.377 241.975 105.644C242.527 104.904 242.802 103.87 242.802 102.544C242.802 101.357 242.52 100.396 241.955 99.6632C241.397 98.923 240.653 98.5529 239.722 98.5529C238.812 98.5529 238.078 98.9165 237.52 99.6433C236.961 100.37 236.682 101.41 236.682 102.763ZM246.52 102.554C246.52 100.867 246.909 99.5262 247.686 98.533C248.463 97.5328 249.493 97.0328 250.776 97.0328C252.092 97.0328 253.118 97.4995 253.856 98.4329L253.946 97.233H255.63V107.794C255.63 109.194 255.215 110.298 254.384 111.104C253.56 111.911 252.45 112.315 251.055 112.315C250.278 112.315 249.517 112.148 248.773 111.815C248.029 111.481 247.46 111.025 247.068 110.444L248.025 109.334C248.816 110.314 249.783 110.805 250.926 110.805C251.823 110.805 252.52 110.551 253.019 110.044C253.524 109.538 253.776 108.824 253.776 107.904V106.974C253.039 107.827 252.032 108.254 250.756 108.254C249.493 108.254 248.47 107.744 247.686 106.724C246.909 105.704 246.52 104.314 246.52 102.554ZM248.374 102.763C248.374 103.984 248.623 104.944 249.122 105.644C249.62 106.337 250.317 106.684 251.214 106.684C252.377 106.684 253.231 106.154 253.776 105.094V100.153C253.211 99.1198 252.364 98.6028 251.234 98.6028C250.337 98.6028 249.636 98.9529 249.132 99.6532C248.626 100.353 248.374 101.39 248.374 102.763ZM262.896 108.254C261.434 108.254 260.245 107.774 259.328 106.814C258.411 105.847 257.952 104.557 257.952 102.944V102.603C257.952 101.53 258.155 100.573 258.56 99.7329C258.972 98.8862 259.544 98.2262 260.275 97.753C261.012 97.2728 261.809 97.0328 262.667 97.0328C264.069 97.0328 265.159 97.496 265.936 98.4229C266.713 99.3499 267.102 100.676 267.102 102.403V103.174H259.796C259.823 104.24 260.132 105.104 260.723 105.764C261.321 106.417 262.079 106.744 262.996 106.744C263.647 106.744 264.199 106.611 264.65 106.344C265.102 106.077 265.497 105.724 265.836 105.284L266.963 106.164C266.059 107.557 264.703 108.254 262.896 108.254ZM262.667 98.5529C261.923 98.5529 261.298 98.8264 260.793 99.3733C260.288 99.9132 259.976 100.673 259.856 101.654H265.258V101.513C265.205 100.573 264.953 99.8465 264.501 99.333C264.049 98.8129 263.438 98.5529 262.667 98.5529ZM271.747 94.6125V97.233H273.76V98.663H271.747V105.374C271.747 105.807 271.837 106.134 272.016 106.354C272.196 106.567 272.501 106.674 272.933 106.674C273.146 106.674 273.438 106.634 273.81 106.554V108.054C273.325 108.188 272.853 108.254 272.395 108.254C271.571 108.254 270.95 108.004 270.531 107.504C270.112 107.004 269.903 106.294 269.903 105.374V98.663H267.939V97.233H269.903V94.6125H271.747ZM277.767 98.543C278.584 97.5363 279.647 97.0328 280.956 97.0328C283.235 97.0328 284.385 98.3228 284.405 100.903V108.054H282.561V100.893C282.554 100.113 282.375 99.5362 282.023 99.1631C281.677 98.7895 281.136 98.6028 280.398 98.6028C279.8 98.6028 279.275 98.7631 278.823 99.0829C278.372 99.4032 278.019 99.8231 277.767 100.343V108.054H275.923V92.6924H277.767V98.543ZM291.641 108.254C290.179 108.254 288.99 107.774 288.073 106.814C287.156 105.847 286.698 104.557 286.698 102.944V102.603C286.698 101.53 286.9 100.573 287.305 99.7329C287.717 98.8862 288.289 98.2262 289.02 97.753C289.758 97.2728 290.555 97.0328 291.412 97.0328C292.814 97.0328 293.904 97.496 294.681 98.4229C295.459 99.3499 295.847 100.676 295.847 102.403V103.174H288.541C288.568 104.24 288.877 105.104 289.469 105.764C290.066 106.417 290.824 106.744 291.741 106.744C292.392 106.744 292.943 106.611 293.396 106.344C293.847 106.077 294.242 105.724 294.582 105.284L295.708 106.164C294.804 107.557 293.449 108.254 291.641 108.254ZM291.412 98.5529C290.668 98.5529 290.043 98.8264 289.538 99.3733C289.033 99.9132 288.721 100.673 288.601 101.654H294.003V101.513C293.95 100.573 293.698 99.8465 293.246 99.333C292.794 98.8129 292.183 98.5529 291.412 98.5529ZM303.203 98.8931C302.924 98.8463 302.622 98.8229 302.296 98.8229C301.087 98.8229 300.266 99.3399 299.834 100.373V108.054H297.99V97.233H299.784L299.815 98.4827C300.419 97.5164 301.276 97.0328 302.386 97.0328C302.745 97.0328 303.017 97.0796 303.203 97.1727V98.8931Z" fill="white"/>
<path d="M165.238 45.335C169.815 45.335 174.674 46.8691 178.01 50.1665L174.148 56.4773C171.954 54.5646 168.668 52.9906 165.62 52.9906C158.805 52.9906 155.995 57.8221 155.995 62.7433C155.995 67.8139 159.043 73.0239 165.62 73.0239C169.001 73.0239 172.341 71.1561 174.674 68.8151L178.963 74.9366C178.507 75.4098 178.015 75.868 177.489 76.3114C174.555 78.7819 170.529 80.6697 165.238 80.6697C154.277 80.6697 147.368 73.0688 147.368 62.9326C147.368 52.9857 154.709 45.335 165.238 45.335Z" fill="white"/>
<path d="M197.533 45.335C208.111 45.335 215.353 52.9857 215.353 62.7881C215.353 72.8297 208.111 80.6697 197.533 80.6697C186.954 80.6697 179.712 72.8297 179.712 62.7881C179.707 52.9857 186.949 45.335 197.533 45.335ZM197.533 73.019C202.918 73.019 206.731 68.6208 206.731 62.7881C206.731 57.1946 202.918 52.9857 197.533 52.9857C192.147 52.9857 188.334 57.1946 188.334 62.7881C188.334 68.6208 192.147 73.019 197.533 73.019Z" fill="white"/>
<path d="M219.915 45.9082H228.349L237.785 61.8771C239.121 64.1235 240.645 67.7097 240.645 67.7097H240.739C240.739 67.7097 240.357 64.0288 240.357 61.8771V45.9082H248.696V80.0973H240.307L230.826 64.1733C229.49 61.9269 227.967 58.3406 227.967 58.3406H227.872C227.872 58.3406 228.254 62.0215 228.254 64.1733V80.0973H219.915V45.9082Z" fill="white"/>
<path d="M264.159 53.0807H253.819V45.9082H282.838V53.0807H272.498V80.0973H264.159V53.0807Z" fill="white"/>
<path d="M293.442 45.9082H302.208L313.789 80.0973H305.211L303.117 72.9248H292.489L290.439 80.0973H281.861L293.442 45.9082ZM301.161 66.2304L299.255 59.5858C298.634 57.4341 297.875 53.7034 297.875 53.7034H297.78C297.78 53.7034 297.016 57.4341 296.4 59.5858L294.444 66.2304H301.161Z" fill="white"/>
<path d="M332.974 45.335C337.551 45.335 342.411 46.8691 345.746 50.1665L341.885 56.4773C339.69 54.5646 336.404 52.9906 333.356 52.9906C326.541 52.9906 323.731 57.8221 323.731 62.7433C323.731 67.8139 326.779 73.0239 333.356 73.0239C336.737 73.0239 340.078 71.1561 342.411 68.8151L346.7 74.9366C343.696 78.0447 339.219 80.6746 332.974 80.6746C322.014 80.6746 315.104 73.0738 315.104 62.9376C315.104 52.9857 322.441 45.335 332.974 45.335Z" fill="white"/>
<path d="M360.812 53.0807H350.472V45.9082H379.491V53.0807H369.152V80.0973H360.812V53.0807Z" fill="white"/>
<path fill-rule="evenodd" clip-rule="evenodd" d="M109.293 59.3568C112.654 58.4552 116.109 60.4625 117.007 63.8346C117.98 67.4856 118.472 71.2612 118.467 75.0566C118.467 98.9751 99.0777 118.431 75.2408 118.431C51.4088 118.431 32.0146 98.9751 32.0146 75.0566C32.0146 55.382 45.2386 38.138 64.1761 33.1172C67.5417 32.2207 70.9916 34.2379 71.8802 37.615C72.7687 40.9921 70.7633 44.4538 67.3977 45.3454C53.9851 48.8968 44.6181 61.115 44.6181 75.0566C44.6181 82.528 47.2937 89.3868 51.7265 94.7164C51.2252 93.1623 50.9472 91.5037 50.9472 89.7753C50.9472 80.8993 58.1201 73.7068 66.9609 73.7068C75.8067 73.7068 82.9746 80.9042 82.9746 89.7753C82.9746 97.411 77.6582 103.792 70.5399 105.425C72.0738 105.664 73.6473 105.789 75.2457 105.789C92.1331 105.789 105.868 92.0067 105.868 75.0616C105.868 72.357 105.521 69.6772 104.831 67.0971C103.932 63.725 105.933 60.2583 109.293 59.3568ZM102.294 46.5604C102.294 52.3456 97.6208 57.0353 91.8551 57.0353C86.0895 57.0353 81.4159 52.3456 81.4159 46.5604C81.4159 40.7753 86.0895 36.0855 91.8551 36.0855C97.6208 36.0855 102.294 40.7753 102.294 46.5604Z" fill="#F58A1F"/>
<g opacity="0.4">
<rect x="534.174" y="143.363" width="11.6598" height="10.8334" rx="5.41669" fill="#956A37"/>
</g>
<path d="M572.762 82.2088C491.691 77.4503 422.113 139.314 417.355 220.384C412.596 301.455 474.459 371.033 555.53 375.792C636.601 380.55 706.179 318.687 710.937 237.616C712.783 206.179 704.61 176.47 689.184 151.598" stroke="#F58A1F" stroke-width="22.4274" stroke-linecap="round"/>
<path opacity="0.6" d="M570.453 121.542C511.106 118.058 460.171 163.345 456.687 222.693C453.204 282.041 498.491 332.976 557.839 336.459C617.186 339.943 668.121 294.656 671.605 235.308C672.955 212.294 666.973 190.545 655.68 172.338" stroke="url(#paint0_linear_30215_27549)" stroke-width="16.7768" stroke-linecap="round"/>
<path opacity="0.4" d="M568.336 157.618C528.913 155.304 495.079 185.386 492.765 224.809C490.451 264.232 520.534 298.067 559.957 300.381C599.38 302.695 633.214 272.612 635.528 233.189C636.425 217.902 632.451 203.455 624.95 191.36" stroke="url(#paint1_linear_30215_27549)" stroke-width="11.1845" stroke-linecap="round"/>
<path opacity="0.2" d="M566.588 187.385C543.605 186.036 523.88 203.574 522.531 226.557C521.182 249.541 538.72 269.266 561.703 270.615C584.687 271.964 604.412 254.426 605.761 231.442C606.284 222.53 603.967 214.108 599.594 207.057" stroke="url(#paint2_linear_30215_27549)" stroke-width="8.38839" stroke-linecap="round"/>
<rect x="490.388" y="148.733" width="107.59" height="188.04" rx="11.6313" fill="white"/>
<rect x="508.804" y="158.427" width="69.7879" height="5.81566" rx="2.90783" fill="#FFCED3"/>
<rect x="498.142" y="172.966" width="91.112" height="19.3855" rx="3.87711" fill="#E8EDF5"/>
<rect x="498.142" y="204.953" width="91.112" height="19.3855" rx="3.87711" fill="#E8EDF5"/>
<rect x="498.142" y="236.938" width="91.112" height="19.3855" rx="3.87711" fill="#E8EDF5"/>
<rect x="498.142" y="268.925" width="91.112" height="19.3855" rx="3.87711" fill="#E8EDF5"/>
<rect x="498.142" y="309.634" width="91.112" height="19.3855" rx="3.87711" fill="#E22338"/>
<rect x="498.142" y="200.104" width="30.0476" height="1.93855" rx="0.969277" fill="#BEC5D0"/>
<rect x="498.142" y="232.09" width="30.0476" height="1.93855" rx="0.969277" fill="#BEC5D0"/>
<rect x="498.142" y="264.078" width="30.0476" height="1.93855" rx="0.969277" fill="#BEC5D0"/>
<rect x="524.313" y="317.388" width="39.7404" height="3.87711" rx="1.93855" fill="white"/>
<rect x="305.095" y="148.733" width="107.59" height="188.04" rx="11.6313" fill="white"/>
<rect x="323.511" y="158.427" width="69.7879" height="5.81566" rx="2.90783" fill="#D0DDFF"/>
<rect x="312.849" y="204.953" width="91.112" height="19.3855" rx="3.87711" fill="#E8EDF5"/>
<rect x="312.849" y="236.938" width="91.112" height="19.3855" rx="3.87711" fill="#E8EDF5"/>
<rect x="312.849" y="268.925" width="91.112" height="19.3855" rx="3.87711" fill="#E8EDF5"/>
<rect x="312.848" y="308.664" width="91.112" height="19.3855" rx="3.87711" fill="#E8EDF5"/>
<rect x="312.848" y="290.247" width="5.81566" height="5.81566" rx="0.969277" fill="#E8EDF5"/>
<rect x="312.849" y="309.634" width="91.112" height="19.3855" rx="3.87711" fill="#5986FD"/>
<rect x="312.849" y="200.104" width="30.0476" height="1.93855" rx="0.969277" fill="#BEC5D0"/>
<rect x="312.849" y="172.966" width="91.112" height="1.93855" rx="0.969277" fill="#BEC5D0"/>
<rect x="312.849" y="176.843" width="60.0952" height="1.93855" rx="0.969277" fill="#BEC5D0"/>
<rect x="312.849" y="180.719" width="84.3271" height="1.93855" rx="0.969277" fill="#BEC5D0"/>
<rect x="312.849" y="184.598" width="73.665" height="1.93855" rx="0.969277" fill="#BEC5D0"/>
<rect x="312.849" y="188.474" width="88.2042" height="1.93855" rx="0.969277" fill="#BEC5D0"/>
<rect x="312.849" y="232.09" width="30.0476" height="1.93855" rx="0.969277" fill="#BEC5D0"/>
<rect x="312.849" y="264.078" width="30.0476" height="1.93855" rx="0.969277" fill="#BEC5D0"/>
<rect x="312.849" y="303.818" width="30.0476" height="1.93855" rx="0.969277" fill="#BEC5D0"/>
<rect x="321.572" y="292.187" width="49.4331" height="1.93855" rx="0.969277" fill="#BEC5D0"/>
<rect x="339.02" y="317.388" width="39.7404" height="3.87711" rx="1.93855" fill="white"/>
<g filter="url(#filter0_d_30215_27549)">
<rect x="400.73" y="126.796" width="132.694" height="231.916" rx="14.3453" fill="white"/>
<rect x="423.443" y="138.75" width="86.0718" height="7.17265" rx="3.58632" fill="#FFE3C2"/>
<rect x="410.293" y="166.245" width="112.372" height="23.9088" rx="4.78177" fill="#E8EDF5"/>
<rect x="410.293" y="192.545" width="112.372" height="23.9088" rx="4.78177" fill="#E8EDF5"/>
<rect x="410.293" y="218.844" width="112.372" height="23.9088" rx="4.78177" fill="#E8EDF5"/>
<rect x="410.293" y="245.144" width="112.372" height="23.9088" rx="4.78177" fill="#E8EDF5"/>
<rect x="410.293" y="292.961" width="7.17265" height="7.17265" rx="1.19544" fill="#E8EDF5"/>
<rect x="410.293" y="302.524" width="7.17265" height="7.17265" rx="1.19544" fill="#E8EDF5"/>
<rect x="410.293" y="325.24" width="112.372" height="23.9088" rx="4.78177" fill="#F58A1F"/>
<rect x="410.293" y="156.681" width="46.6222" height="4.78177" rx="2.39088" fill="#BEC5D0"/>
<rect x="410.293" y="281.008" width="46.6222" height="4.78177" rx="2.39088" fill="#BEC5D0"/>
<rect x="421.053" y="295.353" width="60.9675" height="2.39088" rx="1.19544" fill="#BEC5D0"/>
<rect x="421.053" y="304.916" width="60.9675" height="2.39088" rx="1.19544" fill="#BEC5D0"/>
<rect x="442.571" y="334.803" width="49.0131" height="4.78177" rx="2.39088" fill="white"/>
</g>
<rect x="430.616" y="101.69" width="55.7873" height="55.7873" rx="27.8936" fill="#5986FD"/>
<path fill-rule="evenodd" clip-rule="evenodd" d="M447.351 115.239C447.351 113.478 448.778 112.051 450.539 112.051H466.478C468.239 112.051 469.666 113.478 469.666 115.239V143.531C469.666 145.291 468.239 146.719 466.478 146.719H450.539C448.778 146.719 447.351 145.291 447.351 143.531V115.239ZM455.321 115.517C455.321 115.014 455.73 114.605 456.233 114.605H460.785C461.288 114.605 461.697 115.014 461.697 115.517C461.697 116.021 461.288 116.43 460.785 116.43H456.233C455.73 116.43 455.321 116.021 455.321 115.517ZM458.225 143.434C457.722 143.434 457.313 143.842 457.313 144.346C457.313 144.85 457.722 145.259 458.225 145.259H459.19C459.694 145.259 460.102 144.85 460.102 144.346C460.102 143.842 459.694 143.434 459.19 143.434H458.225Z" fill="white"/>
<path fill-rule="evenodd" clip-rule="evenodd" d="M449.742 122.013C449.742 121.133 450.456 120.419 451.336 120.419H465.681C466.562 120.419 467.275 121.133 467.275 122.013V129.982C467.275 130.863 466.562 131.576 465.681 131.576H451.336C450.456 131.576 449.742 130.863 449.742 129.982V122.013ZM451.336 128.986C451.336 128.436 451.782 127.99 452.332 127.99H455.52C456.07 127.99 456.516 128.436 456.516 128.986C456.516 129.537 456.07 129.983 455.52 129.983H452.332C451.782 129.983 451.336 129.537 451.336 128.986ZM458.31 127.99C457.759 127.99 457.313 128.436 457.313 128.986C457.313 129.537 457.759 129.983 458.31 129.983H458.708C459.258 129.983 459.704 129.537 459.704 128.986C459.704 128.436 459.258 127.99 458.708 127.99H458.31Z" fill="#5986FD"/>
<rect x="452.133" y="135.163" width="12.7514" height="3.98481" rx="1.9924" fill="#5986FD"/>
<rect x="371.84" y="323.245" width="55.7873" height="55.7873" rx="27.8936" fill="#E22338"/>
<path fill-rule="evenodd" clip-rule="evenodd" d="M412.086 353.126C410.328 354.143 408.286 354.725 406.109 354.725C400.325 354.725 395.501 350.618 394.394 345.161H385.388C383.627 345.161 382.2 346.588 382.2 348.349V361.897C382.2 363.658 383.627 365.085 385.388 365.085H408.898C410.659 365.085 412.086 363.658 412.086 361.897V353.126ZM385.588 360.703C385.038 360.703 384.592 361.149 384.592 361.699C384.592 362.249 385.038 362.695 385.588 362.695H389.971C390.521 362.695 390.967 362.249 390.967 361.699C390.967 361.149 390.521 360.703 389.971 360.703H385.588ZM392.162 361.699C392.162 361.149 392.608 360.703 393.158 360.703H393.955C394.506 360.703 394.952 361.149 394.952 361.699C394.952 362.249 394.506 362.695 393.955 362.695H393.158C392.608 362.695 392.162 362.249 392.162 361.699Z" fill="white"/>
<path fill-rule="evenodd" clip-rule="evenodd" d="M406.109 351.937C411.171 351.937 415.274 347.833 415.274 342.771C415.274 337.71 411.171 333.606 406.109 333.606C401.048 333.606 396.944 337.71 396.944 342.771C396.944 347.833 401.048 351.937 406.109 351.937ZM400.877 342.366C401.043 339.534 403.474 337.372 406.307 337.538C406.746 337.564 407.123 337.229 407.149 336.79C407.175 336.35 406.84 335.973 406.4 335.947C402.689 335.729 399.504 338.561 399.286 342.273C399.068 345.984 401.9 349.169 405.611 349.387C409.323 349.605 412.508 346.773 412.726 343.062C412.81 341.623 412.436 340.262 411.729 339.123C411.497 338.749 411.006 338.634 410.632 338.866C410.258 339.098 410.143 339.589 410.375 339.963C410.914 340.832 411.199 341.869 411.135 342.968C410.968 345.801 408.537 347.962 405.705 347.796C402.872 347.63 400.711 345.199 400.877 342.366ZM406.577 343.17H403.519C403.079 343.17 402.722 342.813 402.722 342.373C402.722 341.933 403.079 341.576 403.519 341.576H406.576L405.944 340.944C405.633 340.633 405.633 340.129 405.944 339.817C406.256 339.506 406.76 339.506 407.071 339.817L409.064 341.81L409.627 342.373L409.064 342.937L407.071 344.929C406.76 345.24 406.256 345.24 405.944 344.929C405.633 344.618 405.633 344.113 405.944 343.802L406.577 343.17Z" fill="white"/>
<g filter="url(#filter1_d_30215_27549)">
<rect x="338.168" y="259.887" width="31.8784" height="31.8784" rx="15.9392" fill="white"/>
<path fill-rule="evenodd" clip-rule="evenodd" d="M356.495 272.411C353.463 273.063 351.106 275.529 350.616 278.617C350.584 278.617 350.553 278.618 350.522 278.618C347.221 278.618 344.544 275.941 344.544 272.64C344.544 269.339 347.221 266.663 350.522 266.663C353.746 266.663 356.374 269.216 356.495 272.411Z" fill="#E22338"/>
<ellipse cx="358.092" cy="279.812" rx="5.97721" ry="5.97721" fill="#E22338"/>
<path d="M358.092 277.422V282.204" stroke="white" stroke-width="1.59392" stroke-linecap="round"/>
<path d="M355.701 279.812H360.483" stroke="white" stroke-width="1.59392" stroke-linecap="round"/>
<path d="M348.528 272.639L352.513 272.639" stroke="white" stroke-width="1.59392" stroke-linecap="round"/>
</g>
<g filter="url(#filter2_d_30215_27549)">
<rect x="289.554" y="135.164" width="31.8784" height="31.8784" rx="15.9392" fill="white"/>
<path d="M296.726 149.109C296.726 148.669 297.083 148.312 297.523 148.312H300.711C301.151 148.312 301.508 148.669 301.508 149.109V156.282H296.726V149.109Z" fill="#5986FD"/>
<path d="M303.102 146.719C303.102 146.279 303.458 145.922 303.899 145.922H307.086C307.527 145.922 307.883 146.279 307.883 146.719V156.282H303.102V146.719Z" fill="#5986FD"/>
<path d="M309.478 144.327C309.478 143.887 309.835 143.53 310.275 143.53H313.463C313.903 143.53 314.26 143.887 314.26 144.327V156.282H309.478V144.327Z" fill="#5986FD"/>
<rect x="295.531" y="157.079" width="19.924" height="1.59392" rx="0.796961" fill="#5986FD"/>
</g>
<g filter="url(#filter3_d_30215_27549)">
<rect x="573.152" y="179.673" width="31.8784" height="31.8784" rx="15.9392" fill="white"/>
<path d="M585.604 198.003C584.478 198.003 583.516 197.624 582.717 196.866C581.919 196.107 581.52 195.18 581.52 194.085C581.52 193.146 581.811 192.309 582.393 191.575C582.974 190.841 583.736 190.371 584.676 190.167C584.986 189.059 585.604 188.163 586.533 187.476C587.461 186.79 588.513 186.447 589.689 186.447C591.137 186.447 592.366 186.938 593.375 187.919C594.383 188.9 594.888 190.095 594.887 191.503C595.741 191.599 596.45 191.958 597.013 192.578C597.577 193.198 597.858 193.923 597.858 194.753C597.858 195.656 597.533 196.423 596.883 197.056C596.233 197.688 595.444 198.004 594.516 198.003H585.604Z" fill="#F58A1F"/>
<ellipse cx="588.095" cy="201.39" rx="2.19164" ry="2.19164" fill="#F58A1F"/>
<circle cx="583.712" cy="203.78" r="1.39468" fill="#F58A1F"/>
</g>
<rect x="504.534" y="218.844" width="55.7873" height="55.7873" rx="27.8936" fill="#F58A1F"/>
<path fill-rule="evenodd" clip-rule="evenodd" d="M541.991 243.751C541.991 245.842 536.996 247.537 530.834 247.537C524.672 247.537 519.676 245.842 519.676 243.751C519.676 241.661 524.672 239.966 530.834 239.966C536.996 239.966 541.991 241.661 541.991 243.751ZM519.677 245.547V245.746V249.132H519.692C519.682 249.198 519.677 249.264 519.677 249.331C519.677 251.422 524.672 253.117 530.834 253.117C531.716 253.117 532.574 253.082 533.397 253.017C534.997 250.898 537.537 249.528 540.397 249.528C540.927 249.528 541.445 249.575 541.949 249.665C541.977 249.555 541.992 249.444 541.992 249.331C541.992 249.264 541.986 249.198 541.976 249.132H541.992V245.746V245.547H541.976C541.986 245.613 541.992 245.679 541.992 245.746C541.992 247.836 536.996 249.531 530.834 249.531C524.672 249.531 519.677 247.836 519.677 245.746C519.677 245.679 519.682 245.613 519.692 245.547H519.677ZM531.955 260.667C532.321 261.97 532.98 263.15 533.856 264.132C532.895 264.223 531.881 264.272 530.834 264.272C524.672 264.272 519.676 262.578 519.676 260.487C519.676 260.42 519.681 260.354 519.691 260.288H519.676V256.9C519.676 258.991 524.672 260.686 530.834 260.686C531.212 260.686 531.586 260.679 531.955 260.667ZM532.24 255.077C531.847 256.073 531.63 257.159 531.63 258.295C531.63 258.425 531.633 258.554 531.639 258.683C531.373 258.69 531.105 258.693 530.834 258.693C524.672 258.693 519.677 256.998 519.677 254.907C519.677 254.841 519.682 254.774 519.692 254.708H519.677V251.321C519.677 253.411 524.672 255.106 530.834 255.106C531.31 255.106 531.78 255.096 532.24 255.077ZM519.677 251.321V251.122H519.692C519.682 251.188 519.677 251.254 519.677 251.321ZM519.676 256.9C519.676 256.834 519.681 256.767 519.691 256.701H519.676V256.9Z" fill="white"/>
<ellipse cx="540.397" cy="258.294" rx="5.97721" ry="5.97721" fill="white"/>
<path d="M537.608 258.499L539.458 260.286L543.585 256.301" stroke="#F58A1F" stroke-width="1.59392" stroke-linecap="round"/>
<path d="M526.451 237.175L526.451 230.002" stroke="white" stroke-width="1.59392" stroke-linecap="round"/>
<path d="M534.818 237.175L534.818 230.002" stroke="white" stroke-width="1.59392" stroke-linecap="round"/>
<path d="M524.458 231.596L526.45 229.603L528.442 231.596" stroke="white" stroke-width="1.59392" stroke-linecap="round"/>
<path d="M532.826 231.596L534.819 229.603L536.811 231.596" stroke="white" stroke-width="1.59392" stroke-linecap="round"/>
</g>
<defs>
<filter id="filter0_d_30215_27549" x="364.867" y="90.9327" width="204.42" height="303.643" filterUnits="userSpaceOnUse" color-interpolation-filters="sRGB">
<feFlood flood-opacity="0" result="BackgroundImageFix"/>
<feColorMatrix in="SourceAlpha" type="matrix" values="0 0 0 0 0 0 0 0 0 0 0 0 0 0 0 0 0 0 127 0" result="hardAlpha"/>
<feOffset/>
<feGaussianBlur stdDeviation="17.9316"/>
<feComposite in2="hardAlpha" operator="out"/>
<feColorMatrix type="matrix" values="0 0 0 0 0.117647 0 0 0 0 0.133333 0 0 0 0 0.160784 0 0 0 0.2 0"/>
<feBlend mode="normal" in2="BackgroundImageFix" result="effect1_dropShadow_30215_27549"/>
<feBlend mode="normal" in="SourceGraphic" in2="effect1_dropShadow_30215_27549" result="shape"/>
</filter>
<filter id="filter1_d_30215_27549" x="309.478" y="231.196" width="89.2596" height="89.2601" filterUnits="userSpaceOnUse" color-interpolation-filters="sRGB">
<feFlood flood-opacity="0" result="BackgroundImageFix"/>
<feColorMatrix in="SourceAlpha" type="matrix" values="0 0 0 0 0 0 0 0 0 0 0 0 0 0 0 0 0 0 127 0" result="hardAlpha"/>
<feOffset/>
<feGaussianBlur stdDeviation="14.3453"/>
<feComposite in2="hardAlpha" operator="out"/>
<feColorMatrix type="matrix" values="0 0 0 0 0.886275 0 0 0 0 0.137255 0 0 0 0 0.219608 0 0 0 1 0"/>
<feBlend mode="normal" in2="BackgroundImageFix" result="effect1_dropShadow_30215_27549"/>
<feBlend mode="normal" in="SourceGraphic" in2="effect1_dropShadow_30215_27549" result="shape"/>
</filter>
<filter id="filter2_d_30215_27549" x="260.863" y="106.473" width="89.2596" height="89.2601" filterUnits="userSpaceOnUse" color-interpolation-filters="sRGB">
<feFlood flood-opacity="0" result="BackgroundImageFix"/>
<feColorMatrix in="SourceAlpha" type="matrix" values="0 0 0 0 0 0 0 0 0 0 0 0 0 0 0 0 0 0 127 0" result="hardAlpha"/>
<feOffset/>
<feGaussianBlur stdDeviation="14.3453"/>
<feComposite in2="hardAlpha" operator="out"/>
<feColorMatrix type="matrix" values="0 0 0 0 0.34902 0 0 0 0 0.52549 0 0 0 0 0.992157 0 0 0 1 0"/>
<feBlend mode="normal" in2="BackgroundImageFix" result="effect1_dropShadow_30215_27549"/>
<feBlend mode="normal" in="SourceGraphic" in2="effect1_dropShadow_30215_27549" result="shape"/>
</filter>
<filter id="filter3_d_30215_27549" x="544.462" y="150.982" width="89.2596" height="89.2601" filterUnits="userSpaceOnUse" color-interpolation-filters="sRGB">
<feFlood flood-opacity="0" result="BackgroundImageFix"/>
<feColorMatrix in="SourceAlpha" type="matrix" values="0 0 0 0 0 0 0 0 0 0 0 0 0 0 0 0 0 0 127 0" result="hardAlpha"/>
<feOffset/>
<feGaussianBlur stdDeviation="14.3453"/>
<feComposite in2="hardAlpha" operator="out"/>
<feColorMatrix type="matrix" values="0 0 0 0 0.960784 0 0 0 0 0.541176 0 0 0 0 0.121569 0 0 0 1 0"/>
<feBlend mode="normal" in2="BackgroundImageFix" result="effect1_dropShadow_30215_27549"/>
<feBlend mode="normal" in="SourceGraphic" in2="effect1_dropShadow_30215_27549" result="shape"/>
</filter>
<linearGradient id="paint0_linear_30215_27549" x1="510.448" y1="318.659" x2="630.681" y2="143.901" gradientUnits="userSpaceOnUse">
<stop stop-color="#F58A1F"/>
<stop offset="1" stop-color="#F58A1F" stop-opacity="0"/>
</linearGradient>
<linearGradient id="paint1_linear_30215_27549" x1="510.448" y1="290.697" x2="627.886" y2="176.055" gradientUnits="userSpaceOnUse">
<stop stop-color="#F58A1F"/>
<stop offset="1" stop-color="#F58A1F" stop-opacity="0"/>
</linearGradient>
<linearGradient id="paint2_linear_30215_27549" x1="534.215" y1="264.134" x2="590.137" y2="198.425" gradientUnits="userSpaceOnUse">
<stop stop-color="#F58A1F"/>
<stop offset="1" stop-color="#F58A1F" stop-opacity="0"/>
</linearGradient>
<clipPath id="clip0_30215_27549">
<rect width="608" height="448" rx="6.4" fill="white"/>
</clipPath>
</defs>
</svg>
