<svg width="589" height="588" viewBox="0 0 589 588" fill="none" xmlns="http://www.w3.org/2000/svg">
<g clip-path="url(#clip0_30214_24855)">
<line x1="70" y1="287.708" x2="658.729" y2="287.708" stroke="url(#paint0_linear_30214_24855)" stroke-width="3" stroke-dasharray="4.16 5.54"/>
<line x1="70" y1="341.733" x2="658.729" y2="341.733" stroke="url(#paint1_linear_30214_24855)" stroke-width="3" stroke-dasharray="4.16 5.54"/>
<line x1="70" y1="438.7" x2="658.729" y2="438.7" stroke="url(#paint2_linear_30214_24855)" stroke-width="3" stroke-dasharray="4.16 5.54"/>
<path d="M119.176 347.629H114.328V390.331H620.635V345.551C607.475 345.551 609.048 345.551 605.397 337.932C602.627 332.151 601.242 330.073 597.086 320.617C593.067 311.472 585.712 314.459 582.541 320.617C578.385 328.688 579.078 326.61 574.922 334.469C571.133 341.636 566.611 345.551 561.762 345.551H531.698C531.05 345.551 530.493 346.001 530.352 346.634L522.017 381.091C521.676 382.617 519.461 382.496 519.289 380.941L506.095 264.971C505.917 263.367 503.606 263.311 503.351 264.904L488.111 359.997C487.927 361.148 486.5 361.559 485.831 360.604C484.621 358.873 483.526 356.705 482.111 352.93C480.018 347.351 477.262 345.551 474.492 345.551H469.643C465.488 345.551 461.167 345.879 459.947 341.396C458.561 336.307 458.561 336.307 455.791 328.688C453.092 321.266 446.787 321.31 444.016 326.61C441.246 331.91 442.631 329.621 437.783 337.932C432.934 346.244 428.779 345.551 425.316 345.551H381.853C380.595 345.551 379.974 344.012 380.881 343.141C392.041 332.417 411.849 311.594 418.51 297.76C427.514 279.06 425.667 256.017 410.199 246.266C378.338 226.18 360.209 260.811 360.209 260.811C360.209 260.811 343.586 226.18 311.725 246.266C296.257 256.017 294.41 279.06 303.414 297.76C310.075 311.594 329.883 332.417 341.043 343.141C341.95 344.012 341.335 345.551 340.077 345.551H308.262C302.721 345.551 300.643 345.551 297.18 341.396C293.717 337.24 288.176 327.543 284.713 320.617C281.25 313.691 275.152 315.829 272.938 320.617C270.168 326.61 267.42 331.458 263.934 337.932C259.086 346.937 252.16 345.551 247.311 345.551H221.403C220.755 345.551 220.198 346.001 220.057 346.634L211.571 381.768C211.234 383.272 209.063 383.185 208.847 381.659L191.893 264.33C191.669 262.74 189.372 262.741 189.15 264.331L175.86 359.169C175.675 360.491 174.066 360.735 173.564 359.498C172.669 357.292 171.673 354.723 170.43 352.237C168.262 347.9 167.66 347.629 162.811 347.629H154.5C148.266 347.629 147.574 339.318 145.496 334.469C143.418 329.621 142.725 324.08 137.184 324.08C131.643 324.08 130.258 332.844 126.795 339.77C124.145 345.07 123.332 347.629 119.176 347.629Z" fill="#8CF857" fill-opacity="0.4"/>
<path d="M119.176 347.629H114.328V390.331H620.635V345.551C607.475 345.551 609.048 345.551 605.397 337.932C602.627 332.151 601.242 330.073 597.086 320.617C593.067 311.472 585.712 314.459 582.541 320.617C578.385 328.688 579.078 326.61 574.922 334.469C571.133 341.636 566.611 345.551 561.762 345.551H531.698C531.05 345.551 530.493 346.001 530.352 346.634L522.017 381.091C521.676 382.617 519.461 382.496 519.289 380.941L506.095 264.971C505.917 263.367 503.606 263.311 503.351 264.904L488.111 359.997C487.927 361.148 486.5 361.559 485.831 360.604C484.621 358.873 483.526 356.705 482.111 352.93C480.018 347.351 477.262 345.551 474.492 345.551H469.643C465.488 345.551 461.167 345.879 459.947 341.396C458.561 336.307 458.561 336.307 455.791 328.688C453.092 321.266 446.787 321.31 444.016 326.61C441.246 331.91 442.631 329.621 437.783 337.932C432.934 346.244 428.779 345.551 425.316 345.551H381.853C380.595 345.551 379.974 344.012 380.881 343.141C392.041 332.417 411.849 311.594 418.51 297.76C427.514 279.06 425.667 256.017 410.199 246.266C378.338 226.18 360.209 260.811 360.209 260.811C360.209 260.811 343.586 226.18 311.725 246.266C296.257 256.017 294.41 279.06 303.414 297.76C310.075 311.594 329.883 332.417 341.043 343.141C341.95 344.012 341.335 345.551 340.077 345.551H308.262C302.721 345.551 300.643 345.551 297.18 341.396C293.717 337.24 288.176 327.543 284.713 320.617C281.25 313.691 275.152 315.829 272.938 320.617C270.168 326.61 267.42 331.458 263.934 337.932C259.086 346.937 252.16 345.551 247.311 345.551H221.403C220.755 345.551 220.198 346.001 220.057 346.634L211.571 381.768C211.234 383.272 209.063 383.185 208.847 381.659L191.893 264.33C191.669 262.74 189.372 262.741 189.15 264.331L175.86 359.169C175.675 360.491 174.066 360.735 173.564 359.498C172.669 357.292 171.673 354.723 170.43 352.237C168.262 347.9 167.66 347.629 162.811 347.629H154.5C148.266 347.629 147.574 339.318 145.496 334.469C143.418 329.621 142.725 324.08 137.184 324.08C131.643 324.08 130.258 332.844 126.795 339.77C124.145 345.07 123.332 347.629 119.176 347.629Z" fill="url(#paint3_linear_30214_24855)"/>
<path d="M114.328 347.629H119.176C123.332 347.629 124.145 345.07 126.795 339.77C130.258 332.844 131.643 324.08 137.184 324.08C142.725 324.08 143.418 329.621 145.496 334.469C147.574 339.318 148.266 347.629 154.5 347.629H162.811C167.66 347.629 168.262 347.9 170.43 352.237C171.673 354.723 172.669 357.292 173.564 359.498C174.066 360.735 175.675 360.491 175.86 359.169L189.15 264.331C189.372 262.741 191.669 262.74 191.893 264.33L208.847 384.43C209.063 385.955 211.234 386.042 211.571 384.539L220.057 346.634C220.198 346.001 220.755 345.551 221.403 345.551H247.311C252.16 345.551 259.086 346.937 263.934 337.932C267.42 331.458 270.168 326.61 272.938 320.617C275.152 315.829 281.25 313.691 284.713 320.617C288.176 327.543 293.717 337.24 297.18 341.396C300.643 345.551 302.721 345.551 308.262 345.551H340.077C341.335 345.551 341.95 344.012 341.043 343.141C329.883 332.417 310.075 311.594 303.414 297.76C294.41 279.06 296.257 256.017 311.725 246.266C343.586 226.18 360.209 260.811 360.209 260.811C360.209 260.811 378.338 226.18 410.199 246.266C425.667 256.017 427.514 279.06 418.51 297.76C411.849 311.594 392.041 332.417 380.881 343.141C379.974 344.012 380.595 345.551 381.853 345.551H426.008M425.316 345.551C428.779 345.551 432.934 346.244 437.783 337.932C442.631 329.621 441.246 331.91 444.016 326.61C446.787 321.31 453.092 321.266 455.791 328.688C458.561 336.307 458.561 336.307 459.947 341.396C461.167 345.879 465.488 345.551 469.643 345.551H474.492C477.262 345.551 480.019 347.351 482.111 352.93C483.526 356.705 484.621 358.873 485.831 360.604C486.499 361.559 487.927 361.148 488.111 359.997L503.351 264.904C503.606 263.311 505.917 263.367 506.095 264.971L519.289 383.712C519.461 385.266 521.676 385.388 522.017 383.862L530.352 346.634C530.493 346.001 531.05 345.551 531.698 345.551H561.762C566.611 345.551 571.133 341.636 574.922 334.469C579.078 326.61 578.385 328.688 582.541 320.617C585.712 314.459 593.067 311.472 597.086 320.617C601.242 330.073 602.627 332.151 605.397 337.932C609.048 345.551 607.475 345.551 620.635 345.551" stroke="#8CF857" stroke-width="8"/>
<path d="M133.065 411.11H107.402C106.637 411.11 106.016 411.73 106.016 412.495V485.913C106.016 486.678 106.637 487.298 107.402 487.298H629.639C630.404 487.298 631.024 486.678 631.024 485.913V441.585C631.024 440.82 630.404 440.2 629.639 440.2H526.295C525.942 440.2 525.603 440.065 525.346 439.823L503.175 418.957C502.63 418.444 501.776 418.457 501.246 418.986L480.438 439.794C480.179 440.054 479.826 440.2 479.459 440.2H407.04C406.763 440.2 406.492 440.117 406.263 439.962L364.437 411.628C363.974 411.314 363.367 411.31 362.9 411.617L319.69 439.973C319.464 440.121 319.2 440.2 318.93 440.2H196.928C196.396 440.2 195.911 439.895 195.68 439.416L179.274 405.342C178.774 404.305 177.301 404.294 176.787 405.323L159.612 439.672C159.163 440.57 157.937 440.707 157.301 439.93L134.137 411.618C133.874 411.296 133.48 411.11 133.065 411.11Z" fill="#44D0FF" fill-opacity="0.5"/>
<path d="M133.065 411.11H107.402C106.637 411.11 106.016 411.73 106.016 412.495V485.913C106.016 486.678 106.637 487.298 107.402 487.298H629.639C630.404 487.298 631.024 486.678 631.024 485.913V441.585C631.024 440.82 630.404 440.2 629.639 440.2H526.295C525.942 440.2 525.603 440.065 525.346 439.823L503.175 418.957C502.63 418.444 501.776 418.457 501.246 418.986L480.438 439.794C480.179 440.054 479.826 440.2 479.459 440.2H407.04C406.763 440.2 406.492 440.117 406.263 439.962L364.437 411.628C363.974 411.314 363.367 411.31 362.9 411.617L319.69 439.973C319.464 440.121 319.2 440.2 318.93 440.2H196.928C196.396 440.2 195.911 439.895 195.68 439.416L179.274 405.342C178.774 404.305 177.301 404.294 176.787 405.323L159.612 439.672C159.163 440.57 157.937 440.707 157.301 439.93L134.137 411.618C133.874 411.296 133.48 411.11 133.065 411.11Z" fill="url(#paint4_linear_30214_24855)"/>
<path d="M115.016 411.11H133.065C133.48 411.11 133.874 411.296 134.137 411.618L157.301 439.93C157.937 440.707 159.163 440.57 159.612 439.672L176.787 405.323C177.301 404.294 178.774 404.305 179.274 405.342L195.68 439.416C195.911 439.895 196.396 440.2 196.928 440.2H318.93C319.2 440.2 319.464 440.121 319.69 439.973L362.9 411.617C363.367 411.31 363.974 411.314 364.437 411.628L406.263 439.962C406.492 440.117 406.763 440.2 407.04 440.2H479.459C479.826 440.2 480.179 440.054 480.438 439.794L501.246 418.986C501.776 418.457 502.63 418.444 503.175 418.957L525.346 439.823C525.603 440.065 525.942 440.2 526.295 440.2H631.024" stroke="#44D0FF" stroke-width="8"/>
<rect x="114.328" y="519.159" width="505.615" height="55.4098" fill="#AD5C5C"/>
<rect x="114.328" y="519.159" width="505.615" height="55.4098" fill="url(#paint5_linear_30214_24855)"/>
<line x1="114.328" y1="520.7" x2="653.188" y2="520.7" stroke="#F5222D" stroke-width="8"/>
<path d="M171 487.184H658.729" stroke="url(#paint6_linear_30214_24855)" stroke-width="3" stroke-dasharray="4.16 5.54"/>
<path d="M-18 546.749H658.729" stroke="url(#paint7_linear_30214_24855)" stroke-width="3" stroke-dasharray="4.16 5.54"/>
<line x1="70" y1="390.217" x2="658.729" y2="390.217" stroke="url(#paint8_linear_30214_24855)" stroke-width="3" stroke-dasharray="4.16 5.54"/>
</g>
<defs>
<linearGradient id="paint0_linear_30214_24855" x1="364.365" y1="289.208" x2="105" y2="289" gradientUnits="userSpaceOnUse">
<stop stop-color="#8CF857"/>
<stop offset="1" stop-color="#03A9A1"/>
</linearGradient>
<linearGradient id="paint1_linear_30214_24855" x1="205" y1="343.233" x2="87" y2="343.233" gradientUnits="userSpaceOnUse">
<stop stop-color="#8CF857"/>
<stop offset="1" stop-color="#03A9A1"/>
</linearGradient>
<linearGradient id="paint2_linear_30214_24855" x1="184" y1="440" x2="95" y2="440.001" gradientUnits="userSpaceOnUse">
<stop stop-color="#44D0FF"/>
<stop offset="1" stop-color="#03A9A1"/>
</linearGradient>
<linearGradient id="paint3_linear_30214_24855" x1="114" y1="385" x2="226" y2="385" gradientUnits="userSpaceOnUse">
<stop stop-color="#03A9A1"/>
<stop offset="1" stop-color="#03A9A1" stop-opacity="0"/>
</linearGradient>
<linearGradient id="paint4_linear_30214_24855" x1="106" y1="471" x2="201" y2="471" gradientUnits="userSpaceOnUse">
<stop stop-color="#03A9A1"/>
<stop offset="1" stop-color="#03A9A1" stop-opacity="0"/>
</linearGradient>
<linearGradient id="paint5_linear_30214_24855" x1="114" y1="561" x2="274" y2="561" gradientUnits="userSpaceOnUse">
<stop stop-color="#03A9A1"/>
<stop offset="1" stop-color="#03A9A1" stop-opacity="0"/>
</linearGradient>
<linearGradient id="paint6_linear_30214_24855" x1="226" y1="487" x2="32" y2="487" gradientUnits="userSpaceOnUse">
<stop stop-color="#44D0FF"/>
<stop offset="1" stop-color="#03A9A1"/>
</linearGradient>
<linearGradient id="paint7_linear_30214_24855" x1="206" y1="548.003" x2="80" y2="548.002" gradientUnits="userSpaceOnUse">
<stop stop-color="#F5222D"/>
<stop offset="1" stop-color="#03A9A1"/>
</linearGradient>
<linearGradient id="paint8_linear_30214_24855" x1="213" y1="392.002" x2="70" y2="392.003" gradientUnits="userSpaceOnUse">
<stop stop-color="#8CF857"/>
<stop offset="1" stop-color="#03A9A1"/>
</linearGradient>
<clipPath id="clip0_30214_24855">
<rect width="588.729" height="588" fill="white"/>
</clipPath>
</defs>
</svg>
