<svg width="608" height="448" viewBox="0 0 608 448" fill="none" xmlns="http://www.w3.org/2000/svg">
<g clip-path="url(#clip0_30215_28460)">
<rect width="608" height="448" rx="6.4" fill="#F0F6FF"/>
<g clip-path="url(#clip1_30215_28460)">
<line x1="511.826" y1="217.221" x2="657.77" y2="2.0335" stroke="#D1DCED" stroke-width="3.19586" stroke-dasharray="6.39 6.39"/>
<path d="M395.71 217.221L553.6 -16.0002" stroke="#D1DCED" stroke-width="3.19586" stroke-dasharray="6.39 6.39"/>
<line x1="329.319" y1="246.31" x2="194.575" y2="-19.2773" stroke="#D1DCED" stroke-width="3.19586" stroke-dasharray="6.39 6.39"/>
<circle cx="434.821" cy="473.225" r="183.762" stroke="#D1DCED" stroke-width="3.19586"/>
<circle cx="434.85" cy="473.254" r="253.538" fill="#F0F6FF" stroke="#D1DCED" stroke-width="3.19586"/>
<path d="M434.821 266.56L434.821 679.891" stroke="#D1DCED" stroke-width="3.19586"/>
<path d="M288.687 327.091L580.956 619.36" stroke="#D1DCED" stroke-width="3.19586"/>
<path d="M288.687 619.36L580.956 327.091" stroke="#D1DCED" stroke-width="3.19586"/>
<path d="M355.734 282.292L513.909 664.16" stroke="#D1DCED" stroke-width="3.19586"/>
<path d="M243.888 394.138L625.755 552.313" stroke="#D1DCED" stroke-width="3.19586"/>
<path d="M243.887 552.313L625.755 394.139" stroke="#D1DCED" stroke-width="3.19586"/>
<path d="M355.734 664.16L513.909 282.292" stroke="#D1DCED" stroke-width="3.19586"/>
<path d="M396.581 280.979L473.062 665.472" stroke="#D1DCED" stroke-width="1.06529"/>
<path d="M271.843 364.327L597.8 582.124" stroke="#D1DCED" stroke-width="1.06529"/>
<path d="M242.575 511.466L627.068 434.986" stroke="#D1DCED" stroke-width="1.06529"/>
<path d="M325.923 636.204L543.72 310.247" stroke="#D1DCED" stroke-width="1.06529"/>
<path d="M473.061 280.979L396.581 665.472" stroke="#D1DCED" stroke-width="1.06529"/>
<path d="M325.923 310.247L543.72 636.204" stroke="#D1DCED" stroke-width="1.06529"/>
<path d="M242.575 434.985L627.068 511.466" stroke="#D1DCED" stroke-width="1.06529"/>
<path d="M271.843 582.124L597.8 364.327" stroke="#D1DCED" stroke-width="1.06529"/>
<path d="M415.116 278.207L454.527 668.246" stroke="#D1DCED" stroke-width="1.06529"/>
<path d="M282.988 349.261L586.655 597.192" stroke="#D1DCED" stroke-width="1.06529"/>
<path d="M310.856 625.06L558.787 321.393" stroke="#D1DCED" stroke-width="1.06529"/>
<path d="M453.57 278.112L416.072 668.339" stroke="#D1DCED" stroke-width="1.06529"/>
<path d="M310.112 322.001L559.53 624.449" stroke="#D1DCED" stroke-width="1.06529"/>
<path d="M283.597 597.934L586.045 348.517" stroke="#D1DCED" stroke-width="1.06529"/>
<path d="M491.246 285.51L378.396 660.941" stroke="#D1DCED" stroke-width="1.06529"/>
<path d="M341.985 300.592L527.658 645.859" stroke="#D1DCED" stroke-width="1.06529"/>
<path d="M247.106 416.801L622.537 529.651" stroke="#D1DCED" stroke-width="1.06529"/>
<path d="M262.188 566.062L607.455 380.389" stroke="#D1DCED" stroke-width="1.06529"/>
<path d="M526.81 300.138L342.833 646.312" stroke="#D1DCED" stroke-width="1.06529"/>
<path d="M377.476 285.789L492.166 660.662" stroke="#D1DCED" stroke-width="1.06529"/>
<path d="M261.735 381.237L607.908 565.214" stroke="#D1DCED" stroke-width="1.06529"/>
<path d="M247.385 530.57L622.258 415.88" stroke="#D1DCED" stroke-width="1.06529"/>
<circle cx="434.821" cy="473.225" r="176.305" fill="#F0F6FF" stroke="#D1DCED" stroke-width="3.19586"/>
<circle cx="434.85" cy="473.254" r="105.996" fill="white" stroke="#D1DCED" stroke-width="6.39171"/>
<line x1="446.402" y1="220" x2="446.402" y2="-16" stroke="#D1DCED" stroke-width="3.19586" stroke-dasharray="6.39 6.39"/>
<path d="M369.857 75.4501V52.5421H373.232V75.4501H369.857ZM360.091 65.6835V62.3087H382.999V65.6835H360.091Z" fill="#D1DCED"/>
<path d="M231.193 160.537V143.356H233.724V160.537H231.193ZM223.868 153.212V150.681H241.049V153.212H223.868Z" fill="#D1DCED"/>
<path d="M554.878 56.2585V52.8837H569.861V56.2585H554.878Z" fill="#D1DCED"/>
<path d="M317.759 104.544V102.013H328.995V104.544H317.759Z" fill="#D1DCED"/>
</g>
<g clip-path="url(#clip2_30215_28460)">
<path d="M66.868 84.2873L51.5014 75.6362V114.903H66.868V84.2873Z" fill="#A2BCE5"/>
<path d="M93.2024 96.6918L80.4164 89.7417V114.903H93.2024V96.6918Z" fill="#A2BCE5"/>
<path d="M112.704 106.369L102.381 101.325V114.903H112.704V106.369Z" fill="#A2BCE5"/>
<path d="M33.437 114.903V83.3782L51.5015 75.6362L66.8681 84.2873V114.903" stroke="#467BCD" stroke-width="2.86788" stroke-miterlimit="10"/>
<path d="M51.5014 75.6362V114.903" stroke="#467BCD" stroke-width="2.86788" stroke-miterlimit="10"/>
<path d="M66.8681 95.7828L80.4165 89.7417L93.2024 96.6918V114.903" stroke="#467BCD" stroke-width="2.86788" stroke-miterlimit="10"/>
<path d="M80.4164 89.7417V114.962" stroke="#467BCD" stroke-width="2.86788" stroke-miterlimit="10"/>
<path d="M93.2023 105.226L102.528 100.944L112.469 106.37V114.903" stroke="#467BCD" stroke-width="2.86788" stroke-miterlimit="10"/>
<path d="M102.528 100.944V114.962" stroke="#467BCD" stroke-width="2.86788" stroke-miterlimit="10"/>
<path d="M90.6511 84.6687L94.0528 76.4575L88.1584 83.0264L90.6511 84.6687Z" fill="#467BCD"/>
<path d="M96.6831 88.2337C97.5236 86.8115 94.7462 83.6144 90.4796 81.0928C86.213 78.5712 82.0728 77.6799 81.2323 79.1021C80.3918 80.5243 83.1692 83.7214 87.4358 86.243C91.7024 88.7646 95.8425 89.6559 96.6831 88.2337Z" stroke="#467BCD" stroke-width="1.43396" stroke-miterlimit="10"/>
<path d="M80.5631 79.0088C80.5631 79.0088 78.6862 86.6627 84.9619 90.0059C92 93.7888 96.8387 89.0088 96.8387 89.0088C96.8387 89.0088 90.9736 89.0088 86.6041 85.8416C82.6745 82.9971 80.5631 79.0088 80.5631 79.0088Z" fill="#467BCD"/>
<path d="M111.941 93.2603V97.0726" stroke="#467BCD" stroke-width="1.43396" stroke-miterlimit="10"/>
<path d="M111.941 85.1958V89.3894" stroke="#467BCD" stroke-width="1.43396" stroke-miterlimit="10"/>
<path d="M111.941 77.249V81.3253" stroke="#467BCD" stroke-width="1.43396" stroke-miterlimit="10"/>
<path d="M111.941 69.126V73.1142" stroke="#467BCD" stroke-width="1.43396" stroke-miterlimit="10"/>
<path d="M111.941 60.856V64.9322" stroke="#467BCD" stroke-width="1.43396" stroke-miterlimit="10"/>
<path d="M111.941 53.1138V56.7795" stroke="#467BCD" stroke-width="1.43396" stroke-miterlimit="10"/>
<path d="M108.276 55.3719L110.211 52.5273" stroke="#467BCD" stroke-width="1.43396" stroke-miterlimit="10"/>
<path d="M104.229 61.2962L106.457 58.0117" stroke="#467BCD" stroke-width="1.43396" stroke-miterlimit="10"/>
<path d="M100.123 67.3664L102.264 64.1992" stroke="#467BCD" stroke-width="1.43396" stroke-miterlimit="10"/>
<path d="M95.9883 73.4366L98.0704 70.3574" stroke="#467BCD" stroke-width="1.43396" stroke-miterlimit="10"/>
<path d="M63.7008 70.3574L59.7712 72.029" stroke="#467BCD" stroke-width="1.43396" stroke-miterlimit="10"/>
<path d="M73.0557 66.4277L68.5982 68.3046" stroke="#467BCD" stroke-width="1.43396" stroke-miterlimit="10"/>
<path d="M81.8241 62.7329L77.7771 64.4338" stroke="#467BCD" stroke-width="1.43396" stroke-miterlimit="10"/>
<path d="M90.6216 59.0083L86.5454 60.7385" stroke="#467BCD" stroke-width="1.43396" stroke-miterlimit="10"/>
<path d="M99.8592 55.1377L95.4017 57.0145" stroke="#467BCD" stroke-width="1.43396" stroke-miterlimit="10"/>
<path d="M108.774 51.3545L104.756 53.0554" stroke="#467BCD" stroke-width="1.43396" stroke-miterlimit="10"/>
<path d="M115.167 41.6477C113.848 43.5246 113.789 43.6126 113.76 43.6419L115.431 44.8149L117.103 45.9879C117.103 45.9879 117.161 45.8999 118.51 43.9938C118.716 43.6712 118.892 43.378 119.009 43.0554L115.9 40.856C115.636 41.0612 115.402 41.3252 115.167 41.6477Z" fill="#467BCD"/>
<path d="M119.244 42.2047C119.537 40.7678 119.097 39.5654 119.097 39.5654C119.097 39.5654 117.836 39.5654 116.575 40.3279L119.244 42.2047Z" fill="#467BCD"/>
<path d="M115.695 47.9232C117.015 46.0463 117.073 45.9584 117.103 45.929L115.431 44.756L113.76 43.583C113.76 43.583 113.701 43.671 112.352 45.5771C112.147 45.8997 111.971 46.193 111.854 46.5156L114.962 48.715C115.255 48.5097 115.49 48.2458 115.695 47.9232Z" fill="#467BCD"/>
<path d="M111.619 47.3657C111.326 48.8027 111.766 50.005 111.766 50.005C111.766 50.005 113.027 50.005 114.288 49.2426L111.619 47.3657Z" fill="#467BCD"/>
<path d="M114.2 42.9972L111.912 41.3843L110.651 43.1731L112.939 44.786" stroke="#467BCD" stroke-width="0.845469" stroke-miterlimit="10"/>
<path d="M112.821 40.6801L102.205 33.2314L99.6833 36.7798L110.299 44.2578" stroke="#467BCD" stroke-width="1.81794" stroke-miterlimit="10"/>
<path d="M117.543 45.3428L119.83 46.9557L118.569 48.7445L116.282 47.1316" stroke="#467BCD" stroke-width="0.845469" stroke-miterlimit="10"/>
<path d="M120.182 45.8711L130.798 53.3491L128.276 56.8975L117.66 49.4488" stroke="#467BCD" stroke-width="1.81794" stroke-miterlimit="10"/>
</g>
<g filter="url(#filter0_d_30215_28460)">
<path d="M493.483 515.508C477.468 521.447 449.758 521.871 437.641 521.871V141.312C467.669 141.312 527.198 142.706 554.592 153.842C558.918 155.601 562.494 158.084 564.601 170.281C566.708 182.478 566.708 276.739 560.914 292.781C556.699 304.447 538.261 309.751 524.037 322.478C512.33 332.953 506.067 343.69 508.233 382.932C509.287 402.023 516.662 473.083 517.716 483.69C518.769 494.296 513.501 508.083 493.483 515.508Z" fill="#1E2E47"/>
<path d="M381.026 515.508C397.178 521.447 425.421 521.871 437.641 521.871V141.312C407.356 141.312 347.022 142.706 319.393 153.842C315.667 155.344 311.423 158.084 309.298 170.281C307.173 182.478 307.173 276.739 313.017 292.781C317.268 304.448 335.864 309.751 350.21 322.478C362.017 332.953 368.333 343.69 366.149 382.932C365.086 402.023 357.648 473.083 356.585 483.69C355.523 494.296 360.836 508.083 381.026 515.508Z" fill="#1E2E47"/>
<rect x="351.2" y="181.6" width="171.2" height="108.8" rx="5.57597" fill="#467BCD"/>
<path d="M390.4 336.776C390.4 333.696 392.896 331.2 395.976 331.2H478.424C481.504 331.2 484 333.696 484 336.776V452.8H390.4V336.776Z" fill="#2F466A"/>
<path d="M396.697 340.388C396.697 339.233 397.633 338.297 398.788 338.297H475.612C476.767 338.297 477.703 339.233 477.703 340.388V453.703H396.697V340.388Z" fill="#2F466A" stroke="#1E2E47" stroke-width="1.39399"/>
<rect x="362.4" y="192.8" width="41.6" height="14.4" rx="7.2" fill="#6398EB"/>
<rect x="409.6" y="192.8" width="14.4" height="14.4" rx="7.2" fill="#6398EB"/>
<rect x="477.6" y="192.8" width="14.4" height="14.4" rx="7.2" fill="#6398EB"/>
<rect x="497.583" y="192.889" width="14.4" height="14.4" rx="7.2" fill="#6398EB"/>
<rect x="362.4" y="212.8" width="148.8" height="65.6" rx="5.57597" fill="#AEE83A"/>
<rect x="375.2" y="251.146" width="34.4" height="4.79897" rx="2.39949" fill="#D8FF8A"/>
<rect x="375.2" y="260.745" width="48.8" height="4.799" rx="2.3995" fill="#D8FF8A"/>
<rect x="375.2" y="224.8" width="43.2" height="14.4" rx="7.2" fill="#C8FF5B"/>
<path d="M457.506 245.861C457.506 244.898 456.725 244.118 455.763 244.118C454.801 244.118 454.021 244.898 454.021 245.861L457.506 245.861ZM454.531 266.61C455.211 267.29 456.315 267.29 456.995 266.61L468.084 255.52C468.765 254.84 468.765 253.737 468.084 253.056C467.404 252.376 466.301 252.376 465.62 253.056L455.763 262.913L445.906 253.056C445.226 252.376 444.122 252.376 443.442 253.056C442.761 253.737 442.761 254.84 443.442 255.52L454.531 266.61ZM454.021 245.861L454.021 265.377L457.506 265.377L457.506 245.861L454.021 245.861Z" fill="#8CBE28"/>
<path d="M486.082 265.376C486.082 266.339 486.863 267.119 487.825 267.119C488.787 267.119 489.567 266.339 489.567 265.376L486.082 265.376ZM489.057 244.628C488.377 243.947 487.273 243.947 486.593 244.628L475.504 255.717C474.823 256.397 474.823 257.501 475.504 258.181C476.184 258.862 477.287 258.862 477.968 258.181L487.825 248.324L497.682 258.181C498.362 258.862 499.466 258.862 500.146 258.181C500.827 257.501 500.827 256.397 500.146 255.717L489.057 244.628ZM489.567 265.376L489.567 245.86L486.082 245.86L486.082 265.376L489.567 265.376Z" fill="#8CBE28"/>
<rect x="407.2" y="346.4" width="28" height="13.6" rx="2.78798" fill="#9DBAE7"/>
<rect x="439.2" y="346.4" width="28" height="13.6" rx="2.78798" fill="#9DBAE7"/>
<path d="M461.339 398.503C461.339 411.976 450.417 422.898 436.944 422.898C423.471 422.898 412.549 411.976 412.549 398.503C412.549 385.03 423.471 374.108 436.944 374.108C450.417 374.108 461.339 385.03 461.339 398.503ZM421.945 398.503C421.945 406.787 428.66 413.503 436.944 413.503C445.228 413.503 451.944 406.787 451.944 398.503C451.944 390.219 445.228 383.504 436.944 383.504C428.66 383.504 421.945 390.219 421.945 398.503Z" fill="#9DBAE7"/>
<rect x="436.247" y="371.32" width="1.39399" height="54.3657" fill="#2F466A"/>
<rect x="409.761" y="399.2" width="1.39399" height="54.3657" transform="rotate(-90 409.761 399.2)" fill="#2F466A"/>
<circle cx="436.945" cy="398.503" r="9.06129" fill="#1E2E47"/>
</g>
<circle opacity="0.4" cx="555.433" cy="151.766" r="77.3665" fill="#00AC6E"/>
<circle opacity="0.6" cx="555.433" cy="151.766" r="60.174" fill="#00AC6E"/>
<circle cx="555.433" cy="151.766" r="35.6132" fill="#2BE76B"/>
<path d="M537.013 151.599L549.29 162.819L575.082 138.258" stroke="white" stroke-width="8.36395"/>
</g>
<defs>
<filter id="filter0_d_30215_28460" x="280.12" y="127.372" width="313.648" height="436.319" filterUnits="userSpaceOnUse" color-interpolation-filters="sRGB">
<feFlood flood-opacity="0" result="BackgroundImageFix"/>
<feColorMatrix in="SourceAlpha" type="matrix" values="0 0 0 0 0 0 0 0 0 0 0 0 0 0 0 0 0 0 127 0" result="hardAlpha"/>
<feOffset dy="13.9399"/>
<feGaussianBlur stdDeviation="13.9399"/>
<feComposite in2="hardAlpha" operator="out"/>
<feColorMatrix type="matrix" values="0 0 0 0 0.117647 0 0 0 0 0.180392 0 0 0 0 0.278431 0 0 0 0.4 0"/>
<feBlend mode="normal" in2="BackgroundImageFix" result="effect1_dropShadow_30215_28460"/>
<feBlend mode="normal" in="SourceGraphic" in2="effect1_dropShadow_30215_28460" result="shape"/>
</filter>
<clipPath id="clip0_30215_28460">
<rect width="608" height="448" rx="6.4" fill="white"/>
</clipPath>
<clipPath id="clip1_30215_28460">
<rect width="540.043" height="742.447" fill="white" transform="translate(164.8 0.799805)"/>
</clipPath>
<clipPath id="clip2_30215_28460">
<rect width="100" height="83.3333" fill="white" transform="translate(32 32)"/>
</clipPath>
</defs>
</svg>
