<svg width="608" height="448" viewBox="0 0 608 448" fill="none" xmlns="http://www.w3.org/2000/svg">
<g clip-path="url(#clip0_30522_48112)">
<rect width="608" height="448" rx="6.4" fill="#EEFAFF"/>
<path d="M404.066 106.4L365.6 144.867L372.954 152.221L411.42 113.754L404.066 106.4Z" fill="white"/>
<path d="M540.066 418.4L501.6 456.867L508.954 464.221L547.42 425.754L540.066 418.4Z" fill="white"/>
<path d="M326.286 99.3363H348V110.379H326.286V132H315.313V110.263H293.6V99.22H315.313V77.5996H326.286V99.3363Z" fill="white"/>
<path d="M411.087 425.737H432.8V436.78H411.087V458.4H400.114V436.663H378.4V425.62H400.114V404H411.087V425.737Z" fill="white"/>
<path d="M281.136 46.0722H288.8V49.9697H281.136V57.6004H277.263V49.9286H269.6V46.0311H277.263V38.4004H281.136V46.0722Z" fill="white"/>
<path d="M509.153 50.0636H524.8V58.021H509.153V73.6004H501.246V57.9372H485.6V49.9798H501.246V34.4004H509.153V50.0636Z" fill="white"/>
<path d="M216.045 168.473L226.276 158.242L231.479 163.445L221.248 173.677L231.436 183.864L226.265 189.035L216.023 178.792L205.791 189.024L200.588 183.82L210.819 173.589L200.632 163.402L205.802 158.231L216.045 168.473Z" fill="white"/>
<path d="M515.244 394.874L525.475 384.642L530.679 389.846L520.447 400.077L530.635 410.264L525.464 415.435L515.222 405.193L504.991 415.424L499.787 410.221L510.018 399.989L499.831 389.802L505.002 384.631L515.244 394.874Z" fill="white"/>
<path d="M405.644 58.8735L415.876 48.6422L421.079 53.8456L410.848 64.0769L421.035 74.2645L415.865 79.4352L405.622 69.1929L395.391 79.4242L390.188 74.2208L400.419 63.9895L390.231 53.8019L395.402 48.6312L405.644 58.8735Z" fill="white"/>
<path d="M557.6 -10.4004V43.9996H568V-10.4004H557.6Z" fill="white"/>
<path d="M454.4 81.5996V125.6H463.2V81.5996H454.4Z" fill="white"/>
<path d="M264 173.6V228H274.4V173.6H264Z" fill="white"/>
<g clip-path="url(#clip1_30522_48112)">
<path d="M221.666 54.457H173.482V65.1613H192.239V102.972H202.909V65.1613H221.666V54.457Z" fill="#2A2D30"/>
<path d="M242.81 54.293H231.795V65.1698V102.98H242.81V54.293Z" fill="#2A2D30"/>
<path d="M86.74 70.6858H118.747V87.0877H86.74V119.2H70.564V86.915H38.5566V70.5131H70.564V38.4004H86.74V70.6858ZM134.923 38.4004V119.2H151.099V38.4004H134.923Z" fill="#1DAFF7"/>
</g>
<path d="M315 145.386C315 140.526 318.94 136.586 323.8 136.586H636.2C641.06 136.586 645 140.526 645 145.386V356.897C645 361.757 641.06 365.697 636.2 365.697H323.8C318.94 365.697 315 361.757 315 356.897V145.386Z" fill="#1DAFF7"/>
<path d="M315 145.386C315 140.526 318.94 136.586 323.8 136.586H636.2C641.06 136.586 645 140.526 645 145.386V356.897C645 361.757 641.06 365.697 636.2 365.697H323.8C318.94 365.697 315 361.757 315 356.897V145.386Z" fill="url(#paint0_linear_30522_48112)" fill-opacity="0.24"/>
<path d="M326.001 134.423C326.001 129.563 329.941 125.623 334.801 125.623H625.201C630.061 125.623 634.001 129.563 634.001 134.423V136.585H326.001V134.423Z" fill="#169EE2"/>
<path d="M326.001 134.423C326.001 129.563 329.941 125.623 334.801 125.623H625.201C630.061 125.623 634.001 129.563 634.001 134.423V136.585H326.001V134.423Z" fill="url(#paint1_linear_30522_48112)" fill-opacity="0.12"/>
<path d="M535.672 83.9953C535.672 79.1352 539.612 75.1953 544.472 75.1953H588.472C593.332 75.1953 597.272 79.1352 597.272 83.9953V136.584H535.672V83.9953Z" fill="#F71D3A"/>
<path d="M535.672 83.9953C535.672 79.1352 539.612 75.1953 544.472 75.1953H588.472C593.332 75.1953 597.272 79.1352 597.272 83.9953V136.584H535.672V83.9953Z" fill="url(#paint2_linear_30522_48112)" fill-opacity="0.3"/>
<path d="M570.755 91.6133H562.19V101.606H552.197V110.171H562.19V120.164H570.755V110.171H580.748V101.606H570.755V91.6133Z" fill="white"/>
<ellipse cx="462.342" cy="253.722" rx="68.1781" ry="67.9442" fill="#3ABEFF"/>
<path d="M545.783 221.05L536.418 213.954L547.246 209.391L545.783 221.05ZM543.274 215.462L542.361 215.911C541.767 214.702 541.145 213.509 540.496 212.332L541.388 211.841L542.279 211.35C542.943 212.555 543.579 213.776 544.187 215.013L543.274 215.462ZM539.336 208.31L538.468 208.842C537.764 207.693 537.035 206.562 536.281 205.449L537.123 204.878L537.965 204.307C538.737 205.446 539.484 206.603 540.203 207.778L539.336 208.31ZM534.755 201.552L533.94 202.161C533.134 201.082 532.304 200.023 531.45 198.983L532.237 198.337L533.023 197.691C533.896 198.755 534.746 199.839 535.57 200.942L534.755 201.552ZM529.574 195.241L528.818 195.922C527.917 194.922 526.994 193.942 526.049 192.984L526.773 192.269L527.497 191.555C528.465 192.535 529.409 193.537 530.33 194.56L529.574 195.241ZM523.84 189.428L523.149 190.175C522.161 189.261 521.153 188.37 520.124 187.501L520.781 186.723L521.437 185.946C522.489 186.835 523.521 187.747 524.531 188.681L523.84 189.428ZM517.602 184.16L516.981 184.967C515.916 184.147 514.83 183.35 513.727 182.578L514.31 181.744L514.893 180.91C516.022 181.7 517.132 182.515 518.222 183.354L517.602 184.16ZM510.912 179.479L510.367 180.339C509.231 179.619 508.079 178.924 506.909 178.255L507.414 177.372L507.92 176.488C509.116 177.173 510.295 177.884 511.456 178.62L510.912 179.479ZM503.825 175.425L503.36 176.33C502.165 175.717 500.954 175.129 499.728 174.569L500.151 173.643L500.574 172.718C501.828 173.291 503.067 173.892 504.29 174.52L503.825 175.425ZM496.399 172.03L496.019 172.974C494.773 172.471 493.513 171.996 492.24 171.549L492.578 170.589L492.915 169.629C494.217 170.087 495.506 170.572 496.78 171.086L496.399 172.03ZM488.696 169.324L488.403 170.299C487.118 169.912 485.821 169.553 484.512 169.224L484.761 168.237L485.009 167.25C486.348 167.587 487.675 167.954 488.989 168.35L488.696 169.324ZM480.779 167.329L480.575 168.326C479.261 168.058 477.936 167.818 476.601 167.607L476.76 166.602L476.918 165.597C478.283 165.812 479.638 166.057 480.983 166.332L480.779 167.329ZM472.712 166.058L472.599 167.069C471.268 166.92 469.928 166.801 468.579 166.711L468.647 165.695L468.714 164.68C470.093 164.772 471.464 164.894 472.825 165.046L472.712 166.058ZM464.568 165.515L464.545 166.532C463.873 166.517 463.199 166.51 462.522 166.51V165.492V164.475C463.214 164.475 463.903 164.482 464.59 164.497L464.568 165.515ZM462.522 165.492V166.51C461.839 166.51 461.158 166.517 460.478 166.533L460.455 165.515L460.433 164.498C461.127 164.482 461.824 164.475 462.522 164.475V165.492ZM456.339 165.699L456.407 166.715C455.046 166.806 453.693 166.928 452.35 167.08L452.236 166.069L452.122 165.057C453.496 164.902 454.879 164.778 456.271 164.684L456.339 165.699ZM448.153 166.623L448.313 167.628C446.967 167.842 445.631 168.086 444.305 168.36L444.1 167.363L443.894 166.366C445.25 166.087 446.616 165.837 447.993 165.618L448.153 166.623ZM440.085 168.287L440.335 169.274C439.015 169.61 437.706 169.975 436.41 170.369L436.114 169.395L435.818 168.422C437.144 168.019 438.483 167.645 439.834 167.301L440.085 168.287ZM432.199 170.684L432.539 171.643C431.256 172.098 429.986 172.582 428.731 173.094L428.347 172.151L427.963 171.209C429.247 170.686 430.546 170.191 431.858 169.725L432.199 170.684ZM424.567 173.793L424.994 174.717C423.758 175.288 422.538 175.886 421.335 176.511L420.866 175.607L420.397 174.704C421.628 174.065 422.876 173.454 424.14 172.87L424.567 173.793ZM417.252 177.589L417.762 178.47C416.585 179.151 415.425 179.858 414.283 180.591L413.734 179.734L413.184 178.878C414.352 178.129 415.539 177.405 416.743 176.708L417.252 177.589ZM410.317 182.039L410.905 182.869C409.795 183.655 408.705 184.465 407.634 185.299L407.009 184.497L406.383 183.694C407.478 182.841 408.594 182.012 409.729 181.208L410.317 182.039ZM403.817 187.104L404.479 187.877C403.446 188.761 402.434 189.667 401.444 190.596L400.748 189.854L400.052 189.112C401.064 188.162 402.099 187.234 403.155 186.331L403.817 187.104ZM397.808 192.743L398.538 193.452C397.591 194.426 396.667 195.422 395.766 196.438L395.004 195.763L394.243 195.088C395.165 194.048 396.11 193.03 397.079 192.033L397.808 192.743ZM392.342 198.909L393.134 199.548C392.281 200.605 391.453 201.681 390.649 202.777L389.829 202.175L389.008 201.573C389.83 200.452 390.678 199.351 391.551 198.27L392.342 198.909ZM387.469 205.554L388.316 206.117C387.565 207.247 386.84 208.396 386.141 209.561L385.268 209.038L384.395 208.515C385.11 207.322 385.853 206.147 386.621 204.99L387.469 205.554ZM383.232 212.622L384.128 213.103C383.486 214.298 382.871 215.509 382.284 216.736L381.366 216.296L380.448 215.857C381.049 214.602 381.679 213.362 382.336 212.14L383.232 212.622ZM379.675 220.055L380.612 220.451C380.085 221.699 379.586 222.963 379.117 224.24L378.162 223.889L377.207 223.538C377.687 222.23 378.198 220.937 378.737 219.659L379.675 220.055ZM376.831 227.79L377.802 228.096C377.395 229.387 377.018 230.692 376.671 232.008L375.687 231.749L374.703 231.489C375.058 230.142 375.444 228.807 375.861 227.485L376.831 227.79ZM374.731 235.757L375.726 235.97C375.443 237.293 375.191 238.627 374.969 239.971L373.965 239.806L372.961 239.64C373.188 238.264 373.447 236.899 373.736 235.544L374.731 235.757ZM373.391 243.886L374.402 244.004C374.245 245.346 374.119 246.698 374.024 248.059L373.009 247.988L371.994 247.917C372.091 246.525 372.22 245.142 372.38 243.767L373.391 243.886ZM372.818 252.104L373.835 252.127C373.819 252.807 373.812 253.488 373.812 254.171H372.794H371.776C371.776 253.472 371.784 252.775 371.801 252.08L372.818 252.104ZM372.794 254.171H373.812C373.812 254.825 373.819 255.477 373.833 256.127L372.816 256.15L371.799 256.172C371.784 255.507 371.776 254.84 371.776 254.171H372.794ZM372.992 260.104L374.007 260.036C374.094 261.343 374.211 262.642 374.355 263.932L373.344 264.046L372.333 264.159C372.185 262.838 372.066 261.509 371.976 260.171L372.992 260.104ZM373.873 267.968L374.879 267.809C375.083 269.101 375.316 270.384 375.577 271.657L374.58 271.862L373.583 272.066C373.316 270.763 373.077 269.449 372.868 268.126L373.873 267.968ZM375.462 275.72L376.448 275.47C376.768 276.738 377.116 277.995 377.492 279.24L376.518 279.534L375.543 279.827C375.159 278.553 374.803 277.266 374.475 275.969L375.462 275.72ZM377.746 283.296L378.705 282.958C378.922 283.574 379.145 284.187 379.375 284.796L378.423 285.155L377.471 285.514C377.236 284.891 377.007 284.264 376.786 283.633L377.746 283.296ZM545.783 221.05L536.418 213.954L547.246 209.391L545.783 221.05ZM543.274 215.462L542.361 215.911C541.767 214.702 541.145 213.509 540.496 212.332L541.388 211.841L542.279 211.35C542.943 212.555 543.579 213.776 544.187 215.013L543.274 215.462ZM539.336 208.31L538.468 208.842C537.764 207.693 537.035 206.562 536.281 205.449L537.123 204.878L537.965 204.307C538.737 205.446 539.484 206.603 540.203 207.778L539.336 208.31ZM534.755 201.552L533.94 202.161C533.134 201.082 532.304 200.023 531.45 198.983L532.237 198.337L533.023 197.691C533.896 198.755 534.746 199.839 535.57 200.942L534.755 201.552ZM529.574 195.241L528.818 195.922C527.917 194.922 526.994 193.942 526.049 192.984L526.773 192.269L527.497 191.555C528.465 192.535 529.409 193.537 530.33 194.56L529.574 195.241ZM523.84 189.428L523.149 190.175C522.161 189.261 521.153 188.37 520.124 187.501L520.781 186.723L521.437 185.946C522.489 186.835 523.521 187.747 524.531 188.681L523.84 189.428ZM517.602 184.16L516.981 184.967C515.916 184.147 514.83 183.35 513.727 182.578L514.31 181.744L514.893 180.91C516.022 181.7 517.132 182.515 518.222 183.354L517.602 184.16ZM510.912 179.479L510.367 180.339C509.231 179.619 508.079 178.924 506.909 178.255L507.414 177.372L507.92 176.488C509.116 177.173 510.295 177.884 511.456 178.62L510.912 179.479ZM503.825 175.425L503.36 176.33C502.165 175.717 500.954 175.129 499.728 174.569L500.151 173.643L500.574 172.718C501.828 173.291 503.067 173.892 504.29 174.52L503.825 175.425ZM496.399 172.03L496.019 172.974C494.773 172.471 493.513 171.996 492.24 171.549L492.578 170.589L492.915 169.629C494.217 170.087 495.506 170.572 496.78 171.086L496.399 172.03ZM488.696 169.324L488.403 170.299C487.118 169.912 485.821 169.553 484.512 169.224L484.761 168.237L485.009 167.25C486.348 167.587 487.675 167.954 488.989 168.35L488.696 169.324ZM480.779 167.329L480.575 168.326C479.261 168.058 477.936 167.818 476.601 167.607L476.76 166.602L476.918 165.597C478.283 165.812 479.638 166.057 480.983 166.332L480.779 167.329ZM472.712 166.058L472.599 167.069C471.268 166.92 469.928 166.801 468.579 166.711L468.647 165.695L468.714 164.68C470.093 164.772 471.464 164.894 472.825 165.046L472.712 166.058ZM464.568 165.515L464.545 166.532C463.873 166.517 463.199 166.51 462.522 166.51V165.492V164.475C463.214 164.475 463.903 164.482 464.59 164.497L464.568 165.515ZM462.522 165.492V166.51C461.839 166.51 461.158 166.517 460.478 166.533L460.455 165.515L460.433 164.498C461.127 164.482 461.824 164.475 462.522 164.475V165.492ZM456.339 165.699L456.407 166.715C455.046 166.806 453.693 166.928 452.35 167.08L452.236 166.069L452.122 165.057C453.496 164.902 454.879 164.778 456.271 164.684L456.339 165.699ZM448.153 166.623L448.313 167.628C446.967 167.842 445.631 168.086 444.305 168.36L444.1 167.363L443.894 166.366C445.25 166.087 446.616 165.837 447.993 165.618L448.153 166.623ZM440.085 168.287L440.335 169.274C439.015 169.61 437.706 169.975 436.41 170.369L436.114 169.395L435.818 168.422C437.144 168.019 438.483 167.645 439.834 167.301L440.085 168.287ZM432.199 170.684L432.539 171.643C431.256 172.098 429.986 172.582 428.731 173.094L428.347 172.151L427.963 171.209C429.247 170.686 430.546 170.191 431.858 169.725L432.199 170.684ZM424.567 173.793L424.994 174.717C423.758 175.288 422.538 175.886 421.335 176.511L420.866 175.607L420.397 174.704C421.628 174.065 422.876 173.454 424.14 172.87L424.567 173.793ZM417.252 177.589L417.762 178.47C416.585 179.151 415.425 179.858 414.283 180.591L413.734 179.734L413.184 178.878C414.352 178.129 415.539 177.405 416.743 176.708L417.252 177.589ZM410.317 182.039L410.905 182.869C409.795 183.655 408.705 184.465 407.634 185.299L407.009 184.497L406.383 183.694C407.478 182.841 408.594 182.012 409.729 181.208L410.317 182.039ZM403.817 187.104L404.479 187.877C403.446 188.761 402.434 189.667 401.444 190.596L400.748 189.854L400.052 189.112C401.064 188.162 402.099 187.234 403.155 186.331L403.817 187.104ZM397.808 192.743L398.538 193.452C397.591 194.426 396.667 195.422 395.766 196.438L395.004 195.763L394.243 195.088C395.165 194.048 396.11 193.03 397.079 192.033L397.808 192.743ZM392.342 198.909L393.134 199.548C392.281 200.605 391.453 201.681 390.649 202.777L389.829 202.175L389.008 201.573C389.83 200.452 390.678 199.351 391.551 198.27L392.342 198.909ZM387.469 205.554L388.316 206.117C387.565 207.247 386.84 208.396 386.141 209.561L385.268 209.038L384.395 208.515C385.11 207.322 385.853 206.147 386.621 204.99L387.469 205.554ZM383.232 212.622L384.128 213.103C383.486 214.298 382.871 215.509 382.284 216.736L381.366 216.296L380.448 215.857C381.049 214.602 381.679 213.362 382.336 212.14L383.232 212.622ZM379.675 220.055L380.612 220.451C380.085 221.699 379.586 222.963 379.117 224.24L378.162 223.889L377.207 223.538C377.687 222.23 378.198 220.937 378.737 219.659L379.675 220.055ZM376.831 227.79L377.802 228.096C377.395 229.387 377.018 230.692 376.671 232.008L375.687 231.749L374.703 231.489C375.058 230.142 375.444 228.807 375.861 227.485L376.831 227.79ZM374.731 235.757L375.726 235.97C375.443 237.293 375.191 238.627 374.969 239.971L373.965 239.806L372.961 239.64C373.188 238.264 373.447 236.899 373.736 235.544L374.731 235.757ZM373.391 243.886L374.402 244.004C374.245 245.346 374.119 246.698 374.024 248.059L373.009 247.988L371.994 247.917C372.091 246.525 372.22 245.142 372.38 243.767L373.391 243.886ZM372.818 252.104L373.835 252.127C373.819 252.807 373.812 253.488 373.812 254.171H372.794H371.776C371.776 253.472 371.784 252.775 371.801 252.08L372.818 252.104ZM372.794 254.171H373.812C373.812 254.825 373.819 255.477 373.833 256.127L372.816 256.15L371.799 256.172C371.784 255.507 371.776 254.84 371.776 254.171H372.794ZM372.992 260.104L374.007 260.036C374.094 261.343 374.211 262.642 374.355 263.932L373.344 264.046L372.333 264.159C372.185 262.838 372.066 261.509 371.976 260.171L372.992 260.104ZM373.873 267.968L374.879 267.809C375.083 269.101 375.316 270.384 375.577 271.657L374.58 271.862L373.583 272.066C373.316 270.763 373.077 269.449 372.868 268.126L373.873 267.968ZM375.462 275.72L376.448 275.47C376.768 276.738 377.116 277.995 377.492 279.24L376.518 279.534L375.543 279.827C375.159 278.553 374.803 277.266 374.475 275.969L375.462 275.72ZM377.746 283.296L378.705 282.958C378.922 283.574 379.145 284.187 379.375 284.796L378.423 285.155L377.471 285.514C377.236 284.891 377.007 284.264 376.786 283.633L377.746 283.296Z" fill="#036AB1"/>
<ellipse cx="462.341" cy="253.72" rx="59.0198" ry="58.8174" fill="#5FCAFF"/>
<ellipse cx="462.341" cy="253.72" rx="40.7033" ry="40.5637" fill="url(#paint3_linear_30522_48112)"/>
<path d="M489.408 201.979C488.385 205.675 487.068 206.938 483.426 207.961C487.068 208.983 488.385 210.246 489.408 213.943C490.431 210.246 491.749 208.983 495.39 207.961C491.749 206.938 490.431 205.675 489.408 201.979ZM478.939 207.961C477.149 214.43 474.845 216.641 468.471 218.429C474.845 220.218 477.149 222.429 478.939 228.898C480.73 222.429 483.034 220.218 489.408 218.429C483.034 216.641 480.73 214.43 478.939 207.961Z" fill="white"/>
<path d="M477.43 247.507C478.136 247.507 478.813 247.788 479.313 248.287C479.812 248.786 480.092 249.463 480.092 250.169C480.092 254.415 478.571 258.52 475.803 261.74C473.035 264.96 469.204 267.081 465.006 267.718V273.241H470.33C471.036 273.241 471.714 273.521 472.213 274.021C472.712 274.52 472.992 275.197 472.992 275.903C472.992 276.609 472.712 277.286 472.213 277.785C471.714 278.284 471.036 278.565 470.33 278.565H454.356C453.651 278.565 452.974 278.284 452.475 277.785C451.975 277.286 451.694 276.609 451.694 275.903C451.694 275.197 451.975 274.52 452.475 274.021C452.974 273.521 453.651 273.241 454.356 273.241H459.682V267.718C455.484 267.081 451.653 264.96 448.885 261.74C446.117 258.52 444.594 254.415 444.595 250.169C444.595 249.463 444.876 248.786 445.375 248.287C445.874 247.788 446.551 247.507 447.257 247.507C447.963 247.507 448.64 247.788 449.14 248.287C449.639 248.786 449.92 249.463 449.92 250.169C449.92 253.464 451.229 256.624 453.559 258.954C455.889 261.284 459.049 262.593 462.344 262.593C465.639 262.593 468.799 261.284 471.129 258.954C473.459 256.624 474.768 253.464 474.768 250.169C474.768 249.463 475.048 248.786 475.547 248.287C476.046 247.788 476.724 247.507 477.43 247.507ZM462.343 228.869C464.225 228.869 466.031 229.618 467.362 230.949C468.694 232.281 469.441 234.086 469.441 235.969V250.166C469.441 252.049 468.694 253.855 467.362 255.187C466.031 256.518 464.225 257.266 462.343 257.266C460.46 257.266 458.654 256.518 457.322 255.187C455.991 253.855 455.243 252.049 455.243 250.166V235.969C455.243 234.086 455.991 232.281 457.322 230.949C458.654 229.618 460.46 228.869 462.343 228.869Z" fill="white"/>
<rect width="2.54396" height="2.37436" rx="1.18718" transform="matrix(-1 0 0 1 458.34 303.744)" fill="white"/>
<rect width="2.54396" height="4.74872" rx="1.27198" transform="matrix(-1 0 0 1 453.049 302.557)" fill="white"/>
<rect width="2.54396" height="7.12309" rx="1.27198" transform="matrix(-1 0 0 1 447.757 301.369)" fill="white"/>
<rect width="2.54396" height="16.6205" rx="1.27198" transform="matrix(-1 0 0 1 442.466 296.621)" fill="white"/>
<rect width="2.54396" height="11.8718" rx="1.27198" transform="matrix(-1 0 0 1 437.174 298.996)" fill="white"/>
<rect width="2.54396" height="7.12309" rx="1.27198" transform="matrix(-1 0 0 1 431.883 301.369)" fill="white"/>
<rect width="2.54396" height="4.74872" rx="1.27198" transform="matrix(-1 0 0 1 426.591 302.557)" fill="white"/>
<rect width="2.54396" height="14.2462" rx="1.27198" transform="matrix(-1 0 0 1 421.3 297.809)" fill="white"/>
<rect width="2.54396" height="21.3693" rx="1.27198" transform="matrix(-1 0 0 1 416.009 294.246)" fill="white"/>
<rect width="2.54396" height="33.2411" rx="1.27198" transform="matrix(-1 0 0 1 410.717 288.311)" fill="white"/>
<rect width="2.54396" height="49.8616" rx="1.27198" transform="matrix(-1 0 0 1 405.426 280)" fill="white"/>
<rect width="2.54396" height="35.6154" rx="1.27198" transform="matrix(-1 0 0 1 400.134 287.123)" fill="white"/>
<rect width="2.54396" height="16.6205" rx="1.27198" transform="matrix(-1 0 0 1 394.843 296.621)" fill="white"/>
<rect width="2.54396" height="11.8718" rx="1.27198" transform="matrix(-1 0 0 1 389.551 298.996)" fill="white"/>
<rect width="2.54396" height="4.74872" rx="1.27198" transform="matrix(-1 0 0 1 384.26 302.557)" fill="white"/>
<rect width="2.54396" height="9.49745" rx="1.27198" transform="matrix(-1 0 0 1 378.969 300.182)" fill="white"/>
<rect width="2.54396" height="7.12309" rx="1.27198" transform="matrix(-1 0 0 1 373.677 301.369)" fill="white"/>
<rect width="2.54396" height="4.74872" rx="1.27198" transform="matrix(-1 0 0 1 368.386 302.557)" fill="white"/>
<rect width="2.54396" height="9.49745" rx="1.27198" transform="matrix(-1 0 0 1 363.094 300.182)" fill="white"/>
<rect width="2.54396" height="14.2462" rx="1.27198" transform="matrix(-1 0 0 1 357.803 297.809)" fill="white"/>
<rect width="2.54396" height="9.49745" rx="1.27198" transform="matrix(-1 0 0 1 352.511 300.182)" fill="white"/>
<rect width="2.54396" height="7.12309" rx="1.27198" transform="matrix(-1 0 0 1 347.22 301.369)" fill="white"/>
<rect width="2.54396" height="2.37436" rx="1.18718" transform="matrix(-1 0 0 1 341.929 303.744)" fill="white"/>
<rect x="541.713" y="274.004" width="55.9671" height="4.05637" rx="2.02819" fill="white"/>
<rect x="541.713" y="282.115" width="38.6682" height="4.05637" rx="2.02819" fill="white"/>
<rect x="541.713" y="292.256" width="55.9671" height="2.53523" rx="1.26762" fill="#85D7FF"/>
<rect x="541.713" y="299.355" width="46.8088" height="2.53523" rx="1.26762" fill="#85D7FF"/>
<rect x="541.713" y="306.451" width="50.8792" height="2.53523" rx="1.26762" fill="#85D7FF"/>
<rect x="541.713" y="313.551" width="53.9319" height="2.53523" rx="1.26762" fill="#85D7FF"/>
<rect x="541.713" y="320.65" width="26.4572" height="2.53523" rx="1.26762" fill="#85D7FF"/>
<rect x="541.713" y="230.393" width="36.633" height="36.5073" rx="18.2537" fill="#036AB1"/>
<path d="M560.029 240.521C561.107 240.521 562.14 240.95 562.902 241.712C563.664 242.474 564.092 243.507 564.092 244.585C564.092 245.662 563.664 246.696 562.902 247.458C562.14 248.22 561.107 248.648 560.029 248.648C558.951 248.648 557.918 248.22 557.156 247.458C556.394 246.696 555.966 245.662 555.966 244.585C555.966 243.507 556.394 242.474 557.156 241.712C557.918 240.95 558.951 240.521 560.029 240.521ZM560.029 256.775C560.029 256.775 568.156 256.775 568.156 254.743C568.156 252.305 564.194 249.664 560.029 249.664C555.864 249.664 551.902 252.305 551.902 254.743C551.902 256.775 560.029 256.775 560.029 256.775Z" fill="white"/>
</g>
<defs>
<linearGradient id="paint0_linear_30522_48112" x1="480" y1="136.586" x2="480" y2="365.697" gradientUnits="userSpaceOnUse">
<stop stop-color="#025F9E" stop-opacity="0"/>
<stop offset="1" stop-color="#025F9E"/>
</linearGradient>
<linearGradient id="paint1_linear_30522_48112" x1="480.001" y1="131.104" x2="480.001" y2="136.585" gradientUnits="userSpaceOnUse">
<stop stop-color="#036AB1" stop-opacity="0"/>
<stop offset="1" stop-color="#036AB1"/>
</linearGradient>
<linearGradient id="paint2_linear_30522_48112" x1="566.472" y1="105.89" x2="566.472" y2="136.584" gradientUnits="userSpaceOnUse">
<stop stop-opacity="0"/>
<stop offset="1"/>
</linearGradient>
<linearGradient id="paint3_linear_30522_48112" x1="462.341" y1="213.156" x2="462.341" y2="294.284" gradientUnits="userSpaceOnUse">
<stop stop-color="#0366AD"/>
<stop offset="1" stop-color="#069CE6"/>
</linearGradient>
<clipPath id="clip0_30522_48112">
<rect width="608" height="448" rx="6.4" fill="white"/>
</clipPath>
<clipPath id="clip1_30522_48112">
<rect width="206.4" height="80.8" fill="white" transform="translate(38.4004 38.4004)"/>
</clipPath>
</defs>
</svg>
