<svg width="588" height="588" viewBox="0 0 588 588" fill="none" xmlns="http://www.w3.org/2000/svg">
<g clip-path="url(#clip0_30215_26821)">
<rect width="588" height="588" fill="white"/>
<rect x="385.399" y="490.849" width="81.8763" height="47.7511" fill="#4F5769"/>
<path d="M343.608 542.011C343.608 540.127 345.135 538.6 347.019 538.6H505.655C507.539 538.6 509.066 540.127 509.066 542.011V544.569H343.608V542.011Z" fill="#4F5769"/>
<g filter="url(#filter0_d_30215_26821)">
<rect x="244.674" y="270" width="363.326" height="231.081" rx="14.5211" fill="#575F70"/>
</g>
<rect x="259.173" y="284.496" width="334.328" height="203.795" rx="4.84036" fill="#FAFBFF"/>
<circle cx="446.154" cy="360.186" r="16.3362" fill="#A4C76C"/>
<circle cx="446.154" cy="360.186" r="6.6555" fill="white"/>
<rect x="472.392" y="350.205" width="92.9638" height="3.41151" rx="1.70576" fill="#D1D3DD"/>
<rect x="472.392" y="358.734" width="44.3497" height="3.41151" rx="1.70576" fill="#D1D3DD"/>
<rect x="472.392" y="367.262" width="63.9659" height="3.41151" rx="1.70576" fill="#D1D3DD"/>
<circle cx="446.154" cy="403.749" r="16.3362" fill="#FFCD1E"/>
<circle cx="446.154" cy="403.749" r="6.6555" fill="white"/>
<rect x="472.393" y="393.702" width="53.7313" height="3.41151" rx="1.70576" fill="#D1D3DD"/>
<rect x="472.393" y="402.23" width="81.0235" height="3.41151" rx="1.70576" fill="#D1D3DD"/>
<rect x="472.393" y="410.759" width="29.8507" height="3.41151" rx="1.70576" fill="#D1D3DD"/>
<circle cx="446.154" cy="447.312" r="16.3362" fill="#F86D7E"/>
<circle cx="446.154" cy="447.312" r="6.6555" fill="white"/>
<rect x="472.393" y="437.198" width="87.8465" height="3.41151" rx="1.70576" fill="#D1D3DD"/>
<rect x="472.393" y="445.727" width="40.9382" height="3.41151" rx="1.70576" fill="#D1D3DD"/>
<rect x="472.393" y="454.256" width="63.9659" height="3.41151" rx="1.70576" fill="#D1D3DD"/>
<path fill-rule="evenodd" clip-rule="evenodd" d="M343.902 321.661C321.488 294.938 277.16 312.081 284.133 351.409C285.148 357.137 286.937 362.381 289.376 367.262H305.228C306.051 367.262 306.824 367.658 307.305 368.327L309.15 370.891L321.28 330.009C321.6 328.932 322.585 328.189 323.709 328.178C324.832 328.168 325.831 328.891 326.172 329.962L340.715 375.732L346.983 353.244C347.275 352.195 348.198 351.446 349.284 351.377C350.37 351.308 351.381 351.933 351.805 352.935L359.455 371.055L361.047 368.477C361.513 367.722 362.337 367.262 363.224 367.262H371.274L378.108 357.505C378.599 356.804 379.406 356.395 380.261 356.414C381.116 356.433 381.904 356.878 382.363 357.599L388.509 367.262H398.427C400.866 362.381 402.655 357.137 403.67 351.409C410.643 312.081 366.315 294.938 343.902 321.661ZM395.557 372.38H387.105C386.23 372.38 385.415 371.932 384.946 371.194L380.102 363.579L374.701 371.289C374.223 371.972 373.44 372.38 372.606 372.38H364.651L361.205 377.964C360.702 378.778 359.786 379.244 358.831 379.171C357.877 379.097 357.043 378.497 356.67 377.615L349.943 361.682L343.341 385.374C343.037 386.464 342.053 387.225 340.922 387.245C339.791 387.265 338.78 386.54 338.438 385.462L323.817 339.45L312.573 377.347C312.295 378.283 311.509 378.98 310.547 379.142C309.584 379.305 308.613 378.906 308.043 378.114L303.917 372.38H292.246C302.625 389.029 320.831 401.569 341.215 415.609C342.106 416.223 343.002 416.84 343.902 417.46C344.801 416.84 345.697 416.223 346.588 415.609C366.972 401.569 385.178 389.029 395.557 372.38Z" fill="#E4394E"/>
<rect x="283.053" y="429.523" width="104.904" height="13.6461" rx="6.82303" fill="#D1D3DD"/>
<rect x="283.053" y="449.992" width="75.0533" height="13.6461" rx="6.82303" fill="#D1D3DD"/>
<g filter="url(#filter1_d_30215_26821)">
<circle cx="290.286" cy="551.894" r="82.2862" fill="#56B4FF"/>
<circle cx="25.4119" cy="25.4119" r="25.4119" transform="matrix(-1 0 0 1 315.698 526.482)" fill="white"/>
<path d="M350.791 551.894C350.791 535.847 344.416 520.458 333.069 509.111C321.723 497.764 306.333 491.389 290.286 491.389C274.239 491.389 258.85 497.764 247.503 509.111C236.156 520.458 229.782 535.847 229.782 551.894L290.286 551.894H350.791Z" fill="white"/>
<path d="M290.891 520.432L295.126 565.205L286.656 565.205L290.891 520.432Z" fill="#373C47"/>
<circle cx="7.26054" cy="7.26054" r="7.26054" transform="matrix(-0.866025 0.5 0.5 0.866025 293.181 544.124)" fill="#373C47"/>
<circle cx="2.42018" cy="2.42018" r="2.42018" transform="matrix(-0.866025 0.5 0.5 0.866025 291.409 550.736)" fill="white"/>
<path d="M322.82 543.423H339.9C335.908 519.386 315.214 501.07 290.286 501.07C265.358 501.07 244.664 519.386 240.672 543.423H240.983C247.123 526.611 263.126 514.623 281.901 514.623C300.676 514.623 316.679 526.611 322.82 543.423Z" fill="#A4C76C"/>
<mask id="mask0_30215_26821" style="mask-type:alpha" maskUnits="userSpaceOnUse" x="240" y="501" width="100" height="43">
<path d="M322.82 543.423H339.9C335.908 519.386 315.214 501.07 290.286 501.07C265.358 501.07 244.664 519.386 240.672 543.423H240.983C247.123 526.611 263.126 514.623 281.901 514.623C300.676 514.623 316.679 526.611 322.82 543.423Z" fill="#D1D3DD"/>
</mask>
<g mask="url(#mask0_30215_26821)">
<path d="M266.084 479.288L289.076 551.894L339.9 497.44L266.084 479.288Z" fill="#FFCD1E"/>
<path d="M325.378 496.23L297.546 538.583V560.365H359.261L325.378 496.23Z" fill="#E4394E"/>
</g>
</g>
<rect x="429.749" y="308.414" width="150.107" height="22.1748" rx="2.42018" fill="#FFEA9E"/>
<rect x="472.393" y="318.648" width="63.9659" height="3.41151" rx="1.70576" fill="#E8D389"/>
<rect x="536.306" y="318.438" width="14.5211" height="3.63027" rx="1.81514" fill="#E8D389"/>
<rect x="461.305" y="318.648" width="5.97015" height="3.41151" rx="1.70576" fill="#E8D389"/>
<path d="M444.542 315.108C445.021 314.389 446.077 314.389 446.555 315.108L451.555 322.607C452.091 323.411 451.515 324.488 450.548 324.488H440.549C439.583 324.488 439.006 323.411 439.542 322.607L444.542 315.108Z" fill="#E8D389"/>
</g>
<defs>
<filter id="filter0_d_30215_26821" x="220.472" y="257.899" width="411.73" height="279.485" filterUnits="userSpaceOnUse" color-interpolation-filters="sRGB">
<feFlood flood-opacity="0" result="BackgroundImageFix"/>
<feColorMatrix in="SourceAlpha" type="matrix" values="0 0 0 0 0 0 0 0 0 0 0 0 0 0 0 0 0 0 127 0" result="hardAlpha"/>
<feOffset dy="12.1009"/>
<feGaussianBlur stdDeviation="12.1009"/>
<feComposite in2="hardAlpha" operator="out"/>
<feColorMatrix type="matrix" values="0 0 0 0 0.15 0 0 0 0 0.165625 0 0 0 0 0.2 0 0 0 1 0"/>
<feBlend mode="normal" in2="BackgroundImageFix" result="effect1_dropShadow_30215_26821"/>
<feBlend mode="normal" in="SourceGraphic" in2="effect1_dropShadow_30215_26821" result="shape"/>
</filter>
<filter id="filter1_d_30215_26821" x="183.798" y="457.507" width="212.976" height="212.976" filterUnits="userSpaceOnUse" color-interpolation-filters="sRGB">
<feFlood flood-opacity="0" result="BackgroundImageFix"/>
<feColorMatrix in="SourceAlpha" type="matrix" values="0 0 0 0 0 0 0 0 0 0 0 0 0 0 0 0 0 0 127 0" result="hardAlpha"/>
<feOffset dy="12.1009"/>
<feGaussianBlur stdDeviation="12.1009"/>
<feComposite in2="hardAlpha" operator="out"/>
<feColorMatrix type="matrix" values="0 0 0 0 0 0 0 0 0 0 0 0 0 0 0 0 0 0 0.25 0"/>
<feBlend mode="normal" in2="BackgroundImageFix" result="effect1_dropShadow_30215_26821"/>
<feBlend mode="normal" in="SourceGraphic" in2="effect1_dropShadow_30215_26821" result="shape"/>
</filter>
<clipPath id="clip0_30215_26821">
<rect width="588" height="588" fill="white"/>
</clipPath>
</defs>
</svg>
