<svg width="608" height="448" viewBox="0 0 608 448" fill="none" xmlns="http://www.w3.org/2000/svg">
<g clip-path="url(#clip0_30215_28581)">
<rect width="608" height="448" rx="6.4" fill="#262B35"/>
<path d="M75.0936 32L32 57.9776L66.8517 77.8429L91.5878 61.4145V40.7879L75.0936 32Z" fill="#E3E7EC"/>
<path d="M32 105.724L66.8517 85.0977V77.8433L32 57.978V105.724Z" fill="#C3C7CC"/>
<path d="M32 105.724L66.8517 130.935V85.0972L32 105.724Z" fill="#E3E7EC"/>
<path d="M78.4655 130.935L117.817 108.019L78.4655 85.0972V130.935Z" fill="#2465FF"/>
<path d="M117.817 61.0337L78.4708 85.0972L117.817 108.019V61.0337Z" fill="#56B4FF"/>
<path d="M102.826 53.0127L117.817 61.0339L102.826 70.2024V53.0127Z" fill="#2465FF"/>
<path d="M163.181 47.1305H158.142V60.2454H156.088V47.1305H151.07V45.27H163.181V47.1305Z" fill="white"/>
<path d="M176.61 58.3848V60.2454H165.95V45.27H176.319V47.1305H168.046V51.7309H175.414V53.5485H168.046V58.3848H176.61Z" fill="white"/>
<path d="M192.12 45.27V60.2454H190.061V47.1305H183.555L183.407 51.5164C183.338 53.5861 183.174 55.2589 182.915 56.5458C182.655 57.8272 182.248 58.7977 181.687 59.4465C181.126 60.0952 180.374 60.4223 179.421 60.4223C178.987 60.4223 178.548 60.3633 178.098 60.2507L178.246 58.3473C178.468 58.4063 178.696 58.4331 178.918 58.4331C179.522 58.4331 180.003 58.1865 180.369 57.6932C180.734 57.1999 181.004 56.4653 181.189 55.4788C181.369 54.4922 181.491 53.2 181.544 51.5862L181.777 45.2754H192.12V45.27Z" fill="white"/>
<path d="M207.566 58.3848V60.2454H196.905V45.27H207.275V47.1305H199.007V51.7309H206.37V53.5485H199.007V58.3848H207.566Z" fill="white"/>
<path d="M224.69 60.2454L224.669 49.3342L219.36 58.4277H218.397L213.087 49.3986V60.2454H211.07V45.27H212.791L218.921 55.7951L224.966 45.27H226.686L226.707 60.2454H224.69Z" fill="white"/>
<path d="M242.153 58.3848V60.2454H231.492V45.27H241.857V47.1305H233.589V51.7309H240.957V53.5485H233.589V58.3848H242.153Z" fill="white"/>
<path d="M259.653 58.3848V63.5214H257.705V60.2507H245.615L245.594 63.5214H243.641L243.662 58.3848H244.377C245.298 58.3259 245.949 57.5806 246.33 56.149C246.706 54.7174 246.939 52.696 247.023 50.0849L247.166 45.27H257.494V58.3848H259.653ZM248.373 55.5163C248.114 56.8996 247.701 57.854 247.124 58.3848H255.413V47.1305H248.971L248.865 50.2725C248.797 52.3851 248.632 54.133 248.373 55.5163Z" fill="white"/>
<path d="M262.739 45.27H264.82V56.8192L273.506 45.27H275.438V60.2454H273.379V48.7123L264.671 60.2454H262.739V45.27Z" fill="white"/>
<path d="M294.828 58.3848V63.6447H292.875V60.2454H280.223V45.27H282.298V58.3848H290.487V45.27H292.562V58.3848H294.828Z" fill="white"/>
<path d="M297.829 45.27H299.904V56.8192L308.596 45.27H310.528V60.2454H308.469V48.7123L299.761 60.2454H297.829V45.27Z" fill="white"/>
<path d="M327.943 45.27V60.2454H325.847V53.57H317.41V60.2454H315.308V45.27H317.41V51.7095H325.847V45.27H327.943Z" fill="white"/>
<path d="M335.322 59.4203C334.142 58.7555 333.216 57.844 332.543 56.6805C331.871 55.517 331.538 54.2087 331.538 52.7557C331.538 51.3027 331.871 49.989 332.543 48.8309C333.216 47.6674 334.147 46.7559 335.338 46.091C336.529 45.4315 337.853 45.0991 339.324 45.0991C340.473 45.0991 341.521 45.2975 342.474 45.6889C343.427 46.0803 344.237 46.6594 344.909 47.4315L343.543 48.7773C342.442 47.5923 341.061 47.0025 339.409 47.0025C338.319 47.0025 337.334 47.2545 336.45 47.7532C335.566 48.2518 334.878 48.9435 334.38 49.8175C333.883 50.6968 333.634 51.678 333.634 52.7611C333.634 53.8441 333.883 54.8253 334.38 55.6993C334.878 56.5786 335.566 57.2649 336.45 57.7636C337.334 58.2622 338.319 58.5142 339.409 58.5142C341.045 58.5142 342.426 57.919 343.543 56.718L344.909 58.0638C344.237 58.8359 343.421 59.4203 342.463 59.8171C341.505 60.2139 340.452 60.4123 339.303 60.4123C337.832 60.4176 336.503 60.0852 335.322 59.4203Z" fill="white"/>
<path d="M353.129 53.6558H350.065V60.2454H348.005V45.27H350.065V51.7738H353.172L357.788 45.27H360.032L354.786 52.5245L360.281 60.2454H357.894L353.129 53.6558Z" fill="white"/>
<path d="M362.657 45.27H364.732V56.8192L373.424 45.27H375.351V60.2454H373.297V48.7123L364.589 60.2454H362.657V45.27Z" fill="white"/>
<path d="M390.803 58.3848V60.2454H380.136V45.27H390.506V47.1305H382.238V51.7309H389.601V53.5485H382.238V58.3848H390.803Z" fill="white"/>
<path d="M153.087 72.7764H155.162V84.3256L163.853 72.7764H165.78V87.7464H163.726V76.2186L155.019 87.7464H153.087V72.7764Z" fill="white"/>
<path d="M183.201 72.7764V87.7464H181.105V81.0764H172.667V87.7464H170.565V72.7764H172.667V79.2105H181.105V72.7764H183.201Z" fill="white"/>
<path d="M202.151 84.9046C200.791 86.0306 198.88 86.6365 196.402 86.7223V88.304H194.449V86.7223C191.972 86.6204 190.05 86.0091 188.69 84.8832C187.324 83.7572 186.641 82.2077 186.641 80.2399C186.641 78.2561 187.324 76.7012 188.69 75.5752C190.05 74.4492 191.972 73.8326 194.449 73.7361V72.2188H196.402V73.7361C198.864 73.838 200.78 74.4492 202.14 75.5859C203.501 76.7172 204.184 78.2721 204.184 80.2399C204.189 82.2238 203.511 83.7787 202.151 84.9046ZM190.177 83.65C191.178 84.4703 192.602 84.9368 194.449 85.0494V75.4251C192.575 75.5377 191.146 76.0041 190.161 76.8138C189.172 77.6287 188.679 78.7654 188.679 80.2345C188.679 81.6929 189.177 82.8296 190.177 83.65ZM200.695 83.65C201.68 82.8296 202.172 81.6876 202.172 80.2185C202.172 78.7815 201.669 77.6448 200.674 76.8298C199.674 76.0095 198.25 75.543 196.402 75.4304V85.0548C198.276 84.9422 199.705 84.4703 200.695 83.65Z" fill="white"/>
<path d="M210.234 86.9257C209.043 86.2608 208.111 85.3493 207.434 84.1751C206.751 83.0063 206.412 81.7034 206.412 80.2611C206.412 78.8187 206.751 77.5158 207.434 76.347C208.111 75.1781 209.043 74.2613 210.234 73.5964C211.425 72.9369 212.759 72.5991 214.241 72.5991C215.707 72.5991 217.036 72.9315 218.227 73.5964C219.418 74.2613 220.345 75.1728 221.017 76.3363C221.689 77.4998 222.023 78.808 222.023 80.2611C222.023 81.7141 221.684 83.0223 221.017 84.1858C220.345 85.3493 219.418 86.2608 218.227 86.9257C217.036 87.5906 215.707 87.923 214.241 87.923C212.754 87.9176 211.42 87.5906 210.234 86.9257ZM217.147 85.2636C218.01 84.7649 218.688 84.0786 219.185 83.1993C219.678 82.32 219.926 81.3441 219.926 80.2611C219.926 79.178 219.678 78.1968 219.185 77.3175C218.688 76.4435 218.01 75.7518 217.147 75.2532C216.284 74.7545 215.321 74.5025 214.241 74.5025C213.161 74.5025 212.187 74.7545 211.314 75.2532C210.441 75.7518 209.752 76.4435 209.255 77.3175C208.763 78.1968 208.514 79.178 208.514 80.2611C208.514 81.3441 208.763 82.3253 209.255 83.1993C209.752 84.0786 210.435 84.7649 211.314 85.2636C212.187 85.7622 213.167 86.0142 214.241 86.0142C215.316 86.0142 216.284 85.7676 217.147 85.2636Z" fill="white"/>
<path d="M235.859 74.165C236.95 75.0926 237.495 76.3687 237.495 77.9933C237.495 79.6179 236.944 80.894 235.859 81.8216C234.769 82.7492 233.271 83.2103 231.371 83.2103H227.739V87.7463H225.643V72.771H231.376C233.266 72.7764 234.764 73.2375 235.859 74.165ZM234.345 80.4865C235.044 79.9075 235.393 79.0764 235.393 77.9933C235.393 76.9103 235.044 76.0792 234.345 75.5001C233.647 74.9211 232.63 74.6315 231.302 74.6315H227.734V81.3498H231.302C232.63 81.3498 233.647 81.0602 234.345 80.4865Z" fill="white"/>
<path d="M254.238 87.7463L254.222 76.8352L248.908 85.9287H247.944L242.635 76.8995V87.7463H240.618V72.771H242.344L248.468 83.2961L254.513 72.771H256.234L256.255 87.7463H254.238Z" fill="white"/>
<path d="M270.589 84.0039H262.782L261.167 87.7464H259.007L265.661 72.7764H267.742L274.411 87.7464H272.209L270.589 84.0039ZM269.854 82.2935L266.683 74.9532L263.512 82.2935H269.854Z" fill="white"/>
<path d="M291.763 85.8858V91.1511H289.81V87.7464H277.159V72.7764H279.234V85.8858H287.423V72.7764H289.498V85.8858H291.763Z" fill="white"/>
<path d="M294.765 72.7764H296.845V84.3256L305.531 72.7764H307.463V87.7464H305.404V76.2186L296.697 87.7464H294.765V72.7764Z" fill="white"/>
<path d="M314.848 86.9257C313.657 86.2608 312.725 85.3493 312.047 84.1751C311.364 83.0063 311.026 81.7034 311.026 80.2611C311.026 78.8187 311.364 77.5158 312.047 76.347C312.725 75.1781 313.662 74.2613 314.848 73.5964C316.039 72.9369 317.373 72.5991 318.855 72.5991C320.326 72.5991 321.655 72.9315 322.841 73.5964C324.032 74.2613 324.958 75.1728 325.63 76.3363C326.303 77.4998 326.636 78.808 326.636 80.2611C326.636 81.7141 326.303 83.0223 325.63 84.1858C324.958 85.3493 324.032 86.2608 322.841 86.9257C321.65 87.5906 320.321 87.923 318.855 87.923C317.373 87.9176 316.039 87.5906 314.848 86.9257ZM321.766 85.2636C322.629 84.7649 323.301 84.0786 323.799 83.1993C324.296 82.32 324.545 81.3441 324.545 80.2611C324.545 79.178 324.296 78.1968 323.799 77.3175C323.301 76.4435 322.624 75.7518 321.766 75.2532C320.903 74.7545 319.935 74.5025 318.86 74.5025C317.78 74.5025 316.806 74.7545 315.933 75.2532C315.059 75.7518 314.371 76.4435 313.874 77.3175C313.376 78.1968 313.127 79.178 313.127 80.2611C313.127 81.3441 313.376 82.3253 313.874 83.1993C314.371 84.0786 315.054 84.7649 315.933 85.2636C316.806 85.7622 317.785 86.0142 318.86 86.0142C319.935 86.0142 320.903 85.7676 321.766 85.2636Z" fill="white"/>
<path d="M342.887 72.7764V87.7464H340.791V81.0764H332.353V87.7464H330.251V72.7764H332.353V79.2105H340.791V72.7764H342.887Z" fill="white"/>
<path d="M360.307 72.7764V87.7464H358.211V81.0764H349.768V87.7464H347.672V72.7764H349.768V79.2105H358.211V72.7764H360.307Z" fill="white"/>
<path d="M375.552 79.1885C376.484 79.9874 376.95 81.1616 376.95 82.7165C376.95 84.3572 376.447 85.6065 375.452 86.459C374.451 87.3169 373.022 87.7405 371.159 87.7405H365.093V72.7651H367.173V77.9821H371.54C373.281 77.9928 374.626 78.395 375.552 79.1885ZM373.874 85.2097C374.525 84.6467 374.848 83.8318 374.848 82.7594C374.848 80.7059 373.588 79.6818 371.069 79.6818H367.168V86.0569H371.069C372.292 86.0569 373.223 85.7781 373.874 85.2097ZM379.279 72.7759H381.354V87.7512H379.279V72.7759Z" fill="white"/>
<path d="M396.8 85.8858V87.7464H386.139V72.7764H396.509V74.6369H388.241V79.2319H395.604V81.0549H388.241V85.8858H396.8Z" fill="white"/>
<path d="M155.675 114.426C154.495 113.761 153.568 112.849 152.896 111.686C152.224 110.522 151.89 109.214 151.89 107.761C151.89 106.308 152.224 104.994 152.896 103.836C153.568 102.673 154.495 101.761 155.686 101.096C156.877 100.437 158.205 100.099 159.672 100.099C160.82 100.099 161.868 100.298 162.821 100.689C163.774 101.08 164.584 101.659 165.256 102.431L163.89 103.777C162.784 102.592 161.408 102.003 159.756 102.003C158.666 102.003 157.676 102.255 156.797 102.753C155.913 103.252 155.225 103.943 154.728 104.817C154.23 105.697 153.981 106.678 153.981 107.761C153.981 108.844 154.23 109.825 154.728 110.699C155.225 111.579 155.913 112.265 156.797 112.764C157.676 113.262 158.666 113.514 159.756 113.514C161.392 113.514 162.768 112.919 163.89 111.718L165.256 113.064C164.584 113.836 163.769 114.42 162.811 114.817C161.847 115.214 160.799 115.412 159.65 115.412C158.184 115.423 156.861 115.091 155.675 114.426Z" fill="white"/>
<path d="M168.363 100.277H170.438V111.826L179.13 100.277H181.062V115.252H179.003V103.719L170.295 115.252H168.363V100.277Z" fill="white"/>
<path d="M188.436 114.426C187.255 113.761 186.329 112.849 185.657 111.686C184.985 110.522 184.651 109.214 184.651 107.761C184.651 106.308 184.985 104.994 185.657 103.836C186.329 102.673 187.255 101.761 188.446 101.096C189.637 100.437 190.966 100.099 192.432 100.099C193.581 100.099 194.629 100.298 195.582 100.689C196.535 101.08 197.345 101.659 198.017 102.431L196.651 103.777C195.545 102.592 194.169 102.003 192.517 102.003C191.427 102.003 190.437 102.255 189.558 102.753C188.679 103.252 187.986 103.943 187.488 104.817C186.991 105.697 186.747 106.678 186.747 107.761C186.747 108.844 186.996 109.825 187.488 110.699C187.986 111.579 188.674 112.265 189.558 112.764C190.442 113.262 191.427 113.514 192.517 113.514C194.153 113.514 195.529 112.919 196.651 111.718L198.017 113.064C197.345 113.836 196.53 114.42 195.571 114.817C194.613 115.214 193.56 115.412 192.411 115.412C190.945 115.423 189.622 115.091 188.436 114.426Z" fill="white"/>
<path d="M211.049 102.137H206.015V115.252H203.956V102.137H198.938V100.277H211.049V102.137Z" fill="white"/>
<path d="M224.484 113.392V115.252H213.818V100.277H224.187V102.137H215.919V106.738H223.282V108.555H215.919V113.392H224.484Z" fill="white"/>
<path d="M241.608 115.252L241.587 104.341L236.278 113.435H235.309L230 104.405V115.252H227.983V100.277H229.708L235.833 110.802L241.878 100.277H243.598L243.62 115.252H241.608Z" fill="white"/>
<path d="M258.865 106.695C259.796 107.494 260.262 108.668 260.262 110.223C260.262 111.864 259.759 113.113 258.764 113.965C257.764 114.823 256.334 115.247 254.471 115.247H248.405V100.271H250.485V105.488H254.852C256.599 105.499 257.938 105.896 258.865 106.695ZM257.192 112.716C257.843 112.153 258.166 111.338 258.166 110.266C258.166 108.212 256.906 107.183 254.392 107.183H250.49V113.558H254.392C255.604 113.563 256.541 113.279 257.192 112.716ZM262.591 100.277H264.666V115.252H262.591V100.277Z" fill="white"/>
<rect x="470.4" y="359.124" width="76.8" height="44.7905" fill="#4F5769"/>
<path d="M431.2 407.115C431.2 405.347 432.633 403.915 434.4 403.915H583.2C584.967 403.915 586.4 405.347 586.4 407.115V409.513H431.2V407.115Z" fill="#4F5769"/>
<g filter="url(#filter0_d_30215_28581)">
<rect x="338.4" y="151.968" width="340.8" height="216.754" rx="13.6208" fill="#575F70"/>
</g>
<rect x="352" y="165.565" width="313.6" height="191.16" rx="4.54026" fill="#FAFBFF"/>
<circle cx="527.388" cy="236.563" r="15.3234" fill="#A4C76C"/>
<circle cx="527.388" cy="236.563" r="6.24286" fill="white"/>
<rect x="552" y="227.2" width="87.2" height="3.2" rx="1.6" fill="#D1D3DD"/>
<rect x="552" y="235.2" width="41.6" height="3.2" rx="1.6" fill="#D1D3DD"/>
<rect x="552" y="243.2" width="60" height="3.2" rx="1.6" fill="#D1D3DD"/>
<circle cx="527.388" cy="277.425" r="15.3234" fill="#FFCD1E"/>
<circle cx="527.388" cy="277.425" r="6.24286" fill="white"/>
<rect x="552" y="268" width="50.4" height="3.2" rx="1.6" fill="#D1D3DD"/>
<rect x="552" y="276" width="76" height="3.2" rx="1.6" fill="#D1D3DD"/>
<rect x="552" y="284" width="28" height="3.2" rx="1.6" fill="#D1D3DD"/>
<circle cx="527.388" cy="318.287" r="15.3234" fill="#F86D7E"/>
<circle cx="527.388" cy="318.287" r="6.24286" fill="white"/>
<rect x="552" y="308.8" width="82.4" height="3.2" rx="1.6" fill="#D1D3DD"/>
<rect x="552" y="316.8" width="38.4" height="3.2" rx="1.6" fill="#D1D3DD"/>
<rect x="552" y="324.8" width="60" height="3.2" rx="1.6" fill="#D1D3DD"/>
<path fill-rule="evenodd" clip-rule="evenodd" d="M431.475 200.426C410.452 175.36 368.871 191.44 375.412 228.33C376.365 233.702 378.042 238.621 380.331 243.2H395.2C395.972 243.2 396.697 243.572 397.148 244.199L398.879 246.604L410.257 208.257C410.557 207.246 411.481 206.55 412.535 206.54C413.589 206.53 414.526 207.208 414.845 208.213L428.487 251.145L434.366 230.051C434.64 229.067 435.506 228.365 436.525 228.3C437.543 228.235 438.492 228.821 438.889 229.762L446.065 246.758L447.558 244.34C447.995 243.632 448.768 243.2 449.6 243.2H457.151L463.562 234.048C464.022 233.391 464.779 233.007 465.581 233.025C466.382 233.043 467.122 233.46 467.552 234.136L473.318 243.2H482.62C484.908 238.621 486.586 233.702 487.539 228.33C494.079 191.44 452.499 175.36 431.475 200.426ZM479.928 248H472C471.179 248 470.415 247.581 469.975 246.888L465.431 239.745L460.366 246.977C459.917 247.619 459.183 248 458.4 248H450.939L447.706 253.238C447.234 254.002 446.375 254.439 445.48 254.37C444.584 254.302 443.802 253.738 443.453 252.911L437.143 237.966L430.95 260.189C430.665 261.211 429.742 261.925 428.681 261.944C427.62 261.963 426.672 261.283 426.35 260.271L412.636 217.112L402.089 252.66C401.829 253.538 401.091 254.191 400.189 254.344C399.286 254.497 398.375 254.122 397.84 253.379L393.97 248H383.023C392.758 263.618 409.835 275.38 428.955 288.549L428.955 288.549C429.791 289.125 430.632 289.704 431.475 290.286C432.319 289.704 433.159 289.125 433.996 288.549C453.115 275.38 470.193 263.618 479.928 248Z" fill="#E4394E"/>
<rect x="374.4" y="301.6" width="98.4" height="12.8" rx="6.4" fill="#D1D3DD"/>
<rect x="374.4" y="320.8" width="70.4" height="12.8" rx="6.4" fill="#D1D3DD"/>
<g filter="url(#filter1_d_30215_28581)">
<circle cx="381.184" cy="416.385" r="77.1844" fill="#56B4FF"/>
<circle cx="23.8364" cy="23.8364" r="23.8364" transform="matrix(-1 0 0 1 405.021 392.548)" fill="white"/>
<path d="M437.938 416.385C437.938 401.333 431.958 386.897 421.315 376.254C410.672 365.611 396.236 359.631 381.184 359.631C366.133 359.631 351.697 365.611 341.054 376.254C330.411 386.897 324.431 401.333 324.431 416.385L381.184 416.385H437.938Z" fill="white"/>
<path d="M381.752 386.873L385.725 428.87L377.779 428.87L381.752 386.873Z" fill="#373C47"/>
<circle cx="6.81039" cy="6.81039" r="6.81039" transform="matrix(-0.866025 0.5 0.5 0.866025 383.9 409.096)" fill="#373C47"/>
<circle cx="2.27013" cy="2.27013" r="2.27013" transform="matrix(-0.866025 0.5 0.5 0.866025 382.238 415.298)" fill="white"/>
<path d="M411.701 408.439H427.722C423.978 385.892 404.567 368.712 381.184 368.712C357.802 368.712 338.391 385.892 334.647 408.439H334.938C340.698 392.669 355.709 381.425 373.319 381.425C390.93 381.425 405.941 392.669 411.701 408.439Z" fill="#A4C76C"/>
<mask id="mask0_30215_28581" style="mask-type:alpha" maskUnits="userSpaceOnUse" x="334" y="368" width="94" height="41">
<path d="M411.701 408.439H427.722C423.978 385.892 404.567 368.712 381.184 368.712C357.802 368.712 338.391 385.892 334.647 408.439H334.938C340.698 392.669 355.709 381.425 373.319 381.425C390.93 381.425 405.941 392.669 411.701 408.439Z" fill="#D1D3DD"/>
</mask>
<g mask="url(#mask0_30215_28581)">
<path d="M358.483 348.281L380.049 416.385L427.722 365.307L358.483 348.281Z" fill="#FFCD1E"/>
<path d="M414.101 364.171L387.995 403.899V424.33H445.883L414.101 364.171Z" fill="#E4394E"/>
</g>
</g>
<rect x="512" y="188" width="140.8" height="20.8" rx="2.27013" fill="#FFEA9E"/>
<rect x="552" y="197.6" width="60" height="3.2" rx="1.6" fill="#E8D389"/>
<rect x="541.6" y="197.6" width="5.6" height="3.2" rx="1.6" fill="#E8D389"/>
<path d="M525.876 194.279C526.326 193.605 527.316 193.605 527.765 194.279L532.455 201.313C532.958 202.068 532.417 203.078 531.51 203.078H522.131C521.225 203.078 520.684 202.068 521.187 201.313L525.876 194.279Z" fill="#E8D389"/>
</g>
<defs>
<filter id="filter0_d_30215_28581" x="315.699" y="140.617" width="386.203" height="262.157" filterUnits="userSpaceOnUse" color-interpolation-filters="sRGB">
<feFlood flood-opacity="0" result="BackgroundImageFix"/>
<feColorMatrix in="SourceAlpha" type="matrix" values="0 0 0 0 0 0 0 0 0 0 0 0 0 0 0 0 0 0 127 0" result="hardAlpha"/>
<feOffset dy="11.3506"/>
<feGaussianBlur stdDeviation="11.3506"/>
<feComposite in2="hardAlpha" operator="out"/>
<feColorMatrix type="matrix" values="0 0 0 0 0.15 0 0 0 0 0.165625 0 0 0 0 0.2 0 0 0 1 0"/>
<feBlend mode="normal" in2="BackgroundImageFix" result="effect1_dropShadow_30215_28581"/>
<feBlend mode="normal" in="SourceGraphic" in2="effect1_dropShadow_30215_28581" result="shape"/>
</filter>
<filter id="filter1_d_30215_28581" x="281.299" y="327.849" width="199.771" height="199.772" filterUnits="userSpaceOnUse" color-interpolation-filters="sRGB">
<feFlood flood-opacity="0" result="BackgroundImageFix"/>
<feColorMatrix in="SourceAlpha" type="matrix" values="0 0 0 0 0 0 0 0 0 0 0 0 0 0 0 0 0 0 127 0" result="hardAlpha"/>
<feOffset dy="11.3506"/>
<feGaussianBlur stdDeviation="11.3506"/>
<feComposite in2="hardAlpha" operator="out"/>
<feColorMatrix type="matrix" values="0 0 0 0 0 0 0 0 0 0 0 0 0 0 0 0 0 0 0.25 0"/>
<feBlend mode="normal" in2="BackgroundImageFix" result="effect1_dropShadow_30215_28581"/>
<feBlend mode="normal" in="SourceGraphic" in2="effect1_dropShadow_30215_28581" result="shape"/>
</filter>
<clipPath id="clip0_30215_28581">
<rect width="608" height="448" rx="6.4" fill="white"/>
</clipPath>
</defs>
</svg>
