<svg width="588" height="588" viewBox="0 0 588 588" fill="none" xmlns="http://www.w3.org/2000/svg">
<g clip-path="url(#clip0_30214_24445)">
<rect x="354.578" y="361.928" width="108.063" height="107.053" fill="#00BDB5"/>
<rect x="354.578" y="367.987" width="108.063" height="94.9335" fill="#00A19A"/>
<mask id="path-3-inside-1_30214_24445" fill="white">
<path d="M354.578 361.928H387.906C396.83 361.928 404.065 369.163 404.065 378.087V452.822C404.065 461.746 396.831 468.981 387.906 468.981H354.578V361.928Z"/>
</mask>
<path d="M354.578 361.928H387.906C396.83 361.928 404.065 369.163 404.065 378.087V452.822C404.065 461.746 396.831 468.981 387.906 468.981H354.578V361.928Z" fill="#00A19A"/>
<path d="M354.578 356.879H387.906C399.619 356.879 409.115 366.374 409.115 378.087L399.015 378.087C399.015 371.952 394.042 366.978 387.906 366.978H354.578V356.879ZM409.115 452.822C409.115 464.535 399.619 474.031 387.906 474.031H354.578V463.931H387.906C394.042 463.931 399.015 458.957 399.015 452.822L409.115 452.822ZM354.578 468.981V361.928V468.981ZM387.906 356.879C399.619 356.879 409.115 366.374 409.115 378.087V452.822C409.115 464.535 399.619 474.031 387.906 474.031L387.906 463.931C394.042 463.931 399.015 458.957 399.015 452.822V378.087C399.015 371.952 394.042 366.978 387.906 366.978L387.906 356.879Z" fill="#00BDB5" mask="url(#path-3-inside-1_30214_24445)"/>
<path d="M409.115 480.089V483.119C409.115 491.486 402.333 498.268 393.966 498.268H348.519C341.826 498.268 336.4 503.694 336.4 510.387V510.387C336.4 517.08 341.826 522.506 348.519 522.506H401.036C405.498 522.506 409.115 526.124 409.115 530.586V530.586" stroke="#52637D" stroke-width="5.04965"/>
<rect x="401.036" y="468.98" width="16.1589" height="12.1192" fill="#344053"/>
<path d="M320.566 402.301V559.853C320.566 568.22 327.349 575.002 335.715 575.002H352.078" stroke="#52637D" stroke-width="5.04965"/>
<rect x="312.487" y="391.192" width="16.1589" height="12.1192" fill="#344053"/>
<rect x="263" y="270" width="119.172" height="121.192" rx="24.2383" fill="#00050D"/>
<rect x="275.12" y="282.119" width="94.9335" height="96.9533" rx="14.139" fill="#1B2432"/>
<rect x="284.208" y="291.209" width="76.7547" height="65.6455" rx="9.08938" fill="#A9D7FF"/>
<rect x="284.713" y="291.714" width="75.7448" height="64.6356" rx="8.58441" stroke="white" stroke-opacity="0.4" stroke-width="1.00993"/>
<path d="M330.665 361.903C330.665 361.346 330.213 360.893 329.655 360.893H319.556C315.652 360.893 312.487 364.059 312.487 367.963V367.963C312.487 371.867 315.652 375.032 319.556 375.032H329.655C330.213 375.032 330.665 374.58 330.665 374.022V361.903Z" fill="#E0E7F2"/>
<path d="M331.676 361.903C331.676 361.346 332.128 360.893 332.685 360.893H342.785C346.689 360.893 349.854 364.059 349.854 367.963V367.963C349.854 371.867 346.689 375.032 342.785 375.032H332.685C332.128 375.032 331.676 374.58 331.676 374.022V361.903Z" fill="#E0E7F2"/>
<rect x="291.278" y="360.893" width="14.139" height="14.139" rx="7.06951" fill="#E0E7F2"/>
<path d="M334.367 305.159L334.771 305.563V311.218C334.636 311.757 334.299 312.094 333.761 312.228L333.155 310.613V306.371L334.367 305.159ZM333.155 303.543V299.301L333.761 297.685C334.299 297.82 334.636 298.157 334.771 298.695V304.351L334.367 304.755L333.155 303.543ZM343.223 304.149L344.031 304.957L343.223 305.765H337.971L337.164 304.957L337.971 304.149H343.223ZM344.031 312.228H337.366C336.827 312.094 336.49 311.757 336.356 311.218L337.971 310.613H343.425L344.031 312.228ZM336.356 310.815V305.563L336.76 305.159L337.971 306.371V310.209L336.356 310.815ZM342.819 299.301H337.992L336.376 298.695C336.51 298.157 336.847 297.82 337.386 297.685H343.425L342.819 299.301ZM343.223 303.543V299.301L343.829 297.685C344.368 297.82 344.704 298.157 344.839 298.695V304.351L344.435 304.755L343.223 303.543ZM354.492 305.159L354.896 305.563V311.218C354.762 311.757 354.425 312.094 353.886 312.228L353.28 310.613V306.371L354.492 305.159ZM353.482 312.228H347.423C346.884 312.094 346.548 311.757 346.413 311.218L348.029 310.613H352.876L353.482 312.228ZM346.413 310.815V305.563L346.817 305.159L348.029 306.371V310.209L346.413 310.815ZM352.876 299.301H348.049L346.433 298.695C346.568 298.157 346.904 297.82 347.443 297.685H353.482L352.876 299.301ZM348.029 299.705V303.543L346.817 304.755L346.413 304.351V299.099L348.029 299.705ZM353.28 303.543V299.301L353.886 297.685C354.425 297.82 354.762 298.157 354.896 298.695V304.351L354.492 304.755L353.28 303.543Z" fill="black"/>
<path d="M342.69 323.338L343.498 324.146L342.69 324.953H337.438L336.63 324.146L337.438 323.338H342.69ZM343.902 324.348L344.306 324.751V330.407C344.171 330.946 343.835 331.282 343.296 331.417L342.69 329.801V325.559L343.902 324.348ZM342.892 331.417H336.832C336.294 331.282 335.957 330.946 335.823 330.407L337.438 329.801H342.286L342.892 331.417ZM335.823 330.003V324.751L336.226 324.348L337.438 325.559V329.397L335.823 330.003ZM342.286 318.49H337.459L335.843 317.884C335.977 317.345 336.314 317.009 336.853 316.874H342.892L342.286 318.49ZM337.438 318.894V322.732L336.226 323.944L335.823 323.54V318.288L337.438 318.894ZM342.69 322.732V318.49L343.296 316.874C343.835 317.009 344.171 317.345 344.306 317.884V323.54L343.902 323.944L342.69 322.732ZM353.959 324.348L354.363 324.751V330.407C354.229 330.946 353.892 331.282 353.353 331.417L352.747 329.801V325.559L353.959 324.348ZM352.949 331.417H346.89C346.351 331.282 346.014 330.946 345.88 330.407L347.496 329.801H352.343L352.949 331.417ZM345.88 330.003V324.751L346.284 324.348L347.496 325.559V329.397L345.88 330.003ZM352.343 318.49H347.516L345.9 317.884C346.035 317.345 346.371 317.009 346.91 316.874H352.949L352.343 318.49ZM347.496 318.894V322.732L346.284 323.944L345.88 323.54V318.288L347.496 318.894ZM352.747 322.732V318.49L353.353 316.874C353.892 317.009 354.229 317.345 354.363 317.884V323.54L353.959 323.944L352.747 322.732Z" fill="black"/>
<path d="M342.69 341.516L343.498 342.324L342.69 343.132H337.438L336.63 342.324L337.438 341.516H342.69ZM343.902 342.526L344.306 342.93V348.586C344.171 349.125 343.835 349.461 343.296 349.596L342.69 347.98V343.738L343.902 342.526ZM342.892 349.596H336.832C336.294 349.461 335.957 349.125 335.823 348.586L337.438 347.98H342.286L342.892 349.596ZM335.823 348.182V342.93L336.226 342.526L337.438 343.738V347.576L335.823 348.182ZM342.892 336.669H337.459L335.843 336.063C335.977 335.524 336.314 335.187 336.853 335.053H343.498L342.892 336.669ZM337.438 337.073V340.91L336.226 342.122L335.823 341.718V336.467L337.438 337.073ZM353.959 342.526L354.363 342.93V348.586C354.229 349.125 353.892 349.461 353.353 349.596L352.747 347.98V343.738L353.959 342.526ZM352.949 349.596H346.89C346.351 349.461 346.014 349.125 345.88 348.586L347.496 347.98H352.343L352.949 349.596ZM345.88 348.182V342.93L346.284 342.526L347.496 343.738V347.576L345.88 348.182ZM352.343 336.669H347.516L345.9 336.063C346.035 335.524 346.371 335.187 346.91 335.053H352.949L352.343 336.669ZM347.496 337.073V340.91L346.284 342.122L345.88 341.718V336.467L347.496 337.073ZM352.747 340.91V336.669L353.353 335.053C353.892 335.187 354.229 335.524 354.363 336.063V341.718L353.959 342.122L352.747 340.91Z" fill="black"/>
<path d="M321.879 338.615C321.938 338.654 322.009 338.675 322.081 338.675C322.153 338.675 322.224 338.654 322.283 338.615L322.081 338.348L322.283 338.615L322.287 338.612L322.297 338.606L322.334 338.581C322.546 338.435 322.753 338.284 322.957 338.129C323.471 337.739 323.962 337.322 324.428 336.881C324.963 336.371 325.507 335.775 325.919 335.142C326.329 334.513 326.626 333.822 326.626 333.128C326.626 332.305 326.353 331.661 325.871 331.225C325.391 330.791 324.743 330.596 324.062 330.596C323.258 330.596 322.548 330.96 322.081 331.521C321.614 330.96 320.904 330.596 320.1 330.596C318.665 330.596 317.536 331.748 317.536 333.128C317.536 333.821 317.833 334.512 318.243 335.142C318.655 335.774 319.199 336.37 319.734 336.881C320.384 337.497 321.084 338.065 321.828 338.581L321.865 338.606L321.875 338.612L321.879 338.615Z" fill="black"/>
<path d="M295.318 345.24H302.892L306.427 335.141L309.457 349.785L313.497 340.191L315.012 345.24H328.141" stroke="black" stroke-width="2.01986"/>
<path d="M319.556 367.964L324.606 364.934L324.606 370.994L319.556 367.964Z" fill="#97A8C2"/>
<path d="M342.785 367.964L337.735 364.934L337.735 370.994L342.785 367.964Z" fill="#97A8C2"/>
<rect x="297.338" y="363.924" width="2.01986" height="8.07944" fill="#97A8C2"/>
<path d="M542.348 383.307V556.172C542.348 563.423 536.47 569.301 529.219 569.301H500.303" stroke="#9AA3AF" stroke-width="2.01986" stroke-dasharray="5.05 3.03"/>
<path d="M307.895 391.146V508.427C307.895 515.678 313.773 521.556 321.024 521.556H349.94" stroke="#9AA3AF" stroke-width="2.01986" stroke-dasharray="5.05 3.03"/>
<rect x="329.986" y="405.398" width="169.668" height="260.562" rx="24.2383" fill="#00050D"/>
<path fill-rule="evenodd" clip-rule="evenodd" d="M404.721 413.477C403.606 413.477 402.702 414.381 402.702 415.497C402.702 416.612 403.606 417.517 404.721 417.517H430.98C432.095 417.517 433 416.612 433 415.497C433 414.381 432.095 413.477 430.98 413.477H404.721ZM398.662 413.477C397.546 413.477 396.642 414.381 396.642 415.497C396.642 416.613 397.546 417.517 398.662 417.517C399.777 417.517 400.682 416.613 400.682 415.497C400.682 414.381 399.777 413.477 398.662 413.477Z" fill="#344053"/>
<path d="M355.234 409.438C343.521 409.438 334.026 418.933 334.026 430.646V648.791C334.026 660.504 343.521 670 355.234 670H474.406C486.119 670 495.615 660.504 495.615 648.791V430.646C495.615 418.933 486.119 409.438 474.406 409.438H464.307C463.191 409.438 462.287 410.342 462.287 411.457V411.457C462.287 418.151 456.861 423.577 450.168 423.577H379.473C372.78 423.577 367.354 418.151 367.354 411.457V411.457C367.354 410.342 366.449 409.438 365.334 409.438H355.234Z" fill="#E0E7F2"/>
<rect x="334.026" y="547.798" width="161.589" height="53.5263" fill="white"/>
<mask id="mask0_30214_24445" style="mask-type:alpha" maskUnits="userSpaceOnUse" x="334" y="409" width="162" height="261">
<path d="M355.234 409.438C343.521 409.438 334.026 418.933 334.026 430.646V648.791C334.026 660.504 343.521 670 355.234 670H474.406C486.119 670 495.615 660.504 495.615 648.791V430.646C495.615 418.933 486.119 409.438 474.406 409.438H464.307C463.191 409.438 462.287 410.342 462.287 411.458V411.458C462.287 418.151 456.861 423.577 450.168 423.577H379.473C372.779 423.577 367.353 418.151 367.353 411.458V411.458C367.353 410.342 366.449 409.438 365.334 409.438H355.234Z" fill="#1D73BE"/>
</mask>
<g mask="url(#mask0_30214_24445)">
<rect x="334.026" y="409.438" width="161.589" height="84.8342" fill="#1D73BE"/>
</g>
<circle cx="367.354" cy="457.914" r="20.1986" fill="#1B2432"/>
<path d="M367.354 457.775C365.113 457.775 363.314 455.976 363.314 453.735C363.314 451.526 365.113 449.696 367.354 449.696C369.563 449.696 371.394 451.526 371.394 453.735C371.394 455.976 369.563 457.775 367.354 457.775ZM368.932 459.29C371.962 459.29 374.423 461.752 374.423 464.782C374.423 465.381 373.918 465.855 373.319 465.855H361.357C360.758 465.855 360.284 465.381 360.284 464.782C360.284 461.752 362.715 459.29 365.744 459.29H368.932Z" fill="white"/>
<rect opacity="0.6" x="396.642" y="445.795" width="68.6753" height="5.04965" rx="2.52483" fill="#1B2432"/>
<rect opacity="0.6" x="396.642" y="454.885" width="48.4767" height="5.04965" rx="2.52483" fill="#1B2432"/>
<rect opacity="0.6" x="396.642" y="468.014" width="29.288" height="3.02979" rx="1.5149" fill="white"/>
<path d="M431.287 516.698V528.45H428.803V519.057H428.734L426.043 520.744V518.54L428.952 516.698H431.287ZM433.757 528.45V526.66L437.94 522.787C438.296 522.442 438.595 522.132 438.836 521.857C439.08 521.582 439.266 521.312 439.392 521.048C439.518 520.78 439.582 520.491 439.582 520.181C439.582 519.837 439.503 519.541 439.346 519.292C439.189 519.04 438.975 518.846 438.704 518.712C438.432 518.575 438.124 518.506 437.78 518.506C437.42 518.506 437.106 518.579 436.839 518.724C436.571 518.869 436.364 519.078 436.219 519.349C436.074 519.621 436.001 519.944 436.001 520.319H433.642C433.642 519.55 433.817 518.883 434.165 518.317C434.513 517.75 435.001 517.312 435.628 517.002C436.255 516.693 436.978 516.538 437.797 516.538C438.639 516.538 439.371 516.687 439.995 516.985C440.622 517.28 441.11 517.689 441.458 518.213C441.806 518.737 441.98 519.338 441.98 520.015C441.98 520.459 441.892 520.897 441.716 521.329C441.544 521.761 441.236 522.241 440.792 522.769C440.349 523.293 439.723 523.923 438.916 524.657L437.2 526.339V526.419H442.135V528.45H433.757ZM448.22 528.708C447.233 528.705 446.384 528.462 445.672 527.98C444.965 527.498 444.419 526.8 444.037 525.885C443.658 524.971 443.471 523.871 443.475 522.586C443.475 521.304 443.664 520.212 444.043 519.309C444.425 518.406 444.97 517.72 445.678 517.249C446.39 516.775 447.237 516.538 448.22 516.538C449.203 516.538 450.049 516.775 450.756 517.249C451.468 517.724 452.015 518.412 452.398 519.315C452.78 520.214 452.969 521.304 452.966 522.586C452.966 523.875 452.774 524.977 452.392 525.891C452.013 526.805 451.47 527.503 450.762 527.985C450.054 528.467 449.207 528.708 448.22 528.708ZM448.22 526.648C448.893 526.648 449.431 526.31 449.833 525.633C450.234 524.956 450.433 523.94 450.429 522.586C450.429 521.694 450.337 520.952 450.154 520.359C449.974 519.766 449.718 519.321 449.385 519.022C449.056 518.724 448.668 518.575 448.22 518.575C447.551 518.575 447.015 518.909 446.613 519.579C446.212 520.248 446.009 521.251 446.005 522.586C446.005 523.489 446.095 524.242 446.275 524.847C446.458 525.447 446.717 525.899 447.049 526.201C447.382 526.499 447.772 526.648 448.22 526.648ZM459.556 516.147L455.768 530.218H453.662L457.45 516.147H459.556ZM464.771 528.611C463.888 528.611 463.101 528.467 462.413 528.181C461.728 527.89 461.191 527.494 460.8 526.993C460.41 526.492 460.215 525.924 460.215 525.288C460.215 524.799 460.326 524.349 460.548 523.94C460.774 523.527 461.08 523.184 461.466 522.913C461.852 522.637 462.285 522.461 462.763 522.385V522.305C462.135 522.178 461.627 521.874 461.236 521.392C460.846 520.906 460.651 520.342 460.651 519.699C460.651 519.091 460.829 518.55 461.185 518.076C461.541 517.597 462.028 517.222 462.648 516.951C463.272 516.675 463.979 516.538 464.771 516.538C465.563 516.538 466.269 516.675 466.889 516.951C467.512 517.226 468.002 517.603 468.358 518.081C468.713 518.556 468.893 519.095 468.897 519.699C468.893 520.346 468.694 520.91 468.3 521.392C467.906 521.874 467.401 522.178 466.785 522.305V522.385C467.256 522.461 467.682 522.637 468.065 522.913C468.451 523.184 468.757 523.527 468.983 523.94C469.213 524.349 469.329 524.799 469.333 525.288C469.329 525.924 469.132 526.492 468.742 526.993C468.352 527.494 467.812 527.89 467.124 528.181C466.439 528.467 465.655 528.611 464.771 528.611ZM464.771 526.786C465.165 526.786 465.51 526.715 465.804 526.574C466.099 526.428 466.328 526.23 466.493 525.977C466.661 525.721 466.745 525.426 466.745 525.093C466.745 524.753 466.659 524.453 466.487 524.192C466.315 523.929 466.081 523.722 465.787 523.573C465.492 523.42 465.154 523.343 464.771 523.343C464.393 523.343 464.054 523.42 463.756 523.573C463.457 523.722 463.222 523.929 463.05 524.192C462.881 524.453 462.797 524.753 462.797 525.093C462.797 525.426 462.88 525.721 463.044 525.977C463.209 526.23 463.44 526.428 463.738 526.574C464.037 526.715 464.381 526.786 464.771 526.786ZM464.771 521.536C465.1 521.536 465.393 521.469 465.649 521.335C465.905 521.201 466.106 521.015 466.252 520.778C466.397 520.541 466.47 520.268 466.47 519.958C466.47 519.652 466.397 519.384 466.252 519.154C466.106 518.921 465.907 518.739 465.655 518.609C465.402 518.475 465.108 518.408 464.771 518.408C464.438 518.408 464.144 518.475 463.888 518.609C463.631 518.739 463.43 518.921 463.285 519.154C463.143 519.384 463.073 519.652 463.073 519.958C463.073 520.268 463.145 520.541 463.291 520.778C463.436 521.015 463.637 521.201 463.893 521.335C464.15 521.469 464.442 521.536 464.771 521.536ZM475.355 528.708C474.368 528.705 473.519 528.462 472.807 527.98C472.1 527.498 471.554 526.8 471.172 525.885C470.793 524.971 470.606 523.871 470.609 522.586C470.609 521.304 470.799 520.212 471.178 519.309C471.56 518.406 472.105 517.72 472.813 517.249C473.525 516.775 474.372 516.538 475.355 516.538C476.338 516.538 477.184 516.775 477.891 517.249C478.603 517.724 479.15 518.412 479.532 519.315C479.915 520.214 480.104 521.304 480.101 522.586C480.101 523.875 479.909 524.977 479.527 525.891C479.148 526.805 478.605 527.503 477.897 527.985C477.189 528.467 476.342 528.708 475.355 528.708ZM475.355 526.648C476.028 526.648 476.566 526.31 476.967 525.633C477.369 524.956 477.568 523.94 477.564 522.586C477.564 521.694 477.472 520.952 477.289 520.359C477.109 519.766 476.853 519.321 476.52 519.022C476.191 518.724 475.803 518.575 475.355 518.575C474.686 518.575 474.15 518.909 473.748 519.579C473.347 520.248 473.144 521.251 473.14 522.586C473.14 523.489 473.23 524.242 473.41 524.847C473.593 525.447 473.852 525.899 474.184 526.201C474.517 526.499 474.907 526.648 475.355 526.648Z" fill="#636B78"/>
<path d="M461.823 581.127C461.012 581.127 460.289 580.978 459.654 580.68C459.023 580.381 458.522 579.97 458.151 579.446C457.779 578.922 457.586 578.321 457.571 577.644H459.981C460.008 578.099 460.199 578.468 460.555 578.752C460.911 579.035 461.333 579.176 461.823 579.176C462.213 579.176 462.558 579.09 462.856 578.918C463.158 578.742 463.393 578.499 463.562 578.189C463.734 577.875 463.82 577.516 463.82 577.11C463.82 576.697 463.732 576.334 463.556 576.02C463.384 575.706 463.145 575.462 462.839 575.286C462.533 575.11 462.183 575.02 461.789 575.016C461.444 575.016 461.11 575.087 460.784 575.228C460.463 575.37 460.213 575.563 460.033 575.808L457.823 575.412L458.38 569.215H465.564V571.246H460.429L460.125 574.19H460.193C460.4 573.899 460.712 573.658 461.129 573.467C461.546 573.275 462.012 573.18 462.529 573.18C463.237 573.18 463.868 573.346 464.422 573.679C464.977 574.012 465.415 574.469 465.737 575.05C466.058 575.628 466.217 576.294 466.213 577.047C466.217 577.839 466.033 578.543 465.662 579.159C465.295 579.771 464.78 580.253 464.118 580.605C463.46 580.953 462.695 581.127 461.823 581.127ZM468.696 581.116C468.317 581.116 467.992 580.982 467.72 580.714C467.452 580.442 467.318 580.117 467.318 579.739C467.318 579.364 467.452 579.042 467.72 578.774C467.992 578.507 468.317 578.373 468.696 578.373C469.063 578.373 469.384 578.507 469.66 578.774C469.935 579.042 470.073 579.364 470.073 579.739C470.073 579.991 470.008 580.222 469.878 580.433C469.751 580.639 469.585 580.806 469.378 580.932C469.172 581.054 468.944 581.116 468.696 581.116ZM475.765 569.054C476.369 569.054 476.951 569.155 477.509 569.358C478.072 569.561 478.573 569.884 479.013 570.328C479.456 570.772 479.806 571.361 480.063 572.095C480.323 572.826 480.455 573.723 480.459 574.786C480.459 575.785 480.346 576.676 480.12 577.46C479.898 578.241 479.579 578.905 479.162 579.452C478.745 579.999 478.242 580.416 477.653 580.703C477.063 580.986 476.406 581.127 475.679 581.127C474.894 581.127 474.202 580.976 473.601 580.674C473.001 580.368 472.517 579.953 472.15 579.429C471.786 578.901 471.566 578.308 471.49 577.65H473.94C474.036 578.078 474.236 578.411 474.542 578.648C474.849 578.882 475.227 578.998 475.679 578.998C476.444 578.998 477.025 578.665 477.423 578C477.821 577.33 478.022 576.414 478.026 575.251H477.945C477.769 575.595 477.532 575.892 477.234 576.141C476.935 576.385 476.593 576.575 476.207 576.709C475.824 576.843 475.417 576.91 474.984 576.91C474.292 576.91 473.674 576.747 473.131 576.422C472.588 576.097 472.159 575.649 471.846 575.079C471.532 574.509 471.375 573.859 471.375 573.128C471.371 572.34 471.553 571.638 471.92 571.022C472.287 570.406 472.8 569.924 473.458 569.576C474.12 569.224 474.889 569.05 475.765 569.054ZM475.782 571.005C475.396 571.005 475.051 571.097 474.749 571.28C474.451 571.464 474.213 571.711 474.038 572.021C473.865 572.33 473.781 572.677 473.785 573.059C473.785 573.446 473.869 573.794 474.038 574.104C474.21 574.41 474.443 574.654 474.738 574.838C475.036 575.018 475.376 575.108 475.759 575.108C476.046 575.108 476.312 575.054 476.557 574.947C476.801 574.84 477.014 574.693 477.194 574.505C477.377 574.314 477.521 574.094 477.624 573.845C477.727 573.597 477.779 573.333 477.779 573.053C477.775 572.682 477.687 572.342 477.515 572.032C477.343 571.722 477.106 571.474 476.803 571.286C476.501 571.099 476.161 571.005 475.782 571.005Z" fill="#636B78"/>
<circle cx="362.304" cy="521.54" r="15.149" fill="#B7BDC8"/>
<path d="M361.989 528.511C362.081 528.575 362.191 528.609 362.304 528.609C362.416 528.609 362.526 528.575 362.618 528.511L362.304 528.077L362.619 528.511L362.625 528.507L362.64 528.496L362.698 528.455C363.027 528.218 363.35 527.974 363.667 527.722C364.467 527.087 365.23 526.41 365.955 525.694C366.787 524.864 367.633 523.895 368.274 522.868C368.912 521.846 369.374 520.722 369.374 519.595C369.374 518.257 368.949 517.212 368.199 516.502C367.452 515.796 366.444 515.481 365.386 515.481C364.135 515.481 363.031 516.072 362.304 516.983C361.578 516.071 360.473 515.48 359.223 515.48C356.989 515.48 355.235 517.353 355.235 519.594C355.235 520.721 355.696 521.844 356.334 522.867C356.975 523.895 357.821 524.863 358.653 525.693C359.665 526.694 360.754 527.618 361.91 528.455L361.968 528.496L361.984 528.507L361.989 528.511Z" fill="white"/>
<circle cx="362.304" cy="574.056" r="15.149" fill="#B7BDC8"/>
<path d="M363.527 567.716C362.987 566.744 361.621 566.744 361.081 567.716L357.935 573.387C357.52 574.136 357.254 575.002 357.254 575.948C357.254 576.705 357.416 577.453 357.728 578.138C358.04 578.824 358.496 579.431 359.061 579.917C359.627 580.403 360.29 580.756 361.004 580.951C361.717 581.146 362.464 581.178 363.191 581.046C365.042 580.722 366.566 579.3 367.121 577.479C367.577 575.983 367.321 574.607 366.718 573.474L366.716 573.47L363.527 567.716Z" fill="white"/>
<g filter="url(#filter0_d_30214_24445)">
<rect x="472.975" y="314.183" width="84.8342" height="113.112" rx="8.07944" fill="#00050D"/>
<rect x="484.084" y="325.292" width="62.6157" height="61.6058" rx="1.00993" fill="#00A19A"/>
<rect x="484.589" y="325.797" width="61.6058" height="60.5958" rx="0.504965" stroke="white" stroke-opacity="0.2" stroke-width="1.00993"/>
<rect x="484.084" y="388.917" width="30.2979" height="16.1589" rx="1.00993" fill="#E0E7F2"/>
<rect x="516.402" y="388.917" width="30.2979" height="16.1589" rx="1.00993" fill="#E0E7F2"/>
<path d="M495.194 416.185C495.194 411.723 498.811 408.106 503.273 408.106H527.512C531.974 408.106 535.591 411.723 535.591 416.185V427.294H495.194V416.185Z" fill="#1B2432"/>
<path d="M507.313 411.136H523.472V460.623C523.472 461.738 522.568 462.642 521.452 462.642H509.333C508.217 462.642 507.313 461.738 507.313 460.623V411.136Z" fill="#E0E7F2"/>
<rect x="507.313" y="411.136" width="16.1589" height="3.02979" fill="#B5BDCA"/>
<rect x="512.363" y="451.533" width="6.05958" height="11.1092" fill="#DB3833"/>
<path d="M493.908 330.81C493.584 330.185 492.764 330.185 492.44 330.81L490.553 334.455C490.304 334.937 490.144 335.494 490.144 336.102C490.144 336.589 490.241 337.069 490.428 337.51C490.616 337.951 490.889 338.341 491.228 338.654C491.568 338.966 491.966 339.193 492.394 339.318C492.822 339.444 493.27 339.464 493.706 339.379C494.817 339.171 495.731 338.257 496.064 337.086C496.338 336.124 496.184 335.24 495.822 334.512L495.821 334.509L493.908 330.81Z" fill="black"/>
<path d="M491.311 379.828L494.951 376.07H503.682L507.111 379.828H491.311ZM508.242 378.297L504.425 374.713V366.155L508.242 362.745V378.297ZM494.351 363.998C493.526 363.348 492.689 362.711 491.841 362.084L494.351 360.24H504.001L506.475 362.084L504.001 363.998H494.351ZM491.275 344.48H507.076L503.576 348.238H494.916L491.275 344.48ZM490.144 361.528V345.976L493.962 349.351V357.979L490.144 361.528Z" fill="black"/>
<path d="M512.619 374.679H517.072V379.132H512.619V374.679Z" fill="black"/>
<path d="M538.621 378.297L534.803 374.713V366.155L538.621 362.745V378.297ZM524.729 363.998C523.904 363.348 523.068 362.711 522.219 362.084L524.729 360.24H534.379L536.853 362.084L534.379 363.998H524.729ZM521.654 344.48H537.454L533.955 348.238H525.295L521.654 344.48ZM520.523 361.528V345.976L524.34 349.351V357.979L520.523 361.528ZM538.515 345.976V361.528L534.697 358.153V349.56L538.515 345.976Z" fill="black"/>
<path d="M494.184 396.997L501.253 392.957L501.253 401.037L494.184 396.997Z" fill="#97A8C2"/>
<path d="M535.591 396.997L528.521 392.957L528.521 401.037L535.591 396.997Z" fill="#97A8C2"/>
</g>
<circle cx="497.811" cy="570.171" r="6.05958" fill="#FFDE00"/>
<circle cx="497.811" cy="570.171" r="8.07944" stroke="#FFDE00" stroke-opacity="0.4" stroke-width="4.03972"/>
<circle cx="333.671" cy="521.611" r="6.05958" fill="#FFDE00"/>
<circle cx="333.671" cy="521.611" r="8.07944" stroke="#FFDE00" stroke-opacity="0.4" stroke-width="4.03972"/>
</g>
<defs>
<filter id="filter0_d_30214_24445" x="472.975" y="314.183" width="84.8342" height="152.5" filterUnits="userSpaceOnUse" color-interpolation-filters="sRGB">
<feFlood flood-opacity="0" result="BackgroundImageFix"/>
<feColorMatrix in="SourceAlpha" type="matrix" values="0 0 0 0 0 0 0 0 0 0 0 0 0 0 0 0 0 0 127 0" result="hardAlpha"/>
<feOffset dy="4.03972"/>
<feComposite in2="hardAlpha" operator="out"/>
<feColorMatrix type="matrix" values="0 0 0 0 0 0 0 0 0 0 0 0 0 0 0 0 0 0 0.25 0"/>
<feBlend mode="normal" in2="BackgroundImageFix" result="effect1_dropShadow_30214_24445"/>
<feBlend mode="normal" in="SourceGraphic" in2="effect1_dropShadow_30214_24445" result="shape"/>
</filter>
<clipPath id="clip0_30214_24445">
<rect width="588" height="588" fill="white"/>
</clipPath>
</defs>
</svg>
