<svg xmlns="http://www.w3.org/2000/svg" fill-rule="evenodd" viewBox="0 0 100 100">
    <path d="M81.5 79H15V36h65v6.46a1.5 1.5 0 0 0 3 0v-22A1.5 1.5 0 0 0 81.5 19h-68a1.5 1.5 0 0 0-1.5 1.5v60a1.5 1.5 0 0 0 1.5 1.5h68a1.5 1.5 0 0 0 0-3ZM80 22v11H15V22Z"/>
    <path d="M20 29h6a1.5 1.5 0 0 0 0-3h-6a1.5 1.5 0 0 0 0 3Zm14 0h6a1.5 1.5 0 0 0 0-3h-6a1.5 1.5 0 0 0 0 3Zm63.88 32.56v-.13a1.47 1.47 0 0 0 0-.15v-.58a1.47 1.47 0 0 0 0-.15v-.13l-.06-.14-.08-.13-.05-.09C97.28 59.55 87.52 47 74.88 47 61 47 50.76 59.53 50.33 60.06l-.08.12-.08.12a1.47 1.47 0 0 0-.06.15v.12a1.48 1.48 0 0 0 0 .16v.56a1.48 1.48 0 0 0 0 .16v.12a1.47 1.47 0 0 0 .06.15l.08.12.08.12C50.76 62.47 61 75 74.88 75c12.64 0 22.4-12.55 22.81-13.09l.05-.09.08-.13ZM74.88 72c-10.37 0-18.8-8.19-21.39-11 2.59-2.81 11-11 21.39-11 9.31 0 17.24 8.22 19.66 11-2.41 2.78-10.35 11-19.66 11Z"/>
    <path d="M74 52.5a8.5 8.5 0 1 0 8.5 8.5 8.51 8.51 0 0 0-8.5-8.5Zm0 14a5.5 5.5 0 1 1 5.5-5.5 5.51 5.51 0 0 1-5.5 5.5Z"/>
</svg>
