<svg width="576" height="576" viewBox="0 0 576 576" fill="none" xmlns="http://www.w3.org/2000/svg">
<g filter="url(#filter0_b_3470_1297)">
<rect width="576" height="576" fill="#323232"/>
<rect x="50.2792" y="96.9384" width="475.441" height="382.123" rx="18.905" fill="#323232" stroke="white" stroke-width="0.804469"/>
<rect x="69.5863" y="164.514" width="436.827" height="115.844" rx="12.4693" fill="#E8E8E8" stroke="white" stroke-width="0.804469"/>
<g clip-path="url(#clip0_3470_1297)">
<rect x="111.017" y="141.587" width="395.799" height="2.41341" rx="1.2067" fill="white" fill-opacity="0.2"/>
<rect x="111.017" y="141.587" width="69.1844" height="1.60894" rx="0.804469" fill="white" fill-opacity="0.3"/>
<rect x="111.017" y="123.888" width="69.1844" height="7.24022" rx="3.62011" fill="white"/>
<rect x="189.608" y="123.888" width="52.2905" height="7.24022" rx="3.62011" fill="white" fill-opacity="0.2"/>
<rect x="251.306" y="123.888" width="78.0335" height="7.24022" rx="3.62011" fill="white" fill-opacity="0.2"/>
<rect x="338.747" y="123.888" width="35.3966" height="7.24022" rx="3.62011" fill="white" fill-opacity="0.2"/>
<rect x="383.551" y="123.888" width="48.2682" height="7.24022" rx="3.62011" fill="white" fill-opacity="0.2"/>
<rect x="455.33" y="118.257" width="12.8715" height="12.8715" rx="6.43575" fill="#4C4C4C"/>
<rect x="474.637" y="118.257" width="12.8715" height="12.8715" rx="6.43575" fill="#4C4C4C"/>
<rect x="493.944" y="118.257" width="12.8715" height="12.8715" rx="6.43575" fill="#4C4C4C"/>
</g>
<circle cx="83.6645" cy="130.324" r="14.4804" fill="#4C4C4C"/>
<g filter="url(#filter1_d_3470_1297)">
<rect x="295.24" y="237.318" width="85.2737" height="21.7207" rx="10.8603" fill="#AB001F"/>
<rect x="295.642" y="237.721" width="84.4693" height="20.9162" rx="10.4581" stroke="white" stroke-opacity="0.2" stroke-width="0.804469"/>
</g>
<rect x="295.24" y="205.944" width="85.2737" height="4.82682" rx="2.41341" fill="#323232" fill-opacity="0.16"/>
<rect x="295.24" y="214.793" width="63.5531" height="4.82682" rx="2.41341" fill="#323232" fill-opacity="0.16"/>
<rect x="295.24" y="188.246" width="111.821" height="9.65363" rx="4.82682" fill="#323232"/>
<rect x="106.19" y="316.155" width="59.5307" height="4.82682" rx="2.41341" fill="white" fill-opacity="0.2"/>
<rect x="106.19" y="325.81" width="37.0056" height="4.82682" rx="2.41341" fill="white" fill-opacity="0.2"/>
<rect x="106.19" y="303.284" width="48.2682" height="6.43575" rx="3.21788" fill="#929292"/>
<g opacity="0.4" filter="url(#filter2_d_3470_1297)">
<circle cx="82.0556" cy="313.743" r="12.8715" fill="#AB001F"/>
</g>
<circle cx="82.0554" cy="313.742" r="6.43575" fill="#AB001F"/>
<rect x="220.424" y="316.155" width="48.2682" height="4.82682" rx="2.41341" fill="white" fill-opacity="0.2"/>
<rect x="220.424" y="325.81" width="37.0056" height="4.82682" rx="2.41341" fill="white" fill-opacity="0.2"/>
<rect x="220.424" y="303.284" width="59.5307" height="6.43575" rx="3.21788" fill="#929292"/>
<g opacity="0.4" filter="url(#filter3_d_3470_1297)">
<circle cx="196.29" cy="313.743" r="12.8715" fill="#AB001F"/>
</g>
<circle cx="196.29" cy="313.742" r="6.43575" fill="#AB001F"/>
<rect x="334.659" y="316.155" width="57.9218" height="4.82682" rx="2.41341" fill="white" fill-opacity="0.2"/>
<rect x="334.659" y="325.81" width="45.8547" height="4.82682" rx="2.41341" fill="white" fill-opacity="0.2"/>
<rect x="334.659" y="303.284" width="37.0056" height="6.43575" rx="3.21788" fill="#929292"/>
<g opacity="0.4" filter="url(#filter4_d_3470_1297)">
<circle cx="310.525" cy="313.743" r="12.8715" fill="#AB001F"/>
</g>
<circle cx="310.525" cy="313.742" r="6.43575" fill="#AB001F"/>
<rect x="447.285" y="316.155" width="59.5307" height="4.82682" rx="2.41341" fill="white" fill-opacity="0.2"/>
<rect x="447.285" y="325.81" width="37.0056" height="4.82682" rx="2.41341" fill="white" fill-opacity="0.2"/>
<rect x="447.285" y="303.284" width="48.2682" height="6.43575" rx="3.21788" fill="#929292"/>
<g opacity="0.4" filter="url(#filter5_d_3470_1297)">
<circle cx="423.151" cy="313.743" r="12.8715" fill="#AB001F"/>
</g>
<circle cx="423.151" cy="313.742" r="6.43575" fill="#AB001F"/>
<rect x="69.5868" y="374.48" width="106.19" height="74.0112" rx="9.2514" stroke="white" stroke-width="0.804469"/>
<circle cx="92.514" cy="396.603" r="9.65363" fill="#E6E6E6"/>
<rect x="82.0562" y="429.587" width="78.0335" height="4.82682" rx="2.41341" fill="white" fill-opacity="0.2"/>
<rect x="82.0562" y="416.715" width="38.6145" height="6.43575" rx="3.21788" fill="#929292"/>
<rect x="184.626" y="374.48" width="106.19" height="74.0112" rx="9.2514" stroke="white" stroke-width="0.804469"/>
<circle cx="207.553" cy="396.603" r="9.65363" fill="#E6E6E6"/>
<rect x="197.095" y="429.587" width="78.0335" height="4.82682" rx="2.41341" fill="white" fill-opacity="0.2"/>
<rect x="197.095" y="416.715" width="38.6145" height="6.43575" rx="3.21788" fill="#929292"/>
<rect x="69.1841" y="351.553" width="437.631" height="1.60894" rx="0.804469" fill="white" fill-opacity="0.2"/>
<rect x="334.659" y="411.084" width="82.0559" height="4.82682" rx="2.41341" fill="white" fill-opacity="0.12"/>
<rect x="334.659" y="420.737" width="97.3408" height="4.82682" rx="2.41341" fill="white" fill-opacity="0.12"/>
<rect x="334.659" y="431.195" width="120.67" height="4.82682" rx="2.41341" fill="white" fill-opacity="0.12"/>
<rect x="334.659" y="441.653" width="120.67" height="4.82682" rx="2.41341" fill="white" fill-opacity="0.12"/>
<rect x="334.659" y="374.078" width="136.76" height="9.65363" rx="4.82682" fill="#929292"/>
<rect x="334.659" y="391.776" width="94.9274" height="9.65363" rx="4.82682" fill="#929292"/>
<g filter="url(#filter6_d_3470_1297)">
<rect x="111.017" y="202.727" width="138.369" height="38.8715" rx="6.43575" fill="#FEE0BC"/>
<path d="M128.186 212.141V219.162H126.925V213.197H123.853V219.162H122.592V212.141H128.186ZM131.95 219.265C131.435 219.265 130.99 219.152 130.613 218.926C130.236 218.699 129.943 218.383 129.735 217.976C129.529 217.569 129.427 217.094 129.427 216.55C129.427 216.006 129.529 215.529 129.735 215.12C129.943 214.711 130.236 214.394 130.613 214.167C130.99 213.941 131.435 213.828 131.95 213.828C132.464 213.828 132.91 213.941 133.287 214.167C133.664 214.394 133.955 214.711 134.161 215.12C134.369 215.529 134.473 216.006 134.473 216.55C134.473 217.094 134.369 217.569 134.161 217.976C133.955 218.383 133.664 218.699 133.287 218.926C132.91 219.152 132.464 219.265 131.95 219.265ZM131.957 218.271C132.235 218.271 132.468 218.194 132.656 218.041C132.843 217.886 132.983 217.678 133.074 217.417C133.168 217.157 133.215 216.866 133.215 216.546C133.215 216.224 133.168 215.933 133.074 215.672C132.983 215.409 132.843 215.2 132.656 215.045C132.468 214.89 132.235 214.812 131.957 214.812C131.671 214.812 131.433 214.89 131.243 215.045C131.056 215.2 130.916 215.409 130.822 215.672C130.73 215.933 130.685 216.224 130.685 216.546C130.685 216.866 130.73 217.157 130.822 217.417C130.916 217.678 131.056 217.886 131.243 218.041C131.433 218.194 131.671 218.271 131.957 218.271ZM135.06 220.691V218.141H135.478C135.59 218.054 135.684 217.936 135.759 217.787C135.835 217.637 135.896 217.459 135.944 217.256C135.995 217.05 136.036 216.821 136.068 216.567C136.1 216.311 136.128 216.036 136.153 215.741L136.304 213.896H140.11V218.141H140.925V220.691H139.726V219.162H136.28V220.691H135.06ZM136.753 218.141H138.923V214.898H137.381L137.298 215.741C137.253 216.298 137.192 216.776 137.117 217.174C137.041 217.571 136.92 217.894 136.753 218.141ZM144.149 219.265C143.634 219.265 143.189 219.152 142.812 218.926C142.435 218.699 142.142 218.383 141.934 217.976C141.728 217.569 141.626 217.094 141.626 216.55C141.626 216.006 141.728 215.529 141.934 215.12C142.142 214.711 142.435 214.394 142.812 214.167C143.189 213.941 143.634 213.828 144.149 213.828C144.663 213.828 145.109 213.941 145.486 214.167C145.863 214.394 146.154 214.711 146.36 215.12C146.568 215.529 146.672 216.006 146.672 216.55C146.672 217.094 146.568 217.569 146.36 217.976C146.154 218.383 145.863 218.699 145.486 218.926C145.109 219.152 144.663 219.265 144.149 219.265ZM144.156 218.271C144.434 218.271 144.668 218.194 144.855 218.041C145.042 217.886 145.182 217.678 145.273 217.417C145.367 217.157 145.414 216.866 145.414 216.546C145.414 216.224 145.367 215.933 145.273 215.672C145.182 215.409 145.042 215.2 144.855 215.045C144.668 214.89 144.434 214.812 144.156 214.812C143.87 214.812 143.632 214.89 143.443 215.045C143.255 215.2 143.115 215.409 143.021 215.672C142.929 215.933 142.884 216.224 142.884 216.546C142.884 216.866 142.929 217.157 143.021 217.417C143.115 217.678 143.255 217.886 143.443 218.041C143.632 218.194 143.87 218.271 144.156 218.271ZM151.945 211.949L152.377 212.751C152.224 212.884 152.053 212.98 151.863 213.039C151.673 213.099 151.45 213.138 151.194 213.156C150.941 213.172 150.639 213.183 150.289 213.19C149.896 213.199 149.575 213.274 149.326 213.413C149.077 213.553 148.886 213.764 148.754 214.047C148.621 214.328 148.534 214.687 148.493 215.124H148.551C148.716 214.802 148.947 214.556 149.244 214.387C149.541 214.218 149.889 214.133 150.289 214.133C150.726 214.133 151.111 214.231 151.445 214.428C151.781 214.622 152.042 214.904 152.23 215.275C152.419 215.645 152.514 216.093 152.514 216.618C152.514 217.16 152.413 217.63 152.209 218.027C152.006 218.423 151.717 218.728 151.342 218.943C150.969 219.158 150.527 219.265 150.015 219.265C149.505 219.265 149.062 219.154 148.685 218.932C148.31 218.708 148.02 218.378 147.814 217.942C147.611 217.503 147.509 216.962 147.509 216.32V215.847C147.509 214.608 147.74 213.684 148.202 213.074C148.663 212.464 149.348 212.153 150.255 212.141C150.525 212.137 150.766 212.136 150.978 212.138C151.193 212.14 151.381 212.13 151.541 212.107C151.701 212.084 151.835 212.032 151.945 211.949ZM150.022 218.271C150.276 218.271 150.495 218.206 150.68 218.075C150.865 217.943 151.007 217.755 151.105 217.513C151.206 217.271 151.256 216.984 151.256 216.653C151.256 216.326 151.206 216.048 151.105 215.82C151.005 215.589 150.862 215.413 150.677 215.292C150.492 215.171 150.271 215.11 150.015 215.11C149.823 215.11 149.651 215.144 149.497 215.213C149.344 215.281 149.214 215.382 149.107 215.515C148.999 215.647 148.917 215.808 148.86 215.998C148.803 216.188 148.772 216.406 148.767 216.653C148.767 217.149 148.879 217.543 149.103 217.835C149.327 218.126 149.633 218.271 150.022 218.271ZM153.57 221.137V213.896H154.791V214.767H154.863C154.926 214.639 155.017 214.503 155.133 214.359C155.25 214.213 155.408 214.088 155.606 213.986C155.805 213.88 156.059 213.828 156.367 213.828C156.774 213.828 157.141 213.932 157.468 214.14C157.797 214.346 158.058 214.651 158.249 215.055C158.444 215.457 158.541 215.951 158.541 216.536C158.541 217.114 158.446 217.606 158.256 218.01C158.067 218.415 157.808 218.723 157.482 218.936C157.155 219.148 156.785 219.255 156.371 219.255C156.069 219.255 155.819 219.204 155.62 219.104C155.421 219.003 155.261 218.882 155.14 218.74C155.021 218.596 154.929 218.46 154.863 218.333H154.811V221.137H153.57ZM154.787 216.529C154.787 216.87 154.835 217.168 154.931 217.424C155.029 217.68 155.17 217.88 155.353 218.024C155.538 218.166 155.762 218.237 156.025 218.237C156.299 218.237 156.529 218.163 156.714 218.017C156.899 217.869 157.038 217.666 157.132 217.41C157.228 217.152 157.276 216.858 157.276 216.529C157.276 216.202 157.229 215.912 157.135 215.659C157.042 215.405 156.902 215.206 156.717 215.062C156.532 214.918 156.301 214.846 156.025 214.846C155.76 214.846 155.534 214.916 155.349 215.055C155.164 215.195 155.024 215.39 154.928 215.641C154.834 215.893 154.787 216.189 154.787 216.529ZM161.119 219.268C160.785 219.268 160.485 219.209 160.217 219.09C159.952 218.969 159.742 218.791 159.586 218.555C159.433 218.32 159.357 218.03 159.357 217.685C159.357 217.387 159.412 217.142 159.521 216.948C159.631 216.753 159.781 216.598 159.97 216.481C160.16 216.365 160.374 216.277 160.611 216.217C160.851 216.156 161.099 216.111 161.355 216.084C161.664 216.052 161.914 216.023 162.106 215.998C162.298 215.971 162.438 215.929 162.524 215.875C162.614 215.817 162.658 215.729 162.658 215.611V215.59C162.658 215.332 162.582 215.132 162.428 214.99C162.275 214.848 162.055 214.778 161.767 214.778C161.463 214.778 161.222 214.844 161.043 214.976C160.867 215.109 160.749 215.265 160.687 215.446L159.528 215.281C159.62 214.961 159.77 214.694 159.981 214.479C160.191 214.262 160.448 214.1 160.752 213.992C161.056 213.883 161.392 213.828 161.76 213.828C162.014 213.828 162.266 213.858 162.518 213.917C162.769 213.976 162.999 214.075 163.207 214.212C163.415 214.347 163.581 214.531 163.707 214.764C163.835 214.997 163.899 215.288 163.899 215.638V219.162H162.706V218.439H162.665C162.59 218.585 162.483 218.722 162.346 218.85C162.211 218.976 162.041 219.078 161.835 219.155C161.632 219.231 161.393 219.268 161.119 219.268ZM161.441 218.356C161.69 218.356 161.906 218.307 162.089 218.209C162.272 218.109 162.412 217.976 162.511 217.811C162.611 217.647 162.662 217.467 162.662 217.273V216.653C162.623 216.685 162.556 216.714 162.463 216.742C162.371 216.769 162.268 216.793 162.154 216.814C162.04 216.834 161.927 216.853 161.815 216.869C161.703 216.885 161.606 216.898 161.523 216.91C161.338 216.935 161.173 216.976 161.026 217.033C160.88 217.09 160.765 217.17 160.68 217.273C160.595 217.374 160.553 217.504 160.553 217.664C160.553 217.893 160.637 218.065 160.803 218.182C160.97 218.298 161.183 218.356 161.441 218.356ZM164.557 214.915V213.896H169.165V214.915H167.461V219.162H166.261V214.915H164.557ZM170.993 215.611H172.546C173.218 215.611 173.738 215.774 174.105 216.101C174.473 216.428 174.659 216.856 174.661 217.386C174.659 217.731 174.574 218.038 174.407 218.305C174.243 218.572 174.003 218.783 173.687 218.936C173.374 219.087 172.994 219.162 172.546 219.162H170.153V213.896H171.349V218.144H172.546C172.815 218.144 173.037 218.075 173.211 217.938C173.384 217.799 173.471 217.621 173.471 217.403C173.471 217.175 173.384 216.989 173.211 216.845C173.037 216.701 172.815 216.629 172.546 216.629H170.993V215.611ZM178.119 219.162V213.896H182.565V219.162H181.369V214.915H179.305V219.162H178.119ZM186.138 219.265C185.624 219.265 185.178 219.152 184.801 218.926C184.424 218.699 184.132 218.383 183.924 217.976C183.718 217.569 183.615 217.094 183.615 216.55C183.615 216.006 183.718 215.529 183.924 215.12C184.132 214.711 184.424 214.394 184.801 214.167C185.178 213.941 185.624 213.828 186.138 213.828C186.652 213.828 187.098 213.941 187.475 214.167C187.852 214.394 188.144 214.711 188.349 215.12C188.557 215.529 188.661 216.006 188.661 216.55C188.661 217.094 188.557 217.569 188.349 217.976C188.144 218.383 187.852 218.699 187.475 218.926C187.098 219.152 186.652 219.265 186.138 219.265ZM186.145 218.271C186.424 218.271 186.657 218.194 186.844 218.041C187.032 217.886 187.171 217.678 187.263 217.417C187.356 217.157 187.403 216.866 187.403 216.546C187.403 216.224 187.356 215.933 187.263 215.672C187.171 215.409 187.032 215.2 186.844 215.045C186.657 214.89 186.424 214.812 186.145 214.812C185.859 214.812 185.622 214.89 185.432 215.045C185.245 215.2 185.104 215.409 185.01 215.672C184.919 215.933 184.873 216.224 184.873 216.546C184.873 216.866 184.919 217.157 185.01 217.417C185.104 217.678 185.245 217.886 185.432 218.041C185.622 218.194 185.859 218.271 186.145 218.271ZM189.248 220.691V218.141H189.667C189.779 218.054 189.872 217.936 189.948 217.787C190.023 217.637 190.085 217.459 190.133 217.256C190.183 217.05 190.224 216.821 190.256 216.567C190.288 216.311 190.317 216.036 190.342 215.741L190.493 213.896H194.298V218.141H195.114V220.691H193.914V219.162H190.469V220.691H189.248ZM190.942 218.141H193.112V214.898H191.569L191.487 215.741C191.441 216.298 191.381 216.776 191.305 217.174C191.23 217.571 191.109 217.894 190.942 218.141ZM197.055 213.896L198.118 215.84L199.198 213.896H200.511L198.923 216.529L200.538 219.162H199.232L198.118 217.266L197.014 219.162H195.698L197.302 216.529L195.739 213.896H197.055ZM203.569 219.265C203.055 219.265 202.61 219.152 202.232 218.926C201.855 218.699 201.563 218.383 201.355 217.976C201.149 217.569 201.046 217.094 201.046 216.55C201.046 216.006 201.149 215.529 201.355 215.12C201.563 214.711 201.855 214.394 202.232 214.167C202.61 213.941 203.055 213.828 203.569 213.828C204.084 213.828 204.529 213.941 204.906 214.167C205.284 214.394 205.575 214.711 205.781 215.12C205.989 215.529 206.093 216.006 206.093 216.55C206.093 217.094 205.989 217.569 205.781 217.976C205.575 218.383 205.284 218.699 204.906 218.926C204.529 219.152 204.084 219.265 203.569 219.265ZM203.576 218.271C203.855 218.271 204.088 218.194 204.276 218.041C204.463 217.886 204.602 217.678 204.694 217.417C204.788 217.157 204.834 216.866 204.834 216.546C204.834 216.224 204.788 215.933 204.694 215.672C204.602 215.409 204.463 215.2 204.276 215.045C204.088 214.89 203.855 214.812 203.576 214.812C203.291 214.812 203.053 214.89 202.863 215.045C202.676 215.2 202.535 215.409 202.442 215.672C202.35 215.933 202.304 216.224 202.304 216.546C202.304 216.866 202.35 217.157 202.442 217.417C202.535 217.678 202.676 217.886 202.863 218.041C203.053 218.194 203.291 218.271 203.576 218.271ZM206.68 220.691V218.141H207.098C207.21 218.054 207.304 217.936 207.379 217.787C207.454 217.637 207.516 217.459 207.564 217.256C207.614 217.05 207.656 216.821 207.688 216.567C207.719 216.311 207.748 216.036 207.773 215.741L207.924 213.896H211.729V218.141H212.545V220.691H211.345V219.162H207.9V220.691H206.68ZM208.373 218.141H210.543V214.898H209L208.918 215.741C208.872 216.298 208.812 216.776 208.737 217.174C208.661 217.571 208.54 217.894 208.373 218.141ZM216.584 219.162V214.904H215.46C215.174 214.904 214.955 214.971 214.802 215.103C214.649 215.236 214.573 215.4 214.575 215.597C214.573 215.793 214.645 215.956 214.791 216.084C214.938 216.212 215.147 216.276 215.419 216.276H216.975V217.181H215.419C214.998 217.181 214.635 217.114 214.329 216.982C214.022 216.849 213.787 216.662 213.622 216.42C213.458 216.177 213.376 215.894 213.376 215.569C213.376 215.231 213.459 214.938 213.626 214.688C213.795 214.437 214.035 214.243 214.346 214.106C214.659 213.966 215.03 213.896 215.46 213.896H217.747V219.162H216.584ZM213.184 219.162L214.654 216.461H215.878L214.404 219.162H213.184ZM226.905 218.144L226.802 220.67H225.633V219.162H225.012V218.144H226.905ZM218.996 213.896H220.192V218.141H221.848V213.896H223.045V218.141H224.7V213.896H225.897V219.162H218.996V213.896ZM230.161 219.265C229.633 219.265 229.177 219.155 228.793 218.936C228.411 218.714 228.117 218.401 227.912 217.997C227.706 217.59 227.603 217.111 227.603 216.56C227.603 216.019 227.706 215.543 227.912 215.134C228.12 214.723 228.41 214.403 228.783 214.174C229.155 213.943 229.593 213.828 230.096 213.828C230.42 213.828 230.726 213.88 231.014 213.986C231.305 214.088 231.56 214.248 231.782 214.466C232.006 214.683 232.182 214.959 232.31 215.295C232.438 215.629 232.502 216.027 232.502 216.488V216.869H228.186V216.032H231.312C231.31 215.795 231.259 215.583 231.158 215.398C231.058 215.211 230.917 215.063 230.737 214.956C230.558 214.848 230.35 214.795 230.113 214.795C229.859 214.795 229.636 214.856 229.444 214.98C229.252 215.101 229.102 215.261 228.995 215.46C228.89 215.656 228.836 215.872 228.834 216.108V216.838C228.834 217.144 228.89 217.407 229.002 217.626C229.114 217.843 229.27 218.01 229.472 218.127C229.673 218.241 229.908 218.298 230.178 218.298C230.358 218.298 230.522 218.273 230.668 218.223C230.814 218.17 230.941 218.094 231.049 217.993C231.156 217.893 231.237 217.768 231.292 217.619L232.451 217.75C232.378 218.056 232.238 218.323 232.032 218.552C231.829 218.778 231.568 218.954 231.251 219.08C230.933 219.203 230.57 219.265 230.161 219.265ZM235.883 219.265C235.355 219.265 234.899 219.155 234.515 218.936C234.134 218.714 233.84 218.401 233.634 217.997C233.429 217.59 233.326 217.111 233.326 216.56C233.326 216.019 233.429 215.543 233.634 215.134C233.842 214.723 234.132 214.403 234.505 214.174C234.877 213.943 235.315 213.828 235.818 213.828C236.142 213.828 236.449 213.88 236.737 213.986C237.027 214.088 237.283 214.248 237.505 214.466C237.729 214.683 237.905 214.959 238.033 215.295C238.16 215.629 238.224 216.027 238.224 216.488V216.869H233.908V216.032H237.035C237.033 215.795 236.981 215.583 236.881 215.398C236.78 215.211 236.64 215.063 236.459 214.956C236.281 214.848 236.073 214.795 235.835 214.795C235.581 214.795 235.359 214.856 235.167 214.98C234.975 215.101 234.825 215.261 234.718 215.46C234.612 215.656 234.559 215.872 234.556 216.108V216.838C234.556 217.144 234.612 217.407 234.724 217.626C234.836 217.843 234.993 218.01 235.194 218.127C235.395 218.241 235.631 218.298 235.9 218.298C236.081 218.298 236.244 218.273 236.39 218.223C236.537 218.17 236.664 218.094 236.771 217.993C236.878 217.893 236.96 217.768 237.014 217.619L238.173 217.75C238.1 218.056 237.961 218.323 237.755 218.552C237.551 218.778 237.291 218.954 236.973 219.08C236.656 219.203 236.292 219.265 235.883 219.265ZM149.426 230.482L151.534 226.896H152.809V232.162H151.61V228.573L149.508 232.162H148.229V226.896H149.426V230.482ZM153.792 230.719H155.023C155.035 230.915 155.123 231.067 155.287 231.175C155.452 231.282 155.665 231.336 155.928 231.336C156.196 231.336 156.421 231.278 156.604 231.161C156.789 231.042 156.881 230.863 156.881 230.623C156.881 230.481 156.846 230.357 156.775 230.249C156.704 230.14 156.605 230.055 156.477 229.996C156.349 229.936 156.198 229.906 156.024 229.906H155.219V229.025H156.024C156.282 229.025 156.478 228.966 156.61 228.847C156.745 228.728 156.813 228.579 156.813 228.398C156.813 228.204 156.742 228.046 156.6 227.925C156.461 227.804 156.268 227.743 156.021 227.743C155.774 227.743 155.568 227.799 155.404 227.911C155.241 228.023 155.157 228.167 155.15 228.343H153.926C153.931 228.037 154.022 227.771 154.2 227.544C154.381 227.318 154.623 227.142 154.927 227.016C155.233 226.891 155.579 226.828 155.963 226.828C156.374 226.828 156.729 226.89 157.029 227.013C157.328 227.136 157.559 227.309 157.721 227.531C157.883 227.75 157.965 228.008 157.965 228.305C157.965 228.591 157.875 228.828 157.697 229.015C157.519 229.2 157.279 229.333 156.977 229.413V229.468C157.185 229.479 157.373 229.538 157.539 229.646C157.706 229.751 157.839 229.894 157.937 230.074C158.035 230.255 158.085 230.464 158.085 230.702C158.085 231.024 157.992 231.303 157.807 231.538C157.622 231.771 157.367 231.951 157.042 232.076C156.72 232.202 156.351 232.265 155.935 232.265C155.531 232.265 155.168 232.204 154.848 232.083C154.531 231.96 154.278 231.783 154.091 231.552C153.903 231.321 153.804 231.043 153.792 230.719ZM161.358 232.265C160.844 232.265 160.399 232.152 160.021 231.926C159.644 231.699 159.352 231.383 159.144 230.976C158.938 230.569 158.835 230.094 158.835 229.55C158.835 229.006 158.938 228.529 159.144 228.12C159.352 227.711 159.644 227.394 160.021 227.167C160.399 226.941 160.844 226.828 161.358 226.828C161.873 226.828 162.318 226.941 162.695 227.167C163.072 227.394 163.364 227.711 163.57 228.12C163.778 228.529 163.881 229.006 163.881 229.55C163.881 230.094 163.778 230.569 163.57 230.976C163.364 231.383 163.072 231.699 162.695 231.926C162.318 232.152 161.873 232.265 161.358 232.265ZM161.365 231.271C161.644 231.271 161.877 231.194 162.065 231.041C162.252 230.886 162.391 230.678 162.483 230.417C162.577 230.157 162.623 229.866 162.623 229.546C162.623 229.224 162.577 228.933 162.483 228.672C162.391 228.409 162.252 228.2 162.065 228.045C161.877 227.89 161.644 227.812 161.365 227.812C161.08 227.812 160.842 227.89 160.652 228.045C160.465 228.2 160.324 228.409 160.231 228.672C160.139 228.933 160.093 229.224 160.093 229.546C160.093 229.866 160.139 230.157 160.231 230.417C160.324 230.678 160.465 230.886 160.652 231.041C160.842 231.194 161.08 231.271 161.365 231.271ZM169.155 224.949L169.587 225.751C169.434 225.884 169.262 225.98 169.073 226.039C168.883 226.099 168.66 226.138 168.404 226.156C168.15 226.172 167.849 226.183 167.499 226.19C167.106 226.199 166.785 226.274 166.536 226.413C166.287 226.553 166.096 226.764 165.963 227.047C165.831 227.328 165.744 227.687 165.703 228.124H165.761C165.926 227.802 166.156 227.556 166.453 227.387C166.751 227.218 167.099 227.133 167.499 227.133C167.936 227.133 168.321 227.231 168.654 227.428C168.99 227.622 169.252 227.904 169.439 228.275C169.629 228.645 169.724 229.093 169.724 229.618C169.724 230.16 169.622 230.63 169.419 231.027C169.215 231.423 168.926 231.728 168.551 231.943C168.179 232.158 167.737 232.265 167.225 232.265C166.715 232.265 166.272 232.154 165.895 231.932C165.52 231.708 165.23 231.378 165.024 230.942C164.821 230.503 164.719 229.962 164.719 229.32V228.847C164.719 227.608 164.95 226.684 165.411 226.074C165.873 225.464 166.557 225.153 167.465 225.141C167.734 225.137 167.976 225.136 168.188 225.138C168.403 225.14 168.59 225.13 168.75 225.107C168.91 225.084 169.045 225.032 169.155 224.949ZM167.232 231.271C167.485 231.271 167.705 231.206 167.89 231.075C168.075 230.943 168.217 230.755 168.315 230.513C168.415 230.271 168.466 229.984 168.466 229.653C168.466 229.326 168.415 229.048 168.315 228.82C168.214 228.589 168.072 228.413 167.886 228.292C167.701 228.171 167.481 228.11 167.225 228.11C167.033 228.11 166.86 228.144 166.707 228.213C166.554 228.281 166.424 228.382 166.316 228.515C166.209 228.647 166.127 228.808 166.07 228.998C166.012 229.188 165.982 229.406 165.977 229.653C165.977 230.149 166.089 230.543 166.313 230.835C166.537 231.126 166.843 231.271 167.232 231.271ZM170.78 234.137V226.896H172V227.767H172.072C172.136 227.639 172.226 227.503 172.343 227.359C172.46 227.213 172.617 227.088 172.816 226.986C173.015 226.88 173.269 226.828 173.577 226.828C173.984 226.828 174.351 226.932 174.678 227.14C175.007 227.346 175.267 227.651 175.459 228.055C175.653 228.457 175.751 228.951 175.751 229.536C175.751 230.114 175.656 230.606 175.466 231.01C175.276 231.415 175.018 231.723 174.691 231.936C174.364 232.148 173.994 232.255 173.581 232.255C173.279 232.255 173.029 232.204 172.83 232.104C172.631 232.003 172.471 231.882 172.35 231.74C172.231 231.596 172.138 231.46 172.072 231.333H172.021V234.137H170.78ZM171.997 229.529C171.997 229.87 172.045 230.168 172.141 230.424C172.239 230.68 172.38 230.88 172.562 231.024C172.748 231.166 172.971 231.237 173.234 231.237C173.509 231.237 173.738 231.163 173.923 231.017C174.108 230.869 174.248 230.666 174.342 230.41C174.438 230.152 174.486 229.858 174.486 229.529C174.486 229.202 174.439 228.912 174.345 228.659C174.251 228.405 174.112 228.206 173.927 228.062C173.742 227.918 173.511 227.846 173.234 227.846C172.969 227.846 172.744 227.916 172.559 228.055C172.374 228.195 172.233 228.39 172.137 228.641C172.044 228.893 171.997 229.189 171.997 229.529ZM178.329 232.268C177.995 232.268 177.694 232.209 177.427 232.09C177.162 231.969 176.952 231.791 176.796 231.555C176.643 231.32 176.566 231.03 176.566 230.685C176.566 230.387 176.621 230.142 176.731 229.948C176.841 229.753 176.99 229.598 177.18 229.481C177.37 229.365 177.583 229.277 177.821 229.217C178.061 229.156 178.309 229.111 178.565 229.084C178.874 229.052 179.124 229.023 179.316 228.998C179.508 228.971 179.647 228.929 179.734 228.875C179.823 228.817 179.868 228.729 179.868 228.611V228.59C179.868 228.332 179.791 228.132 179.638 227.99C179.485 227.848 179.264 227.778 178.976 227.778C178.672 227.778 178.431 227.844 178.253 227.976C178.077 228.109 177.958 228.265 177.897 228.446L176.738 228.281C176.829 227.961 176.98 227.694 177.19 227.479C177.401 227.262 177.658 227.1 177.962 226.992C178.266 226.883 178.602 226.828 178.97 226.828C179.223 226.828 179.476 226.858 179.727 226.917C179.979 226.976 180.208 227.075 180.416 227.212C180.624 227.347 180.791 227.531 180.917 227.764C181.045 227.997 181.109 228.288 181.109 228.638V232.162H179.916V231.439H179.875C179.799 231.585 179.693 231.722 179.556 231.85C179.421 231.976 179.251 232.078 179.045 232.155C178.842 232.231 178.603 232.268 178.329 232.268ZM178.651 231.356C178.9 231.356 179.116 231.307 179.299 231.209C179.482 231.109 179.622 230.976 179.72 230.811C179.821 230.647 179.871 230.467 179.871 230.273V229.653C179.832 229.685 179.766 229.714 179.672 229.742C179.581 229.769 179.478 229.793 179.364 229.814C179.25 229.834 179.136 229.853 179.024 229.869C178.912 229.885 178.815 229.898 178.733 229.91C178.548 229.935 178.382 229.976 178.236 230.033C178.09 230.09 177.974 230.17 177.89 230.273C177.805 230.374 177.763 230.504 177.763 230.664C177.763 230.893 177.846 231.065 178.013 231.182C178.18 231.298 178.393 231.356 178.651 231.356ZM182.014 232.162L183.958 229.444L182.031 226.896H183.464L184.962 229.019H185.257V226.896H186.498V229.019H186.786L188.284 226.896H189.717L187.8 229.444L189.734 232.162H188.27L186.772 230.037H186.498V232.162H185.257V230.037H184.983L183.478 232.162H182.014ZM192.795 232.265C192.267 232.265 191.811 232.155 191.427 231.936C191.046 231.714 190.752 231.401 190.546 230.997C190.341 230.59 190.238 230.111 190.238 229.56C190.238 229.019 190.341 228.543 190.546 228.134C190.754 227.723 191.045 227.403 191.417 227.174C191.79 226.943 192.227 226.828 192.73 226.828C193.055 226.828 193.361 226.88 193.649 226.986C193.939 227.088 194.195 227.248 194.417 227.466C194.641 227.683 194.817 227.959 194.945 228.295C195.073 228.629 195.137 229.027 195.137 229.488V229.869H190.821V229.032H193.947C193.945 228.795 193.893 228.583 193.793 228.398C193.692 228.211 193.552 228.063 193.371 227.956C193.193 227.848 192.985 227.795 192.747 227.795C192.494 227.795 192.271 227.856 192.079 227.98C191.887 228.101 191.737 228.261 191.63 228.46C191.525 228.656 191.471 228.872 191.469 229.108V229.838C191.469 230.144 191.525 230.407 191.637 230.626C191.749 230.843 191.905 231.01 192.106 231.127C192.307 231.241 192.543 231.298 192.812 231.298C192.993 231.298 193.156 231.273 193.303 231.223C193.449 231.17 193.576 231.094 193.683 230.993C193.791 230.893 193.872 230.768 193.927 230.619L195.085 230.75C195.012 231.056 194.873 231.323 194.667 231.552C194.464 231.778 194.203 231.954 193.885 232.08C193.568 232.203 193.204 232.265 192.795 232.265ZM199.803 229.015V230.033H196.999V229.015H199.803ZM197.383 226.896V232.162H196.187V226.896H197.383ZM200.616 226.896V232.162H199.423V226.896H200.616ZM203.068 230.482L205.176 226.896H206.451V232.162H205.251V228.573L203.15 232.162H201.871V226.896H203.068V230.482ZM210.057 232.265C209.529 232.265 209.073 232.155 208.689 231.936C208.307 231.714 208.014 231.401 207.808 230.997C207.602 230.59 207.499 230.111 207.499 229.56C207.499 229.019 207.602 228.543 207.808 228.134C208.016 227.723 208.306 227.403 208.679 227.174C209.051 226.943 209.489 226.828 209.992 226.828C210.316 226.828 210.622 226.88 210.91 226.986C211.201 227.088 211.457 227.248 211.678 227.466C211.902 227.683 212.078 227.959 212.206 228.295C212.334 228.629 212.398 229.027 212.398 229.488V229.869H208.082V229.032H211.209C211.206 228.795 211.155 228.583 211.054 228.398C210.954 228.211 210.813 228.063 210.633 227.956C210.454 227.848 210.246 227.795 210.009 227.795C209.755 227.795 209.532 227.856 209.34 227.98C209.148 228.101 208.999 228.261 208.891 228.46C208.786 228.656 208.732 228.872 208.73 229.108V229.838C208.73 230.144 208.786 230.407 208.898 230.626C209.01 230.843 209.167 231.01 209.368 231.127C209.569 231.241 209.804 231.298 210.074 231.298C210.254 231.298 210.418 231.273 210.564 231.223C210.71 231.17 210.837 231.094 210.945 230.993C211.052 230.893 211.133 230.768 211.188 230.619L212.347 230.75C212.274 231.056 212.134 231.323 211.929 231.552C211.725 231.778 211.465 231.954 211.147 232.08C210.829 232.203 210.466 232.265 210.057 232.265Z" fill="#313741"/>
<path d="M255.419 222.163L249.385 226.99L249.385 217.336L255.419 222.163Z" fill="#FEE0BC"/>
</g>
<g filter="url(#filter7_d_3470_1297)">
<path d="M196.285 333.854L201.112 339.888H191.458L196.285 333.854Z" fill="#FEE0BC"/>
<rect x="149.631" y="339.888" width="93.3073" height="25.8715" rx="6.43575" fill="#FEE0BC"/>
<path d="M159.849 358.017V355.285H160.319C160.477 355.159 160.624 354.982 160.761 354.753C160.898 354.525 161.015 354.212 161.111 353.814C161.207 353.416 161.273 352.902 161.31 352.271L161.495 349.302H165.982V355.285H166.764V358.01H165.543V356.323H161.07V358.017H159.849ZM161.8 355.285H164.762V350.369H162.64L162.53 352.271C162.5 352.749 162.452 353.176 162.386 353.553C162.32 353.93 162.236 354.263 162.136 354.551C162.035 354.837 161.923 355.081 161.8 355.285ZM167.745 358.298V351.058H168.965V351.928H169.037C169.101 351.8 169.192 351.664 169.308 351.52C169.425 351.374 169.583 351.25 169.781 351.147C169.98 351.042 170.234 350.989 170.542 350.989C170.949 350.989 171.316 351.093 171.643 351.301C171.972 351.507 172.232 351.812 172.424 352.216C172.619 352.619 172.716 353.112 172.716 353.697C172.716 354.276 172.621 354.767 172.431 355.171C172.242 355.576 171.983 355.884 171.657 356.097C171.33 356.31 170.96 356.416 170.546 356.416C170.244 356.416 169.994 356.366 169.795 356.265C169.596 356.164 169.436 356.043 169.315 355.902C169.196 355.758 169.104 355.622 169.037 355.494H168.986V358.298H167.745ZM168.962 353.69C168.962 354.031 169.01 354.329 169.106 354.585C169.204 354.841 169.345 355.041 169.528 355.185C169.713 355.327 169.937 355.398 170.2 355.398C170.474 355.398 170.704 355.325 170.889 355.178C171.074 355.03 171.213 354.827 171.307 354.571C171.403 354.313 171.451 354.02 171.451 353.69C171.451 353.364 171.404 353.073 171.31 352.82C171.217 352.566 171.077 352.367 170.892 352.223C170.707 352.079 170.476 352.007 170.2 352.007C169.935 352.007 169.709 352.077 169.524 352.216C169.339 352.356 169.199 352.551 169.103 352.803C169.009 353.054 168.962 353.35 168.962 353.69ZM174.371 358.298C174.202 358.298 174.045 358.284 173.901 358.257C173.759 358.232 173.646 358.202 173.562 358.168L173.85 357.201C174.03 357.253 174.191 357.279 174.333 357.276C174.475 357.274 174.599 357.229 174.707 357.143C174.816 357.058 174.909 356.916 174.984 356.717L175.091 356.433L173.181 351.058H174.498L175.711 355.034H175.766L176.983 351.058H178.303L176.195 356.961C176.096 357.24 175.966 357.479 175.804 357.677C175.641 357.878 175.443 358.032 175.207 358.137C174.974 358.244 174.695 358.298 174.371 358.298ZM182.645 351.058V352.076H180.375V356.323H179.162V351.058H182.645ZM184.938 356.43C184.604 356.43 184.304 356.37 184.036 356.251C183.771 356.13 183.561 355.952 183.406 355.716C183.253 355.481 183.176 355.191 183.176 354.846C183.176 354.549 183.231 354.303 183.341 354.109C183.45 353.914 183.6 353.759 183.79 353.642C183.979 353.526 184.193 353.438 184.431 353.378C184.671 353.317 184.919 353.272 185.175 353.245C185.483 353.213 185.733 353.184 185.925 353.159C186.117 353.132 186.257 353.091 186.344 353.036C186.433 352.979 186.477 352.891 186.477 352.772V352.751C186.477 352.493 186.401 352.293 186.248 352.151C186.094 352.01 185.874 351.939 185.586 351.939C185.282 351.939 185.041 352.005 184.863 352.137C184.687 352.27 184.568 352.427 184.506 352.607L183.347 352.443C183.439 352.123 183.59 351.855 183.8 351.64C184.01 351.423 184.267 351.261 184.571 351.154C184.875 351.044 185.211 350.989 185.579 350.989C185.833 350.989 186.085 351.019 186.337 351.078C186.588 351.138 186.818 351.236 187.026 351.373C187.234 351.508 187.401 351.692 187.526 351.925C187.654 352.158 187.718 352.449 187.718 352.799V356.323H186.525V355.6H186.484C186.409 355.746 186.302 355.883 186.165 356.011C186.03 356.137 185.86 356.239 185.655 356.316C185.451 356.392 185.212 356.43 184.938 356.43ZM185.26 355.518C185.509 355.518 185.725 355.468 185.908 355.37C186.091 355.27 186.232 355.137 186.33 354.973C186.43 354.808 186.481 354.629 186.481 354.434V353.814C186.442 353.846 186.376 353.876 186.282 353.903C186.19 353.93 186.088 353.954 185.973 353.975C185.859 353.996 185.746 354.014 185.634 354.03C185.522 354.046 185.425 354.06 185.343 354.071C185.157 354.096 184.992 354.137 184.845 354.194C184.699 354.252 184.584 354.331 184.499 354.434C184.415 354.535 184.372 354.665 184.372 354.825C184.372 355.054 184.456 355.226 184.623 355.343C184.789 355.459 185.002 355.518 185.26 355.518ZM192.079 356.323V352.065H190.954C190.669 352.065 190.449 352.132 190.296 352.264C190.143 352.397 190.068 352.561 190.07 352.758C190.068 352.955 190.14 353.117 190.286 353.245C190.432 353.373 190.641 353.437 190.913 353.437H192.47V354.342H190.913C190.493 354.342 190.129 354.276 189.823 354.143C189.517 354.01 189.281 353.823 189.117 353.581C188.952 353.338 188.87 353.055 188.87 352.731C188.87 352.392 188.954 352.099 189.12 351.85C189.289 351.598 189.529 351.404 189.84 351.267C190.153 351.127 190.525 351.058 190.954 351.058H193.241V356.323H192.079ZM188.678 356.323L190.149 353.622H191.373L189.899 356.323H188.678ZM198.082 354.643L200.19 351.058H201.465V356.323H200.265V352.734L198.164 356.323H196.885V351.058H198.082V354.643ZM202.739 356.323V351.058H203.98V353.183H204.433L206.017 351.058H207.511L205.561 353.642L207.532 356.323H206.03L204.587 354.338H203.98V356.323H202.739ZM210.316 356.426C209.801 356.426 209.356 356.313 208.979 356.087C208.602 355.86 208.309 355.544 208.101 355.137C207.895 354.73 207.793 354.255 207.793 353.711C207.793 353.167 207.895 352.691 208.101 352.281C208.309 351.872 208.602 351.555 208.979 351.328C209.356 351.102 209.801 350.989 210.316 350.989C210.83 350.989 211.276 351.102 211.653 351.328C212.03 351.555 212.321 351.872 212.527 352.281C212.735 352.691 212.839 353.167 212.839 353.711C212.839 354.255 212.735 354.73 212.527 355.137C212.321 355.544 212.03 355.86 211.653 356.087C211.276 356.313 210.83 356.426 210.316 356.426ZM210.323 355.432C210.601 355.432 210.834 355.355 211.022 355.202C211.209 355.047 211.349 354.839 211.44 354.578C211.534 354.318 211.581 354.028 211.581 353.708C211.581 353.385 211.534 353.094 211.44 352.833C211.349 352.571 211.209 352.361 211.022 352.206C210.834 352.051 210.601 351.973 210.323 351.973C210.037 351.973 209.799 352.051 209.609 352.206C209.422 352.361 209.282 352.571 209.188 352.833C209.096 353.094 209.051 353.385 209.051 353.708C209.051 354.028 209.096 354.318 209.188 354.578C209.282 354.839 209.422 355.047 209.609 355.202C209.799 355.355 210.037 355.432 210.323 355.432ZM217.509 353.176V354.194H214.705V353.176H217.509ZM215.088 351.058V356.323H213.892V351.058H215.088ZM218.321 351.058V356.323H217.128V351.058H218.321ZM219.577 356.323V351.058H220.818V353.183H221.27L222.854 351.058H224.349L222.398 353.642L224.369 356.323H222.868L221.425 354.338H220.818V356.323H219.577ZM226.588 356.43C226.254 356.43 225.954 356.37 225.687 356.251C225.421 356.13 225.211 355.952 225.056 355.716C224.903 355.481 224.826 355.191 224.826 354.846C224.826 354.549 224.881 354.303 224.991 354.109C225.1 353.914 225.25 353.759 225.44 353.642C225.629 353.526 225.843 353.438 226.081 353.378C226.321 353.317 226.569 353.272 226.825 353.245C227.133 353.213 227.383 353.184 227.575 353.159C227.767 353.132 227.907 353.091 227.994 353.036C228.083 352.979 228.127 352.891 228.127 352.772V352.751C228.127 352.493 228.051 352.293 227.898 352.151C227.745 352.01 227.524 351.939 227.236 351.939C226.932 351.939 226.691 352.005 226.513 352.137C226.337 352.27 226.218 352.427 226.156 352.607L224.998 352.443C225.089 352.123 225.24 351.855 225.45 351.64C225.66 351.423 225.917 351.261 226.221 351.154C226.525 351.044 226.861 350.989 227.229 350.989C227.483 350.989 227.735 351.019 227.987 351.078C228.238 351.138 228.468 351.236 228.676 351.373C228.884 351.508 229.051 351.692 229.176 351.925C229.304 352.158 229.368 352.449 229.368 352.799V356.323H228.175V355.6H228.134C228.059 355.746 227.953 355.883 227.815 356.011C227.681 356.137 227.51 356.239 227.305 356.316C227.101 356.392 226.862 356.43 226.588 356.43ZM226.91 355.518C227.16 355.518 227.375 355.468 227.558 355.37C227.741 355.27 227.882 355.137 227.98 354.973C228.081 354.808 228.131 354.629 228.131 354.434V353.814C228.092 353.846 228.026 353.876 227.932 353.903C227.841 353.93 227.738 353.954 227.623 353.975C227.509 353.996 227.396 354.014 227.284 354.03C227.172 354.046 227.075 354.06 226.993 354.071C226.808 354.096 226.642 354.137 226.496 354.194C226.349 354.252 226.234 354.331 226.149 354.434C226.065 354.535 226.023 354.665 226.023 354.825C226.023 355.054 226.106 355.226 226.273 355.343C226.44 355.459 226.652 355.518 226.91 355.518ZM232.135 349.302L232.022 354.26H230.918L230.808 349.302H232.135ZM231.47 356.399C231.262 356.399 231.084 356.326 230.935 356.179C230.789 356.033 230.716 355.855 230.716 355.644C230.716 355.439 230.789 355.263 230.935 355.117C231.084 354.97 231.262 354.897 231.47 354.897C231.673 354.897 231.849 354.97 231.998 355.117C232.149 355.263 232.224 355.439 232.224 355.644C232.224 355.784 232.189 355.911 232.118 356.025C232.049 356.139 231.958 356.231 231.843 356.299C231.732 356.366 231.607 356.399 231.47 356.399Z" fill="#313741"/>
</g>
<g filter="url(#filter8_d_3470_1297)">
<path d="M361.427 459.352L366.254 465.385H356.6L361.427 459.352Z" fill="#FEE0BC"/>
<rect x="229.273" y="465.385" width="264.307" height="25.8715" rx="6.43575" fill="#FEE0BC"/>
<path d="M240.016 481.82V474.799H241.288V477.772H244.542V474.799H245.817V481.82H244.542V478.838H241.288V481.82H240.016ZM249.476 481.923C248.948 481.923 248.492 481.813 248.108 481.594C247.727 481.372 247.433 481.059 247.227 480.655C247.022 480.248 246.919 479.769 246.919 479.218C246.919 478.677 247.022 478.201 247.227 477.792C247.435 477.381 247.726 477.061 248.098 476.832C248.471 476.602 248.908 476.486 249.411 476.486C249.736 476.486 250.042 476.539 250.33 476.644C250.62 476.747 250.876 476.907 251.098 477.124C251.322 477.341 251.498 477.617 251.626 477.953C251.754 478.287 251.818 478.685 251.818 479.146V479.527H247.502V478.69H250.628C250.626 478.453 250.574 478.241 250.474 478.056C250.373 477.869 250.233 477.721 250.052 477.614C249.874 477.507 249.666 477.453 249.428 477.453C249.175 477.453 248.952 477.515 248.76 477.638C248.568 477.759 248.418 477.919 248.311 478.118C248.206 478.314 248.152 478.53 248.15 478.766V479.496C248.15 479.802 248.206 480.065 248.318 480.285C248.43 480.502 248.586 480.668 248.787 480.785C248.988 480.899 249.224 480.956 249.493 480.956C249.674 480.956 249.837 480.931 249.984 480.881C250.13 480.828 250.257 480.752 250.364 480.651C250.472 480.551 250.553 480.426 250.608 480.278L251.766 480.408C251.693 480.714 251.554 480.982 251.348 481.21C251.145 481.436 250.884 481.612 250.566 481.738C250.249 481.861 249.885 481.923 249.476 481.923ZM257.559 481.923C257.033 481.923 256.582 481.808 256.205 481.577C255.83 481.346 255.541 481.027 255.338 480.62C255.136 480.211 255.036 479.741 255.036 479.208C255.036 478.673 255.139 478.201 255.344 477.792C255.55 477.381 255.84 477.061 256.215 476.832C256.592 476.602 257.038 476.486 257.552 476.486C257.98 476.486 258.358 476.565 258.687 476.723C259.018 476.878 259.282 477.099 259.479 477.384C259.675 477.668 259.787 477.999 259.815 478.378H258.629C258.581 478.125 258.466 477.913 258.286 477.744C258.108 477.573 257.869 477.487 257.569 477.487C257.316 477.487 257.093 477.556 256.901 477.693C256.709 477.828 256.559 478.022 256.452 478.276C256.347 478.529 256.294 478.833 256.294 479.188C256.294 479.546 256.347 479.855 256.452 480.113C256.557 480.369 256.704 480.567 256.894 480.706C257.086 480.843 257.311 480.912 257.569 480.912C257.752 480.912 257.916 480.878 258.06 480.809C258.206 480.738 258.328 480.636 258.426 480.504C258.525 480.371 258.592 480.21 258.629 480.021H259.815C259.785 480.393 259.675 480.723 259.486 481.011C259.296 481.297 259.038 481.521 258.711 481.683C258.384 481.843 258 481.923 257.559 481.923ZM263.131 481.923C262.616 481.923 262.171 481.81 261.794 481.584C261.417 481.358 261.124 481.041 260.916 480.634C260.71 480.227 260.607 479.752 260.607 479.208C260.607 478.664 260.71 478.188 260.916 477.779C261.124 477.369 261.417 477.052 261.794 476.826C262.171 476.599 262.616 476.486 263.131 476.486C263.645 476.486 264.09 476.599 264.468 476.826C264.845 477.052 265.136 477.369 265.342 477.779C265.55 478.188 265.654 478.664 265.654 479.208C265.654 479.752 265.55 480.227 265.342 480.634C265.136 481.041 264.845 481.358 264.468 481.584C264.09 481.81 263.645 481.923 263.131 481.923ZM263.137 480.929C263.416 480.929 263.649 480.852 263.837 480.699C264.024 480.544 264.164 480.336 264.255 480.075C264.349 479.815 264.396 479.525 264.396 479.205C264.396 478.882 264.349 478.591 264.255 478.33C264.164 478.068 264.024 477.859 263.837 477.703C263.649 477.548 263.416 477.47 263.137 477.47C262.852 477.47 262.614 477.548 262.424 477.703C262.237 477.859 262.096 478.068 262.003 478.33C261.911 478.591 261.866 478.882 261.866 479.205C261.866 479.525 261.911 479.815 262.003 480.075C262.096 480.336 262.237 480.544 262.424 480.699C262.614 480.852 262.852 480.929 263.137 480.929ZM269.004 481.923C268.49 481.923 268.044 481.81 267.667 481.584C267.29 481.358 266.997 481.041 266.789 480.634C266.584 480.227 266.481 479.752 266.481 479.208C266.481 478.664 266.584 478.188 266.789 477.779C266.997 477.369 267.29 477.052 267.667 476.826C268.044 476.599 268.49 476.486 269.004 476.486C269.518 476.486 269.964 476.599 270.341 476.826C270.718 477.052 271.009 477.369 271.215 477.779C271.423 478.188 271.527 478.664 271.527 479.208C271.527 479.752 271.423 480.227 271.215 480.634C271.009 481.041 270.718 481.358 270.341 481.584C269.964 481.81 269.518 481.923 269.004 481.923ZM269.011 480.929C269.29 480.929 269.523 480.852 269.71 480.699C269.897 480.544 270.037 480.336 270.128 480.075C270.222 479.815 270.269 479.525 270.269 479.205C270.269 478.882 270.222 478.591 270.128 478.33C270.037 478.068 269.897 477.859 269.71 477.703C269.523 477.548 269.29 477.47 269.011 477.47C268.725 477.47 268.487 477.548 268.298 477.703C268.11 477.859 267.97 478.068 267.876 478.33C267.785 478.591 267.739 478.882 267.739 479.205C267.739 479.525 267.785 479.815 267.876 480.075C267.97 480.336 268.11 480.544 268.298 480.699C268.487 480.852 268.725 480.929 269.011 480.929ZM272 477.573V476.555H276.607V477.573H274.904V481.82H273.704V477.573H272ZM277.596 481.82V476.555H279.807C280.431 476.555 280.923 476.679 281.284 476.928C281.648 477.177 281.829 477.525 281.829 477.971C281.829 478.265 281.727 478.506 281.521 478.694C281.317 478.879 281.04 479.004 280.688 479.068C280.964 479.09 281.207 479.16 281.415 479.277C281.625 479.393 281.789 479.546 281.908 479.736C282.027 479.926 282.086 480.144 282.086 480.391C282.086 480.681 282.01 480.934 281.857 481.148C281.706 481.361 281.485 481.527 281.195 481.645C280.907 481.762 280.558 481.82 280.146 481.82H277.596ZM278.758 480.843H280.146C280.375 480.843 280.554 480.79 280.684 480.682C280.815 480.572 280.88 480.424 280.88 480.237C280.88 480.019 280.815 479.849 280.684 479.726C280.554 479.6 280.375 479.537 280.146 479.537H278.758V480.843ZM278.758 478.735H279.831C280 478.735 280.145 478.711 280.266 478.663C280.387 478.613 280.48 478.543 280.544 478.454C280.608 478.362 280.64 478.254 280.64 478.128C280.64 477.948 280.566 477.806 280.417 477.703C280.271 477.6 280.067 477.549 279.807 477.549H278.758V478.735ZM285.442 481.923C284.914 481.923 284.458 481.813 284.074 481.594C283.692 481.372 283.399 481.059 283.193 480.655C282.987 480.248 282.884 479.769 282.884 479.218C282.884 478.677 282.987 478.201 283.193 477.792C283.401 477.381 283.691 477.061 284.064 476.832C284.436 476.602 284.874 476.486 285.377 476.486C285.701 476.486 286.007 476.539 286.295 476.644C286.586 476.747 286.842 476.907 287.063 477.124C287.287 477.341 287.463 477.617 287.591 477.953C287.719 478.287 287.783 478.685 287.783 479.146V479.527H283.467V478.69H286.594C286.591 478.453 286.54 478.241 286.439 478.056C286.339 477.869 286.198 477.721 286.018 477.614C285.839 477.507 285.631 477.453 285.394 477.453C285.14 477.453 284.917 477.515 284.725 477.638C284.533 477.759 284.384 477.919 284.276 478.118C284.171 478.314 284.117 478.53 284.115 478.766V479.496C284.115 479.802 284.171 480.065 284.283 480.285C284.395 480.502 284.552 480.668 284.753 480.785C284.954 480.899 285.189 480.956 285.459 480.956C285.639 480.956 285.803 480.931 285.949 480.881C286.095 480.828 286.222 480.752 286.33 480.651C286.437 480.551 286.518 480.426 286.573 480.278L287.732 480.408C287.659 480.714 287.519 480.982 287.314 481.21C287.11 481.436 286.85 481.612 286.532 481.738C286.214 481.861 285.851 481.923 285.442 481.923ZM288.394 477.573V476.555H293.002V477.573H291.298V481.82H290.098V477.573H288.394ZM296.07 481.923C295.544 481.923 295.093 481.808 294.716 481.577C294.341 481.346 294.052 481.027 293.848 480.62C293.647 480.211 293.547 479.741 293.547 479.208C293.547 478.673 293.65 478.201 293.855 477.792C294.061 477.381 294.351 477.061 294.726 476.832C295.103 476.602 295.549 476.486 296.063 476.486C296.49 476.486 296.869 476.565 297.198 476.723C297.529 476.878 297.793 477.099 297.99 477.384C298.186 477.668 298.298 477.999 298.326 478.378H297.139C297.091 478.125 296.977 477.913 296.797 477.744C296.618 477.573 296.38 477.487 296.08 477.487C295.826 477.487 295.604 477.556 295.412 477.693C295.22 477.828 295.07 478.022 294.963 478.276C294.857 478.529 294.805 478.833 294.805 479.188C294.805 479.546 294.857 479.855 294.963 480.113C295.068 480.369 295.215 480.567 295.405 480.706C295.597 480.843 295.822 480.912 296.08 480.912C296.263 480.912 296.426 480.878 296.57 480.809C296.717 480.738 296.839 480.636 296.937 480.504C297.035 480.371 297.103 480.21 297.139 480.021H298.326C298.296 480.393 298.186 480.723 297.996 481.011C297.807 481.297 297.549 481.521 297.222 481.683C296.895 481.843 296.511 481.923 296.07 481.923ZM298.962 477.573V476.555H303.57V477.573H301.866V481.82H300.666V477.573H298.962ZM304.558 481.82V476.555H306.769C307.393 476.555 307.885 476.679 308.247 476.928C308.61 477.177 308.792 477.525 308.792 477.971C308.792 478.265 308.689 478.506 308.483 478.694C308.28 478.879 308.002 479.004 307.65 479.068C307.927 479.09 308.169 479.16 308.377 479.277C308.587 479.393 308.752 479.546 308.87 479.736C308.989 479.926 309.049 480.144 309.049 480.391C309.049 480.681 308.972 480.934 308.819 481.148C308.668 481.361 308.448 481.527 308.157 481.645C307.869 481.762 307.52 481.82 307.108 481.82H304.558ZM305.72 480.843H307.108C307.337 480.843 307.516 480.79 307.647 480.682C307.777 480.572 307.842 480.424 307.842 480.237C307.842 480.019 307.777 479.849 307.647 479.726C307.516 479.6 307.337 479.537 307.108 479.537H305.72V480.843ZM305.72 478.735H306.793C306.962 478.735 307.107 478.711 307.228 478.663C307.35 478.613 307.442 478.543 307.506 478.454C307.57 478.362 307.602 478.254 307.602 478.128C307.602 477.948 307.528 477.806 307.379 477.703C307.233 477.6 307.03 477.549 306.769 477.549H305.72V478.735ZM310.844 483.795C310.675 483.795 310.519 483.781 310.375 483.754C310.233 483.729 310.12 483.699 310.035 483.665L310.323 482.698C310.504 482.75 310.665 482.776 310.807 482.773C310.948 482.771 311.073 482.726 311.18 482.64C311.29 482.555 311.382 482.413 311.458 482.215L311.564 481.93L309.655 476.555H310.971L312.185 480.531H312.239L313.456 476.555H314.776L312.668 482.458C312.57 482.737 312.439 482.976 312.277 483.174C312.115 483.376 311.916 483.529 311.681 483.634C311.448 483.741 311.169 483.795 310.844 483.795ZM317.787 481.923C317.259 481.923 316.803 481.813 316.419 481.594C316.038 481.372 315.744 481.059 315.538 480.655C315.333 480.248 315.23 479.769 315.23 479.218C315.23 478.677 315.333 478.201 315.538 477.792C315.746 477.381 316.036 477.061 316.409 476.832C316.781 476.602 317.219 476.486 317.722 476.486C318.046 476.486 318.353 476.539 318.641 476.644C318.931 476.747 319.187 476.907 319.409 477.124C319.633 477.341 319.809 477.617 319.937 477.953C320.065 478.287 320.128 478.685 320.128 479.146V479.527H315.812V478.69H318.939C318.937 478.453 318.885 478.241 318.785 478.056C318.684 477.869 318.544 477.721 318.363 477.614C318.185 477.507 317.977 477.453 317.739 477.453C317.485 477.453 317.263 477.515 317.071 477.638C316.879 477.759 316.729 477.919 316.622 478.118C316.516 478.314 316.463 478.53 316.46 478.766V479.496C316.46 479.802 316.516 480.065 316.628 480.285C316.74 480.502 316.897 480.668 317.098 480.785C317.299 480.899 317.535 480.956 317.804 480.956C317.985 480.956 318.148 480.931 318.294 480.881C318.441 480.828 318.568 480.752 318.675 480.651C318.782 480.551 318.864 480.426 318.918 480.278L320.077 480.408C320.004 480.714 319.865 480.982 319.659 481.21C319.455 481.436 319.195 481.612 318.877 481.738C318.56 481.861 318.196 481.923 317.787 481.923ZM320.74 477.573V476.555H325.347V477.573H323.643V481.82H322.443V477.573H320.74ZM328.263 483.349V480.799H328.682C328.794 480.712 328.887 480.594 328.963 480.446C329.038 480.295 329.1 480.118 329.148 479.914C329.198 479.709 329.239 479.479 329.271 479.225C329.303 478.969 329.332 478.694 329.357 478.399L329.508 476.555H333.313V480.799H334.129V483.349H332.929V481.82H329.484V483.349H328.263ZM329.957 480.799H332.127V477.556H330.584L330.502 478.399C330.456 478.957 330.396 479.434 330.32 479.832C330.245 480.23 330.124 480.552 329.957 480.799ZM337.387 481.923C336.859 481.923 336.403 481.813 336.019 481.594C335.637 481.372 335.343 481.059 335.138 480.655C334.932 480.248 334.829 479.769 334.829 479.218C334.829 478.677 334.932 478.201 335.138 477.792C335.346 477.381 335.636 477.061 336.008 476.832C336.381 476.602 336.819 476.486 337.321 476.486C337.646 476.486 337.952 476.539 338.24 476.644C338.53 476.747 338.786 476.907 339.008 477.124C339.232 477.341 339.408 477.617 339.536 477.953C339.664 478.287 339.728 478.685 339.728 479.146V479.527H335.412V478.69H338.538C338.536 478.453 338.485 478.241 338.384 478.056C338.284 477.869 338.143 477.721 337.963 477.614C337.784 477.507 337.576 477.453 337.339 477.453C337.085 477.453 336.862 477.515 336.67 477.638C336.478 477.759 336.328 477.919 336.221 478.118C336.116 478.314 336.062 478.53 336.06 478.766V479.496C336.06 479.802 336.116 480.065 336.228 480.285C336.34 480.502 336.496 480.668 336.698 480.785C336.899 480.899 337.134 480.956 337.404 480.956C337.584 480.956 337.748 480.931 337.894 480.881C338.04 480.828 338.167 480.752 338.274 480.651C338.382 480.551 338.463 480.426 338.518 480.278L339.677 480.408C339.603 480.714 339.464 480.982 339.258 481.21C339.055 481.436 338.794 481.612 338.477 481.738C338.159 481.861 337.796 481.923 337.387 481.923ZM341.974 480.141L344.083 476.555H345.358V481.82H344.158V478.231L342.057 481.82H340.778V476.555H341.974V480.141ZM343.743 474.745H344.672C344.672 475.145 344.527 475.469 344.237 475.718C343.949 475.965 343.558 476.088 343.064 476.088C342.575 476.088 342.186 475.965 341.895 475.718C341.607 475.469 341.465 475.145 341.467 474.745H342.389C342.389 474.909 342.439 475.057 342.54 475.187C342.643 475.315 342.818 475.379 343.064 475.379C343.307 475.379 343.479 475.315 343.582 475.187C343.687 475.059 343.741 474.911 343.743 474.745ZM348.929 481.923C348.403 481.923 347.952 481.808 347.575 481.577C347.2 481.346 346.911 481.027 346.708 480.62C346.507 480.211 346.406 479.741 346.406 479.208C346.406 478.673 346.509 478.201 346.715 477.792C346.92 477.381 347.21 477.061 347.585 476.832C347.962 476.602 348.408 476.486 348.922 476.486C349.35 476.486 349.728 476.565 350.057 476.723C350.388 476.878 350.652 477.099 350.849 477.384C351.045 477.668 351.157 477.999 351.185 478.378H349.999C349.951 478.125 349.836 477.913 349.656 477.744C349.478 477.573 349.239 477.487 348.939 477.487C348.686 477.487 348.463 477.556 348.271 477.693C348.079 477.828 347.929 478.022 347.822 478.276C347.717 478.529 347.664 478.833 347.664 479.188C347.664 479.546 347.717 479.855 347.822 480.113C347.927 480.369 348.074 480.567 348.264 480.706C348.456 480.843 348.681 480.912 348.939 480.912C349.122 480.912 349.286 480.878 349.43 480.809C349.576 480.738 349.698 480.636 349.796 480.504C349.895 480.371 349.962 480.21 349.999 480.021H351.185C351.155 480.393 351.045 480.723 350.856 481.011C350.666 481.297 350.408 481.521 350.081 481.683C349.754 481.843 349.37 481.923 348.929 481.923ZM351.822 477.573V476.555H356.429V477.573H354.725V481.82H353.525V477.573H351.822ZM357.417 481.82V476.555H359.628C360.252 476.555 360.745 476.679 361.106 476.928C361.469 477.177 361.651 477.525 361.651 477.971C361.651 478.265 361.548 478.506 361.342 478.694C361.139 478.879 360.861 479.004 360.509 479.068C360.786 479.09 361.028 479.16 361.236 479.277C361.446 479.393 361.611 479.546 361.73 479.736C361.849 479.926 361.908 480.144 361.908 480.391C361.908 480.681 361.831 480.934 361.678 481.148C361.528 481.361 361.307 481.527 361.017 481.645C360.729 481.762 360.379 481.82 359.968 481.82H357.417ZM358.579 480.843H359.968C360.196 480.843 360.376 480.79 360.506 480.682C360.636 480.572 360.701 480.424 360.701 480.237C360.701 480.019 360.636 479.849 360.506 479.726C360.376 479.6 360.196 479.537 359.968 479.537H358.579V480.843ZM358.579 478.735H359.652C359.821 478.735 359.967 478.711 360.088 478.663C360.209 478.613 360.301 478.543 360.365 478.454C360.429 478.362 360.461 478.254 360.461 478.128C360.461 477.948 360.387 477.806 360.239 477.703C360.092 477.6 359.889 477.549 359.628 477.549H358.579V478.735ZM364.129 480.141L366.237 476.555H367.512V481.82H366.312V478.231L364.211 481.82H362.932V476.555H364.129V480.141ZM368.197 477.573V476.555H372.804V477.573H371.101V481.82H369.901V477.573H368.197ZM375.907 481.923C375.379 481.923 374.923 481.813 374.539 481.594C374.157 481.372 373.864 481.059 373.658 480.655C373.452 480.248 373.349 479.769 373.349 479.218C373.349 478.677 373.452 478.201 373.658 477.792C373.866 477.381 374.156 477.061 374.529 476.832C374.901 476.602 375.339 476.486 375.842 476.486C376.166 476.486 376.472 476.539 376.76 476.644C377.051 476.747 377.307 476.907 377.528 477.124C377.752 477.341 377.928 477.617 378.056 477.953C378.184 478.287 378.248 478.685 378.248 479.146V479.527H373.932V478.69H377.059C377.056 478.453 377.005 478.241 376.904 478.056C376.804 477.869 376.663 477.721 376.483 477.614C376.304 477.507 376.097 477.453 375.859 477.453C375.605 477.453 375.382 477.515 375.19 477.638C374.998 477.759 374.849 477.919 374.741 478.118C374.636 478.314 374.582 478.53 374.58 478.766V479.496C374.58 479.802 374.636 480.065 374.748 480.285C374.86 480.502 375.017 480.668 375.218 480.785C375.419 480.899 375.654 480.956 375.924 480.956C376.105 480.956 376.268 480.931 376.414 480.881C376.56 480.828 376.687 480.752 376.795 480.651C376.902 480.551 376.983 480.426 377.038 480.278L378.197 480.408C378.124 480.714 377.984 480.982 377.779 481.21C377.575 481.436 377.315 481.612 376.997 481.738C376.679 481.861 376.316 481.923 375.907 481.923ZM378.935 481.82L378.928 480.799H379.11C379.247 480.799 379.362 480.768 379.456 480.706C379.55 480.644 379.627 480.542 379.689 480.398C379.751 480.251 379.799 480.055 379.833 479.808C379.867 479.561 379.891 479.254 379.905 478.886L379.997 476.555H383.837V481.82H382.637V477.573H381.125L381.043 479.27C381.022 479.709 380.973 480.089 380.896 480.411C380.82 480.731 380.713 480.995 380.573 481.203C380.436 481.411 380.264 481.567 380.056 481.669C379.848 481.77 379.602 481.82 379.319 481.82H378.935ZM385.926 478.269H387.479C388.151 478.269 388.671 478.432 389.039 478.759C389.407 479.086 389.592 479.514 389.595 480.045C389.592 480.39 389.508 480.696 389.341 480.963C389.176 481.231 388.936 481.441 388.621 481.594C388.308 481.745 387.927 481.82 387.479 481.82H385.087V476.555H386.283V480.802H387.479C387.749 480.802 387.971 480.734 388.144 480.596C388.318 480.457 388.405 480.279 388.405 480.062C388.405 479.833 388.318 479.647 388.144 479.503C387.971 479.359 387.749 479.287 387.479 479.287H385.926V478.269ZM394.275 478.673V479.691H391.471V478.673H394.275ZM391.855 476.555V481.82H390.658V476.555H391.855ZM395.087 476.555V481.82H393.894V476.555H395.087ZM398.64 481.923C398.125 481.923 397.68 481.81 397.303 481.584C396.926 481.358 396.633 481.041 396.425 480.634C396.219 480.227 396.117 479.752 396.117 479.208C396.117 478.664 396.219 478.188 396.425 477.779C396.633 477.369 396.926 477.052 397.303 476.826C397.68 476.599 398.125 476.486 398.64 476.486C399.154 476.486 399.6 476.599 399.977 476.826C400.354 477.052 400.645 477.369 400.851 477.779C401.059 478.188 401.163 478.664 401.163 479.208C401.163 479.752 401.059 480.227 400.851 480.634C400.645 481.041 400.354 481.358 399.977 481.584C399.6 481.81 399.154 481.923 398.64 481.923ZM398.647 480.929C398.925 480.929 399.158 480.852 399.346 480.699C399.533 480.544 399.673 480.336 399.764 480.075C399.858 479.815 399.905 479.525 399.905 479.205C399.905 478.882 399.858 478.591 399.764 478.33C399.673 478.068 399.533 477.859 399.346 477.703C399.158 477.548 398.925 477.47 398.647 477.47C398.361 477.47 398.123 477.548 397.933 477.703C397.746 477.859 397.606 478.068 397.512 478.33C397.42 478.591 397.375 478.882 397.375 479.205C397.375 479.525 397.42 479.815 397.512 480.075C397.606 480.336 397.746 480.544 397.933 480.699C398.123 480.852 398.361 480.929 398.647 480.929ZM404.513 481.923C403.987 481.923 403.536 481.808 403.159 481.577C402.784 481.346 402.495 481.027 402.291 480.62C402.09 480.211 401.99 479.741 401.99 479.208C401.99 478.673 402.093 478.201 402.298 477.792C402.504 477.381 402.794 477.061 403.169 476.832C403.546 476.602 403.992 476.486 404.506 476.486C404.933 476.486 405.312 476.565 405.641 476.723C405.972 476.878 406.236 477.099 406.433 477.384C406.629 477.668 406.741 477.999 406.769 478.378H405.582C405.534 478.125 405.42 477.913 405.24 477.744C405.061 477.573 404.823 477.487 404.523 477.487C404.27 477.487 404.047 477.556 403.855 477.693C403.663 477.828 403.513 478.022 403.406 478.276C403.3 478.529 403.248 478.833 403.248 479.188C403.248 479.546 403.3 479.855 403.406 480.113C403.511 480.369 403.658 480.567 403.848 480.706C404.04 480.843 404.265 480.912 404.523 480.912C404.706 480.912 404.869 480.878 405.013 480.809C405.16 480.738 405.282 480.636 405.38 480.504C405.479 480.371 405.546 480.21 405.582 480.021H406.769C406.739 480.393 406.629 480.723 406.44 481.011C406.25 481.297 405.992 481.521 405.665 481.683C405.338 481.843 404.954 481.923 404.513 481.923ZM407.405 477.573V476.555H412.013V477.573H410.309V481.82H409.109V477.573H407.405ZM414.197 480.141L416.306 476.555H417.581V481.82H416.381V478.231L414.28 481.82H413.001V476.555H414.197V480.141ZM419.62 481.896C419.412 481.896 419.234 481.823 419.085 481.676C418.937 481.53 418.863 481.352 418.866 481.142C418.863 480.936 418.937 480.76 419.085 480.614C419.234 480.467 419.412 480.394 419.62 480.394C419.821 480.394 419.996 480.467 420.144 480.614C420.295 480.76 420.372 480.936 420.374 481.142C420.372 481.281 420.335 481.408 420.264 481.522C420.196 481.636 420.104 481.728 419.99 481.796C419.878 481.863 419.755 481.896 419.62 481.896ZM429.616 474.799V481.82H428.355V475.855H425.283V481.82H424.022V474.799H429.616ZM433.414 481.923C432.886 481.923 432.43 481.813 432.046 481.594C431.664 481.372 431.371 481.059 431.165 480.655C430.959 480.248 430.856 479.769 430.856 479.218C430.856 478.677 430.959 478.201 431.165 477.792C431.373 477.381 431.663 477.061 432.036 476.832C432.408 476.602 432.846 476.486 433.349 476.486C433.673 476.486 433.979 476.539 434.267 476.644C434.558 476.747 434.814 476.907 435.035 477.124C435.259 477.341 435.435 477.617 435.563 477.953C435.691 478.287 435.755 478.685 435.755 479.146V479.527H431.439V478.69H434.566C434.563 478.453 434.512 478.241 434.411 478.056C434.311 477.869 434.17 477.721 433.99 477.614C433.811 477.507 433.604 477.453 433.366 477.453C433.112 477.453 432.889 477.515 432.697 477.638C432.505 477.759 432.356 477.919 432.248 478.118C432.143 478.314 432.089 478.53 432.087 478.766V479.496C432.087 479.802 432.143 480.065 432.255 480.285C432.367 480.502 432.524 480.668 432.725 480.785C432.926 480.899 433.161 480.956 433.431 480.956C433.612 480.956 433.775 480.931 433.921 480.881C434.067 480.828 434.194 480.752 434.302 480.651C434.409 480.551 434.49 480.426 434.545 480.278L435.704 480.408C435.631 480.714 435.491 480.982 435.286 481.21C435.082 481.436 434.822 481.612 434.504 481.738C434.186 481.861 433.823 481.923 433.414 481.923ZM436.805 483.795V476.555H438.026V477.425H438.098C438.161 477.297 438.252 477.161 438.368 477.017C438.485 476.871 438.643 476.747 438.841 476.644C439.04 476.539 439.294 476.486 439.602 476.486C440.009 476.486 440.376 476.59 440.703 476.798C441.032 477.004 441.293 477.309 441.485 477.713C441.679 478.116 441.776 478.609 441.776 479.194C441.776 479.773 441.681 480.264 441.491 480.668C441.302 481.073 441.043 481.382 440.717 481.594C440.39 481.807 440.02 481.913 439.606 481.913C439.304 481.913 439.054 481.863 438.855 481.762C438.656 481.661 438.496 481.54 438.375 481.399C438.256 481.255 438.164 481.119 438.098 480.991H438.046V483.795H436.805ZM438.022 479.188C438.022 479.528 438.07 479.826 438.166 480.082C438.264 480.338 438.405 480.538 438.588 480.682C438.773 480.824 438.997 480.895 439.26 480.895C439.534 480.895 439.764 480.822 439.949 480.675C440.134 480.527 440.273 480.325 440.367 480.069C440.463 479.81 440.511 479.517 440.511 479.188C440.511 478.861 440.464 478.57 440.37 478.317C440.277 478.063 440.137 477.864 439.952 477.72C439.767 477.576 439.536 477.504 439.26 477.504C438.995 477.504 438.769 477.574 438.584 477.713C438.399 477.853 438.259 478.048 438.163 478.3C438.069 478.551 438.022 478.847 438.022 479.188ZM445.17 481.923C444.642 481.923 444.186 481.813 443.802 481.594C443.42 481.372 443.127 481.059 442.921 480.655C442.715 480.248 442.612 479.769 442.612 479.218C442.612 478.677 442.715 478.201 442.921 477.792C443.129 477.381 443.419 477.061 443.792 476.832C444.164 476.602 444.602 476.486 445.105 476.486C445.429 476.486 445.735 476.539 446.023 476.644C446.314 476.747 446.57 476.907 446.791 477.124C447.015 477.341 447.191 477.617 447.319 477.953C447.447 478.287 447.511 478.685 447.511 479.146V479.527H443.195V478.69H446.322C446.319 478.453 446.268 478.241 446.167 478.056C446.067 477.869 445.926 477.721 445.746 477.614C445.567 477.507 445.359 477.453 445.122 477.453C444.868 477.453 444.645 477.515 444.453 477.638C444.261 477.759 444.112 477.919 444.004 478.118C443.899 478.314 443.845 478.53 443.843 478.766V479.496C443.843 479.802 443.899 480.065 444.011 480.285C444.123 480.502 444.28 480.668 444.481 480.785C444.682 480.899 444.917 480.956 445.187 480.956C445.367 480.956 445.531 480.931 445.677 480.881C445.823 480.828 445.95 480.752 446.058 480.651C446.165 480.551 446.246 480.426 446.301 480.278L447.46 480.408C447.387 480.714 447.247 480.982 447.042 481.21C446.838 481.436 446.578 481.612 446.26 481.738C445.942 481.861 445.579 481.923 445.17 481.923ZM448.561 481.82V476.555H453.007V481.82H451.811V477.573H449.747V481.82H448.561ZM455.48 480.141L457.588 476.555H458.863V481.82H457.664V478.231L455.562 481.82H454.283V476.555H455.48V480.141ZM460.138 476.555H461.334V480.799H462.99V476.555H464.186V480.799H465.842V476.555H467.039V481.82H460.138V476.555ZM470.624 481.923C470.096 481.923 469.64 481.813 469.256 481.594C468.874 481.372 468.58 481.059 468.375 480.655C468.169 480.248 468.066 479.769 468.066 479.218C468.066 478.677 468.169 478.201 468.375 477.792C468.583 477.381 468.873 477.061 469.246 476.832C469.618 476.602 470.056 476.486 470.559 476.486C470.883 476.486 471.189 476.539 471.477 476.644C471.768 476.747 472.023 476.907 472.245 477.124C472.469 477.341 472.645 477.617 472.773 477.953C472.901 478.287 472.965 478.685 472.965 479.146V479.527H468.649V478.69H471.776C471.773 478.453 471.722 478.241 471.621 478.056C471.521 477.869 471.38 477.721 471.2 477.614C471.021 477.507 470.813 477.453 470.576 477.453C470.322 477.453 470.099 477.515 469.907 477.638C469.715 477.759 469.566 477.919 469.458 478.118C469.353 478.314 469.299 478.53 469.297 478.766V479.496C469.297 479.802 469.353 480.065 469.465 480.285C469.577 480.502 469.733 480.668 469.935 480.785C470.136 480.899 470.371 480.956 470.641 480.956C470.821 480.956 470.985 480.931 471.131 480.881C471.277 480.828 471.404 480.752 471.512 480.651C471.619 480.551 471.7 480.426 471.755 480.278L472.914 480.408C472.841 480.714 472.701 480.982 472.495 481.21C472.292 481.436 472.031 481.612 471.714 481.738C471.396 481.861 471.033 481.923 470.624 481.923ZM477.045 480.377L478.609 476.555H479.61L477.481 481.82H476.613L474.533 476.555H475.523L477.045 480.377ZM475.211 476.555V481.82H474.015V476.555H475.211ZM478.931 481.82V476.555H480.117V481.82H478.931ZM482.133 481.896C481.925 481.896 481.747 481.823 481.598 481.676C481.449 481.53 481.376 481.352 481.379 481.142C481.376 480.936 481.449 480.76 481.598 480.614C481.747 480.467 481.925 480.394 482.133 480.394C482.334 480.394 482.509 480.467 482.657 480.614C482.808 480.76 482.885 480.936 482.887 481.142C482.885 481.281 482.848 481.408 482.777 481.522C482.709 481.636 482.617 481.728 482.503 481.796C482.391 481.863 482.268 481.896 482.133 481.896Z" fill="#313741"/>
</g>
<g filter="url(#filter9_d_3470_1297)">
<rect x="144.542" y="80.3828" width="141.307" height="25.8715" rx="6.43575" fill="#FEE0BC"/>
<path d="M155.19 89.7975H156.452V94.5832H156.517L159.818 89.7975H160.96V96.8184H159.688V92.0361H159.63L156.318 96.8184H155.19V89.7975ZM161.999 95.3751H163.23C163.241 95.5717 163.329 95.7236 163.494 95.8311C163.658 95.9385 163.872 95.9922 164.135 95.9922C164.402 95.9922 164.628 95.9339 164.81 95.8173C164.995 95.6985 165.088 95.5191 165.088 95.2791C165.088 95.1374 165.053 95.0129 164.982 94.9055C164.911 94.7958 164.811 94.7112 164.683 94.6518C164.556 94.5924 164.405 94.5626 164.231 94.5626H163.425V93.6816H164.231C164.489 93.6816 164.685 93.6222 164.817 93.5034C164.952 93.3845 165.019 93.2348 165.019 93.0543C165.019 92.86 164.949 92.7023 164.807 92.5812C164.668 92.4601 164.474 92.3995 164.228 92.3995C163.981 92.3995 163.775 92.4555 163.61 92.5675C163.448 92.6795 163.364 92.8234 163.357 92.9994H162.133C162.138 92.6932 162.229 92.4269 162.407 92.2007C162.588 91.9744 162.83 91.7984 163.134 91.6727C163.44 91.547 163.785 91.4842 164.169 91.4842C164.581 91.4842 164.936 91.5459 165.235 91.6693C165.535 91.7927 165.766 91.9653 165.928 92.1869C166.09 92.4063 166.171 92.6646 166.171 92.9617C166.171 93.2474 166.082 93.4839 165.904 93.6713C165.726 93.8564 165.486 93.989 165.184 94.069V94.1238C165.392 94.1353 165.579 94.1947 165.746 94.3021C165.913 94.4072 166.046 94.5501 166.144 94.7306C166.242 94.9112 166.291 95.1203 166.291 95.358C166.291 95.6802 166.199 95.959 166.014 96.1944C165.828 96.4276 165.574 96.607 165.249 96.7327C164.927 96.8584 164.558 96.9212 164.142 96.9212C163.737 96.9212 163.375 96.8606 163.055 96.7395C162.737 96.6161 162.485 96.439 162.298 96.2082C162.11 95.9773 162.011 95.6996 161.999 95.3751ZM170.299 95.3751L171.862 91.5527H172.863L170.734 96.8184H169.867L167.786 91.5527H168.777L170.299 95.3751ZM168.465 91.5527V96.8184H167.268V91.5527H168.465ZM172.184 96.8184V91.5527H173.37V96.8184H172.184ZM176.953 96.9212C176.425 96.9212 175.969 96.8115 175.585 96.5921C175.203 96.3704 174.91 96.0573 174.704 95.6528C174.498 95.246 174.395 94.7672 174.395 94.2164C174.395 93.6748 174.498 93.1994 174.704 92.7903C174.912 92.3789 175.202 92.059 175.575 91.8304C175.947 91.5996 176.385 91.4842 176.888 91.4842C177.212 91.4842 177.518 91.5367 177.806 91.6419C178.097 91.7447 178.353 91.9047 178.574 92.1218C178.798 92.3389 178.974 92.6155 179.102 92.9514C179.23 93.2851 179.294 93.6828 179.294 94.1444V94.5249H174.978V93.6885H178.105C178.102 93.4508 178.051 93.2394 177.95 93.0543C177.85 92.8669 177.709 92.7195 177.529 92.612C177.35 92.5046 177.142 92.4509 176.905 92.4509C176.651 92.4509 176.428 92.5126 176.236 92.636C176.044 92.7572 175.895 92.9171 175.787 93.116C175.682 93.3125 175.628 93.5285 175.626 93.7639V94.4941C175.626 94.8003 175.682 95.0632 175.794 95.2826C175.906 95.4997 176.063 95.6665 176.264 95.7831C176.465 95.8973 176.7 95.9545 176.97 95.9545C177.15 95.9545 177.314 95.9293 177.46 95.8791C177.606 95.8265 177.733 95.7499 177.841 95.6494C177.948 95.5488 178.029 95.4243 178.084 95.2757L179.243 95.406C179.17 95.7122 179.03 95.9796 178.825 96.2082C178.621 96.4344 178.361 96.6104 178.043 96.7361C177.725 96.8595 177.362 96.9212 176.953 96.9212ZM183.961 93.6713V94.6895H181.157V93.6713H183.961ZM181.541 91.5527V96.8184H180.344V91.5527H181.541ZM184.773 91.5527V96.8184H183.58V91.5527H184.773ZM187.225 95.1386L189.334 91.5527H190.609V96.8184H189.409V93.2291L187.307 96.8184H186.029V91.5527H187.225V95.1386ZM191.294 92.5709V91.5527H195.901V92.5709H194.197V96.8184H192.997V92.5709H191.294ZM197.729 93.2668H199.282C199.954 93.2668 200.474 93.4302 200.842 93.757C201.21 94.0838 201.395 94.5124 201.397 95.0426C201.395 95.3877 201.31 95.6939 201.143 95.9613C200.979 96.2287 200.739 96.439 200.424 96.5921C200.11 96.7429 199.73 96.8184 199.282 96.8184H196.889V91.5527H198.086V95.8002H199.282C199.552 95.8002 199.773 95.7316 199.947 95.5945C200.121 95.4551 200.208 95.2768 200.208 95.0597C200.208 94.8312 200.121 94.6449 199.947 94.5009C199.773 94.357 199.552 94.285 199.282 94.285H197.729V93.2668ZM207.245 98.6078V89.7975H208.489V98.6078H207.245ZM207.245 96.9212C206.858 96.9212 206.505 96.8561 206.185 96.7258C205.865 96.5955 205.589 96.4104 205.356 96.1704C205.125 95.9305 204.946 95.6448 204.818 95.3134C204.692 94.9797 204.629 94.6106 204.629 94.2061C204.629 93.8016 204.692 93.4325 204.818 93.0988C204.946 92.7652 205.125 92.4783 205.356 92.2384C205.589 91.9961 205.865 91.8099 206.185 91.6796C206.505 91.5493 206.858 91.4842 207.245 91.4842H207.509V96.9212H207.245ZM207.245 95.9202H207.399V92.4852H207.245C207.025 92.4852 206.831 92.5309 206.662 92.6223C206.495 92.7115 206.354 92.836 206.24 92.996C206.128 93.1537 206.043 93.3365 205.983 93.5445C205.926 93.7502 205.897 93.9707 205.897 94.2061C205.897 94.5192 205.949 94.806 206.052 95.0666C206.155 95.3248 206.305 95.5317 206.504 95.6871C206.705 95.8425 206.952 95.9202 207.245 95.9202ZM208.489 96.9212H208.225V91.4842H208.489C208.875 91.4842 209.228 91.5493 209.548 91.6796C209.868 91.8099 210.144 91.9961 210.375 92.2384C210.608 92.4783 210.787 92.7652 210.913 93.0988C211.041 93.4325 211.105 93.8016 211.105 94.2061C211.105 94.6106 211.041 94.9797 210.913 95.3134C210.787 95.6448 210.608 95.9305 210.375 96.1704C210.144 96.4104 209.868 96.5955 209.548 96.7258C209.228 96.8561 208.875 96.9212 208.489 96.9212ZM208.489 95.9202C208.711 95.9202 208.905 95.8756 209.072 95.7865C209.239 95.6974 209.378 95.5739 209.49 95.4163C209.604 95.2586 209.69 95.0769 209.747 94.8712C209.804 94.6632 209.833 94.4415 209.833 94.2061C209.833 93.893 209.783 93.6062 209.682 93.3457C209.582 93.0851 209.431 92.8771 209.23 92.7217C209.031 92.564 208.784 92.4852 208.489 92.4852H208.335V95.9202H208.489ZM214.449 96.9212C213.935 96.9212 213.489 96.8081 213.112 96.5818C212.735 96.3556 212.442 96.039 212.234 95.6322C212.029 95.2254 211.926 94.7501 211.926 94.2061C211.926 93.6622 212.029 93.1857 212.234 92.7766C212.442 92.3675 212.735 92.0498 213.112 91.8236C213.489 91.5973 213.935 91.4842 214.449 91.4842C214.963 91.4842 215.409 91.5973 215.786 91.8236C216.163 92.0498 216.454 92.3675 216.66 92.7766C216.868 93.1857 216.972 93.6622 216.972 94.2061C216.972 94.7501 216.868 95.2254 216.66 95.6322C216.454 96.039 216.163 96.3556 215.786 96.5818C215.409 96.8081 214.963 96.9212 214.449 96.9212ZM214.456 95.927C214.735 95.927 214.968 95.8505 215.155 95.6974C215.342 95.5419 215.482 95.334 215.573 95.0734C215.667 94.8129 215.714 94.5227 215.714 94.2027C215.714 93.8804 215.667 93.5891 215.573 93.3285C215.482 93.0657 215.342 92.8566 215.155 92.7012C214.968 92.5458 214.735 92.4681 214.456 92.4681C214.17 92.4681 213.932 92.5458 213.743 92.7012C213.555 92.8566 213.415 93.0657 213.321 93.3285C213.23 93.5891 213.184 93.8804 213.184 94.2027C213.184 94.5227 213.23 94.8129 213.321 95.0734C213.415 95.334 213.555 95.5419 213.743 95.6974C213.932 95.8505 214.17 95.927 214.456 95.927ZM218.025 98.793V91.5527H219.246V92.4235H219.318C219.382 92.2955 219.472 92.1595 219.589 92.0155C219.705 91.8693 219.863 91.7447 220.062 91.6419C220.26 91.5367 220.514 91.4842 220.823 91.4842C221.229 91.4842 221.596 91.5882 221.923 91.7961C222.252 92.0018 222.513 92.3069 222.705 92.7115C222.899 93.1137 222.996 93.6073 222.996 94.1924C222.996 94.7706 222.901 95.262 222.712 95.6665C222.522 96.071 222.264 96.3796 221.937 96.5921C221.61 96.8046 221.24 96.9109 220.826 96.9109C220.524 96.9109 220.274 96.8606 220.075 96.7601C219.876 96.6595 219.717 96.5384 219.595 96.3967C219.477 96.2527 219.384 96.1167 219.318 95.9888H219.266V98.793H218.025ZM219.242 94.1856C219.242 94.5261 219.29 94.8243 219.386 95.0803C219.485 95.3363 219.625 95.5362 219.808 95.6802C219.993 95.8219 220.217 95.8928 220.48 95.8928C220.754 95.8928 220.984 95.8196 221.169 95.6734C221.354 95.5248 221.493 95.3225 221.587 95.0666C221.683 94.8083 221.731 94.5147 221.731 94.1856C221.731 93.8587 221.684 93.5685 221.591 93.3148C221.497 93.0611 221.357 92.8623 221.172 92.7183C220.987 92.5743 220.756 92.5023 220.48 92.5023C220.215 92.5023 219.99 92.572 219.805 92.7115C219.619 92.8509 219.479 93.0463 219.383 93.2977C219.289 93.5491 219.242 93.845 219.242 94.1856ZM227.089 95.3751L228.653 91.5527H229.654L227.525 96.8184H226.657L224.576 91.5527H225.567L227.089 95.3751ZM225.255 91.5527V96.8184H224.059V91.5527H225.255ZM228.975 96.8184V91.5527H230.161V96.8184H228.975ZM231.995 98.793C231.826 98.793 231.669 98.7793 231.525 98.7518C231.384 98.7267 231.27 98.697 231.186 98.6627L231.474 97.696C231.654 97.7485 231.816 97.7737 231.957 97.7714C232.099 97.7691 232.223 97.7245 232.331 97.6377C232.441 97.5531 232.533 97.4114 232.609 97.2126L232.715 96.9281L230.805 91.5527H232.122L233.335 95.5294H233.39L234.607 91.5527H235.927L233.819 97.456C233.72 97.7348 233.59 97.9736 233.428 98.1725C233.266 98.3736 233.067 98.5267 232.831 98.6318C232.598 98.7393 232.319 98.793 231.995 98.793ZM235.989 96.8184L235.982 95.7968H236.164C236.301 95.7968 236.416 95.7659 236.51 95.7042C236.604 95.6425 236.681 95.5397 236.743 95.3957C236.805 95.2494 236.853 95.0529 236.887 94.806C236.921 94.5592 236.945 94.2518 236.959 93.8839L237.051 91.5527H240.891V96.8184H239.691V92.5709H238.179L238.097 94.2678C238.076 94.7066 238.027 95.0872 237.95 95.4094C237.874 95.7294 237.767 95.9933 237.627 96.2013C237.49 96.4093 237.318 96.5647 237.11 96.6675C236.902 96.7681 236.656 96.8184 236.373 96.8184H235.989ZM243.337 95.1386L245.445 91.5527H246.721V96.8184H245.521V93.2291L243.419 96.8184H242.141V91.5527H243.337V95.1386ZM247.995 98.793V91.5527H249.215V92.4235H249.287C249.351 92.2955 249.442 92.1595 249.558 92.0155C249.675 91.8693 249.832 91.7447 250.031 91.6419C250.23 91.5367 250.484 91.4842 250.792 91.4842C251.199 91.4842 251.566 91.5882 251.893 91.7961C252.222 92.0018 252.482 92.3069 252.674 92.7115C252.869 93.1137 252.966 93.6073 252.966 94.1924C252.966 94.7706 252.871 95.262 252.681 95.6665C252.491 96.071 252.233 96.3796 251.906 96.5921C251.58 96.8046 251.209 96.9109 250.796 96.9109C250.494 96.9109 250.244 96.8606 250.045 96.7601C249.846 96.6595 249.686 96.5384 249.565 96.3967C249.446 96.2527 249.354 96.1167 249.287 95.9888H249.236V98.793H247.995ZM249.212 94.1856C249.212 94.5261 249.26 94.8243 249.356 95.0803C249.454 95.3363 249.595 95.5362 249.778 95.6802C249.963 95.8219 250.187 95.8928 250.449 95.8928C250.724 95.8928 250.953 95.8196 251.139 95.6734C251.324 95.5248 251.463 95.3225 251.557 95.0666C251.653 94.8083 251.701 94.5147 251.701 94.1856C251.701 93.8587 251.654 93.5685 251.56 93.3148C251.466 93.0611 251.327 92.8623 251.142 92.7183C250.957 92.5743 250.726 92.5023 250.449 92.5023C250.184 92.5023 249.959 92.572 249.774 92.7115C249.589 92.8509 249.448 93.0463 249.352 93.2977C249.259 93.5491 249.212 93.845 249.212 94.1856ZM256.325 96.9212C255.811 96.9212 255.365 96.8081 254.988 96.5818C254.611 96.3556 254.319 96.039 254.111 95.6322C253.905 95.2254 253.802 94.7501 253.802 94.2061C253.802 93.6622 253.905 93.1857 254.111 92.7766C254.319 92.3675 254.611 92.0498 254.988 91.8236C255.365 91.5973 255.811 91.4842 256.325 91.4842C256.84 91.4842 257.285 91.5973 257.662 91.8236C258.039 92.0498 258.331 92.3675 258.536 92.7766C258.744 93.1857 258.848 93.6622 258.848 94.2061C258.848 94.7501 258.744 95.2254 258.536 95.6322C258.331 96.039 258.039 96.3556 257.662 96.5818C257.285 96.8081 256.84 96.9212 256.325 96.9212ZM256.332 95.927C256.611 95.927 256.844 95.8505 257.031 95.6974C257.219 95.5419 257.358 95.334 257.45 95.0734C257.543 94.8129 257.59 94.5227 257.59 94.2027C257.59 93.8804 257.543 93.5891 257.45 93.3285C257.358 93.0657 257.219 92.8566 257.031 92.7012C256.844 92.5458 256.611 92.4681 256.332 92.4681C256.046 92.4681 255.809 92.5458 255.619 92.7012C255.432 92.8566 255.291 93.0657 255.197 93.3285C255.106 93.5891 255.06 93.8804 255.06 94.2027C255.06 94.5227 255.106 94.8129 255.197 95.0734C255.291 95.334 255.432 95.5419 255.619 95.6974C255.809 95.8505 256.046 95.927 256.332 95.927ZM259.902 96.8184V91.5527H262.113C262.737 91.5527 263.229 91.6773 263.59 91.9264C263.954 92.1755 264.135 92.5229 264.135 92.9686C264.135 93.2634 264.033 93.5045 263.827 93.6919C263.624 93.877 263.346 94.0016 262.994 94.0656C263.27 94.0884 263.513 94.1581 263.721 94.2747C263.931 94.3912 264.095 94.5444 264.214 94.7341C264.333 94.9237 264.393 95.142 264.393 95.3888C264.393 95.6791 264.316 95.9316 264.163 96.1464C264.012 96.359 263.791 96.5247 263.501 96.6435C263.213 96.7601 262.864 96.8184 262.452 96.8184H259.902ZM261.064 95.8413H262.452C262.681 95.8413 262.86 95.7876 262.99 95.6802C263.121 95.5705 263.186 95.422 263.186 95.2346C263.186 95.0174 263.121 94.8472 262.99 94.7238C262.86 94.5981 262.681 94.5352 262.452 94.5352H261.064V95.8413ZM261.064 93.733H262.137C262.306 93.733 262.451 93.709 262.572 93.661C262.693 93.6108 262.786 93.5411 262.85 93.4519C262.914 93.3605 262.946 93.252 262.946 93.1263C262.946 92.9457 262.872 92.804 262.723 92.7012C262.577 92.5983 262.373 92.5469 262.113 92.5469H261.064V93.733ZM265.417 96.8184V91.5527H266.658V93.6782H267.11L268.694 91.5527H270.189L268.238 94.1376L270.209 96.8184H268.708L267.264 94.8335H266.658V96.8184H265.417ZM271.741 98.793C271.572 98.793 271.415 98.7793 271.271 98.7518C271.129 98.7267 271.016 98.697 270.932 98.6627L271.22 97.696C271.4 97.7485 271.561 97.7737 271.703 97.7714C271.845 97.7691 271.969 97.7245 272.077 97.6377C272.186 97.5531 272.279 97.4114 272.354 97.2126L272.461 96.9281L270.551 91.5527H271.868L273.081 95.5294H273.136L274.353 91.5527H275.673L273.565 97.456C273.466 97.7348 273.336 97.9736 273.174 98.1725C273.011 98.3736 272.813 98.5267 272.577 98.6318C272.344 98.7393 272.065 98.793 271.741 98.793Z" fill="#313741"/>
<path d="M215.196 112.287L210.369 106.254L220.022 106.254L215.196 112.287Z" fill="#FEE0BC"/>
</g>
<path d="M409.995 124.173C410.152 124.33 410.406 124.33 410.564 124.173L413.123 121.613C413.28 121.456 413.28 121.202 413.123 121.044C412.966 120.887 412.712 120.887 412.555 121.044L410.279 123.32L408.004 121.044C407.847 120.887 407.592 120.887 407.435 121.044C407.278 121.202 407.278 121.456 407.435 121.613L409.995 124.173ZM301.391 124.173C301.548 124.33 301.803 124.33 301.96 124.173L304.52 121.613C304.677 121.456 304.677 121.202 304.52 121.044C304.363 120.887 304.108 120.887 303.951 121.044L301.676 123.32L299.4 121.044C299.243 120.887 298.989 120.887 298.832 121.044C298.674 121.202 298.674 121.456 298.832 121.613L301.391 124.173ZM410.681 123.889L410.681 113.431L409.877 113.431L409.877 123.889L410.681 123.889ZM403.843 106.593L308.112 106.593L308.112 107.397L403.843 107.397L403.843 106.593ZM301.274 113.431L301.274 123.889L302.078 123.889L302.078 113.431L301.274 113.431ZM308.112 106.593C304.335 106.593 301.274 109.654 301.274 113.431L302.078 113.431C302.078 110.098 304.779 107.397 308.112 107.397L308.112 106.593ZM410.681 113.431C410.681 109.654 407.62 106.593 403.843 106.593L403.843 107.397C407.176 107.397 409.877 110.098 409.877 113.431L410.681 113.431Z" fill="white"/>
<path d="M447 342.42C447.158 342.263 447.412 342.263 447.569 342.42L450.129 344.979C450.286 345.137 450.286 345.391 450.129 345.548C449.972 345.705 449.717 345.705 449.56 345.548L447.285 343.273L445.009 345.548C444.852 345.705 444.598 345.705 444.441 345.548C444.284 345.391 444.284 345.137 444.441 344.979L447 342.42ZM334.375 342.42C334.532 342.263 334.787 342.263 334.944 342.42L337.503 344.979C337.66 345.137 337.66 345.391 337.503 345.548C337.346 345.705 337.092 345.705 336.935 345.548L334.659 343.273L332.384 345.548C332.227 345.705 331.972 345.705 331.815 345.548C331.658 345.391 331.658 345.137 331.815 344.979L334.375 342.42ZM447.687 342.704L447.687 353.162L446.883 353.162L446.883 342.704L447.687 342.704ZM440.849 360L341.095 360L341.095 359.196L440.849 359.196L440.849 360ZM334.257 353.162L334.257 342.704L335.061 342.704L335.061 353.162L334.257 353.162ZM341.095 360C337.318 360 334.257 356.939 334.257 353.162L335.061 353.162C335.061 356.494 337.763 359.196 341.095 359.196L341.095 360ZM447.687 353.162C447.687 356.939 444.626 360 440.849 360L440.849 359.196C444.181 359.196 446.883 356.494 446.883 353.162L447.687 353.162Z" fill="white"/>
</g>
<defs>
<filter id="filter0_b_3470_1297" x="-64.3575" y="-64.3575" width="704.715" height="704.715" filterUnits="userSpaceOnUse" color-interpolation-filters="sRGB">
<feFlood flood-opacity="0" result="BackgroundImageFix"/>
<feGaussianBlur in="BackgroundImageFix" stdDeviation="32.1788"/>
<feComposite in2="SourceAlpha" operator="in" result="effect1_backgroundBlur_3470_1297"/>
<feBlend mode="normal" in="SourceGraphic" in2="effect1_backgroundBlur_3470_1297" result="shape"/>
</filter>
<filter id="filter1_d_3470_1297" x="283.897" y="228.55" width="107.96" height="44.4067" filterUnits="userSpaceOnUse" color-interpolation-filters="sRGB">
<feFlood flood-opacity="0" result="BackgroundImageFix"/>
<feColorMatrix in="SourceAlpha" type="matrix" values="0 0 0 0 0 0 0 0 0 0 0 0 0 0 0 0 0 0 127 0" result="hardAlpha"/>
<feOffset dy="2.5743"/>
<feGaussianBlur stdDeviation="5.67151"/>
<feComposite in2="hardAlpha" operator="out"/>
<feColorMatrix type="matrix" values="0 0 0 0 0.670588 0 0 0 0 0 0 0 0 0 0.121569 0 0 0 0.2 0"/>
<feBlend mode="normal" in2="BackgroundImageFix" result="effect1_dropShadow_3470_1297"/>
<feBlend mode="normal" in="SourceGraphic" in2="effect1_dropShadow_3470_1297" result="shape"/>
</filter>
<filter id="filter2_d_3470_1297" x="56.3126" y="290.574" width="51.4862" height="51.4862" filterUnits="userSpaceOnUse" color-interpolation-filters="sRGB">
<feFlood flood-opacity="0" result="BackgroundImageFix"/>
<feColorMatrix in="SourceAlpha" type="matrix" values="0 0 0 0 0 0 0 0 0 0 0 0 0 0 0 0 0 0 127 0" result="hardAlpha"/>
<feOffset dy="2.5743"/>
<feGaussianBlur stdDeviation="6.43575"/>
<feComposite in2="hardAlpha" operator="out"/>
<feColorMatrix type="matrix" values="0 0 0 0 0.670588 0 0 0 0 0 0 0 0 0 0.121569 0 0 0 1 0"/>
<feBlend mode="normal" in2="BackgroundImageFix" result="effect1_dropShadow_3470_1297"/>
<feBlend mode="normal" in="SourceGraphic" in2="effect1_dropShadow_3470_1297" result="shape"/>
</filter>
<filter id="filter3_d_3470_1297" x="170.547" y="290.574" width="51.4862" height="51.4862" filterUnits="userSpaceOnUse" color-interpolation-filters="sRGB">
<feFlood flood-opacity="0" result="BackgroundImageFix"/>
<feColorMatrix in="SourceAlpha" type="matrix" values="0 0 0 0 0 0 0 0 0 0 0 0 0 0 0 0 0 0 127 0" result="hardAlpha"/>
<feOffset dy="2.5743"/>
<feGaussianBlur stdDeviation="6.43575"/>
<feComposite in2="hardAlpha" operator="out"/>
<feColorMatrix type="matrix" values="0 0 0 0 0.670588 0 0 0 0 0 0 0 0 0 0.121569 0 0 0 1 0"/>
<feBlend mode="normal" in2="BackgroundImageFix" result="effect1_dropShadow_3470_1297"/>
<feBlend mode="normal" in="SourceGraphic" in2="effect1_dropShadow_3470_1297" result="shape"/>
</filter>
<filter id="filter4_d_3470_1297" x="284.782" y="290.574" width="51.4862" height="51.4862" filterUnits="userSpaceOnUse" color-interpolation-filters="sRGB">
<feFlood flood-opacity="0" result="BackgroundImageFix"/>
<feColorMatrix in="SourceAlpha" type="matrix" values="0 0 0 0 0 0 0 0 0 0 0 0 0 0 0 0 0 0 127 0" result="hardAlpha"/>
<feOffset dy="2.5743"/>
<feGaussianBlur stdDeviation="6.43575"/>
<feComposite in2="hardAlpha" operator="out"/>
<feColorMatrix type="matrix" values="0 0 0 0 0.670588 0 0 0 0 0 0 0 0 0 0.121569 0 0 0 1 0"/>
<feBlend mode="normal" in2="BackgroundImageFix" result="effect1_dropShadow_3470_1297"/>
<feBlend mode="normal" in="SourceGraphic" in2="effect1_dropShadow_3470_1297" result="shape"/>
</filter>
<filter id="filter5_d_3470_1297" x="397.408" y="290.574" width="51.4862" height="51.4862" filterUnits="userSpaceOnUse" color-interpolation-filters="sRGB">
<feFlood flood-opacity="0" result="BackgroundImageFix"/>
<feColorMatrix in="SourceAlpha" type="matrix" values="0 0 0 0 0 0 0 0 0 0 0 0 0 0 0 0 0 0 127 0" result="hardAlpha"/>
<feOffset dy="2.5743"/>
<feGaussianBlur stdDeviation="6.43575"/>
<feComposite in2="hardAlpha" operator="out"/>
<feColorMatrix type="matrix" values="0 0 0 0 0.670588 0 0 0 0 0 0 0 0 0 0.121569 0 0 0 1 0"/>
<feBlend mode="normal" in2="BackgroundImageFix" result="effect1_dropShadow_3470_1297"/>
<feBlend mode="normal" in="SourceGraphic" in2="effect1_dropShadow_3470_1297" result="shape"/>
</filter>
<filter id="filter6_d_3470_1297" x="91.7093" y="183.419" width="183.017" height="77.4856" filterUnits="userSpaceOnUse" color-interpolation-filters="sRGB">
<feFlood flood-opacity="0" result="BackgroundImageFix"/>
<feColorMatrix in="SourceAlpha" type="matrix" values="0 0 0 0 0 0 0 0 0 0 0 0 0 0 0 0 0 0 127 0" result="hardAlpha"/>
<feOffset/>
<feGaussianBlur stdDeviation="9.65363"/>
<feComposite in2="hardAlpha" operator="out"/>
<feColorMatrix type="matrix" values="0 0 0 0 0.192157 0 0 0 0 0.215686 0 0 0 0 0.254902 0 0 0 0.24 0"/>
<feBlend mode="normal" in2="BackgroundImageFix" result="effect1_dropShadow_3470_1297"/>
<feBlend mode="normal" in="SourceGraphic" in2="effect1_dropShadow_3470_1297" result="shape"/>
</filter>
<filter id="filter7_d_3470_1297" x="130.324" y="314.547" width="131.922" height="70.5198" filterUnits="userSpaceOnUse" color-interpolation-filters="sRGB">
<feFlood flood-opacity="0" result="BackgroundImageFix"/>
<feColorMatrix in="SourceAlpha" type="matrix" values="0 0 0 0 0 0 0 0 0 0 0 0 0 0 0 0 0 0 127 0" result="hardAlpha"/>
<feOffset/>
<feGaussianBlur stdDeviation="9.65363"/>
<feComposite in2="hardAlpha" operator="out"/>
<feColorMatrix type="matrix" values="0 0 0 0 0.192157 0 0 0 0 0.215686 0 0 0 0 0.254902 0 0 0 0.24 0"/>
<feBlend mode="normal" in2="BackgroundImageFix" result="effect1_dropShadow_3470_1297"/>
<feBlend mode="normal" in="SourceGraphic" in2="effect1_dropShadow_3470_1297" result="shape"/>
</filter>
<filter id="filter8_d_3470_1297" x="209.966" y="440.044" width="302.922" height="70.5198" filterUnits="userSpaceOnUse" color-interpolation-filters="sRGB">
<feFlood flood-opacity="0" result="BackgroundImageFix"/>
<feColorMatrix in="SourceAlpha" type="matrix" values="0 0 0 0 0 0 0 0 0 0 0 0 0 0 0 0 0 0 127 0" result="hardAlpha"/>
<feOffset/>
<feGaussianBlur stdDeviation="9.65363"/>
<feComposite in2="hardAlpha" operator="out"/>
<feColorMatrix type="matrix" values="0 0 0 0 0.192157 0 0 0 0 0.215686 0 0 0 0 0.254902 0 0 0 0.24 0"/>
<feBlend mode="normal" in2="BackgroundImageFix" result="effect1_dropShadow_3470_1297"/>
<feBlend mode="normal" in="SourceGraphic" in2="effect1_dropShadow_3470_1297" result="shape"/>
</filter>
<filter id="filter9_d_3470_1297" x="125.235" y="61.0756" width="179.922" height="70.5198" filterUnits="userSpaceOnUse" color-interpolation-filters="sRGB">
<feFlood flood-opacity="0" result="BackgroundImageFix"/>
<feColorMatrix in="SourceAlpha" type="matrix" values="0 0 0 0 0 0 0 0 0 0 0 0 0 0 0 0 0 0 127 0" result="hardAlpha"/>
<feOffset/>
<feGaussianBlur stdDeviation="9.65363"/>
<feComposite in2="hardAlpha" operator="out"/>
<feColorMatrix type="matrix" values="0 0 0 0 0.192157 0 0 0 0 0.215686 0 0 0 0 0.254902 0 0 0 0.24 0"/>
<feBlend mode="normal" in2="BackgroundImageFix" result="effect1_dropShadow_3470_1297"/>
<feBlend mode="normal" in="SourceGraphic" in2="effect1_dropShadow_3470_1297" result="shape"/>
</filter>
<clipPath id="clip0_3470_1297">
<rect width="395.799" height="24.9385" fill="white" transform="translate(111.017 118.257)"/>
</clipPath>
</defs>
</svg>
