<svg width="300" height="53" viewBox="0 0 300 53" fill="none" xmlns="http://www.w3.org/2000/svg">
<g clip-path="url(#clip0_2331_86536)">
<path d="M214.858 4.54428C212.48 4.44207 210.107 4.84963 207.899 5.73961C205.691 6.6296 203.699 7.98144 202.056 9.70447C198.741 13.4067 197.008 18.2603 197.23 23.2248C197.129 25.5734 197.497 27.9184 198.311 30.1236C199.125 32.3288 200.37 34.3501 201.972 36.07C203.565 37.706 205.484 38.9898 207.604 39.8386C209.724 40.6873 211.998 41.0822 214.28 40.9976C216.614 41.0855 218.94 40.6775 221.105 39.8005C223.269 38.9234 225.224 37.5973 226.838 35.9097C230.154 32.2573 231.889 27.4411 231.664 22.5135C231.882 17.7281 230.211 13.0486 227.012 9.48316C225.452 7.84201 223.559 6.55242 221.461 5.70039C219.363 4.84835 217.107 4.45345 214.844 4.54203L214.858 4.54428ZM0 5.13596V40.3223H7.12264V20.8649C7.12264 18.2483 7.0165 15.2057 6.80422 11.7369H7.03005C7.03005 11.7369 7.90401 16.0074 16.4855 40.3223H22.9465C31.5031 15.4473 32.2777 11.7392 32.2777 11.7392H32.4742C32.2077 14.2402 32.1096 16.7564 32.1806 19.2706V40.3201H39.9852V5.13596H28.6938L21.535 25.9438C20.9819 27.6114 20.5161 29.3067 20.1394 31.0227H19.9926C19.7252 29.3128 19.3073 27.6299 18.7438 25.9935L11.5737 5.13596H0ZM99.4911 5.13596V40.3856H106.968V21.0162C106.968 18.4568 106.903 16.5561 106.772 15.3141H106.869C107.406 16.3225 107.996 17.3024 108.635 18.2498L123.124 40.3991H131.121V5.13821H123.634V24.6318C123.595 26.2476 123.663 27.8642 123.835 29.4713H123.732C123.191 28.5213 122.603 27.563 121.968 26.5965L108.023 5.14273L99.4911 5.13596ZM141.007 5.13596V40.3856H162.093V33.9472H148.927V25.8896H160.429V19.4422H148.927V11.5992H161.287V5.13596H141.007ZM166.763 5.13596V11.5992H176.743V40.3856H184.687V11.5992H194.712V5.13596H166.763ZM239.358 5.13596V40.3856H247.283V26.89H249.417C249.886 26.8865 250.35 26.9916 250.772 27.1972C251.219 27.4234 251.626 27.7226 251.975 28.0824C252.391 28.5108 252.769 28.9748 253.104 29.469C253.484 30.011 253.872 30.6253 254.281 31.314L259.748 40.3833H268.84L262.21 29.9545C261.86 29.4126 261.485 28.8615 261.067 28.297C260.66 27.7453 260.222 27.2175 259.755 26.7162C259.32 26.245 258.845 25.8128 258.335 25.4244C257.877 25.0726 257.362 24.8021 256.812 24.625V24.5347C257.956 24.2128 259.049 23.7324 260.06 23.1074C261.001 22.527 261.84 21.7962 262.544 20.944C263.232 20.1036 263.771 19.152 264.138 18.1301C264.521 17.036 264.71 15.8837 264.698 14.7246C264.698 8.33369 260.433 5.13821 251.903 5.13821L239.358 5.13596ZM300 5.13596H291.613C285.852 18.3853 285.308 19.9842 285.095 21.1698H284.996C284.544 19.4987 284.285 18.5389 278.521 5.13596H269.477L280.633 27.9966V40.3856H288.553V27.8498L300 5.13596ZM247.283 11.0843H250.864C254.545 11.0843 256.386 12.6252 256.386 15.707C256.399 16.402 256.265 17.092 255.993 17.7316C255.72 18.3711 255.316 18.9457 254.805 19.4174C254.254 19.9205 253.608 20.3098 252.906 20.5628C252.204 20.8159 251.458 20.9278 250.713 20.892H247.283V11.0843ZM214.406 11.3756H214.436H214.641C215.872 11.3286 217.095 11.5813 218.207 12.112C219.318 12.6427 220.284 13.4354 221.021 14.422C222.71 16.9341 223.527 19.932 223.345 22.9539C223.519 25.8898 222.671 28.7954 220.944 31.1763C220.145 32.1123 219.151 32.8624 218.032 33.374C216.913 33.8857 215.695 34.1466 214.464 34.1384C213.234 34.1302 212.02 33.8532 210.907 33.3267C209.795 32.8002 208.811 32.037 208.024 31.0905C206.273 28.6951 205.406 25.7674 205.57 22.8048C205.426 19.8411 206.291 16.9161 208.024 14.5079C208.773 13.5259 209.739 12.7312 210.847 12.1864C211.955 11.6417 213.174 11.3618 214.409 11.3688L214.406 11.3756ZM67.5228 14.8534C67.4542 14.8547 67.3861 14.8638 67.3196 14.8805C65.1096 15.4497 63.1833 16.8056 61.9017 18.6938C60.6201 20.582 60.0713 22.8729 60.3582 25.1368C60.6452 27.4008 61.7481 29.4823 63.4602 30.9912C65.1723 32.5 67.376 33.3324 69.658 33.3324C71.9401 33.3324 74.1438 32.5 75.8559 30.9912C77.568 29.4823 78.6709 27.4008 78.9578 25.1368C79.2447 22.8729 78.6959 20.582 77.4143 18.6938C76.1327 16.8056 74.2064 15.4497 71.9965 14.8805C71.8625 14.8459 71.7224 14.8425 71.5869 14.8707C71.4514 14.8988 71.3242 14.9577 71.2151 15.0428C71.1059 15.1279 71.0178 15.237 70.9576 15.3615C70.8973 15.4861 70.8664 15.6228 70.8673 15.7612V16.3913C70.8675 16.5914 70.9341 16.7858 71.0567 16.944C71.1793 17.1022 71.351 17.2152 71.5448 17.2652C73.1619 17.7186 74.5601 18.7422 75.481 20.1467C76.4019 21.5511 76.7832 23.2415 76.5544 24.9053C76.3255 26.5691 75.502 28.0937 74.2362 29.1974C72.9703 30.3011 71.3476 30.9091 69.6682 30.9091C67.9887 30.9091 66.3661 30.3011 65.1002 29.1974C63.8343 28.0937 63.0108 26.5691 62.782 24.9053C62.5532 23.2415 62.9344 21.5511 63.8553 20.1467C64.7762 18.7422 66.1745 17.7186 67.7915 17.2652C67.9853 17.2152 68.157 17.1022 68.2796 16.944C68.4023 16.7858 68.4689 16.5914 68.469 16.3913V15.7612C68.4691 15.6399 68.4447 15.5198 68.3974 15.4081C68.35 15.2963 68.2806 15.1953 68.1934 15.111C68.1061 15.0267 68.0028 14.9608 67.8895 14.9174C67.7762 14.8739 67.6554 14.8536 67.5341 14.8579L67.5228 14.8534Z" fill="#A34EFF"/>
<path fill-rule="evenodd" clip-rule="evenodd" d="M53.0653 24.7311C52.9385 21.6298 53.711 18.5579 55.2897 15.8854C56.7055 13.439 58.7223 11.3944 61.1492 9.94525C63.576 8.4961 66.3325 7.69034 69.1578 7.60427C71.7381 7.49067 74.3072 8.00605 76.644 9.10603C76.8726 9.19272 77.0946 9.29613 77.308 9.41542C77.951 9.75289 78.5725 10.13 79.1688 10.5446C79.9603 11.0847 80.6964 11.702 81.3661 12.3873C81.7016 12.7028 82.0183 13.0376 82.3146 13.39C83.2762 14.4743 84.0771 15.6912 84.6926 17.0033C85.6578 19.0074 86.2034 21.1875 86.296 23.41V24.9411C86.1588 28.6095 84.7951 32.1258 82.423 34.9273L81.2148 36.2236C81.1267 36.3094 81.0477 36.3568 80.9506 36.4494C78.4997 38.6887 75.4388 40.1495 72.1564 40.6464C68.874 41.1434 65.5179 40.6541 62.5139 39.2406C59.0233 37.5575 56.2249 34.7153 54.5964 31.1989C53.6248 29.1757 53.1025 26.9662 53.0653 24.7221V24.7311ZM68.7965 0.711975H70.5038C72.823 0.802059 75.1178 1.22101 77.3193 1.95629C77.4751 2.00823 77.6083 2.04662 77.7393 2.09631C79.9494 2.91521 82.029 4.05013 83.9135 5.46567L85.5914 6.85452L88.0145 9.44477C90.281 12.2287 91.8697 15.5012 92.6553 19.0041C93.2118 21.4046 93.372 23.88 93.1295 26.3323C92.8002 30.0849 91.5649 33.7016 89.5298 36.8717L88.7372 38.0979C88.963 38.4299 95.7966 45.1844 96.4153 45.8077C97.7319 47.1266 98.3484 47.6144 98.3484 49.5158C98.2793 50.3234 97.9275 51.0807 97.3549 51.6545C96.7824 52.2282 96.0259 52.5817 95.2185 52.6526C93.2921 52.6526 92.8066 52.0158 91.4742 50.6856C90.8487 50.0601 84.1167 43.2604 83.796 43.0436C82.1946 44.2409 80.4497 45.2332 78.602 45.9974C77.5982 46.4074 76.5684 46.7506 75.5194 47.0249C74.3925 47.3149 73.2449 47.5172 72.0868 47.6302C69.602 47.8599 67.0967 47.7153 64.6548 47.2011C61.5963 46.5292 58.7012 45.2582 56.1365 43.4614C55.7391 43.1813 55.3913 42.8991 54.9893 42.5874C54.0419 41.8228 53.1492 40.9927 52.3178 40.1033L50.9628 38.4705C49.4293 36.4697 48.2332 34.2315 47.4218 31.8447C46.4858 29.1835 46.0628 26.3689 46.1752 23.55C46.2015 21.8535 46.4289 20.1661 46.8527 18.5231C47.5448 15.7078 48.7606 13.0479 50.4366 10.6823C51.6135 9.03142 52.9911 7.53322 54.5377 6.2222C58.5438 2.84632 63.5635 0.906771 68.7988 0.711975L68.7965 0.711975Z" fill="#A34EFF"/>
</g>
<defs>
<clipPath id="clip0_2331_86536">
<rect width="300" height="52" fill="white" transform="translate(0 0.711975)"/>
</clipPath>
</defs>
</svg>
