<svg width="255" height="131" viewBox="0 0 255 131" fill="none" xmlns="http://www.w3.org/2000/svg">
<g clip-path="url(#clip0_868_118656)">
<path d="M103.701 41.9468L105.878 41.6407L107.287 51.668C113.651 50.815 120.09 50.3819 126.564 50.3819C132.962 50.3819 139.327 50.8049 145.618 51.6383L147.022 41.6407L149.2 41.9468L147.795 51.9436C159.625 53.6935 171.179 56.8973 182.195 61.4702L186.099 52.2681L188.124 53.1277L184.219 62.3287C193.574 66.3791 202.524 71.425 210.908 77.4135L216.688 69.4552L218.467 70.7482L211.4 80.4778C211.13 80.2782 210.859 80.0796 210.588 79.8818L210.582 79.89C186.161 62.1412 156.75 52.5817 126.564 52.5817C96.3779 52.5817 66.9668 62.1411 42.5458 79.8899L42.5399 79.8818C42.2193 80.1152 41.8997 80.3499 41.5811 80.5859L34.4336 70.7482L35.3232 70.1018L36.2129 69.4555L42.0717 77.5194C50.4407 71.5255 59.3765 66.472 68.7166 62.4118L64.7771 53.1277L66.8013 52.2681L70.7401 61.5504C81.7451 56.9636 93.2885 53.744 105.11 51.9767L103.701 41.9468Z" fill="#101010"/>
<path d="M31.1252 61.5929L31.9488 62.5743C32.3432 63.0444 32.6333 63.485 32.819 63.8961C33.0051 64.3021 33.098 64.6809 33.0978 65.0324C33.0977 65.384 33.017 65.7093 32.8558 66.0086C32.6973 66.3055 32.4697 66.5785 32.1727 66.8277C31.9363 67.026 31.691 67.1804 31.4368 67.2906C31.1854 67.3985 30.9243 67.4559 30.6537 67.4628C30.3831 67.4697 30.1047 67.4199 29.8185 67.3133C29.5328 67.2017 29.2383 67.0295 28.9352 66.7966C28.6348 66.5614 28.3266 66.2555 28.0105 65.8789L27.187 64.8974C26.7902 64.4246 26.5025 63.9867 26.3237 63.5839C26.1427 63.1783 26.0534 62.8011 26.0559 62.4523C26.0561 62.1008 26.1366 61.778 26.2973 61.4838C26.4608 61.1873 26.691 60.9145 26.9879 60.6654C27.2271 60.4647 27.4724 60.3104 27.7238 60.2024C27.9757 60.0895 28.2345 60.0293 28.5 60.022C28.7683 60.0123 29.0442 60.062 29.3276 60.1708C29.6115 60.2746 29.9036 60.4441 30.204 60.6793C30.5021 60.9117 30.8092 61.2162 31.1252 61.5929ZM31.0726 63.5485L30.0068 62.2783C29.8061 62.0391 29.6159 61.8404 29.4362 61.682C29.2541 61.5209 29.0825 61.4001 28.9214 61.3198C28.7608 61.2344 28.6071 61.1853 28.4605 61.1725C28.3116 61.1569 28.1713 61.1739 28.0395 61.2235C27.9055 61.2704 27.7753 61.3469 27.6488 61.453C27.4949 61.5822 27.3828 61.7278 27.3126 61.8898C27.2401 62.049 27.2168 62.2278 27.2427 62.4262C27.2687 62.6247 27.3485 62.8482 27.4821 63.0968C27.6162 63.3403 27.8089 63.6119 28.0604 63.9116L29.1262 65.1817C29.3292 65.4236 29.5217 65.6252 29.7037 65.7863C29.8858 65.9474 30.0597 66.0709 30.2254 66.1567C30.3888 66.2398 30.5447 66.2917 30.6932 66.3123C30.8422 66.3279 30.9836 66.3122 31.1176 66.2654C31.2544 66.2162 31.3847 66.1397 31.5084 66.0359C31.6651 65.9044 31.7785 65.7577 31.8487 65.5957C31.919 65.4337 31.9399 65.2521 31.9117 65.0509C31.8811 64.847 31.7965 64.6206 31.6578 64.3715C31.5191 64.1225 31.324 63.8481 31.0726 63.5485Z" fill="#33CC99"/>
<path d="M66.7615 46.6067L67.115 47.578L62.1778 49.375L61.874 48.5403L63.3199 45.0523C63.4749 44.6598 63.5891 44.328 63.6623 44.0569C63.7355 43.7858 63.7711 43.5533 63.7692 43.3592C63.7695 43.1605 63.7395 42.9785 63.6794 42.8133C63.5947 42.5806 63.4766 42.3925 63.3251 42.2491C63.1757 42.101 63 42.0065 62.7979 41.9654C62.5946 41.9211 62.3749 41.9418 62.1389 42.0277C61.8657 42.1272 61.6579 42.2696 61.5153 42.4552C61.3728 42.6407 61.2924 42.8552 61.2741 43.0987C61.2545 43.3388 61.2932 43.592 61.3902 43.8584L60.1711 44.3022C60.0152 43.8739 59.9706 43.4471 60.0373 43.0218C60.1028 42.5931 60.283 42.2067 60.5778 41.8626C60.8715 41.5151 61.2796 41.2463 61.8024 41.056C62.2947 40.8768 62.743 40.8072 63.1471 40.8473C63.5512 40.8873 63.8979 41.0266 64.1871 41.265C64.4797 41.5023 64.7015 41.8283 64.8525 42.2431C64.9359 42.4724 64.9817 42.7136 64.9897 42.9665C64.9978 43.2195 64.9738 43.4841 64.9178 43.7604C64.8639 44.032 64.7853 44.3146 64.6821 44.6081C64.5776 44.8982 64.4558 45.1984 64.3167 45.5087L63.3621 47.844L66.7615 46.6067Z" fill="#33CC99"/>
<path d="M106.111 34.5071L106.29 35.525L100.724 36.5065L100.546 35.7453L102.955 29.9416L103.978 29.7612L103.205 31.8545L101.833 35.2615L106.111 34.5071ZM104.27 29.7098L105.631 37.4287L104.353 37.654L102.992 29.935L104.27 29.7098Z" fill="#33CC99"/>
<path d="M151.894 29.9374L152.053 29.9654L151.869 31.0098L151.779 30.9939C151.323 30.9135 150.916 30.9147 150.559 30.9975C150.205 31.0809 149.901 31.2277 149.645 31.4377C149.389 31.6477 149.179 31.9095 149.015 32.223C148.854 32.5336 148.741 32.8745 148.676 33.2456L148.462 34.4596C148.408 34.7671 148.393 35.0451 148.419 35.2938C148.445 35.5389 148.504 35.7516 148.596 35.9318C148.692 36.1091 148.813 36.2524 148.957 36.3618C149.102 36.4711 149.266 36.542 149.45 36.5744C149.641 36.608 149.821 36.5997 149.99 36.5494C150.16 36.4955 150.312 36.4075 150.447 36.2855C150.581 36.1634 150.694 36.0102 150.785 35.8258C150.875 35.6414 150.941 35.4343 150.982 35.2045C151.02 34.9854 151.028 34.7754 151.005 34.5746C150.987 34.3709 150.937 34.1872 150.856 34.0236C150.777 33.8565 150.664 33.7182 150.52 33.6089C150.379 33.4967 150.206 33.4225 150.001 33.3863C149.747 33.3415 149.505 33.3607 149.275 33.4441C149.049 33.5281 148.855 33.6561 148.693 33.8281C148.536 33.9971 148.433 34.1885 148.384 34.4022L147.925 34.1572C148.011 33.8335 148.136 33.5511 148.298 33.3102C148.465 33.0698 148.661 32.8749 148.888 32.7254C149.115 32.5759 149.364 32.4758 149.635 32.4253C149.91 32.3718 150.202 32.3722 150.509 32.4264C150.884 32.4925 151.197 32.6205 151.447 32.8105C151.698 33.0004 151.892 33.2333 152.029 33.5089C152.171 33.7817 152.258 34.0813 152.292 34.4079C152.33 34.7316 152.319 35.0613 152.26 35.3971C152.194 35.7682 152.077 36.1046 151.907 36.4063C151.738 36.7044 151.522 36.9543 151.261 37.156C151.003 37.3583 150.706 37.4992 150.372 37.5787C150.041 37.6588 149.679 37.6642 149.286 37.5951C148.873 37.5221 148.518 37.3775 148.221 37.1611C147.927 36.9454 147.692 36.6779 147.515 36.3589C147.341 36.0404 147.228 35.6888 147.176 35.3042C147.123 34.9196 147.133 34.5241 147.205 34.1177L147.298 33.5875C147.402 33.0008 147.573 32.4608 147.813 31.9674C148.054 31.4705 148.363 31.0495 148.741 30.7043C149.123 30.3598 149.576 30.1171 150.1 29.9763C150.624 29.832 151.222 29.819 151.894 29.9374Z" fill="#33CC99"/>
<path d="M192.435 47.3513C192.268 47.81 192.021 48.1574 191.695 48.3937C191.368 48.63 190.991 48.7622 190.565 48.7903C190.143 48.8163 189.703 48.7458 189.244 48.5788C188.785 48.4119 188.401 48.1823 188.091 47.89C187.783 47.5943 187.579 47.251 187.481 46.86C187.382 46.4691 187.417 46.0443 187.584 45.5856C187.694 45.2821 187.853 45.0287 188.061 44.8255C188.27 44.6189 188.515 44.4655 188.796 44.3654C189.081 44.263 189.388 44.2164 189.717 44.2254C190.05 44.2356 190.391 44.3045 190.742 44.4322C191.207 44.6015 191.592 44.8391 191.897 45.1449C192.202 45.4507 192.404 45.7934 192.503 46.173C192.605 46.5539 192.582 46.9466 192.435 47.3513ZM191.233 46.8451C191.322 46.5989 191.35 46.3646 191.317 46.1423C191.283 45.92 191.194 45.7251 191.048 45.5577C190.903 45.3902 190.711 45.2629 190.471 45.1758C190.228 45.0874 189.999 45.0613 189.784 45.0974C189.568 45.1335 189.376 45.2259 189.207 45.3745C189.042 45.5244 188.915 45.7225 188.825 45.9687C188.734 46.2182 188.704 46.4518 188.736 46.6695C188.769 46.8839 188.859 47.0714 189.007 47.2321C189.154 47.3928 189.351 47.518 189.598 47.6076C189.844 47.6972 190.073 47.7273 190.287 47.6979C190.5 47.6686 190.688 47.5823 190.85 47.4392C191.015 47.2926 191.142 47.0946 191.233 46.8451ZM193.513 43.871C193.379 44.2385 193.162 44.5301 192.862 44.7455C192.565 44.9622 192.217 45.0912 191.816 45.1325C191.417 45.1704 190.999 45.1102 190.564 44.9518C190.126 44.7922 189.764 44.5689 189.479 44.2819C189.199 43.9926 189.013 43.6691 188.921 43.3113C188.834 42.9546 188.856 42.5925 188.99 42.2249C189.15 41.7865 189.38 41.4522 189.682 41.2221C189.988 40.9897 190.34 40.8563 190.738 40.8218C191.137 40.7872 191.555 40.8498 191.993 41.0093C192.432 41.1689 192.793 41.3899 193.075 41.6724C193.358 41.9549 193.541 42.2828 193.622 42.6563C193.709 43.0277 193.672 43.4325 193.513 43.871ZM192.279 43.4677C192.359 43.2485 192.385 43.0403 192.357 42.8431C192.334 42.6438 192.262 42.4687 192.142 42.3179C192.021 42.167 191.854 42.0529 191.642 41.9755C191.429 41.8982 191.229 41.8768 191.041 41.9114C190.852 41.946 190.686 42.0306 190.542 42.1651C190.397 42.2997 190.283 42.4816 190.2 42.711C190.117 42.9369 190.088 43.1496 190.111 43.3489C190.135 43.5448 190.207 43.7182 190.328 43.8691C190.452 44.0212 190.621 44.1359 190.833 44.2133C191.045 44.2906 191.246 44.3103 191.436 44.2723C191.625 44.2343 191.792 44.1481 191.937 44.0135C192.083 43.8756 192.197 43.6936 192.279 43.4677Z" fill="#33CC99"/>
<path d="M223.463 58.9094L218.407 64.9342L217.413 64.1003L221.479 59.2548L219.588 58.5185L220.277 57.6979L223.343 58.809L223.463 58.9094ZM227.517 66.6055L226.694 67.5869C226.299 68.057 225.916 68.4192 225.543 68.6734C225.176 68.9272 224.819 69.0845 224.473 69.1454C224.126 69.2062 223.792 69.1833 223.469 69.0765C223.149 68.972 222.841 68.7952 222.544 68.5461C222.308 68.3477 222.113 68.1329 221.96 67.9017C221.81 67.6728 221.709 67.4257 221.655 67.1604C221.601 66.8951 221.602 66.6123 221.657 66.3119C221.717 66.0112 221.836 65.6913 222.012 65.3523C222.192 65.0156 222.44 64.659 222.756 64.2823L223.579 63.3009C223.976 62.828 224.357 62.4686 224.723 62.2226C225.091 61.9739 225.447 61.8205 225.791 61.7624C226.137 61.7015 226.469 61.7247 226.787 61.8319C227.107 61.9415 227.416 62.1208 227.712 62.3699C227.952 62.5706 228.146 62.7854 228.296 63.0143C228.451 63.2427 228.555 63.4871 228.609 63.7474C228.665 64.0099 228.664 64.2902 228.606 64.5882C228.553 64.8858 228.437 65.2029 228.257 65.5396C228.08 65.8735 227.833 66.2288 227.517 66.6055ZM225.582 66.8932L226.648 65.6231C226.849 65.3839 227.012 65.162 227.136 64.9575C227.263 64.7503 227.353 64.5603 227.404 64.3877C227.46 64.2147 227.482 64.0548 227.469 63.9082C227.458 63.7588 227.417 63.6236 227.345 63.5025C227.276 63.3787 227.178 63.2637 227.052 63.1576C226.898 63.0284 226.735 62.9433 226.563 62.9023C226.394 62.8585 226.213 62.8666 226.023 62.9266C225.832 62.9866 225.625 63.104 225.404 63.2788C225.187 63.4532 224.953 63.6902 224.702 63.9898L223.636 65.2599C223.433 65.5019 223.268 65.7265 223.141 65.9337C223.014 66.141 222.922 66.3337 222.867 66.5118C222.813 66.6871 222.789 66.8497 222.795 66.9995C222.805 67.1489 222.845 67.2855 222.915 67.4094C222.987 67.5355 223.085 67.6505 223.208 67.7543C223.365 67.8858 223.529 67.972 223.701 68.0131C223.873 68.0541 224.055 68.0432 224.248 67.9805C224.444 67.915 224.652 67.7923 224.873 67.6124C225.095 67.4326 225.331 67.1929 225.582 66.8932Z" fill="#33CC99"/>
<path d="M217.576 69.2408C217.761 68.9967 218.107 68.9456 218.354 69.1259C218.601 69.3062 218.658 69.6514 218.482 69.9017L128.781 197.541C128.427 198.045 127.728 198.161 127.23 197.798L123.698 195.223C123.2 194.859 123.096 194.158 123.468 193.667L217.576 69.2408Z" fill="#95001B"/>
</g>
<rect x="5" y="5.00003" width="244.83" height="120.249" rx="32.5622" stroke="#19676C" stroke-width="10"/>
<defs>
<clipPath id="clip0_868_118656">
<rect x="10" y="10" width="234.83" height="110.249" rx="27.5622" fill="white"/>
</clipPath>
</defs>
</svg>
