<svg width="284" height="137" viewBox="0 0 284 137" fill="none" xmlns="http://www.w3.org/2000/svg">
<g clip-path="url(#clip0_2398_78340)">
<path d="M87.5826 89.8447H105.533V95.7204H96.9744V136.905H87.5826V89.8447Z" fill="white"/>
<path d="M116.203 119.278L117.814 95.7204H118.37L119.982 119.278H116.203ZM105.755 136.905H115.036L115.925 124.433H120.371L121.26 136.905H130.485L125.539 89.8447H110.701L105.755 136.905Z" fill="white"/>
<path d="M143.933 120.442V129.311C143.933 130.531 144.878 130.863 145.378 130.863C146.268 130.863 146.879 130.143 146.879 129.311V118.336C146.879 116.895 146.601 115.232 143.1 115.232H139.265V110.077H143.267C145.934 110.077 146.879 109.467 146.879 106.585V97.2724C146.879 96.441 146.268 95.7204 145.378 95.7204C144.823 95.7204 143.933 96.0529 143.933 97.2724V104.922H134.486V98.2702C134.486 94.9998 134.875 89.8447 141.488 89.8447H149.324C155.937 89.8447 156.382 94.9998 156.382 98.2702V105.809C156.382 110.964 152.77 112.35 149.935 112.239V112.682C156.271 112.516 156.382 117.394 156.382 119.057V128.535C156.382 131.861 155.937 136.961 149.324 136.961H141.488C134.875 136.961 134.486 131.861 134.486 128.535V120.498H143.933V120.442Z" fill="white"/>
<path d="M162.55 89.8447H184.39V136.905H174.999V95.7204H171.998V136.905H162.55V89.8447Z" fill="white"/>
<path d="M200.062 115.731V95.7206H201.284C202.285 95.7206 203.007 96.5521 203.007 98.0487V113.348C203.007 114.844 202.285 115.676 201.284 115.676H200.062V115.731ZM190.615 136.906H200.062V120.886H205.452C212.01 120.886 212.455 115.786 212.455 112.461V98.215C212.455 94.9446 212.01 89.7896 205.452 89.7896H190.615V136.906Z" fill="white"/>
<path d="M231.071 129.311C231.071 130.143 230.46 130.863 229.571 130.863C229.015 130.863 228.126 130.531 228.126 129.311V97.2724C228.126 96.0529 229.071 95.7204 229.571 95.7204C230.46 95.7204 231.071 96.441 231.071 97.2724V129.311ZM218.623 128.535C218.623 131.861 219.068 136.961 225.625 136.961H233.461C240.019 136.961 240.463 131.861 240.463 128.535V98.2702C240.463 94.9998 240.019 89.8447 233.461 89.8447H225.625C219.068 89.8447 218.623 94.9998 218.623 98.2702V128.535Z" fill="white"/>
<path d="M271.195 89.8447H283.477V136.905H274.085V107.416H273.696L268.861 136.905H261.303L256.468 107.416H256.135V136.905H246.688V89.8447H258.914L265.082 122.992L271.195 89.8447Z" fill="white"/>
<path d="M75.3567 25.5455C72.4669 12.9073 65.2424 2.65266 64.2421 0.989746C62.6861 3.31783 56.9065 12.4085 53.9611 22.4414C50.7379 33.6938 50.2933 43.6159 51.4048 53.3717C52.5162 63.1829 56.6286 73.2158 56.6286 73.2158C58.8515 78.4817 62.1303 84.1356 64.2977 86.9072C67.4653 82.8053 74.6898 70.6106 76.9683 54.7574C78.1909 45.8885 78.2464 38.1283 75.3567 25.5455ZM64.1865 83.7476C62.7416 81.087 60.5743 76.0428 60.352 68.1716C60.2964 60.6331 63.3529 54.0923 64.2421 52.7619C65.0201 54.0923 67.632 59.8016 67.9655 67.5619C68.1878 75.1004 65.687 81.087 64.1865 83.7476ZM74.4675 46.9417C74.3563 51.7642 73.8006 56.8638 73.0226 59.9125C73.3005 54.6466 72.6336 47.2743 71.4666 41.5095C70.244 35.7447 66.854 26.0998 64.131 21.6654C61.6302 25.9335 58.5181 34.2481 56.9065 41.4541C55.2949 48.6601 55.2393 57.4181 55.2393 60.0233C54.7947 57.8061 53.7388 49.935 54.0167 42.0084C54.2946 35.4676 55.795 28.7605 56.6286 25.6564C59.8518 15.3463 63.4641 8.75003 64.131 7.69685C64.7978 8.75003 69.3548 16.8983 71.7444 25.3792C74.1341 33.9709 74.5786 42.1192 74.4675 46.9417Z" fill="white"/>
<path d="M69.1325 89.845H47.1813V104.534L47.2368 104.479C52.4051 99.3236 60.7966 99.3236 65.9649 104.479C71.1331 109.634 71.1331 118.004 65.9649 123.159C65.9649 123.214 65.9093 123.214 65.9093 123.214L65.8537 123.27C60.6855 128.369 53.9612 130.919 47.1813 130.919C40.4014 130.919 33.6215 128.369 28.4533 123.214C19.3393 114.124 18.2834 100.044 25.23 89.7896C26.1748 88.4038 27.2306 87.0735 28.4533 85.854C33.6215 80.6989 40.4014 78.1491 47.1813 78.1491V42.8398C21.1176 42.8953 0 63.9035 0 89.845C0 115.787 21.1177 136.85 47.1257 136.85C60.6855 136.85 72.9115 131.085 81.5252 121.939V89.7896H69.1325V89.845Z" fill="white"/>
</g>
<defs>
<clipPath id="clip0_2398_78340">
<rect width="284" height="135.971" fill="white" transform="translate(0 0.989746)"/>
</clipPath>
</defs>
</svg>
