<?xml version="1.0" encoding="UTF-8" standalone="no"?> <!-- Created with Inkscape (http://www.inkscape.org/) --> <svg xmlns:svg="http://www.w3.org/2000/svg" xmlns="http://www.w3.org/2000/svg" width="800" height="219.757" viewBox="0 0 800 219.757" id="Layer_1" xml:space="preserve"><defs id="defs14"></defs> <polyline fill-rule="evenodd" clip-rule="evenodd" fill="#0083C2" points="0,0 109.147,0 181.675,84.742 189.577,94.081 195.339,102.696 201.792,114.91 208.266,132.139 211.855,145.066 214.005,160.87 214.005,219.757 121.374,219.757 121.374,166.609 119.936,160.87 118.499,151.53 114.898,141.479 111.31,132.139 102.696,118.499 86.893,99.107 0,0 " id="polyline3" style="fill:#0083c2;fill-rule:evenodd"></polyline> <polyline fill-rule="evenodd" clip-rule="evenodd" fill="#0083C2" points="224.783,0 338.244,0 231.959,119.937 226.22,129.988 223.345,136.452 221.907,127.113 217.583,114.186 208.968,97.669 198.214,81.154 186.713,67.513 176.661,56.023 224.783,0 " id="polyline5" style="fill:#0083c2;fill-rule:evenodd"></polyline> <rect width="98.394997" height="219.757" x="375.577" y="0" style="fill:#0083c2" id="rect7"></rect> <path d="M 599.646,94.794 L 526.394,94.794 L 526.394,0 L 616.163,0 L 621.913,0.725 L 631.241,2.163 L 639.154,5.027 L 650.632,8.627 L 643.455,15.091 L 634.841,22.981 L 626.227,33.758 L 619.763,45.248 L 613.287,58.175 L 609.711,73.253 L 607.548,87.618 L 605.398,97.67 C 605.398,97.67 603.96,96.232 603.248,95.52 C 601.073,94.794 599.646,94.794 599.646,94.794" style="fill:#0083c2;fill-rule:evenodd" id="path9"></path> <polyline fill-rule="evenodd" clip-rule="evenodd" fill="#0083C2" points="713.843,0 800,0 800,86.904 733.948,86.904 727.484,87.617 721.733,89.768 715.995,93.356 711.681,98.395 708.794,104.858 706.655,112.035 705.93,118.499 705.93,219.757 619.026,219.757 619.026,99.82 619.762,91.931 621.913,79.716 625.501,68.951 630.528,57.449 637.716,43.809 647.756,30.881 659.258,20.116 671.46,12.214 682.238,6.464 693.014,2.875 709.531,0 713.843,0 " id="polyline11" style="fill:#0083c2;fill-rule:evenodd"></polyline> </svg> 