<svg width="97" height="20" viewBox="0 0 97 20" fill="none" xmlns="http://www.w3.org/2000/svg">
<path d="M14.1128 0H6.01513C2.73132 0 0.0625 2.66882 0.0625 5.94968V14.0503C0.0625 17.3312 2.73132 20 6.01513 20H14.1158C17.3966 20 20.0654 17.3312 20.0654 14.0503V5.94968C20.0625 2.66882 17.3937 0 14.1128 0Z" fill="#D70926"/>
<path d="M14.1128 0H6.01513C2.73132 0 0.0625 2.66882 0.0625 5.94968V14.0503C0.0625 17.3312 2.73132 20 6.01513 20H14.1158C17.3966 20 20.0654 17.3312 20.0654 14.0503V5.94968C20.0625 2.66882 17.3937 0 14.1128 0Z" fill="white"/>
<path d="M16.3746 12.4587L16.3687 12.547C16.3393 12.8942 16.1215 13.2443 15.7625 13.2443C15.4859 13.2443 15.2653 13.1413 15.0828 12.9324C14.8651 12.6823 14.6709 12.3822 14.4708 11.8349C15.0328 9.9311 16.763 3.83429 16.763 3.83429H13.4792C13.4792 3.83429 13.1761 5.26433 12.9025 6.5649C12.8877 6.53254 12.876 6.50311 12.8613 6.47075C12.5876 5.88519 12.1521 5.23491 11.6637 4.77882C10.8162 3.98435 9.82168 3.59595 8.62115 3.59595C6.96454 3.59595 5.56098 4.20798 4.45166 5.42028C3.34824 6.62375 2.76562 8.16561 2.76562 9.88107C2.76562 11.7937 3.31881 13.362 4.41047 14.5449C5.54921 15.7807 6.90863 16.3545 8.69177 16.3545C9.73046 16.3545 10.7221 16.0456 11.6401 15.4394C12.2345 15.0481 12.7759 14.5037 13.2879 13.8005C13.5027 14.4949 13.7205 14.9716 13.9794 15.3276C14.3972 15.9014 15.0269 16.2309 15.7007 16.2309C16.404 16.2309 17.0455 15.872 17.3721 15.2923C17.6634 14.7774 17.7811 14.1418 17.7811 13.0943V12.4587H16.3746ZM10.8721 13.6769C10.3749 14.4066 9.72458 14.7891 8.9919 14.7891C8.13859 14.7891 7.49418 14.4066 7.02044 13.618C6.52317 12.7912 6.27011 11.5524 6.27011 9.93404C6.27011 8.45103 6.53788 7.2711 7.06458 6.42955C7.55892 5.63803 8.17978 5.27022 9.01544 5.27022C9.75989 5.27022 10.3425 5.57918 10.8486 6.24712C11.39 6.96214 11.849 8.14501 12.1757 9.66333C11.7637 11.7201 11.3606 12.9618 10.8721 13.6769Z" fill="#5F677A"/>
<path d="M30.0761 4.12559C29.8495 3.10455 29.2051 2.38953 27.7898 2.38953C26.4598 2.38953 25.7301 3.10161 25.5035 4.12559L24.4766 8.75116H25.5741C25.8242 8.75116 26.0743 8.55107 26.1273 8.30684L26.3362 7.36525H29.2463L29.4552 8.30684C29.5082 8.55107 29.7583 8.75116 30.0084 8.75116H31.106L30.0761 4.12559ZM26.6216 6.06174L26.9836 4.42278C27.0424 4.15795 27.2484 3.75189 27.7898 3.75189C28.3312 3.75189 28.5372 4.15795 28.596 4.42278L28.958 6.06174H26.6216Z" fill="#D70926"/>
<path d="M30.0761 4.12559C29.8495 3.10455 29.2051 2.38953 27.7898 2.38953C26.4598 2.38953 25.7301 3.10161 25.5035 4.12559L24.4766 8.75116H25.5741C25.8242 8.75116 26.0743 8.55107 26.1273 8.30684L26.3362 7.36525H29.2463L29.4552 8.30684C29.5082 8.55107 29.7583 8.75116 30.0084 8.75116H31.106L30.0761 4.12559ZM26.6216 6.06174L26.9836 4.42278C27.0424 4.15795 27.2484 3.75189 27.7898 3.75189C28.3312 3.75189 28.5372 4.15795 28.596 4.42278L28.958 6.06174H26.6216Z" fill="white"/>
<path d="M33.8091 3.93404H36.2572V8.75087H37.7726V2.53931H33.2C32.6998 2.53931 32.2908 2.94831 32.2908 3.44853V6.58815C32.2908 7.00893 32.0966 7.27375 31.7611 7.34143L31.4492 7.41499L31.7317 8.74793H32.0201C33.0588 8.74793 33.8061 7.977 33.8061 6.66171V3.93404" fill="#D70926"/>
<path d="M33.8091 3.93404H36.2572V8.75087H37.7726V2.53931H33.2C32.6998 2.53931 32.2908 2.94831 32.2908 3.44853V6.58815C32.2908 7.00893 32.0966 7.27375 31.7611 7.34143L31.4492 7.41499L31.7317 8.74793H32.0201C33.0588 8.74793 33.8061 7.977 33.8061 6.66171V3.93404" fill="white"/>
<path d="M50.9514 2.53951H50.3982V1.8186H49.336C49.0859 1.8186 48.8799 2.02163 48.8799 2.27175V2.53951H48.3267C46.4524 2.53951 45.2812 3.81654 45.2812 5.64382C45.2812 7.47404 46.4524 8.75108 48.3267 8.75108H48.8799V9.50435H49.9421C50.1922 9.50435 50.3982 9.29838 50.3982 9.05121V8.75108H50.9514C52.8258 8.75108 53.9969 7.47404 53.9969 5.64382C53.9969 3.81949 52.8258 2.53951 50.9514 2.53951ZM48.3297 7.37988C47.291 7.37988 46.7996 6.72371 46.7996 5.64382C46.7996 4.56688 47.291 3.9107 48.3297 3.9107H48.8828V7.37988H48.3297ZM50.9514 7.37988H50.3982V3.91365H50.9514C51.9901 3.91365 52.4785 4.56982 52.4785 5.64676C52.4785 6.72371 51.9872 7.37988 50.9514 7.37988Z" fill="#D70926"/>
<path d="M50.9514 2.53951H50.3982V1.8186H49.336C49.0859 1.8186 48.8799 2.02163 48.8799 2.27175V2.53951H48.3267C46.4524 2.53951 45.2812 3.81654 45.2812 5.64382C45.2812 7.47404 46.4524 8.75108 48.3267 8.75108H48.8799V9.50435H49.9421C50.1922 9.50435 50.3982 9.29838 50.3982 9.05121V8.75108H50.9514C52.8258 8.75108 53.9969 7.47404 53.9969 5.64382C53.9969 3.81949 52.8258 2.53951 50.9514 2.53951ZM48.3297 7.37988C47.291 7.37988 46.7996 6.72371 46.7996 5.64382C46.7996 4.56688 47.291 3.9107 48.3297 3.9107H48.8828V7.37988H48.3297ZM50.9514 7.37988H50.3982V3.91365H50.9514C51.9901 3.91365 52.4785 4.56982 52.4785 5.64676C52.4785 6.72371 51.9872 7.37988 50.9514 7.37988Z" fill="white"/>
<path d="M42.478 4.1167H40.3005V2.54248H38.7852V8.29796C38.7852 8.54807 38.9911 8.75405 39.2412 8.75405H42.478C43.7991 8.75405 44.7966 7.75949 44.7966 6.43538C44.7966 5.11126 43.961 4.1167 42.478 4.1167ZM42.478 7.35931H40.3005V5.51144H42.478C42.8487 5.51144 43.2783 5.841 43.2783 6.43538C43.2813 7.02681 42.8487 7.35931 42.478 7.35931Z" fill="#D70926"/>
<path d="M42.478 4.1167H40.3005V2.54248H38.7852V8.29796C38.7852 8.54807 38.9911 8.75405 39.2412 8.75405H42.478C43.7991 8.75405 44.7966 7.75949 44.7966 6.43538C44.7966 5.11126 43.961 4.1167 42.478 4.1167ZM42.478 7.35931H40.3005V5.51144H42.478C42.8487 5.51144 43.2783 5.841 43.2783 6.43538C43.2813 7.02681 42.8487 7.35931 42.478 7.35931Z" fill="white"/>
<path d="M59.6542 4.12559C59.4276 3.10455 58.7832 2.38953 57.3679 2.38953C56.0379 2.38953 55.3082 3.10161 55.0816 4.12559L54.0547 8.75116H55.1522C55.4023 8.75116 55.6525 8.55107 55.7054 8.30684L55.9143 7.36525H58.8244L59.0304 8.30684C59.0834 8.55107 59.3335 8.75116 59.5836 8.75116H60.6811L59.6542 4.12559ZM56.1998 6.06174L56.5617 4.42278C56.6205 4.15795 56.8265 3.75189 57.3679 3.75189C57.9093 3.75189 58.1153 4.15795 58.1742 4.42278L58.5361 6.06174H56.1998Z" fill="#D70926"/>
<path d="M59.6542 4.12559C59.4276 3.10455 58.7832 2.38953 57.3679 2.38953C56.0379 2.38953 55.3082 3.10161 55.0816 4.12559L54.0547 8.75116H55.1522C55.4023 8.75116 55.6525 8.55107 55.7054 8.30684L55.9143 7.36525H58.8244L59.0304 8.30684C59.0834 8.55107 59.3335 8.75116 59.5836 8.75116H60.6811L59.6542 4.12559ZM56.1998 6.06174L56.5617 4.42278C56.6205 4.15795 56.8265 3.75189 57.3679 3.75189C57.9093 3.75189 58.1153 4.15795 58.1742 4.42278L58.5361 6.06174H56.1998Z" fill="white"/>
<path d="M68.4426 14.2474C68.7104 13.9855 68.8811 13.6265 68.8811 13.1292C68.8811 12.0287 68.0278 11.2578 66.9273 11.2578H63.2198C62.9696 11.2578 62.7637 11.4608 62.7637 11.711V17.0133C62.7637 17.2634 62.9696 17.4664 63.2198 17.4664H67.1627C68.3249 17.4664 69.0959 16.6367 69.0959 15.5332C69.0959 14.983 68.8311 14.5475 68.4426 14.2474ZM66.9273 12.5466C67.1274 12.5466 67.404 12.7732 67.404 13.1587C67.404 13.5471 67.1274 13.7471 66.9273 13.7707H64.2526V12.5466H66.9273ZM67.0479 16.1806H64.2526V14.9565H67.0479C67.2509 14.98 67.5246 15.1801 67.5246 15.5685C67.5246 15.954 67.2509 16.1806 67.0479 16.1806Z" fill="#D70926"/>
<path d="M68.4426 14.2474C68.7104 13.9855 68.8811 13.6265 68.8811 13.1292C68.8811 12.0287 68.0278 11.2578 66.9273 11.2578H63.2198C62.9696 11.2578 62.7637 11.4608 62.7637 11.711V17.0133C62.7637 17.2634 62.9696 17.4664 63.2198 17.4664H67.1627C68.3249 17.4664 69.0959 16.6367 69.0959 15.5332C69.0959 14.983 68.8311 14.5475 68.4426 14.2474ZM66.9273 12.5466C67.1274 12.5466 67.404 12.7732 67.404 13.1587C67.404 13.5471 67.1274 13.7471 66.9273 13.7707H64.2526V12.5466H66.9273ZM67.0479 16.1806H64.2526V14.9565H67.0479C67.2509 14.98 67.5246 15.1801 67.5246 15.5685C67.5246 15.954 67.2509 16.1806 67.0479 16.1806Z" fill="white"/>
<path d="M58.4259 11.1136C56.5516 11.1136 55.2422 12.4495 55.2422 14.3621C55.2422 16.2747 56.5516 17.6106 58.4259 17.6106H58.9438C60.8182 17.6106 62.1276 16.2747 62.1276 14.3621C62.1276 12.4495 60.8182 11.1136 58.9438 11.1136H58.4259ZM56.8782 14.3621C56.8782 13.2499 57.4726 12.3966 58.5172 12.3966H58.8555C59.9001 12.3966 60.4945 13.2499 60.4945 14.3621C60.4945 15.4773 59.9001 16.3277 58.8555 16.3277H58.5172C57.4726 16.3277 56.8782 15.4773 56.8782 14.3621Z" fill="#D70926"/>
<path d="M58.4259 11.1136C56.5516 11.1136 55.2422 12.4495 55.2422 14.3621C55.2422 16.2747 56.5516 17.6106 58.4259 17.6106H58.9438C60.8182 17.6106 62.1276 16.2747 62.1276 14.3621C62.1276 12.4495 60.8182 11.1136 58.9438 11.1136H58.4259ZM56.8782 14.3621C56.8782 13.2499 57.4726 12.3966 58.5172 12.3966H58.8555C59.9001 12.3966 60.4945 13.2499 60.4945 14.3621C60.4945 15.4773 59.9001 16.3277 58.8555 16.3277H58.5172C57.4726 16.3277 56.8782 15.4773 56.8782 14.3621Z" fill="white"/>
<path d="M30.125 11.2551L30.3251 12.1938C30.3781 12.4439 30.6252 12.6499 30.8783 12.6499H32.2907V17.4667H33.806V12.6499H35.1743C35.4244 12.6499 35.6716 12.4468 35.7245 12.1938L35.9246 11.2551H30.125Z" fill="#D70926"/>
<path d="M30.125 11.2551L30.3251 12.1938C30.3781 12.4439 30.6252 12.6499 30.8783 12.6499H32.2907V17.4667H33.806V12.6499H35.1743C35.4244 12.6499 35.6716 12.4468 35.7245 12.1938L35.9246 11.2551H30.125Z" fill="white"/>
<path d="M81.2069 11.2551V13.7239H78.2556V11.2551H76.7402V17.4696H78.2556V15.0539H81.2069V17.4696H82.7223V11.2551H81.2069Z" fill="#D70926"/>
<path d="M81.2069 11.2551V13.7239H78.2556V11.2551H76.7402V17.4696H78.2556V15.0539H81.2069V17.4696H82.7223V11.2551H81.2069Z" fill="white"/>
<path d="M47.7753 12.844C47.5487 11.82 46.9043 11.1079 45.489 11.1079C44.159 11.1079 43.4293 11.82 43.2027 12.844L42.1758 17.4695H43.2733C43.5234 17.4695 43.7735 17.2695 43.8265 17.0252L44.0325 16.0836H46.9426L47.1515 17.0252C47.2045 17.2695 47.4546 17.4695 47.7047 17.4695H48.8022L47.7753 12.844ZM44.3238 14.7801L44.6857 13.1412C44.7446 12.8763 44.9505 12.4703 45.4919 12.4703C46.0334 12.4703 46.2393 12.8763 46.2982 13.1412L46.6601 14.7772H44.3238V14.7801Z" fill="#D70926"/>
<path d="M47.7753 12.844C47.5487 11.82 46.9043 11.1079 45.489 11.1079C44.159 11.1079 43.4293 11.82 43.2027 12.844L42.1758 17.4695H43.2733C43.5234 17.4695 43.7735 17.2695 43.8265 17.0252L44.0325 16.0836H46.9426L47.1515 17.0252C47.2045 17.2695 47.4546 17.4695 47.7047 17.4695H48.8022L47.7753 12.844ZM44.3238 14.7801L44.6857 13.1412C44.7446 12.8763 44.9505 12.4703 45.4919 12.4703C46.0334 12.4703 46.2393 12.8763 46.2982 13.1412L46.6601 14.7772H44.3238V14.7801Z" fill="white"/>
<path d="M75.0429 12.844C74.8163 11.82 74.1719 11.1079 72.7566 11.1079C71.4266 11.1079 70.6969 11.82 70.4703 12.844L69.4434 17.4695H70.5409C70.791 17.4695 71.0411 17.2695 71.0941 17.0252L71.303 16.0836H74.2131L74.422 17.0252C74.475 17.2695 74.7251 17.4695 74.9752 17.4695H76.0757L75.0429 12.844ZM71.5884 14.7801L71.9503 13.1412C72.0092 12.8763 72.2152 12.4703 72.7566 12.4703C73.298 12.4703 73.504 12.8763 73.5628 13.1412L73.9248 14.7772H71.5884V14.7801Z" fill="#D70926"/>
<path d="M75.0429 12.844C74.8163 11.82 74.1719 11.1079 72.7566 11.1079C71.4266 11.1079 70.6969 11.82 70.4703 12.844L69.4434 17.4695H70.5409C70.791 17.4695 71.0411 17.2695 71.0941 17.0252L71.303 16.0836H74.2131L74.422 17.0252C74.475 17.2695 74.7251 17.4695 74.9752 17.4695H76.0757L75.0429 12.844ZM71.5884 14.7801L71.9503 13.1412C72.0092 12.8763 72.2152 12.4703 72.7566 12.4703C73.298 12.4703 73.504 12.8763 73.5628 13.1412L73.9248 14.7772H71.5884V14.7801Z" fill="white"/>
<path d="M30.5984 17.4517V17.4694H27.6353C25.8404 17.4694 24.5898 16.1923 24.5898 14.3621C24.5898 12.5348 25.8433 11.2578 27.6353 11.2578H29.8834L29.6627 12.2112C29.6068 12.4554 29.3567 12.6525 29.1065 12.6525H27.6353C26.6761 12.6525 26.1052 13.3676 26.1052 14.3651C26.1052 15.3626 26.6761 16.0776 27.6353 16.0776H29.8245C30.0746 16.0776 30.3247 16.2777 30.3806 16.5219L30.5984 17.4517Z" fill="#D70926"/>
<path d="M30.5984 17.4517V17.4694H27.6353C25.8404 17.4694 24.5898 16.1923 24.5898 14.3621C24.5898 12.5348 25.8433 11.2578 27.6353 11.2578H29.8834L29.6627 12.2112C29.6068 12.4554 29.3567 12.6525 29.1065 12.6525H27.6353C26.6761 12.6525 26.1052 13.3676 26.1052 14.3651C26.1052 15.3626 26.6761 16.0776 27.6353 16.0776H29.8245C30.0746 16.0776 30.3247 16.2777 30.3806 16.5219L30.5984 17.4517Z" fill="white"/>
<path d="M39.9916 11.2551H36.7549C36.5048 11.2551 36.2988 11.4611 36.2988 11.7083V17.4667H37.8142V15.8895H39.9887C41.4717 15.8895 42.3074 14.892 42.3074 13.5709C42.3103 12.2526 41.3157 11.2551 39.9916 11.2551ZM39.9916 14.4977H37.8171V12.6528H39.9916C40.3624 12.6528 40.7949 12.9824 40.7949 13.5767C40.7949 14.1682 40.3624 14.4977 39.9916 14.4977Z" fill="#D70926"/>
<path d="M39.9916 11.2551H36.7549C36.5048 11.2551 36.2988 11.4611 36.2988 11.7083V17.4667H37.8142V15.8895H39.9887C41.4717 15.8895 42.3074 14.892 42.3074 13.5709C42.3103 12.2526 41.3157 11.2551 39.9916 11.2551ZM39.9916 14.4977H37.8171V12.6528H39.9916C40.3624 12.6528 40.7949 12.9824 40.7949 13.5767C40.7949 14.1682 40.3624 14.4977 39.9916 14.4977Z" fill="white"/>
<path d="M95.5774 16.1573H92.3113V14.9656H95.8629V13.7651H92.3113V12.5675H95.5774C95.8452 12.5675 96.06 12.4498 96.1336 12.1232L96.3366 11.2551H91.249C90.9989 11.2551 90.793 11.4582 90.793 11.7112V17.0136C90.793 17.2637 90.9989 17.4696 91.249 17.4696H96.3366L96.1336 16.6016C96.06 16.275 95.8481 16.1573 95.5774 16.1573Z" fill="#D70926"/>
<path d="M95.5774 16.1573H92.3113V14.9656H95.8629V13.7651H92.3113V12.5675H95.5774C95.8452 12.5675 96.06 12.4498 96.1336 12.1232L96.3366 11.2551H91.249C90.9989 11.2551 90.793 11.4582 90.793 11.7112V17.0136C90.793 17.2637 90.9989 17.4696 91.249 17.4696H96.3366L96.1336 16.6016C96.06 16.275 95.8481 16.1573 95.5774 16.1573Z" fill="white"/>
<path d="M83.7637 17.4694V11.2578H85.2791V15.3537L87.9067 11.6227C88.0538 11.4226 88.3804 11.2578 88.6305 11.2578H89.7546V17.4694H88.2392V13.3705L85.6115 17.1016C85.4644 17.3046 85.1378 17.4694 84.8877 17.4694H83.7637Z" fill="#D70926"/>
<path d="M83.7637 17.4694V11.2578H85.2791V15.3537L87.9067 11.6227C88.0538 11.4226 88.3804 11.2578 88.6305 11.2578H89.7546V17.4694H88.2392V13.3705L85.6115 17.1016C85.4644 17.3046 85.1378 17.4694 84.8877 17.4694H83.7637Z" fill="white"/>
<path d="M53.3783 14.3298L55.4939 11.2578H54.1021C53.802 11.2578 53.5901 11.349 53.4018 11.6403L52.2748 13.4117H52.0747L50.9448 11.6403C50.7595 11.349 50.5476 11.2578 50.2445 11.2578H48.8086L50.9713 14.3974L48.8557 17.4694H50.2475C50.5505 17.4694 50.7624 17.3782 50.9478 17.0869L52.0777 15.3155H52.2778L53.4047 17.0869C53.5901 17.3782 53.802 17.4694 54.105 17.4694H55.5439L53.3783 14.3298Z" fill="#D70926"/>
<path d="M53.3783 14.3298L55.4939 11.2578H54.1021C53.802 11.2578 53.5901 11.349 53.4018 11.6403L52.2748 13.4117H52.0747L50.9448 11.6403C50.7595 11.349 50.5476 11.2578 50.2445 11.2578H48.8086L50.9713 14.3974L48.8557 17.4694H50.2475C50.5505 17.4694 50.7624 17.3782 50.9478 17.0869L52.0777 15.3155H52.2778L53.4047 17.0869C53.5901 17.3782 53.802 17.4694 54.105 17.4694H55.5439L53.3783 14.3298Z" fill="white"/>
</svg>
