<svg width="101" height="20" viewBox="0 0 101 20" fill="none" xmlns="http://www.w3.org/2000/svg">
<path d="M15.5321 9.15585C15.4736 10.9482 15.2434 11.3061 14.2383 11.3061V13.5589H14.6128C17.1174 13.5589 17.7194 12.261 17.812 9.37716L17.9142 6.1859H20.2621V13.5589H22.7123V3.95093H15.7024L15.5321 9.15585Z" fill="#EF3124"/>
<path d="M15.5321 9.15585C15.4736 10.9482 15.2434 11.3061 14.2383 11.3061V13.5589H14.6128C17.1174 13.5589 17.7194 12.261 17.812 9.37716L17.9142 6.1859H20.2621V13.5589H22.7123V3.95093H15.7024L15.5321 9.15585Z" fill="white"/>
<path d="M28.8033 6.86884H27.0341V3.95081H24.584V13.5587H28.8373C31.5094 13.5587 32.4614 11.8183 32.4614 10.1789C32.4614 8.06283 31.1335 6.86747 28.8033 6.86747M28.6167 11.4412H27.0341V8.99999H28.6167C29.4679 8.99999 29.9773 9.37567 29.9773 10.1776C29.9773 11.0478 29.4842 11.4412 28.6167 11.4412Z" fill="#EF3124"/>
<path d="M28.8033 6.86884H27.0341V3.95081H24.584V13.5587H28.8373C31.5094 13.5587 32.4614 11.8183 32.4614 10.1789C32.4614 8.06283 31.1335 6.86747 28.8033 6.86747M28.6167 11.4412H27.0341V8.99999H28.6167C29.4679 8.99999 29.9773 9.37567 29.9773 10.1776C29.9773 11.0478 29.4842 11.4412 28.6167 11.4412Z" fill="white"/>
<path d="M40.441 3.72819V0.161255H37.9909V3.72819C35.1839 3.96727 33.2949 5.96453 33.2949 8.74595C33.2949 11.5274 35.1839 13.5424 37.9909 13.7815V17.4003H40.441V13.7815C43.248 13.5602 45.137 11.5451 45.137 8.74595C45.137 5.94677 43.248 3.94951 40.441 3.72819ZM37.9909 11.4604C36.6303 11.2719 35.7791 10.2487 35.7791 8.74732C35.7791 7.24595 36.6303 6.22136 37.9909 6.03421V11.4618V11.4604ZM40.441 11.4604V6.03284C41.8016 6.22 42.6528 7.24459 42.6528 8.74595C42.6528 10.2473 41.8016 11.2719 40.441 11.4591" fill="#EF3124"/>
<path d="M40.441 3.72819V0.161255H37.9909V3.72819C35.1839 3.96727 33.2949 5.96453 33.2949 8.74595C33.2949 11.5274 35.1839 13.5424 37.9909 13.7815V17.4003H40.441V13.7815C43.248 13.5602 45.137 11.5451 45.137 8.74595C45.137 5.94677 43.248 3.94951 40.441 3.72819ZM37.9909 11.4604C36.6303 11.2719 35.7791 10.2487 35.7791 8.74732C35.7791 7.24595 36.6303 6.22136 37.9909 6.03421V11.4618V11.4604ZM40.441 11.4604V6.03284C41.8016 6.22 42.6528 7.24459 42.6528 8.74595C42.6528 10.2473 41.8016 11.2719 40.441 11.4591" fill="white"/>
<path d="M54.3262 10.6066V7.38118C54.3262 5.02599 52.8294 3.54102 50.3112 3.54102C47.793 3.54102 46.3303 5.11205 46.2104 6.75003H48.6946C48.779 6.39211 49.1536 5.77735 50.3112 5.77735C51.2646 5.77735 51.8761 6.22134 51.8761 7.38118H49.4423C47.2645 7.38118 45.9707 8.52462 45.9707 10.4358C45.9707 12.347 47.3858 13.7978 49.4246 13.7978C50.92 13.7978 51.7508 13.0888 52.113 12.5519C52.4358 13.2009 53.1508 13.5588 54.0865 13.5588H54.9377V11.3402C54.4951 11.3402 54.3248 11.1353 54.3248 10.6066M51.8747 9.97544C51.8747 11.0847 51.0916 11.7159 50.0715 11.7159C49.1862 11.7159 48.4889 11.3921 48.4889 10.4358C48.4889 9.47954 49.2543 9.3443 49.9176 9.3443H51.8747V9.97544Z" fill="#EF3124"/>
<path d="M54.3262 10.6066V7.38118C54.3262 5.02599 52.8294 3.54102 50.3112 3.54102C47.793 3.54102 46.3303 5.11205 46.2104 6.75003H48.6946C48.779 6.39211 49.1536 5.77735 50.3112 5.77735C51.2646 5.77735 51.8761 6.22134 51.8761 7.38118H49.4423C47.2645 7.38118 45.9707 8.52462 45.9707 10.4358C45.9707 12.347 47.3858 13.7978 49.4246 13.7978C50.92 13.7978 51.7508 13.0888 52.113 12.5519C52.4358 13.2009 53.1508 13.5588 54.0865 13.5588H54.9377V11.3402C54.4951 11.3402 54.3248 11.1353 54.3248 10.6066M51.8747 9.97544C51.8747 11.0847 51.0916 11.7159 50.0715 11.7159C49.1862 11.7159 48.4889 11.3921 48.4889 10.4358C48.4889 9.47954 49.2543 9.3443 49.9176 9.3443H51.8747V9.97544Z" fill="white"/>
<path d="M64.825 5.3155H62.0862V2.60239H68.4328V0.161133H59.5176V13.5587H64.8264C67.7696 13.5587 69.4543 12.0915 69.4543 9.39474C69.4543 6.85239 67.7696 5.3155 64.8264 5.3155M64.7079 11.1352H62.0876V7.65294H64.7079C66.0685 7.65294 66.8353 8.28408 66.8353 9.39337C66.8353 10.5027 66.0699 11.1338 64.7079 11.1338" fill="#EF3124"/>
<path d="M64.825 5.3155H62.0862V2.60239H68.4328V0.161133H59.5176V13.5587H64.8264C67.7696 13.5587 69.4543 12.0915 69.4543 9.39474C69.4543 6.85239 67.7696 5.3155 64.8264 5.3155M64.7079 11.1352H62.0876V7.65294H64.7079C66.0685 7.65294 66.8353 8.28408 66.8353 9.39337C66.8353 10.5027 66.0699 11.1338 64.7079 11.1338" fill="white"/>
<path d="M78.8281 10.6066V7.38118C78.8281 5.02599 77.3314 3.54102 74.8132 3.54102C72.2949 3.54102 70.8322 5.11205 70.7124 6.75003H73.1965C73.281 6.39211 73.6555 5.77735 74.8132 5.77735C75.7665 5.77735 76.378 6.22134 76.378 7.38118H73.9442C71.7665 7.38118 70.4727 8.52462 70.4727 10.4358C70.4727 12.347 71.8877 13.7978 73.9265 13.7978C75.4219 13.7978 76.2527 13.0888 76.615 12.5519C76.9378 13.2009 77.6528 13.5588 78.5884 13.5588H79.4397V11.3402C78.997 11.3402 78.8268 11.1353 78.8268 10.6066M76.3767 9.97544C76.3767 11.0847 75.5935 11.7159 74.5735 11.7159C73.6882 11.7159 72.9909 11.3921 72.9909 10.4358C72.9909 9.47954 73.7563 9.3443 74.4196 9.3443H76.3767V9.97544Z" fill="#EF3124"/>
<path d="M78.8281 10.6066V7.38118C78.8281 5.02599 77.3314 3.54102 74.8132 3.54102C72.2949 3.54102 70.8322 5.11205 70.7124 6.75003H73.1965C73.281 6.39211 73.6555 5.77735 74.8132 5.77735C75.7665 5.77735 76.378 6.22134 76.378 7.38118H73.9442C71.7665 7.38118 70.4727 8.52462 70.4727 10.4358C70.4727 12.347 71.8877 13.7978 73.9265 13.7978C75.4219 13.7978 76.2527 13.0888 76.615 12.5519C76.9378 13.2009 77.6528 13.5588 78.5884 13.5588H79.4397V11.3402C78.997 11.3402 78.8268 11.1353 78.8268 10.6066M76.3767 9.97544C76.3767 11.0847 75.5935 11.7159 74.5735 11.7159C73.6882 11.7159 72.9909 11.3921 72.9909 10.4358C72.9909 9.47954 73.7563 9.3443 74.4196 9.3443H76.3767V9.97544Z" fill="white"/>
<path d="M14.0862 17.2692H0.984375V20H14.0862V17.2692Z" fill="#EF3124"/>
<path d="M14.0862 17.2692H0.984375V20H14.0862V17.2692Z" fill="white"/>
<path d="M9.91642 2C9.54189 0.882514 9.11152 0 7.63654 0C6.16156 0 5.70259 0.878415 5.31035 2L1.25586 13.5587H3.94432L4.87998 10.8115H10.0526L10.9202 13.5587H13.7789L9.91642 2ZM5.66309 8.49044L7.50034 3.0123H7.56844L9.30355 8.49044H5.66173H5.66309Z" fill="#EF3124"/>
<path d="M9.91642 2C9.54189 0.882514 9.11152 0 7.63654 0C6.16156 0 5.70259 0.878415 5.31035 2L1.25586 13.5587H3.94432L4.87998 10.8115H10.0526L10.9202 13.5587H13.7789L9.91642 2ZM5.66309 8.49044L7.50034 3.0123H7.56844L9.30355 8.49044H5.66173H5.66309Z" fill="white"/>
<path d="M96.8125 3.95068L93.4267 7.75669V3.95068H90.9766V13.5586H93.4267V9.51353L97.0508 13.5586H100.216L95.7583 8.52445L99.8932 3.95068H96.8125Z" fill="#EF3124"/>
<path d="M96.8125 3.95068L93.4267 7.75669V3.95068H90.9766V13.5586H93.4267V9.51353L97.0508 13.5586H100.216L95.7583 8.52445L99.8932 3.95068H96.8125Z" fill="white"/>
<path d="M86.6556 7.53414H83.2698V3.95081H80.8184V13.5587H83.2698V9.77048H86.6556V13.5587H89.1058V3.95081H86.6556V7.53414Z" fill="#EF3124"/>
<path d="M86.6556 7.53414H83.2698V3.95081H80.8184V13.5587H83.2698V9.77048H86.6556V13.5587H89.1058V3.95081H86.6556V7.53414Z" fill="white"/>
</svg>
