<svg width="27" height="26" viewBox="0 0 27 26" fill="none" xmlns="http://www.w3.org/2000/svg">
<path fill-rule="evenodd" clip-rule="evenodd" d="M8.44677 0H19.0951C23.4093 0 26.9188 3.46946 26.9188 7.73458V18.2654C26.9188 22.5305 23.4093 26 19.0951 26H8.44677C4.1325 26 0.623047 22.5305 0.623047 18.2654V7.73458C0.623047 3.46946 4.1325 0 8.44677 0ZM12.3613 19.2264C13.3248 19.2264 14.1799 18.7291 14.8338 17.7805C15.4761 16.8509 16.0062 15.2367 16.544 12.5629C16.1145 10.5891 15.5109 9.05131 14.799 8.12179C14.1334 7.25346 13.3673 6.85181 12.3884 6.85181C11.2895 6.85181 10.4731 7.32996 9.82304 8.35895C9.13043 9.45296 8.77833 10.9869 8.77833 12.9148C8.77833 15.0187 9.11109 16.6291 9.765 17.704C10.3918 18.7291 11.2392 19.2264 12.3613 19.2264ZM22.0616 16.3116L22.0694 16.1968H23.9228V17.0231C23.9228 18.3849 23.768 19.2111 23.3849 19.8805C22.9554 20.6341 22.1119 21.1008 21.1872 21.1008C20.3011 21.1008 19.4731 20.6723 18.9236 19.9264C18.5831 19.4636 18.2968 18.8477 18.0143 17.9411C17.3411 18.8554 16.6291 19.563 15.8475 20.0718C14.6403 20.8598 13.3364 21.2614 11.9705 21.2614C9.6257 21.2614 7.83809 20.5155 6.34067 18.9089C4.90516 17.3712 4.17773 15.3285 4.17773 12.8459C4.17773 10.6158 4.94385 8.61142 6.39484 7.0469C7.85357 5.47091 9.69923 4.67526 11.8776 4.67526C13.4602 4.67526 14.768 5.1802 15.8785 6.21301C16.5169 6.80591 17.0896 7.65129 17.4494 8.41251C17.4591 8.43355 17.4678 8.45363 17.4765 8.47371C17.4852 8.4938 17.4939 8.51388 17.5036 8.53492C17.8634 6.84417 18.262 4.98511 18.262 4.98511H22.5801C22.5801 4.98511 20.305 12.911 19.5659 15.3859C19.8252 16.0974 20.0844 16.4875 20.3707 16.8127C20.6106 17.0843 20.9008 17.2182 21.2646 17.2182C21.7366 17.2182 22.0229 16.763 22.0616 16.3116Z" fill="#FFFFFF"/>
</svg>
