<svg width="170" height="170" viewBox="0 0 170 170" fill="none" xmlns="http://www.w3.org/2000/svg">
<path d="M123.9 169.8C149.25 169.8 169.8 149.25 169.8 123.9C169.8 98.5501 149.25 78 123.9 78C98.5501 78 78 98.5501 78 123.9C78 149.25 98.5501 169.8 123.9 169.8Z" fill="#97CF26"/>
<path d="M37.7 145.2C49.4637 145.2 59 135.664 59 123.9C59 112.136 49.4637 102.6 37.7 102.6C25.9364 102.6 16.4 112.136 16.4 123.9C16.4 135.664 25.9364 145.2 37.7 145.2Z" fill="#A169F7"/>
<path d="M123.9 67.1999C140.192 67.1999 153.4 53.9923 153.4 37.6999C153.4 21.4075 140.192 8.19995 123.9 8.19995C107.608 8.19995 94.4 21.4075 94.4 37.6999C94.4 53.9923 107.608 67.1999 123.9 67.1999Z" fill="#FF6163"/>
<path d="M37.7 75.4C58.5211 75.4 75.4 58.5211 75.4 37.7C75.4 16.8788 58.5211 0 37.7 0C16.8789 0 0 16.8788 0 37.7C0 58.5211 16.8789 75.4 37.7 75.4Z" fill="#00AAFF"/>
</svg>
