<svg width="27" height="27" viewBox="0 0 27 27" fill="none" xmlns="http://www.w3.org/2000/svg">
<path d="M19.8718 26.8999C23.7534 26.8999 26.9 23.7533 26.9 19.8717C26.9 15.99 23.7534 12.8434 19.8718 12.8434C15.9902 12.8434 12.8435 15.99 12.8435 19.8717C12.8435 23.7533 15.9902 26.8999 19.8718 26.8999Z" fill="#B5BFBF"/>
<path d="M6.67274 23.1331C8.47401 23.1331 9.93422 21.6729 9.93422 19.8716C9.93422 18.0703 8.47401 16.6101 6.67274 16.6101C4.87147 16.6101 3.41125 18.0703 3.41125 19.8716C3.41125 21.6729 4.87147 23.1331 6.67274 23.1331Z" fill="#B5BFBF"/>
<path d="M19.8718 11.1897C22.3665 11.1897 24.3889 9.16731 24.3889 6.67259C24.3889 4.17788 22.3665 2.15552 19.8718 2.15552C17.3771 2.15552 15.3547 4.17788 15.3547 6.67259C15.3547 9.16731 17.3771 11.1897 19.8718 11.1897Z" fill="#B5BFBF"/>
<path d="M6.6727 12.4452C9.86086 12.4452 12.4454 9.86073 12.4454 6.67257C12.4454 3.48441 9.86086 0.899902 6.6727 0.899902C3.48454 0.899902 0.900024 3.48441 0.900024 6.67257C0.900024 9.86073 3.48454 12.4452 6.6727 12.4452Z" fill="#B5BFBF"/>
</svg>
