<svg width="100" height="16" viewBox="0 0 100 16" fill="none" xmlns="http://www.w3.org/2000/svg">
<g clip-path="url(#clip0_3071_998)">
<path fill-rule="evenodd" clip-rule="evenodd" d="M4.92913 3.24205C9.99171 1.00428 17.6074 8.28409 21.2889 1.86148C13.2557 4.07922 9.134 -2.71985 4.92913 3.24205ZM3.52751 8.40992C8.59009 6.1927 16.2263 13.4725 19.8873 7.02935C11.8751 9.26763 7.75343 2.46856 3.52751 8.40992ZM2.35547 13.87C7.39751 11.6528 15.0338 18.9326 18.6942 12.4895C10.682 14.7277 6.56085 7.92867 2.35547 13.87ZM28.3181 8.8701C27.6489 8.38835 26.9165 8.09559 26.1425 7.99133C25.9961 7.97027 25.8497 7.97027 25.7033 7.94922H24.9298C24.8461 7.94922 24.7835 7.94922 24.7208 7.97027H24.5744L24.7208 7.44743L25.9339 3.2215H26.6037C26.7501 3.2215 26.9385 3.24205 27.1686 3.2631C27.3777 3.28416 27.6078 3.30522 27.8379 3.36788C28.2354 3.47265 28.5908 3.70275 28.9262 4.03762C29.24 4.35092 29.449 4.87428 29.5328 5.58562H29.9092L30.8085 2.53122H21.9165L21.7702 2.99141H21.9792C22.272 2.99141 22.5442 3.03352 22.7737 3.11724C23.0038 3.20096 23.1297 3.38894 23.1297 3.6822C23.1297 3.72432 23.1086 3.78698 23.1086 3.84964C23.0846 3.93118 23.0706 4.01535 23.067 4.10028C23.067 4.14239 23.046 4.16345 23.046 4.16345V4.20505C23.0038 4.28877 23.0038 4.35143 22.9833 4.4146C22.9833 4.47726 22.9622 4.51938 22.9412 4.54043L20.5144 13.0128C20.3891 13.4946 20.2006 13.8705 19.991 14.1427C19.761 14.4355 19.3634 14.5608 18.7569 14.5608H18.422L18.2967 15.0421H24.7198C25.9329 15.0005 26.9581 14.6661 27.8784 14.059C28.8199 13.4309 29.3016 12.4689 29.3016 11.2137C29.3016 10.1254 28.9878 9.35135 28.3181 8.8701ZM25.6823 13.4304C25.3685 13.7021 25.0547 13.9121 24.7198 14.0585C24.327 14.242 23.898 14.3349 23.4645 14.3302H23.2971C23.2344 14.3302 23.1713 14.3302 23.1297 14.3097H22.9412C22.8875 14.2882 22.8312 14.274 22.7737 14.2676L24.3639 8.68161C24.4055 8.66056 24.4681 8.66056 24.5313 8.66056H24.7824C25.2426 8.68161 25.6823 8.80693 26.0793 9.07914C26.4768 9.32978 26.6653 9.85314 26.6653 10.6066C26.6658 11.904 26.331 12.8454 25.6823 13.4304ZM98.2348 14.5603C98.0253 14.5603 97.8578 14.4976 97.7109 14.3929C97.5656 14.2886 97.5024 13.9959 97.5024 13.4936V13.2424C97.5024 13.1797 97.5024 13.096 97.5235 12.9913L98.318 2.28058H97.8578L89.8667 12.7617C89.3228 13.473 88.8837 13.9332 88.5488 14.1633C88.2771 14.3513 88.0259 14.4766 87.8164 14.5182C87.5026 14.4555 87.2725 14.3097 87.105 14.1001C86.8984 13.8054 86.7231 13.4899 86.5822 13.1587C86.5822 13.1376 84.0291 7.38477 84.0291 7.38477L87.2509 4.35143C87.8159 3.78647 88.2971 3.43105 88.6736 3.26362C89.0506 3.07564 89.406 2.99192 89.6777 2.99192H89.7409L89.8662 2.53174H85.7656L85.6403 2.99192H85.7656C85.9541 2.99192 86.0794 3.03404 86.1426 3.11776C86.2468 3.20147 86.2889 3.30625 86.33 3.41051C86.3511 3.45262 86.3721 3.49422 86.3721 3.53634C86.3721 3.57845 86.3932 3.62006 86.3932 3.66217C86.3932 3.82909 86.33 3.99653 86.2468 4.16448C86.1426 4.31086 86.0583 4.43617 85.9541 4.54095C85.8909 4.60361 85.8498 4.66627 85.8077 4.70838C85.7445 4.74998 85.7034 4.77104 85.6613 4.81316L82.063 8.22296H81.9998L83.0671 4.54146C83.2135 3.9765 83.402 3.60003 83.6321 3.34888C83.8616 3.11878 84.2392 2.99346 84.8036 2.99346L84.9289 2.53328H79.4056L79.2803 2.99346H79.4688C79.929 2.99346 80.2433 3.05612 80.3897 3.18196C80.5561 3.28673 80.6193 3.47471 80.6193 3.68426C80.6193 3.83063 80.5982 3.95596 80.5772 4.10233C80.5361 4.24871 80.494 4.3956 80.4518 4.54197L78.0251 13.0144C77.8576 13.5588 77.6691 13.9558 77.439 14.207C77.3348 14.3323 77.1884 14.416 76.9999 14.4786C76.7904 14.5413 76.5608 14.5624 76.2886 14.5624H75.9537L75.8073 15.0436H81.5602L81.6865 14.5624H81.5813C81.1421 14.5624 80.8489 14.4997 80.6824 14.3949C80.5361 14.2696 80.4518 14.1022 80.4518 13.8716C80.4518 13.7462 80.4729 13.5999 80.494 13.4535C80.5361 13.3282 80.5772 13.1818 80.6193 13.0144L81.8119 8.91427H81.8529L83.7148 13.1823C83.7569 13.2871 83.799 13.3914 83.82 13.4751C83.8411 13.5793 83.8411 13.6636 83.8411 13.7468C83.8411 13.9979 83.7779 14.207 83.6315 14.3538C83.4852 14.5007 83.2756 14.5629 83.0034 14.5629H82.8581L82.6906 15.0441H91.2051L91.3515 14.5629H91.1209C90.8703 14.5629 90.6818 14.5002 90.577 14.4376C90.4517 14.3328 90.3885 14.2491 90.3474 14.1448C90.3474 14.0821 90.3264 14.04 90.3264 13.9984C90.3264 13.9563 90.3053 13.9147 90.3053 13.8726C90.3053 13.8099 90.3474 13.7262 90.3885 13.622C90.4306 13.5172 90.4727 13.4129 90.5559 13.3081C90.577 13.2665 90.5981 13.2455 90.6191 13.2039C90.6392 13.1618 90.6602 13.1407 90.6813 13.0991C90.7444 13.0154 90.7855 12.9527 90.8487 12.869C90.8908 12.8064 90.9319 12.7437 90.974 12.7021L92.0623 11.2578H95.0746L94.9493 12.9322C94.9296 13.3113 94.8518 13.6851 94.7187 14.0405C94.6144 14.2917 94.4049 14.4586 94.0495 14.5218C93.9115 14.5473 93.7717 14.5614 93.6314 14.5639H93.5271L93.3808 15.0452H98.297L98.4433 14.5639H98.2348V14.5603ZM95.1178 10.5434H92.6068L95.4095 6.84086H95.4727L95.1178 10.5434ZM73.7149 14.435C73.4853 14.3513 73.36 14.1633 73.36 13.8695C73.36 13.8069 73.3811 13.7021 73.4021 13.5768C73.4232 13.4514 73.4643 13.2635 73.5485 13.0118L75.9753 4.53941C76.1217 3.97444 76.3102 3.59797 76.5613 3.34682C76.6656 3.24205 76.8119 3.15884 77.0004 3.09567C77.2307 3.02404 77.4706 2.98869 77.7118 2.99089H78.0466L78.172 2.5307H72.4602L72.2938 2.99089H72.398C72.774 2.99089 73.0673 3.03301 73.2558 3.15833C73.4442 3.24153 73.5275 3.43003 73.5275 3.68118V3.78595C73.5275 3.84912 73.5064 3.91127 73.5064 3.95339C73.4853 4.01656 73.4853 4.05816 73.4643 4.12082V4.2256L67.1254 11.3179H67.0422L68.9872 4.53992C69.1336 4.07973 69.301 3.70326 69.5111 3.41C69.7407 3.1383 70.1382 2.99192 70.7448 2.99192H70.9543L71.0796 2.53174H65.3678L65.2004 2.99192H65.431C65.8701 2.99192 66.1634 3.05458 66.3309 3.18042C66.4772 3.28519 66.5604 3.47317 66.5604 3.68272C66.5604 3.82909 66.5394 3.95442 66.4973 4.10079C66.473 4.24963 66.4382 4.39655 66.393 4.54043L63.9662 13.0128C63.8198 13.5572 63.6314 13.9543 63.3802 14.2054C63.3181 14.2681 63.2549 14.3102 63.1707 14.3723C62.92 14.4982 62.6067 14.5608 62.2297 14.5608H61.8738L61.7485 15.0421H67.4813L67.6277 14.5608H67.5435C67.2307 14.5608 66.9574 14.5187 66.7279 14.4355C66.4973 14.3518 66.393 14.1638 66.393 13.87C66.393 13.8284 66.393 13.7658 66.414 13.7026C66.414 13.6404 66.4351 13.5567 66.4562 13.473V13.4309C66.4772 13.3893 66.4772 13.3682 66.4772 13.3682C66.4772 13.3056 66.4973 13.264 66.4973 13.2219C66.5183 13.1803 66.5394 13.1592 66.5394 13.1176L72.9204 5.83728H72.9835L70.9543 13.0128C70.7869 13.5572 70.5773 13.9543 70.3472 14.2054C70.0966 14.4355 69.7191 14.5608 69.1967 14.5608H68.9661L68.8408 15.0421H74.5737L74.72 14.5608H74.5105C74.2401 14.5644 73.971 14.5218 73.7149 14.435ZM63.1712 4.7695C63.2233 5.03834 63.2515 5.31128 63.2554 5.5851V6.06635H63.6314L64.5733 2.5307H55.3059L54.2386 6.06635H54.6156C54.9494 5.35501 55.4522 4.72738 56.1215 4.16242C56.7917 3.5764 57.5863 3.28365 58.4645 3.22099L55.6608 13.0113C55.6407 13.0323 55.6407 13.0534 55.6197 13.095C55.6197 13.1161 55.6197 13.1366 55.5986 13.1577C55.4733 13.5968 55.3059 13.9322 55.0958 14.1828C54.9083 14.434 54.4687 14.5593 53.8411 14.5593H53.3809L53.2345 15.0405H59.5734L59.6997 14.5593H59.2606C58.9468 14.5593 58.6535 14.4966 58.4229 14.434C58.1933 14.3502 58.0891 14.1623 58.0891 13.8685C58.0891 13.8479 58.0891 13.7853 58.1101 13.7011C58.1101 13.6178 58.1302 13.5552 58.1512 13.4504C58.1512 13.4294 58.1512 13.4088 58.1723 13.4088V13.3462C58.1933 13.2624 58.2144 13.1998 58.2144 13.1366C58.2354 13.0745 58.2354 13.0323 58.2555 13.0113L61.0592 3.22099H61.1845C61.7285 3.22099 62.2097 3.40897 62.6288 3.78595C62.8794 4.01656 63.0669 4.35091 63.1712 4.7695ZM53.9453 2.99141H54.2802L54.4266 2.53122H44.6157L44.4483 2.99141H44.72C45.0759 2.99141 45.3687 3.09618 45.5777 3.28416C45.8078 3.4932 45.9126 3.76541 45.9126 4.12082C45.9126 4.2672 45.8915 4.39303 45.8499 4.53941C45.8078 4.68578 45.7451 4.83216 45.7035 4.97854C45.7035 5.02065 45.6825 5.06225 45.6825 5.08331C45.6614 5.14597 45.6404 5.16703 45.6404 5.20863L45.1591 6.94512C45.0338 7.32159 44.908 7.78229 44.7621 8.28408C44.6157 8.78639 44.4483 9.28818 44.2803 9.83208C44.155 10.167 44.0503 10.5229 43.9249 10.8362C43.7991 11.171 43.6948 11.4849 43.569 11.7987C43.4437 12.0914 43.3389 12.3636 43.2346 12.6148C43.1088 12.8654 43.0046 13.096 42.8787 13.2635C42.8371 13.3677 42.7745 13.4304 42.7323 13.5141C42.6697 13.5978 42.6281 13.6815 42.5649 13.7442C42.471 13.8527 42.3658 13.9508 42.2511 14.037C42.1468 14.1207 42.0421 14.1417 41.9167 14.1417C41.7909 14.1417 41.6867 14.0996 41.6656 13.9953C41.6245 13.8813 41.6033 13.7611 41.6029 13.6399V13.5768V13.4936V13.4304C41.6029 13.4098 41.5819 13.3888 41.5819 13.3677V13.3472C41.5819 13.3261 41.5819 13.3261 41.5608 13.3051C41.5398 13.1376 41.4355 12.9707 41.2681 12.8028C41.1006 12.6569 40.8705 12.5727 40.5567 12.5727C40.2429 12.5727 39.9707 12.6774 39.7406 12.8865C39.5105 13.1166 39.3852 13.4098 39.3852 13.7863C39.3852 14.0791 39.4689 14.3302 39.5942 14.5603C39.4057 14.5393 39.2594 14.4976 39.113 14.3929C38.9666 14.2886 38.9034 13.9959 38.9034 13.4936V13.2424C38.9034 13.1797 38.9034 13.096 38.9245 12.9913L39.719 2.28058H39.2588L31.2466 12.7617C30.7022 13.473 30.2631 13.9332 29.9287 14.1633C29.9077 14.1838 29.8866 14.2049 29.845 14.2254C29.5523 14.4139 29.2801 14.5182 29.05 14.5603L28.9036 15.0416H32.6067L32.753 14.5603H32.523C32.2507 14.5603 32.0628 14.4976 31.958 14.435C31.8537 14.3302 31.77 14.2465 31.749 14.1422C31.7274 14.0796 31.7274 14.0375 31.7274 13.9959C31.7068 13.9537 31.7068 13.9121 31.7068 13.87C31.7068 13.8074 31.7274 13.7237 31.7695 13.6194C31.8168 13.5105 31.8728 13.4055 31.9369 13.3056C31.9785 13.264 31.9996 13.2429 31.9996 13.2013C32.0412 13.1592 32.0623 13.1381 32.0833 13.0965C32.1254 13.0128 32.1881 12.9502 32.2502 12.8664C32.2923 12.8038 32.3339 12.7411 32.3761 12.6995L33.4639 11.2553H36.4972L36.3508 12.9296C36.331 13.3086 36.2534 13.6824 36.1207 14.038C36.016 14.2891 35.8069 14.456 35.4515 14.5192C35.3262 14.5403 35.1793 14.5613 35.0329 14.5613H34.9287L34.7823 15.0426H39.6985L39.7822 14.7919C39.7822 14.8125 39.8028 14.8125 39.8238 14.8335C40.0955 15.1052 40.4725 15.2311 40.9532 15.2311C41.6646 15.2311 42.2922 15.0215 42.7734 14.624C43.2542 14.2475 43.7149 13.5572 44.154 12.5531C44.4257 11.9255 44.719 11.13 45.0328 10.2312C45.3255 9.28972 45.6393 8.20191 46.0158 6.94615L47.062 3.22253H49.9695L47.1873 13.0128C47.0199 13.5572 46.8319 13.9543 46.6013 14.2054C46.3712 14.4355 45.9947 14.5608 45.4298 14.5608H45.0949L44.9696 15.0421H50.8272L50.9526 14.5608H50.744C50.3044 14.5608 50.0116 14.4982 49.8442 14.3934C49.6978 14.2681 49.6141 14.1006 49.6141 13.87C49.6141 13.7447 49.6352 13.5983 49.6562 13.452C49.6983 13.3266 49.7399 13.1803 49.7821 13.0128L52.2088 4.53992C52.3763 3.97496 52.5648 3.59849 52.7948 3.34734C53.0044 3.1383 53.3598 3.01247 53.8411 2.99192L53.9453 2.99141ZM36.5193 10.5434H34.0088L36.812 6.84086H36.8747L36.5193 10.5434Z" fill="#234B8D"/>
<path fill-rule="evenodd" clip-rule="evenodd" d="M4.92913 3.24205C9.99171 1.00428 17.6074 8.28409 21.2889 1.86148C13.2557 4.07922 9.134 -2.71985 4.92913 3.24205ZM3.52751 8.40992C8.59009 6.1927 16.2263 13.4725 19.8873 7.02935C11.8751 9.26763 7.75343 2.46856 3.52751 8.40992ZM2.35547 13.87C7.39751 11.6528 15.0338 18.9326 18.6942 12.4895C10.682 14.7277 6.56085 7.92867 2.35547 13.87ZM28.3181 8.8701C27.6489 8.38835 26.9165 8.09559 26.1425 7.99133C25.9961 7.97027 25.8497 7.97027 25.7033 7.94922H24.9298C24.8461 7.94922 24.7835 7.94922 24.7208 7.97027H24.5744L24.7208 7.44743L25.9339 3.2215H26.6037C26.7501 3.2215 26.9385 3.24205 27.1686 3.2631C27.3777 3.28416 27.6078 3.30522 27.8379 3.36788C28.2354 3.47265 28.5908 3.70275 28.9262 4.03762C29.24 4.35092 29.449 4.87428 29.5328 5.58562H29.9092L30.8085 2.53122H21.9165L21.7702 2.99141H21.9792C22.272 2.99141 22.5442 3.03352 22.7737 3.11724C23.0038 3.20096 23.1297 3.38894 23.1297 3.6822C23.1297 3.72432 23.1086 3.78698 23.1086 3.84964C23.0846 3.93118 23.0706 4.01535 23.067 4.10028C23.067 4.14239 23.046 4.16345 23.046 4.16345V4.20505C23.0038 4.28877 23.0038 4.35143 22.9833 4.4146C22.9833 4.47726 22.9622 4.51938 22.9412 4.54043L20.5144 13.0128C20.3891 13.4946 20.2006 13.8705 19.991 14.1427C19.761 14.4355 19.3634 14.5608 18.7569 14.5608H18.422L18.2967 15.0421H24.7198C25.9329 15.0005 26.9581 14.6661 27.8784 14.059C28.8199 13.4309 29.3016 12.4689 29.3016 11.2137C29.3016 10.1254 28.9878 9.35135 28.3181 8.8701ZM25.6823 13.4304C25.3685 13.7021 25.0547 13.9121 24.7198 14.0585C24.327 14.242 23.898 14.3349 23.4645 14.3302H23.2971C23.2344 14.3302 23.1713 14.3302 23.1297 14.3097H22.9412C22.8875 14.2882 22.8312 14.274 22.7737 14.2676L24.3639 8.68161C24.4055 8.66056 24.4681 8.66056 24.5313 8.66056H24.7824C25.2426 8.68161 25.6823 8.80693 26.0793 9.07914C26.4768 9.32978 26.6653 9.85314 26.6653 10.6066C26.6658 11.904 26.331 12.8454 25.6823 13.4304ZM98.2348 14.5603C98.0253 14.5603 97.8578 14.4976 97.7109 14.3929C97.5656 14.2886 97.5024 13.9959 97.5024 13.4936V13.2424C97.5024 13.1797 97.5024 13.096 97.5235 12.9913L98.318 2.28058H97.8578L89.8667 12.7617C89.3228 13.473 88.8837 13.9332 88.5488 14.1633C88.2771 14.3513 88.0259 14.4766 87.8164 14.5182C87.5026 14.4555 87.2725 14.3097 87.105 14.1001C86.8984 13.8054 86.7231 13.4899 86.5822 13.1587C86.5822 13.1376 84.0291 7.38477 84.0291 7.38477L87.2509 4.35143C87.8159 3.78647 88.2971 3.43105 88.6736 3.26362C89.0506 3.07564 89.406 2.99192 89.6777 2.99192H89.7409L89.8662 2.53174H85.7656L85.6403 2.99192H85.7656C85.9541 2.99192 86.0794 3.03404 86.1426 3.11776C86.2468 3.20147 86.2889 3.30625 86.33 3.41051C86.3511 3.45262 86.3721 3.49422 86.3721 3.53634C86.3721 3.57845 86.3932 3.62006 86.3932 3.66217C86.3932 3.82909 86.33 3.99653 86.2468 4.16448C86.1426 4.31086 86.0583 4.43617 85.9541 4.54095C85.8909 4.60361 85.8498 4.66627 85.8077 4.70838C85.7445 4.74998 85.7034 4.77104 85.6613 4.81316L82.063 8.22296H81.9998L83.0671 4.54146C83.2135 3.9765 83.402 3.60003 83.6321 3.34888C83.8616 3.11878 84.2392 2.99346 84.8036 2.99346L84.9289 2.53328H79.4056L79.2803 2.99346H79.4688C79.929 2.99346 80.2433 3.05612 80.3897 3.18196C80.5561 3.28673 80.6193 3.47471 80.6193 3.68426C80.6193 3.83063 80.5982 3.95596 80.5772 4.10233C80.5361 4.24871 80.494 4.3956 80.4518 4.54197L78.0251 13.0144C77.8576 13.5588 77.6691 13.9558 77.439 14.207C77.3348 14.3323 77.1884 14.416 76.9999 14.4786C76.7904 14.5413 76.5608 14.5624 76.2886 14.5624H75.9537L75.8073 15.0436H81.5602L81.6865 14.5624H81.5813C81.1421 14.5624 80.8489 14.4997 80.6824 14.3949C80.5361 14.2696 80.4518 14.1022 80.4518 13.8716C80.4518 13.7462 80.4729 13.5999 80.494 13.4535C80.5361 13.3282 80.5772 13.1818 80.6193 13.0144L81.8119 8.91427H81.8529L83.7148 13.1823C83.7569 13.2871 83.799 13.3914 83.82 13.4751C83.8411 13.5793 83.8411 13.6636 83.8411 13.7468C83.8411 13.9979 83.7779 14.207 83.6315 14.3538C83.4852 14.5007 83.2756 14.5629 83.0034 14.5629H82.8581L82.6906 15.0441H91.2051L91.3515 14.5629H91.1209C90.8703 14.5629 90.6818 14.5002 90.577 14.4376C90.4517 14.3328 90.3885 14.2491 90.3474 14.1448C90.3474 14.0821 90.3264 14.04 90.3264 13.9984C90.3264 13.9563 90.3053 13.9147 90.3053 13.8726C90.3053 13.8099 90.3474 13.7262 90.3885 13.622C90.4306 13.5172 90.4727 13.4129 90.5559 13.3081C90.577 13.2665 90.5981 13.2455 90.6191 13.2039C90.6392 13.1618 90.6602 13.1407 90.6813 13.0991C90.7444 13.0154 90.7855 12.9527 90.8487 12.869C90.8908 12.8064 90.9319 12.7437 90.974 12.7021L92.0623 11.2578H95.0746L94.9493 12.9322C94.9296 13.3113 94.8518 13.6851 94.7187 14.0405C94.6144 14.2917 94.4049 14.4586 94.0495 14.5218C93.9115 14.5473 93.7717 14.5614 93.6314 14.5639H93.5271L93.3808 15.0452H98.297L98.4433 14.5639H98.2348V14.5603ZM95.1178 10.5434H92.6068L95.4095 6.84086H95.4727L95.1178 10.5434ZM73.7149 14.435C73.4853 14.3513 73.36 14.1633 73.36 13.8695C73.36 13.8069 73.3811 13.7021 73.4021 13.5768C73.4232 13.4514 73.4643 13.2635 73.5485 13.0118L75.9753 4.53941C76.1217 3.97444 76.3102 3.59797 76.5613 3.34682C76.6656 3.24205 76.8119 3.15884 77.0004 3.09567C77.2307 3.02404 77.4706 2.98869 77.7118 2.99089H78.0466L78.172 2.5307H72.4602L72.2938 2.99089H72.398C72.774 2.99089 73.0673 3.03301 73.2558 3.15833C73.4442 3.24153 73.5275 3.43003 73.5275 3.68118V3.78595C73.5275 3.84912 73.5064 3.91127 73.5064 3.95339C73.4853 4.01656 73.4853 4.05816 73.4643 4.12082V4.2256L67.1254 11.3179H67.0422L68.9872 4.53992C69.1336 4.07973 69.301 3.70326 69.5111 3.41C69.7407 3.1383 70.1382 2.99192 70.7448 2.99192H70.9543L71.0796 2.53174H65.3678L65.2004 2.99192H65.431C65.8701 2.99192 66.1634 3.05458 66.3309 3.18042C66.4772 3.28519 66.5604 3.47317 66.5604 3.68272C66.5604 3.82909 66.5394 3.95442 66.4973 4.10079C66.473 4.24963 66.4382 4.39655 66.393 4.54043L63.9662 13.0128C63.8198 13.5572 63.6314 13.9543 63.3802 14.2054C63.3181 14.2681 63.2549 14.3102 63.1707 14.3723C62.92 14.4982 62.6067 14.5608 62.2297 14.5608H61.8738L61.7485 15.0421H67.4813L67.6277 14.5608H67.5435C67.2307 14.5608 66.9574 14.5187 66.7279 14.4355C66.4973 14.3518 66.393 14.1638 66.393 13.87C66.393 13.8284 66.393 13.7658 66.414 13.7026C66.414 13.6404 66.4351 13.5567 66.4562 13.473V13.4309C66.4772 13.3893 66.4772 13.3682 66.4772 13.3682C66.4772 13.3056 66.4973 13.264 66.4973 13.2219C66.5183 13.1803 66.5394 13.1592 66.5394 13.1176L72.9204 5.83728H72.9835L70.9543 13.0128C70.7869 13.5572 70.5773 13.9543 70.3472 14.2054C70.0966 14.4355 69.7191 14.5608 69.1967 14.5608H68.9661L68.8408 15.0421H74.5737L74.72 14.5608H74.5105C74.2401 14.5644 73.971 14.5218 73.7149 14.435ZM63.1712 4.7695C63.2233 5.03834 63.2515 5.31128 63.2554 5.5851V6.06635H63.6314L64.5733 2.5307H55.3059L54.2386 6.06635H54.6156C54.9494 5.35501 55.4522 4.72738 56.1215 4.16242C56.7917 3.5764 57.5863 3.28365 58.4645 3.22099L55.6608 13.0113C55.6407 13.0323 55.6407 13.0534 55.6197 13.095C55.6197 13.1161 55.6197 13.1366 55.5986 13.1577C55.4733 13.5968 55.3059 13.9322 55.0958 14.1828C54.9083 14.434 54.4687 14.5593 53.8411 14.5593H53.3809L53.2345 15.0405H59.5734L59.6997 14.5593H59.2606C58.9468 14.5593 58.6535 14.4966 58.4229 14.434C58.1933 14.3502 58.0891 14.1623 58.0891 13.8685C58.0891 13.8479 58.0891 13.7853 58.1101 13.7011C58.1101 13.6178 58.1302 13.5552 58.1512 13.4504C58.1512 13.4294 58.1512 13.4088 58.1723 13.4088V13.3462C58.1933 13.2624 58.2144 13.1998 58.2144 13.1366C58.2354 13.0745 58.2354 13.0323 58.2555 13.0113L61.0592 3.22099H61.1845C61.7285 3.22099 62.2097 3.40897 62.6288 3.78595C62.8794 4.01656 63.0669 4.35091 63.1712 4.7695ZM53.9453 2.99141H54.2802L54.4266 2.53122H44.6157L44.4483 2.99141H44.72C45.0759 2.99141 45.3687 3.09618 45.5777 3.28416C45.8078 3.4932 45.9126 3.76541 45.9126 4.12082C45.9126 4.2672 45.8915 4.39303 45.8499 4.53941C45.8078 4.68578 45.7451 4.83216 45.7035 4.97854C45.7035 5.02065 45.6825 5.06225 45.6825 5.08331C45.6614 5.14597 45.6404 5.16703 45.6404 5.20863L45.1591 6.94512C45.0338 7.32159 44.908 7.78229 44.7621 8.28408C44.6157 8.78639 44.4483 9.28818 44.2803 9.83208C44.155 10.167 44.0503 10.5229 43.9249 10.8362C43.7991 11.171 43.6948 11.4849 43.569 11.7987C43.4437 12.0914 43.3389 12.3636 43.2346 12.6148C43.1088 12.8654 43.0046 13.096 42.8787 13.2635C42.8371 13.3677 42.7745 13.4304 42.7323 13.5141C42.6697 13.5978 42.6281 13.6815 42.5649 13.7442C42.471 13.8527 42.3658 13.9508 42.2511 14.037C42.1468 14.1207 42.0421 14.1417 41.9167 14.1417C41.7909 14.1417 41.6867 14.0996 41.6656 13.9953C41.6245 13.8813 41.6033 13.7611 41.6029 13.6399V13.5768V13.4936V13.4304C41.6029 13.4098 41.5819 13.3888 41.5819 13.3677V13.3472C41.5819 13.3261 41.5819 13.3261 41.5608 13.3051C41.5398 13.1376 41.4355 12.9707 41.2681 12.8028C41.1006 12.6569 40.8705 12.5727 40.5567 12.5727C40.2429 12.5727 39.9707 12.6774 39.7406 12.8865C39.5105 13.1166 39.3852 13.4098 39.3852 13.7863C39.3852 14.0791 39.4689 14.3302 39.5942 14.5603C39.4057 14.5393 39.2594 14.4976 39.113 14.3929C38.9666 14.2886 38.9034 13.9959 38.9034 13.4936V13.2424C38.9034 13.1797 38.9034 13.096 38.9245 12.9913L39.719 2.28058H39.2588L31.2466 12.7617C30.7022 13.473 30.2631 13.9332 29.9287 14.1633C29.9077 14.1838 29.8866 14.2049 29.845 14.2254C29.5523 14.4139 29.2801 14.5182 29.05 14.5603L28.9036 15.0416H32.6067L32.753 14.5603H32.523C32.2507 14.5603 32.0628 14.4976 31.958 14.435C31.8537 14.3302 31.77 14.2465 31.749 14.1422C31.7274 14.0796 31.7274 14.0375 31.7274 13.9959C31.7068 13.9537 31.7068 13.9121 31.7068 13.87C31.7068 13.8074 31.7274 13.7237 31.7695 13.6194C31.8168 13.5105 31.8728 13.4055 31.9369 13.3056C31.9785 13.264 31.9996 13.2429 31.9996 13.2013C32.0412 13.1592 32.0623 13.1381 32.0833 13.0965C32.1254 13.0128 32.1881 12.9502 32.2502 12.8664C32.2923 12.8038 32.3339 12.7411 32.3761 12.6995L33.4639 11.2553H36.4972L36.3508 12.9296C36.331 13.3086 36.2534 13.6824 36.1207 14.038C36.016 14.2891 35.8069 14.456 35.4515 14.5192C35.3262 14.5403 35.1793 14.5613 35.0329 14.5613H34.9287L34.7823 15.0426H39.6985L39.7822 14.7919C39.7822 14.8125 39.8028 14.8125 39.8238 14.8335C40.0955 15.1052 40.4725 15.2311 40.9532 15.2311C41.6646 15.2311 42.2922 15.0215 42.7734 14.624C43.2542 14.2475 43.7149 13.5572 44.154 12.5531C44.4257 11.9255 44.719 11.13 45.0328 10.2312C45.3255 9.28972 45.6393 8.20191 46.0158 6.94615L47.062 3.22253H49.9695L47.1873 13.0128C47.0199 13.5572 46.8319 13.9543 46.6013 14.2054C46.3712 14.4355 45.9947 14.5608 45.4298 14.5608H45.0949L44.9696 15.0421H50.8272L50.9526 14.5608H50.744C50.3044 14.5608 50.0116 14.4982 49.8442 14.3934C49.6978 14.2681 49.6141 14.1006 49.6141 13.87C49.6141 13.7447 49.6352 13.5983 49.6562 13.452C49.6983 13.3266 49.7399 13.1803 49.7821 13.0128L52.2088 4.53992C52.3763 3.97496 52.5648 3.59849 52.7948 3.34734C53.0044 3.1383 53.3598 3.01247 53.8411 2.99192L53.9453 2.99141ZM36.5193 10.5434H34.0088L36.812 6.84086H36.8747L36.5193 10.5434Z" fill="white"/>
</g>
<defs>
<clipPath id="clip0_3071_998">
<rect width="99" height="15" fill="white" transform="translate(0.900391 0.5)"/>
</clipPath>
</defs>
</svg>
