<svg width="48" height="48" viewBox="0 0 48 48" fill="none" xmlns="http://www.w3.org/2000/svg">
<circle cx="24" cy="24" r="24" fill="white"/>
<path fill-rule="evenodd" clip-rule="evenodd" d="M18.4 17.7V14.9C18.4 14.1268 19.0268 13.5 19.8 13.5H28.2C28.9732 13.5 29.6 14.1268 29.6 14.9V17.7H34.5C35.2732 17.7 35.9 18.3268 35.9 19.1V28.2H12.1V19.1C12.1 18.3268 12.7268 17.7 13.5 17.7H18.4ZM20.5 17.7V15.6H27.5V17.7H20.5ZM24 24.7C23.4201 24.7 22.95 25.1701 22.95 25.75C22.95 26.3299 23.4201 26.8 24 26.8C24.5799 26.8 25.05 26.3299 25.05 25.75C25.05 25.1701 24.5799 24.7 24 24.7Z" fill="#B62100"/>
<path d="M12.1 33.1V30.3H35.9V33.1C35.9 33.8732 35.2732 34.5 34.5 34.5H13.5C12.7268 34.5 12.1 33.8732 12.1 33.1Z" fill="#B62100"/>
</svg>
