<svg width="48" height="48" viewBox="0 0 48 48" fill="none" xmlns="http://www.w3.org/2000/svg">
<circle cx="24" cy="24" r="24" fill="white"/>
<path fill-rule="evenodd" clip-rule="evenodd" d="M22.2478 12.0996C21.2811 12.0996 20.4975 12.8832 20.4975 13.8499L20.4975 24.5072C20.4972 24.5759 20.4767 24.643 20.4385 24.7001C20.4 24.7577 20.3454 24.8025 20.2814 24.829C20.2174 24.8555 20.147 24.8624 20.0791 24.8489C20.0119 24.8356 19.95 24.8027 19.9013 24.7545L19.9017 24.754L18.168 23.0203L18.1689 23.0194L17.5087 22.3591C17.3967 22.2472 17.2789 22.1448 17.1561 22.052C15.8393 21.0563 13.9566 21.1587 12.7562 22.3591C11.8812 23.2341 11.8812 24.6526 12.7562 25.5275L14.2085 26.9798L14.2094 26.9789L19.839 32.6084L19.8389 32.6085C21.9375 34.7071 24.783 35.887 27.7507 35.8894H28.8988C32.7655 35.8894 35.9 32.7549 35.9 28.8883L35.9 22.2512C35.9 21.2846 35.1163 20.501 34.1497 20.501C33.183 20.501 32.3994 21.2846 32.3994 22.2512V22.2653H32.3993C32.3994 22.2676 32.3994 22.2699 32.3994 22.2723C32.3994 22.3999 32.296 22.5033 32.1684 22.5033C32.0412 22.5033 31.938 22.4005 31.9373 22.2735V22.271C31.9373 22.2691 31.9374 22.2672 31.9374 22.2653H31.9373V21.9012C31.9373 20.9345 31.1537 20.1509 30.1871 20.1509C29.2204 20.1509 28.4368 20.9345 28.4368 21.9012V22.2653H28.4367C28.4367 22.2676 28.4368 22.2699 28.4368 22.2723C28.4368 22.3999 28.3333 22.5033 28.2057 22.5033C28.0786 22.5033 27.9754 22.4005 27.9747 22.2735V22.271C27.9747 22.2691 27.9747 22.2672 27.9748 22.2653H27.9747V21.5511C27.9747 20.5845 27.1911 19.8009 26.2244 19.8009C25.2578 19.8009 24.4741 20.5845 24.4741 21.5511L24.4741 22.2653C24.4741 22.3967 24.3676 22.5033 24.2361 22.5033C24.1051 22.5033 23.9987 22.3974 23.9981 22.2665V13.8499C23.9981 12.8832 23.2144 12.0996 22.2478 12.0996Z" fill="#B62100"/>
</svg>
