<svg width="48" height="48" viewBox="0 0 48 48" fill="none" xmlns="http://www.w3.org/2000/svg">
<circle cx="24" cy="24" r="24" fill="white"/>
<path fill-rule="evenodd" clip-rule="evenodd" d="M15.6 11.4004C12.5072 11.4004 10 13.9076 10 17.0004V26.8004C10 27.5736 10.6268 28.2004 11.4 28.2004H14.2V25.4004C14.2 21.5344 17.334 18.4004 21.2 18.4004H32.4V17.0004C32.4 13.9076 29.8928 11.4004 26.8 11.4004H15.6ZM16.3 15.6004C15.9134 15.6004 15.6 15.9138 15.6 16.3004C15.6 16.687 15.9134 17.0004 16.3 17.0004H26.1C26.4866 17.0004 26.8 16.687 26.8 16.3004C26.8 15.9138 26.4866 15.6004 26.1 15.6004H16.3Z" fill="#B62100"/>
<path fill-rule="evenodd" clip-rule="evenodd" d="M15.6 25.3998C15.6 22.307 18.1072 19.7998 21.2 19.7998H32.4C35.4928 19.7998 38 22.307 38 25.3998V35.1998C38 35.973 37.3732 36.5998 36.6 36.5998H21.2C18.1072 36.5998 15.6 34.0926 15.6 30.9998V25.3998ZM21.2 26.0998C21.2 25.7132 21.5134 25.3998 21.9 25.3998H31.7C32.0866 25.3998 32.4 25.7132 32.4 26.0998C32.4 26.4864 32.0866 26.7998 31.7 26.7998H21.9C21.5134 26.7998 21.2 26.4864 21.2 26.0998ZM26.1 29.5998C25.7134 29.5998 25.4 29.9132 25.4 30.2998C25.4 30.6864 25.7134 30.9998 26.1 30.9998H31.7C32.0866 30.9998 32.4 30.6864 32.4 30.2998C32.4 29.9132 32.0866 29.5998 31.7 29.5998H26.1Z" fill="#B62100"/>
</svg>
