<svg width="48" height="48" viewBox="0 0 48 48" fill="none" xmlns="http://www.w3.org/2000/svg">
<rect x="4" y="3" width="40" height="41.2511" rx="4.5032" fill="#F4F6F6"/>
<path d="M15.4659 13.8003L12.0551 24.1885H9.30762L13.9672 11.6572H15.7156L15.4659 13.8003ZM18.2995 24.1885L14.8802 13.8003L14.6046 11.6572H16.3702L21.0557 24.1885H18.2995ZM18.1445 19.5237V21.5462H11.5211V19.5237H18.1445Z" fill="#B62100"/>
<path d="M23.7969 12.832C23.7969 12.1832 24.3229 11.6572 24.9717 11.6572H36.7197C37.3686 11.6572 37.8945 12.1832 37.8945 12.832V12.832C37.8945 13.4809 37.3686 14.0068 36.7197 14.0068H24.9717C24.3229 14.0068 23.7969 13.4809 23.7969 12.832V12.832Z" fill="#B5BFBF"/>
<path d="M23.7969 18.3145C23.7969 17.6656 24.3229 17.1396 24.9717 17.1396H36.7197C37.3686 17.1396 37.8945 17.6656 37.8945 18.3145V18.3145C37.8945 18.9633 37.3686 19.4893 36.7197 19.4893H24.9717C24.3229 19.4893 23.7969 18.9633 23.7969 18.3145V18.3145Z" fill="#B5BFBF"/>
<path d="M23.7969 23.7969C23.7969 23.148 24.3229 22.6221 24.9717 22.6221H36.7197C37.3686 22.6221 37.8945 23.148 37.8945 23.7969V23.7969C37.8945 24.4457 37.3686 24.9717 36.7197 24.9717H24.9717C24.3229 24.9717 23.7969 24.4457 23.7969 23.7969V23.7969Z" fill="#B5BFBF"/>
<path d="M9.30762 29.2793C9.30762 28.6305 9.8336 28.1045 10.4824 28.1045H36.7197C37.3686 28.1045 37.8945 28.6305 37.8945 29.2793V29.2793C37.8945 29.9281 37.3686 30.4541 36.7197 30.4541H10.4824C9.8336 30.4541 9.30762 29.9281 9.30762 29.2793V29.2793Z" fill="#B5BFBF"/>
<path d="M9.30762 34.7617C9.30762 34.1129 9.8336 33.5869 10.4824 33.5869H36.7197C37.3686 33.5869 37.8945 34.1129 37.8945 34.7617V34.7617C37.8945 35.4105 37.3686 35.9365 36.7197 35.9365H10.4824C9.8336 35.9365 9.30762 35.4105 9.30762 34.7617V34.7617Z" fill="#B5BFBF"/>
</svg>
