<svg width="48" height="48" viewBox="0 0 48 48" fill="none" xmlns="http://www.w3.org/2000/svg">
<path d="M13.3629 11.2363L9.00806 24.5H5.5L11.4494 8.5H13.6818L13.3629 11.2363ZM16.9809 24.5L12.6151 11.2363L12.2632 8.5H14.5176L20.5 24.5H16.9809ZM16.783 18.544V21.1264H8.32625V18.544H16.783Z" fill="#B62100"/>
<path d="M24 10C24 9.17157 24.6716 8.5 25.5 8.5H40.5C41.3284 8.5 42 9.17157 42 10C42 10.8284 41.3284 11.5 40.5 11.5H25.5C24.6716 11.5 24 10.8284 24 10Z" fill="#F4F6F6"/>
<path d="M24 17C24 16.1716 24.6716 15.5 25.5 15.5H40.5C41.3284 15.5 42 16.1716 42 17C42 17.8284 41.3284 18.5 40.5 18.5H25.5C24.6716 18.5 24 17.8284 24 17Z" fill="#F4F6F6"/>
<path d="M24 24C24 23.1716 24.6716 22.5 25.5 22.5H40.5C41.3284 22.5 42 23.1716 42 24C42 24.8284 41.3284 25.5 40.5 25.5H25.5C24.6716 25.5 24 24.8284 24 24Z" fill="#F4F6F6"/>
<path d="M5.5 31C5.5 30.1716 6.17157 29.5 7 29.5H40.5C41.3284 29.5 42 30.1716 42 31C42 31.8284 41.3284 32.5 40.5 32.5H7C6.17157 32.5 5.5 31.8284 5.5 31Z" fill="#F4F6F6"/>
<path d="M5.5 38C5.5 37.1716 6.17157 36.5 7 36.5H40.5C41.3284 36.5 42 37.1716 42 38C42 38.8284 41.3284 39.5 40.5 39.5H7C6.17157 39.5 5.5 38.8284 5.5 38Z" fill="#F4F6F6"/>
</svg>
