<svg width="48" height="48" viewBox="0 0 48 48" fill="none" xmlns="http://www.w3.org/2000/svg">
<circle cx="24" cy="24" r="24" fill="white"/>
<path fill-rule="evenodd" clip-rule="evenodd" d="M15.6 12.0996C14.8268 12.0996 14.2 12.7264 14.2 13.4996V34.4996C14.2 35.2728 14.8268 35.8996 15.6 35.8996H26.0999V28.6196C26.0999 28.0397 26.5701 27.5696 27.1499 27.5696H33.7999V13.4996C33.7999 12.7264 33.1731 12.0996 32.3999 12.0996H15.6ZM17 17.6996C17 16.9264 17.6268 16.2996 18.4 16.2996H29.5999C30.3731 16.2996 30.9999 16.9264 30.9999 17.6996C30.9999 18.4728 30.3731 19.0996 29.5999 19.0996H18.4C17.6268 19.0996 17 18.4728 17 17.6996ZM18.4 21.8996C17.6268 21.8996 17 22.5264 17 23.2996C17 24.0728 17.6268 24.6996 18.4 24.6996H29.5999C30.3731 24.6996 30.9999 24.0728 30.9999 23.2996C30.9999 22.5264 30.3731 21.8996 29.5999 21.8996H18.4ZM17 28.8996C17 28.1264 17.6268 27.4996 18.4 27.4996H22.6C23.3731 27.4996 24 28.1264 24 28.8996C24 29.6728 23.3731 30.2996 22.6 30.2996H18.4C17.6268 30.2996 17 29.6728 17 28.8996Z" fill="#B62100"/>
<path d="M33.7301 29.6696H28.1999V35.2011L30.7759 32.6306L33.7301 29.6696Z" fill="#B62100"/>
</svg>
