<svg width="48" height="48" viewBox="0 0 48 48" fill="none" xmlns="http://www.w3.org/2000/svg">
<circle cx="24" cy="24" r="24" fill="white"/>
<path d="M31.8261 20.3265L33.8051 18.3475C34.0783 18.0743 34.0783 17.6312 33.8051 17.358L33.8026 17.3555L33.7999 17.3529C33.799 17.3519 33.798 17.3509 33.797 17.3499L31.8297 15.3827L31.8277 15.3806L31.8261 15.379L31.8243 15.3773L31.8224 15.3754L31.818 15.3709C31.5447 15.0977 31.1017 15.0977 30.8285 15.3709C30.7979 15.4015 30.7708 15.4342 30.7471 15.4685L28.8576 17.358L31.8261 20.3265Z" fill="#B62100"/>
<path d="M27.8681 18.3475L14.9156 31.3C14.8112 31.4044 14.7467 31.5335 14.722 31.6685L14.014 34.311C13.9466 34.5625 14.0252 34.8187 14.1979 34.9897C14.3689 35.1612 14.6243 35.2391 14.875 35.1719L17.5652 34.4511C17.682 34.4208 17.7926 34.36 17.8841 34.2685L30.8366 21.316L27.8681 18.3475Z" fill="#B62100"/>
</svg>
