<svg width="48" height="48" viewBox="0 0 48 48" fill="none" xmlns="http://www.w3.org/2000/svg">
<circle cx="24" cy="24" r="24" fill="white"/>
<path d="M20.2501 36.4997C22.5959 36.4997 24.5 34.5961 24.5 32.2499V28H20.2501C17.9043 28 16.0002 29.9035 16.0002 32.2499C16.0002 34.5961 17.9043 36.4997 20.2501 36.4997Z" fill="#0ACF83"/>
<path d="M16 23.7499C16 21.404 17.9035 19.5 20.2499 19.5H24.5002V28.0002H20.2503C17.9045 27.9997 16 26.0957 16 23.7499Z" fill="#A259FF"/>
<path d="M16 15.2498C16 12.9035 17.9041 11 20.2499 11H24.5002V19.5002H20.2503C17.9045 19.5002 16 17.5957 16 15.2498Z" fill="#F24E1E"/>
<path d="M24.5002 11H28.7501C31.0959 11 33 12.9035 33 15.2498C33 17.5961 31.0964 19.4997 28.7501 19.4997H24.5002V11Z" fill="#FF7262"/>
<path d="M31.7548 26.7549C33.4144 25.0952 33.4144 22.4044 31.7548 20.7447C30.0951 19.0851 27.4043 19.0851 25.7446 20.7447C24.085 22.4044 24.085 25.0952 25.7446 26.7549C27.4043 28.4145 30.0951 28.4145 31.7548 26.7549Z" fill="#1ABCFE"/>
</svg>
