<svg width="49" height="49" viewBox="0 0 49 49" fill="none" xmlns="http://www.w3.org/2000/svg">
<g clip-path="url(#clip0_734_3178)">
<path d="M16.4997 48.3396C20.9153 48.3396 24.4994 44.7565 24.4994 40.34V32.3403H16.4997C12.0841 32.3403 8.5 35.9234 8.5 40.34C8.5 44.7565 12.0841 48.3396 16.4997 48.3396Z" fill="#0ACF83"/>
<path d="M8.49951 24.3397C8.49951 19.924 12.0826 16.34 16.4992 16.34H24.4998V32.3403H16.5001C12.0845 32.3393 8.49951 28.7553 8.49951 24.3397Z" fill="#A259FF"/>
<path d="M8.49951 8.33935C8.49951 3.92279 12.0836 0.339661 16.4992 0.339661H24.4998V16.34H16.5001C12.0845 16.34 8.49951 12.755 8.49951 8.33935Z" fill="#F24E1E"/>
<path d="M24.5 0.339661H32.4997C36.9153 0.339661 40.4994 3.92279 40.4994 8.33935C40.4994 12.7559 36.9162 16.339 32.4997 16.339H24.5V0.339661Z" fill="#FF7262"/>
<path d="M38.1553 29.9962C41.2793 26.8721 41.2793 21.8071 38.1553 18.683C35.0312 15.559 29.9662 15.559 26.8421 18.683C23.7181 21.8071 23.7181 26.8721 26.8421 29.9962C29.9662 33.1202 35.0312 33.1202 38.1553 29.9962Z" fill="#1ABCFE"/>
</g>
<defs>
<clipPath id="clip0_734_3178">
<rect width="48" height="48" fill="white" transform="translate(0.5 0.339661)"/>
</clipPath>
</defs>
</svg>
