<svg width="48" height="48" viewBox="0 0 48 48" fill="none" xmlns="http://www.w3.org/2000/svg">
<circle cx="24" cy="24" r="24" fill="white"/>
<path fill-rule="evenodd" clip-rule="evenodd" d="M24 13.3151C22.6149 13.3151 21.466 12.3045 21.2502 10.9805L21.2176 10.9873C20.7693 11.0827 20.3295 11.2007 19.8992 11.3399L19.8678 11.3501C19.9813 11.6538 20.0435 11.9826 20.0435 12.3259C20.0435 13.8648 18.7959 15.1122 17.2572 15.1122C16.3932 15.1122 15.6211 14.719 15.1101 14.1018L15.0882 14.1216C14.7497 14.4271 14.4266 14.7502 14.1211 15.0887L14.1014 15.1106C14.7185 15.6216 15.1117 16.3938 15.1117 17.2577C15.1117 18.7965 13.8642 20.0439 12.3255 20.0439C11.9822 20.0439 11.6534 19.9819 11.3496 19.8683L11.3391 19.9005C11.2001 20.3306 11.0822 20.7702 10.9868 21.2181L10.98 21.2506C12.2438 21.4566 13.2219 22.5128 13.3084 23.8129C13.3071 23.8796 13.3065 23.9464 13.3065 24.0133C13.3065 24.0734 13.307 24.1334 13.308 24.1933C13.2193 25.491 12.242 26.5446 10.98 26.7503L10.9868 26.7828C11.0822 27.2308 11.2001 27.6704 11.3391 28.1003L11.3496 28.1326C11.6534 28.0191 11.9822 27.957 12.3255 27.957C13.297 27.957 14.1525 28.4543 14.6511 29.2083C14.7058 29.3063 14.7619 29.4034 14.8194 29.4995C15.0065 29.8739 15.1117 30.2963 15.1117 30.7433C15.1117 31.4901 14.8179 32.1683 14.3395 32.6686C14.3115 32.6959 14.2839 32.7236 14.2567 32.7516C14.2447 32.7632 14.2326 32.7746 14.2203 32.7859C14.2089 32.7965 14.1974 32.807 14.1857 32.8174L14.175 32.8272C14.1508 32.8487 14.1263 32.8697 14.1014 32.8903L14.1149 32.9054C14.4074 33.2299 14.7159 33.5401 15.0387 33.8345L15.1035 33.8931C15.1276 33.8638 15.1522 33.835 15.1775 33.8067C15.1898 33.7929 15.2022 33.7793 15.2147 33.7658L15.2421 33.7366C15.271 33.7085 15.2995 33.6801 15.3275 33.6512C15.8281 33.1703 16.5081 32.8748 17.2572 32.8748C17.653 32.8748 18.0295 32.9573 18.3704 33.1061C18.5495 33.2172 18.7321 33.3231 18.9181 33.4237C19.601 33.9315 20.0435 34.7446 20.0435 35.6611C20.0435 36.009 19.9797 36.3421 19.8631 36.6493L19.8992 36.661C20.3124 36.7947 20.7343 36.9087 21.1641 37.0021L21.2502 37.0205C21.4503 35.7927 22.4527 34.8345 23.7018 34.7016C23.8005 34.7043 23.8996 34.7057 23.9989 34.7057C24.0988 34.7057 24.1984 34.7043 24.2977 34.7016C25.5469 34.8343 26.5496 35.7926 26.7498 37.0205L26.8359 37.0021C27.2657 36.9087 27.6876 36.7947 28.1007 36.661L28.1244 36.6533C28.0069 36.3451 27.9426 36.0105 27.9426 35.6611C27.9426 34.7579 28.3723 33.9551 29.0385 33.4459C29.2476 33.3339 29.4527 33.2152 29.6533 33.09C29.9842 32.9514 30.3476 32.8748 30.7289 32.8748C31.5999 32.8748 32.3776 33.2744 32.8884 33.9004L32.9533 33.8418C33.2765 33.5475 33.5851 33.2377 33.878 32.9132L33.8986 32.8903C33.2815 32.3793 32.8882 31.6072 32.8882 30.7433C32.8882 30.2869 32.9979 29.8562 33.1924 29.476C33.2407 29.3949 33.2879 29.3131 33.3341 29.2307C33.8305 28.4642 34.6933 27.957 35.6745 27.957C36.0178 27.957 36.3466 28.0191 36.6503 28.1326L36.6605 28.1012C36.675 28.0566 36.6891 28.0119 36.7031 27.9671C36.8241 27.5796 36.9276 27.1846 37.0131 26.7828L37.02 26.7503C35.749 26.5431 34.7668 25.476 34.6902 24.1656C34.6909 24.1149 34.6913 24.0642 34.6913 24.0133C34.6913 23.9556 34.6908 23.8981 34.6899 23.8406C34.7642 22.5278 35.7473 21.4581 37.02 21.2506L37.0121 21.2137C36.917 20.767 36.7994 20.3286 36.6605 19.8997L36.6487 19.8636C36.3417 19.9801 36.0085 20.0439 35.6606 20.0439C34.6767 20.0439 33.812 19.534 33.3162 18.7641C33.2741 18.6896 33.2312 18.6156 33.1874 18.5422C32.9874 18.1578 32.8743 17.7209 32.8743 17.2577C32.8743 16.39 33.2709 15.615 33.8927 15.104L33.8718 15.0809C33.5663 14.7429 33.2433 14.4204 32.9049 14.1153L32.8819 14.0946C32.3708 14.716 31.5961 15.1122 30.7289 15.1122C29.19 15.1122 27.9426 13.8648 27.9426 12.3259C27.9426 12.1101 27.9671 11.8999 28.0135 11.6982C28.031 11.6381 28.0472 11.5776 28.062 11.5164C28.0795 11.4588 28.0988 11.4021 28.1198 11.3461L28.1007 11.3399C27.6664 11.1993 27.2218 11.0804 26.7693 10.9846L26.7498 10.9805C26.7401 11.0398 26.7286 11.0985 26.7152 11.1565C26.6977 11.2168 26.6816 11.2775 26.6666 11.3389C26.3197 12.4826 25.257 13.3151 24 13.3151ZM28.1835 24.1293C28.1847 24.0885 28.1853 24.0475 28.1853 24.0063C28.1853 22.4594 27.3448 21.1087 26.0956 20.3861V17.1134C29.0547 18.0114 31.2084 20.7609 31.2084 24.0133C31.2084 24.6134 31.1351 25.1963 30.9969 25.7536L28.1835 24.1293ZM25.9872 27.6872C25.3975 28.0053 24.7228 28.1858 24.0059 28.1858C23.2706 28.1858 22.5798 27.9959 21.9796 27.6626L19.1149 29.3165C20.3993 30.5 22.1147 31.2228 23.9989 31.2228C25.8692 31.2228 27.5732 30.5106 28.8544 29.3426L25.9872 27.6872ZM19.8271 24.0794L16.9917 25.7163C16.8595 25.1703 16.7894 24.6 16.7894 24.0133C16.7894 20.7558 18.9499 18.0028 21.9161 17.1092V20.3861C20.6669 21.1087 19.8264 22.4594 19.8264 24.0063C19.8264 24.0307 19.8266 24.0551 19.8271 24.0794Z" fill="#B62100"/>
</svg>
