<svg width="48" height="48" viewBox="0 0 48 48" fill="none" xmlns="http://www.w3.org/2000/svg">
<circle cx="24" cy="24" r="24" fill="white"/>
<path fill-rule="evenodd" clip-rule="evenodd" d="M15.6 12.0996C14.8268 12.0996 14.2 12.7264 14.2 13.4996V34.4996C14.2 35.2728 14.8268 35.8996 15.6 35.8996H32.3999C33.1731 35.8996 33.7999 35.2728 33.7999 34.4996V13.4996C33.7999 12.7264 33.1731 12.0996 32.3999 12.0996H15.6ZM18.4 16.9996C17.6268 16.9996 17 17.6264 17 18.3996C17 19.1728 17.6268 19.7996 18.4 19.7996H29.5999C30.3731 19.7996 30.9999 19.1728 30.9999 18.3996C30.9999 17.6264 30.3731 16.9996 29.5999 16.9996H18.4ZM17 23.9996C17 23.2264 17.6268 22.5996 18.4 22.5996H29.5999C30.3731 22.5996 30.9999 23.2264 30.9999 23.9996C30.9999 24.7728 30.3731 25.3996 29.5999 25.3996H18.4C17.6268 25.3996 17 24.7728 17 23.9996ZM18.4 28.1996C17.6268 28.1996 17 28.8264 17 29.5996C17 30.3728 17.6268 30.9996 18.4 30.9996H29.5999C30.3731 30.9996 30.9999 30.3728 30.9999 29.5996C30.9999 28.8264 30.3731 28.1996 29.5999 28.1996H18.4Z" fill="#B62100"/>
</svg>
