<svg width="48" height="48" viewBox="0 0 48 48" fill="none" xmlns="http://www.w3.org/2000/svg">
<rect x="8" y="3" width="32.0842" height="41.2511" rx="4.5032" fill="#F4F6F6"/>
<circle cx="30.0537" cy="11.5378" r="4.34642" fill="#048E86"/>
<path d="M28.1904 11.405L29.5743 12.7815L32.0712 10.2979" stroke="#F4F6F6" stroke-width="2.2516" stroke-linecap="round"/>
<rect x="12.5837" y="8.74316" width="10.7108" height="0.931377" rx="0.465688" fill="#B5BFBF"/>
<rect x="12.5837" y="10.6074" width="6.83009" height="0.931377" rx="0.465688" fill="#B5BFBF"/>
<rect x="12.5837" y="12.4688" width="9.469" height="0.931377" rx="0.465688" fill="#B5BFBF"/>
<circle cx="30.0535" cy="23.3367" r="4.34642" fill="#048E86"/>
<path d="M28.1902 23.2009L29.574 24.5774L32.0709 22.0938" stroke="#F4F6F6" stroke-width="2.2516" stroke-linecap="round"/>
<rect x="12.5835" y="20.542" width="10.7108" height="0.931377" rx="0.465688" fill="#B5BFBF"/>
<rect x="12.5835" y="22.4053" width="6.83009" height="0.931377" rx="0.465688" fill="#B5BFBF"/>
<rect x="12.5835" y="24.2676" width="9.469" height="0.931377" rx="0.465688" fill="#B5BFBF"/>
<circle cx="30.0535" cy="35.1316" r="4.34642" fill="#048E86"/>
<path d="M28.1902 34.9959L29.574 36.3723L32.0709 33.8887" stroke="#F4F6F6" stroke-width="2.2516" stroke-linecap="round"/>
<rect x="12.5835" y="32.3379" width="10.7108" height="0.931377" rx="0.465688" fill="#B5BFBF"/>
<rect x="12.5835" y="34.2012" width="6.83009" height="0.931377" rx="0.465688" fill="#B5BFBF"/>
<rect x="12.5835" y="36.0625" width="9.469" height="0.931377" rx="0.465688" fill="#B5BFBF"/>
</svg>
