<svg width="48" height="48" viewBox="0 0 48 48" fill="none" xmlns="http://www.w3.org/2000/svg">
<rect x="4" y="3" width="40" height="41.2511" rx="4.5032" fill="#F4F6F6"/>
<rect x="9" y="11" width="14.5941" height="1.26905" rx="0.634527" fill="#B5BFBF"/>
<rect x="9" y="13.6318" width="9.3064" height="1.26905" rx="0.634527" fill="#B5BFBF"/>
<rect x="9" y="16.2637" width="12.902" height="1.26905" rx="0.634527" fill="#B5BFBF"/>
<rect x="9" y="18.8945" width="12.902" height="1.26905" rx="0.634527" fill="#B5BFBF"/>
<circle cx="33.0164" cy="16.4223" r="5.42225" fill="#B62100"/>
<path d="M30.6921 16.2562L32.4185 17.9734L35.5334 14.875" stroke="#F4F6F6" stroke-width="2.80892" stroke-linecap="round"/>
<rect x="9" y="26" width="14.5941" height="1.26905" rx="0.634527" fill="#B5BFBF"/>
<rect x="9" y="28.6318" width="9.3064" height="1.26905" rx="0.634527" fill="#B5BFBF"/>
<rect x="9" y="31.2637" width="12.902" height="1.26905" rx="0.634527" fill="#B5BFBF"/>
<rect x="9" y="33.8945" width="12.902" height="1.26905" rx="0.634527" fill="#B5BFBF"/>
<circle cx="33.0164" cy="31.4223" r="5.42225" fill="#B62100"/>
<path d="M30.6921 31.2562L32.4185 32.9734L35.5334 29.875" stroke="#F4F6F6" stroke-width="2.80892" stroke-linecap="round"/>
</svg>
