<svg width="48" height="48" viewBox="0 0 48 48" fill="none" xmlns="http://www.w3.org/2000/svg">
<rect x="8" y="3" width="32.0842" height="41.2511" rx="4.5032" fill="#F4F6F6"/>
<circle cx="16.9302" cy="11.5378" r="4.34642" fill="#048E86"/>
<path d="M17.5229 10.0908V12.9999H16.9078V10.6746H16.8908L16.2246 11.0922V10.5468L16.9448 10.0908H17.5229Z" fill="white"/>
<rect x="23.2766" y="7.19141" width="10.7108" height="0.931377" rx="0.465688" fill="#B5BFBF"/>
<rect x="23.2766" y="9.05566" width="6.83009" height="0.931377" rx="0.465688" fill="#B5BFBF"/>
<rect x="23.2766" y="10.917" width="9.469" height="0.931377" rx="0.465688" fill="#B5BFBF"/>
<circle cx="16.9299" cy="23.3367" r="4.34642" fill="#048E86"/>
<path d="M15.976 24.9996V24.5565L17.0116 23.5977C17.0996 23.5124 17.1735 23.4357 17.2331 23.3675C17.2937 23.2994 17.3397 23.2326 17.3709 23.1673C17.4022 23.101 17.4178 23.0295 17.4178 22.9528C17.4178 22.8675 17.3984 22.7942 17.3596 22.7326C17.3207 22.6701 17.2677 22.6223 17.2005 22.5891C17.1332 22.555 17.057 22.538 16.9718 22.538C16.8828 22.538 16.8051 22.556 16.7388 22.592C16.6725 22.628 16.6214 22.6796 16.5854 22.7468C16.5494 22.814 16.5314 22.8941 16.5314 22.9869H15.9476C15.9476 22.7965 15.9907 22.6313 16.0769 22.4911C16.1631 22.351 16.2838 22.2425 16.4391 22.1658C16.5944 22.0891 16.7734 22.0508 16.976 22.0508C17.1844 22.0508 17.3657 22.0877 17.5201 22.1616C17.6754 22.2345 17.7961 22.3358 17.8823 22.4656C17.9685 22.5953 18.0116 22.744 18.0116 22.9116C18.0116 23.0214 17.9898 23.1299 17.9462 23.2369C17.9036 23.3439 17.8274 23.4627 17.7175 23.5934C17.6077 23.7231 17.4528 23.8789 17.253 24.0607L16.8283 24.4769V24.4968H18.0499V24.9996H15.976Z" fill="white"/>
<rect x="23.2764" y="18.9902" width="10.7108" height="0.931377" rx="0.465688" fill="#B5BFBF"/>
<rect x="23.2764" y="20.8535" width="6.83009" height="0.931377" rx="0.465688" fill="#B5BFBF"/>
<rect x="23.2764" y="22.7158" width="9.469" height="0.931377" rx="0.465688" fill="#B5BFBF"/>
<circle cx="16.9299" cy="35.3464" r="4.34642" fill="#048E86"/>
<path d="M16.9927 37.0492C16.7806 37.0492 16.5917 37.0127 16.426 36.9398C16.2612 36.8659 16.131 36.7646 16.0353 36.6358C15.9406 36.5061 15.8919 36.3565 15.889 36.187H16.5084C16.5121 36.258 16.5353 36.3205 16.578 36.3745C16.6215 36.4275 16.6793 36.4687 16.7513 36.498C16.8232 36.5274 16.9042 36.5421 16.9942 36.5421C17.0879 36.5421 17.1708 36.5255 17.2427 36.4924C17.3147 36.4592 17.371 36.4133 17.4118 36.3546C17.4525 36.2959 17.4728 36.2282 17.4728 36.1515C17.4728 36.0738 17.4511 36.0051 17.4075 35.9455C17.3649 35.8849 17.3033 35.8375 17.2228 35.8034C17.1433 35.7694 17.0486 35.7523 16.9388 35.7523H16.6674V35.3006H16.9388C17.0316 35.3006 17.1135 35.2845 17.1845 35.2523C17.2565 35.2201 17.3123 35.1756 17.3521 35.1188C17.3919 35.061 17.4118 34.9938 17.4118 34.9171C17.4118 34.8442 17.3942 34.7802 17.3592 34.7253C17.3251 34.6694 17.2768 34.6259 17.2143 34.5946C17.1528 34.5634 17.0808 34.5478 16.9984 34.5478C16.9151 34.5478 16.8388 34.5629 16.7697 34.5932C16.7006 34.6226 16.6452 34.6647 16.6035 34.7196C16.5619 34.7746 16.5396 34.839 16.5368 34.9128H15.9473C15.9501 34.7452 15.9979 34.5975 16.0907 34.4696C16.1835 34.3418 16.3085 34.2419 16.4657 34.1699C16.6239 34.097 16.8024 34.0605 17.0013 34.0605C17.202 34.0605 17.3777 34.097 17.5282 34.1699C17.6788 34.2428 17.7958 34.3413 17.8791 34.4654C17.9634 34.5885 18.005 34.7267 18.0041 34.8801C18.005 35.043 17.9544 35.1789 17.8521 35.2878C17.7508 35.3967 17.6187 35.4659 17.4558 35.4952V35.5179C17.6698 35.5454 17.8327 35.6197 17.9444 35.7409C18.0571 35.8612 18.113 36.0118 18.112 36.1926C18.113 36.3584 18.0652 36.5056 17.9686 36.6344C17.8729 36.7632 17.7408 36.8645 17.5723 36.9384C17.4037 37.0123 17.2105 37.0492 16.9927 37.0492Z" fill="white"/>
<rect x="23.2764" y="31" width="10.7108" height="0.931377" rx="0.465688" fill="#B5BFBF"/>
<rect x="23.2764" y="32.8633" width="6.83009" height="0.931377" rx="0.465688" fill="#B5BFBF"/>
<rect x="23.2764" y="34.7256" width="9.469" height="0.931377" rx="0.465688" fill="#B5BFBF"/>
</svg>
