<svg width="48" height="48" viewBox="0 0 60 60" fill="none" xmlns="http://www.w3.org/2000/svg">
<g clip-path="url(#clip0_2692_50912)">
<path d="M12.9979 0H47.0021C54.1758 0 60 5.82421 60 12.9979V47.0021C60 54.1758 54.1758 60 47.0021 60H12.9979C5.82421 60 0 54.1758 0 47.0021V12.9979C0 5.82421 5.82421 0 12.9979 0Z" fill="#FFD02F"/>
<path d="M42.0809 6.46155H35.3263L40.9521 16.5455L28.5716 6.46155H21.817L28.0072 18.7925L15.0623 6.46155H8.30762L15.0623 22.1539L8.30762 53.5385H15.0623L28.0072 19.9068L21.817 53.5385H28.5716L40.9521 17.6783L35.3263 53.5385H42.0809L54.4615 14.2984L42.0809 6.46155Z" fill="#050038"/>
</g>
<defs>
<clipPath id="clip0_2692_50912">
<rect width="60" height="60" fill="white"/>
</clipPath>
</defs>
</svg>
