<svg width="48" height="48" viewBox="0 0 48 48" fill="none" xmlns="http://www.w3.org/2000/svg">
<circle cx="24" cy="24" r="24" fill="white"/>
<path d="M12.1 10.7002C11.3268 10.7002 10.7 11.327 10.7 12.1002V17.7002C10.7 18.4734 11.3268 19.1002 12.1 19.1002H21.2C21.9731 19.1002 22.6 18.4734 22.6 17.7002V12.1002C22.6 11.327 21.9731 10.7002 21.2 10.7002H12.1Z" fill="#B62100"/>
<path d="M26.8 10.7002C26.0268 10.7002 25.4 11.327 25.4 12.1002V24.7002C25.4 25.4734 26.0268 26.1002 26.8 26.1002H35.9C36.6731 26.1002 37.3 25.4734 37.3 24.7002V12.1002C37.3 11.327 36.6731 10.7002 35.9 10.7002H26.8Z" fill="#B62100"/>
<path d="M10.7 23.3002C10.7 22.527 11.3268 21.9002 12.1 21.9002H21.2C21.9731 21.9002 22.6 22.527 22.6 23.3002V35.9002C22.6 36.6734 21.9731 37.3002 21.2 37.3002H12.1C11.3268 37.3002 10.7 36.6734 10.7 35.9002V23.3002Z" fill="#B62100"/>
<path d="M26.8 28.9002C26.0268 28.9002 25.4 29.527 25.4 30.3002V35.9002C25.4 36.6734 26.0268 37.3002 26.8 37.3002H35.9C36.6731 37.3002 37.3 36.6734 37.3 35.9002V30.3002C37.3 29.527 36.6731 28.9002 35.9 28.9002H26.8Z" fill="#B62100"/>
</svg>
