<svg width="48" height="48" viewBox="0 0 48 48" fill="none" xmlns="http://www.w3.org/2000/svg">
<rect x="4" y="3" width="40" height="41.2511" rx="4.5032" fill="#F4F6F6"/>
<path d="M26.6686 14.0171C26.6686 12.3508 25.3178 11 23.6514 11H11.0171C9.35082 11 8 12.3508 8 14.0171V20.0514C8 21.7178 9.35082 23.0686 11.0171 23.0686H23.6514C25.3178 23.0686 26.6686 21.7178 26.6686 20.0514V14.0171Z" fill="#F38A75"/>
<path d="M26.6686 27.2164C26.6686 25.55 25.3178 24.1992 23.6514 24.1992H11.0171C9.35082 24.1992 8 25.55 8 27.2164V33.2507C8 34.917 9.35082 36.2678 11.0171 36.2678H23.6514C25.3178 36.2678 26.6686 34.917 26.6686 33.2507V27.2164Z" fill="#048E86"/>
<path d="M40 14.0171C40 12.3508 38.7542 11 37.2174 11H30.7826C29.2458 11 28 12.3508 28 14.0171V33.2514C28 34.9178 29.2458 36.2686 30.7826 36.2686H37.2174C38.7542 36.2686 40 34.9178 40 33.2514V14.0171Z" fill="#D19A46"/>
</svg>
