<svg width="48" height="48" viewBox="0 0 48 48" fill="none" xmlns="http://www.w3.org/2000/svg">
<path d="M2.5 9.59851C2.5 7.78046 3.97382 6.30664 5.79187 6.30664H42.2081C44.0262 6.30664 45.5 7.78046 45.5 9.59851V38.4023C45.5 40.2204 44.0262 41.6942 42.2081 41.6942H5.79187C3.97382 41.6942 2.5 40.2204 2.5 38.4023V9.59851Z" fill="#B62100"/>
<path d="M26.3662 13.7137C26.3662 11.8957 24.8924 10.4219 23.0743 10.4219H9.28966C7.47161 10.4219 5.99779 11.8957 5.99779 13.7137V20.2975C5.99779 22.1155 7.47161 23.5893 9.28966 23.5893H23.0743C24.8924 23.5893 26.3662 22.1155 26.3662 20.2975V13.7137Z" fill="#F38A75"/>
<path d="M26.3662 28.1151C26.3662 26.2971 24.8924 24.8232 23.0743 24.8232H9.28966C7.47161 24.8232 5.99779 26.2971 5.99779 28.1151V34.6988C5.99779 36.5169 7.47161 37.9907 9.28966 37.9907H23.0743C24.8924 37.9907 26.3662 36.5169 26.3662 34.6988V28.1151Z" fill="#F4F6F6"/>
<path d="M42.0024 13.7137C42.0024 11.8957 40.5286 10.4219 38.7106 10.4219H31.0981C29.2801 10.4219 27.8063 11.8957 27.8063 13.7137V34.6994C27.8063 36.5174 29.2801 37.9913 31.0981 37.9913H38.7106C40.5286 37.9913 42.0024 36.5174 42.0024 34.6994V13.7137Z" fill="#D19A46"/>
</svg>
