<svg width="105" height="101" viewBox="0 0 105 101" fill="none" xmlns="http://www.w3.org/2000/svg">
<mask id="mask0_30205_24313" style="mask-type:alpha" maskUnits="userSpaceOnUse" x="0" y="0" width="105" height="101">
<path d="M38.9729 100.101C31.6847 100.622 34.0645 100.473 31.6847 100.622C31.6847 100.622 -0.368638 86.6406 0.0032105 56.5209C0.0032105 33.1688 11.1587 26.7731 11.1587 26.7731C16.3952 29.0772 21.1606 32.3298 25.2145 36.3667C28.58 40.1592 31.3394 44.4489 33.3952 49.0839C36.251 37.4526 42.7371 27.0331 51.9132 19.3361C64.7805 7.08497 81.8182 0.174231 99.5841 0C103.071 9.01406 104.862 18.5953 104.864 28.2604C105.385 66.3377 82.5535 93.7801 46.4098 99.1347L38.9729 100.101Z" fill="white"/>
</mask>
<g mask="url(#mask0_30205_24313)">
<path d="M24.0991 23.0502L-9.36719 31.6199L12.5569 111.382L35.2546 101.138C35.2546 101.138 38.9731 87.088 38.9731 75.1089C38.9731 56.5165 24.0991 23.0502 24.0991 23.0502Z" fill="url(#paint0_linear_30205_24313)"/>
<path d="M125.214 91.9879L102.187 -2.97309L68.7209 4.4638L42.6918 19.3378C42.6918 19.3378 30.7913 44.193 30.792 75.1151C30.7927 106.037 35.9381 113.635 35.9381 113.635L125.214 91.9879Z" fill="url(#paint1_linear_30205_24313)"/>
</g>
<defs>
<linearGradient id="paint0_linear_30205_24313" x1="-97665" y1="-203219" x2="-97504.1" y2="-202628" gradientUnits="userSpaceOnUse">
<stop stop-color="#00A138"/>
<stop offset="0.33" stop-color="#41AF2B"/>
<stop offset="0.78" stop-color="#93C11A"/>
<stop offset="1" stop-color="#93C11A"/>
</linearGradient>
<linearGradient id="paint1_linear_30205_24313" x1="71.5391" y1="34.3761" x2="83.743" y2="84.7054" gradientUnits="userSpaceOnUse">
<stop stop-color="#00A138"/>
<stop offset="0.33" stop-color="#41AF2B"/>
<stop offset="0.78" stop-color="#93C11A"/>
<stop offset="1" stop-color="#93C11A"/>
</linearGradient>
</defs>
</svg>
