<svg width="26" height="25" viewBox="0 0 26 25" fill="none" xmlns="http://www.w3.org/2000/svg">
<mask id="mask0_30205_24313" style="mask-type:alpha" maskUnits="userSpaceOnUse" x="0" y="0" width="26" height="25">
<path d="M10.2254 24.1869C8.48699 24.311 9.05462 24.2756 8.48699 24.311C8.48699 24.311 0.841761 20.9762 0.930453 13.7922C0.930453 8.22234 3.59121 6.69684 3.59121 6.69684C4.84022 7.24642 5.97684 8.02221 6.94376 8.98509C7.74648 9.88967 8.40465 10.9128 8.89498 12.0184C9.57614 9.24409 11.1232 6.75887 13.3118 4.92301C16.3809 2.00092 20.4447 0.352592 24.6821 0.311035C25.5139 2.46103 25.9409 4.74632 25.9415 7.05161C26.0657 16.1336 20.62 22.6791 11.9992 23.9563L10.2254 24.1869Z" fill="white"/>
</mask>
<g mask="url(#mask0_30205_24313)">
<path d="M6.67757 5.80877L-1.30469 7.85278L3.92456 26.8774L9.33833 24.434C9.33833 24.434 10.2252 21.0828 10.2252 18.2256C10.2252 13.791 6.67757 5.80877 6.67757 5.80877Z" fill="url(#paint0_linear_30205_24313)"/>
<path d="M30.7951 22.2517L25.303 -0.398014L17.3207 1.3758L11.1123 4.9235C11.1123 4.9235 8.27388 10.8519 8.27404 18.2273C8.27421 25.6027 9.50147 27.415 9.50147 27.415L30.7951 22.2517Z" fill="url(#paint1_linear_30205_24313)"/>
</g>
<defs>
<linearGradient id="paint0_linear_30205_24313" x1="-23293.8" y1="-48470.6" x2="-23255.4" y2="-48329.8" gradientUnits="userSpaceOnUse">
<stop stop-color="#00A138"/>
<stop offset="0.33" stop-color="#41AF2B"/>
<stop offset="0.78" stop-color="#93C11A"/>
<stop offset="1" stop-color="#93C11A"/>
</linearGradient>
<linearGradient id="paint1_linear_30205_24313" x1="17.9929" y1="8.51037" x2="20.9037" y2="20.5147" gradientUnits="userSpaceOnUse">
<stop stop-color="#00A138"/>
<stop offset="0.33" stop-color="#41AF2B"/>
<stop offset="0.78" stop-color="#93C11A"/>
<stop offset="1" stop-color="#93C11A"/>
</linearGradient>
</defs>
</svg>
