<svg width="231" height="112" viewBox="0 0 231 112" fill="none" xmlns="http://www.w3.org/2000/svg">
<g clip-path="url(#clip0_30215_27859)">
<path d="M106.208 50.3219V31.536H95.8253V50.3254H91.1428V27.2041H110.924V50.3219H106.208Z" fill="white"/>
<path d="M132.055 50.3219L130.704 46.4052H121.273L119.888 50.3219H114.546L123.054 27.2041H128.923L137.396 50.3219H132.055ZM125.988 32.1254L122.558 42.0726H129.417L125.988 32.1254Z" fill="white"/>
<path d="M156.157 50.3219V40.6152H145.772V50.3219H141.089V27.2041H145.772V36.2868H156.157V27.2041H160.871V50.3219H156.157Z" fill="white"/>
<path d="M166.839 50.3219V27.2041H182.403V31.536H171.522V50.3254L166.839 50.3219Z" fill="white"/>
<path d="M187.314 50.3219V27.2041H202.875V31.536H191.993V36.4233H202.644V40.7553H191.996V45.9892H202.877V50.3219H187.314Z" fill="white"/>
<path d="M207.129 38.7805C207.129 31.8139 211.975 26.8232 218.604 26.8232C225.265 26.8232 230.11 31.8152 230.11 38.7805C230.11 45.7457 225.263 50.7377 218.604 50.7377C211.975 50.7377 207.129 45.7471 207.129 38.7805ZM225.295 38.7805C225.295 34.4485 222.657 31.1905 218.602 31.1905C214.547 31.1905 211.941 34.4492 211.941 38.7805C211.941 43.0791 214.545 46.3711 218.602 46.3711C222.659 46.3711 225.295 43.0784 225.295 38.7805V38.7805Z" fill="white"/>
<path d="M91.1426 83.1812V60.0635H101.431C106.211 60.0635 108.817 63.4608 108.817 67.5154C108.817 71.5367 106.179 74.9666 101.431 74.9666H95.825V83.1812H91.1426ZM104.033 67.5119C104.033 65.5706 102.648 64.3919 100.802 64.3919H95.825V70.6319H100.804C102.647 70.6347 104.032 69.4214 104.032 67.5154L104.033 67.5119Z" fill="white"/>
<path d="M128.529 83.1812L127.177 79.2646H117.746L116.361 83.1812H111.019L119.526 60.0635H125.396L133.869 83.1812H128.529ZM122.461 64.9847L119.032 74.9327H125.891L122.461 64.9847Z" fill="white"/>
<path d="M136.244 79.2314C138.486 78.9194 139.739 77.9834 140.431 71.882L141.717 60.0635H157.344V78.8486H159.322V87.446H154.64V83.1834H140.925V87.446H136.243L136.244 79.2314ZM142.409 78.85H152.631V64.3975H145.936L145.079 72.2322C144.75 75.3494 143.794 77.4987 142.409 78.85Z" fill="white"/>
<path d="M178.873 83.1812L177.521 79.2646H168.09L166.705 83.1812H161.364L169.871 60.0635H175.741L184.213 83.1812H178.873ZM172.806 64.9847L169.376 74.9327H176.235L172.806 64.9847Z" fill="white"/>
<path d="M187.907 83.1812V60.0635H198.196C202.976 60.0635 205.582 63.4608 205.582 67.5154C205.582 71.5367 202.944 74.9666 198.196 74.9666H192.59V83.1812H187.907ZM200.798 67.5119C200.798 65.5706 199.413 64.3919 197.567 64.3919H192.589V70.6319H197.567C199.413 70.6347 200.798 69.4214 200.798 67.5154V67.5119Z" fill="white"/>
<path d="M74.1798 82.9688V65.4732L49.9841 47.3037L0.648926 83.4645L37.0896 111.293L74.1798 82.9688Z" fill="white"/>
<path d="M74.1796 0.000976562H60.9204V13.1868H44.8978L-0.000244141 46.265V81.643L74.1796 27.2004V0.000976562Z" fill="white"/>
<path d="M-0.000244141 0.000976562V43.9652L43.7193 11.755V0.000976562H30.4601V13.1868H13.259V0.000976562H-0.000244141Z" fill="white"/>
</g>
<defs>
<clipPath id="clip0_30215_27859">
<rect width="230.4" height="112" fill="white"/>
</clipPath>
</defs>
</svg>
