<svg width="48" height="48" viewBox="0 0 48 48" fill="none" xmlns="http://www.w3.org/2000/svg">
<circle cx="24" cy="24" r="24" fill="white"/>
<path fill-rule="evenodd" clip-rule="evenodd" d="M14.2 15.5996C12.6536 15.5996 11.4 16.8532 11.4 18.3996V29.5996C11.4 31.146 12.6536 32.3996 14.2 32.3996H33.8C35.3464 32.3996 36.6 31.146 36.6 29.5996V18.3996C36.6 16.8532 35.3464 15.5996 33.8 15.5996H14.2ZM24 16.9996C23.2268 16.9996 22.6 17.6264 22.6 18.3996V23.9996C22.6 24.7728 23.2268 25.3996 24 25.3996H33.8C34.5732 25.3996 35.2 24.7728 35.2 23.9996V18.3996C35.2 17.6264 34.5732 16.9996 33.8 16.9996H24Z" fill="#B62100"/>
</svg>
