<svg width="48" height="48" viewBox="0 0 48 48" fill="none" xmlns="http://www.w3.org/2000/svg">
<g filter="url(#filter0_d_1218_882)">
<mask id="path-1-outside-1_1218_882" maskUnits="userSpaceOnUse" x="12.2905" y="9.25" width="24" height="28" fill="black">
<rect fill="white" x="12.2905" y="9.25" width="24" height="28"/>
<path fill-rule="evenodd" clip-rule="evenodd" d="M19.7242 25.4167L18.4682 23.4975C17.6106 22.1872 15.7837 21.7091 14.3864 22.4274L14.712 22.2601C14.3652 22.4383 14.1989 22.8828 14.3417 23.2522L16.0803 27.7505C16.356 28.4636 17.0599 29.4721 17.6432 29.9788C17.6432 29.9788 21.1409 32.8738 21.1409 33.9592V35.3333H26.8076L28.2242 32.5L29.6409 35.3333H31.0576V33.9592C31.0576 32.8738 33.1951 29.4551 33.1951 29.4551C33.5886 28.7906 33.9165 27.6199 33.9165 26.8427V21.1267C33.8909 19.8612 32.8152 18.8356 31.4878 18.8356C30.8238 18.8356 30.2859 19.3484 30.2859 19.9815V20.4393C30.2859 19.1738 29.2102 18.1482 27.8828 18.1482C27.2188 18.1482 26.6809 18.661 26.6809 19.2941V19.7519C26.6809 18.4864 25.6052 17.4608 24.2779 17.4608C23.6138 17.4608 23.076 17.9736 23.076 18.6067V19.0645C23.076 18.8611 23.0542 18.6994 23.0122 18.5713L22.6456 12.6684C22.5961 11.8702 21.9233 11.25 21.1409 11.25C20.353 11.25 19.7242 11.8841 19.7242 12.6664V18.3333V25.4167ZM29.6667 24H31.0833V29.6667H29.6667V24ZM26.8333 24H28.25V29.6667H26.8333V24ZM24 24H25.4167V29.6667H24V24Z"/>
</mask>
<path fill-rule="evenodd" clip-rule="evenodd" d="M19.7242 25.4167L18.4682 23.4975C17.6106 22.1872 15.7837 21.7091 14.3864 22.4274L14.712 22.2601C14.3652 22.4383 14.1989 22.8828 14.3417 23.2522L16.0803 27.7505C16.356 28.4636 17.0599 29.4721 17.6432 29.9788C17.6432 29.9788 21.1409 32.8738 21.1409 33.9592V35.3333H26.8076L28.2242 32.5L29.6409 35.3333H31.0576V33.9592C31.0576 32.8738 33.1951 29.4551 33.1951 29.4551C33.5886 28.7906 33.9165 27.6199 33.9165 26.8427V21.1267C33.8909 19.8612 32.8152 18.8356 31.4878 18.8356C30.8238 18.8356 30.2859 19.3484 30.2859 19.9815V20.4393C30.2859 19.1738 29.2102 18.1482 27.8828 18.1482C27.2188 18.1482 26.6809 18.661 26.6809 19.2941V19.7519C26.6809 18.4864 25.6052 17.4608 24.2779 17.4608C23.6138 17.4608 23.076 17.9736 23.076 18.6067V19.0645C23.076 18.8611 23.0542 18.6994 23.0122 18.5713L22.6456 12.6684C22.5961 11.8702 21.9233 11.25 21.1409 11.25C20.353 11.25 19.7242 11.8841 19.7242 12.6664V18.3333V25.4167ZM29.6667 24H31.0833V29.6667H29.6667V24ZM26.8333 24H28.25V29.6667H26.8333V24ZM24 24H25.4167V29.6667H24V24Z" fill="white"/>
<path d="M19.7242 25.4167L18.5389 26.1925L21.1409 30.1682V25.4167H19.7242ZM18.4682 23.4975L19.6535 22.7217V22.7217L18.4682 23.4975ZM14.3417 23.2522L13.0203 23.7629L14.3417 23.2522ZM16.0803 27.7505L17.4017 27.2398L16.0803 27.7505ZM17.6432 29.9788L16.7143 31.0484L16.727 31.0594L16.7399 31.0701L17.6432 29.9788ZM21.1409 35.3333H19.7242V36.75H21.1409V35.3333ZM26.8076 35.3333V36.75H27.6831L28.0747 35.9669L26.8076 35.3333ZM28.2242 32.5L29.4913 31.8664L28.2242 29.3322L26.9571 31.8664L28.2242 32.5ZM29.6409 35.3333L28.3738 35.9669L28.7653 36.75H29.6409V35.3333ZM31.0576 35.3333V36.75H32.4742V35.3333H31.0576ZM33.1951 29.4551L34.3963 30.2062L34.4054 30.1916L34.4141 30.1769L33.1951 29.4551ZM33.9165 21.1267H35.3332V21.1124L35.3329 21.098L33.9165 21.1267ZM23.0122 18.5713L21.5983 18.6591L21.6095 18.8402L21.6661 19.0126L23.0122 18.5713ZM22.6456 12.6684L21.2317 12.7562L22.6456 12.6684ZM19.7242 12.6664H18.3076H19.7242ZM31.0833 24H32.5V22.5833H31.0833V24ZM31.0833 29.6667V31.0833H32.5V29.6667H31.0833ZM29.6667 29.6667H28.25V31.0833H29.6667V29.6667ZM28.25 24H29.6667V22.5833H28.25L28.25 24ZM28.25 29.6667V31.0833H29.6667V29.6667H28.25ZM26.8333 29.6667H25.4167V31.0833H26.8333V29.6667ZM25.4167 24H26.8333V22.5833H25.4167L25.4167 24ZM25.4167 29.6667V31.0833H26.8333V29.6667H25.4167ZM24 29.6667H22.5833V31.0833H24V29.6667ZM20.9096 24.6409L19.6535 22.7217L17.2828 24.2733L18.5389 26.1925L20.9096 24.6409ZM19.6535 22.7217C18.3961 20.8005 15.7765 20.1199 13.7387 21.1675L15.0341 23.6874C15.791 23.2983 16.825 23.5738 17.2828 24.2733L19.6535 22.7217ZM15.0341 23.6874L15.3597 23.52L14.0643 21.0001L13.7387 21.1675L15.0341 23.6874ZM14.0643 21.0001C13.0595 21.5167 12.622 22.7324 13.0203 23.7629L15.6631 22.7415C15.7277 22.9085 15.7136 23.0644 15.6704 23.1801C15.6273 23.2955 15.5322 23.4313 15.3597 23.52L14.0643 21.0001ZM13.0203 23.7629L14.7589 28.2612L17.4017 27.2398L15.6631 22.7415L13.0203 23.7629ZM14.7589 28.2612C15.117 29.1875 15.9546 30.3886 16.7143 31.0484L18.5722 28.9092C18.1652 28.5557 17.595 27.7397 17.4017 27.2398L14.7589 28.2612ZM17.6432 29.9788C16.7399 31.0701 16.7398 31.07 16.7398 31.07C16.7398 31.07 16.7397 31.0699 16.7397 31.0699C16.7397 31.0699 16.7397 31.0699 16.7398 31.07C16.7399 31.0701 16.7403 31.0704 16.7409 31.0709C16.742 31.0718 16.744 31.0735 16.7467 31.0758C16.7522 31.0804 16.7609 31.0876 16.7726 31.0974C16.7958 31.1169 16.8309 31.1464 16.8761 31.1848C16.9665 31.2616 17.097 31.3737 17.2542 31.5119C17.5699 31.7896 17.9864 32.1668 18.399 32.5723C18.8178 32.984 19.203 33.396 19.4737 33.746C19.6097 33.9219 19.6923 34.0509 19.735 34.1326C19.7924 34.2425 19.7242 34.1633 19.7242 33.9592H22.5576C22.5576 33.4838 22.38 33.0766 22.2462 32.8205C22.0976 32.5361 21.9069 32.2609 21.7151 32.0128C21.3299 31.5147 20.8407 30.9994 20.3851 30.5516C19.9233 30.0977 19.4653 29.6833 19.1253 29.3843C18.9545 29.2341 18.8118 29.1115 18.7109 29.0258C18.6605 28.9829 18.6204 28.9492 18.5925 28.9258C18.5785 28.914 18.5675 28.9049 18.5598 28.8985C18.5559 28.8953 18.5529 28.8927 18.5506 28.8909C18.5495 28.8899 18.5486 28.8892 18.5479 28.8886C18.5476 28.8883 18.5473 28.8881 18.5471 28.8879C18.547 28.8878 18.5468 28.8877 18.5468 28.8876C18.5466 28.8875 18.5465 28.8874 17.6432 29.9788ZM19.7242 33.9592V35.3333H22.5576V33.9592H19.7242ZM21.1409 36.75H26.8076V33.9167H21.1409V36.75ZM28.0747 35.9669L29.4913 33.1336L26.9571 31.8664L25.5404 34.6998L28.0747 35.9669ZM26.9571 33.1336L28.3738 35.9669L30.908 34.6998L29.4913 31.8664L26.9571 33.1336ZM29.6409 36.75H31.0576V33.9167H29.6409V36.75ZM32.4742 35.3333V33.9592H29.6409V35.3333H32.4742ZM32.4742 33.9592C32.4742 34.0099 32.4897 33.8372 32.696 33.35C32.8716 32.9354 33.1155 32.4503 33.3731 31.9729C33.6283 31.4999 33.8851 31.0563 34.0792 30.7296C34.1759 30.5668 34.2562 30.4342 34.3119 30.3431C34.3397 30.2976 34.3614 30.2625 34.3758 30.2391C34.383 30.2275 34.3884 30.2188 34.3919 30.2133C34.3936 30.2105 34.3948 30.2085 34.3956 30.2073C34.3959 30.2067 34.3962 30.2063 34.3963 30.2061C34.3964 30.206 34.3964 30.206 34.3964 30.206C34.3964 30.206 34.3964 30.206 34.3964 30.206C34.3963 30.2061 34.3963 30.2062 33.1951 29.4551C31.9939 28.7041 31.9938 28.7042 31.9938 28.7043C31.9937 28.7043 31.9936 28.7045 31.9936 28.7046C31.9934 28.7048 31.9933 28.7051 31.9931 28.7054C31.9927 28.706 31.9921 28.7069 31.9915 28.7079C31.9902 28.71 31.9883 28.7129 31.986 28.7167C31.9814 28.7241 31.9748 28.7348 31.9663 28.7484C31.9494 28.7757 31.9252 28.8151 31.8946 28.8652C31.8334 28.9653 31.7467 29.1083 31.643 29.2829C31.4362 29.6311 31.1588 30.11 30.8796 30.6274C30.6028 31.1403 30.3122 31.7134 30.0871 32.245C29.8926 32.7042 29.6409 33.3658 29.6409 33.9592H32.4742ZM34.4141 30.1769C34.6943 29.7037 34.9162 29.1186 35.0685 28.5698C35.2205 28.0219 35.3332 27.4012 35.3332 26.8427H32.4998C32.4998 27.0614 32.4486 27.4146 32.3382 27.8125C32.2281 28.2095 32.0894 28.542 31.9761 28.7333L34.4141 30.1769ZM35.3332 26.8427V21.1267H32.4998V26.8427H35.3332ZM35.3329 21.098C35.2907 19.0159 33.54 17.4189 31.4878 17.4189V20.2523C32.0903 20.2523 32.491 20.7065 32.5001 21.1554L35.3329 21.098ZM31.4878 17.4189C30.1058 17.4189 28.8693 18.5031 28.8693 19.9815H31.7026C31.7026 20.0783 31.6591 20.1548 31.6154 20.1965C31.573 20.237 31.5247 20.2523 31.4878 20.2523V17.4189ZM28.8693 19.9815V20.4393H31.7026V19.9815H28.8693ZM31.7026 20.4393C31.7026 18.3285 29.9282 16.7315 27.8828 16.7315V19.5649C28.4922 19.5649 28.8693 20.0191 28.8693 20.4393H31.7026ZM27.8828 16.7315C26.5009 16.7315 25.2643 17.8157 25.2643 19.2941H28.0976C28.0976 19.3909 28.0541 19.4674 28.0105 19.5091C27.968 19.5495 27.9197 19.5649 27.8828 19.5649V16.7315ZM25.2643 19.2941V19.7519H28.0976V19.2941H25.2643ZM28.0976 19.7519C28.0976 17.6411 26.3232 16.0441 24.2779 16.0441V18.8775C24.8873 18.8775 25.2643 19.3317 25.2643 19.7519H28.0976ZM24.2779 16.0441C22.8959 16.0441 21.6593 17.1283 21.6593 18.6067H24.4926C24.4926 18.7034 24.4491 18.78 24.4055 18.8217C24.363 18.8621 24.3148 18.8775 24.2779 18.8775V16.0441ZM21.6593 18.6067V19.0645H24.4926V18.6067H21.6593ZM24.4926 19.0645C24.4926 18.7708 24.4626 18.4479 24.3584 18.13L21.6661 19.0126C21.6549 18.9787 21.6538 18.9628 21.6551 18.973C21.6564 18.9832 21.6593 19.0121 21.6593 19.0645H24.4926ZM24.4262 18.4835L24.0596 12.5806L21.2317 12.7562L21.5983 18.6591L24.4262 18.4835ZM24.0596 12.5806C23.9633 11.0305 22.6666 9.83333 21.1409 9.83333V12.6667C21.1534 12.6667 21.1759 12.6716 21.1999 12.6941C21.2227 12.7154 21.2305 12.7372 21.2317 12.7562L24.0596 12.5806ZM21.1409 9.83333C19.5673 9.83333 18.3076 11.105 18.3076 12.6664H21.1409V12.6667V9.83333ZM18.3076 12.6664V18.3333H21.1409V12.6664H18.3076ZM18.3076 18.3333V25.4167H21.1409V18.3333H18.3076ZM29.6667 25.4167H31.0833V22.5833L29.6667 22.5833V25.4167ZM29.6667 24V29.6667H32.5V24H29.6667ZM31.0833 28.25H29.6667V31.0833H31.0833V28.25ZM31.0833 29.6667V24H28.25V29.6667H31.0833ZM26.8333 25.4167H28.25L28.25 22.5833L26.8333 22.5833V25.4167ZM26.8333 24V29.6667H29.6667V24H26.8333ZM28.25 28.25H26.8333V31.0833H28.25V28.25ZM28.25 29.6667V24H25.4167V29.6667H28.25ZM24 25.4167H25.4167L25.4167 22.5833L24 22.5833V25.4167ZM24 24V29.6667H26.8333V24H24ZM25.4167 28.25H24V31.0833H25.4167V28.25ZM25.4167 29.6667V24H22.5833V29.6667H25.4167Z" fill="black" fill-opacity="0.8" mask="url(#path-1-outside-1_1218_882)"/>
</g>
<defs>
<filter id="filter0_d_1218_882" x="8.62402" y="6.99967" width="30.9592" height="35.417" filterUnits="userSpaceOnUse" color-interpolation-filters="sRGB">
<feFlood flood-opacity="0" result="BackgroundImageFix"/>
<feColorMatrix in="SourceAlpha" type="matrix" values="0 0 0 0 0 0 0 0 0 0 0 0 0 0 0 0 0 0 127 0" result="hardAlpha"/>
<feOffset dy="1.41667"/>
<feGaussianBlur stdDeviation="2.125"/>
<feColorMatrix type="matrix" values="0 0 0 0 0 0 0 0 0 0 0 0 0 0 0 0 0 0 0.2 0"/>
<feBlend mode="normal" in2="BackgroundImageFix" result="effect1_dropShadow_1218_882"/>
<feBlend mode="normal" in="SourceGraphic" in2="effect1_dropShadow_1218_882" result="shape"/>
</filter>
</defs>
</svg>
