<svg width="109" height="108" viewBox="0 0 109 108" fill="none" xmlns="http://www.w3.org/2000/svg">
<path fill-rule="evenodd" clip-rule="evenodd" d="M96.6171 33.9679C100.818 32.841 105.136 35.3501 106.26 39.5652C107.476 44.129 108.09 48.8484 108.084 53.5928C108.084 83.4908 83.8473 107.81 54.0512 107.81C24.2613 107.81 0.0185547 83.4908 0.0185547 53.5928C0.0185547 28.9995 16.5485 7.44449 40.2204 1.16852C44.4273 0.0478085 48.7398 2.5694 49.8505 6.79074C50.9611 11.0121 48.4543 15.3393 44.2474 16.4537C27.4816 20.893 15.7729 36.1658 15.7729 53.5928C15.7729 62.932 19.1174 71.5054 24.6584 78.1674C24.0317 76.2249 23.6842 74.1516 23.6842 71.9911C23.6842 60.8961 32.6504 51.9055 43.7014 51.9055C54.7586 51.9055 63.7185 60.9023 63.7185 71.9911C63.7185 81.5358 57.073 89.5115 48.1751 91.5537C50.0925 91.8525 52.0594 92.0082 54.0574 92.0082C75.1666 92.0082 92.3357 74.7804 92.3357 53.599C92.3357 50.2182 91.9014 46.8685 91.0389 43.6434C89.9158 39.4283 92.4164 35.0949 96.6171 33.9679ZM87.8682 17.9725C87.8682 25.2039 82.0262 31.0661 74.8192 31.0661C67.6121 31.0661 61.7702 25.2039 61.7702 17.9725C61.7702 10.7411 67.6121 4.87888 74.8192 4.87888C82.0262 4.87888 87.8682 10.7411 87.8682 17.9725Z" fill="#212121"/>
</svg>
