<svg width="46" height="30" viewBox="0 0 46 30" fill="none" xmlns="http://www.w3.org/2000/svg">
<path d="M28.7902 29.7256L25.4745 24.214L22.2273 29.7256H18.3396L23.3342 21.4241L18.2441 13.7171H22.3052L25.566 18.8627L28.676 13.7171H32.5633L27.5555 21.6756L32.7006 29.7256H28.7902Z" fill="white"/>
<path d="M45.3348 24.2828C45.3348 27.8046 42.6822 30 39.2062 30C36.142 30 33.562 28.3078 33.3105 24.6258H36.6263C36.8549 26.2266 38.1356 26.9127 39.5306 26.9127C41.2685 26.9127 42.0191 25.7464 42.0191 24.237C42.0191 22.659 40.8529 21.6757 39.2292 21.6757C37.88 21.6757 36.9882 22.316 36.5766 23.0021H33.4071L34.5028 13.7171H44.9274L44.5802 16.8274H37.1233L36.8273 19.9001C36.8273 19.9001 37.6108 18.9771 39.9839 18.9771C42.8424 18.9771 45.3348 20.8981 45.3348 24.2828Z" fill="white"/>
<path d="M33.7045 11.7234C31.9384 4.83769 26.3337 1.90735e-06 14.7047 1.90735e-06H0.664062L2.57006 12.8887C4.00385 24.5186 8.4516 28.2603 16.3225 29.6378C16.3596 29.6435 16.6078 29.6789 16.6116 29.3871C16.6128 29.2821 16.546 29.1915 16.4551 29.1531C11.1349 26.9127 10.5277 19.5667 9.39153 12.1944L8.51186 6.31974H16.5272C23.9172 6.31974 29.6218 6.20302 33.2348 11.9072C33.2889 11.9878 33.3722 12.0469 33.4712 12.0469C33.611 12.0469 33.7143 11.9335 33.7143 11.7936C33.7143 11.7693 33.7108 11.7458 33.7045 11.7234Z" fill="white"/>
</svg>
