<svg width="25" height="40" viewBox="0 0 25 40" fill="none" xmlns="http://www.w3.org/2000/svg">
<path d="M20.7773 13.8791C23.0454 11.5589 24.3126 8.43684 24.3053 5.18726V2.79427C24.3166 2.4315 24.2552 2.07014 24.1246 1.73165C23.994 1.39316 23.797 1.08444 23.5452 0.823809C23.2934 0.563178 22.9919 0.355954 22.6588 0.214439C22.3256 0.072923 21.9674 0 21.6056 0C21.2438 0 20.8857 0.072923 20.5525 0.214439C20.2193 0.355954 19.9179 0.563178 19.666 0.823809C19.4142 1.08444 19.2172 1.39316 19.0866 1.73165C18.9561 2.07014 18.8946 2.4315 18.906 2.79427V5.18726C18.9118 7.01684 18.1996 8.77522 16.9233 10.0823C16.3092 10.7159 15.5746 11.2196 14.7631 11.5636C13.9516 11.9075 13.0795 12.0847 12.1985 12.0847C11.3176 12.0847 10.4455 11.9075 9.63398 11.5636C8.82245 11.2196 8.08791 10.7159 7.47381 10.0823C6.19826 8.77495 5.48698 7.01652 5.49379 5.18726V2.79427C5.49379 2.07569 5.20923 1.38654 4.70269 0.878431C4.19616 0.37032 3.50915 0.0848661 2.79281 0.0848661C2.07646 0.0848661 1.38946 0.37032 0.882923 0.878431C0.37639 1.38654 0.0918228 2.07569 0.0918228 2.79427V5.18726C0.0854688 8.43716 1.35363 11.5592 3.62245 13.8791C5.22693 15.521 7.26582 16.6686 9.49889 17.1868V22.8901C7.26498 23.4106 5.22602 24.561 3.62245 26.2057C1.35339 28.5255 0.0851834 31.6476 0.0918228 34.8976V37.2906C0.0918228 38.0092 0.37639 38.6983 0.882923 39.2064C1.38946 39.7145 2.07646 40 2.79281 40C3.50915 40 4.19616 39.7145 4.70269 39.2064C5.20923 38.6983 5.49379 38.0092 5.49379 37.2906V34.8976C5.48669 33.0683 6.19802 31.3098 7.47381 30.0026C8.08791 29.3689 8.82245 28.8653 9.63398 28.5213C10.4455 28.1774 11.3176 28.0002 12.1985 28.0002C13.0795 28.0002 13.9516 28.1774 14.7631 28.5213C15.5746 28.8653 16.3092 29.3689 16.9233 30.0026C18.2001 31.3093 18.9124 33.0679 18.906 34.8976V37.2906C18.9279 37.9941 19.222 38.6615 19.7259 39.1513C20.2298 39.6412 20.9039 39.9151 21.6056 39.9151C22.3073 39.9151 22.9815 39.6412 23.4854 39.1513C23.9892 38.6615 24.2833 37.9941 24.3053 37.2906V34.8976C24.3129 31.648 23.0456 28.5258 20.7773 26.2057C19.1729 24.5621 17.1343 23.4119 14.9009 22.8901V17.1868C17.1341 16.666 19.1728 15.5167 20.7773 13.8738" fill="white"/>
<path d="M12.1991 39.4203C13.1241 39.4203 14.0283 39.1451 14.7974 38.6295C15.5664 38.1139 16.1657 37.3811 16.5194 36.5237C16.8732 35.6664 16.9655 34.7231 16.7846 33.8131C16.6038 32.9031 16.1579 32.0674 15.5035 31.4117C14.849 30.7559 14.0154 30.3096 13.1081 30.1293C12.2007 29.9489 11.2604 30.0425 10.4062 30.3983C9.55187 30.7542 8.822 31.3562 8.30886 32.1282C7.79573 32.9002 7.52239 33.8075 7.52344 34.7354C7.52344 35.9793 8.01605 37.1723 8.89292 38.0519C9.76978 38.9315 10.9591 39.4257 12.1991 39.4257" fill="white"/>
</svg>
