<svg width="293" height="50" viewBox="0 0 293 50" fill="none" xmlns="http://www.w3.org/2000/svg">
<path d="M24.1493 48.3061C10.8124 48.3061 0 37.4989 0 24.1668C0 10.8364 10.8124 0.0292969 24.1493 0.0292969C37.4879 0.0292969 48.3003 10.8364 48.3003 24.1668C48.3003 37.4989 37.4879 48.3061 24.1493 48.3061ZM24.1493 46.4222C36.4463 46.4222 46.4155 36.4579 46.4155 24.1668C46.4155 11.8775 36.4463 1.91323 24.1493 1.91323C11.854 1.91323 1.88485 11.8775 1.88485 24.1668C1.88485 36.4579 11.854 46.4222 24.1493 46.4222Z" fill="black"/>
<path d="M24.1957 26.2866C25.3423 26.2866 26.2717 25.3584 26.2717 24.2134C26.2717 23.0683 25.3423 22.1401 24.1957 22.1401C23.0492 22.1401 22.1197 23.0683 22.1197 24.2134C22.1197 25.3584 23.0492 26.2866 24.1957 26.2866Z" fill="black"/>
<path d="M80.6679 33.6399C78.976 33.6399 77.4485 33.2524 76.0889 32.4792C74.7469 31.7229 73.6401 30.6105 72.8909 29.2649C72.1173 27.8953 71.7296 26.3596 71.7296 24.6631C71.7296 22.9649 72.1173 21.431 72.8909 20.0596C73.6425 18.7115 74.754 17.5987 76.1014 16.8453C77.4699 16.0721 78.9992 15.6846 80.6929 15.6846C81.9614 15.6846 83.1352 15.9042 84.2089 16.3399C85.257 16.7587 86.1934 17.4153 86.9442 18.2578L85.7972 19.4417C84.4626 18.0471 82.7779 17.3489 80.7412 17.3489C79.3905 17.3489 78.1613 17.6703 77.0536 18.3078C75.9644 18.9294 75.0657 19.8364 74.4542 20.931C73.8271 22.0381 73.5126 23.2846 73.5126 24.6631C73.5126 26.0417 73.8271 27.2846 74.4542 28.3953C75.0795 29.5042 75.9477 30.3774 77.0536 31.0167C78.1613 31.656 79.3905 31.9756 80.7412 31.9756C82.7939 31.9756 84.4787 31.2703 85.7972 29.8578L86.9442 31.0417C86.1956 31.8828 85.2791 32.5256 84.1964 32.9703C83.0758 33.4235 81.8767 33.6511 80.6679 33.6399ZM98.0782 15.8364H99.8844V33.4881H98.0782V15.8364ZM127.014 15.8364V33.4881H125.524L114.534 19.1649V33.4881H112.726V15.8364H114.216L125.231 30.1596V15.8364H127.014ZM139.856 15.8364H146.814C148.622 15.8364 150.218 16.2114 151.603 16.9578C152.952 17.6729 154.07 18.7575 154.826 20.0846C155.59 21.4221 155.972 22.9471 155.972 24.6631C155.972 26.3774 155.59 27.9024 154.826 29.2399C154.07 30.5664 152.952 31.6503 151.603 32.3649C150.218 33.1149 148.622 33.4899 146.814 33.4899H139.856V15.8346V15.8364ZM146.716 31.8739C148.217 31.8739 149.526 31.5685 150.65 30.9542C151.744 30.369 152.65 29.4861 153.262 28.4078C153.88 27.3221 154.191 26.0739 154.191 24.6631C154.191 23.2506 153.88 22.0024 153.262 20.9167C152.65 19.8384 151.744 18.9555 150.65 18.3703C149.525 17.7578 148.215 17.4506 146.718 17.4506H141.662V31.8739H146.718H146.716ZM167.301 15.8364H169.109V33.4881H167.301V15.8364ZM189.374 33.6399C187.681 33.6399 186.155 33.2524 184.795 32.4792C183.453 31.7229 182.347 30.6105 181.597 29.2649C180.824 27.8953 180.436 26.3596 180.436 24.6631C180.436 22.9649 180.824 21.431 181.597 20.0596C182.349 18.7115 183.461 17.5987 184.808 16.8453C186.175 16.0721 187.706 15.6846 189.4 15.6846C190.668 15.6846 191.842 15.9042 192.916 16.3399C193.964 16.7587 194.9 17.4153 195.651 18.2578L194.504 19.4417C193.167 18.0471 191.484 17.3489 189.448 17.3489C188.097 17.3489 186.868 17.6703 185.76 18.3078C184.67 18.9292 183.771 19.8362 183.159 20.931C182.534 22.0381 182.219 23.2846 182.219 24.6631C182.219 26.0417 182.534 27.2846 183.159 28.3953C183.786 29.5042 184.653 30.3774 185.76 31.0167C186.868 31.656 188.097 31.9756 189.448 31.9756C191.499 31.9756 193.183 31.2703 194.504 29.8578L195.651 31.0417C194.9 31.8828 193.986 32.5256 192.903 32.9703C191.782 33.4235 190.583 33.6511 189.374 33.6399ZM217.067 28.7721H207.54L205.489 33.4881H203.608L211.424 15.8364H213.206L221.02 33.4881H219.116L217.065 28.7739L217.067 28.7721ZM216.406 27.2596L212.304 17.7774L208.2 27.2596H216.406ZM233.594 17.4506H227.588V15.8364H241.409V17.4506H235.402V33.4881H233.594V17.4506ZM258.794 33.6399C257.1 33.6399 255.566 33.2489 254.19 32.4667C252.841 31.7113 251.726 30.5992 250.967 29.2524C250.193 27.8899 249.806 26.3596 249.806 24.6631C249.806 22.9649 250.193 21.4346 250.967 20.0739C251.726 18.7264 252.841 17.6137 254.19 16.8578C255.566 16.0756 257.102 15.6846 258.794 15.6846C260.488 15.6846 262.013 16.0721 263.373 16.8453C264.717 17.6034 265.827 18.7151 266.584 20.0596C267.366 21.431 267.756 22.9649 267.756 24.6631C267.756 26.3596 267.366 27.8953 266.584 29.2649C265.827 30.6094 264.717 31.7211 263.373 32.4792C262.013 33.2524 260.488 33.6399 258.794 33.6399ZM258.794 31.9756C260.145 31.9756 261.367 31.6596 262.457 31.0292C263.538 30.4094 264.426 29.5019 265.022 28.4078C265.64 27.2899 265.949 26.0417 265.949 24.6631C265.949 23.2846 265.64 22.0364 265.02 20.9167C264.425 19.8228 263.537 18.9154 262.457 18.2953C261.342 17.6584 260.078 17.3316 258.794 17.3489C257.443 17.3489 256.218 17.6649 255.119 18.2953C254.03 18.914 253.134 19.8212 252.528 20.9167C251.895 22.0627 251.572 23.3541 251.591 24.6631C251.591 26.0417 251.903 27.2881 252.53 28.4078C253.156 29.5256 254.02 30.3989 255.119 31.0292C256.218 31.6596 257.442 31.9756 258.794 31.9756ZM290.758 33.4881L286.851 27.8149C286.396 27.866 285.939 27.891 285.482 27.8899H280.891V33.4881H279.086V15.8364H285.482C287.665 15.8364 289.373 16.3739 290.611 17.4506C291.849 18.5256 292.468 20.0042 292.468 21.8881C292.468 23.2667 292.128 24.431 291.455 25.381C290.777 26.331 289.813 27.0167 288.56 27.4364L292.736 33.4899H290.758V33.4881ZM285.434 26.3024C287.128 26.3024 288.421 25.9149 289.318 25.1417C290.211 24.3685 290.66 23.2846 290.66 21.8881C290.66 20.4596 290.213 19.3631 289.318 18.5971C288.421 17.8328 287.128 17.4506 285.434 17.4506H280.892V26.3024H285.434Z" fill="black"/>
</svg>
