<svg width="259" height="75" viewBox="0 0 259 75" fill="none" xmlns="http://www.w3.org/2000/svg">
<g clip-path="url(#clip0_2344_86818)">
<path fill-rule="evenodd" clip-rule="evenodd" d="M60.7255 33.6912L59.1921 33.1329L58.3319 32.8254C58.1074 31.5492 57.654 30.3239 56.9932 29.2083L57.2527 28.3991L57.7558 26.8859L56.133 26.9669L55.0377 27.0235C54.6578 26.7392 54.2563 26.4848 53.8368 26.2628L53.6744 25.397L53.3905 23.8273L52.003 24.6769L50.9805 25.3C50.5993 25.2271 50.1691 25.1624 49.7879 25.1138V25.0572L49.9421 23.4388L48.5058 23.8435H48.3516C47.5402 21.9014 45.0005 18.4299 40.3025 20.3882L40.4729 19.8865L40.976 18.3733L39.3532 18.4542H39.1585C38.9474 18.2196 38.6797 17.9848 38.1604 17.467L37.8035 17.2162L37.6005 17.1433L36.1238 14.3921V14.4487L36.0183 14.1899L34.8418 15.3065L34.0304 16.0752C33.2911 15.9745 32.5433 15.9501 31.799 16.0025L31.0849 15.2579L29.9734 14.1089L29.2918 15.5735L28.8212 16.5608C27.9047 16.8359 27.0141 17.1906 26.1598 17.6207L24.9994 17.1514L23.5146 16.5608V18.1792V19.2553C22.7898 19.7928 22.1427 20.4271 21.5916 21.1407L20.2852 21.254L18.6624 21.3997L19.3846 22.8562L20.0661 24.2156C19.9678 24.561 19.8919 24.9125 19.839 25.2675V25.5589L18.8004 26.2386L17.4615 27.1125L18.7841 28.0593L19.7902 28.7713C19.8361 29.3307 19.912 29.8871 20.0174 30.4382L19.4171 30.8995L18.1593 31.8786L19.5549 32.6878L20.0661 32.9872C19.6655 33.9821 19.4061 35.028 19.2954 36.0944C19.2522 36.8114 19.3122 37.5308 19.4738 38.2307C19.516 38.4209 19.573 38.6077 19.6443 38.7891C19.6443 38.7891 19.6443 38.8376 19.6443 38.8538C19.9349 39.558 20.4014 40.1763 20.9993 40.6502C20.8532 41.0548 20.7152 41.4594 20.6016 41.8235L19.7091 42.2686L18.3702 42.932L19.5063 43.9598L20.0255 44.4292C19.9575 44.7972 19.933 45.172 19.9526 45.5457L19.0599 46.2254L17.8672 47.1237L19.1655 47.9329L20.3582 48.6611C20.4474 48.9525 20.5611 49.2356 20.6747 49.4703L20.1797 50.7651L19.5955 52.2459H22.5085C22.8005 52.5694 23.1171 52.8769 23.4416 53.1764V54.4549V56.0733L24.9508 55.4583L25.7622 55.1185C26.281 55.4898 26.823 55.8276 27.3849 56.1299L27.6609 57.1091L28.091 58.6384L29.3891 57.6593L30.014 57.198C30.546 57.3328 31.0891 57.4194 31.6368 57.457L32.221 58.1771L33.2271 59.4153L34.0385 58.0072L34.5335 57.1495H34.574C34.8499 57.0686 35.1258 56.9715 35.3854 56.8662H35.4747L36.0346 57.1818L37.4869 58.0395L37.8683 56.0814L37.9738 55.4016L38.2577 55.1427L39.6859 55.345L41.1707 55.5553L40.8218 54.0746L40.5541 52.9256C40.8868 52.5613 41.1058 52.3267 41.1951 52.3267C43.3047 52.1568 47.3293 52.9579 48.6519 48.2241L49.4633 48.9444L50.6641 49.9963L51.224 48.475L51.6216 47.3907C52.0516 47.2394 52.4693 47.0555 52.8712 46.8405L53.9341 47.0914L55.4921 47.4636L55.2649 45.8452L55.1674 45.0927L55.2486 45.0198C56.0719 44.1745 56.7565 43.205 57.2771 42.1472L58.1615 41.9286L59.7113 41.5322L58.8432 40.2294L58.2913 39.4607C58.4033 38.9671 58.4845 38.4672 58.5347 37.9637C58.5347 37.9637 58.6321 36.8955 58.6077 36.3453V36.0378L59.6383 34.8645L60.7255 33.6912ZM30.4683 15.8891H30.3952V15.8487L30.4683 15.8891ZM29.4379 23.366C31.5357 22.4244 33.8397 22.0318 36.1319 22.225C36.4077 22.225 36.6755 22.2897 36.9433 22.3384H37.0974H37.1543L37.4627 22.4031L37.7629 22.484C39.0553 22.8 40.1902 23.5699 40.9597 24.6527C42.0308 26.2709 41.6413 28.3506 40.1483 30.1713C40.4391 29.6526 40.587 29.0665 40.577 28.4724C40.5669 27.8784 40.3995 27.2975 40.0916 26.7888C38.6473 24.5555 34.4604 24.07 30.728 25.7045C26.9955 27.3391 25.1537 30.4869 26.5979 32.7282C27.2213 33.5994 28.1365 34.2193 29.1782 34.4762C26.9955 34.2576 25.178 33.408 24.2611 31.9839C22.5327 29.2649 24.821 25.3809 29.4297 23.3579L29.4379 23.366ZM46.4286 35.0021C46.6883 38.4168 45.1304 41.597 42.9396 42.1149C41.3168 42.5032 39.7427 41.2489 38.9799 39.129L38.8501 40.9172C38.9676 41.1318 39.0654 41.3566 39.1422 41.5888L40.5622 42.6651L38.9962 44.0407C38.1848 45.303 35.9777 45.3111 33.933 44.0002C31.7422 42.5841 30.5252 40.1647 31.2149 38.611C31.3367 38.3396 31.5169 38.0982 31.7426 37.9039C31.9684 37.7095 32.2341 37.5669 32.5212 37.4863L34.0304 36.2158L35.2151 37.6481C35.3706 37.7734 35.5462 37.8719 35.7343 37.9395H35.7749L36.1238 38.1256H36.4402L36.7566 38.344L38.8258 38.4574C38.7608 38.2307 38.7041 37.9961 38.6554 37.7533V37.7047V37.6158L38.5824 37.1626V37.2758V37.1869V37.0978C38.5864 37.0656 38.5864 37.033 38.5824 37.0008V36.9604C38.5013 33.7235 40.0185 30.8348 42.0957 30.3412C44.1729 29.8476 46.1608 31.6115 46.4205 34.994L46.4286 35.0021ZM32.5536 30.9562C34.501 30.1065 36.6918 30.3574 37.4221 31.5226C37.5956 31.7956 37.6831 32.1139 37.6736 32.4369C37.6112 32.9154 37.4369 33.3727 37.1649 33.7719C36.8929 34.1711 36.5308 34.501 36.1076 34.735C35.8507 34.9112 35.5792 35.0656 35.2962 35.1963C33.3407 36.0055 31.158 35.7951 30.4277 34.6299C29.6974 33.4647 30.5982 31.7978 32.5455 30.9399L32.5536 30.9562ZM44.4002 51.2587C43.7855 51.277 43.1826 51.0889 42.688 50.7245C42.7911 50.3233 42.7606 49.8995 42.601 49.5172C42.4415 49.1347 42.1616 48.8145 41.8036 48.6045C41.8036 48.7258 41.8036 48.8472 41.8036 48.9606L41.5602 50.7893C41.4952 50.9754 41.4304 51.1615 41.3493 51.3476C41.0192 52.0675 40.5176 52.6959 39.8883 53.1783C39.2591 53.6607 38.521 53.9823 37.7385 54.1151H37.7466H37.6249H37.5519H37.4463H37.349H37.2435H37.1624H37.0407H36.9352H36.7649H36.1238C33.6112 54.0178 31.1777 53.2125 29.1052 51.7927C23.9527 48.6045 21.1047 42.9402 22.7357 39.2746C22.7512 39.2326 22.7702 39.192 22.7924 39.1532C22.6481 39.3354 22.4615 39.4798 22.2488 39.5739C21.8755 39.7439 20.7883 39.0237 20.2041 37.9557C20.1473 37.8423 20.0905 37.7371 20.0418 37.6239V37.5833V37.4621V37.4215V37.3568V37.2516V37.2111V37.1707V36.8713V36.8147V36.7337C20.064 36.2718 20.1883 35.8205 20.4057 35.4121C20.6231 35.0036 20.9283 34.6481 21.2995 34.3709C21.7701 34.0311 22.1677 35.3986 22.7763 35.3743C24.7316 33.5779 25.7297 34.8322 25.7785 36.5476C25.7785 37.1384 25.1212 36.6042 24.8777 37.114C24.8396 37.2435 24.8396 37.3811 24.8777 37.5106C25.9984 36.899 27.2705 36.6183 28.5452 36.7014L28.9591 37.6724L30.2249 36.9036C31.1006 37.0826 31.9546 37.3538 32.7727 37.7128C30.3385 37.1465 28.1883 37.8019 27.3769 39.6145C26.2166 42.2281 28.2532 46.2741 31.9288 48.645C35.6046 51.0158 39.5318 50.8217 40.7002 48.208C41.1333 47.0856 41.1333 45.8428 40.7002 44.7204C41.3737 45.8772 41.8197 47.1515 42.0146 48.475C42.6638 47.9248 43.5482 47.5121 42.9802 46.3792C44.3758 46.0232 45.4144 46.533 45.7957 47.9976C45.6503 47.8506 45.4753 47.7356 45.2825 47.6604C45.0896 47.585 44.8829 47.5511 44.676 47.5606C44.4284 47.5917 44.1947 47.6928 44.003 47.8522C43.8112 48.0114 43.6692 48.2222 43.5937 48.4594C43.5183 48.6968 43.5126 48.9506 43.5772 49.1911C43.6421 49.4314 43.7744 49.6483 43.9589 49.8161C44.1433 49.9837 44.3721 50.0952 44.6182 50.1373C44.8642 50.1794 45.1171 50.1503 45.3471 50.0534C45.577 49.9567 45.7744 49.7962 45.9156 49.5911C46.0571 49.3858 46.1365 49.1446 46.1446 48.8957C46.5666 48.8957 47.3618 48.7502 47.3618 48.7906C47.2598 49.4938 46.8994 50.1341 46.3506 50.5872C45.8019 51.0404 45.1038 51.2739 44.3921 51.2425L44.4002 51.2587ZM47.4429 46.1203C45.6254 46.5491 43.8971 45.7886 42.5744 44.2106C43.0325 44.5181 43.5489 44.7291 44.0915 44.8307C44.6343 44.9322 45.1921 44.9222 45.7308 44.8013C48.9764 44.073 51.2727 39.5901 50.8913 34.7998C50.5099 30.0094 47.5971 26.7079 44.4002 27.4442C43.5182 27.662 42.7112 28.1119 42.0633 28.747C42.5869 27.8923 43.2634 27.1408 44.0593 26.5299C43.936 26.5519 43.8113 26.5653 43.686 26.5704C43.5076 26.5704 43.183 26.6352 43.2236 26.5057C43.5563 25.575 42.5826 24.5878 40.9111 24.2076C43.9619 23.4388 42.4365 21.8528 42.2093 21.3025C41.9821 20.7523 43.0613 20.7927 43.5644 20.7846C44.327 20.776 45.0619 21.0693 45.6079 21.6003C46.1539 22.1312 46.4667 22.8564 46.4774 23.6168C46.4946 24.0043 46.4316 24.3912 46.2919 24.7532C46.1523 25.1153 45.9392 25.4447 45.666 25.7207L45.9499 25.648C49.5769 24.7901 52.863 28.6824 53.2932 34.3386C53.7232 39.9948 51.0618 45.2545 47.4348 46.1042L47.4429 46.1203Z" fill="#314B98"/>
<path fill-rule="evenodd" clip-rule="evenodd" d="M69.8537 36.3689C69.7773 27.8581 66.395 19.7082 60.4178 13.6328C54.4408 7.55733 46.3346 4.02958 37.8033 3.79117V0.0527344H36.1236V3.81544C27.5647 4.01264 19.4184 7.5225 13.4081 13.6025C7.39774 19.6825 3.99475 27.8558 3.91908 36.3932H0V38.0116H3.93531C4.2772 46.3654 7.79446 54.2761 13.7728 60.1375C19.7511 65.9988 27.7425 69.3713 36.1236 69.5698V74.0608H37.8033V69.5618C46.1579 69.3284 54.1121 65.94 60.0573 60.0817C66.0027 54.2232 69.4953 46.3319 69.8294 38.0035H73.7322V36.3851L69.8537 36.3689ZM63.8736 37.9873H68.1822C67.8533 45.8838 64.5365 53.3628 58.8996 58.9181C53.2629 64.4734 45.7247 67.6926 37.8033 67.9272V63.1691C37.2516 63.1691 36.6755 63.1691 36.1236 63.1691V67.8868C28.1734 67.696 20.5938 64.4958 14.9232 58.9354C9.25254 53.375 5.91593 45.8711 5.59056 37.9469H10.2156C10.2156 37.4937 10.2156 36.9516 10.2643 36.3285H5.56623C5.65216 28.2336 8.88618 20.4883 14.5866 14.7249C20.2871 8.96159 28.0086 5.6305 36.1236 5.43381V9.28554C36.5456 9.28554 37.1298 9.24508 37.7952 9.28554V6.43722V5.47429C45.8881 5.71231 53.5744 9.06572 59.2425 14.8314C64.9106 20.5972 68.1202 28.3273 68.1984 36.4014H63.7925C63.8331 36.7979 63.8736 37.3561 63.8736 37.9631V37.9873Z" fill="#314B98"/>
<path d="M93.214 5.54004H107.251L106.075 9.01145H97.3197V31.2317H93.214V5.54004Z" fill="#314B98"/>
<path d="M110.692 5.54004H124.331L123.155 9.01145H114.83V16.4155H123.163V19.8869H114.83V27.7603H124.485V31.2317H110.692V5.54004Z" fill="#314B98"/>
<path d="M128.867 18.4868C128.867 10.6863 134.222 5.30518 141.728 5.30518C149.233 5.30518 154.548 10.7672 154.548 18.4868C154.548 26.4331 149.072 31.6199 141.728 31.6199C134.385 31.6199 128.867 26.4006 128.867 18.4868ZM150.206 18.4868C150.206 12.6769 146.961 8.7766 141.728 8.7766C136.64 8.7766 133.24 12.4827 133.24 18.4868C133.24 24.491 136.64 28.1485 141.728 28.1485C146.815 28.1485 150.206 24.491 150.206 18.4868Z" fill="#314B98"/>
<path d="M159.976 5.54004H164.081V16.3751H176.983V5.54004H181.089V31.2317H176.983V19.8464H164.081V31.2317H159.976V5.54004Z" fill="#314B98"/>
<path d="M194.728 5.42627H197.901L208.141 31.2312H203.727L201.18 24.6444H191.605L189.17 31.2312H184.87L194.728 5.42627ZM199.889 21.2863L197.78 15.444C197.074 13.3401 196.684 12.2072 196.408 11.309H196.336C195.936 12.7106 195.466 14.0907 194.923 15.444L192.814 21.2863H199.889Z" fill="#314B98"/>
<path d="M221.545 28.4235C214.745 27.9137 210.714 24.6041 210.714 18.3652C210.714 12.1264 214.859 8.69547 221.545 8.19376V4.95703H225.651V8.19376C232.337 8.73592 236.403 12.2883 236.403 18.3652C236.403 24.6445 232.345 27.9137 225.651 28.4235V31.9353H221.545V28.4235ZM221.545 11.6976C217.326 12.0536 214.9 14.1979 214.9 18.3652C214.9 22.5325 217.131 24.5635 221.545 24.8791V11.6976ZM232.215 18.3652C232.215 14.3921 230.025 12.086 225.651 11.738V24.8791C229.87 24.5635 232.215 22.6539 232.215 18.3652Z" fill="#314B98"/>
<path d="M246.716 9.01145H239.25V5.54004H258.992L257.824 9.01145H250.822V31.2317H246.716V9.01145Z" fill="#314B98"/>
<path d="M92.7517 47.5205H101.896L101.036 50.0451H95.6079V60.516H92.7435L92.7517 47.5205Z" fill="#314B98"/>
<path d="M103.99 48.0138C105.502 47.4829 107.093 47.2094 108.696 47.2046C113.191 47.2046 115.641 49.786 115.641 53.9937C115.641 58.0396 112.915 60.807 108.947 60.807C108.234 60.8047 107.527 60.6845 106.854 60.451V67.0458H103.99V48.0138ZM108.752 58.4037C111.349 58.4037 112.696 56.6478 112.696 53.9531C112.696 50.951 111.073 49.5836 108.59 49.5836C108.003 49.5792 107.418 49.661 106.854 49.8264V57.991C107.446 58.2727 108.096 58.4138 108.752 58.4037Z" fill="#314B98"/>
<path d="M125.418 61.1226C123.52 66.3418 121.426 67.0296 119.138 67.0296C118.2 67.0448 117.27 66.8572 116.412 66.4794L117.126 64.1974C117.714 64.4976 118.364 64.6582 119.025 64.6668C120.566 64.6668 121.808 63.623 122.83 60.4914L116.988 47.5444H120.071L124.128 57.1657H124.185L127.431 47.5444H130.409L125.418 61.1226Z" fill="#314B98"/>
<path d="M132.356 47.5205H143.383V60.516H140.519V50.0451H135.22V60.516H132.356V47.5205Z" fill="#314B98"/>
<path d="M146.848 47.5205H157.834V60.516H154.97V50.0451H149.72V60.516H146.856L146.848 47.5205Z" fill="#314B98"/>
<path d="M168.667 59.1969C168.17 59.703 167.578 60.1065 166.926 60.3842C166.273 60.662 165.571 60.8084 164.861 60.8153C164.305 60.8506 163.746 60.7694 163.223 60.5764C162.7 60.3835 162.223 60.0832 161.823 59.6952C161.423 59.3071 161.109 58.8398 160.902 58.3233C160.694 57.8068 160.596 57.2526 160.617 56.6965C160.587 55.9605 160.777 55.2323 161.165 54.6052C161.553 53.978 162.119 53.4805 162.792 53.1766C163.841 52.71 164.979 52.4754 166.127 52.4888L168.472 52.4078V51.8414C168.472 50.142 167.4 49.4138 165.85 49.4138C164.629 49.4293 163.433 49.7612 162.378 50.3768L161.389 48.4833C162.881 47.6263 164.575 47.1796 166.297 47.1886C169.544 47.1886 171.336 48.6775 171.336 51.8333V56.8341C171.274 58.0669 171.359 59.3027 171.588 60.5159H169.153L168.667 59.1969ZM166.516 54.4146C165.793 54.3965 165.076 54.549 164.423 54.8597C164.135 55.0179 163.898 55.2534 163.737 55.5394C163.576 55.8254 163.499 56.1506 163.514 56.4781C163.502 56.7538 163.548 57.0291 163.651 57.2852C163.755 57.5413 163.913 57.7721 164.113 57.9619C164.314 58.1517 164.554 58.2959 164.816 58.3848C165.079 58.4736 165.357 58.505 165.633 58.4768C166.697 58.4251 167.707 57.9877 168.472 57.2467V54.3014L166.516 54.4146Z" fill="#314B98"/>
<path d="M181.364 42.4062H184.261V58.0478H192.416V42.4062H195.305V58.0478H197.592V65.5976H194.778V60.5077H181.364V42.4062Z" fill="#314B98"/>
<path d="M200.165 47.5205H202.981V53.8402C202.981 54.8841 202.924 55.7903 202.867 56.5914H202.924C203.338 55.9036 203.914 54.973 204.684 53.8726L209.123 47.5205H211.881V60.516H209.066V54.1963C209.058 53.2806 209.097 52.365 209.18 51.4531H209.098C208.709 52.1085 208.133 53.0715 207.362 54.172L202.924 60.516H200.165V47.5205Z" fill="#314B98"/>
<path d="M221.327 60.7424C216.945 60.3541 214.681 57.5057 214.681 53.9777C214.681 50.4496 216.945 47.6013 221.327 47.221V41.6133H224.077V47.221C228.459 47.6013 230.722 50.4578 230.722 53.9777C230.722 57.4977 228.459 60.3541 224.077 60.7424V67.0056H221.327V60.7424ZM221.327 49.5838C220.265 49.7348 219.294 50.2628 218.591 51.0706C217.888 51.8786 217.501 52.9121 217.501 53.9817C217.501 55.0513 217.888 56.0849 218.591 56.8928C219.294 57.7007 220.265 58.2286 221.327 58.3796V49.5838ZM227.891 53.9777C227.945 52.8924 227.576 51.8283 226.861 51.009C226.144 50.1896 225.138 49.6787 224.053 49.5838V58.3796C225.14 58.2907 226.149 57.7847 226.87 56.9681C227.59 56.1517 227.965 55.0884 227.915 54.002L227.891 53.9777Z" fill="#314B98"/>
<path d="M233.473 48.0138C234.986 47.4829 236.575 47.2094 238.179 47.2046C242.675 47.2046 245.125 49.786 245.125 53.9937C245.125 58.0396 242.398 60.807 238.431 60.807C237.718 60.8047 237.01 60.6845 236.337 60.451V67.0458H233.473V48.0138ZM238.236 58.4037C240.825 58.4037 242.179 56.6478 242.179 53.9531C242.179 50.951 240.556 49.5836 238.073 49.5836C237.487 49.5785 236.9 49.6603 236.337 49.8264V57.991C236.93 58.2727 237.58 58.4138 238.236 58.4037Z" fill="#314B98"/>
<path d="M255.259 59.1968C254.763 59.7037 254.172 60.1077 253.519 60.3853C252.865 60.6631 252.163 60.8091 251.453 60.8152C250.897 60.8505 250.339 60.7693 249.816 60.5763C249.292 60.3834 248.815 60.0831 248.415 59.695C248.015 59.3069 247.701 58.8396 247.494 58.3232C247.286 57.8067 247.19 57.2525 247.211 56.6964C247.182 55.9597 247.374 55.2313 247.763 54.6042C248.152 53.9772 248.719 53.4801 249.392 53.1765C250.442 52.71 251.579 52.4752 252.728 52.4887L255.064 52.4077V51.8413C255.064 50.142 253.994 49.4137 252.452 49.4137C251.23 49.427 250.032 49.7589 248.978 50.3767L247.981 48.4832C249.462 47.633 251.141 47.1866 252.85 47.1885C256.095 47.1885 257.897 48.6774 257.897 51.8332V56.834C257.834 58.0665 257.915 59.3022 258.139 60.5158H255.706L255.259 59.1968ZM253.109 54.4144C252.385 54.3972 251.669 54.5497 251.016 54.8595C250.727 55.0178 250.49 55.2533 250.33 55.5392C250.169 55.8252 250.091 56.1504 250.106 56.478C250.094 56.7545 250.141 57.0305 250.245 57.2873C250.347 57.544 250.506 57.7753 250.708 57.9652C250.911 58.1551 251.152 58.2992 251.415 58.3874C251.678 58.4757 251.956 58.5061 252.233 58.4766C253.297 58.4268 254.304 57.9889 255.064 57.2466V54.3013L253.109 54.4144Z" fill="#314B98"/>
<path fill-rule="evenodd" clip-rule="evenodd" d="M22.8411 35.0349C22.5485 35.035 22.2628 35.1223 22.0204 35.2855C21.7778 35.4486 21.5898 35.6803 21.4802 35.9508C21.3707 36.2212 21.3445 36.5182 21.4052 36.8035C21.4659 37.0889 21.6108 37.3497 21.8211 37.5524C22.0313 37.7552 22.2976 37.8907 22.5855 37.9416C22.8736 37.9926 23.1702 37.9565 23.4376 37.8383C23.705 37.7199 23.9308 37.5246 24.0862 37.2775C24.2416 37.0303 24.3194 36.7425 24.3097 36.4509C24.3065 36.2618 24.266 36.0751 24.1905 35.9015C24.115 35.728 24.0059 35.571 23.8695 35.4396C23.7332 35.308 23.5722 35.2045 23.3957 35.1352C23.2192 35.0657 23.0307 35.0316 22.8411 35.0349Z" fill="#314B98"/>
<path fill-rule="evenodd" clip-rule="evenodd" d="M43.9378 25.3974C44.2432 25.4524 44.5583 25.4117 44.8395 25.2808C45.1208 25.1498 45.3545 24.9352 45.5084 24.6663C45.6623 24.3974 45.7287 24.0876 45.6987 23.7794C45.6687 23.4714 45.5436 23.18 45.3408 22.9458C45.1378 22.7115 44.867 22.5457 44.5658 22.4713C44.2645 22.3967 43.9474 22.4173 43.6584 22.5299C43.3692 22.6426 43.1221 22.8419 42.9514 23.1004C42.7805 23.3588 42.6942 23.6638 42.7043 23.9732C42.682 24.3244 42.7986 24.6703 43.0292 24.9367C43.2599 25.203 43.586 25.3684 43.9378 25.3974Z" fill="#314B98"/>
</g>
<defs>
<clipPath id="clip0_2344_86818">
<rect width="259" height="74" fill="white" transform="translate(0 0.0292969)"/>
</clipPath>
</defs>
</svg>
