<svg width="576" height="576" viewBox="0 0 716 716" fill="none" xmlns="http://www.w3.org/2000/svg">
<g clip-path="url(#clip0_2875_1953)" filter="url(#filter0_b_2875_1953)">
<rect width="716" height="716" fill="#323232"/>
<rect x="62.5" y="120.5" width="404" height="475" rx="23.5" fill="#323232" stroke="white"/>
<rect x="114" y="145" width="54" height="6" rx="3" fill="white"/>
<rect x="176" y="145" width="41" height="6" rx="3" fill="white" fill-opacity="0.2"/>
<rect x="225" y="145" width="60" height="6" rx="3" fill="white" fill-opacity="0.2"/>
<rect x="293" y="145" width="40" height="6" rx="3" fill="white" fill-opacity="0.2"/>
<rect x="385" y="140" width="16" height="16" rx="8" fill="#4C4C4C"/>
<rect x="409" y="140" width="16" height="16" rx="8" fill="#4C4C4C"/>
<rect x="433" y="140" width="16" height="16" rx="8" fill="#4C4C4C"/>
<rect x="62" y="174" width="405" height="1" rx="0.5" fill="white" fill-opacity="0.2"/>
<rect x="78" y="189" width="371" height="26" rx="13" fill="#4C4C4C"/>
<rect x="78" y="554" width="371" height="26" rx="13" fill="white"/>
<rect x="333" y="270" width="116" height="26" rx="13" fill="#4C4C4C"/>
<circle cx="90" cy="148" r="12" fill="#4C4C4C"/>
<g clip-path="url(#clip1_2875_1953)">
<rect x="78" y="250" width="371" height="2" rx="1" fill="white" fill-opacity="0.2"/>
<rect x="78" y="250" width="35" height="2" rx="1" fill="white" fill-opacity="0.3"/>
<rect x="78" y="238" width="35" height="6" rx="3" fill="white"/>
<rect x="121" y="238" width="65" height="6" rx="3" fill="white" fill-opacity="0.2"/>
<rect x="194" y="238" width="38" height="6" rx="3" fill="white" fill-opacity="0.2"/>
<rect x="240" y="238" width="55" height="6" rx="3" fill="white" fill-opacity="0.2"/>
</g>
<rect x="78.5" y="270.5" width="242" height="113" rx="15.5" fill="#E8E8E8" stroke="white"/>
<g filter="url(#filter1_d_2875_1953)">
<circle cx="333" cy="148" r="12" fill="#AB001F"/>
<circle cx="333" cy="148" r="11.5007" stroke="white" stroke-opacity="0.2" stroke-width="0.998616"/>
</g>
<path d="M332.28 152.506V143.144H333.869V152.506H332.28ZM328.393 148.62V147.031H337.755V148.62H328.393Z" fill="white"/>
<g filter="url(#filter2_d_2875_1953)">
<circle cx="333" cy="250" r="12" fill="#AB001F"/>
<circle cx="333" cy="250" r="11.5007" stroke="white" stroke-opacity="0.2" stroke-width="0.998616"/>
</g>
<path d="M332.28 254.506V245.144H333.869V254.506H332.28ZM328.393 250.62V249.031H337.755V250.62H328.393Z" fill="white"/>
<g filter="url(#filter3_d_2875_1953)">
<circle cx="401" cy="274" r="12" fill="#AB001F"/>
<circle cx="401" cy="274" r="11.5007" stroke="white" stroke-opacity="0.2" stroke-width="0.998616"/>
</g>
<path d="M400.28 278.506V269.144H401.869V278.506H400.28ZM396.393 274.62V273.031H405.755V274.62H396.393Z" fill="white"/>
<path d="M428.149 281.333L432.088 285.273L436.028 281.333" stroke="#B1B1B1" stroke-width="1.5" stroke-linecap="round"/>
<g filter="url(#filter4_d_2875_1953)">
<path d="M332 319C332 314.582 335.582 311 340 311H442C446.418 311 450 314.582 450 319V326H332V319Z" fill="white"/>
<rect x="332.5" y="325.5" width="19.819" height="15" fill="#323333" stroke="#4C4C4C"/>
<rect x="351.936" y="325.5" width="19.819" height="15" fill="#323333" stroke="#4C4C4C"/>
<rect x="371.372" y="325.5" width="19.819" height="15" fill="#323333" stroke="#4C4C4C"/>
<rect x="390.809" y="325.5" width="19.819" height="15" fill="#323333" stroke="#4C4C4C"/>
<rect x="410.245" y="325.5" width="19.819" height="15" fill="#323333" stroke="#4C4C4C"/>
<rect x="429.681" y="325.5" width="19.819" height="15" fill="#323333" stroke="#4C4C4C"/>
<rect x="332.5" y="340.5" width="19.819" height="15" fill="#323333" stroke="#4C4C4C"/>
<rect x="351.936" y="340.5" width="19.819" height="15" fill="#323333" stroke="#4C4C4C"/>
<rect x="371.372" y="340.5" width="19.819" height="15" fill="#323333" stroke="#4C4C4C"/>
<rect x="390.809" y="340.5" width="19.819" height="15" fill="#323333" stroke="#4C4C4C"/>
<rect x="410.245" y="340.5" width="19.819" height="15" fill="#323333" stroke="#4C4C4C"/>
<rect x="429.681" y="340.5" width="19.819" height="15" fill="#323333" stroke="#4C4C4C"/>
<rect x="332.5" y="355.5" width="19.819" height="14" fill="#323333" stroke="#4C4C4C"/>
<rect x="351.936" y="355.5" width="19.819" height="14" fill="#323333" stroke="#4C4C4C"/>
<rect x="371.372" y="355.5" width="19.819" height="14" fill="#323333" stroke="#4C4C4C"/>
<rect x="390.809" y="355.5" width="19.819" height="14" fill="#323333" stroke="#4C4C4C"/>
<rect x="410.245" y="355.5" width="19.819" height="14" fill="#323333" stroke="#4C4C4C"/>
<rect x="429.681" y="355.5" width="19.819" height="14" fill="#323333" stroke="#4C4C4C"/>
<path d="M333 369.5H332.5V370V376C332.5 380.694 336.306 384.5 341 384.5H351.819H352.319V384V370V369.5H351.819H333Z" fill="#323333" stroke="#4C4C4C"/>
<rect x="351.936" y="369.5" width="19.819" height="15" fill="#323333" stroke="#4C4C4C"/>
<rect x="371.372" y="369.5" width="19.819" height="15" fill="#323333" stroke="#4C4C4C"/>
<rect x="390.809" y="369.5" width="19.819" height="15" fill="#323333" stroke="#4C4C4C"/>
<rect x="410.245" y="369.5" width="19.819" height="15" fill="#323333" stroke="#4C4C4C"/>
<path d="M430.181 369.5H429.681V370V384V384.5H430.181H441C445.694 384.5 449.5 380.694 449.5 376V370V369.5H449H430.181Z" fill="#323333" stroke="#4C4C4C"/>
</g>
<g filter="url(#filter5_d_2875_1953)">
<circle cx="401" cy="382" r="12" fill="#AB001F"/>
<circle cx="401" cy="382" r="11.5007" stroke="white" stroke-opacity="0.2" stroke-width="0.998616"/>
</g>
<path d="M400.28 386.506V377.144H401.869V386.506H400.28ZM396.393 382.62V381.031H405.755V382.62H396.393Z" fill="white"/>
<g filter="url(#filter6_d_2875_1953)">
<circle cx="318" cy="554" r="12" fill="#AB001F"/>
<circle cx="318" cy="554" r="11.5007" stroke="white" stroke-opacity="0.2" stroke-width="0.998616"/>
</g>
<path d="M317.28 558.506V549.144H318.869V558.506H317.28ZM313.393 554.62V553.031H322.755V554.62H313.393Z" fill="white"/>
<rect x="90" y="434" width="78" height="6" rx="3" fill="white" fill-opacity="0.2"/>
<rect x="90" y="446" width="57" height="6" rx="3" fill="white" fill-opacity="0.2"/>
<rect x="90" y="415" width="86" height="8" rx="4" fill="#929292"/>
<rect x="78.5" y="403.5" width="115" height="61" rx="11.5" stroke="white"/>
<rect x="218" y="434" width="67" height="6" rx="3" fill="white" fill-opacity="0.2"/>
<rect x="218" y="446" width="86" height="6" rx="3" fill="white" fill-opacity="0.2"/>
<rect x="218" y="415" width="49" height="8" rx="4" fill="#929292"/>
<rect x="206.5" y="403.5" width="115" height="61" rx="11.5" stroke="white"/>
<rect x="346" y="434" width="39" height="6" rx="3" fill="white" fill-opacity="0.2"/>
<rect x="346" y="446" width="79" height="6" rx="3" fill="white" fill-opacity="0.2"/>
<rect x="346" y="415" width="86" height="8" rx="4" fill="#929292"/>
<rect x="334.5" y="403.5" width="115" height="61" rx="11.5" stroke="white"/>
<rect x="93" y="564" width="55" height="6" rx="3" fill="#CBCBCB"/>
<rect x="154" y="564" width="40" height="6" rx="3" fill="#CBCBCB"/>
<rect x="200" y="564" width="93" height="6" rx="3" fill="#CBCBCB"/>
<rect x="343" y="564" width="93" height="6" rx="3" fill="#AB001F"/>
<circle opacity="0.4" cx="86" cy="487" r="8" fill="white"/>
<circle opacity="0.6" cx="86" cy="487" r="4" fill="white"/>
<rect x="102" y="483" width="77" height="6" rx="3" fill="white" fill-opacity="0.2"/>
<rect x="102" y="495" width="156" height="6" rx="3" fill="white" fill-opacity="0.2"/>
<circle opacity="0.4" cx="86" cy="521" r="8" fill="white"/>
<circle opacity="0.6" cx="86" cy="521" r="4" fill="white"/>
<rect x="102" y="517" width="115" height="6" rx="3" fill="white" fill-opacity="0.2"/>
<rect x="102" y="529" width="84" height="6" rx="3" fill="white" fill-opacity="0.2"/>
<rect x="503.5" y="120.5" width="150" height="95" rx="23.5" stroke="#626262" stroke-dasharray="2.18 4.37"/>
<rect x="503.5" y="247.5" width="150" height="95" rx="23.5" stroke="#626262" stroke-dasharray="2.18 4.37"/>
<g filter="url(#filter7_d_2875_1953)">
<circle cx="579.033" cy="295.033" r="24.0333" fill="#AB001F"/>
<circle cx="579.033" cy="295.033" r="23.0333" stroke="white" stroke-opacity="0.2" stroke-width="2"/>
</g>
<rect x="662.5" y="384.5" width="150" height="95" rx="23.5" stroke="#626262" stroke-dasharray="2.18 4.37"/>
<rect x="503.5" y="500.5" width="150" height="95" rx="23.5" stroke="#626262" stroke-dasharray="2.18 4.37"/>
<rect x="503.5" y="384.5" width="150" height="95" rx="23.5" stroke="#626262" stroke-dasharray="2.18 4.37"/>
<path d="M468.667 296C468.667 297.473 467.473 298.667 466 298.667C464.527 298.667 463.333 297.473 463.333 296C463.333 294.527 464.527 293.333 466 293.333C467.473 293.333 468.667 294.527 468.667 296ZM502.354 295.646C502.549 295.842 502.549 296.158 502.354 296.354L499.172 299.536C498.976 299.731 498.66 299.731 498.464 299.536C498.269 299.34 498.269 299.024 498.464 298.828L501.293 296L498.464 293.172C498.269 292.976 498.269 292.66 498.464 292.464C498.66 292.269 498.976 292.269 499.172 292.464L502.354 295.646ZM502 296.5L500.8 296.5L500.8 295.5L502 295.5L502 296.5ZM496 296.5L493.6 296.5L493.6 295.5L496 295.5L496 296.5ZM488.8 296.5L486.4 296.5L486.4 295.5L488.8 295.5L488.8 296.5ZM481.6 296.5L479.2 296.5L479.2 295.5L481.6 295.5L481.6 296.5ZM474.4 296.5L472 296.5L472 295.5L474.4 295.5L474.4 296.5ZM467.2 296.5L466 296.5L466 295.5L467.2 295.5L467.2 296.5ZM468.667 296C468.667 297.473 467.473 298.667 466 298.667C464.527 298.667 463.333 297.473 463.333 296C463.333 294.527 464.527 293.333 466 293.333C467.473 293.333 468.667 294.527 468.667 296ZM502.354 295.646C502.549 295.842 502.549 296.158 502.354 296.354L499.172 299.536C498.976 299.731 498.66 299.731 498.464 299.536C498.269 299.34 498.269 299.024 498.464 298.828L501.293 296L498.464 293.172C498.269 292.976 498.269 292.66 498.464 292.464C498.66 292.269 498.976 292.269 499.172 292.464L502.354 295.646ZM502 296.5L500.8 296.5L500.8 295.5L502 295.5L502 296.5ZM496 296.5L493.6 296.5L493.6 295.5L496 295.5L496 296.5ZM488.8 296.5L486.4 296.5L486.4 295.5L488.8 295.5L488.8 296.5ZM481.6 296.5L479.2 296.5L479.2 295.5L481.6 295.5L481.6 296.5ZM474.4 296.5L472 296.5L472 295.5L474.4 295.5L474.4 296.5ZM467.2 296.5L466 296.5L466 295.5L467.2 295.5L467.2 296.5Z" fill="white"/>
<path d="M579 218.667C577.527 218.667 576.333 217.473 576.333 216C576.333 214.527 577.527 213.333 579 213.333C580.473 213.333 581.667 214.527 581.667 216C581.667 217.473 580.473 218.667 579 218.667ZM579.354 247.354C579.158 247.549 578.842 247.549 578.646 247.354L575.464 244.172C575.269 243.976 575.269 243.66 575.464 243.464C575.66 243.269 575.976 243.269 576.172 243.464L579 246.293L581.828 243.464C582.024 243.269 582.34 243.269 582.536 243.464C582.731 243.66 582.731 243.976 582.536 244.172L579.354 247.354ZM579.5 216L579.5 247L578.5 247L578.5 216L579.5 216Z" fill="#626262"/>
<path d="M698 482.666C696.527 482.666 695.333 481.473 695.333 480C695.333 478.527 696.527 477.333 698 477.333C699.473 477.333 700.667 478.527 700.667 480C700.667 481.473 699.473 482.666 698 482.666ZM690 547L690 546.5L690 547ZM654.646 547.354C654.451 547.158 654.451 546.842 654.646 546.646L657.828 543.464C658.024 543.269 658.34 543.269 658.536 543.464C658.731 543.66 658.731 543.976 658.536 544.172L655.707 547L658.536 549.828C658.731 550.024 658.731 550.34 658.536 550.536C658.34 550.731 658.024 550.731 657.828 550.536L654.646 547.354ZM698.5 480L698.5 539L697.5 539L697.5 480L698.5 480ZM690 547.5L655 547.5L655 546.5L690 546.5L690 547.5ZM698.5 539C698.5 543.694 694.694 547.5 690 547.5L690 546.5C694.142 546.5 697.5 543.142 697.5 539L698.5 539Z" fill="#626262"/>
<path d="M579 345.667C577.527 345.667 576.333 344.473 576.333 343C576.333 341.527 577.527 340.333 579 340.333C580.473 340.333 581.667 341.527 581.667 343C581.667 344.473 580.473 345.667 579 345.667ZM579.354 384.354C579.158 384.549 578.842 384.549 578.646 384.354L575.464 381.172C575.269 380.976 575.269 380.66 575.464 380.464C575.66 380.269 575.976 380.269 576.172 380.464L579 383.293L581.828 380.464C582.024 380.269 582.34 380.269 582.536 380.464C582.731 380.66 582.731 380.976 582.536 381.172L579.354 384.354ZM579.5 343L579.5 384L578.5 384L578.5 343L579.5 343Z" fill="#626262"/>
<path d="M579 345.667C577.527 345.667 576.333 344.473 576.333 343C576.333 341.527 577.527 340.333 579 340.333C580.473 340.333 581.667 341.527 581.667 343C581.667 344.473 580.473 345.667 579 345.667ZM698.354 385.354C698.158 385.549 697.842 385.549 697.646 385.354L694.464 382.172C694.269 381.976 694.269 381.66 694.464 381.464C694.66 381.269 694.976 381.269 695.172 381.464L698 384.293L700.828 381.464C701.024 381.269 701.34 381.269 701.536 381.464C701.731 381.66 701.731 381.976 701.536 382.172L698.354 385.354ZM579.5 343L579.5 350.5L578.5 350.5L578.5 343L579.5 343ZM587 358L690 358L690 359L587 359L587 358ZM698.5 366.5L698.5 385L697.5 385L697.5 366.5L698.5 366.5ZM579.5 350.5C579.5 354.642 582.858 358 587 358L587 359C582.306 359 578.5 355.194 578.5 350.5L579.5 350.5ZM690 358C694.694 358 698.5 361.806 698.5 366.5L697.5 366.5C697.5 362.358 694.142 359 690 359L690 358Z" fill="#626262"/>
<path d="M578.045 304.259V287.014H579.707V304.259H578.045ZM570.261 296.474V294.798H587.491V296.474H570.261Z" fill="white"/>
<g filter="url(#filter8_d_2875_1953)">
<circle cx="579" cy="168" r="16" fill="#6E6E6E"/>
<circle cx="579" cy="168" r="15.5" stroke="white" stroke-opacity="0.1"/>
</g>
<path d="M573.183 167.697L577.271 171.636L584.819 164.364" stroke="white" stroke-width="2.18182" stroke-linecap="round"/>
<g filter="url(#filter9_d_2875_1953)">
<circle cx="579" cy="432" r="16" fill="#6E6E6E"/>
<circle cx="579" cy="432" r="15.5" stroke="white" stroke-opacity="0.1"/>
</g>
<path d="M573.183 431.697L577.271 435.636L584.819 428.364" stroke="white" stroke-width="2.18182" stroke-linecap="round"/>
<g filter="url(#filter10_d_2875_1953)">
<circle cx="579" cy="549" r="16" fill="#FEE0BC"/>
<circle cx="579" cy="549" r="15.5" stroke="white" stroke-opacity="0.1"/>
</g>
<path d="M577.646 552.235V552.114C577.655 551.321 577.734 550.69 577.883 550.222C578.036 549.753 578.254 549.374 578.535 549.084C578.816 548.794 579.155 548.53 579.551 548.291C579.807 548.129 580.037 547.948 580.242 547.748C580.446 547.548 580.608 547.317 580.727 547.058C580.847 546.798 580.906 546.51 580.906 546.195C580.906 545.815 580.817 545.487 580.638 545.21C580.459 544.933 580.22 544.72 579.922 544.571C579.628 544.418 579.3 544.341 578.938 544.341C578.61 544.341 578.296 544.409 577.998 544.545C577.7 544.682 577.453 544.895 577.257 545.185C577.061 545.47 576.948 545.839 576.918 546.29H574.975C575.004 545.523 575.198 544.876 575.556 544.347C575.914 543.815 576.387 543.412 576.975 543.139C577.568 542.866 578.222 542.73 578.938 542.73C579.722 542.73 580.408 542.877 580.996 543.171C581.584 543.461 582.04 543.868 582.364 544.392C582.692 544.912 582.856 545.519 582.856 546.214C582.856 546.691 582.781 547.121 582.632 547.505C582.483 547.884 582.27 548.223 581.993 548.521C581.72 548.82 581.392 549.084 581.009 549.314C580.646 549.54 580.352 549.774 580.127 550.017C579.905 550.26 579.743 550.548 579.641 550.88C579.539 551.212 579.483 551.624 579.475 552.114V552.235H577.646ZM578.612 556.121C578.262 556.121 577.962 555.998 577.71 555.751C577.459 555.499 577.333 555.197 577.333 554.843C577.333 554.494 577.459 554.195 577.71 553.948C577.962 553.697 578.262 553.571 578.612 553.571C578.957 553.571 579.255 553.697 579.507 553.948C579.762 554.195 579.89 554.494 579.89 554.843C579.89 555.077 579.83 555.293 579.711 555.489C579.596 555.68 579.443 555.834 579.251 555.949C579.059 556.064 578.846 556.121 578.612 556.121Z" fill="#B29067"/>
</g>
<defs>
<filter id="filter0_b_2875_1953" x="-80" y="-80" width="876" height="876" filterUnits="userSpaceOnUse" color-interpolation-filters="sRGB">
<feFlood flood-opacity="0" result="BackgroundImageFix"/>
<feGaussianBlur in="BackgroundImageFix" stdDeviation="40"/>
<feComposite in2="SourceAlpha" operator="in" result="effect1_backgroundBlur_2875_1953"/>
<feBlend mode="normal" in="SourceGraphic" in2="effect1_backgroundBlur_2875_1953" result="shape"/>
</filter>
<filter id="filter1_d_2875_1953" x="313.011" y="129.609" width="39.9778" height="39.9778" filterUnits="userSpaceOnUse" color-interpolation-filters="sRGB">
<feFlood flood-opacity="0" result="BackgroundImageFix"/>
<feColorMatrix in="SourceAlpha" type="matrix" values="0 0 0 0 0 0 0 0 0 0 0 0 0 0 0 0 0 0 127 0" result="hardAlpha"/>
<feOffset dy="1.59778"/>
<feGaussianBlur stdDeviation="3.99446"/>
<feComposite in2="hardAlpha" operator="out"/>
<feColorMatrix type="matrix" values="0 0 0 0 0.670588 0 0 0 0 0 0 0 0 0 0.121569 0 0 0 1 0"/>
<feBlend mode="normal" in2="BackgroundImageFix" result="effect1_dropShadow_2875_1953"/>
<feBlend mode="normal" in="SourceGraphic" in2="effect1_dropShadow_2875_1953" result="shape"/>
</filter>
<filter id="filter2_d_2875_1953" x="313.011" y="231.609" width="39.9778" height="39.9778" filterUnits="userSpaceOnUse" color-interpolation-filters="sRGB">
<feFlood flood-opacity="0" result="BackgroundImageFix"/>
<feColorMatrix in="SourceAlpha" type="matrix" values="0 0 0 0 0 0 0 0 0 0 0 0 0 0 0 0 0 0 127 0" result="hardAlpha"/>
<feOffset dy="1.59778"/>
<feGaussianBlur stdDeviation="3.99446"/>
<feComposite in2="hardAlpha" operator="out"/>
<feColorMatrix type="matrix" values="0 0 0 0 0.670588 0 0 0 0 0 0 0 0 0 0.121569 0 0 0 1 0"/>
<feBlend mode="normal" in2="BackgroundImageFix" result="effect1_dropShadow_2875_1953"/>
<feBlend mode="normal" in="SourceGraphic" in2="effect1_dropShadow_2875_1953" result="shape"/>
</filter>
<filter id="filter3_d_2875_1953" x="381.011" y="255.609" width="39.9778" height="39.9778" filterUnits="userSpaceOnUse" color-interpolation-filters="sRGB">
<feFlood flood-opacity="0" result="BackgroundImageFix"/>
<feColorMatrix in="SourceAlpha" type="matrix" values="0 0 0 0 0 0 0 0 0 0 0 0 0 0 0 0 0 0 127 0" result="hardAlpha"/>
<feOffset dy="1.59778"/>
<feGaussianBlur stdDeviation="3.99446"/>
<feComposite in2="hardAlpha" operator="out"/>
<feColorMatrix type="matrix" values="0 0 0 0 0.670588 0 0 0 0 0 0 0 0 0 0.121569 0 0 0 1 0"/>
<feBlend mode="normal" in2="BackgroundImageFix" result="effect1_dropShadow_2875_1953"/>
<feBlend mode="normal" in="SourceGraphic" in2="effect1_dropShadow_2875_1953" result="shape"/>
</filter>
<filter id="filter4_d_2875_1953" x="309.719" y="296.126" width="162.561" height="118.561" filterUnits="userSpaceOnUse" color-interpolation-filters="sRGB">
<feFlood flood-opacity="0" result="BackgroundImageFix"/>
<feColorMatrix in="SourceAlpha" type="matrix" values="0 0 0 0 0 0 0 0 0 0 0 0 0 0 0 0 0 0 127 0" result="hardAlpha"/>
<feOffset dy="7.40633"/>
<feGaussianBlur stdDeviation="11.1404"/>
<feComposite in2="hardAlpha" operator="out"/>
<feColorMatrix type="matrix" values="0 0 0 0 0.0666667 0 0 0 0 0.305882 0 0 0 0 0.321569 0 0 0 0.12 0"/>
<feBlend mode="normal" in2="BackgroundImageFix" result="effect1_dropShadow_2875_1953"/>
<feBlend mode="normal" in="SourceGraphic" in2="effect1_dropShadow_2875_1953" result="shape"/>
</filter>
<filter id="filter5_d_2875_1953" x="381.011" y="363.609" width="39.9778" height="39.9778" filterUnits="userSpaceOnUse" color-interpolation-filters="sRGB">
<feFlood flood-opacity="0" result="BackgroundImageFix"/>
<feColorMatrix in="SourceAlpha" type="matrix" values="0 0 0 0 0 0 0 0 0 0 0 0 0 0 0 0 0 0 127 0" result="hardAlpha"/>
<feOffset dy="1.59778"/>
<feGaussianBlur stdDeviation="3.99446"/>
<feComposite in2="hardAlpha" operator="out"/>
<feColorMatrix type="matrix" values="0 0 0 0 0.670588 0 0 0 0 0 0 0 0 0 0.121569 0 0 0 1 0"/>
<feBlend mode="normal" in2="BackgroundImageFix" result="effect1_dropShadow_2875_1953"/>
<feBlend mode="normal" in="SourceGraphic" in2="effect1_dropShadow_2875_1953" result="shape"/>
</filter>
<filter id="filter6_d_2875_1953" x="298.011" y="535.609" width="39.9778" height="39.9778" filterUnits="userSpaceOnUse" color-interpolation-filters="sRGB">
<feFlood flood-opacity="0" result="BackgroundImageFix"/>
<feColorMatrix in="SourceAlpha" type="matrix" values="0 0 0 0 0 0 0 0 0 0 0 0 0 0 0 0 0 0 127 0" result="hardAlpha"/>
<feOffset dy="1.59778"/>
<feGaussianBlur stdDeviation="3.99446"/>
<feComposite in2="hardAlpha" operator="out"/>
<feColorMatrix type="matrix" values="0 0 0 0 0.670588 0 0 0 0 0 0 0 0 0 0.121569 0 0 0 1 0"/>
<feBlend mode="normal" in2="BackgroundImageFix" result="effect1_dropShadow_2875_1953"/>
<feBlend mode="normal" in="SourceGraphic" in2="effect1_dropShadow_2875_1953" result="shape"/>
</filter>
<filter id="filter7_d_2875_1953" x="539" y="258.2" width="80.0667" height="80.0665" filterUnits="userSpaceOnUse" color-interpolation-filters="sRGB">
<feFlood flood-opacity="0" result="BackgroundImageFix"/>
<feColorMatrix in="SourceAlpha" type="matrix" values="0 0 0 0 0 0 0 0 0 0 0 0 0 0 0 0 0 0 127 0" result="hardAlpha"/>
<feOffset dy="3.2"/>
<feGaussianBlur stdDeviation="8"/>
<feComposite in2="hardAlpha" operator="out"/>
<feColorMatrix type="matrix" values="0 0 0 0 0.670588 0 0 0 0 0 0 0 0 0 0.121569 0 0 0 1 0"/>
<feBlend mode="normal" in2="BackgroundImageFix" result="effect1_dropShadow_2875_1953"/>
<feBlend mode="normal" in="SourceGraphic" in2="effect1_dropShadow_2875_1953" result="shape"/>
</filter>
<filter id="filter8_d_2875_1953" x="550.2" y="141.76" width="57.6" height="57.6" filterUnits="userSpaceOnUse" color-interpolation-filters="sRGB">
<feFlood flood-opacity="0" result="BackgroundImageFix"/>
<feColorMatrix in="SourceAlpha" type="matrix" values="0 0 0 0 0 0 0 0 0 0 0 0 0 0 0 0 0 0 127 0" result="hardAlpha"/>
<feOffset dy="2.56"/>
<feGaussianBlur stdDeviation="6.4"/>
<feComposite in2="hardAlpha" operator="out"/>
<feColorMatrix type="matrix" values="0 0 0 0 0.410026 0 0 0 0 0.410026 0 0 0 0 0.410026 0 0 0 0.8 0"/>
<feBlend mode="normal" in2="BackgroundImageFix" result="effect1_dropShadow_2875_1953"/>
<feBlend mode="normal" in="SourceGraphic" in2="effect1_dropShadow_2875_1953" result="shape"/>
</filter>
<filter id="filter9_d_2875_1953" x="550.2" y="405.76" width="57.6" height="57.6" filterUnits="userSpaceOnUse" color-interpolation-filters="sRGB">
<feFlood flood-opacity="0" result="BackgroundImageFix"/>
<feColorMatrix in="SourceAlpha" type="matrix" values="0 0 0 0 0 0 0 0 0 0 0 0 0 0 0 0 0 0 127 0" result="hardAlpha"/>
<feOffset dy="2.56"/>
<feGaussianBlur stdDeviation="6.4"/>
<feComposite in2="hardAlpha" operator="out"/>
<feColorMatrix type="matrix" values="0 0 0 0 0.410026 0 0 0 0 0.410026 0 0 0 0 0.410026 0 0 0 0.8 0"/>
<feBlend mode="normal" in2="BackgroundImageFix" result="effect1_dropShadow_2875_1953"/>
<feBlend mode="normal" in="SourceGraphic" in2="effect1_dropShadow_2875_1953" result="shape"/>
</filter>
<filter id="filter10_d_2875_1953" x="550.2" y="522.76" width="57.6" height="57.6" filterUnits="userSpaceOnUse" color-interpolation-filters="sRGB">
<feFlood flood-opacity="0" result="BackgroundImageFix"/>
<feColorMatrix in="SourceAlpha" type="matrix" values="0 0 0 0 0 0 0 0 0 0 0 0 0 0 0 0 0 0 127 0" result="hardAlpha"/>
<feOffset dy="2.56"/>
<feGaussianBlur stdDeviation="6.4"/>
<feComposite in2="hardAlpha" operator="out"/>
<feColorMatrix type="matrix" values="0 0 0 0 0.996078 0 0 0 0 0.878431 0 0 0 0 0.737255 0 0 0 0.2 0"/>
<feBlend mode="normal" in2="BackgroundImageFix" result="effect1_dropShadow_2875_1953"/>
<feBlend mode="normal" in="SourceGraphic" in2="effect1_dropShadow_2875_1953" result="shape"/>
</filter>
<clipPath id="clip0_2875_1953">
<rect width="716" height="716" fill="white"/>
</clipPath>
<clipPath id="clip1_2875_1953">
<rect width="371" height="14" fill="white" transform="translate(78 238)"/>
</clipPath>
</defs>
</svg>
