<svg width="138" height="75" viewBox="0 0 138 75" fill="none" xmlns="http://www.w3.org/2000/svg">
<g clip-path="url(#clip0_868_118656)">
<rect x="9" y="9.00006" width="120" height="56.338" rx="14.0845" fill="white"/>
<path d="M56.8824 25.3251L57.9952 25.1687L58.7151 30.2927C61.9669 29.8568 65.2573 29.6355 68.5656 29.6355C71.8353 29.6355 75.0875 29.8517 78.3023 30.2776L79.02 25.1687L80.1329 25.3251L79.4152 30.4336C85.4603 31.3278 91.3641 32.965 96.9934 35.3017L98.9887 30.5994L100.023 31.0387L98.028 35.7404C102.808 37.8102 107.382 40.3887 111.666 43.4489L114.62 39.3821L115.529 40.0429L111.918 45.0148C111.78 44.9128 111.641 44.8113 111.503 44.7102L111.499 44.7144C99.0202 35.6446 83.9909 30.7597 68.5656 30.7597C53.1403 30.7597 38.111 35.6446 25.6317 44.7144L25.6287 44.7102C25.4649 44.8295 25.3016 44.9494 25.1388 45.07L21.4863 40.0429L21.9409 39.7126L22.3956 39.3823L25.3895 43.503C29.6661 40.4401 34.2323 37.8577 39.0052 35.7829L36.9921 31.0387L38.0265 30.5994L40.0392 35.3427C45.6629 32.9988 51.5617 31.3536 57.6024 30.4505L56.8824 25.3251Z" fill="#101010"/>
<path d="M19.7258 35.2801L20.1466 35.7816C20.3482 36.0218 20.4964 36.247 20.5913 36.4571C20.6864 36.6646 20.7339 36.8581 20.7338 37.0377C20.7337 37.2174 20.6925 37.3836 20.6101 37.5365C20.5291 37.6883 20.4128 37.8278 20.2611 37.9551C20.1402 38.0565 20.0149 38.1353 19.885 38.1917C19.7565 38.2468 19.6231 38.2761 19.4848 38.2797C19.3465 38.2832 19.2043 38.2577 19.058 38.2033C18.912 38.1462 18.7616 38.0582 18.6066 37.9392C18.4531 37.8191 18.2956 37.6627 18.1341 37.4703L17.7133 36.9687C17.5105 36.7271 17.3635 36.5034 17.2722 36.2975C17.1796 36.0902 17.134 35.8975 17.1353 35.7193C17.1354 35.5396 17.1765 35.3747 17.2587 35.2243C17.3422 35.0728 17.4598 34.9334 17.6116 34.8061C17.7338 34.7036 17.8591 34.6247 17.9876 34.5696C18.1164 34.5118 18.2486 34.4811 18.3843 34.4774C18.5214 34.4724 18.6624 34.4978 18.8072 34.5534C18.9522 34.6064 19.1015 34.6931 19.255 34.8132C19.4074 34.932 19.5643 35.0876 19.7258 35.2801ZM19.6989 36.2794L19.1543 35.6304C19.0517 35.5081 18.9545 35.4066 18.8626 35.3256C18.7696 35.2433 18.6819 35.1816 18.5996 35.1405C18.5175 35.0969 18.439 35.0718 18.3641 35.0653C18.288 35.0573 18.2163 35.066 18.149 35.0914C18.0805 35.1153 18.0139 35.1544 17.9493 35.2086C17.8706 35.2746 17.8134 35.349 17.7775 35.4318C17.7404 35.5132 17.7285 35.6046 17.7418 35.7059C17.755 35.8073 17.7958 35.9216 17.8641 36.0486C17.9326 36.173 18.0311 36.3118 18.1596 36.465L18.7042 37.114C18.808 37.2376 18.9063 37.3406 18.9994 37.423C19.0924 37.5053 19.1813 37.5684 19.2659 37.6123C19.3494 37.6547 19.4291 37.6812 19.505 37.6917C19.5811 37.6997 19.6534 37.6917 19.7219 37.6678C19.7918 37.6426 19.8583 37.6036 19.9216 37.5505C20.0016 37.4833 20.0596 37.4083 20.0955 37.3256C20.1314 37.2428 20.1421 37.15 20.1277 37.0472C20.112 36.943 20.0688 36.8273 19.9979 36.7C19.927 36.5727 19.8274 36.4325 19.6989 36.2794Z" fill="#33CC99"/>
<path d="M37.9696 27.603L38.1502 28.0993L35.6273 29.0175L35.472 28.591L36.2109 26.8086C36.2901 26.608 36.3484 26.4385 36.3858 26.3C36.4232 26.1615 36.4414 26.0426 36.4405 25.9434C36.4406 25.8419 36.4253 25.7489 36.3946 25.6645C36.3513 25.5456 36.2909 25.4495 36.2135 25.3762C36.1372 25.3005 36.0474 25.2522 35.9441 25.2312C35.8402 25.2085 35.728 25.2191 35.6074 25.263C35.4678 25.3139 35.3616 25.3867 35.2887 25.4815C35.2159 25.5763 35.1748 25.6859 35.1654 25.8103C35.1554 25.933 35.1752 26.0624 35.2248 26.1986L34.6018 26.4253C34.5221 26.2064 34.4994 25.9883 34.5334 25.771C34.5669 25.552 34.659 25.3545 34.8097 25.1787C34.9597 25.0011 35.1683 24.8637 35.4354 24.7665C35.687 24.6749 35.9161 24.6394 36.1226 24.6598C36.3291 24.6803 36.5062 24.7515 36.654 24.8733C36.8035 24.9945 36.9169 25.1611 36.994 25.3731C37.0367 25.4903 37.0601 25.6135 37.0642 25.7428C37.0683 25.872 37.056 26.0073 37.0274 26.1484C36.9999 26.2873 36.9597 26.4317 36.907 26.5816C36.8536 26.7299 36.7913 26.8833 36.7202 27.0419L36.2325 28.2352L37.9696 27.603Z" fill="#33CC99"/>
<path d="M58.0945 21.415L58.1862 21.9351L55.3417 22.4367L55.2508 22.0477L56.482 19.082L57.0049 18.9898L56.6097 20.0595L55.9083 21.8005L58.0945 21.415ZM57.1539 18.9635L57.8494 22.9079L57.1965 23.0231L56.501 19.0786L57.1539 18.9635Z" fill="#33CC99"/>
<path d="M81.5276 19.0798L81.6088 19.0941L81.5147 19.6278L81.4687 19.6197C81.2357 19.5786 81.028 19.5792 80.8454 19.6215C80.6647 19.6642 80.5091 19.7391 80.3784 19.8465C80.2478 19.9538 80.1404 20.0875 80.0563 20.2478C79.9743 20.4065 79.9165 20.5807 79.8831 20.7703L79.7737 21.3907C79.746 21.5478 79.7386 21.6899 79.7516 21.817C79.7649 21.9422 79.7951 22.0509 79.8422 22.143C79.8914 22.2336 79.953 22.3068 80.0269 22.3627C80.1009 22.4186 80.1848 22.4548 80.2787 22.4713C80.3762 22.4885 80.4682 22.4843 80.5547 22.4586C80.6415 22.431 80.7193 22.3861 80.788 22.3237C80.8567 22.2613 80.9143 22.183 80.9607 22.0888C81.0071 21.9946 81.0407 21.8888 81.0614 21.7714C81.0811 21.6594 81.0851 21.5521 81.0734 21.4495C81.0638 21.3453 81.0385 21.2515 80.9974 21.1679C80.9566 21.0825 80.8992 21.0118 80.8252 20.956C80.7534 20.8986 80.6651 20.8607 80.5604 20.8422C80.4303 20.8193 80.3066 20.8291 80.1892 20.8718C80.0737 20.9147 79.9746 20.9801 79.8921 21.068C79.8117 21.1544 79.759 21.2521 79.7342 21.3614L79.4993 21.2361C79.5434 21.0707 79.607 20.9265 79.6901 20.8033C79.7751 20.6805 79.8755 20.5809 79.9914 20.5045C80.1073 20.4281 80.2346 20.377 80.3732 20.3511C80.514 20.3238 80.6629 20.324 80.8201 20.3517C81.0115 20.3855 81.1713 20.4509 81.2994 20.548C81.4275 20.645 81.5267 20.764 81.5968 20.9049C81.6691 21.0442 81.7138 21.1974 81.7309 21.3643C81.7502 21.5297 81.7447 21.6982 81.7144 21.8697C81.681 22.0594 81.6209 22.2313 81.5341 22.3854C81.4476 22.5378 81.3376 22.6655 81.204 22.7686C81.0721 22.872 80.9207 22.944 80.7497 22.9846C80.5804 23.0255 80.3956 23.0283 80.1951 22.9929C79.9838 22.9557 79.8022 22.8818 79.6504 22.7712C79.5004 22.6609 79.3802 22.5243 79.2897 22.3612C79.2011 22.1985 79.1434 22.0188 79.1166 21.8223C79.0898 21.6258 79.0947 21.4237 79.1313 21.216L79.1791 20.945C79.232 20.6452 79.3197 20.3693 79.4424 20.1172C79.5654 19.8632 79.7234 19.6481 79.9165 19.4717C80.1115 19.2957 80.3428 19.1716 80.6106 19.0997C80.8788 19.0259 81.1844 19.0193 81.5276 19.0798Z" fill="#33CC99"/>
<path d="M102.264 27.9834C102.179 28.2178 102.053 28.3954 101.886 28.5161C101.719 28.6369 101.527 28.7044 101.309 28.7188C101.093 28.732 100.868 28.696 100.634 28.6107C100.399 28.5254 100.203 28.4081 100.044 28.2587C99.8868 28.1076 99.7828 27.9322 99.7325 27.7324C99.6823 27.5326 99.6998 27.3155 99.7851 27.0811C99.8416 26.926 99.9229 26.7966 100.029 26.6927C100.136 26.5872 100.261 26.5088 100.404 26.4576C100.55 26.4053 100.707 26.3814 100.875 26.386C101.045 26.3913 101.22 26.4265 101.399 26.4917C101.637 26.5783 101.834 26.6997 101.989 26.8559C102.145 27.0122 102.248 27.1873 102.299 27.3813C102.351 27.5759 102.339 27.7766 102.264 27.9834ZM101.65 27.7247C101.696 27.5989 101.71 27.4792 101.693 27.3656C101.676 27.252 101.63 27.1524 101.556 27.0669C101.481 26.9813 101.383 26.9162 101.261 26.8717C101.137 26.8265 101.019 26.8132 100.909 26.8316C100.799 26.8501 100.701 26.8973 100.615 26.9733C100.53 27.0499 100.465 27.1511 100.419 27.2769C100.373 27.4044 100.358 27.5238 100.374 27.635C100.391 27.7446 100.437 27.8404 100.512 27.9225C100.588 28.0046 100.688 28.0686 100.814 28.1144C100.94 28.1602 101.057 28.1756 101.166 28.1605C101.275 28.1455 101.371 28.1015 101.454 28.0283C101.538 27.9534 101.603 27.8522 101.65 27.7247ZM102.815 26.2049C102.746 26.3928 102.636 26.5417 102.482 26.6518C102.331 26.7626 102.153 26.8285 101.948 26.8496C101.744 26.8689 101.53 26.8382 101.308 26.7573C101.084 26.6757 100.899 26.5616 100.754 26.4149C100.61 26.2671 100.515 26.1018 100.469 25.9189C100.424 25.7367 100.436 25.5516 100.504 25.3638C100.585 25.1398 100.703 24.9689 100.857 24.8513C101.014 24.7326 101.194 24.6644 101.397 24.6468C101.601 24.6291 101.815 24.6611 102.039 24.7426C102.263 24.8242 102.447 24.9371 102.591 25.0815C102.736 25.2258 102.829 25.3934 102.871 25.5842C102.915 25.774 102.896 25.9809 102.815 26.2049ZM102.184 25.9989C102.225 25.8868 102.238 25.7805 102.224 25.6797C102.213 25.5779 102.176 25.4884 102.114 25.4113C102.053 25.3342 101.967 25.2759 101.859 25.2364C101.75 25.1968 101.648 25.1859 101.552 25.2036C101.455 25.2213 101.37 25.2645 101.297 25.3333C101.223 25.402 101.165 25.495 101.122 25.6122C101.08 25.7276 101.065 25.8363 101.076 25.9381C101.089 26.0383 101.126 26.1269 101.188 26.204C101.251 26.2817 101.337 26.3403 101.446 26.3799C101.554 26.4194 101.657 26.4294 101.754 26.41C101.85 26.3906 101.936 26.3465 102.01 26.2778C102.084 26.2073 102.142 26.1143 102.184 25.9989Z" fill="#33CC99"/>
<path d="M118.154 33.9088L115.57 36.9876L115.063 36.5614L117.14 34.0854L116.174 33.7091L116.526 33.2897L118.093 33.8575L118.154 33.9088ZM120.226 37.8416L119.805 38.3431C119.603 38.5833 119.408 38.7684 119.217 38.8983C119.029 39.028 118.847 39.1084 118.67 39.1395C118.493 39.1706 118.322 39.1589 118.157 39.1043C117.994 39.0509 117.836 38.9606 117.684 38.8332C117.564 38.7319 117.464 38.6221 117.386 38.504C117.31 38.387 117.258 38.2607 117.23 38.1252C117.203 37.9896 117.203 37.8451 117.231 37.6916C117.262 37.5379 117.323 37.3744 117.413 37.2012C117.505 37.0292 117.631 36.8469 117.793 36.6544L118.213 36.1529C118.416 35.9113 118.611 35.7276 118.798 35.6019C118.986 35.4748 119.168 35.3964 119.344 35.3667C119.52 35.3356 119.69 35.3475 119.852 35.4023C120.016 35.4582 120.174 35.5499 120.326 35.6772C120.448 35.7797 120.547 35.8895 120.624 36.0065C120.703 36.1232 120.756 36.2481 120.783 36.3811C120.812 36.5152 120.812 36.6585 120.782 36.8108C120.755 36.9628 120.696 37.1249 120.604 37.2969C120.513 37.4676 120.387 37.6491 120.226 37.8416ZM119.237 37.9886L119.782 37.3396C119.884 37.2173 119.967 37.104 120.031 36.9995C120.096 36.8936 120.142 36.7965 120.168 36.7083C120.196 36.6199 120.208 36.5382 120.201 36.4633C120.196 36.3869 120.175 36.3178 120.138 36.2559C120.102 36.1927 120.052 36.1339 119.988 36.0797C119.909 36.0137 119.826 35.9702 119.738 35.9492C119.652 35.9269 119.56 35.931 119.462 35.9617C119.364 35.9923 119.259 36.0523 119.146 36.1416C119.035 36.2307 118.916 36.3518 118.787 36.505L118.242 37.154C118.139 37.2776 118.054 37.3924 117.989 37.4983C117.925 37.6042 117.878 37.7027 117.849 37.7937C117.822 37.8833 117.81 37.9664 117.813 38.043C117.818 38.1193 117.838 38.1891 117.874 38.2524C117.911 38.3168 117.961 38.3756 118.024 38.4286C118.104 38.4958 118.188 38.5399 118.276 38.5609C118.363 38.5818 118.457 38.5763 118.555 38.5442C118.655 38.5107 118.762 38.4481 118.875 38.3562C118.988 38.2643 119.109 38.1417 119.237 37.9886Z" fill="#33CC99"/>
<path d="M115.074 39.2726C115.168 39.1479 115.345 39.1217 115.471 39.2139C115.597 39.306 115.627 39.4824 115.537 39.6103L69.6987 104.835C69.5176 105.093 69.1603 105.152 68.9058 104.966L67.1011 103.65C66.8465 103.465 66.7937 103.106 66.9837 102.855L115.074 39.2726Z" fill="#95001B"/>
</g>
<rect x="4.5" y="4.50006" width="129" height="65.338" rx="18.5845" stroke="#19676C" stroke-width="9"/>
<defs>
<clipPath id="clip0_868_118656">
<rect x="9" y="9.00006" width="120" height="56.338" rx="14.0845" fill="white"/>
</clipPath>
</defs>
</svg>
