<svg width="288" height="55" viewBox="0 0 288 55" fill="none" xmlns="http://www.w3.org/2000/svg">
<circle cx="25.2809" cy="25.2809" r="25.2809" fill="#FF8A00"/>
<path fill-rule="evenodd" clip-rule="evenodd" d="M36.8604 20.8635C36.8604 15.1583 31.7217 10.5332 25.3824 10.5332C19.043 10.5332 13.9043 15.1583 13.9043 20.8635H36.8604Z" fill="white"/>
<path d="M17.4849 33.2441C19.4627 33.2441 21.0667 34.8474 21.0669 36.8252C21.0669 38.8032 19.4628 40.4072 17.4849 40.4072C15.5071 40.407 13.9038 38.803 13.9038 36.8252C13.904 34.8475 15.5072 33.2444 17.4849 33.2441ZM17.4849 35.6318C16.8257 35.6319 16.2917 36.1661 16.2915 36.8252C16.2915 37.4845 16.8256 38.0194 17.4849 38.0195C18.1442 38.0195 18.6792 37.4845 18.6792 36.8252C18.679 36.166 18.1441 35.6318 17.4849 35.6318Z" fill="white"/>
<path d="M33.4961 33.2441C35.4739 33.2441 37.0779 34.8474 37.0781 36.8252C37.0781 38.8032 35.4741 40.4072 33.4961 40.4072C31.5183 40.407 29.915 38.803 29.915 36.8252C29.9153 34.8475 31.5184 33.2444 33.4961 33.2441ZM33.4961 35.6318C32.837 35.632 32.3029 36.1661 32.3027 36.8252C32.3027 37.4844 32.8369 38.0194 33.4961 38.0195C34.1554 38.0195 34.6904 37.4845 34.6904 36.8252C34.6903 36.166 34.1553 35.6318 33.4961 35.6318Z" fill="white"/>
<path d="M13.9043 28.6465H36.8604V29.8503C36.8604 31.0872 35.8577 32.0899 34.6208 32.0899H16.1439C14.907 32.0899 13.9043 31.0872 13.9043 29.8503V28.6465Z" fill="white"/>
<mask id="mask0_30487_26719" style="mask-type:alpha" maskUnits="userSpaceOnUse" x="13" y="20" width="25" height="9">
<rect x="13.9043" y="20.9268" width="23.0961" height="7.69871" fill="#D9D9D9"/>
</mask>
<g mask="url(#mask0_30487_26719)">
<path d="M13.9043 23.7471L17.0349 26.0427L21.2084 23.7471L25.3824 26.0427L29.5564 23.7471L33.7298 26.0427L36.8604 23.7471" stroke="white" stroke-width="1.67972" stroke-linecap="round" stroke-linejoin="round"/>
</g>
<path d="M87.2193 4.41573V8.91573H90.2024C92.2249 8.91573 94.0957 9.16854 95.7642 9.77528C97.4833 10.2809 98.9496 11.1404 100.214 12.2022C101.427 13.3146 102.388 14.6798 103.045 16.2472C103.702 17.8146 104.056 19.6348 104.056 21.6573C104.056 23.7303 103.702 25.5506 102.944 27.1685C102.186 28.736 101.225 30.1011 99.9103 31.2135C98.6968 32.3258 97.1799 33.1854 95.5114 33.7416C93.8429 34.2978 92.0732 34.6011 90.2024 34.6011H87.2193V39H79.6856V34.6011H76.7024C74.6799 34.6011 72.8091 34.3483 71.09 33.7416C69.4215 33.236 67.9552 32.3764 66.7417 31.3146C65.5282 30.2022 64.5676 28.8371 63.9103 27.2697C63.253 25.7022 62.899 23.882 62.899 21.8595C62.899 19.7865 63.253 17.9663 64.0114 16.3483C64.7698 14.7809 65.7305 13.4157 67.0451 12.3034C68.2586 11.191 69.7754 10.3315 71.3934 9.77528C73.1125 9.2191 74.8316 8.91573 76.7024 8.91573H79.6856V4.41573H87.2193ZM87.2193 28.0787H89.9496C92.0732 28.0787 93.6912 27.5225 94.8035 26.3596C95.9159 25.1966 96.4721 23.6798 96.4721 21.7079C96.4721 19.736 95.8653 18.1685 94.753 17.1067C93.5395 16.0449 91.9721 15.4888 89.9496 15.4888H87.2193V28.0787ZM79.6856 15.4382H76.9552C74.8316 15.4382 73.2136 15.9944 72.1013 17.1573C70.9889 18.3202 70.4327 19.8371 70.4327 21.809C70.4327 23.7809 70.9889 25.3483 72.2024 26.4101C73.3148 27.4719 74.9327 28.0281 76.9552 28.0281H79.6856V15.4382ZM113.996 13.2135L121.378 31.4157H121.833L127.546 13.2135H135.535L124.007 41.6798C123.147 43.8539 121.984 45.573 120.569 46.8371C119.153 48.1011 117.383 48.7079 115.209 48.7079C112.833 48.7079 110.861 48.1517 109.395 47.0899L111.417 41.6798C111.973 41.9326 112.479 42.0843 112.984 42.1854C113.49 42.2865 113.996 42.3371 114.451 42.3371C116.119 42.3371 117.181 41.6798 117.636 40.3652L118.041 39.3539L105.501 13.2135H113.996ZM161.691 13.2135V32.6798H165.483V34.3989L165.079 44.9157H158.809L158.404 39H141.416L140.657 44.9157H134.59L134.185 34.6517V32.882L135.753 32.7809C136.612 32.7303 137.32 32.2753 137.977 31.5169C138.635 30.7079 139.14 29.6461 139.494 28.3315C140.05 26.4607 140.404 24.2865 140.505 21.7079C140.708 19.1292 140.758 16.2978 140.758 13.2135H161.691ZM147.23 19.4326C147.23 21.1517 147.18 22.7697 147.079 24.2865C146.927 25.8034 146.725 27.1685 146.472 28.4326C146.32 29.2921 146.118 30.1011 145.865 30.809C145.663 31.4663 145.41 32.1236 145.056 32.6798H154.562V19.4326H147.23ZM197.78 5.12359V12H186.201V39H178.667V12H167.089V5.12359H197.78ZM205.178 13.2135L205.734 16.6011C206.796 15.1854 208.009 14.1742 209.375 13.5169C210.79 12.9101 212.459 12.6067 214.38 12.6067C216.2 12.6067 217.869 12.9101 219.335 13.5169C220.802 14.1742 222.116 15.0337 223.127 16.2472C224.24 17.3595 225.049 18.7753 225.655 20.3933C226.212 22.0618 226.515 23.882 226.515 25.8539C226.515 28.0787 226.161 30.0506 225.403 31.7697C224.644 33.4888 223.633 34.9551 222.42 36.0674C221.105 37.2809 219.689 38.1404 218.071 38.6966C216.403 39.3034 214.684 39.6067 212.914 39.6067C211.751 39.6067 210.639 39.5056 209.577 39.2528C208.515 39 207.504 38.5955 206.543 38.0393V48.4045H199.363V13.2135H205.178ZM206.543 31.4663C207.403 31.9719 208.313 32.3764 209.273 32.6798C210.285 32.9831 211.347 33.1348 212.408 33.1348C214.431 33.1348 216.049 32.4775 217.313 31.1629C218.577 29.8483 219.184 28.0281 219.184 25.7022C219.184 23.6292 218.678 22.0112 217.616 20.7978C216.554 19.5843 215.088 18.9775 213.217 18.9775C211.549 18.9775 210.184 19.382 209.071 20.1404C207.959 20.8989 207.099 21.9607 206.543 23.2247V31.4663ZM236.293 28.4326C236.546 29.8483 237.304 31.0112 238.518 31.9213C239.681 32.8315 241.349 33.2865 243.524 33.2865C246.709 33.2865 249.54 32.4775 251.917 30.8595L255.001 36.118C253.231 37.382 251.411 38.2416 249.49 38.7978C247.568 39.3539 245.445 39.6067 243.119 39.6067C240.844 39.6067 238.872 39.3034 237.102 38.6461C235.333 37.9888 233.866 37.0787 232.703 35.9157C231.54 34.7528 230.63 33.3371 230.024 31.6685C229.366 30 229.063 28.1798 229.063 26.1573C229.063 24.2865 229.417 22.5169 230.024 20.8483C230.731 19.1798 231.642 17.764 232.855 16.5506C234.119 15.3371 235.585 14.3764 237.304 13.6685C239.074 12.9607 240.995 12.6067 243.119 12.6067C244.939 12.6067 246.608 12.9101 248.125 13.5169C249.692 14.073 251.007 14.9326 252.068 15.9944C253.181 17.0562 254.04 18.3708 254.647 19.8876C255.254 21.3539 255.557 23.0225 255.557 24.8933C255.557 25.5 255.507 26.1067 255.406 26.7135C255.355 27.3202 255.254 27.8764 255.102 28.4326H236.293ZM248.175 23.1236C248.125 21.8595 247.67 20.7978 246.81 19.9888C245.951 19.1798 244.686 18.7753 242.917 18.7753C241.147 18.7753 239.731 19.1798 238.72 19.9382C237.658 20.6966 236.951 21.7584 236.495 23.1236H248.175ZM266.492 13.2135V22.4157L269.171 21.9607L275.896 13.2135H284.947L275.138 24.9438L285.907 39H277.11L269.374 28.4831H266.492V39H259.261V13.2135H266.492Z" fill="white"/>
</svg>
