<svg width="908" height="363" viewBox="0 0 908 363" fill="none" xmlns="http://www.w3.org/2000/svg">
<path d="M94.5445 191.781L275.571 128.346V99.5787L94.5445 33.9305V73.0244L214.741 115.069L94.5445 154.9V191.781ZM46.9058 16.9653L0 0V40.5691L46.9058 56.7967V16.9653ZM46.9058 170.39L0 185.88V224.974L46.9058 208.746V170.39Z" fill="#E31B23"/>
<path d="M168.566 309.063V261.117C168.566 248.578 165.634 239.726 160.504 234.563C155.374 229.4 145.846 227.187 133.387 227.187C121.66 227.187 112.132 229.4 104.071 233.826C96.0086 238.251 91.6112 243.415 91.6112 250.053C91.6112 253.004 92.3441 254.479 93.8099 255.954C95.2757 257.429 97.4744 258.167 101.139 258.167H119.461V240.464C120.927 240.464 122.393 239.727 123.126 239.727C131.188 238.989 136.318 240.464 139.983 243.415C142.914 246.365 143.647 250.791 143.647 257.429V261.855C119.461 267.018 104.803 272.182 98.2073 277.345C91.6112 282.508 87.9467 289.147 87.9467 297.998C87.9467 305.375 90.1454 311.276 95.2757 316.439C99.6731 320.865 106.269 323.815 113.598 323.815C118.729 323.815 123.126 323.078 128.989 320.865C134.12 319.389 139.25 316.439 145.113 312.013L147.312 322.34H181.758V312.013L170.765 311.276L168.566 309.063ZM120.194 282.508C124.592 279.558 131.921 276.608 143.647 274.395V303.162C139.983 304.637 137.051 306.112 134.12 306.85C126.058 309.063 120.927 308.325 117.263 304.637C115.064 302.424 113.598 299.474 113.598 295.048C114.331 289.147 116.53 285.459 120.194 282.508Z" fill="#FFFFFF"/>
<path d="M249.918 236.038C246.987 234.563 244.788 233.088 241.856 231.613C238.925 230.137 235.993 229.4 233.062 228.662C230.13 227.925 227.198 227.925 225 227.187C222.801 227.187 220.602 226.449 218.404 226.449C214.006 226.449 209.609 226.449 204.478 227.187C199.348 227.925 194.218 228.662 188.355 230.875H187.622V257.429H200.814L203.013 242.677L205.211 241.202C206.677 240.464 208.143 239.726 210.342 238.989C212.54 238.251 215.472 238.251 218.404 238.251C222.068 238.251 225 238.989 227.198 239.727C229.397 240.464 231.596 241.939 233.794 243.415C235.26 244.89 236.726 246.365 238.192 248.578C239.658 250.791 240.391 252.266 241.124 254.479C241.856 256.692 242.589 258.905 242.589 261.117C242.589 263.33 243.322 265.543 243.322 267.018H208.143V279.558H243.322C243.322 285.459 242.589 291.36 241.124 295.048C239.658 298.736 238.192 302.424 235.26 304.637C233.062 306.85 230.13 308.325 227.931 309.8C223.534 311.276 220.602 311.276 217.671 311.276C216.205 311.276 214.739 311.276 211.807 310.538C209.609 310.538 206.677 309.063 203.013 307.588L201.547 306.112L199.348 289.885H186.156V319.39H186.889C193.485 320.865 199.348 322.34 204.478 323.078C209.609 323.815 214.006 323.815 216.938 323.815C223.534 323.815 230.13 323.078 236.726 320.865C243.322 318.652 248.453 315.701 253.583 312.013C258.713 308.325 262.378 303.162 265.309 297.261C268.241 291.36 269.707 283.984 269.707 275.87C269.707 265.543 267.508 257.429 263.844 251.528C260.179 244.89 255.049 239.727 249.918 236.038Z" fill="#FFFFFF"/>
<path d="M343.73 227.187C339.332 227.187 334.935 227.925 329.805 230.137C325.407 231.613 321.01 234.563 315.147 238.251V227.925H305.619L277.769 236.776V245.627H290.228V348.894L288.029 351.107L277.769 351.845V362.909H329.072V352.582L317.345 351.845L315.147 349.632V321.602C317.345 321.602 319.544 322.34 321.743 322.34C323.941 322.34 326.873 322.34 329.072 322.34C344.463 322.34 356.189 317.914 365.717 309.063C374.512 300.211 378.909 287.672 378.909 272.919C378.909 260.38 375.245 249.316 368.649 241.202C362.052 231.613 353.991 227.187 343.73 227.187ZM351.792 275.132C351.792 285.459 349.593 294.31 344.463 300.949C340.065 306.85 333.469 310.538 325.407 310.538C323.209 310.538 321.743 310.538 319.544 310.538C318.078 310.538 315.88 309.8 314.414 309.8V249.316C317.345 248.578 319.544 247.103 321.743 247.103C323.941 246.365 326.14 246.365 328.339 246.365C335.668 246.365 341.531 249.316 345.196 254.479C350.326 258.167 351.792 265.543 351.792 275.132Z" fill="#FFFFFF"/>
<path d="M440.473 227.187C425.815 227.187 414.088 231.613 405.293 240.464C396.499 249.316 392.101 261.117 392.101 275.87C392.101 289.885 396.499 301.687 405.293 310.538C414.088 319.389 425.815 323.815 439.74 323.815C454.398 323.815 466.124 319.389 474.919 310.538C483.714 301.687 488.112 290.622 488.112 276.608C488.112 261.855 483.714 250.053 475.652 241.202C466.124 231.613 454.398 227.187 440.473 227.187ZM454.398 302.424C450.733 308.325 445.603 311.276 439.007 311.276C432.411 311.276 428.013 308.325 424.349 301.687C420.684 295.048 418.486 286.197 418.486 274.395C418.486 262.593 420.684 253.741 424.349 247.84C428.013 241.939 433.144 238.989 439.007 238.989C445.603 238.989 450.733 241.939 454.398 248.578C458.062 255.217 460.261 264.068 460.261 275.87C460.261 286.934 458.062 296.523 454.398 302.424Z" fill="#FFFFFF"/>
<path d="M584.122 308.325L573.128 286.934C572.395 285.459 570.93 283.984 570.197 282.509C568.731 281.033 567.998 279.558 565.799 278.083C563.601 275.87 559.936 273.657 557.005 272.919C558.47 272.182 559.936 270.707 561.402 269.231C562.868 267.756 563.601 265.543 564.334 264.068L569.464 251.528C570.197 250.791 570.197 249.316 570.93 248.578C570.93 247.84 571.663 247.84 571.663 247.103L582.656 254.479C586.321 253.741 589.252 252.266 591.451 250.053C592.917 247.84 594.383 244.89 594.383 241.939C594.383 238.989 593.65 236.038 592.917 234.563C591.451 233.088 590.718 231.613 588.519 230.138C587.053 229.4 584.855 228.662 583.389 228.662C581.923 228.662 580.457 227.925 578.992 227.925C576.793 227.925 574.594 228.662 572.395 229.4C570.197 230.138 568.731 231.613 566.532 233.088C565.066 234.563 563.601 236.776 562.135 238.989C560.669 241.202 559.203 243.415 558.47 246.365L552.607 259.642C551.874 261.855 550.408 264.068 548.943 265.543C547.477 267.019 545.278 267.756 542.346 267.756H532.819V242.677L535.017 240.464L545.278 239.727V229.4H496.174V239.727L506.434 240.464L508.633 242.677V308.325L506.434 310.538L496.174 311.276V321.602H545.278V311.276L535.75 310.538L533.552 308.325V279.558H537.949C540.881 279.558 543.079 280.296 545.278 281.771C547.477 283.246 548.943 285.459 549.675 286.934L560.669 314.226V320.865H598.047V310.538H587.054L584.122 308.325Z" fill="#FFFFFF"/>
<path d="M620.767 239.726L633.226 240.464L635.425 242.677C635.425 248.578 634.692 254.479 633.959 260.38C633.226 266.281 632.493 272.182 631.027 278.083C629.562 283.984 628.829 289.147 626.63 294.31C625.164 298.736 623.698 302.424 621.5 306.112L611.239 296.523H610.506C607.574 296.523 606.109 297.261 603.91 298.736C602.444 299.474 600.978 300.949 600.245 302.424C599.512 303.899 598.78 305.375 598.78 306.85C598.78 308.325 598.047 309.8 598.047 310.538C598.047 314.226 598.78 317.914 600.978 320.127C603.177 322.34 606.842 323.815 611.239 323.815C616.369 323.815 620.767 322.34 625.164 319.389C628.829 316.439 632.493 312.751 634.692 308.325C637.623 303.899 639.089 298.736 641.288 292.835C642.754 286.934 644.22 281.033 644.952 275.132C645.685 269.231 646.418 263.33 647.151 257.429C647.884 252.266 647.884 247.103 647.884 242.677H664.008V309.8L661.809 312.013H653.014V322.34H702.852V312.013L692.591 311.276L690.393 309.063V243.415L692.591 241.202L702.852 240.464V230.137H620.767V239.726Z" fill="#FFFFFF"/>
<path d="M769.546 239.726L779.807 241.202L781.273 243.415L762.217 292.835L743.162 243.415L744.628 241.202L754.155 239.726V230.137H705.051V239.726L716.777 241.202L749.025 323.078C746.826 328.241 744.628 332.667 742.429 336.355C740.23 340.043 738.031 342.256 735.833 344.469L719.709 333.404H718.976C716.044 334.879 713.113 337.092 711.647 339.305C710.181 341.518 708.715 344.469 708.715 347.419C708.715 351.107 710.181 354.795 713.846 357.746C716.777 360.696 721.175 362.171 725.572 362.171C732.168 362.171 738.764 359.221 744.628 352.582C750.491 346.681 756.354 337.83 760.751 327.503L795.931 241.202L806.191 239.726V230.137H768.813V239.726H769.546Z" fill="#FFFFFF"/>
<path d="M902.934 255.217C900.003 249.316 897.071 244.152 892.674 240.464C889.742 237.514 886.078 235.301 880.947 233.088C875.817 230.875 869.954 229.4 862.625 229.4C855.296 229.4 847.967 230.875 841.371 234.563C835.507 237.514 831.11 241.939 827.445 247.103C828.178 241.202 828.911 236.038 831.11 232.35C833.309 227.925 836.24 224.237 839.172 222.024C842.103 219.073 845.768 217.598 849.432 216.123C853.097 214.647 857.494 213.91 861.159 213.172L875.817 210.959C879.482 210.222 882.413 209.484 885.345 208.746C888.276 207.271 891.208 205.796 894.14 203.583C897.071 201.37 899.27 198.42 900.736 194.732C902.934 191.044 903.667 186.618 904.4 181.455V179.979H891.941V180.717C891.208 182.93 889.742 184.405 886.81 185.143C885.345 185.88 883.879 185.88 882.413 185.88C880.947 185.88 879.481 186.618 878.016 186.618L863.358 188.093C860.426 188.831 857.494 188.831 854.563 189.568C851.631 190.306 848.7 191.044 845.768 192.519C842.836 193.994 839.905 195.469 836.973 196.945C834.042 199.157 831.11 201.37 828.178 204.321C825.247 208.009 822.315 212.435 820.116 217.598C817.918 222.761 815.719 227.925 814.253 233.826C812.787 239.727 812.054 244.89 811.322 250.791C810.589 256.692 810.589 261.855 810.589 267.756C810.589 271.444 810.589 275.132 811.322 278.82C811.322 282.508 812.054 286.197 813.52 289.885C814.253 293.573 815.719 297.261 817.918 300.949C820.116 304.637 822.315 307.588 825.247 310.538C828.178 313.489 831.843 315.701 837.706 318.652C842.836 320.865 849.432 322.34 858.227 322.34C863.358 322.34 869.221 321.602 875.084 320.127C880.947 318.652 886.078 316.439 891.208 312.751C893.407 311.276 895.605 309.063 897.804 306.112C900.003 303.899 901.469 300.949 902.934 297.998C905.866 292.098 907.332 283.984 907.332 274.395C907.332 267.756 905.866 261.118 902.934 255.217ZM858.96 311.276C853.83 311.276 850.165 309.8 847.967 307.588C845.035 304.637 842.836 301.687 842.103 297.998C840.638 294.31 839.905 289.885 839.905 286.197C839.905 282.508 839.172 278.82 839.172 275.87C839.172 269.231 839.905 264.068 840.638 260.38C841.371 256.692 842.836 253.741 844.302 250.791C845.768 247.84 847.967 245.628 850.165 243.415C852.364 241.202 856.029 240.464 859.693 240.464C864.091 240.464 867.022 241.202 869.954 243.415C872.885 245.628 875.084 248.578 876.55 251.528C878.016 255.217 879.482 258.905 879.482 263.33C880.214 267.756 880.214 272.182 880.214 275.87C880.214 277.345 880.214 278.083 880.214 279.558V284.721C880.214 288.409 879.481 292.098 878.016 295.786C876.55 299.474 874.351 302.424 871.42 305.375C867.755 310.538 863.358 311.276 858.96 311.276Z" fill="#FFFFFF"/>
</svg>
