<svg width="145" height="64" viewBox="0 0 145 64" fill="none" xmlns="http://www.w3.org/2000/svg">
<g clip-path="url(#clip0_2360_87024)">
<path fill-rule="evenodd" clip-rule="evenodd" d="M136.19 5.9104C131.692 1.1104 125.383 0 120.704 0C114.492 0 109.449 2.3136 105.847 5.7376C104.042 7.4496 102.695 9.4208 101.613 11.2192C100.804 9.5936 99.4539 7.28 98.0103 5.9072C93.7763 1.2864 88.4629 0 83.8744 0C70.905 0 67.9341 8.736 67.9341 8.736V29.0336C67.9341 25.8656 68.3852 22.1824 70.006 19.184C71.6268 16.1024 74.5977 13.616 79.7307 13.7024C84.6832 13.7024 87.3867 16.016 89.0074 19.0976C90.4478 22.0096 90.7152 25.3504 90.7152 28.4352V60.7232H105.215V28.4352C105.215 25.1808 105.396 22.0992 107.107 18.928C108.818 15.8432 111.972 13.616 116.922 13.616C121.697 13.616 124.487 15.5872 125.928 18.416C127.732 21.4112 128.087 25.3504 128.087 28.9472V60.6368H142.587V28.3488C142.496 16.272 141.507 11.5616 136.194 5.9104H136.19Z" fill="#333333"/>
<path fill-rule="evenodd" clip-rule="evenodd" d="M52.7736 1.8912V10.1472C50.2989 5.8464 44.2508 0.7712 34.2651 0.0864C33.5337 0 32.8022 0 31.9773 0C14.4742 0 0 12.64 0 31.4752C0 48.2432 11.8191 63.0336 31.9741 63.0336C32.799 63.0336 33.5337 63.0336 34.2651 62.9504C42.0532 62.432 49.2903 59.0784 52.7736 52.8864V61.1424H68.44V1.8912H52.7736ZM52.8638 32.0768C52.7619 34.9659 51.9106 37.7799 50.3923 40.2464C47.6438 45.3184 42.3271 49.2768 34.2651 49.2768C21.0733 49.2768 15.6664 38.784 15.5762 31.7312V31.648C15.5762 22.88 22.0819 13.76 34.0814 13.76H34.2651C43.152 13.8496 48.6491 18.4928 51.214 23.824C52.4997 26.4032 53.0507 29.2416 52.8638 32.08V32.0768Z" fill="#ED1C24"/>
</g>
<defs>
<clipPath id="clip0_2360_87024">
<rect width="145" height="64" fill="white"/>
</clipPath>
</defs>
</svg>
