<svg width="150" height="31" viewBox="0 0 150 31" fill="none" xmlns="http://www.w3.org/2000/svg">
<path d="M144.853 6.00464L139.747 11.8016V6.00464H136.042V20.6112H139.747V14.4611L145.224 20.6112H150L143.268 12.9651L149.506 6.00464H144.853Z" fill="#EF3124"/>
<path d="M129.495 11.4483H124.389V6.00464H120.684V20.6112H124.389V14.8558H129.495V20.6112H133.201V6.00464H129.495V11.4483Z" fill="#EF3124"/>
<path d="M21.9875 13.9209C21.9052 16.6427 21.5552 17.1829 20.0317 17.1829V20.6112H20.5876C24.3757 20.6112 25.2815 18.6373 25.4256 14.2533L25.5698 9.39137H29.1108V20.6112H32.8165V6.00464H22.2552L21.9875 13.9209Z" fill="#EF3124"/>
<path d="M41.7721 17.4115H39.384V13.6923H41.7721C43.0485 13.6923 43.8308 14.2533 43.8308 15.4792C43.8308 16.8089 43.0897 17.4115 41.7721 17.4115ZM42.0603 10.451H39.384V6.00464H35.6782V20.6112H42.1015C46.1366 20.6112 47.5778 17.9725 47.5778 15.4792C47.5778 12.2587 45.5808 10.451 42.0603 10.451Z" fill="#EF3124"/>
<path d="M59.6419 17.4324V9.16293C61.7006 9.45381 62.9771 11.0121 62.9771 13.2976C62.9976 15.5832 61.7006 17.1415 59.6419 17.4324ZM55.9362 17.4324C53.8774 17.1415 52.601 15.5832 52.601 13.2976C52.601 11.0121 53.8774 9.45381 55.9362 9.16293V17.4324ZM59.6419 5.67231V0.24939H55.9362V5.67231C51.6951 6.02553 48.8335 9.07982 48.8335 13.2976C48.8335 17.557 51.6951 20.5905 55.9362 20.9645V26.4706H59.6419V20.9645C63.8829 20.6321 66.7446 17.557 66.7446 13.2976C66.7446 9.03826 63.8829 6.00475 59.6419 5.67231Z" fill="#EF3124"/>
<path d="M76.9354 15.1675C76.9354 16.8505 75.762 17.8063 74.2179 17.8063C72.8797 17.8063 71.8298 17.3076 71.8298 15.8532C71.8298 14.4196 72.9826 14.191 73.9914 14.191H76.956V15.1675H76.9354ZM80.6412 16.1233V11.2198C80.6412 7.64609 78.3766 5.38135 74.5679 5.38135C70.6357 5.38135 68.5564 7.77076 68.3711 10.2641H72.118C72.2415 9.72384 72.818 8.78886 74.5679 8.78886C76.009 8.78886 76.9354 9.45373 76.9354 11.2198H73.2503C69.9563 11.2198 68.0005 12.9651 68.0005 15.874C68.0005 18.9075 70.1416 20.9852 73.2297 20.9852C75.4943 20.9852 76.7501 19.9048 77.2854 19.0945C77.7795 20.071 78.8501 20.632 80.2706 20.632H81.547V17.2661C80.8882 17.2453 80.6412 16.9336 80.6412 16.1233Z" fill="#EF3124"/>
<path d="M96.3287 16.9336H92.376V11.6353H96.3287C98.3875 11.6353 99.5404 12.5911 99.5404 14.2741C99.5404 16.0194 98.3875 16.9336 96.3287 16.9336ZM96.4934 8.0824H92.3554V3.94768H101.949V0.228516H88.4644V20.6112H96.4934C100.94 20.6112 103.493 18.388 103.493 14.2741C103.493 10.4095 100.961 8.0824 96.4934 8.0824Z" fill="#EF3124"/>
<path d="M113.972 15.1675C113.972 16.8505 112.799 17.8063 111.255 17.8063C109.916 17.8063 108.866 17.3076 108.866 15.8532C108.866 14.4196 110.019 14.191 111.028 14.191H113.993V15.1675H113.972ZM117.678 16.1233V11.2198C117.678 7.64609 115.413 5.38135 111.604 5.38135C107.672 5.38135 105.593 7.77076 105.408 10.2641H109.155C109.278 9.72384 109.855 8.78886 111.604 8.78886C113.046 8.78886 113.972 9.45373 113.972 11.2198H110.287C106.993 11.2198 105.037 12.9651 105.037 15.874C105.037 18.9075 107.178 20.9852 110.266 20.9852C112.531 20.9852 113.787 19.9048 114.322 19.0945C114.816 20.071 115.887 20.632 117.307 20.632H118.584V17.2661C117.925 17.2453 117.678 16.9336 117.678 16.1233Z" fill="#EF3124"/>
<path d="M19.8051 31H0V26.8445H19.8051V31Z" fill="#EF3124"/>
<path d="M7.08195 12.9028L9.86125 4.57104H9.96419L12.5788 12.9028H7.08195ZM13.5052 3.03351C12.9494 1.32976 12.2906 0 10.0671 0C7.84368 0 7.14371 1.32976 6.54667 3.03351L0.411621 20.6113H4.46734L5.88788 16.435H13.7111L15.0287 20.6113H19.3521L13.5052 3.03351Z" fill="#EF3124"/>
</svg>
