<svg width="27" height="26" viewBox="0 0 27 26" fill="none" xmlns="http://www.w3.org/2000/svg">
<path d="M19.097 0H8.44872C4.13445 0 0.625 3.46946 0.625 7.73458V18.2654C0.625 22.5305 4.13445 26 8.44872 26H19.097C23.4113 26 26.9207 22.5305 26.9207 18.2654V7.73458C26.9207 3.46946 23.4113 0 19.097 0Z" fill="#D70926"/>
<path d="M14.8357 17.7805C14.1818 18.7292 13.3267 19.2264 12.3633 19.2264C11.2412 19.2264 10.3938 18.7292 9.76695 17.704C9.11304 16.6291 8.78028 15.0187 8.78028 12.9148C8.78028 10.9869 9.13239 9.45299 9.82499 8.35898C10.475 7.33 11.2915 6.85184 12.3903 6.85184C13.3693 6.85184 14.1354 7.25349 14.8009 8.12182C15.5129 9.05135 16.1165 10.5891 16.546 12.5629C16.0081 15.2367 15.478 16.851 14.8357 17.7805ZM22.0713 16.1969L22.0636 16.3116C22.0249 16.763 21.7386 17.2182 21.2665 17.2182C20.9028 17.2182 20.6126 17.0843 20.3727 16.8127C20.0864 16.4876 19.8271 16.0974 19.5679 15.3859C20.3069 12.911 22.5821 4.98515 22.5821 4.98515H18.2639C18.2639 4.98515 17.8654 6.8442 17.5055 8.53495C17.4862 8.49287 17.4707 8.45462 17.4514 8.41254C17.0915 7.65132 16.5189 6.80595 15.8804 6.21304C14.77 5.18023 13.4621 4.67529 11.8796 4.67529C9.70118 4.67529 7.85552 5.47094 6.39679 7.04693C4.94581 8.61145 4.17969 10.6159 4.17969 12.846C4.17969 15.3285 4.90711 17.3712 6.34262 18.9089C7.84004 20.5155 9.62766 21.2614 11.9725 21.2614C13.3383 21.2614 14.6423 20.8598 15.8495 20.0718C16.6311 19.563 17.343 18.8554 18.0163 17.9412C18.2988 18.8477 18.5851 19.4636 18.9256 19.9265C19.475 20.6724 20.3031 21.1008 21.1891 21.1008C22.1139 21.1008 22.9574 20.6341 23.3869 19.8805C23.7699 19.2111 23.9247 18.3849 23.9247 17.0231V16.1969H22.0713Z" fill="white"/>
</svg>
