<svg width="300" height="38" viewBox="0 0 300 38" fill="none" xmlns="http://www.w3.org/2000/svg">
<path d="M75.8461 37.2192L63.7434 0.780821H52.3218L40.2192 37.2192H50.3833L51.9551 31.9616H64.1625L65.7343 37.2192H75.8461ZM58.0326 11.5562L61.7525 23.9452H54.3651L58.0326 11.5562Z" fill="#4C4C4C"/>
<path d="M87.891 0.780821H78.5127V37.2192H100.518V28.2137H87.891V0.780821Z" fill="#4C4C4C"/>
<path d="M120.018 16.3452V24.3616H128.925C127.562 27.537 124.733 29.1507 120.489 29.1507C117.189 29.1507 114.569 28.1616 112.735 26.2356C110.902 24.3096 110.011 21.9151 110.011 19.1041C110.011 16.189 110.954 13.7945 112.788 11.9205C114.621 10.0466 117.031 9.10959 119.913 9.10959C123.476 9.10959 126.462 10.6192 127.929 12.9096L135.893 8.38082C134.269 5.83014 132.068 3.8 129.186 2.29041C126.357 0.780821 123.214 0 119.808 0C114.412 0 109.854 1.82192 106.186 5.51781C102.519 9.2137 100.685 13.6904 100.685 19.0521C100.685 24.4137 102.519 28.8904 106.186 32.5342C109.906 36.1781 114.621 38 120.332 38C125.729 38 130.077 36.3342 133.43 33.0548C136.836 29.7233 138.512 25.4027 138.512 20.0411V16.3452H120.018Z" fill="#4C4C4C"/>
<path d="M174.313 32.5342C178.033 28.8384 179.919 24.3616 179.919 19C179.919 13.6384 178.033 9.16164 174.313 5.51781C170.593 1.82192 166.088 0 160.691 0C155.295 0 150.737 1.82192 147.017 5.51781C143.297 9.16164 141.463 13.6384 141.463 19C141.463 24.3616 143.297 28.8384 147.017 32.5342C150.737 36.1781 155.295 38 160.691 38C166.088 38 170.593 36.1781 174.313 32.5342ZM153.618 26.1315C151.732 24.2575 150.789 21.863 150.789 19C150.789 16.137 151.732 13.7425 153.618 11.9205C155.504 10.0466 157.862 9.10959 160.691 9.10959C163.52 9.10959 165.878 10.0466 167.764 11.9205C169.65 13.7425 170.593 16.137 170.593 19C170.593 21.863 169.65 24.2575 167.764 26.1315C165.878 27.9534 163.52 28.8904 160.691 28.8904C157.862 28.8904 155.504 27.9534 153.618 26.1315Z" fill="#4C4C4C"/>
<path d="M203.969 14.263H193.648V0.780821H184.27V37.2192H193.648V23.2164H203.969V37.2192H213.295V0.780821H203.969V14.263Z" fill="#4C4C4C"/>
<path d="M228.491 23.1123H241.118V14.5233H228.491V9.47397H242.427V0.780821H219.113V37.2192H242.689V28.474H228.491V23.1123Z" fill="#4C4C4C"/>
<path d="M256.529 0.780821H247.151V37.2192H269.156V28.2137H256.529V0.780821Z" fill="#4C4C4C"/>
<path d="M272.58 0.780821V37.2192H281.958V26.2877H286.83C290.55 26.2877 293.641 25.0904 296.156 22.6959C298.671 20.3014 299.929 17.2301 299.929 13.5342C299.929 9.83836 298.671 6.76712 296.156 4.3726C293.641 1.97808 290.55 0.780821 286.83 0.780821H272.58ZM281.958 17.4384V9.68219H286.83C288.926 9.68219 290.55 11.2438 290.55 13.5342C290.55 15.8247 288.926 17.4384 286.83 17.4384H281.958Z" fill="#4C4C4C"/>
<path d="M36.6429 8.85536H30.4427L31.9307 0H23.9946L22.5065 8.85536H17.4224L18.9104 0H10.9743L9.48622 8.85536H3.10007L1.92205 16.1839H8.24619L7.50218 20.4589H1.17803L0 27.7875H6.26215L4.77411 36.6429H12.7103L14.1983 27.7875H19.2825L17.7944 36.6429H25.7306L27.2186 27.7875H33.6048L34.7828 20.4589H28.4587L29.2027 16.1839H35.4648L36.6429 8.85536ZM15.4384 20.4589L16.1824 16.1839H21.2665L20.5225 20.4589H15.4384Z" fill="#4C4C4C"/>
</svg>
