<svg viewBox="0 0 66 24" fill="none" xmlns="http://www.w3.org/2000/svg">
<path d="M58.6249 18.4138C58.5211 18.8973 58.3351 19.0652 57.8585 19.0652H56.7407C56.2434 19.0652 56.1189 18.8973 56.2226 18.4138L58.6871 4.17506C58.7701 3.6923 58.9562 3.52441 59.4529 3.52441H60.5713C61.0471 3.52441 61.1716 3.6923 61.0886 4.17506L58.6249 18.4138Z" fill="#4C4C4C"/>
<path fill-rule="evenodd" clip-rule="evenodd" d="M1.2433 11.9876C1.71987 9.13213 3.39719 7.87104 6.60723 7.87104C8.18081 7.87104 9.40234 8.08162 10.2516 8.52231C10.852 8.83792 10.9137 9.00518 10.8105 9.67847L9.34008 18.0775C9.25775 18.5616 9.09176 18.7288 8.57433 18.876C7.2076 19.2116 5.82018 19.3801 4.39118 19.3801C1.51303 19.3801 0.228618 17.5947 0.725979 14.8436L1.2433 11.9876ZM6.39976 10.0978C4.72245 10.0978 3.83218 10.7284 3.56318 12.3026L3.08661 15.0328C2.85908 16.4398 3.48024 17.1539 4.97077 17.1539C5.65419 17.1539 6.37897 17.0704 7.14534 16.8811L8.24307 10.6013C8.28454 10.4756 8.22228 10.392 8.07707 10.3285C7.58044 10.182 7.02082 10.0978 6.39976 10.0978Z" fill="#4C4C4C"/>
<path d="M17.9547 7.8713C20.8334 7.8713 21.9927 9.5096 21.5162 12.2821L20.4606 18.4141C20.3569 18.8975 20.1702 19.0648 19.6943 19.0648H18.5551C18.0785 19.0648 17.9547 18.8975 18.0585 18.4141L19.1354 12.1557C19.3837 10.7908 18.7626 10.0981 17.2513 10.0981C16.5672 10.0981 15.8845 10.1817 15.2005 10.3709C15.1388 10.3923 15.0766 10.4759 15.0144 10.5809L13.6684 18.4141C13.6062 18.8548 13.3578 19.0648 12.9228 19.0648H11.7836C11.3077 19.0648 11.1832 18.8975 11.2663 18.4141L12.7568 9.78241C12.902 9.11037 13.0888 8.85833 13.7721 8.58614C15.0352 8.10265 16.4226 7.8713 17.9547 7.8713Z" fill="#4C4C4C"/>
<path fill-rule="evenodd" clip-rule="evenodd" d="M29.1574 7.87105C25.948 7.87105 24.2707 9.13214 23.7741 11.9876L23.3591 14.34C22.8625 17.0911 24.1048 18.876 26.9835 18.876C27.6461 18.876 28.454 18.7502 29.4272 18.498L29.2404 19.548C28.9714 21.0599 28.1019 21.8162 26.6521 21.8162C25.6582 21.8162 24.9956 21.4591 24.685 20.7455C24.4367 20.3042 24.2292 20.2407 23.6697 20.4935L22.8832 20.892C22.3659 21.1441 22.2207 21.5012 22.4488 21.9419C23.0285 23.3074 24.3538 24.0001 26.4038 24.0001C29.3857 24.0001 31.1252 22.509 31.6426 19.5272L33.3614 9.67848C33.4651 9.00519 33.403 8.83793 32.8026 8.52232C31.9532 8.08163 30.7316 7.87105 29.1574 7.87105ZM26.114 12.3447C26.3831 10.8535 27.3148 10.0978 28.9506 10.0978C29.551 10.0978 30.1105 10.182 30.6694 10.3285C30.7732 10.392 30.8146 10.4756 30.7939 10.5806L29.7999 16.3563C28.9506 16.5448 28.2257 16.6498 27.6047 16.6498C26.114 16.6498 25.4929 15.957 25.7205 14.5708L26.114 12.3447Z" fill="#4C4C4C"/>
<path fill-rule="evenodd" clip-rule="evenodd" d="M34.977 11.9876C35.4737 9.13214 37.151 7.87105 40.3604 7.87105C41.9346 7.87105 43.1561 8.08163 44.0055 8.52232C44.6058 8.83793 44.6681 9.00519 44.5643 9.67848L42.8456 19.5272C42.3281 22.509 40.5887 24.0001 37.6062 24.0001C35.5566 24.0001 34.2307 23.3074 33.6518 21.9419C33.4235 21.5012 33.5688 21.1441 34.0862 20.892L34.8726 20.4935C35.4322 20.2407 35.6397 20.3042 35.8874 20.7455C36.1978 21.4591 36.8612 21.8162 37.8551 21.8162C39.3048 21.8162 40.1744 21.0599 40.4434 19.548L40.63 18.498C39.6562 18.7502 38.8491 18.876 38.1864 18.876C35.3077 18.876 34.0655 17.0911 34.5621 14.34L34.977 11.9876ZM40.1536 10.0978C38.5177 10.0978 37.586 10.8535 37.317 12.3447L36.9235 14.5708C36.6958 15.957 37.317 16.6498 38.8075 16.6498C39.4287 16.6498 40.1536 16.5448 41.0029 16.3563L41.9969 10.5806C42.0176 10.4756 41.9761 10.392 41.8724 10.3285C41.3135 10.182 40.7539 10.0978 40.1536 10.0978Z" fill="#4C4C4C"/>
<path fill-rule="evenodd" clip-rule="evenodd" d="M51.7706 7.87114C48.6851 7.87114 46.6972 9.38374 46.2005 12.1348L45.7448 14.6337C45.475 16.02 45.6617 17.1535 46.3035 18.0361C46.9455 18.9389 48.0639 19.3802 49.679 19.3802C51.895 19.3802 53.5102 18.7289 54.5248 17.4269C54.8769 16.9862 54.8561 16.6292 54.4626 16.3564L53.8207 15.9364C53.3856 15.6207 53.1581 15.705 52.723 16.1879C52.1226 16.9228 51.2325 17.2798 50.0518 17.2798C48.499 17.2798 47.8156 16.5449 48.0431 15.1801L48.1676 14.4451C49.1201 14.613 49.9695 14.6967 50.7143 14.6967C53.7585 14.6967 55.4358 13.7939 55.7878 11.7783C56.0154 10.6229 55.7464 9.67805 55.0007 8.94305C54.2551 8.22882 53.1789 7.87114 51.7706 7.87114ZM48.582 12.1348C48.851 10.77 49.9072 9.93008 51.4185 9.93008C52.9305 9.93008 53.6554 10.4965 53.4686 11.5049C53.2825 12.3869 52.4747 12.8282 51.0457 12.8282C50.3208 12.8282 49.4721 12.744 48.499 12.5761L48.582 12.1348Z" fill="#4C4C4C"/>
<path d="M62.7453 19.0652C63.2219 19.0652 63.4079 18.8973 63.5116 18.4138L65.9761 4.17506C66.0591 3.6923 65.9345 3.52441 65.4581 3.52441H64.3403C63.8429 3.52441 63.6568 3.6923 63.5739 4.17506L61.1094 18.4138C61.0063 18.8973 61.1302 19.0652 61.6275 19.0652H62.7453Z" fill="#4C4C4C"/>
<path d="M4.43256 1.59882C2.65214 1.59882 1.63032 2.09658 1.58109 2.40371C1.55834 2.54564 1.78794 2.93516 2.49918 3.37586C3.32387 3.88654 4.52854 4.29932 5.80706 4.50803C7.08495 4.71737 8.35705 4.71086 9.29727 4.4886C10.1097 4.29735 10.4481 4.00056 10.4707 3.858C10.4935 3.71669 10.264 3.32727 9.552 2.88596C8.72793 2.37517 7.52263 1.96301 6.24474 1.75378C5.57559 1.6442 4.96933 1.59882 4.43256 1.59882ZM7.62182 6.26367C6.96053 6.26367 6.26222 6.20599 5.55491 6.09062C4.06034 5.84624 2.68265 5.3674 1.67572 4.74394C0.0379166 3.72899 -0.0638514 2.68241 0.0210588 2.14837C0.331017 0.206135 3.51313 -0.316846 6.49689 0.171813C7.99145 0.416091 9.36915 0.894413 10.3761 1.51912C12.0132 2.53272 12.1156 3.58064 12.0307 4.11396C11.9458 4.64738 11.5243 5.60847 9.65511 6.04917C9.04957 6.19234 8.3584 6.26367 7.62182 6.26367Z" fill="#4C4C4C"/>
</svg>
