<svg width="193" height="61" viewBox="0 0 193 61" fill="none" xmlns="http://www.w3.org/2000/svg">
<path fill-rule="evenodd" clip-rule="evenodd" d="M14.1982 4.75607C15.0645 5.29026 16.0458 5.61101 17.0609 5.69182C18.0759 5.77262 19.0957 5.61116 20.0359 5.22077C20.9761 4.83038 21.8097 4.22227 22.4678 3.4467C23.126 2.67113 23.5897 1.75037 23.8208 0.760515C28.2755 -0.253505 32.9018 -0.253505 37.3564 0.760515C37.5873 1.7511 38.0511 2.67258 38.7095 3.44872C39.368 4.22486 40.2022 4.83334 41.143 5.22381C42.0839 5.61428 43.1044 5.77552 44.12 5.69418C45.1357 5.61284 46.1174 5.29127 46.9838 4.75607C50.8729 7.21243 54.1526 10.5178 56.5759 14.4231C56.0325 15.2823 55.7018 16.2582 55.6111 17.2702C55.5204 18.2821 55.6722 19.3011 56.054 20.243C56.4359 21.1848 57.0368 22.0224 57.8071 22.6866C58.5774 23.3508 59.495 23.8226 60.4841 24.0628C61.4083 28.3047 61.4083 32.6953 60.4841 36.9372C59.4948 37.1774 58.5769 37.6491 57.8064 38.3134C57.0359 38.9777 56.4349 39.8155 56.053 40.7576C55.6712 41.6996 55.5194 42.7189 55.6103 43.7311C55.7012 44.7432 56.0322 45.7193 56.5759 46.5785C54.1517 50.4837 50.8708 53.7886 46.9806 56.2439C46.1143 55.7094 45.1329 55.3884 44.1176 55.3074C43.1023 55.2264 42.0823 55.3878 41.1419 55.7782C40.2015 56.1686 39.3677 56.7769 38.7095 57.5526C38.0512 58.3284 37.5874 59.2494 37.3564 60.2395C32.9018 61.2535 28.2755 61.2535 23.8208 60.2395C23.59 59.2489 23.1262 58.3274 22.4677 57.5513C21.8092 56.7751 20.9751 56.1667 20.0342 55.7762C19.0934 55.3857 18.0729 55.2245 17.0572 55.3058C16.0415 55.3872 15.0599 55.7087 14.1934 56.2439C10.305 53.7873 7.02585 50.482 4.60301 46.5769C5.14633 45.7176 5.47697 44.7416 5.56761 43.7295C5.65825 42.7174 5.50628 41.6984 5.12427 40.7565C4.74226 39.8147 4.14117 38.9771 3.37067 38.3129C2.60017 37.6488 1.6824 37.1772 0.693182 36.9372C-0.231061 32.6953 -0.231061 28.3047 0.693182 24.0628C1.6825 23.8226 2.60035 23.3509 3.37084 22.6866C4.14134 22.0223 4.74237 21.1845 5.12424 20.2424C5.50611 19.3004 5.65786 18.2811 5.56695 17.2689C5.47603 16.2568 5.14506 15.2807 4.6014 14.4215C7.02605 10.5161 10.3075 7.21122 14.1982 4.75607ZM30.5886 51.8455C42.4098 51.8455 51.9954 42.2892 51.9954 30.5C51.9954 18.7124 42.4098 9.15615 30.5886 9.15615C18.7675 9.15615 9.18511 18.7124 9.18511 30.5C9.18511 42.2876 18.7691 51.8455 30.5918 51.8455H30.5886ZM24.0138 47.585V36.5583H36.8563V47.699C43.9039 45.1466 48.9363 38.4092 48.9363 30.5C48.9363 20.3963 40.7227 12.2046 30.5886 12.2046C20.4562 12.2046 12.2409 20.3963 12.2409 30.5C12.2409 38.2937 17.1286 44.9476 24.0138 47.585ZM36.8563 27.0101C36.8563 26.1686 36.6901 25.3353 36.3673 24.5579C36.0445 23.7805 35.5714 23.0742 34.975 22.4793C34.3786 21.8845 33.6706 21.4128 32.8915 21.0912C32.1123 20.7696 31.2774 20.6044 30.4342 20.605C29.5912 20.6046 28.7564 20.77 27.9775 21.0917C27.1986 21.4134 26.4907 21.8851 25.8945 22.4799C25.2983 23.0747 24.8253 23.7809 24.5026 24.5583C24.1799 25.3356 24.0138 26.1687 24.0138 27.0101C24.0142 27.8512 24.1806 28.684 24.5035 29.461C24.8264 30.2379 25.2995 30.9438 25.8956 31.5382C26.4918 32.1327 27.1995 32.6042 27.9782 32.9257C28.757 33.2472 29.5915 33.4124 30.4342 33.412C31.2771 33.4126 32.1118 33.2475 32.8907 32.9261C33.6696 32.6047 34.3775 32.1333 34.9739 31.5388C35.5702 30.9443 36.0434 30.2384 36.3664 29.4614C36.6894 28.6843 36.8558 27.8514 36.8563 27.0101ZM132.482 13.1405C132.482 13.6614 132.379 14.1773 132.179 14.6586C131.98 15.1398 131.687 15.5771 131.317 15.9453C130.948 16.3135 130.51 16.6055 130.028 16.8046C129.545 17.0037 129.028 17.1059 128.506 17.1055C127.721 17.1049 126.953 16.8718 126.3 16.4357C125.647 15.9996 125.139 15.3802 124.839 14.6556C124.538 13.931 124.46 13.1339 124.614 12.365C124.767 11.596 125.146 10.8898 125.702 10.3356C126.257 9.78141 126.965 9.4041 127.736 9.25137C128.506 9.09863 129.305 9.17734 130.031 9.47754C130.756 9.77774 131.376 10.286 131.813 10.9379C132.249 11.5899 132.482 12.3564 132.482 13.1405ZM124.531 42.0982V19.0527H132.482V42.0982H124.531ZM146.661 34.5614C146.722 40.1895 151.037 42.8655 156.847 42.8655C163.18 42.8655 167.053 40.4383 167.053 34.9145C167.053 32.0844 165.863 30.1067 163.484 28.983C161.86 28.2173 160.044 27.9091 158.267 27.6073C157.911 27.5477 157.555 27.4862 157.2 27.4227L156.996 27.3761C156.042 27.1674 154.613 26.8544 154.613 25.6745C154.613 25.1464 154.807 24.7306 155.196 24.4256C156.076 23.7353 157.67 23.7995 158.516 24.5075C158.947 24.8687 159.163 25.4096 159.163 26.132H166.616C166.574 23.7867 165.662 21.9069 163.88 20.4911C162.114 19.0624 159.769 18.348 156.847 18.348C152.202 18.348 146.973 20.6403 146.973 25.9442C146.973 27.267 147.256 28.6042 147.975 29.7327C148.601 30.6397 149.527 31.3331 150.5 31.8356C151.993 32.5788 153.665 32.9063 155.301 33.168C156.652 33.3879 157.646 33.6448 158.286 33.9369C159.412 34.4137 159.616 35.8504 158.6 36.5808C157.602 37.2855 156.001 37.186 155.073 36.4139C154.571 35.9837 154.32 35.3656 154.32 34.5614H146.659H146.661ZM170.249 32.208C170.249 38.7126 175.345 42.8446 181.645 42.8446C187.947 42.8446 193 38.703 193 32.208V19.0752H185.047V32.1807C185.047 33.969 183.886 35.7252 181.645 35.7252C179.406 35.7252 178.2 33.9803 178.2 32.1807V19.0752H170.249V32.208ZM143.859 38.8699C143.859 39.3951 143.756 39.9152 143.554 40.4003C143.353 40.8855 143.058 41.3263 142.685 41.6975C142.313 42.0687 141.871 42.3631 141.385 42.5638C140.899 42.7644 140.378 42.8675 139.851 42.8671C139.325 42.8675 138.804 42.7644 138.318 42.5638C137.832 42.3631 137.39 42.0687 137.018 41.6975C136.645 41.3263 136.35 40.8855 136.149 40.4003C135.947 39.9152 135.844 39.3951 135.844 38.8699C135.844 38.3448 135.947 37.8247 136.149 37.3396C136.35 36.8544 136.645 36.4136 137.018 36.0424C137.39 35.6712 137.832 35.3768 138.318 35.1761C138.804 34.9754 139.325 34.8724 139.851 34.8728C140.378 34.8724 140.899 34.9754 141.385 35.1761C141.871 35.3768 142.313 35.6712 142.685 36.0424C143.058 36.4136 143.353 36.8544 143.554 37.3396C143.756 37.8247 143.859 38.3448 143.859 38.8699ZM115.104 19.0527V11.6957H112.241L102.86 21.8893V25.2443H107.154V32.7394C107.035 35.714 107.524 38.345 109.615 40.2007C111.614 41.973 113.415 42.111 117.44 42.111H120.823V35.1553H117.412C116.166 35.1393 115.08 33.9465 115.106 32.7313V25.2443H120.692V19.0543L115.104 19.0527ZM93.0059 40.4447C90.9757 42.0009 88.4875 42.8446 85.9277 42.8446C79.3497 42.8446 74.0197 37.3594 74.0197 30.5915C74.0197 23.8252 79.3513 18.34 85.9277 18.34C88.6297 18.34 91.1226 19.2662 93.1217 20.8282L93.7811 19.0624H99.9153V42.0853H93.5978L93.0059 40.4447ZM92.3899 30.5819C92.3899 33.5035 90.0723 35.8697 87.2111 35.8697C84.3515 35.8697 82.0324 33.5019 82.0324 30.5819C82.0324 27.6603 84.3515 25.2941 87.2111 25.2941C90.0723 25.2941 92.3899 27.6619 92.3899 30.5819Z" fill="white"/>
</svg>
