<svg width="113" height="32" viewBox="0 0 113 32" fill="none" xmlns="http://www.w3.org/2000/svg">
<path fill-rule="evenodd" clip-rule="evenodd" d="M69.0228 2.88952e-07C73.2688 2.88952e-07 77.3415 1.68682 80.344 4.68937C83.3464 7.69192 85.0332 11.7643 85.0332 16.0106C85.0298 20.2547 83.3414 24.3235 80.3392 27.3232C77.3369 30.323 73.2668 32.008 69.0228 32.008C64.7781 32.0086 60.7071 30.324 57.7043 27.3242C54.7016 24.3245 53.013 20.2551 53.0094 16.0106C53.0094 13.9079 53.4235 11.8258 54.2283 9.88307C55.0333 7.94038 56.213 6.17514 57.6997 4.68837C59.1869 3.2018 60.952 2.02251 62.8948 1.21791C64.8377 0.413504 66.9198 -0.000399232 69.0228 2.88952e-07ZM69.0228 7.09479C67.8523 7.09479 66.6934 7.32545 65.6123 7.77356C64.5313 8.22187 63.5492 8.87863 62.722 9.70684C61.8948 10.5348 61.2392 11.5179 60.7921 12.5994C60.3454 13.6812 60.116 14.8403 60.1173 16.0106C60.118 18.372 61.0568 20.6364 62.7266 22.306C64.3966 23.9754 66.6612 24.9132 69.0228 24.9132C71.384 24.9132 73.6483 23.9754 75.318 22.3058C76.9874 20.6362 77.9254 18.3718 77.9254 16.0106C77.9272 14.8405 77.698 13.6814 77.2516 12.5996C76.8047 11.5181 76.1496 10.535 75.3224 9.70684C74.4955 8.87883 73.5135 8.22187 72.4328 7.77376C71.3516 7.32545 70.1929 7.09479 69.0228 7.09479Z" fill="#DF192C"/>
<path d="M21.0121 0.680473C20.9775 0.618403 20.9115 0.577945 20.8377 0.577945H12.4284L12.3752 0.585039C12.2741 0.61273 12.2078 0.717352 12.234 0.825207L19.63 31.2638L19.6498 31.3142C19.6845 31.3763 19.7507 31.4167 19.8245 31.4167H28.2312L28.2843 31.4096C28.3853 31.3819 28.4516 31.2774 28.4252 31.1694L21.0318 0.730784L21.0121 0.680473Z" fill="#DF192C"/>
<path d="M52.805 0.724834C52.7816 0.640183 52.7039 0.577945 52.6121 0.577945H25.6657L25.6127 0.585095C25.5281 0.608397 25.4657 0.685972 25.4657 0.777995V8.08602L25.4729 8.13918C25.4962 8.22383 25.5739 8.28607 25.6657 8.28607H34.7922L34.8455 8.29322C34.9302 8.31652 34.9923 8.3941 34.9923 8.48612V31.2166L34.9994 31.2698C35.0227 31.3546 35.1003 31.4167 35.1923 31.4167H43.0827L43.1359 31.4095C43.2206 31.3863 43.2827 31.3088 43.2827 31.2166V8.48612L43.2899 8.43296C43.3133 8.34831 43.3909 8.28607 43.4828 8.28607H52.6121L52.6652 8.27892C52.7498 8.25562 52.8121 8.17805 52.8121 8.08602V0.777995L52.805 0.724834Z" fill="#DF192C"/>
<path d="M12.2572 16C12.3683 16 12.4543 16.0892 12.4573 16.1941L12.4516 16.2475L8.80353 31.264C8.78609 31.3357 8.73125 31.3905 8.6628 31.4096L8.60928 31.4169H0.200179C0.0890652 31.4169 0.00308453 31.3276 6.10352e-05 31.2229L0.00573009 31.1696L3.65384 16.1528C3.67129 16.0811 3.72612 16.0263 3.79457 16.0073L3.84809 16H12.2572Z" fill="#DF192C"/>
<path d="M100.424 0.771827C100.421 0.667013 100.335 0.577945 100.224 0.577945H91.8147L91.7611 0.585237C91.6926 0.604288 91.6375 0.659086 91.6202 0.730784L84.2268 31.1694L84.2211 31.2228C84.2241 31.3276 84.31 31.4167 84.4212 31.4167H92.8303L92.884 31.4094C92.9525 31.3904 93.0073 31.3357 93.0246 31.2638L100.418 0.825207L100.424 0.771827Z" fill="#DF192C"/>
<path d="M108.804 16C108.878 16 108.944 16.0405 108.979 16.1025L108.998 16.1528L112.646 31.1696C112.673 31.2774 112.606 31.3821 112.505 31.4098L112.452 31.4169H104.045C103.972 31.4169 103.906 31.3764 103.871 31.3143L103.851 31.264L100.203 16.2475C100.177 16.1394 100.243 16.0348 100.344 16.0071L100.397 16H108.804Z" fill="#DF192C"/>
</svg>
