<svg width="79" height="65" viewBox="0 0 79 65" fill="none" xmlns="http://www.w3.org/2000/svg">
<path d="M48.8463 49.3275C48.8463 46.6499 52.2608 43.3331 59.3876 43.3331C59.8156 43.3331 60.2435 43.3331 60.6668 43.3748C60.1133 48.5169 56.0149 52.0468 52.0049 52.0468C50.065 52.0468 48.8463 51.1528 48.8463 49.3275ZM34.9974 21.1896H35.0857L32.8667 41.5078C30.4618 40.8004 28.0084 40.2679 25.5259 39.9143L34.9974 21.1896ZM19.5389 39.4511C14.245 39.4511 8.69987 40.7713 5.83892 43.9168C4.24716 40.9092 3.4424 37.5507 3.49898 34.1514C3.49898 25.0902 9.43487 16.6822 20.8275 11.3271L19.3762 8.26961C6.02034 14.3058 0.000714575 24.2518 0.000714575 34.1514C-0.0846948 38.9539 1.33304 43.6637 4.05722 47.6274C3.96817 48.104 3.92456 48.588 3.92697 49.0727C3.92697 52.6862 6.18782 55.2757 10.9049 55.2757C15.8128 55.2757 19.9948 51.9172 22.5348 45.288H18.8225C16.9897 49.7074 13.9984 52.0052 10.8863 52.0052C8.45332 52.0052 7.38336 50.898 7.38336 49.0727C7.38336 45.9272 11.2259 42.7402 19.59 42.7402C23.9805 42.7539 28.3424 43.4414 32.5225 44.7785L31.9271 50.3375H35.3556L38.556 20.3743C40.5195 19.9557 42.5213 19.7417 44.5292 19.7351C52.0422 19.7351 54.089 22.3709 54.089 25.22C54.089 29.0001 50.9768 31.636 43.5058 32.4884L44.6176 22.2412L41.2031 22.3709L38.2118 50.3375H41.6264L43.1104 36.2083C45.6588 35.5234 48.2818 35.1515 50.921 35.1011C55.9544 35.1011 59.369 37.144 60.3924 40.1598C60.0525 40.125 59.7107 40.1112 59.369 40.1182C49.679 40.1182 45.3713 45.0471 45.3713 49.3832C45.3713 53.2095 48.2322 55.3313 51.9444 55.3313C57.364 55.3313 63.2115 50.9999 64.0395 43.8982C66.5011 44.4774 68.856 45.4389 71.0175 46.7472C65.17 55.3776 53.34 61.0293 39.1748 61.0293C32.1968 61.0293 23.5116 59.5422 17.7758 55.586L15.9615 58.4444C21.6416 62.5256 30.7315 64.4389 39.1796 64.4389C62.1881 64.4389 78.4047 50.9212 78.4047 34.221C78.4047 16.6638 60.7785 3.99844 39.2259 3.99844C37.9001 3.99844 36.9605 4.04013 35.6813 4.12814L36.0255 7.48671C37.0489 7.44039 38.156 7.3987 39.1796 7.3987C58.4293 7.3987 74.9066 18.98 74.9066 34.221C74.9172 37.576 74.1583 40.8891 72.6875 43.9075C70.0145 42.2785 67.062 41.1555 63.9791 40.5953C63.2534 36.514 59.8807 33.0303 53.3493 32.3494C54.6245 31.648 55.6885 30.6205 56.4319 29.3731C57.1752 28.1255 57.5709 26.703 57.5779 25.2524C57.5779 20.0223 53.8564 16.497 44.5152 16.497C42.6448 16.4987 40.7778 16.6536 38.933 16.9602L39.319 13.3885L35.8626 12.462L32.8667 18.299C28.6009 19.5309 24.4791 21.2129 20.5716 23.316L22.1114 26.2484C24.9146 24.8157 27.8079 23.5654 30.7733 22.5053L22.1533 39.5529C21.2555 39.5067 20.4041 39.4511 19.5389 39.4511ZM32.8993 9.06178C32.8993 5.35576 28.6707 2.04815 23.977 0.987305C23.5097 2.89485 23.2523 4.84737 23.2092 6.81036C23.2092 11.9942 25.8981 13.5275 28.4148 13.5275C31.113 13.5414 32.9087 11.7533 32.9087 9.07566L32.8993 9.06178Z" fill="#3EAE2B"/>
</svg>
