<svg width="450" height="56" viewBox="0 0 450 56" fill="none" xmlns="http://www.w3.org/2000/svg">
<path fill-rule="evenodd" clip-rule="evenodd" d="M148.13 43.8551C147.872 48.1761 146.646 50.3691 142.455 50.3691L141.81 52.4321H161.35L161.93 50.3691C157.932 50.3691 158.126 47.2091 158.319 44.2421L161.543 1.16412C158.899 2.26012 154.643 4.06612 151.289 4.38812L125.429 43.2101C123.365 46.3051 120.592 49.7241 116.658 50.3681L116.013 52.4311H130.91L131.491 50.3681C125.429 50.3681 128.008 45.9821 129.879 43.0161L133.168 37.9851H148.517L148.13 43.8551ZM150.258 14.1261L148.71 34.3101H135.748L149.097 14.3831L150.258 14.1261ZM205.138 44.2421C203.783 49.0791 201.978 50.5621 196.819 50.5621L196.174 52.4321H219.583L220.229 50.5621C215.005 50.6901 214.296 48.8211 215.521 44.2421L225.259 10.3211C226.613 5.48512 228.354 4.00113 233.514 4.00113L233.901 2.19513H195.659L195.015 4.00113C201.205 4.00113 199.658 8.51512 198.174 12.4491L185.406 45.4671C184.439 47.9171 181.214 50.0461 179.344 49.8521C177.409 49.7241 175.603 48.1111 175.539 46.1761C175.41 43.4671 178.441 42.3721 179.667 42.3721C179.667 40.0501 177.088 37.9221 174.379 38.1151C171.67 38.3081 168.704 40.9521 168.704 44.6291C168.704 49.2071 172.186 53.3991 177.216 53.3991C182.182 53.3991 187.211 51.4001 189.082 46.4991L201.979 12.9651C204.236 7.09713 207.46 4.45312 211.071 4.58212C214.296 4.64612 215.521 7.93613 214.748 10.7731L205.138 44.2421ZM280.912 16.3831H282.33L286.2 2.19513H243.831L239.317 16.3831H240.993C243.895 10.3211 252.601 4.58112 259.308 4.38812L247.506 44.2421C246.023 49.4651 243.702 50.3691 238.285 50.3691L237.898 52.4321H263.37L263.757 50.3691C258.534 50.3691 256.534 49.5301 258.082 44.2421L269.69 4.38812C276.397 4.38812 280.912 9.93413 280.912 16.3831ZM312.769 10.3211C313.995 6.00012 315.735 4.00113 320.572 4.00113L321.153 2.19513H298.195L297.485 4.00113C302.645 4.00113 303.548 5.61212 302.257 10.3211L292.648 44.2421C290.972 50.3691 284.136 50.5621 284.136 50.5621L283.749 52.4321H306.707L307.288 50.5621C303.096 50.5621 301.355 48.9491 302.838 44.6291L328.698 15.5441L320.572 44.2421C319.347 48.5631 317.413 50.5621 312.576 50.5621L312.189 52.4321H335.212L335.664 50.5621C330.698 50.5621 329.602 49.0141 330.892 44.2421L340.694 10.3211C341.984 5.74212 343.853 4.00113 349.013 4.00113L349.657 2.19513H326.635L326.055 4.00113C329.666 4.00113 331.02 4.64513 330.697 8.06413V9.09512L304.902 37.5351L312.769 10.3211ZM374.355 10.3211C375.58 6.12912 376.419 4.19513 381.255 4.00113L381.642 2.19513H359.716L359.071 4.00113C364.23 4.00113 365.133 5.35512 363.714 10.3211L353.976 44.2421C352.751 48.7561 350.559 50.5621 345.658 50.5621L345.206 52.4321H368.293L368.874 50.5621C363.843 50.5621 363.393 48.4331 364.552 44.2421L368.422 31.0861L372.549 27.5391L381.578 44.6291C382.868 47.0791 381.191 50.3691 378.16 50.3691L377.515 52.1741H398.732L399.312 50.3691C395.443 49.9821 394.346 47.3381 392.798 44.2421L380.868 20.5741L393.701 9.48312C396.732 6.90312 399.441 4.19512 403.697 4.00212L404.278 2.19612H387.833L387.253 4.00212C393.508 4.00212 389.575 9.03212 387.382 10.8371L370.099 24.8961L374.355 10.3211ZM436.135 43.8551C435.877 48.1111 434.587 50.3691 430.46 50.3691L429.88 52.4321H449.419L450 50.3691C445.808 50.3691 446.196 47.2731 446.389 44.2421L449.613 1.16412C446.711 2.45412 442.714 4.06612 439.424 4.38812L413.435 43.2101C411.371 46.3051 408.663 49.7241 404.729 50.3681L404.149 52.4311H418.916L419.562 50.3681C413.306 50.3681 416.079 45.9821 417.949 43.0161L421.238 37.9851H436.586L436.135 43.8551ZM438.392 14.1261L436.779 34.3101H423.882L437.167 14.3831L438.392 14.1261ZM91.316 25.7341C96.41 25.7341 101.053 28.3781 101.053 33.7301C101.053 42.2431 93.96 49.5941 85.769 49.5941C84.414 49.5941 83.448 48.2401 83.834 46.8851L89.702 25.7331H91.316V25.7341ZM79.707 2.19513L79.32 3.29112C74.805 4.96712 70.033 6.32212 65.326 6.06512C55.136 5.67812 45.463 -0.126882 35.21 0.00211807C25.859 0.195118 14.961 6.51612 11.801 16.2541C17.089 12.2561 25.215 8.58012 32.244 8.32112C42.497 7.99912 52.106 13.7381 62.36 13.9961C68.938 14.1251 77.644 10.0621 81.255 4.19412C85.253 4.71012 84.801 7.22513 83.964 10.3201L74.226 44.2411C72.872 49.0781 70.937 50.5611 65.649 50.5611L65.197 52.4311H90.089C99.633 52.4311 111.692 46.4981 111.692 35.9871C111.692 26.3781 101.31 22.8961 93.378 22.8961H90.734L95.764 4.96812H98.409C108.017 4.96812 112.919 6.77412 115.691 16.1251H117.11L115.563 2.19513H79.707ZM29.277 19.6071C39.531 19.4781 49.204 25.2821 59.458 25.6681C65.198 25.9261 70.937 23.9271 76.354 21.7351C73.71 28.6991 63.779 33.8581 56.491 33.6651C46.238 33.4071 36.564 27.6681 26.375 27.9251C19.281 28.1191 11.607 31.7301 5.932 35.9221C8.899 26.3791 19.669 19.8011 29.277 19.6071ZM23.409 39.2761C33.598 39.1471 43.271 44.9521 53.525 45.3381C59.264 45.5961 65.004 43.5971 70.486 41.4041C67.777 48.3691 57.91 53.5281 50.559 53.3351C40.369 53.0771 30.631 47.2731 20.443 47.5951C13.284 47.8531 5.675 51.4001 0 55.5921C3.03 46.0471 13.736 39.4691 23.409 39.2761Z" fill="#004990"/>
</svg>
