<svg width="171" height="80" viewBox="0 0 171 80" fill="none" xmlns="http://www.w3.org/2000/svg">
<g clip-path="url(#clip0_2360_86962)">
<path d="M26.7385 57.3681C28.6946 58.3205 30.1963 59.674 31.2413 61.4291C32.2884 63.1841 32.8109 65.2405 32.8109 67.5984V68.0517C32.8109 70.4117 32.2804 72.474 31.2193 74.2449C30.1581 76.014 28.6566 77.3757 26.7165 78.3279C24.7745 79.2803 22.4861 79.7576 19.8473 79.7576C16.6319 79.7576 13.9791 78.9249 11.8869 77.2618L11.7047 79.2125H5.56229V47.6367H12.1572V58.2525C14.2794 56.7091 16.8421 55.9386 19.8453 55.9386C22.4842 55.9386 24.7804 56.4157 26.7385 57.3681ZM25.9878 67.5984C25.9878 65.8155 25.3652 64.422 24.1218 63.4256C22.8785 62.4272 21.1348 61.9283 18.8903 61.9283C17.4648 61.9283 16.1534 62.1559 14.9562 62.6089C13.7569 63.0622 12.8259 63.6832 12.1592 64.4698V71.1843C12.8559 71.9708 13.7969 72.5978 14.9802 73.067C16.1634 73.5361 17.4668 73.7698 18.8923 73.7698C21.1367 73.7698 22.8804 73.2706 24.1239 72.2723C25.3671 71.2742 25.9897 69.8685 25.9897 68.0536V67.5984H25.9878Z" fill="#2070FD"/>
<path d="M62.5875 69.7736H42.298C42.5104 71.1953 43.2071 72.2854 44.3903 73.0401C45.5736 73.7968 47.1652 74.174 49.1674 74.174C50.9871 74.174 52.4727 73.9325 53.626 73.4473C54.7772 72.9641 55.4458 72.2993 55.628 71.4509H62.5434C62.209 74.1121 60.8836 76.1608 58.5633 77.5982C56.2428 79.0357 53.1116 79.7525 49.1693 79.7525C46.3784 79.7525 43.9538 79.2913 41.8916 78.369C39.8295 77.4464 38.2519 76.1226 37.1606 74.3997C36.0696 72.6767 35.523 70.6502 35.523 68.3201V67.4576C35.523 65.0978 36.0755 63.0492 37.1828 61.3102C38.2899 59.5713 39.8675 58.2416 41.9136 57.3172C43.9599 56.3946 46.3784 55.9336 49.1693 55.9336C53.4158 55.9336 56.7133 56.9397 59.0636 58.9502C61.4141 60.9629 62.5894 63.782 62.5894 67.4117V69.7736H62.5875ZM44.7547 62.3803C43.6014 63.0153 42.8446 63.9077 42.4802 65.0578H55.628C55.2636 63.9098 54.5209 63.0153 53.3997 62.3803C52.2766 61.7456 50.851 61.4281 49.1232 61.4281C47.3634 61.4281 45.9078 61.7456 44.7547 62.3803Z" fill="#2070FD"/>
<path d="M84.3176 56.4824V62.2885H79.2222C76.3711 62.2885 74.3692 62.9993 73.218 64.4207V79.2094H66.667V56.4824H72.8074L72.9896 58.5689C74.8997 57.1772 77.266 56.4824 80.0871 56.4824H84.3176Z" fill="#2070FD"/>
<path d="M92.5006 78.3489C90.4225 77.4124 88.8307 76.0809 87.7236 74.3558C86.6163 72.6329 86.0639 70.5903 86.0639 68.2324V67.6434C86.0639 65.2554 86.6163 63.183 87.7236 61.428C88.8307 59.6752 90.4225 58.3215 92.5006 57.367C94.5788 56.4148 97.0115 55.9375 99.8023 55.9375C102.379 55.9375 104.693 56.3689 106.74 57.2293C108.786 58.0899 110.379 59.2857 111.517 60.8131C112.654 62.3404 113.222 64.0874 113.222 66.052V66.2337H106.445V66.052C106.445 64.8421 105.831 63.8518 104.603 63.0813C103.376 62.3106 101.774 61.9253 99.8042 61.9253C97.5599 61.9253 95.8461 62.4164 94.665 63.3988C93.4817 64.3811 92.891 65.8105 92.891 67.6853V68.1844C92.891 69.9994 93.4817 71.383 94.665 72.3352C95.8482 73.2876 97.5599 73.7649 99.8042 73.7649C101.806 73.7649 103.412 73.3954 104.627 72.6527C105.841 71.912 106.447 70.9217 106.447 69.6819V69.5002H113.224V69.6819C113.224 71.6783 112.67 73.4394 111.565 74.9668C110.458 76.4941 108.896 77.6741 106.88 78.5047C104.862 79.3352 102.505 79.7524 99.8064 79.7524C97.0115 79.7546 94.5788 79.2853 92.5006 78.3489Z" fill="#2070FD"/>
<path d="M142.771 56.4824V79.2094H136.631L136.449 77.0311C134.447 78.786 131.884 79.6925 128.761 79.7523C124.849 79.7822 121.87 78.7761 119.821 76.7355C117.773 74.6932 116.75 71.6763 116.75 67.6852V56.4824H123.347V67.6871C123.347 69.6538 123.886 71.1572 124.963 72.2014C126.04 73.2456 127.608 73.7666 129.672 73.7666C131.097 73.7666 132.387 73.4412 133.538 72.7904C134.691 72.1395 135.57 71.2551 136.177 70.1369V56.4824H142.771Z" fill="#2070FD"/>
<path d="M159.426 62.2888V70.908C159.426 71.7246 159.66 72.3534 160.13 72.7907C160.601 73.2299 161.276 73.4475 162.154 73.4475H167.522V79.2096H161.29C158.681 79.2096 156.619 78.5069 155.103 77.1012C153.585 75.6957 152.829 73.7829 152.829 71.3631V62.2909H145.233V56.4829H151.329C151.966 56.4829 152.406 56.3631 152.649 56.1195C152.891 55.8779 153.013 55.4387 153.013 54.8037V50.4492H159.428V56.4829H168.89V62.2888H159.426Z" fill="#2070FD"/>
<path d="M28.6921 35.6455L24.0572 31.0236C23.4186 30.3866 22.5536 30.0293 21.6507 30.0293H13.3239C12.3349 30.0293 11.8384 31.2211 12.5391 31.92L17.174 36.5419C17.8126 37.179 18.6775 37.5362 19.5805 37.5362H27.9072C28.8963 37.5362 29.3928 36.3445 28.6921 35.6455Z" fill="#2070FD"/>
<path d="M76.5643 0H65.7029C64.2071 0 62.7737 0.592979 61.7145 1.64716L52.6851 10.6516C52.5971 10.7295 52.5109 10.8074 52.4267 10.8912L43.8499 19.4465L43.2793 20.0115C41.8697 21.4072 39.5933 21.4032 38.1879 20.0035L20.1188 1.98458C18.8435 0.712773 17.1157 0 15.3138 0H2.22201C0.245934 0 -0.743107 2.38189 0.654362 3.77549L32.5179 35.5507C33.7932 36.8225 35.5209 37.5354 37.323 37.5354H50.4146C52.3908 37.5354 53.3799 35.1535 51.9823 33.7598L48.3685 30.156C47.5177 29.2876 46.6689 28.4189 45.8179 27.5524C44.4104 26.1488 45.4075 23.7512 47.3955 23.7512H54.8353C56.331 23.7512 57.7644 23.1581 58.8215 22.104L67.8511 13.0994C67.9391 13.0216 68.0253 12.9437 68.1093 12.8598L77.8635 3.13261C79.0248 1.97659 78.204 0 76.5643 0Z" fill="#2070FD"/>
</g>
<defs>
<clipPath id="clip0_2360_86962">
<rect width="171" height="80" fill="white"/>
</clipPath>
</defs>
</svg>
