<svg width="244" height="90" viewBox="0 0 244 90" fill="none" xmlns="http://www.w3.org/2000/svg">
<path fill-rule="evenodd" clip-rule="evenodd" d="M111.162 45.7296C111.162 52.0539 112.622 58.8647 117.243 62.9998C119.432 65.189 124.054 67.135 127.216 67.135C131.838 67.135 135.973 66.162 138.892 62.9998C141.811 60.0809 140.108 55.4593 136.946 55.4593C133.784 55.4593 134.757 55.9458 131.595 57.162C126.487 58.8647 121.378 59.1079 120.892 52.5404C120.892 52.0539 120.892 51.8106 120.892 51.0809H133.784C137.189 51.0809 139.135 49.3782 139.865 46.4593C140.838 42.3242 139.865 37.2161 137.189 33.8106C136.946 33.3242 136.703 33.3242 136.459 32.8377C134.514 30.4052 130.378 28.2161 126.73 28.2161C124.297 28.2161 122.351 28.2161 120.162 29.189C117.73 30.162 116.27 31.3782 114.568 33.5674C112.865 36.4863 111.162 40.8647 111.162 45.7296ZM120.405 42.8106C120.405 40.8647 121.135 39.6485 122.108 38.6755C124.784 36.2431 131.108 36.7296 132.568 40.3782C133.054 41.8377 133.297 44.7566 132.811 46.2161H120.649L120.405 42.8106ZM75.8919 62.9998C75.8919 64.9458 76.3784 67.6215 78.8108 67.6215C81 67.6215 82.2162 67.6215 84.1622 66.6485C85.1351 66.162 86.1081 65.189 86.8379 64.2161C89.027 61.2971 90.2433 51.5674 90.2433 47.4323C90.2433 44.9998 90.973 40.6215 90.973 37.9458H97.2973C97.2973 39.4052 97.2973 40.6215 97.0541 42.0809L96.8108 46.2161C96.3243 49.135 96.8108 55.2161 96.5676 58.6215L96.8108 62.7566C97.5406 67.8647 103.622 66.8917 105.081 65.4323C106.297 64.2161 105.811 58.6215 105.811 57.162C105.811 56.189 106.054 55.9458 106.054 54.9728C106.054 54.2431 106.054 53.5134 106.054 52.7836L106.297 33.8106C106.297 28.4593 101.189 29.4323 99.2433 29.189C96.5676 28.9458 91.4595 29.189 88.7838 29.4323C84.1622 30.162 82.4595 31.135 82.4595 36.4863C82.4595 37.7025 82.7027 38.189 82.7027 39.6485C82.7027 40.8647 82.7027 41.8377 82.7027 43.0539C82.7027 44.2701 82.946 44.7566 82.946 46.2161C82.946 47.189 82.7027 48.162 82.7027 49.3782C82.7027 51.5674 82.4595 53.7566 82.2162 55.4593C81.7297 57.6485 81.2433 58.6215 79.5406 59.3512C77.5946 60.3242 75.8919 61.0539 75.8919 62.9998ZM35.5135 2.67552C35.5135 3.64849 36.4865 5.10795 37.2162 5.83768C37.946 6.81065 39.1622 8.02687 39.4054 8.51336C39.1622 8.7566 37.2162 10.4593 36.2433 10.4593C33.8108 10.4593 33.3243 9.48633 32.1081 9.48633C31.3784 9.48633 30.6487 9.97281 30.6487 10.9458C30.6487 11.6755 31.6216 11.9188 32.3514 13.6215C32.8378 14.8377 32.5946 16.2971 32.8378 17.7566C33.5676 17.9998 34.7838 18.2431 35.5135 17.5134L36 16.7836C36.4865 15.8107 36.4865 14.3512 38.4324 14.108C39.8919 13.8647 40.3784 13.8647 41.8379 13.8647C41.8379 15.0809 42.8108 18.4863 43.2973 19.7025C43.7838 21.162 45.973 21.4052 45.973 19.9458L45.2433 12.162C46.2162 11.9188 47.9189 11.189 48.6487 10.7025C49.6216 10.2161 51.0811 9.48633 51.0811 8.02687C51.0811 7.0539 50.8379 6.32417 50.3514 5.83768C49.3784 4.86471 46.946 5.83768 45.4865 6.08092C44.5135 6.32417 44.027 6.56741 43.0541 6.81065C42.3243 5.83768 38.1892 0.486328 36.973 0.486328C36.2433 0.729571 35.5135 1.94579 35.5135 2.67552ZM50.1081 48.6485C50.1081 46.9458 50.5946 43.7836 50.5946 41.1079C50.5946 37.7025 51.3243 29.9188 46.4595 29.9188C43.7838 29.9188 42.0811 30.6485 41.5946 33.5674C40.6216 37.9458 41.3514 41.8377 41.1081 44.5134L40.3784 55.4593C40.3784 58.6215 40.1352 62.0269 41.8379 64.4593C42.5676 65.6755 44.2703 67.135 46.4595 67.135C49.1352 67.135 50.3514 65.189 51.5676 63.7296C53.027 61.7836 54.973 58.135 56.1892 55.7025C56.6757 54.7296 57.1622 53.9998 57.8919 53.0269L61.5406 48.162C61.5406 53.7566 61.5406 56.9188 62.027 62.2701C62.2703 63.7296 62.2703 65.9188 63.4865 66.8917C66.1622 68.8377 71.2703 68.1079 71.2703 60.8106C71.2703 58.135 71.027 56.9188 71.2703 54.2431L71.5135 50.5944C71.7568 48.6485 71.7568 39.4052 71.7568 37.2161C71.7568 35.2701 71.7568 33.0809 70.7838 31.6215C69.5676 29.6755 68.1081 29.189 65.9189 29.189C61.5406 29.189 59.1081 34.7836 57.1622 37.7025C56.6757 38.6755 56.1892 39.4052 55.4595 40.3782C54.973 41.3512 54.4865 42.0809 53.7568 43.0539L50.1081 48.6485ZM144.973 33.0809C144.973 34.2971 144.973 35.2701 146.432 36.2431C146.919 36.7296 148.135 37.2161 149.108 37.4593C150.568 37.7025 153.487 37.2161 153.487 40.6215C153.487 44.2701 152.757 48.4052 152.757 53.0269C152.757 53.9998 152.514 54.2431 152.514 55.2161C152.514 57.6485 152.27 64.2161 153.243 65.6755C154.703 68.1079 159.568 67.8647 160.784 66.4052C162.73 64.4593 162.243 58.8647 162 55.9458L161.514 44.0269C161.27 42.8106 161.027 36.9728 163.216 36.9728C165.649 36.9728 166.135 37.4593 167.838 36.2431C171.486 33.8106 171 28.9458 164.676 28.9458H149.595C147.405 29.189 144.973 31.3782 144.973 33.0809ZM184.622 48.6485C184.622 47.6755 184.865 46.2161 184.865 44.9998C184.865 41.8377 185.595 35.2701 184.378 32.3512C182.919 29.189 179.027 29.189 177.081 31.135C174.405 33.8107 175.865 43.5404 175.135 48.4052C174.649 51.0809 174.649 56.189 174.649 58.8647C174.649 62.9998 176.351 67.3782 180.486 67.3782C183.162 67.3782 184.378 65.4323 185.595 63.9728C187.054 62.0269 189.973 56.189 191.919 53.2701C192.405 52.2971 193.135 51.5674 193.622 50.5944L195.568 48.162C195.568 53.7566 195.568 56.9188 196.054 62.2701C196.297 63.7296 196.297 65.9188 197.514 66.8917C200.189 68.8377 205.297 68.1079 205.297 60.8106C205.297 58.135 205.054 56.9188 205.297 54.2431L205.541 50.5944C205.784 48.6485 205.784 39.4052 205.784 37.2161C205.784 35.2701 205.784 33.0809 204.811 31.6215C203.595 29.6755 202.135 29.189 199.946 29.189C195.568 29.189 193.135 34.7836 191.189 37.7025L184.865 48.4052C184.622 48.4052 184.622 48.6485 184.622 48.6485ZM221.595 43.5404H220.378V34.2971C220.378 32.108 218.432 29.6755 216.243 29.6755H215.514C213.811 29.6755 211.865 31.3782 211.865 33.3242V62.0269C211.865 67.6215 219.162 67.8647 220.865 64.4593C222.081 62.0269 220.865 52.2971 221.595 51.3242C221.838 50.8377 222.568 50.8377 223.297 50.8377C225.73 50.8377 226.459 52.7836 227.189 54.4863C228.162 57.4052 227.676 62.9998 231.081 65.6755C235.946 69.3242 242.514 68.1079 242.514 63.9728V63.2431C242.514 62.0269 240.324 60.0809 239.351 59.8377C234.973 58.135 237.649 53.7566 234.973 50.5944C234 49.6215 232.297 48.162 230.595 48.162C230.838 47.6755 231.081 47.6755 231.568 47.6755C238.378 44.5134 234 38.6755 240.324 35.2701C240.811 35.0269 241.054 35.0269 241.541 34.5404C244.703 30.8917 239.838 26.2701 233.757 28.7025C227.919 31.135 228.649 37.2161 226.459 40.6215C225.487 42.0809 223.784 43.5404 221.595 43.5404ZM10.7027 33.8106C13.8649 31.135 15.5676 28.9458 23.1081 29.4323C27.7297 29.9188 32.8378 31.6215 34.5406 40.3782C36.4865 49.135 35.027 60.0809 28.2162 65.4323C20.1892 72.2431 9.4865 68.8377 5.10812 59.8377C3.40541 56.4323 2.43244 52.0539 1.45947 46.2161C0.729738 38.6755 -0.729721 24.3242 18.973 15.0809C21.4054 13.6215 23.5946 13.3782 25.2973 13.3782C29.1892 13.3782 30.6487 16.5404 29.4324 18.7296C28.946 19.7025 27.7297 20.6755 26.027 21.6485C19.7027 24.8107 15.3243 27.9728 11.6757 32.108C10.946 32.5944 10.7027 33.0809 10.7027 33.8106ZM11.1892 48.4052C11.1892 52.2971 11.6757 55.4593 14.1081 58.3782C16.5406 61.0539 19.946 61.7836 22.8649 59.5944C25.2973 57.6485 27 53.7566 27 50.3512C27 46.9458 26.7568 44.5134 25.0541 41.5944C22.6216 37.9458 18.7297 36.4863 15.5676 39.162C13.1351 41.3512 11.1892 44.9998 11.1892 48.4052ZM208.703 83.4323C207.973 83.9188 207.487 84.4052 206.757 84.6485C206.27 84.8917 205.541 84.8917 204.811 84.8917C203.595 84.8917 202.865 84.6485 202.135 84.162C201.649 83.6755 201.162 82.9458 201.162 81.9728C201.162 81.4863 201.162 80.9998 201.405 80.5134C201.649 80.0269 201.892 79.7836 202.378 79.5404C202.865 79.2971 203.108 79.0539 203.595 79.0539C203.838 79.0539 204.324 78.8107 205.054 78.8107C206.514 78.5674 207.486 78.5674 208.216 78.3242C208.216 78.0809 208.216 77.8377 208.216 77.8377C208.216 77.1079 207.973 76.6215 207.73 76.3782C207.243 75.8917 206.514 75.8917 205.784 75.8917C205.054 75.8917 204.324 76.135 204.081 76.3782C203.595 76.6215 203.351 77.1079 203.108 77.8377L201.892 77.3512C202.135 76.6215 202.378 76.135 202.622 75.6485C202.865 75.162 203.595 74.9188 204.081 74.6755C204.811 74.4323 205.541 74.4323 206.27 74.4323C207.243 74.4323 207.73 74.4323 208.459 74.6755C208.946 74.9188 209.432 75.162 209.676 75.4052C209.919 75.6485 210.162 76.135 210.162 76.6215C210.162 76.8647 210.162 77.3512 210.162 78.0809V80.2701C210.162 81.9728 210.162 82.9458 210.162 83.189C210.162 83.6755 210.405 83.9188 210.649 84.4052H209.189C208.946 84.162 208.703 83.9188 208.703 83.4323ZM208.703 79.5404C207.973 79.7836 207.243 80.0269 205.784 80.2701C205.054 80.2701 204.568 80.5134 204.324 80.5134C204.081 80.7566 203.838 80.7566 203.595 80.9998C203.351 81.2431 203.351 81.4863 203.351 81.7296C203.351 82.216 203.595 82.4593 203.838 82.9458C204.081 83.189 204.811 83.4323 205.297 83.4323C206.027 83.4323 206.514 83.189 207 82.9458C207.486 82.7025 207.973 82.216 208.216 81.7296C208.459 81.2431 208.459 80.7566 208.459 80.0269L208.703 79.5404ZM215.514 78.8107V80.2701H219.162C219.162 81.4863 218.676 82.2161 218.189 82.7025C217.703 83.189 216.973 83.4323 216.243 83.4323C214.784 83.4323 214.054 82.7025 213.568 80.9998L211.865 81.2431C212.108 82.4593 212.595 83.189 213.324 83.9188C214.054 84.6485 215.027 84.8917 216.243 84.8917C217.703 84.8917 218.676 84.4052 219.649 83.4323C220.378 82.4593 220.865 81.2431 220.865 79.5404C220.865 77.8377 220.378 76.6215 219.649 75.6485C218.919 74.6755 217.703 74.189 216.243 74.189C215.027 74.189 214.297 74.4323 213.568 75.162C212.838 75.6485 212.351 76.6215 212.351 77.3512L214.054 77.8377C214.297 76.3782 215.027 75.8917 216.487 75.8917C217.216 75.8917 217.946 76.135 218.432 76.6215C218.919 77.1079 219.162 77.8377 219.405 78.8107H215.514ZM223.054 88.5404V74.4323H224.514V75.6485C225 75.162 225.243 74.6755 225.73 74.4323C226.216 74.189 226.703 73.9458 227.432 73.9458C228.405 73.9458 229.135 74.189 229.622 74.6755C230.351 75.162 230.838 75.6485 231.081 76.6215C231.324 77.3512 231.568 78.3242 231.568 79.2971C231.568 80.2701 231.324 81.2431 231.081 81.9728C230.595 82.7025 230.108 83.4323 229.378 83.9188C228.649 84.4052 227.919 84.6485 227.189 84.6485C226.703 84.6485 226.216 84.6485 225.73 84.4052C225.243 84.162 225 83.9188 224.514 83.4323V88.2971H223.054V88.5404ZM224.514 79.5404C224.514 80.7566 224.757 81.7296 225.243 82.4593C225.73 83.189 226.459 83.4323 227.189 83.4323C227.919 83.4323 228.649 83.189 229.135 82.4593C229.622 81.7296 229.865 80.7566 229.865 79.5404C229.865 78.3242 229.622 77.3512 229.135 76.6215C228.649 75.8917 227.919 75.6485 227.189 75.6485C226.459 75.6485 225.73 75.8917 225.243 76.6215C224.757 77.3512 224.514 78.3242 224.514 79.5404ZM233.27 79.5404C233.27 77.5944 233.757 76.3782 234.73 75.4052C235.703 74.6755 236.676 74.189 237.892 74.189C239.351 74.189 240.324 74.6755 241.297 75.6485C242.27 76.6215 242.514 77.8377 242.514 79.5404C242.514 80.7566 242.27 81.9728 242.027 82.7025C241.541 83.4323 241.054 83.9188 240.324 84.4052C239.595 84.8917 238.865 85.135 237.892 85.135C236.432 85.135 235.216 84.6485 234.487 83.6755C233.757 82.4593 233.27 81.2431 233.27 79.5404ZM234.973 79.5404C234.973 80.7566 235.216 81.7296 235.703 82.4593C236.189 83.189 236.919 83.4323 237.892 83.4323C238.865 83.4323 239.351 83.189 240.081 82.4593C240.568 81.7296 240.811 80.7566 240.811 79.5404C240.811 78.3242 240.568 77.3512 239.838 76.6215C239.351 75.8917 238.622 75.6485 237.649 75.6485C236.676 75.6485 236.189 75.8917 235.459 76.6215C235.216 77.3512 234.973 78.3242 234.973 79.5404Z" fill="white"/>
</svg>
