<svg width="200" height="71" viewBox="0 0 200 71" fill="none" xmlns="http://www.w3.org/2000/svg">
<g clip-path="url(#clip0_4140_6799)">
<path d="M29.8288 34.3181C32.1501 35.1098 33.9685 36.4433 35.2838 38.3184C36.5992 40.1518 37.257 42.4229 37.257 45.1315C37.257 48.9651 35.8642 51.9236 33.0786 54.0072C30.3317 56.049 26.3082 57.07 21.0078 57.07H0V13.3163H19.8472C24.7994 13.3163 28.5907 14.3372 31.2216 16.379C33.891 18.4209 35.2258 21.192 35.2258 24.6923C35.2258 26.8175 34.7422 28.7134 33.775 30.3803C32.8466 32.047 31.531 33.3595 29.8288 34.3181ZM9.34326 20.942V31.2553H18.6866C21.0078 31.2553 22.7682 30.8178 23.9675 29.9426C25.1669 29.0676 25.7666 27.7758 25.7666 26.0674C25.7666 24.3589 25.1669 23.0879 23.9675 22.2545C22.7682 21.3795 21.0078 20.942 18.6866 20.942H9.34326ZM20.3114 49.4442C22.7875 49.4442 24.6445 49.0067 25.8826 48.1317C27.1594 47.2567 27.7976 45.9024 27.7976 44.0688C27.7976 40.4436 25.3022 38.6308 20.3114 38.6308H9.34326V49.4442H20.3114Z" fill="#FFFFFF"/>
<path d="M138.133 57.07L130.298 44.8815H121.651V57.07H112.25V13.3163H129.834C133.432 13.3163 136.546 13.9622 139.177 15.254C141.847 16.5457 143.897 18.3793 145.329 20.7545C146.76 23.1295 147.476 25.9423 147.476 29.1927C147.476 32.4429 146.741 35.2557 145.271 37.6309C143.839 39.9643 141.789 41.7561 139.119 43.0063L148.23 57.07H138.133ZM137.959 29.1927C137.959 26.7341 137.224 24.859 135.753 23.5672C134.283 22.2337 132.136 21.567 129.312 21.567H121.651V36.8182H129.312C132.136 36.8182 134.283 36.1515 135.753 34.8181C137.224 33.4846 137.959 31.6095 137.959 29.1927Z" fill="#FFFFFF"/>
<path d="M186.32 47.6942H167.459L163.861 57.07H154.228L172.334 13.3163H181.619L199.784 57.07H189.918L186.32 47.6942ZM183.36 40.0059L176.918 23.2546L170.477 40.0059H183.36Z" fill="#FFFFFF"/>
<path fill-rule="evenodd" clip-rule="evenodd" d="M80.9062 18.3617H65.6019C60.5304 18.3617 56.4192 22.4721 56.4192 27.5425V42.8438C56.4192 47.9142 60.5304 52.0246 65.6019 52.0246H80.9062C85.9776 52.0246 90.0888 47.9142 90.0888 42.8438V27.5425C90.0888 22.4721 85.9776 18.3617 80.9062 18.3617ZM65.6019 15.3014C58.84 15.3014 53.3584 20.7819 53.3584 27.5425V42.8438C53.3584 49.6044 58.84 55.085 65.6019 55.085H80.9062C87.6682 55.085 93.1498 49.6044 93.1498 42.8438V27.5425C93.1498 20.7819 87.6682 15.3014 80.9062 15.3014H65.6019Z" fill="#FFFFFF"/>
<path d="M80.0993 38.0251L108.454 35.1931L80.0993 32.3577L85.4977 22.952L76.0889 28.3505L73.2542 0L70.4182 28.3505L59.4803 22.952L66.4089 32.3577L38.0542 35.1931L66.4089 38.0251L59.4803 47.4343L70.4182 42.0371L73.2542 70.3863L76.0889 42.0371L85.4977 47.4343L80.0993 38.0251Z" fill="#FFFFFF"/>
</g>
<defs>
<clipPath id="clip0_4140_6799">
<rect width="200" height="70.3863" fill="white"/>
</clipPath>
</defs>
</svg>
