<svg width="188" height="77" viewBox="0 0 188 77" fill="none" xmlns="http://www.w3.org/2000/svg">
<path d="M49.5067 49.914C45.5587 53.5487 39.856 55.8047 34.0593 55.8047C21.808 55.8047 11.5307 45.7153 11.5307 33.5267C11.5307 23.4373 19.646 13.2853 29.798 13.2853C33.4953 13.2853 37.4747 14.758 39.8247 17.108C40.0127 17.296 40.3573 17.296 40.5453 17.0767L53.0473 0.658002C53.298 0.376002 53.0787 0 52.7653 0H15.2907C14.9147 0 14.57 0.156671 14.288 0.376004C5.64 8.11534 0 18.2047 0 29.8293C0 47.0627 13.7867 60.348 29.986 60.348C38.1013 60.348 45.7467 56.776 51.042 51.4493C52.2953 50.29 50.7913 48.7233 49.5067 49.914ZM154.567 4.324C154.003 4.324 153.565 3.88534 153.565 3.32134V1.316C153.565 0.595337 152.969 0 152.249 0C151.935 0 151.653 0.125336 151.434 0.282003C150.557 0.971336 149.397 1.15934 148.332 0.752003C147.423 0.407336 146.389 0.720669 145.888 1.598C145.387 2.47534 145.606 3.54067 146.358 4.136C147.235 4.85667 147.674 5.95333 147.517 7.05C147.486 7.332 147.517 7.64534 147.674 7.896C148.05 8.52267 148.865 8.742 149.491 8.366L151.246 7.36333C151.716 7.08133 152.343 7.26934 152.593 7.73934C152.875 8.20934 152.687 8.836 152.217 9.08667L150.463 10.0893C149.836 10.4653 149.617 11.28 149.993 11.9067C150.149 12.1887 150.4 12.3453 150.651 12.4707C151.685 12.878 152.437 13.7867 152.593 14.9147C152.75 15.886 153.565 16.6067 154.567 16.6067C155.57 16.6067 156.385 15.886 156.51 14.9147C156.667 13.7867 157.45 12.878 158.453 12.4707C158.735 12.3767 158.954 12.1887 159.111 11.9067C159.487 11.28 159.267 10.4653 158.641 10.0893L156.886 9.08667C156.416 8.80467 156.259 8.20934 156.51 7.73934C156.792 7.26934 157.387 7.11267 157.857 7.36333L159.612 8.366C160.239 8.742 161.053 8.52267 161.429 7.896C161.586 7.64534 161.617 7.332 161.586 7.05C161.429 5.95333 161.837 4.85667 162.714 4.136C163.466 3.54067 163.685 2.444 163.215 1.598C162.714 0.720669 161.68 0.407336 160.771 0.752003C159.706 1.15934 158.547 0.971336 157.701 0.282003C157.481 0.0940029 157.199 0 156.886 0C156.165 0 155.57 0.595337 155.57 1.316V3.32134C155.539 3.88534 155.1 4.324 154.567 4.324ZM136.3 31.2393C136.3 30.6127 136.112 29.0147 134.075 29.0147C131.663 29.0147 129.093 31.9287 129.093 36.8167C133.762 36.8167 136.3 33.088 136.3 31.2393ZM164.312 24.2207C164.312 28.67 161.492 31.0513 159.173 31.0513C156.416 31.0513 156.792 29.1713 155.006 29.1713C153.941 29.1713 152.969 29.986 152.969 31.0513V44.3367C152.969 44.5873 153.157 44.7127 153.345 44.7753L154.661 45.1827C154.849 45.2453 155.1 45.3707 155.1 45.6213V46.6867C155.1 46.9373 154.912 47.1253 154.661 47.1253H146.233C145.982 47.1253 145.794 46.9373 145.794 46.6867V31.2707C145.794 30.0487 145.011 29.516 144.039 29.516C143.162 29.516 141.752 30.2993 140.499 31.1767C140.405 35.9393 136.112 39.5427 129.438 39.5427C129.438 40.4513 131.506 43.8667 135.642 43.8667C138.055 43.8667 139.872 42.9893 141.157 41.36C141.721 40.608 143.099 40.89 142.473 42.394C141.846 43.8353 138.963 47.7833 133.104 47.7833C127.589 47.7833 122.952 43.9607 121.824 38.728C120.477 38.3207 119.161 37.694 118.158 37.0673V41.078C118.158 44.5247 115.777 47.094 112.048 47.094H108.57C103.431 47.094 100.235 44.2427 100.235 39.762V13.3167C100.235 13.066 100.047 12.9407 99.8593 12.878L98.5433 12.502C98.3553 12.4393 98.1047 12.314 98.1047 12.0633V10.998C98.1047 10.7473 98.2927 10.5593 98.5433 10.5593H106.972C107.223 10.5593 107.411 10.7473 107.411 10.998V40.42C107.411 42.5507 109.51 43.4593 111.014 43.4593C112.643 43.4593 114.586 42.8327 114.586 40.5453V34.7173L111.672 32.9627C111.296 32.7433 110.983 32.43 110.983 31.8347V25.7873C110.983 25.5367 111.171 25.3487 111.421 25.3487H117.719C117.97 25.3487 118.158 25.5367 118.158 25.7873V34.028C119.067 34.6233 120.383 35.344 121.573 35.8453C121.761 29.61 126.775 24.6907 133.104 24.6907C136.645 24.6907 138.901 26.3513 139.903 28.3567C142.003 26.7273 145.167 24.6907 147.737 24.6907C150.619 24.6907 150.619 27.072 152.061 27.072C152.531 27.072 152.938 26.6333 152.938 26.132C152.938 25.5367 152.656 25.098 152.656 24.534C152.656 23.4687 153.721 22.4973 154.881 22.4973C156.98 22.4973 158.171 24.6907 159.988 24.6907C160.771 24.6907 161.68 23.9073 161.68 22.748C161.68 21.6513 160.395 19.8967 159.173 18.8627C158.327 18.1733 159.236 16.8573 160.301 17.484C162.965 19.0507 164.312 21.4633 164.312 24.2207ZM178.694 32.6807C178.694 31.2393 176.72 29.7667 174.871 29.7667C171.487 29.7667 169.294 32.43 169.294 36.2213C169.294 40.0127 171.487 42.7073 174.871 42.7073C176.72 42.7073 178.694 41.266 178.694 39.7933V32.6807ZM188 25.8187V26.884C188 27.1347 187.749 27.26 187.561 27.3227L186.245 27.6987C186.057 27.7613 185.869 27.8867 185.869 28.1373V50.4153C185.869 55.836 181.295 60.1913 175.874 60.1913C172.208 60.1913 168.949 58.4993 167.289 55.6793C165.064 59.6587 157.826 68.1813 136.801 68.1813C125.208 68.1813 105.531 62.4473 95.316 62.4473C81.2787 62.4473 72.004 66.27 62.3533 75.9207C62.134 76.14 61.946 76.2027 61.664 76.046L43.71 66.2387C43.4907 66.1133 43.3653 65.7687 43.616 65.5493C55.4913 55.46 72.6933 50.29 84.8507 50.29C108.633 50.29 125.208 62.0713 144.76 62.0713C161.241 62.0713 166.035 53.8307 166.035 51.0733C166.035 50.7913 166.286 50.6347 166.474 50.6347H168.135C168.323 50.6347 168.573 50.7913 168.573 51.0733C168.573 53.8307 170.861 55.93 173.712 55.93C176.563 55.93 178.694 53.7053 178.694 50.6973V46.436C178.694 45.966 178.443 45.6527 177.942 45.6527C177.19 45.6527 176.469 47.7207 172.302 47.7207C166.819 47.7207 162.369 42.582 162.369 36.19C162.369 29.8293 166.819 24.6593 172.302 24.6593C176.783 24.6593 177.785 27.072 178.882 27.072C179.571 27.072 179.853 26.5393 180.01 25.756C180.073 25.5053 180.261 25.3173 180.543 25.3173H187.561C187.812 25.38 188 25.568 188 25.8187ZM69.2153 39.856C69.2153 45.496 73.508 47.094 76.3593 47.094H91.086C94.4073 47.094 97.6033 44.65 97.6033 40.7333C97.6033 34.8113 88.454 35.344 88.454 31.9287C88.454 30.55 89.8013 30.0487 91.462 30.0487C92.7153 30.0487 94.4387 30.6127 95.41 31.3333C95.7547 31.584 96.0053 31.3333 96.0993 31.1453L98.3553 25.9753C98.4493 25.756 98.324 25.38 97.948 25.38H87.3887C84.506 25.38 81.9367 27.8553 81.9367 30.9573C81.9367 37.0673 89.8953 36.002 89.8953 40.138C89.8953 41.736 88.6107 43.1147 86.8247 43.1147C83.3153 43.1147 81.8427 40.7647 81.686 39.4173C81.6547 39.1667 81.31 38.9787 81.0907 39.0727L79.618 39.668C79.336 39.7933 79.3047 40.1693 79.43 40.3573C79.6807 40.6707 79.8373 40.9527 79.8373 41.454C79.8373 42.394 79.0853 43.1773 78.0827 43.1773C77.08 43.1773 76.3593 42.3313 76.3593 41.454V10.998C76.3593 10.7473 76.1713 10.5593 75.9207 10.5593H67.492C67.2413 10.5593 67.0533 10.7473 67.0533 10.998V12.0633C67.0533 12.314 67.304 12.4393 67.492 12.502L68.808 12.878C68.996 12.9407 69.184 13.066 69.184 13.3167V39.856H69.2153ZM34.9367 32.6807C34.9367 31.2393 32.9627 29.7667 31.114 29.7667C27.73 29.7667 25.5367 32.43 25.5367 36.2213C25.5367 40.0127 27.6987 42.7073 31.114 42.7073C32.9627 42.7073 34.9367 41.266 34.9367 39.7933V32.6807ZM66.9907 29.798C66.9907 32.6493 64.7033 34.9367 61.852 34.9367C60.5047 34.9367 59.3767 33.7773 59.3767 32.4613C59.3767 31.208 60.066 31.1767 60.066 30.3307C60.066 29.704 59.5333 29.1713 58.9067 29.1713C57.8413 29.1713 57.0267 29.986 57.0267 31.0513V44.3367C57.0267 44.5873 57.2147 44.7127 57.4027 44.7753L58.7187 45.1827C58.9067 45.2453 59.1573 45.3707 59.1573 45.6213V46.6867C59.1573 46.9373 58.9693 47.1253 58.7187 47.1253H50.29C50.0393 47.1253 49.8513 46.9373 49.8513 46.6867V40.702C47.47 43.1773 42.6447 47.8147 40.138 47.8147C37.3493 47.8147 37.7253 44.8067 35.626 44.8067C33.8087 44.8067 33.6833 47.8147 28.6073 47.8147C23.124 47.8147 18.6747 42.676 18.6747 36.284C18.6747 29.9233 23.124 24.7533 28.6073 24.7533C33.088 24.7533 34.0907 27.166 35.1873 27.166C35.8767 27.166 36.1587 26.6333 36.3153 25.85C36.3467 25.5993 36.566 25.4113 36.848 25.4113H43.8667C44.1173 25.4113 44.3053 25.5993 44.3053 25.85V26.9153C44.3053 27.166 44.0547 27.2913 43.8667 27.354L42.5507 27.73C42.3627 27.7927 42.1747 27.918 42.1747 28.1687V39.8873C42.1747 40.6707 42.8953 41.2973 43.6787 41.2973C45.0887 41.2973 48.0967 38.822 49.8827 37.224V28.952C49.8827 28.4193 49.4753 28.1687 49.0367 28.1687C48.504 28.1687 48.4727 28.6387 47.7833 28.6387C47.1567 28.6387 46.7493 28.106 46.7493 27.6047C46.7493 26.696 48.41 24.6907 50.9793 24.6907C55.4287 24.6907 54.7393 27.9807 56.306 27.9807C57.7473 27.9807 57.9667 24.6907 61.8833 24.6907C64.7033 24.6907 66.9907 26.9153 66.9907 29.798Z" fill="white"/>
</svg>
