<svg width="293" height="49" viewBox="0 0 293 49" fill="none" xmlns="http://www.w3.org/2000/svg">
<path d="M24.1493 48.2768C10.8124 48.2768 0 37.4696 0 24.1375C0 10.8071 10.8124 0 24.1493 0C37.4879 0 48.3003 10.8071 48.3003 24.1375C48.3003 37.4696 37.4879 48.2768 24.1493 48.2768ZM24.1493 46.3929C36.4463 46.3929 46.4155 36.4286 46.4155 24.1375C46.4155 11.8482 36.4463 1.88393 24.1493 1.88393C11.854 1.88393 1.88485 11.8482 1.88485 24.1375C1.88485 36.4286 11.854 46.3929 24.1493 46.3929Z" fill="black"/>
<path d="M24.1957 26.2573C25.3423 26.2573 26.2717 25.3291 26.2717 24.1841C26.2717 23.0391 25.3423 22.1108 24.1957 22.1108C23.0492 22.1108 22.1197 23.0391 22.1197 24.1841C22.1197 25.3291 23.0492 26.2573 24.1957 26.2573Z" fill="black"/>
<path d="M80.6679 33.6106C78.976 33.6106 77.4485 33.2231 76.0889 32.4499C74.7469 31.6936 73.6401 30.5812 72.8909 29.2356C72.1173 27.866 71.7296 26.3303 71.7296 24.6338C71.7296 22.9356 72.1173 21.4017 72.8909 20.0303C73.6425 18.6822 74.754 17.5694 76.1014 16.816C77.4699 16.0428 78.9992 15.6553 80.6929 15.6553C81.9614 15.6553 83.1352 15.8749 84.2089 16.3106C85.257 16.7294 86.1934 17.386 86.9442 18.2285L85.7972 19.4124C84.4626 18.0178 82.7779 17.3196 80.7412 17.3196C79.3905 17.3196 78.1613 17.641 77.0536 18.2785C75.9644 18.9001 75.0657 19.8071 74.4542 20.9017C73.8271 22.0088 73.5126 23.2553 73.5126 24.6338C73.5126 26.0124 73.8271 27.2553 74.4542 28.366C75.0795 29.4749 75.9477 30.3481 77.0536 30.9874C78.1613 31.6267 79.3905 31.9463 80.7412 31.9463C82.7939 31.9463 84.4787 31.241 85.7972 29.8285L86.9442 31.0124C86.1956 31.8535 85.2791 32.4963 84.1964 32.941C83.0758 33.3943 81.8767 33.6218 80.6679 33.6106ZM98.0782 15.8071H99.8844V33.4588H98.0782V15.8071ZM127.014 15.8071V33.4588H125.524L114.534 19.1356V33.4588H112.726V15.8071H114.216L125.231 30.1303V15.8071H127.014ZM139.856 15.8071H146.814C148.622 15.8071 150.218 16.1821 151.603 16.9285C152.952 17.6436 154.07 18.7282 154.826 20.0553C155.59 21.3928 155.972 22.9178 155.972 24.6338C155.972 26.3481 155.59 27.8731 154.826 29.2106C154.07 30.5371 152.952 31.621 151.603 32.3356C150.218 33.0856 148.622 33.4606 146.814 33.4606H139.856V15.8053V15.8071ZM146.716 31.8446C148.217 31.8446 149.526 31.5392 150.65 30.9249C151.744 30.3397 152.65 29.4568 153.262 28.3785C153.88 27.2928 154.191 26.0446 154.191 24.6338C154.191 23.2213 153.88 21.9731 153.262 20.8874C152.65 19.8091 151.744 18.9262 150.65 18.341C149.525 17.7285 148.215 17.4213 146.718 17.4213H141.662V31.8446H146.718H146.716ZM167.301 15.8071H169.109V33.4588H167.301V15.8071ZM189.374 33.6106C187.681 33.6106 186.155 33.2231 184.795 32.4499C183.453 31.6936 182.347 30.5812 181.597 29.2356C180.824 27.866 180.436 26.3303 180.436 24.6338C180.436 22.9356 180.824 21.4017 181.597 20.0303C182.349 18.6822 183.461 17.5694 184.808 16.816C186.175 16.0428 187.706 15.6553 189.4 15.6553C190.668 15.6553 191.842 15.8749 192.916 16.3106C193.964 16.7294 194.9 17.386 195.651 18.2285L194.504 19.4124C193.167 18.0178 191.484 17.3196 189.448 17.3196C188.097 17.3196 186.868 17.641 185.76 18.2785C184.67 18.8999 183.771 19.8069 183.159 20.9017C182.534 22.0088 182.219 23.2553 182.219 24.6338C182.219 26.0124 182.534 27.2553 183.159 28.366C183.786 29.4749 184.653 30.3481 185.76 30.9874C186.868 31.6267 188.097 31.9463 189.448 31.9463C191.499 31.9463 193.183 31.241 194.504 29.8285L195.651 31.0124C194.9 31.8535 193.986 32.4963 192.903 32.941C191.782 33.3943 190.583 33.6218 189.374 33.6106ZM217.067 28.7428H207.54L205.489 33.4588H203.608L211.424 15.8071H213.206L221.02 33.4588H219.116L217.065 28.7446L217.067 28.7428ZM216.406 27.2303L212.304 17.7481L208.2 27.2303H216.406ZM233.594 17.4213H227.588V15.8071H241.409V17.4213H235.402V33.4588H233.594V17.4213ZM258.794 33.6106C257.1 33.6106 255.566 33.2196 254.19 32.4374C252.841 31.682 251.726 30.5699 250.967 29.2231C250.193 27.8606 249.806 26.3303 249.806 24.6338C249.806 22.9356 250.193 21.4053 250.967 20.0446C251.726 18.6971 252.841 17.5844 254.19 16.8285C255.566 16.0463 257.102 15.6553 258.794 15.6553C260.488 15.6553 262.013 16.0428 263.373 16.816C264.717 17.5741 265.827 18.6858 266.584 20.0303C267.366 21.4017 267.756 22.9356 267.756 24.6338C267.756 26.3303 267.366 27.866 266.584 29.2356C265.827 30.5801 264.717 31.6918 263.373 32.4499C262.013 33.2231 260.488 33.6106 258.794 33.6106ZM258.794 31.9463C260.145 31.9463 261.367 31.6303 262.457 30.9999C263.538 30.3801 264.426 29.4726 265.022 28.3785C265.64 27.2606 265.949 26.0124 265.949 24.6338C265.949 23.2553 265.64 22.0071 265.02 20.8874C264.425 19.7935 263.537 18.8861 262.457 18.266C261.342 17.6291 260.078 17.3023 258.794 17.3196C257.443 17.3196 256.218 17.6356 255.119 18.266C254.03 18.8847 253.134 19.7919 252.528 20.8874C251.895 22.0334 251.572 23.3248 251.591 24.6338C251.591 26.0124 251.903 27.2588 252.53 28.3785C253.156 29.4963 254.02 30.3696 255.119 30.9999C256.218 31.6303 257.442 31.9463 258.794 31.9463ZM290.758 33.4588L286.851 27.7856C286.396 27.8367 285.939 27.8617 285.482 27.8606H280.891V33.4588H279.086V15.8071H285.482C287.665 15.8071 289.373 16.3446 290.611 17.4213C291.849 18.4963 292.468 19.9749 292.468 21.8588C292.468 23.2374 292.128 24.4017 291.455 25.3517C290.777 26.3017 289.813 26.9874 288.56 27.4071L292.736 33.4606H290.758V33.4588ZM285.434 26.2731C287.128 26.2731 288.421 25.8856 289.318 25.1124C290.211 24.3392 290.66 23.2553 290.66 21.8588C290.66 20.4303 290.213 19.3338 289.318 18.5678C288.421 17.8035 287.128 17.4213 285.434 17.4213H280.892V26.2731H285.434Z" fill="black"/>
</svg>
