<svg width="370" height="62" viewBox="0 0 370 62" fill="none" xmlns="http://www.w3.org/2000/svg">
<rect width="370" height="62" fill="white"/>
<path d="M0 0H54V12.5797H0V0Z" fill="#212121"/>
<path d="M0 16.1739H12.6562V35.4928L0 43.1304V16.1739Z" fill="#212121"/>
<path d="M27 47.8781L13.9517 39.1228L1.80932 46.1677L27 62L52.1907 46.1677L40.0483 39.1228L27 47.8781Z" fill="#212121"/>
<path d="M54 16.1739H41.4V35.4928L54 43.1304V16.1739Z" fill="#212121"/>
<path d="M71 61.1793V0.746088H82.2121V25.2924H83.775L92.269 0.746088H103.413L93.1523 29.1721L103.957 61.1793H92.4728L83.775 34.1709H82.2121V61.1793H71Z" fill="#212121"/>
<path d="M124.112 62C120.081 62 116.887 61.2042 114.531 59.6125C112.176 58.0209 110.477 55.7577 109.435 52.8231C108.438 49.8387 107.94 46.2824 107.94 42.154V19.6221C107.94 15.4938 108.438 11.9623 109.435 9.02768C110.477 6.09306 112.176 3.8548 114.531 2.31288C116.887 0.770959 120.081 0 124.112 0C128.19 0 131.406 0.795828 133.762 2.38749C136.163 3.9294 137.861 6.16767 138.858 9.10229C139.9 11.9872 140.421 15.4938 140.421 19.6221V42.154C140.421 46.2824 139.9 49.8387 138.858 52.8231C137.861 55.7577 136.163 58.0209 133.762 59.6125C131.406 61.2042 128.19 62 124.112 62ZM124.112 53.1215C125.562 53.1215 126.627 52.7734 127.306 52.077C127.986 51.3309 128.439 50.361 128.665 49.1673C128.892 47.9238 129.005 46.6057 129.005 45.213V16.6378C129.005 15.2451 128.892 13.9519 128.665 12.7581C128.439 11.5644 127.986 10.6193 127.306 9.92298C126.627 9.1769 125.562 8.80385 124.112 8.80385C122.753 8.80385 121.734 9.1769 121.055 9.92298C120.375 10.6193 119.922 11.5644 119.696 12.7581C119.469 13.9519 119.356 15.2451 119.356 16.6378V45.213C119.356 46.6057 119.446 47.9238 119.628 49.1673C119.854 50.361 120.307 51.3309 120.987 52.077C121.666 52.7734 122.708 53.1215 124.112 53.1215Z" fill="#212121"/>
<path d="M148.043 61.1793V0.746088H159.255V25.5909H168.972V0.746088H180.184V61.1793H168.972V34.3947H159.255V61.1793H148.043Z" fill="#212121"/>
<path d="M193.816 61.1793V9.92298H185.322V0.746088H213.454V9.92298H205.096V61.1793H193.816Z" fill="#212121"/>
<path d="M218.447 61.1793V0.746088H235.911C239.218 0.746088 241.913 1.44244 243.997 2.83514C246.081 4.1781 247.621 6.1428 248.618 8.72924C249.66 11.3157 250.181 14.4493 250.181 18.13C250.181 22.4573 249.501 25.8396 248.142 28.2768C246.828 30.714 245.016 32.4549 242.706 33.4994C240.396 34.4942 237.746 34.9916 234.756 34.9916H229.659V61.1793H218.447ZM229.659 26.3369H233.6C235.231 26.3369 236.477 26.0634 237.338 25.5162C238.244 24.9194 238.855 23.9992 239.173 22.7557C239.49 21.5122 239.648 19.9206 239.648 17.9807C239.648 16.1404 239.512 14.5985 239.241 13.355C239.014 12.1115 238.47 11.1416 237.61 10.4452C236.749 9.7489 235.39 9.40072 233.533 9.40072H229.659V26.3369Z" fill="#212121"/>
<path d="M271.297 62C267.266 62 264.072 61.2042 261.716 59.6125C259.36 58.0209 257.662 55.7577 256.62 52.8231C255.623 49.8387 255.125 46.2824 255.125 42.154V19.6221C255.125 15.4938 255.623 11.9623 256.62 9.02768C257.662 6.09306 259.36 3.8548 261.716 2.31288C264.072 0.770959 267.266 0 271.297 0C275.374 0 278.591 0.795828 280.947 2.38749C283.347 3.9294 285.046 6.16767 286.043 9.10229C287.085 11.9872 287.606 15.4938 287.606 19.6221V42.154C287.606 46.2824 287.085 49.8387 286.043 52.8231C285.046 55.7577 283.347 58.0209 280.947 59.6125C278.591 61.2042 275.374 62 271.297 62ZM271.297 53.1215C272.747 53.1215 273.812 52.7734 274.491 52.077C275.171 51.3309 275.624 50.361 275.85 49.1673C276.077 47.9238 276.19 46.6057 276.19 45.213V16.6378C276.19 15.2451 276.077 13.9519 275.85 12.7581C275.624 11.5644 275.171 10.6193 274.491 9.92298C273.812 9.1769 272.747 8.80385 271.297 8.80385C269.938 8.80385 268.919 9.1769 268.24 9.92298C267.56 10.6193 267.107 11.5644 266.88 12.7581C266.654 13.9519 266.541 15.2451 266.541 16.6378V45.213C266.541 46.6057 266.631 47.9238 266.813 49.1673C267.039 50.361 267.492 51.3309 268.172 52.077C268.851 52.7734 269.893 53.1215 271.297 53.1215Z" fill="#212121"/>
<path d="M291.355 61.1793V52.4501C292.759 52.4501 293.914 52.3506 294.82 52.1516C295.772 51.9029 296.519 51.3807 297.063 50.5848C297.652 49.7393 298.127 48.4709 298.49 46.7798C298.852 45.0389 299.147 42.726 299.373 39.8412C299.645 36.9563 299.917 33.3004 300.189 28.8736L302.023 0.746088H330.087V61.1793H318.943V10.1468H312.08L310.925 30.8135C310.653 35.5884 310.336 39.7417 309.974 43.2732C309.657 46.7549 309.136 49.6895 308.411 52.077C307.731 54.4645 306.712 56.3795 305.353 57.8219C304.039 59.2146 302.25 60.1845 299.985 60.7316C297.72 61.229 294.843 61.3783 291.355 61.1793Z" fill="#212121"/>
<path d="M338.693 61.1793V0.746088H349.906V26.1877H352.488C356.066 26.1877 359.079 26.7846 361.525 27.9783C363.972 29.1721 365.829 31.0622 367.097 33.6486C368.366 36.1853 369 39.5178 369 43.6462C369 47.2274 368.57 50.1621 367.709 52.4501C366.893 54.6883 365.693 56.4541 364.107 57.7473C362.567 59.0405 360.733 59.9358 358.603 60.4332C356.52 60.9306 354.209 61.1793 351.672 61.1793H338.693ZM349.906 53.0469H351.74C353.416 53.0469 354.753 52.7236 355.749 52.077C356.791 51.4304 357.539 50.4107 357.992 49.018C358.445 47.5756 358.649 45.7104 358.603 43.4224C358.558 40.7862 358.06 38.6971 357.108 37.1552C356.202 35.5636 354.368 34.7678 351.604 34.7678H349.906V53.0469Z" fill="#212121"/>
</svg>
