<svg width="202" height="57" viewBox="0 0 202 57" fill="none" xmlns="http://www.w3.org/2000/svg">
<path fill-rule="evenodd" clip-rule="evenodd" d="M83.8828 15.1152C87.6468 15.1152 90.7536 16.3101 93.3226 18.8792C96.0112 21.5678 97.2061 24.7343 97.2061 28.319C97.2061 32.083 96.0112 35.1898 93.3226 37.7588C90.7536 40.4474 87.4676 41.8215 83.8828 41.8215V38.3563C86.5714 38.3563 88.8417 37.4601 90.7536 35.369C92.7252 33.4571 93.7409 31.1868 93.7409 28.319C93.7409 25.6305 92.7252 23.2406 90.7536 21.269C88.9612 19.4767 86.5714 18.4012 83.8828 18.4012V15.1152ZM83.8828 41.702C80.1189 41.702 77.0121 40.3279 74.3235 37.8186C71.7545 35.13 70.4401 31.9635 70.4401 28.2593C70.4401 24.6745 71.7545 21.508 74.3235 18.9987C77.0121 16.3101 80.1786 15.1152 83.8828 15.1152V18.4012C81.015 18.4012 78.8045 19.4767 76.8328 21.269C74.921 23.2406 73.9651 25.6305 73.9651 28.319C73.9651 31.1868 74.8612 33.5766 76.6536 35.4885C78.446 37.4601 80.8358 38.2965 83.8231 38.2965V41.702H83.8828Z" fill="#FFFFFF"/>
<path fill-rule="evenodd" clip-rule="evenodd" d="M83.8828 41.702C80.1189 41.702 77.0121 40.3279 74.3235 37.8186C71.7545 35.13 70.4401 31.9635 70.4401 28.2593C70.4401 24.6745 71.7545 21.508 74.3235 18.9987C77.0121 16.3101 80.1786 15.1152 83.8828 15.1152C87.6468 15.1152 90.7536 16.3101 93.3226 18.8792C96.0112 21.5678 97.2061 24.7343 97.2061 28.319C97.2061 32.083 96.0112 35.1898 93.3226 37.7588C90.7536 40.3876 87.4676 41.702 83.8828 41.702ZM83.8828 38.2965C86.5714 38.2965 88.8417 37.4004 90.7536 35.3093C92.7252 33.3974 93.7409 31.1271 93.7409 28.2593C93.7409 25.5707 92.7252 23.1809 90.7536 21.2093C88.9612 19.4169 86.5714 18.3415 83.8828 18.3415C81.015 18.3415 78.8045 19.4169 76.8328 21.2093C74.921 23.1809 73.9651 25.5707 73.9651 28.2593C73.9651 31.1271 74.8612 33.5169 76.6536 35.4287C78.5057 37.4004 80.8955 38.2965 83.8828 38.2965Z" fill="#FFFFFF"/>
<path fill-rule="evenodd" clip-rule="evenodd" d="M128.334 16.43H132.098V19.716C132.994 18.5211 134.189 17.6249 135.682 16.8482C137.176 16.1313 138.67 15.6533 140.044 15.6533C141.956 15.6533 143.927 16.2508 145.72 17.147C147.512 18.0431 148.886 19.2381 149.424 20.433C150.021 19.2381 151.216 18.0431 153.009 17.147C154.98 16.2508 156.892 15.6533 158.864 15.6533C161.851 15.6533 164.539 16.7287 166.631 18.5211C168.841 20.433 169.917 22.7033 169.917 25.3919V41.7024H166.153V26.1686C166.153 24.1969 165.436 22.5838 163.942 21.2097C162.448 19.8355 160.656 19.1186 158.565 19.1186C156.474 19.1186 154.681 19.8953 153.188 21.2097C151.694 22.5838 150.917 24.1969 150.917 26.1686V41.7024H147.333V26.1686C147.333 24.1969 146.556 22.5838 145.062 21.2097C143.569 19.8355 141.776 19.1186 139.685 19.1186C137.594 19.1186 135.802 19.8953 134.308 21.2097C132.815 22.5838 132.038 24.1969 132.038 26.1686V41.7024H128.274V16.43H128.334Z" fill="#FFFFFF"/>
<path fill-rule="evenodd" clip-rule="evenodd" d="M113.815 38.2964C115.608 38.2964 117.281 37.8781 118.894 36.8027C120.567 35.9065 121.762 34.7116 122.479 33.3375H126.243C125.466 35.6078 123.972 37.6392 121.582 39.1925C119.193 40.8654 116.624 41.7616 113.815 41.7616C110.231 41.7616 107.064 40.3875 104.376 37.8781C101.687 35.1896 100.492 32.0231 100.492 28.3188C100.492 24.7341 101.687 21.5676 104.376 19.0583C106.945 16.3697 110.231 15.1748 113.815 15.1748C116.504 15.1748 119.073 15.8918 121.463 17.2659C123.733 18.7595 125.346 20.7311 126.123 22.9417H122.06C121.343 21.7468 120.268 20.5519 118.595 19.835C117.101 18.9388 115.429 18.4608 113.815 18.4608C111.127 18.4608 108.857 19.5362 106.945 21.3286C104.973 23.3002 104.077 25.69 104.077 28.3786C104.077 31.2464 104.973 33.6362 106.765 35.5481C108.558 37.4002 110.948 38.2964 113.815 38.2964Z" fill="#FFFFFF"/>
<path fill-rule="evenodd" clip-rule="evenodd" d="M70.3206 3.82422V30.5305H74.2041V25.5119L78.1473 20.4335L85.974 30.5305H91.2913L81.0151 17.0877L90.5146 3.94371H85.6752L74.6821 18.4619V3.82422H70.3206Z" fill="#FFFFFF"/>
<path fill-rule="evenodd" clip-rule="evenodd" d="M188.139 41.7024V38.2371C190.828 38.2371 193.217 37.341 195.189 35.2499C197.161 33.338 198.057 31.0677 198.057 28.1999C198.057 25.5113 197.161 23.1215 195.189 21.1499C193.217 19.3575 190.828 18.2821 188.139 18.2821V14.9961C191.903 14.9961 195.01 16.191 197.698 18.7601C200.267 21.4486 201.582 24.6151 201.582 28.1999C201.582 31.9639 200.208 35.0706 197.698 37.6397C195.01 40.388 191.843 41.7024 188.139 41.7024ZM188.139 41.7024C184.554 41.7024 181.388 40.3282 178.699 37.8189C176.011 35.1304 174.636 31.9639 174.636 28.2596C174.636 24.6749 176.011 21.5084 178.699 18.9991C181.268 16.3105 184.375 15.1156 188.139 15.1156V18.4016C185.45 18.4016 183.061 19.477 181.089 21.2694C179.297 23.241 178.221 25.6308 178.221 28.3194C178.221 31.1872 179.117 33.577 181.089 35.4888C182.881 37.4605 185.271 38.2969 188.139 38.2969V41.7024Z" fill="#FFFFFF"/>
<path d="M202 15.2354H197.519V41.5832H202V15.2354Z" fill="#FFFFFF"/>
<path fill-rule="evenodd" clip-rule="evenodd" d="M0 30.8287L25.9894 0L56.9973 25.8699L30.9482 56.8181L0 30.8287Z" fill="#FFFFFF"/>
<path d="M35.2499 3.76465H19.4173V19.5972H35.2499V3.76465Z" fill="#FFFFFF"/>
<path d="M57.2363 25.8691H41.4037V41.7017H57.2363V25.8691Z" fill="#FFFFFF"/>
<path d="M35.2499 25.75H19.4173V41.7618H35.2499V25.75Z" fill="#FFFFFF"/>
<path d="M57.2363 3.76465H41.4037V19.5972H57.2363V3.76465Z" fill="#FFFFFF"/>
</svg>
