<svg width="247" height="73" viewBox="0 0 247 73" fill="none" xmlns="http://www.w3.org/2000/svg">
<path fill-rule="evenodd" clip-rule="evenodd" d="M178.841 50.3616C179.204 51.3056 179.349 52.3041 179.313 53.3208C179.313 57.5689 176.394 61.1272 171.969 61.1272C170.97 61.1111 169.984 60.8949 169.07 60.4914C168.155 60.0879 167.331 59.5053 166.645 58.7778C165.959 58.0503 165.425 57.1927 165.075 56.2555C164.725 55.3183 164.566 54.3204 164.608 53.3208C164.608 49.0545 167.509 45.5144 171.897 45.5144C173.407 45.5291 174.878 45.9996 176.117 46.8643C177.356 47.7291 178.305 48.9479 178.841 50.3616ZM171.969 38.3252C163.085 38.3252 156.394 45.006 156.394 53.3208V53.3389C156.394 61.7263 162.994 68.3708 171.897 68.3708C180.8 68.3708 187.49 61.7263 187.49 53.3389C187.49 44.9516 180.872 38.3252 171.969 38.3252ZM78.1899 45.8774V60.7641H69.6678C71.2453 56.0621 72.025 51.1422 71.9162 46.1679V45.8774H78.1899ZM61.2908 60.7641H58.1177V72.9276H65.9689L66.5128 67.7717H81.7982V73.0002H89.2687V60.7641H86.2043V38.8517H64.2463V39.596C64.2463 50.4524 63.2128 55.4993 61.2908 60.7641ZM101.762 38.8517H93.838V67.7717H101.308L112.478 51.4872V67.7717H120.402V38.8517H112.949L101.762 55.1181V38.8517ZM126.748 38.8517H152.604V67.7717H144.608V45.8774H134.744V67.7717H126.748V38.8517ZM234.815 61.0364C237.444 61.0364 238.986 59.8382 238.986 57.5689C238.986 55.5175 237.444 54.2103 234.852 54.2103H230.645V61.0364H234.815ZM222.63 38.8517H230.645V47.9289H234.997C241.923 47.9289 247 51.2512 247 57.7686C247 63.9956 242.467 67.7536 235.414 67.7536H222.63V38.8517ZM191.262 59.7838C190.609 60.2558 189.811 60.5099 188.995 60.5462V68.0803C190.029 68.0803 191.081 68.0077 192.096 67.8988C193.817 67.6324 195.428 66.8868 196.746 65.7472C198.064 64.6076 199.035 63.1199 199.548 61.454C201.212 56.5253 202.04 51.3523 201.996 46.1498V45.8593H208.27V67.7173H216.266V38.8517H194.29V39.5779C194.471 46.9667 194.217 53.7746 192.731 57.8412C192.44 58.6219 191.933 59.2936 191.28 59.7656L191.262 59.7838Z" fill="white"/>
<path d="M43.5882 0H29.0554H14.5328H0V14.5949V29.2H14.5328V14.5949H29.0554V29.2H43.5882V14.5949V0Z" fill="#0EB0B2"/>
<path d="M43.5882 58.4101V43.7998H29.0554V58.4101H14.5328V43.7998H0V58.4101V72.9998H14.5328H29.0554H43.5882V58.4101Z" fill="#DF1831"/>
</svg>
