<svg width="600" height="63" viewBox="0 0 600 63" fill="none" xmlns="http://www.w3.org/2000/svg">
<path d="M0 30.8707C0 13.8213 13.8213 0 30.8707 0H256.126V61.7413H30.8707C13.8213 61.7413 0 47.9201 0 30.8707Z" fill="#E8EDF3"/>
<path d="M44.4965 45.1109H44.1324V16.7925H44.5774C45.7372 16.7925 46.8159 16.779 47.8138 16.7521C49.8096 16.6981 50.9963 16.6712 51.3739 16.6712C54.0978 16.6712 56.4981 17.0487 58.5748 17.8039C60.6784 18.5321 62.3506 19.5569 63.5912 20.8785C64.8318 22.173 65.7488 23.6429 66.3421 25.288C66.9624 26.9062 67.2726 28.6593 67.2726 30.5472C67.2726 34.8084 65.8567 38.3145 63.0248 41.0654C60.22 43.8163 56.2284 45.1918 51.0502 45.1918C49.8905 45.1918 48.8252 45.1783 47.8543 45.1513C46.8834 45.1244 45.7641 45.1109 44.4965 45.1109ZM51.2929 18.7748C50.6996 18.7748 49.8231 18.8018 48.6634 18.8557C47.5306 18.8827 46.762 18.8962 46.3575 18.8962V43.0072C47.2475 43.0072 48.0835 43.0207 48.8657 43.0477C49.6478 43.0477 50.2141 43.0612 50.5648 43.0881C50.9154 43.0881 51.1042 43.0881 51.1311 43.0881C55.5272 43.0881 58.9254 41.9284 61.3257 39.609C63.726 37.2626 64.9262 34.242 64.9262 30.5472C64.9262 27.068 63.78 24.2362 61.4875 22.0517C59.1681 19.8671 55.7699 18.7748 51.2929 18.7748Z" fill="black"/>
<path d="M85.756 45.1109H83.4905L95.8292 16.5498H97.6497L109.988 45.1109H107.602L103.475 35.4826H89.8824L85.756 45.1109ZM102.545 33.379L96.6788 19.6244L90.7724 33.379H102.545Z" fill="black"/>
<path d="M132.848 18.8962H122.37V16.7925H145.551V18.8962H135.073V45.1109H132.848V18.8962Z" fill="black"/>
<path d="M160.179 45.1109H157.913L170.252 16.5498H172.072L184.411 45.1109H182.024L177.898 35.4826H164.305L160.179 45.1109ZM176.967 33.379L171.101 19.6244L165.195 33.379H176.967Z" fill="black"/>
<rect x="209.629" width="390.371" height="62.1459" rx="31.0729" fill="#73EDB0"/>
<path d="M269.135 38.1931C269.135 36.9525 268.77 35.8872 268.042 34.9972C267.314 34.1072 266.411 33.4329 265.332 32.9744C264.253 32.516 263.08 32.017 261.812 31.4776C260.545 30.9112 259.371 30.3584 258.293 29.819C257.214 29.2796 256.31 28.484 255.582 27.4321C254.854 26.3533 254.49 25.0858 254.49 23.6294C254.49 21.5797 255.232 19.8941 256.715 18.5725C258.225 17.2241 260.248 16.5498 262.783 16.5498C266.1 16.5498 268.636 17.5072 270.389 19.4221L269.175 21.0807C267.557 19.4626 265.453 18.6535 262.864 18.6535C261.003 18.6535 259.533 19.1119 258.454 20.0289C257.376 20.9189 256.836 22.1191 256.836 23.6294C256.836 24.843 257.2 25.8949 257.929 26.7849C258.657 27.6479 259.56 28.2952 260.639 28.7267C261.718 29.1582 262.891 29.6437 264.159 30.1831C265.426 30.6955 266.599 31.2214 267.678 31.7608C268.757 32.3002 269.66 33.1228 270.389 34.2285C271.117 35.3073 271.481 36.6154 271.481 38.1527C271.481 40.3642 270.618 42.1577 268.892 43.5331C267.166 44.9086 265.022 45.5963 262.459 45.5963C260.706 45.5963 258.98 45.2322 257.281 44.5041C255.609 43.7219 254.436 42.724 253.762 41.5104L255.097 39.9731C255.906 41.0249 256.985 41.8745 258.333 42.5218C259.682 43.169 261.044 43.4927 262.419 43.4927C264.253 43.4927 265.831 43.0207 267.152 42.0768C268.474 41.1598 269.135 39.8652 269.135 38.1931Z" fill="black"/>
<path d="M290.005 31.0731C290.005 26.9467 291.354 23.4945 294.051 20.7166C296.748 17.9388 300.132 16.5498 304.205 16.5498C308.25 16.5498 311.621 17.9253 314.318 20.6762C317.042 23.4001 318.404 26.8658 318.404 31.0731C318.404 35.1995 317.042 38.6651 314.318 41.4699C311.621 44.2209 308.25 45.5963 304.205 45.5963C300.159 45.5963 296.775 44.2344 294.051 41.5104C291.354 38.7864 290.005 35.3073 290.005 31.0731ZM292.351 31.0731C292.351 34.5791 293.484 37.5323 295.75 39.9327C298.042 42.306 300.86 43.4927 304.205 43.4927C307.657 43.4927 310.489 42.306 312.7 39.9327C314.939 37.5323 316.058 34.5791 316.058 31.0731C316.058 27.4861 314.912 24.5329 312.619 22.2135C310.354 19.8401 307.549 18.6535 304.205 18.6535C300.833 18.6535 298.015 19.8401 295.75 22.2135C293.484 24.5599 292.351 27.513 292.351 31.0731Z" fill="black"/>
<path d="M356.374 45.2322H339.221V16.9139H341.446V43.1286H356.374V45.2322Z" fill="black"/>
<path d="M395.282 16.9139H397.507V33.379C397.507 37.4514 396.495 40.499 394.473 42.5218C392.45 44.5445 389.888 45.5559 386.786 45.5559C383.361 45.5559 380.583 44.4906 378.452 42.3599C376.349 40.2293 375.297 37.1413 375.297 33.0958V16.9139H377.522V32.6913C377.522 36.0625 378.345 38.7055 379.99 40.6204C381.662 42.5083 383.927 43.4522 386.786 43.4522C389.429 43.4522 391.506 42.5487 393.016 40.7418C394.526 38.9348 395.282 36.3187 395.282 32.8935V16.9139Z" fill="black"/>
<path d="M426.633 19.0175H416.155V16.9139H439.336V19.0175H428.858V45.2322H426.633V19.0175Z" fill="black"/>
<path d="M461.577 45.2322H459.352V16.9139H461.577V45.2322Z" fill="black"/>
<path d="M483.39 31.0731C483.39 26.9467 484.738 23.4945 487.435 20.7166C490.132 17.9388 493.517 16.5498 497.59 16.5498C501.635 16.5498 505.006 17.9253 507.703 20.6762C510.427 23.4001 511.789 26.8658 511.789 31.0731C511.789 35.1995 510.427 38.6651 507.703 41.4699C505.006 44.2209 501.635 45.5963 497.59 45.5963C493.544 45.5963 490.159 44.2344 487.435 41.5104C484.738 38.7864 483.39 35.3073 483.39 31.0731ZM485.736 31.0731C485.736 34.5791 486.869 37.5323 489.134 39.9327C491.427 42.306 494.245 43.4927 497.59 43.4927C501.042 43.4927 503.874 42.306 506.085 39.9327C508.324 37.5323 509.443 34.5791 509.443 31.0731C509.443 27.4861 508.297 24.5329 506.004 22.2135C503.739 19.8401 500.934 18.6535 497.59 18.6535C494.218 18.6535 491.4 19.8401 489.134 22.2135C486.869 24.5599 485.736 27.513 485.736 31.0731Z" fill="black"/>
<path d="M555.867 16.9139V45.2322H554.087L534.71 20.8785V45.2322H532.606V16.9139H534.386L553.764 41.3486V16.9139H555.867Z" fill="black"/>
</svg>
