<svg width="262" height="66" viewBox="0 0 262 66" fill="none" xmlns="http://www.w3.org/2000/svg">
<g clip-path="url(#clip0_2331_86769)">
<path d="M0.465607 52.1053V0H26.9084L26.0756 8.12843H10.668V20.5642H21.6337L21.5643 29.3179H10.668V43.9768H27.4637L26.6308 52.1053H0.465607ZM40.4249 53.0084C38.7592 53.0084 37.2554 52.499 35.9136 51.48C34.5718 50.4148 33.5308 49.0021 32.7904 47.2421C32.0501 45.4358 31.68 43.4211 31.68 41.1979C31.68 36.1494 33.392 32.6063 36.8159 30.5684C40.2861 28.4842 44.3115 27.3032 48.8921 27.0253C48.8921 24.5242 48.7303 22.6715 48.4063 21.4674C48.0824 20.2632 47.2959 19.6611 46.0466 19.6611C44.9824 19.6611 44.1727 20.0779 43.6174 20.9116C43.0622 21.7453 42.7152 22.8105 42.5764 24.1074L33.068 22.44C33.5308 18.8737 34.9883 16.3263 37.4405 14.7979C39.8927 13.2695 42.7615 12.5053 46.0466 12.5053C50.2571 12.5053 53.4034 13.6168 55.4855 15.84C57.614 18.0632 58.6781 20.958 58.6781 24.5242V44.7411C58.6781 46.9178 59.0251 49.2337 59.7192 51.6884L50.2108 52.5221L49.1004 47.7284C48.2675 49.2105 47.0413 50.461 45.4219 51.48C43.8026 52.499 42.1369 53.0084 40.4249 53.0084ZM44.9361 46.0611C45.7226 46.0611 46.3705 45.8757 46.8794 45.5053C47.4347 45.1348 48.1056 44.5326 48.8921 43.699V32.8611C46.5787 32.8611 44.7279 33.4863 43.3398 34.7368C41.9517 35.9874 41.2577 37.9326 41.2577 40.5726C41.2577 42.3326 41.5584 43.699 42.16 44.6716C42.8077 45.5978 43.7332 46.0611 44.9361 46.0611ZM79.0171 53.0084C75.1768 53.0084 72.0767 52.1516 69.717 50.4379C67.3572 48.678 65.8304 46.2464 65.1363 43.1432L72.7013 40.6421C72.8865 41.5222 73.2335 42.3095 73.7424 43.0042C74.8065 44.5326 76.3567 45.2968 78.3925 45.2968C79.5493 45.2968 80.6597 45.0421 81.7239 44.5326C82.788 44.0232 83.3202 43.2357 83.3202 42.1705C83.3202 40.7347 82.3254 39.6231 80.3358 38.8358L72.1461 35.5011C69.9715 34.5748 68.3058 33.1853 67.149 31.3326C65.9922 29.4799 65.4139 27.2106 65.4139 24.5242C65.4139 22.0232 66.0155 19.8695 67.2184 18.0632C68.4677 16.2568 70.0871 14.8905 72.0767 13.9642C74.1125 12.9916 76.2873 12.5053 78.6007 12.5053C81.5157 12.5053 84.1993 13.3621 86.6516 15.0758C89.1038 16.7432 90.7464 19.0358 91.5792 21.9537L83.5284 24.4547C83.3432 23.6674 83.0195 22.8799 82.5567 22.0926C81.5387 20.5178 80.2433 19.7305 78.6701 19.7305C77.5133 19.7305 76.5186 20.0084 75.6857 20.5642C74.8529 21.0736 74.4364 21.8378 74.4364 22.8568C74.4364 24.061 75.57 25.1726 77.8372 26.1916L84.7776 29.04C87.2299 30.198 89.1501 31.6569 90.5382 33.4168C91.9263 35.1768 92.6203 37.5389 92.6203 40.5032C92.6203 43.1895 91.9726 45.4822 90.677 47.3811C89.3814 49.2338 87.6926 50.6463 85.6105 51.619C83.5284 52.5452 81.3305 53.0084 79.0171 53.0084ZM100.222 64.4716C99.1111 64.4716 97.7461 64.3326 96.1267 64.0547V55.9263C97.8388 56.0189 99.2036 56.0653 100.222 56.0653C104.293 56.0653 106.329 54.1664 106.329 50.3684V48.4232L95.1551 13.4779L105.704 12.9916L111.187 37.5158L116.393 13.2L125.207 13.1305L115.213 51.4105C113.825 56.4126 111.789 59.84 109.105 61.6926C106.468 63.5453 103.507 64.4716 100.222 64.4716ZM131.16 0H141.849C148.696 0 153.809 2.17684 157.187 6.53053C160.565 10.8842 162.253 17.461 162.253 26.2611C162.253 30.9389 161.606 35.2232 160.31 39.1137C159.061 43.0042 157.048 46.1536 154.272 48.5621C151.496 50.9242 147.956 52.1053 143.653 52.1053H131.16V0ZM142.751 43.9768C146.267 43.9768 148.696 42.4715 150.038 39.4611C151.426 36.4042 152.12 32.6526 152.12 28.2063V25.8442C152.12 22.6484 151.912 19.8231 151.496 17.3684C151.126 14.8674 150.223 12.7137 148.789 10.9074C147.401 9.05474 145.296 8.12843 142.473 8.12843H141.293V43.9768H142.751ZM182.316 53.0084C177.643 53.0084 174.034 51.1557 171.488 47.4505C168.99 43.7453 167.741 38.8127 167.741 32.6526C167.741 26.539 168.99 21.6527 171.488 17.9937C173.987 14.3347 177.596 12.5053 182.316 12.5053C186.988 12.5053 190.597 14.3347 193.143 17.9937C195.733 21.6527 197.029 26.539 197.029 32.6526C197.029 38.7663 195.733 43.699 193.143 47.4505C190.597 51.1557 186.988 53.0084 182.316 53.0084ZM182.316 45.7832C184.398 45.7832 185.739 44.5095 186.341 41.9621C186.943 39.4147 187.243 36.2884 187.243 32.5832C187.243 28.878 186.943 25.7516 186.341 23.2042C185.739 20.6568 184.398 19.3832 182.316 19.3832C180.233 19.3832 178.915 20.5873 178.36 22.9958C177.804 25.4043 177.527 28.3453 177.527 31.819C177.527 36.0799 177.804 39.4842 178.36 42.0316C178.915 44.5326 180.233 45.7832 182.316 45.7832ZM216.363 53.0084C213.403 53.0084 210.858 52.0822 208.729 50.2295C206.647 48.3768 205.075 45.9221 204.009 42.8653C202.946 39.8084 202.413 36.4968 202.413 32.9305C202.413 29.4105 202.923 26.099 203.94 22.9958C205.005 19.8926 206.602 17.3684 208.729 15.4232C210.858 13.4779 213.473 12.5053 216.572 12.5053C218.931 12.5053 221.038 13.1074 222.887 14.3116C224.786 15.4695 226.266 17.1137 227.329 19.2442C228.395 21.3748 228.972 23.8064 229.064 26.539L219.834 26.9558C219.834 26.7705 219.742 26.0295 219.556 24.7326C219.417 23.4357 219.07 22.3705 218.515 21.5368C218.007 20.7032 217.335 20.2863 216.502 20.2863C214.653 20.2863 213.473 21.5599 212.963 24.1074C212.454 26.6084 212.199 29.4337 212.199 32.5832C212.199 35.6864 212.454 38.5115 212.963 41.059C213.518 43.56 214.791 44.8105 216.78 44.8105C219.278 44.8105 220.574 42.3559 220.666 37.4463L228.856 38.3495C228.256 43.1663 227.052 46.8253 225.247 49.3263C223.443 51.781 220.483 53.0084 216.363 53.0084ZM247.503 53.0084C243.662 53.0084 240.563 52.1516 238.203 50.4379C235.843 48.678 234.316 46.2464 233.622 43.1432L241.187 40.6421C241.371 41.5222 241.718 42.3095 242.229 43.0042C243.292 44.5326 244.842 45.2968 246.879 45.2968C248.034 45.2968 249.145 45.0421 250.21 44.5326C251.274 44.0232 251.806 43.2357 251.806 42.1705C251.806 40.7347 250.81 39.6231 248.822 38.8358L240.632 35.5011C238.456 34.5748 236.791 33.1853 235.635 31.3326C234.478 29.4799 233.9 27.2106 233.9 24.5242C233.9 22.0232 234.5 19.8695 235.705 18.0632C236.954 16.2568 238.573 14.8905 240.563 13.9642C242.598 12.9916 244.772 12.5053 247.087 12.5053C250.002 12.5053 252.684 13.3621 255.138 15.0758C257.589 16.7432 259.232 19.0358 260.065 21.9537L252.014 24.4547C251.829 23.6674 251.504 22.8799 251.043 22.0926C250.024 20.5178 248.728 19.7305 247.156 19.7305C245.999 19.7305 245.005 20.0084 244.172 20.5642C243.339 21.0736 242.923 21.8378 242.923 22.8568C242.923 24.061 244.056 25.1726 246.323 26.1916L253.264 29.04C255.715 30.198 257.636 31.6569 259.024 33.4168C260.412 35.1768 261.106 37.5389 261.106 40.5032C261.106 43.1895 260.457 45.4822 259.163 47.3811C257.867 49.2338 256.179 50.6463 254.097 51.619C252.015 52.5452 249.816 53.0084 247.503 53.0084Z" fill="#876BD0"/>
</g>
<defs>
<clipPath id="clip0_2331_86769">
<rect width="262" height="66" fill="white"/>
</clipPath>
</defs>
</svg>
