<svg width="70" height="103" viewBox="0 0 70 103" fill="none" xmlns="http://www.w3.org/2000/svg">
<path d="M69.5451 68.5759C69.5451 62.0656 53.9765 56.7863 34.7662 56.7863C15.556 56.7863 0 62.0656 0 68.5759C0.173977 77.6847 3.91397 86.3618 10.4161 92.7421C16.9183 99.1224 25.6637 102.697 34.7726 102.697C43.8815 102.697 52.6268 99.1224 59.129 92.7421C65.6312 86.3618 69.3711 77.6847 69.5451 68.5759V68.5759Z" fill="#E8E8E8"/>
<path d="M65.6625 68.5758C65.6625 73.4998 51.8322 77.4593 34.7663 77.4593C17.7004 77.4593 3.88269 73.4744 3.88269 68.5758C3.88269 63.6773 17.713 59.6924 34.7663 59.6924C51.8195 59.6924 65.6625 63.6899 65.6625 68.5758Z" fill="#FFF"/>
<path d="M69.5451 34.1207C69.3712 25.0119 65.6312 16.3348 59.129 9.95454C52.6268 3.57425 43.8815 0 34.7726 0C25.6637 0 16.9183 3.57425 10.4161 9.95454C3.91397 16.3348 0.173977 25.0119 0 34.1207C0 40.631 15.5687 45.9104 34.7662 45.9104C53.9638 45.9104 69.5451 40.631 69.5451 34.1207Z" fill="#E8E8E8"/>
</svg>
