<?xml version="1.0" encoding="UTF-8"?> <svg xmlns="http://www.w3.org/2000/svg" width="128" height="29" viewBox="0 0 128 29" fill="none"> <g clip-path="url(#clip0)"> <path d="M17.9299 24.0631H14.2227L18.6713 28.5118C24.131 28.1074 28.5123 23.5239 28.5123 17.9294V14.2222H23.9962V17.9294C24.0636 21.367 21.3001 24.0631 17.9299 24.0631Z" fill="#E8E8E8"></path> <path d="M4.44866 17.9968V14.2896L0 18.7382C0.404423 24.2653 4.98789 28.5792 10.5824 28.5792H14.2896V24.0631H10.5824C7.21222 24.0631 4.44866 21.367 4.44866 17.9968Z" fill="#E8E8E8"></path> <path d="M10.5824 4.51606H14.2896L9.84097 0C4.31385 0.404423 0 4.98789 0 10.5824V14.2896H4.51606V10.5824C4.51606 7.21222 7.21222 4.51606 10.5824 4.51606Z" fill="#E8E8E8"></path> <path d="M24.0626 10.5824V14.2896L28.5113 9.84097C28.1743 4.31385 23.5908 0 17.9963 0H14.2891V4.51606H17.9963C21.3665 4.51606 24.0626 7.21222 24.0626 10.5824Z" fill="#E8E8E8"></path> <path d="M59.3153 20.5584V24.4678H43.9473V4.04443H58.9783V8.02126H48.3959V12.1329H56.754V16.0423H48.3959V20.5584H59.3153Z" fill="#E8E8E8"></path> <path d="M63.9668 24.5352V4.04443H68.348V20.5584H77.852V24.4678H63.9668V24.5352Z" fill="#E8E8E8"></path> <path d="M99.8933 4.04443H103.803V24.5352H99.4215V10.8522L92.8159 19.2103L86.2777 10.8522V24.4678H81.8965V4.04443H85.8733L92.8833 12.9417L99.8933 4.04443Z" fill="#E8E8E8"></path> <path d="M113.71 19.6821L111.958 24.5352H107.307L115.328 4.04443H119.979L128 24.5352H123.349L121.596 19.6821H113.71ZM117.619 9.16713L115.125 15.9075H120.113L117.619 9.16713Z" fill="#E8E8E8"></path> </g> <defs> <clipPath id="clip0"> <rect width="128" height="28.5793" fill="white"></rect> </clipPath> </defs> </svg> 
