<?xml version="1.0" encoding="UTF-8"?>
<!DOCTYPE svg PUBLIC "-//W3C//DTD SVG 1.1//EN" "http://www.w3.org/Graphics/SVG/1.1/DTD/svg11.dtd">
<!-- Creator: CorelDRAW X8 -->
<svg xmlns="http://www.w3.org/2000/svg" xml:space="preserve" width="94.0824mm" height="26.3102mm" version="1.1" style="shape-rendering:geometricPrecision; text-rendering:geometricPrecision; image-rendering:optimizeQuality; fill-rule:evenodd; clip-rule:evenodd"
viewBox="0 0 6017 1683"
 xmlns:xlink="http://www.w3.org/1999/xlink">
 <defs>
  <style type="text/css">
   <![CDATA[
    .fil1 {fill:#FDC613}
    .fil0 {fill:#000000;fill-rule:nonzero}
   ]]>
  </style>
 </defs>
 <g id="Слой_x0020_1">
  <metadata id="CorelCorpID_0Corel-Layer"/>
  <polygon class="fil0" points="2141,176 2025,176 2025,245 2138,245 2138,287 2025,287 2025,383 2141,383 2141,425 1980,425 1980,134 2141,134 "/>
  <path class="fil0" d="M2261 134c37,0 54,4 70,15 13,9 34,28 34,66 0,15 -4,37 -25,53 33,10 51,38 51,68 0,14 -2,47 -29,69 -25,20 -49,20 -78,20l-67 0 0 -291 44 0 0 0zm0 125l14 0c10,0 48,0 48,-43 0,-36 -29,-40 -46,-40l-16 0 0 83zm0 124l27 0c50,0 59,-25 59,-43 0,-20 -10,-44 -58,-44l-28 0 0 87z"/>
  <path class="fil0" d="M2511 134c18,0 43,1 64,15 25,16 37,44 37,71 0,17 -5,44 -29,64 -23,20 -50,23 -71,23l-20 0 0 118 -45 0 0 -291 64 0 0 0zm-19 132l20 0c38,0 57,-19 57,-46 0,-16 -7,-45 -58,-45l-19 0 0 91z"/>
  <path class="fil0" d="M2956 280c0,85 -65,151 -152,151 -88,0 -152,-66 -152,-151 0,-86 64,-152 152,-152 87,0 152,66 152,152l0 0zm-45 0c0,-65 -45,-111 -107,-111 -63,0 -108,46 -108,111 0,65 45,110 108,110 62,0 107,-45 107,-110l0 0z"/>
  <polygon class="fil0" points="3226,134 3226,425 3182,425 3182,176 3056,176 3056,425 3012,425 3012,134 3226,134 "/>
  <polygon class="fil0" points="3475,176 3358,176 3358,245 3471,245 3471,287 3358,287 3358,383 3475,383 3475,425 3314,425 3314,134 3475,134 "/>
  <polygon class="fil0" points="3747,229 3550,439 3550,134 3595,134 3595,331 3792,121 3792,425 3747,425 "/>
  <path class="fil0" d="M4096 202c-33,-30 -63,-33 -80,-33 -63,0 -106,47 -106,112 0,61 45,109 107,109 35,0 62,-18 79,-34l0 53c-30,18 -60,22 -81,22 -53,0 -86,-24 -103,-40 -34,-32 -47,-69 -47,-110 0,-54 23,-91 47,-115 30,-28 65,-38 106,-38 26,0 52,5 78,21l0 53z"/>
  <polygon class="fil0" points="4213,250 4326,134 4385,134 4253,266 4385,425 4326,425 4222,296 4213,305 4213,425 4168,425 4168,134 4213,134 "/>
  <polygon class="fil0" points="4639,229 4442,439 4442,134 4487,134 4487,331 4684,121 4684,425 4639,425 "/>
  <polygon class="fil0" points="4960,229 4763,439 4763,134 4807,134 4807,331 5004,121 5004,425 4960,425 "/>
  <polygon class="fil0" points="2002,743 2079,894 2146,743 2192,743 2060,1035 2014,1035 2053,947 1948,743 2002,743 "/>
  <polygon class="fil0" points="2274,856 2400,856 2400,743 2444,743 2444,1035 2400,1035 2400,898 2274,898 2274,1035 2230,1035 2230,743 2274,743 "/>
  <polygon class="fil0" points="2729,838 2532,1048 2532,743 2577,743 2577,940 2773,730 2773,1035 2729,1035 "/>
  <path class="fil0" d="M2897 743c37,0 54,4 70,15 13,9 33,28 33,66 0,15 -3,37 -24,53 33,10 50,39 50,68 0,14 -1,47 -29,69 -24,20 -48,21 -78,21l-67 0 0 -292 45 0 0 0zm0 125l14 0c10,0 47,0 47,-43 0,-36 -28,-40 -46,-40l-15 0 0 83zm0 125l27 0c50,0 59,-25 59,-44 0,-20 -11,-44 -58,-44l-28 0 0 88z"/>
  <polygon class="fil0" points="3252,785 3136,785 3136,854 3249,854 3249,896 3136,896 3136,993 3252,993 3252,1035 3091,1035 3091,743 3252,743 "/>
  <path class="fil0" d="M3392 743c18,0 43,1 64,15 24,17 36,45 36,71 0,17 -4,44 -28,64 -23,20 -50,23 -71,23l-21 0 0 119 -44 0 0 -292 64 0 0 0zm-20 132l21 0c38,0 56,-19 56,-46 0,-16 -6,-45 -57,-45l-20 0 0 91z"/>
  <path class="fil0" d="M3763 811c-33,-29 -63,-33 -79,-33 -64,0 -107,47 -107,112 0,61 45,109 107,109 35,0 62,-18 79,-34l0 53c-29,18 -60,22 -80,22 -53,0 -87,-24 -104,-40 -34,-32 -46,-69 -46,-110 0,-54 22,-91 46,-115 31,-28 66,-38 106,-38 27,0 52,5 78,21l0 53z"/>
  <polygon class="fil0" points="4015,838 3818,1048 3818,743 3863,743 3863,940 4060,730 4060,1035 4015,1035 "/>
  <polygon class="fil0" points="4228,785 4228,1035 4184,1035 4184,785 4117,785 4117,743 4295,743 4295,785 4228,785 "/>
  <polygon class="fil0" points="4513,785 4397,785 4397,854 4510,854 4510,896 4397,896 4397,993 4513,993 4513,1035 4352,1035 4352,743 4513,743 "/>
  <polygon class="fil0" points="4670,785 4670,1035 4625,1035 4625,785 4558,785 4558,743 4737,743 4737,785 4670,785 "/>
  <path class="fil0" d="M2024 1352c38,0 55,4 70,15 14,9 34,28 34,66 0,15 -3,37 -24,53 33,11 51,39 51,68 0,14 -2,47 -30,69 -24,20 -48,21 -78,21l-67 0 0 -292 44 0 0 0zm1 125l13 0c11,0 48,0 48,-43 0,-36 -28,-40 -46,-40l-15 0 0 83zm0 125l27 0c50,0 59,-25 59,-44 0,-20 -11,-44 -58,-44l-28 0 0 88z"/>
  <path class="fil0" d="M2502 1420c-32,-29 -62,-32 -79,-32 -63,0 -106,46 -106,111 0,61 45,109 107,109 35,0 62,-18 78,-34l0 53c-29,18 -59,22 -80,22 -53,0 -86,-24 -103,-40 -34,-32 -47,-69 -47,-110 0,-54 23,-91 47,-114 30,-29 65,-39 106,-39 26,0 52,5 77,21l0 53z"/>
  <path class="fil0" d="M2729 1573l-125 0 -31 71 -49 0 146 -309 138 309 -48 0 -31 -71 0 0zm-18 -42l-43 -99 -45 99 88 0 0 0z"/>
  <polygon class="fil0" points="2889,1465 3015,1465 3015,1352 3059,1352 3059,1644 3015,1644 3015,1508 2889,1508 2889,1644 2845,1644 2845,1352 2889,1352 "/>
  <polygon class="fil0" points="3192,1468 3304,1352 3363,1352 3231,1484 3364,1644 3304,1644 3200,1514 3192,1523 3192,1644 3147,1644 3147,1352 3192,1352 "/>
  <polygon class="fil0" points="3502,1394 3502,1644 3457,1644 3457,1394 3390,1394 3390,1352 3569,1352 3569,1394 3502,1394 "/>
  <polygon class="fil0" points="3951,1352 3951,1644 3906,1644 3906,1394 3781,1394 3781,1644 3737,1644 3737,1352 3951,1352 "/>
  <polygon class="fil0" points="4200,1394 4083,1394 4083,1463 4196,1463 4196,1505 4083,1505 4083,1602 4200,1602 4200,1644 4039,1644 4039,1352 4200,1352 "/>
  <polygon class="fil0" points="4356,1394 4356,1644 4311,1644 4311,1394 4244,1394 4244,1352 4423,1352 4423,1394 4356,1394 "/>
  <polygon class="fil0" points="4641,1394 4525,1394 4525,1463 4638,1463 4638,1505 4525,1505 4525,1602 4641,1602 4641,1644 4480,1644 4480,1352 4641,1352 "/>
  <path class="fil0" d="M4781 1352c18,0 43,1 64,15 24,17 36,45 36,71 0,17 -4,44 -29,64 -23,20 -49,23 -71,23l-20 0 0 119 -45 0 0 -292 65 0 0 0zm-20 132l20 0c39,0 57,-19 57,-46 0,-16 -7,-45 -57,-45l-20 0 0 91z"/>
  <path class="fil0" d="M4944 1352l146 0 0 42 -101 0 0 75 29 0c21,0 50,4 73,24 16,14 27,37 27,64 0,27 -12,55 -36,71 -21,14 -46,16 -64,16l-74 0 0 -292zm45 250l27 0c12,0 58,0 58,-45 0,-21 -10,-46 -57,-46l-28 0 0 91z"/>
  <polygon class="fil0" points="5196,1352 5273,1503 5340,1352 5386,1352 5254,1644 5208,1644 5247,1557 5142,1352 5196,1352 "/>
  <path class="fil0" d="M5488 1352c18,0 43,1 64,15 25,17 36,45 36,71 0,17 -4,44 -28,64 -23,20 -50,23 -71,23l-21 0 0 119 -44 0 0 -292 64 0 0 0zm-20 132l21 0c38,0 56,-19 56,-46 0,-16 -6,-45 -57,-45l-20 0 0 91z"/>
  <polygon class="fil0" points="5651,1352 5798,1352 5798,1394 5696,1394 5696,1644 5651,1644 "/>
  <polygon class="fil0" points="6017,1394 5901,1394 5901,1463 6014,1463 6014,1505 5901,1505 5901,1602 6017,1602 6017,1644 5856,1644 5856,1352 6017,1352 "/>
  <path class="fil0" d="M499 420l0 -335 -21 0 0 340c7,-2 14,-4 21,-5z"/>
  <polygon class="fil0" points="0,1683 22,1683 22,85 0,85 "/>
  <path class="fil0" d="M1047 1130l0 -1045 -22 0 0 1063c8,-6 15,-12 22,-18z"/>
  <path class="fil0" d="M499 676c-7,6 -15,13 -21,20l0 387c6,10 14,19 21,28l0 -435z"/>
  <path class="fil0" d="M478 1389l0 294 21 0 0 -284c-7,-3 -14,-7 -21,-10z"/>
  <polygon class="fil0" points="1503,1683 1524,1683 1524,85 1503,85 "/>
  <path class="fil0" d="M1033 1410c-3,1 -6,2 -8,3l0 270 22 0 0 -279c-5,2 -10,4 -14,6z"/>
  <path class="fil1" d="M1196 523c0,8 12,66 15,130 5,72 5,161 -8,234 -15,92 -51,186 -115,254 -78,81 -199,118 -308,118 -107,0 -219,-34 -297,-112 -70,-70 -97,-164 -95,-262 0,-55 10,-109 28,-154 37,-95 121,-129 217,-125 46,1 133,10 167,46 45,47 36,144 18,196 -2,7 -10,32 -40,35 -17,1 -55,-2 -73,-8 -11,-3 -15,-17 -15,-27 -1,-25 14,-50 12,-72 0,-10 -6,-19 -17,-21 -25,-9 -87,-26 -118,15 -11,16 -25,71 -20,109 6,49 34,85 62,102 31,21 81,34 131,36 58,3 119,-8 155,-36 67,-51 80,-113 89,-197 15,-135 -45,-260 -182,-310 -207,-75 -454,-29 -539,197 -75,194 -49,437 99,589 163,170 446,199 657,116 155,-60 253,-170 307,-325 32,-86 45,-180 46,-272 2,-46 -1,-89 -3,-126 -4,-35 -10,-78 -15,-105 -4,-17 -17,-20 -24,-22l-98 -20c-13,-2 -32,-1 -36,17l0 0z"/>
  <polygon class="fil0" points="3663,81 3663,141 3739,60 3739,0 3663,81 "/>
  <polygon class="fil0" points="4875,81 4875,141 4952,60 4952,0 4875,81 "/>
  <polygon class="fil0" points="3593,1510 3593,1570 3669,1489 3669,1429 3593,1510 "/>
 </g>
</svg>
