<svg width="200" height="30" viewBox="0 0 200 30" fill="none" xmlns="http://www.w3.org/2000/svg">
<g clip-path="url(#clip0_30740_104934)">
<g clip-path="url(#clip1_30740_104934)">
<path d="M81.5002 0.529388H102.241V3.48483H84.738V13.291H99.2883V16.2431H84.738V26.2955H102.445V29.251H81.5002V0.529388Z" fill="#EE2A4E"/>
<path d="M138.969 0.539062H142.207V26.2631H157.165V29.2574H138.969V0.539062Z" fill="#EE2A4E"/>
<path d="M167.159 0.539062H163.922V29.2574H167.159V0.539062Z" fill="#EE2A4E"/>
<path d="M35.5921 0.509918H32.4288L19.9313 29.2963H23.25L26.6624 21.7068H41.2321L44.5962 29.2963H48.0799L35.5921 0.509918ZM27.9252 18.7934L33.97 4.14589L39.976 18.7934H27.9252Z" fill="#EE2A4E"/>
<path d="M131.626 29.2704L126.105 17.1212C129.137 15.6338 131.756 12.8081 131.756 9.14937C131.756 6.80964 130.933 4.79722 129.532 3.40052C127.721 1.59549 124.351 0.526093 120.829 0.526093H109.548V29.2704H112.786V18.1H123.066L128.113 29.2736L131.626 29.2704ZM120.537 15.1866H112.786V3.52042H120.572C125.222 3.52042 128.453 5.65599 128.453 9.18826C128.462 12.9668 124.862 15.1866 120.537 15.1866Z" fill="#EE2A4E"/>
<path d="M16.4703 13.7867H3.25066V3.52366H21.4595L21.466 0.526093H0V29.2704H3.25066V16.7454H16.4572L16.4703 13.7867Z" fill="#EE2A4E"/>
<path d="M52.8887 0.535828H64.5639C67.8566 0.535828 70.4922 1.43672 72.0981 3.07972C72.7024 3.697 73.1764 4.42972 73.4917 5.23421C73.8072 6.0387 73.9575 6.89851 73.9339 7.7624C73.9339 11.4988 71.6318 13.427 69.3655 14.4153C72.7845 15.4394 75.1189 17.2023 75.1189 21.2207C75.1189 26.1464 71.3857 29.2704 65.082 29.2704H52.8887V0.535828ZM64.0265 13.346C67.9408 13.346 70.6574 11.5831 70.6574 8.13184C70.6574 5.2963 68.3909 3.45238 64.2758 3.45238H56.1006V13.346H64.0265ZM65.1921 26.3635C69.5565 26.3635 72.2762 24.4191 72.2762 21.1461C72.2762 18.0287 69.6375 16.2204 64.6158 16.2204H56.1006V26.3635H65.1921Z" fill="#EE2A4E"/>
<path d="M197.316 21.7198C195.851 23.764 193.774 25.2874 191.384 26.0684C188.995 26.8495 186.42 26.8476 184.032 26.0629C181.644 25.2781 179.569 23.7516 178.108 21.7052C176.647 19.6588 175.875 17.1991 175.907 14.6839C175.938 12.1687 176.77 9.72904 178.281 7.71965C179.794 5.71026 181.907 4.23589 184.313 3.51092C186.72 2.78596 189.295 2.84819 191.663 3.68855C194.031 4.52892 196.071 6.10361 197.484 8.18369L200 6.51152C198.226 3.89473 195.665 1.91305 192.689 0.855252C189.711 -0.202544 186.474 -0.281167 183.45 0.63084C180.425 1.54285 177.77 3.39782 175.873 5.92544C173.975 8.45306 172.933 11.5212 172.899 14.6828C172.866 17.8445 173.841 20.9344 175.684 23.5021C177.527 26.0699 180.141 27.9814 183.146 28.9582C186.151 29.9348 189.388 29.9257 192.387 28.932C195.386 27.9384 197.989 26.0122 199.818 23.4341L197.316 21.7198Z" fill="#EE2A4E"/>
</g>
</g>
<defs>
<clipPath id="clip0_30740_104934">
<rect width="200" height="30" fill="white"/>
</clipPath>
<clipPath id="clip1_30740_104934">
<rect width="200" height="48" fill="white"/>
</clipPath>
</defs>
</svg>
