<svg width="299" height="48" viewBox="0 0 299 48" fill="none" xmlns="http://www.w3.org/2000/svg">
<g clip-path="url(#clip0_2360_86973)">
<path d="M198.061 0L204.042 24.8802L223.649 0H232.134L208.44 30.0815H196.654L189.535 0H198.061ZM253.134 0C257.164 0 259.847 0.737461 261.185 2.21131C262.523 3.68466 262.715 6.15542 261.763 9.62254L261.192 11.7034C260.23 15.2001 258.766 17.6487 256.795 19.05C254.823 20.4511 251.823 21.1522 247.795 21.1522H234.081L231.629 30.0815H224.212L232.477 0H253.134ZM253.992 10.923L254.158 10.3163C254.474 9.16009 254.428 8.35116 254.01 7.88843C253.595 7.42689 252.702 7.19577 251.329 7.19577H237.916L236.058 13.9569H249.642C250.93 13.9569 251.897 13.733 252.549 13.2852C253.201 12.8379 253.682 12.0501 253.992 10.923ZM275.892 0H289.479C293.335 0 296.018 0.694462 297.522 2.08167C299.027 3.4674 299.382 5.60667 298.59 8.49607H290.617C290.879 7.54234 290.809 6.8854 290.409 6.52415C290.007 6.1629 289.044 5.98209 287.53 5.98209H275.028C273.857 5.98209 272.904 6.17737 272.181 6.56686C271.461 6.95716 270.949 7.7016 270.648 8.79962C270.345 9.89795 270.475 10.6196 271.038 10.9663C271.45 11.2264 272.287 11.3576 273.545 11.3576L287.116 11.8763C290.974 11.8763 293.462 12.3817 294.585 13.3933C296.008 14.665 296.203 17.1788 295.172 20.936C294.274 24.2001 292.859 26.5412 290.927 27.9577C288.994 29.3735 286.1 30.0815 282.242 30.0815H266.899C263.069 30.0815 260.564 29.4025 259.38 28.0441C258.195 26.6867 258.014 24.519 258.83 21.5424H266.374C266.168 22.2935 266.339 22.9007 266.881 23.3624C267.426 23.825 268.242 24.0571 269.327 24.0571H281.713C283.427 24.0571 284.722 23.8391 285.597 23.4063C286.476 22.9723 287.072 22.1788 287.389 21.0222C287.707 19.8658 287.606 19.0433 287.084 18.5518C286.468 17.9737 285.171 17.685 283.17 17.685L271.45 17.2078C267.003 17.2078 264.176 16.7313 262.979 15.7774C261.583 14.6507 261.372 12.2951 262.356 8.71262C263.229 5.53411 264.696 3.28817 266.758 1.97339C268.82 0.658619 271.865 0 275.892 0Z" fill="#0CA1D8"/>
<path d="M189.188 0L187.511 6.11161H174.481L167.896 30.0815H160.524L167.108 6.11161H154.081L155.761 0H189.188Z" fill="black"/>
<path d="M104.201 0H92.501L68.2511 30.0815H76.9075L82.6686 22.8433H101.441L103.224 30.0815H111.881L104.201 0ZM87.5384 16.8173L96.74 5.63549H97.0822L99.8819 16.8173H87.5384Z" fill="black"/>
<path d="M130.261 0H143.846C147.704 0 150.385 0.694462 151.89 2.08167C153.394 3.4674 153.749 5.60667 152.955 8.49607H144.983C145.246 7.54234 145.176 6.8854 144.775 6.52415C144.375 6.1629 143.41 5.98209 141.896 5.98209H129.395C128.224 5.98209 127.27 6.17737 126.549 6.56686C125.827 6.95716 125.315 7.7016 125.013 8.79962C124.712 9.89795 124.842 10.6196 125.405 10.9663C125.818 11.2264 126.654 11.3576 127.911 11.3576L141.483 11.8763C145.34 11.8763 147.831 12.3817 148.952 13.3933C150.374 14.665 150.57 17.1788 149.537 20.936C148.64 24.2001 147.226 26.5412 145.294 27.9577C143.362 29.3735 140.467 30.0815 136.61 30.0815H121.267C117.438 30.0815 114.931 29.4025 113.748 28.0441C112.563 26.6867 112.38 24.519 113.198 21.5424H120.742C120.535 22.2935 120.705 22.9007 121.248 23.3624C121.793 23.825 122.608 24.0571 123.694 24.0571H136.079C137.794 24.0571 139.088 23.8391 139.966 23.4063C140.842 22.9723 141.439 22.1788 141.756 21.0222C142.074 19.8658 141.971 19.0433 141.449 18.5518C140.837 17.9737 139.537 17.685 137.537 17.685L125.818 17.2078C121.367 17.2078 118.542 16.7313 117.347 15.7774C115.949 14.6507 115.738 12.2951 116.723 8.71262C117.597 5.53411 119.063 3.28817 121.125 1.97339C123.186 0.658619 126.231 0 130.261 0Z" fill="black"/>
<path d="M45.1814 0H76.8545L75.2105 5.98179H50.9957L49.4716 11.5298H72.915L71.2598 17.5555H47.8154L44.3741 30.0813L37.0843 30.0816L45.1814 0Z" fill="black"/>
<path d="M0 0L2.8405 4.14433H39.1239L40.2396 0H0Z" fill="black"/>
<path d="M20.9988 30.0816H32.5227L33.6417 25.9238H18.149L20.9988 30.0816Z" fill="black"/>
<path d="M8.82935 12.8423H36.7826L37.9452 8.52344H5.84238L8.82935 12.8423Z" fill="black"/>
<path d="M14.9216 21.4925H34.6444L35.8069 17.1738H11.8624L14.9216 21.4925Z" fill="black"/>
<path d="M145.735 47.7778H144.52V43.4239H139.659V47.7778H138.444V38.4688H139.659V42.3519H144.52V38.4688H145.735V47.7778Z" fill="black"/>
<path d="M156.077 43.0453C156.077 45.7776 154.59 48.0002 151.668 48.0002C148.721 48.0002 147.26 45.7254 147.26 43.0191C147.26 40.1165 148.98 38.2471 151.655 38.2471C154.513 38.2471 156.077 40.2736 156.077 43.0453ZM148.475 43.1107C148.475 45.4378 149.73 46.9413 151.681 46.9413C153.608 46.9413 154.862 45.4246 154.862 43.1107C154.862 40.8097 153.608 39.319 151.655 39.319C149.484 39.319 148.475 41.1235 148.475 43.1107Z" fill="black"/>
<path d="M162.941 41.2019C162.799 39.8552 162.011 39.3063 160.653 39.3063C159.334 39.3063 158.572 39.8685 158.572 40.8489C158.572 41.8949 159.645 42.1169 161.067 42.4176C162.566 42.7316 164.48 43.2023 164.48 45.1631C164.48 47.229 162.657 47.9871 160.899 47.9871C158.701 47.9871 157.085 46.9543 157.085 44.7057H158.261C158.313 46.3921 159.528 46.9807 161.002 46.9807C162.075 46.9807 163.29 46.6014 163.29 45.2808C163.29 44.0781 162.127 43.8429 160.614 43.4899C159.128 43.1497 157.408 42.9015 157.408 40.9403C157.408 39.0315 159.089 38.2861 160.744 38.2861C162.696 38.2861 164.04 39.2016 164.118 41.2019H162.941Z" fill="black"/>
<path d="M172.365 39.5409H169.275V47.7774H168.06V39.5409H164.971V38.4688H172.365V39.5409Z" fill="black"/>
<path d="M174.666 38.4688H173.451V47.7778H174.666V38.4688Z" fill="black"/>
<path d="M178.027 38.4688L182.888 46.0255V38.4688H184.064V47.7776H182.694L177.859 40.3122V47.7776H176.696V38.4688H178.027Z" fill="black"/>
<path d="M194.07 47.7783H193.294L192.984 46.6147C192.208 47.5819 191.29 48.0004 190.011 48.0004C187.399 48.0004 185.628 46.0656 185.628 43.2024C185.628 40.4697 187.231 38.2734 190.101 38.2734C191.95 38.2734 193.785 39.3192 193.953 41.3325H192.764C192.583 40.1167 191.523 39.3064 190.101 39.3064C188.097 39.3064 186.843 40.7965 186.843 43.163C186.843 45.4902 188.097 46.9808 190.088 46.9808C192.027 46.9808 192.932 45.6471 192.984 43.8562H190.036V42.8494H194.07V47.7783Z" fill="black"/>
<path d="M203.287 43.9731V47.7778H202.084V43.9731L198.504 38.4688H199.964L202.718 42.901L205.446 38.4688H206.842L203.287 43.9731Z" fill="black"/>
<path d="M216.163 43.0453C216.163 45.7776 214.676 48.0002 211.754 48.0002C208.807 48.0002 207.346 45.7254 207.346 43.0191C207.346 40.1165 209.065 38.2471 211.741 38.2471C214.598 38.2471 216.163 40.2736 216.163 43.0453ZM208.561 43.1107C208.561 45.4378 209.815 46.9413 211.767 46.9413C213.694 46.9413 214.947 45.4246 214.947 43.1107C214.947 40.8097 213.694 39.319 211.741 39.319C209.57 39.319 208.561 41.1235 208.561 43.1107Z" fill="black"/>
<path d="M218.851 38.4688V44.3389C218.851 46.1302 219.562 46.9539 221.333 46.9539C223.195 46.9539 223.815 46.0516 223.815 44.3389V38.4688H225.043V44.0121C225.043 46.6271 224.126 47.9734 221.333 47.9734C218.67 47.9734 217.623 46.7186 217.623 44.1426V38.4688H218.851Z" fill="black"/>
<path d="M231.067 38.4688C232.8 38.4688 234.157 39.0442 234.157 41.0444C234.157 42.1295 233.524 43.0319 232.58 43.3061C233.872 43.581 233.924 44.47 233.976 45.5943C234.015 46.3393 234.015 47.2807 234.506 47.7778H233.11C232.813 47.3071 232.826 46.2609 232.8 45.7248C232.722 44.156 232.321 43.7507 230.654 43.7507H228.236V47.7778H227.021V38.4688H231.067ZM228.236 42.7705H230.524C231.714 42.7705 232.942 42.6527 232.942 41.1229C232.942 39.737 231.933 39.5149 230.848 39.5149H228.236V42.7705Z" fill="black"/>
<path d="M244.809 41.2019C244.667 39.8552 243.878 39.3063 242.521 39.3063C241.202 39.3063 240.44 39.8685 240.44 40.8489C240.44 41.8949 241.513 42.1169 242.935 42.4176C244.434 42.7316 246.348 43.2023 246.348 45.1631C246.348 47.229 244.525 47.9871 242.767 47.9871C240.569 47.9871 238.953 46.9543 238.953 44.7057H240.129C240.181 46.3921 241.396 46.9807 242.87 46.9807C243.943 46.9807 245.158 46.6014 245.158 45.2808C245.158 44.0781 243.995 43.8429 242.482 43.4899C240.996 43.1497 239.276 42.9015 239.276 40.9403C239.276 39.0315 240.957 38.2861 242.612 38.2861C244.564 38.2861 245.908 39.2016 245.986 41.2019H244.809Z" fill="black"/>
<path d="M249.011 38.4688V44.3389C249.011 46.1302 249.722 46.9539 251.493 46.9539C253.354 46.9539 253.975 46.0516 253.975 44.3389V38.4688H255.203V44.0121C255.203 46.6271 254.285 47.9734 251.493 47.9734C248.83 47.9734 247.782 46.7186 247.782 44.1426V38.4688H249.011Z" fill="black"/>
<path d="M260.994 47.9997C258.37 47.9997 256.728 46.1171 256.728 43.1363C256.728 40.4692 258.253 38.2598 261.085 38.2598C262.894 38.2598 264.717 39.2793 264.898 41.2667H263.683C263.412 40.0507 262.429 39.3185 261.059 39.3185C258.874 39.3185 257.956 41.1622 257.956 43.1233C257.956 45.4897 259.133 46.9408 261.046 46.9408C262.61 46.9408 263.567 45.9994 263.761 44.2604H264.976C264.769 46.627 263.269 47.9997 260.994 47.9997Z" fill="black"/>
<path d="M270.328 47.9997C267.703 47.9997 266.062 46.1171 266.062 43.1363C266.062 40.4692 267.587 38.2598 270.418 38.2598C272.228 38.2598 274.051 39.2793 274.232 41.2667H273.017C272.745 40.0507 271.763 39.3185 270.392 39.3185C268.207 39.3185 267.29 41.1622 267.29 43.1233C267.29 45.4897 268.466 46.9408 270.379 46.9408C271.943 46.9408 272.9 45.9994 273.094 44.2604H274.309C274.102 46.627 272.603 47.9997 270.328 47.9997Z" fill="black"/>
<path d="M282.221 39.5409H277.062V42.4565H281.884V43.4892H277.062V46.7054H282.285V47.7774H275.847V38.4688H282.221V39.5409Z" fill="black"/>
<path d="M289.085 41.2019C288.943 39.8552 288.154 39.3063 286.797 39.3063C285.478 39.3063 284.715 39.8685 284.715 40.8489C284.715 41.8949 285.788 42.1169 287.21 42.4176C288.71 42.7316 290.623 43.2023 290.623 45.1631C290.623 47.229 288.801 47.9871 287.042 47.9871C284.845 47.9871 283.229 46.9543 283.229 44.7057H284.405C284.457 46.3921 285.672 46.9807 287.145 46.9807C288.219 46.9807 289.434 46.6014 289.434 45.2808C289.434 44.0781 288.27 43.8429 286.758 43.4899C285.271 43.1497 283.552 42.9015 283.552 40.9403C283.552 39.0315 285.233 38.2861 286.887 38.2861C288.839 38.2861 290.184 39.2016 290.261 41.2019H289.085Z" fill="black"/>
<path d="M297.462 41.2019C297.319 39.8552 296.531 39.3063 295.173 39.3063C293.855 39.3063 293.092 39.8685 293.092 40.8489C293.092 41.8949 294.165 42.1169 295.587 42.4176C297.087 42.7316 299 43.2023 299 45.1631C299 47.229 297.177 47.9871 295.419 47.9871C293.221 47.9871 291.606 46.9543 291.606 44.7057H292.782C292.834 46.3921 294.049 46.9807 295.523 46.9807C296.596 46.9807 297.811 46.6014 297.811 45.2808C297.811 44.0781 296.647 43.8429 295.135 43.4899C293.648 43.1497 291.929 42.9015 291.929 40.9403C291.929 39.0315 293.609 38.2861 295.264 38.2861C297.216 38.2861 298.56 39.2016 298.638 41.2019H297.462Z" fill="black"/>
</g>
<defs>
<clipPath id="clip0_2360_86973">
<rect width="299" height="48" fill="white"/>
</clipPath>
</defs>
</svg>
