<svg width="300" height="67" viewBox="0 0 300 67" fill="none" xmlns="http://www.w3.org/2000/svg">
<g clip-path="url(#clip0_2343_86801)">
<path fill-rule="evenodd" clip-rule="evenodd" d="M0.519196 33.5998C0.519196 51.898 16.1705 66.732 35.4774 66.732C54.7841 66.732 70.4358 51.898 70.4358 33.5998C70.4358 15.3015 54.7841 0.467773 35.4774 0.467773C16.1705 0.467773 0.519196 15.3015 0.519196 33.5998ZM35.4782 59.3862C50.5045 59.3862 62.6863 47.8414 62.6863 33.5998C62.6863 19.3582 50.5045 7.81311 35.4782 7.81311C20.4516 7.81311 8.27007 19.3582 8.27007 33.5998C8.27007 47.8414 20.4516 59.3862 35.4782 59.3862Z" fill="#58CEFE"/>
<path fill-rule="evenodd" clip-rule="evenodd" d="M53.3578 33.6C53.3578 24.2409 45.3526 16.6538 35.4776 16.6538C25.6026 16.6538 17.5973 24.2409 17.5973 33.6C17.5973 42.9592 25.6026 50.5463 35.4776 50.5463C45.3526 50.5463 53.3578 42.9592 53.3578 33.6ZM35.477 43.1334C41.0323 43.1334 45.5357 38.8652 45.5357 33.6001C45.5357 28.3351 41.0323 24.0669 35.477 24.0669C29.9217 24.0669 25.4182 28.3351 25.4182 33.6001C25.4182 38.8652 29.9217 43.1334 35.477 43.1334Z" fill="#002552"/>
<path d="M92.7053 41.2806H110.918V36.1125H92.7053V20.6081H114.517V15.44H87.2525V51.6169H92.7053V41.2806ZM126.806 17.7657C126.806 16.0602 125.333 14.6648 123.534 14.6648C121.734 14.6648 120.262 16.0602 120.262 17.7657C120.262 19.4712 121.734 20.8666 123.534 20.8666C125.333 20.8666 126.806 19.4712 126.806 17.7657ZM120.807 25.7763V51.6169H126.26V25.7763H120.807ZM132.516 51.6169H146.149C150.675 51.6169 154.328 48.1543 154.328 43.8647C154.328 39.5752 150.675 36.1125 146.149 36.1125H140.696C139.169 36.1125 137.969 34.9755 137.969 33.5284C137.969 32.0814 139.169 30.9444 140.696 30.9444H151.111V25.7763H140.696C136.17 25.7763 132.516 29.2389 132.516 33.5284C132.516 37.818 136.17 41.2806 140.696 41.2806H146.149C147.675 41.2806 148.875 42.4176 148.875 43.8647C148.875 45.3118 147.675 46.4487 146.149 46.4487H132.516V51.6169ZM160.314 51.6169H165.767V38.1798C165.767 33.8902 169.42 30.4276 173.947 30.4276C178.472 30.4276 182.126 33.8902 182.126 38.1798V51.6169H187.579V38.1798C187.579 31.0478 181.471 25.2595 173.947 25.2595C170.892 25.2595 168.057 26.2414 165.767 27.8435V12.856H160.314V51.6169ZM193.596 12.856V51.6169H199.049V12.856H193.596ZM219.223 52.1337C227.076 52.1337 233.401 46.1386 233.401 38.6966C233.401 31.2545 227.076 25.2595 219.223 25.2595C211.37 25.2595 205.046 31.2545 205.046 38.6966C205.046 46.1386 211.37 52.1337 219.223 52.1337ZM219.223 46.7588C214.37 46.7588 210.498 43.1411 210.498 38.6966C210.498 34.252 214.37 30.6343 219.223 30.6343C224.076 30.6343 227.948 34.252 227.948 38.6966C227.948 43.1411 224.076 46.7588 219.223 46.7588ZM251.92 52.1337C259.772 52.1337 266.098 46.1386 266.098 38.6966C266.098 31.2545 259.772 25.2595 251.92 25.2595C244.068 25.2595 237.742 31.2545 237.742 38.6966C237.742 46.1386 244.068 52.1337 251.92 52.1337ZM251.92 46.7588C247.066 46.7588 243.195 43.1411 243.195 38.6966C243.195 34.252 247.066 30.6343 251.92 30.6343C256.773 30.6343 260.645 34.252 260.645 38.6966C260.645 43.1411 256.773 46.7588 251.92 46.7588ZM285.722 42.3659L295.537 51.6169L299.354 47.9994L289.593 38.6966L299.409 29.3423L295.591 25.7246L277.542 42.7794V12.856H272.089V51.6169H275.907L285.722 42.3659Z" fill="#002552"/>
</g>
<defs>
<clipPath id="clip0_2343_86801">
<rect width="300" height="67" fill="white"/>
</clipPath>
</defs>
</svg>
