<svg width="126" height="50" viewBox="0 0 126 50" fill="none" xmlns="http://www.w3.org/2000/svg">
<path d="M33.0991 16.3973C32.7667 15.2408 32.2997 14.2189 31.6982 13.3317C31.0967 12.4287 30.3606 11.6683 29.49 11.0504C28.6352 10.4167 27.6538 9.93346 26.5458 9.60076C25.4535 9.26806 24.2426 9.10171 22.9129 9.10171C20.4277 9.10171 18.2433 9.71958 16.3596 10.9553C14.4917 12.1911 13.0354 13.9892 11.9907 16.3498C10.946 18.6945 10.4236 21.5621 10.4236 24.9525C10.4236 28.3428 10.9381 31.2262 11.967 33.6027C12.9959 35.9791 14.4522 37.7931 16.3359 39.0447C18.2195 40.2804 20.4436 40.8983 23.0079 40.8983C25.3348 40.8983 27.3214 40.4864 28.9676 39.6625C30.6297 38.8229 31.8961 37.6426 32.7667 36.1217C33.6531 34.6008 34.0963 32.8026 34.0963 30.7272L36.1858 31.0361H23.649V23.289H43.9976V29.4202C43.9976 33.6977 43.0953 37.3733 41.2908 40.4468C39.4862 43.5044 37.001 45.865 33.8352 47.5285C30.6693 49.1762 27.0444 50 22.9604 50C18.4016 50 14.3968 48.994 10.946 46.9819C7.49518 44.9541 4.8042 42.0786 2.87302 38.3555C0.957674 34.6166 0 30.1806 0 25.0475C0 21.1027 0.569855 17.5856 1.70957 14.4962C2.86511 11.391 4.4797 8.76109 6.55334 6.60647C8.62698 4.45184 11.0409 2.8121 13.7952 1.68726C16.5495 0.562421 19.5334 0 22.7467 0C25.501 0 28.0654 0.403993 30.4398 1.21198C32.8142 2.00412 34.9195 3.12896 36.7557 4.5865C38.6077 6.04404 40.1194 7.77883 41.2908 9.79087C42.4621 11.7871 43.214 13.9892 43.5464 16.3973H33.0991Z" fill="white"/>
<path d="M46.4415 9.14924V0.6654H86.3789V9.14924H71.4914V49.3346H61.329V9.14924H46.4415Z" fill="white"/>
<path d="M91.3338 49.3346V41.9202L108.643 25.8793C110.115 24.4534 111.35 23.1702 112.347 22.0295C113.36 20.8888 114.128 19.7719 114.65 18.6787C115.173 17.5697 115.434 16.3736 115.434 15.0903C115.434 13.6644 115.109 12.4366 114.46 11.4068C113.811 10.3612 112.925 9.56115 111.801 9.00665C110.677 8.43631 109.403 8.15114 107.978 8.15114C106.49 8.15114 105.192 8.45216 104.084 9.05418C102.976 9.65621 102.121 10.5196 101.52 11.6445C100.918 12.7693 100.618 14.108 100.618 15.6606H90.8589C90.8589 12.4762 91.5791 9.71166 93.0196 7.36692C94.4601 5.02218 96.4783 3.20818 99.0743 1.9249C101.67 0.641635 104.662 0 108.05 0C111.532 0 114.563 0.617871 117.143 1.85361C119.74 3.07351 121.758 4.7687 123.198 6.93916C124.639 9.10963 125.359 11.597 125.359 14.4011C125.359 16.2389 124.995 18.0529 124.267 19.8432C123.554 21.6334 122.28 23.6217 120.444 25.808C118.608 27.9785 116.02 30.5846 112.68 33.6264L105.58 40.5894V40.9221H126V49.3346H91.3338Z" fill="white"/>
</svg>
