<svg width="19" height="36" viewBox="0 0 19 36" fill="none" xmlns="http://www.w3.org/2000/svg">
<path d="M17.2869 5.92231C16.6336 3.1316 15.0004 0.867199 14.7742 0.5C14.4225 1.01408 13.1159 3.02144 12.4501 5.23687C11.7214 7.72159 11.6209 9.91254 11.8721 12.0668C12.1234 14.2333 13.0531 16.4487 13.0531 16.4487C13.5556 17.6115 14.2968 18.86 14.7868 19.472C15.5029 18.5662 17.1361 15.8734 17.6512 12.3728C17.9276 10.4144 17.9402 8.70079 17.2869 5.92231ZM14.7617 18.7743C14.435 18.1868 13.9451 17.0729 13.8948 15.3349C13.8823 13.6702 14.5732 12.2259 14.7742 11.9321C14.9501 12.2259 15.5406 13.4866 15.616 15.2002C15.6662 16.8649 15.1009 18.1868 14.7617 18.7743ZM17.0859 10.6469C17.0607 11.7118 16.9351 12.8379 16.7592 13.5111C16.822 12.3483 16.6713 10.7204 16.4075 9.44743C16.1311 8.17447 15.3647 6.04471 14.7491 5.06551C14.1838 6.00799 13.4802 7.84399 13.1159 9.43518C12.7516 11.0264 12.739 12.9603 12.739 13.5356C12.6385 13.046 12.3998 11.3079 12.4626 9.55758C12.5254 8.11327 12.8646 6.63223 13.0531 5.94679C13.7818 3.67015 14.5984 2.2136 14.7491 1.98104C14.8999 2.2136 15.9301 4.01287 16.4703 5.88559C17.0105 7.78279 17.111 9.58206 17.0859 10.6469Z" fill="#0079C2"/>
<path d="M15.8806 20.1207H10.9181V23.3643L10.9307 23.3521C12.099 22.2138 13.9961 22.2138 15.1645 23.3521C16.3328 24.4904 16.3328 26.3386 15.1645 27.4769C15.1645 27.4892 15.1519 27.4892 15.1519 27.4892L15.1393 27.5014C13.971 28.6275 12.4508 29.1905 10.9181 29.1905C9.38539 29.1905 7.85268 28.6275 6.68431 27.4892C4.62394 25.4818 4.38524 22.3729 5.95564 20.1085C6.16922 19.8025 6.40792 19.5087 6.68431 19.2394C7.85268 18.1011 9.38539 17.5381 10.9181 17.5381V9.74121C5.02597 9.75345 0.251953 14.3924 0.251953 20.1207C0.251953 25.849 5.02597 30.5002 10.9055 30.5002C13.971 30.5002 16.7349 29.2273 18.6822 27.2077V20.1085H15.8806V20.1207Z" fill="#0079C2"/>
</svg>
