<svg width="200" height="96" viewBox="0 0 200 96" fill="none" xmlns="http://www.w3.org/2000/svg">
<g clip-path="url(#clip0_30576_104306)">
<path d="M61.6779 62.7344H74.3188V66.8828H68.2919V95.9606H61.6779V62.7344Z" fill="#0079C2"/>
<path d="M81.8329 83.5154L82.9678 66.8828H83.3592L84.4941 83.5154H81.8329ZM74.4753 95.9606H81.011L81.6372 87.1551H84.768L85.3942 95.9606H91.8907L88.4077 62.7344H77.9584L74.4753 95.9606Z" fill="#0079C2"/>
<path d="M101.362 84.3373V90.599C101.362 91.46 102.027 91.6948 102.379 91.6948C103.005 91.6948 103.436 91.1861 103.436 90.599V82.8501C103.436 81.8326 103.24 80.6585 100.775 80.6585H98.0742V77.0189H100.892C102.77 77.0189 103.436 76.5884 103.436 74.5534V67.9786C103.436 67.3915 103.005 66.8828 102.379 66.8828C101.988 66.8828 101.362 67.1176 101.362 67.9786V73.3793H94.7085V68.683C94.7085 66.374 94.9824 62.7344 99.6396 62.7344H105.158C109.815 62.7344 110.128 66.374 110.128 68.683V74.0055C110.128 77.6451 107.584 78.6235 105.588 78.5452V78.8583C110.05 78.7409 110.128 82.1848 110.128 83.3589V90.0511C110.128 92.3993 109.815 95.9998 105.158 95.9998H99.6396C94.9824 95.9998 94.7085 92.3993 94.7085 90.0511V84.3764H101.362V84.3373Z" fill="#0079C2"/>
<path d="M114.472 62.7344H129.852V95.9606H123.238V66.8828H121.125V95.9606H114.472V62.7344Z" fill="#0079C2"/>
<path d="M140.889 81.0108V66.8828H141.75C142.454 66.8828 142.963 67.4699 142.963 68.5265V79.328C142.963 80.3847 142.454 80.9717 141.75 80.9717H140.889V81.0108ZM134.236 95.9607H140.889V84.6505H144.685C149.303 84.6505 149.616 81.05 149.616 78.7018V68.6439C149.616 66.3349 149.303 62.6953 144.685 62.6953H134.236V95.9607Z" fill="#0079C2"/>
<path d="M162.726 90.599C162.726 91.1861 162.296 91.6948 161.67 91.6948C161.278 91.6948 160.652 91.46 160.652 90.599V67.9786C160.652 67.1176 161.318 66.8828 161.67 66.8828C162.296 66.8828 162.726 67.3915 162.726 67.9786V90.599ZM153.96 90.0511C153.96 92.3993 154.273 95.9998 158.891 95.9998H164.409C169.027 95.9998 169.34 92.3993 169.34 90.0511V68.683C169.34 66.374 169.027 62.7344 164.409 62.7344H158.891C154.273 62.7344 153.96 66.374 153.96 68.683V90.0511Z" fill="#0079C2"/>
<path d="M190.982 62.7344H199.631V95.9606H193.018V75.1404H192.744L189.339 95.9606H184.016L180.611 75.1404H180.377V95.9606H173.724V62.7344H182.333L186.678 86.1375L190.982 62.7344Z" fill="#0079C2"/>
<path d="M53.0681 17.3371C51.033 8.41419 45.9454 1.17407 45.2409 0C44.1451 1.6437 40.075 8.06197 38.0008 15.1455C35.7309 23.0901 35.4178 30.0954 36.2006 36.9833C36.9833 43.9103 39.8793 50.9939 39.8793 50.9939C41.4447 54.7118 43.7538 58.7036 45.28 60.6604C47.5108 57.7644 52.5984 49.1545 54.203 37.9617C55.064 31.7 55.1031 26.221 53.0681 17.3371ZM45.2018 58.4297C44.1842 56.5512 42.658 52.9898 42.5014 47.4325C42.4623 42.1101 44.6147 37.492 45.2409 36.5528C45.7888 37.492 47.6282 41.523 47.863 47.002C48.0196 52.3245 46.2584 56.5512 45.2018 58.4297ZM52.4419 32.4435C52.3636 35.8483 51.9723 39.4488 51.4244 41.6013C51.62 37.8834 51.1504 32.6784 50.3286 28.6082C49.4676 24.5381 47.0803 17.7285 45.1626 14.5976C43.4015 17.6111 41.2099 23.4814 40.075 28.5691C38.9401 33.6567 38.9009 39.8402 38.9009 41.6796C38.5878 40.1141 37.8443 34.5569 38.0399 28.9605C38.2356 24.3424 39.2923 19.607 39.8793 17.4154C42.1492 10.1362 44.693 5.47901 45.1626 4.73543C45.6323 5.47901 48.8414 11.232 50.5242 17.2197C52.2071 23.2858 52.5202 29.0387 52.4419 32.4435Z" fill="#0079C2"/>
<path d="M48.6849 62.7345H33.2263V73.1055L33.2654 73.0663C36.905 69.4267 42.8145 69.4267 46.4541 73.0663C50.0938 76.7059 50.0938 82.6154 46.4541 86.2551C46.4541 86.2942 46.415 86.2942 46.415 86.2942L46.3759 86.3333C42.7362 89.9338 38.0008 91.7341 33.2263 91.7341C28.4517 91.7341 23.6771 89.9338 20.0375 86.2942C13.6192 79.876 12.8757 69.9355 17.7676 62.6953C18.4329 61.717 19.1765 60.7777 20.0375 59.9167C23.6771 56.2771 28.4517 54.4768 33.2263 54.4768V29.5474C14.8716 29.5865 0 44.419 0 62.7345C0 81.05 14.8716 95.9216 33.1871 95.9216C42.7362 95.9216 51.3461 91.8515 57.4121 85.3941V62.6953H48.6849V62.7345Z" fill="#0079C2"/>
</g>
<defs>
<clipPath id="clip0_30576_104306">
<rect width="200" height="96" fill="white"/>
</clipPath>
</defs>
</svg>
