<svg width="248" height="71" viewBox="0 0 248 71" fill="none" xmlns="http://www.w3.org/2000/svg">
<g clip-path="url(#clip0_30765_157893)">
<mask id="mask0_30765_157893" style="mask-type:luminance" maskUnits="userSpaceOnUse" x="0" y="0" width="248" height="71">
<path d="M248 0H0V71H248V0Z" fill="white"/>
</mask>
<g mask="url(#mask0_30765_157893)">
<path fill-rule="evenodd" clip-rule="evenodd" d="M58.1465 32.2972L56.6782 31.7616L55.8545 31.4665C55.6396 30.242 55.2054 29.0665 54.5726 27.9961L54.8212 27.2197L55.3029 25.7679L53.749 25.8456L52.7002 25.8999C52.3364 25.627 51.952 25.383 51.5503 25.17L51.3948 24.3393L51.123 22.8332L49.7944 23.6484L48.8154 24.2462C48.4503 24.1763 48.0384 24.1142 47.6734 24.0675V24.0132L47.821 22.4604L46.4457 22.8487H46.2981C45.5212 20.9854 43.0893 17.6547 38.5908 19.5335L38.754 19.0522L39.2357 17.6004L37.6819 17.6779H37.4954C37.2933 17.4528 37.0369 17.2276 36.5398 16.7307L36.1979 16.4901L36.0036 16.4202L34.5896 13.7806V13.8349L34.4886 13.5865L33.3621 14.6578L32.5851 15.3954C31.8772 15.2988 31.1612 15.2754 30.4485 15.3256L29.7648 14.6113L28.7005 13.5088L28.0478 14.9141L27.5972 15.8613C26.7196 16.1253 25.8668 16.4655 25.0488 16.8783L23.9377 16.4279L22.516 15.8613V17.4141V18.4466C21.8219 18.9622 21.2023 19.5709 20.6746 20.2555L19.4237 20.3642L17.8698 20.504L18.5613 21.9015L19.2139 23.2058C19.1198 23.5371 19.0471 23.8744 18.9965 24.2151V24.4946L18.002 25.1467L16.72 25.9852L17.9863 26.8936L18.9497 27.5768C18.9937 28.1135 19.0664 28.6473 19.1673 29.1761L18.5924 29.6187L17.3881 30.5581L18.7244 31.3345L19.2139 31.6218C18.8303 32.5764 18.5819 33.5798 18.4759 34.603C18.4346 35.2909 18.4921 35.9812 18.6468 36.6527C18.6872 36.8352 18.7418 37.0144 18.81 37.1885C18.81 37.1885 18.81 37.235 18.81 37.2505C19.0883 37.9262 19.535 38.5195 20.1075 38.9741C19.9676 39.3623 19.8355 39.7505 19.7267 40.0999L18.8721 40.5269L17.5901 41.1634L18.6779 42.1495L19.175 42.5999C19.11 42.953 19.0865 43.3126 19.1052 43.6712L18.2505 44.3233L17.1084 45.1852L18.3515 45.9616L19.4936 46.6603C19.5791 46.9398 19.6878 47.2114 19.7966 47.4367L19.3227 48.6789L18.7633 50.0997H21.5526C21.8322 50.4101 22.1353 50.7052 22.446 50.9925V52.2192V53.772L23.8911 53.1819L24.668 52.8558C25.1648 53.2121 25.6838 53.5362 26.2219 53.8263L26.4862 54.7657L26.8979 56.233L28.141 55.2936L28.7393 54.851C29.2487 54.9804 29.7687 55.0635 30.2932 55.0995L30.8526 55.7905L31.816 56.9784L32.5929 55.6274L33.0668 54.8045H33.1057C33.3698 54.7269 33.634 54.6337 33.8826 54.5327H33.968L34.5042 54.8355L35.8948 55.6585L36.26 53.7797L36.361 53.1274L36.6329 52.8791L38.0005 53.0731L39.4222 53.275L39.0881 51.8543L38.8317 50.7518C39.1503 50.4024 39.36 50.1773 39.4456 50.1773C41.4655 50.0142 45.3192 50.7829 46.5856 46.241L47.3625 46.932L48.5124 47.9413L49.0485 46.4817L49.4292 45.4413C49.841 45.2961 50.2409 45.1197 50.6258 44.9134L51.6435 45.1541L53.1353 45.5113L52.9177 43.9585L52.8244 43.2365L52.9021 43.1665C53.6905 42.3556 54.346 41.4253 54.8445 40.4104L55.6914 40.2007L57.1753 39.8203L56.3441 38.5703L55.8157 37.8329C55.9229 37.3593 56.0007 36.8796 56.0487 36.3966C56.0487 36.3966 56.142 35.3717 56.1186 34.8438V34.5487L57.1054 33.423L58.1465 32.2972ZM29.1743 15.2169H29.1044V15.1781L29.1743 15.2169ZM28.1877 22.3906C30.1963 21.4872 32.4025 21.1105 34.5974 21.2959C34.8615 21.2959 35.1179 21.358 35.3743 21.4046H35.5219H35.5764L35.8716 21.4667L36.1591 21.5444C37.3966 21.8476 38.4833 22.5863 39.2201 23.6251C40.2457 25.1778 39.8728 27.1731 38.4432 28.92C38.7216 28.4223 38.8632 27.86 38.8536 27.29C38.8441 26.72 38.6837 26.1627 38.3889 25.6746C37.006 23.5319 32.9969 23.066 29.423 24.6344C25.849 26.2027 24.0854 29.2228 25.4683 31.3733C26.0652 32.2091 26.9415 32.804 27.939 33.0504C25.849 32.8406 24.1087 32.0255 23.2307 30.6591C21.5758 28.0504 23.7668 24.3238 28.1798 22.3829L28.1877 22.3906ZM44.4567 33.555C44.7054 36.8312 43.2137 39.8825 41.116 40.3794C39.5621 40.752 38.0548 39.5486 37.3244 37.5145L37.2002 39.2302C37.3126 39.4361 37.4063 39.6519 37.4798 39.8746L38.8395 40.9073L37.3401 42.2271C36.5631 43.4383 34.4497 43.4461 32.4919 42.1883C30.3941 40.8296 29.2288 38.5083 29.8892 37.0175C30.0058 36.7572 30.1784 36.5255 30.3945 36.3391C30.6107 36.1527 30.8652 36.0158 31.1401 35.9385L32.5851 34.7195L33.7195 36.0938C33.8684 36.2139 34.0365 36.3085 34.2167 36.3733H34.2555L34.5896 36.5518H34.8926L35.1956 36.7614L37.1768 36.8702C37.1146 36.6527 37.0603 36.4276 37.0137 36.1946V36.1481V36.0627L36.9438 35.6279V35.7365V35.6512V35.5657C36.9476 35.5348 36.9476 35.5035 36.9438 35.4726V35.4339C36.8661 32.3283 38.3189 29.5566 40.3079 29.083C42.2969 28.6094 44.2003 30.3019 44.449 33.5472L44.4567 33.555ZM31.171 29.6731C33.0357 28.8578 35.1335 29.0985 35.8328 30.2165C35.9989 30.4784 36.0827 30.7839 36.0736 31.0938C36.0138 31.5529 35.8469 31.9917 35.5865 32.3747C35.326 32.7577 34.9793 33.0742 34.5741 33.2987C34.3281 33.4678 34.0682 33.6159 33.7972 33.7413C31.9247 34.5177 29.8347 34.3159 29.1355 33.1979C28.4362 32.0799 29.2987 30.4805 31.1633 29.6575L31.171 29.6731ZM42.5145 49.1525C41.926 49.1701 41.3486 48.9896 40.875 48.64C40.9737 48.255 40.9446 47.8485 40.7917 47.4816C40.639 47.1147 40.371 46.8074 40.0282 46.606C40.0282 46.7223 40.0282 46.8388 40.0282 46.9476L39.7951 48.7022C39.7329 48.8807 39.6709 49.0593 39.5932 49.2378C39.2771 49.9285 38.7968 50.5315 38.1943 50.9943C37.5917 51.4571 36.885 51.7657 36.1357 51.8931H36.1435H36.027H35.957H35.856H35.7628H35.6618H35.5841H35.4676H35.3666H35.2034H34.5896C32.1838 51.7997 29.8536 51.0272 27.8691 49.6649C22.9355 46.606 20.2084 41.1713 21.7701 37.6543C21.7849 37.6139 21.8032 37.575 21.8244 37.5378C21.6863 37.7126 21.5076 37.8511 21.3039 37.9415C20.9465 38.1045 19.9054 37.4136 19.346 36.3888C19.2917 36.2801 19.2372 36.1791 19.1907 36.0705V36.0316V35.9152V35.8763V35.8142V35.7133V35.6745V35.6357V35.3484V35.2941V35.2164C19.2119 34.7732 19.3309 34.3402 19.539 33.9484C19.7473 33.5564 20.0395 33.2154 20.395 32.9494C20.8456 32.6233 21.2262 33.9354 21.809 33.9121C23.6813 32.1885 24.6369 33.3919 24.6837 35.0378C24.6837 35.6046 24.0543 35.0921 23.8212 35.5812C23.7847 35.7055 23.7847 35.8375 23.8212 35.9618C24.8943 35.3749 26.1123 35.1057 27.3329 35.1854L27.7292 36.117L28.9413 35.3794C29.7797 35.5511 30.5975 35.8113 31.3808 36.1558C29.05 35.6124 26.9911 36.2413 26.2142 37.9804C25.1032 40.488 27.0533 44.37 30.5728 46.6448C34.0924 48.9195 37.8529 48.7332 38.9716 46.2255C39.3864 45.1486 39.3864 43.9562 38.9716 42.8793C39.6165 43.9892 40.0436 45.2119 40.2302 46.4817C40.8518 45.9538 41.6987 45.5578 41.1548 44.4708C42.4911 44.1293 43.4856 44.6184 43.8508 46.0236C43.7116 45.8826 43.544 45.7722 43.3594 45.7001C43.1746 45.6277 42.9767 45.5953 42.7786 45.6043C42.5415 45.6342 42.3178 45.7312 42.1342 45.8841C41.9505 46.0369 41.8146 46.2391 41.7423 46.4667C41.6701 46.6945 41.6646 46.938 41.7265 47.1687C41.7886 47.3993 41.9153 47.6075 42.0919 47.7684C42.2686 47.9292 42.4876 48.0362 42.7232 48.0766C42.9588 48.117 43.201 48.0891 43.4212 47.9961C43.6414 47.9033 43.8303 47.7493 43.9656 47.5525C44.101 47.3555 44.1771 47.1241 44.1849 46.8854C44.5889 46.8854 45.3503 46.7457 45.3503 46.7845C45.2527 47.4591 44.9076 48.0736 44.3821 48.5082C43.8567 48.943 43.1883 49.1671 42.5067 49.137L42.5145 49.1525ZM45.428 44.2225C43.6877 44.6339 42.0328 43.9042 40.7663 42.3901C41.2049 42.6852 41.6993 42.8877 42.219 42.9851C42.7387 43.0825 43.2728 43.0729 43.7886 42.957C46.8963 42.2581 49.0951 37.957 48.73 33.3609C48.3648 28.7647 45.5756 25.5971 42.5145 26.3035C41.67 26.5124 40.8972 26.9441 40.2768 27.5535C40.7782 26.7335 41.426 26.0124 42.1881 25.4263C42.07 25.4473 41.9506 25.4602 41.8307 25.4651C41.6598 25.4651 41.349 25.5272 41.3878 25.403C41.7064 24.5101 40.7741 23.5629 39.1736 23.1981C42.0948 22.4604 40.6343 20.9388 40.4167 20.4108C40.1991 19.8829 41.2325 19.9217 41.7142 19.9139C42.4444 19.9056 43.1481 20.187 43.6709 20.6965C44.1938 21.2058 44.4932 21.9016 44.5035 22.6312C44.52 23.0031 44.4596 23.3742 44.3259 23.7216C44.1922 24.069 43.9882 24.3851 43.7265 24.6499L43.9984 24.5801C47.4713 23.757 50.6179 27.4915 51.0298 32.9183C51.4415 38.3452 48.8932 43.3918 45.4203 44.207L45.428 44.2225Z" fill="#006FD5"/>
<path fill-rule="evenodd" clip-rule="evenodd" d="M66.8869 34.8664C66.8138 26.7006 63.5751 18.8811 57.8518 13.0519C52.1287 7.22282 44.3667 3.83808 36.1978 3.60934V0.0224609H34.5894V3.63263C26.394 3.82183 18.5937 7.1894 12.8386 13.0229C7.08355 18.8564 3.82509 26.6984 3.75263 34.8897H0V36.4425H3.76817C4.09554 44.4576 7.46342 52.0476 13.1878 57.6713C18.9123 63.2951 26.5642 66.5308 34.5894 66.7213V71.0302H36.1978V66.7136C44.1975 66.4897 51.8139 63.2386 57.5066 57.6178C63.1995 51.9968 66.5438 44.4255 66.8637 36.4347H70.6007V34.8819L66.8869 34.8664ZM61.1609 36.4192H65.2865C64.9715 43.9955 61.7956 51.1713 56.3981 56.5014C51.0007 61.8315 43.7828 64.9202 36.1978 65.1453V60.5801C35.6695 60.5801 35.1179 60.5801 34.5894 60.5801V65.1065C26.9769 64.9234 19.7191 61.853 14.2894 56.518C8.85957 51.183 5.66467 43.9833 5.35313 36.3804H9.78171C9.78171 35.9456 9.78171 35.4254 9.82833 34.8276H5.32982C5.41211 27.0609 8.50878 19.6295 13.9671 14.0998C19.4255 8.57015 26.819 5.3741 34.5894 5.18538V8.88096C34.9935 8.88096 35.5528 8.84215 36.19 8.88096V6.14812V5.22422C43.9392 5.45259 51.299 8.67005 56.7264 14.202C62.1538 19.734 65.227 27.1508 65.3019 34.8975H61.0832C61.122 35.2779 61.1609 35.8136 61.1609 36.3959V36.4192Z" fill="#006FD5"/>
<path d="M89.2551 5.28711H102.696L101.57 8.61778H93.1865V29.9372H89.2551V5.28711Z" fill="#006FD5"/>
<path d="M105.99 5.28711H119.051L117.924 8.61778H109.953V15.7217H117.932V19.0524H109.953V26.6065H119.198V29.9372H105.99V5.28711Z" fill="#006FD5"/>
<path d="M123.394 17.7093C123.394 10.2249 128.522 5.06201 135.708 5.06201C142.895 5.06201 147.984 10.3026 147.984 17.7093C147.984 25.3334 142.74 30.3099 135.708 30.3099C128.677 30.3099 123.394 25.3022 123.394 17.7093ZM143.827 17.7093C143.827 12.1348 140.72 8.3927 135.708 8.3927C130.837 8.3927 127.581 11.9485 127.581 17.7093C127.581 23.47 130.837 26.9793 135.708 26.9793C140.579 26.9793 143.827 23.47 143.827 17.7093Z" fill="#006FD5"/>
<path d="M153.181 5.28711H157.113V15.6829H169.467V5.28711H173.398V29.9372H169.467V19.0135H157.113V29.9372H153.181V5.28711Z" fill="#006FD5"/>
<path d="M186.458 5.17822H189.495L199.301 29.937H195.075L192.636 23.6172H183.467L181.136 29.937H177.018L186.458 5.17822ZM191.399 20.3953L189.38 14.7898C188.704 12.7712 188.33 11.6843 188.067 10.8225H187.997C187.614 12.1673 187.164 13.4914 186.644 14.7898L184.625 20.3953H191.399Z" fill="#006FD5"/>
<path d="M212.136 27.2431C205.625 26.754 201.764 23.5786 201.764 17.5926C201.764 11.6068 205.734 8.31491 212.136 7.83354V4.72803H216.067V7.83354C222.469 8.35372 226.362 11.762 226.362 17.5926C226.362 23.6174 222.477 26.754 216.067 27.2431V30.6126H212.136V27.2431ZM212.136 11.1953C208.096 11.5369 205.773 13.5943 205.773 17.5926C205.773 21.591 207.909 23.5397 212.136 23.8425V11.1953ZM222.352 17.5926C222.352 13.7806 220.255 11.5679 216.067 11.2341V23.8425C220.107 23.5397 222.352 21.7075 222.352 17.5926Z" fill="#006FD5"/>
<path d="M236.238 8.61778H229.089V5.28711H247.992L246.874 8.61778H240.169V29.9372H236.238V8.61778Z" fill="#006FD5"/>
<path d="M88.8126 45.5659H97.5687L96.7452 47.9882H91.5474V58.0346H88.8047L88.8126 45.5659Z" fill="#006FD5"/>
<path d="M99.573 46.0391C101.021 45.5297 102.544 45.2673 104.079 45.2627C108.383 45.2627 110.73 47.7394 110.73 51.7766C110.73 55.6584 108.119 58.3137 104.32 58.3137C103.638 58.3114 102.96 58.1961 102.316 57.9721V64.2995H99.573V46.0391ZM104.134 56.0078C106.62 56.0078 107.91 54.3231 107.91 51.7376C107.91 48.8573 106.356 47.5452 103.978 47.5452C103.416 47.541 102.855 47.6195 102.316 47.7782V55.6119C102.883 55.8821 103.505 56.0175 104.134 56.0078Z" fill="#006FD5"/>
<path d="M120.092 58.6166C118.274 63.6242 116.269 64.2841 114.078 64.2841C113.18 64.2987 112.29 64.1187 111.468 63.7562L112.152 61.5668C112.715 61.8547 113.337 62.0088 113.97 62.0171C115.446 62.0171 116.634 61.0156 117.613 58.011L112.019 45.5889H114.972L118.856 54.82H118.911L122.019 45.5889H124.87L120.092 58.6166Z" fill="#006FD5"/>
<path d="M126.735 45.5659H137.294V58.0346H134.551V47.9882H129.477V58.0346H126.735V45.5659Z" fill="#006FD5"/>
<path d="M140.611 45.5659H151.131V58.0346H148.388V47.9882H143.361V58.0346H140.619L140.611 45.5659Z" fill="#006FD5"/>
<path d="M161.503 56.7691C161.028 57.2547 160.461 57.6419 159.837 57.9083C159.211 58.1748 158.539 58.3154 157.859 58.3219C157.326 58.3559 156.791 58.2779 156.291 58.0928C155.79 57.9076 155.333 57.6196 154.95 57.2472C154.567 56.8749 154.267 56.4265 154.068 55.931C153.869 55.4354 153.776 54.9037 153.795 54.3701C153.767 53.6639 153.949 52.9653 154.32 52.3636C154.692 51.7618 155.234 51.2845 155.878 50.9929C156.883 50.5452 157.972 50.3201 159.072 50.333L161.317 50.2553V49.7119C161.317 48.0814 160.291 47.3827 158.807 47.3827C157.637 47.3975 156.492 47.716 155.482 48.3066L154.534 46.4899C155.963 45.6676 157.585 45.239 159.234 45.2477C162.343 45.2477 164.059 46.6762 164.059 49.7041V54.5021C164 55.685 164.082 56.8707 164.301 58.0347H161.969L161.503 56.7691ZM159.444 52.1807C158.752 52.1633 158.065 52.3097 157.439 52.6078C157.164 52.7596 156.937 52.9855 156.783 53.2599C156.628 53.5343 156.555 53.8463 156.569 54.1606C156.558 54.4251 156.602 54.6892 156.701 54.935C156.8 55.1807 156.951 55.4021 157.143 55.5842C157.336 55.7663 157.565 55.9047 157.816 55.99C158.068 56.0752 158.334 56.1053 158.598 56.0782C159.618 56.0286 160.585 55.609 161.317 54.898V52.0721L159.444 52.1807Z" fill="#006FD5"/>
<path d="M173.662 40.6592H176.436V55.6666H184.244V40.6592H187.01V55.6666H189.2V62.9103H186.505V58.0268H173.662V40.6592Z" fill="#006FD5"/>
<path d="M191.663 45.5659H194.36V51.6295C194.36 52.6309 194.306 53.5004 194.251 54.2691H194.306C194.702 53.6092 195.253 52.7163 195.991 51.6605L200.241 45.5659H202.882V58.0346H200.187V51.971C200.179 51.0925 200.216 50.2141 200.296 49.339H200.217C199.845 49.9679 199.294 50.8918 198.555 51.9478L194.306 58.0346H191.663V45.5659Z" fill="#006FD5"/>
<path d="M211.927 58.2521C207.731 57.8794 205.563 55.1466 205.563 51.7616C205.563 48.3765 207.731 45.6437 211.927 45.2788V39.8984H214.561V45.2788C218.756 45.6437 220.923 48.3844 220.923 51.7616C220.923 55.1389 218.756 57.8794 214.561 58.2521V64.2613H211.927V58.2521ZM211.927 47.5458C210.91 47.6907 209.98 48.1973 209.307 48.9724C208.634 49.7476 208.264 50.7392 208.264 51.7654C208.264 52.7916 208.634 53.7834 209.307 54.5585C209.98 55.3337 210.91 55.8402 211.927 55.9851V47.5458ZM218.213 51.7616C218.264 50.7203 217.911 49.6993 217.226 48.9132C216.54 48.1271 215.576 47.6369 214.537 47.5458V55.9851C215.578 55.8997 216.545 55.4143 217.235 54.6308C217.924 53.8474 218.283 52.8273 218.235 51.7849L218.213 51.7616Z" fill="#006FD5"/>
<path d="M223.557 46.0391C225.006 45.5297 226.528 45.2673 228.063 45.2627C232.368 45.2627 234.714 47.7394 234.714 51.7766C234.714 55.6584 232.103 58.3137 228.304 58.3137C227.622 58.3114 226.944 58.1961 226.299 57.9721V64.2995H223.557V46.0391ZM228.118 56.0078C230.597 56.0078 231.893 54.3231 231.893 51.7376C231.893 48.8573 230.34 47.5452 227.962 47.5452C227.4 47.5403 226.839 47.6188 226.299 47.7782V55.6119C226.868 55.8821 227.489 56.0175 228.118 56.0078Z" fill="#006FD5"/>
<path d="M244.418 56.769C243.943 57.2554 243.377 57.643 242.751 57.9094C242.125 58.1759 241.454 58.316 240.774 58.3218C240.241 58.3557 239.707 58.2778 239.206 58.0926C238.705 57.9075 238.248 57.6194 237.865 57.2471C237.482 56.8747 237.181 56.4264 236.983 55.9308C236.784 55.4353 236.692 54.9036 236.711 54.37C236.684 53.6632 236.868 52.9643 237.24 52.3627C237.613 51.761 238.156 51.2841 238.8 50.9928C239.806 50.5452 240.895 50.32 241.994 50.3329L244.231 50.2552V49.7118C244.231 48.0814 243.207 47.3826 241.73 47.3826C240.56 47.3953 239.413 47.7138 238.404 48.3065L237.449 46.4898C238.867 45.6741 240.475 45.2457 242.111 45.2476C245.218 45.2476 246.944 46.6761 246.944 49.704V54.502C246.883 55.6846 246.961 56.8701 247.176 58.0345H244.846L244.418 56.769ZM242.359 52.1806C241.666 52.164 240.98 52.3104 240.355 52.6076C240.078 52.7595 239.851 52.9854 239.698 53.2598C239.544 53.5342 239.47 53.8462 239.484 54.1604C239.472 54.4258 239.517 54.6906 239.617 54.937C239.715 55.1832 239.867 55.4052 240.06 55.5874C240.254 55.7696 240.485 55.9078 240.737 55.9925C240.989 56.0772 241.255 56.1064 241.521 56.0781C242.539 56.0302 243.503 55.6101 244.231 54.8979V52.072L242.359 52.1806Z" fill="#006FD5"/>
<path fill-rule="evenodd" clip-rule="evenodd" d="M21.8711 33.5866C21.5909 33.5868 21.3173 33.6705 21.0852 33.8271C20.853 33.9836 20.6729 34.2059 20.568 34.4655C20.4631 34.7249 20.4381 35.0098 20.4962 35.2835C20.5543 35.5574 20.693 35.8076 20.8944 36.0021C21.0957 36.1967 21.3507 36.3267 21.6264 36.3755C21.9022 36.4244 22.1863 36.3898 22.4423 36.2764C22.6983 36.1628 22.9145 35.9754 23.0633 35.7383C23.2121 35.5011 23.2866 35.225 23.2773 34.9452C23.2743 34.7638 23.2355 34.5847 23.1632 34.4181C23.0909 34.2517 22.9864 34.101 22.8559 33.9749C22.7253 33.8487 22.5711 33.7494 22.4021 33.6829C22.2331 33.6162 22.0527 33.5835 21.8711 33.5866Z" fill="#006FD5"/>
<path fill-rule="evenodd" clip-rule="evenodd" d="M42.0716 24.3395C42.3641 24.3922 42.6658 24.3532 42.935 24.2276C43.2044 24.1019 43.4281 23.896 43.5755 23.638C43.7229 23.3801 43.7865 23.0828 43.7578 22.7871C43.729 22.4915 43.6092 22.212 43.415 21.9873C43.2207 21.7625 42.9614 21.6034 42.673 21.532C42.3844 21.4604 42.0808 21.4802 41.8041 21.5882C41.5272 21.6963 41.2906 21.8876 41.1271 22.1356C40.9635 22.3836 40.8808 22.6761 40.8905 22.973C40.8691 23.31 40.9808 23.6419 41.2016 23.8975C41.4225 24.1529 41.7348 24.3116 42.0716 24.3395Z" fill="#006FD5"/>
</g>
</g>
<defs>
<clipPath id="clip0_30765_157893">
<rect width="248" height="71" fill="white"/>
</clipPath>
</defs>
</svg>
