<svg width="185" height="95" viewBox="0 0 185 95" fill="none" xmlns="http://www.w3.org/2000/svg">
<path d="M68.462 91.6086C57.73 91.6086 48.9727 82.8513 48.9727 72.1192C48.9727 61.3872 57.73 52.6299 68.462 52.6299C79.1941 52.6299 87.9514 61.3872 87.9514 72.1192C87.9514 82.8513 79.237 91.6086 68.462 91.6086ZM68.462 49.2385C55.8412 49.2385 45.5813 59.4984 45.5813 72.1192C45.5813 84.7401 55.8412 94.9999 68.462 94.9999C81.0829 94.9999 91.3427 84.7401 91.3427 72.1192C91.3427 59.4984 81.0829 49.2385 68.462 49.2385Z" fill="#587640"/>
<path d="M68.462 84.8689C61.4218 84.8689 55.7124 79.1595 55.7124 72.1193C55.7124 65.079 61.4218 59.3696 68.462 59.3696C75.5022 59.3696 81.2117 65.079 81.2117 72.1193C81.2117 79.1166 75.5022 84.8689 68.462 84.8689ZM68.462 55.9783C59.5759 55.9783 52.321 63.2331 52.321 72.1193C52.321 81.0054 59.5759 88.2603 68.462 88.2603C77.3482 88.2603 84.603 81.0054 84.603 72.1193C84.603 63.1902 77.3482 55.9783 68.462 55.9783Z" fill="#587640"/>
<path d="M68.462 62.718C63.2677 62.718 59.0608 66.925 59.0608 72.1193C59.0608 77.2707 63.2677 81.5205 68.462 81.5205C73.6563 81.5205 77.8633 77.3136 77.8633 72.1193C77.8633 66.925 73.6563 62.718 68.462 62.718ZM68.462 66.0664C71.7675 66.0664 74.472 68.7709 74.472 72.0764C74.472 75.3818 71.7675 78.0863 68.462 78.0863C65.1566 78.0863 62.4521 75.3818 62.4521 72.0764C62.4521 68.7709 65.1566 66.0664 68.462 66.0664Z" fill="#587640"/>
<path d="M117.228 16.9566H116.241V13.8657H117.228V16.9566Z" fill="#EC008C"/>
<path d="M159.641 0.0429308H160.715C160.543 0.0429308 160.371 0 160.2 0C159.985 0 159.813 0.0429308 159.641 0.0429308Z" fill="#CD8E3A"/>
<path d="M161.23 39.0217H150.669V34.9865V10.8609V6.86854H161.015H161.23H161.444C170.202 6.99733 177.285 14.1234 177.285 22.9237C177.285 31.8098 170.073 39.0217 161.23 39.0217ZM164.449 0.300527C164.106 0.257599 163.763 0.214676 163.419 0.171748V0.0429688H160.715C160.929 0.0429688 161.144 0.0858864 161.359 0.0858864H160.715H150.669H143.844V6.86854V8.07053V37.7768V38.9788V45.8044H150.669H161.23C161.487 45.8044 161.745 45.7615 162.002 45.7615H163.419V45.6756C163.763 45.6327 164.106 45.5897 164.449 45.5468C175.568 43.9585 184.11 34.4713 184.11 22.9237C184.11 11.4189 175.568 1.88887 164.449 0.300527Z" fill="black"/>
<path d="M161.23 88.1314H150.669V84.0962V59.9706V55.9783H161.015H161.23H161.444C170.202 56.107 177.285 63.2331 177.285 72.0334C177.285 80.9195 170.073 88.1314 161.23 88.1314ZM164.449 49.4532C163.548 49.3244 162.646 49.2385 161.745 49.2385H160.672H150.627H143.844V56.0641V57.2661V86.9724V88.1744V94.957H150.669H161.23C162.346 94.957 163.419 94.8712 164.449 94.6995C175.568 93.1111 184.11 83.624 184.11 72.0763C184.11 60.5286 175.568 50.9986 164.449 49.4532Z" fill="black"/>
<path d="M117.572 91.6086C106.84 91.6086 98.0825 82.8513 98.0825 72.1192C98.0825 61.3872 106.84 52.6299 117.572 52.6299C128.304 52.6299 137.061 61.3872 137.061 72.1192C137.104 82.8513 128.347 91.6086 117.572 91.6086ZM117.572 49.2385C104.951 49.2385 94.6911 59.4984 94.6911 72.1192C94.6911 84.7401 104.951 94.9999 117.572 94.9999C130.193 94.9999 140.453 84.7401 140.453 72.1192C140.453 59.4984 130.193 49.2385 117.572 49.2385Z" fill="#CD8E3A"/>
<path d="M117.572 84.8689C110.532 84.8689 104.822 79.1595 104.822 72.1193C104.822 65.079 110.532 59.3696 117.572 59.3696C124.612 59.3696 130.321 65.079 130.321 72.1193C130.364 79.1166 124.612 84.8689 117.572 84.8689ZM117.572 55.9783C108.686 55.9783 101.431 63.2331 101.431 72.1193C101.431 81.0054 108.686 88.2603 117.572 88.2603C126.458 88.2603 133.713 81.0054 133.713 72.1193C133.713 63.1902 126.501 55.9783 117.572 55.9783Z" fill="#CD8E3A"/>
<path d="M117.572 62.718C112.378 62.718 108.171 66.925 108.171 72.1193C108.171 77.2707 112.378 81.5205 117.572 81.5205C122.766 81.5205 126.973 77.3136 126.973 72.1193C126.973 66.925 122.766 62.718 117.572 62.718ZM117.572 66.0664C120.877 66.0664 123.582 68.7709 123.582 72.0764C123.582 75.3818 120.877 78.0863 117.572 78.0863C114.266 78.0863 111.562 75.3818 111.562 72.0764C111.562 68.7709 114.266 66.0664 117.572 66.0664Z" fill="#CD8E3A"/>
<path d="M117.572 42.456C106.84 42.456 98.0825 33.6987 98.0825 22.9667C98.0825 12.2346 106.84 3.47727 117.572 3.47727C128.304 3.47727 137.061 12.2346 137.061 22.9667C137.104 33.6987 128.347 42.456 117.572 42.456ZM117.572 0.0859375C104.951 0.0859375 94.6911 10.3458 94.6911 22.9667C94.6911 35.5875 104.951 45.8474 117.572 45.8474C130.193 45.8474 140.453 35.5875 140.453 22.9667C140.453 10.3458 130.193 0.0859375 117.572 0.0859375Z" fill="#587640"/>
<path d="M117.572 35.7161C110.532 35.7161 104.822 30.0066 104.822 22.9664C104.822 15.9262 110.532 10.2168 117.572 10.2168C124.612 10.2168 130.321 15.9262 130.321 22.9664C130.364 29.9637 124.612 35.7161 117.572 35.7161ZM117.572 6.82544C108.686 6.82544 101.431 14.0803 101.431 22.9664C101.431 31.8526 108.686 39.1074 117.572 39.1074C126.458 39.1074 133.713 31.8955 133.713 22.9664C133.713 14.0374 126.501 6.82544 117.572 6.82544Z" fill="#587640"/>
<path d="M117.572 13.5654C112.378 13.5654 108.171 17.7724 108.171 22.9667C108.171 28.161 112.378 32.368 117.572 32.368C122.766 32.368 126.973 28.161 126.973 22.9667C126.973 17.7724 122.766 13.5654 117.572 13.5654ZM117.572 16.9568C120.877 16.9568 123.582 19.6612 123.582 22.9667C123.582 26.2722 120.877 28.9766 117.572 28.9766C114.266 28.9766 111.562 26.2722 111.562 22.9667C111.562 19.6183 114.266 16.9568 117.572 16.9568Z" fill="#587640"/>
<path d="M68.462 42.499C57.73 42.499 48.9727 33.7417 48.9727 23.0096C48.9727 18.7168 50.3893 14.7674 52.7503 11.5478L55.5836 13.3508C53.566 16.0553 52.364 19.3607 52.364 23.0096C52.364 31.8957 59.5759 39.1506 68.505 39.1506C77.3911 39.1506 84.646 31.9387 84.646 23.0096C84.646 14.1235 77.3911 6.86863 68.505 6.86863C66.0151 6.86863 63.697 7.42669 61.5935 8.45697L60.2198 5.40908C62.7526 4.20709 65.5429 3.52023 68.505 3.52023C79.237 3.52023 87.9944 12.2776 87.9944 23.0096C87.9514 33.7417 79.237 42.499 68.462 42.499ZM61.2501 16.9997C59.8764 18.6309 59.0608 20.7344 59.0608 23.0096C59.0608 28.2039 63.2677 32.4109 68.462 32.4109C73.6564 32.4109 77.8633 28.2039 77.8633 23.0096C77.8633 17.8582 73.6564 13.6083 68.462 13.6083C66.9596 13.6083 65.5859 13.9518 64.3409 14.5957L62.9672 11.5049C64.6414 10.6892 66.4874 10.217 68.462 10.217C75.5023 10.217 81.2117 15.9265 81.2117 22.9667C81.2117 30.0069 75.5023 35.7163 68.462 35.7163C61.4218 35.7163 55.7124 30.0069 55.7124 22.9667C55.7124 20.0046 56.7427 17.3002 58.4169 15.1538L61.2501 16.9997ZM67.1313 20.7774L65.7576 17.6865C66.5732 17.2572 67.5176 16.9997 68.505 16.9997C71.8104 16.9997 74.5149 19.7042 74.5149 23.0096C74.5149 26.3151 71.8104 29.0196 68.505 29.0196C65.1995 29.0196 62.495 26.3151 62.495 23.0096C62.495 21.4213 63.139 19.9617 64.1692 18.8456L67.1313 20.7774ZM68.462 0.128906C65.0278 0.128906 61.7223 0.901616 58.8032 2.31824C58.0734 2.66167 57.3437 3.04803 56.6139 3.47731L58.2881 6.39642L59.9623 9.31553L61.6365 12.2347L63.3107 15.1538L64.9849 18.0729L65.6288 19.189L64.6414 18.3734L61.9799 16.184L59.3613 14.0376L56.7427 11.8912L54.124 9.74481L51.5054 7.5984C50.9044 8.28525 50.3034 8.97211 49.7883 9.70189C47.0838 13.4366 45.4955 18.03 45.4955 23.0096C45.4955 35.6305 55.7553 45.8903 68.3762 45.8903C80.9971 45.8903 91.2569 35.6305 91.2569 23.0096C91.3428 10.3887 81.0829 0.128906 68.462 0.128906Z" fill="#CD8E3A"/>
<path d="M38.6699 49.2385L34.5059 80.5332L26.2637 56.0212H19.3952L11.153 80.5332L6.98893 49.2385H0.120422L6.21622 94.957H6.30208H13.0847H13.1706L22.8294 66.2381L32.4883 94.957H32.5741H39.3568H39.4426L45.5384 49.2385H38.6699Z" fill="black"/>
<path d="M24.1602 45.7184C23.645 45.7184 23.3445 45.7184 23.3445 45.7184H24.6753C25.2763 45.7184 25.8773 45.6755 26.4354 45.6326C25.448 45.6755 24.6753 45.7184 24.1602 45.7184Z" fill="black"/>
<path d="M42.2329 20.6913V20.4766H42.19H39.829H39.6143H36.3518H35.4503H23.688H22.8294V27.3022H35.4503V29.0623H35.4074V30.0496H35.4503V33.8273V35.4156C33.7761 36.6176 31.8872 37.5191 29.8267 38.1201C29.2257 38.2918 28.6247 38.4206 28.0237 38.5494C27.7232 38.5923 27.4656 38.6353 27.1652 38.6782C26.2637 38.807 25.3622 38.8928 24.4178 38.8928C22.9582 38.8928 21.4986 38.7211 20.1249 38.4206C19.8674 38.3777 19.6098 38.2918 19.3522 38.2489C18.9659 38.1631 18.5795 38.0343 18.1932 37.9055C17.4205 37.6479 16.6907 37.3474 15.9609 37.004C15.7892 36.9181 15.5746 36.8323 15.4028 36.7464C15.0165 36.5318 14.5872 36.3171 14.2009 36.1025C10.3802 33.6556 7.7187 29.7062 7.1177 25.1558C7.03185 24.5978 6.90306 23.9968 6.86014 23.4387C6.86014 23.267 6.81721 23.0953 6.81721 22.9236C6.81721 14.0804 14.8018 6.91136 24.5895 6.91136C28.6676 6.91136 32.4024 8.15627 35.4074 10.2597C36.5235 11.0325 37.5108 11.934 38.4123 12.9213L39.3997 11.2471L41.9754 6.82549C41.9754 6.82549 41.5032 6.39621 40.6875 5.70936C38.6699 4.12102 34.3342 1.28777 28.4101 0.429202L28.2384 0.386272C27.8949 0.343343 27.5515 0.300421 27.2081 0.257492L26.8217 0.214562C26.5212 0.171633 26.2207 0.171631 25.9202 0.171631H25.6627C25.2334 0.171631 24.847 0.171631 24.4178 0.171631C23.9026 0.171631 23.3445 0.214564 22.8294 0.257492C19.7386 0.472133 16.3902 1.28777 12.8272 3.00489C11.5822 3.64881 10.4232 4.3786 9.30704 5.19423C9.0924 5.36594 8.87776 5.53765 8.66312 5.70936C8.40555 5.924 8.10505 6.13864 7.84748 6.39621C6.90306 7.21185 5.95864 8.19919 5.01422 9.31532L4.84251 9.52996C4.54201 9.91632 4.19859 10.3456 3.89809 10.8178C3.72638 11.0324 3.5976 11.29 3.42588 11.5047C3.21124 11.8481 2.9966 12.1915 2.78196 12.5779C2.56732 12.9642 2.35268 13.3935 2.13804 13.8228C2.00926 14.0803 1.9234 14.295 1.83754 14.5526C1.6229 14.9818 1.45119 15.4541 1.27948 15.9263C1.19362 16.1838 1.10776 16.4414 1.02191 16.699C0.893124 17.1712 0.764339 17.6434 0.635554 18.1156C0.592626 18.3732 0.506769 18.6307 0.463841 18.8883C0.335057 19.4464 0.249202 20.0044 0.163345 20.6054V20.7342C0.0345609 22.0221 -0.0512968 23.3958 0.0345596 24.8553C0.0345596 24.8553 0.0345582 25.2417 0.120415 25.8427C0.592624 29.9638 3.72638 45.375 23.2587 45.8472H24.5895C25.1905 45.8472 25.7915 45.8043 26.3495 45.7613C29.054 45.5467 33.1322 44.774 37.2103 42.5846C37.3821 42.4988 37.5108 42.4129 37.6825 42.3271C38.026 42.1554 38.3265 41.9407 38.6699 41.7261C39.0133 41.5114 39.3567 41.2539 39.7002 41.0392C39.9148 40.8675 40.1295 40.7387 40.3441 40.567C40.6875 40.3095 41.0309 40.009 41.3314 39.7514C41.5032 39.6226 41.6749 39.4938 41.8466 39.3221L42.2329 38.9787V31.595V25.7139V24.8553V20.863V20.6913Z" fill="black"/>
</svg>
