<svg width="250" height="58" viewBox="0 0 250 58" fill="none" xmlns="http://www.w3.org/2000/svg">
<path d="M87.6925 46.6853V34.9811C87.6925 33.4157 87.6925 31.625 87.8569 30.2376L76.7515 46.6853H69.7079V18.0352H77.2093V29.7396C77.2093 31.3286 77.2093 33.131 77.045 34.483L88.0447 18.0352H95.0883V46.6853H87.6925Z" fill="white"/>
<path d="M126.608 18.0352V46.6853H119.107V35.7519H108.577V46.6853H101.075V18.0352H108.577V29.0043H119.107V18.0352H126.608Z" fill="white"/>
<path d="M146.6 40.1391C148.338 40.1391 149.805 39.6411 149.805 37.4354C149.805 35.2297 148.338 34.7317 146.6 34.7317H139.991V40.1391H146.6ZM146.741 28.1739C152.494 28.1739 157.564 30.2729 157.564 37.4354C157.564 44.5979 152.494 46.685 146.741 46.685H132.49V18.0229H155.111V24.7824H139.991V28.1739H146.741Z" fill="white"/>
<path d="M169.715 36.0365H177.005L174.093 27.7356C173.745 26.7972 173.502 25.8228 173.366 24.8303C173.221 25.8222 172.974 26.7962 172.627 27.7356L169.715 36.0365ZM158.163 46.7093L169.303 18.0591H177.416L188.556 46.7093H180.855L179.235 42.203H167.497L165.877 46.7093H158.163Z" fill="white"/>
<path d="M216.79 18.0352V46.6853H209.288V35.7519H198.758V46.6853H191.256V18.0352H198.758V29.0043H209.288V18.0352H216.79Z" fill="white"/>
<path d="M222.683 46.6853V18.0352H230.172V29.0043H233.741L241.29 18.0352H249.588L239.576 32.1113L250 46.6853H241.689L233.706 35.7519H230.172V46.6853H222.683Z" fill="white"/>
<path d="M40.9232 29.0043C40.9232 26.5651 40.207 24.1805 38.8655 22.1525C37.5239 20.1243 35.6172 18.5435 33.3864 17.6102C31.1555 16.6767 28.7006 16.4325 26.3325 16.9084C23.9642 17.3841 21.7887 18.5588 20.0812 20.2835C18.3738 22.0084 17.211 24.2059 16.7399 26.5982C16.2689 28.9906 16.5107 31.4702 17.4348 33.7238C18.3588 35.9773 19.9236 37.9035 21.9314 39.2587C23.939 40.6138 26.2995 41.3371 28.7142 41.3371C31.9523 41.3371 35.0576 40.0377 37.3473 37.7249C39.6367 35.4121 40.9232 32.275 40.9232 29.0043Z" fill="#106E53"/>
<path d="M8.48743 8.41786L14.3571 14.3471C18.188 10.5177 23.3599 8.36972 28.7494 8.36972C34.139 8.36972 39.3108 10.5177 43.1418 14.3471L49.0114 8.41786C43.6329 3.0258 36.3624 0 28.7846 0C21.207 0 13.9364 3.0258 8.55785 8.41786" fill="#B91C6B"/>
<path d="M28.7143 49.6738C26.0242 49.6785 23.3598 49.1473 20.8732 48.1107C18.3866 47.074 16.1268 45.5522 14.223 43.6325C12.3193 41.7127 10.8089 39.4325 9.77841 36.9225C8.74793 34.4124 8.2175 31.7217 8.2175 29.0044H0C0 36.6972 3.02524 44.0751 8.41023 49.5147C13.7952 54.9544 21.0988 58.0103 28.7143 58.0103C36.3299 58.0103 43.6334 54.9544 49.0184 49.5147C54.4034 44.0751 57.4287 36.6972 57.4287 29.0044H49.2111C49.2096 31.7212 48.678 34.4112 47.6471 36.9206C46.616 39.4299 45.1056 41.7094 43.2021 43.6289C41.2988 45.5484 39.0395 47.0703 36.5537 48.1075C34.0677 49.1447 31.404 49.677 28.7143 49.6738Z" fill="#106E53"/>
</svg>
