<svg id="bird" xmlns="http://www.w3.org/2000/svg" viewBox="0 0 240 56"><style>.blue{fill:#56b3e5}.darkgrey{fill:#464648}.white{fill:#fff}.lightgrey{fill:#bcbec0}.red{fill:#ef413d}</style><path class="blue" d="M215.3 53.8l.2-1.2c-.3-.2-.5-.5-.4-.9.1-.4.4-.6.7-.7l.2-1.2c-.3-.2-.5-.5-.4-.9.1-.4.4-.6.7-.7l.2-1.2c-.3-.2-.5-.5-.4-.9.1-.4.4-.6.7-.7l.2-1.2c-.3-.2-.5-.5-.4-.9.1-.4.4-.6.7-.7l.2-1.2c-.3-.2-.5-.5-.4-.9v-.1l-20.8-3.8-2.5 14 20.8 3.8c.1-.4.4-.6.7-.6M226.5 42l-7.7-1.4v.1c-.1.4-.4.7-.8.7l-.2 1.2c.3.2.5.5.5.9-.1.4-.4.7-.8.7l-.2 1.2c.3.2.6.5.5.9-.1.4-.4.7-.8.7l-.2 1.2c.3.2.5.5.5.9-.1.4-.4.7-.8.7l-.2 1.2c.3.2.6.5.5.9-.1.4-.4.7-.8.7l-.2 1.2c.3.1.5.4.5.7l7.7 1.4 2.5-13.9z"/><path class="darkgrey" d="M211.8 38s-.2 0-.4-.1l3.5-1.4c-.8-.2-1.6-.5-2.3-.8l-3.8 1.5c-1.6-.4-3.4-.7-4.2-.7-1.6 0-2.2 1.3-2.2 2.2 0 .4.3.8.8.8.4 0 .8-.3.8-.8 0-.2.1-.6.6-.6v1.1c0 .4.3.8.8.8.4 0 .8-.3.8-.8v-.8l6.5 1.1c-.1 0 .2-1.2-.9-1.5z"/><path class="white" d="M207.3 7.2c.6-.4 1.6.1 1.6.9.1.8-.9 1.4-1.6.9-.7-.3-.7-1.4 0-1.8"/><path class="darkgrey" d="M207.1 4.8c2.6-1.4 5.9-1.3 8.3.2 1.4.8 2.5 2.2 3.4 3.5.8 1.1 1.6 2.2 2.3 3.4-.4.6-.9 1.3-1.3 1.9 1.4-.9 2.8-2 4.2-2.8 2.9-1.8 5.9-3.5 8.9-5.3-.2.5 0 1-.1 1.5 0 3.6.1 7.1 0 10.7.1 2.9 0 5.8.1 8.8-1.4 1.6-3 3-4.5 4.5l3-1.8c2.1 3.4 4 6.8 6.2 10.2.8 1.3 1.7 2.6 2.5 4h-8.4c-1.3-2.1-2.7-4.2-3.9-6.3-1.5-2.7-3.1-5.4-4.6-8-3.4-6-6.9-11.9-10.3-17.9-.4-.6-.7-1.2-1.2-1.7s-1-.8-1.7-1.1c-.1.6-.4 1.1-.9 1.4-.8.6-2 .5-2.7-.2-.4-.3-.5-.8-.7-1.2-1.6.8-2.8 2.4-3 4.1 0-.2 0-.5-.2-.6-.8-1.1-1.6-2.1-2.4-3.2 2.3-1.4 4.6-2.8 7-4.1m.2 2.4c-.7.3-.7 1.4 0 1.8.7.4 1.7-.1 1.6-.9 0-.8-1-1.3-1.6-.9m-12.8 9.1h7.2c.3 1.3.7 2.7 1 4 0 2.2.3 4.4 1 6.5-3.1-3.5-6.2-7-9.2-10.5"/><path class="lightgrey" d="M232.9 5.7c1-.7 2.1-1.3 3.2-1.8v15c0 1.8-.4 3.6-1.2 5.1-.4.8-1 1.5-1.5 2.2-.1.2-.2.3-.4.4-.1-2.9 0-5.8-.1-8.8 0-3.6-.1-7.1 0-10.7-.1-.4-.2-1 0-1.4m-42.7 10.6c1.4.1 2.8-.1 4.2-.1l.1.1c3.1 3.5 6.1 7 9.2 10.5.7 2.1 1.9 4 3.4 5.5-2-.3-3.9-1.3-5.5-2.5-2-1.5-3.5-3.5-5.1-5.5-2-2.4-3.9-4.9-5.7-7.4-.3-.1-.5-.3-.6-.6"/><path class="red" d="M209.9 8.4c.6.3 1.2.6 1.7 1.1.5.5.9 1.1 1.2 1.7 3.4 6 6.9 11.9 10.3 17.9 1.5 2.7 3.1 5.3 4.6 8h-7.9c-1.5 0-3.1-.2-4.6-.6-3-.7-5.9-2.1-8.2-4.3-1.5-1.6-2.7-3.4-3.4-5.5-.7-2.1-1-4.3-1-6.5v-7.7c.2-1.8 1.4-3.4 3-4.1.1.4.3.9.7 1.2.7.7 1.9.8 2.7.2.5-.3.8-.9.9-1.4z"/><path class="darkgrey" d="M223.9 33.4c-.4-.2-.9-.1-1.1.3l-3.4 5.6c-1.6-.3-3.3-.7-4-.7-1.6 0-2.2 1.3-2.2 2.2 0 .4.3.8.8.8.4 0 .8-.3.8-.8 0-.2.1-.6.6-.6v1.1c0 .4.3.8.8.8.4 0 .8-.3.8-.8v-.8l6.5 1.1s.3-1.2-.8-1.5c-.1 0-.7-.2-1.6-.4l3.1-5.1c.2-.5.1-1-.3-1.2"/><path class="white" d="M200.8 41.7c.6-.2 1.3-.3 1.8 0 .4.2.5.6.6 1 .3-.3.7-.6 1.1-.7.4-.1.9.1 1.2.4-.1.5-.3 1-.6 1.4-.4-.1-.7-.3-1.1-.2-.4.1-.7.6-.7 1-.3 1.3-.5 2.6-.8 3.9-.6 0-1.2-.1-1.8-.3.3-1.6.6-3.3.9-4.9.1-.3-.2-.4-.4-.5-.1-.4-.2-.7-.2-1.1m5 .9c.7-.2 1.5-.3 2.1.1.5.3.6.9.6 1.4l-.6 3c-.1.4 0 .9.3 1.2.3.3.8.2 1.1.1.4-1.7.7-3.4 1-5.1.6 0 1.3.1 1.9.3-.3 1.5-.6 3-.9 4.4-.1.3-.1.5-.1.8h.5c.1.3.3.6.3 1-.7.8-2.1.6-2.6-.4-1.3.9-3.2-.1-3.4-1.6-.2-1.2.4-2.5.5-3.7 0-.3-.3-.3-.5-.3 0-.4-.1-.8-.2-1.2m-6 4.3c0 .6-.5 1-1 1-.6 0-1-.4-1-1s.5-1 1-1 1 .5 1 1"/><path class="darkgrey" d="M1.7 21.5c0-.7-.8-1.1-1.6-1.1 0 0-.1-.6-.1-1.3 0-.6 0-1.3.3-1.8 1.6-.6 3.3-.7 4.6-.7 1.2 0 2 .1 2 .1v23.6c0 .8.8 1.1 1.6 1.1 0 0 .1.6.1 1.3 0 .7-.1 1.4-.4 1.9-1.4.5-2.7.6-3.6.6-1.4 0-3-.5-3-.5V21.5zm18 6.3c-.8-1.4-1.4-3.3-1.4-3.3s.4 1.8.4 3.5l.1 16.5c-1.1.3-2.3.4-3.2.4-1 0-1.6-.1-1.6-.1V21.5c0-.7-.8-1.1-1.6-1.1 0 0-.1-.6-.1-1.3 0-.6 0-1.3.3-1.8 1.6-.6 3.1-.7 4.1-.7 1 0 1.6.1 1.6.1l10.2 16.5c1.1 1.8 1.7 3.6 1.7 3.6s-.4-1.8-.4-3.8l-.1-15.9c1.1-.3 2.2-.4 3-.4 1 0 1.6.1 1.6.1v27.7c-2.3.6-4.1.4-4.1.4L19.7 27.8zM46 21h-8.9s-.1-2.8.5-4.2h22.7s.1 2.8-.5 4.2h-8.4v23.6c-1.3.4-2.3.5-3 .5-.9 0-2.4-.2-2.4-.2V21zm17.8.5c0-.7-.8-1.1-1.6-1.1 0 0-.1-.6-.1-1.3 0-.6 0-1.3.3-1.8 1.6-.6 3.3-.7 4.6-.7 1.2 0 2 .1 2 .1v23.6c0 .8.8 1.1 1.6 1.1 0 0 .1.6.1 1.3 0 .7-.1 1.4-.4 1.9-1.4.5-2.7.6-3.6.6-1.4 0-3.1-.5-3.1-.5V21.5zm23.3 23.6c-6.6 0-12.9-4.8-12.9-14.6 0-10.2 6.9-14.2 12.6-14.2 6.1 0 9.3 3.3 9.5 3.5 0 1.7 0 3.2-.4 5.1-.6.1-1.3.1-1.9.1-1.2 0-2.2-.1-2.2-.1 0-3.3-2.4-4.4-5-4.4-4.4 0-7.1 4.2-7.1 10s2.6 10.3 7.5 10.3c4.1 0 5.5-3.8 5.5-3.8 2.3 0 4.6 1.3 4.6 1.3-.7 2.6-3.9 6.8-10.2 6.8m20.4-11.4l-.6.9v10c-1.4.4-2.3.5-3 .5-.7 0-2.3-.1-2.3-.1V21.5c0-.7-.8-1.1-1.6-1.1 0 0-.1-.6-.1-1.3 0-.6 0-1.3.3-1.8 1.6-.6 3.3-.7 4.6-.7 1.2 0 2 .1 2 .1v8.4c0 .9-.3 3.3-.3 3.3 2.1-4.6 6.9-10.3 12.4-12.3 1.5 1.7 1.6 3.8 1.6 3.8-5.1 2.1-8.3 6-10.5 9.6l8.4 10.7c.6.8 2.2 1.1 3 1.1 0 0 .1.6.1 1.3 0 .7-.1 1.4-.4 1.9-1 .3-2 .5-2.9.5-.8 0-1.5-.1-2.3-.4l-8.4-10.9zm17.2 11.1V21.5c0-.7-.8-1.1-1.6-1.1 0 0-.1-.6-.1-1.3 0-.6 0-1.3.3-1.8 1.2-.4 2.6-.5 3.6-.5h15.3s.1 2.7-.5 4.1H130v7.3h10.2s.1 2.7-.5 4.1H130v8.4h12.8s.1 2.7-.5 4.1h-17.6zm28-23.8h-8.9s-.1-2.8.5-4.2H167s.1 2.8-.5 4.2h-8.4v23.6c-1.3.4-2.3.5-3 .5-.9 0-2.4-.2-2.4-.2V21zm20.9 10.4c-3.5-1.6-6.1-4.2-6.1-7.7 0-3.6 2.6-7.5 8.8-7.5 4.5 0 7.5 2.2 7.8 2.4v1.9c0 1.1 0 2.2-.3 3.3-.5.1-.9.1-1.3.1-1.5 0-2.8-.3-2.8-.3 0-.6-.1-1.2-.4-1.7-.5-1-1.5-1.6-2.7-1.6-2.1 0-3.7 1.3-3.7 3.1 0 1.7 1.1 2.6 2.6 3.3l3.5 1.5c5.1 2.3 6.8 5.1 6.8 8.9 0 3.8-3.6 7.9-9.5 7.9-5.8 0-8.6-3.6-9.6-6.3 1.5-1.4 3.9-2 3.9-2 .6 1.2 2.3 4.1 5.4 4.1 3 0 4.1-1.8 4.1-3.7 0-2.1-1-3.3-3.8-4.6l-2.7-1.1z"/></svg>