<svg width="206" height="56" viewBox="0 0 206 56" fill="none" xmlns="http://www.w3.org/2000/svg">
<g clip-path="url(#clip0_30227_55653)">
<mask id="mask0_30227_55653" style="mask-type:luminance" maskUnits="userSpaceOnUse" x="0" y="0" width="206" height="56">
<path d="M205.423 0H0.295471V56H205.423V0Z" fill="white"/>
</mask>
<g mask="url(#mask0_30227_55653)">
<path d="M53.9743 24.6254H69.1014V55.6252H80.1798V24.6254H95.591V14.708H53.9743V24.6254Z" fill="#1D1D1B"/>
<path d="M50.3942 14.624H39.2159V55.6254H50.3942V14.624Z" fill="#1D1D1B"/>
<path d="M0.295471 14.624V55.6254H11.4738V14.624H0.295471Z" fill="#1D1D1B"/>
<path d="M28.3294 14.624L11.4736 55.6254H22.9976L39.208 14.624H34.7598H28.3294Z" fill="#1D1D1B"/>
<path d="M148.372 14.624H146.888H140.45L129.357 41.6139L118.263 14.624H111.833H107.384H99.1637V55.6254H110.342V22.108L123.595 55.6254H135.119L148.372 22.108V55.6254H159.55V14.624H151.329H148.372Z" fill="#1D1D1B"/>
<path d="M44.8012 0.000263671C43.7209 0.0213694 42.6708 0.359859 41.7828 0.97325C40.8948 1.58664 40.2086 2.44761 39.81 3.4481C39.4115 4.44859 39.3186 5.54403 39.5428 6.59695C39.7671 7.64987 40.2986 8.61336 41.0706 9.36653C41.8427 10.1196 42.8208 10.6289 43.8823 10.8302C44.9439 11.0317 46.0414 10.9163 47.0374 10.4987C48.0333 10.081 48.8833 9.37957 49.4805 8.48255C50.0776 7.5855 50.3955 6.53275 50.3942 5.4564C50.3781 3.99442 49.7799 2.59862 48.7312 1.5756C47.6825 0.552574 46.2691 -0.0140204 44.8012 0.000263671Z" fill="#1D1D1B"/>
<path d="M194.582 35.6998C194.436 42.0053 190.196 46.237 184.042 46.237H183.811C180.5 46.1758 177.773 45.1121 175.921 43.1761C174.069 41.2401 173.117 38.378 173.178 34.9804C173.106 33.5643 173.337 32.1491 173.854 30.8283C174.373 29.5076 175.166 28.3114 176.183 27.3189C177.2 26.3265 178.416 25.5603 179.752 25.0711C181.089 24.582 182.514 24.3809 183.934 24.4814C185.349 24.4317 186.761 24.6692 188.081 25.1796C189.402 25.69 190.605 26.4626 191.617 27.4505C192.641 28.5619 193.431 29.8667 193.939 31.2877C194.447 32.7087 194.663 34.2168 194.575 35.7227L194.582 35.6998ZM195.45 17.4948C192.029 15.5253 188.139 14.5053 184.188 14.5409C183.161 14.5434 182.135 14.6022 181.114 14.7169C175.114 15.3751 170.29 17.8697 166.771 22.1321C163.467 26.1343 162.038 31.0165 162.407 37.0389C162.545 41.2096 164.042 45.2224 166.671 48.4715C170.896 53.6139 176.659 56.0703 184.887 56.2004H184.979H185.071L186.139 56.0627C187.573 55.9032 188.995 55.6476 190.395 55.2974C194.592 54.253 198.342 51.8922 201.089 48.5634C203.763 45.2064 205.272 41.0771 205.392 36.794C205.753 28.0167 202.411 21.4893 195.458 17.4948" fill="#1D1D1B"/>
</g>
</g>
<defs>
<clipPath id="clip0_30227_55653">
<rect width="206" height="56" fill="white"/>
</clipPath>
</defs>
</svg>
