<svg width="71" height="79" viewBox="0 0 71 79" fill="none" xmlns="http://www.w3.org/2000/svg">
<path fill-rule="evenodd" clip-rule="evenodd" d="M0 4.7031V39.3889C3.33755 39.3145 20.7557 34.1062 25.8307 32.9222C25.6196 30.3802 23.6523 27.4445 22.179 25.997C19.7945 23.6544 17.6118 23.8981 17.6118 19.4006C17.6118 14.4648 22.1048 14.2845 26.0383 13.1415C33.2068 11.0586 43.4426 6.20377 43.4426 16.4611C43.4426 18.6487 38.1745 26.3045 45.4367 38.5679C48.5604 43.8429 52.2486 42.6497 52.2486 47.6195C52.2486 52.6061 46.9932 53.34 43.5659 54.2097C38.844 55.4078 30.9093 58.8967 27.734 55.7079C23.3484 51.3036 28.179 50.4922 28.179 40.5648C28.179 37.6072 24.5387 39.5763 22.518 40.1825L1.1742 45.8559C1.54946 62.7259 30.242 78.7779 35.2239 78.7779C39.5499 78.7779 54.6521 68.4233 59.1469 63.9338C66.6043 56.4851 70.4476 47.4632 70.4476 35.8617V7.05485C70.4476 3.25979 68.2499 0 64.5769 0H4.69647C2.97577 0 0 2.97997 0 4.7031V4.7031Z" fill="#4C4C4C"/>
</svg>
