<svg width="290" height="69" viewBox="0 0 290 69" fill="none" xmlns="http://www.w3.org/2000/svg">
<g clip-path="url(#clip0_2571_78308)">
<path fill-rule="evenodd" clip-rule="evenodd" d="M20.3756 2.69448C22.2102 0.815079 24.9621 -0.0336811 27.5917 0.0269449C31.8724 -0.0336811 36.1532 0.0269449 40.495 0.0269449C32.912 7.60519 25.2679 15.1228 17.6849 22.7011C16.8288 23.4286 16.3395 24.7017 16.9511 25.7324C17.8684 27.0055 19.1526 28.0362 20.2533 29.1881C27.0413 35.9175 33.7682 42.5864 40.5562 49.3159C35.9697 49.3159 31.3221 49.3765 26.7356 49.3159C23.9837 49.3159 21.4764 47.9215 19.6418 45.9815C13.5876 39.9795 7.53348 33.9775 1.47931 27.9755C0.317402 26.8843 -0.355285 25.0655 0.195094 23.4892C0.439707 22.5798 1.11239 21.8523 1.72392 21.246C7.90039 15.0622 14.138 8.87834 20.3756 2.69448ZM95.4718 10.2121C97.2452 10.2121 99.0186 10.2121 100.792 10.2121C100.792 14.2741 100.792 18.336 100.792 22.4586C104.706 18.5179 108.559 14.5166 112.533 10.6365C112.9 10.3334 113.267 10.0909 113.757 10.2727C115.713 10.1515 117.67 10.2121 119.688 10.2727C117.426 12.6978 114.857 14.8197 112.533 17.1841C110.149 19.6698 107.458 21.9129 105.073 24.3986C110.149 29.9156 115.469 35.2507 120.606 40.7676C118.404 40.7676 116.142 40.8889 113.94 40.7676C113.206 40.7676 112.9 39.9795 112.411 39.5551C108.559 35.2507 104.645 31.0068 100.792 26.7024C100.731 31.3706 100.792 36.0388 100.792 40.7676C99.0186 40.7676 97.2452 40.7676 95.4718 40.7676C95.4718 30.5825 95.4718 20.3973 95.4718 10.2121ZM134.365 10.2121C136.139 10.2121 137.851 10.2121 139.624 10.2121C143.416 20.3973 147.391 30.5825 151.243 40.7676C149.348 40.7676 147.452 40.7676 145.495 40.7676C144.578 38.2213 143.66 35.6144 142.621 33.1287C138.891 33.1287 135.099 33.1287 131.369 33.1287C130.268 35.6144 129.412 38.2213 128.433 40.7676C126.538 40.7676 124.642 40.7676 122.746 40.7676C126.599 30.5825 130.513 20.3973 134.365 10.2121ZM132.836 28.5818C135.588 28.5818 138.401 28.5818 141.153 28.5818C139.747 24.7624 138.401 20.8823 136.995 17.0629C135.466 20.8217 134.182 24.7017 132.836 28.5818ZM154.362 10.2121C162.373 10.2121 170.384 10.2121 178.395 10.2121C178.395 20.3973 178.395 30.5825 178.395 40.7676C176.622 40.7676 174.849 40.7676 173.075 40.7676C173.075 32.0981 173.075 23.4286 173.075 14.7591C168.611 14.7591 164.147 14.7591 159.683 14.7591C159.683 23.4286 159.683 32.0981 159.683 40.7676C157.909 40.7676 156.136 40.7676 154.362 40.7676C154.362 30.5825 154.362 20.3973 154.362 10.2121ZM183.899 10.2121C185.673 10.2121 187.446 10.2121 189.22 10.2121C189.22 17.4266 189.158 24.7017 189.281 31.9162C191.482 28.9455 193.378 25.793 195.457 22.7617C198.209 18.5785 201.144 14.5166 203.774 10.2121C205.486 10.2121 207.137 10.2121 208.85 10.2121C208.85 20.3973 208.85 30.5825 208.85 40.7676C207.076 40.7676 205.303 40.7676 203.529 40.7676C203.468 33.4925 203.591 26.1568 203.468 18.8816C198.637 26.1568 193.745 33.4319 188.975 40.7676C187.263 40.7676 185.612 40.7676 183.899 40.8282C183.899 30.5825 183.899 20.3973 183.899 10.2121ZM212.519 10.2121C220.652 10.2121 228.786 10.2121 236.919 10.2121C236.919 11.7278 236.919 13.2434 236.919 14.7591C233.739 14.7591 230.62 14.7591 227.44 14.8197C227.318 23.4892 227.44 32.0981 227.379 40.7676C225.606 40.7676 223.832 40.7676 222.059 40.7676C222.059 32.0981 222.059 23.4286 222.059 14.7591C218.879 14.7591 215.699 14.7591 212.519 14.7591C212.458 13.2434 212.458 11.7278 212.519 10.2121ZM244.074 10.2121C240.221 20.3973 236.246 30.5218 232.455 40.7676C234.351 40.7676 236.246 40.7676 238.142 40.7676C239.121 38.2213 239.977 35.6144 241.077 33.1287C244.808 33.1287 248.599 33.1287 252.33 33.1287C253.369 35.675 254.287 38.2213 255.204 40.7676C257.1 40.7676 259.056 40.7676 260.952 40.7676C257.038 30.5825 253.125 20.4579 249.333 10.2121C247.56 10.2121 245.847 10.2121 244.074 10.2121ZM242.545 28.5818C243.891 24.7017 245.175 20.8823 246.704 17.0629C248.171 20.8823 249.455 24.7624 250.862 28.5818C248.11 28.5818 245.297 28.5818 242.545 28.5818ZM269.881 10.2121C276.546 10.2121 283.212 10.2121 289.878 10.2121C289.878 20.3973 289.878 30.5825 289.878 40.7676C288.043 40.7676 286.208 40.7676 284.374 40.7676C284.374 32.0981 284.374 23.4286 284.374 14.7591C281.316 14.7591 278.32 14.6984 275.262 14.8197C274.895 21.1854 275.996 27.7937 274.039 33.9775C273.305 36.2813 272.021 38.5245 269.881 39.8582C267.801 41.0707 265.294 41.1314 262.97 40.7676C262.909 39.1307 262.909 37.5544 262.909 35.9175C264.193 35.9175 265.661 36.4025 266.701 35.4325C269.208 33.4319 269.453 29.9762 269.758 27.0055C270.064 21.4279 269.819 15.7897 269.881 10.2121ZM161.15 49.3765C162.434 47.9215 165.064 47.6183 166.471 49.134C167.266 49.7403 167.449 50.7709 167.755 51.6803C166.471 51.9228 165.92 50.8922 165.309 50.104C164.758 49.2553 163.474 49.4371 162.74 49.9221C161.639 50.5284 161.884 51.9834 161.823 53.0141C161.823 54.166 161.639 55.4997 162.434 56.4091C163.168 57.2579 164.636 57.3185 165.431 56.591C165.859 56.1666 166.043 55.5604 166.348 55.0754C166.837 55.0754 167.327 55.0754 167.755 55.0147C167.327 56.2879 166.837 57.7429 165.431 58.2279C164.269 58.531 162.863 58.7129 161.884 57.8641C160.844 57.1366 160.355 55.8635 160.355 54.651C160.416 52.8322 160.049 50.8315 161.15 49.3765ZM180.108 48.164C181.27 48.0427 182.493 48.5277 183.288 49.3765C184.388 50.9528 184.022 53.0141 184.083 54.8328C184.083 56.6516 182.554 58.5916 180.597 58.4704C179.618 58.5916 178.701 58.2279 177.967 57.6216C176.805 56.591 176.867 54.9541 176.805 53.5597C176.805 52.1047 176.683 50.4072 177.784 49.3159C178.334 48.5884 179.19 48.164 180.108 48.164ZM179.741 49.5584C178.579 49.9828 178.212 51.3165 178.212 52.4078C178.273 53.8022 178.09 55.3785 179.007 56.5304C179.863 57.3185 181.27 57.1973 182.065 56.3485C183.165 54.8935 182.554 52.8322 182.554 51.1953C182.432 49.9221 180.903 49.1946 179.741 49.5584ZM199.126 50.0434C199.983 48.0427 202.734 47.5577 204.508 48.7096C205.425 49.3159 205.731 50.4678 206.22 51.4378C205.731 51.4378 205.242 51.4378 204.752 51.4378C204.386 50.7709 204.019 50.104 203.407 49.619C202.49 49.134 201.328 49.4978 200.655 50.2253C200.044 51.8622 200.166 53.681 200.349 55.3179C200.533 56.5304 202.001 57.3791 203.162 56.8941C204.08 56.6516 204.386 55.7422 204.752 54.9541C205.242 54.9541 205.731 54.9541 206.159 54.8935C205.731 56.2879 205.058 57.9854 203.407 58.2279C201.45 58.8948 199.188 57.5004 198.882 55.4997C198.698 53.7416 198.454 51.8015 199.126 50.0434ZM243.034 48.164C244.808 47.9215 246.642 49.0734 246.887 50.8921C247.009 52.8322 247.315 55.0147 246.459 56.8335C245.236 58.9554 241.75 59.016 240.405 57.0154C239.426 55.3178 239.916 53.1959 239.854 51.3772C239.793 49.619 241.383 48.2246 243.034 48.164ZM242.851 49.5584C241.811 49.6796 241.2 50.8922 241.322 51.8622C241.322 53.1959 241.139 54.5903 241.506 55.8635C242.056 57.3185 244.257 57.4398 245.114 56.1666C246.031 54.651 245.419 52.7716 245.48 51.1347C245.297 49.9828 243.952 49.2553 242.851 49.5584ZM95.2883 48.2246C95.7775 48.2246 96.2667 48.2246 96.756 48.2246C97.7344 50.4071 98.7129 52.6503 99.7525 54.8328C100.792 52.7109 101.771 50.4678 102.688 48.2852C103.177 48.2852 103.605 48.2246 104.094 48.2246C104.094 51.6197 104.094 55.0147 104.094 58.4098C103.605 58.4098 103.116 58.4098 102.627 58.4098C102.627 56.3485 102.627 54.2266 102.566 52.1653C101.771 53.7416 101.098 55.3178 100.425 56.9547C100.119 56.9547 99.4467 56.9547 99.1409 56.9547C98.4071 55.3178 97.6733 53.7416 96.8783 52.1653C96.8171 54.2872 96.756 56.3485 96.756 58.4704C96.2667 58.4704 95.8387 58.4098 95.3494 58.4098C95.2271 54.9541 95.2883 51.6197 95.2883 48.2246ZM105.562 48.2246C107.764 48.2246 109.965 48.2246 112.167 48.2246C112.167 48.5277 112.167 49.1946 112.167 49.4978C110.454 49.4978 108.803 49.4978 107.091 49.5584C107.03 50.5284 107.03 51.4984 107.03 52.4684C108.497 52.5291 109.965 52.5897 111.433 52.5897C111.433 52.8928 111.433 53.4991 111.433 53.8022C109.965 53.8022 108.559 53.8022 107.091 53.8628C107.03 54.8935 107.03 55.8635 107.03 56.8941C108.742 56.8941 110.454 56.8941 112.167 56.8941C112.167 57.3791 112.167 57.8641 112.167 58.3492C110.026 58.3492 107.947 58.4098 105.807 58.2885C105.745 58.2279 105.623 58.1673 105.562 58.1067C105.44 54.8329 105.562 51.559 105.562 48.2246ZM115.652 48.2246C117.548 48.2246 119.444 48.2246 121.34 48.2246C121.34 51.1347 121.34 54.0447 121.34 56.9547C121.645 56.9547 122.257 57.0154 122.563 57.076C122.563 58.2885 122.624 59.501 122.563 60.7136C122.073 60.7136 121.584 60.7742 121.156 60.8348C121.156 60.0467 121.156 59.2585 121.156 58.4704C119.077 58.4704 116.998 58.4704 114.918 58.4704C114.918 59.2585 114.918 60.0467 114.918 60.8348C114.429 60.8348 114.001 60.7742 113.512 60.7742C113.512 59.6223 113.451 58.4704 113.451 57.3185C114.062 56.9548 114.918 56.7123 115.102 55.9241C115.836 53.3778 115.591 50.7709 115.652 48.2246ZM117.12 49.4978C117.12 51.9834 116.998 54.5297 116.264 56.9547C117.487 56.9547 118.649 56.9547 119.872 56.9547C119.872 54.4691 119.872 51.9834 119.872 49.4978C119.199 49.4978 117.793 49.4978 117.12 49.4978ZM123.908 48.2246C124.397 48.2246 124.886 48.2246 125.376 48.2246C125.376 50.589 125.376 53.0141 125.437 55.3785C127.027 53.0141 128.556 50.6496 130.023 48.2246C130.513 48.2246 131.002 48.2246 131.43 48.2246C131.43 51.6197 131.491 55.0147 131.308 58.4098C130.941 58.4098 130.268 58.4098 129.962 58.4098C129.962 55.9847 129.962 53.4991 129.901 51.074C128.311 53.4991 126.782 55.9847 125.192 58.4098C124.886 58.4098 124.275 58.3492 123.969 58.3492C123.847 54.9541 123.908 51.6197 123.908 48.2246ZM132.897 48.2246C133.387 48.2246 133.876 48.2246 134.365 48.2246C134.365 51.1347 134.365 53.9841 134.426 56.8941C135.833 56.9548 137.239 56.9547 138.585 56.9547C138.585 54.0447 138.585 51.1347 138.585 48.2246C139.074 48.2246 139.563 48.2246 140.052 48.2246C140.052 51.1347 140.052 54.0447 140.052 56.9547C140.358 56.9547 140.97 57.0154 141.275 57.076C141.275 58.2885 141.337 59.501 141.275 60.7136C140.786 60.7136 140.297 60.7742 139.869 60.8348C139.869 60.0467 139.869 59.2585 139.869 58.4704C137.545 58.4704 135.282 58.4704 132.959 58.4098C132.836 54.9541 132.897 51.6197 132.897 48.2246ZM142.437 48.2246C142.927 48.2246 143.416 48.2246 143.905 48.2246C143.905 50.589 143.905 53.0141 143.966 55.3785C145.617 53.0747 147.085 50.6496 148.553 48.2246C149.042 48.2246 149.47 48.2246 149.959 48.164C149.959 51.559 150.02 54.9541 149.837 58.3492C149.47 58.3492 148.797 58.3492 148.492 58.3492C148.492 55.9241 148.492 53.4384 148.43 51.0134C146.84 53.4384 145.373 55.9241 143.722 58.3492C143.416 58.3492 142.804 58.2885 142.499 58.2885C142.376 54.9541 142.437 51.6197 142.437 48.2246ZM151.427 48.2246C151.916 48.2246 152.405 48.2246 152.895 48.2246C152.895 49.6796 152.895 51.1347 152.895 52.5897C154.301 52.5897 155.708 52.5897 157.114 52.5897C157.114 51.1347 157.114 49.6796 157.114 48.2246C157.603 48.2246 158.093 48.2246 158.582 48.2246C158.582 51.6197 158.582 55.0147 158.582 58.4098C158.093 58.4098 157.603 58.4098 157.114 58.4098C157.114 56.8941 157.114 55.3785 157.114 53.8628C155.708 53.8628 154.362 53.8628 152.956 53.9234C152.895 55.4391 152.895 56.8941 152.895 58.4098C152.405 58.4098 151.916 58.4098 151.427 58.4098C151.427 55.0147 151.427 51.6197 151.427 48.2246ZM169.406 48.2246C169.406 51.6197 169.345 54.9541 169.467 58.3492C169.956 58.3492 170.384 58.4098 170.874 58.4098C170.874 56.9548 170.874 55.4391 170.935 53.9841C172.158 55.136 173.197 56.4697 174.421 57.6216C175.093 58.4704 176.194 58.3491 177.172 58.4704C175.46 56.6516 173.809 54.7722 171.974 53.0747C173.564 51.4378 175.215 49.8615 176.805 48.2246C176.01 48.4065 174.971 48.1034 174.298 48.7702C173.136 49.8615 172.036 51.0134 170.874 52.1653C170.874 50.8922 170.812 49.619 170.812 48.2852C170.323 48.2246 169.834 48.2246 169.406 48.2246ZM185.183 48.2246C187.385 48.2246 189.586 48.2246 191.788 48.2246C191.788 48.5277 191.788 49.1946 191.788 49.4978C190.076 49.4978 188.425 49.4978 186.712 49.5584C186.651 50.589 186.651 51.559 186.651 52.5897C188.119 52.5897 189.586 52.5897 191.054 52.5897C191.054 52.8928 191.054 53.5597 191.054 53.8628C189.586 53.8628 188.18 53.8628 186.712 53.9234C186.651 54.9541 186.651 55.9241 186.651 56.9547C188.363 56.9547 190.076 56.9547 191.849 56.9547C191.849 57.4398 191.788 57.8641 191.788 58.3492C189.648 58.4098 187.446 58.4098 185.306 58.3492C185.122 55.0147 185.183 51.6197 185.183 48.2246ZM206.832 48.2246C209.217 48.2246 211.602 48.2246 213.987 48.2246C213.987 48.5277 213.987 49.134 213.987 49.4371C213.008 49.4978 212.03 49.5584 211.051 49.619C211.051 52.5291 211.051 55.4997 211.051 58.4098C210.562 58.4098 210.134 58.3492 209.645 58.3492C209.584 55.3785 209.584 52.4684 209.584 49.4978C208.911 49.4978 207.504 49.4978 206.832 49.4978C206.832 49.1946 206.832 48.5277 206.832 48.2246ZM215.271 48.2246C217.044 48.3459 218.879 47.9821 220.591 48.4065C222.854 49.1946 223.037 52.5897 221.142 53.8628C219.796 54.5903 218.206 54.2872 216.738 54.4691C216.738 55.8029 216.738 57.1366 216.738 58.4098C216.249 58.4098 215.821 58.3492 215.332 58.3492C215.21 54.9541 215.271 51.559 215.271 48.2246ZM216.738 49.4978C216.677 50.6497 216.677 51.8016 216.677 52.9534C217.717 52.8928 218.818 52.9534 219.857 52.7716C221.203 52.4078 221.264 50.2859 220.102 49.7403C219.062 49.3159 217.839 49.5584 216.738 49.4978ZM225.3 48.2246C224.016 51.6197 222.67 54.9541 221.57 58.4098C222.12 58.4098 222.609 58.4098 223.16 58.4098C223.404 57.7429 223.649 57.076 223.893 56.4091C225.239 56.4091 226.584 56.4091 227.93 56.3485C228.174 57.0154 228.419 57.6823 228.663 58.3492C229.214 58.3492 229.703 58.3492 230.314 58.3492C229.091 54.9541 227.807 51.559 226.584 48.2246C226.278 48.2246 225.667 48.2246 225.3 48.2246ZM225.973 50.7103C226.523 52.1047 227.012 53.4991 227.563 54.9541C226.523 54.9541 225.483 54.9541 224.383 54.9541C224.933 53.5597 225.361 52.1047 225.973 50.7103ZM231.476 48.164C231.904 48.2246 232.822 48.3459 233.25 48.4065C234.106 49.3765 234.595 50.6497 235.268 51.7409C235.941 50.589 236.491 49.3765 237.286 48.3459C237.714 48.2852 238.631 48.2246 239.059 48.164C238.081 49.8009 237.103 51.4984 236.063 53.1353C237.164 54.8935 238.264 56.6516 239.243 58.4704C238.815 58.4098 237.897 58.2885 237.469 58.2279C236.552 57.1366 236.002 55.7422 235.207 54.5297C234.412 55.8029 233.678 57.1366 232.944 58.4098C232.333 58.4098 231.843 58.4098 231.232 58.4098C232.088 56.591 233.494 55.0147 234.228 53.1353C233.556 51.3772 232.333 49.8615 231.476 48.164ZM248.416 48.2246C250.006 48.2246 251.596 48.164 253.186 48.2852C254.592 48.4671 255.51 49.8009 255.387 51.1347C255.387 51.8622 254.959 52.5291 254.592 53.1353C255.082 53.8628 255.448 54.651 255.571 55.4997C255.571 56.7122 254.653 58.046 253.369 58.2279C251.718 58.531 250.067 58.4098 248.416 58.4098C248.416 55.0147 248.416 51.6197 248.416 48.2246ZM249.945 49.4371C249.945 50.4678 249.945 51.4378 249.945 52.4684C251.045 52.4078 252.146 52.5291 253.247 52.2259C254.225 51.8015 253.736 50.589 253.675 49.8009C252.391 49.619 251.168 49.4978 249.945 49.4371ZM249.884 53.8022C249.884 54.8328 249.884 55.9241 249.884 56.9547C250.923 56.8941 252.024 56.8941 253.063 56.7729C254.164 56.5304 254.409 54.8328 253.492 54.2266C252.513 53.4991 251.107 53.9841 249.884 53.8022ZM260.096 48.2246C260.402 48.2246 261.013 48.2246 261.319 48.2246C262.603 51.6197 263.888 54.9541 265.049 58.3492C264.56 58.3492 264.01 58.3492 263.521 58.3492C263.215 57.561 262.909 56.7729 262.603 55.9847C261.319 55.9847 260.035 55.9847 258.812 55.9847C258.506 56.7729 258.2 57.561 257.895 58.3492C257.405 58.3492 256.855 58.3492 256.366 58.3492C257.589 55.0147 258.812 51.6197 260.096 48.2246ZM260.646 50.7103C260.157 52.044 259.668 53.3778 259.301 54.7116C260.218 54.7722 261.197 54.7722 262.114 54.7722C261.747 53.3778 261.197 52.044 260.646 50.7103ZM266.089 48.2246C266.578 48.2246 267.068 48.2246 267.557 48.2246C267.557 49.6796 267.557 51.074 267.618 52.5291C269.024 52.5897 270.37 52.5897 271.776 52.5897C271.776 51.1347 271.776 49.6796 271.776 48.2246C272.266 48.2246 272.755 48.2246 273.244 48.2246C273.244 51.6197 273.244 55.0147 273.244 58.4098C272.755 58.4098 272.327 58.3492 271.838 58.3492C271.776 56.8335 271.776 55.3785 271.776 53.8628C270.37 53.8628 269.024 53.8628 267.618 53.9234C267.557 55.4391 267.557 56.9547 267.557 58.4704C267.068 58.4704 266.639 58.4098 266.15 58.4098C266.028 54.9541 266.028 51.6197 266.089 48.2246ZM274.651 48.2246C275.14 48.2246 275.629 48.2246 276.118 48.2246C276.118 50.589 276.118 53.0141 276.179 55.3785C277.831 53.0747 279.237 50.6496 280.766 48.2246C281.255 48.2246 281.683 48.164 282.172 48.164C282.172 51.559 282.234 54.9541 282.05 58.3492C281.683 58.3492 281.01 58.3492 280.705 58.3492C280.705 55.9241 280.766 53.5597 280.644 51.1347C278.931 53.4385 277.525 55.9847 275.935 58.3492C275.629 58.3492 275.017 58.2885 274.712 58.2885C274.651 54.9541 274.651 51.6197 274.651 48.2246ZM283.457 48.2246C285.597 48.2246 287.737 48.2246 289.878 48.2246C289.878 48.5277 289.878 49.1946 289.878 49.4978C288.227 49.4978 286.575 49.4978 284.924 49.4978C284.924 50.5284 284.924 51.559 284.924 52.5897C286.331 52.5897 287.737 52.5897 289.144 52.5897C289.144 52.8928 289.144 53.5597 289.144 53.8628C287.737 53.8628 286.331 53.8628 284.924 53.8628C284.924 54.8935 284.924 55.9241 284.924 56.9547C286.575 56.9547 288.227 56.9547 289.878 56.9547C289.817 57.3791 290 57.8641 290 58.3492C287.798 58.4098 285.658 58.4098 283.457 58.4098C283.457 55.0147 283.457 51.6197 283.457 48.2246Z" fill="#B8181C"/>
<path fill-rule="evenodd" clip-rule="evenodd" d="M37.2539 19.3062C41.8404 19.3062 46.488 19.2456 51.0745 19.3062C52.6645 19.3062 54.2545 19.7306 55.661 20.5794C57.3733 21.61 58.6575 23.065 60.064 24.3988C65.5678 29.8552 71.0716 35.3115 76.5754 40.7678C77.7985 41.8591 78.1042 43.6173 77.7985 45.1935C77.4927 46.2242 76.6366 46.9517 75.9027 47.7398C69.8486 53.7418 63.7944 59.7438 57.7402 65.7457C56.8229 66.6551 55.7222 67.322 54.5603 67.8676C52.6034 68.6558 50.4018 68.5952 48.3226 68.5952C44.6534 68.5952 41.0454 68.5952 37.3762 68.5345C38.6604 67.0795 40.0058 65.8064 41.3512 64.412C47.5276 58.3494 53.643 52.2261 59.8194 46.1635C60.5533 45.436 61.3483 44.5873 61.1036 43.496C60.5533 42.1622 59.3302 41.2528 58.3517 40.2222C51.3191 33.3108 44.2865 26.3389 37.2539 19.3062Z" fill="#153D6E"/>
</g>
<defs>
<clipPath id="clip0_2571_78308">
<rect width="290" height="69" fill="white"/>
</clipPath>
</defs>
</svg>
