<svg width="267" height="42" viewBox="0 0 267 42" fill="none" xmlns="http://www.w3.org/2000/svg">
<path d="M24.6143 31.4736V38.069H0V0H7.96732V31.4736H24.6143Z" fill="black"/>
<path d="M39.8894 32.7927C41.7009 32.7927 43.2223 32.2914 44.4534 31.2889C45.6846 30.2688 46.3002 28.9761 46.3002 27.4108V25.2738L40.206 25.6959C38.6055 25.8015 37.3831 26.162 36.5389 26.7776C35.6947 27.3932 35.2725 28.2374 35.2725 29.3102C35.2725 30.3831 35.6859 31.2361 36.5125 31.8693C37.3567 32.4849 38.4823 32.7927 39.8894 32.7927ZM37.3831 38.412C34.5514 38.412 32.2122 37.6029 30.3655 35.9849C28.5188 34.3668 27.5954 32.2738 27.5954 29.706C27.5954 27.0854 28.5716 25.0364 30.5238 23.559C32.4761 22.0816 35.3165 21.2286 39.0452 21L46.3002 20.5515V18.6256C46.3002 17.2361 45.8517 16.1721 44.9547 15.4334C44.0577 14.6771 42.809 14.299 41.2085 14.299C39.8366 14.299 38.6846 14.6331 37.7524 15.3015C36.8379 15.9522 36.2838 16.814 36.0904 17.8869H29.0464C29.152 15.108 30.3479 12.8568 32.6344 11.1331C34.9384 9.39194 37.9019 8.52134 41.525 8.52134C45.2537 8.52134 48.2436 9.40074 50.4949 11.1595C52.7461 12.9183 53.8718 15.2487 53.8718 18.1507V38.069H46.4321V33.5841H46.2738C45.4999 35.0791 44.2951 36.2575 42.6595 37.1193C41.0414 37.9811 39.2826 38.412 37.3831 38.412Z" fill="black"/>
<path d="M59.069 38.069V9.0226H66.5087V14.2198H66.667C68.373 10.4736 71.486 8.60049 76.0061 8.60049C79.2247 8.60049 81.7486 9.55903 83.5777 11.4761C85.4245 13.3932 86.3478 16.049 86.3478 19.4434V38.069H78.6443V21.0527C78.6443 19.1181 78.1431 17.6319 77.1406 16.5942C76.1556 15.5389 74.7574 15.0113 72.9458 15.0113C71.0991 15.0113 69.6041 15.6093 68.4609 16.8052C67.3353 18.0012 66.7725 19.5665 66.7725 21.5012V38.069H59.069Z" fill="black"/>
<path d="M93.5237 2.55904H101.227V9.0226H106.609V14.853H101.227V28.9673C101.227 31.1834 102.379 32.2914 104.683 32.2914C105.439 32.2914 106.081 32.2474 106.609 32.1595V37.858C105.554 38.069 104.314 38.1745 102.889 38.1745C99.53 38.1745 97.1292 37.559 95.687 36.3278C94.2448 35.0967 93.5237 33.0653 93.5237 30.2336V14.853H89.5928V9.0226H93.5237V2.55904Z" fill="black"/>
<path d="M121.99 32.7927C123.801 32.7927 125.323 32.2914 126.554 31.2889C127.785 30.2688 128.401 28.9761 128.401 27.4108V25.2738L122.306 25.6959C120.706 25.8015 119.483 26.162 118.639 26.7776C117.795 27.3932 117.373 28.2374 117.373 29.3102C117.373 30.3831 117.786 31.2361 118.613 31.8693C119.457 32.4849 120.583 32.7927 121.99 32.7927ZM119.483 38.412C116.652 38.412 114.313 37.6029 112.466 35.9849C110.619 34.3668 109.696 32.2738 109.696 29.706C109.696 27.0854 110.672 25.0364 112.624 23.559C114.576 22.0816 117.417 21.2286 121.145 21L128.401 20.5515V18.6256C128.401 17.2361 127.952 16.1721 127.055 15.4334C126.158 14.6771 124.909 14.299 123.309 14.299C121.937 14.299 120.785 14.6331 119.853 15.3015C118.938 15.9522 118.384 16.814 118.191 17.8869H111.147C111.252 15.108 112.448 12.8568 114.735 11.1331C117.039 9.39194 120.002 8.52134 123.625 8.52134C127.354 8.52134 130.344 9.40074 132.595 11.1595C134.846 12.9183 135.972 15.2487 135.972 18.1507V38.069H128.532V33.5841H128.374C127.6 35.0791 126.395 36.2575 124.76 37.1193C123.142 37.9811 121.383 38.412 119.483 38.412Z" fill="black"/>
<path d="M141.723 0H157.605C161.527 0 164.702 1.19598 167.129 3.58793C169.574 5.97989 170.796 9.12812 170.796 13.0326C170.796 16.9196 169.539 20.0678 167.024 22.4773C164.508 24.8693 161.237 26.0653 157.209 26.0653H149.691V38.069H141.723V0ZM149.691 6.30526V19.8392H155.468C157.755 19.8392 159.531 19.25 160.797 18.0716C162.064 16.8932 162.697 15.2223 162.697 13.059C162.697 10.8957 162.064 9.23365 160.797 8.07285C159.549 6.89446 157.781 6.30526 155.495 6.30526H149.691Z" fill="black"/>
<path d="M174.938 38.069V9.0226H182.378V14.2198H182.536C183.029 12.4434 183.873 11.0804 185.069 10.1306C186.265 9.1633 187.725 8.67963 189.448 8.67963C190.31 8.67963 191.031 8.77637 191.611 8.96983V15.8027C190.926 15.4862 190.002 15.3279 188.841 15.3279C186.889 15.3279 185.368 15.8995 184.277 17.0427C183.187 18.1859 182.642 19.7776 182.642 21.8178V38.069H174.938Z" fill="black"/>
<path d="M207.282 38.5703C202.868 38.5703 199.376 37.2336 196.809 34.5602C194.241 31.8869 192.957 28.211 192.957 23.5326C192.957 18.907 194.25 15.2487 196.835 12.5578C199.42 9.86682 202.903 8.52134 207.282 8.52134C211.679 8.52134 215.162 9.86682 217.729 12.5578C220.315 15.2311 221.608 18.8894 221.608 23.5326C221.608 28.2286 220.324 31.9133 217.756 34.5866C215.206 37.2424 211.714 38.5703 207.282 38.5703ZM202.481 30.26C203.642 31.8429 205.242 32.6344 207.282 32.6344C209.322 32.6344 210.914 31.8429 212.057 30.26C213.201 28.6595 213.772 26.417 213.772 23.5326C213.772 20.6834 213.192 18.4585 212.031 16.858C210.888 15.2399 209.305 14.4309 207.282 14.4309C205.242 14.4309 203.642 15.2399 202.481 16.858C201.338 18.4585 200.766 20.6834 200.766 23.5326C200.766 26.417 201.338 28.6595 202.481 30.26Z" fill="black"/>
<path d="M245.079 15.2927V21.3606H248.574C249.577 21.3606 250.355 21.0924 250.909 20.5559C251.472 20.0195 251.753 19.2764 251.753 18.3267C251.753 17.4033 251.463 16.669 250.883 16.1238C250.302 15.5698 249.52 15.2927 248.535 15.2927H245.079ZM245.079 24.2494V31.2142H241.095V12.1797H248.957C251.129 12.1797 252.817 12.7205 254.022 13.8022C255.236 14.875 255.842 16.3568 255.842 18.2475C255.842 19.4875 255.535 20.5955 254.919 21.5716C254.312 22.539 253.468 23.2337 252.386 23.6558L256.396 31.2142H251.885L248.337 24.2494H245.079Z" fill="black"/>
<circle cx="247.849" cy="22.3102" r="17.1356" stroke="black" stroke-width="4"/>
</svg>
