<svg width="207" height="80" viewBox="0 0 207 80" fill="none" xmlns="http://www.w3.org/2000/svg">
<g clip-path="url(#clip0_2331_86606)">
<path d="M81.8514 56.4839C81.9477 56.4839 82.012 56.5484 82.012 56.6452V64.6774C82.012 64.7742 81.9799 64.8065 81.8835 64.8065H81.3376C81.2413 64.8065 81.1771 64.7742 81.1771 64.6774V57.2581H78.7687L78.0623 62.9355C77.966 63.7742 77.7412 64.3226 77.388 64.5807C77.0347 64.8065 76.7778 64.871 76.3604 64.871C76.1998 64.871 76.0393 64.871 75.8466 64.8387C75.7503 64.8065 75.7182 64.7742 75.7182 64.6774V64.2581C75.7182 64.1613 75.7503 64.129 75.8787 64.129H76.0393C76.4888 64.129 76.7778 64.0323 76.9384 63.8387C77.099 63.6129 77.1953 63.2581 77.2916 62.6774L78.0302 56.6452C78.0302 56.5484 78.0944 56.4839 78.1907 56.4839H81.8514Z" fill="black"/>
<path d="M87.9846 64.2581C87.6635 64.6452 86.9892 64.871 85.9938 64.871C84.9983 64.871 84.324 64.6775 84.0029 64.2581C83.6818 63.8388 83.5212 63.0323 83.5212 61.7742C83.5212 60.5484 83.6818 59.742 84.0029 59.3226C84.324 58.9033 84.9983 58.7097 85.9938 58.7097C86.9892 58.7097 87.6635 58.9033 87.9846 59.3226C88.3058 59.7097 88.4663 60.5484 88.4663 61.7742C88.4342 63.0323 88.3058 63.871 87.9846 64.2581ZM85.9938 59.4516C85.2873 59.4516 84.8378 59.6129 84.613 59.9033C84.4203 60.1936 84.324 60.8388 84.324 61.8065C84.324 62.7742 84.4203 63.4194 84.613 63.7097C84.8378 64 85.2873 64.1613 85.9938 64.1613C86.7002 64.1613 87.1498 64 87.3424 63.7097C87.5351 63.4194 87.6314 62.7742 87.6314 61.8065C87.6314 60.8388 87.5351 60.2259 87.3424 59.9033C87.1498 59.6129 86.7002 59.4516 85.9938 59.4516Z" fill="black"/>
<path d="M93.5399 58.8064C93.6041 58.8064 93.6362 58.8387 93.6362 58.9032V59.4516C93.6362 59.5161 93.6041 59.5483 93.5399 59.5483H90.6499V64.7096C90.6499 64.7741 90.6177 64.8064 90.5535 64.8064H89.9113C89.8471 64.8064 89.815 64.7741 89.815 64.7096V58.9354C89.815 58.8709 89.8471 58.8064 89.9434 58.8064H93.5399Z" fill="black"/>
<path d="M99.6731 58.8064C99.7373 58.8064 99.7694 58.8387 99.7694 58.9032V64.7096C99.7694 64.7742 99.7373 64.8064 99.6731 64.8064H99.063C98.9988 64.8064 98.9667 64.7742 98.9667 64.7096V60.129L95.4986 64.6774C95.4344 64.7742 95.3381 64.8064 95.2097 64.8064H94.728C94.6638 64.8064 94.6317 64.7742 94.6317 64.7096V58.9032C94.6317 58.8387 94.6638 58.8064 94.728 58.8064H95.3381C95.4023 58.8064 95.4344 58.8387 95.4344 58.9032V63.3225L98.7098 59C98.8382 58.8387 98.9024 58.7742 99.1272 58.7742H99.6731V58.8064Z" fill="black"/>
<path d="M105.228 58.8387C105.325 58.8387 105.357 58.9032 105.357 58.9677V59.3225C105.357 59.4193 105.325 59.4516 105.228 59.4516H103.623C102.916 59.4516 102.467 59.6129 102.242 59.9032C102.049 60.1935 101.953 60.8387 101.953 61.8064C101.953 62.7741 102.049 63.4193 102.242 63.7096C102.467 64 102.916 64.1612 103.623 64.1612H105.228C105.325 64.1612 105.357 64.1935 105.357 64.2903V64.6451C105.357 64.7096 105.325 64.7741 105.228 64.7741C104.747 64.8387 104.201 64.8387 103.591 64.8387C102.595 64.8387 101.921 64.6451 101.6 64.2258C101.279 63.8064 101.118 62.9999 101.118 61.7419C101.118 60.5161 101.279 59.7096 101.6 59.2903C101.921 58.8709 102.595 58.6774 103.591 58.6774C104.297 58.7419 104.843 58.7741 105.228 58.8387Z" fill="black"/>
<path d="M110.719 58.8064C110.816 58.8064 110.88 58.8387 110.88 58.9354V59.387C110.88 59.4838 110.848 59.5161 110.719 59.5161H108.793V64.6451C108.793 64.7419 108.761 64.7741 108.664 64.7741H108.086C107.99 64.7741 107.926 64.7419 107.926 64.6451V59.5161H105.999C105.903 59.5161 105.871 59.4838 105.871 59.387V58.9354C105.871 58.8387 105.903 58.8064 105.999 58.8064H110.719Z" fill="black"/>
<path d="M116.917 58.8064C116.981 58.8064 117.013 58.8387 117.013 58.9032V64.7096C117.013 64.7742 116.981 64.8064 116.917 64.8064H116.307C116.243 64.8064 116.21 64.7742 116.21 64.7096V60.129L112.71 64.6774C112.646 64.7742 112.55 64.8064 112.421 64.8064H111.94C111.875 64.8064 111.843 64.7742 111.843 64.7096V58.9032C111.843 58.8387 111.875 58.8064 111.94 58.8064H112.55C112.614 58.8064 112.646 58.8387 112.646 58.9032V63.3225L115.921 59C116.05 58.8387 116.082 58.7742 116.339 58.7742H116.917V58.8064Z" fill="black"/>
<path d="M122.793 58.8064C122.922 58.8064 122.954 58.8709 122.889 58.9354L120.289 61.5806L123.082 64.6451C123.146 64.7096 123.114 64.8064 122.986 64.8064H122.279C122.215 64.8064 122.151 64.7741 122.087 64.7419L119.389 61.7741V64.6774C119.389 64.7741 119.357 64.8064 119.261 64.8064H118.683C118.587 64.8064 118.522 64.7741 118.522 64.6774V58.9354C118.522 58.8387 118.555 58.8064 118.683 58.8064H119.261C119.357 58.8064 119.389 58.8387 119.389 58.9354V61.4193L121.958 58.8709C121.99 58.8387 122.055 58.8064 122.119 58.8064H122.793Z" fill="black"/>
<path d="M127.77 60.4839V64.3871C127.77 64.5161 127.706 64.6129 127.578 64.6774C127.192 64.8064 126.39 64.9032 125.234 64.9032C124.495 64.9032 123.949 64.7742 123.66 64.5484C123.371 64.2903 123.211 63.8387 123.211 63.1935V63.0968C123.211 61.9677 123.789 61.5161 125.073 61.5161H127V60.6451C127 59.8387 126.486 59.5161 125.362 59.5161H123.853C123.757 59.5161 123.692 59.4839 123.692 59.3871V59.0645C123.692 59 123.724 58.9355 123.821 58.9032C124.27 58.8387 124.784 58.8064 125.33 58.8064C126.936 58.7419 127.77 59.2258 127.77 60.4839ZM126.968 62.1613H125.073C124.624 62.1613 124.302 62.2258 124.174 62.3548C124.046 62.4838 123.981 62.7419 123.981 63.129V63.1613C123.981 63.9677 124.335 64.129 125.298 64.129C126.004 64.129 126.55 64.0968 126.968 64V62.1613Z" fill="black"/>
<path d="M135.638 58.8064C135.734 58.8064 135.766 58.8387 135.766 58.9354V64.0967H136.119C136.216 64.0967 136.248 64.129 136.248 64.1935V65.9354C136.248 65.9999 136.216 66.0322 136.151 66.0322H135.573C135.509 66.0322 135.477 65.9999 135.477 65.9354V64.8387H131.688V65.9354C131.688 65.9999 131.656 66.0322 131.56 66.0322H131.014C130.949 66.0322 130.917 65.9999 130.917 65.9354V64.1935C130.917 64.129 130.949 64.0967 131.046 64.0967H131.399C131.752 63.9677 131.849 63.6774 131.945 63.0322L132.491 58.9354C132.491 58.8709 132.555 58.8064 132.619 58.8064H135.638ZM134.931 59.5483H133.261L132.748 63.258C132.716 63.5806 132.619 63.8387 132.523 64.0645H134.899V59.5483H134.931Z" fill="black"/>
<path d="M141.739 64.2581C141.418 64.6452 140.743 64.871 139.748 64.871C138.752 64.871 138.078 64.6775 137.757 64.2581C137.436 63.8388 137.275 63.0323 137.275 61.7742C137.275 60.5484 137.436 59.742 137.757 59.3226C138.078 58.9033 138.752 58.7097 139.748 58.7097C140.743 58.7097 141.418 58.9033 141.739 59.3226C142.06 59.7097 142.22 60.5484 142.22 61.7742C142.22 63.0323 142.06 63.871 141.739 64.2581ZM139.748 59.4516C139.041 59.4516 138.592 59.6129 138.367 59.9033C138.174 60.1936 138.078 60.8388 138.078 61.8065C138.078 62.7742 138.174 63.4194 138.367 63.7097C138.592 64 139.041 64.1613 139.748 64.1613C140.454 64.1613 140.904 64 141.097 63.7097C141.289 63.4194 141.386 62.7742 141.386 61.8065C141.386 60.8388 141.289 60.2259 141.097 59.9033C140.904 59.6129 140.454 59.4516 139.748 59.4516Z" fill="black"/>
<path d="M148.097 60.4516C148.097 61.2581 147.872 61.6774 147.326 61.8065V61.8387C147.968 61.9355 148.289 62.4194 148.289 63.2581C148.289 64.5161 147.615 64.9032 146.106 64.9032C144.886 64.9032 144.083 64.871 143.666 64.8387C143.601 64.8387 143.537 64.7742 143.537 64.7097V58.9355C143.537 58.871 143.569 58.8387 143.666 58.8065C144.34 58.7742 145.078 58.7419 145.849 58.7419C147.39 58.7419 148.097 59.1936 148.097 60.4516ZM144.404 59.4839V61.4839H145.656C146.266 61.4839 146.684 61.4194 146.909 61.3226C147.133 61.2258 147.23 60.9678 147.23 60.5484C147.23 59.7419 146.78 59.5161 145.753 59.5161H144.404V59.4839ZM144.404 62.129V64.129H146.106C147.037 64.129 147.422 63.9032 147.422 63.1613C147.422 62.3871 147.037 62.1613 146.17 62.1613H144.404V62.129Z" fill="black"/>
<path d="M153.652 59.3226C153.973 59.7097 154.134 60.4839 154.134 61.6129V61.9355C154.134 62.1613 154.102 62.2258 153.78 62.2258H150.152C150.184 63 150.28 63.5484 150.505 63.8065C150.73 64.0646 151.147 64.1936 151.79 64.1936H153.524C153.62 64.1936 153.652 64.2258 153.652 64.3226V64.6775C153.652 64.742 153.62 64.8065 153.524 64.8065C153.042 64.871 152.464 64.871 151.79 64.871C150.794 64.871 150.152 64.6775 149.831 64.2581C149.542 63.871 149.381 63.0323 149.381 61.7742C149.381 60.5162 149.542 59.7097 149.831 59.3226C150.152 58.9355 150.794 58.7097 151.79 58.7097C152.721 58.742 153.363 58.9355 153.652 59.3226ZM150.505 59.871C150.313 60.1291 150.184 60.6775 150.184 61.4839H153.363C153.363 60.6452 153.235 60.0968 153.042 59.8387C152.849 59.5807 152.432 59.4516 151.79 59.4516C151.115 59.4516 150.698 59.5807 150.505 59.871Z" fill="black"/>
<path d="M159.721 59.3548C160.01 59.7419 160.171 60.5807 160.171 61.8387C160.171 63.129 160.106 63.7742 159.721 64.2581C159.368 64.7419 158.79 64.871 157.698 64.871C157.088 64.871 156.574 64.8387 156.157 64.8065V66.8387C156.157 66.9355 156.125 66.9678 156.028 66.9678H155.514C155.418 66.9678 155.386 66.9355 155.386 66.8387V59.0323C155.386 58.9355 155.45 58.871 155.547 58.871C156.285 58.7742 157.024 58.7419 157.794 58.7419C158.758 58.7419 159.432 58.9355 159.721 59.3548ZM156.157 59.4516V64.0645C156.735 64.129 157.216 64.129 157.698 64.129C158.437 64.129 158.918 64 159.111 63.7097C159.304 63.4194 159.4 62.7742 159.4 61.8065C159.4 60.8065 159.304 60.1936 159.111 59.871C158.918 59.5807 158.469 59.4194 157.762 59.4194H156.157V59.4516Z" fill="black"/>
<path d="M166.593 58.8064C166.657 58.8064 166.689 58.8387 166.689 58.9032V64.7096C166.689 64.7742 166.657 64.8064 166.593 64.8064H165.983C165.919 64.8064 165.886 64.7742 165.886 64.7096V60.129L162.418 64.6774C162.354 64.7742 162.258 64.8064 162.129 64.8064H161.648C161.584 64.8064 161.551 64.7742 161.551 64.7096V58.9032C161.551 58.8387 161.584 58.8064 161.648 58.8064H162.258C162.322 58.8064 162.354 58.8387 162.354 58.9032V63.3225L165.63 59C165.758 58.8387 165.79 58.7742 166.047 58.7742H166.593V58.8064Z" fill="black"/>
<path d="M172.341 58.8065C172.405 58.8065 172.469 58.8387 172.469 58.9032V64.7097C172.469 64.7742 172.437 64.8065 172.341 64.8065H171.731C171.666 64.8065 171.634 64.7742 171.634 64.7097V62.5807H170.318L168.905 64.6452C168.841 64.7419 168.744 64.8065 168.616 64.8065H168.038C167.941 64.8065 167.909 64.7419 167.974 64.6774L169.419 62.5161C168.905 62.4516 168.519 62.2581 168.327 62.0323C168.134 61.7742 168.038 61.3226 168.038 60.7097C168.038 59.9032 168.23 59.3871 168.584 59.129C168.937 58.871 169.611 58.7419 170.607 58.7419C171.345 58.7419 171.955 58.7742 172.341 58.8065ZM171.634 59.4839H170.639C169.932 59.4839 169.419 59.5484 169.194 59.7097C168.969 59.871 168.841 60.1936 168.841 60.7097C168.841 61.2258 168.937 61.5484 169.194 61.6774C169.419 61.8065 169.9 61.871 170.639 61.871H171.634V59.4839Z" fill="black"/>
<path d="M181.685 61.5483C181.781 61.5483 181.814 61.5806 181.814 61.6774V62.129C181.814 62.2258 181.781 62.258 181.685 62.258H176.579C176.483 62.258 176.451 62.2258 176.451 62.129V61.6774C176.451 61.5806 176.483 61.5483 176.579 61.5483H181.685Z" fill="black"/>
<path d="M79.6679 72.2904C80.0211 72.7097 80.2137 73.5162 80.2137 74.7097C80.2137 75.9033 80.0211 76.7097 79.6679 77.1291C79.3146 77.5484 78.6403 77.7742 77.6127 77.7742C76.8742 77.7742 76.2962 77.742 75.8145 77.6775C75.7182 77.6775 75.6861 77.6452 75.6861 77.5484V77.1291C75.6861 77.0646 75.7182 77.0323 75.7824 77.0323H77.5806C78.255 77.0323 78.7366 76.9033 78.9614 76.6452C79.1862 76.3549 79.3146 75.871 79.3467 75.0968H76.7778C76.7136 75.0968 76.6815 75.0646 76.6815 75.0001V74.4839C76.6815 74.4194 76.7136 74.3872 76.7778 74.3872H79.3467C79.3467 73.613 79.2183 73.0968 78.9614 72.8388C78.7366 72.5484 78.2871 72.4194 77.5806 72.4194H75.7824C75.7182 72.4194 75.6861 72.3872 75.6861 72.3226V71.9033C75.6861 71.8388 75.7182 71.7742 75.8145 71.7742C76.2641 71.7097 76.8421 71.6775 77.6127 71.6775C78.6403 71.6452 79.3467 71.871 79.6679 72.2904Z" fill="black"/>
<path d="M87.9204 72.3225C88.2094 72.7742 88.3379 73.5483 88.3379 74.7096C88.3379 75.8709 88.2094 76.6451 87.9204 77.0967C87.6314 77.5483 87.1498 77.7741 86.4112 77.7741C85.8653 77.7741 85.48 77.6774 85.2231 77.4838V79.7741C85.2231 79.8709 85.191 79.9032 85.0625 79.9032H84.5488C84.4524 79.9032 84.4203 79.8709 84.4203 79.7741V77.4838C84.1634 77.6774 83.7781 77.7741 83.2322 77.7741C82.5258 77.7741 82.012 77.5483 81.723 77.0967C81.434 76.6451 81.3055 75.8387 81.3055 74.7096C81.3055 73.5483 81.4661 72.7742 81.723 72.3225C82.012 71.8709 82.4937 71.6451 83.2322 71.6451C83.8102 71.6451 84.1955 71.7419 84.4203 71.9354V69.5483C84.4203 69.4516 84.4524 69.4193 84.5488 69.4193H85.0625C85.1589 69.4193 85.2231 69.4516 85.2231 69.5483V71.9354C85.4479 71.7419 85.8332 71.6451 86.4112 71.6451C87.1498 71.6451 87.6314 71.8709 87.9204 72.3225ZM84.4524 72.6129C84.2598 72.4516 83.9065 72.3548 83.3928 72.3548C82.879 72.3548 82.5258 72.5161 82.3652 72.8387C82.2047 73.1612 82.1404 73.7741 82.1404 74.7096C82.1404 75.6451 82.2047 76.258 82.3652 76.5806C82.5258 76.9032 82.879 77.0645 83.3928 77.0645C83.9065 77.0645 84.2598 77 84.4524 76.8064V72.6129ZM87.3103 72.8709C87.1498 72.5483 86.8287 72.387 86.3149 72.387C85.8011 72.387 85.4479 72.4516 85.2552 72.6451V76.8709C85.4479 77.0322 85.8011 77.129 86.3149 77.129C86.8287 77.129 87.1819 76.9677 87.3103 76.6451C87.4709 76.3225 87.5672 75.6774 87.5672 74.7741C87.5672 73.8064 87.503 73.1935 87.3103 72.8709Z" fill="black"/>
<path d="M96.0767 72.3225C96.3657 72.7742 96.4941 73.5483 96.4941 74.7096C96.4941 75.8709 96.3657 76.6451 96.0767 77.0967C95.7877 77.5483 95.306 77.7741 94.5675 77.7741C94.0216 77.7741 93.6362 77.6774 93.3793 77.4838V79.7741C93.3793 79.8709 93.3472 79.9032 93.2188 79.9032H92.705C92.6087 79.9032 92.5765 79.8709 92.5765 79.7741V77.4838C92.3197 77.6774 91.9343 77.7741 91.3884 77.7741C90.682 77.7741 90.1682 77.5483 89.8792 77.0967C89.5902 76.6451 89.4618 75.8387 89.4618 74.7096C89.4618 73.5483 89.5902 72.7742 89.8792 72.3225C90.1682 71.8709 90.6499 71.6451 91.3884 71.6451C91.9664 71.6451 92.3518 71.7419 92.5765 71.9354V69.5483C92.5765 69.4516 92.6087 69.4193 92.705 69.4193H93.2188C93.3151 69.4193 93.3793 69.4516 93.3793 69.5483V71.9354C93.6041 71.7419 93.9894 71.6451 94.5675 71.6451C95.306 71.6451 95.7877 71.8709 96.0767 72.3225ZM92.6087 72.6129C92.416 72.4516 92.0628 72.3548 91.549 72.3548C91.0352 72.3548 90.682 72.5161 90.5214 72.8387C90.3609 73.1612 90.2967 73.7741 90.2967 74.7096C90.2967 75.6451 90.3609 76.258 90.5214 76.5806C90.682 76.9032 91.0352 77.0645 91.549 77.0645C92.0628 77.0645 92.416 77 92.6087 76.8064V72.6129ZM95.4666 72.8709C95.306 72.5483 94.9849 72.387 94.4711 72.387C93.9573 72.387 93.6041 72.4516 93.4114 72.6451V76.8709C93.6041 77.0322 93.9573 77.129 94.4711 77.129C94.9849 77.129 95.3381 76.9677 95.4666 76.6451C95.6271 76.3225 95.7235 75.6774 95.7235 74.7741C95.7235 73.8064 95.6592 73.1935 95.4666 72.8709Z" fill="black"/>
<path d="M101.953 72.2258C102.274 72.6129 102.435 73.3871 102.435 74.5161V74.8387C102.435 75.0645 102.403 75.129 102.081 75.129H98.4529C98.485 75.9032 98.5813 76.4516 98.8061 76.7097C99.0309 76.9678 99.4483 77.0968 100.091 77.0968H101.825C101.921 77.0968 101.953 77.129 101.953 77.2258V77.5807C101.953 77.6452 101.921 77.7097 101.825 77.7097C101.343 77.7742 100.765 77.7742 100.091 77.7742C99.0951 77.7742 98.4529 77.5807 98.1318 77.1613C97.8428 76.7742 97.6822 75.9355 97.6822 74.6774C97.6822 73.4194 97.8428 72.6129 98.1318 72.2258C98.4529 71.8387 99.0951 71.6129 100.091 71.6129C101.022 71.6452 101.632 71.8387 101.953 72.2258ZM98.774 72.7742C98.5813 73.0323 98.4529 73.5807 98.4529 74.3871H101.632C101.632 73.5484 101.503 73 101.311 72.7419C101.118 72.4839 100.701 72.3548 100.058 72.3548C99.4162 72.3871 98.9988 72.5161 98.774 72.7742Z" fill="black"/>
<path d="M107.861 71.7097C107.99 71.7097 108.022 71.7742 107.958 71.8388L105.357 74.4839L108.15 77.5484C108.215 77.6129 108.183 77.7097 108.054 77.7097H107.348C107.283 77.7097 107.219 77.6775 107.187 77.6452L104.49 74.6775V77.5807C104.49 77.6775 104.458 77.7097 104.361 77.7097H103.783C103.687 77.7097 103.623 77.6775 103.623 77.5807V71.8388C103.623 71.742 103.655 71.7097 103.783 71.7097H104.361C104.458 71.7097 104.49 71.742 104.49 71.8388V74.3226L107.059 71.7742C107.091 71.742 107.155 71.7097 107.219 71.7097H107.861Z" fill="black"/>
<path d="M113.288 71.7097C113.385 71.7097 113.417 71.742 113.417 71.8388V72.2904C113.417 72.3871 113.385 72.4194 113.288 72.4194H111.362V77.5484C111.362 77.6452 111.329 77.6775 111.233 77.6775H110.655C110.559 77.6775 110.527 77.6452 110.527 77.5484V72.4194H108.6C108.504 72.4194 108.472 72.3871 108.472 72.2904V71.8388C108.472 71.742 108.504 71.7097 108.6 71.7097H113.288Z" fill="black"/>
<path d="M119.454 71.7097C119.518 71.7097 119.55 71.742 119.55 71.8065V77.6129C119.55 77.6775 119.518 77.7097 119.454 77.7097H118.843C118.779 77.7097 118.747 77.6775 118.747 77.6129V73.0323L115.279 77.5807C115.215 77.6775 115.119 77.7097 114.99 77.7097H114.508C114.444 77.7097 114.412 77.6775 114.412 77.6129V71.8065C114.412 71.742 114.444 71.7097 114.508 71.7097H115.119C115.183 71.7097 115.215 71.742 115.215 71.8065V76.2258L118.49 71.9355C118.619 71.7742 118.683 71.7097 118.908 71.7097H119.454Z" fill="black"/>
<path d="M125.651 73.3548C125.651 74.1613 125.426 74.5806 124.88 74.7097V74.7419C125.523 74.8387 125.844 75.3226 125.844 76.1613C125.844 77.4193 125.169 77.8064 123.66 77.8064C122.44 77.8064 121.637 77.7742 121.252 77.7419C121.188 77.7419 121.123 77.6774 121.123 77.6129V71.8387C121.123 71.7742 121.155 71.7419 121.252 71.7097C121.926 71.6774 122.665 71.6451 123.435 71.6451C124.945 71.6451 125.651 72.0968 125.651 73.3548ZM121.958 72.4193V74.4193H123.211C123.821 74.4193 124.238 74.3548 124.463 74.258C124.688 74.1613 124.784 73.9032 124.784 73.4838C124.784 72.6774 124.334 72.4516 123.307 72.4516H121.958V72.4193ZM121.958 75.0645V77.0645H123.66C124.591 77.0645 124.977 76.8387 124.977 76.0968C124.977 75.3226 124.591 75.0967 123.724 75.0967H121.958V75.0645Z" fill="black"/>
<path d="M132.202 71.7097C132.298 71.7097 132.33 71.742 132.33 71.8388V77.5807C132.33 77.6775 132.298 77.7097 132.202 77.7097H131.624C131.527 77.7097 131.463 77.6775 131.463 77.5807V75.0646H127.931V77.5807C127.931 77.6775 127.899 77.7097 127.803 77.7097H127.225C127.128 77.7097 127.064 77.6775 127.064 77.5807V71.8388C127.064 71.742 127.096 71.7097 127.225 71.7097H127.803C127.899 71.7097 127.931 71.742 127.931 71.8388V74.2904H131.463V71.8388C131.463 71.742 131.495 71.7097 131.624 71.7097H132.202Z" fill="black"/>
<path d="M138.078 73.3871V77.2903C138.078 77.4194 138.014 77.5161 137.885 77.5807C137.5 77.7097 136.697 77.8065 135.541 77.8065C134.803 77.8065 134.257 77.6774 133.968 77.4516C133.679 77.1936 133.518 76.742 133.518 76.0968V76C133.518 74.871 134.096 74.4194 135.381 74.4194H137.307V73.5484C137.307 72.742 136.794 72.4194 135.67 72.4194H134.161C134.064 72.4194 134.032 72.3871 134.032 72.2904V71.9678C134.032 71.9033 134.064 71.8387 134.161 71.8065C134.61 71.742 135.124 71.7097 135.67 71.7097C137.243 71.6452 138.078 72.1613 138.078 73.3871ZM137.275 75.0968H135.381C134.931 75.0968 134.61 75.1613 134.482 75.2903C134.353 75.4194 134.289 75.6774 134.289 76.0645V76.0968C134.289 76.9032 134.642 77.0645 135.606 77.0645C136.312 77.0645 136.858 77.0323 137.275 76.9355V75.0968Z" fill="black"/>
<path d="M143.665 71.7097C143.73 71.7097 143.794 71.7419 143.794 71.8064V77.6129C143.794 77.6774 143.762 77.7097 143.665 77.7097H143.055C142.991 77.7097 142.959 77.6774 142.959 77.6129V75.4839H141.61L140.197 77.5484C140.133 77.6451 140.037 77.7097 139.908 77.7097H139.33C139.234 77.7097 139.202 77.6451 139.266 77.5806L140.711 75.4193C140.197 75.3548 139.812 75.1613 139.619 74.9355C139.427 74.6774 139.33 74.2258 139.33 73.6129C139.33 72.8064 139.491 72.2903 139.876 72.0322C140.23 71.7742 140.904 71.6451 141.899 71.6451C142.67 71.6451 143.28 71.6774 143.665 71.7097ZM142.959 72.4193H141.931C141.225 72.4193 140.711 72.4839 140.486 72.6451C140.262 72.8064 140.133 73.129 140.133 73.6451C140.133 74.1613 140.23 74.4838 140.486 74.6129C140.711 74.7419 141.193 74.8064 141.931 74.8064H142.927V72.4193H142.959Z" fill="black"/>
<path d="M151.982 71.7097C152.079 71.7097 152.143 71.742 152.143 71.8388V77.613C152.143 77.6775 152.111 77.7097 152.014 77.7097H151.404C151.34 77.7097 151.308 77.6775 151.308 77.613V72.4517H149.638L149.124 76.1291C148.964 77.3226 148.482 77.742 147.615 77.742C147.455 77.742 147.294 77.742 147.166 77.7097C147.069 77.6775 147.037 77.6452 147.037 77.5807V77.1291C147.037 77.0646 147.069 77.0323 147.133 77.0323H147.294C147.647 77.0323 147.904 76.9678 148 76.8065C148.129 76.6452 148.225 76.3549 148.289 75.9355L148.835 71.8388C148.835 71.7742 148.9 71.7097 148.964 71.7097H151.982Z" fill="black"/>
<path d="M157.955 77.1935C157.634 77.5806 156.959 77.8064 155.964 77.8064C154.969 77.8064 154.294 77.6129 153.973 77.1935C153.652 76.7742 153.491 75.9677 153.491 74.7097C153.491 73.4839 153.652 72.6774 153.973 72.258C154.294 71.8387 154.969 71.6451 155.964 71.6451C156.959 71.6451 157.634 71.8387 157.955 72.258C158.276 72.6451 158.437 73.4839 158.437 74.7097C158.404 75.9677 158.276 76.7742 157.955 77.1935ZM155.964 72.3871C155.258 72.3871 154.808 72.5484 154.583 72.8387C154.391 73.129 154.294 73.7742 154.294 74.7419C154.294 75.7097 154.391 76.3548 154.583 76.6451C154.808 76.9355 155.258 77.0968 155.964 77.0968C156.67 77.0968 157.12 76.9355 157.313 76.6451C157.505 76.3548 157.602 75.7097 157.602 74.7419C157.602 73.7742 157.505 73.1613 157.313 72.8387C157.12 72.5161 156.67 72.3871 155.964 72.3871Z" fill="black"/>
<path d="M163.51 71.7097C163.574 71.7097 163.607 71.742 163.607 71.8065V72.3549C163.607 72.4194 163.574 72.4517 163.51 72.4517H160.62V77.6129C160.62 77.6775 160.588 77.7097 160.524 77.7097H159.914C159.85 77.7097 159.817 77.6775 159.817 77.6129V71.8388C159.817 71.7742 159.849 71.7097 159.946 71.7097H163.51Z" fill="black"/>
<path d="M169.643 71.7096C169.708 71.7096 169.74 71.7419 169.74 71.8064V77.6128C169.74 77.6774 169.708 77.7096 169.643 77.7096H169.033C168.969 77.7096 168.937 77.6774 168.937 77.6128V73.0322L165.469 77.5806C165.405 77.6774 165.308 77.7096 165.18 77.7096H164.698C164.634 77.7096 164.602 77.6774 164.602 77.6128V71.8064C164.602 71.7419 164.634 71.7096 164.698 71.7096H165.308C165.373 71.7096 165.405 71.7419 165.405 71.8064V76.2257L168.68 71.9032C168.808 71.7419 168.873 71.6774 169.097 71.6774H169.643V71.7096Z" fill="black"/>
<path d="M175.199 71.742C175.295 71.742 175.327 71.8065 175.327 71.871V72.2258C175.327 72.3226 175.295 72.3549 175.199 72.3549H173.593C172.887 72.3549 172.437 72.5162 172.212 72.8065C172.02 73.0968 171.923 73.742 171.923 74.7097C171.923 75.6775 172.02 76.3226 172.212 76.6129C172.437 76.9033 172.887 77.0646 173.593 77.0646H175.199C175.295 77.0646 175.327 77.0968 175.327 77.1936V77.5484C175.327 77.6129 175.295 77.6775 175.199 77.6775C174.717 77.742 174.171 77.742 173.561 77.742C172.566 77.742 171.891 77.5484 171.57 77.1291C171.249 76.7097 171.088 75.9033 171.088 74.6452C171.088 73.4194 171.249 72.6129 171.57 72.1936C171.891 71.7742 172.566 71.5807 173.561 71.5807C174.267 71.6452 174.813 71.6775 175.199 71.742Z" fill="black"/>
<path d="M180.69 71.7097C180.786 71.7097 180.85 71.742 180.85 71.8388V72.2904C180.85 72.3871 180.818 72.4194 180.69 72.4194H178.763V77.5484C178.763 77.6452 178.731 77.6775 178.635 77.6775H178.057C177.96 77.6775 177.896 77.6452 177.896 77.5484V72.4194H175.969C175.873 72.4194 175.841 72.3871 175.841 72.2904V71.8388C175.841 71.742 175.873 71.7097 175.969 71.7097H180.69Z" fill="black"/>
<path d="M186.887 71.7097C186.951 71.7097 186.983 71.742 186.983 71.8065V77.6129C186.983 77.6775 186.951 77.7097 186.887 77.7097H186.245C186.181 77.7097 186.149 77.6775 186.149 77.6129V73.0323L182.681 77.5807C182.616 77.6775 182.52 77.7097 182.392 77.7097H181.91C181.846 77.7097 181.814 77.6775 181.814 77.6129V71.8065C181.814 71.742 181.846 71.7097 181.91 71.7097H182.52C182.584 71.7097 182.616 71.742 182.616 71.8065V76.2258L185.924 71.9355C186.052 71.7742 186.116 71.7097 186.341 71.7097H186.887Z" fill="black"/>
<path d="M192.763 71.7097C192.892 71.7097 192.924 71.7742 192.86 71.8388L190.259 74.4839L193.052 77.5484C193.117 77.6129 193.085 77.7097 192.956 77.7097H192.25C192.185 77.7097 192.121 77.6775 192.057 77.6452L189.36 74.6775V77.5807C189.36 77.6775 189.328 77.7097 189.231 77.7097H188.653C188.557 77.7097 188.525 77.6775 188.525 77.5807V71.8388C188.525 71.742 188.557 71.7097 188.653 71.7097H189.231C189.328 71.7097 189.36 71.742 189.36 71.8388V74.3226L191.929 71.7742C191.961 71.742 192.025 71.7097 192.089 71.7097H192.763Z" fill="black"/>
<path d="M197.741 73.3871V77.2903C197.741 77.4194 197.676 77.5161 197.548 77.5807C197.163 77.7097 196.36 77.8065 195.204 77.8065C194.465 77.8065 193.919 77.6774 193.63 77.4516C193.342 77.1936 193.181 76.742 193.181 76.0968V76C193.181 74.871 193.759 74.4194 195.043 74.4194H196.97V73.5484C196.97 72.742 196.456 72.4194 195.332 72.4194H193.823C193.727 72.4194 193.663 72.3871 193.663 72.2904V71.9678C193.663 71.9033 193.695 71.8387 193.791 71.8065C194.241 71.742 194.754 71.7097 195.3 71.7097C196.906 71.6452 197.741 72.1613 197.741 73.3871ZM196.938 75.0968H195.043C194.594 75.0968 194.273 75.1613 194.144 75.2903C194.016 75.4194 193.952 75.6774 193.952 76.0645V76.0968C193.952 76.9032 194.305 77.0645 195.268 77.0645C195.975 77.0645 196.52 77.0323 196.938 76.9355V75.0968Z" fill="black"/>
<path d="M200.085 77.2581C200.085 77.6129 199.924 77.8065 199.571 77.8065C199.218 77.8065 199.025 77.6129 199.025 77.2581C199.025 76.9032 199.218 76.7419 199.571 76.7419C199.924 76.7419 200.085 76.9032 200.085 77.2581Z" fill="black"/>
<path d="M106.095 13.0968V28.2258H99.641V14.1613C99.641 11.1613 102.049 8.74194 105.036 8.74194H119.036V13.0645H106.095V13.0968Z" fill="black"/>
<path d="M89.9113 8.77417H88.8196V23.9032H75.9109V13.0968H82.6863L86.9571 8.80643V8.77417H74.8512C71.8649 8.77417 69.4565 11.1935 69.4565 14.1935V22.8387C69.4565 25.8387 71.8649 28.258 74.8512 28.258H89.9113C92.8977 28.258 95.306 25.8387 95.306 22.8387V14.1935C95.306 11.1935 92.8977 8.77417 89.9113 8.77417Z" fill="black"/>
<path d="M170.029 8.77417H151.725V13.0968H168.937V23.9032H156.028V19.5806H162.739L167.042 15.258H154.936C151.95 15.258 149.542 17.6774 149.542 20.6774V22.8387C149.542 25.8387 151.95 28.258 154.936 28.258H169.997C172.983 28.258 175.391 25.8387 175.391 22.8387V21.7419V20.6451V14.1613C175.391 11.1935 172.983 8.77417 170.029 8.77417Z" fill="black"/>
<path d="M47.7172 3.45161L38.0518 28.2258H44.4419L53.7541 4.32258H57.9928V28.2258H64.3829V0H52.6945C50.5109 0 48.52 1.3871 47.7172 3.45161Z" fill="black"/>
<path d="M127.899 3.45161L118.233 28.2258H124.624L133.936 4.32258H138.174V28.2258H144.565V0H132.876C130.693 0 128.734 1.3871 127.899 3.45161Z" fill="black"/>
<path d="M206.057 8.77417H185.603C182.616 8.77417 180.208 11.1935 180.208 14.1935V20.6451V21.7419V22.8387C180.208 25.8387 182.616 28.258 185.603 28.258H200.663C203.649 28.258 206.057 25.8387 206.057 22.8387V20.6451C206.057 17.6451 203.649 15.2258 200.663 15.2258H192.86L188.557 19.5484H199.571V23.8709H186.662V13.0645H206.025V8.77417H206.057Z" fill="black"/>
<path d="M26.01 55.4839V0.0322876H20.23H13.2298V51C13.2298 58.4194 19.2346 64.4516 26.6202 64.4516H64.3829V57.4194V55.4839H26.01Z" fill="#EF373E"/>
<path d="M7.12866 6.16132V51.0645C7.12866 61.8387 15.8308 70.5807 26.5559 70.5807H58.2818L64.3829 64.4516H26.6202C19.2346 64.4516 13.2298 58.4194 13.2298 51V0.0322876L7.12866 6.16132Z" fill="#7C072D"/>
<path d="M26.556 72.8387C14.6106 72.8387 4.88089 63.0645 4.88089 51.0645V8.41937L0.192657 13.129V51.0968C0.192657 65.7097 11.9775 77.5484 26.5238 77.5484H51.3458L56.034 72.8387H26.556Z" fill="#7C072D"/>
</g>
<defs>
<clipPath id="clip0_2331_86606">
<rect width="207" height="80" fill="white"/>
</clipPath>
</defs>
</svg>
