<svg width="534" height="100" viewBox="0 0 534 100" fill="none" xmlns="http://www.w3.org/2000/svg">
<g clip-path="url(#clip0_30726_104399)">
<path d="M119 103C96.7377 59.4115 84.2411 30.0786 73.8621 11.9954C63.483 -6.08784 53.2306 -1.76364 45.3333 11.9954C37.4361 25.7544 22.0885 59.7826 0 103L59.9885 43.4439L119 103Z" fill="white"/>
<path d="M380.862 24.4954V13.7938C380.862 12.7866 381.495 11.7794 382.507 11.5276L382.887 11.4017L389.467 9.38727C389.973 9.26137 390.479 9.13547 390.985 9.00957C392.377 8.88367 393.516 10.0168 393.516 11.4017V24.6212H406.549C407.814 24.6212 408.953 25.7544 408.953 27.0134V32.6789C408.953 33.9379 407.814 35.071 406.549 35.071H393.516C393.516 44.6394 393.516 54.3338 393.516 63.9022C393.516 64.9094 393.642 66.0425 393.895 67.1756C395.034 71.5821 397.692 72.7152 401.235 72.3375C401.994 72.2116 402.753 72.0857 403.512 71.9598C404.778 71.708 406.169 72.0858 406.676 73.4707L408.447 78.6326C408.827 79.6398 408.574 80.647 407.814 81.2765C407.561 81.5283 407.182 81.6542 406.929 81.7801C406.043 82.1578 405.157 82.4096 404.145 82.6614C399.083 83.9204 393.895 83.5427 389.34 81.4024C388.834 81.1506 388.201 80.7729 387.695 80.5211C387.189 80.1434 386.683 79.7657 386.177 79.388C383.899 77.4995 382.634 75.2333 381.875 72.8412C381.115 70.575 380.989 68.1828 380.989 66.1684C380.989 55.8446 380.989 45.5207 380.989 35.3228H371.246C369.98 35.3228 368.841 34.1897 368.841 32.9307V27.1393C368.841 25.8803 369.98 24.7471 371.246 24.7471H380.862V24.4954ZM145 79.7657V26.8875C145 25.5026 145.886 24.4954 147.404 24.4954C166.131 24.4954 186.504 24.4954 204.725 24.4954C213.076 24.4954 219.656 28.9019 222.566 36.5818C223.705 39.7293 224.338 43.2545 224.338 47.0315V79.7657C224.338 81.0247 223.326 82.1578 221.934 82.1578H214.342C213.076 82.1578 211.937 81.1506 211.937 79.7657V57.859C211.937 55.0892 211.937 52.3194 211.937 49.5496C211.937 42.8768 210.292 39.3516 207.509 37.7149C204.598 35.9523 200.043 35.7005 194.728 35.8264C193.337 35.8264 191.818 35.8264 190.426 35.8264V79.8916C190.426 81.1506 189.414 82.2837 188.022 82.2837H180.303C179.038 82.2837 177.899 81.2765 177.899 79.8916V35.8264C171.193 35.8264 164.613 35.8264 157.907 35.8264V79.8916C157.907 81.1506 156.768 82.2837 155.502 82.2837H147.278C145.886 82.2837 145 81.1506 145 79.7657ZM505.5 39.6034C499.047 46.5279 498.414 58.2367 504.235 65.6648C504.741 66.4202 505.373 67.0497 506.006 67.6792C512.08 73.3447 521.443 73.2188 529.162 71.4562C530.427 71.2044 531.693 71.834 532.072 73.093L533.844 78.3808C534.35 79.7657 533.591 81.1506 532.072 81.6542C523.215 83.9204 513.472 83.9204 504.867 80.3952C498.54 77.7513 493.479 73.4706 490.442 67.931C483.862 56.2223 486.14 39.9811 496.516 31.294C500.565 27.8947 505.5 25.6285 511.067 24.4954C518.153 23.1104 525.113 23.7399 532.072 25.6284C533.464 26.0061 534.223 27.517 533.717 28.9019L531.946 33.9379C531.44 35.4487 530.174 35.9523 528.782 35.5746C520.937 33.812 511.574 33.1825 505.5 39.6034ZM294.439 51.1863C294.439 51.8158 294.439 52.5712 294.439 53.2007C294.439 54.082 294.565 55.0892 293.806 55.8446C293.426 56.3482 292.667 56.7259 292.034 56.7259H254.706C254.833 61.8878 257.617 66.7979 262.552 69.5677C269.258 73.3447 279.001 72.0857 286.34 69.3159C287.606 68.8123 289.124 69.4418 289.504 70.8267L291.275 75.8628C291.655 76.9959 291.275 78.3808 290.01 78.8844C283.43 82.0319 275.332 83.6686 267.74 83.0391C258.249 82.2837 249.771 77.8772 245.343 69.6936C242.559 64.5317 241.42 58.6144 241.42 52.823C241.547 40.8624 247.241 29.2796 258.882 25.2507C265.335 22.9845 272.927 22.9845 279.254 25.5025C283.177 27.0133 286.34 29.5314 288.744 32.6789C292.667 37.9667 294.059 44.6394 294.439 51.1863ZM254.833 46.7797H281.785C281.405 39.6034 275.711 33.9379 268.499 33.9379C260.78 34.0638 255.972 39.7293 254.833 46.7797ZM473.486 51.1863C473.486 51.8158 473.486 52.5712 473.486 53.2007C473.486 54.082 473.613 55.0892 472.854 55.8446C472.474 56.3482 471.715 56.7259 471.082 56.7259H433.754C433.881 61.8878 436.665 66.7979 441.599 69.5677C448.306 73.3447 458.049 72.0857 465.388 69.3159C466.653 68.8123 468.172 69.4418 468.551 70.8267L470.323 75.8628C470.703 76.9959 470.323 78.3808 469.058 78.8844C462.478 82.0319 454.38 83.6686 446.787 83.0391C437.297 82.2837 428.819 77.8772 424.391 69.6936C421.607 64.6576 420.468 58.6144 420.468 52.823C420.595 40.8624 426.289 29.2796 437.93 25.2507C444.383 22.9845 451.975 22.9845 458.302 25.5025C462.225 27.0133 465.388 29.5314 467.792 32.6789C471.841 37.9667 473.233 44.6394 473.486 51.1863ZM433.881 46.7797H460.833C460.453 39.6034 454.759 33.9379 447.547 33.9379C439.828 34.0638 435.146 39.7293 433.881 46.7797ZM335.056 23.4881C337.84 23.4881 340.497 23.7399 343.028 24.3694C344.926 24.873 346.571 25.3766 348.216 26.2579C349.861 27.1393 351.253 28.1465 352.518 29.4055C355.176 32.0494 356.567 35.071 357.327 38.0926C358.086 41.1142 358.086 44.2617 358.086 47.4092V79.8916C358.086 81.4024 356.821 82.2837 355.429 82.2837H349.102C347.71 82.2837 346.698 81.1506 346.698 79.8916V77.1218C344.04 79.2621 341.763 80.647 339.232 81.6542C332.905 84.1722 324.807 83.7945 318.607 81.0247C317.974 80.7729 317.468 80.5211 316.835 80.1434C311.521 77.1218 308.611 71.7081 308.611 65.5389C308.611 55.2151 315.95 49.1718 325.06 47.1574C328.477 46.402 333.158 45.8984 339.612 45.8984C341.004 45.8984 342.902 45.8984 344.673 46.0243C344.926 46.0243 345.179 46.0243 345.432 46.0243C345.432 45.3948 345.432 44.7653 345.432 44.1358C345.432 41.2401 344.8 38.7221 342.522 36.7077C339.612 34.1897 334.93 33.5602 331.134 34.0638C327.338 34.4415 323.415 35.7005 320.125 36.9595C319.619 37.2113 319.239 37.2113 318.607 37.2113C318.101 37.0854 317.595 36.8336 317.215 36.4559C316.962 36.2041 316.835 35.8264 316.582 35.4487L315.064 30.9163C314.684 30.035 314.811 28.9019 315.57 28.2724C315.823 28.0206 316.203 27.7688 316.582 27.6429C322.529 24.9989 328.603 23.4881 335.056 23.4881ZM344.8 63.2727C345.306 62.0137 345.559 60.7547 345.559 59.4957C345.559 58.2367 345.559 56.9777 345.559 55.7187C342.649 55.5928 339.612 55.4669 336.701 55.5928C332.273 55.8446 326.452 56.4741 323.542 60.2511C321.138 63.3986 321.391 68.0569 324.554 70.5749C326.705 72.3375 329.489 72.8412 332.273 72.5894C334.55 72.3376 336.828 71.5821 338.853 70.3231C341.51 68.6864 343.787 66.1684 344.8 63.2727Z" fill="white"/>
</g>
<defs>
<clipPath id="clip0_30726_104399">
<rect width="534" height="100" fill="white"/>
</clipPath>
</defs>
</svg>
