<svg width="108" height="18" viewBox="0 0 108 18" fill="none" xmlns="http://www.w3.org/2000/svg">
<path d="M18.0642 0L25.2835 17.3146H22.1674L16.5062 3.74489L14.1994 9.25635L17.5545 17.3146H14.4393L12.6421 13.031L10.8442 17.3146H7.69913L11.0841 9.25635L8.77727 3.74489L3.11605 17.3146H0L7.22005 0H10.3353L12.6421 5.54206L14.9184 0H18.0642ZM107.901 5.06297C107.901 10.0954 102.15 10.0954 102.15 10.0954H99.2747V17.3146H96.3688V7.24904H99.1249L96.3688 2.9059V0H102.15C102.15 0 107.901 3.07152e-07 107.901 5.06297ZM105.056 5.06297C105.056 2.9059 102.15 2.9059 102.15 2.9059H99.8134L102.51 7.21925C103.289 7.09928 105.056 6.74016 105.056 5.06297ZM77.4664 0H80.3723V12.5817L88.9998 0H91.9653V17.3146H89.0296V4.5533L80.4319 17.3146H77.4664V0ZM73.6321 12.0721C73.6321 16.8355 68.8091 17.3146 67.6408 17.3146H61.8596V0H72.6136V2.81572H64.7349V6.98011H67.6408C71.7746 6.98011 73.6321 8.92703 73.6321 12.0721ZM70.756 12.0721C70.756 10.0953 68.9291 9.79583 67.6408 9.79583H64.7349V14.4691H67.6408C68.8389 14.4691 70.756 14.1092 70.756 12.0721ZM58.3546 5.06297C58.3546 10.0954 52.6032 10.0954 52.6032 10.0954H49.7271V17.3146H46.8212V7.24904H49.5774L46.8212 2.9059V0H52.6032C52.6032 0 58.3546 3.07152e-07 58.3546 5.06297ZM55.4785 5.06297C55.4785 2.9059 52.6032 2.9059 52.6032 2.9059H50.2666L52.9623 7.21925C53.7417 7.09928 55.4785 6.74016 55.4785 5.06297ZM27.889 0H30.8247V12.5817L39.4522 0H42.4177V17.3146H39.482V4.5533L30.8553 17.3146H27.889V0Z" fill="#2A1C1A"/>
</svg>
