<svg width="300" height="52" viewBox="0 0 300 52" fill="none" xmlns="http://www.w3.org/2000/svg">
<g clip-path="url(#clip0_2331_86536)">
<path d="M214.858 3.83231C212.48 3.7301 210.107 4.13765 207.899 5.02764C205.691 5.91762 203.699 7.26947 202.056 8.9925C198.741 12.6947 197.008 17.5484 197.23 22.5129C197.129 24.8614 197.497 27.2065 198.311 29.4117C199.125 31.6169 200.37 33.6382 201.972 35.358C203.565 36.994 205.484 38.2779 207.604 39.1266C209.724 39.9754 211.998 40.3702 214.28 40.2856C216.614 40.3735 218.94 39.9655 221.105 39.0885C223.269 38.2115 225.224 36.8854 226.838 35.1977C230.154 31.5453 231.889 26.7291 231.664 21.8015C231.882 17.0161 230.211 12.3366 227.012 8.77119C225.452 7.13004 223.559 5.84045 221.461 4.98841C219.363 4.13637 217.107 3.74147 214.844 3.83005L214.858 3.83231ZM0 4.42398V39.6104H7.12264V20.153C7.12264 17.5364 7.0165 14.4937 6.80422 11.025H7.03005C7.03005 11.025 7.90401 15.2954 16.4855 39.6104H22.9465C31.5031 14.7353 32.2777 11.0272 32.2777 11.0272H32.4742C32.2077 13.5283 32.1096 16.0444 32.1806 18.5586V39.6081H39.9852V4.42398H28.6938L21.535 25.2318C20.9819 26.8994 20.5161 28.5947 20.1394 30.3107H19.9926C19.7252 28.6008 19.3073 26.9179 18.7438 25.2815L11.5737 4.42398H0ZM99.4911 4.42398V39.6736H106.968V20.3043C106.968 17.7449 106.903 15.8441 106.772 14.6021H106.869C107.406 15.6106 107.996 16.5905 108.635 17.5379L123.124 39.6872H131.121V4.42624H123.634V23.9198C123.595 25.5356 123.663 27.1523 123.835 28.7593H123.732C123.191 27.8093 122.603 26.851 121.968 25.8845L108.023 4.43076L99.4911 4.42398ZM141.007 4.42398V39.6736H162.093V33.2352H148.927V25.1777H160.429V18.7302H148.927V10.8872H161.287V4.42398H141.007ZM166.763 4.42398V10.8872H176.743V39.6736H184.687V10.8872H194.712V4.42398H166.763ZM239.358 4.42398V39.6736H247.283V26.1781H249.417C249.886 26.1746 250.35 26.2797 250.772 26.4852C251.219 26.7114 251.626 27.0106 251.975 27.3704C252.391 27.7988 252.769 28.2628 253.104 28.757C253.484 29.299 253.872 29.9133 254.281 30.6021L259.748 39.6713H268.84L262.21 29.2426C261.86 28.7006 261.485 28.1496 261.067 27.585C260.66 27.0334 260.222 26.5056 259.755 26.0042C259.32 25.5331 258.845 25.1008 258.335 24.7124C257.877 24.3606 257.362 24.0901 256.812 23.913V23.8227C257.956 23.5009 259.049 23.0205 260.06 22.3954C261.001 21.815 261.84 21.0842 262.544 20.232C263.232 19.3917 263.771 18.44 264.138 17.4182C264.521 16.324 264.71 15.1717 264.698 14.0127C264.698 7.62172 260.433 4.42624 251.903 4.42624L239.358 4.42398ZM300 4.42398H291.613C285.852 17.6734 285.308 19.2722 285.095 20.4578H284.996C284.544 18.7867 284.285 17.8269 278.521 4.42398H269.477L280.633 27.2846V39.6736H288.553V27.1378L300 4.42398ZM247.283 10.3723H250.864C254.545 10.3723 256.386 11.9132 256.386 14.995C256.399 15.6901 256.265 16.3801 255.993 17.0196C255.72 17.6591 255.316 18.2337 254.805 18.7054C254.254 19.2085 253.608 19.5978 252.906 19.8509C252.204 20.1039 251.458 20.2158 250.713 20.1801H247.283V10.3723ZM214.406 10.6636H214.436H214.641C215.872 10.6166 217.095 10.8694 218.207 11.4C219.318 11.9307 220.284 12.7235 221.021 13.7101C222.71 16.2221 223.527 19.22 223.345 22.2419C223.519 25.1778 222.671 28.0834 220.944 30.4643C220.145 31.4003 219.151 32.1504 218.032 32.6621C216.913 33.1737 215.695 33.4346 214.464 33.4264C213.234 33.4182 212.02 33.1412 210.907 32.6147C209.795 32.0883 208.811 31.325 208.024 30.3785C206.273 27.9832 205.406 25.0554 205.57 22.0928C205.426 19.1291 206.291 16.2042 208.024 13.7959C208.773 12.8139 209.739 12.0192 210.847 11.4745C211.955 10.9297 213.174 10.6498 214.409 10.6569L214.406 10.6636ZM67.5228 14.1414C67.4542 14.1427 67.3861 14.1518 67.3196 14.1685C65.1096 14.7378 63.1833 16.0936 61.9017 17.9818C60.6201 19.8701 60.0713 22.1609 60.3582 24.4249C60.6452 26.6888 61.7481 28.7704 63.4602 30.2792C65.1723 31.788 67.376 32.6204 69.658 32.6204C71.9401 32.6204 74.1438 31.788 75.8559 30.2792C77.568 28.7704 78.6709 26.6888 78.9578 24.4249C79.2447 22.1609 78.6959 19.8701 77.4143 17.9818C76.1327 16.0936 74.2064 14.7378 71.9965 14.1685C71.8625 14.1339 71.7224 14.1305 71.5869 14.1587C71.4514 14.1868 71.3242 14.2457 71.2151 14.3309C71.1059 14.416 71.0178 14.525 70.9576 14.6496C70.8973 14.7741 70.8664 14.9109 70.8673 15.0492V15.6793C70.8675 15.8794 70.9341 16.0739 71.0567 16.232C71.1793 16.3902 71.351 16.5032 71.5448 16.5532C73.1619 17.0067 74.5601 18.0302 75.481 19.4347C76.4019 20.8391 76.7832 22.5295 76.5544 24.1933C76.3255 25.8571 75.502 27.3817 74.2362 28.4854C72.9703 29.5891 71.3476 30.1971 69.6682 30.1971C67.9887 30.1971 66.3661 29.5891 65.1002 28.4854C63.8343 27.3817 63.0108 25.8571 62.782 24.1933C62.5532 22.5295 62.9344 20.8391 63.8553 19.4347C64.7762 18.0302 66.1745 17.0067 67.7915 16.5532C67.9853 16.5032 68.157 16.3902 68.2796 16.232C68.4023 16.0739 68.4689 15.8794 68.469 15.6793V15.0492C68.4691 14.9279 68.4447 14.8078 68.3974 14.6961C68.35 14.5844 68.2806 14.4834 68.1934 14.399C68.1061 14.3147 68.0028 14.2489 67.8895 14.2054C67.7762 14.1619 67.6554 14.1417 67.5341 14.1459L67.5228 14.1414Z" fill="white"/>
<path fill-rule="evenodd" clip-rule="evenodd" d="M53.0653 24.0191C52.9385 20.9178 53.711 17.8459 55.2897 15.1734C56.7055 12.727 58.7223 10.6824 61.1492 9.23328C63.576 7.78413 66.3325 6.97837 69.1578 6.89229C71.7381 6.77869 74.3072 7.29408 76.644 8.39406C76.8726 8.48075 77.0946 8.58415 77.308 8.70344C77.951 9.04091 78.5725 9.41802 79.1688 9.83259C79.9603 10.3727 80.6964 10.99 81.3661 11.6753C81.7016 11.9908 82.0183 12.3256 82.3146 12.678C83.2762 13.7623 84.0771 14.9792 84.6926 16.2913C85.6578 18.2954 86.2034 20.4756 86.296 22.6981V24.2292C86.1588 27.8975 84.7951 31.4138 82.423 34.2153L81.2148 35.5116C81.1267 35.5974 81.0477 35.6448 80.9506 35.7374C78.4997 37.9767 75.4388 39.4375 72.1564 39.9344C68.874 40.4314 65.5179 39.9421 62.5139 38.5287C59.0233 36.8455 56.2249 34.0033 54.5964 30.4869C53.6248 28.4637 53.1025 26.2542 53.0653 24.0101V24.0191ZM68.7965 0H70.5038C72.823 0.0900843 75.1178 0.509038 77.3193 1.24432C77.4751 1.29626 77.6083 1.33465 77.7393 1.38433C79.9494 2.20323 82.029 3.33815 83.9135 4.7537L85.5914 6.14254L88.0145 8.7328C90.281 11.5167 91.8697 14.7892 92.6553 18.2921C93.2118 20.6927 93.372 23.168 93.1295 25.6203C92.8002 29.373 91.5649 32.9896 89.5298 36.1597L88.7372 37.386C88.963 37.7179 95.7966 44.4725 96.4153 45.0958C97.7319 46.4146 98.3484 46.9024 98.3484 48.8039C98.2793 49.6114 97.9275 50.3687 97.3549 50.9425C96.7824 51.5163 96.0259 51.8697 95.2185 51.9406C93.2921 51.9406 92.8066 51.3038 91.4742 49.9737C90.8487 49.3481 84.1167 42.5484 83.796 42.3316C82.1946 43.5289 80.4497 44.5212 78.602 45.2854C77.5982 45.6954 76.5684 46.0387 75.5194 46.313C74.3925 46.6029 73.2449 46.8052 72.0868 46.9182C69.602 47.1479 67.0967 47.0033 64.6548 46.4891C61.5963 45.8172 58.7012 44.5462 56.1365 42.7494C55.7391 42.4694 55.3913 42.1871 54.9893 41.8754C54.0419 41.1108 53.1492 40.2807 52.3178 39.3913L50.9628 37.7586C49.4293 35.7577 48.2332 33.5196 47.4218 31.1328C46.4858 28.4715 46.0628 25.6569 46.1752 22.8381C46.2015 21.1415 46.4289 19.4541 46.8527 17.8111C47.5448 14.9958 48.7606 12.3359 50.4366 9.97034C51.6135 8.31944 52.9911 6.82125 54.5377 5.51022C58.5438 2.13435 63.5635 0.194796 68.7988 0L68.7965 0Z" fill="#A34EFF"/>
</g>
<defs>
<clipPath id="clip0_2331_86536">
<rect width="300" height="52" fill="white"/>
</clipPath>
</defs>
</svg>
