<svg width="216" height="50" viewBox="0 0 216 50" fill="none" xmlns="http://www.w3.org/2000/svg">
<g clip-path="url(#clip0_4425_25288)">
<path fill-rule="evenodd" clip-rule="evenodd" d="M210.906 41.4334C208.65 41.4334 206.576 43.2513 206.576 45.4424C206.576 47.8102 208.65 49.637 210.906 49.637C213.168 49.637 215.242 47.8102 215.242 45.4424C215.242 43.2513 213.168 41.4334 210.906 41.4334ZM10.6068 4.40307L24.3694 31.1906C25.2034 32.8049 25.9233 34.3513 26.531 35.8245C27.1315 37.3066 27.7873 38.8049 28.4983 40.3424H28.7496C28.5821 38.5227 28.468 36.5816 28.4039 34.5227C28.3433 32.4638 28.3148 30.3834 28.3148 28.2816V4.40307H35.4447V49.1906H25.9982L12.9199 24.0352C12.2142 22.7441 11.4729 21.2691 10.7013 19.6102C9.93142 17.9566 9.18654 16.2602 8.48085 14.5245H8.22959C8.3971 16.6245 8.52006 18.687 8.60381 20.7066C8.68935 22.7245 8.73034 24.7281 8.73034 26.7084V49.1906H1.53809V4.40307H10.6068ZM42.3803 30.0031C42.3803 25.1513 43.6776 21.5138 46.2616 19.1049C48.8437 16.6959 52.3917 15.4906 56.8967 15.4906C65.862 15.4906 70.3438 20.3799 70.3438 30.1513V34.1031H50.0127V36.0388C50.0127 41.1263 52.308 43.6709 56.8967 43.6709C58.9781 43.6709 60.4821 43.2816 61.4016 42.4977C62.3158 41.7084 62.8148 40.7477 62.9039 39.6138H69.909C69.4475 42.7656 68.2179 45.2441 66.2167 47.037C64.2137 48.8388 61.1664 49.7334 57.0838 49.7334C47.2827 49.7334 42.3803 44.8977 42.3803 35.2209V30.0031ZM63.091 28.7049C63.091 26.0388 62.5992 24.1799 61.6208 23.1281C60.6389 22.0781 59.0226 21.5513 56.7684 21.5513C54.3947 21.5513 52.6822 22.1388 51.6415 23.3102C50.599 24.4834 50.0769 26.2763 50.0769 28.7049H63.091ZM85.5713 7.49593V16.1031H92.4552V21.3084H85.5713V42.1584C85.5713 43.4941 86.1557 44.1584 87.3212 44.1584C88.41 44.1584 89.3367 44.0566 90.1047 43.8584C90.8763 43.6549 91.8065 43.3334 92.8918 42.8852L95.0195 47.9781C94.0163 48.5049 90.8496 49.7334 87.2606 49.7334C81.0485 49.7334 77.9406 46.8066 77.9406 40.9495V21.3084H74.4977V16.1031H77.9406V10.0709L85.5713 7.49593ZM107.565 49.1906H99.9326V18.8316C102.062 17.6227 107.399 14.8691 117.641 15.6763V22.2834C112.009 21.9281 108.483 22.7906 107.565 23.0691V49.1906ZM173.503 24.6406C173.983 21.1995 175.321 15.5513 187.015 15.5513C197.495 15.5513 198.94 20.6066 199.402 22.0977C199.86 23.5959 200.089 25.3709 200.089 27.4316V47.0709C195.8 48.6352 193.745 49.7334 183.7 49.7334C179.944 49.7334 177.164 48.937 175.346 47.3406C173.534 45.7424 172.625 43.1941 172.625 39.6745V38.2781C172.625 34.887 173.534 32.4834 175.346 31.0709C177.164 29.6602 179.944 28.9477 183.7 28.9477C186.325 28.9477 188.316 29.0477 189.674 29.2477C191.026 29.4549 191.999 29.6602 192.584 29.8566V26.3406C192.584 24.7263 192.135 23.5049 191.236 22.6763C190.342 21.8459 188.87 21.4352 186.828 21.4352C184.948 21.4352 183.479 21.6674 182.414 22.1299C181.353 22.5906 180.715 23.4299 180.507 24.6406H173.503ZM180.193 40.7066C180.193 42.9227 181.341 44.0352 183.636 44.0352C186.266 44.0352 188.243 43.9602 189.579 43.7977C190.912 43.637 191.915 43.4138 192.584 43.1299V35.1316C191.748 34.887 190.645 34.6852 189.264 34.5227C187.888 34.362 186.012 34.2834 183.636 34.2834C181.341 34.2834 180.193 35.2459 180.193 37.1941V40.7066ZM130.829 49.1906H123.2V16.1013H130.829V49.1906ZM127.012 2.43521C124.756 2.43521 122.682 4.25485 122.682 6.44236C122.682 8.81378 124.756 10.6406 127.012 10.6406C129.272 10.6406 131.346 8.81378 131.346 6.44236C131.346 4.25485 129.272 2.43521 127.012 2.43521ZM166.719 42.2191C166.32 41.1727 165.707 40.0781 164.873 38.9477C164.873 38.9477 158.094 30.262 157.681 29.8566V29.6799C158.094 29.437 161.124 27.0888 162.494 25.9191C164.037 24.6209 165.142 23.2781 165.814 21.8834C166.481 20.4941 166.814 18.9513 166.814 17.2513V16.162H159.431V17.9763C159.431 19.3906 158.912 20.5459 157.87 21.4352L150.302 28.037C149.09 29.087 148.181 29.887 147.577 30.4334C146.969 30.9799 146.504 31.4513 146.169 31.8584V1.49414L138.535 3.98164V49.1888H146.169V39.0566C147.194 38.3941 148.222 37.6656 149.266 36.8245C150.369 35.9352 151.508 34.9674 152.677 33.9191C152.8 34.3227 153.156 34.9084 153.737 35.6816C154.318 36.4459 155.09 37.5334 156.054 38.9477L158.554 42.7066C159.386 43.8799 159.807 45.1299 159.807 46.4656V49.1888H167.313V45.9763C167.313 44.5227 167.115 43.2745 166.719 42.2191Z" fill="#1DCBA4"/>
</g>
<defs>
<clipPath id="clip0_4425_25288">
<rect width="215.625" height="50" fill="white"/>
</clipPath>
</defs>
</svg>
