<svg width="300" height="37" viewBox="0 0 300 37" fill="none" xmlns="http://www.w3.org/2000/svg">
<g clip-path="url(#clip0_4253_23671)">
<mask id="mask0_4253_23671" style="mask-type:luminance" maskUnits="userSpaceOnUse" x="0" y="0" width="300" height="37">
<path d="M300 0H0V36.3158H300V0Z" fill="white"/>
</mask>
<g mask="url(#mask0_4253_23671)">
<path d="M25.0998 22.9916L5.8107 0.953125H0V35.3627H7.26836V13.3242L26.5576 35.3627H32.3682V0.953125H25.0998V22.9916Z" fill="#2E2C7F"/>
<path d="M40.6339 35.3627H71.0253V28.7492H47.9022V21.4549H67.8303V14.8609H47.9022V7.5666H71.0253V0.953125H40.6339V35.3627Z" fill="#2E2C7F"/>
<path d="M105.93 0.953125L96.0657 13.1686L86.1814 0.953125H77.1958L91.0737 18.1677L77.1958 35.3627H86.1814L96.0657 23.1666L105.93 35.3627H114.915L101.038 18.1677L114.915 0.953125H105.93Z" fill="#2E2C7F"/>
<path d="M150.82 0.953125H118.951V7.5666H131.251V35.3627H138.52V7.5666H150.82V0.953125Z" fill="#2E2C7F"/>
<path d="M171.408 0C161.783 0 152.018 6.24391 152.018 18.1676C152.018 30.0914 161.762 36.3158 171.408 36.3158C181.052 36.3158 190.776 30.0718 190.776 18.1676C190.776 6.26335 181.052 0 171.408 0ZM183.508 18.1676C183.508 24.8589 178.417 29.7218 171.408 29.7218C164.398 29.7218 159.306 24.8589 159.306 18.1676C159.306 11.4763 164.398 6.61348 171.408 6.61348C178.417 6.61348 183.508 11.4763 183.508 18.1676Z" fill="#2E2C7F"/>
<path d="M221.465 22.9916L202.177 0.953125H196.367V35.3627H203.635V13.3242L222.924 35.3627H228.735V0.953125H221.465V22.9916Z" fill="#2E2C7F"/>
<path d="M250.739 14.9387C246.108 14.0634 242.114 13.2853 242.114 10.9706C242.114 8.86985 244.37 6.61348 249.302 6.61348C254.233 6.61348 257.189 8.85039 258.268 10.9317L258.408 11.2235L265.636 9.86186L265.436 9.37558C264.538 7.17758 260.724 0 249.541 0C239.897 0 234.845 5.5242 234.845 10.9706C234.845 18.4983 243.252 20.1906 250.002 21.5521C254.814 22.5053 258.947 23.3417 258.947 25.8315C258.947 29.43 252.876 29.7218 251.02 29.7218C245.209 29.7218 241.635 26.6679 240.036 24.8394L239.797 24.5671L233.647 28.3795L234.206 29.0021C235.923 31.0056 240.517 36.3158 251.039 36.3158C260.844 36.3158 266.235 32.5811 266.235 25.8315C266.235 17.8953 257.648 16.2614 250.759 14.9387" fill="#2E2C7F"/>
<path d="M289.877 18.1676L273.902 36.3158H284.006L300 18.1676L284.246 0H274.121L289.877 18.1676Z" fill="#2E2C7F"/>
</g>
</g>
<defs>
<clipPath id="clip0_4253_23671">
<rect width="300" height="36.3636" fill="white"/>
</clipPath>
</defs>
</svg>
