<svg width="147" height="78" viewBox="0 0 147 78" fill="none" xmlns="http://www.w3.org/2000/svg">
<path fill-rule="evenodd" clip-rule="evenodd" d="M73.424 7.34756C55.7155 7.34756 39.6476 10.9307 28.0089 16.7069C16.4479 22.4399 9.2816 30.34 9.2816 39.0086C9.2816 47.6772 16.4479 55.5687 28.0089 61.3104C39.6476 67.0865 55.7155 70.6697 73.424 70.6697C91.1324 70.6697 107.2 67.0865 118.839 61.3104C130.4 55.5774 137.566 47.6772 137.566 39.0086C137.566 30.34 130.4 22.4485 118.839 16.7069C107.2 10.9307 91.1324 7.34756 73.424 7.34756ZM73.424 6.6223C91.2533 6.6223 107.442 10.2313 119.176 16.0593C130.987 21.9218 138.317 30.0378 138.317 39C138.317 47.9621 130.996 56.0781 119.176 61.9407C107.442 67.76 91.2533 71.3777 73.424 71.3777C55.5947 71.3777 39.4058 67.7686 27.6721 61.9407C15.8608 56.0781 8.53045 47.9621 8.53045 39C8.53045 30.0378 15.8521 21.9218 27.6721 16.0593C39.4058 10.24 55.5947 6.6223 73.424 6.6223ZM106.233 51.1308V26.4634H113.495V36.3321L120.574 26.4634H129.036L119.659 38.4129L129.278 51.1395H120.29L113.486 41.0635V51.1395H106.233V51.1308ZM73.493 51.1308L77.0848 26.4634H84.346L88.5076 40.9167L92.6692 26.4634H99.9305L103.522 51.1308H96.5459L94.8191 37.6703L90.9079 51.1308H86.116L82.2048 37.6703L80.478 51.1308H73.493ZM70.7733 26.4547V51.1222H63.5121V32.369H58.9274V42.0996C58.9274 44.9575 58.5043 47.4959 56.3372 49.6199C54.1787 51.7438 49.5767 51.6834 46.7361 51.1136V45.1906C47.0987 45.2942 47.8844 45.441 48.4629 45.441C51.6143 45.4064 51.6661 42.5399 51.6661 40.0533V26.4461H70.7733V26.4547ZM21.965 51.1308V26.4634H29.2263V35.3478H37.2646V26.4634H44.5258V51.1308H37.2646V41.2621H29.2263V51.1308H21.965ZM73.424 3.28957C111.466 3.28957 142.496 19.3316 142.496 39C142.496 58.6684 111.466 74.7104 73.424 74.7104C35.3737 74.7104 4.34293 58.6684 4.34293 39C4.34293 19.3316 35.3737 3.28957 73.424 3.28957ZM73.424 0C113.866 0 146.848 17.5185 146.848 39C146.848 60.4815 113.866 78 73.424 78C32.9821 78 0 60.4815 0 39C0 17.5185 32.9821 0 73.424 0Z" fill="#005BAA"/>
</svg>
