<svg width="212" height="48" viewBox="0 0 212 48" fill="none" xmlns="http://www.w3.org/2000/svg">
<g clip-path="url(#clip0_30745_104388)">
<path d="M24.727 48C38.3833 48 49.454 37.2548 49.454 24C49.454 10.7452 38.3833 0 24.727 0C11.0707 0 0 10.7452 0 24C0 37.2548 11.0707 48 24.727 48Z" fill="#FF5034"/>
<path d="M179.428 25.9282C177.657 24.0487 175.059 22.7475 171.616 22.0086C174.661 21.4784 177.012 20.4021 178.634 18.7957C180.272 17.1893 181.083 15.117 181.067 12.611C181.05 9.15715 179.66 6.52262 176.896 4.70736C174.132 2.90816 170.077 2.00856 164.764 2.02463L156.869 2.04069H151.093V45.8961H151.424L156.985 45.9122H165.922C170.805 45.7997 174.694 44.6431 177.591 42.4583C180.603 40.1612 182.109 37.0608 182.093 33.1732C182.076 30.2174 181.199 27.8077 179.428 25.9282ZM161.52 8.48245C161.652 8.48245 161.818 8.46639 162.033 8.45033C162.314 8.43426 162.53 8.4182 162.679 8.4182C165.194 8.4182 167.147 8.88406 168.504 9.83185C169.878 10.7796 170.557 12.129 170.573 13.8961C170.573 15.631 169.928 16.9804 168.637 17.9443C167.329 18.9082 165.509 19.3901 163.142 19.3901C162.745 19.3901 162.43 19.3901 162.182 19.374C161.967 19.374 161.735 19.3419 161.52 19.3098V8.48245ZM169.299 37.4463C167.76 38.5708 165.575 39.133 162.728 39.1491C162.612 39.1491 162.414 39.133 162.132 39.117C161.851 39.1009 161.652 39.0849 161.503 39.0849V38.2816V25.88H162.53C165.492 25.864 167.727 26.4423 169.266 27.5828C170.788 28.7234 171.566 30.4102 171.583 32.6431C171.599 34.7154 170.838 36.3218 169.299 37.4463Z" fill="white"/>
<path d="M73.1383 2.05566V19.2444H65.1939V2.05566H54.7668V45.9111H65.1939V26.4733H73.1383V45.9111H83.5653V2.05566H73.1383Z" fill="white"/>
<path d="M103.095 38.6822V2.05566H92.6682V45.9111H93.4958H103.095H115.508V38.6822H103.095Z" fill="white"/>
<path d="M143.148 9.12394V2.05566H131.066H121.136H120.639V45.9111H121.136H131.066H143.148V38.6822H131.066V26.3127H143.148V19.4051H131.066V9.12394H143.148Z" fill="white"/>
<path d="M212 9.12394V2.05566H199.918H189.987H189.491V45.9111H189.987H199.918H212V38.6822H199.918V26.3127H212V19.4051H199.918V9.12394H212Z" fill="white"/>
</g>
<defs>
<clipPath id="clip0_30745_104388">
<rect width="212" height="48" fill="white"/>
</clipPath>
</defs>
</svg>
