<svg width="132" height="40" viewBox="0 0 132 40" fill="none" xmlns="http://www.w3.org/2000/svg">
<g clip-path="url(#clip0_201_378)">
<path d="M6.45561 31.9147H19.9657C20.039 31.9148 20.1102 31.8895 20.1673 31.8432C20.2245 31.7969 20.2643 31.7323 20.2802 31.66L24.5859 12.0689C24.5964 12.0213 24.5961 11.972 24.5852 11.9246C24.5742 11.8772 24.5529 11.8329 24.5227 11.7949C24.4925 11.7569 24.4543 11.7263 24.4108 11.7053C24.3673 11.6842 24.3196 11.6733 24.2714 11.6734L2.06709 11.6678C2.01872 11.6677 1.97094 11.6786 1.92733 11.6997C1.88371 11.7208 1.84536 11.7516 1.81515 11.7897C1.78493 11.8278 1.76361 11.8724 1.75279 11.92C1.74197 11.9676 1.74191 12.017 1.75262 12.0646L6.1415 31.6614C6.15762 31.7334 6.19754 31.7977 6.2547 31.8438C6.31186 31.8898 6.38249 31.9148 6.45561 31.9147ZM4.71103 13.8017H9.17818C9.26352 13.8017 9.34538 13.8359 9.40573 13.8969C9.46607 13.9578 9.49998 14.0404 9.49998 14.1266V29.4569C9.49998 29.5431 9.46607 29.6257 9.40573 29.6866C9.34538 29.7476 9.26352 29.7818 9.17818 29.7818H8.14429C8.07117 29.7819 8.00018 29.7569 7.94302 29.7109C7.88586 29.6648 7.84594 29.6005 7.82982 29.5285L4.39692 14.1986C4.38627 14.151 4.38637 14.1016 4.39722 14.054C4.40807 14.0065 4.4294 13.962 4.45961 13.9239C4.48982 13.8858 4.52814 13.8551 4.57173 13.834C4.61532 13.8129 4.66305 13.802 4.71138 13.8021M18.2704 29.7829H11.935C11.8496 29.7829 11.7678 29.7486 11.7074 29.6877C11.6471 29.6268 11.6132 29.5441 11.6132 29.458V14.1287C11.6133 14.0425 11.6473 13.9599 11.7077 13.899C11.7681 13.838 11.85 13.8038 11.9353 13.8038L21.639 13.8063C21.6872 13.8062 21.7348 13.8171 21.7783 13.8382C21.8218 13.8592 21.8601 13.8898 21.8903 13.9278C21.9205 13.9658 21.9418 14.0101 21.9528 14.0575C21.9637 14.1049 21.9639 14.1542 21.9535 14.2018L18.5845 29.5275C18.5687 29.5997 18.5289 29.6644 18.4717 29.7107C18.4145 29.757 18.3434 29.7822 18.27 29.7822" fill="#FFFFFF"/>
<path d="M19.458 33.3403H6.91437C6.86442 33.3403 6.81512 33.3516 6.77009 33.3734C6.72507 33.3953 6.68548 33.427 6.65425 33.4664C6.62302 33.5057 6.60095 33.5517 6.58967 33.6008C6.57839 33.6499 6.57818 33.701 6.58907 33.7502L7.01814 35.6951C7.03459 35.7698 7.07579 35.8366 7.13493 35.8845C7.19407 35.9324 7.26762 35.9586 7.34344 35.9586H19.0286C19.1044 35.9586 19.178 35.9324 19.2371 35.8845C19.2962 35.8366 19.3374 35.7698 19.3539 35.6951L19.783 33.7502C19.7938 33.701 19.7936 33.6499 19.7824 33.6008C19.7711 33.5517 19.749 33.5057 19.7178 33.4664C19.6865 33.427 19.647 33.3953 19.6019 33.3734C19.5569 33.3516 19.508 33.3403 19.458 33.3403Z" fill="#64AFE2"/>
<path d="M14.9622 38.2947C14.9622 38.6319 14.8631 38.9615 14.6776 39.2419C14.492 39.5223 14.2283 39.7408 13.9197 39.8699C13.6112 39.9989 13.2716 40.0327 12.9441 39.9669C12.6165 39.9011 12.3156 39.7387 12.0794 39.5003C11.8433 39.2618 11.6824 38.958 11.6173 38.6273C11.5521 38.2966 11.5856 37.9538 11.7134 37.6422C11.8412 37.3307 12.0576 37.0644 12.3353 36.8771C12.613 36.6897 12.9395 36.5897 13.2735 36.5897C13.7214 36.5897 14.1509 36.7693 14.4676 37.0891C14.7843 37.4088 14.9622 37.8425 14.9622 38.2947Z" fill="#64AFE2"/>
<path d="M24.7664 10.3173H1.59038C1.52813 10.3174 1.46761 10.2967 1.41825 10.2584C1.36889 10.2201 1.33346 10.1664 1.3175 10.1056L0.00967265 4.35183C-0.00167128 4.30776 -0.0023757 4.26157 0.00761853 4.21716C0.0176128 4.17275 0.0380139 4.13141 0.0671093 4.09661C0.0962047 4.0618 0.133145 4.03456 0.174829 4.01715C0.216513 3.99975 0.261724 3.9927 0.306667 3.99659L6.75668 4.54516C6.82346 4.55101 6.89011 4.53262 6.94466 4.4933L13.0994 0.0528915C13.1472 0.0184922 13.2044 3.8147e-06 13.2631 3.8147e-06C13.3218 3.8147e-06 13.379 0.0184922 13.4268 0.0528915L19.6113 4.49189C19.6657 4.53092 19.7321 4.54917 19.7986 4.54339L25.9935 3.99729C26.0385 3.9934 26.0837 4.00046 26.1254 4.01786C26.167 4.03526 26.204 4.06251 26.2331 4.09731C26.2622 4.13211 26.2826 4.17346 26.2926 4.21787C26.3026 4.26228 26.3019 4.30846 26.2905 4.35254L25.0393 10.1042C25.0233 10.165 24.9879 10.2187 24.9385 10.257C24.8892 10.2952 24.8287 10.316 24.7664 10.3159M3.34789 8.171H23.0662C23.1285 8.17108 23.189 8.15036 23.2383 8.11207C23.2877 8.07378 23.3231 8.02008 23.3391 7.95933L23.5935 6.7479C23.6048 6.70382 23.6055 6.65763 23.5955 6.61322C23.5855 6.56881 23.5651 6.52747 23.536 6.49267C23.5069 6.45787 23.47 6.43062 23.4283 6.41322C23.3866 6.39581 23.3414 6.38876 23.2965 6.39265L19.2025 6.74543C19.1358 6.75113 19.0693 6.73275 19.0149 6.69357L13.4296 2.68637C13.3818 2.65197 13.3246 2.63349 13.2659 2.63349C13.2072 2.63349 13.15 2.65197 13.1022 2.68637L7.54284 6.6978C7.48827 6.73707 7.42163 6.75545 7.35486 6.74966L3.06068 6.39265C3.01573 6.38876 2.97052 6.39581 2.92884 6.41322C2.88715 6.43062 2.85021 6.45787 2.82112 6.49267C2.79202 6.52747 2.77162 6.56881 2.76163 6.61322C2.75163 6.65763 2.75234 6.70382 2.76368 6.7479L3.07535 7.95933C3.09132 8.02008 3.12674 8.07378 3.17611 8.11207C3.22547 8.15036 3.28599 8.17108 3.34824 8.171" fill="#F5BF38"/>
<path d="M35.8206 6.31155C37.3303 4.82424 39.2812 4.08047 41.6735 4.08023C44.0658 4.08 46.0203 4.82741 47.5372 6.32248C49.0541 7.81732 49.8126 9.74289 49.8126 12.0992C49.8126 14.4555 49.0541 16.3811 47.5372 17.8759C46.0199 19.3708 44.0653 20.1182 41.6735 20.1182C39.2817 20.1182 37.3308 19.3741 35.8206 17.8858C34.3107 16.3995 33.5558 14.4709 33.5558 12.1003C33.5558 9.72961 34.3106 7.80027 35.8203 6.31225M36.8818 12.1003C36.8563 12.7616 36.9612 13.4214 37.1903 14.0415C37.4194 14.6615 37.7682 15.2295 38.2165 15.7124C38.6631 16.1778 39.2017 16.5432 39.7973 16.7849C40.3928 17.0265 41.0321 17.139 41.6735 17.115C42.3155 17.1384 42.9553 17.0267 43.5523 16.7872C44.1493 16.5476 44.6904 16.1853 45.1414 15.7233C45.5944 15.241 45.9469 14.6719 46.178 14.0495C46.4091 13.4272 46.5142 12.7644 46.4869 12.1003C46.5134 11.4347 46.4081 10.7704 46.177 10.1465C45.9459 9.52254 45.5939 8.95144 45.1414 8.46666C44.2092 7.56638 42.9689 7.0639 41.6789 7.0639C40.3889 7.0639 39.1487 7.56638 38.2165 8.46666C37.767 8.95306 37.4176 9.52468 37.1884 10.1484C36.9593 10.7721 36.8551 11.4356 36.8818 12.1003Z" fill="#FFFFFF"/>
<path d="M52.1976 19.8314V4.36739H55.4356V10.4648H57.7112L62.0435 4.36739H66.0473L60.468 11.9225L66.5725 19.8314H62.503L57.6892 13.2923H55.4356V19.8314H52.1976Z" fill="#FFFFFF"/>
<path d="M71.6266 19.8314H68.3883V4.36739H71.6266V10.5971H80.4005V4.36739H83.6384V19.8314H80.4005V13.4027H71.6266V19.8314Z" fill="#FFFFFF"/>
<path d="M85.345 19.8314L93.0686 4.36739H94.5563L102.28 19.831H98.6699L97.4885 17.291H90.1367L88.9554 19.831L85.345 19.8314ZM93.8124 9.47067L91.4714 14.4854H96.1535L93.8124 9.47067Z" fill="#FFFFFF"/>
<path d="M35.9633 35.9357V23.9247H47.4007V35.9357H45.3102V25.7605H38.0534V35.9357H35.9633Z" fill="#FFFFFF"/>
<path d="M53.5526 27.4937C54.1373 27.4651 54.7204 27.5761 55.2546 27.8176C55.7888 28.059 56.2591 28.4243 56.6274 28.8836C57.3637 29.8103 57.664 31.0171 57.5282 32.5042H51.4283C51.6243 33.0804 52.0276 33.5611 52.5582 33.8511C53.1974 34.1963 53.9155 34.365 54.64 34.3401C55.5414 34.3812 56.4295 34.1085 57.1557 33.5678V35.3695C56.2962 35.8963 55.3056 36.1642 54.3004 36.1417C52.8049 36.1417 51.6096 35.7419 50.7144 34.9422C50.2706 34.5436 49.9199 34.0505 49.6876 33.4985C49.4554 32.9464 49.3473 32.3492 49.3713 31.75C49.3505 31.1873 49.4421 30.6261 49.6406 30.0999C49.8391 29.5737 50.1405 29.0933 50.5268 28.6871C50.922 28.288 51.3949 27.976 51.9156 27.7708C52.4363 27.5655 52.9934 27.4716 53.5519 27.4948M51.3765 30.9093H55.5907C55.5766 30.6716 55.5143 30.4393 55.4076 30.2269C55.3009 30.0145 55.1521 29.8265 54.9705 29.6746C54.5731 29.3558 54.0756 29.1914 53.5684 29.2114C53.0622 29.1988 52.5671 29.3623 52.1662 29.6746C51.7738 29.9857 51.4956 30.4203 51.3758 30.9093" fill="#FFFFFF"/>
<path d="M61.4212 29.4156H58.532V27.6997H66.2986V29.4156H63.4093V35.936H61.4212V29.4156Z" fill="#FFFFFF"/>
<path d="M71.3632 27.4937C71.9478 27.4651 72.5309 27.5761 73.0652 27.8176C73.5994 28.059 74.0697 28.4243 74.438 28.8836C75.1743 29.8103 75.4745 31.0171 75.3387 32.5042H69.2388C69.4348 33.0804 69.8381 33.5611 70.3688 33.8511C71.008 34.1963 71.7261 34.365 72.4506 34.3401C73.352 34.3812 74.2401 34.1086 74.9663 33.5678V35.3695C74.1069 35.8962 73.1164 36.1642 72.1113 36.1417C70.6158 36.1417 69.4205 35.7419 68.5253 34.9422C68.0815 34.5436 67.7308 34.0505 67.4986 33.4985C67.2663 32.9464 67.1583 32.3492 67.1822 31.75C67.1615 31.1873 67.2531 30.6261 67.4517 30.0999C67.6502 29.5737 67.9517 29.0932 68.3381 28.6871C68.7333 28.288 69.2061 27.976 69.7268 27.7708C70.2475 27.5655 70.8047 27.4716 71.3632 27.4948M69.1878 30.9093H73.4027C73.3886 30.6716 73.3263 30.4393 73.2196 30.2269C73.1129 30.0145 72.9641 29.8265 72.7825 29.6746C72.3851 29.3557 71.8876 29.1914 71.3803 29.2114C70.8741 29.1988 70.3791 29.3623 69.9782 29.6746C69.5857 29.9856 69.3075 30.4202 69.1878 30.9093Z" fill="#FFFFFF"/>
<path d="M77.2601 39.3678V27.6997H79.0107L79.0788 28.1114C79.7298 27.7332 80.4693 27.5383 81.2203 27.547C81.7722 27.5255 82.3225 27.6204 82.8361 27.8257C83.3496 28.031 83.8151 28.3422 84.2028 28.7393C84.5879 29.1495 84.8877 29.6334 85.0847 30.1623C85.2817 30.6913 85.3719 31.2547 85.3499 31.8194C85.3724 32.3829 85.2825 32.9452 85.0854 33.4729C84.8884 34.0006 84.5882 34.4829 84.2028 34.8911C83.8165 35.2849 83.3535 35.5934 82.843 35.7972C82.3325 36.001 81.7856 36.0956 81.2371 36.075C80.5365 36.0929 79.844 35.9212 79.2315 35.5776V39.3696H77.2601V39.3678ZM79.2315 33.7738C79.6871 34.1597 80.2686 34.3609 80.8628 34.3383C81.1897 34.3511 81.5156 34.2952 81.8199 34.1741C82.1242 34.053 82.4002 33.8694 82.6305 33.6348C82.8586 33.393 83.0363 33.1074 83.1531 32.795C83.2699 32.4825 83.3234 32.1496 83.3104 31.8159C83.3229 31.481 83.2691 31.1469 83.1524 30.8332C83.0357 30.5195 82.8582 30.2323 82.6305 29.9885C82.4015 29.7517 82.1259 29.566 81.8214 29.4433C81.517 29.3206 81.1904 29.2637 80.8628 29.2763C80.2686 29.2537 79.6872 29.4549 79.2315 29.8407V33.7738Z" fill="#FFFFFF"/>
<path d="M91.23 23.7701L94.9519 23.3754V25.2627L91.5018 25.6575C90.8348 25.7057 90.2074 25.995 89.7345 26.4724C89.2637 27.0489 88.9843 27.7602 88.9358 28.5058C89.5363 27.8767 90.3865 27.5621 91.4865 27.5621C92.0408 27.5417 92.5934 27.637 93.1095 27.8422C93.6257 28.0474 94.0944 28.358 94.4861 28.7545C95.2429 29.6042 95.6581 30.7087 95.6502 31.8514C95.6424 32.9941 95.2122 34.0926 94.4438 34.9317C94.0393 35.3333 93.5582 35.6476 93.0296 35.8556C92.501 36.0636 91.936 36.1608 91.369 36.1413C90.7221 36.1691 90.0786 36.032 89.4979 35.7426C88.9173 35.4532 88.4181 35.0208 88.0466 34.4854C87.2571 33.3819 86.8624 31.8351 86.8624 29.845C86.8624 26.0931 88.3183 24.0679 91.23 23.7701ZM88.8677 30.5484C88.8821 31.526 89.1455 32.4833 89.6325 33.3283C89.8138 33.6318 90.0709 33.8819 90.3781 34.0535C90.6852 34.2252 91.0317 34.3123 91.3827 34.3062C91.6837 34.3142 91.9828 34.2553 92.2589 34.1337C92.5349 34.0122 92.7811 33.8309 92.9802 33.6028C93.3996 33.0821 93.6222 32.4279 93.6082 31.7569C93.5942 31.086 93.3445 30.4418 92.9036 29.9395C92.6632 29.7014 92.3771 29.5154 92.0629 29.393C91.7488 29.2705 91.4131 29.2141 91.0766 29.2273C90.6207 29.2049 90.1683 29.3181 89.7755 29.553C89.3828 29.7879 89.067 30.134 88.8673 30.5484" fill="#FFFFFF"/>
<path d="M99.8799 34.9408L96.2429 27.6997H98.3334L100.848 32.8471L103.364 27.6997H105.454L99.608 39.3675H97.4665L99.8799 34.9408Z" fill="#FFFFFF"/>
<path d="M106.797 39.3678V27.6997H108.547L108.615 28.1114C109.266 27.7332 110.006 27.5383 110.757 27.547C111.309 27.5255 111.859 27.6204 112.373 27.8257C112.886 28.031 113.352 28.3422 113.739 28.7393C114.124 29.1495 114.424 29.6334 114.621 30.1623C114.818 30.6913 114.908 31.2547 114.886 31.8194C114.909 32.3829 114.819 32.9452 114.622 33.4729C114.425 34.0006 114.125 34.4829 113.739 34.8911C113.353 35.2849 112.89 35.5934 112.379 35.7972C111.869 36.001 111.322 36.0956 110.774 36.075C110.073 36.0929 109.381 35.9212 108.768 35.5776V39.3696H106.797V39.3678ZM108.768 33.7738C109.224 34.1597 109.805 34.3609 110.399 34.3383C110.726 34.3511 111.052 34.2952 111.356 34.1741C111.661 34.053 111.937 33.8694 112.167 33.6348C112.395 33.393 112.573 33.1074 112.69 32.795C112.806 32.4825 112.86 32.1496 112.847 31.8159C112.859 31.481 112.806 31.1469 112.689 30.8332C112.572 30.5195 112.395 30.2323 112.167 29.9885C111.938 29.7517 111.662 29.566 111.358 29.4433C111.053 29.3206 110.727 29.2637 110.399 29.2763C109.805 29.2537 109.224 29.4549 108.768 29.8407V33.7738Z" fill="#FFFFFF"/>
<path d="M116.773 35.9356V27.6997H122.721V29.4156H118.744V35.9356H116.773Z" fill="#FFFFFF"/>
<path d="M126.986 36.0732C126.129 36.1215 125.28 35.88 124.573 35.3867C124.291 35.1559 124.064 34.863 123.911 34.5303C123.758 34.1977 123.682 33.8341 123.69 33.4674C123.697 33.1007 123.788 32.7405 123.954 32.4144C124.12 32.0883 124.358 31.8049 124.65 31.5859C125.437 31.0812 126.361 30.8381 127.292 30.8909C127.879 30.8983 128.465 30.9557 129.043 31.0624V30.8049C129.043 29.7985 128.3 29.2952 126.816 29.295C125.946 29.2507 125.086 29.498 124.37 29.9984V28.231C125.234 27.7377 126.216 27.4942 127.209 27.5272C128.42 27.5272 129.36 27.7932 130.03 28.3252C130.362 28.594 130.627 28.939 130.801 29.3317C130.976 29.7243 131.055 30.1533 131.032 30.583V33.843C131.032 34.335 131.355 34.5809 132.001 34.5806V35.8676C131.574 36.0499 131.103 36.1015 130.647 36.0161C130.19 35.9307 129.769 35.712 129.435 35.3871C128.709 35.8646 127.855 36.1044 126.989 36.0736M127.72 32.5045C127.208 32.4812 126.698 32.572 126.225 32.7705C126.07 32.8252 125.936 32.9257 125.839 33.0589C125.742 33.1921 125.687 33.3518 125.681 33.517C125.682 33.6588 125.725 33.7971 125.803 33.9146C125.882 34.0321 125.993 34.1235 126.123 34.1774C126.502 34.3492 126.915 34.4286 127.329 34.4092C127.957 34.4445 128.574 34.2291 129.046 33.8095V32.6414C128.609 32.5583 128.165 32.5124 127.72 32.5042" fill="#FFFFFF"/>
</g>
<defs>
<clipPath id="clip0_201_378">
<rect width="132" height="40" fill="white"/>
</clipPath>
</defs>
</svg>
