<svg width="300" height="60" viewBox="0 0 300 60" fill="none" xmlns="http://www.w3.org/2000/svg">
<path d="M167.197 45.8961C161.06 45.8961 157.991 43.1381 157.991 37.6221V18.1909H153.515C153.178 18.1909 152.884 18.0864 152.632 17.8775C152.422 17.6268 152.317 17.3343 152.317 17C152.317 16.5821 152.506 16.2269 152.884 15.9344L161.459 7.59775C161.837 7.22166 162.195 7.03362 162.531 7.03362C162.867 7.03362 163.14 7.15898 163.351 7.40971C163.603 7.66043 163.729 7.95294 163.729 8.28725V13.3018H170.854C171.568 13.3018 172.157 13.5316 172.619 13.9912C173.081 14.4509 173.313 15.0359 173.313 15.7463C173.313 16.4149 173.081 17 172.619 17.5014C172.157 17.9611 171.568 18.1909 170.854 18.1909H163.729V37.1207C163.729 38.7504 164.107 39.7951 164.864 40.2547C165.662 40.6726 166.65 40.8815 167.827 40.8815C168.668 40.8815 169.509 40.7562 170.349 40.5055C170.517 40.4637 170.686 40.4219 170.854 40.3801C171.064 40.3383 171.316 40.3174 171.61 40.3174C172.199 40.3174 172.724 40.5472 173.187 41.0069C173.649 41.4248 173.88 41.9471 173.88 42.5739C173.88 43.5351 173.397 44.2663 172.43 44.7678C170.791 45.52 169.046 45.8961 167.197 45.8961Z" fill="white"/>
<path d="M193.93 45.8961C190.694 45.8961 187.856 45.2066 185.418 43.8276C182.98 42.4486 181.089 40.5055 179.744 37.9982C178.441 35.4492 177.789 32.5449 177.789 29.2855C177.789 26.0261 178.441 23.1427 179.744 20.6355C181.089 18.0864 182.98 16.1224 185.418 14.7434C187.856 13.3644 190.694 12.6749 193.93 12.6749C197.125 12.6749 199.941 13.3644 202.379 14.7434C204.817 16.1224 206.709 18.0864 208.054 20.6355C209.399 23.1427 210.071 26.0261 210.071 29.2855C210.071 32.5449 209.399 35.4492 208.054 37.9982C206.709 40.5055 204.817 42.4486 202.379 43.8276C199.941 45.2066 197.125 45.8961 193.93 45.8961ZM193.93 40.6935C195.654 40.6935 197.293 40.2965 198.848 39.5026C200.446 38.7086 201.749 37.455 202.758 35.7417C203.808 34.0284 204.334 31.8554 204.334 29.2228C204.334 26.632 203.808 24.4799 202.758 22.7666C201.749 21.0533 200.446 19.8206 198.848 19.0684C197.293 18.2745 195.654 17.8775 193.93 17.8775C192.165 17.8775 190.484 18.2745 188.886 19.0684C187.331 19.8206 186.049 21.0533 185.04 22.7666C184.031 24.4799 183.527 26.632 183.527 29.2228C183.527 31.8554 184.031 34.0284 185.04 35.7417C186.049 37.455 187.331 38.7086 188.886 39.5026C190.484 40.2965 192.165 40.6935 193.93 40.6935Z" fill="white"/>
<path d="M220.941 59.9994C220.143 59.9994 219.47 59.7068 218.924 59.1218C218.377 58.5786 218.104 57.91 218.104 57.116V15.809C218.104 15.015 218.377 14.3464 218.924 13.8032C219.47 13.26 220.143 12.9883 220.941 12.9883C221.74 12.9883 222.413 13.26 222.959 13.8032C223.547 14.3464 223.842 15.015 223.842 15.809V17.4387C226.91 14.2629 230.504 12.6749 234.623 12.6749C237.23 12.6749 239.689 13.3435 242 14.6807C244.354 15.9762 246.246 17.8984 247.675 20.4474C249.146 22.9547 249.882 25.9007 249.882 29.2855C249.882 32.6703 249.146 35.6372 247.675 38.1862C246.246 40.6935 244.354 42.6157 242 43.9529C239.689 45.2483 237.23 45.8961 234.623 45.8961C230.504 45.8961 226.91 44.3081 223.842 41.1323V57.116C223.842 57.9518 223.568 58.6413 223.022 59.1845C222.476 59.7277 221.782 59.9994 220.941 59.9994ZM233.804 40.5681C236.914 40.5681 239.415 39.5861 241.307 37.6221C243.198 35.6581 244.144 32.8792 244.144 29.2855C244.144 25.6918 243.198 22.9129 241.307 20.9489C239.415 18.9849 236.914 18.0029 233.804 18.0029C231.87 18.0029 230.042 18.4416 228.318 19.3192C226.637 20.1549 225.145 21.2832 223.842 22.704V35.867C225.145 37.2878 226.637 38.437 228.318 39.3145C230.042 40.1503 231.87 40.5681 233.804 40.5681Z" fill="white"/>
<path d="M260.592 6.78289C259.709 6.78289 258.952 6.46949 258.322 5.84268C257.691 5.21586 257.376 4.46368 257.376 3.58615V3.33542C257.376 2.45788 257.691 1.7057 258.322 1.07889C258.952 0.452078 259.709 0.138672 260.592 0.138672H260.97C261.853 0.138672 262.609 0.452078 263.24 1.07889C263.87 1.7057 264.186 2.45788 264.186 3.33542V3.58615C264.186 4.46368 263.87 5.21586 263.24 5.84268C262.609 6.46949 261.853 6.78289 260.97 6.78289H260.592ZM260.718 45.5826C259.919 45.5826 259.246 45.311 258.7 44.7678C258.154 44.2246 257.88 43.5559 257.88 42.762V15.8717C257.88 15.0777 258.154 14.4091 258.7 13.8659C259.246 13.2809 259.919 12.9883 260.718 12.9883C261.558 12.9883 262.252 13.26 262.798 13.8032C263.345 14.3464 263.618 15.0359 263.618 15.8717V42.762C263.618 43.5559 263.324 44.2246 262.735 44.7678C262.189 45.311 261.516 45.5826 260.718 45.5826Z" fill="white"/>
<path d="M288.462 45.8961C285.435 45.8961 282.64 45.2275 280.076 43.8903C277.512 42.553 275.452 40.6308 273.897 38.1236C272.384 35.6163 271.627 32.6703 271.627 29.2855C271.627 25.9007 272.384 22.9547 273.897 20.4474C275.452 17.9402 277.512 16.0179 280.076 14.6807C282.64 13.3435 285.435 12.6749 288.462 12.6749C290.689 12.6749 292.602 12.9675 294.199 13.5525C295.839 14.0957 297.352 14.8061 298.739 15.6836C299.58 16.2269 300 16.9582 300 17.8775C300 18.5043 299.748 19.0893 299.243 19.6326C298.781 20.134 298.235 20.3847 297.604 20.3847C297.142 20.3847 296.679 20.2594 296.217 20.0087C294.83 19.2983 293.632 18.7968 292.623 18.5043C291.656 18.17 290.437 18.0029 288.966 18.0029C285.351 18.0029 282.514 19.0475 280.454 21.1369C278.395 23.1845 277.365 25.9007 277.365 29.2855C277.365 32.6703 278.395 35.4074 280.454 37.4968C282.514 39.5443 285.351 40.5681 288.966 40.5681C290.437 40.5681 291.656 40.4219 292.623 40.1294C293.632 39.7951 294.83 39.2727 296.217 38.5623C296.679 38.3116 297.142 38.1862 297.604 38.1862C298.235 38.1862 298.781 38.4579 299.243 39.0011C299.748 39.5026 300 40.0667 300 40.6935C300 41.6128 299.58 42.3441 298.739 42.8873C297.352 43.7649 295.839 44.4962 294.199 45.0812C292.602 45.6244 290.689 45.8961 288.462 45.8961Z" fill="white"/>
<path d="M16.1411 45.7574C12.9045 45.7574 10.0672 45.0679 7.62918 43.6889C5.19121 42.3099 3.29967 40.3668 1.95458 37.8595C0.651528 35.3105 0 32.4063 0 29.1468C0 25.8874 0.651528 23.0041 1.95458 20.4968C3.29967 17.9478 5.19121 15.9837 7.62918 14.6048C10.0672 13.2258 12.9045 12.5363 16.1411 12.5363C19.3357 12.5363 22.1519 13.2258 24.5899 14.6048C27.0279 15.9837 28.9194 17.9478 30.2645 20.4968C31.6096 23.0041 32.2822 25.8874 32.2822 29.1468C32.2822 32.4063 31.6096 35.3105 30.2645 37.8595C28.9194 40.3668 27.0279 42.3099 24.5899 43.6889C22.1519 45.0679 19.3357 45.7574 16.1411 45.7574ZM16.1411 40.5548C17.8645 40.5548 19.5038 40.1578 21.0591 39.3639C22.6564 38.5699 23.9594 37.3163 24.9682 35.603C26.0191 33.8897 26.5445 31.7168 26.5445 29.0841C26.5445 26.4933 26.0191 24.3413 24.9682 22.628C23.9594 20.9147 22.6564 19.6819 21.0591 18.9298C19.5038 18.1358 17.8645 17.7388 16.1411 17.7388C14.3756 17.7388 12.6943 18.1358 11.097 18.9298C9.54173 19.6819 8.25969 20.9147 7.25087 22.628C6.24206 24.3413 5.73765 26.4933 5.73765 29.0841C5.73765 31.7168 6.24206 33.8897 7.25087 35.603C8.25969 37.3163 9.54173 38.5699 11.097 39.3639C12.6943 40.1578 14.3756 40.5548 16.1411 40.5548Z" fill="white"/>
<path d="M43.1521 45.444C42.3534 45.444 41.6809 45.1724 41.1344 44.6291C40.588 44.0859 40.3148 43.4173 40.3148 42.6233V15.733C40.3148 14.9391 40.588 14.2705 41.1344 13.7272C41.6809 13.1422 42.3534 12.8497 43.1521 12.8497C43.9507 12.8497 44.6232 13.1422 45.1697 13.7272C45.7582 14.2705 46.0524 14.9391 46.0524 15.733V18.303C47.2294 16.6314 48.6375 15.2525 50.2768 14.166C51.9582 13.0795 54.1229 12.5363 56.7711 12.5363C59.125 12.5363 61.1426 13.1631 62.824 14.4167C64.5054 15.6703 65.7033 17.1956 66.4179 18.9924C69.024 14.6883 72.8912 12.5363 78.0193 12.5363C80.3732 12.5363 82.3278 13.1213 83.8831 14.2913C85.4803 15.4614 86.6573 16.9657 87.4139 18.8044C88.1705 20.6431 88.5488 22.5653 88.5488 24.5711V42.6233C88.5488 43.4173 88.2546 44.0859 87.6661 44.6291C87.1197 45.1724 86.4471 45.444 85.6485 45.444C84.8498 45.444 84.1773 45.1724 83.6309 44.6291C83.0844 44.0859 82.8112 43.4173 82.8112 42.6233V25.6993C82.8112 22.9832 82.3278 20.9982 81.361 19.7446C80.3942 18.4492 78.7339 17.8015 76.38 17.8015C74.2362 17.8015 72.4498 18.3656 71.0206 19.4939C69.6335 20.5804 68.3935 22.022 67.3006 23.8189V42.6233C67.3006 43.4173 67.0064 44.0859 66.4179 44.6291C65.8715 45.1724 65.1989 45.444 64.4003 45.444C63.6016 45.444 62.9291 45.1724 62.3826 44.6291C61.8362 44.0859 61.563 43.4173 61.563 42.6233V25.6993C61.563 22.9832 61.0796 20.9982 60.1128 19.7446C59.146 18.4492 57.4857 17.8015 55.1318 17.8015C52.988 17.8015 51.2016 18.3656 49.7724 19.4939C48.3853 20.5804 47.1453 22.022 46.0524 23.8189V42.6233C46.0524 43.4173 45.7582 44.0859 45.1697 44.6291C44.6232 45.1724 43.9507 45.444 43.1521 45.444Z" fill="white"/>
<path d="M101.031 45.444C100.232 45.444 99.5598 45.1724 99.0133 44.6291C98.4669 44.0859 98.1937 43.4173 98.1937 42.6233V15.733C98.1937 14.9391 98.4669 14.2705 99.0133 13.7272C99.5598 13.1422 100.232 12.8497 101.031 12.8497C101.83 12.8497 102.502 13.1422 103.049 13.7272C103.637 14.2705 103.931 14.9391 103.931 15.733V18.303C105.529 16.5479 107.252 15.148 109.102 14.1033C110.951 13.0586 113.137 12.5363 115.659 12.5363C117.971 12.5363 119.967 13.0795 121.649 14.166C123.372 15.2525 124.675 16.7359 125.558 18.6164C126.483 20.4968 126.945 22.5653 126.945 24.8218V42.6233C126.945 43.4173 126.651 44.0859 126.062 44.6291C125.516 45.1724 124.843 45.444 124.045 45.444C123.246 45.444 122.573 45.1724 122.027 44.6291C121.481 44.0859 121.207 43.4173 121.207 42.6233V25.4486C121.207 20.3505 118.895 17.8015 114.272 17.8015C112.17 17.8015 110.278 18.3447 108.597 19.4312C106.958 20.5177 105.403 21.9803 103.931 23.8189V42.6233C103.931 43.4173 103.637 44.0859 103.049 44.6291C102.502 45.1724 101.83 45.444 101.031 45.444Z" fill="white"/>
<path d="M139.327 6.64422C138.444 6.64422 137.687 6.33082 137.057 5.704C136.426 5.07719 136.111 4.32501 136.111 3.44747V3.19675C136.111 2.31921 136.426 1.56703 137.057 0.940219C137.687 0.313406 138.444 0 139.327 0H139.705C140.588 0 141.344 0.313406 141.975 0.940219C142.605 1.56703 142.921 2.31921 142.921 3.19675V3.44747C142.921 4.32501 142.605 5.07719 141.975 5.704C141.344 6.33082 140.588 6.64422 139.705 6.64422H139.327ZM139.453 45.444C138.654 45.444 137.982 45.1724 137.435 44.6291C136.889 44.0859 136.615 43.4173 136.615 42.6233V15.733C136.615 14.9391 136.889 14.2705 137.435 13.7272C137.982 13.1422 138.654 12.8497 139.453 12.8497C140.293 12.8497 140.987 13.1213 141.533 13.6645C142.08 14.2078 142.353 14.8973 142.353 15.733V42.6233C142.353 43.4173 142.059 44.0859 141.47 44.6291C140.924 45.1724 140.251 45.444 139.453 45.444Z" fill="white"/>
</svg>
