<svg width="210" height="71" viewBox="0 0 210 71" fill="none" xmlns="http://www.w3.org/2000/svg">
<g clip-path="url(#clip0_2393_79994)">
<path d="M18.1691 70.9047C13.0117 70.9047 8.65869 69.1897 5.20468 65.712C1.75066 62.2343 0 57.9468 0 52.8493C0 47.7519 1.75066 43.4167 5.25199 39.8437C8.80064 36.2707 13.1063 34.5081 18.2164 34.5081C23.3264 34.5081 27.6321 36.2707 31.1334 39.8437C34.6821 43.4167 36.4327 47.7042 36.4327 52.754C36.4327 57.8038 34.6821 62.0914 31.1334 65.6167C27.6321 69.1421 23.3264 70.9047 18.1691 70.9047ZM29.1462 52.754C29.1462 49.5145 28.1053 46.8467 25.9761 44.7029C23.8469 42.5592 21.2919 41.4634 18.2164 41.4634C15.1409 41.4634 12.5859 42.5592 10.4567 44.7029C8.32748 46.8467 7.28655 49.5622 7.28655 52.754C7.28655 55.9459 8.32748 58.6137 10.4094 60.7575C12.5385 62.9013 15.1409 63.9493 18.2164 63.9493C21.2919 63.9493 23.8942 62.9013 26.0234 60.7575C28.1526 58.6137 29.1935 55.9459 29.1462 52.754ZM45.6651 70.3331V56.4223C45.6651 52.5635 48.0309 49.848 51.5795 49.848C54.8443 49.848 57.0208 52.1347 57.0208 56.2794V70.3331H63.6922V54.4691C63.6922 50.9914 62.6986 48.3236 60.7587 46.4656C58.8188 44.6077 56.4057 43.6549 53.6141 43.6549C49.9708 43.6549 46.8953 45.4652 45.5232 47.9901V44.3695H38.9937V70.3331H45.6651ZM92.2293 56.7558C92.2293 57.6609 92.1346 58.6613 91.9927 59.7094H72.6407C73.5871 63.3777 76.0948 65.2356 80.1639 65.2356C82.9555 65.2356 86.2675 64.1399 88.4913 62.6154L91.141 67.3318C87.8763 69.7137 84.1384 70.9047 79.88 70.9047C75.3377 70.9047 71.8837 69.5708 69.4706 66.9506C67.0575 64.3305 65.8747 61.091 65.8747 57.3274C65.8747 53.3733 67.1049 50.1339 69.6126 47.5613C72.1203 44.9888 75.3377 43.7025 79.3122 43.7025C83.0501 43.7025 86.1729 44.8935 88.586 47.2278C90.9991 49.5622 92.2293 52.7064 92.2293 56.7558ZM79.3122 49.2763C75.9528 49.2763 73.4451 51.3248 72.6407 54.7073H85.7471C85.132 51.3248 82.7189 49.2763 79.3122 49.2763ZM105.247 70.9047C99.8056 70.9047 94.8848 68.5704 91.9986 64.3305L96.0204 59.4236C98.2915 62.6154 101.698 64.3305 105.294 64.3305C108.18 64.3305 110.31 62.806 110.31 60.5669C110.31 59.1377 109.269 57.8991 107.139 56.8987C106.666 56.6605 105.531 56.2317 103.685 55.5171C101.887 54.8025 100.515 54.1356 99.569 53.6115C95.8784 51.4678 94.0331 48.5617 94.0331 44.8459C94.0331 41.8922 95.1214 39.4626 97.3452 37.5094C99.569 35.5561 102.455 34.5557 105.957 34.5557C110.499 34.5557 114.331 36.1278 117.454 39.3197L113.716 44.4647C111.776 42.3686 108.654 41.1776 106.051 41.1776C103.26 41.1776 101.556 42.5115 101.556 44.56C101.556 45.9416 102.503 47.0849 104.395 48.0377L107.849 49.5622C109.789 50.3721 111.209 50.9914 112.108 51.4201C116.082 53.3734 118.069 56.2794 118.069 60.1858C118.069 63.33 116.886 65.9026 114.521 67.9034C112.155 69.9043 109.079 70.9047 105.247 70.9047ZM119.211 57.3274C119.211 53.5163 120.488 50.2768 123.091 47.6566C125.693 44.9888 129.005 43.6549 133.027 43.6549C137.049 43.6549 140.361 44.9888 142.963 47.6566C145.565 50.2768 146.843 53.5163 146.843 57.3274C146.843 61.1862 145.565 64.4257 142.963 67.0459C140.361 69.6661 137.049 71 133.027 71C129.005 71 125.693 69.6661 123.091 67.0459C120.488 64.4257 119.211 61.1862 119.211 57.3274ZM127.917 62.6154C129.289 64.0446 130.992 64.7592 133.027 64.7592C135.061 64.7592 136.717 64.0446 138.09 62.6154C139.462 61.1386 140.171 59.3759 140.171 57.3274C140.171 55.2789 139.462 53.5163 138.09 52.0871C136.717 50.6579 135.061 49.9433 133.027 49.9433C130.992 49.9433 129.289 50.6579 127.917 52.0871C126.545 53.5163 125.882 55.2789 125.882 57.3274C125.882 59.3759 126.545 61.1386 127.917 62.6154ZM155.697 40.2725C157.258 38.7004 157.258 35.9373 155.697 34.4128C154.135 32.8407 151.391 32.8407 149.83 34.4128C148.268 35.9373 148.268 38.7004 149.83 40.2725C151.391 41.8446 154.135 41.8446 155.697 40.2725ZM156.075 44.3695H149.404V70.3331H156.075V44.3695ZM166.491 34.1269V70.3331H159.819V34.1269H166.491ZM178.733 1.95504L180.262 0C182.148 0.931013 192.11 2.97295 198.164 5.62943C201.184 6.95768 204.242 8.77005 206.547 11.5879C208.853 14.4058 210.295 18.2415 210.295 22.8097C210.295 27.7255 208.138 31.2261 205.955 33.237C204.908 34.2053 203.847 34.8756 202.997 35.3225C203.958 40.0148 203.983 44.583 203.983 48.3319H197.67C197.67 39.6176 198.164 30.5061 188.498 22.8097L192.344 17.745C196.647 21.1711 199.409 25.0193 201.123 28.9668C201.307 28.8178 201.418 28.7558 201.616 28.5696C202.787 27.4772 203.983 25.9503 203.983 22.8097C203.983 19.5201 203.046 17.4098 201.616 15.6595C200.186 13.9092 198.164 12.4693 195.698 11.3893C191.518 9.5521 186.969 8.73281 183.073 7.31767C181.865 9.279 178.733 14.8775 178.733 24.2C178.733 30.2578 180.373 32.8522 181.791 34.1308C183.209 35.4094 184.885 35.6204 185.539 35.6204C186.661 35.6204 188.917 34.4287 191.753 33.237L194.12 39.0962C191.937 40.0148 189.311 41.9762 185.539 41.9762C183.813 41.9762 180.496 41.4672 177.55 38.7983C176.253 37.6238 175.344 36.6069 174.224 34.0629C173.105 31.519 172.421 28.2662 172.421 24.2C172.421 15.3947 174.525 7.97972 178.733 1.95504Z" fill="#27AE60"/>
</g>
<defs>
<clipPath id="clip0_2393_79994">
<rect width="210" height="71" fill="white"/>
</clipPath>
</defs>
</svg>
