<svg width="194" height="78" viewBox="0 0 194 78" fill="none" xmlns="http://www.w3.org/2000/svg">
<g clip-path="url(#clip0_809_4210)">
<path fill-rule="evenodd" clip-rule="evenodd" d="M194 47.992C194 56.5546 189.519 60.8401 180.555 60.8401L174.808 60.8393V73.3952H164.934V35.5293H180.057C184.521 35.5293 187.965 36.6007 190.379 38.7517C192.792 40.9028 194 43.9829 194 47.992ZM183.668 48.1668C183.668 46.4761 183.205 45.2707 182.268 44.5514C181.332 43.823 179.829 43.4626 177.762 43.4626H174.808V52.8543H177.863C179.93 52.8543 181.416 52.503 182.32 51.7921C183.222 51.0895 183.669 49.875 183.669 48.1676V48.1668H183.668Z" fill="#E30016"/>
<path fill-rule="evenodd" clip-rule="evenodd" d="M41.13 54.4865C41.13 60.1896 39.1713 64.9246 35.2622 68.6932C31.3457 72.4608 26.4403 74.3455 20.5401 74.3455C14.64 74.3455 9.74285 72.4608 5.84289 68.6932C1.9504 64.9238 0 60.1896 0 54.4865C0 48.7842 1.9504 44.0475 5.84289 40.2798C9.74368 36.5113 14.64 34.6274 20.5401 34.6274C26.4403 34.6274 31.3457 36.5113 35.2622 40.2798C39.1713 44.0475 41.13 48.7842 41.13 54.4865ZM31.0578 54.4865C31.0578 51.5854 30.0449 49.1338 28.0206 47.1326C25.9873 45.1322 23.5018 44.1316 20.5393 44.1316C17.5942 44.1316 15.117 45.1322 13.1003 47.1326C11.0835 49.1338 10.0722 51.5845 10.0722 54.4865C10.0722 57.3876 11.0835 59.8392 13.1003 61.8396C15.1162 63.8416 17.5942 64.8414 20.5393 64.8414C23.5026 64.8414 25.9873 63.8416 28.0206 61.8396C30.044 59.8392 31.0578 57.3884 31.0578 54.4865ZM78.9599 73.3449H69.3324V57.8871H55.2598V73.3449H45.6314V35.6272H55.2598V50.1344H69.3324V35.6272H78.9599V73.3449ZM120.059 73.3449H107.55L94.9181 55.3955V73.3449H85.2897V35.6272H94.9181V52.293L106.752 35.6272H118.734L104.357 53.4351L120.059 73.3441V73.3449ZM160.178 54.4865C160.178 60.1896 158.219 64.9246 154.31 68.6932C150.394 72.4608 145.488 74.3455 139.587 74.3455C133.687 74.3455 128.791 72.4608 124.89 68.6932C120.998 64.9238 119.047 60.1896 119.047 54.4865C119.047 48.7842 120.997 44.0475 124.89 40.2798C128.791 36.5113 133.688 34.6274 139.587 34.6274C145.487 34.6274 150.393 36.5113 154.31 40.2798C158.219 44.0475 160.178 48.7842 160.178 54.4865ZM150.106 54.4865C150.106 51.5854 149.094 49.1338 147.069 47.1326C145.035 45.1322 142.551 44.1316 139.588 44.1316C136.642 44.1316 134.165 45.1322 132.149 47.1326C130.133 49.1338 129.121 51.5845 129.121 54.4865C129.121 57.3876 130.133 59.8392 132.149 61.8396C134.166 63.8416 136.643 64.8414 139.588 64.8414C142.551 64.8414 145.036 63.8416 147.069 61.8396C149.094 59.8392 150.106 57.3884 150.106 54.4865Z" fill="#1477B4"/>
<path d="M152.067 75.844H1.68164V77.5996H152.067V75.844Z" fill="#1477B4"/>
<path d="M191.534 75.844H161.562V77.5996H191.534V75.844Z" fill="#1477B4"/>
<path d="M161.525 24.502L161.525 77.5762L163.275 77.5762L163.275 24.502L161.525 24.502Z" fill="#1477B4"/>
<path d="M162.4 28.6719C164.106 28.6719 165.488 27.2847 165.488 25.5735C165.488 23.8623 164.106 22.4751 162.4 22.4751C160.695 22.4751 159.312 23.8623 159.312 25.5735C159.312 27.2847 160.695 28.6719 162.4 28.6719Z" fill="#1477B4"/>
<path d="M155.92 3.2233L155.92 77.5762L157.67 77.5762L157.67 3.2233L155.92 3.2233Z" fill="#1477B4"/>
<path d="M156.796 8.6994C159.19 8.6994 161.13 6.75203 161.13 4.34982C161.13 1.94762 159.19 0.000244141 156.796 0.000244141C154.402 0.000244141 152.461 1.94762 152.461 4.34982C152.461 6.75203 154.402 8.6994 156.796 8.6994Z" fill="#1477B4"/>
<path d="M150.314 24.5014L150.314 77.5955L152.065 77.5955L152.065 24.5014L150.314 24.5014Z" fill="#1477B4"/>
<path d="M151.189 28.6716C152.895 28.6716 154.277 27.2844 154.277 25.5733C154.277 23.8621 152.895 22.4749 151.189 22.4749C149.484 22.4749 148.102 23.8621 148.102 25.5733C148.102 27.2844 149.484 28.6716 151.189 28.6716Z" fill="#1477B4"/>
</g>
<defs>
<clipPath id="clip0_809_4210">
<rect width="194" height="77.6" fill="white"/>
</clipPath>
</defs>
</svg>
