<svg xmlns="http://www.w3.org/2000/svg" id="Layer_1" data-name="Layer 1" viewBox="0 0 221.81 63.42" version="1.1"><defs id="defs9582"><style id="style9580">.cls-1{fill:#fff}.cls-2{opacity:.8}.cls-3{opacity:.6}</style></defs><path class="cls-1" d="M48.71 33.93a9.89 9.89 0 00-1.77-3.65 7.84 7.84 0 00-3-2.31 10.64 10.64 0 00-4.33-.81 10.81 10.81 0 00-4.48.86 8.55 8.55 0 00-3.17 2.42 10.4 10.4 0 00-1.89 3.79 18.35 18.35 0 00-.62 4.94 19.91 19.91 0 00.55 4.92 10 10 0 001.74 3.69 7.69 7.69 0 003 2.33 10.72 10.72 0 004.39.82 10.8 10.8 0 004.46-.86 8.32 8.32 0 003.17-2.44 10.73 10.73 0 001.89-3.83 18.59 18.59 0 00.63-5 18.71 18.71 0 00-.57-4.87zm-2.12 8.83a9.25 9.25 0 01-1.29 3.17 6.7 6.7 0 01-2.38 2.18 7.42 7.42 0 01-3.63.81 7.76 7.76 0 01-3.63-.76 6 6 0 01-2.32-2.1 8.92 8.92 0 01-1.24-3.16 20 20 0 01-.37-3.9 17.39 17.39 0 01.4-3.78 9 9 0 011.31-3.13 6.69 6.69 0 012.38-2.14 7.42 7.42 0 013.59-.8 7.7 7.7 0 013.6.76A6.15 6.15 0 0145.34 32a9.05 9.05 0 011.26 3.13A18.44 18.44 0 0147 39a17.91 17.91 0 01-.41 3.76z" transform="translate(-7.49 -7.78)" id="path9586"/><path class="cls-1" d="M65.84 50.46a.39.39 0 01-.17.14 1.25 1.25 0 01-.32.09 3.24 3.24 0 01-.5 0 3.42 3.42 0 01-.52 0 1.22 1.22 0 01-.33-.09.41.41 0 01-.17-.14.39.39 0 01-.05-.2v-9.61a10.65 10.65 0 00-.23-2.44 4.8 4.8 0 00-.69-1.61 3.14 3.14 0 00-1.18-1 3.64 3.64 0 00-1.68-.4 4.18 4.18 0 00-2.45.88A13.31 13.31 0 0055 38.65v11.61a.35.35 0 01-.22.34 1.24 1.24 0 01-.32.09 3.45 3.45 0 01-.52 0 3.26 3.26 0 01-.51 0 1.37 1.37 0 01-.33-.09.33.33 0 01-.17-.14.44.44 0 010-.2V34.07a.43.43 0 010-.2.35.35 0 01.17-.15 1.08 1.08 0 01.31-.09 3.64 3.64 0 01.49 0 3.83 3.83 0 01.5 0 .89.89 0 01.3.09.38.38 0 01.15.15.44.44 0 010 .2v2.29a10 10 0 012.75-2.26 5.68 5.68 0 012.64-.7 6 6 0 012.66.54 4.7 4.7 0 011.75 1.45 5.91 5.91 0 011 2.13 12.71 12.71 0 01.29 2.94v9.81a.39.39 0 01-.05.2z" transform="translate(-7.49 -7.78)" id="path9588"/><path class="cls-1" d="M72.49 50.46a.38.38 0 01-.17.14 1.22 1.22 0 01-.32.09 3.43 3.43 0 01-.52 0 3.28 3.28 0 01-.51 0 1.41 1.41 0 01-.33-.09.34.34 0 01-.17-.14.47.47 0 010-.2V26.14a.45.45 0 010-.2.37.37 0 01.17-.15 1 1 0 01.36-.09 3.78 3.78 0 01.51 0 4 4 0 01.52 0 .92.92 0 01.32.09.42.42 0 01.17.15.36.36 0 01.05.2v24.12a.37.37 0 01-.05.2z" transform="translate(-7.49 -7.78)" id="path9590"/><path class="cls-1" d="M79.63 29.77a1.53 1.53 0 01-1.1.31 1.51 1.51 0 01-1.07-.3 1.67 1.67 0 01-.29-1.15 1.67 1.67 0 01.3-1.16 1.55 1.55 0 011.1-.31 1.5 1.5 0 011.07.3 1.66 1.66 0 01.29 1.15 1.66 1.66 0 01-.3 1.16z" transform="translate(-7.49 -7.78)" id="path9592"/><path class="cls-1" d="M77.71 33.72a1.1 1.1 0 01.33-.09 4 4 0 01.5 0 4.22 4.22 0 01.52 0 1 1 0 01.32.09.42.42 0 01.17.15.37.37 0 01.05.2v16.2a.36.36 0 01-.22.34 1.29 1.29 0 01-.32.09 3.4 3.4 0 01-.52 0 3.24 3.24 0 01-.5 0 1.37 1.37 0 01-.33-.09.33.33 0 01-.17-.14.43.43 0 010-.2v-16.2a.41.41 0 010-.2.36.36 0 01.17-.15z" transform="translate(-7.49 -7.78)" id="path9594"/><path class="cls-1" d="M97.52 50.46a.4.4 0 01-.17.14 1.24 1.24 0 01-.32.09 3.28 3.28 0 01-.51 0 3.45 3.45 0 01-.52 0 1.28 1.28 0 01-.32-.09.38.38 0 01-.17-.14.39.39 0 01-.05-.2v-9.61a10.42 10.42 0 00-.23-2.44 4.86 4.86 0 00-.69-1.61 3.15 3.15 0 00-1.18-1 3.65 3.65 0 00-1.68-.37 4.18 4.18 0 00-2.45.88 13.37 13.37 0 00-2.57 2.58v11.57a.38.38 0 01-.05.2.39.39 0 01-.17.14 1.25 1.25 0 01-.32.09 3.37 3.37 0 01-.52 0 3.28 3.28 0 01-.51 0 1.41 1.41 0 01-.33-.09.34.34 0 01-.17-.14.45.45 0 010-.2V34.07a.44.44 0 010-.2.37.37 0 01.17-.15 1.12 1.12 0 01.31-.09 3.59 3.59 0 01.49 0 3.8 3.8 0 01.5 0 .89.89 0 01.3.09.39.39 0 01.15.15.44.44 0 010 .2v2.29a10 10 0 012.71-2.25 5.66 5.66 0 012.64-.7 6 6 0 012.66.54 4.71 4.71 0 011.75 1.45 5.9 5.9 0 011 2.13 12.71 12.71 0 01.29 2.94v9.81a.37.37 0 01-.05.2z" transform="translate(-7.49 -7.78)" id="path9596"/><path class="cls-1" d="M114.88 38a6.67 6.67 0 00-1.2-2.39 5.92 5.92 0 00-2.1-1.64 7.12 7.12 0 00-3.08-.61 7.56 7.56 0 00-3.06.6 6.47 6.47 0 00-2.35 1.74 7.84 7.84 0 00-1.5 2.77 12 12 0 00-.52 3.69 12.76 12.76 0 00.5 3.78 7.33 7.33 0 001.48 2.73 6.16 6.16 0 002.41 1.66 8.93 8.93 0 003.3.56 11.76 11.76 0 002.12-.18 15.46 15.46 0 001.73-.4 8 8 0 001.2-.45 2.62 2.62 0 00.55-.31 1 1 0 00.14-.18.81.81 0 00.08-.19 1.64 1.64 0 000-.21 1.92 1.92 0 000-.24 3.15 3.15 0 000-.45 1 1 0 00-.08-.29.36.36 0 00-.14-.17.35.35 0 00-.2-.05 1.7 1.7 0 00-.59.2c-.28.13-.63.28-1.06.44a11.76 11.76 0 01-1.53.44 9.3 9.3 0 01-2 .2 6.75 6.75 0 01-2.66-.46 4.35 4.35 0 01-1.76-1.34 5.91 5.91 0 01-1-2.19 12.62 12.62 0 01-.29-2.83h10.93a1 1 0 00.64-.14.81.81 0 00.33-.78v-.43a10.54 10.54 0 00-.29-2.88zm-11.53 2.21s.16-1.17.39-1.84a4.84 4.84 0 011-1.63 4.58 4.58 0 011.54-1.15 4.65 4.65 0 012.12-.43c1.56 0 2.75.27 3.56 1.23a6.57 6.57 0 011.17 3.81z" transform="translate(-7.49 -7.78)" id="path9598"/><path class="cls-1" d="M50.36 59.26a1.91 1.91 0 01-.23-1.26 1.47 1.47 0 01.61-1l.29-.19c.19-.12.44-.31.75-.54l.24-.17.25-.2.54-.43.55-.49.28-.26.27-.27.27-.27.14-.13.13-.14.5-.54c.16-.18.3-.36.44-.53s.28-.32.39-.48c.23-.31.43-.56.55-.74l.2-.29A1.24 1.24 0 0157 51a1.52 1.52 0 01.54-.2 1.89 1.89 0 011.25.24L65 54.75a1.48 1.48 0 01.7 1.14 2.15 2.15 0 010 .77 2.61 2.61 0 01-.36.76l-.3.44c-.19.28-.49.66-.84 1.12-.17.23-.37.47-.59.72s-.43.52-.67.8l-.75.81-.19.21-.2.2-.41.4-.41.41-.42.38-.83.74-.81.66-.38.3-.36.27c-.46.34-.85.63-1.13.81l-.44.29a2.23 2.23 0 01-1.54.38 1.48 1.48 0 01-1.12-.73z" transform="translate(-7.49 -7.78)" id="path9600"/><g class="cls-2" id="g9604" opacity=".8"><path class="cls-1" d="M33.1 61.36a1.91 1.91 0 01.74-1 1.47 1.47 0 011.11-.25l.35.07.39.08.52.08a21.17 21.17 0 002.79.22h2.17l.61-.06.91-.14a3 3 0 00.35-.06 1.22 1.22 0 01.57 0 1.68 1.68 0 01.53.25 1.86 1.86 0 01.71 1l1.83 7.08a1.51 1.51 0 01-.3 1.31 1.9 1.9 0 01-.58.5 2.51 2.51 0 01-.79.3h-.14l-.39.07c-.33 0-.81.13-1.38.2l-.93.1h-1.04l-1.13.08h-1.12a30.79 30.79 0 01-4.22-.33l-.78-.12-.6-.11-.52-.1a2.23 2.23 0 01-1.35-.82 1.48 1.48 0 01-.28-1.3z" transform="translate(-7.49 -7.78)" id="path9602" fill="#fff"/></g><g class="cls-3" id="g9608"><path class="cls-1" d="M19.42 50.64a1.9 1.9 0 011.26-.22 1.47 1.47 0 011 .61l.19.29c.12.19.31.44.54.75l.17.24.2.25.43.53.49.55.25.28.27.27.27.27.13.14.14.13.54.5.53.44c.17.14.32.28.48.39l.74.55.29.2a1.22 1.22 0 01.38.42 1.5 1.5 0 01.2.55 1.89 1.89 0 01-.28 1.22l-3.71 6.3a1.49 1.49 0 01-1.13.71A2.15 2.15 0 0122 66a2.6 2.6 0 01-.77-.36l-.44-.3c-.28-.19-.66-.49-1.12-.84-.23-.17-.47-.38-.72-.59s-.53-.43-.79-.67l-.82-.75-.21-.19-.2-.21-.4-.41-.4-.41-.38-.42L15 60l-.66-.81-.3-.37-.27-.36c-.34-.46-.63-.85-.81-1.13l-.29-.44a2.21 2.21 0 01-.38-1.54 1.47 1.47 0 01.72-1.12z" transform="translate(-7.49 -7.78)" id="path9606"/></g><g id="g9612" opacity=".4"><path class="cls-1" d="M17.32 33.39a1.92 1.92 0 011 .74 1.46 1.46 0 01.25 1.11l-.07.35-.08.39-.07.52a20.36 20.36 0 00-.22 2.79v2.12l.06.61c0 .38.11.69.13.91a3.09 3.09 0 00.06.35 1.22 1.22 0 010 .57 1.74 1.74 0 01-.25.53 1.87 1.87 0 01-1 .71l-7 1.91a1.5 1.5 0 01-1.31-.3 2 2 0 01-.5-.58 2.55 2.55 0 01-.32-.83v-.13c0-.13 0-.22-.07-.39 0-.33-.13-.81-.2-1.38 0-.29-.06-.6-.1-.93 0-.16 0-.33-.05-.51v-.53c0-.36 0-.73-.05-1.11s0-.76 0-1.15a31.12 31.12 0 01.33-4.22l.12-.78c0-.23.08-.43.12-.6l.1-.52a2.22 2.22 0 01.8-1.33 1.47 1.47 0 011.3-.28z" transform="translate(-7.49 -7.78)" id="path9610"/></g><g class="cls-3" id="g9616"><path class="cls-1" d="M28 19.71a1.92 1.92 0 01.26 1.29 1.47 1.47 0 01-.61 1l-.29.19c-.19.12-.44.31-.75.54l-.24.18-.25.2-.54.43L25 24l-.28.25-.27.27-.27.27-.14.13-.13.14-.5.54c-.16.18-.3.36-.44.53s-.28.32-.39.48-.43.55-.55.74l-.2.29a1.24 1.24 0 01-.42.39 1.51 1.51 0 01-.55.2 1.9 1.9 0 01-1.25-.24l-6.3-3.72a1.48 1.48 0 01-.7-1.14 2.13 2.13 0 010-.77 2.62 2.62 0 01.36-.76l.3-.44c.19-.28.49-.66.84-1.12.17-.23.38-.47.59-.72s.43-.52.67-.79l.75-.82.19-.21.2-.2.41-.4.41-.4.42-.38.83-.74.81-.66.38-.3.36-.27c.47-.34.85-.63 1.13-.81l.44-.29a2.22 2.22 0 011.54-.38 1.47 1.47 0 011.12.72z" transform="translate(-7.49 -7.78)" id="path9614"/></g><g class="cls-2" id="g9620"><path class="cls-1" d="M45.3 17.61a1.91 1.91 0 01-.74 1 1.47 1.47 0 01-1.11.25l-.34-.07-.4-.08-.52-.07a20.62 20.62 0 00-2.79-.22h-2.17l-.62.06-.91.13a3.08 3.08 0 00-.34.06 1.22 1.22 0 01-.57 0 1.72 1.72 0 01-.53-.25 1.87 1.87 0 01-.71-1l-1.83-7.08A1.5 1.5 0 0132 9.11a1.9 1.9 0 01.58-.5 2.6 2.6 0 01.79-.3h.13l.39-.07c.33 0 .81-.13 1.38-.2l.93-.1h1.04l1.11-.05h1.15a31.45 31.45 0 014.21.33l.78.12.59.11.52.1a2.22 2.22 0 011.4.72 1.47 1.47 0 01.28 1.3z" transform="translate(-7.49 -7.78)" id="path9618"/></g><path class="cls-1" d="M59 28.33a1.93 1.93 0 01-1.26.22 1.47 1.47 0 01-1-.61l-.19-.29c-.12-.19-.31-.44-.54-.75l-.18-.24-.2-.25-.43-.54-.49-.55-.24-.32-.27-.27-.27-.27-.13-.14-.14-.13-.54-.5c-.18-.16-.36-.3-.52-.44s-.32-.28-.48-.39c-.31-.23-.55-.43-.74-.55l-.29-.2a1.23 1.23 0 01-.38-.42 1.48 1.48 0 01-.2-.54 1.89 1.89 0 01.24-1.25l3.72-6.3a1.48 1.48 0 011.13-.7 2.15 2.15 0 01.77 0 2.6 2.6 0 01.76.36l.44.3c.28.19.66.49 1.12.84.23.17.47.38.72.59s.52.43.79.67l.82.75.21.19.2.2.4.41.4.41c.13.14.26.28.38.42l.74.83.65.8.3.38.27.36c.34.47.63.85.81 1.13l.29.44a2.23 2.23 0 01.38 1.54 1.48 1.48 0 01-.72 1.12z" transform="translate(-7.49 -7.78)" id="path9622"/><path class="cls-1" d="M135.86 49.49a8.6 8.6 0 01-2.75 1.37 12 12 0 01-3.69.56q-4.08 0-6-2.38a10.22 10.22 0 01-1.89-6.53q0-4.45 2.13-6.68a7.86 7.86 0 016-2.23 9.29 9.29 0 012.5.34 5.82 5.82 0 012.15 1.06 5.48 5.48 0 011.52 2.09 8.19 8.19 0 01.57 3.27 14.59 14.59 0 01-.08 1.52q-.08.81-.25 1.69H126a5 5 0 001.09 3.21 4.18 4.18 0 003.21 1.08 7.15 7.15 0 004.14-1.28zm-6.26-12.38a3 3 0 00-2.53 1 5.1 5.1 0 00-1 2.75h6.24a4.26 4.26 0 00-.55-2.8 2.46 2.46 0 00-2.16-.95z" transform="translate(-7.49 -7.78)" id="path9664"/><path class="cls-1" d="M142.61 42.3l-5.06-8.23h5.23l2.22 3.61.94 2.36 1-2.36 2.29-3.61H154l-5.09 8.1 5.43 8.77h-5.09l-2.6-4-1-2.5-1.08 2.5-2.6 4h-4.79z" transform="translate(-7.49 -7.78)" id="path9666"/><path class="cls-1" d="M156.51 34.07h3.2l.51 2h.13a5.58 5.58 0 012.07-1.89 6.4 6.4 0 012.92-.61 5.7 5.7 0 014.76 2q1.58 2 1.58 6.46a13.94 13.94 0 01-.51 3.9 8.22 8.22 0 01-1.5 3 6.57 6.57 0 01-2.43 1.86 9.08 9.08 0 01-5 .49 5.91 5.91 0 01-1.35-.49v6.92h-4.38zm7.49 3.24a2.93 2.93 0 00-2 .64 4.18 4.18 0 00-1.13 1.92v7a3.61 3.61 0 002.5.81 3.24 3.24 0 002.83-1.33 7.82 7.82 0 00.94-4.4 6.62 6.62 0 00-.74-3.44 2.59 2.59 0 00-2.4-1.2z" transform="translate(-7.49 -7.78)" id="path9668"/><path class="cls-1" d="M184 38.19a5.71 5.71 0 00-1.89-.37 3.09 3.09 0 00-2 .62 3 3 0 00-1.06 1.6v10.9h-4.38V34.07h3.41l.51 2.23h.13a4.6 4.6 0 011.55-1.92 3.94 3.94 0 012.29-.67 6.39 6.39 0 012 .37z" transform="translate(-7.49 -7.78)" id="path9670"/><path class="cls-1" d="M200.06 49.49a8.6 8.6 0 01-2.75 1.37 12 12 0 01-3.69.56q-4.08 0-6-2.38a10.22 10.22 0 01-1.89-6.53q0-4.45 2.13-6.68a7.86 7.86 0 016-2.23 9.29 9.29 0 012.5.34 5.82 5.82 0 012.15 1.06 5.48 5.48 0 011.49 2.14 8.19 8.19 0 01.57 3.27 14.59 14.59 0 01-.08 1.52q-.08.81-.25 1.69h-10.07a5 5 0 001.09 3.21 4.18 4.18 0 003.21 1.08 7.15 7.15 0 004.14-1.28zm-6.26-12.38a3 3 0 00-2.53 1 5.1 5.1 0 00-1 2.75h6.24a4.26 4.26 0 00-.55-2.8 2.46 2.46 0 00-2.16-.95z" transform="translate(-7.49 -7.78)" id="path9672"/><path class="cls-1" d="M210.68 46.28a1.26 1.26 0 00-.57-1.08 6.87 6.87 0 00-1.42-.74q-.84-.34-1.86-.69a7 7 0 01-1.85-1 5.35 5.35 0 01-1.42-1.59 4.78 4.78 0 01-.57-2.48 4.83 4.83 0 011.48-3.81 6.26 6.26 0 014.28-1.32 13.76 13.76 0 013.47.4 10.09 10.09 0 012.43.91l-1 3.17q-.78-.3-2-.64a8.68 8.68 0 00-2.39-.34q-2 0-2 1.52a1.12 1.12 0 00.57 1 7.55 7.55 0 001.42.69l1.86.69a8.12 8.12 0 011.86 1 5.06 5.06 0 011.42 1.54 4.63 4.63 0 01.57 2.43 5.14 5.14 0 01-1.64 4 7.15 7.15 0 01-4.91 1.47 12 12 0 01-3.36-.46 10.3 10.3 0 01-2.55-1.06l1.21-3.27a11.69 11.69 0 002.06.86 8.34 8.34 0 002.63.42 2.91 2.91 0 001.57-.37 1.36 1.36 0 00.71-1.25z" transform="translate(-7.49 -7.78)" id="path9674"/><path class="cls-1" d="M224.92 46.28a1.26 1.26 0 00-.57-1.08 6.87 6.87 0 00-1.42-.74q-.84-.34-1.86-.69a7 7 0 01-1.85-1 5.35 5.35 0 01-1.42-1.59 4.78 4.78 0 01-.57-2.48 4.83 4.83 0 011.48-3.81A6.26 6.26 0 01223 33.6a13.76 13.76 0 013.47.4 10.09 10.09 0 012.43.91l-1 3.17q-.78-.3-2-.64a8.68 8.68 0 00-2.39-.34q-2 0-2 1.52a1.12 1.12 0 00.57 1 7.55 7.55 0 001.42.69l1.86.69a8.12 8.12 0 011.86 1 5.06 5.06 0 011.42 1.54 4.63 4.63 0 01.57 2.43 5.14 5.14 0 01-1.64 4 7.15 7.15 0 01-4.91 1.47 12 12 0 01-3.26-.44 10.3 10.3 0 01-2.55-1.06l1.21-3.27a11.69 11.69 0 002.06.86 8.34 8.34 0 002.63.42 2.91 2.91 0 001.57-.37 1.36 1.36 0 00.6-1.3z" transform="translate(-7.49 -7.78)" id="path9676"/><text xml:space="preserve" style="line-height:1.25" x="67.999847" y="53.101357" id="text17853" font-style="normal" font-weight="400" font-size="40" font-family="sans-serif" letter-spacing="0" word-spacing="0" fill="#000" fill-opacity="1" stroke="none"/><text xml:space="preserve" style="line-height:1.25" x="70.997749" y="59.042171" id="text17857" font-style="normal" font-weight="400" font-size="40" font-family="sans-serif" letter-spacing="0" word-spacing="0" fill="#000" fill-opacity="1" stroke="none"><tspan id="tspan17855" x="70.997749" y="59.042171" style="line-height:16px;-inkscape-font-specification:Arial" font-style="normal" font-variant="normal" font-weight="400" font-stretch="normal" font-size="12" font-family="Arial" letter-spacing="1" fill="#fff" fill-opacity="1">Tourism IT solution</tspan></text></svg>