<svg width="275" height="62" viewBox="0 0 275 62" fill="none" xmlns="http://www.w3.org/2000/svg">
<path d="M6.71063 27.3219C6.71063 31.7776 8.0319 36.1332 10.5074 39.838C12.9828 43.5428 16.5013 46.4304 20.6179 48.1355C24.7344 49.8406 29.2642 50.2868 33.6343 49.4175C38.0044 48.5483 42.0186 46.4026 45.1692 43.2519C48.3199 40.1013 50.4656 36.0871 51.3348 31.717C52.2041 27.3469 51.758 22.8171 50.0528 18.7006C48.3477 14.584 45.4601 11.0655 41.7554 8.59007C38.0506 6.1146 33.6949 4.79333 29.2392 4.79333L29.2392 13.4213C31.9884 13.4213 34.676 14.2365 36.9619 15.7639C39.2479 17.2914 41.0295 19.4623 42.0816 22.0023C43.1337 24.5423 43.409 27.3373 42.8727 30.0337C42.3363 32.7302 41.0124 35.207 39.0684 37.1511C37.1243 39.0951 34.6475 40.419 31.951 40.9554C29.2546 41.4917 26.4596 41.2164 23.9196 40.1643C21.3796 39.1122 19.2087 37.3306 17.6812 35.0446C16.1538 32.7587 15.3386 30.0711 15.3386 27.3219L6.71063 27.3219Z" fill="white"/>
<path d="M73.6231 50.3185C70.3464 50.3185 67.8031 49.1404 65.9931 46.7844H65.6655C65.8839 48.9688 65.9931 50.2951 65.9931 50.7632V61.3656H60.493V23.9647H64.9399C65.0648 24.4484 65.3222 25.603 65.7123 27.4286H65.9931C67.7095 24.8072 70.284 23.4966 73.7167 23.4966C76.9466 23.4966 79.4587 24.6668 81.2531 27.0073C83.0631 29.3478 83.968 32.6322 83.968 36.8607C83.968 41.0892 83.0474 44.3893 81.2063 46.7609C79.3807 49.1326 76.853 50.3185 73.6231 50.3185ZM72.289 27.9903C70.1046 27.9903 68.5053 28.63 67.4911 29.9095C66.4924 31.1889 65.9931 33.233 65.9931 36.0415V36.8607C65.9931 40.0126 66.4924 42.2984 67.4911 43.7183C68.4897 45.1226 70.1202 45.8248 72.3827 45.8248C74.2862 45.8248 75.7529 45.0446 76.7828 43.4843C77.8126 41.924 78.3275 39.7005 78.3275 36.8139C78.3275 33.9117 77.8126 31.7195 76.7828 30.2372C75.7686 28.7392 74.2706 27.9903 72.289 27.9903Z" fill="white"/>
<path d="M103.1 50.3185C99.0744 50.3185 95.9226 49.1482 93.6445 46.8078C91.3821 44.4517 90.2508 41.214 90.2508 37.0948C90.2508 32.8663 91.304 29.5428 93.4105 27.1243C95.5169 24.7058 98.4113 23.4966 102.094 23.4966C105.511 23.4966 108.21 24.5342 110.192 26.6094C112.173 28.6846 113.164 31.54 113.164 35.1756V38.148H95.9148C95.9928 40.6601 96.6715 42.5949 97.951 43.9524C99.2305 45.2942 101.033 45.9652 103.358 45.9652C104.887 45.9652 106.307 45.8248 107.617 45.5439C108.943 45.2474 110.363 44.7637 111.877 44.0928V48.5631C110.535 49.2029 109.178 49.6553 107.804 49.9206C106.431 50.1859 104.863 50.3185 103.1 50.3185ZM102.094 27.6626C100.346 27.6626 98.9418 28.2165 97.8808 29.3244C96.8354 30.4322 96.2113 32.0471 96.0084 34.1692H107.758C107.726 32.0315 107.212 30.4166 106.213 29.3244C105.214 28.2165 103.841 27.6626 102.094 27.6626Z" fill="white"/>
<path d="M143.624 49.8504H138.101V33.9351C138.101 31.9379 137.695 30.4478 136.884 29.4648C136.088 28.4818 134.816 27.9903 133.069 27.9903C130.744 27.9903 129.043 28.6768 127.966 30.0499C126.89 31.423 126.351 33.7245 126.351 36.9543V49.8504H120.851V23.9647H125.158L125.93 27.3584H126.211C126.991 26.1257 128.099 25.1739 129.534 24.503C130.97 23.832 132.561 23.4966 134.309 23.4966C140.519 23.4966 143.624 26.6562 143.624 32.9755V49.8504Z" fill="white"/>
<path d="M175.335 50.3185C172.105 50.3185 169.585 49.1482 167.775 46.8078C165.965 44.4673 165.06 41.1828 165.06 36.9543C165.06 32.7103 165.973 29.4102 167.798 27.0541C169.64 24.6824 172.183 23.4966 175.428 23.4966C178.83 23.4966 181.42 24.7526 183.199 27.2647H183.48C183.214 25.408 183.082 23.9413 183.082 22.8646V13.4325H188.605V49.8504H184.299L183.339 46.4567H183.082C181.319 49.0312 178.736 50.3185 175.335 50.3185ZM176.809 45.8716C179.072 45.8716 180.718 45.2396 181.748 43.9758C182.778 42.6963 183.308 40.6289 183.339 37.7735V37.0011C183.339 33.7401 182.809 31.423 181.748 30.0499C180.687 28.6768 179.025 27.9903 176.763 27.9903C174.828 27.9903 173.338 28.7783 172.292 30.3542C171.247 31.9145 170.724 34.1458 170.724 37.048C170.724 39.9189 171.231 42.1112 172.245 43.6247C173.26 45.1226 174.781 45.8716 176.809 45.8716Z" fill="white"/>
<path d="M209.212 50.3185C205.186 50.3185 202.034 49.1482 199.756 46.8078C197.494 44.4517 196.363 41.214 196.363 37.0948C196.363 32.8663 197.416 29.5428 199.522 27.1243C201.629 24.7058 204.523 23.4966 208.205 23.4966C211.623 23.4966 214.322 24.5342 216.304 26.6094C218.285 28.6846 219.276 31.54 219.276 35.1756V38.148H202.027C202.105 40.6601 202.783 42.5949 204.063 43.9524C205.342 45.2942 207.144 45.9652 209.469 45.9652C210.998 45.9652 212.418 45.8248 213.729 45.5439C215.055 45.2474 216.475 44.7637 217.989 44.0928V48.5631C216.647 49.2029 215.289 49.6553 213.916 49.9206C212.543 50.1859 210.975 50.3185 209.212 50.3185ZM208.205 27.6626C206.458 27.6626 205.054 28.2165 203.993 29.3244C202.947 30.4322 202.323 32.0471 202.12 34.1692H213.869C213.838 32.0315 213.323 30.4166 212.325 29.3244C211.326 28.2165 209.953 27.6626 208.205 27.6626Z" fill="white"/>
<path d="M244.353 42.4779C244.353 45.0056 243.432 46.9482 241.591 48.3057C239.75 49.6475 237.113 50.3185 233.68 50.3185C230.232 50.3185 227.462 49.7958 225.371 48.7504V43.9992C228.414 45.4035 231.246 46.1056 233.867 46.1056C237.253 46.1056 238.946 45.0836 238.946 43.0396C238.946 42.3842 238.759 41.8381 238.385 41.4012C238.01 40.9644 237.394 40.5119 236.536 40.0438C235.677 39.5757 234.484 39.0452 232.955 38.4522C229.974 37.2976 227.954 36.143 226.893 34.9883C225.847 33.8337 225.325 32.3358 225.325 30.4946C225.325 28.2789 226.214 26.5626 227.993 25.3455C229.787 24.1129 232.221 23.4966 235.295 23.4966C238.338 23.4966 241.217 24.1129 243.932 25.3455L242.153 29.4882C239.36 28.3336 237.011 27.7562 235.108 27.7562C232.206 27.7562 230.755 28.5832 230.755 30.2372C230.755 31.0485 231.129 31.7351 231.878 32.2968C232.643 32.8585 234.297 33.6308 236.84 34.6139C238.977 35.4408 240.53 36.1976 241.497 36.8841C242.465 37.5707 243.183 38.3664 243.651 39.2714C244.119 40.1608 244.353 41.2296 244.353 42.4779Z" fill="white"/>
<path d="M257.072 36.182L260.185 32.2968L268.002 23.9647H274.345L263.93 35.0819L275 49.8504H268.54L260.232 38.4991L257.212 40.98V49.8504H251.759V13.4325H257.212V31.1967L256.931 36.182H257.072Z" fill="white"/>
<path d="M22.5285 -8.61415e-06C19.57 -8.48483e-06 16.6405 0.58271 13.9072 1.71487C11.1739 2.84704 8.69042 4.50648 6.59845 6.59845C4.50649 8.69042 2.84705 11.1739 1.71488 13.9072C0.582716 16.6405 -1.24339e-06 19.57 -9.84754e-07 22.5285L8.62795 22.5285C8.62795 20.7031 8.9875 18.8955 9.68607 17.209C10.3846 15.5225 11.4085 13.9901 12.6993 12.6993C13.9901 11.4085 15.5225 10.3846 17.209 9.68606C18.8955 8.98749 20.7031 8.62794 22.5285 8.62794L22.5285 -8.61415e-06Z" fill="#E1354D"/>
</svg>
