<svg width="210" height="67" viewBox="0 0 210 67" fill="none" xmlns="http://www.w3.org/2000/svg">
<path fill-rule="evenodd" clip-rule="evenodd" d="M33.2466 6.9561e-06L33.2529 0C38.8328 0.00534831 44.3232 1.41399 49.2157 4.09648C65.3187 12.9252 71.2095 33.1284 62.3771 49.2239C53.7195 65.0008 34.1254 70.9693 18.1904 62.8868L4.98722 65.0342C4.00569 65.1938 3.00729 64.8716 2.30418 64.1684C1.60108 63.4652 1.27908 62.4667 1.43888 61.4852L3.58723 48.2896C1.23561 43.6482 0.00453795 38.5147 2.04323e-05 33.3019M33.2502 6.18432C37.792 6.1892 42.2609 7.33612 46.2425 9.5192L46.2426 9.51922C59.3504 16.7058 64.144 33.1489 56.9554 46.2488C49.7669 59.3486 33.3106 64.1432 20.2025 56.9571C19.5981 56.6257 18.9001 56.5058 18.2197 56.6165L8.23284 58.2407L9.85758 48.2613C9.96842 47.5805 9.84845 46.8821 9.51674 46.2774C7.33409 42.298 6.18816 37.8338 6.18433 33.2959L6.18433 33.2951C6.16796 18.3412 18.2844 6.2024 33.2502 6.18432ZM33.2466 6.9561e-06C14.8676 0.0200997 -0.0196683 14.9275 1.95049e-05 33.3011Z" fill="#3189A8"/>
<path fill-rule="evenodd" clip-rule="evenodd" d="M48.077 24.0971C49.2846 25.3046 49.2846 27.2625 48.077 28.47L33.3893 43.1578C32.1817 44.3654 30.2239 44.3654 29.0163 43.1578L21.0048 35.1463C19.7972 33.9387 19.7972 31.9809 21.0048 30.7733C22.2124 29.5658 24.1702 29.5658 25.3778 30.7733L31.2028 36.5983L43.704 24.0971C44.9116 22.8895 46.8694 22.8895 48.077 24.0971Z" fill="#3189A8"/>
<path d="M111.414 33.2251C111.414 36.6174 110.778 39.5228 109.508 41.9415C108.247 44.3499 106.525 46.1947 104.342 47.4758C102.17 48.7569 99.7048 49.3974 96.9479 49.3974C94.191 49.3974 91.7211 48.7569 89.5381 47.4758C87.3654 46.1845 85.6436 44.3346 84.3728 41.9261C83.1122 39.5075 82.4819 36.6071 82.4819 33.2251C82.4819 29.8328 83.1122 26.9324 84.3728 24.524C85.6436 22.1053 87.3654 20.2554 89.5381 18.9744C91.7211 17.6933 94.191 17.0527 96.9479 17.0527C99.7048 17.0527 102.17 17.6933 104.342 18.9744C106.525 20.2554 108.247 22.1053 109.508 24.524C110.778 26.9324 111.414 29.8328 111.414 33.2251ZM105.68 33.2251C105.68 30.8371 105.306 28.8233 104.557 27.1835C103.82 25.5335 102.795 24.2883 101.483 23.4479C100.171 22.5972 98.6594 22.1719 96.9479 22.1719C95.2363 22.1719 93.7247 22.5972 92.4129 23.4479C91.101 24.2883 90.071 25.5335 89.3229 27.1835C88.585 28.8233 88.216 30.8371 88.216 33.2251C88.216 35.613 88.585 37.632 89.3229 39.282C90.071 40.9218 91.101 42.167 92.4129 43.0176C93.7247 43.858 95.2363 44.2782 96.9479 44.2782C98.6594 44.2782 100.171 43.858 101.483 43.0176C102.795 42.167 103.82 40.9218 104.557 39.282C105.306 37.632 105.68 35.613 105.68 33.2251Z" fill="#3189A8"/>
<path d="M115.269 29.9199V25.3541H135.93V29.9199H128.289V48.967H122.909V29.9199H115.269Z" fill="#3189A8"/>
<path d="M140.361 48.967V25.3541H150.277C153.074 25.3541 155.283 25.9127 156.902 27.0298C158.532 28.1469 159.347 29.7047 159.347 31.7031C159.347 33.0252 158.885 34.1064 157.963 34.9468C157.051 35.777 155.806 36.3355 154.227 36.6225C155.468 36.725 156.554 37.0376 157.487 37.5602C158.429 38.0829 159.167 38.7696 159.7 39.6202C160.233 40.4708 160.5 41.4496 160.5 42.5564C160.5 43.858 160.156 44.9905 159.47 45.9539C158.793 46.907 157.804 47.65 156.503 48.1829C155.211 48.7056 153.643 48.967 151.799 48.967H140.361ZM145.572 44.5857H151.799C152.823 44.5857 153.628 44.3448 154.212 43.8631C154.796 43.3712 155.088 42.705 155.088 41.8647C155.088 40.891 154.796 40.1275 154.212 39.5741C153.628 39.0104 152.823 38.7286 151.799 38.7286H145.572V44.5857ZM145.572 35.1313H150.384C151.143 35.1313 151.793 35.0237 152.337 34.8085C152.88 34.583 153.295 34.2704 153.582 33.8707C153.869 33.4608 154.012 32.974 154.012 32.4103C154.012 31.6007 153.679 30.9652 153.013 30.5041C152.357 30.0429 151.445 29.8123 150.277 29.8123H145.572V35.1313Z" fill="#3189A8"/>
<path d="M175.546 49.4281C173.178 49.4281 171.134 48.9362 169.412 47.9523C167.701 46.9582 166.384 45.5542 165.461 43.7402C164.539 41.9159 164.078 39.7688 164.078 37.2989C164.078 34.87 164.539 32.7383 165.461 30.9038C166.394 29.059 167.695 27.6242 169.366 26.5993C171.036 25.5642 172.999 25.0467 175.254 25.0467C176.709 25.0467 178.082 25.2824 179.374 25.7538C180.675 26.215 181.823 26.9324 182.817 27.906C183.822 28.8796 184.611 30.1197 185.185 31.6263C185.759 33.1226 186.046 34.9058 186.046 36.9761V38.6825H166.691V34.9315H180.711C180.701 33.8656 180.47 32.9176 180.019 32.0875C179.568 31.2471 178.938 30.586 178.129 30.1044C177.329 29.6227 176.397 29.3818 175.331 29.3818C174.193 29.3818 173.194 29.6585 172.333 30.212C171.472 30.7551 170.801 31.4726 170.319 32.3642C169.848 33.2456 169.607 34.2141 169.597 35.2697V38.5441C169.597 39.9174 169.848 41.096 170.35 42.0799C170.852 43.0535 171.554 43.8017 172.456 44.3243C173.358 44.8368 174.413 45.093 175.623 45.093C176.432 45.093 177.165 44.9802 177.821 44.7548C178.477 44.5191 179.046 44.1757 179.527 43.7248C180.009 43.2738 180.373 42.7153 180.619 42.0491L185.815 42.6333C185.487 44.0066 184.862 45.2057 183.939 46.2306C183.027 47.2452 181.859 48.0343 180.434 48.598C179.01 49.1514 177.38 49.4281 175.546 49.4281Z" fill="#3189A8"/>
<path d="M188.786 29.9199V25.3541H209.447V29.9199H201.807V48.967H196.426V29.9199H188.786Z" fill="#3189A8"/>
</svg>
