<svg width="400" height="52" viewBox="0 0 400 52" fill="none" xmlns="http://www.w3.org/2000/svg">
<path d="M27.8999 14.1L22.0999 19.9L16.2999 14.1C13.0999 10.9 13.0999 5.7 16.2999 2.4C19.4999 -0.8 24.6999 -0.8 27.8999 2.4C31.0999 5.7 31.0999 10.9 27.8999 14.1Z" fill="#5FAF2D"/>
<path d="M16.2999 30.5002L22.0999 24.7002L27.8999 30.5002C31.0999 33.7002 31.0999 38.9002 27.8999 42.2002C24.6999 45.4002 19.4999 45.4002 16.2999 42.2002C13.0999 38.9002 13.0999 33.7002 16.2999 30.5002Z" fill="#005A28"/>
<path d="M30.3 28.2001L24.5 22.3001L30.3 16.5001C33.5 13.3001 38.7 13.3001 41.9 16.5001C45.1 19.7001 45.1 24.9001 41.9 28.2001C38.7 31.4001 33.5 31.4001 30.3 28.2001Z" fill="#1EAF37"/>
<path d="M14 16.5001L19.8 22.3001L14 28.1001C10.8 31.3001 5.6 31.3001 2.4 28.1001C-0.8 24.9001 -0.8 19.7 2.4 16.4C5.5 13.3001 10.8 13.3001 14 16.5001Z" fill="#AAE641"/>
<path d="M338.9 20.5H330.4V41H323.4V20.5H314.9V13.7H338.9V20.5ZM100.1 30.3H120.5C120.7 29.4 120.8 28.4 120.8 27.4C120.8 19.4 115.1 13 107.1 13C98.5999 13 92.7999 19.3 92.7999 27.4C92.7999 35.5 98.4999 41.8 107.6 41.8C112.8 41.8 116.9 39.7 119.4 36L113.8 32.7C112.6 34.3 110.4 35.4 107.7 35.4C104.1 35.4 101.1 33.9 100.1 30.3ZM99.9999 24.8C100.8 21.3 103.4 19.3 107.1 19.3C110 19.3 113 20.9 113.8 24.8H99.9999ZM141.4 13C137.5 13 134.6 14.5 132.6 17V13.8H125.6V51.9H132.6V37.8C134.6 40.3 137.4 41.8 141.4 41.8C148.7 41.8 154.6 35.5 154.6 27.4C154.7 19.3 148.7 13 141.4 13ZM140.1 35C135.8 35 132.6 31.9 132.6 27.3C132.6 22.7 135.8 19.6 140.1 19.6C144.4 19.6 147.6 22.7 147.6 27.3C147.6 31.9 144.5 35 140.1 35ZM165.5 30.3H185.9C186.1 29.4 186.2 28.4 186.2 27.4C186.2 19.4 180.5 13 172.5 13C164 13 158.2 19.3 158.2 27.4C158.2 35.5 163.9 41.8 173 41.8C178.2 41.8 182.3 39.7 184.8 36L179.2 32.7C178 34.3 175.8 35.4 173.1 35.4C169.5 35.4 166.5 33.9 165.5 30.3ZM165.4 24.8C166.2 21.3 168.8 19.3 172.5 19.3C175.4 19.3 178.4 20.9 179.2 24.8H165.4ZM237.3 13C233.3 13 230.5 14.5 228.5 17V13.8H221.5V51.9H228.5V37.8C230.5 40.3 233.3 41.8 237.3 41.8C244.6 41.8 250.5 35.5 250.5 27.4C250.5 19.3 244.5 13 237.3 13ZM236 35C231.7 35 228.5 31.9 228.5 27.3C228.5 22.7 231.7 19.6 236 19.6C240.3 19.6 243.5 22.7 243.5 27.3C243.5 31.9 240.3 35 236 35ZM261.4 30.3H281.8C282 29.4 282.1 28.4 282.1 27.4C282.1 19.4 276.4 13 268.4 13C259.9 13 254.1 19.3 254.1 27.4C254.1 35.5 259.8 41.8 268.9 41.8C274.1 41.8 278.2 39.7 280.7 36L275.1 32.7C273.9 34.3 271.7 35.4 269 35.4C265.3 35.4 262.3 33.9 261.4 30.3ZM262.9 10.9C264.9 10.9 266.5 9.3 266.5 7.3C266.5 5.3 264.9 3.6 262.9 3.6C260.9 3.6 259.2 5.3 259.2 7.3C259.2 9.3 260.9 10.9 262.9 10.9ZM261.2 24.8C262 21.3 264.6 19.3 268.3 19.3C271.2 19.3 274.2 20.9 275 24.8H261.2ZM273.1 10.9C275.1 10.9 276.7 9.3 276.7 7.3C276.7 5.3 275.1 3.6 273.1 3.6C271.1 3.6 269.4 5.3 269.4 7.3C269.5 9.3 271.1 10.9 273.1 10.9ZM299.6 41.7C304.9 41.7 309.5 38.9 311.8 34.6L305.7 31.1C304.6 33.3 302.3 34.7 299.5 34.7C295.3 34.7 292.2 31.6 292.2 27.3C292.2 23 295.3 19.9 299.5 19.9C302.3 19.9 304.6 21.3 305.7 23.5L311.7 20C309.5 15.8 304.9 13 299.6 13C291.4 13 285.3 19.3 285.3 27.4C285.3 35.5 291.4 41.7 299.6 41.7ZM355.5 41.7C363.5 41.7 369.8 35.4 369.8 27.3C369.8 19.2 363.5 13 355.5 13C347.5 13 341.2 19.3 341.2 27.4C341.2 35.5 347.5 41.7 355.5 41.7ZM355.5 34.9C351.4 34.9 348.2 31.8 348.2 27.4C348.2 23 351.4 19.9 355.5 19.9C359.7 19.9 362.9 23 362.9 27.4C362.9 31.8 359.7 34.9 355.5 34.9ZM208.8 41H216.9L206.5 27.2L216.5 13.8H208.2L200.5 24.8H198.1V13.8H191.1V41H198.1V30.3H201L208.8 41ZM391.7 41H399.8L389.5 27.2L399.5 13.8H391.2L383.4 24.9H381V13.8H374V41H381V30.3H383.9L391.7 41ZM88.1999 3.5H59.8999V40.9H67.3999V10.6H80.7999V41H88.2999V3.5H88.1999Z" fill="#005A28"/>
</svg>
