<?xml version="1.0" encoding="utf-8"?>
<!-- Generator: Adobe Illustrator 25.1.0, SVG Export Plug-In . SVG Version: 6.00 Build 0)  -->
<svg version="1.1" id="Layer_1" xmlns="http://www.w3.org/2000/svg" xmlns:xlink="http://www.w3.org/1999/xlink" x="0px" y="0px"
	 viewBox="0 0 474.8 126.7" style="enable-background:new 0 0 474.8 126.7;" xml:space="preserve">
<style type="text/css">
	.st0{clip-path:url(#SVGID_2_);}
	.st1{fill:#5FAF2D;}
	.st2{fill:#005A28;}
	.st3{fill:#1EAF37;}
	.st4{fill:#AAE641;}
  .st5{fill:#FFFFFF;}
</style>
<g>
	<g>
		<defs>
			<rect id="SVGID_1_" width="474.8" height="126.7"/>
		</defs>
		<clipPath id="SVGID_2_">
			<use xlink:href="#SVGID_1_"  style="overflow:visible;"/>
		</clipPath>
		<g class="st0">
			<path class="st1" d="M65.4,51.5l-5.8,5.8l-5.8-5.8c-3.2-3.2-3.2-8.4,0-11.7c3.2-3.2,8.4-3.2,11.6,0
				C68.6,43.1,68.6,48.3,65.4,51.5z"/>
			<path class="st2" d="M53.8,67.9l5.8-5.8l5.8,5.8c3.2,3.2,3.2,8.4,0,11.7c-3.2,3.2-8.4,3.2-11.6,0C50.6,76.3,50.6,71.1,53.8,67.9z
				"/>
			<path class="st3" d="M67.8,65.6L62,59.7l5.8-5.8c3.2-3.2,8.4-3.2,11.6,0s3.2,8.4,0,11.7C76.2,68.8,71,68.8,67.8,65.6z"/>
			<path class="st4" d="M51.5,53.9l5.8,5.8l-5.8,5.8c-3.2,3.2-8.4,3.2-11.6,0s-3.2-8.4,0-11.7C43,50.7,48.3,50.7,51.5,53.9z"/>
			<path class="st5" d="M376.4,57.9h-8.5v20.5h-7V57.9h-8.5v-6.8h24V57.9z M137.6,67.7H158c0.2-0.9,0.3-1.9,0.3-2.9
				c0-8-5.7-14.4-13.7-14.4c-8.5,0-14.3,6.3-14.3,14.4s5.7,14.4,14.8,14.4c5.2,0,9.3-2.1,11.8-5.8l-5.6-3.3
				c-1.2,1.6-3.4,2.7-6.1,2.7C141.6,72.8,138.6,71.3,137.6,67.7z M137.5,62.2c0.8-3.5,3.4-5.5,7.1-5.5c2.9,0,5.9,1.6,6.7,5.5H137.5z
				 M178.9,50.4c-3.9,0-6.8,1.5-8.8,4v-3.2h-7v38.1h7V75.2c2,2.5,4.8,4,8.8,4c7.3,0,13.2-6.3,13.2-14.4
				C192.2,56.7,186.2,50.4,178.9,50.4z M177.6,72.4c-4.3,0-7.5-3.1-7.5-7.7c0-4.6,3.2-7.7,7.5-7.7c4.3,0,7.5,3.1,7.5,7.7
				S182,72.4,177.6,72.4z M203,67.7h20.4c0.2-0.9,0.3-1.9,0.3-2.9c0-8-5.7-14.4-13.7-14.4c-8.5,0-14.3,6.3-14.3,14.4
				s5.7,14.4,14.8,14.4c5.2,0,9.3-2.1,11.8-5.8l-5.6-3.3c-1.2,1.6-3.4,2.7-6.1,2.7C207,72.8,204,71.3,203,67.7z M202.9,62.2
				c0.8-3.5,3.4-5.5,7.1-5.5c2.9,0,5.9,1.6,6.7,5.5H202.9z M274.8,50.4c-4,0-6.8,1.5-8.8,4v-3.2h-7v38.1h7V75.2c2,2.5,4.8,4,8.8,4
				c7.3,0,13.2-6.3,13.2-14.4C288,56.7,282,50.4,274.8,50.4z M273.5,72.4c-4.3,0-7.5-3.1-7.5-7.7c0-4.6,3.2-7.7,7.5-7.7
				c4.3,0,7.5,3.1,7.5,7.7S277.8,72.4,273.5,72.4z M298.9,67.7h20.4c0.2-0.9,0.3-1.9,0.3-2.9c0-8-5.7-14.4-13.7-14.4
				c-8.5,0-14.3,6.3-14.3,14.4s5.7,14.4,14.8,14.4c5.2,0,9.3-2.1,11.8-5.8l-5.6-3.3c-1.2,1.6-3.4,2.7-6.1,2.7
				C302.8,72.8,299.8,71.3,298.9,67.7z M300.4,48.3c2,0,3.6-1.6,3.6-3.6c0-2-1.6-3.7-3.6-3.7c-2,0-3.7,1.7-3.7,3.7
				C296.7,46.7,298.4,48.3,300.4,48.3z M298.7,62.2c0.8-3.5,3.4-5.5,7.1-5.5c2.9,0,5.9,1.6,6.7,5.5H298.7z M310.6,48.3
				c2,0,3.6-1.6,3.6-3.6c0-2-1.6-3.7-3.6-3.7s-3.7,1.7-3.7,3.7C307,46.7,308.6,48.3,310.6,48.3z M337.1,79.1c5.3,0,9.9-2.8,12.2-7.1
				l-6.1-3.5c-1.1,2.2-3.4,3.6-6.2,3.6c-4.2,0-7.3-3.1-7.3-7.4c0-4.3,3.1-7.4,7.3-7.4c2.8,0,5.1,1.4,6.2,3.6l6-3.5
				c-2.2-4.2-6.8-7-12.1-7c-8.2,0-14.3,6.3-14.3,14.4C322.8,72.9,328.9,79.1,337.1,79.1z M393,79.1c8,0,14.3-6.3,14.3-14.4
				S401,50.4,393,50.4c-8,0-14.3,6.3-14.3,14.4S385,79.1,393,79.1z M393,72.3c-4.1,0-7.3-3.1-7.3-7.5c0-4.4,3.2-7.5,7.3-7.5
				c4.2,0,7.4,3.1,7.4,7.5C400.4,69.2,397.2,72.3,393,72.3z M246.3,78.4h8.1l-10.4-13.8l10-13.4h-8.3L238,62.2h-2.4V51.2h-7v27.2h7
				V67.7h2.9L246.3,78.4z M429.2,78.4h8.1L427,64.6l10-13.4h-8.3l-7.8,11.1h-2.4V51.2h-7v27.2h7V67.7h2.9L429.2,78.4z M125.7,40.9
				H97.4v37.4h7.5V48h13.4v30.4h7.5V40.9z"/>
		</g>
	</g>
</g>
</svg>
