<svg width="446" height="100" viewBox="0 0 446 100" fill="none" xmlns="http://www.w3.org/2000/svg">
<path fill-rule="evenodd" clip-rule="evenodd" d="M16.0591 9.27162C26.9123 5.28958 38.1241 2.08527 49.639 0.809776C58.5071 -0.0550738 67.4803 -0.403503 76.3484 0.66045C79.2178 1.10221 82.6067 1.59374 84.4249 4.15096C85.2783 7.99612 85.3401 13.4963 81.2524 15.5433C79.8115 15.5496 78.3706 14.5727 76.9606 15.0331C75.6619 16.1531 75.2476 17.9201 74.6292 19.4507C72.2854 26.3882 70.7084 33.5559 69.082 40.6924C65.7178 55.0154 63.7327 69.6494 62.9102 84.3394C62.6381 88.6076 62.2733 93.5105 58.8534 96.5282C56.9425 98.0525 54.1906 99.5271 51.7726 98.345C50.3007 97.6979 48.73 96.721 48.3651 95.0162C46.8376 89.9391 46.8129 84.5571 47.153 79.3058C48.6372 61.368 53.2444 43.903 57.1033 26.3757C57.8021 22.9226 59.0266 19.5192 58.8039 15.9353C55.7552 16.4206 52.7991 17.4784 49.6885 17.5406C45.7368 17.8268 41.476 18.0134 38.0747 20.3093C36.6647 21.2178 36.1328 22.9226 36.003 24.5092C35.1434 32.8715 34.426 41.2773 32.6017 49.5027C30.4558 59.744 28.044 69.9356 25.2673 80.0276C24.4572 84.1216 22.5215 88.2343 19.0275 90.6609C17.0238 92.1106 14.4141 91.6439 12.2744 90.7977C11.6189 89.1116 11.0128 87.3695 10.9201 85.5464C10.2769 76.4064 12.596 67.4032 15.1871 58.7298C16.0962 55.2642 16.2384 51.6555 17.0857 48.1712C18.6317 39.9085 21.3342 31.8697 22.4226 23.5199C16.7579 25.1251 11.1056 27.4335 5.1317 27.2779C2.84356 27.2219 0.122534 25.9029 0.00503498 23.3021C-0.0877273 20.0107 1.09963 16.458 3.70316 14.3363C7.28378 11.5302 11.8972 10.8271 16.0591 9.27162ZM237.26 22.8915C238.67 22.0639 240.5 21.9644 241.954 22.767C244.811 24.2914 247.124 26.6371 249.381 28.933C250.995 28.1366 252.516 27.0104 254.316 26.6868C256.072 27.3339 257.173 29.0512 258.249 30.5071C262.961 37.9797 264.705 46.9579 265.033 55.6873C264.984 66.2771 261.898 76.9913 255.713 85.6211C252.158 90.3187 247.668 94.5931 242.053 96.6153C238.287 98.0028 234.001 98.1147 230.26 96.5841C222.975 93.8403 217.582 86.9961 216.048 79.3867C212.245 61.8719 217.984 43.063 229.499 29.6236C231.806 27.0975 234.236 24.5589 237.26 22.8915ZM237.495 42.5279C230.668 52.8812 227.421 65.6922 228.812 78.0614C229.227 81.5519 230.29 85.6584 233.853 87.1517C239.734 85.2167 242.943 79.3743 245.646 74.2038C250.55 63.7572 253.351 51.4191 249.61 40.1511C248.88 38.2037 247.649 35.4287 245.101 35.9078C241.675 36.6917 239.492 39.8587 237.495 42.5279ZM342.1 25.0318C342.706 23.5696 343.918 21.5413 345.81 22.3937C348.705 23.7252 351.215 25.8344 353.405 28.1428C355.05 29.6547 354.307 32.0626 353.844 33.9354C350.374 45.4087 346.905 56.913 344.741 68.7223C354.691 56.434 365.043 44.4443 376.069 33.1203C379.112 30.2209 381.944 26.9606 385.618 24.8514C387.628 23.5385 389.786 25.4176 391.06 26.917C392.507 28.7899 394.405 31.0484 393.75 33.5932C392.662 36.5548 390.083 38.5521 387.949 40.736C386.601 42.0364 386.422 44.0212 385.853 45.7198C383.119 55.0154 381.635 64.6345 380.769 74.2785C379.935 81.5519 379.947 88.9063 378.97 96.1673C378.828 97.3432 378.531 98.5876 377.69 99.4649C375.766 100.311 373.676 99.272 371.945 98.4258C368.679 96.6899 365.253 94.2136 364.35 90.3933C363.72 86.8219 364.32 83.1821 365 79.6667C366.503 72.275 368.277 64.9456 369.892 57.5788C363.033 65.3998 356.657 73.6252 350.288 81.8381C347.245 85.814 344.023 89.6591 341.376 93.9212C340.158 95.682 338.674 98.1396 336.169 97.6606C333.04 97.1068 330.375 95.0473 328.074 92.9505C326.275 91.4448 327.066 88.8876 327.171 86.8717C329.391 72.0137 333.485 57.529 337.14 42.9759C338.828 37.009 339.707 30.7809 342.1 25.0318ZM406.508 22.6115C407.318 21.7528 408.524 22.4932 409.315 22.9972C411.665 24.6336 413.824 26.5935 415.599 28.8521C416.774 30.2022 415.933 32.0502 415.376 33.475C412.884 38.9814 410.614 44.6994 409.73 50.716C409.501 52.5266 409.575 55.6375 412.098 55.5069C416.792 55.4571 421.344 54.0323 425.802 52.6759C428.109 44.6994 430.342 36.6171 434.04 29.157C434.831 27.9312 435.839 25.6291 437.645 26.3135C440.496 27.7943 443.161 29.7667 445.326 32.1684C447.045 34.2963 445.017 36.897 444.318 39.0312C440.954 48.109 437.756 57.3237 436.155 66.9055C435.11 72.8661 434.33 78.8703 433.557 84.8745C433.063 89.7213 433.557 94.8544 431.523 99.4027C430.991 99.6018 430.465 99.8009 429.946 100C427.175 98.3636 424.343 96.8392 421.535 95.2838C419.594 94.2571 418.202 92.1355 418.573 89.8769C419.501 80.8489 421.845 72.0448 423.774 63.1972C418.678 64.6158 413.626 66.2771 408.4 67.1108C405.321 67.6086 402.655 65.4744 400.732 63.3216C397.819 60.0116 395.228 55.7309 395.995 51.1204C397.046 43.847 399.476 36.841 402.303 30.084C403.527 27.5144 404.523 24.7083 406.508 22.6115ZM122.556 25.0878C132.402 23.271 142.445 23.0843 152.401 22.263C157.398 21.6844 162.729 23.999 165.382 28.3668C166.105 29.6049 166.686 31.1915 166.074 32.5915C165.314 33.2572 164.367 33.6616 163.384 33.8607C158.987 34.7318 154.467 34.5078 150.063 35.3229C145.685 49.5525 142.036 64.0123 139.668 78.721C138.468 85.0176 138.159 91.4946 136.372 97.6606C133.088 97.7912 130.045 96.2979 127.3 94.6554C125.865 93.6909 124.17 92.4528 124.041 90.5613C123.799 86.3677 124.894 82.2612 125.568 78.161C128.363 64.0123 131.765 49.988 135.351 36.026C131.121 36.1069 126.891 37.1086 122.661 36.6357C119.062 35.4784 118.197 31.2724 117.399 28.0494C118.58 26.2949 120.516 25.374 122.556 25.0878ZM171.819 24.3909C169.612 25.2993 166.711 26.3322 166.136 28.9454C166.482 32.7719 168.047 36.7664 171.355 38.9503C167.67 55.3451 163.285 71.5657 159.074 87.8236C158.697 90.0449 157.967 93.019 159.94 94.6927C162.116 96.0366 164.763 96.2108 167.156 97.0135C168.752 97.3868 170.941 98.3885 172.209 96.7895C173.489 95.1718 173.736 93.0128 174.175 91.0466C175.548 82.3172 176.389 73.4759 178.671 64.9207C180.712 67.6397 182.666 70.9435 186.105 71.995C188.999 72.2066 191.51 70.2529 193.724 68.6103C199.846 63.5519 204.997 57.305 208.801 50.3178C210.736 46.51 212.752 42.0613 211.355 37.737C208.955 30.252 201.887 25.3242 194.626 23.2772C187.15 21.4417 179.104 21.9582 171.819 24.3909ZM184.565 37.8055C186.204 35.8766 189.03 36.0944 191.318 35.9326C194.212 35.858 197.984 35.9824 199.493 38.9503C200.687 42.2479 198.485 45.4273 196.482 47.8539C191.973 53.0306 186.21 57.2241 179.723 59.4765C180.366 54.2314 181.51 49.0672 182.574 43.8967C183.112 41.8373 183.347 39.6036 184.565 37.8055ZM277.525 25.4673C282.299 24.0798 287.216 23.2834 292.126 22.5741C299.924 21.5911 308.446 22.2506 314.989 27.0477C320.517 30.7435 323.881 37.849 322.323 44.4692C320.826 50.94 315.731 55.874 310.128 59.0098C315.199 62.1519 319.299 67.9943 318.223 74.2225C317.073 80.2204 313.597 85.5464 309.46 89.908C305.892 93.4918 301.618 96.9824 296.449 97.6294C291.557 98.2703 287.5 94.7549 284.433 91.3702C283.796 93.2056 283.394 95.1967 282.25 96.8019C281.396 97.9779 279.708 97.8348 278.595 97.1628C275.763 95.57 273.184 93.4981 271.001 91.0964C269.85 90.0076 270.079 88.2965 270.197 86.8779C270.716 83.8478 271.978 81.0106 273.004 78.1361C277.995 65.5927 280.425 52.1968 281.959 38.8321C277.352 37.7557 273.901 33.5061 273.375 28.8459C273.654 26.7739 275.806 26.0024 277.525 25.4673ZM293.48 34.4518C294.321 35.7895 295.682 37.0588 295.595 38.7823C295.675 44.1518 294.445 49.4218 293.666 54.7043C299.776 52.4021 305.768 48.8183 309.479 43.2745C311.278 40.7484 311.055 36.7291 308.205 35.0616C303.795 32.3426 298.254 33.5496 293.48 34.4518ZM291.483 64.8025C290.128 71.4973 287.735 77.9121 286.003 84.5074C293.202 84.1589 300.771 80.8178 304.377 74.2723C306.096 71.3231 305.96 66.6815 302.67 64.9145C299.194 63.1785 295.088 63.8567 291.483 64.8025ZM93.5527 25.542C89.0383 26.1082 84.3692 26.1393 80.0465 27.7321C78.5499 28.317 76.6452 29.5489 77.1647 31.4591C77.7831 34.6696 78.5128 39.0001 82.3594 39.6845C80.7453 44.0461 78.8344 48.2832 77.2327 52.651C75.1487 58.537 73.6768 64.622 72.2854 70.7009C71.0795 76.4002 69.8488 82.2301 70.4487 88.085C70.8321 91.3453 72.5328 94.7487 75.699 96.0428C80.8999 98.4881 86.7996 97.6979 92.2973 97.0135C97.2199 96.2171 102.192 95.4144 106.898 93.7096C108.525 93.2119 109.582 91.5693 109.316 89.8644C109.087 87.861 109.217 85.4158 107.628 83.9349C104.678 83.4061 101.889 84.7749 99.1184 85.5526C94.7215 86.8344 90.0834 87.189 85.5318 86.9339C83.2808 86.8344 83.3612 84.0843 83.5405 82.4417C84.3445 76.6615 85.7607 70.956 87.7643 65.4807C92.891 65.3687 98.0362 65.4122 103.15 65.0576C104.325 64.8834 106.311 64.734 106.273 63.1288C106.317 61.0382 106.434 58.9103 106.137 56.8384C105.309 55.9549 104.171 55.4073 102.971 55.2891C98.5433 54.6109 94.0722 55.4633 89.6319 55.5629C91.0914 50.7658 92.8415 46.062 94.7215 41.4142C95.5935 39.5476 96.3479 37.0153 98.667 36.586C104.715 35.3291 110.831 37.2206 116.916 36.6419C116.372 33.8483 114.733 31.4777 113.138 29.2005C111.796 27.1659 109.798 25.4362 107.294 25.1998C102.73 24.6274 98.1228 25.3367 93.5527 25.542Z" fill="#EE1D23"/>
</svg>
