<svg width="150" height="82" viewBox="0 0 150 82" fill="none" xmlns="http://www.w3.org/2000/svg">
<g clip-path="url(#clip0_4412_22589)">
<path d="M64.1212 45.4772C64.3615 45.0942 64.7456 44.7592 65.1299 44.4719C65.6582 44.1367 66.2826 43.9932 66.859 43.9932C68.2519 43.9932 68.9723 44.7592 69.2125 45.0463C69.8369 45.908 69.8849 47.0569 69.8849 47.9664V55.2429C69.8849 55.913 69.7889 56.8705 69.0685 57.5886C68.492 58.163 67.7716 58.4023 66.955 58.4023C66.1385 58.4023 65.6102 58.163 65.0819 57.8757C64.6976 57.6365 64.4094 57.3492 64.1693 57.062V63.9554H61.3354V44.2326H64.1693V45.4772H64.1212ZM64.1212 53.8067C64.1212 54.2376 64.1693 54.7642 64.5535 55.195C64.7456 55.3865 65.0819 55.6259 65.6102 55.6259C66.0424 55.6259 66.3306 55.4823 66.6189 55.195C66.955 54.812 67.003 54.3812 67.003 54.0462V48.3973C67.003 47.9186 67.003 47.5356 66.6189 47.1527C66.3787 46.8655 66.0424 46.7219 65.6102 46.7219C65.0819 46.7219 64.7456 46.9612 64.5535 47.1527C64.1212 47.5835 64.1212 48.1102 64.1212 48.5409V53.8067Z" fill="white"/>
<path d="M75.2163 44.2334L77.5219 52.9458H77.6179L79.395 44.2334H82.2289L78.3864 60.1265C78.1943 60.9404 77.9541 62.2808 77.0896 63.0945C76.225 63.9084 75.1203 63.9563 74.2557 63.9563H73.4873L73.4391 61.3234H73.9676C74.3517 61.3234 74.8801 61.2754 75.3124 60.7488C75.4084 60.6053 75.6006 60.318 75.8407 59.4085L76.273 57.5894L72.1904 44.2334H75.2163Z" fill="white"/>
<path d="M83.8615 48.158C83.8615 46.674 84.4378 45.7166 84.9182 45.19C85.6386 44.424 86.7913 43.9932 88.1842 43.9932C89.529 43.9932 90.4896 44.5197 91.114 45.0463C91.6425 45.5729 92.3149 46.4346 92.3149 47.9664V48.3495C92.3149 49.1155 92.1228 49.7377 91.8346 50.1686C91.6425 50.4557 91.3062 50.8387 90.7299 51.0782C91.3062 51.3174 91.6425 51.6526 91.8826 51.9876C92.3629 52.6579 92.4109 53.4716 92.4109 53.9982V54.3812C92.4109 55.4343 91.9786 56.5354 91.3062 57.2056C90.5858 57.9716 89.3369 58.4023 88.0402 58.4023C87.0315 58.4023 85.7826 58.0195 85.0622 57.3492C84.3898 56.7747 83.8615 55.7216 83.8615 54.5727V54.0462H86.5992V54.3333C86.5992 54.6684 86.6952 55.0036 86.8873 55.195C87.2236 55.578 87.7039 55.6737 88.0402 55.6737C88.7126 55.6737 89.0968 55.4343 89.2409 55.195C89.481 54.9077 89.577 54.429 89.577 53.9982V53.7589C89.577 53.1844 89.3369 52.8493 89.1448 52.7057C88.8566 52.4663 88.4243 52.3227 88.0882 52.3227H87.0795V49.8813H87.992C88.5205 49.8813 88.9046 49.6899 89.1448 49.4504C89.3369 49.2112 89.481 48.876 89.481 48.3973V48.2537C89.481 47.8707 89.3369 47.4877 89.1448 47.2006C88.8566 46.8176 88.4243 46.7219 88.0882 46.7219C87.5598 46.7219 87.1756 46.9133 86.9355 47.1527C86.6472 47.4877 86.5512 47.8707 86.5512 48.2059V48.3973H83.8135V48.158H83.8615Z" fill="white"/>
<path d="M95.7734 48.7325C95.7734 47.6315 95.8694 46.0994 97.1663 44.9984C97.9349 44.3283 98.9914 43.9932 100.048 43.9932C101.105 43.9932 102.161 44.3283 102.93 44.9984C104.227 46.0994 104.323 47.6315 104.323 48.7325V53.711C104.323 54.812 104.227 56.3439 102.93 57.4449C102.161 58.1152 101.105 58.4503 100.048 58.4503C98.9914 58.4503 97.9349 58.1152 97.1663 57.4449C95.8694 56.3439 95.7734 54.812 95.7734 53.711V48.7325ZM101.489 48.5409C101.489 47.8707 101.297 47.392 101.057 47.1527C100.817 46.9133 100.48 46.7697 100.048 46.7697C99.6159 46.7697 99.2316 46.9612 99.0394 47.1527C98.7993 47.4399 98.6073 47.9186 98.6073 48.5409V53.8546C98.6073 54.5249 98.7993 55.0036 99.0394 55.2429C99.2797 55.4823 99.6159 55.6259 100.048 55.6259C100.48 55.6259 100.817 55.4343 101.057 55.2429C101.297 54.9556 101.489 54.4769 101.489 53.8546V48.5409Z" fill="white"/>
<path d="M112.68 44.2334C113.881 44.2334 114.841 44.6643 115.466 45.2387C116.09 45.9088 116.378 46.9141 116.378 47.6801V48.3503C116.378 48.9247 116.282 49.7385 115.706 50.4087C115.562 50.6003 115.177 50.9353 114.601 51.1268C114.937 51.2225 115.466 51.4618 115.898 52.0364C116.378 52.7065 116.474 53.4245 116.474 54.047V54.7171C116.474 56.0097 115.85 56.8713 115.322 57.35C114.409 58.1638 113.304 58.2595 112.248 58.2595H107.925V44.2334H112.68ZM110.807 49.9778H112.055C112.488 49.9778 112.824 49.93 113.208 49.5471C113.496 49.1641 113.544 48.7811 113.544 48.3981V48.111C113.544 47.4885 113.256 47.2014 113.208 47.1057C112.92 46.7705 112.44 46.7227 112.055 46.7227H110.807V49.9778ZM110.807 55.6745H112.103C112.488 55.6745 112.968 55.6267 113.304 55.1958C113.592 54.9085 113.592 54.5257 113.592 54.1905V53.664C113.592 53.3288 113.544 52.9458 113.256 52.6108C112.92 52.2278 112.44 52.18 112.055 52.18H110.759V55.6745H110.807Z" fill="white"/>
<path d="M125.648 56.8226C125.456 57.1576 125.072 57.5884 124.688 57.8757C124.159 58.3066 123.631 58.4023 123.055 58.4023C122.478 58.4023 121.614 58.3066 120.893 57.6842C120.029 56.8704 119.885 55.5779 119.885 54.4769C119.885 53.4716 119.933 51.9397 120.749 50.9823C121.662 49.8812 123.247 49.7854 124.111 49.7854C124.304 49.7854 124.832 49.7854 125.744 49.8812V48.3972C125.744 48.0143 125.696 47.5834 125.36 47.2004C125.072 46.9132 124.64 46.7696 124.207 46.7696C123.823 46.7696 123.391 46.9132 123.055 47.2962C122.863 47.5356 122.719 47.8227 122.67 48.2057H119.981C119.933 46.9612 120.509 45.8122 121.133 45.1899C121.854 44.4717 123.007 44.041 124.304 44.041C125.552 44.041 126.609 44.4717 127.329 45.1899C128.338 46.1952 128.482 47.5356 128.482 48.493V58.2587H125.648V56.8226ZM125.696 52.1312C125.36 52.0833 125.024 52.0354 124.688 52.0354C124.255 52.0354 123.535 52.0833 123.103 52.6099C122.719 53.0407 122.67 53.6152 122.67 54.0939C122.67 54.4769 122.719 54.9077 122.959 55.2427C123.247 55.6736 123.631 55.913 124.111 55.913C124.976 55.913 125.696 55.3386 125.696 54.0939V52.1312Z" fill="white"/>
<path d="M137.848 58.2109V52.4663H136.6L134.678 58.2109H131.604L133.91 52.0354C133.526 51.844 133.093 51.5089 132.805 51.1259C132.421 50.5993 132.181 49.6897 132.181 48.9239V47.727C132.181 46.4346 132.805 45.5729 133.334 45.0941C134.246 44.2803 135.351 44.1846 136.408 44.1846H140.73V58.163H137.848V58.2109ZM137.848 46.4824H136.552C136.167 46.4824 135.831 46.5303 135.447 46.9133C135.063 47.2963 135.015 47.6313 135.015 48.11V48.7324C135.015 49.0196 135.063 49.4504 135.351 49.7856C135.687 50.1684 136.119 50.2164 136.552 50.2164H137.848V46.4824Z" fill="white"/>
<path d="M147.118 81.1892V75.4448H145.87L143.948 81.1892H140.874L143.18 75.0139C142.795 74.8224 142.363 74.4874 142.075 74.1044C141.691 73.5778 141.45 72.6682 141.45 71.9022V70.7055C141.45 69.4129 142.075 68.5512 142.603 68.0727C143.516 67.2588 144.62 67.1631 145.677 67.1631H150V81.1414H147.118V81.1892ZM147.118 69.4608H145.821C145.437 69.4608 145.101 69.5087 144.717 69.8917C144.333 70.2747 144.284 70.6098 144.284 71.0885V71.7108C144.284 71.9981 144.333 72.4288 144.62 72.7639C144.957 73.1469 145.437 73.1948 145.821 73.1948H147.118V69.4608Z" fill="white"/>
<path d="M55.5233 72.8598C56.0996 72.8598 56.4359 72.7641 56.724 72.1897C56.9642 71.7588 57.0122 71.2322 57.1083 70.8492L57.3005 69.8439C57.3965 69.3174 57.5406 68.5514 57.9729 68.0248C58.5492 67.2109 59.5099 67.1152 60.4225 67.1152H61.0949V69.5088H60.7106C60.3743 69.5088 60.1342 69.6524 59.9902 69.7961C59.894 69.9397 59.75 70.1789 59.7019 70.7535L59.5579 71.8067C59.4618 72.4768 59.4618 72.9555 59.2696 73.3864C59.0776 73.7694 58.8855 73.9608 58.6933 74.1044L61.2389 81.2851H58.357L56.3398 75.3012H54.7548V81.2851H51.9209V67.3068H54.7548V72.9555H55.5233V72.8598Z" fill="white"/>
<path d="M63.7852 71.7108C63.7852 70.6098 63.8813 69.078 65.178 67.977C65.9466 67.3067 67.0033 66.9717 68.0599 66.9717C69.1166 66.9717 70.1733 67.3067 70.9417 67.977C72.2386 69.078 72.3346 70.6098 72.3346 71.7108V76.6894C72.3346 77.7905 72.2386 79.3224 70.9417 80.4234C70.1733 81.0935 69.1166 81.4287 68.0599 81.4287C67.0033 81.4287 65.9466 81.0935 65.178 80.4234C63.8813 79.3224 63.7852 77.7905 63.7852 76.6894V71.7108ZM69.5009 71.5673C69.5009 70.8971 69.3087 70.4184 69.0686 70.179C68.8284 69.9397 68.4922 69.796 68.0599 69.796C67.6276 69.796 67.2914 69.9875 67.0513 70.179C66.8112 70.4662 66.619 70.945 66.619 71.5673V76.881C66.619 77.5511 66.8112 78.0298 67.0513 78.2692C67.2914 78.5085 67.6276 78.6521 68.0599 78.6521C68.4922 78.6521 68.8764 78.4607 69.0686 78.2692C69.3087 77.982 69.5009 77.5033 69.5009 76.881V71.5673Z" fill="white"/>
<path d="M81.6039 75.0139H81.6521L84.6299 67.2109H87.2237V81.1892H84.5819V73.2426L82.1804 79.1787H80.9797L78.6261 73.2426V81.1892H75.9844V67.2109H78.5781L81.6039 75.0139Z" fill="white"/>
<path d="M91.1624 67.2109H99.5197V81.1892H96.6858V69.7481H93.9481V81.1892H91.1143V67.2109H91.1624Z" fill="white"/>
<path d="M109.029 79.8011H108.981C108.789 80.0882 108.405 80.567 108.021 80.8542C107.493 81.2851 106.964 81.3808 106.388 81.3808C105.811 81.3808 104.947 81.2851 104.226 80.6627C103.362 79.849 103.218 78.5564 103.218 77.4554C103.218 76.4501 103.266 74.9182 104.082 73.9608C104.995 72.8598 106.58 72.764 107.444 72.764C107.637 72.764 108.165 72.764 109.078 72.8598V71.3758C109.078 70.9928 109.029 70.562 108.693 70.179C108.405 69.8918 107.973 69.7481 107.541 69.7481C107.156 69.7481 106.724 69.8918 106.388 70.2747C106.196 70.5141 106.052 70.8012 106.004 71.1842H103.314C103.266 69.8917 103.842 68.8385 104.467 68.1684C105.187 67.4504 106.34 67.0195 107.637 67.0195C108.933 67.0195 109.942 67.4504 110.663 68.1684C111.671 69.1737 111.815 70.5141 111.815 71.4715V81.2372H109.029V79.8011ZM109.029 75.1097C108.693 75.0618 108.357 75.014 108.021 75.014C107.589 75.014 106.868 75.0618 106.436 75.5884C106.052 76.0192 106.004 76.5937 106.004 77.0724C106.004 77.4554 106.052 77.8384 106.292 78.2212C106.58 78.6521 106.964 78.8915 107.444 78.8915C108.309 78.8915 109.029 78.3171 109.029 77.0724V75.1097Z" fill="white"/>
<path d="M115.754 67.2109H118.588V72.8596H121.469V67.2109H124.303V81.1892H121.469V75.3968H118.588V81.1892H115.754V67.2109Z" fill="white"/>
<path d="M131.028 67.2109V75.0139L134.486 68.9342V67.2109H137.32V81.1892H134.486V73.3862L131.028 79.4659V81.1892H128.194V67.2109H131.028Z" fill="white"/>
<path d="M55.9077 44.2334C54.899 44.2334 53.7463 44.3291 52.8337 45.095C51.8251 45.9567 51.729 47.1535 51.729 48.1588C51.729 47.2014 51.729 58.2117 51.729 58.2117H54.5629V48.6375C54.5629 48.2067 54.6589 47.8715 54.9951 47.4885C55.4274 47.0577 55.8597 47.0098 56.34 47.0098H58.7896V44.2334H55.9077Z" fill="white"/>
<path d="M7.44477 44.2329H0C1.8732 64.961 19.3564 81.2371 40.634 81.2371C41.8829 81.2371 44.3324 81.2371 44.3324 81.2371V73.8171C44.3324 73.8171 41.8829 73.8171 40.634 73.8171C23.439 73.8171 9.31796 60.8441 7.44477 44.2329ZM36.9356 7.42001V0C17.3391 1.77123 1.77714 17.2814 0 36.8129H7.44477C9.17387 21.3984 21.4697 9.14337 36.9356 7.42001ZM44.3804 0V7.42001C59.8463 9.14337 72.1421 21.3504 73.8713 36.8129H81.316C79.5389 17.2814 63.9289 1.77123 44.3804 0Z" fill="#930D40"/>
<path d="M36.7436 14.792L31.5083 20.0578C34.8704 23.4087 36.9357 28.0523 36.9357 33.1266V66.397H44.3806V33.1266C44.3324 25.9939 41.4506 19.4833 36.7436 14.792Z" fill="#930D40"/>
</g>
<defs>
<clipPath id="clip0_4412_22589">
<rect width="150" height="81.4286" fill="white"/>
</clipPath>
</defs>
</svg>
