<svg width="300" height="27" viewBox="0 0 300 27" fill="none" xmlns="http://www.w3.org/2000/svg">
<path fill-rule="evenodd" clip-rule="evenodd" d="M13.9655 10.5766C13.9655 8.54899 13.9655 7.42165 13.2248 6.68554C12.4842 5.94922 11.3503 5.94922 9.31035 5.94922H4.65517C2.61541 5.94922 1.48129 5.94922 0.740749 6.68554C0 7.42165 0 8.54899 0 10.5766V15.2039C0 17.2315 0 18.3589 0.740749 19.0951C1.48129 19.8313 2.61541 19.8313 4.65517 19.8313H9.31035C11.3503 19.8313 12.4842 19.8313 13.2248 19.0951C13.9655 18.3589 13.9655 17.2315 13.9655 15.2039V10.5766Z" fill="#FC3E24"/>
<path fill-rule="evenodd" clip-rule="evenodd" d="M69.6517 15.8239C69.6517 18.1104 67.6491 20.1012 63.569 20.1012C58.366 20.1012 57.2514 16.5042 57.2514 15.4934H60.9475C60.9475 16.232 61.731 17.1467 63.569 17.1467C65.4071 17.1467 66.0541 16.4967 66.0541 15.8239C66.0541 15.1508 65.7469 14.6201 64.2132 14.3753L62.0034 14.0394C59.1282 13.5766 57.4276 12.3435 57.4276 10.0299C57.4276 7.71636 59.4224 5.67477 63.2561 5.67477C67.5194 5.67477 69.3777 8.49025 69.3777 10.2824H65.6823C65.6823 9.3651 64.8312 8.62919 63.2561 8.62919C61.6811 8.62919 61.0255 9.18595 61.0255 10.0299C61.0255 10.6832 61.5388 11.0258 62.826 11.2164L65.1532 11.5704C68.0287 12.0057 69.6517 13.347 69.6517 15.8239ZM82.6319 5.94695H88.3396V9.3651H82.6319V13.6086C82.6319 15.629 83.5038 16.4112 85.4482 16.4112H88.3396V19.829H84.7487C80.8109 19.829 78.9318 17.7939 78.9318 14.0436V0.601562H82.6319V5.94695ZM32.2994 16.6833C30.2834 16.6833 28.8376 15.0871 28.8376 12.8881C28.8376 10.6891 30.2834 9.09291 32.2994 9.09291C34.3295 9.09291 35.8029 10.6891 35.8029 12.8881C35.8029 15.0871 34.3295 16.6833 32.2994 16.6833ZM33.1044 5.67477C31.525 5.67477 30.0832 6.25042 29.1573 7.28229L28.8376 7.28309V5.94695H25.1377V25.1743H28.8376V18.4939H29.1573C30.0143 19.4231 31.4046 20.1013 33.1044 20.1013C36.9079 20.1013 39.5029 17.06 39.5029 12.8881C39.5029 8.71613 36.9079 5.67477 33.1044 5.67477ZM117.835 8.76853C119.436 8.76853 120.697 9.78943 121.2 11.3413H114.493C114.992 9.78943 116.245 8.76853 117.835 8.76853ZM117.835 5.67477C113.838 5.67477 110.599 8.71613 110.599 12.8881C110.599 17.0351 113.73 20.1012 117.952 20.1012C121.084 20.1012 123.899 18.3269 124.841 15.5683H120.888C120.293 16.4861 119.144 17.0073 117.952 17.0073C116.078 17.0073 114.746 15.7789 114.369 13.9684H125.021L125.014 13.9575C125.062 13.6094 125.095 13.2549 125.095 12.8881C125.095 8.71613 121.858 5.67477 117.835 5.67477ZM90.7087 19.829H94.4083V5.94695H90.7087V19.829ZM90.7087 4.01972H94.4083V0.601562H90.7087V4.01972ZM71.9679 19.829H75.6678V5.94695H71.9679V19.829ZM71.9679 4.01972H75.6678V0.601562H71.9679V4.01972ZM48.4124 16.6828C46.3634 16.6828 44.8766 15.0871 44.8766 12.8881C44.8766 10.6891 46.3634 9.09291 48.4124 9.09291C50.4754 9.09291 51.9729 10.6891 51.9729 12.8881C51.9729 15.1224 50.5089 16.6828 48.4124 16.6828ZM48.4124 5.67477C44.4149 5.67477 41.1765 8.71592 41.1765 12.8881C41.1765 17.0351 44.3644 20.1012 48.4124 20.1012C52.4853 20.1012 55.6728 17.06 55.6728 12.8881C55.6728 8.71592 52.4344 5.67477 48.4124 5.67477ZM106.371 5.94695H110.23L106.018 19.829H100.411L96.1979 5.94695H100.058L102.921 16.4112H103.508L106.371 5.94695ZM300 15.8239C300 18.1104 297.997 20.1012 293.918 20.1012C288.714 20.1012 287.6 16.5042 287.6 15.4934H291.295C291.295 16.232 292.079 17.1467 293.918 17.1467C295.755 17.1467 296.402 16.4967 296.402 15.8239C296.402 15.1508 296.095 14.6201 294.561 14.3753L292.352 14.0394C289.477 13.5766 287.776 12.3435 287.776 10.0299C287.776 7.71636 289.771 5.67477 293.605 5.67477C297.867 5.67477 299.726 8.49025 299.726 10.2824H296.03C296.03 9.3651 295.179 8.62919 293.605 8.62919C292.029 8.62919 291.373 9.18595 291.373 10.0299C291.373 10.6832 291.887 11.0258 293.174 11.2164L295.501 11.5704C298.377 12.0057 300 13.347 300 15.8239ZM251.526 12.7518C251.526 10.5944 253 9.02832 255.031 9.02832C257.046 9.02832 258.491 10.5938 258.493 12.7507V12.753C258.491 14.91 257.046 16.4754 255.031 16.4754C253 16.4754 251.526 14.9094 251.526 12.7518ZM258.493 7.28309H258.2C258.19 7.27192 258.176 7.25588 258.172 7.25202C257.247 6.23944 255.805 5.67477 254.225 5.67477C250.421 5.67477 247.827 8.65865 247.827 12.7518C247.827 16.8451 250.421 19.829 254.225 19.829C255.925 19.829 257.315 19.1636 258.172 18.2517H258.493V19.6823C258.493 21.7028 257.62 22.4851 255.676 22.4851H249.961V25.9028H256.376C260.313 25.9028 262.193 23.8678 262.193 20.1176V5.94695H258.493V7.28309ZM207.144 11.4347V19.829H203.444V11.9925C203.444 10.2682 202.215 9.09292 200.468 9.09292C198.723 9.09292 197.494 10.2682 197.494 11.9925V19.829H193.794V5.94695H197.494V7.28309H197.772C198.711 6.23336 200.109 5.67477 201.708 5.67477C204.908 5.67477 207.144 8.03465 207.144 11.4347ZM225.736 19.829H229.436V0.601562H225.736V19.829ZM278.655 8.76853C280.256 8.76853 281.517 9.78943 282.019 11.3413H275.313C275.813 9.78943 277.065 8.76853 278.655 8.76853ZM278.655 5.67477C274.658 5.67477 271.419 8.71613 271.419 12.8881C271.419 17.0351 274.55 20.1012 278.772 20.1012C281.905 20.1012 284.718 18.3269 285.661 15.5683H281.708C281.113 16.4861 279.965 17.0073 278.772 17.0073C276.899 17.0073 275.566 15.7789 275.189 13.9684H285.842L285.835 13.9575C285.882 13.6094 285.915 13.2549 285.915 12.8881C285.915 8.71613 282.677 5.67477 278.655 5.67477ZM265.456 19.829H269.155V5.94695H265.456V19.829ZM265.456 4.01972H269.155V0.601562H265.456V4.01972ZM238.777 16.6828C236.727 16.6828 235.241 15.0871 235.241 12.8881C235.241 10.6891 236.727 9.09291 238.777 9.09291C240.84 9.09291 242.337 10.6891 242.337 12.8881C242.337 15.1224 240.873 16.6828 238.777 16.6828ZM238.777 5.67477C234.779 5.67477 231.541 8.71592 231.541 12.8881C231.541 17.0351 234.729 20.1012 238.777 20.1012C242.85 20.1012 246.037 17.06 246.037 12.8881C246.037 8.71592 242.799 5.67477 238.777 5.67477ZM216.37 16.6828C214.321 16.6828 212.835 15.0871 212.835 12.8881C212.835 10.6891 214.321 9.09291 216.37 9.09291C218.432 9.09291 219.93 10.6891 219.93 12.8881C219.93 15.1224 218.466 16.6828 216.37 16.6828ZM216.37 5.67477C212.372 5.67477 209.133 8.71592 209.133 12.8881C209.133 17.0351 212.321 20.1012 216.37 20.1012C220.443 20.1012 223.63 17.06 223.63 12.8881C223.63 8.71592 220.393 5.67477 216.37 5.67477ZM137.77 5.94695H143.477V9.3651H137.77V13.6086C137.77 15.629 138.642 16.4112 140.585 16.4112H143.477V19.829H139.886C135.949 19.829 134.07 17.7939 134.07 14.0436V0.601562H137.77V5.94695ZM171.519 14.4064H175.336C174.848 17.734 171.953 20.1012 168.413 20.1012C164.366 20.1012 161.237 17.0351 161.237 12.8881C161.237 8.71613 164.415 5.67477 168.413 5.67477C171.908 5.67477 174.836 7.86321 175.333 11.2529H171.507C171.086 9.83513 169.94 9.09292 168.413 9.09292C166.365 9.09292 164.936 10.6891 164.936 12.8881C164.936 15.0871 166.365 16.683 168.413 16.683C169.97 16.683 171.166 15.8077 171.519 14.4064ZM190.793 11.4347V19.829H187.093V11.9925C187.093 10.2682 185.862 9.09291 184.117 9.09291C182.371 9.09291 181.142 10.2682 181.142 11.9925V19.829H177.441V0.601562H181.142V7.28309H181.42C182.36 6.23335 183.758 5.67477 185.356 5.67477C188.556 5.67477 190.793 8.03465 190.793 11.4347ZM152.186 8.76853C153.788 8.76853 155.048 9.78943 155.55 11.3413H148.846C149.344 9.78943 150.596 8.76853 152.186 8.76853ZM152.186 5.67477C148.189 5.67477 144.95 8.71613 144.95 12.8881C144.95 17.0351 148.082 20.1012 152.303 20.1012C155.436 20.1012 158.249 18.3269 159.193 15.5683H155.24C154.644 16.4861 153.496 17.0073 152.303 17.0073C150.43 17.0073 149.097 15.7789 148.72 13.9684H159.373L159.366 13.9575C159.413 13.6094 159.447 13.2549 159.447 12.8881C159.447 8.71613 156.208 5.67477 152.186 5.67477Z" fill="#282828"/>
</svg>
