<svg width="364" height="70" viewBox="0 0 364 70" fill="none" xmlns="http://www.w3.org/2000/svg">
<g clip-path="url(#clip0_2_1259)">
<path d="M10.7261 70L12.6868 59.0804H53.8617L52.0163 70H10.7261Z" fill="#E4653F"/>
<path d="M78.8896 70L80.8503 59.0804H349.813L347.853 70H78.8896Z" fill="#E4653F"/>
<path d="M72.0849 12.5287L76.3523 0H34.8314C9.57288 0.114943 0 6.43678 0 19.3103C0 22.5287 0.692015 26.0919 2.07605 29.7701L14.5323 26.7816C13.9556 24.8276 13.725 23.1034 13.725 21.4943C13.725 15.7471 16.3777 13.4483 21.5678 12.8736L14.071 55.0575H29.526L37.0228 12.6437H46.711L39.3295 55.0575H54.7845L62.166 12.5287H72.0849Z" fill="#FFFFFF"/>
<path d="M97.4588 43.2184C97.4588 42.7586 97.5741 41.9542 97.8048 40.3453L99.1889 31.8391L99.2178 31.6099C99.3227 30.7823 99.4195 30.0184 99.4195 28.9655C99.4195 23.7931 95.6134 20.2299 89.7313 20.2299C84.5412 20.2299 80.9658 22.7586 79.3511 28.0459L78.6591 21.1494H66.6641L58.0139 70.1149H72.7769L78.4284 38.5057C79.3511 33.4482 80.2738 31.7241 82.2345 31.7241C83.6185 31.7241 84.0799 32.5287 84.0799 33.7931C84.0799 34.0102 84.0541 34.2528 84.027 34.5091C83.9967 34.7955 83.9645 35.0989 83.9645 35.4023L82.5805 43.7931C82.5517 44.0229 82.5156 44.2742 82.4778 44.538C82.3643 45.3301 82.2345 46.2356 82.2345 47.0115C82.2345 52.1839 84.8872 55.6322 91.1153 55.6322C94.3447 55.6322 97.5742 54.9425 99.1889 54.023L101.265 43.908C100.458 44.2528 99.6502 44.5977 98.8428 44.5977C97.8048 44.5977 97.4588 44.023 97.4588 43.2184Z" fill="#FFFFFF"/>
<path fill-rule="evenodd" clip-rule="evenodd" d="M103.11 40.9196C103.11 28.9655 110.03 20.3448 123.64 20.3448C133.098 20.3448 140.364 25.7471 140.364 35.4023C140.364 47.4713 133.444 56.092 119.834 56.092C110.376 56.092 103.11 50.5747 103.11 40.9196ZM117.758 41.1494C117.758 43.6782 118.796 45.2874 120.987 45.2874C123.986 45.2874 125.716 40.2299 125.831 35.4023C125.831 32.8736 124.793 31.2644 122.602 31.2644C119.488 31.2644 117.758 36.2069 117.758 41.1494Z" fill="#FFFFFF"/>
<path d="M197.916 45.1724C196.417 45.1724 195.725 43.5632 195.725 41.3793C195.725 37.2414 198.032 31.1494 200.8 31.1494C201.953 31.1494 202.991 31.6092 203.798 32.7586L210.488 23.7931C207.259 21.1494 203.798 20.3448 200.569 20.3448C193.649 20.3448 187.19 25.5173 184.422 32.9885H182L184.191 21.2644H169.544L167.352 32.9885H164.815C164.7 26.092 161.009 20.3448 153.397 20.3448C151.09 20.3448 145.669 20.6897 141.632 25.1724L146.015 33.6782C146.707 32.6437 148.207 31.3793 149.706 31.3793C151.205 31.3793 152.013 32.9885 152.013 35.1724C152.013 39.3104 149.591 45.4023 146.938 45.4023C145.785 45.4023 144.747 44.9425 143.939 43.7931L137.25 52.7586C140.479 55.4023 143.939 56.2069 147.169 56.2069C154.089 56.2069 160.202 51.1494 163.2 43.2184H165.622L163.431 55.1724H177.848L180.039 42.9885H182.346C182.807 49.8851 186.383 55.977 194.11 55.977C196.417 55.977 201.838 55.6322 205.875 51.1494L201.492 42.6437C200.915 43.7931 199.3 45.1724 197.916 45.1724Z" fill="#FFFFFF"/>
<path d="M232.863 21.2643H247.626L244.397 40.5747C244.166 42.1839 244.051 42.9885 244.051 43.4482C244.051 44.3678 244.397 44.8276 245.319 44.8276C246.127 44.8276 246.934 44.4827 247.741 44.1379L245.665 54.2528C244.051 55.1724 240.821 55.862 237.592 55.862C232.056 55.862 229.864 53.1034 229.403 48.8505C227.673 54.1379 223.636 56.2069 217.985 56.2069C212.449 56.2069 208.758 52.8735 208.758 47.3563C208.758 45.7471 208.758 44.9425 209.104 42.9885L212.91 21.3793H227.558L224.328 40.2299C224.098 41.3793 223.982 42.2988 223.982 42.7586C223.982 43.908 224.444 44.7126 225.828 44.7126C227.788 44.7126 229.057 42.9885 229.98 37.931L232.863 21.2643Z" fill="#FFFFFF"/>
<path d="M304.717 43.3334C304.717 42.8736 304.833 42.069 305.063 40.4598L306.447 31.954L306.476 31.7255C306.581 30.8975 306.678 30.1338 306.678 29.0805C306.678 23.9081 302.872 20.3448 297.336 20.3448C292.838 20.3448 288.34 22.7586 286.956 27.8161C286.379 23.3334 283.15 20.3448 278.075 20.3448C273.461 20.3448 269.194 22.6437 267.925 27.8161L267.233 21.1494H255.238L249.125 55.1724H263.888L267.003 37.3563C267.695 32.9885 268.733 31.7242 270.347 31.7242C271.616 31.7242 271.847 32.6437 271.847 33.6782C271.847 33.8286 271.825 34.0227 271.8 34.2415C271.768 34.5243 271.731 34.8486 271.731 35.1724L268.617 55.1724H283.496L286.264 37.3563C286.956 32.9885 287.994 31.7242 289.608 31.7242C290.877 31.7242 291.108 32.6437 291.108 33.6782C291.108 33.8286 291.086 34.0227 291.061 34.2415C291.029 34.5243 290.992 34.8486 290.992 35.1724L289.608 43.7931C289.58 44.0231 289.543 44.2745 289.506 44.5386C289.392 45.3306 289.262 46.2357 289.262 47.0115C289.262 52.1839 291.915 55.6322 298.143 55.6322C301.373 55.6322 304.602 54.9425 306.217 54.023L308.293 43.9081C307.485 44.2529 306.678 44.5977 305.871 44.5977C305.063 44.7127 304.717 44.138 304.717 43.3334Z" fill="#FFFFFF"/>
<path fill-rule="evenodd" clip-rule="evenodd" d="M336.55 30.4598L361.117 22.1839L363.885 33.9081L347.622 37.7012C347.161 45.6322 341.394 56.092 327.554 56.092C318.096 56.092 310.83 50.5747 310.83 40.9196C310.83 28.9655 317.75 20.3448 331.36 20.3448C335.973 20.3448 339.664 21.954 341.855 23.6782C341.855 23.6782 338.857 27.5862 336.55 30.4598ZM325.478 41.1494C325.478 43.6782 326.516 45.2874 328.707 45.2874C331.821 45.2874 333.667 41.0345 333.551 37.0115C333.551 35.8621 333.321 33.7931 333.09 32.5288C332.283 32.069 331.245 31.6092 330.091 31.6092C326.631 31.6092 325.478 36.7816 325.478 41.1494Z" fill="#FFFFFF"/>
</g>
<defs>
<clipPath id="clip0_2_1259">
<rect width="364" height="70" fill="white"/>
</clipPath>
</defs>
</svg>
