<svg width="181" height="20" viewBox="0 0 181 20" fill="none" xmlns="http://www.w3.org/2000/svg">
<path d="M1.05009 16V15.72L2.46772 15.0199V5.42907L1.05009 4.729V4.44898H12.7236V4.729L11.306 5.42907V15.0199L12.7236 15.72V16H8.10322V15.72L9.48584 15.0199V5.41156H4.30538V15.0199L5.6705 15.72V16H1.05009ZM20.1661 15.1424C19.7927 15.5741 19.466 15.8483 19.186 15.965C18.9177 16.0817 18.6551 16.14 18.3985 16.14C18.1768 16.14 18.0309 16.1108 17.9609 16.0525C17.9026 15.9942 17.8734 15.8833 17.8734 15.72V14.7224L17.9609 14.6524H18.1184C18.6668 14.6524 19.0927 14.559 19.396 14.3724C19.6994 14.1857 19.9794 13.8881 20.2361 13.4798L16.4558 7.02171L15.3182 6.47916V6.19913H19.5536V6.47916L18.2234 7.0042L20.9887 11.7296H21.2512L23.7714 6.9692L22.4938 6.47916V6.19913H25.7666V6.47916L24.7515 6.9867L21.5487 12.9197C21.292 13.3864 21.0412 13.8181 20.7962 14.2148C20.5628 14.6115 20.3528 14.9207 20.1661 15.1424ZM32.2218 6.19913V6.47916L30.9616 7.05671V15.1249H34.5845V7.05671L33.3769 6.47916V6.19913H37.5772V6.47916L36.3171 7.05671V15.1249H39.9399V7.05671L38.6798 6.47916V6.19913H42.9327V6.47916L41.6726 7.05671V15.1424L42.9152 15.72V16H27.9864V15.72L29.229 15.1424V7.05671L27.9864 6.47916V6.19913H32.2218ZM46.0265 16V15.72L47.3041 15.1424V7.05671L46.0265 6.47916V6.19913H50.2968V6.47916L49.0367 7.05671V15.1424L50.2968 15.72V16H46.0265ZM53.7271 16L49.0367 11.0121L53.0971 6.9692L51.9945 6.47916V6.19913H55.5123V6.47916L54.5147 6.86419L50.7519 10.4695L55.2673 15.2474L56.4924 15.72V16H53.7271ZM59.0759 16V15.72L60.336 15.1424V7.05671L59.0759 6.47916V6.19913H63.3462V6.47916L62.0686 7.05671V13.5148L67.1616 7.66926V7.05671L65.884 6.47916V6.19913H70.1368V6.47916L68.8942 7.05671V15.1424L70.1368 15.72V16H65.884V15.72L67.1616 15.1424V8.77186L62.0686 14.6174V15.1424L63.3462 15.72V16H59.0759ZM73.2362 16V15.72L74.4963 15.1424V7.05671L73.2362 6.47916V6.19913H77.5066V6.47916L76.229 7.05671V10.487H81.1644V7.05671L79.8868 6.47916V6.19913H84.1222V6.47916L82.8971 7.05671V15.1424L84.1222 15.72V16H79.8868V15.72L81.1644 15.1424V11.3621H76.229V15.1424L77.5066 15.72V16H73.2362Z" fill="#3A5547"/>
<path d="M95.669 15.696L94.913 16.032L91.337 10.44L94.913 4.86L95.669 5.196L92.309 10.44L95.669 15.696ZM104.697 16.8V15H98.373V6.624H99.537V13.968H103.401V6.624H104.565V13.968H105.777V16.8H104.697ZM108.232 15V6.624H109.36V11.652L109.24 13.38H109.276L110.116 11.856L113.56 6.624H114.592V15H113.464V9.972L113.572 8.244H113.536L112.696 9.768L109.276 15H108.232ZM121.22 15.384V14.304H120.824C118.58 14.304 117.236 12.804 117.236 10.824C117.236 8.844 118.58 7.344 120.836 7.344H121.22V6.264H122.384V7.344H122.768C125.012 7.344 126.356 8.844 126.356 10.824C126.356 12.804 125 14.304 122.768 14.304H122.384V15.384H121.22ZM120.824 13.332H121.244V8.316H120.836C119.396 8.316 118.472 9.24 118.472 10.452V11.196C118.472 12.42 119.396 13.332 120.824 13.332ZM122.36 13.332H122.768C124.196 13.332 125.132 12.42 125.132 11.196V10.452C125.132 9.24 124.208 8.316 122.768 8.316H122.36V13.332ZM130.158 15H128.994V6.624H132.45C133.962 6.624 134.826 7.596 134.826 9.084C134.826 10.572 133.962 11.544 132.45 11.544H130.158V15ZM130.158 7.656V10.512H132.402C133.146 10.512 133.59 10.104 133.59 9.384V8.784C133.59 8.064 133.146 7.656 132.402 7.656H130.158ZM140.557 15.144C138.385 15.144 136.981 13.632 136.981 10.812C136.981 7.992 138.385 6.48 140.557 6.48C142.729 6.48 144.133 7.992 144.133 10.812C144.133 13.632 142.729 15.144 140.557 15.144ZM140.557 14.1C141.949 14.1 142.885 13.092 142.885 11.496V10.128C142.885 8.532 141.949 7.524 140.557 7.524C139.165 7.524 138.229 8.532 138.229 10.128V11.496C138.229 13.092 139.165 14.1 140.557 14.1ZM146.885 15V6.624H150.449C151.829 6.624 152.693 7.476 152.693 8.784C152.693 10.032 151.889 10.488 151.277 10.56V10.632C151.913 10.668 152.981 11.184 152.981 12.588C152.981 13.956 152.045 15 150.809 15H146.885ZM148.049 11.196V13.992H150.461C151.253 13.992 151.733 13.584 151.733 12.804V12.384C151.733 11.604 151.253 11.196 150.461 11.196H148.049ZM148.049 7.632V10.212H150.269C151.001 10.212 151.445 9.816 151.445 9.12V8.724C151.445 8.028 151.001 7.632 150.269 7.632H148.049ZM158.939 15.144C156.767 15.144 155.363 13.632 155.363 10.812C155.363 7.992 156.767 6.48 158.939 6.48C161.111 6.48 162.515 7.992 162.515 10.812C162.515 13.632 161.111 15.144 158.939 15.144ZM158.939 14.1C160.331 14.1 161.267 13.092 161.267 11.496V10.128C161.267 8.532 160.331 7.524 158.939 7.524C157.547 7.524 156.611 8.532 156.611 10.128V11.496C156.611 13.092 157.547 14.1 158.939 14.1ZM168.424 5.868C167.524 5.868 167.008 5.484 166.708 4.86L166.456 4.368L167.404 3.972L167.812 5.004C167.992 5.052 168.232 5.076 168.424 5.076C168.616 5.076 168.856 5.052 169.036 5.004L169.444 3.972L170.392 4.368L170.14 4.86C169.84 5.484 169.324 5.868 168.424 5.868ZM165.268 15V6.624H166.396V11.652L166.276 13.38H166.312L167.152 11.856L170.596 6.624H171.628V15H170.5V9.972L170.608 8.244H170.572L169.732 9.768L166.312 15H165.268ZM174.319 15.696L177.679 10.44L174.319 5.196L175.075 4.86L178.651 10.44L175.075 16.032L174.319 15.696Z" fill="#3A5547"/>
</svg>
