<svg width="150" height="38" viewBox="0 0 150 38" fill="none" xmlns="http://www.w3.org/2000/svg">
<g clip-path="url(#clip0_99_1601)">
<path d="M50.2632 33.1095V26.7701H52.3005C52.9768 26.7701 53.4848 26.9124 53.8244 27.1969C54.1666 27.4814 54.3379 27.9022 54.3379 28.4595C54.3379 28.7556 54.2552 29.0184 54.0895 29.2476C53.9241 29.4739 53.6987 29.6496 53.4136 29.7745C53.7503 29.8701 54.0153 30.0531 54.2096 30.3231C54.4065 30.59 54.5049 30.9094 54.5049 31.2809C54.5049 31.8499 54.3238 32.2968 53.9612 32.6218C53.599 32.9469 53.0868 33.1095 52.4246 33.1095H50.2632ZM51.0852 30.1444V32.426H52.442C52.8243 32.426 53.1251 32.3258 53.345 32.1255C53.5674 31.9223 53.6787 31.6436 53.6787 31.2895C53.6787 30.5263 53.2709 30.1444 52.4548 30.1444H51.0852ZM51.0852 29.4739H52.3261C52.6858 29.4739 52.9726 29.3824 53.1865 29.1996C53.4034 29.0168 53.5116 28.7685 53.5116 28.4552C53.5116 28.1067 53.4119 27.8543 53.2125 27.6976C53.0126 27.538 52.7088 27.4582 52.3005 27.4582H51.0852V29.4739ZM57.839 29.1213C57.7189 29.101 57.5893 29.0908 57.4496 29.0908C56.9301 29.0908 56.5777 29.3158 56.3923 29.7656V33.1095H55.6005V28.3986H56.371L56.3838 28.9427C56.6433 28.522 57.0115 28.3114 57.4879 28.3114C57.6422 28.3114 57.7589 28.3318 57.839 28.3724V29.1213ZM59.4311 33.1095H58.6393V28.3986H59.4311V33.1095ZM58.575 27.1489C58.575 27.0184 58.6138 26.908 58.6905 26.818C58.7706 26.7281 58.8878 26.683 59.0416 26.683C59.1954 26.683 59.3126 26.7281 59.3927 26.818C59.4724 26.908 59.5125 27.0184 59.5125 27.1489C59.5125 27.2795 59.4724 27.3883 59.3927 27.4755C59.3126 27.5625 59.1954 27.606 59.0416 27.606C58.8878 27.606 58.7706 27.5625 58.6905 27.4755C58.6138 27.3883 58.575 27.2795 58.575 27.1489ZM61.4514 28.3986L61.477 28.9906C61.8307 28.5378 62.293 28.3114 62.8636 28.3114C63.8424 28.3114 64.3359 28.873 64.3444 29.9965V33.1095H63.5527V29.9922C63.5497 29.6524 63.473 29.4013 63.3217 29.2389C63.173 29.0763 62.9407 28.9949 62.6241 28.9949C62.3672 28.9949 62.1417 29.0647 61.9478 29.204C61.7535 29.3434 61.6022 29.5262 61.494 29.7526V33.1095H60.7022V28.3986H61.4514ZM65.3505 30.7149C65.3505 29.9805 65.5172 29.3969 65.8513 28.9645C66.1849 28.5291 66.6272 28.3114 67.1778 28.3114C67.7429 28.3114 68.1835 28.5146 68.5005 28.921L68.5389 28.3986H69.2621V32.9963C69.2621 33.6059 69.0839 34.0864 68.7272 34.4375C68.3731 34.7887 67.8971 34.9644 67.2976 34.9644C66.9639 34.9644 66.637 34.8917 66.3174 34.7467C65.9983 34.6016 65.7541 34.4027 65.5858 34.1501L65.9966 33.6668C66.3362 34.0935 66.7513 34.3069 67.2422 34.3069C67.6274 34.3069 67.927 34.1965 68.1409 33.976C68.3578 33.7555 68.466 33.4447 68.466 33.0442V32.6394C68.1494 33.0109 67.7173 33.1967 67.1693 33.1967C66.6272 33.1967 66.1879 32.9746 65.8513 32.5305C65.5172 32.0864 65.3505 31.4812 65.3505 30.7149ZM66.1466 30.8062C66.1466 31.3375 66.2535 31.7555 66.4674 32.0602C66.6814 32.3621 66.9809 32.513 67.3662 32.513C67.8656 32.513 68.2321 32.2823 68.466 31.8208V29.67C68.2236 29.22 67.8596 28.9949 67.3747 28.9949C66.9895 28.9949 66.6886 29.1474 66.4717 29.4522C66.2548 29.7569 66.1466 30.2084 66.1466 30.8062ZM71.3207 33.1095H70.529V28.3986H71.3207V33.1095ZM70.465 27.1489C70.465 27.0184 70.5034 26.908 70.5805 26.818C70.6602 26.7281 70.7774 26.683 70.9317 26.683C71.0855 26.683 71.2027 26.7281 71.2824 26.818C71.362 26.908 71.4021 27.0184 71.4021 27.1489C71.4021 27.2795 71.362 27.3883 71.2824 27.4755C71.2027 27.5625 71.0855 27.606 70.9317 27.606C70.7774 27.606 70.6602 27.5625 70.5805 27.4755C70.5034 27.3883 70.465 27.2795 70.465 27.1489ZM73.341 28.3986L73.3666 28.9906C73.7207 28.5378 74.1826 28.3114 74.7532 28.3114C75.7321 28.3114 76.226 28.873 76.2345 29.9965V33.1095H75.4423V29.9922C75.4397 29.6524 75.3626 29.4013 75.2113 29.2389C75.063 29.0763 74.8304 28.9949 74.5138 28.9949C74.2568 28.9949 74.0318 29.0647 73.8375 29.204C73.6436 29.3434 73.4923 29.5262 73.3836 29.7526V33.1095H72.5923V28.3986H73.341ZM77.2402 30.7149C77.2402 29.9805 77.4068 29.3969 77.7409 28.9645C78.075 28.5291 78.5173 28.3114 79.0679 28.3114C79.6329 28.3114 80.0736 28.5146 80.3902 28.921L80.4285 28.3986H81.1521V32.9963C81.1521 33.6059 80.9736 34.0864 80.6173 34.4375C80.2632 34.7887 79.7868 34.9644 79.1876 34.9644C78.8535 34.9644 78.5271 34.8917 78.2075 34.7467C77.8879 34.6016 77.6442 34.4027 77.4754 34.1501L77.8862 33.6668C78.2258 34.0935 78.6413 34.3069 79.1318 34.3069C79.517 34.3069 79.8166 34.1965 80.0305 33.976C80.2474 33.7555 80.3561 33.4447 80.3561 33.0442V32.6394C80.0395 33.0109 79.6069 33.1967 79.0594 33.1967C78.5173 33.1967 78.0775 32.9746 77.7409 32.5305C77.4068 32.0864 77.2402 31.4812 77.2402 30.7149ZM78.0362 30.8062C78.0362 31.3375 78.1432 31.7555 78.3571 32.0602C78.5714 32.3621 78.8706 32.513 79.2562 32.513C79.7552 32.513 80.1221 32.2823 80.3561 31.8208V29.67C80.1136 29.22 79.7497 28.9949 79.2647 28.9949C78.8795 28.9949 78.5782 29.1474 78.3613 29.4522C78.1449 29.7569 78.0362 30.2084 78.0362 30.8062ZM85.5988 27.2578V28.3986H86.4635V29.0212H85.5988V31.9427C85.5988 32.1313 85.6376 32.2736 85.7147 32.3694C85.7915 32.4622 85.9227 32.5086 86.1085 32.5086C86.1997 32.5086 86.325 32.4913 86.4848 32.4564V33.1095C86.2768 33.1676 86.074 33.1967 85.8771 33.1967C85.5234 33.1967 85.2567 33.0878 85.0768 32.8701C84.897 32.6524 84.8071 32.3432 84.8071 31.9427V29.0212H83.9642V28.3986H84.8071V27.2578H85.5988ZM87.0967 30.7106C87.0967 30.2489 87.1853 29.8339 87.3622 29.4652C87.542 29.0966 87.7905 28.8121 88.1071 28.6118C88.4267 28.4116 88.7906 28.3114 89.1984 28.3114C89.8291 28.3114 90.3383 28.5335 90.7265 28.9776C91.1173 29.4217 91.3129 30.0124 91.3129 30.7496V30.8062C91.3129 31.2648 91.226 31.6771 91.0517 32.0429C90.8804 32.4056 90.6336 32.6886 90.3115 32.8918C89.9915 33.095 89.6237 33.1967 89.2069 33.1967C88.5792 33.1967 88.07 32.9746 87.6792 32.5305C87.291 32.0864 87.0967 31.4986 87.0967 30.7672V30.7106ZM87.8932 30.8062C87.8932 31.3288 88.0116 31.7482 88.2486 32.0645C88.488 32.3809 88.8076 32.5392 89.2069 32.5392C89.6092 32.5392 89.9288 32.3796 90.1657 32.0602C90.4027 31.738 90.5211 31.288 90.5211 30.7106C90.5211 30.1939 90.3997 29.7758 90.1572 29.4566C89.9173 29.1343 89.5977 28.9732 89.1984 28.9732C88.8076 28.9732 88.4923 29.1315 88.2528 29.4479C88.0129 29.7643 87.8932 30.217 87.8932 30.8062ZM92.1175 30.7149C92.1175 29.9805 92.2845 29.3969 92.6182 28.9645C92.9518 28.5291 93.3941 28.3114 93.9451 28.3114C94.5098 28.3114 94.9508 28.5146 95.2674 28.921L95.3062 28.3986H96.0294V32.9963C96.0294 33.6059 95.8513 34.0864 95.4942 34.4375C95.1405 34.7887 94.664 34.9644 94.0649 34.9644C93.7312 34.9644 93.4044 34.8917 93.0848 34.7467C92.7652 34.6016 92.521 34.4027 92.3527 34.1501L92.7639 33.6668C93.1031 34.0935 93.5186 34.3069 94.0091 34.3069C94.3943 34.3069 94.6939 34.1965 94.9082 33.976C95.1247 33.7555 95.2334 33.4447 95.2334 33.0442V32.6394C94.9167 33.0109 94.4842 33.1967 93.9366 33.1967C93.3942 33.1967 92.9548 32.9746 92.6182 32.5305C92.2845 32.0864 92.1175 31.4812 92.1175 30.7149ZM92.9135 30.8062C92.9135 31.3375 93.0204 31.7555 93.2348 32.0602C93.4487 32.3621 93.7483 32.513 94.1331 32.513C94.6325 32.513 94.9994 32.2823 95.2334 31.8208V29.67C94.9909 29.22 94.627 28.9949 94.1416 28.9949C93.7568 28.9949 93.4555 29.1474 93.239 29.4522C93.0217 29.7569 92.9135 30.2084 92.9135 30.8062ZM99.1496 33.1967C98.5219 33.1967 98.0109 32.9876 97.6172 32.5696C97.2234 32.1487 97.0265 31.5871 97.0265 30.8847V30.7366C97.0265 30.2693 97.1135 29.8528 97.2878 29.4869C97.4646 29.1183 97.7101 28.831 98.0237 28.625C98.3407 28.416 98.6829 28.3114 99.0511 28.3114C99.6528 28.3114 100.121 28.5131 100.455 28.9167C100.789 29.3202 100.956 29.8976 100.956 30.6494V30.9849H97.8183C97.8298 31.4491 97.9623 31.8251 98.2163 32.1125C98.4733 32.3969 98.7984 32.5392 99.1922 32.5392C99.4717 32.5392 99.7086 32.4811 99.903 32.3651C100.097 32.2489 100.266 32.0951 100.412 31.9034L100.896 32.2866C100.508 32.8933 99.9255 33.1967 99.1496 33.1967ZM99.0511 28.9732C98.7315 28.9732 98.4635 29.0923 98.2461 29.3304C98.0297 29.5654 97.8954 29.8963 97.8443 30.3231H100.164V30.2619C100.141 29.8528 100.033 29.5364 99.8386 29.3128C99.6443 29.0864 99.3822 28.9732 99.0511 28.9732ZM102.95 27.2578V28.3986H103.814V29.0212H102.95V31.9427C102.95 32.1313 102.989 32.2736 103.066 32.3694C103.143 32.4622 103.274 32.5086 103.459 32.5086C103.551 32.5086 103.676 32.4913 103.836 32.4564V33.1095C103.628 33.1676 103.425 33.1967 103.228 33.1967C102.874 33.1967 102.608 33.0878 102.428 32.8701C102.248 32.6524 102.158 32.3432 102.158 31.9427V29.0212H101.315V28.3986H102.158V27.2578H102.95ZM105.535 28.9689C105.886 28.5307 106.343 28.3114 106.905 28.3114C107.884 28.3114 108.377 28.873 108.386 29.9965V33.1095H107.594V29.9922C107.591 29.6524 107.514 29.4013 107.363 29.2389C107.214 29.0763 106.982 28.9949 106.665 28.9949C106.408 28.9949 106.183 29.0647 105.989 29.204C105.795 29.3434 105.643 29.5262 105.535 29.7526V33.1095H104.743V26.4219H105.535V28.9689ZM111.493 33.1967C110.865 33.1967 110.354 32.9876 109.961 32.5696C109.567 32.1487 109.37 31.5871 109.37 30.8847V30.7366C109.37 30.2693 109.457 29.8528 109.631 29.4869C109.808 29.1183 110.054 28.831 110.367 28.625C110.684 28.416 111.026 28.3114 111.395 28.3114C111.997 28.3114 112.465 28.5131 112.798 28.9167C113.132 29.3202 113.299 29.8976 113.299 30.6494V30.9849H110.162C110.173 31.4491 110.306 31.8251 110.56 32.1125C110.817 32.3969 111.142 32.5392 111.536 32.5392C111.815 32.5392 112.052 32.4811 112.246 32.3651C112.44 32.2489 112.61 32.0951 112.756 31.9034L113.239 32.2866C112.851 32.8933 112.269 33.1967 111.493 33.1967ZM111.395 28.9732C111.075 28.9732 110.807 29.0923 110.59 29.3304C110.373 29.5654 110.239 29.8963 110.188 30.3231H112.507V30.2619C112.485 29.8528 112.376 29.5364 112.182 29.3128C111.988 29.0864 111.726 28.9732 111.395 28.9732ZM116.458 29.1213C116.338 29.101 116.208 29.0908 116.068 29.0908C115.549 29.0908 115.197 29.3158 115.011 29.7656V33.1095H114.219V28.3986H114.99L115.003 28.9427C115.262 28.522 115.63 28.3114 116.107 28.3114C116.261 28.3114 116.378 28.3318 116.458 28.3724V29.1213Z" fill="#0A0B0B"/>
<path d="M57.2139 5.8053C59.1792 5.8053 61.266 6.47319 62.6983 7.90868L61.0402 10.6561C60.098 9.82341 58.6866 9.1382 57.378 9.1382C54.4513 9.1382 53.2449 11.2415 53.2449 13.384C53.2449 15.5914 54.5535 17.8596 57.378 17.8596C58.8294 17.8596 60.2642 17.0464 61.266 16.0273L63.1078 18.6923C62.9113 18.8982 62.7004 19.0977 62.4746 19.2907C61.2149 20.3662 59.4861 21.1881 57.2139 21.1881C52.5072 21.1881 49.54 17.8791 49.54 13.4664C49.54 9.136 52.6926 5.8053 57.2139 5.8053Z" fill="#0A0B0B"/>
<path d="M71.0816 5.8053C75.6242 5.8053 78.7342 9.136 78.7342 13.4035C78.7342 17.775 75.6242 21.1881 71.0816 21.1881C66.5394 21.1881 63.4291 17.775 63.4291 13.4035C63.4269 9.136 66.5373 5.8053 71.0816 5.8053ZM71.0816 17.8574C73.3943 17.8574 75.0315 15.9427 75.0315 13.4035C75.0315 10.9683 73.3943 9.136 71.0816 9.136C68.769 9.136 67.1318 10.9683 67.1318 13.4035C67.1318 15.9427 68.769 17.8574 71.0816 17.8574Z" fill="#0A0B0B"/>
<path d="M80.6932 6.0545H84.3145L88.3667 13.0065C88.9403 13.9844 89.5944 15.5457 89.5944 15.5457H89.6349C89.6349 15.5457 89.4708 13.9432 89.4708 13.0065V6.0545H93.052V20.9385H89.4495L85.3782 14.0061C84.805 13.0282 84.1505 11.4669 84.1505 11.4669H84.11C84.11 11.4669 84.2741 13.0693 84.2741 14.0061V20.9385H80.6932V6.0545Z" fill="#0A0B0B"/>
<path d="M99.6916 9.17702H95.2517V6.0545H107.713V9.17702H103.273V20.9385H99.6916V9.17702Z" fill="#0A0B0B"/>
<path d="M112.266 6.0545H116.031L121.004 20.9385H117.32L116.421 17.816H111.857L110.977 20.9385H107.293L112.266 6.0545ZM115.581 14.9016L114.762 12.009C114.496 11.0722 114.17 9.44808 114.17 9.44808H114.129C114.129 9.44808 113.801 11.0722 113.536 12.009L112.696 14.9016H115.581Z" fill="#0A0B0B"/>
<path d="M129.242 5.8053C131.207 5.8053 133.294 6.47319 134.726 7.90868L133.068 10.6561C132.126 9.82341 130.715 9.1382 129.406 9.1382C126.479 9.1382 125.273 11.2415 125.273 13.384C125.273 15.5914 126.582 17.8596 129.406 17.8596C130.858 17.8596 132.292 17.0464 133.294 16.0273L135.136 18.6923C133.846 20.0453 131.923 21.1902 129.242 21.1902C124.535 21.1902 121.568 17.8813 121.568 13.4685C121.568 9.136 124.719 5.8053 129.242 5.8053Z" fill="#0A0B0B"/>
<path d="M141.196 9.17702H136.756V6.0545H149.217V9.17702H144.777V20.9385H141.196V9.17702Z" fill="#0A0B0B"/>
<path fill-rule="evenodd" clip-rule="evenodd" d="M33.1908 11.9094C34.6339 11.5169 36.1174 12.3908 36.5032 13.8588C36.9211 15.4482 37.1321 17.0919 37.1299 18.7442C37.1299 29.157 28.804 37.6269 18.5681 37.6269C8.33442 37.6269 0.00634766 29.157 0.00634766 18.7442C0.00634766 10.179 5.68487 2.6719 13.8168 0.486134C15.2621 0.0958187 16.7435 0.974028 17.1251 2.44422C17.5066 3.91441 16.6454 5.42147 15.2002 5.80963C9.44071 7.35571 5.41841 12.6748 5.41841 18.7442C5.41841 21.9969 6.56736 24.9828 8.47087 27.303C8.25554 26.6265 8.13618 25.9044 8.13618 25.1519C8.13618 21.2878 11.2163 18.1566 15.0127 18.1566C18.8111 18.1566 21.8891 21.29 21.8891 25.1519C21.8891 28.4761 19.6062 31.2539 16.5495 31.9651C17.2082 32.0692 17.8839 32.1234 18.5703 32.1234C25.8219 32.1234 31.72 26.1234 31.72 18.7464C31.72 17.5689 31.5708 16.4023 31.2745 15.2791C30.8887 13.8111 31.7477 12.3018 33.1908 11.9094ZM30.1854 6.33848C30.1854 8.85701 28.1785 10.8986 25.7027 10.8986C23.2268 10.8986 21.2199 8.85701 21.2199 6.33848C21.2199 3.81997 23.2268 1.77829 25.7027 1.77829C28.1785 1.77829 30.1854 3.81997 30.1854 6.33848Z" fill="#F58A1F"/>
</g>
<defs>
<clipPath id="clip0_99_1601">
<rect width="150" height="38" fill="white"/>
</clipPath>
</defs>
</svg>
