<svg width="188" height="108" viewBox="0 0 188 108" fill="none" xmlns="http://www.w3.org/2000/svg">
<path opacity="0.989" fill-rule="evenodd" clip-rule="evenodd" d="M50.1904 0C51.6722 0 53.1541 0 54.6358 0C54.6358 9.41247 54.6358 18.8249 54.6358 28.2374C53.1541 28.2374 51.6722 28.2374 50.1904 28.2374C50.1904 18.8249 50.1904 9.41247 50.1904 0Z" fill="#272625"/>
<path opacity="0.993" fill-rule="evenodd" clip-rule="evenodd" d="M11.558 12.8204C20.8261 12.8204 30.094 12.8204 39.362 12.8204C39.3889 22.2331 39.362 31.6455 39.2812 41.0579C36.6532 38.4872 34.0668 35.8772 31.5219 33.2276C31.4411 33.1735 31.3603 33.1735 31.2795 33.2276C22.0498 39.5438 17.2542 48.3477 16.8925 59.6394C17.1893 69.959 21.3384 78.3028 29.3396 84.6717C33.5936 87.8679 38.3623 89.8558 43.6457 90.6356C43.6457 96.4235 43.6457 102.212 43.6457 108C37.4774 107.446 31.631 105.769 26.1066 102.969C26.0797 102.929 26.0527 102.888 26.0258 102.847C27.1844 100.493 26.9555 98.2881 25.3388 96.2344C23.73 94.5897 21.8036 94.0355 19.5598 94.571C18.3773 94.941 17.3939 95.6039 16.6096 96.559C13.4452 93.8699 10.6837 90.8271 8.32502 87.4305C10.6439 85.8572 11.506 83.6931 10.9114 80.9391C10.1551 78.6923 8.61939 77.3397 6.30439 76.882C5.15691 76.723 4.06576 76.8991 3.03095 77.4095C1.45146 73.5285 0.441145 69.4981 0 65.3193C3.3777 64.9306 5.23668 63.0376 5.57696 59.6394C5.35776 56.7227 3.84899 54.8699 1.05073 54.0811C0.70399 54.0063 0.353773 53.9657 0 53.9594C0.47485 49.8076 1.44475 45.7776 2.90972 41.8693C5.99959 43.0483 8.49168 42.291 10.3861 39.5973C11.816 36.4268 11.129 33.8303 8.32502 31.8077C11.3557 27.5479 14.9389 23.8153 19.0748 20.6101C16.6266 18.0305 14.1344 15.4881 11.5985 12.9827C11.561 12.9345 11.5475 12.8804 11.558 12.8204Z" fill="#272625"/>
<path opacity="0.991" fill-rule="evenodd" clip-rule="evenodd" d="M61.266 12.8204C74.2287 16.7468 84.0224 24.6176 90.646 36.4328C96.5123 47.7083 97.9405 59.528 94.9298 71.8918C91.5052 84.3211 84.4063 94.0038 73.6323 100.941C75.033 103.024 76.4345 105.106 77.8352 107.189C69.9434 107.529 62.0492 107.785 54.1533 107.959C57.6891 101.401 61.2454 94.8558 64.8223 88.3231C64.9524 88.3158 65.047 88.3831 65.1052 88.5259C66.2634 90.2299 67.4224 91.9339 68.5807 93.6379C68.6655 93.7206 68.7601 93.7336 68.8636 93.6784C78.5311 87.4816 84.6067 78.7321 87.0897 67.429C89.3754 54.234 86.1424 42.6307 77.3906 32.6191C72.883 27.7566 67.5081 24.2134 61.266 21.9895C61.266 18.9331 61.266 15.8768 61.266 12.8204Z" fill="#272625"/>
<path opacity="0.982" fill-rule="evenodd" clip-rule="evenodd" d="M125.766 13.1451C128.561 12.8325 131.148 13.414 133.526 14.8896C135.715 16.5124 136.954 18.6897 137.244 21.4215C135.6 21.4486 133.956 21.4215 132.313 21.3404C131.741 19.2374 130.394 17.9526 128.272 17.4862C124.645 17.2054 122.394 18.8418 121.523 22.3952C121.125 24.3491 121.152 26.2966 121.604 28.2375C122.869 32.0171 125.442 33.4371 129.323 32.4974C130.797 31.8236 131.754 30.7012 132.192 29.13C132.334 28.6514 132.427 28.1645 132.475 27.6695C134.118 27.6695 135.762 27.6695 137.405 27.6695C137.211 31.0779 135.729 33.7421 132.96 35.662C130.721 36.9158 128.324 37.3755 125.766 37.0414C121.701 36.5286 118.832 34.4054 117.159 30.6717C116.246 28.4033 115.923 26.0502 116.189 23.6124C116.502 19.9645 118.106 17.0569 120.998 14.8896C122.462 13.9444 124.052 13.3629 125.766 13.1451Z" fill="#272625"/>
<path opacity="0.982" fill-rule="evenodd" clip-rule="evenodd" d="M179.999 13.145C181.508 13.145 183.016 13.145 184.525 13.145C184.491 15.1491 183.548 16.5149 181.696 17.2427C181.248 17.4108 180.79 17.546 180.322 17.6484C178.444 17.957 176.559 18.2004 174.664 18.3787C172.265 18.7607 170.608 20.0724 169.694 22.3141C169.428 23.0544 169.267 23.8118 169.209 24.586C170.362 21.9975 172.342 20.4964 175.149 20.0827C177.852 19.7127 180.25 20.3888 182.343 22.1112C184.568 24.3493 185.416 27.0405 184.889 30.1848C184.314 33.2769 182.55 35.346 179.595 36.3922C177.504 37.0068 175.375 37.1691 173.209 36.8791C169.828 36.2428 167.686 34.2548 166.784 30.9151C166.361 28.799 166.226 26.6623 166.38 24.5049C166.363 22.2457 166.902 20.1361 167.996 18.1758C169.236 16.3105 170.947 15.107 173.129 14.565C173.608 14.4311 174.093 14.323 174.583 14.2404C176.099 14.1407 177.608 13.9784 179.11 13.7536C179.524 13.7089 179.821 13.506 179.999 13.145ZM174.826 23.4501C177.48 23.1818 179.11 24.3448 179.716 26.9392C180.084 28.7526 179.814 30.4566 178.908 32.0511C177.61 33.4758 176.033 33.895 174.179 33.3088C172.833 32.7299 172.011 31.7156 171.714 30.266C171.415 28.8109 171.496 27.3774 171.957 25.9655C172.507 24.6412 173.463 23.8027 174.826 23.4501Z" fill="#272625"/>
<path opacity="0.99" fill-rule="evenodd" clip-rule="evenodd" d="M142.09 13.713C148.421 13.713 154.753 13.713 161.084 13.713C161.084 21.3404 161.084 28.9677 161.084 36.5951C159.386 36.5951 157.689 36.5951 155.992 36.5951C155.992 30.3741 155.992 24.1533 155.992 17.9324C153.055 17.9324 150.118 17.9324 147.182 17.9324C147.182 24.1533 147.182 30.3741 147.182 36.5951C145.485 36.5951 143.787 36.5951 142.09 36.5951C142.09 28.9677 142.09 21.3404 142.09 13.713Z" fill="#272625"/>
<path opacity="0.98" fill-rule="evenodd" clip-rule="evenodd" d="M50.7598 32.4567C52.8177 32.3903 54.8653 32.4984 56.9025 32.7813C56.9025 34.2689 56.9025 35.7565 56.9025 37.2441C53.9396 36.7043 50.976 36.7043 48.0117 37.2441C48.0117 35.7565 48.0117 34.2689 48.0117 32.7813C48.9398 32.6778 49.8558 32.5697 50.7598 32.4567Z" fill="#272625"/>
<path opacity="0.993" fill-rule="evenodd" clip-rule="evenodd" d="M54.4733 86.7408C53.0294 77.4947 48.5032 70.2057 40.8946 64.873C34.3068 59.0134 31.1007 51.643 31.2764 42.7618C31.3014 42.6614 31.3418 42.6614 31.3976 42.7618C32.4725 45.3011 33.8735 47.6272 35.6005 49.74C36.6109 50.8625 37.6751 51.9309 38.7931 52.9452C40.2571 53.955 41.6985 54.9963 43.1173 56.0691C44.0798 53.6693 45.6963 51.8572 47.9668 50.6326C48.0072 47.6034 48.0207 44.5741 48.0072 41.5447C50.9456 40.8023 53.8822 40.8023 56.8172 41.5447C56.8711 44.574 56.925 47.6033 56.9789 50.6326C59.9064 52.1811 61.6983 54.5883 62.3538 57.8542C62.4605 65.2633 62.5138 72.674 62.5154 80.0872C69.4187 76.4569 73.5675 70.7769 74.9625 63.0473C75.9777 54.3615 73.1626 47.2345 66.5163 41.6664C64.9353 40.4259 63.2113 39.4116 61.3434 38.6236C61.2357 37.0549 61.2357 35.4861 61.3434 33.9174C68.5094 36.4999 73.7493 41.2331 77.064 48.1172C80.3568 55.6426 80.411 63.1885 77.2257 70.7558C73.1044 79.326 66.3829 84.5597 57.0597 86.4568C56.2053 86.6256 55.3431 86.7205 54.4733 86.7408Z" fill="#272625"/>
<path opacity="0.996" fill-rule="evenodd" clip-rule="evenodd" d="M31.2778 42.7618C31.1021 51.643 34.3082 59.0134 40.896 64.873C48.5046 70.2057 53.0308 77.4947 54.4747 86.7408C45.6548 87.3924 38.2862 84.4445 32.3689 77.8963C27.3261 72.0403 25.036 65.2244 25.4988 57.4485C25.9541 51.941 27.8805 47.0455 31.2778 42.7618Z" fill="#272625"/>
<path opacity="0.985" fill-rule="evenodd" clip-rule="evenodd" d="M124.632 49.1721C126.033 49.1721 127.434 49.1721 128.835 49.1721C128.835 50.1728 128.835 51.1736 128.835 52.1744C130.586 52.0256 132.284 52.2555 133.927 52.8641C135.927 53.8061 137.044 55.3884 137.281 57.6109C137.594 59.5942 137.271 61.4604 136.311 63.2097C135.033 64.9129 133.322 65.8192 131.179 65.9279C130.398 65.9685 129.617 65.9823 128.835 65.9685C128.835 68.0514 128.835 70.1335 128.835 72.2164C127.434 72.2164 126.033 72.2164 124.632 72.2164C124.632 70.1335 124.632 68.0514 124.632 65.9685C122.905 66.0691 121.235 65.8119 119.621 65.1977C117.34 63.8377 116.235 61.8092 116.307 59.112C116.309 54.8644 118.41 52.5654 122.611 52.2149C123.285 52.1744 123.958 52.1609 124.632 52.1744C124.632 51.1736 124.632 50.1728 124.632 49.1721ZM123.743 56.2315C124.04 56.2315 124.335 56.2315 124.632 56.2315C124.632 58.1789 124.632 60.1263 124.632 62.0737C123.615 62.094 122.619 61.9723 121.641 61.7086C120.606 61.1869 120.121 60.3349 120.187 59.1526C120.192 58.3705 120.422 57.6672 120.874 57.0429C121.212 56.7445 121.603 56.5416 122.046 56.4343C122.623 56.3611 123.188 56.2935 123.743 56.2315ZM128.835 56.2315C129.617 56.2552 130.398 56.2957 131.179 56.3532C132.712 56.614 133.466 57.5336 133.442 59.112C133.463 60.0961 133.113 60.9075 132.391 61.5463C132.017 61.7686 131.613 61.9041 131.179 61.952C130.399 62.0234 129.617 62.064 128.835 62.0737C128.835 60.1263 128.835 58.1789 128.835 56.2315Z" fill="#272625"/>
<path opacity="0.987" fill-rule="evenodd" clip-rule="evenodd" d="M141.928 49.1721C143.598 49.1721 145.268 49.1721 146.939 49.1721C146.925 54.0677 146.939 58.9634 146.979 63.8588C150.156 58.9793 153.348 54.1108 156.557 49.2533C158.011 49.1721 159.466 49.1451 160.922 49.1721C160.922 56.8536 160.922 64.5347 160.922 72.2164C159.251 72.2164 157.581 72.2164 155.911 72.2164C155.924 67.4558 155.911 62.6961 155.87 57.9355C152.72 62.6798 149.554 67.4128 146.373 72.1353C144.892 72.2164 143.411 72.2432 141.928 72.2164C141.928 64.5347 141.928 56.8536 141.928 49.1721Z" fill="#272625"/>
<path opacity="0.982" fill-rule="evenodd" clip-rule="evenodd" d="M165.935 49.3344C167.686 49.3344 169.437 49.3344 171.188 49.3344C171.188 55.5553 171.188 61.7759 171.188 67.997C174.179 67.997 177.169 67.997 180.16 67.997C180.16 61.7759 180.16 55.5553 180.16 49.3344C181.911 49.3344 183.662 49.3344 185.414 49.3344C185.414 55.5553 185.414 61.7759 185.414 67.997C186.276 67.997 187.138 67.997 188 67.997C188 71.1348 188 74.2717 188 77.4095C186.41 77.4095 184.821 77.4095 183.231 77.4095C183.231 75.6787 183.231 73.9472 183.231 72.2164C177.466 72.2164 171.7 72.2164 165.935 72.2164C165.935 64.589 165.935 56.9617 165.935 49.3344Z" fill="#272625"/>
<path opacity="0.987" fill-rule="evenodd" clip-rule="evenodd" d="M149.287 84.7935C150.815 84.7667 152.337 84.7943 153.853 84.8746C156.801 92.5223 159.724 100.176 162.623 107.838C161.087 107.852 159.551 107.838 158.016 107.797C157.423 106.256 156.83 104.714 156.238 103.172C153.139 103.105 150.041 103.118 146.943 103.213C146.346 104.752 145.727 106.28 145.084 107.797C143.547 107.865 142.011 107.852 140.477 107.757C143.436 100.11 146.374 92.4549 149.287 84.7935ZM151.55 91.1226C152.603 93.6712 153.627 96.2402 154.621 98.8311C152.6 98.939 150.58 98.939 148.559 98.8311C149.579 96.2686 150.577 93.6996 151.55 91.1226Z" fill="#272625"/>
<path opacity="0.993" fill-rule="evenodd" clip-rule="evenodd" d="M121.074 84.9557C124.846 84.942 128.618 84.9557 132.39 84.9963C136.473 85.712 138.521 88.16 138.533 92.3397C138.496 96.486 136.449 98.9073 132.39 99.6019C130.235 99.6424 128.079 99.6562 125.924 99.6424C125.924 102.374 125.924 105.106 125.924 107.838C124.307 107.838 122.691 107.838 121.074 107.838C121.074 100.21 121.074 92.5831 121.074 84.9557ZM125.924 88.8506C127.569 88.8295 129.213 88.87 130.854 88.9723C132.811 89.206 133.807 90.3144 133.845 92.2991C133.807 94.2838 132.811 95.3922 130.854 95.6259C129.213 95.7298 127.569 95.7704 125.924 95.7476C125.924 93.4489 125.924 91.1493 125.924 88.8506Z" fill="#272625"/>
<path opacity="0.989" fill-rule="evenodd" clip-rule="evenodd" d="M165.935 84.9557C167.632 84.9557 169.329 84.9557 171.027 84.9557C171.027 87.8768 171.027 90.7979 171.027 93.719C174.071 93.719 177.115 93.719 180.16 93.719C180.16 90.7979 180.16 87.8768 180.16 84.9557C181.857 84.9557 183.555 84.9557 185.252 84.9557C185.252 92.583 185.252 100.21 185.252 107.838C183.555 107.838 181.857 107.838 180.16 107.838C180.16 104.538 180.16 101.238 180.16 97.9384C177.115 97.9384 174.071 97.9384 171.027 97.9384C171.027 101.238 171.027 104.538 171.027 107.838C169.329 107.838 167.632 107.838 165.935 107.838C165.935 100.21 165.935 92.583 165.935 84.9557Z" fill="#272625"/>
</svg>
