<svg width="193" height="77" viewBox="0 0 193 77" fill="none" xmlns="http://www.w3.org/2000/svg">
<path fill-rule="evenodd" clip-rule="evenodd" d="M25.3264 1.50098H1.55585V12.6364H12.0527V60.9094H1.55585V72.0646H36.1186V60.9094H25.3264V1.50098ZM43.6023 3.47534C40.3922 2.44867 36.4928 1.83662 31.7466 1.81687V15.1241H32.6525C40.1362 15.1241 43.7992 18.2041 43.7992 24.4233C43.7992 33.15 35.9217 34.0384 32.554 34.0384L31.7466 34.0187V47.3258H32.9282C50.5148 47.3258 58.5302 35.4402 58.5302 24.4233C58.5302 18.9543 56.8169 7.7597 43.6023 3.47534ZM73.9111 40.8302C75.0731 40.9487 76.6486 40.9487 77.456 40.9487C83.9944 40.9487 87.4802 36.7235 87.4802 32.0443C87.4802 27.5428 84.9397 23.2387 76.8849 23.2387C74.9549 23.2387 70.6223 23.3176 69.1058 23.3176V47.3653H73.9111V40.8302ZM73.9111 27.8192C75.1912 27.7797 76.3729 27.7402 77.3576 27.7402C80.6268 27.7402 82.3992 29.1617 82.3992 32.0048C82.3992 35.0651 80.1541 36.4471 77.3182 36.4471C76.2153 36.4471 75.0337 36.3682 73.9111 36.2497V27.8192ZM157.807 54.3546C156.015 54.3546 151.958 54.4138 150.52 54.4138V76.112H155.03V70.5048C156.133 70.6233 157.59 70.6233 158.358 70.6233C164.483 70.6233 167.575 66.8128 167.575 62.4494C167.575 58.2243 165.37 54.3546 157.807 54.3546ZM158.221 66.3982C157.197 66.3982 156.094 66.3192 155.03 66.2007V58.6389C156.232 58.5994 157.334 58.56 158.26 58.56C161.332 58.56 162.809 59.7248 162.809 62.41C162.809 65.2728 160.899 66.3982 158.221 66.3982ZM98.3119 47.7997C100.774 47.7997 103.275 47.0889 105.027 45.5884L103.747 42.4294C102.723 43.2389 100.931 44.0287 98.7845 44.0287C96.0077 44.0287 93.9004 42.5874 93.5066 39.922H106.209C106.406 39.2507 106.485 38.5794 106.485 37.4738C106.485 32.5379 102.684 29.2802 98.1543 29.2802C92.3643 29.2802 88.8391 33.4066 88.8391 38.54C88.8391 44.1076 92.64 47.7997 98.3119 47.7997ZM97.9574 33.0512C100.537 33.0512 102.034 34.7294 101.995 36.9012H93.349C93.8217 34.5715 95.2593 33.0512 97.9574 33.0512ZM116.332 36.1115L116.45 34.2358H121.117V47.3653H125.608V29.7146H112.275L111.999 35.2033C111.605 42.0346 109.537 43.4758 108.001 43.3179L108.395 47.7207C113.141 47.7207 115.485 45.7266 116.332 36.1115ZM145.282 40.6525C145.282 37.5133 143.529 34.5517 137.542 34.5517H135.12V29.7146H130.61V47.3653H137.188C143.175 47.3653 145.282 44.0287 145.282 40.6525ZM135.12 43.4364V38.1451H137.148C139.571 38.1451 140.516 39.2112 140.516 40.8105C140.516 42.4294 139.531 43.4364 137.109 43.4364H135.12ZM163.853 45.5884L162.573 42.4294C161.549 43.2389 159.757 44.0287 157.61 44.0287C154.833 44.0287 152.706 42.5874 152.312 39.922H165.035C165.232 39.2507 165.31 38.5794 165.31 37.4738C165.31 32.5379 161.51 29.2802 156.98 29.2802C151.19 29.2802 147.665 33.4066 147.665 38.54C147.665 44.1076 151.466 47.7997 157.137 47.7997C159.599 47.7997 162.1 47.0889 163.853 45.5884ZM156.783 33.0512C159.363 33.0512 160.84 34.7294 160.801 36.9012H152.155C152.628 34.5715 154.085 33.0512 156.783 33.0512ZM182.326 29.7146H182.011V26.8912H177.501V29.7146H177.225C171.1 29.7146 167.733 34.0187 167.733 38.54C167.733 43.0612 171.14 47.3653 177.265 47.3653H177.501V50.1887H182.011V47.3653H182.326C188.687 47.3653 191.779 43.0612 191.779 38.54C191.779 34.0187 188.372 29.7146 182.326 29.7146ZM177.501 43.7523H177.383C174.153 43.7523 172.538 40.85 172.538 38.54C172.538 36.23 173.877 33.3671 177.186 33.3671H177.501V43.7523ZM182.168 43.7523H182.011V33.3671H182.326C185.497 33.3671 186.974 36.23 186.974 38.54C186.974 40.85 185.398 43.7523 182.168 43.7523ZM85.3336 54.4138H80.8237V67.8592H73.596V54.4138H69.1058V72.0646H84.0338V76.112H88.268V67.8592H85.3336V54.4138ZM99.4541 53.9794C93.6641 53.9794 90.1389 58.1058 90.1389 63.2392C90.1389 68.8069 93.9201 72.4989 99.6117 72.4989C102.073 72.4989 104.575 71.7882 106.327 70.2876L105.047 67.1287C104.023 67.9382 102.231 68.7279 100.065 68.7279C97.2878 68.7279 95.1805 67.2669 94.7867 64.6015H107.509C107.706 63.95 107.785 63.2787 107.785 62.173C107.785 57.2371 103.984 53.9794 99.4541 53.9794ZM94.6291 61.6005C95.1018 59.2707 96.5591 57.7505 99.2572 57.7505C101.837 57.7505 103.314 59.4287 103.275 61.6005H94.6291ZM123.618 61.0871H115.918V54.4138H111.408V72.0646H115.918V65.3123H123.618V72.0646H128.109V54.4138H123.618V61.0871ZM131.279 58.9351H137.069V72.0646H141.56V58.9351H147.31V54.4138H131.279V58.9351Z" fill="#1A1919"/>
</svg>
