<svg width="300" height="23" viewBox="0 0 300 23" fill="none" xmlns="http://www.w3.org/2000/svg">
<path d="M30.5469 1.02737H35.5076V21.5749H30.5469V1.02737ZM33.6584 5.10752V1.02737H37.6798C39.4214 1.02737 40.8793 1.30134 42.0535 1.84927C43.2472 2.37764 44.1474 3.14083 44.754 4.13885C45.3606 5.13687 45.664 6.34037 45.664 7.74934C45.664 9.11917 45.3606 10.3129 44.754 11.3305C44.1474 12.3285 43.2472 13.1015 42.0535 13.6494C40.8793 14.1778 39.4214 14.4419 37.6798 14.4419H33.6584V10.3618H37.6798C38.6778 10.3618 39.4606 10.1368 40.0281 9.68667C40.5956 9.23658 40.8793 8.59081 40.8793 7.74934C40.8793 6.8883 40.5956 6.23274 40.0281 5.78265C39.4606 5.33256 38.6778 5.10752 37.6798 5.10752H33.6584Z" fill="white"/>
<path d="M51.1447 21.5749V17.4947H61.5065V21.5749H51.1447ZM51.1447 5.10752V1.02737H61.5065V5.10752H51.1447ZM51.1447 12.7688V8.77671H60.9194V12.7688H51.1447ZM47.8571 1.02737H52.6123V21.5749H47.8571V1.02737Z" fill="white"/>
<path d="M69.8489 11.0956L68.6161 21.5749H63.3911L66.7081 0L75.4554 12.534L84.2321 0L87.5491 21.5749H82.3242L81.0913 11.0956L75.4554 19.6669L69.8489 11.0956Z" fill="white"/>
<path d="M85.6111 5.45976V1.02737H101.873V5.45976H96.2078V21.5749H91.247V5.45976H85.6111Z" fill="white"/>
<path d="M106.429 21.5749V17.4947H116.791V21.5749H106.429ZM106.429 5.10752V1.02737H116.791V5.10752H106.429ZM106.429 12.7688V8.77671H116.204V12.7688H106.429ZM103.141 1.02737H107.897V21.5749H103.141V1.02737Z" fill="white"/>
<path d="M131.121 1.02737H137.256L130.799 11.0369L137.697 21.5749H131.562L127.804 14.7355L123.93 21.5749H117.795L124.84 11.0369L118.529 1.02737H124.664L127.834 6.98615L131.121 1.02737Z" fill="white"/>
<path d="M138.994 1.02737H144.131V21.5749H138.994V1.02737ZM151.117 1.02737H156.929L148.593 10.6553L157.37 21.5749H151.352L142.693 10.8021L151.117 1.02737Z" fill="white"/>
<path d="M161.159 11.3011C161.159 12.5144 161.394 13.5907 161.863 14.53C162.352 15.4498 163.028 16.1738 163.889 16.7022C164.769 17.2305 165.797 17.4947 166.971 17.4947C168.125 17.4947 169.133 17.2305 169.994 16.7022C170.875 16.1738 171.55 15.4498 172.02 14.53C172.509 13.5907 172.753 12.5144 172.753 11.3011C172.753 10.0878 172.519 9.02132 172.049 8.10158C171.579 7.16227 170.914 6.42843 170.053 5.90006C169.192 5.3717 168.164 5.10752 166.971 5.10752C165.797 5.10752 164.769 5.3717 163.889 5.90006C163.028 6.42843 162.352 7.16227 161.863 8.10158C161.394 9.02132 161.159 10.0878 161.159 11.3011ZM155.904 11.3011C155.904 9.71602 156.178 8.26792 156.726 6.95679C157.294 5.64567 158.077 4.51066 159.075 3.55178C160.073 2.5929 161.247 1.85906 162.597 1.35026C163.947 0.821899 165.405 0.557717 166.971 0.557717C168.556 0.557717 170.014 0.821899 171.344 1.35026C172.695 1.85906 173.869 2.5929 174.867 3.55178C175.865 4.51066 176.638 5.64567 177.186 6.95679C177.734 8.26792 178.008 9.71602 178.008 11.3011C178.008 12.8862 177.734 14.3441 177.186 15.6748C176.657 17.0055 175.894 18.1601 174.896 19.1385C173.918 20.117 172.753 20.8802 171.403 21.4281C170.053 21.9565 168.575 22.2206 166.971 22.2206C165.347 22.2206 163.859 21.9565 162.509 21.4281C161.159 20.8802 159.985 20.117 158.987 19.1385C158.008 18.1601 157.245 17.0055 156.697 15.6748C156.169 14.3441 155.904 12.8862 155.904 11.3011Z" fill="white"/>
<path d="M185.492 11.0956L184.259 21.5749H179.034L182.351 0L191.098 12.534L199.875 0L203.192 21.5749H197.967L196.734 11.0956L191.098 19.6669L185.492 11.0956Z" fill="white"/>
<path d="M218.435 5.45976H210.597V21.5749H205.549V1.02737H223.484V21.5749H218.435V5.45976Z" fill="white"/>
<path d="M245.122 1.02737V21.5749H240.073V5.45976H233.263V12.8862C233.263 14.804 232.979 16.4184 232.412 17.7295C231.864 19.0211 230.993 19.9898 229.799 20.6355C228.605 21.2618 227.059 21.5749 225.161 21.5749V17.3773C225.65 17.3773 226.081 17.2795 226.453 17.0838C226.844 16.8881 227.167 16.6141 227.421 16.2619C227.695 15.8901 227.901 15.44 228.038 14.9116C228.175 14.3832 228.243 13.806 228.243 13.1797V1.02737H245.122Z" fill="white"/>
<path d="M251.937 21.5749V17.4947H262.299V21.5749H251.937ZM251.937 5.10752V1.02737H262.299V5.10752H251.937ZM251.937 12.7688V8.77671H261.712V12.7688H251.937ZM248.65 1.02737H253.405V21.5749H248.65V1.02737Z" fill="white"/>
<path d="M265.358 1.02737H270.495V21.5749H265.358V1.02737ZM277.481 1.02737H283.293L274.957 10.6553L283.733 21.5749H277.716L269.057 10.8021L277.481 1.02737Z" fill="white"/>
<path d="M283.738 5.45976V1.02737H300V5.45976H294.335V21.5749H289.374V5.45976H283.738Z" fill="white"/>
<rect y="0.0488281" width="22.5044" height="22.5044" fill="white"/>
</svg>
