<svg width="27" height="26" viewBox="0 0 27 26" fill="none" xmlns="http://www.w3.org/2000/svg">
<path d="M23.8656 5.07178C24.4878 5.86586 25.0063 6.7368 25.4471 7.65897L13.4691 16.3939L8.43945 13.2688V9.52891L13.4432 12.6284L23.8656 5.07178Z" fill="#21A038"/>
<path d="M3.33025 13.0132C3.33025 12.8339 3.33025 12.6802 3.35617 12.5009L0.322801 12.3472C0.322801 12.5521 0.296875 12.7826 0.296875 12.9876C0.296875 16.5738 1.77467 19.827 4.15989 22.1836L6.31177 20.0575C4.471 18.2644 3.33025 15.7797 3.33025 13.0132Z" fill="url(#paint0_linear_3507_1805)"/>
<path d="M13.4418 3.02292C13.6232 3.02292 13.7788 3.02292 13.9603 3.04853L14.1158 0.0514946C13.9084 0.0514946 13.6751 0.0258789 13.4677 0.0258789C9.83801 0.0258789 6.54537 1.48598 4.16016 3.84262L6.31204 5.96873C8.12688 4.15001 10.6677 3.02292 13.4418 3.02292Z" fill="url(#paint1_linear_3507_1805)"/>
<path d="M13.4397 23.0029C13.2582 23.0029 13.1027 23.0029 12.9212 22.9773L12.7656 25.9744C12.973 25.9744 13.2064 26 13.4138 26C17.0435 26 20.3361 24.5399 22.7213 22.1832L20.5694 20.0571C18.7546 21.9015 16.2397 23.0029 13.4397 23.0029Z" fill="url(#paint2_linear_3507_1805)"/>
<path d="M19.1452 4.76453L21.7119 2.89458C19.4563 1.10148 16.5785 0 13.4414 0V2.99704C15.5674 3.02266 17.5378 3.66305 19.1452 4.76453Z" fill="url(#paint3_linear_3507_1805)"/>
<path d="M26.6122 13.0127C26.6122 12.2186 26.5345 11.4501 26.4048 10.6816L23.5789 12.7565C23.5789 12.8334 23.5789 12.9358 23.5789 13.0127C23.5789 15.9585 22.2826 18.5969 20.2344 20.4156L22.2825 22.6442C24.927 20.2875 26.6122 16.8294 26.6122 13.0127Z" fill="#21A038"/>
<path d="M13.4416 23.0027C10.4601 23.0027 7.78971 21.7219 5.94894 19.6982L3.69336 21.7219C6.1045 24.3603 9.57862 25.9997 13.4416 25.9997V23.0027Z" fill="url(#paint4_linear_3507_1805)"/>
<path d="M6.67474 5.60992L4.62656 3.38135C1.95616 5.76361 0.296875 9.19612 0.296875 13.0129H3.33025C3.33025 10.0927 4.62656 7.42863 6.67474 5.60992Z" fill="url(#paint5_linear_3507_1805)"/>
<defs>
<linearGradient id="paint0_linear_3507_1805" x1="3.84611" y1="21.819" x2="0.807517" y2="12.9576" gradientUnits="userSpaceOnUse">
<stop offset="0.1444" stop-color="#F2E913"/>
<stop offset="0.3037" stop-color="#E7E518"/>
<stop offset="0.5823" stop-color="#CADB26"/>
<stop offset="0.891" stop-color="#A3CD39"/>
</linearGradient>
<linearGradient id="paint1_linear_3507_1805" x1="5.02482" y1="3.49514" x2="12.8706" y2="0.478701" gradientUnits="userSpaceOnUse">
<stop offset="0.0592" stop-color="#0FA8E0"/>
<stop offset="0.5385" stop-color="#0099F9"/>
<stop offset="0.9234" stop-color="#0291EB"/>
</linearGradient>
<linearGradient id="paint2_linear_3507_1805" x1="12.5875" y1="23.4434" x2="21.9539" y2="21.3077" gradientUnits="userSpaceOnUse">
<stop offset="0.1226" stop-color="#A3CD39"/>
<stop offset="0.2846" stop-color="#86C339"/>
<stop offset="0.8693" stop-color="#21A038"/>
</linearGradient>
<linearGradient id="paint3_linear_3507_1805" x1="12.8182" y1="1.91756" x2="20.6012" y2="4.3403" gradientUnits="userSpaceOnUse">
<stop offset="0.0566" stop-color="#0291EB"/>
<stop offset="0.79" stop-color="#0C8ACB"/>
</linearGradient>
<linearGradient id="paint4_linear_3507_1805" x1="4.46464" y1="22.2087" x2="12.8158" y2="25.3567" gradientUnits="userSpaceOnUse">
<stop offset="0.1324" stop-color="#F2E913"/>
<stop offset="0.2977" stop-color="#EBE716"/>
<stop offset="0.5306" stop-color="#D9E01F"/>
<stop offset="0.8023" stop-color="#BBD62D"/>
<stop offset="0.9829" stop-color="#A3CD39"/>
</linearGradient>
<linearGradient id="paint5_linear_3507_1805" x1="2.60499" y1="13.3749" x2="5.89228" y2="4.74744" gradientUnits="userSpaceOnUse">
<stop offset="0.0698" stop-color="#A3CD39"/>
<stop offset="0.2599" stop-color="#81C55F"/>
<stop offset="0.9216" stop-color="#0FA8E0"/>
</linearGradient>
</defs>
</svg>
