<svg width="300" height="46" viewBox="0 0 300 46" fill="none" xmlns="http://www.w3.org/2000/svg">
<path d="M134.003 13.6114L140.257 9.04443H119.32V36.4016H140.257V31.8346H125.302V24.8498H138.082V20.2828H125.302V13.6114H134.003Z" fill="#21A038"/>
<path d="M103.505 19.7007H96.2538V13.6114H107.855L114.109 9.04443H90.2719V36.4016H102.734C109.713 36.4016 113.746 33.2674 113.746 27.8049C113.746 22.5663 110.121 19.7007 103.505 19.7007ZM102.508 31.8346H96.2538V24.2677H102.508C106.314 24.2677 108.082 25.5214 108.082 28.0736C108.082 30.6257 106.178 31.8346 102.508 31.8346Z" fill="#21A038"/>
<path d="M157.205 9.04443H145.831V36.4016H151.813V28.6556H157.251C164.502 28.6556 169.033 24.8946 169.033 18.85C169.033 12.8055 164.502 9.04443 157.205 9.04443ZM157.069 24.0886H151.767V13.6114H157.069C160.921 13.6114 163.006 15.4919 163.006 18.85C163.006 22.2081 160.921 24.0886 157.069 24.0886Z" fill="#21A038"/>
<path d="M80.0302 30.4912C78.4441 31.3419 76.6767 31.7896 74.864 31.7896C69.4713 31.7896 65.574 27.9838 65.574 22.7452C65.574 17.5066 69.4713 13.7008 74.864 13.7008C76.8127 13.656 78.716 14.2828 80.3021 15.4022L84.6072 12.268L84.3353 11.9993C81.8429 9.8054 78.4894 8.68604 74.6828 8.68604C70.5589 8.68604 66.7976 10.074 64.0785 12.5814C61.3595 15.1783 59.8187 18.8051 59.9094 22.5661C59.864 26.3719 61.3595 30.0434 64.0785 32.7299C66.9335 35.3716 70.7402 36.8491 74.6375 36.7596C78.9426 36.7596 82.7039 35.282 85.2417 32.5956L81.3897 29.7748L80.0302 30.4912Z" fill="#21A038"/>
<path d="M240.952 9.08921V36.4464H246.934V25.2528H259.668V36.4464H265.65V9.08921H259.668V20.3276H246.934V9.08921H240.952ZM230.665 36.4464H236.964L225.272 9.08921H219.199L207.281 36.4464H213.308L215.71 30.9391H228.399L230.665 36.4464ZM217.523 26.3721L222.145 15.4024L226.495 26.3721H217.523ZM279.063 25.3871H282.779L291.934 36.4016H299.637L287.402 22.2529L298.097 9.04443H291.254L282.372 20.7753H279.063V9.04443H273.082V36.4016H279.063V25.3871ZM187.523 19.7455V13.6562H203.157V9.08921H181.541V36.4464H194.003C200.982 36.4464 205.015 33.3122 205.015 27.8497C205.015 22.6111 201.39 19.7455 194.773 19.7455H187.523ZM187.523 31.8794V24.3125H193.776C197.583 24.3125 199.35 25.5662 199.35 28.1183C199.35 30.6705 197.492 31.9242 193.776 31.9242H187.523V31.8794Z" fill="#21A038"/>
<path d="M41.1934 8.86523C42.281 10.2532 43.1873 11.7756 43.9577 13.3874L23.0212 28.6555L14.2296 23.193V16.656L22.9758 22.0737L41.1934 8.86523Z" fill="#21A038"/>
<path d="M5.30211 22.7457C5.30211 22.4323 5.30211 22.1636 5.34743 21.8502L0.0453172 21.5815C0.0453172 21.9397 0 22.3427 0 22.7009C0 28.9693 2.58308 34.6557 6.75227 38.7749L10.5136 35.0586C7.29607 31.9244 5.30211 27.5813 5.30211 22.7457Z" fill="url(#paint0_linear_2360_86845)"/>
<path d="M22.9758 5.28353C23.293 5.28353 23.5649 5.28353 23.8822 5.3283L24.1541 0.0896963C23.7915 0.0896963 23.3837 0.0449219 23.0211 0.0449219C16.6767 0.0449219 10.9214 2.59706 6.75226 6.71631L10.5136 10.4326C13.6858 7.2536 18.1269 5.28353 22.9758 5.28353Z" fill="url(#paint1_linear_2360_86845)"/>
<path d="M22.9758 40.2077C22.6586 40.2077 22.3867 40.2077 22.0695 40.1629L21.7976 45.4015C22.1601 45.4015 22.568 45.4463 22.9305 45.4463C29.2749 45.4463 35.0302 42.8941 39.1994 38.7749L35.4381 35.0586C32.2659 38.2824 27.8701 40.2077 22.9758 40.2077Z" fill="url(#paint2_linear_2360_86845)"/>
<path d="M32.9456 8.32804L37.432 5.05951C33.4894 1.9253 28.4592 0 22.9758 0V5.23861C26.6918 5.28338 30.136 6.40274 32.9456 8.32804Z" fill="url(#paint3_linear_2360_86845)"/>
<path d="M45.997 22.7454C45.997 21.3574 45.861 20.0141 45.6344 18.6709L40.6949 22.2976C40.6949 22.4319 40.6949 22.611 40.6949 22.7454C40.6949 27.8944 38.429 32.5062 34.8489 35.6852L38.429 39.5805C43.0514 35.4613 45.997 29.4168 45.997 22.7454Z" fill="#21A038"/>
<path d="M22.9758 40.2075C17.7643 40.2075 13.0967 37.9688 9.87915 34.4316L5.93655 37.9688C10.1511 42.5806 16.2236 45.4461 22.9758 45.4461V40.2075Z" fill="url(#paint4_linear_2360_86845)"/>
<path d="M11.148 9.80553L7.56798 5.91016C2.9003 10.0742 0 16.0739 0 22.7453H5.30211C5.30211 17.6411 7.56798 12.9845 11.148 9.80553Z" fill="url(#paint5_linear_2360_86845)"/>
<defs>
<linearGradient id="paint0_linear_2360_86845" x1="6.20381" y1="38.1376" x2="0.892565" y2="22.6486" gradientUnits="userSpaceOnUse">
<stop offset="0.1444" stop-color="#F2E913"/>
<stop offset="0.3037" stop-color="#E7E518"/>
<stop offset="0.5823" stop-color="#CADB26"/>
<stop offset="0.891" stop-color="#A3CD39"/>
</linearGradient>
<linearGradient id="paint1_linear_2360_86845" x1="8.26363" y1="6.10894" x2="21.9775" y2="0.836422" gradientUnits="userSpaceOnUse">
<stop offset="0.0592" stop-color="#0FA8E0"/>
<stop offset="0.5385" stop-color="#0099F9"/>
<stop offset="0.9234" stop-color="#0291EB"/>
</linearGradient>
<linearGradient id="paint2_linear_2360_86845" x1="21.4862" y1="40.9776" x2="37.858" y2="37.2445" gradientUnits="userSpaceOnUse">
<stop offset="0.1226" stop-color="#A3CD39"/>
<stop offset="0.2846" stop-color="#86C339"/>
<stop offset="0.8693" stop-color="#21A038"/>
</linearGradient>
<linearGradient id="paint3_linear_2360_86845" x1="21.8864" y1="3.35176" x2="35.4906" y2="7.58652" gradientUnits="userSpaceOnUse">
<stop offset="0.0566" stop-color="#0291EB"/>
<stop offset="0.79" stop-color="#0C8ACB"/>
</linearGradient>
<linearGradient id="paint4_linear_2360_86845" x1="7.2847" y1="38.8197" x2="21.882" y2="44.3222" gradientUnits="userSpaceOnUse">
<stop offset="0.1324" stop-color="#F2E913"/>
<stop offset="0.2977" stop-color="#EBE716"/>
<stop offset="0.5306" stop-color="#D9E01F"/>
<stop offset="0.8023" stop-color="#BBD62D"/>
<stop offset="0.9829" stop-color="#A3CD39"/>
</linearGradient>
<linearGradient id="paint5_linear_2360_86845" x1="4.03441" y1="23.3781" x2="9.78037" y2="8.29799" gradientUnits="userSpaceOnUse">
<stop offset="0.0698" stop-color="#A3CD39"/>
<stop offset="0.2599" stop-color="#81C55F"/>
<stop offset="0.9216" stop-color="#0FA8E0"/>
</linearGradient>
</defs>
</svg>
