<svg width="120" height="21" viewBox="0 0 120 21" fill="none" xmlns="http://www.w3.org/2000/svg">
<path opacity="0.9" d="M27.1289 7.44322C26.1977 6.60239 25.2503 6.35011 23.9925 6.35011C22.5224 6.35011 20.5948 7.02281 20.5948 8.9399C20.5948 10.8234 22.408 11.3951 23.9272 11.5128C25.0706 11.5801 25.528 11.8155 25.528 12.3873C25.528 12.9927 24.8256 13.3963 24.0742 13.3795C23.1758 13.3627 21.8689 12.875 21.2972 12.2191L20.3171 13.6822C21.4933 14.9434 22.7674 15.162 24.0415 15.162C26.3448 15.162 27.5045 13.9008 27.5045 12.4378C27.5045 10.2348 25.577 9.88161 24.0579 9.78072C23.0287 9.71344 22.555 9.41075 22.555 8.87262C22.555 8.35132 23.0777 8.04859 24.0252 8.04859C24.7929 8.04859 25.4463 8.2336 26.0181 8.78854L27.1289 7.44322ZM36.7703 11.4624C37.0801 8.04859 35.3982 6.33331 32.7023 6.33331C30.0887 6.33331 28.4225 8.14952 28.4225 10.672C28.4225 13.329 30.0729 15.0948 32.8499 15.0948C34.075 15.0948 35.4635 14.6575 36.3123 13.7494L35.0388 12.4546C34.5808 12.9423 33.617 13.2281 32.8819 13.2281C31.4771 13.2281 30.6114 12.4882 30.4807 11.4624H36.7703ZM30.5133 9.76388C30.8074 8.68765 31.6901 8.14952 32.7682 8.14952C33.9117 8.14952 34.7284 8.68765 34.8591 9.76388H30.5133ZM44.6277 7.72911C44.1701 6.90508 43.1409 6.38375 42.0629 6.38375C39.7106 6.36695 37.8648 7.86363 37.8648 10.7224C37.8648 13.6317 39.6289 15.1452 42.0141 15.1284C42.9125 15.1116 44.1701 14.6407 44.6277 13.6654L44.7257 14.8761H46.6041V6.58555H44.6929L44.6277 7.72911ZM42.2425 8.21676C45.3789 8.21676 45.3789 13.2449 42.2425 13.2449C40.9193 13.2449 39.8577 12.3032 39.8577 10.7224C39.8577 9.14171 40.9193 8.21676 42.2425 8.21676ZM49.2717 4.46665V6.60239H47.7689V8.36812H49.2717V11.9501C49.2717 14.0185 50.4153 15.0443 52.1629 14.9771C52.7297 14.9685 53.2897 14.8487 53.8129 14.6239L53.2573 12.875C52.9633 13.0263 52.6041 13.1272 52.2937 13.1272C51.6729 13.1272 51.2481 12.7404 51.2481 11.9501V8.36812H53.4861V6.60239H51.2645V4.24805L49.2717 4.46665ZM62.3309 14.8761V10.4366C62.3309 9.34347 63.0009 8.38492 64.0789 8.38492C65.1569 8.38492 65.5981 9.30987 65.5981 10.4029V14.8761H67.5909V10.4029C67.5909 7.91407 66.4637 6.46783 64.1769 6.46783C63.1313 6.46783 62.2005 6.80416 61.4817 7.98135C61.0241 6.8378 60.0605 6.43419 59.0965 6.43419C58.3289 6.43419 57.3977 6.73692 56.9729 7.57774L56.8261 6.56875H54.9801V14.8761H56.9729V10.4366C56.9729 9.34347 57.6101 8.35132 58.6881 8.35132C59.7829 8.35132 60.3381 9.34347 60.3381 10.4366V14.8761H62.3309ZM75.6197 7.72911C75.1621 6.90508 74.1329 6.38375 73.0549 6.38375C70.7029 6.36695 68.8569 7.86363 68.8569 10.7224C68.8569 13.6317 70.6209 15.1452 73.0061 15.1284C73.9045 15.1116 75.1621 14.6407 75.6197 13.6654L75.7177 14.8761H77.5961V6.58555H75.6849L75.6197 7.72911ZM73.2345 8.21676C76.3709 8.21676 76.3709 13.2449 73.2345 13.2449C71.9117 13.2449 70.8497 12.3032 70.8497 10.7224C70.8497 9.14171 71.9117 8.21676 73.2345 8.21676ZM83.7433 13.0936C82.3873 13.0936 81.4561 12.0341 81.4561 10.7393C81.4561 9.44439 82.3057 8.38492 83.7433 8.38492C85.1805 8.38492 86.0301 9.44439 86.0301 10.7393C86.0301 12.0341 85.0989 13.0936 83.7433 13.0936ZM81.2765 18.3404V13.9008C81.8481 14.8089 83.1061 15.078 83.9553 15.078C86.5365 15.078 88.0229 13.1609 88.0229 10.7393C88.0229 8.30084 86.3729 6.40059 83.8901 6.40059C82.9753 6.40059 81.8973 6.80416 81.2765 7.72911L81.1457 6.58555H79.2837V18.3404H81.2765ZM89.4441 13.8167C89.4441 15.4143 91.7965 15.4143 91.7965 13.8167C91.7965 12.2191 89.4441 12.2191 89.4441 13.8167ZM98.4189 13.0936C97.0633 13.0936 96.1321 12.0341 96.1321 10.7393C96.1321 9.44439 96.9813 8.38492 98.4189 8.38492C99.8565 8.38492 100.706 9.44439 100.706 10.7393C100.706 12.0341 99.7749 13.0936 98.4189 13.0936ZM95.9525 18.3404V13.9008C96.5241 14.8089 97.7817 15.078 98.6313 15.078C101.212 15.078 102.699 13.1609 102.699 10.7393C102.699 8.30084 101.049 6.40059 98.5661 6.40059C97.6513 6.40059 96.5729 6.80416 95.9525 7.72911L95.8217 6.58555H93.9593V18.3404H95.9525ZM104.169 6.58555V14.8761H106.162V10.5038C106.162 8.9735 107.126 8.40176 108.171 8.40176C108.824 8.40176 109.2 8.58673 109.608 8.9399L110.507 7.15733C110.066 6.70328 109.265 6.36695 108.432 6.36695C107.616 6.36695 106.782 6.51827 106.162 7.5441L106.015 6.58555H104.169ZM115.042 6.41739C112.477 6.41739 110.876 8.36812 110.876 10.7393C110.876 13.1272 112.444 15.0612 115.058 15.0612C117.672 15.0612 119.256 13.1272 119.256 10.7393C119.256 8.36812 117.606 6.41739 115.042 6.41739ZM115.058 8.28404C116.398 8.28404 117.247 9.49484 117.247 10.7393C117.247 12.0005 116.512 13.1777 115.058 13.1777C113.604 13.1777 112.869 12.0005 112.869 10.7393C112.869 9.49484 113.62 8.28404 115.058 8.28404Z" fill="black"/>
<path fill-rule="evenodd" clip-rule="evenodd" d="M10.9948 9.05514H13.822L14.4503 1.94043H4.71209C3.79563 1.94043 2.91672 2.31523 2.26868 2.98236C1.62065 3.6495 1.25659 4.55431 1.25659 5.49778C1.25659 6.44126 1.62065 7.34611 2.26868 8.01321C2.91672 8.68036 3.79563 9.05514 4.71209 9.05514H10.9948ZM1.88486 18.7571H10.9948C11.4486 18.7571 11.8979 18.6651 12.3172 18.4863C12.7364 18.3075 13.1173 18.0455 13.4382 17.7151C13.7591 17.3848 14.0136 16.9927 14.1873 16.561C14.3609 16.1295 14.4503 15.6668 14.4503 15.1997C14.4503 14.7326 14.3609 14.2699 14.1873 13.8384C14.0136 13.4068 13.7591 13.0146 13.4382 12.6843C13.1173 12.3539 12.7364 12.0919 12.3172 11.9131C11.8979 11.7343 11.4486 11.6423 10.9948 11.6423H1.88486L1.25659 18.7571H1.88486Z" fill="#FFAD00"/>
</svg>
