<svg width="300" height="42" viewBox="0 0 300 42" fill="none" xmlns="http://www.w3.org/2000/svg">
<g clip-path="url(#clip0_30630_104831)">
<path opacity="0.9" d="M65.9373 13.8278C63.5745 11.755 61.1702 11.1332 57.9783 11.1332C54.2475 11.1332 49.3561 12.7914 49.3561 17.5174C49.3561 22.1604 53.9574 23.5699 57.8125 23.8601C60.7142 24.0259 61.8749 24.6063 61.8749 26.0158C61.8749 27.5082 60.0924 28.5032 58.1856 28.4617C55.9057 28.4203 52.5894 27.218 51.1386 25.6013L48.6514 29.2079C51.636 32.3171 54.8693 32.856 58.1027 32.856C63.9476 32.856 66.8907 29.7468 66.8907 26.1402C66.8907 20.7095 61.9993 19.8389 58.1441 19.5902C55.5326 19.4243 54.3304 18.6781 54.3304 17.3515C54.3304 16.0664 55.6569 15.3202 58.0612 15.3202C60.0095 15.3202 61.6676 15.7762 63.1185 17.1443L65.9373 13.8278ZM90.4042 23.7357C91.1902 15.3202 86.9222 11.0917 80.0808 11.0917C73.4483 11.0917 69.2201 15.5689 69.2201 21.7873C69.2201 28.3373 73.4084 32.6902 80.4555 32.6902C83.5645 32.6902 87.088 31.6124 89.2419 29.3737L86.0102 26.1816C84.8479 27.3839 82.4022 28.0886 80.5368 28.0886C76.9718 28.0886 74.7748 26.2645 74.4432 23.7357H90.4042ZM74.5261 19.5487C75.2722 16.8955 77.5123 15.5689 80.2482 15.5689C83.1499 15.5689 85.2226 16.8955 85.5542 19.5487H74.5261ZM110.343 14.5325C109.182 12.5012 106.571 11.2161 103.835 11.2161C97.8658 11.1746 93.1816 14.8642 93.1816 21.9117C93.1816 29.0835 97.6585 32.8146 103.711 32.7731C105.991 32.7317 109.182 31.5709 110.343 29.1665L110.592 32.1513H115.359V11.7135H110.509L110.343 14.5325ZM104.291 15.7348C112.25 15.7348 112.25 28.1301 104.291 28.1301C100.933 28.1301 98.2389 25.8085 98.2389 21.9117C98.2389 18.0148 100.933 15.7348 104.291 15.7348ZM122.129 6.4901V11.755H118.315V16.1079H122.129V24.938C122.129 30.037 125.03 32.5658 129.466 32.4C130.904 32.379 132.325 32.0835 133.653 31.5294L132.243 27.218C131.497 27.5911 130.585 27.8399 129.797 27.8399C128.222 27.8399 127.144 26.8864 127.144 24.938V16.1079H132.824V11.755H127.186V5.95117L122.129 6.4901ZM155.269 32.1513V21.2069C155.269 18.5123 156.968 16.1493 159.704 16.1493C162.44 16.1493 163.559 18.4294 163.559 21.124V32.1513H168.617V21.124C168.617 14.9886 165.756 11.4233 159.953 11.4233C157.3 11.4233 154.937 12.2525 153.113 15.1544C151.953 12.3354 149.507 11.3404 147.061 11.3404C145.113 11.3404 142.75 12.0866 141.672 14.1594L141.299 11.6721H136.615V32.1513H141.672V21.2069C141.672 18.5123 143.289 16.0664 146.025 16.0664C148.802 16.0664 150.212 18.5123 150.212 21.2069V32.1513H155.269ZM188.991 14.5325C187.83 12.5012 185.219 11.2161 182.483 11.2161C176.514 11.1746 171.829 14.8642 171.829 21.9117C171.829 29.0835 176.306 32.8146 182.358 32.7731C184.638 32.7317 187.83 31.5709 188.991 29.1665L189.24 32.1513H194.007V11.7135H189.157L188.991 14.5325ZM182.939 15.7348C190.898 15.7348 190.898 28.1301 182.939 28.1301C179.581 28.1301 176.887 25.8085 176.887 21.9117C176.887 18.0148 179.581 15.7348 182.939 15.7348ZM209.606 27.757C206.165 27.757 203.802 25.1452 203.802 21.9531C203.802 18.761 205.958 16.1493 209.606 16.1493C213.254 16.1493 215.409 18.761 215.409 21.9531C215.409 25.1452 213.046 27.757 209.606 27.757ZM203.346 40.6912V29.7468C204.797 31.9855 207.989 32.6487 210.145 32.6487C216.694 32.6487 220.467 27.9228 220.467 21.9531C220.467 15.942 216.28 11.2575 209.979 11.2575C207.658 11.2575 204.922 12.2525 203.346 14.5325L203.015 11.7135H198.289V40.6912H203.346ZM224.073 29.5396C224.073 33.4779 230.042 33.4779 230.042 29.5396C230.042 25.6013 224.073 25.6013 224.073 29.5396ZM246.848 27.757C243.408 27.757 241.045 25.1452 241.045 21.9531C241.045 18.761 243.2 16.1493 246.848 16.1493C250.496 16.1493 252.652 18.761 252.652 21.9531C252.652 25.1452 250.289 27.757 246.848 27.757ZM240.589 40.6912V29.7468C242.04 31.9855 245.232 32.6487 247.387 32.6487C253.937 32.6487 257.709 27.9228 257.709 21.9531C257.709 15.942 253.522 11.2575 247.221 11.2575C244.9 11.2575 242.164 12.2525 240.589 14.5325L240.257 11.7135H235.532V40.6912H240.589ZM261.44 11.7135V32.1513H266.497V21.3728C266.497 17.6003 268.943 16.1908 271.596 16.1908C273.254 16.1908 274.207 16.6468 275.244 17.5174L277.524 13.123C276.404 12.0037 274.373 11.1746 272.259 11.1746C270.186 11.1746 268.072 11.5477 266.497 14.0765L266.124 11.7135H261.44ZM289.032 11.299C282.524 11.299 278.461 16.1079 278.461 21.9531C278.461 27.8399 282.441 32.6073 289.073 32.6073C295.706 32.6073 299.727 27.8399 299.727 21.9531C299.727 16.1079 295.54 11.299 289.032 11.299ZM289.073 15.9006C292.472 15.9006 294.628 18.8854 294.628 21.9531C294.628 25.0623 292.762 27.9642 289.073 27.9642C285.384 27.9642 283.518 25.0623 283.518 21.9531C283.518 18.8854 285.425 15.9006 289.073 15.9006Z" fill="white"/>
<path fill-rule="evenodd" clip-rule="evenodd" d="M24.9947 17.8007H32.1692L33.7636 0.261719H9.05116C6.72549 0.261719 4.49508 1.18565 2.85059 2.83025C1.20609 4.47485 0.282227 6.70541 0.282227 9.03123C0.282227 11.357 1.20609 13.5876 2.85059 15.2322C4.49508 16.8768 6.72549 17.8007 9.05116 17.8007H24.9947ZM1.87658 41.7176H24.9947C26.1462 41.7176 27.2865 41.4908 28.3504 41.05C29.4143 40.6093 30.381 39.9634 31.1952 39.1491C32.0095 38.3347 32.6554 37.368 33.0961 36.304C33.5368 35.2401 33.7636 34.0997 33.7636 32.9481C33.7636 31.7964 33.5368 30.6561 33.0961 29.5921C32.6554 28.5282 32.0095 27.5614 31.1952 26.7471C30.381 25.9328 29.4143 25.2868 28.3504 24.8461C27.2865 24.4054 26.1462 24.1786 24.9947 24.1786H1.87658L0.282227 41.7176H1.87658Z" fill="#FFAD00"/>
</g>
<defs>
<clipPath id="clip0_30630_104831">
<rect width="300" height="41.9806" fill="white"/>
</clipPath>
</defs>
</svg>
