<svg width="147" height="26" viewBox="0 0 147 26" fill="none" xmlns="http://www.w3.org/2000/svg">
<path d="M0.231282 26C0.149252 26 0.0734426 25.9549 0.0318445 25.8825C-0.00975366 25.8084 -0.0105312 25.7187 0.0291231 25.6442L9.19004 8.60141C9.23047 8.52615 9.30706 8.47866 9.39026 8.47826H9.3922C9.47462 8.47826 9.55121 8.52374 9.59242 8.59819L12.7442 14.2485C12.7846 14.3218 12.7854 14.4107 12.7457 14.4844L9.75959 20.0373H15.8387C15.9215 20.0373 15.9981 20.082 16.0393 20.1569L19.0904 25.6281C19.132 25.7022 19.132 25.7931 19.0904 25.8668C19.0496 25.9416 18.973 25.9867 18.8906 25.9867L0.231282 26Z" fill="#0059AA"/>
<path d="M21.5126 25.8787C21.5538 25.954 21.631 26 21.7142 26L27.7852 25.9967C27.868 25.9967 27.9452 25.9508 27.9872 25.8755C28.0287 25.8006 28.0287 25.7082 27.9872 25.6338L13.7965 0.121269C13.7549 0.0463916 13.6777 0 13.5946 0H13.5926C13.5087 0.00122083 13.4318 0.0484259 13.3907 0.124931L10.4098 5.68377C10.3698 5.75824 10.3706 5.84818 10.4118 5.92224L21.5126 25.8787Z" fill="#15B1E7"/>
<path d="M30.0982 25.8787C30.1394 25.954 30.2166 26 30.3001 26L36.3704 25.9967C36.4543 25.9967 36.5315 25.9508 36.5731 25.8755C36.6147 25.8006 36.6147 25.7082 36.5731 25.6338L22.3816 0.121269C22.3405 0.0463916 22.2632 0 22.1801 0H22.1781C22.0946 0.00122083 22.0174 0.0484259 21.9762 0.124931L18.9958 5.68377C18.9558 5.75824 18.9566 5.84818 18.9977 5.92224L30.0982 25.8787Z" fill="#15B1E7"/>
<path d="M76.8551 20.2929C76.5827 20.2929 76.3612 20.1278 76.3612 19.9266V10.293L66.2301 20.1489C66.1368 20.2386 65.9919 20.2929 65.8374 20.2929H63.1276C62.8545 20.2929 62.6337 20.1278 62.6337 19.9266V6.01924C62.6337 5.81576 62.8545 5.65222 63.1276 5.65222H65.8374C66.1106 5.65222 66.3313 5.81576 66.3313 6.01924V15.6528L76.4632 5.79767C76.5564 5.70648 76.7014 5.65222 76.8551 5.65222H79.5664C79.8395 5.65222 80.0602 5.81576 80.0602 6.01924V19.9266C80.0602 20.1278 79.8395 20.2929 79.5664 20.2929H76.8551Z" fill="#0059AA"/>
<path d="M43.654 20.2929C43.3801 20.2929 43.1602 20.1278 43.1602 19.9266V6.01924C43.1602 5.81576 43.3801 5.65222 43.654 5.65222H59.1101C59.2755 5.65222 59.4292 5.71477 59.521 5.81576C59.6127 5.91825 59.6295 6.04938 59.5647 6.16092L58.4064 8.21228C58.33 8.34793 58.15 8.43611 57.9512 8.43611H46.8577V17.5271H59.1138C59.3862 17.5271 59.6076 17.6906 59.6076 17.8933C59.6076 17.9431 59.5945 18.0071 59.5698 18.0516L58.4297 20.0683C58.3533 20.2039 58.1733 20.2929 57.9752 20.2929H43.654Z" fill="#0059AA"/>
<path d="M101.072 20.2929C100.8 20.2929 100.578 20.1278 100.578 19.9266V11.373L95.0521 16.2828C94.9574 16.3665 94.819 16.4155 94.6726 16.4155H94.6718C94.5254 16.4155 94.3848 16.3665 94.2916 16.2828L88.8166 11.3805V19.9266C88.8166 20.1278 88.5959 20.2929 88.3227 20.2929H85.6377C85.3645 20.2929 85.1446 20.1278 85.1446 19.9266V8.11054L83.0736 6.25361C82.9512 6.14509 82.925 5.99286 83.008 5.86399C83.0889 5.73587 83.263 5.65222 83.4538 5.65222H86.9926C87.1398 5.65222 87.2782 5.70121 87.3714 5.78486L94.6507 12.2713L102.025 5.78335C102.12 5.70121 102.257 5.65222 102.403 5.65222H105.941C106.133 5.65222 106.307 5.73587 106.388 5.86399C106.47 5.99286 106.443 6.14509 106.323 6.25361L104.252 8.11054V19.9266C104.252 20.1278 104.031 20.2929 103.758 20.2929H101.072Z" fill="#15B1E7"/>
<path d="M140.501 17.5271L135.952 9.25982L131.367 17.5271H140.501ZM125.3 20.2929C125.135 20.2929 124.982 20.2311 124.89 20.1301C124.799 20.0253 124.782 19.8972 124.846 19.7842L125.993 17.7531C126.071 17.6152 126.25 17.5271 126.449 17.5271H127.311L133.891 5.87755C133.969 5.7404 134.149 5.65222 134.347 5.65222H137.585C137.785 5.65222 137.966 5.7419 138.042 5.88132L144.516 17.5271H145.376C145.576 17.5271 145.756 17.6175 145.833 17.7547L146.962 19.7857C147.026 19.8987 147.008 20.0268 146.915 20.1301C146.825 20.2311 146.669 20.2929 146.507 20.2929H125.3Z" fill="#15B1E7"/>
<path d="M109.83 20.2929C109.556 20.2929 109.335 20.1278 109.335 19.9266V6.01924C109.335 5.81576 109.556 5.65222 109.83 5.65222H123.005C123.278 5.65222 123.499 5.81576 123.499 6.01924V8.06984C123.499 8.27332 123.278 8.43611 123.005 8.43611H113.058V11.3767H120.194C120.468 11.3767 120.688 11.5403 120.688 11.743V13.8102C120.688 14.0137 120.468 14.1795 120.194 14.1795H113.058V17.5271H123.411C123.686 17.5271 123.907 17.6906 123.907 17.8933C123.907 17.9431 123.893 18.0131 123.868 18.0569L122.732 20.0683C122.655 20.2039 122.475 20.2929 122.276 20.2929H109.83Z" fill="#15B1E7"/>
</svg>
