<?xml version="1.0" encoding="UTF-8"?> <svg xmlns="http://www.w3.org/2000/svg" width="160" height="24" viewBox="0 0 160 24" fill="none"> <path d="M8.62079 20.3863C5.9009 20.3338 3.21671 19.7134 0.718662 18.5597L0 21.4126C2.69965 22.6059 5.58999 23.2263 8.51047 23.2391C10.8745 23.2391 12.7878 22.6618 14.1841 21.5511C15.5805 20.4403 16.3401 18.7522 16.3401 16.6049C16.3401 14.5792 15.7097 13.1747 14.2755 12.2463C12.8414 11.3178 11.4387 10.8012 8.91708 10.2577C7.0038 9.84241 5.65789 9.40351 4.87934 8.94434C4.5189 8.74625 4.21917 8.44144 4.01577 8.06617C3.81238 7.6909 3.71388 7.26096 3.732 6.82747C3.732 4.61607 5.40888 3.40064 8.07234 3.40064C10.0171 3.40064 12.3213 3.81591 14.9847 4.68021L15.7318 1.97926C13.3039 1.05296 10.7442 0.585718 8.1669 0.598396C5.93842 0.625405 4.12915 1.18585 2.75487 2.34051C2.09828 2.875 1.57078 3.57018 1.21651 4.36786C0.86225 5.16554 0.691536 6.04252 0.718662 6.92538C0.718662 8.62248 1.19777 9.90431 2.15599 10.7709C3.14257 11.6385 4.75956 12.3104 7.06369 12.8236L7.6941 12.9485C9.51912 13.3368 10.3859 13.5292 11.6121 14.1302C12.8981 14.6737 13.4686 15.6056 13.4686 16.8885C13.4686 19.1607 11.5774 20.3795 8.62079 20.3795" fill="white"></path> <path d="M27.3407 0.964111H24.4976V22.7608H27.3407V0.964111Z" fill="white"></path> <path d="M55.8602 22.7608H58.6434L57.474 0.964111H54.7538L47.0912 19.074L39.4287 0.964111H36.7085L35.5391 22.7608H38.3223L39.1923 7.72662L45.8052 22.7608H48.3457L54.9902 7.72662L55.8602 22.7608Z" fill="white"></path> <path d="M104.099 3.78661H111.818V0.964111H93.5049V3.78661H101.256V22.7608H104.099V3.78661Z" fill="white"></path> <path d="M130.831 22.7599H134.273L128.647 14.522C131.398 13.4011 133.059 11.0276 133.059 7.91815C133.059 3.33328 129.945 0.770752 125.038 0.770752C122.677 0.770752 120.341 0.8349 117.977 0.963195V22.7599H120.814V15.2918H124.281C124.968 15.2918 125.476 15.2918 125.807 15.258L130.831 22.7599ZM120.808 12.5672V3.62363C122.363 3.56061 123.799 3.52798 125.116 3.52572C128.268 3.52572 130.232 5.00112 130.232 7.91477C130.232 10.7373 128.199 12.5638 125.324 12.5638L120.808 12.5672Z" fill="white"></path> <path d="M86.8385 1.84897C80.4157 0.195851 73.7187 0.195851 67.2959 1.84897C67.5071 2.7943 67.7183 3.73625 67.9263 4.68158C73.9276 3.13864 80.1847 3.13864 86.186 4.68158L86.8164 1.84897" fill="#6F80FF"></path> <path d="M86.8375 1.84885C80.4147 0.195727 73.7177 0.195727 67.2949 1.84885C67.5061 2.79419 67.7173 3.73615 67.9253 4.68148C73.9267 3.13853 80.1837 3.13853 86.185 4.68148L86.8375 1.84885Z" stroke="#6F80FF" stroke-width="0.34" stroke-miterlimit="10"></path> <path d="M86.2016 10.4062H67.9419V13.3199H86.2016V10.4062Z" fill="#6F80FF"></path> <path d="M86.2016 10.4061H67.9419V13.3198H86.2016V10.4061Z" stroke="#6F80FF" stroke-width="0.34" stroke-miterlimit="10"></path> <path d="M86.2045 19.0427C80.2032 20.5857 73.9462 20.5857 67.9449 19.0427C67.7337 19.9881 67.5193 20.93 67.3145 21.8753C73.7373 23.5279 80.4342 23.5279 86.857 21.8753C86.6427 20.93 86.4315 19.9881 86.2266 19.0427" fill="#6F80FF"></path> <path d="M86.2045 19.0427C80.2032 20.5857 73.9462 20.5857 67.9449 19.0427C67.7337 19.9881 67.5193 20.93 67.3145 21.8754C73.7373 23.528 80.4342 23.528 86.857 21.8754C86.6301 20.93 86.4157 19.9881 86.2045 19.0427Z" stroke="#6F80FF" stroke-width="0.34" stroke-miterlimit="10"></path> <path d="M156.801 22.7612H160L150.755 0.836182H148.06L138.812 22.7612H142.014L143.947 18.0615C147.525 17.1421 151.252 17.1179 154.84 17.9906L156.801 22.7612ZM145.296 14.7798L149.393 4.77957L153.491 14.7292C150.773 14.2927 148.009 14.3098 145.296 14.7798Z" fill="white"></path> </svg> 