<svg width="182" height="56" viewBox="0 0 182 56" fill="none" xmlns="http://www.w3.org/2000/svg">
<g clip-path="url(#clip0_30425_24506)">
<path d="M71.5518 36.1572H77.2833C77.3135 37.4714 77.5689 38.4271 78.0503 39.0244C78.4416 39.5919 79.1332 39.8756 80.126 39.8756C81.1794 39.8756 81.9313 39.5471 82.3824 38.89C82.8342 38.2628 83.0594 37.322 83.0594 36.0676C83.0594 34.7834 82.8493 33.8127 82.4277 33.1556C82.0068 32.4986 81.1491 32.0207 79.8555 31.7221L78.682 31.4085C77.2078 30.9903 76.0796 30.5125 75.2975 29.9749C74.3945 29.4074 73.703 28.7205 73.2217 27.9141C72.7101 27.0778 72.3641 26.137 72.1835 25.0917C72.0029 24.0762 71.9129 22.8666 71.9129 21.4629C71.9129 18.5658 72.6346 16.3856 74.0787 14.9221C75.5234 13.4885 77.6142 12.7717 80.3519 12.7717C83.0292 12.7717 85.0452 13.4437 86.3993 14.7877C87.7829 16.1914 88.5355 18.4464 88.6557 21.5525H82.8789C82.8493 20.328 82.6385 19.432 82.2471 18.8645C81.886 18.3269 81.2542 18.0581 80.3519 18.0581C79.4792 18.0581 78.8324 18.3269 78.4114 18.8645C77.9899 19.4618 77.7797 20.313 77.7797 21.4181C77.7797 22.0752 77.8244 22.6277 77.915 23.0757C77.9452 23.4938 78.0805 23.8672 78.3208 24.1957C78.5316 24.4944 78.8324 24.7482 79.2238 24.9573C79.5849 25.1664 80.0958 25.3605 80.7578 25.5397L81.8413 25.8533C83.3451 26.3013 84.3984 26.6746 84.9999 26.9733C85.782 27.3317 86.4144 27.7946 86.8958 28.3621C87.6175 29.0789 88.1441 30.0794 88.4751 31.3637C88.7456 32.618 88.8809 34.0964 88.8809 35.7988C88.8809 37.5311 88.6859 38.9796 88.2945 40.1444C87.8736 41.3988 87.3016 42.3844 86.5799 43.1012C85.7676 43.9076 84.8647 44.4601 83.8718 44.7588C82.7889 45.1172 81.5701 45.2964 80.2167 45.2964C77.4487 45.2964 75.3428 44.5348 73.8987 43.0116C72.4245 41.5481 71.6417 39.2634 71.5518 36.1572Z" fill="#E8E8E8"/>
<path d="M98.0786 44.9828H92.1665V13.0853H98.0786V44.9828Z" fill="#E8E8E8"/>
<path d="M108.072 44.9828H102.521V13.0853H108.072L113.442 30.5125L118.812 13.0853H124.319V44.9828H118.768V29.6165L118.858 26.3461L118.226 29.0789L115.247 38.8452H111.638L108.614 29.0789L107.982 26.3461L108.072 29.6165V44.9828Z" fill="#E8E8E8"/>
<path d="M128.655 44.9828V13.0853H137.546C140.254 13.0853 142.36 13.817 143.864 15.2805C145.398 16.7738 146.166 19.1781 146.166 22.4933V23.6133C146.166 26.8986 145.413 29.2879 143.909 30.7813C142.435 32.2447 140.314 32.9765 137.546 32.9765H134.567V44.9828H128.655ZM136.959 18.4165H134.567V27.6453H136.959C138.193 27.6453 139.05 27.3167 139.531 26.6597C140.013 26.0624 140.254 24.9573 140.254 23.3445V22.7621C140.254 21.1792 140.013 20.0592 139.531 19.4021C139.05 18.745 138.193 18.4165 136.959 18.4165Z" fill="#E8E8E8"/>
<path d="M164.532 44.9828H149.369V13.0853H155.281V39.562H164.532V44.9828Z" fill="#E8E8E8"/>
<path d="M166.95 13.0853H181.843V18.5061H172.862V26.2117H180.444V31.5877H172.862V39.562H181.843V44.9828H166.95V13.0853Z" fill="#E8E8E8"/>
<path d="M41.6252 27.9998C41.6252 35.525 35.5248 41.6253 27.9998 41.6253C20.4746 41.6253 14.3743 35.525 14.3743 27.9998C14.3743 20.4747 20.4746 14.3744 27.9998 14.3744C35.5248 14.3744 41.6252 20.4747 41.6252 27.9998Z" fill="url(#paint0_linear_30425_24506)"/>
<mask id="mask0_30425_24506" style="mask-type:alpha" maskUnits="userSpaceOnUse" x="0" y="0" width="56" height="56">
<path fill-rule="evenodd" clip-rule="evenodd" d="M28 7.13207C25.2596 7.13207 22.546 7.67181 20.0142 8.72052C17.4824 9.76923 15.1819 11.3064 13.2441 13.2441C11.3064 15.1819 9.76929 17.4824 8.72052 20.0142C7.67181 22.546 7.13207 25.2596 7.13207 28C7.13207 30.7404 7.67181 33.454 8.72052 35.9858C9.76923 38.5176 11.3064 40.8181 13.2441 42.7559C15.1819 44.6936 17.4824 46.2307 20.0142 47.2794C22.546 48.3282 25.2596 48.8679 28 48.8679C30.7404 48.8679 33.454 48.3282 35.9858 47.2794C38.5176 46.2307 40.8181 44.6936 42.7559 42.7559C44.6936 40.8181 46.2307 38.5176 47.2794 35.9858C48.3282 33.454 48.8679 30.7404 48.8679 28C48.8679 25.2596 48.3282 22.546 47.2794 20.0142C46.2308 17.4824 44.6936 15.1819 42.7559 13.2441C40.8181 11.3064 38.5176 9.76929 35.9858 8.72058C33.454 7.67181 30.7404 7.13207 28 7.13207ZM17.2849 2.13137C20.682 0.724237 24.323 -4.82181e-07 28 0C31.677 4.82183e-07 35.318 0.724244 38.7151 2.13137C42.1123 3.53851 45.1989 5.60097 47.799 8.20104C50.3991 10.8011 52.4615 13.8877 53.8686 17.2849C55.2758 20.682 56 24.323 56 28C56 31.677 55.2758 35.318 53.8686 38.7151C52.4615 42.1123 50.3991 45.1989 47.799 47.799C45.1989 50.3991 42.1123 52.4615 38.7151 53.8686C35.318 55.2758 31.677 56 28 56C24.323 56 20.682 55.2758 17.2849 53.8686C13.8877 52.4615 10.8011 50.3991 8.20098 47.799C5.60097 45.1989 3.5385 42.1123 2.13137 38.7151C0.724244 35.318 -3.21454e-07 31.677 0 28C3.21455e-07 24.323 0.724244 20.682 2.13137 17.2849C3.53851 13.8877 5.60097 10.8011 8.20104 8.20098C10.8011 5.60097 13.8877 3.5385 17.2849 2.13137Z" fill="url(#paint1_linear_30425_24506)"/>
</mask>
<g mask="url(#mask0_30425_24506)">
<path fill-rule="evenodd" clip-rule="evenodd" d="M43.4304 13.9513C41.4366 11.7614 38.9996 10.021 36.2812 8.84572L39.1116 2.29932C42.759 3.87626 46.029 6.21148 48.7041 9.14975C51.3794 12.0881 53.3985 15.5621 54.6274 19.3411C55.8562 23.1199 56.2667 27.1171 55.8315 31.067C55.3963 35.0167 54.1252 38.8286 52.103 42.2493L45.9636 38.6198C47.4707 36.0704 48.4179 33.2295 48.7423 30.2858C49.0667 27.3421 48.7608 24.363 47.8449 21.5466C46.9291 18.7303 45.4242 16.1411 43.4304 13.9513Z" fill="url(#paint2_linear_30425_24506)"/>
<g filter="url(#filter0_d_30425_24506)">
<path fill-rule="evenodd" clip-rule="evenodd" d="M30.7598 7.31536C28.0435 6.95293 25.2824 7.12911 22.6341 7.83377C19.9858 8.53843 17.5023 9.75778 15.3252 11.4223C13.1482 13.0868 11.3204 15.1637 9.94604 17.5346C8.57171 19.9055 7.67779 22.5238 7.31536 25.2402C6.95293 27.9565 7.12911 30.7176 7.83377 33.3659C8.53843 36.0142 9.75778 38.4977 11.4223 40.6748C13.0868 42.8518 15.1637 44.6796 17.5346 46.054C19.2385 47.0416 19.8191 49.2236 18.8314 50.9275C17.8437 52.6314 15.6617 53.212 13.9578 52.2243C10.7767 50.3802 7.98982 47.9277 5.75648 45.0066C3.52314 42.0856 1.887 38.7533 0.941505 35.1998C-0.00399141 31.6465 -0.240343 27.9417 0.245948 24.297C0.732235 20.6522 1.93165 17.139 3.77569 13.9578C5.61974 10.7767 8.07231 7.98982 10.9934 5.75648C13.9144 3.52314 17.2468 1.887 20.8002 0.941505C24.3535 -0.00399156 28.0583 -0.240343 31.703 0.245948C35.3478 0.732235 38.861 1.93165 42.0422 3.77569C43.7461 4.76339 44.3266 6.94538 43.339 8.64923C42.3513 10.3531 40.1693 10.9337 38.4654 9.94604C36.0945 8.57171 33.4762 7.67779 30.7598 7.31536Z" fill="url(#paint3_linear_30425_24506)"/>
</g>
<g filter="url(#filter1_d_30425_24506)">
<path fill-rule="evenodd" clip-rule="evenodd" d="M33.4459 48.1448C38.7089 46.722 43.2062 43.296 45.9754 38.5997L52.1189 42.2224C48.4032 48.5237 42.3689 53.1207 35.3072 55.0298C28.2454 56.9388 20.7169 56.0084 14.3323 52.4376C12.6134 51.4762 11.9993 49.3035 12.9607 47.5846C13.922 45.8657 16.0948 45.2516 17.8137 46.2129C22.572 48.8742 28.1829 49.5676 33.4459 48.1448Z" fill="url(#paint4_linear_30425_24506)"/>
</g>
<path fill-rule="evenodd" clip-rule="evenodd" d="M44.6536 40.5747C47.1546 37.2624 48.6111 33.2796 48.837 29.1354L55.9585 29.5235C55.6554 35.0842 53.7011 40.4282 50.3453 44.8724L44.6536 40.5747Z" fill="url(#paint5_linear_30425_24506)"/>
</g>
</g>
<defs>
<filter id="filter0_d_30425_24506" x="-10.0674" y="-12.5843" width="84.09" height="92.9755" filterUnits="userSpaceOnUse" color-interpolation-filters="sRGB">
<feFlood flood-opacity="0" result="BackgroundImageFix"/>
<feColorMatrix in="SourceAlpha" type="matrix" values="0 0 0 0 0 0 0 0 0 0 0 0 0 0 0 0 0 0 127 0" result="hardAlpha"/>
<feOffset dx="10.0674" dy="7.55056"/>
<feGaussianBlur stdDeviation="10.0674"/>
<feColorMatrix type="matrix" values="0 0 0 0 0 0 0 0 0 0 0 0 0 0 0 0 0 0 0.41 0"/>
<feBlend mode="normal" in2="BackgroundImageFix" result="effect1_dropShadow_30425_24506"/>
<feBlend mode="normal" in="SourceGraphic" in2="effect1_dropShadow_30425_24506" result="shape"/>
</filter>
<filter id="filter1_d_30425_24506" x="9.98949" y="31.0492" width="59.7474" height="37.5352" filterUnits="userSpaceOnUse" color-interpolation-filters="sRGB">
<feFlood flood-opacity="0" result="BackgroundImageFix"/>
<feColorMatrix in="SourceAlpha" type="matrix" values="0 0 0 0 0 0 0 0 0 0 0 0 0 0 0 0 0 0 127 0" result="hardAlpha"/>
<feOffset dx="7.55056" dy="2.51685"/>
<feGaussianBlur stdDeviation="5.03371"/>
<feColorMatrix type="matrix" values="0 0 0 0 0 0 0 0 0 0 0 0 0 0 0 0 0 0 0.24 0"/>
<feBlend mode="normal" in2="BackgroundImageFix" result="effect1_dropShadow_30425_24506"/>
<feBlend mode="normal" in="SourceGraphic" in2="effect1_dropShadow_30425_24506" result="shape"/>
</filter>
<linearGradient id="paint0_linear_30425_24506" x1="27.9998" y1="14.3744" x2="27.9998" y2="41.6252" gradientUnits="userSpaceOnUse">
<stop stop-color="#E8E8E8"/>
<stop offset="1" stop-color="#E8E8E8"/>
</linearGradient>
<linearGradient id="paint1_linear_30425_24506" x1="28" y1="8.34463e-07" x2="28" y2="56" gradientUnits="userSpaceOnUse">
<stop stop-color="#9D85F8"/>
<stop offset="1" stop-color="#5A5EC7"/>
</linearGradient>
<linearGradient id="paint2_linear_30425_24506" x1="46.1406" y1="2.29932" x2="46.1406" y2="42.2493" gradientUnits="userSpaceOnUse">
<stop stop-color="#E8E8E8"/>
<stop offset="1" stop-color="#E8E8E8"/>
</linearGradient>
<linearGradient id="paint3_linear_30425_24506" x1="21.9102" y1="7.45553e-07" x2="21.9102" y2="52.7058" gradientUnits="userSpaceOnUse">
<stop stop-color="#E8E8E8"/>
<stop offset="1" stop-color="#E8E8E8"/>
</linearGradient>
<linearGradient id="paint4_linear_30425_24506" x1="33.0336" y1="38.6967" x2="32.3126" y2="56.0001" gradientUnits="userSpaceOnUse">
<stop stop-color="#E8E8E8"/>
<stop offset="1" stop-color="#E8E8E8"/>
</linearGradient>
<linearGradient id="paint5_linear_30425_24506" x1="49.6087" y1="28.6084" x2="47.4783" y2="42.6084" gradientUnits="userSpaceOnUse">
<stop stop-color="#E8E8E8"/>
<stop offset="1" stop-color="#E8E8E8"/>
</linearGradient>
<clipPath id="clip0_30425_24506">
<rect width="181.843" height="56" fill="white"/>
</clipPath>
</defs>
</svg>
