<svg width="107" height="18" viewBox="0 0 107 18" fill="none" xmlns="http://www.w3.org/2000/svg">
<g clip-path="url(#clip0_30824_104716)">
<g clip-path="url(#clip1_30824_104716)">
<path d="M13.7303 9.19951V1.60804C13.7303 0.781306 13.0601 0.111084 12.2333 0.111084H1.49699C0.670224 0.111084 0 0.781306 0 1.60804V9.19951C0 9.73526 0.286323 10.2302 0.750784 10.4972L6.11893 13.5839C6.58093 13.8496 7.14937 13.8496 7.61138 13.5839L12.9795 10.4972C13.444 10.2302 13.7303 9.73526 13.7303 9.19951Z" fill="#00C2F2"/>
<path d="M18.4419 6.30865C18.3288 6.19551 18.1592 6.05407 17.8766 5.8844C17.5938 5.71465 17.2829 5.54491 16.8871 5.37524C16.4914 5.2055 16.0674 5.06406 15.6151 4.95092C15.1628 4.83778 14.7105 4.78118 14.2299 4.78118C13.3819 4.78118 12.76 4.92262 12.3642 5.2338C11.9402 5.54491 11.7423 5.96923 11.7423 6.53499C11.7423 6.8461 11.8271 7.12898 11.9684 7.32703C12.1098 7.5533 12.3359 7.72305 12.6469 7.89272C12.9296 8.06246 13.2971 8.2039 13.7493 8.34534C14.2017 8.48678 14.7105 8.62822 15.3041 8.76966C16.0674 8.96763 16.7458 9.19391 17.396 9.42025C18.0179 9.64653 18.555 9.95771 18.979 10.2971C19.403 10.6365 19.7422 11.0609 19.9684 11.57C20.1945 12.0509 20.3076 12.6732 20.3076 13.3804C20.3076 14.229 20.138 14.9362 19.8271 15.5302C19.5161 16.1243 19.0921 16.6051 18.555 16.9728C18.0179 17.3405 17.396 17.5952 16.7175 17.7649C16.0108 17.9346 15.3041 18.0194 14.5409 18.0194C13.3536 18.0194 12.2229 17.8498 11.0639 17.482C9.90487 17.1143 8.88727 16.6334 7.98267 15.9828L9.31123 13.3521C9.4526 13.4936 9.67874 13.6632 10.0179 13.8613C10.3572 14.0876 10.7812 14.2856 11.2335 14.5119C11.7141 14.7382 12.2229 14.9079 12.7883 15.0493C13.3536 15.1908 13.9473 15.2756 14.5409 15.2756C16.2087 15.2756 17.0567 14.7382 17.0567 13.6632C17.0567 13.3238 16.972 13.0409 16.7741 12.8147C16.5762 12.5884 16.3218 12.3621 15.9543 12.1924C15.5868 12.0226 15.1628 11.8529 14.6823 11.7115C14.1734 11.57 13.6363 11.4003 13.0144 11.2306C12.2794 11.0326 11.6292 10.8063 11.0639 10.5517C10.5268 10.2971 10.0462 10.0142 9.67874 9.70313C9.31123 9.36365 9.02857 8.99593 8.85897 8.57161C8.68937 8.14729 8.5763 7.60991 8.5763 7.01585C8.5763 6.22381 8.7176 5.51661 9.02857 4.89432C9.31123 4.27202 9.73527 3.76287 10.2441 3.36685C10.7529 2.94253 11.3748 2.63135 12.0533 2.43337C12.7317 2.2071 13.495 2.12219 14.2865 2.12219C15.389 2.12219 16.4066 2.29193 17.3112 2.63135C18.244 2.97083 19.0355 3.39515 19.7422 3.8477L18.4419 6.30865Z" fill="white"/>
<path d="M38.9073 17.8477H35.9674V11.37C35.9674 10.4365 35.7978 9.75764 35.4869 9.33332C35.1759 8.90907 34.7236 8.68272 34.1865 8.68272C33.5929 8.68272 33.0558 8.90907 32.547 9.36162C32.0381 9.81424 31.6707 10.3799 31.4446 11.1154V17.8194H28.5046V11.37C28.5046 10.4365 28.335 9.75764 28.024 9.33332C27.7131 8.90907 27.2608 8.68272 26.7237 8.68272C26.1584 8.68272 25.593 8.90907 25.0842 9.33332C24.5754 9.78594 24.1796 10.3517 23.9817 11.0588V17.7911H21.0135V6.30662H23.6708V8.42815C24.0948 7.69271 24.6884 7.09865 25.4234 6.70263C26.1584 6.30662 27.0064 6.10864 27.9675 6.10864C28.9286 6.10864 29.6919 6.33492 30.2007 6.81577C30.7378 7.2967 31.077 7.86239 31.2183 8.54128C31.6989 7.74925 32.2926 7.15526 32.9993 6.73094C33.706 6.30662 34.5257 6.10864 35.4586 6.10864C36.1653 6.10864 36.7307 6.25008 37.1829 6.50466C37.6353 6.75924 38.0028 7.12695 38.2289 7.55127C38.4833 7.97559 38.6529 8.45645 38.7377 8.99391C38.8225 9.53136 38.8791 10.0971 38.8791 10.6345V17.8477H38.9073Z" fill="white"/>
<path d="M47.2189 17.8495V16.2372C46.7666 16.8595 46.2295 17.3121 45.551 17.6232C44.8726 17.9344 44.1376 18.0758 43.3179 18.0758C42.7525 18.0758 42.2437 17.991 41.7631 17.7929C41.2825 17.6232 40.8586 17.3403 40.5193 17.0292C40.1801 16.6897 39.8974 16.322 39.6995 15.8694C39.5016 15.4168 39.3885 14.936 39.3885 14.4268C39.3885 13.8327 39.5299 13.3236 39.7844 12.8427C40.0387 12.3901 40.4062 11.9941 40.8585 11.6547C41.3108 11.3435 41.8196 11.0889 42.4133 10.9192C43.0069 10.7495 43.6288 10.6646 44.279 10.6646C44.9009 10.6646 45.438 10.7212 45.9185 10.806C46.3991 10.9192 46.7948 11.0323 47.0775 11.1455V10.4949C47.0775 9.75943 46.8514 9.16544 46.4273 8.74112C46.0033 8.3168 45.3532 8.11883 44.5051 8.11883C43.8832 8.11883 43.2896 8.23197 42.6959 8.45824C42.1023 8.68452 41.5087 8.9957 40.8868 9.42002L39.9822 7.55307C40.6889 7.07222 41.4239 6.73273 42.2437 6.44985C43.0352 6.19527 43.8832 6.05383 44.7878 6.05383C46.4839 6.05383 47.756 6.47815 48.6606 7.29849C49.5651 8.11883 50.0175 9.30688 50.0175 10.806V17.7929H47.2189V17.8495ZM46.6252 14.936C46.9362 14.6814 47.1058 14.3985 47.1058 14.0873V12.7578C46.7383 12.6164 46.3426 12.5033 45.9468 12.4184C45.5228 12.3336 45.1553 12.3053 44.7878 12.3053C44.4768 12.3053 44.1376 12.3336 43.8267 12.4184C43.5158 12.5033 43.233 12.6164 42.9787 12.7578C42.7242 12.8993 42.5546 13.0973 42.385 13.3236C42.2437 13.5499 42.1589 13.8327 42.1589 14.1156C42.1589 14.6248 42.3567 15.0491 42.7525 15.3603C43.1483 15.6714 43.6005 15.8411 44.1376 15.8411C44.5899 15.8411 45.0422 15.7563 45.4945 15.6149C45.9468 15.4734 46.3426 15.2754 46.6252 14.936Z" fill="white"/>
<path d="M58.1303 8.88274C57.2258 8.91104 56.4342 9.08071 55.7275 9.39189C55.0208 9.73131 54.512 10.2122 54.2011 10.8911V17.8779H51.2611V6.30859H53.9749V8.7696C54.1728 8.37358 54.4272 8.0058 54.7099 7.69468C54.9925 7.3835 55.2752 7.10062 55.6145 6.87435C55.9254 6.64807 56.2646 6.45003 56.6038 6.33689C56.943 6.22375 57.254 6.13892 57.565 6.13892C57.7346 6.13892 57.8476 6.13892 57.9325 6.13892C58.0172 6.13892 58.1021 6.13892 58.1586 6.16715V8.88274H58.1303Z" fill="white"/>
<path d="M60.7306 17.8487V8.99492H59.0062V6.33593H60.7306V2.57373H63.7553V6.30763H66.4125V8.96662H63.7553V17.8487H60.7306Z" fill="white"/>
<path d="M68.7316 17.8483V2.23389H74.0458C75.2896 2.23389 76.3925 2.43193 77.3248 2.85618C78.2578 3.2805 79.0215 3.81796 79.643 4.52516C80.2652 5.23229 80.7452 6.05263 81.0567 7.0144C81.3674 7.94788 81.5374 8.96619 81.5374 10.0411C81.5374 11.2292 81.3674 12.304 80.9998 13.2658C80.6606 14.2276 80.1522 15.0479 79.5015 15.7267C78.8515 16.4056 78.0601 16.9431 77.1555 17.3108C76.251 17.6786 75.205 17.8766 74.0743 17.8766H68.7316V17.8483ZM79.9822 10.0128C79.9822 9.07933 79.8407 8.20246 79.5868 7.43865C79.3322 6.64669 78.9362 5.96779 78.4277 5.40203C77.9186 4.83627 77.297 4.38372 76.5618 4.07254C75.8272 3.76135 74.9788 3.59168 74.0458 3.59168H70.2863V16.4905H74.0458C75.0073 16.4905 75.8549 16.3208 76.6186 15.9813C77.3532 15.6419 77.9754 15.1893 78.4839 14.6236C78.993 14.0578 79.3607 13.3507 79.6146 12.5869C79.8407 11.7948 79.9822 10.9463 79.9822 10.0128Z" fill="white"/>
<path d="M87.7839 18.076C86.9362 18.076 86.1732 17.9063 85.4948 17.5951C84.7879 17.284 84.1942 16.8596 83.685 16.294C83.1766 15.7565 82.7805 15.1059 82.4982 14.3987C82.2151 13.6915 82.0743 12.8995 82.0743 12.0792C82.0743 11.2589 82.2151 10.5234 82.4982 9.78793C82.7805 9.08073 83.1766 8.45844 83.685 7.92098C84.1942 7.38352 84.7879 6.95927 85.4948 6.64809C86.2009 6.33691 86.9647 6.16724 87.7839 6.16724C88.6322 6.16724 89.3952 6.33691 90.0736 6.64809C90.7805 6.95927 91.3743 7.38352 91.855 7.94928C92.3634 8.48674 92.731 9.10903 93.0141 9.81623C93.2964 10.5234 93.4379 11.2589 93.4379 12.0509C93.4379 12.164 93.4379 12.2772 93.4379 12.3903C93.4379 12.5034 93.4379 12.5884 93.4094 12.6449H83.6004C83.6573 13.2673 83.7981 13.8329 84.0242 14.3421C84.2788 14.8513 84.5895 15.3039 84.9572 15.6999C85.3248 16.0676 85.7771 16.3788 86.2578 16.6051C86.7385 16.8313 87.2754 16.9162 87.8407 16.9162C88.2084 16.9162 88.5753 16.8596 88.943 16.7748C89.3106 16.6617 89.6498 16.5202 89.9606 16.3505C90.272 16.1807 90.5543 15.9545 90.8089 15.6999C91.0635 15.4453 91.2612 15.1624 91.3742 14.8513L92.6749 15.1907C92.5049 15.6151 92.2503 16.0111 91.9396 16.3505C91.6288 16.69 91.2327 17.0011 90.8089 17.2557C90.3851 17.5102 89.9044 17.7083 89.3952 17.8497C88.8868 17.9912 88.3492 18.076 87.7839 18.076ZM92.0242 11.5134C91.968 10.8911 91.8265 10.3254 91.6004 9.81623C91.3458 9.30708 91.0635 8.88276 90.6674 8.51504C90.2998 8.14733 89.8475 7.86445 89.3675 7.6664C88.8868 7.46843 88.3492 7.35529 87.7839 7.35529C87.2185 7.35529 86.7101 7.46843 86.2009 7.6664C85.6925 7.86445 85.2679 8.14733 84.901 8.51504C84.5334 8.88276 84.2226 9.33531 83.9965 9.84453C83.7703 10.3537 83.6288 10.9194 83.6004 11.5134H92.0242Z" fill="white"/>
<path d="M101.749 17.8497V16.0393C101.212 16.7465 100.561 17.2556 99.7696 17.5668C98.9781 17.8779 98.1582 18.0477 97.3105 18.0477C96.7737 18.0477 96.2645 17.9628 95.8122 17.7648C95.36 17.5951 94.9361 17.3405 94.5969 17.0011C94.2577 16.6899 93.9747 16.2939 93.8055 15.8696C93.6071 15.4453 93.5225 14.9644 93.5225 14.4835C93.5225 13.8895 93.664 13.3521 93.9463 12.9278C94.2293 12.4751 94.5969 12.1357 95.0769 11.8528C95.5299 11.57 96.0384 11.372 96.6037 11.2305C97.169 11.0891 97.7344 11.0325 98.2997 11.0325C99.0912 11.0325 99.7696 11.0891 100.363 11.2305C100.957 11.372 101.381 11.4851 101.692 11.6266V10.5799C101.692 9.58987 101.409 8.7696 100.844 8.17554C100.279 7.58155 99.4873 7.27036 98.4697 7.27036C97.8759 7.27036 97.2821 7.3835 96.6883 7.60978C96.0668 7.83612 95.4446 8.17554 94.7946 8.62816L94.2577 7.63808C94.9077 7.21376 95.6145 6.84604 96.3214 6.56316C97.0275 6.28036 97.7913 6.13892 98.5827 6.13892C99.3173 6.13892 99.9957 6.25205 100.561 6.47833C101.126 6.7046 101.607 7.01579 102.003 7.4118C102.399 7.80782 102.682 8.28868 102.879 8.85444C103.077 9.4202 103.19 10.0425 103.19 10.6931V17.7931H101.749V17.8497ZM101.325 15.3322C101.579 15.0493 101.692 14.7664 101.692 14.4835V12.6166C100.646 12.2206 99.6003 12.0226 98.4981 12.0226C98.0736 12.0226 97.6782 12.0791 97.2537 12.164C96.8298 12.2489 96.4622 12.3903 96.123 12.5883C95.7838 12.7863 95.5015 13.0126 95.2753 13.3238C95.0492 13.635 94.9361 14.0027 94.9361 14.427C94.9361 14.823 95.0208 15.1624 95.1623 15.4736C95.3031 15.7847 95.5015 16.0393 95.7561 16.2656C96.0099 16.4919 96.293 16.6617 96.6322 16.7748C96.9714 16.8879 97.3105 16.9728 97.6782 16.9728C98.3566 16.9728 99.035 16.8313 99.7134 16.5767C100.392 16.2939 100.929 15.8696 101.325 15.3322Z" fill="white"/>
<path d="M105.168 1.7821H106.666V17.849H105.168V1.7821Z" fill="white"/>
</g>
</g>
<defs>
<clipPath id="clip0_30824_104716">
<rect width="107" height="18" fill="white"/>
</clipPath>
<clipPath id="clip1_30824_104716">
<rect width="106.667" height="32" fill="white" transform="translate(0 -7)"/>
</clipPath>
</defs>
</svg>
