<svg width="185" height="57" viewBox="0 0 185 57" fill="none" xmlns="http://www.w3.org/2000/svg">
<path d="M46.4009 51.2515C49.4916 51.1398 51.4652 50.544 51.4652 46.932V28.6482V28.611V26.6746C51.4652 23.0625 49.5288 22.4667 46.4009 22.355V19.0781H65.6156V22.355H65.5039C62.4876 22.4667 60.7374 23.0998 60.7374 26.6746V31.5155V31.6272V33.9732H65.8018H67.4402H68.4084H70.0469H75.1112V28.8344V26.6374C75.1112 23.0253 73.3238 22.4295 70.1958 22.3178V19.0408H89.4105V22.3178C86.3198 22.4295 84.3462 23.0253 84.3462 26.6374V30.1749V41.458V46.8575C84.3462 50.4695 86.2826 51.0654 89.4105 51.1771V54.454H70.1958V51.1771C73.2866 51.0654 75.1112 50.4695 75.1112 46.8575V43.8785V39.5216V37.9949H60.7747V42.7613V46.8575C60.7747 50.4695 62.5621 51.0654 65.6901 51.1771V54.454H46.4753V51.2515H46.4009ZM109.147 22.1688C108.141 22.1688 107.285 22.3178 106.54 22.6157C105.795 22.9136 105.199 23.2859 104.641 23.6956C104.119 24.1424 103.673 24.5893 103.3 25.0734C102.928 25.5575 102.63 26.0043 102.444 26.4512C101.922 27.4193 101.476 28.7227 101.066 30.3239C100.656 31.9251 100.433 34.0477 100.433 36.6543C100.433 37.9576 100.545 39.4472 100.805 41.1229C101.066 42.7986 101.513 44.3998 102.146 45.8893C102.816 47.3788 103.71 48.6821 104.827 49.7248C105.944 50.7675 107.396 51.2888 109.147 51.2888C110.971 51.2888 112.424 50.7675 113.578 49.7248C114.732 48.6821 115.626 47.416 116.296 45.8893C116.967 44.3998 117.413 42.7986 117.637 41.1601C117.897 39.5216 118.009 38.0694 118.009 36.8778C118.009 35.8723 117.897 34.5318 117.674 32.8933C117.451 31.2548 117.004 29.6164 116.408 28.0151C115.775 26.4139 114.881 25.0361 113.69 23.919C112.535 22.7274 111.008 22.1688 109.147 22.1688ZM109.742 18.2216C112.498 18.2216 114.956 18.6312 117.041 19.4132C119.164 20.2324 120.951 21.2379 122.403 22.504C123.074 23.0998 123.744 23.8073 124.489 24.6637C125.233 25.5202 125.866 26.5256 126.462 27.68C127.058 28.8344 127.505 30.1749 127.877 31.6272C128.25 33.1167 128.436 34.7924 128.436 36.6916C128.436 40.3781 127.803 43.3944 126.574 45.7776C125.345 48.1608 123.781 50.0227 121.845 51.4005C119.946 52.7783 117.823 53.7465 115.551 54.305C114.323 54.6029 111.79 55.0126 109.184 54.9753C106.13 54.9381 102.965 54.454 101.662 54.0444C99.353 53.2996 97.3422 52.2197 95.592 50.693C93.8418 49.2035 92.5013 47.3043 91.4959 44.9956C90.4904 42.6868 90.0063 39.9685 90.0063 36.8033C90.0063 33.4519 90.5277 30.6218 91.6448 28.2386C92.7247 25.8926 94.177 23.9562 95.9644 22.504C97.789 21.0144 99.8744 19.9345 102.258 19.227C104.641 18.594 107.136 18.2216 109.742 18.2216ZM151.784 23.0253C150.034 23.0253 148.619 23.4349 147.539 24.2541C146.459 25.0734 145.602 26.0415 145.007 27.1587C144.485 28.0896 144.038 29.3185 143.629 30.8452C143.219 32.372 142.996 34.4573 142.996 37.0639C142.996 38.0694 143.07 39.4099 143.219 40.9739C143.368 42.5751 143.741 44.1391 144.299 45.6659C144.895 47.1926 145.751 48.4959 146.906 49.5758C148.06 50.6557 149.661 51.2143 151.747 51.2143C153.869 51.2143 155.508 50.6557 156.736 49.5386C157.928 48.4215 158.822 47.1181 159.418 45.6286C160.013 44.1391 160.349 42.6124 160.46 41.0484C160.572 39.4844 160.646 38.2928 160.646 37.3991C160.646 35.7606 160.535 34.0477 160.311 32.3347C160.088 30.6218 159.641 29.0578 159.008 27.68C158.338 26.3022 157.444 25.1851 156.29 24.2914C155.098 23.4721 153.609 23.0253 151.784 23.0253ZM170.254 0.272972C169.956 2.24658 169.435 3.92228 168.69 5.26284C167.945 6.6034 167.051 7.6833 166.009 8.50253C164.966 9.32176 163.812 9.95481 162.546 10.4017C161.28 10.8485 159.939 11.1464 158.598 11.3326L152.64 12.1891C151.039 12.4125 149.401 12.7849 147.762 13.269C146.124 13.7531 144.634 14.5351 143.331 15.5777C141.99 16.6204 140.873 18.0354 139.979 19.8228C139.086 21.6102 138.564 23.9562 138.378 26.8608H138.527C140.203 24.4031 142.288 22.4667 144.858 21.1261C147.427 19.7856 150.22 19.0781 153.236 19.0781C156.215 19.0781 158.673 19.5249 160.609 20.3814C162.583 21.2379 164.11 22.206 165.264 23.2115C167.014 24.701 168.429 26.6001 169.435 28.7971C170.477 31.0314 170.999 33.7498 170.999 36.9522C170.999 40.5271 170.366 43.5061 169.137 45.8521C167.908 48.198 166.344 50.0599 164.445 51.4377C162.546 52.8155 160.46 53.7837 158.152 54.305C156.811 54.6029 154.353 55.0126 151.747 54.9753C148.47 54.9381 145.007 54.4168 143.294 53.6348C141.171 52.6666 139.533 51.6612 138.378 50.6557C137.112 49.5386 136.107 48.3097 135.325 46.9692C134.543 45.6286 133.947 44.2508 133.537 42.8358C133.128 41.4208 132.867 39.9685 132.718 38.5162C132.569 37.0639 132.495 35.6489 132.495 34.3083C132.495 32.223 132.606 30.0632 132.867 27.7917C133.128 25.5202 133.537 23.3232 134.059 21.1634C134.617 19.0036 135.362 16.9555 136.293 15.0191C137.224 13.0828 138.341 11.4071 139.644 9.99204C140.761 8.83767 141.916 7.86949 143.107 7.0875C144.299 6.30551 145.528 5.7097 146.757 5.22561C147.986 4.77875 149.214 4.40637 150.406 4.18294C151.598 3.92228 152.789 3.73609 153.944 3.58714L159.902 2.84238C161.205 2.69343 162.471 2.47 163.663 2.09762C164.854 1.76248 165.636 1.09221 165.934 0.124023H170.254V0.272972ZM0.672826 52.257C2.27405 53.039 4.06147 53.5975 5.88612 54.1561C12.5517 56.2042 23.7603 54.9753 27.1117 53.8582C28.7501 53.2996 30.2769 52.5921 31.7664 51.6984C33.2559 50.8047 34.7082 49.6503 36.086 48.2725C37.5755 46.8202 38.7671 45.3307 39.7353 43.7667C40.6662 42.2028 41.4482 40.6015 42.0068 39.0375C42.5654 37.4363 42.975 35.8723 43.1984 34.3083C43.4218 32.7443 43.4963 31.2548 43.4963 29.8026C43.4218 25.334 42.4909 21.4985 40.778 18.2961C39.065 15.0936 36.9052 12.487 34.3731 10.5134C32.0643 8.72596 29.3459 7.34816 26.1807 6.34274C18.0629 3.84781 5.1786 5.59798 1.0452 13.5669C0.337686 14.6468 -0.0346918 15.8756 0.00254598 17.2907C0.0397838 19.0781 0.710064 20.6048 2.01339 21.8337C3.31671 23.0625 4.8807 23.6583 6.63088 23.6211C8.53001 23.5838 10.094 22.9136 11.3973 21.6475C12.6634 20.3814 13.2964 18.8174 13.2592 17.03C13.2592 16.1735 13.0358 15.3171 12.6634 14.5351C12.291 13.7531 11.7697 13.0828 11.1739 12.487C10.6898 12.0401 10.1312 11.6305 9.53543 11.3326C13.2592 9.61967 17.3181 9.28453 21.1164 10.7368C23.0528 11.4816 24.7285 12.487 26.1435 13.7531C26.851 14.4233 27.5585 15.2053 28.266 16.1363C28.9736 17.0672 29.6066 18.1844 30.1279 19.4877C30.6865 20.791 31.1706 22.2805 31.543 23.9562C31.9154 25.6319 32.1388 27.5683 32.176 29.6908C32.2505 32.4464 31.9898 35.0903 31.394 37.5853C30.8355 40.0802 29.83 42.3517 28.4895 44.2881C25.3987 48.7566 20.5578 50.9164 15.1583 50.8792C9.75885 50.8419 5.36479 49.3524 2.49748 47.5278L0.672826 52.257ZM179.005 44.586C182.319 44.586 185 47.1554 185 50.3578C185 53.5603 182.319 56.1297 179.005 56.1297C175.691 56.1297 173.009 53.5603 173.009 50.3578C173.009 47.1554 175.691 44.586 179.005 44.586Z" fill="#FFFFFF"/>
</svg>
