<svg width="297" height="68" viewBox="0 0 297 68" fill="none" xmlns="http://www.w3.org/2000/svg">
<path d="M20.2268 48.1718C21.3611 49.6772 22.8733 50.9944 24.3856 52.1235C28.1663 54.946 32.8922 56.6396 37.9962 56.6396C43.1002 56.6396 47.8261 54.946 51.6068 52.1235C53.1191 50.9944 54.4423 49.6772 55.7656 48.1718C54.6314 46.6665 53.1191 45.3493 51.6068 44.2202C47.8261 41.3976 43.1002 39.7041 37.9962 39.7041C32.8922 39.7041 28.1663 41.3976 24.3856 44.2202C22.6843 45.3493 21.3611 46.6665 20.2268 48.1718Z" fill="#26A9E0"/>
<path d="M37.9962 33.871C42.6943 33.871 46.5028 30.0799 46.5028 25.4033C46.5028 20.7267 42.6943 16.9355 37.9962 16.9355C33.2981 16.9355 29.4896 20.7267 29.4896 25.4033C29.4896 30.0799 33.2981 33.871 37.9962 33.871Z" fill="#26A9E0"/>
<path d="M37.8072 0C31.1909 0 24.7637 1.88172 19.0926 5.45699L22.3062 10.1613C26.8431 7.15054 32.3251 5.64516 37.8072 5.64516C53.4972 5.64516 66.3516 18.4409 66.3516 34.0591C66.3516 49.6774 53.4972 62.4731 37.8072 62.4731C22.1172 62.4731 9.4518 49.4892 9.4518 33.871C9.4518 32.1774 9.4518 30.4839 9.82987 28.9785L14.3667 31.2366V13.3602L0 23.8978L4.53686 26.1559C3.96975 28.7903 3.78072 31.2366 3.78072 33.871C3.78072 52.6882 19.0926 67.9301 37.9962 67.9301C56.8998 67.9301 72.2117 52.6882 72.2117 33.871C72.2117 15.0538 56.7108 0 37.8072 0Z" fill="#26A9E0"/>
<path d="M121.361 31.6128C115.123 31.6128 110.208 36.6934 110.208 42.7149C110.208 48.9246 115.312 53.8171 121.361 53.8171C127.41 53.8171 132.514 48.7364 132.514 42.7149C132.703 36.6934 127.599 31.6128 121.361 31.6128ZM127.032 43.2795C127.032 43.4676 127.032 43.6558 126.843 44.0321C126.654 44.5967 126.465 44.973 126.276 45.3494C126.276 45.3494 126.276 45.3494 126.276 45.5375C126.087 45.7257 126.087 45.9139 125.898 46.102C124.953 47.4192 123.251 48.3601 121.55 48.3601C118.526 48.3601 115.879 45.9139 115.879 42.7149C115.879 39.7042 118.336 37.0698 121.55 37.0698C123.44 37.0698 124.953 38.0106 125.898 39.3278C126.087 39.516 126.276 39.7042 126.276 39.8924C126.276 39.8924 126.276 39.8924 126.276 40.0805C126.465 40.4569 126.654 41.0214 126.843 41.3977C126.843 41.5859 127.032 41.7741 127.032 42.1504C127.032 42.3386 127.032 42.5268 127.032 42.7149C127.032 42.9031 127.032 43.0913 127.032 43.2795Z" fill="white"/>
<path d="M86.0113 28.7903C86.0113 23.8978 89.9811 19.5698 96.4083 19.5698C100.567 19.5698 103.97 20.887 105.86 23.1451L102.646 27.4731C100.945 25.9677 99.4329 25.0268 96.7864 25.0268C93.9509 25.0268 92.0605 26.5322 92.0605 28.6021C92.0605 35.3763 107.183 33.3064 107.183 44.4085C107.183 50.0537 102.268 53.8171 96.0302 53.8171C91.6824 53.8171 86.7675 51.9354 85.0662 48.5483L88.4688 44.5967C90.3592 47.0429 93.5728 48.3601 96.0302 48.3601C98.8658 48.3601 100.945 47.0429 100.945 44.4085C101.134 38.0107 86.0113 39.7042 86.0113 28.7903Z" fill="white"/>
<path d="M137.24 26.3442H142.722V53.2528H137.24V26.3442Z" fill="white"/>
<path d="M171.645 31.9891H177.127V34.059C178.072 32.7418 179.395 31.6128 182.042 31.6128C183.743 31.6128 184.688 31.9891 185.444 32.3655L183.554 37.4461C182.42 36.8816 181.853 36.6934 180.718 36.6934C178.828 36.6934 177.883 37.8225 177.127 38.9515V53.4408H171.645V31.9891Z" fill="white"/>
<path d="M202.646 28.7903C202.646 23.8978 206.616 19.5698 213.043 19.5698C217.202 19.5698 220.605 20.887 222.495 23.1451L219.282 27.4731C217.58 25.9677 216.068 25.0268 213.422 25.0268C210.586 25.0268 208.696 26.5322 208.696 28.6021C208.696 35.3763 223.819 33.3064 223.819 44.4085C223.819 50.0537 218.904 53.8171 212.665 53.8171C208.318 53.8171 203.403 51.9354 201.701 48.5483L205.104 44.5967C206.994 47.0429 210.208 48.3601 212.665 48.3601C215.501 48.3601 217.58 47.0429 217.58 44.4085C217.58 38.0107 202.646 39.7042 202.646 28.7903Z" fill="white"/>
<path d="M228.166 26.1558H233.648V31.9891H240.454V37.0697H233.648V44.7848C233.648 47.0429 234.405 48.5482 236.295 48.5482C237.807 48.5482 238.752 47.7955 239.508 47.231L241.21 51.3708C239.887 52.4998 237.618 53.4407 234.972 53.4407C230.057 53.4407 228.355 50.2418 228.355 44.7848V26.1558H228.166Z" fill="white"/>
<path d="M246.692 33.4947C248.582 32.3657 251.418 31.4248 254.253 31.4248C260.492 31.4248 262.76 34.6237 262.76 40.2689V53.4409H258.034V50.9947C256.9 52.6882 254.631 53.8173 251.796 53.8173C247.826 53.8173 245.18 51.371 245.18 47.2313C245.18 42.527 248.582 40.2689 252.93 40.2689C254.82 40.2689 256.711 40.8334 257.845 41.5861C258.034 38.0108 257.089 36.1291 253.875 36.1291C251.418 36.1291 249.905 36.8818 248.204 37.6345L246.692 33.4947ZM257.656 47.0431V44.785C256.711 44.0323 255.388 43.656 253.875 43.656C251.985 43.656 250.473 44.5968 250.473 46.2904C250.473 47.9839 251.796 48.7366 253.497 48.7366C255.766 49.113 256.9 47.9839 257.656 47.0431Z" fill="white"/>
<path d="M149.338 33.4947C151.229 32.3657 154.064 31.4248 156.9 31.4248C163.138 31.4248 165.406 34.6237 165.406 40.2689V53.4409H160.681V50.9947C159.546 52.6882 157.278 53.8173 154.442 53.8173C150.473 53.8173 147.826 51.371 147.826 47.2313C147.826 42.527 151.229 40.2689 155.577 40.2689C157.467 40.2689 159.357 40.8334 160.491 41.5861C160.681 38.0108 159.735 36.1291 156.522 36.1291C154.064 36.1291 152.552 36.8818 150.851 37.6345L149.338 33.4947ZM160.302 47.0431V44.785C159.357 44.0323 158.034 43.656 156.522 43.656C154.631 43.656 153.119 44.5968 153.119 46.2904C153.119 47.9839 154.442 48.7366 156.144 48.7366C158.412 49.113 159.735 47.9839 160.302 47.0431Z" fill="white"/>
<path d="M273.157 53.2528V42.3389H279.017V37.2582H273.157V35.5647C273.157 32.5539 274.48 31.4249 276.371 31.4249C277.694 31.4249 278.828 31.8012 279.584 32.5539L281.474 28.4141C280.34 27.2851 278.072 26.3442 275.425 26.3442C270.699 26.3442 267.864 29.355 267.864 35.1883V53.441H273.157V53.2528Z" fill="white"/>
<path d="M288.658 53.2528V42.3389H294.518V37.2582H288.658V35.5647C288.658 32.5539 289.981 31.4249 291.871 31.4249C293.195 31.4249 294.329 31.8012 295.085 32.5539L296.975 28.4141C295.841 27.2851 293.573 26.3442 290.926 26.3442C286.2 26.3442 283.365 29.355 283.365 35.1883V53.441H288.658V53.2528Z" fill="white"/>
</svg>
