<svg width="268" height="45" viewBox="0 0 268 45" fill="none" xmlns="http://www.w3.org/2000/svg">
<path fill-rule="evenodd" clip-rule="evenodd" d="M0 7.34552L31.0243 14.9275L48.4639 6.95145L33.3888 26.1665L0 7.34552Z" fill="#ED1C24"/>
<path fill-rule="evenodd" clip-rule="evenodd" d="M152.198 11.0341L159.521 19.9244L172.891 9.3317L156.383 31.9673L152.198 11.0341Z" fill="#ED1C24"/>
<path fill-rule="evenodd" clip-rule="evenodd" d="M68.3825 26.9704C68.0529 27.8216 67.7233 28.5782 67.3794 29.2245C67.0785 29.7762 66.7202 30.3594 66.2903 30.9742C65.8604 31.5416 65.3589 32.0618 64.7857 32.5347C64.2125 33.0076 63.539 33.449 62.7795 33.8746C62.02 34.3002 61.1889 34.5997 60.3004 34.8046C59.412 35.0095 58.4232 35.1198 57.3198 35.1198C55.6718 35.1198 54.2962 34.8676 53.1784 34.3475C52.0607 33.8273 51.2296 33.1179 50.6994 32.2195C50.1692 31.321 49.8539 30.2964 49.7679 29.1457C49.7536 28.9408 49.7536 28.6728 49.7679 28.3576C49.7822 28.0581 49.7822 27.8846 49.7966 27.8374C49.8539 27.0807 49.9685 26.3399 50.1405 25.5833C50.3125 24.8424 50.5561 24.1173 50.8427 23.408C51.1436 22.6986 51.4875 21.9893 51.9031 21.28C52.7772 19.7825 54.0812 18.4899 55.8295 17.4023C57.5777 16.3147 59.7702 15.7787 62.4069 15.7787C64.4561 15.7787 66.0037 16.1728 67.0498 16.9609C68.0959 17.7333 68.7408 18.6949 68.9844 19.814C69.0703 20.2396 69.1277 20.6337 69.1563 20.9805C69.185 21.3273 69.185 21.7529 69.142 22.2415C69.1277 22.4937 69.099 22.7302 69.0703 22.9824C69.0274 23.2346 69.013 23.4395 68.9844 23.5971H62.9801C63.0661 22.4149 62.9658 21.5637 62.6792 21.0593C62.4069 20.5549 61.8767 20.3027 61.1029 20.3027C60.5584 20.3027 60.0282 20.413 59.498 20.6337C59.2543 20.7125 58.9964 20.8859 58.7385 21.1066C58.5235 21.2958 58.2799 21.5795 58.0076 21.9263C57.4488 22.6829 56.9902 23.739 56.6606 25.1104C56.4457 26.0088 56.3167 26.7497 56.2737 27.3645C56.2164 28.2314 56.3167 28.8935 56.5746 29.3821C56.9615 30.1703 57.6064 30.5644 58.5092 30.5644C59.4406 30.5644 60.1715 30.2649 60.7017 29.6659C61.0169 29.3191 61.2892 28.9565 61.5041 28.5624C61.7621 28.1211 62.0057 27.5852 62.2206 26.9704H68.3825ZM85.4925 34.4893H79.2589L82.5978 20.9962H77.2814L73.9425 34.4893H67.709L72.1656 16.4565H89.9491L85.4925 34.4893ZM109.438 25.4571C108.979 27.3014 108.306 28.8462 107.374 30.123C106.916 30.7693 106.429 31.3367 105.913 31.8254C105.397 32.314 104.838 32.7554 104.222 33.1652C103.061 33.8903 101.872 34.4105 100.654 34.6942C100.009 34.8519 99.4212 34.9622 98.8766 35.041C98.3321 35.1198 97.7589 35.1514 97.1714 35.1514C95.9247 35.1514 94.7496 34.9779 93.6462 34.6154C92.5571 34.2529 91.6257 33.6854 90.8805 32.913C90.1354 32.1249 89.6482 31.1003 89.4332 29.8392C89.3186 29.193 89.2899 28.4994 89.3472 27.7743C89.3902 27.1122 89.5192 26.3399 89.7198 25.4414C90.164 23.6444 90.8519 22.0839 91.769 20.7755C92.2562 20.1293 92.7434 19.5618 93.245 19.0889C93.7465 18.6161 94.3054 18.1589 94.9216 17.7491C95.4948 17.3865 96.0823 17.087 96.6842 16.8348C97.286 16.5826 97.8879 16.3777 98.4897 16.2359C99.6935 15.9364 100.84 15.7945 101.972 15.7945C103.118 15.7945 104.207 15.9364 105.268 16.2359C106.328 16.5196 107.26 17.0398 108.062 17.7649C108.478 18.1589 108.807 18.6003 109.08 19.0889C109.352 19.5776 109.552 20.1451 109.71 20.8071C109.868 21.4534 109.911 22.21 109.853 23.077C109.782 23.7548 109.653 24.5587 109.438 25.4571ZM102.989 25.4571C103.176 24.7163 103.29 24.0543 103.333 23.471C103.405 22.4307 103.233 21.6425 102.832 21.1066C102.43 20.5707 101.757 20.3185 100.825 20.3185C99.6648 20.3185 98.7047 20.744 97.9452 21.5952C97.1857 22.4464 96.5982 23.739 96.1683 25.4414C95.982 26.1823 95.8673 26.8601 95.8243 27.4433C95.7527 28.4994 95.9103 29.2875 96.3116 29.8077C96.7128 30.3279 97.372 30.5959 98.2891 30.5959C99.4498 30.5959 100.424 30.1545 101.198 29.3033C101.972 28.4521 102.574 27.1595 102.989 25.4571ZM129.772 25.3153C129.07 28.1526 127.952 30.2806 126.433 31.715C124.9 33.1495 123.467 34.0637 122.105 34.4735C120.801 34.8361 119.741 35.0095 118.953 35.0095C117.935 35.0095 116.961 34.8046 116.058 34.3947C115.815 34.2844 115.585 34.1583 115.37 34.0165C115.155 33.8746 114.955 33.7012 114.769 33.5278L112.977 40.7472H106.729L112.82 16.1255H118.767L118.423 17.4023C120.128 16.157 121.934 15.5423 123.868 15.5423C126.462 15.5423 128.282 16.4565 129.328 18.285C130.03 19.5145 130.317 21.0277 130.202 22.7932C130.13 23.5341 129.987 24.3853 129.772 25.3153ZM123.352 25.2523C123.51 24.669 123.596 24.1331 123.624 23.6444C123.653 23.1558 123.639 22.7144 123.538 22.3045C123.409 21.5952 123.123 21.0908 122.693 20.7755C122.263 20.4603 121.747 20.3027 121.145 20.3027C120.687 20.3027 120.228 20.3972 119.784 20.5864C119.34 20.7756 118.91 21.0593 118.48 21.4534C118.05 21.8317 117.678 22.3519 117.362 22.9824C117.047 23.6129 116.775 24.3695 116.545 25.2523C116.474 25.5202 116.431 25.7882 116.388 26.0719C116.345 26.3556 116.302 26.6236 116.288 26.8758C116.23 27.6325 116.302 28.3103 116.502 28.8777C116.631 29.3191 116.889 29.6343 117.276 29.855C117.663 30.0757 118.136 30.186 118.724 30.186C119.841 30.186 120.787 29.7604 121.561 28.9092C122.406 27.9319 122.994 26.7025 123.352 25.2523ZM147.756 20.9962H142.182L138.843 34.4893H132.609L135.948 20.9962H130.388L131.506 16.4565H148.888L147.756 20.9962ZM187.493 33.843H181.145L181.102 32.645C180.686 32.9445 180.256 33.1968 179.841 33.4017C179.411 33.6066 178.938 33.7642 178.422 33.9061C177.161 34.2214 176.086 34.379 175.212 34.379C173.98 34.379 172.962 34.2371 172.189 33.9376C171.415 33.6539 170.87 33.2125 170.541 32.645C170.068 31.8096 169.867 30.9111 169.939 29.9496C169.953 29.6501 170.01 29.3191 170.082 28.9723C170.369 27.8216 170.827 26.8758 171.472 26.1192C172.117 25.3626 172.891 24.7636 173.808 24.3538C174.567 23.9597 175.427 23.6759 176.416 23.4868C176.875 23.3922 177.362 23.3134 177.892 23.2188C178.408 23.1242 178.967 23.0454 179.54 22.9824C180.113 22.9193 180.514 22.872 180.744 22.8248C181.388 22.7459 181.861 22.6671 182.162 22.6198C182.564 22.541 182.85 22.4307 183.008 22.3203C183.151 22.21 183.266 22.0208 183.337 21.7686L183.452 21.3588C183.481 21.2012 183.495 21.0908 183.495 21.0278C183.552 20.1135 182.965 19.6564 181.718 19.6564C181.174 19.6564 180.744 19.6879 180.414 19.7825C180.084 19.8613 179.812 20.0189 179.583 20.2554C179.354 20.4918 179.153 20.7756 178.981 21.0908C178.809 21.4218 178.651 21.8317 178.508 22.3518H172.49C172.705 21.5637 172.934 20.9017 173.192 20.3657C173.435 19.8298 173.736 19.3254 174.095 18.8367C174.467 18.3481 174.911 17.891 175.47 17.4654C176.015 17.0398 176.674 16.6457 177.419 16.2831C178.121 15.9679 178.924 15.7314 179.841 15.558C180.758 15.3846 181.761 15.3058 182.836 15.3058C183.997 15.3058 185.014 15.4004 185.859 15.5896C186.705 15.7787 187.407 16.0467 187.937 16.4092C188.983 17.1501 189.585 18.0171 189.728 19.0259C189.743 19.215 189.757 19.4199 189.771 19.6406C189.771 19.8455 189.771 20.082 189.757 20.3342C189.729 20.8544 189.628 21.4376 189.485 22.0681L187.522 29.7762C187.407 30.2491 187.321 30.6432 187.264 30.9584C187.206 31.2895 187.163 31.5574 187.149 31.7623C187.149 31.8569 187.149 31.9357 187.149 31.9672C187.149 32.1249 187.206 32.2668 187.292 32.3929C187.378 32.5032 187.536 32.6293 187.794 32.7554L187.493 33.843ZM182.248 26.2453L182.277 26.1034L181.79 26.2138C181.747 26.2295 181.474 26.2768 181.016 26.3714C180.543 26.466 180.142 26.5448 179.798 26.5921C179.454 26.6394 179.067 26.7182 178.637 26.8443C178.207 26.9546 177.806 27.0965 177.448 27.2541C177.204 27.3645 177.003 27.5221 176.875 27.727C176.731 27.9319 176.617 28.1999 176.545 28.5467C176.516 28.657 176.502 28.7359 176.502 28.7989C176.488 29.0827 176.574 29.3506 176.746 29.6344C176.889 29.792 177.075 29.9181 177.29 29.9969C177.519 30.0757 177.806 30.1072 178.179 30.1072C178.909 30.1072 179.669 29.8235 180.443 29.256C181.231 28.6885 181.833 27.6797 182.248 26.2453ZM209.017 26.2926C208.687 27.1438 208.343 27.9004 208.013 28.5467C207.727 29.0984 207.354 29.6816 206.924 30.2964C206.495 30.8638 205.993 31.384 205.42 31.8569C204.847 32.3298 204.173 32.7711 203.414 33.1967C202.654 33.6223 201.823 33.9218 200.935 34.1268C200.046 34.3317 199.057 34.442 197.954 34.442C196.306 34.442 194.93 34.1898 193.813 33.6697C192.695 33.1495 191.864 32.4401 191.333 31.5417C190.803 30.6432 190.488 29.6186 190.402 28.4679C190.388 28.2629 190.388 27.995 190.402 27.6797C190.416 27.3802 190.416 27.2069 190.431 27.1596C190.474 26.4029 190.603 25.6621 190.775 24.9055C190.947 24.1646 191.19 23.4395 191.491 22.7302C191.792 22.0208 192.136 21.3115 192.551 20.6022C193.426 19.1047 194.73 17.8121 196.478 16.7245C198.226 15.6369 200.419 15.1009 203.055 15.1009C205.105 15.1009 206.652 15.495 207.698 16.2831C208.73 17.0713 209.375 18.0171 209.633 19.1362C209.719 19.5618 209.776 19.9559 209.805 20.3027C209.833 20.6495 209.833 21.075 209.79 21.5637C209.776 21.8159 209.747 22.0523 209.719 22.3045C209.69 22.5568 209.661 22.7617 209.633 22.9193H203.629C203.715 21.7371 203.614 20.8859 203.328 20.3815C203.055 19.8771 202.525 19.6249 201.751 19.6249C201.207 19.6249 200.677 19.7352 200.146 19.9559C199.903 20.0347 199.645 20.2081 199.387 20.4288C199.172 20.6179 198.928 20.9017 198.642 21.2485C198.083 22.0051 197.624 23.0612 197.295 24.4326C197.08 25.331 196.951 26.0719 196.908 26.6866C196.85 27.5536 196.951 28.2156 197.209 28.7043C197.596 29.4924 198.24 29.8865 199.143 29.8865C200.075 29.8865 200.806 29.5871 201.336 28.9881C201.651 28.6413 201.923 28.2787 202.138 27.8846C202.396 27.4433 202.64 26.9074 202.855 26.2768H209.017V26.2926ZM227.631 20.3185H222.057L218.718 33.8115H212.484L215.823 20.3185H210.249L211.367 15.7787H228.749L227.631 20.3185ZM245.443 26.4029H232.432C232.417 26.4975 232.403 26.5763 232.403 26.6551C232.389 26.734 232.374 26.8285 232.374 26.9389C232.346 27.2541 232.374 27.5851 232.432 27.9162C232.475 28.2314 232.561 28.5152 232.69 28.7674C232.819 29.0196 232.991 29.2402 233.191 29.4452C233.392 29.6343 233.65 29.7919 233.965 29.8865C234.266 29.9811 234.61 30.0284 234.982 30.0284C235.699 30.0284 236.387 29.855 237.046 29.524C237.347 29.3664 237.619 29.1614 237.834 28.9092C238.063 28.6413 238.307 28.263 238.565 27.7586H244.884C244.469 28.594 244.096 29.256 243.752 29.7604C243.408 30.2649 243.022 30.7377 242.563 31.1791C242.162 31.6205 241.675 32.0303 241.087 32.4086C240.499 32.7869 239.826 33.1495 239.066 33.4647C237.576 34.0953 235.785 34.4105 233.693 34.4105C232.116 34.4105 230.784 34.1898 229.666 33.7485C229.093 33.512 228.606 33.2283 228.176 32.913C227.746 32.582 227.388 32.2195 227.087 31.7939C226.786 31.3683 226.556 30.8954 226.384 30.3909C226.213 29.8708 226.098 29.3033 226.041 28.6886C226.026 28.4837 226.012 28.2315 226.012 27.9635C226.012 27.6955 226.026 27.4117 226.041 27.128C226.084 26.4187 226.213 25.6463 226.399 24.8109C226.9 22.809 227.76 21.075 228.993 19.5933C230.225 18.1274 231.701 17.024 233.435 16.3147C234.266 15.9679 235.126 15.6999 236.043 15.5107C236.946 15.3216 237.877 15.227 238.837 15.227C240.485 15.227 241.832 15.495 242.907 16.0152C243.982 16.5511 244.784 17.2762 245.343 18.1904C245.587 18.6633 245.787 19.1678 245.916 19.6879C246.059 20.2081 246.131 20.7283 246.16 21.2642C246.188 21.8002 246.174 22.3046 246.145 22.7775C246.088 23.5341 245.974 24.3065 245.773 25.0788L245.443 26.4029ZM239.926 22.6198C239.969 22.3676 239.998 22.1469 240.012 21.9263C240.07 21.1696 239.926 20.6337 239.582 20.3027C239.081 19.814 238.45 19.5618 237.691 19.5618C237.06 19.5618 236.516 19.6406 236.043 19.814C235.57 19.9874 235.169 20.2554 234.81 20.6337C234.524 20.9647 234.266 21.28 234.051 21.5795C233.793 21.9263 233.592 22.2731 233.449 22.5883H239.926V22.6198ZM267.569 24.6375C266.867 27.4748 265.749 29.6028 264.23 31.0372C262.697 32.4717 261.264 33.3859 259.902 33.7957C258.598 34.1583 257.538 34.3317 256.75 34.3317C255.732 34.3317 254.758 34.1268 253.855 33.717C253.611 33.6066 253.382 33.4805 253.167 33.3386C252.952 33.1967 252.752 33.0234 252.565 32.85L250.774 40.0694H244.526L250.616 15.4477H256.549L256.205 16.7245C257.91 15.4792 259.716 14.8644 261.65 14.8644C264.244 14.8644 266.064 15.7787 267.11 17.6072C267.812 18.8367 268.099 20.35 267.97 22.1154C267.913 22.872 267.784 23.7232 267.569 24.6375ZM261.135 24.5744C261.292 23.9912 261.378 23.4553 261.407 22.9666C261.436 22.478 261.421 22.0366 261.321 21.6268C261.192 20.9174 260.905 20.413 260.475 20.0977C260.046 19.7825 259.544 19.6249 258.942 19.6249C258.484 19.6249 258.025 19.7194 257.581 19.9086C257.137 20.0978 256.707 20.3815 256.262 20.7755C255.833 21.1539 255.46 21.674 255.145 22.3045C254.829 22.9351 254.557 23.6917 254.328 24.5744C254.256 24.8424 254.213 25.1104 254.17 25.3941C254.127 25.6779 254.084 25.9458 254.07 26.198C254.013 26.9546 254.084 27.6325 254.285 28.1999C254.414 28.6413 254.672 28.9565 255.059 29.1772C255.446 29.3979 255.918 29.5082 256.506 29.5082C257.624 29.5082 258.57 29.0826 259.343 28.2314C260.189 27.2541 260.776 26.0404 261.135 24.5744ZM30.9384 11.9483C27.9434 11.9483 25.5073 9.26862 25.5073 5.97417C25.5073 2.67971 27.9577 0 30.9384 0C33.9333 0 36.3837 2.67971 36.3837 5.97417C36.3694 9.25286 33.9333 11.9483 30.9384 11.9483ZM60.3291 44.4515L22.5697 35.9868L2.63672 44.9244L20.2912 22.4307L60.3291 44.4515ZM146.094 33.8115H154.319L150.636 15.6526L146.094 33.8115ZM158.174 33.8115H166.399L170.971 15.7787L158.174 33.8115Z" fill="white"/>
</svg>
