<svg width="1213" height="303" viewBox="0 0 1213 303" fill="none" xmlns="http://www.w3.org/2000/svg">
<circle cx="150" cy="150" r="149.75" fill="#6366F1" stroke="#6366F1" stroke-width="0.5"/>
<path d="M148.639 53.4824L243.922 148.765L148.639 244.048L53.3565 148.765L148.639 53.4824Z" fill="white" stroke="white" stroke-width="0.25"/>
<path d="M448.449 105.636C447.384 96.6402 443.063 89.6562 435.487 84.6847C427.911 79.7131 418.619 77.2273 407.611 77.2273C399.562 77.2273 392.518 78.5293 386.482 81.1335C380.504 83.7377 375.828 87.3184 372.455 91.8757C369.14 96.433 367.483 101.612 367.483 107.412C367.483 112.265 368.637 116.438 370.945 119.93C373.313 123.362 376.331 126.233 380.001 128.541C383.67 130.79 387.517 132.655 391.542 134.134C395.567 135.555 399.266 136.709 402.639 137.597L421.105 142.568C425.84 143.811 431.107 145.527 436.908 147.717C442.767 149.907 448.36 152.896 453.687 156.684C459.073 160.413 463.512 165.207 467.004 171.066C470.496 176.925 472.241 184.116 472.241 192.639C472.241 202.464 469.667 211.342 464.518 219.273C459.428 227.204 451.97 233.507 442.146 238.183C432.38 242.858 420.513 245.196 406.545 245.196C393.525 245.196 382.25 243.095 372.721 238.893C363.251 234.691 355.794 228.831 350.349 221.315C344.963 213.798 341.915 205.068 341.205 195.125H363.932C364.524 201.991 366.832 207.672 370.857 212.17C374.94 216.609 380.089 219.924 386.304 222.114C392.578 224.244 399.325 225.31 406.545 225.31C414.95 225.31 422.496 223.948 429.184 221.226C435.872 218.444 441.169 214.597 445.075 209.685C448.982 204.713 450.935 198.913 450.935 192.284C450.935 186.247 449.248 181.335 445.874 177.547C442.501 173.759 438.062 170.681 432.558 168.314C427.053 165.946 421.105 163.875 414.713 162.099L392.341 155.707C378.136 151.624 366.891 145.794 358.605 138.218C350.319 130.642 346.176 120.729 346.176 108.477C346.176 98.2973 348.928 89.4195 354.433 81.8438C359.996 74.2088 367.453 68.2902 376.805 64.0881C386.215 59.8267 396.721 57.696 408.321 57.696C420.04 57.696 430.456 59.7971 439.571 63.9993C448.686 68.1423 455.906 73.8241 461.233 81.0447C466.619 88.2654 469.46 96.4626 469.756 105.636H448.449ZM498.498 79.7131V60.1818H634.861V79.7131H577.688V242H555.671V79.7131H498.498ZM814.682 151.091C814.682 170.267 811.22 186.839 804.295 200.807C797.37 214.775 787.871 225.546 775.797 233.122C763.723 240.698 749.933 244.486 734.426 244.486C718.92 244.486 705.129 240.698 693.056 233.122C680.982 225.546 671.482 214.775 664.558 200.807C657.633 186.839 654.171 170.267 654.171 151.091C654.171 131.915 657.633 115.343 664.558 101.375C671.482 87.4072 680.982 76.6354 693.056 69.0597C705.129 61.4839 718.92 57.696 734.426 57.696C749.933 57.696 763.723 61.4839 775.797 69.0597C787.871 76.6354 797.37 87.4072 804.295 101.375C811.22 115.343 814.682 131.915 814.682 151.091ZM793.375 151.091C793.375 135.348 790.741 122.06 785.474 111.229C780.266 100.398 773.193 92.2012 764.256 86.6378C755.378 81.0743 745.435 78.2926 734.426 78.2926C723.418 78.2926 713.445 81.0743 704.508 86.6378C695.63 92.2012 688.557 100.398 683.29 111.229C678.082 122.06 675.477 135.348 675.477 151.091C675.477 166.834 678.082 180.121 683.29 190.952C688.557 201.783 695.63 209.981 704.508 215.544C713.445 221.107 723.418 223.889 734.426 223.889C745.435 223.889 755.378 221.107 764.256 215.544C773.193 209.981 780.266 201.783 785.474 190.952C790.741 180.121 793.375 166.834 793.375 151.091ZM851.703 242V60.1818H913.137C927.342 60.1818 939.001 62.6084 948.116 67.4616C957.231 72.2557 963.978 78.8549 968.357 87.2592C972.737 95.6636 974.927 105.222 974.927 115.935C974.927 126.647 972.737 136.147 968.357 144.433C963.978 152.719 957.26 159.229 948.205 163.964C939.149 168.639 927.579 170.977 913.492 170.977H863.776V151.091H912.782C922.489 151.091 930.301 149.67 936.22 146.83C942.197 143.989 946.518 139.964 949.181 134.756C951.904 129.488 953.265 123.214 953.265 115.935C953.265 108.655 951.904 102.292 949.181 96.8473C946.459 91.4022 942.109 87.2 936.131 84.2408C930.153 81.2223 922.252 79.7131 912.427 79.7131H873.72V242H851.703ZM937.285 160.324L982.029 242H956.461L912.427 160.324H937.285ZM1011.61 60.1818H1037.89L1099.68 211.105H1101.81L1163.6 60.1818H1189.88V242H1169.29V103.861H1167.51L1110.69 242H1090.81L1033.99 103.861H1032.21V242H1011.61V60.1818Z" fill="white
"/>
</svg>
