<svg width="300" height="53" viewBox="0 0 300 53" fill="none" xmlns="http://www.w3.org/2000/svg">
<path fill-rule="evenodd" clip-rule="evenodd" d="M17.9157 1.74207C21.9324 -0.580688 26.8742 -0.580688 30.891 1.74207L42.2792 8.32746C46.3173 10.6625 48.8066 14.9899 48.8066 19.6744V32.7528C48.8066 37.4373 46.3173 41.7646 42.2792 44.0997L30.891 50.6851C26.8742 53.0079 21.9324 53.0079 17.9157 50.6851L6.52745 44.0997C2.48935 41.7646 0 37.4373 0 32.7528V19.6744C0 14.9899 2.48935 10.6625 6.52744 8.32746L17.9157 1.74207ZM34.1714 39.6741L26.0065 31.5003L28.7281 28.7632L36.8558 36.937C37.2535 37.337 37.4523 37.7931 37.4523 38.3056C37.4523 38.818 37.2535 39.2742 36.8558 39.6741C36.4829 40.0491 36.0355 40.2365 35.5136 40.2365C34.9916 40.2365 34.5442 40.0491 34.1714 39.6741ZM12.2118 39.6741C11.839 39.2742 11.6526 38.8117 11.6526 38.2868C11.6526 37.7619 11.839 37.2995 12.2118 36.8995L21.7935 27.3009L17.5805 23.0641L17.506 23.139C17.3071 23.339 17.0399 23.439 16.7044 23.439C16.3689 23.439 16.0768 23.3015 15.8283 23.0266L15.4554 22.6891V25.4637L15.3063 25.6512C15.0577 25.9011 14.7408 26.0261 14.3556 26.0261C13.9703 26.0261 13.6534 25.9011 13.4049 25.6512L9.93757 22.1642C9.68901 21.9142 9.56474 21.5955 9.56474 21.2081C9.56474 20.8207 9.68901 20.5019 9.93757 20.252L10.0867 20.102H12.9202L12.3982 19.5396C12.2491 19.1646 12.2118 18.7772 12.2864 18.3773C12.3609 17.9773 12.5101 17.6524 12.7338 17.4024L16.723 13.4655C17.1953 12.9906 17.7173 12.6656 18.2889 12.4906C18.8606 12.3156 19.482 12.2282 20.1531 12.2282C20.8242 12.2282 21.4517 12.3531 22.0358 12.6031C22.6199 12.8531 23.1481 13.203 23.6204 13.653L19.4447 17.8148L20.0039 18.3398C20.3519 18.7147 20.5507 19.0709 20.6005 19.4083C20.6502 19.7458 20.6005 20.0645 20.4513 20.3645L20.3395 20.4769L24.4406 24.6388L29.1755 19.877C29.0015 19.6021 28.8586 19.2459 28.7468 18.8084C28.6349 18.371 28.579 17.9273 28.579 17.4774C28.579 16.0526 29.1009 14.809 30.1449 13.7467C31.1888 12.6843 32.4315 12.1532 33.8731 12.1532C34.3205 12.1532 34.7182 12.2094 35.0662 12.3219C35.4142 12.4344 35.7124 12.5906 35.961 12.7906L32.7919 16.0151L35.2899 18.5272L38.4962 15.3027C38.7199 15.5777 38.8815 15.9089 38.9809 16.2963C39.0803 16.6838 39.13 17.1024 39.13 17.5524C39.13 19.0022 38.6081 20.252 37.5641 21.3018C36.5202 22.3517 35.2899 22.8766 33.8731 22.8766C33.4506 22.8766 33.084 22.8453 32.7733 22.7828C32.4626 22.7204 32.183 22.6391 31.9344 22.5391L14.9335 39.7116C14.5358 40.0866 14.076 40.2678 13.554 40.2553C13.032 40.2428 12.5846 40.0491 12.2118 39.6741Z" fill="white"/>
<path d="M70.6915 38.4283C67.5093 38.4283 64.903 37.4172 62.8727 35.395C60.8619 33.3531 59.8564 30.7615 59.8564 27.6201C59.8564 24.4199 60.8716 21.8184 62.902 19.8158C64.9519 17.8132 67.5484 16.8119 70.6915 16.8119C73.7566 16.8119 76.2555 17.7445 78.1882 19.6097C79.5548 20.9251 80.3747 22.4467 80.6481 24.1744H74.557C74.5375 24.1548 74.4789 24.0861 74.3813 23.9683C74.3032 23.8505 74.2349 23.7425 74.1763 23.6443C73.2197 22.6823 72.0581 22.2013 70.6915 22.2013C69.2078 22.2013 68.0462 22.7314 67.2067 23.7916C66.3868 24.8322 65.9768 26.1083 65.9768 27.6201C65.9768 29.1319 66.3965 30.4179 67.236 31.4781C68.095 32.5187 69.2468 33.039 70.6915 33.039C72.3119 33.039 73.6101 32.391 74.5863 31.0952H80.6481C80.609 31.2719 80.5016 31.6744 80.3259 32.3027C79.6426 34.2857 78.4127 35.8073 76.6362 36.8675C74.8596 37.9081 72.878 38.4283 70.6915 38.4283Z" fill="white"/>
<path d="M87.7707 38.0749V27.2078H82.2067V22.4958H99.0743V27.2078H93.5104V38.0749H87.7707Z" fill="white"/>
<path d="M107.273 35.984V43.641H101.592V22.4958H107.361V24.6162C107.478 24.3021 107.898 23.8603 108.62 23.2909C109.694 22.5645 110.865 22.2013 112.134 22.2013C114.321 22.2013 116.01 22.9964 117.2 24.5867C118.411 26.1574 119.016 28.0521 119.016 30.2706C119.016 32.5089 118.401 34.4231 117.171 36.0134C115.961 37.5841 114.282 38.3694 112.134 38.3694C111.158 38.3694 110.231 38.1731 109.352 37.7804C108.474 37.3681 107.781 36.7693 107.273 35.984ZM108.093 27.9441C107.566 28.5331 107.302 29.3086 107.302 30.2706C107.302 31.2327 107.566 32.018 108.093 32.6267C108.62 33.2157 109.352 33.5102 110.289 33.5102C111.207 33.5102 111.92 33.2058 112.427 32.5972C112.954 31.9886 113.218 31.213 113.218 30.2706C113.218 29.3086 112.964 28.5331 112.456 27.9441C111.949 27.3551 111.226 27.0606 110.289 27.0606C109.352 27.0606 108.62 27.3551 108.093 27.9441Z" fill="white"/>
<path d="M129.774 22.0835C132.273 22.0835 134.333 22.8394 135.953 24.3511C137.593 25.8433 138.413 27.8165 138.413 30.2706C138.413 32.7445 137.583 34.7373 135.924 36.249C134.284 37.7412 132.234 38.4872 129.774 38.4872C127.276 38.4872 125.196 37.7314 123.537 36.2196C121.897 34.6882 121.077 32.7052 121.077 30.2706C121.077 27.7772 121.907 25.7942 123.566 24.3217C125.245 22.8296 127.315 22.0835 129.774 22.0835ZM129.774 33.5102C130.672 33.5102 131.375 33.2058 131.883 32.5972C132.41 31.9689 132.674 31.1934 132.674 30.2706C132.674 29.3479 132.41 28.5822 131.883 27.9735C131.375 27.3649 130.672 27.0606 129.774 27.0606C128.876 27.0606 128.154 27.3649 127.607 27.9735C127.08 28.5822 126.817 29.3479 126.817 30.2706C126.817 31.1934 127.08 31.9689 127.607 32.5972C128.135 33.2058 128.857 33.5102 129.774 33.5102Z" fill="white"/>
<path d="M141.2 38.0749V22.4958H146.881V30.5062L152.503 22.4958H158.184V38.0749H152.503V30.0645L146.881 38.0749H141.2ZM149.721 17.1064C150.151 17.1064 150.453 16.9788 150.629 16.7235C150.805 16.4879 150.893 16.2033 150.893 15.8695V15.4277H155.256V15.9578C155.256 17.607 154.739 18.8734 153.704 19.7569C152.689 20.6208 151.361 21.0527 149.721 21.0527C148.062 21.0527 146.725 20.611 145.709 19.7275C144.694 18.8243 144.187 17.5678 144.187 15.9578V15.4277H148.55V15.8695C148.55 16.2033 148.638 16.4879 148.814 16.7235C148.95 16.9788 149.253 17.1064 149.721 17.1064Z" fill="white"/>
<path d="M177.048 38.0749V30.2412H168.175V38.0749H162.171V17.1653H168.175V24.999H177.048V17.1653H183.051V38.0749H177.048Z" fill="white"/>
<path d="M197.877 38.0749V35.984C196.842 37.5743 195.251 38.3694 193.104 38.3694C190.956 38.3694 189.287 37.5743 188.096 35.984C186.905 34.374 186.31 32.4696 186.31 30.2706C186.31 28.0324 186.915 26.128 188.125 24.5573C189.336 22.9866 191.005 22.2013 193.133 22.2013C194.968 22.2013 196.393 22.7805 197.408 23.9388C197.643 24.2333 197.769 24.4002 197.789 24.4395V22.4958H203.558V38.0749H197.877ZM197.086 32.5972C197.594 31.9689 197.848 31.1934 197.848 30.2706C197.848 29.3479 197.594 28.5822 197.086 27.9735C196.579 27.3649 195.876 27.0606 194.978 27.0606C194.08 27.0606 193.377 27.3747 192.869 28.003C192.362 28.6116 192.108 29.3675 192.108 30.2706C192.108 31.1934 192.362 31.9689 192.869 32.5972C193.377 33.2058 194.08 33.5102 194.978 33.5102C195.876 33.5102 196.579 33.2058 197.086 32.5972Z" fill="white"/>
<path d="M222.462 28.1797H216.869C216.498 27.414 215.776 27.0311 214.702 27.0311C213.843 27.0311 213.189 27.3551 212.74 28.003C212.31 28.6312 212.096 29.3871 212.096 30.2706C212.096 31.1738 212.32 31.9493 212.769 32.5972C213.218 33.2255 213.872 33.5396 214.731 33.5396C215.414 33.5396 215.941 33.3825 216.312 33.0684C216.508 32.931 216.644 32.8034 216.722 32.6856C216.859 32.5088 216.927 32.4107 216.927 32.391H222.462C222.403 33.6476 221.964 34.7569 221.144 35.7189C220.324 36.681 219.299 37.4074 218.069 37.8982C217.152 38.2909 215.981 38.4872 214.555 38.4872C212.096 38.4872 210.104 37.7314 208.581 36.2196C207.078 34.6882 206.327 32.7052 206.327 30.2706C206.327 27.8361 207.088 25.8629 208.611 24.3511C210.134 22.8394 212.096 22.0835 214.497 22.0835C216.547 22.0835 218.343 22.6136 219.885 23.6738C221.427 24.734 222.286 26.236 222.462 28.1797Z" fill="white"/>
<path d="M229.586 38.0749V27.2078H224.022V22.4958H240.89V27.2078H235.326V38.0749H229.586Z" fill="white"/>
<path d="M249.089 35.984V43.641H243.408V22.4958H249.177V24.6162C249.294 24.3021 249.713 23.8603 250.436 23.2909C251.51 22.5645 252.681 22.2013 253.95 22.2013C256.136 22.2013 257.825 22.9964 259.016 24.5867C260.226 26.1574 260.832 28.0521 260.832 30.2706C260.832 32.5089 260.217 34.4231 258.987 36.0134C257.776 37.5841 256.097 38.3694 253.95 38.3694C252.974 38.3694 252.046 38.1731 251.168 37.7804C250.289 37.3681 249.596 36.7693 249.089 35.984ZM249.909 27.9441C249.382 28.5331 249.118 29.3086 249.118 30.2706C249.118 31.2327 249.382 32.018 249.909 32.6267C250.436 33.2157 251.168 33.5102 252.105 33.5102C253.023 33.5102 253.735 33.2058 254.243 32.5972C254.77 31.9886 255.033 31.213 255.033 30.2706C255.033 29.3086 254.78 28.5331 254.272 27.9441C253.764 27.3551 253.042 27.0606 252.105 27.0606C251.168 27.0606 250.436 27.3551 249.909 27.9441Z" fill="white"/>
<path d="M271.59 22.0835C274.089 22.0835 276.149 22.8394 277.769 24.3511C279.409 25.8433 280.229 27.8165 280.229 30.2706C280.229 32.7445 279.399 34.7373 277.74 36.249C276.1 37.7412 274.05 38.4872 271.59 38.4872C269.091 38.4872 267.012 37.7314 265.353 36.2196C263.713 34.6882 262.893 32.7052 262.893 30.2706C262.893 27.7772 263.722 25.7942 265.382 24.3217C267.061 22.8296 269.13 22.0835 271.59 22.0835ZM271.59 33.5102C272.488 33.5102 273.191 33.2058 273.698 32.5972C274.226 31.9689 274.489 31.1934 274.489 30.2706C274.489 29.3479 274.226 28.5822 273.698 27.9735C273.191 27.3649 272.488 27.0606 271.59 27.0606C270.692 27.0606 269.97 27.3649 269.423 27.9735C268.896 28.5822 268.632 29.3479 268.632 30.2706C268.632 31.1934 268.896 31.9689 269.423 32.5972C269.95 33.2058 270.672 33.5102 271.59 33.5102Z" fill="white"/>
<path d="M283.015 38.0749V22.4958H288.696V30.5062L294.319 22.4958H300V38.0749H294.319V30.0645L288.696 38.0749H283.015ZM291.537 17.1064C291.966 17.1064 292.269 16.9788 292.445 16.7235C292.62 16.4879 292.708 16.2033 292.708 15.8695V15.4277H297.072V15.9578C297.072 17.607 296.554 18.8734 295.52 19.7569C294.504 20.6208 293.177 21.0527 291.537 21.0527C289.878 21.0527 288.54 20.611 287.525 19.7275C286.51 18.8243 286.002 17.5678 286.002 15.9578V15.4277H290.366V15.8695C290.366 16.2033 290.453 16.4879 290.629 16.7235C290.766 16.9788 291.068 17.1064 291.537 17.1064Z" fill="white"/>
</svg>
