<svg width="217" height="55" viewBox="0 0 217 55" fill="none" xmlns="http://www.w3.org/2000/svg">
<path d="M47.988 35.4608C47.988 42.3508 42.738 44.9528 39.269 44.9528C35.309 44.9528 32.473 42.3748 32.473 38.7178C32.473 35.1318 34.699 32.6718 39.48 31.6878L43.207 30.8898C44.167 30.7028 44.66 29.9998 44.66 28.9218L44.573 12.8718L16.758 21.9122C15.703 22.1222 15.516 22.3332 15.516 23.5052V44.9512C15.516 51.8412 10.266 54.4432 6.797 54.4432C2.837 54.4432 0 51.8652 0 48.2082C0 44.6222 2.227 42.1622 7.008 41.1782L10.735 40.3802C11.695 40.1932 12.188 39.4902 12.188 38.4122L12.047 12.3492C12.047 10.9432 12.914 10.0992 14.508 9.74718L45.656 0.0528244C46.922 -0.227176 48 0.638824 48 1.95182V10.7878C48 10.8578 47.996 10.9265 47.988 10.9938V35.4608Z" fill="#313454"/>
<path d="M77.8558 41.0002V14.2162H67.6318V7.40022H95.4718V14.2162H85.2478V41.0002H77.8558Z" fill="#313454"/>
<path d="M99.5728 41.0002V7.40022H106.965V41.0002H99.5728Z" fill="#313454"/>
<path d="M129.618 41.5762C119.154 41.5762 111.954 34.2322 111.954 24.2002C111.954 14.6482 119.394 6.82422 129.57 6.82422C135.618 6.82422 139.266 8.45622 142.77 11.4322L138.114 17.0482C135.522 14.8882 133.218 13.6402 129.33 13.6402C123.954 13.6402 119.682 18.3922 119.682 24.2002C119.682 30.3442 123.906 34.8562 129.858 34.8562C132.546 34.8562 134.946 34.1842 136.818 32.8402V28.0402H129.378V21.6562H143.97V36.2482C140.514 39.1762 135.762 41.5762 129.618 41.5762Z" fill="#313454"/>
<path d="M149.498 41.0002V7.40022H156.89V41.0002H149.498Z" fill="#313454"/>
<path d="M171.191 41.0002V14.2162H160.967V7.40022H188.807V14.2162H178.583V41.0002H171.191Z" fill="#313454"/>
<path d="M192.572 41.0002V7.40022H199.964V34.2802H216.716V41.0002H192.572Z" fill="#313454"/>
</svg>
