<svg width="218" height="46" viewBox="0 0 218 46" fill="none" xmlns="http://www.w3.org/2000/svg">
<path d="M0 5.3687V1.09814H24.0293V5.3687H14.2712V44.9019H9.81906V5.3687H0Z" fill="black"/>
<path d="M29.6282 1.09814H34.0194V44.9019H29.6282V1.09814Z" fill="black"/>
<path d="M64.915 0C71.5627 0 77.1126 2.19629 81.5647 6.64987C86.0168 11.1034 88.2124 16.5332 88.2124 23C88.2124 29.4058 86.0168 34.8355 81.5647 39.2891C77.1126 43.7427 71.6847 46 65.2809 46C58.8162 46 53.2663 43.8037 48.8142 39.3501C44.3621 34.8966 42.1055 29.5279 42.1055 23.183C42.1055 13.8488 47.2895 6.64987 53.5103 3.0504C57.0476 1.03714 60.8288 0 64.915 0ZM65.098 4.27056C57.7794 4.27056 51.9246 8.66313 49.1191 13.6048C47.4725 16.4722 46.6796 19.6446 46.6796 23.183C46.6796 28.3687 48.4483 32.7613 52.0465 36.3607C55.6448 39.9602 60.036 41.7294 65.098 41.7294C72.5995 41.7294 78.3933 37.5809 81.2598 32.5172C82.9065 29.6499 83.6993 26.4775 83.6993 23C83.6993 15.252 79.6131 9.76127 74.4291 6.77189C71.5017 5.06366 68.3913 4.27056 65.098 4.27056Z" fill="black"/>
<path d="M100.906 1.09814H109.079L119.203 31.6631L129.51 1.09814H137.499L144.94 44.9019H136.889L132.193 17.2042L122.862 44.9019H115.483L106.273 17.2042L101.516 44.9019H93.344L100.906 1.09814Z" fill="black"/>
<path d="M151.613 1.09814H175.52V9.27321H159.846V17.1432H175.52V25.1963H159.846V36.7268H175.52V44.9019H151.613V1.09814Z" fill="black"/>
<path d="M183.298 1.09814H193.178C199.521 1.09814 204.278 1.89125 207.388 3.47746C210.499 5.06366 212.999 7.626 215.012 11.1645C217.024 14.7029 218 18.8515 218 23.6101C218 30.687 215.439 36.4218 211.718 39.9602C209.767 41.8515 207.571 43.0716 205.254 43.8037C202.936 44.5358 198.972 44.9019 193.3 44.9019H183.298V1.09814ZM191.592 9.1512V36.7268H195.434C199.216 36.7268 202.021 36.2997 203.729 35.4456C207.388 33.6154 209.584 29.0398 209.584 23.366C209.584 18.7294 208.303 15.13 205.68 12.5676C203.363 10.2493 199.582 9.1512 194.398 9.1512H191.592Z" fill="black"/>
</svg>
