<svg width="197" height="98" viewBox="0 0 197 98" fill="none" xmlns="http://www.w3.org/2000/svg">
<g clip-path="url(#clip0_30710_104405)">
<path d="M165.799 0.10851C165.966 0.0373878 166.145 0.00050119 166.326 0C170.366 0.00983219 174.362 0.83034 178.084 2.41373C181.807 3.99713 185.18 6.31175 188.007 9.22279C193.773 15.1598 197.002 23.1403 197 31.4512C197.001 31.8254 196.856 32.1848 196.596 32.452C196.469 32.5827 196.317 32.6864 196.15 32.7573C195.982 32.8281 195.802 32.8646 195.621 32.8646C195.439 32.8646 195.26 32.8281 195.092 32.7573C194.925 32.6864 194.773 32.5827 194.646 32.452C194.389 32.186 194.244 31.8262 194.244 31.4534C194.247 23.8884 191.308 16.6239 186.059 11.22C183.487 8.57084 180.417 6.46454 177.029 5.02376C173.641 3.58298 170.003 2.83652 166.326 2.82789C165.961 2.82789 165.611 2.67744 165.353 2.41362C165.093 2.14694 164.948 1.78793 164.948 1.41394C164.948 1.03996 165.093 0.680946 165.353 0.414262C165.48 0.283569 165.632 0.179633 165.799 0.10851Z" fill="#1D73BE"/>
<path d="M166.326 6.00681C166.145 6.00732 165.966 6.0442 165.799 6.11532C165.632 6.18645 165.48 6.29038 165.353 6.42108C165.093 6.68776 164.948 7.04677 164.948 7.42076C164.948 7.79474 165.093 8.15375 165.353 8.42044C165.611 8.68644 165.961 8.8347 166.326 8.8347C169.231 8.84241 172.105 9.43278 174.781 10.5715C177.458 11.7101 179.883 13.3744 181.915 15.4673C186.062 19.7364 188.384 25.4749 188.383 31.4512C188.383 31.8263 188.53 32.186 188.787 32.452C188.915 32.5827 189.066 32.6865 189.234 32.7573C189.401 32.8282 189.581 32.8646 189.762 32.8646C189.944 32.8646 190.124 32.8282 190.291 32.7573C190.459 32.6865 190.61 32.5827 190.737 32.452C190.997 32.1848 191.142 31.8254 191.142 31.4512C191.141 24.7279 188.528 18.2725 183.863 13.4701C181.576 11.1156 178.848 9.2433 175.838 7.96202C172.827 6.68075 169.594 6.01613 166.326 6.00681Z" fill="#1D73BE"/>
<path d="M166.326 12.0158C166.145 12.0163 165.966 12.0532 165.799 12.1243C165.632 12.1954 165.48 12.2993 165.353 12.43C165.093 12.6967 164.948 13.0557 164.948 13.4297C164.948 13.8037 165.093 14.1627 165.353 14.4294C165.611 14.6932 165.961 14.8437 166.326 14.8437C168.46 14.8472 170.573 15.2791 172.54 16.1143C174.507 16.9494 176.29 18.171 177.784 19.708C180.833 22.844 182.541 27.0612 182.54 31.4534C182.54 31.8284 182.682 32.186 182.942 32.452C183.069 32.5826 183.221 32.6864 183.388 32.7573C183.556 32.8281 183.735 32.8646 183.917 32.8646C184.098 32.8646 184.278 32.8281 184.446 32.7573C184.613 32.6864 184.765 32.5826 184.892 32.452C185.151 32.1853 185.296 31.8268 185.296 31.4534C185.298 26.3147 183.3 21.3804 179.734 17.7108C177.985 15.911 175.899 14.4803 173.597 13.5021C171.295 12.524 168.822 12.018 166.324 12.0136L166.326 12.0158Z" fill="#1D73BE"/>
<path d="M73.5453 20.5385H10.5803C9.20291 20.5029 7.83269 20.7499 6.55284 21.2646C5.26725 21.782 4.09822 22.5555 3.11555 23.5387C2.12702 24.5286 1.34365 25.7071 0.81106 27.0054C0.275605 28.3083 0 29.7049 0 31.1153C0 32.5257 0.275605 33.9223 0.81106 35.2252C1.34272 36.524 2.12621 37.7026 3.11555 38.6919C4.098 39.6754 5.26709 40.4489 6.55284 40.966C7.83479 41.4828 9.20538 41.7291 10.5803 41.6943H31.7509V86.548C31.7509 87.9368 32.0168 89.3148 32.5357 90.5968C33.0545 91.8832 33.8133 93.0475 34.7732 94.0308C35.7308 95.012 36.8701 95.7926 38.1196 96.3246C39.3698 96.8557 40.7127 97.1294 42.0693 97.1294C43.4259 97.1294 44.7687 96.8557 46.0189 96.3246C47.2745 95.7907 48.4126 95.0111 49.3676 94.0308C51.3035 92.0292 52.3879 89.3442 52.3898 86.548V41.6943H73.5453C74.9228 41.7293 76.2931 41.4815 77.5727 40.966C78.8583 40.4486 80.0274 39.6751 81.01 38.6919C81.9986 37.702 82.782 36.5235 83.3145 35.2252C83.8499 33.9223 84.1254 32.5257 84.1254 31.1153C84.1254 29.7049 83.8499 28.3083 83.3145 27.0054C82.7819 25.7071 81.9986 24.5286 81.01 23.5387C80.0273 22.5555 78.8583 21.7821 77.5727 21.2646C76.2929 20.7499 74.9227 20.5029 73.5453 20.5385Z" fill="#1D73BE"/>
<path d="M121.224 22.9084C119.381 21.3677 117.061 20.5282 114.667 20.5362C112.273 20.548 109.959 21.4068 108.128 22.9629L83.2085 44.1121L62.1719 26.4427C61.1336 25.559 59.9309 24.8933 58.6343 24.4844C57.3376 24.0756 55.9731 23.9319 54.6207 24.0618C53.2661 24.1958 51.9514 24.5999 50.7531 25.2509C49.5547 25.9018 48.4966 26.7864 47.6402 27.8534C45.8919 30.0285 45.0584 32.808 45.3184 35.5957C45.5705 38.3788 46.8984 40.9501 49.0151 42.7537L75.4541 64.9713C77.6272 66.8095 80.3722 67.8183 83.2085 67.821C86.0448 67.8183 88.7898 66.8095 90.9629 64.9713L104.383 53.627V86.2491C104.383 91.8896 108.534 96.8106 114.021 97.1704C115.43 97.2658 116.844 97.0638 118.172 96.5773C119.506 96.0888 120.725 95.3272 121.754 94.3403C122.787 93.3466 123.609 92.1506 124.168 90.8256C124.73 89.4956 125.022 88.0653 125.022 86.6176V31.3419C125.042 29.7367 124.711 28.1467 124.054 26.6847C123.4 25.2292 122.433 23.9386 121.224 22.9062V22.9084Z" fill="#00A19A"/>
<path d="M166.54 20.5391C163.801 20.5391 161.179 21.6532 159.242 23.6373C157.301 25.6358 156.216 28.3228 156.22 31.1202V46.4108H118.249C115.513 46.4108 112.888 47.525 110.951 49.5113C109.011 51.5092 107.926 54.1954 107.929 56.992C107.929 59.8002 109.016 62.4908 110.951 64.4749C111.903 65.4543 113.038 66.2328 114.291 66.7647C115.544 67.2967 116.89 67.5715 118.249 67.5731H156.226V86.5703C156.226 87.9592 156.494 89.335 157.011 90.6192C157.528 91.8993 158.288 93.0652 159.248 94.051C160.206 95.0343 161.345 95.8127 162.597 96.3447C163.847 96.8756 165.189 97.1491 166.545 97.1491C167.902 97.1491 169.244 96.8756 170.494 96.3447C171.75 95.8108 172.888 95.0312 173.843 94.051C174.8 93.0699 175.561 91.9034 176.08 90.6192C176.599 89.335 176.865 87.9592 176.865 86.5703V31.1202C176.865 29.7312 176.598 28.3554 176.078 27.0691C175.561 25.7882 174.801 24.6216 173.841 23.6351C172.885 22.6547 171.746 21.8751 170.49 21.3414C169.239 20.8108 167.895 20.538 166.538 20.5391H166.54Z" fill="#FFDE00"/>
</g>
<defs>
<clipPath id="clip0_30710_104405">
<rect width="197" height="98" fill="white"/>
</clipPath>
</defs>
</svg>
