<?xml version="1.0" encoding="utf-8"?>
<!-- Generator: Adobe Illustrator 22.1.0, SVG Export Plug-In . SVG Version: 6.00 Build 0)  -->
<svg version="1.1" id="Layer_1" xmlns="http://www.w3.org/2000/svg" xmlns:xlink="http://www.w3.org/1999/xlink" x="0px" y="0px"
	 viewBox="0 0 407.5 245.5" style="enable-background:new 0 0 407.5 245.5;" xml:space="preserve">
<style type="text/css">
	.st0{fill-rule:evenodd;clip-rule:evenodd;fill:#FFFFFF;}
</style>
<g>
	<polygon class="st0" points="122.2,70.4 90.7,52.3 0,104.7 0,140.2 30.5,158 30.5,123.3 	"/>
	<polygon class="st0" points="61.1,239.3 61.1,140.4 30.5,158 30.5,221.5 	"/>
	<path class="st0" d="M360.2,38.2c-2.5-1.4-4.9-2.8-7.3-4.2c2.4-1.4,4.7-2.7,7.1-4.1c2.5,1.4,4.9,2.8,7.3,4.2
		c0.8-0.5,1.6-0.9,2.5-1.4c-5.1-2.9-10.1-5.9-15.2-8.8c-0.9,0.5-1.7,1-2.5,1.4c2.1,1.2,4.2,2.4,6.3,3.6c-2.4,1.4-4.7,2.8-7.1,4.1
		c-2.1-1.2-4.2-2.4-6.3-3.6c-0.8,0.5-1.6,1-2.5,1.4c5.1,2.9,10.1,5.9,15.2,8.8C358.5,39.1,359.3,38.7,360.2,38.2z"/>
	<path class="st0" d="M388.1,22.1c0.8-0.5,1.6-0.9,2.4-1.4c-5.1-2.9-10.1-5.9-15.2-8.8c-0.8,0.5-1.6,0.9-2.4,1.4
		C378,16.2,383,19.1,388.1,22.1L388.1,22.1z M374.4,30c1.9-1.1,3.9-2.2,5.8-3.3c1.7-1,2.5-1.9,2.7-2.8c0.2-1.2-0.8-2.3-2.5-3.3
		c-1.6-0.9-3.2-1.4-5.1-1.3c-1.5,0.1-3.1,0.6-4.9,1.7c-1.1,0.6-2.2,1.3-3.3,1.9c-1.8-1-3.6-2.1-5.4-3.1c-0.9,0.5-1.6,0.9-2.5,1.4
		C364.3,24.1,369.3,27,374.4,30L374.4,30z M368.7,23.8c1.1-0.7,2.3-1.3,3.4-2c0.8-0.5,1.7-0.6,2.5-0.6c1.2,0,2.3,0.5,3.1,1
		c0.9,0.5,2,1.3,2.1,2.1c0.1,0.5-0.2,0.9-1.1,1.4c-1.2,0.7-2.3,1.3-3.5,2C373.1,26.4,370.9,25.1,368.7,23.8z"/>
	<path class="st0" d="M384.2,4.2c3.5-2,1.9-4,1.5-4.2c-0.8,0.2-1.5,0.3-2.2,0.4c0.2,0.6,0.9,1.4-1.2,2.6c-2.1,1.2-3.5,0.8-4.6,0.7
		c-0.2,0.4-0.5,0.8-0.7,1.2C377.4,5.2,380.8,6.1,384.2,4.2L384.2,4.2z M397.5,16.6c-1.3-3.3-2.5-6.6-3.7-9.8
		c-0.4-0.7-0.8-1.3-1.1-1.9c0,0,0.1,0,0.1,0c0.7,0.5,1.3,0.9,2,1.4c3.5,2,6.9,4,10.4,6c0.8-0.5,1.6-0.9,2.4-1.4
		C402.5,7.9,397.4,5,392.3,2c-0.8,0.5-1.6,0.9-2.3,1.4c1.2,3.2,2.4,6.4,3.6,9.6c0.3,0.6,0.6,1.3,1,1.9c0,0-0.1,0.1-0.1,0.1
		c-0.6-0.5-1.3-0.9-1.9-1.4c-3.3-1.9-6.7-3.9-10.1-5.8c-0.8,0.5-1.6,0.9-2.4,1.4c5.1,2.9,10.1,5.9,15.2,8.8
		C396,17.5,396.8,17.1,397.5,16.6z"/>
	<g>
		<path class="st0" d="M118.7,145.5c-3.3-1.9-6.7-3.9-10-5.8c0,5.2,0,10.5,0,15.8c0,5.2,0,10.5,0,15.7c-2.4-1.4-4.7-2.7-7.1-4.1
			c0-5.3,0-10.5,0-15.7c0-5.3,0-10.5,0-15.8c-3.3-1.9-6.7-3.8-10-5.8c0-2.3,0-4.7,0-7.1c3.3,1.9,6.6,3.9,10,5.8
			c2.4,1.4,4.7,2.7,7.1,4.1c3.3,1.9,6.7,3.8,10,5.8C118.7,140.8,118.7,143.1,118.7,145.5L118.7,145.5z M194.8,201.2L194.8,201.2
			c0.4,6.8,0.9,13.6,1.3,20.4c2.2,1.2,4.3,2.5,6.5,3.7c-0.4-5.7-0.8-11.5-1.1-17.3c-0.4-5.7-0.8-11.5-1.1-17.3
			c-0.1-0.1-0.2-0.1-0.3-0.2c-2.1-1.2-4.1-2.4-6.2-3.6c-1.7,3.3-3.3,6.5-4.9,9.8c-1.6,3.3-3.3,6.5-4.9,9.8
			c-1.6-5.1-3.2-10.3-4.8-15.4c-1.6-5.1-3.2-10.2-4.8-15.4c-2.1-1.2-4.1-2.4-6.2-3.6c-0.1-0.1-0.2-0.1-0.3-0.2
			c-0.4,5.3-0.7,10.7-1.1,16c-0.4,5.4-0.7,10.7-1.1,16c2.2,1.2,4.3,2.5,6.5,3.8c0.4-6.2,0.8-12.4,1.3-18.6
			c2.5,7.9,4.9,15.8,7.4,23.6c2.1,1.2,4.1,2.4,6.2,3.6C189.7,211.4,192.3,206.3,194.8,201.2L194.8,201.2z M146.8,159.6L146.8,159.6
			c-7.5-4.3-13.7-2-15.1,5.1c-1.1-0.6-2.2-1.3-3.3-1.9c0-4.5,0-9,0-13.5c-2.4-1.4-4.7-2.7-7.1-4.1c0,5.6,0,11.1,0,16.7
			c0,5.5,0,11.1,0,16.6c2.4,1.4,4.7,2.7,7.1,4.1c0-4.2,0-8.5,0-12.7c1.1,0.6,2.2,1.3,3.4,1.9c1.6,8.5,7.7,17.8,15,22
			c8.5,4.9,15.4,1.2,15.4-8.3C162.2,176.1,155.3,164.5,146.8,159.6L146.8,159.6z M146.8,166.8L146.8,166.8c4.9,2.8,8.9,9.6,8.9,15.1
			c0,5.5-4,7.6-8.9,4.8c-4.9-2.8-8.9-9.6-8.9-15C138,166.1,141.9,164,146.8,166.8L146.8,166.8z M227.8,201.4L227.8,201.4
			c1.6,5.2,3.2,10.5,4.9,15.7c1.6,5.2,3.3,10.5,4.9,15.7c-0.3,0.7-0.6,1.4-0.9,2.1c-0.7,1.7-1.2,3.9-5.5,1.4c0,2.4,0,4.7,0,7.1
			c7.4,4.3,9.5,1.2,12.1-4.7c1.7-3.8,3.3-7.6,5-11.3c1.7-3.8,3.3-7.5,5-11.3c-2.4-1.4-4.9-2.8-7.3-4.2c-1.7,4.9-3.4,9.8-5.1,14.7
			c-1.9-7-3.8-13.9-5.7-20.9C232.7,204.3,230.3,202.9,227.8,201.4L227.8,201.4z M214.7,200.9L214.7,200.9c0,5.3,0,10.5,0,15.8
			c0,5.2,0,10.5,0,15.7c-2.4-1.4-4.7-2.7-7.1-4.1c0-5.2,0-10.5,0-15.7c0-5.3,0-10.5,0-15.8l0,0c0-2.3,0-4.7,0-7.1l0,0
			c2.4,1.4,4.7,2.7,7.1,4.1c4,2.3,8,4.6,12,6.9c0,2.4,0,4.7,0,7.1C222.6,205.5,218.7,203.2,214.7,200.9z"/>
		<path class="st0" d="M127.6,102c-4.5,2.6-9,5.2-13.6,7.8c0.7,0.4,1.3,0.8,2,1.2c1.8-1,3.7-2.1,5.5-3.2c6.1,3.5,12.2,7,18.3,10.5
			c0.9-0.5,1.7-1,2.6-1.5c-6.1-3.5-12.2-7-18.3-10.5c1.8-1,3.6-2.1,5.4-3.1C128.9,102.8,128.3,102.4,127.6,102z"/>
		<path class="st0" d="M149.9,112.5c0.8-0.5,1.6-0.9,2.4-1.4c-2.4-1.4-4.8-2.8-7.2-4.1c1.1-0.6,2.2-1.2,3.2-1.9
			c4.5,2.5,9.2,3.4,14.2,0.5c5.2-3,3.6-5.8-1-8.4c-4.6-2.7-9.7-3.7-14.9-0.7c-4.6,2.6-3.6,5.3,0,7.7c-1.1,0.7-2.2,1.3-3.3,1.9
			c-2.1-1.2-4.2-2.4-6.3-3.6c-0.8,0.5-1.6,0.9-2.4,1.4C139.7,106.7,144.8,109.6,149.9,112.5L149.9,112.5z M150.7,103.4
			c-3.4-2-5.9-4.1-2.4-6.1c3.5-2,6.7-0.9,10.7,1.3c4,2.3,5.6,4,2.1,6C157.5,106.7,154.1,105.4,150.7,103.4z"/>
		<path class="st0" d="M174.6,84.6c4,2.2,8.1,4.4,12.1,6.7c0.9-0.5,1.7-1,2.6-1.5c-5.3-2.8-10.5-5.6-15.8-8.4
			c-1.2,0.7-2.4,1.4-3.6,2c2.7,3.1,5.5,6.1,8.3,9.2c0.5,0.4,1,0.7,1.4,1.1c0,0-0.1,0.1-0.1,0.1c-0.6-0.3-1.2-0.6-1.8-0.8
			c-5.3-1.6-10.7-3.2-16-4.8c-1.2,0.7-2.4,1.4-3.7,2.1c4.9,3,9.8,6.1,14.6,9.1c0.7-0.4,1.4-0.8,2.2-1.2c-3.8-2.3-7.7-4.6-11.6-7
			c-0.6-0.3-1.2-0.6-1.8-0.9c0,0,0.1-0.1,0.1-0.1c6,1.8,11.9,3.5,17.9,5.3c0.9-0.5,1.8-1,2.7-1.6c-3-3.4-6.1-6.8-9.2-10.2
			c0,0,0.1,0,0.1-0.1C173.6,83.9,174.1,84.3,174.6,84.6z"/>
		<path class="st0" d="M184.2,74.8c-4.8,2.8-3.3,5.9,1.3,8.6c4.9,2.9,9.8,3.4,14.6,0.6c2.7-1.5,4.1-2.9,4.6-3.9
			c-0.8-0.2-1.7-0.4-2.5-0.7c-0.5,1-1.7,2.4-3.8,3.6c-1.9,1.1-5.4,1.6-9.4-0.7c-0.2-0.1-0.5-0.3-0.7-0.4c3.3-1.9,6.7-3.9,10-5.8
			C192.6,72.8,188.9,72,184.2,74.8L184.2,74.8z M194.4,76.6c-2.5,1.5-5.1,2.9-7.6,4.4c-2.6-1.5-3.9-3.6-1-5.3
			C188.7,74,191.2,74.8,194.4,76.6z"/>
		<path class="st0" d="M212.1,76.6c-2.4-1.4-4.9-2.8-7.3-4.2c2.4-1.4,4.7-2.7,7.2-4.1c2.5,1.4,4.9,2.8,7.3,4.2
			c0.8-0.5,1.6-0.9,2.5-1.4c-5.1-2.9-10.1-5.9-15.2-8.8c-0.9,0.5-1.7,0.9-2.5,1.4c2.1,1.2,4.2,2.4,6.3,3.6c-2.4,1.4-4.8,2.7-7.2,4.1
			c-2.1-1.2-4.2-2.4-6.3-3.6c-0.8,0.5-1.6,0.9-2.5,1.4c5.1,2.9,10.1,5.9,15.2,8.8C210.5,77.5,211.3,77.1,212.1,76.6z"/>
		<path class="st0" d="M222.7,54.2c-1.4,0.1-4.1,0.7-6.3,2c-4.7,2.7-3,5.7,1.6,8.3c4.6,2.7,9.6,3.5,14.3,0.8c2.7-1.5,3.4-3,3.5-3.6
			c-0.9-0.2-1.7-0.5-2.5-0.7c-0.2,0.7-0.7,2.1-2.8,3.3c-2.5,1.4-5.6,1.1-9.8-1.3c-4.2-2.4-5.1-4.2-2.4-5.7c2.1-1.2,4.4-1.5,5.7-1.6
			C223.5,55.2,223.1,54.7,222.7,54.2z"/>
		<path class="st0" d="M242.9,58.8c-2.4-1.4-4.8-2.8-7.2-4.1c0.3-0.2,0.6-0.4,1-0.6c1.2-0.7,2.8-0.9,4.3-0.5
			c1.2,0.3,2.3,0.6,3.5,0.9c2.3,0.6,4.1,0.8,5.6,0.3c0.7-0.2,1.5-0.6,2.2-1c-0.5-0.4-1-0.7-1.5-1.1c-0.8,0.5-1.7,0.8-3.1,0.5
			c-1.3-0.3-2.7-0.6-4-0.9c-2.7-0.6-3.6-0.9-4.8-0.4c0,0-0.1,0-0.1-0.1c0.9-0.7,0.6-1.5-0.3-2.8c-0.3-0.5-0.6-0.9-1-1.4
			c-0.8-1.1,0-1.6,0.6-2c-0.6-0.3-1.2-0.6-1.8-0.8c-0.9,0.5-1.4,0.9-1.7,1.4c-0.7,0.9-0.4,1.8,0.4,2.9c0.3,0.4,0.6,0.9,1,1.3
			c0.8,1,0.2,2-1,2.7c-0.3,0.2-0.6,0.4-1,0.6c-2.1-1.2-4.2-2.4-6.3-3.6c-0.8,0.5-1.6,0.9-2.4,1.4c5.1,2.9,10.1,5.9,15.2,8.8
			C241.3,59.8,242.1,59.3,242.9,58.8z"/>
		<path class="st0" d="M257.4,50.4c-1.3-3.3-2.5-6.5-3.7-9.9c-0.4-0.6-0.7-1.2-1.1-1.9c0,0,0.1,0,0.1,0c0.6,0.5,1.3,0.9,2,1.4
			c3.4,2,6.9,4,10.3,6c0.8-0.5,1.5-0.9,2.4-1.4c-5.1-2.9-10.1-5.9-15.2-8.8c-0.8,0.5-1.6,0.9-2.4,1.3c1.2,3.2,2.4,6.4,3.6,9.6
			c0.3,0.6,0.6,1.3,1,1.9c-0.1,0-0.1,0-0.1,0c-0.7-0.4-1.3-0.9-1.9-1.3c-3.3-1.9-6.7-3.9-10.1-5.8c-0.8,0.5-1.6,0.9-2.4,1.4
			c5.1,2.9,10.1,5.9,15.2,8.8C255.9,51.3,256.7,50.9,257.4,50.4z"/>
		<path class="st0" d="M261,28.2c3.4-2,1.9-3.9,1.6-4.1c-0.8,0.2-1.5,0.3-2.2,0.4c0.2,0.6,0.9,1.4-1.2,2.6c-2.1,1.2-3.6,0.8-4.6,0.7
			c-0.2,0.5-0.5,0.9-0.8,1.3C254.2,29.3,257.6,30.2,261,28.2L261,28.2z M274.3,40.7c-1.2-3.3-2.5-6.5-3.7-9.9
			c-0.3-0.6-0.8-1.2-1.1-1.9c0,0,0.1,0,0.1-0.1c0.6,0.5,1.3,0.9,2,1.4c3.4,2,6.9,4,10.3,6c0.8-0.5,1.6-0.9,2.4-1.4
			c-5.1-2.9-10.1-5.9-15.2-8.8c-0.8,0.5-1.6,0.9-2.3,1.3c1.2,3.2,2.4,6.4,3.6,9.6c0.3,0.6,0.6,1.3,1,1.9c-0.1,0-0.1,0-0.1,0.1
			c-0.6-0.4-1.3-0.9-1.9-1.3c-3.3-1.9-6.7-3.9-10.1-5.8c-0.8,0.5-1.6,0.9-2.4,1.3c5.1,2.9,10.1,5.9,15.2,8.8
			C272.8,41.6,273.6,41.1,274.3,40.7z"/>
		<path class="st0" d="M179.3,142.6c-4.5-2.6-8.9-5.1-13.3-7.7c2-1.2,4.1-2.3,6.1-3.5c-0.6-0.4-1.3-0.7-1.9-1.1
			c-2.9,1.7-5.7,3.3-8.6,4.9c5.1,2.9,10.1,5.9,15.2,8.8C177.7,143.6,178.5,143.1,179.3,142.6z"/>
		<path class="st0" d="M179.8,133.7c4.6,2.7,9.4,3.6,14.6,0.6c5.2-3,3.5-5.8-1.1-8.4c-4.6-2.7-9.7-3.7-14.9-0.7
			C173.3,128.1,175.2,131,179.8,133.7L179.8,133.7z M182.5,132.1c-3.4-2-5.9-4.1-2.4-6.1c3.5-2,6.7-0.9,10.7,1.4c4,2.3,5.6,4,2.1,6
			C189.3,135.4,185.9,134.1,182.5,132.1z"/>
		<path class="st0" d="M200.9,113.8c-1.4,0.1-4,0.7-6.3,2c-4.6,2.7-3,5.6,1.6,8.3c4.6,2.7,9.6,3.5,14.3,0.9c2.7-1.6,3.3-3.1,3.5-3.7
			c-0.8-0.2-1.6-0.4-2.5-0.7c-0.2,0.7-0.7,2-2.9,3.3c-2.5,1.4-5.6,1.1-9.8-1.3c-4.2-2.4-5.2-4.2-2.5-5.7c2.1-1.2,4.4-1.5,5.7-1.6
			C201.7,114.8,201.3,114.3,200.9,113.8z"/>
		<path class="st0" d="M224,117.8c0.5,0.6,1,1.2,1.5,1.9c0.5,0.8,0.5,1.4-0.3,1.8c-0.6,0.3-2.4,0.9-3.3,1.1c0.3,0.4,0.6,0.7,0.9,1.1
			c1.2-0.2,3.1-0.6,4.2-1.2c2-1.2,2-2.5,0.8-4c-1.2-1.6-2.7-3.1-4-4.6c-2.8-3.2-5.6-6.4-8.4-9.7c-0.9,0.5-1.8,1-2.7,1.5
			c2.8,2.9,5.6,5.7,8.5,8.6c0.5,0.5,1.1,0.9,1.6,1.3c-0.1,0-0.1,0-0.1,0.1c-0.8-0.3-1.6-0.6-2.4-0.9c-5.2-1.5-10.4-3-15.6-4.5
			c-0.9,0.5-1.8,1-2.7,1.5C209.3,113.9,216.7,115.8,224,117.8z"/>
		<path class="st0" d="M251.2,106.3c-2-1.2-4-2.5-5.9-3.8c-0.7,0.4-1.4,0.8-2.2,1.3c-4.5-2.6-9-5.2-13.5-7.8
			c-3.1,1.8-6.3,3.6-9.4,5.4c4.3,2.7,10.9,6.7,11.6,8.9c-0.5,0.3-1,0.6-1.5,0.9c2.1,1.2,4.2,2.4,6.2,3.6c0.7-0.4,1.4-0.8,2-1.2
			c-1.4-0.9-2.8-1.8-4.3-2.7c3.4-2,6.9-4,10.3-6c1.5,0.9,3,1.7,4.5,2.6C249.7,107.1,250.4,106.7,251.2,106.3L251.2,106.3z
			 M224.1,101.2c1.6-0.9,3.2-1.9,4.8-2.8c3.9,2.3,7.8,4.5,11.7,6.8c-2.2,1.3-4.3,2.5-6.5,3.7C233.5,107.4,227.8,103.3,224.1,101.2z"
			/>
		<path class="st0" d="M261.2,95.3c-3.4-2-6.9-4-10.3-6c-2.7-1.5-6.2-2.4-10.6,0.1c-2.8,1.6-3.9,3.1-4.4,4.1
			c0.8,0.2,1.6,0.5,2.4,0.7c0.5-1,1.6-2.6,3.7-3.8c1.8-1,4.1-1,5.8,0c0.8,0.5,1.6,0.9,2.5,1.4c-1.1,0.7-2.3,1.3-4,2.5
			c-3,2.1-3.5,3.8-0.6,5.5c3.2,1.9,6.2,1.2,9.2-0.5c2-1.2,2.4-2.9,2.4-4c0.8,0.3,1.5,0.6,2.4,0.9C260.2,95.9,260.7,95.6,261.2,95.3
			L261.2,95.3z M253.2,98.4c-1.7,1-3,1.1-4.9,0c-1.8-1.1-1.8-1.8-0.4-3c1.4-1.1,2.5-1.9,3.7-2.7c1.3,0.7,2.6,1.5,3.8,2.2
			C255.5,95.8,255.1,97.3,253.2,98.4z"/>
		<path class="st0" d="M272.2,96.3c0.8-0.5,1.6-0.9,2.5-1.4c-2.6-1.5-5.2-3-7.7-4.5c2.1-0.1,4.3-0.5,6.3-1.7
			c4.7-2.7,2.4-5.1-2.2-7.8c-4.6-2.7-9-4.2-13.7-1.4c-2,1.2-2.9,2.8-2.8,4.2c-0.8-0.3-1.5-0.6-2.3-0.8c-0.6,0.3-1.1,0.6-1.7,1
			C257.8,88,265,92.2,272.2,96.3L272.2,96.3z M271.6,87.7c-1.5,0.8-3.8,1.6-6.2,1.8c-3.1-1.8-6.1-3.5-9.2-5.3c0.3-1.4,1.4-2.8,3-3.7
			c2.1-1.2,5.1-0.5,9.3,1.9C272.7,84.9,273.7,86.5,271.6,87.7z"/>
		<path class="st0" d="M278.9,68.8c-1.4,0.1-4,0.7-6.3,2c-4.7,2.7-3,5.6,1.6,8.3c4.6,2.7,9.6,3.6,14.3,0.9c2.7-1.5,3.3-3.1,3.5-3.7
			c-0.9-0.2-1.6-0.4-2.5-0.7c-0.2,0.7-0.7,2-2.9,3.3c-2.5,1.4-5.6,1.1-9.8-1.3c-4.2-2.4-5.2-4.2-2.5-5.7c2.2-1.2,4.4-1.5,5.7-1.6
			C279.7,69.7,279.3,69.3,278.9,68.8z"/>
		<path class="st0" d="M301.9,71.9c-4.5-2.6-8.9-5.1-13.3-7.7c1.6-0.9,3.1-1.8,4.7-2.7c-0.6-0.4-1.3-0.7-1.9-1.1
			c-4,2.3-8,4.6-11.9,6.9c0.6,0.4,1.3,0.7,1.9,1.1c1.6-0.9,3.1-1.8,4.7-2.7c4.4,2.6,8.9,5.1,13.3,7.7
			C300.2,72.8,301,72.3,301.9,71.9z"/>
		<path class="st0" d="M309.3,57.8c0,0-0.1,0-0.1-0.1c0.1-0.1,0.2-0.1,0.3-0.2c0.9-0.8,1.4-2-0.4-3.1c-2.5-1.4-5.4-1.3-8.5,0.5
			c-2.1,1.2-4.2,2.4-6.2,3.6c5.1,2.9,10.1,5.9,15.2,8.8c2.2-1.3,4.3-2.5,6.5-3.8c4-2.3,3.9-3.9,1-5.6c-2.6-1.5-5.6-1.1-7.4-0.4
			C309.6,57.7,309.5,57.8,309.3,57.8L309.3,57.8z M304.9,61.8c1.3-0.7,2.6-1.5,3.9-2.2c2.5-1.4,4.5-0.8,5.8-0.1
			c1.4,0.8,2.4,1.7,0.2,3c-1.4,0.8-2.9,1.7-4.3,2.5C308.5,63.9,306.7,62.9,304.9,61.8L304.9,61.8z M298.5,58.1
			c1.2-0.7,2.4-1.4,3.7-2.1c1.9-1.1,3.6-0.6,4.7,0.1c1.1,0.6,2,1.4-0.2,2.7c-1.2,0.7-2.4,1.4-3.5,2C301.6,59.9,300.1,59,298.5,58.1z
			"/>
		<path class="st0" d="M315.5,46c-4.7,2.7-3.3,5.9,1.4,8.6c4.9,2.8,9.8,3.4,14.6,0.6c2.7-1.5,4-2.9,4.6-3.9
			c-0.9-0.2-1.7-0.4-2.5-0.7c-0.4,1-1.7,2.4-3.8,3.6c-1.9,1.1-5.4,1.6-9.4-0.7c-0.2-0.1-0.5-0.3-0.7-0.4c3.3-1.9,6.7-3.9,10-5.8
			C323.9,44,320.3,43.3,315.5,46L315.5,46z M325.7,47.8c-2.6,1.5-5.1,2.9-7.6,4.4c-2.6-1.5-3.9-3.6-1-5.3
			C320,45.3,322.5,46,325.7,47.8z"/>
		<path class="st0" d="M343.4,47.9c-2.5-1.4-4.9-2.8-7.3-4.2c2.4-1.4,4.8-2.8,7.2-4.1c2.5,1.4,4.9,2.8,7.3,4.2
			c0.8-0.5,1.6-0.9,2.4-1.4c-5.1-2.9-10.1-5.9-15.2-8.8c-0.8,0.5-1.6,0.9-2.4,1.4c2.1,1.2,4.2,2.4,6.3,3.6c-2.4,1.4-4.8,2.8-7.2,4.1
			c-2.1-1.2-4.2-2.4-6.3-3.6c-0.8,0.5-1.6,0.9-2.5,1.4c5.1,2.9,10.1,5.9,15.2,8.8C341.8,48.8,342.6,48.3,343.4,47.9z"/>
		<path class="st0" d="M223,165.4c0.5,0.6,1.1,1.2,1.5,1.9c0.5,0.8,0.6,1.4-0.2,1.9c-0.6,0.3-2.4,0.9-3.4,1.1
			c0.3,0.4,0.6,0.8,0.9,1.2c1.2-0.2,3.2-0.7,4.2-1.3c2-1.2,1.9-2.5,0.8-4c-1.2-1.6-2.7-3.1-4-4.6c-2.8-3.2-5.6-6.4-8.4-9.7
			c-0.9,0.5-1.8,1-2.7,1.6c2.8,2.9,5.7,5.8,8.5,8.6c0.5,0.4,1.1,0.9,1.6,1.3c0,0-0.1,0.1-0.1,0.1c-0.8-0.3-1.5-0.6-2.3-0.8
			c-5.2-1.5-10.4-3-15.6-4.5c-0.9,0.5-1.8,1-2.7,1.5C208.4,161.5,215.7,163.4,223,165.4z"/>
		<path class="st0" d="M235.4,157.3c-2.5-1.4-4.9-2.8-7.3-4.2c2.4-1.4,4.7-2.7,7.1-4.1c2.5,1.4,4.9,2.8,7.3,4.2
			c0.8-0.5,1.6-0.9,2.5-1.4c-5.1-2.9-10.1-5.9-15.2-8.8c-0.9,0.5-1.7,1-2.5,1.4c2.1,1.2,4.2,2.4,6.3,3.6c-2.4,1.4-4.8,2.8-7.1,4.1
			c-2.1-1.2-4.2-2.4-6.3-3.6c-0.9,0.5-1.7,0.9-2.5,1.4c5.1,2.9,10.2,5.9,15.2,8.8C233.7,158.2,234.5,157.7,235.4,157.3z"/>
		<path class="st0" d="M251.8,147.8c-1.2-3.3-2.5-6.5-3.7-9.9c-0.4-0.6-0.8-1.2-1.2-1.9c0.1,0,0.1,0,0.2,0c0.7,0.5,1.4,0.9,2,1.4
			c3.4,2,6.9,4,10.3,6c0.8-0.5,1.6-0.9,2.4-1.4c-5.1-2.9-10.1-5.9-15.2-8.8c-0.8,0.5-1.5,0.9-2.3,1.3c1.2,3.2,2.4,6.4,3.6,9.6
			c0.3,0.6,0.6,1.3,1,1.9c0,0-0.1,0-0.1,0c-0.7-0.4-1.3-0.9-1.9-1.3c-3.4-2-6.7-3.9-10.1-5.8c-0.8,0.5-1.6,0.9-2.4,1.4
			c5.1,2.9,10.2,5.9,15.2,8.8C250.3,148.6,251.1,148.2,251.8,147.8z"/>
		<path class="st0" d="M266.2,129.8c0,0-0.1,0-0.1-0.1c0.1-0.1,0.2-0.1,0.3-0.2c0.9-0.9,1.4-2-0.5-3.1c-2.5-1.4-5.4-1.3-8.5,0.5
			c-2.1,1.2-4.2,2.4-6.2,3.6c5.1,2.9,10.2,5.9,15.2,8.8c2.2-1.2,4.3-2.5,6.5-3.7c4-2.3,3.9-3.9,1-5.6c-2.6-1.5-5.7-1.1-7.4-0.4
			C266.5,129.6,266.4,129.7,266.2,129.8L266.2,129.8z M261.7,133.7c1.3-0.7,2.6-1.5,3.9-2.2c2.5-1.4,4.5-0.8,5.8-0.1
			c1.4,0.8,2.5,1.7,0.2,3c-1.4,0.8-2.9,1.7-4.3,2.5C265.4,135.9,263.6,134.8,261.7,133.7L261.7,133.7z M255.4,130.1
			c1.2-0.7,2.4-1.4,3.7-2.1c1.9-1.1,3.6-0.5,4.7,0.1c1,0.6,2,1.4-0.2,2.6c-1.2,0.7-2.4,1.4-3.5,2C258.5,131.9,256.9,131,255.4,130.1
			z"/>
		<path class="st0" d="M272.3,117.9c-4.8,2.8-3.3,5.9,1.3,8.6c4.9,2.8,9.9,3.4,14.6,0.6c2.6-1.5,4-2.9,4.5-3.9
			c-0.8-0.2-1.6-0.4-2.5-0.7c-0.5,1-1.7,2.4-3.8,3.6c-1.9,1.1-5.4,1.6-9.4-0.7c-0.2-0.1-0.5-0.3-0.7-0.4c3.3-1.9,6.7-3.9,10-5.8
			C280.8,116,277.1,115.2,272.3,117.9L272.3,117.9z M282.5,119.8c-2.5,1.5-5.1,2.9-7.6,4.4c-2.6-1.5-3.9-3.6-0.9-5.3
			C276.9,117.2,279.4,118,282.5,119.8z"/>
		<path class="st0" d="M304.2,124.9c0.8-0.5,1.6-0.9,2.5-1.4c-2.6-1.5-5.2-3-7.7-4.5c2.2-0.1,4.3-0.5,6.3-1.7
			c4.8-2.7,2.5-5.1-2.2-7.8c-4.6-2.7-9-4.2-13.7-1.4c-2,1.2-2.9,2.8-2.8,4.2c-0.8-0.3-1.5-0.6-2.3-0.8c-0.6,0.3-1.1,0.6-1.7,0.9
			C289.8,116.6,297,120.7,304.2,124.9L304.2,124.9z M303.6,116.3c-1.5,0.8-3.8,1.7-6.2,1.8c-3.1-1.8-6.1-3.5-9.2-5.3
			c0.3-1.4,1.4-2.8,2.9-3.7c2.1-1.2,5.2-0.5,9.4,1.9C304.7,113.5,305.7,115.1,303.6,116.3z"/>
		<path class="st0" d="M310.9,97.4c-1.4,0.1-4,0.7-6.3,2c-4.6,2.7-2.9,5.7,1.7,8.3c4.6,2.7,9.6,3.5,14.2,0.9
			c2.7-1.6,3.3-3.1,3.5-3.6c-0.8-0.2-1.6-0.5-2.5-0.7c-0.2,0.7-0.7,2.1-2.8,3.3c-2.5,1.4-5.6,1.1-9.8-1.4c-4.2-2.4-5.1-4.2-2.5-5.7
			c2.1-1.2,4.4-1.5,5.7-1.7C311.7,98.3,311.3,97.8,310.9,97.4z"/>
		<path class="st0" d="M330.9,102.1c-1.2-3.3-2.5-6.5-3.7-9.8c-0.4-0.6-0.8-1.2-1.2-1.9c0.1,0,0.1,0,0.2,0c0.7,0.5,1.4,0.9,2,1.4
			c3.4,2,6.9,4,10.3,6c0.8-0.5,1.6-0.9,2.4-1.4c-5.1-2.9-10.1-5.9-15.2-8.8c-0.8,0.5-1.6,0.9-2.3,1.3c1.2,3.2,2.4,6.4,3.6,9.6
			c0.3,0.6,0.6,1.3,1,1.9c0,0-0.1,0-0.1,0c-0.6-0.4-1.3-0.9-1.9-1.3c-3.4-2-6.7-3.9-10.1-5.8c-0.8,0.5-1.6,0.9-2.4,1.4
			c5.1,2.9,10.2,5.9,15.2,8.8C329.3,103,330.1,102.6,330.9,102.1z"/>
		<path class="st0" d="M351.1,90.5c-4.4-2.6-8.9-5.1-13.3-7.7c1.6-0.9,3.1-1.8,4.7-2.7c-0.6-0.4-1.2-0.7-1.9-1.1
			c-4,2.3-7.9,4.6-11.9,6.9c0.6,0.4,1.3,0.7,1.9,1.1c1.6-0.9,3.1-1.8,4.7-2.7c4.5,2.6,8.9,5.1,13.3,7.7
			C349.4,91.4,350.2,91,351.1,90.5z"/>
	</g>
	<path class="st0" d="M349.2,73.6c-4.8,2.7-3.3,5.9,1.4,8.6c4.9,2.8,9.8,3.4,14.6,0.6c2.6-1.5,4-2.9,4.6-3.9
		c-0.9-0.2-1.7-0.4-2.5-0.6c-0.5,1-1.7,2.4-3.8,3.6c-1.9,1.1-5.4,1.6-9.4-0.7c-0.2-0.1-0.5-0.3-0.7-0.4c3.3-1.9,6.7-3.9,10-5.8
		C357.7,71.6,354,70.8,349.2,73.6L349.2,73.6z M359.4,75.4c-2.6,1.5-5.1,2.9-7.6,4.4c-2.6-1.5-3.8-3.6-0.9-5.2
		C353.8,72.8,356.3,73.6,359.4,75.4z"/>
	<path class="st0" d="M379.9,73.8c-4.4-2.6-8.9-5.1-13.3-7.7c1.6-0.9,3.2-1.8,4.8-2.7c-0.6-0.4-1.2-0.7-1.9-1.1
		c-4,2.3-8,4.6-11.9,6.9c0.6,0.4,1.3,0.7,1.9,1.1c1.6-0.9,3.2-1.8,4.7-2.7c4.5,2.6,8.9,5.1,13.3,7.7
		C378.3,74.8,379.1,74.3,379.9,73.8z"/>
</g>
</svg>
