<svg width="206" height="44" viewBox="0 0 206 44" fill="none" xmlns="http://www.w3.org/2000/svg">
<g clip-path="url(#clip0_30699_120745)">
<mask id="mask0_30699_120745" style="mask-type:luminance" maskUnits="userSpaceOnUse" x="0" y="0" width="206" height="44">
<path d="M205.333 0H0V44H205.333V0Z" fill="white"/>
</mask>
<g mask="url(#mask0_30699_120745)">
<path d="M56.8982 3.55887C54.2118 5.64438 52.8687 8.54765 52.8687 12.2672V31.5228C52.8687 35.2426 54.2118 38.1457 56.8982 40.2295C59.5825 42.3145 63.2814 43.3576 67.9932 43.3576H97.0496V37.2258H67.8612C65.1749 37.2258 63.2483 36.6943 62.082 35.6315C60.9157 34.5682 60.3316 33.0968 60.3316 31.216V24.9601H97.0496V18.8281H60.3316V12.7569C60.3316 10.7957 60.9157 9.27271 62.082 8.18969C63.2483 7.10674 65.1749 6.56436 67.8612 6.56436H97.0496V0.431152H67.9932C63.2814 0.431152 59.5825 1.47372 56.8982 3.55887Z" fill="#FFFFFF"/>
<path d="M147.495 17.6329C148.486 16.0989 148.982 14.229 148.982 12.0213C148.982 8.34171 147.661 5.49109 145.02 3.46662C142.377 1.44302 138.656 0.431641 133.858 0.431641H104.867V6.56355H133.132C135.816 6.56355 137.897 7.09624 139.372 8.15899C140.848 9.22176 141.585 10.7338 141.585 12.6968C141.585 14.658 140.848 16.1718 139.372 17.2345C137.897 18.2973 135.816 18.8287 133.132 18.8287H104.867V24.9606H133.132C135.862 24.9606 137.952 25.492 139.406 26.5547C140.858 27.6192 141.585 29.1312 141.585 31.0926C141.585 33.0555 140.848 34.5688 139.372 35.6301C137.897 36.6943 135.816 37.2256 133.132 37.2256L104.867 37.1637V43.3577H133.858C138.656 43.3577 142.377 42.3058 145.02 40.1988C147.661 38.0947 148.982 35.1608 148.982 31.3991C148.982 29.2753 148.486 27.4748 147.495 26.0031C146.504 24.5315 144.843 23.1618 142.508 21.8944C144.843 20.5871 146.504 19.1664 147.495 17.6329Z" fill="#FFFFFF"/>
<path d="M164.452 22.8701L167.615 10.5443C167.967 9.27738 168.638 8.2748 169.629 7.5388C170.62 6.80323 171.818 6.4361 173.227 6.4361H175.275H181.88H183.927C185.336 6.4361 186.535 6.80323 187.526 7.5388C188.517 8.2748 189.188 9.27738 189.539 10.5443L192.704 22.8701H164.452ZM194.723 5.36235C193.998 4.31987 193.117 3.42134 192.083 2.66508C191.048 1.90889 189.904 1.32654 188.649 0.915952C187.394 0.50845 186.06 0.304199 184.653 0.304199H181.88H175.275H172.502C171.137 0.304199 169.816 0.50845 168.54 0.915952C167.261 1.32654 166.106 1.90889 165.072 2.66508C164.037 3.42134 163.157 4.31987 162.431 5.36235C161.704 6.40492 161.187 7.5388 160.878 8.76575L152.029 43.2287H159.228L162.879 29.002H194.276L197.927 43.2287H205.126L196.276 8.76575C195.968 7.5388 195.451 6.40492 194.723 5.36235Z" fill="#FFFFFF"/>
<path d="M37.1437 17.2346C35.6685 18.2973 33.5882 18.8286 30.9018 18.8286H7.98622V6.56483H30.9018C33.5882 6.56483 35.6685 7.09623 37.1437 8.15898C38.6183 9.22179 39.356 10.7337 39.356 12.6968C39.356 14.658 38.6183 16.1714 37.1437 17.2346ZM37.1437 35.6315C35.6685 36.6943 33.5882 37.2258 30.9018 37.2258H7.98622V24.9605H30.9018C33.6316 24.9605 35.7237 25.4932 37.1765 26.5546C38.63 27.6187 39.356 29.1308 39.356 31.0937C39.356 33.0549 38.6183 34.5688 37.1437 35.6315ZM45.2667 17.6324C46.2561 16.1002 46.7518 14.229 46.7518 12.0213C46.7518 8.3417 45.4321 5.49108 42.7895 3.46794C40.148 1.443 36.4276 0.431152 31.6293 0.431152H0.721924V43.3576H31.6293C36.4276 43.3576 40.148 42.3057 42.7895 40.1999C45.4321 38.0946 46.7518 35.1619 46.7518 31.4008C46.7518 29.2747 46.2561 27.4747 45.2667 26.0031C44.2758 24.531 42.6141 23.1631 40.28 21.8943C42.6141 20.587 44.2758 19.1664 45.2667 17.6324Z" fill="#FFFFFF"/>
</g>
</g>
<defs>
<clipPath id="clip0_30699_120745">
<rect width="205.333" height="44" fill="white"/>
</clipPath>
</defs>
</svg>
