<svg width="150" height="41" viewBox="0 0 150 41" fill="none" xmlns="http://www.w3.org/2000/svg">
<path fill-rule="evenodd" clip-rule="evenodd" d="M0 0.00302124H20.362L33.891 15.8105L35.366 17.5542L36.4406 19.1611L37.6445 21.4395L38.8534 24.6533L39.5225 27.0661L39.923 30.0136V40.998H22.6429V31.0832L22.3743 30.0136L22.1056 28.27L21.434 26.3969L20.7649 24.6533L19.158 22.1086L16.2105 18.4919L0 0.00302124Z" fill="#40BFF2"/>
<path fill-rule="evenodd" clip-rule="evenodd" d="M41.9328 0.00250244H63.1006L43.2735 22.3768L42.2014 24.2523L41.6666 25.4587L41.398 23.715L40.5896 21.3047L38.9827 18.2228L36.9778 15.1409L34.8312 12.5963L32.9557 10.4521L41.9328 0.00250244Z" fill="#40BFF2"/>
<path d="M88.4225 0.00250244H70.0654V41H88.4225V0.00250244Z" fill="#40BFF2"/>
<path fill-rule="evenodd" clip-rule="evenodd" d="M111.866 17.6855H98.2006V0H114.948L116.02 0.134322L117.762 0.402959L119.237 0.937751L121.378 1.60936L120.04 2.81575L118.433 4.2883L116.826 6.29813L115.62 8.44228L114.411 10.8551L113.744 13.6683L113.341 16.3473L112.941 18.2228C112.941 18.2228 112.672 17.9541 112.54 17.8223C112.133 17.6855 111.866 17.6855 111.866 17.6855Z" fill="#40BFF2"/>
<path fill-rule="evenodd" clip-rule="evenodd" d="M133.171 0.00250244H149.245V16.213H136.922L135.716 16.3473L134.644 16.7478L133.571 17.4169L132.768 18.3571L132.228 19.5635L131.83 20.9017L131.696 22.1081V40.9975H115.483V18.6233L115.62 17.1507L116.02 14.8722L116.689 12.8649L117.627 10.7183L118.968 8.17365L120.841 5.76335L122.988 3.75352L125.264 2.28097L127.276 1.20641L129.286 0.537294L132.368 0.00250244H133.171Z" fill="#40BFF2"/>
</svg>
