<svg width="19" height="30" viewBox="0 0 19 30" fill="none" xmlns="http://www.w3.org/2000/svg">
<path d="M9.67845 22.6198C7.64487 22.6198 5.99258 24.2218 5.99258 26.1935C5.99258 28.1652 7.64487 29.7672 9.67845 29.7672C11.712 29.7672 13.3643 28.1652 13.3643 26.1935C13.3643 24.2218 11.712 22.6198 9.67845 22.6198ZM17.0925 0C18.1376 0 18.999 0.821543 18.999 1.84847V3.66956C18.999 6.1205 18.0387 8.42081 16.2735 10.1461C15.0448 11.3784 13.4773 12.2273 11.7544 12.6107L11.5849 12.6518V17.3482L11.7544 17.3893C13.4773 17.7727 15.0307 18.6216 16.2735 19.8539C18.0246 21.5792 18.9849 23.8795 18.9849 26.3304V28.1515C18.9849 29.1648 18.1376 30 17.0784 30C16.0193 30 15.1719 29.1648 15.1719 28.1515V26.3304C15.1719 24.8654 14.5929 23.4824 13.5479 22.4418C12.5029 21.4149 11.133 20.8535 9.66433 20.8398C8.20975 20.8398 6.82579 21.4149 5.78075 22.4418C4.73572 23.4824 4.15671 24.8517 4.15671 26.3304V28.1515C4.15671 29.1648 3.30939 30 2.25023 30C1.2052 30 0.34375 29.1648 0.34375 28.1515V26.3304C0.34375 23.8932 1.30405 21.5929 3.06931 19.8539C4.31206 18.6216 5.86549 17.7727 7.58838 17.3893L7.75785 17.3482V12.6518L7.58838 12.6107C5.86549 12.2273 4.31206 11.3647 3.06931 10.1461C1.31817 8.40712 0.34375 6.1068 0.34375 3.66956V1.84847C0.34375 0.835235 1.2052 0 2.25023 0C3.29527 0 4.15671 0.821543 4.15671 1.84847V3.66956C4.15671 5.13464 4.73572 6.51757 5.78075 7.55819C6.82579 8.58512 8.20975 9.14651 9.66433 9.14651C11.1189 9.14651 12.5029 8.58512 13.5479 7.55819C14.5929 6.51757 15.1719 5.13464 15.1719 3.66956V1.84847C15.1861 0.821543 16.0334 0 17.0925 0Z" fill="#00BEF2"/>
</svg>
