<svg width="300" height="66" viewBox="0 0 300 66" fill="none" xmlns="http://www.w3.org/2000/svg">
<g clip-path="url(#clip0_30573_104301)">
<path fill-rule="evenodd" clip-rule="evenodd" d="M70.7676 47.8009V48.9733C70.7676 51.5137 71.5538 53.5853 73.126 55.1485C74.6981 56.6727 76.7415 57.4543 79.2962 57.4543C81.8507 57.4543 83.894 56.6727 85.4663 55.1485C87.0775 53.6242 87.8637 51.631 87.8637 49.1689C87.8637 46.3549 86.685 44.2055 84.3264 42.7201C86.4096 41.2351 87.4705 39.2809 87.4705 36.8578C87.4705 34.5129 86.7236 32.5979 85.191 31.1517C83.6978 29.6666 81.7326 28.9238 79.2962 28.9238C74.3837 28.9238 71.1608 32.1679 71.1608 37.0531V37.8349H75.8769V37.0531C75.8769 35.1383 77.2915 33.6139 79.2962 33.6139C81.3787 33.6139 82.7547 35.0602 82.7547 37.0531C82.7547 39.0856 81.4577 40.4535 78.9032 40.4535H76.9382V45.1434H78.9032C81.7326 45.1434 83.1477 46.7847 83.1477 48.9733C83.1477 51.1228 81.6148 52.7644 79.2962 52.7644C77.0954 52.7644 75.4837 51.1228 75.4837 48.9733V47.8009H70.7676ZM96.9028 51.0057H113.174L116.16 56.868H121.426L107.671 29.5104H102.366L88.6497 56.868H93.9553L96.9028 51.0057ZM110.815 46.3158H99.2609L105.038 34.8256L110.815 46.3158ZM128.501 34.2002H134.789V56.868H139.505V29.5104H123.785V56.868H128.501V34.2002ZM147.247 53.2726C150.037 56.0475 153.417 57.4543 157.387 57.4543C161.356 57.4543 164.736 56.0475 167.526 53.2726C170.317 50.4975 171.731 47.1365 171.731 43.1891C171.731 39.2417 170.317 35.8806 167.526 33.1059C164.736 30.331 161.356 28.9238 157.387 28.9238C153.417 28.9238 150.037 30.331 147.247 33.1059C144.456 35.8806 143.042 39.2417 143.042 43.1891C143.042 47.1365 144.456 50.4975 147.247 53.2726ZM150.587 36.4277C152.474 34.5518 154.754 33.6139 157.387 33.6139C160.02 33.6139 162.3 34.5518 164.186 36.4277C166.072 38.3038 167.016 40.5705 167.016 43.1891C167.016 45.8077 166.072 48.0745 164.186 49.9505C162.3 51.8264 160.02 52.7644 157.387 52.7644C154.754 52.7644 152.474 51.8264 150.587 49.9505C148.701 48.0745 147.758 45.8077 147.758 43.1891C147.758 40.5705 148.701 38.3038 150.587 36.4277ZM189.417 36.8578C189.417 34.7082 188.67 32.9497 187.137 31.5818C185.644 30.2136 183.797 29.5104 181.557 29.5104H175.268V56.868H181.557C183.875 56.868 185.801 56.1645 187.413 54.7186C189.024 53.2726 189.81 51.4356 189.81 49.2081C189.81 46.5111 188.709 44.4009 186.469 42.7983C188.434 41.3133 189.417 39.3199 189.417 36.8578ZM181.675 45.1823C183.561 45.2997 185.094 46.8238 185.094 48.6997C185.094 50.6149 183.561 52.1781 181.557 52.1781H179.985V45.1823H181.675ZM179.985 34.2002H181.557C183.325 34.2002 184.701 35.568 184.701 37.3269C184.701 39.0856 183.325 40.4924 181.557 40.4924H179.985V34.2002ZM193.347 29.5104V56.868H206.316V52.1781H198.063V45.534H205.923V40.8441H198.063V34.2002H206.316V29.5104H193.347ZM213.39 56.868H224.787V63.5123H229.503V52.1781H226.163V29.5104H212.8V44.3616C212.8 50.1069 211.975 52.1781 209.263 52.1781H208.674V63.5123H213.39V56.868ZM217.517 34.2002H221.447V52.1781H216.063C216.966 50.9667 217.399 48.9342 217.438 47.5665C217.477 46.8629 217.517 45.8077 217.517 44.3616V34.2002ZM259.372 29.5104H254.656V40.8441H236.971V29.5104H232.254V56.868H236.971V45.534H254.656V56.868H259.372V29.5104ZM278.826 29.5104H274.11L268.018 45.1434V29.5104H263.302V56.868H268.018L274.11 41.2351V56.868H278.826V29.5104ZM282.756 56.868H287.472V45.2213L294.114 56.868H299.498L291.756 43.1891L299.498 29.5104H294.114L287.472 41.1959V29.5104H282.756V56.868Z" fill="#636468"/>
<path fill-rule="evenodd" clip-rule="evenodd" d="M44.5425 7.94813V3.65122C44.5429 1.79548 46.0695 0.277344 47.9355 0.277344C49.801 0.277344 51.3278 1.79665 51.3278 3.65108V7.94813H53.2138V3.65122C53.2138 1.79548 54.7404 0.277344 56.6063 0.277344C58.4719 0.277344 59.9991 1.79562 59.9991 3.65108V56.8459L61.9483 60.3563C62.8812 61.9635 62.3225 64.0374 60.7065 64.9651C59.0908 65.8928 57.0051 65.337 56.0724 63.7302L52.0755 56.8459L48.0784 63.7302C47.1458 65.337 45.0601 65.8928 43.4443 64.9651C41.8282 64.0374 41.2692 61.9635 42.2025 60.3563L44.2405 56.8459H26.4141L28.4521 60.3563C29.3847 61.9635 28.8262 64.0374 27.21 64.9651C25.5945 65.8928 23.5088 65.337 22.5757 63.7302L18.5788 56.8459L14.5819 63.7302C13.6493 65.337 11.5636 65.8928 9.9476 64.9651C8.33168 64.0374 7.77271 61.9635 8.70603 60.3563L10.8287 56.7002V14.6962L3.89334 14.6959C2.02717 14.6958 0.50037 13.1777 0.50037 11.3221C0.50037 9.46689 2.0274 7.94834 3.89315 7.94834L44.5425 7.94813ZM64.3381 7.94813C66.2115 7.94813 67.7304 9.45869 67.7304 11.3219C67.7304 13.1853 66.2115 14.6958 64.3381 14.6958C62.464 14.6958 60.9451 13.1853 60.9451 11.3219C60.9451 9.45869 62.464 7.94813 64.3381 7.94813Z" fill="#FF7E0A"/>
</g>
<defs>
<clipPath id="clip0_30573_104301">
<rect width="300" height="65.4545" fill="white"/>
</clipPath>
</defs>
</svg>
