<svg width="611" height="123" viewBox="0 0 611 123" fill="none" xmlns="http://www.w3.org/2000/svg">
<path d="M0 120.664V104.262C14.0812 87.7114 27.8455 70.8531 42.2342 54.6099C29.2341 55.225 15.9357 54.9174 2.78646 54.9174V34.3408H71.3192V50.7424C57.8624 67.4516 44.3963 84.31 30.3244 100.553C43.9304 99.7797 57.704 100.246 71.3192 100.087V120.664H0Z" fill="#E3001A"/>
<path d="M125.771 52.2802C117.728 52.2802 111.69 59.8567 111.69 67.6009H141.24C141.24 59.0832 134.438 52.2802 125.771 52.2802ZM163.047 84.7666H111.382C111.382 94.8219 119.424 101.01 129.172 101.01C134.745 101.01 140.159 99.3045 143.868 94.9711L160.112 108.437C152.843 117.719 140.625 122.518 129.172 122.518C102.259 122.518 88.485 103.023 88.485 77.4978C88.485 54.4423 101.793 32.4771 127.01 32.4771C151.92 32.4771 163.364 55.3742 163.364 77.4978C163.364 79.9673 163.206 82.4461 163.047 84.7666Z" fill="#E3001A"/>
<path d="M234.525 120.664V76.8827C234.525 66.5199 232.512 53.5196 219.363 53.5196C207.919 53.5196 204.359 63.4259 204.359 73.1737V120.664H181.62V11.4438L204.359 0V39.6062C209.615 34.1918 217.35 32.0205 224.777 32.0205C248.904 32.0205 256.798 50.2766 256.798 71.6267V120.664H234.525Z" fill="#E3001A"/>
<path d="M329.813 120.664V73.9471C329.813 63.2674 327.651 53.8365 315.117 53.8365C303.365 53.8365 300.42 63.2674 300.42 73.4811V120.664H277.682V34.3408H300.42V40.0721L300.579 39.9136C305.527 34.3408 313.42 32.4863 320.689 32.4863C345.124 32.4863 352.551 50.1181 352.551 71.9341V120.664H329.813Z" fill="#E3001A"/>
<path d="M391.067 75.6434C391.067 85.6987 392.773 101.01 405.922 101.01C411.644 101.01 416.443 98.2235 420.003 93.741V60.9471C416.285 55.9987 410.712 53.5197 404.524 53.5197C392.773 53.5197 391.067 66.52 391.067 75.6434ZM420.003 120.664V115.25C419.845 115.25 419.845 115.399 419.845 115.399C414.896 119.89 408.242 122.518 401.589 122.518C375.747 122.518 367.863 98.0744 367.863 76.2584C367.863 54.9176 376.986 32.0206 401.589 32.0206C409.016 32.0206 414.43 33.726 419.845 38.6744L420.003 38.8236V11.6024L442.742 0.14917V120.664H420.003Z" fill="#E3001A"/>
<path d="M497.352 52.2802C489.309 52.2802 483.271 59.8567 483.271 67.6009H512.822C512.822 59.0832 506.019 52.2802 497.352 52.2802ZM534.628 84.7666H482.963C482.963 94.8219 491.006 101.01 500.753 101.01C506.326 101.01 511.741 99.3045 515.45 94.9711L531.693 108.437C524.424 117.719 512.207 122.518 500.753 122.518C473.84 122.518 460.066 103.023 460.066 77.4978C460.066 54.4423 473.374 32.4771 498.591 32.4771C523.501 32.4771 534.936 55.3742 534.936 77.4978C534.936 79.9673 534.787 82.4461 534.628 84.7666Z" fill="#E3001A"/>
<path d="M604.093 60.7885C600.533 57.3871 596.051 55.0666 590.944 55.0666C578.875 55.0666 576.397 63.2674 576.397 73.9378V120.655H553.658V34.1824H576.397V40.0628C576.397 39.9044 576.397 39.9044 576.555 39.7553C581.037 34.956 587.542 32.4771 594.196 32.4771C600.067 32.4771 605.947 34.1824 610.122 38.5158L604.093 60.7885Z" fill="#E3001A"/>
</svg>
