<svg version="1.1" id="Layer_1" xmlns="http://www.w3.org/2000/svg" xmlns:xlink="http://www.w3.org/1999/xlink" x="0px" y="0px" viewBox="0 0 141.2 88" style="enable-background:new 0 0 141.2 88;" xml:space="preserve">
 <style type="text/css">
  .st0{fill:#E30613;}
 </style>
 <desc style="-webkit-tap-highlight-color: rgba(0, 0, 0, 0);">
  Created with Raphaël 2.1.0
 </desc>
 <g>
  <path class="st0" d="M0,87.4v-5.6l9.5-9.3H0.8v-6.1h18.9v5.8l-9.2,9.1h9.6v6.1H0">
  </path>
  <path class="st0" d="M38.3,74.6c0-1.9-1.7-3.6-3.7-3.6c-2.5,0-3.9,1.4-3.9,3.6H38.3L38.3,74.6z M30.8,78.8c0,2.5,1.9,4.1,4.1,4.1
		c1.3,0,2.5-0.6,3.1-1.8h8c-1.4,5.2-6.7,6.9-11.6,6.9c-6.7,0-11.9-3.8-11.9-10.9c0-6.9,5.2-11.3,11.9-11.3c7.8,0,12.4,5.4,12.3,13
		H30.8">
  </path>
  <path class="st0" d="M48.7,58.7l8.3-0.9l1.1,10.4c1.4-2.3,3.2-3.6,6-3.9c5.5-0.6,8.4,2.3,9.1,8.1l1.4,12.5l-8.3,0.9l-1.2-11
		c-0.2-2.1-1-3.8-3.3-3.6c-2.5,0.3-3,2-2.8,4.7l1.2,10.6l-8.3,0.9L48.7,58.7">
  </path>
  <path class="st0" d="M73.8,64.1l6.7-3.6l1.6,2.9c0.4-3.1,1.6-5.3,4.4-6.8c4.8-2.6,8.7-1,11.4,4l6,11l-7.3,4l-5.3-9.7
		c-1-1.8-2.4-3.2-4.4-2c-2.2,1.2-2.1,3-0.8,5.3l5.1,9.4l-7.3,4L73.8,64.1">
  </path>
  <path class="st0" d="M112.8,49.2c-1.7-1.5-4.2-2.6-6-0.5c-1.8,2.1-0.4,4.4,1.4,5.9c1.6,1.5,3.9,2.7,5.7,0.7
		C115.9,53.2,114.7,50.8,112.8,49.2L112.8,49.2z M120.9,55.6l-2.1-1.9c0.6,3.2,0.1,5.1-1.7,7.1c-4.2,4.7-9.9,4-14.3,0
		c-5.2-4.6-6-10.5-2.7-14.3c1.8-2,3.4-2.9,6.2-2.9l-7.5-6.6l5.5-6.2L125.9,50L120.9,55.6">
  </path>
  <path class="st0" d="M124.6,25.1c-1.8-0.7-4,0.3-4.7,2.1c-0.9,2.3-0.1,4.1,2,4.9L124.6,25.1L124.6,25.1z M125.8,33.7
		c2.3,0.9,4.5-0.3,5.3-2.3c0.5-1.2,0.4-2.6-0.6-3.6l2.9-7.4c4.3,3.2,4,8.8,2.2,13.3c-2.4,6.3-7.9,9.7-14.5,7.1
		c-6.4-2.5-8.6-8.9-6.2-15.2c2.8-7.2,9.5-9.6,16.6-6.7L125.8,33.7">
  </path>
  <path class="st0" d="M120.2,15.2V7.6h4.2V7.5c-3.3-1.2-4.8-3.2-4.8-6.4c0-0.4,0.1-0.7,0.1-1.1h8.3c-0.1,0.6-0.2,1.2-0.2,1.7
		c0,3.4,1.6,5.1,6.1,5.1h7.2v8.3H120.2">
  </path>
 </g>
</svg>